DBRep_DrawableShape

CASCADE Topology V1, (c) Matra-Datavision
Locations 149
1
              1               0               0               0
              0               1               0               0
              0               0               1               0
1
              1               0               0               0
              0               1               0               0
              0               0               1               0
1
              1               0               0               0
              0               1               0               0
              0               0               1               0
1
              1               0               0               0
              0               1               0               0
              0               0               1               0
1
              1               0               0               0
              0               1               0               0
              0               0               1               0
1
              1               0               0               0
              0               1               0               0
              0               0               1               0
1
              1               0               0               0
              0               1               0               0
              0               0               1               0
1
              1               0               0               0
              0               1               0               0
              0               0               1               0
1
              1               0               0               0
              0               1               0               0
              0               0               1               0
1
              1               0               0               0
              0               1               0               0
              0               0               1               0
1
              1               0               0               0
              0               1               0               0
              0               0               1               0
2  2 1 3 -1 4 1 5 -1 6 1 7 1 8 -1 9 1 10 1 11 -1 0
1
              1               0               0               0
              0               1               0               0
              0               0               1               0
1
              0               0               1               0
              1               0               0               0
              0               1               0               0
1
              1               0               0               0
              0               1               0               0
              0               0               1               0
1
              1               0               0               5
              0               1               0               0
              0               0               1               0
1
              1               0               0               0
              0               1               0               0
              0               0               1               0
1
              1               0               0               0
              0               1               0               0
              0               0               1               0
1
              1               0               0               0
              0               1               0               0
              0               0               1               0
2  13 1 14 1 15 -1 16 1 17 1 18 -1 19 1 0
1
              1               0               0               0
              0               1               0               0
              0               0               1               0
2  13 1 14 1 15 -1 16 1 17 1 18 -1 19 1 2 1 3 -1 4 1 5 -1 6 1 7 1 8 -1 9 1 10 1 11 -1 0
2  15 1 14 -1 13 -1 0
2  16 -1 15 1 14 -1 13 -1 0
1
              1               0               0               0
              0               1               0               0
              0               0               1               0
2  13 1 14 1 15 -1 16 1 25 1 21 1 2 1 3 -1 4 1 5 -1 6 1 7 1 8 -1 9 1 10 1 11 -1 0
2  25 -1 16 -1 15 1 14 -1 13 -1 0
1
              1               0               0               0
              0               1               0               0
              0               0               1               0
1
              1               0               0               0
              0              -1               0               0
              0               0              -1             -90
2  13 1 14 1 15 -1 16 1 25 1 29 1 0
2  13 1 14 1 15 -1 16 1 25 1 28 1 2 1 3 -1 4 1 5 -1 6 1 7 1 8 -1 9 1 10 1 11 -1 0
2  13 1 14 1 15 -1 16 1 25 1 29 1 2 1 3 -1 4 1 5 -1 6 1 7 1 8 -1 9 1 10 1 11 -1 0
2  28 -1 25 -1 16 -1 15 1 14 -1 13 -1 0
1
              1               0               0               0
              0               1               0               0
              0               0               1               0
2  34 1 17 -1 16 -1 15 1 14 -1 13 -1 0
1
              1               0               0               0
              0               1               0               0
              0               0               1               0
2  36 1 17 -1 16 -1 15 1 14 -1 13 -1 0
1
              1               0               0               0
              0               1               0               0
              0               0               1               0
2  38 1 17 -1 16 -1 15 1 14 -1 13 -1 0
2  18 1 17 -1 16 -1 15 1 14 -1 13 -1 0
2  29 -1 25 -1 16 -1 15 1 14 -1 13 -1 0
1
              1               0               0               0
              0               1               0               0
              0               0               1               0
1
              0               0               1               5
              1               0               0               0
              0               1               0               0
2  42 1 43 1 11 -1 0
2  11 1 43 -1 42 -1 0
1
              1               0               0           -16.2
              0               1               0              -0
              0               0               1              -0
2  46 -1 11 1 43 -1 42 -1 0
1
              1               0               0               0
              0               1               0               0
              0               0               1               0
1
              1               0               0               0
              0               1               0               0
              0               0               1               0
1
              1               0               0               0
              0               1               0               0
              0               0               1               0
2  48 1 49 1 50 1 10 1 11 -1 0
2  50 -1 49 -1 48 -1 0
2  7 1 8 -1 9 1 10 1 11 -1 0
2  2 1 3 -1 4 1 5 -1 6 1 0
2  17 1 18 -1 19 1 0
1
              1               0               0             -14
              0               1               0           2e-15
              0               0               1          -2e-15
2  18 -1 56 1 19 1 0
2  25 1 21 1 0
2  19 1 2 1 3 -1 4 1 5 -1 6 1 7 1 8 -1 9 1 10 1 11 -1 0
2  17 1 18 -1 0
2  13 1 14 1 15 -1 0
2  13 1 14 1 15 -1 16 1 0
2  19 -1 0
2  13 1 14 1 15 -1 17 1 18 -1 0
2  18 1 17 -1 15 1 14 -1 13 -1 0
2  13 1 14 1 15 -1 16 1 17 1 18 -1 0
2  25 -1 0
2  13 1 14 1 15 -1 25 1 21 1 0
2  25 -1 15 1 14 -1 13 -1 0
2  21 -1 25 -1 15 1 14 -1 13 -1 0
2  13 1 14 1 15 -1 16 1 25 1 21 1 0
2  13 1 14 1 15 -1 17 1 18 -1 19 1 0
2  25 1 28 1 0
2  25 1 29 1 0
2  13 1 14 1 15 -1 25 1 29 1 0
2  25 1 28 1 2 1 3 -1 4 1 5 -1 6 1 7 1 8 -1 9 1 10 1 11 -1 0
2  28 -1 25 -1 0
2  25 1 29 1 2 1 3 -1 4 1 5 -1 6 1 7 1 8 -1 9 1 10 1 11 -1 0
1
              1               0               0               0
              0              -1               0               0
              0               0              -1             -90
1
              1               0               0               0
              0               1               0               0
              0               0               1               0
2  79 -1 80 -1 0
1
              1               0               0               0
              0              -1               0               0
              0               0              -1             -90
1
              1               0               0               0
              0               1               0               0
              0               0               1               0
2  82 -1 83 -1 0
2  29 -1 25 -1 0
2  13 1 14 1 15 -1 16 1 25 1 28 1 0
2  13 1 14 1 15 -1 25 1 28 1 0
2  28 -1 25 -1 15 1 14 -1 13 -1 0
2  29 -1 25 -1 15 1 14 -1 13 -1 0
2  42 1 43 1 11 -1 46 1 0
1
              1               0               0               0
              0               1               0               0
              0               0               1               0
2  91 -1 0
2  10 1 11 -1 0
2  48 1 49 1 50 1 0
1
              1               0               0               0
              0               1               0               0
              0               0               1               0
1
              1               0               0               0
              0               1               0               0
              0               0               1               0
2  95 1 96 -1 48 -1 0
1
              1               0               0               0
              0               1               0               0
              0               0               1               0
1
              1               0               0               0
              0               1               0               0
              0               0               1               0
2  98 1 99 1 50 -1 49 -1 48 -1 0
2  2 1 3 -1 4 1 5 -1 6 1 7 1 8 -1 9 1 0
2  13 1 14 1 15 -1 17 1 18 -1 19 1 2 1 3 -1 4 1 5 -1 6 1 7 1 8 -1 9 1 0
2  13 1 14 1 15 -1 25 1 28 1 2 1 3 -1 4 1 5 -1 6 1 7 1 8 -1 9 1 0
2  13 1 14 1 15 -1 25 1 29 1 2 1 3 -1 4 1 5 -1 6 1 7 1 8 -1 9 1 0
2  13 1 14 1 15 -1 25 1 21 1 2 1 3 -1 4 1 5 -1 6 1 7 1 8 -1 9 1 0
1
              1               0               0               0
              0               1               0               0
              0               0               1               0
1
              1               0               0               0
              0               1               0               0
              0               0               1               0
2  106 1 107 1 0
2  107 -1 106 -1 0
2  4 1 5 -1 6 1 7 1 8 -1 9 1 10 1 11 -1 0
2  18 -1 56 1 19 1 2 1 3 -1 0
2  2 1 3 -1 0
1
              1               0               0               0
              0               1               0               0
              0               0               1               0
1
             -0               0              -1             -14
             -1               0               0               0
              0               1              -0               0
2  113 1 114 1 3 -1 0
2  3 1 114 -1 113 -1 0
1
              1               0               0               1
              0               1               0              -0
              0               0               1               0
2  117 -1 3 1 114 -1 113 -1 0
2  11 -1 46 1 0
2  42 1 43 1 0
2  98 1 99 1 0
2  99 -1 98 -1 0
2  98 -1 0
1
              1               0               0               0
              0               1               0               0
              0               0               1               0
1
              0               0               1               5
              1               0               0               0
              0               1               0               0
1
              1               0               0            -2.6
              0               1               0              -0
              0               0               1              -0
2  124 1 125 1 5 -1 126 1 98 1 99 1 0
2  126 -1 5 1 125 -1 124 -1 0
2  98 -1 126 -1 5 1 125 -1 124 -1 0
2  6 1 7 1 8 -1 9 1 10 1 11 -1 0
2  6 -1 0
2  124 1 125 1 5 -1 126 1 0
2  124 1 125 1 5 -1 126 1 6 1 0
2  5 1 125 -1 124 -1 0
2  9 1 10 1 11 -1 0
1
              1               0               0               0
              0               1               0               0
              0               0               1               0
1
              0               0               1             2.4
              1               0               0               0
              0               1               0               0
2  136 1 137 1 8 -1 0
2  8 1 137 -1 136 -1 0
1
              1               0               0 -454.83869619493
              0               1               0              -0
              0               0               1              -0
2  140 -1 8 1 137 -1 136 -1 0
2  136 1 137 1 8 -1 106 1 107 1 0
2  107 -1 106 -1 8 1 137 -1 136 -1 0
2  113 1 114 1 3 -1 117 1 0
2  5 -1 126 1 98 1 99 1 0
2  5 -1 126 1 6 1 7 1 8 -1 0
2  124 1 125 1 5 -1 126 1 6 1 7 1 8 -1 0
2  3 -1 117 1 4 1 5 -1 6 1 7 1 8 -1 9 1 10 1 11 -1 0
2  113 1 114 1 0
Curve2ds 81
2 44.999999999999993 1.6000000000000001e-16 0 -1 1 0 10
1 6.2831853071795871 -5 1 0
2 44.999999999999993 1.6000000000000001e-16 0 1 1 -0 10
1 9.4247779607693793 -5 -1 0
1 0 0 1 0
1 0 -5 1 0
1 0 -5 1 0
1 0 -5 1 0
1 0 0 1 0
1 0 -5 1 0
1 0 -5 1 0
1 0 -5 1 0
1 0 -5 1 0
1 3.1415926535897931 -5 -1 0
1 0 0 1 0
1 0 -16.199999999999999 1 0
1 0 0 1 0
1 0 -16.199999999999999 1 0
1 0 0 1 0
1 0 -16.199999999999999 1 0
1 0 0 1 0
1 0 -16.199999999999999 1 0
1 0 0 1 0
1 0 -16.199999999999999 1 0
1 0 -0.70710678118654757 1 0
2 24.999999999999993 1.6000000000000001e-16 0 -1 1 0 3.5499999999999998
1 0.64350110879328448 0 0 -1
1 10.068279069562664 0 0 -1
2 -51.488985509370686 1.2999999999999999e-16 2.2e-16 1 -1 2.2e-16 10.000000000000002
1 15.707963267948966 -2.4790000000000001e-14 -1 4.7900000000000001e-15
1 10.995574287564295 0 0 1
1 4.7123889803847092 0 0 1
2 -8.2000000000000001e-16 -8.5999999999999997e-16 -1 -2.2e-16 -2.2e-16 1 10.000000000000002
1 15.707963267948966 13.999999999999982 -1 3.3899999999999999e-15
2 -8.2000000000000001e-16 -8.5999999999999997e-16 -1 -2.2e-16 -2.2e-16 1 10.000000000000002
1 9.4247779607693793 14.000000000000004 -1 -1.13e-15
2 -51.488985509370686 1.2999999999999999e-16 2.2e-16 1 -1 2.2e-16 10.000000000000002
1 9.4247779607693793 -1.576e-14 -1 2.8700000000000001e-15
1 5.6396841983863029 0 0 -1
1 0 0 0 -1
1 3.7850937623830778 0 0 -1
1 3.7850937623830774 0 0 -1
1 -0.64350110879328426 0 0 -1
1 -0.64350110879328426 0 0 -1
1 -0.64350110879328426 0 0 -1
1 0 0 1 -0
1 3.1415926535897931 0 -1 0
1 1.3089973267948947 0 0 -1
1 1.3258455109674641 0 0 -1
1 4.4674381645577697 0 0 -1
1 1.3258455109674641 0 0 -1
1 3.44012485477512 0 0 -1
1 0.29853220118539342 0 0 -1
1 2.8430604524049108 0 0 -1
1 5.9846531059946857 0 0 -1
1 4.9573397962121986 0 0 -1
1 1.8157471426223415 0 0 -1
1 1.8157471426223415 0 0 -1
1 1.8325953267948984 0 0 -1
1 6.2831853071795862 0 0 1
1 0 0 0 1
1 0 0 1 0
1 0 -0.5 1 0
1 0 -0.5 1 0
8 -0.70710678118654757 0
1 6.2831853071795862 0 0 1
8 -0.70710678118654757 0
1 0 0 0 1
1 0 -0.5 1 0
1 0 -2.4000000000000026 1 0
2 -31.488985509370686 1.2999999999999999e-16 0 -1 -1 -0 1.6000000000000001
1 0 0 1 0
1 0 -1 1 0
1 0 0 0 -1
1 6.2831853071795862 0 0 -1
1 0 -2.6000000000000001 1 0
1 0 0 1 0
1 0 0 0 -1
1 6.2831853071795862 0 0 -1
1 0 0 1 0
1 0 -454.83869619492987 1 0
1 0 0 0 -1
1 6.2831853071795862 0 0 -1
Curves 58
2 5 0 0 1 0 0 -0 1 0 0 -0 1 10
2 5 0 0 -1 0 0 -0 -1 -0 0 -0 1 10
2 -16 -12.000000000000002 0 0 0 1 1 0 -0 -0 1 0 10
2 16 -12.000000000000002 0 0 0 -1 -1 -0 -0 -0 1 0 10
1 5 -6 -78 0 0 1
1 5 6 -78 0 0 1
2 -16 -78 0 0 0 -1 1 -0 0 0 -1 -0 10
2 0 -90 0 0 0 -1 1 -0 0 0 -1 -0 10
2 0 0 0 0 0 1 1 0 -0 -0 1 0 10
2 0 0 0 0 0 1 1 0 -0 -0 1 0 6
2 1.6248076809269736 6.5000000000008047 0 0 0 1 1 0 -0 -0 1 0 0.69999999999999996
2 0 6 0 0 0 1 1 0 -0 -0 1 0 1
2 -1.6248076809272867 6.5000000000000542 0 0 0 1 1 0 -0 -0 1 0 0.69999999999999996
2 0 0 0 0 0 1 1 0 -0 -0 1 0 6
1 -1.5529120231037354 5.7955555599528044 0 0.25881867051728924 -0.96592592665880073 0
1 1.5529120231038185 5.7955555599528044 0 -0.25881867051730217 -0.96592592665879728 0
2 5.0000000000000018 0 -70 -1 0 0 0 1 -0 -0 0 -1 3.5499999999999998
2 5.0000000000000018 0 -20 1 0 -0 0 1 0 0 -0 1 3.5499999999999998
1 0 -7.9999999999999991 -6.0000000000000018 1 0 0
2 0 0 0 -1 4.4e-16 -2.2e-16 -4.3999999999999995e-16 -1 -2.2e-16 -2.200000000000001e-16 -2.199999999999999e-16 1 10.000000000000002
7 0 0  1 2 2  2.2200000000000002e-15 1.8713000000000001e-13 -10  -13.999999999999998 1.8713000000000001e-13 -10
 -2.2200000000000002e-15 2 13.999999999999998 2
2 -14 1.5499999999999999e-15 -1.5499999999999999e-15 -1 4.4e-16 -2.2e-16 -4.3999999999999995e-16 -1 -2.2e-16 -2.200000000000001e-16 -2.199999999999999e-16 1 10.000000000000002
2 -14 1.5499999999999999e-15 -1.5499999999999999e-15 -1 4.4e-16 -2.2e-16 -4.3999999999999995e-16 -1 -2.2e-16 -2.200000000000001e-16 -2.199999999999999e-16 1 10.000000000000002
2 0 0 0 -1 4.4e-16 -2.2e-16 -4.3999999999999995e-16 -1 -2.2e-16 -2.200000000000001e-16 -2.199999999999999e-16 1 10.000000000000002
1 0 7.9999999999999991 -6.0000000000000018 1 0 0
1 0 -6 -12.000000000000002 1 0 0
1 0 6 -12.000000000000002 1 -0 -0
2 16 -12.000000000000002 0 0 0 -1 -1 -0 -0 -0 1 0 10
1 0 -6 -12.000000000000002 0 0 -1
1 0 -6 -78 1 -0 -0
1 0 6 -12.000000000000002 -0 -0 -1
1 0 -7.9999999999999991 -84 1 -0 -0
2 -16 -78 0 0 0 -1 1 -0 0 0 -1 -0 10
1 0 -7.9999999999999991 -6.0000000000000018 1 0 0
2 0 -90 0 0 0 -1 1 -0 0 0 -1 -0 10
1 5.0000000000000018 1.5529120231037772 5.7955555599528044 -1 -0 -0
1 5.0000000000000018 1.4550516545617107 5.8208955223884224 -1 -0 -0
1 5.0000000000000018 0.95576922407468001 6.2941176470593225 -1 -0 -0
1 5.0000000000000018 -0.95576922407486775 6.2941176470588456 -1 -0 -0
1 5.0000000000000018 -1.4550516545617034 5.8208955223880894 -1 -0 -0
1 5.0000000000000018 -1.5529120231037354 5.7955555599528044 -1 -0 -0
1 5.0000000000000018 0 0 -1 -0 -0
1 4.5000000000000018 3.0499999999999998 -70 -0.70710678118654746 -0.70710678118654757 -0
2 4.5000000000000018 0 -70 -1 0 0 0 1 -0 -0 0 -1 3.0499999999999998
1 4.5000000000000018 3.0499999999999998 -20 -0.70710678118654746 -0.70710678118654757 0
2 4.5000000000000018 0 -20 1 0 -0 0 1 0 0 -0 1 3.0499999999999998
2 0 0 -20 1 0 0 -0 1 0 0 -0 1 1.6000000000000001
2 0 0 -70 -1 0 0 0 1 -0 -0 0 -1 1.6000000000000001
2 0 0 0 0 0 1 1 0 -0 -0 1 0 6
1 5.0000000000000018 3.0499999999999998 -70 -1 -0 0
2 0 -70 0 0 0 -1 1 -0 0 0 -1 -0 3.0499999999999998
1 5.0000000000000018 3.0499999999999998 -20 -1 -0 -0
2 0 -20 0 0 0 1 1 0 -0 -0 1 0 3.0499999999999998
1 2.4000000000000026 1.6000000000000001 -20 -1 -0 -0
2 0 -20 0 0 0 1 1 0 -0 -0 1 0 1.6000000000000001
1 2.4000000000000026 1.6000000000000001 -70 -1 -0 0
2 0 -70 0 0 0 -1 1 -0 0 0 -1 -0 1.6000000000000001
1 -14.000000000000002 -6.0000000000000018 -1.3299999999999999e-15 1 -1.1e-16 1.1e-16
Polygon3D 0
PolygonOnTriangulations 0
Surfaces 43
1 5.0000000000000018 1.6000000000000001e-16 -44.999999999999993 1 0 0 -0 0 1 0 -1 0
10 4.7123889803847083 10.995574287564295 -5 14.000000000000004
2 0 0 0 -1 -0 -0 0 1 0 -0 -0 1 10
2 0 -16 -12.000000000000002 -1 -0 -0 0 1 0 -0 -0 1 10
2 0 16 -12.000000000000002 -1 0 -0 0 -1 -0 -0 -0 1 10
2 0 -16 -78 -1 -0 0 -0 1 0 -0 0 -1 10
2 0 0 -90 -1 -0 0 -0 1 0 -0 0 -1 10
2 0 0 -90 -1 0 0 0 1 0 0 0 -1 10
2 0 0 0 -1 -0 -0 0 1 0 -0 -0 1 10
2 0 0 0 -1 -0 -0 0 1 0 -0 -0 1 10
2 0 0 0 -1 -0 -0 0 1 0 -0 -0 1 10
2 0 0 0 -1 -0 -0 0 1 0 -0 -0 1 10
2 0 0 0 -1 -0 -0 0 1 0 -0 -0 1 10
2 5.0000000000000018 0 0 1 0 0 -0 1 0 0 -0 1 6
2 5.0000000000000018 1.6248076809269736 6.5000000000008047 1 0 0 -0 1 0 0 -0 1 0.69999999999999996
2 5.0000000000000018 0 6 1 0 0 -0 1 0 0 -0 1 1
2 5.0000000000000018 -1.6248076809272867 6.5000000000000542 1 0 0 -0 1 0 0 -0 1 0.69999999999999996
2 5.0000000000000018 0 0 1 0 0 -0 1 0 0 -0 1 6
3 4.5000000000000018 0 -70 -1 -0 -0 0 1 -0 0 -0 -1 3.0499999999999998
-0.78539816339744839
3 4.5000000000000018 0 -20 -1 -0 0 0 1 0 0 -0 1 3.0499999999999998
-0.78539816339744839
1 1.6000000000000001e-16 1.2999999999999999e-16 -51.488985509370686 -1 -0 -0 0 0 -1 0 -1 0
1 0 8.2000000000000001e-16 8.5999999999999997e-16 1 -4.4e-16 0 4.4e-16 1 0 -0 0 1
1 0 -6 -12.000000000000002 -0 1 0 0 0 -1 -1 0 -0
1 0 6 -12.000000000000002 -0 -1 -0 0 0 -1 -1 0 -0
1 2.5 -6 -45 -0 -1 -0 0 0 -1 1 -0 0
1 0 -6 -78 -0 1 -0 0 0 1 -1 -0 0
1 2.5 6 -45 0 1 0 0 -0 1 1 0 -0
2 0 0 -90 -1 0 0 0 1 0 0 0 -1 10
2 0 0 -90 -1 0 0 0 1 0 0 0 -1 10
2 5.0000000000000018 0 0 1 0 0 -0 1 0 0 -0 1 6
2 5.0000000000000018 0 0 1 0 0 -0 1 0 0 -0 1 6
1 5.0000000000000018 -1.5529120231037354 5.7955555599528044 0 -0.96592592665880073 -0.25881867051728924 0 0.25881867051728924 -0.96592592665880073 1 0 0
1 5.0000000000000018 1.5529120231038185 5.7955555599528044 0 -0.96592592665879728 0.25881867051730217 0 -0.25881867051730217 -0.96592592665879728 1 0 0
2 5.0000000000000018 0 -70 1 -0 -0 0 1 0 -0 0 -1 3.0499999999999998
2 5.0000000000000018 0 -70 1 -0 -0 0 1 0 -0 0 -1 3.0499999999999998
2 5.0000000000000018 0 -20 1 0 0 -0 1 0 0 -0 1 3.0499999999999998
2 2.4000000000000026 0 -20 1 0 0 -0 1 0 0 -0 1 1.6000000000000001
10 -78.343822433736918 15.365851414995547 -46.854836924366232 46.854836924366232
1 1.6000000000000001e-16 1.2999999999999999e-16 -51.488985509370686 -1 -0 -0 0 0 -1 0 -1 0
2 2.4000000000000026 0 -70 1 -0 -0 0 1 0 -0 0 -1 1.6000000000000001
2 -14 0 0 -1 4.4e-16 -2.2e-16 -4.3999999999999995e-16 -1 -2.2e-16 -2.200000000000001e-16 -2.199999999999999e-16 1 6.0000000000000018
1 5.0000000000000018 1.0499999999999999e-15 3.7955764038186408 1 0 0 -0 0 1 0 -1 0
1 5.0000000000000027 -1.1e-16 -70 1 -0 -0 -0 -0 -1 -0 -1 0
1 5.0000000000000027 -1.1e-16 -19.999999999999996 1 0 0 -0 0 1 0 -1 0
1 -14 0 2.2e-16 1 -2.9999999999999999e-16 0 2.9999999999999999e-16 1 0 -0 0 1
Triangulations 0

TShapes 180
Ve
1e-07
5 0 10
0 0

0101101
*
Ve
1e-07
-8 -6 0
0 0

0101101
*
Ed
 1e-07 1 1 0
1  1 0 1.5707963267949 3.78509376238308
2  1 1 0 1.5707963267949 3.78509376238308
2  2 2 0 1.5707963267949 3.78509376238308
4 C0 1 0 2 0
0

0101000
+180 0 -179 20 *
Ve
1e-07
5 8 -6
0 0

0101101
*
Ed
 1e-07 1 1 0
1  2 0 1.5707963267949 3.78509376238308
2  3 1 0 1.5707963267949 3.78509376238308
2  4 2 0 1.5707963267949 3.78509376238308
4 C0 1 0 2 0
0

0101000
+180 0 -177 21 *
Ve
1e-07
-6 -12 0
0 0

0101101
*
Ed
 1e-07 1 1 0
1  3 0 0 0.643501108793284
2  5 3 23 0 0.643501108793284
2  6 3 24 0 0.643501108793284
0

0101000
+175 0 -179 0 *
Ve
1e-07
5 6 -12
0 0

0101101
*
Ed
 1e-07 1 1 0
1  4 0 0 0.643501108793284
2  6 4 24 0 0.643501108793284
0

0101000
+173 27 -177 27 *
Ve
1e-07
5 -6 -78
0 0

0101101
*
Ed
 1e-07 1 1 0
1  5 0 0 66
0

0101000
+171 28 -175 20 *
Ed
 1e-07 1 1 0
1  6 0 0 66
0

0101000
+175 30 -173 21 *
Ve
1e-07
5 -8 -84
0 0

0101101
*
Ed
 1e-07 1 1 0
1  7 0 0 0.643501108793284
2  6 5 24 0 0.643501108793284
0

0101000
+171 27 -168 27 *
Ve
1e-07
5 0 -100
0 0

0101101
*
Ed
 1e-07 1 1 0
1  8 0 1.5707963267949 3.78509376238308
2  7 6 24 1.5707963267949 3.78509376238308
2  8 7 33 1.5707963267949 3.78509376238308
0

0101000
+166 33 -168 27 *
Ed
 1e-07 1 1 0
1  9 0 1.5707963267949 3.78509376238308
2  9 8 23 1.5707963267949 3.78509376238308
2  7 8 24 1.5707963267949 3.78509376238308
2  10 9 35 1.5707963267949 3.78509376238308
2  11 10 37 1.5707963267949 3.78509376238308
2  12 11 39 1.5707963267949 3.78509376238308
2  13 12 40 1.5707963267949 3.78509376238308
2  14 7 41 1.5707963267949 3.78509376238308
0

0101000
+166 41 -179 0 *
Wi

0101100
+178 12 -176 12 -174 22 +172 26 -170 12 +169 12 +167 31 -174 32 -165 31 +164 32
*
Ve
1e-07
5 1.55291202310378 5.7955555599528
0 0

0101101
*
Ve
1e-07
5 1.45505165456171 5.82089552238842
0 0

0101101
*
Ed
 1e-07 1 1 0
1  10 0 1.3089973267949 1.32584551096746
2  15 13 45 1.3089973267949 1.32584551096746
2  16 13 47 1.3089973267949 1.32584551096746
0

0101000
+162 45 -161 45 *
Ve
1e-07
5 0.95576922407468 6.29411764705932
0 0

0101101
*
Ed
 1e-07 1 1 0
1  11 0 3.44012485477512 4.46743816455777
2  17 14 45 3.44012485477512 4.46743816455777
2  18 14 47 3.44012485477512 4.46743816455777
0

0101000
+159 45 -161 45 *
Ve
1e-07
5 -0.955769224074868 6.29411764705885
0 0

0101101
*
Ed
 1e-07 1 1 0
1  12 0 0.298532201185393 2.84306045240491
2  19 15 45 0.298532201185393 2.84306045240491
2  20 15 47 0.298532201185393 2.84306045240491
0

0101000
+159 45 -157 45 *
Ve
1e-07
5 -1.4550516545617 5.82089552238809
0 0

0101101
*
Ed
 1e-07 1 1 0
1  13 0 4.9573397962122 5.98465310599469
2  21 16 45 4.9573397962122 5.98465310599469
2  22 16 47 4.9573397962122 5.98465310599469
0

0101000
+155 45 -157 45 *
Ve
1e-07
5 -1.55291202310373 5.7955555599528
0 0

0101101
*
Ed
 1e-07 1 1 0
1  14 0 1.81574714262234 1.8325953267949
2  23 17 45 1.81574714262234 1.8325953267949
2  24 17 47 1.81574714262234 1.8325953267949
0

0101000
+155 45 -153 45 *
Ve
1e-07
5 0 0
0 0

0101101
*
Ed
 1e-07 1 1 0
1  15 0 0 6
0

0101000
+153 45 -151 45 *
Ed
 1e-07 1 1 0
1  16 0 0 6.00000000000002
0

0101000
+162 45 -151 45 *
Wi

0101100
-160 44 +158 44 -156 44 +154 44 -152 44 -150 44 +149 44 *
Ve
1e-07
5 3.55 -70
0 0

0101101
*
Ed
 1e-07 1 1 0
1  17 0 0 6.28318530717959
2  25 18 0 0 6.28318530717959
0

0101000
+147 52 -147 52 *
Wi

0101100
+146 51 *
Ve
1e-07
5 3.55 -20
0 0

0101101
*
Ed
 1e-07 1 1 0
1  18 0 0 6.28318530717959
2  25 19 0 0 6.28318530717959
2  26 1 54 0 6.28318530717959
0

0101000
+144 0 -144 0 *
Wi

0101100
-143 53 *
Fa
0  1.00000005e-07 1 12

0111000
+163 0 +148 0 +145 0 +142 0 *
Ve
1e-07
0 -8 -6
0 0

0101101
*
Ed
 1e-07 1 1 0
1  19 0 0 5
2  27 3 55 0 5
2  28 2 0 0 5
4 C1 3 55 2 0
0

0101000
+140 19 -179 20 *
Ve
1e-07
1e-15 1.89e-13 -10
0 0

0101101
*
Ed
 1e-07 1 1 0
1  20 0 4.71238898038467 5.6396841983863
2  29 20 0 4.71238898038467 5.6396841983863
2  30 2 0 4.71238898038467 5.6396841983863
4 C0 20 0 2 0
0

0101000
+138 0 -140 19 *
Ve
1e-07
-14 1.85e-13 -10
0 0

0101101
*
Ed
 1e-07 1 1 0
1  21 0 -2e-15 14
3  31 32C0 2 0 -2e-15 14
0

0101000
+138 0 -136 19 *
Ve
1e-07
-14 -10 -4e-15
0 0

0101101
*
Ed
 1e-07 1 1 0
1  22 0 4.71238898038467 6.28318530717959
2  33 21 57 4.71238898038467 6.28318530717959
2  34 2 0 4.71238898038467 6.28318530717959
4 C0 2 0 21 57
0

0101000
+136 19 -134 19 *
Ed
 1e-07 1 1 0
1  23 0 0 4.71238898038467
2  35 21 57 0 4.71238898038467
2  36 2 0 0 4.71238898038467
4 C0 2 0 21 57
0

0101000
+134 19 -136 19 *
Ve
1e-07
0 8 -6
0 0

0101101
*
Ed
 1e-07 1 1 0
1  24 0 3.78509376238308 4.71238898038467
2  37 20 0 3.78509376238308 4.71238898038467
2  38 2 0 3.78509376238308 4.71238898038467
4 C0 20 0 2 0
0

0101000
+131 0 -138 0 *
Ed
 1e-07 1 1 0
1  25 0 0 5
2  27 4 58 0 5
2  39 2 0 0 5
4 C1 4 58 2 0
0

0101000
+131 0 -177 21 *
Wi

0101100
+178 0 -139 0 -137 0 +135 0 +133 0 +132 0 -135 0 -130 0 +129 0 -176 0
*
Fa
0  1e-07 2 0

0111000
+128 0 *
Ed
 1e-07 1 1 0
1  26 0 0 5
2  40 3 0 0 5
4 G1 3 0 22 0
0

0101000
+175 61 -175 62 *
Ed
 1e-07 1 1 0
1  3 0 0 0.643501108793284
2  5 3 23 0 0.643501108793284
2  6 3 24 0 0.643501108793284
0

0101000
+175 0 -140 65 *
Wi

0101100
+126 60 -139 63 -125 64 +174 66 *
Fa
0  1e-07 3 60

0111000
+124 0 *
Ve
1e-07
0 6 -12
0 0

0101101
*
Ed
 1e-07 1 1 0
1  27 0 0 5
2  40 4 0 0 5
4 G1 4 0 23 0
0

0101000
+122 67 -173 67 *
Ed
 1e-07 1 1 0
1  28 0 0 0.643501108793284
2  5 4 23 0 0.643501108793284
0

0101000
+122 69 -131 70 *
Wi

0101100
+121 58 -129 0 -120 68 +172 71 *
Fa
0  1e-07 4 58

0111000
+119 0 *
Ve
1e-07
0 -6 -78
0 0

0101101
*
Ed
 1e-07 1 1 0
1  29 0 0 66
0

0101000
+175 72 -117 28 *
Ed
 1e-07 1 1 0
1  30 0 0 5
2  40 5 0 0 5
4 G1 5 0 25 0
0

0101000
+117 67 -171 67 *
Wi

0101000
-126 55 +116 0 +115 73 +170 0 *
Fa
0  1e-07 24 0

0111000
+114 0 *
Ed
 1e-07 1 1 0
1  31 0 -0 66
0

0101000
+122 21 -175 75 *
Wi

0101000
+121 58 -169 0 -126 74 -112 0 *
Fa
0  1e-07 26 0

0111000
+111 0 *
Ve
1e-07
0 -8 -84
0 0

0101101
*
Ed
 1e-07 1 1 0
1  32 0 0 5
2  41 6 0 0 5
2  27 5 0 0 5
4 C1 6 0 5 0
2  42 7 77 0 5
0

0101000
+109 67 -168 67 *
Ed
 1e-07 1 1 0
1  33 0 0 0.643501108793284
2  5 5 23 0 0.643501108793284
0

0101000
+117 69 -109 69 *
Wi

0101100
+115 0 -108 0 -107 61 +167 62 *
Fa
0  1e-07 5 0

0111000
+106 0 *
Ed
 1e-07 1 1 0
1  34 0 0 5
2  41 8 0 0 5
2  27 3 0 0 5
4 C1 8 0 3 0
2  43 27 81 0 5
2  44 28 84 0 5
2  45 7 85 0 5
0

0101000
+179 61 -179 62 *
Wi

0101100
+126 0 -104 0 -174 61 +174 62 *
Fa
0  1e-07 3 0

0111000
+103 0 *
Ve
1e-07
0 0 -100
0 0

0101101
*
Ed
 1e-07 1 1 0
1  35 0 1.5707963267949 3.78509376238308
2  9 6 23 1.5707963267949 3.78509376238308
2  46 7 88 1.5707963267949 3.78509376238308
0

0101000
+101 88 -109 69 *
Ed
 1e-07 1 1 0
1  9 0 1.5707963267949 3.78509376238308
2  9 8 23 1.5707963267949 3.78509376238308
2  7 8 24 1.5707963267949 3.78509376238308
2  10 9 35 1.5707963267949 3.78509376238308
2  11 10 37 1.5707963267949 3.78509376238308
2  12 11 39 1.5707963267949 3.78509376238308
2  13 12 40 1.5707963267949 3.78509376238308
2  47 7 89 1.5707963267949 3.78509376238308
0

0101000
+101 89 -179 0 *
Wi

0101100
-164 30 +165 86 -108 73 -100 87 +99 75 +104 74 *
Fa
0  1e-07 7 0

0111000
+98 0 *
Ve
1e-07
1.55291202310378 5.7955555599528 0
0 0

0101101
*
Ed
 1e-07 1 1 0
1  36 0 0 16.2
2  48 13 0 0 16.2
0

0101000
+162 0 -96 90 *
Ve
1e-07
1.45505165456171 5.82089552238842 0
0 0

0101101
*
Ed
 1e-07 1 1 0
1  37 0 0 16.2
2  49 13 0 0 16.2
2  50 14 0 0 16.2
4 G1 13 0 14 0
2  51 29 92 0 16.2
0

0101000
+161 0 -94 90 *
Ed
 1e-07 1 1 0
1  10 0 1.3089973267949 1.32584551096746
2  15 13 45 1.3089973267949 1.32584551096746
2  16 13 47 1.3089973267949 1.32584551096746
0

0101000
+96 0 -94 0 *
Wi

0101100
+95 0 -93 0 -160 44 +92 90 *
Fa
0  1e-07 13 0

0111000
+91 0 *
Ve
1e-07
0.95576922407468 6.29411764705932 0
0 0

0101101
*
Ed
 1e-07 1 1 0
1  38 0 0 16.2
2  52 14 0 0 16.2
2  53 15 0 0 16.2
4 G1 14 0 15 0
0

0101000
+159 0 -89 90 *
Ed
 1e-07 1 1 0
1  11 0 3.44012485477512 4.46743816455777
2  17 14 45 3.44012485477512 4.46743816455777
2  18 14 47 3.44012485477512 4.46743816455777
0

0101000
+89 0 -94 0 *
Wi

0101100
+88 0 -93 0 -158 44 +87 90 *
Fa
0  1e-07 14 0

0111000
+86 0 *
Ve
1e-07
-0.955769224074868 6.29411764705885 0
0 0

0101101
*
Ed
 1e-07 1 1 0
1  39 0 0 16.2
2  54 15 0 0 16.2
2  55 16 0 0 16.2
4 G1 15 0 16 0
0

0101000
+157 0 -84 90 *
Ed
 1e-07 1 1 0
1  12 0 0.298532201185393 2.84306045240491
2  19 15 45 0.298532201185393 2.84306045240491
2  20 15 47 0.298532201185393 2.84306045240491
0

0101000
+89 0 -84 0 *
Wi

0101100
+88 0 -83 0 -156 44 +82 90 *
Fa
0  1e-07 15 0

0111000
+81 0 *
Ve
1e-07
-1.4550516545617 5.82089552238809 0
0 0

0101101
*
Ed
 1e-07 1 1 0
1  40 0 0 16.2
2  56 16 0 0 16.2
2  57 17 0 0 16.2
4 G1 16 0 17 0
2  58 30 92 0 16.2
0

0101000
+155 0 -79 90 *
Ed
 1e-07 1 1 0
1  13 0 4.9573397962122 5.98465310599469
2  21 16 45 4.9573397962122 5.98465310599469
2  22 16 47 4.9573397962122 5.98465310599469
0

0101000
+79 0 -84 0 *
Wi

0101100
+78 0 -83 0 -154 44 +77 90 *
Fa
0  1e-07 16 0

0111000
+76 0 *
Ve
1e-07
-1.55291202310373 5.7955555599528 0
0 0

0101101
*
Ed
 1e-07 1 1 0
1  41 0 0 16.2
2  59 17 0 0 16.2
0

0101000
+153 0 -74 90 *
Ed
 1e-07 1 1 0
1  14 0 1.81574714262234 1.8325953267949
2  23 17 45 1.81574714262234 1.8325953267949
2  24 17 47 1.81574714262234 1.8325953267949
0

0101000
+79 0 -74 0 *
Wi

0101100
+78 0 -73 0 -152 44 +72 90 *
Fa
0  1e-07 17 0

0111000
+71 0 *
Ve
1e-07
0 0 0
0 0

0101101
*
Ed
 1e-07 1 1 0
1  42 0 0 16.2
0

0101000
+151 0 -69 90 *
Ed
 1e-07 1 1 0
1  15 0 0 6
0

0101000
+74 0 -69 0 *
Wi

0101100
+73 0 -68 0 -150 44 +67 90 *
Fa
0  1e-07 31 0

0111000
+66 0 *
Ed
 1e-07 1 1 0
1  16 0 0 6.00000000000002
0

0101000
+96 0 -69 0 *
Wi

0101100
+95 0 -68 0 -149 44 +64 90 *
Fa
0  1e-07 32 0

0111000
+63 0 *
Ve
1e-07
4.5 3.05 -70
0 0

0101101
*
Ed
 1e-07 1 1 0
1  43 0 -0.707106781186548 0
3  60 61CN 18 0 -0.707106781186548 0
0

0101000
+147 52 -61 52 *
Ed
 1e-07 1 1 0
1  44 0 0 6.28318530717959
2  62 18 0 0 6.28318530717959
2  63 33 97 0 6.28318530717959
2  64 34 100 0 6.28318530717959
0

0101000
+61 52 -61 52 *
Wi

0101100
-60 94 -59 94 +60 94 +146 94 *
Fa
0  1e-07 18 94

0111000
+58 0 *
Ve
1e-07
4.5 3.05 -20
0 0

0101101
*
Ed
 1e-07 1 1 0
1  45 0 -0.707106781186548 0
3  65 66CN 19 0 -0.707106781186548 0
0

0101000
+144 0 -56 0 *
Ed
 1e-07 1 1 0
1  46 0 0 6.28318530717959
2  62 19 0 0 6.28318530717959
2  67 35 6 0 6.28318530717959
0

0101000
+56 0 -56 0 *
Wi

0101100
-55 0 +143 0 -54 0 +55 0 *
Fa
0  0 19 0

0111000
+53 0 *
Wi

0101100
-116 101 +125 102 -107 103 -137 101 +100 103 -130 101 -99 104 -120 105 +174 104 +112 101
*
Ve
1e-07
0 1.6 -20
0 0

0101101
*
Ed
 1e-07 1 1 0
1  47 0 0 6.28318530717959
2  68 36 0 0 6.28318530717959
2  69 37 0 0 6.28318530717959
0

0101000
+50 0 -50 0 *
Wi

0101100
+49 9 *
Ve
1e-07
0 1.6 -70
0 0

0101101
*
Ed
 1e-07 1 1 0
1  48 0 0 6.28318530717959
2  68 38 0 0 6.28318530717959
0

0101000
+47 109 -47 109 *
Wi

0101100
-46 108 *
Fa
0  1e-07 20 101

0111000
+51 0 +48 0 +45 0 *
Wi

0101100
-132 112 -133 112 *
Ve
1e-07
-14 -6 -1e-15
0 0

0101101
*
Ed
 1e-07 1 1 0
1  49 0 0 6.28318530717959
2  70 39 116 0 6.28318530717959
2  71 39 118 0 6.28318530717959
0

0101000
+42 116 -42 116 *
Wi

0101100
+41 115 *
Fa
0  1e-07 21 111

0111000
+43 0 +40 0 *
Wi

0101100
+92 0 -87 0 +82 0 -77 0 +72 0 +67 0 -64 0 *
Fa
0  1e-07 40 0

0111000
+38 120 *
Ve
1e-07
2.4 3.05 -70
0 0

0101101
*
Ed
 1e-07 1 1 0
1  50 0 0.5 2.6
3  72 73CN 34 0 0.5 2.6
0

0101000
+61 122 -36 123 *
Ed
 1e-07 1 1 0
1  51 0 0 6.28318530717959
2  74 34 128 0 6.28318530717959
0

0101100
+36 129 -36 129 *
Wi

0101100
-59 94 -35 121 +34 127 +35 121 *
Fa
0  1e-07 34 121

0111000
+33 0 *
Ve
1e-07
3.05 -20 0
0 0

0101101
*
Ed
 1e-07 1 1 0
1  52 0 0.5 2.6
3  72 73CN 35 0 0.5 2.6
0

0101000
+56 131 -31 132 *
Ed
 1e-07 1 1 0
1  53 0 0 6.28318530717959
2  75 35 134 0 6.28318530717959
2  74 35 128 0 6.28318530717959
0

0101100
+31 0 -31 0 *
Wi

0101100
+30 6 -54 0 +29 133 -30 6 *
Fa
0  1e-07 35 0

0111000
+28 131 *
Ve
1e-07
2.4 1.6 -20
0 0

0101101
*
Ed
 1e-07 1 1 0
1  54 0 0 2.4
3  76 77CN 36 0 0 2.4
0

0101000
+26 0 -50 0 *
Ed
 1e-07 1 1 0
1  55 0 0 6.28318530717959
2  78 36 139 0 6.28318530717959
2  79 36 141 0 6.28318530717959
0

0101000
+26 139 -26 139 *
Wi

0101100
-25 0 +49 0 +25 0 -24 138 *
Fa
0  1e-07 36 0

0111000
+23 0 *
Ve
1e-07
2.4 1.6 -70
0 0

0101101
*
Ed
 1e-07 1 1 0
1  56 0 0 2.4
3  76 77CN 38 0 0 2.4
0

0101000
+21 109 -47 109 *
Ed
 1e-07 1 1 0
1  57 0 0 6.28318530717959
2  78 38 139 0 6.28318530717959
0

0101000
+21 143 -21 143 *
Wi

0101100
-20 108 +46 108 +20 108 -19 142 *
Fa
0  1e-07 38 108

0111000
+18 0 *
Ve
1e-07
6 0 0
0 0

0101101
*
Ed
 1e-07 1 1 0
1  58 0 0 1
3  80 81CN 39 0 0 1
0

0101000
+42 0 -16 144 *
Ed
 1e-07 1 1 0
1  49 0 0 6.28318530717959
2  70 39 116 0 6.28318530717959
2  71 39 118 0 6.28318530717959
0

0101100
+16 0 -16 0 *
Wi

0101100
+15 0 -15 0 -41 115 +14 144 *
Fa
0  1e-07 39 0

0111000
+13 0 *
Wi

0101100
+34 127 *
Wi

0101100
-19 142 *
Fa
0  1e-07 41 145

0111000
+11 0 +10 0 *
Wi

0101100
+29 147 *
Wi

0101100
-24 138 *
Fa
0  1e-07 42 146

0111000
+8 0 +7 0 *
Wi

0101100
+14 0 *
Fa
0  1e-07 43 0

0111000
-5 149 *
Sh

0101100
+141 0 -127 12 +123 59 -118 12 +113 12 +110 12 -105 76 +102 78 +97 12 -90 0
+85 0 -80 0 +75 0 -70 0 -65 0 +62 0 -57 93 +52 53 +44 93 -39 110
+37 119 +32 93 -27 130 -22 135 +17 93 -12 110 -9 93 +6 135 -4 148 *
So

0100000
+3 0 *
Co

1100000
+2 0 *

+1 1
