<?xml version="1.0" encoding="UTF-8" standalone="no"?>
<!-- Created with Inkscape (http://www.inkscape.org/) -->

<svg
   xmlns:dc="http://purl.org/dc/elements/1.1/"
   xmlns:cc="http://creativecommons.org/ns#"
   xmlns:rdf="http://www.w3.org/1999/02/22-rdf-syntax-ns#"
   xmlns:svg="http://www.w3.org/2000/svg"
   xmlns="http://www.w3.org/2000/svg"
   xmlns:sodipodi="http://sodipodi.sourceforge.net/DTD/sodipodi-0.dtd"
   xmlns:inkscape="http://www.inkscape.org/namespaces/inkscape"
   width="164.48495mm"
   height="98.635941mm"
   viewBox="0 0 164.48495 98.635941"
   version="1.1"
   id="svg8"
   sodipodi:docname="tinspector_elements.svg"
   inkscape:version="0.92.2 (5c3e80d, 2017-08-06)">
  <defs
     id="defs2">
    <pattern
       y="0"
       x="0"
       height="6"
       width="6"
       patternUnits="userSpaceOnUse"
       id="EMFhbasepattern" />
  </defs>
  <sodipodi:namedview
     id="base"
     pagecolor="#ffffff"
     bordercolor="#666666"
     borderopacity="1.0"
     inkscape:pageopacity="0.0"
     inkscape:pageshadow="2"
     inkscape:zoom="1.4"
     inkscape:cx="329.8397"
     inkscape:cy="227.89271"
     inkscape:document-units="mm"
     inkscape:current-layer="layer1"
     showgrid="false"
     inkscape:window-width="1575"
     inkscape:window-height="895"
     inkscape:window-x="46"
     inkscape:window-y="75"
     inkscape:window-maximized="0"
     fit-margin-top="0"
     fit-margin-left="0"
     fit-margin-right="0"
     fit-margin-bottom="0" />
  <metadata
     id="metadata5">
    <rdf:RDF>
      <cc:Work
         rdf:about="">
        <dc:format>image/svg+xml</dc:format>
        <dc:type
           rdf:resource="http://purl.org/dc/dcmitype/StillImage" />
        <dc:title></dc:title>
      </cc:Work>
    </rdf:RDF>
  </metadata>
  <g
     inkscape:label="Layer 1"
     inkscape:groupmode="layer"
     id="layer1"
     transform="translate(-23.06172,-25.84832)">
    <path
       id="path933"
       d="M 23.326301,26.112901 H 187.28209 V 124.21968 H 23.326301 Z"
       style="fill:none;stroke:#953735;stroke-width:0.52916276px;stroke-linecap:butt;stroke-linejoin:miter;stroke-miterlimit:4;stroke-dasharray:none;stroke-opacity:1"
       inkscape:connector-curvature="0" />
    <path
       id="path935"
       d="M 28.109932,31.192871 H 62.95001 v 12.97507 H 28.109932 Z"
       style="fill:#9bbb59;fill-opacity:1;fill-rule:nonzero;stroke:#71893f;stroke-width:0.52916276px;stroke-linecap:butt;stroke-linejoin:miter;stroke-miterlimit:4;stroke-dasharray:none;stroke-opacity:1"
       inkscape:connector-curvature="0" />
    <path
       id="path937"
       d="m 66.54831,31.108201 h 34.84008 v 12.97507 H 66.54831 Z"
       style="fill:none;stroke:#33cccc;stroke-width:0.52916276px;stroke-linecap:butt;stroke-linejoin:miter;stroke-miterlimit:4;stroke-dasharray:none;stroke-opacity:1"
       inkscape:connector-curvature="0" />
    <path
       id="path939"
       d="m 104.9867,31.023531 h 34.84007 v 12.97508 H 104.9867 Z"
       style="fill:none;stroke:#ff9933;stroke-width:0.52916276px;stroke-linecap:butt;stroke-linejoin:miter;stroke-miterlimit:4;stroke-dasharray:none;stroke-opacity:1"
       inkscape:connector-curvature="0" />
    <path
       id="path941"
       d="m 37.550195,37.648651 c 0,0.254 -0.04233,0.48683 -0.169332,0.6985 -0.105832,0.21166 -0.253998,0.38099 -0.444497,0.48683 -0.126999,0.0847 -0.275164,0.14816 -0.42333,0.16933 -0.169332,0.0423 -0.35983,0.0635 -0.634995,0.0635 h -0.698495 v -2.83631 h 0.698495 c 0.275165,0 0.48683,0.0212 0.656162,0.0635 0.169332,0.0423 0.296331,0.10583 0.42333,0.16933 0.190498,0.127 0.338664,0.27516 0.444497,0.48683 0.105832,0.1905 0.148165,0.42333 0.148165,0.69849 z m -0.380997,0 c 0,-0.21166 -0.04233,-0.40216 -0.126999,-0.55033 -0.0635,-0.16933 -0.190498,-0.27516 -0.338664,-0.35983 -0.105833,-0.0635 -0.232832,-0.10583 -0.359831,-0.14816 -0.126999,-0.0212 -0.275164,-0.0212 -0.444497,-0.0212 h -0.35983 v 2.18015 h 0.35983 c 0.190499,0 0.338665,-0.0212 0.465664,-0.0423 0.148165,-0.0423 0.275164,-0.0847 0.380997,-0.14817 0.148165,-0.10583 0.253998,-0.21166 0.317498,-0.35983 0.0635,-0.14817 0.105832,-0.33866 0.105832,-0.55033 z"
       style="fill:#000000;fill-opacity:1;fill-rule:nonzero;stroke:none;stroke-width:0.26458332"
       inkscape:connector-curvature="0" />
    <path
       id="path943"
       d="m 39.963178,36.569161 h -1.418157 v 0.80433 h 1.227658 v 0.33866 h -1.227658 v 1.35466 h -0.380997 v -2.83631 h 1.799154 z"
       style="fill:#000000;fill-opacity:1;fill-rule:nonzero;stroke:none;stroke-width:0.26458332"
       inkscape:connector-curvature="0" />
    <path
       id="path945"
       d="m 42.524325,38.198981 c 0,0.127 -0.02117,0.254 -0.08467,0.35983 -0.04233,0.10583 -0.126999,0.21167 -0.211665,0.27517 -0.105833,0.0847 -0.211665,0.14816 -0.338664,0.16933 -0.126999,0.0423 -0.296331,0.0635 -0.48683,0.0635 h -1.015992 v -2.83631 h 0.84666 c 0.211665,0 0.359831,0.0212 0.465663,0.0423 0.105833,0 0.190499,0.0423 0.296331,0.0847 0.105833,0.0635 0.169332,0.12699 0.211666,0.21166 0.0635,0.0847 0.08467,0.1905 0.08467,0.29633 0,0.14817 -0.04233,0.254 -0.105832,0.35983 -0.0635,0.0847 -0.169332,0.16933 -0.275165,0.21167 v 0.0212 c 0.190499,0.0423 0.338665,0.127 0.444497,0.254 0.105833,0.12699 0.169332,0.27516 0.169332,0.48683 z m -0.634995,-1.26999 c 0,-0.0847 0,-0.127 -0.02117,-0.16933 -0.04233,-0.0635 -0.0635,-0.0847 -0.126999,-0.127 -0.04233,-0.0212 -0.126999,-0.0423 -0.211665,-0.0635 -0.08467,0 -0.190498,0 -0.317497,0 h -0.444497 v 0.80433 h 0.486829 c 0.127,0 0.211665,0 0.275165,-0.0212 0.08467,0 0.148166,-0.0423 0.190499,-0.0635 0.0635,-0.0423 0.105832,-0.0847 0.126999,-0.14817 0.04233,-0.0635 0.04233,-0.127 0.04233,-0.21166 z m 0.253998,1.26999 c 0,-0.10583 -0.02117,-0.1905 -0.0635,-0.254 -0.02117,-0.0847 -0.08467,-0.127 -0.190498,-0.16933 -0.0635,-0.0423 -0.126999,-0.0635 -0.211665,-0.0635 -0.08467,-0.0212 -0.190499,-0.0212 -0.317498,-0.0212 h -0.592662 v 1.05833 h 0.507996 c 0.148166,0 0.296331,-0.0212 0.402164,-0.0423 0.105832,0 0.190498,-0.0423 0.253998,-0.0847 0.0635,-0.0423 0.126999,-0.10584 0.148165,-0.16933 0.04233,-0.0635 0.0635,-0.14817 0.0635,-0.254 z"
       style="fill:#000000;fill-opacity:1;fill-rule:nonzero;stroke:none;stroke-width:0.26458332"
       inkscape:connector-curvature="0" />
    <path
       id="path947"
       d="m 44.344645,37.331151 h -0.02117 c -0.04233,-0.0212 -0.105832,-0.0212 -0.148165,-0.0212 -0.04233,0 -0.105833,-0.0212 -0.169332,-0.0212 -0.126999,0 -0.232832,0.0423 -0.317498,0.0847 -0.105832,0.0423 -0.211665,0.10584 -0.296331,0.1905 v 1.50283 h -0.359831 v -2.11663 h 0.359831 v 0.3175 c 0.126999,-0.127 0.253998,-0.21166 0.359831,-0.254 0.105832,-0.0423 0.232831,-0.0635 0.338664,-0.0635 0.0635,0 0.105832,0 0.126999,0 0.04233,0 0.08467,0 0.126999,0.0212 z"
       style="fill:#000000;fill-opacity:1;fill-rule:nonzero;stroke:none;stroke-width:0.26458332"
       inkscape:connector-curvature="0" />
    <path
       id="path949"
       d="m 46.482462,38.008481 c 0,0.33867 -0.08467,0.61383 -0.253998,0.80433 -0.169332,0.21167 -0.42333,0.3175 -0.719661,0.3175 -0.296331,0 -0.529163,-0.10583 -0.698495,-0.3175 -0.190498,-0.1905 -0.275164,-0.46566 -0.275164,-0.80433 0,-0.35983 0.08467,-0.61383 0.275164,-0.82549 0.169332,-0.1905 0.402164,-0.29633 0.698495,-0.29633 0.296331,0 0.550329,0.10583 0.719661,0.29633 0.169332,0.21166 0.253998,0.46566 0.253998,0.82549 z m -0.35983,0 c 0,-0.27516 -0.04233,-0.48683 -0.169332,-0.61383 -0.105833,-0.127 -0.253998,-0.21166 -0.444497,-0.21166 -0.190499,0 -0.338664,0.0847 -0.444497,0.21166 -0.105832,0.127 -0.169332,0.33867 -0.169332,0.61383 0,0.254 0.0635,0.46567 0.169332,0.59267 0.105833,0.14816 0.253998,0.21166 0.444497,0.21166 0.190499,0 0.338664,-0.0635 0.444497,-0.21166 0.105832,-0.127 0.169332,-0.33867 0.169332,-0.59267 z"
       style="fill:#000000;fill-opacity:1;fill-rule:nonzero;stroke:none;stroke-width:0.26458332"
       inkscape:connector-curvature="0" />
    <path
       id="path951"
       d="m 49.699771,36.950161 -0.550328,2.11665 h -0.317498 l -0.550329,-1.62982 -0.529163,1.62982 h -0.338664 l -0.550329,-2.11665 h 0.35983 l 0.402164,1.62982 0.529163,-1.62982 h 0.275164 l 0.55033,1.62982 0.35983,-1.62982 z"
       style="fill:#000000;fill-opacity:1;fill-rule:nonzero;stroke:none;stroke-width:0.26458332"
       inkscape:connector-curvature="0" />
    <path
       id="path953"
       d="m 51.731758,38.452981 c 0,0.1905 -0.08467,0.35983 -0.232834,0.46566 -0.16933,0.127 -0.380997,0.1905 -0.656161,0.1905 -0.169331,0 -0.296331,-0.0212 -0.444497,-0.0423 -0.126998,-0.0423 -0.232831,-0.0847 -0.317498,-0.127 v -0.40216 h 0.02117 c 0.105833,0.0847 0.232833,0.14816 0.380997,0.1905 0.127,0.0635 0.253998,0.0847 0.380998,0.0847 0.169333,0 0.275164,-0.0212 0.380997,-0.0847 0.08467,-0.0423 0.127,-0.127 0.127,-0.23283 0,-0.0847 -0.02117,-0.14817 -0.08467,-0.1905 -0.04233,-0.0423 -0.127,-0.0847 -0.275164,-0.10584 -0.04233,-0.0212 -0.105833,-0.0212 -0.1905,-0.0423 -0.08467,-0.0212 -0.148164,-0.0212 -0.211664,-0.0423 -0.1905,-0.0635 -0.338664,-0.12699 -0.402164,-0.23283 -0.08467,-0.0847 -0.127,-0.21166 -0.127,-0.33866 0,-0.0847 0.02117,-0.16933 0.0635,-0.254 0.04233,-0.0635 0.08467,-0.14817 0.169334,-0.21166 0.0635,-0.0423 0.148164,-0.10584 0.253997,-0.127 0.127,-0.0423 0.232831,-0.0635 0.380997,-0.0635 0.127,0 0.253998,0.0212 0.380998,0.0635 0.126997,0.0212 0.23283,0.0635 0.317497,0.10583 v 0.381 h -0.02117 c -0.08467,-0.0635 -0.190497,-0.127 -0.317497,-0.16934 -0.148167,-0.0423 -0.275164,-0.0635 -0.402164,-0.0635 -0.127,0 -0.232831,0.0212 -0.317497,0.0635 -0.08467,0.0423 -0.127,0.127 -0.127,0.23284 0,0.0847 0.02117,0.14816 0.0635,0.19049 0.0635,0.0423 0.148166,0.0847 0.275164,0.10584 0.0635,0.0212 0.127,0.0212 0.211666,0.0423 0.08466,0.0212 0.148164,0.0423 0.211664,0.0423 0.148167,0.0423 0.275164,0.10583 0.380998,0.1905 0.08467,0.10583 0.127,0.23283 0.127,0.38099 z"
       style="fill:#000000;fill-opacity:1;fill-rule:nonzero;stroke:none;stroke-width:0.26458332"
       inkscape:connector-curvature="0" />
    <path
       id="path955"
       d="m 54.017739,38.029651 h -1.56632 c 0,0.14816 0.02117,0.254 0.0635,0.35983 0.04233,0.0847 0.08466,0.16933 0.169331,0.23283 0.0635,0.0635 0.127,0.10583 0.23283,0.127 0.08467,0.0423 0.1905,0.0423 0.296334,0.0423 0.148164,0 0.275164,-0.0212 0.423328,-0.0847 0.148166,-0.0423 0.254,-0.10583 0.317497,-0.16933 h 0.02117 v 0.40216 c -0.126998,0.0423 -0.253998,0.0847 -0.359831,0.127 -0.126997,0.0212 -0.275164,0.0423 -0.402161,0.0423 -0.359831,0 -0.634998,-0.0847 -0.825495,-0.27516 -0.1905,-0.1905 -0.296331,-0.46567 -0.296331,-0.8255 0,-0.33866 0.105831,-0.61383 0.275164,-0.82549 0.190498,-0.1905 0.444498,-0.29633 0.761995,-0.29633 0.275164,0 0.507995,0.0847 0.656161,0.254 0.148167,0.16933 0.232831,0.40216 0.232831,0.69849 z m -0.338664,-0.254 c -0.02117,-0.1905 -0.0635,-0.33866 -0.148164,-0.4445 -0.105833,-0.10583 -0.232833,-0.14816 -0.423331,-0.14816 -0.1905,0 -0.338664,0.0423 -0.465664,0.16933 -0.105833,0.10583 -0.16933,0.254 -0.190497,0.42333 z"
       style="fill:#000000;fill-opacity:1;fill-rule:nonzero;stroke:none;stroke-width:0.26458332"
       inkscape:connector-curvature="0" />
    <path
       id="path957"
       d="m 55.88039,37.331151 h -0.0212 c -0.0635,-0.0212 -0.10583,-0.0212 -0.14816,-0.0212 -0.0635,0 -0.127,-0.0212 -0.1905,-0.0212 -0.10583,0 -0.21166,0.0423 -0.3175,0.0847 -0.10583,0.0423 -0.1905,0.10584 -0.29633,0.1905 v 1.50283 h -0.3598 v -2.11663 h 0.35983 v 0.3175 c 0.14817,-0.127 0.27517,-0.21166 0.381,-0.254 0.10583,-0.0423 0.21166,-0.0635 0.33866,-0.0635 0.0423,0 0.10584,0 0.127,0 0.0212,0 0.0635,0 0.127,0.0212 z"
       style="fill:#000000;fill-opacity:1;fill-rule:nonzero;stroke:none;stroke-width:0.26458332"
       inkscape:connector-curvature="0" />
    <path
       id="path959"
       d="m 76.00974,35.786001 -1.03715,2.81515 h -0.508 l -1.01599,-2.81515 h 0.40216 l 0.88899,2.47648 0.889,-2.47648 z"
       style="fill:#000000;fill-opacity:1;fill-rule:nonzero;stroke:none;stroke-width:0.26458332"
       inkscape:connector-curvature="0" />
    <path
       id="path961"
       d="m 77.4279,38.601151 h -1.12182 v -0.27517 h 0.38099 v -2.24365 h -0.38099 v -0.29633 h 1.12182 v 0.29633 h -0.381 v 2.24365 h 0.381 z"
       style="fill:#000000;fill-opacity:1;fill-rule:nonzero;stroke:none;stroke-width:0.26458332"
       inkscape:connector-curvature="0" />
    <path
       id="path963"
       d="m 79.79855,38.601151 h -0.33866 v -1.18533 c 0,-0.10583 -0.0212,-0.1905 -0.0212,-0.27516 -0.0212,-0.0847 -0.0423,-0.16934 -0.0635,-0.21167 -0.0423,-0.0423 -0.0847,-0.0847 -0.14817,-0.10583 -0.0423,-0.0423 -0.127,-0.0423 -0.21167,-0.0423 -0.10583,0 -0.21166,0.0212 -0.31749,0.0635 -0.10583,0.0423 -0.21167,0.10583 -0.29633,0.1905 v 1.56632 H 78.0417 v -2.11665 h 0.35983 v 0.254 c 0.10583,-0.10584 0.21166,-0.16934 0.33866,-0.23284 0.127,-0.0423 0.23283,-0.0635 0.35983,-0.0635 0.23283,0 0.40217,0.0635 0.52917,0.1905 0.12699,0.14817 0.16933,0.33867 0.16933,0.61383 z"
       style="fill:#000000;fill-opacity:1;fill-rule:nonzero;stroke:none;stroke-width:0.26458332"
       inkscape:connector-curvature="0" />
    <path
       id="path965"
       d="m 81.99987,38.008481 c 0,0.1905 -0.0635,0.33867 -0.23283,0.46567 -0.16934,0.127 -0.381,0.19049 -0.65617,0.19049 -0.14816,0 -0.29633,-0.0212 -0.42333,-0.0635 -0.14816,-0.0212 -0.254,-0.0635 -0.33866,-0.127 v -0.38099 h 0.0212 c 0.10583,0.0847 0.23283,0.14816 0.38099,0.1905 0.127,0.0423 0.27517,0.0847 0.381,0.0847 0.16933,0 0.29633,-0.0423 0.381,-0.0847 0.0847,-0.0423 0.127,-0.127 0.127,-0.23284 0,-0.0847 -0.0212,-0.14816 -0.0635,-0.19049 -0.0635,-0.0423 -0.14817,-0.0847 -0.27517,-0.10584 -0.0635,-0.0212 -0.127,-0.0423 -0.21166,-0.0423 -0.0847,-0.0212 -0.14817,-0.0423 -0.21167,-0.0635 -0.19049,-0.0423 -0.31749,-0.10583 -0.40216,-0.21166 -0.0847,-0.0847 -0.10583,-0.21167 -0.10583,-0.33867 0,-0.10583 0,-0.16933 0.0423,-0.25399 0.0423,-0.0847 0.0847,-0.14817 0.16933,-0.21167 0.0635,-0.0635 0.14817,-0.10583 0.27517,-0.127 0.10583,-0.0423 0.23283,-0.0635 0.35983,-0.0635 0.127,0 0.25399,0.0212 0.38099,0.0423 0.127,0.0423 0.23284,0.0635 0.3175,0.127 v 0.381 H 81.894 c -0.0847,-0.0847 -0.1905,-0.127 -0.3175,-0.16933 -0.12699,-0.0635 -0.25399,-0.0847 -0.38099,-0.0847 -0.127,0 -0.254,0.0212 -0.33867,0.0847 -0.0847,0.0423 -0.12699,0.127 -0.12699,0.21166 0,0.0847 0.0212,0.16933 0.0847,0.21167 0.0423,0.0423 0.127,0.0635 0.254,0.10583 0.0635,0 0.12699,0.0212 0.21166,0.0423 0.0847,0.0212 0.14817,0.0212 0.21166,0.0423 0.16934,0.0423 0.29634,0.10583 0.381,0.1905 0.0847,0.10583 0.127,0.21166 0.127,0.381 z"
       style="fill:#000000;fill-opacity:1;fill-rule:nonzero;stroke:none;stroke-width:0.26458332"
       inkscape:connector-curvature="0" />
    <path
       id="path967"
       d="m 84.37051,37.521651 c 0,0.16933 -0.0212,0.33867 -0.0635,0.48683 -0.0423,0.127 -0.127,0.254 -0.21166,0.35983 -0.0847,0.0847 -0.16933,0.14817 -0.29633,0.21167 -0.10584,0.0423 -0.23283,0.0635 -0.35983,0.0635 -0.10584,0 -0.21167,0 -0.29633,-0.0212 -0.0847,-0.0212 -0.16934,-0.0635 -0.27517,-0.127 v 0.88899 h -0.35983 v -2.89981 h 0.35983 v 0.23283 c 0.10583,-0.0847 0.21167,-0.14816 0.3175,-0.1905 0.127,-0.0635 0.254,-0.0847 0.381,-0.0847 0.25399,0 0.46566,0.0847 0.59266,0.27517 0.14816,0.1905 0.21166,0.46566 0.21166,0.80433 z m -0.35983,0.0212 c 0,-0.254 -0.0423,-0.44449 -0.12699,-0.57149 -0.0847,-0.127 -0.23284,-0.1905 -0.40217,-0.1905 -0.10583,0 -0.21166,0.0212 -0.31749,0.0635 -0.10584,0.0423 -0.1905,0.10583 -0.29634,0.16933 v 1.20649 c 0.10584,0.0423 0.1905,0.0635 0.27517,0.0847 0.0635,0.0212 0.14816,0.0212 0.23283,0.0212 0.21167,0 0.35983,-0.0635 0.46566,-0.1905 0.10584,-0.127 0.16933,-0.33866 0.16933,-0.59266 z"
       style="fill:#000000;fill-opacity:1;fill-rule:nonzero;stroke:none;stroke-width:0.26458332"
       inkscape:connector-curvature="0" />
    <path
       id="path969"
       d="m 86.69883,37.585151 h -1.54515 c 0,0.127 0.0212,0.254 0.0635,0.33867 0.0212,0.10583 0.0847,0.1905 0.14816,0.25399 0.0635,0.0423 0.14817,0.10584 0.23283,0.127 0.0847,0.0212 0.1905,0.0423 0.29633,0.0423 0.14817,0 0.29633,-0.0212 0.4445,-0.0847 0.14817,-0.0635 0.254,-0.10583 0.3175,-0.16933 v 0 0.381 c -0.10583,0.0635 -0.23283,0.10583 -0.35983,0.127 -0.127,0.0423 -0.254,0.0635 -0.40217,0.0635 -0.33866,0 -0.61382,-0.10583 -0.80432,-0.29633 -0.21167,-0.1905 -0.29633,-0.4445 -0.29633,-0.80433 0,-0.33866 0.0847,-0.61383 0.27516,-0.82549 0.1905,-0.1905 0.4445,-0.29634 0.74083,-0.29634 0.29633,0 0.50799,0.0847 0.65616,0.254 0.16933,0.14817 0.23283,0.40217 0.23283,0.6985 z m -0.33866,-0.27516 c 0,-0.16933 -0.0423,-0.3175 -0.14817,-0.42333 -0.0847,-0.10583 -0.23283,-0.14817 -0.42333,-0.14817 -0.1905,0 -0.33866,0.0423 -0.44449,0.16933 -0.127,0.10584 -0.1905,0.23284 -0.1905,0.40217 z"
       style="fill:#000000;fill-opacity:1;fill-rule:nonzero;stroke:none;stroke-width:0.26458332"
       inkscape:connector-curvature="0" />
    <path
       id="path971"
       d="m 88.81548,38.474151 c -0.127,0.0635 -0.23283,0.10583 -0.33866,0.127 -0.10583,0.0423 -0.23283,0.0635 -0.33867,0.0635 -0.14816,0 -0.29633,-0.0212 -0.42333,-0.0635 -0.127,-0.0635 -0.23283,-0.127 -0.33866,-0.21167 -0.0847,-0.0847 -0.14817,-0.21167 -0.21166,-0.33866 -0.0423,-0.14817 -0.0635,-0.3175 -0.0635,-0.48683 0,-0.35983 0.0847,-0.635 0.27516,-0.8255 0.1905,-0.1905 0.4445,-0.29633 0.76199,-0.29633 0.127,0 0.23284,0.0212 0.35984,0.0635 0.10583,0.0212 0.21166,0.0635 0.31749,0.10583 v 0.40217 h -0.0212 c -0.10583,-0.0847 -0.21166,-0.14817 -0.33866,-0.1905 -0.10584,-0.0423 -0.23283,-0.0635 -0.33867,-0.0635 -0.1905,0 -0.35983,0.0635 -0.48683,0.1905 -0.10583,0.14816 -0.16933,0.33866 -0.16933,0.61383 0,0.25399 0.0635,0.44449 0.16933,0.57149 0.127,0.14817 0.27517,0.21167 0.48683,0.21167 0.0635,0 0.14817,0 0.21167,-0.0212 0.0847,-0.0212 0.14816,-0.0423 0.21166,-0.0847 0.0423,-0.0212 0.10584,-0.0423 0.14817,-0.0847 0.0423,-0.0212 0.0847,-0.0423 0.10583,-0.0635 h 0.0212 z"
       style="fill:#000000;fill-opacity:1;fill-rule:nonzero;stroke:none;stroke-width:0.26458332"
       inkscape:connector-curvature="0" />
    <path
       id="path973"
       d="m 90.36064,38.601151 c -0.0635,0 -0.127,0.0212 -0.21167,0.0423 -0.0847,0 -0.14816,0 -0.21166,0 -0.21167,0 -0.381,-0.0423 -0.48683,-0.16934 -0.10584,-0.10583 -0.16933,-0.29633 -0.16933,-0.55033 v -1.12182 h -0.23284 v -0.3175 h 0.23284 v -0.59266 h 0.35983 v 0.59266 h 0.71966 v 0.3175 h -0.71966 v 0.95249 c 0,0.10584 0,0.21167 0,0.27517 0,0.0423 0.0212,0.10583 0.0635,0.16933 0.0212,0.0423 0.0635,0.0847 0.10583,0.10583 0.0423,0.0212 0.127,0.0423 0.23283,0.0423 0.0423,0 0.10583,-0.0212 0.16933,-0.0212 0.0635,-0.0212 0.10584,-0.0423 0.14817,-0.0635 v 0 z"
       style="fill:#000000;fill-opacity:1;fill-rule:nonzero;stroke:none;stroke-width:0.26458332"
       inkscape:connector-curvature="0" />
    <path
       id="path975"
       d="m 92.60429,37.563991 c 0,0.33866 -0.0847,0.61382 -0.254,0.80432 -0.1905,0.21167 -0.42333,0.29633 -0.71966,0.29633 -0.29633,0 -0.52917,-0.0847 -0.71966,-0.29633 -0.16934,-0.1905 -0.254,-0.46566 -0.254,-0.80432 0,-0.35983 0.0847,-0.635 0.254,-0.8255 0.19049,-0.21166 0.42333,-0.29633 0.71966,-0.29633 0.29633,0 0.52916,0.0847 0.71966,0.29633 0.16933,0.1905 0.254,0.46567 0.254,0.8255 z m -0.35983,0 c 0,-0.27517 -0.0635,-0.48683 -0.16933,-0.61383 -0.10584,-0.14817 -0.254,-0.21167 -0.4445,-0.21167 -0.1905,0 -0.33867,0.0635 -0.4445,0.21167 -0.10583,0.127 -0.16933,0.33866 -0.16933,0.61383 0,0.25399 0.0635,0.46566 0.16933,0.59266 0.10583,0.14816 0.254,0.21166 0.4445,0.21166 0.1905,0 0.33866,-0.0635 0.4445,-0.21166 0.10583,-0.127 0.16933,-0.33867 0.16933,-0.59266 z"
       style="fill:#000000;fill-opacity:1;fill-rule:nonzero;stroke:none;stroke-width:0.26458332"
       inkscape:connector-curvature="0" />
    <path
       id="path977"
       d="m 94.48811,36.886661 h -0.0212 c -0.0635,-0.0212 -0.10584,-0.0212 -0.16933,-0.0212 -0.0423,-0.0212 -0.10584,-0.0212 -0.16934,-0.0212 -0.10583,0 -0.21166,0.0212 -0.31749,0.0847 -0.10584,0.0423 -0.1905,0.10583 -0.29633,0.16933 v 1.50282 h -0.35984 v -2.11665 h 0.35984 v 0.3175 c 0.14816,-0.10583 0.27516,-0.1905 0.38099,-0.23283 0.10583,-0.0423 0.21167,-0.0847 0.3175,-0.0847 0.0635,0 0.10583,0.0212 0.14816,0.0212 0.0212,0 0.0635,0 0.127,0.0212 z"
       style="fill:#000000;fill-opacity:1;fill-rule:nonzero;stroke:none;stroke-width:0.26458332"
       inkscape:connector-curvature="0" />
    <path
       id="path979"
       d="m 114.0883,37.775651 c 0,0.10583 -0.0212,0.23283 -0.0635,0.33867 -0.0635,0.10583 -0.127,0.19049 -0.21167,0.27516 -0.10583,0.0635 -0.23283,0.127 -0.35983,0.16933 -0.14817,0.0635 -0.29633,0.0847 -0.48683,0.0847 -0.21166,0 -0.381,-0.0212 -0.55033,-0.0635 -0.16933,-0.0423 -0.3175,-0.0847 -0.48683,-0.16933 v -0.46566 h 0.0212 c 0.14817,0.10583 0.29633,0.21166 0.48683,0.27516 0.1905,0.0635 0.35983,0.0847 0.52916,0.0847 0.23284,0 0.42333,-0.0423 0.55033,-0.127 0.127,-0.0847 0.1905,-0.1905 0.1905,-0.33866 0,-0.127 -0.0423,-0.23283 -0.0847,-0.27517 -0.0635,-0.0635 -0.16933,-0.10583 -0.29633,-0.14816 -0.0847,-0.0212 -0.1905,-0.0423 -0.29633,-0.0635 -0.10583,-0.0212 -0.23283,-0.0423 -0.35983,-0.0635 -0.254,-0.0423 -0.42333,-0.14817 -0.55033,-0.27517 -0.127,-0.127 -0.1905,-0.29633 -0.1905,-0.48683 0,-0.23283 0.10583,-0.44449 0.3175,-0.59266 0.1905,-0.14816 0.4445,-0.21166 0.74083,-0.21166 0.21166,0 0.38099,0 0.55033,0.0423 0.16933,0.0423 0.31749,0.0847 0.44449,0.14816 v 0.4445 h -0.0212 c -0.10583,-0.0847 -0.254,-0.16933 -0.42333,-0.23283 -0.1905,-0.0635 -0.35983,-0.0847 -0.55033,-0.0847 -0.19049,0 -0.35983,0.0423 -0.48683,0.127 -0.10583,0.0847 -0.16933,0.1905 -0.16933,0.3175 0,0.12699 0.0212,0.21166 0.0847,0.27516 0.0635,0.0635 0.16933,0.127 0.3175,0.14817 0.0847,0.0212 0.1905,0.0423 0.35983,0.0635 0.14816,0.0423 0.27516,0.0635 0.35983,0.0847 0.21166,0.0635 0.381,0.14816 0.48683,0.25399 0.10583,0.10584 0.14817,0.27517 0.14817,0.46567 z"
       style="fill:#000000;fill-opacity:1;fill-rule:nonzero;stroke:none;stroke-width:0.26458332"
       inkscape:connector-curvature="0" />
    <path
       id="path981"
       d="m 116.43778,38.579981 h -0.35983 v -1.20649 c 0,-0.0847 0,-0.1905 -0.0212,-0.27517 0,-0.0847 -0.0212,-0.14816 -0.0635,-0.1905 -0.0212,-0.0635 -0.0635,-0.0847 -0.127,-0.12699 -0.0635,-0.0212 -0.127,-0.0212 -0.23283,-0.0212 -0.0847,0 -0.1905,0.0212 -0.29633,0.0635 -0.10584,0.0423 -0.21167,0.10583 -0.3175,0.19049 v 1.56633 h -0.35983 v -2.94215 h 0.35983 v 1.05833 c 0.127,-0.0847 0.23283,-0.14817 0.35983,-0.21167 0.10583,-0.0423 0.23283,-0.0635 0.35983,-0.0635 0.23284,0 0.40217,0.0635 0.52917,0.1905 0.10583,0.14817 0.16933,0.33867 0.16933,0.59266 z"
       style="fill:#000000;fill-opacity:1;fill-rule:nonzero;stroke:none;stroke-width:0.26458332"
       inkscape:connector-curvature="0" />
    <path
       id="path983"
       d="m 118.76609,38.579981 h -0.35983 v -0.21167 c -0.0212,0.0212 -0.0635,0.0423 -0.127,0.0847 -0.0423,0.0423 -0.10583,0.0635 -0.14816,0.0847 -0.0635,0.0423 -0.127,0.0635 -0.21167,0.0847 -0.0635,0.0212 -0.16933,0.0212 -0.25399,0.0212 -0.1905,0 -0.35984,-0.0635 -0.48684,-0.19049 -0.14816,-0.127 -0.21166,-0.27517 -0.21166,-0.48683 0,-0.14817 0.0423,-0.27517 0.10583,-0.381 0.0635,-0.10583 0.16933,-0.16933 0.29633,-0.23283 0.127,-0.0635 0.27517,-0.10584 0.46567,-0.127 0.16933,-0.0212 0.381,-0.0212 0.57149,-0.0423 v -0.0423 c 0,-0.0847 0,-0.14817 -0.0423,-0.21167 -0.0212,-0.0423 -0.0635,-0.0847 -0.10583,-0.127 -0.0635,-0.0212 -0.127,-0.0423 -0.1905,-0.0635 -0.0635,0 -0.14816,0 -0.21166,0 -0.10583,0 -0.21167,0 -0.3175,0.0423 -0.127,0.0212 -0.23283,0.0423 -0.35983,0.10584 h -0.0212 v -0.381 c 0.0635,0 0.16933,-0.0212 0.29633,-0.0635 0.14816,-0.0212 0.27516,-0.0212 0.40216,-0.0212 0.14817,0 0.27517,0 0.381,0.0423 0.10583,0.0212 0.21166,0.0635 0.29633,0.127 0.0635,0.0423 0.127,0.127 0.16933,0.21166 0.0423,0.10584 0.0635,0.21167 0.0635,0.33867 z m -0.35983,-0.508 v -0.59266 c -0.10583,0 -0.23283,0.0212 -0.38099,0.0212 -0.14817,0.0212 -0.254,0.0423 -0.33867,0.0635 -0.10583,0.0212 -0.1905,0.0635 -0.254,0.127 -0.0635,0.0635 -0.0847,0.14816 -0.0847,0.254 0,0.127 0.0212,0.21166 0.10584,0.27516 0.0635,0.0635 0.1905,0.0847 0.33866,0.0847 0.127,0 0.23283,-0.0212 0.33867,-0.0635 0.10583,-0.0423 0.19049,-0.10583 0.27516,-0.16933 z"
       style="fill:#000000;fill-opacity:1;fill-rule:nonzero;stroke:none;stroke-width:0.26458332"
       inkscape:connector-curvature="0" />
    <path
       id="path985"
       d="m 121.32724,37.500491 c 0,0.16933 -0.0212,0.33866 -0.0847,0.46566 -0.0423,0.14817 -0.10583,0.27516 -0.21166,0.35983 -0.0847,0.10583 -0.16933,0.16933 -0.29633,0.23283 -0.10584,0.0423 -0.21167,0.0635 -0.33867,0.0635 -0.127,0 -0.21166,0 -0.3175,-0.0212 -0.0847,-0.0423 -0.16933,-0.0635 -0.25399,-0.127 v 0.889 h -0.35983 v -2.89981 h 0.35983 v 0.23283 c 0.0847,-0.0847 0.1905,-0.14817 0.31749,-0.21167 0.10584,-0.0423 0.23284,-0.0635 0.381,-0.0635 0.254,0 0.4445,0.0847 0.59266,0.27517 0.127,0.1905 0.21167,0.46566 0.21167,0.80433 z m -0.381,0.0212 c 0,-0.27517 -0.0423,-0.46567 -0.127,-0.59267 -0.0847,-0.10583 -0.21166,-0.16933 -0.40216,-0.16933 -0.10583,0 -0.1905,0.0212 -0.29633,0.0635 -0.10583,0.0423 -0.21166,0.0847 -0.29633,0.16933 v 1.2065 c 0.0847,0.0423 0.16933,0.0635 0.254,0.0847 0.0635,0.0212 0.14816,0.0212 0.254,0.0212 0.19049,0 0.33866,-0.0635 0.46566,-0.1905 0.10583,-0.14817 0.14816,-0.33867 0.14816,-0.59267 z"
       style="fill:#000000;fill-opacity:1;fill-rule:nonzero;stroke:none;stroke-width:0.26458332"
       inkscape:connector-curvature="0" />
    <path
       id="path987"
       d="m 123.65556,37.563991 h -1.56632 c 0,0.12699 0.0212,0.25399 0.0635,0.33866 0.0423,0.10583 0.0847,0.16933 0.14816,0.23283 0.0847,0.0635 0.14817,0.10583 0.23283,0.14817 0.10583,0.0212 0.1905,0.0423 0.3175,0.0423 0.127,0 0.27517,-0.0212 0.42333,-0.0847 0.14817,-0.0635 0.254,-0.127 0.3175,-0.16933 h 0.0212 v 0.38099 c -0.127,0.0635 -0.254,0.10583 -0.381,0.127 -0.127,0.0423 -0.254,0.0635 -0.381,0.0635 -0.35983,0 -0.635,-0.10583 -0.82549,-0.29633 -0.1905,-0.1905 -0.29633,-0.46566 -0.29633,-0.80433 0,-0.33866 0.0847,-0.61383 0.27516,-0.82549 0.1905,-0.21167 0.4445,-0.29633 0.76199,-0.29633 0.27517,0 0.48684,0.0635 0.65617,0.23283 0.14817,0.16933 0.23283,0.40216 0.23283,0.71966 z m -0.35983,-0.27517 c 0,-0.1905 -0.0423,-0.33866 -0.127,-0.42333 -0.10583,-0.10583 -0.23283,-0.16933 -0.42333,-0.16933 -0.1905,0 -0.35983,0.0635 -0.46567,0.16933 -0.10583,0.127 -0.16933,0.254 -0.19049,0.42333 z"
       style="fill:#000000;fill-opacity:1;fill-rule:nonzero;stroke:none;stroke-width:0.26458332"
       inkscape:connector-curvature="0" />
    <path
       id="path989"
       d="m 126.44954,35.764831 -1.03716,2.81515 h -0.50799 l -1.016,-2.81515 h 0.40217 l 0.88899,2.47648 0.88899,-2.47648 z"
       style="fill:#000000;fill-opacity:1;fill-rule:nonzero;stroke:none;stroke-width:0.26458332"
       inkscape:connector-curvature="0" />
    <path
       id="path991"
       d="m 127.2327,36.124661 h -0.40216 v -0.38099 h 0.40216 z m -0.0212,2.45532 h -0.35983 v -2.11665 h 0.35983 z"
       style="fill:#000000;fill-opacity:1;fill-rule:nonzero;stroke:none;stroke-width:0.26458332"
       inkscape:connector-curvature="0" />
    <path
       id="path993"
       d="m 129.68802,37.563991 h -1.56632 c 0,0.12699 0.0212,0.25399 0.0635,0.33866 0.0423,0.10583 0.0847,0.16933 0.14816,0.23283 0.0847,0.0635 0.14817,0.10583 0.23283,0.14817 0.10583,0.0212 0.1905,0.0423 0.3175,0.0423 0.127,0 0.27516,-0.0212 0.42333,-0.0847 0.14816,-0.0635 0.254,-0.127 0.3175,-0.16933 h 0.0212 v 0.38099 c -0.127,0.0635 -0.254,0.10583 -0.38099,0.127 -0.127,0.0423 -0.254,0.0635 -0.381,0.0635 -0.35983,0 -0.635,-0.10583 -0.82549,-0.29633 -0.1905,-0.1905 -0.29634,-0.46566 -0.29634,-0.80433 0,-0.33866 0.0847,-0.61383 0.27517,-0.82549 0.1905,-0.21167 0.4445,-0.29633 0.76199,-0.29633 0.27517,0 0.48683,0.0635 0.65616,0.23283 0.14817,0.16933 0.23284,0.40216 0.23284,0.71966 z m -0.35984,-0.27517 c 0,-0.1905 -0.0423,-0.33866 -0.12699,-0.42333 -0.10584,-0.10583 -0.23284,-0.16933 -0.42333,-0.16933 -0.1905,0 -0.35983,0.0635 -0.46567,0.16933 -0.10583,0.127 -0.16933,0.254 -0.19049,0.42333 z"
       style="fill:#000000;fill-opacity:1;fill-rule:nonzero;stroke:none;stroke-width:0.26458332"
       inkscape:connector-curvature="0" />
    <path
       id="path995"
       d="m 132.88416,36.463331 -0.55033,2.11665 h -0.33866 l -0.52917,-1.62982 -0.55033,1.62982 h -0.31749 l -0.5715,-2.11665 h 0.381 l 0.38099,1.65099 0.52917,-1.65099 h 0.29633 l 0.55033,1.65099 0.35983,-1.65099 z"
       style="fill:#000000;fill-opacity:1;fill-rule:nonzero;stroke:none;stroke-width:0.26458332"
       inkscape:connector-curvature="0" />
    <path
       id="path997"
       d="M 42.608991,62.752131 H 181.82113 V 118.33539 H 42.608991 Z"
       style="fill:none;stroke:#ff9933;stroke-width:0.52916276px;stroke-linecap:butt;stroke-linejoin:miter;stroke-miterlimit:4;stroke-dasharray:none;stroke-opacity:1"
       inkscape:connector-curvature="0" />
    <path
       id="path999"
       d="M 35.666376,55.280361 H 174.89968 V 110.86361 H 35.666376 Z"
       style="fill:#ffffff;fill-opacity:1;fill-rule:nonzero;stroke:#33cccc;stroke-width:0.52916276px;stroke-linecap:butt;stroke-linejoin:miter;stroke-miterlimit:4;stroke-dasharray:none;stroke-opacity:1"
       inkscape:connector-curvature="0" />
    <path
       id="path1001"
       d="M 28.744927,47.808581 H 167.97823 V 103.39183 H 28.744927 Z"
       style="fill:#9bbb59;fill-opacity:1;fill-rule:nonzero;stroke:#77933c;stroke-width:0.52916667;stroke-linecap:butt;stroke-linejoin:miter;stroke-miterlimit:4;stroke-dasharray:none;stroke-opacity:1"
       inkscape:connector-curvature="0" />
  </g>
</svg>
