                                                                        S0000001
,,31HOpen CASCADE IGES processor 6.8,13HFilename.iges,                  G0000001
16HOpen CASCADE 6.8,31HOpen CASCADE IGES processor 6.8,32,308,15,308,15,G0000002
,1.,2,2HMM,1,10.,15H20150216.163754,0.000530995,484.385534,3Hdbv,,11,0, G0000003
15H20150216.163754,;                                                    G0000004
     510       1       0       0       0       0       0       000010000D0000001
     510       0       0       1       1                               0D0000002
     190       2       0       0       0       0       0       000010000D0000003
     190       0       0       1       1                               0D0000004
     116       3       0       0       0       0       0       000010400D0000005
     116       0       0       1       0                               0D0000006
     123       4       0       0       0       0       0       000010200D0000007
     123       0       0       1       0                               0D0000008
     123       5       0       0       0       0       0       000010200D0000009
     123       0       0       1       0                               0D0000010
     508       6       0       0       0       0       0       000010000D0000011
     508       0       0       3       1                               0D0000012
     504       9       0       0       0       0       0       000010001D0000013
     504       0       0       4       1                               0D0000014
     126      13       0       0       0       0       0       000010000D0000015
     126       0       0      20       0                               0D0000016
     502      33       0       0       0       0       0       000010000D0000017
     502       0       0      11       1                               0D0000018
     126      44       0       0       0       0       0       000010000D0000019
     126       0       0      27       0                               0D0000020
     126      71       0       0       0       0       0       000010000D0000021
     126       0       0      20       0                               0D0000022
     104      91       0       0       0       0      25       000010000D0000023
     104       0       0       2       1                               0D0000024
     124      93       0       0       0       0       0       000000000D0000025
     124       0       0       3       0                               0D0000026
     110      96       0       0       0       0       0       000010000D0000027
     110       0       0       2       0                               0D0000028
     110      98       0       0       0       0       0       000010000D0000029
     110       0       0       2       0                               0D0000030
     126     100       0       0       0       0       0       000010000D0000031
     126       0       0      16       0                               0D0000032
     104     116       0       0       0       0      35       000010000D0000033
     104       0       0       2       1                               0D0000034
     124     118       0       0       0       0       0       000000000D0000035
     124       0       0       3       0                               0D0000036
     126     121       0       0       0       0       0       000010000D0000037
     126       0       0      27       0                               0D0000038
     104     148       0       0       0       0      41       000010000D0000039
     104       0       0       2       1                               0D0000040
     124     150       0       0       0       0       0       000000000D0000041
     124       0       0       3       0                               0D0000042
     126     153       0       0       0       0       0       000010000D0000043
     126       0       0      16       0                               0D0000044
     110     169       0       0       0       0       0       000010000D0000045
     110       0       0       2       0                               0D0000046
     110     171       0       0       0       0       0       000010000D0000047
     110       0       0       2       0                               0D0000048
     104     173       0       0       0       0      51       000010000D0000049
     104       0       0       2       1                               0D0000050
     124     175       0       0       0       0       0       000000000D0000051
     124       0       0       3       0                               0D0000052
510,3,1,1,11;                                                    0000001P0000001
190,5,7,9;                                                       0000003P0000002
116,-385.154763311,47.52640498,212.884231159,0;                  0000005P0000003
123,5.136825659E-002,-1.638762842E-013,-0.99867978;              0000007P0000004
123,3.190224762E-012,1.,6.815758221E-028;                        0000009P0000005
508,14,0,13,1,0,0,0,13,2,0,0,0,13,3,0,0,0,13,4,0,0,0,13,5,0,0,0, 0000011P0000006
13,6,0,0,0,13,7,0,0,0,13,8,0,0,0,13,9,0,0,0,13,10,0,0,0,13,11,0, 0000011P0000007
0,0,13,12,0,0,0,13,13,0,0,0,13,14,0,0;                           0000011P0000008
504,14,15,17,1,17,2,19,17,3,17,1,21,17,4,17,3,23,17,5,17,4,27,   0000013P0000009
17,6,17,5,29,17,7,17,6,31,17,8,17,7,33,17,9,17,8,37,17,10,17,9,  0000013P0000010
39,17,11,17,10,43,17,12,17,11,45,17,13,17,12,47,17,14,17,13,49,  0000013P0000011
17,2,17,14;                                                      0000013P0000012
126,15,3,0,0,1,0,0.E+000,0.E+000,0.E+000,0.E+000,                0000015P0000013
2.462105796E-006,2.462105796E-006,4.924211593E-006,              0000015P0000014
4.924211593E-006,7.38631739E-006,7.38631739E-006,                0000015P0000015
8.617369655E-006,8.617369655E-006,1.107947545E-005,              0000015P0000016
1.107947545E-005,1.231052772E-005,1.231052772E-005,              0000015P0000017
1.503029137E-005,1.503029137E-005,1.503029137E-005,              0000015P0000018
1.503029137E-005,1.,1.,1.,1.,1.,1.,1.,1.,1.,1.,1.,1.,1.,1.,1.,   0000015P0000019
1.,-367.238640747,55.442816061,213.805767772,-367.238966152,     0000015P0000020
55.443569309,213.805751034,-367.239292181,55.444322287,          0000015P0000021
213.805734264,-367.239945486,55.445827701,213.805700661,         0000015P0000022
-367.240272763,55.446580137,213.805683827,-367.240928562,        0000015P0000023
55.448084462,213.805650095,-367.241257084,55.448836353,          0000015P0000024
213.805633197,-367.241750803,55.449963779,213.805607802,         0000015P0000025
-367.241915532,55.450339519,213.805599329,-367.242410185,        0000015P0000026
55.451466533,213.805573886,-367.242740576,55.452217603,          0000015P0000027
213.805556892,-367.243237097,55.453343794,213.805531353,         0000015P0000028
-367.24340276,55.453719122,213.805522832,-367.24393492,          0000015P0000029
55.45492344,213.80549546,-367.244302022,55.455752164,            0000015P0000030
213.805476577,-367.244669882,55.456580549,213.805457656,0.E+000, 0000015P0000031
1.503029137E-005,0.E+000,0.E+000,1.;                             0000015P0000032
502,14,-367.238640747,55.442816061,213.805767772,-367.244669882, 0000017P0000033
55.456580549,213.805457656,-367.238640747,-55.457913517,         0000017P0000034
213.805767772,-367.244669882,-55.471678006,213.805457656,        0000017P0000035
-383.298222841,-66.825474192,212.979724479,-484.382816111,       0000017P0000036
-72.800420224,207.780320796,-484.385424126,-71.893463879,        0000017P0000037
207.78018665,-383.176759436,-65.90824408,212.98597209,           0000017P0000038
-367.145921041,-54.938126663,213.810536918,-367.145921041,       0000017P0000039
54.923029207,213.810536918,-383.177268913,65.893177867,          0000017P0000040
212.985945885,-484.385433981,71.821965363,207.780186143,         0000017P0000041
-484.382850141,72.729045298,207.780319046,-383.298186001,        0000017P0000042
66.810374476,212.979726374;                                      0000017P0000043
126,21,3,1,0,1,0,0.E+000,0.E+000,0.E+000,0.E+000,                0000019P0000044
1.417107566E-002,1.417107566E-002,2.834215132E-002,              0000019P0000045
2.834215132E-002,4.251322697E-002,4.251322697E-002,              0000019P0000046
4.95987648E-002,4.95987648E-002,5.668430263E-002,                0000019P0000047
5.668430263E-002,7.085537829E-002,7.085537829E-002,              0000019P0000048
8.502645395E-002,8.502645395E-002,9.211199177E-002,              0000019P0000049
9.211199177E-002,9.91975296E-002,9.91975296E-002,0.113368605,    0000019P0000050
0.113368605,0.113368605,0.113368605,1.,1.,1.,1.,1.,1.,1.,1.,1.,  0000019P0000051
1.,1.,1.,1.,1.,1.,1.,1.,1.,1.,1.,1.,1.,-367.238640747,           0000019P0000052
-55.457913517,213.805767772,-365.339775737,-51.062418806,        0000019P0000053
213.903438103,-363.682369778,-46.607041566,213.988688707,        0000019P0000054
-360.833695169,-37.580683712,214.135213601,-359.642474994,       0000019P0000055
-33.009691077,214.196485397,-357.724457007,-23.752527743,        0000019P0000056
214.295140884,-356.99763088,-19.066364067,214.332526031,         0000019P0000057
-356.265312183,-11.948353256,214.370193696,-356.080989549,       0000019P0000058
-9.555832953,214.379674545,-355.836576605,-4.792103772,          0000019P0000059
214.392246209,-355.775692681,-2.41566495,214.395377844,          0000019P0000060
-355.773810419,4.69765718,214.395474661,-356.013122797,          0000019P0000061
9.418586745,214.38316535,-356.96739812,18.818360705,             0000019P0000062
214.334081088,-357.682350913,23.497206,214.29730666,             0000019P0000063
-359.118571952,30.48328594,214.223432959,-359.658156965,         0000019P0000064
32.806974367,214.195678776,-360.861110747,37.441869537,          0000019P0000065
214.133803449,-361.520877726,39.73926428,214.099867566,          0000019P0000066
-363.673686238,46.571758775,213.989135355,-365.339777826,        0000019P0000067
51.047326186,213.903437996,-367.238640747,55.442816061,          0000019P0000068
213.805767772,0.E+000,0.113368605,-5.136825659E-002,             0000019P0000069
1.614366836E-013,0.99867978;                                     0000019P0000070
126,15,3,0,0,1,0,0.E+000,0.E+000,0.E+000,0.E+000,                0000021P0000071
2.462691964E-006,2.462691964E-006,4.92538393E-006,               0000021P0000072
4.92538393E-006,7.388075897E-006,7.388075897E-006,               0000021P0000073
8.619421244E-006,8.619421244E-006,1.108211321E-005,              0000021P0000074
1.108211321E-005,1.231345855E-005,1.231345855E-005,              0000021P0000075
1.503029136E-005,1.503029136E-005,1.503029136E-005,              0000021P0000076
1.503029136E-005,1.,1.,1.,1.,1.,1.,1.,1.,1.,1.,1.,1.,1.,1.,1.,   0000021P0000077
1.,-367.244669882,-55.471678006,213.805457656,-367.244336792,    0000021P0000078
-55.470927919,213.805474789,-367.244004323,-55.470177556,        0000021P0000079
213.80549189,-367.243340633,-55.468676277,213.805526028,         0000021P0000080
-367.24300941,-55.467925361,213.805543064,-367.24234821,         0000021P0000081
-55.46642298,213.805577074,-367.242018233,-55.465671515,         0000021P0000082
213.805594047,-367.241524203,-55.464543906,213.805619458,        0000021P0000083
-367.241359682,-55.464167968,213.80562792,-367.240866586,        0000021P0000084
-55.463039949,213.805653283,-367.240538479,-55.462287663,        0000021P0000085
213.80567016,-367.240047254,-55.461158827,213.805695426,         0000021P0000086
-367.239883669,-55.46078248,213.805703841,-367.239359649,        0000021P0000087
-55.459575546,213.805730794,-367.238999818,-55.458744696,        0000021P0000088
213.805749302,-367.238640747,-55.457913517,213.805767772,        0000021P0000089
0.E+000,1.503029136E-005,0.E+000,0.E+000,1.;                     0000021P0000090
104,2.896810377E-003,0.E+000,3.16466143E-003,0.E+000,-0.E+000,   0000023P0000091
-1.,0.E+000,14.537591882,11.069577618,-4.118960324,17.333773134; 0000023P0000092
124,-0.589907738,0.805835072,-5.136825659E-002,-383.642638764,   0000025P0000093
-0.806900358,-0.590687576,2.235225043E-013,-48.556424128,        0000025P0000094
-3.034259097E-002,4.144906462E-002,0.99867978,212.962009045;     0000025P0000095
110,-484.382816111,-72.800420224,207.780320796,-383.298222841,   0000027P0000096
-66.825474192,212.979724479;                                     0000027P0000097
110,-484.385424126,-71.893463879,207.78018665,-484.382816111,    0000029P0000098
-72.800420224,207.780320796;                                     0000029P0000099
126,12,3,1,0,1,0,0.E+000,0.E+000,0.E+000,0.E+000,                0000031P0000100
6.574644903E-003,6.574644903E-003,6.574644903E-003,              0000031P0000101
5.137569571E-002,5.137569571E-002,5.137569571E-002,              0000031P0000102
9.617674652E-002,9.617674652E-002,9.617674652E-002,0.101519047,  0000031P0000103
0.101519047,0.101519047,0.101519047,1.,1.,1.,1.,1.,1.,1.,1.,1.,  0000031P0000104
1.,1.,1.,1.,-383.176759436,-65.90824408,212.98597209,            0000031P0000105
-385.361610863,-66.037390705,212.873591715,-387.54646211,        0000031P0000106
-66.166540384,212.761211349,-389.731313169,-66.295693243,        0000031P0000107
212.648830992,-404.619360316,-67.17576873,211.883046962,         0000031P0000108
-419.507398848,-68.05599038,211.117263376,-434.395425772,        0000031P0000109
-68.936408817,210.351480386,-449.283452697,-69.816827255,        0000031P0000110
209.585697397,-464.171468069,-70.697441624,208.819915002,        0000031P0000111
-479.05946738,-71.578328116,208.054133433,-480.834786529,        0000031P0000112
-71.683369406,207.962817826,-482.610105448,-71.788414605,        0000031P0000113
207.871502232,-484.385424126,-71.893463879,207.78018665,0.E+000, 0000031P0000114
0.101519047,-5.136825662E-002,8.749440207E-010,0.99867978;       0000031P0000115
104,2.535012446E-003,0.E+000,2.755520539E-003,0.E+000,-0.E+000,  0000033P0000116
-1.,0.E+000,19.544131557,-3.391432862,12.563396082,14.754654738; 0000033P0000117
124,0.821957061,-0.567228254,5.136825659E-002,-385.134074518,    0000035P0000118
-0.56797811,-0.82304366,-1.602940238E-013,-46.628785078,         0000035P0000119
4.227831792E-002,-2.917604529E-002,-0.99867978,212.885295312;    0000035P0000120
126,21,3,1,0,1,0,0.E+000,0.E+000,0.E+000,0.E+000,                0000037P0000121
7.110103107E-003,7.110103107E-003,1.422020621E-002,              0000037P0000122
1.422020621E-002,2.844041243E-002,2.844041243E-002,              0000037P0000123
4.266061864E-002,4.266061864E-002,5.688082485E-002,              0000037P0000124
5.688082485E-002,7.110103107E-002,7.110103107E-002,              0000037P0000125
8.532123728E-002,8.532123728E-002,9.954144349E-002,              0000037P0000126
9.954144349E-002,0.106651547,0.106651547,0.11376165,0.11376165,  0000037P0000127
0.11376165,0.11376165,1.,1.,1.,1.,1.,1.,1.,1.,1.,1.,1.,1.,1.,1., 0000037P0000128
1.,1.,1.,1.,1.,1.,1.,1.,-367.145921041,54.923029207,             0000037P0000129
213.810536918,-366.207278478,52.745584516,213.85881709,          0000037P0000130
-365.325284828,50.546089197,213.90418346,-363.674496141,         0000037P0000131
46.103035921,213.989093697,-362.905259763,43.857452607,          0000037P0000132
214.028660265,-360.781732249,37.101018543,214.137886374,         0000037P0000133
-359.605359823,32.556334795,214.198394459,-357.718555652,        0000037P0000134
23.388319613,214.295444427,-357.008151351,18.764983546,          0000037P0000135
214.331984899,-356.055323763,9.439319331,214.380994694,          0000037P0000136
-355.812851398,4.736999466,214.393466543,-355.812762003,         0000037P0000137
-4.749480616,214.393471141,-356.0551475,-9.451917483,            0000037P0000138
214.381003761,-357.007854067,-18.77794514,214.33200019,          0000037P0000139
-357.718223968,-23.401542775,214.295461487,-359.6050588,         0000037P0000140
-32.570232121,214.198409942,-360.781496021,-37.115328498,        0000037P0000141
214.137898525,-362.905235681,-43.872491387,214.028661504,        0000037P0000142
-363.674532293,-46.118233823,213.989091837,-365.325293322,       0000037P0000143
-50.561206371,213.904183023,-366.207278512,-52.760682052,        0000037P0000144
213.858817088,-367.145921041,-54.938126663,213.810536918,        0000037P0000145
0.E+000,0.11376165,-5.136825659E-002,1.813291795E-013,           0000037P0000146
0.99867978;                                                      0000037P0000147
104,2.541524025E-003,0.E+000,2.759204047E-003,0.E+000,-0.E+000,  0000039P0000148
-1.,0.E+000,12.468134932,-14.806523185,19.534391787,3.306903897; 0000039P0000149
124,0.824611102,0.563362967,5.136825659E-002,-385.117184574,     0000041P0000150
0.564107713,-0.82570121,-2.075765089E-013,46.634042676,          0000041P0000151
4.241483161E-002,2.897722975E-002,-0.99867978,212.886164065;     0000041P0000152
126,12,3,1,0,1,0,0.E+000,0.E+000,0.E+000,0.E+000,                0000043P0000153
5.342707576E-003,5.342707576E-003,5.342707576E-003,              0000043P0000154
5.014144311E-002,5.014144311E-002,5.014144311E-002,              0000043P0000155
9.494017864E-002,9.494017864E-002,9.494017864E-002,0.101515236,  0000043P0000156
0.101515236,0.101515236,0.101515236,1.,1.,1.,1.,1.,1.,1.,1.,1.,  0000043P0000157
1.,1.,1.,1.,-484.385433981,71.821965363,207.780186143,           0000043P0000158
-482.609922006,71.717894804,207.871511667,-480.834409796,        0000043P0000159
71.613828275,207.962837204,-479.05889736,71.509765614,           0000043P0000160
208.054162752,-464.171181548,70.637197622,208.819929739,         0000043P0000161
-449.283450002,69.764898785,209.585697536,-434.395707134,        0000043P0000162
68.892793765,210.351465914,-419.507964266,68.020688746,          0000043P0000163
211.117234293,-404.620210024,67.14877839,211.883003257,          0000043P0000164
-389.732447339,66.277012634,212.648772655,-387.547388045,        0000043P0000165
66.149064606,212.761163722,-385.362328567,66.021119726,          0000043P0000166
212.873554799,-383.177268913,65.893177867,212.985945885,0.E+000, 0000043P0000167
0.101515236,-5.136825657E-002,-3.790897066E-010,0.99867978;      0000043P0000168
110,-484.382850141,72.729045298,207.780319046,-484.385433981,    0000045P0000169
71.821965363,207.780186143;                                      0000045P0000170
110,-383.298186001,66.810374476,212.979726374,-484.382850141,    0000047P0000171
72.729045298,207.780319046;                                      0000047P0000172
104,2.913361944E-003,0.E+000,3.197364672E-003,0.E+000,-0.E+000,  0000049P0000173
-1.,0.E+000,4.512553004,17.152351701,-14.270457314,11.278309492; 0000049P0000174
124,0.606571639,0.7933676,-5.136825659E-002,-383.589976663,      0000051P0000175
-0.794416405,0.607373506,2.085219745E-013,48.623542704,          0000051P0000176
3.119971808E-002,4.080778574E-002,0.99867978,212.964717781;      0000051P0000177
S      1G      4D     52P    177                                        T0000001
