IGES file generated by C3D Converter 1.5                                S      1
translator by C3D Labs., translator version IGESOUT-5.1.                S      2
1H,,1H;,0H,39HC:\Users\Andi_men\Downloads\Ban_t1.iges,21HC3D-based appliG      1
cation,3H1.0,32,38,6,308,15,7Hunknown,1,2,2HMM,1000,1,16H-17770108:09421G      2
7,1E-6,50000,7Hunknown,7Hunknown,0,0,13H230208:094217;                  G      3
     502       1       0       0       0       0       0       000010000D      1
     502       0       0       4       1                               0D      2
     110       5       0       0       0       0       0       000010000D      3
     110       1       0       1       0                               0D      4
     110       6       0       0       0       0       0       000010000D      5
     110       1       0       1       0                               0D      6
     110       7       0       0       0       0       0       000010000D      7
     110       1       0       1       0                               0D      8
     110       8       0       0       0       0       0       000010000D      9
     110       1       0       1       0                               0D     10
     110       9       0       0       0       0       0       000010000D     11
     110       1       0       1       0                               0D     12
     110      10       0       0       0       0       0       000010000D     13
     110       1       0       1       0                               0D     14
     110      11       0       0       0       0       0       000010000D     15
     110       1       0       1       0                               0D     16
     110      12       0       0       0       0       0       000010000D     17
     110       1       0       1       0                               0D     18
     504      13       0       0       0       0       0       000010000D     19
     504       1       0       2       1                               0D     20
     128      15       0       0       0       0       0       000010000D     21
     128       1       0       3       0                               0D     22
     126      18       0       0       0       0       0       001010500D     23
     126       1       0       2       0                               0D     24
     126      20       0       0       0       0       0       001010500D     25
     126       1       0       1       0                               0D     26
     126      21       0       0       0       0       0       001010500D     27
     126       1       0       2       0                               0D     28
     126      23       0       0       0       0       0       001010500D     29
     126       1       0       2       0                               0D     30
     126      25       0       0       0       0       0       001010500D     31
     126       1       0       2       0                               0D     32
     126      27       0       0       0       0       0       001010500D     33
     126       1       0       1       0                               0D     34
     126      28       0       0       0       0       0       001010500D     35
     126       1       0       2       0                               0D     36
     126      30       0       0       0       0       0       001010500D     37
     126       1       0       2       0                               0D     38
     508      32       0       0       0       0       0       000010000D     39
     508       1       0       3       1                               0D     40
     510      35       0       0       0       0       0       000010000D     41
     510       1       0       1       1                               0D     42
     514      36       0       0       0       0       0       000010000D     43
     514       1       0       1       1                               0D     44
     186      37       0       0       0       0       0       000000000D     45
     186       1       0       1       0                               0D     46
     308      38       0       0       0       0       0       000020201D     47
     308       1       0       1       0                               0D     48
     124      39       0       0       0       0       0       000000000D     49
     124       1       0       1       0                               0D     50
     406      40       0       0       0       0       0       001000000D     51
     406       1       0       1      15                               0D     52
     408      41       0       0       0       0      49       000010001D     53
     408       1       0       1       0                               0D     54
     502      42       0       0       0       0       0       000010000D     55
     502       1       0       3       1                               0D     56
     110      45       0       0       0       0       0       000010000D     57
     110       1       0       2       0                               0D     58
     110      47       0       0       0       0       0       000010000D     59
     110       1       0       2       0                               0D     60
     110      49       0       0       0       0       0       000010000D     61
     110       1       0       1       0                               0D     62
     110      50       0       0       0       0       0       000010000D     63
     110       1       0       1       0                               0D     64
     504      51       0       0       0       0       0       000010000D     65
     504       1       0       1       1                               0D     66
     128      52       0       0       0       0       0       000010000D     67
     128       1       0       2       0                               0D     68
     126      54       0       0       0       0       0       001010500D     69
     126       1       0       1       0                               0D     70
     126      55       0       0       0       0       0       001010500D     71
     126       1       0       1       0                               0D     72
     126      56       0       0       0       0       0       001010500D     73
     126       1       0       1       0                               0D     74
     126      57       0       0       0       0       0       001010500D     75
     126       1       0       1       0                               0D     76
     508      58       0       0       0       0       0       000010000D     77
     508       1       0       2       1                               0D     78
     510      60       0       0       0       0       0       000010000D     79
     510       1       0       1       1                               0D     80
     514      61       0       0       0       0       0       000010000D     81
     514       1       0       1       1                               0D     82
     186      62       0       0       0       0       0       000000000D     83
     186       1       0       1       0                               0D     84
     502      63       0       0       0       0       0       000010000D     85
     502       1       0       2       1                               0D     86
     110      65       0       0       0       0       0       000010000D     87
     110       1       0       1       0                               0D     88
     110      66       0       0       0       0       0       000010000D     89
     110       1       0       1       0                               0D     90
     110      67       0       0       0       0       0       000010000D     91
     110       1       0       1       0                               0D     92
     110      68       0       0       0       0       0       000010000D     93
     110       1       0       1       0                               0D     94
     504      69       0       0       0       0       0       000010000D     95
     504       1       0       1       1                               0D     96
     128      70       0       0       0       0       0       000010000D     97
     128       1       0       2       0                               0D     98
     126      72       0       0       0       0       0       001010500D     99
     126       1       0       1       0                               0D    100
     126      73       0       0       0       0       0       001010500D    101
     126       1       0       1       0                               0D    102
     126      74       0       0       0       0       0       001010500D    103
     126       1       0       1       0                               0D    104
     126      75       0       0       0       0       0       001010500D    105
     126       1       0       1       0                               0D    106
     508      76       0       0       0       0       0       000010000D    107
     508       1       0       2       1                               0D    108
     510      78       0       0       0       0       0       000010000D    109
     510       1       0       1       1                               0D    110
     514      79       0       0       0       0       0       000010000D    111
     514       1       0       1       1                               0D    112
     186      80       0       0       0       0       0       000000000D    113
     186       1       0       1       0                               0D    114
     502      81       0       0       0       0       0       000010000D    115
     502       1       0       2       1                               0D    116
     110      83       0       0       0       0       0       000010000D    117
     110       1       0       1       0                               0D    118
     110      84       0       0       0       0       0       000010000D    119
     110       1       0       1       0                               0D    120
     110      85       0       0       0       0       0       000010000D    121
     110       1       0       1       0                               0D    122
     110      86       0       0       0       0       0       000010000D    123
     110       1       0       1       0                               0D    124
     504      87       0       0       0       0       0       000010000D    125
     504       1       0       2       1                               0D    126
     128      89       0       0       0       0       0       000010000D    127
     128       1       0       2       0                               0D    128
     126      91       0       0       0       0       0       001010500D    129
     126       1       0       1       0                               0D    130
     126      92       0       0       0       0       0       001010500D    131
     126       1       0       1       0                               0D    132
     126      93       0       0       0       0       0       001010500D    133
     126       1       0       1       0                               0D    134
     126      94       0       0       0       0       0       001010500D    135
     126       1       0       1       0                               0D    136
     508      95       0       0       0       0       0       000010000D    137
     508       1       0       2       1                               0D    138
     510      97       0       0       0       0       0       000010000D    139
     510       1       0       1       1                               0D    140
     514      98       0       0       0       0       0       000010000D    141
     514       1       0       1       1                               0D    142
     186      99       0       0       0       0       0       000000000D    143
     186       1       0       1       0                               0D    144
     502     100       0       0       0       0       0       000010000D    145
     502       1       0       2       1                               0D    146
     110     102       0       0       0       0       0       000010000D    147
     110       1       0       2       0                               0D    148
     110     104       0       0       0       0       0       000010000D    149
     110       1       0       1       0                               0D    150
     110     105       0       0       0       0       0       000010000D    151
     110       1       0       1       0                               0D    152
     110     106       0       0       0       0       0       000010000D    153
     110       1       0       1       0                               0D    154
     504     107       0       0       0       0       0       000010000D    155
     504       1       0       2       1                               0D    156
     128     109       0       0       0       0       0       000010000D    157
     128       1       0       3       0                               0D    158
     126     112       0       0       0       0       0       001010500D    159
     126       1       0       1       0                               0D    160
     126     113       0       0       0       0       0       001010500D    161
     126       1       0       1       0                               0D    162
     126     114       0       0       0       0       0       001010500D    163
     126       1       0       1       0                               0D    164
     126     115       0       0       0       0       0       001010500D    165
     126       1       0       1       0                               0D    166
     508     116       0       0       0       0       0       000010000D    167
     508       1       0       2       1                               0D    168
     510     118       0       0       0       0       0       000010000D    169
     510       1       0       1       1                               0D    170
     514     119       0       0       0       0       0       000010000D    171
     514       1       0       1       1                               0D    172
     186     120       0       0       0       0       0       000000000D    173
     186       1       0       1       0                               0D    174
     502     121       0       0       0       0       0       000010000D    175
     502       1       0       2       1                               0D    176
     110     123       0       0       0       0       0       000010000D    177
     110       1       0       1       0                               0D    178
     110     124       0       0       0       0       0       000010000D    179
     110       1       0       1       0                               0D    180
     110     125       0       0       0       0       0       000010000D    181
     110       1       0       1       0                               0D    182
     110     126       0       0       0       0       0       000010000D    183
     110       1       0       2       0                               0D    184
     504     128       0       0       0       0       0       000010000D    185
     504       1       0       2       1                               0D    186
     128     130       0       0       0       0       0       000010000D    187
     128       1       0       3       0                               0D    188
     126     133       0       0       0       0       0       001010500D    189
     126       1       0       1       0                               0D    190
     126     134       0       0       0       0       0       001010500D    191
     126       1       0       1       0                               0D    192
     126     135       0       0       0       0       0       001010500D    193
     126       1       0       1       0                               0D    194
     126     136       0       0       0       0       0       001010500D    195
     126       1       0       1       0                               0D    196
     508     137       0       0       0       0       0       000010000D    197
     508       1       0       2       1                               0D    198
     510     139       0       0       0       0       0       000010000D    199
     510       1       0       1       1                               0D    200
     514     140       0       0       0       0       0       000010000D    201
     514       1       0       1       1                               0D    202
     186     141       0       0       0       0       0       000000000D    203
     186       1       0       1       0                               0D    204
     502     142       0       0       0       0       0       000010000D    205
     502       1       0       3       1                               0D    206
     110     145       0       0       0       0       0       000010000D    207
     110       1       0       1       0                               0D    208
     110     146       0       0       0       0       0       000010000D    209
     110       1       0       1       0                               0D    210
     110     147       0       0       0       0       0       000010000D    211
     110       1       0       2       0                               0D    212
     110     149       0       0       0       0       0       000010000D    213
     110       1       0       2       0                               0D    214
     504     151       0       0       0       0       0       000010000D    215
     504       1       0       2       1                               0D    216
     128     153       0       0       0       0       0       000010000D    217
     128       1       0       3       0                               0D    218
     126     156       0       0       0       0       0       001010500D    219
     126       1       0       1       0                               0D    220
     126     157       0       0       0       0       0       001010500D    221
     126       1       0       1       0                               0D    222
     126     158       0       0       0       0       0       001010500D    223
     126       1       0       1       0                               0D    224
     126     159       0       0       0       0       0       001010500D    225
     126       1       0       1       0                               0D    226
     508     160       0       0       0       0       0       000010000D    227
     508       1       0       2       1                               0D    228
     510     162       0       0       0       0       0       000010000D    229
     510       1       0       1       1                               0D    230
     514     163       0       0       0       0       0       000010000D    231
     514       1       0       1       1                               0D    232
     186     164       0       0       0       0       0       000000000D    233
     186       1       0       1       0                               0D    234
     502     165       0       0       0       0       0       000010000D    235
     502       1       0       3       1                               0D    236
     110     168       0       0       0       0       0       000010000D    237
     110       1       0       2       0                               0D    238
     110     170       0       0       0       0       0       000010000D    239
     110       1       0       2       0                               0D    240
     110     172       0       0       0       0       0       000010000D    241
     110       1       0       1       0                               0D    242
     110     173       0       0       0       0       0       000010000D    243
     110       1       0       2       0                               0D    244
     504     175       0       0       0       0       0       000010000D    245
     504       1       0       2       1                               0D    246
     128     177       0       0       0       0       0       000010000D    247
     128       1       0       3       0                               0D    248
     126     180       0       0       0       0       0       001010500D    249
     126       1       0       1       0                               0D    250
     126     181       0       0       0       0       0       001010500D    251
     126       1       0       1       0                               0D    252
     126     182       0       0       0       0       0       001010500D    253
     126       1       0       1       0                               0D    254
     126     183       0       0       0       0       0       001010500D    255
     126       1       0       1       0                               0D    256
     508     184       0       0       0       0       0       000010000D    257
     508       1       0       2       1                               0D    258
     510     186       0       0       0       0       0       000010000D    259
     510       1       0       1       1                               0D    260
     514     187       0       0       0       0       0       000010000D    261
     514       1       0       1       1                               0D    262
     186     188       0       0       0       0       0       000000000D    263
     186       1       0       1       0                               0D    264
     502     189       0       0       0       0       0       000010000D    265
     502       1       0       3       1                               0D    266
     110     192       0       0       0       0       0       000010000D    267
     110       1       0       2       0                               0D    268
     110     194       0       0       0       0       0       000010000D    269
     110       1       0       1       0                               0D    270
     110     195       0       0       0       0       0       000010000D    271
     110       1       0       1       0                               0D    272
     110     196       0       0       0       0       0       000010000D    273
     110       1       0       2       0                               0D    274
     504     198       0       0       0       0       0       000010000D    275
     504       1       0       2       1                               0D    276
     128     200       0       0       0       0       0       000010000D    277
     128       1       0       3       0                               0D    278
     126     203       0       0       0       0       0       001010500D    279
     126       1       0       1       0                               0D    280
     126     204       0       0       0       0       0       001010500D    281
     126       1       0       1       0                               0D    282
     126     205       0       0       0       0       0       001010500D    283
     126       1       0       1       0                               0D    284
     126     206       0       0       0       0       0       001010500D    285
     126       1       0       1       0                               0D    286
     508     207       0       0       0       0       0       000010000D    287
     508       1       0       2       1                               0D    288
     510     209       0       0       0       0       0       000010000D    289
     510       1       0       1       1                               0D    290
     514     210       0       0       0       0       0       000010000D    291
     514       1       0       1       1                               0D    292
     186     211       0       0       0       0       0       000000000D    293
     186       1       0       1       0                               0D    294
     502     212       0       0       0       0       0       000010000D    295
     502       1       0       4       1                               0D    296
     110     216       0       0       0       0       0       000010000D    297
     110       1       0       1       0                               0D    298
     110     217       0       0       0       0       0       000010000D    299
     110       1       0       1       0                               0D    300
     110     218       0       0       0       0       0       000010000D    301
     110       1       0       1       0                               0D    302
     110     219       0       0       0       0       0       000010000D    303
     110       1       0       2       0                               0D    304
     110     221       0       0       0       0       0       000010000D    305
     110       1       0       2       0                               0D    306
     110     223       0       0       0       0       0       000010000D    307
     110       1       0       2       0                               0D    308
     110     225       0       0       0       0       0       000010000D    309
     110       1       0       2       0                               0D    310
     110     227       0       0       0       0       0       000010000D    311
     110       1       0       2       0                               0D    312
     504     229       0       0       0       0       0       000010000D    313
     504       1       0       3       1                               0D    314
     128     232       0       0       0       0       0       000010000D    315
     128       1       0       2       0                               0D    316
     126     234       0       0       0       0       0       001010500D    317
     126       1       0       2       0                               0D    318
     126     236       0       0       0       0       0       001010500D    319
     126       1       0       1       0                               0D    320
     126     237       0       0       0       0       0       001010500D    321
     126       1       0       2       0                               0D    322
     126     239       0       0       0       0       0       001010500D    323
     126       1       0       2       0                               0D    324
     126     241       0       0       0       0       0       001010500D    325
     126       1       0       2       0                               0D    326
     126     243       0       0       0       0       0       001010500D    327
     126       1       0       1       0                               0D    328
     126     244       0       0       0       0       0       001010500D    329
     126       1       0       2       0                               0D    330
     126     246       0       0       0       0       0       001010500D    331
     126       1       0       2       0                               0D    332
     508     248       0       0       0       0       0       000010000D    333
     508       1       0       3       1                               0D    334
     510     251       0       0       0       0       0       000010000D    335
     510       1       0       1       1                               0D    336
     514     252       0       0       0       0       0       000010000D    337
     514       1       0       1       1                               0D    338
     186     253       0       0       0       0       0       000000000D    339
     186       1       0       1       0                               0D    340
     308     254       0       0       0       0       0       000020201D    341
     308       1       0       1       0                               0D    342
     124     255       0       0       0       0       0       000000000D    343
     124       1       0       1       0                               0D    344
     406     256       0       0       0       0       0       001000000D    345
     406       1       0       1      15                               0D    346
     408     257       0       0       0       0     343       000010001D    347
     408       1       0       1       0                               0D    348
     308     258       0       0       0       0       0       000020201D    349
     308       1       0       1       0                               0D    350
     124     259       0       0       0       0       0       000000000D    351
     124       1       0       2       0                               0D    352
     408     261       0       0       0       0     351       000000001D    353
     408       1       0       1       0                               0D    354
     124     262       0       0       0       0       0       000000000D    355
     124       1       0       2       0                               0D    356
     408     264       0       0       0       0     355       000000001D    357
     408       1       0       1       0                               0D    358
     124     265       0       0       0       0       0       000000000D    359
     124       1       0       2       0                               0D    360
     408     267       0       0       0       0     359       000000001D    361
     408       1       0       1       0                               0D    362
     124     268       0       0       0       0       0       000000000D    363
     124       1       0       2       0                               0D    364
     408     270       0       0       0       0     363       000000001D    365
     408       1       0       1       0                               0D    366
502,8,-2500,-1.99999999999997,500,-2000,-2,0,2000,-2,0,2500,           1P      1
-1.99999999999997,500,2500,-1.99999999999985,2500,2000,                1P      2
-1.99999999999982,3000,-2000,-1.99999999999982,3000,-2500,             1P      3
-1.99999999999985,2500;                                                1P      4
110,-2500,-1.99999999999997,500,-2000,-2,0;                            3P      5
110,-2000,-2,0,2000,-2,0;                                              5P      6
110,2000,-2,0,2500,-1.99999999999997,500;                              7P      7
110,2500,-1.99999999999997,500,2500,-1.99999999999985,2500;            9P      8
110,2500,-1.99999999999985,2500,2000,-1.99999999999982,3000;          11P      9
110,2000,-1.99999999999982,3000,-2000,-1.99999999999982,3000;         13P     10
110,-2000,-1.99999999999982,3000,-2500,-1.99999999999985,2500;        15P     11
110,-2500,-1.99999999999985,2500,-2500,-1.99999999999997,500;         17P     12
504,8,3,1,1,1,2,5,1,2,1,3,7,1,3,1,4,9,1,4,1,5,11,1,5,1,6,13,1,6,      19P     13
1,7,15,1,7,1,8,17,1,8,1,1;                                            19P     14
128,1,1,1,1,0,0,1,0,0,0,0,1,1,0,0,1,1,1,1,1,1,-2500,-2,0,2500,        21P     15
-2,0,-2500,-1.99999999999982,3000,2500,-1.99999999999982,3000,0,      21P     16
1,0,1;                                                                21P     17
126,1,1,1,0,1,0,0,0,1,1,1,1,0,0.166666666666667,0,0.1,0,0,0,1,0,      23P     18
0,1;                                                                  23P     19
126,1,1,1,0,1,0,0,0,1,1,1,1,0.1,0,0,0.9,0,0,0,1,0,0,1;                25P     20
126,1,1,1,0,1,0,0,0,1,1,1,1,0.9,0,0,1,0.166666666666667,0,0,1,0,      27P     21
0,1;                                                                  27P     22
126,1,1,1,0,1,0,0,0,1,1,1,1,1,0.166666666666667,0,1,                  29P     23
0.833333333333333,0,0,1,0,0,1;                                        29P     24
126,1,1,1,0,1,0,0,0,1,1,1,1,1,0.833333333333333,0,0.9,1,0,0,1,0,      31P     25
0,1;                                                                  31P     26
126,1,1,1,0,1,0,0,0,1,1,1,1,0.9,1,0,0.1,1,0,0,1,0,0,1;                33P     27
126,1,1,1,0,1,0,0,0,1,1,1,1,0.1,1,0,0,0.833333333333333,0,0,1,0,      35P     28
0,1;                                                                  35P     29
126,1,1,1,0,1,0,0,0,1,1,1,1,0,0.833333333333333,0,0,                  37P     30
0.166666666666667,0,0,1,0,0,1;                                        37P     31
508,8,0,19,1,1,1,0,23,0,19,2,1,1,0,25,0,19,3,1,1,0,27,0,19,4,1,       39P     32
1,0,29,0,19,5,1,1,0,31,0,19,6,1,1,0,33,0,19,7,1,1,0,35,0,19,8,1,      39P     33
1,0,37;                                                               39P     34
510,21,1,1,39;                                                        41P     35
514,1,41,1;                                                           43P     36
186,43,1,0;                                                           45P     37
308,0,0H,1,45;                                                        47P     38
124,1,0,0,0,0,1,0,0,0,0,1,0;                                          49P     39
406,1,4HBann;                                                         51P     40
408,47,0,0,0,1,0,1,51;                                                53P     41
502,4,-2500,3.06161699786855E-14,500,-2000,1.74811576596976E-27,      55P     42
1.13686837721616E-13,-2000,-2,1.13748070061573E-13,-2500,             55P     43
-1.99999999999997,500;                                                55P     44
110,-2500,3.06161699786855E-14,500,-2000,1.74811576596976E-27,        57P     45
1.13686837721616E-13;                                                 57P     46
110,-2000,1.74811576596976E-27,1.13686837721616E-13,-2000,-2,         59P     47
1.13748070061573E-13;                                                 59P     48
110,-2000,-2,1.13748070061573E-13,-2500,-1.99999999999997,500;        61P     49
110,-2500,-1.99999999999997,500,-2500,3.06161699786855E-14,500;       63P     50
504,4,57,55,1,55,2,59,55,2,55,3,61,55,3,55,4,63,55,4,55,1;            65P     51
128,1,1,1,1,0,0,1,0,0,0,0,1,1,0,0,1,1,1,1,1,1,-2500,0,500,-2000,      67P     52
0,0,-2500,-1.99999999999997,500,-2000,-2,0,0,1,0,1;                   67P     53
126,1,1,1,0,1,0,0,0,1,1,1,1,0,0,0,1,0,0,0,1,0,0,1;                    69P     54
126,1,1,1,0,1,0,0,0,1,1,1,1,1,0,0,1,1,0,0,1,0,0,1;                    71P     55
126,1,1,1,0,1,0,0,0,1,1,1,1,1,1,0,0,1,0,0,1,0,0,1;                    73P     56
126,1,1,1,0,1,0,0,0,1,1,1,1,0,1,0,0,0,0,0,1,0,0,1;                    75P     57
508,4,0,65,1,1,1,0,69,0,65,2,1,1,0,71,0,65,3,1,1,0,73,0,65,4,1,       77P     58
1,0,75;                                                               77P     59
510,67,1,1,77;                                                        79P     60
514,1,79,1;                                                           81P     61
186,81,1,0;                                                           83P     62
502,4,-2000,1.74180487872799E-27,0,2000,1.84277907459628E-27,0,       85P     63
2000,-2,0,-2000,-2,0;                                                 85P     64
110,-2000,1.74180487872799E-27,0,2000,1.84277907459628E-27,0;         87P     65
110,2000,1.84277907459628E-27,0,2000,-2,0;                            89P     66
110,2000,-2,0,-2000,-2,0;                                             91P     67
110,-2000,-2,0,-2000,1.74180487872799E-27,0;                          93P     68
504,4,87,85,1,85,2,89,85,2,85,3,91,85,3,85,4,93,85,4,85,1;            95P     69
128,1,1,1,1,0,0,1,0,0,0,0,1,1,0,0,1,1,1,1,1,1,-2000,0,0,2000,0,       97P     70
0,-2000,-2,0,2000,-2,0,0,1,0,1;                                       97P     71
126,1,1,1,0,1,0,0,0,1,1,1,1,0,0,0,1,0,0,0,1,0,0,1;                    99P     72
126,1,1,1,0,1,0,0,0,1,1,1,1,1,0,0,1,1,0,0,1,0,0,1;                   101P     73
126,1,1,1,0,1,0,0,0,1,1,1,1,1,1,0,0,1,0,0,1,0,0,1;                   103P     74
126,1,1,1,0,1,0,0,0,1,1,1,1,0,1,0,0,0,0,0,1,0,0,1;                   105P     75
508,4,0,95,1,1,1,0,99,0,95,2,1,1,0,101,0,95,3,1,1,0,103,0,95,4,      107P     76
1,1,0,105;                                                           107P     77
510,97,1,1,107;                                                      109P     78
514,1,109,1;                                                         111P     79
186,111,1,0;                                                         113P     80
502,4,2000,-2,0,2000,1.84277907459628E-27,0,2500,                    115P     81
-1.99999999999997,500,2500,3.06161699786857E-14,500;                 115P     82
110,2000,-2,0,2000,1.84277907459628E-27,0;                           117P     83
110,2500,-1.99999999999997,500,2000,-2,0;                            119P     84
110,2500,3.06161699786857E-14,500,2500,-1.99999999999997,500;        121P     85
110,2000,1.84277907459628E-27,0,2500,3.06161699786857E-14,500;       123P     86
504,4,117,115,1,115,2,119,115,3,115,1,121,115,4,115,3,123,115,2,     125P     87
115,4;                                                               125P     88
128,1,1,1,1,0,0,1,0,0,0,0,1,1,0,0,1,1,1,1,1,1,2000,0,0,2500,0,       127P     89
500,2000,-2,0,2500,-1.99999999999997,500,0,1,0,1;                    127P     90
126,1,1,1,0,1,0,0,0,1,1,1,1,0,1,0,0,0,0,0,1,0,0,1;                   129P     91
126,1,1,1,0,1,0,0,0,1,1,1,1,1,1,0,0,1,0,0,1,0,0,1;                   131P     92
126,1,1,1,0,1,0,0,0,1,1,1,1,1,0,0,1,1,0,0,1,0,0,1;                   133P     93
126,1,1,1,0,1,0,0,0,1,1,1,1,0,0,0,1,0,0,0,1,0,0,1;                   135P     94
508,4,0,125,1,0,1,0,129,0,125,2,0,1,0,131,0,125,3,0,1,0,133,0,       137P     95
125,4,0,1,0,135;                                                     137P     96
510,127,1,1,137;                                                     139P     97
514,1,139,0;                                                         141P     98
186,141,1,0;                                                         143P     99
502,4,2500,3.06161699786857E-14,500,2500,1.53080849893421E-13,       145P    100
2500,2500,-1.99999999999985,2500,2500,-1.99999999999997,500;         145P    101
110,2500,3.06161699786857E-14,500,2500,1.53080849893421E-13,         147P    102
2500;                                                                147P    103
110,2500,1.53080849893421E-13,2500,2500,-1.99999999999985,2500;      149P    104
110,2500,-1.99999999999985,2500,2500,-1.99999999999997,500;          151P    105
110,2500,-1.99999999999997,500,2500,3.06161699786857E-14,500;        153P    106
504,4,147,145,1,145,2,149,145,2,145,3,151,145,3,145,4,153,145,4,     155P    107
145,1;                                                               155P    108
128,1,1,1,1,0,0,1,0,0,0,0,1,1,0,0,1,1,1,1,1,1,2500,0,500,2500,0,     157P    109
2500,2500,-1.99999999999997,500,2500,-1.99999999999985,2500,0,1,     157P    110
0,1;                                                                 157P    111
126,1,1,1,0,1,0,0,0,1,1,1,1,0,0,0,1,0,0,0,1,0,0,1;                   159P    112
126,1,1,1,0,1,0,0,0,1,1,1,1,1,0,0,1,1,0,0,1,0,0,1;                   161P    113
126,1,1,1,0,1,0,0,0,1,1,1,1,1,1,0,0,1,0,0,1,0,0,1;                   163P    114
126,1,1,1,0,1,0,0,0,1,1,1,1,0,1,0,0,0,0,0,1,0,0,1;                   165P    115
508,4,0,155,1,1,1,0,159,0,155,2,1,1,0,161,0,155,3,1,1,0,163,0,       167P    116
155,4,1,1,0,165;                                                     167P    117
510,157,1,1,167;                                                     169P    118
514,1,169,1;                                                         171P    119
186,171,1,0;                                                         173P    120
502,4,2500,-1.99999999999985,2500,2500,1.53080849893421E-13,         175P    121
2500,2000,-1.99999999999982,3000,2000,1.83697019872105E-13,3000;     175P    122
110,2500,-1.99999999999985,2500,2500,1.53080849893421E-13,2500;      177P    123
110,2000,-1.99999999999982,3000,2500,-1.99999999999985,2500;         179P    124
110,2000,1.83697019872105E-13,3000,2000,-1.99999999999982,3000;      181P    125
110,2500,1.53080849893421E-13,2500,2000,1.83697019872105E-13,        183P    126
3000;                                                                183P    127
504,4,177,175,1,175,2,179,175,3,175,1,181,175,4,175,3,183,175,2,     185P    128
175,4;                                                               185P    129
128,1,1,1,1,0,0,1,0,0,0,0,1,1,0,0,1,1,1,1,1,1,2500,0,2500,2000,      187P    130
0,3000,2500,-1.99999999999985,2500,2000,-1.99999999999982,3000,      187P    131
0,1,0,1;                                                             187P    132
126,1,1,1,0,1,0,0,0,1,1,1,1,0,1,0,0,0,0,0,1,0,0,1;                   189P    133
126,1,1,1,0,1,0,0,0,1,1,1,1,1,1,0,0,1,0,0,1,0,0,1;                   191P    134
126,1,1,1,0,1,0,0,0,1,1,1,1,1,0,0,1,1,0,0,1,0,0,1;                   193P    135
126,1,1,1,0,1,0,0,0,1,1,1,1,0,0,0,1,0,0,0,1,0,0,1;                   195P    136
508,4,0,185,1,0,1,0,189,0,185,2,0,1,0,191,0,185,3,0,1,0,193,0,       197P    137
185,4,0,1,0,195;                                                     197P    138
510,187,1,1,197;                                                     199P    139
514,1,199,0;                                                         201P    140
186,201,1,0;                                                         203P    141
502,4,2000,-1.99999999999982,3000,2000,1.83697019872105E-13,         205P    142
3000,-2000,-1.99999999999982,3000,-2000,1.83697019872105E-13,        205P    143
3000;                                                                205P    144
110,2000,-1.99999999999982,3000,2000,1.83697019872105E-13,3000;      207P    145
110,-2000,-1.99999999999982,3000,2000,-1.99999999999982,3000;        209P    146
110,-2000,1.83697019872105E-13,3000,-2000,-1.99999999999982,         211P    147
3000;                                                                211P    148
110,2000,1.83697019872105E-13,3000,-2000,1.83697019872105E-13,       213P    149
3000;                                                                213P    150
504,4,207,205,1,205,2,209,205,3,205,1,211,205,4,205,3,213,205,2,     215P    151
205,4;                                                               215P    152
128,1,1,1,1,0,0,1,0,0,0,0,1,1,0,0,1,1,1,1,1,1,2000,0,3000,-2000,     217P    153
0,3000,2000,-1.99999999999982,3000,-2000,-1.99999999999982,3000,     217P    154
0,1,0,1;                                                             217P    155
126,1,1,1,0,1,0,0,0,1,1,1,1,0,1,0,0,0,0,0,1,0,0,1;                   219P    156
126,1,1,1,0,1,0,0,0,1,1,1,1,1,1,0,0,1,0,0,1,0,0,1;                   221P    157
126,1,1,1,0,1,0,0,0,1,1,1,1,1,0,0,1,1,0,0,1,0,0,1;                   223P    158
126,1,1,1,0,1,0,0,0,1,1,1,1,0,0,0,1,0,0,0,1,0,0,1;                   225P    159
508,4,0,215,1,0,1,0,219,0,215,2,0,1,0,221,0,215,3,0,1,0,223,0,       227P    160
215,4,0,1,0,225;                                                     227P    161
510,217,1,1,227;                                                     229P    162
514,1,229,0;                                                         231P    163
186,231,1,0;                                                         233P    164
502,4,-2000,1.83697019872105E-13,3000,-2500,                         235P    165
1.53080849893421E-13,2500,-2500,-1.99999999999985,2500,-2000,        235P    166
-1.99999999999982,3000;                                              235P    167
110,-2000,1.83697019872105E-13,3000,-2500,1.53080849893421E-13,      237P    168
2500;                                                                237P    169
110,-2500,1.53080849893421E-13,2500,-2500,-1.99999999999985,         239P    170
2500;                                                                239P    171
110,-2500,-1.99999999999985,2500,-2000,-1.99999999999982,3000;       241P    172
110,-2000,-1.99999999999982,3000,-2000,1.83697019872105E-13,         243P    173
3000;                                                                243P    174
504,4,237,235,1,235,2,239,235,2,235,3,241,235,3,235,4,243,235,4,     245P    175
235,1;                                                               245P    176
128,1,1,1,1,0,0,1,0,0,0,0,1,1,0,0,1,1,1,1,1,1,-2000,0,3000,          247P    177
-2500,0,2500,-2000,-1.99999999999982,3000,-2500,                     247P    178
-1.99999999999985,2500,0,1,0,1;                                      247P    179
126,1,1,1,0,1,0,0,0,1,1,1,1,0,0,0,1,0,0,0,1,0,0,1;                   249P    180
126,1,1,1,0,1,0,0,0,1,1,1,1,1,0,0,1,1,0,0,1,0,0,1;                   251P    181
126,1,1,1,0,1,0,0,0,1,1,1,1,1,1,0,0,1,0,0,1,0,0,1;                   253P    182
126,1,1,1,0,1,0,0,0,1,1,1,1,0,1,0,0,0,0,0,1,0,0,1;                   255P    183
508,4,0,245,1,1,1,0,249,0,245,2,1,1,0,251,0,245,3,1,1,0,253,0,       257P    184
245,4,1,1,0,255;                                                     257P    185
510,247,1,1,257;                                                     259P    186
514,1,259,1;                                                         261P    187
186,261,1,0;                                                         263P    188
502,4,-2500,1.53080849893421E-13,2500,-2500,                         265P    189
3.06161699786855E-14,500,-2500,-1.99999999999997,500,-2500,          265P    190
-1.99999999999985,2500;                                              265P    191
110,-2500,1.53080849893421E-13,2500,-2500,3.06161699786855E-14,      267P    192
500;                                                                 267P    193
110,-2500,3.06161699786855E-14,500,-2500,-1.99999999999997,500;      269P    194
110,-2500,-1.99999999999997,500,-2500,-1.99999999999985,2500;        271P    195
110,-2500,-1.99999999999985,2500,-2500,1.53080849893421E-13,         273P    196
2500;                                                                273P    197
504,4,267,265,1,265,2,269,265,2,265,3,271,265,3,265,4,273,265,4,     275P    198
265,1;                                                               275P    199
128,1,1,1,1,0,0,1,0,0,0,0,1,1,0,0,1,1,1,1,1,1,-2500,0,2500,          277P    200
-2500,0,500,-2500,-1.99999999999985,2500,-2500,                      277P    201
-1.99999999999997,500,0,1,0,1;                                       277P    202
126,1,1,1,0,1,0,0,0,1,1,1,1,0,0,0,1,0,0,0,1,0,0,1;                   279P    203
126,1,1,1,0,1,0,0,0,1,1,1,1,1,0,0,1,1,0,0,1,0,0,1;                   281P    204
126,1,1,1,0,1,0,0,0,1,1,1,1,1,1,0,0,1,0,0,1,0,0,1;                   283P    205
126,1,1,1,0,1,0,0,0,1,1,1,1,0,1,0,0,0,0,0,1,0,0,1;                   285P    206
508,4,0,275,1,1,1,0,279,0,275,2,1,1,0,281,0,275,3,1,1,0,283,0,       287P    207
275,4,1,1,0,285;                                                     287P    208
510,277,1,1,287;                                                     289P    209
514,1,289,1;                                                         291P    210
186,291,1,0;                                                         293P    211
502,8,-2500,3.06161699786855E-14,500,-2000,1.74180487872799E-27,     295P    212
0,2000,1.84277907459628E-27,0,2500,3.06161699786857E-14,500,         295P    213
2500,1.53080849893421E-13,2500,2000,1.83697019872105E-13,3000,       295P    214
-2000,1.83697019872105E-13,3000,-2500,1.53080849893421E-13,2500;     295P    215
110,-2500,3.06161699786855E-14,500,-2000,1.74180487872799E-27,0;     297P    216
110,-2000,1.74180487872799E-27,0,2000,1.84277907459628E-27,0;        299P    217
110,2000,1.84277907459628E-27,0,2500,3.06161699786857E-14,500;       301P    218
110,2500,3.06161699786857E-14,500,2500,1.53080849893421E-13,         303P    219
2500;                                                                303P    220
110,2500,1.53080849893421E-13,2500,2000,1.83697019872105E-13,        305P    221
3000;                                                                305P    222
110,2000,1.83697019872105E-13,3000,-2000,1.83697019872105E-13,       307P    223
3000;                                                                307P    224
110,-2000,1.83697019872105E-13,3000,-2500,1.53080849893421E-13,      309P    225
2500;                                                                309P    226
110,-2500,1.53080849893421E-13,2500,-2500,3.06161699786855E-14,      311P    227
500;                                                                 311P    228
504,8,297,295,1,295,2,299,295,2,295,3,301,295,3,295,4,303,295,4,     313P    229
295,5,305,295,5,295,6,307,295,6,295,7,309,295,7,295,8,311,295,8,     313P    230
295,1;                                                               313P    231
128,1,1,1,1,0,0,1,0,0,0,0,1,1,0,0,1,1,1,1,1,1,-2500,0,0,2500,0,      315P    232
0,-2500,0,3000,2500,0,3000,0,1,0,1;                                  315P    233
126,1,1,1,0,1,0,0,0,1,1,1,1,0,0.166666666666667,0,0.1,0,0,0,1,0,     317P    234
0,1;                                                                 317P    235
126,1,1,1,0,1,0,0,0,1,1,1,1,0.1,0,0,0.9,0,0,0,1,0,0,1;               319P    236
126,1,1,1,0,1,0,0,0,1,1,1,1,0.9,0,0,1,0.166666666666667,0,0,1,0,     321P    237
0,1;                                                                 321P    238
126,1,1,1,0,1,0,0,0,1,1,1,1,1,0.166666666666667,0,1,                 323P    239
0.833333333333333,0,0,1,0,0,1;                                       323P    240
126,1,1,1,0,1,0,0,0,1,1,1,1,1,0.833333333333333,0,0.9,1,0,0,1,0,     325P    241
0,1;                                                                 325P    242
126,1,1,1,0,1,0,0,0,1,1,1,1,0.9,1,0,0.1,1,0,0,1,0,0,1;               327P    243
126,1,1,1,0,1,0,0,0,1,1,1,1,0.1,1,0,0,0.833333333333333,0,0,1,0,     329P    244
0,1;                                                                 329P    245
126,1,1,1,0,1,0,0,0,1,1,1,1,0,0.833333333333333,0,0,                 331P    246
0.166666666666667,0,0,1,0,0,1;                                       331P    247
508,8,0,313,1,1,1,0,317,0,313,2,1,1,0,319,0,313,3,1,1,0,321,0,       333P    248
313,4,1,1,0,323,0,313,5,1,1,0,325,0,313,6,1,1,0,327,0,313,7,1,1,     333P    249
0,329,0,313,8,1,1,0,331;                                             333P    250
510,315,1,1,333;                                                     335P    251
514,1,335,1;                                                         337P    252
186,337,1,0;                                                         339P    253
308,0,10HBaner_Beck,9,83,113,143,173,203,233,263,293,339;            341P    254
124,1,0,0,0,0,1,0,0,0,0,1,0;                                         343P    255
406,1,4HBann;                                                        345P    256
408,341,0,0,0,1,0,1,345;                                             347P    257
308,1,4HBann,2,53,347;                                               349P    258
124,-1,-1.22464679914735E-16,0,20511.1456402008,                     351P    259
1.22464679914735E-16,-1,0,3779.82080102622,0,0,1,12000;              351P    260
408,349,0,0,0,1;                                                     353P    261
124,-1,-1.22464679914735E-16,0,19496.624795478,                      355P    262
1.22464679914735E-16,-1,0,-8323.66196218362,0,0,1,12000;             355P    263
408,349,0,0,0,1;                                                     357P    264
124,-1,-1.22464679914735E-16,0,3952.70604543087,                     359P    265
1.22464679914735E-16,-1,0,-10042.8914083829,0,0,1,12000;             359P    266
408,349,0,0,0,1;                                                     361P    267
124,-1,-1.22464679914735E-16,0,3155.80998549463,                     363P    268
1.22464679914735E-16,-1,0,3779.82080102622,0,0,1,12000;              363P    269
408,349,0,0,0,1;                                                     365P    270
S      2G      3D    366P    270                                        T      1
