                                                                        S      1
,,9HI-DEAS 11,45HC:\mihara\offset_Test_Data\cylinder_Ideas.igs,,28HI-DEAG      1
S 3D IGES Translator 11,32,38,6,308,15,3HAny,1.0D0,2,2HMM,1,0.0D0,15H200G      2
50408.140222,.01D0,10000000.0D0,,,11,0,15H20050408.140222,;             G      3
     128       1       0       0       0       0       0       000010001D      1
     128       0     -45      13       2                      F1       1D      2
     502      14       0       0       0       0       0       000010000D      3
     502       0       0       1       1                               0D      4
     126      15       0       0       0       0       0       000010001D      5
     126       0     -45       7       2                      E3       3D      6
     504      22       0       0       0       0       0       000010001D      7
     504       0       0       1       1                               0D      8
     126      23       0       0       0       0       0       000010500D      9
     126       0       0       3       1                               0D     10
     126      26       0       0       0       0       0       000010001D     11
     126       0     -45       2       1                      E1       1D     12
     126      28       0       0       0       0       0       000010500D     13
     126       0       0       3       1                               0D     14
     126      31       0       0       0       0       0       000010001D     15
     126       0     -45       7       2                      E2       2D     16
     126      38       0       0       0       0       0       000010500D     17
     126       0       0       3       1                               0D     18
     126      41       0       0       0       0       0       000010500D     19
     126       0       0       2       1                               0D     20
     508      43       0       0       0       0       0       000010001D     21
     508       0       0       2       1                               0D     22
     510      45       0       0       0       0       0       000010001D     23
     510       0     -45       1       1                      F1       1D     24
     128      46       0       0       0       0       0       000010001D     25
     128       0     -45       4       1                      F2       2D     26
     126      50       0       0       0       0       0       000010500D     27
     126       0       0       9       2                               0D     28
     508      59       0       0       0       0       0       000010001D     29
     508       0       0       1       1                               0D     30
     510      60       0       0       0       0       0       000010001D     31
     510       0     -45       1       1                      F2       2D     32
     128      61       0       0       0       0       0       000010001D     33
     128       0     -45       4       1                      F3       3D     34
     126      65       0       0       0       0       0       000010500D     35
     126       0       0       9       2                               0D     36
     508      74       0       0       0       0       0       000010001D     37
     508       0       0       1       1                               0D     38
     510      75       0       0       0       0       0       000010001D     39
     510       0     -45       1       1                      F3       3D     40
     514      76       0       0       0       0       0       000010001D     41
     514       0       0       1       1                               0D     42
     186      77       0       0       0       0       0       000000001D     43
     186       0       0       1       0                               0D     44
     314      78       0       0       0       0       0       000000200D     45
     314       0       5       1       0                               0D     46
128,8,1,2,1,1,0,0,0,0,0.0D0,0.0D0,0.0D0,.33333333333333D0,             1P      1
.33333333333333D0,.66666666666667D0,.66666666666667D0,1.0D0,           1P      2
1.0D0,1.3333333333333D0,1.3333333333333D0,1.3333333333333D0,           1P      3
0.0D0,0.0D0,1.0D0,1.0D0,1.0D0,1.0D0,2.0D0,1.0D0,1.0D0,1.0D0,           1P      4
2.0D0,1.0D0,1.0D0,1.0D0,1.0D0,2.0D0,1.0D0,1.0D0,1.0D0,2.0D0,           1P      5
1.0D0,1.0D0,25.0D0,-75.0D0,0.0D0,25.0D0,-75.0D0,-25.0D0,0.0D0,         1P      6
-75.0D0,-25.0D0,-25.0D0,-75.0D0,-25.0D0,-25.0D0,-75.0D0,0.0D0,         1P      7
-25.0D0,-75.0D0,25.0D0,0.0D0,-75.0D0,25.0D0,25.0D0,-75.0D0,            1P      8
25.0D0,25.0D0,-75.0D0,0.0D0,25.0D0,75.0D0,0.0D0,25.0D0,75.0D0,         1P      9
-25.0D0,0.0D0,75.0D0,-25.0D0,-25.0D0,75.0D0,-25.0D0,-25.0D0,           1P     10
75.0D0,0.0D0,-25.0D0,75.0D0,25.0D0,0.0D0,75.0D0,25.0D0,25.0D0,         1P     11
75.0D0,25.0D0,25.0D0,75.0D0,0.0D0,0.0D0,1.3333333333333D0,0.0D0,       1P     12
1.0D0;                                                                 1P     13
502,2,25.0D0,-75.0D0,0.0D0,25.0D0,75.0D0,0.0D0;                        3P     14
126,6,2,1,1,0,0,0.0D0,0.0D0,0.0D0,.33333333333333D0,                   5P     15
.33333333333333D0,.66666666666667D0,.66666666666667D0,1.0D0,           5P     16
1.0D0,1.0D0,1.0D0,.5D0,1.0D0,.5D0,1.0D0,.5D0,1.0D0,25.0D0,             5P     17
-75.0D0,0.0D0,25.0D0,-75.0D0,-43.301270189222D0,-12.5D0,-75.0D0,       5P     18
-21.650635094611D0,-50.0D0,-75.0D0,3.1225022567583D-14,-12.5D0,        5P     19
-75.0D0,21.650635094611D0,25.0D0,-75.0D0,43.301270189222D0,            5P     20
25.0D0,-75.0D0,0.0D0,0.0D0,1.0D0,0.0D0,-1.0D0,0.0D0;                   5P     21
504,3,5,3,1,3,1,11,3,2,3,1,15,3,2,3,2;                                 7P     22
126,1,1,0,0,1,0,0.0D0,0.0D0,1.0D0,1.0D0,1.0D0,1.0D0,0.0D0,0.0D0,       9P     23
0.0D0,1.3333333333333D0,0.0D0,0.0D0,0.0D0,1.0D0,0.0D0,0.0D0,           9P     24
0.0D0;                                                                 9P     25
126,1,1,0,0,1,0,0.0D0,0.0D0,1.0D0,1.0D0,1.0D0,1.0D0,25.0D0,           11P     26
75.0D0,0.0D0,25.0D0,-75.0D0,0.0D0,0.0D0,1.0D0,0.0D0,0.0D0,0.0D0;      11P     27
126,1,1,0,0,1,0,0.0D0,0.0D0,1.0D0,1.0D0,1.0D0,1.0D0,                  13P     28
1.3333333333333D0,0.0D0,0.0D0,1.3333333333333D0,1.0D0,0.0D0,          13P     29
0.0D0,1.0D0,0.0D0,0.0D0,0.0D0;                                        13P     30
126,6,2,1,1,0,0,0.0D0,0.0D0,0.0D0,.33333333333333D0,                  15P     31
.33333333333333D0,.66666666666667D0,.66666666666667D0,1.0D0,          15P     32
1.0D0,1.0D0,1.0D0,.5D0,1.0D0,.5D0,1.0D0,.5D0,1.0D0,25.0D0,            15P     33
75.0D0,0.0D0,25.0D0,75.0D0,43.301270189222D0,-12.5D0,75.0D0,          15P     34
21.650635094611D0,-50.0D0,75.0D0,3.1225022567583D-14,-12.5D0,         15P     35
75.0D0,-21.650635094611D0,25.0D0,75.0D0,-43.301270189222D0,           15P     36
25.0D0,75.0D0,0.0D0,0.0D0,1.0D0,0.0D0,-1.0D0,0.0D0;                   15P     37
126,1,1,0,0,1,0,0.0D0,0.0D0,1.0D0,1.0D0,1.0D0,1.0D0,                  17P     38
1.3333333333333D0,1.0D0,0.0D0,0.0D0,1.0D0,0.0D0,0.0D0,1.0D0,          17P     39
0.0D0,0.0D0,0.0D0;                                                    17P     40
126,1,1,0,0,1,0,0.0D0,0.0D0,1.0D0,1.0D0,1.0D0,1.0D0,0.0D0,1.0D0,      19P     41
0.0D0,0.0D0,0.0D0,0.0D0,0.0D0,1.0D0,0.0D0,0.0D0,0.0D0;                19P     42
508,4,0,7,1,1,1,1,9,0,7,2,0,1,1,13,0,7,3,1,1,1,17,0,7,2,1,1,1,        21P     43
19;                                                                   21P     44
510,1,1,1,21;                                                         23P     45
128,1,1,1,1,0,0,1,0,0,0.0D0,0.0D0,1.0D0,1.0D0,0.0D0,0.0D0,1.0D0,      25P     46
1.0D0,1.0D0,1.0D0,1.0D0,1.0D0,-26.25D0,75.0D0,26.25D0,26.25D0,        25P     47
75.0D0,26.25D0,-26.25D0,75.0D0,-26.25D0,26.25D0,75.0D0,-26.25D0,      25P     48
0.0D0,1.0D0,0.0D0,1.0D0;                                              25P     49
126,6,2,1,1,0,0,0.0D0,0.0D0,0.0D0,.33333333333333D0,                  27P     50
.33333333333333D0,.66666666666667D0,.66666666666667D0,1.0D0,          27P     51
1.0D0,1.0D0,1.0D0,.5D0,1.0D0,.5D0,1.0D0,.5D0,1.0D0,                   27P     52
.97619047619048D0,.5D0,0.0D0,.97619047619048D0,                       27P     53
1.3247860988423D0,0.0D0,.26190476190476D0,.91239304942116D0,          27P     54
0.0D0,-.45238095238095D0,.5D0,0.0D0,.26190476190476D0,                27P     55
.087606950578839D0,0.0D0,.97619047619048D0,-.32478609884232D0,        27P     56
0.0D0,.97619047619048D0,.5D0,0.0D0,0.0D0,1.0D0,0.0D0,0.0D0,           27P     57
1.0D0;                                                                27P     58
508,1,0,7,3,0,1,0,27;                                                 29P     59
510,25,1,1,29;                                                        31P     60
128,1,1,1,1,0,0,1,0,0,0.0D0,0.0D0,1.0D0,1.0D0,0.0D0,0.0D0,1.0D0,      33P     61
1.0D0,1.0D0,1.0D0,1.0D0,1.0D0,26.25D0,-75.0D0,26.25D0,-26.25D0,       33P     62
-75.0D0,26.25D0,26.25D0,-75.0D0,-26.25D0,-26.25D0,-75.0D0,            33P     63
-26.25D0,0.0D0,1.0D0,0.0D0,1.0D0;                                     33P     64
126,6,2,1,1,0,0,0.0D0,0.0D0,0.0D0,.33333333333333D0,                  35P     65
.33333333333333D0,.66666666666667D0,.66666666666667D0,1.0D0,          35P     66
1.0D0,1.0D0,1.0D0,.5D0,1.0D0,.5D0,1.0D0,.5D0,1.0D0,                   35P     67
.023809523809524D0,.5D0,0.0D0,.023809523809524D0,                     35P     68
-.32478609884232D0,0.0D0,.73809523809524D0,.087606950578839D0,        35P     69
0.0D0,1.452380952381D0,.5D0,0.0D0,.73809523809524D0,                  35P     70
.91239304942116D0,0.0D0,.023809523809525D0,1.3247860988423D0,         35P     71
0.0D0,.023809523809524D0,.5D0,0.0D0,0.0D0,1.0D0,0.0D0,0.0D0,          35P     72
1.0D0;                                                                35P     73
508,1,0,7,1,0,1,0,35;                                                 37P     74
510,33,1,1,37;                                                        39P     75
514,3,23,1,31,1,39,1;                                                 41P     76
186,41,1,0;                                                           43P     77
314,100.0D0,66.0000026226044D0,0.0D0,13HGOLDEN_ORANGE;                45P     78
S      1G      3D     46P     78                                        T      1
