                                                                        S      1
,,9HI-DEAS 11,39HC:\mihara\offset_Test_Data\cylinder.igs,,28HI-DEAS 3D IG      1
GES Translator 11,32,38,6,308,15,3HAny,1.0D0,2,2HMM,1,0.0D0,15H20050408.G      2
140009,.01D0,10000000.0D0,,,11,0,15H20050408.140009,;                   G      3
     128       1       0       0       0       0       0       000010001D      1
     128       0     -33      13       3                      F1       1D      2
     502      14       0       0       0       0       0       000010000D      3
     502       0       0       1       1                               0D      4
     126      15       0       0       0       0       0       000010001D      5
     126       0     -33       7       2                      E3       3D      6
     504      22       0       0       0       0       0       000010001D      7
     504       0       0       1       1                               0D      8
     126      23       0       0       0       0       0       000010500D      9
     126       0       0       3       1                               0D     10
     126      26       0       0       0       0       0       000010001D     11
     126       0     -33       2       1                      E1       1D     12
     126      28       0       0       0       0       0       000010500D     13
     126       0       0       3       1                               0D     14
     126      31       0       0       0       0       0       000010500D     15
     126       0       0       2       1                               0D     16
     508      33       0       0       0       0       0       000010001D     17
     508       0       0       1       1                               0D     18
     510      34       0       0       0       0       0       000010001D     19
     510       0     -33       1       1                      F1       1D     20
     128      35       0       0       0       0       0       000010001D     21
     128       0     -33       4       1                      F2       2D     22
     126      39       0       0       0       0       0       000010500D     23
     126       0       0       9       2                               0D     24
     508      48       0       0       0       0       0       000010001D     25
     508       0       0       1       1                               0D     26
     510      49       0       0       0       0       0       000010001D     27
     510       0     -33       1       1                      F2       2D     28
     514      50       0       0       0       0       0       000010001D     29
     514       0       0       1       1                               0D     30
     186      51       0       0       0       0       0       000000001D     31
     186       0       0       1       0                               0D     32
     314      52       0       0       0       0       0       000000200D     33
     314       0       7       1       0                               0D     34
128,8,1,2,1,1,0,0,0,0,0.0D0,0.0D0,0.0D0,.33035042472811D0,             1P      1
.33035042472811D0,.66070084945621D0,.66070084945621D0,                 1P      2
.99105127418432D0,.99105127418432D0,1.3214016989124D0,                 1P      3
1.3214016989124D0,1.3214016989124D0,0.0D0,0.0D0,1.0D0,1.0D0,           1P      4
1.0D0,1.0D0,2.0D0,1.0D0,1.0D0,1.0D0,2.0D0,1.0D0,1.0D0,1.0D0,           1P      5
1.0D0,2.0D0,1.0D0,1.0D0,1.0D0,2.0D0,1.0D0,1.0D0,35.0D0,0.0D0,          1P      6
0.0D0,35.0D0,0.0D0,-35.0D0,0.0D0,0.0D0,-35.0D0,-35.0D0,0.0D0,          1P      7
-35.0D0,-35.0D0,0.0D0,0.0D0,-35.0D0,0.0D0,35.0D0,0.0D0,0.0D0,          1P      8
35.0D0,35.0D0,0.0D0,35.0D0,35.0D0,0.0D0,0.0D0,0.0D0,100.0D0,           1P      9
0.0D0,0.0D0,100.0D0,0.0D0,0.0D0,100.0D0,0.0D0,0.0D0,100.0D0,           1P     10
0.0D0,0.0D0,100.0D0,0.0D0,0.0D0,100.0D0,0.0D0,0.0D0,100.0D0,           1P     11
0.0D0,0.0D0,100.0D0,0.0D0,0.0D0,100.0D0,0.0D0,0.0D0,                   1P     12
1.3214016989124D0,0.0D0,1.0D0;                                         1P     13
502,2,35.0D0,0.0D0,0.0D0,0.0D0,100.0D0,0.0D0;                          3P     14
126,6,2,1,1,0,0,0.0D0,0.0D0,0.0D0,.33333333333333D0,                   5P     15
.33333333333333D0,.66666666666667D0,.66666666666667D0,1.0D0,           5P     16
1.0D0,1.0D0,1.0D0,.5D0,1.0D0,.5D0,1.0D0,.5D0,1.0D0,35.0D0,0.0D0,       5P     17
0.0D0,35.0D0,0.0D0,-60.621778264911D0,-17.5D0,0.0D0,                   5P     18
-30.310889132455D0,-70.0D0,0.0D0,2.7755575615629D-14,-17.5D0,          5P     19
0.0D0,30.310889132455D0,35.0D0,0.0D0,60.621778264911D0,35.0D0,         5P     20
0.0D0,0.0D0,0.0D0,1.0D0,0.0D0,-1.0D0,0.0D0;                            5P     21
504,2,5,3,1,3,1,11,3,2,3,1;                                            7P     22
126,1,1,0,0,1,0,0.0D0,0.0D0,1.0D0,1.0D0,1.0D0,1.0D0,0.0D0,0.0D0,       9P     23
0.0D0,1.3214016989124D0,0.0D0,0.0D0,0.0D0,1.0D0,0.0D0,0.0D0,           9P     24
0.0D0;                                                                 9P     25
126,1,1,0,0,1,0,0.0D0,0.0D0,1.0D0,1.0D0,1.0D0,1.0D0,0.0D0,            11P     26
100.0D0,0.0D0,35.0D0,0.0D0,0.0D0,0.0D0,1.0D0,0.0D0,0.0D0,0.0D0;       11P     27
126,1,1,0,0,1,0,0.0D0,0.0D0,1.0D0,1.0D0,1.0D0,1.0D0,                  13P     28
1.3214016989124D0,0.0D0,0.0D0,1.3214016989124D0,1.0D0,0.0D0,          13P     29
0.0D0,1.0D0,0.0D0,0.0D0,0.0D0;                                        13P     30
126,1,1,0,0,1,0,0.0D0,0.0D0,1.0D0,1.0D0,1.0D0,1.0D0,0.0D0,1.0D0,      15P     31
0.0D0,0.0D0,0.0D0,0.0D0,0.0D0,1.0D0,0.0D0,0.0D0,0.0D0;                15P     32
508,3,0,7,1,1,1,1,9,0,7,2,0,1,1,13,0,7,2,1,1,1,15;                    17P     33
510,1,1,1,17;                                                         19P     34
128,1,1,1,1,0,0,1,0,0,0.0D0,0.0D0,1.0D0,1.0D0,0.0D0,0.0D0,1.0D0,      21P     35
1.0D0,1.0D0,1.0D0,1.0D0,1.0D0,36.75D0,0.0D0,36.75D0,-36.75D0,         21P     36
0.0D0,36.75D0,36.75D0,0.0D0,-36.75D0,-36.75D0,0.0D0,-36.75D0,         21P     37
0.0D0,1.0D0,0.0D0,1.0D0;                                              21P     38
126,6,2,1,1,0,0,0.0D0,0.0D0,0.0D0,.33333333333333D0,                  23P     39
.33333333333333D0,.66666666666667D0,.66666666666667D0,1.0D0,          23P     40
1.0D0,1.0D0,1.0D0,.5D0,1.0D0,.5D0,1.0D0,.5D0,1.0D0,                   23P     41
.023809523809524D0,.5D0,0.0D0,.023809523809524D0,                     23P     42
-.32478609884232D0,0.0D0,.73809523809524D0,.087606950578839D0,        23P     43
0.0D0,1.452380952381D0,.5D0,0.0D0,.73809523809524D0,                  23P     44
.91239304942116D0,0.0D0,.023809523809524D0,1.3247860988423D0,         23P     45
0.0D0,.023809523809524D0,.5D0,0.0D0,0.0D0,1.0D0,0.0D0,0.0D0,          23P     46
1.0D0;                                                                23P     47
508,1,0,7,1,0,1,0,23;                                                 25P     48
510,21,1,1,25;                                                        27P     49
514,2,19,1,27,1;                                                      29P     50
186,29,1,0;                                                           31P     51
314,0.0D0,66.0000026226044D0,100.0D0,10HLIGHT_BLUE;                   33P     52
S      1G      3D     34P     52                                        T      1
