solid
 facet normal -1.000000e+00 -0.000000e+00 -0.000000e+00
   outer loop
     vertex  1.000000e+02  2.500000e+02 -2.500000e+02
     vertex  1.000000e+02  2.500000e+02 -3.000000e+02
     vertex  1.000000e+02  2.000000e+02 -3.000000e+02
   endloop
 endfacet
 facet normal -1.000000e+00  0.000000e+00  0.000000e+00
   outer loop
     vertex  1.000000e+02  2.000000e+02 -3.000000e+02
     vertex  1.000000e+02  2.000000e+02 -2.500000e+02
     vertex  1.000000e+02  2.500000e+02 -2.500000e+02
   endloop
 endfacet
 facet normal  1.000000e+00  0.000000e+00  0.000000e+00
   outer loop
     vertex  1.500000e+02  2.000000e+02 -3.000000e+02
     vertex  1.500000e+02  2.500000e+02 -3.000000e+02
     vertex  1.500000e+02  2.500000e+02 -2.500000e+02
   endloop
 endfacet
 facet normal  1.000000e+00  0.000000e+00  0.000000e+00
   outer loop
     vertex  1.500000e+02  2.500000e+02 -2.500000e+02
     vertex  1.500000e+02  2.000000e+02 -2.500000e+02
     vertex  1.500000e+02  2.000000e+02 -3.000000e+02
   endloop
 endfacet
 facet normal  0.000000e+00 -1.000000e+00  0.000000e+00
   outer loop
     vertex  1.000000e+02  2.000000e+02 -2.500000e+02
     vertex  1.000000e+02  2.000000e+02 -3.000000e+02
     vertex  1.500000e+02  2.000000e+02 -3.000000e+02
   endloop
 endfacet
 facet normal  0.000000e+00 -1.000000e+00  0.000000e+00
   outer loop
     vertex  1.500000e+02  2.000000e+02 -3.000000e+02
     vertex  1.500000e+02  2.000000e+02 -2.500000e+02
     vertex  1.000000e+02  2.000000e+02 -2.500000e+02
   endloop
 endfacet
 facet normal  0.000000e+00  1.000000e+00 -0.000000e+00
   outer loop
     vertex  1.500000e+02  2.500000e+02 -3.000000e+02
     vertex  1.000000e+02  2.500000e+02 -3.000000e+02
     vertex  1.000000e+02  2.500000e+02 -2.500000e+02
   endloop
 endfacet
 facet normal -0.000000e+00  1.000000e+00  0.000000e+00
   outer loop
     vertex  1.000000e+02  2.500000e+02 -2.500000e+02
     vertex  1.500000e+02  2.500000e+02 -2.500000e+02
     vertex  1.500000e+02  2.500000e+02 -3.000000e+02
   endloop
 endfacet
 facet normal  0.000000e+00  0.000000e+00 -1.000000e+00
   outer loop
     vertex  1.500000e+02  2.000000e+02 -3.000000e+02
     vertex  1.000000e+02  2.000000e+02 -3.000000e+02
     vertex  1.000000e+02  2.500000e+02 -3.000000e+02
   endloop
 endfacet
 facet normal  0.000000e+00  0.000000e+00 -1.000000e+00
   outer loop
     vertex  1.000000e+02  2.500000e+02 -3.000000e+02
     vertex  1.500000e+02  2.500000e+02 -3.000000e+02
     vertex  1.500000e+02  2.000000e+02 -3.000000e+02
   endloop
 endfacet
 facet normal -0.000000e+00  0.000000e+00  1.000000e+00
   outer loop
     vertex  1.000000e+02  2.500000e+02 -2.500000e+02
     vertex  1.000000e+02  2.000000e+02 -2.500000e+02
     vertex  1.500000e+02  2.000000e+02 -2.500000e+02
   endloop
 endfacet
 facet normal  0.000000e+00 -0.000000e+00  1.000000e+00
   outer loop
     vertex  1.500000e+02  2.000000e+02 -2.500000e+02
     vertex  1.500000e+02  2.500000e+02 -2.500000e+02
     vertex  1.000000e+02  2.500000e+02 -2.500000e+02
   endloop
 endfacet
endsolid
