solid
 facet normal -1.000000e+00 -0.000000e+00 -0.000000e+00
   outer loop
     vertex -1.000000e+02  5.000000e+01 -2.500000e+02
     vertex -1.000000e+02  5.000000e+01 -3.000000e+02
     vertex -1.000000e+02  0.000000e+00 -3.000000e+02
   endloop
 endfacet
 facet normal -1.000000e+00  0.000000e+00  0.000000e+00
   outer loop
     vertex -1.000000e+02  0.000000e+00 -3.000000e+02
     vertex -1.000000e+02  0.000000e+00 -2.500000e+02
     vertex -1.000000e+02  5.000000e+01 -2.500000e+02
   endloop
 endfacet
 facet normal  1.000000e+00  0.000000e+00  0.000000e+00
   outer loop
     vertex -5.000000e+01  0.000000e+00 -3.000000e+02
     vertex -5.000000e+01  5.000000e+01 -3.000000e+02
     vertex -5.000000e+01  5.000000e+01 -2.500000e+02
   endloop
 endfacet
 facet normal  1.000000e+00  0.000000e+00  0.000000e+00
   outer loop
     vertex -5.000000e+01  5.000000e+01 -2.500000e+02
     vertex -5.000000e+01  0.000000e+00 -2.500000e+02
     vertex -5.000000e+01  0.000000e+00 -3.000000e+02
   endloop
 endfacet
 facet normal  0.000000e+00 -1.000000e+00  0.000000e+00
   outer loop
     vertex -1.000000e+02  0.000000e+00 -2.500000e+02
     vertex -1.000000e+02  0.000000e+00 -3.000000e+02
     vertex -5.000000e+01  0.000000e+00 -3.000000e+02
   endloop
 endfacet
 facet normal  0.000000e+00 -1.000000e+00  0.000000e+00
   outer loop
     vertex -5.000000e+01  0.000000e+00 -3.000000e+02
     vertex -5.000000e+01  0.000000e+00 -2.500000e+02
     vertex -1.000000e+02  0.000000e+00 -2.500000e+02
   endloop
 endfacet
 facet normal  0.000000e+00  1.000000e+00 -0.000000e+00
   outer loop
     vertex -5.000000e+01  5.000000e+01 -3.000000e+02
     vertex -1.000000e+02  5.000000e+01 -3.000000e+02
     vertex -1.000000e+02  5.000000e+01 -2.500000e+02
   endloop
 endfacet
 facet normal -0.000000e+00  1.000000e+00  0.000000e+00
   outer loop
     vertex -1.000000e+02  5.000000e+01 -2.500000e+02
     vertex -5.000000e+01  5.000000e+01 -2.500000e+02
     vertex -5.000000e+01  5.000000e+01 -3.000000e+02
   endloop
 endfacet
 facet normal  0.000000e+00  0.000000e+00 -1.000000e+00
   outer loop
     vertex -5.000000e+01  0.000000e+00 -3.000000e+02
     vertex -1.000000e+02  0.000000e+00 -3.000000e+02
     vertex -1.000000e+02  5.000000e+01 -3.000000e+02
   endloop
 endfacet
 facet normal  0.000000e+00  0.000000e+00 -1.000000e+00
   outer loop
     vertex -1.000000e+02  5.000000e+01 -3.000000e+02
     vertex -5.000000e+01  5.000000e+01 -3.000000e+02
     vertex -5.000000e+01  0.000000e+00 -3.000000e+02
   endloop
 endfacet
 facet normal -0.000000e+00  0.000000e+00  1.000000e+00
   outer loop
     vertex -1.000000e+02  5.000000e+01 -2.500000e+02
     vertex -1.000000e+02  0.000000e+00 -2.500000e+02
     vertex -5.000000e+01  0.000000e+00 -2.500000e+02
   endloop
 endfacet
 facet normal  0.000000e+00 -0.000000e+00  1.000000e+00
   outer loop
     vertex -5.000000e+01  0.000000e+00 -2.500000e+02
     vertex -5.000000e+01  5.000000e+01 -2.500000e+02
     vertex -1.000000e+02  5.000000e+01 -2.500000e+02
   endloop
 endfacet
endsolid
