<?xml version="1.0" encoding="UTF-8" standalone="no"?>
<!-- Created with Inkscape (http://www.inkscape.org/) -->

<svg
   xmlns:dc="http://purl.org/dc/elements/1.1/"
   xmlns:cc="http://creativecommons.org/ns#"
   xmlns:rdf="http://www.w3.org/1999/02/22-rdf-syntax-ns#"
   xmlns:svg="http://www.w3.org/2000/svg"
   xmlns="http://www.w3.org/2000/svg"
   xmlns:sodipodi="http://sodipodi.sourceforge.net/DTD/sodipodi-0.dtd"
   xmlns:inkscape="http://www.inkscape.org/namespaces/inkscape"
   width="492.48849"
   height="306.85541"
   id="svg2"
   version="1.1"
   inkscape:version="0.48.4 r9939"
   sodipodi:docname="shape_heal.svg">
  <defs
     id="defs4">
    <clipPath
       id="clipEmfPath1"
       clipPathUnits="userSpaceOnUse">
      <rect
         id="rect3045"
         height="188.43307"
         width="602.36218"
         y="0"
         x="0" />
    </clipPath>
    <clipPath
       id="clipEmfPath2"
       clipPathUnits="userSpaceOnUse">
      <rect
         id="rect3048"
         height="168.77963"
         width="461.37103"
         y="13.50237"
         x="1.4999058" />
    </clipPath>
    <clipPath
       id="clipEmfPath1-1"
       clipPathUnits="userSpaceOnUse">
      <rect
         id="rect3221"
         height="352.24017"
         width="546.80316"
         y="0"
         x="0" />
    </clipPath>
    <clipPath
       id="clipEmfPath2-7"
       clipPathUnits="userSpaceOnUse">
      <rect
         id="rect3224"
         height="11.251283"
         width="140.71368"
         y="141.16611"
         x="0.60005832" />
    </clipPath>
    <clipPath
       id="clipEmfPath3"
       clipPathUnits="userSpaceOnUse">
      <rect
         id="rect3227"
         height="11.251283"
         width="140.86369"
         y="141.16611"
         x="177.31725" />
    </clipPath>
    <clipPath
       id="clipEmfPath4"
       clipPathUnits="userSpaceOnUse">
      <rect
         id="rect3230"
         height="11.251283"
         width="140.86369"
         y="140.86607"
         x="350.28406" />
    </clipPath>
    <clipPath
       id="clipEmfPath5"
       clipPathUnits="userSpaceOnUse">
      <rect
         id="rect3233"
         height="11.251283"
         width="140.71368"
         y="276.48154"
         x="175.06702" />
    </clipPath>
    <clipPath
       id="clipEmfPath6"
       clipPathUnits="userSpaceOnUse">
      <rect
         id="rect3236"
         height="11.251283"
         width="140.71368"
         y="214.07442"
         x="175.96712" />
    </clipPath>
    <clipPath
       id="clipEmfPath7"
       clipPathUnits="userSpaceOnUse">
      <rect
         id="rect3239"
         height="11.251283"
         width="140.86369"
         y="336.18835"
         x="174.01692" />
    </clipPath>
  </defs>
  <sodipodi:namedview
     id="base"
     pagecolor="#ffffff"
     bordercolor="#666666"
     borderopacity="1.0"
     inkscape:pageopacity="0.0"
     inkscape:pageshadow="2"
     inkscape:zoom="1"
     inkscape:cx="346.95854"
     inkscape:cy="41.972723"
     inkscape:document-units="px"
     inkscape:current-layer="layer1"
     showgrid="false"
     inkscape:window-width="915"
     inkscape:window-height="838"
     inkscape:window-x="132"
     inkscape:window-y="132"
     inkscape:window-maximized="0"
     fit-margin-top="0"
     fit-margin-left="0"
     fit-margin-right="0"
     fit-margin-bottom="0" />
  <metadata
     id="metadata7">
    <rdf:RDF>
      <cc:Work
         rdf:about="">
        <dc:format>image/svg+xml</dc:format>
        <dc:type
           rdf:resource="http://purl.org/dc/dcmitype/StillImage" />
        <dc:title></dc:title>
      </cc:Work>
    </rdf:RDF>
  </metadata>
  <g
     inkscape:label="Layer 1"
     inkscape:groupmode="layer"
     id="layer1"
     transform="translate(-28.041461,-50.336628)">
    <g
       id="g2989" />
    <g
       id="g3000" />
    <g
       id="g3011" />
    <g
       id="g3022" />
    <g
       id="g3033" />
    <g
       id="g3209" />
    <text
       xml:space="preserve"
       x="77.124359"
       y="50.336628"
       style="font-size:19.95194054px;font-style:normal;font-weight:bold;text-align:start;text-anchor:start;fill:#000000;font-family:Arial"
       id="text3245"> </text>
    <text
       xml:space="preserve"
       x="384.65424"
       y="50.336628"
       style="font-size:19.95194054px;font-style:normal;font-weight:bold;text-align:start;text-anchor:start;fill:#000000;font-family:Arial"
       id="text3249"> </text>
    <text
       xml:space="preserve"
       x="384.35422"
       y="74.039337"
       style="font-size:12.45121098px;font-style:normal;font-weight:normal;text-align:start;text-anchor:start;fill:#000000;font-family:Arial"
       id="text3253"> </text>
    <text
       xml:space="preserve"
       x="43.821121"
       y="95.941833"
       style="font-size:12.45121098px;font-style:normal;font-weight:normal;text-align:start;text-anchor:start;fill:#000000;font-family:Arial"
       id="text3255"> </text>
    <path
       inkscape:connector-curvature="0"
       style="fill:#ffffff;fill-opacity:1;fill-rule:evenodd;stroke:none"
       clip-path="url(#clipEmfPath1-1)"
       d="m -0.00937591,136.00926 0,21.24618 141.76378591,0 0,-21.24618 -141.76378591,0 z"
       id="path3257"
       transform="translate(28.519633,1.8811043)" />
    <path
       inkscape:connector-curvature="0"
       style="fill:none;stroke:#000000;stroke-width:0.93759114px;stroke-linecap:round;stroke-linejoin:miter;stroke-miterlimit:4;stroke-opacity:1;stroke-dasharray:none"
       d="m 28.510257,137.89036 0,21.24618 141.763783,0 0,-21.24618 z"
       id="path3259" />
    <text
       xml:space="preserve"
       x="74.574112"
       y="153.24837"
       style="font-size:11.25109386px;font-style:normal;font-weight:bold;text-align:start;text-anchor:start;fill:#000000;font-family:Arial"
       id="text3261">ShapeFix</text>
    <text
       xml:space="preserve"
       x="124.52896"
       y="153.24837"
       style="font-size:11.25109386px;font-style:normal;font-weight:bold;text-align:start;text-anchor:start;fill:#000000;font-family:Arial"
       id="text3263"> </text>
    <path
       inkscape:connector-curvature="0"
       style="fill:#ffffff;fill-opacity:1;fill-rule:evenodd;stroke:none"
       clip-path="url(#clipEmfPath2-7)"
       d="m 176.82969,136.00926 0,21.24618 141.76378,0 0,-21.24618 -141.76378,0 z"
       id="path3265"
       transform="translate(28.519633,1.8811043)" />
    <path
       inkscape:connector-curvature="0"
       style="fill:none;stroke:#000000;stroke-width:0.93759114px;stroke-linecap:round;stroke-linejoin:miter;stroke-miterlimit:4;stroke-opacity:1;stroke-dasharray:none"
       d="m 205.34932,137.89036 0,21.24618 141.76378,0 0,-21.24618 z"
       id="path3267" />
    <text
       xml:space="preserve"
       x="236.58987"
       y="153.24837"
       style="font-size:11.25109386px;font-style:normal;font-weight:bold;text-align:start;text-anchor:start;fill:#000000;font-family:Arial"
       id="text3269">ShapeUpgrade</text>
    <text
       xml:space="preserve"
       x="315.94757"
       y="153.24837"
       style="font-size:11.25109386px;font-style:normal;font-weight:bold;text-align:start;text-anchor:start;fill:#000000;font-family:Arial"
       id="text3271"> </text>
    <path
       inkscape:connector-curvature="0"
       style="fill:#ffffff;fill-opacity:1;fill-rule:evenodd;stroke:none"
       clip-path="url(#clipEmfPath3)"
       d="m 349.77776,135.82174 0,21.24617 141.76378,0 0,-21.24617 -141.76378,0 z"
       id="path3273"
       transform="translate(28.519633,1.8811043)" />
    <path
       inkscape:connector-curvature="0"
       style="fill:none;stroke:#000000;stroke-width:0.93759114px;stroke-linecap:round;stroke-linejoin:miter;stroke-miterlimit:4;stroke-opacity:1;stroke-dasharray:none"
       d="m 378.29739,137.70284 0,21.24617 141.76378,0 0,-21.24617 z"
       id="path3275" />
    <text
       xml:space="preserve"
       x="411.35684"
       y="152.94833"
       style="font-size:11.25109386px;font-style:normal;font-weight:bold;text-align:start;text-anchor:start;fill:#000000;font-family:Arial"
       id="text3277">ShapeCustom</text>
    <text
       xml:space="preserve"
       x="486.9642"
       y="152.94833"
       style="font-size:11.25109386px;font-style:normal;font-weight:bold;text-align:start;text-anchor:start;fill:#000000;font-family:Arial"
       id="text3279"> </text>
    <path
       inkscape:connector-curvature="0"
       style="fill:#ffffff;fill-opacity:1;fill-rule:evenodd;stroke:none"
       clip-path="url(#clipEmfPath4)"
       d="m 174.44821,271.3997 0,21.24618 141.76378,0 0,-21.24618 -141.76378,0 z"
       id="path3281"
       transform="translate(28.519633,1.8811043)" />
    <path
       inkscape:connector-curvature="0"
       style="fill:none;stroke:#000000;stroke-width:0.93759114px;stroke-linecap:round;stroke-linejoin:miter;stroke-miterlimit:4;stroke-opacity:1;stroke-dasharray:none"
       d="m 202.96784,273.2808 0,21.24618 141.76378,0 0,-21.24618 z"
       id="path3283" />
    <text
       xml:space="preserve"
       x="238.39005"
       y="288.56381"
       style="font-size:11.25109386px;font-style:normal;font-weight:bold;text-align:start;text-anchor:start;fill:#000000;font-family:Arial"
       id="text3285">ShapeExtend</text>
    <text
       xml:space="preserve"
       x="309.64694"
       y="288.56381"
       style="font-size:11.25109386px;font-style:normal;font-weight:bold;text-align:start;text-anchor:start;fill:#000000;font-family:Arial"
       id="text3287"> </text>
    <path
       inkscape:connector-curvature="0"
       style="fill:#ffffff;fill-opacity:1;fill-rule:evenodd;stroke:none"
       clip-path="url(#clipEmfPath5)"
       d="m 175.3858,208.95508 0,21.24617 141.76378,0 0,-21.24617 -141.76378,0 z"
       id="path3289"
       transform="translate(28.519633,1.8811043)" />
    <path
       inkscape:connector-curvature="0"
       style="fill:none;stroke:#000000;stroke-width:0.93759114px;stroke-linecap:round;stroke-linejoin:miter;stroke-miterlimit:4;stroke-opacity:1;stroke-dasharray:none"
       d="m 203.90543,210.83618 0,21.24617 141.76378,0 0,-21.24617 z"
       id="path3291" />
    <text
       xml:space="preserve"
       x="234.78969"
       y="226.15668"
       style="font-size:11.25109386px;font-style:normal;font-weight:bold;text-align:start;text-anchor:start;fill:#000000;font-family:Arial"
       id="text3293">ShapeAnalysis</text>
    <text
       xml:space="preserve"
       x="314.89746"
       y="226.15668"
       style="font-size:11.25109386px;font-style:normal;font-weight:bold;text-align:start;text-anchor:start;fill:#000000;font-family:Arial"
       id="text3295"> </text>
    <path
       inkscape:connector-curvature="0"
       style="fill:none;stroke:#000000;stroke-width:0.93759114px;stroke-linecap:round;stroke-linejoin:round;stroke-opacity:1;stroke-dasharray:none"
       clip-path="url(#clipEmfPath6)"
       d="m 74.257219,158.83061 0,182.75835"
       id="path3297"
       transform="translate(28.519633,1.8811043)" />
    <path
       inkscape:connector-curvature="0"
       style="fill:#000000;fill-opacity:1;fill-rule:nonzero;stroke:#000000;stroke-width:0.15001458px;stroke-linecap:butt;stroke-linejoin:bevel;stroke-opacity:1;stroke-dasharray:none"
       d="m 103.83926,342.96989 92.18396,0 c 0.35629,0 0.63756,0.28128 0.63756,0.63757 0,0.33754 -0.28127,0.61882 -0.63756,0.61882 l -92.18396,0 c -0.35628,0 -0.63756,-0.28128 -0.63756,-0.61882 0,-0.35629 0.28128,-0.63757 0.63756,-0.63757 z m 90.94634,-3.11286 7.50073,3.75043 -7.50073,3.75043 z"
       id="path3299" />
    <path
       inkscape:connector-curvature="0"
       style="fill:#000000;fill-opacity:1;fill-rule:nonzero;stroke:#000000;stroke-width:0.15001458px;stroke-linecap:butt;stroke-linejoin:bevel;stroke-opacity:1;stroke-dasharray:none"
       d="m 103.70507,285.15091 94.06852,0 c 0.3469,0 0.62818,0.28128 0.62818,0.62819 0,0.34692 -0.28128,0.6282 -0.62818,0.6282 l -94.06852,0 c -0.34691,0 -0.62819,-0.28128 -0.62819,-0.6282 0,-0.34691 0.28128,-0.62819 0.62819,-0.62819 z m 92.82152,-3.12223 7.50073,3.75042 -7.50073,3.75043 z"
       id="path3301" />
    <path
       inkscape:connector-curvature="0"
       style="fill:#000000;fill-opacity:1;fill-rule:nonzero;stroke:#000000;stroke-width:0.15001458px;stroke-linecap:butt;stroke-linejoin:bevel;stroke-opacity:1;stroke-dasharray:none"
       d="m 104.38951,221.9562 91.26512,0 c 0.34691,0 0.61881,0.28128 0.61881,0.6282 0,0.34691 -0.2719,0.62819 -0.61881,0.62819 l -91.26512,0 c -0.33753,0 -0.61881,-0.28128 -0.61881,-0.62819 0,-0.34692 0.28128,-0.6282 0.61881,-0.6282 z m 90.00875,-3.12223 7.50073,3.75043 -7.50073,3.75042 z"
       id="path3303" />
    <path
       inkscape:connector-curvature="0"
       style="fill:#000000;fill-opacity:1;fill-rule:nonzero;stroke:#000000;stroke-width:0.15001458px;stroke-linecap:butt;stroke-linejoin:bevel;stroke-opacity:1;stroke-dasharray:none"
       d="m 276.34372,233.58253 0,33.00376 c 0,0.34691 -0.2719,0.6282 -0.61881,0.6282 -0.3469,0 -0.62818,-0.28129 -0.62818,-0.6282 l 0,-33.00376 c 0,-0.33754 0.28128,-0.61882 0.62818,-0.61882 0.34691,0 0.61881,0.28128 0.61881,0.61882 z m 3.13156,31.75674 -3.75037,7.50086 -3.75036,-7.50086 z"
       id="path3305" />
    <path
       inkscape:connector-curvature="0"
       style="fill:none;stroke:#000000;stroke-width:0.93759114px;stroke-linecap:round;stroke-linejoin:round;stroke-opacity:1;stroke-dasharray:none"
       d="m 453.74242,160.71171 0,59.06924"
       id="path3307" />
    <path
       inkscape:connector-curvature="0"
       style="fill:#000000;fill-opacity:1;fill-rule:nonzero;stroke:#000000;stroke-width:0.15001458px;stroke-linecap:butt;stroke-linejoin:bevel;stroke-opacity:1;stroke-dasharray:none"
       d="m 452.98619,220.39977 -100.62228,0 c -0.35629,0 -0.63757,-0.28128 -0.63757,-0.61882 0,-0.35629 0.28128,-0.63757 0.63757,-0.63757 l 100.62228,0 c 0.35628,0 0.63756,0.28128 0.63756,0.63757 0,0.33754 -0.28128,0.61882 -0.63756,0.61882 z m -99.38466,3.13161 -7.50073,-3.75043 7.50073,-3.75043 z"
       id="path3309" />
    <path
       inkscape:connector-curvature="0"
       style="fill:#000000;fill-opacity:1;fill-rule:nonzero;stroke:#000000;stroke-width:0.15001458px;stroke-linecap:butt;stroke-linejoin:bevel;stroke-opacity:1;stroke-dasharray:none"
       d="m 275.65928,158.82712 0,47.18976 c 0,0.34692 -0.28127,0.6282 -0.62818,0.6282 -0.33754,0 -0.61881,-0.28128 -0.61881,-0.6282 l 0,-47.18976 c 0,-0.34691 0.28127,-0.62819 0.61881,-0.62819 0.34691,0 0.62818,0.28128 0.62818,0.62819 z m 3.12218,45.94274 -3.75036,7.50086 -3.75037,-7.50086 z"
       id="path3311" />
    <path
       inkscape:connector-curvature="0"
       style="fill:#ffffff;fill-opacity:1;fill-rule:evenodd;stroke:none"
       d="m 202.03025,332.9126 0,21.24618 141.76378,0 0,-21.24618 -141.76378,0 z"
       id="path3313" />
    <path
       inkscape:connector-curvature="0"
       style="fill:none;stroke:#000000;stroke-width:0.93759114px;stroke-linecap:round;stroke-linejoin:miter;stroke-miterlimit:4;stroke-opacity:1;stroke-dasharray:none"
       d="m 202.03025,332.9126 0,21.24618 141.76378,0 0,-21.24618 z"
       id="path3315" />
    <text
       xml:space="preserve"
       x="249.19109"
       y="348.2706"
       style="font-size:11.25109386px;font-style:normal;font-weight:bold;text-align:start;text-anchor:start;fill:#000000;font-family:Arial"
       id="text3317">Message</text>
    <text
       xml:space="preserve"
       x="296.7457"
       y="348.2706"
       style="font-size:11.25109386px;font-style:normal;font-weight:bold;text-align:start;text-anchor:start;fill:#000000;font-family:Arial"
       id="text3319"> </text>
    <path
       inkscape:connector-curvature="0"
       style="fill:#000000;fill-opacity:1;fill-rule:nonzero;stroke:#000000;stroke-width:0.15001458px;stroke-linecap:butt;stroke-linejoin:bevel;stroke-opacity:1;stroke-dasharray:none"
       clip-path="url(#clipEmfPath7)"
       d="m 174.31695,148.19815 -25.62437,0 c -0.34691,0 -0.62818,-0.28128 -0.62818,-0.62819 0,-0.34692 0.28127,-0.6282 0.62818,-0.6282 l 25.62437,0 c 0.34691,0 0.62818,0.28128 0.62818,0.6282 0,0.34691 -0.28127,0.62819 -0.62818,0.62819 z m -24.37737,3.12223 -7.50073,-3.75042 7.50073,-3.75043 z"
       id="path3321"
       transform="translate(28.519633,1.8811043)" />
    <path
       inkscape:connector-curvature="0"
       style="fill:#000000;fill-opacity:1;fill-rule:nonzero;stroke:#000000;stroke-width:0.15001458px;stroke-linecap:butt;stroke-linejoin:bevel;stroke-opacity:1;stroke-dasharray:none"
       d="m 277.91888,297.09602 0,33.00376 c 0,0.35629 -0.28128,0.61882 -0.63756,0.61882 -0.33754,0 -0.61881,-0.26253 -0.61881,-0.61882 l 0,-33.00376 c 0,-0.33754 0.28127,-0.61882 0.61881,-0.61882 0.35628,0 0.63756,0.28128 0.63756,0.61882 z m 3.1128,31.74737 -3.75036,7.50086 -3.75037,-7.50086 z"
       id="path3323" />
    <g
       id="g3389"
       transform="translate(103.61121,159.85132)">
      <text
         id="text3391"
         style="font-size:21.59645653px;font-style:normal;font-weight:normal;text-align:start;text-anchor:start;fill:#000000;font-family:Calibri"
         y="197.34073"
         x="-0.70423234"
         xml:space="preserve"> </text>
      <path
         id="path3393"
         d="m 0.74824682,0.41458137 0,183.67838863"
         style="fill:none;stroke:#000000;stroke-width:1.46715069px;stroke-linecap:round;stroke-linejoin:round;stroke-opacity:1;stroke-dasharray:none"
         inkscape:connector-curvature="0" />
    </g>
  </g>
</svg>
