DBRep_DrawableShape

CASCADE Topology V1, (c) Matra-Datavision
Locations 4
1
              1               0               0               0 
              0               1               0               0 
              0               0               1             150 
1
              1               0               0               0 
              0               1               0               0 
              0               0               1             100 
2  2 -1 0
2  1 -1 0
Curve2ds 0
Curves 8
1 -1.11022302462516e-014 125.848448110097 0 0 0 1 
1 100 125.848448110097 0 0 0 1 
1 1.30537458357867 125.848448110097 0 1 0 0 
1 100 -65.1164340301195 0 0 0 1 
1 100 125.848448110097 0 0 -1 0 
1 1.22124532708767e-014 -65.1164340301195 0 0 0 1 
1 124.17638341018 -65.1164340301195 0 -1 0 0 
1 1.22124532708767e-014 -65.1164340301195 0 -1.22460635382238e-016 1 0 
Polygon3D 0
PolygonOnTriangulations 29
2 1 2 
p 15.00000002 1 0 150 
2 3 4 
p 19.0964882340217 1 0 150 
2 3 4 
p 15.00000002 1 0 150 
2 1 2 
p 19.0964882340217 1 0 150 
2 2 4 
p 10.00000002 1 -1.30537458357868 98.6946254164213 
2 1 3 
p 10.00000002 1 -1.30537458357868 98.6946254164213 
2 2 4 
p 15.00000002 1 -1.30537458357868 98.6946254164213 
2 1 3 
p 15.00000002 1 -1.30537458357868 98.6946254164213 
2 3 4 
p 19.0964882340217 1 0 150 
2 1 2 
p 19.2212787220255 1 0 150 
2 2 3 
p 19.0964882340217 1 0 190.964882140217 
2 2 4 
p 23.1162989862332 1 0 190.964882140217 
2 1 3 
p 23.1162989862332 1 0 190.964882140217 
2 2 3 
p 23.1162989862332 1 0 190.964882140217 
2 2 4 
p 23.1162989862332 1 0 190.964882140217 
2 1 3 
p 23.1162989862332 1 0 190.964882140217 
2 3 4 
p 15.00000002 1 0 150 
2 1 2 
p 19.0964882340217 1 0 150 
2 1 3 
p 10.00000002 1 24.1763834101799 124.17638341018 
2 2 4 
p 10.00000002 1 24.1763834101799 124.17638341018 
2 2 4 
p 15.00000002 1 24.1763834101799 124.17638341018 
2 1 3 
p 15.00000002 1 24.1763834101799 124.17638341018 
2 4 1 
p 19.0964882340217 1 -1.4210854715202e-014 190.964882140217 
2 4 1 
p 23.1067507421662 1 -1.4210854715202e-014 190.964882140217 
2 2 4 
p 23.1067507421662 1 -1.4210854715202e-014 190.964882140217 
2 1 3 
p 23.1067507421662 1 -1.4210854715202e-014 190.964882140217 
2 4 1 
p 23.1067507421662 1 -1.4210854715202e-014 190.964882140217 
2 2 4 
p 23.1067507421662 1 -1.4210854715202e-014 190.964882140217 
2 1 3 
p 23.1067507421662 1 -1.4210854715202e-014 190.964882140217 
Surfaces 5
1 -1.11022302462516e-014 125.848448110097 0 0 1 0 1 0 0 0 0 -1 
1 100 125.848448110097 0 1 0 0 0 -1 0 0 0 -1 
1 100 -65.1164340301195 0 0 -1 0 -1 0 0 0 0 -1 
1 1.22124532708767e-014 -65.1164340301195 0 -1 -1.22460635382238e-016 0 -1.22460635382238e-016 1 0 0 0 -1 
1 0 0 0 0 0 1 1 0 0 0 1 0 
Triangulations 11
4 2 1 15.00000002
-1.11022302462516e-014 125.848448110097 0 -1.11022302462516e-014 125.848448110097 150 100 125.848448110097 0 100 125.848448110097 150 0 0 0 -150 100 0 100 -150 1 2 4 4 3 1 
4 2 1 21.1016194880939
1.22124532708767e-014 -65.1164340301195 0 1.22124532708767e-014 -65.1164340301195 150 -1.11022302462516e-014 125.848448110097 0 -1.11022302462516e-014 125.848448110097 150 0 0 0 -150 190.964882140217 0 190.964882140217 -150 1 2 4 4 3 1 
4 2 1 21.1063936101274
100 125.848448110097 0 100 125.848448110097 150 100 -65.1164340301195 0 100 -65.1164340301195 150 0 0 0 -150 190.964882140217 0 190.964882140217 -150 1 2 4 4 3 1 
4 2 1 10.00000002
-1.11022302462516e-014 125.848448110097 0 -1.11022302462516e-014 125.848448110097 100 100 125.848448110097 0 100 125.848448110097 100 0 0 0 -100 100 0 100 -100 1 2 4 4 3 1 
4 2 1 16.0553196955064
100 -65.1164340301195 0 100 -65.1164340301195 150 1.22124532708767e-014 -65.1164340301195 0 1.22124532708767e-014 -65.1164340301195 150 0 0 0 -150 100 0 100 -150 1 2 4 4 3 1 
4 2 1 20.0990538610578
-1.11022302462516e-014 125.848448110097 0 100 125.848448110097 0 100 -65.1164340301195 0 1.22124532708767e-014 -65.1164340301195 0 -1.11022302462516e-014 125.848448110097 100 125.848448110097 100 -65.1164340301195 1.22124532708767e-014 -65.1164340301195 1 4 3 3 2 1 
4 2 1 21.1063936101275
100 125.848448110097 0 100 125.848448110097 100 100 -65.1164340301195 0 100 -65.1164340301195 100 0 0 0 -100 190.964882140217 0 190.964882140217 -100 1 2 4 4 3 1 
4 2 1 21.1040065491107
-1.11022302462516e-014 125.848448110097 0 100 125.848448110097 0 100 -65.1164340301195 0 1.22124532708767e-014 -65.1164340301195 0 -1.11022302462516e-014 125.848448110097 100 125.848448110097 100 -65.1164340301195 1.22124532708767e-014 -65.1164340301195 1 4 3 3 2 1 
4 2 1 10.00000002
100 -65.1164340301195 0 100 -65.1164340301195 100 1.22124532708767e-014 -65.1164340301195 0 1.22124532708767e-014 -65.1164340301195 100 0 0 0 -100 100 0 100 -100 1 2 4 4 3 1 
4 2 1 20.0513126407227
-1.11022302462516e-014 125.848448110097 0 124.17638341018 125.848448110097 0 124.17638341018 -65.1164340301195 0 1.22124532708767e-014 -65.1164340301195 0 -1.11022302462516e-014 125.848448110097 124.17638341018 125.848448110097 124.17638341018 -65.1164340301195 1.22124532708767e-014 -65.1164340301195 1 4 2 3 2 4 
4 2 1 21.1016194880939
1.22124532708767e-014 -65.1164340301195 0 1.22124532708767e-014 -65.1164340301195 100 -1.11022302462516e-014 125.848448110097 0 -1.11022302462516e-014 125.848448110097 100 0 0 0 -100 190.964882140217 0 190.964882140217 -100 1 2 4 4 3 1 

TShapes 24
Ve
1e-007
-1.11022302462516e-014 125.848448110097 0
0 0

0101100
*
Ed
 1e-007 1 1 0
1  1 0 0 150
6  1 1 0
6  2 2 0
0

0101000
+24 0 -24 1 *
Ve
1e-007
100 125.848448110097 0
0 0

0101100
*
Ed
 1e-007 1 1 0
1  2 0 0 150
6  3 1 0
6  4 3 0
0

0101000
+22 0 -22 1 *
Ed
 1e-007 1 1 0
1  3 0 -1.30537458357868 98.6946254164213
6  5 4 3
6  6 4 0
6  7 1 4
6  8 1 0
0

0101000
+24 0 -22 0 *
Wi

0101000
+23 0 -21 0 -20 0 +20 1 *
Fa
0  1e-007 1 0
2  1
0101000
+19 0 *
Ve
1e-007
100 -65.1164340301195 0
0 0

0101100
*
Ed
 1e-007 1 1 0
1  4 0 0 150
6  9 3 0
6  10 5 0
0

0101000
+17 0 -17 1 *
Ed
 1e-007 1 1 0
1  5 0 0 190.964882140217
6  11 6 0
6  12 7 3
6  13 7 0
6  14 8 0
6  15 3 4
6  16 3 0
0

0101000
+22 0 -17 0 *
Wi

0101000
+21 0 -16 0 -15 0 +15 1 *
Fa
0  1e-007 2 0
2  3
0101000
+14 0 *
Ve
1e-007
1.22124532708767e-014 -65.1164340301195 0
0 0

0101100
*
Ed
 1e-007 1 1 0
1  6 0 0 150
6  17 5 0
6  18 2 0
0

0101000
+12 0 -12 1 *
Ed
 1e-007 1 1 0
1  7 0 24.1763834101799 124.17638341018
6  19 9 0
6  20 9 3
6  21 5 4
6  22 5 0
0

0101000
+17 0 -12 0 *
Wi

0101000
+16 0 -11 0 -10 0 +10 1 *
Fa
0  1e-007 3 0
2  5
0101000
+9 0 *
Ed
 1e-007 1 1 0
1  8 0 -1.4210854715202e-014 190.964882140217
6  23 10 0
6  24 6 0
6  25 11 3
6  26 11 0
6  27 8 0
6  28 2 4
6  29 2 0
0

0101000
+12 0 -24 0 *
Wi

0101000
+11 0 -23 0 -7 0 +7 1 *
Fa
0  1e-007 4 0
2  2
0101000
+6 0 *
Wi

0101100
+20 0 +15 0 +10 0 +7 0 *
Fa
0  1e-007 5 0
2  8
0111000
-4 0 *
Sh

0101000
-18 0 -13 0 -8 0 -5 0 +3 0 -3 1 *
So

0100000
-2 0 *

+1 0 