DBRep_DrawableShape

CASCADE Topology V1, (c) Matra-Datavision
Locations 1
1
              1               0               0               0 
              0               1               0               0 
              0               0               1               0 
Curve2ds 24
1 0 0 1 0 
1 0 0 1 0 
1 100 0 0 -1 
1 0 0 0 1 
1 0 -100 1 0 
1 0 0 1 0 
1 0 0 0 -1 
1 0 0 0 1 
1 0 0 1 0 
1 0 100 1 0 
1 100 0 0 -1 
1 100 0 0 1 
1 0 -100 1 0 
1 0 100 1 0 
1 0 0 0 -1 
1 100 0 0 1 
1 0 0 0 1 
1 0 0 1 0 
1 100 0 0 1 
1 0 0 1 0 
1 0 0 0 1 
1 0 100 1 0 
1 100 0 0 1 
1 0 100 1 0 
Curves 12
1 0 0 0 0 0 1 
1 0 0 100 0 1 0 
1 0 100 0 0 0 1 
1 0 0 0 0 1 0 
1 100 0 0 0 0 1 
1 100 0 100 0 1 0 
1 100 100 0 0 0 1 
1 100 0 0 0 1 0 
1 0 0 0 1 0 0 
1 0 0 100 1 0 0 
1 0 100 0 1 0 0 
1 0 100 100 1 0 0 
Polygon3D 0
PolygonOnTriangulations 24
2 1 2 
p 10.00000002 1 0 100 
2 1 4 
p 12.000000004 1 0 100 
2 2 3 
p 10.00000002 1 0 100 
2 1 2 
p 12.000000004 1 0 100 
2 4 3 
p 10.00000002 1 0 100 
2 1 4 
p 12.000000004 1 0 100 
2 1 4 
p 10.00000002 1 0 100 
2 1 2 
p 12.000000004 1 0 100 
2 1 2 
p 10.00000002 1 0 100 
2 2 3 
p 12.000000004 1 0 100 
2 2 3 
p 10.00000002 1 0 100 
2 4 3 
p 12.000000004 1 0 100 
2 4 3 
p 10.00000002 1 0 100 
2 2 3 
p 12.000000004 1 0 100 
2 1 4 
p 10.00000002 1 0 100 
2 4 3 
p 12.000000004 1 0 100 
2 1 2 
p 10.00000002 1 0 100 
2 1 4 
p 12.2000000024 1 0 100 
2 4 3 
p 10.00000002 1 0 100 
2 1 4 
p 12.2000000024 1 0 100 
2 1 2 
p 10.00000002 1 0 100 
2 2 3 
p 12.2000000024 1 0 100 
2 4 3 
p 10.00000002 1 0 100 
2 2 3 
p 12.2000000024 1 0 100 
Surfaces 6
1 0 0 0 1 0 0 0 0 1 0 -1 0 
1 0 0 0 0 1 0 0 0 1 1 0 0 
1 0 0 100 0 0 1 1 0 0 0 1 0 
1 0 100 0 0 1 0 0 0 1 1 0 0 
1 0 0 0 0 0 1 1 0 0 0 1 0 
1 100 0 0 1 0 0 0 0 1 0 -1 0 
Triangulations 6
4 2 1 10.00000002
0 0 0 0 0 100 0 100 100 0 100 0 0 0 100 0 100 -100 0 -100 1 4 3 3 2 1 
4 2 1 11.000000012
0 0 0 100 0 0 100 0 100 0 0 100 0 0 0 100 100 100 100 0 2 1 4 4 3 2 
4 2 1 12.1000000032
0 0 100 0 100 100 100 100 100 100 0 100 0 0 0 100 100 100 100 0 2 1 4 4 3 2 
4 2 1 11.000000012
0 100 0 100 100 0 100 100 100 0 100 100 0 0 0 100 100 100 100 0 2 1 4 4 3 2 
4 2 1 12.1000000032
0 0 0 0 100 0 100 100 0 100 0 0 0 0 0 100 100 100 100 0 2 1 4 4 3 2 
4 2 1 10.00000002
100 0 0 100 0 100 100 100 100 100 100 0 0 0 100 0 100 -100 0 -100 1 4 3 3 2 1 

TShapes 34
Ve
1e-007
0 0 100
0 0

0101101
*
Ve
1e-007
0 0 0
0 0

0101101
*
Ed
 1e-007 1 1 0
1  1 0 0 100
2  1 1 0 0 100
2  2 2 0 0 100
6  1 1 0
6  2 2 0
0

0101000
-34 0 +33 0 *
Ve
1e-007
0 100 100
0 0

0101101
*
Ed
 1e-007 1 1 0
1  2 0 0 100
2  3 1 0 0 100
2  4 3 0 0 100
6  3 1 0
6  4 3 0
0

0101000
-31 0 +34 0 *
Ve
1e-007
0 100 0
0 0

0101101
*
Ed
 1e-007 1 1 0
1  3 0 0 100
2  5 1 0 0 100
2  6 4 0 0 100
6  5 1 0
6  6 4 0
0

0101000
-31 0 +29 0 *
Ed
 1e-007 1 1 0
1  4 0 0 100
2  7 1 0 0 100
2  8 5 0 0 100
6  7 1 0
6  8 5 0
0

0101000
-29 0 +33 0 *
Wi

0101000
-32 0 -30 0 +28 0 +27 0 *
Fa
0  1e-007 1 0
2  1
0101000
+26 0 *
Ve
1e-007
100 0 100
0 0

0101101
*
Ve
1e-007
100 0 0
0 0

0101101
*
Ed
 1e-007 1 1 0
1  5 0 0 100
2  9 6 0 0 100
2  10 2 0 0 100
6  9 6 0
6  10 2 0
0

0101000
-24 0 +23 0 *
Ve
1e-007
100 100 100
0 0

0101101
*
Ed
 1e-007 1 1 0
1  6 0 0 100
2  11 6 0 0 100
2  12 3 0 0 100
6  11 6 0
6  12 3 0
0

0101000
-21 0 +24 0 *
Ve
1e-007
100 100 0
0 0

0101101
*
Ed
 1e-007 1 1 0
1  7 0 0 100
2  13 6 0 0 100
2  14 4 0 0 100
6  13 6 0
6  14 4 0
0

0101000
-21 0 +19 0 *
Ed
 1e-007 1 1 0
1  8 0 0 100
2  15 6 0 0 100
2  16 5 0 0 100
6  15 6 0
6  16 5 0
0

0101000
-19 0 +23 0 *
Wi

0101000
-22 0 -20 0 +18 0 +17 0 *
Fa
0  1e-007 6 0
2  6
0101000
+16 0 *
Ed
 1e-007 1 1 0
1  9 0 0 100
2  17 2 0 0 100
2  18 5 0 0 100
6  17 2 0
6  18 5 0
0

0101000
-23 0 +33 0 *
Ed
 1e-007 1 1 0
1  10 0 0 100
2  19 2 0 0 100
2  20 3 0 0 100
6  19 2 0
6  20 3 0
0

0101000
-24 0 +34 0 *
Wi

0101000
-14 0 -22 0 +13 0 +32 0 *
Fa
0  1e-007 2 0
2  2
0101000
+12 0 *
Ed
 1e-007 1 1 0
1  11 0 0 100
2  21 4 0 0 100
2  22 5 0 0 100
6  21 4 0
6  22 5 0
0

0101000
-19 0 +29 0 *
Ed
 1e-007 1 1 0
1  12 0 0 100
2  23 4 0 0 100
2  24 3 0 0 100
6  23 4 0
6  24 3 0
0

0101000
-21 0 +31 0 *
Wi

0101000
-10 0 -18 0 +9 0 +28 0 *
Fa
0  1e-007 4 0
2  4
0101000
+8 0 *
Wi

0101000
-27 0 -10 0 +17 0 +14 0 *
Fa
0  1e-007 5 0
2  5
0101000
+6 0 *
Wi

0101000
-30 0 -9 0 +20 0 +13 0 *
Fa
0  1e-007 3 0
2  3
0101000
+4 0 *
Sh

0101100
-25 0 +15 0 -11 0 +7 0 -5 0 +3 0 *
So

1100000
+2 0 *

+1 1 