DBRep_DrawableShape

CASCADE Topology V1, (c) Matra-Datavision
Locations 2
1
              1               0               0               0 
              0               1               0               0 
              0               0               1               0 
2  1 -1 0
Curve2ds 30
1 0 0 1 0 
1 0 0 1 0 
1 100 0 0 -1 
1 0 0 0 1 
1 0 -100 1 0 
1 0 0 1 0 
1 0 0 0 -1 
1 0 0 0 1 
1 0 0 1 0 
1 0 100 1 0 
1 100 0 0 -1 
1 100 0 0 1 
1 100 0 0 -1 
1 100 0 0 1 
1 100 0 0 -1 
1 100 0 0 1 
1 100 0 0 -1 
1 100 0 0 1 
1 0 -100 1 0 
1 0 100 1 0 
1 0 0 0 -1 
1 100 0 0 1 
1 0 0 0 1 
1 0 0 1 0 
1 100 0 0 1 
1 0 0 1 0 
1 0 0 0 1 
1 0 100 1 0 
1 100 0 0 1 
1 0 100 1 0 
Curves 15
1 0 0 0 0 0 1 
1 0 0 100 0 1 0 
1 0 100 0 0 0 1 
1 0 0 0 0 1 0 
1 100 0 0 0 0 1 
8 0 18
1 100 0 100 0 1 0 
8 18 39
1 100 0 100 0 1 0 
8 39 60
1 100 0 100 0 1 0 
8 60 100
1 100 0 100 0 1 0 
1 100 100 0 0 0 1 
1 100 0 0 0 1 0 
1 0 0 0 1 0 0 
1 0 0 100 1 0 0 
1 0 100 0 1 0 0 
1 0 100 100 1 0 0 
Polygon3D 0
PolygonOnTriangulations 68
2 1 2 
p 10.00000002 1 0 100 
2 1 4 
p 12.000000004 1 0 100 
2 1 4 
p 12.000000004 1 0 100 
2 1 4 
p 12.000000004 1 0 100 
2 1 4 
p 12.000000004 1 0 100 
2 1 4 
p 12.000000004 1 0 100 
2 2 3 
p 10.00000002 1 0 100 
2 1 2 
p 12.000000004 1 0 100 
2 1 2 
p 12.000000004 1 0 100 
2 1 2 
p 12.000000004 1 0 100 
2 1 2 
p 12.000000004 1 0 100 
2 1 2 
p 12.000000004 1 0 100 
2 1 2 
p 12.000000004 1 0 100 
2 1 2 
p 12.000000004 1 0 100 
2 4 3 
p 10.00000002 1 0 100 
2 1 4 
p 12.000000004 1 0 100 
2 1 4 
p 12.000000004 1 0 100 
2 1 4 
p 12.000000004 1 0 100 
2 1 4 
p 10.00000002 1 0 100 
2 1 2 
p 12.000000004 1 0 100 
2 1 2 
p 10.00000002 1 0 100 
2 2 3 
p 12.0426666715787 1 0 100 
2 1 2 
p 12.0426666715787 1 0 100 
2 1 2 
p 12.0426666715787 1 0 100 
2 2 3 
p 7.20000008 1 0 18 
2 4 5 
p 10.00000002 1 0 18 
2 2 3 
p 10.00000002 1 0 18 
2 3 4 
p 8.40000008 1 18 39 
2 5 6 
p 10.00000002 1 18 39 
2 3 4 
p 10.00000002 1 18 39 
2 4 5 
p 8.40000008 1 39 60 
2 6 7 
p 10.00000002 1 39 60 
2 4 5 
p 10.00000002 1 39 60 
2 5 6 
p 10.00000002 1 60 100 
2 7 3 
p 10.00000002 1 60 100 
2 5 6 
p 10.00000002 1 60 100 
2 5 4 
p 10.00000002 1 0 100 
2 2 3 
p 12.08000000336 1 0 100 
2 6 5 
p 12.08000000336 1 0 100 
2 7 6 
p 12.08000000336 1 0 100 
2 7 6 
p 12.08000000336 1 0 100 
2 1 4 
p 10.00000002 1 0 100 
2 4 3 
p 12.000000004 1 0 100 
2 1 5 
p 12.000000004 1 0 100 
2 1 6 
p 12.000000004 1 0 100 
2 1 7 
p 12.000000004 1 0 100 
2 1 4 
p 12.000000004 1 0 100 
2 1 5 
p 12.000000004 1 0 100 
2 1 6 
p 12.000000004 1 0 100 
2 1 7 
p 12.000000004 1 0 100 
2 1 7 
p 12.000000004 1 0 100 
2 1 2 
p 10.00000002 1 0 100 
2 1 4 
p 12.2000000024 1 0 100 
2 1 2 
p 12.2000000024 1 0 100 
2 1 2 
p 12.2000000024 1 0 100 
2 1 2 
p 12.2000000024 1 0 100 
2 1 2 
p 12.2000000024 1 0 100 
2 4 3 
p 10.00000002 1 0 100 
2 1 4 
p 12.3121333348989 1 0 100 
2 1 4 
p 12.3121333348989 1 0 100 
2 1 2 
p 10.00000002 1 0 100 
2 2 3 
p 12.2000000024 1 0 100 
2 1 2 
p 12.2000000024 1 0 100 
2 1 2 
p 12.2000000024 1 0 100 
2 4 3 
p 10.00000002 1 0 100 
2 2 3 
p 12.314000001488 1 0 100 
2 2 3 
p 12.314000001488 1 0 100 
2 2 3 
p 12.314000001488 1 0 100 
Surfaces 6
1 0 0 0 1 0 0 0 0 1 0 -1 0 
1 0 0 0 0 1 0 0 0 1 1 0 0 
1 0 0 100 0 0 1 1 0 0 0 1 0 
1 0 100 0 0 1 0 0 0 1 1 0 0 
1 0 0 0 0 0 1 1 0 0 0 1 0 
1 100 0 0 1 0 0 0 0 1 0 -1 0 
Triangulations 26
4 2 1 10.00000002
0 0 0 0 0 100 0 100 100 0 100 0 0 0 100 0 100 -100 0 -100 1 4 3 3 2 1 
4 2 1 11.000000012
0 0 0 100 0 0 100 0 100 0 0 100 0 0 0 100 100 100 100 0 2 1 4 4 3 2 
4 2 1 11.57000000744
0 0 0 100 0 0 100 0 100 0 0 100 0 0 0 100 100 100 100 0 2 1 4 4 3 2 
4 2 1 11.5806666744947
0 0 0 100 0 0 100 0 100 0 0 100 0 0 0 100 100 100 100 0 2 1 4 4 3 2 
4 2 1 11.57000000744
0 0 0 100 0 0 100 0 100 0 0 100 0 0 0 100 100 100 100 0 2 1 4 4 3 2 
4 2 1 11.5606666744947
0 0 0 100 0 0 100 0 100 0 0 100 0 0 0 100 100 100 100 0 2 1 4 4 3 2 
4 2 1 12.1000000032
0 0 100 0 100 100 100 100 100 100 0 100 0 0 0 100 100 100 100 0 2 1 4 4 3 2 
6 5 1 11.3256000093952
0 0 100 0 100 100 100 100 100 100 0 100 100 60 100 50 50 100 0 0 0 100 100 100 100 0 100 60 50 50 1 6 2 6 1 4 2 6 3 4 5 6 5 3 6 
7 6 1 11.1050222333978
0 0 100 0 100 100 100 100 100 100 0 100 100 36 100 100 60 100 50 50 100 0 0 0 100 100 100 100 0 100 36 100 60 50 50 1 7 2 7 1 4 2 7 3 4 5 7 6 3 7 5 6 7 
8 7 1 10.9471619171981
0 0 100 0 100 100 100 100 100 100 0 100 100 36 100 100 50.4 100 100 60 100 50 50 100 0 0 0 100 100 100 100 0 100 36 100 50.4 100 60 50 50 1 4 8 2 8 3 8 2 1 4 5 8 5 6 8 7 3 8 6 7 8 
6 5 1 11.3256000093952
0 0 100 0 100 100 100 100 100 100 0 100 100 60 100 50 50 100 0 0 0 100 100 100 100 0 100 60 50 50 1 6 2 6 1 4 2 6 3 4 5 6 5 3 6 
7 6 1 11.1043555667312
0 0 100 0 100 100 100 100 100 100 0 100 100 18 100 100 60 100 50 50 100 0 0 0 100 100 100 100 0 100 18 100 60 50 50 1 7 2 7 1 4 2 7 3 4 5 7 6 3 7 5 6 7 
8 7 1 10.9465904886267
0 0 100 0 100 100 100 100 100 100 0 100 100 18 100 100 39 100 100 60 100 50 50 100 0 0 0 100 100 100 100 0 100 18 100 39 100 60 50 50 1 4 8 2 8 3 8 2 1 4 5 8 5 6 8 7 3 8 6 7 8 
4 2 1 11.000000012
0 100 0 100 100 0 100 100 100 0 100 100 0 0 0 100 100 100 100 0 2 1 4 4 3 2 
4 2 1 11.57000000744
0 100 0 100 100 0 100 100 100 0 100 100 0 0 0 100 100 100 100 0 2 1 4 4 3 2 
4 2 1 11.57000000744
0 100 0 100 100 0 100 100 100 0 100 100 0 0 0 100 100 100 100 0 2 1 4 4 3 2 
4 2 1 12.1000000032
0 0 0 0 100 0 100 100 0 100 0 0 0 0 0 100 100 100 100 0 2 1 4 4 3 2 
8 7 1 10.8746666798484
100 0 0 100 0 100 100 18 100 100 39 100 100 60 100 100 100 100 100 100 0 100 50 50 0 0 100 0 100 -18 100 -39 100 -60 100 -100 0 -100 50 -50 7 6 8 1 8 2 8 1 7 6 5 8 5 4 8 3 2 8 4 3 8 
7 6 1 10.2133333578933
100 0 0 100 0 100 100 18 100 100 60 100 100 100 100 100 100 0 100 50 50 0 0 100 0 100 -18 100 -60 100 -100 0 -100 50 -50 6 7 1 7 6 5 1 7 2 5 4 7 3 2 7 4 3 7 
8 7 1 10.0175238484198
100 0 0 100 0 100 100 18 100 100 39 100 100 60 100 100 100 100 100 100 0 100 50 50 0 0 100 0 100 -18 100 -39 100 -60 100 -100 0 -100 50 -50 7 6 8 1 8 2 8 1 7 6 5 8 5 4 8 3 2 8 4 3 8 
6 5 1 10.4000000168
100 0 0 100 0 100 100 60 100 100 100 100 100 100 0 100 50 50 0 0 100 0 100 -60 100 -100 0 -100 50 -50 5 6 1 6 5 4 1 6 2 4 3 6 3 2 6 
4 2 1 10.00000002
100 0 0 100 0 100 100 100 100 100 100 0 0 0 100 0 100 -100 0 -100 1 4 3 3 2 1 
6 5 1 10.4000000168
100 0 0 100 0 100 100 60 100 100 100 100 100 100 0 100 50 50 0 0 100 0 100 -60 100 -100 0 -100 50 -50 5 6 1 6 5 4 1 6 2 4 3 6 3 2 6 
7 6 1 10.6133333578933
100 0 0 100 0 100 100 36 100 100 60 100 100 100 100 100 100 0 100 50 50 0 0 100 0 100 -36 100 -60 100 -100 0 -100 50 -50 6 7 1 7 6 5 1 7 2 5 4 7 3 2 7 4 3 7 
8 7 1 9.40038098270552
100 0 0 100 0 100 100 36 100 100 50.4 100 100 60 100 100 100 100 100 100 0 100 50 50 0 0 100 0 100 -36 100 -50.4 100 -60 100 -100 0 -100 50 -50 7 6 8 1 8 2 8 1 7 6 5 8 5 4 8 3 2 8 4 3 8 
4 2 1 12.000000004
100 0 0 100 0 100 100 100 100 100 100 0 0 0 100 0 100 -100 0 -100 1 4 3 3 2 1 

TShapes 41
Ve
1e-007
0 0 100
0 0

0101101
*
Ve
1e-007
0 0 0
0 0

0101101
*
Ed
 1e-007 1 1 0
1  1 0 0 100
2  1 1 0 0 100
2  2 2 0 0 100
6  1 1 0
6  2 2 0
6  3 3 0
6  4 4 0
6  5 5 0
6  6 6 0
0

0101000
-41 0 +40 0 *
Ve
1e-007
0 100 100
0 0

0101101
*
Ed
 1e-007 1 1 0
1  2 0 0 100
2  3 1 0 0 100
2  4 3 0 0 100
6  7 1 0
6  8 7 0
6  9 8 0
6  10 9 0
6  11 10 0
6  12 11 0
6  13 12 0
6  14 13 0
0

0101000
-38 0 +41 0 *
Ve
1e-007
0 100 0
0 0

0101101
*
Ed
 1e-007 1 1 0
1  3 0 0 100
2  5 1 0 0 100
2  6 4 0 0 100
6  15 1 0
6  16 14 0
6  17 15 0
6  18 16 0
0

0101000
-38 0 +36 0 *
Ed
 1e-007 1 1 0
1  4 0 0 100
2  7 1 0 0 100
2  8 5 0 0 100
6  19 1 0
6  20 17 0
0

0101000
-36 0 +40 0 *
Wi

0101000
-39 0 -37 0 +35 0 +34 0 *
Fa
0  1e-007 1 0
2  1
0111000
+33 0 *
Ve
1e-007
100 0 100
0 0

0101101
*
Ve
1e-007
100 0 0
0 0

0101101
*
Ed
 1e-007 1 1 0
1  5 0 0 100
2  9 6 0 0 100
2  10 2 0 0 100
6  21 19 0
6  22 6 0
6  23 20 0
6  24 18 0
0

0101000
-31 0 +30 0 *
Ve
1e-007
100 18 100
0 0

0101101
*
Ed
 1e-007 1 1 0
1  6 2 0 18
2  11 6 0 0 18
2  12 3 0 0 18
6  25 20 0
6  26 13 0
6  27 18 0
0

0101000
-28 2 +31 0 *
Ve
1e-007
100 39 100
0 0

0101101
*
Ed
 1e-007 1 1 0
1  7 2 18 39
2  13 6 0 18 39
2  14 3 0 18 39
6  28 20 0
6  29 13 0
6  30 18 0
0

0101000
-26 2 +28 2 *
Ve
1e-007
100 60 100
0 0

0101101
*
Ed
 1e-007 1 1 0
1  8 2 39 60
2  15 6 0 39 60
2  16 3 0 39 60
6  31 20 0
6  32 13 0
6  33 18 0
0

0101000
-24 2 +26 2 *
Ve
1e-007
100 100 100
0 0

0101101
*
Ed
 1e-007 1 1 0
1  9 2 60 100
2  17 6 0 60 100
2  18 3 0 60 100
6  34 20 0
6  35 13 0
6  36 18 0
0

0101000
-22 0 +24 2 *
Ve
1e-007
100 100 0
0 0

0101101
*
Ed
 1e-007 1 1 0
1  10 0 0 100
2  19 6 0 0 100
2  20 4 0 0 100
6  37 21 0
6  38 16 0
6  39 19 0
6  40 20 0
6  41 18 0
0

0101000
-22 0 +20 0 *
Ed
 1e-007 1 1 0
1  11 0 0 100
2  21 6 0 0 100
2  22 5 0 0 100
6  42 22 0
6  43 17 0
6  44 23 0
6  45 24 0
6  46 25 0
6  47 26 0
6  48 21 0
6  49 19 0
6  50 20 0
6  51 18 0
0

0101000
-20 0 +30 0 *
Wi

0101000
-29 0 -27 0 -25 0 -23 0 -21 0 +19 0 +18 0 *
Ve
1e-007
100 40 50
50 3 -40 6 1
0 0

0101101
*
Fa
0  1e-007 6 0
2  18
0101000
+17 0 i16 2 *
Ed
 1e-007 1 1 0
1  12 0 0 100
2  23 2 0 0 100
2  24 5 0 0 100
6  52 2 0
6  53 17 0
6  54 3 0
6  55 4 0
6  56 5 0
6  57 6 0
0

0101000
-30 0 +40 0 *
Ed
 1e-007 1 1 0
1  13 0 0 100
2  25 2 0 0 100
2  26 3 0 0 100
6  58 6 0
6  59 12 0
6  60 13 0
0

0101000
-31 0 +41 0 *
Wi

0101000
-14 0 -29 0 +13 0 +39 0 *
Fa
0  1e-007 2 0
2  6
0111000
+12 0 *
Ed
 1e-007 1 1 0
1  14 0 0 100
2  27 4 0 0 100
2  28 5 0 0 100
6  61 14 0
6  62 17 0
6  63 15 0
6  64 16 0
0

0101000
-20 0 +36 0 *
Ed
 1e-007 1 1 0
1  15 0 0 100
2  29 4 0 0 100
2  30 3 0 0 100
6  65 16 0
6  66 11 0
6  67 12 0
6  68 13 0
0

0101000
-22 0 +38 0 *
Wi

0101000
-10 0 -19 0 +9 0 +35 0 *
Fa
0  1e-007 4 0
2  16
0111000
+8 0 *
Wi

0101000
-34 0 -10 0 +18 0 +14 0 *
Fa
0  1e-007 5 0
2  17
0111000
+6 0 *
Wi

0101000
-37 0 -9 0 +27 0 +25 0 +23 0 +21 0 +13 0 *
Fa
0  1e-007 3 0
2  13
0111000
+4 0 *
Sh

0101000
-32 0 +15 0 -11 0 +7 0 -5 0 +3 0 *
So

1100000
+2 0 *

+1 1 