DBRep_DrawableShape

CASCADE Topology V1, (c) Matra-Datavision
Locations 0
Curve2ds 6
7 0 0  1 2 2  0 20.615528128088304  6.2831853071795862 20.615528128088304 
 0 2 6.2831853071795862 2
7 0 0  6 42 9  10 0  10.000000000000014 1.3089969389957508  9.7943840481854458 2.6179916916075574  9.3831467879003867 3.8866266572858565  8.7768750562430231 5.0744756997915754  7.996668423981812 6.1454671997491443  6.1454671997491417 7.9966684239818031  5.0744756997915816 8.7768750562430622  3.8866266572858463 9.3831467879003227  2.6179916916075667 9.7943840481855027  1.3089969389957523 9.9999999999999964  -1.3089969389957585 10.000000000000007  -2.6179916916075161 9.79438404818546  -3.8866266572859387 9.3831467879004098  -5.0744756997915026 8.776875056243  -6.145467199749171 7.9966684239818226  -7.9966684239817809 6.1454671997491426  -8.7768750562431421 5.0744756997915843  -9.3831467879002215 3.8866266572858383  -9.7943840481855808 2.6179916916075774  -9.9999999999999662 1.308996938995749  -10.000000000000044 -1.3089969389957532  -9.7943840481853872 -2.6179916916075414  -9.3831467879004489 -3.8866266572858779  -8.7768750562429751 -5.0744756997915514  -7.996668423981828 -6.1454671997491541  -6.1454671997491497 -7.996668423981804  -5.0744756997915905 -8.776875056243064  -3.8866266572858326 -9.3831467879003068  -2.6179916916075938 -9.7943840481855258  -1.3089969389957483 -9.9999999999999893  1.308996938995745 -10.000000000000016  2.6179916916075934 -9.7943840481854831  3.8866266572858255 -9.3831467879003512  5.0744756997915896 -8.7768750562430373  6.1454671997491443 -7.9966684239818067  7.9966684239818084 -6.1454671997491559  8.7768750562430444 -5.0744756997915861  9.3831467879003121 -3.8866266572858361  9.7943840481855275 -2.6179916916075929  9.9999999999999787 -1.3089969389957488  9.9999999999999982 -2.2204460492503131e-15 
 0 7 0.78539816339744828 5 1.5707963267948966 5 2.3561944901923448 5 3.1415926535897931 5 3.9269908169872414 5 4.7123889803846897 5 5.497787143782138 5 6.2831853071795862 7
7 0 0  1 2 2  6.2831853071795862 0  6.2831853071795862 20.615528128088304 
 0 2 20.615528128088304 2
7 0 0  1 2 2  0 0  0 20.615528128088304 
 0 2 20.615528128088304 2
7 0 0  1 2 2  0 0  6.2831853071795862 0 
 0 2 6.2831853071795862 2
7 0 0  6 42 9  5 0  5.0000000000000071 0.65449846949787538  4.8971920240927229 1.3089958458037787  4.6915733939501933 1.9433133286429283  4.3884375281215116 2.5372378498957877  3.998334211990906 3.0727335998745722  3.0727335998745708 3.9983342119909016  2.5372378498957908 4.3884375281215311  1.9433133286429232 4.6915733939501614  1.3089958458037834 4.8971920240927513  0.65449846949787616 4.9999999999999982  -0.65449846949787926 5.0000000000000036  -1.3089958458037581 4.89719202409273  -1.9433133286429694 4.6915733939502049  -2.5372378498957513 4.3884375281215  -3.0727335998745855 3.9983342119909113  -3.9983342119908905 3.0727335998745713  -4.3884375281215711 2.5372378498957922  -4.6915733939501107 1.9433133286429192  -4.8971920240927904 1.3089958458037887  -4.9999999999999831 0.65449846949787449  -5.0000000000000222 -0.6544984694978766  -4.8971920240926936 -1.3089958458037707  -4.6915733939502244 -1.9433133286429389  -4.3884375281214876 -2.5372378498957757  -3.998334211990914 -3.0727335998745771  -3.0727335998745748 -3.998334211990902  -2.5372378498957953 -4.388437528121532  -1.9433133286429163 -4.6915733939501534  -1.3089958458037969 -4.8971920240927629  -0.65449846949787416 -4.9999999999999947  0.65449846949787249 -5.000000000000008  1.3089958458037967 -4.8971920240927416  1.9433133286429127 -4.6915733939501756  2.5372378498957948 -4.3884375281215187  3.0727335998745722 -3.9983342119909033  3.9983342119909042 -3.0727335998745779  4.3884375281215222 -2.537237849895793  4.691573393950156 -1.9433133286429181  4.8971920240927638 -1.3089958458037965  4.9999999999999893 -0.65449846949787438  4.9999999999999991 -1.1102230246251565e-15 
 0 7 0.78539816339744828 5 1.5707963267948966 5 2.3561944901923448 5 3.1415926535897931 5 3.9269908169872414 5 4.7123889803846897 5 5.497787143782138 5 6.2831853071795862 7
Curves 3
7 0 0  6 42 9  10 0 20  10.000000000000014 1.3089969389957508 20.000000000000036  9.7943840481854458 2.6179916916075574 19.999999999999872  9.3831467879003867 3.8866266572858565 20.000000000000149  8.7768750562430231 5.0744756997915754 19.999999999999908  7.996668423981812 6.1454671997491443 20.000000000000028  6.1454671997491417 7.9966684239818031 19.999999999999968  5.0744756997915816 8.7768750562430622 20.000000000000053  3.8866266572858463 9.3831467879003227 19.999999999999947  2.6179916916075667 9.7943840481855027 20.000000000000014  1.3089969389957523 9.9999999999999964 20.000000000000011  -1.3089969389957585 10.000000000000007 20.000000000000007  -2.6179916916075161 9.79438404818546 19.999999999999932  -3.8866266572859387 9.3831467879004098 20.000000000000156  -5.0744756997915026 8.776875056243 19.999999999999876  -6.145467199749171 7.9966684239818226 20.000000000000043  -7.9966684239817809 6.1454671997491426 19.999999999999975  -8.7768750562431421 5.0744756997915843 20.000000000000107  -9.3831467879002215 3.8866266572858383 19.99999999999984  -9.7943840481855808 2.6179916916075774 20.000000000000128  -9.9999999999999662 1.308996938995749 19.999999999999943  -10.000000000000044 -1.3089969389957532 20.000000000000075  -9.7943840481853872 -2.6179916916075414 19.999999999999808  -9.3831467879004489 -3.8866266572858779 20.000000000000217  -8.7768750562429751 -5.0744756997915514 19.999999999999854  -7.996668423981828 -6.1454671997491541 20.000000000000039  -6.1454671997491497 -7.996668423981804 19.999999999999989  -5.0744756997915905 -8.776875056243064 20.000000000000057  -3.8866266572858326 -9.3831467879003068 19.999999999999929  -2.6179916916075938 -9.7943840481855258 20.000000000000046  -1.3089969389957483 -9.9999999999999893 19.999999999999993  1.308996938995745 -10.000000000000016 20.000000000000004  2.6179916916075934 -9.7943840481854831 20.000000000000075  3.8866266572858255 -9.3831467879003512 19.999999999999901  5.0744756997915896 -8.7768750562430373 20.000000000000071  6.1454671997491443 -7.9966684239818067 19.999999999999968  7.9966684239818084 -6.1454671997491559 20.000000000000039  8.7768750562430444 -5.0744756997915861 19.99999999999994  9.3831467879003121 -3.8866266572858361 20.00000000000005  9.7943840481855275 -2.6179916916075929 19.999999999999964  9.9999999999999787 -1.3089969389957488 20.000000000000004  9.9999999999999982 -2.2204460492503131e-15 20 
 0 7 0.78539816339744828 5 1.5707963267948966 5 2.3561944901923448 5 3.1415926535897931 5 3.9269908169872414 5 4.7123889803846897 5 5.497787143782138 5 6.2831853071795862 7
7 0 0  1 2 2  5 -1.2246467991473533e-15 0  10 -2.4492935982947065e-15 20 
 0 2 20.615528128088304 2
7 0 0  6 42 9  5 0 0  5.0000000000000071 0.65449846949787538 0  4.8971920240927229 1.3089958458037787 0  4.6915733939501933 1.9433133286429283 0  4.3884375281215116 2.5372378498957877 0  3.998334211990906 3.0727335998745722 0  3.0727335998745708 3.9983342119909016 0  2.5372378498957908 4.3884375281215311 0  1.9433133286429232 4.6915733939501614 0  1.3089958458037834 4.8971920240927513 0  0.65449846949787616 4.9999999999999982 0  -0.65449846949787926 5.0000000000000036 0  -1.3089958458037581 4.89719202409273 0  -1.9433133286429694 4.6915733939502049 0  -2.5372378498957513 4.3884375281215 0  -3.0727335998745855 3.9983342119909113 0  -3.9983342119908905 3.0727335998745713 0  -4.3884375281215711 2.5372378498957922 0  -4.6915733939501107 1.9433133286429192 0  -4.8971920240927904 1.3089958458037887 0  -4.9999999999999831 0.65449846949787449 0  -5.0000000000000222 -0.6544984694978766 0  -4.8971920240926936 -1.3089958458037707 0  -4.6915733939502244 -1.9433133286429389 0  -4.3884375281214876 -2.5372378498957757 0  -3.998334211990914 -3.0727335998745771 0  -3.0727335998745748 -3.998334211990902 0  -2.5372378498957953 -4.388437528121532 0  -1.9433133286429163 -4.6915733939501534 0  -1.3089958458037969 -4.8971920240927629 0  -0.65449846949787416 -4.9999999999999947 0  0.65449846949787249 -5.000000000000008 0  1.3089958458037967 -4.8971920240927416 0  1.9433133286429127 -4.6915733939501756 0  2.5372378498957948 -4.3884375281215187 0  3.0727335998745722 -3.9983342119909033 0  3.9983342119909042 -3.0727335998745779 0  4.3884375281215222 -2.537237849895793 0  4.691573393950156 -1.9433133286429181 0  4.8971920240927638 -1.3089958458037965 0  4.9999999999999893 -0.65449846949787438 0  4.9999999999999991 -1.1102230246251565e-15 0 
 0 7 0.78539816339744828 5 1.5707963267948966 5 2.3561944901923448 5 3.1415926535897931 5 3.9269908169872414 5 4.7123889803846897 5 5.497787143782138 5 6.2831853071795862 7
Polygon3D 0
PolygonOnTriangulations 0
Surfaces 3
9 0 0 0 0 13 3 14 4 2 2 5.000000000000016 -4.7410585162204783e-15 -1.7763568394002505e-15  6.6666666666666812 -5.9170825201810213e-15 6.6666666666666652  8.3333333333333481 -6.5174153556207311e-15 13.333333333333334  10.000000000000016 -7.693439359581275e-15 20  
5.000000000000175 2.4166097335303296 -6.487315710457947e-15  6.666666666668088 3.2221463113729767 6.6666666666660461  8.3333333333318365 4.0276828892169698 13.333333333333174  10.000000000000881 4.8332194670605322 20.000000000000547  
3.7346591591697851 4.8332204334314559 -3.7838417349761031e-15  4.9795455455542781 6.4442939112452828 6.6666666666693164  6.2244319319575512 8.0553673890536093 13.333333333333858  7.4693183183368683 9.6664408668634128 19.99999999999724  
1.2040528092064138 6.527062996321721 7.0249479650637495e-14  1.6054037456234873 8.7027506617540489 6.6666666666597507  2.0067546819894626 10.878438327199415 13.33333333333217  2.4081056184208731 13.054125992642485 20.000000000007908  
-2.1381058999111286 6.7754579723090833 -2.2858931472632683e-13  -2.8508078665783096 9.0339439630934919 6.6666666666794683  -3.5635098331439186 11.292429953855702 13.333333333334583  -4.2762117998398823 13.550915944619049 19.999999999982951  
-5.382106212866379 5.1723433787045865 4.7803298805231021e-13  -7.1761416171076968 6.8964578382521688 6.666666666649383  -8.9701770215060055 8.6205722978296571 13.33333333333516  -10.764212425702825 10.34468675740953 20.000000000030909  
-7.4184998980824766 1.9472383621565601 -7.5712765466041482e-13  -9.8913331975031547 2.5963178162321783 6.6666666666838266  -12.364166496730162 3.2453972702746978 13.333333333323912  -14.836999796205228 3.8944767243105991 19.99999999995326  
-7.4184998981023433 -1.9472383621578548 9.5925836893209481e-13  -9.8913331974088354 -2.5963178162324474 6.6666666666541605  -12.364166496908242 -3.2453972702763645 13.333333333351273  -14.836999796161541 -3.8944767243113856 20.000000000056694  
-5.3821062128506885 -5.1723433787013713 -9.8998590554918957e-13  -7.1761416171843599 -6.8964578382513908 6.6666666666731142  -8.9701770213626553 -8.6205722978254418 13.333333333311819  -10.764212425738144 -10.344686757407274 19.999999999946173  
-2.1381058999210154 -6.7754579723126502 8.2887380262244553e-13  -2.8508078665284722 -9.0339439630945169 6.6666666666645664  -3.5635098332360875 -11.292429953860518 13.333333333351373  -4.2762117998173075 -13.550915944622098 20.000000000039247  
1.2040528092113421 -6.5270629963191933 -5.4672609461490043e-13  1.6054037455984009 -8.702750661753246 6.6666666666669245  2.0067546820356656 -10.878438327195907 13.333333333322594  2.4081056184098921 -13.054125992639927 19.999999999978662  
3.7346591591679457 -4.8332204334325839 2.6223716229763976e-13  4.9795455455634334 -6.4442939112456239 6.6666666666667513  6.2244319319405825 -8.0553673890552169 13.333333333337691  7.4693183183406759 -9.6664408668646988 20.000000000008153  
5.0000000000005862 -2.4166097335300623 -7.1362868501139768e-14  6.6666666666660772 -3.2221463113729154 6.6666666666666252  8.3333333333356023 -4.0276828892165861 13.333333333332316  10.000000000000089 -4.8332194670602071 19.999999999998163  
5.0000000000000124 6.3040540572971405e-15 1.7763568394000394e-15  6.6666666666666758 4.6566978228048617e-15 6.6666666666666643  8.3333333333333481 4.6141574589543054e-15 13.333333333333336  10.000000000000016 2.966801224459821e-15 20.000000000000004  

0 14
6.2831853071795862 14

0 4
20.615528128088304 4

9 0 0 0 0 1 1 2 2 2 2 -10 -10 20  -10 10 20  
10 -10 20  10 10 20  

-10 2
10 2

-10 2
10 2

9 0 0 0 0 1 1 2 2 2 2 -5 -5 0  -5 5 0  
5 -5 0  5 5 0  

-5 2
5 2

-5 2
5 2

Triangulations 0

TShapes 13
Ve
1.92800775764733e-07
10 -2.44929359829471e-15 20
0 0

0101100
*
Ed
 1.92800775764733e-07 1 1 0
1  1 0 0 6.28318530717959
2  1 1 0 0 6.28318530717959
2  2 2 0 0 6.28318530717959
0

0101100
+13 0 -13 0 *
Ve
1e-07
5 -1.22464679914735e-15 0
0 0

0101100
*
Ed
 1e-07 1 1 0
1  2 0 0 20.6155281280883
3  3 4CN 1 0 0 20.6155281280883
0

0101000
-13 0 +11 0 *
Ed
 1e-07 1 1 0
1  3 0 0 6.28318530717959
2  5 1 0 0 6.28318530717959
2  6 3 0 0 6.28318530717959
0

0101100
+11 0 -11 0 *
Wi

0101100
-12 0 -10 0 +9 0 +10 0 *
Fa
0  1e-07 1 0

0111000
+8 0 *
Wi

0101000
+12 0 *
Fa
0  1e-07 2 0

0111000
+6 0 *
Wi

0101000
-9 0 *
Fa
0  1e-07 3 0

0111000
-4 0 *
Sh

0101000
+7 0 +5 0 -3 0 *
So

1100000
+2 0 *

+1 0 
0

