DBRep_DrawableShape

CASCADE Topology V1, (c) Matra-Datavision
Locations 5
1
              1               0               0 0.0099364842912816 
              0               1               0 -0.0011252910419594 
              0               0               1              -0 
2  1 -1 0
1
              1               0               0               0 
              0               1               0               0 
              0               0               1              10 
2  1 1 3 1 0
2  3 -1 1 -1 0
Curve2ds 4
1 0 0 0 -1 
1 1 0 0 -1 
1 0 0 1 0 
1 0 -10 1 0 
Curves 10
1 3.69821867604165 -3.02856312124115 -7.53745271593755 0 0 1 
1 6.23978677358399 0.238874703593623 -7.95415046846229 0 0 1 
1 3.68828219175037 -3.02743783019919 -7.53745271593755 0.610887591269115 0.785356577447227 -0.100156862439861 
1 3.68828219175037 -3.02743783019919 -7.53745271593755 0.610887591269115 0.785356577447227 -0.100156862439861 
1 7.05186032158919 12.3988743274883 -8.60476492575918 0 0 1 
7 0 0  8 86 13  6.22985028929271 0.239999994635582 -7.95415046846229  6.25263855282954 0.269296567217901 -7.95788667297671  6.27536875808139 0.29832172830026 -7.96202478008795  6.29804894521713 0.327236922443854 -7.96647208607112  6.32067831890632 0.35610360287945 -7.97119075698243  6.34325539038256 0.384958666713834 -7.97615951070398  6.36578611950676 0.413889890136258 -7.98133529898847  6.38829205683051 0.443111363624884 -7.98661498950397  6.42879389618175 0.496920219853689 -7.99593217410512  6.44677473767208 0.521210344657159 -8.00002589239855  6.46476884774834 0.545996380472199 -8.00404067960528  6.48278259869031 0.571369579449528 -8.00794054805891  6.50082089743953 0.597425366982028 -8.01169104558034  6.51888718559929 0.624263341704743 -8.0152592554778  6.53698343943465 0.651987275494878 -8.01861379654684  6.58953267975713 0.735240048220266 -8.02763263648565  6.62397759451568 0.793200504236812 -8.03264041855928  6.65862635848343 0.856649513757613 -8.03609747818179  6.69316193309185 0.921472998732223 -8.0402339899886  6.72762314286784 0.989405396238994 -8.04458328496599  6.76212725278275 1.06280378831817 -8.04830111930033  6.79649642180665 1.13972153804154 -8.05269008465858  6.85894865592345 1.29820405965201 -8.05914364350745  6.88604731767032 1.37599214409029 -8.0609160798516  6.91392444077926 1.45643240890874 -8.06322173227179  6.94109226195071 1.54498125649565 -8.06341011418973  6.9685195206766 1.64339320015365 -8.06324870219428  6.99673561487036 1.74989032546711 -8.06401424408931  7.02316078875121 1.86817761875515 -8.06150350981731  7.06002551326227 2.0903037960813 -8.05136729941199  7.07106692414124 2.1668924201963 -8.046945958966  7.08222584375338 2.25159890748041 -8.04221511012821  7.09307312405707 2.34451716008925 -8.03709567701129  7.10264720653762 2.44532684632349 -8.03097152292194  7.10991919717904 2.55356030094248 -8.02318342692528  7.11425794143566 2.66886942547794 -8.0135230604092  7.11735446264745 2.90042067155125 -7.9931033163435  7.11605191314639 2.99922741893228 -7.98334675194865  7.112761680692 3.09085839637077 -7.97362456882703  7.10809972747336 3.17769119018952 -7.96407885015283  7.10252374787748 3.26133540735407 -7.9548264639117  7.09633316848921 3.34263267547269 -7.94595906290072  7.08966914809128 3.42165664279636 -7.93754308472841  7.06554201437388 3.67813904010116 -7.91082347736038  7.04557791669702 3.82998030823028 -7.89345314002249  7.02452518665932 4.01509342833874 -7.88024981538103  7.00131913745395 4.17055794183658 -7.86667631947442  6.97721234578954 4.32866704007882 -7.85683919568657  6.95302211134474 4.5247121852183 -7.85386326854752  6.92708553249589 4.69565752131418 -7.85173300984944  6.86862802769879 5.11973686563716 -7.86102640996723  6.8294916757875 5.41767472938301 -7.87916763121308  6.80699190143058 5.58952400870754 -7.89828614091448  6.78769669014306 5.82561374975526 -7.9389630625743  6.77071435208001 6.04578897443008 -7.98151940444632  6.76327480643767 6.15544260729445 -8.01194436726084  6.76251315672908 6.32998712874641 -8.05922806732795  6.76079973639599 6.64026316921365 -8.14777884488782  6.76326005792098 6.79799023083855 -8.19635070067113  6.769159645723 6.95523674085 -8.24714440778288  6.77701568094253 7.1113867120807 -8.29812203358871  6.78575311108866 7.26374814917034 -8.34741335066216  6.79518541863752 7.41715614498545 -8.39589241776926  6.80508954406579 7.58485464008036 -8.44567732217765  6.81665847662599 7.87581167557618 -8.51830544478867  6.82097517013114 7.97388327823393 -8.54202476788758  6.8248374800517 8.07999971232461 -8.56564079364752  6.8277958648632 8.19770613832851 -8.58905494510507  6.82993880530001 8.32896481805427 -8.61214032727277  6.83189280435533 8.47415511463898 -8.6347417271391  6.8348223872812 8.6320734925481 -8.65667561366853  6.84763863108586 9.01571197481146 -8.70479502555245  6.85492840760714 9.28672051000726 -8.73058977582847  6.87870485514964 9.54802402066288 -8.75990907443367  6.89773306780128 9.84164326550232 -8.77780938155744  6.92028453200388 10.1735736128069 -8.78778612119723  6.95115464358024 10.5099549411447 -8.79135783134555  6.96225819488481 10.8290793208396 -8.7712337425669  6.97505855871115 11.3205732418413 -8.72315762050095  6.98061232653052 11.5154173515662 -8.70183454865981  6.98546751271823 11.6688268561843 -8.68172793048088  6.96287626349468 11.7738703499912 -8.64339028649416  6.99109528667019 11.9338231875939 -8.64229140458012  7.00580765146388 12.1021296905786 -8.62572366989169  7.02561851448482 12.2560212360894 -8.61626567255626  7.04192383729791 12.3999996185303 -8.60476492575918 
 0 9 0.0717297752009724 7 0.12896797153092 7 0.237662828869483 7 0.326718608340114 7 0.367055625089413 7 0.403012066677474 7 0.488310406638318 7 0.607216413822832 7 0.767208025973371 7 0.84495983018117 7 0.944907178315646 7 1 9
7 0 0  8 86 13  6.22985028929271 0.239999994635582 -7.95415046846229  6.25263855282954 0.269296567217901 -7.95788667297671  6.27536875808139 0.29832172830026 -7.96202478008795  6.29804894521713 0.327236922443854 -7.96647208607112  6.32067831890632 0.35610360287945 -7.97119075698243  6.34325539038256 0.384958666713834 -7.97615951070398  6.36578611950676 0.413889890136258 -7.98133529898847  6.38829205683051 0.443111363624884 -7.98661498950397  6.42879389618175 0.496920219853689 -7.99593217410512  6.44677473767208 0.521210344657159 -8.00002589239855  6.46476884774834 0.545996380472199 -8.00404067960528  6.48278259869031 0.571369579449528 -8.00794054805891  6.50082089743953 0.597425366982028 -8.01169104558034  6.51888718559929 0.624263341704743 -8.0152592554778  6.53698343943465 0.651987275494878 -8.01861379654684  6.58953267975713 0.735240048220266 -8.02763263648565  6.62397759451568 0.793200504236812 -8.03264041855928  6.65862635848343 0.856649513757613 -8.03609747818179  6.69316193309185 0.921472998732223 -8.0402339899886  6.72762314286784 0.989405396238994 -8.04458328496599  6.76212725278275 1.06280378831817 -8.04830111930033  6.79649642180665 1.13972153804154 -8.05269008465858  6.85894865592345 1.29820405965201 -8.05914364350745  6.88604731767032 1.37599214409029 -8.0609160798516  6.91392444077926 1.45643240890874 -8.06322173227179  6.94109226195071 1.54498125649565 -8.06341011418973  6.9685195206766 1.64339320015365 -8.06324870219428  6.99673561487036 1.74989032546711 -8.06401424408931  7.02316078875121 1.86817761875515 -8.06150350981731  7.06002551326227 2.0903037960813 -8.05136729941199  7.07106692414124 2.1668924201963 -8.046945958966  7.08222584375338 2.25159890748041 -8.04221511012821  7.09307312405707 2.34451716008925 -8.03709567701129  7.10264720653762 2.44532684632349 -8.03097152292194  7.10991919717904 2.55356030094248 -8.02318342692528  7.11425794143566 2.66886942547794 -8.0135230604092  7.11735446264745 2.90042067155125 -7.9931033163435  7.11605191314639 2.99922741893228 -7.98334675194865  7.112761680692 3.09085839637077 -7.97362456882703  7.10809972747336 3.17769119018952 -7.96407885015283  7.10252374787748 3.26133540735407 -7.9548264639117  7.09633316848921 3.34263267547269 -7.94595906290072  7.08966914809128 3.42165664279636 -7.93754308472841  7.06554201437388 3.67813904010116 -7.91082347736038  7.04557791669702 3.82998030823028 -7.89345314002249  7.02452518665932 4.01509342833874 -7.88024981538103  7.00131913745395 4.17055794183658 -7.86667631947442  6.97721234578954 4.32866704007882 -7.85683919568657  6.95302211134474 4.5247121852183 -7.85386326854752  6.92708553249589 4.69565752131418 -7.85173300984944  6.86862802769879 5.11973686563716 -7.86102640996723  6.8294916757875 5.41767472938301 -7.87916763121308  6.80699190143058 5.58952400870754 -7.89828614091448  6.78769669014306 5.82561374975526 -7.9389630625743  6.77071435208001 6.04578897443008 -7.98151940444632  6.76327480643767 6.15544260729445 -8.01194436726084  6.76251315672908 6.32998712874641 -8.05922806732795  6.76079973639599 6.64026316921365 -8.14777884488782  6.76326005792098 6.79799023083855 -8.19635070067113  6.769159645723 6.95523674085 -8.24714440778288  6.77701568094253 7.1113867120807 -8.29812203358871  6.78575311108866 7.26374814917034 -8.34741335066216  6.79518541863752 7.41715614498545 -8.39589241776926  6.80508954406579 7.58485464008036 -8.44567732217765  6.81665847662599 7.87581167557618 -8.51830544478867  6.82097517013114 7.97388327823393 -8.54202476788758  6.8248374800517 8.07999971232461 -8.56564079364752  6.8277958648632 8.19770613832851 -8.58905494510507  6.82993880530001 8.32896481805427 -8.61214032727277  6.83189280435533 8.47415511463898 -8.6347417271391  6.8348223872812 8.6320734925481 -8.65667561366853  6.84763863108586 9.01571197481146 -8.70479502555245  6.85492840760714 9.28672051000726 -8.73058977582847  6.87870485514964 9.54802402066288 -8.75990907443367  6.89773306780128 9.84164326550232 -8.77780938155744  6.92028453200388 10.1735736128069 -8.78778612119723  6.95115464358024 10.5099549411447 -8.79135783134555  6.96225819488481 10.8290793208396 -8.7712337425669  6.97505855871115 11.3205732418413 -8.72315762050095  6.98061232653052 11.5154173515662 -8.70183454865981  6.98546751271823 11.6688268561843 -8.68172793048088  6.96287626349468 11.7738703499912 -8.64339028649416  6.99109528667019 11.9338231875939 -8.64229140458012  7.00580765146388 12.1021296905786 -8.62572366989169  7.02561851448482 12.2560212360894 -8.61626567255626  7.04192383729791 12.3999996185303 -8.60476492575918 
 0 9 0.0717297752009724 7 0.12896797153092 7 0.237662828869483 7 0.326718608340114 7 0.367055625089413 7 0.403012066677474 7 0.488310406638318 7 0.607216413822832 7 0.767208025973371 7 0.84495983018117 7 0.944907178315646 7 1 9
1 9.41954777190761 33.3059004029722 -6.93474746134565 0 0 1 
1 7.04192383729791 12.3999996185303 -8.60476492575918 0.112176317813435 0.990533273833013 0.0791221027998621 
1 7.04192383729791 12.3999996185303 -8.60476492575918 0.112176317813435 0.990533273833013 0.0791221027998621 
Polygon3D 0
PolygonOnTriangulations 0
Surfaces 3
1 3.69821867604165 -3.02856312124115 -7.53745271593755 -0.789325575325103 0.613974866047215 0 0.610887591269115 0.785356577447227 -0.100156862439861 -0.0614937962002232 -0.0790563730681007 -0.994971659348246 
6 -0 -0 -1 
7 0 0  8 86 13  6.23978677358399 0.238874703593623 -7.95415046846229  6.26257503712082 0.268171276175942 -7.95788667297671  6.28530524237267 0.297196437258301 -7.96202478008795  6.30798542950841 0.326111631401895 -7.96647208607112  6.3306148031976 0.354978311837491 -7.97119075698243  6.35319187467384 0.383833375671875 -7.97615951070398  6.37572260379804 0.412764599094299 -7.98133529898847  6.39822854112179 0.441986072582925 -7.98661498950397  6.43873038047303 0.495794928811729 -7.99593217410512  6.45671122196336 0.5200850536152 -8.00002589239855  6.47470533203962 0.544871089430239 -8.00404067960528  6.4927190829816 0.570244288407569 -8.00794054805891  6.51075738173081 0.596300075940069 -8.01169104558034  6.52882366989057 0.623138050662784 -8.0152592554778  6.54691992372593 0.650861984452919 -8.01861379654684  6.59946916404841 0.734114757178306 -8.02763263648565  6.63391407880696 0.792075213194853 -8.03264041855928  6.66856284277471 0.855524222715654 -8.03609747818179  6.70309841738313 0.920347707690264 -8.0402339899886  6.73755962715912 0.988280105197035 -8.04458328496599  6.77206373707403 1.06167849727621 -8.04830111930033  6.80643290609793 1.13859624699958 -8.05269008465858  6.86888514021473 1.29707876861005 -8.05914364350745  6.8959838019616 1.37486685304833 -8.0609160798516  6.92386092507054 1.45530711786678 -8.06322173227179  6.95102874624199 1.54385596545369 -8.06341011418973  6.97845600496788 1.64226790911169 -8.06324870219428  7.00667209916164 1.74876503442515 -8.06401424408931  7.03309727304249 1.86705232771319 -8.06150350981731  7.06996199755355 2.08917850503934 -8.05136729941199  7.08100340843252 2.16576712915434 -8.046945958966  7.09216232804467 2.25047361643845 -8.04221511012821  7.10300960834835 2.34339186904729 -8.03709567701129  7.11258369082891 2.44420155528153 -8.03097152292194  7.11985568147032 2.55243500990052 -8.02318342692528  7.12419442572695 2.66774413443598 -8.0135230604092  7.12729094693873 2.89929538050929 -7.9931033163435  7.12598839743767 2.99810212789032 -7.98334675194865  7.12269816498328 3.08973310532881 -7.97362456882703  7.11803621176464 3.17656589914756 -7.96407885015283  7.11246023216876 3.26021011631211 -7.9548264639117  7.10626965278049 3.34150738443073 -7.94595906290072  7.09960563238257 3.4205313517544 -7.93754308472841  7.07547849866516 3.6770137490592 -7.91082347736038  7.0555144009883 3.82885501718832 -7.89345314002249  7.0344616709506 4.01396813729678 -7.88024981538103  7.01125562174523 4.16943265079462 -7.86667631947442  6.98714883008082 4.32754174903686 -7.85683919568657  6.96295859563602 4.52358689417634 -7.85386326854752  6.93702201678717 4.69453223027222 -7.85173300984944  6.87856451199008 5.1186115745952 -7.86102640996723  6.83942816007878 5.41654943834105 -7.87916763121308  6.81692838572186 5.58839871766558 -7.89828614091448  6.79763317443434 5.8244884587133 -7.9389630625743  6.78065083637129 6.04466368338812 -7.98151940444632  6.77321129072895 6.15431731625249 -8.01194436726084  6.77244964102036 6.32886183770445 -8.05922806732795  6.77073622068727 6.63913787817169 -8.14777884488782  6.77319654221226 6.79686493979659 -8.19635070067113  6.77909613001429 6.95411144980804 -8.24714440778288  6.78695216523381 7.11026142103874 -8.29812203358871  6.79568959537994 7.26262285812838 -8.34741335066216  6.8051219029288 7.41603085394349 -8.39589241776926  6.81502602835707 7.5837293490384 -8.44567732217765  6.82659496091727 7.87468638453422 -8.51830544478867  6.83091165442242 7.97275798719197 -8.54202476788758  6.83477396434298 8.07887442128266 -8.56564079364752  6.83773234915448 8.19658084728655 -8.58905494510507  6.83987528959129 8.32783952701231 -8.61214032727277  6.84182928864661 8.47302982359702 -8.6347417271391  6.84475887157248 8.63094820150614 -8.65667561366853  6.85757511537714 9.0145866837695 -8.70479502555245  6.86486489189842 9.2855952189653 -8.73058977582847  6.88864133944092 9.54689872962092 -8.75990907443367  6.90766955209256 9.84051797446037 -8.77780938155744  6.93022101629516 10.1724483217649 -8.78778612119723  6.96109112787152 10.5088296501027 -8.79135783134555  6.97219467917609 10.8279540297976 -8.7712337425669  6.98499504300243 11.3194479507993 -8.72315762050095  6.9905488108218 11.5142920605242 -8.70183454865981  6.99540399700951 11.6677015651424 -8.68172793048088  6.97281274778596 11.7727450589493 -8.64339028649416  7.00103177096148 11.932697896552 -8.64229140458012  7.01574413575516 12.1010043995367 -8.62572366989169  7.0355549987761 12.2548959450475 -8.61626567255626  7.05186032158919 12.3988743274883 -8.60476492575918 
 0 9 0.0717297752009724 7 0.12896797153092 7 0.237662828869483 7 0.326718608340114 7 0.367055625089413 7 0.403012066677474 7 0.488310406638318 7 0.607216413822832 7 0.767208025973371 7 0.84495983018117 7 0.944907178315646 7 1 9
1 7.05186032158919 12.3988743274883 -8.60476492575918 -0.99364842912816 0.11252910419594 0 0.112176317813435 0.990533273833013 0.0791221027998621 0.00890353935016754 0.0786195531563998 -0.996864932098892 
Triangulations 0

TShapes 25
Ve
1e-07
3.69821867604165 -3.02856312124115 -7.53745271593755
0 0

0101100
*
Ve
1e-07
3.69821867604165 -3.02856312124115 2.46254728406245
0 0

0101100
*
Ed
 1e-07 1 1 0
1  1 0 0 10
0

0101000
+25 0 -24 0 *
Ve
1.9621881513958e-06
6.23978677358399 0.238874703593623 -7.95415046846229
0 0

0101100
*
Ve
1.9621881513958e-06
6.23978677358399 0.238874703593623 2.04584953153771
0 0

0101100
*
Ed
 1.9621881513958e-06 1 1 0
1  2 0 0 10
2  1 2 0 0 10
4 G1 1 0 2 0
0

0101000
+22 0 -21 0 *
Ed
 1e-07 1 1 0
1  3 0 0 4.16045133976654
0

0101000
+25 2 -22 2 *
Ed
 1e-07 1 1 0
1  4 0 0 4.16045133976654
0

0101000
+24 5 -21 5 *
Wi

0101000
+23 0 -20 0 -19 1 +18 4 *
Fa
0  1e-07 1 0

0101000
+17 0 *
Ve
1.9621881513958e-06
7.05186032158919 12.3988743274883 -8.60476492575918
0 0

0101100
*
Ve
1.9621881513958e-06
7.05186032158919 12.3988743274883 1.39523507424082
0 0

0101100
*
Ed
 1.9621881513958e-06 1 1 0
1  5 0 0 10
2  2 2 0 0 10
4 G1 2 0 3 0
0

0101000
+15 0 -14 0 *
Ed
 1.9621881513958e-06 1 1 0
1  6 0 0 1
2  3 2 2 0 1
0

0101000
+22 2 -15 2 *
Ed
 1.9621881513958e-06 1 1 0
1  7 0 0 1
2  4 2 5 0 1
0

0101000
+21 5 -14 5 *
Wi

0101000
+20 0 -13 0 -12 1 +11 4 *
Fa
0  1.26231492020787e-06 2 0

0101000
+10 0 *
Ve
1e-07
9.41954777190761 33.3059004029722 -6.93474746134565
0 0

0101100
*
Ve
1e-07
9.41954777190761 33.3059004029722 3.06525253865435
0 0

0101100
*
Ed
 1e-07 1 1 0
1  8 0 0 10
0

0101000
+8 0 -7 0 *
Ed
 1e-07 1 1 0
1  9 0 0 21.106838738068
0

0101000
+15 2 -8 2 *
Ed
 1e-07 1 1 0
1  10 0 0 21.106838738068
0

0101000
+14 5 -7 5 *
Wi

0101000
+13 0 -6 0 -5 1 +4 4 *
Fa
0  1e-07 3 0

0101000
+3 0 *
Sh

1101000
+16 0 +9 0 +2 0 *

+1 0 