DBRep_DrawableShape

CASCADE Topology V1, (c) Matra-Datavision
Locations 0
Curve2ds 14
1 1 0 0 1 
7 0 0  8 16 3  0 2.7755575615628914e-17  0 0.062500008216227032  0 0.12499624667479846  0 0.18750548211068857  0 0.24999367981992437  0 0.31250270349378778  0 0.37499870029486226  0 0.43749950101570861  0 0.56249948904777447  0 0.62499858784963314  0 0.68750301835507266  0 0.74999299597120195  0 0.81250608021464599  0 0.87499583526473956  0 0.93749999871777079  0 1 
 0 9 0.5 7 1 9
1 0 1 1 0 
7 0 0  8 16 3  0 0  0.062500012885154763 0  0.12500104832186015 0  0.1875022738631543 0  0.25000316322288085 0  0.31250349627570279 0  0.37500335905707916 0  0.43750314376329247 0  0.56250395373956197 0  0.62501826184111831 0  0.68745016303796724 0  0.7501057640831359 0  0.81240366631609806 0  0.87506322323124242 0  0.9374989407877522 0  0.99999999999999989 0 
 0 9 0.5 7 1 9
1 0 0 0 1 
7 0 0  6 7 2  1 5.5511151231257827e-17  1.0000000000000011 0.16666667105118699  0.99999999999999623 0.33333115723284013  1.0000000000000036 0.50000184269265535  0.99999999999999845 0.66666529505075733  1.0000000000000004 0.83333328815662455  1 1 
 0 7 1 7
1 0 0 1 0 
7 0 0  9 18 3  0 1  0.055555597615469271 0.99999999999999389  0.11111097412471273 1.0000000000000282  0.16666630424165335 0.99999999999994205  0.22222171046629552 1.0000000000000675  0.27777726308454925 0.99999999999994948  0.33333298016845458 1.0000000000000242  0.38888882757596549 0.99999999999999378  0.44444471895111359 1.0000000000000007  0.55555631249669735 0.99999999999999933  0.61110669896564718 1.0000000000000036  0.66669349058755767 0.99999999999998901  0.72216674971242822 1.00000000000002  0.77785633847045965 0.99999999999997968  0.83327235170286806 1.0000000000000104  0.88892178681027323 0.99999999999999833  0.94444390961079683 0.99999999999999978  1 1 
 0 10 0.5 8 1 10
1 1 0 0 1 
7 0 0  11 12 2  0 0  0 0.090908992265525429  0 0.18181749771035086  0 0.27273400589448948  0 0.36361262623365903  0 0.45459239235296045  0 0.54539406709169969  0 0.63641671772414343  0 0.72724274231018882  0 0.81819257009376378  0 0.90909076763242636  0 1 
 0 12 1 12
1 0 0 0 1 
7 0 0  9 18 3  1 -1.1102230246251565e-16  0.99999999999999389 0.055555616907835073  1.0000000000000282 0.11111530628864448  0.99999999999994205 0.16666725562548107  1.0000000000000675 0.22222149739521638  0.99999999999994948 0.27777986169075713  1.0000000000000242 0.33333638077260191  0.99999999999999378 0.38888931841179497  1.0000000000000007 0.4444459968882043  0.99999999999999933 0.55555719212456156  1.0000000000000036 0.61111002469898812  0.99999999999998901 0.66668131323776725  1.00000000000002 0.722194970058053  0.99999999999997968 0.77781838266590198  1.0000000000000104 0.83330297240310314  0.99999999999999833 0.88890596417862766  0.99999999999999978 0.94444438538938702  1 1 
 0 10 0.5 8 1 10
1 0 1 1 0 
7 0 0  9 26 4  5.5511151231257827e-17 0  0.055555608786587177 0  0.11111126826298666 0  0.16666697068838424 0  0.22222270832214647 0  0.27777847342334866 0  0.33333425825141166 0  0.38889005506545166 0  0.44444585612477772 0  0.5277795524705452 0  0.55555745669976975 0  0.58333536605080594 0  0.61111328019780486 0  0.63889119881557355 0  0.66666912157804059 0  0.69444704816002889 0  0.72222497823566556 0  0.77778084472328968 0  0.80555264410778449 0  0.83336543972712407 0  0.8610502279006168 0  0.88897882201378031 0  0.91659900034409936 0  0.94448227714814992 0  0.97222199678251708 0  0.99999999999999989 0 
 0 10 0.5 8 0.75 8 1 10
Curves 7
7 0 0  3 4 8  54908.419925000009 18944.985386666667 1621.115804  60009.686791666667 19042.915978333338 1635.007044  65052.839915000004 18254.096033333335 1638.3424201666669  69778.966264999995 16179.483256666668 1681.4502675000003 
 -3 1 -2 1 -1 1 0 1 1 1 2 1 3 1 4 1
7 0 0  3 4 8  59999.996183333336 17944.334030000002 822.87200289999998  59999.997454999997 18941.385905000003 1609.0109948333334  59999.99491666667 19660.878180000003 2540.5698616666668  59999.988558333338 20028.870579999999 3673.6979885000001 
 -3 1 -2 1 -1 1 0 1 1 1 2 1 3 1 4 1
7 0 0  3 4 8  55006.737388333335 19600.444795000003 2551.3200560000005  59989.109675 19716.109913333334 2567.0631926666665  65036.842350000006 19148.789721666668 2625.4177689999997  69863.549549999996 17984.759331666668 2790.1668749999999 
 -3 1 -2 1 -1 1 0 1 1 1 2 1 3 1 4 1
7 0 0  3 4 8  65000.003815000004 16812.085786666667 889.69944911666676  65000.002543333329 18079.877853333332 1597.8241366666668  64999.997455000004 19107.170103333334 2588.8252655000001  65000.008263333337 19787.462556666665 3905.7759446666669 
 -3 1 -2 1 -1 1 0 1 1 1 2 1 3 1 4 1
7 0 0  3 4 8  59061.998366666667 19357.87455 1626.5960931500001  65298.034666666674 18163.630485000001 1641.4608955000001  69745.881399999998 16226.38337 1677.3822110000001  75718.460083333339 12803.629875000002 1871.1092866666668 
 -3 1 -2 1 -1 1 0 1 1 1 2 1 3 1 4 1
7 0 0  3 4 8  59258.344648333339 19845.291136666667 2546.0139516666668  65211.922963333345 19117.561021666668 2631.6423020000002  69893.997191666669 17980.470018333333 2786.3153418333336  75212.137859999988 15797.501881666667 3120.5096246666667 
 -3 1 -2 1 -1 1 0 1 1 1 2 1 3 1 4 1
7 0 0  3 4 8  70000.002543333336 13488.144081166665 670.78998686666671  70000.002544999996 16144.627096666667 1716.1365348333334  69999.997453333344 17806.18477 2686.7657898333337  70000.01271333333 19467.642151666667 4434.2143536666663 
 -3 1 -2 1 -1 1 0 1 1 1 2 1 3 1 4 1
Polygon3D 0
PolygonOnTriangulations 0
Surfaces 8
9 0 0 0 0 3 3 4 4 8 8 54877.136229999996 18745.3537 695.70451969999999  60043.518069999998 17841.670990000002 839.37382700000001  64948.829649999992 17553.913120000001 884.02998450000007  70161.170960000003 12815.211299999999 962.68367769999998  
54886.085510000004 18749.78256 1626.505494  60005.241390000003 19185.029979999999 1608.615994  65092.956540000006 18158.405299999999 1593.1004289999998  69622.962950000001 16660.619740000002 1605.9371229999999  
55029.064180000001 19925.411220000002 2524.964571  59993.648529999999 19675.691600000002 2536.2093450000002  64996.398929999996 19337.030409999999 2573.6184120000003  70020.790099999998 17619.213100000001 2702.2469040000001  
55038.082119999999 19151.210780000001 3581.5365309999997  59954.837800000001 20408.819200000002 3648.93651  65142.501830000001 19386.215209999998 3864.9113179999999  69475.143429999996 20770.868299999998 4326.048374  

-3 1
-2 1
-1 1
0 1
1 1
2 1
3 1
4 1

-3 1
-2 1
-1 1
0 1
1 1
2 1
3 1
4 1

9 0 0 0 0 3 3 4 4 8 8 53070.35828 18219.097139999998 446.13623619999998  60566.589360000005 17300.979609999999 557.99841879999997  64663.330079999992 16648.763660000001 613.02828790000001  70780.113219999999 11967.005730000001 624.42743780000001  
53899.330139999998 18163.248060000002 1044.858217  60288.108829999997 18425.78125 1009.398818  64948.242190000004 17283.66661 1025.760174  69918.945309999996 14961.94744 1096.001029  
54946.655270000003 19139.024729999997 1558.615685  60009.117129999999 18983.070370000001 1611.682773  65016.891479999998 18382.038120000001 1610.6652020000001  69923.339840000001 15877.254490000001 1640.9964560000001  
55764.568330000002 18950.565340000001 2447.3738670000002  59733.543400000002 19899.433140000001 2353.9123540000001  65301.231380000005 18712.757109999999 2361.6335389999999  69061.492920000004 18605.934139999998 2428.7147519999999  

-3 1
-2 1
-1 1
0 1
1 1
2 1
3 1
4 1

-3 1
-2 1
-1 1
0 1
1 1
2 1
3 1
4 1

9 0 0 0 0 3 3 4 4 8 8 54179.225919999997 18112.857819999997 972.7523923  56979.667659999999 18151.042939999999 865.33898119999992  60045.024870000001 18052.795410000002 833.50229259999992  62840.20996 17303.779599999998 737.88386579999997  
53580.883030000005 18944.694519999997 1556.395888  57172.367100000003 19056.461330000002 1597.002745  59872.558590000001 18967.477800000001 1606.3001159999999  63337.383269999998 18721.942899999998 1631.86276  
52985.485079999999 19715.923310000002 2538.1798739999999  57366.46271 19707.027440000002 2527.4686810000003  59691.574099999998 19721.80557 2534.40094  63867.21039 19371.019359999998 2578.3467290000003  
52387.424469999998 20078.586579999999 3700.6011010000002  57559.089659999998 20064.928049999999 3664.6974089999999  59519.088750000003 20029.8233 3665.8115389999998  64364.486690000005 19989.002230000002 3714.2443659999999  

-3 1
-2 1
-1 1
0 1
1 1
2 1
3 1
4 1

-3 1
-2 1
-1 1
0 1
1 1
2 1
3 1
4 1

9 0 0 0 0 3 3 4 4 8 8 55056.499479999999 19785.770419999997 1561.222434  59980.712890000003 18852.45132 1608.0559489999998  65020.675659999994 18569.11087 1676.1039499999999  69936.599730000002 16139.86015 1858.9497800000001  
54988.22784 19369.201660000002 2551.8071650000002  59990.741730000002 19865.203860000001 2546.7615129999999  65048.820500000002 19130.342479999999 2598.058939  69814.010620000001 18192.43622 2748.7232690000001  
55031.013489999998 20340.091710000001 3539.4692420000001  59990.978239999997 19983.39272 3607.2771549999998  65005.096440000001 19802.257539999999 3684.1669079999997  69988.65509 18998.950959999998 3887.158394  
54960.89935 18931.875229999998 4843.596458  60001.186369999996 20305.938720000002 4818.6802859999998  65034.301760000002 19921.909329999999 4954.7033309999997  69861.602780000001 19871.711730000003 5243.2503699999997  

-3 1
-2 1
-1 1
0 1
1 1
2 1
3 1
4 1

-3 1
-2 1
-1 1
0 1
1 1
2 1
3 1
4 1

9 0 0 0 0 3 3 4 4 8 8 59436.294560000002 20924.308779999999 1180.487871  65251.502990000008 16329.446789999998 867.1221137  69557.716369999995 14630.41878 689.22036890000004  76517.646789999999 6077.742577 400.73633190000004  
58871.49048 18655.574799999999 1510.6079580000001  65342.353819999997 18428.722379999999 1598.187447  69759.109499999991 16108.802799999999 1683.587074  75621.223450000005 14003.829 1964.2834659999999  
59449.646000000001 20600.690839999999 2536.6616249999997  65167.304990000004 18937.404630000001 2588.8903139999998  69881.118770000001 18292.71126 2640.7287120000001  75308.20465 14728.85895 2968.789577  
58880.023960000006 18013.469700000001 3618.831158  65259.918209999996 20527.02332 3836.1082080000001  70080.352780000001 18603.212360000001 4471.391678  74418.746950000001 21865.980149999999 4883.611202  

-3 1
-2 1
-1 1
0 1
1 1
2 1
3 1
4 1

-3 1
-2 1
-1 1
0 1
1 1
2 1
3 1
4 1

9 0 0 0 0 3 3 4 4 8 8 60560.646060000006 18463.310239999999 605.56936260000009  64743.721010000001 16121.803280000002 600.08114580000006  70464.477540000007 12912.498469999999 628.64065170000003  73398.376459999999 8721.4870449999999 575.98066329999995  
59475.872040000002 18203.90511 987.01214790000006  65103.622439999992 17468.353270000003 1031.7504409999999  70109.657290000003 14445.088390000001 1094.42842  74457.725519999993 11797.54162 1181.002855  
59195.629119999998 19710.437769999997 1617.7821160000001  65264.846799999999 18081.317899999998 1609.4155310000001  69744.995119999992 16352.77176 1639.8935320000001  75755.195619999999 12430.84526 1832.0217130000001  
58113.60168 19101.591110000001 2301.4359469999999  65625.198359999995 19188.158040000002 2379.3528080000001  69385.650630000004 17502.124790000002 2410.2907180000002  76832.252500000002 15300.856590000001 2717.5660130000001  

-3 1
-2 1
-1 1
0 1
1 1
2 1
3 1
4 1

-3 1
-2 1
-1 1
0 1
1 1
2 1
3 1
4 1

9 0 0 0 0 3 3 4 4 8 8 59345.355990000004 20604.497909999998 1553.221941  65198.432919999999 17874.57848 1681.901932  69860.946660000001 17165.924069999997 1890.5829190000002  75357.849119999999 12336.874010000001 2111.1402510000003  
59203.208920000005 19484.27391 2539.5309929999999  65220.130920000003 19305.736540000002 2601.5949250000003  69916.297909999994 17871.774669999999 2741.8098450000002  75114.715579999989 16332.843780000001 3079.532862  
59391.876219999998 20530.153269999999 3564.7377969999998  65192.581180000008 19607.841489999999 3701.5721799999997  69837.844849999994 19229.79736 3860.0697519999999  75456.115720000002 17116.762160000002 4293.7860490000003  
59245.864869999998 18843.92166 4858.4213260000006  65215.698239999998 20439.891820000001 4924.9958989999996  69891.387940000001 19261.48415 5322.2951890000004  75218.788149999993 20593.322749999999 5856.0523990000002  

-3 1
-2 1
-1 1
0 1
1 1
2 1
3 1
4 1

-3 1
-2 1
-1 1
0 1
1 1
2 1
3 1
4 1

9 0 0 0 0 3 3 4 4 8 8 62872.463230000001 20006.095890000001 294.1226661  70704.544070000004 12406.970019999999 715.71308369999997  74309.318540000007 11294.868470000001 867.77091029999997  82058.242800000007 4169.1784859999998 1332.2000499999999  
63709.434509999999 18488.3194 1711.395025  70442.878719999993 16267.85469 1700.5970479999999  74519.027710000009 13308.034899999999 1783.032537  81481.040949999995 9796.242714 2239.5548820000004  
64335.861210000003 20288.156510000001 2450.7236479999997  70189.430239999987 17597.225190000001 2660.3598590000001  74906.372069999998 16160.001749999999 3028.4361839999997  80185.104370000001 12190.832139999999 3539.9699209999999  
65187.660219999998 16595.727920000001 4028.2087329999995  69925.69733000001 20710.409160000003 4462.7184870000001  75109.527589999998 17368.24036 4726.1857989999999  79636.138919999998 18724.275590000001 5350.0742909999999  

-3 1
-2 1
-1 1
0 1
1 1
2 1
3 1
4 1

-3 1
-2 1
-1 1
0 1
1 1
2 1
3 1
4 1

Triangulations 0

TShapes 18
Ve
0.0358336900852178
60000.0003573264 18895.1235664583 1633.24788212569
0 0

0101100
*
Ve
0.304385410180628
65000.0025559722 18039.7955506944 1644.97035253229
0 0

0101100
*
Ed
 0.0049098700309999 1 1 0
1  1 0 0 1
2  1 2 0 0 1
2  2 1 0 0 1
0

0101000
+18 0 -17 0 *
Ve
0.0358336900852178
60000.0017884028 19602.2794176736 2574.16509013194
0 0

0101100
*
Ed
 0.0358336900852178 1 1 0
1  2 0 0 1
2  3 3 0 0 1
2  4 1 0 0 1
0

0101000
+18 0 -15 0 *
Ve
12.0225364134557
65000.0039734722 19049.3349621181 2643.14961526042
0 0

0101100
*
Ed
 0.0110487634529534 1 1 0
1  3 0 0 1
2  5 4 0 0 1
2  6 1 0 0 1
0

0101000
+15 0 -13 0 *
Ed
 0.0113272157572499 1 1 0
1  4 0 0 1
2  7 5 0 0 1
2  8 1 0 0 1
0

0101000
+17 0 -13 0 *
Wi

0101000
-16 0 +14 0 +12 0 -11 0 *
Fa
0  1e-07 1 0

0111000
+10 0 *
Ve
0.0211325098652024
69999.9972716667 15978.8046517604 1703.68357847222
0 0

0101100
*
Ed
 0.0111669713210143 1 1 0
1  5 0 0 1
2  9 6 0 0 1
2  10 5 0 0 1
0

0101000
+17 0 -8 0 *
Ve
0.0228562930972248
69999.9992326042 17806.1584462153 2816.23599430208
0 0

0101100
*
Ed
 0.0197694375904717 1 1 0
1  6 0 0 1
2  11 7 0 0 1
2  12 5 0 0 1
0

0101000
+13 0 -6 0 *
Ed
 0.0211325098652024 1 1 0
1  7 0 0 1
2  13 5 0 0 1
2  14 8 0 0 1
0

0101000
+8 0 -6 0 *
Wi

0101000
-7 0 +11 0 +5 0 -4 0 *
Fa
0  1e-07 5 0

0111000
+3 0 *
Sh

1101000
+9 0 +2 0 *

+1 0 
0

