DBRep_DrawableShape

CASCADE Topology V1, (c) Matra-Datavision
Locations 15
1
              1               0               0               0 
              0               1               0               0 
              0               0               1               2 
1
              1               0               0               0 
              0               1               0               0 
              0               0               1               5 
2  1 1 2 1 0
1
              1               0               0               0 
              0               1               0               0 
              0               0               1               2 
2  4 -1 0
1
              1               0               0               0 
              0               1               0               0 
              0               0               1               5 
2  6 -1 4 -1 0
1
              1               0               0     1.209957945 
              0              -1               0  -0.07524406326 
              0               0              -1               0 
2  8 1 1 1 0
2  4 -1 8 -1 0
2  6 -1 4 -1 8 -1 0
2  1 -1 8 -1 0
2  2 -1 1 -1 8 -1 0
2  8 -1 0
2  8 1 1 1 2 1 0
Curve2ds 6
1 2.21860981849863 0 0 -1 
1 4.18879020499451 0 0 -1 
1 0 0 1 0 
1 0 -5 1 0 
1 0 0 1 0 
1 0 -5 1 0 
Curves 10
1 32.144439561 -24.325626222 2 0 0 1 
1 0.805564417000003 -0.609618932130004 2 0 0 1 
1 32.144439561 -24.325626222 0 -0.797405139494248 0.603444316824808 0 
1 0.874886823763017 0.505116143280465 2 0 0 1 
2 0 0 0 0 0 1 1 0 0 0 1 0 0.670142243189499
1 5.43969575 3.140609805 2 0 0 1 
1 0.874886824 0.505116143 0 0.866025403802948 0.499999999967941 0 
1 32.144439561 24.325626222 2 0 0 1 
1 5.43969575 3.140609805 0 0.783420660261051 0.621491809339543 0 
1 32.144439561 24.325626222 2 0 -1 0 
Polygon3D 0
PolygonOnTriangulations 4
2 1 3 
p 3.1338875344 1 0 39.3010699227203 
2 2 4 
p 3.1338875344 1 0 39.3010699227203 
4 2 13 14 7 
p 0.48263230058437 1 2.21860981849863 2.87533661399725 3.53206340949588 4.18879020499451 
4 1 11 12 6 
p 0.48263230058437 1 2.21860981849863 2.87533661399725 3.53206340949588 4.18879020499451 
Surfaces 7
1 32.144439561 -24.325626222 2 -0.603444316824808 -0.797405139494248 0 -0.797405139494248 0.603444316824808 0 0 0 -1 
2 1.209957945 -0.07524406326 2 0 0 -1 1 0 0 0 -1 0 0.670142243189499
1 0.874886824 0.505116143 2 -0.499999999967941 0.866025403802948 0 0.866025403802948 0.499999999967941 0 0 0 -1 
2 1.209957945 -0.07524406326 2 0 0 -1 1 0 0 0 -1 0 0.670142243189499
1 5.43969575 3.140609805 2 -0.621491809339543 0.783420660261051 0 0.783420660261051 0.621491809339543 0 0 0 -1 
1 32.144439561 24.325626222 2 1 0 0 0 -1 0 0 0 -1 
1 1.209957945 -0.07524406326 2 0 0 -1 1 0 0 0 -1 0 
Triangulations 2
4 2 1 2.850415670828
32.144439561 -24.325626222 2 32.144439561 -24.325626222 7 0.805564417000003 -0.609618932130004 2 0.805564417000003 -0.609618932130004 7 0 0 0 -5 39.3010699226419 0 39.3010699226419 -5 1 2 4 4 3 1 
14 12 1 0.491316160318046
0.805564417000003 -0.609618932130004 2 0.805564417000003 -0.609618932130004 7 0.805564417000003 -0.609618932130004 3.25 0.805564417000003 -0.609618932130004 4.5 0.805564417000003 -0.609618932130004 5.75 0.874886823763017 0.505116143280465 2 0.874886823763017 0.505116143280465 7 0.874886823763017 0.505116143280465 3.25 0.874886823763017 0.505116143280465 4.5 0.874886823763017 0.505116143280465 5.75 0.563429657311782 -0.251572731734513 2 0.590257320895217 0.179828010066729 2 0.563429657311782 -0.251572731734513 7 0.590257320895217 0.179828010066729 7 2.21860981849863 0 2.21860981849863 -5 2.21860981849863 -1.25 2.21860981849863 -2.5 2.21860981849863 -3.75 4.18879020499451 0 4.18879020499451 -5 4.18879020499451 -1.25 4.18879020499451 -2.5 4.18879020499451 -3.75 2.87533661399725 0 3.53206340949588 0 2.87533661399725 -5 3.53206340949588 -5 2 13 5 5 13 4 3 4 11 11 1 3 4 13 11 13 14 11 14 7 10 14 10 9 12 9 8 9 12 14 8 6 12 14 12 11 

TShapes 29
Ve
1e-007
32.144439561 -24.325626222 0
0 0

0101100
*
Ed
 1e-007 1 1 0
1  1 0 0 5
0

0101000
+29 1 -29 3 *
Ve
1.00140009346698e-007
0.805564417000003 -0.609618932130004 0
0 0

0101100
*
Ed
 1.00140009346698e-007 1 1 0
1  2 0 0 5
2  1 2 0 0 5
4 G1 1 0 2 0
0

0101000
+27 1 -27 3 *
Ed
 1e-007 1 1 0
1  3 0 0 39.3010699227203
6  1 1 5
6  2 1 7
0

0101000
+29 0 -27 0 *
Wi

0101000
+28 0 -26 0 -25 1 +25 3 *
Fa
0  1e-007 1 0

0111000
+24 0 *
Ve
1.00377217184002e-007
0.874886823763017 0.505116143280465 0
0 0

0101100
*
Ed
 1.00377217184002e-007 1 1 0
1  4 0 0 5
2  2 2 0 0 5
4 G1 2 0 3 0
0

0101000
+22 1 -22 3 *
Ed
 1e-007 1 1 0
1  5 0 2.21860981849863 4.18879020499451
2  3 4 10 2.21860981849863 4.18879020499451
2  4 4 11 2.21860981849863 4.18879020499451
6  3 2 11
6  4 2 10
2  5 2 12 2.21860981849863 4.18879020499451
2  6 2 13 2.21860981849863 4.18879020499451
0

0101000
+27 14 -22 14 *
Wi

0101000
+26 0 -21 0 -20 9 +20 15 *
Fa
0  1e-007 2 0

0111000
+19 0 *
Ve
1e-007
5.43969575 3.140609805 0
0 0

0101100
*
Ed
 1e-007 1 1 0
1  6 0 0 5
0

0101000
+17 1 -17 3 *
Ed
 1e-007 1 1 0
1  7 0 0 5.27098732433796
0

0101000
+22 0 -17 0 *
Wi

0101000
+21 0 -16 0 -15 1 +15 3 *
Fa
0  1e-007 3 0

0111000
+14 0 *
Ve
1e-007
32.144439561 24.325626222 0
0 0

0101100
*
Ed
 1e-007 1 1 0
1  8 0 0 5
0

0101000
+12 1 -12 3 *
Ed
 1e-007 1 1 0
1  9 0 0 34.0873622124051
0

0101000
+17 0 -12 0 *
Wi

0101000
+16 0 -11 0 -10 1 +10 3 *
Fa
0  1e-007 5 0

0111000
+9 0 *
Ed
 1e-007 1 1 0
1  10 0 0 48.651252444
0

0101000
+12 1 -29 1 *
Wi

0101000
+11 0 -28 0 -7 0 +7 2 *
Fa
0  1e-007 6 0

0111000
+6 0 *
Wi

0101100
+25 1 +20 9 +15 1 +10 1 +7 0 *
Fa
0  1e-007 7 0

0111000
+4 0 *
Sh

0101000
+23 0 +18 0 +13 0 +8 0 +5 0 +3 0 -3 2 *
So

1100000
+2 0 *

+1 0 
