DBRep_DrawableShape

CASCADE Topology V1, (c) Matra-Datavision
Locations 0
Curve2ds 14
1 0 0 1 0 
1 0 4.7123889803846897 1 0 
1 0 15 1 0 
2 0 0 1 0 -0 1 15
1 6.2831853071795862 0 0 1 
1 0 0 0 1 
1 0 6.2831853071795862 1 0 
1 0 100 1 0 
1 6.2831853071795862 4.7123889803846897 0 1 
1 0 4.7123889803846897 0 1 
2 0 0 -1 0 0 1 50
1 0 0 1 0 
1 6.2831853071795862 0 0 1 
1 0 0 0 1 
Curves 7
2 0 0 135 0 0 1 1 0 -0 -0 1 0 15
2 0 0 150 0 0 1 1 0 -0 -0 1 0 15
1 15 0 135 0 0 1 
2 0 0 100 0 0 1 1 0 -0 -0 1 0 50
2 15 0 100 0 1 0 0 -0 1 1 0 -0 35
2 0 0 0 0 0 1 1 0 -0 -0 1 0 50
1 50 0 0 0 0 1 
Polygon3D 0
PolygonOnTriangulations 0
Surfaces 5
2 0 0 135 0 0 1 1 0 -0 -0 1 0 15
5 0 0 100 -0 -0 -1 1 0 -0 -0 1 0 15 35
1 0 0 150 0 0 1 1 0 -0 -0 1 0 
2 0 0 0 0 0 1 1 0 -0 -0 1 0 50
1 0 0 0 0 0 1 -1 -0 0 -0 1 0 
Triangulations 0

TShapes 23
Ve
1e-07
15 0 135
0 0

0101100
*
Ed
 1e-07 1 1 0
1  1 0 0 6.28318530717959
2  1 1 0 0 6.28318530717959
2  2 2 0 0 6.28318530717959
0

0101100
+23 0 -23 0 *
Ve
1e-07
15 0 150
0 0

0101100
*
Ed
 1e-07 1 1 0
1  2 0 0 6.28318530717959
2  3 1 0 0 6.28318530717959
2  4 3 0 0 6.28318530717959
0

0101100
+21 0 -21 0 *
Ed
 1e-07 1 1 0
1  3 0 0 15
3  5 6CN 1 0 0 15
0

0101000
+23 0 -21 0 *
Wi

0101000
+22 0 -20 0 -19 0 +19 0 *
Fa
0  1e-07 1 0

0101000
+18 0 *
Wi

0101000
+20 0 *
Fa
0  1e-07 3 0

0101000
+16 0 *
Ve
1e-07
50 0 100
0 0

0101100
*
Ed
 1e-07 1 1 0
1  4 0 0 6.28318530717959
2  7 2 0 0 6.28318530717959
2  8 4 0 0 6.28318530717959
4 G1 2 0 4 0
0

0101100
+14 0 -14 0 *
Ed
 1e-07 1 1 0
1  5 0 0 1.5707963267949
3  9 10CN 2 0 0 1.5707963267949
0

0101000
+23 0 -14 0 *
Wi

0101000
+22 0 -13 0 -12 0 +12 0 *
Fa
0  1e-07 2 0

0101000
+11 0 *
Ve
1e-07
50 0 0
0 0

0101100
*
Ed
 1e-07 1 1 0
1  6 0 0 6.28318530717959
2  11 5 0 0 6.28318530717959
2  12 4 0 0 6.28318530717959
0

0101100
+9 0 -9 0 *
Wi

0101000
-8 0 *
Fa
0  1e-07 5 0

0101000
+7 0 *
Ed
 1e-07 1 1 0
1  7 0 0 100
3  13 14CN 4 0 0 100
0

0101000
+9 0 -14 0 *
Wi

0101000
+8 0 -13 0 -5 0 +5 0 *
Fa
0  1e-07 4 0

0101000
+4 0 *
Sh

0101000
+17 0 +15 0 -10 0 +6 0 +3 0 *
So

1100000
+2 0 *

+1 0 
0

