DBRep_DrawableShape

CASCADE Topology V1, (c) Matra-Datavision
Locations 2
1
              1               0               0               0 
              0               1               0               0 
              0               0               1           -4000 
2  1 -1 0
Curve2ds 6
1 5.85365853658548 7.31707317073187 -0.78086880944303 0.624695047554424 
1 5.85365853658527 7.31707317073162 -0.78086880944303 0.624695047554424 
1 2.88000000000011 -8.15999999999985 0.6 0.8 
1 4.80000000000018 50 1 0 
1 -25.84 -9.12 0.8 -0.6 
1 -15.2 4000 -1 0 
Curves 14
1 50 60 3988 -1 0 0 
1 38 60 4000 0 0 -1 
1 0 60 4000 0 0 -1 
1 50 60 4000 -1 0 0 
1 50 51 4000 -1 0 0 
1 42.6829268292684 56.4878048780487 3992.68292682927 -0.624695047554424 0.468521285665818 -0.624695047554424 
1 0 57.1199999999999 3991.84 0 -0.6 0.8 
1 25.84 69.12 0 -0.8 0.6 0 
1 50 51 4000 0 0 -1 
1 0 60 4000 0 -1 0 
1 0 0 4000 0 0 -1 
1 50 0 4000 0 1 0 
1 0 0 4000 1 0 0 
1 50 0 4000 0 0 -1 
Polygon3D 0
PolygonOnTriangulations 10
2 2 4 
p 24.00000008 1 0 60 
2 1 3 
p 24.00000008 1 0 60 
2 2 3 
p 50.5000000095 1 0 60 
2 3 4 
p 400.00000002 1 0 4000 
2 1 2 
p 444.5000000095 1 0 4000 
2 2 4 
p 20.00000008 1 0 50 
2 1 3 
p 20.00000008 1 0 50 
2 3 4 
p 49.225000009475 1 0 50 
2 3 4 
p 400.00000002 1 0 4000 
2 1 2 
p 444.225000009475 1 0 4000 
Surfaces 7
1 50 60 4000 0 1 0 -1 0 0 0 0 1 
1 50 60 3988 0 -0.8 -0.6 0 -0.6 0.8 -1 0 0 
1 38 60 4000 0.6 0.8 0 0.8 -0.6 0 0 0 -1 
1 0 60 4000 -1 0 0 0 -1 0 0 0 1 
1 0 60 4000 0 0 1 -1 0 0 0 -1 0 
1 50 0 4000 1 0 0 0 1 0 0 0 1 
1 0 0 4000 0 -1 0 1 0 0 0 0 1 
Triangulations 4
4 2 1 222.5000000475
0 60 4000 0 60 0 0 0 4000 0 0 0 0 0 0 -4000 60 0 60 -4000 1 2 4 4 3 1 
4 2 1 49.8590625094872
50 60 4000 0 60 4000 0 0 4000 50 0 4000 -50 0 0 0 0 60 -50 60 4 1 2 2 3 4 
4 2 1 221.125000047375
0 0 4000 0 0 0 50 0 4000 50 0 0 0 0 0 -4000 50 0 50 -4000 1 2 4 4 3 1 
4 2 1 233.556250044869
50 0 4000 50 0 0 50 60 4000 50 60 0 0 0 0 -4000 60 0 60 -4000 1 2 4 4 3 1 

TShapes 44
Ve
1e-007
38 60 3988
0 0

0101100
*
Ve
5e-007
0 60 3988
0 0

0101100
*
Ed
 1e-007 1 1 0
1  1 0 12 50
0

0101000
+44 0 -43 0 *
Ve
1e-007
38 60 0
0 0

0101100
*
Ed
 1e-007 1 1 0
1  2 0 12.0000000000003 4000
0

0101000
+44 0 -41 0 *
Ve
1e-007
0 60 4000
0 0

0101100
*
Ed
 1e-007 1 1 0
1  3 0 12.0000000000005 4000
0

0101000
+43 0 -39 1 *
Ed
 1e-007 1 1 0
1  4 0 12 50
0

0101000
+41 2 -39 0 *
Wi

0101100
-42 0 +40 0 -38 0 +37 1 *
Fa
0  1e-007 1 0

0111000
+36 0 *
Ve
1e-007
50 51 4000
0 0

0101100
*
Ve
5e-007
0 50.9999999999994 4000
0 0

0101100
*
Ed
 1e-007 1 1 0
1  5 0 0 50
0

0101000
+34 0 -33 0 *
Ed
 1e-007 1 1 0
1  6 0 -11.7130321416455 7.49634057065336
2  1 3 0 -11.7130321416455 7.49634057065336
2  2 2 0 -11.7130321416455 7.49634057065336
0

0101000
+34 0 -44 0 *
Ed
 1e-007 1 1 0
1  7 0 -4.80000000000055 10.2000000000002
2  3 4 0 -4.80000000000055 10.2000000000002
2  4 2 0 -4.80000000000055 10.2000000000002
0

0101000
+43 0 -33 0 *
Wi

0101100
+32 0 -31 0 -30 0 -42 0 *
Fa
0  1e-007 2 0

0111000
+29 0 *
Ve
1e-007
50 51 0
0 0

0101100
*
Ed
 1e-007 1 1 0
1  8 0 -30.2 -15.2
2  5 5 1 -30.2 -15.2
2  6 3 0 -30.2 -15.2
0

0101000
+27 0 -41 0 *
Ed
 1e-007 1 1 0
1  9 0 -1.70530256582424e-013 4000
0

0101000
+34 0 -27 0 *
Wi

0101100
-40 0 -31 0 +26 0 +25 0 *
Fa
0  1e-007 3 0

0111000
+24 0 *
Ve
1e-007
0 0 4000
0 0

0101100
*
Ed
 1e-007 1 1 0
1  10 0 0 60
6  1 1 2
6  2 1 0
6  3 2 0
0

0101000
+39 0 -22 0 *
Ed
 1e-007 1 1 0
1  10 0 9 60
0

0101000
+33 0 -22 0 *
Ed
 1e-007 1 1 0
1  11 0 0 4000
6  4 1 0
6  5 3 0
0

0101000
+22 0 -22 1 *
Wi

0101100
+38 0 -30 0 +21 1 -20 0 -19 0 *
Fa
0  1e-007 4 0

0111000
+18 0 *
Ve
1e-007
50 0 4000
0 0

0101100
*
Ed
 1e-007 1 1 0
1  12 0 0 51
0

0101000
-27 2 +16 0 *
Ed
 1e-007 1 1 0
1  13 0 0 50
6  6 3 2
6  7 3 0
6  8 2 0
0

0101000
+22 0 -16 0 *
Wi

0101100
+37 1 +26 0 +21 1 +15 1 +14 1 *
Fa
0  1e-007 5 1

0111000
+13 0 *
Ed
 1e-007 1 1 0
1  12 0 0 51
0

0101000
-34 0 +16 0 *
Wi

0101100
+32 0 +11 0 +20 0 +14 0 *
Fa
0  1e-007 5 0

0111000
+10 0 *
Ed
 1e-007 1 1 0
1  14 0 0 4000
6  9 3 0
6  10 4 0
0

0101000
+16 0 -16 1 *
Wi

0101100
-25 0 -11 0 +15 1 +8 0 *
Fa
0  1e-007 6 0

0111000
+7 0 *
Wi

0101000
+19 0 -8 0 -14 0 +14 1 *
Fa
0  1e-007 7 0
2  3
0111000
+5 0 *
Sh

0101100
+35 0 -28 0 +23 0 +17 0 -12 0 +9 0 +6 0 +4 0 *
So

0100000
+3 0 *
Co

1100000
+2 0 *

+1 0 