DBRep_DrawableShape

CASCADE Topology V1, (c) Matra-Datavision
Locations 0
Curve2ds 12
1 -12.9992489783058 1185.99 0.727350149437573 -0.686266537223796 
1 0 0 -1 0 
1 4903.33154833483 5215.81337461411 0.0580764797738009 -0.998312136807463 
1 -17.8720647659966 0 0.686266537223758 0.727350149437609 
1 0 1173.725 0 -1 
1 6742.79024859633 2367.81064824327 -0.943516046232232 -0.33132683335688 
1 805.488191402982 853.709054148632 -0.686266537223781 -0.727350149437588 
1 -1.77635683940025e-015 0 -1 0 
1 0 1185.99 0 -1 
1 796.033185716035 862.630003731485 0.727350149437588 -0.686266537223781 
1 0 0 -1 0 
1 -17.8720647659974 -1.13686837721616e-013 0.686266537223781 0.727350149437588 
Curves 12
1 7185.99 -1185.99 615.171 -0.686266537223758 0.686266537223796 0.240990621754815 
1 7173.725 -1173.725 619.478 -1 0 0 
1 15.01 -1185.99 615.171 0.686266537223775 0.686266537223781 0.240990621754809 
1 7185.99 -1185.99 615.171 -1 0 0 
1 7173.725 0 619.478 0 -1 0 
1 7173.725 0 619.478 -1 0 0 
1 27.275 0 619.478 0 -1 0 
1 7173.725 0 619.478 0.943516046232227 0 -0.331326833356894 
1 7185.99 -1185.99 615.171 0 1 0 
1 15.01 0 615.171 0.943516046232232 0 0.33132683335688 
1 7185.99 0 615.171 -1 0 0 
1 15.01 -1185.99 615.171 0 1 0 
Polygon3D 0
PolygonOnTriangulations 21
2 1 2 
p 4.9060000800001 1 0 17.8720647659969 
2 4 3 
p 118.59900002 1 0 17.8720647659969 
2 2 3 
p 717.09800002 1 0 7146.45 
2 1 2 
p 786.84540001 1 0 7146.45 
2 4 3 
p 4.9060000800001 1 0 17.8720647659973 
2 1 2 
p 118.59900002 1 0 17.8720647659973 
2 1 4 
p 717.09800002 1 0 7170.98 
2 3 4 
p 789.29840001 1 0 7170.98 
2 1 3 
p 118.59900002 1 0 1173.725 
2 3 4 
p 714.64500002 1 0 7146.45 
2 3 2 
p 836.6685200095 1 0 7146.45 
2 3 2 
p 118.59900002 1 0 1173.725 
2 1 2 
p 4.90600007999965 1 0 12.9992489783058 
2 3 4 
p 77.0466000279994 1 0 12.9992489783058 
2 4 2 
p 118.59900002 1 0 1185.99 
2 3 1 
p 546.536600028 1 0 1185.99 
2 1 2 
p 4.90600008 1 0 12.9992489783064 
2 4 3 
p 118.59900002 1 0 12.9992489783064 
2 4 1 
p 717.09800002 1 0 7170.98 
2 1 2 
p 798.883956006875 1 0 7170.98 
2 1 4 
p 118.59900002 1 0 1185.99 
Surfaces 6
1 7173.725 -1173.725 619.478 0 -0.331326833356877 0.943516046232232 -0.686266537223758 0.686266537223796 0.240990621754815 -0.727350149437609 -0.647503489862845 -0.227378518617137 
1 7173.725 0 619.478 0.331326833356894 0 0.943516046232227 -0.943516046232227 0 0.331326833356894 0 -1 0 
1 7173.725 -1173.725 619.478 0 0 1 1 0 0 0 1 0 
1 27.275 0 619.478 0 1 0 0.943516046232232 0 0.33132683335688 0.33132683335688 0 -0.943516046232232 
1 27.275 -1173.725 619.478 -0.33132683335688 0 0.943516046232232 0.686266537223775 0.686266537223781 0.240990621754809 -0.647503489862866 0.727350149437588 -0.227378518617147 
1 7185.99 0 615.171 0 0 -1 1 0 0 0 -1 0 
Triangulations 6
5 4 1 361.00200005
7185.99 -1185.99 615.171 7173.725 -1173.725 619.478 27.275 -1173.725 619.478 15.01 -1185.99 615.171 3600.14384598779 -1185.63384598779 615.296067699193 -17.8720647659975 9.09494701772928e-013 0 0 4904.36949494273 5197.9714754484 4903.33154833483 5215.81337461411 2443.24871508836 2607.90668730705 1 2 5 5 3 4 3 5 2 5 4 1 
5 4 1 90.1757500349999
7173.725 0 619.478 7185.99 0 615.171 7173.725 -1173.725 619.478 7185.99 -1185.99 615.171 7179.8575 -592.995 617.3245 -1.77635683940025e-015 0 -12.9992489783058 0 0 1173.725 -12.9992489783058 1185.99 -6.49962448915291 592.995 4 2 5 5 1 3 1 5 2 5 3 4 
4 2 1 610.1176000475
7173.725 -1173.725 619.478 27.275 -1173.725 619.478 7173.725 0 619.478 27.275 0 619.478 0 0 -7146.45 0 0 1173.725 -7146.45 1173.725 4 2 1 1 3 4 
5 4 1 118.59900002
15.01 -1185.99 615.171 27.275 -1173.725 619.478 27.275 0 619.478 15.01 0 615.171 18.2543270061063 -589.750672993894 616.310283849596 -17.8720647659974 0 0 0 805.488191402982 853.709054148632 796.033185716035 862.630003731485 393.808063318492 431.315001865742 1 2 5 5 3 4 3 5 2 5 4 1 
4 2 1 652.278739031219
7185.99 0 615.171 15.01 0 615.171 7185.99 -1185.99 615.171 15.01 -1185.99 615.171 0 0 -7170.98 0 0 1185.99 -7170.98 1185.99 4 2 1 1 3 4 
4 2 1 408.929780034375
15.01 0 615.171 27.275 0 619.478 7173.725 0 619.478 7185.99 0 615.171 -12.9992489783064 0 0 0 6742.79024859633 2367.81064824327 6752.9354482321 2375.93809546552 1 2 3 3 4 1 

TShapes 34
Ve
1e-007
7185.99 -1185.99 615.171
0 0

0101100
*
Ve
1e-007
7173.725 -1173.725 619.478
0 0

0101100
*
Ed
 1e-007 1 1 0
1  1 0 0 17.8720647659969
2  1 2 0 0 17.8720647659969
6  1 1 0
6  2 2 0
0

0101000
+34 0 -33 0 *
Ve
1e-007
27.275 -1173.725 619.478
0 0

0101100
*
Ed
 1e-007 1 1 0
1  2 0 0 7146.45
2  2 3 0 0 7146.45
6  3 1 0
6  4 3 0
0

0101000
+33 0 -31 0 *
Ve
1e-007
15.01 -1185.99 615.171
0 0

0101100
*
Ed
 1e-007 1 1 0
1  3 0 0 17.8720647659973
2  3 1 0 0 17.8720647659973
6  5 1 0
6  6 4 0
0

0101000
+29 0 -31 0 *
Ed
 1e-007 1 1 0
1  4 0 0 7170.98
2  4 1 0 0 7170.98
6  7 1 0
6  8 5 0
0

0101000
+34 0 -29 0 *
Wi

0101000
+32 0 +30 0 -28 0 -27 0 *
Fa
0  1e-007 1 0
2  1
0101000
+26 0 *
Ve
1e-007
7173.725 0 619.478
0 0

0101100
*
Ed
 1e-007 1 1 0
1  5 0 0 1173.725
2  5 3 0 0 1173.725
6  9 2 0
0

0101000
+24 0 -33 0 *
Ve
1e-007
27.275 0 619.478
0 0

0101100
*
Ed
 1e-007 1 1 0
1  6 0 0 7146.45
2  6 4 0 0 7146.45
6  10 3 0
6  11 6 0
0

0101000
+24 0 -22 0 *
Ed
 1e-007 1 1 0
1  7 0 0 1173.725
2  7 5 0 0 1173.725
6  12 4 0
0

0101000
+22 0 -31 0 *
Wi

0101000
-30 0 -23 0 +21 0 +20 0 *
Fa
0  1e-007 3 0
2  3
0101000
+19 0 *
Ve
1e-007
7185.99 0 615.171
0 0

0101100
*
Ed
 1e-007 1 1 0
1  8 0 0 12.9992489783058
2  8 2 0 0 12.9992489783058
6  13 2 0
6  14 6 0
0

0101000
+24 0 -17 0 *
Ed
 1e-007 1 1 0
1  9 0 0 1185.99
2  9 6 0 0 1185.99
6  15 2 0
6  16 5 0
0

0101000
+34 0 -17 0 *
Wi

0101000
-16 0 +23 0 -32 0 +15 0 *
Fa
0  1e-007 2 0
2  2
0101000
+14 0 *
Ve
1e-007
15.01 0 615.171
0 0

0101100
*
Ed
 1e-007 1 1 0
1  10 0 0 12.9992489783064
2  10 5 0 0 12.9992489783064
6  17 6 0
6  18 4 0
0

0101000
+12 0 -22 0 *
Ed
 1e-007 1 1 0
1  11 0 0 7170.98
2  11 6 0 0 7170.98
6  19 6 0
6  20 5 0
0

0101000
+17 0 -12 0 *
Wi

0101000
+11 0 -21 0 +16 0 +10 0 *
Fa
0  1e-007 4 0
2  6
0101000
+9 0 *
Ed
 1e-007 1 1 0
1  12 0 0 1185.99
2  12 5 0 0 1185.99
6  21 4 0
0

0101000
+29 0 -12 0 *
Wi

0101000
-10 0 -15 0 +27 0 +7 0 *
Fa
0  1e-007 6 0
2  5
0101000
+6 0 *
Wi

0101000
+28 0 -20 0 -11 0 -7 0 *
Fa
0  1e-007 5 0
2  4
0101000
+4 0 *
Sh

0101100
+25 0 +18 0 +13 0 +8 0 +5 0 +3 0 *
So

1100000
+2 0 *

+1 0 