DBRep_DrawableShape

CASCADE Topology V1, (c) Matra-Datavision
Locations 2
1
              1               0               0               0 
              0               1               0               0 
              0               0               1           -4000 
2  1 -1 0
Curve2ds 32
8 0 4000
1 18 0 0 -1 
8 0 4000
1 1 0 0 1 
8 -19 -16
1 -16 3 1 0 
8 -19 -16
1 -16 0 -1 -0 
8 -29.899999999999999 -14.9
1 -23.079999999999998 -5.9399999999999977 0.80000000000000004 -0.59999999999999998 
8 -29.899999999999999 -14.9
1 -14.9 0 -1 0 
8 -9 -6
1 -47 6 0 -1 
8 -9 -6
1 -6 0 -1 0 
8 -26.5 -23.5
1 -23.5 15 1 0 
8 -26.5 -23.5
1 -23.5 0 -1 -0 
8 -3.5 -0.5
1 -32 -0.5 0 -1 
8 -3.5 -0.5
1 0.5 0 -1 0 
8 -19 -16
1 -16 3 1 0 
8 -19 -16
1 -16 4000 -1 -0 
8 -29.899999999999999 -14.9
1 -23.079999999999998 -5.9399999999999977 0.80000000000000004 -0.59999999999999998 
8 -29.899999999999999 -14.9
1 -14.9 4000 -1 0 
8 -9 -6
1 -47 6 0 -1 
8 -9 -6
1 -6 4000 -1 0 
8 -26.5 -23.5
1 -23.5 15 1 0 
8 -26.5 -23.5
1 -23.5 4000 -1 -0 
8 -3.5 -0.5
1 -32 -0.5 0 -1 
8 -3.5 -0.5
1 0.5 4000 -1 0 
1 4 0 0 1 
1 0 0 0 1 
8 -4000 0
1 45 0 0 1 
8 -4000 0
1 3 0 0 -1 
1 3 0 0 1 
1 0 0 0 1 
1 15 0 0 1 
1 0 0 0 1 
1 3 0 0 1 
1 0 0 0 1 
Curves 23
1 0 60 4000 0 0 -1 
1 0 0 4000 0 0 -1 
1 0 60 4000 0 -1 0 
1 50 60 4000 -1 0 0 
1 32 60 4000 0 0 -1 
1 50 0 4000 0 0 -1 
1 0 0 4000 1 0 0 
1 16 57 4000 -1 -0 0 
1 23.079999999999998 65.939999999999998 4000 -0.80000000000000004 0.59999999999999998 0 
1 47 54 4000 0 1 0 
1 23.5 45 4000 -1 -0 0 
1 50 0 4000 0 1 0 
1 32 60.5 4000 0 1 0 
1 16 57 0 -1 -0 0 
1 23.079999999999998 65.939999999999998 -8.8928864272475039e-14 -0.80000000000000004 0.59999999999999998 0 
1 47 54 0 0 1 0 
1 23.5 45 0 -1 -0 0 
1 32 60.5 0 0 1 0 
1 32 57 4000 0 0 -1 
1 50 45 4000 0 -0 1 
1 35 57 4000 0 0 -1 
1 47 48 4000 0 0 -1 
1 47 45 4000 0 0 -1 
Polygon3D 0
PolygonOnTriangulations 12
2 3 4 
p 400.00000002 1 0 4000 
2 1 2 
p 442.00000001 1 0 4000 
2 3 4 
p 400.00000002 1 0 4000 
2 1 2 
p 444.5000000095 1 0 4000 
2 2 4 
p 24.00000008 1 0 60 
2 1 3 
p 24.00000008 1 0 60 
2 2 3 
p 50.5000000095 1 0 60 
2 3 4 
p 400.00000002 1 0 4000 
2 1 2 
p 444.225000009475 1 0 4000 
2 2 4 
p 20.00000008 1 0 50 
2 1 3 
p 20.00000008 1 0 50 
2 3 4 
p 49.225000009475 1 0 50 
Surfaces 10
1 0 60 4000 -1 0 0 0 -1 0 0 0 1 
1 50 60 4000 0 1 0 -1 0 0 0 -0 1 
1 32 61 4000 1 0 0 0 -1 0 0 0 -1 
1 0 0 4000 0 -1 0 1 0 0 -0 0 1 
1 0 60 4000 0 0 1 -1 0 0 0 -1 0 
1 32 57 4000 -0 1 0 1 0 0 0 0 -1 
1 35 57 4000 0.59999999999999998 0.80000000000000004 0 0.80000000000000004 -0.59999999999999998 -0 0 0 -1 
1 47 48 4000 1 0 0 0 -1 0 0 0 -1 
1 47 45 4000 -0 1 0 1 0 0 0 0 -1 
1 50 0 4000 1 0 0 -0 1 0 0 -0 1 
Triangulations 5
4 2 1 222.5000000475
0 60 4000 0 60 0 0 0 4000 0 0 0 0 0 0 -4000 60 0 60 -4000 1 2 4 4 3 1 
4 2 1 210.00000005
50 60 4000 50 60 0 0 60 4000 0 60 0 0 0 0 -4000 50 0 50 -4000 1 2 4 4 3 1 
4 2 1 221.125000047375
0 0 4000 0 0 0 50 0 4000 50 0 0 0 0 0 -4000 50 0 50 -4000 1 2 4 4 3 1 
4 2 1 49.8590625094872
50 60 4000 0 60 4000 0 0 4000 50 0 4000 -50 0 0 0 0 60 -50 60 4 1 2 2 3 4 
4 2 1 233.556250044869
50 0 4000 50 0 0 50 60 4000 50 60 0 0 0 0 -4000 60 0 60 -4000 1 2 4 4 3 1 

TShapes 65
Ve
1e-07
0 60 4000
0 0

0101100
*
Ed
 1e-07 1 1 0
1  1 0 0 4000
6  1 2 0
6  2 1 0
0

0101000
+65 0 -65 1 *
Ve
1e-07
0 0 4000
0 0

0101100
*
Ed
 1e-07 1 1 0
1  2 0 0 4000
6  3 1 0
6  4 3 0
0

0101000
+63 0 -63 1 *
Ed
 1e-07 1 1 0
1  3 0 0 60
6  5 1 2
6  6 1 0
6  7 4 0
0

0101000
+65 0 -63 0 *
Wi

0101000
+64 0 -62 0 -61 0 +61 1 *
Fa
0  1e-07 1 0
2  1
0111000
+60 0 *
Ve
2.00001e-07
32 60 4000
0 0

0101101
*
Ed
 1e-07 1 1 0
1  4 0 18 50
0

0101000
+58 0 -65 0 *
Ve
2.00001e-07
32 60 0
0 0

0101101
*
Ed
 1e-07 1 1 0
1  4 0 18 50
0

0101000
+56 2 -65 0 *
Ed
 1e-07 1 1 0
1  5 0 0 4000
2  1 2 0 0 4000
2  2 3 0 0 4000
0

0101000
+58 0 -56 0 *
Wi

0101000
-57 0 -64 0 +55 1 +54 0 *
Fa
0  1e-07 2 0

0111000
+53 0 *
Ve
1e-07
50 0 4000
0 0

0101100
*
Ed
 1e-07 1 1 0
1  6 0 0 4000
6  8 3 0
6  9 5 0
0

0101000
+51 0 -51 1 *
Ed
 1e-07 1 1 0
1  7 0 0 50
6  10 3 2
6  11 3 0
6  12 4 0
0

0101000
+63 0 -51 0 *
Wi

0101000
+62 0 -50 0 -49 0 +49 1 *
Fa
0  1e-07 4 0
2  3
0111000
+48 0 *
Ve
2.00001e-07
35 57 4000
0 0

0101101
*
Ve
2.00001e-07
32 57 4000
0 0

0101101
*
Ed
 1e-07 1 1 0
1  8 0 -19 -16
2  3 5 0 -19 -16
2  4 6 0 -19 -16
0

0101000
+46 0 -45 0 *
Ve
2.00001e-07
47 48 4000
0 0

0101101
*
Ed
 1e-07 1 1 0
1  9 0 -29.9 -14.9
2  5 5 0 -29.9 -14.9
2  6 7 0 -29.9 -14.9
0

0101000
+43 0 -46 0 *
Ve
2.00001e-07
47 45 4000
0 0

0101101
*
Ed
 1e-07 1 1 0
1  10 0 -9 -6
2  7 5 0 -9 -6
2  8 8 0 -9 -6
0

0101000
+41 0 -43 0 *
Ve
2.00001e-07
50 45 4000
0 0

0101101
*
Ed
 1e-07 1 1 0
1  11 0 -26.5 -23.5
2  9 5 0 -26.5 -23.5
2  10 9 0 -26.5 -23.5
0

0101000
+39 0 -41 0 *
Ed
 1e-07 1 1 0
1  12 0 0 45
0

0101000
+51 0 -39 0 *
Ed
 1e-07 1 1 0
1  13 0 -3.5 -0.5
2  11 5 0 -3.5 -0.5
2  12 3 0 -3.5 -0.5
0

0101000
+45 0 -58 0 *
Wi

0101000
+44 0 +42 0 +40 0 +38 0 +37 0 +49 0 +61 0 +57 0 +36 0 *
Fa
0  1e-07 5 0

0111000
+35 0 *
Ve
2.00001e-07
35 57 0
0 0

0101101
*
Ve
2.00001e-07
32 57 0
0 0

0101101
*
Ed
 1e-07 1 1 0
1  14 0 -19 -16
2  13 5 1 -19 -16
2  14 6 0 -19 -16
0

0101000
+33 0 -32 0 *
Ve
2.00001e-07
47 48 0
0 0

0101101
*
Ed
 1e-07 1 1 0
1  15 0 -29.9 -14.9
2  15 5 1 -29.9 -14.9
2  16 7 0 -29.9 -14.9
0

0101000
+30 0 -33 0 *
Ve
2.00001e-07
47 45 0
0 0

0101101
*
Ed
 1e-07 1 1 0
1  16 0 -9 -6
2  17 5 1 -9 -6
2  18 8 0 -9 -6
0

0101000
+28 0 -30 0 *
Ve
2.00001e-07
50 45 0
0 0

0101101
*
Ed
 1e-07 1 1 0
1  17 0 -26.5 -23.5
2  19 5 1 -26.5 -23.5
2  20 9 0 -26.5 -23.5
0

0101000
+26 0 -28 0 *
Ed
 1e-07 1 1 0
1  12 0 0 45
0

0101000
+51 0 -26 2 *
Ed
 1e-07 1 1 0
1  18 0 -3.5 -0.5
2  21 5 1 -3.5 -0.5
2  22 3 0 -3.5 -0.5
0

0101000
+32 0 -56 0 *
Wi

0101000
+31 0 +29 0 +27 0 +25 0 +24 1 +49 1 +61 1 +55 1 +23 0 *
Fa
0  1e-07 5 1

0111000
+22 0 *
Ed
 1e-07 1 1 0
1  19 0 1.43824424594907e-13 4000
2  23 3 0 1.43824424594907e-13 4000
2  24 6 0 1.43824424594907e-13 4000
0

0101000
+45 0 -32 0 *
Wi

0101000
-54 0 +23 0 +20 0 -36 0 *
Fa
0  1e-07 3 0

0111000
+19 0 *
Ed
 1e-07 1 1 0
1  20 0 -4000 0
2  25 10 0 -4000 0
2  26 9 0 -4000 0
0

0101000
+26 0 -39 0 *
Wi

0101000
+24 1 +50 0 -37 0 +17 0 *
Fa
0  1e-07 10 0

0111000
+16 0 *
Ed
 1e-07 1 1 0
1  21 0 1.43824424594907e-13 4000
2  27 6 0 1.43824424594907e-13 4000
2  28 7 0 1.43824424594907e-13 4000
0

0101000
+46 0 -33 0 *
Wi

0101000
-44 0 -20 0 +31 0 +14 0 *
Fa
0  1e-07 6 0

0111000
+13 0 *
Ed
 1e-07 1 1 0
1  22 0 1.43824424594907e-13 4000
2  29 7 0 1.43824424594907e-13 4000
2  30 8 0 1.43824424594907e-13 4000
0

0101000
+43 0 -30 0 *
Wi

0101000
-42 0 -14 0 +29 0 +11 0 *
Fa
0  1e-07 7 0

0111000
+10 0 *
Ed
 1e-07 1 1 0
1  23 0 1.43824424594907e-13 4000
2  31 8 0 1.43824424594907e-13 4000
2  32 9 0 1.43824424594907e-13 4000
0

0101000
+41 0 -28 0 *
Wi

0101000
-40 0 -11 0 +27 0 +8 0 *
Fa
0  1e-07 8 0

0111000
+7 0 *
Wi

0101000
-17 0 -38 0 -8 0 +25 0 *
Fa
0  1e-07 9 0

0111000
+5 0 *
Sh

0101000
+59 0 +52 0 +47 0 +34 0 -21 0 +18 0 +15 0 +12 0 +9 0 +6 0 
+4 0 *
So

0100000
+3 0 *
Co

1100000
+2 0 *

+1 0 
0

