DBRep_DrawableShape

CASCADE Topology V1, (c) Matra-Datavision
Locations 0
Curve2ds 8
1 0 1 1 0 
1 0 0 0 1 
1 2 0 0 1 
1 1 0 -1 0 
1 1 1 0 -1 
1 1 1 0 -1 
1 1 1 1 0 
1 2 0 -1 0 
Curves 4
7 0 0  8 9 2  17.75 10 8.5  17.75 9.6875 8.6775000000000002  17.75 9.375 8.8550000000000004  17.75 9.0625 9.0325000000000006  17.75 8.75 9.2100000000000009  17.75 8.4375 9.3874999999999993  17.75 8.125 9.5649999999999995  17.75 7.8125 9.7424999999999997  17.75 7.5 9.9199999999999999 
 0 9 1 9
7 0 0  8 9 2  17.75 5 8.5  16.768255199999999 4.9999707999999998 8.5  15.786483199999999 5.4407733 8.5  15.035558699999999 6.3212633 8.5  14.7454622 7.5 8.5  15.035558699999999 8.6787367 8.5  15.786483199999999 9.5592267 8.5  16.768255199999999 10.0000292 8.5  17.75 10 8.5 
 0 9 1 9
7 0 0  8 9 2  17.75 7.5 9.9199999999999999  17.75 7.1875 9.7424999999999997  17.75 6.875 9.5649999999999995  17.75 6.5625 9.3874999999999993  17.75 6.25 9.2100000000000009  17.75 5.9375 9.0325000000000006  17.75 5.625 8.8550000000000004  17.75 5.3125 8.6775000000000002  17.75 5 8.5 
 0 9 1 9
7 0 0  8 9 2  17.75 10 8.5  18.731744800000001 10.0000292 8.5  19.713516800000001 9.5592267 8.5  20.464441300000001 8.6787367 8.5  20.754537800000001 7.5 8.5  20.464441300000001 6.3212633 8.5  19.713516800000001 5.4407733 8.5  18.731744800000001 4.9999707999999998 8.5  17.75 5 8.5 
 0 9 1 9
Polygon3D 0
PolygonOnTriangulations 0
Surfaces 2
9 0 0 0 0 8 8 9 9 2 2 17.75 10 8.5  17.75 9.6875 8.6775000000000002  17.75 9.375 8.8550000000000004  17.75 9.0625 9.0325000000000006  17.75 8.75 9.2100000000000009  17.75 8.4375 9.3874999999999993  17.75 8.125 9.5649999999999995  17.75 7.8125 9.7424999999999997  17.75 7.5 9.9199999999999999  
16.768255199999999 10.0000292 8.5  16.890973299999999 9.6875256000000007 8.6775000000000002  17.013691399999999 9.3750219000000001 8.8550000000000004  17.136409499999999 9.0625183000000007 9.0325000000000006  17.259127599999999 8.7500146000000001 9.2100000000000009  17.3818457 8.4375110000000006 9.3874999999999993  17.5045638 8.1250073 9.5649999999999995  17.6272819 7.8125036999999997 9.7424999999999997  17.75 7.5 9.9199999999999999  
15.786483199999999 9.5592267 8.5  16.0319228 9.3018234 8.6775000000000002  16.277362400000001 9.0444200000000006 8.8550000000000004  16.522801999999999 8.7870167000000006 9.0325000000000006  16.7682416 8.5296132999999994 9.2100000000000009  17.013681200000001 8.2722099999999994 9.3874999999999993  17.259120800000002 8.0148066999999994 9.5649999999999995  17.504560399999999 7.7574033 9.7424999999999997  17.75 7.5 9.9199999999999999  
15.035558699999999 8.6787367 8.5  15.3748638 8.5313946000000005 8.6775000000000002  15.714169 8.3840524999999992 8.8550000000000004  16.0534742 8.2367103999999998 9.0325000000000006  16.392779300000001 8.0893683999999997 9.2100000000000009  16.732084499999999 7.9420263000000002 9.3874999999999993  17.071389700000001 7.7946841999999998 9.5649999999999995  17.410694800000002 7.6473421000000004 9.7424999999999997  17.75 7.5 9.9199999999999999  
14.7454622 7.5 8.5  15.121029399999999 7.5 8.6775000000000002  15.4965966 7.5 8.8550000000000004  15.872163799999999 7.5 9.0325000000000006  16.247731099999999 7.5 9.2100000000000009  16.623298299999998 7.5 9.3874999999999993  16.998865500000001 7.5 9.5649999999999995  17.374432800000001 7.5 9.7424999999999997  17.75 7.5 9.9199999999999999  
15.035558699999999 6.3212633 8.5  15.3748638 6.4686054000000004 8.6775000000000002  15.714169 6.6159474999999999 8.8550000000000004  16.0534742 6.7632896000000002 9.0325000000000006  16.392779300000001 6.9106316000000003 9.2100000000000009  16.732084499999999 7.0579736999999998 9.3874999999999993  17.071389700000001 7.2053158000000002 9.5649999999999995  17.410694800000002 7.3526578999999996 9.7424999999999997  17.75 7.5 9.9199999999999999  
15.786483199999999 5.4407733 8.5  16.0319228 5.6981766 8.6775000000000002  16.277362400000001 5.9555800000000003 8.8550000000000004  16.522801999999999 6.2129833000000003 9.0325000000000006  16.7682416 6.4703866999999997 9.2100000000000009  17.013681200000001 6.7277899999999997 9.3874999999999993  17.259120800000002 6.9851932999999997 9.5649999999999995  17.504560399999999 7.2425967 9.7424999999999997  17.75 7.5 9.9199999999999999  
16.768255199999999 4.9999707999999998 8.5  16.890973299999999 5.3124744000000002 8.6775000000000002  17.013691399999999 5.6249780999999999 8.8550000000000004  17.136409499999999 5.9374817000000002 9.0325000000000006  17.259127599999999 6.2499853999999999 9.2100000000000009  17.3818457 6.5624890000000002 9.3874999999999993  17.5045638 6.8749927 9.5649999999999995  17.6272819 7.1874963000000003 9.7424999999999997  17.75 7.5 9.9199999999999999  
17.75 5 8.5  17.75 5.3125 8.6775000000000002  17.75 5.625 8.8550000000000004  17.75 5.9375 9.0325000000000006  17.75 6.25 9.2100000000000009  17.75 6.5625 9.3874999999999993  17.75 6.875 9.5649999999999995  17.75 7.1875 9.7424999999999997  17.75 7.5 9.9199999999999999  

0 9
1 9

0 9
1 9

9 0 0 0 0 8 8 9 9 2 2 17.75 5 8.5  17.75 5.3125 8.6775000000000002  17.75 5.625 8.8550000000000004  17.75 5.9375 9.0325000000000006  17.75 6.25 9.2100000000000009  17.75 6.5625 9.3874999999999993  17.75 6.875 9.5649999999999995  17.75 7.1875 9.7424999999999997  17.75 7.5 9.9199999999999999  
18.731744800000001 4.9999707999999998 8.5  18.609026700000001 5.3124744000000002 8.6775000000000002  18.486308600000001 5.6249780999999999 8.8550000000000004  18.363590500000001 5.9374817000000002 9.0325000000000006  18.240872400000001 6.2499853999999999 9.2100000000000009  18.1181543 6.5624890000000002 9.3874999999999993  17.9954362 6.8749927 9.5649999999999995  17.8727181 7.1874963000000003 9.7424999999999997  17.75 7.5 9.9199999999999999  
19.713516800000001 5.4407733 8.5  19.4680772 5.6981766 8.6775000000000002  19.222637599999999 5.9555800000000003 8.8550000000000004  18.977198000000001 6.2129833000000003 9.0325000000000006  18.7317584 6.4703866999999997 9.2100000000000009  18.486318799999999 6.7277899999999997 9.3874999999999993  18.240879199999998 6.9851932999999997 9.5649999999999995  17.995439600000001 7.2425967 9.7424999999999997  17.75 7.5 9.9199999999999999  
20.464441300000001 6.3212633 8.5  20.1251362 6.4686054000000004 8.6775000000000002  19.785831000000002 6.6159474999999999 8.8550000000000004  19.4465258 6.7632896000000002 9.0325000000000006  19.107220699999999 6.9106316000000003 9.2100000000000009  18.767915500000001 7.0579736999999998 9.3874999999999993  18.428610299999999 7.2053158000000002 9.5649999999999995  18.089305199999998 7.3526578999999996 9.7424999999999997  17.75 7.5 9.9199999999999999  
20.754537800000001 7.5 8.5  20.378970599999999 7.5 8.6775000000000002  20.0034034 7.5 8.8550000000000004  19.627836200000001 7.5 9.0325000000000006  19.252268900000001 7.5 9.2100000000000009  18.876701700000002 7.5 9.3874999999999993  18.501134499999999 7.5 9.5649999999999995  18.125567199999999 7.5 9.7424999999999997  17.75 7.5 9.9199999999999999  
20.464441300000001 8.6787367 8.5  20.1251362 8.5313946000000005 8.6775000000000002  19.785831000000002 8.3840524999999992 8.8550000000000004  19.4465258 8.2367103999999998 9.0325000000000006  19.107220699999999 8.0893683999999997 9.2100000000000009  18.767915500000001 7.9420263000000002 9.3874999999999993  18.428610299999999 7.7946841999999998 9.5649999999999995  18.089305199999998 7.6473421000000004 9.7424999999999997  17.75 7.5 9.9199999999999999  
19.713516800000001 9.5592267 8.5  19.4680772 9.3018234 8.6775000000000002  19.222637599999999 9.0444200000000006 8.8550000000000004  18.977198000000001 8.7870167000000006 9.0325000000000006  18.7317584 8.5296132999999994 9.2100000000000009  18.486318799999999 8.2722099999999994 9.3874999999999993  18.240879199999998 8.0148066999999994 9.5649999999999995  17.995439600000001 7.7574033 9.7424999999999997  17.75 7.5 9.9199999999999999  
18.731744800000001 10.0000292 8.5  18.609026700000001 9.6875256000000007 8.6775000000000002  18.486308600000001 9.3750219000000001 8.8550000000000004  18.363590500000001 9.0625183000000007 9.0325000000000006  18.240872400000001 8.7500146000000001 9.2100000000000009  18.1181543 8.4375110000000006 9.3874999999999993  17.9954362 8.1250073 9.5649999999999995  17.8727181 7.8125036999999997 9.7424999999999997  17.75 7.5 9.9199999999999999  
17.75 10 8.5  17.75 9.6875 8.6775000000000002  17.75 9.375 8.8550000000000004  17.75 9.0625 9.0325000000000006  17.75 8.75 9.2100000000000009  17.75 8.4375 9.3874999999999993  17.75 8.125 9.5649999999999995  17.75 7.8125 9.7424999999999997  17.75 7.5 9.9199999999999999  

1 9
2 9

0 9
1 9

Triangulations 0

TShapes 14
Ve
1e-07
17.75 7.5 9.92
0 0

0101100
*
Ed
 0.0001 1 1 1
2  1 1 0 0 1
0

0101100
+14 0 -14 0 *
Ve
1e-07
17.75 10 8.5
0 0

0101100
*
Ed
 1.06581410364015e-14 1 1 0
2  2 1 0 0 1
2  3 2 0 0 1
1  1 0 0 1
0

0101000
+12 0 -14 0 *
Ve
1e-07
17.75 5 8.5
0 0

0101100
*
Ed
 0.0001 1 1 0
2  4 1 0 0 1
1  2 0 0 1
0

0101000
+10 0 -12 0 *
Ed
 1.06581410364015e-14 1 1 0
2  5 1 0 0 1
2  6 2 0 0 1
1  3 0 0 1
0

0101000
+14 0 -10 0 *
Wi

0101100
-13 0 -11 0 -9 0 -8 0 *
Fa
0  1e-07 1 0

0101000
+7 0 *
Ed
 0.0001 1 1 1
2  7 2 0 0 1
0

0101100
+14 0 -14 0 *
Ed
 0.0001 1 1 0
2  8 2 0 0 1
1  4 0 0 1
0

0101000
+12 0 -10 0 *
Wi

0101100
-5 0 +8 0 -4 0 +11 0 *
Fa
0  1e-07 2 0

0101000
+3 0 *
Sh

1101000
+6 0 +2 0 *

+1 0
