DBRep_DrawableShape

CASCADE Topology V1, (c) Matra-Datavision
Locations 0
Curve2ds 12
1 0 0 -1 0 
1 0 1185.99 0 -1 
1 409.132301253614 7159.29919199295 -0.0570538896013675 -0.998371100183371 
1 -7170.98 0 0 1 
1 0 0 -1 0 
1 -90.3181191677507 1191.143 0.998376389584291 -0.0569612563119542 
1 -90.3181191677507 0 0 1 
1 0 0 -1 0 
1 -7181.286 1191.143 1 0 
1 -7181.286 0 0 1 
1 318.590073412948 7169.62638925221 0.993510830558728 -0.113737546845831 
1 0 0 -1 0 
Curves 12
1 7185.99 -1185.99 615.171 -1 0 0 
1 7185.99 -1185.99 615.171 0 1 0 
1 7185.99 0 615.171 -1 0 0 
1 15.01 -1185.99 615.171 0 1 0 
1 7185.99 0 615.171 0.0570538896013702 0 -0.998371100183371 
1 7191.143 -1191.143 525 -0.0569612563119567 0.0569612563119542 0.99675013446637 
1 7191.143 0 525 0 -1 0 
1 7191.143 0 525 -1 0 0 
1 9.857 -1191.143 525 1 0 0 
1 9.857 0 525 0 -1 0 
1 9.857 -1191.143 525 0.056961256311954 0.0569612563119542 0.996750134466371 
1 15.01 0 615.171 -0.0570538896013675 0 -0.998371100183371 
Polygon3D 0
PolygonOnTriangulations 21
2 1 2 
p 717.09800002 1 0 7170.98 
2 2 3 
p 836.24740001 1 0 7170.98 
2 3 1 
p 119.11430002 1 0 1185.99 
2 3 4 
p 717.09800002 1 0 7170.98 
2 3 1 
p 836.24740001 1 0 7170.98 
2 2 3 
p 119.11430002 1 0 1185.99 
2 1 2 
p 36.06840008 1 0 90.3181191677507 
2 3 4 
p 98.1414800400001 1 0 90.3181191677507 
2 4 3 
p 36.06840008 1 0 90.4649990825182 
2 1 2 
p 98.1414800400001 1 0 90.4649990825182 
2 2 4 
p 119.11430002 1 0 1191.143 
2 1 3 
p 538.53028004 1 0 1191.143 
2 1 2 
p 718.12860002 1 0 7181.286 
2 4 2 
p 840.690834008 1 0 7181.286 
2 4 3 
p 718.12860002 1 0 7181.286 
2 4 1 
p 840.690834008 1 0 7181.286 
2 4 1 
p 119.11430002 1 0 1191.143 
2 1 2 
p 36.06840008 1 0 90.4649990825181 
2 4 3 
p 98.1414800400001 1 0 90.4649990825181 
2 3 4 
p 36.06840008 1 0 90.3181191677507 
2 1 2 
p 98.1414800400001 1 0 90.3181191677507 
Surfaces 6
1 7185.99 -1185.99 615.171 0 0 1 1 0 0 0 1 0 
1 7185.99 0 615.171 0.998371100183371 0 0.0570538896013702 -0.0570538896013702 0 0.998371100183371 0 -1 0 
1 15.01 0 615.171 0 1 0 0.0570538896013675 0 0.998371100183371 0.998371100183371 0 -0.0570538896013675 
1 7191.143 0 525 0 0 -1 1 0 0 0 -1 0 
1 15.01 -1185.99 615.171 -0.998371100183371 0 0.0570538896013675 0.056961256311954 0.0569612563119542 0.996750134466371 -0.00324986122917743 0.998376389584291 -0.0568684721319927 
1 7185.99 -1185.99 615.171 0 -0.998371100183371 0.0570538896013677 -0.0569612563119567 0.0569612563119542 0.996750134466371 -0.998376389584291 -0.00324986122917759 -0.0568684721319952 
Triangulations 6
4 2 1 595.74700005
7185.99 -1185.99 615.171 15.01 -1185.99 615.171 7185.99 0 615.171 15.01 0 615.171 0 0 -7170.98 0 0 1185.99 -7170.98 1185.99 4 2 1 1 3 4 
5 4 1 468.3052985245
7191.143 -1191.143 525 7185.99 -1185.99 615.171 15.01 -1185.99 615.171 9.857 -1191.143 525 3597.94021934507 -1188.58321934507 569.792932551156 -90.4649990825181 -9.09494701772928e-013 0 0 408.468029787916 7159.33712218116 318.590073412948 7169.62638925221 159.001515352699 3584.81319462611 1 2 5 5 3 4 3 5 2 5 4 1 
5 4 1 77.59135005
7185.99 0 615.171 7191.143 0 525 7185.99 -1185.99 615.171 7191.143 -1191.143 525 7188.5665 -595.5715 570.0855 0 0 -90.3181191677507 0 0 1185.99 -90.3181191677507 1191.143 -45.1590595838753 595.5715 4 2 5 5 1 3 1 5 2 5 3 4 
5 4 1 468.3052985245
15.01 0 615.171 9.857 0 525 7185.99 0 615.171 7191.143 0 525 3603.05972623102 0 569.791980201302 0 0 -90.3181191677507 0 409.132301253614 7159.29919199295 319.402179472095 7169.58840455144 159.407091042932 3584.79420227572 2 1 5 5 3 4 3 5 1 5 4 2 
5 4 1 77.59135005
9.857 -1191.143 525 15.01 -1185.99 615.171 15.01 0 615.171 9.857 0 525 12.4251403274673 -593.003359672533 569.939216275578 -90.4649990825182 2.27373675443232e-013 0 0 67.5554803734146 1184.06441428307 -22.6159973553281 1189.2090478186 -11.4547593545518 594.604523909301 4 1 5 5 2 3 2 5 1 5 3 4 
4 2 1 612.81117004
7191.143 0 525 9.857 0 525 7191.143 -1191.143 525 9.857 -1191.143 525 0 0 -7181.286 0 0 1191.143 -7181.286 1191.143 4 2 1 1 3 4 

TShapes 34
Ve
1e-007
7185.99 -1185.99 615.171
0 0

0101100
*
Ve
1e-007
15.01 -1185.99 615.171
0 0

0101100
*
Ed
 1e-007 1 1 0
1  1 0 0 7170.98
2  1 1 0 0 7170.98
6  1 1 0
6  2 2 0
0

0101000
+34 0 -33 0 *
Ve
1e-007
7185.99 0 615.171
0 0

0101100
*
Ed
 1e-007 1 1 0
1  2 0 0 1185.99
2  2 2 0 0 1185.99
6  3 3 0
0

0101000
+34 0 -31 0 *
Ve
1e-007
15.01 0 615.171
0 0

0101100
*
Ed
 1e-007 1 1 0
1  3 0 0 7170.98
2  3 3 0 0 7170.98
6  4 1 0
6  5 4 0
0

0101000
+31 0 -29 0 *
Ed
 1e-007 1 1 0
1  4 0 0 1185.99
2  4 1 0 0 1185.99
6  6 5 0
0

0101000
+33 0 -29 0 *
Wi

0101000
-32 0 +30 0 +28 0 -27 0 *
Fa
0  1e-007 1 0
2  1
0101000
+26 0 *
Ve
1e-007
7191.143 0 525
0 0

0101100
*
Ed
 1e-007 1 1 0
1  5 0 0 90.3181191677507
2  5 2 0 0 90.3181191677507
6  7 3 0
6  8 4 0
0

0101000
+31 0 -24 0 *
Ve
1e-007
7191.143 -1191.143 525
0 0

0101100
*
Ed
 1e-007 1 1 0
1  6 0 0 90.4649990825182
2  6 2 0 0 90.4649990825182
6  9 3 0
6  10 2 0
0

0101000
+22 0 -34 0 *
Ed
 1e-007 1 1 0
1  7 0 0 1191.143
2  7 2 0 0 1191.143
6  11 3 0
6  12 6 0
0

0101000
+24 0 -22 0 *
Wi

0101000
-23 0 -30 0 -21 0 -20 0 *
Fa
0  1e-007 2 0
2  3
0101000
+19 0 *
Ve
1e-007
9.857 0 525
0 0

0101100
*
Ed
 1e-007 1 1 0
1  8 0 0 7181.286
2  8 4 0 0 7181.286
6  13 6 0
6  14 4 0
0

0101000
+24 0 -17 0 *
Ve
1e-007
9.857 -1191.143 525
0 0

0101100
*
Ed
 1e-007 1 1 0
1  9 0 0 7181.286
2  9 4 0 0 7181.286
6  15 6 0
6  16 2 0
0

0101000
+15 0 -22 0 *
Ed
 1e-007 1 1 0
1  10 0 0 1191.143
2  10 4 0 0 1191.143
6  17 5 0
0

0101000
+17 0 -15 0 *
Wi

0101000
-16 0 +20 0 -14 0 -13 0 *
Fa
0  1e-007 4 0
2  6
0101000
+12 0 *
Ed
 1e-007 1 1 0
1  11 0 0 90.4649990825181
2  11 6 0 0 90.4649990825181
6  18 5 0
6  19 2 0
0

0101000
+15 0 -33 0 *
Ed
 1e-007 1 1 0
1  12 0 0 90.3181191677507
2  12 3 0 0 90.3181191677507
6  20 5 0
6  21 4 0
0

0101000
+29 0 -17 0 *
Wi

0101000
+10 0 +27 0 +9 0 +13 0 *
Fa
0  1e-007 5 0
2  5
0101000
+8 0 *
Wi

0101000
-9 0 -28 0 +23 0 +16 0 *
Fa
0  1e-007 3 0
2  4
0101000
+6 0 *
Wi

0101000
+21 0 +32 0 -10 0 +14 0 *
Fa
0  1e-007 6 0
2  2
0101000
+4 0 *
Sh

0101100
+25 0 +18 0 +11 0 +7 0 +5 0 +3 0 *
So

1100000
+2 0 *

+1 0 