DBRep_DrawableShape

CASCADE Topology V1, (c) Matra-Datavision
Locations 0
Curve2ds 19
1 1 0 0 1 
7 0 0  3 4 2  0 5.5511151231257827e-17  0 0.33333320479901468  0 0.66666637505473136  0 1 
 0 4 1 4
1 0 0 1 0 
1 1 0 0 1 
7 0 0  3 4 2  0 5.5511151231257827e-17  0 0.33333342741804467  0 0.6666657485907499  0 1 
 0 4 1 4
1 0 1 1 0 
7 0 0  9 10 2  0.23463443070386139 1  0.20856390320910995 0.99999999999999356  0.18249569915287864 1.0000000000000273  0.15641214728476938 0.99999999999994382  0.13037526357806942 1.0000000000000644  0.10425208648310483 0.9999999999999537  0.078234080547989387 1.0000000000000209  0.052130207627282314 0.99999999999999523  0.026070726562726628 1.0000000000000004  1.3877787807814457e-17 1 
 0 10 1 10
7 0 0  1 2 2  0.23463443070386136 1  1 1 
 0.23463443070386136 2 1 2
7 0 0  9 18 3  1 -2.9982447802020007e-17  1.0000000000000115 0.055556589437392827  0.99999999999996236 0.11091729121676207  1.0000000000000675 0.1670538246432397  0.99999999999991562 0.22169111481892928  1.000000000000079 0.27816564268103255  0.99999999999994349 0.33313345714603404  1.0000000000000326 0.38891665698792233  0.9999999999999849 0.44443212479187771  1.0000000000000266 0.5555447586029213  0.99999999999988232 0.61109979508745327  1.0000000000002403 0.66665490328515142  0.99999999999968747 0.72221093709078898  1.0000000000002813 0.77776825216512213  0.99999999999982114 0.83332670592718461  1.000000000000077 0.88888565756277482  0.9999999999999809 0.94444396801717245  1 1 
 0.23463443070386136 10 0.61731721535193063 8 1 10
1 0 0 1 0 
7 0 0  3 4 2  0 -1.1102230246251565e-16  0 0.33333336775305544  0 0.66666665138434156  0 1 
 0 4 1 4
1 0 0 1 0 
7 0 0  9 26 4  0 -5.5511151231257827e-17  0 0.055555576739308749  0 0.1111112209475672  0 0.16666688706135191  0 0.22222254355853371  0 0.27777817295789187  0 0.33333377181964829  0 0.38888935074489805  0 0.44444493437608706  0 0.52777837490700052  0 0.55555619048977234  0 0.5833340082161903  0 0.61111182815741005  0 0.63888965038470047  0 0.66666747496907941  0 0.69444530198191923  0 0.72222313149424877  0 0.77777879566039554  0 0.80555447149337167  0 0.83334456969709392  0 0.86108964561935963  0 0.88892046867055241  0 0.91664284403423846  0 0.94445770976451404  0 0.972222145334668  0 0.99999999999999989 
 0 10 0.5 8 0.75 8 1 10
1 0 0 1 0 
7 0 0  6 7 2  1 1  1.0000000000000011 0.83333288878956724  0.99999999999999623 0.66667437823153908  1.0000000000000036 0.49999070877114338  0.99999999999999845 0.33333977102556345  1.0000000000000004 0.16666626335293283  1 -1.1102230246251565e-16 
 0 7 1 7
1 0 0 0 1 
7 0 0  10 20 3  1 0  1.0000000000000306 0.050000008116959392  0.99999999999988021 0.10000303445399232  1.0000000000002527 0.14999597695342917  0.99999999999962907 0.20000325753931711  1.000000000000405 0.25000150595174175  0.9999999999996696 0.29999720697791132  1.0000000000001938 0.35000270688328561  0.99999999999992506 0.39999981285703595  1.0000000000000138 0.45000044904965575  0.99999999999999156 0.55000045940440212  1.000000000000022 0.60000142364519204  0.99999999999995737 0.64999548382470129  1.0000000000000633 0.70001307794311363  0.99999999999992406 0.74998092775270064  1.0000000000000699 0.80002020258928797  0.99999999999995159 0.84998761631566544  1.0000000000000235 0.90000526024529959  0.99999999999999334 0.95000000902341364  1 1 
 0 11 0.5 9 1 11
1 0 1 1 0 
7 0 0  8 9 2  1 1  0.87499930555963168 1.000000000000002  0.7500218035915498 0.99999999999999234  0.62495689884805028 1.0000000000000164  0.5000534467018346 0.99999999999997735  0.37496338507190569 1.0000000000000213  0.25001571334854433 0.99999999999998712  0.12499980062100147 1.0000000000000047  -1.1102230246251565e-16 1 
 0 9 1 9
Curves 10
7 0 0  3 4 8  21621.618432333333 21428.574246666663 19558.820725000001  21621.628284500002 21428.572018333332 16470.591545000003  21621.618432333333 21428.574246666663 13382.349018333334  21621.59872316667 21428.571381666668 10294.109188333334 
 -3 1 -2 1 -1 1 0 1 1 1 2 1 3 1 4 1
7 0 0  3 4 8  4324.3360519999997 21428.572973333336 16470.590431666664  21621.62081 21428.572973333336 16470.589638333331  38918.928783333329 21428.572973333336 16470.589  56216.218313333331 21428.5717 16470.586298333335 
 -3 1 -2 1 -1 1 0 1 1 1 2 1 3 1 4 1
7 0 0  3 4 8  38918.899218333332 21428.574246666663 19558.819134999998  38918.938954999998 21428.572018333332 16470.590588333333  38918.899218333332 21428.574246666663 13382.350448333333  38918.62296666667 21428.571381666668 10294.100128333333 
 -3 1 -2 1 -1 1 0 1 1 1 2 1 3 1 4 1
7 0 0  3 4 8  29738.697688333334 21428.574246666663 13382.349727833334  25680.169106666668 21428.572018333332 13382.352826  21621.612548333334 21428.574246666663 13382.347903000002  17563.012125000001 21428.571381666668 13382.323742999999 
 -3 1 -2 1 -1 1 0 1 1 1 2 1 3 1 4 1
7 0 0  3 4 8  4324.3024346666662 21428.574246666663 13382.349015  21621.636068333333 21428.572018333332 13382.349811666667  38918.901443333336 21428.574246666663 13382.353308333333  56215.916953333333 21428.571381666668 13382.329465000001 
 -3 1 -2 1 -1 1 0 1 1 1 2 1 3 1 4 1
7 0 0  3 4 8  25679.910976666666 21428.572973333336 1029.4074616666667  25680.177055 21428.572973333336 7205.8852513333331  25680.426911666669 21428.572973333336 13382.350286666668  25680.662475000005 21428.5717 19558.820723333334 
 -3 1 -2 1 -1 1 0 1 1 1 2 1 3 1 4 1
7 0 0  3 4 8  29738.711360000001 21428.572973333336 6868.6695194500016  25680.171965000001 21428.572973333336 7205.8836613333342  21621.619225000002 21428.572973333336 7543.0977543333338  17563.039463333334 21428.5717 7880.3091450000011 
 -3 1 -2 1 -1 1 0 1 1 1 2 1 3 1 4 1
7 0 0  3 4 8  21621.630428666667 21428.572973333336 19221.613245  21621.620496333329 21428.572973333336 13382.350606666667  21621.638378666667 21428.572973333336 7543.1014696666671  21621.678190666669 21428.5717 1703.86069045 
 -3 1 -2 1 -1 1 0 1 1 1 2 1 3 1 4 1
7 0 0  3 4 8  12441.438355 21428.572973333336 7205.8835225000003  25680.16561 21428.572973333336 7205.8829271666673  38918.94531333333 21428.572973333336 7205.8835225000003  52157.634096666668 21428.5717 7205.881516833334 
 -3 1 -2 1 -1 1 0 1 1 1 2 1 3 1 4 1
7 0 0  3 4 8  38918.926553333338 21428.574246666663 1029.4026333333334  38918.931963333336 21428.572018333332 7205.8880326666658  38918.926553333338 21428.574246666663 13382.343770000001  38918.995538333329 21428.571381666668 19558.809600000001 
 -3 1 -2 1 -1 1 0 1 1 1 2 1 3 1 4 1
Polygon3D 0
PolygonOnTriangulations 0
Surfaces 9
9 0 0 0 0 3 3 4 4 8 8 4324.3169779999998 21428.575519999999 19558.830259999999  4324.3455889999996 21428.5717 16470.59059  4324.3169779999998 21428.575519999999 13382.349969999999  4324.2011070000008 21428.5717 10294.10362  
21621.629710000001 21428.5717 19558.82072  21621.61636 21428.573609999999 16470.592499999999  21621.629710000001 21428.5717 13382.347109999999  21621.681209999999 21428.5717 10294.11793  
38918.918610000001 21428.575519999999 19558.824540000001  38918.933869999993 21428.5717 16470.588679999997  38918.918610000001 21428.575519999999 13382.354740000001  38918.800349999998 21428.5717 10294.112209999999  
56216.091159999996 21428.5717 19558.79593  56216.281889999998 21428.5717 16470.596310000001  56216.091159999996 21428.5717 13382.33662  56214.855190000002 21428.569790000001 10294.034  

-3 1
-2 1
-1 1
0 1
1 1
2 1
3 1
4 1

-3 1
-2 1
-1 1
0 1
1 1
2 1
3 1
4 1

9 0 0 0 0 3 3 4 4 8 8 -7207.2162630000003 21428.575519999999 19558.822630000002  -7207.2048190000005 21428.5717 16470.594410000002  -7207.2162630000003 21428.575519999999 13382.35283  -7207.2205540000004 21428.5717 10294.11507  
7207.2114940000001 21428.5717 19558.81882  7207.2095870000003 21428.573609999999 16470.592499999999  7207.2114940000001 21428.5717 13382.347109999999  7207.2153090000002 21428.5717 10294.11125  
21621.622089999997 21428.575519999999 19558.824540000001  21621.625900000003 21428.5717 16470.59059  21621.622089999997 21428.575519999999 13382.35188  21621.614460000001 21428.5717 10294.112209999999  
36036.010740000005 21428.5717 19558.807369999999  36036.056520000006 21428.5717 16470.594410000002  36036.010740000005 21428.5717 13382.339480000001  36035.919190000001 21428.569790000001 10294.09504  

-3 1
-2 1
-1 1
0 1
1 1
2 1
3 1
4 1

-3 1
-2 1
-1 1
0 1
1 1
2 1
3 1
4 1

9 0 0 0 0 3 3 4 4 8 8 20900.859830000001 21428.575519999999 19558.82645  20900.907520000001 21428.5717 16470.59059  20900.859830000001 21428.575519999999 13382.354740000001  20900.701519999999 21428.5717 10294.121739999999  
38918.952939999996 21428.5717 19558.824540000001  38918.918610000001 21428.573609999999 16470.59059  38918.952939999996 21428.5717 13382.358549999999  38919.029240000003 21428.5717 10294.113160000001  
56936.897279999997 21428.575519999999 19558.822630000002  56936.94687 21428.5717 16470.588679999997  56936.897279999997 21428.575519999999 13382.35664  56936.737059999999 21428.5717 10294.12651  
74954.696660000001 21428.5717 19558.816910000001  74955.062870000009 21428.5717 16470.588679999997  74954.696660000001 21428.5717 13382.357600000001  74952.651979999995 21428.569790000001 10294.190410000001  

-3 1
-2 1
-1 1
0 1
1 1
2 1
3 1
4 1

-3 1
-2 1
-1 1
0 1
1 1
2 1
3 1
4 1

9 0 0 0 0 3 3 4 4 8 8 29738.712309999999 21428.575519999999 285.5454087  29738.716130000001 21428.5717 6888.5102270000007  29738.691330000001 21428.575519999999 13372.4308  29738.704680000003 21428.5717 19915.864939999999  
25680.187230000003 21428.5717 1052.5550840000001  25680.166239999999 21428.573609999999 7199.272156  25680.179599999999 21428.5717 13385.65826  25680.129999999997 21428.5717 19552.211759999998  
21621.606830000001 21428.575519999999 1680.6894539999998  21621.625900000003 21428.5717 7549.7140879999997  21621.604919999998 21428.575519999999 13379.040720000001  21621.629710000001 21428.5717 19228.210449999999  
17563.06076 21428.5717 2447.6511479999999  17563.026430000002 21428.5717 7860.4879380000002  17563.070299999999 21428.5717 13392.251969999999  17562.76512 21428.569790000001 18864.446640000002  

-3 1
-2 1
-1 1
0 1
1 1
2 1
3 1
4 1

-3 1
-2 1
-1 1
0 1
1 1
2 1
3 1
4 1

9 0 0 0 0 3 3 4 4 8 8 12440.900799999999 21428.575519999999 1029.404759  25679.910660000001 21428.5717 1029.408813  38918.922420000003 21428.575519999999 1029.404759  52157.958979999996 21428.5717 1029.3879509999999  
12441.44821 21428.5717 7205.8877939999993  25680.164339999999 21428.573609999999 7205.8839800000005  38918.956760000001 21428.5717 7205.8877939999993  52157.600400000003 21428.5717 7205.8930399999999  
12441.93649 21428.575519999999 13382.3452  25680.425639999998 21428.5717 13382.35283  38918.922420000003 21428.575519999999 13382.3452  52157.443999999996 21428.5717 13382.32899  
12442.506789999999 21428.5717 19558.805469999999  25680.618290000002 21428.5717 19558.82835  38918.994899999998 21428.5717 19558.805469999999  52157.375339999999 21428.569790000001 19558.807369999999  

-3 1
-2 1
-1 1
0 1
1 1
2 1
3 1
4 1

-3 1
-2 1
-1 1
0 1
1 1
2 1
3 1
4 1

9 0 0 0 0 3 3 4 4 8 8 27648.809430000001 21473.424909999998 6464.8823739999998  26353.759770000001 21424.917219999999 7213.1261830000003  21017.204280000002 21398.35167 7917.8910260000002  19307.13463 21486.019130000001 8727.3597719999998  
29738.971710000002 21432.043079999999 6880.5775640000002  25680.089949999998 21421.176909999998 7204.8110960000004  21621.683120000002 21454.687119999999 7535.4728700000005  17562.923430000003 21365.055080000002 7840.495586  
31827.575679999998 21369.83871 7224.8115540000008  25006.910319999999 21461.814879999998 7202.9194829999997  22225.801470000002 21354.33769 7198.795795  15819.541929999999 21625.185009999997 7192.4967769999994  
33915.927889999999 21718.29033 7455.4495809999999  24333.94051 21273.830409999999 7218.8014980000007  22829.30183 21757.808690000002 6904.6211240000002  14078.63998 19818.925859999999 6624.6032709999999  

-3 1
-2 1
-1 1
0 1
1 1
2 1
3 1
4 1

-3 1
-2 1
-1 1
0 1
1 1
2 1
3 1
4 1

9 0 0 0 0 3 3 4 4 8 8 36036.010740000005 21428.575519999999 20489.725109999999  21621.63925 21428.5717 19198.129649999999  7207.2148319999997 21428.575519999999 18047.43576  -7207.1299550000003 21428.5717 16755.826949999999  
36036.0527 21428.5717 13347.126960000001  21621.612549999998 21428.573609999999 13394.091609999999  7207.2200779999994 21428.5717 13370.61024  -7207.1681019999996 21428.5717 13417.58251  
36036.048889999998 21428.575519999999 6415.8887860000004  21621.648789999999 21428.5717 7519.6189880000002  7207.1862219999994 21428.575519999999 8764.2440799999986  -7207.1928979999993 21428.5717 9867.9676060000002  
36036.102290000003 21428.5717 -938.03018329999998  21621.688840000003 21428.5717 1786.049724  7207.2114940000001 21428.5717 4016.9954299999995  -7206.665516 21428.569790000001 6741.289616  

-3 1
-2 1
-1 1
0 1
1 1
2 1
3 1
4 1

-3 1
-2 1
-1 1
0 1
1 1
2 1
3 1
4 1

9 0 0 0 0 3 3 4 4 8 8 12441.434859999999 21428.575519999999 9407.272339000001  25680.160520000001 21428.5717 7194.6845049999993  38918.937680000003 21428.575519999999 5049.2701530000004  52157.634740000001 21428.5717 2643.7950129999999  
12441.43391 21428.5717 8315.922736999999  25680.16243 21428.573609999999 7206.0890200000003  38918.937680000003 21428.5717 6095.0183870000001  52157.634740000001 21428.5717 5049.2663379999995  
12441.434859999999 21428.575519999999 7164.1850469999999  25680.160520000001 21428.5717 7216.2551880000001  38918.937680000003 21428.575519999999 7206.0890200000003  52157.634740000001 21428.5717 7194.6792599999999  
12441.436769999998 21428.5717 6262.6476290000001  25680.160520000001 21428.5717 7164.17551  38918.937680000003 21428.5717 8315.9332279999999  52157.630920000003 21428.569790000001 9407.2122569999992  

-3 1
-2 1
-1 1
0 1
1 1
2 1
3 1
4 1

-3 1
-2 1
-1 1
0 1
1 1
2 1
3 1
4 1

9 0 0 0 0 3 3 4 4 8 8 74954.963680000001 21428.575519999999 19558.82835  56936.935419999994 21428.5717 19558.82835  38918.922420000003 21428.575519999999 19558.82835  20900.888439999999 21428.5717 19558.849330000001  
74954.971310000008 21428.5717 13382.353780000001  56936.94687 21428.573609999999 13382.35188  38918.918610000001 21428.5717 13382.353780000001  20900.888439999999 21428.5717 13382.334710000001  
74954.963680000001 21428.575519999999 7205.8858870000004  56936.935419999994 21428.5717 7205.8882709999998  38918.922420000003 21428.575519999999 7205.8858870000004  20900.888439999999 21428.5717 7205.9116359999998  
74954.963680000001 21428.5717 1029.4244290000001  56936.943050000002 21428.5717 1029.4440979999999  38918.922420000003 21428.5717 1029.4244290000001  20900.888439999999 21428.569790000001 1029.7248359999999  

-3 1
-2 1
-1 1
0 1
1 1
2 1
3 1
4 1

-3 1
-2 1
-1 1
0 1
1 1
2 1
3 1
4 1

Triangulations 0

TShapes 25
Ve
0.0119514662969456
21621.6246792222 21428.5729733333 16470.5896641667
0 0

0101100
*
Ve
0.0418082176947227
21621.6246918889 21428.5727611111 13382.3502616667
0 0

0101100
*
Ed
 0.0119514662969456 1 1 0
1  1 0 0 1
2  1 2 0 0 1
2  2 1 0 0 1
0

0101000
+25 0 -24 0 *
Ve
0.100927475863424
38918.9236961111 21428.5729733333 16470.5905372222
0 0

0101100
*
Ed
 1e-07 1 1 0
1  2 0 0 1
2  3 1 0 0 1
0

0101000
+25 0 -22 0 *
Ve
0.390128852513508
38918.8597991667 21428.5733977778 13382.3487516667
0 0

0101100
*
Ed
 0.100927475863424 1 1 0
1  3 0 0 1
2  4 1 0 0 1
2  5 3 0 0 1
0

0101000
+22 0 -20 0 *
Ve
0.390128852513508
25680.1644438889 21428.5727611111 13382.3514891389
0 0

0101100
*
Ed
 0.0303669789931871 1 1 0
1  4 0 0 1
2  6 4 0 0 1
2  7 1 0 0 1
0

0101000
+18 0 -24 0 *
Ed
 0.390128852513508 1 1 0
1  5 0 0.234634430703861 1
2  8 1 0 0.234634430703861 1
2  9 5 0 0.234634430703861 1
0

0101000
+18 0 -20 0 *
Wi

0101000
-23 0 +21 0 +19 0 +17 0 -16 0 *
Fa
0  1e-07 1 0

0111000
+15 0 *
Ve
0.39012859677362
25680.1743513889 21428.5729733333 7205.88312561111
0 0

0101100
*
Ed
 0.39012859677362 1 1 0
1  6 0 0 1
2  10 5 0 0 1
2  11 4 0 0 1
0

0101000
+13 0 -18 0 *
Ve
0.0418082176947227
21621.6209191667 21428.5726544444 7543.09561519444
0 0

0101100
*
Ed
 0.00963692551929761 1 1 0
1  7 0 0 1
2  12 4 0 0 1
2  13 6 0 0 1
0

0101000
+13 0 -11 0 *
Ed
 0.0418082176947227 1 1 0
1  8 0 0 1
2  14 7 0 0 1
2  15 4 0 0 1
0

0101000
+24 0 -11 0 *
Wi

0101000
-12 0 +10 0 -9 0 -17 0 *
Fa
0  1e-07 4 0

0111000
+8 0 *
Ve
0.146315921036816
38918.93016 21428.5727611111 7205.883089
0 0

0101100
*
Ed
 0.0094741693397971 1 1 0
1  9 0 0 1
2  16 5 0 0 1
2  17 8 0 0 1
0

0101000
+13 0 -6 0 *
Ed
 0.0332189676073828 1 1 0
1  10 0 0 1
2  18 5 0 0 1
2  19 9 0 0 1
0

0101000
+6 0 -20 0 *
Wi

0101000
-5 0 +12 0 +16 0 -4 0 *
Fa
0  1e-07 5 0

0111000
+3 0 *
Sh

1101000
+14 0 +7 0 +2 0 *

+1 0 
0

