DBRep_DrawableShape

CASCADE Topology V1, (c) Matra-Datavision
Locations 1
1
              1               0               0               0 
              0               1               0               0 
              0               0               1               0 
Curve2ds 6
1 0 43.08 1 0 
2 0 0 1 0 0 1 200.6
1 6.28318530717959 0 0 1 
1 0 0 0 1 
1 0 0 1 0 
2 0 0 1 0 0 1 200.6
Curves 3
2 0 0 21.54 0 0 1 0.371390676354104 0.928476690885259 0 -0.928476690885259 0.371390676354104 0 200.6
1 74.5009696766332 186.252424191583 -21.54 0 0 1 
2 0 0 -21.54 0 0 1 0.371390676354104 0.928476690885259 0 -0.928476690885259 0.371390676354104 0 200.6
Polygon3D 0
PolygonOnTriangulations 0
Surfaces 3
2 0 0 -21.54 0 0 1 0.371390676354104 0.928476690885259 0 -0.928476690885259 0.371390676354104 0 200.6
1 0 0 21.54 0 0 1 0.371390676354104 0.928476690885259 0 -0.928476690885259 0.371390676354104 0 
1 0 0 -21.54 0 0 1 0.371390676354104 0.928476690885259 0 -0.928476690885259 0.371390676354104 0 
Triangulations 0

TShapes 13
Ve
1e-007
74.5009696766332 186.252424191583 21.54
0 0

0101100
*
Ed
 1e-007 1 1 0
1  1 0 0 6.28318530717959
2  1 1 0 0 6.28318530717959
2  2 2 0 0 6.28318530717959
0

0101100
+13 0 -13 0 *
Ve
1e-007
74.5009696766332 186.252424191583 -21.54
0 0

0101100
*
Ed
 1e-007 1 1 0
1  2 0 0 43.08
3  3 4CN 1 0 0 43.08
0

0101000
-13 0 +11 0 *
Ed
 1e-007 1 1 0
1  3 0 0 6.28318530717959
2  5 1 0 0 6.28318530717959
2  6 3 0 0 6.28318530717959
0

0101100
+11 0 -11 0 *
Wi

0101000
-12 0 +10 0 +9 0 -10 0 *
Fa
0  1e-007 1 0

0111000
+8 0 *
Wi

0101000
+12 0 *
Fa
0  1e-007 2 0

0111000
+6 0 *
Wi

0101000
-9 0 *
Fa
0  1e-007 3 0

0111000
-4 0 *
Sh

0101100
+7 0 +5 0 -3 0 *
So

1100100
+2 0 *

+1 1 
