DBRep_DrawableShape

CASCADE Topology V1, (c) Matra-Datavision
Locations 2
1
              1               0               0               0 
              0               1               0               0 
              0               0               1           -4000 
2  1 -1 0
Curve2ds 12
1 5.8536585365854803 7.3170731707318701 -0.78086880944303039 0.62469504755442418 
1 5.8536585365852698 7.3170731707316197 -0.78086880944303039 0.62469504755442418 
1 2.88000000000011 -8.1599999999998492 0.59999999999999998 0.80000000000000004 
1 4.8000000000001801 50 1 0 
8 -1261.1031272504933 -1241.8937545381957
1 -969.75609756097583 3212.1951219512198 -0.78086880944303028 -0.62469504755442429 
8 -1261.1031272504933 -1241.8937545381957
1 -969.75609756097549 787.80487804878067 -0.78086880944303028 0.62469504755442429 
8 1595.2 1610.1999999999998
1 -957.11999999999989 -2711.8400000000001 0.59999999999999998 -0.80000000000000004 
8 1595.2 1610.1999999999998
1 -1595.2 50 1 0 
1 1 0 0 1 
1 0 0 -0 1 
1 15.000000000000002 0 -0 1 
1 6.6613381477509392e-16 0 0 1 
Curves 16
1 50 51 4000 -1 0 0 
1 42.682926829268403 56.487804878048699 3992.6829268292699 -0.62469504755442429 0.46852128566581824 -0.62469504755442429 
1 0 57.119999999999898 3991.8400000000001 0 -0.59999999999999998 0.80000000000000004 
1 50 60 3988 -1 0 0 
1 50 0 4000 0 1 0 
1 0 60 4000 0 -1 0 
1 0 0 4000 1 0 0 
1 50 51 4000 0 0 -1 
1 38 60 4000 0 0 -1 
1 -737.80487804878067 641.8536585365855 787.80487804878021 -0.62469504755442429 0.46852128566581819 0.62469504755442429 
1 0 60 4000 0 0 -1 
1 0 0 4000 0 0 -1 
1 -1.1119577481011333e-15 1017.1199999999999 1288.1600000000001 -0 -0.59999999999999998 -0.80000000000000004 
1 50 60 12 -1 0 0 
1 50 0 4000 0 0 -1 
1 50 51 -6.6613381477509392e-16 -1 0 -0 
Polygon3D 0
PolygonOnTriangulations 7
2 2 4 
p 20.00000008 1 0 50 
2 1 3 
p 20.00000008 1 0 50 
2 3 4 
p 49.225000009475 1 0 50 
2 3 4 
p 400.00000002 1 0 4000 
2 1 2 
p 444.5000000095 1 0 4000 
2 3 4 
p 400.00000002 1 0 4000 
2 1 2 
p 444.225000009475 1 0 4000 
Surfaces 10
1 50 60 3988 0 -0.80000000000000004 -0.59999999999999998 0 -0.59999999999999998 0.80000000000000004 -1 -0 0 
1 38 60 4000 0.59999999999999998 0.80000000000000004 0 0.80000000000000004 -0.59999999999999998 0 0 0 -1 
1 0 60 4000 -1 0 0 0 -1 0 0 0 1 
1 0 60 4000 0 0 1 -1 0 0 0 -1 0 
1 50 60 12 0 0.80000000000000004 -0.59999999999999998 0 -0.59999999999999998 -0.80000000000000004 -1 0 -0 
1 50 60 4000 0 1 0 -1 0 0 0 -0 1 
1 50 61 12 -0 -0 -1 0 -1 0 -1 0 0 
1 50 0 4000 1 0 0 -0 1 0 0 -0 1 
1 0 0 4000 0 -1 0 1 0 0 -0 0 1 
1 50 51 0 0 1 0 0 0 -1 -1 0 0 
Triangulations 4
4 2 1 221.125000047375
0 0 4000 0 0 0 50 0 4000 50 0 0 0 0 0 -4000 50 0 50 -4000 1 2 4 4 3 1 
4 2 1 49.8590625094872
50 60 4000 0 60 4000 0 0 4000 50 0 4000 -50 0 0 0 0 60 -50 60 4 1 2 2 3 4 
4 2 1 222.5000000475
0 60 4000 0 60 0 0 0 4000 0 0 0 0 0 0 -4000 60 0 60 -4000 1 2 4 4 3 1 
4 2 1 233.556250044869
50 0 4000 50 0 0 50 60 4000 50 60 0 0 0 0 -4000 60 0 60 -4000 1 2 4 4 3 1 

TShapes 49
Ve
1e-07
50 51 4000
0 0

0101100
*
Ve
5e-07
0 50.9999999999994 4000
0 0

0101100
*
Ed
 1e-07 1 1 0
1  1 0 0 50
0

0101000
+49 0 -48 0 *
Ve
1e-07
38 60 3988
0 0

0101100
*
Ed
 1e-07 1 1 0
1  2 0 -11.7130321416455 7.49634057065336
2  1 2 0 -11.7130321416455 7.49634057065336
2  2 1 0 -11.7130321416455 7.49634057065336
0

0101000
+49 0 -46 0 *
Ve
5e-07
0 60 3988
0 0

0101100
*
Ed
 1e-07 1 1 0
1  3 0 -4.80000000000055 10.2000000000002
2  3 3 0 -4.80000000000055 10.2000000000002
2  4 1 0 -4.80000000000055 10.2000000000002
0

0101000
+44 0 -48 0 *
Ed
 1e-07 1 1 0
1  4 0 12 50
0

0101000
+46 0 -44 0 *
Wi

0101100
+47 0 -45 0 -43 0 -42 0 *
Fa
0  1e-07 1 0

0111000
+41 0 *
Ve
1e-07
50 0 4000
0 0

0101100
*
Ed
 1e-07 1 1 0
1  5 0 0 51
0

0101000
-49 0 +39 0 *
Ve
1e-07
0 0 4000
0 0

0101100
*
Ed
 1e-07 1 1 0
1  6 0 9 60
0

0101000
+48 0 -37 0 *
Ed
 1e-07 1 1 0
1  7 0 0 50
6  1 1 2
6  2 1 0
6  3 2 0
0

0101000
+37 0 -39 0 *
Wi

0101100
+47 0 +38 0 +36 0 +35 0 *
Fa
0  1e-07 4 0

0111000
+34 0 *
Ve
1e-07
50 51 0
0 0

0101100
*
Ed
 1e-07 1 1 0
1  8 0 -1.70530256582424e-13 4000
0

0101000
+49 0 -32 0 *
Ve
1e-07
38 60 12
0 0

0101101
*
Ed
 1e-07 1 1 0
1  9 0 12.0000000000003 3988
0

0101000
+46 0 -30 0 *
Ed
 1e-07 1 1 0
1  10 0 -1261.10312725049 -1241.8937545382
2  5 2 0 -1261.10312725049 -1241.8937545382
2  6 5 0 -1261.10312725049 -1241.8937545382
0

0101000
+32 0 -30 0 *
Wi

0101000
+31 0 -45 0 -29 0 +28 0 *
Fa
0  1e-07 2 0

0111000
+27 0 *
Ve
1e-07
0 60 12
0 0

0101101
*
Ed
 1e-07 1 1 0
1  11 0 12.0000000000005 3988
0

0101000
+44 0 -25 0 *
Ed
 1e-07 1 1 0
1  12 0 0 4000
6  4 3 0
6  5 1 0
0

0101000
+37 0 -37 1 *
Ve
1.00000000333067e-07
0 51 -3.33066907387547e-16
0 0

0101101
*
Ed
 1e-07 1 1 0
1  6 0 9 60
0

0101000
+22 2 -37 0 *
Ed
 1e-07 1 1 0
1  13 0 1595.2 1610.2
2  7 3 0 1595.2 1610.2
2  8 5 0 1595.2 1610.2
0

0101000
+25 0 -22 0 *
Wi

0101000
+24 0 -43 0 -36 0 -23 0 +21 1 +20 0 *
Fa
0  1e-07 3 0

0111000
+19 0 *
Ed
 1e-07 1 1 0
1  14 0 12 50
2  9 7 0 12 50
2  10 5 0 12 50
0

0101000
+30 0 -25 0 *
Wi

0101000
-42 0 -24 0 +17 0 +29 0 *
Fa
0  1e-07 6 0

0111000
+16 0 *
Ed
 1e-07 1 1 0
1  5 0 0 51
0

0101000
-32 2 +39 0 *
Ed
 1e-07 1 1 0
1  15 0 0 4000
6  6 1 0
6  7 4 0
0

0101000
+39 0 -39 1 *
Wi

0101000
-31 0 -38 0 +14 1 +13 0 *
Fa
0  1e-07 8 0

0111000
+12 0 *
Wi

0101000
+23 0 -13 0 -35 0 +35 1 *
Fa
0  1e-07 9 0
2  1
0111000
+10 0 *
Ed
 1e-07 1 1 0
1  16 0 0 50
2  11 5 0 0 50
2  12 10 0 0 50
0

0101000
+32 0 -22 0 *
Wi

0101000
-28 0 -17 0 -20 0 +8 0 *
Fa
0  1e-07 5 0

0111000
+7 0 *
Wi

0101000
+14 1 +35 1 +21 1 +8 0 *
Fa
0  1e-07 4 1

0111000
+5 0 *
Sh

0101000
-40 0 +33 0 +26 0 +18 0 +15 0 +11 0 +9 0 +6 0 -4 0 *
So

0100000
+3 0 *
Co

1100000
+2 0 *

+1 0 
0

