DBRep_DrawableShape

CASCADE Topology V1, (c) Matra-Datavision
Locations 0
Curve2ds 4
7 0 0  1 2 2  0 0.5  1 0.5 
 0 2 1 2
7 0 0  1 2 2  0 0  0 0.5 
 0 2 1 2
7 0 0  1 2 2  0 0  1 0 
 0 2 1 2
7 0 0  1 2 2  1 0  1 0.5 
 0 2 1 2
Curves 4
7 0 0  3 4 2  2635.1827592085647 0 1464.93699354776  2591.8039561531195 0 1421.0801562128718  2563.4844849099463 0 1400.2363404142079  2550.2243454790396 0 1402.4055461517619 
 0 4 1 4
7 0 0  1 2 2  2635.1827592085647 -166.5 1464.93699354776  2635.1827592085647 0 1464.93699354776 
 0 2 1 2
7 0 0  3 4 2  2635.1827592085647 -166.5 1464.93699354776  2591.8039561531195 -166.49999999999991 1421.0801562128718  2563.4844849099463 -166.50000000000006 1400.2363404142079  2550.2243454790396 -166.5 1402.4055461517619 
 0 4 1 4
7 0 0  1 2 2  2550.2243454790396 -166.5 1402.4055461517619  2550.2243454790396 0 1402.4055461517619 
 0 2 1 2
Polygon3D 0
PolygonOnTriangulations 0
Surfaces 1
9 0 0 0 0 3 1 4 2 2 2 2635.1827592085647 -166.5 1464.93699354776  2635.1827592085647 166.5 1464.93699354776  
2591.8039561531205 -166.5 1421.0801562128731  2591.8039561531205 166.5 1421.0801562128731  
2563.4844849099454 -166.5 1400.236340414207  2563.4844849099454 166.5 1400.236340414207  
2550.2243454790396 -166.5 1402.4055461517619  2550.2243454790396 166.5 1402.4055461517619  

0 4
1 4

0 2
1 2

Triangulations 0

TShapes 11
Ve
1e-07
2635.18275920856 0 1464.93699354776
0 0

0101100
*
Ve
1e-07
2550.22434547904 0 1402.40554615176
0 0

0101100
*
Ed
 1e-07 1 1 0
1  1 0 0 1
2  1 1 0 0 1
0

0101000
+11 0 -10 0 *
Ve
1e-07
2635.18275920856 -166.5 1464.93699354776
0 0

0101100
*
Ed
 1e-07 1 1 0
1  2 0 0 1
2  2 1 0 0 1
0

0101000
+8 0 -11 0 *
Ve
1e-07
2550.22434547904 -166.5 1402.40554615176
0 0

0101100
*
Ed
 1e-07 1 1 0
1  3 0 0 1
2  3 1 0 0 1
0

0101000
+8 0 -6 0 *
Ed
 1e-07 1 1 0
1  4 0 0 1
2  4 1 0 0 1
0

0101000
+6 0 -10 0 *
Wi

0101000
-9 0 -7 0 +5 0 +4 0 *
Fa
0  1e-07 1 0

0101000
+3 0 *
Sh

1101000
+2 0 *

+1 0 
0

