DBRep_DrawableShape

CASCADE Topology V1, (c) Matra-Datavision
Locations 0
Curve2ds 4
7 0 0  1 2 2  0 277.40567124763692  0 0 
 0 2 278.38086146503326 2
7 0 0  1 2 2  0 0  241.48510005131368 0 
 0 2 243.4969380574276 2
7 0 0  1 2 2  241.48510005131368 0  241.48510005131368 277.40567124763692 
 0 2 278.38086146503326 2
7 0 0  1 2 2  241.48510005131368 277.40567124763692  0 277.40567124763692 
 0 2 243.4969380574276 2
Curves 4
7 0 0  3 4 2  254.02953167561483 626.73480486460744 1394.2947661695189  215.37040922106422 558.48784333237006 1382.9736137289271  180.21960688078536 473.9807710818659 1370.8668656097323  148.57388101227406 373.28138643228482 1357.9795085993596 
 0 4 278.38086146503326 4
7 0 0  3 4 2  148.57388101227406 373.28138643228482 1357.9795085993596  186.06748504631381 373.28138643228465 1373.5444828503137  265.63588834836582 373.28138643228482 1383.6935047885549  387.2790909184302 373.28138643228482 1388.426574414083 
 0 4 243.4969380574276 4
7 0 0  3 4 2  387.2790909184302 373.28138643228482 1388.426574414083  418.92481678694134 473.98077108186601 1401.3139314244545  454.07561912722042 558.48784333236995 1413.4206795436512  492.734741581771 626.73480486460744 1424.7418319842423 
 0 4 278.38086146503326 4
7 0 0  3 4 2  492.734741581771 626.73480486460744 1424.7418319842423  371.09153901170646 626.73480486460721 1420.008762358714  291.52313570965475 626.73480486460744 1409.8597404204731  254.02953167561483 626.73480486460744 1394.2947661695189 
 0 4 243.4969380574276 4
Polygon3D 0
PolygonOnTriangulations 0
Surfaces 1
9 0 0 0 0 3 3 4 4 2 2 148.57388101227406 373.28138643228482 1357.9795085993596  180.21960688078536 473.98077108186612 1370.8668656097318  215.37040922106428 558.48784333236995 1382.9736137289276  254.02953167561483 626.73480486460744 1394.2947661695189  
186.06748504631383 373.28138643228482 1373.5444828503141  217.71321091482514 473.98077108186612 1386.4318398606863  252.86401325510406 558.48784333236995 1398.5385879798821  291.52313570965464 626.73480486460744 1409.8597404204734  
265.63588834836588 373.28138643228482 1383.6935047885552  297.28161421687719 473.98077108186612 1396.5808617989273  332.4324165571561 558.48784333236995 1408.6876099181231  371.09153901170669 626.73480486460744 1420.0087623587144  
387.2790909184302 373.28138643228482 1388.426574414083  418.92481678694151 473.98077108186612 1401.3139314244552  454.07561912722042 558.48784333236995 1413.420679543651  492.734741581771 626.73480486460744 1424.7418319842423  

0 4
241.48510005131368 4

0 4
277.40567124763692 4

Triangulations 0

TShapes 11
Ve
1e-07
254.029531675615 626.734804864607 1394.29476616952
0 0

0101100
*
Ve
1e-07
148.573881012274 373.281386432285 1357.97950859936
0 0

0101100
*
Ed
 1e-07 1 1 0
1  1 0 0 278.380861465033
2  1 1 0 0 278.380861465033
0

0101000
+11 0 -10 0 *
Ve
1e-07
387.27909091843 373.281386432285 1388.42657441408
0 0

0101100
*
Ed
 1e-07 1 1 0
1  2 0 0 243.496938057428
2  2 1 0 0 243.496938057428
0

0101000
+10 0 -8 0 *
Ve
1e-07
492.734741581771 626.734804864607 1424.74183198424
0 0

0101100
*
Ed
 1e-07 1 1 0
1  3 0 0 278.380861465033
2  3 1 0 0 278.380861465033
0

0101000
+8 0 -6 0 *
Ed
 1e-07 1 1 0
1  4 0 0 243.496938057428
2  4 1 0 0 243.496938057428
0

0101000
+6 0 -11 0 *
Wi

0101000
+9 0 +7 0 +5 0 +4 0 *
Fa
0  1e-07 1 0

0111000
+3 0 *
Sh

1101000
+2 0 *

+1 0 
0

