DBRep_DrawableShape

CASCADE Topology V1, (c) Matra-Datavision
Locations 46
1
              1               0              -0              21 
             -0               1               0               0 
              0               0               1             -15 
1
              1               0              -0               0 
             -0               1               0               0 
              0               0               1            -0.5 
2  1 1 2 1 0
2  2 -1 1 -1 0
1
              1               0              -0               0 
             -0               1               0               0 
              0               0               1           -15.9 
1
              1               0              -0               0 
             -0               1               0               0 
              0               0               1               1 
2  5 1 6 1 0
1
              1               0              -0               0 
             -0               1               0               0 
              0               0               1            -0.5 
1
              1               0              -0               0 
             -0               1               0               0 
              0               0               1            -0.5 
1
              1               0              -0               0 
             -0               1               0               0 
              0               0               1            -0.5 
1
              1               0              -0               0 
             -0               1               0               0 
              0               0               1            -0.5 
2  8 1 9 1 10 1 11 1 0
1
              1               0              -0               0 
             -0               1               0               0 
              0               0               1               6 
1
              1               0              -0               0 
             -0               1               0               0 
              0               0               1              -2 
1
              1               0              -0               0 
             -0               1               0               0 
              0               0               1               1 
2  13 1 14 1 15 1 0
2  9 1 10 1 11 1 0
2  6 -1 5 -1 0
2  11 -1 10 -1 9 -1 8 -1 0
2  11 -1 10 -1 9 -1 0
2  15 -1 14 -1 13 -1 0
1
              1               0              -0               0 
             -0               1               0               0 
              0               0               1              44 
1
              1               0              -0               0 
             -0               1               0               0 
              0               0               1             -44 
1
              1               0              -0               0 
             -0               1               0               0 
              0               0               1              10 
1
              1               0              -0               0 
             -0               1               0               0 
              0               0               1              -1 
1
              1               0              -0               0 
             -0               1               0               0 
              0               0               1            -0.1 
2  22 1 23 1 24 1 25 1 26 1 0
2  26 -1 25 -1 24 -1 23 -1 22 -1 0
1
              1               0              -0               0 
             -0               1               0               0 
              0               0               1              16 
2  29 1 22 1 23 1 24 1 25 1 26 1 0
2  23 -1 22 -1 29 -1 0
2  29 1 22 1 23 1 0
2  29 -1 0
1
              1               0              -0               0 
             -0               1               0               0 
              0               0               1              44 
1
              1               0              -0               0 
             -0               1               0               0 
              0               0               1            -0.1 
2  34 1 35 1 0
2  22 1 23 1 0
2  34 1 35 1 24 1 25 1 26 1 0
2  35 -1 34 -1 0
2  25 -1 24 -1 35 -1 34 -1 0
2  34 1 35 1 24 1 25 1 0
1
              1               0              -0               0 
             -0               1               0               0 
              0               0               1              50 
1
              1               0              -0               0 
             -0               1               0               0 
              0               0               1              15 
2  42 1 43 1 0
2  42 1 43 1 26 1 0
2  43 -1 42 -1 0
Curve2ds 63
2 21 0 0 -1 1 0 6
1 -1.5707963267949001 20.600000000000001 1 0 
1 1.88131816146066 0 0 1 
1 0.289686993997119 -13.5 0 1 
7 0 0  4 5 2  0.28962431716394998 0.11180339887499  0.28936721186587 0.50402776286378903  0.28876107625985398 0.89600481665788601  0.28778700691289599 1.28723143721331  0.286421644346532 1.6770509831259699 
 0 5 1 5
7 0 0  4 5 2  1.88965413089648 20.600000000000001  1.91890130528706 20.9508161361242  1.94816376339297 21.301411071286999  1.9774720753838499 21.651334798552501  2.0068558690210501 22 
 0 5 1 5
1 -1.5707963267949001 14 1 0 
2 21 0 0 -1 1 0 6
1 0 22 1 0 
2 0 0 1 0 -0 1 6
1 6.2831853071795898 0 0 1 
1 0 0 0 1 
7 0 0  4 5 2  5.9967636628331498 1.67705098313168  5.9953982990959496 1.28723110293617  5.9944242314908696 0.89600488538582101  5.9938180953869402 0.50402787472814503  5.9935609900155304 0.11180339887499 
 0 5 1 5
7 0 0  4 5 2  4.2763294381563801 22  4.3057132569911403 21.6513344995608  4.33502153849685 21.301411132765502  4.3642839935510898 20.950816236178799  4.39353117628312 20.600000000000001 
 0 5 1 5
2 21 0 0 -1 1 0 6
1 -1.5707963267949001 0.59999999999999998 1 0 
1 -1.5707963267949001 20.600000000000001 1 0 
1 4.4018671457189198 0 0 1 
1 5.9934983131824699 -13.5 0 1 
1 -1.5707963267949001 14 1 0 
2 0 0 0 -1 1 0 20
1 -1.5707963267949001 7.0999999999999996 1 0 
1 -1.5707963267949001 0.111803398874989 1 0 
2 0 0 0 -1 1 0 19.949999999999999
2 0 0 0 -1 1 0 20
1 -1.5707963267949001 0.5 1 0 
1 6.2831853071795898 0 0 1 
1 0 0 0 1 
1 4.7123889803846897 1.6770509831248399 1 0 
2 -21 0 0 -1 1 0 19.25
1 0 4.4721359549995796 1 0 
2 0 0 1 0 -0 1 18
1 -1.5707963267949001 1.6770509831248399 1 0 
1 -1.5707963267949001 13.4 1 0 
2 0 0 0 -1 1 0 34
1 0 0 1 0 
2 0 0 1 0 -0 1 34
1 -1.5707963267949001 0.100000000000001 1 0 
2 0 0 0 -1 1 0 16
1 6.2831853071795898 0 0 1 
1 0 0 0 1 
1 6.2831853071795898 0 0 1 
1 0 0 0 1 
1 0 17 1 0 
2 0 0 1 0 -0 1 16
2 0 0 0 -1 1 0 15
1 -1.5707963267949001 1 1 0 
1 6.2831853071795898 0 0 1 
1 0 0 0 1 
1 -1.5707963267949001 27.899999999999999 1 0 
2 0 0 0 -1 1 0 15
1 0 0 1 0 
2 0 0 1 0 -0 1 16
1 0 17 1 0 
2 0 0 1 0 -0 1 16
1 6.2831853071795898 0 0 1 
1 0 0 0 1 
2 0 0 0 -1 1 0 14
1 -1.5707963267949001 4.9000000000000101 1 0 
1 6.2831853071795898 0 0 1 
1 0 0 0 1 
1 0 50 1 0 
2 0 0 1 0 -0 1 14
Curves 30
2 21 0 5.0999999999999996 0 0 1 0 -1 0 1 0 -0 6
1 19.1666666666667 5.7130455003342 -15.5 0 0 1 
7 0 0  4 5 2  19.119107142857601 5.6975645726865203 5.0999999999999996  18.952469478198601 5.6425537712836604 5.4508161361242298  18.7878902236451 5.5810161657777897 5.80141107128697  18.6255786939304 5.5130033654447104 6.1513347985524804  18.465773809521501 5.4385381873710203 6.5 
 0 5 1 5
2 21 0 -1.5 0 0 1 0 -1 0 1 0 -0 6
2 0 0 22 0 0 1 1 0 -0 -0 1 0 6
1 6 0 0 0 0 1 
7 0 0  4 5 2  18.465773809509798 -5.4385381873655598 6.5  18.625578830956599 -5.5130034292955497 6.1513344995608001  18.787890197176502 -5.5810161468247497 5.80141113276549  18.9524694306721 -5.6425537555963503 5.45081623617875  19.119107142857001 -5.6975645726885604 5.0999999999999996 
 0 5 1 5
2 21 0 -14.9 0 0 1 0 -1 0 1 0 -0 6
1 19.1666666666667 -5.7130455003342 -15.5 0 0 1 
2 0 0 5.0999999999999996 0 0 1 0 -1 0 1 0 -0 20
2 0 0 5.0999999999999996 0 0 1 0 -1 0 1 0 -0 19.949999999999999
2 0 0 0 0 0 1 0 -1 0 1 0 -0 20
1 20 0 0 -0.44721359549995798 0 0.89442719099991597 
2 0 0 6.5 0 0 1 0 -1 0 1 0 -0 19.25
2 0 0 4 0 0 1 1 0 -0 -0 1 0 18
2 0 0 -1.5 0 0 1 0 -1 0 1 0 -0 34
2 0 0 0 0 0 1 1 0 -0 -0 1 0 34
2 0 0 9 0 0 1 0 -1 0 1 0 -0 16
1 34 0 0 0 0 1 
1 16 0 0 0 0 1 
2 0 0 17 0 0 1 1 0 -0 -0 1 0 16
2 0 0 17 0 0 1 0 -1 0 1 0 -0 15
1 15 0 0 0 0 1 
2 0 0 43.899999999999999 0 0 1 0 -1 0 1 0 -0 15
2 0 0 0 0 0 1 1 0 -0 -0 1 0 16
2 0 0 17 0 0 1 1 0 -0 -0 1 0 16
1 16 0 0 0 0 1 
2 0 0 69.900000000000006 0 0 1 0 -1 0 1 0 -0 14
1 14 0 0 0 0 1 
2 0 0 50 0 0 1 1 0 -0 -0 1 0 14
Polygon3D 0
PolygonOnTriangulations 0
Surfaces 17
2 0 0 0 0 0 1 1 0 -0 -0 1 0 6
1 0 0 20 0 0 1 1 0 -0 -0 1 0 
2 0 0 0 0 0 1 1 0 -0 -0 1 0 20
3 0 0 0 0 0 1 1 0 -0 -0 1 0 20
-0.46364760900080598
1 0 0 0 0 0 1 1 0 -0 -0 1 0 
1 0 0 22 0 0 1 1 0 -0 -0 1 0 
1 0 0 0 0 0 1 1 0 -0 -0 1 0 
1 0 0 4 0 0 1 1 0 -0 -0 1 0 
2 0 0 0 0 0 1 1 0 -0 -0 1 0 34
2 0 0 0 0 0 1 1 0 -0 -0 1 0 16
1 0 0 17 0 0 1 1 0 -0 -0 1 0 
2 0 0 0 0 0 1 1 0 -0 -0 1 0 15
1 0 0 0 0 0 1 1 0 -0 -0 1 0 
2 0 0 0 0 0 1 1 0 -0 -0 1 0 16
1 0 0 17 0 0 1 1 0 -0 -0 1 0 
2 0 0 0 0 0 1 1 0 -0 -0 1 0 14
1 0 0 50 0 0 1 1 0 -0 -0 1 0 
Triangulations 0

TShapes 96
Ve
0.000268319171044726
19.1666666666767 5.71304550033743 5.1
0 0

0101100
*
Ve
0.000268319171044726
19.1191071428576 5.69756457268652 5.1
0 0

0101100
*
Ed
 1e-07 1 1 0
1  1 0 3.45211448825381 3.46045045769138
2  1 2 7 3.45211448825381 3.46045045769138
2  2 1 3 3.45211448825381 3.46045045769138
0

0101000
+96 0 -95 0 *
Ve
0.000268319171044726
19.1666666666663 5.71304550033527 -1.5
0 0

0101100
*
Ed
 1e-07 1 1 0
1  2 0 14 20.6
2  3 1 3 14 20.6
2  4 3 12 14 20.6
0

0101000
+93 0 -96 0 *
Ve
0.000268319171044726
18.4657738095215 5.43853818737102 6.5
0 0

0101100
*
Ed
 0.000268319171044726 1 1 0
1  3 0 0 1
2  5 4 16 0 1
2  6 1 3 0 1
0

0101000
+95 0 -91 0 *
Ve
0.000268319171044726
27 0 -1.5
0 0

0101100
*
Ed
 1e-07 1 1 0
1  4 0 1.5707963267949 3.45211448825556
2  7 1 3 1.5707963267949 3.45211448825556
2  8 5 17 1.5707963267949 3.45211448825556
0

0101100
+89 0 -93 0 *
Ve
0.000268319171044726
18.4657738095098 -5.43853818736556 6.5
0 0

0101100
*
Ed
 1e-07 1 1 0
1  5 0 2.00685586902105 4.27632943815638
2  9 1 0 2.00685586902105 4.27632943815638
2  10 6 0 2.00685586902105 4.27632943815638
0

0101100
+91 4 -87 4 *
Ve
1e-07
27 0 -14.9
0 0

0101100
*
Ed
 1e-07 1 1 0
1  6 0 0.6 14
3  11 12CN 1 0 0.6 14
0

0101000
-89 4 +85 4 *
Ve
0.000268319171044726
19.119107142857 -5.69756457268857 5.1
0 0

0101100
*
Ed
 0.000268319171044726 1 1 0
1  7 0 0 1
2  13 4 16 0 1
2  14 1 3 0 1
0

0101000
+87 0 -83 0 *
Ed
 1e-07 1 1 0
1  8 0 1.5707963267949 7.85398163397448
2  15 7 7 1.5707963267949 7.85398163397448
2  16 1 3 1.5707963267949 7.85398163397448
0

0101100
+85 0 -85 0 *
Ve
0.000268319171044726
19.1666666666767 -5.71304550033743 5.1
0 0

0101100
*
Ed
 1e-07 1 1 0
1  1 0 5.96432750307801 5.97266347251558
2  1 2 7 5.96432750307801 5.97266347251558
2  17 1 3 5.96432750307801 5.97266347251558
0

0101000
-80 0 +83 0 *
Ve
0.000268319171044726
19.1666666666668 -5.71304550033375 -1.5
0 0

0101100
*
Ed
 1e-07 1 1 0
1  9 0 14 20.6
2  18 1 3 14 20.6
2  19 3 12 14 20.6
0

0101000
+78 0 -80 0 *
Ed
 1e-07 1 1 0
1  4 0 5.97266347251382 7.85398163397448
2  20 1 3 5.97266347251382 7.85398163397448
2  8 5 17 5.97266347251382 7.85398163397448
0

0101000
-89 0 +78 0 *
Wi

0101000
-94 0 -92 0 -90 0 -88 0 -86 3 -84 3 -82 0 +81 0 -79 0 +84 3 
+77 0 -76 0 *
Fa
0  1e-07 1 0

0111000
+75 4 *
Ed
 1e-07 1 1 0
1  10 0 1.86048332079203 7.56429463997735
2  21 2 7 1.86048332079203 7.56429463997735
2  22 3 12 1.86048332079203 7.56429463997735
0

0101100
+96 0 -80 0 *
Ed
 1e-07 1 1 0
1  11 0 1.86042064395885 7.56435731681043
2  23 4 16 1.86042064395885 7.56435731681043
2  24 2 7 1.86042064395885 7.56435731681043
0

0101100
+95 0 -83 0 *
Wi

0101000
-94 0 +73 0 -72 0 -79 0 *
Fa
0  1e-07 2 0

0111000
+71 18 *
Ed
 1e-07 1 1 0
1  12 0 1.86048332079207 7.56429463997739
2  25 5 0 1.86048332079207 7.56429463997739
2  26 3 8 1.86048332079207 7.56429463997739
0

0101100
+93 20 -78 20 *
Wi

0101000
+69 17 -92 0 +77 0 -73 0 *
Fa
0  1e-07 3 0

0111000
+68 19 *
Ve
1e-07
19.25 0 6.5
0 0

0101100
*
Ve
1e-07
18 0 4
0 0

0101100
*
Ed
 1e-07 1 1 0
1  13 0 1.67705098312484 4.47213595499958
3  27 28CN 4 0 1.67705098312484 4.47213595499958
0

0101000
+66 21 -65 0 *
Ed
 1e-07 1 1 0
1  14 0 1.28437468244846 1.5707963267949
2  29 4 16 1.28437468244846 1.5707963267949
2  30 6 3 1.28437468244846 1.5707963267949
0

0101100
+87 0 -66 0 *
Ed
 1e-07 1 1 0
1  15 0 0 6.28318530717959
2  31 4 0 0 6.28318530717959
2  32 8 0 0 6.28318530717959
0

0101100
+65 0 -65 0 *
Ed
 1e-07 1 1 0
1  14 0 1.5707963267949 1.85721797114143
2  33 4 16 1.5707963267949 1.85721797114143
2  30 6 3 1.5707963267949 1.85721797114143
0

0101100
+66 0 -91 0 *
Wi

0101000
+64 16 +63 0 -62 16 -82 0 -64 16 +72 0 +61 0 -90 0 *
Fa
0  1e-07 4 0

0111000
+60 21 *
Wi

0101000
-69 17 -88 0 -76 0 *
Ve
1e-07
34 0 -1.5
0 0

0101100
*
Ed
 1e-07 1 1 0
1  16 0 1.5707963267949 7.85398163397448
2  34 9 7 1.5707963267949 7.85398163397448
2  35 5 17 1.5707963267949 7.85398163397448
0

0101100
+57 0 -57 0 *
Wi

0101000
+56 0 *
Fa
0  1e-07 5 0

0111000
+58 20 +55 20 *
Wi

0101000
+86 3 +61 0 +63 0 *
Fa
0  1e-07 6 0

0111000
+53 4 *
Ve
1e-07
34 0 0
0 0

0101100
*
Ed
 1e-07 1 1 0
1  17 0 0 6.28318530717959
2  36 9 0 0 6.28318530717959
2  37 7 0 0 6.28318530717959
0

0101100
+51 0 -51 0 *
Wi

0101000
-50 0 *
Wi

0101000
-81 0 *
Fa
0  1e-07 7 0

0111000
-49 0 +48 18 *
Wi

0101000
+62 0 *
Ve
1e-07
16 0 9
0 0

0101100
*
Ed
 1e-07 1 1 0
1  18 0 1.5707963267949 7.85398163397448
2  38 10 27 1.5707963267949 7.85398163397448
2  39 8 16 1.5707963267949 7.85398163397448
0

0101100
+45 0 -45 0 *
Wi

0101000
-44 0 *
Fa
0  1e-07 8 0

0111000
+46 0 +43 21 *
Ed
 1e-07 1 1 0
1  19 0 0 13.4
3  40 41CN 9 0 0 13.4
0

0101000
-57 18 +51 0 *
Wi

0101000
+41 7 -56 0 +50 7 -41 7 *
Fa
0  1e-07 9 0

0111000
+40 18 *
Ve
1e-07
16 0 17
0 0

0101100
*
Ed
 1e-07 1 1 0
1  20 0 0.100000000000002 17
3  42 43CN 10 0 0.100000000000002 17
0

0101000
+45 28 -38 0 *
Ed
 1e-07 1 1 0
1  21 0 0 6.28318530717959
2  44 10 0 0 6.28318530717959
2  45 11 0 0 6.28318530717959
0

0101100
+38 0 -38 0 *
Wi

0101000
+37 27 +44 0 -36 27 -37 27 *
Fa
0  1e-07 10 0

0111000
+35 28 *
Wi

0101000
+36 0 *
Ve
1e-07
15 0 17
0 0

0101100
*
Ed
 1e-07 1 1 0
1  22 0 1.5707963267949 7.85398163397448
2  46 11 0 1.5707963267949 7.85398163397448
2  47 12 29 1.5707963267949 7.85398163397448
0

0101100
+32 0 -32 0 *
Wi

0101000
-31 0 *
Fa
0  1e-07 11 0

0111000
+33 0 +30 0 *
Ve
1e-07
15 0 43.9
0 0

0101100
*
Ed
 1e-07 1 1 0
1  23 0 1 27.9
3  48 49CN 12 0 1 27.9
0

0101000
-28 31 +32 33 *
Ed
 1e-07 1 1 0
1  24 0 1.5707963267949 7.85398163397448
2  50 12 32 1.5707963267949 7.85398163397448
2  51 13 36 1.5707963267949 7.85398163397448
0

0101100
+28 0 -28 0 *
Wi

0101000
+27 32 -26 0 +31 37 -27 32 *
Fa
0  1e-07 12 0

0111000
+25 31 *
Ve
1e-07
16 0 0
0 0

0101100
*
Ed
 1e-07 1 1 0
1  25 0 0 6.28318530717959
2  52 14 0 0 6.28318530717959
2  53 13 0 0 6.28318530717959
0

0101100
+23 0 -23 0 *
Wi

0101000
-22 0 *
Wi

0101000
-26 0 *
Fa
0  1e-07 13 0

0111000
-21 0 +20 39 *
Ve
1e-07
16 0 17
0 0

0101100
*
Ed
 1e-07 1 1 0
1  26 0 0 6.28318530717959
2  54 14 0 0 6.28318530717959
2  55 15 0 0 6.28318530717959
0

0101100
+18 0 -18 0 *
Ed
 1e-07 1 1 0
1  27 0 0 17
3  56 57CN 14 0 0 17
0

0101000
-18 0 +23 0 *
Wi

0101000
-17 0 +16 0 +22 0 -16 0 *
Fa
0  1e-07 14 0

0111000
+15 0 *
Wi

0101000
+17 0 *
Ve
1e-07
14 0 69.9
0 0

0101100
*
Ed
 1e-07 1 1 0
1  28 0 1.5707963267949 7.85398163397448
2  58 15 41 1.5707963267949 7.85398163397448
2  59 16 44 1.5707963267949 7.85398163397448
0

0101100
+12 0 -12 0 *
Wi

0101000
-11 0 *
Fa
0  1e-07 15 0

0111000
+13 0 +10 40 *
Ve
1e-07
14 0 50
0 0

0101100
*
Ed
 1e-07 1 1 0
1  29 0 4.90000000000001 50
3  60 61CN 16 0 4.90000000000001 50
0

0101000
+12 46 -8 0 *
Ed
 1e-07 1 1 0
1  30 0 0 6.28318530717959
2  62 16 0 0 6.28318530717959
2  63 17 0 0 6.28318530717959
0

0101100
+8 0 -8 0 *
Wi

0101000
+7 44 +11 0 -6 44 -7 44 *
Fa
0  1e-07 16 0

0111000
+5 46 *
Wi

0101000
+6 0 *
Fa
0  1e-07 17 0

0111000
+3 0 *
Sh

0101100
-74 3 +70 7 +67 12 +59 16 +54 17 -52 3 -47 7 +42 16 +39 7 +34 27 
+29 27 +24 30 -19 38 +14 38 +9 38 +4 45 +2 45 *

+1 0 
0

