DBRep_DrawableShape

CASCADE Topology V1, (c) Matra-Datavision
Locations 2
1
              1               0              -0               2 
             -0               1               0               0 
              0               0               1           329.5 
2  1 -1 0
Curve2ds 34
1 6.2831853071795898 0 0 1 
1 0 0 0 1 
7 0 0  7 14 3  0.98279449248105699 0.30973318787548199  0.95609372549103 0.29692204529865102  0.92588803259594898 0.28395286340770598  0.89126438909616101 0.27080088583913797  0.85101697746579597 0.25750484535368601  0.80350695546934703 0.24417450360138701  0.746385712956256 0.23103836378281001  0.58590923529033501 0.202449598285636  0.48918813788056598 0.19011266269073099  0.38797444427424099 0.181161041579365  0.28531912521664998 0.17509876732035701  0.184349692295424 0.17146871263111599  0.088037930826635399 0.16991805258692699  0 0.169918051076658 
 0 8 0.43747280999579002 6 1 8
7 0 0  7 14 3  129.777248189944 -2.9999899999999999  129.75450443286101 -2.9132127409139601  129.732541070736 -2.8231475790695399  129.71136903977001 -2.7291265312920201  129.691118669465 -2.6304939560665002  129.672022149615 -2.52682857224963  129.65439159753501 -2.41775665704585  129.61827764572101 -2.1539683000082599  129.60440836196199 -2.0200511233326299  129.59509557955201 -1.8987498358970101  129.58902234588601 -1.7875543263968501  129.585448700147 -1.6843403251350799  129.583919565776 -1.58803249063698  129.58391956428801 -1.499995 
 0 8 0.43747280999579002 6 1 8
1 0 0 1 0 
7 0 0  8 23 4  0.98279449248105699 0.30973318787548199  1.00487117233798 0.305025432133399  1.07241108630696 0.291055259410822  1.15900262756279 0.27528752091826703  1.2813645344442299 0.26271392750997802  1.3957371766709701 0.25587003746192899  1.52210368620716 0.25595570413389002  1.58292768028844 0.25635781071483699  1.6382459826809299 0.25692257731995899  1.66510323237402 0.257447664348875  1.6900865492950801 0.25814278878149799  1.71314018747874 0.258956904429268  1.7343317758467001 0.259851469159253  1.7538523182076999 0.260800444894148  1.77201619325753 0.26179029761228201  1.87641393886098 0.26802390573771701  1.9399305934853901 0.27386997158997001  1.9884776564773901 0.279980786740814  2.0285616691946502 0.28609946262135  2.0645291763273699 0.29208963025733797  2.0985667258983201 0.29793544026919699  2.1307008692628102 0.30374156287199999  2.1587981611087401 0.30973318787548199 
 0 9 0.13408929868300701 7 0.277124921394932 7 1 9
7 0 0  8 23 4  129.777248189944 1.9999899999999999  129.76889046132101 1.9521574021452599  129.74423941075599 1.8076268756535501  129.717439343775 1.6338616317982999  129.69999984712501 1.42732475725728  129.68969583775501 1.2638864925598099  129.68982983916899 1.07284190343508  129.69042744796801 0.98182939424489002  129.69126255134 0.89872654413863795  129.692039351224 0.858249365973907  129.69307015537601 0.82041548625845395  129.694281315518 0.78528285728075597  129.69561729935501 0.75273972174683701  129.69704069057701 0.722504612780273  129.69853218885299 0.69412635392218103  129.70796657578299 0.52981201689075696  129.717022724906 0.42425530014504298  129.72669514501499 0.33854162589343001  129.73660112115101 0.26381886846349101  129.746539135587 0.19415505951102999  129.75648886783199 0.12653838802007999  129.76661119462599 0.060877200302905402  129.777248189944 0 
 0 9 0.13408929868300701 7 0.277124921394932 7 1 9
7 0 0  8 30 5  2.1587981611087401 0.30973318787548199  2.1811023934436999 0.29903152149201301  2.2060041304737301 0.28815103888791199  2.2338673407384499 0.27705704345202598  2.2657684500792401 0.26573812347480502  2.3027586072635802 0.25419046157089698  2.3460726553487099 0.24242394028115599  2.3982848087846098 0.23049004385404401  2.4989338689431499 0.21255948842165501  2.5357606543556401 0.20671863857980199  2.57675520441826 0.20087910775928799  2.6231309280529702 0.195024461040886  2.6764508311792001 0.18925172750775399  2.7386275167138598 0.18377140024542599  2.8119231845713299 0.17890743634181899  2.99642578008195 0.17082957010434099  3.0891394205660498 0.16892980634992399  3.17903173470564 0.16860831815010599  3.2682873303759599 0.16972594175943301  3.3587350679403101 0.17233748608242699  3.4517991191869801 0.176788095462873  3.5468243714738699 0.183725703822081  3.7489136490230801 0.205419668656558  3.8376544010742202 0.21907545635553199  3.9168708811039901 0.23482535911285701  3.9812549457954902 0.25227431133714801  4.0346103475902098 0.27019704295084801  4.0758479236707501 0.287119292862272  4.1065865608230396 0.30119239068992099  4.1243871460708501 0.30973318787548199 
 0 9 0.37194465001006999 7 0.55769377878881099 7 0.76574673568234397 7 1 9
7 0 0  8 30 5  129.777248189944 -2.9999899999999999  129.75824940828599 -2.92750144007326  129.73965734811301 -2.85223869347494  129.72146165896001 -2.77385779434782  129.703693204795 -2.6914999761838798  129.686411283833 -2.6044530167060098  129.66970359454101 -2.5120345452373001  129.653698947848 -2.4126973125577398  129.63104867933799 -2.2472521918599302  129.62386806760901 -2.1899805575930902  129.61693815660001 -2.1298873560909999  129.61024618042401 -2.0660800158504  129.603879341077 -1.9974275582216601  129.598024808437 -1.92256059740882  129.59296972026499 -1.8398713404695399  129.584768129406 -1.6440659762165399  129.582957928719 -1.5513762662089801  129.58264281705499 -1.46287343819298  129.58372920949199 -1.37483937361802  129.58626402284699 -1.28354719047522  129.590666272253 -1.1855448416238601  129.597777500728 -1.07678535356648  129.62214163900799 -0.81430112264188703  129.63834067933499 -0.68046083564550497  129.65831432063001 -0.542234054388119  129.68231697206201 -0.40544638711755998  129.70950716272199 -0.27285766406154399  129.737561148997 -0.15417028494460799  129.762085622256 -0.057851746300374297  129.777248189944 2.2204460492503101e-16 
 0 9 0.37194465001006999 7 0.55769377878881099 7 0.76574673568234397 7 1 9
7 0 0  7 14 3  5.3003908146985301 0.30973318787548199  5.3270915816886202 0.29692204529862098  5.3572972745832601 0.28395286340785902  5.3919209180834899 0.27080088583911699  5.4321683297139396 0.25750484535361401  5.4796783517099996 0.244174503601464  5.5367995942233597 0.23103836378280501  5.6972760718891999 0.20244959828564399  5.7939971692990904 0.190112662690713  5.8952108629052002 0.181161041579392  5.9978661819631203 0.175098767320335  6.0988356148840204 0.17146871263112401  6.1951473763529803 0.16991805258692699  6.2831853071795898 0.169918051076658 
 0 8 0.43747280999579002 6 1 8
7 0 0  7 14 3  129.777248189944 0  129.75450443286101 -0.086777259086243494  129.732541070736 -0.17684242092938601  129.71136903977001 -0.27086346870813699  129.691118669465 -0.369496043933981  129.672022149615 -0.47316142774979902  129.65439159753501 -0.58223334295420104  129.61827764572101 -0.84602169999165899  129.60440836196199 -0.97993887666748702  129.59509557955201 -1.10124016410279  129.58902234588601 -1.2124356736033599  129.58544870014799 -1.3156496748647699  129.583919565776 -1.4119575093630501  129.58391956428801 -1.499995 
 0 8 0.43747280999579002 6 1 8
7 0 0  8 23 4  4.1243871460708501 0.30973318787548199  4.1464638259277802 0.305025432133399  4.2140037398967598 0.291055259410824  4.3005952811525701 0.27528752091826197  4.4229571880340002 0.26271392750998401  4.5373298302608198 0.25587003746192699  4.66369633979689 0.25595570413389002  4.7245203338782398 0.25635781071483699  4.7798386362707097 0.25692257731995899  4.8066958859637898 0.25744766434887401  4.8316792028848496 0.25814278878149799  4.8547328410685102 0.258956904429267  4.8759244294364699 0.259851469159251  4.8954449717974597 0.260800444894146  4.91360884684729 0.26179029761228001  5.0180065924507398 0.26802390573771401  5.0815232470751601 0.27386997158996801  5.1300703100671701 0.279980786740812  5.1701543227844304 0.286099462621349  5.2061218299171603 0.29208963025733697  5.2401593794881096 0.29793544026919599  5.2722935228526104 0.30374156287199999  5.3003908146985301 0.30973318787548199 
 0 9 0.13408929868294001 7 0.27712492139485401 7 1 9
7 0 0  8 23 4  129.777248189944 -2.2204460492503101e-16  129.76889046132101 0.047832597854740297  129.74423941075599 0.192363124346207  129.717439343775 0.36612836820245098  129.69999984712501 0.57266524274161601  129.68969583775501 0.73610350744106301  129.68982983916899 0.92714809656456298  129.69042744796801 1.01816060575513  129.69126255134 1.1012634558613501  129.692039351224 1.1417406340260701  129.69307015537601 1.1795745137415199  129.694281315518 1.21470714271921  129.69561729935501 1.2472502782531101  129.69704069057701 1.2774853872196701  129.69853218885299 1.30586364607775  129.70796657578299 1.4701779831091899  129.717022724906 1.57573469985492  129.72669514501499 1.66144837410654  129.73660112115101 1.7361711315364901  129.746539135587 1.80583494048896  129.75648886783199 1.8734516119799101  129.76661119462599 1.9391127996970901  129.777248189944 1.9999899999999999 
 0 9 0.13408929868294001 7 0.27712492139485401 7 1 9
1 0 0 1 0 
1 0 1.9999899999999999 1 0 
7 0 0  7 14 3  5.3003908146985301 0.69026681212451702  5.3270915816885704 0.70307795470135803  5.3572972745834804 0.71604713659223895  5.3919209180834997 0.72919911416087901  5.4321683297138401 0.74249515464633398  5.4796783517100298 0.75582549639855801  5.5367995942233197 0.76896163621718805  5.6972760718891999 0.79755040171435498  5.7939971692991898 0.80988733730930096  5.8952108629051896 0.81883895842059196  5.9978661819628503 0.82490123267966697  6.0988356148842398 0.82853128736887904  6.1951473763529403 0.83008194741307295  6.2831853071795898 0.83008194892334197 
 0 8 0.43747280999594801 6 1 8
7 0 0  7 14 3  140.222751810056 4.4408920985006301e-16  140.24549556713899 -0.086777259086099998  140.267458929264 -0.176842420930056  140.28863096022999 -0.270863468708121  140.308881330535 -0.369496043933631  140.327977850385 -0.47316142774993702  140.34560840246499 -0.58223334295412699  140.38172235427899 -0.846021699991653  140.39559163803801 -0.97993887666762403  140.40490442044799 -1.1012401641027301  140.41097765411399 -1.2124356736031201  140.41455129985201 -1.31564967486499  140.416080434224 -1.4119575093629999  140.41608043571199 -1.499995 
 0 8 0.43747280999594801 6 1 8
7 0 0  7 14 3  0.98279449248105699 0.69026681212451702  0.95609372549100302 0.70307795470136303  0.92588803259619701 0.71604713659219799  0.89126438909609396 0.72919911416088001  0.85101697746569904 0.74249515464635596  0.80350695546955897 0.75582549639855101  0.74638571295627198 0.76896163621718705  0.585909235290347 0.79755040171436298  0.48918813788056698 0.80988733730928097  0.38797444427404998 0.81883895842062104  0.28531912521709601 0.82490123267964499  0.18434969229511899 0.82853128736888604  0.088037930826698904 0.83008194741307295  0 0.83008194892334197 
 0 8 0.43747280999585603 6 1 8
7 0 0  7 14 3  140.222751810056 -2.9999899999999999  140.24549556713899 -2.9132127409138699  140.267458929264 -2.8231475790702301  140.28863096022999 -2.72912653129187  140.308881330535 -2.6304939560662102  140.327977850385 -2.52682857225011  140.34560840246499 -2.41775665704587  140.38172235427899 -2.1539683000082799  140.39559163803801 -2.02005112333259  140.40490442044799 -1.89874983589688  140.41097765411399 -1.78755432639726  140.41455129985201 -1.6843403251347799  140.416080434224 -1.58803249063705  140.41608043571199 -1.499995 
 0 8 0.43747280999585603 6 1 8
1 0 -2.9999899999999999 1 0 
1 0 1.9999899999999999 1 0 
7 0 0  8 23 4  0.98279449248105699 0.69026681212451702  1.00487117233794 0.69497456786659095  1.0724110863070799 0.70894474058920698  1.1590026275623699 0.72471247908167502  1.2813645344453699 0.73728607249012201  1.3957371766695601 0.74412996253797803  1.5221036862078501 0.74404429586614496  1.58292768028842 0.74364218928516301  1.6382459826809499 0.74307742268004096  1.6651032323739701 0.74255233565112799  1.6900865492949699 0.74185721121850601  1.7131401874786201 0.741043095570736  1.7343317758466099 0.74014853084075005  1.75385231820767 0.739199555105852  1.77201619325754 0.73820970238771799  1.87641393886093 0.73197609426228805  1.9399305934852999 0.72613002841004204  1.9884776564772599 0.72001921325920504  2.0285616691945001 0.71390053737867099  2.06452917632725 0.70791036974267796  2.0985667258982499 0.70206455973081205  2.1307008692628102 0.69625843712800095  2.1587981611087401 0.69026681212451702 
 0 9 0.134089298682525 7 0.27712492139398598 7 1 9
7 0 0  8 23 4  140.222751810056 1.9999899999999999  140.23110953867899 1.95215740214536  140.25576058924401 1.8076268756535401  140.28256065622401 1.6338616317982999  140.30000015287499 1.42732475725643  140.31030416224499 1.26388649256131  140.31017016083101 1.07284190343423  140.30957255203199 0.98182939424492099  140.30873744866 0.89872654413861597  140.307960648776 0.85824936597397194  140.30692984462399 0.82041548625861205  140.305718684482 0.78528285728094605  140.30438270064499 0.752739721746982  140.30295930942299 0.72250461278032496  140.30146781114701 0.69412635392217903  140.29203342421701 0.52981201689084301  140.282977275094 0.42425530014520502  140.27330485498501 0.33854162589367498  140.26339887884899 0.26381886846376401  140.253460864413 0.194155059511253  140.24351113216801 0.12653838802019601  140.23338880537401 0.060877200302914103  140.222751810056 0 
 0 9 0.134089298682525 7 0.27712492139398598 7 1 9
1 0 -2.9999899999999999 1 0 
1 0 0 1 0 
1 0 0 1 0 
1 0 0 1 0 
7 0 0  8 30 5  2.1587981611087401 0.69026681212451702  2.1811023934436702 0.70096847850797095  2.2060041304738101 0.71184896111213602  2.2338673407385499 0.72294295654801199  2.2657684500792898 0.73426187652519803  2.3027586072635899 0.74580953842909803  2.3460726553487001 0.75757605971885  2.3982848087845499 0.76950995614594397  2.4989338689431402 0.78744051157834305  2.5357606543556201 0.79328136142019501  2.5767552044182298 0.79912089224070904  2.62313092805294 0.804975538959111  2.6764508311791699 0.81074827249224402  2.7386275167138399 0.81622859975457196  2.81192318457131 0.82109256365817995  2.9964257800819198 0.82917042989565803  3.0891394205668301 0.83107019365009005  3.17903173470427 0.83139168184988399  3.26828733037694 0.83027405824054501  3.35873506793958 0.82766251391763002  3.4517991191873598 0.82321190453708704  3.5468243714737699 0.81627429617793001  3.7489136490231401 0.79458033134343697  3.8376544010745999 0.78092454364439101  3.9168708811019601 0.76517464088752696  3.98125494579824 0.74772568866234101  4.0346103475884902 0.72980295704945097  4.07584792367114 0.71288070713767704  4.1065865608230103 0.698807609310095  4.1243871460708501 0.69026681212451801 
 0 9 0.37194465001027599 7 0.55769377878898496 7 0.76574673568241902 7 1 9
7 0 0  8 30 5  140.222751810056 -2.9999899999999999  140.24175059171401 -2.9275014400733599  140.26034265188699 -2.85223869347463  140.27853834103999 -2.77385779434755  140.296306795205 -2.6914999761838301  140.313588716167 -2.60445301670602  140.33029640545899 -2.5120345452372801  140.346301052152 -2.4126973125578499  140.36895132066201 -2.2472521918599502  140.37613193239099 -2.1899805575931199  140.38306184339999 -2.1298873560910399  140.38975381957599 -2.06608001585044  140.396120658923 -1.9974275582217  140.401975191563 -1.92256059740885  140.40703027973501 -1.8398713404695599  140.415231870594 -1.6440659762165699  140.417042071281 -1.5513762662078501  140.41735718294501 -1.46287343819545  140.41627079050701 -1.37483937361546  140.413735977154 -1.2835471904771301  140.409333727747 -1.1855448416230701  140.402222499272 -1.0767853535666101  140.37785836099201 -0.81430112264180998  140.36165932066501 -0.68046083564489201  140.34168567936899 -0.54223405439140304  140.31768302793901 -0.40544638711310199  140.29049283727699 -0.27285766406422501  140.26243885100399 -0.15417028494408599  140.237914377744 -0.057851746300486603  140.222751810056 -4.4408920985006301e-16 
 0 9 0.37194465001027599 7 0.55769377878898496 7 0.76574673568241902 7 1 9
7 0 0  8 23 4  4.1243871460708501 0.69026681212451702  4.1464638259277802 0.69497456786660095  4.2140037398968602 0.70894474058918899  4.30059528115207 0.72471247908168901  4.4229571880351202 0.73728607249011502  4.5373298302598402 0.74412996253799202  4.6636963397972302 0.74404429586613696  4.7245203338782504 0.74364218928516301  4.7798386362705498 0.74307742268004295  4.8066958859635198 0.74255233565113099  4.8316792028844899 0.741857211218512  4.8547328410680697 0.74104309557074899  4.8759244294359601 0.74014853084077104  4.8954449717968904 0.73919955510588198  4.9136088468466799 0.73820970238775396  5.0180065924503801 0.73197609426232302  5.0815232470749203 0.72613002841006602  5.13007031006698 0.72001921325921603  5.1701543227842697 0.71390053737867398  5.20612182991702 0.70791036974267996  5.2401593794880101 0.70206455973081705  5.2722935228525696 0.69625843712800894  5.3003908146985301 0.69026681212451702 
 0 9 0.13408929868306799 7 0.277124921394586 7 1 9
7 0 0  8 23 4  140.222751810056 -2.2204460492503101e-16  140.23110953867899 0.047832597854740699  140.25576058924401 0.192363124346485  140.282560656225 0.366128368201314  140.30000015287499 0.57266524274385799  140.31030416224499 0.73610350743917596  140.31017016083101 0.92714809656521102  140.30957255203199 1.01816060575514  140.30873744866 1.1012634558610901  140.307960648776 1.14174063402566  140.30692984462399 1.1795745137409701  140.305718684482 1.2147071427185301  140.30438270064499 1.24725027825233  140.30295930942299 1.2774853872187899  140.30146781114701 1.3058636460768001  140.29203342421701 1.4701779831085799  140.282977275094 1.5757346998544901  140.27330485498501 1.6614483741061901  140.26339887884899 1.7361711315361901  140.253460864413 1.8058349404887  140.24351113216801 1.87345161197973  140.23338880537401 1.9391127996969999  140.222751810056 1.9999899999999999 
 0 9 0.13408929868306799 7 0.277124921394586 7 1 9
1 6.2831853071795898 0 0 1 
1 0 0 0 1 
1 0 1 1 0 
Curves 16
7 0 0  4 5 2  0 0 0  1.4781015026447299 0 -0.00026716801345250102  2.9580871842533099 0 0.48715994950555402  4.18298283403466 0 1.45110660304136  5 0 2.6833752096446002 
 0 5 1 5
7 0 0  7 14 3  2.9999950000000002 1.499995 329.77724818994398  2.9999950000000002 1.4132177409139599 329.75450443286098  2.9999950000000002 1.32315257906954 329.73254107073598  2.9999950000000002 1.2291315312920199 329.71136903976998  2.9999950000000002 1.1304989560665 329.69111866946503  2.9999950000000002 1.02683357224963 329.67202214961497  2.9999950000000002 0.917761657045848 329.65439159753498  2.9999950000000002 0.65397330000826304 329.61827764572098  2.9999950000000002 0.52005612333262896 329.60440836196199  2.9999950000000002 0.39875483589701399 329.59509557955198  2.9999950000000002 0.287559326396848 329.58902234588601  2.9999950000000002 0.18434532513507801 329.58544870014703  2.9999950000000002 0.088037490636982199 329.583919565776  2.9999950000000002 0 329.58391956428801 
 0 8 0.43747280999579002 6 1 8
7 0 0  8 23 4  2.9999950000000002 1.499995 329.77724818994398  2.9521624021452602 1.499995 329.76889046132101  2.8076318756535499 1.499995 329.74423941075599  2.6338666317983002 1.49999499999999 329.71743934377503  2.4273297572572798 1.49999500000001 329.69999984712501  2.2638914925598099 1.49999499999999 329.68969583775498  2.0728469034350798 1.499995 329.68982983916902  1.9818343942448899 1.499995 329.69042744796798  1.8987315441386401 1.499995 329.69126255134  1.8582543659739099 1.499995 329.69203935122403  1.8204204862584501 1.499995 329.69307015537601  1.78528785728076 1.499995 329.69428131551803  1.7527447217468399 1.499995 329.69561729935498  1.7225096127802699 1.499995 329.69704069057701  1.6941313539221801 1.499995 329.69853218885299  1.5298170168907601 1.499995 329.70796657578302  1.42426030014504 1.499995 329.71702272490597  1.33854662589343 1.499995 329.72669514501501  1.2638238684634899 1.499995 329.73660112115101  1.19416005951103 1.499995 329.746539135587  1.1265433880200799 1.499995 329.75648886783199  1.0608822003029099 1.499995 329.76661119462602  1.000005 1.499995 329.77724818994398 
 0 9 0.13408929868300701 7 0.277124921394932 7 1 9
7 0 0  8 30 5  1.000005 1.499995 329.77724818994398  1.000005 1.42750644007326 329.75824940828602  1.000005 1.35224369347494 329.73965734811298  1.000005 1.27386279434782 329.72146165895998  1.000005 1.1915049761838801 329.703693204795  1.000005 1.1044580167060101 329.68641128383302  1.000005 1.0120395452373001 329.66970359454098  1.000005 0.91270231255773604 329.653698947848  1.000005 0.74725719185992701 329.63104867933799  1.000005 0.689985557593087 329.62386806760901  1.000005 0.62989235609100203 329.61693815659999  1.000005 0.56608501585040105 329.61024618042399  1.000005 0.49743255822166299 329.603879341077  1.000005 0.422565597408816 329.598024808437  1.000005 0.33987634046954102 329.59296972026499  1.000005 0.144070976216541 329.58476812940597  1.000005 0.051381266208981903 329.582957928719  1.000005 -0.037121561807024403 329.58264281705499  1.000005 -0.12515562638198 329.58372920949199  1.000005 -0.21644780952478401 329.58626402284699  1.000005 -0.31445015837613499 329.59066627225297  1.000005 -0.42320964643352299 329.597777500728  1.000005 -0.68569387735811305 329.62214163900802  1.000005 -0.819534164354495 329.63834067933499  1.00000499999999 -0.95776094561188096 329.65831432062998  1.00000500000002 -1.09454861288244 329.68231697206198  1.0000049999999701 -1.2271373359384601 329.70950716272199  1.00000500000001 -1.3458247150553899 329.73756114899697  1.000005 -1.4421432536996299 329.762085622256  1.000005 -1.499995 329.77724818994398 
 0 9 0.37194465001006999 7 0.55769377878881099 7 0.76574673568234397 7 1 9
7 0 0  7 14 3  2.9999950000000002 -1.499995 329.77724818994398  2.9999950000000002 -1.4132177409137601 329.75450443286098  2.9999950000000002 -1.32315257907061 329.73254107073598  2.9999950000000002 -1.22913153129186 329.71136903976998  2.9999950000000002 -1.1304989560660199 329.69111866946503  2.9999950000000002 -1.0268335722502 329.67202214961497  2.9999950000000002 -0.91776165704579904 329.65439159753498  2.9999950000000002 -0.65397330000834097 329.61827764572098  2.9999950000000002 -0.52005612333251305 329.60440836196199  2.9999950000000002 -0.398754835897209 329.59509557955198  2.9999950000000002 -0.28755932639663601 329.58902234588601  2.9999950000000002 -0.184345325135231 329.58544870014799  2.9999950000000002 -0.088037490636953 329.583919565776  2.9999950000000002 -2.2204460492503101e-16 329.58391956428801 
 0 8 0.43747280999579002 6 1 8
7 0 0  8 23 4  1.000005 -1.499995 329.77724818994398  1.0478375978547401 -1.499995 329.76889046132101  1.1923681243462101 -1.499995 329.74423941075599  1.3661333682024499 -1.499995 329.71743934377503  1.5726702427416199 -1.49999499999999 329.69999984712501  1.73610850744106 -1.49999500000001 329.68969583775498  1.92715309656456 -1.49999499999999 329.68982983916902  2.0181656057551298 -1.499995 329.69042744796798  2.1012684558613501 -1.499995 329.69126255134  2.1417456340260701 -1.499995 329.69203935122403  2.1795795137415199 -1.499995 329.69307015537601  2.2147121427192098 -1.499995 329.69428131551803  2.2472552782531099 -1.499995 329.69561729935498  2.2774903872196699 -1.499995 329.69704069057701  2.3058686460777502 -1.499995 329.69853218885299  2.4701829831091899 -1.499995 329.70796657578302  2.5757396998549198 -1.499995 329.71702272490597  2.6614533741065398 -1.499995 329.72669514501501  2.7361761315364901 -1.499995 329.73660112115101  2.8058399404889598 -1.499995 329.746539135587  2.8734566119799099 -1.499995 329.75648886783199  2.9391177996970899 -1.499995 329.76661119462602  2.9999950000000002 -1.499995 329.77724818994398 
 0 9 0.13408929868294001 7 0.27712492139485401 7 1 9
1 2.9999950000000002 -1.499995 200 0 0 1 
7 0 0  7 14 3  2.9999950000000002 -1.499995 340.22275181005602  2.9999950000000002 -1.4132177409139 340.24549556713902  2.9999950000000002 -1.3231525790699401 340.26745892926402  2.9999950000000002 -1.22913153129188 340.28863096023002  2.9999950000000002 -1.1304989560663701 340.30888133053497  2.9999950000000002 -1.0268335722500599 340.32797785038503  2.9999950000000002 -0.91776165704587298 340.34560840246502  2.9999950000000002 -0.65397330000834697 340.38172235427902  2.9999950000000002 -0.52005612333237605 340.39559163803801  2.99999499999999 -0.39875483589727101 340.40490442044802  2.99999500000001 -0.28755932639688297 340.41097765411399  2.9999950000000002 -0.18434532513500801 340.41455129985201  2.9999950000000002 -0.088037490636996701 340.416080434224  2.9999950000000002 -2.2204460492503101e-16 340.41608043571199 
 0 8 0.43747280999594801 6 1 8
7 0 0  7 14 3  2.9999950000000002 1.499995 340.22275181005602  2.9999950000000002 1.41321774091387 340.24549556713902  2.9999950000000002 1.3231525790702301 340.26745892926402  2.9999950000000002 1.22913153129187 340.28863096023002  2.9999950000000002 1.13049895606621 340.30888133053497  2.9999950000000002 1.0268335722501101 340.32797785038503  2.9999950000000002 0.91776165704587398 340.34560840246502  2.9999950000000002 0.65397330000828102 340.38172235427902  2.9999950000000002 0.52005612333259199 340.39559163803801  2.9999950000000002 0.39875483589687899 340.40490442044802  2.9999950000000002 0.287559326397263 340.41097765411399  2.9999950000000002 0.184345325134781 340.41455129985201  2.9999950000000002 0.088037490637045704 340.416080434224  2.9999950000000002 0 340.41608043571199 
 0 8 0.43747280999585603 6 1 8
1 2.9999950000000002 1.499995 200 0 0 1 
7 0 0  8 23 4  2.9999950000000002 1.499995 340.22275181005602  2.9521624021453601 1.499995 340.23110953867899  2.8076318756535401 1.499995 340.25576058924401  2.6338666317983002 1.49999500000001 340.28256065622401  2.4273297572564299 1.49999499999999 340.30000015287499  2.2638914925613101 1.49999500000001 340.31030416224502  2.0728469034342298 1.499995 340.31017016083098  1.9818343942449199 1.499995 340.30957255203202  1.8987315441386201 1.499995 340.30873744866  1.8582543659739701 1.499995 340.30796064877597  1.82042048625861 1.499995 340.30692984462399  1.7852878572809501 1.499995 340.30571868448197  1.75274472174698 1.499995 340.30438270064502  1.7225096127803301 1.499995 340.30295930942299  1.6941313539221801 1.499995 340.30146781114701  1.52981701689084 1.499995 340.29203342421698  1.4242603001452101 1.499995 340.28297727509403  1.33854662589367 1.499995 340.27330485498499  1.2638238684637599 1.499995 340.26339887884899  1.19416005951125 1.499995 340.253460864413  1.1265433880202 1.499995 340.24351113216801  1.0608822003029099 1.499995 340.23338880537398  1.000005 1.499995 340.22275181005602 
 0 9 0.134089298682525 7 0.27712492139398598 7 1 9
1 1.000005 1.499995 200 0 0 1 
1 1.000005 -1.499995 200 0 0 1 
7 0 0  8 30 5  1.000005 1.499995 340.22275181005602  1.000005 1.4275064400733599 340.24175059171398  1.000005 1.35224369347463 340.26034265188702  1.000005 1.27386279434755 340.27853834104002  1.000005 1.1915049761838299 340.296306795205  1.000005 1.1044580167060201 340.31358871616698  1.000005 1.0120395452372799 340.33029640545902  1.000005 0.91270231255784695 340.346301052152  1.000005 0.74725719185994799 340.36895132066201  1.000005 0.68998555759311797 340.37613193239099  1.000005 0.62989235609104 340.38306184340001  1.000005 0.56608501585044202 340.38975381957601  1.000005 0.49743255822170102 340.396120658923  1.000005 0.42256559740884703 340.401975191563  1.000005 0.339876340469561 340.40703027973501  1.000005 0.144070976216571 340.41523187059403  1.000005 0.051381266207850801 340.417042071281  1.000005 -0.0371215618045471 340.41735718294501  1.000005 -0.12515562638453501 340.41627079050699  1.000005 -0.21644780952286999 340.41373597715398  1.000005 -0.31445015837692902 340.40933372774703  1.000005 -0.42320964643338899 340.402222499272  1.000005 -0.68569387735818998 340.37785836099198  1.000005 -0.81953416435510795 340.36165932066501  1.00000499999999 -0.95776094560859704 340.34168567936899  1.00000500000001 -1.0945486128869 340.31768302793898  1.00000499999999 -1.22713733593577 340.29049283727699  1.000005 -1.3458247150559099 340.26243885100399  1.000005 -1.44214325369951 340.237914377744  1.000005 -1.499995 340.22275181005602 
 0 9 0.37194465001027599 7 0.55769377878898496 7 0.76574673568241902 7 1 9
7 0 0  8 23 4  1.000005 -1.499995 340.22275181005602  1.0478375978547401 -1.499995 340.23110953867899  1.1923681243464801 -1.499995 340.25576058924401  1.3661333682013099 -1.499995 340.28256065622497  1.5726702427438599 -1.499995 340.30000015287499  1.73610850743918 -1.49999499999999 340.31030416224502  1.9271530965652099 -1.499995 340.31017016083098  2.01816560575514 -1.499995 340.30957255203202  2.1012684558610899 -1.499995 340.30873744866  2.1417456340256602 -1.499995 340.30796064877597  2.1795795137409701 -1.499995 340.30692984462399  2.2147121427185299 -1.499995 340.30571868448197  2.2472552782523301 -1.499995 340.30438270064502  2.2774903872187902 -1.499995 340.30295930942299  2.3058686460767999 -1.499995 340.30146781114701  2.4701829831085802 -1.499995 340.29203342421698  2.5757396998544899 -1.499995 340.28297727509403  2.6614533741061899 -1.499995 340.27330485498499  2.7361761315361899 -1.499995 340.26339887884899  2.8058399404887 -1.499995 340.253460864413  2.87345661197973 -1.499995 340.24351113216801  2.9391177996970002 -1.499995 340.23338880537398  2.9999950000000002 -1.499995 340.22275181005602 
 0 9 0.13408929868306799 7 0.277124921394586 7 1 9
7 0 0  4 5 2  5 0 8.3166247903553998  4.1829828340346698 0 9.5488933969586007  2.9580871842532801 0 10.5128400504945  1.4781015026447499 0 11.0002671680134  0 0 11 
 0 5 1 5
Polygon3D 0
PolygonOnTriangulations 0
Surfaces 6
7 0 0 0 0 0 1 
7 0 0  4 5 2  0 0 0  1.4781015026447299 0 -0.00026716801345250102  2.9580871842533099 0 0.48715994950555402  4.18298283403466 0 1.45110660304136  5 0 2.6833752096446002 
 0 5 1 5
1 2.9999950000000002 -1.499995 200 1 0 0 0 0 1 0 -1 0 
1 1.000005 1.499995 200 0 1 0 0 -0 1 1 0 -0 
1 1.000005 -1.499995 200 1 0 0 0 0 1 0 -1 0 
1 1.000005 -1.499995 200 0 1 0 0 -0 1 1 0 -0 
7 0 0 0 0 0 1 
7 0 0  4 5 2  5 0 8.3166247903553998  4.1829828340346698 0 9.5488933969586007  2.9580871842532801 0 10.5128400504945  1.4781015026447499 0 11.0002671680134  0 0 11 
 0 5 1 5
Triangulations 0

TShapes 45
Ve
3.47675850929365e-05
2.999995 0 329.583919564288
0 0

0101100
*
Ve
1e-07
0 0 0
0 0

0101100
*
Ed
 1e-07 1 1 0
1  1 0 0 0.169918051076658
3  1 2CN 1 0 0 0.169918051076658
0

0101000
-45 2 +44 0 *
Ve
0.25043393004406
2.999995 1.499995 329.777248189944
0 0

0101100
*
Ed
 3.47675850929365e-05 1 1 0
1  2 0 0 1
2  3 1 1 0 1
2  4 2 0 0 1
0

0101000
+42 0 -45 0 *
Ed
 1e-07 1 1 1
2  5 1 0 0 6.28318530717959
0

0101100
+44 0 -44 0 *
Ve
0.25043393004406
1.000005 1.499995 329.777248189944
0 0

0101100
*
Ed
 0.25043393004406 1 1 0
1  3 0 0 1
2  6 1 1 0 1
2  7 3 0 0 1
0

0101000
+42 0 -39 0 *
Ve
0.250433930043122
1.000005 -1.499995 329.777248189944
0 0

0101100
*
Ed
 0.0361812393930002 1 1 0
1  4 0 0 1
2  8 1 1 0 1
2  9 4 0 0 1
0

0101000
+39 0 -37 0 *
Ve
0.250433930043122
2.999995 -1.499995 329.777248189944
0 0

0101100
*
Ed
 3.47675787823896e-05 1 1 0
1  5 0 0 1
2  10 1 1 0 1
2  11 2 0 0 1
0

0101000
+35 0 -45 0 *
Ed
 0.250433930043122 1 1 0
1  6 0 0 1
2  12 1 1 0 1
2  13 5 0 0 1
0

0101000
+37 0 -35 0 *
Wi

0101100
-43 1 +41 0 +40 1 -38 0 +43 1 -36 0 -34 0 -33 0 *
Fa
0  1e-07 1 1

0111000
+32 0 *
Ve
0.250433930036868
2.999995 -1.499995 340.222751810056
0 0

0101100
*
Ed
 1e-07 1 1 0
1  7 0 129.777248189944 140.222751810056
2  14 2 0 129.777248189944 140.222751810056
2  15 5 0 129.777248189944 140.222751810056
0

0101000
+35 0 -30 0 *
Ve
3.47675894469284e-05
2.999995 0 340.416080435712
0 0

0101100
*
Ed
 3.47675894469284e-05 1 1 0
1  8 0 0 1
2  16 6 1 0 1
2  17 2 0 0 1
0

0101000
+30 0 -28 0 *
Ve
0.250433930043047
2.999995 1.499995 340.222751810056
0 0

0101100
*
Ed
 3.47675885669049e-05 1 1 0
1  9 0 0 1
2  18 6 1 0 1
2  19 2 0 0 1
0

0101000
+26 0 -28 0 *
Ed
 1e-07 1 1 0
1  10 0 129.777248189944 140.222751810056
2  20 2 0 129.777248189944 140.222751810056
2  21 3 0 129.777248189944 140.222751810056
0

0101000
+42 0 -26 0 *
Wi

0101100
-29 0 +34 0 -27 0 -41 0 +25 0 +24 0 *
Fa
0  1e-07 2 0

0111000
+23 0 *
Ve
0.250433930043047
1.000005 1.499995 340.222751810056
0 0

0101100
*
Ed
 0.250433930043047 1 1 0
1  11 0 0 1
2  22 6 1 0 1
2  23 3 0 0 1
0

0101000
+26 0 -21 0 *
Ed
 1e-07 1 1 0
1  12 0 129.777248189944 140.222751810056
2  24 4 0 129.777248189944 140.222751810056
2  25 3 0 129.777248189944 140.222751810056
0

0101000
+39 0 -21 0 *
Wi

0101100
-24 0 +38 0 -20 0 +19 0 *
Fa
0  1e-07 3 0

0111000
+18 0 *
Ve
0.250433930036868
1.000005 -1.499995 340.222751810056
0 0

0101100
*
Ed
 1e-07 1 1 0
1  13 0 129.777248189944 140.222751810056
2  26 4 0 129.777248189944 140.222751810056
2  27 5 0 129.777248189944 140.222751810056
0

0101000
+37 0 -16 0 *
Ed
 0.036181239391876 1 1 0
1  14 0 0 1
2  28 6 1 0 1
2  29 4 0 0 1
0

0101000
+21 0 -16 0 *
Wi

0101100
-15 0 -36 0 +14 0 +19 0 *
Fa
0  1e-07 4 0

0111000
+13 0 *
Ed
 0.250433930036868 1 1 0
1  15 0 0 1
2  30 6 1 0 1
2  31 5 0 0 1
0

0101000
+16 0 -30 0 *
Wi

0101100
-29 0 -33 0 +11 0 +15 0 *
Fa
0  1e-07 5 0

0111000
+10 0 *
Ve
1e-07
0 0 11
0 0

0101100
*
Ed
 1e-07 1 1 0
1  16 0 0.830081948923342 1
3  32 33CN 6 0 0.830081948923342 1
0

0101000
+28 2 -8 0 *
Ed
 1e-07 1 1 1
2  34 6 0 0 6.28318530717959
0

0101100
+8 0 -8 0 *
Wi

0101100
-7 1 -25 0 -6 1 +20 0 +7 1 +14 0 +27 0 +11 0 *
Fa
0  1e-07 6 1

0111000
+5 0 *
Sh

0101100
+31 0 +22 0 +17 0 -12 0 -9 0 +4 0 *
So

0100000
+3 0 *
Co

1100000
+2 0 *

+1 0 
0

