DBRep_DrawableShape

CASCADE Topology V1, (c) Matra-Datavision
Locations 1
1
              1               0               0               4 
              0               1               0               4 
              0               0               1               2 
Curve2ds 6
1 0 4 1 0 
2 0 0 1 0 -0 1 1
1 6.2831853071795862 -0 0 1 
1 0 -0 0 1 
1 0 0 1 0 
2 0 0 1 0 -0 1 1
Curves 3
2 0 0 4 0 0 1 1 0 -0 -0 1 0 1
1 1 -2.4492935982947064e-16 0 0 0 1 
2 0 0 0 0 0 1 1 0 -0 -0 1 0 1
Polygon3D 0
PolygonOnTriangulations 6
37 1 3 4 5 6 7 8 9 10 11 12 13 14 15 16 17 18 19 20 21 22 23 24 25 26 27 28 29 30 31 32 33 34 35 36 37 2 
p 0.01920000016 1 0 0.174532925199433 0.349065850398866 0.523598775598299 0.698131700797732 0.872664625997165 1.0471975511966 1.22173047639603 1.39626340159546 1.5707963267949 1.74532925199433 1.91986217719376 2.0943951023932 2.26892802759263 2.44346095279206 2.61799387799149 2.79252680319093 2.96705972839036 3.14159265358979 3.31612557878922 3.49065850398866 3.66519142918809 3.83972435438752 4.01425727958696 4.18879020478639 4.36332312998582 4.53785605518525 4.71238898038469 4.88692190558412 5.06145483078355 5.23598775598299 5.41052068118242 5.58505360638185 5.75958653158128 5.93411945678072 6.10865238198015 6.28318530717959 
37 1 2 3 4 5 6 7 8 9 10 11 12 13 14 15 16 17 18 19 20 21 22 23 24 25 26 27 28 29 30 31 32 33 34 35 36 1 
p 0.01920000016 1 0 0.174532925199433 0.349065850398866 0.523598775598299 0.698131700797732 0.872664625997165 1.0471975511966 1.22173047639603 1.39626340159546 1.5707963267949 1.74532925199433 1.91986217719376 2.0943951023932 2.26892802759263 2.44346095279206 2.61799387799149 2.79252680319093 2.96705972839036 3.14159265358979 3.31612557878922 3.49065850398866 3.66519142918809 3.83972435438752 4.01425727958696 4.18879020478639 4.36332312998582 4.53785605518525 4.71238898038469 4.88692190558412 5.06145483078355 5.23598775598299 5.41052068118242 5.58505360638185 5.75958653158128 5.93411945678072 6.10865238198015 6.28318530717959 
2 38 2 
p 0.01920000016 1 0 4 
2 39 1 
p 0.01920000016 1 0 4 
37 39 40 41 42 43 44 45 46 47 48 49 50 51 52 53 54 55 56 57 58 59 60 61 62 63 64 65 66 67 68 69 70 71 72 73 74 38 
p 0.01920000016 1 0 0.174532925199433 0.349065850398866 0.523598775598299 0.698131700797732 0.872664625997165 1.0471975511966 1.22173047639603 1.39626340159546 1.5707963267949 1.74532925199433 1.91986217719376 2.0943951023932 2.26892802759263 2.44346095279206 2.61799387799149 2.79252680319093 2.96705972839036 3.14159265358979 3.31612557878922 3.49065850398866 3.66519142918809 3.83972435438752 4.01425727958696 4.18879020478639 4.36332312998582 4.53785605518525 4.71238898038469 4.88692190558412 5.06145483078355 5.23598775598299 5.41052068118242 5.58505360638185 5.75958653158128 5.93411945678072 6.10865238198015 6.28318530717959 
37 1 2 3 4 5 6 7 8 9 10 11 12 13 14 15 16 17 18 19 20 21 22 23 24 25 26 27 28 29 30 31 32 33 34 35 36 1 
p 0.01920000016 1 0 0.174532925199433 0.349065850398866 0.523598775598299 0.698131700797732 0.872664625997165 1.0471975511966 1.22173047639603 1.39626340159546 1.5707963267949 1.74532925199433 1.91986217719376 2.0943951023932 2.26892802759263 2.44346095279206 2.61799387799149 2.79252680319093 2.96705972839036 3.14159265358979 3.31612557878922 3.49065850398866 3.66519142918809 3.83972435438752 4.01425727958696 4.18879020478639 4.36332312998582 4.53785605518525 4.71238898038469 4.88692190558412 5.06145483078355 5.23598775598299 5.41052068118242 5.58505360638185 5.75958653158128 5.93411945678072 6.10865238198015 6.28318530717959 
Surfaces 3
2 0 0 0 0 0 1 1 0 -0 -0 1 0 1
1 0 0 4 0 0 1 1 0 -0 -0 1 0 
1 0 0 0 0 0 1 1 0 -0 -0 1 0 
Triangulations 3
74 72 1 0.01920000016
1 -4.44089209850063e-16 4 1 -4.44089209850063e-16 4 0.984807753012208 0.17364817766693 4 0.939692620785909 0.342020143325668 4 0.866025403784438 0.5 4 0.766044443118978 0.64278760968654 4 0.64278760968654 0.766044443118978 4 0.5 0.866025403784438 4 0.342020143325668 0.939692620785908 4 0.17364817766693 0.984807753012208 4 0 1 4 -0.17364817766693 0.984807753012208 4 -0.342020143325669 0.939692620785909 4 -0.5 0.866025403784439 4 -0.642787609686539 0.766044443118979 4 -0.766044443118978 0.64278760968654 4 -0.866025403784438 0.500000000000001 4 -0.939692620785908 0.342020143325669 4 -0.984807753012208 0.173648177666932 4 -1 1.77635683940025e-15 4 -0.984807753012208 -0.173648177666929 4 -0.939692620785909 -0.342020143325667 4 -0.86602540378444 -0.499999999999998 4 -0.76604444311898 -0.642787609686537 4 -0.642787609686541 -0.766044443118977 4 -0.500000000000002 -0.866025403784437 4 -0.342020143325671 -0.939692620785908 4 -0.173648177666933 -0.984807753012208 4 -2.66453525910038e-15 -1 4 0.173648177666927 -0.984807753012209 4 0.342020143325666 -0.93969262078591 4 0.499999999999997 -0.86602540378444 4 0.642787609686536 -0.766044443118981 4 0.766044443118975 -0.642787609686542 4 0.866025403784437 -0.500000000000004 4 0.939692620785907 -0.342020143325673 4 0.984807753012207 -0.173648177666935 4 1 -4.44089209850063e-16 0 1 -4.44089209850063e-16 0 0.984807753012208 0.17364817766693 0 0.939692620785909 0.342020143325668 0 0.866025403784438 0.5 0 0.766044443118978 0.64278760968654 0 0.64278760968654 0.766044443118978 0 0.5 0.866025403784438 0 0.342020143325668 0.939692620785908 0 0.17364817766693 0.984807753012208 0 0 1 0 -0.17364817766693 0.984807753012208 0 -0.342020143325669 0.939692620785909 0 -0.5 0.866025403784439 0 -0.642787609686539 0.766044443118979 0 -0.766044443118978 0.64278760968654 0 -0.866025403784438 0.500000000000001 0 -0.939692620785908 0.342020143325669 0 -0.984807753012208 0.173648177666932 0 -1 1.77635683940025e-15 0 -0.984807753012208 -0.173648177666929 0 -0.939692620785909 -0.342020143325667 0 -0.86602540378444 -0.499999999999998 0 -0.76604444311898 -0.642787609686537 0 -0.642787609686541 -0.766044443118977 0 -0.500000000000002 -0.866025403784437 0 -0.342020143325671 -0.939692620785908 0 -0.173648177666933 -0.984807753012208 0 -2.66453525910038e-15 -1 0 0.173648177666927 -0.984807753012209 0 0.342020143325666 -0.93969262078591 0 0.499999999999997 -0.86602540378444 0 0.642787609686536 -0.766044443118981 0 0.766044443118975 -0.642787609686542 0 0.866025403784437 -0.500000000000004 0 0.939692620785907 -0.342020143325673 0 0.984807753012207 -0.173648177666935 0 0 4 6.28318530717959 4 0.174532925199433 4 0.349065850398866 4 0.523598775598299 4 0.698131700797732 4 0.872664625997165 4 1.0471975511966 4 1.22173047639603 4 1.39626340159546 4 1.5707963267949 4 1.74532925199433 4 1.91986217719376 4 2.0943951023932 4 2.26892802759263 4 2.44346095279206 4 2.61799387799149 4 2.79252680319093 4 2.96705972839036 4 3.14159265358979 4 3.31612557878922 4 3.49065850398866 4 3.66519142918809 4 3.83972435438752 4 4.01425727958696 4 4.18879020478639 4 4.36332312998582 4 4.53785605518525 4 4.71238898038469 4 4.88692190558412 4 5.06145483078355 4 5.23598775598298 4 5.41052068118242 4 5.58505360638185 4 5.75958653158128 4 5.93411945678072 4 6.10865238198015 4 6.28318530717959 0 0 0 0.174532925199433 0 0.349065850398866 0 0.523598775598299 0 0.698131700797732 0 0.872664625997165 0 1.0471975511966 0 1.22173047639603 0 1.39626340159546 0 1.5707963267949 0 1.74532925199433 0 1.91986217719376 0 2.0943951023932 0 2.26892802759263 0 2.44346095279206 0 2.61799387799149 0 2.79252680319093 0 2.96705972839036 0 3.14159265358979 0 3.31612557878922 0 3.49065850398866 0 3.66519142918809 0 3.83972435438752 0 4.01425727958696 0 4.18879020478639 0 4.36332312998582 0 4.53785605518525 0 4.71238898038469 0 4.88692190558412 0 5.06145483078355 0 5.23598775598298 0 5.41052068118242 0 5.58505360638185 0 5.75958653158128 0 5.93411945678072 0 6.10865238198015 0 39 40 3 41 42 5 40 41 4 43 44 7 45 46 9 46 47 10 44 45 8 42 43 6 48 49 12 50 51 14 49 50 13 52 53 16 54 55 18 55 56 19 53 54 17 51 52 15 47 48 11 1 39 3 4 41 5 40 4 3 6 43 7 8 45 9 9 46 10 44 8 7 42 6 5 11 48 12 50 14 13 13 12 49 51 15 14 10 47 11 15 52 16 17 54 18 18 55 19 53 17 16 57 20 19 57 19 56 58 59 22 60 61 24 59 60 23 62 63 26 64 65 28 65 66 29 63 64 27 61 62 25 67 68 31 69 70 33 68 69 32 71 72 35 73 74 37 74 38 2 72 73 36 70 71 34 66 67 30 21 20 58 23 22 59 21 58 22 25 24 61 27 26 63 28 27 64 25 62 26 23 60 24 30 29 66 32 31 68 33 32 69 30 67 31 35 34 71 37 36 73 2 37 74 35 72 36 33 70 34 28 65 29 58 20 57 
37 36 1 0.01920000016
1 -4.44089209850063e-16 4 0.984807753012208 0.17364817766693 4 0.939692620785909 0.342020143325668 4 0.866025403784438 0.5 4 0.766044443118978 0.64278760968654 4 0.64278760968654 0.766044443118978 4 0.5 0.866025403784438 4 0.342020143325668 0.939692620785908 4 0.17364817766693 0.984807753012208 4 0 1 4 -0.17364817766693 0.984807753012208 4 -0.342020143325669 0.939692620785909 4 -0.5 0.866025403784439 4 -0.642787609686539 0.766044443118979 4 -0.766044443118978 0.64278760968654 4 -0.866025403784438 0.500000000000001 4 -0.939692620785908 0.342020143325669 4 -0.984807753012208 0.173648177666932 4 -1 1.77635683940025e-15 4 -0.984807753012208 -0.173648177666929 4 -0.939692620785909 -0.342020143325667 4 -0.86602540378444 -0.499999999999998 4 -0.76604444311898 -0.642787609686537 4 -0.642787609686541 -0.766044443118977 4 -0.500000000000002 -0.866025403784437 4 -0.342020143325671 -0.939692620785908 4 -0.173648177666933 -0.984807753012208 4 -2.66453525910038e-15 -1 4 0.173648177666927 -0.984807753012209 4 0.342020143325666 -0.93969262078591 4 0.499999999999997 -0.86602540378444 4 0.642787609686536 -0.766044443118981 4 0.766044443118975 -0.642787609686542 4 0.866025403784437 -0.500000000000004 4 0.939692620785907 -0.342020143325673 4 0.984807753012207 -0.173648177666935 4 0 0 4 1 0 0.984807753012208 0.17364817766693 0.939692620785908 0.342020143325669 0.866025403784439 0.5 0.766044443118978 0.642787609686539 0.642787609686539 0.766044443118978 0.5 0.866025403784439 0.342020143325669 0.939692620785908 0.173648177666931 0.984807753012208 0 1 -0.17364817766693 0.984807753012208 -0.342020143325669 0.939692620785908 -0.5 0.866025403784439 -0.642787609686539 0.766044443118978 -0.766044443118978 0.64278760968654 -0.866025403784438 0.500000000000001 -0.939692620785908 0.34202014332567 -0.984807753012208 0.173648177666932 -1 1.55431223447522e-15 -0.984807753012208 -0.173648177666929 -0.939692620785909 -0.342020143325667 -0.86602540378444 -0.499999999999998 -0.766044443118979 -0.642787609686538 -0.642787609686541 -0.766044443118977 -0.500000000000002 -0.866025403784437 -0.342020143325671 -0.939692620785908 -0.173648177666933 -0.984807753012208 -2.88657986402541e-15 -1 0.173648177666927 -0.984807753012209 0.342020143325666 -0.93969262078591 0.499999999999997 -0.86602540378444 0.642787609686537 -0.76604444311898 0.766044443118976 -0.642787609686542 0.866025403784437 -0.500000000000004 0.939692620785907 -0.342020143325673 0.984807753012207 -0.173648177666935 0 0 21 22 37 20 37 19 23 37 22 37 26 27 37 25 26 37 20 21 37 23 24 37 24 25 37 16 17 37 15 16 37 18 19 13 14 37 13 37 12 37 17 18 14 15 37 37 11 12 28 37 27 29 30 37 37 31 32 31 37 30 29 37 28 33 34 37 35 36 37 37 34 35 37 32 33 37 36 1 37 7 8 9 10 37 37 8 9 37 6 7 2 3 37 37 4 5 37 3 4 5 6 37 37 1 2 37 10 11 
37 36 1 0.01920000016
1 -4.44089209850063e-16 0 0.984807753012208 0.17364817766693 0 0.939692620785909 0.342020143325668 0 0.866025403784438 0.5 0 0.766044443118978 0.64278760968654 0 0.64278760968654 0.766044443118978 0 0.5 0.866025403784438 0 0.342020143325668 0.939692620785908 0 0.17364817766693 0.984807753012208 0 0 1 0 -0.17364817766693 0.984807753012208 0 -0.342020143325669 0.939692620785909 0 -0.5 0.866025403784439 0 -0.642787609686539 0.766044443118979 0 -0.766044443118978 0.64278760968654 0 -0.866025403784438 0.500000000000001 0 -0.939692620785908 0.342020143325669 0 -0.984807753012208 0.173648177666932 0 -1 1.77635683940025e-15 0 -0.984807753012208 -0.173648177666929 0 -0.939692620785909 -0.342020143325667 0 -0.86602540378444 -0.499999999999998 0 -0.76604444311898 -0.642787609686537 0 -0.642787609686541 -0.766044443118977 0 -0.500000000000002 -0.866025403784437 0 -0.342020143325671 -0.939692620785908 0 -0.173648177666933 -0.984807753012208 0 -2.66453525910038e-15 -1 0 0.173648177666927 -0.984807753012209 0 0.342020143325666 -0.93969262078591 0 0.499999999999997 -0.86602540378444 0 0.642787609686536 -0.766044443118981 0 0.766044443118975 -0.642787609686542 0 0.866025403784437 -0.500000000000004 0 0.939692620785907 -0.342020143325673 0 0.984807753012207 -0.173648177666935 0 0 0 0 1 -2.22044604925031e-16 0.984807753012208 0.17364817766693 0.939692620785908 0.342020143325669 0.866025403784439 0.5 0.766044443118978 0.642787609686539 0.642787609686539 0.766044443118978 0.5 0.866025403784439 0.342020143325669 0.939692620785908 0.173648177666931 0.984807753012208 0 1 -0.17364817766693 0.984807753012208 -0.342020143325669 0.939692620785908 -0.5 0.866025403784439 -0.642787609686539 0.766044443118978 -0.766044443118978 0.64278760968654 -0.866025403784438 0.500000000000001 -0.939692620785908 0.34202014332567 -0.984807753012208 0.173648177666932 -1 1.55431223447522e-15 -0.984807753012208 -0.173648177666929 -0.939692620785909 -0.342020143325667 -0.86602540378444 -0.499999999999998 -0.766044443118979 -0.642787609686538 -0.642787609686541 -0.766044443118977 -0.500000000000002 -0.866025403784437 -0.342020143325671 -0.939692620785908 -0.173648177666933 -0.984807753012208 -2.88657986402541e-15 -1 0.173648177666927 -0.984807753012209 0.342020143325666 -0.93969262078591 0.499999999999997 -0.86602540378444 0.642787609686537 -0.76604444311898 0.766044443118976 -0.642787609686542 0.866025403784437 -0.500000000000004 0.939692620785907 -0.342020143325673 0.984807753012207 -0.173648177666935 0 0 21 22 37 20 37 19 23 37 22 37 26 27 37 25 26 37 20 21 37 23 24 37 24 25 37 16 17 37 15 16 37 18 19 13 14 37 13 37 12 37 17 18 14 15 37 37 11 12 28 37 27 37 29 30 31 37 30 32 37 31 34 37 33 36 37 35 35 37 34 37 32 33 37 36 1 37 7 8 7 37 6 37 9 10 9 37 8 37 10 11 4 37 3 5 6 37 37 4 5 37 2 3 37 1 2 29 37 28 

TShapes 13
Ve
1e-07
1 -2.44929359829471e-16 4
0 0

0101100
*
Ed
 1e-07 1 1 0
1  1 0 0 6.28318530717959
2  1 1 0 0 6.28318530717959
2  2 2 0 0 6.28318530717959
6  1 1 0
6  2 2 0
0

0101100
+13 0 -13 0 *
Ve
1e-07
1 -2.44929359829471e-16 0
0 0

0101100
*
Ed
 1e-07 1 1 0
1  2 0 0 4
3  3 4CN 1 0 0 4
7  3 4 1 0
0

0101000
-13 0 +11 0 *
Ed
 1e-07 1 1 0
1  3 0 0 6.28318530717959
2  5 1 0 0 6.28318530717959
2  6 3 0 0 6.28318530717959
6  5 1 0
6  6 3 0
0

0101100
+11 0 -11 0 *
Wi

0101000
-12 0 +10 0 +9 0 -10 0 *
Fa
0  1e-07 1 0
2  1
0101000
+8 0 *
Wi

0101000
+12 0 *
Fa
0  1e-07 2 0
2  2
0101000
+6 0 *
Wi

0101000
-9 0 *
Fa
0  1e-07 3 0
2  3
0101000
-4 0 *
Sh

0101100
+7 0 +5 0 -3 0 *
So

1100100
+2 0 *

+1 1 
0

