DBRep_DrawableShape

CASCADE Topology V1, (c) Matra-Datavision
Locations 31
1
              1               0               0            -200 
              0               1               0               0 
              0               0               1               0 
1
              1               0               0             100 
              0               1               0               0 
              0               0               1               0 
1
              1               0               0               0 
              0               1               0              75 
              0               0               1               0 
2  1 1 2 1 3 1 0
1
              1               0               0             200 
              0               1               0               0 
              0               0               1               0 
2  1 1 2 1 3 1 5 1 0
2  2 -1 1 -1 0
2  5 -1 3 -1 2 -1 1 -1 0
2  3 -1 2 -1 1 -1 0
2  3 1 5 1 0
1
              1               0               0            -200 
              0               1               0               0 
              0               0               1               0 
1
              1               0               0             100 
              0               1               0               0 
              0               0               1               0 
2  11 1 12 1 3 1 0
1
              1               0               0            -200 
              0               1               0               0 
              0               0               1               0 
2  14 -1 0
1
              1               0               0            -200 
              0               1               0               0 
              0               0               1               0 
2  16 -1 0
1
              1               0               0            -200 
              0               1               0               0 
              0               0               1               0 
2  18 -1 0
2  11 -1 0
2  12 -1 11 -1 0
1
              1               0               0             200 
              0               1               0               0 
              0               0               1               0 
2  22 -1 12 -1 11 -1 0
2  3 -1 12 -1 11 -1 0
2  5 -1 3 -1 12 -1 11 -1 0
2  1 1 2 1 12 -1 11 -1 0
2  11 1 12 1 3 1 5 1 0
2  1 -1 0
2  2 -1 0
2  1 1 2 1 0
2  11 1 12 1 0
Curve2ds 23
1 1.5707963267949 0 0 -1 
7 0 0  1 2 2  -100 50  -100 -50 
 307.108234405518 2 407.108234405518 2
1 4.71238896240203 0 0 -1 
1 0 0 1 0 
1 0 -200 1 0 
1 0 0 1 0 
1 0 -200 1 0 
1 0 0 1 0 
1 0 -200 1 0 
1 0 0 1 0 
1 0 -200 1 0 
7 0 0  10 38 5  -99.4893112944359 70.4619437317742  -99.2561690353234 68.4783074450825  -99.0584980955157 66.3828722405999  -98.8968705932915 64.1849410829359  -98.7722957769864 61.8912155761883  -98.6862200248654 59.5057959640912  -98.6405268453466 57.0301811297794  -98.6375368766892 54.4632685960891  -98.6800078873452 51.80135452525  -98.771134775636 49.0381337191337  -99.0579643643576 43.2912655190708  -99.2761538999901 40.3540178482447  -99.3889719862719 36.874904377872  -100.13391348538 34.8141400597747  -99.6993995011648 28.6011212371125  -101.208529430468 29.1043076124976  -100.848992348651 19.7211532046474  -101.933076478982 19.5170058976932  -102.757758540322 9.6346949148023  -102.757758540324 -9.63469491479946  -101.93307647897 -19.5170058976324  -100.848992348644 -19.7211532047199  -101.208529430583 -29.1043076125136  -99.6993995009801 -28.6011212370011  -100.133913485542 -34.8141400599309  -99.3889719861883 -36.8749043777418  -99.2761539000113 -40.3540178483025  -99.0579643643493 -43.2912655190626  -98.7711347756357 -49.0381337191269  -98.6800078873252 -51.801354525242  -98.6375368767142 -54.4632685960861  -98.6405268452929 -57.0301811297711  -98.6862200249144 -59.5057959640935  -98.7722957769334 -61.8912155761769  -98.8968705933164 -64.1849410829331  -99.0584980954991 -66.3828722405899  -99.2561690353235 -68.4783074450718  -99.4893112944335 -70.4619437317624 
 1.5707963267949 11 2.35619448569668 9 3.14159264459847 9 3.92699080350025 9 4.71238896240203 11
1 0 0 1 0 
1 0 -200 1 0 
1 0 0 1 0 
1 0 -200 1 0 
7 0 0  1 2 2  -100 -49.9999993256504  -100 49.9999993256504 
 1.27897692436818e-013 2 99.9999986513009 2
1 0 750 1 0 
2 0 0 1 0 0 1 75
1 6.28318530717959 0 0 1 
1 0 0 0 1 
1 0 0 1 0 
2 0 0 1 0 0 1 75
Curves 11
1 -100 75 75 1 0 0 
1 -100 -25 75 1 0 0 
1 0 307.108234405518 75.0000000000002 0 -1 -4.28626379701574e-016 
1 -100 74.9999986513008 -75 1 0 0 
2 0 0 0 1 0 0 0 1 0 0 0 1 75
1 -100 -25 -75 1 0 0 
1 0 -100 75 0 1.22464679914735e-016 -1 
1 0 -100 -75 0 1 3.06161699786838e-016 
2 0 750 0 0 1 0 0 0 1 1 0 0 75
1 -1.83697019872103e-014 0 75 0 1 0 
2 0 0 0 0 1 0 0 0 1 1 0 0 75
Polygon3D 0
PolygonOnTriangulations 27
2 1 2 
p 20.00000002 1 0 200 
2 1 2 
p 24.000000004 1 0 200 
2 3 4 
p 20.00000002 1 0 200 
2 1 2 
p 24.000000004 1 0 200 
2 1 2 
p 16.2358830243859 1 307.108234405518 407.108234405518 
2 2 4 
p 20.00000002 1 307.108234405518 407.108234405518 
2 1 3 
p 20.00000002 1 307.108234405518 407.108234405518 
2 3 4 
p 20.00000002 1 0 200 
2 1 2 
p 24.2000000032 1 0 200 
24 1 4 5 6 7 8 9 10 11 12 13 14 15 16 17 18 19 20 21 22 23 24 25 3 
p 16.2358830243859 1 1.5707963267949 1.70738731095173 1.84397829510856 1.98056927926539 2.11716026342222 2.25375124757906 2.39034223173589 2.52693321589272 2.66352420004955 2.80011518420638 2.93670616836322 3.07329715252005 3.20988813667688 3.34647912083371 3.48307010499054 3.61966108914738 3.75625207330421 3.89284305746104 4.02943404161787 4.16602502577471 4.30261600993154 4.43920699408837 4.5757979782452 4.71238896240203 
24 1 5 6 7 8 9 10 11 12 13 14 15 16 17 18 19 20 21 22 23 24 25 26 3 
p 20.00000002 1 1.5707963267949 1.70738731095173 1.84397829510856 1.98056927926539 2.11716026342222 2.25375124757906 2.39034223173589 2.52693321589272 2.66352420004955 2.80011518420638 2.93670616836322 3.07329715252005 3.20988813667688 3.34647912083371 3.48307010499054 3.61966108914738 3.75625207330421 3.89284305746104 4.02943404161787 4.16602502577471 4.30261600993154 4.43920699408837 4.5757979782452 4.71238896240203 
24 2 27 28 29 30 31 32 33 34 35 36 37 38 39 40 41 42 43 44 45 46 47 48 4 
p 20.00000002 1 1.5707963267949 1.70738731095173 1.84397829510856 1.98056927926539 2.11716026342222 2.25375124757906 2.39034223173589 2.52693321589272 2.66352420004955 2.80011518420638 2.93670616836322 3.07329715252005 3.20988813667688 3.34647912083371 3.48307010499054 3.61966108914738 3.75625207330421 3.89284305746104 4.02943404161787 4.16602502577471 4.30261600993154 4.43920699408837 4.5757979782452 4.71238896240203 
2 3 4 
p 20.00000002 1 0 200 
2 3 4 
p 24.2000000032 1 0 200 
2 2 4 
p 20.00000002 1 0 150 
2 1 3 
p 20.00000002 1 0 150 
2 2 26 
p 19.000000004 1 0 150 
2 2 26 
p 19.000000004 1 0 150 
2 2 4 
p 20.00000002 1 0 150 
2 1 3 
p 20.00000002 1 0 150 
2 26 3 
p 16.2358830243859 1 1.27897692436818e-013 99.9999986513009 
2 3 1 
p 20.00000002 1 1.27897692436818e-013 99.9999986513009 
2 4 2 
p 20.00000002 1 1.27897692436818e-013 99.9999986513009 
49 1 2 3 4 5 6 7 8 9 10 11 12 13 14 15 16 17 18 19 20 21 22 23 24 25 26 27 28 29 30 31 32 33 34 35 36 37 38 39 40 41 42 43 44 45 46 47 48 1 
p 16.2358830243859 1 0 0.130899693899575 0.26179938779915 0.392699081698724 0.523598775598299 0.654498469497874 0.785398163397449 0.916297857297024 1.0471975511966 1.17809724509617 1.30899693899575 1.43989663289532 1.5707963267949 1.70169602069447 1.83259571459405 1.96349540849362 2.0943951023932 2.22529479629277 2.35619449019235 2.48709418409192 2.61799387799149 2.74889357189107 2.87979326579064 3.01069295969022 3.14159265358979 3.27249234748937 3.40339204138894 3.53429173528852 3.66519142918809 3.79609112308767 3.92699081698724 4.05789051088682 4.18879020478639 4.31968989868596 4.45058959258554 4.58148928648511 4.71238898038469 4.84328867428426 4.97418836818384 5.10508806208341 5.23598775598299 5.36688744988256 5.49778714378214 5.62868683768171 5.75958653158128 5.89048622548086 6.02138591938043 6.15228561328001 6.28318530717959 
2 14 2 
p 75.00000002 1 0 750 
2 15 1 
p 75.00000002 1 0 750 
49 1 2 3 4 5 6 7 8 9 10 11 12 13 14 15 16 17 18 19 20 21 22 23 24 25 26 27 28 29 30 31 32 33 34 35 36 37 38 39 40 41 42 43 44 45 46 47 48 1 
p 16.2358830243859 1 0 0.130899693899575 0.26179938779915 0.392699081698724 0.523598775598299 0.654498469497874 0.785398163397449 0.916297857297024 1.0471975511966 1.17809724509617 1.30899693899575 1.43989663289532 1.5707963267949 1.70169602069447 1.83259571459405 1.96349540849362 2.0943951023932 2.22529479629277 2.35619449019235 2.48709418409192 2.61799387799149 2.74889357189107 2.87979326579064 3.01069295969022 3.14159265358979 3.27249234748937 3.40339204138894 3.53429173528852 3.66519142918809 3.79609112308767 3.92699081698724 4.05789051088682 4.18879020478639 4.31968989868596 4.45058959258554 4.58148928648511 4.71238898038469 4.84328867428426 4.97418836818384 5.10508806208341 5.23598775598299 5.36688744988256 5.49778714378214 5.62868683768171 5.75958653158128 5.89048622548086 6.02138591938043 6.15228561328001 6.28318530717959 
Surfaces 16
1 -100 75 75 0 4.28626379701574e-016 -1 0 -1 -4.28626379701574e-016 -1 0 0 
2 -100 75 0 -1 0 0 0 1 0 0 0 1 75
9 0 0 0 0 3 3 4 4 2 2 -110 -105 74.9999999999995  -110 -68.3333333333333 75.0000000000002  -110 -31.6666666666667 75  -110 5.00000000000001 75.0000000000001  
-36.6666666666667 -105 75.0000000000035  -36.6666666666666 -68.3333333333333 75.0000000000047  -36.6666666666667 -31.6666666666667 75.0000000000006  -36.6666666666667 4.99999999999999 75.0000000000002  
36.6666666666667 -105 75.0000000000001  36.6666666666667 -68.3333333333333 74.9999999999995  36.6666666666667 -31.6666666666667 75.0000000000001  36.6666666666667 5 75.0000000000001  
110 -105 75.0000000000001  110 -68.3333333333333 74.9999999999995  110 -31.6666666666667 75.0000000000001  110 5.00000000000001 75  

-110 4
110 4

-55 4
55 4

2 0 0 0 1 0 0 0 1 0 0 0 1 75
2 0 0 0 1 0 0 0 1 0 0 0 1 75
2 0 0 0 1 0 0 0 1 0 0 0 1 75
2 0 0 0 1 0 0 0 1 0 0 0 1 75
9 0 0 0 0 8 8 16 16 3 3 -111.671286457419 44.9226262273783 -69.6006283143307  -113.502383116632 6.84574833312441 -77.4156214356805  -115.225474628911 -24.6549233771547 -80.7794145147053  -115.115131267408 -45.8930132481583 -65.2463076296082  -114.551688263643 -63.199934146822 -46.9022130996875  -113.524450418913 -70.4462179968165 -26.1445936708864  -111.299167736765 -71.4250365846692 -12.9436832048357  -110.526248469278 -72.6342633112475 -6.64421481895176  -110.531350772188 -72.6482067160634 6.83127248798562  -111.292202161834 -71.4143972306606 12.9873646243508  -113.618458777721 -70.6631820178967 27.1650788765692  -114.411393389196 -62.9056332057004 45.6191873906379  -115.368874854712 -46.4522177941337 67.7161084091399  -115.124770347316 -24.4530061809621 79.9046656729994  -113.580295662877 6.71249928015688 78.0052191585479  -111.948307568145 44.3559857074539 72.172923543271  
-97.6193300021784 40.064413944837 -70.3714557054565  -99.3765265911667 2.15451300290447 -78.357092626691  -101.367222863969 -29.8010420579584 -84.6831725353855  -100.536104133512 -49.2260244689109 -61.9393747129277  -100.428766512067 -68.3253246354269 -49.0689538808664  -99.3144740355199 -74.6608494911842 -23.8634649428196  -96.7430112584015 -74.591306920336 -11.0920891931729  -95.9235720616176 -75.5272784276343 -5.82907064813361  -95.9199478805031 -75.5197371615435 5.67018125527145  -96.6886378928133 -74.474210826407 10.4924272315606  -99.5077707426939 -75.0792914213943 25.6388226981626  -100.002961454372 -67.4263344537424 45.0457998051487  -101.005715479468 -50.2275878959048 66.2591704219777  -101.064637013788 -29.1939791113761 82.0000899686852  -99.3243406309539 2.27541532157077 77.7499623532845  -97.7577198102893 39.7469509715866 71.7187830477349  
-83.4771803551327 36.0309413840827 -69.7159632951129  -84.9912274058148 -1.5029400899076 -76.6660411683737  -87.4230041526874 -34.4295376162216 -87.8701056487609  -85.2848894977864 -50.2671970321211 -53.0070756919947  -86.7353626742951 -74.5823038452935 -57.5626590960168  -84.9858220275164 -78.1401004213781 -20.3313991161421  -82.4842034678771 -78.550173875966 -11.5594373028107  -81.6909240906571 -79.4618991004542 -5.78884771077954  -81.6842849319497 -79.4403377203923 5.57392756832775  -82.2896386146417 -78.1214416773499 9.68472014610804  -85.7375229567207 -79.7150893543282 27.0622804577181  -85.1870305857476 -71.2914519022639 43.5390881179323  -86.9052388136197 -53.6597972820744 67.3946823678952  -86.5229045301922 -32.5448746452852 79.996238907945  -84.8584480381881 -1.19618996816969 75.3433278499813  -83.5314679322214 35.8722278589447 70.3841378788283  
-69.9269886238114 31.8232378434512 -73.4174256286915  -71.4070722450923 -5.69052337760044 -81.3456359650656  -70.2714293537062 -31.5573818544966 -60.5950555639312  -74.8033746775388 -65.1405377885877 -94.7776771143525  -69.9660941644854 -67.1859706138444 -23.3923948291405  -69.9532669771423 -80.5373526219781 -38.7909877134932  -68.9550664805435 -84.0072781090779 -18.34683947749  -68.1482487820548 -85.3994705822912 -9.62049917212927  -68.144534374372 -85.3749563707481 9.59230046453111  -69.3086300234575 -84.721721456566 21.5327557560692  -68.416181498084 -77.2520301965625 25.0304793732184  -72.950149207644 -73.3814762811637 49.8822822290937  -71.5962537068723 -58.4036248395014 66.4671154535298  -71.8866718922589 -34.8163750055904 74.4445997439704  -71.5297576837019 -5.93624773245033 82.388832050581  -70.0451103971589 31.4921689115096 74.8242677729045  
-55.7314764633147 29.2978038838722 -71.3855910970977  -56.5670927965757 -7.37100607808108 -75.6888557540574  -59.1355687730173 -40.9935401343682 -92.1414435739775  -55.4102780869417 -53.6165806456945 -42.9480723344981  -58.544676092093 -80.2299213190366 -73.1375469892267  -56.1692489092094 -83.5238449532663 -26.086322277426  -54.9255893689469 -87.8410657170523 -21.8883202371798  -54.5774321635451 -90.4040529533965 -10.4086166188785  -54.5759209585347 -90.3726159686875 10.5908335836144  -54.5919692028039 -87.0823654526222 19.0661935405784  -57.5652723212874 -86.3718564792204 38.5807743372303  -55.7621977149105 -74.3156888350442 48.3674525604305  -58.3908258255648 -59.6988043181736 68.9819242066075  -57.4475600669966 -37.4272366599277 77.0345441425641  -56.4112912648392 -6.99965371121794 74.0361892885834  -55.739160224595 29.182648362656 71.7884217213735  
-41.9326531029907 26.8593224728721 -72.8845386538431  -42.7744163107102 -9.97958449360417 -79.1436689106037  -42.3347745363313 -37.598172157416 -68.79587128763  -44.3695156390308 -64.8352399325368 -80.9941321316455  -42.0562388567496 -74.7723953589657 -42.180783324309  -41.9918868830354 -86.509805162915 -42.174634214914  -41.3222910477242 -91.6402312667423 -24.3580327655072  -40.9000437894101 -94.0681225613429 -12.3183417778803  -40.8976042507309 -94.0236664695637 12.6450901217072  -41.4853788826499 -91.9052509894872 26.0775287175054  -41.2655227229803 -84.8735369512601 35.8101996738684  -43.4676213197478 -77.5671907217784 54.54537847708  -42.7739209129299 -61.3760553306717 66.6241272026079  -43.1462848951016 -39.1167008922279 75.4263118226815  -42.8146765318699 -10.0077719768408 79.2796778671969  -41.9836771486491 26.6380569188012 73.7790797481155  
-27.9258224273558 25.476813341708 -72.5931923650419  -28.3982869722225 -11.037580896773 -77.6853596055773  -28.951093026508 -40.9652129398692 -78.548813970262  -28.5268947197276 -62.2388685783085 -65.7063266011545  -28.6947451172127 -79.1492919877582 -57.9234952100946  -28.0071330565325 -88.3290404147015 -39.1180045486798  -27.527489329679 -94.090061686965 -26.5234559695513  -27.321346117708 -97.0324634557206 -13.0473482855997  -27.3200820316932 -96.981136423208 13.4696534195833  -27.4849586871818 -93.9044675052585 26.4717895596215  -28.1712260270565 -88.5277225625351 40.6669310683029  -28.3485242201768 -78.247374572545 54.6672278425811  -28.8768412553688 -62.7597189956351 68.3088482068017  -28.7148232059408 -40.2996119808651 75.8669386267113  -28.3701837934205 -10.9030769873971 77.1016926473762  -27.9430991236496 25.3082785560766 73.2318868475053  
-13.9666830400034 24.7316777051082 -72.7216088179261  -14.2139954721063 -11.7398354395756 -77.904594263385  -14.378217971179 -41.1372884598059 -76.6329919603881  -14.3996123643086 -63.5740876828849 -68.9946832550422  -14.2558570418781 -79.2579774886478 -56.0621631331015  -14.0036741613793 -89.3142368935333 -41.3237199750026  -13.7643588592643 -95.3185936454141 -27.3825957058112  -13.6532104699775 -98.3426848343141 -13.5257920415936  -13.6525210366476 -98.2871012157798 13.9974149678157  -13.7625344004433 -95.2069967313434 27.7157321288008  -14.001605477832 -89.1490912981181 41.390682844488  -14.250616253876 -79.0380385492383 55.7542871798018  -14.3881390722276 -63.310862117461 68.2891764187924  -14.3633977937617 -40.8887537954229 75.7544999739018  -14.2066821054231 -11.6304592385463 77.4402871785329  -13.9772149826328 24.5607313115156 73.3713229906353  
13.96668303954 24.731677705044 -72.7216088184011  14.2139954723716 -11.7398354394179 -77.9045942640925  14.3782179719367 -41.1372884595717 -76.6329919604031  14.3996123652413 -63.5740876826516 -68.9946832537968  14.2558570429164 -79.2579774883944 -56.062163130409  14.0036741624529 -89.3142368931183 -41.3237199711908  13.7643588603819 -95.3185936448846 -27.382595701089  13.6532104710091 -98.342684833668 -13.5257920362797  13.6525210372761 -98.2871012150574 13.9974149731598  13.762534400756 -95.2069967306153 27.7157321336737  14.0016054776149 -89.1490912975586 41.390682848365  14.250616253125 -79.0380385488657 55.7542871820843  14.3881390710341 -63.3108621174479 68.2891764194643  14.363397792356 -40.8887537955298 75.7544999736016  14.2066821048385 -11.6304592385567 77.4402871784899  13.9772149835552 24.5607313116713 73.3713229911602  
27.9258224269504 25.4768133416087 -72.5931923651304  28.3982869724518 -11.0375808964617 -77.6853596045357  28.951093025962 -40.9652129420505 -78.5488139465859  28.5268947236034 -62.2388685708835 -65.7063266432686  28.6947451151372 -79.149291994223 -57.9234951588754  28.0071330590805 -88.3290404102687 -39.1180045674875  27.527489330444 -94.0900616867211 -26.5234559509733  27.3213461188079 -97.0324634544357 -13.0473482746818  27.3200820324795 -96.9811364216471 13.4696534308024  27.4849586887172 -93.9044675016827 26.4717895792911  28.1712260225605 -88.5277225679357 40.6669310433826  28.348524227808 -78.2473745613251 54.6672279032636  28.876841246651 -62.7597190048758 68.308848162086  28.7148232083528 -40.2996119756791 75.8669386504321  28.3701837930879 -10.9030769867712 77.1016926496759  27.9430991246471 25.3082785567203 73.2318868498162  
41.9326531027485 26.859322472161 -72.8845386563237  42.774416311701 -9.9795844939172 -79.1436689182213  42.3347745410506 -37.5981721492509 -68.7958713685291  44.3695156305003 -64.835239953642 -80.9941319717892  42.0562388667767 -74.7723953358254 -42.1807834797703  41.9918868798835 -86.5098051733282 -42.1746341079859  41.3222910496775 -91.6402312625611 -24.3580327840757  40.9000437905935 -94.0681225594642 -12.3183417630004  40.8976042516934 -94.0236664677433 12.6450901356914  41.4853788789201 -91.905250997308 26.0775286935332  41.2655227412643 -84.8735369180328 35.8101998139693  43.4676212878893 -77.5671907715214 54.5453782609975  42.7739209422304 -61.376055284439 66.6241273984788  43.1462848791363 -39.1167009175503 75.4263117203216  42.8146765294552 -10.0077719812344 79.2796778497805  41.9836771486841 26.6380569170863 73.7790797409141  
55.7314764621861 29.2978038833842 -71.3855910881727  56.5670927952216 -7.37100607773418 -75.6888557335432  59.1355687674052 -40.9935401441347 -92.1414434234087  55.4102781010133 -53.6165806150733 -42.9480726123532  58.5446760800817 -80.2299213488161 -73.1375466854182  56.169248915503 -83.5238449363168 -26.0863224382141  54.9255893690257 -87.8410657190974 -21.8883201627299  54.5774321648293 -90.4040529513593 -10.4086166002775  54.5759209599871 -90.372615965643 10.5908336041042  54.5919692113247 -87.082365433774 19.0661936173663  57.5652722943925 -86.3718565283675 38.5807741509834  55.7621977639169 -74.3156887517402 48.367452913902  58.3908257780053 -59.6988043921673 68.9819239039659  57.4475600900001 -37.4272366201116 77.034544303138  56.4112912689896 -6.99965370321233 74.0361893193063  55.7391602280608 29.1826483674895 71.7884217401008  
69.9269886239238 31.8232378435728 -73.4174256447605  71.4070722466877 -5.69052337659746 -81.3456359945598  70.2714293589495 -31.5573818490676 -60.5950557052261  74.8033746693372 -65.1405378005082 -94.7776768599848  69.9660941723489 -67.1859706009731 -23.3923950759451  69.9532669751348 -80.5373526269548 -38.7909875393468  68.9550664822206 -84.0072781049442 -18.346839509303  68.14824878345 -85.3994705794723 -9.62049914937503  68.1445343760821 -85.3749563676856 9.59230048610609  69.3086300203295 -84.7217214656153 21.5327557324526  68.4161815185857 -77.2520301540258 25.0304795378492  72.9501491752809 -73.381476339741 49.8822819890388  71.5962537426075 -58.4036247811116 66.4671156932246  71.8866718702606 -34.8163750413848 74.4445996013297  71.5297576781965 -5.93624774139199 82.3888320163128  70.0451103952242 31.4921689075603 74.8242677573432  
83.477180354314 36.0309413828939 -69.7159632845982  84.9912274055334 -1.5029400898586 -76.6660411538427  87.4230041516451 -34.429537615531 -87.8701055861146  85.2848894988686 -50.2671970337111 -53.0070757737988  86.7353626738883 -74.5823038430647 -57.562658978048  84.9858220279882 -78.1401004204893 -20.3313991696312  82.484203468346 -78.550173875505 -11.5594372653402  81.6909240917154 -79.4618990986696 -5.78884769401437  81.6842849334807 -79.4403377175857 5.57392758599588  82.2896386176865 -78.1214416701875 9.68472017812696  85.7375229536621 -79.7150893637434 27.0622804259856  85.1870305950254 -71.2914518825736 43.539088204721  86.9052388072301 -53.6597972938974 67.3946823178424  86.5229045371774 -32.5448746331214 79.9962389557666  84.8584480398275 -1.19618996534527 75.3433278590831  83.5314679346665 35.8722278620409 70.384137890403  
97.6193300015925 40.0644139439692 -70.3714557033452  99.3765265914298 2.15451300359131 -78.3570926228165  101.367222865434 -29.8010420542586 -84.683172529019  100.53610413101 -49.226024475165 -61.9393747126106  100.428766514808 -68.325324628762 -49.0689538719972  99.3144740341928 -74.6608494943007 -23.8634649450931  96.7430112590096 -74.5913069190693 -11.0920891860922  95.9235720620515 -75.5272784268451 -5.82907064128553  95.9199478812284 -75.5197371603004 5.6701812625855  96.6886378930397 -74.4742108253904 10.4924272337314  99.5077707450911 -75.0792914197033 25.6388227127381  100.002961450849 -67.4263344564926 45.0457997866656  101.005715484817 -50.2275878898052 66.2591704522943  101.064637012167 -29.1939791132673 82.0000899595173  99.3243406315284 2.27541532271049 77.7499623577811  97.7577198118786 39.746950973653 71.7187830567188  
111.671286456596 44.9226262255703 -69.6006283275424  113.502383116643 6.84574833283764 -77.4156214486409  115.225474629678 -24.6549233757081 -80.7794145282996  115.115131266034 -45.8930132516024 -65.2463076426224  114.551688264222 -63.1999341451856 -46.902213112474  113.524450417814 -70.446217999311 -26.1445936875917  111.299167736147 -71.4250365856777 -12.9436832166562  110.526248468525 -72.6342633126104 -6.64421483045544  110.531350771251 -72.6482067176726 6.83127247665399  111.292202160456 -71.414397232794 12.9873646098496  113.618458777153 -70.6631820198135 27.1650788677776  114.411393385293 -62.9056332111175 45.6191873632489  115.368874856054 -46.4522177930229 67.7161084144441  115.124770343499 -24.4530061868856 79.9046656481681  113.580295661001 6.71249927741314 78.0052191476776  111.948307567483 44.3559857060744 72.1729235389958  

-113.033534394355 9
6.49436060484732e-012 7
113.033534394368 9

-82.7317971520506 9
-3.11217718262924e-012 7
82.7317971520444 9

2 -100 0 0 -1 0 0 0 1 0 0 0 1 75
1 -100 -25 75 0 1 1.22464679914735e-016 0 1.22464679914735e-016 -1 -1 0 0 
1 -100 -25 -75 0 -3.06161699786838e-016 1 0 1 3.06161699786838e-016 -1 0 0 
9 0 0 0 0 3 3 4 4 2 2 -110 -104.999999932565 -75.0000000000005  -110 -68.3333337604213 -74.9999999999996  -110 -31.666667588278 -74.9999999999999  -110 4.99999858386636 -74.9999999999995  
-36.6666666666667 -104.999999932565 -74.9999999999967  -36.6666666666667 -68.3333337604217 -74.9999999999953  -36.6666666666667 -31.6666675882825 -75.0000000000038  -36.6666666666667 4.9999985838623 -75.0000000000035  
36.6666666666667 -104.999999932565 -75.0000000000002  36.6666666666667 -68.3333337604217 -75.0000000000013  36.6666666666667 -31.6666675882825 -75.0000000000097  36.6666666666667 4.99999858386231 -75.000000000007  
110 -104.999999932565 -74.9999999999999  110 -68.3333337604213 -75.0000000000001  110 -31.666667588278 -75.0000000000005  110 4.99999858386636 -74.999999999999  

-110 4
110 4

-54.9999992582154 4
54.9999992582154 4

1 0 307.108234405518 75.0000000000002 -1 0 0 0 1.22464679914735e-016 -1 0 -1 -1.22464679914735e-016 
2 0 0 0 0 1 0 0 0 1 1 0 0 75
1 0 750 0 0 1 0 0 0 1 1 0 0 
1 0 0 0 0 1 0 0 0 1 1 0 0 
Triangulations 10
4 2 1 20.00000002
-100 75 75 100 75 75 -100 -25 75 100 -25 75 0 0 0 -200 100 0 100 -200 1 2 4 4 3 1 
48 46 1 21.000000016
-100 75 75 100 75 75 -100 74.9999986513008 -75 100 74.9999986513008 -75 -100 64.7875013758744 74.3014459607095 -100 54.7652422761524 72.2187965827262 -100 45.1199184228852 68.7908476829946 -100 36.031203947752 64.0814554628584 -100 27.6684044029811 58.1783469878636 -100 20.1873029192865 51.1914859985324 -100 13.7272582609289 43.2510244939597 -100 8.40860883564426 34.5048782463547 -100 4.33043101782181 25.1159714101039 -100 1.56869354313056 15.2592015530736 -100 0.174842354727971 5.1181816458767 -100 0.174842262689481 -5.11818030032155 -100 1.56869326872959 -15.2592002325836 -100 4.33043056616992 -25.1159701392773 -100 8.40860821515487 -34.5048770488646 -100 13.7272574831606 -43.251023392113 -100 20.1873019987276 -51.1914850128545 -100 27.6684033567798 -58.1783461367158 -100 36.0312027953972 -64.0814547620959 -100 45.1199171858431 -68.7908471456714 -100 54.7652409774666 -72.2187962188515 -100 64.7875000397372 -74.3014457770616 100 64.7875013758744 74.3014459607095 100 54.7652422761524 72.2187965827262 100 45.1199184228852 68.7908476829946 100 36.031203947752 64.0814554628584 100 27.6684044029811 58.1783469878636 100 20.1873029192865 51.1914859985324 100 13.7272582609289 43.2510244939597 100 8.40860883564426 34.5048782463547 100 4.33043101782181 25.1159714101039 100 1.56869354313056 15.2592015530736 100 0.174842354727971 5.1181816458767 100 0.174842262689481 -5.11818030032155 100 1.56869326872959 -15.2592002325836 100 4.33043056616992 -25.1159701392773 100 8.40860821515487 -34.5048770488646 100 13.7272574831606 -43.251023392113 100 20.1873019987276 -51.1914850128545 100 27.6684033567798 -58.1783461367158 100 36.0312027953972 -64.0814547620959 100 45.1199171858431 -68.7908471456714 100 54.7652409774666 -72.2187962188515 100 64.7875000397372 -74.3014457770616 1.5707963267949 0 1.5707963267949 -200 4.71238896240203 0 4.71238896240203 -200 1.70738731095173 0 1.84397829510856 0 1.98056927926539 0 2.11716026342222 0 2.25375124757906 0 2.39034223173589 0 2.52693321589272 0 2.66352420004955 0 2.80011518420638 0 2.93670616836322 0 3.07329715252005 0 3.20988813667688 0 3.34647912083371 0 3.48307010499054 0 3.61966108914738 0 3.75625207330421 0 3.89284305746104 0 4.02943404161787 0 4.16602502577471 0 4.30261600993154 0 4.43920699408837 0 4.5757979782452 0 1.70738731095173 -200 1.84397829510856 -200 1.98056927926539 -200 2.11716026342222 -200 2.25375124757906 -200 2.39034223173589 -200 2.52693321589272 -200 2.66352420004955 -200 2.80011518420638 -200 2.93670616836322 -200 3.07329715252005 -200 3.20988813667688 -200 3.34647912083371 -200 3.48307010499054 -200 3.61966108914738 -200 3.75625207330421 -200 3.89284305746104 -200 4.02943404161787 -200 4.16602502577471 -200 4.30261600993154 -200 4.43920699408837 -200 4.5757979782452 -200 2 27 5 27 28 6 29 30 8 30 31 9 28 29 7 32 33 11 33 34 12 35 36 14 36 37 15 34 35 13 31 32 10 5 1 2 6 5 27 8 7 29 9 8 30 6 28 7 11 10 32 12 11 33 14 13 35 15 14 36 12 34 13 9 31 10 37 38 15 38 39 17 39 40 18 41 42 20 42 43 21 40 41 19 44 45 23 45 46 24 47 48 26 48 4 3 46 47 25 43 44 22 17 16 38 18 17 39 20 19 41 21 20 42 18 40 19 23 22 44 24 23 45 26 25 47 3 26 48 24 46 25 21 43 22 38 16 15 
4 2 1 21.000000016
-100 -25 75 100 -25 75 -100 -25 -75 100 -25 -75 0 0 0 -200 150 0 150 -200 1 2 4 4 3 1 
26 24 1 16.9269122692894
-100 0 75 -100 -100 75 -100 -1.34869918611003e-006 -75 -100 -10.2124986241256 74.3014459607095 -100 -20.2347577238476 72.2187965827262 -100 -29.8800815771148 68.7908476829946 -100 -38.968796052248 64.0814554628584 -100 -47.3315955970189 58.1783469878636 -100 -54.8126970807135 51.1914859985324 -100 -61.2727417390711 43.2510244939597 -100 -66.5913911643557 34.5048782463547 -100 -70.6695689821782 25.1159714101039 -100 -73.4313064568694 15.2592015530736 -100 -74.825157645272 5.1181816458767 -100 -74.8251577373105 -5.11818030032155 -100 -73.4313067312704 -15.2592002325836 -100 -70.6695694338301 -25.1159701392773 -100 -66.5913917848451 -34.5048770488646 -100 -61.2727425168394 -43.251023392113 -100 -54.8126980012724 -51.1914850128545 -100 -47.3315966432202 -58.1783461367158 -100 -38.9687972046028 -64.0814547620959 -100 -29.8800828141569 -68.7908471456714 -100 -20.2347590225334 -72.2187962188515 -100 -10.2124999602628 -74.3014457770616 -100 -100 -75 8.5265128291212e-014 307.108234405518 9.9475983006414e-014 407.108234405518 150 307.108235754217 0.698554039290613 317.320733029643 2.78120341727389 327.342992129365 6.20915231700549 336.988315982632 10.9185445371417 346.077030457766 16.8216530121365 354.439830002537 23.8085140014677 361.920931486231 31.7489755060404 368.380976144589 40.4951217536454 373.699625569873 49.8840285898962 377.777803387696 59.7407984469265 380.539540862387 69.8818183541234 381.93339205079 80.1181803003217 381.933392142828 90.2592002325837 380.539541136788 100.115970139277 377.777803839348 109.504877048865 373.699626190363 118.251023392113 368.380976922357 126.191485012855 361.92093240679 133.178346136716 354.439831048738 139.081454762096 346.07703161012 143.790847145671 336.988317219675 147.218796218852 327.342993428051 149.301445777062 317.32073436578 150 407.108234405518 4 5 2 1 4 2 7 8 2 6 7 2 5 6 2 2 9 10 9 2 8 2 10 11 11 12 2 13 14 2 12 13 2 2 14 15 22 23 26 21 22 26 25 3 26 24 25 26 23 24 26 16 17 26 15 16 26 19 20 26 18 26 17 26 18 19 20 21 26 15 26 2 
4 2 1 22.1000000116
-100 74.9999986513008 -75 100 74.9999986513008 -75 -100 -25 -75 100 -25 -75 99.9999986513008 0 99.9999986513008 -200 0 0 0 -200 3 4 2 2 1 3 
4 2 1 20.00000002
0 -100 75 -200 -100 75 0 -100 -75 -200 -100 -75 0 0 0 -200 150 0 150 -200 1 2 4 4 3 1 
26 24 1 16.9269122692894
100 0 75 100 -100 75 100 -1.34869918611003e-006 -75 100 -10.2124986241256 74.3014459607095 100 -20.2347577238476 72.2187965827262 100 -29.8800815771148 68.7908476829946 100 -38.968796052248 64.0814554628584 100 -47.3315955970189 58.1783469878636 100 -54.8126970807135 51.1914859985324 100 -61.2727417390711 43.2510244939597 100 -66.5913911643557 34.5048782463547 100 -70.6695689821782 25.1159714101039 100 -73.4313064568694 15.2592015530736 100 -74.825157645272 5.1181816458767 100 -74.8251577373105 -5.11818030032155 100 -73.4313067312704 -15.2592002325836 100 -70.6695694338301 -25.1159701392773 100 -66.5913917848451 -34.5048770488646 100 -61.2727425168394 -43.251023392113 100 -54.8126980012724 -51.1914850128545 100 -47.3315966432202 -58.1783461367158 100 -38.9687972046028 -64.0814547620959 100 -29.8800828141569 -68.7908471456714 100 -20.2347590225334 -72.2187962188515 100 -10.2124999602628 -74.3014457770616 100 -100 -75 8.5265128291212e-014 307.108234405518 9.9475983006414e-014 407.108234405518 150 307.108235754217 0.698554039290613 317.320733029643 2.78120341727389 327.342992129365 6.20915231700549 336.988315982632 10.9185445371417 346.077030457766 16.8216530121365 354.439830002537 23.8085140014677 361.920931486231 31.7489755060404 368.380976144589 40.4951217536454 373.699625569873 49.8840285898962 377.777803387696 59.7407984469265 380.539540862387 69.8818183541234 381.93339205079 80.1181803003217 381.933392142828 90.2592002325837 380.539541136788 100.115970139277 377.777803839348 109.504877048865 373.699626190363 118.251023392113 368.380976922357 126.191485012855 361.92093240679 133.178346136716 354.439831048738 139.081454762096 346.07703161012 143.790847145671 336.988317219675 147.218796218852 327.342993428051 149.301445777062 317.32073436578 150 407.108234405518 4 5 2 1 4 2 7 8 2 6 7 2 5 6 2 2 9 10 9 2 8 2 10 11 11 12 2 13 14 2 12 13 2 2 14 15 22 23 26 21 22 26 25 3 26 24 25 26 23 24 26 16 17 26 15 16 26 19 20 26 18 26 17 26 18 19 20 21 26 15 26 2 
26 24 1 69.9717660587718
-1.83697019872103e-014 750 75 -1.83697019872103e-014 750 75 37.5 750 64.9519052838329 64.9519052838329 750 37.5 75 750 -6.20211076506755e-014 64.9519052838329 750 -37.5000000000001 37.4999999999999 750 -64.951905283833 -1.24042215301351e-013 750 -75 -37.5000000000001 750 -64.9519052838328 -64.951905283833 750 -37.4999999999999 -75 750 1.86063322952026e-013 -64.9519052838328 750 37.5000000000002 -37.4999999999998 750 64.951905283833 -1.83697019872103e-014 0 75 -1.83697019872103e-014 0 75 37.5 0 64.9519052838329 64.9519052838329 0 37.5 75 0 -6.20211076506755e-014 64.9519052838329 0 -37.5000000000001 37.4999999999999 0 -64.951905283833 -1.24042215301351e-013 0 -75 -37.5000000000001 0 -64.9519052838328 -64.951905283833 0 -37.4999999999999 -75 0 1.86063322952026e-013 -64.9519052838328 0 37.5000000000002 -37.4999999999998 0 64.951905283833 0 750 6.28318530717959 750 0.523598775598299 750 1.0471975511966 750 1.5707963267949 750 2.0943951023932 750 2.6179938779915 750 3.14159265358979 750 3.66519142918809 750 4.18879020478639 750 4.71238898038469 750 5.23598775598299 750 5.75958653158129 750 6.28318530717959 0 0 0 0.523598775598299 0 1.0471975511966 0 1.5707963267949 0 2.0943951023932 0 2.6179938779915 0 3.14159265358979 0 3.66519142918809 0 4.18879020478639 0 4.71238898038469 0 5.23598775598299 0 5.75958653158129 0 15 16 3 16 17 4 18 19 6 19 20 7 17 18 5 1 15 3 3 16 4 18 6 5 5 4 17 6 19 7 21 8 7 21 7 20 22 23 10 23 24 11 25 26 13 26 14 13 24 25 12 9 8 22 10 9 22 12 11 24 2 13 14 12 25 13 10 23 11 22 8 21 
49 48 1 16.2358830243859
-1.83697019872103e-014 750 75 9.78946441650387 750 74.3583646030358 19.4114283826891 750 72.4444369716801 28.7012574273817 750 69.2909649383465 37.5 750 64.9519052838329 45.6571071756541 750 59.5015005218426 53.0330085889911 750 53.033008588991 59.5015005218427 750 45.657107175654 64.9519052838329 750 37.5 69.2909649383465 750 28.7012574273817 72.4444369716801 750 19.411428382689 74.3583646030358 750 9.78946441650381 75 750 -6.20211076506755e-014 74.3583646030358 750 -9.78946441650394 72.4444369716801 750 -19.4114283826891 69.2909649383465 750 -28.7012574273818 64.9519052838329 750 -37.5000000000001 59.5015005218426 750 -45.6571071756541 53.033008588991 750 -53.0330085889911 45.657107175654 750 -59.5015005218427 37.5 750 -64.9519052838329 28.7012574273817 750 -69.2909649383465 19.411428382689 750 -72.4444369716801 9.78946441650387 750 -74.3583646030358 9.18454765366783e-015 750 -75 -9.78946441650385 750 -74.3583646030358 -19.411428382689 750 -72.4444369716801 -28.7012574273817 750 -69.2909649383465 -37.5 750 -64.9519052838329 -45.657107175654 750 -59.5015005218427 -53.033008588991 750 -53.0330085889911 -59.5015005218426 750 -45.6571071756541 -64.9519052838328 750 -37.5000000000001 -69.2909649383465 750 -28.7012574273818 -72.4444369716801 750 -19.4114283826892 -74.3583646030358 750 -9.789464416504 -75 750 -1.47003584435521e-013 -74.3583646030358 750 9.78946441650371 -72.4444369716802 750 19.4114283826889 -69.2909649383466 750 28.7012574273816 -64.951905283833 750 37.4999999999998 -59.5015005218428 750 45.6571071756539 -53.0330085889912 750 53.0330085889909 -45.6571071756542 750 59.5015005218425 -37.5000000000002 750 64.9519052838328 -28.701257427382 750 69.2909649383464 -19.4114283826893 750 72.44443697168 -9.78946441650414 750 74.3583646030357 0 750 0 75 0 74.3583646030358 9.78946441650388 72.4444369716801 19.4114283826891 69.2909649383465 28.7012574273817 64.9519052838329 37.5 59.5015005218426 45.6571071756541 53.033008588991 53.0330085889911 45.657107175654 59.5015005218427 37.5 64.9519052838329 28.7012574273817 69.2909649383465 19.411428382689 72.4444369716801 9.78946441650382 74.3583646030358 -5.6843418860808e-014 75 -9.78946441650393 74.3583646030358 -19.4114283826891 72.4444369716801 -28.7012574273818 69.2909649383465 -37.5000000000001 64.9519052838328 -45.6571071756541 59.5015005218426 -53.0330085889911 53.033008588991 -59.5015005218427 45.657107175654 -64.9519052838329 37.5 -69.2909649383465 28.7012574273817 -72.4444369716801 19.411428382689 -74.3583646030358 9.78946441650386 -75 1.4210854715202e-014 -74.3583646030358 -9.78946441650385 -72.4444369716801 -19.411428382689 -69.2909649383465 -28.7012574273817 -64.9519052838329 -37.5 -59.5015005218427 -45.657107175654 -53.0330085889911 -53.033008588991 -45.6571071756541 -59.5015005218426 -37.5000000000001 -64.9519052838328 -28.7012574273818 -69.2909649383465 -19.4114283826892 -72.4444369716801 -9.789464416504 -74.3583646030358 -1.4210854715202e-013 -75 9.78946441650371 -74.3583646030358 19.4114283826889 -72.4444369716802 28.7012574273816 -69.2909649383466 37.4999999999998 -64.951905283833 45.6571071756539 -59.5015005218428 53.0330085889909 -53.0330085889912 59.5015005218425 -45.6571071756542 64.9519052838328 -37.5000000000002 69.2909649383464 -28.701257427382 72.44443697168 -19.4114283826893 74.3583646030357 -9.78946441650415 0 0 49 29 30 28 29 49 49 26 27 25 26 49 30 31 49 49 35 36 34 35 49 49 33 34 28 49 27 49 31 32 32 33 49 24 49 23 20 49 19 22 49 21 20 21 49 49 24 25 18 49 17 49 18 19 17 49 16 23 49 22 16 49 15 15 49 14 49 36 37 49 38 39 49 39 40 49 41 42 41 49 40 49 42 43 38 49 37 45 49 44 49 45 46 48 49 47 49 46 47 49 43 44 49 48 1 9 49 8 11 49 10 12 13 49 49 11 12 10 49 9 49 2 3 4 49 3 7 8 49 5 6 49 5 49 4 49 6 7 49 1 2 49 13 14 
49 48 1 16.2358830243859
-1.83697019872103e-014 0 75 9.78946441650387 0 74.3583646030358 19.4114283826891 0 72.4444369716801 28.7012574273817 0 69.2909649383465 37.5 0 64.9519052838329 45.6571071756541 0 59.5015005218426 53.0330085889911 0 53.033008588991 59.5015005218427 0 45.657107175654 64.9519052838329 0 37.5 69.2909649383465 0 28.7012574273817 72.4444369716801 0 19.411428382689 74.3583646030358 0 9.78946441650381 75 0 -6.20211076506755e-014 74.3583646030358 0 -9.78946441650394 72.4444369716801 0 -19.4114283826891 69.2909649383465 0 -28.7012574273818 64.9519052838329 0 -37.5000000000001 59.5015005218426 0 -45.6571071756541 53.033008588991 0 -53.0330085889911 45.657107175654 0 -59.5015005218427 37.5 0 -64.9519052838329 28.7012574273817 0 -69.2909649383465 19.411428382689 0 -72.4444369716801 9.78946441650387 0 -74.3583646030358 9.18454765366783e-015 0 -75 -9.78946441650385 0 -74.3583646030358 -19.411428382689 0 -72.4444369716801 -28.7012574273817 0 -69.2909649383465 -37.5 0 -64.9519052838329 -45.657107175654 0 -59.5015005218427 -53.033008588991 0 -53.0330085889911 -59.5015005218426 0 -45.6571071756541 -64.9519052838328 0 -37.5000000000001 -69.2909649383465 0 -28.7012574273818 -72.4444369716801 0 -19.4114283826892 -74.3583646030358 0 -9.789464416504 -75 0 -1.47003584435521e-013 -74.3583646030358 0 9.78946441650371 -72.4444369716802 0 19.4114283826889 -69.2909649383466 0 28.7012574273816 -64.951905283833 0 37.4999999999998 -59.5015005218428 0 45.6571071756539 -53.0330085889912 0 53.0330085889909 -45.6571071756542 0 59.5015005218425 -37.5000000000002 0 64.9519052838328 -28.701257427382 0 69.2909649383464 -19.4114283826893 0 72.44443697168 -9.78946441650414 0 74.3583646030357 0 0 0 75 2.41584530158434e-013 74.3583646030358 9.78946441650388 72.4444369716801 19.4114283826891 69.2909649383465 28.7012574273817 64.9519052838329 37.5 59.5015005218426 45.6571071756541 53.033008588991 53.0330085889911 45.657107175654 59.5015005218427 37.5 64.9519052838329 28.7012574273817 69.2909649383465 19.411428382689 72.4444369716801 9.78946441650382 74.3583646030358 -5.6843418860808e-014 75 -9.78946441650393 74.3583646030358 -19.4114283826891 72.4444369716801 -28.7012574273818 69.2909649383465 -37.5000000000001 64.9519052838328 -45.6571071756541 59.5015005218426 -53.0330085889911 53.033008588991 -59.5015005218427 45.657107175654 -64.9519052838329 37.5 -69.2909649383465 28.7012574273817 -72.4444369716801 19.411428382689 -74.3583646030358 9.78946441650386 -75 1.4210854715202e-014 -74.3583646030358 -9.78946441650385 -72.4444369716801 -19.411428382689 -69.2909649383465 -28.7012574273817 -64.9519052838329 -37.5 -59.5015005218427 -45.657107175654 -53.0330085889911 -53.033008588991 -45.6571071756541 -59.5015005218426 -37.5000000000001 -64.9519052838328 -28.7012574273818 -69.2909649383465 -19.4114283826892 -72.4444369716801 -9.789464416504 -74.3583646030358 -1.4210854715202e-013 -75 9.78946441650371 -74.3583646030358 19.4114283826889 -72.4444369716802 28.7012574273816 -69.2909649383466 37.4999999999998 -64.951905283833 45.6571071756539 -59.5015005218428 53.0330085889909 -53.0330085889912 59.5015005218425 -45.6571071756542 64.9519052838328 -37.5000000000002 69.2909649383464 -28.701257427382 72.44443697168 -19.4114283826893 74.3583646030357 -9.78946441650415 0 0 49 29 30 28 29 49 49 26 27 25 26 49 30 31 49 49 35 36 34 35 49 49 33 34 28 49 27 49 31 32 32 33 49 24 49 23 20 49 19 22 49 21 20 21 49 49 24 25 18 49 17 49 18 19 17 49 16 23 49 22 16 49 15 15 49 14 49 36 37 49 38 39 49 39 40 49 41 42 41 49 40 49 42 43 38 49 37 45 49 44 49 45 46 48 49 47 49 46 47 49 43 44 49 48 1 9 49 8 11 49 10 12 13 49 49 11 12 10 49 9 49 2 3 4 49 3 7 8 49 5 6 49 5 49 4 49 6 7 49 1 2 49 13 14 

TShapes 37
Ve
1e-007
0 0 75
0 0

0101101
*
Ed
 1e-007 1 1 0
1  1 0 0 200
2  1 2 0 0 200
6  1 1 0
6  2 2 0
0

0101000
+37 4 -37 6 *
Ve
1e-007
0 -100 75
0 0

0101101
*
Ed
 1e-007 1 1 0
1  2 0 0 200
6  3 1 0
6  4 3 0
0

0101000
+35 4 -35 6 *
Ed
 1e-007 1 1 0
1  3 0 307.108234405518 407.108234405518
2  2 3 7 307.108234405518 407.108234405518
6  5 4 7
6  6 1 8
6  7 1 9
0

0101000
+37 0 -35 0 *
Wi

0101000
+36 0 -34 0 -33 4 +33 6 *
Fa
0  1e-007 1 0
2  1
0101000
+32 0 *
Ve
1e-007
-100 -1.34869918611003e-006 -75
0 0

0101101
*
Ed
 1e-007 1 1 0
1  4 0 0 200
2  3 2 0 0 200
6  8 2 0
6  9 5 0
0

0101000
+30 3 -30 10 *
Ed
 1e-007 1 1 0
1  5 0 1.5707963267949 4.71238896240203
2  4 4 0 1.5707963267949 4.71238896240203
2  5 4 15 1.5707963267949 4.71238896240203
2  6 5 0 1.5707963267949 4.71238896240203
2  7 5 17 1.5707963267949 4.71238896240203
2  8 6 0 1.5707963267949 4.71238896240203
2  9 6 19 1.5707963267949 4.71238896240203
2  10 7 0 1.5707963267949 4.71238896240203
2  11 7 20 1.5707963267949 4.71238896240203
2  12 8 21 1.5707963267949 4.71238896240203
2  13 9 21 1.5707963267949 4.71238896240203
2  14 9 23 1.5707963267949 4.71238896240203
2  15 2 24 1.5707963267949 4.71238896240203
2  16 2 25 1.5707963267949 4.71238896240203
6  10 4 21
6  11 2 24
6  12 2 25
0

0101000
+37 26 -30 21 *
Wi

0101000
+36 0 -29 0 -28 13 +28 27 *
Fa
0  1e-007 2 0
2  2
0101000
+27 0 *
Ve
1e-007
0 -100 -75
0 0

0101101
*
Ed
 1e-007 1 1 0
1  6 0 0 200
6  13 3 0
6  14 5 0
0

0101000
+25 4 -25 6 *
Ed
 1e-007 1 1 0
1  7 0 0 150
6  15 6 28
6  16 6 0
6  17 4 7
6  18 7 29
6  19 3 8
6  20 3 9
0

0101000
+35 0 -25 0 *
Wi

0101000
+34 0 -24 0 -23 4 +23 6 *
Fa
0  1e-007 10 0
2  3
0101000
+22 0 *
Ed
 1e-007 1 1 0
1  8 0 1.27897692436818e-013 99.9999986513009
2  17 12 7 1.27897692436818e-013 99.9999986513009
6  21 4 7
6  22 5 9
6  23 5 8
0

0101000
-30 7 +25 0 *
Wi

0101000
-29 0 +24 0 -20 4 +20 6 *
Fa
0  1e-007 11 0
2  5
0101000
+19 0 *
Wi

0101100
-33 30 +28 31 -23 30 -20 30 *
Fa
0  1e-007 13 30
2  4
0101000
+17 0 *
Sh

0101000
-31 0 +26 0 -21 0 -18 0 +16 3 -16 10 *
So

0100000
+15 0 *
Ve
1e-007
-1.83697019872103e-014 750 75
0 0

0101101
*
Ed
 1e-007 1 1 0
1  9 0 0 6.28318530717959
2  18 14 0 0 6.28318530717959
2  19 15 0 0 6.28318530717959
6  24 9 0
0

0101100
+13 0 -13 0 *
Ve
1e-007
-1.83697019872103e-014 0 75
0 0

0101101
*
Ed
 1e-007 1 1 0
1  10 0 0 750
3  20 21CN 14 0 0 750
7  25 26 8 0
0

0101000
-13 0 +11 0 *
Ed
 1e-007 1 1 0
1  11 0 0 6.28318530717959
2  22 14 0 0 6.28318530717959
2  23 16 0 0 6.28318530717959
6  27 10 0
0

0101100
+11 0 -11 0 *
Wi

0101000
-12 0 +10 0 +9 0 -10 0 *
Fa
0  1e-007 14 0
2  8
0101000
+8 0 *
Wi

0101000
+12 0 *
Fa
0  1e-007 15 0
2  9
0101000
+6 0 *
Wi

0101000
-9 0 *
Fa
0  1e-007 16 0
2  10
0101000
-4 0 *
Sh

0101100
+7 0 +5 0 -3 0 *
Co

1100000
+14 0 +2 0 *

+1 0 