DBRep_DrawableShape

CASCADE Topology V1, (c) Matra-Datavision
Locations 2
1
              1               0               0               0 
              0               1               0               0 
              0               0               1           -4000 
2  1 -1 0
Curve2ds 48
8 6 9
1 6 -3 1 0 
8 6 9
1 -6 50 1 0 
8 -1.5 1.5000000000003113
1 15 -1.5 0 1 
8 -1.5 1.5000000000003113
1 1.5 50 1 0 
8 1595.2 1610.1999999999998
1 -957.11999999999989 -2711.8400000000001 0.59999999999999998 -0.80000000000000004 
8 1595.2 1610.1999999999998
1 -1595.2 50 1 0 
8 0.4999999999997804 3.5
1 -0.5 -18 1 0 
8 0.4999999999997804 3.5
1 0.5 50 1 0 
8 -9 -6
1 3 -9 0 1 
8 -9 -6
1 9 50 1 0 
2 9.25 -15 -1 0 -0 -1 6.25
1 0 50 1 0 
2 5.75 -3 0.28000000000000003 -0.95999999999999996 0.95999999999999996 0.28000000000000003 6.25
1 0 50 1 0 
8 21 24
1 24 -3 1 0 
8 21 24
1 24 0 -1 0 
2 54.25 -3 -0.28000000000000003 -0.95999999999999996 -0.95999999999999996 0.28000000000000003 6.25
1 0 0 1 0 
8 -1.5000000000001705 1.5
1 45 -1.5 0 -1 
8 -1.5000000000001705 1.5
1 1.5 0 -1 -0 
8 -25 25
1 -25 15 -1 0 
8 -25 25
1 3 25 0 -1 
1 15.000000000000002 0 -0 1 
1 6.6613381477509392e-16 0 0 1 
1 3 0 0 1 
1 0 0 0 1 
8 -2.5 52.5
1 1.2870022175865701 0 0 1 
1 0 0 0 1 
8 -1261.1031272504933 -1241.8937545381957
1 -969.75609756097583 3212.1951219512198 -0.78086880944303028 -0.62469504755442429 
8 -1261.1031272504933 -1241.8937545381957
1 -969.75609756097549 787.80487804878067 -0.78086880944303028 0.62469504755442429 
1 1 0 0 1 
1 0 0 -0 1 
8 12 50
1 0 -18 1 0 
8 12 50
1 1 0 0 1 
8 -0.50000000000000711 4.500000000000095
1 4.4999999999999991 18 -1 0 
8 -0.50000000000000711 4.500000000000095
1 3.6999999999999957 8.3999999999999986 -0.59999999999999998 0.80000000000000004 
1 4 0 0 1 
1 0 0 0 1 
8 6 9
1 5.0000000000000062 9 0 1 
8 6 9
1 9 7.9999999999999929 -1 -0 
8 -2.5 52.5
1 6.2831853071795862 0 0 1 
1 3 0 0 1 
3 15.41666666666667 15 -1 0 -0 -1 10.416666666666668 6.25
7 0 0  8 9 2  6.2831853071795791 8  6.122310029231258 7.9999999986593728  5.9614347522835986 7.7535156169591586  5.800559475333996 7.2605472956310813  5.6396841983894159 6.5347022071834164  5.478808921437242 5.6032033305453428  5.3179336444904131 4.5049888810262342  5.1570583675413326 3.2870022232111871  4.9961830895930115 1.9999999999999929 
 2.6644268388831271e-17 9 1.287002217586569 9
1 4.9961830895930159 0 0 1 
8 -2.5 52.5
1 0 0 0 1 
3 9.5833333333333321 3 -1 0 -0 -1 10.416666666666668 6.25
7 0 0  8 9 2  0.44236153676583051 -1.1999999999999957  0.38706634392009892 -0.85544985974189935  0.33177115207446878 -0.4915643098060839  0.27647596022819948 -0.10994865006679522  0.2211807683830187 0.2876656927373169  0.16588557653642583 0.69943687684945621  0.11059038469153104 1.1234304113920563  0.055295192845702751 1.5576384573631763  -2.8843513916536804e-14 2.0000000000000071 
 3.9862333344105103 9 4.4285948711763625 9
Curves 32
1 0 0 4000 0 0 -1 
1 50 0 4000 0 0 -1 
1 0 0 4000 1 0 0 
1 0 54 3997 0 -1 0 
1 0 45 3998.5 0 0 1 
1 0 60 4000 0 -1 0 
1 -1.1119577481011333e-15 1017.1199999999999 1288.1600000000001 -0 -0.59999999999999998 -0.80000000000000004 
1 0 60 4000 0 0 -1 
1 0 60.5 3982 0 -1 0 
1 0 57 3991 0 0 1 
2 0 50.75 3985 -1 0 0 0 1 0 0 0 -1 6.25
2 0 54.25 3997 -1 0 0 -0 -0.28000000000000003 -0.95999999999999996 0 -0.95999999999999996 0.28000000000000003 6.25
1 50 24 3997 0 1 0 
2 50 54.25 3997 -1 0 0 -0 -0.28000000000000003 -0.95999999999999996 0 -0.95999999999999996 0.28000000000000003 6.25
1 50 51 4000 0 0 -1 
1 50 0 4000 0 1 0 
1 50 45 3998.5 0 0 -1 
1 25 45 4000 1 0 -0 
1 50 51 -6.6613381477509392e-16 -1 0 -0 
1 50 45 3997 -1 0 0 
1 50 48 3997 -1 0 0 
1 -737.80487804878067 641.8536585365855 787.80487804878021 -0.62469504755442429 0.46852128566581819 0.62469504755442429 
1 50 60 12 -1 0 0 
1 50 60 3982 -1 0 0 
1 38 60 4000 0 0 -1 
1 41.600000000000001 57.300000000000004 3982 -0.80000000000000004 0.59999999999999998 0 
1 50 57 3982 -1 0 0 
1 42.000000000000007 57 3991 0 0 -1 
1 50 57 3985 -1 -0 0 
3 50.333333333333336 50.75 3985 0.59999999999999998 0.80000000000000004 0 -0.80000000000000004 0.59999999999999998 0 0 -0 1 10.416666666666668 6.25
1 50 52.499999999999993 3991 -1 0 0 
3 45.666666666666664 54.25 3997 0.59999999999999998 0.80000000000000004 0 -0.80000000000000004 0.59999999999999998 0 0 -0 1 10.416666666666668 6.25
Polygon3D 0
PolygonOnTriangulations 7
2 3 4 
p 400.00000002 1 0 4000 
2 1 2 
p 444.5000000095 1 0 4000 
2 3 4 
p 400.00000002 1 0 4000 
2 1 2 
p 444.225000009475 1 0 4000 
2 2 4 
p 20.00000008 1 0 50 
2 1 3 
p 20.00000008 1 0 50 
2 3 4 
p 49.225000009475 1 0 50 
Surfaces 15
1 0 0 4000 0 -1 0 1 0 0 -0 0 1 
1 0 60 4000 -1 0 0 0 -1 0 0 0 1 
1 50 48 3997 -0 -0 -1 0 -1 0 -1 0 0 
1 50 45 3997 0 -1 0 -0 0 1 -1 -0 0 
1 50 60 12 0 0.80000000000000004 -0.59999999999999998 0 -0.59999999999999998 -0.80000000000000004 -1 0 -0 
1 50 61 3982 -0 -0 -1 0 -1 0 -1 0 0 
1 50 57 3982 0 -1 0 -0 0 1 -1 -0 0 
10 4.9961830895930159 6.2831853071795862 -2.5 52.5
2 50 50.75 3985 -1 0 0 0 1 0 0 0 -1 6.25
10 0 1.2870022175865701 -2.5 52.5
2 50 54.25 3997 -1 0 0 -0 -0.28000000000000003 -0.95999999999999996 0 -0.95999999999999996 0.28000000000000003 6.25
1 50 0 4000 1 0 0 -0 1 0 0 -0 1 
1 0 60 4000 0 0 1 -1 0 0 0 -1 0 
1 50 51 0 0 1 0 0 0 -1 -1 0 0 
1 38 60 4000 0.59999999999999998 0.80000000000000004 0 0.80000000000000004 -0.59999999999999998 0 0 0 -1 
1 50 61 12 -0 -0 -1 0 -1 0 -1 0 0 
1 50 60 4000 0 1 0 -1 0 0 0 -0 1 
Triangulations 4
4 2 1 221.125000047375
0 0 4000 0 0 0 50 0 4000 50 0 0 0 0 0 -4000 50 0 50 -4000 1 2 4 4 3 1 
4 2 1 222.5000000475
0 60 4000 0 60 0 0 0 4000 0 0 0 0 0 0 -4000 60 0 60 -4000 1 2 4 4 3 1 
4 2 1 233.556250044869
50 0 4000 50 0 0 50 60 4000 50 60 0 0 0 0 -4000 60 0 60 -4000 1 2 4 4 3 1 
4 2 1 49.8590625094872
50 60 4000 0 60 4000 0 0 4000 50 0 4000 -50 0 0 0 0 60 -50 60 4 1 2 2 3 4 

TShapes 86
Ve
1e-07
0 0 4000
0 0

0101100
*
Ed
 1e-07 1 1 0
1  1 0 0 4000
6  1 2 0
6  2 1 0
0

0101000
+86 0 -86 1 *
Ve
1e-07
50 0 4000
0 0

0101100
*
Ed
 1e-07 1 1 0
1  2 0 0 4000
6  3 1 0
6  4 3 0
0

0101000
+84 0 -84 1 *
Ed
 1e-07 1 1 0
1  3 0 0 50
6  5 1 2
6  6 1 0
6  7 4 0
0

0101000
+86 0 -84 0 *
Wi

0101000
+85 0 -83 0 -82 0 +82 1 *
Fa
0  1e-07 1 0
2  1
0111000
+81 0 *
Ve
2.00001e-07
0 48 3997
0 0

0101101
*
Ve
2.00001e-07
0 45 3997
0 0

0101101
*
Ed
 1e-07 1 1 0
1  4 0 6 9
2  1 2 0 6 9
2  2 3 0 6 9
0

0101000
+79 0 -78 0 *
Ve
2.00001e-07
0 45 4000
0 0

0101101
*
Ed
 1e-07 1 1 0
1  5 0 -1.5 1.50000000000031
2  3 2 0 -1.5 1.50000000000031
2  4 4 0 -1.5 1.50000000000031
0

0101000
+78 0 -76 0 *
Ed
 1e-07 1 1 0
1  6 0 15 60
0

0101000
+76 0 -86 0 *
Ve
1.00000000333067e-07
0 51 -3.33066907387547e-16
0 0

0101101
*
Ed
 1e-07 1 1 0
1  6 0 9 60
0

0101000
+73 2 -86 0 *
Ve
1e-07
0 60 12
0 0

0101101
*
Ed
 1e-07 1 1 0
1  7 0 1595.2 1610.2
2  5 2 0 1595.2 1610.2
2  6 5 0 1595.2 1610.2
0

0101000
+71 0 -73 0 *
Ve
2.00001e-07
0 60 3982
0 0

0101101
*
Ed
 1e-07 1 1 0
1  8 0 17.9999999999999 3988
0

0101000
+69 0 -71 0 *
Ve
2.00001e-07
0 57 3982
0 0

0101101
*
Ed
 1e-07 1 1 0
1  9 0 0.49999999999978 3.5
2  7 2 0 0.49999999999978 3.5
2  8 6 0 0.49999999999978 3.5
0

0101000
+69 0 -67 0 *
Ve
2.00001e-07
0 57 3985
0 0

0101101
*
Ed
 1e-07 1 1 0
1  10 0 -9 -6
2  9 2 0 -9 -6
2  10 7 0 -9 -6
0

0101000
+67 0 -65 0 *
Ve
2.00001e-07
0 52.5 3991
0 0

0101101
*
Ed
 1e-07 1 1 0
1  11 0 4.99618308959302 6.28318530717959
2  11 2 0 4.99618308959302 6.28318530717959
2  12 8 0 4.99618308959302 6.28318530717959
0

0101000
+63 0 -65 0 *
Ed
 1e-07 1 1 0
1  12 0 0 1.28700221758657
2  13 2 0 0 1.28700221758657
2  14 9 0 0 1.28700221758657
0

0101000
+63 0 -79 0 *
Wi

0101000
-77 0 -75 0 -74 0 -85 0 +72 1 +70 0 +68 0 -66 0 -64 0 +62 0 
-61 0 *
Fa
0  1e-07 2 0

0111000
+60 0 *
Ve
2.00001e-07
50 45 3997
0 0

0101101
*
Ve
2.00001e-07
50 48 3997
0 0

0101101
*
Ed
 1e-07 1 1 0
1  13 0 21 24
2  15 10 0 21 24
2  16 3 0 21 24
0

0101000
+58 0 -57 0 *
Ve
2.00001e-07
50 51 3991.66146087398
0 0

0101101
*
Ed
 1e-07 1 1 0
1  14 0 0.263056841487642 1.28700221758657
2  17 10 0 0.263056841487642 1.28700221758657
2  18 9 0 0.263056841487642 1.28700221758657
0

0101000
+55 0 -57 0 *
Ve
1e-07
50 51 0
0 0

0101100
*
Ed
 1e-07 1 1 0
1  15 0 8.33853912601549 4000
0

0101000
+55 0 -53 0 *
Ed
 1e-07 1 1 0
1  16 0 0 51
0

0101000
-53 2 +84 0 *
Ve
2.00001e-07
50 45 4000
0 0

0101101
*
Ed
 1e-07 1 1 0
1  16 0 0 45
0

0101000
+84 0 -50 0 *
Ed
 1e-07 1 1 0
1  17 0 -1.50000000000017 1.5
2  19 10 0 -1.50000000000017 1.5
2  20 4 0 -1.50000000000017 1.5
0

0101000
+50 0 -58 0 *
Wi

0101000
-56 0 +54 0 -52 0 +51 1 +83 0 -49 0 -48 0 *
Fa
0  1e-07 10 0

0111000
+47 0 *
Ed
 1e-07 1 1 0
1  18 0 -25 25
2  21 11 0 -25 25
2  22 4 0 -25 25
0

0101000
+76 0 -50 0 *
Wi

0101000
-45 0 +49 0 +82 0 +74 0 *
Fa
0  1e-07 11 0

0111000
+44 0 *
Ed
 1e-07 1 1 0
1  19 0 0 50
2  23 5 0 0 50
2  24 12 0 0 50
0

0101000
+53 0 -73 0 *
Wi

0101000
+51 1 +82 1 +72 1 +42 0 *
Fa
0  1e-07 11 1

0111000
+41 0 *
Ed
 1e-07 1 1 0
1  20 0 1.71587744288665e-15 50
2  25 3 0 1.71587744288665e-15 50
2  26 4 0 1.71587744288665e-15 50
0

0101000
+58 0 -78 0 *
Ed
 1e-07 1 1 0
1  21 0 1.71587744288665e-15 50
2  27 9 0 1.71587744288665e-15 50
2  28 3 0 1.71587744288665e-15 50
0

0101000
+57 0 -79 0 *
Wi

0101000
-77 0 +39 0 -56 0 -38 0 *
Fa
0  1e-07 3 0

0111000
+37 0 *
Wi

0101000
-45 0 -48 0 -39 0 -75 0 *
Fa
0  1e-07 4 0

0111000
+35 0 *
Ve
1e-07
38 60 12
0 0

0101101
*
Ed
 1e-07 1 1 0
1  22 0 -1261.10312725049 -1241.8937545382
2  29 13 0 -1261.10312725049 -1241.8937545382
2  30 5 0 -1261.10312725049 -1241.8937545382
0

0101000
+53 0 -33 0 *
Ed
 1e-07 1 1 0
1  23 0 12 50
2  31 14 0 12 50
2  32 5 0 12 50
0

0101000
+33 0 -71 0 *
Wi

0101000
-32 0 -31 0 -70 0 +42 0 *
Fa
0  1e-07 5 0

0111000
+30 0 *
Ve
2.00001e-07
38 60 3982
0 0

0101101
*
Ed
 1e-07 1 1 0
1  24 0 12 50
2  33 15 0 12 50
2  34 6 0 12 50
0

0101000
+28 0 -69 0 *
Ed
 1e-07 1 1 0
1  25 0 17.9999999999999 3988
0

0101000
+28 0 -33 0 *
Wi

0101000
-27 0 -68 0 +31 0 +26 0 *
Fa
0  1e-07 15 0

0111000
+25 0 *
Ve
2.00001e-07
42 57 3982
0 0

0101101
*
Ed
 1e-07 1 1 0
1  26 0 -0.500000000000007 4.5000000000001
2  35 13 0 -0.500000000000007 4.5000000000001
2  36 6 0 -0.500000000000007 4.5000000000001
0

0101000
+23 0 -28 0 *
Ed
 1e-07 1 1 0
1  27 0 8 50
2  37 6 0 8 50
2  38 7 0 8 50
0

0101000
+23 0 -67 0 *
Wi

0101000
-22 0 -27 0 -66 0 +21 0 *
Fa
0  1e-07 6 0

0111000
+20 0 *
Ve
2.00001e-07
42 57 3985
0 0

0101101
*
Ed
 1e-07 1 1 0
1  28 0 6 9
2  39 13 0 6 9
2  40 7 0 6 9
0

0101000
+18 0 -23 0 *
Ed
 1e-07 1 1 0
1  29 0 8 50
2  41 8 0 8 50
2  42 7 0 8 50
4 G1 7 0 8 0
0

0101000
+18 0 -65 0 *
Wi

0101000
-17 0 -21 0 -64 0 +16 0 *
Fa
0  1e-07 7 0

0111000
+15 0 *
Ve
2.00001e-07
48 52.5 3991
0 0

0101101
*
Ed
 1e-07 1 1 0
1  30 0 2.66442683888313e-17 1.28700221758657
2  43 13 0 2.66442683888313e-17 1.28700221758657
2  44 8 0 2.66442683888313e-17 1.28700221758657
0

0101000
+18 0 -13 0 *
Ed
 1e-07 1 1 0
1  31 0 1.99999999999999 50
2  45 8 0 1.99999999999999 50
2  46 9 0 1.99999999999999 50
4 G1 8 0 9 0
0

0101000
+13 0 -63 0 *
Wi

0101000
-12 0 -11 0 -62 0 +16 0 *
Fa
0  1e-07 8 0

0111000
+10 0 *
Ed
 1e-07 1 1 0
1  32 0 4.16553802968873 4.42859487117636
2  47 13 0 4.16553802968873 4.42859487117636
2  48 9 0 4.16553802968873 4.42859487117636
0

0101000
+55 0 -13 0 *
Wi

0101000
-8 0 -11 0 -61 0 +38 0 +54 0 *
Fa
0  1e-07 9 0

0111000
+7 0 *
Wi

0101000
-22 0 -26 0 +32 0 +52 0 -8 0 +12 0 -17 0 *
Fa
0  1e-07 13 0

0111000
+5 0 *
Sh

0101000
+80 0 +59 0 +46 0 +43 0 -40 0 -36 0 -34 0 +29 0 +24 0 -19 0 
-14 0 +9 0 -6 0 +4 0 *
So

0100000
+3 0 *
Co

1100000
+2 0 *

+1 0 
0

