DBRep_DrawableShape

CASCADE Topology V1, (c) Matra-Datavision
Locations 0
Curve2ds 5
7 0 0  1 2 2  12.040798630429347 0  36.918145127588751 0 
 0 2 24.877335241779495 2
7 0 0  1 2 2  36.918145127588751 0  36.918145127588751 22.407660659858756 
 0 2 25.090967323026199 2
7 0 0  1 3 3  36.918145127588751 22.407660659858756  36.918145127588751 180.97258663004044  36.918145127588751 212.23495679873355 
 25.090967323026199 2 202.6439674549413 1 237.64999152188889 2
7 0 0  1 2 2  36.918145127588751 212.23495679873358  0 212.23495679873358 
 0 2 36.918128424531247 2
7 0 0  11 21 3  3.8049641562509784e-14 212.23495679873358  3.4651632321538219 194.97792987701544  6.4063609126622501 177.7209029553097  8.7825602490665737 160.46387603357229  10.544706426539527 143.20684911188454  11.698181582967957 125.94982219014456  12.330065617520971 108.69279526844014  12.591640265726499 91.435768346725794  12.644621235258413 74.178741425002102  12.597863732734403 56.921714503292975  12.465294168327361 37.627627521605582  12.264378837760191 18.333540539880875  12.242655836769138 16.296480479906982  12.21955082111444 14.259420419892047  12.196927086662027 12.222360359947059  12.172016297242338 10.185300299912134  12.14777908477199 8.1482402399660625  12.121896691573461 6.1111801799519583  12.09567470286877 4.0741201199780166  12.06860106192855 2.0370600599863113  12.04079863042932 8.1618859161977517e-15 
 0 12 191.62775754084657 9 214.24794890070083 12
Curves 5
7 0 0  3 4 2  188.4735786421316 467.04158819873584 1390.0967339508306  189.3760411876043 458.80263456344017 1390.3610250103179  190.27850373307709 450.56368092814495 1390.6253160698054  191.18096627854985 442.3247272928495 1390.8896071292932 
 0 4 24.877335241779495 4
7 0 0  11 12 2  191.18096627854985 442.3247272928495 1390.8896071292932  190.08770184184291 441.54652095296677 1388.9964106049406  189.00959441898715 440.77344288361417 1387.10155830799  187.95002323297442 440.00813888548839 1385.2120012515632  186.89489175767045 439.23977963426773 1383.2992887718638  185.8801329764359 438.49611234348185 1381.436317994559  184.84192199564635 437.72796335405201 1379.4939005072413  183.86174597392295 436.99820559611464 1377.6372152715746  182.86340563667758 436.24812382640567 1375.7120063465968  181.89818462154446 435.51730177453072 1373.8222676024702  180.94209145752069 434.78728036481766 1371.9195035898144  180.0020430764491 434.06343323911784 1370.0178318714088 
 0 12 25.090967323026199 12
7 0 0  11 21 3  180.0020430764491 434.06343323911784 1370.0178318714088  173.34991172658786 428.94122223989211 1356.5608967713476  167.50122336912827 424.1281887008916 1343.1586583446938  162.42058241026632 419.62433804809643 1329.8111306783048  158.07305969411306 415.42965643546188 1316.518277272826  154.42466892231769 411.54416551792048 1303.2801551301932  151.44259629290457 407.96784417744016 1290.0967090874633  149.09555465980401 404.70070409380543 1276.9679698719615  147.35390385436514 401.74274261132075 1263.89393002681  146.18977993815312 399.0939591068452 1250.8745878850486  145.45633717202304 396.29308159138617 1235.3538591018641  145.4784411385792 393.935314691435 1219.9115242746125  145.50238740544086 393.55903580742694 1217.3704757451396  145.54645617076656 393.19477510160505 1214.8315534428191  145.61046658964872 392.84253257621447 1212.2947573695594  145.69424045153215 392.50230822668169 1209.7600875181856  145.79760216298271 392.17410205433237 1207.2275438856127  145.92037871834293 391.85791405314041 1204.6971264587332  146.06239967616256 391.5537442236834 1202.1688352334761  146.22349712854282 391.26159256945374 1199.64267021714  146.40350567745011 390.98145911203733 1197.1186314618244 
 25.090967323026202 12 202.6439674549413 9 237.64999152188889 12
7 0 0  3 4 2  146.40350567744997 390.98145911203727 1197.1186314618246  136.85776874663551 398.7439066810482 1196.8696258740949  127.31203181582097 406.50635425005964 1196.6206202863659  117.76629488500643 414.26880181907086 1196.3716146986367 
 0 4 36.918128424531247 4
7 0 0  8 15 3  117.7662948850064 414.2688018190708 1196.3716146986367  122.42817810134484 416.63522170720375 1217.444172738155  127.78067696782615 419.91790754684473 1238.6692501725397  133.85785031588867 424.10650744258533 1260.0471696385059  140.65935008770717 429.19338605912691 1281.5781789079736  148.35312732950371 435.20914742015401 1303.2613255528179  156.95803639360486 442.08397611671489 1325.0987861709546  167.79642737762742 450.79448387755428 1349.6845514032766  180.24609677820484 460.60897275985809 1374.4622840404868  181.57119442858072 461.65141863379608 1377.0647831534329  182.918254107287 462.70896880251559 1379.6767033070726  184.2831911710816 463.77805117433564 1382.2889561423531  185.66030569591726 464.85374686401559 1384.8890467369704  187.05836307576865 465.94274929532656 1387.4945127492815  188.4735786421316 467.04158819873584 1390.0967339508306 
 0 9 191.62775754084657 6 214.24794890070086 9
Polygon3D 0
PolygonOnTriangulations 0
Surfaces 1
9 0 0 0 0 3 11 4 21 2 3 187.16318529498147 479.00471075194264 1389.7129781397989  186.16043194487762 478.23640844877821 1387.819463911482  185.16364565173313 477.47200522502067 1385.9243333407526  184.17593767109199 476.7140936339419 1384.0345391491774  183.1835415402193 475.95236610407812 1382.1216139352384  182.22104614864494 475.21341563072605 1380.2584918512787  181.2266501090993 474.45023304537443 1378.3159150498939  180.2789827733265 473.72300258841017 1376.4591487434789  179.3043045022811 472.97557067116531 1374.5338548154659  178.35207737447183 472.24582401260818 1372.6440815748826  169.32527303546019 465.33430087318186 1354.621891343997  160.81788796963633 458.88676528333508 1336.7005748979327  153.54553989766802 453.49025850870299 1320.752132704411  146.48134016872626 448.36943500127279 1304.8873956069956  139.84088643723081 443.40753407720138 1289.1102818157326  133.28198871167962 438.42416795589162 1273.4263205425743  127.69786848951223 432.96318485452201 1257.8504189898104  123.36392739893643 427.67189726188377 1242.3615973462013  120.30019655022488 422.67383947627383 1226.9560143703673  118.46884653172648 418.17560093413147 1211.626995932522  117.76629488500646 414.26880181907086 1196.3716146986367  
188.5024456228376 466.77804959891159 1390.1051878029637  187.46952191053359 466.00644595017599 1388.2117794759731  186.44562857414738 465.23915111121261 1386.3167416631447  185.43396619172825 464.47877538446943 1384.4270265166831  184.42065827935471 463.71483728078988 1382.5141722140422  183.44074175792761 462.97431453500099 1380.6511005658012  182.43174073792977 462.20947648157573 1378.7085768689039  181.47323717353899 461.48140359099983 1376.8518375862691  180.49067154707228 460.73308838956422 1374.9265719924508  179.53411312349897 460.00298326658924 1373.0368102507721  170.49768673449861 453.0904932374882 1355.0146510359959  162.28733228786967 446.67195988980387 1337.0924042493034  155.53196215488759 441.32566578329914 1321.1423513222048  149.25901842632413 436.31085664234149 1305.2742134714322  143.59301873558189 431.54971361730742 1289.4906597218703  138.28748049633603 426.92194584169607 1273.7952914827674  133.92072935709948 422.12348661858437 1258.1981373358669  130.66035805349728 417.58585086726663 1242.6851398742542  128.50503418246728 413.39140974155146 1227.253778297415  127.41605808459238 409.67788363610214 1211.8995876726067  127.31203181582103 406.5063542500597 1196.6206202863659  
189.84170595069372 454.55138844588055 1390.4973974661284  188.77861187618959 453.77648345157371 1388.6040950404645  187.72761149656168 453.00629699740449 1386.7091499855371  186.69199471236456 452.2434571349969 1384.8195138841888  185.65777501849016 451.47730845750164 1382.9067304928458  184.66043736721031 450.73521343927598 1381.0437092803234  183.63683136676028 449.96871991777704 1379.1012386879138  182.66749157375153 449.23980459358955 1377.2445264290591  181.67703859186352 448.49060610796312 1375.3192891694353  180.71614887252616 447.76014252057035 1373.4295389266611  171.67010043353719 440.8466856017946 1355.4074107279953  163.75677660610305 434.45715449627261 1337.4842336006741  157.5183844121072 429.16107305789518 1321.5325699399984  152.03669668392203 424.25227828341008 1305.6610313358685  147.34515103393301 419.6918931574134 1289.8710376280078  143.29297228099247 415.41972372750047 1274.1642624229605  140.14359022468676 411.28378838264661 1258.5458556819235  137.95678870805821 407.49980447264932 1243.0086824023072  136.70987181470974 404.10898000682886 1227.5515422244628  136.3632696374583 401.18016633807264 1212.1721794126915  136.85776874663557 398.74390668104837 1196.8696258740954  
191.18096627854985 442.3247272928495 1390.8896071292932  190.08770184184556 441.54652095297149 1388.9964106049556  189.00959441897595 440.77344288359637 1387.1015583079293  187.95002323300088 440.00813888552437 1385.2120012516946  186.89489175762563 439.23977963421333 1383.2992887716496  185.88013297649303 438.49611234355092 1381.4363179948459  184.84192199559084 437.72796335397828 1379.4939005069239  183.8617459739641 436.99820559617916 1377.6372152718493  182.86340563665482 436.24812382636196 1375.7120063464199  181.89818462155341 435.51730177455141 1373.82226760255  172.84251413257562 428.60287796610123 1355.8001704199955  165.22622092433639 422.2423491027414 1337.8760629520448  159.50480666932677 416.99648033249133 1321.9227885577923  154.81437494151987 412.19369992447878 1306.0478492003051  151.09728333228406 407.83407269751945 1290.2514155341455  148.29846406564886 403.91750161330492 1274.5332333631536  146.36645109227396 400.44409014670896 1258.8935740279801  145.25321936261903 397.41375807803217 1243.3322249303601  144.91470944695212 394.82655027210649 1227.8493061515103  145.31048119032414 392.68244904004331 1212.4447711527762  146.40350567745 390.98145911203727 1197.1186314618246  

0 4
36.918145127588751 4

0 12
22.407660659858756 9
212.23495679873358 12

Triangulations 0

TShapes 13
Ve
0.000629705951998347
188.473578642132 467.041588198736 1390.09673395083
0 0

0101100
*
Ve
1e-07
191.18096627855 442.32472729285 1390.88960712929
0 0

0101100
*
Ed
 1e-07 1 1 0
1  1 0 0 24.8773352417795
2  1 1 0 0 24.8773352417795
0

0101000
+13 0 -12 0 *
Ve
1e-07
180.002043076449 434.063433239118 1370.01783187141
0 0

0101100
*
Ed
 1e-07 1 1 0
1  2 0 0 25.0909673230262
2  2 1 0 0 25.0909673230262
0

0101000
+12 0 -10 0 *
Ve
1e-07
146.40350567745 390.981459112037 1197.11863146182
0 0

0101100
*
Ed
 1e-07 1 1 0
1  3 0 25.0909673230262 237.649991521889
2  3 1 0 25.0909673230262 237.649991521889
0

0101000
+10 0 -8 0 *
Ve
0.000629705951998347
117.766294885006 414.268801819071 1196.37161469864
0 0

0101100
*
Ed
 1e-07 1 1 0
1  4 0 0 36.9181284245312
2  4 1 0 0 36.9181284245312
0

0101000
+8 0 -6 0 *
Ed
 0.000629705951998347 1 1 0
1  5 0 0 214.247948900701
2  5 1 0 0 214.247948900701
0

0101000
+6 0 -13 0 *
Wi

0101100
+11 0 +9 0 +7 0 +5 0 +4 0 *
Fa
0  1e-07 1 0

0111000
+3 0 *
Sh

1101000
+2 0 *

+1 0 
0

