DBRep_DrawableShape

CASCADE Topology V1, (c) Matra-Datavision
Locations 0
Curve2ds 4
1 0 0 1 0 
1 0 49.000931557873216 1 0 
1 6.2831853071795862 0 0 1 
1 0 0 0 1 
Curves 3
2 0 0 26.440258026119999 0 0 1 0 1 0 -1 0 0 140.92544555660001
2 0 0 214.50729370120001 0 0 1 0 1 0 -1 0 0 90.928276062009999
7 0 0  3 135 50  0 140.92544555660001 26.440258026119999  0 141.86225891110001 26.720888137820001  0 142.8032836914 27.029663085940001  0 143.71699523929999 27.337093353269999  0 144.63069152829999 27.644523620609998  0 145.51707458499999 27.950609207149999  0 146.54983520510001 28.374559402469998  0 147.5825958252 28.798511505130001  0 148.76174926760001 29.34033203125  0 149.32537841800001 29.588869094850001  0 149.88902282710001 29.837408065799998  0 149.83714294430001 29.792663574220001  0 151.47465515139999 30.769485473629999  0 153.16403198239999 31.791049957279998  0 154.54725646969999 32.77116394043  0 155.93046569820001 33.751277923579998  0 157.00750732419999 34.689945220950001  0 158.11018371579999 35.705043792719998  0 159.21286010739999 36.720138549799998  0 160.34117126460001 37.811672210689999  0 161.4002532959 38.944602966310001  0 162.45935058590001 40.077529907230002  0 163.4492340088 41.251861572270002  0 164.37623596189999 42.475524902339998  0 165.30325317379999 43.699188232419999  0 166.1674041748 44.972187042240002  0 167.76399230960001 47.606609344479999  0 168.49641418460001 48.968036651609999  0 169.1265258789 50.372741699220001  0 169.75665283199999 51.77744293213  0 170.28443908689999 53.225425720209998  0 170.71473693850001 54.702816009519999  0 171.14501953120001 56.180206298830001  0 171.47779846189999 57.687004089360002  0 171.92555236819999 60.734161376949999  0 172.04054260250001 62.27452468872  0 172.02131652829999 65.35247039795  0 171.88710021969999 66.89005279541  0 171.67304992679999 68.414726257319998  0 171.458984375 69.939407348629999  0 171.16510009769999 71.45118713379  0 170.80061340329999 72.946914672849999  0 170.43614196780001 74.442642211909998  0 170.00106811520001 75.922325134280001  0 169.5265197754 77.38646697998  0 169.05197143550001 78.850616455080001  0 168.53796386720001 80.299224853520002  0 167.98211669919999 81.734230041499998  0 167.42625427249999 83.169227600100001  0 166.82858276370001 84.590629577640001  0 165.58703613279999 87.40830230713  0 164.94317626949999 88.804580688480002  0 164.27603149410001 90.19059753418  0 163.60888671879999 91.576606750490001  0 162.91845703120001 92.952354431149999  0 162.2162475586 94.32194519043  0 161.51403808590001 95.691528320309999  0 160.80004882809999 97.054954528810001  0 160.0697479248 98.409492492680002  0 159.3394317627 99.764030456539999  0 158.59280395510001 101.10967254640001  0 157.0835571289 103.7934799194  0 156.32093811039999 105.1316375732  0 155.54850769039999 106.4650268555  0 154.7760772705 107.7984085083  0 153.99383544919999 109.12702941889999  0 153.21673583980001 110.4548950195  0 152.43962097170001 111.7827529907  0 151.66763305660001 113.10987091059999  0 150.88496398929999 114.4355010986  0 150.10227966310001 115.76113891599999  0 149.30891418460001 117.0852890015  0 148.5237121582 118.41021728520001  0 147.73851013180001 119.73513793950001  0 146.9614868164 121.060836792  0 146.17762756350001 122.3849182129  0 145.39375305179999 123.7089996338  0 144.60305786129999 125.03146362299999  0 143.81637573239999 126.3545761108  0 143.02969360349999 127.677696228  0 142.24700927730001 129.00146484379999  0 141.46017456050001 130.3233947754  0 140.67332458499999 131.64532470699999  0 139.88232421879999 132.9653930664  0 139.09219360349999 134.28633117679999  0 138.30206298830001 135.60725402829999  0 137.51281738279999 136.92904663089999  0 136.7241973877 138.25093078610001  0 135.9355621338 139.5728149414  0 135.14755249020001 140.89479064939999  0 134.35705566409999 142.2155456543  0 133.56657409670001 143.53630065920001  0 132.7735900879 144.85581970210001  0 131.98065185550001 146.1750946045  0 131.18771362300001 147.49435424800001  0 130.3948059082 148.81335449220001  0 129.60256958010001 150.1338043213  0 128.81033325199999 151.45426940920001  0 128.01876831050001 152.77618408199999  0 127.22783660890001 154.09420776370001  0 126.4369125366 155.41223144529999  0 125.6466293335 156.72634887699999  0 124.8497467041 158.05290222170001  0 124.0528640747 159.3794708252  0 123.249382019 160.718460083  0 122.4362869263 162.07057189939999  0 121.6231994629 163.4226989746  0 120.800491333 164.7879486084  0 119.97062683110001 166.16738891599999  0 119.1407546997 167.54682922360001  0 118.3037261963 168.9404449463  0 116.6135559082 171.75636291500001  0 115.7604217529 173.17864990230001  0 114.89781188960001 174.61450195309999  0 114.0352096558 176.05033874509999  0 113.1631317139 177.49975585940001  0 112.28224945069999 178.96394348140001  0 111.4013671875 180.42811584469999  0 110.511680603 181.9070739746  0 109.6136398315 183.4009552002  0 108.7155990601 184.89485168460001  0 107.8092041016 186.40365600589999  0 105.9780883789 189.45422363279999  0 105.05336761469999 190.99597167970001  0 104.1214523315 192.5486907959  0 103.1895370483 194.1014251709  0 101.31131744385087 197.2288665772235  0 99.359214782709998 200.4818572998  0 97.454719543460001 203.6537322998  0 96.52628326416 205.19909667970001  0 95.461303710940001 206.97050476070001  0 94.39631652832 208.7419128418  0 91.993240356491839 212.7368164061221  0 91.437210083010001 213.6612854004  0 90.928276062009999 214.50729370120001 
 0 4 1 3 1.9999849984013174 3 2.9999706455936357 3 3.9999802069007218 2 4.9999897681123642 3 5.9999919852050887 3 6.9999924784604097 3 7.9999978937967189 3 9.0000093112516044 2 10.00002072870649 3 11.000033941926276 3 12.000044382215446 2 13.000054822520481 2 14.000067741482434 3 15.000086945676173 3 16.000103803227603 3 17.000125376354656 3 18.000145907932236 2 19.000166439489576 3 20.000182501823158 3 21.000194153101482 3 22.000210510119878 2 23.000226867138281 3 24.000238939884028 3 25.000251742159506 3 26.000273851608782 3 27.000291699371271 3 28.000314599049279 3 29.000341759040712 3 30.000373992322213 3 31.000397717711721 3 32.000426522197273 3 33.000450235591565 3 34.000465452137149 3 35.000489165897257 3 36.000510325648335 3 37.000539938030627 3 38.000575346666693 3 39.000613198529436 2 40.00065105030864 3 41.000678747381528 3 42.000698792493473 3 43.000726340582645 2 44.000753888691065 3 45.000788661686393 1 46.000823434727806 2 47.000858207772005 3 48.000894882854276 1 49.000931557873216 4
Polygon3D 0
PolygonOnTriangulations 0
Surfaces 1
7 0 0 0 0 0 1 
7 0 0  3 135 50  0 140.92544555660001 26.440258026119999  0 141.86225891110001 26.720888137820001  0 142.8032836914 27.029663085940001  0 143.71699523929999 27.337093353269999  0 144.63069152829999 27.644523620609998  0 145.51707458499999 27.950609207149999  0 146.54983520510001 28.374559402469998  0 147.5825958252 28.798511505130001  0 148.76174926760001 29.34033203125  0 149.32537841800001 29.588869094850001  0 149.88902282710001 29.837408065799998  0 149.83714294430001 29.792663574220001  0 151.47465515139999 30.769485473629999  0 153.16403198239999 31.791049957279998  0 154.54725646969999 32.77116394043  0 155.93046569820001 33.751277923579998  0 157.00750732419999 34.689945220950001  0 158.11018371579999 35.705043792719998  0 159.21286010739999 36.720138549799998  0 160.34117126460001 37.811672210689999  0 161.4002532959 38.944602966310001  0 162.45935058590001 40.077529907230002  0 163.4492340088 41.251861572270002  0 164.37623596189999 42.475524902339998  0 165.30325317379999 43.699188232419999  0 166.1674041748 44.972187042240002  0 167.76399230960001 47.606609344479999  0 168.49641418460001 48.968036651609999  0 169.1265258789 50.372741699220001  0 169.75665283199999 51.77744293213  0 170.28443908689999 53.225425720209998  0 170.71473693850001 54.702816009519999  0 171.14501953120001 56.180206298830001  0 171.47779846189999 57.687004089360002  0 171.92555236819999 60.734161376949999  0 172.04054260250001 62.27452468872  0 172.02131652829999 65.35247039795  0 171.88710021969999 66.89005279541  0 171.67304992679999 68.414726257319998  0 171.458984375 69.939407348629999  0 171.16510009769999 71.45118713379  0 170.80061340329999 72.946914672849999  0 170.43614196780001 74.442642211909998  0 170.00106811520001 75.922325134280001  0 169.5265197754 77.38646697998  0 169.05197143550001 78.850616455080001  0 168.53796386720001 80.299224853520002  0 167.98211669919999 81.734230041499998  0 167.42625427249999 83.169227600100001  0 166.82858276370001 84.590629577640001  0 165.58703613279999 87.40830230713  0 164.94317626949999 88.804580688480002  0 164.27603149410001 90.19059753418  0 163.60888671879999 91.576606750490001  0 162.91845703120001 92.952354431149999  0 162.2162475586 94.32194519043  0 161.51403808590001 95.691528320309999  0 160.80004882809999 97.054954528810001  0 160.0697479248 98.409492492680002  0 159.3394317627 99.764030456539999  0 158.59280395510001 101.10967254640001  0 157.0835571289 103.7934799194  0 156.32093811039999 105.1316375732  0 155.54850769039999 106.4650268555  0 154.7760772705 107.7984085083  0 153.99383544919999 109.12702941889999  0 153.21673583980001 110.4548950195  0 152.43962097170001 111.7827529907  0 151.66763305660001 113.10987091059999  0 150.88496398929999 114.4355010986  0 150.10227966310001 115.76113891599999  0 149.30891418460001 117.0852890015  0 148.5237121582 118.41021728520001  0 147.73851013180001 119.73513793950001  0 146.9614868164 121.060836792  0 146.17762756350001 122.3849182129  0 145.39375305179999 123.7089996338  0 144.60305786129999 125.03146362299999  0 143.81637573239999 126.3545761108  0 143.02969360349999 127.677696228  0 142.24700927730001 129.00146484379999  0 141.46017456050001 130.3233947754  0 140.67332458499999 131.64532470699999  0 139.88232421879999 132.9653930664  0 139.09219360349999 134.28633117679999  0 138.30206298830001 135.60725402829999  0 137.51281738279999 136.92904663089999  0 136.7241973877 138.25093078610001  0 135.9355621338 139.5728149414  0 135.14755249020001 140.89479064939999  0 134.35705566409999 142.2155456543  0 133.56657409670001 143.53630065920001  0 132.7735900879 144.85581970210001  0 131.98065185550001 146.1750946045  0 131.18771362300001 147.49435424800001  0 130.3948059082 148.81335449220001  0 129.60256958010001 150.1338043213  0 128.81033325199999 151.45426940920001  0 128.01876831050001 152.77618408199999  0 127.22783660890001 154.09420776370001  0 126.4369125366 155.41223144529999  0 125.6466293335 156.72634887699999  0 124.8497467041 158.05290222170001  0 124.0528640747 159.3794708252  0 123.249382019 160.718460083  0 122.4362869263 162.07057189939999  0 121.6231994629 163.4226989746  0 120.800491333 164.7879486084  0 119.97062683110001 166.16738891599999  0 119.1407546997 167.54682922360001  0 118.3037261963 168.9404449463  0 116.6135559082 171.75636291500001  0 115.7604217529 173.17864990230001  0 114.89781188960001 174.61450195309999  0 114.0352096558 176.05033874509999  0 113.1631317139 177.49975585940001  0 112.28224945069999 178.96394348140001  0 111.4013671875 180.42811584469999  0 110.511680603 181.9070739746  0 109.6136398315 183.4009552002  0 108.7155990601 184.89485168460001  0 107.8092041016 186.40365600589999  0 105.9780883789 189.45422363279999  0 105.05336761469999 190.99597167970001  0 104.1214523315 192.5486907959  0 103.1895370483 194.1014251709  0 101.31131744385087 197.2288665772235  0 99.359214782709998 200.4818572998  0 97.454719543460001 203.6537322998  0 96.52628326416 205.19909667970001  0 95.461303710940001 206.97050476070001  0 94.39631652832 208.7419128418  0 91.993240356491839 212.7368164061221  0 91.437210083010001 213.6612854004  0 90.928276062009999 214.50729370120001 
 0 4 1 3 1.9999849984013174 3 2.9999706455936357 3 3.9999802069007218 2 4.9999897681123642 3 5.9999919852050887 3 6.9999924784604097 3 7.9999978937967189 3 9.0000093112516044 2 10.00002072870649 3 11.000033941926276 3 12.000044382215446 2 13.000054822520481 2 14.000067741482434 3 15.000086945676173 3 16.000103803227603 3 17.000125376354656 3 18.000145907932236 2 19.000166439489576 3 20.000182501823158 3 21.000194153101482 3 22.000210510119878 2 23.000226867138281 3 24.000238939884028 3 25.000251742159506 3 26.000273851608782 3 27.000291699371271 3 28.000314599049279 3 29.000341759040712 3 30.000373992322213 3 31.000397717711721 3 32.000426522197273 3 33.000450235591565 3 34.000465452137149 3 35.000489165897257 3 36.000510325648335 3 37.000539938030627 3 38.000575346666693 3 39.000613198529436 2 40.00065105030864 3 41.000678747381528 3 42.000698792493473 3 43.000726340582645 2 44.000753888691065 3 45.000788661686393 1 46.000823434727806 2 47.000858207772005 3 48.000894882854276 1 49.000931557873216 4
Triangulations 0

TShapes 8
Ve
1e-07
0 140.9254455566 26.44025802612
0 0

0101100
*
Ed
 1e-07 1 1 0
1  1 0 0 6.28318530717959
2  1 1 0 0 6.28318530717959
0

0101100
+8 0 -8 0 *
Ve
1e-07
0 90.92827606201 214.5072937012
0 0

0101100
*
Ed
 1e-07 1 1 0
1  2 0 0 6.28318530717959
2  2 1 0 0 6.28318530717959
0

0101100
+6 0 -6 0 *
Ed
 1e-07 1 1 0
1  3 0 0 49.0009315578732
3  3 4C0 1 0 0 49.0009315578732
0

0101000
+8 0 -6 0 *
Wi

0101000
+7 0 -5 0 -4 0 +4 0 *
Fa
0  1e-07 1 0

0101000
+3 0 *
Sh

1101000
+2 0 *

+1 0 
0

