DBRep_DrawableShape

CASCADE Topology V1, (c) Matra-Datavision
Locations 2
1
              1               0               0               0 
              0               1               0               0 
              0               0               1           -4000 
2  1 -1 0
Curve2ds 14
8 -4.8000000000000043 10.199999999999818
1 2.8800000000000026 -8.1599999999998545 0.59999999999999998 0.80000000000000004 
8 -4.8000000000000043 10.199999999999818
1 4.800000000000118 50 1 0 
1 15 0 0 1 
1 0 0 0 1 
1 15 0 0 1 
1 0 0 0 1 
8 -30.199999999999999 -15.200000000000008
1 -25.84 -9.1200000000000045 0.80000000000000004 -0.59999999999999998 
8 -30.199999999999999 -15.200000000000008
1 -15.200000000000003 4000 -1 0 
8 -11.713032141645456 7.496340570652924
1 5.8536585365853657 7.3170731707318737 -0.78086880944303028 0.62469504755442429 
8 -11.713032141645456 7.496340570652924
1 5.8536585365852352 7.3170731707317103 -0.78086880944303028 0.62469504755442429 
1 1 0 0 1 
1 0 0 0 1 
1 1 0 0 1 
1 0 0 0 1 
Curves 14
1 0 0 4000 0 0 -1 
1 50 0 4000 0 0 -1 
1 0 0 4000 1 0 0 
1 -1.1119577481011333e-15 57.119999999999997 3991.8400000000001 0 -0.59999999999999998 0.80000000000000004 
1 0 60 4000 0 -1 0 
1 0 60 4000 0 0 -1 
1 50 0 4000 0 1 0 
1 50 51 4000 0 0 -1 
1 50 51 4000 -1 0 0 
1 50 60 4000 -1 0 0 
1 25.84 69.120000000000005 -8.8928864272475039e-14 -0.80000000000000004 0.59999999999999998 0 
1 42.68292682926829 56.487804878048777 3992.6829268292681 -0.62469504755442429 0.46852128566581819 -0.62469504755442429 
1 50 60 3988 -1 0 0 
1 38 60 4000 0 0 -1 
Polygon3D 0
PolygonOnTriangulations 10
2 3 4 
p 400.00000002 1 0 4000 
2 1 2 
p 444.5000000095 1 0 4000 
2 3 4 
p 400.00000002 1 0 4000 
2 1 2 
p 444.225000009475 1 0 4000 
2 2 4 
p 20.00000008 1 0 50 
2 1 3 
p 20.00000008 1 0 50 
2 3 4 
p 49.225000009475 1 0 50 
2 2 4 
p 24.00000008 1 0 60 
2 1 3 
p 24.00000008 1 0 60 
2 2 3 
p 50.5000000095 1 0 60 
Surfaces 11
1 0 0 4000 0 -1 0 1 0 0 -0 0 1 
1 0 60 4000 -1 0 0 0 -1 0 0 0 1 
1 50 60 3988 -0 -0.80000000000000004 -0.59999999999999998 -0 -0.59999999999999998 0.80000000000000004 -1 0 0 
1 50 0 4000 1 0 0 -0 1 0 0 -0 1 
1 38 60 4000 0.59999999999999998 0.80000000000000004 0 0.80000000000000004 -0.59999999999999998 -0 0 0 -1 
1 50 51 4000 -0 1 0 1 0 0 0 0 -1 
1 0 60 4000 0 0 1 -1 0 0 0 -1 0 
1 50 51 4000 0 -1 0 -0 0 1 -1 -0 0 
1 50 61 3988 -0 -0 -1 0 -1 0 -1 0 0 
1 50 60 4000 0 1 0 -1 0 0 0 -0 1 
1 38 61 4000 1 0 0 0 -1 0 0 0 -1 
Triangulations 4
4 2 1 221.125000047375
0 0 4000 0 0 0 50 0 4000 50 0 0 0 0 0 -4000 50 0 50 -4000 1 2 4 4 3 1 
4 2 1 222.5000000475
0 60 4000 0 60 0 0 0 4000 0 0 0 0 0 0 -4000 60 0 60 -4000 1 2 4 4 3 1 
4 2 1 233.556250044869
50 0 4000 50 0 0 50 60 4000 50 60 0 0 0 0 -4000 60 0 60 -4000 1 2 4 4 3 1 
4 2 1 49.8590625094872
50 60 4000 0 60 4000 0 0 4000 50 0 4000 -50 0 0 0 0 60 -50 60 4 1 2 2 3 4 

TShapes 44
Ve
1e-07
0 0 4000
0 0

0101100
*
Ed
 1e-07 1 1 0
1  1 0 0 4000
6  1 2 0
6  2 1 0
0

0101000
+44 0 -44 1 *
Ve
1e-07
50 0 4000
0 0

0101100
*
Ed
 1e-07 1 1 0
1  2 0 0 4000
6  3 1 0
6  4 3 0
0

0101000
+42 0 -42 1 *
Ed
 1e-07 1 1 0
1  3 0 0 50
6  5 1 2
6  6 1 0
6  7 4 0
0

0101000
+44 0 -42 0 *
Wi

0101000
+43 0 -41 0 -40 0 +40 1 *
Fa
0  1e-07 1 0
2  1
0111000
+39 0 *
Ve
1e-07
0 60 3988
0 0

0101101
*
Ve
1e-07
0 51 4000
0 0

0101101
*
Ed
 1e-07 1 1 0
1  4 0 -4.8 10.1999999999998
2  1 2 0 -4.8 10.1999999999998
2  2 3 0 -4.8 10.1999999999998
0

0101000
+37 0 -36 0 *
Ed
 1e-07 1 1 0
1  5 0 9 60
0

0101000
+36 0 -44 0 *
Ve
1e-07
0 60 4000
0 0

0101100
*
Ed
 1e-07 1 1 0
1  5 0 0 60
6  8 2 2
6  9 2 0
6  10 4 0
0

0101000
+33 0 -44 0 *
Ed
 1e-07 1 1 0
1  6 0 12 4000
0

0101000
+37 0 -33 1 *
Wi

0101000
-35 0 -34 0 -43 0 +32 1 +31 0 *
Fa
0  1e-07 2 0

0111000
+30 0 *
Ve
1e-07
50 51 4000
0 0

0101101
*
Ed
 1e-07 1 1 0
1  7 0 0 51
0

0101000
+42 0 -28 0 *
Ve
1e-07
50 51 0
0 0

0101101
*
Ed
 1e-07 1 1 0
1  8 0 0 4000
2  3 5 0 0 4000
2  4 6 0 0 4000
0

0101000
+28 0 -26 0 *
Ed
 1e-07 1 1 0
1  7 0 0 51
0

0101000
+42 0 -26 2 *
Wi

0101000
-27 0 +41 0 -25 0 +24 1 *
Fa
0  1e-07 4 0

0111000
+23 0 *
Ed
 1e-07 1 1 0
1  9 0 0 50
2  5 3 0 0 50
2  6 8 0 0 50
0

0101000
+28 0 -36 0 *
Wi

0101000
+40 0 +34 0 +21 0 +27 0 *
Fa
0  1e-07 7 0

0111000
+20 0 *
Ve
1e-07
38 60 0
0 0

0101101
*
Ed
 1e-07 1 1 0
1  10 0 12 50
0

0101000
+18 2 -33 0 *
Ed
 1e-07 1 1 0
1  11 0 -30.2 -15.2
2  7 7 1 -30.2 -15.2
2  8 5 0 -30.2 -15.2
0

0101000
+26 0 -18 0 *
Wi

0101000
+24 1 +40 1 +32 1 +17 1 +16 0 *
Fa
0  1e-07 7 1

0111000
+15 0 *
Ve
1e-07
38 60 3988
0 0

0101101
*
Ed
 1e-07 1 1 0
1  12 0 -11.7130321416455 7.49634057065292
2  9 5 0 -11.7130321416455 7.49634057065292
2  10 3 0 -11.7130321416455 7.49634057065292
0

0101000
+28 0 -13 0 *
Ed
 1e-07 1 1 0
1  13 0 12 50
2  11 9 0 12 50
2  12 3 0 12 50
0

0101000
+13 0 -37 0 *
Wi

0101000
-35 0 +21 0 -12 0 -11 0 *
Fa
0  1e-07 3 0

0111000
+10 0 *
Ed
 1e-07 1 1 0
1  14 0 12 4000
2  13 11 0 12 4000
2  14 5 0 12 4000
0

0101000
+13 0 -18 0 *
Wi

0101000
-11 0 -31 0 +17 1 +8 0 *
Fa
0  1e-07 10 0

0111000
+7 0 *
Wi

0101000
-12 0 -8 0 +16 0 +25 0 *
Fa
0  1e-07 5 0

0111000
+5 0 *
Sh

0101000
+38 0 +29 0 +22 0 +19 0 -14 0 -9 0 +6 0 +4 0 *
So

0100000
+3 0 *
Co

1100000
+2 0 *

+1 0 
0

