DBRep_DrawableShape

CASCADE Topology V1, (c) Matra-Datavision
Locations 20
1
0.00225210242646171 -0.998620590346289 -0.0524580267555826 20.3935444511006 
-0.99907971456979 -6.93022028652734e-16 -0.0428920031608158 45.1314279462609 
0.0428328375175887 0.0525063475822561 -0.997701574366686 11.8125678581803 
1
0.00225210242646171 -0.99907971456979 0.0428328375175887          44.538 
-0.998620590346289 -6.93575957462505e-16 0.0525063475822561 19.7451786052108 
-0.0524580267555826 -0.0428920031608158 -0.997701574366686          14.791 
2  1 1 2 1 0
1
0.00225246043517273 -0.99907971456979 0.042832818692393 44.6212403626421 
-0.998620151448725 -6.93575957462505e-16 0.0525146943295432 19.8472290468903 
-0.0524663658214798 -0.0428920031608158 -0.997701135873033 12.8520894427723 
2  1 1 4 1 0
1
0.999079714567854 0.00225210328468121 0.0428328375176139               0 
8.57824474649867e-10 -0.998620590346289 0.0525063475822561               0 
0.0428920032059029 -0.0524580267187379 -0.997701574366685               0 
2  6 1 1 1 2 1 0
2  2 -1 1 -1 6 -1 0
2  4 -1 1 -1 6 -1 0
2  6 -1 0
2  6 1 1 1 4 1 0
1
0.00225210242646171 -0.998620590346289 -0.0524580267555826 20.3935444511006 
-0.99907971456979 -6.93022028652734e-16 -0.0428920031608158 45.1314279462609 
0.0428328375175887 0.0525063475822561 -0.997701574366686 11.8125678581803 
1
0.00225210242646171 -0.99907971456979 0.0428328375175887          44.538 
-0.998620590346289 -6.93575957462505e-16 0.0525063475822561 19.7451786052108 
-0.0524580267555826 -0.0428920031608158 -0.997701574366686          14.791 
2  12 1 13 1 0
1
0.00225246043517273 -0.99907971456979 0.042832818692393 44.6212403626421 
-0.998620151448725 -6.93575957462505e-16 0.0525146943295432 19.8472290468903 
-0.0524663658214798 -0.0428920031608158 -0.997701135873033 12.8520894427723 
2  12 1 15 1 0
2  6 1 12 1 13 1 0
2  13 -1 12 -1 6 -1 0
2  15 -1 12 -1 6 -1 0
2  6 1 12 1 15 1 0
Curve2ds 4
1 0 0 0 1 
8 0 1
1 0 0.15069796379570397 1 0 
8 0 1
1 0 0.49086157489285914 1 0 
1 1 0 0 1 
Curves 6
7 0 0  3 4 2  44.537999999998618 19.745178605138936 14.791000000032948  44.565747366156494 19.779192528676646 14.144683003432228  44.593493873367272 19.813210776705244 13.498386014212091  44.6212403626404 19.847229046831348 12.852089442812726 
 0.15069796379570397 4 0.49086157489285914 4
1 45.131427963779494 -20.393544412332673 -11.8125678581792 0 1 -6.9388939039072299e-18 
7 0 0  3 4 2  44.540252103283883 18.746558014791248 14.738541973300388  44.567999706176082 18.780572228533803 14.092219462467328  44.595746332699775 18.814590622855913 13.445919694102194  44.623492823934583 18.848608895381489 12.799623077009322 
 0.15069796379570397 4 0.49086157489285914 4
7 0 0  3 4 2  44.540252103283883 18.746558014791248 14.738541973300388  44.567999706176096 18.780572228533803 14.092219462467328  44.59574633269979 18.814590622855913 13.445919694102194  44.62349282393459 18.848608895381489 12.799623077009322 
 0.15069796379570397 4 0.49086157489285914 4
1 45.131427963779494 -19.393544412332673 -11.8125678581792 1 0 0 
7 0 0  3 4 2  45.539331817851739 18.746558015649075 14.781433976506291  45.567079420743944 18.780572229391627 14.135111465673235  45.594826047267631 18.814590623713752 13.488811697308099  45.622572538502439 18.848608896239313 12.842515080215232 
 0.15069796379570397 4 0.49086157489285914 4
Polygon3D 0
PolygonOnTriangulations 8
4 1 3 4 2 
p 0.00804197656717314 1 0.150697963795704 0.301881790949995 0.396371682921427 0.490861574892859 
2 1 5 
p 0.00804197656717314 1 0 1 
2 2 6 
p 0.00804197656717314 1 0 1 
4 5 7 8 6 
p 0.00804197656717314 1 0.150697963795704 0.301881790949995 0.396371682921427 0.490861574892859 
4 1 3 4 2 
p 0.00804197656717314 1 0.150697963795704 0.301881790949995 0.396371682921427 0.490861574892859 
2 1 5 
p 0.00804197656717314 1 0 1 
2 2 6 
p 0.00804197656717314 1 0 1 
4 5 7 8 6 
p 0.00804197656717314 1 0.150697963795704 0.301881790949995 0.396371682921427 0.490861574892859 
Surfaces 2
1 44.580746571032137 19.296892589864328 13.795307833421155 0.99907971456785494 8.5781333251933045e-10 0.042892003205885681 0.0022523634079824532 -0.99862027145739829 -0.052464085748543929 0.04283282383980877 0.052512412193234735 -0.99770125577126345 
9 0 0 0 0 1 3 2 4 2 2 44.540252103283883 18.746558014791248 14.738541973300388  44.567999706176096 18.780572228533803 14.092219462467328  44.59574633269979 18.814590622855913 13.445919694102194  44.62349282393459 18.848608895381489 12.799623077009322  
45.539331817851739 18.746558015649075 14.781433976506291  45.567079420743944 18.780572229391627 14.135111465673235  45.594826047267631 18.814590623713752 13.488811697308099  45.622572538502439 18.848608896239313 12.842515080215232  

0 2
1 2

0.15069796379570397 4
0.49086157489285914 4

Triangulations 2
9 8 1 0.00804197656717314
44.538 19.7451786052112 14.791 44.6212403626421 19.8472290468908 12.8520894427723 44.5749960530369 19.7905326881369 13.9292541409941 44.5981182660681 19.8188805857233 13.3906704355689 44.5402521032847 18.7465580148649 14.7385419732813 44.6234928239355 18.848608895442 12.7996230769877 44.577248402391 18.7919123994498 13.8767903826006 44.6003706985614 18.8202603989647 13.3382047406219 44.5807462836101 19.2968928353726 13.7953145283169 -0.500001862355223 -0.971693701285744 -0.500000844847563 0.971684131135866 -0.499999331761761 -0.107962477880135 -0.499999735613976 0.431862167520966 0.499998137626338 -0.971699774274832 0.499999155149826 0.971686416425388 0.500000668238194 -0.107962805989456 0.500000264384813 0.431863780427162 -5.97058514628657e-07 -6.67892472172582e-06 3 1 9 2 4 6 3 9 4 5 7 9 8 6 4 8 9 7 8 4 9 5 9 1 
8 6 1 0.00804197656717314
44.5402521032847 18.7465580148649 14.7385419732813 44.6234928239355 18.848608895442 12.7996230769877 44.577248402391 18.7919123994498 13.8767903826006 44.6003706985615 18.8202603989647 13.3382047406219 45.5393318178525 18.7465580157228 14.7814339764872 45.6225725385034 18.8486088962999 12.8425150801936 45.5763281169589 18.7919124003076 13.9196823858066 45.5994504131293 18.8202603998225 13.3810967438278 0 0.150697963795704 0 0.490861574892859 0 0.301881790949995 0 0.396371682921427 1 0.150697963795704 1 0.490861574892859 1 0.301881790949995 1 0.396371682921427 3 1 5 2 4 8 3 7 4 5 7 3 8 6 2 7 8 4 

TShapes 16
Ve
1.00011180821028e-07
44.538 19.7451786052112 14.791
0 0

0101100
*
Ed
 1e-07 1 1 0
1  1 0 0.150697963795704 0.490861574892859
6  1 1 0
0

0101000
+16 3 -16 5 *
Ve
1.00011191998559e-07
44.5402521032847 18.7465580148649 14.7385419732813
0 0

0101100
*
Ed
 1e-07 1 1 0
1  2 0 0 1
6  2 1 8
6  3 1 9
0

0101000
+16 10 -14 10 *
Ed
 1e-07 1 1 0
1  3 0 0.150697963795704 0.490861574892859
6  4 1 0
0

0101000
+14 3 -14 5 *
Wi

0101000
-15 0 +13 7 +12 0 -13 11 *
Fa
0  1e-07 1 0
2  1
0101000
+11 0 *
Sh

0101000
+10 0 *
Ed
 1e-07 1 1 0
1  4 0 0.150697963795704 0.490861574892859
2  1 2 0 0.150697963795704 0.490861574892859
6  5 2 0
0

0101000
+14 14 -14 16 *
Ve
1.00011192837241e-07
45.5393318178525 18.7465580157228 14.7814339764872
0 0

0101100
*
Ed
 1e-07 1 1 0
1  5 0 0 1
2  2 2 18 0 1
2  3 2 19 0 1
6  6 2 18
6  7 2 19
0

0101000
+14 10 -7 10 *
Ed
 1e-07 1 1 0
1  6 0 0.150697963795704 0.490861574892859
2  4 2 0 0.150697963795704 0.490861574892859
6  8 2 0
0

0101000
+7 14 -7 16 *
Wi

0101000
-8 0 +6 17 +5 0 -6 20 *
Fa
0  1e-07 2 0
2  2
0101000
+4 0 *
Sh

0101000
+3 0 *
Co

0100000
+9 0 +2 0 *

+1 0 
0

