DBRep_DrawableShape

CASCADE Topology V1, (c) Matra-Datavision
Locations 0
Curve2ds 8
7 0 0  1 2 2  0 1  1 1 
 0 2 1 2
7 0 0  1 2 2  0 0  0 1 
 0 2 1 2
7 0 0  1 2 2  0 0  1 0 
 0 2 1 2
7 0 0  1 2 2  1 0  1 1 
 0 2 1 2
7 0 0  1 2 2  0 0  0 1 
 0 2 1 2
7 0 0  1 2 2  0 0  1 0 
 0 2 1 2
7 0 0  1 2 2  1 0  1 1 
 0 2 1 2
7 0 0  1 2 2  0 1  1 1 
 0 2 1 2
Curves 7
7 0 0  8 9 2  2823.4899069515118 503.54369945478965 2099.4531087113728  2793.4041508238961 503.54355262522159 2099.3902088119085  2763.3184204262734 503.54340579057504 2099.3150019741679  2733.2327195378684 503.54325895139459 2099.2287358005101  2703.1470543270902 503.54311210623632 2099.1279133768512  2673.061467343241 503.54296525407801 2099.0096448932054  2642.9758706370521 503.54281840263172 2098.8931630696889  2612.8902689564666 503.54267155173773 2098.7780487233399  2582.8046624495892 503.54252470135958 2098.6642098885341 
 0 9 1 9
7 0 0  7 8 2  2901.6570786361872 474.36808668675457 2141.7442572200048  2893.0311985410035 481.45514891600197 2134.7639901664566  2883.5583660507236 487.56917193114083 2127.6820688809098  2873.2385778505231 492.71015593620984 2120.6084190757242  2862.071843097935 496.87810036724522 2113.8169360933916  2850.0581468819842 500.07300614295832 2108.0079907086965  2837.1975046016137 502.2948723142681 2103.0580520031881  2823.4899069515118 503.54369945478965 2099.4531087113728 
 0 8 1 8
7 0 0  8 9 2  2901.6570786361872 474.36808668675457 2141.7442572200048  2871.5713225085647 474.36793985718458 2141.6813573205377  2841.4855921109756 474.36779302254479 2141.6061504828112  2811.3998912224893 474.36764618335138 2141.519884309118  2781.3142260118334 474.36749933821005 2141.4190618855137  2751.2286390278578 474.36735248603679 2141.300793401816  2721.1430423217616 474.36720563459949 2141.1843115783267  2691.0574406411315 474.36705878370196 2141.0691972319723  2660.9718341342646 474.3669119333245 2140.955358397166 
 0 9 1 9
7 0 0  7 8 2  2660.9718341342646 474.3669119333245 2140.955358397166  2652.3459540390845 481.45397416257157 2133.9750913436137  2642.8731215487874 487.5679971777123 2126.8931700580861  2632.5533333486192 492.70898118277677 2119.8195202528577  2621.3865985959951 496.87692561381851 2113.028037270582  2609.3729023800697 500.07183138952627 2107.2190918858405  2596.5122600996897 502.29369756083861 2102.2691531803548  2582.8046624495892 503.54252470135958 2098.6642098885341 
 0 8 1 8
7 0 0  7 8 2  2660.9718341342632 474.3669119333245 2140.955358397166  2626.5882838406919 474.36674410432147 2140.8252568716734  2592.2047271119663 474.36657627600113 2140.6968560282203  2557.8211701421114 474.36640844773029 2140.5685328276845  2523.4376015254493 474.3662406206941 2140.4433363456878  2489.054035200822 474.36607279344645 2140.3175401871322  2454.670462195631 474.36590496692281 2140.1935803859128  2420.2868849153033 474.36573714089263 2140.0708179931758 
 0 8 1 8
7 0 0  7 8 2  2420.2868849153033 474.36573714089263 2140.0708179931758  2411.6610048201223 481.45279937013964 2133.0905509396325  2402.1881723298306 487.56682238527901 2126.0086296540658  2391.8683841296502 492.70780639034911 2118.9349798489152  2380.7016493770379 496.87575082138125 2112.1434968665476  2368.6879531611089 500.07065659709809 2106.3345514818743  2355.827310880728 502.2925227684056 2101.3846127763572  2342.1197132306279 503.54134990892771 2097.7796694845438 
 0 8 1 8
7 0 0  7 8 2  2582.8046624495878 503.54252470135958 2098.6642098885341  2548.4211121560124 503.54235687235695 2098.5341083630447  2514.0375554273078 503.54218904403518 2098.4057075195824  2479.6539984574115 503.54202121576691 2098.2773843190607  2445.2704298407939 503.54185338872765 2098.1521878370486  2410.8868635161361 503.54168556148238 2098.0263916785038  2376.5032905109597 503.54151773495778 2097.9024318772804  2342.1197132306279 503.54134990892771 2097.7796694845438 
 0 8 1 8
Polygon3D 0
PolygonOnTriangulations 0
Surfaces 2
9 0 0 0 0 8 7 9 8 2 2 2901.6570786361872 474.36808668675457 2141.7442572200048  2893.0311985410062 481.45514891599998 2134.763990166452  2883.5583660507305 487.56917193114913 2127.6820688809344  2873.2385778505004 492.71015593619541 2120.6084190756765  2862.0718430979587 496.87810036725915 2113.8169360934371  2850.0581468819728 500.07300614295031 2108.0079907086742  2837.1975046016173 502.29487231427038 2103.0580520031936  2823.4899069515127 503.54369945478965 2099.4531087113733  
2871.5713225085788 474.36793985718634 2141.6813573205382  2862.9454424133978 481.45500208643176 2134.7010902669854  2853.472609923122 487.56902510158091 2127.6191689814677  2843.152821722892 492.71000910662718 2120.5455191762098  2831.9860869703502 496.87795353769093 2113.7540361939705  2819.9723907543644 500.07285931338208 2107.9450908092076  2807.1117484740089 502.29472548470216 2102.9951521037269  2793.4041508239043 503.54355262522142 2099.3902088119066  
2841.4855921109261 474.36779302253962 2141.6061504828085  2832.8597120157451 481.45485525178503 2134.6258834292557  2823.3868795254693 487.56887826693418 2127.5439621437381  2813.0670913252393 492.70986227198046 2120.4703123384802  2801.9003565726975 496.8778067030442 2113.6788293562408  2789.8866603567117 500.07271247873535 2107.869883971478  2777.0260180763562 502.29457865005543 2102.9199452659973  2763.3184204262516 503.5434057905747 2099.315001974177  
2811.3998912225784 474.36764618336036 2141.5198843091271  2802.7740111273974 481.45470841260578 2134.5396172555743  2793.3011786371217 487.56873142775493 2127.4576959700566  2782.9813904368916 492.7097154328012 2120.3840461647987  2771.8146556843499 496.87765986386495 2113.5925631825594  2759.800959468364 500.0725656395561 2107.7836177977965  2746.9403171880085 502.29443181087618 2102.8336790923158  2733.2327195379039 503.54325895139544 2099.2287358004955  
2781.3142260117288 474.36749933819999 2141.4190618854946  2772.6883459165479 481.45456156744541 2134.4387948319418  2763.2155134262721 487.56858458259455 2127.3568735464241  2752.895725226042 492.70956858764083 2120.2832237411662  2741.7289904735003 496.87751301870458 2113.4917407589269  2729.7152942575144 500.07241879439573 2107.682795374164  2716.8546519771589 502.2942849657158 2102.7328566686833  2703.1470543270543 503.54311210623507 2099.127913376863  
2751.2286390279464 474.36735248604413 2141.3007934018351  2742.6027589327655 481.45441471528954 2134.3205263482823  2733.1299264424897 487.56843773043869 2127.2386050627647  2722.8101382422597 492.70942173548497 2120.1649552575068  2711.6434034897179 496.87736616654871 2113.3734722752674  2699.629707273732 500.07227194223987 2107.5645268905046  2686.7690649933766 502.29413811355994 2102.6145881850239  2673.0614673432719 503.54296525407921 2099.0096448932036  
2721.1430423217103 474.36720563459636 2141.1843115783199  2712.5171622265293 481.45426786384178 2134.2040445247671  2703.0443297362535 487.56829087899092 2127.1221232392495  2692.7245415360235 492.7092748840372 2120.0484734339916  2681.5578067834817 496.87721931510094 2113.2569904517522  2669.5441105674959 500.0721250907921 2107.4480450669894  2656.6834682871404 502.29399126211217 2102.4981063615087  2642.9758706370358 503.54281840263144 2098.8931630696884  
2691.057440641147 474.36705878370253 2141.0691972319723  2682.431560545966 481.45412101294795 2134.0889301784196  2672.9587280556902 487.56814402809709 2127.0070088929019  2662.6389398554602 492.70912803314337 2119.933359087644  2651.4722051029185 496.87707246420712 2113.1418761054047  2639.4585088869326 500.07197823989827 2107.3329307206418  2626.5978666065771 502.29384441121834 2102.3829920151611  2612.8902689564725 503.54267155173761 2098.7780487233408  
2660.9718341342646 474.36691193332456 2140.955358397166  2652.3459540390836 481.45397416256998 2133.9750913436133  2642.8731215488078 487.56799717771912 2126.8931700580956  2632.5533333485778 492.7089811827654 2119.8195202528377  2621.386598596036 496.87692561382914 2113.0280372705984  2609.3729023800502 500.0718313895203 2107.2190918858355  2596.5122600996947 502.29369756084037 2102.2691531803548  2582.8046624495901 503.54252470135964 2098.6642098885345  

0 9
1 9

0 8
1 8

9 0 0 0 0 7 7 8 8 2 2 2660.9718341342632 474.3669119333245 2140.955358397166  2652.3459540390822 481.45397416256992 2133.9750913436133  2642.8731215488065 487.56799717771906 2126.8931700580956  2632.5533333485764 492.70898118276534 2119.8195202528377  2621.3865985960347 496.87692561382909 2113.0280372705984  2609.3729023800488 500.07183138952024 2107.2190918858355  2596.5122600996933 502.29369756084031 2102.2691531803548  2582.8046624495887 503.54252470135958 2098.6642098885345  
2626.5882838406833 474.36674410432107 2140.8252568716734  2617.9624037455023 481.45380633356649 2133.8449898181207  2608.4895712552266 487.56782934871563 2126.763068532603  2598.1697830549965 492.70881335376191 2119.6894187273451  2587.0030483024548 496.87675778482566 2112.8979357451058  2574.9893520864689 500.07166356051681 2107.0889903603429  2562.1287098061134 502.29352973183688 2102.1390516548622  2548.4211121560088 503.54235687235615 2098.5341083630419  
2592.2047271120105 474.36657627600539 2140.6968560282357  2583.5788470168295 481.45363850525081 2133.716588974683  2574.1060145265537 487.56766152039995 2126.6346676891653  2563.7862263263237 492.70864552544623 2119.5610178839074  2552.6194915737819 496.87658995650997 2112.7695349016681  2540.6057953577961 500.07149573220113 2106.9605895169052  2527.7451530774406 502.2933619035212 2102.0106508114245  2514.037555427336 503.54218904404047 2098.4057075196042  
2557.821170142031 474.36640844772137 2140.5685328276459  2549.19529004685 481.45347067696679 2133.5882657740931  2539.7224575565742 487.56749369211593 2126.5063444885755  2529.4026693563442 492.70847769716221 2119.4326946833175  2518.2359346038024 496.87642212822595 2112.6412117010782  2506.2222383878166 500.07132790391711 2106.8322663163153  2493.3615961074611 502.29319407523718 2101.8823276108346  2479.6539984573565 503.54202121575645 2098.2773843190143  
2523.4376015255275 474.36624062070268 2140.443336345732  2514.8117214303466 481.4533028499481 2133.4630692921792  2505.3388889400708 487.56732586509725 2126.3811480066615  2495.0191007398407 492.70830987014352 2119.3074982014036  2483.852365987299 496.87625430120727 2112.5160152191643  2471.8386697713131 500.07116007689842 2106.7070698344014  2458.9780274909576 502.2930262482185 2101.7571311289207  2445.270429840853 503.54185338873776 2098.1521878371004  
2489.0540352007797 474.36607279344156 2140.3175401871031  2480.4281551055988 481.45313502268698 2133.3372731335503  2470.955322615323 487.56715803783612 2126.2553518480327  2460.6355344150929 492.7081420428824 2119.1817020427748  2449.4687996625512 496.87608647394615 2112.3902190605354  2437.4551034465653 500.0709922496373 2106.5812736757725  2424.5944611662098 502.29285842095737 2101.6313349702918  2410.8868635161052 503.54168556147664 2098.0263916784716  
2454.6704621956428 474.36590496692435 2140.1935803859233  2446.0445821004619 481.45296719616977 2133.2133133323705  2436.5717496101861 487.56699021131891 2126.1313920468529  2426.251961409956 492.70797421636519 2119.057742241595  2415.0852266574143 496.87591864742893 2112.2662592593556  2403.0715304414284 500.07082442312009 2106.4573138745927  2390.2108881610729 502.29269059444016 2101.507375169112  2376.5032905109683 503.54151773495943 2097.9024318772917  
2420.2868849153042 474.36573714089263 2140.0708179931758  2411.6610048201233 481.45279937013805 2133.090550939623  2402.1881723298475 487.5668223852872 2126.0086296541053  2391.8683841296174 492.70780639033347 2118.9349798488474  2380.7016493770757 496.87575082139722 2112.1434968666081  2368.6879531610898 500.07065659708837 2106.3345514818452  2355.8273108807343 502.29252276840845 2101.3846127763645  2342.1197132306297 503.54134990892771 2097.7796694845442  

0 8
1 8

0 8
1 8

Triangulations 0

TShapes 18
Ve
0.001
2823.48990695151 503.54369945479 2099.45310871137
0 0

0101100
*
Ve
0.001
2582.80466244959 503.54252470136 2098.66420988853
0 0

0101100
*
Ed
 0.001 1 1 0
1  1 0 0 1
2  1 1 0 0 1
0

0101000
+18 0 -17 0 *
Ve
0.001
2901.65707863619 474.368086686755 2141.74425722
0 0

0101100
*
Ed
 0.001 1 1 0
1  2 0 0 1
2  2 1 0 0 1
0

0101000
+15 0 -18 0 *
Ve
0.001
2660.97183413426 474.366911933325 2140.95535839717
0 0

0101100
*
Ed
 0.001 1 1 0
1  3 0 0 1
2  3 1 0 0 1
0

0101000
+15 0 -13 0 *
Ed
 0.001 1 1 0
1  4 0 0 1
2  4 1 0 0 1
2  5 2 0 0 1
4 G1 1 0 2 0
0

0101000
+13 0 -17 0 *
Wi

0101000
-16 0 -14 0 +12 0 +11 0 *
Fa
0  0.001 1 0

0101000
+10 0 *
Ve
0.001
2420.2868849153 474.365737140893 2140.07081799318
0 0

0101100
*
Ed
 0.001 1 1 0
1  5 0 0 1
2  6 2 0 0 1
0

0101000
+13 0 -8 0 *
Ve
0.001
2342.11971323063 503.541349908928 2097.77966948454
0 0

0101100
*
Ed
 0.001 1 1 0
1  6 0 0 1
2  7 2 0 0 1
0

0101000
+8 0 -6 0 *
Ed
 0.001 1 1 0
1  7 0 0 1
2  8 2 0 0 1
0

0101000
+17 0 -6 0 *
Wi

0101000
+7 0 +5 0 -4 0 -11 0 *
Fa
0  0.001 2 0

0111000
+3 0 *
Sh

1101000
+9 0 +2 0 *

+1 0 
0

