DBRep_DrawableShape

CASCADE Topology V1, (c) Matra-Datavision
Locations 4
1
              1               0               0               0 
              0               1               0               0 
              0               0               1               3 
2  1 -1 0
1
              1               0               0               0 
              0               1               0               0 
              0               0               1               2 
2  3 -1 0
Curve2ds 6
1 0 0 1 0 
1 0 1 1 0 
1 0 0 1 0 
1 0 1 1 0 
1 1 0 0 1 
1 0 0 0 1 
Curves 3
7 0 0  5 6 2  0.40219828486442566 3.6762535572052002 0.1465659886598587  1.1781669855117798 4.2133326530456543 0.21682344377040863  2.1624290943145752 4.3754673004150391 0.29157692193984985  3.4143800735473633 4.2085022926330566 0.37941437959671021  3.943528413772583 3.4901025295257568 0.39687895774841309  4.2265439033508301 2.5877547264099121 0.39287400245666504 
 0 6 1 6
7 0 0  1 2 2  4.2265439033508301 2.5877547264099121 0.39287400245666504  4.2265439033508301 2.5877547264099121 2.392874002456665 
 0 2 1 2
7 0 0  1 2 2  0.40219828486442566 3.6762535572052002 0.1465659886598587  0.40219828486442566 3.6762535572052002 2.1465659886598587 
 0 2 1 2
Polygon3D 0
PolygonOnTriangulations 0
Surfaces 2
9 0 0 0 0 5 1 6 2 2 2 0.40219828486442566 3.6762535572052002 0.1465659886598587  0.40219828486442566 3.6762535572052002 2.1465659886598587  
1.1781669855117798 4.2133326530456543 0.21682344377040863  1.1781669855117798 4.2133326530456543 2.2168234437704086  
2.1624290943145752 4.3754673004150391 0.29157692193984985  2.1624290943145752 4.3754673004150391 2.2915769219398499  
3.4143800735473633 4.2085022926330566 0.37941437959671021  3.4143800735473633 4.2085022926330566 2.3794143795967102  
3.943528413772583 3.4901025295257568 0.39687895774841309  3.943528413772583 3.4901025295257568 2.3968789577484131  
4.2265439033508301 2.5877547264099121 0.39287400245666504  4.2265439033508301 2.5877547264099121 2.392874002456665  

0 6
1 6

0 2
1 2

9 0 0 0 0 5 1 6 2 2 2 0.40219828486442566 3.6762535572052002 0.1465659886598587  0.40219828486442566 3.6762535572052002 3.1465659886598587  
1.1781669855117798 4.2133326530456543 0.21682344377040863  1.1781669855117798 4.2133326530456543 3.2168234437704086  
2.1624290943145752 4.3754673004150391 0.29157692193984985  2.1624290943145752 4.3754673004150391 3.2915769219398499  
3.4143800735473633 4.2085022926330566 0.37941437959671021  3.4143800735473633 4.2085022926330566 3.3794143795967102  
3.943528413772583 3.4901025295257568 0.39687895774841309  3.943528413772583 3.4901025295257568 3.3968789577484131  
4.2265439033508301 2.5877547264099121 0.39287400245666504  4.2265439033508301 2.5877547264099121 3.392874002456665  

0 6
1 6

0 2
1 2

Triangulations 0

TShapes 8
Ve
1e-07
0.402198284864426 3.6762535572052 0.146565988659859
0 0

0101100
*
Ve
1e-07
4.22654390335083 2.58775472640991 0.392874002456665
0 0

0101100
*
Ed
 1e-07 1 1 0
1  1 0 0 1
2  1 2 0 0 1
2  2 2 2 0 1
2  3 1 0 0 1
2  4 1 4 0 1
0

0101000
+8 0 -7 0 *
Ed
 1e-07 1 1 0
1  2 0 0 1
2  5 1 0 0 1
0

0101000
+7 0 -7 3 *
Ed
 1e-07 1 1 0
1  3 0 0 1
2  6 1 0 0 1
0

0101000
+8 0 -8 3 *
Wi

0101000
+6 0 +5 0 -6 3 -4 0 *
Fa
0  1e-07 1 0

0111000
+3 0 *
Sh

1101000
+2 0 *

+1 0 
