DBRep_DrawableShape

CASCADE Topology V1, (c) Matra-Datavision
Locations 65
1
              1               0               0               0 
              0              -1               0               0 
              0               0              -1               0 
1
-0.991225940738562 -0.132178418839665               0               0 
0.132178418839665 -0.991225940738562               0               0 
              0               0               1               0 
1
              1               0               0               0 
              0               1               0 27.7041429602399 
              0               0               1               0 
2  1 1 2 1 3 1 0
1
              1               0               0               0 
              0               1               0               0 
              0               0               1              10 
2  1 1 2 1 3 1 5 1 0
2  2 1 3 1 0
2  2 1 3 1 5 1 0
1
              1               0               0               0 
              0               1               0 27.7041429602399 
              0               0               1               0 
1
-0.991225940738562 -0.132178418839665               0               0 
0.132178418839665 -0.991225940738562               0               0 
              0               0               1               0 
2  9 -1 10 -1 1 -1 0
1
              1               0               0               0 
              0               1               0               0 
              0               0               1              10 
2  12 -1 9 -1 10 -1 1 -1 0
2  3 -1 2 -1 1 -1 0
2  5 -1 3 -1 2 -1 1 -1 0
2  1 -1 0
1
0.704714098679909 -0.709491394677739               0    -5.070509668 
0.709491394677739 0.704714098679909               0    22.882445348 
              0               0               1               0 
2  17 1 2 1 3 1 0
2  9 -1 10 -1 17 -1 0
2  12 -1 9 -1 10 -1 17 -1 0
1
              1               0               0               0 
              0               1               0 -27.7041429602399 
              0               0               1               0 
1
0.991225940814457 0.132178418270511               0               0 
-0.132178418270511 0.991225940814457               0               0 
              0               0               1               0 
2  21 -1 22 -1 17 -1 0
1
              1               0               0               0 
              0               1               0               0 
              0               0               1              10 
2  24 -1 21 -1 22 -1 17 -1 0
2  3 -1 2 -1 17 -1 0
2  5 -1 3 -1 2 -1 17 -1 0
1
              1               0               0               0 
              0               1               0 -27.7041429602399 
              0               0               1               0 
1
0.991225940814457 0.132178418270511               0               0 
-0.132178418270511 0.991225940814457               0               0 
              0               0               1               0 
2  28 -1 29 -1 17 -1 0
1
              1               0               0               0 
              0               1               0               0 
              0               0               1              10 
2  31 -1 28 -1 29 -1 17 -1 0
2  17 -1 0
2  17 1 2 1 3 1 5 1 0
2  5 -1 0
2  29 1 28 1 0
2  29 1 28 1 5 1 0
1
              1               0               0    -4.788188404 
              0               1               0    31.991368991 
              0               0               1               0 
2  38 1 29 1 28 1 0
2  28 -1 29 -1 38 -1 0
2  5 -1 28 -1 29 -1 38 -1 0
2  38 -1 0
2  38 1 29 1 28 1 5 1 0
1
              1               0               0               0 
              0              -1               0               0 
              0               0              -1               0 
2  44 1 29 1 28 1 0
2  44 1 29 1 28 1 5 1 0
2  21 -1 22 -1 44 -1 0
2  12 -1 21 -1 22 -1 44 -1 0
2  28 -1 29 -1 44 -1 0
2  5 -1 28 -1 29 -1 44 -1 0
2  44 -1 0
1
0.991225940814457 0.132178418270511               0               0 
-0.132178418270511 0.991225940814457               0               0 
              0               0               1               0 
1
              1               0               0               0 
              0               1               0 -27.7041429602399 
              0               0               1               0 
2  52 1 53 1 0
2  52 1 53 1 5 1 0
2  53 -1 52 -1 0
2  5 -1 53 -1 52 -1 0
2  44 1 29 1 28 1 53 -1 52 -1 0
1
-0.924516054989555 0.381143101822071               0               0 
-0.381143101822071 -0.924516054989555               0               0 
              0               0               1               0 
1
              1               0               0               0 
              0               1               0 27.7041429602399 
              0               0               1               0 
2  59 1 60 1 0
2  59 1 60 1 5 1 0
2  60 -1 59 -1 0
2  5 -1 60 -1 59 -1 0
2  1 1 2 1 3 1 60 -1 59 -1 0
Curve2ds 54
1 4.4505895926001 0 0 -1 
1 1.83259571459405 0 0 -1 
1 4.49432306290216 0 0 -1 
1 4.14167872646371 0 0 -1 
1 0 0 1 0 
1 0 -10 1 0 
1 0 0 1 0 
1 0 -10 1 0 
1 6.28318530717959 0 0 -1 
1 5.37007187118467 0 0 -1 
1 0 0 1 0 
1 0 -10 1 0 
1 0 0 1 0 
1 0 -10 1 0 
1 0 0 1 0 
1 0 -10 1 0 
1 0 0 1 0 
1 0 -10 1 0 
1 6.54035769314378 0 0 -1 
1 0 0 1 0 
1 0 -10 1 0 
1 0.257172388705393 0 0 -1 
1 0.459977183566021 0 0 -1 
1 5.0455809032801 0 0 -1 
1 0 0 1 0 
1 0 -10 1 0 
1 6.35872883493651 0 0 -1 
1 4.69778659583901 0 0 -1 
1 0 0 1 0 
1 0 -10 1 0 
1 4.71238898038469 0 0 -1 
1 1.5707963267949 0 0 -1 
1 0 0 1 0 
1 0 -10 1 0 
1 0 0 1 0 
1 0 -10 1 0 
1 1.58539871135018 0 0 -1 
1 1 0 0 -1 
1 0 0 1 0 
1 0 -10 1 0 
1 0.863293231826761 0 0 -1 
1 0.121579023363812 0 0 -1 
1 0 0 1 0 
1 0 -10 1 0 
1 0 0 0 -1 
1 0 0 0 -1 
1 0 0 1 0 
1 0 -10 1 0 
1 1.57616829945369 0 0 -1 
1 1.81634030726087 0 0 -1 
1 0 0 1 0 
1 0 -10 1 0 
1 0 0 1 0 
1 0 -10 1 0 
Curves 24
1 2.89160136510819 5.45374943454656 0 0 0 1 
1 1.9160597801755 5.34860482285874 0 0 0 1 
2 0 0 0 0 0 1 1 0 0 0 1 0 22.4374992034114
1 1.20914484827683 3.74213925455175 0 0 0 1 
2 0 0 0 0 0 1 1 0 0 0 1 0 1.00000009617976
1 -0.503248950924139 0.290550917287381 0 0 0 1 
2 2.95774787684424 0.724057938694525 0 0 0 1 -0.991225940738562 0.132178418839665 0 -0.132178418839665 -0.991225940738562 0 3.48804062181507
1 0.503248933995148 -0.290550907511134 0 0 0 1 
1 -0.503248950924139 0.29055091728738 0 0.866025403783852 -0.500000000001016 0 
1 0.345001650855572 0.397669672332285 0 0 0 1 
2 -2.95774789233598 -0.724057940392839 0 0 0 1 0.991225940814457 -0.132178418270511 0 0.132178418270511 0.991225940814457 0 3.48804062181507
1 3.80393604306719 4.39273290995205 0 0 0 1 
2 0 0 0 0 0 1 1 0 0 0 1 0 4.32857955264991
1 4.27220476204963 4.33376640517589 0 0 0 1 
2 0 0 0 0 0 1 1 0 0 0 1 0 32.3215001205962
1 4.73956253700245 4.26796859003303 0 0 0 1 
2 0 0 0 0 0 -1 -1 0 0 0 1 0 32.3215001202798
1 5.43969575627602 3.14060980919564 0 0 0 1 
7 0 0  8 81 14  7.44583464499283 -4.89626714265263 0  7.46764837903146 -4.82445028588535 0  7.48254733537169 -4.75164476958022 0  7.49772478904522 -4.67910865622291 0  7.50923018066948 -4.60624599577134 0  7.52018100086157 -4.53350991243855 0  7.52934207403269 -4.46071775414186 0  7.54686655569465 -4.30137283207341 0  7.55882420236225 -4.14214401155087 0  7.56388176933319 -4.05567764350636 0  7.56755512570204 -3.96926120038089 0  7.56999443402963 -3.88291676649624 0  7.57122504218618 -3.79663337795519 0  7.57143895968675 -3.62154358780338 0  7.56718860338426 -3.44662384760872 0  7.56393678556692 -3.35787680136274 0  7.55963330642378 -3.26919804245398 0  7.55432213484119 -3.18058951020048 0  7.54803390812529 -3.09205253215582 0  7.53432072003853 -2.92433195625909 0  7.51730579130066 -2.75686462724925 0  7.50854812811149 -2.67778921646811 0  7.49909060821504 -2.59877791242138 0  7.48894998879906 -2.5198342314823 0  7.47814096583279 -2.44096140770107 0  7.45329590707153 -2.27017494366356 0  7.42543398544491 -2.09972338358571 0  7.40957275537419 -2.0080194953228 0  7.3928758130963 -1.91642329075389 0  7.37536056732509 -1.82493894596983 0  7.35704315866411 -1.73357050080372 0  7.31842318368133 -1.54910941883006 0  7.27664526198223 -1.36515330514052 0  7.25474288302388 -1.27232979015056 0  7.23206393929207 -1.17964495529424 0  7.20862215316667 -1.08710373489496 0  7.18443058749777 -0.994711019944155 0  7.13725852485295 -0.820169385265746 0  7.08748864902758 -0.646191366367741 0  7.06345148371264 -0.564283979862733 0  7.03885355191007 -0.482509180056347 0  7.01370284922637 -0.400870546771003 0  6.98800714175119 -0.319371653795123 0  6.93119678312559 -0.143188443237094 0  6.87190059699033 0.0323059706305777 0  6.83927695809848 0.126557807824955 0  6.80595620374374 0.22059899588637 0  6.77194943573302 0.314423892332385 0  6.73726753958581 0.408026825419682 0  6.66580081036534 0.596822306933156 0  6.59166087049506 0.784664079912268 0  6.55351767471782 0.879352822671894 0  6.51471374790859 0.973786286440667 0  6.47525993654289 1.0679585834023 0  6.43516698128787 1.16186380044189 0  6.35804742257573 1.33918744934153 0  6.27871173635035 1.51551062825587 0  6.24078153775311 1.59850288187247 0  6.20237268165527 1.68126399301006 0  6.16349261516126 1.76378980989681 0  6.12414876381509 1.84607618101036 0  6.03781871598631 2.02403389722219 0  5.94937630224946 2.20082607304214 0  5.90110596367866 2.29576802546037 0  5.85224523581671 2.3903589829687 0  5.80280572728296 2.48459273963247 0  5.75279905825591 2.57846309954529 0  5.65034036636285 2.7679321255161 0  5.5456485395782 2.95585829580638 0  5.49206039275935 3.05064301891979 0  5.43792412517441 3.14501949378281 0  5.3832521836347 3.23898154057017 0  5.32805706131139 3.33252300919293 0  5.21503865563683 3.52143856529397 0  5.09997029256258 3.70857276402689 0  5.04110467922789 3.80300546042862 0  4.98173948523422 3.89696681229008 0  4.92188862268067 3.99045026685465 0  4.86156609392535 4.08344932757119 0  4.80078599815204 4.17595755877583 0  4.73956253700245 4.26796859003302 0 
 0 9 0.0596240743151366 6 0.130569381956398 6 0.203741705980993 6 0.269296494375549 6 0.345822814798837 6 0.423996121035112 6 0.493747470793058 6 0.575049268216174 6 0.658131554250624 6 0.732393140514169 6 0.819211205842157 6 0.908320374368913 6 1 9
1 4.95565594037232 4.22902577050663 0 0 0 1 
7 0 0  8 81 14  4.95565594037232 4.22902577050663 0  4.97267312088513 4.15592368109713 0  4.9961730043167 4.08542277625764 0  5.01929700050888 4.01501593254838 0  5.04576436926804 3.94616232178268 0  5.0726487224165 3.87769561573322 0  5.1011110794339 3.81007522085008 0  5.16560689407643 3.66331622950674 0  5.23486567847148 3.51944120254602 0  5.27371888097111 3.44203034773872 0  5.31374588255724 3.36535483447996 0  5.35480559647657 3.2893587070731 0  5.39688155277816 3.21401979656951 0  5.48424118977713 3.06228063155431 0  5.57538197632179 2.91292087102127 0  5.62257165623988 2.83768958334299 0  5.67063795791401 2.76304326489591 0  5.71954183351261 2.68896161073553 0  5.76925608657344 2.61543045190396 0  5.86499234369235 2.47703676642844 0  5.96346136864946 2.34051326951439 0  6.01058343280283 2.27641078653076 0  6.05827953727675 2.21271374996099 0  6.10653341173428 2.14941682647978 0  6.15533071206767 2.08651546887214 0  6.2622403960544 1.95103258171238 0  6.37159530794346 1.81734816132079 0  6.43118348021038 1.74586087946044 0  6.49144155863225 1.67488471051788 0  6.55235237877522 1.60441456673694 0  6.61389994255001 1.53444587641396 0  6.73957636288481 1.39400788083443 0  6.86773516115884 1.25558617397379 0  6.93311493519519 1.18614984136555 0  6.99909789398652 1.11722189166244 0  7.06566968644155 1.04879973692392 0  7.13281655430454 0.980881081447798 0  7.26093957616982 0.853309623047082 0  7.39103056235457 0.727525176819302 0  7.45280105137095 0.668609881970383 0  7.51499088506212 0.610089793814236 0  7.57759134911853 0.551964014764796 0  7.64059393101504 0.494231756768784 0  7.77788474999063 0.3700577999392 0  7.91698396039489 0.247723272295296 0  7.99236277899881 0.182410606334258 0  8.06823999273678 0.117628925604802 0  8.14460316592078 0.0533775657366178 0  8.22144003554274 -0.0103440041562308 0  8.37772977925643 -0.138112322746117 0  8.53585773703657 -0.263718100193596 0  8.61623508490487 -0.326649359033368 0  8.69705700313682 -0.38902917426628 0  8.77831115450095 -0.450857870131589 0  8.8599852807492 -0.512135696055154 0  9.01543460210634 -0.627142701427179 0  9.17230291119646 -0.740175210620418 0  9.24664755353018 -0.793083511313778 0  9.32129115417987 -0.8455523079983 0  9.39622518787802 -0.897581728686301 0  9.47144114815367 -0.949171890825976 0  9.63518402072553 -1.06012277004451 0  9.80017348564111 -1.16900807872123 0  9.88944780126846 -1.22709505216617 0  9.97905791156546 -1.28458286045715 0  10.0689906602055 -1.34147193340679 0  10.1592328858657 -1.39776271529197 0  10.3426992288042 -1.5106183591718 0  10.52732809545 -1.62102128339278 0  10.6211291534619 -1.67631318814411 0  10.7152007738566 -1.73097747915665 0  10.8095290874669 -1.7850150279504 0  10.9041001998446 -1.83842675497766 0  11.096434788243 -1.94552322300438 0  11.2896540131436 -2.05005201159776 0  11.3878494778716 -2.10240031901856 0  11.4862419198718 -2.15409063976417 0  11.5848160145345 -2.20512425503044 0  11.6835563871865 -2.25550253981809 0  11.7824476097444 -2.3052269702706 0  11.881474198008 -2.3542991302498 0 
 0 9 0.0596240743151366 6 0.130569381956398 6 0.203741705980993 6 0.269296494375549 6 0.345822814798837 6 0.423996121035112 6 0.493747470793058 6 0.575049268216174 6 0.658131554250624 6 0.732393140514169 6 0.819211205842157 6 0.908320374368913 6 1 9
1 3.25289261941948 5.50369116057464 0 0 0 1 
2 5.81882375554404 23.2194997003577 0 0 0 1 -0.968685393195252 0.248291379250588 0 -0.248291379250588 -0.968685393195252 0 1.50000016960944
2 0 0 0 0 0 -1 -1 0 0 0 1 0 22.4374992034035
Polygon3D 0
PolygonOnTriangulations 0
Surfaces 18
2 0 27.7041429602399 0 0 0 -1 -0.991225940738562 0.132178418839665 0 0.132178418839665 0.991225940738562 0 22.4374992034114
2 0 27.7041429602399 0 0 0 -1 0.924516054989555 0.381143101822071 0 0.381143101822071 -0.924516054989555 0 22.4374992034035
2 2.00145527040358 4.35225759314237 0 0 0 -1 -0.792310346144573 -0.610118279837826 0 0.610118279837826 -0.792310346144573 0 1.00000009617976
2 0 27.7041429602399 0 0 0 -1 -0.991225940738562 0.132178418839665 0 0.132178418839665 0.991225940738562 0 22.4374992034114
2 2.95774787684424 0.724057938694525 0 0 0 -1 -0.991225940738562 0.132178418839665 0 -0.132178418839665 -0.991225940738562 0 3.48804062181507
2 2.00145527040358 4.35225759314237 0 0 0 -1 -0.792310346144573 -0.610118279837826 0 0.610118279837826 -0.792310346144573 0 1.00000009617976
2 -2.00145528381205 -4.35225759429159 0 0 0 -1 0.792310345794248 0.610118280292764 0 -0.610118280292764 0.792310345794248 0 1.00000009617976
2 -2.00145528381205 -4.35225759429159 0 0 0 -1 0.792310345794248 0.610118280292764 0 -0.610118280292764 0.792310345794248 0 1.00000009617976
1 -0.503248950924139 0.29055091728738 0 0.500000000001016 0.866025403783852 0 0.866025403783852 -0.500000000001016 0 0 0 -1 
2 -2.95774789233598 -0.724057940392839 0 0 0 -1 0.991225940814457 -0.132178418270511 0 0.132178418270511 0.991225940814457 0 3.48804062181507
2 -0.517608004013119 4.63942703542849 0 0 0 -1 0.991225940814457 -0.132178418270511 0 0.132178418270511 0.991225940814457 0 4.32857955264991
2 0 -27.7041429602399 0 0 0 -1 0.991225940814457 -0.132178418270511 0 -0.132178418270511 -0.991225940814457 0 32.3215001205962
2 0 -27.7041429602399 0 0 0 -1 -0.991225940814457 0.132178418270511 0 0.132178418270511 0.991225940814457 0 32.3215001202798
2 0 -27.7041429602399 0 0 0 -1 0.991225940814457 -0.132178418270511 0 -0.132178418270511 -0.991225940814457 0 32.3215001205962
6 0 0 -1 
7 0 0  8 81 14  7.44583464499283 -4.89626714265263 0  7.46764837903146 -4.82445028588535 0  7.48254733537169 -4.75164476958022 0  7.49772478904522 -4.67910865622291 0  7.50923018066948 -4.60624599577134 0  7.52018100086157 -4.53350991243855 0  7.52934207403269 -4.46071775414186 0  7.54686655569465 -4.30137283207341 0  7.55882420236225 -4.14214401155087 0  7.56388176933319 -4.05567764350636 0  7.56755512570204 -3.96926120038089 0  7.56999443402963 -3.88291676649624 0  7.57122504218618 -3.79663337795519 0  7.57143895968675 -3.62154358780338 0  7.56718860338426 -3.44662384760872 0  7.56393678556692 -3.35787680136274 0  7.55963330642378 -3.26919804245398 0  7.55432213484119 -3.18058951020048 0  7.54803390812529 -3.09205253215582 0  7.53432072003853 -2.92433195625909 0  7.51730579130066 -2.75686462724925 0  7.50854812811149 -2.67778921646811 0  7.49909060821504 -2.59877791242138 0  7.48894998879906 -2.5198342314823 0  7.47814096583279 -2.44096140770107 0  7.45329590707153 -2.27017494366356 0  7.42543398544491 -2.09972338358571 0  7.40957275537419 -2.0080194953228 0  7.3928758130963 -1.91642329075389 0  7.37536056732509 -1.82493894596983 0  7.35704315866411 -1.73357050080372 0  7.31842318368133 -1.54910941883006 0  7.27664526198223 -1.36515330514052 0  7.25474288302388 -1.27232979015056 0  7.23206393929207 -1.17964495529424 0  7.20862215316667 -1.08710373489496 0  7.18443058749777 -0.994711019944155 0  7.13725852485295 -0.820169385265746 0  7.08748864902758 -0.646191366367741 0  7.06345148371264 -0.564283979862733 0  7.03885355191007 -0.482509180056347 0  7.01370284922637 -0.400870546771003 0  6.98800714175119 -0.319371653795123 0  6.93119678312559 -0.143188443237094 0  6.87190059699033 0.0323059706305777 0  6.83927695809848 0.126557807824955 0  6.80595620374374 0.22059899588637 0  6.77194943573302 0.314423892332385 0  6.73726753958581 0.408026825419682 0  6.66580081036534 0.596822306933156 0  6.59166087049506 0.784664079912268 0  6.55351767471782 0.879352822671894 0  6.51471374790859 0.973786286440667 0  6.47525993654289 1.0679585834023 0  6.43516698128787 1.16186380044189 0  6.35804742257573 1.33918744934153 0  6.27871173635035 1.51551062825587 0  6.24078153775311 1.59850288187247 0  6.20237268165527 1.68126399301006 0  6.16349261516126 1.76378980989681 0  6.12414876381509 1.84607618101036 0  6.03781871598631 2.02403389722219 0  5.94937630224946 2.20082607304214 0  5.90110596367866 2.29576802546037 0  5.85224523581671 2.3903589829687 0  5.80280572728296 2.48459273963247 0  5.75279905825591 2.57846309954529 0  5.65034036636285 2.7679321255161 0  5.5456485395782 2.95585829580638 0  5.49206039275935 3.05064301891979 0  5.43792412517441 3.14501949378281 0  5.3832521836347 3.23898154057017 0  5.32805706131139 3.33252300919293 0  5.21503865563683 3.52143856529397 0  5.09997029256258 3.70857276402689 0  5.04110467922789 3.80300546042862 0  4.98173948523422 3.89696681229008 0  4.92188862268067 3.99045026685465 0  4.86156609392535 4.08344932757119 0  4.80078599815204 4.17595755877583 0  4.73956253700245 4.26796859003302 0 
 0 9 0.0596240743151366 6 0.130569381956398 6 0.203741705980993 6 0.269296494375549 6 0.345822814798837 6 0.423996121035112 6 0.493747470793058 6 0.575049268216174 6 0.658131554250624 6 0.732393140514169 6 0.819211205842157 6 0.908320374368913 6 1 9
6 0 0 -1 
7 0 0  8 81 14  4.95565594037232 4.22902577050663 0  4.97267312088513 4.15592368109713 0  4.9961730043167 4.08542277625764 0  5.01929700050888 4.01501593254838 0  5.04576436926804 3.94616232178268 0  5.0726487224165 3.87769561573322 0  5.1011110794339 3.81007522085008 0  5.16560689407643 3.66331622950674 0  5.23486567847148 3.51944120254602 0  5.27371888097111 3.44203034773872 0  5.31374588255724 3.36535483447996 0  5.35480559647657 3.2893587070731 0  5.39688155277816 3.21401979656951 0  5.48424118977713 3.06228063155431 0  5.57538197632179 2.91292087102127 0  5.62257165623988 2.83768958334299 0  5.67063795791401 2.76304326489591 0  5.71954183351261 2.68896161073553 0  5.76925608657344 2.61543045190396 0  5.86499234369235 2.47703676642844 0  5.96346136864946 2.34051326951439 0  6.01058343280283 2.27641078653076 0  6.05827953727675 2.21271374996099 0  6.10653341173428 2.14941682647978 0  6.15533071206767 2.08651546887214 0  6.2622403960544 1.95103258171238 0  6.37159530794346 1.81734816132079 0  6.43118348021038 1.74586087946044 0  6.49144155863225 1.67488471051788 0  6.55235237877522 1.60441456673694 0  6.61389994255001 1.53444587641396 0  6.73957636288481 1.39400788083443 0  6.86773516115884 1.25558617397379 0  6.93311493519519 1.18614984136555 0  6.99909789398652 1.11722189166244 0  7.06566968644155 1.04879973692392 0  7.13281655430454 0.980881081447798 0  7.26093957616982 0.853309623047082 0  7.39103056235457 0.727525176819302 0  7.45280105137095 0.668609881970383 0  7.51499088506212 0.610089793814236 0  7.57759134911853 0.551964014764796 0  7.64059393101504 0.494231756768784 0  7.77788474999063 0.3700577999392 0  7.91698396039489 0.247723272295296 0  7.99236277899881 0.182410606334258 0  8.06823999273678 0.117628925604802 0  8.14460316592078 0.0533775657366178 0  8.22144003554274 -0.0103440041562308 0  8.37772977925643 -0.138112322746117 0  8.53585773703657 -0.263718100193596 0  8.61623508490487 -0.326649359033368 0  8.69705700313682 -0.38902917426628 0  8.77831115450095 -0.450857870131589 0  8.8599852807492 -0.512135696055154 0  9.01543460210634 -0.627142701427179 0  9.17230291119646 -0.740175210620418 0  9.24664755353018 -0.793083511313778 0  9.32129115417987 -0.8455523079983 0  9.39622518787802 -0.897581728686301 0  9.47144114815367 -0.949171890825976 0  9.63518402072553 -1.06012277004451 0  9.80017348564111 -1.16900807872123 0  9.88944780126846 -1.22709505216617 0  9.97905791156546 -1.28458286045715 0  10.0689906602055 -1.34147193340679 0  10.1592328858657 -1.39776271529197 0  10.3426992288042 -1.5106183591718 0  10.52732809545 -1.62102128339278 0  10.6211291534619 -1.67631318814411 0  10.7152007738566 -1.73097747915665 0  10.8095290874669 -1.7850150279504 0  10.9041001998446 -1.83842675497766 0  11.096434788243 -1.94552322300438 0  11.2896540131436 -2.05005201159776 0  11.3878494778716 -2.10240031901856 0  11.4862419198718 -2.15409063976417 0  11.5848160145345 -2.20512425503044 0  11.6835563871865 -2.25550253981809 0  11.7824476097444 -2.3052269702706 0  11.881474198008 -2.3542991302498 0 
 0 9 0.0596240743151366 6 0.130569381956398 6 0.203741705980993 6 0.269296494375549 6 0.345822814798837 6 0.423996121035112 6 0.493747470793058 6 0.575049268216174 6 0.658131554250624 6 0.732393140514169 6 0.819211205842157 6 0.908320374368913 6 1 9
2 3.4703561553959 4.01953816329 0 0 0 -1 0.99019974468613 0.139658389019502 0 -0.139658389019502 0.99019974468613 0 1.50000016960944
1 0 27.7041429602399 0 0 0 -1 -0.991225940738562 0.132178418839665 0 0.132178418839665 0.991225940738562 0 
Triangulations 0

TShapes 64
Ve
1.00163365111651e-007
-5.80725211815673 -21.6729599579539 0
0 0

0101100
*
Ed
 1.00163365111651e-007 1 1 0
1  1 0 0 10
2  1 1 0 0 10
2  2 2 0 0 10
4 C2 1 0 2 0
0

0101000
+64 4 -64 6 *
Ve
1.00519731169666e-007
-4.85416784142465 21.9061275687965 0
0 0

0101100
*
Ed
 1.00519731169666e-007 1 1 0
1  2 0 0 10
2  3 1 0 0 10
2  4 3 0 0 10
4 G1 1 0 3 0
0

0101000
+62 7 -62 8 *
Ed
 1e-007 1 1 0
1  3 0 4.4505895926001 4.49432306290216
2  5 4 11 4.4505895926001 4.49432306290216
2  6 4 13 4.4505895926001 4.49432306290216
2  7 1 14 4.4505895926001 4.49432306290216
2  8 1 15 4.4505895926001 4.49432306290216
0

0101000
+64 0 -62 16 *
Wi

0101000
+63 0 -61 0 -60 4 +60 6 *
Fa
0  1e-007 1 0

0111000
+59 0 *
Ve
1.00243361170084e-007
-4.36579550177043 23.5919368109582 0
0 0

0101100
*
Ed
 1.00243361170084e-007 1 1 0
1  4 0 0 10
2  9 3 0 0 10
2  10 5 0 0 10
0

0101000
+57 7 -57 8 *
Ed
 1e-007 1 1 0
1  5 0 4.14167872646371 6.28318530717959
2  11 6 19 4.14167872646371 6.28318530717959
2  12 6 20 4.14167872646371 6.28318530717959
2  13 7 23 4.14167872646371 6.28318530717959
2  14 7 25 4.14167872646371 6.28318530717959
2  15 3 26 4.14167872646371 6.28318530717959
2  16 3 27 4.14167872646371 6.28318530717959
2  17 8 30 4.14167872646371 6.28318530717959
2  18 8 32 4.14167872646371 6.28318530717959
0

0101000
+62 33 -57 33 *
Wi

0101000
+61 0 -56 0 -55 18 +55 34 *
Fa
0  1e-007 3 0

0101000
+54 0 *
Ve
1.00000000808255e-007
-0.503248950924139 0.290550917287381 0
0 0

0101100
*
Ed
 1.00000000808255e-007 1 1 0
1  6 0 0 10
2  19 5 0 0 10
0

0101000
+52 0 -52 5 *
Ed
 1e-007 1 1 0
1  7 0 5.37007187118467 6.54035769314378
2  20 5 0 5.37007187118467 6.54035769314378
2  21 5 35 5.37007187118467 6.54035769314378
0

0101000
+57 7 -52 0 *
Wi

0101000
+56 0 -51 0 -50 0 +50 5 *
Fa
0  1e-007 5 0

0111000
+49 0 *
Ve
1.00000000222045e-007
0.503248933995148 -0.290550907511134 0
0 0

0101100
*
Ed
 1.00000000222045e-007 1 1 0
1  8 0 0 10
2  22 10 0 0 10
0

0101000
+47 0 -47 5 *
Ed
 1e-007 1 1 0
1  9 0 0 1.16220364959467
0

0101000
+52 0 -47 0 *
Wi

0101000
+51 0 -46 0 -45 0 +45 5 *
Fa
0  1e-007 9 0

0111000
+44 0 *
Ve
1.00407107432506e-007
0.345001650855572 0.397669672332285 0
0 0

0101100
*
Ed
 1.00407107432506e-007 1 1 0
1  10 0 0 10
2  23 10 0 0 10
2  24 11 0 0 10
0

0101000
+42 0 -42 5 *
Ed
 1e-007 1 1 0
1  11 0 0.257172388705393 0.459977183566021
2  25 10 0 0.257172388705393 0.459977183566021
2  26 10 35 0.257172388705393 0.459977183566021
0

0101000
+47 0 -42 0 *
Wi

0101000
+46 0 -41 0 -40 0 +40 5 *
Fa
0  1e-007 10 0

0101000
+39 0 *
Ve
1.00150823531197e-007
-0.471954200859597 32.3180542310106 0
0 0

0101100
*
Ed
 1.00150823531197e-007 1 1 0
1  12 0 0 10
2  27 11 0 0 10
2  28 12 0 0 10
0

0101000
+37 36 -37 37 *
Ed
 1e-007 1 1 0
1  13 0 5.0455809032801 6.35872883493651
2  29 11 40 5.0455809032801 6.35872883493651
2  30 11 41 5.0455809032801 6.35872883493651
0

0101000
+42 40 -37 42 *
Wi

0101000
+41 0 -36 0 -35 39 +35 43 *
Fa
0  1e-007 11 0

0111000
+34 0 *
Ve
1.00158162385615e-007
2.22044604925031e-015 -32.321500120438 0
0 0

0101100
*
Ed
 1.00158162385615e-007 1 1 0
1  14 0 0 10
2  31 12 0 0 10
2  32 13 0 0 10
4 C2 12 0 13 0
0

0101000
+32 45 -32 46 *
Ed
 1e-007 1 1 0
1  15 0 4.69778659583901 4.71238898038469
2  33 14 47 4.69778659583901 4.71238898038469
2  34 14 48 4.69778659583901 4.71238898038469
2  35 12 49 4.69778659583901 4.71238898038469
2  36 12 50 4.69778659583901 4.71238898038469
0

0101000
+37 51 -32 0 *
Wi

0101000
+36 0 -31 0 -30 45 +30 46 *
Fa
0  1e-007 12 0

0111000
+29 0 *
Ve
1.00000003580362e-007
0.471954201305804 32.3180542306792 0
0 0

0101100
*
Ed
 1.00000003580362e-007 1 1 0
1  16 0 0 10
2  37 13 0 0 10
2  38 15 0 0 10
0

0101000
+27 54 -27 55 *
Ed
 1e-007 1 1 0
1  17 0 1.5707963267949 1.58539871135018
2  39 13 56 1.5707963267949 1.58539871135018
2  40 13 57 1.5707963267949 1.58539871135018
0

0101000
+32 58 -27 0 *
Wi

0101000
+31 0 -26 0 -25 54 +25 55 *
Fa
0  1e-007 13 0

0111000
+24 0 *
Ve
1.07411159221967e-007
5.43969575627602 3.14060980919564 0
0 0

0101100
*
Ed
 1.07411159221967e-007 1 1 0
1  18 0 0 10
2  41 15 0 0 10
2  42 16 0 0 10
0

0101000
+22 0 -22 5 *
Ed
 1e-007 1 1 0
1  19 0 0.863293231826761 1
2  43 15 0 0.863293231826761 1
2  44 15 35 0.863293231826761 1
0

0101000
+22 0 -27 54 *
Wi

0101000
+21 0 -26 0 -20 0 +20 5 *
Fa
0  1e-007 15 0

0111000
+19 0 *
Ve
1e-007
4.95565594037232 4.22902577050663 0
0 0

0101100
*
Ed
 1e-007 1 1 0
1  20 0 0 10
2  45 16 0 0 10
2  46 17 0 0 10
0

0101000
+17 0 -17 5 *
Ed
 1e-007 1 1 0
1  21 0 0 0.121579023363812
2  47 16 0 0 0.121579023363812
2  48 16 35 0 0.121579023363812
0

0101000
+17 0 -22 0 *
Wi

0101000
+16 0 -21 0 -15 0 +15 5 *
Fa
0  1e-007 16 0

0111000
+14 0 *
Ve
1e-007
5.45419760896544 21.7644916996719 0
0 0

0101100
*
Ed
 1e-007 1 1 0
1  22 0 0 10
2  49 17 0 0 10
2  50 2 0 0 10
4 G1 17 0 2 0
0

0101000
+12 61 -12 62 *
Ed
 1e-007 1 1 0
1  23 0 0 1.57616829945369
2  51 17 63 0 1.57616829945369
2  52 17 64 0 1.57616829945369
0

0101000
+17 63 -12 0 *
Wi

0101000
+16 0 -11 0 -10 61 +10 62 *
Fa
0  1e-007 17 0

0111000
+9 0 *
Ed
 1e-007 1 1 0
1  24 0 1.81634030726087 1.83259571459405
2  53 2 63 1.81634030726087 1.83259571459405
2  54 2 64 1.81634030726087 1.83259571459405
0

0101000
+12 0 -64 65 *
Wi

0101000
+11 0 -63 0 -7 61 +7 62 *
Fa
0  1e-007 2 0

0111000
+6 0 *
Wi

0101100
+60 4 +55 18 +50 0 +45 0 +40 0 +35 39 +30 45 +25 54 -20 0 -15 0 
+10 61 +7 61 *
Fa
0  1e-007 18 0

0111000
-4 0 *
Sh

0101000
-58 0 -53 0 -48 0 -43 0 -38 0 -33 0 -28 0 -23 0 +18 0 +13 0 
-8 0 -5 0 +3 0 -3 5 *
So

1100000
+2 0 *

+1 0 
