DBRep_DrawableShape

CASCADE Topology V1, (c) Matra-Datavision
Locations 0
Curve2ds 20
1 -0.5 0 0 1 
1 0 -1 1 0 
1 0.5 0 0 1 
1 0.5 0 0 1 
1 0 1 1 0 
1 0 -1 1 0 
1 1 0 0 1 
1 1 0 0 1 
1 0 1 1 0 
1 2.5 0 0 1 
1 2.5 0 0 1 
1 0 -1 1 0 
1 4 0 0 1 
1 0 1 1 0 
1 2 0 0 1 
1 2 0 0 1 
1 0 -1 1 0 
1 0 1 1 0 
1 0 -1 1 0 
1 0 1 1 0 
Curves 16
1 0.29289321881345237 0 2.2071067811865479 0 1 0 
1 0.64644660940672616 -1 1.853553390593274 0.70710678118654757 0 -0.70710678118654746 
1 1 0 1.5000000000000002 0 1 0 
1 0.64644660940672616 1 1.853553390593274 0.70710678118654757 0 -0.70710678118654746 
1 1 -1 2 1.1102230246251565e-16 0 -1 
1 1 0 1 0 1 0 
1 1 1 2 1.1102230246251565e-16 0 -1 
1 2.5000000000000004 0 1.0000000000000002 0 1 0 
1 0.89303097578365165 -1 2.9151111077974452 0.64278760968653947 0 -0.76604444311897801 
1 3.4641814145298095 0 -0.14906666467846685 0 1 0 
1 0.89303097578365165 1 2.9151111077974452 0.64278760968653947 0 -0.76604444311897801 
1 2 0 1 -0 1 0 
1 0 -1 1 1 0 -0 
1 0 1 1 1 0 -0 
1 0 -1 1 1 0 -0 
1 0 1 1 1 0 -0 
Polygon3D 0
PolygonOnTriangulations 0
Surfaces 5
1 0.64644660940672616 0 1.853553390593274 0.70710678118654746 0 0.70710678118654757 0.70710678118654757 0 -0.70710678118654746 -0 1 0 
1 1 0 2 1 0 1.1102230246251565e-16 1.1102230246251565e-16 0 -1 -0 1 0 
1 0 0 1 0 0 1 1 0 -0 -0 1 0 
1 0.89303097578365165 0 2.9151111077974452 0.76604444311897801 0 0.64278760968653947 0.64278760968653947 0 -0.76604444311897801 0 1 0 
1 0 0 1 0 0 1 1 0 -0 -0 1 0 
Triangulations 0

TShapes 39
Ve
1e-07
0.292893218813452 -1 2.20710678118655
0 0

0101100
*
Ve
1e-07
0.292893218813452 1 2.20710678118655
0 0

0101100
*
Ed
 1e-07 1 1 0
1  1 0 -1 1
2  1 1 0 -1 1
0

0101000
+39 0 -38 0 *
Ve
1.00000000222045e-07
1 -1 1.5
0 0

0101100
*
Ed
 1e-07 1 1 0
1  2 0 -0.5 0.5
2  2 1 0 -0.5 0.5
0

0101000
+39 0 -36 0 *
Ve
1.00000000222045e-07
1 1 1.5
0 0

0101100
*
Ed
 1e-07 1 1 0
1  3 0 -1 1
2  3 1 0 -1 1
2  4 2 0 -1 1
0

0101000
+36 0 -34 0 *
Ed
 1e-07 1 1 0
1  4 0 -0.5 0.5
2  5 1 0 -0.5 0.5
0

0101000
+38 0 -34 0 *
Wi

0101000
-37 0 +35 0 +33 0 -32 0 *
Fa
0  1e-07 1 0

0111000
+31 0 *
Ve
1e-07
1 -1 1
0 0

0101100
*
Ed
 1e-07 1 1 0
1  5 0 0.5 1
2  6 2 0 0.5 1
0

0101000
+36 0 -29 0 *
Ve
1e-07
1 1 1
0 0

0101100
*
Ed
 1e-07 1 1 0
1  6 0 -1 1
2  7 2 0 -1 1
2  8 3 0 -1 1
0

0101000
+29 0 -27 0 *
Ed
 1e-07 1 1 0
1  7 0 0.5 1
2  9 2 0 0.5 1
0

0101000
+34 0 -27 0 *
Wi

0101000
-33 0 +28 0 +26 0 -25 0 *
Fa
0  1e-07 2 0

0111000
+24 0 *
Ve
1.00000000496507e-07
2.5 -1 1
0 0

0101100
*
Ve
1.00000000496507e-07
2.5 1 1
0 0

0101100
*
Ed
 1e-07 1 1 0
1  8 0 -1 1
2  10 4 0 -1 1
2  11 5 0 -1 1
0

0101000
+22 0 -21 0 *
Ve
1e-07
3.46418141452981 -1 -0.149066664678467
0 0

0101100
*
Ed
 1e-07 1 1 0
1  9 0 2.5 4
2  12 4 0 2.5 4
0

0101000
+22 0 -19 0 *
Ve
1e-07
3.46418141452981 1 -0.149066664678467
0 0

0101100
*
Ed
 1e-07 1 1 0
1  10 0 -1 1
2  13 4 0 -1 1
0

0101000
+19 0 -17 0 *
Ed
 1e-07 1 1 0
1  11 0 2.5 4
2  14 4 0 2.5 4
0

0101000
+21 0 -17 0 *
Wi

0101000
-20 0 +18 0 +16 0 -15 0 *
Fa
0  1e-07 4 0

0101000
+14 0 *
Ve
1e-07
2 -1 1
0 0

0101100
*
Ve
1e-07
2 1 1
0 0

0101100
*
Ed
 1e-07 1 1 0
1  12 0 -1 1
2  15 5 0 -1 1
2  16 3 0 -1 1
0

0101000
+12 0 -11 0 *
Ed
 1e-07 1 1 0
1  13 0 2 2.5
2  17 5 0 2 2.5
0

0101000
+12 0 -22 0 *
Ed
 1e-07 1 1 0
1  14 0 2 2.5
2  18 5 0 2 2.5
0

0101000
+11 0 -21 0 *
Wi

0101000
-10 0 +9 0 +20 0 -8 0 *
Fa
0  1e-07 5 0

0101000
+7 0 *
Ed
 1e-07 1 1 0
1  15 0 1 2
2  19 3 0 1 2
0

0101000
+29 0 -12 0 *
Ed
 1e-07 1 1 0
1  16 0 1 2
2  20 3 0 1 2
0

0101000
+27 0 -11 0 *
Wi

0101000
-26 0 +5 0 +10 0 -4 0 *
Fa
0  1e-07 3 0

0101000
+3 0 *
Sh

0101000
+30 0 +23 0 +13 0 +6 0 +2 0 *

+1 0 
0

