DBRep_DrawableShape

CASCADE Topology V1, (c) Matra-Datavision
Locations 2
1
              1               0               0               0 
              0               1               0               0 
              0               0               1           -4000 
2  1 -1 0
Curve2ds 8
1 1 0 0 1 
1 0 0 0 1 
8 -30.199999999999999 -15.200000000000008
1 -25.84 -9.1200000000000045 0.80000000000000004 -0.59999999999999998 
8 -30.199999999999999 -15.200000000000008
1 -15.200000000000003 0 -1 0 
8 -30.199999999999999 -15.200000000000008
1 -25.84 -9.1200000000000045 0.80000000000000004 -0.59999999999999998 
8 -30.199999999999999 -15.200000000000008
1 -15.200000000000003 4000 -1 0 
1 15 0 0 1 
1 0 0 0 1 
Curves 11
1 0 60 4000 0 0 -1 
1 0 0 4000 0 0 -1 
1 0 60 4000 0 -1 0 
1 50 60 4000 -1 0 0 
1 38 60 4000 0 0 -1 
1 50 0 4000 0 0 -1 
1 0 0 4000 1 0 0 
1 50 0 4000 0 1 0 
1 25.84 69.120000000000005 4000 -0.80000000000000004 0.59999999999999998 0 
1 25.84 69.120000000000005 -8.8928864272475039e-14 -0.80000000000000004 0.59999999999999998 0 
1 50 51 4000 0 0 -1 
Polygon3D 0
PolygonOnTriangulations 12
2 3 4 
p 400.00000002 1 0 4000 
2 1 2 
p 442.00000001 1 0 4000 
2 3 4 
p 400.00000002 1 0 4000 
2 1 2 
p 444.5000000095 1 0 4000 
2 2 4 
p 24.00000008 1 0 60 
2 1 3 
p 24.00000008 1 0 60 
2 2 3 
p 50.5000000095 1 0 60 
2 3 4 
p 400.00000002 1 0 4000 
2 1 2 
p 444.225000009475 1 0 4000 
2 2 4 
p 20.00000008 1 0 50 
2 1 3 
p 20.00000008 1 0 50 
2 3 4 
p 49.225000009475 1 0 50 
Surfaces 8
1 0 60 4000 -1 0 0 0 -1 0 0 0 1 
1 50 60 4000 0 1 0 -1 0 0 0 -0 1 
1 38 61 4000 1 0 0 0 -1 0 0 0 -1 
1 38 60 4000 0.59999999999999998 0.80000000000000004 0 0.80000000000000004 -0.59999999999999998 -0 0 0 -1 
1 0 0 4000 0 -1 0 1 0 0 -0 0 1 
1 0 60 4000 0 0 1 -1 0 0 0 -1 0 
1 50 51 4000 -0 1 0 1 0 0 0 0 -1 
1 50 0 4000 1 0 0 -0 1 0 0 -0 1 
Triangulations 5
4 2 1 222.5000000475
0 60 4000 0 60 0 0 0 4000 0 0 0 0 0 0 -4000 60 0 60 -4000 1 2 4 4 3 1 
4 2 1 210.00000005
50 60 4000 50 60 0 0 60 4000 0 60 0 0 0 0 -4000 50 0 50 -4000 1 2 4 4 3 1 
4 2 1 221.125000047375
0 0 4000 0 0 0 50 0 4000 50 0 0 0 0 0 -4000 50 0 50 -4000 1 2 4 4 3 1 
4 2 1 49.8590625094872
50 60 4000 0 60 4000 0 0 4000 50 0 4000 -50 0 0 0 0 60 -50 60 4 1 2 2 3 4 
4 2 1 233.556250044869
50 0 4000 50 0 0 50 60 4000 50 60 0 0 0 0 -4000 60 0 60 -4000 1 2 4 4 3 1 

TShapes 37
Ve
1e-07
0 60 4000
0 0

0101100
*
Ed
 1e-07 1 1 0
1  1 0 0 4000
6  1 2 0
6  2 1 0
0

0101000
+37 0 -37 1 *
Ve
1e-07
0 0 4000
0 0

0101100
*
Ed
 1e-07 1 1 0
1  2 0 0 4000
6  3 1 0
6  4 3 0
0

0101000
+35 0 -35 1 *
Ed
 1e-07 1 1 0
1  3 0 0 60
6  5 1 2
6  6 1 0
6  7 4 0
0

0101000
+37 0 -35 0 *
Wi

0101000
+36 0 -34 0 -33 0 +33 1 *
Fa
0  1e-07 1 0
2  1
0111000
+32 0 *
Ve
1e-07
38 60 4000
0 0

0101101
*
Ed
 1e-07 1 1 0
1  4 0 12 50
0

0101000
+30 0 -37 0 *
Ve
1e-07
38 60 0
0 0

0101101
*
Ed
 1e-07 1 1 0
1  4 0 12 50
0

0101000
+28 2 -37 0 *
Ed
 1e-07 1 1 0
1  5 0 0 4000
2  1 3 0 0 4000
2  2 4 0 0 4000
0

0101000
+30 0 -28 0 *
Wi

0101000
-29 0 -36 0 +27 1 +26 0 *
Fa
0  1e-07 2 0

0111000
+25 0 *
Ve
1e-07
50 0 4000
0 0

0101100
*
Ed
 1e-07 1 1 0
1  6 0 0 4000
6  8 3 0
6  9 5 0
0

0101000
+23 0 -23 1 *
Ed
 1e-07 1 1 0
1  7 0 0 50
6  10 3 2
6  11 3 0
6  12 4 0
0

0101000
+35 0 -23 0 *
Wi

0101000
+34 0 -22 0 -21 0 +21 1 *
Fa
0  1e-07 5 0
2  3
0111000
+20 0 *
Ve
1e-07
50 51 4000
0 0

0101101
*
Ed
 1e-07 1 1 0
1  8 0 0 51
0

0101000
+23 0 -18 0 *
Ed
 1e-07 1 1 0
1  9 0 -30.2 -15.2
2  3 6 0 -30.2 -15.2
2  4 4 0 -30.2 -15.2
0

0101000
+18 0 -30 0 *
Wi

0101000
+17 0 +21 0 +33 0 +29 0 +16 0 *
Fa
0  1e-07 6 0

0111000
+15 0 *
Ve
1e-07
50 51 0
0 0

0101101
*
Ed
 1e-07 1 1 0
1  8 0 0 51
0

0101000
+23 0 -13 2 *
Ed
 1e-07 1 1 0
1  10 0 -30.2 -15.2
2  5 6 1 -30.2 -15.2
2  6 4 0 -30.2 -15.2
0

0101000
+13 0 -28 0 *
Wi

0101000
+12 1 +21 1 +33 1 +27 1 +11 0 *
Fa
0  1e-07 6 1

0111000
+10 0 *
Ed
 1e-07 1 1 0
1  11 0 0 4000
2  7 4 0 0 4000
2  8 7 0 0 4000
0

0101000
+18 0 -13 0 *
Wi

0101000
-16 0 -26 0 +11 0 +8 0 *
Fa
0  1e-07 4 0

0111000
+7 0 *
Wi

0101000
-17 0 -8 0 +12 1 +22 0 *
Fa
0  1e-07 8 0

0111000
+5 0 *
Sh

0101000
+31 0 +24 0 +19 0 +14 0 -9 0 +6 0 +4 0 *
So

0100000
+3 0 *
Co

1100000
+2 0 *

+1 0 
0

