DBRep_DrawableShape

CASCADE Topology V1, (c) Matra-Datavision
Locations 0
Curve2ds 4
1 1.5946082743228327e-16 0 0 1 
1 0 3.7482077593019313e-16 1 0 
1 24.254391634217029 0 0 1 
1 0 50.812354996234177 1 0 
Curves 4
7 0 0  3 5 3  23.094999999999999 0 14.917999999999999  30.880618018257145 0 16.18002086547342  47.76161477593643 0 17.561765192535795  64.627156490076132 0 16.00267199238375  73.712999999999994 0 14.308 
 3.7482077593019313e-16 4 23.42507908204367 1 50.812354996234177 4
7 0 0  3 5 3  23.094999999999999 0 14.917999999999999  23.094999999999999 3.5964782951322896 16.796062741492221  23.094999999999999 11.357851764113363 19.059915171433204  23.094999999999999 19.311174024029626 17.607809466095802  23.094999999999999 23.59 15.788 
 1.5946082743228327e-16 4 11.370880001125682 1 24.254391634217029 4
7 0 0  3 5 3  23.094999999999999 23.59 15.788  30.880618018257145 23.59 17.050020865473421  47.76161477593643 23.59 18.431765192535792  64.627156490076132 23.59 16.872671992383751  73.712999999999994 23.59 15.178000000000001 
 3.7482077593019313e-16 4 23.42507908204367 1 50.812354996234177 4
7 0 0  3 5 3  73.712999999999994 0 14.308  73.712999999999994 3.5964782951322896 16.186062741492226  73.712999999999994 11.357851764113363 18.449915171433204  73.712999999999994 19.311174024029626 16.997809466095802  73.712999999999994 23.59 15.178000000000001 
 1.5946082743228327e-16 4 11.370880001125682 1 24.254391634217029 4
Polygon3D 0
PolygonOnTriangulations 4
6 1 3 4 5 6 2 
p 0.2024720008 1 3.74820775930193e-16 9.8653886421783 19.7307772843566 29.5306912659178 40.171523131076 50.8123549962342 
7 1 8 9 10 11 12 7 
p 0.2024720008 1 1.59460827432283e-16 4.36048750745153 8.72097501490306 13.0814625223546 17.4419500298061 20.8481708320116 24.254391634217 
6 7 14 15 16 17 13 
p 0.2024720008 1 3.74820775930193e-16 9.86538864217828 19.7307772843566 29.5306912659178 40.171523131076 50.8123549962342 
7 2 18 19 20 21 22 13 
p 0.2024720008 1 1.59460827432283e-16 4.36048750745151 8.72097501490303 13.0814625223545 17.4419500298061 20.8481708320115 24.254391634217 
Surfaces 1
9 0 0 0 0 3 3 5 5 3 3 23.094999999999999 0 14.917999999999999  30.880618018257145 0 16.18002086547342  47.76161477593643 0 17.561765192535795  64.627156490076132 0 16.00267199238375  73.712999999999994 0 14.308  
23.094999999999999 3.5964782951322896 16.796062741492221  30.880618018257145 3.5964782951322896 18.058083606965646  47.76161477593643 3.5964782951322896 19.439827934028017  64.627156490076132 3.5964782951322896 17.880734733875975  73.712999999999994 3.5964782951322896 16.186062741492226  
23.094999999999999 11.357851764113363 19.059915171433204  30.880618018257145 11.357851764113363 20.321936036906621  47.76161477593643 11.357851764113363 21.703680363968999  64.627156490076132 11.357851764113363 20.144587163816951  73.712999999999994 11.357851764113363 18.449915171433204  
23.094999999999999 19.311174024029626 17.607809466095802  30.880618018257145 19.311174024029626 18.869830331569226  47.76161477593643 19.311174024029626 20.251574658631597  64.627156490076132 19.311174024029626 18.692481458479556  73.712999999999994 19.311174024029626 16.997809466095802  
23.094999999999999 23.59 15.788  30.880618018257145 23.59 17.050020865473421  47.76161477593643 23.59 18.431765192535792  64.627156490076132 23.59 16.872671992383751  73.712999999999994 23.59 15.178000000000001  

1.5946082743228327e-16 4
11.370880001125682 1
24.254391634217029 4

3.7482077593019313e-16 4
23.42507908204367 1
50.812354996234177 4

Triangulations 1
42 60 1 0.2024720008
23.095 0 14.918 73.713 0 14.308 32.9299081571264 0 16.1799175724904 42.761320798742 0 16.7766967282088 52.5240234779184 0 16.710983702488 63.1205450508594 0 15.8963972601714 23.095 23.59 15.788 23.095 4.15612795701108 16.7182755928347 23.095 8.34948016372684 17.79792276782 23.095 12.5800566201473 18.156941524956 23.095 16.8478573262724 17.7953318642427 23.095 20.2075714583239 17.0115313316924 73.713 23.59 15.178 32.9299081571264 23.59 17.0499175724904 42.761320798742 23.59 17.6466967282088 52.5240234779184 23.59 17.580983702488 63.1205450508594 23.59 16.7663972601714 73.713 4.15612795701107 16.1082755928346 73.713 8.34948016372681 17.18792276782 73.713 12.5800566201472 17.546941524956 73.713 16.8478573262723 17.1853318642427 73.713 20.2075714583239 16.4015313316924 32.9299081571264 4.15612795701108 17.980193165325 32.9299081571264 8.34948016372681 19.0598403403103 32.9299081571264 12.5800566201472 19.4188590974464 32.9299081571264 16.8478573262723 19.0572494367331 32.9299081571264 20.2075714583239 18.2734489041827 42.761320798742 4.15612795701108 18.5769723210435 42.761320798742 8.34948016372681 19.6566194960288 42.761320798742 12.5800566201472 20.0156382531648 42.761320798742 16.8478573262723 19.6540285924515 42.761320798742 20.2075714583239 18.8702280599012 52.5240234779184 4.15612795701108 18.5112592953226 52.5240234779184 8.34948016372681 19.590906470308 52.5240234779184 12.5800566201472 19.949925227444 52.5240234779184 16.8478573262723 19.5883155667307 52.5240234779184 20.2075714583239 18.8045150341804 63.1205450508594 4.15612795701108 17.696672853006 63.1205450508594 8.34948016372681 18.7763200279914 63.1205450508594 12.5800566201472 19.1353387851274 63.1205450508594 16.8478573262723 18.7737291244141 63.1205450508594 20.2075714583239 17.9899285918637 1.59460827432283e-16 3.74820775930193e-16 1.59460827432283e-16 50.8123549962342 1.59460827432283e-16 9.8653886421783 1.59460827432283e-16 19.7307772843566 1.59460827432283e-16 29.5306912659178 1.59460827432283e-16 40.171523131076 24.254391634217 3.74820775930193e-16 4.36048750745153 3.74820775930193e-16 8.72097501490306 3.74820775930193e-16 13.0814625223546 3.74820775930193e-16 17.4419500298061 3.74820775930193e-16 20.8481708320116 3.74820775930193e-16 24.254391634217 50.8123549962342 24.254391634217 9.86538864217828 24.254391634217 19.7307772843566 24.254391634217 29.5306912659178 24.254391634217 40.171523131076 4.36048750745151 50.8123549962342 8.72097501490303 50.8123549962342 13.0814625223545 50.8123549962342 17.4419500298061 50.8123549962342 20.8481708320115 50.8123549962342 4.36048750745153 9.8653886421783 8.72097501490303 9.8653886421783 13.0814625223545 9.8653886421783 17.4419500298061 9.8653886421783 20.8481708320116 9.8653886421783 4.36048750745153 19.7307772843566 8.72097501490303 19.7307772843566 13.0814625223545 19.7307772843566 17.4419500298061 19.7307772843566 20.8481708320116 19.7307772843566 4.36048750745153 29.5306912659178 8.72097501490303 29.5306912659178 13.0814625223545 29.5306912659178 17.4419500298061 29.5306912659178 20.8481708320116 29.5306912659178 4.36048750745153 40.171523131076 8.72097501490303 40.171523131076 13.0814625223545 40.171523131076 17.4419500298061 40.171523131076 20.8481708320116 40.171523131076 1 8 23 3 23 4 23 3 1 4 23 28 8 24 23 24 9 25 24 28 23 24 29 28 29 24 25 29 25 30 28 29 34 9 10 25 24 8 9 4 28 33 6 5 38 5 4 33 6 18 2 38 18 6 38 5 33 34 30 35 34 33 28 35 30 31 34 35 39 38 39 19 39 38 34 40 19 39 38 19 18 39 35 40 34 38 33 30 34 29 25 26 30 10 11 26 31 26 27 11 27 26 12 27 11 31 30 26 36 35 31 14 27 12 27 15 32 15 27 14 32 15 16 27 32 31 14 12 7 31 32 37 40 36 41 40 35 36 20 41 21 41 20 40 21 41 22 36 37 41 40 20 19 37 16 17 16 37 32 37 17 42 22 42 13 22 41 42 13 42 17 42 41 37 36 31 37 25 10 26 

TShapes 11
Ve
1e-07
23.095 0 14.918
0 0

0101100
*
Ve
1e-07
73.713 0 14.308
0 0

0101100
*
Ed
 1e-07 1 1 0
1  1 0 3.74820775930193e-16 50.8123549962342
2  1 1 0 3.74820775930193e-16 50.8123549962342
6  1 1 0
0

0101000
+11 0 -10 0 *
Ve
1e-07
23.095 23.59 15.788
0 0

0101100
*
Ed
 1e-07 1 1 0
1  2 0 1.59460827432283e-16 24.254391634217
2  2 1 0 1.59460827432283e-16 24.254391634217
6  2 1 0
0

0101000
+11 0 -8 0 *
Ve
1e-07
73.713 23.59 15.178
0 0

0101100
*
Ed
 1e-07 1 1 0
1  3 0 3.74820775930193e-16 50.8123549962342
2  3 1 0 3.74820775930193e-16 50.8123549962342
6  3 1 0
0

0101000
+8 0 -6 0 *
Ed
 1e-07 1 1 0
1  4 0 1.59460827432283e-16 24.254391634217
2  4 1 0 1.59460827432283e-16 24.254391634217
6  4 1 0
0

0101000
+10 0 -6 0 *
Wi

0101100
-9 0 +7 0 +5 0 -4 0 *
Fa
1  1e-07 1 0
2  1
0101000
+3 0 *
Sh

0101000
+2 0 *

+1 0 
0

