DBRep_DrawableShape

CASCADE Topology V1, (c) Matra-Datavision
Locations 0
Curve2ds 8
7 0 0  4 11 4  0 0.45157134768617602  0.083042774973337855 0.44910297121253789  0.16570553432518059 0.44660418747774538  0.24801475229053677 0.44407767075614285  0.41296663579586729 0.43894388808514695  0.49560147447063507 0.43633601899803398  0.57793471761135717 0.43370518313035483  0.74539738476389905 0.4282953735978598  0.83050455517420485 0.42551472490303699  0.91535854915116666 0.4227152439592225  1 0.41990005805561947 
 0 5 0.3262589051574365 3 0.65642493204730745 3 1 5
7 0 0  4 11 4  0.0012737913372224672 0  0.0012737009863769864 0.082500037196027928  0.001273636232608932 0.16500004438007185  0.001273582528825418 0.2475000294889772  0.0012734681267222029 0.41250001459918878  0.0012734074284159974 0.49500001458966159  0.0012733286856842737 0.57750000745236529  0.0012731026432205683 0.744999993327633  0.0012729533383558163 0.82999998630690341  0.0012727535263878881 0.91499998639502733  0.0012724872973876736 1 
 0 5 0.32999988051603152 3 0.65999993738470941 3 1 5
7 0 0  4 11 4  0 0.45319039614877804  0.083042847919778104 0.45072931583477388  0.16570562990495694 0.44823791391498952  0.24801481819117766 0.44571885678949025  0.41296666720731479 0.44060022337220678  0.49560149969264788 0.43800004561211764  0.57793471818972264 0.43537696757096256  0.74539728170831521 0.42998311823904017  0.83050437634326379 0.42721067710656141  0.9153583742849466 0.42441946530127178  1 0.42161260739739509 
 0 5 0.32625879249299566 3 0.65642508594177573 3 1 5
1 0 0 1 0 
7 0 0  3 4 2  0 -1.1102230246251565e-16  0 0.33333336775305544  0 0.66666665138434156  0 1 
 0 4 1 4
7 0 0  4 11 4  0 0.00036450928822132431  0.082499986554531196 0.00036290229940279587  0.16499998356133072 0.00036130642438287534  0.24749998878718557 0.00035972144452763136  0.41249999325130138 0.00035657283811601809  0.49499999248955301 0.00035500921156370459  0.57749999548279241 0.0003534560428438052  0.74500000001302757 0.00035032342849476857  0.83000000164378307 0.00034874461281822922  0.91500000245240332 0.00034717642725374766  1 0.00034561863270024231 
 0 5 0.33000005426348489 3 0.66000003668059515 3 1 5
7 0 0  4 11 4  0.4515714086391332 0  0.45157140863913831 0.081586893581464939  0.45157141422344127 0.16317377162374036  0.45157142520507682 0.24476064015110011  0.45157145777022789 0.40884750431148453  0.45157147947103032 0.49134749986593462  0.45157150630611403 0.57384749808162527  0.45157157117278834 0.74226060739236133  0.45157160962165466 0.82817371923826255  0.45157165321043474 0.91408684776220328  0.45157170172077771 1 
 0 5 0.32634751491189118 3 0.65634756677777584 3 1 5
7 0 0  4 11 4  0.45319045706758704 0  0.4531904570675922 0.081586962955989009  0.453190462693492 0.16317391038026935  0.45319047375227234 0.24476084828686695  0.4531905065318953 0.40884778184400428  0.45319052837067936 0.49134777741568214  0.45319055536764852 0.57384777562472578  0.45319062060079507 0.74226081558687529  0.45319065925573027 0.82817385808791921  0.45319070306265158 0.91408691721766255  0.45319075179614737 1 
 0 5 0.32634779216301346 3 0.65634784393468837 3 1 5
Curves 7
7 0 0  4 11 4  25680.168293579947 21428.572953791292 9995  25343.135516452781 21428.572954111769 9995  25007.644829570279 21428.572969986471 9995  24673.588805328731 21428.572993587393 9995  24004.123065610176 21428.573043299319 9995  23668.745111326618 21428.573069431244 9995  23334.591020395201 21428.573089833222 9995  22654.934037735064 21428.573108008673 9995  22309.521449540007 21428.573104822197 9995  21965.136221698762 21428.573082686824 9995  21621.613447956952 21428.573036162823 9995 
 0 5 0.3262589051574365 3 0.65642493204730745 3 1 5
7 0 0  4 11 4  25675.000000000004 21428.572973333336 7206.3131936076543  25675.000000000004 21428.572973333336 7715.8357567090225  25675.000000000004 21428.572973333503 8225.3585068254542  25675.000000000004 21428.572971427126 8734.8813935280741  25675.000000000004 21428.572959987887 9753.9276193800015  25675.000000000004 21428.572950455025 10263.450958453592  25675.000000000004 21428.572935202195 10772.974340998817  25675.000000000004 21428.572888749899 11807.461213376637  25675.000000000004 21428.572857081206 12332.424703093398  25675.000000000004 21428.572815231255 12857.388143661248  25675.000000000004 21428.572761114719 13382.351487971351 
 0 5 0.32999988051603152 3 0.65999993738470941 3 1 5
7 0 0  4 11 4  25680.168288229554 21428.57295358034 10004.999999999998  25343.135215471833 21428.572953902163 10004.999999999998  25007.644436707578 21428.572969868623 10005  24673.588532562877 21428.5729936237 10005  24004.122931684877 21428.573043717264 10005  23668.745001737876 21428.573070077509 10005  23334.591009959986 21428.573090716254 10005  22654.934446273044 21428.573109336492 10005  22309.522164855447 21428.573106356493 10005  21965.136920396239 21428.573084376596 10005  21621.613436836629 21428.573037926446 10005 
 0 5 0.32625879249299566 3 0.65642508594177573 3 1 5
7 0 0  3 4 8  25679.910976666666 21428.572973333336 1029.4074616666667  25680.177055 21428.572973333336 7205.8852513333331  25680.426911666669 21428.572973333336 13382.350286666668  25680.662475000005 21428.5717 19558.820723333334 
 -3 1 -2 1 -1 1 0 1 1 1 2 1 3 1 4 1
7 0 0  4 11 4  25685.000000000007 21428.572973333336 7205.8831256111898  25685.000000000007 21428.572973333336 7715.4419340967606  25685 21428.572973333346 8225.0006913952056  25685.000000000004 21428.572971426715 8734.5594108983405  25685.000000000004 21428.572959986825 9753.6766901747542  25685.000000000004 21428.572950453567 10263.235249947917  25685.000000000004 21428.572935200344 10772.793798725563  25685.000000000004 21428.572888747291 11807.352040654341  25685.000000000004 21428.572857078245 12332.351733953728  25685.000000000004 21428.572815228028 12857.351444475265  25685.000000000004 21428.57276111138 13382.351186887903 
 0 5 0.33000005426348489 3 0.66000003668059515 3 1 5
7 0 0  4 11 4  25680.289217796017 21428.572953791285 9995  26760.388431534408 21428.572953791299 9995  27840.487850990401 21428.572968808141 9995  28920.58739633251 21428.572992491354 9995  31092.875237678047 21428.573044780405 9995  32185.063534718356 21428.573073438383 9995  33277.251796325654 21428.573097898185 9995  35506.812831216303 21428.573125855753 9995  36644.185594537405 21428.573128444456 9995  37781.558136737185 21428.573111944432 9995  38918.930364619919 21428.573068940488 9995 
 0 5 0.32634751491189118 3 0.65634756677777584 3 1 5
7 0 0  4 11 4  25680.28962389618 21428.572953580333 10005  26760.38972180356 21428.572953580348 10005  27840.490025329429 21428.572968684424 10005  28920.590454776968 21428.572992515841 10005  31092.87914638206 21428.573045172769 10005  32185.067409580257 21428.573074051201 10005  33277.255637659247 21428.573098739802 10005  35506.815688061979 21428.573127126136 10005  36644.187500462082 21428.573129913224 10005  37781.559092391224 21428.573113560633 10005  38918.930370812479 21428.57307062254 10005 
 0 5 0.32634779216301346 3 0.65634784393468837 3 1 5
Polygon3D 0
PolygonOnTriangulations 0
Surfaces 2
9 0 0 0 0 3 3 4 4 8 8 29738.712309999999 21428.575519999999 285.5454087  29738.716130000001 21428.5717 6888.5102270000007  29738.691330000001 21428.575519999999 13372.4308  29738.704680000003 21428.5717 19915.864939999999  
25680.187230000003 21428.5717 1052.5550840000001  25680.166239999999 21428.573609999999 7199.272156  25680.179599999999 21428.5717 13385.65826  25680.129999999997 21428.5717 19552.211759999998  
21621.606830000001 21428.575519999999 1680.6894539999998  21621.625900000003 21428.5717 7549.7140879999997  21621.604919999998 21428.575519999999 13379.040720000001  21621.629710000001 21428.5717 19228.210449999999  
17563.06076 21428.5717 2447.6511479999999  17563.026430000002 21428.5717 7860.4879380000002  17563.070299999999 21428.5717 13392.251969999999  17562.76512 21428.569790000001 18864.446640000002  

-3 1
-2 1
-1 1
0 1
1 1
2 1
3 1
4 1

-3 1
-2 1
-1 1
0 1
1 1
2 1
3 1
4 1

9 0 0 0 0 3 3 4 4 8 8 12440.900799999999 21428.575519999999 1029.404759  25679.910660000001 21428.5717 1029.408813  38918.922420000003 21428.575519999999 1029.404759  52157.958979999996 21428.5717 1029.3879509999999  
12441.44821 21428.5717 7205.8877939999993  25680.164339999999 21428.573609999999 7205.8839800000005  38918.956760000001 21428.5717 7205.8877939999993  52157.600400000003 21428.5717 7205.8930399999999  
12441.93649 21428.575519999999 13382.3452  25680.425639999998 21428.5717 13382.35283  38918.922420000003 21428.575519999999 13382.3452  52157.443999999996 21428.5717 13382.32899  
12442.506789999999 21428.5717 19558.805469999999  25680.618290000002 21428.5717 19558.82835  38918.994899999998 21428.5717 19558.805469999999  52157.375339999999 21428.569790000001 19558.807369999999  

-3 1
-2 1
-1 1
0 1
1 1
2 1
3 1
4 1

-3 1
-2 1
-1 1
0 1
1 1
2 1
3 1
4 1

Triangulations 0

TShapes 18
Ve
0.0604686430647599
25680.2287552992 21428.5729537913 9995
0 0

0101100
*
Ve
8.7754076129896e-07
25675 21428.5729537976 9995
0 0

0101100
*
Ed
 8.7754076129896e-07 1 1 0
1  1 0 0 0.00125080280029605
2  1 1 0 0 0.00125080280029605
4 CN 1 0 1 0
0

0101000
+18 0 -17 0 *
Ve
8.92593809023976e-07
25675 21428.5729535867 10005
0 0

0101100
*
Ed
 1e-07 1 1 0
1  2 0 0.451533382578178 0.453152543259201
2  2 1 0 0.451533382578178 0.453152543259201
4 CN 1 0 1 0
0

0101000
+17 0 -15 0 *
Ve
0.0606743964432114
25680.2289556666 21428.5729535803 10005
0 0

0101100
*
Ed
 8.92593809023976e-07 1 1 0
1  3 0 0 0.00125079998060207
2  3 1 0 0 0.00125079998060207
4 CN 1 0 1 0
0

0101000
+13 0 -15 0 *
Ed
 0.39012859677362 1 1 0
1  4 0 0.451571408241575 0.453190456668716
2  4 2 0 0.451571408241575 0.453190456668716
2  5 1 0 0.451571408241575 0.453190456668716
0

0101000
+18 0 -13 0 *
Wi

0101000
+16 0 +14 0 -12 0 -11 0 *
Fa
0  1e-07 1 0

0111000
+10 0 *
Ve
1.00001818989404e-07
25685 21428.5729537914 9995
0 0

0101100
*
Ve
1.00001818989404e-07
25685 21428.5729535804 10005
0 0

0101100
*
Ed
 1e-07 1 1 0
1  5 0 0.451571461941142 0.453190510303127
2  6 2 0 0.451571461941142 0.453190510303127
4 CN 2 0 2 0
0

0101000
+8 0 -7 0 *
Ed
 1e-07 1 1 0
1  6 0 0 0.000355835844876225
2  7 2 0 0 0.000355835844876225
4 CN 2 0 2 0
0

0101000
+18 0 -8 0 *
Ed
 1e-07 1 1 0
1  7 0 0 0.000355805180519881
2  8 2 0 0 0.000355805180519881
4 CN 2 0 2 0
0

0101000
+13 0 -7 0 *
Wi

0101000
-6 0 -5 0 +11 0 +4 0 *
Fa
0  1e-07 2 0

0111000
+3 0 *
Sh

0101000
+9 0 +2 0 *

+1 0 
0

