DBRep_DrawableShape

CASCADE Topology V1, (c) Matra-Datavision
Locations 2
1
              1               0              -0               0 
             -0               1               0               0 
              0               0               1           329.5 
2  1 -1 0
Curve2ds 34
1 6.2831853071795898 0 0 1 
1 0 0 0 1 
7 0 0  7 14 3  0.98279449248105699 0.30973318787548199  0.956093725491027 0.29692204529864902  0.92588803259596597 0.28395286340771198  0.89126438909616001 0.27080088583913797  0.85101697746579397 0.25750484535368401  0.80350695546936501 0.24417450360139201  0.74638571295626099 0.23103836378281101  0.58590923529035399 0.20244959828563899  0.48918813788058202 0.19011266269072899  0.387974444274231 0.18116104157936799  0.285319125216699 0.17509876732035601  0.18434969229541301 0.17146871263111699  0.088037930826665001 0.16991805258692699  0 0.169918051076658 
 0 8 0.43747280999578197 6 1 8
7 0 0  7 14 3  129.777248189944 -2.9999899999999999  129.75450443286101 -2.9132127409139499  129.732541070736 -2.8231475790695901  129.71136903977001 -2.7291265312920201  129.691118669465 -2.6304939560664899  129.672022149615 -2.5268285722496602  129.65439159753501 -2.4177566570458602  129.61827764572101 -2.1539683000082901  129.60440836196199 -2.0200511233326401  129.59509557955201 -1.8987498358970201  129.58902234588601 -1.7875543263968801  129.585448700147 -1.6843403251350699  129.583919565776 -1.58803249063701  129.58391956428801 -1.499995 
 0 8 0.43747280999578197 6 1 8
1 0 0 1 0 
7 0 0  8 23 4  0.98279449248105699 0.30973318787548199  1.00487117233798 0.305025432133399  1.07241108630694 0.291055259410822  1.15900262756286 0.27528752091826503  1.2813645344441 0.26271392750998002  1.39573717667111 0.25587003746192799  1.52210368620707 0.25595570413389002  1.58292768028846 0.25635781071483699  1.6382459826809299 0.25692257731995899  1.66510323237402 0.257447664348875  1.6900865492950801 0.25814278878149799  1.71314018747874 0.258956904429268  1.7343317758467001 0.259851469159253  1.7538523182076999 0.260800444894148  1.77201619325753 0.26179029761228201  1.87641393886098 0.26802390573771701  1.9399305934853901 0.27386997158997001  1.9884776564773901 0.279980786740814  2.0285616691946502 0.28609946262135  2.0645291763273699 0.29208963025733797  2.0985667258983201 0.29793544026919699  2.1307008692628102 0.30374156287199999  2.1587981611087401 0.30973318787548199 
 0 9 0.13408929868289299 7 0.27712492139483702 7 1 9
7 0 0  8 23 4  129.777248189944 1.9999899999999999  129.76889046132101 1.9521574021452599  129.74423941075599 1.80762687565362  129.717439343775 1.6338616317980299  129.69999984712501 1.4273247572577401  129.68969583775501 1.26388649255937  129.68982983916899 1.0728419034353001  129.69042744796801 0.98182939424485005  129.69126255134 0.89872654413863795  129.692039351224 0.858249365973907  129.69307015537601 0.82041548625845395  129.694281315518 0.78528285728075597  129.69561729935501 0.75273972174683801  129.69704069057701 0.722504612780273  129.69853218885299 0.69412635392218103  129.70796657578299 0.52981201689075796  129.717022724906 0.42425530014504398  129.72669514501499 0.33854162589343001  129.73660112115101 0.26381886846349101  129.746539135587 0.19415505951102999  129.75648886783199 0.12653838802007999  129.76661119462599 0.060877200302905402  129.777248189944 -1.11022302462516e-16 
 0 9 0.13408929868289299 7 0.27712492139483702 7 1 9
7 0 0  8 30 5  2.1587981611087401 0.30973318787548199  2.1811023934436999 0.29903152149201301  2.2060041304737301 0.28815103888791199  2.2338673407384499 0.27705704345202598  2.2657684500792401 0.26573812347480502  2.3027586072635802 0.25419046157089698  2.3460726553487099 0.24242394028115599  2.3982848087846098 0.23049004385404401  2.4989338689431499 0.21255948842165501  2.5357606543556499 0.20671863857980199  2.57675520441826 0.20087910775928799  2.6231309280529702 0.195024461040886  2.6764508311792001 0.18925172750775399  2.7386275167138598 0.18377140024542599  2.8119231845713299 0.17890743634181899  2.9964257800819198 0.17082957010434199  3.0891394205661502 0.168929806349919  3.1790317347055002 0.16860831815011501  3.26828733037605 0.16972594175942399  3.3587350679402701 0.17233748608243199  3.4517991191869499 0.176788095462871  3.5468243714738601 0.18372570382208001  3.7489136490231401 0.205419668656565  3.8376544010746101 0.21907545635554501  3.9168708811023598 0.23482535911276001  3.9812549457977 0.25227431133727102  4.0346103475887203 0.27019704295077601  4.0758479236711596 0.28711929286228199  4.1065865608230396 0.30119239068991899  4.1243871460708501 0.30973318787548199 
 0 9 0.371944650010051 7 0.55769377878878701 7 0.76574673568224605 7 1 9
7 0 0  8 30 5  129.777248189944 -2.9999899999999999  129.75824940828599 -2.92750144007326  129.73965734811301 -2.85223869347494  129.72146165896001 -2.77385779434782  129.703693204795 -2.6914999761838798  129.686411283833 -2.6044530167060098  129.66970359454101 -2.5120345452373001  129.653698947848 -2.4126973125577398  129.63104867933799 -2.2472521918599302  129.62386806760901 -2.1899805575930902  129.61693815660001 -2.1298873560909999  129.61024618042401 -2.0660800158504  129.603879341077 -1.9974275582216601  129.598024808437 -1.92256059740882  129.59296972026499 -1.8398713404695399  129.584768129406 -1.6440659762165699  129.582957928719 -1.5513762662088  129.58264281705499 -1.4628734381933799  129.58372920949199 -1.37483937361752  129.58626402284699 -1.28354719047557  129.590666272253 -1.1855448416237899  129.597777500728 -1.07678535356649  129.62214163900799 -0.81430112264180099  129.63834067933499 -0.680460835645324  129.65831432063101 -0.54223405438930905  129.68231697206201 -0.40544638711595399  129.70950716272301 -0.272857664062573  129.737561148997 -0.15417028494438001  129.762085622256 -0.0578517463003854  129.777248189944 2.2204460492503101e-16 
 0 9 0.371944650010051 7 0.55769377878878701 7 0.76574673568224605 7 1 9
7 0 0  7 14 3  5.3003908146985301 0.30973318787548199  5.3270915816885598 0.29692204529864902  5.3572972745836198 0.28395286340771098  5.3919209180834402 0.27080088583913497  5.4321683297138001 0.25750484535368201  5.4796783517102101 0.24417450360139301  5.5367995942233401 0.23103836378280801  5.6972760718892399 0.20244959828563699  5.79399716929903 0.19011266269072899  5.8952108629053104 0.18116104157936799  5.9978661819629604 0.17509876732035501  6.09883561488415 0.17146871263111599  6.1951473763529403 0.16991805258692699  6.2831853071795898 0.169918051076658 
 0 8 0.43747280999575999 6 1 8
7 0 0  7 14 3  129.777248189944 0  129.75450443286101 -0.086777259086054701  129.732541070736 -0.17684242093041999  129.71136903977001 -0.27086346870800598  129.691118669465 -0.36949604393351598  129.672022149615 -0.47316142775032899  129.65439159753501 -0.58223334295416895  129.61827764572101 -0.84602169999172805  129.60440836196199 -0.97993887666737101  129.59509557955201 -1.1012401641029801  129.58902234588601 -1.2124356736031401  129.585448700147 -1.31564967486492  129.583919565776 -1.4119575093630099  129.58391956428801 -1.499995 
 0 8 0.43747280999575999 6 1 8
7 0 0  8 23 4  4.1243871460708501 0.30973318787548199  4.1464638259277802 0.305025432133399  4.2140037398968104 0.291055259410824  4.3005952811523898 0.27528752091825998  4.4229571880342897 0.26271392750998801  4.5373298302605596 0.25587003746192299  4.6636963397970099 0.25595570413389201  4.7245203338782202 0.25635781071483699  4.7798386362707097 0.25692257731995899  4.8066958859637898 0.25744766434887401  4.8316792028848496 0.25814278878149799  4.8547328410685102 0.258956904429267  4.8759244294364699 0.259851469159251  4.8954449717974597 0.260800444894146  4.91360884684729 0.26179029761228001  5.0180065924507398 0.26802390573771401  5.0815232470751601 0.27386997158996801  5.1300703100671701 0.279980786740812  5.1701543227844304 0.286099462621349  5.2061218299171603 0.29208963025733697  5.2401593794881096 0.29793544026919599  5.2722935228526104 0.30374156287199999  5.3003908146985301 0.30973318787548199 
 0 9 0.13408929868304101 7 0.27712492139493899 7 1 9
7 0 0  8 23 4  129.777248189944 -1.11022302462516e-16  129.76889046132101 0.047832597854741303  129.74423941075599 0.192363124346283  129.717439343775 0.36612836820221301  129.69999984712501 0.57266524274196695  129.68969583775501 0.73610350744076203  129.68982983916899 0.92714809656471298  129.69042744796801 1.0181606057551  129.69126255134 1.1012634558613399  129.692039351224 1.1417406340260701  129.69307015537601 1.1795745137415199  129.694281315518 1.21470714271921  129.69561729935501 1.2472502782531101  129.69704069057701 1.2774853872196701  129.69853218885299 1.30586364607775  129.70796657578299 1.4701779831091899  129.717022724906 1.57573469985492  129.72669514501499 1.66144837410655  129.73660112115101 1.7361711315364901  129.746539135587 1.80583494048896  129.75648886783199 1.8734516119799101  129.76661119462599 1.9391127996970901  129.777248189944 1.9999899999999999 
 0 9 0.13408929868304101 7 0.27712492139493899 7 1 9
1 0 0 1 0 
1 0 1.9999899999999999 1 0 
7 0 0  7 14 3  5.3003908146985301 0.69026681212451801  5.32709158168859 0.70307795470136503  5.3572972745833596 0.71604713659218799  5.3919209180835201 0.72919911416088601  5.4321683297139103 0.74249515464636295  5.4796783517099996 0.75582549639854302  5.5367995942233303 0.76896163621719105  5.6972760718892497 0.79755040171436498  5.7939971692990202 0.80988733730927698  5.8952108629055298 0.81883895842063104  5.9978661819625101 0.824901232679637  6.0988356148844503 0.82853128736888904  6.1951473763529004 0.83008194741307395  6.2831853071795898 0.83008194892334197 
 0 8 0.43747280999580501 6 1 8
7 0 0  7 14 3  140.222751810056 -2.2204460492503101e-16  140.24549556713899 -0.086777259086150596  140.267458929264 -0.17684242092970101  140.28863096022999 -0.27086346870817302  140.308881330535 -0.369496043933842  140.327977850385 -0.47316142774983699  140.34560840246499 -0.58223334295415197  140.38172235427899 -0.84602169999173904  140.39559163803801 -0.97993887666740098  140.40490442044799 -1.10124016410312  140.41097765411399 -1.2124356736027599  140.41455129985201 -1.3156496748652  140.416080434224 -1.4119575093629699  140.41608043571199 -1.499995 
 0 8 0.43747280999580501 6 1 8
7 0 0  7 14 3  0.98279449248105699 0.69026681212451801  0.95609372549100202 0.70307795470136303  0.925888032596203 0.71604713659219599  0.89126438909609296 0.72919911416088001  0.85101697746569704 0.74249515464635696  0.80350695546956197 0.75582549639854901  0.74638571295627298 0.76896163621718705  0.58590923529035799 0.79755040171436098  0.48918813788052001 0.80988733730928797  0.387974444274163 0.81883895842061105  0.28531912521697 0.82490123267965298  0.18434969229520201 0.82853128736888304  0.088037930826679905 0.83008194741307395  0 0.83008194892334197 
 0 8 0.43747280999587701 6 1 8
7 0 0  7 14 3  140.222751810056 -2.9999899999999999  140.24549556713899 -2.9132127409138602  140.267458929264 -2.8231475790702398  140.28863096022999 -2.7291265312918802  140.308881330535 -2.6304939560662102  140.327977850385 -2.52682857225011  140.34560840246499 -2.4177566570458802  140.38172235427899 -2.1539683000082999  140.39559163803801 -2.02005112333253  140.40490442044799 -1.8987498358970101  140.41097765411399 -1.7875543263971201  140.41455129985201 -1.6843403251348701  140.416080434224 -1.58803249063703  140.41608043571199 -1.499995 
 0 8 0.43747280999587701 6 1 8
1 0 -2.9999899999999999 1 0 
1 0 1.9999899999999999 1 0 
7 0 0  8 23 4  0.98279449248105699 0.69026681212451702  1.00487117233794 0.69497456786659095  1.0724110863070999 0.70894474058920198  1.1590026275623 0.72471247908169101  1.28136453444549 0.73728607249010203  1.3957371766694699 0.74412996253799202  1.52210368620789 0.74404429586614096  1.58292768028841 0.74364218928516301  1.6382459826809499 0.74307742268004096  1.6651032323739701 0.74255233565112799  1.6900865492949699 0.74185721121850601  1.7131401874786201 0.741043095570736  1.7343317758466099 0.74014853084075005  1.75385231820767 0.739199555105852  1.77201619325754 0.73820970238771799  1.87641393886093 0.73197609426228805  1.9399305934852999 0.72613002841004204  1.9884776564772599 0.72001921325920504  2.0285616691945001 0.71390053737867099  2.06452917632725 0.70791036974267796  2.0985667258982499 0.70206455973081205  2.1307008692628102 0.69625843712800095  2.1587981611087401 0.69026681212451702 
 0 9 0.134089298682529 7 0.27712492139398698 7 1 9
7 0 0  8 23 4  140.222751810056 1.9999899999999999  140.23110953867899 1.95215740214536  140.25576058924401 1.8076268756536  140.28256065622401 1.6338616317981001  140.30000015287499 1.42732475725673  140.31030416224499 1.26388649256107  140.31017016083101 1.07284190343431  140.30957255203199 0.98182939424492599  140.30873744866 0.89872654413861497  140.307960648776 0.85824936597397194  140.30692984462399 0.82041548625861305  140.305718684482 0.78528285728094704  140.30438270064499 0.752739721746982  140.30295930942299 0.72250461278032496  140.30146781114701 0.69412635392217803  140.29203342421701 0.52981201689084201  140.282977275094 0.42425530014520502  140.27330485498501 0.33854162589367498  140.26339887884899 0.26381886846376401  140.253460864413 0.194155059511253  140.24351113216801 0.12653838802019601  140.23338880537401 0.060877200302913999  140.222751810056 -1.11022302462516e-16 
 0 9 0.134089298682529 7 0.27712492139398698 7 1 9
1 0 -2.9999899999999999 1 0 
1 0 0 1 0 
1 0 0 1 0 
1 0 0 1 0 
7 0 0  8 30 5  2.1587981611087401 0.69026681212451702  2.1811023934436702 0.70096847850797095  2.2060041304738101 0.71184896111213602  2.2338673407385499 0.72294295654801199  2.2657684500792898 0.73426187652519703  2.3027586072635899 0.74580953842909803  2.3460726553487001 0.75757605971885  2.3982848087845499 0.76950995614594397  2.4989338689431402 0.78744051157834305  2.5357606543556201 0.79328136142019501  2.5767552044182298 0.79912089224070904  2.62313092805294 0.804975538959111  2.6764508311791699 0.81074827249224402  2.7386275167138399 0.81622859975457196  2.81192318457131 0.82109256365817995  2.99642578008205 0.82917042989566403  3.0891394205662102 0.83107019365006696  3.1790317347056698 0.83139168184992196  3.26828733037522 0.83027405824051903  3.3587350679407701 0.82766251391762702  3.4517991191869202 0.82321190453710003  3.5468243714738299 0.81627429617792402  3.7489136490231201 0.79458033134343897  3.83765440107475 0.78092454364438302  3.91687088110162 0.76517464088753595  3.9812549457986601 0.74772568866233602  4.0346103475882202 0.72980295704944897  4.07584792367122 0.71288070713768104  4.1065865608230103 0.698807609310093  4.1243871460708501 0.69026681212451801 
 0 9 0.37194465001003002 7 0.55769377878861204 7 0.76574673568217999 7 1 9
7 0 0  8 30 5  140.222751810056 -2.9999899999999999  140.24175059171401 -2.9275014400733599  140.26034265188699 -2.85223869347463  140.27853834103999 -2.77385779434755  140.296306795205 -2.6914999761838301  140.313588716167 -2.60445301670602  140.33029640545899 -2.5120345452372699  140.346301052152 -2.4126973125578499  140.36895132066201 -2.2472521918599502  140.37613193239099 -2.1899805575931199  140.38306184339999 -2.1298873560910399  140.38975381957599 -2.06608001585044  140.396120658923 -1.9974275582217  140.401975191563 -1.92256059740885  140.40703027973501 -1.8398713404695599  140.415231870594 -1.64406597621643  140.417042071281 -1.55137626620844  140.41735718294501 -1.4628734381942301  140.41627079050701 -1.37483937361692  140.413735977154 -1.28354719047611  140.409333727747 -1.18554484162348  140.402222499272 -1.0767853535665399  140.37785836099201 -0.81430112264184096  140.36165932066501 -0.68046083564478499  140.34168567936899 -0.54223405439158001  140.31768302793901 -0.40544638711293801  140.29049283727699 -0.27285766406429901  140.26243885100399 -0.15417028494408699  140.237914377744 -0.057851746300473503  140.222751810056 -4.4408920985006301e-16 
 0 9 0.37194465001003002 7 0.55769377878861204 7 0.76574673568217999 7 1 9
7 0 0  8 23 4  4.1243871460708501 0.69026681212451702  4.1464638259277802 0.69497456786660095  4.2140037398968699 0.70894474058919399  4.3005952811520496 0.72471247908167502  4.4229571880351202 0.737286072490133  4.5373298302598597 0.74412996253798103  4.6636963397972098 0.74404429586613996  4.7245203338782602 0.74364218928516301  4.7798386362705498 0.74307742268004295  4.8066958859635198 0.74255233565113099  4.8316792028844899 0.741857211218512  4.8547328410680697 0.74104309557074899  4.8759244294359601 0.74014853084077104  4.8954449717968904 0.73919955510588198  4.9136088468466799 0.73820970238775396  5.0180065924503801 0.73197609426232302  5.0815232470749203 0.72613002841006602  5.13007031006698 0.72001921325921603  5.1701543227842697 0.71390053737867398  5.20612182991702 0.70791036974267996  5.2401593794880101 0.70206455973081705  5.2722935228525696 0.69625843712800894  5.3003908146985301 0.69026681212451702 
 0 9 0.13408929868302699 7 0.27712492139455103 7 1 9
7 0 0  8 23 4  140.222751810056 -1.11022302462516e-16  140.23110953867899 0.047832597854735599  140.25576058924401 0.19236312434647401  140.282560656225 0.36612836820136901  140.30000015287499 0.57266524274376196  140.31030416224499 0.736103507439271  140.31017016083101 0.92714809656515595  140.30957255203199 1.01816060575515  140.30873744866 1.1012634558610901  140.307960648776 1.14174063402566  140.30692984462399 1.1795745137409701  140.305718684482 1.2147071427185301  140.30438270064499 1.24725027825233  140.30295930942299 1.2774853872187899  140.30146781114701 1.3058636460768001  140.29203342421701 1.4701779831085799  140.282977275094 1.5757346998544901  140.27330485498501 1.6614483741061901  140.26339887884899 1.7361711315361901  140.253460864413 1.8058349404887  140.24351113216801 1.87345161197973  140.23338880537401 1.9391127996969999  140.222751810056 1.9999899999999999 
 0 9 0.13408929868302699 7 0.27712492139455103 7 1 9
1 6.2831853071795898 0 0 1 
1 0 0 0 1 
1 0 1 1 0 
Curves 16
7 0 0  4 5 2  0 0 0  1.4781015026447299 0 -0.00026716801345250102  2.9580871842533099 0 0.48715994950555402  4.18298283403466 0 1.45110660304136  5 0 2.6833752096446002 
 0 5 1 5
7 0 0  7 14 3  0.99999499999999997 1.499995 329.77724818994398  0.99999499999999997 1.4132177409139499 329.75450443286098  0.99999499999999797 1.3231525790695899 329.73254107073598  0.99999500000000197 1.2291315312920199 329.71136903976998  0.99999500000000097 1.13049895606649 329.69111866946503  0.99999499999999697 1.02683357224966 329.67202214961497  0.99999499999999997 0.91776165704585799 329.65439159753498  0.99999500000000097 0.65397330000829001 329.61827764572098  0.99999499999999497 0.52005612333263695 329.60440836196199  0.99999500000000496 0.39875483589702398 329.59509557955198  0.99999499999999997 0.28755932639688098 329.58902234588601  0.99999499999999697 0.18434532513507401 329.58544870014703  0.99999499999999997 0.0880374906370118 329.583919565776  0.99999499999999997 0 329.58391956428801 
 0 8 0.43747280999578197 6 1 8
7 0 0  8 23 4  0.99999499999999997 1.499995 329.77724818994398  0.95216240214526005 1.499995 329.76889046132101  0.80763187565362005 1.499995 329.74423941075599  0.63386663179803104 1.49999499999999 329.71743934377503  0.42732975725774502 1.49999500000001 329.69999984712501  0.263891492559368 1.49999499999999 329.68969583775498  0.072846903435304103 1.499995 329.68982983916902  -0.0181656057551496 1.499995 329.69042744796798  -0.101268455861362 1.499995 329.69126255134  -0.141745634026093 1.499995 329.69203935122403  -0.17957951374154599 1.499995 329.69307015537601  -0.21471214271924399 1.499995 329.69428131551803  -0.24725527825316199 1.499995 329.69561729935498  -0.27749038721972702 1.499995 329.69704069057701  -0.305868646077819 1.499995 329.69853218885299  -0.470182983109242 1.499995 329.70796657578302  -0.57573969985495599 1.499995 329.71702272490597  -0.66145337410657001 1.499995 329.72669514501501  -0.73617613153650896 1.499995 329.73660112115101  -0.80583994048897001 1.499995 329.746539135587  -0.87345661197991997 1.499995 329.75648886783199  -0.93911779969709497 1.499995 329.76661119462602  -0.99999499999999997 1.499995 329.77724818994398 
 0 9 0.13408929868289299 7 0.27712492139483702 7 1 9
7 0 0  8 30 5  -0.99999499999999997 1.499995 329.77724818994398  -0.99999499999999997 1.42750644007326 329.75824940828602  -0.99999500000000197 1.35224369347494 329.73965734811298  -0.99999499999999997 1.27386279434782 329.72146165895998  -0.99999499999999897 1.1915049761838801 329.703693204795  -0.99999499999999997 1.1044580167060101 329.68641128383302  -0.99999500000000097 1.0120395452373001 329.66970359454098  -0.99999499999999997 0.91270231255773504 329.653698947848  -0.99999499999999997 0.74725719185992601 329.63104867933799  -0.99999499999999997 0.689985557593086 329.62386806760901  -0.99999499999999997 0.62989235609100003 329.61693815659999  -0.99999499999999997 0.56608501585039905 329.61024618042399  -0.99999499999999997 0.49743255822166099 329.603879341077  -0.99999499999999997 0.422565597408816 329.598024808437  -0.99999499999999997 0.33987634046954002 329.59296972026499  -0.99999499999999997 0.144070976216575 329.58476812940597  -0.99999499999999297 0.051381266208798702 329.582957928719  -0.99999500000001595 -0.037121561806616299 329.58264281705499  -0.99999499999998098 -0.12515562638248101 329.58372920949199  -0.99999500000001296 -0.21644780952442799 329.58626402284699  -0.99999499999999597 -0.31445015837621398 329.59066627225297  -0.99999499999999997 -0.423209646433507 329.597777500728  -0.99999499999999997 -0.68569387735819898 329.62214163900802  -0.99999499999999697 -0.81953416435467596 329.63834067933499  -0.99999500000001396 -0.95776094561069103 329.65831432063101  -0.99999499999997199 -1.09454861288405 329.68231697206198  -0.99999500000002695 -1.22713733593743 329.70950716272301  -0.99999499999998898 -1.34582471505562 329.73756114899697  -0.99999499999999997 -1.4421432536996099 329.762085622256  -0.99999499999999997 -1.499995 329.77724818994398 
 0 9 0.371944650010051 7 0.55769377878878701 7 0.76574673568224605 7 1 9
7 0 0  7 14 3  0.99999499999999997 -1.499995 329.77724818994398  0.99999499999999997 -1.4132177409139499 329.75450443286098  0.99999500000000296 -1.3231525790695799 329.73254107073598  0.99999499999999897 -1.2291315312919899 329.71136903976998  0.99999499999999797 -1.13049895606648 329.69111866946503  0.99999500000000097 -1.02683357224967 329.67202214961497  0.99999499999999997 -0.91776165704583101 329.65439159753498  0.99999499999999997 -0.65397330000827203 329.61827764572098  0.99999500000000296 -0.52005612333262896 329.60440836196199  0.99999499999999197 -0.39875483589701999 329.59509557955198  0.99999500000000696 -0.287559326396857 329.58902234588601  0.99999499999999597 -0.18434532513507901 329.58544870014703  0.99999499999999997 -0.088037490636994994 329.583919565776  0.99999499999999997 -2.2204460492503101e-16 329.58391956428801 
 0 8 0.43747280999575999 6 1 8
7 0 0  8 23 4  -0.99999499999999997 -1.499995 329.77724818994398  -0.95216240214525905 -1.499995 329.76889046132101  -0.80763187565371697 -1.499995 329.74423941075599  -0.63386663179778702 -1.49999499999999 329.71743934377503  -0.42732975725803302 -1.49999500000001 329.69999984712501  -0.26389149255923799 -1.499995 329.68969583775498  -0.072846903435287005 -1.499995 329.68982983916902  0.018165605755096001 -1.499995 329.69042744796798  0.101268455861345 -1.499995 329.69126255134  0.14174563402606899 -1.499995 329.69203935122403  0.17957951374151601 -1.499995 329.69307015537601  0.214712142719206 -1.499995 329.69428131551803  0.247255278253115 -1.499995 329.69561729935498  0.27749038721967001 -1.499995 329.69704069057701  0.30586864607775399 -1.499995 329.69853218885299  0.47018298310919099 -1.499995 329.70796657578302  0.57573969985492002 -1.499995 329.71702272490597  0.66145337410654603 -1.499995 329.72669514501501  0.73617613153649297 -1.499995 329.73660112115101  0.80583994048895902 -1.499995 329.746539135587  0.87345661197991098 -1.499995 329.75648886783199  0.93911779969708797 -1.499995 329.76661119462602  0.99999499999999897 -1.499995 329.77724818994398 
 0 9 0.13408929868304101 7 0.27712492139493899 7 1 9
1 0.99999499999999997 -1.499995 200 0 0 1 
7 0 0  7 14 3  0.99999499999999897 -1.499995 340.22275181005602  0.99999499999999897 -1.41321774091385 340.24549556713902  0.99999500000000296 -1.3231525790703 340.26745892926402  0.99999499999999897 -1.2291315312918301 340.28863096023002  0.99999499999999797 -1.13049895606616 340.30888133053497  0.99999500000000097 -1.02683357225016 340.32797785038503  0.99999499999999997 -0.917761657045848 340.34560840246502  0.99999499999999997 -0.65397330000826104 340.38172235427902  0.99999499999999697 -0.52005612333259899 340.39559163803801  0.99999500000000396 -0.39875483589687799 340.40490442044802  0.99999499999999697 -0.28755932639724002 340.41097765411399  0.99999500000000097 -0.18434532513479701 340.41455129985201  0.99999499999999997 -0.088037490637031104 340.416080434224  0.99999499999999997 -2.2204460492503101e-16 340.41608043571199 
 0 8 0.43747280999580501 6 1 8
7 0 0  7 14 3  0.99999499999999997 1.499995 340.22275181005602  0.99999499999999997 1.41321774091386 340.24549556713902  0.99999499999999997 1.3231525790702401 340.26745892926402  0.99999499999999897 1.22913153129188 340.28863096023002  0.99999499999999997 1.13049895606621 340.30888133053497  0.99999500000000097 1.0268335722501101 340.32797785038503  0.99999499999999897 0.91776165704587498 340.34560840246502  0.99999499999999997 0.65397330000829801 340.38172235427902  0.99999500000000396 0.52005612333252904 340.39559163803801  0.99999499999999097 0.39875483589701299 340.40490442044802  0.99999500000000796 0.28755932639712201 340.41097765411399  0.99999499999999697 0.18434532513486901 340.41455129985201  0.99999499999999997 0.088037490637026705 340.416080434224  0.99999499999999997 0 340.41608043571199 
 0 8 0.43747280999587701 6 1 8
1 0.99999499999999997 1.499995 200 0 0 1 
7 0 0  8 23 4  0.99999499999999997 1.499995 340.22275181005602  0.95216240214535697 1.499995 340.23110953867899  0.80763187565359995 1.499995 340.25576058924401  0.63386663179810399 1.49999500000001 340.28256065622401  0.427329757256729 1.49999499999999 340.30000015287499  0.26389149256106897 1.49999500000001 340.31030416224502  0.072846903434312396 1.499995 340.31017016083098  -0.0181656057550744 1.499995 340.30957255203202  -0.101268455861385 1.499995 340.30873744866  -0.14174563402602799 1.499995 340.30796064877597  -0.179579513741387 1.499995 340.30692984462399  -0.21471214271905301 1.499995 340.30571868448197  -0.24725527825301799 1.499995 340.30438270064502  -0.277490387219676 1.499995 340.30295930942299  -0.30586864607782199 1.499995 340.30146781114701  -0.47018298310915801 1.499995 340.29203342421698  -0.57573969985479501 1.499995 340.28297727509403  -0.66145337410632499 1.499995 340.27330485498499  -0.73617613153623596 1.499995 340.26339887884899  -0.80583994048874696 1.499995 340.253460864413  -0.87345661197980395 1.499995 340.24351113216801  -0.93911779969708598 1.499995 340.23338880537398  -0.99999499999999997 1.499995 340.22275181005602 
 0 9 0.134089298682529 7 0.27712492139398698 7 1 9
1 -0.99999499999999997 1.499995 200 0 0 1 
1 -0.99999499999999997 -1.499995 200 0 0 1 
7 0 0  8 30 5  -0.99999499999999997 1.499995 340.22275181005602  -0.99999499999999997 1.4275064400733599 340.24175059171398  -0.99999499999999997 1.35224369347463 340.26034265188702  -0.99999500000000097 1.27386279434755 340.27853834104002  -0.99999500000000097 1.1915049761838299 340.296306795205  -0.99999499999999897 1.1044580167060201 340.31358871616698  -0.99999499999999797 1.0120395452372699 340.33029640545902  -0.99999499999999997 0.91270231255784995 340.346301052152  -0.99999499999999997 0.74725719185994899 340.36895132066201  -0.99999499999999997 0.68998555759311897 340.37613193239099  -0.99999499999999997 0.62989235609104099 340.38306184340001  -0.99999499999999997 0.56608501585044202 340.38975381957601  -0.99999499999999997 0.49743255822170102 340.396120658923  -0.99999499999999997 0.42256559740884703 340.401975191563  -0.99999499999999997 0.33987634046956 340.40703027973501  -0.99999499999999997 0.144070976216433 340.41523187059403  -0.99999499999999697 0.051381266208435597 340.417042071281  -0.99999500000000296 -0.037121561805770802 340.41735718294501  -0.99999500000000097 -0.12515562638307901 340.41627079050699  -0.99999499999999697 -0.21644780952388901 340.41373597715398  -0.99999500000000097 -0.31445015837652401 340.40933372774703  -0.99999499999999997 -0.42320964643346398 340.402222499272  -0.99999499999999997 -0.68569387735815901 340.37785836099198  -0.99999499999999597 -0.81953416435521498 340.36165932066501  -0.99999500000001396 -0.95776094560841996 340.34168567936899  -0.99999499999997699 -1.0945486128870601 340.31768302793898  -0.99999500000001995 -1.2271373359357001 340.29049283727699  -0.99999499999999297 -1.3458247150559099 340.26243885100399  -0.99999499999999997 -1.44214325369953 340.237914377744  -0.99999499999999997 -1.499995 340.22275181005602 
 0 9 0.37194465001003002 7 0.55769377878861204 7 0.76574673568217999 7 1 9
7 0 0  8 23 4  -0.99999499999999997 -1.499995 340.22275181005602  -0.95216240214526404 -1.499995 340.23110953867899  -0.80763187565352601 -1.499995 340.25576058924401  -0.63386663179863101 -1.49999500000001 340.28256065622497  -0.42732975725623801 -1.49999499999999 340.30000015287499  -0.26389149256072902 -1.499995 340.31030416224502  -0.072846903434844096 -1.499995 340.31017016083098  0.018165605755152098 -1.499995 340.30957255203202  0.10126845586109399 -1.499995 340.30873744866  0.14174563402565599 -1.499995 340.30796064877597  0.17957951374096701 -1.499995 340.30692984462399  0.214712142718534 -1.499995 340.30571868448197  0.24725527825232901 -1.499995 340.30438270064502  0.27749038721878599 -1.499995 340.30295930942299  0.30586864607680297 -1.499995 340.30146781114701  0.47018298310858397 -1.499995 340.29203342421698  0.57573969985448803 -1.499995 340.28297727509403  0.66145337410619198 -1.499995 340.27330485498499  0.736176131536185 -1.499995 340.26339887884899  0.805839940488702 -1.499995 340.253460864413  0.87345661197972901 -1.499995 340.24351113216801  0.93911779969700104 -1.499995 340.23338880537398  0.99999499999999897 -1.499995 340.22275181005602 
 0 9 0.13408929868302699 7 0.27712492139455103 7 1 9
7 0 0  4 5 2  5 0 8.3166247903553998  4.1829828340346698 0 9.5488933969586007  2.9580871842532801 0 10.5128400504945  1.4781015026447499 0 11.0002671680134  0 0 11 
 0 5 1 5
Polygon3D 0
PolygonOnTriangulations 0
Surfaces 6
7 0 0 0 0 0 1 
7 0 0  4 5 2  0 0 0  1.4781015026447299 0 -0.00026716801345250102  2.9580871842533099 0 0.48715994950555402  4.18298283403466 0 1.45110660304136  5 0 2.6833752096446002 
 0 5 1 5
1 0.99999499999999997 -1.499995 200 1 0 0 0 0 1 0 -1 0 
1 -0.99999499999999997 1.499995 200 0 1 0 0 -0 1 1 0 -0 
1 -0.99999499999999997 -1.499995 200 1 0 0 0 0 1 0 -1 0 
1 -0.99999499999999997 -1.499995 200 0 1 0 0 -0 1 1 0 -0 
7 0 0 0 0 0 1 
7 0 0  4 5 2  5 0 8.3166247903553998  4.1829828340346698 0 9.5488933969586007  2.9580871842532801 0 10.5128400504945  1.4781015026447499 0 11.0002671680134  0 0 11 
 0 5 1 5
Triangulations 0

TShapes 45
Ve
3.47675851175636e-05
0.999995 0 329.583919564288
0 0

0101100
*
Ve
1e-07
0 0 0
0 0

0101100
*
Ed
 1e-07 1 1 0
1  1 0 0 0.169918051076658
3  1 2CN 1 0 0 0.169918051076658
0

0101000
-45 2 +44 0 *
Ve
0.250433930044045
0.999995 1.499995 329.777248189944
0 0

0101100
*
Ed
 3.47675849229275e-05 1 1 0
1  2 0 0 1
2  3 1 1 0 1
2  4 2 0 0 1
0

0101000
+42 0 -45 0 *
Ed
 1e-07 1 1 1
2  5 1 0 0 6.28318530717959
0

0101100
+44 0 -44 0 *
Ve
0.250433930044045
-0.999995 1.499995 329.777248189944
0 0

0101100
*
Ed
 0.250433930044045 1 1 0
1  3 0 0 1
2  6 1 1 0 1
2  7 3 0 0 1
0

0101000
+42 0 -39 0 *
Ve
0.250433930043185
-0.999995 -1.499995 329.777248189944
0 0

0101100
*
Ed
 0.0361812393930699 1 1 0
1  4 0 0 1
2  8 1 1 0 1
2  9 4 0 0 1
0

0101000
+39 0 -37 0 *
Ve
0.250433930043185
0.999995 -1.499995 329.777248189944
0 0

0101100
*
Ed
 3.47675851175636e-05 1 1 0
1  5 0 0 1
2  10 1 1 0 1
2  11 2 0 0 1
0

0101000
+35 0 -45 0 *
Ed
 0.250433930043185 1 1 0
1  6 0 0 1
2  12 1 1 0 1
2  13 5 0 0 1
0

0101000
+37 0 -35 0 *
Wi

0101100
-43 1 +41 0 +40 1 -38 0 +43 1 -36 0 -34 0 -33 0 *
Fa
0  1e-07 1 1

0111000
+32 0 *
Ve
0.250433930036925
0.999995 -1.499995 340.222751810056
0 0

0101100
*
Ed
 1e-07 1 1 0
1  7 0 129.777248189944 140.222751810056
2  14 2 0 129.777248189944 140.222751810056
2  15 5 0 129.777248189944 140.222751810056
0

0101000
+35 0 -30 0 *
Ve
3.4767588430095e-05
0.999995 0 340.416080435712
0 0

0101100
*
Ed
 3.47675882164328e-05 1 1 0
1  8 0 0 1
2  16 6 1 0 1
2  17 2 0 0 1
0

0101000
+30 0 -28 0 *
Ve
0.250433930043036
0.999995 1.499995 340.222751810056
0 0

0101100
*
Ed
 3.4767588430095e-05 1 1 0
1  9 0 0 1
2  18 6 1 0 1
2  19 2 0 0 1
0

0101000
+26 0 -28 0 *
Ed
 1e-07 1 1 0
1  10 0 129.777248189944 140.222751810056
2  20 2 0 129.777248189944 140.222751810056
2  21 3 0 129.777248189944 140.222751810056
0

0101000
+42 0 -26 0 *
Wi

0101100
-29 0 +34 0 -27 0 -41 0 +25 0 +24 0 *
Fa
0  1e-07 2 0

0111000
+23 0 *
Ve
0.250433930043036
-0.999995 1.499995 340.222751810056
0 0

0101100
*
Ed
 0.250433930043036 1 1 0
1  11 0 0 1
2  22 6 1 0 1
2  23 3 0 0 1
0

0101000
+26 0 -21 0 *
Ed
 1e-07 1 1 0
1  12 0 129.777248189944 140.222751810056
2  24 4 0 129.777248189944 140.222751810056
2  25 3 0 129.777248189944 140.222751810056
0

0101000
+39 0 -21 0 *
Wi

0101100
-24 0 +38 0 -20 0 +19 0 *
Fa
0  1e-07 3 0

0111000
+18 0 *
Ve
0.250433930036925
-0.999995 -1.499995 340.222751810056
0 0

0101100
*
Ed
 1e-07 1 1 0
1  13 0 129.777248189944 140.222751810056
2  26 4 0 129.777248189944 140.222751810056
2  27 5 0 129.777248189944 140.222751810056
0

0101000
+37 0 -16 0 *
Ed
 0.0361812393919466 1 1 0
1  14 0 0 1
2  28 6 1 0 1
2  29 4 0 0 1
0

0101000
+21 0 -16 0 *
Wi

0101100
-15 0 -36 0 +14 0 +19 0 *
Fa
0  1e-07 4 0

0111000
+13 0 *
Ed
 0.250433930036925 1 1 0
1  15 0 0 1
2  30 6 1 0 1
2  31 5 0 0 1
0

0101000
+16 0 -30 0 *
Wi

0101100
-29 0 -33 0 +11 0 +15 0 *
Fa
0  1e-07 5 0

0111000
+10 0 *
Ve
1e-07
0 0 11
0 0

0101100
*
Ed
 1e-07 1 1 0
1  16 0 0.830081948923342 1
3  32 33CN 6 0 0.830081948923342 1
0

0101000
+28 2 -8 0 *
Ed
 1e-07 1 1 1
2  34 6 0 0 6.28318530717959
0

0101100
+8 0 -8 0 *
Wi

0101100
-7 1 -25 0 -6 1 +20 0 +7 1 +14 0 +27 0 +11 0 *
Fa
0  1e-07 6 1

0111000
+5 0 *
Sh

0101100
+31 0 +22 0 +17 0 -12 0 -9 0 +4 0 *
So

0100000
+3 0 *
Co

0100000
+2 0 *

+1 0 
0

