DBRep_DrawableShape

CASCADE Topology V1, (c) Matra-Datavision
Locations 20
1
0.0022521568351445 -0.998620523648961 -0.052459294092318 20.4140065214507 
-0.999079714569789 -9.49761103097302e-17 -0.0428920031608272 36.139710515133 
0.0428328346568181 0.0525076160863774 -0.997701507730738 12.1980281239855 
1
0.0022521568351445 -0.999079714569789 0.0428328346568181          35.538 
-0.998620523648961 -9.42455628918256e-17 0.0525076160863774 19.7453565044793 
-0.052459294092318 -0.0428920031608272 -0.997701507730738          14.791 
2  1 1 2 1 0
1
0.00225248613404762 -0.999079714569789 0.0428328173409634 35.6247238845893 
-0.998620119940729 -9.42455628918256e-17 0.0525152934826019 19.8516798298633 
-0.0524669644231466 -0.0428920031608272 -0.997701104394032 12.7709480677791 
2  1 1 4 1 0
1
0.999079714569549 0.0022521569417752 0.0428328346568201               0 
1.06581680980903e-10 -0.998620523648961 0.0525076160863775               0 
0.0428920031664281 -0.0524592940877402 -0.997701507730738               0 
2  6 1 1 1 2 1 0
2  4 -1 1 -1 6 -1 0
2  2 -1 1 -1 6 -1 0
2  6 -1 0
2  6 1 1 1 4 1 0
1
0.0022521568351445 -0.998620523648961 -0.052459294092318 20.4140065214507 
-0.999079714569789 -9.49761103097302e-17 -0.0428920031608272 36.139710515133 
0.0428328346568181 0.0525076160863774 -0.997701507730738 12.1980281239855 
1
0.0022521568351445 -0.999079714569789 0.0428328346568181          35.538 
-0.998620523648961 -9.42455628918256e-17 0.0525076160863774 19.7453565044793 
-0.052459294092318 -0.0428920031608272 -0.997701507730738          14.791 
2  12 1 13 1 0
1
0.00225248613404762 -0.999079714569789 0.0428328173409634 35.6247238845893 
-0.998620119940729 -9.42455628918256e-17 0.0525152934826019 19.8516798298633 
-0.0524669644231466 -0.0428920031608272 -0.997701104394032 12.7709480677791 
2  12 1 15 1 0
2  6 1 12 1 13 1 0
2  13 -1 12 -1 6 -1 0
2  15 -1 12 -1 6 -1 0
2  6 1 12 1 15 1 0
Curve2ds 4
1 0 0 0 1 
8 0 1
1 0 0.15069841942282058 1 0 
8 0 1
1 0 0.50509823748492511 1 0 
1 1 0 0 1 
Curves 6
7 0 0  3 4 2  35.538000000004658 19.745356504381821 14.790999999891296  35.566908537511132 19.780794700645171 14.117635939641929  35.59581618157361 19.81623746123093 13.444292690306217  35.624723884593635 19.851679829781833 12.770948067677931 
 0.15069841942282058 4 0.50509823748492511 4
1 36.139710517311755 -20.414006517593972 -12.198028123985388 0 1 0 
7 0 0  3 4 2  35.540252156947162 18.746735980731177 14.738540705786663  35.569160933611045 18.782174470177992 14.065171074864464  35.598068687403661 18.817617365312096 13.391825269593927  35.62697637083518 18.853059709839595 12.718481103239213 
 0.15069841942282058 4 0.50509823748492511 4
7 0 0  3 4 2  35.540252156947162 18.746735980731177 14.738540705786663  35.569160933611045 18.782174470177992 14.065171074864461  35.598068687403661 18.817617365312096 13.391825269593932  35.62697637083518 18.853059709839595 12.718481103239213 
 0.15069841942282058 4 0.50509823748492511 4
1 36.139710517311755 -19.414006517593972 -12.198028123985388 1 0 -6.9388939039072284e-18 
7 0 0  3 4 2  36.539331871516708 18.746735980837759 14.781432708953092  36.568240648180584 18.782174470284573 14.10806307803089  36.597148401973222 18.81761736541867 13.434717272760356  36.626056085404727 18.853059709946177 12.761373106405642 
 0.15069841942282058 4 0.50509823748492511 4
Polygon3D 0
PolygonOnTriangulations 8
4 1 3 4 2 
p 0.00836966031346933 1 0.150698419422821 0.308209449672645 0.406653843578785 0.505098237484925 
2 2 6 
p 0.00836966031346933 1 0 1 
2 1 5 
p 0.00836966031346933 1 0 1 
4 5 7 8 6 
p 0.00836966031346933 1 0.150698419422821 0.308209449672645 0.406653843578785 0.505098237484925 
4 1 3 4 2 
p 0.00836966031346933 1 0.150698419422821 0.308209449672645 0.406653843578785 0.505098237484925 
2 1 5 
p 0.00836966031346933 1 0 1 
2 2 6 
p 0.00836966031346933 1 0 1 
4 5 7 8 6 
p 0.00836966031346933 1 0.150698419422821 0.308209449672645 0.406653843578785 0.505098237484925 
Surfaces 2
1 35.58248834406001 19.299207002762575 13.754736856375205 0.9990797145695488 1.0658156345336178e-10 0.042892003166428758 0.002252409340827724 -0.99862021422238845 -0.052465173197011362 0.04283282138489463 0.052513500611090932 -0.99770119858892559 
9 0 0 0 0 1 3 2 4 2 2 35.540252156947162 18.746735980731177 14.738540705786663  35.569160933611045 18.782174470177992 14.065171074864461  35.598068687403661 18.817617365312096 13.391825269593932  35.62697637083518 18.853059709839595 12.718481103239213  
36.539331871516708 18.746735980837759 14.781432708953092  36.568240648180584 18.782174470284573 14.10806307803089  36.597148401973222 18.81761736541867 13.434717272760356  36.626056085404727 18.853059709946177 12.761373106405642  

0 2
1 2

0.15069841942282058 4
0.50509823748492511 4

Triangulations 2
9 8 1 0.00836966031346933
35.538 19.7453565044798 14.791 35.6247238845893 19.8516798298638 12.7709480677792 35.5765442708444 19.7926097023906 13.8931916377008 35.6006341253113 19.8221445381392 13.3320687441276 35.5402521569418 18.7467359808308 14.7385407059123 35.62697637083 18.853059709923 12.7184811033606 35.5787966699754 18.7939894756508 13.8407267023217 35.6028865979394 18.8235244015087 13.2796020967856 35.582488060792 19.2992072535073 13.7547434545121 -0.500001842249709 -1.01235766961175 -0.500000752042851 1.01234860304779 -0.499999352168667 -0.112480799736809 -0.499999766161628 0.449934997785574 0.499998157732925 -1.01236356226616 0.499999247955532 1.01235039839658 0.500000647831309 -0.1124810381027 0.500000233837381 0.449936475327204 -5.97209200203785e-07 -6.581934789196e-06 3 1 9 2 4 6 3 9 4 5 7 9 8 6 4 8 9 7 8 4 9 5 9 1 
8 6 1 0.00836966031346933
35.5402521569418 18.7467359808308 14.7385407059123 35.62697637083 18.853059709923 12.7184811033606 35.5787966699754 18.7939894756508 13.8407267023217 35.6028865979394 18.8235244015087 13.2796020967856 36.5393318715113 18.7467359809374 14.7814327090787 36.6260560853995 18.8530597100296 12.761373106527 36.5778763845449 18.7939894757574 13.8836187054881 36.6019663125089 18.8235244016153 13.322494099952 0 0.150698419422821 0 0.505098237484925 0 0.308209449672645 0 0.406653843578785 1 0.150698419422821 1 0.505098237484925 1 0.308209449672645 1 0.406653843578785 3 1 5 2 4 8 3 7 4 5 7 3 8 6 2 7 8 4 

TShapes 16
Ve
1.00011353724311e-07
35.538 19.7453565044798 14.791
0 0

0101100
*
Ed
 1e-07 1 1 0
1  1 0 0.150698419422821 0.505098237484925
6  1 1 0
0

0101000
+16 3 -16 5 *
Ve
1.00011354890195e-07
35.5402521569418 18.7467359808308 14.7385407059123
0 0

0101100
*
Ed
 1e-07 1 1 0
1  2 0 0 1
6  2 1 8
6  3 1 9
0

0101000
+16 10 -14 10 *
Ed
 1e-07 1 1 0
1  3 0 0.150698419422821 0.505098237484925
6  4 1 0
0

0101000
+14 3 -14 5 *
Wi

0101000
-15 0 +13 7 +12 0 -13 11 *
Fa
0  1e-07 1 0
2  1
0101000
+11 0 *
Sh

0101000
+10 0 *
Ed
 1e-07 1 1 0
1  4 0 0.150698419422821 0.505098237484925
2  1 2 0 0.150698419422821 0.505098237484925
6  5 2 0
0

0101000
+14 14 -14 16 *
Ve
1.00011354890195e-07
36.5393318715113 18.7467359809374 14.7814327090787
0 0

0101100
*
Ed
 1e-07 1 1 0
1  5 0 0 1
2  2 2 18 0 1
2  3 2 19 0 1
6  6 2 18
6  7 2 19
0

0101000
+14 10 -7 10 *
Ed
 1e-07 1 1 0
1  6 0 0.150698419422821 0.505098237484925
2  4 2 0 0.150698419422821 0.505098237484925
6  8 2 0
0

0101000
+7 14 -7 16 *
Wi

0101000
-8 0 +6 17 +5 0 -6 20 *
Fa
0  1e-07 2 0
2  2
0101000
+4 0 *
Sh

0101000
+3 0 *
Co

0100000
+9 0 +2 0 *

+1 0 
0

