DBRep_DrawableShape

CASCADE Topology V1, (c) Matra-Datavision
Locations 2
1
              1               0               0               0 
              0               1               0             1.5 
              0               0               1               0 
2  1 -1 0
Curve2ds 4
1 0 0 0 -1 
1 1 0 0 -1 
1 0 0 1 0 
1 0 -1.5 1 0 
Curves 10
1 92.5 0 100 0 1 0 
1 46.25 0 180.09999999999999 0 1 0 
6 0 2 92.5 0 100  65.400000000000006 0 165.40000000000001  46.25 0 180.09999999999999  
1 35 0 175 0 1 0 
1 46.25 0 180.09999999999999 -0.91078189983955982 0 -0.41288779459393332 
1 15 0 135 0 1 0 
1 35 0 175 -0.44721359549995798 0 -0.89442719099991597 
1 50 0 100 0 1 0 
1 15 0 135 0.70710678118654757 0 -0.70710678118654757 
1 92.5 0 100 -1 0 0 
Polygon3D 0
PolygonOnTriangulations 0
Surfaces 6
6 -0 -1 -0 
6 0 2 92.5 0 100  65.400000000000006 0 165.40000000000001  46.25 0 180.09999999999999  
1 46.25 0 180.09999999999999 -0.41288779459393332 0 0.91078189983955982 -0.91078189983955982 0 -0.41288779459393332 -0 -1 0 
1 35 0 175 -0.89442719099991597 0 0.44721359549995798 -0.44721359549995798 0 -0.89442719099991597 -0 -1 0 
1 15 0 135 -0.70710678118654757 0 -0.70710678118654757 0.70710678118654757 0 -0.70710678118654757 0 -1 -0 
1 92.5 0 100 0 -0 1 -1 0 0 -0 -1 0 
1 68.049999999999997 0 148.5 0 1 -0 -0.47209370720692273 0 0.88154837168224887 0.88154837168224887 0 0.47209370720692273 
Triangulations 0

TShapes 28
Ve
1e-07
92.5 0 100
0 0

0101100
*
Ed
 1e-07 1 1 0
1  1 0 0 1.5
2  1 1 0 0 1.5
0

0101000
+28 0 -28 1 *
Ve
1e-07
46.25 0 180.1
0 0

0101100
*
Ed
 1e-07 1 1 0
1  2 0 0 1.5
2  2 1 0 0 1.5
0

0101000
+26 0 -26 1 *
Ed
 1e-07 1 1 0
1  3 0 0 1
2  3 1 0 0 1
2  4 1 2 0 1
0

0101000
+28 0 -26 0 *
Wi

0101000
+27 0 -25 0 -24 0 +24 1 *
Fa
0  1e-07 1 0

0111000
+23 0 *
Ve
1e-07
35 0 175
0 0

0101100
*
Ed
 1e-07 1 1 0
1  4 0 0 1.5
0

0101000
+21 0 -21 1 *
Ed
 1e-07 1 1 0
1  5 0 0 12.3520241256241
0

0101000
+26 0 -21 0 *
Wi

0101000
+25 0 -20 0 -19 0 +19 1 *
Fa
0  1e-07 2 0

0111000
+18 0 *
Ve
1e-07
15 0 135
0 0

0101100
*
Ed
 1e-07 1 1 0
1  6 0 0 1.5
0

0101000
+16 0 -16 1 *
Ed
 1e-07 1 1 0
1  7 0 0 44.7213595499958
0

0101000
+21 0 -16 0 *
Wi

0101000
+20 0 -15 0 -14 0 +14 1 *
Fa
0  1e-07 3 0

0111000
+13 0 *
Ve
1e-07
50 0 100
0 0

0101100
*
Ed
 1e-07 1 1 0
1  8 0 0 1.5
0

0101000
+11 0 -11 1 *
Ed
 1e-07 1 1 0
1  9 0 0 49.4974746830583
0

0101000
+16 0 -11 0 *
Wi

0101000
+15 0 -10 0 -9 0 +9 1 *
Fa
0  1e-07 4 0

0111000
+8 0 *
Ed
 1e-07 1 1 0
1  10 0 0 42.5
0

0101000
+28 0 -11 0 *
Wi

0101000
+27 0 -10 0 -6 0 +6 1 *
Fa
0  1e-07 5 0

0111000
+5 0 *
Wi

0101100
+24 0 +19 0 +14 0 +9 0 -6 0 *
Fa
0  1e-07 6 0

0111000
-3 0 *
Sh

0101000
-22 0 -17 0 -12 0 -7 0 +4 0 +2 0 -2 1 *

-1 0 
0

