DBRep_DrawableShape

CASCADE Topology V1, (c) Matra-Datavision
Locations 0
Curve2ds 4
7 0 0  4 5 2  -2.4223010750054073e-55 179.48073806618422  3.2021282187621298 179.90262483811838  6.404108637903704 180.32500409478118  9.6059411212381391 180.74787838220041  12.807625488370087 181.171249996526 
 0 5 12.518320407701477 5
7 0 0  1 2 2  -2.4223010750060082e-55 179.48073806612459  -2.5872633898842862e-55 163.08868063318744 
 577.2155020029179 2 593.21510776545767 2
7 0 0  4 5 2  11.059088233634755 162.95488977079322  8.2946594180506317 162.98959404406781  5.5299964610496462 163.0234425383573  2.7651092882663422 163.05646933069744  3.5527136788005009e-15 163.08868063318749 
 13.693841620937791 5 24.789028761322939 5
7 0 0  4 5 2  12.80762548800444 181.17124999649565  12.395849121273507 176.53130215822682  11.967113340291856 171.95118228279765  11.521679820520994 167.42777767819121  11.059087879272584 162.95488654682077 
 0 5 19.226741264979996 5
Curves 4
7 0 0  3 4 2  358.90617827297211 572.14943167965964 1081.9592828230066  363.06733209049696 571.93295444071703 1081.7358342336029  367.22849222118288 571.71647721425393 1081.5124011135131  371.38965867728803 571.50000000005639 1081.2889834958712 
 0 4 12.518320407701477 4
7 0 0  5 6 2  358.90617827305999 572.14943167976935 1081.9592828231512  359.40899842837666 575.57682980914535 1081.9592828231525  359.92459733650895 579.0341039881356 1081.9592828231494  360.45321603662182 582.521290758693 1081.9592828231528  360.99509752513086 586.03789402752034 1081.9592828231503  361.55048654189602 589.5827705742845 1081.9592828231512 
 577.2155020029179 6 593.21510776545779 6
7 0 0  4 5 2  372.57506742071627 590.68999672108987 1081.3804948652687  369.81904837918609 590.41185631130656 1081.5251738907969  367.06294311216601 590.13462447342295 1081.6698651703437  364.30675553948822 589.8582648475591 1081.8145681844328  361.55048654202596 589.58277057455462 1081.9592828231512 
 13.693841620937791 5 24.789028761322939 5
7 0 0  5 6 2  371.3896586769805 571.49999999999989 1081.2889834960347  371.62530424607081 575.33802674039839 1081.3062240639617  371.86166523851335 579.17603882818298 1081.3239971841922  372.09875408698468 583.01407172512654 1081.3422973786976  372.33655152844875 586.8520494222139 1081.361126730538  372.57506761491675 590.69000017743781 1081.3804948838144 
 0 6 19.226741264979996 6
Polygon3D 0
PolygonOnTriangulations 0
Surfaces 1
9 0 0 0 0 3 5 4 18 2 5 404.42979477476666 760.2120261890617 1081.9592828231512  395.84767291716855 740.73226305194623 1081.9592828231512  388.62184690324978 719.47908681075307 1081.9592828231512  382.44859162766005 697.0646164045711 1081.9592828231512  377.0820712784294 673.95381465675712 1081.9592828231512  370.44978738761125 641.14069822786996 1081.9592828231512  368.66273122043049 631.75726811821369 1081.9592828231512  366.96141651124145 622.3340739293476 1081.9592828231512  365.3355259975022 612.8873385509271 1081.9592828231512  353.93573204410609 543.74561338195781 1081.9592828231512  347.90747609923847 490.67329777288501 1081.9592828231512  344.58934147552833 454.06449845284516 1081.9592828231512  342.99500638680541 389.83239234462815 1081.9592828231512  341.88386298162283 270.88931894499711 1081.9592828231512  342.93107616483832 203.11419501748043 1081.9592828231512  345.65354039459135 134.79267147085397 1081.9592828231512  350.05125567088174 65.924748305117717 1081.9592828231512  356.12422199370974 -3.4895744797283612 1081.9592828231512  
422.08801747479663 761.75692049155612 1081.0303195998388  413.50589561719852 742.27715735444076 1081.0303195998388  406.28006960327974 721.02398111324749 1081.0303195998388  400.10681432769002 698.60951070706562 1081.0303195998388  394.74029397845931 675.49870895925164 1081.0303195998388  388.10801008764116 642.68559253036437 1081.0303195998388  386.32095392046045 633.3021624207081 1081.0303195998388  384.61963921127142 623.87896823184212 1081.0303195998388  382.99374869753217 614.43223285342162 1081.0303195998388  371.593954744136 545.29050768445222 1081.0303195998388  365.56569879926838 492.21819207537953 1081.0303195998388  362.2475641755583 455.60939275533963 1081.0303195998388  360.65322908683538 391.37728664712262 1081.0303195998388  359.54208568165279 272.43421324749158 1081.0303195998388  360.58929886486828 204.6590893199749 1081.0303195998388  363.31176309462131 136.33756577334844 1081.0303195998388  367.70947837091171 67.469642607612172 1081.0303195998388  373.78244469373965 -1.9446801772339022 1081.0303195998388  
439.74624017482654 763.30181479405053 1080.1013563765264  431.16411831722843 743.82205165693517 1080.1013563765264  423.93829230330965 722.56887541574201 1080.1013563765264  417.76503702771993 700.15440500956004 1080.1013563765264  412.39851667848927 677.04360326174606 1080.1013563765264  405.76623278767113 644.23048683285879 1080.1013563765264  403.97917662049036 634.84705672320263 1080.1013563765264  402.27786191130133 625.42386253433654 1080.1013563765264  400.65197139756214 615.97712715591604 1080.1013563765264  389.25217744416602 546.83540198694675 1080.1013563765264  383.22392149929834 493.76308637787395 1080.1013563765264  379.90578687558821 457.15428705783404 1080.1013563765264  378.31145178686535 392.92218094961709 1080.1013563765264  377.2003083816827 273.979107549986 1080.1013563765264  378.24752156489825 206.20398362246937 1080.1013563765264  380.96998579465122 137.88246007584289 1080.1013563765264  385.36770107094168 69.014536910106642 1080.1013563765264  391.44066739376962 -0.39978587473944316 1080.1013563765264  
457.40446287485651 764.84670909654506 1079.172393153214  448.8223410172584 745.36694595942959 1079.172393153214  441.59651500333962 724.11376971823643 1079.172393153214  435.42325972774989 701.69929931205445 1079.172393153214  430.05673937851924 678.58849756424058 1079.172393153214  423.4244554877011 645.77538113535331 1079.172393153214  421.63739932052033 636.39195102569704 1079.172393153214  419.9360846113313 626.96875683683106 1079.172393153214  418.31019409759205 617.52202145841045 1079.172393153214  406.91040014419593 548.38029628944116 1079.172393153214  400.88214419932831 495.30798068036847 1079.172393153214  397.56400957561817 458.69918136032851 1079.172393153214  395.96967448689526 394.4670752521115 1079.172393153214  394.85853108171267 275.52400185248047 1079.172393153214  395.90574426492816 207.74887792496381 1079.172393153214  398.62820849468119 139.42735437833736 1079.172393153214  403.02592377097159 70.559431212601098 1079.172393153214  409.09889009379958 1.1451084277550159 1079.172393153214  

0 4
53.249999999999964 4

0 6
107.68743036089234 4
150.43258937787968 4
420.18115725375685 4
770.85466317660803 6

Triangulations 0

TShapes 11
Ve
1e-07
358.90617827306 572.149431679769 1081.95928282315
0 0

0101100
*
Ve
1e-07
371.389658676981 571.5 1081.28898349603
0 0

0101100
*
Ed
 1e-07 1 1 0
1  1 0 0 12.5183204077015
2  1 1 0 0 12.5183204077015
0

0101000
+11 0 -10 0 *
Ve
1e-07
361.550486542026 589.582770574555 1081.95928282315
0 0

0101100
*
Ed
 1e-07 1 1 0
1  2 0 577.215502002918 593.215107765458
2  2 1 0 577.215502002918 593.215107765458
0

0101000
+11 0 -8 0 *
Ve
1e-07
372.575067614917 590.690000177438 1081.38049488381
0 0

0101100
*
Ed
 1e-07 1 1 0
1  3 0 13.6938416209378 24.7890287613229
2  3 1 0 13.6938416209378 24.7890287613229
0

0101000
+6 0 -8 0 *
Ed
 1e-07 1 1 0
1  4 0 0 19.22674126498
2  4 1 0 0 19.22674126498
0

0101000
+10 0 -6 0 *
Wi

0101000
-9 0 +7 0 -5 0 -4 0 *
Fa
0  1e-07 1 0

0111000
+3 0 *
Sh

1101000
+2 0 *

+1 0 
0

