DBRep_DrawableShape

CASCADE Topology V1, (c) Matra-Datavision
Locations 0
Curve2ds 8
7 0 0  1 2 2  0 0  0 1 
 0 2 1 2
7 0 0  1 2 2  0 0  1 0 
 0 2 1 2
7 0 0  1 2 2  1 0  1 1 
 0 2 1 2
7 0 0  1 2 2  0 1  1 1 
 0 2 1 2
7 0 0  1 2 2  0 0  1 0 
 0 2 1 2
7 0 0  1 2 2  1 0  1 1 
 0 2 1 2
7 0 0  1 2 2  0 1  1 1 
 0 2 1 2
7 0 0  1 2 2  0 0  0 1 
 0 2 1 2
Curves 7
7 0 0  10 11 2  2606.768973710924 -92.091097077827726 1423.422467118789  2606.1199582070203 -91.969636090423961 1424.3313013064608  2605.4761300780792 -91.847695626952813 1425.2275821459552  2604.8374893695732 -91.725332807878189 1426.1113099468769  2604.2040361713975 -91.602604580872892 1426.9824849816621  2603.5757706869958 -91.479567701770605 1427.8411075167351  2602.9526931183623 -91.356278085993097 1428.6871777409328  2602.3348036625034 -91.232795290647005 1429.5206959225127  2601.7221019405738 -91.109177956713367 1430.3416623441001  2601.1145878423126 -90.985483798090726 1431.1500771605404  2600.5122614709394 -90.86176975669774 1431.9459404389663 
 0 11 1 11
7 0 0  10 11 2  2606.768973710924 -92.091097077827726 1423.422467118789  2608.989950875447 -91.587343711594869 1425.2569589721113  2610.9231385294925 -90.954311675334779 1426.8780088684168  2612.5859278933758 -90.131442422707778 1428.2943252351581  2613.9957103012093 -89.058176101555333 1429.5146117311797  2615.1698863192391 -87.673956650334944 1430.5475783604002  2616.1258354385832 -85.91821270245687 1431.4019109759697  2616.8809744657046 -83.730376871697146 1432.0863321531979  2617.4526752559732 -81.049888743442068 1432.6095253470332  2617.8583315680921 -77.81618625992138 1432.9801955088963  2618.1153343576211 -73.968710548559358 1433.2070507545579 
 0 11 1 11
7 0 0  10 11 2  2618.1153343576211 -73.968710548559358 1433.2070507545579  2617.5019384514994 -73.992174924246299 1434.1805323983506  2616.8904727202985 -73.986640037698322 1435.1422938349665  2616.2808452142626 -73.953570725664477 1436.0922344176754  2615.6729552180859 -73.894403019558297 1437.030245528651  2615.0666878739835 -73.81054442222738 1437.9562070442935  2614.4619311033625 -73.70337275326537 1438.869998429217  2613.8585532965553 -73.57423527135532 1439.7714856166849  2613.2564422335067 -73.42444950480791 1440.6605448435657  2612.6554613217795 -73.255305272267478 1441.5370345579886  2612.0554605452216 -73.068063438065678 1442.4008016139344 
 0 11 1 11
7 0 0  10 11 2  2600.5122614709394 -90.86176975669774 1431.9459404389663  2602.7887465797357 -90.270094974688789 1433.9415723759062  2604.7712129236252 -89.569775555862009 1435.6989556073302  2606.4764030381598 -88.702579663412962 1437.2282577682511  2607.9210571146841 -87.610273601273136 1438.5396403948539  2609.121927005403 -86.234650319031445 1439.6432787397193  2610.0957506744694 -84.517434552887707 1440.5493190154757  2610.8592735546822 -82.400403119019202 1441.2679281208416  2611.4292400710515 -79.82531831769731 1441.809270648974  2611.8223880560104 -76.733948969590884 1442.1835058738277  2612.0554605452216 -73.068063438065678 1442.4008016139344 
 0 11 1 11
7 0 0  10 11 2  2612.0554605452216 -73.068063438065678 1442.4008016139344  2611.2833208063039 -72.827102745273137 1443.512381886484  2610.5128598457582 -72.556148093027971 1444.6029154132036  2609.7438320009869 -72.257885517994524 1445.6721305813378  2608.9759809413222 -71.934922297825437 1446.7197457713962  2608.2090783512217 -71.589782558010313 1447.7454912387152  2607.4428794518712 -71.224916097875195 1448.749084940943  2606.6771585487586 -70.84269505904291 1449.7302692754024  2605.9117088260518 -70.445410009728562 1450.688794721556  2605.1463107338332 -70.035272309651006 1451.6244005371027  2604.3807499841255 -69.614414064442514 1452.5368274142177 
 0 11 1 11
7 0 0  10 11 2  2593.147515527105 -89.285326760465935 1441.2524793915309  2595.3798937763213 -88.579295543570453 1443.4143131593482  2597.3205609220963 -87.762947197915409 1445.3182481689964  2598.9864861683204 -86.772564270547505 1446.9748839286244  2600.3946404107819 -85.544426675238498 1448.3948163716291  2601.5619955057587 -84.014818806871048 1449.5886401437474  2602.5055207976293 -82.120015456534077 1450.5669434990493  2603.242194772627 -79.796292885817834 1451.3403261440069  2603.7889760944395 -76.979930882412532 1451.9193680542548  2604.1628381615196 -73.607210450732637 1452.3146686871883  2604.3807499841255 -69.614414064442514 1452.5368274142177 
 0 11 1 11
7 0 0  10 11 2  2600.5122614709394 -90.86176975669774 1431.9459404389663  2599.737129402663 -90.702565457801271 1432.9701355323939  2598.9705871849483 -90.543325723039032 1433.9735445410067  2598.2126348505053 -90.384194997927693 1434.9561672059249  2597.4632729586197 -90.225315715430028 1435.9180031541171  2596.722502467906 -90.066828844922952 1436.8590520675602  2595.9903231212202 -89.908874146008884 1437.7793131764683  2595.2667353322931 -89.75160072792491 1438.6787866270695  2594.5517382137514 -89.595154872229116 1439.5574722517547  2593.8453316355017 -89.439681906015593 1440.415369856672  2593.147515527105 -89.285326760465935 1441.2524793915309 
 0 11 1 11
Polygon3D 0
PolygonOnTriangulations 0
Surfaces 2
9 0 0 0 0 10 10 11 11 2 2 2606.768973710924 -92.091097077827726 1423.422467118789  2606.119958206948 -91.969636090421872 1424.3313013064342  2605.4761300783703 -91.847695626961027 1425.2275821460639  2604.8374893689438 -91.725332807861108 1426.1113099466436  2604.2040361723552 -91.602604580898173 1426.9824849820209  2603.5757706859122 -91.479567701742383 1427.8411075163183  2602.9526931192686 -91.356278086016715 1428.6871777412966  2602.3348036619623 -91.232795290632453 1429.520695922283  2601.7221019407898 -91.109177956719691 1430.3416623441981  2601.1145878422649 -90.985483798089149 1431.1500771605165  2600.5122614709394 -90.86176975669774 1431.9459404389663  
2608.9899508754065 -91.587343711592197 1425.2569589720724  2608.3498621042495 -91.457539460339049 1426.1829669738472  2607.7142709792752 -91.327104477666339 1427.096225031712  2607.0831548736664 -91.196115172752172 1427.9967188660453  2606.4564912138744 -91.064647897321336 1428.8844341747615  2605.834257458705 -90.932779021945436 1429.7593566685769  2605.2164310986127 -90.800584688235588 1430.6214718506421  2604.6029895203847 -90.668142442428916 1431.4707655416255  2603.993909985827 -90.535529118804732 1432.3072232119191  2603.3891698496368 -90.402821244350378 1433.1308303392761  2602.7887465796457 -90.27009497468714 1433.9415723758896  
2610.9231385296548 -90.95431167534538 1426.8780088685728  2610.2911009022764 -90.819529403088254 1427.818246623513  2609.6629162748368 -90.683640891697607 1428.7456435499787  2609.0385436713564 -90.546755583799424 1429.660169905231  2608.4179418997696 -90.408982615125666 1430.5617957640161  2607.8010703256186 -90.270430793731535 1431.4504914627762  2607.1878870653795 -90.131209069486488 1432.3262264363182  2606.5783512022658 -89.991425361158917 1433.18897092976  2605.9724212367937 -89.851187187174588 1434.0386943530291  2605.3700556633153 -89.710601703351571 1434.8753661351363  2604.7712129239903 -89.569775555868389 1435.6989556073941  
2612.5859278930448 -90.131442422684742 1428.2943252348307  2611.960947398265 -89.99568812779026 1429.2460602585732  2611.3392334956702 -89.857924653600051 1430.1849528493838  2610.7207307128974 -89.718313192951499 1431.1109576574902  2610.1053838829189 -89.577013727064241 1432.024029300758  2609.4931340745047 -89.434184996062001 1432.9241200196718  2608.8839306069317 -89.289985101336853 1433.8111875502373  2608.2777124349445 -89.144569786284464 1434.6851817899969  2607.6744233655872 -88.998094723856795 1435.5460565483875  2607.0740061137603 -88.850713844738124 1436.3937644766156  2606.4764030373508 -88.702579663400314 1437.2282577681374  
2613.9957103016854 -89.05817610159086 1429.5146117316535  2613.3766727219459 -88.926097950211329 1430.4753221026356  2612.7603881421774 -88.790576046262188 1431.4232621024964  2612.1467897780308 -88.651846993901344 1432.3583712412421  2611.535808866277 -88.510144755250565 1433.2805877606081  2610.9273856565251 -88.3657006714338 1434.1898547292133  2610.3214324660657 -88.218743686223746 1435.0860972707344  2609.7178956201274 -88.069499560892964 1435.9692626803535  2609.1167015373253 -87.918192767285973 1436.8392848298313  2608.517779248637 -87.76504467916665 1437.6960991714777  2607.9210571159515 -87.610273601290743 1438.5396403949792  
2615.1698863187162 -87.673956650294457 1430.5475783598924  2614.555561448597 -87.550842825319634 1431.5149559879078  2613.9435591833408 -87.422216196707495 1432.4696905563558  2613.3338047257066 -87.288417598458466 1433.4117078808981  2612.7262236958836 -87.149783261830748 1434.3409332571989  2612.1207247921866 -87.006644723880115 1435.2572822040866  2611.5172643988185 -86.8593273104931 1436.1606990126868  2610.9157313496426 -86.708155424544657 1437.0510851295185  2610.3160527909299 -86.553444699162327 1437.928365277219  2609.7181461163595 -86.39550709917286 1438.7924575747052  2609.1219270039155 -86.234650319012928 1439.6432787396384  
2616.1258354390297 -85.918212702490649 1431.4019109763769  2615.5148717386091 -85.809992388012674 1432.3738572602615  2614.9059019734618 -85.693452212597833 1433.3333303081499  2614.2988448144001 -85.569070540725491 1434.2802438325136  2613.6936158197605 -85.437318027966683 1435.2145093703969  2613.0901441983042 -85.298657946593366 1436.1360448633416  2612.4883043759951 -85.153547901847602 1437.0447349634419  2611.8880448585214 -85.002432985963381 1437.9405085086237  2611.289261833479 -84.845755047436782 1438.8232623621041  2610.6918620543993 -84.683947128071594 1439.6928989878165  2610.0957506757809 -84.517434552902429 1440.5493190154914  
2616.8809744654222 -83.730376871677038 1432.0863321529587  2616.2719010128926 -83.643620279486925 1433.0609597674927  2615.6646025860382 -83.544894782532808 1434.0233062733021  2615.0589943608056 -83.434855264070421 1434.9732764380951  2614.4549884468765 -83.314145412573595 1435.9107719095671  2613.8524857721145 -83.183397390439993 1436.8356877396297  2613.2514160749552 -83.043230535590283 1437.7479339045906  2612.6516552615826 -82.894256182955658 1438.647388607995  2612.0531147986499 -82.737070977698195 1439.5339486816354  2611.4556903750158 -82.572261501679591 1440.4075007711774  2610.8592735538346 -82.400403119010846 1441.2679281208659  
2617.4526752560905 -81.049888743450239 1432.6095253471306  2616.8439089643953 -80.991806051430643 1433.5851642533523  2616.2368241108916 -80.917161135419789 1434.5487216192421  2615.6313325461456 -80.826828550977609 1435.5000960307939  2615.0273425205392 -80.721666628235951 1436.4391826277883  2614.4247579315706 -80.602517667199976 1437.3658719403495  2613.8234752487215 -80.470207889497914 1438.2800502162793  2613.2233974803062 -80.325547076608487 1439.1816043966087  2612.6244091329768 -80.169329548252733 1440.0704102614907  2612.0263961579881 -80.00233281902284 1440.9463423277939  2611.4292400714276 -79.825318317700493 1441.8092706489501  
2617.8583315680671 -77.816186259919448 1432.9801955088733  2617.2481635918321 -77.79463034707976 1433.9553816479461  2616.6397247941622 -77.750869734834112 1434.9186790241861  2616.0329250470259 -77.686047352076727 1435.8699843148784  2615.4276670048553 -77.601284228055277 1436.8091878343855  2614.8238511072573 -77.497679445438635 1437.7361767798134  2614.2213594428545 -77.376310672870133 1438.6508246886913  2613.6200894477461 -77.238231583379005 1439.5530140100705  2613.0199220008244 -77.084474887647048 1440.4426153031943  2612.4207324251634 -76.916051143569618 1441.31949343018  2611.8223880559167 -76.733948969590216 1442.1835058738359  
2618.1153343576211 -73.968710548559358 1433.2070507545579  2617.5019384514335 -73.992174924246626 1434.1805323983276  2616.890472720554 -73.986640037697342 1435.1422938350604  2616.2808452137483 -73.953570725667262 1436.0922344174755  2615.6729552188012 -73.894403019553238 1437.0302455289423  2615.0666878732545 -73.810544422233704 1437.9562070439856  2614.461931103915 -73.70337275325933 1438.8699984294492  2613.8585532962511 -73.574235271359854 1439.7714856165651  2613.2564422336195 -73.424449504805523 1440.6605448436051  2612.6554613217563 -73.255305272268174 1441.5370345579818  2612.0554605452216 -73.068063438065678 1442.4008016139344  

0 11
1 11

0 11
1 11

9 0 0 0 0 10 10 11 11 2 2 2600.5122614709394 -90.86176975669774 1431.9459404389663  2599.7371294025684 -90.702565457800077 1432.9701355323577  2598.9705871853262 -90.543325723043907 1433.9735445411534  2598.2126348496918 -90.384194997917632 1434.9561672056047  2597.4632729598411 -90.225315715444793 1435.918003154608  2596.7225024665518 -90.066828844906823 1436.8590520669964  2595.9903231223325 -89.908874146022058 1437.7793131769533  2595.2667353316301 -89.751600727917221 1438.6787866267707  2594.551738214026 -89.595154872232044 1439.5574722518779  2593.8453316354376 -89.439681906015011 1440.4153698566433  2593.147515527105 -89.285326760465935 1441.2524793915309  
2602.7887465796457 -90.27009497468714 1433.9415723758896  2602.0160634886215 -90.099292747564846 1434.9849148542576  2601.2505351177088 -89.928454266804906 1436.0069560299653  2600.4921281559855 -89.757737308036795 1437.0076782047956  2599.740809529148 -89.587298732789534 1437.9870637377519  2598.9965464709826 -89.41729426233843 1438.9450949288898  2598.2593056949768 -89.24787911396426 1439.8817536181771  2597.5290536431553 -89.079213094600988 1440.7970224910314  2596.805756623311 -88.911454902991238 1441.6908836743071  2596.0893811385299 -88.744762982080843 1442.5633197058337  2595.3798937762635 -88.579295543567838 1443.4143131593332  
2604.7712129239903 -89.569775555868389 1435.6989556073941  2604.0005637082745 -89.388549490953523 1436.7588313800322  2603.2357610207673 -89.20691614257565 1437.7970491395206  2602.476744344141 -89.025075542028532 1438.8135684086017  2601.7234532608109 -88.843226434027329 1439.8083488406792  2600.9758272904796 -88.661565757753038 1440.7813498076225  2600.2338066956472 -88.480290175021949 1441.7325309989717  2599.4973299209091 -88.299595413721576 1442.6618516266062  2598.7663369965608 -88.119677144895832 1443.5692714411919  2598.0407674316743 -87.940729890955666 1444.4547503012998  2597.3205609223373 -87.762947197925783 1445.3182481690603  
2606.4764030373508 -88.702579663400314 1437.2282577681374  2605.707349049409 -88.511948763333407 1438.3021656123308  2604.9429744829558 -88.320058993620435 1439.3541985299171  2604.1831962843767 -88.127190571601062 1440.384289081725  2603.4279314032633 -87.933619957193187 1441.3923695906994  2602.6770993871096 -87.73962100371719 1442.3783746142744  2601.930610328634 -87.545465602689845 1443.3422330447015  2601.1883892299961 -87.351418927367618 1444.2838812182506  2600.4503493629832 -87.157746153305212 1445.2032501666426  2599.7164090488659 -86.964708551247398 1446.1002732909838  2598.9864861677879 -86.772564270525066 1446.9748839284969  
2607.9210571159515 -87.610273601290743 1438.5396403949792  2607.1531367362441 -87.411101523332206 1439.6251919855599  2606.388885097605 -87.209227981622789 1440.6887734763511  2605.6281994242281 -87.005061259842847 1441.7302877878483  2604.8709773469354 -86.799001377619447 1442.7496378129613  2604.1171053211256 -86.591440193139434 1443.7467181467011  2603.3665069755225 -86.382763403004972 1444.7214467248118  2602.6190557829636 -86.173354577840897 1445.6737134663144  2601.8746624017804 -85.963585818682105 1446.6034286896415  2601.1332241999585 -85.753823485940885 1447.5104950670152  2600.3946404116168 -85.544426675272547 1448.3948163718112  
2609.1219270039155 -86.234650319012928 1439.6432787396384  2608.3546538999158 -86.027646357700092 1440.7381988647126  2607.5902065171408 -85.815792283319567 1441.8111535391211  2606.8284634796119 -85.599680428671974 1442.8620132634192  2606.069302823686 -85.379891606842492 1443.8906483128296  2605.3126303645868 -85.156992986100889 1444.8969470995651  2604.5582751203501 -84.93154264130807 1445.8807513490115  2603.8061624185002 -84.704075946049173 1446.8419568054776  2603.0561549510876 -84.475124432164392 1447.7804238174429  2602.3081379349383 -84.245204102646625 1448.6960270647371  2601.5619955047755 -84.014818806832636 1449.5886401435428  
2610.0957506757809 -84.517434552902429 1440.5493190154914  2609.3286161716319 -84.303151910566854 1441.6514443090041  2608.5636519093005 -84.081060452129449 1442.7316957481466  2607.8007208047634 -83.852002699540222 1443.7899137642771  2607.0396880963676 -83.61680025698098 1444.8259395170107  2606.2803784080675 -83.376257657795236 1445.8395886523642  2605.5227189805355 -83.131148404035599 1446.8307369794402  2604.7665269086328 -82.88224155564744 1447.799199026369  2604.0116858839324 -82.630273765117025 1448.7448273046059  2603.258061388588 -82.375965344991897 1449.6674616195505  2602.5055207984869 -82.120015456566406 1450.5669434992301  
2610.8592735538346 -82.400403119010846 1441.2679281208659  2610.0917459520797 -82.17924066524202 1442.375210442123  2609.3259288157092 -81.946385531555137 1443.4607724759519  2608.5616610641814 -81.703005716212687 1444.52442027135  2607.7987804103341 -81.450238768841373 1445.5659591152762  2607.0371644869142 -81.189187715750194 1446.5852174795582  2606.2766084894224 -80.920934399512348 1447.581974178061  2605.5169883559843 -80.646518315496635 1448.5560555324803  2604.7581454009719 -80.366955806562288 1449.5072665026296  2603.9999300605327 -80.083229820160653 1450.4354192881319  2603.2421947720927 -79.796292885798053 1451.3403261438896  
2611.4292400714276 -79.825318317700493 1441.8092706489501  2610.6607611057534 -79.597520101742731 1442.9197714874824  2609.8937479376814 -79.353111119986963 1444.0087542554422  2609.1280212558422 -79.093668108162618 1445.0759981284666  2608.3634040021543 -78.820724092009272 1446.1212821623833  2607.5997006189154 -78.535770926143087 1447.1443739981344  2606.8367469413056 -78.240252688570536 1448.1450601764382  2606.0743672348881 -77.935572811570054 1449.1231191584266  2605.312389978762 -77.623089901025295 1450.0783341397917  2604.5506482316564 -77.304118895064462 1451.0104889801103  2603.7889760946637 -76.979930882420774 1451.9193680543049  
2611.8223880559167 -76.733948969590216 1442.1835058738359  2611.0523799072221 -76.499603005272732 1443.2954018977111  2610.2838228114942 -76.242582689419166 1444.38601096752  2609.5165085904941 -75.964967889430966 1445.4550853933599  2608.7502268886346 -75.66877881922791 1446.5023737499703  2607.9847565888031 -75.355976792222592 1447.5276149393949  2607.2199091364196 -75.028460745926026 1448.5305678276895  2606.4554823972621 -74.688074690128488 1449.5109883199218  2605.6912876063921 -74.336599698004306 1450.4686384523282  2604.9271354332359 -73.975757665424496 1451.4032785657994  2604.1628381614673 -73.607210450730676 1452.3146686871769  
2612.0554605452216 -73.068063438065678 1442.4008016139344  2611.2833208062502 -72.827102745271915 1443.5123818864483  2610.5128598459792 -72.556148093033173 1444.602915413343  2609.7438320005072 -72.257885517983539 1445.6721305810615  2608.9759809420725 -71.934922297841652 1446.7197457717696  2608.2090783503263 -71.589782557992294 1447.7454912383528  2607.4428794526752 -71.224916097890514 1448.7490849411993  2606.6771585482402 -70.842695059033204 1449.7302692752728  2605.911708826276 -70.445410009732754 1450.6887947215982  2605.1463107337786 -70.03527230965004 1451.6244005370963  2604.3807499841255 -69.614414064442514 1452.5368274142177  

0 11
1 11

0 11
1 11

Triangulations 0

TShapes 18
Ve
1e-07
2606.76897371092 -92.0910970778277 1423.42246711879
0 0

0101100
*
Ve
1e-07
2600.51226147094 -90.8617697566977 1431.94594043897
0 0

0101100
*
Ed
 1e-07 1 1 0
1  1 0 0 1
2  1 1 0 0 1
0

0101000
+18 0 -17 0 *
Ve
1e-07
2618.11533435762 -73.9687105485594 1433.20705075456
0 0

0101100
*
Ed
 1e-07 1 1 0
1  2 0 0 1
2  2 1 0 0 1
0

0101000
+18 0 -15 0 *
Ve
1e-07
2612.05546054522 -73.0680634380657 1442.40080161393
0 0

0101100
*
Ed
 1e-07 1 1 0
1  3 0 0 1
2  3 1 0 0 1
0

0101000
+15 0 -13 0 *
Ed
 1e-07 1 1 0
1  4 0 0 1
2  4 1 0 0 1
2  5 2 0 0 1
4 G1 1 0 2 0
0

0101000
+17 0 -13 0 *
Wi

0101000
-16 0 +14 0 +12 0 -11 0 *
Fa
0  1e-07 1 0

0101000
+10 0 *
Ve
1e-07
2604.38074998413 -69.6144140644425 1452.53682741422
0 0

0101100
*
Ed
 1e-07 1 1 0
1  5 0 0 1
2  6 2 0 0 1
0

0101000
+13 0 -8 0 *
Ve
1e-07
2593.14751552711 -89.2853267604659 1441.25247939153
0 0

0101100
*
Ed
 1e-07 1 1 0
1  6 0 0 1
2  7 2 0 0 1
0

0101000
+6 0 -8 0 *
Ed
 1e-07 1 1 0
1  7 0 0 1
2  8 2 0 0 1
0

0101000
+17 0 -6 0 *
Wi

0101000
+7 0 -5 0 -4 0 +11 0 *
Fa
0  1e-07 2 0

0101000
+3 0 *
Sh

1101000
+9 0 +2 0 *

+1 0 
0

