DBRep_DrawableShape

CASCADE Topology V1, (c) Matra-Datavision
Locations 5
1
              1               0               0               0 
              0               1               0            0.01 
              0               0               1              -0 
2  1 -1 0
1
              1               0               0               0 
              0               1               0               0 
              0               0               1              10 
2  1 1 3 1 0
2  3 -1 1 -1 0
Curve2ds 4
1 0 0 0 -1 
1 1 0 0 -1 
1 0 0 1 0 
1 0 -10 1 0 
Curves 10
1 22.2498672184483 11.9633998966217 -6.82155721500352 0 0 1 
1 7.00382241170743 11.9633998966217 -8.63894674043677 0 0 1 
1 22.2498672184483 11.9533998966217 -6.82155721500352 -0.992970034810976 0 -0.118366000048529 
1 22.2498672184483 11.9533998966217 -6.82155721500352 -0.992970034810976 0 -0.118366000048529 
1 0.300000011920929 11.9633998966217 -9.3789742681422 0 0 1 
7 0 0  8 72 11  7.00382241170743 11.9533998966217 -8.63894674043677  6.93428115413549 11.9533998966217 -8.6472363365057  6.86473989656356 11.9533998966217 -8.65794516143152  6.79519863899164 11.9533998966217 -8.67046022058091  6.72565738141971 11.9533998966217 -8.68416851932056  6.65611612384778 11.9533998966217 -8.69845706301714  6.58657486627585 11.9533998966217 -8.71271285703732  6.51703360870391 11.9533998966217 -8.7263229067478  6.35497647129737 11.9533998966217 -8.755106080019  6.24803296079977 11.9533998966217 -8.77047488882202  6.14860990302655 11.9533998966217 -8.78664810454941  6.04227405448991 11.9533998966217 -8.80188608311401  5.93478820634401 11.9533998966217 -8.81734379102463  5.82747734228939 11.9533998966217 -8.83255151026786  5.72076754156219 11.9533998966217 -8.84794889661064  5.51223162182326 11.9533998966217 -8.87758533839705  5.41070505067678 11.9533998966217 -8.89183645654601  5.30919486086869 11.9533998966217 -8.90611347240509  5.20464000446419 11.9533998966217 -8.92007803941491  5.10168394904174 11.9533998966217 -8.93424365590148  4.99574534448404 11.9533998966217 -8.94807995797726  4.8876178060767 11.9533998966217 -8.96174137490982  4.70955508156069 11.9533998966217 -8.98386667525457  4.64006783178423 11.9533998966217 -8.99237979327357  4.57031962702342 11.9533998966217 -9.00086690569234  4.50051446832866 11.9533998966217 -9.00934841161517  4.43078115085354 11.9533998966217 -9.01783716735621  4.36117326385487 11.9533998966217 -9.02633848643947  4.29166919069268 11.9533998966217 -9.03485013959881  4.12007879727881 11.9533998966217 -9.05586705588179  4.01804274066984 11.9533998966217 -9.06838487941022  3.91466363990417 11.9533998966217 -9.08075258211304  3.81296726508516 11.9533998966217 -9.09332402067788  3.70733791091463 11.9533998966217 -9.105445121959  3.6015282881208 11.9533998966217 -9.1175890135677  3.49508312419503 11.9533998966217 -9.12964210516584  3.28617961454051 11.9533998966217 -9.15288798145528  3.18389604525648 11.9533998966217 -9.16409569429791  3.08086236687647 11.9533998966217 -9.17522029896487  2.97691797709984 11.9533998966217 -9.1862405997809  2.87228214194937 11.9533998966217 -9.19718257205686  2.76677656541536 11.9533998966217 -9.20802071352805  2.66042123309438 11.9533998966217 -9.21875729431253  2.48458384382442 11.9533998966217 -9.23618339137726  2.41542043594544 11.9533998966217 -9.24290824478353  2.346001713451 11.9533998966217 -9.24960084080284  2.27650801683002 11.9533998966217 -9.25628505699134  2.20699001707625 11.9533998966217 -9.26296745052935  2.13736871568829 11.9533998966217 -9.26963725822144  2.0674354446696 11.9533998966217 -9.27626639649636  1.89922281914334 11.9533998966217 -9.29185962875532  1.79986898483005 11.9533998966217 -9.30059902583297  1.70320792784671 11.9533998966217 -9.30983728692818  1.59329366612298 11.9533998966217 -9.31678455026004  1.4908232659991 11.9533998966217 -9.32548375233326  1.38358041582495 11.9533998966217 -9.33289594587571  1.27418174103679 11.9533998966217 -9.34016624622804  1.1125667022793 11.9533998966217 -9.34978424528962  1.06221417661475 11.9533998966217 -9.35268359511482  1.01117567099984 11.9533998966217 -9.35544245059843  0.959381075692396 11.9533998966217 -9.35800865961444  0.906813698879972 11.9533998966217 -9.36035466605149  0.85351026667981 11.9533998966217 -9.36247750981286  0.799560923138852 11.9533998966217 -9.36439882681646  0.689920442691048 11.9533998966217 -9.36795477723398  0.634358357562081 11.9533998966217 -9.36958794356467  0.578545042173011 11.9533998966217 -9.37111567154255  0.522602815909709 11.9533998966217 -9.37258935911689  0.466654250217743 11.9533998966217 -9.37406047863061  0.410822168602371 11.9533998966217 -9.3755805768203  0.355229646628549 11.9533998966217 -9.3772012748162  0.300000011920929 11.9533998966217 -9.3789742681422 
 0 9 0.109470371029511 7 0.255106904581435 7 0.391277638370387 7 0.477320077665914 7 0.603719018833357 7 0.723164409555669 7 0.799570395070418 7 0.905252818330584 7 0.952307924426586 7 1 9
7 0 0  8 72 11  7.00382241170743 11.9533998966217 -8.63894674043677  6.93428115413549 11.9533998966217 -8.6472363365057  6.86473989656356 11.9533998966217 -8.65794516143152  6.79519863899164 11.9533998966217 -8.67046022058091  6.72565738141971 11.9533998966217 -8.68416851932056  6.65611612384778 11.9533998966217 -8.69845706301714  6.58657486627585 11.9533998966217 -8.71271285703732  6.51703360870391 11.9533998966217 -8.7263229067478  6.35497647129737 11.9533998966217 -8.755106080019  6.24803296079977 11.9533998966217 -8.77047488882202  6.14860990302655 11.9533998966217 -8.78664810454941  6.04227405448991 11.9533998966217 -8.80188608311401  5.93478820634401 11.9533998966217 -8.81734379102463  5.82747734228939 11.9533998966217 -8.83255151026786  5.72076754156219 11.9533998966217 -8.84794889661064  5.51223162182326 11.9533998966217 -8.87758533839705  5.41070505067678 11.9533998966217 -8.89183645654601  5.30919486086869 11.9533998966217 -8.90611347240509  5.20464000446419 11.9533998966217 -8.92007803941491  5.10168394904174 11.9533998966217 -8.93424365590148  4.99574534448404 11.9533998966217 -8.94807995797726  4.8876178060767 11.9533998966217 -8.96174137490982  4.70955508156069 11.9533998966217 -8.98386667525457  4.64006783178423 11.9533998966217 -8.99237979327357  4.57031962702342 11.9533998966217 -9.00086690569234  4.50051446832866 11.9533998966217 -9.00934841161517  4.43078115085354 11.9533998966217 -9.01783716735621  4.36117326385487 11.9533998966217 -9.02633848643947  4.29166919069268 11.9533998966217 -9.03485013959881  4.12007879727881 11.9533998966217 -9.05586705588179  4.01804274066984 11.9533998966217 -9.06838487941022  3.91466363990417 11.9533998966217 -9.08075258211304  3.81296726508516 11.9533998966217 -9.09332402067788  3.70733791091463 11.9533998966217 -9.105445121959  3.6015282881208 11.9533998966217 -9.1175890135677  3.49508312419503 11.9533998966217 -9.12964210516584  3.28617961454051 11.9533998966217 -9.15288798145528  3.18389604525648 11.9533998966217 -9.16409569429791  3.08086236687647 11.9533998966217 -9.17522029896487  2.97691797709984 11.9533998966217 -9.1862405997809  2.87228214194937 11.9533998966217 -9.19718257205686  2.76677656541536 11.9533998966217 -9.20802071352805  2.66042123309438 11.9533998966217 -9.21875729431253  2.48458384382442 11.9533998966217 -9.23618339137726  2.41542043594544 11.9533998966217 -9.24290824478353  2.346001713451 11.9533998966217 -9.24960084080284  2.27650801683002 11.9533998966217 -9.25628505699134  2.20699001707625 11.9533998966217 -9.26296745052935  2.13736871568829 11.9533998966217 -9.26963725822144  2.0674354446696 11.9533998966217 -9.27626639649636  1.89922281914334 11.9533998966217 -9.29185962875532  1.79986898483005 11.9533998966217 -9.30059902583297  1.70320792784671 11.9533998966217 -9.30983728692818  1.59329366612298 11.9533998966217 -9.31678455026004  1.4908232659991 11.9533998966217 -9.32548375233326  1.38358041582495 11.9533998966217 -9.33289594587571  1.27418174103679 11.9533998966217 -9.34016624622804  1.1125667022793 11.9533998966217 -9.34978424528962  1.06221417661475 11.9533998966217 -9.35268359511482  1.01117567099984 11.9533998966217 -9.35544245059843  0.959381075692396 11.9533998966217 -9.35800865961444  0.906813698879972 11.9533998966217 -9.36035466605149  0.85351026667981 11.9533998966217 -9.36247750981286  0.799560923138852 11.9533998966217 -9.36439882681646  0.689920442691048 11.9533998966217 -9.36795477723398  0.634358357562081 11.9533998966217 -9.36958794356467  0.578545042173011 11.9533998966217 -9.37111567154255  0.522602815909709 11.9533998966217 -9.37258935911689  0.466654250217743 11.9533998966217 -9.37406047863061  0.410822168602371 11.9533998966217 -9.3755805768203  0.355229646628549 11.9533998966217 -9.3772012748162  0.300000011920929 11.9533998966217 -9.3789742681422 
 0 9 0.109470371029511 7 0.255106904581435 7 0.391277638370387 7 0.477320077665914 7 0.603719018833357 7 0.723164409555669 7 0.799570395070418 7 0.905252818330584 7 0.952307924426586 7 1 9
1 -8.96437089977959 11.9633998966217 -9.67638104772692 0 0 1 
1 0.300000011920929 11.9533998966217 -9.3789742681422 -0.999485121982041 0 -0.0320856811762681 
1 0.300000011920929 11.9533998966217 -9.3789742681422 -0.999485121982041 0 -0.0320856811762681 
Polygon3D 0
PolygonOnTriangulations 0
Surfaces 3
1 22.2498672184483 11.9633998966217 -6.82155721500352 -0 -1 0 -0.992970034810976 0 -0.118366000048529 0.118366000048529 -0 -0.992970034810976 
6 -0 -0 -1 
7 0 0  8 72 11  7.00382241170743 11.9633998966217 -8.63894674043677  6.93428115413549 11.9633998966217 -8.6472363365057  6.86473989656356 11.9633998966217 -8.65794516143152  6.79519863899164 11.9633998966217 -8.67046022058091  6.72565738141971 11.9633998966217 -8.68416851932056  6.65611612384778 11.9633998966217 -8.69845706301714  6.58657486627585 11.9633998966217 -8.71271285703732  6.51703360870391 11.9633998966217 -8.7263229067478  6.35497647129737 11.9633998966217 -8.755106080019  6.24803296079977 11.9633998966217 -8.77047488882202  6.14860990302655 11.9633998966217 -8.78664810454941  6.04227405448991 11.9633998966217 -8.80188608311401  5.93478820634401 11.9633998966217 -8.81734379102463  5.82747734228939 11.9633998966217 -8.83255151026786  5.72076754156219 11.9633998966217 -8.84794889661064  5.51223162182326 11.9633998966217 -8.87758533839705  5.41070505067678 11.9633998966217 -8.89183645654601  5.30919486086869 11.9633998966217 -8.90611347240509  5.20464000446419 11.9633998966217 -8.92007803941491  5.10168394904174 11.9633998966217 -8.93424365590148  4.99574534448404 11.9633998966217 -8.94807995797726  4.8876178060767 11.9633998966217 -8.96174137490982  4.70955508156069 11.9633998966217 -8.98386667525457  4.64006783178423 11.9633998966217 -8.99237979327357  4.57031962702342 11.9633998966217 -9.00086690569234  4.50051446832866 11.9633998966217 -9.00934841161517  4.43078115085354 11.9633998966217 -9.01783716735621  4.36117326385487 11.9633998966217 -9.02633848643947  4.29166919069268 11.9633998966217 -9.03485013959881  4.12007879727881 11.9633998966217 -9.05586705588179  4.01804274066984 11.9633998966217 -9.06838487941022  3.91466363990417 11.9633998966217 -9.08075258211304  3.81296726508516 11.9633998966217 -9.09332402067788  3.70733791091463 11.9633998966217 -9.105445121959  3.6015282881208 11.9633998966217 -9.1175890135677  3.49508312419503 11.9633998966217 -9.12964210516584  3.28617961454051 11.9633998966217 -9.15288798145528  3.18389604525648 11.9633998966217 -9.16409569429791  3.08086236687647 11.9633998966217 -9.17522029896487  2.97691797709984 11.9633998966217 -9.1862405997809  2.87228214194937 11.9633998966217 -9.19718257205686  2.76677656541536 11.9633998966217 -9.20802071352805  2.66042123309438 11.9633998966217 -9.21875729431253  2.48458384382442 11.9633998966217 -9.23618339137726  2.41542043594544 11.9633998966217 -9.24290824478353  2.346001713451 11.9633998966217 -9.24960084080284  2.27650801683002 11.9633998966217 -9.25628505699134  2.20699001707625 11.9633998966217 -9.26296745052935  2.13736871568829 11.9633998966217 -9.26963725822144  2.0674354446696 11.9633998966217 -9.27626639649636  1.89922281914334 11.9633998966217 -9.29185962875532  1.79986898483005 11.9633998966217 -9.30059902583297  1.70320792784671 11.9633998966217 -9.30983728692818  1.59329366612298 11.9633998966217 -9.31678455026004  1.4908232659991 11.9633998966217 -9.32548375233326  1.38358041582495 11.9633998966217 -9.33289594587571  1.27418174103679 11.9633998966217 -9.34016624622804  1.1125667022793 11.9633998966217 -9.34978424528962  1.06221417661475 11.9633998966217 -9.35268359511482  1.01117567099984 11.9633998966217 -9.35544245059843  0.959381075692396 11.9633998966217 -9.35800865961444  0.906813698879972 11.9633998966217 -9.36035466605149  0.85351026667981 11.9633998966217 -9.36247750981286  0.799560923138852 11.9633998966217 -9.36439882681646  0.689920442691048 11.9633998966217 -9.36795477723398  0.634358357562081 11.9633998966217 -9.36958794356467  0.578545042173011 11.9633998966217 -9.37111567154255  0.522602815909709 11.9633998966217 -9.37258935911689  0.466654250217743 11.9633998966217 -9.37406047863061  0.410822168602371 11.9633998966217 -9.3755805768203  0.355229646628549 11.9633998966217 -9.3772012748162  0.300000011920929 11.9633998966217 -9.3789742681422 
 0 9 0.109470371029511 7 0.255106904581435 7 0.391277638370387 7 0.477320077665914 7 0.603719018833357 7 0.723164409555669 7 0.799570395070418 7 0.905252818330584 7 0.952307924426586 7 1 9
1 0.300000011920929 11.9633998966217 -9.3789742681422 -0 -1 0 -0.999485121982041 0 -0.0320856811762681 0.0320856811762681 -0 -0.999485121982041 
Triangulations 0

TShapes 25
Ve
1e-07
22.2498672184483 11.9633998966217 -6.82155721500352
0 0

0101100
*
Ve
1e-07
22.2498672184483 11.9633998966217 3.17844278499648
0 0

0101100
*
Ed
 1e-07 1 1 0
1  1 0 0 10
0

0101000
+25 0 -24 0 *
Ve
0.0001
7.00382241170743 11.9633998966217 -8.63894674043677
0 0

0101100
*
Ve
0.0001
7.00382241170743 11.9633998966217 1.36105325956323
0 0

0101100
*
Ed
 0.0001 1 1 0
1  2 0 0 10
2  1 2 0 0 10
4 G1 1 0 2 0
0

0101000
+22 0 -21 0 *
Ed
 1e-07 1 1 0
1  3 0 0 15.3539827711348
0

0101000
+25 2 -22 2 *
Ed
 1e-07 1 1 0
1  4 0 0 15.3539827711348
0

0101000
+24 5 -21 5 *
Wi

0101000
+23 0 -20 0 -19 1 +18 4 *
Fa
0  1e-07 1 0

0101000
+17 0 *
Ve
0.0001
0.300000011920929 11.9633998966217 -9.3789742681422
0 0

0101100
*
Ve
0.0001
0.300000011920929 11.9633998966217 0.621025731857794
0 0

0101100
*
Ed
 0.0001 1 1 0
1  5 0 0 10
2  2 2 0 0 10
4 G1 2 0 3 0
0

0101000
+15 0 -14 0 *
Ed
 0.0001 1 1 0
1  6 0 0 1
2  3 2 2 0 1
0

0101000
+22 2 -15 2 *
Ed
 0.0001 1 1 0
1  7 0 0 1
2  4 2 5 0 1
0

0101000
+21 5 -14 5 *
Wi

0101000
+20 0 -13 0 -12 1 +11 4 *
Fa
0  6.70382239978649e-07 2 0

0101000
+10 0 *
Ve
1e-07
-8.96437089977959 11.9633998966217 -9.67638104772692
0 0

0101100
*
Ve
1e-07
-8.96437089977959 11.9633998966217 0.323618952273079
0 0

0101100
*
Ed
 1e-07 1 1 0
1  8 0 0 10
0

0101000
+8 0 -7 0 *
Ed
 1e-07 1 1 0
1  9 0 0 9.26914338987728
0

0101000
+15 2 -8 2 *
Ed
 1e-07 1 1 0
1  10 0 0 9.26914338987728
0

0101000
+14 5 -7 5 *
Wi

0101000
+13 0 -6 0 -5 1 +4 4 *
Fa
0  1e-07 3 0

0101000
+3 0 *
Sh

1101000
+16 0 +9 0 +2 0 *

+1 0 