DBRep_DrawableShape

CASCADE Topology V1, (c) Matra-Datavision
Locations 0
Curve2ds 16
1 0 0 1 0 
1 300 0 0 -1 
1 0 -300 1 0 
1 0 0 1 0 
1 0 0 0 -1 
1 0 0 0 1 
1 0 0 1 0 
1 300 0 0 -1 
1 0 -300 1 0 
1 0 300 1 0 
1 0 0 0 -1 
1 300 0 0 1 
1 0 0 0 1 
1 0 300 1 0 
1 300 0 0 1 
1 0 0 1 0 
Curves 11
1 50 50 50 0 0 1 
1 50 50 350 -0 1 0 
1 50 350 50 0 0 1 
1 50 50 50 -0 1 0 
1 350 50 50 0 0 1 
1 350 50 350 0 1 0 
1 350 350 50 0 0 1 
1 350 50 50 -0 1 0 
1 50 350 50 1 0 -0 
1 50 350 350 1 0 -0 
1 50 50 50 1 0 -0 
Polygon3D 0
PolygonOnTriangulations 16
2 1 2 
p 1.21181760000049 1 0 300 
2 2 3 
p 1.21181760000049 1 0 300 
2 4 3 
p 1.21181760000049 1 0 300 
2 1 4 
p 1.21181760000049 1 0 300 
2 1 4 
p 1.21181760000049 1 0 300 
2 1 2 
p 1.21181760000049 1 0 300 
2 1 2 
p 1.21181760000049 1 0 300 
2 2 3 
p 1.21181760000049 1 0 300 
2 4 3 
p 1.21181760000049 1 0 300 
2 2 3 
p 1.21181760000049 1 0 300 
2 1 4 
p 1.21181760000049 1 0 300 
2 4 3 
p 1.21181760000049 1 0 300 
2 1 2 
p 1.21181760000049 1 0 300 
2 2 3 
p 1.21181760000049 1 0 300 
2 4 3 
p 1.21181760000049 1 0 300 
2 1 4 
p 1.21181760000049 1 0 300 
Surfaces 4
1 50 50 50 1 0 -0 0 0 1 0 -1 0 
1 50 350 50 -0 1 0 0 0 1 1 0 -0 
1 50 50 50 0 0 1 1 0 -0 -0 1 0 
1 350 50 50 1 0 -0 0 0 1 0 -1 0 
Triangulations 4
4 2 1 1.21181760000049
50 50 50 50 50 350 50 350 350 50 350 50 0 0 300 0 300 -300 0 -300 1 4 3 3 2 1 
4 2 1 1.21181760000049
50 350 50 350 350 50 350 350 350 50 350 350 0 0 0 300 300 300 300 0 2 1 4 4 3 2 
4 2 1 1.21181760000049
50 50 50 50 350 50 350 350 50 350 50 50 0 0 0 300 300 300 300 0 2 1 4 4 3 2 
4 2 1 1.21181760000049
350 50 50 350 50 350 350 350 350 350 350 50 0 0 300 0 300 -300 0 -300 1 4 3 3 2 1 

TShapes 28
Ve
1e-07
50 50 350
0 0

0101100
*
Ve
1e-07
50 50 50
0 0

0101100
*
Ed
 1e-07 1 1 0
1  1 0 0 300
2  1 1 0 0 300
6  1 1 0
0

0101000
-28 0 +27 0 *
Ve
1e-07
50 350 350
0 0

0101100
*
Ed
 1e-07 1 1 0
1  2 0 0 300
2  2 1 0 0 300
6  2 1 0
0

0101000
-25 0 +28 0 *
Ve
1e-07
50 350 50
0 0

0101100
*
Ed
 1e-07 1 1 0
1  3 0 0 300
2  3 1 0 0 300
2  4 2 0 0 300
6  3 1 0
6  4 2 0
0

0101000
-25 0 +23 0 *
Ed
 1e-07 1 1 0
1  4 0 0 300
2  5 1 0 0 300
2  6 3 0 0 300
6  5 1 0
6  6 3 0
0

0101000
-23 0 +27 0 *
Wi

0101000
-26 0 -24 0 +22 0 +21 0 *
Fa
0  1e-07 1 0
2  1
0111000
+20 0 *
Ve
1e-07
350 50 50
0 0

0101100
*
Ve
1e-07
350 50 350
0 0

0101100
*
Ed
 1e-07 1 1 0
1  5 0 0 300
2  7 4 0 0 300
6  7 4 0
0

0101000
+18 0 -17 0 *
Ve
1e-07
350 350 350
0 0

0101100
*
Ed
 1e-07 1 1 0
1  6 0 0 300
2  8 4 0 0 300
6  8 4 0
0

0101000
+17 0 -15 0 *
Ve
1e-07
350 350 50
0 0

0101100
*
Ed
 1e-07 1 1 0
1  7 0 0 300
2  9 4 0 0 300
2  10 2 0 0 300
6  9 4 0
6  10 2 0
0

0101000
-15 0 +13 0 *
Ed
 1e-07 1 1 0
1  8 0 0 300
2  11 4 0 0 300
2  12 3 0 0 300
6  11 4 0
6  12 3 0
0

0101000
-13 0 +18 0 *
Wi

0101000
-16 0 -14 0 +12 0 +11 0 *
Fa
0  1e-07 4 0
2  4
0111000
+10 0 *
Ed
 1e-07 1 1 0
1  9 0 0 300
2  13 2 0 0 300
2  14 3 0 0 300
6  13 2 0
6  14 3 0
0

0101000
-13 0 +23 0 *
Ed
 1e-07 1 1 0
1  10 0 0 300
2  15 2 0 0 300
6  15 2 0
0

0101000
-15 0 +25 0 *
Wi

0101000
-8 0 -12 0 +7 0 +22 0 *
Fa
0  1e-07 2 0
2  2
0111000
+6 0 *
Ed
 1e-07 1 1 0
1  11 0 0 300
2  16 3 0 0 300
6  16 3 0
0

0101000
+27 0 -18 0 *
Wi

0101000
-21 0 -8 0 +11 0 +4 0 *
Fa
0  1e-07 3 0
2  3
0111000
+3 0 *
Sh

0101000
-19 0 +9 0 +5 0 -2 0 *

+1 0 
0

