DBRep_DrawableShape

CASCADE Topology V1, (c) Matra-Datavision
Locations 5
1
              1               0               0 -2797.46167982628 
              0               1               0              -0 
              0               0               1              -0 
2  1 -1 0
1
              1               0               0 5594.92335965255 
              0               1               0               0 
              0               0               1               0 
2  1 1 3 1 0
2  3 -1 1 -1 0
Curve2ds 16
8 0 20000
1 -20000 0 0 1 
8 -20000 0
1 0 0 1 0 
8 0 20000
1 0 0 0 1 
8 -20000 0
1 0 20000 1 0 
8 0 5.5949233596525527
1 -1.2060549977218854e-13 0 0 -1 
8 0 5.5949233596525527
1 12236.06797749979 0 0 -1 
8 0 5.5949233596525527
1 -1.0163065312361417e-13 0 0 -1 
8 -1.2060549977218854e-13 12236.06797749979
1 0 0 1 0 
7 0 0  2 3 2  9.984104223033395e-10 2.0783375020982935e-13  6118.0339887498894 2.078337502098292e-13  12236.067977498786 2.0783375020982935e-13 
 -1.2060549977229194e-13 3 12236.06797749979 3
8 -1.2060549977218854e-13 12236.06797749979
1 0 -5.5949233596525527 1 0 
7 0 0  2 3 2  9.984104223033395e-10 -5.5949233596527597  6118.0339887498894 -5.5949233596527552  12236.067977498786 -5.5949233596527597 
 -1.2060549977229194e-13 3 12236.06797749979 3
8 0 5.5949233596525527
1 18486.17021102742 0 0 -1 
8 -1.0163065312361417e-13 18486.17021102742
1 0 0 1 0 
7 0 0  2 3 2  9.9875790480056701e-10 2.0783375020982935e-13  9243.0851055136991 2.078337502098292e-13  18486.17021102642 2.0783375020982935e-13 
 -1.0163065312366766e-13 3 18486.17021102742 3
8 -1.0163065312361417e-13 18486.17021102742
1 0 -5.5949233596525527 1 0 
7 0 0  2 3 2  9.9875790480056701e-10 -5.5949233596527597  9243.0851055136991 -5.5949233596527552  18486.17021102642 -5.5949233596527597 
 -1.0163065312366766e-13 3 18486.17021102742 3
Curves 16
7 0 0  1 2 2  0 -10 10  0 10 10 
 0 2 20000 2
7 0 0  1 2 2  0 -10 10  0 -10 -10 
 -20000 2 0 2
7 0 0  1 2 2  0 -10 -10  0 10 -10 
 0 2 20000 2
7 0 0  1 2 2  0 10 10  0 10 -10 
 -20000 2 0 2
1 -2.7974616798262764 -5 5 1 0 0 
1 -2.7974616798262764 7 4 1 0 0 
7 0 0  3 5 3  2794.6642181464499 -5 5  2794.6642181464499 -1.3790666271926153 6.2182933175437132  2794.6642181464499 2.6996226986406473 6.2182933175437096  2794.6642181464499 6.347713335307037 4.3942479992105197  2794.6642181464499 7 4 
 -1.2060549977218854e-13 4 10000.000000000002 1 12236.06797749979 4
7 0 0  3 5 3  -2794.6642181464499 -5 5  -2794.6642181464499 -1.3790666271926153 6.2182933175437132  -2794.6642181464499 2.6996226986406473 6.2182933175437096  -2794.6642181464499 6.347713335307037 4.3942479992105197  -2794.6642181464499 7 4 
 -1.2060549977218854e-13 4 10000.000000000002 1 12236.06797749979 4
1 -2.7974616798262764 -1.9999999999999996 -2.0000000000000004 1 0 0 
7 0 0  3 5 3  2794.6642181464499 7 4  2794.6642181464499 5.8885275988029511 -4.1190103929860875  2794.6642181464499 3.3386503780776207 -9.7287402785818102  2794.6642181464499 -0.51075594828136284 -4.9169823706330797  2794.6642181464499 -2 -2 
 -1.0163065312361417e-13 4 12083.04597359457 1 18486.17021102742 4
7 0 0  3 5 3  -2794.6642181464499 7 4  -2794.6642181464499 5.8885275988029511 -4.1190103929860875  -2794.6642181464499 3.3386503780776207 -9.7287402785818102  -2794.6642181464499 -0.51075594828136284 -4.9169823706330797  -2794.6642181464499 -2 -2 
 -1.0163065312361417e-13 4 12083.04597359457 1 18486.17021102742 4
1 -2.7974616798262764 -7 0 1 0 0 
1 2794.6642181464499 -2 -2 0 -0.9284766908852593 0.37139067635410372 
1 -2794.6642181464499 -2 -2 0 -0.9284766908852593 0.37139067635410372 
1 2794.6642181464499 -7 0 0 0.37139067635410372 0.9284766908852593 
1 -2794.6642181464499 -7 0 0 0.37139067635410372 0.9284766908852593 
Polygon3D 0
PolygonOnTriangulations 0
Surfaces 7
9 0 0 0 0 1 1 2 2 2 2 0 -10 10  0 10 10  
0 -10 -10  0 10 -10  

-20000 2
0 2

0 2
20000 2

6 -1 -0 -0 
7 0 0  3 5 3  -2.7974616798262764 -5 5  -2.7974616798262764 -1.3790666271926153 6.2182933175437132  -2.7974616798262764 2.6996226986406473 6.2182933175437096  -2.7974616798262764 6.347713335307037 4.3942479992105197  -2.7974616798262764 7 4 
 -1.2060549977218854e-13 4 10000.000000000002 1 12236.06797749979 4
6 -1 -0 -0 
7 0 0  3 5 3  -2.7974616798262764 7 4  -2.7974616798262764 5.8885275988029511 -4.1190103929860875  -2.7974616798262764 3.3386503780776207 -9.7287402785818102  -2.7974616798262764 -0.51075594828136284 -4.9169823706330797  -2.7974616798262764 -2 -2 
 -1.0163065312361417e-13 4 12083.04597359457 1 18486.17021102742 4
9 0 0 0 0 3 1 5 2 3 2 2.7974616788262763 -4.9999999999989129 5.000000000000365  -2.7974616788262763 -4.9999999999989129 5.000000000000365  
2.7974616788262763 -1.3790666271919492 6.2182933175437132  -2.7974616788262763 -1.3790666271919492 6.2182933175437132  
2.7974616788262763 2.6996226986406118 6.2182933175435604  -2.7974616788262763 2.6996226986406118 6.2182933175435604  
2.7974616788262763 6.3477133353064419 4.3942479992108181  -2.7974616788262763 6.3477133353064419 4.3942479992108181  
2.7974616788262763 6.999999999999126 4.0000000000005302  -2.7974616788262763 6.999999999999126 4.0000000000005302  

9.9987939450022777e-10 4
10000.000000000002 1
12236.067977498789 4

-5.5949233586525526 2
-1.0000000000000001e-09 2

9 0 0 0 0 3 1 5 2 3 2 2.7974616788262763 6.9999999999997229 3.9999999999979829  -2.7974616788262763 6.9999999999997229 3.9999999999979829  
2.7974616788262763 5.8885275988026757 -4.1190103929866932  -2.7974616788262763 5.8885275988026757 -4.1190103929866932  
2.7974616788262763 3.3386503780775514 -9.7287402785812471  -2.7974616788262763 3.3386503780775514 -9.7287402785812471  
2.7974616788262763 -0.51075594828094628 -4.916982370633602  -2.7974616788262763 -0.51075594828094628 -4.916982370633602  
2.7974616788262763 -1.9999999999993019 -2.0000000000013669  -2.7974616788262763 -1.9999999999993019 -2.0000000000013669  

9.9989836934687639e-10 4
12083.04597359457 1
18486.17021102642 4

-5.5949233586525526 2
-1.0000000000000001e-09 2

1 -2.7974616798262764 -2 -2 0 -0.37139067635410372 -0.9284766908852593 0 -0.9284766908852593 0.37139067635410372 -1 -0 0 
1 -2.7974616798262764 -7 0 0 -0.9284766908852593 0.37139067635410372 0 0.37139067635410372 0.9284766908852593 -1 0 0 
Triangulations 0

TShapes 41
Ve
1e-07
0 -10 10
0 0

0101100
*
Ve
1e-07
0 10 10
0 0

0101100
*
Ed
 1e-10 1 1 0
1  1 0 0 20000
2  1 1 0 0 20000
0

0101000
+41 0 -40 0 *
Ve
1e-07
0 -10 -10
0 0

0101100
*
Ed
 1e-10 1 1 0
1  2 0 -20000 0
2  2 1 0 -20000 0
0

0101000
+41 0 -38 0 *
Ve
1e-07
0 10 -10
0 0

0101100
*
Ed
 1e-10 1 1 0
1  3 0 0 20000
2  3 1 0 0 20000
0

0101000
+38 0 -36 0 *
Ed
 1e-10 1 1 0
1  4 0 -20000 0
2  4 1 0 -20000 0
0

0101000
+40 0 -36 0 *
Wi

0101100
-39 0 +37 0 +35 0 -34 0 *
Fa
1  1e-10 1 0

0111000
+33 0 *
Sh

0101000
+32 0 *
Ve
1e-07
-2.79746167982628 -5 5
0 0

0101100
*
Ve
1e-07
2.79746167982628 -5 5
0 0

0101100
*
Ed
 1e-10 1 1 0
1  5 0 0 5.59492335965255
2  5 2 0 0 5.59492335965255
0

0101000
+30 0 -29 0 *
Ve
1e-07
-2.79746167982628 7 4
0 0

0101100
*
Ve
1e-07
2.79746167982628 7 4
0 0

0101100
*
Ed
 1e-10 1 1 0
1  6 0 0 5.59492335965255
2  6 2 0 0 5.59492335965255
2  7 3 0 0 5.59492335965255
0

0101000
+27 0 -26 0 *
Ed
 1e-07 1 1 0
1  7 0 -1.20605499772189e-13 12236.0679774998
2  8 2 2 -1.20605499772189e-13 12236.0679774998
2  9 4 2 -1.20605499772189e-13 12236.0679774998
0

0101000
+30 2 -27 2 *
Ed
 1e-07 1 1 0
1  8 0 -1.20605499772189e-13 12236.0679774998
2  10 2 5 -1.20605499772189e-13 12236.0679774998
2  11 4 5 -1.20605499772189e-13 12236.0679774998
0

0101000
+29 5 -26 5 *
Wi

0101000
+28 0 -25 0 -24 1 +23 4 *
Fa
0  1e-10 2 0

0111000
+22 0 *
Ve
1e-07
-2.79746167982628 -2 -2
0 0

0101100
*
Ve
1e-07
2.79746167982628 -2 -2
0 0

0101100
*
Ed
 1.00010728023741e-10 1 1 0
1  9 0 0 5.59492335965255
2  12 3 0 0 5.59492335965255
0

0101000
+20 0 -19 0 *
Ed
 1e-07 1 1 0
1  10 0 -1.01630653123614e-13 18486.1702110274
2  13 3 2 -1.01630653123614e-13 18486.1702110274
2  14 5 2 -1.01630653123614e-13 18486.1702110274
0

0101000
-20 2 +27 2 *
Ed
 1e-07 1 1 0
1  11 0 -1.01630653123614e-13 18486.1702110274
2  15 3 5 -1.01630653123614e-13 18486.1702110274
2  16 5 5 -1.01630653123614e-13 18486.1702110274
0

0101000
-19 5 +26 5 *
Wi

0101000
-18 0 +25 0 -17 1 +16 4 *
Fa
0  1e-10 3 0

0111000
+15 0 *
Ve
1e-07
-2.79746167982628 -7 0
0 0

0101100
*
Ve
1e-07
2.79746167982628 -7 0
0 0

0101100
*
Ed
 1e-10 1 1 0
1  12 0 0 5.59492335965255
0

0101000
+13 0 -12 0 *
Ed
 1e-10 1 1 0
1  13 0 0 5.3851648071345
0

0101000
+20 2 -13 2 *
Ed
 1e-10 1 1 0
1  14 0 0 5.3851648071345
0

0101000
+19 5 -12 5 *
Wi

0101000
+18 0 -11 0 -10 1 +9 4 *
Fa
0  1e-10 6 0

0111000
+8 0 *
Ed
 1e-10 1 1 0
1  15 0 0 5.3851648071345
0

0101000
+13 2 -30 2 *
Ed
 1e-10 1 1 0
1  16 0 0 5.3851648071345
0

0101000
+12 5 -29 5 *
Wi

0101000
+11 0 -28 0 -6 1 +5 4 *
Fa
0  1e-10 7 0

0111000
+4 0 *
Sh

0101000
+21 0 +14 0 +7 0 +3 0 *
Co

1100000
+31 0 +2 0 *

+1 0 
0

