DBRep_DrawableShape

CASCADE Topology V1, (c) Matra-Datavision
Locations 0
Curve2ds 16
1 0 0 1 0 
1 200 0 0 -1 
1 0 -200 1 0 
1 0 0 1 0 
1 0 0 0 -1 
1 0 0 0 1 
1 0 0 1 0 
1 200 0 0 -1 
1 0 -200 1 0 
1 0 200 1 0 
1 0 0 0 -1 
1 200 0 0 1 
1 0 0 0 1 
1 0 200 1 0 
1 200 0 0 1 
1 0 0 1 0 
Curves 11
1 30 30 30 0 0 1 
1 30 30 230 -0 1 0 
1 30 230 30 0 0 1 
1 30 30 30 -0 1 0 
1 230 30 30 0 0 1 
1 230 30 230 0 1 0 
1 230 230 30 0 0 1 
1 230 30 30 -0 1 0 
1 30 230 30 1 0 -0 
1 30 230 230 1 0 -0 
1 30 30 30 1 0 -0 
Polygon3D 0
PolygonOnTriangulations 26
2 1 2 
p 0.8076877563088 1 0 200 
2 2 3 
p 0.8076877563088 1 0 200 
2 4 3 
p 0.807948800000205 1 0 200 
2 1 4 
p 0.807948800000205 1 0 200 
2 4 3 
p 0.8076877563088 1 0 200 
2 1 4 
p 0.8076877563088 1 0 200 
2 1 4 
p 0.807948800000205 1 0 200 
2 1 2 
p 0.807948800000205 1 0 200 
2 1 4 
p 0.8076877563088 1 0 200 
2 1 2 
p 0.8076877563088 1 0 200 
2 1 2 
p 0.8076877563088 1 0 200 
2 2 3 
p 0.8076877563088 1 0 200 
2 4 3 
p 0.807948800000205 1 0 200 
2 2 3 
p 0.807948800000205 1 0 200 
2 4 3 
p 0.8076877563088 1 0 200 
2 2 3 
p 0.8076877563088 1 0 200 
2 1 4 
p 0.807948800000205 1 0 200 
2 4 3 
p 0.807948800000205 1 0 200 
2 1 4 
p 0.8076877563088 1 0 200 
2 4 3 
p 0.8076877563088 1 0 200 
2 1 2 
p 0.807948800000205 1 0 200 
2 2 3 
p 0.807948800000205 1 0 200 
2 1 2 
p 0.8076877563088 1 0 200 
2 2 3 
p 0.8076877563088 1 0 200 
2 4 3 
p 0.8076877563088 1 0 200 
2 1 4 
p 0.8076877563088 1 0 200 
Surfaces 4
1 30 30 30 1 0 -0 0 0 1 0 -1 0 
1 30 230 30 -0 1 0 0 0 1 1 0 -0 
1 30 30 30 0 0 1 1 0 -0 -0 1 0 
1 230 30 30 1 0 -0 0 0 1 0 -1 0 
Triangulations 8
4 2 1 0.8076877563088
30 30 30 30 30 230 30 230 230 30 230 30 0 0 200 0 200 -200 0 -200 1 4 3 3 2 1 
4 2 1 0.807948800000205
30 30 30 30 30 230 30 230 230 30 230 30 0 0 200 0 200 -200 0 -200 1 4 3 3 2 1 
4 2 1 0.807948800000205
30 230 30 230 230 30 230 230 230 30 230 230 0 0 0 200 200 200 200 0 2 1 4 4 3 2 
4 2 1 0.8076877563088
30 230 30 230 230 30 230 230 230 30 230 230 0 0 0 200 200 200 200 0 2 1 4 4 3 2 
4 2 1 0.807948800000205
30 30 30 30 230 30 230 230 30 230 30 30 0 0 0 200 200 200 200 0 2 1 4 4 3 2 
4 2 1 0.8076877563088
30 30 30 30 230 30 230 230 30 230 30 30 0 0 0 200 200 200 200 0 2 1 4 4 3 2 
4 2 1 0.8076877563088
230 30 30 230 30 230 230 230 230 230 230 30 0 0 200 0 200 -200 0 -200 1 4 3 3 2 1 
4 2 1 0.807948800000205
230 30 30 230 30 230 230 230 230 230 230 30 0 0 200 0 200 -200 0 -200 1 4 3 3 2 1 

TShapes 29
Ve
1e-07
30 30 230
0 0

0101100
*
Ve
1e-07
30 30 30
0 0

0101100
*
Ed
 1e-07 1 1 0
1  1 0 0 200
2  1 1 0 0 200
6  1 1 0
0

0101000
-29 0 +28 0 *
Ve
1e-07
30 230 230
0 0

0101100
*
Ed
 1e-07 1 1 0
1  2 0 0 200
2  2 1 0 0 200
6  2 1 0
0

0101000
-26 0 +29 0 *
Ve
1e-07
30 230 30
0 0

0101100
*
Ed
 1e-07 1 1 0
1  3 0 0 200
2  3 1 0 0 200
2  4 2 0 0 200
6  3 2 0
6  4 3 0
6  5 1 0
6  6 4 0
0

0101000
-26 0 +24 0 *
Ed
 1e-07 1 1 0
1  4 0 0 200
2  5 1 0 0 200
2  6 3 0 0 200
6  7 2 0
6  8 5 0
6  9 1 0
6  10 6 0
0

0101000
-24 0 +28 0 *
Wi

0101000
-27 0 -25 0 +23 0 +22 0 *
Fa
0  1e-07 1 0
2  1
0111000
+21 0 *
Ve
1e-07
230 30 30
0 0

0101100
*
Ve
1e-07
230 30 230
0 0

0101100
*
Ed
 1e-07 1 1 0
1  5 0 0 200
2  7 4 0 0 200
6  11 7 0
0

0101000
+19 0 -18 0 *
Ve
1e-07
230 230 230
0 0

0101100
*
Ed
 1e-07 1 1 0
1  6 0 0 200
2  8 4 0 0 200
6  12 7 0
0

0101000
+18 0 -16 0 *
Ve
1e-07
230 230 30
0 0

0101100
*
Ed
 1e-07 1 1 0
1  7 0 0 200
2  9 4 0 0 200
2  10 2 0 0 200
6  13 8 0
6  14 3 0
6  15 7 0
6  16 4 0
0

0101000
-16 0 +14 0 *
Ed
 1e-07 1 1 0
1  8 0 0 200
2  11 4 0 0 200
2  12 3 0 0 200
6  17 8 0
6  18 5 0
6  19 7 0
6  20 6 0
0

0101000
-14 0 +19 0 *
Wi

0101000
-17 0 -15 0 +13 0 +12 0 *
Fa
0  1e-07 4 0
2  7
0111000
+11 0 *
Ed
 1e-07 1 1 0
1  9 0 0 200
2  13 2 0 0 200
2  14 3 0 0 200
6  21 3 0
6  22 5 0
6  23 4 0
6  24 6 0
0

0101000
-14 0 +24 0 *
Ed
 1e-07 1 1 0
1  10 0 0 200
2  15 2 0 0 200
6  25 4 0
0

0101000
-16 0 +26 0 *
Wi

0101000
-9 0 -13 0 +8 0 +23 0 *
Fa
0  1e-07 2 0
2  4
0111000
+7 0 *
Ed
 1e-07 1 1 0
1  11 0 0 200
2  16 3 0 0 200
6  26 6 0
0

0101000
+28 0 -19 0 *
Wi

0101000
-22 0 -9 0 +12 0 +5 0 *
Fa
0  1e-07 3 0
2  6
0111000
+4 0 *
Sh

0101000
-20 0 +10 0 +6 0 -3 0 *
Co

1100000
+2 0 *

+1 0 
0

