DBRep_DrawableShape

CASCADE Topology V1, (c) Matra-Datavision
Locations 0
Curve2ds 8
1 -199.124488966836 -510.903244265663 1 0 
1 68.8653995639502 -510.903244265663 0 1 
1 68.8653995639502 -51.7470806176536 -1 0 
1 -199.124488966836 -51.7470806176536 0 -1 
1 0 1.5707963267949 1 0 
1 6.28318530717959 -6.28318530717959 0 1 
1 0 -6.28318530717959 0 1 
1 0 -1.5707963267949 1 0 
Curves 5
1 -199.124488966836 -510.903244265663 0 1 0 0 
1 68.8653995639502 -510.903244265663 0 0 1 0 
1 68.8653995639502 -51.7470806176536 0 -1 0 0 
1 -199.124488966836 -51.7470806176536 0 0 -1 0 
2 -322.720540364583 -364.354899088542 -41.6343587239583 -2.44921270764475e-016 -1 0 1 -2.44921270764475e-016 0 0 0 1 241.458843903554
Polygon3D 0
PolygonOnTriangulations 4
2 1 2 
p 193.167075922844 1 0 6.28318530717959 
13 3 4 5 6 7 8 9 10 11 12 13 14 2 
p 193.167075922844 1 4.71238898038469 4.97418836818384 5.23598775598299 5.49778714378214 5.75958653158129 6.02138591938044 6.28318530717958 6.54498469497873 6.80678408277788 7.06858347057703 7.33038285837618 7.59218224617533 7.85398163397448 
13 15 16 17 18 19 20 21 22 23 24 25 26 1 
p 193.167075922844 1 4.71238898038469 4.97418836818384 5.23598775598299 5.49778714378214 5.75958653158129 6.02138591938044 6.28318530717958 6.54498469497873 6.80678408277788 7.06858347057703 7.33038285837618 7.59218224617533 7.85398163397448 
2 15 3 
p 193.167075922844 1 0 6.28318530717959 
Surfaces 2
1 0 0 0 0 0 1 1 0 0 0 1 0 
4 -322.720540364583 -364.354899088542 -41.6343587239583 0 0 1 1 0 0 0 1 0 241.458843903554
Triangulations 1
29 30 1 193.167075922844
-322.720540364583 -364.354899088542 199.824485179596 -322.720540364583 -364.354899088542 199.824485179596 -322.720540364583 -364.354899088542 -283.093202627513 -260.226392953907 -364.354899088542 -274.865692036302 -201.991118412806 -364.354899088542 -250.743851512858 -151.983354462916 -364.354899088542 -212.371544625626 -113.611047575684 -364.354899088542 -162.363780675736 -89.4892070522394 -364.354899088542 -104.128506134635 -81.2616964610288 -364.354899088542 -41.6343587239588 -89.4892070522391 -364.354899088542 20.8597886867177 -113.611047575683 -364.354899088542 79.0950632278183 -151.983354462915 -364.354899088542 129.102827177709 -201.991118412805 -364.354899088542 167.475134064941 -260.226392953906 -364.354899088542 191.596974588385 -322.720540364583 -364.354899088542 -283.093202627513 -260.226392953907 -364.354899088542 -274.865692036302 -201.991118412806 -364.354899088542 -250.743851512858 -151.983354462916 -364.354899088542 -212.371544625626 -113.611047575684 -364.354899088542 -162.363780675736 -89.4892070522394 -364.354899088542 -104.128506134635 -81.2616964610288 -364.354899088542 -41.6343587239588 -89.4892070522391 -364.354899088542 20.8597886867177 -113.611047575683 -364.354899088542 79.0950632278183 -151.983354462915 -364.354899088542 129.102827177709 -201.991118412805 -364.354899088542 167.475134064941 -260.226392953906 -364.354899088542 191.596974588385 -322.720540364583 -122.896055184987 -41.6343587239583 -564.179384268138 -364.354899088541 -41.6343587239583 -322.720540364583 -605.813742992096 -41.6343587239583 0 1.5707963267949 6.28318530717959 1.5707963267949 6.28318530717959 -1.5707963267949 6.28318530717959 -1.30899693899575 6.28318530717959 -1.0471975511966 6.28318530717959 -0.785398163397449 6.28318530717959 -0.5235987755983 6.28318530717959 -0.261799387799151 6.28318530717959 -1.77635683940025e-015 6.28318530717959 0.261799387799147 6.28318530717959 0.523598775598296 6.28318530717959 0.785398163397446 6.28318530717959 1.04719755119659 6.28318530717959 1.30899693899574 0 -1.5707963267949 0 -1.30899693899575 0 -1.0471975511966 0 -0.785398163397449 0 -0.5235987755983 0 -0.261799387799151 0 -1.77635683940025e-015 0 0.261799387799147 0 0.523598775598296 0 0.785398163397446 0 1.04719755119659 0 1.30899693899574 1.5707963267949 0 3.14159265358979 0 4.71238898038469 0 16 15 27 17 16 27 19 18 27 21 20 27 19 27 20 17 27 18 23 22 27 24 23 27 25 27 26 27 25 24 1 26 27 27 28 1 22 21 27 15 28 27 3 4 29 4 5 29 6 7 29 8 9 29 7 8 29 5 6 29 2 28 29 29 28 3 10 11 29 29 9 10 12 29 11 12 13 29 14 2 29 13 14 29 28 2 1 3 28 15 

TShapes 19
Ve
1e-007
-199.124488966836 -510.903244265663 0
0 0

0101100
*
Ve
1e-007
68.8653995639502 -510.903244265663 0
0 0

0101100
*
Ed
 1e-007 1 1 0
2  1 1 0 0 267.989888530787
1  1 0 0 267.989888530787
0

0101000
+19 0 -18 0 *
Ve
1e-007
68.8653995639502 -51.7470806176536 0
0 0

0101100
*
Ed
 1e-007 1 1 0
2  2 1 0 0 459.156163648009
1  2 0 0 459.156163648009
0

0101000
+18 0 -16 0 *
Ve
1e-007
-199.124488966836 -51.7470806176536 0
0 0

0101100
*
Ed
 1e-007 1 1 0
2  3 1 0 0 267.989888530787
1  3 0 0 267.989888530787
0

0101000
+16 0 -14 0 *
Ed
 1e-007 1 1 0
2  4 1 0 0 459.156163648009
1  4 0 0 459.156163648009
0

0101000
+14 0 -19 0 *
Wi

0101100
+17 0 +15 0 +13 0 +12 0 *
Ve
1e-007
-322.720540364583 -364.354899088542 199.824485179596
0 0

0101100
*
Ed
 1e-007 1 1 1
2  5 2 0 0 6.28318530717959
6  1 1 0
0

0101100
+10 0 -10 0 *
Ve
1e-007
-322.720540364583 -364.354899088542 -283.093202627513
0 0

0101100
*
Ed
 1e-007 1 1 0
1  5 0 4.71238898038469 7.85398163397448
3  6 7CN 2 0 4.71238898038469 7.85398163397448
7  2 3 1 0
0

0101000
-10 0 +8 0 *
Ed
 1e-007 1 1 1
2  8 2 0 0 6.28318530717959
6  4 1 0
0

0101100
+8 0 -8 0 *
Wi

0101000
-9 0 +7 0 +6 0 -7 0 *
Fa
0  1e-007 2 0
2  1
0101000
+5 0 *
Sh

0101100
+4 0 *
So

0100100
+3 0 *
Co

1100000
+11 0 +2 0 *

+1 0 