DBRep_DrawableShape

CASCADE Topology V1, (c) Matra-Datavision
Locations 2
1
              1               0               0               0 
              0               1               0               0 
              0               0               1               0 
2  1 -1 0
Curve2ds 31
1 0 0 1 0 
1 0 0 1 0 
1 100 0 0 -1 
1 0 0 0 1 
1 0 -100 1 0 
1 0 0 1 0 
1 3.14159265358979 0 0 1 
1 0 0 0 -1 
1 0 0 0 1 
1 0 0 1 0 
1 0 100 1 0 
1 100 0 0 -1 
1 100 0 0 1 
1 0 -100 1 0 
1 0 100 1 0 
1 0 0 0 -1 
1 100 0 0 1 
1 0 0 0 1 
1 0 0 1 0 
1 100 0 0 1 
1 0 0 1 0 
1 0 0 0 1 
1 0 100 1 0 
1 100 0 0 1 
1 0 100 1 0 
1 0 100 1 0 
2 0 0 1 0 0 1 50
1 6.28318530717959 0 0 1 
1 0 0 0 1 
1 0 0 1 0 
2 0 0 1 0 0 1 50
Curves 15
1 0 0 0 0 0 1 
1 0 0 100 0 1 0 
1 0 100 0 0 0 1 
1 0 0 0 0 1 0 
1 100 0 0 0 0 1 
1 100 0 100 0 1 0 
1 100 100 0 0 0 1 
1 100 0 0 0 1 0 
1 0 0 0 1 0 0 
1 0 0 100 1 0 0 
1 0 100 0 1 0 0 
1 0 100 100 1 0 0 
2 50 100 100 0 0 1 1 0 0 0 1 0 50
1 100 100 0 0 0 1 
2 50 100 0 0 0 1 1 0 0 0 1 0 50
Polygon3D 0
PolygonOnTriangulations 44
2 1 2 
p 10.00000002 1 0 100 
2 1 4 
p 12.000000004 1 0 100 
2 4 3 
p 12.000000004 1 0 100 
2 4 3 
p 12.000000004 1 0 100 
2 2 3 
p 10.00000002 1 0 100 
2 1 2 
p 12.000000004 1 0 100 
2 4 3 
p 10.00000002 1 0 100 
2 1 4 
p 12.000000004 1 0 100 
2 27 26 
p 12.000000004 1 0 100 
2 4 3 
p 12.000000004 1 0 100 
2 27 3 
p 12.000000004 1 0 100 
2 1 2 
p 12.000000004 1 0 100 
2 27 3 
p 12.000000004 1 0 100 
2 1 2 
p 12.000000004 1 0 100 
2 1 4 
p 10.00000002 1 0 100 
2 1 2 
p 12.000000004 1 0 100 
2 1 2 
p 10.00000002 1 0 100 
2 2 3 
p 12.000000004 1 0 100 
2 2 3 
p 10.00000002 1 0 100 
2 4 3 
p 12.000000004 1 0 100 
2 4 3 
p 10.00000002 1 0 100 
2 2 3 
p 12.000000004 1 0 100 
2 1 4 
p 10.00000002 1 0 100 
2 4 3 
p 12.000000004 1 0 100 
2 1 2 
p 10.00000002 1 0 100 
2 1 4 
p 12.2000000024 1 0 100 
2 4 3 
p 10.00000002 1 0 100 
2 1 4 
p 12.2000000024 1 0 100 
2 26 27 
p 15.411961021462 1 0 100 
2 18 19 
p 15.411961021462 1 0 100 
2 1 2 
p 10.00000002 1 0 100 
2 2 3 
p 12.2000000024 1 0 100 
2 4 3 
p 10.00000002 1 0 100 
2 2 3 
p 12.2000000024 1 0 100 
49 1 3 4 5 6 7 8 9 10 11 12 13 14 15 16 17 18 19 20 21 22 23 24 25 26 27 28 29 30 31 32 33 34 35 36 37 38 39 40 41 42 43 44 45 46 47 48 49 2 
p 10.8239220229239 1 0 0.130899693899575 0.261799387799149 0.392699081698724 0.523598775598299 0.654498469497873 0.785398163397448 0.916297857297023 1.0471975511966 1.17809724509617 1.30899693899575 1.43989663289532 1.5707963267949 1.70169602069447 1.83259571459405 1.96349540849362 2.0943951023932 2.22529479629277 2.35619449019234 2.48709418409192 2.61799387799149 2.74889357189107 2.87979326579064 3.01069295969022 3.14159265358979 3.27249234748937 3.40339204138894 3.53429173528852 3.66519142918809 3.79609112308767 3.92699081698724 4.05789051088681 4.18879020478639 4.31968989868596 4.45058959258554 4.58148928648511 4.71238898038469 4.84328867428426 4.97418836818384 5.10508806208341 5.23598775598299 5.36688744988256 5.49778714378213 5.62868683768171 5.75958653158128 5.89048622548086 6.02138591938043 6.15228561328001 6.28318530717959 
49 1 2 3 4 5 6 7 8 9 10 11 12 13 14 15 16 17 18 19 20 21 22 23 24 25 26 27 28 29 30 31 32 33 34 35 36 37 38 39 40 41 42 43 44 45 46 47 48 1 
p 12.1647844045848 1 0 0.130899693899575 0.261799387799149 0.392699081698724 0.523598775598299 0.654498469497873 0.785398163397448 0.916297857297023 1.0471975511966 1.17809724509617 1.30899693899575 1.43989663289532 1.5707963267949 1.70169602069447 1.83259571459405 1.96349540849362 2.0943951023932 2.22529479629277 2.35619449019234 2.48709418409192 2.61799387799149 2.74889357189107 2.87979326579064 3.01069295969022 3.14159265358979 3.27249234748937 3.40339204138894 3.53429173528852 3.66519142918809 3.79609112308767 3.92699081698724 4.05789051088681 4.18879020478639 4.31968989868596 4.45058959258554 4.58148928648511 4.71238898038469 4.84328867428426 4.97418836818384 5.10508806208341 5.23598775598299 5.36688744988256 5.49778714378213 5.62868683768171 5.75958653158128 5.89048622548086 6.02138591938043 6.15228561328001 6.28318530717959 
2 50 2 
p 10.8239220229239 1 0 100 
2 51 1 
p 10.8239220229239 1 0 100 
2 1 2 
p 12.1647844045848 1 0 100 
2 1 2 
p 12.1647844045848 1 0 100 
2 1 2 
p 12.1647844045848 1 0 100 
2 1 2 
p 12.1647844045848 1 0 100 
49 51 52 53 54 55 56 57 58 59 60 61 62 63 64 65 66 67 68 69 70 71 72 73 74 75 76 77 78 79 80 81 82 83 84 85 86 87 88 89 90 91 92 93 94 95 96 97 98 50 
p 10.8239220229239 1 0 0.130899693899575 0.261799387799149 0.392699081698724 0.523598775598299 0.654498469497873 0.785398163397448 0.916297857297023 1.0471975511966 1.17809724509617 1.30899693899575 1.43989663289532 1.5707963267949 1.70169602069447 1.83259571459405 1.96349540849362 2.0943951023932 2.22529479629277 2.35619449019234 2.48709418409192 2.61799387799149 2.74889357189107 2.87979326579064 3.01069295969022 3.14159265358979 3.27249234748937 3.40339204138894 3.53429173528852 3.66519142918809 3.79609112308767 3.92699081698724 4.05789051088681 4.18879020478639 4.31968989868596 4.45058959258554 4.58148928648511 4.71238898038469 4.84328867428426 4.97418836818384 5.10508806208341 5.23598775598299 5.36688744988256 5.49778714378213 5.62868683768171 5.75958653158128 5.89048622548086 6.02138591938043 6.15228561328001 6.28318530717959 
49 1 2 3 4 5 6 7 8 9 10 11 12 13 14 15 16 17 18 19 20 21 22 23 24 25 26 27 28 29 30 31 32 33 34 35 36 37 38 39 40 41 42 43 44 45 46 47 48 1 
p 12.1647844045848 1 0 0.130899693899575 0.261799387799149 0.392699081698724 0.523598775598299 0.654498469497873 0.785398163397448 0.916297857297023 1.0471975511966 1.17809724509617 1.30899693899575 1.43989663289532 1.5707963267949 1.70169602069447 1.83259571459405 1.96349540849362 2.0943951023932 2.22529479629277 2.35619449019234 2.48709418409192 2.61799387799149 2.74889357189107 2.87979326579064 3.01069295969022 3.14159265358979 3.27249234748937 3.40339204138894 3.53429173528852 3.66519142918809 3.79609112308767 3.92699081698724 4.05789051088681 4.18879020478639 4.31968989868596 4.45058959258554 4.58148928648511 4.71238898038469 4.84328867428426 4.97418836818384 5.10508806208341 5.23598775598299 5.36688744988256 5.49778714378213 5.62868683768171 5.75958653158128 5.89048622548086 6.02138591938043 6.15228561328001 6.28318530717959 
Surfaces 9
1 0 0 0 1 0 0 0 0 1 0 -1 0 
1 0 0 0 0 1 0 0 0 1 1 0 0 
1 0 0 100 0 0 1 1 0 0 0 1 0 
1 0 100 0 0 1 0 0 0 1 1 0 0 
2 50 100 0 0 0 1 1 0 0 0 1 0 50
1 0 0 0 0 0 1 1 0 0 0 1 0 
1 100 0 0 1 0 0 0 0 1 0 -1 0 
1 50 100 100 0 0 1 1 0 0 0 1 0 
1 50 100 0 0 0 1 1 0 0 0 1 0 
Triangulations 17
4 2 1 10.00000002
0 0 0 0 0 100 0 100 100 0 100 0 0 0 100 0 100 -100 0 -100 1 4 3 3 2 1 
4 2 1 11.000000012
0 0 0 100 0 0 100 0 100 0 0 100 0 0 0 100 100 100 100 0 2 1 4 4 3 2 
4 2 1 11.000000012
0 100 0 0 100 100 0 0 100 0 0 0 0 -100 100 -100 100 0 0 0 4 1 2 2 3 4 
4 2 1 11.000000012
0 100 0 0 100 100 0 0 100 0 0 0 0 -100 100 -100 100 0 0 0 4 1 2 2 3 4 
4 2 1 12.1000000032
0 0 100 0 100 100 100 100 100 100 0 100 0 0 0 100 100 100 100 0 2 1 4 4 3 2 
4 2 1 11.000000012
0 100 0 100 100 0 100 100 100 0 100 100 0 0 0 100 100 100 100 0 2 1 4 4 3 2 
50 48 1 11.7883727090234
100 100 0 100 100 100 99.5722430686905 106.526309611003 100 98.2962913144534 112.940952255126 100 96.1939766255643 119.134171618254 100 93.3012701892219 125 100 89.6676670145618 130.438071450436 100 85.3553390593274 135.355339059327 100 80.438071450436 139.667667014562 100 75 143.301270189222 100 69.1341716182545 146.193976625564 100 62.940952255126 148.296291314453 100 56.5263096110026 149.572243068691 100 50 150 100 43.4736903889974 149.572243068691 100 37.059047744874 148.296291314453 100 30.8658283817455 146.193976625564 100 25 143.301270189222 100 19.561928549564 139.667667014562 100 14.6446609406726 135.355339059327 100 10.3323329854382 130.438071450436 100 6.69872981077808 125 100 3.80602337443568 119.134171618255 100 1.70370868554659 112.940952255126 100 0.427756931309489 106.526309611003 100 0 100 100 0 100 0 99.5722430686905 106.526309611003 0 98.2962913144534 112.940952255126 0 96.1939766255643 119.134171618254 0 93.3012701892219 125 0 89.6676670145618 130.438071450436 0 85.3553390593274 135.355339059327 0 80.438071450436 139.667667014562 0 75 143.301270189222 0 69.1341716182545 146.193976625564 0 62.940952255126 148.296291314453 0 56.5263096110026 149.572243068691 0 50 150 0 43.4736903889974 149.572243068691 0 37.059047744874 148.296291314453 0 30.8658283817455 146.193976625564 0 25 143.301270189222 0 19.561928549564 139.667667014562 0 14.6446609406726 135.355339059327 0 10.3323329854382 130.438071450436 0 6.69872981077808 125 0 3.80602337443568 119.134171618255 0 1.70370868554659 112.940952255126 0 0.427756931309489 106.526309611003 0 0 0 0 100 0.130899693899575 100 0.261799387799149 100 0.392699081698724 100 0.523598775598299 100 0.654498469497873 100 0.785398163397448 100 0.916297857297023 100 1.0471975511966 100 1.17809724509617 100 1.30899693899575 100 1.43989663289532 100 1.5707963267949 100 1.70169602069447 100 1.83259571459405 100 1.96349540849362 100 2.0943951023932 100 2.22529479629277 100 2.35619449019234 100 2.48709418409192 100 2.61799387799149 100 2.74889357189107 100 2.87979326579064 100 3.01069295969022 100 3.14159265358979 100 3.14159265358979 0 0.130899693899575 0 0.261799387799149 0 0.392699081698724 0 0.523598775598299 0 0.654498469497873 0 0.785398163397448 0 0.916297857297023 0 1.0471975511966 0 1.17809724509617 0 1.30899693899575 0 1.43989663289532 0 1.5707963267949 0 1.70169602069447 0 1.83259571459405 0 1.96349540849362 0 2.0943951023932 0 2.22529479629277 0 2.35619449019234 0 2.48709418409192 0 2.61799387799149 0 2.74889357189107 0 2.87979326579064 0 3.01069295969022 0 1 28 3 28 29 4 30 31 6 31 32 7 29 30 5 33 34 9 34 35 10 36 37 12 37 38 13 35 36 11 32 33 8 2 1 3 3 28 4 5 30 6 6 31 7 29 5 4 33 9 8 8 7 32 34 10 9 10 35 11 12 37 13 36 12 11 39 14 13 39 13 38 40 41 16 41 42 17 43 44 19 44 45 20 42 43 18 46 47 22 47 48 23 49 50 25 50 27 26 48 49 24 45 46 21 15 14 40 16 15 40 18 17 42 19 18 43 16 41 17 21 20 45 22 21 46 24 23 48 26 25 50 24 49 25 22 47 23 19 44 20 40 14 39 
4 2 1 11.5823922082924
100 100 0 100 100 100 0 100 100 0 100 0 0 100 100 100 100 0 0 0 1 4 3 3 2 1 
50 48 1 11.4531571136082
100 100 0 100 100 100 0 100 100 99.5722430686905 106.526309611003 100 98.2962913144534 112.940952255126 100 96.1939766255643 119.134171618254 100 93.3012701892219 125 100 89.6676670145618 130.438071450436 100 85.3553390593274 135.355339059327 100 80.438071450436 139.667667014562 100 75 143.301270189222 100 69.1341716182545 146.193976625564 100 62.940952255126 148.296291314453 100 56.5263096110026 149.572243068691 100 50 150 100 43.4736903889974 149.572243068691 100 37.059047744874 148.296291314453 100 30.8658283817455 146.193976625564 100 25 143.301270189222 100 19.561928549564 139.667667014562 100 14.6446609406726 135.355339059327 100 10.3323329854382 130.438071450436 100 6.69872981077808 125 100 3.80602337443568 119.134171618255 100 1.70370868554659 112.940952255126 100 0.427756931309489 106.526309611003 100 0 100 0 99.5722430686905 106.526309611003 0 98.2962913144534 112.940952255126 0 96.1939766255643 119.134171618254 0 93.3012701892219 125 0 89.6676670145618 130.438071450436 0 85.3553390593274 135.355339059327 0 80.438071450436 139.667667014562 0 75 143.301270189222 0 69.1341716182545 146.193976625564 0 62.940952255126 148.296291314453 0 56.5263096110026 149.572243068691 0 50 150 0 43.4736903889974 149.572243068691 0 37.059047744874 148.296291314453 0 30.8658283817455 146.193976625564 0 25 143.301270189222 0 19.561928549564 139.667667014562 0 14.6446609406726 135.355339059327 0 10.3323329854382 130.438071450436 0 6.69872981077808 125 0 3.80602337443568 119.134171618255 0 1.70370868554659 112.940952255126 0 0.427756931309489 106.526309611003 0 0 0 0 100 3.14159265358979 100 0.130899693899575 100 0.261799387799149 100 0.392699081698724 100 0.523598775598299 100 0.654498469497873 100 0.785398163397448 100 0.916297857297023 100 1.0471975511966 100 1.17809724509617 100 1.30899693899575 100 1.43989663289532 100 1.5707963267949 100 1.70169602069447 100 1.83259571459405 100 1.96349540849362 100 2.0943951023932 100 2.22529479629277 100 2.35619449019234 100 2.48709418409192 100 2.61799387799149 100 2.74889357189107 100 2.87979326579064 100 3.01069295969022 100 3.14159265358979 0 0.130899693899575 0 0.261799387799149 0 0.392699081698724 0 0.523598775598299 0 0.654498469497873 0 0.785398163397448 0 0.916297857297023 0 1.0471975511966 0 1.17809724509617 0 1.30899693899575 0 1.43989663289532 0 1.5707963267949 0 1.70169602069447 0 1.83259571459405 0 1.96349540849362 0 2.0943951023932 0 2.22529479629277 0 2.35619449019234 0 2.48709418409192 0 2.61799387799149 0 2.74889357189107 0 2.87979326579064 0 3.01069295969022 0 1 28 4 28 29 5 30 31 7 31 32 8 29 30 6 33 34 10 34 35 11 36 37 13 37 38 14 35 36 12 32 33 9 2 1 4 4 28 5 6 30 7 7 31 8 29 6 5 33 10 9 9 8 32 34 11 10 11 35 12 13 37 14 36 13 12 39 15 14 39 14 38 40 41 17 41 42 18 43 44 20 44 45 21 42 43 19 46 47 23 47 48 24 49 50 26 50 27 3 48 49 25 45 46 22 16 15 40 17 16 40 19 18 42 20 19 43 17 41 18 22 21 45 23 22 46 25 24 48 3 26 50 25 49 26 23 47 24 20 44 21 40 15 39 
50 48 1 11.4531571136082
100 100 0 100 100 100 0 100 100 99.5722430686905 106.526309611003 100 98.2962913144534 112.940952255126 100 96.1939766255643 119.134171618254 100 93.3012701892219 125 100 89.6676670145618 130.438071450436 100 85.3553390593274 135.355339059327 100 80.438071450436 139.667667014562 100 75 143.301270189222 100 69.1341716182545 146.193976625564 100 62.940952255126 148.296291314453 100 56.5263096110026 149.572243068691 100 50 150 100 43.4736903889974 149.572243068691 100 37.059047744874 148.296291314453 100 30.8658283817455 146.193976625564 100 25 143.301270189222 100 19.561928549564 139.667667014562 100 14.6446609406726 135.355339059327 100 10.3323329854382 130.438071450436 100 6.69872981077808 125 100 3.80602337443568 119.134171618255 100 1.70370868554659 112.940952255126 100 0.427756931309489 106.526309611003 100 0 100 0 99.5722430686905 106.526309611003 0 98.2962913144534 112.940952255126 0 96.1939766255643 119.134171618254 0 93.3012701892219 125 0 89.6676670145618 130.438071450436 0 85.3553390593274 135.355339059327 0 80.438071450436 139.667667014562 0 75 143.301270189222 0 69.1341716182545 146.193976625564 0 62.940952255126 148.296291314453 0 56.5263096110026 149.572243068691 0 50 150 0 43.4736903889974 149.572243068691 0 37.059047744874 148.296291314453 0 30.8658283817455 146.193976625564 0 25 143.301270189222 0 19.561928549564 139.667667014562 0 14.6446609406726 135.355339059327 0 10.3323329854382 130.438071450436 0 6.69872981077808 125 0 3.80602337443568 119.134171618255 0 1.70370868554659 112.940952255126 0 0.427756931309489 106.526309611003 0 0 0 0 100 3.14159265358979 100 0.130899693899575 100 0.261799387799149 100 0.392699081698724 100 0.523598775598299 100 0.654498469497873 100 0.785398163397448 100 0.916297857297023 100 1.0471975511966 100 1.17809724509617 100 1.30899693899575 100 1.43989663289532 100 1.5707963267949 100 1.70169602069447 100 1.83259571459405 100 1.96349540849362 100 2.0943951023932 100 2.22529479629277 100 2.35619449019234 100 2.48709418409192 100 2.61799387799149 100 2.74889357189107 100 2.87979326579064 100 3.01069295969022 100 3.14159265358979 0 0.130899693899575 0 0.261799387799149 0 0.392699081698724 0 0.523598775598299 0 0.654498469497873 0 0.785398163397448 0 0.916297857297023 0 1.0471975511966 0 1.17809724509617 0 1.30899693899575 0 1.43989663289532 0 1.5707963267949 0 1.70169602069447 0 1.83259571459405 0 1.96349540849362 0 2.0943951023932 0 2.22529479629277 0 2.35619449019234 0 2.48709418409192 0 2.61799387799149 0 2.74889357189107 0 2.87979326579064 0 3.01069295969022 0 1 28 4 28 29 5 30 31 7 31 32 8 29 30 6 33 34 10 34 35 11 36 37 13 37 38 14 35 36 12 32 33 9 2 1 4 4 28 5 6 30 7 7 31 8 29 6 5 33 10 9 9 8 32 34 11 10 11 35 12 13 37 14 36 13 12 39 15 14 39 14 38 40 41 17 41 42 18 43 44 20 44 45 21 42 43 19 46 47 23 47 48 24 49 50 26 50 27 3 48 49 25 45 46 22 16 15 40 17 16 40 19 18 42 20 19 43 17 41 18 22 21 45 23 22 46 25 24 48 3 26 50 25 49 26 23 47 24 20 44 21 40 15 39 
4 2 1 12.1000000032
0 0 0 0 100 0 100 100 0 100 0 0 0 0 0 100 100 100 100 0 2 1 4 4 3 2 
4 2 1 10.00000002
100 0 0 100 0 100 100 100 100 100 100 0 0 0 100 0 100 -100 0 -100 1 4 3 3 2 1 
28 27 1 15.411961021462
100 100 100 99.5722430686905 106.526309611003 100 98.2962913144534 112.940952255126 100 96.1939766255643 119.134171618254 100 93.3012701892219 125 100 89.6676670145618 130.438071450436 100 85.3553390593274 135.355339059327 100 80.438071450436 139.667667014562 100 75 143.301270189222 100 69.1341716182545 146.193976625564 100 62.940952255126 148.296291314453 100 56.5263096110026 149.572243068691 100 50 150 100 43.4736903889974 149.572243068691 100 37.059047744874 148.296291314453 100 30.8658283817455 146.193976625564 100 25 143.301270189222 100 19.561928549564 139.667667014562 100 14.6446609406726 135.355339059327 100 10.3323329854382 130.438071450436 100 6.69872981077808 125 100 3.80602337443568 119.134171618255 100 1.70370868554659 112.940952255126 100 0.427756931309489 106.526309611003 100 0 100 100 0 0 100 100 0 100 50 75 100 50 0 49.5722430686905 6.52630961100257 48.2962913144534 12.940952255126 46.1939766255643 19.1341716182545 43.3012701892219 25 39.6676670145618 30.438071450436 35.3553390593274 35.3553390593274 30.438071450436 39.6676670145617 25 43.3012701892219 19.1341716182545 46.1939766255643 12.940952255126 48.2962913144534 6.52630961100257 49.5722430686905 -7.105427357601e-015 50 -6.52630961100259 49.5722430686905 -12.940952255126 48.2962913144534 -19.1341716182545 46.1939766255643 -25 43.3012701892219 -30.438071450436 39.6676670145617 -35.3553390593274 35.3553390593274 -39.6676670145618 30.438071450436 -43.3012701892219 25 -46.1939766255643 19.1341716182545 -48.2962913144534 12.9409522551261 -49.5722430686905 6.52630961100262 -50 0 -50 -100 50 -100 0 -25 28 21 22 24 28 23 22 23 28 20 28 19 28 20 21 25 28 24 28 16 17 28 18 19 15 16 28 14 15 28 17 18 28 28 13 14 25 26 28 28 4 5 4 28 3 28 5 6 2 28 1 3 28 2 1 28 27 28 26 27 28 10 11 11 12 28 28 8 9 9 10 28 28 7 8 28 6 7 28 12 13 
20 19 1 15.411961021462
100 100 100 0 100 100 99.0392640201615 109.754516100806 100 96.1939766255643 119.134171618254 100 91.5734806151273 127.77851165098 100 85.3553390593274 135.355339059327 100 77.7785116509801 141.573480615127 100 69.1341716182545 146.193976625564 100 59.7545161008064 149.039264020162 100 50 150 100 40.2454838991936 149.039264020162 100 30.8658283817455 146.193976625564 100 22.2214883490199 141.573480615127 100 14.6446609406726 135.355339059327 100 8.42651938487273 127.77851165098 100 3.80602337443566 119.134171618254 100 0.960735979838475 109.754516100806 100 0 0 100 100 0 100 50 75 100 50 0 -50 0 49.0392640201615 9.75451610080641 46.1939766255643 19.1341716182545 41.5734806151273 27.7785116509801 35.3553390593274 35.3553390593274 27.7785116509801 41.5734806151273 19.1341716182545 46.1939766255643 9.75451610080641 49.0392640201615 0 50 -9.75451610080641 49.0392640201615 -19.1341716182545 46.1939766255643 -27.7785116509801 41.5734806151273 -35.3553390593274 35.3553390593274 -41.5734806151273 27.7785116509801 -46.1939766255643 19.1341716182545 -49.0392640201615 9.75451610080638 -50 -100 50 -100 0 -25 2 18 20 17 20 16 20 17 2 16 20 15 18 19 20 15 20 14 20 12 13 13 14 20 12 20 11 20 10 11 5 20 4 3 4 20 1 3 20 6 20 5 20 9 10 20 8 9 20 7 8 7 20 6 1 20 19 
98 96 1 10.8239220229239
100 100 100 100 100 100 99.5722430686905 106.526309611003 100 98.2962913144534 112.940952255126 100 96.1939766255643 119.134171618254 100 93.3012701892219 125 100 89.6676670145618 130.438071450436 100 85.3553390593274 135.355339059327 100 80.438071450436 139.667667014562 100 75 143.301270189222 100 69.1341716182545 146.193976625564 100 62.940952255126 148.296291314453 100 56.5263096110026 149.572243068691 100 50 150 100 43.4736903889974 149.572243068691 100 37.059047744874 148.296291314453 100 30.8658283817455 146.193976625564 100 25 143.301270189222 100 19.561928549564 139.667667014562 100 14.6446609406726 135.355339059327 100 10.3323329854382 130.438071450436 100 6.69872981077808 125 100 3.80602337443568 119.134171618255 100 1.70370868554659 112.940952255126 100 0.427756931309489 106.526309611003 100 0 100 100 0.427756931309467 93.4736903889975 100 1.70370868554657 87.059047744874 100 3.80602337443563 80.8658283817456 100 6.69872981077803 75.0000000000001 100 10.3323329854382 69.561928549564 100 14.6446609406726 64.6446609406727 100 19.5619285495639 60.3323329854383 100 24.9999999999999 56.6987298107781 100 30.8658283817454 53.8060233744357 100 37.0590477448738 51.7037086855466 100 43.4736903889973 50.4277569313095 100 49.9999999999999 50 100 56.5263096110024 50.4277569313095 100 62.9409522551259 51.7037086855465 100 69.1341716182543 53.8060233744356 100 74.9999999999999 56.698729810778 100 80.4380714504359 60.3323329854381 100 85.3553390593272 64.6446609406725 100 89.6676670145616 69.5619285495638 100 93.3012701892218 74.9999999999998 100 96.1939766255643 80.8658283817453 100 98.2962913144534 87.0590477448738 100 99.5722430686905 93.4736903889972 100 100 100 0 100 100 0 99.5722430686905 106.526309611003 0 98.2962913144534 112.940952255126 0 96.1939766255643 119.134171618254 0 93.3012701892219 125 0 89.6676670145618 130.438071450436 0 85.3553390593274 135.355339059327 0 80.438071450436 139.667667014562 0 75 143.301270189222 0 69.1341716182545 146.193976625564 0 62.940952255126 148.296291314453 0 56.5263096110026 149.572243068691 0 50 150 0 43.4736903889974 149.572243068691 0 37.059047744874 148.296291314453 0 30.8658283817455 146.193976625564 0 25 143.301270189222 0 19.561928549564 139.667667014562 0 14.6446609406726 135.355339059327 0 10.3323329854382 130.438071450436 0 6.69872981077808 125 0 3.80602337443568 119.134171618255 0 1.70370868554659 112.940952255126 0 0.427756931309489 106.526309611003 0 0 100 0 0.427756931309467 93.4736903889975 0 1.70370868554657 87.059047744874 0 3.80602337443563 80.8658283817456 0 6.69872981077803 75.0000000000001 0 10.3323329854382 69.561928549564 0 14.6446609406726 64.6446609406727 0 19.5619285495639 60.3323329854383 0 24.9999999999999 56.6987298107781 0 30.8658283817454 53.8060233744357 0 37.0590477448738 51.7037086855466 0 43.4736903889973 50.4277569313095 0 49.9999999999999 50 0 56.5263096110024 50.4277569313095 0 62.9409522551259 51.7037086855465 0 69.1341716182543 53.8060233744356 0 74.9999999999999 56.698729810778 0 80.4380714504359 60.3323329854381 0 85.3553390593272 64.6446609406725 0 89.6676670145616 69.5619285495638 0 93.3012701892218 74.9999999999998 0 96.1939766255643 80.8658283817453 0 98.2962913144534 87.0590477448738 0 99.5722430686905 93.4736903889972 0 0 100 6.28318530717959 100 0.130899693899575 100 0.261799387799149 100 0.392699081698724 100 0.523598775598299 100 0.654498469497873 100 0.785398163397448 100 0.916297857297023 100 1.0471975511966 100 1.17809724509617 100 1.30899693899575 100 1.43989663289532 100 1.5707963267949 100 1.70169602069447 100 1.83259571459405 100 1.96349540849362 100 2.0943951023932 100 2.22529479629277 100 2.35619449019234 100 2.48709418409192 100 2.61799387799149 100 2.74889357189107 100 2.87979326579064 100 3.01069295969022 100 3.14159265358979 100 3.27249234748937 100 3.40339204138894 100 3.53429173528852 100 3.66519142918809 100 3.79609112308767 100 3.92699081698724 100 4.05789051088681 100 4.18879020478639 100 4.31968989868596 100 4.45058959258554 100 4.58148928648511 100 4.71238898038469 100 4.84328867428426 100 4.97418836818384 100 5.10508806208341 100 5.23598775598298 100 5.36688744988256 100 5.49778714378213 100 5.62868683768171 100 5.75958653158128 100 5.89048622548086 100 6.02138591938043 100 6.15228561328001 100 6.28318530717959 0 0 0 0.130899693899575 0 0.261799387799149 0 0.392699081698724 0 0.523598775598299 0 0.654498469497873 0 0.785398163397448 0 0.916297857297023 0 1.0471975511966 0 1.17809724509617 0 1.30899693899575 0 1.43989663289532 0 1.5707963267949 0 1.70169602069447 0 1.83259571459405 0 1.96349540849362 0 2.0943951023932 0 2.22529479629277 0 2.35619449019234 0 2.48709418409192 0 2.61799387799149 0 2.74889357189107 0 2.87979326579064 0 3.01069295969022 0 3.14159265358979 0 3.27249234748937 0 3.40339204138894 0 3.53429173528852 0 3.66519142918809 0 3.79609112308767 0 3.92699081698724 0 4.05789051088681 0 4.18879020478639 0 4.31968989868596 0 4.45058959258554 0 4.58148928648511 0 4.71238898038469 0 4.84328867428426 0 4.97418836818384 0 5.10508806208341 0 5.23598775598298 0 5.36688744988256 0 5.49778714378213 0 5.62868683768171 0 5.75958653158128 0 5.89048622548086 0 6.02138591938043 0 6.15228561328001 0 51 52 3 52 53 4 54 55 6 55 56 7 53 54 5 57 58 9 58 59 10 60 61 12 61 62 13 59 60 11 56 57 8 63 64 15 64 65 16 66 67 18 67 68 19 65 66 17 69 70 21 70 71 22 72 73 24 73 74 25 71 72 23 68 69 20 62 63 14 1 51 3 3 52 4 5 54 6 6 55 7 53 5 4 8 57 9 9 58 10 11 60 12 12 61 13 59 11 10 56 8 7 14 63 15 15 64 16 66 18 17 17 16 65 67 19 18 13 62 14 19 68 20 20 69 21 22 71 23 24 73 25 72 24 23 70 22 21 75 26 25 75 25 74 76 77 28 77 78 29 79 80 31 80 81 32 78 79 30 82 83 34 83 84 35 85 86 37 86 87 38 84 85 36 81 82 33 88 89 40 89 90 41 91 92 43 92 93 44 90 91 42 94 95 46 95 96 47 97 98 49 98 50 2 96 97 48 93 94 45 87 88 39 27 26 76 28 27 76 30 29 78 31 30 79 28 77 29 33 32 81 34 33 82 36 35 84 37 36 85 34 83 35 31 80 32 39 38 87 40 39 88 42 41 90 43 42 91 40 89 41 45 44 93 46 45 94 48 47 96 2 49 98 48 97 49 46 95 47 43 92 44 37 86 38 76 26 75 
49 48 1 12.1647844045848
100 100 100 99.5722430686905 106.526309611003 100 98.2962913144534 112.940952255126 100 96.1939766255643 119.134171618254 100 93.3012701892219 125 100 89.6676670145618 130.438071450436 100 85.3553390593274 135.355339059327 100 80.438071450436 139.667667014562 100 75 143.301270189222 100 69.1341716182545 146.193976625564 100 62.940952255126 148.296291314453 100 56.5263096110026 149.572243068691 100 50 150 100 43.4736903889974 149.572243068691 100 37.059047744874 148.296291314453 100 30.8658283817455 146.193976625564 100 25 143.301270189222 100 19.561928549564 139.667667014562 100 14.6446609406726 135.355339059327 100 10.3323329854382 130.438071450436 100 6.69872981077808 125 100 3.80602337443568 119.134171618255 100 1.70370868554659 112.940952255126 100 0.427756931309489 106.526309611003 100 0 100 100 0.427756931309467 93.4736903889975 100 1.70370868554657 87.059047744874 100 3.80602337443563 80.8658283817456 100 6.69872981077803 75.0000000000001 100 10.3323329854382 69.561928549564 100 14.6446609406726 64.6446609406727 100 19.5619285495639 60.3323329854383 100 24.9999999999999 56.6987298107781 100 30.8658283817454 53.8060233744357 100 37.0590477448738 51.7037086855466 100 43.4736903889973 50.4277569313095 100 49.9999999999999 50 100 56.5263096110024 50.4277569313095 100 62.9409522551259 51.7037086855465 100 69.1341716182543 53.8060233744356 100 74.9999999999999 56.698729810778 100 80.4380714504359 60.3323329854381 100 85.3553390593272 64.6446609406725 100 89.6676670145616 69.5619285495638 100 93.3012701892218 74.9999999999998 100 96.1939766255643 80.8658283817453 100 98.2962913144534 87.0590477448738 100 99.5722430686905 93.4736903889972 100 50 100 100 50 0 49.5722430686905 6.52630961100258 48.2962913144534 12.940952255126 46.1939766255643 19.1341716182545 43.3012701892219 25 39.6676670145618 30.438071450436 35.3553390593274 35.3553390593274 30.438071450436 39.6676670145617 25 43.3012701892219 19.1341716182545 46.1939766255643 12.940952255126 48.2962913144534 6.52630961100257 49.5722430686905 -7.105427357601e-015 50 -6.52630961100259 49.5722430686905 -12.940952255126 48.2962913144534 -19.1341716182545 46.1939766255643 -25 43.3012701892219 -30.438071450436 39.6676670145618 -35.3553390593274 35.3553390593274 -39.6676670145618 30.438071450436 -43.3012701892219 25 -46.1939766255643 19.1341716182545 -48.2962913144534 12.9409522551261 -49.5722430686905 6.52630961100262 -50 4.9737991503207e-014 -49.5722430686905 -6.52630961100252 -48.2962913144534 -12.940952255126 -46.1939766255644 -19.1341716182544 -43.301270189222 -24.9999999999999 -39.6676670145618 -30.438071450436 -35.3553390593274 -35.3553390593273 -30.4380714504361 -39.6676670145617 -25.0000000000001 -43.3012701892219 -19.1341716182546 -46.1939766255643 -12.9409522551262 -48.2962913144534 -6.52630961100272 -49.5722430686905 -1.4210854715202e-013 -50 6.52630961100243 -49.5722430686905 12.9409522551259 -48.2962913144535 19.1341716182543 -46.1939766255644 24.9999999999999 -43.301270189222 30.4380714504359 -39.6676670145619 35.3553390593272 -35.3553390593275 39.6676670145616 -30.4380714504362 43.3012701892218 -25.0000000000002 46.1939766255643 -19.1341716182547 48.2962913144534 -12.9409522551262 49.5722430686905 -6.5263096110028 0 0 49 27 28 29 30 49 26 27 49 49 25 26 31 49 30 49 34 35 36 49 35 49 33 34 49 28 29 32 49 31 32 33 49 23 49 22 22 49 21 21 49 20 49 19 20 24 25 49 18 49 17 49 16 17 15 49 14 16 49 15 19 49 18 49 23 24 37 49 36 49 38 39 49 39 40 49 41 42 41 49 40 49 42 43 38 49 37 44 45 49 49 45 46 48 49 47 49 46 47 43 44 49 49 48 1 9 49 8 49 10 11 10 49 9 49 11 12 12 13 49 4 49 3 49 5 6 7 49 6 8 49 7 4 5 49 3 49 2 1 2 49 49 13 14 
49 48 1 12.1647844045848
100 100 0 99.5722430686905 106.526309611003 0 98.2962913144534 112.940952255126 0 96.1939766255643 119.134171618254 0 93.3012701892219 125 0 89.6676670145618 130.438071450436 0 85.3553390593274 135.355339059327 0 80.438071450436 139.667667014562 0 75 143.301270189222 0 69.1341716182545 146.193976625564 0 62.940952255126 148.296291314453 0 56.5263096110026 149.572243068691 0 50 150 0 43.4736903889974 149.572243068691 0 37.059047744874 148.296291314453 0 30.8658283817455 146.193976625564 0 25 143.301270189222 0 19.561928549564 139.667667014562 0 14.6446609406726 135.355339059327 0 10.3323329854382 130.438071450436 0 6.69872981077808 125 0 3.80602337443568 119.134171618255 0 1.70370868554659 112.940952255126 0 0.427756931309489 106.526309611003 0 0 100 0 0.427756931309467 93.4736903889975 0 1.70370868554657 87.059047744874 0 3.80602337443563 80.8658283817456 0 6.69872981077803 75.0000000000001 0 10.3323329854382 69.561928549564 0 14.6446609406726 64.6446609406727 0 19.5619285495639 60.3323329854383 0 24.9999999999999 56.6987298107781 0 30.8658283817454 53.8060233744357 0 37.0590477448738 51.7037086855466 0 43.4736903889973 50.4277569313095 0 49.9999999999999 50 0 56.5263096110024 50.4277569313095 0 62.9409522551259 51.7037086855465 0 69.1341716182543 53.8060233744356 0 74.9999999999999 56.698729810778 0 80.4380714504359 60.3323329854381 0 85.3553390593272 64.6446609406725 0 89.6676670145616 69.5619285495638 0 93.3012701892218 74.9999999999998 0 96.1939766255643 80.8658283817453 0 98.2962913144534 87.0590477448738 0 99.5722430686905 93.4736903889972 0 50 100 0 50 -1.4210854715202e-014 49.5722430686905 6.52630961100258 48.2962913144534 12.940952255126 46.1939766255643 19.1341716182545 43.3012701892219 25 39.6676670145618 30.438071450436 35.3553390593274 35.3553390593274 30.438071450436 39.6676670145617 25 43.3012701892219 19.1341716182545 46.1939766255643 12.940952255126 48.2962913144534 6.52630961100257 49.5722430686905 -7.105427357601e-015 50 -6.52630961100259 49.5722430686905 -12.940952255126 48.2962913144534 -19.1341716182545 46.1939766255643 -25 43.3012701892219 -30.438071450436 39.6676670145618 -35.3553390593274 35.3553390593274 -39.6676670145618 30.438071450436 -43.3012701892219 25 -46.1939766255643 19.1341716182545 -48.2962913144534 12.9409522551261 -49.5722430686905 6.52630961100262 -50 4.9737991503207e-014 -49.5722430686905 -6.52630961100252 -48.2962913144534 -12.940952255126 -46.1939766255644 -19.1341716182544 -43.301270189222 -24.9999999999999 -39.6676670145618 -30.438071450436 -35.3553390593274 -35.3553390593273 -30.4380714504361 -39.6676670145617 -25.0000000000001 -43.3012701892219 -19.1341716182546 -46.1939766255643 -12.9409522551262 -48.2962913144534 -6.52630961100272 -49.5722430686905 -1.4210854715202e-013 -50 6.52630961100243 -49.5722430686905 12.9409522551259 -48.2962913144535 19.1341716182543 -46.1939766255644 24.9999999999999 -43.301270189222 30.4380714504359 -39.6676670145619 35.3553390593272 -35.3553390593275 39.6676670145616 -30.4380714504362 43.3012701892218 -25.0000000000002 46.1939766255643 -19.1341716182547 48.2962913144534 -12.9409522551262 49.5722430686905 -6.5263096110028 0 0 49 27 28 29 30 49 26 27 49 49 25 26 31 49 30 49 34 35 36 49 35 49 33 34 49 28 29 32 49 31 32 33 49 23 49 22 22 49 21 21 49 20 49 19 20 24 25 49 18 49 17 49 16 17 15 49 14 16 49 15 19 49 18 49 23 24 37 49 36 49 38 39 39 40 49 49 41 42 41 49 40 42 43 49 49 44 45 46 49 45 48 49 47 47 49 46 43 44 49 49 48 1 49 9 10 9 49 8 49 10 11 49 12 13 12 49 11 49 13 14 3 4 49 49 4 5 8 49 7 6 7 49 6 49 5 3 49 2 49 1 2 38 49 37 

TShapes 48
Ve
1e-007
0 0 100
0 0

0101101
*
Ve
1e-007
0 0 0
0 0

0101101
*
Ed
 1e-007 1 1 0
1  1 0 0 100
2  1 1 0 0 100
2  2 2 0 0 100
6  1 1 0
6  2 2 0
6  3 3 2
6  4 4 2
0

0101000
-48 0 +47 0 *
Ve
1e-007
0 100 100
0 0

0101101
*
Ed
 1e-007 1 1 0
1  2 0 0 100
2  3 1 0 0 100
2  4 3 0 0 100
6  5 1 0
6  6 5 0
0

0101000
-45 0 +48 0 *
Ve
1e-007
0 100 0
0 0

0101101
*
Ed
 1e-007 1 1 0
1  3 0 0 100
2  5 1 0 0 100
2  6 4 0 0 100
6  7 1 0
6  8 6 0
2  7 5 2 0 100
6  9 7 2
6  10 8 2
6  11 9 2
6  12 3 2
6  13 10 2
6  14 4 2
0

0101000
-45 0 +43 0 *
Ed
 1e-007 1 1 0
1  4 0 0 100
2  8 1 0 0 100
2  9 6 0 0 100
6  15 1 0
6  16 11 0
0

0101000
-43 0 +47 0 *
Wi

0101000
-46 0 -44 0 +42 0 +41 0 *
Fa
0  1e-007 1 0
2  1
0111000
+40 0 *
Ve
1e-007
100 0 100
0 0

0101101
*
Ve
1e-007
100 0 0
0 0

0101101
*
Ed
 1e-007 1 1 0
1  5 0 0 100
2  10 7 0 0 100
2  11 2 0 0 100
6  17 12 0
6  18 2 0
0

0101000
-38 0 +37 0 *
Ve
1e-007
100 100 100
0 0

0101101
*
Ed
 1e-007 1 1 0
1  6 0 0 100
2  12 7 0 0 100
2  13 3 0 0 100
6  19 12 0
6  20 5 0
0

0101000
-35 0 +38 0 *
Ve
1e-007
100 100 0
0 0

0101101
*
Ed
 1e-007 1 1 0
1  7 0 0 100
2  14 7 0 0 100
2  15 4 0 0 100
6  21 12 0
6  22 6 0
0

0101000
-35 0 +33 0 *
Ed
 1e-007 1 1 0
1  8 0 0 100
2  16 7 0 0 100
2  17 6 0 0 100
6  23 12 0
6  24 11 0
0

0101000
-33 0 +37 0 *
Wi

0101000
-36 0 -34 0 +32 0 +31 0 *
Fa
0  1e-007 7 0
2  12
0111000
+30 0 *
Ed
 1e-007 1 1 0
1  9 0 0 100
2  18 2 0 0 100
2  19 6 0 0 100
6  25 2 0
6  26 11 0
0

0101000
-37 0 +47 0 *
Ed
 1e-007 1 1 0
1  10 0 0 100
2  20 2 0 0 100
2  21 3 0 0 100
6  27 2 0
6  28 5 0
6  29 13 2
6  30 14 2
0

0101000
-38 0 +48 0 *
Wi

1101000
-28 0 -36 0 +27 0 +46 0 *
Fa
0  1e-007 2 0
2  2
0101000
+26 0 *
Ed
 1e-007 1 1 0
1  11 0 0 100
2  22 4 0 0 100
2  23 6 0 0 100
6  31 6 0
6  32 11 0
0

0101000
-33 0 +43 0 *
Ed
 1e-007 1 1 0
1  12 0 0 100
2  24 4 0 0 100
2  25 3 0 0 100
6  33 6 0
6  34 5 0
0

0101000
-35 0 +45 0 *
Wi

0101000
-24 0 -32 0 +23 0 +42 0 *
Fa
0  1e-007 4 0
2  6
0111000
+22 0 *
Wi

0101000
-41 0 -24 0 +31 0 +28 0 *
Fa
0  1e-007 6 0
2  11
0111000
+20 0 *
Wi

0101000
-44 0 -23 0 +34 0 +27 0 *
Fa
0  1e-007 3 0
2  5
0111000
+18 0 *
Sh

0101100
-39 0 +29 0 -25 0 +21 0 -19 0 +17 0 *
So

0100000
+16 0 *
Ve
1e-007
100 100 100
0 0

0101101
*
Ed
 1e-007 1 1 0
1  13 0 0 6.28318530717959
2  26 5 0 0 6.28318530717959
2  27 8 0 0 6.28318530717959
6  35 15 0
6  36 16 0
0

0101100
+14 0 -14 0 *
Ve
1e-007
100 100 0
0 0

0101101
*
Ed
 1e-007 1 1 0
1  14 0 0 100
3  28 29CN 5 0 0 100
7  37 38 15 0
6  39 7 0
6  40 8 0
6  41 9 0
6  42 10 0
0

0101000
-14 0 +12 0 *
Ed
 1e-007 1 1 0
1  15 0 0 6.28318530717959
2  30 5 0 0 6.28318530717959
2  31 9 0 0 6.28318530717959
6  43 15 0
6  44 17 0
0

0101100
+12 0 -12 0 *
Wi

0101000
-13 0 +11 0 +10 0 -11 0 *
Fa
0  1e-007 5 0
2  15
0111000
+9 0 *
Wi

0101000
+13 0 *
Fa
0  1e-007 8 0
2  16
0111000
+7 0 *
Wi

0101000
-10 0 *
Fa
0  1e-007 9 0
2  17
0111000
-5 0 *
Sh

0101100
+8 0 +6 0 -4 0 *
So

0100100
+3 0 *
Co

1100000
+15 1 +2 0 *

+1 0 