DBRep_DrawableShape

CASCADE Topology V1, (c) Matra-Datavision
Locations 0
Curve2ds 4
1 6.2831853071795862 0 0 1 
1 0 0 0 1 
1 0 -1.5707963267948966 1 0 
1 6.2831853071795862 1.5707963267948966 -1 0 
Curves 1
7 0 0  10 11 2  1.1102230246251565e-16 0 -0.99999999999999989  0.31415926535899846 0 -1.0000000000000189  0.6283185034296026 0 -0.89033802673171203  0.89941373916983558 0 -0.67101136322167165  1.0843790145658898 0 -0.36135945388145524  1.1502764506184917 0 -2.3037127760972079e-13  1.0843790145659522 0 0.36135945388186241  0.89941373916975587 0 0.67101136322139621  0.62831850342965345 0 0.89033802673184226  0.3141592653589837 0 0.9999999999999859  1.1102230246251565e-16 0 0.99999999999999989 
 -1.5707963267948966 11 1.5707963267948966 11
Polygon3D 0
PolygonOnTriangulations 0
Surfaces 1
4 0 0 0 0 0 1 1 0 -0 -0 1 0 1
Triangulations 0

TShapes 9
Ve
1e-07
6.12323399573677e-17 0 -1
0 0

0101100
*
Ve
1e-07
6.12323399573677e-17 0 1
0 0

0101100
*
Ed
 1e-07 1 1 0
3  1 2G1 1 0 -1.5707963267949 1.5707963267949
1  1 0 -1.5707963267949 1.5707963267949
0

0101000
+9 0 -8 0 *
Ed
 1e-07 1 1 1
2  3 1 0 0 6.28318530717959
0

0101100
+9 0 -9 0 *
Ed
 1e-07 1 1 1
2  4 1 0 0 6.28318530717959
0

0101100
+8 0 -8 0 *
Wi

0101100
-7 0 +6 0 +7 0 +5 0 *
Fa
0  1e-07 1 0

0111000
+4 0 *
Sh

0101000
+3 0 *
So

1100000
+2 0 *

+1 0 
0

