DBRep_DrawableShape

CASCADE Topology V1, (c) Matra-Datavision
Locations 0
Curve2ds 21
7 0 0  6 7 2  0.5350169803718825 0.63309054061606052  0.6161121536362083 0.61015967078181144  0.69626987186969203 0.58834155424416179  0.77514031542513062 0.56802306460850871  0.85227567500336754 0.5496703392846376  0.92728682552466213 0.53361431401558435  1 0.51983625740608219 
 0 7 1 7
7 0 0  6 7 2  3.3535620322778131e-06 0.79337702783027675  0.090779412727685818 0.76538729193312482  0.1810349241376418 0.73770811210966936  0.2707374321022355 0.71039177756105998  0.35978032148273936 0.68361945937396784  0.44797083888077588 0.65770346467076668  0.5350169803718825 0.63309054061606052 
 0 7 1 7
7 0 0  1 2 2  0 0  0 0.79337702783027675 
 0 2 1 2
7 0 0  1 2 2  0 0  1 0 
 0 2 1 2
7 0 0  1 2 2  1 0  1 0.51983625740608219 
 0 2 1 2
7 0 0  1 2 2  0 0  0 0.51983625740608219 
 0 2 1 2
7 0 0  6 7 2  0 0.51983625740608219  0.18687571874487666 0.49565556465367089  0.36341689599790583 0.47853608575853623  0.52990083354258233 0.46838350126238726  0.69031099658101369 0.46207955662719852  0.84630045894758887 0.45853330172681162  0.99999999999999956 0.45675498545230153 
 0 7 1 7
7 0 0  1 2 2  0 0  0.99999999999999989 0 
 0 2 1 2
7 0 0  1 2 2  1 0  1 0.45675498545230148 
 0 2 1 2
7 0 0  1 2 2  0 0  0 0.45675498545230148 
 0 2 1 2
7 0 0  5 6 2  0 0.45675498545229753  0.20350218947162388 0.454790192096379  0.40315284060403844 0.45508002343419618  0.60170183252955123 0.45624564402488998  0.80029511802004527 0.45779518216750631  0.99999999999999989 0.45931848582943097 
 0 6 1 6
7 0 0  1 2 2  0 0  1 0 
 0 2 1 2
7 0 0  1 2 2  1 0  1 0.45931848582943097 
 0 2 1 2
7 0 0  1 2 2  0 0  0 0.45931848582943097 
 0 2 1 2
7 0 0  5 6 2  0 0.45931848582943102  0.19999987676264538 0.45932133726264096  0.39999970748100666 0.45932419064283464  0.59999960454351675 0.45932704515713363  0.7999996708877698 0.45932989921334938  1 0.45933275043994148 
 0 6 1 6
7 0 0  1 2 2  0 0  1 0 
 0 2 1 2
7 0 0  1 2 2  1 0  1 0.45933275043994148 
 0 2 1 2
7 0 0  1 2 2  0 0  0 0.45933275043994148 
 0 2 1 2
7 0 0  4 5 2  0 0.45933275043994498  0.24999999876999071 0.45933291686624839  0.49999999847763321 0.45933308328363448  0.74999999894909264 0.45933324969598621  0.99999999999473221 0.45933341610707989 
 0 5 1 5
7 0 0  1 2 2  0 0  0.99999999999999989 0 
 0 2 1 2
7 0 0  1 2 2  0.99999999999999989 0  0.99999999999999989 0.45933341610707989 
 0 2 1 2
Curves 17
7 0 0  5 6 2  2427.8856171180823 498.3503151613146 2139.9825270521965  2431.1243734934787 496.97338459343757 2141.479999419475  2434.471029185765 495.67967227413101 2142.8338892735837  2437.9301537620358 494.5080334416312 2144.0234845084628  2441.5049381169501 493.50923407655995 2145.02800160078  2445.1600800628426 492.68145589535624 2145.8634957689005 
 0 6 1 6
7 0 0  5 6 2  2411.625051807076 506.36578211264396 2130.4218281103649  2414.6572346785888 504.68745141337246 2132.6237972350891  2417.8047604591693 503.03160630765291 2134.6801920781145  2421.0540111084215 501.40363806553989 2136.6009840383235  2424.409151002134 499.82824808428558 2138.3751388916658  2427.8856171180828 498.3503151613146 2139.9825270521965 
 0 6 1 6
7 0 0  13 14 2  2369.0694218471608 466.65786974958024 2109.5716733727463  2372.3404931407808 469.71005970225656 2110.7640604202188  2375.6129391850091 472.76353241494274 2112.0254188044878  2378.8865630623895 475.81810414741523 2113.356456911542  2382.1611557813444 478.87357989123961 2114.7578563324669  2385.4364830996924 481.92974108002028 2116.2299924540798  2388.7122760012285 484.9863366991413 2117.7727399199061  2391.9882247732457 488.04307775307097 2119.385362537952  2395.2639766994398 491.09963514363591 2121.066488218044  2398.5391374523533 494.15564090566272 2122.8141682769401  2401.8132759643604 497.21069284108421 2124.6260217347954  2405.0859331128677 500.26436252954238 2126.4994641138778  2408.3566338483292 503.31620672068038 2128.4320210594715  2411.6249030830236 506.3657821119761 2130.4217266082619 
 0 14 1 14
7 0 0  7 8 2  2369.0694218471608 466.65786974958024 2109.5716733727463  2375.990492978849 466.65790082877277 2112.6249915158296  2382.9285804761666 466.65793311180602 2115.6461737114405  2389.9000854227393 466.65796647226313 2118.6135879765138  2396.9243966637819 466.65800079705343 2121.4759800839211  2404.0135101315159 466.65803594002267 2124.1775036412814  2411.2293248123901 466.65807197895452 2126.5191164418852  2418.5812420575453 466.65810875600437 2128.430762672519 
 0 8 1 8
7 0 0  13 14 2  2418.5812420575453 466.65810875600437 2128.430762672519  2420.6295188152617 468.65796332945041 2129.6878327180307  2422.6762285222417 470.65836859811355 2130.9608109101623  2424.7213852716518 472.65927287754238 2132.2483453005657  2426.7651876908917 474.66062240615389 2133.5525909976773  2428.8083343598614 476.66235986568171 2134.8701423921916  2430.8508536954864 478.66442315527399 2136.2012676869513  2432.8929845977123 480.66674445632026 2137.5462369618831  2434.9351835241082 482.66924953756063 2138.9043009183765  2436.9778968569349 484.67185736106279 2140.2744247244618  2439.0214810116686 486.67447991417782 2141.6558152693151  2441.0662215022521 488.6770223529897 2143.0479794827947  2443.1123574670864 490.67938337681562 2144.4506098229149  2445.160080062843 492.68145589535624 2145.8634957689005 
 0 14 1 14
7 0 0  6 7 2  2445.160080062843 492.68145589535618 2145.8634957689001  2450.5057701255109 491.47082012174161 2147.0854162683113  2456.0099061167266 490.6136043685994 2147.9587169126216  2461.6102081123663 490.10524955816436 2148.5311461151105  2467.2366143181348 489.789607195889 2148.9422059201429  2472.8671954840484 489.61205547579846 2149.238951113708  2478.5085886882885 489.52303320769056 2149.4608989425292 
 0 7 1 7
7 0 0  7 8 2  2418.5812420575453 466.65810875600437 2128.430762672519  2423.6016801156966 466.65813387011968 2129.7361774602568  2428.6797802177211 466.65815930235198 2130.8395817514415  2433.8067106858903 466.65818494935576 2131.7150558860335  2438.9733215773485 466.65821070626464 2132.3662185148378  2444.1640048762993 466.65823643935391 2132.8500343215032  2449.3677346309546 466.65826203533726 2133.2037714783301  2454.5758044232339 466.65828739143586 2133.4606877694869 
 0 8 1 8
7 0 0  13 14 2  2454.5758044232339 466.65828739143586 2133.4606877694869  2456.4151331833054 468.41546310643054 2134.6697598439173  2458.2545002440947 470.17306397964063 2135.8833409344834  2460.0939078912706 471.9310549495782 2137.0996167874205  2461.9332445743912 473.68939972120035 2138.3215484784646  2463.7729779005808 475.44805997647705 2139.5468336667609  2465.6131067629431 477.20699474437976 2140.7750274527989  2467.4535646955533 478.96615983089436 2142.0066317680576  2469.294421366933 480.72550746138995 2143.2418020974551  2471.1358162897286 482.48498594861542 2144.4802562816485  2472.9778710299815 484.24453956929977 2145.7216032241868  2474.8206611931105 486.0041085008753 2146.9655615422676  2476.6642269785452 487.76362892057625 2148.2120008432585  2478.5085886882885 489.52303320769062 2149.4608989425296 
 0 14 1 14
7 0 0  5 6 2  2478.508588688288 489.52303320769045 2149.4608989425296  2484.7415473833457 489.42467592253502 2149.7061205747436  2490.98307316509 489.43921884848982 2149.8562781973924  2497.2260190496586 489.49761766810633 2149.9693501282113  2503.4679620121133 489.57523999181558 2150.0634009197283  2509.7099930578488 489.65154758758149 2150.1541649743313 
 0 6 1 6
7 0 0  7 8 2  2454.5758044232339 466.65828739143586 2133.4606877694869  2458.9217887713926 466.65830855037018 2133.6750770201461  2463.2734297956213 466.6583295540791 2133.8221757783681  2467.6287981940818 466.65835035690833 2133.9208473480903  2471.9865165519773 466.65837091558484 2133.985291190254  2476.3457907169582 466.65839118959872 2134.0253144529447  2480.7063779344662 466.65841114077034 2134.0478857892235  2485.0685802825665 466.65843073346781 2134.0581754118712 
 0 8 1 8
7 0 0  13 14 2  2485.0685802825665 466.65843073346781 2134.0581754118712  2486.9622814176719 468.42546865874675 2135.2882397139265  2488.8564816930029 470.1929365298318 2136.5202402984542  2490.7511157739509 471.96079869168881 2137.751936747155  2492.6458875247549 473.72901822568451 2138.9871019516781  2494.5412188474356 475.49755614395764 2140.2232326064527  2496.4369572805936 477.26637073175431 2141.4599706000154  2498.3328742928543 479.03541697749114 2142.6979808777301  2500.228901239776 480.804646188996 2143.9375578688159  2502.1250469801289 482.57400567428732 2145.1785786057353  2504.0212986623774 484.34343860067833 2146.4208347803378  2505.9175978939002 486.11288394734919 2147.6642045555768  2507.8138594759425 487.8822766036925 2148.9086508348969  2509.7099930578488 489.65154758758149 2150.1541649743313 
 0 14 1 14
7 0 0  5 6 2  2509.7099930578488 489.65154758758149 2150.1541649743313  2509.7216773562673 489.6516904258192 2150.1543348732393  2509.7333616204019 489.65183336155371 2150.1545048316643  2509.7450458682611 489.65197635406707 2150.1546744002826  2509.7567299586522 489.65211932364406 2150.1548441773489  2509.7684137858582 489.65226215151949 2150.155014016907 
 0 6 1 6
7 0 0  7 8 2  2485.0685802825665 466.65843073346781 2134.0581754118712  2485.0767337337911 466.65843077008998 2134.0581946443567  2485.0848871805997 466.658430806703 2134.0582138338305  2485.0930406262742 466.65843084333642 2134.0582328046748  2485.1011940726016 466.65843087993591 2134.0582517849707  2485.1093475227872 466.65843091656347 2134.0582707343497  2485.1175009791104 466.65843095317399 2134.0582896786004  2485.1256544443672 466.6584309897878 2134.0583086444071 
 0 8 1 8
7 0 0  13 14 2  2485.1256544443672 466.6584309897878 2134.0583086444071  2487.0194680605264 468.42552379249321 2135.2884271613616  2488.9137799259984 470.19304656773267 2136.5204822374876  2490.8085245047941 471.96096365704307 2137.7522330289671  2492.7034054794285 473.72923813854084 2138.9874528910409  2494.5988446172037 475.49783102025884 2140.2236383319764  2496.494689316401 477.26670058365409 2141.4604314007379  2498.3907107690425 479.03580181233832 2142.6984968841643  2500.2868403440752 480.80508600898122 2143.938129065009  2502.1830866975374 482.57450047620773 2145.179204985187  2504.0794369580444 484.34398837480018 2146.4215165290407  2505.9758325875073 486.11348867748563 2147.6649419633832  2507.8721883350095 487.88293626629019 2148.9094441085035  2509.7684137858582 489.65226215151949 2150.155014016907 
 0 14 1 14
7 0 0  2 3 2  2509.768413785951 489.65226215161579 2150.1550140168338  2509.7697777572948 489.65227882507395 2150.1550338441489  2509.7711417241394 489.65229549701093 2150.1550536722425 
 0 3 1 3
7 0 0  7 8 2  2485.1256544443672 466.6584309897878 2134.0583086444071  2485.1260351796695 466.65843099149828 2134.0583095300431  2485.1264159149532 466.65843099320148 2134.0583104156763  2485.1267966503633 466.65843099492793 2134.0583113014782  2485.1271773856038 466.65843099661583 2134.0583121870354  2485.1275581210134 466.65843099834228 2134.0583130728069  2485.1279388563212 466.65843100004417 2134.0583139583664  2485.1283195916535 466.65843100175556 2134.0583148439082 
 0 8 1 8
7 0 0  13 14 2  2485.1283195916535 466.65843100175556 2134.0583148439082  2487.0221384548186 468.4255263653788 2135.2884358923984  2488.9164555236639 470.19305170260338 2136.5204935117608  2490.811205260768 471.96097135559734 2137.752246846158  2492.7060913193541 473.72924840027059 2138.9874692516655  2494.60153550206 475.49784384851165 2140.2236572698571  2496.497385133669 477.26671597527439 2141.4604528886971  2498.393411482049 479.03581977196802 2142.698520979563  2500.2895458188418 480.80510653267663 2143.9381557154825  2502.1857968809118 482.57452356693386 2145.1792342346093  2504.082151726755 484.34401403014215 2146.421548356177  2505.9785518551616 486.11351689768918 2147.6649763987457  2507.8749119906838 487.88296704985396 2148.9094811549285  2509.7711417242303 489.65229549710676 2150.1550536721702 
 0 14 1 14
Polygon3D 0
PolygonOnTriangulations 0
Surfaces 5
9 0 0 0 0 7 13 8 14 2 2 2369.0694218471608 466.65786974958024 2109.5716733727463  2373.1923938755053 470.50495612293582 2111.0745994795566  2377.3175499639042 474.35408041155466 2112.6871000599658  2381.4444957981427 478.20487468648355 2114.4105936305668  2385.5728065783842 482.05694257306044 2116.246431030193  2389.7019851397513 485.90982017382822 2118.1950067303019  2393.831434608509 489.76295055441489 2120.2552097926082  2397.9604455938579 493.61567179238051 2122.4242144739655  2402.0881979153301 497.46721858903078 2124.6976104784958  2406.2137768657922 501.31673744419709 2127.0698728569682  2410.3362040100542 505.16331539398323 2129.5351715534293  2414.4544825190837 509.00602231147872 2132.0885205990776  2418.5676570398264 512.84396677043878 2134.7272669533918  2422.674888100632 516.67636547193092 2137.4529189925042  
2375.990492978844 466.65790082877191 2112.6249915158319  2380.0627224427758 470.50498697428054 2114.2812687094333  2384.1338141377078 474.35411102013558 2116.0440756963158  2388.2033700266502 478.20490503736698 2117.9142887320104  2392.2726449177262 482.05697265885487 2119.8901955361425  2396.3406009426863 485.90984998471407 2121.9729726785927  2400.4086436883949 489.76298008956439 2124.1586881182911  2404.4777860696822 493.61570105869981 2126.4426681140253  2408.5471106649256 497.46724759298939 2128.8217216419284  2412.6160961106498 501.31676619403083 2131.2906472938266  2416.6854004714073 505.16334390527652 2133.8420546320385  2420.753646731926 509.00605059810891 2136.4726513366345  2424.8170554282697 512.84399483360187 2139.1840563571204  2428.872669934522 516.67639330331622 2141.9806147879221  
2382.9285804761939 466.6579331118113 2115.6461737114473  2386.9586687037145 470.50501907040268 2117.4518475305349  2390.9852074507503 474.3541429184238 2119.3588754150928  2395.0078424195112 478.20493672706334 2121.3670908956124  2399.0290059978502 482.05700413445612 2123.4755304620808  2403.0483068686385 485.90988124359012 2125.6753299414518  2407.0654520132102 489.76301112144165 2127.9849243367157  2411.0895103189064 493.61573188945704 2130.358476963117  2415.1097648540795 497.46727820450718 2132.8397812915186  2419.1362644994674 501.31679661564544 2135.3860068321492  2423.1629374794843 505.16337413611893 2138.0128410619409  2427.1925835509301 509.00608065606713 2140.7072262046663  2431.2175136635828 512.8440247190141 2143.4780611801748  2435.2335893734225 516.67642301120645 2146.3310267850552  
2389.9000854226861 466.65796647225255 2118.6135879764943  2393.8957318725161 470.50505228039725 2120.5640733540304  2397.8861893598923 474.35417597045142 2122.6090128188393  2401.8711836479979 478.20496961389449 2124.7467872751404  2405.8538943480635 482.05703685215667 2126.9803459103059  2409.8355555027888 485.90991379546921 2129.2819086163263  2413.8111129497306 489.76304348939982 2131.7128976860818  2417.802883138886 493.61576411484128 2134.1541837369373  2421.7823700816443 497.46731024883945 2136.7340956113612  2425.7785617020954 501.31682852547516 2139.3407815740334  2429.7717588659762 505.16340589682943 2142.0335429536694  2433.7726915010726 509.00611228865444 2144.7799140739608  2437.7688933197305 512.84405622303279 2147.5985904200193  2441.7558319821487 516.67645438442912 2150.4953018993001  
2396.9243966638355 466.65800079706406 2121.4759800839365  2400.8930380385018 470.50508648964336 2123.564608466932  2404.8555122777016 474.35421005952566 2125.7395041900704  2408.8116480532585 478.20500357855923 2127.9972787716515  2412.7649951615304 482.05707068975545 2130.3473407542597  2416.719186392424 485.90994751404224 2132.7360881429036  2420.6619626622105 489.76307706459477 2135.2839043482795  2424.6329185602171 493.61579759983687 2137.773605421336  2428.5795231017682 497.46734358890131 2140.4473102938759  2432.5562614921814 501.31686178033948 2143.0991626427467  2436.5243615006439 505.16343904062228 2145.8487472995689  2440.5054382937078 509.00614534438489 2148.6361744914066  2444.4816258277215 512.84408918947668 2151.4919895812077  2448.4486585979566 516.67648726154277 2154.4208490000819  
2404.0135101314854 466.65803594001602 2124.1775036412769  2407.9624030085356 470.50512155069293 2126.395293852087  2411.9047057353037 474.35424503651871 2128.6903199968665  2415.8403591694832 478.20503846973469 2131.0572012901334  2419.772956957745 482.05710549345258 2133.5137396672435  2423.709099320944 485.90998224183636 2135.9755746127421  2427.6274942109512 489.76311168745258 2138.6333777543769  2431.5878812335609 493.61583217911931 2141.15452645918  2435.5091622204432 497.46737805770721 2143.9158834636864  2439.4760668016056 501.31689620755071 2146.5990064626521  2443.4267531810515 505.16347339157159 2149.3965790047446  2447.3958791388136 509.00617964297618 2152.2148872410439  2451.3598057328086 512.84412343370775 2155.0979130087071  2455.3150710033024 516.67652145299837 2158.048275428077  
2411.2293248123983 466.65807197895668 2126.5191164418848  2415.1687093934324 470.50515755438227 2128.8477689981055  2419.1016575199501 474.35428100536717 2131.2443724426093  2423.028205461756 478.20507440445948 2133.701435720327  2426.9516253202487 482.057141393221 2136.2466244434872  2430.881862224544 485.91001812073807 2138.7619713856893  2434.7872831261739 489.76314751309019 2141.51468366785  2438.7493831568577 493.61586801671524 2144.0476600741399  2442.6556927827637 497.46741383163152 2146.884728980011  2446.624110901505 501.3169319910873 2149.5818745501324  2450.5670959889553 505.16350914264916 2152.4150927240967  2454.5337341722156 509.00621538431739 2155.2510533746481  2458.4946218091345 512.84415916216756 2158.1484657091737  2462.4476107695673 516.6765571713081 2161.1068511403078  
2418.5812420575453 466.65810875600437 2128.430762672519  2422.5214765615433 470.50519434295006 2130.8489665354568  2426.4559121046514 474.35431780802833 2133.3260393644528  2430.3846490411534 478.20511122394902 2135.8523571018936  2434.3103145491873 482.05717822926829 2138.4663213678859  2438.2463730181662 485.91005498877433 2141.0154880341984  2442.1501486352054 489.76318437890654 2143.8451686798589  2446.1253299120881 493.6159049456864 2146.3721995320429  2450.0269959473912 497.46745074343067 2149.2712602114252  2454.0073273970052 501.31696895929582 2151.9661115424115  2457.9518940075973 505.16354612015607 2154.8225216455012  2461.9248007133647 509.006252391457 2157.663286782471  2465.8911498512284 512.84419619462278 2160.5626771972802  2469.8505031029513 516.67659423241514 2163.5161920796354  

0 8
1 8

0 14
1 14

9 0 0 0 0 7 13 8 14 2 2 2418.5812420575453 466.65810875600437 2128.430762672519  2422.5214765615433 470.50519434295006 2130.8489665354568  2426.4559121046514 474.35431780802833 2133.3260393644528  2430.3846490411534 478.20511122394902 2135.8523571018936  2434.3103145491873 482.05717822926829 2138.4663213678859  2438.2463730181662 485.91005498877433 2141.0154880341984  2442.1501486352054 489.76318437890654 2143.8451686798589  2446.1253299120881 493.6159049456864 2146.3721995320429  2450.0269959473912 497.46745074343067 2149.2712602114252  2454.0073273970052 501.31696895929582 2151.9661115424115  2457.9518940075973 505.16354612015607 2154.8225216455012  2461.9248007133647 509.006252391457 2157.663286782471  2465.8911498512284 512.84419619462278 2160.5626771972802  2469.8505031029513 516.67659423241514 2163.5161920796354  
2423.6016801156948 466.6581338701186 2129.7361774602509  2427.5424950105557 470.50521946493109 2132.2155336421565  2431.4779462727765 474.3543429396334 2134.7475569754833  2435.4081780183078 478.20513636704578 2137.3211668292115  2439.3353770235299 482.05720338367189 2139.9820961712776  2443.2754108915674 485.91008016502241 2142.5543574705102  2447.1780629854356 489.76320955363872 2145.4365978619489  2451.1621771139917 493.61593016354539 2147.9595686458383  2455.0606721588965 497.46747594956332 2150.9009619370622  2459.0491389203912 501.31699420394904 2153.5942465902572  2462.9947855130758 505.16357137115892 2156.4664938742808  2466.9719728340783 509.00627766269525 2159.3105398733251  2470.9420514925941 512.84422148314832 2162.2112810690551  2474.9057507576272 516.67661954050641 2165.1614699770271  
2428.679780217743 466.65815930235789 2130.8395817514706  2432.6260258204047 470.50524492693779 2133.3700755399705  2436.567570543159 474.35436843418137 2135.9471308515531  2440.5045877373777 478.20516189695229 2138.558200240228  2444.4386722204113 482.0572289490193 2141.2567562863501  2448.3881764553485 485.91010577698063 2143.8428608920135  2452.2950147576375 489.76323518800484 2146.7692333778232  2456.2933896366694 493.61595586503199 2149.2797967956085  2460.1935561829969 497.46750166112605 2152.2570694576334  2464.1950338748898 501.31701997597145 2154.941132210658  2468.1461139730377 505.1635971691145 2157.82336504983  2472.1316888151464 509.00630349935113 2160.6646636873584  2476.109484904372 512.84424735501125 2163.5609351205517  2480.0815848079887 516.67664545014293 2166.5017534488184  
2433.8067106858443 466.65818494934479 2131.7150558859794  2437.7633272909234 470.50527062586633 2134.2855303922861  2441.7161078083514 474.35439418873312 2136.8967059713355  2445.6652357915827 478.20518771076672 2139.5345892267678  2449.6115740418827 482.05725482237233 2142.2606137780508  2453.575977600819 485.91013172131534 2144.8511112250499  2457.49235422119 489.76326117877414 2147.8121287893919  2461.5100931785187 493.61598194583229 2150.3023858279112  2465.4168313580212 497.4675277740015 2153.3083881828502  2469.4359577947498 501.31704617012855 2155.9757581462227  2473.3967487171726 505.16362340840891 2158.8619850237419  2477.3946505067593 509.00632979503359 2161.6945397453956  2481.3839801107133 512.84427370303536 2164.5805698415688  2485.3683252281262 516.67667185320408 2167.5060803564602  
2438.9733215773945 466.65821070627493 2132.3662185148942  2442.9447077260293 470.50529645434932 2134.9658247607545  2446.9132721431997 474.35442009312737 2137.6006352447521  2450.8791872813781 478.20521369529519 2140.2552599176288  2454.8424735925528 482.05728088740108 2142.9990974574666  2458.8264393874028 485.91015787815797 2145.5855764321086  2462.7570587475575 489.76328740308219 2148.5719210428069  2466.7983792410669 493.61600827902924 2151.0354634537007  2470.7160134078213 497.46755415862492 2154.0632849258805  2474.7565855679732 501.31707265303061 2156.7076497134071  2478.7307327310973 505.16364995277775 2159.5925250021137  2482.7442198961967 509.00635641039503 2162.4111515868231  2486.7482286986165 512.84430038484936 2165.2819679033751  2490.7479497482291 516.67669860411183 2168.1871098136135  
2444.1640048762738 466.65823643934823 2132.850034321466  2448.1528641362579 470.50532227084534 2135.4708471625036  2452.1399646249802 474.35444599763298 2138.1217941841273  2456.1254483606353 478.20523969217936 2140.7861618115371  2460.1084459211147 482.05730697696623 2143.5410451038838  2464.1145971364563 485.91018407111102 2146.1183645420992  2468.0622613184782 489.76331367590183 2149.1231067755834  2472.1292934521016 493.616034670148 2151.5568936837935  2476.0604222713291 497.46758061271009 2154.6015448040475  2480.1243023686397 501.31709921365427 2157.219513292961  2484.1138120454912 505.16367658380011 2160.0997522389707  2488.1445320237922 509.00638311975558 2162.9014915912617  2492.164793387532 512.84432716769982 2165.7542797398987  2496.1813969686345 516.67672546281858 2168.6362649025054  
2449.3677346309605 466.65826203533868 2133.2037714783428  2453.3755059912119 470.50534795631967 2135.8398248414278  2457.3825469211547 474.35447177703759 2138.5014527110816  2461.3889500016016 478.20526556966405 2141.1707165596877  2465.3929589398717 482.05733295263349 2143.9318868976638  2469.4223528240309 485.91021015460962 2146.4973541751333  2473.388427951164 489.76333984513275 2149.5151332215678  2477.4816607713688 493.61606095964453 2151.9188005213186  2481.4275840186801 497.46760697081839 2154.9765947238029  2485.5151052184942 501.31712567964559 2157.5670449304598  2489.5207177986672 505.16370312340064 2160.4409027540205  2493.5690513743079 509.00640973932695 2163.224498180839  2497.6058999095694 512.84435386222231 2166.0580985404736  2501.639604736562 516.67675223417564 2168.9158932363889  
2454.5758044232339 466.65828739143586 2133.4606877694869  2458.602752828851 470.50537340255966 2136.1077789078818  2462.6298848099509 474.35449731737327 2138.7764830543206  2466.6572244563604 478.20529120767497 2141.4477610223694  2470.6821795956689 482.05735868808819 2144.2122897736881  2474.7344061498675 485.9102359956517 2146.7654946145071  2478.7189193246727 489.7633657716728 2149.7923510283458  2482.8372933830415 493.61608700138873 2152.1680722087826  2486.79810024985 497.46763308132131 2155.2365017443012  2490.9081504213295 501.31715189283688 2157.8004472412485  2494.9294172712071 505.16372940803524 2160.6676140507975  2498.9945492928559 509.00643610016976 2163.4334041428106  2503.0471491277926 512.84438029420835 2166.2482084118624  2507.096954582431 516.676778738498 2169.08242611778  

0 8
1 8

0 14
1 14

9 0 0 0 0 7 13 8 14 2 2 2454.5758044232339 466.65828739143586 2133.4606877694869  2458.602752828851 470.50537340255966 2136.1077789078818  2462.6298848099509 474.35449731737327 2138.7764830543206  2466.6572244563604 478.20529120767497 2141.4477610223694  2470.6821795956689 482.05735868808819 2144.2122897736881  2474.7344061498675 485.9102359956517 2146.7654946145071  2478.7189193246727 489.7633657716728 2149.7923510283458  2482.8372933830415 493.61608700138873 2152.1680722087826  2486.79810024985 497.46763308132131 2155.2365017443012  2490.9081504213295 501.31715189283688 2157.8004472412485  2494.9294172712071 505.16372940803524 2160.6676140507975  2498.9945492928559 509.00643610016976 2163.4334041428106  2503.0471491277926 512.84438029420835 2166.2482084118624  2507.0969545824314 516.676778738498 2169.0824261177768  
2458.9217887713894 466.65830855036921 2133.6750770201365  2462.9647398694296 470.50539463671458 2136.3313788643491  2467.0086372544797 474.3545186300484 2139.0059879601031  2471.0534478626091 478.2053126018572 2141.6789466528585  2475.0958820038313 482.05738016358447 2144.4462779034529  2479.1671617640304 485.91025755925767 2146.9892500938131  2483.1670609589523 489.7633874066243 2150.0236813094948  2487.3064146569786 493.6161087324748 2152.3760822576814  2491.2796414758923 497.46765486978455 2155.4533866725214  2495.4084914258201 501.31717376699055 2157.995214752048  2499.4428213132201 505.16375134180629 2160.8567981029787  2503.5219711545869 509.00645809753433 2163.607730155552  2507.5877149957646 512.84440235093996 2166.4068496279824  2511.650955960783 516.67680085559221 2169.2213930143112  
2463.2734297956481 466.65832955408501 2133.8221757784086  2467.332570817412 470.50541571612308 2136.4847694695295  2471.393340904433 474.35453978810318 2139.162781099174  2475.4556364919645 478.20533384114628 2141.8354209832924  2479.515505882322 482.05740148368056 2144.6035224968991  2483.605554491176 485.91027896590595 2147.1359841434542  2487.6208593044448 489.76340888445816 2150.1752378831638  2491.7804552114912 493.61613030292 2152.5058394133971  2495.7661639746725 497.46767649770879 2155.5902799656815  2499.9130388021958 501.31719547698583 2158.1106991779125  2503.9601185166016 505.16377310990708 2160.9664885882557  2508.0527174498125 509.00647992660362 2163.7028005041543  2512.1310217219725 512.84442423671783 2166.4865093853218  2516.2069993827122 516.67682279859105 2169.2818057691356  
2467.6287981940291 466.65835035689679 2133.920847348023  2471.7036505839374 470.50543659203333 2136.5878175278494  2475.7806887523548 474.3545607395161 2139.2677843195947  2479.8597251167198 478.20535487004713 2141.9392273166673  2483.9362089890915 482.05742258932855 2144.7071110968845  2488.0439054603326 485.91030015273446 2147.2300939447946  2492.0738726690288 489.76343013883616 2150.2722123619442  2496.2520877175266 493.61615164236599 2152.5839967637671  2500.24965004879 497.46769789159953 2155.6745090844515  2504.4129470363641 501.31721694558229 2158.1754518518783  2508.471783085588 505.16379463202099 2161.026060524207  2512.5765768543379 509.00650150396808 2163.7489034289197  2516.6661864359862 512.84444586510904 2166.5183634320533  2520.7535015388248 516.67684447791589 2169.2957813884154  
2471.9865165520282 466.65837091559587 2133.9852911903095  2476.0760367626558 470.50545721862392 2136.6554972947101  2480.168131508085 474.3545814356678 2139.3368030461684  2484.2625151307921 478.20537563695592 2142.0070738938016  2488.3541255855012 482.05744342586542 2144.7745876140821  2492.4776236367838 485.91032106176579 2147.2902379791835  2496.5208568681428 489.76345110879714 2150.3338636076437  2500.7152873792716 493.61617268630283 2152.6311105678656  2504.7234850535856 497.46771898426186 2155.7271575930749  2508.9008692945481 501.31723810226862 2158.2116261064803  2512.9698759561093 505.16381583495564 2161.0583672123016  2517.0850060757693 509.00652275370754 2163.769681945254  2521.1840731474481 512.84446715752438 2166.5268234949313  2525.2807055797498 516.67686581218868 2169.2885508075869  
2476.3457907169309 466.65839118959235 2134.0253144529192  2480.4484652687011 470.50547755311908 2136.6981753520736  2484.5538972507975 474.35460183142919 2139.3808242225991  2488.6616879826292 478.20539609422025 2142.0506445958745  2492.7663735844217 482.05746394304452 2144.8182752031812  2496.9032065900929 485.9103416399102 2147.3296703176375  2500.9577596983759 489.76347173873182 2150.3738633052672  2505.1653203706678 493.61619337601724 2152.6619954485068  2509.182440045769 497.46773971472317 2155.7634289959046  2513.3709345569055 501.31725888316032 2158.2353500453783  2517.4480168424934 505.16383665251817 2161.0801202568528  2521.5710971947724 509.00654360724525 2163.7825210218134  2525.6772555129505 512.84448804305123 2166.529931329173  2529.7806392540701 516.67688672804479 2169.2788599685337  
2480.7063779344726 466.65841114077222 2134.0478857892285  2484.8202852124077 470.50549755549633 2136.7232407000392  2488.9368916158396 474.35462188471359 2139.4077210677438  2493.0556693694475 478.20541619752942 2142.0783766178156  2497.1708824052148 482.05748409426309 2144.8471234976128  2501.3180315005766 485.91036183802765 2147.3581529805097  2505.3814756224515 489.76349197728183 2150.4022729413073  2509.5984637152733 493.61621365733475 2152.6877561929832  2513.6223583279548 497.46776002682526 2155.794727731331  2517.8184024279763 501.31727922944953 2158.2588587908658  2521.9010098068547 505.16385702383354 2161.1040631367405  2526.0291762149232 509.00656400154497 2163.8007622254131  2530.1395891552752 512.8445084565335 2166.5416128352044  2534.2466607245578 516.67690715809374 2169.2812644108121  
2485.0685802825665 466.65843073346781 2134.0581754118712  2489.191430099288 470.5055171883572 2136.7361958707133  2493.3166458067421 474.35464155624305 2139.4233941740863  2497.4435531856807 478.20543590557298 2142.0966503813415  2501.5662926245463 482.05750383611144 2144.8679450908076  2505.7202301691073 485.91038161036641 2147.3832360234833  2509.7896964881979 489.76351177666902 2150.4268671392947  2514.0118327263435 493.61623347984499 2152.7171477995053  2518.0399605906027 497.46777986834951 2155.8300521648284  2522.2394470495055 501.31729908643479 2158.2919217750859  2526.3246076084947 505.16387689228657 2161.1404261674829  2530.454549332977 509.00658387797154 2163.8351861682349  2534.5659403798736 512.84452833735293 2166.5731869160877  2538.6731695457497 516.67692703962052 2169.3076652025939  

0 8
1 8

0 14
1 14

9 0 0 0 0 7 13 8 14 2 2 2485.0685802825665 466.65843073346781 2134.0581754118712  2489.191430099288 470.5055171883572 2136.7361958707133  2493.3166458067421 474.35464155624305 2139.4233941740863  2497.4435531856807 478.20543590557298 2142.0966503813415  2501.5662926245463 482.05750383611144 2144.8679450908076  2505.7202301691073 485.91038161036641 2147.3832360234833  2509.7896964881979 489.76351177666902 2150.4268671392947  2514.0118327263435 493.61623347984499 2152.7171477995053  2518.0399605906027 497.46777986834951 2155.8300521648284  2522.2394470495055 501.31729908643479 2158.2919217750859  2526.3246076084947 505.16387689228657 2161.1404261674829  2530.454549332977 509.00658387797154 2163.8351861682345  2534.5659403798736 512.84452833735293 2166.573186916085  2538.6731695457493 516.67692703962052 2169.3076652025843  
2485.0767337337843 466.65843077008878 2134.0581946443435  2489.1996002651258 470.50551722505327 2136.7362200853972  2493.3248320643461 474.35464159301137 2139.4234234689002  2497.4517546384768 478.20543594240957 2142.096684537079  2501.5745081450441 482.05750387301117 2144.8679840087275  2505.728458377987 485.91038164732316 2147.3832829065368  2509.7979359532478 489.7635118136763 2150.4269131086412  2514.020081813861 493.61623351689548 2152.7172027357528  2518.0482175905477 497.46777990543552 2155.8301181902029  2522.2477104836098 501.31729912354973 2158.2919835735552  2526.3328758147827 505.163876929423 2161.1404941341134  2530.4628208575332 509.00658391512286 2163.8352505104895  2534.574213732622 512.84452837451249 2166.5732459316241  2538.6814431930638 516.67692707678145 2169.3077145486582  
2485.0848871806343 466.65843080670845 2134.0582138338855  2489.207770418574 470.50551726174797 2136.7362442577441  2493.3330183005792 474.35464162977831 2139.423452724468  2497.4599560599008 478.20543597924473 2142.0967186597322  2501.5827236236682 482.05750390990949 2144.868022898559  2505.7366865326535 485.91038168427838 2147.3833297776564  2509.8061753540483 489.76351185068205 2150.4269590646027  2514.0283308221678 493.61623355394443 2152.7172576846183  2518.056474502393 497.46777994251994 2155.8301842295614  2522.2559738152581 501.31729916066297 2158.2920454053278  2526.3411439082256 505.16387696655761 2161.1405621440522  2530.4710922576733 509.00658395227236 2163.8353149092018  2534.5824869495054 512.84452841167013 2166.5733050165873  2538.689716692179 516.67692711394034 2169.3077639785029  
2485.0930406262119 466.65843084332687 2134.0582328045771  2489.215940566492 470.50551729844142 2136.736268203199  2493.3412045262253 474.35464166654396 2139.4234817477814  2497.4681574648093 478.20543601607852 2142.0967525480382  2501.5909390793863 482.05750394680638 2144.8680615511639  2505.7449146562431 485.91038172123217 2147.3833764203346  2509.8144147178446 489.76351188768632 2150.4270047833552  2514.0365797824452 493.61623359099178 2152.7173124160759  2518.0647313610912 497.46777997960277 2155.8302500473073  2522.2642370829917 501.31729919777456 2158.2921070290085  2526.3494119306743 505.16387700369057 2161.1406299512269  2530.4793635783058 509.00658398942011 2163.8353791136528  2534.5907600783994 512.84452844882605 2166.5733639157925  2538.6979900939705 516.67692715109752 2169.3078132323658  
2485.1011940726598 466.65843087994398 2134.0582517850676  2489.2241107061395 470.5055173351335 2136.7362921616382  2493.3493907334519 474.35464170330823 2139.4235107897089  2497.4763588400829 478.2054360529109 2142.0967864636013  2501.5991544937415 482.05750398370179 2144.8681002383878  2505.7531427248846 485.91038175818443 2147.3834231160095  2509.8226540154292 489.763511924689 2150.4270505558443  2514.0448286603701 493.61623362803749 2152.7173672291506  2518.0729881274192 497.46778001668395 2155.8303159497154  2522.2725002429206 501.31729923488444 2158.2921687584148  2526.3576798339368 505.16387704082172 2161.1406978755426  2530.487634767263 509.00658402656603 2163.8354434497901  2534.5990330632758 512.84452848598005 2166.5734229609902  2538.7062633385062 516.67692718825265 2169.3078626479369  
2485.1093475227558 466.65843091655984 2134.0582707342928  2489.2322808411764 470.50551737182428 2136.7363160899831  2493.3575769268373 474.35464174007109 2139.4235398052006  2497.4845601912539 478.20543608974185 2142.0968203594462  2501.607369873228 482.05750402059579 2144.868138911419  2505.7613707460464 485.91038179513521 2147.3834698141536  2509.8308932552309 489.7635119616902 2150.427096329835  2514.0530774652902 493.61623366508161 2152.7174220701654  2518.0812448116058 497.46778005376342 2155.8303818818104  2522.280763306112 501.31729927199257 2158.292230537219  2526.3659476298526 505.1638770779511 2161.1407658595836  2530.4959058370964 509.00658406371008 2163.8355078591139  2534.6073059173782 512.84452852313211 2166.5734820926405  2538.7145364397288 516.67692722540585 2169.3079121646124  
2485.1175009791195 466.65843095317445 2134.0582896786182  2489.2404509736625 470.50551740851375 2136.7363400158965  2493.3657631078572 474.35464177683264 2139.4235688231884  2497.4927615191909 478.20543612657139 2142.0968542657456  2501.6155852181009 482.05750405748825 2144.8681776016133  2505.769598719362 485.91038183208434 2147.3835165472333  2509.8391324362688 489.76351199868964 2150.4271421388889  2514.0613261956346 493.61623370212396 2152.7174769736212  2518.0895014115154 497.46778009084113 2155.8304478789332  2522.2890262698902 501.31729930909887 2158.2922924016339  2526.3742153152498 505.16387711507861 2161.1408339402678  2530.5041767841758 509.00658410085225 2163.8355723792411  2534.6155786366289 512.84452856028224 2166.5735413490293  2538.7228093931094 516.676927262557 2169.3079618213624  
2485.1256544443672 466.6584309897878 2134.0583086444071  2489.2486211056548 470.50551744520197 2136.7363639670371  2493.3739492779846 474.35464181359288 2139.4235978726006  2497.5009628247599 478.20543616339961 2142.0968882126681  2501.6238005286132 482.05750409437934 2144.8682163403223  2505.7778266444607 485.91038186903211 2147.383563347712  2509.8473715575592 489.76351203568765 2150.4271880165657  2514.0695748498301 493.61623373916478 2152.7175319740159  2518.0977579250111 497.46778012791725 2155.8305139764202  2522.2972891315808 501.31729934620347 2158.2923543878678  2526.3824828869579 505.16387715220435 2161.1409021545082  2530.5124476048709 509.0065841379926 2163.8356370477813  2534.6238512169521 512.84452859743044 2166.5736007684363  2538.7310821941192 516.67692729970622 2169.3080116571573  

0 8
1 8

0 14
1 14

9 0 0 0 0 7 13 8 14 2 2 2485.1256544443672 466.6584309897878 2134.0583086444071  2489.2486211056548 470.50551744520197 2136.7363639670371  2493.3739492779846 474.35464181359288 2139.4235978726006  2497.5009628247599 478.20543616339961 2142.0968882126681  2501.6238005286132 482.05750409437934 2144.8682163403223  2505.7778266444607 485.91038186903211 2147.383563347712  2509.8473715575592 489.76351203568765 2150.4271880165657  2514.0695748498301 493.61623373916478 2152.7175319740159  2518.0977579250111 497.46778012791725 2155.8305139764202  2522.2972891315808 501.31729934620347 2158.2923543878678  2526.3824828869579 505.16387715220435 2161.1409021545082  2530.5124476048709 509.0065841379926 2163.8356370477818  2534.6238512169521 512.84452859743044 2166.5736007684391  2538.7310821941192 516.67692729970622 2169.3080116571668  
2485.1260351796645 466.65843099149748 2134.0583095300362  2489.2490026192249 470.50551744691512 2136.7363650854627  2493.3743315404736 474.35464181530938 2139.4235992290955  2497.5013457940154 478.20543616511929 2142.0968897978578  2501.6241841518454 482.05750409610198 2144.86821814927  2505.7782108567453 485.91038187075736 2147.3835655331131  2509.8477562926623 489.7635120374153 2150.4271901588754  2514.0699600300832 493.61623374089442 2152.7175345423211  2518.098143472263 497.46778012964853 2155.8305170629169  2522.2976749752688 501.31729934793611 2158.2923572823847  2526.3828689505854 505.16387715393802 2161.1409053398493  2530.5128338202135 509.00658413972695 2163.8356400675525  2534.6242375144625 512.84452859916519 2166.5736035430969  2538.7314685019346 516.67692730144097 2169.3080139843105  
2485.1264159149814 466.65843099320716 2134.0583104157122  2489.2493841327937 470.50551744862832 2136.7363662039434  2493.3747138029385 474.35464181702599 2139.4236005856596  2497.5017287632218 478.20543616683909 2142.0968913831371  2501.6245677750021 482.05750409782473 2144.8682199583245  2505.778595068924 485.91038187248279 2147.3835677186621  2509.8481410276349 489.76351203914305 2150.4271923013357  2514.0703452101698 493.61623374262416 2152.7175371108387  2518.0985290193262 497.46778013137993 2155.8305201496332  2522.298060818734 501.31729934966882 2158.2923601771681  2526.383255013965 505.16387715567168 2161.1409085254822  2530.5132200352805 509.0065841414613 2163.8356430876474  2534.6246238116701 512.84452860089993 2166.5736063181089  2538.7318548094172 516.67692730317583 2169.3080163118389  
2485.1267966503119 466.65843099491684 2134.0583113014095  2489.2497656463565 470.50551745034147 2136.7363673224527  2493.3750960653756 474.35464181874249 2139.4236019422642  2497.5021117323759 478.20543616855878 2142.096892968475  2501.6249513980815 482.05750409954732 2144.8682217674536  2505.7789792809963 485.91038187420799 2147.3835699043261  2509.8485257624761 489.76351204087058 2150.4271944439129  2514.0707303900895 493.61623374435368 2152.7175396795342  2518.0989145662006 497.46778013311109 2155.8305232365342  2522.2984466619764 501.31729935140135 2158.2923630721825  2526.3836410770969 505.16387715740518 2161.1409117113708  2530.5136062500724 509.00658414319548 2163.8356461080298  2534.6250101085752 512.84452860263445 2166.5736090934406  2538.7322411165687 516.67692730491035 2169.3080186397247  
2485.1271773856502 466.65843099662652 2134.0583121871032  2489.2501471599076 470.50551745205468 2136.7363684409638  2493.3754783277791 474.35464182045905 2139.423603298882  2497.5024947014726 478.20543617027846 2142.0968945538443  2501.6253350210782 482.05750410126996 2144.8682235766291  2505.7793634929562 485.9103818759333 2147.3835720900756  2509.8489104971814 489.76351204259828 2150.427196586576  2514.0711155698391 493.61623374608337 2152.7175422483756  2518.0993001128836 497.46778013484243 2155.830526323587  2522.2988325049946 501.31729935313399 2158.2923659673934  2526.3840271399799 505.16387715913885 2161.1409148974803  2530.5139924645887 509.00658414492983 2163.8356491286636  2534.6253964051784 512.8445286043692 2166.5736118690534  2538.7326274233906 516.6769273066451 2169.3080209679219  
2485.1275581209902 466.6584309983362 2134.0583130727678  2489.2505286734413 470.50551745376782 2136.7363695594504  2493.3758605901444 474.35464182217555 2139.4236046554847  2497.502877670508 478.20543617199814 2142.096896139215  2501.6257186439893 482.0575041029926 2144.8682253858196  2505.7797477048025 485.91038187765861 2147.3835742758779  2509.8492952317497 489.76351204432592 2150.4271987292914  2514.0715007494173 493.61623374781306 2152.7175448173284  2518.0996856593747 497.46778013657377 2155.8305294107563  2522.2992183477882 501.31729935486669 2158.2923688627652  2526.3844132026147 505.16387716087252 2161.1409180837741  2530.5143786788308 509.00658414666418 2163.8356521495125  2534.6257827014815 512.84452860610384 2166.5736146449121  2538.7330137298841 516.67692730837985 2169.3080232963998  
2485.1279388563266 466.65843100004588 2134.0583139583778  2489.2509101869532 470.50551745548103 2136.7363706778856  2493.3762428524674 474.35464182389211 2139.4236060120447  2497.5032606394784 478.20543617371789 2142.0968977245584  2501.6261022668114 482.05750410471524 2144.8682271949956  2505.7801319165319 485.91038187938386 2147.3835764617024  2509.849679966178 489.76351204605351 2150.4272008720272  2514.0718859288222 493.61623374954263 2152.7175473863595  2518.1000712056716 497.46778013830499 2155.8305324980079  2522.2996041903557 501.31729935659922 2158.2923717582626  2526.3847992650003 505.16387716260607 2161.1409212702165  2530.5147648927973 509.00658414839842 2163.8356551705397  2534.6261689974831 512.84452860783847 2166.5736174209778  2538.7334000360484 516.67692731011448 2169.3080256251164  
2485.1283195916535 466.65843100175556 2134.0583148439082  2489.2512917004378 470.50551745719417 2136.736371796243  2493.3766251147431 474.35464182560861 2139.4236073685347  2497.5036436083792 478.20543617543757 2142.0968993098454  2501.6264858895406 482.05750410643788 2144.868229004127  2505.7805161281412 485.91038188110917 2147.3835786475183  2509.8500647004639 489.76351204778121 2150.4272030147522  2514.0722711080521 493.61623375127232 2152.7175499554369  2518.1004567517743 497.46778014003633 2155.830535585309  2522.2999900326972 501.31729935833187 2158.2923746538527  2526.3851853271367 505.16387716433968 2161.140924456774  2530.5151511064892 509.00658415013271 2163.8356581917114  2534.626555293185 512.8445286095731 2166.5736201972172  2538.7337863418861 516.67692731184923 2169.3080279540386  

0 8
1 8

0 14
1 14

Triangulations 0

TShapes 41
Ve
0.001
2427.88561711808 498.350315161315 2139.9825270522
0 0

0101100
*
Ve
0.001
2445.16008006284 492.681455895356 2145.8634957689
0 0

0101100
*
Ed
 0.001 1 1 0
1  1 0 0 1
2  1 1 0 0 1
0

0101000
+41 0 -40 0 *
Ve
0.001
2411.62490308302 506.365782111976 2130.42172660826
0 0

0101100
*
Ed
 0.001 1 1 0
1  2 0 0 1
2  2 1 0 0 1
0

0101000
+38 0 -41 0 *
Ve
0.001
2369.06942184716 466.65786974958 2109.57167337275
0 0

0101100
*
Ed
 0.001 1 1 0
1  3 0 0 1
2  3 1 0 0 1
0

0101000
+36 0 -38 0 *
Ve
0.001
2418.58124205755 466.658108756004 2128.43076267252
0 0

0101100
*
Ed
 0.001 1 1 0
1  4 0 0 1
2  4 1 0 0 1
0

0101000
+36 0 -34 0 *
Ed
 0.001 1 1 0
1  5 0 0 1
2  5 1 0 0 1
2  6 2 0 0 1
4 G1 1 0 2 0
0

0101000
+34 0 -40 0 *
Wi

0101000
-39 0 -37 0 -35 0 +33 0 +32 0 *
Fa
0  0.001 1 0

0111000
+31 0 *
Ve
0.001
2478.50858868829 489.523033207691 2149.46089894253
0 0

0101100
*
Ed
 0.001 1 1 0
1  6 0 0 1
2  7 2 0 0 1
0

0101000
+40 0 -29 0 *
Ve
0.001
2454.57580442323 466.658287391436 2133.46068776949
0 0

0101100
*
Ed
 0.001 1 1 0
1  7 0 0 1
2  8 2 0 0 1
0

0101000
+34 0 -27 0 *
Ed
 0.001 1 1 0
1  8 0 0 1
2  9 2 0 0 1
2  10 3 0 0 1
4 G1 2 0 3 0
0

0101000
+27 0 -29 0 *
Wi

0101000
-28 0 -32 0 +26 0 +25 0 *
Fa
0  0.001 2 0

0111000
+24 0 *
Ve
0.001
2509.70999305785 489.651547587581 2150.15416497433
0 0

0101100
*
Ed
 0.001 1 1 0
1  9 0 0 1
2  11 3 0 0 1
0

0101000
+29 0 -22 0 *
Ve
0.001
2485.06858028257 466.658430733468 2134.05817541187
0 0

0101100
*
Ed
 0.001 1 1 0
1  10 0 0 1
2  12 3 0 0 1
0

0101000
+27 0 -20 0 *
Ed
 0.001 1 1 0
1  11 0 0 1
2  13 3 0 0 1
2  14 4 0 0 1
4 G1 3 0 4 0
0

0101000
+20 0 -22 0 *
Wi

0101000
-21 0 -25 0 +19 0 +18 0 *
Fa
0  0.001 3 0

0111000
+17 0 *
Ve
0.001
2509.76841378586 489.652262151519 2150.15501401691
0 0

0101100
*
Ed
 0.001 1 1 0
1  12 0 0 1
2  15 4 0 0 1
0

0101000
+22 0 -15 0 *
Ve
0.001
2485.12565444437 466.658430989788 2134.05830864441
0 0

0101100
*
Ed
 0.001 1 1 0
1  13 0 0 1
2  16 4 0 0 1
0

0101000
+20 0 -13 0 *
Ed
 0.001 1 1 0
1  14 0 0 1
2  17 4 0 0 1
2  18 5 0 0 1
4 G1 4 0 5 0
0

0101000
+13 0 -15 0 *
Wi

0101000
-14 0 -18 0 +12 0 +11 0 *
Fa
0  0.001 4 0

0111000
+10 0 *
Ve
0.001
2509.77114172414 489.652295497011 2150.15505367224
0 0

0101100
*
Ed
 0.001 1 1 0
1  15 0 0 1
2  19 5 0 0 1
0

0101000
+15 0 -8 0 *
Ve
0.001
2485.12831959165 466.658431001756 2134.05831484391
0 0

0101100
*
Ed
 0.001 1 1 0
1  16 0 0 1
2  20 5 0 0 1
0

0101000
+13 0 -6 0 *
Ed
 0.001 1 1 0
1  17 0 0 1
2  21 5 0 0 1
0

0101000
+6 0 -8 0 *
Wi

0101000
-7 0 -11 0 +5 0 +4 0 *
Fa
0  0.001 5 0

0111000
+3 0 *
Sh

1101000
+30 0 +23 0 +16 0 +9 0 +2 0 *

+1 0 
0

