DBRep_DrawableShape

CASCADE Topology V1, (c) Matra-Datavision
Locations 0
Curve2ds 8
7 0 0  1 2 2  0.99999999999999989 1  0 1 
 0 2 1 2
7 0 0  1 2 2  0 1  0 0 
 0 2 1 2
7 0 0  1 2 2  0 0  0.99999999999999989 0 
 0 2 1 2
7 0 0  1 2 2  1 0  1 1 
 0 2 1 2
7 0 0  1 2 2  0 0  0 1 
 0 2 1 2
7 0 0  1 2 2  0 0  1 0 
 0 2 1 2
7 0 0  1 2 2  1 0  1 1 
 0 2 1 2
7 0 0  1 2 2  1 1  0 1 
 0 2 1 2
Curves 7
7 0 0  7 8 2  1738.2652865008301 153.70074588106391 1765.8070916130009  1736.1468016448798 153.70074244818207 1778.2001416071412  1730.8196577079434 153.7007594799081 1791.9635911063176  1722.1475999331542 153.70076313556484 1807.1506621963567  1709.95249183844 153.7006603978524 1823.8190265612814  1693.962394167582 153.70048238008309 1842.0287990934978  1674.0419861399957 153.70103171263969 1861.8951051683018  1649.6481692545105 153.69987916814154 1883.4787590996164 
 0 8 1 8
7 0 0  8 9 2  1649.6481692545103 153.69987916814154 1883.4787590996159  1642.6018363175003 169.79770781042086 1883.4455161703702  1636.4663169889091 189.37829778365108 1883.2276550553772  1631.0366889681818 212.44166875588184 1882.6751412194446  1626.4073309127562 238.987587018102 1881.8447602001986  1622.4826280488073 269.01649098515691 1880.6551180925135  1619.3882567955857 302.52798710426407 1879.1993854620723  1617.0862143986271 339.52223365065163 1877.441419007147  1615.6187063497762 379.99922985600057 1875.4156109124153 
 0 9 1 9
7 0 0  7 8 2  1615.6187063497762 379.99922985600062 1875.4156109124151  1642.2062071450741 380.00036508203647 1856.6002866996141  1664.1606450664999 379.9997998564624 1839.0078213141207  1682.0285104461618 379.99996334276915 1822.6365658289446  1695.9567959575452 380.0000525569281 1807.3867231330685  1706.2223501828526 380.00003584764971 1793.227979065003  1713.0085062445489 380.0000067739046 1780.1222907634976  1716.4564806638393 379.99999916109221 1768.0315031078023 
 0 8 1 8
7 0 0  10 11 2  1716.4564806638393 379.99999916109221 1768.0315031078026  1716.2987693472755 347.61840996384279 1768.401631434202  1716.6607330649861 317.40385996135535 1768.6400898398074  1717.5423615936713 289.35634828037985 1768.7468893453579  1718.9437717785434 263.47586048234587 1768.7219018375338  1720.8647846470606 239.76241809758838 1768.5653483498479  1723.3054551982914 218.21600587452539 1768.2771012815499  1726.2659464676929 198.83665324405578 1767.8570588231557  1729.7460137913642 181.62430647465885 1767.3054464734719  1733.7457971467704 166.57900445009099 1766.6221207273932  1738.2652865008299 153.70074588106394 1765.8070916130005 
 0 11 1 11
7 0 0  7 8 2  1716.4564806638393 379.99999916109221 1768.0315031078028  1720.0081685011485 379.99999131928854 1755.5770303541924  1720.0178318742601 380.00000624890237 1744.1994296466698  1716.6398547935983 380.00007731528967 1733.8570089340521  1709.9811497029209 380.000176665548 1724.5079344976223  1700.1608013250507 379.9999973784216 1716.119074299876  1687.6979553393337 379.99928513665463 1708.7761750338905  1675.4923306849907 380.00500324240181 1703.301040651173 
 0 8 1 8
7 0 0  7 8 2  1675.492330684991 380.00500324240181 1703.3010406511728  1674.1202419343838 333.74559330739169 1704.5555285652924  1673.8996351943106 292.1298356105101 1705.5371802298926  1674.8562378179965 255.15772761026196 1706.2274878053613  1677.0021506626431 222.82927637377915 1706.6091093412917  1680.3281681756941 195.14447014642695 1706.6901728193193  1684.8893146027037 172.10331014737201 1706.4096325784471  1690.5328291925632 153.70580579864023 1705.8929348893919 
 0 8 1 8
7 0 0  7 8 2  1690.5328291925632 153.70580579864026 1705.8929348893921  1703.2595507428412 153.70008322128848 1710.0142208315665  1716.4442261697004 153.70078981548309 1715.9644378143039  1727.1151996037588 153.70096228156632 1723.2406015995682  1734.7470930041425 153.70085492346399 1731.8136838311393  1739.2251092247479 153.70077466761816 1741.729516729343  1740.4474943659245 153.70074941720603 1753.0412646146629  1738.2652865008301 153.70074588106394 1765.8070916130007 
 0 8 1 8
Polygon3D 0
PolygonOnTriangulations 0
Surfaces 2
9 0 0 0 0 10 10 11 11 2 2 1615.6187063497762 379.99922985600062 1875.4156109124153  1616.7927127888559 347.61763289171978 1877.0362573882007  1618.4859850445405 317.40308015968799 1878.4902468436601  1620.675645689874 289.35557091749382 1879.758579541566  1623.3834649212383 263.47504891202323 1880.8623793329209  1626.5639460363559 239.76160830299369 1881.764938056459  1630.2122989301031 218.21516415716465 1882.4671850839964  1634.3447176560801 198.83584332780288 1882.9872953376087  1638.9407650227554 181.62345649060342 1883.3106968750187  1644.0111029049019 166.57814208196464 1883.4521647562224  1649.6481692545103 153.69987916814156 1883.4787590996159  
1634.2299569064817 380.00002451422466 1862.2448839634551  1635.2406285977029 347.61842826190178 1863.6347253539302  1636.7695455239041 317.40387630789269 1864.8632291873682  1638.7966969760116 289.35636831720194 1865.9149962539925  1641.3412886870728 263.47584423977008 1866.8072125655176  1644.3634620949842 239.76241489805389 1867.5102440121302  1647.8592357840726 218.2159606014886 1868.0249652548941  1651.8429963987562 198.83664741291079 1868.3662576423637  1656.296809161789 181.62426061177354 1868.5224822252744  1661.2302658314795 166.57894775529502 1868.5057819205588  1666.7238410743587 153.70068594929091 1868.3702013477011  
1650.6791114553948 380.00002562836852 1849.6448244672415  1651.5335253091107 347.61843000783307 1850.830673825553  1652.9054405046443 317.4038787458187 1851.8600513793556  1654.7775746193629 289.35637182923165 1852.7207276359313  1657.1666628882328 263.47584624782053 1853.4264078427379  1660.0382194749141 239.76242687735132 1853.9536764750262  1663.3889920468876 218.2159640045912 1854.3033380159511  1667.2316052083263 198.83665691666133 1854.4873492344543  1671.5505092328608 181.62427075215976 1854.4966381464865  1676.3542265851506 166.57895936563102 1854.3410012447446  1681.7119220938234 153.70069852114568 1854.0630725954727  
1665.125563033193 379.99994167256028 1837.6149514645031  1665.8307898944774 347.61834663473991 1838.6216452577842  1667.0530237816699 317.40379594542452 1839.476305475117  1668.7775744129474 289.35628983978296 1840.1694732956382  1671.0187996717796 263.47576381487136 1840.7117994834662  1673.7473278471248 239.76235212505566 1841.0852915923656  1676.9605595606758 218.21588344544475 1841.2906729200861  1680.6694037628727 198.8365800635242 1841.3373204125689  1684.8605842733759 181.62419544990146 1841.2183864143519  1689.5415574267552 166.57888546528272 1840.9415895658915  1694.7708160212385 153.70062539347583 1840.5396353597414  
1677.6621216337633 379.99994254671651 1826.1384260611601  1678.2250233781106 347.61834809989762 1826.9896499351655  1679.3046742132635 317.40379784964449 1827.6928691558203  1680.8888461756026 289.35629187504867 1828.2410131724416  1682.9896040521328 263.47576806338424 1828.642091559552  1685.5824490194971 239.76235874454403 1828.882766999702  1688.6653574767033 218.21589056618186 1828.9636761295103  1692.247563770421 198.83658590089419 1828.8919498604032  1696.3179665572138 181.62420482939322 1828.6626285494608  1700.8829537643289 166.57889605129887 1828.2816162537376  1705.9909636987263 153.70063650373677 1827.7731002098585  
1688.3591272400977 379.99999300858968 1815.1960204626257  1688.786326952732 347.61839940841634 1815.9145881001887  1689.7302450446607 317.40384900613469 1816.4887858183315  1691.1809956966074 289.3563423744842 1816.9135579583512  1693.1484155386752 263.47582598826955 1817.1946875601109  1695.6126692220903 239.76240772956757 1817.3227290482187  1698.5722212870958 218.21595391171087 1817.298240617549  1702.0346635916858 198.83663734073542 1817.1264368016339  1705.9909933053536 181.62426404552377 1816.8039020964509  1710.4465139278036 166.5789561256008 1816.3349942611869  1715.4402092619371 153.7006966415133 1815.736736126657  
1697.2834716635887 380.00003112451179 1804.7719259369189  1697.5813967398662 347.6184387980486 1805.3798211071542  1698.3962282612697 317.40388830811253 1805.8466002070609  1699.7202984130909 289.35637977273331 1806.1688704443013  1701.5613042273742 263.47587293827411 1806.3505620181988  1703.9038347230003 239.76244345467543 1806.3854229740182  1706.7467759257374 218.2160054826505 1806.27392155038  1710.0961264710111 198.83667616780113 1806.0196563344045  1713.9448720547264 181.62431077599433 1805.6204613853408  1718.2972423857325 166.57900380528173 1805.0793802636645  1723.1833392962783 153.70074421122638 1804.4075842569646  
1704.5010919421843 380.00003530426631 1794.8541466556183  1704.6760214586848 347.61844400519385 1795.3725349891413  1705.3682548682621 317.40389360857432 1795.7526931758273  1706.5722177177508 289.35638364425705 1795.9925561128671  1708.2935673553093 263.47588389374937 1796.094547679932  1710.5210644835852 239.7624476829132 1796.0549578840851  1713.2539651357663 218.21602032078331 1795.8741402313763  1716.4967258330871 198.8366819239146 1795.5543646686128  1720.2442026677552 181.62432282655556 1795.094442947815  1724.4995705815163 166.57901698662099 1794.4963194085196  1729.2846046058801 153.70075745343209 1793.7665790307246  
1710.0714983770354 380.00001983412949 1785.4322261271514  1710.1295818583342 347.61842937315589 1785.8815351053656  1710.7055672636911 317.4038791043069 1786.1951438674653  1711.7958522607826 289.35636822818617 1786.3719910931991  1713.4041523308056 263.4758736534809 1786.413328610118  1715.5231535121707 239.76243374539789 1786.3173603549128  1718.1524295753406 218.21601346328964 1786.0843019457468  1721.2949501084133 198.83666861003823 1785.7153692205457  1724.9473219211459 181.62431454617112 1785.2100929286973  1729.1116865584365 166.57900994805524 1784.569523915131  1733.8020334647197 153.70075062518083 1783.7968813738212  
1714.0428985703406 380.00000449006188 1776.4950544667902  1713.9901477846822 347.61841471937987 1776.8951136994681  1714.4560910480313 317.40386458348723 1777.1616565592615  1715.4389797781339 289.35635318043194 1777.2943111283632  1716.9406835597413 263.47586244338333 1777.2934811666414  1718.9575729994508 239.76242074037137 1777.1586759483803  1721.4894880576303 218.21600522077335 1776.8899503700591  1724.5379674306175 198.83665580911895 1776.4877319335633  1728.1012500077734 181.62430577825961 1775.9520206392463  1732.1804659464935 166.57900246939462 1775.283172913319  1736.7823471016591 153.70074347804618 1774.4822266088972  
1716.4564806638393 379.99999916109221 1768.0315031078026  1716.2987693472355 347.61840996384092 1768.4016314341857  1716.6607330651445 317.40385996136388 1768.6400898398692  1717.5423615933319 289.35634828036279 1768.7468893452542  1718.9437717790688 263.4758604823715 1768.7219018376491  1720.8647846464487 239.76241809755817 1768.565348349752  1723.3054551988239 218.21600587455231 1768.277101281612  1726.2659464673598 198.83665324403853 1767.8570588231271  1729.7460137915034 181.62430647466635 1767.3054464734796  1733.7457971467393 166.5790044500892 1766.622120727392  1738.2652865008299 153.70074588106394 1765.8070916130005  

0 11
1 11

0 11
1 11

9 0 0 0 0 10 10 11 11 2 2 1716.4564806638393 379.99999916109221 1768.0315031078026  1716.2987693472355 347.61840996384092 1768.4016314341857  1716.6607330651445 317.40385996136388 1768.6400898398692  1717.5423615933319 289.35634828036279 1768.7468893452542  1718.9437717790688 263.4758604823715 1768.7219018376491  1720.8647846464487 239.76241809755817 1768.565348349752  1723.3054551988239 218.21600587455231 1768.277101281612  1726.2659464673598 198.83665324403853 1767.8570588231271  1729.7460137915034 181.62430647466635 1767.3054464734796  1733.7457971467393 166.5790044500892 1766.622120727392  1738.2652865008299 153.70074588106394 1765.8070916130005  
1718.9426621499499 379.9999936718296 1759.313372180274  1718.6768331399346 347.61840506525755 1759.6526692930456  1718.931689657511 317.40385520020931 1759.8621984776998  1719.7090121254403 289.35634323290185 1759.9423652114431  1721.0071119320114 263.47585846237337 1759.8924935105524  1722.8293643057166 239.76241537525044 1759.713537575492  1725.1760457612836 218.21600654799659 1759.4051818204753  1728.0459022853563 198.83665060180169 1758.9667792019627  1731.44025128156 181.62430719202072 1758.3987875008613  1735.3582127592704 166.57900649036216 1757.7005482427062  1739.7928320063977 153.70074835636331 1756.8710127141703  
1719.7758988861251 379.99999880922951 1751.0977815409294  1719.4081845781013 347.61841066933999 1751.4267459654995  1719.5623666840809 317.4038609422077 1751.6274864612326  1720.2418938357102 289.35634895278685 1751.7004777839488  1721.4433708096783 263.47586625625019 1751.6448315821606  1723.1734785904673 239.76242364791722 1751.4616053985549  1725.4326609340446 218.21601666098269 1751.1502725570708  1728.218305381286 198.83665882044815 1750.7099156218187  1731.5331687098692 181.62431795162576 1750.1409660187828  1735.3753734634108 166.57901856761964 1749.442456667686  1739.7315674423669 153.700760964989 1748.6135040680581  
1719.0012195412901 380.00002430639643 1743.3725710086815  1718.5377015028826 347.61843654301714 1743.7111428738854  1718.597485435828 317.40388694912247 1743.9226863225208  1719.1855689977376 289.35637505326605 1744.0074288649578  1720.2969461288367 263.47589395766602 1743.9645967694262  1721.9413623523253 239.7624521466532 1743.7947375084261  1724.1193748332291 218.21604637537973 1743.4970913689872  1726.8270703755811 198.83668745148745 1743.0707379859564  1730.0685257287757 181.62434855524384 1742.5158303472365  1733.8408875932141 166.57905042635701 1741.8312941135653  1738.1249400373395 153.70079341819417 1741.0176011379062  
1716.6557408577928 380.00006968694356 1736.1255567912162  1716.1023494862561 347.61848223186308 1736.4932160045355  1716.0738560076134 317.40393278899148 1736.7347019708204  1716.5766913006198 289.35642094979409 1736.849685269473  1717.6043300847105 263.47594131561431 1736.8378280696213  1719.1693496033838 239.76250013896572 1736.6985657861856  1721.2723666733821 218.21609548329556 1736.4308857105548  1723.9082222944739 198.83673586718666 1736.0341268975881  1727.0821992887563 181.62439858992133 1735.507915039256  1730.7904876331718 166.57910160897774 1734.8512671899011  1735.0085290185209 153.7008452226884 1734.0671726848484  
1712.7736379775306 380.00010612513915 1729.3452684212295  1712.1361613624454 347.61851892604744 1729.7610711373736  1712.0253648114458 317.40396959456592 1730.0512231653777  1712.4490008641028 289.35645781677601 1730.2145336448527  1713.3991099780471 263.47597952786697 1730.2514196367124  1714.8908799430767 239.76253872046871 1730.1596086698346  1716.9249310515288 218.21613535293542 1729.9378202616645  1719.4949105516005 198.83677504483308 1729.5859100595621  1722.6072004367022 181.62443927722103 1729.1027289737742  1726.2570492592802 166.57914331000649 1728.4875831072197  1730.415066531923 153.70088754026909 1727.7471151465418  
1707.4020562250519 380.00007660447972 1723.0250635297305  1706.6862000992865 347.61848957629041 1723.507481217343  1706.4989856014206 317.40394037008753 1723.8644469425221  1706.8493764737248 289.35642864779436 1724.0936140670176  1707.7280648524327 263.47595136165302 1724.1964619172984  1709.1526287605323 239.76251126654597 1724.1684352945299  1711.1236396758966 218.21610857569971 1724.0079702216253  1713.6336022926594 198.83674816208216 1723.7156880699902  1716.6898919573719 181.62441353984229 1723.2894267253923  1720.2868325709346 166.57911850470057 1722.7289718165905  1724.3907015122513 153.70086334730806 1722.0457201428808  
1700.6385009644509 379.99996674444458 1717.1740008736019  1699.8500833597229 347.61837983697956 1717.7402958491241  1699.5924301018547 317.40383069347575 1718.1810282783663  1699.8756057169392 289.35631903984319 1718.4924204291233  1700.6890401853514 263.47584258217319 1718.6773037352561  1702.0524834223581 239.76240316143398 1718.728300626291  1703.9664069174255 218.21600107998336 1718.643552117373  1706.4222258459024 198.83664062756145 1718.4246798174916  1709.4282060307391 181.62430705984133 1718.0682838859052  1712.9777653209019 166.57901283540718 1717.5748105910388  1717.0333469147231 153.70075826483369 1716.9614350870158  
1692.7002418223674 379.99999872319461 1711.8378523991616  1691.8456483980424 347.61841187006178 1712.5025925495322  1691.5240584780568 317.40386274807344 1713.04137811684  1691.7465201163052 289.3563511303243 1713.4487694049822  1692.5012985219657 263.47587538177345 1713.7291953394781  1693.8100838372445 239.76243658393551 1713.8720034686091  1695.6732026278307 218.21603504727298 1713.8750333686642  1698.0810442423222 198.83667459925337 1713.7411074476493  1701.0426585035159 181.62434200743962 1713.465399988849  1704.5505872302506 166.57904848817208 1713.0491742363083  1708.5639511720274 153.70079447040285 1712.5162363607094  
1684.0362679430373 380.00100056837954 1707.1336347190791  1683.1233355097372 347.61941370130404 1707.9058198738417  1682.7456660134569 317.40486454796218 1708.5514307411779  1682.9151553140807 289.35735294459386 1709.0632267243886  1683.6190288242617 263.47687777972908 1709.4473880849146  1684.8806492006674 239.76343956239592 1709.6897153954776  1686.7001646611589 218.21703851023614 1709.7877521349556  1689.0670296073868 198.83767809601619 1709.7456511333323  1691.9909589203896 181.62534640108387 1709.557049710854  1695.463675228134 166.58005350231321 1709.2241333162892  1699.4415342777581 153.70179999449411 1708.77783504891  
1675.4923306849907 380.00500324240181 1703.3010406511728  1674.5318685595626 347.62341628789449 1704.179182191054  1674.1087647057304 317.40886704451549 1704.9300001478387  1674.2355884971814 289.3613554313161 1705.5444873771064  1674.8987065291474 263.48088073284305 1706.0305569689904  1676.1228105240766 239.7674430419346 1706.370530986339  1677.9078582094899 218.22104242947881 1706.5616847986926  1680.2425147338377 198.84168206848469 1706.6094977019686  1683.1370139094165 181.62935119034805 1706.5061048449104  1686.5823689796648 166.58405884275302 1706.2546232717343  1690.532829192563 153.70580579864026 1705.8929348893919  

0 11
1 11

0 11
1 11

Triangulations 0

TShapes 18
Ve
0.152668443563674
1738.26528650083 153.700745881064 1765.807091613
0 0

0101100
*
Ve
0.000303200992848746
1649.64816925451 153.699879168142 1883.47875909962
0 0

0101100
*
Ed
 1e-07 1 1 0
1  1 0 0 1
2  1 1 0 0 1
0

0101000
+18 0 -17 0 *
Ve
0.000303200992848746
1615.61870634978 379.999229856001 1875.41561091242
0 0

0101100
*
Ed
 0.000303200992848746 1 1 0
1  2 0 0 1
2  2 1 0 0 1
0

0101000
+17 0 -15 0 *
Ve
0.000197656302802506
1716.45648066384 379.999999161092 1768.0315031078
0 0

0101100
*
Ed
 1e-07 1 1 0
1  3 0 0 1
2  3 1 0 0 1
0

0101000
+15 0 -13 0 *
Ed
 1e-07 1 1 0
1  4 0 0 1
2  4 1 0 0 1
2  5 2 0 0 1
4 G1 1 0 2 0
0

0101000
+13 0 -18 0 *
Wi

0101100
+16 0 +14 0 +12 0 +11 0 *
Fa
0  1e-07 1 0

0111000
+10 0 *
Ve
0.000756022081137681
1675.49233068499 380.005003242402 1703.30104065117
0 0

0101100
*
Ed
 1e-07 1 1 0
1  5 0 0 1
2  6 2 0 0 1
0

0101000
+13 0 -8 0 *
Ve
0.000756022081137681
1690.53282919256 153.70580579864 1705.89293488939
0 0

0101100
*
Ed
 0.000756022081137681 1 1 0
1  6 0 0 1
2  7 2 0 0 1
0

0101000
+8 0 -6 0 *
Ed
 1e-07 1 1 0
1  7 0 0 1
2  8 2 0 0 1
0

0101000
+6 0 -18 0 *
Wi

0101100
+7 0 +5 0 +4 0 -11 0 *
Fa
0  1e-07 2 0

0111000
+3 0 *
Sh

1101000
+9 0 +2 0 *

+1 0 
0

