DBRep_DrawableShape

CASCADE Topology V1, (c) Matra-Datavision
Locations 2
1
              1               0               0               0 
              0               1               0               0 
              0               0               1           -4000 
2  1 -1 0
Curve2ds 52
8 0.5 3.5
1 -0.5 -18 1 0 
8 0.5 3.5
1 0.5 50 1 0 
8 -9 -6
1 3 -9 0 1 
8 -9 -6
1 9 50 1 0 
8 -5.0999999999999437 9.9000000000000554
1 6.0600000000000023 -10.920000000000073 0.59999999999999998 0.80000000000000004 
8 -5.0999999999999437 9.9000000000000554
1 5.0999999999999437 50 1 0 
8 6 9
1 6 -3 1 0 
8 6 9
1 -6 50 1 0 
8 -1.5 1.5
1 15 -1.5 0 1 
8 -1.5 1.5
1 1.5 50 1 0 
8 -4000 0
1 45 0 0 1 
8 -4000 0
1 3 0 0 -1 
8 -25 25
1 -25 15 -1 0 
8 -25 25
1 3 25 0 -1 
8 -26.5 -23.5
1 -23.5 15 1 0 
8 -26.5 -23.5
1 -23.5 0 -1 -0 
8 -19 -16
1 -16 3 1 0 
8 -19 -16
1 -16 4000 -1 -0 
8 -29.899999999999999 -14.9
1 -23.079999999999998 -5.9399999999999977 0.80000000000000004 -0.59999999999999998 
8 -29.899999999999999 -14.9
1 -14.9 4000 -1 0 
8 -9 -6
1 -47 6 0 -1 
8 -9 -6
1 -6 4000 -1 0 
8 -26.5 -23.5
1 -23.5 15 1 0 
8 -26.5 -23.5
1 -23.5 4000 -1 -0 
8 -3.5 -0.5
1 -32 -0.5 0 -1 
8 -3.5 -0.5
1 0.5 4000 -1 0 
1 4 0 0 1 
1 0 0 0 1 
8 -4 -1
1 0 18 -1 0 
8 -4 -1
1 0 18 -1 0 
8 18 50
1 0 -18 1 0 
8 18 50
1 1 0 0 1 
1 3 0 0 1 
1 0 0 0 1 
1 4 0 0 1 
1 0 0 0 1 
1 15 0 0 1 
1 0 0 0 1 
8 -9.8389469989820473 9.3704257133163704
1 7.317073170731712 9.146341463414501 -0.78086880944303028 0.62469504755442429 
8 -9.8389469989820473 9.3704257133163704
1 7.3170731707318142 9.1463414634146289 -0.78086880944303028 0.62469504755442429 
1 3 0 0 1 
1 0 0 0 1 
8 -3 0
1 0 3 -1 0 
8 -3 0
1 0 3 -1 0 
1 3 0 0 1 
1 0 0 0 1 
8 0 4000
1 18 0 0 -1 
8 0 4000
1 1 0 0 1 
1 3 0 0 1 
1 0 0 0 1 
1 15 0 0 1 
1 0 0 0 1 
Curves 33
1 0 0 4000 0 0 -1 
1 50 0 4000 0 0 -1 
1 0 0 4000 1 0 0 
1 0 60.5 3982 0 -1 0 
1 0 57 3991 0 0 1 
1 -1.1119577481011333e-15 53.939999999999998 3989.0799999999999 0 -0.59999999999999998 0.80000000000000004 
1 0 54 3997 0 -1 0 
1 0 45 3998.5 0 0 1 
1 0 60 4000 0 -1 0 
1 0 60 4000 0 0 -1 
1 50 0 4000 0 1 0 
1 50 45 4000 0 -0 1 
1 25 45 4000 1 0 -0 
1 23.5 45 4000 -1 -0 0 
1 16 57 0 -1 -0 0 
1 23.079999999999998 65.939999999999998 -8.8928864272475039e-14 -0.80000000000000004 0.59999999999999998 0 
1 47 54 0 0 1 0 
1 23.5 45 0 -1 -0 0 
1 50 60 4000 -1 0 0 
1 32 60.5 0 0 1 0 
1 50 57 3982 -1 0 0 
1 32 61 3982 0 1 0 
1 50 60 3982 -1 0 0 
1 50 57 3985 -1 -0 0 
1 32 57 4000 0 0 -1 
1 50 48 3997 -1 0 0 
1 40.853658536585371 52.609756097560975 3990.8536585365855 -0.62469504755442429 0.46852128566581819 -0.62469504755442429 
1 50 45 3997 -1 0 0 
1 47 48 3997 0 1 0 
1 47 45 4000 0 0 -1 
1 32 60 4000 0 0 -1 
1 35 57 4000 0 0 -1 
1 47 48 4000 0 0 -1 
Polygon3D 0
PolygonOnTriangulations 10
2 3 4 
p 400.00000002 1 0 4000 
2 1 2 
p 444.5000000095 1 0 4000 
2 3 4 
p 400.00000002 1 0 4000 
2 1 2 
p 444.225000009475 1 0 4000 
2 2 4 
p 20.00000008 1 0 50 
2 1 3 
p 20.00000008 1 0 50 
2 3 4 
p 49.225000009475 1 0 50 
2 2 4 
p 24.00000008 1 0 60 
2 1 3 
p 24.00000008 1 0 60 
2 2 3 
p 50.5000000095 1 0 60 
Surfaces 15
1 0 0 4000 0 -1 0 1 0 0 -0 0 1 
1 0 60 4000 -1 0 0 0 -1 0 0 0 1 
1 50 61 3982 -0 -0 -1 0 -1 0 -1 0 0 
1 50 57 3982 0 -1 0 -0 0 1 -1 -0 0 
1 50 57 3985 -0 -0.80000000000000004 -0.59999999999999998 -0 -0.59999999999999998 0.80000000000000004 -1 0 0 
1 50 48 3997 -0 -0 -1 0 -1 0 -1 0 0 
1 50 45 3997 0 -1 0 -0 0 1 -1 -0 0 
1 50 0 4000 1 0 0 -0 1 0 0 -0 1 
1 47 45 4000 -0 1 0 1 0 0 0 0 -1 
1 0 60 4000 0 0 1 -1 0 0 0 -1 0 
1 32 57 4000 -0 1 0 1 0 0 0 0 -1 
1 35 57 4000 0.59999999999999998 0.80000000000000004 0 0.80000000000000004 -0.59999999999999998 -0 0 0 -1 
1 47 48 4000 1 0 0 0 -1 0 0 0 -1 
1 32 61 4000 1 0 0 0 -1 0 0 0 -1 
1 50 60 4000 0 1 0 -1 0 0 0 -0 1 
Triangulations 4
4 2 1 221.125000047375
0 0 4000 0 0 0 50 0 4000 50 0 0 0 0 0 -4000 50 0 50 -4000 1 2 4 4 3 1 
4 2 1 222.5000000475
0 60 4000 0 60 0 0 0 4000 0 0 0 0 0 0 -4000 60 0 60 -4000 1 2 4 4 3 1 
4 2 1 233.556250044869
50 0 4000 50 0 0 50 60 4000 50 60 0 0 0 0 -4000 60 0 60 -4000 1 2 4 4 3 1 
4 2 1 49.8590625094872
50 60 4000 0 60 4000 0 0 4000 50 0 4000 -50 0 0 0 0 60 -50 60 4 1 2 2 3 4 

TShapes 106
Ve
1e-07
0 0 4000
0 0

0101100
*
Ed
 1e-07 1 1 0
1  1 0 0 4000
6  1 2 0
6  2 1 0
0

0101000
+106 0 -106 1 *
Ve
1e-07
50 0 4000
0 0

0101100
*
Ed
 1e-07 1 1 0
1  2 0 0 4000
6  3 1 0
6  4 3 0
0

0101000
+104 0 -104 1 *
Ed
 1e-07 1 1 0
1  3 0 0 50
6  5 1 2
6  6 1 0
6  7 4 0
0

0101000
+106 0 -104 0 *
Wi

0101000
+105 0 -103 0 -102 0 +102 1 *
Fa
0  1e-07 1 0
2  1
0111000
+101 0 *
Ve
2.00001e-07
0 60 3982
0 0

0101101
*
Ve
2.00001e-07
0 57 3982
0 0

0101101
*
Ed
 1e-07 1 1 0
1  4 0 0.5 3.5
2  1 2 0 0.5 3.5
2  2 3 0 0.5 3.5
0

0101000
+99 0 -98 0 *
Ve
2.00001e-07
0 57 3985
0 0

0101101
*
Ed
 1e-07 1 1 0
1  5 0 -9 -6
2  3 2 0 -9 -6
2  4 4 0 -9 -6
0

0101000
+98 0 -96 0 *
Ve
2.00001e-07
0 48 3997
0 0

0101101
*
Ed
 1e-07 1 1 0
1  6 0 -5.09999999999994 9.90000000000006
2  5 2 0 -5.09999999999994 9.90000000000006
2  6 5 0 -5.09999999999994 9.90000000000006
0

0101000
+96 0 -94 0 *
Ve
2.00001e-07
0 45 3997
0 0

0101101
*
Ed
 1e-07 1 1 0
1  7 0 6 9
2  7 2 0 6 9
2  8 6 0 6 9
0

0101000
+94 0 -92 0 *
Ve
2.00001e-07
0 45 4000
0 0

0101101
*
Ed
 1e-07 1 1 0
1  8 0 -1.5 1.5
2  9 2 0 -1.5 1.5
2  10 7 0 -1.5 1.5
0

0101000
+92 0 -90 0 *
Ed
 1e-07 1 1 0
1  9 0 15 60
0

0101000
+90 0 -106 0 *
Ve
1e-07
0 60 4000
0 0

0101100
*
Ed
 1e-07 1 1 0
1  9 0 0 60
6  8 2 2
6  9 2 0
6  10 4 0
0

0101000
+87 0 -106 0 *
Ed
 1e-07 1 1 0
1  10 0 17.9999999999999 4000
0

0101000
+99 0 -87 1 *
Wi

0101000
-97 0 -95 0 -93 0 -91 0 -89 0 -88 0 -105 0 +86 1 +85 0 *
Fa
0  1e-07 2 0

0111000
+84 0 *
Ve
2.00001e-07
50 45 0
0 0

0101101
*
Ed
 1e-07 1 1 0
1  11 0 0 45
0

0101000
+104 0 -82 2 *
Ve
1e-07
50 45 3997
0 0

0101101
*
Ed
 1e-07 1 1 0
1  12 0 -4000 -3
2  11 8 0 -4000 -3
2  12 9 0 -4000 -3
0

0101000
+82 0 -80 0 *
Ve
2.00001e-07
50 45 4000
0 0

0101101
*
Ed
 1e-07 1 1 0
1  11 0 0 45
0

0101000
+104 0 -78 0 *
Ed
 1e-07 1 1 0
1  12 0 -3 0
2  11 8 0 -3 0
2  12 9 0 -3 0
0

0101000
+80 0 -78 0 *
Wi

0101000
+81 1 +103 0 +79 0 -77 0 +76 0 *
Fa
0  1e-07 8 0

0111000
+75 0 *
Ve
2.00001e-07
47 45 4000
0 0

0101101
*
Ed
 1e-07 1 1 0
1  13 0 -25 22
2  13 10 0 -25 22
2  14 7 0 -25 22
0

0101000
+90 0 -73 0 *
Ed
 1e-07 1 1 0
1  14 0 -26.5 -23.5
2  15 10 0 -26.5 -23.5
2  16 9 0 -26.5 -23.5
0

0101000
+78 0 -73 0 *
Wi

0101000
-72 0 +71 0 +77 0 +102 0 +88 0 *
Fa
0  1e-07 10 0

0111000
+70 0 *
Ve
2.00001e-07
35 57 0
0 0

0101101
*
Ve
2.00001e-07
32 57 0
0 0

0101101
*
Ed
 1e-07 1 1 0
1  15 0 -19 -16
2  17 10 1 -19 -16
2  18 11 0 -19 -16
0

0101000
+68 0 -67 0 *
Ve
2.00001e-07
47 48 0
0 0

0101101
*
Ed
 1e-07 1 1 0
1  16 0 -29.9 -14.9
2  19 10 1 -29.9 -14.9
2  20 12 0 -29.9 -14.9
0

0101000
+65 0 -68 0 *
Ve
2.00001e-07
47 45 0
0 0

0101101
*
Ed
 1e-07 1 1 0
1  17 0 -9 -6
2  21 10 1 -9 -6
2  22 13 0 -9 -6
0

0101000
+63 0 -65 0 *
Ed
 1e-07 1 1 0
1  18 0 -26.5 -23.5
2  23 10 1 -26.5 -23.5
2  24 9 0 -26.5 -23.5
0

0101000
+82 0 -63 0 *
Ve
2.00001e-07
32 60 0
0 0

0101101
*
Ed
 1e-07 1 1 0
1  19 0 18 50
0

0101000
+60 2 -87 0 *
Ed
 1e-07 1 1 0
1  20 0 -3.5 -0.5
2  25 10 1 -3.5 -0.5
2  26 14 0 -3.5 -0.5
0

0101000
+67 0 -60 0 *
Wi

0101000
+66 0 +64 0 +62 0 +61 0 +81 1 +102 1 +86 1 +59 1 +58 0 *
Fa
0  1e-07 10 1

0111000
+57 0 *
Ve
1e-07
32 57 3982
0 0

0101101
*
Ed
 1e-07 1 1 0
1  21 0 18 50
2  27 3 0 18 50
2  28 4 0 18 50
0

0101000
+55 0 -98 0 *
Ve
2.00001e-07
32 60 3982
0 0

0101101
*
Ed
 1e-07 1 1 0
1  22 0 -4 -1
2  29 14 0 -4 -1
2  30 3 0 -4 -1
0

0101000
+55 0 -53 0 *
Ed
 1e-07 1 1 0
1  23 0 18 50
2  31 15 0 18 50
2  32 3 0 18 50
0

0101000
+53 0 -99 0 *
Wi

0101000
-97 0 +54 0 -52 0 -51 0 *
Fa
0  1e-07 3 0

0111000
+50 0 *
Ve
1e-07
32 57 3985
0 0

0101101
*
Ed
 1e-07 1 1 0
1  24 0 18 50
2  33 4 0 18 50
2  34 5 0 18 50
0

0101000
+48 0 -96 0 *
Ed
 1e-07 1 1 0
1  25 0 15 18
2  35 14 0 15 18
2  36 11 0 15 18
0

0101000
+48 0 -55 0 *
Wi

0101000
-95 0 +47 0 -46 0 -54 0 *
Fa
0  1e-07 4 0

0111000
+45 0 *
Ve
1e-07
47 48 3997
0 0

0101101
*
Ed
 1e-07 1 1 0
1  26 0 3 50
2  37 5 0 3 50
2  38 6 0 3 50
0

0101000
+43 0 -94 0 *
Ve
1e-07
35 57 3985
0 0

0101101
*
Ed
 1e-07 1 1 0
1  27 0 -9.83894699898205 9.37042571331637
2  39 12 0 -9.83894699898205 9.37042571331637
2  40 5 0 -9.83894699898205 9.37042571331637
0

0101000
+43 0 -41 0 *
Ed
 1e-07 1 1 0
1  24 0 15 18
2  33 4 0 15 18
2  34 5 0 15 18
0

0101000
+41 0 -48 0 *
Wi

0101000
-93 0 +42 0 -40 0 -39 0 -47 0 *
Fa
0  1e-07 5 0

0111000
+38 0 *
Ve
1e-07
47 45 3997
0 0

0101101
*
Ed
 1e-07 1 1 0
1  28 0 3 50
2  41 6 0 3 50
2  42 7 0 3 50
0

0101000
+36 0 -92 0 *
Ed
 1e-07 1 1 0
1  29 0 -3 0
2  43 13 0 -3 0
2  44 6 0 -3 0
0

0101000
+36 0 -43 0 *
Wi

0101000
-91 0 +35 0 -34 0 -42 0 *
Fa
0  1e-07 6 0

0111000
+33 0 *
Ed
 1e-07 1 1 0
1  30 0 1.43824424594907e-13 3
2  45 13 0 1.43824424594907e-13 3
2  46 9 0 1.43824424594907e-13 3
0

0101000
+73 0 -36 0 *
Wi

0101000
-89 0 -72 0 -31 0 -35 0 *
Fa
0  1e-07 7 0

0111000
+30 0 *
Ed
 1e-07 1 1 0
1  31 0 18.0000000000001 4000
2  47 15 0 18.0000000000001 4000
2  48 14 0 18.0000000000001 4000
0

0101000
+53 0 -60 0 *
Wi

0101000
-51 0 -85 0 +59 1 +28 0 *
Fa
0  1e-07 15 0

0111000
+27 0 *
Ed
 1e-07 1 1 0
1  28 0 0 3
2  41 6 0 0 3
2  42 7 0 0 3
0

0101000
+80 0 -36 0 *
Ed
 1e-07 1 1 0
1  30 0 3 4000
2  45 13 0 3 4000
2  46 9 0 3 4000
0

0101000
+36 0 -63 0 *
Wi

0101000
-79 0 -25 0 -24 0 +61 0 *
Fa
0  1e-07 9 0

0111000
+23 0 *
Wi

0101000
-76 0 -71 0 -31 0 +25 0 *
Fa
0  1e-07 9 0

0111000
+21 0 *
Ve
1e-07
35 57 3982
0 0

0101101
*
Ed
 1e-07 1 1 0
1  21 0 15 18
2  27 3 0 15 18
2  28 4 0 15 18
0

0101000
+19 0 -55 0 *
Ed
 1e-07 1 1 0
1  25 0 18 4000
2  35 14 0 18 4000
2  36 11 0 18 4000
0

0101000
+55 0 -67 0 *
Ed
 1e-07 1 1 0
1  32 0 18 4000
2  49 11 0 18 4000
2  50 12 0 18 4000
0

0101000
+19 0 -68 0 *
Wi

0101000
-18 0 -17 0 +66 0 +16 0 *
Fa
0  1e-07 11 0

0111000
+15 0 *
Ed
 1e-07 1 1 0
1  32 0 15 18
2  49 11 0 15 18
2  50 12 0 15 18
0

0101000
+41 0 -19 0 *
Ed
 1e-07 1 1 0
1  33 0 3 4000
2  51 12 0 3 4000
2  52 13 0 3 4000
0

0101000
+43 0 -65 0 *
Wi

0101000
-40 0 -13 0 -16 0 +64 0 +12 0 *
Fa
0  1e-07 12 0

0111000
+11 0 *
Wi

0101000
-34 0 -12 0 +62 0 +24 0 *
Fa
0  1e-07 13 0

0111000
+9 0 *
Wi

0101000
-52 0 -28 0 +58 0 +17 0 *
Fa
0  1e-07 14 0

0111000
+7 0 *
Wi

0101000
-39 0 -46 0 +18 0 +13 0 *
Fa
0  1e-07 11 0

0111000
+5 0 *
Sh

0101000
+100 0 +83 0 +74 0 +69 0 -56 0 -49 0 -44 0 -37 0 -32 0 -29 0 
+26 0 +22 0 +20 0 +14 0 +10 0 +8 0 +6 0 +4 0 *
So

0100000
+3 0 *
Co

1100000
+2 0 *

+1 0 
0

