DBRep_DrawableShape

CASCADE Topology V1, (c) Matra-Datavision
Locations 0
Curve2ds 4
7 0 0  1 2 2  0 0  0 1 
 0 2 1 2
7 0 0  1 2 2  0 0  1 0 
 0 2 1 2
7 0 0  1 2 2  1 0  1 1 
 0 2 1 2
7 0 0  1 2 2  0 1  1 1 
 0 2 1 2
Curves 4
7 0 0  1 2 2  1681.9907907215754 74.584326121513456 1778.4476488742023  1755.7569043832411 73.122737857402811 1762.9726373510969 
 0 2 1 2
7 0 0  1 2 2  1681.9907907215752 74.584326121513413 1778.4476488742023  1693.8085387845306 774.41643535101457 1768.6824186102306 
 0 2 1 2
7 0 0  1 2 2  1693.8085387845308 774.41643535101457 1768.6824186102306  1767.5746524461963 772.95484708690356 1753.2074070871251 
 0 2 1 2
7 0 0  1 2 2  1755.7569043832411 73.12273785740291 1762.9726373510969  1767.5746524461963 772.95484708690356 1753.2074070871251 
 0 2 1 2
Polygon3D 0
PolygonOnTriangulations 0
Surfaces 1
9 0 0 0 0 1 1 2 2 2 2 1681.9907907215754 74.584326121513456 1778.4476488742023  1755.7569043832411 73.122737857402811 1762.9726373510969  
1693.8085387845308 774.41643535101457 1768.6824186102306  1767.5746524461963 772.95484708690367 1753.2074070871251  

0 2
1 2

0 2
1 2

Triangulations 0

TShapes 11
Ve
1e-07
1681.99079072158 74.5843261215134 1778.4476488742
0 0

0101100
*
Ve
1e-07
1755.75690438324 73.1227378574029 1762.9726373511
0 0

0101100
*
Ed
 1e-07 1 1 0
1  1 0 0 1
2  1 1 0 0 1
0

0101000
+11 0 -10 0 *
Ve
1e-07
1693.80853878453 774.416435351015 1768.68241861023
0 0

0101100
*
Ed
 1e-07 1 1 0
1  2 0 0 1
2  2 1 0 0 1
0

0101000
+11 0 -8 0 *
Ve
1e-07
1767.5746524462 772.954847086904 1753.20740708713
0 0

0101100
*
Ed
 1e-07 1 1 0
1  3 0 0 1
2  3 1 0 0 1
0

0101000
+8 0 -6 0 *
Ed
 1e-07 1 1 0
1  4 0 0 1
2  4 1 0 0 1
0

0101000
+10 0 -6 0 *
Wi

0101000
-9 0 +7 0 +5 0 -4 0 *
Fa
0  1e-07 1 0

0111000
+3 0 *
Sh

1101000
+2 0 *

+1 0 
0

