DBRep_DrawableShape

CASCADE Topology V1, (c) Matra-Datavision
Locations 1
1
              1               0               0               5 
              0               1               0               5 
              0               0               1               5 
Curve2ds 4
1 0 1.5707963267948966 1 0 
1 6.2831853071795862 -6.2831853071795862 0 1 
1 0 -6.2831853071795862 0 1 
1 0 -1.5707963267948966 1 0 
Curves 1
2 0 0 0 -2.4492935982947064e-16 -1 0 1 -2.4492935982947064e-16 0 0 0 1 1
Polygon3D 0
PolygonOnTriangulations 4
2 1 2 
p 0.00886591416023392 1 0 6.28318530717959 
19 3 4 5 6 7 8 9 10 11 12 13 14 15 16 17 18 19 20 2 
p 0.00886591416023392 1 4.71238898038469 4.88692190558412 5.06145483078356 5.23598775598299 5.41052068118242 5.58505360638185 5.75958653158129 5.93411945678072 6.10865238198015 6.28318530717958 6.45771823237902 6.63225115757845 6.80678408277788 6.98131700797732 7.15584993317675 7.33038285837618 7.50491578357561 7.67944870877505 7.85398163397448 
19 21 22 23 24 25 26 27 28 29 30 31 32 33 34 35 36 37 38 1 
p 0.00886591416023392 1 4.71238898038469 4.88692190558412 5.06145483078356 5.23598775598299 5.41052068118242 5.58505360638185 5.75958653158129 5.93411945678072 6.10865238198015 6.28318530717958 6.45771823237902 6.63225115757845 6.80678408277788 6.98131700797732 7.15584993317675 7.33038285837618 7.50491578357561 7.67944870877505 7.85398163397448 
2 21 3 
p 0.00886591416023392 1 0 6.28318530717959 
Surfaces 1
4 0 0 0 0 0 1 1 0 -0 -0 1 0 1
Triangulations 1
440 840 1 0.00886591416023392
0 0 1 0 0 1 0 0 -1 0.17364817766693 0 -0.984807753012208 0.342020143325668 0 -0.939692620785909 0.499999999999999 0 -0.866025403784439 0.642787609686539 0 -0.766044443118979 0.766044443118977 0 -0.642787609686541 0.866025403784437 0 -0.500000000000001 0.939692620785908 0 -0.34202014332567 0.984807753012208 0 -0.173648177666932 1 0 -1.77635683940025e-15 0.984807753012208 0 0.173648177666928 0.939692620785909 0 0.342020143325667 0.86602540378444 0 0.499999999999997 0.76604444311898 0 0.642787609686537 0.642787609686541 0 0.766044443118976 0.500000000000003 0 0.866025403784437 0.342020143325672 0 0.939692620785907 0.173648177666934 0 0.984807753012207 0 0 -1 0.17364817766693 0 -0.984807753012208 0.342020143325668 0 -0.939692620785909 0.499999999999999 0 -0.866025403784439 0.642787609686539 0 -0.766044443118979 0.766044443118977 0 -0.642787609686541 0.866025403784437 0 -0.500000000000001 0.939692620785908 0 -0.34202014332567 0.984807753012208 0 -0.173648177666932 1 0 -1.77635683940025e-15 0.984807753012208 0 0.173648177666928 0.939692620785909 0 0.342020143325667 0.86602540378444 0 0.499999999999997 0.76604444311898 0 0.642787609686537 0.642787609686541 0 0.766044443118976 0.500000000000003 0 0.866025403784437 0.342020143325672 0 0.939692620785907 0.173648177666934 0 0.984807753012207 0.176306371250051 0.0517682214728419 -0.982973099683901 0.120330344099451 0.138868619877673 -0.982973099683901 0.0261502829108595 0.181879212670124 -0.982973099683901 -0.0763323083328613 0.167144440536918 -0.982973099683901 -0.154579931019216 0.0993424895194224 -0.982973099683901 -0.183749517816571 0 -0.982973099683901 -0.154579931019216 -0.0993424895194224 -0.982973099683901 -0.0763323083328613 -0.167144440536918 -0.982973099683901 0.0261502829108595 -0.181879212670124 -0.982973099683901 0.120330344099451 -0.138868619877673 -0.982973099683901 0.176306371250051 -0.0517682214728428 -0.982973099683901 0.336847821823278 0.130495541389671 -0.932472229404356 0.266960812583955 0.243366936813909 -0.932472229404356 0.161019266324239 0.323370278878678 -0.932472229404356 0.0333311759088781 0.35970067292431 -0.932472229404356 -0.0988584745073977 0.347451497921279 -0.932472229404356 -0.217696740147732 0.288277072828766 -0.932472229404356 -0.307133854731834 0.190169231652323 -0.932472229404356 -0.355090840346963 0.0663779819771442 -0.932472229404356 -0.355090840346963 -0.0663779819771433 -0.932472229404356 -0.307133854731835 -0.190169231652322 -0.932472229404356 -0.217696740147732 -0.288277072828765 -0.932472229404356 -0.0988584745073977 -0.347451497921279 -0.932472229404356 0.0333311759088781 -0.35970067292431 -0.932472229404356 0.161019266324238 -0.323370278878679 -0.932472229404356 0.266960812583954 -0.243366936813909 -0.932472229404356 0.336847821823278 -0.130495541389671 -0.932472229404356 0.521073842511762 0.0749191081217466 -0.850217135729614 0.478859538736923 0.218687823786308 -0.850217135729614 0.397850883020953 0.344739752554269 -0.850217135729614 0.284610714872932 0.442862916816535 -0.850217135729614 0.148313079251001 0.505107961365505 -0.850217135729614 0 0.526432162877356 -0.850217135729614 -0.148313079251001 0.505107961365505 -0.850217135729614 -0.284610714872932 0.442862916816535 -0.850217135729614 -0.397850883020953 0.344739752554269 -0.850217135729614 -0.478859538736923 0.218687823786308 -0.850217135729614 -0.521073842511762 0.0749191081217466 -0.850217135729614 -0.521073842511762 -0.0749191081217466 -0.850217135729614 -0.478859538736924 -0.218687823786308 -0.850217135729614 -0.397850883020953 -0.344739752554268 -0.850217135729614 -0.284610714872932 -0.442862916816535 -0.850217135729614 -0.148313079251002 -0.505107961365505 -0.850217135729614 -8.88178419700125e-16 -0.526432162877356 -0.850217135729614 0.148313079251 -0.505107961365505 -0.850217135729614 0.284610714872931 -0.442862916816535 -0.850217135729614 0.397850883020952 -0.344739752554269 -0.850217135729614 0.478859538736923 -0.218687823786309 -0.850217135729614 0.521073842511762 -0.0749191081217475 -0.850217135729614 0.654119272634202 0.16122592048691 -0.73900891722066 0.596527867123162 0.313081976507497 -0.73900891722066 0.504268430265496 0.446742846060149 -0.73900891722066 0.382702745181964 0.554440645243958 -0.73900891722066 0.238895767616336 0.629916369435936 -0.73900891722066 0.0812050363876295 0.668783643889137 -0.73900891722066 -0.0812050363876287 0.668783643889137 -0.73900891722066 -0.238895767616335 0.629916369435936 -0.73900891722066 -0.382702745181964 0.554440645243959 -0.73900891722066 -0.504268430265496 0.446742846060149 -0.73900891722066 -0.596527867123162 0.313081976507497 -0.73900891722066 -0.654119272634202 0.16122592048691 -0.73900891722066 -0.673695643646557 8.88178419700125e-16 -0.73900891722066 -0.654119272634202 -0.161225920486909 -0.73900891722066 -0.596527867123162 -0.313081976507496 -0.73900891722066 -0.504268430265497 -0.446742846060148 -0.73900891722066 -0.382702745181965 -0.554440645243958 -0.73900891722066 -0.238895767616337 -0.629916369435936 -0.73900891722066 -0.0812050363876304 -0.668783643889137 -0.73900891722066 0.0812050363876278 -0.668783643889138 -0.73900891722066 0.238895767616334 -0.629916369435937 -0.73900891722066 0.382702745181962 -0.55444064524396 -0.73900891722066 0.504268430265494 -0.44674284606015 -0.73900891722066 0.596527867123161 -0.313081976507498 -0.73900891722066 0.654119272634201 -0.161225920486912 -0.73900891722066 0.793339216102363 0.0862808392989347 -0.602634636379257 0.756243556090626 0.254808121745453 -0.602634636379257 0.683786787900435 0.41142085961804 -0.602634636379257 0.57935690948245 0.54879601535633 -0.602634636379257 0.447836945886023 0.660510079359521 -0.602634636379257 0.295376624434981 0.741339426156088 -0.602634636379257 0.129104820312898 0.78750456532519 -0.602634636379257 -0.0432037817173132 0.796846866268146 -0.602634636379257 -0.213492222931978 0.768929493376086 -0.602634636379257 -0.373798005081907 0.705057831977511 -0.602634636379257 -0.51662540796085 0.608218449971165 -0.602634636379257 -0.635295980951444 0.482939449230424 -0.602634636379257 -0.724260819953517 0.335078736592313 -0.602634636379257 -0.77936002797265 0.171550114644413 -0.602634636379257 -0.79801722728024 -8.88178419700125e-16 -0.602634636379257 -0.77936002797265 -0.171550114644415 -0.602634636379257 -0.724260819953517 -0.335078736592314 -0.602634636379257 -0.635295980951443 -0.482939449230424 -0.602634636379257 -0.516625407960849 -0.608218449971166 -0.602634636379257 -0.373798005081906 -0.705057831977511 -0.602634636379257 -0.213492222931977 -0.768929493376086 -0.602634636379257 -0.0432037817173123 -0.796846866268146 -0.602634636379257 0.129104820312899 -0.78750456532519 -0.602634636379257 0.295376624434982 -0.741339426156087 -0.602634636379257 0.447836945886024 -0.66051007935952 -0.602634636379257 0.579356909482451 -0.548796015356329 -0.602634636379257 0.683786787900436 -0.411420859618039 -0.602634636379257 0.756243556090626 -0.254808121745451 -0.602634636379257 0.793339216102364 -0.0862808392989338 -0.602634636379257 0.877962979718354 0.174637694767476 -0.445738355776538 0.82702304313838 0.342564160862986 -0.445738355776538 0.744301074810464 0.497326078368726 -0.445738355776538 0.632976033586433 0.632976033586433 -0.445738355776538 0.497326078368726 0.744301074810464 -0.445738355776538 0.342564160862986 0.82702304313838 -0.445738355776538 0.174637694767476 0.877962979718354 -0.445738355776538 0 0.895163291355062 -0.445738355776538 -0.174637694767476 0.877962979718354 -0.445738355776538 -0.342564160862986 0.82702304313838 -0.445738355776538 -0.497326078368726 0.744301074810464 -0.445738355776538 -0.632976033586433 0.632976033586433 -0.445738355776538 -0.744301074810464 0.497326078368726 -0.445738355776538 -0.82702304313838 0.342564160862985 -0.445738355776538 -0.877962979718354 0.174637694767476 -0.445738355776538 -0.895163291355062 -8.88178419700125e-16 -0.445738355776538 -0.877962979718353 -0.174637694767477 -0.445738355776538 -0.82702304313838 -0.342564160862987 -0.445738355776538 -0.744301074810464 -0.497326078368727 -0.445738355776538 -0.632976033586433 -0.632976033586434 -0.445738355776538 -0.497326078368725 -0.744301074810465 -0.445738355776538 -0.342564160862985 -0.82702304313838 -0.445738355776538 -0.174637694767474 -0.877962979718354 -0.445738355776538 2.66453525910038e-15 -0.895163291355062 -0.445738355776538 0.174637694767479 -0.877962979718353 -0.445738355776538 0.342564160862988 -0.827023043138379 -0.445738355776538 0.497326078368729 -0.744301074810462 -0.445738355776538 0.632976033586436 -0.632976033586432 -0.445738355776538 0.744301074810465 -0.497326078368723 -0.445738355776538 0.82702304313838 -0.342564160862983 -0.445738355776538 0.877962979718354 -0.174637694767473 -0.445738355776538 0.957722664544129 0.0887460741852912 -0.273662990072083 0.925108567864807 0.263216081438678 -0.273662990072083 0.860991008452281 0.428722580731564 -0.273662990072083 0.767553432891806 0.579629446733696 -0.273662990072083 0.647977745753076 0.710797727116209 -0.273662990072083 0.506335953646371 0.817760643409688 -0.273662990072083 0.347451497921279 0.896875701787637 -0.273662990072083 0.176734998156618 0.945448733825049 -0.273662990072083 0 0.961825643172819 -0.273662990072083 -0.176734998156618 0.945448733825049 -0.273662990072083 -0.347451497921279 0.896875701787637 -0.273662990072083 -0.506335953646371 0.817760643409688 -0.273662990072083 -0.647977745753076 0.710797727116209 -0.273662990072083 -0.767553432891805 0.579629446733697 -0.273662990072083 -0.86099100845228 0.428722580731565 -0.273662990072083 -0.925108567864807 0.263216081438679 -0.273662990072083 -0.957722664544129 0.0887460741852921 -0.273662990072083 -0.957722664544129 -0.0887460741852903 -0.273662990072083 -0.925108567864807 -0.263216081438677 -0.273662990072083 -0.860991008452281 -0.428722580731563 -0.273662990072083 -0.767553432891806 -0.579629446733695 -0.273662990072083 -0.647977745753077 -0.710797727116208 -0.273662990072083 -0.506335953646372 -0.817760643409687 -0.273662990072083 -0.34745149792128 -0.896875701787637 -0.273662990072083 -0.176734998156618 -0.945448733825049 -0.273662990072083 0 -0.961825643172819 -0.273662990072083 0.176734998156618 -0.945448733825049 -0.273662990072083 0.34745149792128 -0.896875701787637 -0.273662990072083 0.506335953646372 -0.817760643409688 -0.273662990072083 0.647977745753077 -0.710797727116208 -0.273662990072083 0.767553432891807 -0.579629446733695 -0.273662990072083 0.860991008452281 -0.428722580731562 -0.273662990072083 0.925108567864807 -0.263216081438676 -0.273662990072083 0.957722664544129 -0.0887460741852886 -0.273662990072083 0.978779909733927 0.182965674767693 -0.0922683594633025 0.928494467263941 0.35970067292431 -0.0922683594633025 0.846590259317651 0.524186496077897 -0.0922683594633025 0.735856435463399 0.670821776799958 -0.0922683594633025 0.600063903261956 0.794613026475137 -0.0922683594633025 0.443836914532254 0.891344682566985 -0.0922683594633025 0.272495592001862 0.957722664544129 -0.0922683594633025 0.0918747589082853 0.991486549841951 -0.0922683594633025 -0.0918747589082844 0.991486549841951 -0.0922683594633025 -0.272495592001861 0.957722664544129 -0.0922683594633025 -0.443836914532254 0.891344682566985 -0.0922683594633025 -0.600063903261956 0.794613026475137 -0.0922683594633025 -0.735856435463398 0.670821776799958 -0.0922683594633025 -0.846590259317651 0.524186496077898 -0.0922683594633025 -0.92849446726394 0.359700672924311 -0.0922683594633025 -0.978779909733927 0.182965674767694 -0.0922683594633025 -0.995734176295034 8.88178419700125e-16 -0.0922683594633025 -0.978779909733927 -0.182965674767692 -0.0922683594633025 -0.928494467263941 -0.359700672924309 -0.0922683594633025 -0.846590259317652 -0.524186496077896 -0.0922683594633025 -0.735856435463399 -0.670821776799957 -0.0922683594633025 -0.600063903261957 -0.794613026475136 -0.0922683594633025 -0.443836914532255 -0.891344682566984 -0.0922683594633025 -0.272495592001862 -0.957722664544129 -0.0922683594633025 -0.0918747589082853 -0.991486549841951 -0.0922683594633025 0.0918747589082853 -0.991486549841951 -0.0922683594633025 0.272495592001862 -0.957722664544129 -0.0922683594633025 0.443836914532255 -0.891344682566984 -0.0922683594633025 0.600063903261958 -0.794613026475136 -0.0922683594633025 0.7358564354634 -0.670821776799956 -0.0922683594633025 0.846590259317652 -0.524186496077895 -0.0922683594633025 0.928494467263942 -0.359700672924308 -0.0922683594633025 0.978779909733928 -0.182965674767689 -0.0922683594633025 0.991486549841951 0.0918747589082853 0.0922683594633016 0.957722664544129 0.272495592001862 0.0922683594633016 0.891344682566985 0.443836914532254 0.0922683594633016 0.794613026475137 0.600063903261956 0.0922683594633016 0.670821776799958 0.735856435463399 0.0922683594633016 0.524186496077897 0.846590259317651 0.0922683594633016 0.359700672924311 0.928494467263941 0.0922683594633016 0.182965674767693 0.978779909733927 0.0922683594633016 0 0.995734176295034 0.0922683594633016 -0.182965674767692 0.978779909733927 0.0922683594633016 -0.35970067292431 0.928494467263941 0.0922683594633016 -0.524186496077897 0.846590259317651 0.0922683594633016 -0.670821776799958 0.735856435463399 0.0922683594633016 -0.794613026475137 0.600063903261957 0.0922683594633016 -0.891344682566984 0.443836914532255 0.0922683594633016 -0.957722664544129 0.272495592001862 0.0922683594633016 -0.991486549841951 0.0918747589082862 0.0922683594633016 -0.991486549841951 -0.0918747589082844 0.0922683594633016 -0.957722664544129 -0.272495592001861 0.0922683594633016 -0.891344682566985 -0.443836914532254 0.0922683594633016 -0.794613026475138 -0.600063903261955 0.0922683594633016 -0.670821776799959 -0.735856435463398 0.0922683594633016 -0.524186496077898 -0.84659025931765 0.0922683594633016 -0.359700672924311 -0.92849446726394 0.0922683594633016 -0.182965674767693 -0.978779909733927 0.0922683594633016 0 -0.995734176295034 0.0922683594633016 0.182965674767693 -0.978779909733927 0.0922683594633016 0.359700672924311 -0.92849446726394 0.0922683594633016 0.524186496077898 -0.846590259317651 0.0922683594633016 0.670821776799959 -0.735856435463398 0.0922683594633016 0.794613026475138 -0.600063903261955 0.0922683594633016 0.891344682566986 -0.443836914532253 0.0922683594633016 0.957722664544129 -0.272495592001859 0.0922683594633016 0.991486549841952 -0.0918747589082827 0.0922683594633016 0.945448733825049 0.176734998156618 0.273662990072083 0.896875701787637 0.347451497921279 0.273662990072083 0.817760643409688 0.506335953646371 0.273662990072083 0.710797727116209 0.647977745753076 0.273662990072083 0.579629446733696 0.767553432891806 0.273662990072083 0.428722580731564 0.860991008452281 0.273662990072083 0.263216081438678 0.925108567864807 0.273662990072083 0.0887460741852912 0.957722664544129 0.273662990072083 -0.0887460741852912 0.957722664544129 0.273662990072083 -0.263216081438678 0.925108567864807 0.273662990072083 -0.428722580731564 0.860991008452281 0.273662990072083 -0.579629446733696 0.767553432891806 0.273662990072083 -0.710797727116208 0.647977745753077 0.273662990072083 -0.817760643409688 0.506335953646372 0.273662990072083 -0.896875701787637 0.34745149792128 0.273662990072083 -0.945448733825049 0.176734998156619 0.273662990072083 -0.961825643172819 8.88178419700125e-16 0.273662990072083 -0.945448733825049 -0.176734998156618 0.273662990072083 -0.896875701787637 -0.347451497921278 0.273662990072083 -0.817760643409689 -0.50633595364637 0.273662990072083 -0.71079772711621 -0.647977745753075 0.273662990072083 -0.579629446733697 -0.767553432891805 0.273662990072083 -0.428722580731565 -0.86099100845228 0.273662990072083 -0.263216081438678 -0.925108567864807 0.273662990072083 -0.0887460741852912 -0.957722664544129 0.273662990072083 0.0887460741852921 -0.957722664544129 0.273662990072083 0.263216081438679 -0.925108567864807 0.273662990072083 0.428722580731565 -0.86099100845228 0.273662990072083 0.579629446733698 -0.767553432891805 0.273662990072083 0.71079772711621 -0.647977745753075 0.273662990072083 0.81776064340969 -0.506335953646369 0.273662990072083 0.896875701787638 -0.347451497921277 0.273662990072083 0.945448733825049 -0.176734998156616 0.273662990072083 0.890852835434172 0.0877413459466201 0.445738355776538 0.856617860564462 0.259852187121046 0.445738355776538 0.789463541710091 0.421977054471196 0.445738355776538 0.691970581684057 0.567885580265476 0.445738355776538 0.567885580265476 0.691970581684057 0.445738355776538 0.421977054471196 0.789463541710091 0.445738355776538 0.259852187121046 0.856617860564462 0.445738355776538 0.087741345946621 0.890852835434172 0.445738355776538 -0.0877413459466201 0.890852835434172 0.445738355776538 -0.259852187121046 0.856617860564462 0.445738355776538 -0.421977054471196 0.789463541710091 0.445738355776538 -0.567885580265476 0.691970581684056 0.445738355776538 -0.691970581684057 0.567885580265476 0.445738355776538 -0.789463541710091 0.421977054471196 0.445738355776538 -0.856617860564462 0.259852187121046 0.445738355776538 -0.890852835434172 0.0877413459466192 0.445738355776538 -0.890852835434171 -0.0877413459466219 0.445738355776538 -0.856617860564462 -0.259852187121048 0.445738355776538 -0.789463541710091 -0.421977054471197 0.445738355776538 -0.691970581684055 -0.567885580265478 0.445738355776538 -0.567885580265475 -0.691970581684058 0.445738355776538 -0.421977054471194 -0.789463541710092 0.445738355776538 -0.259852187121044 -0.856617860564463 0.445738355776538 -0.0877413459466183 -0.890852835434172 0.445738355776538 0.0877413459466228 -0.890852835434171 0.445738355776538 0.25985218712105 -0.856617860564461 0.445738355776538 0.421977054471199 -0.78946354171009 0.445738355776538 0.567885580265479 -0.691970581684054 0.445738355776538 0.691970581684059 -0.567885580265473 0.445738355776538 0.789463541710093 -0.421977054471193 0.445738355776538 0.856617860564464 -0.259852187121043 0.445738355776538 0.890852835434172 -0.0877413459466165 0.445738355776538 0.77936002797265 0.171550114644414 0.602634636379256 0.724260819953517 0.335078736592314 0.602634636379256 0.635295980951444 0.482939449230424 0.602634636379256 0.516625407960849 0.608218449971165 0.602634636379256 0.373798005081907 0.705057831977511 0.602634636379256 0.213492222931978 0.768929493376086 0.602634636379256 0.0432037817173132 0.796846866268146 0.602634636379256 -0.129104820312898 0.78750456532519 0.602634636379256 -0.295376624434981 0.741339426156088 0.602634636379256 -0.447836945886023 0.660510079359521 0.602634636379256 -0.579356909482451 0.54879601535633 0.602634636379256 -0.683786787900435 0.41142085961804 0.602634636379256 -0.756243556090626 0.254808121745452 0.602634636379256 -0.793339216102364 0.0862808392989347 0.602634636379256 -0.793339216102363 -0.0862808392989356 0.602634636379256 -0.756243556090626 -0.254808121745453 0.602634636379256 -0.683786787900435 -0.41142085961804 0.602634636379256 -0.57935690948245 -0.548796015356331 0.602634636379256 -0.447836945886023 -0.660510079359521 0.602634636379256 -0.29537662443498 -0.741339426156088 0.602634636379256 -0.129104820312897 -0.78750456532519 0.602634636379256 0.0432037817173141 -0.796846866268146 0.602634636379256 0.213492222931979 -0.768929493376086 0.602634636379256 0.373798005081908 -0.705057831977511 0.602634636379256 0.51662540796085 -0.608218449971165 0.602634636379256 0.635295980951444 -0.482939449230423 0.602634636379256 0.724260819953518 -0.335078736592312 0.602634636379256 0.77936002797265 -0.171550114644413 0.602634636379256 0.668783643889138 0.0812050363876295 0.739008917220659 0.629916369435936 0.238895767616336 0.739008917220659 0.554440645243959 0.382702745181964 0.739008917220659 0.446742846060149 0.504268430265496 0.739008917220659 0.313081976507497 0.596527867123162 0.739008917220659 0.16122592048691 0.654119272634202 0.739008917220659 0 0.673695643646557 0.739008917220659 -0.16122592048691 0.654119272634202 0.739008917220659 -0.313081976507497 0.596527867123162 0.739008917220659 -0.446742846060149 0.504268430265496 0.739008917220659 -0.554440645243958 0.382702745181965 0.739008917220659 -0.629916369435936 0.238895767616336 0.739008917220659 -0.668783643889137 0.0812050363876295 0.739008917220659 -0.668783643889138 -0.0812050363876287 0.739008917220659 -0.629916369435937 -0.238895767616335 0.739008917220659 -0.554440645243959 -0.382702745181963 0.739008917220659 -0.446742846060149 -0.504268430265495 0.739008917220659 -0.313081976507497 -0.596527867123161 0.739008917220659 -0.161225920486911 -0.654119272634202 0.739008917220659 -8.88178419700125e-16 -0.673695643646557 0.739008917220659 0.161225920486908 -0.654119272634203 0.739008917220659 0.313081976507495 -0.596527867123163 0.739008917220659 0.446742846060147 -0.504268430265498 0.739008917220659 0.554440645243957 -0.382702745181966 0.739008917220659 0.629916369435936 -0.238895767616338 0.739008917220659 0.668783643889137 -0.0812050363876313 0.739008917220659 0.505107961365505 0.148313079251001 0.850217135729614 0.442862916816535 0.284610714872932 0.850217135729614 0.344739752554269 0.397850883020953 0.850217135729614 0.218687823786308 0.478859538736924 0.850217135729614 0.0749191081217466 0.521073842511762 0.850217135729614 -0.0749191081217466 0.521073842511762 0.850217135729614 -0.218687823786308 0.478859538736924 0.850217135729614 -0.344739752554269 0.397850883020953 0.850217135729614 -0.442862916816535 0.284610714872932 0.850217135729614 -0.505107961365505 0.148313079251001 0.850217135729614 -0.526432162877356 0 0.850217135729614 -0.505107961365506 -0.148313079251001 0.850217135729614 -0.442862916816535 -0.284610714872931 0.850217135729614 -0.344739752554269 -0.397850883020953 0.850217135729614 -0.218687823786309 -0.478859538736923 0.850217135729614 -0.0749191081217475 -0.521073842511762 0.850217135729614 0.0749191081217457 -0.521073842511763 0.850217135729614 0.218687823786308 -0.478859538736924 0.850217135729614 0.344739752554268 -0.397850883020954 0.850217135729614 0.442862916816535 -0.284610714872933 0.850217135729614 0.505107961365505 -0.148313079251002 0.850217135729614 0.355090840346963 0.0663779819771442 0.932472229404356 0.307133854731835 0.190169231652323 0.932472229404356 0.217696740147732 0.288277072828766 0.932472229404356 0.0988584745073977 0.34745149792128 0.932472229404356 -0.0333311759088781 0.35970067292431 0.932472229404356 -0.161019266324239 0.323370278878679 0.932472229404356 -0.266960812583955 0.243366936813909 0.932472229404356 -0.336847821823278 0.130495541389671 0.932472229404356 -0.361241666187153 0 0.932472229404356 -0.336847821823278 -0.130495541389671 0.932472229404356 -0.266960812583955 -0.243366936813908 0.932472229404356 -0.161019266324239 -0.323370278878679 0.932472229404356 -0.033331175908879 -0.35970067292431 0.932472229404356 0.0988584745073968 -0.34745149792128 0.932472229404356 0.217696740147732 -0.288277072828766 0.932472229404356 0.307133854731834 -0.190169231652323 0.932472229404356 0.355090840346963 -0.0663779819771442 0.932472229404356 0.154579931019216 0.0993424895194224 0.982973099683901 0.0763323083328613 0.167144440536918 0.982973099683901 -0.0261502829108595 0.181879212670124 0.982973099683901 -0.120330344099451 0.138868619877673 0.982973099683901 -0.176306371250051 0.0517682214728419 0.982973099683901 -0.176306371250051 -0.0517682214728419 0.982973099683901 -0.120330344099451 -0.138868619877673 0.982973099683901 -0.0261502829108595 -0.181879212670124 0.982973099683901 0.0763323083328613 -0.167144440536918 0.982973099683901 0.154579931019216 -0.0993424895194224 0.982973099683901 0 1.5707963267949 6.28318530717959 1.5707963267949 6.28318530717959 -1.5707963267949 6.28318530717959 -1.39626340159546 6.28318530717959 -1.22173047639603 6.28318530717959 -1.0471975511966 6.28318530717959 -0.872664625997166 6.28318530717959 -0.698131700797733 6.28318530717959 -0.5235987755983 6.28318530717959 -0.349065850398867 6.28318530717959 -0.174532925199435 6.28318530717959 -1.77635683940025e-15 6.28318530717959 0.174532925199431 6.28318530717959 0.349065850398864 6.28318530717959 0.523598775598296 6.28318530717959 0.698131700797729 6.28318530717959 0.872664625997162 6.28318530717959 1.04719755119659 6.28318530717959 1.22173047639603 6.28318530717959 1.39626340159546 0 -1.5707963267949 0 -1.39626340159546 0 -1.22173047639603 0 -1.0471975511966 0 -0.872664625997166 0 -0.698131700797733 0 -0.5235987755983 0 -0.349065850398867 0 -0.174532925199435 0 -1.77635683940025e-15 0 0.174532925199431 0 0.349065850398864 0 0.523598775598296 0 0.698131700797729 0 0.872664625997162 0 1.04719755119659 0 1.22173047639603 0 1.39626340159546 0.285599332144527 -1.38599675893667 0.85679799643358 -1.38599675893667 1.42799666072263 -1.38599675893667 1.99919532501169 -1.38599675893667 2.57039398930074 -1.38599675893667 3.14159265358979 -1.38599675893667 3.71279131787885 -1.38599675893667 4.2839899821679 -1.38599675893667 4.85518864645695 -1.38599675893667 5.42638731074601 -1.38599675893667 5.99758597503506 -1.38599675893667 0.369599135716446 -1.20119719107845 0.739198271432893 -1.20119719107845 1.10879740714934 -1.20119719107845 1.47839654286579 -1.20119719107845 1.84799567858223 -1.20119719107845 2.21759481429868 -1.20119719107845 2.58719395001512 -1.20119719107845 2.95679308573157 -1.20119719107845 3.32639222144802 -1.20119719107845 3.69599135716446 -1.20119719107845 4.06559049288091 -1.20119719107845 4.43518962859735 -1.20119719107845 4.8047887643138 -1.20119719107845 5.17438790003025 -1.20119719107845 5.54398703574669 -1.20119719107845 5.91358617146314 -1.20119719107845 0.142799666072263 -1.01639762322023 0.42839899821679 -1.01639762322023 0.713998330361317 -1.01639762322023 0.999597662505843 -1.01639762322023 1.28519699465037 -1.01639762322023 1.5707963267949 -1.01639762322023 1.85639565893942 -1.01639762322023 2.14199499108395 -1.01639762322023 2.42759432322848 -1.01639762322023 2.713193655373 -1.01639762322023 2.99879298751753 -1.01639762322023 3.28439231966206 -1.01639762322023 3.56999165180658 -1.01639762322023 3.85559098395111 -1.01639762322023 4.14119031609564 -1.01639762322023 4.42678964824016 -1.01639762322023 4.71238898038469 -1.01639762322023 4.99798831252922 -1.01639762322023 5.28358764467374 -1.01639762322023 5.56918697681827 -1.01639762322023 5.85478630896279 -1.01639762322023 6.14038564110732 -1.01639762322023 0.241660973353061 -0.831598055362004 0.483321946706122 -0.831598055362004 0.724982920059183 -0.831598055362004 0.966643893412244 -0.831598055362004 1.2083048667653 -0.831598055362004 1.44996584011837 -0.831598055362004 1.69162681347143 -0.831598055362004 1.93328778682449 -0.831598055362004 2.17494876017755 -0.831598055362004 2.41660973353061 -0.831598055362004 2.65827070688367 -0.831598055362004 2.89993168023673 -0.831598055362004 3.14159265358979 -0.831598055362004 3.38325362694285 -0.831598055362004 3.62491460029591 -0.831598055362004 3.86657557364897 -0.831598055362004 4.10823654700204 -0.831598055362004 4.3498975203551 -0.831598055362004 4.59155849370816 -0.831598055362004 4.83321946706122 -0.831598055362004 5.07488044041428 -0.831598055362004 5.31654141376734 -0.831598055362004 5.5582023871204 -0.831598055362004 5.79986336047346 -0.831598055362004 6.04152433382652 -0.831598055362004 0.108330781158269 -0.646798487503781 0.324992343474806 -0.646798487503781 0.541653905791344 -0.646798487503781 0.758315468107881 -0.646798487503781 0.974977030424419 -0.646798487503781 1.19163859274096 -0.646798487503781 1.40830015505749 -0.646798487503781 1.62496171737403 -0.646798487503781 1.84162327969057 -0.646798487503781 2.05828484200711 -0.646798487503781 2.27494640432364 -0.646798487503781 2.49160796664018 -0.646798487503781 2.70826952895672 -0.646798487503781 2.92493109127326 -0.646798487503781 3.14159265358979 -0.646798487503781 3.35825421590633 -0.646798487503781 3.57491577822287 -0.646798487503781 3.79157734053941 -0.646798487503781 4.00823890285594 -0.646798487503781 4.22490046517248 -0.646798487503781 4.44156202748902 -0.646798487503781 4.65822358980556 -0.646798487503781 4.87488515212209 -0.646798487503781 5.09154671443863 -0.646798487503781 5.30820827675517 -0.646798487503781 5.52486983907171 -0.646798487503781 5.74153140138824 -0.646798487503781 5.95819296370478 -0.646798487503781 6.17485452602132 -0.646798487503781 0.196349540849362 -0.461998919645558 0.392699081698724 -0.461998919645558 0.589048622548086 -0.461998919645558 0.785398163397448 -0.461998919645558 0.98174770424681 -0.461998919645558 1.17809724509617 -0.461998919645558 1.37444678594553 -0.461998919645558 1.5707963267949 -0.461998919645558 1.76714586764426 -0.461998919645558 1.96349540849362 -0.461998919645558 2.15984494934298 -0.461998919645558 2.35619449019234 -0.461998919645558 2.55254403104171 -0.461998919645558 2.74889357189107 -0.461998919645558 2.94524311274043 -0.461998919645558 3.14159265358979 -0.461998919645558 3.33794219443916 -0.461998919645558 3.53429173528852 -0.461998919645558 3.73064127613788 -0.461998919645558 3.92699081698724 -0.461998919645558 4.12334035783661 -0.461998919645558 4.31968989868597 -0.461998919645558 4.51603943953533 -0.461998919645558 4.71238898038469 -0.461998919645558 4.90873852123405 -0.461998919645558 5.10508806208342 -0.461998919645558 5.30143760293278 -0.461998919645558 5.49778714378214 -0.461998919645558 5.6941366846315 -0.461998919645558 5.89048622548087 -0.461998919645558 6.08683576633023 -0.461998919645558 0.0923997839291116 -0.277199351787335 0.277199351787335 -0.277199351787335 0.461998919645558 -0.277199351787335 0.646798487503781 -0.277199351787335 0.831598055362004 -0.277199351787335 1.01639762322023 -0.277199351787335 1.20119719107845 -0.277199351787335 1.38599675893667 -0.277199351787335 1.5707963267949 -0.277199351787335 1.75559589465312 -0.277199351787335 1.94039546251134 -0.277199351787335 2.12519503036957 -0.277199351787335 2.30999459822779 -0.277199351787335 2.49479416608601 -0.277199351787335 2.67959373394423 -0.277199351787335 2.86439330180246 -0.277199351787335 3.04919286966068 -0.277199351787335 3.2339924375189 -0.277199351787335 3.41879200537713 -0.277199351787335 3.60359157323535 -0.277199351787335 3.78839114109357 -0.277199351787335 3.9731907089518 -0.277199351787335 4.15799027681002 -0.277199351787335 4.34278984466824 -0.277199351787335 4.52758941252647 -0.277199351787335 4.71238898038469 -0.277199351787335 4.89718854824291 -0.277199351787335 5.08198811610114 -0.277199351787335 5.26678768395936 -0.277199351787335 5.45158725181758 -0.277199351787335 5.63638681967581 -0.277199351787335 5.82118638753403 -0.277199351787335 6.00598595539225 -0.277199351787335 6.19078552325048 -0.277199351787335 0.184799567858223 -0.0923997839291117 0.369599135716446 -0.0923997839291117 0.554398703574669 -0.0923997839291117 0.739198271432893 -0.0923997839291117 0.923997839291116 -0.0923997839291117 1.10879740714934 -0.0923997839291117 1.29359697500756 -0.0923997839291117 1.47839654286578 -0.0923997839291117 1.66319611072401 -0.0923997839291117 1.84799567858223 -0.0923997839291117 2.03279524644045 -0.0923997839291117 2.21759481429868 -0.0923997839291117 2.4023943821569 -0.0923997839291117 2.58719395001512 -0.0923997839291117 2.77199351787335 -0.0923997839291117 2.95679308573157 -0.0923997839291117 3.14159265358979 -0.0923997839291117 3.32639222144802 -0.0923997839291117 3.51119178930624 -0.0923997839291117 3.69599135716446 -0.0923997839291117 3.88079092502268 -0.0923997839291117 4.06559049288091 -0.0923997839291117 4.25039006073913 -0.0923997839291117 4.43518962859735 -0.0923997839291117 4.61998919645558 -0.0923997839291117 4.8047887643138 -0.0923997839291117 4.98958833217203 -0.0923997839291117 5.17438790003025 -0.0923997839291117 5.35918746788847 -0.0923997839291117 5.5439870357467 -0.0923997839291117 5.72878660360492 -0.0923997839291117 5.91358617146314 -0.0923997839291117 6.09838573932137 -0.0923997839291117 0.0923997839291116 0.0923997839291115 0.277199351787335 0.0923997839291115 0.461998919645558 0.0923997839291115 0.646798487503781 0.0923997839291115 0.831598055362004 0.0923997839291115 1.01639762322023 0.0923997839291115 1.20119719107845 0.0923997839291115 1.38599675893667 0.0923997839291115 1.5707963267949 0.0923997839291115 1.75559589465312 0.0923997839291115 1.94039546251134 0.0923997839291115 2.12519503036957 0.0923997839291115 2.30999459822779 0.0923997839291115 2.49479416608601 0.0923997839291115 2.67959373394423 0.0923997839291115 2.86439330180246 0.0923997839291115 3.04919286966068 0.0923997839291115 3.2339924375189 0.0923997839291115 3.41879200537713 0.0923997839291115 3.60359157323535 0.0923997839291115 3.78839114109357 0.0923997839291115 3.9731907089518 0.0923997839291115 4.15799027681002 0.0923997839291115 4.34278984466824 0.0923997839291115 4.52758941252647 0.0923997839291115 4.71238898038469 0.0923997839291115 4.89718854824291 0.0923997839291115 5.08198811610114 0.0923997839291115 5.26678768395936 0.0923997839291115 5.45158725181758 0.0923997839291115 5.63638681967581 0.0923997839291115 5.82118638753403 0.0923997839291115 6.00598595539225 0.0923997839291115 6.19078552325048 0.0923997839291115 0.184799567858223 0.277199351787335 0.369599135716446 0.277199351787335 0.554398703574669 0.277199351787335 0.739198271432893 0.277199351787335 0.923997839291116 0.277199351787335 1.10879740714934 0.277199351787335 1.29359697500756 0.277199351787335 1.47839654286578 0.277199351787335 1.66319611072401 0.277199351787335 1.84799567858223 0.277199351787335 2.03279524644045 0.277199351787335 2.21759481429868 0.277199351787335 2.4023943821569 0.277199351787335 2.58719395001512 0.277199351787335 2.77199351787335 0.277199351787335 2.95679308573157 0.277199351787335 3.14159265358979 0.277199351787335 3.32639222144802 0.277199351787335 3.51119178930624 0.277199351787335 3.69599135716446 0.277199351787335 3.88079092502268 0.277199351787335 4.06559049288091 0.277199351787335 4.25039006073913 0.277199351787335 4.43518962859735 0.277199351787335 4.61998919645558 0.277199351787335 4.8047887643138 0.277199351787335 4.98958833217203 0.277199351787335 5.17438790003025 0.277199351787335 5.35918746788847 0.277199351787335 5.5439870357467 0.277199351787335 5.72878660360492 0.277199351787335 5.91358617146314 0.277199351787335 6.09838573932137 0.277199351787335 0.098174770424681 0.461998919645558 0.294524311274043 0.461998919645558 0.490873852123405 0.461998919645558 0.687223392972767 0.461998919645558 0.883572933822129 0.461998919645558 1.07992247467149 0.461998919645558 1.27627201552085 0.461998919645558 1.47262155637022 0.461998919645558 1.66897109721958 0.461998919645558 1.86532063806894 0.461998919645558 2.0616701789183 0.461998919645558 2.25801971976766 0.461998919645558 2.45436926061703 0.461998919645558 2.65071880146639 0.461998919645558 2.84706834231575 0.461998919645558 3.04341788316511 0.461998919645558 3.23976742401448 0.461998919645558 3.43611696486384 0.461998919645558 3.6324665057132 0.461998919645558 3.82881604656256 0.461998919645558 4.02516558741192 0.461998919645558 4.22151512826129 0.461998919645558 4.41786466911065 0.461998919645558 4.61421420996001 0.461998919645558 4.81056375080937 0.461998919645558 5.00691329165874 0.461998919645558 5.2032628325081 0.461998919645558 5.39961237335746 0.461998919645558 5.59596191420682 0.461998919645558 5.79231145505619 0.461998919645558 5.98866099590555 0.461998919645558 6.18501053675491 0.461998919645558 0.216661562316537 0.646798487503781 0.433323124633075 0.646798487503781 0.649984686949612 0.646798487503781 0.86664624926615 0.646798487503781 1.08330781158269 0.646798487503781 1.29996937389922 0.646798487503781 1.51663093621576 0.646798487503781 1.7332924985323 0.646798487503781 1.94995406084884 0.646798487503781 2.16661562316538 0.646798487503781 2.38327718548191 0.646798487503781 2.59993874779845 0.646798487503781 2.81660031011499 0.646798487503781 3.03326187243153 0.646798487503781 3.24992343474806 0.646798487503781 3.4665849970646 0.646798487503781 3.68324655938114 0.646798487503781 3.89990812169768 0.646798487503781 4.11656968401421 0.646798487503781 4.33323124633075 0.646798487503781 4.54989280864729 0.646798487503781 4.76655437096383 0.646798487503781 4.98321593328036 0.646798487503781 5.1998774955969 0.646798487503781 5.41653905791344 0.646798487503781 5.63320062022998 0.646798487503781 5.84986218254651 0.646798487503781 6.06652374486305 0.646798487503781 0.12083048667653 0.831598055362004 0.362491460029591 0.831598055362004 0.604152433382652 0.831598055362004 0.845813406735713 0.831598055362004 1.08747438008877 0.831598055362004 1.32913535344184 0.831598055362004 1.5707963267949 0.831598055362004 1.81245730014796 0.831598055362004 2.05411827350102 0.831598055362004 2.29577924685408 0.831598055362004 2.53744022020714 0.831598055362004 2.7791011935602 0.831598055362004 3.02076216691326 0.831598055362004 3.26242314026632 0.831598055362004 3.50408411361938 0.831598055362004 3.74574508697244 0.831598055362004 3.98740606032551 0.831598055362004 4.22906703367857 0.831598055362004 4.47072800703163 0.831598055362004 4.71238898038469 0.831598055362004 4.95404995373775 0.831598055362004 5.19571092709081 0.831598055362004 5.43737190044387 0.831598055362004 5.67903287379693 0.831598055362004 5.92069384714999 0.831598055362004 6.16235482050305 0.831598055362004 0.285599332144527 1.01639762322023 0.571198664289053 1.01639762322023 0.85679799643358 1.01639762322023 1.14239732857811 1.01639762322023 1.42799666072263 1.01639762322023 1.71359599286716 1.01639762322023 1.99919532501169 1.01639762322023 2.28479465715621 1.01639762322023 2.57039398930074 1.01639762322023 2.85599332144527 1.01639762322023 3.14159265358979 1.01639762322023 3.42719198573432 1.01639762322023 3.71279131787885 1.01639762322023 3.99839065002337 1.01639762322023 4.2839899821679 1.01639762322023 4.56958931431243 1.01639762322023 4.85518864645695 1.01639762322023 5.14078797860148 1.01639762322023 5.426387310746 1.01639762322023 5.71198664289053 1.01639762322023 5.99758597503506 1.01639762322023 0.184799567858223 1.20119719107845 0.554398703574669 1.20119719107845 0.923997839291116 1.20119719107845 1.29359697500756 1.20119719107845 1.66319611072401 1.20119719107845 2.03279524644045 1.20119719107845 2.4023943821569 1.20119719107845 2.77199351787335 1.20119719107845 3.14159265358979 1.20119719107845 3.51119178930624 1.20119719107845 3.88079092502268 1.20119719107845 4.25039006073913 1.20119719107845 4.61998919645558 1.20119719107845 4.98958833217202 1.20119719107845 5.35918746788847 1.20119719107845 5.72878660360492 1.20119719107845 6.09838573932136 1.20119719107845 0.571198664289053 1.38599675893667 1.14239732857811 1.38599675893667 1.71359599286716 1.38599675893667 2.28479465715621 1.38599675893667 2.85599332144527 1.38599675893667 3.42719198573432 1.38599675893667 3.99839065002337 1.38599675893667 4.56958931431243 1.38599675893667 5.14078797860148 1.38599675893667 5.71198664289053 1.38599675893667 22 21 39 23 22 39 24 23 66 50 23 39 50 39 51 66 23 50 21 40 39 25 113 26 113 25 88 26 113 27 66 67 88 67 66 50 114 113 88 89 114 88 88 67 89 88 25 66 25 24 66 113 114 142 50 51 67 69 68 51 68 89 67 68 67 51 52 51 40 70 52 53 41 52 40 69 70 92 70 69 52 92 70 93 52 69 51 40 21 41 68 69 91 89 90 115 90 89 68 115 90 116 89 115 114 117 91 118 92 91 69 116 117 145 117 116 91 91 92 118 91 116 90 90 68 91 115 116 144 92 93 119 51 39 40 21 42 41 114 115 143 28 142 173 142 28 27 28 173 29 142 143 174 142 27 113 175 143 144 143 175 174 143 115 144 142 174 173 114 143 142 173 174 207 29 207 30 29 173 207 240 30 207 175 176 209 176 175 144 241 207 208 209 208 175 176 210 209 208 207 174 175 208 174 209 242 208 144 145 176 145 146 177 145 117 146 178 177 146 177 210 176 118 119 148 119 118 92 178 146 147 148 147 118 148 149 180 147 146 117 144 116 145 179 147 148 177 211 210 211 177 178 211 178 212 243 209 210 179 180 213 180 179 148 245 211 212 213 212 179 180 214 213 179 212 178 178 147 179 244 210 211 148 119 149 177 176 145 118 147 117 213 246 212 53 52 41 53 54 71 53 41 54 71 54 72 71 93 70 54 73 72 55 73 54 55 54 42 72 73 95 41 42 54 71 72 94 93 94 120 94 93 71 120 94 121 120 149 119 95 96 122 96 95 73 121 122 151 122 121 95 96 123 122 95 121 94 94 72 95 120 121 150 73 74 96 71 70 53 74 55 56 43 55 42 56 55 43 74 97 96 56 57 75 57 56 43 75 76 99 76 75 57 76 77 100 56 75 74 43 44 57 74 75 98 123 97 124 123 96 97 124 97 98 123 124 153 98 99 125 99 98 75 126 99 100 99 126 125 99 76 100 98 125 124 97 74 98 124 125 154 76 57 58 73 55 74 42 21 43 122 123 152 181 149 182 181 214 180 182 149 150 181 182 215 150 151 183 150 121 151 184 151 152 151 184 183 122 152 151 150 183 182 120 150 149 182 183 216 247 213 214 214 181 215 215 182 216 248 214 215 184 185 218 185 184 152 250 216 217 218 217 184 185 219 218 217 216 183 217 183 184 249 215 216 152 153 185 180 149 181 153 154 186 153 124 154 186 154 187 186 219 185 155 126 156 155 154 125 188 155 156 155 188 187 126 127 156 155 187 154 152 123 153 186 187 220 252 218 219 219 186 220 220 187 221 253 219 220 188 189 222 189 188 156 255 221 222 223 222 189 156 157 189 188 222 221 188 221 187 254 220 221 189 190 223 186 185 153 155 125 126 251 217 218 257 256 223 119 93 120 21 44 43 256 222 223 31 240 274 240 31 30 274 240 241 31 274 32 241 242 275 242 241 208 275 242 276 241 275 274 240 207 241 274 275 308 32 307 33 32 274 307 33 307 339 275 309 308 307 274 308 309 340 308 308 340 339 276 310 309 308 339 307 276 309 275 33 339 34 242 243 276 243 244 277 244 243 210 277 244 278 277 310 276 278 245 279 246 245 212 280 246 247 245 246 279 246 213 247 245 278 244 244 211 245 277 278 311 341 309 310 310 277 311 311 278 312 342 310 311 279 280 313 280 279 246 343 312 313 314 313 280 314 280 281 279 313 312 279 312 278 343 311 312 280 247 281 277 276 243 242 209 243 344 313 314 34 367 35 34 339 367 36 35 367 394 368 369 368 393 367 393 394 415 394 393 368 368 340 369 367 339 368 340 368 339 36 367 393 37 36 414 38 37 414 414 415 431 414 36 393 1 431 432 1 38 431 431 415 416 431 38 414 393 415 414 415 394 395 369 341 370 341 369 340 370 341 342 369 370 395 342 343 371 343 342 311 371 344 372 344 371 343 343 313 344 342 371 370 341 310 342 370 371 395 395 396 416 395 371 396 416 396 417 416 415 395 397 417 396 345 372 344 432 417 433 432 416 417 397 418 417 396 372 397 371 372 396 416 432 431 372 373 397 395 394 369 340 309 341 1 432 433 345 344 314 281 248 282 248 281 247 282 248 249 282 315 314 282 249 283 250 249 216 251 250 217 283 249 250 248 215 249 284 250 251 315 283 316 283 315 282 316 283 284 315 316 346 284 285 317 285 284 251 317 318 348 318 317 285 285 286 318 284 317 316 283 250 284 316 317 347 251 252 285 315 345 314 252 253 286 253 252 219 286 253 287 286 319 318 287 254 288 255 254 221 289 255 256 254 255 288 255 222 256 254 287 253 253 220 254 286 287 319 287 320 319 320 287 288 320 288 321 319 320 350 289 290 322 290 289 256 321 322 352 322 321 289 322 353 352 289 321 288 288 255 289 320 321 351 290 256 257 286 285 252 251 218 252 318 319 349 345 346 373 346 345 315 373 346 374 398 397 373 347 348 375 348 347 317 374 375 399 375 374 347 375 376 400 347 374 346 346 316 347 373 374 398 433 418 419 418 397 398 419 418 398 418 433 417 399 400 419 400 399 375 419 434 433 420 434 419 419 400 420 399 419 398 398 374 399 433 434 1 375 348 376 373 372 345 376 349 377 349 376 348 377 349 350 377 401 400 350 351 378 351 350 320 379 351 352 351 379 378 351 321 352 350 378 377 349 319 350 377 378 401 420 401 421 420 400 401 421 401 402 420 421 435 402 379 403 402 401 378 403 422 402 422 435 421 403 379 380 402 422 421 378 379 402 420 435 434 380 379 352 400 376 377 348 318 349 434 435 1 290 323 322 314 281 282 247 214 248 1 435 436 126 100 127 58 77 76 58 44 45 77 58 78 101 100 77 58 59 78 59 58 45 79 59 60 78 59 79 44 3 45 77 78 101 100 128 127 100 101 128 128 101 129 127 128 158 130 102 103 102 101 78 129 130 160 130 129 102 102 79 103 102 129 101 78 79 102 128 129 159 59 45 60 127 157 156 80 60 61 46 60 45 61 60 46 104 79 80 61 62 82 47 62 61 81 82 106 82 81 61 107 106 82 61 81 80 61 46 47 80 81 105 103 104 131 103 79 104 131 104 132 103 131 130 105 106 133 106 105 81 132 133 163 133 132 105 106 134 133 105 132 104 104 80 105 131 132 162 106 107 134 80 79 60 45 3 46 130 131 161 157 158 190 157 127 158 190 158 191 224 223 190 191 159 192 159 129 160 193 160 161 159 160 192 130 161 160 159 191 158 128 159 158 190 191 224 191 225 224 225 191 192 225 192 226 224 225 258 193 194 227 194 193 161 226 227 260 227 226 193 194 228 227 193 226 192 192 160 193 225 226 259 161 162 194 224 257 223 162 163 195 162 132 163 195 163 196 195 228 194 164 134 165 164 196 163 197 164 165 164 197 196 165 134 135 163 133 164 161 131 162 195 196 229 228 229 262 228 195 229 229 196 230 229 230 263 197 198 231 198 197 165 231 232 265 232 231 198 232 198 199 197 231 230 197 230 196 230 231 264 199 198 165 195 194 162 133 134 164 227 228 261 83 82 62 157 190 189 63 83 62 63 47 48 83 63 84 83 107 82 63 64 84 64 63 48 64 48 49 109 84 85 47 3 48 83 84 108 107 108 135 108 107 83 135 108 136 166 165 135 136 109 137 109 136 108 137 138 169 138 137 109 138 109 110 136 137 167 108 84 109 135 136 166 85 84 64 62 47 63 65 86 64 65 64 49 65 49 5 85 64 86 3 4 49 65 5 87 4 5 49 49 48 3 6 87 5 85 111 110 111 85 86 111 86 112 110 111 139 87 7 112 7 87 6 111 112 140 7 141 112 87 112 86 86 65 87 110 139 138 85 110 109 47 46 3 8 141 7 199 166 200 199 165 166 200 166 167 199 200 233 200 167 201 167 137 168 202 168 169 169 138 170 137 169 168 201 167 168 136 167 166 203 169 170 200 234 233 234 200 201 234 201 235 233 234 267 202 203 236 203 202 169 235 236 269 236 235 202 203 237 236 202 235 201 201 168 202 234 235 268 170 204 203 199 233 232 139 140 171 140 139 111 171 140 172 171 204 170 141 9 172 9 141 8 171 172 205 10 172 9 141 172 140 140 112 141 206 172 10 237 204 238 237 203 204 238 204 205 237 238 271 205 206 239 206 205 172 239 11 12 11 239 206 206 10 11 205 239 238 204 171 205 238 239 272 170 139 171 138 139 170 236 237 270 135 134 107 44 21 3 232 233 266 257 258 291 257 224 258 292 291 258 291 323 290 292 258 259 259 226 260 260 227 261 293 259 260 225 259 258 294 260 261 291 324 323 324 291 292 324 292 325 323 324 353 293 294 326 294 293 260 325 326 355 326 325 293 326 294 327 293 325 292 292 259 293 324 325 354 294 261 295 322 323 353 295 262 296 262 295 261 296 262 263 295 296 328 263 264 297 263 230 264 298 264 265 264 298 297 231 265 264 263 297 296 229 263 262 296 297 329 327 328 357 327 295 328 328 296 329 328 329 358 298 299 330 299 298 265 330 331 360 331 330 299 299 300 331 330 329 297 330 297 298 329 330 359 265 266 299 295 327 294 228 262 261 326 327 356 353 354 380 354 353 324 380 354 381 404 403 380 355 356 382 356 355 326 381 382 405 382 381 355 356 383 382 355 381 354 354 325 355 380 381 404 436 422 423 422 403 404 423 422 404 422 436 435 424 405 406 405 404 381 423 424 436 424 423 405 406 382 383 405 423 404 405 382 406 436 424 437 356 357 383 352 353 380 357 358 384 358 357 328 384 358 385 384 406 383 359 360 386 360 359 330 385 386 408 386 385 359 408 386 409 359 385 358 358 329 359 384 385 407 425 437 424 425 406 407 437 425 438 425 424 406 408 426 425 408 407 385 438 426 427 438 425 426 426 408 409 425 407 408 406 384 407 437 438 2 386 360 387 384 383 357 356 327 357 436 437 2 331 361 360 257 291 290 266 267 300 266 233 267 300 267 301 300 332 331 302 301 268 268 301 267 268 235 269 302 268 269 234 268 267 300 301 332 362 361 332 361 331 332 332 301 333 333 362 332 302 303 334 303 302 269 362 333 334 335 334 303 303 304 335 302 334 333 301 302 333 335 363 334 269 270 303 387 360 361 270 271 304 270 237 271 305 304 271 304 336 335 239 273 272 272 271 238 272 273 306 13 273 12 305 271 272 269 236 270 13 306 273 336 305 337 305 336 304 337 305 306 365 336 337 306 14 338 14 306 13 337 338 366 15 338 14 306 338 337 305 272 306 364 335 336 304 303 270 265 232 266 338 15 366 361 388 387 388 361 362 388 362 363 387 388 410 363 364 389 364 363 335 389 390 411 390 389 364 364 365 390 363 389 388 362 334 363 388 389 411 409 410 427 410 409 387 427 410 428 409 427 426 428 411 429 412 411 390 440 439 428 439 427 428 429 411 412 428 410 411 410 388 411 427 439 438 390 391 412 409 386 387 391 392 413 366 391 365 413 429 412 413 412 391 366 16 392 16 366 15 413 392 18 17 392 16 366 392 391 365 337 366 18 392 17 440 429 430 429 440 428 429 413 430 440 430 20 18 19 430 20 2 440 19 20 430 413 18 430 440 2 439 391 390 365 364 336 365 439 2 438 266 300 299 239 12 273 436 2 1 58 57 44 

TShapes 9
Ve
1e-07
6.12323399573677e-17 -1.49975978266186e-32 1
0 0

0101100
*
Ed
 1e-07 1 1 1
2  1 1 0 0 6.28318530717959
6  1 1 0
0

0101100
+9 0 -9 0 *
Ve
1e-07
6.12323399573677e-17 -1.49975978266186e-32 -1
0 0

0101100
*
Ed
 1e-07 1 1 0
1  1 0 4.71238898038469 7.85398163397448
3  2 3CN 1 0 4.71238898038469 7.85398163397448
7  2 3 1 0
0

0101000
-9 0 +7 0 *
Ed
 1e-07 1 1 1
2  4 1 0 0 6.28318530717959
6  4 1 0
0

0101100
+7 0 -7 0 *
Wi

0101000
-8 0 +6 0 +5 0 -6 0 *
Fa
0  1e-07 1 0
2  1
0101000
+4 0 *
Sh

0101100
+3 0 *
So

1100100
+2 0 *

+1 1 
0

