DBRep_DrawableShape

CASCADE Topology V1, (c) Matra-Datavision
Locations 0
Curve2ds 4
7 0 0  1 2 2  5.6249319293384445 0  5.6249319293384445 17.129843504662738 
 0 2 17.132968944132074 2
7 0 0  1 2 2  5.6249319293384445 17.129843504662738  0 17.129843504662738 
 0 2 6.9956195137281032 2
7 0 0  1 2 2  0 17.129843504662738  0 0 
 0 2 17.162879248644071 2
7 0 0  1 2 2  0 0  5.6249319293384445 0 
 0 2 6.9935257053318951 2
Curves 4
7 0 0  10 11 2  358.07138420727097 575.39250044067774 1093.9839013515764  358.04619019306921 575.40604815420727 1092.2707852316767  358.08716199978892 575.41608191364753 1090.5580701169117  358.19475969152012 575.42258453519025 1088.8471546682426  358.36811716215004 575.42570835662241 1087.1402577594156  358.61026191397673 575.42496477692112 1085.4409199862398  358.91511544515549 575.4212196425907 1083.7516059171237  359.28771123966669 575.41362000158801 1082.076592209849  359.72437150966732 575.40263566116414 1080.4184840223106  360.22515244864769 575.38812018683973 1078.7798663299684  360.78917334498573 575.37008656429794 1077.1622314511053 
 0 11 17.132968944132074 11
7 0 0  10 11 2  360.78917334498573 575.37008656429794 1077.1622314511053  360.72233413605085 574.89618341181836 1077.1521731358794  360.71002786359657 574.4125774484047 1077.1507941775435  360.76570016273661 573.93350725726395 1077.160214700011  360.90279046545237 573.4732122064994 1077.1825538534692  361.13473388748645 573.04593202862839 1077.2199301014925  361.47496351577814 572.66590660990312 1077.2744615966599  361.93691237692963 572.34737606475142 1077.3482664728829  362.53401558749215 572.10458003879387 1077.4434632008779  363.27971253338637 571.95175785439869 1077.5621709193804  364.18744882313001 571.90314807105551 1077.7065097499758 
 0 11 6.9956195137281032 11
7 0 0  10 11 2  364.18744882313001 571.90314807105551 1077.7065097499758  363.60451556158591 571.9221129013315 1079.3211374781688  363.08615995770555 571.93752560704149 1080.9569606817959  362.63481204363268 571.9493051337605 1082.6127333826826  362.25203622210188 571.95747035874433 1084.2861283424045  361.94011230487882 571.96164457929581 1085.9743180927824  361.69877308902869 571.96229573024675 1087.6737840118024  361.52929954796508 571.95895359019585 1089.3812985156967  361.43049855362716 571.95197975239273 1091.0936127237262  361.40157759385107 571.94134900147992 1092.8082439814498  361.44070493876535 571.92713513957062 1094.523575539373 
 0 11 17.162879248644071 11
7 0 0  10 11 2  361.44070493876535 571.92713513957062 1094.523575539373  360.53373300957691 571.97568927248551 1094.379358267078  359.78956048014084 572.12841879964242 1094.2608929584921  359.19463428350508 572.37109055491385 1094.1660424063334  358.7354075942481 572.68947061693359 1094.0926703864789  358.3983379251456 573.06932474880546 1094.0386413589613  358.16988485554305 573.49641828226538 1094.0018201089829  358.03650780266707 573.95651672108829 1093.9800713965226  357.98466430813278 574.43538574351965 1093.9712596856268  358.00080747745949 574.91879138048114 1093.9732487417473  358.07138420727097 575.39250044067774 1093.9839013515764 
 0 11 6.9935257053318951 11
Polygon3D 0
PolygonOnTriangulations 0
Surfaces 1
9 0 0 0 0 10 10 11 11 2 2 361.44070493876535 571.92713513957062 1094.523575539373  361.40157759384567 571.94134900147037 1092.8082439813998  361.43049855365035 571.9519797524357 1091.0936127239308  361.52929954790847 571.95895359008443 1089.3812985152108  361.69877308912641 571.96229573044525 1087.6737840126073  361.94011230475246 571.96164457903797 1085.9743180918033  362.25203622222642 571.95747035899456 1084.2861283432956  362.63481204354179 571.94930513358076 1082.6127333820832  363.08615995775045 571.93752560712915 1080.9569606820728  363.60451556157426 571.92211290130888 1079.3211374780985  364.18744882313001 571.90314807105551 1077.7065097499758  
360.53373300957247 571.97568927247244 1094.3793582670712  360.49848016576306 571.98969605090451 1092.6646427916921  360.53083076889578 572.00014205648677 1090.9505568819079  360.63225212965551 572.00698273094974 1089.2386593282083  360.80344123393417 572.01017673580941 1087.5314176838253  361.04513588210682 572.00963482001509 1085.8320081271725  361.3564133623795 572.00536295743689 1084.1437157467251  361.7372068733759 571.99737199102333 1082.4700054977777  362.1857528813934 571.98573524604888 1080.813787276307  362.70059539558554 571.97051577736374 1079.1774054510799  363.27971253339228 571.95175785440927 1077.562170919407  
359.78956048015982 572.12841879969562 1094.2608929585185  359.7574710228659 572.14225934961837 1092.546680488339  359.79261029073223 572.15255762103709 1090.8330380012515  359.89615882675622 572.15928269944106 1089.1214786909591  360.06863969030144 572.16239028726466 1087.4144424693407  360.31068825761207 572.16186921980614 1085.7150891417537  360.62118705882335 572.15759907346023 1084.0266729915299  361.00029960923951 572.14971979499728 1082.3526954277679  361.44638535809651 572.13821873529787 1080.6960859966487  361.95819252311736 572.12316272782789 1079.0592215205161  362.534015587466 572.10458003874737 1077.4434632007637  
359.19463428346569 572.371090554798 1094.1660424062907  359.16505687217489 572.38480209268312 1092.4522293690482  359.20239963284246 572.39498568884881 1090.7389372545804  359.30761962131152 572.40161453726842 1089.0276437293546  359.48102043513467 572.40468299884549 1087.3207537765982  359.72340045050458 572.40411589467351 1085.621453186199  360.03303055834732 572.39992344397456 1083.9328988681548  360.41072838045727 572.39210829329443 1082.2586963628346  360.85468077828119 572.38073202239286 1080.601747695755  361.3638965386661 572.3658127917339 1078.9644711636925  361.93691237699812 572.34737606487045 1077.3482664731673  
358.73540759430551 572.68947061711106 1094.0926703865296  358.70775052323472 572.70308671282726 1092.3791626929933  358.74676992800096 572.71318352464209 1090.6661371774615  358.85322895217746 572.71974431004901 1088.9550406728602  359.02727089732696 572.72278660834218 1087.2482526563949  359.26986328529733 572.72216410328838 1085.5489858878148  359.57865610151407 572.71806455914498 1083.8602983749813  359.95512296174536 572.71030330036365 1082.1859001492292  360.39727225164989 572.69902871998625 1080.5286647645216  360.90430295601163 572.68422428704093 1078.8910407901826  361.47496351565314 572.66590660968438 1077.2744615961583  
358.39833792508108 573.06932474860218 1094.0386413589035  358.37206997046667 573.0828749465262 1092.3253545380248  358.41228959715068 573.09291233811291 1090.6125198634695  358.51961145043828 573.0994270876115 1088.9015605567515  358.69403661167701 573.10244778358026 1087.1948334765927  358.93670560179748 573.10179627118725 1085.4955789181995  359.24473375964322 573.09776395342726 1083.806769785971  359.62014757532143 573.09006003998024 1082.1322041148817  360.06078714753562 573.07886680222384 1080.4747286699765  360.56601307317254 573.06415459319896 1078.8368177237849  361.13473388765414 573.04593202892681 1077.2199301021458  
358.16988485559921 573.49641828244285 1094.0018201090447  358.14453543792342 573.50992919636064 1092.2886793324526  358.18552952612646 573.51993075252847 1090.5759677979238  358.29339217254216 573.52641787853497 1088.8650944808669  358.46792706645056 573.52942767095703 1087.1583848552218  358.71067472387693 573.52876349998076 1085.4591428157539  359.01788544172399 573.52478326638663 1083.7702036927851  359.3924685247228 573.51712973546751 1082.095505920194  359.83185799251839 573.50600214595113 1080.4378316982447  360.33562961577826 573.49136203645241 1078.7996895109407  360.90279046528644 573.47321220620154 1077.1825538528383  
358.03650780263058 573.95651672097222 1093.9800713964728  358.01166427076748 573.97001124756048 1092.2670110477352  358.05307390287987 573.97999711950024 1090.5543655807835  358.16117406737038 573.986474829347 1088.8435300273993  358.33562989832541 573.98948299187487 1087.1368078369499  358.57835199442627 573.98881557414984 1085.4375617384815  358.88482494226895 573.98487805171533 1083.7485052991576  359.25872871028992 573.97726869917244 1082.0736994996562  359.69712729168504 573.96619014449573 1080.4158677220705  360.1997528019491 573.95160402449631 1078.7775433006307  360.7657001628541 573.93350725747507 1077.160214700451  
357.98466430814949 574.43538574357376 1093.971259685653  357.95997550373301 574.44888339957527 1092.2582239264043  358.00147996508821 574.45887123868545 1090.545593529775  358.10960765932703 574.46535160734209 1088.8347623489294  358.28375737124412 574.46837454198044 1087.1279914845206  358.52645456652971 574.46770248502605 1085.4287414337014  358.832188911652 574.46380798081907 1083.7395675452922  359.20561189401025 574.45622923914596 1082.0646852904417  359.64321309852039 574.4451868664745 1080.4067267300402  360.14498516697995 574.43063885183267 1078.7682666122187  360.71002786353984 574.41257744830318 1077.1507941773334  
358.00080747745477 574.9187913804659 1093.9732487417393  357.97598189661522 574.93230797312128 1092.2601912198627  358.01732143667891 574.94231280371548 1090.5475345894195  358.12527185850416 574.94880262589891 1088.836675220595  358.2990310063401 574.95186367963106 1087.1298422322013  358.54155098610306 574.9511685479614 1085.4305640412583  358.8467233326175 574.94733586228608 1083.7413007517962  359.21972932036357 574.93976173672786 1082.0663522119135  359.65675277756361 574.9287495983624 1080.4083017849555  360.15792187994714 574.91422458144859 1078.769745800796  360.72233413606648 574.89618341184644 1077.1521731359369  
358.07138420727097 575.39250044067774 1093.9839013515764  358.04619019306244 575.40604815421204 1092.2707852316455  358.08716199981558 575.41608191362991 1090.5580701170361  358.19475969146566 575.42258453523493 1088.8471546679755  358.36811716222866 575.42570835654851 1087.1402577598212  358.61026191389016 575.42496477700729 1085.4409199857748  358.91511544522871 575.42121964251498 1083.7516059175248  359.28771123962127 575.41362000163986 1082.0765922095973  359.72437150968636 575.40263566113777 1080.4184840224173  360.22515244864331 575.3881201868478 1078.7798663299436  360.78917334498573 575.37008656429794 1077.1622314511053  

0 11
5.6249319293384445 11

0 11
17.129843504662738 11

Triangulations 0

TShapes 11
Ve
1e-07
358.071384207271 575.392500440678 1093.98390135158
0 0

0101100
*
Ve
1e-07
360.789173344986 575.370086564298 1077.16223145111
0 0

0101100
*
Ed
 1e-07 1 1 0
1  1 0 0 17.1329689441321
2  1 1 0 0 17.1329689441321
0

0101000
+11 0 -10 0 *
Ve
1e-07
364.18744882313 571.903148071056 1077.70650974998
0 0

0101100
*
Ed
 1e-07 1 1 0
1  2 0 0 6.9956195137281
2  2 1 0 0 6.9956195137281
0

0101000
+10 0 -8 0 *
Ve
1e-07
361.440704938765 571.927135139571 1094.52357553937
0 0

0101100
*
Ed
 1e-07 1 1 0
1  3 0 0 17.1628792486441
2  3 1 0 0 17.1628792486441
0

0101000
+8 0 -6 0 *
Ed
 1e-07 1 1 0
1  4 0 0 6.9935257053319
2  4 1 0 0 6.9935257053319
0

0101000
+6 0 -11 0 *
Wi

0101000
+9 0 +7 0 +5 0 +4 0 *
Fa
0  1e-07 1 0

0111000
+3 0 *
Sh

1101000
+2 0 *

+1 0 
0

