DBRep_DrawableShape

CASCADE Topology V1, (c) Matra-Datavision
Locations 0
Curve2ds 76
1 0 0 1 0 
1 0 0 1 0 
1 10 0 0 -1 
1 0 0 0 1 
1 0 -10 1 0 
1 0 0 1 0 
1 0 0 0 -1 
1 0 0 0 1 
1 0 0 1 0 
1 0 10 1 0 
1 10 0 0 1 
1 0 0 1 0 
1 0 0 1 0 
1 0 2 1 0 
1 8 6 1 0 
1 0 0 0 1 
1 0 0 1 0 
1 8 4 0 1 
1 0 0 1 0 
1 0 0 1 0 
1 8 4 1 0 
1 0 0 0 1 
1 0 0 1 0 
1 10 0 0 1 
1 0 10 1 0 
1 10 0 0 -1 
1 10 0 0 1 
1 2 0 0 -1 
1 2 0 0 1 
1 6 0 0 1 
1 2 0 0 1 
1 0 2 1 0 
1 4 2 1 0 
1 2 0 0 -1 
1 0 0 0 1 
1 4 0 0 1 
1 0 0 0 1 
1 0 10 1 0 
1 0 -10 1 0 
1 0 10 1 0 
1 0 0 0 -1 
1 10 0 0 1 
1 0 -2 1 0 
1 0 2 1 0 
1 0 0 0 -1 
1 2 0 0 1 
1 0 0 0 -1 
1 0 0 0 1 
1 0 0 0 1 
1 0 2 1 0 
1 0 -2 1 0 
1 0 0 1 0 
1 0 0 1 0 
1 0 0 1 0 
1 2 0 0 -1 
1 0 0 0 1 
1 0 -2 1 0 
1 0 0 1 0 
1 0 0 0 -1 
1 0 0 0 1 
1 0 0 0 1 
1 0 0 1 0 
1 0 0 1 0 
1 0 2 1 0 
1 2 0 0 1 
1 0 0 1 0 
1 2 0 0 1 
1 0 2 1 0 
1 2 0 0 -1 
1 2 0 0 1 
1 0 0 0 1 
1 0 2 1 0 
1 0 -2 1 0 
1 0 2 1 0 
1 0 0 0 -1 
1 2 0 0 1 
Curves 35
1 0 0 0 0 0 1 
1 0 0 10 -0 1 0 
1 0 10 0 0 0 1 
1 0 0 0 -0 1 0 
1 10 0 0 0 0 1 
1 0 0 10 1 0 -0 
1 6 0 8 0 0 1 
1 4 0 8 1 0 -0 
1 4 0 8 0 0 1 
1 0 0 0 1 0 -0 
1 0 10 10 1 0 -0 
1 10 0 10 -0 1 0 
1 6 0 10 -0 1 0 
1 4 2 10 1 0 -0 
1 4 0 10 -0 1 0 
1 0 10 0 1 0 -0 
1 10 10 0 0 0 1 
1 10 0 0 -0 1 0 
1 6 2 8 0 0 1 
1 6 0 8 -0 1 0 
1 4 0 8 -0 1 0 
1 4 2 8 1 0 -0 
1 4 2 8 0 0 1 
1 4 4 4 0 0 1 
1 4 4 6 -0 1 0 
1 4 6 4 0 0 1 
1 4 4 4 -0 1 0 
1 4 4 4 1 0 -0 
1 6 4 4 0 0 1 
1 4 4 6 1 0 -0 
1 4 6 6 1 0 -0 
1 6 4 6 -0 1 0 
1 4 6 4 1 0 -0 
1 6 6 4 0 0 1 
1 6 4 4 -0 1 0 
Polygon3D 0
PolygonOnTriangulations 0
Surfaces 18
1 0 0 0 1 0 -0 0 0 1 0 -1 0 
1 0 0 0 -0 1 0 0 0 1 1 0 -0 
1 0 0 10 0 0 1 1 0 -0 -0 1 0 
1 0 10 0 -0 1 0 0 0 1 1 0 -0 
1 0 0 0 0 0 1 1 0 -0 -0 1 0 
1 10 0 0 1 0 -0 0 0 1 0 -1 0 
1 6 0 8 1 0 -0 0 0 1 0 -1 0 
1 4 0 8 -0 1 0 0 0 1 1 0 -0 
1 4 0 8 0 0 1 1 0 -0 -0 1 0 
1 4 0 8 1 0 -0 0 0 1 0 -1 0 
1 4 0 10 0 0 1 1 0 -0 -0 1 0 
1 4 2 8 -0 1 0 0 0 1 1 0 -0 
1 4 4 4 1 0 -0 0 0 1 0 -1 0 
1 4 4 4 -0 1 0 0 0 1 1 0 -0 
1 4 4 6 0 0 1 1 0 -0 -0 1 0 
1 4 6 4 -0 1 0 0 0 1 1 0 -0 
1 4 4 4 0 0 1 1 0 -0 -0 1 0 
1 6 4 4 1 0 -0 0 0 1 0 -1 0 
Triangulations 0

TShapes 95
Ve
1e-007
0 0 10
0 0

0101101
*
Ve
1e-007
0 0 0
0 0

0101101
*
Ed
 1e-007 1 1 0
1  1 0 0 10
2  1 1 0 0 10
2  2 2 0 0 10
0

0101000
-95 0 +94 0 *
Ve
1e-007
0 10 10
0 0

0101101
*
Ed
 1e-007 1 1 0
1  2 0 0 10
2  3 1 0 0 10
2  4 3 0 0 10
0

0101000
-92 0 +95 0 *
Ve
1e-007
0 10 0
0 0

0101101
*
Ed
 1e-007 1 1 0
1  3 0 0 10
2  5 1 0 0 10
2  6 4 0 0 10
0

0101000
-92 0 +90 0 *
Ed
 1e-007 1 1 0
1  4 0 0 10
2  7 1 0 0 10
2  8 5 0 0 10
0

0101000
-90 0 +94 0 *
Wi

0101100
-93 0 -91 0 +89 0 +88 0 *
Fa
0  1e-007 1 0

0111000
+87 0 *
Ve
1e-007
10 0 10
0 0

0101101
*
Ve
1e-007
10 0 0
0 0

0101101
*
Ed
 1e-007 1 1 0
1  5 0 0 10
2  9 6 0 0 10
2  10 2 0 0 10
0

0101000
-85 0 +84 0 *
Ve
2.12133034355964e-007
6 0 10
0 0

0101101
*
Ed
 1e-007 1 1 0
1  6 0 6 10
2  11 2 0 6 10
2  12 3 0 6 10
0

0101000
+82 0 -85 0 *
Ve
2.12133034355964e-007
6 0 8
0 0

0101101
*
Ed
 1e-007 1 1 0
1  7 0 0 2
2  13 7 0 0 2
2  14 8 0 0 2
2  15 2 0 0 2
0

0101000
-82 0 +80 0 *
Ve
2.12133034355964e-007
4 0 8
0 0

0101101
*
Ed
 1e-007 1 1 0
1  8 0 0 2
2  16 8 0 0 2
2  17 9 0 0 2
2  18 2 0 0 2
0

0101000
-80 0 +78 0 *
Ve
2.12133034355964e-007
4 0 10
0 0

0101101
*
Ed
 1e-007 1 1 0
1  9 0 0 2
2  19 10 0 0 2
2  20 8 0 0 2
2  21 2 0 0 2
0

0101000
-76 0 +78 0 *
Ed
 1e-007 1 1 0
1  6 0 0 4
2  11 2 0 0 4
2  12 3 0 0 4
0

0101000
+95 0 -76 0 *
Ed
 1e-007 1 1 0
1  10 0 0 10
2  22 2 0 0 10
2  23 5 0 0 10
0

0101000
-84 0 +94 0 *
Wi

0101100
-83 0 +81 0 +79 0 +77 0 -75 0 +74 0 +93 0 -73 0 *
Fa
0  1e-007 2 0

0111000
+72 0 *
Ve
1e-007
10 10 10
0 0

0101101
*
Ed
 1e-007 1 1 0
1  11 0 0 10
2  24 4 0 0 10
2  25 3 0 0 10
0

0101000
-70 0 +92 0 *
Ed
 1e-007 1 1 0
1  12 0 0 10
2  26 6 0 0 10
2  27 3 0 0 10
0

0101000
-70 0 +85 0 *
Ve
2.12133034355964e-007
6 2 10
0 0

0101101
*
Ed
 1e-007 1 1 0
1  13 0 0 2
2  28 7 0 0 2
2  29 11 0 0 2
2  30 3 0 0 2
0

0101000
-67 0 +82 0 *
Ve
2.12133034355964e-007
4 2 10
0 0

0101101
*
Ed
 1e-007 1 1 0
1  14 0 0 2
2  31 12 0 0 2
2  32 11 0 0 2
2  33 3 0 0 2
0

0101000
-67 0 +65 0 *
Ed
 1e-007 1 1 0
1  15 0 0 2
2  34 10 0 0 2
2  35 11 0 0 2
2  36 3 0 0 2
0

0101000
-65 0 +76 0 *
Wi

0101100
-69 0 +68 0 +81 0 -66 0 +64 0 +63 0 +74 0 -91 0 *
Fa
0  1e-007 3 0

0111000
+62 0 *
Ve
1e-007
10 10 0
0 0

0101101
*
Ed
 1e-007 1 1 0
1  16 0 0 10
2  37 4 0 0 10
2  38 5 0 0 10
0

0101000
-60 0 +90 0 *
Ed
 1e-007 1 1 0
1  17 0 0 10
2  39 6 0 0 10
2  40 4 0 0 10
0

0101000
-70 0 +60 0 *
Wi

0101100
-59 0 -58 0 +69 0 +89 0 *
Fa
0  1e-007 4 0

0111000
+57 0 *
Ed
 1e-007 1 1 0
1  18 0 0 10
2  41 6 0 0 10
2  42 5 0 0 10
0

0101000
-60 0 +84 0 *
Wi

0101100
-88 0 -59 0 +55 0 +73 0 *
Fa
0  1e-007 5 0

0111000
+54 0 *
Wi

0101100
-83 0 -68 0 +58 0 +55 0 *
Fa
0  1e-007 6 0

0111000
+52 0 *
Ve
1e-007
6 2 8
0 0

0101101
*
Ed
 1e-007 1 1 0
1  19 0 0 2
2  43 7 0 0 2
2  44 12 0 0 2
0

0101000
-67 0 +50 0 *
Ed
 1e-007 1 1 0
1  20 0 0 2
2  45 7 0 0 2
2  46 9 0 0 2
0

0101000
-50 0 +80 0 *
Wi

0101100
-79 0 -66 0 +49 0 +48 0 *
Fa
0  1e-007 7 0

0111000
+47 0 *
Ve
1e-007
4 2 8
0 0

0101101
*
Ed
 1e-007 1 1 0
1  21 0 0 2
2  47 10 0 0 2
2  48 9 0 0 2
0

0101000
-45 0 +78 0 *
Ed
 1e-007 1 1 0
1  22 0 0 2
2  49 12 0 0 2
2  50 9 0 0 2
0

0101000
-50 0 +45 0 *
Wi

0101100
-44 0 -43 0 +48 0 +77 0 *
Fa
0  1e-007 9 0

0111000
+42 0 *
Ed
 1e-007 1 1 0
1  23 0 0 2
2  51 10 0 0 2
2  52 12 0 0 2
0

0101000
-65 0 +45 0 *
Wi

0101100
-75 0 -63 0 +40 0 +44 0 *
Fa
0  1e-007 10 0

0111000
+39 0 *
Wi

0101100
-43 0 -49 0 +64 0 +40 0 *
Fa
0  1e-007 12 0

0111000
+37 0 *
Sh

0101100
-86 0 -71 0 +61 0 +56 0 -53 0 +51 0 -46 0 +41 0 +38 0 -36 0 
*
Ve
1e-007
4 4 6
0 0

0101101
*
Ve
1e-007
4 4 4
0 0

0101101
*
Ed
 1e-007 1 1 0
1  24 0 0 2
2  53 13 0 0 2
2  54 14 0 0 2
0

0101000
-34 0 +33 0 *
Ve
1e-007
4 6 6
0 0

0101101
*
Ed
 1e-007 1 1 0
1  25 0 0 2
2  55 13 0 0 2
2  56 15 0 0 2
0

0101000
-31 0 +34 0 *
Ve
1e-007
4 6 4
0 0

0101101
*
Ed
 1e-007 1 1 0
1  26 0 0 2
2  57 13 0 0 2
2  58 16 0 0 2
0

0101000
-31 0 +29 0 *
Ed
 1e-007 1 1 0
1  27 0 0 2
2  59 13 0 0 2
2  60 17 0 0 2
0

0101000
-29 0 +33 0 *
Wi

0101100
-32 0 -30 0 +28 0 +27 0 *
Fa
0  1e-007 13 0

0111000
+26 0 *
Ve
1e-007
6 4 4
0 0

0101101
*
Ed
 1e-007 1 1 0
1  28 0 0 2
2  61 14 0 0 2
2  62 17 0 0 2
0

0101000
-24 0 +33 0 *
Ve
1e-007
6 4 6
0 0

0101101
*
Ed
 1e-007 1 1 0
1  29 0 0 2
2  63 18 0 0 2
2  64 14 0 0 2
0

0101000
-22 0 +24 0 *
Ed
 1e-007 1 1 0
1  30 0 0 2
2  65 14 0 0 2
2  66 15 0 0 2
0

0101000
-22 0 +34 0 *
Wi

0101100
-23 0 -21 0 +20 0 +32 0 *
Fa
0  1e-007 14 0

0111000
+19 0 *
Ve
1e-007
6 6 6
0 0

0101101
*
Ed
 1e-007 1 1 0
1  31 0 0 2
2  67 16 0 0 2
2  68 15 0 0 2
0

0101000
-17 0 +31 0 *
Ed
 1e-007 1 1 0
1  32 0 0 2
2  69 18 0 0 2
2  70 15 0 0 2
0

0101000
-17 0 +22 0 *
Wi

0101100
-30 0 -16 0 +15 0 +20 0 *
Fa
0  1e-007 15 0

0111000
+14 0 *
Ve
1e-007
6 6 4
0 0

0101101
*
Ed
 1e-007 1 1 0
1  33 0 0 2
2  71 16 0 0 2
2  72 17 0 0 2
0

0101000
-12 0 +29 0 *
Ed
 1e-007 1 1 0
1  34 0 0 2
2  73 18 0 0 2
2  74 16 0 0 2
0

0101000
-17 0 +12 0 *
Wi

0101100
-11 0 -10 0 +16 0 +28 0 *
Fa
0  1e-007 16 0

0111000
+9 0 *
Ed
 1e-007 1 1 0
1  35 0 0 2
2  75 18 0 0 2
2  76 17 0 0 2
0

0101000
-12 0 +24 0 *
Wi

0101100
-27 0 -11 0 +7 0 +23 0 *
Fa
0  1e-007 17 0

0111000
+6 0 *
Wi

0101100
-21 0 -15 0 +10 0 +7 0 *
Fa
0  1e-007 18 0

0111000
+4 0 *
Sh

0101100
+25 0 +18 0 -13 0 -8 0 +5 0 -3 0 *
So

0100000
+35 0 +2 0 *

+1 0 
0

