DBRep_DrawableShape

CASCADE Topology V1, (c) Matra-Datavision
Locations 0
Curve2ds 26
8 2.8371824503947125 3.6103104387236931
5 1000 -2287 0 1 -1 0 107.15161935873024 39
8 2.8371824503947125 3.6103104387236931
7 0 0  8 9 2  6.1661380893070632 -8.1892718201319469e-014  6.1774238389231089 93.718124648107036  6.1874716414413342 197.8584312623716  6.1964377311596763 313.75467758765444  6.204455691135081 442.94828155403957  6.2116399837505014 587.22815409535542  6.2180891602802149 748.68097915541148  6.2238883942494487 929.7555489179116  6.2291115863912978 1133.3493276868446 
 2.8371824503947125 9 3.6103104387236931 9
8 -461 274.56482093708905
1 500 -304.45000000000027 -1 0 
8 -461 274.56482093708905
1 500 -39 1 0 
1 961 0 0 -1 
1 0 0 0 1 
8 -461 -141.52129759611307
1 500 -1369.4500000000003 -1 0 
8 -461 -141.52129759611307
1 500 -39 1 0 
1 0 1133.3493276868464 1 0 
2 0 0 1 0 -0 1 721.58918794445958
1 6.2831853071795862 -0 0 1 
1 0 -0 0 1 
1 0 0 1 0 
2 0 0 1 0 -0 1 333.96088845095397
8 -19.5 58.5
1 19.5 304.45000000000027 1 0 
8 -19.5 58.5
1 39 -19.5 0 1 
8 -461 274.56482093708905
1 500 -304.45000000000027 -1 0 
8 -461 274.56482093708905
1 500 39 1 0 
8 -19.5 58.5
1 19.5 1369.4500000000003 1 0 
8 -19.5 58.5
1 39 -19.5 0 1 
1 961 0 0 -1 
1 78 0 0 1 
8 -461 -141.52129759611307
1 500 -1369.4500000000003 -1 0 
8 -461 -141.52129759611307
1 500 39 1 0 
8 2.8371824503947125 3.6103104387236931
5 1000 -2287 0 1 -1 0 107.15161935873024 39
8 2.8371824503947125 3.6103104387236931
7 0 0  8 9 2  0.11704721787252516 -8.1892718201319469e-014  0.10576146825647666 93.718124648107036  0.095713665733526909 197.85843126213877  0.086747576027846662 313.75467758765444  0.078729616024929783 442.94828155310825  0.071545323426846608 587.2281540944241  0.065096146896763685 748.68097915517865  0.059296912930137294 929.7555489179116  0.054073720788284728 1133.3493276868446 
 2.8371824503947125 9 3.6103104387236931 9
Curves 13
5 -39 287 0 1 0 -0 0 -1 0 0 -0 -1 107.15161935873024 39
1 -39 -1695.5499999999997 -500 0 -0 -1 
1 -39 -2000 -39 -0 1 0 
1 -39 -630.54999999999973 -500 0 -0 -1 
2 0 -1695.5499999999997 0 0 -1 0 0 -0 -1 1 0 0 721.58918794445958
1 -8.1796826616373407e-014 -630.54999999999973 -333.96088845095397 -8.3770774753539872e-017 -0.93969262078590843 -0.34202014332566888 
2 0 -630.54999999999973 0 0 -1 0 0 -0 -1 1 0 0 333.96088845095397
1 -19.5 -1695.5499999999997 -39 1 0 -0 
1 39 -1695.5499999999997 -500 0 -0 -1 
1 -19.5 -630.54999999999973 -39 1 0 -0 
1 39 -2000 -39 0 1 0 
1 39 -630.54999999999973 -500 0 -0 -1 
5 39 287 0 1 0 -0 0 -1 0 0 -0 -1 107.15161935873024 39
Polygon3D 0
PolygonOnTriangulations 0
Surfaces 6
1 -39 -2000 -1000 1 0 -0 0 0 1 0 -1 0 
3 0 -630.54999999999973 0 0 -1 0 0 -0 -1 1 0 0 333.96088845095397
0.34906585039886601
1 0 -1695.5499999999997 0 0 -1 0 0 -0 -1 1 0 0 
1 -39 -2000 -39 0 0 1 1 0 -0 -0 1 0 
1 0 -630.54999999999973 0 0 -1 0 0 -0 -1 1 0 0 
1 39 -2000 -1000 1 0 -0 0 0 1 0 -1 0 
Triangulations 0

TShapes 41
Ve
0.002000000001
-39 -630.55 -331.675858354132
0 0

0101101
*
Ve
0.002000000001
-39.0000000000003 -1695.55 -720.534493385532
0 0

0101101
*
Ed
 0.001 1 1 0
1  1 0 2.83718245039471 3.61031043872369
2  1 1 0 2.83718245039471 3.61031043872369
2  2 2 0 2.83718245039471 3.61031043872369
0

0101000
+41 0 -40 0 *
Ve
0.002000000001
-39 -1695.55 -39
0 0

0101101
*
Ed
 0.001 1 1 0
1  2 0 -461 220.534493385532
2  3 1 0 -461 220.534493385532
2  4 3 0 -461 220.534493385532
0

0101000
+38 0 -40 0 *
Ve
0.002000000001
-39 -630.55 -39
0 0

0101101
*
Ed
 0.001 1 1 0
1  3 0 304.45 1369.45
2  5 1 0 304.45 1369.45
2  6 4 0 304.45 1369.45
0

0101000
+38 0 -36 0 *
Ed
 0.001 1 1 0
1  4 0 -461 -168.324141645868
2  7 1 0 -461 -168.324141645868
2  8 5 0 -461 -168.324141645868
0

0101000
+36 0 -41 0 *
Wi

0101000
-39 0 +37 0 -35 0 -34 0 *
Fa
0  0.001 1 0

0101000
+33 0 *
Ve
0.001
-1.76738377863104e-013 -1695.55 -721.58918794446
0 0

0101101
*
Ed
 0.001 1 1 0
1  5 0 6.2291115863913 6.28318530717959
2  9 2 0 6.2291115863913 6.28318530717959
2  10 3 0 6.2291115863913 6.28318530717959
0

0101000
+40 0 -31 0 *
Ve
0.001
-8.17968266163734e-014 -630.55 -333.960888450954
0 0

0101101
*
Ed
 0.001 1 1 0
1  6 0 0 1133.34932768685
3  11 12CN 2 0 0 1133.34932768685
0

0101000
-31 0 +29 0 *
Ed
 0.001 1 1 0
1  7 0 6.16613808930706 6.28318530717959
2  13 2 0 6.16613808930706 6.28318530717959
2  14 5 0 6.16613808930706 6.28318530717959
0

0101000
+41 0 -29 0 *
Wi

0101000
-39 0 -30 0 +28 0 +27 0 *
Fa
0  0.001 2 0

0101000
+26 0 *
Ve
0.002000000001
39 -1695.55 -39
0 0

0101101
*
Ed
 0.001 1 1 0
1  8 0 -19.5 58.5
2  15 4 0 -19.5 58.5
2  16 3 0 -19.5 58.5
0

0101000
+38 0 -24 0 *
Ve
0.002000000001
39 -1695.55 -720.534493385532
0 0

0101101
*
Ed
 0.001 1 1 0
1  9 0 -461 220.534493385532
2  17 6 0 -461 220.534493385532
2  18 3 0 -461 220.534493385532
0

0101000
+24 0 -22 0 *
Ed
 0.001 1 1 0
1  5 0 0 0.0540737207882847
2  9 2 0 0 0.0540737207882847
2  10 3 0 0 0.0540737207882847
0

0101000
+31 0 -22 0 *
Wi

0101000
-23 0 -21 0 +20 0 +30 0 +37 0 *
Fa
0  0.001 3 0

0101000
+19 0 *
Ve
0.002000000001
39 -630.55 -39
0 0

0101101
*
Ed
 0.001 1 1 0
1  10 0 -19.5 58.5
2  19 4 0 -19.5 58.5
2  20 5 0 -19.5 58.5
0

0101000
+36 0 -17 0 *
Ed
 0.001 1 1 0
1  11 0 304.45 1369.45
2  21 6 0 304.45 1369.45
2  22 4 0 304.45 1369.45
0

0101000
+24 0 -17 0 *
Wi

0101000
-35 0 -16 0 +15 0 +23 0 *
Fa
0  0.001 4 0

0101000
+14 0 *
Ve
0.002000000001
39 -630.55 -331.675858354132
0 0

0101101
*
Ed
 0.001 1 1 0
1  12 0 -461 -168.324141645868
2  23 6 0 -461 -168.324141645868
2  24 5 0 -461 -168.324141645868
0

0101000
+17 0 -12 0 *
Ed
 0.001 1 1 0
1  7 0 0 0.117047217872525
2  13 2 0 0 0.117047217872525
2  14 5 0 0 0.117047217872525
0

0101000
+29 0 -12 0 *
Wi

0101000
-16 0 -11 0 +10 0 +27 0 +34 0 *
Fa
0  0.001 5 0

0101000
+9 0 *
Ed
 0.001 1 1 0
1  13 0 2.83718245039471 3.61031043872369
2  25 6 0 2.83718245039471 3.61031043872369
2  26 2 0 2.83718245039471 3.61031043872369
0

0101000
+12 0 -22 0 *
Wi

0101000
+10 0 -28 0 -20 0 +7 0 *
Fa
0  0.001 2 0

0101000
+6 0 *
Wi

0101000
-7 0 +21 0 -15 0 -11 0 *
Fa
0  0.001 6 0

0101000
+4 0 *
Sh

0101000
-32 0 +25 0 +18 0 +13 0 -8 0 +5 0 +3 0 *
So

0100000
+2 0 *

+1 0 