DBRep_DrawableShape

CASCADE Topology V1, (c) Matra-Datavision
Locations 14
1
              1               0               0              50 
              0               1               0              -0 
              0               0               1              -0 
1
              1               0               0              -0 
              0               1               0              60 
              0               0               1              -0 
1
              1               0               0               0 
              0               1               0             -60 
              0               0               1               0 
2  2 1 3 1 0
1
              1               0               0              -0 
              0               1               0             100 
              0               0               1              -0 
2  5 -1 0
1
              1               0               0               0 
              0               1               0            -100 
              0               0               1               0 
2  7 -1 5 -1 0
1
              1               0               0              -0 
              0               1               0             100 
              0               0               1              -0 
2  9 -1 0
1
              1               0               0               0 
              0               1               0            -100 
              0               0               1               0 
2  11 -1 9 -1 0
2  2 -1 0
2  3 -1 2 -1 0
Curve2ds 31
1 1.5707963267948966 0 0 -1 
1 62.499991511647465 0 0 -1 
1 -62.499991511647465 -60 0 1 
1 3.1415901549897853 0 0 -1 
1 0 0 0 -1 
2 -62.499991511647465 37.4999915116084 1 0 -0 1 12.5000084883916
1 0 0 1 0 
1 0 -100 1 0 
1 0 0 1 0 
1 0 -100 1 0 
1 0 0 1 0 
1 0 -60 1 0 
2 12.500008488352535 -12.5000084883916 1 0 -0 1 12.5000084883916
1 0 0 0 -1 
1 50 0 0 -1 
1 0 50 -1 0 
1 0 0 1 0 
1 0 -60 1 0 
1 0 0 0 -1 
1 75 0 0 -1 
1 0 0 0 1 
1 0 0 1 0 
1 0 -60 1 0 
1 0 0 0 -1 
1 37.500022744129708 0 0 -1 
1 -75 0 1 0 
1 0 0 1 0 
1 0 -60 1 0 
1 -75 37.500022744129708 -0 -1 
1 0 0 1 0 
1 0 -60 1 0 
Curves 10
1 50 60 62.499991511647465 0 -1 0 
1 37.500022744129708 60 75 0 -1 0 
2 37.4999915116084 0 62.499991511647465 0 -1 0 0 -0 -1 1 0 0 12.5000084883916
1 50 60 0 0 -1 0 
1 50 0 0 0 0 1 
1 0 60 0 0 -1 0 
1 0 0 0 1 0 0 
1 0 60 75 0 -1 0 
1 0 0 75 0 0 -1 
1 37.500022744129708 0 75 -1 0 0 
Polygon3D 0
PolygonOnTriangulations 25
2 1 2 
p 0.304119613612116 1 0 60 
2 3 4 
p 0.304119613612116 1 0 60 
2 3 4 
p 0.304119613612116 1 0 60 
2 1 2 
p 0.304119613612116 1 0 60 
9 2 12 13 14 15 16 17 18 4 
p 0.304119613612116 1 1.5707963267949 1.76714555531926 1.96349478384362 2.15984401236798 2.35619324089234 2.5525424694167 2.74889169794106 2.94524092646542 3.14159015498979 
9 1 5 6 7 8 9 10 11 3 
p 0.304119613612116 1 1.5707963267949 1.76714555531926 1.96349478384362 2.15984401236798 2.35619324089234 2.5525424694167 2.74889169794106 2.94524092646542 3.14159015498979 
9 1 3 4 5 6 7 8 9 2 
p 0.304119613612116 1 1.5707963267949 1.76714555531926 1.96349478384362 2.15984401236798 2.35619324089234 2.5525424694167 2.74889169794106 2.94524092646542 3.14159015498979 
2 1 2 
p 0.304119613612116 1 0 60 
2 3 4 
p 0.304119613612116 1 0 60 
2 2 4 
p 0.304119613612116 1 0 62.4999915116475 
2 1 3 
p 0.304119613612116 1 0 62.4999915116475 
2 10 1 
p 0.304119613612116 1 0 62.4999915116475 
2 1 2 
p 0.304119613612116 1 0 60 
2 3 4 
p 0.304119613612116 1 0 60 
2 2 4 
p 0.304119613612116 1 0 50 
2 1 3 
p 0.304119613612116 1 0 50 
2 11 10 
p 0.304119613612116 1 0 50 
2 1 2 
p 0.304119613612116 1 0 60 
2 3 4 
p 0.304119613612116 1 0 60 
2 2 4 
p 0.304119613612116 1 0 75 
2 1 3 
p 0.304119613612116 1 0 75 
2 12 11 
p 0.304119613612116 1 0 75 
2 1 3 
p 0.304119613612116 1 0 37.5000227441297 
2 2 4 
p 0.304119613612116 1 0 37.5000227441297 
2 2 12 
p 0.304119613612116 1 0 37.5000227441297 
Surfaces 10
2 37.4999915116084 60 62.499991511647465 -0 1 -0 0 0 -1 1 0 0 12.5000084883916
1 50 60 0 -1 0 0 0 0 1 0 1 -0 
1 0 0 0 -1 0 0 0 0 -1 -0 -1 -0 
1 37.500022744129708 60 75 -0 -0 -1 -1 0 0 0 1 -0 
1 0 0 0 0 -1 0 0 -0 -1 1 0 0 
2 37.4999915116084 100 62.499991511647465 -0 1 -0 0 0 -1 1 0 0 12.5000084883916
2 37.4999915116084 100 62.499991511647465 -0 1 -0 0 0 -1 1 0 0 12.5000084883916
1 50 0 75 -0 -1 -0 0 0 -1 1 -0 0 
1 0 60 0 -0 0 1 1 0 0 0 1 -0 
1 0 60 75 1 0 0 0 0 -1 -0 1 0 
Triangulations 6
18 16 1 0.0601907661389884
50 60 62.4999915116475 50 0 62.4999915116475 37.5000227441297 60 75 37.5000227441297 0 75 49.759816603583 60 64.9386183638023 49.0484964982906 60 67.2835304508052 47.8933752301725 60 69.4446144019525 46.3388433209964 60 71.3388212363079 44.4446403708004 60 72.8933578783443 42.2835593058458 60 74.0484845461432 39.9386489961548 60 74.7598105104308 49.759816603583 0 64.9386183638023 49.0484964982906 0 67.2835304508052 47.8933752301725 0 69.4446144019525 46.3388433209964 0 71.3388212363079 44.4446403708004 0 72.8933578783443 42.2835593058458 0 74.0484845461432 39.9386489961548 0 74.7598105104308 1.5707963267949 0 1.5707963267949 -60 3.14159015498979 0 3.14159015498979 -60 1.76714555531926 0 1.96349478384362 0 2.15984401236798 0 2.35619324089234 0 2.5525424694167 0 2.74889169794106 0 2.94524092646542 0 1.76714555531926 -60 1.96349478384362 -60 2.15984401236798 -60 2.35619324089234 -60 2.5525424694167 -60 2.74889169794106 -60 2.94524092646542 -60 5 1 2 5 2 12 6 12 13 6 5 12 7 13 14 7 6 13 8 14 15 8 7 14 9 15 16 9 8 15 10 16 17 10 9 16 11 17 18 11 10 17 3 18 4 3 11 18 
4 2 1 0
50 60 0 50 0 0 50 60 62.4999915116475 50 0 62.4999915116475 0 0 0 -60 62.4999915116475 0 62.4999915116475 -60 3 1 2 3 2 4 
4 2 1 0
37.5000227441297 60 75 37.5000227441297 0 75 0 60 75 0 0 75 0 0 0 -60 37.5000227441297 0 37.5000227441297 -60 3 1 2 3 2 4 
12 10 1 1.95399252334028e-014
50 0 62.4999915116475 37.5000227441297 0 75 49.759816603583 0 64.9386183638023 49.0484964982906 0 67.2835304508052 47.8933752301725 0 69.4446144019525 46.3388433209964 0 71.3388212363079 44.4446403708004 0 72.8933578783443 42.2835593058458 0 74.0484845461432 39.9386489961548 0 74.7598105104308 50 0 0 0 0 0 0 0 75 -62.4999915116475 50 -75 37.5000227441297 -64.9386183638023 49.759816603583 -67.2835304508052 49.0484964982906 -69.4446144019525 47.8933752301725 -71.3388212363079 46.3388433209964 -72.8933578783443 44.4446403708004 -74.0484845461432 42.2835593058458 -74.7598105104308 39.9386489961548 0 50 0 0 -75 0 1 3 4 1 4 5 1 5 6 1 6 7 1 7 8 1 8 9 1 9 2 1 2 12 11 1 12 10 1 11 
4 2 1 0
0 60 0 0 0 0 50 60 0 50 0 0 0 0 0 -60 50 0 50 -60 3 1 2 3 2 4 
4 2 1 3.5527136788005e-015
0 60 75 0 0 75 0 60 0 0 0 0 0 0 0 -60 75 0 75 -60 3 1 2 3 2 4 

TShapes 29
Ve
9.68461845740538e-007
50 0 62.4999915116475
0 0

0101101
*
Ed
 1e-007 1 1 0
1  1 0 0 60
2  1 1 0 0 60
4 G1 1 0 2 0
2  2 2 0 0 60
2  3 3 1 0 60
6  1 1 0
6  2 2 0
0

0101000
+29 2 -29 4 *
Ve
1.0000100116861e-007
37.5000227441297 0 75
0 0

0101101
*
Ed
 1e-007 1 1 0
1  2 0 0 60
2  4 1 0 0 60
4 G1 1 0 4 0
2  5 4 0 0 60
6  3 1 0
6  4 3 0
0

0101000
+27 2 -27 4 *
Ed
 1e-007 1 1 0
1  3 0 1.5707963267949 3.14159015498979
2  6 5 0 1.5707963267949 3.14159015498979
2  7 6 6 1.5707963267949 3.14159015498979
2  8 6 8 1.5707963267949 3.14159015498979
2  9 7 10 1.5707963267949 3.14159015498979
2  10 7 12 1.5707963267949 3.14159015498979
2  11 1 13 1.5707963267949 3.14159015498979
2  12 1 14 1.5707963267949 3.14159015498979
2  13 8 14 1.5707963267949 3.14159015498979
6  5 1 14
6  6 1 13
6  7 4 0
0

0101000
+29 0 -27 0 *
Wi

0101100
+28 0 -26 0 -25 2 +25 4 *
Fa
0  1e-007 1 0
2  1
0111000
+24 0 *
Ve
1e-007
50 0 0
0 0

0101101
*
Ed
 1e-007 1 1 0
1  4 0 0 60
2  14 2 0 0 60
2  15 9 0 0 60
6  8 2 0
6  9 5 0
0

0101000
+22 2 -22 4 *
Ed
 1e-007 1 1 0
1  5 0 0 62.4999915116475
2  16 5 0 0 62.4999915116475
2  17 2 13 0 62.4999915116475
2  18 2 14 0 62.4999915116475
6  10 2 14
6  11 2 13
6  12 4 0
0

0101000
+22 0 -29 0 *
Wi

0101100
+21 0 -28 0 -20 2 +20 4 *
Fa
0  1e-007 2 0
2  2
0111000
+19 0 *
Ve
1e-007
0 0 0
0 0

0101101
*
Ed
 1e-007 1 1 0
1  6 0 0 60
2  19 9 0 0 60
2  20 10 0 0 60
6  13 5 0
6  14 6 0
0

0101000
+17 2 -17 4 *
Ed
 1e-007 1 1 0
1  7 0 0 50
2  21 5 0 0 50
2  22 9 13 0 50
2  23 9 14 0 50
6  15 5 14
6  16 5 13
6  17 4 0
0

0101000
+17 0 -22 0 *
Wi

0101100
+16 0 -21 0 -15 2 +15 4 *
Fa
0  1e-007 9 0
2  5
0111000
+14 0 *
Ve
1e-007
0 0 75
0 0

0101101
*
Ed
 1e-007 1 1 0
1  8 0 0 60
2  24 10 0 0 60
2  25 4 0 0 60
6  18 6 0
6  19 3 0
0

0101000
+12 2 -12 4 *
Ed
 1e-007 1 1 0
1  9 0 0 75
2  26 5 0 0 75
2  27 10 13 0 75
2  28 10 14 0 75
6  20 6 14
6  21 6 13
6  22 4 0
0

0101000
+12 0 -17 0 *
Wi

0101100
+11 0 -16 0 -10 2 +10 4 *
Fa
0  1e-007 10 0
2  6
0111000
+9 0 *
Ed
 1e-007 1 1 0
1  10 0 0 37.5000227441297
2  29 5 0 0 37.5000227441297
2  30 4 13 0 37.5000227441297
2  31 4 14 0 37.5000227441297
6  23 3 13
6  24 3 14
6  25 4 0
0

0101000
+27 0 -12 0 *
Wi

0101100
+26 0 -11 0 -7 2 +7 4 *
Fa
0  1e-007 4 0
2  3
0111000
+6 0 *
Wi

0101100
+25 0 +20 0 +15 0 +10 0 +7 0 *
Fa
0  1e-007 5 0
2  4
0111000
+4 0 *
Sh

0101100
+23 0 +18 0 +13 0 +8 0 +5 0 +3 2 -3 4 *
So

0100000
-2 0 *

+1 0 