DBRep_DrawableShape

CASCADE Topology V1, (c) Matra-Datavision
Locations 7
1
              1               0               0              -0 
              0               1               0           1.518 
              0               0               1              -0 
1
              1               0               0              -2 
              0               1               0               0 
              0               0               1               0 
2  1 1 2 1 0
1
              0               0              -1 24.0114262379013 
              1               0               0 27.310639554706 
              0              -1              -0              -0 
2  4 -1 0
1
              1               0               0               0 
              0               1               0               0 
              0               0               1           6.756 
2  6 -1 0
Curve2ds 124
8 -1.0348716452453777 -0
1 6.2831853071795862 0 -0 -1 
8 -1.0348716452453777 -0
1 1.5707963267948966 0 -0 -1 
1 0 0 1 0 
8 -1.0348716452453777 -0
1 4.7123889803846897 0 -0 -1 
8 -1.0348716452453777 -0
1 0 0 0 1 
1 0 1.0348716452453777 1 0 
1 6.2831853071795862 -1.0348716452453777 -1 -0 
1 0 -0 1 0 
8 -1.0348716452453777 0
1 1.5707970738706374 0 0 1 
8 -1.0348716452453777 0
1 0 -96.000002988300736 -1 -0 
1 0 -1.0348716452453777 1 0 
1 6.2831853071795862 1.0348716452453777 -1 -0 
1 0 0 0 1 
8 -1.0348716452453777 -0
1 0 0 -1 -0 
8 -1.0348716452453777 -0
1 1.5707963267948966 0 -0 -1 
1 1.0348716452453777 0 0 1 
1 1.0348716452453777 -3.2820534217148278e-017 -0 -1 
1 0 0 1 0 
8 -1.0348716452453777 -0
1 4.7123889803846897 0 -0 -1 
8 -1.0348716452453777 -0
1 0 0 -1 -0 
1 0 1.0348716452453777 1 0 
1 6.2831853071795862 -1.0348716452453777 -1 -0 
1 0 0 0 1 
8 -1.0348716452453777 -0
1 0 96.000002988300736 -1 -0 
8 -1.0348716452453777 -0
1 4.712388233308948 0 -0 -1 
1 1.0348716452453777 0 0 1 
1 1.0348716452453777 -3.2820534217148278e-017 -0 -1 
1 0 0 1 0 
1 0 1.0348716452453777 1 0 
1 6.2831853071795862 -1.0348716452453777 -1 -0 
8 1.0348716452453777 1.5716147746823974
1 -4.4408920985006262e-016 -96.000002988300736 1 0 
8 1.0348716452453777 1.5716147746823974
1 1.5707970738706383 0 -0 -1 
8 1.0348716452453772 1.5716147746823974
1 0 -5.7081091475179934e-019 1 0 
8 1.0348716452453772 1.5716147746823974
1 1.5707963267948966 -4.4408920985006262e-016 -0 -1 
8 -96.000002988300665 -0
1 6.2831853071795862 0 0 1 
1 1.5716147746823974 -4.9843124725297714e-017 0 1 
8 3.4031813772104407 4.4508002567640439
1 1.5707970738706374 0 0 1 
8 3.4031813772104407 4.4508002567640439
1 9.6863666843900269 -96.000002988300736 -1 -0 
8 0 1.0476188795536032
1 6.2831853071795862 0 -1 -0 
8 0 1.0476188795536032
1 1.5707963267948966 3.4031813772104407 0 1 
1 5.235566427625983 0 0 1 
1 0 0 1.1829268600964296e-016 1 
8 -0 5.0697093605057857
1 1.5707970738706374 0 -0 -1 
8 -0 5.0697093605057857
1 -1.1356098210419837e-014 -96.000002988300736 1 0 
8 -1.1356098210419837e-014 5.0697093605057892
1 0 -2.7977251248915962e-016 1 0 
8 -1.1356098210419837e-014 5.0697093605057892
1 1.5707963267948966 -1.1356098210419837e-014 -0 -1 
1 5.0697093605057866 -5.9970953754245878e-016 -1.2325951644078309e-032 1 
1 0 0 -1 -0 
8 1.0348716452453777 1.5716147746823974
1 4.7123889803846897 0 -0 -1 
8 1.0348716452453777 1.5716147746823974
1 0 0 -0 -1 
8 1.0348716452453777 1.5716147746823974
1 1.5707963267948966 0 -0 -1 
8 1.0348716452453777 1.5716147746823974
1 6.2831853071795845 0 0 1 
1 0 -1.5716147746823974 1 0 
8 1.5707963267948966 4.7123889803846897
1 0 3.4031813772104407 1 0 
8 3.4031813772104407 4.4508002567640439
1 4.7123889803846897 0 0 1 
8 3.4031813772104407 4.4508002567640439
1 0 0 0 1 
8 0.26158872362064778 1.3092076031742514
1 6.2831853071795853 0 0 1 
8 0.26158872362064778 1.3092076031742514
1 1.5707963267948966 3.1415926535897931 0 1 
1 0 4.4508002567640439 1 0 
8 1.5707963267948966 4.7123889803846897
1 0 -0 1 0 
8 -0 5.0697093605057857
1 4.7123889803846897 0 -0 -1 
8 -0 5.0697093605057857
1 0 0 -0 -1 
8 0 2.533298683958972
1 6.2831853071795827 0 0 1 
8 0 2.533298683958972
1 1.5707963267948966 0 -0 -1 
7 0 0  7 14 3  2.5332883313050591 96.000002988300736  2.7124329438714385 95.827010798900062  2.877547969283933 95.668166829347513  3.0679969375517748 95.485886140704878  3.2314441688101176 95.33009562695176  3.4163499741439072 95.154609521871066  3.5904124276216764 94.990164484313055  3.9529235455184755 94.649109065445302  4.1383602084250279 94.475432539832397  4.3240795365832128 94.302264486661116  4.5100777591009882 94.129600314377385  4.6963511901939343 93.957435506135852  4.8828962291852571 93.785765619799875  5.0697093605057875 93.614586287941606 
 0 8 0.48925957415456284 6 1 8
7 0 0  7 14 3  1.5707963267948966 -2.5332883312615935  1.5747233058061014 -2.7124329440053212  1.5783126364788309 -2.8775479690377495  1.5824154160370667 -3.0679969378374556  1.5859023419957357 -3.2314441686003033  1.5898174353795289 -3.4163499742359509  1.5934671822125637 -3.5904124276020641  1.601005778507584 -3.9529235455184741  1.6048268210301704 -4.1383602084250199  1.6086191575526378 -4.3240795365831977  1.612383172234727 -4.5100777591009713  1.6161192414148 -4.6963511901939228  1.619827733609839 -4.8828962291852545  1.6235090095154483 -5.0697093605057857 
 0 8 0.48925957415456284 6 1 8
1 0 -5.0697093605057857 1 0 
1 6.2831853071795862 0 -1 -0 
8 1.0348716452453777 1.5716147746823979
1 4.7123882333089497 0 0 1 
8 1.0348716452453777 1.5716147746823979
1 0 96.000002988300736 1 0 
1 0 1.5716147746823974 1 0 
8 4.7123882333089497 6.2831853071795862
1 0 0.26158872362064778 1 0 
8 0 1.0476188795536032
1 6.2831853071795862 96.000002988300736 -1 -0 
8 0 1.0476188795536032
1 4.7123882333089497 0.26158872362064778 0 1 
1 0 1.3092076031742514 1 0 
8 4.7123882333089497 6.2831853071795862
1 0 0 1 0 
8 0 2.5332986839578275
1 0 96.000002988300736 1 0 
8 0 2.5332986839578275
1 4.7123882333089497 0 0 1 
1 6.2831853071795827 2.533298683958972 -1 -7.2855871252906526e-013 
8 1.0348716452453777 1.5716147746823974
1 0 -5.7081091475179934e-019 1 0 
8 1.0348716452453777 1.5716147746823974
1 4.7123889803846897 0 -0 -1 
8 0 96.000002988300736
1 6.2831853071795862 0 0 1 
1 1.5716147746823974 -4.9843124725297714e-017 0 1 
8 3.4031813772104407 4.4508002567640439
1 4.7123889803846897 0 0 1 
8 3.4031813772104407 4.4508002567640439
1 9.6863666843900269 0 -1 -0 
1 5.235566427625983 0 0 1 
1 0 0 1.1829268600964296e-016 1 
8 -0 5.0697093605057857
1 4.7123889803846897 0 -0 -1 
8 -0 5.0697093605057857
1 0 -2.7977251248915799e-016 1 0 
1 5.0697093605057866 -5.9970953754245878e-016 -1.2325951644078309e-032 1 
1 0 0 1 0 
1 0 -1.5716147746823974 1 0 
8 1.5707963267948966 4.7123889803846897
1 0 3.4031813772104407 1 0 
1 0 4.4508002567640439 1 0 
8 1.5707963267948966 4.7123889803846897
1 0 -0 1 0 
1 0 -5.0697093605057857 1 0 
1 6.2831853071795862 0 -1 -0 
1 0 -1.5716147746823974 1 0 
8 0 1.5707970738706383
1 0 3.4031813772104407 1 0 
1 0 4.4508002567640439 1 0 
8 0 1.5707970738706383
1 0 -0 1 0 
1 0 -5.0697093605057857 1 0 
1 6.2831853071795862 0 -1 -0 
1 1.5707963267948966 0 0 -1 
1 6.2831853071795862 0 0 -1 
1 4.6596762976641379 0 0 -1 
1 93.614586287941592 0 0 -1 
2 64.06142623789016 31.310669475089433 7.4707574092622534e-007 -0.999999999999721 0.999999999999721 7.4707574092622534e-007 46.500000000000007
1 0 0 1 0 
1 0 -6.7560000000000002 1 0 
1 0 0 0 -1 
1 1.5707963267948966 0 0 -1 
1 -75.988573762098667 33.760639554706017 1 0 
1 4.7123889803846897 0 0 -1 
1 -1.4210854715202004e-014 0 0 -1 
2 -75.988573762098667 -12.73936044529399 1 0 -0 1 46.500000000000007
1 0 0 1 0 
1 0 -6.7560000000000002 1 0 
1 96.000002988300736 0 0 -1 
1 4.712388233308948 0 0 -1 
1 -75.988573762098667 -59.239360445293997 1 0 
2 20.011429226202065 31.310636566405279 0.999999999999721 7.4707574117115465e-007 -7.4707574117115465e-007 0.999999999999721 90.549997011700384
1 0 0 1 0 
1 0 -6.7560000000000002 1 0 
Curves 64
8 -1.0348716452453777 -0
1 103.84342623787907 31.310699195256557 0.51800000000000002 -0.25896931395426676 -1.9346969209444237e-007 -0.96588554934320192 
2 64.06142623789016 31.310669475089433 0.51800000000000002 -0 0 1 7.4707574114997417e-007 -0.999999999999721 0 0.999999999999721 7.4707574114997417e-007 0 39.782000000000004
8 -1.0348716452453777 -0
1 24.279426237901255 31.310639754922306 0.51800000000000002 0.25896931395426687 1.9346969210996639e-007 -0.96588554934320192 
2 64.06142623789016 31.310669475089433 1.5175675675675349 -0 0 1 7.4707574114997417e-007 -0.999999999999721 0 0.999999999999721 7.4707574114997417e-007 0 40.049999999999997
2 20.011429226202065 31.310636566405279 0.51800000000000002 0 -0 -1 0.999999999999721 7.4707574117526541e-007 0 7.4707574117526541e-007 -0.999999999999721 0 4.2679970117003814
8 -1.0348716452453777 0
1 20.011429226202065 27.042639554704898 0.51800000000000002 1.0641116097678165e-016 -0.2589693139543392 -0.96588554934320192 
2 20.011429226202065 31.310636566405279 1.5175675675675349 0 -0 -1 0.999999999999721 7.4707574117526541e-007 0 7.4707574117526541e-007 -0.999999999999721 0 3.9999970117003878
1 -75.988573762098667 27.042639554706014 0.51800000000000002 -1 -0 0 
8 -1.0348716452453777 -0
1 -75.988573762098667 27.042639554706014 0.51800000000000002 0 -0.25896931395433903 -0.96588554934320192 
1 -75.988573762098667 27.310639554706007 1.5175675675675349 -1 -0 0 
2 -75.988573762098667 -12.73936044529399 0.51800000000000002 0 -0 1 1 0 0 -0 1 0 39.782000000000004
8 -1.0348716452453777 -0
1 -75.988573762098682 -52.521360445293993 0.51800000000000002 4.7571891211735088e-017 0.25896931395433903 -0.96588554934320192 
2 -75.988573762098667 -12.73936044529399 1.5175675675675349 0 -0 1 1 0 0 -0 1 0 40.049999999999997
1 -75.988573762098667 -52.521360445293993 0.51800000000000002 1 0 0 
8 -1.0348716452453777 -0
1 20.011429226202068 -52.521360445293993 0.51800000000000002 -0 0.25896931395433903 -0.96588554934320192 
1 -75.988573762098667 -52.789360445293987 1.5175675675675349 1 0 0 
2 20.011429226202065 31.310636566405279 0.51800000000000002 0 -0 1 0.999999999999721 7.4707574115126145e-007 0 -7.4707574115126145e-007 0.999999999999721 0 83.831997011700395
2 20.011429226202065 31.310636566405279 1.5175675675675349 0 -0 1 0.999999999999721 7.4707574115126145e-007 0 -7.4707574115126145e-007 0.999999999999721 0 84.099997011700395
8 1.0348716452453777 1.5716147746823974
1 20.011429226202004 -52.521360445295102 0.51800000000000002 -1.8469034607199826e-016 -0.2589693139543392 0.96588554934320192 
8 1.0348716452453772 1.5716147746823974
1 -75.988573762098667 -52.521360445293993 0.51800000000000002 -3.1714594141156729e-017 -0.25896931395433903 0.96588554934320192 
1 -75.988573762098667 -52.928360445293997 2.036 -1 8.2131066870756587e-018 -3.063266818422786e-017 
8 3.4031813772104407 4.4508002567640439
2 20.011429226202079 -54.859324825242325 1.5190356200527844 1 1.7004609932603706e-016 0 1.7004609932603706e-016 -1 0 0 0 -1 1.9989686357617356
8 0 1.0476188795536032
2 -75.988573762098667 -54.85932482524121 1.5190356200527844 1 -0 -0 0 0.9659803287565798 0.25861555339022069 0 -0.25861555339022069 0.9659803287565798 1.9989686357617356
1 -75.988573762098667 -54.342360445293998 3.4499999999999984 -1 0 0 
8 -0 5.0697093605057857
1 20.011429226202079 -54.342360445295128 3.4500000000000002 1.7424939444766812e-016 -0.96593308447793225 0.25879195565347091 
8 -1.1356098210419837e-014 5.0697093605057892
1 -75.988573762098667 -54.342360445293998 3.4500000000000002 -1.1829268600964296e-016 -0.96593308447793214 0.25879195565347096 
1 -75.988573762098667 -59.239360445293997 4.7620000000000005 -1 1.1426281906847396e-016 -3.0613195551937488e-017 
8 1.0348716452453777 1.5716147746823974
1 103.84342623787907 31.310699195256561 0.51800000000000002 0.25896931395426692 1.9346969211260161e-007 0.96588554934320192 
8 1.0348716452453777 1.5716147746823974
1 24.279426237901255 31.310639754922306 0.51800000000000002 -0.25896931395426676 -1.9346969185620482e-007 0.96588554934320192 
2 64.06142623789016 31.310669475089433 2.036 -0 -0 -1 7.4707574079275592e-007 -0.999999999999721 0 -0.999999999999721 -7.4707574079275592e-007 0 40.189000000000007
8 3.4031813772104407 4.4508002567640439
2 106.18139061782563 31.310700941893032 1.5190356200527844 -7.4707574097444787e-007 0.999999999999721 0 0.999999999999721 7.4707574097444787e-007 -0 -0 0 -1 1.9989686357617356
8 0.26158872362064778 1.3092076031742514
2 21.941461857954693 31.310638008285835 1.5190356200527844 7.4707574054926709e-007 -0.999999999999721 -0 0.999999999999721 7.4707574054926709e-007 0 0 -0 1 1.9989686357617356
2 64.06142623789016 31.310669475089433 3.4499999999999984 -0 -0 -1 7.4707574079075089e-007 -0.999999999999721 0 -0.999999999999721 -7.4707574079075089e-007 0 41.603000000000009
8 -0 5.0697093605057857
1 105.66442623787856 31.310700555681478 3.4500000000000002 0.96593308447766268 7.2162517467196823e-007 0.25879195565347091 
8 0 2.533298683958972
1 22.458426237901758 31.310638394497378 3.4500000000000002 -0.96593308447766268 -7.2162517273349903e-007 0.25879195565347091 
7 0 0  7 14 3  20.011429226202068 31.310626566435456 4.1055946414925515  19.838437036813293 31.483668274614732 4.1519558261232934  19.679593067202379 31.643158340427021 4.1946862664579232  19.497312378690864 31.827119299733987 4.2439729274076257  19.341521864766754 31.984998388032253 4.2862717560314216  19.16603575982144 32.163605022871167 4.3341238910054471  19.001590722201502 32.331737705470466 4.3791698537467063  18.660535303346705 32.681899187734068 4.4729848148933815  18.486858777733737 32.861018595510735 4.5209743315368183  18.313690724562402 33.040411039005768 4.5690369996735187  18.141026552278671 33.220072875789775 4.6171718434269611  17.968861744037184 33.400000545641639 4.665377908945791  17.797191857701268 33.580190570548545 4.7136542644038144  17.626012525842924 33.76063955470601 4.761999999999996 
 0 8 0.48925957415456284 6 1 8
2 64.06142623789016 31.310669475089433 4.7619999999999996 -0 -0 -1 7.4707574063948065e-007 -0.999999999999721 0 -0.999999999999721 -7.4707574063948065e-007 0 46.500000000000007
8 1.0348716452453777 1.5716147746823979
1 20.011429226202068 27.042639554706014 0.51799999999999713 3.1714594141156729e-017 0.25896931395433903 0.96588554934320192 
2 20.011429226202065 31.310636566405279 2.036 0 -0 1 0.999999999999721 7.4707574200767317e-007 0 -7.4707574200767317e-007 0.999999999999721 0 3.8609970117003778
8 0 1.0476188795536032
2 20.011429226202068 29.38060393465323 1.5190356200527844 -1 -0 -0 0 -0.9659803287565798 0.25861555339022069 -0 0.25861555339022069 0.9659803287565798 1.9989686357617356
2 20.011429226202065 31.310636566405279 3.4499999999999988 0 -0 1 0.999999999999721 7.4707574168237482e-007 0 -7.4707574168237482e-007 0.999999999999721 0 2.4469970117003772
8 0 2.5332986839578275
1 20.011429226202068 28.863639554706008 3.4499999999999971 1.1829268600964296e-016 0.96593308447793214 0.25879195565347096 
8 1.0348716452453777 1.5716147746823974
1 -75.988573762098667 27.042639554706014 0.51800000000000002 4.4936662815228053e-017 0.2589693139543392 0.96588554934320192 
1 -75.988573762098667 27.449639554706017 2.036 1 -8.2131066870756587e-018 -3.063266818422786e-017 
8 3.4031813772104407 4.4508002567640439
2 -75.988573762098667 29.38060393465323 1.5190356200527844 -1 1.5369297853842775e-016 -0 1.5369297853842775e-016 1 -0 0 -0 -1 1.9989686357617356
1 -75.988573762098667 28.863639554706019 3.4499999999999984 1 0 0 
8 -0 5.0697093605057857
1 -75.988573762098667 28.863639554706019 3.4500000000000002 1.5250676162858616e-016 0.96593308447793202 0.25879195565347113 
1 -75.988573762098667 33.760639554706017 4.7620000000000005 1 -1.1426281906847396e-016 -3.0613195551937488e-017 
2 -75.988573762098667 -12.73936044529399 2.036 0 -0 -1 1 -3.5721820710879297e-016 0 -3.5721820710879297e-016 -1 0 40.189000000000007
2 -75.988573762098667 -12.73936044529399 3.4499999999999984 0 -0 -1 1 -3.3738999841053072e-016 0 -3.3738999841053072e-016 -1 0 41.603000000000009
2 -75.988573762098667 -12.73936044529399 4.7620000000000005 0 -0 -1 1 -3.4158245115020552e-016 0 -3.4158245115020552e-016 -1 0 46.500000000000007
2 20.011429226202065 31.310636566405279 2.036 0 -0 -1 0.999999999999721 7.4707574093936663e-007 0 7.4707574093936663e-007 -0.999999999999721 0 84.238997011700405
2 20.011429226202065 31.310636566405279 3.4499999999999984 0 -0 -1 0.999999999999721 7.4707574093440884e-007 0 7.4707574093440884e-007 -0.999999999999721 0 85.652997011700393
2 20.011429226202065 31.310636566405279 4.7619999999999996 0 -0 -1 0.999999999999721 7.4707574094475757e-007 0 7.4707574094475757e-007 -0.999999999999721 0 90.549997011700412
1 110.56142623787719 31.310704214111382 4.7620000000000005 0 0 1 
1 17.626012525842924 33.760639554706025 4.7620000000000005 0 0 1 
2 64.06142623789016 31.310669475089433 4.7620000000000005 0 -0 1 7.4707574092622534e-007 -0.999999999999721 -0 0.999999999999721 7.4707574092622534e-007 0 46.500000000000007
1 -75.988573762098667 33.760639554706017 4.7620000000000005 0 0 1 
1 -75.988573762098667 33.760639554706017 4.7620000000000005 1 0 0 
1 -75.988573762098682 -59.239360445293997 4.7620000000000005 0 0 1 
2 -75.988573762098667 -12.73936044529399 4.7620000000000005 0 -0 1 1 0 0 -0 1 0 46.500000000000007
1 20.011429226202068 -59.239360445293997 4.7620000000000005 0 0 1 
1 -75.988573762098667 -59.239360445293997 4.7620000000000005 1 0 0 
2 20.011429226202065 31.310636566405279 4.7620000000000005 0 -0 1 0.999999999999721 7.4707574117115465e-007 0 -7.4707574117115465e-007 0.999999999999721 0 90.549997011700384
Polygon3D 0
PolygonOnTriangulations 0
Surfaces 32
10 1.5707963267948966 4.7123889803846897 0 1.0348716452453777
3 64.06142623789016 31.310669475089433 0.51800000000000002 -0 0 1 7.4707574114997417e-007 -0.999999999999721 0 0.999999999999721 7.4707574114997417e-007 0 39.782000000000004
0.26195496080530395
10 4.712388233308948 6.2831853071795862 0 1.0348716452453777
3 20.011429226202065 31.310636566405279 0.51800000000000002 0 -0 1 0.999999999999721 7.4707574115126145e-007 0 -7.4707574115126145e-007 0.999999999999721 0 83.831997011700395
0.26195496080530384
10 0 1.5707970738706361 -1.0348716452453777 -0
3 20.011429226202065 31.310636566405279 0.51800000000000002 0 -0 -1 0.999999999999721 7.4707574117526541e-007 0 7.4707574117526541e-007 -0.999999999999721 0 4.2679970117003814
0.261954960805304
10 1.5707963267948966 4.7123889803846897 -1.5716147746823974 -1.0348716452453777
3 64.06142623789016 31.310669475089433 0.51800000000000002 -0 -0 -1 7.4707574079275592e-007 -0.999999999999721 0 -0.999999999999721 -7.4707574079275592e-007 0 39.782000000000004
-0.261954960805304
1 -75.988573762098667 27.042639554706014 0.51800000000000002 0 -0.96588554934320192 0.25896931395433903 -0 0.25896931395433903 0.96588554934320192 -1 -0 0 
10 4.7123882333089497 6.2831853071795862 1.0348716452453777 1.5716147746823974
3 20.011429226202065 31.310636566405279 0.51800000000000002 0 -0 1 0.999999999999721 7.4707574200767317e-007 0 -7.4707574200767317e-007 0.999999999999721 0 4.2679970117003814
-0.26195496080530384
10 1.5707963267948966 4.7123889803846897 0 1.0348716452453777
3 -75.988573762098667 -12.73936044529399 0.51800000000000002 0 -0 1 1 0 0 -0 1 0 39.782000000000004
0.26195496080530384
1 -75.988573762098667 27.042639554706014 0.51800000000000002 0 0.96588554934320192 -0.25896931395433903 3.1714594141156729e-017 0.25896931395433903 0.96588554934320192 1 -8.2131066870756587e-018 -3.063266818422786e-017 
1 -75.988573762098667 -52.521360445293993 0.51800000000000002 -0 0.96588554934320192 0.25896931395433903 0 -0.25896931395433903 0.96588554934320192 1 0 0 
10 1.5707963267948966 4.7123889803846897 -1.5716147746823974 -1.0348716452453777
3 -75.988573762098667 -12.73936044529399 0.51800000000000002 0 -0 -1 1 -3.5721820710879297e-016 0 -3.5721820710879297e-016 -1 0 39.782000000000004
-0.261954960805304
1 -75.988573762098667 -52.521360445293993 0.51800000000000002 -0 -0.96588554934320192 -0.25896931395433903 -3.1714594141156729e-017 -0.25896931395433903 0.96588554934320192 -1 8.2131066870756587e-018 -3.063266818422786e-017 
10 0 1.5707970738706383 -1.5716147746823974 -1.0348716452453777
3 20.011429226202065 31.310636566405279 0.51800000000000002 0 -0 -1 0.999999999999721 7.4707574093936663e-007 0 7.4707574093936663e-007 -0.999999999999721 0 83.831997011700395
-0.261954960805304
10 5.235566427625983 6.2831853071795862 -96.000002988300665 -0
2 -75.988573762098667 -54.85932482524121 1.5190356200527844 -1 0 0 0 0.9659803287565798 0.25861555339022069 0 0.25861555339022069 -0.9659803287565798 1.9989686357617356
10 0 1.5707970738706383 3.4031813772104407 4.4508002567640439
5 20.011429226202065 31.310636566405279 1.5190356200527844 0 -0 -1 0.999999999999721 7.4707574093440884e-007 0 7.4707574093440884e-007 -0.999999999999721 0 86.169961391647604 1.9989686357617356
10 1.5707963267948966 4.7123889803846897 3.4031813772104407 4.4508002567640439
5 -75.988573762098667 -12.73936044529399 1.5190356200527844 0 -0 -1 1 -3.3738999841053072e-016 0 -3.3738999841053072e-016 -1 0 42.11996437994722 1.9989686357617356
1 -75.988573762098667 -54.342360445293998 3.4500000000000002 -0 -0.25879195565347096 -0.96593308447793214 -1.1829268600964296e-016 -0.96593308447793214 0.25879195565347096 -1 1.1426281906847396e-016 -3.0613195551937488e-017 
10 0 1.5707970738706383 -5.0697093605057857 -0
3 20.011429226202065 31.310636566405279 3.4500000000000002 0 -0 -1 0.999999999999721 7.4707574094475757e-007 0 7.4707574094475757e-007 -0.999999999999721 0 85.652997011700407
-1.309024983951719
10 1.5707963267948966 4.7123889803846897 -5.0697093605057857 -0
3 -75.988573762098667 -12.73936044529399 3.4500000000000002 0 -0 -1 1 -3.4158245115020552e-016 0 -3.4158245115020552e-016 -1 0 41.603000000000009
-1.3090249839517187
1 -75.988573762098667 -59.239360445293997 4.7620000000000005 0 1 0 1 0 0 0 0 -1 
10 1.5707963267948966 4.7123889803846897 3.4031813772104407 4.4508002567640439
5 64.06142623789016 31.310669475089433 1.5190356200527844 -0 -0 -1 7.4707574079075089e-007 -0.999999999999721 0 -0.999999999999721 -7.4707574079075089e-007 0 42.11996437994722 1.9989686357617356
10 4.7123882333089497 6.2831853071795862 0.26158872362064778 1.3092076031742514
5 20.011429226202065 31.310636566405279 1.5190356200527844 0 -0 1 0.999999999999721 7.4707574168237482e-007 0 -7.4707574168237482e-007 0.999999999999721 0 1.9300326317531664 1.9989686357617356
10 1.5707963267948966 4.7123889803846897 -5.0697093605057857 -0
3 64.06142623789016 31.310669475089433 3.4500000000000002 -0 -0 -1 7.4707574063948065e-007 -0.999999999999721 0 -0.999999999999721 -7.4707574063948065e-007 0 41.603000000000009
-1.309024983951719
10 4.7123882333089497 6.2831853071795862 0 5.0697093605057857
3 20.011429226202065 31.310636566405279 3.4500000000000002 0 -0 1 0.999999999999721 7.4707574261398486e-007 0 -7.4707574261398486e-007 0.999999999999721 0 2.4469970117003763
-1.309024983951719
1 -75.988573762098667 28.863639554706019 3.4500000000000002 0 0.25879195565347096 -0.96593308447793214 1.1829268600964296e-016 0.96593308447793214 0.25879195565347096 1 -1.1426281906847396e-016 -3.0613195551937488e-017 
2 64.06142623789016 31.310669475089433 4.7620000000000005 -0 0 -1 7.4707574092622534e-007 -0.999999999999721 -0 0.999999999999721 7.4707574092622534e-007 0 46.500000000000007
10 5.235566427625983 6.2831853071795862 0 96.000002988300736
2 -75.988573762098667 29.38060393465323 1.5190356200527844 1 0 0 0 -0.9659803287565798 0.25861555339022069 0 -0.25861555339022069 -0.9659803287565798 1.9989686357617356
1 -75.988573762098667 33.760639554706017 4.7620000000000005 0 1 0 1 0 0 0 0 -1 
2 -75.988573762098667 -12.73936044529399 4.7620000000000005 -0 0 -1 1 0 0 -0 1 0 46.500000000000007
2 20.011429226202065 31.310636566405279 4.7620000000000005 -0 0 -1 0.999999999999721 7.4707574117115465e-007 0 -7.4707574117115465e-007 0.999999999999721 0 90.549997011700384
1 0 0 4.7620000000000005 0 0 1 1 0 -0 -0 1 0 
1 0 0 0.51800000000000002 0 0 1 1 0 -0 -0 1 0 
1 0 0 11.518000000000001 0 0 1 1 0 -0 -0 1 0 
Triangulations 0

TShapes 164
Ve
0.0001
104.111426237879 31.3106993954729 1.51756756756753
0 0

0101101
*
Ve
0.001
103.843426237879 31.3106991952566 0.518
0 0

0101101
*
Ed
 1e-007 1 1 0
1  1 0 -1.03487164524538 -0
2  1 2 0 -1.03487164524538 -0
2  2 1 0 -1.03487164524538 -0
4 G1 2 0 1 0
0

0101000
+164 0 -163 0 *
Ve
0.001
24.2794262379013 31.3106397549223 0.518
0 0

0101101
*
Ed
 1e-007 1 1 0
1  2 0 1.5707963267949 4.71238898038469
2  3 1 0 1.5707963267949 4.71238898038469
0

0101000
+163 0 -161 0 *
Ve
0.0001
24.0114262379013 31.310639554706 1.51756756756753
0 0

0101101
*
Ed
 1e-007 1 1 0
1  3 0 -1.03487164524538 -0
2  4 1 0 -1.03487164524538 -0
2  5 3 0 -1.03487164524538 -0
4 G1 1 0 3 0
0

0101000
+159 0 -161 0 *
Ed
 1e-007 1 1 0
1  4 0 1.5707963267949 4.71238898038469
2  6 1 0 1.5707963267949 4.71238898038469
2  7 4 0 1.5707963267949 4.71238898038469
4 C2 4 0 1 0
0

0101000
+164 0 -159 0 *
Wi

0101000
+162 0 +160 0 -158 0 -157 0 *
Fa
0  1e-007 1 0

0111000
+156 0 *
Ve
0.001
20.0114292262021 27.0426395547049 0.518
0 0

0101101
*
Ed
 1e-007 1 1 0
1  5 0 0 1.57079707387064
2  8 3 0 0 1.57079707387064
0

0101000
+161 0 -154 0 *
Ve
0.0001
20.0114292262021 27.3106395547049 1.51756756756753
0 0

0101101
*
Ed
 1e-007 1 1 0
1  6 0 -1.03487164524538 0
2  9 3 0 -1.03487164524538 0
2  10 5 0 -1.03487164524538 0
4 G1 3 0 5 0
0

0101000
+152 0 -154 0 *
Ed
 1e-007 1 1 0
1  7 0 0 1.57079707387064
2  11 3 0 0 1.57079707387064
2  12 6 0 0 1.57079707387064
4 C2 6 0 3 0
0

0101000
+159 0 -152 0 *
Wi

0101000
-158 0 -153 0 +151 0 +150 0 *
Fa
0  1e-007 3 0

0101000
+149 0 *
Ve
0.001
-75.9885737620987 27.042639554706 0.518
0 0

0101101
*
Ed
 1e-007 1 1 0
1  8 0 -96.0000029883007 0
2  13 5 0 -96.0000029883007 0
0

0101000
+154 0 -147 0 *
Ve
0.0001
-75.9885737620987 27.310639554706 1.51756756756753
0 0

0101101
*
Ed
 1e-007 1 1 0
1  9 0 -1.03487164524538 -0
2  14 5 0 -1.03487164524538 -0
2  15 7 0 -1.03487164524538 -0
4 G1 5 0 7 0
0

0101000
+145 0 -147 0 *
Ed
 1e-007 1 1 0
1  10 0 -96.0000029883007 0
2  16 5 0 -96.0000029883007 0
2  17 8 0 -96.0000029883007 0
4 C2 8 0 5 0
0

0101000
+152 0 -145 0 *
Wi

0101000
-151 0 -146 0 +144 0 +143 0 *
Fa
0  1e-007 5 0

0101000
+142 0 *
Ve
0.001
-75.9885737620987 -52.521360445294 0.518
0 0

0101101
*
Ed
 1e-007 1 1 0
1  11 0 1.5707963267949 4.71238898038469
2  18 7 0 1.5707963267949 4.71238898038469
0

0101000
+147 0 -140 0 *
Ve
0.0001
-75.9885737620987 -52.789360445294 1.51756756756753
0 0

0101101
*
Ed
 1e-007 1 1 0
1  12 0 -1.03487164524538 -0
2  19 7 0 -1.03487164524538 -0
2  20 9 0 -1.03487164524538 -0
4 G1 7 0 9 0
0

0101000
+138 0 -140 0 *
Ed
 1e-007 1 1 0
1  13 0 1.5707963267949 4.71238898038469
2  21 7 0 1.5707963267949 4.71238898038469
2  22 10 0 1.5707963267949 4.71238898038469
4 C2 10 0 7 0
0

0101000
+145 0 -138 0 *
Wi

0101000
+144 0 +139 0 -137 0 -136 0 *
Fa
0  1e-007 7 0

0101000
+135 0 *
Ve
0.001
20.0114292262021 -52.521360445294 0.518
0 0

0101101
*
Ed
 1e-007 1 1 0
1  14 0 0 96.0000029883007
2  23 9 0 0 96.0000029883007
0

0101000
+140 0 -133 0 *
Ve
0.0001
20.0114292262021 -52.789360445294 1.51756756756753
0 0

0101101
*
Ed
 1e-007 1 1 0
1  15 0 -1.03487164524538 -0
2  24 9 0 -1.03487164524538 -0
2  25 2 0 -1.03487164524538 -0
4 G1 9 0 2 0
0

0101000
+131 0 -133 0 *
Ed
 1e-007 1 1 0
1  16 0 0 96.0000029883007
2  26 9 0 0 96.0000029883007
2  27 11 0 0 96.0000029883007
4 C2 11 0 9 0
0

0101000
+138 0 -131 0 *
Wi

0101000
-137 0 -132 0 +130 0 +129 0 *
Fa
0  1e-007 9 0

0101000
+128 0 *
Ed
 1e-007 1 1 0
1  17 0 4.71238823330895 6.28318530717959
2  28 2 0 4.71238823330895 6.28318530717959
0

0101000
+133 0 -163 0 *
Ed
 1e-007 1 1 0
1  18 0 4.71238823330895 6.28318530717959
2  29 2 0 4.71238823330895 6.28318530717959
2  30 12 0 4.71238823330895 6.28318530717959
4 C2 12 0 2 0
0

0101000
+131 0 -164 0 *
Wi

0101000
-162 0 +126 0 +130 0 -125 0 *
Fa
0  1e-007 2 0

0101000
+124 0 *
Ve
0.0001
20.0114292262021 -52.9283604452951 2.036
0 0

0101101
*
Ed
 1e-007 1 1 0
1  19 0 1.03487164524538 1.5716147746824
4 G1 12 0 11 0
2  31 11 0 1.03487164524538 1.5716147746824
2  32 12 0 1.03487164524538 1.5716147746824
0

0101000
+131 0 -122 0 *
Ve
0.0001
-75.9885737620987 -52.928360445294 2.036
0 0

0101101
*
Ed
 1e-007 1 1 0
1  20 0 1.03487164524538 1.5716147746824
4 G1 11 0 10 0
2  33 11 0 1.03487164524538 1.5716147746824
2  34 10 0 1.03487164524538 1.5716147746824
0

0101000
+138 0 -120 0 *
Ed
 1e-007 1 1 0
1  21 0 -96.0000029883007 0
2  35 13 0 -96.0000029883007 0
2  36 11 0 -96.0000029883007 0
4 G1 11 0 13 0
0

0101000
+122 0 -120 0 *
Wi

0101000
+121 0 +129 0 -119 0 +118 0 *
Fa
0  1e-007 11 0

0101000
+117 0 *
Ve
0.0001
20.0114292262021 -54.3423604452951 3.45
0 0

0101101
*
Ed
 1e-007 1 1 0
1  22 0 3.40318137721044 4.45080025676404
2  37 14 0 3.40318137721044 4.45080025676404
2  38 13 0 3.40318137721044 4.45080025676404
4 G1 14 0 13 0
0

0101000
+122 0 -115 0 *
Ve
0.0001
-75.9885737620987 -54.342360445294 3.45
0 0

0101101
*
Ed
 1e-007 1 1 0
1  23 0 0 1.0476188795536
2  39 13 0 0 1.0476188795536
2  40 15 0 0 1.0476188795536
4 G1 13 0 15 0
0

0101000
+120 0 -113 0 *
Ed
 1e-007 1 1 0
1  24 0 -96.0000029883007 0
2  41 13 0 -96.0000029883007 0
2  42 16 0 -96.0000029883007 0
4 G1 13 0 16 0
0

0101000
+115 0 -113 0 *
Wi

0101000
-114 0 +118 0 +112 0 -111 0 *
Fa
0  1e-007 13 0

0101000
+110 0 *
Ve
0.0001
20.0114292262021 -59.2393604452951 4.762
0 0

0101101
*
Ed
 1e-007 1 1 0
1  25 0 -0 5.06970936050579
2  43 17 0 -0 5.06970936050579
2  44 16 0 -0 5.06970936050579
4 G1 17 0 16 0
0

0101000
+115 0 -108 0 *
Ve
0.0001
-75.9885737620987 -59.239360445294 4.762
0 0

0101101
*
Ed
 1e-007 1 1 0
1  26 0 -1.13560982104198e-014 5.06970936050579
2  45 16 0 -1.13560982104198e-014 5.06970936050579
2  46 18 0 -1.13560982104198e-014 5.06970936050579
4 G1 16 0 18 0
0

0101000
+113 0 -106 0 *
Ed
 0.0001 1 1 0
1  27 0 -96.0000029883007 0
2  47 16 0 -96.0000029883007 0
2  48 19 0 -96.0000029883007 0
0

0101000
+108 0 -106 0 *
Wi

0101000
+107 0 -111 0 -105 0 +104 0 *
Fa
0  1e-007 16 0

0101000
+103 0 *
Ve
0.0001
104.250426237879 31.3106994993164 2.036
0 0

0101101
*
Ed
 1e-007 1 1 0
1  28 0 1.03487164524538 1.5716147746824
4 G1 4 0 12 0
2  49 4 0 1.03487164524538 1.5716147746824
2  50 12 0 1.03487164524538 1.5716147746824
0

0101000
+164 0 -101 0 *
Ve
0.0001
23.8724262379014 31.3106394508625 2.036
0 0

0101101
*
Ed
 1e-007 1 1 0
1  29 0 1.03487164524538 1.5716147746824
4 G1 6 0 4 0
2  51 4 0 1.03487164524538 1.5716147746824
2  52 6 0 1.03487164524538 1.5716147746824
0

0101000
+159 0 -99 0 *
Ed
 1e-007 1 1 0
1  30 0 1.5707963267949 4.71238898038469
2  53 4 0 1.5707963267949 4.71238898038469
2  54 20 0 1.5707963267949 4.71238898038469
4 G1 4 0 20 0
0

0101000
+99 0 -101 0 *
Wi

0101000
-100 0 +157 0 +98 0 +97 0 *
Fa
0  1e-007 4 0

0101000
+96 0 *
Ve
0.0001
105.664426237879 31.3107005556815 3.45
0 0

0101101
*
Ed
 1e-007 1 1 0
1  31 0 3.40318137721044 4.45080025676404
2  55 20 0 3.40318137721044 4.45080025676404
2  56 14 0 3.40318137721044 4.45080025676404
4 G1 20 0 14 0
0

0101000
+101 0 -94 0 *
Ve
0.0001
22.4584262379018 31.3106383944974 3.45
0 0

0101101
*
Ed
 1e-007 1 1 0
1  32 0 0.261588723620648 1.30920760317425
2  57 21 0 0.261588723620648 1.30920760317425
2  58 20 0 0.261588723620648 1.30920760317425
4 G1 21 0 20 0
0

0101000
+99 0 -92 0 *
Ed
 1e-007 1 1 0
1  33 0 1.5707963267949 4.71238898038469
2  59 20 0 1.5707963267949 4.71238898038469
2  60 22 0 1.5707963267949 4.71238898038469
4 G1 20 0 22 0
0

0101000
+92 0 -94 0 *
Wi

0101000
+93 0 +97 0 -91 0 -90 0 *
Fa
0  1e-007 20 0

0101000
+89 0 *
Ve
0.0001
110.561426237877 31.3107042141114 4.762
0 0

0101101
*
Ed
 1e-007 1 1 0
1  34 0 -0 5.06970936050579
2  61 22 0 -0 5.06970936050579
2  62 17 0 -0 5.06970936050579
4 G1 22 0 17 0
0

0101000
+94 0 -87 0 *
Ve
0.0001
20.0114292262021 31.3106265664355 4.10559464149255
0 0

0101101
*
Ed
 1e-007 1 1 0
1  35 0 0 2.53329868395897
2  63 23 0 0 2.53329868395897
2  64 22 0 0 2.53329868395897
4 G1 23 0 22 0
0

0101000
+92 0 -85 0 *
Ve
0.0001
17.6260125258429 33.760639554706 4.762
0 0

0101101
*
Ed
 2.12131930571506e-005 1 1 0
1  36 0 0 1
2  65 24 0 0 1
2  66 22 0 0 1
4 C0 24 0 22 0
0

0101000
+85 0 -83 0 *
Ed
 0.0001 1 1 0
1  37 0 1.62350900951545 4.71238898038469
2  67 22 0 1.62350900951545 4.71238898038469
2  68 25 0 1.62350900951545 4.71238898038469
0

0101000
+83 0 -87 0 *
Wi

0101000
-86 0 -90 0 +84 0 +82 0 +81 0 *
Fa
0  1e-007 22 0

0101000
+80 0 *
Ve
0.0001
20.0114292262021 27.449639554706 2.036
0 0

0101101
*
Ed
 1e-007 1 1 0
1  38 0 1.03487164524538 1.5716147746824
4 G1 8 0 6 0
2  69 6 0 1.03487164524538 1.5716147746824
2  70 8 0 1.03487164524538 1.5716147746824
0

0101000
+152 0 -78 0 *
Ed
 1e-007 1 1 0
1  39 0 4.71238823330895 6.28318530717959
2  71 6 0 4.71238823330895 6.28318530717959
2  72 21 0 4.71238823330895 6.28318530717959
4 G1 6 0 21 0
0

0101000
+78 0 -99 0 *
Wi

0101000
-77 0 -150 0 +98 0 -76 0 *
Fa
0  1e-007 6 0

0101000
+75 0 *
Ve
0.0001
20.0114292262021 28.863639554706 3.45
0 0

0101101
*
Ed
 1e-007 1 1 0
1  40 0 0 1.0476188795536
2  73 26 0 0 1.0476188795536
2  74 21 0 0 1.0476188795536
4 G1 26 0 21 0
0

0101000
+78 0 -73 0 *
Ed
 1e-007 1 1 0
1  41 0 4.71238823330895 6.28318530717959
2  75 21 0 4.71238823330895 6.28318530717959
2  76 23 0 4.71238823330895 6.28318530717959
4 G1 21 0 23 0
0

0101000
+73 0 -92 0 *
Wi

0101000
-72 0 +76 0 +91 0 -71 0 *
Fa
0  1e-007 21 0

0101000
+70 0 *
Ed
 1e-007 1 1 0
1  42 0 0 2.53329868395783
2  77 24 0 0 2.53329868395783
2  78 23 0 0 2.53329868395783
4 G1 24 0 23 0
0

0101000
+73 0 -85 0 *
Ed
 0.0001 0 0 1
2  79 23 0 0 1.57079707387063
0

0101000
+85 0 -85 0 *
Wi

0101100
-68 0 +84 0 +71 0 +67 0 *
Fa
0  1e-007 23 0

0101000
+66 0 *
Ve
0.0001
-75.9885737620987 27.449639554706 2.036
0 0

0101101
*
Ed
 1e-007 1 1 0
1  43 0 1.03487164524538 1.5716147746824
4 G1 10 0 8 0
2  80 8 0 1.03487164524538 1.5716147746824
2  81 10 0 1.03487164524538 1.5716147746824
0

0101000
+145 0 -64 0 *
Ed
 1e-007 1 1 0
1  44 0 -0 96.0000029883007
2  82 26 0 -0 96.0000029883007
2  83 8 0 -0 96.0000029883007
4 G1 8 0 26 0
0

0101000
+64 0 -78 0 *
Wi

0101000
+63 0 +143 0 -77 0 +62 0 *
Fa
0  1e-007 8 0

0101000
+61 0 *
Ve
0.0001
-75.9885737620987 28.863639554706 3.45
0 0

0101101
*
Ed
 1e-007 1 1 0
1  45 0 3.40318137721044 4.45080025676404
2  84 15 0 3.40318137721044 4.45080025676404
2  85 26 0 3.40318137721044 4.45080025676404
4 G1 15 0 26 0
0

0101000
+64 0 -59 0 *
Ed
 1e-007 1 1 0
1  46 0 -0 96.0000029883007
2  86 26 0 -0 96.0000029883007
2  87 24 0 -0 96.0000029883007
4 G1 26 0 24 0
0

0101000
+59 0 -73 0 *
Wi

0101000
-58 0 +62 0 +72 0 -57 0 *
Fa
0  1e-007 26 0

0101000
+56 0 *
Ve
0.0001
-75.9885737620987 33.760639554706 4.762
0 0

0101101
*
Ed
 1e-007 1 1 0
1  47 0 -0 5.06970936050579
2  88 18 0 -0 5.06970936050579
2  89 24 0 -0 5.06970936050579
4 G1 18 0 24 0
0

0101000
+59 0 -54 0 *
Ed
 0.0001 1 1 0
1  48 0 -0 93.6145862879416
2  90 24 0 -0 93.6145862879416
2  91 27 0 -0 93.6145862879416
0

0101000
+54 0 -83 0 *
Wi

0101000
+53 0 -57 0 -68 0 -82 0 +52 0 *
Fa
0  1e-007 24 0

0101000
+51 0 *
Ed
 1e-007 1 1 0
1  49 0 1.5707963267949 4.71238898038469
2  92 10 0 1.5707963267949 4.71238898038469
2  93 15 0 1.5707963267949 4.71238898038469
4 G1 10 0 15 0
0

0101000
+120 0 -64 0 *
Wi

0101000
+119 0 +136 0 -63 0 +49 0 *
Fa
0  1e-007 10 0

0101000
+48 0 *
Ed
 1e-007 1 1 0
1  50 0 1.5707963267949 4.71238898038469
2  94 15 0 1.5707963267949 4.71238898038469
2  95 18 0 1.5707963267949 4.71238898038469
4 G1 15 0 18 0
0

0101000
+113 0 -59 0 *
Wi

0101000
-112 0 +49 0 +58 0 -46 0 *
Fa
0  1e-007 15 0

0101000
+45 0 *
Ed
 0.0001 1 1 0
1  51 0 1.5707963267949 4.71238898038469
2  96 18 0 1.5707963267949 4.71238898038469
2  97 28 0 1.5707963267949 4.71238898038469
0

0101000
+106 0 -54 0 *
Wi

0101000
+105 0 -46 0 -53 0 +43 0 *
Fa
0  1e-007 18 0

0101000
+42 0 *
Ed
 1e-007 1 1 0
1  52 0 0 1.57079707387064
2  98 12 0 0 1.57079707387064
2  99 14 0 0 1.57079707387064
4 G1 12 0 14 0
0

0101000
+101 0 -122 0 *
Wi

0101000
+100 0 +125 0 -121 0 +40 0 *
Fa
0  1e-007 12 0

0101000
+39 0 *
Ed
 1e-007 1 1 0
1  53 0 0 1.57079707387064
2  100 14 0 0 1.57079707387064
2  101 17 0 0 1.57079707387064
4 G1 14 0 17 0
0

0101000
+94 0 -115 0 *
Wi

0101000
-93 0 +40 0 +114 0 -37 0 *
Fa
0  1e-007 14 0

0101000
+36 0 *
Ed
 0.0001 1 1 0
1  54 0 0 1.57079707387064
2  102 17 0 0 1.57079707387064
2  103 29 0 0 1.57079707387064
0

0101000
+87 0 -108 0 *
Wi

0101000
+86 0 -37 0 -107 0 +34 0 *
Fa
0  1e-007 17 0

0101000
+33 0 *
Ve
0.001
110.561426237877 31.3107042141114 4.762
0 0

0101101
*
Ed
 0.0001 1 1 0
1  55 0 0 6.756
4 G1 25 0 29 0
2  104 25 0 0 6.756
2  105 29 0 0 6.756
0

0101000
+87 0 -31 6 *
Ve
0.001
17.6260125258429 33.760639554706 4.762
0 0

0101101
*
Ed
 0.0001 1 1 0
1  56 0 0 6.756
2  106 25 0 0 6.756
2  107 27 0 0 6.756
0

0101000
+83 0 -29 6 *
Ed
 0.0001 1 1 0
2  108 30 0 1.5707963267949 4.65967629766414
1  57 0 1.5707963267949 4.65967629766414
2  109 25 0 1.5707963267949 4.65967629766414
2  110 25 7 1.5707963267949 4.65967629766414
0

0101000
+31 0 -29 0 *
Wi

0101000
+30 0 -28 0 +81 0 +27 6 *
Fa
0  0.0001 25 0

0101000
+26 0 *
Ve
0.001
-75.9885737620987 33.760639554706 4.762
0 0

0101101
*
Ed
 0.0001 1 1 0
1  58 0 0 6.756
4 G1 27 0 28 0
2  111 27 0 0 6.756
2  112 28 0 0 6.756
0

0101000
+54 0 -24 6 *
Ed
 0.0001 1 1 0
2  113 30 0 -0 93.6145862879416
1  59 0 -0 93.6145862879416
0

0101000
+24 0 -29 0 *
Wi

0101000
+23 0 -28 0 -52 0 +22 6 *
Fa
0  0.0001 27 0

0101000
+21 0 *
Ve
0.001
-75.9885737620987 -59.239360445294 4.762
0 0

0101101
*
Ed
 0.0001 1 1 0
1  60 0 0 6.756
4 G1 28 0 19 0
2  114 28 0 0 6.756
2  115 19 0 0 6.756
0

0101000
+106 0 -19 6 *
Ed
 0.0001 1 1 0
2  116 30 0 1.5707963267949 4.71238898038469
1  61 0 1.5707963267949 4.71238898038469
2  117 28 0 1.5707963267949 4.71238898038469
2  118 28 7 1.5707963267949 4.71238898038469
0

0101000
+24 0 -19 0 *
Wi

0101000
+23 0 -18 0 +43 0 +17 6 *
Fa
0  0.0001 28 0

0101000
+16 0 *
Ve
0.001
20.0114292262021 -59.239360445294 4.762
0 0

0101101
*
Ed
 0.0001 1 1 0
1  62 0 0 6.756
4 G1 19 0 29 0
2  119 19 0 0 6.756
2  120 29 0 0 6.756
0

0101000
+108 0 -14 6 *
Ed
 0.0001 1 1 0
2  121 30 0 0 96.0000029883007
1  63 0 0 96.0000029883007
0

0101000
+19 0 -14 0 *
Wi

0101000
+18 0 -13 0 +104 0 +12 6 *
Fa
0  0.0001 19 0

0101000
+11 0 *
Ed
 0.0001 1 1 0
2  122 30 0 4.71238823330895 6.28318530717959
1  64 0 4.71238823330895 6.28318530717959
2  123 29 0 4.71238823330895 6.28318530717959
2  124 29 7 4.71238823330895 6.28318530717959
0

0101000
+14 0 -31 0 *
Wi

0101000
+13 0 -30 0 +34 0 +9 6 *
Fa
0  0.0001 29 0

0101000
+8 0 *
Wi

0101100
+153 0 +146 0 +139 0 +132 0 +126 0 +160 0 *
Fa
0  1e-007 31 0

0101000
+6 0 *
Wi

0101100
-22 6 +17 6 +12 6 +9 6 +27 6 *
Fa
0  1e-007 32 0

0111000
+4 0 *
Sh

0101000
-155 0 +148 0 +141 0 -134 0 +127 0 -123 0 -116 0 +109 0 -102 0 -95 0 
+88 0 -79 0 +74 0 +69 0 +65 0 -60 0 +55 0 -50 0 -47 0 +44 0 
-41 0 -38 0 +35 0 -32 0 +25 0 -20 0 +15 0 +10 0 +7 0 +5 0 
-3 0 *
So

0100000
-2 5 *

+1 3 