DBRep_DrawableShape

CASCADE Topology V1, (c) Matra-Datavision
Locations 6
1
              1               0               0              20 
              0               1               0               0 
              0               0               1               0 
1
              1               0               0               2 
              0               1               0               0 
              0               0               1               0 
2  2 -1 0
1
              1               0               0              20 
              0               1               0               0 
              0               0               1               0 
2  4 -1 0
2  1 -1 0
Curve2ds 10
1 0 0 0 -1 
1 6.2831853071795862 0 0 -1 
1 0 -0 0 1 
2 10 0 1 0 -0 1 2
1 0 0 1 0 
1 0 -2 1 0 
1 0 0 1 0 
1 0 -20 1 0 
1 0 0 1 0 
1 0 -20 1 0 
Curves 2
1 0 -4.8985871965894128e-016 12 1 0 0 
2 0 0 10 -1 0 0 0 0 1 0 1 -0 2
Polygon3D 0
PolygonOnTriangulations 3
2 1 2 
p 0.0800608856305321 1 0 20 
2 3 4 
p 0.0800608856305321 1 0 20 
37 1 2 3 4 5 6 7 8 9 10 11 12 13 14 15 16 17 18 19 20 21 22 23 24 25 26 27 28 29 30 31 32 33 34 35 36 1 
p 0.0173182760046783 1 0 0.174532925199433 0.349065850398866 0.523598775598299 0.698131700797732 0.872664625997165 1.0471975511966 1.22173047639603 1.39626340159546 1.5707963267949 1.74532925199433 1.91986217719376 2.0943951023932 2.26892802759263 2.44346095279206 2.6179938779915 2.79252680319093 2.96705972839036 3.1415926535898 3.31612557878923 3.49065850398866 3.66519142918809 3.83972435438753 4.01425727958696 4.18879020478639 4.36332312998583 4.53785605518526 4.71238898038469 4.88692190558413 5.06145483078356 5.23598775598299 5.41052068118242 5.58505360638186 5.75958653158129 5.93411945678072 6.10865238198015 6.28318530717959 
Surfaces 5
2 0 0 10 -1 0 0 0 0 1 0 1 -0 2
5 0 0 0 0 1 0 0 -0 1 1 0 -0 10 2
1 0 0 0 -1 -0 0 0 0 1 -0 1 0 
2 0 0 10 -1 0 0 0 0 1 0 1 -0 2
2 0 0 10 -1 0 0 0 0 1 0 1 -0 2
Triangulations 2
74 72 1 0.00761060381650992
0 -4.89858719658941e-016 12 20 -4.89858719658941e-016 12 0 -4.89858719658941e-016 12 20 -4.89858719658941e-016 12 0 0.347296355333861 11.9696155060244 0 0.684040286651338 11.8793852415718 0 1 11.7320508075689 0 1.28557521937308 11.532088886238 0 1.53208888623796 11.2855752193731 0 1.73205080756888 11 0 1.87938524157182 10.6840402866513 0 1.96961550602442 10.3472963553339 0 2 10 0 1.96961550602442 9.65270364466614 0 1.87938524157182 9.31595971334866 0 1.73205080756888 9 0 1.53208888623795 8.71442478062692 0 1.28557521937308 8.46791111376204 0 0.999999999999998 8.26794919243112 0 0.684040286651334 8.12061475842818 0 0.347296355333857 8.03038449397558 0 -4.19596273867116e-015 8 0 -0.347296355333865 8.03038449397559 0 -0.684040286651342 8.12061475842819 0 -1 8.26794919243113 0 -1.28557521937308 8.46791111376205 0 -1.53208888623796 8.71442478062693 0 -1.73205080756888 9.00000000000001 0 -1.87938524157182 9.31595971334867 0 -1.96961550602442 9.65270364466615 0 -2 10 0 -1.96961550602442 10.3472963553339 0 -1.87938524157182 10.6840402866513 0 -1.73205080756888 11 0 -1.53208888623795 11.2855752193731 0 -1.28557521937308 11.532088886238 0 -0.999999999999998 11.7320508075689 0 -0.684040286651336 11.8793852415718 0 -0.347296355333859 11.9696155060244 20 0.347296355333861 11.9696155060244 20 0.684040286651338 11.8793852415718 20 1 11.7320508075689 20 1.28557521937308 11.532088886238 20 1.53208888623796 11.2855752193731 20 1.73205080756888 11 20 1.87938524157182 10.6840402866513 20 1.96961550602442 10.3472963553339 20 2 10 20 1.96961550602442 9.65270364466614 20 1.87938524157182 9.31595971334866 20 1.73205080756888 9 20 1.53208888623795 8.71442478062692 20 1.28557521937308 8.46791111376204 20 0.999999999999998 8.26794919243112 20 0.684040286651334 8.12061475842818 20 0.347296355333857 8.03038449397558 20 -4.19596273867116e-015 8 20 -0.347296355333865 8.03038449397559 20 -0.684040286651342 8.12061475842819 20 -1 8.26794919243113 20 -1.28557521937308 8.46791111376205 20 -1.53208888623796 8.71442478062693 20 -1.73205080756888 9.00000000000001 20 -1.87938524157182 9.31595971334867 20 -1.96961550602442 9.65270364466615 20 -2 10 20 -1.96961550602442 10.3472963553339 20 -1.87938524157182 10.6840402866513 20 -1.73205080756888 11 20 -1.53208888623795 11.2855752193731 20 -1.28557521937308 11.532088886238 20 -0.999999999999998 11.7320508075689 20 -0.684040286651336 11.8793852415718 20 -0.347296355333859 11.9696155060244 0 0 0 -20 6.28318530717959 0 6.28318530717959 -20 0.174532925199433 0 0.349065850398866 0 0.523598775598299 0 0.698131700797732 0 0.872664625997165 0 1.0471975511966 0 1.22173047639603 0 1.39626340159546 0 1.5707963267949 0 1.74532925199433 0 1.91986217719376 0 2.0943951023932 0 2.26892802759263 0 2.44346095279206 0 2.6179938779915 0 2.79252680319093 0 2.96705972839036 0 3.1415926535898 0 3.31612557878923 0 3.49065850398866 0 3.66519142918809 0 3.83972435438753 0 4.01425727958696 0 4.18879020478639 0 4.36332312998583 0 4.53785605518526 0 4.71238898038469 0 4.88692190558413 0 5.06145483078356 0 5.23598775598299 0 5.41052068118242 0 5.58505360638186 0 5.75958653158129 0 5.93411945678072 0 6.10865238198015 0 0.174532925199433 -20 0.349065850398866 -20 0.523598775598299 -20 0.698131700797732 -20 0.872664625997165 -20 1.0471975511966 -20 1.22173047639603 -20 1.39626340159546 -20 1.5707963267949 -20 1.74532925199433 -20 1.91986217719376 -20 2.0943951023932 -20 2.26892802759263 -20 2.44346095279206 -20 2.6179938779915 -20 2.79252680319093 -20 2.96705972839036 -20 3.1415926535898 -20 3.31612557878923 -20 3.49065850398866 -20 3.66519142918809 -20 3.83972435438753 -20 4.01425727958696 -20 4.18879020478639 -20 4.36332312998583 -20 4.53785605518526 -20 4.71238898038469 -20 4.88692190558413 -20 5.06145483078356 -20 5.23598775598299 -20 5.41052068118242 -20 5.58505360638186 -20 5.75958653158129 -20 5.93411945678072 -20 6.10865238198015 -20 24 23 58 24 58 59 25 24 59 25 59 60 5 1 2 5 2 40 5 40 41 6 41 42 6 5 41 26 60 61 26 61 62 26 25 60 7 6 42 27 26 62 27 62 63 8 42 43 28 27 63 8 7 42 29 63 64 29 28 63 9 43 44 9 44 45 9 8 43 30 64 65 10 9 45 30 29 64 10 45 46 11 10 46 31 65 66 31 66 67 31 30 65 12 11 46 32 31 67 12 46 47 12 47 48 13 12 48 33 67 68 33 32 67 14 13 48 14 48 49 34 68 69 34 33 68 15 14 49 15 49 50 35 34 69 35 69 70 16 15 50 16 50 51 36 35 70 36 70 71 17 16 51 17 51 52 37 36 71 18 17 52 37 71 72 18 52 53 18 53 54 38 37 72 19 18 54 38 72 73 39 38 73 39 73 74 39 74 4 20 19 54 20 54 55 3 39 4 21 20 55 21 55 56 22 21 56 22 56 57 22 57 58 23 22 58 
37 36 1 2.4492935982947e-016
0 -4.89858719658941e-016 12 0 0.347296355333861 11.9696155060244 0 0.684040286651338 11.8793852415718 0 1 11.7320508075689 0 1.28557521937308 11.532088886238 0 1.53208888623796 11.2855752193731 0 1.73205080756888 11 0 1.87938524157182 10.6840402866513 0 1.96961550602442 10.3472963553339 0 2 10 0 1.96961550602442 9.65270364466614 0 1.87938524157182 9.31595971334866 0 1.73205080756888 9 0 1.53208888623795 8.71442478062692 0 1.28557521937308 8.46791111376204 0 0.999999999999998 8.26794919243112 0 0.684040286651334 8.12061475842818 0 0.347296355333857 8.03038449397558 0 -4.19596273867116e-015 8 0 -0.347296355333865 8.03038449397559 0 -0.684040286651342 8.12061475842819 0 -1 8.26794919243113 0 -1.28557521937308 8.46791111376205 0 -1.53208888623796 8.71442478062693 0 -1.73205080756888 9.00000000000001 0 -1.87938524157182 9.31595971334867 0 -1.96961550602442 9.65270364466615 0 -2 10 0 -1.96961550602442 10.3472963553339 0 -1.87938524157182 10.6840402866513 0 -1.73205080756888 11 0 -1.53208888623795 11.2855752193731 0 -1.28557521937308 11.532088886238 0 -0.999999999999998 11.7320508075689 0 -0.684040286651336 11.8793852415718 0 -0.347296355333859 11.9696155060244 0 0 10 12 0 11.9696155060244 0.347296355333861 11.8793852415718 0.684040286651338 11.7320508075689 1 11.532088886238 1.28557521937308 11.2855752193731 1.53208888623796 11 1.73205080756888 10.6840402866513 1.87938524157182 10.3472963553339 1.96961550602442 10 2 9.65270364466614 1.96961550602442 9.31595971334866 1.87938524157182 9 1.73205080756888 8.71442478062692 1.53208888623795 8.46791111376204 1.28557521937308 8.26794919243112 0.999999999999997 8.12061475842818 0.684040286651334 8.03038449397558 0.347296355333857 8 -4.21884749357559e-015 8.03038449397559 -0.347296355333865 8.12061475842819 -0.684040286651342 8.26794919243113 -1 8.46791111376205 -1.28557521937308 8.71442478062693 -1.53208888623796 9.00000000000001 -1.73205080756888 9.31595971334867 -1.87938524157182 9.65270364466615 -1.96961550602442 10 -2 10.3472963553339 -1.96961550602442 10.6840402866513 -1.87938524157182 11 -1.73205080756888 11.2855752193731 -1.53208888623795 11.532088886238 -1.28557521937308 11.7320508075689 -0.999999999999998 11.8793852415718 -0.684040286651336 11.9696155060244 -0.347296355333859 10 0 37 1 2 37 2 3 37 3 4 37 4 5 37 5 6 37 6 7 37 7 8 37 8 9 37 9 10 37 10 11 37 11 12 37 12 13 37 13 14 37 14 15 37 15 16 37 16 17 37 17 18 37 18 19 37 19 20 37 20 21 37 21 22 37 22 23 37 23 24 37 24 25 37 25 26 37 26 27 37 27 28 37 28 29 37 29 30 37 30 31 37 31 32 37 32 33 37 33 34 37 34 35 37 35 36 37 36 1 

TShapes 9
Ve
1e-007
0 -4.89858719658941e-016 12
0 0

0101101
*
Ed
 1e-007 1 1 0
1  1 0 0 20
3  1 2CN 1 0 0 20
7  1 2 1 0
0

0101000
+9 0 -9 1 *
Ed
 1e-007 1 1 0
1  2 0 0 6.28318530717959
2  3 2 0 0 6.28318530717959
2  4 3 0 0 6.28318530717959
2  5 4 0 0 6.28318530717959
2  6 4 3 0 6.28318530717959
2  7 5 0 0 6.28318530717959
2  8 5 5 0 6.28318530717959
2  9 1 0 0 6.28318530717959
2  10 1 6 0 6.28318530717959
6  3 2 0
0

0101100
+9 0 -9 0 *
Wi

0101000
+8 0 -8 0 -7 0 +7 1 *
Fa
0  1e-007 1 0
2  1
0101000
+6 0 *
Wi

0101000
+7 0 *
Fa
0  1e-007 3 0
2  2
0101000
+4 0 *
Sh

0101000
+5 0 +3 0 -3 1 *
So

1100000
+2 0 *

+1 0 