DBRep_DrawableShape

CASCADE Topology V1, (c) Matra-Datavision
Locations 7
1
             -1 -3.79335235098366e-017               0           0.365 
              0               0               1         -1.6875 
-3.79335235098366e-017               1               0              -2 
1
0.9999999981296               0 6.11620793955467e-005           0.365 
6.11620793955467e-005               0 -0.9999999981296               2 
              0               1               0          1.6875 
2  1 1 2 1 0
2  2 -1 1 -1 0
1
0.994252701955288               0 0.107058697239451          0.3744 
0.107058697239451               0 -0.994252701955288           1.825 
              0               1               0          1.6875 
2  1 1 5 1 0
2  5 -1 1 -1 0
Curve2ds 18
8 -8.8817841970012523e-016 0.10720310724512774
1 0 0 1 0 
2 -2.7755575615628914e-017 1.6355516950761688 -0.053575889968441384 -0.99856378064402551 0.99856378064402551 -0.053575889968441384 1.6980516950761686
1 -0.090974630776127108 -0.060061225288086217 0.053575889968443084 0.99856378064402551 
8 -8.8817841970012523e-016 0.10720310724512774
1 0 0 1 0 
2 -2.7755575615628914e-017 1.6355516950761688 -0.053575889968441412 -0.99856378064402551 0.99856378064402551 -0.053575889968441412 1.5730516950761686
1 0.090974630776128967 -0.060061225288086231 -0.053575889968441537 0.99856378064402551 
1 -0.13419116857746685 0.3122592061277944 0.1070586972394509 0.99425270195528848 
8 0 0.65620020000000001
1 -8.8817841970012523e-016 0 0 1 
1 0.0090898661361085674 0 0 1 
1 0 0.65620020000000001 1 0 
2 -2.7755575615628914e-017 -1.6355516950761688 -0.053575889968441412 0.99856378064402551 0.99856378064402551 0.053575889968441412 1.5730516950761686
8 0 0.65620020000000001
1 0.10720310724512774 0 0 1 
1 -0.084277644530071985 -0.064759247292416985 -0.053575889968443084 0.99856378064402551 
8 -8.8817841970012523e-016 0.10720310724512774
1 0 0.65620020000000001 1 0 
2 -2.7755575615628914e-017 -1.6355516950761688 -0.053575889968441516 0.99856378064402551 0.99856378064402551 0.053575889968441516 1.6980516950761686
1 0.084277644530073609 -0.064759247292417027 0.053575889968441537 0.99856378064402551 
8 0 0.65620020000000001
1 -8.8817841970012523e-016 0 0 1 
8 0 0.65620020000000001
1 0.10720310724512774 0 0 1 
Curves 12
2 2.0005516920170328 2.0001000337426302 1.6875 0 0 1 -0.99999999812960005 -6.1162079397201739e-005 0 6.1162079397201739e-005 -0.99999999812960005 0 1.6980516950761686
1 0.42749999999999999 2 1.6875 -1 0 0 
2 2.0005516920170328 2.0001000337426302 1.6875 0 0 1 -0.99999999812960005 -6.1162079397174255e-005 0 6.1162079397174255e-005 -0.99999999812960005 0 1.5730516950761686
1 0.42750000000000016 2.0000000000000009 1.6875 -1 0 0 
1 0.30249999999999999 2 1.6875 0 0 1 
2 2.0005516920170328 2.0001000337426302 2.3437001999999998 0 0 1 -0.99999999812960005 -6.1162079397174255e-005 0 6.1162079397174255e-005 -0.99999999812960005 0 1.5730516950761686
1 0.3025000000000001 2.0000000000000009 1.6875 0 0 1 
1 0.30249999999999999 2 2.3437001999999998 1 0 0 
2 2.0005516920170328 2.0001000337426302 2.3437001999999998 0 0 1 -0.99999999812960005 -6.1162079397070985e-005 0 6.1162079397070985e-005 -0.99999999812960005 0 1.6980516950761686
1 0.3025000000000001 2.0000000000000009 2.3437001999999998 1 0 0 
1 0.42749999999999999 2 1.6875 0 0 1 
1 0.42750000000000016 2.0000000000000009 1.6875 0 0 1 
Polygon3D 0
PolygonOnTriangulations 29
4 5 7 8 6 
p 0.00262696986116552 1 -8.88178419700125e-016 0.0357343690817087 0.0714687381634184 0.107203107245128 
4 1 3 4 2 
p 0.00262696986116552 1 -8.88178419700125e-016 0.0357343690817087 0.0714687381634184 0.107203107245128 
2 1 5 
p 0.00262696986116552 1 0 0.125 
2 1 2 
p 0.00262696986116552 1 0 0.125 
4 1 3 4 2 
p 0.00262696986116552 1 -8.88178419700125e-016 0.0357343690817087 0.0714687381634184 0.107203107245128 
4 5 7 8 6 
p 0.00262696986116552 1 -8.88178419700125e-016 0.0357343690817087 0.0714687381634184 0.107203107245128 
2 2 6 
p 0.00262696986116552 1 0 0.125 
2 1 2 
p 0.00262696986116552 1 0 0.125 
2 4 3 
p 0.0141256063747604 1 0 0.125 
2 1 5 
p 0.00262696986116552 1 0 0.6562002 
2 2 3 
p 0.00262696986116552 1 0 0.6562002 
4 5 7 8 6 
p 0.00262696986116552 1 -8.88178419700125e-016 0.0357343690817087 0.0714687381634184 0.107203107245128 
4 1 3 4 2 
p 0.00262696986116552 1 -8.88178419700125e-016 0.0357343690817087 0.0714687381634184 0.107203107245128 
2 2 6 
p 0.00262696986116552 1 0 0.6562002 
2 2 3 
p 0.00262696986116552 1 0 0.6562002 
2 3 1 
p 0.0141256063747604 1 0 0.6562002 
2 1 5 
p 0.00262696986116552 1 0 0.125 
2 3 4 
p 0.00262696986116552 1 0 0.125 
4 1 3 4 2 
p 0.00262696986116552 1 -8.88178419700125e-016 0.0357343690817087 0.0714687381634184 0.107203107245128 
4 5 7 8 6 
p 0.00262696986116552 1 -8.88178419700125e-016 0.0357343690817087 0.0714687381634184 0.107203107245128 
2 2 6 
p 0.00262696986116552 1 0 0.125 
2 3 4 
p 0.00262696986116552 1 0 0.125 
2 1 2 
p 0.0141256063747604 1 0 0.125 
2 5 1 
p 0.00262696986116552 1 0 0.6562002 
2 1 4 
p 0.00262696986116552 1 0 0.6562002 
2 6 2 
p 0.00262696986116552 1 0 0.6562002 
2 1 4 
p 0.00262696986116552 1 0 0.6562002 
2 6 2 
p 0.0141256063747604 1 0 0.6562002 
2 4 2 
p 0.0141256063747604 1 0 0.6562002 
Surfaces 8
1 0.36735437039456015 1.9123740061811925 1.6875 0 0 1 0.053636964105467963 -0.99856050196347579 0 0.99856050196347579 0.053636964105467963 0 
10 -8.8817841970012523e-016 0.10720310724512799 0 0.65620020000000001
2 2.0005516920170328 2.0001000337426302 1.6875 0 0 1 -0.99999999812960005 -6.1162079397201739e-005 0 6.1162079397201739e-005 -0.99999999812960005 0 1.6980516950761686
10 -8.8817841970012523e-016 0.10720310724512774 0 0.65620020000000001
2 2.0005516920170328 2.0001000337426302 1.6875 0 0 1 -0.99999999812960005 -6.1162079397174255e-005 0 6.1162079397174255e-005 -0.99999999812960005 0 1.5730516950761686
1 0 1.9524999999999999 1.6875 0 0 -1 -1.1102230246251565e-016 1 0 1 1.1102230246251565e-016 0 
10 1.2601031329495527e-014 0.0091749358619271134 0 0.65620020000000001
2 1.9999273442447167 1.9966008177050161 1.6875 0 0 1 -0.99993667400708885 0.011253798276181864 0 -0.011253798276181864 -0.99993667400708885 0 1.5724308778658986
1 0.36735437039456015 1.9123740061811925 2.3437001999999998 0 0 -1 0.053636964105467963 -0.99856050196347579 0 -0.99856050196347579 -0.053636964105467963 0 
1 0.30250000011690004 1.9999961773700363 1.6875 -6.1162079397547586e-005 0.99999999812960016 0 0.99999999812960016 6.1162079397547586e-005 0 0 0 -1 
1 0.37440000000000034 1.8249999999999977 2.0156000999999999 0.10705869723945222 -0.99425270195528848 -1.4586665853821844e-018 -0.99425270195528825 -0.1070586972394522 0 -1.5616294433773681e-019 1.4502831937681306e-018 -1 
Triangulations 8
9 8 1 0
0.3025000001169 1.99999617737004 1.6875 0.312259206127795 1.81830883142253 1.6875 0.303587754628638 1.9393303508874 1.6875 0.306842208404505 1.87874211569838 1.6875 0.4274999998831 2.00000382262996 1.6875 0.436540793872206 1.83169116857746 1.6875 0.428507680676022 1.94380383681184 1.6875 0.431522561815106 1.88767573049911 1.6875 0.368617689197113 1.9124418644483 1.6875 -0.0909746307761277 -0.0600612252880861 0.0909746307761281 -0.0600612252880861 -0.0303377887818941 -0.0622289673543097 0.0303377887818945 -0.0622289673543097 -0.0842776445300717 0.064759247292417 0.0842776445300728 0.0647592472924172 -0.0281045095426737 0.0627510809087617 0.028104509542674 0.0627510809087617 2.08166817117217e-016 0.00126513996905375 9 1 3 9 3 4 9 4 2 9 5 1 9 7 5 9 8 7 9 6 8 9 2 6 
8 6 1 0.000271032645690068
0.3025000001169 1.99999617737004 2.3437002 0.312259206127795 1.81830883142253 2.3437002 0.303587754628638 1.9393303508874 2.3437002 0.306842208404505 1.87874211569838 2.3437002 0.3025000001169 1.99999617737004 1.6875 0.312259206127795 1.81830883142253 1.6875 0.303587754628638 1.9393303508874 1.6875 0.306842208404505 1.87874211569838 1.6875 -8.88178419700125e-016 0.6562002 0.107203107245128 0.6562002 0.0357343690817087 0.6562002 0.0714687381634184 0.6562002 -8.88178419700125e-016 0 0.107203107245128 0 0.0357343690817087 0 0.0714687381634184 0 3 1 5 3 5 7 8 3 7 4 3 8 6 4 8 2 4 6 
4 2 1 1.48029553092882e-015
0.3025000001169 1.99999617737004 1.6875 0.4274999998831 2.00000382262996 1.6875 0.4274999998831 2.00000382262996 2.3437002 0.3025000001169 1.99999617737004 2.3437002 0 0 0.125 0 0.125 -0.6562002 0 -0.6562002 2 4 3 2 1 4 
8 6 1 0.000251080908761647
0.4274999998831 2.00000382262996 1.6875 0.436540793872206 1.83169116857746 1.6875 0.428507680676022 1.94380383681184 1.6875 0.431522561815106 1.88767573049911 1.6875 0.4274999998831 2.00000382262996 2.3437002 0.436540793872206 1.83169116857746 2.3437002 0.428507680676022 1.94380383681184 2.3437002 0.431522561815106 1.88767573049911 2.3437002 -8.88178419700125e-016 0 0.107203107245128 0 0.0357343690817087 0 0.0714687381634184 0 -8.88178419700125e-016 0.6562002 0.107203107245128 0.6562002 0.0357343690817087 0.6562002 0.0714687381634184 0.6562002 7 1 3 7 5 1 4 7 3 8 7 4 2 8 4 6 8 2 
4 2 1 3.12423698023423e-015
0.312259206127795 1.81830883142253 1.6875 0.436540793872206 1.83169116857746 1.6875 0.436540793872206 1.83169116857746 2.3437002 0.312259206127795 1.81830883142253 2.3437002 0.0625 0.3281001 -0.0624999999999998 0.3281001 -0.0624999999999998 -0.3281001 0.0625 -0.3281001 2 3 4 1 2 4 
4 2 1 3.12423698023423e-015
0.436540793872206 1.83169116857746 2.3437002 0.312259206127795 1.81830883142253 2.3437002 0.436540793872206 1.83169116857746 1.6875 0.312259206127795 1.81830883142253 1.6875 -0.0624999999999998 -0.3281001 0.0625 -0.3281001 -0.0624999999999998 0.3281001 0.0625 0.3281001 3 1 2 4 3 2 
9 8 1 0
0.4274999998831 2.00000382262996 2.3437002 0.436540793872206 1.83169116857746 2.3437002 0.428507680676022 1.94380383681184 2.3437002 0.431522561815106 1.88767573049911 2.3437002 0.3025000001169 1.99999617737004 2.3437002 0.312259206127795 1.81830883142253 2.3437002 0.303587754628638 1.9393303508874 2.3437002 0.306842208404505 1.87874211569838 2.3437002 0.368617689197113 1.9124418644483 2.3437002 -0.0842776445300725 -0.064759247292417 0.0842776445300728 -0.0647592472924172 -0.0281045095426737 -0.0627510809087617 0.028104509542674 -0.0627510809087617 -0.0909746307761274 0.0600612252880862 0.090974630776128 0.0600612252880861 -0.0303377887818943 0.0622289673543097 0.0303377887818943 0.0622289673543097 2.91433543964104e-016 -0.00126513996905375 9 1 3 9 3 4 9 4 2 9 5 1 9 7 5 9 8 7 9 6 8 9 2 6 
8 6 1 0.000148038413952103
0.303167293614965 1.9525 2.3437002 0.312259206127795 1.81830883142253 2.3437002 0.305016134944552 1.90769476412038 2.3437002 0.308047477155339 1.86295397354968 2.3437002 0.303167293614965 1.9525 1.6875 0.312259206127795 1.81830883142253 1.6875 0.305016134944552 1.90769476412038 1.6875 0.308047477155339 1.86295397354968 1.6875 0.0279746569204554 0.6562002 0.107203107245128 0.6562002 0.0543841403620129 0.6562002 0.0807936238035705 0.6562002 0.0279746569204553 0 0.107203107245128 0 0.0543841403620128 0 0.0807936238035704 0 7 1 5 3 1 7 8 3 7 4 3 8 6 4 8 2 4 6 

TShapes 34
Ve
1.01e-007
0.4275 2 1.6875
0 0

0101101
*
Ve
1.01e-007
0.312259206127795 1.81830883142253 1.6875
0 0

0101101
*
Ed
 1e-007 1 1 0
1  1 0 -8.88178419700125e-016 0.107203107245128
2  1 2 0 -8.88178419700125e-016 0.107203107245128
2  2 1 0 -8.88178419700125e-016 0.107203107245128
6  1 2 0
6  2 1 0
0

0101000
+34 3 -33 0 *
Ve
1.01e-007
0.3025 2 1.6875
0 0

0101101
*
Ed
 1e-007 1 1 0
1  2 0 0 0.125
2  3 1 4 0 0.125
6  3 1 4
6  4 3 4
0

0101000
+34 0 -31 0 *
Ve
1.01e-007
0.436540793872206 1.83169116857746 1.6875
0 0

0101101
*
Ed
 1e-007 1 1 0
1  3 0 -8.88178419700125e-016 0.107203107245128
2  4 3 0 -8.88178419700125e-016 0.107203107245128
2  5 1 0 -8.88178419700125e-016 0.107203107245128
6  5 4 0
6  6 1 0
0

0101000
+31 3 -29 0 *
Ed
 1e-007 1 1 0
1  4 0 0 0.125
2  6 1 7 0 0.125
6  7 1 7
6  8 5 7
2  7 4 7 0 0.125
6  9 6 7
0

0101000
+33 7 -29 7 *
Wi

0101100
+32 0 -30 3 -28 0 +27 6 *
Fa
0  1e-007 1 0
2  1
0111000
+26 0 *
Ve
1.01e-007
0.3025 2 2.3437002
0 0

0101101
*
Ed
 1e-007 1 1 0
1  5 0 0 0.6562002
2  8 3 4 0 0.6562002
2  9 5 4 0 0.6562002
6  10 4 4
6  11 3 4
0

0101000
+31 0 -24 0 *
Ve
1.01e-007
0.436540793872206 1.83169116857746 2.3437002
0 0

0101101
*
Ed
 1e-007 1 1 0
1  6 0 -8.88178419700125e-016 0.107203107245128
2  10 3 0 -8.88178419700125e-016 0.107203107245128
2  11 6 0 -8.88178419700125e-016 0.107203107245128
6  12 4 0
6  13 7 0
0

0101000
+24 3 -22 0 *
Ed
 1e-007 1 1 0
1  7 0 0 0.6562002
2  12 3 7 0 0.6562002
6  14 4 7
6  15 5 7
6  16 6 7
0

0101000
+29 7 -22 7 *
Wi

0101100
+28 0 -23 3 -21 0 +20 6 *
Fa
0  1e-007 3 0
2  4
0111000
+19 0 *
Ve
1.01e-007
0.4275 2 2.3437002
0 0

0101101
*
Ed
 1e-007 1 1 0
1  8 0 0 0.125
2  13 6 4 0 0.125
6  17 7 4
6  18 3 4
0

0101000
+24 0 -17 0 *
Ve
1.01e-007
0.312259206127795 1.81830883142253 2.3437002
0 0

0101101
*
Ed
 1e-007 1 1 0
1  9 0 -8.88178419700125e-016 0.107203107245128
2  14 2 0 -8.88178419700125e-016 0.107203107245128
2  15 6 0 -8.88178419700125e-016 0.107203107245128
6  19 2 0
6  20 7 0
0

0101000
+17 3 -15 0 *
Ed
 1e-007 1 1 0
1  10 0 0 0.125
2  16 6 7 0 0.125
6  21 7 7
6  22 5 7
6  23 6 7
0

0101000
+22 7 -15 7 *
Wi

0101100
+21 0 -16 3 -14 0 +13 6 *
Fa
0  1e-007 6 0
2  7
0111000
+12 0 *
Ed
 1e-007 1 1 0
1  11 0 0 0.6562002
2  17 2 4 0 0.6562002
6  24 2 4
6  25 3 4
0

0101000
+34 0 -17 0 *
Ed
 1e-007 1 1 0
1  12 0 0 0.6562002
2  18 2 7 0 0.6562002
6  26 2 7
6  27 5 7
6  28 8 7
6  29 6 7
0

0101000
+33 7 -15 7 *
Wi

0101100
-14 0 -10 3 +32 0 +9 6 *
Fa
0  1e-007 2 0
2  2
0111000
+8 0 *
Wi

0101100
+30 3 +23 3 +16 3 -10 3 *
Fa
0  1e-007 7 0
2  3
0111000
-6 0 *
Wi

0101100
+27 6 +20 6 +13 6 -9 6 *
Fa
0  1e-007 8 0
2  5
0111000
+4 0 *
Sh

0101100
-25 0 -18 0 -11 0 +7 0 +5 0 +3 0 *
So

1100100
+2 0 *

+1 0 
0

