DBRep_DrawableShape

CASCADE Topology V1, (c) Matra-Datavision
Locations 0
Curve2ds 11
3 6.2831853071795862 3.5 0.96333300867924354 0.2683086178060563 -0.26830861780605636 0.96333300867924365 6.2831853071795862 0.69999999999999996
1 0 0 1 0 
1 3.1415926535897931 0 0 1 
1 0 0 0 1 
3 6.2831853071795862 3.5 0.96333300867924354 0.2683086178060563 -0.26830861780605636 0.96333300867924365 6.2831853071795862 0.17499999999999999
1 0 1 1 0 
1 0 0 0 1 
1 12.566370614359172 0 0 1 
1 12.335985113234115 5.1858327651886764 -0.96333300867924365 -0.2683086178060563 
1 12.566370614359172 0 -1 0 
1 12.566370614359172 1 -1 0 
Curves 6
7 0 0  11 42 5  7.2288198952218519 -1.6955199563687602 75.185832765188678  7.2060829160449504 -1.7924586723129381 75.233980036370667  7.1244556266537611 -2.134445968456792 75.272673612976746  6.9713162821059642 -2.7178280000005981 75.301583498759513  6.6999207887026104 -3.5279714116066621 75.320460690883394  6.218865742604252 -4.5341921412983606 75.329140814471316  5.4244198909340255 -5.6698957115362676 75.327546568619582  4.18850912369835 -6.8041151281233914 75.315688906898629  2.4315790013660856 -7.6906532366319782 75.293666916737195  0.26263655212683507 -7.998939319929975 75.261666397973443  -2.0012734923172584 -7.5231883262823143 75.21995718522048  -5.9524002025746814 -5.0172093849223538 75.117821399372488  -7.6393694011667961 -2.9869017496512922 75.057394826264073  -8.6551373911616754 -0.18805732904382536 74.987959586839239  -8.5394040862891636 3.1635685455175273 74.909945874040005  -6.916777015310033 6.5061094313010699 74.823860204844905  -3.6727542885904478 9.0266242174997391 74.7302803865676  0.56533641417826264 9.622163461204563 74.629849386278565  4.4321803233989483 8.1371617368771449 74.523268215958524  6.995757083906275 5.2110744778752105 74.411287984164431  7.8935638544738023 1.7660744565949604 74.294701284036421  6.6952893105344984 -4.5387741031178974 74.053964928114084  4.599114229118304 -7.3988607857707871 73.929815272318237  1.1713989453663802 -9.1541651741035555 73.802709129164199  -2.8958346255520135 -9.1147449558218572 73.673503886464019  -6.5147095400180932 -7.0792552068607995 73.543080241832101  -8.5733164629325085 -3.7351923456646956 73.412332639649222  -8.9707889829833452 -0.22227614424337538 73.282159418574537  -8.0652846427207177 2.8237529277200228 73.153452872235064  -6.3569124360569829 5.0577898735347357 73.02708942845544  -4.2921053203318733 6.4453302577278109 72.903920148697722  -0.090796887054180458 7.7431392947112743 72.665603315050717  2.0455790629489052 7.6535869655695157 72.550455761132739  3.897485469880027 6.9353277597314396 72.440135769160747  5.2657390348583082 5.8502446225435625 72.335425675173497  6.153445356029664 4.6934753262883584 72.237064457623759  6.6815523661434382 3.6433604798964163 72.145739243244037  6.9767402810910539 2.7801648608896472 72.062077509189834  7.1316584237140734 2.1434285509843178 71.98664013586739  7.2153824300687956 1.7466500400811389 71.91991547180082  7.2515568743979326 1.5985812404241528 71.862314505988692  7.2288198952218519 1.6955199563687573 71.814167234811336 
 0 12 0.78539816339744828 10 1.5707963267948966 10 2.3561944901923448 10 3.1415926535897931 12
7 0 0  1 2 2  7.2288198952218519 1.6955199563687573 71.814167234811336  7.666930191901967 1.7982787416032266 71.814167234811308 
 0 2 1 2
7 0 0  11 42 5  7.6669301919019635 -1.7982787416032315 75.185832765188664  7.6609014474229351 -1.8239821890124783 75.197869582980871  7.5938283441423788 -2.1099002747616153 75.200452706205496  7.4618494662312234 -2.6551097063484459 75.193499635727449  7.2244619842327111 -3.4467883119517664 75.177008865930745  6.7932161192306104 -4.4602744823345333 75.151060792739869  6.0618204917010567 -5.6365656918636784 75.115817433856719  4.8933302176426263 -6.85828789975284 75.071520938568838  3.1834759874094716 -7.8915130087785785 75.018490909552085  0.9995501512075291 -8.3960216113084911 74.957120588299276  -1.3686408656609013 -8.1255138137795324 74.887871997620223  -5.702670335944128 -5.9478318399751409 74.73466831884609  -7.6682898647643123 -4.0405223957146106 74.650713230742099  -9.0473720151818782 -1.2735667722932986 74.559929914691637  -9.3494453163501401 2.1994152005031644 74.462906389302674  -8.1153927863960718 5.8652311873744205 74.360287888165175  -5.1154250657299789 8.9236357773525548 74.25277015091504  -0.80128057839526101 10.161454607858582 74.141091909000323  3.4516553171402942 9.1856096517008456 74.026026711538549  6.5699842980636314 6.5076629977877927 73.908374262982377  8.0260619471230026 3.0299521559059461 73.788951454480554  7.7065793962517262 -3.7692060775981786 73.548215098556724  5.9309938991889481 -7.0909222844785749 73.426901551141867  2.5823441629157253 -9.4566237792244934 73.305467624731207  -1.7238101265771173 -10.025985732670858 73.184746409207506  -5.8725170244141216 -8.4044132699839942 73.065570006151603  -8.5563088748936273 -5.1269840812557854 72.948760322997202  -9.4640191412042842 -1.4162169107073193 72.835119933815406  -8.8901645833542275 1.9750444299925602 72.725423200101417  -7.3269604515378628 4.5914497671419996 72.620407832926745  -5.2610379454272698 6.3276322300524965 72.520767068173285  -0.86086332620288641 8.1839088604179828 72.333518127448244  1.4732028334417173 8.3041647060248991 72.245909951467937  3.5726908280625356 7.6908302717017172 72.164959761951238  5.1792036183823535 6.605032921702402 72.091257706892037  6.255221344885304 5.3774531111530548 72.025335322786631  6.9159348381331025 4.223955149970636 71.967659221599448  7.297870547030981 3.2484598104631641 71.918625684161498  7.50436779987536 2.5027951652980907 71.878556272883131  7.617937594307997 2.0070755909884292 71.847694565008965  7.6729589363802617 1.7725752941934132 71.82620405260397  7.666930191901967 1.7982787416032266 71.814167234811308 
 0 12 0.78539816339744828 10 1.5707963267948966 10 2.3561944901923448 10 3.1415926535897931 12
7 0 0  1 2 2  7.2288198952218519 -1.6955199563687602 75.185832765188678  7.6669301919019635 -1.7982787416032315 75.185832765188664 
 0 2 1 2
7 0 0  11 22 3  7.2288198952218545 -1.6955199563687731 75.185832765188678  6.2958523622155074 -5.6732108345321626 75.032575241077453  2.9556447403897588 -9.0861782864993401 74.879317716984801  -2.4156648701532966 -10.31548644738143 74.726060192838858  -8.1957352083358845 -8.0272652138032665 74.572802668793329  -11.858311256271138 -2.2462691909030075 74.419545144608648  -11.032054153873645 4.8947984917264256 74.266287620573181  -6.1461421366898694 9.6866918632456436 74.113030096411165  0.0037315633179224833 10.594559145451639 73.9597725723347  4.9524067494169035 8.1711773370645577 73.806515048212219  7.4250000000000025 4.0856398690867781 73.653257524109023  7.4249999999999972 -4.0856398690869176 73.346742475890693  4.952406749416939 -8.1711773370634386 73.193484951791788  0.0037315633177813514 -10.594559145454566 73.040227427651686  -6.1461421366896118 -9.6866918632404122 72.886969903614613  -11.032054153873954 -4.8947984917336544 72.733712379394547  -11.858311256271024 2.2462691909110815 72.580454855419816  -8.1957352083357069 8.0272652137962535 72.427197331188793  -2.4156648701535595 10.315486447386013 72.273939807168702  2.9556447403899337 9.0861782864972707 72.120682283013366  6.2958523622154683 5.6732108345326715 71.967424758922817  7.2288198952218528 1.6955199563687595 71.814167234811322 
 0 12 6.2831853071795862 10 12.566370614359172 12
7 0 0  11 22 3  7.6669301919019608 -1.7982787416032258 75.185832765188678  6.6774191720471299 -6.0170417942007539 75.032575241077453  3.1347747246542048 -9.6368557584084975 74.879317716984801  -2.5620688016739286 -10.940667444192107 74.726060192838858  -8.6924464330898381 -8.5137661358524994 74.572802668793329  -12.576996786946523 -2.3824067176238306 74.419545144608648  -11.700663496539821 5.1914529457701581 74.266287620573181  -6.5186355995144574 10.273764097381681 74.113030096411165  0.0039577186677778155 11.236653639115588 73.9597725723347  5.2525526130189535 8.6664002059773981 73.806515048212219  7.8749999999998082 4.3332544066072503 73.653257524109023  7.8750000000001021 -4.3332544066074563 73.346742475890693  5.2525526130177163 -8.666400205975787 73.193484951791788  0.0039577186707628054 -11.23665363911994 73.040227427651686  -6.518635599519774 -10.273764097373542 72.886969903614613  -11.700663496532515 -5.1914529457818892 72.733712379394547  -12.576996786954474 2.3824067176371719 72.580454855419816  -8.6924464330831928 8.5137661358408963 72.427197331188793  -2.562068801677992 10.940667444199597 72.273939807168702  3.1347747246559226 9.6368557584051615 72.120682283013366  6.677419172046724 6.0170417942015773 71.967424758922817  7.6669301919019617 1.7982787416032251 71.814167234811322 
 0 12 6.2831853071795862 10 12.566370614359172 12
Polygon3D 0
PolygonOnTriangulations 0
Surfaces 4
9 0 0 0 0 11 1 42 2 5 2 7.2288198952218519 -1.6955199563687602 75.185832765188678  7.6669301919019635 -1.7982787416032315 75.185832765188664  
7.2060829160449504 -1.7924586723129381 75.233980036370667  7.6609014474229351 -1.8239821890124783 75.197869582980871  
7.1244556266537611 -2.134445968456792 75.272673612976746  7.5938283441423788 -2.1099002747616153 75.200452706205496  
6.9713162821059642 -2.7178280000005981 75.301583498759513  7.4618494662312234 -2.6551097063484459 75.193499635727449  
6.6999207887026104 -3.5279714116066621 75.320460690883394  7.2244619842327111 -3.4467883119517664 75.177008865930745  
6.218865742604252 -4.5341921412983606 75.329140814471316  6.7932161192306104 -4.4602744823345333 75.151060792739869  
5.4244198909340255 -5.6698957115362676 75.327546568619582  6.0618204917010567 -5.6365656918636784 75.115817433856719  
4.18850912369835 -6.8041151281233914 75.315688906898629  4.8933302176426263 -6.85828789975284 75.071520938568838  
2.4315790013660856 -7.6906532366319782 75.293666916737195  3.1834759874094716 -7.8915130087785785 75.018490909552085  
0.26263655212683507 -7.998939319929975 75.261666397973443  0.9995501512075291 -8.3960216113084911 74.957120588299276  
-2.0012734923172584 -7.5231883262823143 75.21995718522048  -1.3686408656609013 -8.1255138137795324 74.887871997620223  
-5.9524002025746814 -5.0172093849223538 75.117821399372488  -5.702670335944128 -5.9478318399751409 74.73466831884609  
-7.6393694011667961 -2.9869017496512922 75.057394826264073  -7.6682898647643123 -4.0405223957146106 74.650713230742099  
-8.6551373911616754 -0.18805732904382536 74.987959586839239  -9.0473720151818782 -1.2735667722932986 74.559929914691637  
-8.5394040862891636 3.1635685455175273 74.909945874040005  -9.3494453163501401 2.1994152005031644 74.462906389302674  
-6.916777015310033 6.5061094313010699 74.823860204844905  -8.1153927863960718 5.8652311873744205 74.360287888165175  
-3.6727542885904478 9.0266242174997391 74.7302803865676  -5.1154250657299789 8.9236357773525548 74.25277015091504  
0.56533641417826264 9.622163461204563 74.629849386278565  -0.80128057839526101 10.161454607858582 74.141091909000323  
4.4321803233989483 8.1371617368771449 74.523268215958524  3.4516553171402942 9.1856096517008456 74.026026711538549  
6.995757083906275 5.2110744778752105 74.411287984164431  6.5699842980636314 6.5076629977877927 73.908374262982377  
7.8935638544738023 1.7660744565949604 74.294701284036421  8.0260619471230026 3.0299521559059461 73.788951454480554  
6.6952893105344984 -4.5387741031178974 74.053964928114084  7.7065793962517262 -3.7692060775981786 73.548215098556724  
4.599114229118304 -7.3988607857707871 73.929815272318237  5.9309938991889481 -7.0909222844785749 73.426901551141867  
1.1713989453663802 -9.1541651741035555 73.802709129164199  2.5823441629157253 -9.4566237792244934 73.305467624731207  
-2.8958346255520135 -9.1147449558218572 73.673503886464019  -1.7238101265771173 -10.025985732670858 73.184746409207506  
-6.5147095400180932 -7.0792552068607995 73.543080241832101  -5.8725170244141216 -8.4044132699839942 73.065570006151603  
-8.5733164629325085 -3.7351923456646956 73.412332639649222  -8.5563088748936273 -5.1269840812557854 72.948760322997202  
-8.9707889829833452 -0.22227614424337538 73.282159418574537  -9.4640191412042842 -1.4162169107073193 72.835119933815406  
-8.0652846427207177 2.8237529277200228 73.153452872235064  -8.8901645833542275 1.9750444299925602 72.725423200101417  
-6.3569124360569829 5.0577898735347357 73.02708942845544  -7.3269604515378628 4.5914497671419996 72.620407832926745  
-4.2921053203318733 6.4453302577278109 72.903920148697722  -5.2610379454272698 6.3276322300524965 72.520767068173285  
-0.090796887054180458 7.7431392947112743 72.665603315050717  -0.86086332620288641 8.1839088604179828 72.333518127448244  
2.0455790629489052 7.6535869655695157 72.550455761132739  1.4732028334417173 8.3041647060248991 72.245909951467937  
3.897485469880027 6.9353277597314396 72.440135769160747  3.5726908280625356 7.6908302717017172 72.164959761951238  
5.2657390348583082 5.8502446225435625 72.335425675173497  5.1792036183823535 6.605032921702402 72.091257706892037  
6.153445356029664 4.6934753262883584 72.237064457623759  6.255221344885304 5.3774531111530548 72.025335322786631  
6.6815523661434382 3.6433604798964163 72.145739243244037  6.9159348381331025 4.223955149970636 71.967659221599448  
6.9767402810910539 2.7801648608896472 72.062077509189834  7.297870547030981 3.2484598104631641 71.918625684161498  
7.1316584237140734 2.1434285509843178 71.98664013586739  7.50436779987536 2.5027951652980907 71.878556272883131  
7.2153824300687956 1.7466500400811389 71.91991547180082  7.617937594307997 2.0070755909884292 71.847694565008965  
7.2515568743979326 1.5985812404241528 71.862314505988692  7.6729589363802617 1.7725752941934132 71.82620405260397  
7.2288198952218519 1.6955199563687573 71.814167234811336  7.666930191901967 1.7982787416032266 71.814167234811308  

0 12
0.78539816339744828 10
1.5707963267948966 10
2.3561944901923448 10
3.1415926535897931 12

0 2
1 2

2 0 0 70 0 0 1 1 0 -0 -0 1 0 7.4249999999999998
9 0 0 0 0 11 1 22 2 3 2 7.2288198952218528 1.6955199563687595 71.814167234811322  7.6669301919019617 1.7982787416032251 71.814167234811322  
6.2958523622154683 5.6732108345326715 71.967424758922817  6.677419172046724 6.0170417942015773 71.967424758922817  
2.9556447403899337 9.0861782864972707 72.120682283013366  3.1347747246559226 9.6368557584051615 72.120682283013366  
-2.4156648701535595 10.315486447386013 72.273939807168702  -2.562068801677992 10.940667444199597 72.273939807168702  
-8.1957352083357069 8.0272652137962535 72.427197331188793  -8.6924464330831928 8.5137661358408963 72.427197331188793  
-11.858311256271024 2.2462691909110815 72.580454855419816  -12.576996786954474 2.3824067176371719 72.580454855419816  
-11.032054153873954 -4.8947984917336544 72.733712379394547  -11.700663496532515 -5.1914529457818892 72.733712379394547  
-6.1461421366896118 -9.6866918632404122 72.886969903614613  -6.518635599519774 -10.273764097373542 72.886969903614613  
0.0037315633177813514 -10.594559145454566 73.040227427651686  0.0039577186707628054 -11.23665363911994 73.040227427651686  
4.952406749416939 -8.1711773370634386 73.193484951791788  5.2525526130177163 -8.666400205975787 73.193484951791788  
7.4249999999999972 -4.0856398690869176 73.346742475890693  7.8750000000001021 -4.3332544066074563 73.346742475890693  
7.4250000000000025 4.0856398690867781 73.653257524109023  7.8749999999998082 4.3332544066072503 73.653257524109023  
4.9524067494169035 8.1711773370645577 73.806515048212219  5.2525526130189535 8.6664002059773981 73.806515048212219  
0.0037315633179224833 10.594559145451639 73.9597725723347  0.0039577186677778155 11.236653639115588 73.9597725723347  
-6.1461421366898694 9.6866918632456436 74.113030096411165  -6.5186355995144574 10.273764097381681 74.113030096411165  
-11.032054153873645 4.8947984917264256 74.266287620573181  -11.700663496539821 5.1914529457701581 74.266287620573181  
-11.858311256271138 -2.2462691909030075 74.419545144608648  -12.576996786946523 -2.3824067176238306 74.419545144608648  
-8.1957352083358845 -8.0272652138032665 74.572802668793329  -8.6924464330898381 -8.5137661358524994 74.572802668793329  
-2.4156648701532966 -10.31548644738143 74.726060192838858  -2.5620688016739286 -10.940667444192107 74.726060192838858  
2.9556447403897588 -9.0861782864993401 74.879317716984801  3.1347747246542048 -9.6368557584084975 74.879317716984801  
6.2958523622155074 -5.6732108345321626 75.032575241077453  6.6774191720471299 -6.0170417942007539 75.032575241077453  
7.2288198952218545 -1.6955199563687731 75.185832765188678  7.6669301919019608 -1.7982787416032258 75.185832765188678  

0 12
6.2831853071795862 10
12.566370614359172 12

0 2
1 2

2 0 0 70 0 0 1 1 0 -0 -0 1 0 7.875
Triangulations 0

TShapes 20
Ve
7.85341264668882e-006
7.22881989522185 -1.69551995636876 75.1858327651887
0 0

0101101
*
Ve
7.85341264668882e-006
7.22881989522185 1.69551995636876 71.8141672348113
0 0

0101101
*
Ed
 7.85341264668882e-006 1 1 0
2  1 2 0 0 3.14159265358979
1  1 0 0 3.14159265358979
2  2 1 0 0 3.14159265358979
0

0101000
+20 0 -19 0 *
Ve
8.32937704492736e-006
7.66693019190197 1.79827874160323 71.8141672348113
0 0

0101101
*
Ed
 1e-007 1 1 0
1  2 0 0 1
2  3 1 0 0 1
2  4 3 0 0 1
0

0101000
+19 0 -17 0 *
Ve
8.32937704492736e-006
7.66693019190196 -1.79827874160323 75.1858327651887
0 0

0101101
*
Ed
 8.32937704492736e-006 1 1 0
2  5 4 0 0 3.14159265358979
1  3 0 0 3.14159265358979
2  6 1 0 0 3.14159265358979
0

0101000
+15 0 -17 0 *
Ed
 1e-007 1 1 0
1  4 0 0 1
2  7 1 0 0 1
2  8 3 0 0 1
0

0101000
+20 0 -15 0 *
Wi

0101000
+18 0 +16 0 -14 0 -13 0 *
Fa
0  1e-007 1 0

0111000
+12 0 *
Ed
 7.85341264668882e-006 1 1 0
2  9 2 0 0 12.5663706143592
1  5 0 0 12.5663706143592
2  10 3 0 0 12.5663706143592
0

0101000
+20 0 -19 0 *
Ed
 8.32937704492736e-006 1 1 0
2  9 4 0 0 12.5663706143592
1  6 0 0 12.5663706143592
2  11 3 0 0 12.5663706143592
0

0101000
+15 0 -17 0 *
Wi

0101000
-10 0 +13 0 +9 0 -16 0 *
Fa
0  1e-007 3 0

0111000
+8 0 *
Wi

0101100
+18 0 -10 0 *
Fa
0  7.85341264668882e-006 2 0

0111000
+6 0 *
Wi

0101100
+14 0 -9 0 *
Fa
0  8.32937704492736e-006 4 0

0111000
+4 0 *
Sh

0101100
+11 0 +7 0 -5 0 +3 0 *
So

0100100
+2 0 *

+1 0 