DBRep_DrawableShape

CASCADE Topology V1, (c) Matra-Datavision
Locations 0
Curve2ds 32
8 0 6.2831853071795862
1 0 0 1 0 
8 0 6.2831853071795862
1 0 42.426406871192853 1 0 
8 0 6.2831853071795862
1 0 0 1 0 
8 0 42.426406871192853
1 6.2831853071795862 0 0 1 
8 0 42.426406871192853
1 0 0 0 1 
8 0 6.2831853071795862
1 0 30 1 0 
8 0 6.2831853071795862
1 0 0 1 0 
8 0 30
1 6.2831853071795862 0 0 1 
8 0 30
1 0 0 0 1 
8 0 6.2831853071795862
1 0 32.310988842807021 1 0 
8 0 6.2831853071795862
1 0 0 1 0 
8 0 32.310988842807021
1 6.2831853071795862 0 0 1 
8 0 32.310988842807021
1 0 0 0 1 
8 0 6.2831853071795862
1 0 210 1 0 
8 0 210
1 6.2831853071795862 0 0 1 
8 0 210
1 0 0 0 1 
1 0 0 1 0 
1 0 42.426406871192853 1 0 
1 0 0 1 0 
1 6.2831853071795862 0 0 1 
1 0 0 0 1 
1 0 30 1 0 
1 0 0 1 0 
1 6.2831853071795862 0 0 1 
1 0 0 0 1 
1 0 32.310988842807021 1 0 
1 0 0 1 0 
1 6.2831853071795862 0 0 1 
1 0 0 0 1 
1 0 210 1 0 
1 6.2831853071795862 0 0 1 
1 0 0 0 1 
Curves 16
2 0 -30 3.67394039744206e-015 0 -1 1.2246467991473532e-016 -1 -0 0 0 -1.2246467991473532e-016 -1 30
1 0 0 0 -0.70710678118654757 -0.70710678118654757 8.6595605623549329e-017 
2 0 -60 7.3478807948841199e-015 0 -1 1.2246467991473532e-016 -1 -0 0 0 -1.2246467991473532e-016 -1 30
1 -30 -30 3.67394039744206e-015 0 -1 1.2246467991473532e-016 
2 0 -90 1.1021821192326179e-014 0 -1 1.2246467991473532e-016 -1 -0 0 0 -1.2246467991473532e-016 -1 42
1 -30 -60 7.3478807948841199e-015 -0.37139067635410378 -0.92847669088525941 1.1370560075755595e-016 
2 0 -300 3.6739403974420595e-014 0 -1 1.2246467991473532e-016 -1 -0 0 0 -1.2246467991473532e-016 -1 42
1 -42 -90 1.1021821192326179e-014 0 -1 1.2246467991473532e-016 
2 6.9999999999999982 -20 10.000000000000004 1 -1.1102230246251565e-016 1.2246467991473532e-016 -1.1102230246251565e-016 -1 0 1.2246467991473532e-016 -1.3596310734468911e-032 -1 30
1 -23.000000000000004 -19.999999999999996 10 0.70710678118654746 -0.70710678118654768 8.6595605623549329e-017 
2 37 -20.000000000000004 10.000000000000007 1 -1.1102230246251565e-016 1.2246467991473532e-016 -1.1102230246251565e-016 -1 0 1.2246467991473532e-016 -1.3596310734468911e-032 -1 30
1 6.9999999999999947 -50 10.000000000000004 1 -1.1102230246251565e-016 1.2246467991473532e-016 
2 67 -20.000000000000007 10.000000000000011 1 -1.1102230246251565e-016 1.2246467991473532e-016 -1.1102230246251565e-016 -1 0 1.2246467991473532e-016 -1.3596310734468911e-032 -1 42
1 36.999999999999993 -50.000000000000007 10.000000000000007 0.92847669088525941 -0.37139067635410389 1.1370560075755595e-016 
2 277 -20.000000000000032 10.000000000000037 1 -1.1102230246251565e-016 1.2246467991473532e-016 -1.1102230246251565e-016 -1 0 1.2246467991473532e-016 -1.3596310734468911e-032 -1 42
1 67 -62.000000000000007 10.000000000000011 1 -1.1102230246251565e-016 1.2246467991473532e-016 
Polygon3D 0
PolygonOnTriangulations 0
Surfaces 10
3 0 0 0 0 -1 1.2246467991473532e-016 -1 -0 0 0 -1.2246467991473532e-016 -1 0
0.78539816339744839
2 0 -30 3.67394039744206e-015 0 -1 1.2246467991473532e-016 -1 -0 0 0 -1.2246467991473532e-016 -1 30
3 0 -60 7.3478807948841199e-015 0 -1 1.2246467991473532e-016 -1 -0 0 0 -1.2246467991473532e-016 -1 30
0.38050637711236496
2 0 -90 1.1021821192326179e-014 0 -1 1.2246467991473532e-016 -1 -0 0 0 -1.2246467991473532e-016 -1 42
1 0 -300 3.6739403974420595e-014 0 -1 1.2246467991473532e-016 -1 -0 0 0 -1.2246467991473532e-016 -1 
3 -23.000000000000004 -19.999999999999996 10 1 -1.1102230246251565e-016 1.2246467991473532e-016 -1.1102230246251565e-016 -1 0 1.2246467991473532e-016 -1.3596310734468911e-032 -1 0
0.78539816339744839
2 6.9999999999999982 -20 10.000000000000004 1 -1.1102230246251565e-016 1.2246467991473532e-016 -1.1102230246251565e-016 -1 0 1.2246467991473532e-016 -1.3596310734468911e-032 -1 30
3 37 -20.000000000000004 10.000000000000007 1 -1.1102230246251565e-016 1.2246467991473532e-016 -1.1102230246251565e-016 -1 0 1.2246467991473532e-016 -1.3596310734468911e-032 -1 30
0.38050637711236496
2 67 -20.000000000000007 10.000000000000011 1 -1.1102230246251565e-016 1.2246467991473532e-016 -1.1102230246251565e-016 -1 0 1.2246467991473532e-016 -1.3596310734468911e-032 -1 42
1 277 -20.000000000000032 10.000000000000037 1 -1.1102230246251565e-016 1.2246467991473532e-016 -1.1102230246251565e-016 -1 0 1.2246467991473532e-016 -1.3596310734468911e-032 -1 
Triangulations 0

TShapes 53
Ve
4e-007
0 0 0
0 0

0101101
*
Ed
 4e-007 1 1 1
2  1 1 0 0 6.28318530717959
0

0101000
+53 0 -53 0 *
Ve
4e-007
-30 -30 3.67394039744206e-015
0 0

0101101
*
Ed
 4e-007 1 1 0
1  1 0 0 6.28318530717959
2  2 1 0 0 6.28318530717959
2  3 2 0 0 6.28318530717959
0

0101000
+51 0 -51 0 *
Ed
 4e-007 1 1 0
1  2 0 0 42.4264068711929
3  4 5CN 1 0 0 42.4264068711929
0

0101000
+53 0 -51 0 *
Wi

0101100
+52 0 -50 0 -49 0 +49 0 *
Fa
0  4e-007 1 0

0101000
+48 0 *
Ve
4e-007
-30 -60 7.34788079488412e-015
0 0

0101101
*
Ed
 4e-007 1 1 0
1  3 0 0 6.28318530717959
2  6 2 0 0 6.28318530717959
2  7 3 0 0 6.28318530717959
0

0101000
+46 0 -46 0 *
Ed
 4e-007 1 1 0
1  4 0 0 30
3  8 9CN 2 0 0 30
0

0101000
+51 0 -46 0 *
Wi

0101100
+50 0 -45 0 -44 0 +44 0 *
Fa
0  4e-007 2 0

0101000
+43 0 *
Ve
4e-007
-42 -90 1.10218211923262e-014
0 0

0101101
*
Ed
 4e-007 1 1 0
1  5 0 0 6.28318530717959
2  10 3 0 0 6.28318530717959
2  11 4 0 0 6.28318530717959
0

0101000
+41 0 -41 0 *
Ed
 4e-007 1 1 0
1  6 0 0 32.310988842807
3  12 13CN 3 0 0 32.310988842807
0

0101000
+46 0 -41 0 *
Wi

0101100
+45 0 -40 0 -39 0 +39 0 *
Fa
0  4e-007 3 0

0101000
+38 0 *
Ve
4e-007
-42 -300 3.67394039744206e-014
0 0

0101101
*
Ed
 4e-007 1 1 0
1  7 0 0 6.28318530717959
2  14 4 0 0 6.28318530717959
0

0101000
+36 0 -36 0 *
Ed
 4e-007 1 1 0
1  8 0 0 210
3  15 16CN 4 0 0 210
0

0101000
+41 0 -36 0 *
Wi

0101100
+40 0 -35 0 -34 0 +34 0 *
Fa
0  4e-007 4 0

0101000
+33 0 *
Wi

0101100
+35 0 *
Fa
0  4e-007 5 0

0101000
+31 0 *
Sh

0101100
-47 0 -42 0 -37 0 -32 0 -30 0 *
So

0100000
-29 0 *
Ve
4e-007
-23 -20 10
0 0

0101101
*
Ed
 4e-007 1 1 1
2  17 6 0 0 6.28318530717959
0

0101000
+27 0 -27 0 *
Ve
4e-007
6.99999999999999 -50 10
0 0

0101101
*
Ed
 4e-007 1 1 0
1  9 0 0 6.28318530717959
2  18 6 0 0 6.28318530717959
2  19 7 0 0 6.28318530717959
0

0101000
+25 0 -25 0 *
Ed
 4e-007 1 1 0
1  10 0 0 42.4264068711929
3  20 21CN 6 0 0 42.4264068711929
0

0101000
+27 0 -25 0 *
Wi

0101100
+26 0 -24 0 -23 0 +23 0 *
Fa
0  4e-007 6 0

0101000
+22 0 *
Ve
4e-007
37 -50 10
0 0

0101101
*
Ed
 4e-007 1 1 0
1  11 0 0 6.28318530717959
2  22 7 0 0 6.28318530717959
2  23 8 0 0 6.28318530717959
0

0101000
+20 0 -20 0 *
Ed
 4e-007 1 1 0
1  12 0 0 30
3  24 25CN 7 0 0 30
0

0101000
+25 0 -20 0 *
Wi

0101100
+24 0 -19 0 -18 0 +18 0 *
Fa
0  4e-007 7 0

0101000
+17 0 *
Ve
4e-007
67 -62 10
0 0

0101101
*
Ed
 4e-007 1 1 0
1  13 0 0 6.28318530717959
2  26 8 0 0 6.28318530717959
2  27 9 0 0 6.28318530717959
0

0101000
+15 0 -15 0 *
Ed
 4e-007 1 1 0
1  14 0 0 32.310988842807
3  28 29CN 8 0 0 32.310988842807
0

0101000
+20 0 -15 0 *
Wi

0101100
+19 0 -14 0 -13 0 +13 0 *
Fa
0  4e-007 8 0

0101000
+12 0 *
Ve
4e-007
277 -62 10
0 0

0101101
*
Ed
 4e-007 1 1 0
1  15 0 0 6.28318530717959
2  30 9 0 0 6.28318530717959
0

0101000
+10 0 -10 0 *
Ed
 4e-007 1 1 0
1  16 0 0 210
3  31 32CN 9 0 0 210
0

0101000
+15 0 -10 0 *
Wi

0101100
+14 0 -9 0 -8 0 +8 0 *
Fa
0  4e-007 9 0

0101000
+7 0 *
Wi

0101100
+9 0 *
Fa
0  4e-007 10 0

0101000
+5 0 *
Sh

0101100
-21 0 -16 0 -11 0 -6 0 -4 0 *
So

0100000
-3 0 *
Co

1100000
+28 0 +2 0 *

+1 0 
0

