DBRep_DrawableShape

CASCADE Topology V1, (c) Matra-Datavision
Locations 33
1
              1               0               0               0 
              0               1               0               0 
              0               0               1               0 
1
              1               0               0               0 
              0               1               0               0 
              0               0               1               0 
1
              1               0               0               0 
              0               1               0               0 
              0               0               1               0 
2  2 1 3 1 0
1
              1               0               0           -12.7 
              0               1               0               0 
              0               0               1            25.4 
2  3 -1 2 -1 0
2  5 1 2 1 3 1 0
2  5 -1 0
1
              1               0               0               0 
              0               1               0               0 
              0               0               1               0 
2  9 -1 3 -1 2 -1 5 -1 0
2  9 -1 0
1
              1               0               0           -12.7 
              0               1               0               0 
              0               0               1            25.4 
2  12 1 2 1 3 1 0
2  5 1 12 -1 0
2  12 -1 0
2  9 -1 3 -1 2 -1 12 -1 0
2  3 -1 2 -1 5 -1 0
2  2 -1 0
2  9 -1 3 -1 2 -1 0
2  12 1 5 -1 0
2  2 -1 5 -1 0
2  12 1 2 1 0
2  2 -1 12 -1 0
1
              1               0               0           -12.7 
              0               1               0           13.97 
              0               0               1            25.4 
2  9 -1 3 -1 0
2  5 1 2 1 0
2  12 1 2 1 24 -1 0
2  24 -1 0
2  9 -1 3 -1 24 -1 0
2  3 -1 0
2  24 1 3 1 0
2  24 1 2 -1 12 -1 0
2  3 -1 24 -1 0
Curve2ds 100
1 22.859999999999999 0 0 -1 
1 0 0 0 1 
2 17.789999999999999 -3.8200000000000012 1 0 0 -1 5.0700000000000003
1 0 0 1 0 
1 0 0 1 0 
1 0 0 1 0 
1 0 -8.8900000000000006 1 0 
1 0 0 1 0 
1 17.780000000000001 0 0 -1 
1 17.780000000000001 0 0 -1 
1 0 3.8200000000000012 1 0 
1 0 0 0 1 
1 0 0 1 0 
1 22.859999999999999 0 0 1 
1 74.930000000000007 0 0 1 
1 22.859999999999999 0 0 -1 
1 1.5707963267948966 0 0 1 
1 17.789999999999999 0 0 1 
1 0 74.930000000000007 1 0 
2 17.789999999999999 -3.8200000000000012 1 0 0 -1 5.0700000000000003
1 17.780000000000001 0 0 1 
1 17.780000000000001 0 0 1 
1 0 74.930000000000007 1 0 
1 0 0 1 0 
1 0 74.930000000000007 1 0 
1 0 -8.8900000000000006 1 0 
8 -74.930000000000007 0
1 17.780000000000001 0 0 -1 
8 -74.930000000000007 0
1 0 8.8900000000000006 -1 0 
1 0 0 1 0 
1 0 0 1 0 
1 0 -8.8900000000000006 1 0 
1 0 -8.8900000000000006 1 0 
1 0 0 0 -1 
1 0 0 0 1 
1 17.780000000000001 0 0 -1 
1 17.780000000000001 0 0 -1 
1 0 0 0 1 
1 0 0 1 0 
1 0 74.930000000000007 1 0 
1 0 0 1 0 
1 74.930000000000007 0 0 1 
1 17.780000000000001 0 0 -1 
1 0 0 0 1 
1 17.780000000000001 0 0 -1 
8 -74.930000000000007 0
1 0 13.970000000000001 -1 0 
8 -74.930000000000007 0
1 17.780000000000001 0 0 -1 
1 0 -13.970000000000001 1 0 
1 0 -13.970000000000001 1 0 
1 0 0 0 -1 
1 0 0 0 1 
1 0 8.8900000000000006 1 0 
1 0 8.8900000000000006 1 0 
1 74.930000000000007 0 0 1 
1 0 0 0 -1 
1 0 -8.8900000000000006 1 0 
1 0 -8.8900000000000006 1 0 
1 0 -13.970000000000001 1 0 
1 0 -13.970000000000001 1 0 
1 0 0 0 -1 
1 74.930000000000007 0 0 1 
1 0 74.930000000000007 1 0 
1 0 0 1 0 
1 17.789999999999999 0 0 1 
1 0 0 0 1 
1 0 0 1 0 
1 0 0 1 0 
1 17.780000000000001 0 0 -1 
1 17.780000000000001 13.970000000000001 0 -1 
1 0 -22.859999999999999 1 0 
1 0 0 1 0 
1 0 0 0 -1 
1 0 0 0 1 
1 0 13.970000000000001 1 0 
1 0 13.970000000000001 1 0 
1 17.780000000000001 0 0 -1 
1 17.780000000000001 13.970000000000001 0 -1 
1 0 -22.859999999999999 1 0 
1 0 74.930000000000007 1 0 
1 0 0 0 -1 
1 74.930000000000007 0 0 1 
2 17.789999999999999 -5.0699999999999985 1 0 0 -1 5.0700000000000003
1 -4.7123889803846897 74.930000000000007 1 0 
1 22.859999999999999 0 0 -1 
1 74.930000000000007 0 0 1 
1 0 -8.8900000000000006 1 0 
1 0 74.930000000000007 1 0 
1 -4.7123889803846897 0 1 0 
2 17.789999999999999 -5.0699999999999985 1 0 0 -1 5.0700000000000003
1 1.5707963267948966 0 0 1 
1 0 5.0699999999999985 1 0 
1 22.859999999999999 0 0 -1 
1 0 0 0 1 
1 0 -8.8900000000000006 1 0 
1 0 0 1 0 
1 0 0 0 1 
1 0 22.859999999999999 1 0 
1 17.780000000000001 0 0 1 
1 17.780000000000001 0 0 1 
1 0 8.8900000000000006 1 0 
1 22.859999999999999 0 0 1 
Curves 50
1 0 0 22.859999999999999 -0 1 0 
8 0 1.5707963267948966
2 -12.699999999999999 3.8200000000000012 43.189999999999998 -1 -0 -0 -0 0 1 0 1 -0 5.0700000000000003
1 0 0 0 0 0 1 
1 0 8.8900000000000006 0 0 0 1 
1 0 0 17.780000000000001 -0 1 0 
1 -12.699999999999999 3.8200000000000012 48.259999999999998 1 0 0 
1 0 0 22.859999999999999 1 0 -0 
1 74.930000000000007 0 22.859999999999999 0 1 0 
1 -12.699999999999999 8.8900000000000006 43.189999999999998 1 0 0 
8 0 1.5707963267948966
2 62.230000000000004 3.8200000000000012 43.189999999999998 -1 -0 -0 -0 0 1 0 1 -0 5.0700000000000003
1 0 0 17.780000000000001 1 0 -0 
1 74.930000000000007 0 0 0 0 1 
1 74.930000000000007 8.8900000000000006 0 0 0 1 
1 -12.699999999999999 8.8900000000000006 43.18 -1 0 0 
1 0 0 0 0 0 1 
1 0 8.8900000000000006 0 0 0 1 
1 0 0 0 -0 1 0 
1 74.930000000000007 0 17.780000000000001 0 1 0 
1 0 0 0 1 0 -0 
1 74.930000000000007 0 0 0 0 1 
1 74.930000000000007 0 17.780000000000001 0 1 0 
1 0 0 17.780000000000001 -0 1 0 
1 -12.699999999999999 13.970000000000001 43.18 -1 0 0 
1 0 0 0 0 0 1 
1 0 0 0 -0 1 0 
1 0 8.8900000000000006 0 1 0 -0 
1 74.930000000000007 0 0 -0 1 0 
1 74.930000000000007 8.8900000000000006 0 0 0 1 
1 74.930000000000007 0 0 0 0 1 
1 74.930000000000007 0 0 -0 1 0 
1 74.930000000000007 0 0 0 0 1 
1 -12.699999999999999 13.969999999999999 43.189999999999998 1 0 0 
1 0 0 0 0 0 1 
1 0 0 17.780000000000001 -0 1 0 
1 0 22.859999999999999 0 0 0 1 
1 0 0 0 -0 1 0 
1 0 0 0 1 0 -0 
1 74.930000000000007 0 17.780000000000001 0 1 0 
1 74.930000000000007 22.859999999999999 0 0 0 1 
1 74.930000000000007 0 0 -0 1 0 
8 4.7123889803846897 6.2831853071795862
2 62.230000000000004 19.039999999999999 43.189999999999998 -1 -0 -0 -0 0 1 0 1 -0 5.0700000000000003
1 74.930000000000007 0 22.859999999999999 0 1 0 
1 74.930000000000007 8.8900000000000006 0 0 0 1 
8 4.7123889803846897 6.2831853071795862
2 -12.699999999999999 19.039999999999999 43.189999999999998 -1 -0 -0 -0 0 1 0 1 -0 5.0700000000000003
1 -12.699999999999999 19.039999999999999 48.259999999999998 1 0 0 
1 0 0 22.859999999999999 -0 1 0 
1 0 8.8900000000000006 0 0 0 1 
1 0 22.859999999999999 0 1 0 -0 
1 0 22.859999999999999 17.780000000000001 1 0 -0 
1 0 8.8900000000000006 22.859999999999999 1 0 -0 
Polygon3D 0
PolygonOnTriangulations 100
2 1 2 
p 0.0804333345318834 1 0 3.82 
2 1 2 
p 0.0804333345318834 1 0 3.82 
8 1 3 4 5 6 7 8 2 
p 0.0804333345318834 1 0 0.224399475256414 0.448798950512829 0.673198425769243 0.897597901025657 1.12199737628207 1.34639685153849 1.5707963267949 
8 2 4 5 6 7 8 9 3 
p 0.0804333345318834 1 0 0.224399475256414 0.448798950512829 0.673198425769243 0.897597901025657 1.12199737628207 1.34639685153849 1.5707963267949 
2 10 1 
p 0.0804333345318834 1 17.78 22.86 
2 1 4 
p 0.0804333345318834 1 17.78 22.86 
2 11 3 
p 0.0804333345318834 1 17.78 17.79 
2 4 3 
p 0.0804333345318834 1 17.78 17.79 
2 10 11 
p 0.0804333345318834 1 0 8.89 
2 2 3 
p 0.0804333345318834 1 0 8.89 
2 1 9 
p 0.0804333345318834 1 0 74.93 
2 2 3 
p 0.0804333345318834 1 0 74.93 
2 1 4 
p 0.0804333345318834 1 0 74.93 
2 4 3 
p 0.0804333345318834 1 0 74.93 
2 4 3 
p 0.0804333345318834 1 0 3.82 
2 1 2 
p 0.0804333345318834 1 0 3.82 
2 2 10 
p 0.0804333345318834 1 0 74.93 
2 3 2 
p 0.0804333345318834 1 0 74.93 
8 9 11 12 13 14 15 16 10 
p 0.0804333345318834 1 0 0.224399475256414 0.448798950512829 0.673198425769243 0.897597901025657 1.12199737628207 1.34639685153849 1.5707963267949 
8 2 4 5 6 7 8 9 3 
p 0.0804333345318834 1 0 0.224399475256414 0.448798950512829 0.673198425769243 0.897597901025657 1.12199737628207 1.34639685153849 1.5707963267949 
2 1 2 
p 0.0804333345318834 1 0 74.93 
2 3 4 
p 0.0804333345318834 1 0 74.93 
2 2 3 
p 0.0804333345318834 1 17.78 22.86 
2 10 1 
p 0.0804333345318834 1 17.78 22.86 
2 1 2 
p 0.0804333345318834 1 17.78 17.79 
2 11 3 
p 0.0804333345318834 1 17.78 17.79 
2 1 4 
p 0.0804333345318834 1 -74.93 0 
2 1 3 
p 0.0804333345318834 1 -74.93 0 
2 1 2 
p 0.0804333345318834 1 0 17.78 
2 1 3 
p 0.0804333345318834 1 0 17.78 
2 4 3 
p 0.0804333345318834 1 0 17.78 
2 1 2 
p 0.0804333345318834 1 0 17.78 
2 1 4 
p 0.0804333345318834 1 0 8.89 
2 1 2 
p 0.0804333345318834 1 0 8.89 
2 10 11 
p 0.0804333345318834 1 0 8.89 
2 2 3 
p 0.0804333345318834 1 0 8.89 
2 1 2 
p 0.0804333345318834 1 0 74.93 
2 1 4 
p 0.0804333345318834 1 0 74.93 
2 2 4 
p 0.0804333345318834 1 0 17.78 
2 1 2 
p 0.0804333345318834 1 0 17.78 
2 1 2 
p 0.0804333345318834 1 8.89 13.97 
2 2 3 
p 0.0804333345318834 1 8.89 13.97 
2 3 4 
p 0.0804333345318834 1 8.89 13.97 
2 2 3 
p 0.0804333345318834 1 8.89 13.97 
2 2 4 
p 0.0804333345318834 1 -74.93 0 
2 1 4 
p 0.0804333345318834 1 -74.93 0 
2 4 3 
p 0.0804333345318834 1 0 17.78 
2 1 2 
p 0.0804333345318834 1 0 17.78 
2 1 4 
p 0.0804333345318834 1 8.89 13.97 
2 1 2 
p 0.0804333345318834 1 8.89 13.97 
2 2 3 
p 0.0804333345318834 1 0 74.93 
2 1 4 
p 0.0804333345318834 1 0 74.93 
2 4 3 
p 0.0804333345318834 1 0 8.89 
2 1 4 
p 0.0804333345318834 1 0 8.89 
2 4 3 
p 0.0804333345318834 1 0 17.78 
2 1 2 
p 0.0804333345318834 1 0 17.78 
2 4 3 
p 0.0804333345318834 1 0 17.78 
2 1 2 
p 0.0804333345318834 1 0 17.78 
2 1 4 
p 0.0804333345318834 1 8.89 13.97 
2 4 3 
p 0.0804333345318834 1 8.89 13.97 
2 1 2 
p 0.0804333345318834 1 17.78 17.79 
2 1 2 
p 0.0804333345318834 1 17.78 17.79 
2 1 9 
p 0.0804333345318834 1 0 74.93 
2 3 2 
p 0.0804333345318834 1 0 74.93 
2 4 3 
p 0.0804333345318834 1 17.78 17.79 
2 1 2 
p 0.0804333345318834 1 17.78 17.79 
2 2 3 
p 0.0804333345318834 1 13.97 22.86 
2 1 10 
p 0.0804333345318834 1 13.97 22.86 
2 4 3 
p 0.0804333345318834 1 0 17.78 
2 1 3 
p 0.0804333345318834 1 0 17.78 
2 1 4 
p 0.0804333345318834 1 13.97 22.86 
2 1 2 
p 0.0804333345318834 1 13.97 22.86 
2 2 3 
p 0.0804333345318834 1 0 74.93 
2 1 4 
p 0.0804333345318834 1 0 74.93 
2 2 3 
p 0.0804333345318834 1 13.97 22.86 
2 1 10 
p 0.0804333345318834 1 13.97 22.86 
2 4 3 
p 0.0804333345318834 1 0 17.78 
2 2 4 
p 0.0804333345318834 1 0 17.78 
2 1 4 
p 0.0804333345318834 1 13.97 22.86 
2 4 3 
p 0.0804333345318834 1 13.97 22.86 
8 9 11 12 13 14 15 16 10 
p 0.0804333345318834 1 4.71238898038469 4.9367884556411 5.16118793089752 5.38558740615393 5.60998688141035 5.83438635666676 6.05878583192318 6.28318530717959 
8 2 4 5 6 7 8 9 3 
p 0.0804333345318834 1 4.71238898038469 4.9367884556411 5.16118793089752 5.38558740615393 5.60998688141035 5.83438635666676 6.05878583192318 6.28318530717959 
2 3 11 
p 0.0804333345318834 1 5.07 8.89 
2 3 4 
p 0.0804333345318834 1 5.07 8.89 
2 10 11 
p 0.0804333345318834 1 17.78 22.86 
2 2 3 
p 0.0804333345318834 1 17.78 22.86 
8 1 3 4 5 6 7 8 2 
p 0.0804333345318834 1 4.71238898038469 4.9367884556411 5.16118793089752 5.38558740615393 5.60998688141035 5.83438635666676 6.05878583192318 6.28318530717959 
8 2 4 5 6 7 8 9 3 
p 0.0804333345318834 1 4.71238898038469 4.9367884556411 5.16118793089752 5.38558740615393 5.60998688141035 5.83438635666676 6.05878583192318 6.28318530717959 
2 2 10 
p 0.0804333345318834 1 0 74.93 
2 1 3 
p 0.0804333345318834 1 0 74.93 
2 3 11 
p 0.0804333345318834 1 5.07 8.89 
2 1 2 
p 0.0804333345318834 1 5.07 8.89 
2 10 11 
p 0.0804333345318834 1 17.78 22.86 
2 1 4 
p 0.0804333345318834 1 17.78 22.86 
2 1 2 
p 0.0804333345318834 1 0 74.93 
2 2 3 
p 0.0804333345318834 1 0 74.93 
2 3 4 
p 0.0804333345318834 1 0 74.93 
2 1 2 
p 0.0804333345318834 1 0 74.93 
2 2 4 
p 0.0804333345318834 1 0 74.93 
2 4 3 
p 0.0804333345318834 1 0 74.93 
Surfaces 24
1 0 0 0 1 0 -0 0 0 1 0 -1 0 
1 0 0 22.859999999999999 0 0 1 1 0 -0 -0 1 0 
2 -12.699999999999999 3.8200000000000012 43.189999999999998 1 0 0 0 0 1 -0 1 -0 5.0700000000000003
1 0 0 0 -0 1 0 0 0 1 1 0 -0 
1 0 8.8900000000000006 0 -0 1 0 0 0 1 1 0 -0 
1 0 0 0 1 0 -0 0 0 1 0 -1 0 
1 74.930000000000007 0 0 1 0 -0 0 0 1 0 -1 0 
1 0 0 0 -0 1 0 0 0 1 1 0 -0 
1 0 0 17.780000000000001 0 0 1 1 0 -0 -0 1 0 
1 0 0 0 1 0 -0 0 0 1 0 -1 0 
1 0 0 0 0 0 1 1 0 -0 -0 1 0 
1 74.930000000000007 0 0 1 0 -0 0 0 1 0 -1 0 
1 74.930000000000007 0 0 1 0 -0 0 0 1 0 -1 0 
1 0 0 0 -0 1 0 0 0 1 1 0 -0 
1 0 0 0 1 0 -0 0 0 1 0 -1 0 
1 0 0 0 0 0 1 1 0 -0 -0 1 0 
1 74.930000000000007 0 0 1 0 -0 0 0 1 0 -1 0 
1 74.930000000000007 0 0 1 0 -0 0 0 1 0 -1 0 
2 -12.699999999999999 19.039999999999999 43.189999999999998 1 0 0 0 -1 0 -0 -0 1 5.0700000000000003
1 0 0 0 1 0 -0 0 0 1 0 -1 0 
1 0 22.859999999999999 0 -0 1 0 0 0 1 1 0 -0 
1 0 0 0 0 0 1 1 0 -0 -0 1 0 
1 0 0 22.859999999999999 0 0 1 1 0 -0 -0 1 0 
1 0 8.8900000000000006 0 -0 1 0 0 0 1 1 0 -0 
Triangulations 24
11 9 1 1.06581410364015e-14
-12.7 0 48.26 -12.7 3.82 48.26 -12.7 8.89 43.19 -12.7 4.94818113515852 48.1328845147618 -12.7 6.01979055732603 47.7579121602653 -12.7 6.98109329542379 47.1538856161129 -12.7 7.78388561611292 46.3510932954238 -12.7 8.38791216026527 45.389790557326 -12.7 8.76288451476185 44.3181811351585 -12.7 0 43.18 -12.7 8.89 43.18 22.86 0 22.86 -3.82 17.79 -8.89 22.7328845147618 -4.94818113515852 22.3579121602653 -6.01979055732603 21.7538856161129 -6.98109329542379 20.9510932954238 -7.78388561611292 19.989790557326 -8.38791216026527 18.9181811351585 -8.76288451476185 17.78 0 17.78 -8.89 10 6 5 10 7 6 10 8 7 10 9 8 10 3 9 10 11 3 4 10 5 2 10 4 1 10 2 
4 2 1 4.44089209850063e-16
0 0 22.86 0 3.82 22.86 74.93 3.82 22.86 74.93 0 22.86 0 0 0 3.82 74.93 3.82 74.93 0 3 2 1 3 1 4 
16 14 1 0.0318790958412624
-12.7 3.82 48.26 -12.7 8.89 43.19 -12.7 4.94818113515852 48.1328845147618 -12.7 6.01979055732603 47.7579121602653 -12.7 6.98109329542379 47.1538856161129 -12.7 7.78388561611292 46.3510932954238 -12.7 8.38791216026527 45.389790557326 -12.7 8.76288451476185 44.3181811351585 62.23 3.82 48.26 62.23 8.89 43.19 62.23 4.94818113515852 48.1328845147618 62.23 6.01979055732603 47.7579121602653 62.23 6.98109329542379 47.1538856161129 62.23 7.78388561611292 46.3510932954238 62.23 8.38791216026527 45.389790557326 62.23 8.76288451476185 44.3181811351585 0 0 1.5707963267949 0 0.224399475256414 0 0.448798950512829 0 0.673198425769243 0 0.897597901025657 0 1.12199737628207 0 1.34639685153849 0 0 74.93 1.5707963267949 74.93 0.224399475256414 74.93 0.448798950512829 74.93 0.673198425769243 74.93 0.897597901025657 74.93 1.12199737628207 74.93 1.34639685153849 74.93 9 1 3 11 3 4 11 9 3 12 4 5 12 11 4 13 5 6 13 12 5 14 6 7 14 13 6 15 14 7 16 7 8 16 15 7 10 8 2 10 16 8 
4 2 1 4.44089209850063e-16
-12.7 0 43.18 62.23 0 43.18 62.23 0 48.26 -12.7 0 48.26 17.78 0 17.78 74.93 22.86 74.93 22.86 0 3 2 1 3 1 4 
4 2 1 3.55184631706251e-15
62.23 8.89 43.18 62.23 8.89 43.19 -12.7 8.89 43.19 -12.7 8.89 43.18 17.78 74.93 17.79 74.93 17.79 0 17.78 0 2 1 4 2 4 3 
4 2 1 0
-12.7 0 25.4 -12.7 0 43.18 -12.7 8.89 43.18 -12.7 8.89 25.4 0 0 17.78 0 17.78 -8.89 0 -8.89 2 4 3 2 1 4 
11 9 1 1.28094913359575e-14
62.23 0 48.26 62.23 3.82 48.26 62.23 8.89 43.19 62.23 4.94818113515852 48.1328845147618 62.23 6.01979055732603 47.7579121602653 62.23 6.98109329542379 47.1538856161129 62.23 7.78388561611292 46.3510932954238 62.23 8.38791216026527 45.389790557326 62.23 8.76288451476185 44.3181811351585 62.23 0 43.18 62.23 8.89 43.18 22.86 0 22.86 -3.82 17.79 -8.89 22.7328845147618 -4.94818113515852 22.3579121602653 -6.01979055732603 21.7538856161129 -6.98109329542379 20.9510932954238 -7.78388561611292 19.989790557326 -8.38791216026527 18.9181811351585 -8.76288451476185 17.78 0 17.78 -8.89 10 6 5 10 7 6 10 8 7 10 9 8 10 3 9 10 11 3 4 10 5 2 10 4 1 10 2 
4 2 1 1.77635683940025e-15
-12.7 0 25.4 62.23 0 25.4 -12.7 0 43.18 62.23 0 43.18 0 0 0 74.93 17.78 0 17.78 74.93 4 2 1 4 1 3 
4 2 1 1.33226762955019e-15
62.23 8.89 43.18 62.23 13.97 43.18 -12.7 8.89 43.18 -12.7 13.97 43.18 74.93 8.89 74.93 13.97 0 8.89 0 13.97 2 3 1 2 4 3 
4 2 1 4.44089209850063e-16
-12.7 8.89 25.4 -12.7 8.89 43.18 -12.7 13.97 43.18 -12.7 13.97 25.4 0 -8.89 17.78 -8.89 17.78 -13.97 0 -13.97 2 4 3 2 1 4 
4 2 1 1.77635683940025e-15
-12.7 0 25.4 -12.7 8.89 25.4 62.23 8.89 25.4 62.23 0 25.4 0 0 0 8.89 74.93 8.89 74.93 0 3 2 1 3 1 4 
4 2 1 7.105427357601e-15
62.23 0 25.4 62.23 0 43.18 62.23 8.89 43.18 62.23 8.89 25.4 0 0 17.78 0 17.78 -8.89 0 -8.89 2 4 3 2 1 4 
4 2 1 7.11929161928699e-15
62.23 8.89 25.4 62.23 8.89 43.18 62.23 13.97 43.18 62.23 13.97 25.4 0 -8.89 17.78 -8.89 17.78 -13.97 0 -13.97 2 4 3 2 1 4 
4 2 1 3.55184631706251e-15
62.23 13.97 43.18 62.23 13.97 43.19 -12.7 13.97 43.19 -12.7 13.97 43.18 17.78 74.93 17.79 74.93 17.79 0 17.78 0 2 1 4 2 4 3 
4 2 1 4.44089209850063e-16
-12.7 13.97 25.4 -12.7 13.97 43.18 -12.7 22.86 43.18 -12.7 22.86 25.4 0 -13.97 17.78 -13.97 17.78 -22.86 0 -22.86 3 1 4 2 1 3 
4 2 1 1.33226762955019e-15
-12.7 8.89 25.4 -12.7 13.97 25.4 62.23 13.97 25.4 62.23 8.89 25.4 0 8.89 0 13.97 74.93 13.97 74.93 8.89 3 2 1 3 1 4 
4 2 1 7.11929161928699e-15
62.23 13.97 25.4 62.23 13.97 43.18 62.23 22.86 43.18 62.23 22.86 25.4 0 -13.97 17.78 -13.97 17.78 -22.86 0 -22.86 3 1 4 2 1 3 
11 9 1 1.10309471320617e-14
62.23 13.97 43.18 62.23 13.97 43.19 62.23 19.04 48.26 62.23 14.0971154852382 44.3181811351585 62.23 14.4720878397347 45.389790557326 62.23 15.0761143838871 46.3510932954238 62.23 15.8789067045762 47.1538856161129 62.23 16.840209442674 47.7579121602653 62.23 17.9118188648415 48.1328845147618 62.23 22.86 43.18 62.23 22.86 48.26 17.78 0 17.79 0 22.86 -5.07000000000002 18.9181811351585 -0.127115485238154 19.989790557326 -0.502087839734736 20.9510932954238 -1.1061143838871 21.7538856161129 -1.90890670457623 22.3579121602653 -2.870209442674 22.7328845147618 -3.94181886484151 17.78 -8.89 22.86 -8.89 2 1 10 3 10 11 4 2 10 9 10 3 8 10 9 5 4 10 6 5 10 7 10 8 7 6 10 
16 14 1 0.031879095841263
-12.7 13.97 43.19 -12.7 19.04 48.26 -12.7 14.0971154852382 44.3181811351585 -12.7 14.4720878397347 45.389790557326 -12.7 15.0761143838871 46.3510932954238 -12.7 15.8789067045762 47.1538856161129 -12.7 16.840209442674 47.7579121602653 -12.7 17.9118188648415 48.1328845147618 62.23 13.97 43.19 62.23 19.04 48.26 62.23 14.0971154852382 44.3181811351585 62.23 14.4720878397347 45.389790557326 62.23 15.0761143838871 46.3510932954238 62.23 15.8789067045762 47.1538856161129 62.23 16.840209442674 47.7579121602653 62.23 17.9118188648415 48.1328845147618 0 0 1.5707963267949 0 0.224399475256415 0 0.448798950512829 0 0.673198425769244 0 0.897597901025659 0 1.12199737628207 0 1.34639685153849 0 0 74.93 1.5707963267949 74.93 0.224399475256415 74.93 0.448798950512829 74.93 0.673198425769244 74.93 0.897597901025659 74.93 1.12199737628207 74.93 1.34639685153849 74.93 9 1 3 11 3 4 11 9 3 12 11 4 13 4 5 13 5 6 13 12 4 14 13 6 15 6 7 15 14 6 16 7 8 16 15 7 10 8 2 10 16 8 
11 9 1 8.43769498715119e-15
-12.7 13.97 43.18 -12.7 13.97 43.19 -12.7 19.04 48.26 -12.7 14.0971154852382 44.3181811351585 -12.7 14.4720878397347 45.389790557326 -12.7 15.0761143838871 46.3510932954238 -12.7 15.8789067045762 47.1538856161129 -12.7 16.840209442674 47.7579121602653 -12.7 17.9118188648415 48.1328845147618 -12.7 22.86 43.18 -12.7 22.86 48.26 17.78 0 17.79 0 22.86 -5.07000000000002 18.9181811351585 -0.127115485238154 19.989790557326 -0.502087839734736 20.9510932954238 -1.1061143838871 21.7538856161129 -1.90890670457623 22.3579121602653 -2.870209442674 22.7328845147618 -3.94181886484151 17.78 -8.89 22.86 -8.89 2 1 10 3 10 11 4 2 10 9 10 3 8 10 9 5 4 10 6 5 10 7 10 8 7 6 10 
4 2 1 1.77635683940025e-15
-12.7 22.86 25.4 62.23 22.86 25.4 -12.7 22.86 43.18 62.23 22.86 43.18 0 0 0 74.93 17.78 0 17.78 74.93 4 2 1 4 1 3 
4 2 1 1.77635683940025e-15
-12.7 13.97 25.4 -12.7 22.86 25.4 62.23 22.86 25.4 62.23 13.97 25.4 0 13.97 0 22.86 74.93 22.86 74.93 13.97 3 2 1 3 1 4 
4 2 1 3.10862446895044e-15
0 5.07 22.86 0 8.89 22.86 74.93 5.07 22.86 74.93 8.89 22.86 0 5.07 0 8.89 74.93 5.07 74.93 8.89 4 2 1 4 1 3 
4 2 1 4.44089209850063e-16
-12.7 22.86 43.18 62.23 22.86 43.18 62.23 22.86 48.26 -12.7 22.86 48.26 17.78 0 17.78 74.93 22.86 74.93 22.86 0 3 2 1 3 1 4 

TShapes 129
Ve
1e-07
-12.7 3.82 48.26
0 0

0101101
*
Ve
1e-07
-12.7 0 48.26
0 0

0101101
*
Ed
 1e-07 1 1 0
1  1 0 0 3.82
2  1 1 0 0 3.82
2  2 2 0 0 3.82
6  1 1 8
6  2 2 0
0

0101000
-129 10 +128 10 *
Ve
1e-07
-12.7 8.89 43.19
0 0

0101101
*
Ed
 1e-07 1 1 0
1  2 0 0 1.5707963267949
2  3 1 7 0 1.5707963267949
2  4 3 0 0 1.5707963267949
6  3 3 0
6  4 1 4
0

0101000
+129 11 -126 11 *
Ve
1e-07
-12.7 0 43.18
0 0

0101101
*
Ed
 1e-07 1 1 0
1  3 0 17.78 22.86
2  5 1 0 17.78 22.86
2  6 4 0 17.78 22.86
6  5 1 8
6  6 4 8
0

0101000
+124 10 -128 10 *
Ve
1e-07
-12.7 8.89 43.18
0 0

0101101
*
Ed
 1e-07 1 1 0
1  4 0 17.78 17.79
2  7 1 0 17.78 17.79
2  8 5 0 17.78 17.79
6  7 1 8
6  8 5 8
0

0101000
-126 10 +122 10 *
Ed
 1e-07 1 1 0
1  5 0 0 8.89
2  9 1 14 0 8.89
2  10 6 0 0 8.89
6  9 1 15
6  10 6 15
0

0101000
+124 16 -122 16 *
Wi

0101100
-127 7 -125 0 -123 7 +121 7 +120 13 *
Fa
0  1e-07 1 5
2  1
0111000
+119 6 *
Ve
1e-07
62.23 3.82 48.26
0 0

0101101
*
Ed
 1e-07 1 1 0
1  6 0 0 74.93
2  11 2 7 0 74.93
2  12 3 0 0 74.93
4 G1 2 7 3 0
6  11 3 0
6  12 2 7
0

0101000
+129 11 -117 11 *
Ve
1e-07
62.23 0 48.26
0 0

0101101
*
Ed
 1e-07 1 1 0
1  7 0 0 74.93
2  13 2 0 0 74.93
2  14 4 0 0 74.93
6  13 2 0
6  14 4 8
0

0101000
-115 10 +128 10 *
Ed
 1e-07 1 1 0
1  8 0 0 3.82
2  15 2 0 0 3.82
2  16 7 0 0 3.82
6  15 2 0
6  16 7 8
0

0101000
-117 10 +115 10 *
Wi

0101100
-127 7 -116 0 +114 7 +113 7 *
Fa
0  1e-07 2 0
2  2
0111000
+112 17 *
Ve
1e-07
62.23 8.89 43.19
0 0

0101101
*
Ed
 1e-07 1 1 0
1  9 0 0 74.93
2  17 3 0 0 74.93
2  18 5 7 0 74.93
4 G1 3 0 5 7
6  17 3 0
6  18 5 4
0

0101000
+126 11 -110 11 *
Ed
 1e-07 1 1 0
1  10 0 0 1.5707963267949
2  19 3 0 0 1.5707963267949
2  20 7 7 0 1.5707963267949
6  19 3 0
6  20 7 4
0

0101000
+117 11 -110 11 *
Wi

0101100
+125 0 -116 0 +109 0 -108 0 *
Fa
0  1e-07 3 0
2  3
0111000
+107 0 *
Ve
1e-07
62.23 0 43.18
0 0

0101101
*
Ed
 1e-07 1 1 0
1  11 0 0 74.93
2  21 4 14 0 74.93
2  22 8 0 0 74.93
6  21 4 15
6  22 8 15
0

0101000
-105 16 +124 16 *
Ed
 1e-07 1 1 0
1  12 0 17.78 22.86
2  23 4 0 17.78 22.86
2  24 7 0 17.78 22.86
6  23 4 8
6  24 7 8
0

0101000
+105 10 -115 10 *
Wi

0101000
-104 12 -103 5 +114 5 +123 5 *
Fa
0  1e-07 4 5
2  4
0111000
+102 0 *
Ve
1e-07
62.23 8.89 43.18
0 0

0101101
*
Ed
 1e-07 1 1 0
1  13 0 17.78 17.79
2  25 5 0 17.78 17.79
2  26 7 0 17.78 17.79
6  25 5 8
6  26 7 8
0

0101000
-110 10 +100 10 *
Ed
 1e-07 1 1 0
1  14 0 -74.93 0
2  27 5 5 -74.93 0
2  28 9 12 -74.93 0
6  27 5 0
6  28 9 18
0

0101000
+100 19 -122 19 *
Wi

0101100
-99 7 +109 0 +98 4 +121 7 *
Fa
0  1e-07 5 5
2  5
0111000
+97 6 *
Ve
1e-07
-12.7 0 25.4
0 0

0101101
*
Ed
 1e-07 1 1 0
1  15 0 0 17.78
2  29 6 0 0 17.78
2  30 8 0 0 17.78
6  29 6 15
6  30 8 15
0

0101000
+95 16 -124 16 *
Ve
1e-07
-12.7 8.89 25.4
0 0

0101101
*
Ed
 1e-07 1 1 0
1  16 0 0 17.78
2  31 6 20 0 17.78
2  32 10 20 0 17.78
6  31 6 8
6  32 10 21
0

0101000
+93 10 -122 10 *
Ed
 1e-07 1 1 0
1  17 0 0 8.89
2  33 6 0 0 8.89
2  34 11 0 0 8.89
6  33 6 15
6  34 11 15
0

0101000
+95 16 -93 16 *
Wi

0101000
-94 12 -120 12 +92 5 +91 12 *
Fa
0  1e-07 6 12
2  6
0111000
+90 0 *
Ed
 1e-07 1 1 0
1  18 0 0 8.89
2  35 7 14 0 8.89
2  36 12 0 0 8.89
6  35 7 15
6  36 12 15
0

0101000
+105 16 -100 16 *
Wi

0101100
-113 7 -108 0 -103 7 +99 7 +88 13 *
Fa
0  1e-07 7 5
2  7
0111000
+87 6 *
Ve
1e-07
62.23 0 25.4
0 0

0101101
*
Ed
 1e-07 1 1 0
1  19 0 0 74.93
2  37 8 0 0 74.93
2  38 11 0 0 74.93
6  37 8 15
6  38 11 15
0

0101000
+95 16 -85 16 *
Ed
 1e-07 1 1 0
1  20 0 0 17.78
2  39 8 0 0 17.78
2  40 12 0 0 17.78
6  39 8 15
6  40 12 15
0

0101000
+85 16 -105 16 *
Wi

0101000
-84 12 +94 12 -83 12 +104 12 *
Fa
0  1e-07 8 12
2  8
0111000
+82 0 *
Ve
1e-07
62.23 13.97 43.18
0 0

0101101
*
Ed
 1e-07 1 1 0
1  21 0 8.89 13.97
2  41 9 0 8.89 13.97
2  42 13 0 8.89 13.97
6  41 9 23
6  42 13 23
0

0101000
+100 16 -80 16 *
Ve
1e-07
-12.7 13.97 43.18
0 0

0101101
*
Ed
 1e-07 1 1 0
1  22 0 8.89 13.97
2  43 9 0 8.89 13.97
2  44 10 0 8.89 13.97
6  43 9 23
6  44 10 23
0

0101000
+122 16 -78 16 *
Ed
 1e-07 1 1 0
1  23 0 -74.93 0
2  45 9 22 -74.93 0
2  46 14 24 -74.93 0
6  45 9 0
6  46 14 0
0

0101000
+80 25 -78 25 *
Wi

0101000
+79 22 -98 2 -77 22 +76 0 *
Fa
0  1e-07 9 22
2  9
0111000
+75 0 *
Ve
1e-07
-12.7 13.97 25.4
0 0

0101101
*
Ed
 1e-07 1 1 0
1  24 0 0 17.78
2  47 10 27 0 17.78
2  48 15 27 0 17.78
6  47 10 28
6  48 15 28
0

0101000
+73 29 -78 29 *
Ed
 1e-07 1 1 0
1  25 0 8.89 13.97
2  49 10 0 8.89 13.97
2  50 16 0 8.89 13.97
6  49 10 23
6  50 16 23
0

0101000
+93 16 -73 16 *
Wi

0101000
-92 26 -77 22 +72 24 +71 22 *
Fa
0  1e-07 10 22
2  10
0111000
+70 0 *
Ve
1e-07
62.23 8.89 25.4
0 0

0101101
*
Ed
 1e-07 1 1 0
1  26 0 0 74.93
2  51 11 20 0 74.93
2  52 16 20 0 74.93
6  51 11 8
6  52 16 21
0

0101000
-68 10 +93 10 *
Ed
 1e-07 1 1 0
1  27 0 0 8.89
2  53 11 0 0 8.89
2  54 12 0 0 8.89
6  53 11 15
6  54 12 15
0

0101000
+85 16 -68 16 *
Wi

0101000
-91 12 -67 5 +66 12 +84 12 *
Fa
0  1e-07 11 12
2  11
0111000
+65 0 *
Ed
 1e-07 1 1 0
1  28 0 0 17.78
2  55 12 20 0 17.78
2  56 13 20 0 17.78
6  55 12 8
6  56 13 21
0

0101000
+68 10 -100 10 *
Wi

0101000
-83 12 -88 12 +63 5 +66 12 *
Fa
0  1e-07 12 12
2  12
0111000
+62 0 *
Ve
1e-07
62.23 13.97 25.4
0 0

0101101
*
Ed
 1e-07 1 1 0
1  29 0 0 17.78
2  57 13 27 0 17.78
2  58 17 27 0 17.78
6  57 13 28
6  58 17 28
0

0101000
+60 29 -80 29 *
Ed
 1e-07 1 1 0
1  30 0 8.89 13.97
2  59 13 0 8.89 13.97
2  60 16 0 8.89 13.97
6  59 13 23
6  60 16 23
0

0101000
+68 16 -60 16 *
Wi

0101000
-63 26 -79 22 +59 24 +58 22 *
Fa
0  1e-07 13 22
2  13
0111000
+57 0 *
Ve
1e-07
62.23 13.97 43.19
0 0

0101101
*
Ed
 1e-07 1 1 0
1  31 0 17.78 17.79
2  61 14 0 17.78 17.79
2  62 18 0 17.78 17.79
6  61 14 28
6  62 18 28
0

0101000
-55 29 +80 29 *
Ve
1e-07
-12.7 13.97 43.19
0 0

0101101
*
Ed
 1e-07 1 1 0
1  32 0 0 74.93
2  63 14 31 0 74.93
2  64 19 0 0 74.93
4 G1 14 31 19 0
6  63 19 0
6  64 14 3
0

0101000
+53 11 -55 11 *
Ed
 1e-07 1 1 0
1  33 0 17.78 17.79
2  65 14 0 17.78 17.79
2  66 20 0 17.78 17.79
6  65 14 28
6  66 20 28
0

0101000
-53 29 +78 29 *
Wi

0101100
-54 31 +52 0 +76 3 +51 31 *
Fa
0  1e-07 14 24
2  14
0111000
+50 30 *
Ve
1e-07
-12.7 22.86 43.18
0 0

0101101
*
Ed
 1e-07 1 1 0
1  34 0 13.97 22.86
2  67 15 0 13.97 22.86
2  68 20 32 13.97 22.86
6  67 15 23
6  68 20 23
0

0101000
+78 16 -48 16 *
Ve
1e-07
-12.7 22.86 25.4
0 0

0101101
*
Ed
 1e-07 1 1 0
1  35 0 0 17.78
2  69 15 0 0 17.78
2  70 21 0 0 17.78
6  69 15 23
6  70 21 23
0

0101000
+46 16 -48 16 *
Ed
 1e-07 1 1 0
1  36 0 13.97 22.86
2  71 15 0 13.97 22.86
2  72 22 0 13.97 22.86
6  71 15 23
6  72 22 23
0

0101000
+73 16 -46 16 *
Wi

0101000
-72 24 -47 22 +45 22 +44 22 *
Fa
0  1e-07 15 22
2  15
0111000
+43 0 *
Ed
 1e-07 1 1 0
1  37 0 0 74.93
2  73 16 27 0 74.93
2  74 22 27 0 74.93
6  73 16 28
6  74 22 28
0

0101000
-60 29 +73 29 *
Wi

0101000
-71 22 -41 24 +58 22 +67 26 *
Fa
0  1e-07 16 22
2  16
0111000
+40 0 *
Ve
1e-07
62.23 22.86 43.18
0 0

0101101
*
Ed
 1e-07 1 1 0
1  38 0 13.97 22.86
2  75 17 0 13.97 22.86
2  76 18 32 13.97 22.86
6  75 17 23
6  76 18 23
0

0101000
+80 16 -38 16 *
Ve
1e-07
62.23 22.86 25.4
0 0

0101101
*
Ed
 1e-07 1 1 0
1  39 0 0 17.78
2  77 17 0 0 17.78
2  78 21 0 0 17.78
6  77 17 23
6  78 21 23
0

0101000
+36 16 -38 16 *
Ed
 1e-07 1 1 0
1  40 0 13.97 22.86
2  79 17 0 13.97 22.86
2  80 22 0 13.97 22.86
6  79 17 23
6  80 22 23
0

0101000
+60 16 -36 16 *
Wi

0101000
-59 24 -37 22 +35 22 +34 22 *
Fa
0  1e-07 17 22
2  17
0111000
+33 0 *
Ve
1e-07
62.23 19.04 48.26
0 0

0101101
*
Ed
 1e-07 1 1 0
1  41 0 4.71238898038469 6.28318530717959
2  81 18 31 4.71238898038469 6.28318530717959
2  82 19 0 4.71238898038469 6.28318530717959
6  81 19 0
6  82 18 3
0

0101000
+55 11 -31 11 *
Ve
1e-07
62.23 22.86 48.26
0 0

0101101
*
Ed
 1e-07 1 1 0
1  42 0 5.07 8.89
2  83 18 0 5.07 8.89
2  84 23 0 5.07 8.89
6  83 18 28
6  84 23 0
0

0101000
+31 29 -29 29 *
Ed
 1e-07 1 1 0
1  43 0 17.78 22.86
2  85 18 0 17.78 22.86
2  86 24 0 17.78 22.86
6  85 18 28
6  86 24 28
0

0101000
+38 29 -29 29 *
Wi

0101100
-54 31 -30 0 +37 13 -28 31 +27 31 *
Fa
0  1e-07 18 24
2  18
0111000
+26 30 *
Ve
1e-07
-12.7 19.04 48.26
0 0

0101101
*
Ed
 1e-07 1 1 0
1  44 0 4.71238898038469 6.28318530717959
2  87 19 0 4.71238898038469 6.28318530717959
2  88 20 31 4.71238898038469 6.28318530717959
6  87 19 0
6  88 20 3
0

0101000
+53 11 -24 11 *
Ed
 1e-07 1 1 0
1  45 0 0 74.93
2  89 19 0 0 74.93
2  90 23 31 0 74.93
4 G1 19 0 23 31
6  89 19 0
6  90 23 31
0

0101000
+24 11 -31 11 *
Wi

0101100
+23 0 -52 0 +22 0 -30 0 *
Fa
0  1e-07 19 0
2  19
0111000
+21 0 *
Ve
1e-07
-12.7 22.86 48.26
0 0

0101101
*
Ed
 1e-07 1 1 0
1  46 0 5.07 8.89
2  91 20 0 5.07 8.89
2  92 23 0 5.07 8.89
6  91 20 28
6  92 23 0
0

0101000
+24 29 -19 29 *
Ed
 1e-07 1 1 0
1  47 0 17.78 22.86
2  93 20 0 17.78 22.86
2  94 24 0 17.78 22.86
6  93 20 28
6  94 24 28
0

0101000
+48 29 -19 29 *
Wi

0101100
-51 31 -23 0 +47 13 -18 31 +17 31 *
Fa
0  1e-07 20 24
2  20
0111000
+16 30 *
Ed
 1e-07 1 1 0
1  48 0 0 74.93
2  95 21 0 0 74.93
2  96 22 0 0 74.93
6  95 21 23
6  96 22 23
0

0101000
+46 16 -36 16 *
Ed
 1e-07 1 1 0
1  49 0 0 74.93
2  97 21 0 0 74.93
2  98 24 32 0 74.93
6  97 21 23
6  98 24 23
0

0101000
-38 16 +48 16 *
Wi

0101000
-14 22 +45 22 -35 22 +13 22 *
Fa
0  1e-07 21 22
2  21
0111000
+12 0 *
Wi

0101000
-44 22 -14 22 +34 22 +41 24 *
Fa
0  1e-07 22 22
2  22
0111000
+10 0 *
Ed
 1e-07 1 1 0
1  50 0 0 74.93
2  99 23 0 0 74.93
2  100 24 0 0 74.93
6  99 23 0
6  100 24 28
0

0101000
-29 29 +19 29 *
Wi

0101100
-18 31 +22 0 -8 31 +28 31 *
Fa
0  1e-07 23 0
2  23
0111000
+7 33 *
Wi

0101000
-13 22 -27 24 +8 24 +17 24 *
Fa
0  1e-07 24 24
2  24
0111000
+5 0 *
Sh

0101100
-118 4 +111 7 -106 0 -101 4 +96 4 -89 4 +86 4 -81 4 +74 3 -69 3 
-64 4 +61 4 +56 3 -49 3 -42 3 -39 3 +32 3 +25 3 -20 0 -15 3 
+11 3 -9 3 +6 31 +4 3 *
So

0100000
+3 0 *
Co

1100000
+2 0 *

+1 1 