DBRep_DrawableShape

CASCADE Topology V1, (c) Matra-Datavision
Locations 226
1
              1               0               0               0 
              0               1               0               0 
              0               0               1               0 
1
              1               0               0               0 
              0               1               0               0 
              0               0               1               0 
1
              1               0               0               0 
              0               1               0               0 
              0               0               1               0 
1
              1               0               0               0 
              0               1               0               0 
              0               0               1               0 
1
0.866025403784439            -0.5               0               0 
            0.5 0.866025403784439               0               0 
              0               0               1               0 
1
              1               0               0              15 
              0               1               0              20 
              0               0               1               3 
2  5 1 6 1 0
1
0.866025403784439            -0.5               0               0 
            0.5 0.866025403784439               0               0 
              0               0               1               0 
1
              1               0               0              15 
              0               1               0              20 
              0               0               1               3 
2  5 1 6 1 8 1 9 1 0
1
0.866025403784439            -0.5               0               0 
            0.5 0.866025403784439               0               0 
              0               0               1               0 
1
              1               0               0              15 
              0               1               0              20 
              0               0               1               3 
2  5 1 6 1 8 1 9 1 11 1 12 1 0
1
0.866025403784439            -0.5               0               0 
            0.5 0.866025403784439               0               0 
              0               0               1               0 
1
              1               0               0              15 
              0               1               0              20 
              0               0               1               3 
2  5 1 6 1 8 1 9 1 11 1 12 1 14 1 15 1 0
1
0.866025403784439            -0.5               0               0 
            0.5 0.866025403784439               0               0 
              0               0               1               0 
1
              1               0               0              15 
              0               1               0              20 
              0               0               1               3 
2  5 1 6 1 8 1 9 1 11 1 12 1 14 1 15 1 17 1 18 1 0
1
0.866025403784439            -0.5               0               0 
            0.5 0.866025403784439               0               0 
              0               0               1               0 
1
              1               0               0              15 
              0               1               0              20 
              0               0               1               3 
2  5 1 6 1 8 1 9 1 11 1 12 1 14 1 15 1 17 1 18 1 20 1 21 1 0
1
0.866025403784439            -0.5               0               0 
            0.5 0.866025403784439               0               0 
              0               0               1               0 
1
              1               0               0              15 
              0               1               0              20 
              0               0               1               3 
2  5 1 6 1 8 1 9 1 11 1 12 1 14 1 15 1 17 1 18 1 20 1 21 1 23 1 24 1 0
1
0.866025403784439            -0.5               0               0 
            0.5 0.866025403784439               0               0 
              0               0               1               0 
1
              1               0               0              15 
              0               1               0              20 
              0               0               1               3 
2  5 1 6 1 8 1 9 1 11 1 12 1 14 1 15 1 17 1 18 1 20 1 21 1 23 1 24 1 26 1 27 1 0
1
0.866025403784439            -0.5               0               0 
            0.5 0.866025403784439               0               0 
              0               0               1               0 
1
              1               0               0              15 
              0               1               0              20 
              0               0               1               3 
2  5 1 6 1 8 1 9 1 11 1 12 1 14 1 15 1 17 1 18 1 20 1 21 1 23 1 24 1 26 1 27 1 29 1 30 1 0
1
0.866025403784439            -0.5               0               0 
            0.5 0.866025403784439               0               0 
              0               0               1               0 
1
              1               0               0              15 
              0               1               0              20 
              0               0               1               3 
2  5 1 6 1 8 1 9 1 11 1 12 1 14 1 15 1 17 1 18 1 20 1 21 1 23 1 24 1 26 1 27 1 29 1 30 1 32 1 33 1 0
1
0.866025403784439            -0.5               0               0 
            0.5 0.866025403784439               0               0 
              0               0               1               0 
1
              1               0               0              15 
              0               1               0              20 
              0               0               1               3 
2  5 1 6 1 8 1 9 1 11 1 12 1 14 1 15 1 17 1 18 1 20 1 21 1 23 1 24 1 26 1 27 1 29 1 30 1 32 1 33 1 35 1 36 1 0
1
0.992403876506104 0.00759612349389599 0.122787803968973 0.759612349389599 
0.00759612349389599 0.992403876506104 -0.122787803968973 -0.759612349389599 
-0.122787803968973 0.122787803968973 0.984807753012208 12.2787803968973 
1
              1               0               0               0 
              0               1               0               0 
              0               0               1               0 
2  38 1 39 1 0
1
0.992403876506104 0.00759612349389599 0.122787803968973 0.759612349389599 
0.00759612349389599 0.992403876506104 -0.122787803968973 -0.759612349389599 
-0.122787803968973 0.122787803968973 0.984807753012208 12.2787803968973 
1
              1               0               0               0 
              0               1               0               0 
              0               0               1               0 
2  38 1 39 1 41 1 42 1 0
1
0.992403876506104 0.00759612349389599 0.122787803968973 0.759612349389599 
0.00759612349389599 0.992403876506104 -0.122787803968973 -0.759612349389599 
-0.122787803968973 0.122787803968973 0.984807753012208 12.2787803968973 
1
              1               0               0               0 
              0               1               0               0 
              0               0               1               0 
2  38 1 39 1 41 1 42 1 44 1 45 1 0
1
0.992403876506104 0.00759612349389599 0.122787803968973 0.759612349389599 
0.00759612349389599 0.992403876506104 -0.122787803968973 -0.759612349389599 
-0.122787803968973 0.122787803968973 0.984807753012208 12.2787803968973 
1
              1               0               0               0 
              0               1               0               0 
              0               0               1               0 
2  38 1 39 1 41 1 42 1 44 1 45 1 47 1 48 1 0
1
0.992403876506104 0.00759612349389599 0.122787803968973 0.759612349389599 
0.00759612349389599 0.992403876506104 -0.122787803968973 -0.759612349389599 
-0.122787803968973 0.122787803968973 0.984807753012208 12.2787803968973 
1
              1               0               0               0 
              0               1               0               0 
              0               0               1               0 
2  38 1 39 1 41 1 42 1 44 1 45 1 47 1 48 1 50 1 51 1 0
1
0.992403876506104 0.00759612349389599 0.122787803968973 0.759612349389599 
0.00759612349389599 0.992403876506104 -0.122787803968973 -0.759612349389599 
-0.122787803968973 0.122787803968973 0.984807753012208 12.2787803968973 
1
              1               0               0               0 
              0               1               0               0 
              0               0               1               0 
2  38 1 39 1 41 1 42 1 44 1 45 1 47 1 48 1 50 1 51 1 53 1 54 1 0
1
0.992403876506104 0.00759612349389599 0.122787803968973 0.759612349389599 
0.00759612349389599 0.992403876506104 -0.122787803968973 -0.759612349389599 
-0.122787803968973 0.122787803968973 0.984807753012208 12.2787803968973 
1
              1               0               0               0 
              0               1               0               0 
              0               0               1               0 
2  38 1 39 1 41 1 42 1 44 1 45 1 47 1 48 1 50 1 51 1 53 1 54 1 56 1 57 1 0
1
0.992403876506104 0.00759612349389599 0.122787803968973 0.759612349389599 
0.00759612349389599 0.992403876506104 -0.122787803968973 -0.759612349389599 
-0.122787803968973 0.122787803968973 0.984807753012208 12.2787803968973 
1
              1               0               0               0 
              0               1               0               0 
              0               0               1               0 
2  38 1 39 1 41 1 42 1 44 1 45 1 47 1 48 1 50 1 51 1 53 1 54 1 56 1 57 1 59 1 60 1 0
1
0.992403876506104 0.00759612349389599 0.122787803968973 0.759612349389599 
0.00759612349389599 0.992403876506104 -0.122787803968973 -0.759612349389599 
-0.122787803968973 0.122787803968973 0.984807753012208 12.2787803968973 
1
              1               0               0               0 
              0               1               0               0 
              0               0               1               0 
2  38 1 39 1 41 1 42 1 44 1 45 1 47 1 48 1 50 1 51 1 53 1 54 1 56 1 57 1 59 1 60 1 62 1 63 1 0
1
0.992403876506104 0.00759612349389599 0.122787803968973 0.759612349389599 
0.00759612349389599 0.992403876506104 -0.122787803968973 -0.759612349389599 
-0.122787803968973 0.122787803968973 0.984807753012208 12.2787803968973 
1
              1               0               0               0 
              0               1               0               0 
              0               0               1               0 
2  38 1 39 1 41 1 42 1 44 1 45 1 47 1 48 1 50 1 51 1 53 1 54 1 56 1 57 1 59 1 60 1 62 1 63 1 65 1 66 1 0
1
0.992403876506104 0.00759612349389599 0.122787803968973 0.759612349389599 
0.00759612349389599 0.992403876506104 -0.122787803968973 -0.759612349389599 
-0.122787803968973 0.122787803968973 0.984807753012208 12.2787803968973 
1
              1               0               0               0 
              0               1               0               0 
              0               0               1               0 
2  38 1 39 1 41 1 42 1 44 1 45 1 47 1 48 1 50 1 51 1 53 1 54 1 56 1 57 1 59 1 60 1 62 1 63 1 65 1 66 1 68 1 69 1 0
1
0.992403876506104 0.00759612349389599 0.122787803968973 0.759612349389599 
0.00759612349389599 0.992403876506104 -0.122787803968973 -0.759612349389599 
-0.122787803968973 0.122787803968973 0.984807753012208 12.2787803968973 
1
              1               0               0               0 
              0               1               0               0 
              0               0               1               0 
2  38 1 39 1 41 1 42 1 44 1 45 1 47 1 48 1 50 1 51 1 53 1 54 1 56 1 57 1 59 1 60 1 62 1 63 1 65 1 66 1 68 1 69 1 71 1 72 1 0
1
0.992403876506104 0.00759612349389599 0.122787803968973 0.759612349389599 
0.00759612349389599 0.992403876506104 -0.122787803968973 -0.759612349389599 
-0.122787803968973 0.122787803968973 0.984807753012208 12.2787803968973 
1
              1               0               0               0 
              0               1               0               0 
              0               0               1               0 
2  38 1 39 1 41 1 42 1 44 1 45 1 47 1 48 1 50 1 51 1 53 1 54 1 56 1 57 1 59 1 60 1 62 1 63 1 65 1 66 1 68 1 69 1 71 1 72 1 74 1 75 1 0
1
0.992403876506104 0.00759612349389599 0.122787803968973 0.759612349389599 
0.00759612349389599 0.992403876506104 -0.122787803968973 -0.759612349389599 
-0.122787803968973 0.122787803968973 0.984807753012208 12.2787803968973 
1
              1               0               0               0 
              0               1               0               0 
              0               0               1               0 
2  38 1 39 1 41 1 42 1 44 1 45 1 47 1 48 1 50 1 51 1 53 1 54 1 56 1 57 1 59 1 60 1 62 1 63 1 65 1 66 1 68 1 69 1 71 1 72 1 74 1 75 1 77 1 78 1 0
1
0.992403876506104 0.00759612349389599 0.122787803968973 0.759612349389599 
0.00759612349389599 0.992403876506104 -0.122787803968973 -0.759612349389599 
-0.122787803968973 0.122787803968973 0.984807753012208 12.2787803968973 
1
              1               0               0               0 
              0               1               0               0 
              0               0               1               0 
2  38 1 39 1 41 1 42 1 44 1 45 1 47 1 48 1 50 1 51 1 53 1 54 1 56 1 57 1 59 1 60 1 62 1 63 1 65 1 66 1 68 1 69 1 71 1 72 1 74 1 75 1 77 1 78 1 80 1 81 1 0
1
0.992403876506104 0.00759612349389599 0.122787803968973 0.759612349389599 
0.00759612349389599 0.992403876506104 -0.122787803968973 -0.759612349389599 
-0.122787803968973 0.122787803968973 0.984807753012208 12.2787803968973 
1
              1               0               0               0 
              0               1               0               0 
              0               0               1               0 
2  38 1 39 1 41 1 42 1 44 1 45 1 47 1 48 1 50 1 51 1 53 1 54 1 56 1 57 1 59 1 60 1 62 1 63 1 65 1 66 1 68 1 69 1 71 1 72 1 74 1 75 1 77 1 78 1 80 1 81 1 83 1 84 1 0
1
0.992403876506104 0.00759612349389599 0.122787803968973 0.759612349389599 
0.00759612349389599 0.992403876506104 -0.122787803968973 -0.759612349389599 
-0.122787803968973 0.122787803968973 0.984807753012208 12.2787803968973 
1
              1               0               0               0 
              0               1               0               0 
              0               0               1               0 
2  38 1 39 1 41 1 42 1 44 1 45 1 47 1 48 1 50 1 51 1 53 1 54 1 56 1 57 1 59 1 60 1 62 1 63 1 65 1 66 1 68 1 69 1 71 1 72 1 74 1 75 1 77 1 78 1 80 1 81 1 83 1 84 1 86 1 87 1 0
1
0.992403876506104 0.00759612349389599 0.122787803968973 0.759612349389599 
0.00759612349389599 0.992403876506104 -0.122787803968973 -0.759612349389599 
-0.122787803968973 0.122787803968973 0.984807753012208 12.2787803968973 
1
              1               0               0               0 
              0               1               0               0 
              0               0               1               0 
2  38 1 39 1 41 1 42 1 44 1 45 1 47 1 48 1 50 1 51 1 53 1 54 1 56 1 57 1 59 1 60 1 62 1 63 1 65 1 66 1 68 1 69 1 71 1 72 1 74 1 75 1 77 1 78 1 80 1 81 1 83 1 84 1 86 1 87 1 89 1 90 1 0
1
0.992403876506104 0.00759612349389599 0.122787803968973 0.759612349389599 
0.00759612349389599 0.992403876506104 -0.122787803968973 -0.759612349389599 
-0.122787803968973 0.122787803968973 0.984807753012208 12.2787803968973 
1
              1               0               0               0 
              0               1               0               0 
              0               0               1               0 
2  38 1 39 1 41 1 42 1 44 1 45 1 47 1 48 1 50 1 51 1 53 1 54 1 56 1 57 1 59 1 60 1 62 1 63 1 65 1 66 1 68 1 69 1 71 1 72 1 74 1 75 1 77 1 78 1 80 1 81 1 83 1 84 1 86 1 87 1 89 1 90 1 92 1 93 1 0
1
0.992403876506104 0.00759612349389599 0.122787803968973 0.759612349389599 
0.00759612349389599 0.992403876506104 -0.122787803968973 -0.759612349389599 
-0.122787803968973 0.122787803968973 0.984807753012208 12.2787803968973 
1
              1               0               0               0 
              0               1               0               0 
              0               0               1               0 
2  38 1 39 1 41 1 42 1 44 1 45 1 47 1 48 1 50 1 51 1 53 1 54 1 56 1 57 1 59 1 60 1 62 1 63 1 65 1 66 1 68 1 69 1 71 1 72 1 74 1 75 1 77 1 78 1 80 1 81 1 83 1 84 1 86 1 87 1 89 1 90 1 92 1 93 1 95 1 96 1 0
1
0.992403876506104 0.00759612349389599 0.122787803968973 0.759612349389599 
0.00759612349389599 0.992403876506104 -0.122787803968973 -0.759612349389599 
-0.122787803968973 0.122787803968973 0.984807753012208 12.2787803968973 
1
              1               0               0               0 
              0               1               0               0 
              0               0               1               0 
2  38 1 39 1 41 1 42 1 44 1 45 1 47 1 48 1 50 1 51 1 53 1 54 1 56 1 57 1 59 1 60 1 62 1 63 1 65 1 66 1 68 1 69 1 71 1 72 1 74 1 75 1 77 1 78 1 80 1 81 1 83 1 84 1 86 1 87 1 89 1 90 1 92 1 93 1 95 1 96 1 98 1 99 1 0
1
0.992403876506104 0.00759612349389599 0.122787803968973 0.759612349389599 
0.00759612349389599 0.992403876506104 -0.122787803968973 -0.759612349389599 
-0.122787803968973 0.122787803968973 0.984807753012208 12.2787803968973 
1
              1               0               0               0 
              0               1               0               0 
              0               0               1               0 
2  38 1 39 1 41 1 42 1 44 1 45 1 47 1 48 1 50 1 51 1 53 1 54 1 56 1 57 1 59 1 60 1 62 1 63 1 65 1 66 1 68 1 69 1 71 1 72 1 74 1 75 1 77 1 78 1 80 1 81 1 83 1 84 1 86 1 87 1 89 1 90 1 92 1 93 1 95 1 96 1 98 1 99 1 101 1 102 1 0
1
0.992403876506104 0.00759612349389599 0.122787803968973 0.759612349389599 
0.00759612349389599 0.992403876506104 -0.122787803968973 -0.759612349389599 
-0.122787803968973 0.122787803968973 0.984807753012208 12.2787803968973 
1
              1               0               0               0 
              0               1               0               0 
              0               0               1               0 
2  38 1 39 1 41 1 42 1 44 1 45 1 47 1 48 1 50 1 51 1 53 1 54 1 56 1 57 1 59 1 60 1 62 1 63 1 65 1 66 1 68 1 69 1 71 1 72 1 74 1 75 1 77 1 78 1 80 1 81 1 83 1 84 1 86 1 87 1 89 1 90 1 92 1 93 1 95 1 96 1 98 1 99 1 101 1 102 1 104 1 105 1 0
1
0.992403876506104 0.00759612349389599 0.122787803968973 0.759612349389599 
0.00759612349389599 0.992403876506104 -0.122787803968973 -0.759612349389599 
-0.122787803968973 0.122787803968973 0.984807753012208 12.2787803968973 
1
              1               0               0               0 
              0               1               0               0 
              0               0               1               0 
2  38 1 39 1 41 1 42 1 44 1 45 1 47 1 48 1 50 1 51 1 53 1 54 1 56 1 57 1 59 1 60 1 62 1 63 1 65 1 66 1 68 1 69 1 71 1 72 1 74 1 75 1 77 1 78 1 80 1 81 1 83 1 84 1 86 1 87 1 89 1 90 1 92 1 93 1 95 1 96 1 98 1 99 1 101 1 102 1 104 1 105 1 107 1 108 1 0
1
0.992403876506104 0.00759612349389599 0.122787803968973 0.759612349389599 
0.00759612349389599 0.992403876506104 -0.122787803968973 -0.759612349389599 
-0.122787803968973 0.122787803968973 0.984807753012208 12.2787803968973 
1
              1               0               0               0 
              0               1               0               0 
              0               0               1               0 
2  38 1 39 1 41 1 42 1 44 1 45 1 47 1 48 1 50 1 51 1 53 1 54 1 56 1 57 1 59 1 60 1 62 1 63 1 65 1 66 1 68 1 69 1 71 1 72 1 74 1 75 1 77 1 78 1 80 1 81 1 83 1 84 1 86 1 87 1 89 1 90 1 92 1 93 1 95 1 96 1 98 1 99 1 101 1 102 1 104 1 105 1 107 1 108 1 110 1 111 1 0
1
0.992403876506104 0.00759612349389599 0.122787803968973 0.759612349389599 
0.00759612349389599 0.992403876506104 -0.122787803968973 -0.759612349389599 
-0.122787803968973 0.122787803968973 0.984807753012208 12.2787803968973 
1
              1               0               0               0 
              0               1               0               0 
              0               0               1               0 
2  38 1 39 1 41 1 42 1 44 1 45 1 47 1 48 1 50 1 51 1 53 1 54 1 56 1 57 1 59 1 60 1 62 1 63 1 65 1 66 1 68 1 69 1 71 1 72 1 74 1 75 1 77 1 78 1 80 1 81 1 83 1 84 1 86 1 87 1 89 1 90 1 92 1 93 1 95 1 96 1 98 1 99 1 101 1 102 1 104 1 105 1 107 1 108 1 110 1 111 1 113 1 114 1 0
1
0.992403876506104 0.00759612349389599 0.122787803968973 0.759612349389599 
0.00759612349389599 0.992403876506104 -0.122787803968973 -0.759612349389599 
-0.122787803968973 0.122787803968973 0.984807753012208 12.2787803968973 
1
              1               0               0               0 
              0               1               0               0 
              0               0               1               0 
2  38 1 39 1 41 1 42 1 44 1 45 1 47 1 48 1 50 1 51 1 53 1 54 1 56 1 57 1 59 1 60 1 62 1 63 1 65 1 66 1 68 1 69 1 71 1 72 1 74 1 75 1 77 1 78 1 80 1 81 1 83 1 84 1 86 1 87 1 89 1 90 1 92 1 93 1 95 1 96 1 98 1 99 1 101 1 102 1 104 1 105 1 107 1 108 1 110 1 111 1 113 1 114 1 116 1 117 1 0
1
0.992403876506104 0.00759612349389599 0.122787803968973 0.759612349389599 
0.00759612349389599 0.992403876506104 -0.122787803968973 -0.759612349389599 
-0.122787803968973 0.122787803968973 0.984807753012208 12.2787803968973 
1
              1               0               0               0 
              0               1               0               0 
              0               0               1               0 
2  38 1 39 1 41 1 42 1 44 1 45 1 47 1 48 1 50 1 51 1 53 1 54 1 56 1 57 1 59 1 60 1 62 1 63 1 65 1 66 1 68 1 69 1 71 1 72 1 74 1 75 1 77 1 78 1 80 1 81 1 83 1 84 1 86 1 87 1 89 1 90 1 92 1 93 1 95 1 96 1 98 1 99 1 101 1 102 1 104 1 105 1 107 1 108 1 110 1 111 1 113 1 114 1 116 1 117 1 119 1 120 1 0
1
0.992403876506104 0.00759612349389599 0.122787803968973 0.759612349389599 
0.00759612349389599 0.992403876506104 -0.122787803968973 -0.759612349389599 
-0.122787803968973 0.122787803968973 0.984807753012208 12.2787803968973 
1
              1               0               0               0 
              0               1               0               0 
              0               0               1               0 
2  38 1 39 1 41 1 42 1 44 1 45 1 47 1 48 1 50 1 51 1 53 1 54 1 56 1 57 1 59 1 60 1 62 1 63 1 65 1 66 1 68 1 69 1 71 1 72 1 74 1 75 1 77 1 78 1 80 1 81 1 83 1 84 1 86 1 87 1 89 1 90 1 92 1 93 1 95 1 96 1 98 1 99 1 101 1 102 1 104 1 105 1 107 1 108 1 110 1 111 1 113 1 114 1 116 1 117 1 119 1 120 1 122 1 123 1 0
1
0.992403876506104 0.00759612349389599 0.122787803968973 0.759612349389599 
0.00759612349389599 0.992403876506104 -0.122787803968973 -0.759612349389599 
-0.122787803968973 0.122787803968973 0.984807753012208 12.2787803968973 
1
              1               0               0               0 
              0               1               0               0 
              0               0               1               0 
2  38 1 39 1 41 1 42 1 44 1 45 1 47 1 48 1 50 1 51 1 53 1 54 1 56 1 57 1 59 1 60 1 62 1 63 1 65 1 66 1 68 1 69 1 71 1 72 1 74 1 75 1 77 1 78 1 80 1 81 1 83 1 84 1 86 1 87 1 89 1 90 1 92 1 93 1 95 1 96 1 98 1 99 1 101 1 102 1 104 1 105 1 107 1 108 1 110 1 111 1 113 1 114 1 116 1 117 1 119 1 120 1 122 1 123 1 125 1 126 1 0
1
0.992403876506104 0.00759612349389599 0.122787803968973 0.759612349389599 
0.00759612349389599 0.992403876506104 -0.122787803968973 -0.759612349389599 
-0.122787803968973 0.122787803968973 0.984807753012208 12.2787803968973 
1
              1               0               0               0 
              0               1               0               0 
              0               0               1               0 
2  38 1 39 1 41 1 42 1 44 1 45 1 47 1 48 1 50 1 51 1 53 1 54 1 56 1 57 1 59 1 60 1 62 1 63 1 65 1 66 1 68 1 69 1 71 1 72 1 74 1 75 1 77 1 78 1 80 1 81 1 83 1 84 1 86 1 87 1 89 1 90 1 92 1 93 1 95 1 96 1 98 1 99 1 101 1 102 1 104 1 105 1 107 1 108 1 110 1 111 1 113 1 114 1 116 1 117 1 119 1 120 1 122 1 123 1 125 1 126 1 128 1 129 1 0
1
0.992403876506104 0.00759612349389599 0.122787803968973 0.759612349389599 
0.00759612349389599 0.992403876506104 -0.122787803968973 -0.759612349389599 
-0.122787803968973 0.122787803968973 0.984807753012208 12.2787803968973 
1
              1               0               0               0 
              0               1               0               0 
              0               0               1               0 
2  38 1 39 1 41 1 42 1 44 1 45 1 47 1 48 1 50 1 51 1 53 1 54 1 56 1 57 1 59 1 60 1 62 1 63 1 65 1 66 1 68 1 69 1 71 1 72 1 74 1 75 1 77 1 78 1 80 1 81 1 83 1 84 1 86 1 87 1 89 1 90 1 92 1 93 1 95 1 96 1 98 1 99 1 101 1 102 1 104 1 105 1 107 1 108 1 110 1 111 1 113 1 114 1 116 1 117 1 119 1 120 1 122 1 123 1 125 1 126 1 128 1 129 1 131 1 132 1 0
1
0.992403876506104 0.00759612349389599 0.122787803968973 0.759612349389599 
0.00759612349389599 0.992403876506104 -0.122787803968973 -0.759612349389599 
-0.122787803968973 0.122787803968973 0.984807753012208 12.2787803968973 
1
              1               0               0               0 
              0               1               0               0 
              0               0               1               0 
2  38 1 39 1 41 1 42 1 44 1 45 1 47 1 48 1 50 1 51 1 53 1 54 1 56 1 57 1 59 1 60 1 62 1 63 1 65 1 66 1 68 1 69 1 71 1 72 1 74 1 75 1 77 1 78 1 80 1 81 1 83 1 84 1 86 1 87 1 89 1 90 1 92 1 93 1 95 1 96 1 98 1 99 1 101 1 102 1 104 1 105 1 107 1 108 1 110 1 111 1 113 1 114 1 116 1 117 1 119 1 120 1 122 1 123 1 125 1 126 1 128 1 129 1 131 1 132 1 134 1 135 1 0
1
0.992403876506104 0.00759612349389599 0.122787803968973 0.759612349389599 
0.00759612349389599 0.992403876506104 -0.122787803968973 -0.759612349389599 
-0.122787803968973 0.122787803968973 0.984807753012208 12.2787803968973 
1
              1               0               0               0 
              0               1               0               0 
              0               0               1               0 
2  38 1 39 1 41 1 42 1 44 1 45 1 47 1 48 1 50 1 51 1 53 1 54 1 56 1 57 1 59 1 60 1 62 1 63 1 65 1 66 1 68 1 69 1 71 1 72 1 74 1 75 1 77 1 78 1 80 1 81 1 83 1 84 1 86 1 87 1 89 1 90 1 92 1 93 1 95 1 96 1 98 1 99 1 101 1 102 1 104 1 105 1 107 1 108 1 110 1 111 1 113 1 114 1 116 1 117 1 119 1 120 1 122 1 123 1 125 1 126 1 128 1 129 1 131 1 132 1 134 1 135 1 137 1 138 1 0
1
0.992403876506104 0.00759612349389599 0.122787803968973 0.759612349389599 
0.00759612349389599 0.992403876506104 -0.122787803968973 -0.759612349389599 
-0.122787803968973 0.122787803968973 0.984807753012208 12.2787803968973 
1
              1               0               0               0 
              0               1               0               0 
              0               0               1               0 
2  38 1 39 1 41 1 42 1 44 1 45 1 47 1 48 1 50 1 51 1 53 1 54 1 56 1 57 1 59 1 60 1 62 1 63 1 65 1 66 1 68 1 69 1 71 1 72 1 74 1 75 1 77 1 78 1 80 1 81 1 83 1 84 1 86 1 87 1 89 1 90 1 92 1 93 1 95 1 96 1 98 1 99 1 101 1 102 1 104 1 105 1 107 1 108 1 110 1 111 1 113 1 114 1 116 1 117 1 119 1 120 1 122 1 123 1 125 1 126 1 128 1 129 1 131 1 132 1 134 1 135 1 137 1 138 1 140 1 141 1 0
1
0.969846310392954 -0.0301536896070458 -0.241844762647975 15.0768448035229 
-0.0301536896070458 0.969846310392954 -0.241844762647975 15.0768448035229 
0.241844762647975 0.241844762647975 0.939692620785908 -120.922381323988 
1
              1               0               0             100 
              0               1               0             100 
              0               0               1              20 
2  143 1 144 1 0
1
0.969846310392954 -0.0301536896070458 -0.241844762647975 15.0768448035229 
-0.0301536896070458 0.969846310392954 -0.241844762647975 15.0768448035229 
0.241844762647975 0.241844762647975 0.939692620785908 -120.922381323988 
1
              1               0               0             100 
              0               1               0             100 
              0               0               1              20 
2  143 1 144 1 146 1 147 1 0
1
0.969846310392954 -0.0301536896070458 -0.241844762647975 15.0768448035229 
-0.0301536896070458 0.969846310392954 -0.241844762647975 15.0768448035229 
0.241844762647975 0.241844762647975 0.939692620785908 -120.922381323988 
1
              1               0               0             100 
              0               1               0             100 
              0               0               1              20 
2  143 1 144 1 146 1 147 1 149 1 150 1 0
1
0.969846310392954 -0.0301536896070458 -0.241844762647975 15.0768448035229 
-0.0301536896070458 0.969846310392954 -0.241844762647975 15.0768448035229 
0.241844762647975 0.241844762647975 0.939692620785908 -120.922381323988 
1
              1               0               0             100 
              0               1               0             100 
              0               0               1              20 
2  143 1 144 1 146 1 147 1 149 1 150 1 152 1 153 1 0
1
0.969846310392954 -0.0301536896070458 -0.241844762647975 15.0768448035229 
-0.0301536896070458 0.969846310392954 -0.241844762647975 15.0768448035229 
0.241844762647975 0.241844762647975 0.939692620785908 -120.922381323988 
1
              1               0               0             100 
              0               1               0             100 
              0               0               1              20 
2  143 1 144 1 146 1 147 1 149 1 150 1 152 1 153 1 155 1 156 1 0
1
0.969846310392954 -0.0301536896070458 -0.241844762647975 15.0768448035229 
-0.0301536896070458 0.969846310392954 -0.241844762647975 15.0768448035229 
0.241844762647975 0.241844762647975 0.939692620785908 -120.922381323988 
1
              1               0               0             100 
              0               1               0             100 
              0               0               1              20 
2  143 1 144 1 146 1 147 1 149 1 150 1 152 1 153 1 155 1 156 1 158 1 159 1 0
1
0.969846310392954 -0.0301536896070458 -0.241844762647975 15.0768448035229 
-0.0301536896070458 0.969846310392954 -0.241844762647975 15.0768448035229 
0.241844762647975 0.241844762647975 0.939692620785908 -120.922381323988 
1
              1               0               0             100 
              0               1               0             100 
              0               0               1              20 
2  143 1 144 1 146 1 147 1 149 1 150 1 152 1 153 1 155 1 156 1 158 1 159 1 161 1 162 1 0
1
0.969846310392954 -0.0301536896070458 -0.241844762647975 15.0768448035229 
-0.0301536896070458 0.969846310392954 -0.241844762647975 15.0768448035229 
0.241844762647975 0.241844762647975 0.939692620785908 -120.922381323988 
1
              1               0               0             100 
              0               1               0             100 
              0               0               1              20 
2  143 1 144 1 146 1 147 1 149 1 150 1 152 1 153 1 155 1 156 1 158 1 159 1 161 1 162 1 164 1 165 1 0
1
0.969846310392954 -0.0301536896070458 -0.241844762647975 15.0768448035229 
-0.0301536896070458 0.969846310392954 -0.241844762647975 15.0768448035229 
0.241844762647975 0.241844762647975 0.939692620785908 -120.922381323988 
1
              1               0               0             100 
              0               1               0             100 
              0               0               1              20 
2  143 1 144 1 146 1 147 1 149 1 150 1 152 1 153 1 155 1 156 1 158 1 159 1 161 1 162 1 164 1 165 1 167 1 168 1 0
1
0.969846310392954 -0.0301536896070458 -0.241844762647975 15.0768448035229 
-0.0301536896070458 0.969846310392954 -0.241844762647975 15.0768448035229 
0.241844762647975 0.241844762647975 0.939692620785908 -120.922381323988 
1
              1               0               0             100 
              0               1               0             100 
              0               0               1              20 
2  143 1 144 1 146 1 147 1 149 1 150 1 152 1 153 1 155 1 156 1 158 1 159 1 161 1 162 1 164 1 165 1 167 1 168 1 170 1 171 1 0
1
0.969846310392954 -0.0301536896070458 -0.241844762647975 15.0768448035229 
-0.0301536896070458 0.969846310392954 -0.241844762647975 15.0768448035229 
0.241844762647975 0.241844762647975 0.939692620785908 -120.922381323988 
1
              1               0               0             100 
              0               1               0             100 
              0               0               1              20 
2  143 1 144 1 146 1 147 1 149 1 150 1 152 1 153 1 155 1 156 1 158 1 159 1 161 1 162 1 164 1 165 1 167 1 168 1 170 1 171 1 173 1 174 1 0
1
0.969846310392954 -0.0301536896070458 -0.241844762647975 15.0768448035229 
-0.0301536896070458 0.969846310392954 -0.241844762647975 15.0768448035229 
0.241844762647975 0.241844762647975 0.939692620785908 -120.922381323988 
1
              1               0               0             100 
              0               1               0             100 
              0               0               1              20 
2  143 1 144 1 146 1 147 1 149 1 150 1 152 1 153 1 155 1 156 1 158 1 159 1 161 1 162 1 164 1 165 1 167 1 168 1 170 1 171 1 173 1 174 1 176 1 177 1 0
1
0.969846310392954 -0.0301536896070458 -0.241844762647975 15.0768448035229 
-0.0301536896070458 0.969846310392954 -0.241844762647975 15.0768448035229 
0.241844762647975 0.241844762647975 0.939692620785908 -120.922381323988 
1
              1               0               0             100 
              0               1               0             100 
              0               0               1              20 
2  143 1 144 1 146 1 147 1 149 1 150 1 152 1 153 1 155 1 156 1 158 1 159 1 161 1 162 1 164 1 165 1 167 1 168 1 170 1 171 1 173 1 174 1 176 1 177 1 179 1 180 1 0
1
0.969846310392954 -0.0301536896070458 -0.241844762647975 15.0768448035229 
-0.0301536896070458 0.969846310392954 -0.241844762647975 15.0768448035229 
0.241844762647975 0.241844762647975 0.939692620785908 -120.922381323988 
1
              1               0               0             100 
              0               1               0             100 
              0               0               1              20 
2  143 1 144 1 146 1 147 1 149 1 150 1 152 1 153 1 155 1 156 1 158 1 159 1 161 1 162 1 164 1 165 1 167 1 168 1 170 1 171 1 173 1 174 1 176 1 177 1 179 1 180 1 182 1 183 1 0
1
0.969846310392954 -0.0301536896070458 -0.241844762647975 15.0768448035229 
-0.0301536896070458 0.969846310392954 -0.241844762647975 15.0768448035229 
0.241844762647975 0.241844762647975 0.939692620785908 -120.922381323988 
1
              1               0               0             100 
              0               1               0             100 
              0               0               1              20 
2  143 1 144 1 146 1 147 1 149 1 150 1 152 1 153 1 155 1 156 1 158 1 159 1 161 1 162 1 164 1 165 1 167 1 168 1 170 1 171 1 173 1 174 1 176 1 177 1 179 1 180 1 182 1 183 1 185 1 186 1 0
1
0.969846310392954 -0.0301536896070458 -0.241844762647975 15.0768448035229 
-0.0301536896070458 0.969846310392954 -0.241844762647975 15.0768448035229 
0.241844762647975 0.241844762647975 0.939692620785908 -120.922381323988 
1
              1               0               0             100 
              0               1               0             100 
              0               0               1              20 
2  143 1 144 1 146 1 147 1 149 1 150 1 152 1 153 1 155 1 156 1 158 1 159 1 161 1 162 1 164 1 165 1 167 1 168 1 170 1 171 1 173 1 174 1 176 1 177 1 179 1 180 1 182 1 183 1 185 1 186 1 188 1 189 1 0
1
0.969846310392954 -0.0301536896070458 -0.241844762647975 15.0768448035229 
-0.0301536896070458 0.969846310392954 -0.241844762647975 15.0768448035229 
0.241844762647975 0.241844762647975 0.939692620785908 -120.922381323988 
1
              1               0               0             100 
              0               1               0             100 
              0               0               1              20 
2  143 1 144 1 146 1 147 1 149 1 150 1 152 1 153 1 155 1 156 1 158 1 159 1 161 1 162 1 164 1 165 1 167 1 168 1 170 1 171 1 173 1 174 1 176 1 177 1 179 1 180 1 182 1 183 1 185 1 186 1 188 1 189 1 191 1 192 1 0
1
0.866025403784439            -0.5               0 -190.192378864668 
            0.5 0.866025403784439               0 109.807621135332 
              0               0               1               0 
1
              1               0               0             300 
              0               1               0             300 
              0               0               1               0 
2  194 1 195 1 0
1
0.866025403784439            -0.5               0 -190.192378864668 
            0.5 0.866025403784439               0 109.807621135332 
              0               0               1               0 
1
              1               0               0             300 
              0               1               0             300 
              0               0               1               0 
2  194 1 195 1 197 1 198 1 0
1
0.866025403784439            -0.5               0 -190.192378864668 
            0.5 0.866025403784439               0 109.807621135332 
              0               0               1               0 
1
              1               0               0             300 
              0               1               0             300 
              0               0               1               0 
2  194 1 195 1 197 1 198 1 200 1 201 1 0
1
0.866025403784439            -0.5               0 -190.192378864668 
            0.5 0.866025403784439               0 109.807621135332 
              0               0               1               0 
1
              1               0               0             300 
              0               1               0             300 
              0               0               1               0 
2  194 1 195 1 197 1 198 1 200 1 201 1 203 1 204 1 0
1
0.866025403784439            -0.5               0 -190.192378864668 
            0.5 0.866025403784439               0 109.807621135332 
              0               0               1               0 
1
              1               0               0             300 
              0               1               0             300 
              0               0               1               0 
2  194 1 195 1 197 1 198 1 200 1 201 1 203 1 204 1 206 1 207 1 0
1
0.866025403784439            -0.5               0 -190.192378864668 
            0.5 0.866025403784439               0 109.807621135332 
              0               0               1               0 
1
              1               0               0             300 
              0               1               0             300 
              0               0               1               0 
2  194 1 195 1 197 1 198 1 200 1 201 1 203 1 204 1 206 1 207 1 209 1 210 1 0
1
0.866025403784439            -0.5               0 -190.192378864668 
            0.5 0.866025403784439               0 109.807621135332 
              0               0               1               0 
1
              1               0               0             300 
              0               1               0             300 
              0               0               1               0 
2  194 1 195 1 197 1 198 1 200 1 201 1 203 1 204 1 206 1 207 1 209 1 210 1 212 1 213 1 0
1
0.866025403784439            -0.5               0 -190.192378864668 
            0.5 0.866025403784439               0 109.807621135332 
              0               0               1               0 
1
              1               0               0             300 
              0               1               0             300 
              0               0               1               0 
2  194 1 195 1 197 1 198 1 200 1 201 1 203 1 204 1 206 1 207 1 209 1 210 1 212 1 213 1 215 1 216 1 0
1
0.866025403784439            -0.5               0 -190.192378864668 
            0.5 0.866025403784439               0 109.807621135332 
              0               0               1               0 
1
              1               0               0             300 
              0               1               0             300 
              0               0               1               0 
2  194 1 195 1 197 1 198 1 200 1 201 1 203 1 204 1 206 1 207 1 209 1 210 1 212 1 213 1 215 1 216 1 218 1 219 1 0
1
0.866025403784439            -0.5               0 -190.192378864668 
            0.5 0.866025403784439               0 109.807621135332 
              0               0               1               0 
1
              1               0               0             300 
              0               1               0             300 
              0               0               1               0 
2  194 1 195 1 197 1 198 1 200 1 201 1 203 1 204 1 206 1 207 1 209 1 210 1 212 1 213 1 215 1 216 1 218 1 219 1 221 1 222 1 0
1
0.866025403784439            -0.5               0 -190.192378864668 
            0.5 0.866025403784439               0 109.807621135332 
              0               0               1               0 
1
              1               0               0             300 
              0               1               0             300 
              0               0               1               0 
2  194 1 195 1 197 1 198 1 200 1 201 1 203 1 204 1 206 1 207 1 209 1 210 1 212 1 213 1 215 1 216 1 218 1 219 1 221 1 222 1 224 1 225 1 0
Curve2ds 24
1 0 0 1 0 
1 0 0 1 0 
1 10 0 0 -1 
1 0 0 0 1 
1 0 -10 1 0 
1 0 0 1 0 
1 0 0 0 -1 
1 0 0 0 1 
1 0 0 1 0 
1 0 10 1 0 
1 10 0 0 -1 
1 10 0 0 1 
1 0 -10 1 0 
1 0 10 1 0 
1 0 0 0 -1 
1 10 0 0 1 
1 0 0 0 1 
1 0 0 1 0 
1 10 0 0 1 
1 0 0 1 0 
1 0 0 0 1 
1 0 10 1 0 
1 10 0 0 1 
1 0 10 1 0 
Curves 12
1 0 0 0 0 0 1 
1 0 0 10 -0 1 0 
1 0 10 0 0 0 1 
1 0 0 0 -0 1 0 
1 10 0 0 0 0 1 
1 10 0 10 0 1 0 
1 10 10 0 0 0 1 
1 10 0 0 -0 1 0 
1 0 0 0 1 0 -0 
1 0 0 10 1 0 -0 
1 0 10 0 1 0 -0 
1 0 10 10 1 0 -0 
Polygon3D 0
PolygonOnTriangulations 24
2 1 2 
p 12.5366629822732 1 0 10 
2 1 4 
p 12.5366629822732 1 0 10 
2 2 3 
p 12.5366629822732 1 0 10 
2 1 2 
p 12.5366629822732 1 0 10 
2 4 3 
p 12.5366629822732 1 0 10 
2 1 4 
p 12.5366629822732 1 0 10 
2 1 4 
p 12.5366629822732 1 0 10 
2 1 2 
p 12.5366629822732 1 0 10 
2 1 2 
p 12.5366629822732 1 0 10 
2 2 3 
p 12.5366629822732 1 0 10 
2 2 3 
p 12.5366629822732 1 0 10 
2 4 3 
p 12.5366629822732 1 0 10 
2 4 3 
p 12.5366629822732 1 0 10 
2 2 3 
p 12.5366629822732 1 0 10 
2 1 4 
p 12.5366629822732 1 0 10 
2 4 3 
p 12.5366629822732 1 0 10 
2 1 2 
p 12.5366629822732 1 0 10 
2 1 4 
p 12.5366629822732 1 0 10 
2 4 3 
p 12.5366629822732 1 0 10 
2 1 4 
p 12.5366629822732 1 0 10 
2 1 2 
p 12.5366629822732 1 0 10 
2 2 3 
p 12.5366629822732 1 0 10 
2 4 3 
p 12.5366629822732 1 0 10 
2 2 3 
p 12.5366629822732 1 0 10 
Surfaces 6
1 0 0 0 1 0 -0 0 0 1 0 -1 0 
1 0 0 0 -0 1 0 0 0 1 1 0 -0 
1 0 0 10 0 0 1 1 0 -0 -0 1 0 
1 0 10 0 -0 1 0 0 0 1 1 0 -0 
1 0 0 0 0 0 1 1 0 -0 -0 1 0 
1 10 0 0 1 0 -0 0 0 1 0 -1 0 
Triangulations 6
4 2 1 0
0 0 0 0 0 10 0 10 10 0 10 0 0 0 10 0 10 -10 0 -10 2 4 3 2 1 4 
4 2 1 0
0 0 0 10 0 0 10 0 10 0 0 10 0 0 0 10 10 10 10 0 3 2 1 3 1 4 
4 2 1 0
0 0 10 0 10 10 10 10 10 10 0 10 0 0 0 10 10 10 10 0 3 2 1 3 1 4 
4 2 1 0
0 10 0 10 10 0 10 10 10 0 10 10 0 0 0 10 10 10 10 0 3 2 1 3 1 4 
4 2 1 0
0 0 0 0 10 0 10 10 0 10 0 0 0 0 0 10 10 10 10 0 3 2 1 3 1 4 
4 2 1 0
10 0 0 10 0 10 10 10 10 10 10 0 0 0 10 0 10 -10 0 -10 2 4 3 2 1 4 

TShapes 38
Ve
1e-07
0 0 10
0 0

0101101
*
Ve
1e-07
0 0 0
0 0

0101101
*
Ed
 1e-07 1 1 0
1  1 0 0 10
2  1 1 0 0 10
2  2 2 0 0 10
6  1 1 0
6  2 2 0
0

0101000
-38 0 +37 0 *
Ve
1e-07
0 10 10
0 0

0101101
*
Ed
 1e-07 1 1 0
1  2 0 0 10
2  3 1 0 0 10
2  4 3 0 0 10
6  3 1 0
6  4 3 0
0

0101000
-35 0 +38 0 *
Ve
1e-07
0 10 0
0 0

0101101
*
Ed
 1e-07 1 1 0
1  3 0 0 10
2  5 1 0 0 10
2  6 4 0 0 10
6  5 1 0
6  6 4 0
0

0101000
-35 0 +33 0 *
Ed
 1e-07 1 1 0
1  4 0 0 10
2  7 1 0 0 10
2  8 5 0 0 10
6  7 1 0
6  8 5 0
0

0101000
-33 0 +37 0 *
Wi

0101100
-36 0 -34 0 +32 0 +31 0 *
Fa
0  1e-07 1 0
2  1
0101000
+30 0 *
Ve
1e-07
10 0 10
0 0

0101101
*
Ve
1e-07
10 0 0
0 0

0101101
*
Ed
 1e-07 1 1 0
1  5 0 0 10
2  9 6 0 0 10
2  10 2 0 0 10
6  9 6 0
6  10 2 0
0

0101000
-28 0 +27 0 *
Ve
1e-07
10 10 10
0 0

0101101
*
Ed
 1e-07 1 1 0
1  6 0 0 10
2  11 6 0 0 10
2  12 3 0 0 10
6  11 6 0
6  12 3 0
0

0101000
-25 0 +28 0 *
Ve
1e-07
10 10 0
0 0

0101101
*
Ed
 1e-07 1 1 0
1  7 0 0 10
2  13 6 0 0 10
2  14 4 0 0 10
6  13 6 0
6  14 4 0
0

0101000
-25 0 +23 0 *
Ed
 1e-07 1 1 0
1  8 0 0 10
2  15 6 0 0 10
2  16 5 0 0 10
6  15 6 0
6  16 5 0
0

0101000
-23 0 +27 0 *
Wi

0101100
-26 0 -24 0 +22 0 +21 0 *
Fa
0  1e-07 6 0
2  6
0101000
+20 0 *
Ed
 1e-07 1 1 0
1  9 0 0 10
2  17 2 0 0 10
2  18 5 0 0 10
6  17 2 0
6  18 5 0
0

0101000
-27 0 +37 0 *
Ed
 1e-07 1 1 0
1  10 0 0 10
2  19 2 0 0 10
2  20 3 0 0 10
6  19 2 0
6  20 3 0
0

0101000
-28 0 +38 0 *
Wi

0101100
-18 0 -26 0 +17 0 +36 0 *
Fa
0  1e-07 2 0
2  2
0101000
+16 0 *
Ed
 1e-07 1 1 0
1  11 0 0 10
2  21 4 0 0 10
2  22 5 0 0 10
6  21 4 0
6  22 5 0
0

0101000
-23 0 +33 0 *
Ed
 1e-07 1 1 0
1  12 0 0 10
2  23 4 0 0 10
2  24 3 0 0 10
6  23 4 0
6  24 3 0
0

0101000
-25 0 +35 0 *
Wi

0101100
-14 0 -22 0 +13 0 +32 0 *
Fa
0  1e-07 4 0
2  4
0101000
+12 0 *
Wi

0101100
-31 0 -14 0 +21 0 +18 0 *
Fa
0  1e-07 5 0
2  5
0101000
+10 0 *
Wi

0101100
-34 0 -13 0 +24 0 +17 0 *
Fa
0  1e-07 3 0
2  3
0101000
+8 0 *
Sh

0101100
-29 0 +19 0 -15 0 +11 0 -9 0 +7 0 *
So

0100000
+6 0 *
Co

0100000
+5 4 +5 7 +5 10 +5 13 +5 16 +5 19 +5 22 +5 25 +5 28 +5 31 
+5 34 +5 37 *
Co

0100000
+4 3 +4 40 +4 43 +4 46 +4 49 +4 52 +4 55 +4 58 +4 61 +4 64 
+4 67 +4 70 +4 73 +4 76 +4 79 +4 82 +4 85 +4 88 +4 91 +4 94 
+4 97 +4 100 +4 103 +4 106 +4 109 +4 112 +4 115 +4 118 +4 121 +4 124 
+4 127 +4 130 +4 133 +4 136 +4 139 +4 142 *
Co

0100000
+3 2 +3 145 +3 148 +3 151 +3 154 +3 157 +3 160 +3 163 +3 166 +3 169 
+3 172 +3 175 +3 178 +3 181 +3 184 +3 187 +3 190 +3 193 *
Co

1100000
+2 1 +2 196 +2 199 +2 202 +2 205 +2 208 +2 211 +2 214 +2 217 +2 220 
+2 223 +2 226 *

+1 0 
0

