DBRep_DrawableShape

CASCADE Topology V1, (c) Matra-Datavision
Locations 32
1
              1               0               0               0 
              0               1               0               0 
              0               0               1               0 
1
              1               0               0               0 
              0               1               0               0 
              0               0               1               0 
2  1 -1 2 -1 0
1
              1               0               0               0 
              0               1               0               0 
              0               0               1               0 
1
              1               0               0               0 
              0               1               0               0 
              0               0               1               0 
2  4 1 5 -1 0
2  5 1 4 -1 0
2  4 -1 0
2  1 -1 2 -1 5 1 4 -1 0
1
              1               0               0               0 
              0               1               0               0 
              0               0               1           436.1 
2  4 1 5 -1 10 1 0
2  10 -1 5 1 4 -1 0
2  1 -1 2 -1 10 -1 5 1 4 -1 0
2  5 -1 2 1 0
2  4 1 5 -1 2 1 0
1
              1               0               0               0 
              0               1               0               0 
              0               0               1               0 
1
              1               0               0               0 
              0               1               0               0 
              0               0               1               0 
1
              1               0               0               0 
              0               1               0               0 
              0               0               1               0 
2  16 1 17 -1 18 1 0
2  5 -1 2 1 18 -1 17 1 16 -1 0
2  17 1 16 -1 0
2  1 -1 18 -1 17 1 16 -1 0
2  5 -1 10 1 2 1 0
2  4 1 5 -1 10 1 2 1 0
1
              1               0               0               0 
              0               1               0               0 
              0               0               1           436.1 
2  16 1 17 -1 25 1 18 1 0
2  5 -1 10 1 2 1 18 -1 25 -1 17 1 16 -1 0
2  25 -1 17 1 16 -1 0
2  1 -1 18 -1 25 -1 17 1 16 -1 0
2  1 -1 18 -1 0
1
4.44089209850063e-016 1.11022302462516e-016               1            12.5 
              1 -1.11022302462516e-016 -4.44089209850063e-016 -7.40148683083437e-015 
1.11022302462516e-016               1 -1.11022302462516e-016               0 
2  31 -1 0
Curve2ds 96
1 1.5707963267949001 0 0 -1 
1 0 0 0 -1 
1 3.14159265358979 0 0 -1 
1 0 0 0 -1 
1 0 0 1 0 
2 -1.7763568394002505e-014 -4.9999999999999751 -1 0 0 1 4.9999999999999751
1 0 -436.10000000000002 1 0 
2 -1.7763568394002505e-014 -4.9999999999999751 -1 0 0 1 4.9999999999999751
1 15 0 0 -1 
1 1.5707963267949001 0 0 -1 
1 0 0 1 0 
1 -1.7763568394002505e-014 0 -1 3.5527136788005009e-015 
1 0 -436.10000000000002 1 0 
1 -1.7763568394002505e-014 0 -1 3.5527136788005009e-015 
1 14.999999999999989 0 0 -1 
1 3.1415926535898002 0 0 -1 
1 0 0 1 0 
1 4.9999999999999822 -4.9999999999999396 0 -1 
1 0 -436.10000000000002 1 0 
1 4.9999999999999822 -4.9999999999999396 0 -1 
2 -15.000000000000018 -4.9999999999999369 -1 0 0 1 4.9999999999999911
1 0 0 1 0 
2 -3.3750779948604759e-014 -19.999999999999904 -1 0 0 1 4.9999999999999911
1 0 0 1 0 
1 -20.000000000000018 -4.9999999999999396 5.9211894646675012e-016 -1 
1 0 0 1 -0 
1 1.6608936448392342e-013 -24.999999999999893 -1 -2.4868995751602898e-015 
1 0 0 1 0 
2 -15.000000000000018 -19.999999999999943 -1 0 0 1 4.9999999999999911
1 0 0 1 0 
1 -18.399999999999928 -3.9999999999998614 -5.538053675777242e-015 -1 
1 0 0 1 0 
2 -13.400000000000022 -18.40000000000002 -1 0 0 1 5.6356011214420629
1 0 0 1 0 
1 0.99999999999998224 -23.399999999999956 -1 8.3593263030600336e-016 
1 0 0 1 0 
2 -1.6000000000000139 -18.40000000000002 -1 0 0 1 5.6356011214420629
1 0 0 1 0 
1 3.399999999999924 -3.9999999999999183 3.3437305212239918e-015 -1 
1 0 0 1 -0 
2 -1.6000000000000139 -6.5999999999998593 -1 0 0 1 5.6356011214420656
1 0 0 1 0 
1 0.99999999999998224 -1.599999999999941 -1 3.134747363647501e-016 
1 0 0 1 0 
2 -13.400000000000022 -6.5999999999998593 -1 0 0 1 5.6356011214420629
1 0 0 1 0 
2 -15.000000000000018 -4.9999999999999369 -1 0 0 1 4.9999999999999911
1 0 -436.10000000000002 1 0 
2 -3.3750779948604759e-014 -19.999999999999904 -1 0 0 1 4.9999999999999911
1 0 -436.10000000000002 1 0 
1 -20.000000000000018 -4.9999999999999396 5.9211894646675012e-016 -1 
1 0 -436.10000000000002 1 -0 
1 1.6608936448392342e-013 -24.999999999999893 -1 -2.4868995751602898e-015 
1 0 -436.10000000000002 1 0 
2 -15.000000000000018 -19.999999999999943 -1 0 0 1 4.9999999999999911
1 0 -436.10000000000002 1 0 
1 0.99999999999998224 -23.399999999999956 -1 8.3593263030600336e-016 
1 0 -436.10000000000002 1 0 
2 -1.6000000000000139 -18.40000000000002 -1 0 0 1 5.6356011214420629
1 0 -436.10000000000002 1 0 
1 3.399999999999924 -3.9999999999999183 3.3437305212239918e-015 -1 
1 0 -436.10000000000002 1 -0 
2 -1.6000000000000139 -6.5999999999998593 -1 0 0 1 5.6356011214420656
1 0 -436.10000000000002 1 0 
1 0.99999999999998224 -1.599999999999941 -1 3.134747363647501e-016 
1 0 -436.10000000000002 1 0 
2 -13.400000000000022 -6.5999999999998593 -1 0 0 1 5.6356011214420629
1 0 -436.10000000000002 1 0 
1 -18.399999999999928 -3.9999999999998614 -5.538053675777242e-015 -1 
1 0 -436.10000000000002 1 0 
2 -13.400000000000022 -18.40000000000002 -1 0 0 1 5.6356011214420629
1 0 -436.10000000000002 1 0 
1 0 0 0 -1 
1 0 0 0 -1 
1 4.7123889803848096 0 0 -1 
1 4.1389114358025836e-013 0 0 -1 
1 15 -0 0 -1 
1 6.2831853071795898 0 0 -1 
1 15.000000000000334 0 0 -1 
1 4.7123889803847101 0 0 -1 
1 -1.7763568394002505e-015 0 0 -1 
1 0.47951929199260401 0 0 -1 
1 17.000000000000036 0 0 -1 
1 5.8036660151870096 0 0 -1 
1 5.1919082723772796 0 0 -1 
1 16.99999999999994 0 0 -1 
1 3.0198066269804258e-014 0 0 -1 
1 4.2328696883920998 0 0 -1 
1 3.6211119455823901 0 0 -1 
1 17.000000000000043 -0 0 -1 
1 1.7763568394002505e-015 0 0 -1 
1 2.6620733615972001 0 0 -1 
1 2.05031561878749 0 0 -1 
1 1.9539925233402755e-014 0 0 -1 
1 16.999999999999979 0 0 -1 
1 1.0912770348023 0 0 -1 
Curves 51
1 -7.5 12.499999999999901 0 0 0 1 
1 -12.5 7.5 0 0 0 1 
2 -7.5 7.4999999999999645 0 0 0 1 1 0 -0 -0 1 0 4.9999999999999751
2 -7.5 7.4999999999999645 0 0 0 1 1 0 -0 -0 1 0 4.9999999999999751
1 7.5 12.5 0 0 0 1 
1 -7.5 12.49999999999994 0 1 3.5527136788005009e-015 0 
1 -7.5 12.49999999999994 0 1 3.5527136788005009e-015 0 
1 -12.5 -7.4999999999999902 0 0 0 1 
1 -12.5 7.5 0 0 -1 0 
1 -12.5 7.5 0 0 -1 0 
2 7.5 7.5000000000000027 0 0 0 1 1 0 -0 -0 1 0 4.9999999999999911
2 -7.499999999999984 -7.4999999999999645 0 0 0 1 1 0 -0 -0 1 0 4.9999999999999911
1 12.5 7.5 0 -5.9211894646675012e-016 -1 0 
1 -7.5000000000001839 -12.499999999999956 0 1 -2.4868995751602898e-015 0 
2 7.5 -7.5000000000000027 0 0 0 1 1 0 -0 -0 1 0 4.9999999999999911
1 10.89999999999991 8.5000000000000782 0 5.538053675777242e-015 -1 0 
2 5.9000000000000039 -5.9000000000000803 0 0 0 1 1 0 -0 -0 1 0 5.6356011214420629
1 -8.5 -10.900000000000018 0 1 8.3593263030600336e-016 0 
2 -5.9000000000000039 -5.9000000000000803 0 0 0 1 1 0 -0 -0 1 0 5.6356011214420629
1 -10.899999999999942 8.5000000000000213 0 -3.3437305212239918e-015 -1 0 
2 -5.9000000000000039 5.9000000000000803 0 0 0 1 1 0 -0 -0 1 0 5.6356011214420656
1 -8.5 10.899999999999999 0 1 3.134747363647501e-016 0 
2 5.9000000000000039 5.9000000000000803 0 0 0 1 1 0 -0 -0 1 0 5.6356011214420629
2 7.5 7.5000000000000027 0 0 0 1 1 0 -0 -0 1 0 4.9999999999999911
2 -7.499999999999984 -7.4999999999999645 0 0 0 1 1 0 -0 -0 1 0 4.9999999999999911
1 12.5 7.5 0 -5.9211894646675012e-016 -1 0 
1 -7.5000000000001839 -12.499999999999956 0 1 -2.4868995751602898e-015 0 
2 7.5 -7.5000000000000027 0 0 0 1 1 0 -0 -0 1 0 4.9999999999999911
1 -8.5 -10.900000000000018 0 1 8.3593263030600336e-016 0 
2 -5.9000000000000039 -5.9000000000000803 0 0 0 1 1 0 -0 -0 1 0 5.6356011214420629
1 -10.899999999999942 8.5000000000000213 0 -3.3437305212239918e-015 -1 0 
2 -5.9000000000000039 5.9000000000000803 0 0 0 1 1 0 -0 -0 1 0 5.6356011214420656
1 -8.5 10.899999999999999 0 1 3.134747363647501e-016 0 
2 5.9000000000000039 5.9000000000000803 0 0 0 1 1 0 -0 -0 1 0 5.6356011214420629
1 10.89999999999991 8.5000000000000782 0 5.538053675777242e-015 -1 0 
2 5.9000000000000039 -5.9000000000000803 0 0 0 1 1 0 -0 -0 1 0 5.6356011214420629
1 12.5 7.5 0 0 0 1 
1 -7.49999999999977 -12.5 0 0 0 1 
1 12.5 -7.5 0 0 0 1 
1 7.5000000000001501 -12.5 0 0 0 1 
1 10.899999999999901 8.5000000000000799 0 0 0 1 
1 10.9 -8.4999999999999591 0 0 0 1 
1 8.4999999999999396 -10.9 0 0 0 1 
1 -8.4999999999999698 -10.9 0 0 0 1 
1 -10.9 -8.5000000000000195 0 0 0 1 
1 -10.899999999999901 8.5000000000000195 0 0 0 1 
1 -8.4999999999999805 10.9 0 0 0 1 
1 8.4999999999999805 10.9 0 0 0 1 
1 -12.5 0 0 1 0 0 
1 12.5 0 0 0 1 0 
1 12.5 44.787384000000003 0 -0.48740169164586655 -0.87317786903972072 0 
Polygon3D 0
PolygonOnTriangulations 0
Surfaces 18
2 -7.5 7.4999999999999645 0 -0 -0 -1 1 0 0 -0 1 -0 4.9999999999999751
1 -7.5 12.49999999999994 0 -3.5527136788005009e-015 1 0 1 3.5527136788005009e-015 0 0 0 -1 
1 -12.5 7.5 0 1 0 -0 0 -1 0 0 -0 -1 
1 -7.5000000000000178 12.49999999999994 0 0 0 -1 -1 0 -0 0 1 0 
1 -7.5000000000000178 12.49999999999994 0 0 0 -1 -1 0 -0 0 1 0 
2 7.5 7.5000000000000027 0 -0 -0 -1 1 0 0 -0 1 -0 4.9999999999999911
2 -7.499999999999984 -7.4999999999999645 0 -0 -0 -1 1 0 0 -0 1 -0 4.9999999999999911
1 12.5 7.5 0 1 -5.9211894646675012e-016 0 -5.9211894646675012e-016 -1 0 0 -0 -1 
1 -7.5000000000001839 -12.499999999999956 0 2.4868995751602898e-015 1 -0 1 -2.4868995751602898e-015 0 0 -0 -1 
2 7.5 -7.5000000000000027 0 -0 -0 -1 1 0 0 -0 1 -0 4.9999999999999911
1 10.89999999999991 8.5000000000000782 0 1 5.538053675777242e-015 -0 5.538053675777242e-015 -1 0 0 -0 -1 
2 5.9000000000000039 -5.9000000000000803 0 -0 -0 -1 1 0 0 -0 1 -0 5.6356011214420629
1 -8.5 -10.900000000000018 0 -8.3593263030600336e-016 1 0 1 8.3593263030600336e-016 0 0 0 -1 
2 -5.9000000000000039 -5.9000000000000803 0 -0 -0 -1 1 0 0 -0 1 -0 5.6356011214420629
1 -10.899999999999942 8.5000000000000213 0 1 -3.3437305212239918e-015 0 -3.3437305212239918e-015 -1 0 0 -0 -1 
2 -5.9000000000000039 5.9000000000000803 0 -0 -0 -1 1 0 0 -0 1 -0 5.6356011214420656
1 -8.5 10.899999999999999 0 -3.134747363647501e-016 1 0 1 3.134747363647501e-016 0 0 0 -1 
2 5.9000000000000039 5.9000000000000803 0 -0 -0 -1 1 0 0 -0 1 -0 5.6356011214420629
Triangulations 0

TShapes 129
Ve
1.0000041033843e-007
-7.5 12.4999999999999 0
0 0

0101101
*
Ve
1.0000041033843e-007
-7.5 12.4999999999999 436.1
0 0

0101101
*
Ed
 1e-007 1 1 0
1  1 0 0 436.1
2  1 1 0 0 436.1
2  2 2 0 0 436.1
4 G1 1 0 2 0
0

0101000
+129 3 -128 3 *
Ve
1.0000041033843e-007
-12.5 7.5 0
0 0

0101101
*
Ve
1.0000041033843e-007
-12.5 7.5 436.1
0 0

0101101
*
Ed
 1.00000012442426e-007 1 1 0
1  2 0 0 436.1
2  3 1 0 0 436.1
2  4 3 0 0 436.1
4 G1 1 0 3 0
0

0101000
+126 3 -125 3 *
Ed
 1.0000041033843e-007 1 1 0
1  3 0 1.5707963267949 3.14159265358979
2  5 1 7 1.5707963267949 3.14159265358979
2  6 4 8 1.5707963267949 3.14159265358979
0

0101000
+129 9 -126 9 *
Ed
 1e-007 1 1 0
1  4 0 1.5707963267949 3.14159265358979
2  7 1 12 1.5707963267949 3.14159265358979
2  8 5 8 1.5707963267949 3.14159265358979
0

0101000
+128 13 -125 13 *
Wi

0101000
+127 0 -124 0 -123 6 +122 11 *
Fa
0  1e-007 1 0

0111000
+121 0 *
Ve
1.0000041033843e-007
7.5 12.5 0
0 0

0101101
*
Ve
1.0000041033843e-007
7.5 12.5 436.1
0 0

0101101
*
Ed
 1e-007 1 1 0
1  5 0 0 436.1
2  9 2 0 0 436.1
2  10 6 0 0 436.1
4 G1 2 0 6 0
0

0101000
+119 3 -118 3 *
Ed
 1.0000041033843e-007 1 1 0
1  6 0 0 15
2  11 2 7 0 15
2  12 4 8 0 15
0

0101000
+129 9 -119 9 *
Ed
 1.0000041033843e-007 1 1 0
1  7 0 0 15
2  13 2 12 0 15
2  14 5 8 0 15
0

0101000
+128 13 -118 13 *
Wi

0101000
+127 0 -117 0 -116 6 +115 11 *
Fa
0  1e-007 2 0

0111000
+114 0 *
Ve
1.0000041033843e-007
-12.5 -7.49999999999999 0
0 0

0101101
*
Ve
1.0000041033843e-007
-12.5 -7.49999999999999 436.1
0 0

0101101
*
Ed
 1.00000016091724e-007 1 1 0
1  8 0 0 436.1
2  15 3 0 0 436.1
2  16 7 0 0 436.1
4 G1 3 0 7 0
0

0101000
+112 3 -111 3 *
Ed
 1.0000041033843e-007 1 1 0
1  9 0 0 15
2  17 3 7 0 15
2  18 4 8 0 15
0

0101000
+126 9 -112 9 *
Ed
 1.0000041033843e-007 1 1 0
1  10 0 0 15
2  19 3 12 0 15
2  20 5 8 0 15
0

0101000
+125 13 -111 13 *
Wi

0101000
+124 0 -110 0 -109 6 +108 11 *
Fa
0  1e-007 3 0

0111000
+107 0 *
Ve
2.33991920120491e-006
12.5 7.5 0
0 0

0101101
*
Ed
 1.0000041033843e-007 1 1 0
1  11 0 0 1.5707963267949
2  21 4 8 0 1.5707963267949
2  22 6 7 0 1.5707963267949
0

0101000
+105 9 -119 9 *
Ve
1.0000041033843e-007
-7.49999999999977 -12.5 0
0 0

0101101
*
Ed
 1.0000041033843e-007 1 1 0
1  12 0 3.1415926535898 4.71238898038481
2  23 4 8 3.1415926535898 4.71238898038481
2  24 7 7 3.1415926535898 4.71238898038481
0

0101000
+112 9 -103 9 *
Ve
1.59836957777181e-006
12.5 -7.5 0
0 0

0101101
*
Ed
 1.0000041033843e-007 1 1 0
1  13 0 0 15
2  25 4 8 0 15
2  26 8 7 0 15
0

0101000
+105 9 -101 9 *
Ve
1.0000041033843e-007
7.50000000000015 -12.5 0
0 0

0101101
*
Ed
 1.0000041033843e-007 1 1 0
1  14 0 0 15.0000000000004
2  27 4 8 0 15.0000000000004
2  28 9 7 0 15.0000000000004
0

0101000
+103 9 -99 9 *
Ed
 1.0000041033843e-007 1 1 0
1  15 0 4.71238898038471 6.28318530717959
2  29 4 8 4.71238898038471 6.28318530717959
2  30 10 7 4.71238898038471 6.28318530717959
0

0101000
+99 9 -101 9 *
Wi

0101000
-123 15 +116 15 -109 15 -104 15 -102 15 +100 15 -98 15 -97 15 *
Ve
1.0000001769683e-007
10.8999999999999 8.50000000000008 0
0 0

0101101
*
Ve
1.0000001769683e-007
10.9 -8.49999999999996 0
0 0

0101101
*
Ed
 1.0000001769683e-007 1 1 0
1  16 0 0 17
2  31 4 20 0 17
2  32 11 21 0 17
0

0101000
+95 22 -94 22 *
Ve
1.00000030198066e-007
8.49999999999994 -10.9 0
0 0

0101101
*
Ed
 1e-007 1 1 0
1  17 0 5.19190827237728 5.80366601518701
2  33 4 20 5.19190827237728 5.80366601518701
2  34 12 21 5.19190827237728 5.80366601518701
0

0101000
+92 22 -94 22 *
Ve
1.00000030198066e-007
-8.49999999999997 -10.9 0
0 0

0101101
*
Ed
 1.00000030198066e-007 1 1 0
1  18 0 0 16.9999999999999
2  35 4 20 0 16.9999999999999
2  36 13 21 0 16.9999999999999
0

0101000
+90 22 -92 22 *
Ve
1.00000031086245e-007
-10.9 -8.50000000000002 0
0 0

0101101
*
Ed
 1e-007 1 1 0
1  19 0 3.62111194558239 4.2328696883921
2  37 4 20 3.62111194558239 4.2328696883921
2  38 14 21 3.62111194558239 4.2328696883921
0

0101000
+88 22 -90 22 *
Ve
1.00000031086245e-007
-10.8999999999999 8.50000000000002 0
0 0

0101101
*
Ed
 1.00000031086245e-007 1 1 0
1  20 0 0 17
2  39 4 20 0 17
2  40 15 21 0 17
0

0101000
+86 22 -88 22 *
Ve
1.0000001687539e-007
-8.49999999999998 10.9 0
0 0

0101101
*
Ed
 1e-007 1 1 0
1  21 0 2.05031561878749 2.6620733615972
2  41 4 20 2.05031561878749 2.6620733615972
2  42 16 21 2.05031561878749 2.6620733615972
0

0101000
+84 22 -86 22 *
Ve
1.0000001687539e-007
8.49999999999998 10.9 0
0 0

0101101
*
Ed
 1.0000001687539e-007 1 1 0
1  22 0 0 17
2  43 4 20 0 17
2  44 17 21 0 17
0

0101000
+84 22 -82 22 *
Ed
 1e-007 1 1 0
1  23 0 0.479519291992604 1.0912770348023
2  45 4 20 0.479519291992604 1.0912770348023
2  46 18 21 0.479519291992604 1.0912770348023
0

0101000
+95 22 -82 22 *
Wi

0101000
-93 19 +91 19 +89 19 +87 19 +85 19 +83 19 -81 19 +80 19 *
Fa
0  1e-007 4 14

0111000
+96 0 +79 0 *
Ve
3.62561919953126e-007
12.5 7.5 436.1
0 0

0101101
*
Ed
 1e-007 1 1 0
1  24 0 0 1.5707963267949
2  47 5 8 0 1.5707963267949
2  48 6 12 0 1.5707963267949
0

0101000
+77 13 -118 13 *
Ve
1.0000041033843e-007
-7.49999999999977 -12.5 436.1
0 0

0101101
*
Ed
 1.0000041033843e-007 1 1 0
1  25 0 3.1415926535898 4.71238898038481
2  49 5 8 3.1415926535898 4.71238898038481
2  50 7 12 3.1415926535898 4.71238898038481
0

0101000
+111 13 -75 13 *
Ve
3.72231902101478e-007
12.5 -7.5 436.1
0 0

0101101
*
Ed
 1.0000041033843e-007 1 1 0
1  26 0 0 15
2  51 5 8 0 15
2  52 8 12 0 15
0

0101000
+77 13 -73 13 *
Ve
1.0000041033843e-007
7.50000000000015 -12.5 436.1
0 0

0101101
*
Ed
 1.0000041033843e-007 1 1 0
1  27 0 0 15.0000000000004
2  53 5 8 0 15.0000000000004
2  54 9 12 0 15.0000000000004
0

0101000
+75 13 -71 13 *
Ed
 1.0000041033843e-007 1 1 0
1  28 0 4.71238898038471 6.28318530717959
2  55 5 8 4.71238898038471 6.28318530717959
2  56 10 12 4.71238898038471 6.28318530717959
0

0101000
+71 13 -73 13 *
Wi

0101000
-122 24 +115 24 -108 24 -76 24 -74 24 +72 24 -70 24 -69 24 *
Ve
1.00000030198066e-007
-8.49999999999997 -10.9 436.1
0 0

0101101
*
Ve
1.00000030198066e-007
8.49999999999994 -10.9 436.1
0 0

0101101
*
Ed
 1.00000030198066e-007 1 1 0
1  29 0 0 16.9999999999999
2  57 5 27 0 16.9999999999999
2  58 13 28 0 16.9999999999999
0

0101000
+67 29 -66 29 *
Ve
1.00000031086245e-007
-10.9 -8.50000000000002 436.1
0 0

0101101
*
Ed
 1e-007 1 1 0
1  30 0 3.62111194558239 4.2328696883921
2  59 5 27 3.62111194558239 4.2328696883921
2  60 14 28 3.62111194558239 4.2328696883921
0

0101000
+64 29 -67 29 *
Ve
1.00000031086245e-007
-10.8999999999999 8.50000000000002 436.1
0 0

0101101
*
Ed
 1.00000031086245e-007 1 1 0
1  31 0 0 17
2  61 5 27 0 17
2  62 15 28 0 17
0

0101000
+62 29 -64 29 *
Ve
1.0000001687539e-007
-8.49999999999998 10.9 436.1
0 0

0101101
*
Ed
 1e-007 1 1 0
1  32 0 2.05031561878749 2.6620733615972
2  63 5 27 2.05031561878749 2.6620733615972
2  64 16 28 2.05031561878749 2.6620733615972
0

0101000
+60 29 -62 29 *
Ve
1.0000001687539e-007
8.49999999999998 10.9 436.1
0 0

0101101
*
Ed
 1.0000001687539e-007 1 1 0
1  33 0 0 17
2  65 5 27 0 17
2  66 17 28 0 17
0

0101000
+60 29 -58 29 *
Ve
1.0000001769683e-007
10.8999999999999 8.50000000000008 436.1
0 0

0101101
*
Ed
 1e-007 1 1 0
1  34 0 0.479519291992604 1.0912770348023
2  67 5 27 0.479519291992604 1.0912770348023
2  68 18 28 0.479519291992604 1.0912770348023
0

0101000
+56 29 -58 29 *
Ve
1.0000001769683e-007
10.9 -8.49999999999996 436.1
0 0

0101101
*
Ed
 1.0000001769683e-007 1 1 0
1  35 0 0 17
2  69 5 27 0 17
2  70 11 28 0 17
0

0101000
+56 29 -54 29 *
Ed
 1e-007 1 1 0
1  36 0 5.19190827237728 5.80366601518701
2  71 5 27 5.19190827237728 5.80366601518701
2  72 12 28 5.19190827237728 5.80366601518701
0

0101000
+66 29 -54 29 *
Wi

0101000
+65 26 +63 26 +61 26 +59 26 -57 26 +55 26 -53 26 +52 26 *
Fa
0  1e-007 5 23

0111000
+68 0 +51 0 *
Ed
 1.00000004636427e-007 1 1 0
1  37 0 0 436.1
2  73 6 0 0 436.1
2  74 8 0 0 436.1
4 G1 6 0 8 0
0

0101000
+105 3 -77 3 *
Wi

0101000
+49 0 -117 0 -104 6 +76 11 *
Fa
0  1e-007 6 0

0111000
+48 0 *
Ed
 1.0000041033843e-007 1 1 0
1  38 0 0 436.1
2  75 7 0 0 436.1
2  76 9 0 0 436.1
4 G1 7 0 9 0
0

0101000
+103 3 -75 3 *
Wi

0101000
+110 0 -46 0 -102 6 +74 11 *
Fa
0  1e-007 7 0

0111000
+45 0 *
Ed
 1.00000000444089e-007 1 1 0
1  39 0 0 436.1
2  77 8 0 0 436.1
2  78 10 0 0 436.1
4 G1 8 0 10 0
0

0101000
+101 3 -73 3 *
Wi

0101000
+49 0 -43 0 -100 6 +72 11 *
Fa
0  1e-007 8 0

0111000
+42 0 *
Ed
 1.00000036859404e-007 1 1 0
1  40 0 0 436.1
2  79 9 0 0 436.1
2  80 10 0 0 436.1
4 G1 9 0 10 0
0

0101000
+99 3 -71 3 *
Wi

0101000
+46 0 -40 0 -98 6 +70 11 *
Fa
0  1e-007 9 0

0111000
+39 0 *
Wi

0101000
+40 0 -43 0 -97 6 +69 11 *
Fa
0  1e-007 10 0

0111000
+37 0 *
Ed
 1e-007 1 1 0
1  41 0 0 436.1
2  81 11 0 0 436.1
2  82 18 0 0 436.1
0

0101000
+95 30 -56 30 *
Ed
 1.0000001769683e-007 1 1 0
1  42 0 0 436.1
2  83 11 0 0 436.1
2  84 12 0 0 436.1
0

0101000
+94 30 -54 30 *
Wi

0101000
+35 18 -93 19 +53 26 -34 18 *
Fa
0  1e-007 11 18

0111000
+33 0 *
Ed
 1.00000007993606e-007 1 1 0
1  43 0 0 436.1
2  85 12 0 0 436.1
2  86 13 0 0 436.1
0

0101000
+92 30 -66 30 *
Wi

0101000
+31 18 -91 19 +52 26 -34 18 *
Fa
0  1e-007 12 18

0111000
+30 0 *
Ed
 1.00000030198066e-007 1 1 0
1  44 0 0 436.1
2  87 13 0 0 436.1
2  88 14 0 0 436.1
0

0101000
+90 30 -67 30 *
Wi

0101000
+28 18 -89 19 +65 26 -31 18 *
Fa
0  1e-007 13 18

0111000
+27 0 *
Ed
 1.00000031086245e-007 1 1 0
1  45 0 0 436.1
2  89 14 0 0 436.1
2  90 15 0 0 436.1
0

0101000
+88 30 -64 30 *
Wi

0101000
+25 18 -87 19 +63 26 -28 18 *
Fa
0  1e-007 14 18

0111000
+24 0 *
Ed
 1e-007 1 1 0
1  46 0 0 436.1
2  91 15 0 0 436.1
2  92 16 0 0 436.1
0

0101000
+86 30 -62 30 *
Wi

0101000
+22 18 -85 19 +61 26 -25 18 *
Fa
0  1e-007 15 18

0111000
+21 0 *
Ed
 1.00000016377201e-007 1 1 0
1  47 0 0 436.1
2  93 16 0 0 436.1
2  94 17 0 0 436.1
0

0101000
+84 30 -60 30 *
Wi

0101000
+19 18 -83 19 +59 26 -22 18 *
Fa
0  1e-007 16 18

0111000
+18 0 *
Ed
 1.0000001687539e-007 1 1 0
1  48 0 0 436.1
2  95 17 0 0 436.1
2  96 18 0 0 436.1
0

0101000
+82 30 -58 30 *
Wi

0101000
+19 18 -81 19 +57 26 -16 18 *
Fa
0  1e-007 17 18

0111000
+15 0 *
Wi

0101000
+35 18 -80 19 +55 26 -16 18 *
Fa
0  1e-007 18 18

0111000
+13 0 *
Sh

0101100
-120 2 +113 2 -106 2 +78 0 -50 0 -47 2 -44 2 +41 2 -38 2 -36 2 
-32 0 +29 0 +26 0 +23 0 +20 0 +17 0 -14 0 +12 0 *
So

0100000
+11 0 *
Co

0100000
+10 0 *
Ve
1e-007
12.5 -12.5 -1.38777878078145e-015
0 0

0101101
*
Ve
1e-007
12.5 12.5 1.38777878078145e-015
0 0

0101101
*
Ed
 1e-007 1 1 0
1  49 0 0 25
0

0101000
+8 32 -7 32 *
Ve
1e-007
12.5 12.5 44.787384
0 0

0101101
*
Ed
 1e-007 1 1 0
1  50 0 0 44.787384
0

0101000
+7 32 -5 32 *
Ed
 1e-007 1 1 0
1  51 0 0 51.2923948121303
0

0101000
+5 32 -8 32 *
Wi

0101100
+6 0 +4 0 +3 0 *
Co

1100000
+9 1 +2 31 *

+1 0 
0

