DBRep_DrawableShape

CASCADE Topology V1, (c) Matra-Datavision
Locations 0
Curve2ds 16
1 0 1.3275085383180907 1 0 
2 0 0 -1 0 0 1 95.000802388580937
1 0 4.8197133144497011 1 0 
1 0 0 1 0 
7 0 0  3 172 170  94.998039246000005 -120.148193359  94.99806848606724 -119.48423258448655  94.998119421949596 -118.1567153933737  94.998172417600898 -116.16685231556825  94.998204353466051 -114.1806233728022  94.998206801289768 -112.20043945314063  94.998165486972297 -110.22869873032465  94.998100038872593 -108.26777648922246  94.998037338705231 -106.3200225815164  94.997896996534138 -104.38775634809879  94.997789596718846 -102.47325388586378  94.99767300771498 -100.57875569701146  94.997560630889254 -98.706451417304464  94.997530343001785 -96.858474731333672  94.997532814839147 -95.036898295157485  94.997552109702909 -93.243731176601088  94.997742162453676 -91.480916339429442  94.997919277344963 -89.750320425746096  94.998251595327275 -88.053731282962374  94.998526430371754 -86.392850238768148  94.998877965871301 -84.76929729513131  94.998898894669026 -83.184600830512196  94.998888505883812 -81.640192647584868  94.998513689579113 -80.1374079039376  94.997986582236621 -78.677472364634241  94.997020563102126 -77.26152302232677  94.996776994619879 -75.890571617285659  94.996359017393715 -74.565533816561242  94.997381728906021 -73.287205457511376  94.999297504318108 -72.056277187309178  95.000958059430801 -70.873313907029583  95.001409196358281 -69.738765085712032  95.004517615292855 -68.652964284953697  94.998502918787153 -67.616146601517784  94.994291639303 -66.628394717112684  94.990219306128125 -65.689680076033625  94.981044767526612 -64.799903505665938  94.974199827993914 -63.958751730971208  94.965519603581129 -63.165869654085022  94.964008981528366 -62.420705123868821  94.960749657947261 -61.722699146736545  94.959322799213027 -61.071117256580614  94.953721568314819 -60.465103236250435  94.96246072733895 -59.903766877583955  94.967869496284507 -59.385994611153677  94.973562938224248 -58.910629760340555  94.978227730662113 -58.476392633778438  94.983817814817002 -58.081957369794793  94.984585486108415 -57.725725373773322  94.998878040020244 -57.40657546467709  95.008837498458249 -57.122441682960499  95.018257487948887 -56.871676757073097  95.026347391554495 -56.65245427844232  95.033369768488612 -56.462894286031975  95.039375820876927 -56.301040954052588  95.044402482114435 -56.164869544906409  95.048592295594716 -56.052299901615463  95.051948973842514 -55.96118890952642  95.054625022296918 -55.889352390253102  95.05704528391918 -55.823813042962854  95.059941892323764 -55.74559645062002  95.064094615827443 -55.6339589838528  95.069798562960514 -55.477227949299881  95.078114427801339 -55.268202073640872  95.084953789506102 -54.999729282333213  95.113452954440717 -54.66648649276663  95.143456059807065 -54.261267834094824  95.180950088745846 -53.778621507607653  95.223685456425116 -53.213194813168293  95.276128745129299 -52.560657746216528  95.322610218336067 -51.815393676316347  95.434357216796286 -50.980629813516209  95.557744977213119 -50.048678347006216  95.687451561527666 -49.015987383482774  95.863667780388155 -47.885750962006945  96.128590946134906 -46.667254070308971  96.357246209033462 -45.334189069858674  96.7725702780033 -43.938387251734021  97.159454885115949 -42.428837165448613  97.73725339343838 -40.872430268335144  98.327255029343817 -39.214762631116699  99.148895009481649 -37.550021559920459  99.961040537463575 -35.776764269250492  101.05733778132429 -34.05529751630732  102.20810075058039 -32.273764434213554  103.50319912959765 -30.490065704974814  105.01233284199424 -28.784299459791686  106.63534092742756 -27.094472063680254  108.38602588016418 -25.440157134357005  110.35050458627484 -23.953650151554754  112.41403588009888 -22.527863559288647  114.58147792405428 -21.186377035220186  116.82787644827775 -19.914122887995148  119.14962751132305 -18.729800073770473  121.51110402161908 -17.589546791246196  123.89974173655605 -16.487423987545554  126.3069454501573 -15.426538631347075  128.72168081818478 -14.403595949749072  131.14124553368958 -13.435487777799034  133.5506369039872 -12.508880578181254  135.93983690404053 -11.620683828954647  138.29970061243591 -10.769227658968033  140.62273153265485 -9.9564121634498139  142.90139653348763 -9.1832496380183137  145.12435632500845 -8.4379985469046961  147.2851870412247 -7.7217547020293011  149.3792265460369 -7.0397598346504875  151.39907332396797 -6.3873664063430935  153.33870247271057 -5.762268962740646  155.19767218591551 -5.1780871875548637  156.9669605849312 -4.6194552165952363  158.64755070010662 -4.1008161970159511  160.23297339739673 -3.6106803040274795  161.72421918292829 -3.1596148887094953  163.11602282966933 -2.735502396427191  164.41127790888638 -2.3509079032285234  165.60582840529659 -1.9927028197665035  166.70238167283321 -1.6683689533561781  167.70106957385283 -1.3745412293313124  168.60298556978387 -1.108758224059907  169.41060994157863 -0.87105880725840701  170.12739996172576 -0.66260412626407128  170.75588887580673 -0.47927305249885521  171.30026936946089 -0.32060415661744096  171.7650157231887 -0.18511845228160312  172.15513712639552 -0.071362914348604367  172.47615876841357 0.022134693734852048  172.73410462440293 0.096669043458252626  172.93505318530094 0.15483856707988014  173.08570331797091 0.19843434825730577  173.19301391243008 0.22948707778442554  173.27738365437358 0.25390638191706699  173.36586641085387 0.27950474758339622  173.48543158799384 0.31411498976517505  173.64963873643046 0.36162699684975136  173.86521392526271 0.42401584306254064  174.1386257704859 0.50313980484784826  174.47604908167722 0.60078432635007095  174.88332462735153 0.71865201203915474  175.36593930007245 0.85827915306327707  175.92892836998698 1.0213712697795376  176.57726897407511 1.2082235238632038  177.31505036048904 1.4206190827063274  178.14597582839781 1.6598894401553776  179.07336372940517 1.926933573210309  180.10001218957177 2.2225165565851759  181.22843572408115 2.5465070483012755  182.46009676822723 2.9004026401094682  183.79629899423995 3.2842877075718881  185.23781770885165 3.6979867155324495  186.78462332194721 4.1421157829075108  188.43644968321848 4.6160196300150922  190.19223709479877 5.1197615715505167  192.050542619384 5.6526900103317921  194.00928941222523 6.2143398119545772  196.06595119390153 6.8038441106748122  198.21740700059169 7.4205209366570717  200.46017616903649 8.0630616165936839  202.79013405908159 8.7306158026765903  205.20282725984273 9.4217090352266037  207.69330901867491 10.135036246511673  210.25623904416628 10.869078882979556  212.88591616134963 11.622218674122255  215.57625861840864 12.392784513448939  218.32089512202384 13.178983586555045  221.11316648984118 13.97891687019818  223.9461446827938 14.790693730430696  226.81271291669253 15.612278134049436  229.70558697094955 16.441544643929433  232.61733509500866 17.2763791967514  234.56395131345252 17.834600846268049  235.539154053 18.114280700999998 
 0 4 0.053615522056817556 1 0.1071983917651991 1 0.16068350987916391 1 0.21400557172168191 1 0.267100299509334 1 0.31990362074421924 1 0.37235207902526157 1 0.42438345018135815 1 0.4759361259669227 1 0.52695014113111016 1 0.57736614649060103 1 0.62712664102353011 1 0.67617617745570824 1 0.72446033529305187 1 0.77192674775928727 1 0.81852530682392577 1 0.86420775305142672 1 0.90892808528666658 1 0.95264317777346608 1 0.99531134174025393 1 1.0368939700640054 1 1.0773557417463686 1 1.116662773307848 1 1.1547852880075706 1 1.1916951447297388 1 1.2273685245109058 1 1.2617834644857271 1 1.294921496001378 1 1.3267673915857454 1 1.3573090321263417 1 1.3865375969774889 1 1.4144467388147575 1 1.4410340096283087 1 1.466300490644844 1 1.4902493645590902 1 1.5128879861059099 1 1.5342267237753493 1 1.5542787916698024 1 1.5730605846153536 1 1.5905919276923144 1 1.6068953093138194 1 1.6219963325249214 1 1.6359236787358136 1 1.6487086291371975 1 1.6603852807905808 1 1.6709904934495063 1 1.6805638058166352 1 1.6891468639548493 1 1.6967843165942602 1 1.7035226062561084 1 1.7094105258435246 1 1.7144988406960988 1 1.7188402656589044 1 1.7224893473885767 1 1.7255023123549993 1 1.7279366752919478 1 1.7298516459005373 1 1.7313072091555275 1 1.7332326535638853 1 1.7361720434308583 1 1.7403283069089119 1 1.7458970869174884 1 1.7530651790649938 1 1.7620090400998372 1 1.7728959674662401 1 1.7858793010058651 1 1.8010998102296378 1 1.8186844829958586 1 1.8387455568741962 1 1.861374332320191 1 1.8866619767788084 1 1.9146672196530752 1 1.9454209293258879 1 1.978984989487337 1 2.0153554789561974 1 2.0545116812732225 1 2.0964610230552463 1 2.1411099817553398 1 2.1884766821819475 1 2.2384115091163568 1 2.2908925915149245 1 2.3457862998779961 1 2.4029100995439019 1 2.4622390356347217 1 2.523541394081763 1 2.5866400452970106 1 2.6514580872359512 1 2.7177679107028836 1 2.785321469593379 1 2.8539704431259159 1 2.9235189782350246 1 2.993735948715937 1 3.0643925339272657 1 3.1352706137339186 1 3.2061502046856201 1 3.2768096862894485 1 3.3470265517056981 1 3.4165806048471343 1 3.4852584176013912 1 3.5528534420004778 1 3.6191635967545648 1 3.6839934383882773 1 3.7471600586241758 1 3.8084890017220441 1 3.8678178909021255 1 3.9249973437379051 1 3.9798907928744365 1 4.0323769952323909 1 4.0823482103170399 1 4.1297145846468828 1 4.1744013386033378 1 4.2163507507167797 1 4.2555221042473717 1 4.2918926591433975 1 4.3254568329637832 1 4.3562267971128694 1 4.3842323361790072 1 4.4095198914108789 1 4.4321539644710546 1 4.4522147680738442 1 4.4697993603590289 1 4.4850202272616162 1 4.4980032360837994 1 4.5088903312989617 1 4.5178348774942609 1 4.5250031507143289 1 4.5305718555308747 1 4.5347278754917379 1 4.5376674403550377 1 4.5395928112453827 1 4.5418204446085877 1 4.5451055159829377 1 4.5496441912496461 1 4.5556242384530456 1 4.5632277888379793 1 4.5726284162635542 1 4.5839894638731566 1 4.5974652920227266 1 4.6131982934317861 1 4.6313205701656752 1 4.6519503528669626 1 4.6751945479208512 1 4.7011451208770536 1 4.7298807915139109 1 4.7614650909171958 1 4.7959479881604379 1 4.83336289440272 1 4.8737294843909158 1 4.9170509385700321 1 4.9633158347785677 1 5.0124971579315778 1 5.06455250545417 1 5.1194247842407989 1 5.1770419281116373 1 5.2373177055372135 1 5.3001529756634529 1 5.3654338074341537 1 5.4330341751084186 1 5.5028155337460367 1 5.5746294228629534 1 5.6483145187258712 1 5.7237020441505875 1 5.8006128196926792 1 5.8788603387552429 1 5.958251113928454 1 6.0385852818295307 1 6.1196584508476137 1 6.2012621467938365 1 6.2831853071795898 4
1 6.2831853071795862 0 0 1 
1 0 0 0 1 
2 0 0 -1 0 0 1 99.000803627211369
1 0 1.3276015302415349 1 0 
1 0 4.7888252087731091 1 0 
1 0 4.162455730415811 1 0 
7 0 0  14 195 17  98.998039242121152 -120.14836951438946  98.99812945472641 -118.0998925637673  98.998193942276643 -116.05141378523916  98.998080199228454 -114.00075176109142  98.999022333045843 -111.96839051351836  98.99632954070276 -109.86267255250253  99.001241869431141 -107.94245024880472  98.994287246559153 -105.69248983447891  99.001172970492746 -103.87563672090776  98.996001006768836 -101.62999144345497  98.99775441148725 -99.70354635664259  98.997760661808954 -97.603754688830833  98.997297079413471 -95.568103533431909  98.997580187145928 -93.0393384288313  98.997841657411414 -90.51149075167082  98.997886416833666 -90.031973950887974  98.997952044504302 -89.552552988253851  98.998045102455151 -89.073175310635307  98.998150096199467 -88.593708088821373  98.998246078193944 -88.114072584271028  98.998323860812533 -87.634329337870298  98.998392565188951 -87.154650869521888  98.998471806824568 -86.675186470038767  98.998573472487024 -86.195891787447039  98.998684599643909 -85.716463784473149  98.998866639691968 -84.699821996635762  98.998907724297666 -83.6834998781395  98.998899048495488 -83.147393147396826  98.998900430825401 -82.608896484961036  98.99884398251767 -82.077071322002197  98.999001867697586 -81.537494444113335  98.998916442015471 -80.996985046505955  98.998464618075232 -80.464972822175511  98.998335048385798 -79.929719928370503  98.998499217559171 -79.388163750404289  98.998065275714296 -78.855726200398266  98.997699057354225 -78.315661337785443  98.997179154365298 -77.497138279065453  98.996920828196721 -76.677633716943873  98.996863460668365 -76.394076967505995  98.996812424061048 -76.110122877463297  98.996743821964614 -75.825721647806503  98.996651498946079 -75.541308587300108  98.996551293206636 -75.257408731127242  98.996475567173235 -74.974236587223388  98.996460987748904 -74.691550873783569  98.996533940010011 -74.408842520683478  98.996698930342859 -74.125752249357419  98.996936725886442 -73.842432444641702  98.997307772682376 -73.471724853275816  98.997768784121902 -73.100664574254068  98.997882328748105 -73.012899880127861  98.997999897456864 -72.925115093613883  98.998120993631858 -72.837310297870332  98.998245100667262 -72.749485664404119  98.998371732895919 -72.661641443778763  98.998500363686077 -72.573777852164511  98.998630508968049 -72.485895089621764  98.9987616468986 -72.39799321977199  98.998893282592988 -72.31007217168586  98.999024905123903 -72.222131651642727  98.999402838029482 -71.968571608849672  98.999772272284218 -71.714837993010221  99.000003070842823 -71.547776650777863  99.000238572107733 -71.389682137123373  99.000443595393676 -71.202522874404139  99.000575055649009 -71.067975363106186  99.000872621739205 -70.881017516162984  99.000970195011547 -70.704756894582403  99.000915657206235 -70.57310305650013  99.001191275188802 -70.372157098392051  99.0012285138517 -70.229051501114739  99.0014095491983 -70.056173764798643  99.001710754289419 -69.816872952808822  99.002156069484514 -69.57513733809111  99.002306998801927 -69.4975433903397  99.002462726803586 -69.420407166252033  99.002615820860271 -69.342550855743752  99.002760471397025 -69.263869511946154  99.002892613718288 -69.185414141480322  99.00300689715165 -69.107451773914732  99.003095763387392 -69.028888481062623  99.003152247864961 -68.94904431986474  99.003172486737981 -68.869259318131128  99.003152412641114 -68.790782332123072  99.003012738171336 -68.633735002824579  99.002665816217288 -68.477612718746187  99.002451606492926 -68.401467025427564  99.0021994738469 -68.325763307659315  99.001913633392491 -68.250318093872863  99.001597876485562 -68.174875081461153  99.001257576533661 -68.09950093045714  99.000899202490004 -68.02449421696501  99.000528387526217 -67.949993307864489  99.000148687741671 -67.875735457795173  98.999762950711187 -67.801324319488643  98.999376685196836 -67.726905818979802  98.998296996525056 -67.516639685057072  98.997288582364675 -67.306061686331347  98.996669890892534 -67.17031755354401  98.995993367618226 -67.025345671843894  98.995549566667989 -66.909332122697663  98.994792517350419 -66.740565695268117  98.994249818631104 -66.623445109288951  98.993766572013925 -66.496239941239452  98.99307826071184 -66.324252467748607  98.992576433810896 -66.219894562553947  98.991779863259623 -66.059219972002978  98.991039892972992 -65.926971182687922  98.989302970489234 -65.65734693372643  98.98709552670087 -65.390714449147424  98.985941442701019 -65.264671815084057  98.985006224939539 -65.145072786477172  98.982850376158979 -64.995838444488044  98.983956536851494 -64.946709691828275  98.978974448852981 -64.675240112064202  98.982002364747331 -64.756140776018583  98.977931827973066 -64.449448443283472  98.978430515172832 -64.439540882784613  98.976796538587337 -64.267783243385267  98.975836433873383 -64.156217568853094  98.974151394994507 -63.971670771901465  98.97236979713233 -63.789780178581829  98.971806679786098 -63.733151955334307  98.971237990713661 -63.67600062686887  98.970676417445844 -63.619636961960502  98.970126994663204 -63.564177735784014  98.969586519160416 -63.508453266501895  98.969057257568195 -63.4521663577504  98.9685510172162 -63.39653442826576  98.968076614894315 -63.342314171123924  98.967628519056632 -63.288014252915382  98.967201775163389 -63.232244805585822  98.966132441995313 -63.080779772962721  98.965352592912311 -62.927062348684721  98.964975380282482 -62.827320889816136  98.964406436504106 -62.72164310095657  98.964994546041027 -62.643591208337078  98.962675658313202 -62.465572759296002  98.965539487241088 -62.516253803631798  98.96205495300741 -62.198041650765596  98.963626949790395 -62.284858908050531  98.962307857423113 -62.06639992437205  98.962147329425207 -62.010200882867736  98.961678377745685 -61.895691246001071  98.95763592091744 -60.831656770265283  98.957840356140451 -59.65031091827516  98.435696671818008 -60.100684414080845  102.07349863799844 -53.744031462913576  90.069868805300544 -62.202101442471644  115.14105821008742 -56.348209402037746  79.592306201439015 -42.240125559998383  115.05961791059309 -75.707861582169613  90.74303940895058 -34.673259674058912  102.01854759698305 -60.192268046723669  98.895063358521625 -50.578183215443936  99.606484891041049 -49.937011744222424  99.713432481711962 -48.881825073072065  100.21885062236056 -46.665409054954353  102.08349026808582 -41.353015380538373  92.436283352444917 -59.558705011474004  119.06993685126048 -23.02764432299519  77.34866963637802 -51.619708838971974  119.88596521806969 -60.708103390013328  95.49847050322235 -3.9662790533369496  100.49421121369274 -72.154675624709796  104.63720427319051 -25.98150777352242  102.90478841862539 -40.372514603285808  103.25238302852527 -38.053320187887913  105.0110978204447 -35.290335503420266  106.54936701748119 -32.932016946716288  108.68640987923278 -30.643991842245768  101.97331066990689 -35.851061335189968  127.17519256974791 -18.251599776238262  89.849314792794289 -37.207046619265462  129.9807613507779 -23.587391817348397  106.57709113007279 -24.038487785512356  119.29356994886842 -26.608400280366066  117.57478470198994 -22.695217129381643  120.04682793405743 -22.939301833819563  121.84674105888313 -21.842625040430711  131.02690911470279 -17.537775724519282  140.68477124742637 -13.837548944744491  147.83146169598544 -11.4881007767324  158.28365861750527 -8.9224093407808613  161.6275208053994 -6.6564048984409325  175.56733510846513 -2.0363481994477168  177.14222148842842 -5.4494524472996311  191.1214783173952 3.7763737330963503  195.0026343280683 0.89897945869256513  205.03025425753179 5.6993076132102054  212.46436155035394 7.2600094734393865  220.58091949607129 9.6643894503861887  228.61155931048899 11.966256837311269  236.64186730691191 14.269280898705198 
 0 15 0.77192674775928727 12 0.95264317777346608 12 1.1547852880075706 12 1.2617834644857271 12 1.294921496001378 12 1.3573090321263417 12 1.3865375969774889 12 1.4144467388147575 12 1.466300490644844 12 1.5128879861059099 12 1.5342267237753493 12 1.5730605846153536 12 1.9454209293258879 12 2.3457862998779961 12 3.1352706137339186 12 6.2831853071795898 15
1 6.2831853071795862 0 0 1 
1 0 0 0 1 
1 6.2831853071795862 0 0 1 
1 0 0 0 1 
Curves 7
2 0 0 -70.829627990999995 0 0 1 0 1 0 -1 0 0 95.000802388580937
2 0 0 3.1341554278083978 0 0 1 0 1 0 -1 0 0 183.27378845199999
7 0 0  3 172 170  0 94.998039246000005 -120.148193359  0 94.99806848606724 -119.48423258448655  0 94.998119421949596 -118.1567153933737  0 94.998172417600898 -116.16685231556825  0 94.998204353466051 -114.1806233728022  0 94.998206801289768 -112.20043945314063  0 94.998165486972297 -110.22869873032465  0 94.998100038872593 -108.26777648922246  0 94.998037338705231 -106.3200225815164  0 94.997896996534138 -104.38775634809879  0 94.997789596718846 -102.47325388586378  0 94.99767300771498 -100.57875569701146  0 94.997560630889254 -98.706451417304464  0 94.997530343001785 -96.858474731333672  0 94.997532814839147 -95.036898295157485  0 94.997552109702909 -93.243731176601088  0 94.997742162453676 -91.480916339429442  0 94.997919277344963 -89.750320425746096  0 94.998251595327275 -88.053731282962374  0 94.998526430371754 -86.392850238768148  0 94.998877965871301 -84.76929729513131  0 94.998898894669026 -83.184600830512196  0 94.998888505883812 -81.640192647584868  0 94.998513689579113 -80.1374079039376  0 94.997986582236621 -78.677472364634241  0 94.997020563102126 -77.26152302232677  0 94.996776994619879 -75.890571617285659  0 94.996359017393715 -74.565533816561242  0 94.997381728906021 -73.287205457511376  0 94.999297504318108 -72.056277187309178  0 95.000958059430801 -70.873313907029583  0 95.001409196358281 -69.738765085712032  0 95.004517615292855 -68.652964284953697  0 94.998502918787153 -67.616146601517784  0 94.994291639303 -66.628394717112684  0 94.990219306128125 -65.689680076033625  0 94.981044767526612 -64.799903505665938  0 94.974199827993914 -63.958751730971208  0 94.965519603581129 -63.165869654085022  0 94.964008981528366 -62.420705123868821  0 94.960749657947261 -61.722699146736545  0 94.959322799213027 -61.071117256580614  0 94.953721568314819 -60.465103236250435  0 94.96246072733895 -59.903766877583955  0 94.967869496284507 -59.385994611153677  0 94.973562938224248 -58.910629760340555  0 94.978227730662113 -58.476392633778438  0 94.983817814817002 -58.081957369794793  0 94.984585486108415 -57.725725373773322  0 94.998878040020244 -57.40657546467709  0 95.008837498458249 -57.122441682960499  0 95.018257487948887 -56.871676757073097  0 95.026347391554495 -56.65245427844232  0 95.033369768488612 -56.462894286031975  0 95.039375820876927 -56.301040954052588  0 95.044402482114435 -56.164869544906409  0 95.048592295594716 -56.052299901615463  0 95.051948973842514 -55.96118890952642  0 95.054625022296918 -55.889352390253102  0 95.05704528391918 -55.823813042962854  0 95.059941892323764 -55.74559645062002  0 95.064094615827443 -55.6339589838528  0 95.069798562960514 -55.477227949299881  0 95.078114427801339 -55.268202073640872  0 95.084953789506102 -54.999729282333213  0 95.113452954440717 -54.66648649276663  0 95.143456059807065 -54.261267834094824  0 95.180950088745846 -53.778621507607653  0 95.223685456425116 -53.213194813168293  0 95.276128745129299 -52.560657746216528  0 95.322610218336067 -51.815393676316347  0 95.434357216796286 -50.980629813516209  0 95.557744977213119 -50.048678347006216  0 95.687451561527666 -49.015987383482774  0 95.863667780388155 -47.885750962006945  0 96.128590946134906 -46.667254070308971  0 96.357246209033462 -45.334189069858674  0 96.7725702780033 -43.938387251734021  0 97.159454885115949 -42.428837165448613  0 97.73725339343838 -40.872430268335144  0 98.327255029343817 -39.214762631116699  0 99.148895009481649 -37.550021559920459  0 99.961040537463575 -35.776764269250492  0 101.05733778132429 -34.05529751630732  0 102.20810075058039 -32.273764434213554  0 103.50319912959765 -30.490065704974814  0 105.01233284199424 -28.784299459791686  0 106.63534092742756 -27.094472063680254  0 108.38602588016418 -25.440157134357005  0 110.35050458627484 -23.953650151554754  0 112.41403588009888 -22.527863559288647  0 114.58147792405428 -21.186377035220186  0 116.82787644827775 -19.914122887995148  0 119.14962751132305 -18.729800073770473  0 121.51110402161908 -17.589546791246196  0 123.89974173655605 -16.487423987545554  0 126.3069454501573 -15.426538631347075  0 128.72168081818478 -14.403595949749072  0 131.14124553368958 -13.435487777799034  0 133.5506369039872 -12.508880578181254  0 135.93983690404053 -11.620683828954647  0 138.29970061243591 -10.769227658968033  0 140.62273153265485 -9.9564121634498139  0 142.90139653348763 -9.1832496380183137  0 145.12435632500845 -8.4379985469046961  0 147.2851870412247 -7.7217547020293011  0 149.3792265460369 -7.0397598346504875  0 151.39907332396797 -6.3873664063430935  0 153.33870247271057 -5.762268962740646  0 155.19767218591551 -5.1780871875548637  0 156.9669605849312 -4.6194552165952363  0 158.64755070010662 -4.1008161970159511  0 160.23297339739673 -3.6106803040274795  0 161.72421918292829 -3.1596148887094953  0 163.11602282966933 -2.735502396427191  0 164.41127790888638 -2.3509079032285234  0 165.60582840529659 -1.9927028197665035  0 166.70238167283321 -1.6683689533561781  0 167.70106957385283 -1.3745412293313124  0 168.60298556978387 -1.108758224059907  0 169.41060994157863 -0.87105880725840701  0 170.12739996172576 -0.66260412626407128  0 170.75588887580673 -0.47927305249885521  0 171.30026936946089 -0.32060415661744096  0 171.7650157231887 -0.18511845228160312  0 172.15513712639552 -0.071362914348604367  0 172.47615876841357 0.022134693734852048  0 172.73410462440293 0.096669043458252626  0 172.93505318530094 0.15483856707988014  0 173.08570331797091 0.19843434825730577  0 173.19301391243008 0.22948707778442554  0 173.27738365437358 0.25390638191706699  0 173.36586641085387 0.27950474758339622  0 173.48543158799384 0.31411498976517505  0 173.64963873643046 0.36162699684975136  0 173.86521392526271 0.42401584306254064  0 174.1386257704859 0.50313980484784826  0 174.47604908167722 0.60078432635007095  0 174.88332462735153 0.71865201203915474  0 175.36593930007245 0.85827915306327707  0 175.92892836998698 1.0213712697795376  0 176.57726897407511 1.2082235238632038  0 177.31505036048904 1.4206190827063274  0 178.14597582839781 1.6598894401553776  0 179.07336372940517 1.926933573210309  0 180.10001218957177 2.2225165565851759  0 181.22843572408115 2.5465070483012755  0 182.46009676822723 2.9004026401094682  0 183.79629899423995 3.2842877075718881  0 185.23781770885165 3.6979867155324495  0 186.78462332194721 4.1421157829075108  0 188.43644968321848 4.6160196300150922  0 190.19223709479877 5.1197615715505167  0 192.050542619384 5.6526900103317921  0 194.00928941222523 6.2143398119545772  0 196.06595119390153 6.8038441106748122  0 198.21740700059169 7.4205209366570717  0 200.46017616903649 8.0630616165936839  0 202.79013405908159 8.7306158026765903  0 205.20282725984273 9.4217090352266037  0 207.69330901867491 10.135036246511673  0 210.25623904416628 10.869078882979556  0 212.88591616134963 11.622218674122255  0 215.57625861840864 12.392784513448939  0 218.32089512202384 13.178983586555045  0 221.11316648984118 13.97891687019818  0 223.9461446827938 14.790693730430696  0 226.81271291669253 15.612278134049436  0 229.70558697094955 16.441544643929433  0 232.61733509500866 17.2763791967514  0 234.56395131345252 17.834600846268049  0 235.539154053 18.114280700999998 
 0 4 0.053615522056817556 1 0.1071983917651991 1 0.16068350987916391 1 0.21400557172168191 1 0.267100299509334 1 0.31990362074421924 1 0.37235207902526157 1 0.42438345018135815 1 0.4759361259669227 1 0.52695014113111016 1 0.57736614649060103 1 0.62712664102353011 1 0.67617617745570824 1 0.72446033529305187 1 0.77192674775928727 1 0.81852530682392577 1 0.86420775305142672 1 0.90892808528666658 1 0.95264317777346608 1 0.99531134174025393 1 1.0368939700640054 1 1.0773557417463686 1 1.116662773307848 1 1.1547852880075706 1 1.1916951447297388 1 1.2273685245109058 1 1.2617834644857271 1 1.294921496001378 1 1.3267673915857454 1 1.3573090321263417 1 1.3865375969774889 1 1.4144467388147575 1 1.4410340096283087 1 1.466300490644844 1 1.4902493645590902 1 1.5128879861059099 1 1.5342267237753493 1 1.5542787916698024 1 1.5730605846153536 1 1.5905919276923144 1 1.6068953093138194 1 1.6219963325249214 1 1.6359236787358136 1 1.6487086291371975 1 1.6603852807905808 1 1.6709904934495063 1 1.6805638058166352 1 1.6891468639548493 1 1.6967843165942602 1 1.7035226062561084 1 1.7094105258435246 1 1.7144988406960988 1 1.7188402656589044 1 1.7224893473885767 1 1.7255023123549993 1 1.7279366752919478 1 1.7298516459005373 1 1.7313072091555275 1 1.7332326535638853 1 1.7361720434308583 1 1.7403283069089119 1 1.7458970869174884 1 1.7530651790649938 1 1.7620090400998372 1 1.7728959674662401 1 1.7858793010058651 1 1.8010998102296378 1 1.8186844829958586 1 1.8387455568741962 1 1.861374332320191 1 1.8866619767788084 1 1.9146672196530752 1 1.9454209293258879 1 1.978984989487337 1 2.0153554789561974 1 2.0545116812732225 1 2.0964610230552463 1 2.1411099817553398 1 2.1884766821819475 1 2.2384115091163568 1 2.2908925915149245 1 2.3457862998779961 1 2.4029100995439019 1 2.4622390356347217 1 2.523541394081763 1 2.5866400452970106 1 2.6514580872359512 1 2.7177679107028836 1 2.785321469593379 1 2.8539704431259159 1 2.9235189782350246 1 2.993735948715937 1 3.0643925339272657 1 3.1352706137339186 1 3.2061502046856201 1 3.2768096862894485 1 3.3470265517056981 1 3.4165806048471343 1 3.4852584176013912 1 3.5528534420004778 1 3.6191635967545648 1 3.6839934383882773 1 3.7471600586241758 1 3.8084890017220441 1 3.8678178909021255 1 3.9249973437379051 1 3.9798907928744365 1 4.0323769952323909 1 4.0823482103170399 1 4.1297145846468828 1 4.1744013386033378 1 4.2163507507167797 1 4.2555221042473717 1 4.2918926591433975 1 4.3254568329637832 1 4.3562267971128694 1 4.3842323361790072 1 4.4095198914108789 1 4.4321539644710546 1 4.4522147680738442 1 4.4697993603590289 1 4.4850202272616162 1 4.4980032360837994 1 4.5088903312989617 1 4.5178348774942609 1 4.5250031507143289 1 4.5305718555308747 1 4.5347278754917379 1 4.5376674403550377 1 4.5395928112453827 1 4.5418204446085877 1 4.5451055159829377 1 4.5496441912496461 1 4.5556242384530456 1 4.5632277888379793 1 4.5726284162635542 1 4.5839894638731566 1 4.5974652920227266 1 4.6131982934317861 1 4.6313205701656752 1 4.6519503528669626 1 4.6751945479208512 1 4.7011451208770536 1 4.7298807915139109 1 4.7614650909171958 1 4.7959479881604379 1 4.83336289440272 1 4.8737294843909158 1 4.9170509385700321 1 4.9633158347785677 1 5.0124971579315778 1 5.06455250545417 1 5.1194247842407989 1 5.1770419281116373 1 5.2373177055372135 1 5.3001529756634529 1 5.3654338074341537 1 5.4330341751084186 1 5.5028155337460367 1 5.5746294228629534 1 5.6483145187258712 1 5.7237020441505875 1 5.8006128196926792 1 5.8788603387552429 1 5.958251113928454 1 6.0385852818295307 1 6.1196584508476137 1 6.2012621467938365 1 6.2831853071795898 4
2 0 0 -70.829627990999995 0 0 1 0 1 0 -1 0 0 99.000803627211369
2 0 0 -1.0283003026074127 0 0 1 0 1 0 -1 0 0 183.27378845199965
7 0 0  14 195 17  0 98.998039242121152 -120.14836951438946  0 98.99812945472641 -118.0998925637673  0 98.998193942276643 -116.05141378523916  0 98.998080199228454 -114.00075176109142  0 98.999022333045843 -111.96839051351836  0 98.99632954070276 -109.86267255250253  0 99.001241869431141 -107.94245024880472  0 98.994287246559153 -105.69248983447891  0 99.001172970492746 -103.87563672090776  0 98.996001006768836 -101.62999144345497  0 98.99775441148725 -99.70354635664259  0 98.997760661808954 -97.603754688830833  0 98.997297079413471 -95.568103533431909  0 98.997580187145928 -93.0393384288313  0 98.997841657411414 -90.51149075167082  0 98.997886416833666 -90.031973950887974  0 98.997952044504302 -89.552552988253851  0 98.998045102455151 -89.073175310635307  0 98.998150096199467 -88.593708088821373  0 98.998246078193944 -88.114072584271028  0 98.998323860812533 -87.634329337870298  0 98.998392565188951 -87.154650869521888  0 98.998471806824568 -86.675186470038767  0 98.998573472487024 -86.195891787447039  0 98.998684599643909 -85.716463784473149  0 98.998866639691968 -84.699821996635762  0 98.998907724297666 -83.6834998781395  0 98.998899048495488 -83.147393147396826  0 98.998900430825401 -82.608896484961036  0 98.99884398251767 -82.077071322002197  0 98.999001867697586 -81.537494444113335  0 98.998916442015471 -80.996985046505955  0 98.998464618075232 -80.464972822175511  0 98.998335048385798 -79.929719928370503  0 98.998499217559171 -79.388163750404289  0 98.998065275714296 -78.855726200398266  0 98.997699057354225 -78.315661337785443  0 98.997179154365298 -77.497138279065453  0 98.996920828196721 -76.677633716943873  0 98.996863460668365 -76.394076967505995  0 98.996812424061048 -76.110122877463297  0 98.996743821964614 -75.825721647806503  0 98.996651498946079 -75.541308587300108  0 98.996551293206636 -75.257408731127242  0 98.996475567173235 -74.974236587223388  0 98.996460987748904 -74.691550873783569  0 98.996533940010011 -74.408842520683478  0 98.996698930342859 -74.125752249357419  0 98.996936725886442 -73.842432444641702  0 98.997307772682376 -73.471724853275816  0 98.997768784121902 -73.100664574254068  0 98.997882328748105 -73.012899880127861  0 98.997999897456864 -72.925115093613883  0 98.998120993631858 -72.837310297870332  0 98.998245100667262 -72.749485664404119  0 98.998371732895919 -72.661641443778763  0 98.998500363686077 -72.573777852164511  0 98.998630508968049 -72.485895089621764  0 98.9987616468986 -72.39799321977199  0 98.998893282592988 -72.31007217168586  0 98.999024905123903 -72.222131651642727  0 98.999402838029482 -71.968571608849672  0 98.999772272284218 -71.714837993010221  0 99.000003070842823 -71.547776650777863  0 99.000238572107733 -71.389682137123373  0 99.000443595393676 -71.202522874404139  0 99.000575055649009 -71.067975363106186  0 99.000872621739205 -70.881017516162984  0 99.000970195011547 -70.704756894582403  0 99.000915657206235 -70.57310305650013  0 99.001191275188802 -70.372157098392051  0 99.0012285138517 -70.229051501114739  0 99.0014095491983 -70.056173764798643  0 99.001710754289419 -69.816872952808822  0 99.002156069484514 -69.57513733809111  0 99.002306998801927 -69.4975433903397  0 99.002462726803586 -69.420407166252033  0 99.002615820860271 -69.342550855743752  0 99.002760471397025 -69.263869511946154  0 99.002892613718288 -69.185414141480322  0 99.00300689715165 -69.107451773914732  0 99.003095763387392 -69.028888481062623  0 99.003152247864961 -68.94904431986474  0 99.003172486737981 -68.869259318131128  0 99.003152412641114 -68.790782332123072  0 99.003012738171336 -68.633735002824579  0 99.002665816217288 -68.477612718746187  0 99.002451606492926 -68.401467025427564  0 99.0021994738469 -68.325763307659315  0 99.001913633392491 -68.250318093872863  0 99.001597876485562 -68.174875081461153  0 99.001257576533661 -68.09950093045714  0 99.000899202490004 -68.02449421696501  0 99.000528387526217 -67.949993307864489  0 99.000148687741671 -67.875735457795173  0 98.999762950711187 -67.801324319488643  0 98.999376685196836 -67.726905818979802  0 98.998296996525056 -67.516639685057072  0 98.997288582364675 -67.306061686331347  0 98.996669890892534 -67.17031755354401  0 98.995993367618226 -67.025345671843894  0 98.995549566667989 -66.909332122697663  0 98.994792517350419 -66.740565695268117  0 98.994249818631104 -66.623445109288951  0 98.993766572013925 -66.496239941239452  0 98.99307826071184 -66.324252467748607  0 98.992576433810896 -66.219894562553947  0 98.991779863259623 -66.059219972002978  0 98.991039892972992 -65.926971182687922  0 98.989302970489234 -65.65734693372643  0 98.98709552670087 -65.390714449147424  0 98.985941442701019 -65.264671815084057  0 98.985006224939539 -65.145072786477172  0 98.982850376158979 -64.995838444488044  0 98.983956536851494 -64.946709691828275  0 98.978974448852981 -64.675240112064202  0 98.982002364747331 -64.756140776018583  0 98.977931827973066 -64.449448443283472  0 98.978430515172832 -64.439540882784613  0 98.976796538587337 -64.267783243385267  0 98.975836433873383 -64.156217568853094  0 98.974151394994507 -63.971670771901465  0 98.97236979713233 -63.789780178581829  0 98.971806679786098 -63.733151955334307  0 98.971237990713661 -63.67600062686887  0 98.970676417445844 -63.619636961960502  0 98.970126994663204 -63.564177735784014  0 98.969586519160416 -63.508453266501895  0 98.969057257568195 -63.4521663577504  0 98.9685510172162 -63.39653442826576  0 98.968076614894315 -63.342314171123924  0 98.967628519056632 -63.288014252915382  0 98.967201775163389 -63.232244805585822  0 98.966132441995313 -63.080779772962721  0 98.965352592912311 -62.927062348684721  0 98.964975380282482 -62.827320889816136  0 98.964406436504106 -62.72164310095657  0 98.964994546041027 -62.643591208337078  0 98.962675658313202 -62.465572759296002  0 98.965539487241088 -62.516253803631798  0 98.96205495300741 -62.198041650765596  0 98.963626949790395 -62.284858908050531  0 98.962307857423113 -62.06639992437205  0 98.962147329425207 -62.010200882867736  0 98.961678377745685 -61.895691246001071  0 98.95763592091744 -60.831656770265283  0 98.957840356140451 -59.65031091827516  0 98.435696671818008 -60.100684414080845  0 102.07349863799844 -53.744031462913576  0 90.069868805300544 -62.202101442471644  0 115.14105821008742 -56.348209402037746  0 79.592306201439015 -42.240125559998383  0 115.05961791059309 -75.707861582169613  0 90.74303940895058 -34.673259674058912  0 102.01854759698305 -60.192268046723669  0 98.895063358521625 -50.578183215443936  0 99.606484891041049 -49.937011744222424  0 99.713432481711962 -48.881825073072065  0 100.21885062236056 -46.665409054954353  0 102.08349026808582 -41.353015380538373  0 92.436283352444917 -59.558705011474004  0 119.06993685126048 -23.02764432299519  0 77.34866963637802 -51.619708838971974  0 119.88596521806969 -60.708103390013328  0 95.49847050322235 -3.9662790533369496  0 100.49421121369274 -72.154675624709796  0 104.63720427319051 -25.98150777352242  0 102.90478841862539 -40.372514603285808  0 103.25238302852527 -38.053320187887913  0 105.0110978204447 -35.290335503420266  0 106.54936701748119 -32.932016946716288  0 108.68640987923278 -30.643991842245768  0 101.97331066990689 -35.851061335189968  0 127.17519256974791 -18.251599776238262  0 89.849314792794289 -37.207046619265462  0 129.9807613507779 -23.587391817348397  0 106.57709113007279 -24.038487785512356  0 119.29356994886842 -26.608400280366066  0 117.57478470198994 -22.695217129381643  0 120.04682793405743 -22.939301833819563  0 121.84674105888313 -21.842625040430711  0 131.02690911470279 -17.537775724519282  0 140.68477124742637 -13.837548944744491  0 147.83146169598544 -11.4881007767324  0 158.28365861750527 -8.9224093407808613  0 161.6275208053994 -6.6564048984409325  0 175.56733510846513 -2.0363481994477168  0 177.14222148842842 -5.4494524472996311  0 191.1214783173952 3.7763737330963503  0 195.0026343280683 0.89897945869256513  0 205.03025425753179 5.6993076132102054  0 212.46436155035394 7.2600094734393865  0 220.58091949607129 9.6643894503861887  0 228.61155931048899 11.966256837311269  0 236.64186730691191 14.269280898705198 
 0 15 0.77192674775928727 12 0.95264317777346608 12 1.1547852880075706 12 1.2617834644857271 12 1.294921496001378 12 1.3573090321263417 12 1.3865375969774889 12 1.4144467388147575 12 1.466300490644844 12 1.5128879861059099 12 1.5342267237753493 12 1.5730605846153536 12 1.9454209293258879 12 2.3457862998779961 12 3.1352706137339186 12 6.2831853071795898 15
1 0 183.27378845199999 3.1341554278083978 0 -8.193733105019177e-014 -1 
Polygon3D 0
PolygonOnTriangulations 0
Surfaces 5
7 0 0 0 0 0 1 
8 1.3275085383180907 4.8197133144497011
7 0 0  3 172 170  0 94.998039246000005 -120.148193359  0 94.99806848606724 -119.48423258448655  0 94.998119421949596 -118.1567153933737  0 94.998172417600898 -116.16685231556825  0 94.998204353466051 -114.1806233728022  0 94.998206801289768 -112.20043945314063  0 94.998165486972297 -110.22869873032465  0 94.998100038872593 -108.26777648922246  0 94.998037338705231 -106.3200225815164  0 94.997896996534138 -104.38775634809879  0 94.997789596718846 -102.47325388586378  0 94.99767300771498 -100.57875569701146  0 94.997560630889254 -98.706451417304464  0 94.997530343001785 -96.858474731333672  0 94.997532814839147 -95.036898295157485  0 94.997552109702909 -93.243731176601088  0 94.997742162453676 -91.480916339429442  0 94.997919277344963 -89.750320425746096  0 94.998251595327275 -88.053731282962374  0 94.998526430371754 -86.392850238768148  0 94.998877965871301 -84.76929729513131  0 94.998898894669026 -83.184600830512196  0 94.998888505883812 -81.640192647584868  0 94.998513689579113 -80.1374079039376  0 94.997986582236621 -78.677472364634241  0 94.997020563102126 -77.26152302232677  0 94.996776994619879 -75.890571617285659  0 94.996359017393715 -74.565533816561242  0 94.997381728906021 -73.287205457511376  0 94.999297504318108 -72.056277187309178  0 95.000958059430801 -70.873313907029583  0 95.001409196358281 -69.738765085712032  0 95.004517615292855 -68.652964284953697  0 94.998502918787153 -67.616146601517784  0 94.994291639303 -66.628394717112684  0 94.990219306128125 -65.689680076033625  0 94.981044767526612 -64.799903505665938  0 94.974199827993914 -63.958751730971208  0 94.965519603581129 -63.165869654085022  0 94.964008981528366 -62.420705123868821  0 94.960749657947261 -61.722699146736545  0 94.959322799213027 -61.071117256580614  0 94.953721568314819 -60.465103236250435  0 94.96246072733895 -59.903766877583955  0 94.967869496284507 -59.385994611153677  0 94.973562938224248 -58.910629760340555  0 94.978227730662113 -58.476392633778438  0 94.983817814817002 -58.081957369794793  0 94.984585486108415 -57.725725373773322  0 94.998878040020244 -57.40657546467709  0 95.008837498458249 -57.122441682960499  0 95.018257487948887 -56.871676757073097  0 95.026347391554495 -56.65245427844232  0 95.033369768488612 -56.462894286031975  0 95.039375820876927 -56.301040954052588  0 95.044402482114435 -56.164869544906409  0 95.048592295594716 -56.052299901615463  0 95.051948973842514 -55.96118890952642  0 95.054625022296918 -55.889352390253102  0 95.05704528391918 -55.823813042962854  0 95.059941892323764 -55.74559645062002  0 95.064094615827443 -55.6339589838528  0 95.069798562960514 -55.477227949299881  0 95.078114427801339 -55.268202073640872  0 95.084953789506102 -54.999729282333213  0 95.113452954440717 -54.66648649276663  0 95.143456059807065 -54.261267834094824  0 95.180950088745846 -53.778621507607653  0 95.223685456425116 -53.213194813168293  0 95.276128745129299 -52.560657746216528  0 95.322610218336067 -51.815393676316347  0 95.434357216796286 -50.980629813516209  0 95.557744977213119 -50.048678347006216  0 95.687451561527666 -49.015987383482774  0 95.863667780388155 -47.885750962006945  0 96.128590946134906 -46.667254070308971  0 96.357246209033462 -45.334189069858674  0 96.7725702780033 -43.938387251734021  0 97.159454885115949 -42.428837165448613  0 97.73725339343838 -40.872430268335144  0 98.327255029343817 -39.214762631116699  0 99.148895009481649 -37.550021559920459  0 99.961040537463575 -35.776764269250492  0 101.05733778132429 -34.05529751630732  0 102.20810075058039 -32.273764434213554  0 103.50319912959765 -30.490065704974814  0 105.01233284199424 -28.784299459791686  0 106.63534092742756 -27.094472063680254  0 108.38602588016418 -25.440157134357005  0 110.35050458627484 -23.953650151554754  0 112.41403588009888 -22.527863559288647  0 114.58147792405428 -21.186377035220186  0 116.82787644827775 -19.914122887995148  0 119.14962751132305 -18.729800073770473  0 121.51110402161908 -17.589546791246196  0 123.89974173655605 -16.487423987545554  0 126.3069454501573 -15.426538631347075  0 128.72168081818478 -14.403595949749072  0 131.14124553368958 -13.435487777799034  0 133.5506369039872 -12.508880578181254  0 135.93983690404053 -11.620683828954647  0 138.29970061243591 -10.769227658968033  0 140.62273153265485 -9.9564121634498139  0 142.90139653348763 -9.1832496380183137  0 145.12435632500845 -8.4379985469046961  0 147.2851870412247 -7.7217547020293011  0 149.3792265460369 -7.0397598346504875  0 151.39907332396797 -6.3873664063430935  0 153.33870247271057 -5.762268962740646  0 155.19767218591551 -5.1780871875548637  0 156.9669605849312 -4.6194552165952363  0 158.64755070010662 -4.1008161970159511  0 160.23297339739673 -3.6106803040274795  0 161.72421918292829 -3.1596148887094953  0 163.11602282966933 -2.735502396427191  0 164.41127790888638 -2.3509079032285234  0 165.60582840529659 -1.9927028197665035  0 166.70238167283321 -1.6683689533561781  0 167.70106957385283 -1.3745412293313124  0 168.60298556978387 -1.108758224059907  0 169.41060994157863 -0.87105880725840701  0 170.12739996172576 -0.66260412626407128  0 170.75588887580673 -0.47927305249885521  0 171.30026936946089 -0.32060415661744096  0 171.7650157231887 -0.18511845228160312  0 172.15513712639552 -0.071362914348604367  0 172.47615876841357 0.022134693734852048  0 172.73410462440293 0.096669043458252626  0 172.93505318530094 0.15483856707988014  0 173.08570331797091 0.19843434825730577  0 173.19301391243008 0.22948707778442554  0 173.27738365437358 0.25390638191706699  0 173.36586641085387 0.27950474758339622  0 173.48543158799384 0.31411498976517505  0 173.64963873643046 0.36162699684975136  0 173.86521392526271 0.42401584306254064  0 174.1386257704859 0.50313980484784826  0 174.47604908167722 0.60078432635007095  0 174.88332462735153 0.71865201203915474  0 175.36593930007245 0.85827915306327707  0 175.92892836998698 1.0213712697795376  0 176.57726897407511 1.2082235238632038  0 177.31505036048904 1.4206190827063274  0 178.14597582839781 1.6598894401553776  0 179.07336372940517 1.926933573210309  0 180.10001218957177 2.2225165565851759  0 181.22843572408115 2.5465070483012755  0 182.46009676822723 2.9004026401094682  0 183.79629899423995 3.2842877075718881  0 185.23781770885165 3.6979867155324495  0 186.78462332194721 4.1421157829075108  0 188.43644968321848 4.6160196300150922  0 190.19223709479877 5.1197615715505167  0 192.050542619384 5.6526900103317921  0 194.00928941222523 6.2143398119545772  0 196.06595119390153 6.8038441106748122  0 198.21740700059169 7.4205209366570717  0 200.46017616903649 8.0630616165936839  0 202.79013405908159 8.7306158026765903  0 205.20282725984273 9.4217090352266037  0 207.69330901867491 10.135036246511673  0 210.25623904416628 10.869078882979556  0 212.88591616134963 11.622218674122255  0 215.57625861840864 12.392784513448939  0 218.32089512202384 13.178983586555045  0 221.11316648984118 13.97891687019818  0 223.9461446827938 14.790693730430696  0 226.81271291669253 15.612278134049436  0 229.70558697094955 16.441544643929433  0 232.61733509500866 17.2763791967514  0 234.56395131345252 17.834600846268049  0 235.539154053 18.114280700999998 
 0 4 0.053615522056817556 1 0.1071983917651991 1 0.16068350987916391 1 0.21400557172168191 1 0.267100299509334 1 0.31990362074421924 1 0.37235207902526157 1 0.42438345018135815 1 0.4759361259669227 1 0.52695014113111016 1 0.57736614649060103 1 0.62712664102353011 1 0.67617617745570824 1 0.72446033529305187 1 0.77192674775928727 1 0.81852530682392577 1 0.86420775305142672 1 0.90892808528666658 1 0.95264317777346608 1 0.99531134174025393 1 1.0368939700640054 1 1.0773557417463686 1 1.116662773307848 1 1.1547852880075706 1 1.1916951447297388 1 1.2273685245109058 1 1.2617834644857271 1 1.294921496001378 1 1.3267673915857454 1 1.3573090321263417 1 1.3865375969774889 1 1.4144467388147575 1 1.4410340096283087 1 1.466300490644844 1 1.4902493645590902 1 1.5128879861059099 1 1.5342267237753493 1 1.5542787916698024 1 1.5730605846153536 1 1.5905919276923144 1 1.6068953093138194 1 1.6219963325249214 1 1.6359236787358136 1 1.6487086291371975 1 1.6603852807905808 1 1.6709904934495063 1 1.6805638058166352 1 1.6891468639548493 1 1.6967843165942602 1 1.7035226062561084 1 1.7094105258435246 1 1.7144988406960988 1 1.7188402656589044 1 1.7224893473885767 1 1.7255023123549993 1 1.7279366752919478 1 1.7298516459005373 1 1.7313072091555275 1 1.7332326535638853 1 1.7361720434308583 1 1.7403283069089119 1 1.7458970869174884 1 1.7530651790649938 1 1.7620090400998372 1 1.7728959674662401 1 1.7858793010058651 1 1.8010998102296378 1 1.8186844829958586 1 1.8387455568741962 1 1.861374332320191 1 1.8866619767788084 1 1.9146672196530752 1 1.9454209293258879 1 1.978984989487337 1 2.0153554789561974 1 2.0545116812732225 1 2.0964610230552463 1 2.1411099817553398 1 2.1884766821819475 1 2.2384115091163568 1 2.2908925915149245 1 2.3457862998779961 1 2.4029100995439019 1 2.4622390356347217 1 2.523541394081763 1 2.5866400452970106 1 2.6514580872359512 1 2.7177679107028836 1 2.785321469593379 1 2.8539704431259159 1 2.9235189782350246 1 2.993735948715937 1 3.0643925339272657 1 3.1352706137339186 1 3.2061502046856201 1 3.2768096862894485 1 3.3470265517056981 1 3.4165806048471343 1 3.4852584176013912 1 3.5528534420004778 1 3.6191635967545648 1 3.6839934383882773 1 3.7471600586241758 1 3.8084890017220441 1 3.8678178909021255 1 3.9249973437379051 1 3.9798907928744365 1 4.0323769952323909 1 4.0823482103170399 1 4.1297145846468828 1 4.1744013386033378 1 4.2163507507167797 1 4.2555221042473717 1 4.2918926591433975 1 4.3254568329637832 1 4.3562267971128694 1 4.3842323361790072 1 4.4095198914108789 1 4.4321539644710546 1 4.4522147680738442 1 4.4697993603590289 1 4.4850202272616162 1 4.4980032360837994 1 4.5088903312989617 1 4.5178348774942609 1 4.5250031507143289 1 4.5305718555308747 1 4.5347278754917379 1 4.5376674403550377 1 4.5395928112453827 1 4.5418204446085877 1 4.5451055159829377 1 4.5496441912496461 1 4.5556242384530456 1 4.5632277888379793 1 4.5726284162635542 1 4.5839894638731566 1 4.5974652920227266 1 4.6131982934317861 1 4.6313205701656752 1 4.6519503528669626 1 4.6751945479208512 1 4.7011451208770536 1 4.7298807915139109 1 4.7614650909171958 1 4.7959479881604379 1 4.83336289440272 1 4.8737294843909158 1 4.9170509385700321 1 4.9633158347785677 1 5.0124971579315778 1 5.06455250545417 1 5.1194247842407989 1 5.1770419281116373 1 5.2373177055372135 1 5.3001529756634529 1 5.3654338074341537 1 5.4330341751084186 1 5.5028155337460367 1 5.5746294228629534 1 5.6483145187258712 1 5.7237020441505875 1 5.8006128196926792 1 5.8788603387552429 1 5.958251113928454 1 6.0385852818295307 1 6.1196584508476137 1 6.2012621467938365 1 6.2831853071795898 4
1 0 0 -70.829627990999995 0 0 1 -0 -1 -0 -1 0 0 
2 0 0 3.1341554278083978 -0 -0 -1 0 1 -0 -1 0 -0 183.27378845199999
1 0 0 0 1 0 0 -0 1 0 0 -0 1 
7 0 0 0 0 0 1 
8 1.3276015302415349 4.7888252087731091
7 0 0  14 195 17  0 98.998039242121152 -120.14836951438946  0 98.99812945472641 -118.0998925637673  0 98.998193942276643 -116.05141378523916  0 98.998080199228454 -114.00075176109142  0 98.999022333045843 -111.96839051351836  0 98.99632954070276 -109.86267255250253  0 99.001241869431141 -107.94245024880472  0 98.994287246559153 -105.69248983447891  0 99.001172970492746 -103.87563672090776  0 98.996001006768836 -101.62999144345497  0 98.99775441148725 -99.70354635664259  0 98.997760661808954 -97.603754688830833  0 98.997297079413471 -95.568103533431909  0 98.997580187145928 -93.0393384288313  0 98.997841657411414 -90.51149075167082  0 98.997886416833666 -90.031973950887974  0 98.997952044504302 -89.552552988253851  0 98.998045102455151 -89.073175310635307  0 98.998150096199467 -88.593708088821373  0 98.998246078193944 -88.114072584271028  0 98.998323860812533 -87.634329337870298  0 98.998392565188951 -87.154650869521888  0 98.998471806824568 -86.675186470038767  0 98.998573472487024 -86.195891787447039  0 98.998684599643909 -85.716463784473149  0 98.998866639691968 -84.699821996635762  0 98.998907724297666 -83.6834998781395  0 98.998899048495488 -83.147393147396826  0 98.998900430825401 -82.608896484961036  0 98.99884398251767 -82.077071322002197  0 98.999001867697586 -81.537494444113335  0 98.998916442015471 -80.996985046505955  0 98.998464618075232 -80.464972822175511  0 98.998335048385798 -79.929719928370503  0 98.998499217559171 -79.388163750404289  0 98.998065275714296 -78.855726200398266  0 98.997699057354225 -78.315661337785443  0 98.997179154365298 -77.497138279065453  0 98.996920828196721 -76.677633716943873  0 98.996863460668365 -76.394076967505995  0 98.996812424061048 -76.110122877463297  0 98.996743821964614 -75.825721647806503  0 98.996651498946079 -75.541308587300108  0 98.996551293206636 -75.257408731127242  0 98.996475567173235 -74.974236587223388  0 98.996460987748904 -74.691550873783569  0 98.996533940010011 -74.408842520683478  0 98.996698930342859 -74.125752249357419  0 98.996936725886442 -73.842432444641702  0 98.997307772682376 -73.471724853275816  0 98.997768784121902 -73.100664574254068  0 98.997882328748105 -73.012899880127861  0 98.997999897456864 -72.925115093613883  0 98.998120993631858 -72.837310297870332  0 98.998245100667262 -72.749485664404119  0 98.998371732895919 -72.661641443778763  0 98.998500363686077 -72.573777852164511  0 98.998630508968049 -72.485895089621764  0 98.9987616468986 -72.39799321977199  0 98.998893282592988 -72.31007217168586  0 98.999024905123903 -72.222131651642727  0 98.999402838029482 -71.968571608849672  0 98.999772272284218 -71.714837993010221  0 99.000003070842823 -71.547776650777863  0 99.000238572107733 -71.389682137123373  0 99.000443595393676 -71.202522874404139  0 99.000575055649009 -71.067975363106186  0 99.000872621739205 -70.881017516162984  0 99.000970195011547 -70.704756894582403  0 99.000915657206235 -70.57310305650013  0 99.001191275188802 -70.372157098392051  0 99.0012285138517 -70.229051501114739  0 99.0014095491983 -70.056173764798643  0 99.001710754289419 -69.816872952808822  0 99.002156069484514 -69.57513733809111  0 99.002306998801927 -69.4975433903397  0 99.002462726803586 -69.420407166252033  0 99.002615820860271 -69.342550855743752  0 99.002760471397025 -69.263869511946154  0 99.002892613718288 -69.185414141480322  0 99.00300689715165 -69.107451773914732  0 99.003095763387392 -69.028888481062623  0 99.003152247864961 -68.94904431986474  0 99.003172486737981 -68.869259318131128  0 99.003152412641114 -68.790782332123072  0 99.003012738171336 -68.633735002824579  0 99.002665816217288 -68.477612718746187  0 99.002451606492926 -68.401467025427564  0 99.0021994738469 -68.325763307659315  0 99.001913633392491 -68.250318093872863  0 99.001597876485562 -68.174875081461153  0 99.001257576533661 -68.09950093045714  0 99.000899202490004 -68.02449421696501  0 99.000528387526217 -67.949993307864489  0 99.000148687741671 -67.875735457795173  0 98.999762950711187 -67.801324319488643  0 98.999376685196836 -67.726905818979802  0 98.998296996525056 -67.516639685057072  0 98.997288582364675 -67.306061686331347  0 98.996669890892534 -67.17031755354401  0 98.995993367618226 -67.025345671843894  0 98.995549566667989 -66.909332122697663  0 98.994792517350419 -66.740565695268117  0 98.994249818631104 -66.623445109288951  0 98.993766572013925 -66.496239941239452  0 98.99307826071184 -66.324252467748607  0 98.992576433810896 -66.219894562553947  0 98.991779863259623 -66.059219972002978  0 98.991039892972992 -65.926971182687922  0 98.989302970489234 -65.65734693372643  0 98.98709552670087 -65.390714449147424  0 98.985941442701019 -65.264671815084057  0 98.985006224939539 -65.145072786477172  0 98.982850376158979 -64.995838444488044  0 98.983956536851494 -64.946709691828275  0 98.978974448852981 -64.675240112064202  0 98.982002364747331 -64.756140776018583  0 98.977931827973066 -64.449448443283472  0 98.978430515172832 -64.439540882784613  0 98.976796538587337 -64.267783243385267  0 98.975836433873383 -64.156217568853094  0 98.974151394994507 -63.971670771901465  0 98.97236979713233 -63.789780178581829  0 98.971806679786098 -63.733151955334307  0 98.971237990713661 -63.67600062686887  0 98.970676417445844 -63.619636961960502  0 98.970126994663204 -63.564177735784014  0 98.969586519160416 -63.508453266501895  0 98.969057257568195 -63.4521663577504  0 98.9685510172162 -63.39653442826576  0 98.968076614894315 -63.342314171123924  0 98.967628519056632 -63.288014252915382  0 98.967201775163389 -63.232244805585822  0 98.966132441995313 -63.080779772962721  0 98.965352592912311 -62.927062348684721  0 98.964975380282482 -62.827320889816136  0 98.964406436504106 -62.72164310095657  0 98.964994546041027 -62.643591208337078  0 98.962675658313202 -62.465572759296002  0 98.965539487241088 -62.516253803631798  0 98.96205495300741 -62.198041650765596  0 98.963626949790395 -62.284858908050531  0 98.962307857423113 -62.06639992437205  0 98.962147329425207 -62.010200882867736  0 98.961678377745685 -61.895691246001071  0 98.95763592091744 -60.831656770265283  0 98.957840356140451 -59.65031091827516  0 98.435696671818008 -60.100684414080845  0 102.07349863799844 -53.744031462913576  0 90.069868805300544 -62.202101442471644  0 115.14105821008742 -56.348209402037746  0 79.592306201439015 -42.240125559998383  0 115.05961791059309 -75.707861582169613  0 90.74303940895058 -34.673259674058912  0 102.01854759698305 -60.192268046723669  0 98.895063358521625 -50.578183215443936  0 99.606484891041049 -49.937011744222424  0 99.713432481711962 -48.881825073072065  0 100.21885062236056 -46.665409054954353  0 102.08349026808582 -41.353015380538373  0 92.436283352444917 -59.558705011474004  0 119.06993685126048 -23.02764432299519  0 77.34866963637802 -51.619708838971974  0 119.88596521806969 -60.708103390013328  0 95.49847050322235 -3.9662790533369496  0 100.49421121369274 -72.154675624709796  0 104.63720427319051 -25.98150777352242  0 102.90478841862539 -40.372514603285808  0 103.25238302852527 -38.053320187887913  0 105.0110978204447 -35.290335503420266  0 106.54936701748119 -32.932016946716288  0 108.68640987923278 -30.643991842245768  0 101.97331066990689 -35.851061335189968  0 127.17519256974791 -18.251599776238262  0 89.849314792794289 -37.207046619265462  0 129.9807613507779 -23.587391817348397  0 106.57709113007279 -24.038487785512356  0 119.29356994886842 -26.608400280366066  0 117.57478470198994 -22.695217129381643  0 120.04682793405743 -22.939301833819563  0 121.84674105888313 -21.842625040430711  0 131.02690911470279 -17.537775724519282  0 140.68477124742637 -13.837548944744491  0 147.83146169598544 -11.4881007767324  0 158.28365861750527 -8.9224093407808613  0 161.6275208053994 -6.6564048984409325  0 175.56733510846513 -2.0363481994477168  0 177.14222148842842 -5.4494524472996311  0 191.1214783173952 3.7763737330963503  0 195.0026343280683 0.89897945869256513  0 205.03025425753179 5.6993076132102054  0 212.46436155035394 7.2600094734393865  0 220.58091949607129 9.6643894503861887  0 228.61155931048899 11.966256837311269  0 236.64186730691191 14.269280898705198 
 0 15 0.77192674775928727 12 0.95264317777346608 12 1.1547852880075706 12 1.2617834644857271 12 1.294921496001378 12 1.3573090321263417 12 1.3865375969774889 12 1.4144467388147575 12 1.466300490644844 12 1.5128879861059099 12 1.5342267237753493 12 1.5730605846153536 12 1.9454209293258879 12 2.3457862998779961 12 3.1352706137339186 12 6.2831853071795898 15
Triangulations 0

TShapes 22
Ve
1e-007
0 95.0008023885809 -70.829627991
0 0

0101101
*
Ed
 1e-007 1 1 0
1  1 0 0 6.28318530717959
2  1 1 0 0 6.28318530717959
2  2 2 0 0 6.28318530717959
0

0101100
+22 0 -22 0 *
Ve
1e-007
0 183.273788452 3.1341554278084
0 0

0101101
*
Ed
 1e-007 1 1 0
1  2 0 0 6.28318530717959
2  3 1 0 0 6.28318530717959
2  4 3 0 0 6.28318530717959
0

0101100
+20 0 -20 0 *
Ed
 1e-007 1 1 0
2  5 4 0 1.32750853831809 4.8197133144497
1  3 0 1.32750853831809 4.8197133144497
3  6 7C2 1 0 1.32750853831809 4.8197133144497
0

0101000
+22 0 -20 0 *
Wi

0101000
+21 0 -19 0 -18 0 +18 0 *
Fa
0  1e-007 1 0

0101000
+17 0 *
Wi

0101000
+21 0 *
Ve
1e-007
0 99.0008036272114 -70.829627991
0 0

0101101
*
Ed
 1e-007 1 1 0
1  4 0 0 6.28318530717959
2  8 2 0 0 6.28318530717959
2  9 5 0 0 6.28318530717959
0

0101100
+14 0 -14 0 *
Wi

0101000
-13 0 *
Fa
0  1e-007 2 0

0101000
+15 0 +12 0 *
Ve
1e-007
0 183.273788452 -1.02830030260741
0 0

0101101
*
Ed
 1e-007 1 1 0
1  5 0 0 6.28318530717959
2  10 5 0 0 6.28318530717959
2  11 3 0 0 6.28318530717959
0

0101100
+10 0 -10 0 *
Ed
 1e-007 1 1 0
2  12 4 0 1.32760153024153 4.78882520877311
1  6 0 1.32760153024153 4.78882520877311
3  13 14C2 5 0 1.32760153024153 4.78882520877311
0

0101000
+14 0 -10 0 *
Wi

0101000
+13 0 -9 0 -8 0 +8 0 *
Fa
0  1e-007 5 0

0101000
+7 0 *
Ed
 1e-007 1 1 0
1  7 0 0 4.16245573041581
3  15 16CN 3 0 0 4.16245573041581
0

0101000
+20 0 -10 0 *
Wi

0101000
+19 0 -9 0 -5 0 +5 0 *
Fa
0  1e-007 3 0

0101000
+4 0 *
Sh

0101000
-16 0 +11 0 +6 0 -3 0 *
So

1100000
+2 0 *

+1 0 