DBRep_DrawableShape

CASCADE Topology V1, (c) Matra-Datavision
Locations 7
1
              1               0               0         -799.25 
              0               1               0            1275 
              0               0               1             150 
1
              1               0               0               0 
              0               1               0               0 
              0               0               1          148.75 
1
              1               0               0          -799.5 
              0               1               0            1275 
              0               0               1             150 
1
              1               0               0         -798.75 
              0               1               0            1275 
              0               0               1             150 
1
              1               0               0         -401.25 
              0               1               0            1275 
              0               0               1             150 
1
              1               0               0         -400.75 
              0               1               0            1275 
              0               0               1             150 
1
              1               0               0          -400.5 
              0               1               0            1275 
              0               0               1             150 
Curve2ds 88
8 -600000 600000
1 0 612.5 -1 0 
8 -600000 600000
1 -5 0 0 -1 
1 1187.5 -7.5 -1 0 
8 -60 60
1 0 -799.25 -1 0 
8 -60 60
1 0 662.5 -1 0 
1 388.25 -12.5 0 1 
8 -600000 600000
1 -1.25 0 0 1 
8 -600000 600000
1 0 612.5 1 0 
1 1187.5 -11.25 1 0 
8 -60 60
1 0 -799.5 -1 0 
8 -60 60
1 0 662.5 -1 0 
1 388 -12.5 0 1 
8 -191.25 1466.25
1 -799.5 637.5 0 1 
8 -191.25 1466.25
1 -5 637.5 0 -1 
8 -191.25 1466.25
1 -799.25 637.5 0 1 
8 -191.25 1466.25
1 -5 637.5 0 -1 
8 -600000 600000
1 0 607.5 -1 0 
8 -600000 600000
1 -5 0 0 -1 
8 -60 60
1 0 -799.25 -1 0 
8 -60 60
1 0 667.5 -1 0 
8 -191.25 1466.25
1 -799.25 637.5 0 1 
8 -191.25 1466.25
1 -1.25 637.5 0 -1 
8 -191.25 1466.25
1 -799.5 637.5 0 1 
8 -191.25 1466.25
1 -1.25 637.5 0 -1 
8 -600000 600000
1 -1.25 0 0 1 
8 -600000 600000
1 0 607.5 1 0 
8 -60 60
1 0 -799.5 -1 0 
8 -60 60
1 0 667.5 -1 0 
8 -60 60
1 0 -799.25 -1 0 
8 -60 60
1 0 670 -1 0 
8 -600000 600000
1 0 605 -1 0 
8 -600000 600000
1 -5 0 0 -1 
8 -191.25 1466.25
1 -798.75 637.5 0 1 
8 -191.25 1466.25
1 -5 637.5 0 -1 
8 -60 60
1 0 -798.75 -1 0 
8 -60 60
1 0 670 -1 0 
8 -600000 600000
1 -1.25 0 0 1 
8 -600000 600000
1 0 605 1 0 
8 -191.25 1466.25
1 -798.75 637.5 0 1 
8 -191.25 1466.25
1 -1.25 637.5 0 -1 
8 -60 60
1 0 -798.75 -1 0 
8 -60 60
1 0 667.5 -1 0 
8 -60 60
1 0 -798.75 -1 0 
8 -60 60
1 0 680 -1 0 
8 -600000 600000
1 0 595 -1 0 
8 -600000 600000
1 -5 0 0 -1 
8 -191.25 1466.25
1 -401.25 637.5 0 1 
8 -191.25 1466.25
1 -5 637.5 0 -1 
8 -60 60
1 0 -401.25 -1 0 
8 -60 60
1 0 680 -1 0 
8 -600000 600000
1 -1.25 0 0 1 
8 -600000 600000
1 0 595 1 0 
8 -191.25 1466.25
1 -401.25 637.5 0 1 
8 -191.25 1466.25
1 -1.25 637.5 0 -1 
8 -60 60
1 0 -401.25 -1 0 
8 -60 60
1 0 670 -1 0 
8 -60 60
1 0 -400.75 -1 0 
8 -60 60
1 0 680 -1 0 
8 -191.25 1466.25
1 -400.75 637.5 0 1 
8 -191.25 1466.25
1 -5 637.5 0 -1 
8 -60 60
1 0 -400.75 -1 0 
8 -60 60
1 0 682.5 -1 0 
8 -191.25 1466.25
1 -400.75 637.5 0 1 
8 -191.25 1466.25
1 -1.25 637.5 0 -1 
8 -600000 600000
1 -1.25 0 0 1 
8 -600000 600000
1 0 592.5 1 0 
8 -60 60
1 0 -401.25 -1 0 
8 -60 60
1 0 682.5 -1 0 
8 -600000 600000
1 0 592.5 -1 0 
8 -600000 600000
1 -5 0 0 -1 
8 -60 60
1 0 -400.75 -1 0 
8 -60 60
1 0 687.5 -1 0 
1 811.75 -12.5 0 1 
8 -600000 600000
1 0 587.5 -1 0 
8 -600000 600000
1 -5 0 0 -1 
1 1212.5 -7.5 -1 0 
8 -191.25 1466.25
1 -400.5 637.5 0 1 
8 -191.25 1466.25
1 -5 637.5 0 -1 
8 -60 60
1 0 -400.5 -1 0 
8 -60 60
1 0 687.5 -1 0 
1 812 -12.5 0 1 
8 -600000 600000
1 -1.25 0 0 1 
8 -600000 600000
1 0 587.5 1 0 
1 1212.5 -11.25 1 0 
8 -191.25 1466.25
1 -400.5 637.5 0 1 
8 -191.25 1466.25
1 -1.25 637.5 0 -1 
8 -60 60
1 0 -400.5 -1 0 
8 -60 60
1 0 682.5 -1 0 
Curves 40
1 0 612.5 145 -1 0 0 
1 -799.25 612.5 150 0 0 -1 
1 0 612.5 148.75 1 0 0 
1 -799.5 612.5 150 0 0 -1 
1 -799.5 637.5 145 0 1 0 
1 -799.25 637.5 145 0 1 0 
1 0 607.5 145 -1 0 0 
1 -799.25 607.5 150 0 0 -1 
1 -799.25 637.5 148.75 0 1 0 
1 -799.5 637.5 148.75 0 1 0 
1 0 607.5 148.75 1 0 0 
1 -799.5 607.5 150 0 0 -1 
1 -799.25 605 150 0 0 -1 
1 0 605 145 -1 0 0 
1 -798.75 637.5 145 0 1 0 
1 -798.75 605 150 0 0 -1 
1 0 605 148.75 1 0 0 
1 -798.75 637.5 148.75 0 1 0 
1 -798.75 607.5 150 0 0 -1 
1 -798.75 595 150 0 0 -1 
1 0 595 145 -1 0 0 
1 -401.25 637.5 145 0 1 0 
1 -401.25 595 150 0 0 -1 
1 0 595 148.75 1 0 0 
1 -401.25 637.5 148.75 0 1 0 
1 -401.25 605 150 0 0 -1 
1 -400.75 595 150 0 0 -1 
1 -400.75 637.5 145 0 1 0 
1 -400.75 592.5 150 0 0 -1 
1 -400.75 637.5 148.75 0 1 0 
1 0 592.5 148.75 1 0 0 
1 -401.25 592.5 150 0 0 -1 
1 0 592.5 145 -1 0 0 
1 -400.75 587.5 150 0 0 -1 
1 0 587.5 145 -1 0 0 
1 -400.5 637.5 145 0 1 0 
1 -400.5 587.5 150 0 0 -1 
1 0 587.5 148.75 1 0 0 
1 -400.5 637.5 148.75 0 1 0 
1 -400.5 592.5 150 0 0 -1 
Polygon3D 0
PolygonOnTriangulations 0
Surfaces 11
1 -1187.5 612.5 137.5 0 1 0 1 0 0 0 0 -1 
1 0 0 145 0 0 1 1 0 -0 -0 1 0 
1 0 612.5 150 0 1 0 0 -0 1 1 0 -0 
1 0 0 0 1 0 0 -0 0 1 0 -1 0 
1 0 0 0 0 0 1 1 0 -0 -0 1 0 
1 0 607.5 150 0 1 0 0 -0 1 1 0 -0 
1 0 605 150 0 1 0 0 -0 1 1 0 -0 
1 0 595 150 0 1 0 0 -0 1 1 0 -0 
1 0 592.5 150 0 1 0 0 -0 1 1 0 -0 
1 0 587.5 150 0 1 0 0 -0 1 1 0 -0 
1 -1212.5 587.5 137.5 0 1 0 1 0 0 0 0 -1 
Triangulations 0

TShapes 159
Ve
1e-007
-799.25 612.5 145
0 0

0101101
*
Ve
1e-007
-799.5 612.5 145
0 0

0101101
*
Ed
 1e-007 1 1 0
1  1 0 799.25 799.5
2  1 2 0 799.25 799.5
2  2 3 0 799.25 799.5
2  3 1 0 799.25 799.5
0

0101000
+159 0 -158 0 *
Ve
1e-007
-799.25 612.5 148.75
0 0

0101101
*
Ed
 1e-007 1 1 0
1  2 0 1.25 5
2  4 3 0 1.25 5
2  5 4 1 1.25 5
2  6 1 0 1.25 5
0

0101000
+156 0 -159 0 *
Ve
1e-007
-799.5 612.5 148.75
0 0

0101101
*
Ed
 1e-007 1 1 0
1  3 0 -799.5 -799.25
2  7 3 0 -799.5 -799.25
2  8 5 2 -799.5 -799.25
2  9 1 0 -799.5 -799.25
0

0101000
+154 0 -156 0 *
Ed
 1e-007 1 1 0
1  4 0 1.25 5
2  10 3 0 1.25 5
2  11 4 3 1.25 5
2  12 1 0 1.25 5
0

0101000
+154 0 -158 0 *
Wi

0101000
+157 0 +155 0 +153 0 -152 0 *
Fa
0  1e-007 1 0

0111000
+151 0 *
Ve
1e-007
-799.5 607.5 145
0 0

0101101
*
Ed
 1e-007 1 1 0
1  5 0 -30 -25
2  13 2 0 -30 -25
2  14 4 3 -30 -25
0

0101000
+149 0 -158 0 *
Ve
1e-007
-799.25 607.5 145
0 0

0101101
*
Ed
 1e-007 1 1 0
1  6 0 -30 -25
2  15 2 0 -30 -25
2  16 4 1 -30 -25
0

0101000
+147 0 -159 0 *
Ed
 1e-007 1 1 0
1  7 0 799.25 799.5
2  17 2 0 799.25 799.5
2  18 6 0 799.25 799.5
0

0101000
+147 0 -149 0 *
Wi

0101000
-148 0 +157 0 +146 0 -145 0 *
Fa
0  1e-007 2 0

0111000
+144 0 *
Ve
1e-007
-799.25 607.5 148.75
0 0

0101101
*
Ed
 1e-007 1 1 0
1  8 0 1.25 5
2  19 6 0 1.25 5
2  20 4 1 1.25 5
0

0101000
+142 0 -147 0 *
Ed
 1e-007 1 1 0
1  9 0 -30 -25
2  21 5 2 -30 -25
2  22 4 1 -30 -25
0

0101000
+142 0 -156 0 *
Wi

0101000
+146 0 +141 0 -140 0 -155 0 *
Fa
0  1e-007 4 1

0111000
+139 0 *
Ve
1e-007
-799.5 607.5 148.75
0 0

0101101
*
Ed
 1e-007 1 1 0
1  10 0 -30 -25
2  23 5 2 -30 -25
2  24 4 3 -30 -25
0

0101000
+137 0 -154 0 *
Ed
 1e-007 1 1 0
1  11 0 -799.5 -799.25
2  25 6 0 -799.5 -799.25
2  26 5 2 -799.5 -799.25
0

0101000
+137 0 -142 0 *
Wi

0101000
-136 0 -153 0 +140 0 +135 0 *
Fa
0  1e-007 5 2

0111000
+134 0 *
Ed
 1e-007 1 1 0
1  12 0 1.25 5
2  27 6 0 1.25 5
2  28 4 3 1.25 5
0

0101000
+137 0 -149 0 *
Wi

0101000
+148 0 +132 0 -136 0 -152 0 *
Fa
0  1e-007 4 3

0111000
+131 0 *
Wi

0101000
+141 0 +135 0 -132 0 +145 0 *
Fa
0  1e-007 6 0

0111000
+129 0 *
Sh

0101100
+150 0 -143 0 +138 0 +133 0 -130 0 -128 0 *
So

0100000
+127 0 *
Ve
1e-007
-799.25 605 145
0 0

0101101
*
Ed
 1e-007 1 1 0
1  6 0 -32.5 -30
2  15 2 0 -32.5 -30
2  16 4 1 -32.5 -30
0

0101000
+125 0 -147 0 *
Ve
1e-007
-799.25 605 148.75
0 0

0101101
*
Ed
 1e-007 1 1 0
1  13 0 1.25 5
2  29 7 0 1.25 5
2  30 4 1 1.25 5
0

0101000
+123 0 -125 0 *
Ed
 1e-007 1 1 0
1  9 0 -32.5 -30
2  21 5 2 -32.5 -30
2  22 4 1 -32.5 -30
0

0101000
+123 0 -142 0 *
Wi

0101000
-124 0 -122 0 +121 0 +141 0 *
Fa
0  1e-007 4 1

0111000
-120 0 *
Ve
1e-007
-798.75 605 145
0 0

0101101
*
Ed
 1e-007 1 1 0
1  14 0 798.75 799.25
2  31 2 0 798.75 799.25
2  32 7 0 798.75 799.25
0

0101000
+118 0 -125 0 *
Ve
1e-007
-798.75 607.5 145
0 0

0101101
*
Ed
 1e-007 1 1 0
1  7 0 798.75 799.25
2  17 2 0 798.75 799.25
2  18 6 0 798.75 799.25
0

0101000
+116 0 -147 0 *
Ed
 1e-007 1 1 0
1  15 0 -32.5 -30
2  33 2 0 -32.5 -30
2  34 4 4 -32.5 -30
0

0101000
+118 0 -116 0 *
Wi

0101000
-117 0 -124 0 +115 0 +114 0 *
Fa
0  1e-007 2 0

0111000
+113 0 *
Ve
1e-007
-798.75 605 148.75
0 0

0101101
*
Ed
 1e-007 1 1 0
1  16 0 1.25 5
2  35 7 0 1.25 5
2  36 4 4 1.25 5
0

0101000
+111 0 -118 0 *
Ed
 1e-007 1 1 0
1  17 0 -799.25 -798.75
2  37 7 0 -799.25 -798.75
2  38 5 2 -799.25 -798.75
0

0101000
+123 0 -111 0 *
Wi

0101000
-110 0 -109 0 +122 0 -117 0 *
Fa
0  1e-007 7 0

0111000
-108 0 *
Ve
1e-007
-798.75 607.5 148.75
0 0

0101101
*
Ed
 1e-007 1 1 0
1  11 0 -799.25 -798.75
2  25 6 0 -799.25 -798.75
2  26 5 2 -799.25 -798.75
0

0101000
+142 0 -106 0 *
Ed
 1e-007 1 1 0
1  18 0 -32.5 -30
2  39 5 2 -32.5 -30
2  40 4 4 -32.5 -30
0

0101000
+111 0 -106 0 *
Wi

0101000
+109 0 -121 0 -105 0 +104 0 *
Fa
0  1e-007 5 2

0111000
+103 0 *
Ed
 1e-007 1 1 0
1  19 0 1.25 5
2  41 6 0 1.25 5
2  42 4 4 1.25 5
0

0101000
+106 0 -116 0 *
Wi

0101000
+101 0 +105 0 -141 0 +115 0 *
Fa
0  1e-007 6 0

0111000
+100 0 *
Wi

0101000
-114 0 -110 0 +104 0 +101 0 *
Fa
0  1e-007 4 4

0111000
-98 0 *
Sh

0101100
-119 0 -112 0 -107 0 +102 0 +99 0 +97 0 *
So

0100000
+96 0 *
Ve
1e-007
-798.75 595 145
0 0

0101101
*
Ed
 1e-007 1 1 0
1  15 0 -42.5 -32.5
2  33 2 0 -42.5 -32.5
2  34 4 4 -42.5 -32.5
0

0101000
+94 0 -118 0 *
Ve
1e-007
-798.75 595 148.75
0 0

0101101
*
Ed
 1e-007 1 1 0
1  20 0 1.25 5
2  43 8 0 1.25 5
2  44 4 4 1.25 5
0

0101000
+92 0 -94 0 *
Ed
 1e-007 1 1 0
1  18 0 -42.5 -32.5
2  39 5 2 -42.5 -32.5
2  40 4 4 -42.5 -32.5
0

0101000
+92 0 -111 0 *
Wi

0101000
-93 0 -91 0 +90 0 +110 0 *
Fa
0  1e-007 4 4

0111000
-89 0 *
Ve
1e-007
-401.25 595 145
0 0

0101101
*
Ed
 1e-007 1 1 0
1  21 0 401.25 798.75
2  45 2 0 401.25 798.75
2  46 8 0 401.25 798.75
0

0101000
+87 0 -94 0 *
Ve
1e-007
-401.25 605 145
0 0

0101101
*
Ed
 1e-007 1 1 0
1  14 0 401.25 798.75
2  31 2 0 401.25 798.75
2  32 7 0 401.25 798.75
0

0101000
+85 0 -118 0 *
Ed
 1e-007 1 1 0
1  22 0 -42.5 -32.5
2  47 2 0 -42.5 -32.5
2  48 4 5 -42.5 -32.5
0

0101000
+87 0 -85 0 *
Wi

0101000
-86 0 -93 0 +84 0 +83 0 *
Fa
0  1e-007 2 0

0111000
+82 0 *
Ve
1e-007
-401.25 595 148.75
0 0

0101101
*
Ed
 1e-007 1 1 0
1  23 0 1.25 5
2  49 8 0 1.25 5
2  50 4 5 1.25 5
0

0101000
+80 0 -87 0 *
Ed
 1e-007 1 1 0
1  24 0 -798.75 -401.25
2  51 8 0 -798.75 -401.25
2  52 5 2 -798.75 -401.25
0

0101000
+92 0 -80 0 *
Wi

0101000
-79 0 -78 0 +91 0 -86 0 *
Fa
0  1e-007 8 0

0111000
-77 0 *
Ve
1e-007
-401.25 605 148.75
0 0

0101101
*
Ed
 1e-007 1 1 0
1  17 0 -798.75 -401.25
2  37 7 0 -798.75 -401.25
2  38 5 2 -798.75 -401.25
0

0101000
+111 0 -75 0 *
Ed
 1e-007 1 1 0
1  25 0 -42.5 -32.5
2  53 5 2 -42.5 -32.5
2  54 4 5 -42.5 -32.5
0

0101000
+80 0 -75 0 *
Wi

0101000
+78 0 -90 0 -74 0 +73 0 *
Fa
0  1e-007 5 2

0111000
+72 0 *
Ed
 1e-007 1 1 0
1  26 0 1.25 5
2  55 7 0 1.25 5
2  56 4 5 1.25 5
0

0101000
+75 0 -85 0 *
Wi

0101000
-70 0 -74 0 +110 0 -84 0 *
Fa
0  1e-007 7 0

0111000
-69 0 *
Wi

0101000
-83 0 -79 0 +73 0 +70 0 *
Fa
0  1e-007 4 5

0111000
-67 0 *
Sh

0101100
-88 0 -81 0 -76 0 +71 0 +68 0 +66 0 *
So

0100000
+65 0 *
Ve
1e-007
-400.75 595 148.75
0 0

0101101
*
Ve
1e-007
-400.75 595 145
0 0

0101101
*
Ed
 1e-007 1 1 0
1  27 0 1.25 5
2  57 8 0 1.25 5
2  58 4 6 1.25 5
0

0101000
+63 0 -62 0 *
Ed
 1e-007 1 1 0
1  24 0 -401.25 -400.75
2  51 8 0 -401.25 -400.75
2  52 5 2 -401.25 -400.75
0

0101000
+80 0 -63 0 *
Ed
 1e-007 1 1 0
1  21 0 400.75 401.25
2  45 2 0 400.75 401.25
2  46 8 0 400.75 401.25
0

0101000
+62 0 -87 0 *
Wi

0101000
-61 0 -60 0 +79 0 -59 0 *
Fa
0  1e-007 8 0

0111000
-58 0 *
Ve
1e-007
-400.75 592.5 145
0 0

0101101
*
Ed
 1e-007 1 1 0
1  28 0 -45 -42.5
2  59 2 0 -45 -42.5
2  60 4 6 -45 -42.5
0

0101000
+56 0 -62 0 *
Ve
1e-007
-400.75 592.5 148.75
0 0

0101101
*
Ed
 1e-007 1 1 0
1  29 0 1.25 5
2  61 9 0 1.25 5
2  62 4 6 1.25 5
0

0101000
+54 0 -56 0 *
Ed
 1e-007 1 1 0
1  30 0 -45 -42.5
2  63 5 2 -45 -42.5
2  64 4 6 -45 -42.5
0

0101000
+54 0 -63 0 *
Wi

0101000
-55 0 -53 0 +52 0 +61 0 *
Fa
0  1e-007 4 6

0111000
-51 0 *
Ve
1e-007
-401.25 592.5 148.75
0 0

0101101
*
Ed
 1e-007 1 1 0
1  31 0 -401.25 -400.75
2  65 9 0 -401.25 -400.75
2  66 5 2 -401.25 -400.75
0

0101000
+49 0 -54 0 *
Ed
 1e-007 1 1 0
1  25 0 -45 -42.5
2  53 5 2 -45 -42.5
2  54 4 5 -45 -42.5
0

0101000
+49 0 -80 0 *
Wi

0101000
+48 0 -47 0 -60 0 +52 0 *
Fa
0  1e-007 5 2

0111000
+46 0 *
Ve
1e-007
-401.25 592.5 145
0 0

0101101
*
Ed
 1e-007 1 1 0
1  22 0 -45 -42.5
2  47 2 0 -45 -42.5
2  48 4 5 -45 -42.5
0

0101000
+44 0 -87 0 *
Ed
 1e-007 1 1 0
1  32 0 1.25 5
2  67 9 0 1.25 5
2  68 4 5 1.25 5
0

0101000
+49 0 -44 0 *
Wi

0101000
-43 0 -42 0 +47 0 +79 0 *
Fa
0  1e-007 4 5

0111000
-41 0 *
Ed
 1e-007 1 1 0
1  33 0 400.75 401.25
2  69 2 0 400.75 401.25
2  70 9 0 400.75 401.25
0

0101000
+56 0 -44 0 *
Wi

0101000
-39 0 -43 0 +59 0 +55 0 *
Fa
0  1e-007 2 0

0111000
+38 0 *
Wi

0101000
+53 0 +48 0 -42 0 +39 0 *
Fa
0  1e-007 9 0

0111000
+36 0 *
Sh

0101100
+57 0 +50 0 +45 0 -40 0 -37 0 -35 0 *
So

0100000
+34 0 *
Ve
1e-007
-400.75 587.5 145
0 0

0101101
*
Ed
 1e-007 1 1 0
1  28 0 -50 -45
2  59 2 0 -50 -45
2  60 4 6 -50 -45
0

0101000
+32 0 -56 0 *
Ve
1e-007
-400.75 587.5 148.75
0 0

0101101
*
Ed
 1e-007 1 1 0
1  34 0 1.25 5
2  71 10 0 1.25 5
2  72 4 6 1.25 5
2  73 11 0 1.25 5
0

0101000
+30 0 -32 0 *
Ed
 1e-007 1 1 0
1  30 0 -50 -45
2  63 5 2 -50 -45
2  64 4 6 -50 -45
0

0101000
+30 0 -54 0 *
Wi

0101000
+31 0 +29 0 -28 0 -53 0 *
Fa
0  1e-007 4 6

0111000
+27 0 *
Ve
1e-007
-400.5 587.5 145
0 0

0101101
*
Ed
 1e-007 1 1 0
1  35 0 400.5 400.75
2  74 2 0 400.5 400.75
2  75 10 0 400.5 400.75
2  76 11 0 400.5 400.75
0

0101000
+25 0 -32 0 *
Ve
1e-007
-400.5 592.5 145
0 0

0101101
*
Ed
 1e-007 1 1 0
1  33 0 400.5 400.75
2  69 2 0 400.5 400.75
2  70 9 0 400.5 400.75
0

0101000
+23 0 -56 0 *
Ed
 1e-007 1 1 0
1  36 0 -50 -45
2  77 2 0 -50 -45
2  78 4 7 -50 -45
0

0101000
+25 0 -23 0 *
Wi

0101000
-24 0 -31 0 +22 0 +21 0 *
Fa
0  1e-007 2 0

0111000
+20 0 *
Ve
1e-007
-400.5 587.5 148.75
0 0

0101101
*
Ed
 1e-007 1 1 0
1  37 0 1.25 5
2  79 10 0 1.25 5
2  80 4 7 1.25 5
2  81 11 0 1.25 5
0

0101000
+18 0 -25 0 *
Ed
 1e-007 1 1 0
1  38 0 -400.75 -400.5
2  82 10 0 -400.75 -400.5
2  83 5 2 -400.75 -400.5
2  84 11 0 -400.75 -400.5
0

0101000
+30 0 -18 0 *
Wi

0101000
+24 0 +17 0 +16 0 -29 0 *
Fa
0  1e-007 11 0

0111000
+15 0 *
Ve
1e-007
-400.5 592.5 148.75
0 0

0101101
*
Ed
 1e-007 1 1 0
1  31 0 -400.75 -400.5
2  65 9 0 -400.75 -400.5
2  66 5 2 -400.75 -400.5
0

0101000
+54 0 -13 0 *
Ed
 1e-007 1 1 0
1  39 0 -50 -45
2  85 5 2 -50 -45
2  86 4 7 -50 -45
0

0101000
+18 0 -13 0 *
Wi

0101000
+16 0 -28 0 -12 0 +11 0 *
Fa
0  1e-007 5 2

0111000
+10 0 *
Ed
 1e-007 1 1 0
1  40 0 1.25 5
2  87 9 0 1.25 5
2  88 4 7 1.25 5
0

0101000
+13 0 -23 0 *
Wi

0101000
+8 0 +12 0 -53 0 +22 0 *
Fa
0  1e-007 9 0

0111000
+7 0 *
Wi

0101000
+21 0 +17 0 -11 0 -8 0 *
Fa
0  1e-007 4 7

0111000
+5 0 *
Sh

0101100
-26 0 -19 0 -14 0 +9 0 +6 0 +4 0 *
So

0100000
+3 0 *
Co

1100000
+126 0 +95 0 +64 0 +33 0 +2 0 *

+1 0 
0

