DBRep_DrawableShape

CASCADE Topology V1, (c) Matra-Datavision
Locations 0
Curve2ds 24
1 6.2831853071795827 -17.050000000000068 1 0 
1 1.8799776550319401e-015 -17.050000000000068 1 0 
1 6.2831853071795827 -15.050000000000182 1 0 
1 3.1415926535897931 -17.050000000000068 0 1 
1 3.1415926535897931 -17.050000000000068 0 1 
1 6.2831853071795862 -15.050000000000182 0 -1 
1 0 -15.050000000000182 0 -1 
1 3.0099379778727602e-016 -15.050000000000182 1 0 
7 0 0  3 25 23  -1.5707963267948966 5.7635721016931143  -1.5231964381041427 5.7635721016931178  -1.4279966607226342 5.7635721016931196  -1.2851969946503701 5.7635721016931205  -1.1423973285781095 5.763572101693117  -0.99959766250584892 5.7635721016931161  -0.8567979964335839 5.763572101693117  -0.71399833036131977 5.7635721016931161  -0.57119866428906718 5.7635721016931125  -0.42839899821677552 5.7635721016931214  -0.28559933214452382 5.763572101693117  -0.14279966607225969 5.763572101693117  0 5.7635721016931152  0.14279966607226413 5.7635721016931187  0.28559933214451849 5.7635721016931223  0.42839899821680749 5.7635721016931187  0.57119866428905297 5.7635721016931178  0.71399833036131088 5.7635721016931196  0.85679799643357502 5.763572101693109  0.99959766250586402 5.7635721016931258  1.1423973285780962 5.7635721016931099  1.2851969946503718 5.7635721016931223  1.4279966607226404 5.7635721016931134  1.5231964381041481 5.7635721016931152  1.5707963267948966 5.7635721016931178 
 -1.5707963267949001 4 -1.4279966607226364 1 -1.2851969946503727 1 -1.1423973285781091 1 -0.99959766250584547 1 -0.85679799643358179 1 -0.71399833036131821 1 -0.57119866428905453 1 -0.42839899821679084 1 -0.28559933214452715 1 -0.14279966607226346 1 2.2204460492503131e-016 1 0.14279966607226369 1 0.28559933214452737 1 0.42839899821679106 1 0.57119866428905475 1 0.71399833036131843 1 0.85679799643358212 1 0.99959766250584581 1 1.1423973285781095 1 1.2851969946503732 1 1.4279966607226369 1 1.5707963267949001 4
1 7.1054273576010019e-015 5.7635721016931267 1 -3.6753076319133969e-015 
7 0 0  3 25 23  -1.5707963267948966 6.8027985126660582  -1.5231964381041223 6.8027985126660591  -1.4279966607226093 6.8027985126660591  -1.2851969946503887 6.8027985126660564  -1.1423973285780775 6.8027985126660546  -0.99959766250585957 6.8027985126660555  -0.85679799643357946 6.8027985126660502  -0.71399833036132154 6.8027985126660555  -0.57119866428902988 6.8027985126660431  -0.42839899821680305 6.8027985126660555  -0.28559933214452471 6.8027985126660528  -0.14279966607225258 6.8027985126660502  -1.3322676295501878e-014 6.8027985126660564  0.14279966607226502 6.8027985126660564  0.28559933214452204 6.8027985126660466  0.42839899821679861 6.8027985126660626  0.57119866428905297 6.8027985126660502  0.71399833036131621 6.8027985126660555  0.85679799643357235 6.8027985126660617  0.99959766250584803 6.8027985126660475  1.1423973285781059 6.8027985126660555  1.285196994650371 6.8027985126660591  1.4279966607226333 6.8027985126660528  1.5231964381041436 6.802798512666052  1.5707963267948966 6.8027985126660546 
 -1.5707963267948899 4 -1.4279966607226267 1 -1.2851969946503634 1 -1.1423973285781004 1 -0.99959766250583715 1 -0.85679799643357391 1 -0.71399833036131077 1 -0.57119866428904764 1 -0.4283989982167844 1 -0.28559933214452116 1 -0.14279966607225791 1 5.1070259132757201e-015 1 0.14279966607226835 1 0.28559933214453159 1 0.42839899821679461 1 0.57119866428905786 1 0.7139983303613211 1 0.85679799643358434 1 0.99959766250584758 1 1.1423973285781108 1 1.2851969946503741 1 1.4279966607226369 1 1.5707963267949001 4
7 0 0  3 6 3  -1.5707963267948979 5.7635721016931072  -1.5707963267948957 5.9509329965505451  -1.5707963267948961 6.1176704961843873  -1.5707963267948961 6.4487001181747559  -1.5707963267948977 6.6154376178085998  -1.5707963267948883 6.8027985126660555 
 0 4 0.5 2 1 4
7 0 0  3 6 3  4.7123889803846923 5.7635721016931019  4.7123889803846932 5.9509329965505433  4.7123889803846932 6.1176704961843846  4.7123889803846932 6.4487001181747585  4.7123889803846915 6.6154376178085954  4.7123889803847021 6.8027985126660546 
 0 4 0.5 2 1 4
7 0 0  3 6 3  1.5707963267948939 6.8027985126660546  1.5707963267948966 6.6154376178086052  1.5707963267948961 6.4487001181747639  1.5707963267948961 6.1176704961844077  1.570796326794895 5.9509329965505708  1.5707963267949026 5.7635721016931338 
 0 4 0.5 2 1 4
7 0 0  3 6 3  1.5707963267948895 6.8027985126660466  1.570796326794893 6.6154376178085963  1.570796326794893 6.4487001181747639  1.570796326794893 6.1176704961844077  1.5707963267948912 5.9509329965505726  1.5707963267948983 5.7635721016931347 
 0 4 0.5 2 1 4
1 7.1054273576010019e-015 6.8027985126660457 1 3.6753076319133969e-015 
1 6.2831853071795827 0 1 0 
1 3.0099379778727602e-016 0 1 0 
1 6.2831853071795827 1.9999999999997726 1 0 
1 3.1415926535897931 0 0 1 
1 3.1415926535897931 0 0 1 
1 6.2831853071795862 1.9999999999998863 0 -1 
1 0 1.9999999999998863 0 -1 
1 3.0099379778727602e-016 1.9999999999997726 1 0 
Curves 26
2 -905.02499999997417 659.67098247387196 628.64999999999918 3.2373225585796021e-015 -8.6519960218209198e-015 1 -1.8799776550319558e-015 1 8.6519960218209261e-015 -1 -1.8799776550319838e-015 3.237322558579586e-015 8.999999999999984
1 -905.02499999997417 659.67098247387196 628.64999999999918 0 -1 -1.5039821240255707e-014 
1 -905.02499999997417 668.67098247387185 628.6499999999993 3.7599553100639266e-015 -1 -1.5039821240255707e-014 
2 -905.02499999997417 659.67098247387196 628.64999999999918 3.2373225585796021e-015 -8.6519960218209198e-015 1 -1.8799776550319558e-015 1 8.6519960218209261e-015 -1 -1.8799776550319838e-015 3.237322558579586e-015 8.999999999999984
2 -905.02499999997417 659.67098247387196 630.64999999999907 3.2373225585796021e-015 -8.6519960218209198e-015 1 -1.8799776550319558e-015 1 8.6519960218209261e-015 -1 -1.8799776550319838e-015 3.237322558579586e-015 8.999999999999984
1 -905.02499999997417 650.67098247387196 628.64999999999907 0 0 1 
1 -905.02499999997417 668.67098247387196 630.64999999999918 0 0 -1 
2 -905.02499999997417 659.67098247387196 630.64999999999907 3.2373225585796021e-015 -8.6519960218209198e-015 1 -1.8799776550319558e-015 1 8.6519960218209261e-015 -1 -1.8799776550319838e-015 3.237322558579586e-015 8.999999999999984
2 -905.02499999997417 659.67098247387173 630.64999999999907 1.6186612792898011e-015 -4.3259980109104599e-015 1 1 0 -1.6186612792898011e-015 7.0023254745454604e-030 1 4.3259980109104599e-015 7.0000000000000213
1 -905.02499999997417 650.67098247387219 630.64999999999884 0 1 6.7679195581151186e-014 
1 -905.02499999997417 666.67098247387185 630.64999999999907 -8.4598994476438983e-015 1 6.7679195581151186e-014 
2 -905.02499999997417 659.67098247387162 630.64999999999907 1.6186612792898011e-015 -4.3259980109104599e-015 1 1 0 -1.6186612792898011e-015 7.0023254745454604e-030 1 4.3259980109104599e-015 7.0000000000000879
2 -905.02499999997417 659.67098247387173 645.69999999999925 1.6186612792898011e-015 -4.3259980109104599e-015 1 1 0 -1.6186612792898011e-015 7.0023254745454604e-030 1 4.3259980109104599e-015 7.0000000000000213
7 0 0  3 5 3  -905.02499999997417 652.67098247387207 630.64999999999907  -905.02499999997417 651.33747988828588 633.15833333333228  -905.02499999997417 650.0039773026997 638.17499999999893  -905.02499999997417 651.33747988828566 643.19166666666558  -905.02499999997406 652.67098247387185 645.69999999999914 
 0 4 0.5 1 1 4
7 0 0  3 5 3  -905.02499999997417 666.67098247387185 645.69999999999925  -905.02499999997417 668.00448505945815 643.19166666666581  -905.02499999997417 669.33798764504434 638.17499999999916  -905.02499999997417 668.00448505945815 633.15833333333251  -905.02499999997417 666.67098247387173 630.64999999999941 
 0 4 0.5 1 1 4
2 -905.02499999997417 659.67098247387162 645.69999999999925 1.6186612792898011e-015 -4.3259980109104599e-015 1 1 0 -1.6186612792898011e-015 7.0023254745454604e-030 1 4.3259980109104599e-015 7.0000000000000879
2 -905.02499999997417 659.67098247387185 645.69999999999925 3.2373225585796021e-015 -8.6519960218209198e-015 1 -1.8799776550319558e-015 1 8.6519960218209261e-015 -1 -1.8799776550319838e-015 3.237322558579586e-015 8.999999999999984
1 -905.02499999997417 652.67098247387185 645.69999999999925 0 -1 -6.7679195581151186e-014 
1 -905.02499999997417 668.67098247387185 645.69999999999936 8.4598994476438983e-015 -1 -6.7679195581151186e-014 
2 -905.02499999997417 659.67098247387185 645.69999999999925 3.2373225585796021e-015 -8.6519960218209198e-015 1 -1.8799776550319558e-015 1 8.6519960218209261e-015 -1 -1.8799776550319838e-015 3.237322558579586e-015 8.999999999999984
2 -905.02499999997417 659.67098247387185 647.69999999999902 3.2373225585796021e-015 -8.6519960218209198e-015 1 -1.8799776550319558e-015 1 8.6519960218209261e-015 -1 -1.8799776550319838e-015 3.237322558579586e-015 8.999999999999984
1 -905.02499999997417 650.67098247387185 645.69999999999914 8.4598994476438983e-015 0 1 
1 -905.02499999997417 668.67098247387185 647.69999999999925 0 0 -1 
2 -905.02499999997417 659.67098247387185 647.69999999999902 3.2373225585796021e-015 -8.6519960218209198e-015 1 -1.8799776550319558e-015 1 8.6519960218209261e-015 -1 -1.8799776550319838e-015 3.237322558579586e-015 8.999999999999984
1 -905.02499999997417 650.67098247387185 647.69999999999891 0 1 1.5039821240255707e-014 
1 -905.02499999997417 659.67098247387196 647.69999999999902 -3.7599553100639266e-015 1 1.5039821240255707e-014 
Polygon3D 0
PolygonOnTriangulations 0
Surfaces 14
1 -905.02499999997417 659.67098247387196 628.64999999999918 -3.2373225585796021e-015 8.6519960218209198e-015 -1 -3.5692480268088751e-015 1 8.6519960218209309e-015 -1 -3.5692480268089035e-015 3.2373225585795714e-015 
2 -905.02499999997417 659.67098247387185 645.69999999999925 3.2373225585795714e-015 -8.6519960218209198e-015 1 -1.8799776550319558e-015 1 8.6519960218209261e-015 -1 -1.8799776550319838e-015 3.2373225585795552e-015 8.999999999999984
1 -905.02499999997417 659.67098247387196 628.64999999999918 -3.2373225585796021e-015 8.6519960218209198e-015 -1 -3.5692480268088751e-015 1 8.6519960218209309e-015 -1 -3.5692480268089035e-015 3.2373225585795714e-015 
2 -905.02499999997417 659.67098247387185 645.69999999999925 3.2373225585795714e-015 -8.6519960218209198e-015 1 -1.8799776550319558e-015 1 8.6519960218209261e-015 -1 -1.8799776550319838e-015 3.2373225585795552e-015 8.999999999999984
1 -905.02499999997417 659.67098247387196 630.64999999999907 3.2373225585796021e-015 -8.6519960218209198e-015 1 -3.5692480268088751e-015 1 8.6519960218209309e-015 -1 -3.5692480268089035e-015 3.2373225585795714e-015 
7 -905.02499999997417 659.67098247387173 638.17499999999916 0 0 1 
8 5.1305816199411716 7.4357889944180009
2 -911.17948253612849 659.67098247387173 638.17499999999916 0 -1 -0 1 0 0 0 -0 1 15.154736414533591
1 -905.02499999997417 659.67098247387196 630.64999999999907 3.2373225585796021e-015 -8.6519960218209198e-015 1 -3.5692480268088751e-015 1 8.6519960218209309e-015 -1 -3.5692480268089035e-015 3.2373225585795714e-015 
7 -905.02499999997417 659.67098247387162 638.17499999999916 0 0 1 
8 5.1305816199411662 7.4357889944180062
2 -911.17948253612838 659.67098247387162 638.17499999999916 0 -1 -0 1 0 0 0 -0 1 15.154736414533591
1 -905.02499999997417 659.67098247387185 645.69999999999925 -3.2373225585796021e-015 8.6519960218209198e-015 -1 -3.5692480268088751e-015 1 8.6519960218209309e-015 -1 -3.5692480268089035e-015 3.2373225585795714e-015 
2 -905.02499999997417 659.67098247387185 645.69999999999925 3.2373225585795714e-015 -8.6519960218209198e-015 1 -1.8799776550319558e-015 1 8.6519960218209261e-015 -1 -1.8799776550319838e-015 3.2373225585795552e-015 8.999999999999984
1 -905.02499999997417 659.67098247387185 645.69999999999925 -3.2373225585796021e-015 8.6519960218209198e-015 -1 -3.5692480268088751e-015 1 8.6519960218209309e-015 -1 -3.5692480268089035e-015 3.2373225585795714e-015 
2 -905.02499999997417 659.67098247387185 645.69999999999925 3.2373225585795714e-015 -8.6519960218209198e-015 1 -1.8799776550319558e-015 1 8.6519960218209261e-015 -1 -1.8799776550319838e-015 3.2373225585795552e-015 8.999999999999984
1 -905.02499999997417 659.67098247387185 647.69999999999902 3.2373225585796021e-015 -8.6519960218209198e-015 1 -3.5692480268088751e-015 1 8.6519960218209309e-015 -1 -3.5692480268089035e-015 3.2373225585795714e-015 
1 -905.02499999997417 659.67098247387185 647.69999999999902 3.2373225585796021e-015 -8.6519960218209198e-015 1 -3.5692480268088751e-015 1 8.6519960218209309e-015 -1 -3.5692480268089035e-015 3.2373225585795714e-015 
Triangulations 0

TShapes 70
Ve
1.0001000025e-007
-905.024999999974 650.670982473872 628.649999999999
0 0

0101101
*
Ve
1.0001000025e-007
-905.024999999974 668.670982473872 628.649999999999
0 0

0101101
*
Ed
 1.00005e-007 1 1 0
1  1 0 -3.14159265358979 -1.87997765503194e-015
2  1 2 0 -3.14159265358979 -1.87997765503194e-015
0

0101000
+70 0 -69 0 *
Ve
1.0001000025e-007
-905.024999999974 659.670982473872 628.649999999999
0 0

0101101
*
Ed
 1.0001000025e-007 1 1 0
1  2 0 0 9
0

0101000
+67 0 -70 0 *
Ed
 1.0001000025e-007 1 1 0
1  3 0 -1.13686837721614e-013 8.99999999999989
0

0101000
+69 0 -67 0 *
Wi

0101000
-68 0 -66 0 -65 0 *
Fa
0  1e-007 1 0

0111000
-64 0 *
Ed
 1.00005e-007 1 1 0
1  4 0 -1.87997765503194e-015 3.14159265358979
2  2 4 0 -1.87997765503194e-015 3.14159265358979
0

0101000
+69 0 -70 0 *
Wi

0101000
-62 0 +65 0 +66 0 *
Fa
0  1e-007 3 0

0111000
-61 0 *
Ve
1.0001000025e-007
-905.024999999974 650.670982473872 630.649999999999
0 0

0101101
*
Ve
1.0001000025e-007
-905.024999999974 668.670982473872 630.649999999999
0 0

0101101
*
Ed
 1.00005e-007 1 1 0
1  5 0 -3.14159265358979 -3.00993797787276e-016
2  3 2 0 -3.14159265358979 -3.00993797787276e-016
0

0101000
+59 0 -58 0 *
Ed
 1e-007 1 1 0
1  6 0 0 1.99999999999977
2  4 2 0 0 1.99999999999977
2  5 4 0 0 1.99999999999977
0

0101000
+70 0 -59 0 *
Ed
 1e-007 1 1 0
1  7 0 0 2
2  6 2 0 0 2
2  7 4 0 0 2
0

0101000
+58 0 -69 0 *
Wi

0101100
-57 0 -56 0 +68 0 -55 0 *
Fa
0  1e-007 2 0

0111000
+54 0 *
Ed
 1.00005e-007 1 1 0
1  8 0 -3.00993797787276e-016 3.14159265358979
2  8 4 0 -3.00993797787276e-016 3.14159265358979
0

0101000
+58 0 -59 0 *
Wi

0101100
-52 0 +55 0 +62 0 +56 0 *
Fa
0  1e-007 4 0

0111000
+51 0 *
Ve
0.0330816361385772
-905.024999999974 652.670982473872 630.649999999999
0 0

0101101
*
Ve
0.0330816361380184
-905.024999999974 666.670982473872 630.649999999999
0 0

0101101
*
Ed
 1.00005e-007 1 1 0
1  9 0 -1.5707963267949 1.5707963267949
2  9 6 0 -1.5707963267949 1.5707963267949
0

0101000
+49 0 -48 0 *
Ed
 1.0001000025e-007 1 1 0
1  10 0 0 1.99999999999989
0

0101000
+59 0 -49 0 *
Ed
 1.0001000025e-007 1 1 0
1  11 0 7.69423372516385e-027 2
0

0101000
+48 0 -58 0 *
Wi

0101000
-47 0 -46 0 +57 0 -45 0 *
Fa
0  1e-007 5 0

0111000
+44 0 *
Ed
 1.00005e-007 1 1 0
1  12 0 1.57079632679489 4.71238898038469
2  10 8 0 1.57079632679489 4.71238898038469
0

0101000
+48 0 -49 0 *
Wi

0101000
-42 0 +45 0 +52 0 +46 0 *
Fa
0  1e-007 7 0

0111000
+41 0 *
Ve
0.0330816361385772
-905.024999999974 652.670982473872 645.699999999999
0 0

0101101
*
Ve
0.0330816361380184
-905.024999999974 666.670982473872 645.699999999999
0 0

0101101
*
Ed
 1.00005e-007 1 1 0
1  13 0 -1.57079632679489 1.5707963267949
2  11 6 0 -1.57079632679489 1.5707963267949
0

0101000
+39 0 -38 0 *
Ed
 0.0330816361385772 1 1 0
1  14 0 0 1
2  12 6 0 0 1
2  13 8 0 0 1
0

0101000
+49 0 -39 0 *
Ed
 0.0330816361380184 1 1 0
1  15 0 0 1
2  14 6 0 0 1
2  15 8 0 0 1
0

0101000
+38 0 -48 0 *
Wi

0101100
-37 0 -36 0 +47 0 -35 0 *
Fa
0  1e-007 6 0

0111000
+34 0 *
Ed
 1.00005e-007 1 1 0
1  16 0 1.57079632679489 4.7123889803847
2  16 8 0 1.57079632679489 4.7123889803847
0

0101000
+38 0 -39 0 *
Wi

0101100
-32 0 +35 0 +42 0 +36 0 *
Fa
0  1e-007 8 0

0111000
+31 0 *
Ve
1.0001000025e-007
-905.024999999974 650.670982473872 645.699999999999
0 0

0101101
*
Ve
1.0001000025e-007
-905.024999999974 668.670982473872 645.699999999999
0 0

0101101
*
Ed
 1.00005e-007 1 1 0
1  17 0 -3.14159265358979 -3.00993797787276e-016
2  17 10 0 -3.14159265358979 -3.00993797787276e-016
0

0101000
+29 0 -28 0 *
Ed
 1.0001000025e-007 1 1 0
1  18 0 0 2
0

0101000
+39 0 -29 0 *
Ed
 1.0001000025e-007 1 1 0
1  19 0 7.69423372516385e-027 2
0

0101000
+28 0 -38 0 *
Wi

0101000
-27 0 -26 0 +37 0 -25 0 *
Fa
0  1e-007 9 0

0111000
-24 0 *
Ed
 1.00005e-007 1 1 0
1  20 0 -3.00993797787276e-016 3.14159265358979
2  18 12 0 -3.00993797787276e-016 3.14159265358979
0

0101000
+28 0 -29 0 *
Wi

0101000
-22 0 +25 0 +32 0 +26 0 *
Fa
0  1e-007 11 0

0111000
-21 0 *
Ve
1.0001000025e-007
-905.024999999974 650.670982473872 647.699999999999
0 0

0101101
*
Ve
1.0001000025e-007
-905.024999999974 668.670982473872 647.699999999999
0 0

0101101
*
Ed
 1.00005e-007 1 1 0
1  21 0 -3.14159265358979 -3.00993797787276e-016
2  19 10 0 -3.14159265358979 -3.00993797787276e-016
0

0101000
+19 0 -18 0 *
Ed
 1e-007 1 1 0
1  22 0 0 1.99999999999977
2  20 10 0 0 1.99999999999977
2  21 12 0 0 1.99999999999977
0

0101000
+29 0 -19 0 *
Ed
 1e-007 1 1 0
1  23 0 0 2
2  22 10 0 0 2
2  23 12 0 0 2
0

0101000
+18 0 -28 0 *
Wi

0101100
-17 0 -16 0 +27 0 -15 0 *
Fa
0  1e-007 10 0

0111000
+14 0 *
Ed
 1.00005e-007 1 1 0
1  24 0 -3.00993797787276e-016 3.14159265358979
2  24 12 0 -3.00993797787276e-016 3.14159265358979
0

0101000
+18 0 -19 0 *
Wi

0101100
-12 0 +15 0 +22 0 +16 0 *
Fa
0  1e-007 12 0

0111000
+11 0 *
Ve
1.0001000025e-007
-905.024999999974 659.670982473872 647.699999999999
0 0

0101101
*
Ed
 1.0001000025e-007 1 1 0
1  25 0 0 9.00000000000011
0

0101000
+19 0 -9 0 *
Ed
 1.0001000025e-007 1 1 0
1  26 0 0 8.99999999999989
0

0101000
+9 0 -18 0 *
Wi

0101000
-8 0 +17 0 -7 0 *
Fa
0  1e-007 13 0

0111000
+6 0 *
Wi

0101000
+7 0 +12 0 +8 0 *
Fa
0  1e-007 14 0

0111000
+4 0 *
Sh

0101100
-63 0 -60 0 +53 0 +50 0 +43 0 +40 0 +33 0 +30 0 -23 0 -20 0 
+13 0 +10 0 +5 0 +3 0 *
So

1100000
-2 0 *

+1 0 
0

