DBRep_DrawableShape

CASCADE Topology V1, (c) Matra-Datavision
Locations 2
1
              1               0               0               0 
              0               1               0             670 
              0               0               1               0 
2  1 -1 0
Curve2ds 24
8 3.3500000000001364 673.35000000000014
1 1354.3632379215462 3.3500000000001364 0 -1 
8 3.3500000000001364 673.35000000000014
1 27.936824014401516 -3.3499999999999091 0 -1 
8 -1296.2145718598861 1497.4678295806411
1 1450.2736631599751 322.85554923766631 -0.96848401983107568 0.24907569799528945 
8 -1296.2145718598861 1497.4678295806411
1 1324.1513958742876 -676.70000000000005 1 0 
8 -1296.2145718598861 1497.4678295806411
1 1450.2736631599751 322.85554923766631 -0.96848401983107568 0.24907569799528945 
8 -1296.2145718598861 1497.4678295806411
1 1324.1513958742876 -6.7000000000000455 1 0 
8 -673.35000000000014 -3.3500000000001364
1 695.83839411595545 3.3500000000001364 0 1 
8 -673.35000000000014 -3.3500000000001364
1 2821.6192254549278 -3.3499999999999091 0 1 
8 -565.42414648134036 -433.3610594478431
1 -306.43254383775843 1107.9306943726247 -0.70710678118655101 -0.70710678118654424 
8 -565.42414648134036 -433.3610594478431
1 566.74477735167557 -676.70000000000005 1 0 
8 -955.50247141135878 -738.5865706354798
1 3384.3577232245225 2030.0055151858587 -0.70710678118654857 0.70710678118654657 
8 -955.50247141135878 -738.5865706354798
1 957.67163041911851 -676.70000000000005 1 0 
8 3.3500000000001364 673.35000000000014
1 153.38270438581185 3.3500000000001364 0 -1 
8 3.3500000000001364 673.35000000000014
1 2.1691590077596965 -3.3499999999999091 0 -1 
8 -565.42414648134036 -433.3610594478431
1 -306.43254383775843 1107.9306943726247 -0.70710678118655101 -0.70710678118654424 
8 -565.42414648134036 -433.3610594478431
1 566.74477735167557 -6.7000000000000455 1 0 
8 -955.50247141135878 -738.5865706354798
1 3384.3577232245225 2030.0055151858587 -0.70710678118654857 0.70710678118654657 
8 -955.50247141135878 -738.5865706354798
1 957.67163041911851 -6.7000000000000455 1 0 
8 -673.35000000000014 -3.3500000000001364
1 1414.3632382103804 3.3500000000001364 0 1 
8 -673.35000000000014 -3.3500000000001364
1 133.3837179038315 -3.3499999999999091 0 1 
8 3.3500000000001364 673.35000000000014
1 93.382704385814804 3.3500000000001364 0 -1 
8 3.3500000000001364 673.35000000000014
1 1.3206308703354859 -3.3499999999999091 0 -1 
8 -673.35000000000014 -3.3500000000001364
1 3906.6172958141888 3.3500000000001364 0 1 
8 -673.35000000000014 -3.3500000000001364
1 219.08505978363803 -3.3499999999999091 0 1 
Curves 17
1 -2864.3632383103813 -1293.3499999999999 -705.63676217845364 0 1 0 
1 -2864.3632383103813 -1289.9999999999998 -2060.0000000999999 0 0 1 
1 -2864.3632383103813 -1289.9999999999998 -2060.0000000999999 0 1 0 
1 -2541.507689072715 -619.99999999999977 549.72633694002548 0.24907569799528945 0 0.96848401983107568 
1 -2541.507689072715 -1289.9999999999998 549.72633694002548 0.24907569799528945 0 0.96848401983107568 
1 -2168.5248441944259 -1293.3499999999999 2000.0000001000003 0 -1 0 
1 -1356.6172957141873 -1289.9999999999998 -2060.0000000999999 -1 0 0 
1 -2864.3632383103813 -1289.9999999999998 2000.0000001000005 1 0 0 
1 -1756.4325439377567 -619.99999999999977 2306.432543937759 -0.70710678118654424 0 0.70710678118655101 
1 -1356.6172957141873 -1289.9999999999998 2000.0000001000005 0 0 -1 
1 -834.35772312452275 -619.99999999999977 -1384.3577231245222 0.70710678118654657 0 0.70710678118654857 
1 -1510.0000000999992 -1293.3499999999999 -2060.0000000999999 0 1 0 
1 -1756.4325439377567 -1289.9999999999998 2306.432543937759 -0.70710678118654424 0 0.70710678118655101 
1 -834.35772312452275 -1289.9999999999998 -1384.3577231245222 0.70710678118654657 0 0.70710678118654857 
1 -1450.000000100001 -1293.3499999999999 2000.0000001000005 0 -1 0 
1 -1356.6172957141873 -1293.3499999999999 1906.6172957141857 0 1 0 
1 -1356.6172957141873 -1293.3499999999999 -1906.617295714188 0 -1 0 
Polygon3D 0
PolygonOnTriangulations 0
Surfaces 8
1 -2864.3632383103813 -1289.9999999999998 -2060.0000000999999 1 0 0 0 0 1 0 -1 0 
1 -2871.3216222515398 -1296.6999999999998 -732.69312980123459 0.96848401983107568 0 -0.24907569799528945 0.24907569799528945 0 0.96848401983107568 0 -1 0 
1 -2864.3632383103813 -1289.9999999999998 2000.0000001000005 0 -1 0 0 0 -1 1 0 0 
1 -2864.3632383103813 -1289.9999999999998 2000.0000001000005 0 0 -1 1 0 0 0 -1 0 
1 -1355.6834686703289 -1296.6999999999998 1905.6834686703271 0.70710678118655101 0 0.70710678118654424 -0.70710678118654424 0 0.70710678118655101 0 -1 0 
1 -1511.5338271438579 -1296.6999999999998 -2061.5338271438586 0.70710678118654857 0 -0.70710678118654657 0.70710678118654657 0 0.70710678118654857 0 -1 0 
1 -1356.6172957141873 -1289.9999999999998 -2060.0000000999999 0 0 1 -1 0 0 0 -1 0 
1 -1356.6172957141873 -1289.9999999999998 2000.0000001000005 -1 0 0 0 0 -1 0 -1 0 
Triangulations 0

TShapes 54
Ve
2.00001e-007
-2864.36323831038 -1290 -705.636762178455
0 0

0101101
*
Ve
2.00001e-007
-2864.36323831038 -620 -705.636762178455
0 0

0101101
*
Ed
 1e-007 1 1 0
1  1 0 3.35000000000014 673.35
2  1 1 0 3.35000000000014 673.35
2  2 2 0 3.35000000000014 673.35
0

0101000
+54 0 -53 0 *
Ve
1e-007
-2864.36323831038 -1290 -2060.0000001
0 0

0101101
*
Ed
 1e-007 1 1 0
1  2 0 0 1354.36323792154
0

0101000
+51 0 -53 2 *
Ed
 1e-007 1 1 0
1  3 0 0 670
0

0101000
+51 0 -51 1 *
Ed
 1e-007 1 1 0
1  2 0 0 1354.36323792154
0

0101000
+51 0 -54 0 *
Wi

0101000
-52 0 +50 1 +49 0 -48 0 *
Fa
0  1e-007 1 0

0111000
+47 0 *
Ve
2.00001e-007
-2168.52484419443 -620 2000.0000001
0 0

0101101
*
Ed
 1e-007 1 1 0
1  4 0 -1296.21457185989 1497.46782958064
2  3 3 1 -1296.21457185989 1497.46782958064
2  4 2 0 -1296.21457185989 1497.46782958064
0

0101000
+53 0 -45 0 *
Ve
2.00001e-007
-2168.52484419443 -1290 2000.0000001
0 0

0101101
*
Ed
 1e-007 1 1 0
1  5 0 -1296.21457185989 1497.46782958064
2  5 3 0 -1296.21457185989 1497.46782958064
2  6 2 0 -1296.21457185989 1497.46782958064
0

0101000
+54 0 -43 0 *
Ed
 1e-007 1 1 0
1  6 0 -673.35 -3.35000000000014
2  7 4 0 -673.35 -3.35000000000014
2  8 2 0 -673.35 -3.35000000000014
0

0101000
+45 0 -43 0 *
Wi

0101000
+44 0 +52 0 -42 0 +41 0 *
Fa
0  1e-007 2 0

0111000
+40 0 *
Ve
2.00001e-007
-1510.0000001 -620 -2060.0000001
0 0

0101101
*
Ed
 1e-007 1 1 0
1  7 0 153.382704385812 1507.74594259619
0

0101000
+38 2 -51 0 *
Ve
2.00001e-007
-1450.0000001 -620 2000.0000001
0 0

0101101
*
Ed
 1e-007 1 1 0
1  8 0 695.838394115956 1414.36323821038
0

0101000
+45 2 -36 2 *
Ve
2.00001e-007
-1356.61729571419 -620 1906.61729571419
0 0

0101101
*
Ed
 1e-007 1 1 0
1  9 0 -565.42414648134 -433.361059447843
2  9 3 1 -565.42414648134 -433.361059447843
2  10 5 0 -565.42414648134 -433.361059447843
0

0101000
+34 0 -36 0 *
Ve
2.00001e-007
-1356.61729571419 -620 -1906.61729571419
0 0

0101101
*
Ed
 1e-007 1 1 0
1  10 0 93.3827043858149 3906.61729581419
0

0101000
+34 2 -32 2 *
Ed
 1e-007 1 1 0
1  11 0 -955.502471411359 -738.58657063548
2  11 3 1 -955.502471411359 -738.58657063548
2  12 6 0 -955.502471411359 -738.58657063548
0

0101000
+38 0 -32 0 *
Wi

0101000
-37 1 -50 1 -44 0 -35 1 +33 0 -31 1 +30 0 *
Fa
0  1e-007 3 1

0111000
+29 0 *
Ve
2.00001e-007
-1510.0000001 -1290 -2060.0000001
0 0

0101101
*
Ed
 1e-007 1 1 0
1  7 0 153.382704385812 1507.74594259619
0

0101000
+27 0 -51 0 *
Ed
 1.48491866580726e-007 1 1 0
1  12 0 3.35000000000014 673.35
2  13 7 0 3.35000000000014 673.35
2  14 6 0 3.35000000000014 673.35
0

0101000
+27 0 -38 0 *
Wi

0101000
-26 0 -49 0 +37 1 +25 0 *
Fa
0  1e-007 7 0

0111000
+24 0 *
Ve
2.00001e-007
-1450.0000001 -1290 2000.0000001
0 0

0101101
*
Ed
 1e-007 1 1 0
1  8 0 695.838394115956 1414.36323821038
0

0101000
+43 0 -22 0 *
Ve
2.00001e-007
-1356.61729571419 -1290 1906.61729571419
0 0

0101101
*
Ed
 1e-007 1 1 0
1  13 0 -565.42414648134 -433.361059447843
2  15 3 0 -565.42414648134 -433.361059447843
2  16 5 0 -565.42414648134 -433.361059447843
0

0101000
+20 0 -22 0 *
Ve
2.00001e-007
-1356.61729571419 -1290 -1906.61729571419
0 0

0101101
*
Ed
 1e-007 1 1 0
1  10 0 93.3827043858149 3906.61729581419
0

0101000
+20 0 -18 0 *
Ed
 1e-007 1 1 0
1  14 0 -955.502471411359 -738.58657063548
2  17 3 0 -955.502471411359 -738.58657063548
2  18 6 0 -955.502471411359 -738.58657063548
0

0101000
+27 0 -18 0 *
Wi

0101000
-26 0 -48 0 -42 0 -21 0 +19 0 -17 0 +16 0 *
Fa
0  1e-007 3 0

0111000
+15 0 *
Ed
 1e-007 1 1 0
1  15 0 -673.35 -3.35000000000014
2  19 4 0 -673.35 -3.35000000000014
2  20 5 0 -673.35 -3.35000000000014
0

0101000
+36 0 -22 0 *
Wi

0101000
+35 1 -41 0 -21 0 +13 0 *
Fa
0  1e-007 4 0

0111000
+12 0 *
Ed
 1e-007 1 1 0
1  16 0 3.35000000000014 673.35
2  21 8 0 3.35000000000014 673.35
2  22 5 0 3.35000000000014 673.35
0

0101000
+20 0 -34 0 *
Wi

0101000
-19 0 +13 0 +33 0 +10 0 *
Fa
0  1e-007 5 0

0111000
+9 0 *
Ed
 1e-007 1 1 0
1  17 0 -673.35 -3.35000000000014
2  23 8 0 -673.35 -3.35000000000014
2  24 6 0 -673.35 -3.35000000000014
0

0101000
+32 0 -18 0 *
Wi

0101000
+31 1 +10 0 -17 0 +7 0 *
Fa
0  1e-007 8 0

0111000
+6 0 *
Wi

0101000
-16 0 +7 0 +30 0 +25 0 *
Fa
0  1e-007 6 0

0111000
+4 0 *
Sh

0101000
-46 0 -39 0 -28 0 -23 0 +14 0 -11 0 +8 0 -5 0 +3 0 *
So

0100000
+2 0 *

+1 0 
0

