
CASCADE Topology V1, (c) Matra-Datavision
Locations 0
Curve2ds 18
1 0 0 0 -1 
1 0 140.00000000000045 1 0 
1 0 -4 0.81649658092772603 0.57735026918962573 
1 80.829037686547849 114.30952132988205 0.3333333333333342 -0.94280904158206313 
1 5.6568542494923806 0 -1 0 
1 -93.338095116624572 93.338095116624515 0 1 
1 0 0 0 -1 
1 0 0 1 0 
1 0 -4 0.81649658092772603 0.57735026918962573 
1 0 0 1 0 
1 5.6568542494923806 0 -1 0 
1 0 0 1 0 
1 4 0 0 1 
1 0 0 0.57735026918962562 0.81649658092772626 
1 0 0 0 1 
1 5.6568542494924259 0 -0.70710678118654768 0.70710678118654724 
1 6.9282032302754715 0 0.57735026918962551 0.81649658092772637 
1 0 0 -0.70710678118654768 0.70710678118654724 
Curves 9
1 -382.25000000000011 1092.7499999999995 -4 0 0 -1 
1 -382.25000000000011 1092.7499999999995 -8 0.57735026918962584 0.57735026918962584 0.57735026918962584 
1 -378.25000000000011 1096.7499999999995 -4 -0.70710678118654746 -0.70710678118654746 0 
1 -382.25000000000011 1232.75 -4 0 0 -1 
1 -382.25000000000011 1232.75 -8 0.57735026918962584 -0.57735026918962584 0.57735026918962584 
1 -378.25000000000011 1228.75 -4 -0.70710678118654746 0.70710678118654746 0 
1 -382.25000000000011 1232.75 -8 0 -1 0 
1 -382.25000000000011 1232.75 -4 0 -1 0 
1 -378.25000000000011 1228.75 -4 0 -1 0 
Polygon3D 0
PolygonOnTriangulations 0
Surfaces 5
1 -382.25000000000011 1092.7499999999995 -4 0.70710678118654757 -0.70710678118654757 -0 0.70710678118654757 0.70710678118654757 0 0 -0 1 
1 -382.25000000000011 1232.75 -4 -1 -0 -0 0 0 -1 0 -1 0 
1 -382.25000000000011 1232.75 -8 0.70710678118654757 0 -0.70710678118654757 0.57735026918962584 -0.57735026918962584 0.57735026918962584 -0.40824829046386307 -0.81649658092772615 -0.40824829046386307 
1 -378.25000000000011 1228.75 -4 0 0 1 -0.70710678118654757 0.70710678118654757 0 -0.70710678118654757 -0.70710678118654757 0 
1 -382.25000000000011 1232.75 -4 -0.70710678118654757 -0.70710678118654757 -0 0.70710678118654757 -0.70710678118654757 0 -0 0 1 
Triangulations 0

TShapes 27
Ve
1e-007
-382.25 1092.75 -4
0 0

0101101
*
Ve
1e-007
-382.25 1092.75 -8
0 0

0101101
*
Ed
 1e-007 1 1 0
2  1 1 0 0 4
1  1 0 0 4
2  2 2 0 0 4
0

0101000
+27 0 -26 0 *
Ve
1e-007
-378.25 1096.75 -4
0 0

0101101
*
Ed
 1e-007 1 1 0
2  3 1 0 0 6.92820323027551
1  2 0 0 6.92820323027551
2  4 3 0 0 6.92820323027551
0

0101000
+26 0 -24 0 *
Ed
 1e-007 1 1 0
2  5 1 0 0 5.65685424949238
1  3 0 0 5.65685424949238
2  6 4 0 0 5.65685424949238
0

0101000
+24 0 -27 0 *
Wi

0101000
+25 0 +23 0 +22 0 *
Fa
0  1e-007 1 0

0111000
+21 0 *
Ve
1e-007
-382.25 1232.75 -4
0 0

0101101
*
Ve
1e-007
-382.25 1232.75 -8
0 0

0101101
*
Ed
 1e-007 1 1 0
2  7 5 0 0 4
1  4 0 0 4
2  8 2 0 0 4
0

0101000
+19 0 -18 0 *
Ve
1e-007
-378.25 1228.75 -4
0 0

0101101
*
Ed
 1e-007 1 1 0
2  9 5 0 0 6.92820323027551
1  5 0 0 6.92820323027551
2  10 3 0 0 6.92820323027551
0

0101000
+18 0 -16 0 *
Ed
 1e-007 1 1 0
2  11 5 0 0 5.65685424949238
1  6 0 0 5.65685424949238
2  12 4 0 0 5.65685424949238
0

0101000
+16 0 -19 0 *
Wi

0101000
+17 0 +15 0 +14 0 *
Fa
0  1e-007 5 0

0111000
+13 0 *
Ed
 1e-007 1 1 0
1  7 0 0 140
2  13 2 0 0 140
2  14 3 0 0 140
0

0101000
+18 0 -26 0 *
Ed
 1e-007 1 1 0
1  8 0 0 140
2  15 2 0 0 140
2  16 4 0 0 140
0

0101000
+19 0 -27 0 *
Wi

0101000
+17 0 +11 0 -25 0 -10 0 *
Fa
0  1e-007 2 0

0111000
+9 0 *
Ed
 1e-007 1 1 0
1  9 0 0 132
2  17 3 0 0 132
2  18 4 0 0 132
0

0101000
+16 0 -24 0 *
Wi

0101000
+15 0 +7 0 -23 0 -11 0 *
Fa
0  1e-007 3 0

0111000
+6 0 *
Wi

0101000
+14 0 +10 0 -22 0 -7 0 *
Fa
0  1e-007 4 0

0111000
+4 0 *
Sh

0101000
+20 0 -12 0 +8 0 +5 0 +3 0 *
So

0100000
+2 0 *

+1 0 