DBRep_DrawableShape

CASCADE Topology V1, (c) Matra-Datavision
Locations 0
Curve2ds 34
1 0 0 0 1 
7 0 0  10 20 3  0.047803080803468845 -4.6628830472613743  0.040235926388826115 -4.196629449174921  0.032396417904744013 -3.7303706213449175  0.025417345285209336 -3.264146847891368  0.017967975608053521 -2.7978301405068322  0.012285548012359371 -2.3315754399774988  0.0069770260960080321 -1.8653234965809418  0.0012800902218046417 -1.3989891756052515  -0.0017328699675225323 -0.93270272785551356  -0.0041073553871822099 -0.46638954644157593  -0.0062466907417597639 0.46623729420224436  -0.0060382325223535815 0.93255281308296389  -0.0050869995872329099 1.3988816574590714  -0.0006710128618134803 1.8651583328526442  0.00081541462419920663 2.3315402415316129  0.015466840652257119 2.7976441690614848  0.015831794447956682 3.2640955781080976  0.033921400937492407 3.7301127239463057  0.046997511802967296 4.1962380823553218  0.060484382910725998 4.6623580066900558 
 0 11 4.6631500036245397 9 9.3263000072490794 11
7 0 0  1 2 2  0.028999999165534973 0.70002083765096434  0 0.7000215830037112 
 0 2 1 2
7 0 0  1 2 2  7.8661830436033142e-006 -0.23898201059725288  7.7241357807622535e-006 -0.2099820114224844 
 0 2 1 2
1 0.028999999165534973 0 0 1 
8 0 9.3263000072490794
1 0 0 0 1 
7 0 0  1 2 2  0.028999999165534973 0.69284248835720352  0 0.69116439906185689 
 0 2 1 2
7 0 0  1 2 2  -0.021926802739091311 -11.938700754099667  0.0071216881646818386 -11.938667616896337 
 0 2 1 2
3 0.037094501024900632 -4.0029482972103061 0.17151078319538274 0.98518224265752308 -0.98518224265752308 0.17151078319538274 0.039999993851271523 0.039999993837578664
7 0 0  8 9 2  1.570796776477124 -0.20998201146038653  1.3744471794174715 -0.20998204998741968  1.1780975823568269 -0.20998213381179198  0.98174798529726104 -0.20998226067092673  0.78539838823871833 -0.2099824245756281  0.58904879117881137 -0.20998261608758639  0.39269919411810861 -0.20998282337950513  0.19634959705929717 -0.20998303388638362  -3.5527136788005009e-013 -0.20998323574752931 
 0.18859095054926348 9 1.7593877270264835 9
8 5.9781426921820735 6.031509148036279
1 6.0290059071052307 -3.8427479501705104 -0.9997681488186978 -0.021532501193180311 
8 5.9781426921820735 6.031509148036279
1 -0.0016470411423838982 -5.9448728715285943 0.0014629663336569764 -0.99999892986418071 
1 1.5707967764771233 0 0 -1 
1 -0 0 -6.8087896432089678e-017 -1 
7 0 0  3 7 5  0.049311978555189803 0.70002089072924112  0.04761441589268936 0.7000208933163925  0.032459740664131639 0.70002091457324689  0.018076930168341328 0.70002092566864593  0.0086727534544782901 0.70002093141857336  0.00029088788344934925 0.70002093332951609  0 0.70002093338932858 
 0 4 0.309825694284319 1 0.62836768008919819 1 0.94690966505749474 1 1 4
7 0 0  3 7 5  -2.8622937353617317e-017 -0.23937637701178546  6.6934154595646445e-007 -0.23936281301584164  6.0944636752820885e-006 -0.23924164851239943  8.5276478974920938e-006 -0.23912662341139024  9.6685519354799618e-006 -0.23905139256221139  9.7242944859330521e-006 -0.23898433768885047  9.7242836165634117e-006 -0.23898201058811708 
 0 4 0.309825694284319 1 0.62836768008919819 1 0.94690966505749474 1 1 4
7 0 0  6 12 3  1.3089954444807048 0.69956044495464043  1.1748444324366358 0.69971904344741265  1.039640281436998 0.69983871195725056  0.90271537286880554 0.6999199656719558  0.76333528795566985 0.69996852696451994  0.62068160801845518 0.69999488863830339  0.40562226212193031 0.7000146669894437  0.33652662135952399 0.7000181622992715  0.26641887881464182 0.70001980575754541  0.19520121990313535 0.70002047148517388  0.12282913315320874 0.70002077868606427  0.049311978555801467 0.70002089072851337 
 0 7 0.68271972537797798 5 1 7
7 0 0  6 12 3  1.422256545826226 -0.24670945791738852  1.4484620783950173 -0.2464316809074539  1.4736198317284526 -0.24598484761453865  1.4970263954383991 -0.24537163941251403  1.5179664821041559 -0.24459881698274899  1.5355986560595838 -0.24367776805964736  1.5552304121435159 -0.24214685845703987  1.5605420024965959 -0.24163466281358301  1.5648530073612548 -0.24109782047109599  1.5680631131473739 -0.24053943011545356  1.5700720890387287 -0.23996379944322141  1.5707967764771233 -0.23937637701176248 
 0 7 0.68271972537797798 5 1 7
1 1.3089954444807048 0 0 1 
8 0 9.3263000072490794
1 0 0 0 1 
7 0 0  6 7 2  1.3089954444807048 0.69323863524950435  1.0908280951285101 0.69322702474553877  0.87266086383819808 0.69318885866750446  0.65449456762715896 0.69312511376655284  0.43632924070525525 0.69304063328490773  0.21816451476086507 0.69294357929512562  0 0.69284258631170437 
 0 7 1 7
7 0 0  6 7 2  -0.029658458745945193 -11.944637351010378  -0.029208440846753333 -11.942950952982908  -0.028316199651144059 -11.941382349909304  -0.027019954688458941 -11.940075748638218  -0.025422558775968877 -11.939159901290481  -0.023675038020635017 -11.938701023146766  -0.021926805260689797 -11.938699030468706 
 0 7 1 7
7 0 0  8 9 2  0.97761939926399766 -0.24699326814764788  0.96629932802338181 -0.24265537354147751  0.95497925678319007 -0.23823327443571429  0.94365918553512529 -0.23372781787827535  0.93233911430706939 -0.229139873935992  0.92101904305673088 -0.22447033535036098  0.90969897182003479 -0.21972011716627549  0.89837890057980641 -0.21489015636435749  0.88705882933919067 -0.2099814114603813 
 3.7294635526872262 9 3.8200241226121525 9
3 0.54598078589719234 -11.938047100228337 0.99999892246321009 0.0014680164913568247 -0.0014680164913568247 0.99999892246321009 0.69212386122390246 0.039999993837578664
7 0 0  1 2 2  0.023094008103134788 0.69168868250433813  0 0.6929453207669628 
 0 2 1 2
7 0 0  1 2 2  -0.0058613160875027326 -11.965157939645245  -0.025911652208957747 -11.953633678756184 
 0 2 1 2
7 0 0  5 10 3  1.3089981452573798 0.69294541886728334  1.1393528765151659 0.69301927159229726  0.96970722461072845 0.69308695046121938  0.80006105302498021 0.69314400395447506  0.63041432177685319 0.69318682005253962  0.36861395698018284 0.69322846572657293  0.27646048538871903 0.69323845346672297  0.18430697276844782 0.69324350746916652  0.092153462324262886 0.69324353948072803  0 0.69323863524947049 
 0 6 0.64800129225076764 4 1 6
7 0 0  5 10 3  -0.025911654733412171 -11.953631953172362  -0.02708994819428584 -11.952954707838797  -0.028124549246486767 -11.952028112093247  -0.028944340763548848 -11.950892390214189  -0.029497424260794505 -11.949619441832237  -0.029915093003871417 -11.947566810133008  -0.029978750788337682 -11.946827336205061  -0.029956438333024117 -11.946083970484551  -0.029848545013224575 -11.94534968212634  -0.029658458745942529 -11.944637351010378 
 0 6 0.64800129225076764 4 1 6
7 0 0  6 17 4  1.3089981452573798 0.69708466232907318  1.1869574283988693 0.69728251297803001  1.0678271902004048 0.69751689457857335  0.9509698771656776 0.69777149201525757  0.83581631642328236 0.69803122995033895  0.72186723546706533 0.69828490795916709  0.55869609227279615 0.69863016731197025  0.50885650642631886 0.69873317337592844  0.45912707887808896 0.69883272130296969  0.40947056335250309 0.69892824158484468  0.35985076903187846 0.69901928800523894  0.25865528819623967 0.69919519264804519  0.20707939682175611 0.69927966231567817  0.15546543722485731 0.69935858599699774  0.10377391639618383 0.69943173439888529  0.051965297525161262 0.69949900958077904  0 0.69956044495467318 
 0 7 0.52610791239482835 5 0.75846686956844112 5 1 7
7 0 0  6 17 4  1.188576497025283 -0.24298215866474493  1.2017313256212265 -0.24382767303315092  1.217825899825191 -0.24458153235556249  1.2362104685881612 -0.24523188546060071  1.2563083096423977 -0.24577222223204534  1.2776330274656544 -0.2461977774496287  1.3094891257691059 -0.24664154750057452  1.3193990612289304 -0.24675453378017986  1.3294211572895944 -0.24684430259468418  1.3395178812434805 -0.24691066232965539  1.3496527162868441 -0.24695348300606382  1.3703278610838094 -0.24699266814762275  1.3808681544383814 -0.24698713286974017  1.3913711732089888 -0.24695600900081405  1.4017969588580679 -0.24689929286354506  1.4121054626850331 -0.24681705854915573  1.4222565458262784 -0.2467094579173903 
 0 7 0.52610791239482835 5 0.75846686956844112 5 1 7
7 0 0  4 5 2  0.023094008103134788 0.68992290215432661  0.017932638876228743 0.69220942470446545  0.012287344354638019 0.69418315403950914  0.0062718785926250365 0.69581268951421882  0 0.69708384427794967 
 0 5 1 5
7 0 0  4 5 2  0.84764431372791593 -0.22298239795029495  0.93371960748321459 -0.22745220422290718  1.019138932819172 -0.23234110902882574  1.1040206730015525 -0.23755059953474456  1.1885278958821894 -0.24298215869224826 
 0 5 1 5
1 1.3089981452573798 0 0 1 
8 0 9.3263000072490794
1 0 0 0 1 
Curves 17
7 0 0  10 20 3  113.93999949284827 11.942283679948988 3.7557434270232846  114.40552922430432 11.939848885004096 3.728802371762769  114.87107003023114 11.937686269019796 3.7018610738766644  115.33655735203713 11.934664167864577 3.6749216134071583  115.8021475408303 11.932110261835081 3.6479768855727075  116.26763785752179 11.927791151988899 3.6210353543303326  116.7331173846424 11.923098282008439 3.594093900603696  117.1986874822677 11.91879196938968 3.5671477716233775  117.66415210149314 11.911803328140648 3.5402038218949765  118.1296296785511 11.90417578629105 3.5132581876847357  119.06052921143207 11.88631165994912 3.4593663207932837  119.52595359715254 11.876101721248178 3.4324199864921288  119.99137531594231 11.865148893682704 3.4054727196852945  120.45667048471397 11.850733231955687 3.3785277095800388  120.92213366207731 11.83924419540107 3.351577259350464  121.38703638488359 11.814599164888655 3.3246399925667256  121.85259303827452 11.804229852207399 3.2976857715466275  122.31733523540048 11.776149297094037 3.2707527673849088  122.78229321216787 11.753078758037605 3.2438146068066436  123.24723693526791 11.729597670216073 3.2168766703846456 
 0 11 4.6631500036245397 9 9.3263000072490794 11
7 0 0  1 2 2  114.63716623315928 11.938661283252243 3.6863486108466041  114.63884223419623 11.938618923976822 3.7153001078436971 
 0 2 1 2
7 0 0  10 20 3  113.93832423590599 11.942326035122708 3.7267918869637695  114.40385396736322 11.939891240177845 3.6998508317032215  114.86939477328428 11.937728624192937 3.6729095338172666  115.33488209510581 11.934706523040406 3.6459700733473488  115.80047228386998 11.932152617004707 3.6190253455137085  116.26596260060167 11.927833507167826 3.5920838142701359  116.73144212768031 11.923140637177582 3.5651423605448413  117.19701222533818 11.918834324566218 3.5381962315634001  117.66247684454571 11.91184568331323 3.5112522818356737  118.12795442160974 11.904218141465003 3.4843066476251647  119.05885395448981 11.886354015122702 3.4304147807338152  119.52427834020824 11.876144076422298 3.4034684464324241  119.98970005900661 11.865191248855576 3.3765211796262187  120.45499522776069 11.850775587130766 3.3495761695197959  120.92045840514746 11.839286550573222 3.3226257192918247  121.38536112793165 11.814641520063642 3.2956884525064192  121.8509177813376 11.804272207380496 3.26873423148762  122.31565997845628 11.776191652267867 3.2418012273251744  122.78061795522602 11.75312111321138 3.2148630667471769  123.24556167832569 11.729640025389797 3.1879251303251297 
 0 11 4.6631500036245397 9 9.3263000072490794 11
7 0 0  1 2 2  114.63 11.938700754099667 3.6867633367513353  114.63 11.938667616896337 3.7158118276551084 
 0 2 1 2
3 114.59890964083695 11.938835513771277 3.717611091225169 0.057767482429801578 -0.0014605232744529589 0.99832899629605443 0.97962212879307453 -0.19260132164022531 -0.056966794550540552 0.19236268544769172 0.98127600489067468 -0.0096953325445368384 0.039999993851271523 0.039999993837578664
1 114.63 5.9448728715285943 3.7070430983480427 -0 0.99999892986418071 0.0014629663336569764 
1 114.65097778962881 11.938318906170014 3.9249309344516963 -0.057793114901204985 0.0014655628208684562 -0.99832750537868797 
7 0 0  3 7 5  114.63714348316753 11.938669727288357 3.6859549131429321  114.63714426352722 11.938669038077766 3.6859684536758461  114.63715123726125 11.938663435461232 3.6860894092320069  114.63715787203013 11.938660833736282 3.6862042391284486  114.63716221381121 11.938659582593488 3.6862793428294824  114.63716608882591 11.938659428578626 3.6863462854891935  114.63716622331636 11.938659425178983 3.6863486086978763 
 0 4 0.309825694284319 1 0.62836768008919819 1 0.94690966505749474 1 1 4
7 0 0  6 12 3  114.63631131138372 11.944602470226961 3.6786664308969703  114.63647674267683 11.943564590030576 3.678933572831995  114.63661338842221 11.942563236863373 3.6793717742852503  114.63672186658634 11.941628241273714 3.6799783574085065  114.636807765311 11.940790244473479 3.6807462716789394  114.63688120159625 11.940083849407687 3.6816635754095803  114.63698260345176 11.939296444331168 3.6831900236679989  114.63701384635556 11.939083228663478 3.6837009557369078  114.63704500985439 11.938909998321362 3.6842366390913064  114.63707682234748 11.93878077695341 3.6847939335939053  114.63710968775968 11.938699575259591 3.6853685068360673  114.63714348316752 11.938669727288357 3.6859549131429543 
 0 7 0.68271972537797798 5 1 7
7 1 0  10 20 3  113.93790924927731 11.948266674300662 3.7190842497289607  1.0216829671518437 114.40345216937862 11.945831810380923 3.6921424312170892  1.0216829671518763 114.86901354358892 11.943799143795083 3.6652001332779518  1.0216829671517174 115.33447345919775 11.940061627400169 3.6382612120111868  1.0216829671521015 115.80018123888691 11.939346847770466 3.6113123704673349  1.021682967151482 116.26552316314057 11.932181012446428 3.5843752611534097  1.0216829671522278 116.73117745195724 11.93033443579705 3.5574278590298674  1.0216829671515317 117.19665634031574 11.924188564251558 3.5304843165770809  1.0216829671520287 117.66217474293536 11.917914906003659 3.5035383007169303  1.0216829671517706 118.12765812385844 11.91015698248237 3.4765921399257298  1.0216829671518595 119.05858402578222 11.892292129538376 3.4226987461487623  1.0216829671518297 119.52402159546185 11.882081794826064 3.3957516483884205  1.021682967151883 119.98945649713873 11.871128538587449 3.3688036181398151  1.0216829671517895 120.45476485042802 11.856712415306028 3.3418578444446982  1.0216829671518672 120.92024120099238 11.84522288504224 3.3149066312401527  1.0216829671518775 121.38515711330271 11.820577327281008 3.2879686004822424  1.0216829671517755 121.85072693579055 11.810207455569703 3.2610136166274066  1.0216829671519005 122.31548231356737 11.782126308142423 3.2340798489106177  1.0216829671518171 122.7804534643813 11.759055144335655 3.2071409251134764  1.0216829671518501 123.24541036043065 11.735573399072216 3.1802022254877347  1.0216829671518437
 0 11 4.6631500036245397 9 9.3263000072490794 11
7 0 0  6 7 2  114.63 11.944637351010378 3.6790316807444814  114.63 11.942950952982908 3.6794816986436731  114.63 11.941382349909304 3.6803739398392827  114.63 11.940075748638218 3.6816701848019675  114.63 11.939159901290481 3.6832675807144577  114.63 11.938701023146766 3.6850151014697916  114.63 11.938699030468706 3.6867633342297368 
 0 7 1 7
3 114.63 11.938047100228337 4.2546709253876189 1 0 0 0 -0.0014680164913568247 0.99999892246321009 0 -0.99999892246321009 -0.0014680164913568247 0.69212386122390246 0.039999993837578664
7 0 0  1 2 2  114.63 11.965157939645245 3.7028288234029239  114.63 11.953633678756184 3.6827784872814688 
 0 2 1 2
7 0 0  5 10 3  114.63 11.953631953172362 3.6827784847570144  114.63 11.952954707838797 3.6816001912961407  114.63 11.952028112093247 3.68056559024394  114.63 11.950892390214189 3.6797457987268776  114.63 11.949619441832237 3.679192715229632  114.63 11.947566810133008 3.678775046486555  114.63 11.946827336205061 3.678711388702089  114.63 11.946083970484551 3.6787337011574026  114.63 11.94534968212634 3.6788415944772019  114.63 11.944637351010378 3.6790316807444841 
 0 6 0.64800129225076764 4 1 6
7 0 0  6 17 4  114.63413254730828 11.953609119912326 3.6825393249175074  114.63427702545684 11.95312111911181 3.6816833138371035  114.63446230168854 11.952520597158189 3.6809165843705847  114.6346729576821 11.951829271871961 3.6802519319913478  114.63489448534516 11.951066634817156 3.6796967462084589  114.63511612987894 11.950250396217447 3.6792564488189137  114.63542459490766 11.949021567363516 3.6787922743579475  114.63551759886155 11.948638058420846 3.6786731518018669  114.63560844321478 11.948248983718225 3.6785774024555313  114.63569658323671 11.947855823981802 3.6785052519625414  114.63578159368863 11.947460053464225 3.6784568573009508  114.63594796477055 11.946650555183325 3.6784067869433503  114.63602904644898 11.946236740157516 3.6784070301933922  114.63610607277856 11.945823343870787 3.6784331402815567  114.63617882951307 11.945412036176444 3.6784851357453792  114.6362472292406 11.945004507777563 3.6785629499117594  114.63631131138372 11.944602470226961 3.678666430896969 
 0 7 0.52610791239482835 5 0.75846686956844112 5 1 7
7 0 0  4 5 2  114.6282369770009 11.965167638620047 3.7029308534612313  114.63023955387169 11.962581023010889 3.6983338326932507  114.63190346292991 11.959754775793 3.6933362649519328  114.63320354044667 11.95674580576277 3.6880383683785776  114.63413183294765 11.953610927415363 3.6825393688976953 
 0 5 1 5
7 1 0  10 20 3  113.93817223553819 11.957259864631794 3.7228158341933564  1.0216830577285627 114.40373517128396 11.95482489603399 3.6958728573395336  1.0216830577285976 114.86931655951014 11.952792075133793 3.6689294010804261  1.0216830577284295 115.33479648924597 11.949054354895175 3.6419893214140822  1.0216830577288285 115.80052431206624 11.948339321216508 3.6150393197198056  1.0216830577282061 116.26588620000996 11.941173183325937 3.5881010547804522  1.0216830577289113 116.73156054424025 11.939326253398136 3.5611524916503545  1.0216830577283111 117.19705942729881 11.933179979480741 3.5342077916320038  1.0216830577286942 117.66259784695822 11.926905869096061 3.5072606168409726  1.021683057728515 118.12810123732748 11.919147443850328 3.480313297485679  1.0216830577285732 119.05906715800802 11.901281488183848 3.4264175864431778  1.0216830577285525 119.52452473623259 11.891070552471625 3.3994693300256622  1.0216830577285905 119.98997964476769 11.880116645651178 3.3725201411449945  1.0216830577285394 120.45530800749907 11.865699821911683 3.3455732085952192  1.0216830577285276 120.92080435019054 11.854209542354894 3.3186208374666903  1.0216830577286753 121.38574027950484 11.82956318443626 3.2916816472705976  1.0216830577284191 121.8513300879266 11.819192464305026 3.2647255057052509  1.0216830577286726 122.31610546922876 11.791110417964525 3.2377905791856532  1.021683057728511 122.78109661352043 11.768038306007561 3.2108504970955107  1.0216830577285752 123.24607350138987 11.744555562983436 3.1839106391998686  1.0216830577285627
 0 11 4.6631500036245397 9 9.3263000072490794 11
Polygon3D 0
PolygonOnTriangulations 32
2 1 2 
p 0.01 1 0.691164399061826 0.700021583003723 
2 5 1 
p 0.01 1 0.691164399061826 0.700021583003723 
2 3 2 
p 0.01 1 0 1 
2 4 3 
p 0.01 1 0.692842488357211 0.700020835375953 
2 1 2 
p 0.01 1 0.692842488357211 0.700020835375953 
2 4 1 
p 0.01 1 0 1 
2 1 2 
p 0.01 1 0 1 
4 1 18 19 17 
p 0.01 1 0.188590950549263 0.416502865453945 0.644414780358627 0.872326695263309 
4 1 3 4 2 
p 0.01 1 0.188590950549263 0.416502865453945 0.644414780358627 0.872326695263309 
2 5 2 
p 0.01 1 5.99380115954906 6.01907452930062 
2 2 3 
p 0.01 1 5.99380115954906 6.01907452930062 
2 1 2 
p 0.01 1 0.209982011460388 0.238982010597314 
2 3 2 
p 0.01 1 0 1 
7 4 5 6 7 8 9 3 
p 0.01 1 0 0.166666666666667 0.333333333333333 0.5 0.666666666666667 0.833333333333333 1 
7 4 5 6 7 8 9 3 
p 0.01 1 0 0.166666666666667 0.333333333333333 0.5 0.666666666666667 0.833333333333333 1 
2 10 4 
p 0.01 1 0.693238635249525 0.699560444954692 
2 1 2 
p 0.01 1 0.693238635249525 0.699560444954692 
7 10 11 12 13 14 15 1 
p 0.01 1 0 0.166666666666667 0.333333333333333 0.5 0.666666666666667 0.833333333333333 1 
7 6 12 13 14 15 16 1 
p 0.01 1 0 0.166666666666667 0.333333333333333 0.5 0.666666666666667 0.833333333333333 1 
2 16 17 
p 0.01 1 3.77902769857425 3.82002192018841 
2 4 3 
p 0.01 1 3.77902769857425 3.82002192018841 
2 3 1 
p 0.01 1 0.215972294034401 1 
2 4 5 
p 0.01 1 0.215972294034401 1 
7 9 10 11 12 13 14 1 
p 0.01 1 0 0.166666666666667 0.333333333333333 0.5 0.666666666666667 0.833333333333333 1 
7 5 7 8 9 10 11 6 
p 0.01 1 0 0.166666666666667 0.333333333333333 0.5 0.666666666666667 0.833333333333333 1 
2 2 3 
p 0.01 1 0.238982010597314 0.239376377011806 
7 3 4 5 6 7 8 2 
p 0.01 1 0 0.166666666666667 0.333333333333333 0.5 0.666666666666667 0.833333333333333 1 
7 10 11 12 13 14 15 4 
p 0.01 1 0 0.166666666666667 0.333333333333333 0.5 0.666666666666667 0.833333333333333 1 
2 3 2 
p 0.01 1 0.234158120646458 1 
2 16 10 
p 0.01 1 0.234158120646458 1 
2 9 3 
p 0.01 1 0.692945418867298 0.697084662329088 
2 1 2 
p 0.01 1 0.692945418867298 0.697084662329088 
Surfaces 8
9 0 0 0 0 1 10 2 20 2 3 113.93999949284827 11.942283679948988 3.7557434270232846  114.40552922430432 11.939848885004096 3.728802371762769  114.87107003023114 11.937686269019796 3.7018610738766644  115.33655735203713 11.934664167864577 3.6749216134071583  115.8021475408303 11.932110261835081 3.6479768855727075  116.26763785752179 11.927791151988899 3.6210353543303326  116.7331173846424 11.923098282008439 3.594093900603696  117.1986874822677 11.91879196938968 3.5671477716233775  117.66415210149314 11.911803328140648 3.5402038218949765  118.1296296785511 11.90417578629105 3.5132581876847357  119.06052921143207 11.88631165994912 3.4593663207932837  119.52595359715254 11.876101721248178 3.4324199864921288  119.99137531594231 11.865148893682704 3.4054727196852945  120.45667048471397 11.850733231955687 3.3785277095800388  120.92213366207731 11.83924419540107 3.351577259350464  121.38703638488359 11.814599164888655 3.3246399925667256  121.85259303827452 11.804229852207399 3.2976857715466275  122.31733523540048 11.776149297094037 3.2707527673849088  122.78229321216787 11.753078758037605 3.2438146068066436  123.24723693526791 11.729597670216073 3.2168766703846456  
113.93832423590599 11.942326035122708 3.7267918869637695  114.40385396736322 11.939891240177845 3.6998508317032215  114.86939477328428 11.937728624192937 3.6729095338172666  115.33488209510581 11.934706523040406 3.6459700733473488  115.80047228386998 11.932152617004707 3.6190253455137085  116.26596260060167 11.927833507167826 3.5920838142701359  116.73144212768031 11.923140637177582 3.5651423605448413  117.19701222533818 11.918834324566218 3.5381962315634001  117.66247684454571 11.91184568331323 3.5112522818356737  118.12795442160974 11.904218141465003 3.4843066476251647  119.05885395448981 11.886354015122702 3.4304147807338152  119.52427834020824 11.876144076422298 3.4034684464324241  119.98970005900661 11.865191248855576 3.3765211796262187  120.45499522776069 11.850775587130766 3.3495761695197959  120.92045840514746 11.839286550573222 3.3226257192918247  121.38536112793165 11.814641520063642 3.2956884525064192  121.8509177813376 11.804272207380496 3.26873423148762  122.31565997845628 11.776191652267867 3.2418012273251744  122.78061795522602 11.75312111321138 3.2148630667471769  123.24556167832569 11.729640025389797 3.1879251303251297  

0 2
0.028999999165534973 2

0 11
4.6631500036245397 9
9.3263000072490794 11

1 118.5950441382646 11.890066263720522 3.4863067227766997 0.057767482429801578 -0.0014605232744529589 0.99832899629605443 -0.021496543308152281 -0.99976889868319019 -0.00021875008995640141 0.99809860063999867 -0.021447985862684257 -0.057785528490365105 
1 114.65097778962881 11.938318906170014 3.9249309344516963 -0.99831452532495113 0.0052216074422547871 0.057800028900827666 -0.005297583905295185 -0.99998529336252595 -0.0011613196929699033 0.057793114901204985 -0.0014655628208683881 0.99832750537868797 
9 1 1 0 0 6 10 7 20 2 3 113.93832423590601 11.942326035122711 3.7267918869637677  1.0216829671518437 114.40385396735893 11.939891240178191 3.6998508317030945  1.0216829671518763 114.86940215399383 11.937858675267648 3.6729092970007029  1.0216829671517174 115.33484888195423 11.934121293201549 3.6459711390230707  1.0216829671521015 115.80054345488344 11.933406680946526 3.6190230619220971  1.021682967151482 116.26587222472249 11.92624104501899 3.5920867140693984  1.0216829671522278 116.73151329868595 11.924394701119397 3.5651400769528068  1.0216829671515317 117.19697901219686 11.918249094727599 3.5381972972396589  1.0216829671520287 117.66248422524853 11.911975734387696 3.5112520450187663  1.0216829671517706 118.12795442160736 11.904218141465257 3.4843066476251408  1.0216829671518595 119.05885395449199 11.886354015122841 3.4304147807338294  1.0216829671518297 119.52427834020118 11.87614407642107 3.403468446432401  1.021682967151883 119.98970005901911 11.865191248858324 3.3765211796261445  1.0216829671517895 120.45499522774688 11.850775587127615 3.349576169520105  1.0216829671518672 120.92045840515812 11.83928655057494 3.3226257192912816  1.0216829671518775 121.38536112792575 11.814641520063759 3.2956884525069907  1.0216829671517755 121.85091778134029 11.804272207379711 3.2687342314872256  1.0216829671519005 122.31565997845523 11.776191652268444 3.2418012273253374  1.0216829671518171 122.7806179552264 11.753121113211158 3.2148630667471396  1.0216829671518501 123.24556167832569 11.729640025389799 3.187925130325127  1.0216829671518437 
113.93822194461706 11.942328621556904 3.7250241041780616  1.0070183256116403 114.40375167607054 11.939893826611666 3.6980830489173622  1.0070183256116854 114.86929986270565 11.937861261704761 3.6711415142149288  1.0070183256114646 115.33474659066695 11.934123879629034 3.6442033562373024  1.0070183256120062 115.80044116359677 11.933409267391838 3.6172552791362427  1.0070183256111143 116.26576993343519 11.926243631439284 3.590318931283575  1.0070183256122069 116.73141100740081 11.924397287566613 3.5633722941669115  1.0070183256111753 117.19687672091098 11.918251681152618 3.5364295144537579  1.0070183256119236 117.66238193396369 11.911978320826229 3.5094842622328248  1.0070183256115206 118.12785213032291 11.904220727898306 3.4825388648391753  1.0070183256116694 119.05875166320851 11.886356601557729 3.4286469979478067  1.007018325611611 119.52417604891831 11.87614666285242 3.4017006636463409  1.0070183256117502 119.98959776773661 11.865193835298811 3.3747533968400734  1.0070183256114109 120.4548929364646 11.850778173550296 3.3478083867339814  1.0070183256119674 120.92035611387735 11.839289137024195 3.3208579365051536  1.0070183256112879 121.38525883664398 11.814644106483016 3.2939206697208117  1.0070183256119312 121.85081549006038 11.804274793823922 3.2669664487010319  1.0070183256114582 122.315557687175 11.776194238697478 3.2400334445391112  1.0070183256117216 122.78051566394701 11.753123699646544 3.2130952839608828  1.0070183256116183 123.24545938704672 11.729642611823721 3.1861573475388427  1.0070183256116403 
113.93812394959103 11.942798659544074 3.7232883159092025  0.99856032728816446 114.40365472089884 11.940363859160094 3.6963472004702211  0.9985603272881971 114.86920394730423 11.938331286238686 3.6694056055906783  0.99856032728803767 115.33465171504029 11.934593893566138 3.6424673874317124  0.99856032728842503 115.80034732925309 11.933879268142825 3.6155192500585431  0.99856032728779676 116.26567713624701 11.926713616455856 3.5885828421685746  0.99856032728855126 116.73131925213248 11.924867254243452 3.5616361447353491  0.99856032728785582 117.19678600440933 11.918721626916849 3.5346933048841422  0.99856032728834532 117.66229225738897 11.912448243104208 3.5077479924544015  0.99856032728809196 118.12776349328047 11.904690624110394 3.4808025348709091  0.99856032728818001 119.05866510522395 11.886826440480114 3.426910547592775  0.99856032728815203 119.52409053041909 11.876616470556463 3.3999641530966551  0.99856032728819932 119.98951328863585 11.865663609189355 3.3730168260970403  0.99856032728811572 120.45480949689536 11.851247911077827 3.3460717557860273  0.99856032728818767 120.92027371294134 11.839758835587553 3.31912124540065  0.99856032728819255 121.38517747563272 11.81511376351348 3.2921839183810673  0.99856032728810207 121.85073516736 11.804744406749464 3.2652296372158247  0.99856032728822042 122.3154784036996 11.776663804937989 3.2382965728516773  0.9985603272881366 122.78043741917426 11.753593216622733 3.2113583520977196  0.99856032728817135 123.24538218089072 11.730112076965405 3.1844203555011439  0.99856032728816446 
113.93803791328024 11.943709599118634 3.721719325293777  0.99578021698558383 114.40357070568004 11.941274788165934 3.694778092890509  0.99578021698561037 114.86912195301338 11.939242199656235 3.6678363810488577  0.99578021698548302 115.33457174168707 11.935504786417518 3.6408980459198621  0.99578021698578045 115.80026937977021 11.934790135310543 3.6139497913996479  0.99578021698532637 116.26560120260581 11.927624453111676 3.5870132668198695  0.99578021698583452 116.73124534360329 11.925778055188836 3.5600664521530985  0.99578021698539576 117.19671411485456 11.919632387259085 3.533123495416155  0.99578021698569097 117.6622223890683 11.9133589577783 3.5061780659625543  0.99578021698554009 118.12769564542572 11.905601288126817 3.4792324913923753  0.99578021698559516 119.0586012982879 11.887736993147627 3.4253402701269136  0.99578021698557062 119.52402874385825 11.877526962537942 3.3983937586346782  0.99578021698563102 119.98945352227969 11.866574035477903 3.3714463146414628  0.99578021698550456 120.45475175100523 11.852158266637183 3.344501127314397  0.99578021698565466 120.92021798576857 11.840669115485845 3.3175505000069321  0.99578021698555652 121.38512376968895 11.816023962617365 3.2906130559123463  0.99578021698557062 121.85068347950873 11.805654520180802 3.2636586578465865  0.99578021698560948 122.31542873571628 11.777573827603661 3.2367254764716034  0.99578021698556751 122.78038977004488 11.754503143546827 3.209787138758295  0.99578021698558838 123.24533655044767 11.731021903140402 3.1828490252047015  0.99578021698558383 
113.93797049790145 11.944995359524285 3.7204382241843907  0.99856032728816646 114.40350614604209 11.942560533636211 3.6934968265141803  0.9985603272882011 114.8690602488831 11.940527923111631 3.6665549494087526  0.99856032728803201 115.33451289308282 11.936790480784609 3.6396164490045417  0.9985603272884418 115.80021339082469 11.936075793438256 3.6126680289594559  0.99856032728778099 116.26554806199344 11.928910068064141 3.5857313395002146  0.9985603272885677 116.73119506440069 11.927063619739464 3.5587843591864354  0.99856032728785205 117.19666668840793 11.920917894403331 3.5318412372932491  0.99856032728834587 117.66217781855971 11.914644400409827 3.5048956424887283  0.99856032728809618 118.12765392977401 11.906886659177303 3.4779499026199039  0.99856032728818134 119.05856529232942 11.889022206864922 3.4240573507375864  0.9985603272881538 119.52399559262761 11.878812090512348 3.3971106739334389  0.99856032728820365 119.98942322553626 11.867859070616987 3.3701630646319001  0.99856032728810906 120.45472430911734 11.853443201861516 3.3432177119647322  0.99856032728821553 120.92019339626623 11.841953943774236 3.316266919449983  0.99856032728814592 121.3851020361211 11.81730867677252 3.289329309932044  0.9985603272881618 121.85066459744272 11.806939113265493 3.2623747466894395  0.99856032728817867 122.31541270766186 11.778858292447218 3.2354413999817697  0.99856032728815936 122.78037659456847 11.755787473108406 3.2085028970085063  0.99856032728816801 123.24532622731282 11.732306090346853 3.1815646181982564  0.99856032728816646 
113.93792666491943 11.94655562555846 3.7195398099029524  1.0070183256116378 114.40346578062734 11.944120781535098 3.6925982115582787  1.0070183256116763 114.86902335075339 11.942088144279275 3.6656561337822109  1.00701832561149 115.33447946225797 11.938350666630868 3.6387174326935248  1.0070183256119436 115.80018343232796 11.937635935285741 3.6117688116607365  1.0070183256112013 116.26552156206476 11.93047015747446 3.5848319219975604  1.0070183256121061 116.7311720389275 11.928623647968983 3.5578847405477987  1.0070183256112519 117.19664712687451 11.922477852905608 3.5309414181145735  1.0070183256118759 117.66216172483496 11.916204280595153 3.5039956225336137  1.0070183256115357 118.12764130254278 11.908446452436564 3.4770496819518257  1.0070183256116634 119.05855959806163 11.890581809089085 3.4231567286198312  1.0070183256116114 119.52399336469722 11.880371588605747 3.3962098510866041  1.0070183256117358 119.98942446365081 11.869418456034403 3.3692620410603551  1.0070183256114396 120.45472901372487 11.855002465869923 3.3423164876299079  1.0070183256119061 120.92020156436675 11.84351307805246 3.3153654945130855  1.0070183256113658 121.38511367202432 11.81886767234942 3.2884276841308036  1.0070183256118528 121.85067969576627 11.808497961920267 3.2614729203231074  1.0070183256115053 122.31543127145292 11.780416985337695 3.2345393728611493  1.0070183256116974 122.78039862208674 11.757346001751763 3.2076006692219017  1.0070183256116214 123.24535171827091 11.733864446132628 3.180662189749675  1.0070183256116378 
113.93790924927731 11.948266674300662 3.7190842497289607  1.0216829671518437 114.40345216937862 11.945831810380923 3.6921424312170892  1.0216829671518763 114.86901354358892 11.943799143795083 3.6652001332779518  1.0216829671517174 115.33447345919775 11.940061627400169 3.6382612120111868  1.0216829671521015 115.80018123888691 11.939346847770466 3.6113123704673349  1.021682967151482 116.26552316314057 11.932181012446428 3.5843752611534097  1.0216829671522278 116.73117745195724 11.93033443579705 3.5574278590298674  1.0216829671515317 117.19665634031574 11.924188564251558 3.5304843165770809  1.0216829671520287 117.66217474293536 11.917914906003659 3.5035383007169303  1.0216829671517706 118.12765812385844 11.91015698248237 3.4765921399257298  1.0216829671518595 119.05858402578222 11.892292129538376 3.4226987461487623  1.0216829671518297 119.52402159546185 11.882081794826064 3.3957516483884205  1.021682967151883 119.98945649713873 11.871128538587449 3.3688036181398151  1.0216829671517895 120.45476485042802 11.856712415306028 3.3418578444446982  1.0216829671518672 120.92024120099238 11.84522288504224 3.3149066312401527  1.0216829671518775 121.38515711330271 11.820577327281008 3.2879686004822424  1.0216829671517755 121.85072693579055 11.810207455569703 3.2610136166274066  1.0216829671519005 122.31548231356737 11.782126308142423 3.2340798489106177  1.0216829671518171 122.7804534643813 11.759055144335655 3.2071409251134764  1.0216829671518501 123.24541036043065 11.735573399072216 3.1802022254877347  1.0216829671518437 

0 7
1.3089954444807048 7

0 11
4.6631500036245397 9
9.3263000072490794 11

1 114.63 4.1174731840625551e-016 3.7086901394904266 1 0 0 -0 0 1 0 -1 0 
2 114.61104521476784 11.938527770435527 3.9272429352515412 0.057793114901205006 -0.0014655628208688906 0.99832750537868808 0.0052971349810085298 0.999985295710489 0.0011613456846152604 0.99831452770707951 -0.0052211577666534401 -0.057800028378597032 0.039999993837578664
9 1 1 0 0 6 10 7 20 2 3 113.93790924927731 11.948266674300662 3.719084249728962  1.0216830577285627 114.40345216937857 11.945831810381094 3.6921424312170883  1.0216830577285976 114.86901354358938 11.943799143794337 3.6652001332779518  1.0216830577284295 115.33447345919657 11.940061627402208 3.6382612120112054  1.0216830577288285 115.80018123888888 11.939346847766444 3.6113123704672927  1.0216830577282061 116.2655231631384 11.932181012452773 3.5843752611534732  1.0216830577289113 116.73117745195891 11.930334435789703 3.5574278590298083  1.0216830577283111 117.1966563403149 11.924188564257101 3.5304843165771196  1.0216830577286942 117.66217474293568 11.917914906001137 3.5035383007169179  1.021683057728515 118.12765812385838 11.910156982483024 3.4765921399257325  1.0216830577285732 119.05858402578228 11.892292129537559 3.4226987461487623  1.0216830577285525 119.52402159546176 11.882081794829851 3.3957516483884209  1.0216830577285905 119.98945649713906 11.871128538577899 3.3688036181398169  1.0216830577285394 120.45476485042728 11.856712415322242 3.341857844444704  1.0216830577285276 120.92024120099337 11.84522288502243 3.3149066312401403  1.0216830577286753 121.38515711330197 11.82057732729902 3.2879686004822566  1.0216830577284191 121.85072693579086 11.810207455557702 3.2610136166274026  1.0216830577286726 122.31548231356732 11.782126308147838 3.2340798489106191  1.021683057728511 122.78045346438132 11.759055144334326 3.2071409251134773  1.0216830577285752 123.24541036043067 11.735573399072216 3.1802022254877356  1.0216830577285627 
113.93789183363391 11.949977726302656 3.718628689238328  1.0070183540536661 114.40343855813602 11.947542842487046 3.6916866505588266  1.0070183540537003 114.86900373643734 11.94551014656799 3.6647441324562449  1.0070183540535349 115.33446745615854 11.941772591434741 3.6378049910108978  1.0070183540539361 115.80017904547319 11.941057763506215 3.6108559289556661  1.0070183540532891 116.26552476425154 11.933891870688186 3.5839185999904823  1.0070183540540563 116.73118286502918 11.93204522687472 3.5569709771927971  1.0070183540533633 117.19666555380648 11.925899278862381 3.5300272147199991  1.0070183540538371 117.6621877610925 11.919625534669564 3.5030809785802548  1.0070183540535993 118.12767494523807 11.911867515786803 3.4761345975792128  1.0070183540536828 119.05860845358127 11.894002453246785 3.4222407633564389  1.0070183540536468 119.52404982631236 11.883792004300425 3.3952934453685515  1.0070183540537387 119.98948853071954 11.872838624408679 3.3683451948971848  1.007018354053528 120.45480068723116 11.858422367982598 3.3413992009369848  1.0070183540538322 120.92028083772587 11.846932695310521 3.3144477676442463  1.0070183540535207 121.38520055469553 11.822286985451051 3.2875095165103692  1.0070183540537687 121.85077417593686 11.811916952488012 3.2605543126079026  1.007018354053604 122.31553335581093 11.783835634198184 3.2336203246359037  1.0070183540536961 122.78050830681235 11.760764290177228 3.206681180680433  1.0070183540536566 123.24546900273407 11.737282355267602 3.1797422609007606  1.0070183540536661 
113.9379014551841 11.951778672460094 3.7186321960837114  0.99856032132239136 114.40345218553179 11.949343767694323 3.6916899255785949  0.99856032132242756 114.86902136935264 11.947311040893467 3.6647471756548198  0.99856032132225014 115.33448909461649 11.943573444958773 3.6378078023722802  0.99856032132268258 115.80020469527614 11.942858566194033 3.6108585081295761  0.9985603213219828 116.26555440950455 11.935692612811955 3.5839209478823504  0.99856032132281625 116.73121652408473 11.933845898304192 3.55697309272588  0.99856032132205674 117.19670321451744 11.927699869755628 3.5300290985827631  0.9985603213225871 117.66222942792766 11.921426035078206 3.5030826304995943  0.99856032132231132 118.12772061667849 11.913667915781033 3.4761360176284644  0.99856032132240991 119.05866213420479 11.895802632547024 3.4222417196380639  0.99856032132237393 119.52410751136048 11.885592063319514 3.3952941697614816  0.99856032132244665 119.98955021985513 11.874638553221345 3.3683456874064279  0.99856032132230166 120.45486638097067 11.860222156612714 3.3413994615180256  0.99856032132246775 120.92035053260463 11.848732333973388 3.3144477964833063  0.99856032132237105 121.38527425569188 11.824086463982646 3.2875093133044384  0.99856032132236128 121.85085187683272 11.813716261212171 3.2605538777027223  0.99856032132243111 122.31561506012686 11.785634763023303 3.2336196578128833  0.99856032132236949 122.78059401253758 11.762563229241003 3.2066802820415967  0.99856032132239692 123.24555870953679 11.739081094644462 3.1797411304507324  0.99856032132239136 
113.93793793565504 11.953532222153925 3.719104096578365  0.99578019981135735 114.40349256794876 11.951097296982233 3.6921616002605058  0.99578019981138721 114.86906565339885 11.949064540095939 3.6652186245281873  0.99578019981124077 115.33453728031097 11.945326904429379 3.638279025421828  0.9957801998115926 115.80025678827907 11.944611976129764 3.6113295050135279  0.99578019981103183 116.26561039432021 11.937445963772312 3.5843917194834707  0.9957801998116933 116.731276418604 11.935599180390902 3.5574436379944525  0.99578019981109256 117.19676700689676 11.929453073401476 3.5304994181901792  0.99578019981151278 117.66229712252647 11.92317915058414 3.5035527241793107  0.99578019981129373 118.12779221201474 11.915420933477577 3.4766058854521629  0.99578019981137245 119.05874153099022 11.897555435273269 3.4227111357228517  0.99578019981134236 119.5241908087082 11.887344748886356 3.3957633599720625  0.99578019981140631 119.9896374174354 11.876391111953893 3.3688146517476993  0.99578019981127575 120.45495747928929 11.861974578805658 3.3418681999465862  0.99578019981143384 120.92044552828332 11.850484610083058 3.3149163091805822  0.99578019981132138 121.38537315358258 11.825838584115843 3.2879775999752678  0.99578019981135113 121.85095467087737 11.8154682159443 3.2610219386838768  0.99578019981137911 122.3157217537551 11.787386542519769 3.2340874928914443  0.99578019981134258 122.78070460379062 11.764314823899525 3.2071478913169411  0.99578019981136145 123.24567319809152 11.74083249479488 3.1802085139273646  0.99578019981135735 
113.93799870097641 11.955104131045843 3.7200120434058164  0.99856032132239081 114.40355683261269 11.952669187572937 3.6930693445746043  0.99856032132242489 114.86913341711983 11.950636403709126 3.6661261663328113  0.99856032132225891 115.33460854311107 11.946898732402076 3.6391863647029559  0.99856032132265526 115.80033155522341 11.946183759688637 3.6122366414652474  0.99856032132203487 116.26568865152861 11.939017694435499 3.5852986538966412  0.99856032132274297 116.73135818210321 11.93717084928339 3.5583503694285454  0.99856032132212857 117.19685226607972 11.931024671956052 3.5314059472465691  0.99856032132253469 117.6623858812944 11.924750670084833 3.50445905061944  0.99856032132233563 118.12788446904189 11.916992365264171 3.4775120093400917  0.99856032132240391 119.05884078451118 11.899126674270633 3.4236168544824022  0.9985603213223766 119.52429356033038 11.888915882806728 3.3966688761631532  0.99856032132244132 119.98974366686414 11.877962132145235 3.3697199653747294  0.99856032132230277 120.45506722697559 11.863545476512407 3.3427733109706046  0.99856032132247818 120.92055877120137 11.852055376821575 3.3158212177643893  0.99856032132233918 121.38548989607982 11.827409210931663 3.2888823058539889  0.99856032132240435 121.85107490752344 11.817038694453998 3.2619264421597154  0.99856032132239336 122.31584548762447 11.788956863858843 3.2349917937733288  0.99856032132238848 122.78083183312715 11.765884979478386 3.2080519896940456  0.99856032132239059 123.24580392260526 11.742402475933787 3.1811124098037178  0.99856032132239081 
113.93807895899985 11.956376745118703 3.7212838625775082  1.0070183540536659 114.40363992544287 11.953941786820245 3.6943409996908425  1.0070183540537052 114.86921934452627 11.951908981101084 3.6673976573967142  1.0070183540535138 115.33469730510906 11.948171280923304 3.6404576917032379  1.0070183540539799 115.80042315592137 11.947456272230603 3.6135078041539606  1.0070183540532247 116.26578307967499 11.940290164121457 3.5865696529146112  1.0070183540541229 116.7314554506888 11.938443268940034 3.5596212040137152  1.0070183540533135 117.1969523665057 11.932297034619978 3.5326766178862132  1.0070183540538624 117.66248881672483 11.926022968715522 3.5057295571202434  1.0070183540535915 118.12799023840121 11.918264592835314 3.4787823517539715  1.0070183540536819 119.05895222170911 11.900398745662855 3.4248868687030045  1.0070183540536513 119.52440783132953 11.890187869084592 3.3979387262836585  1.0070183540537103 119.98986077142577 11.879234026266978 3.3709896513986832  1.0070183540535962 120.45518716546553 11.864817271454541 3.3440428328665353  1.0070183540537236 120.9206815411671 11.853327065608802 3.3170905756639826  1.0070183540536433 121.38561550104508 11.828680786423575 3.2901514995429646  1.0070183540536664 121.8512033430876 11.81831014976364 3.2631954718826028  1.0070183540536632 122.31597675627883 11.790228191866071 3.236260659375521  1.0070183540536737 122.7809659334489 11.767156173196099 3.2093206912477132  1.0070183540536612 123.24594085435952 11.74367352833972 3.1823809473121378  1.0070183540536659 
113.93817223553819 11.957259864631794 3.7228158341933564  1.0216830577285627 114.40373517128396 11.95482489603399 3.6958728573395336  1.0216830577285976 114.86931655951014 11.952792075133793 3.6689294010804261  1.0216830577284295 115.33479648924597 11.949054354895175 3.6419893214140822  1.0216830577288285 115.80052431206624 11.948339321216508 3.6150393197198056  1.0216830577282061 116.26588620000996 11.941173183325937 3.5881010547804522  1.0216830577289113 116.73156054424025 11.939326253398136 3.5611524916503545  1.0216830577283111 117.19705942729881 11.933179979480741 3.5342077916320038  1.0216830577286942 117.66259784695822 11.926905869096061 3.5072606168409726  1.021683057728515 118.12810123732748 11.919147443850328 3.480313297485679  1.0216830577285732 119.05906715800802 11.901281488183848 3.4264175864431778  1.0216830577285525 119.52452473623259 11.891070552471625 3.3994693300256622  1.0216830577285905 119.98997964476769 11.880116645651178 3.3725201411449945  1.0216830577285394 120.45530800749907 11.865699821911683 3.3455732085952192  1.0216830577285276 120.92080435019054 11.854209542354894 3.3186208374666903  1.0216830577286753 121.38574027950484 11.82956318443626 3.2916816472705976  1.0216830577284191 121.8513300879266 11.819192464305026 3.2647255057052509  1.0216830577286726 122.31610546922876 11.791110417964525 3.2377905791856532  1.021683057728511 122.78109661352043 11.768038306007561 3.2108504970955107  1.0216830577285752 123.24607350138987 11.744555562983436 3.1839106391998686  1.0216830577285627 

0 7
1.3089981452573798 7

0 11
4.6631500036245397 9
9.3263000072490794 11

9 0 0 0 0 1 10 2 20 2 3 113.93817223553816 11.957259864631785 3.7228158341933564  114.40373517128876 11.954824896034655 3.695872857339717  114.86930917564997 11.952662024092884 3.6689296380789802  115.33482971657112 11.949639584572722 3.6419882549189126  115.80045311068351 11.947085257625899 3.6150416050676202  116.26597661445238 11.942765645026299 3.5880981527510518  116.73148934286552 11.938072189809384 3.5611547769984879  117.19709265461373 11.933765209156116 3.5342067251364089  117.66259046310432 11.926775818056408 3.5072608538398193  118.12810123733065 11.919147443850676 3.4803132974857554  119.05906715800482 11.901281488183525 3.4264175864431374  119.52452473624444 11.891070552472591 3.3994693300257022  119.98997964474385 11.880116645649885 3.3725201411450723  120.45530800753042 11.865699821912113 3.3455732085948697  120.92080435016079 11.854209542355573 3.318620837467293  121.3857402795261 11.829563184435354 3.2916816472699688  121.85133008791502 11.819192464305427 3.2647255057056821  122.31610546923349 11.791110417964527 3.2377905791854644  122.78109661351911 11.768038306007501 3.210850497095556  123.24607350138987 11.744555562983431 3.1839106391998686  
113.9393887457157 11.968777483685844 3.7427957682418262  114.4049773650558 11.966342380768621 3.7158513050318351  114.87057704848456 11.964179310842562 3.6889065995840569  115.33612328443652 11.96115660959641 3.6619637292180904  115.80177236297676 11.958601957071446 3.6350155926841108  116.26732153696183 11.954281955585902 3.6080706544108216  116.73285994670157 11.949588047693783 3.5811257919689026  117.19848894959986 11.945280550308965 3.5541762527525766  117.6640124300811 11.938290579201473 3.5272288951195296  118.12954888237741 11.930661561165232 3.5002798519830418  119.06056615415137 11.912794190511615 3.4463811674814258  119.52604940686992 11.90258248361077 3.4194314243033053  119.99152998768862 11.891627741981383 3.392480748693635  120.45688402609845 11.877210019424817 3.3655323291301258  120.92240602215612 11.865718778403982 3.3385784721812244  121.38736763683798 11.841071393731829 3.3116377942223241  121.85298309070912 11.830699584935877 3.2846801671108485  122.31778414005696 11.80261638512895 3.2577437536435649  122.78280093949279 11.779543056528977 3.2308021852599027  123.24780348038188 11.756059033202607 3.2038608411003873  

0 2
0.023094008103134788 2

0 11
4.6631500036245397 9
9.3263000072490794 11

Triangulations 7
4 2 1 2.59130482709856e-006
114.63 11.9386676168963 3.71581182765511 114.638842254655 11.9386227859879 3.71530011230987 114.637166252829 11.9386652162924 3.68634861548164 114.63 11.9387007540997 3.68676333675133 0 0.691164399061826 0 0.700021583003723 0.028999999165535 0.700020837650964 0.028999999165535 0.692842488357211 4 2 1 3 2 4 
5 3 1 1.49309920944105e-014
114.638842254655 11.9386227859879 3.71530011230987 114.63 11.963940959602 3.71584880174418 114.637857505217 11.94766967215 3.7153703293264 114.634858375805 11.9562557990801 3.71555643269966 114.63 11.9386676168963 3.71581182765511 0.0364454104516998 -3.96295357018922 0.0113269073445765 -3.97235367965452 0.0274256299452286 -3.96413447956804 0.0189059174855355 -3.96732281564812 0.0365944174355063 -3.9718094807902 5 3 4 5 4 2 1 3 5 
15 13 1 4.75467104951835e-005
114.63 11.9387007540997 3.68676333675133 114.637166252829 11.9386652162924 3.68634861548164 114.637143483168 11.9386697272884 3.68595491314291 114.636311311384 11.944602470227 3.67866643089697 114.636528332298 11.9431236471319 3.67920962068747 114.636698527501 11.9417632455008 3.68005052936072 114.636831483642 11.9405768435159 3.68117486749966 114.636940626737 11.9396235043669 3.68255972835291 114.637040619733 11.9389660794015 3.68417015946504 114.63 11.9446373510104 3.67903168074448 114.63 11.9430131724252 3.67966168484966 114.63 11.9415637346823 3.68062892761551 114.63 11.9403577652972 3.68188753625001 114.63 11.9394524283503 3.68337784673184 114.63 11.938890636326 3.68502921363128 0 0.692842488357211 0 0.700020835375953 0.0493119785551898 0.700020890729241 1.3089954444807 0.69956044495464 1.11136111089634 0.699758372082636 0.910626144616261 0.699891340792133 0.705485939465371 0.699969269432316 0.494536149684275 0.700006377617943 0.276317169440405 0.70001878381229 1.3089954444807 0.693238635249525 1.09082821120389 0.693216094642138 0.872661412170642 0.693172577811946 0.654495219132999 0.693110148444101 0.436329656845003 0.693031765969665 0.218164638303402 0.692941146170789 3 2 1 3 1 15 9 15 14 9 3 15 8 14 13 8 9 14 7 13 12 7 8 13 6 12 11 6 7 12 5 6 11 4 11 10 4 5 11 
16 14 1 2.23695529839169e-007
114.63 11.9387007540997 3.68676333675133 114.63 11.9386676168963 3.71581182765511 114.63 11.963940959602 3.71584880174418 114.63 11.9626690186782 3.69849850626046 114.63 11.9536319531724 3.68277848475701 114.63 11.9446373510104 3.67903168074448 114.63 11.9526035710681 3.68136990930759 114.63 11.9512952593179 3.68021758739353 114.63 11.9497690635591 3.67937611920189 114.63 11.9480973109957 3.67888543338246 114.63 11.9463592784725 3.67876877500365 114.63 11.9430131724252 3.67966168484966 114.63 11.9415637346823 3.68062892761551 114.63 11.9403577652972 3.68188753625001 114.63 11.9394524283503 3.68337784673184 114.63 11.938890636326 3.68502921363128 -0.0219268027390913 -11.9387007540997 0.00712168816468184 -11.9386676168963 0.00715866225375512 -11.963940959602 -0.0101916347829359 -11.9626690389619 -0.0259116522089577 -11.9536336787562 -0.0296584587459425 -11.9446373510104 -0.0273202301828327 -11.9526035710681 -0.0284725520968998 -11.9512952593179 -0.0293140202885378 -11.9497690635591 -0.0298047061079704 -11.9480973109957 -0.029921364486773 -11.9463592784725 -0.0290284546407645 -11.9430131724252 -0.028061211874913 -11.9415637346823 -0.0268026032404193 -11.9403577652972 -0.0253122927585839 -11.9394524283503 -0.0236609258591471 -11.938890636326 6 11 10 12 10 9 12 6 10 13 9 8 13 12 9 14 8 7 14 13 8 15 14 7 1 5 4 1 7 5 1 16 15 1 15 7 2 4 3 2 1 4 
19 17 1 0.00027601065755857
114.638842254655 11.9386227859879 3.71530011230987 114.637166252829 11.9386652162924 3.68634861548164 114.637143483168 11.9386697272884 3.68595491314291 114.636311311384 11.944602470227 3.67866643089697 114.636528332298 11.9431236471319 3.67920962068747 114.636698527501 11.9417632455008 3.68005052936072 114.636831483642 11.9405768435159 3.68117486749966 114.636940626737 11.9396235043669 3.68255972835291 114.637040619733 11.9389660794015 3.68417015946504 114.634132547308 11.9536091199123 3.68253932491751 114.634458964464 11.9525256501676 3.68105404338126 114.634852720826 11.9511818822927 3.67987670294498 114.635266123435 11.9496504380121 3.67903470478226 114.635662174566 11.9479995249595 3.67854619580437 114.636015332287 11.9462950345899 3.6784220242175 114.63 11.9626690186782 3.69849850626046 114.63 11.963940959602 3.71584880174418 114.637857505217 11.94766967215 3.7153703293264 114.634858375805 11.9562557990801 3.71555643269966 1.57079677647712 -0.209982011460388 1.57079677647712 -0.238982010597314 1.57079677647712 -0.239376377011806 1.42225654582623 -0.246709457917389 1.45949806623329 -0.246152466986109 1.4936136880008 -0.245301134863116 1.52328178811002 -0.244169254477485 1.54707591047185 -0.242779004898705 1.56345345529663 -0.241164524819693 1.18857649702528 -0.242982158664745 1.2176040551575 -0.244444503518462 1.25316312177004 -0.245595149076288 1.29318024147804 -0.246409602749305 1.335809863066 -0.246871986153278 1.37936795697589 -0.246973041941368 0.92805564319473 -0.227301779598963 0.887061031762932 -0.209982366500444 1.34288486157215 -0.20998208237987 1.11497294666725 -0.209982202802702 12 10 11 19 16 10 19 17 16 2 4 5 2 5 6 2 6 7 2 7 8 2 8 9 2 9 3 2 14 15 2 15 4 18 12 13 18 13 14 18 10 12 18 19 10 18 14 2 1 18 2 
14 12 1 4.75480489843693e-005
114.63 11.9446373510104 3.67903168074448 114.636311311384 11.944602470227 3.67866643089697 114.634132547308 11.9536091199123 3.68253932491751 114.634458964464 11.9525256501676 3.68105404338126 114.634852720826 11.9511818822927 3.67987670294498 114.635266123435 11.9496504380121 3.67903470478226 114.635662174566 11.9479995249595 3.67854619580437 114.636015332287 11.9462950345899 3.6784220242175 114.63 11.9536319531724 3.68277848475701 114.63 11.9526035710681 3.68136990930759 114.63 11.9512952593179 3.68021758739353 114.63 11.9497690635591 3.67937611920189 114.63 11.9480973109957 3.67888543338246 114.63 11.9463592784725 3.67876877500365 0 0.693238635249525 0 0.699560444954692 1.30899814525738 0.697084662329073 1.08101543164747 0.697505579535959 0.859507846924596 0.697978157478277 0.64241352856535 0.698452584884276 0.427898741084909 0.698890297542898 0.21428860530919 0.699264606814452 1.30899814525738 0.692945418867298 1.09083309417029 0.693035572029186 0.872667435113027 0.693113309480875 0.654501148599007 0.693174947351693 0.436334335690083 0.693217561424634 0.218167201456211 0.693239131852743 8 2 1 8 1 14 7 14 13 7 8 14 6 13 12 6 7 13 5 12 11 5 6 12 4 11 10 4 5 11 3 10 9 3 4 10 
3 1 1 1.0212748991871e-006
114.63 11.9536319531724 3.68277848475701 114.634132547308 11.9536091199123 3.68253932491751 114.63 11.9626690186782 3.69849850626046 0 0.692945418867298 0 0.697084662329088 0.0181063421320671 0.691960069839196 3 2 1 

TShapes 50
Ve
1.50000030677533e-007
114.63 11.9386676168963 3.71581182765511
0 0

0101101
*
Ve
4.07420365323028e-006
114.638842254655 11.9386227859879 3.71530011230987
0 0

0101101
*
Ed
 1e-007 1 1 0
1  1 0 0.691164399061826 0.700021583003723
2  1 1 0 0.691164399061826 0.700021583003723
2  2 2 0 0.691164399061826 0.700021583003723
6  1 1 0
6  2 2 0
0

0101000
+50 0 -49 0 *
Ve
1.26717929675348e-005
114.637166252829 11.9386652162924 3.68634861548164
0 0

0101101
*
Ed
 1e-007 1 1 0
1  2 0 0 1
2  3 1 0 0 1
2  4 3 0 0 1
6  3 1 0
0

0101000
+47 0 -49 0 *
Ve
8.83870260292352e-006
114.63 11.9387007540997 3.68676333675133
0 0

0101101
*
Ed
 8.73870160292352e-006 1 1 0
1  3 0 0.692842488357211 0.700020835375953
2  5 1 0 0.692842488357211 0.700020835375953
2  6 4 0 0.692842488357211 0.700020835375953
4 G1 1 0 4 0
6  4 1 0
6  5 3 0
0

0101000
+45 0 -47 0 *
Ed
 1e-007 1 1 0
1  4 0 0 1
2  7 1 0 0 1
2  8 5 0 0 1
6  6 1 0
6  7 4 0
0

0101000
+45 0 -50 0 *
Wi

0101100
-48 0 +46 0 +44 0 -43 0 *
Fa
0  1e-007 1 0
2  1
0111000
+42 0 *
Ve
1.50000000888178e-007
114.63 11.963940959602 3.71584880174418
0 0

0101101
*
Ed
 1e-007 1 1 0
1  5 0 0.188590950549263 0.872326695263309
2  9 2 0 0.188590950549263 0.872326695263309
2  10 6 0 0.188590950549263 0.872326695263309
6  8 5 0
6  9 2 0
0

0101000
+49 0 -40 0 *
Ed
 1.5e-007 1 1 0
1  6 0 5.99380115954906 6.01907452930062
2  11 2 0 5.99380115954906 6.01907452930062
2  12 5 0 5.99380115954906 6.01907452930062
6  10 2 0
6  11 4 0
0

0101000
+50 0 -40 0 *
Wi

0101100
+39 0 +48 0 -38 0 *
Fa
0  1e-007 2 0
2  2
0111000
+37 0 *
Ed
 1e-007 1 1 0
1  7 0 0.209982011460388 0.238982010597314
2  13 6 0 0.209982011460388 0.238982010597314
4 G1 6 0 3 0
2  14 3 0 0.209982011460388 0.238982010597314
6  12 5 0
0

0101000
+49 0 -47 0 *
Wi

0101100
+35 0 +46 0 *
Fa
0  1e-007 3 0

0111000
+34 0 *
Ve
2.00001e-007
114.637143483168 11.9386697272884 3.68595491314291
0 0

0101101
*
Ed
 1e-007 1 1 0
1  8 0 0 1
2  15 4 0 0 1
2  16 3 0 0 1
6  13 3 0
0

0101000
+32 0 -47 0 *
Ve
2.00001e-007
114.636311311384 11.944602470227 3.67866643089697
0 0

0101101
*
Ed
 1e-007 1 1 0
1  9 0 0 1
2  17 4 0 0 1
2  18 6 0 0 1
6  14 3 0
6  15 5 0
0

0101000
+30 0 -32 0 *
Ve
2.00001e-007
114.63 11.9446373510104 3.67903168074448
0 0

0101101
*
Ed
 1e-007 1 1 0
1  10 0 0.693238635249525 0.699560444954692
2  19 4 0 0.693238635249525 0.699560444954692
2  20 7 0 0.693238635249525 0.699560444954692
4 G1 4 0 7 0
6  16 3 0
6  17 6 0
0

0101000
+28 0 -30 0 *
Ed
 1e-007 1 1 0
1  11 0 0 1
2  21 4 0 0 1
2  22 5 0 0 1
6  18 3 0
6  19 4 0
0

0101000
+28 0 -45 0 *
Wi

0101100
-44 0 +31 0 +29 0 +27 0 -26 0 *
Fa
0  1e-007 4 0
2  3
0111000
+25 0 *
Ve
2.00001e-007
114.63 11.9626690186782 3.69849850626046
0 0

0101101
*
Ed
 1e-007 1 1 0
1  12 0 3.77902769857425 3.82002192018841
2  23 6 0 3.77902769857425 3.82002192018841
2  24 5 0 3.77902769857425 3.82002192018841
6  20 5 0
6  21 4 0
0

0101000
+23 0 -40 0 *
Ve
8.83871172865482e-006
114.63 11.9536319531724 3.68277848475701
0 0

0101101
*
Ed
 1e-007 1 1 0
1  13 0 0.215972294034401 1
2  25 8 0 0.215972294034401 1
2  26 5 0 0.215972294034401 1
6  22 7 0
6  23 4 0
0

0101000
+23 0 -21 0 *
Ed
 1e-007 1 1 0
1  14 0 0 1
2  27 7 0 0 1
2  28 5 0 0 1
6  24 6 0
6  25 4 0
0

0101000
+21 0 -28 0 *
Wi

0101100
-43 0 -38 0 +22 0 -20 0 -19 0 -26 0 *
Fa
0  1e-007 5 0
2  4
0111000
+18 0 *
Ed
 1e-007 1 1 0
1  7 0 0.238982010597314 0.239376377011806
2  13 6 0 0.238982010597314 0.239376377011806
4 G1 6 0 3 0
2  14 3 0 0.238982010597314 0.239376377011806
6  26 5 0
0

0101000
+47 0 -32 0 *
Ve
8.83871172865482e-006
114.634132547308 11.9536091199123 3.68253932491751
0 0

0101101
*
Ed
 1e-007 1 1 0
1  15 0 0 1
2  29 7 0 0 1
2  30 6 0 0 1
6  27 6 0
6  28 5 0
0

0101000
+15 0 -30 0 *
Ed
 1e-007 1 1 0
1  16 0 0.234158120646458 1
2  31 8 0 0.234158120646458 1
2  32 6 0 0.234158120646458 1
6  29 7 0
6  30 5 0
0

0101000
+23 0 -15 0 *
Wi

0101100
-35 0 -16 0 +29 0 +14 0 +13 0 -22 0 +39 0 *
Fa
0  1e-007 6 0
2  5
0111000
+12 0 *
Wi

0101100
+31 0 +16 0 *
Fa
0  1e-007 3 0

0111000
+10 0 *
Ed
 8.73871072865482e-006 1 1 0
1  17 0 0.692945418867298 0.697084662329088
2  33 7 0 0.692945418867298 0.697084662329088
2  34 8 0 0.692945418867298 0.697084662329088
4 G1 7 0 8 0
6  31 6 0
6  32 7 0
0

0101000
+21 0 -15 0 *
Wi

0101100
-27 0 +14 0 +8 0 -19 0 *
Fa
0  1e-007 7 0
2  6
0111000
+7 0 *
Wi

0101100
-8 0 +13 0 -20 0 *
Fa
0  1e-007 8 0
2  7
0111000
+5 0 *
Sh

0101100
+41 0 +36 0 -33 0 +24 0 -17 0 -11 0 -9 0 +6 0 +4 0 *
So

0100000
+3 0 *
Co

1100000
+2 0 *

+1 0 
0

