DBRep_DrawableShape

CASCADE Topology V1, (c) Matra-Datavision
Locations 0
Curve2ds 21
1 0 0 0 1 
1 0 10 1 0 
1 0 0 0 -1 
1 0 0 0 1 
1 0 0 0 1 
1 0 0 1 0 
1 0 0 0 1 
1 0 0 1 0 
1 3 0 1 0 
1 0 0 0 1 
1 0 0 1 0 
1 3 0 1 0 
1 0 0 0 -1 
1 10 0 0 1 
1 13 0 0 1 
1 0 0 0 1 
1 0 10 1 0 
1 3 10 1 0 
1 0 0 0 1 
1 0 10 1 0 
1 3 10 1 0 
Curves 6
1 0 10 0 1 0 -0 
1 0 0 0 -0 1 0 
1 0 0 0 1 0 -0 
1 3 0 0 1 0 -0 
1 13 0 0 -0 1 0 
1 3 10 0 1 0 -0 
Polygon3D 0
PolygonOnTriangulations 0
Surfaces 8
1 0 0 0 0 0 1 1 0 -0 -0 1 0 
1 0 10 0 -0 1 0 0 0 1 1 0 -0 
1 0 0 0 1 0 -0 0 0 1 0 -1 0 
1 0 0 0 -0 1 0 0 0 1 1 0 -0 
1 3 0 0 -0 1 0 0 0 1 1 0 -0 
1 3 0 0 0 0 1 1 0 -0 -0 1 0 
1 13 0 0 1 0 -0 0 0 1 0 -1 0 
1 3 10 0 -0 1 0 0 0 1 1 0 -0 
Triangulations 0

TShapes 20
Ve
1e-007
3 10 0
0 0

0101101
*
Ve
1e-007
0 10 0
0 0

0101101
*
Ed
 1e-007 1 1 0
1  1 0 0 3
2  1 2 0 0 3
2  2 1 0 0 3
0

0101000
-20 0 +19 0 *
Ve
1e-007
0 0 0
0 0

0101101
*
Ed
 1e-007 1 1 0
1  2 0 0 10
2  3 3 0 0 10
2  4 1 0 0 10
0

0101000
-19 0 +17 0 *
Ve
1e-007
3 0 0
0 0

0101101
*
Ed
 1e-007 1 1 0
1  3 0 0 3
2  5 4 0 0 3
2  6 1 0 0 3
0

0101000
+17 0 -15 0 *
Ve
1e-007
10 0 0
0 0

0101101
*
Ed
 1e-007 1 1 0
1  4 0 0 7
2  7 5 0 0 7
2  8 6 0 0 7
2  9 1 0 0 7
0

0101000
+15 0 -13 0 *
Ve
1e-007
13 0 0
0 0

0101101
*
Ed
 1e-007 1 1 0
1  4 0 7 10
2  10 5 0 7 10
2  11 6 0 7 10
2  12 1 0 7 10
0

0101000
+13 0 -11 0 *
Ve
1e-007
13 10 0
0 0

0101101
*
Ed
 1e-007 1 1 0
1  5 0 0 10
2  13 7 0 0 10
2  14 6 0 0 10
2  15 1 0 0 10
0

0101000
+11 0 -9 0 *
Ve
1e-007
10 10 0
0 0

0101101
*
Ed
 1e-007 1 1 0
1  6 0 7 10
2  16 8 0 7 10
2  17 6 0 7 10
2  18 1 0 7 10
0

0101000
-9 0 +7 0 *
Ed
 1e-007 1 1 0
1  6 0 0 7
2  19 8 0 0 7
2  20 6 0 0 7
2  21 1 0 0 7
0

0101000
-7 0 +20 0 *
Wi

0101100
-18 0 -16 0 +14 0 +12 0 +10 0 +8 0 -6 0 -5 0 *
Fa
0  1e-007 1 0

0101000
+4 0 *
Sh

0101000
-3 0 *
Co

1100000
+2 0 *

+1 0 
0

