DBRep_DrawableShape

CASCADE Topology V1, (c) Matra-Datavision
Locations 0
Curve2ds 32
8 -157.92739014801265 7.9273901480126483
1 -40 -54.244294147625865 -1 0 
8 -157.92739014801265 7.9273901480126483
1 53.816349035423251 40 0 -1 
8 -83.427390148012648 58.427390148012641
1 12.5 -54.244294147625865 -1 0 
8 -83.427390148012648 58.427390148012641
1 -12.5 51.183650964576756 -1 0 
8 -157.92739014801265 7.9273901480126483
1 -40 -54.244294147625865 -1 0 
8 -157.92739014801265 7.9273901480126483
1 -53.816349035423251 40 0 -1 
8 -83.427390148012648 58.427390148012648
1 12.5 -54.244294147625865 -1 0 
8 -83.427390148012648 58.427390148012648
1 12.5 178.81634903542326 1 0 
8 -133.92739014801265 -16.072609851987373
1 -40 -50.771330594287257 -1 0 
8 -133.92739014801265 -16.072609851987373
1 33.816349035423258 40 0 -1 
8 -59.427390148012648 34.427390148012648
1 12.5 -50.771330594287257 -1 0 
8 -59.427390148012648 34.427390148012648
1 12.5 158.81634903542326 1 0 
8 -18.927390148012648 98.92739014801262
1 75 -50.771330594287257 -1 0 
8 -18.927390148012648 98.92739014801262
1 -33.816349035423258 75 0 1 
8 -59.427390148012648 34.427390148012641
1 12.5 -50.771330594287257 -1 0 
8 -59.427390148012648 34.427390148012641
1 -12.5 71.183650964576742 -1 0 
8 -83.427390148012648 58.427390148012648
1 12.5 -54.244294147625865 -1 0 
8 -83.427390148012648 58.427390148012648
1 12.5 -178.81634903542326 1 0 
8 -157.92739014801265 7.9273901480126483
1 -40 -54.244294147625865 -1 0 
8 -157.92739014801265 7.9273901480126483
1 -53.816349035423251 -40 0 1 
8 -83.427390148012648 58.427390148012641
1 12.5 -54.244294147625865 -1 0 
8 -83.427390148012648 58.427390148012641
1 -12.5 -51.183650964576756 -1 0 
8 -157.92739014801265 7.9273901480126483
1 -40 -54.244294147625865 -1 0 
8 -157.92739014801265 7.9273901480126483
1 53.816349035423251 -40 0 1 
8 -18.927390148012648 98.927390148012648
1 75 -50.771330594287257 -1 0 
8 -18.927390148012648 98.927390148012648
1 33.816349035423258 -75 0 -1 
8 -59.427390148012648 34.427390148012648
1 12.5 -50.771330594287257 -1 0 
8 -59.427390148012648 34.427390148012648
1 12.5 -71.183650964576742 1 0 
8 -133.92739014801265 -16.072609851987373
1 -40 -50.771330594287257 -1 0 
8 -133.92739014801265 -16.072609851987373
1 -33.816349035423258 -40 0 1 
8 -59.427390148012648 34.427390148012641
1 12.5 -50.771330594287257 -1 0 
8 -59.427390148012648 34.427390148012641
1 -12.5 -158.81634903542326 -1 0 
Curves 16
1 53.816349035423251 40 90 0 -1 0 
1 -12.5 51.183650964576756 90 -1 0 0 
1 -53.816349035423251 40 90 0 -1 0 
1 12.5 178.81634903542326 90 1 0 0 
1 33.816349035423258 40 90 0 -1 0 
1 12.5 158.81634903542326 90 1 0 0 
1 -33.816349035423258 75 90 -0 1 0 
1 -12.5 71.183650964576742 90 -1 0 0 
1 12.5 -178.81634903542326 90 1 -0 0 
1 -53.816349035423251 -40 90 -0 1 0 
1 -12.5 -51.183650964576756 90 -1 -0 0 
1 53.816349035423251 -40 90 0 1 -0 
1 33.816349035423258 -75 90 0 -1 0 
1 12.5 -71.183650964576742 90 1 0 0 
1 -33.816349035423258 -40 90 -0 1 0 
1 -12.5 -158.81634903542326 90 -1 0 0 
Polygon3D 0
PolygonOnTriangulations 0
Surfaces 17
1 0 0 90 0 0 1 1 0 -0 -0 1 0 
1 44.396926207859082 80 143.42020143325669 0.98480775301220813 0 0.17364817766693039 -0 1 0 -0.17364817766693039 -0 0.98480775301220813 
1 -25 60.603073792140918 143.42020143325669 0 -0.98480775301220813 0.17364817766693039 1 0 0 -0 0.17364817766693039 0.98480775301220813 
1 -44.396926207859082 80 143.42020143325669 -0.98480775301220813 -0 0.17364817766693039 -0 1 0 0.17364817766693039 -0 0.98480775301220813 
1 25 169.39692620785908 143.42020143325669 0 0.98480775301220813 0.17364817766693039 -1 0 0 0 -0.17364817766693039 0.98480775301220813 
1 25 80 140 0.98480775301220813 0 0.17364817766693039 -0 1 0 -0.17364817766693039 -0 0.98480775301220813 
1 25 150 140 0 0.98480775301220813 0.17364817766693039 -1 0 0 0 -0.17364817766693039 0.98480775301220813 
1 -25 150 140 -0.98480775301220813 -0 0.17364817766693039 0 -1 0 0.17364817766693039 0 0.98480775301220813 
1 -25 80 140 0 -0.98480775301220813 0.17364817766693039 1 0 0 -0 0.17364817766693039 0.98480775301220813 
1 25 -169.39692620785908 143.42020143325669 -0 -0.98480775301220813 0.17364817766693039 -1 0 -0 -0 0.17364817766693039 0.98480775301220813 
1 -44.396926207859082 -80 143.42020143325669 -0.98480775301220813 -0 0.17364817766693039 0 -1 -0 0.17364817766693039 0 0.98480775301220813 
1 -25 -60.603073792140918 143.42020143325669 -0 0.98480775301220813 0.17364817766693039 1 0 0 -0 -0.17364817766693039 0.98480775301220813 
1 44.396926207859082 -80 143.42020143325669 0.98480775301220813 -0 0.17364817766693039 -0 -1 0 -0.17364817766693039 0 0.98480775301220813 
1 25 -150 140 0.98480775301220813 0 0.17364817766693039 -0 1 0 -0.17364817766693039 -0 0.98480775301220813 
1 25 -80 140 0 0.98480775301220813 0.17364817766693039 -1 0 0 0 -0.17364817766693039 0.98480775301220813 
1 -25 -80 140 -0.98480775301220813 -0 0.17364817766693039 0 -1 0 0.17364817766693039 0 0.98480775301220813 
1 -25 -150 140 0 -0.98480775301220813 0.17364817766693039 1 0 0 -0 0.17364817766693039 0.98480775301220813 
Triangulations 0

TShapes 47
Ve
2.00001e-007
53.8163490354233 178.816349035423 90
0 0

0101101
*
Ve
2.00001e-007
53.8163490354233 51.1836509645767 90
0 0

0101101
*
Ed
 1e-007 1 1 0
1  1 0 -138.816349035423 -11.1836509645767
2  1 2 0 -138.816349035423 -11.1836509645767
2  2 1 0 -138.816349035423 -11.1836509645767
0

0101000
+47 0 -46 0 *
Ve
2.00001e-007
-53.8163490354232 51.1836509645767 90
0 0

0101101
*
Ed
 1e-007 1 1 0
1  2 0 -66.3163490354233 41.3163490354232
2  3 3 0 -66.3163490354233 41.3163490354232
2  4 1 0 -66.3163490354233 41.3163490354232
0

0101000
+46 0 -44 0 *
Ve
2.00001e-007
-53.8163490354233 178.816349035423 90
0 0

0101101
*
Ed
 1e-007 1 1 0
1  3 0 -138.816349035423 -11.1836509645767
2  5 4 0 -138.816349035423 -11.1836509645767
2  6 1 0 -138.816349035423 -11.1836509645767
0

0101000
+42 0 -44 0 *
Ed
 1e-007 1 1 0
1  4 0 -66.3163490354233 41.3163490354233
2  7 5 0 -66.3163490354233 41.3163490354233
2  8 1 0 -66.3163490354233 41.3163490354233
0

0101000
+42 0 -47 0 *
Wi

0101100
-45 0 -43 0 +41 0 -40 0 *
Ve
2.00001e-007
33.8163490354233 158.816349035423 90
0 0

0101101
*
Ve
2.00001e-007
33.8163490354233 71.1836509645768 90
0 0

0101101
*
Ed
 1e-007 1 1 0
1  5 0 -118.816349035423 -31.1836509645768
2  9 6 0 -118.816349035423 -31.1836509645768
2  10 1 0 -118.816349035423 -31.1836509645768
0

0101000
+38 0 -37 0 *
Ve
2.00001e-007
-33.8163490354233 158.816349035423 90
0 0

0101101
*
Ed
 1e-007 1 1 0
1  6 0 -46.3163490354233 21.3163490354233
2  11 7 0 -46.3163490354233 21.3163490354233
2  12 1 0 -46.3163490354233 21.3163490354233
0

0101000
+35 0 -38 0 *
Ve
2.00001e-007
-33.8163490354233 71.1836509645767 90
0 0

0101101
*
Ed
 1e-007 1 1 0
1  7 0 -3.81634903542326 83.8163490354232
2  13 8 0 -3.81634903542326 83.8163490354232
2  14 1 0 -3.81634903542326 83.8163490354232
0

0101000
+33 0 -35 0 *
Ed
 1e-007 1 1 0
1  8 0 -46.3163490354233 21.3163490354233
2  15 9 0 -46.3163490354233 21.3163490354233
2  16 1 0 -46.3163490354233 21.3163490354233
0

0101000
+37 0 -33 0 *
Wi

0101100
+36 0 +34 0 +32 0 +31 0 *
Fa
0  1e-007 1 0

0111000
+39 0 +30 0 *
Ve
2.00001e-007
-53.8163490354233 -178.816349035423 90
0 0

0101101
*
Ve
2.00001e-007
53.8163490354233 -178.816349035423 90
0 0

0101101
*
Ed
 1e-007 1 1 0
1  9 0 -66.3163490354233 41.3163490354233
2  17 10 0 -66.3163490354233 41.3163490354233
2  18 1 0 -66.3163490354233 41.3163490354233
0

0101000
+28 0 -27 0 *
Ve
2.00001e-007
-53.8163490354232 -51.1836509645767 90
0 0

0101101
*
Ed
 1e-007 1 1 0
1  10 0 -138.816349035423 -11.1836509645767
2  19 11 0 -138.816349035423 -11.1836509645767
2  20 1 0 -138.816349035423 -11.1836509645767
0

0101000
+28 0 -25 0 *
Ve
2.00001e-007
53.8163490354233 -51.1836509645767 90
0 0

0101101
*
Ed
 1e-007 1 1 0
1  11 0 -66.3163490354233 41.3163490354232
2  21 12 0 -66.3163490354233 41.3163490354232
2  22 1 0 -66.3163490354233 41.3163490354232
0

0101000
+23 0 -25 0 *
Ed
 1e-007 1 1 0
1  12 0 -138.816349035423 -11.1836509645767
2  23 13 0 -138.816349035423 -11.1836509645767
2  24 1 0 -138.816349035423 -11.1836509645767
0

0101000
+27 0 -23 0 *
Wi

0101100
+26 0 -24 0 +22 0 +21 0 *
Ve
2.00001e-007
33.8163490354233 -71.1836509645767 90
0 0

0101101
*
Ve
2.00001e-007
33.8163490354233 -158.816349035423 90
0 0

0101101
*
Ed
 1e-007 1 1 0
1  13 0 -3.81634903542326 83.8163490354232
2  25 14 0 -3.81634903542326 83.8163490354232
2  26 1 0 -3.81634903542326 83.8163490354232
0

0101000
+19 0 -18 0 *
Ve
2.00001e-007
-33.8163490354233 -71.1836509645768 90
0 0

0101101
*
Ed
 1e-007 1 1 0
1  14 0 -46.3163490354233 21.3163490354233
2  27 15 0 -46.3163490354233 21.3163490354233
2  28 1 0 -46.3163490354233 21.3163490354233
0

0101000
+16 0 -19 0 *
Ve
2.00001e-007
-33.8163490354233 -158.816349035423 90
0 0

0101101
*
Ed
 1e-007 1 1 0
1  15 0 -118.816349035423 -31.1836509645768
2  29 16 0 -118.816349035423 -31.1836509645768
2  30 1 0 -118.816349035423 -31.1836509645768
0

0101000
+14 0 -16 0 *
Ed
 1e-007 1 1 0
1  16 0 -46.3163490354233 21.3163490354233
2  31 17 0 -46.3163490354233 21.3163490354233
2  32 1 0 -46.3163490354233 21.3163490354233
0

0101000
+18 0 -14 0 *
Wi

0101100
+17 0 +15 0 +13 0 +12 0 *
Fa
0  1e-007 1 0

0111000
+20 0 +11 0 *
Wi

0101100
-31 0 -32 0 -34 0 -36 0 *
Fa
0  1e-007 1 0

0111000
+9 0 *
Wi

0101100
-12 0 -13 0 -15 0 -17 0 *
Fa
0  1e-007 1 0

0111000
+7 0 *
Wi

0101100
+40 0 -41 0 +43 0 +45 0 *
Wi

0101100
-21 0 -22 0 +24 0 -26 0 *
Fa
0  1e-007 1 0

0111000
+5 0 +4 0 *
Sh

0101100
+29 0 +10 0 +8 0 +6 0 +3 0 *
So

1100000
+2 0 *

+1 0 
0

