DBRep_DrawableShape

CASCADE Topology V1, (c) Matra-Datavision
Locations 1
1
1.11022302462516e-016               0               1               0 
              0               1               0               0 
             -1               0 1.11022302462516e-016               0 
Curve2ds 12
1 0 1.5707963267948966 1 0 
1 6.2831853071795862 -6.2831853071795862 0 1 
1 0 -6.2831853071795862 0 1 
1 0 -1.5707963267948966 1 0 
1 6.2831853071795862 0 0 1 
1 0 0 0 1 
1 0 3.7948345828188517 1 0 
1 0 8.7715360315403217 1 0 
1 6.2831853071795862 0 0 1 
1 0 0 0 1 
1 0 2.4883507243607346 1 0 
1 0 3.7948345828188517 1 0 
Curves 3
2 0 0 0 -2.4492935982947064e-016 -1 0 1 -2.4492935982947064e-016 0 0 0 1 6.0921836100000002
2 7.9601785700000001 0 0 0 -1 0 1 0 0 -0 0 1 10.023928570000001
2 7.9601785700000001 0 0 0 -1 0 1 0 0 -0 0 1 10.023928570000001
Polygon3D 0
PolygonOnTriangulations 0
Surfaces 2
4 0 0 0 0 0 1 1 0 -0 -0 1 0 6.0921836100000002
5 0 0 0 0 0 1 1 0 -0 -0 1 0 7.9601785700000001 10.023928570000001
Triangulations 0

TShapes 27
Ve
1e-007
3.73038657890223e-016 -9.13681196686973e-032 6.09218361
0 0

0101101
*
Ed
 1e-007 1 1 1
2  1 1 0 0 6.28318530717959
0

0101000
+27 0 -27 0 *
Ve
1e-007
3.73038657890223e-016 -9.13681196686973e-032 -6.09218361
0 0

0101101
*
Ed
 1e-007 1 1 0
1  1 0 4.71238898038469 7.85398163397448
3  2 3CN 1 0 4.71238898038469 7.85398163397448
0

0101000
-27 0 +25 0 *
Ed
 1e-007 1 1 1
2  4 1 0 0 6.28318530717959
0

0101000
+25 0 -25 0 *
Wi

0101100
-26 0 +24 0 +23 0 -24 0 *
Fa
0  1e-007 1 0

0111000
+22 0 *
Sh

0101100
+21 0 *
So

0100000
+20 0 *
Ve
1.02279777255865e-007
0 0 -6.09218360772022
0 0

0101101
*
Ve
1.02279779920401e-007
0 0 6.09218360772022
0 0

0101101
*
Ed
 1.002392857e-007 1 1 0
1  2 0 3.79483458281885 8.77153603154032
3  5 6C0 2 0 3.79483458281885 8.77153603154032
0

0101000
+18 0 -17 0 *
Ed
 1.002392857e-007 1 1 1
2  7 2 0 0 6.28318530717959
0

0101000
+18 0 -18 0 *
Ed
 1.002392857e-007 1 1 1
2  8 2 0 0 6.28318530717959
0

0101000
+17 0 -17 0 *
Wi

0101100
-16 0 +15 0 +16 0 -14 0 *
Fa
0  1.002392857e-007 2 0

0111000
+13 0 *
Sh

0101000
+12 0 *
Ve
1.02279774591331e-007
0 0 6.09218360772023
0 0

0101101
*
Ve
1.02279777255865e-007
0 0 -6.09218360772022
0 0

0101101
*
Ed
 1.002392857e-007 1 1 0
1  3 0 2.48835072436073 3.79483458281885
3  9 10C0 2 0 2.48835072436073 3.79483458281885
0

0101000
+10 0 -9 0 *
Ed
 1.002392857e-007 1 1 1
2  11 2 0 0 6.28318530717959
0

0101000
+10 0 -10 0 *
Ed
 1.002392857e-007 1 1 1
2  12 2 0 0 6.28318530717959
0

0101000
+9 0 -9 0 *
Wi

0101100
-8 0 +7 0 +8 0 -6 0 *
Fa
0  1.002392857e-007 2 0

0111000
+5 0 *
Sh

0101000
+4 0 *
So

0100000
+11 0 +3 0 *
Co

1100000
+19 0 +2 1 *

+1 0 
0

