DBRep_DrawableShape

CASCADE Topology V1, (c) Matra-Datavision
Locations 2
1
              1               0               0               0 
              0               1               0               0 
              0               0               1               0 
2  1 -1 0
Curve2ds 25
8 0 0.52359877559830981
1 5.7595865315812782 -3160.0291421756096 1 0 
8 0 0.52359877559829204
1 5.2359877559829862 -3160.0291421756096 1 0 
8 0 0.52359877559829737
1 4.7123889803846897 -3160.0291421756096 1 0 
8 0 0.5235987755982956
1 4.1887902047863941 -3160.0291421756096 1 0 
8 0 0.52359877559830093
1 3.6651914291880932 -3160.0291421756096 1 0 
8 0 0.52359877559830137
1 3.1415926535897922 -3160.0291421756056 1 -7.816531185164701e-12 
8 0 7.0352678814433602
1 3.1415926535897922 -3160.0291421756096 0 -1 
8 0 3.1415926535897958
1 6.283185307179588 -3167.064410057053 -1 0 
8 0 7.035267881447453
1 6.283185307179588 -3167.064410057053 1.3046328326641023e-18 1 
7 0 0  3 25 23  5.235987691917046 -278.93200211527352  5.2117329947460478 -278.93200203060127  5.1632230175489289 -278.93200186369268  5.0904563671520204 -278.93200162191118  5.0176880927135734 -278.9320013900047  4.9449182667088447 -278.93200116919712  4.8721469689561827 -278.93200096065857  4.7993742873184786 -278.932000765493  4.7266003169379172 -278.93200058473354  4.6538251598132954 -278.93200041933744  4.5810489242383641 -278.93200027018071  4.5082717242338646 -278.93200013805301  4.4354936789414161 -278.9320000236541  4.3627149119919899 -278.93199992759003  4.2899355508497168 -278.93199985036932  4.2171557261351156 -278.93199979240103  4.1443755709316363 -278.93199975399227  4.0715952200781933 -278.93199973534644  3.9988148094547911 -278.93199973656226  3.9260344752530991 -278.93199975763309  3.8532543532808714 -278.93199979844809  3.7804745781356317 -278.93199985878886  3.7076952828804979 -278.93199993834372  3.6591761588792919 -278.93200000388907  3.634916720157634 -278.93200003972055 
 6.2630909890071349 4 6.3358456853238421 1 6.4086003816405501 1 6.4813550779572573 1 6.5541097742739645 1 6.6268644705906725 1 6.6996191669073797 1 6.7723738632240869 1 6.8451285595407949 1 6.9178832558575021 1 6.9906379521742092 1 7.0633926484909164 1 7.1361473448076245 1 7.2089020411243316 1 7.2816567374410397 1 7.3544114337577469 1 7.427166130074454 1 7.4999208263911612 1 7.5726755227078684 1 7.6454302190245764 1 7.7181849153412836 1 7.7909396116579916 1 7.8636943079746988 4
7 0 0  3 25 23  5.139000213543321 -2879.1494637415931  5.1340059300940224 -2879.1494637093169  5.1240173587818498 -2879.1494636476759  5.1090344897703268 -2879.1494635639574  5.0940516099120385 -2879.14946348901  5.0790687204068954 -2879.1494634228429  5.0640858224567378 -2879.1494633654752  5.0491029172653592 -2879.1494633169168  5.0341200060381874 -2879.1494632771837  5.0191370899819905 -2879.1494632462791  5.0041541703046439 -2879.1494632242116  4.9891712482148325 -2879.1494632109893  4.9741883249217755 -2879.1494632066115  4.9592054016349794 -2879.1494632110803  4.9442224795639342 -2879.1494632243957  4.9292395599178658 -2879.1494632465528  4.9142566439054516 -2879.1494632775489  4.8992737327345468 -2879.1494633173752  4.8842908276119195 -2879.1494633660236  4.8693079297429724 -2879.1494634234823  4.8543250403314895 -2879.1494634897399  4.8393421605792781 -2879.1494635647796  4.8243592916862408 -2879.1494636485872  4.8143707204613015 -2879.1494637102896  4.8093764370576793 -2879.1494637425953 
 0 4 0.014977537320661314 1 0.029955074641322629 1 0.044932611961983941 1 0.059910149282645257 1 0.074887686603306566 1 0.089865223923967882 1 0.1048427612446292 1 0.11982029856529051 1 0.13479783588595182 1 0.14977537320661313 1 0.16475291052727445 1 0.17973044784793576 1 0.19470798516859708 1 0.2096855224892584 1 0.22466305980991971 1 0.23964059713058103 1 0.25461813445124232 1 0.26959567177190363 1 0.28457320909256495 1 0.29955074641322627 1 0.31452828373388758 1 0.3295058210545489 4
7 0 0  3 4 2  -2.2234001662614133 0.093493550794818248  -2.2232137197836011 0.081213510203113515  -2.2230272733008576 0.068933469580471751  -2.2228408268088344 0.056653428982457399 
 0 4 0.036844367761881831 4
7 0 0  1 2 2  -2.2234001662614133 0.093493550794818248  -2.2228408268088344 0.056653428982457399 
 0 2 0.036844367761881831 2
7 0 0  3 25 23  6.2831853071795862 -278.93200004457987  6.2593847311380646 -278.93200001454721  6.2117833763679773 -278.93199995958304  6.1403808426956727 -278.93199989277218  6.0689779131940629 -278.93199984196104  5.9975746965473249 -278.93199980740235  5.9261713026466083 -278.93199978927373  5.854767842359065 -278.93199978766734  5.7833644268724411 -278.93199980259141  5.711961167150478 -278.93199983396994  5.6405581733593744 -278.93199988164281  5.5691555543063105 -278.93199994536701  5.4977534168830786 -278.93200002481802  5.4263518655197931 -278.93200011959033  5.3549510016516306 -278.93200022920115  5.283550923200635 -278.93200035309178  5.2121517240761737 -278.93200049063063  5.1407534936945316 -278.93200064111653  5.0693563165275091 -278.9320008037829  4.9979602716547236 -278.93200097780039  4.9265654324246304 -278.93200116228229  4.8551718658431318 -278.93200135628797  4.7837796331214486 -278.93200155883164  4.7361857350730796 -278.93200169885699  4.7123890260706318 -278.93200176994765 
 0 4 0.071381648771753362 1 0.14276329754350672 1 0.2141449463152601 1 0.28552659508701345 1 0.35690824385876679 1 0.4282898926305202 1 0.49967154140227354 1 0.57105319017402689 1 0.64243483894578024 1 0.71381648771753359 1 0.78519813648928694 1 0.85657978526104039 1 0.92796143403279374 1 0.99934308280454709 1 1.0707247315763004 1 1.1421063803480538 1 1.2134880291198071 1 1.2848696778915605 1 1.3562513266633138 1 1.4276329754350672 1 1.4990146242068205 1 1.5703962729785741 4
7 0 0  3 25 23  6.8370586385508085 -278.93200003040681  6.8127991820078915 -278.93199999505572  6.7642800256726243 -278.93199993045249  6.691500691382064 -278.93199985224828  6.6187208862264137 -278.93199979318797  6.5459407427615375 -278.93199975357663  6.4731603950374792 -278.9319997336263  6.400379978270724 -278.93199973344173  6.327599628022921 -278.93199975302446  6.2548194795079883 -278.9319997922704  6.1820396668666131 -278.93199985097192  6.1092603224552802 -278.93199992881796  6.0364815761429984 -278.93200002539635  5.9637035546216133 -278.9320001401955  5.8909263807332568 -278.93200027260741  5.8181501728183838 -278.93200042193098  5.7453750440884352 -278.93200058737546  5.6726011020241138 -278.93200076806454  5.5998284478117366 -278.93200096304173  5.5270571757858669 -278.93200117127435  5.4542873730108381 -278.93200139166038  5.3815191185204618 -278.93200162303191  5.3087524840205997 -278.93200186416806  5.2602425142284446 -278.93200203057478  5.235987819837101 -278.93200211497884 
 0 4 0.072754821397543357 1 0.14550964279508671 1 0.21826446419263007 1 0.29101928559017343 1 0.36377410698771678 1 0.43652892838526014 1 0.50928374978280355 1 0.58203857118034685 1 0.65479339257789015 1 0.72754821397543357 1 0.80030303537297698 1 0.87305785677052028 1 0.94581267816806358 1 1.0185674995656071 1 1.0913223209631504 1 1.1640771423606937 1 1.236831963758237 1 1.3095867851557803 1 1.3823416065533238 1 1.4550964279508671 1 1.5278512493484104 1 1.6006060707459537 4
7 0 0  3 91 89  6.934043289647307 -265.8665025505951  6.9336432479147527 -265.91510800449925  6.932843185260527 -266.01243958029397  6.931643153717209 -266.1587989480459  6.9304431846235817 -266.30552031955546  6.9292432779692792 -266.45260369593143  6.9280434337742376 -266.60004907303954  6.9268436519107093 -266.7478564663096  6.9256439328531769 -266.89602581815768  6.9244442748961319 -267.04455734348807  6.9232446844096991 -267.19345024026694  6.922045137590275 -267.34270750172607  6.9208457232184903 -267.49231795697335  6.9196461100045132 -267.64232329634456  6.9184475343820839 -267.79256792938838  6.9172453819098036 -267.94363252757347  6.9160575952918961 -268.09325926356951  6.9148869951822203 -268.24107912756125  6.9137251297583902 -268.38814953240308  6.9125671047590114 -268.53508600151122  6.911405397020447 -268.68284519502822  6.9102449166601332 -268.83080478389667  6.9090856205177813 -268.97896975163047  6.9079275194104079 -269.12733886109731  6.9067706132482565 -269.27591207731422  6.9056148915384776 -269.42469077734341  6.904460396279319 -269.57366948791963  6.9033069700119212 -269.72286872504242  6.9021552006245885 -269.87221189797793  6.9010028940212944 -270.02198485366307  6.8998595316204234 -270.17095251385007  6.8987250445177555 -270.31911575002653  6.8975966898744892 -270.46682704504133  6.8964725368922739 -270.61433535528494  6.8953501974729559 -270.76195213220552  6.8942288183428007 -270.9097896517834  6.8931085852637546 -271.05782348585979  6.8919894481176192 -271.20606022680812  6.8908714216267288 -271.35449793329195  6.8897544969825253 -271.50313777828524  6.8886386946428679 -271.65197701122668  6.887523941632316 -271.80102546138858  6.8864105094370043 -271.95024656224314  6.8852973850812766 -272.09977675062947  6.884189748376631 -272.24891863020173  6.8830879546406898 -272.39761960235717  6.8819918578742474 -272.54589506318547  6.8809015635463977 -272.6937264528591  6.8798166736851778 -272.84116304053032  6.8787320317354297 -272.98890403778375  6.8776486466233946 -273.13681269209081  6.876566247954373 -273.28492565409874  6.8754849083868042 -273.43323307374709  6.8744046076426368 -273.58173770063075  6.8733253541322181 -273.73043838642963  6.8722471345419347 -273.87933697482976  6.8711699937498407 -274.02842723940756  6.8700937655467476 -274.17773224217103  6.8690192062397344 -274.32714706747231  6.8679484622743718 -274.47637156435934  6.8668832309499193 -274.62516571249142  6.865825901130532 -274.77319059146504  6.8647764451133249 -274.92044275002183  6.863726444732615 -275.06810097743471  6.8626778484830355 -275.21589246372673  6.8616301342777888 -275.36389030678237  6.8605834419705323 -275.51207492504005  6.8595377341935198 -275.66045154686162  6.8584930205319523 -275.80901884036143  6.857449300061857 -275.95777690471982  6.8564065669208016 -276.10672667510227  6.855364845468408 -276.25586431166568  6.8543210778000425 -276.40562949266729  6.853279922870759 -276.55535465806571  6.8522443703619249 -276.7046067926824  6.8512194056070168 -276.85266062445635  6.8502035133247254 -276.99972536305944  6.8491864601547627 -277.14727990324633  6.8481708778773127 -277.29494391765508  6.8471560613105025 -277.44281931469561  6.8461421993986491 -277.59087878809146  6.8451292415055178 -277.73912965453746  6.8441172012101976 -277.88756995353111  6.8431060748801196 -278.03620021038756  6.8420958634874909 -278.18502028434898  6.841086566758916 -278.33403021313131  6.8400781847681227 -278.48322998662843  6.8390707175060088 -278.63261960754863  6.8380641649786238 -278.78219907516558  6.8373937397780633 -278.88204528483976  6.8370586796315207 -278.93200003081495 
 0 4 0.00014847705602499803 1 0.00029695411204999606 1 0.00044543116807499407 1 0.00059390822409999212 1 0.00074238528012499018 1 0.00089086233614998813 1 0.0010393393921749863 1 0.0011878164481999842 1 0.0013362935042249822 1 0.0014847705602499804 1 0.0016332476162749783 1 0.0017817246722999763 1 0.0019302017283249744 1 0.0020786787843499726 1 0.0022271558403749703 1 0.0023756328963999685 1 0.0025241099524249667 1 0.0026725870084499644 1 0.0028210640644749626 1 0.0029695411204999607 1 0.0031180181765249585 1 0.0032664952325499566 1 0.0034149722885749548 1 0.0035634493445999525 1 0.0037119264006249507 1 0.0038604034566499489 1 0.004008880512674947 1 0.0041573575686999452 1 0.0043058346247249425 1 0.0044543116807499407 1 0.0046027887367749388 1 0.004751265792799937 1 0.0048997428488249352 1 0.0050482199048499333 1 0.0051966969608749315 1 0.0053451740168999288 1 0.005493651072924927 1 0.0056421281289499251 1 0.0057906051849749233 1 0.0059390822409999214 1 0.0060875592970249196 1 0.0062360363530499169 1 0.0063845134090749151 1 0.0065329904650999132 1 0.0066814675211249114 1 0.0068299445771499096 1 0.0069784216331749077 1 0.007126898689199905 1 0.0072753757452249032 1 0.0074238528012499014 1 0.0075723298572748995 1 0.0077208069132998977 1 0.0078692839693248959 1 0.008017761025349894 1 0.0081662380813748922 1 0.0083147151373998904 1 0.0084631921934248885 1 0.008611669249449885 1 0.0087601463054748831 1 0.0089086233614998813 1 0.0090571004175248795 1 0.0092055774735498776 1 0.0093540545295748758 1 0.009502531585599874 1 0.0096510086416248721 1 0.0097994856976498703 1 0.0099479627536748685 1 0.010096439809699867 1 0.010244916865724865 1 0.010393393921749863 1 0.010541870977774859 1 0.010690348033799858 1 0.010838825089824856 1 0.010987302145849854 1 0.011135779201874852 1 0.01128425625789985 1 0.011432733313924848 1 0.011581210369949847 1 0.011729687425974845 1 0.011878164481999843 1 0.012026641538024841 1 0.012175118594049839 1 0.012323595650074837 1 0.012472072706099834 1 0.012620549762124832 1 0.01276902681814983 1 0.012917503874174828 1 0.013065980930199826 4
8 0 3.3961110673288806
1 3.5379322223184264 -265.86650255058726 1 -2.3098160358345701e-12 
7 0 0  3 91 89  3.6349167342170654 -278.93200003958088  3.6345797291662443 -278.88176590058765  3.633905679571916 -278.78139900381865  3.6328944866990791 -278.63115280240157  3.6318831753373919 -278.48121074446811  3.6308717454941277 -278.33157283094607  3.6298601971534565 -278.18223905837499  3.6288485304078355 -278.03320943967145  3.6278367449134539 -277.88448392662946  3.6268248419135034 -277.73606269915462  3.6258128167647885 -277.58794508583077  3.6248006868142744 -277.44013359241757  3.6237883873567598 -277.29261886729398  3.6227761598482808 -277.14543581118295  3.6217631031361983 -276.99845417281307  3.6207525803724181 -276.85216005654769  3.6197315149027718 -276.70466334220686  3.6186976854591508 -276.55565436400434  3.6176571730690665 -276.40601756864493  3.6166135316015593 -276.25626754409694  3.6155723449599253 -276.1072041996706  3.6145299936110296 -275.95830730213402  3.6134865037025512 -275.80958100802542  3.6124418688577724 -275.66102429232097  3.611396088423493 -275.51263709857682  3.6103491714129614 -275.36442067759367  3.6093010824698011 -275.21637008261069  3.608251953977879 -275.06850384987246  3.6072012917227556 -274.92075278115959  3.6061509401793557 -274.77337513310579  3.605092929835032 -274.62525489064842  3.6040272825094375 -274.47640232078584  3.6029563061371235 -274.32714498233543  3.6018816525930299 -274.17771655548023  3.6008054085912646 -274.02840894264051  3.5997282479974819 -273.87931547634656  3.5986500181966781 -273.7304149993513  3.597570760426779 -273.58171322803327  3.5964904623403862 -273.43320845412495  3.5954091321233701 -273.28490179431731  3.5943267494293716 -273.13679049011455  3.5932433874145979 -272.98888445880874  3.5921587737613221 -272.8411467897273  3.5910739245901793 -272.69371520826894  3.5899836464218446 -272.54588550947432  3.5888875409910166 -272.39760838572562  3.5877857168484386 -272.24890281184958  3.5866780293586138 -272.09975357224465  3.5855648388108836 -271.95021393058056  3.5844513593906338 -271.80098593500327  3.5833365713700704 -271.65193223503371  3.582220748045466 -271.50308964213338  3.5811038159528636 -271.35444826093595  3.5799857956944852 -271.20601086144501  3.5788666783730831 -271.05777625901203  3.5777464789210587 -270.90974642222801  3.5766251464682783 -270.76191466137743  3.5755028695744873 -270.61430576673115  3.5743787804515543 -270.46680560235637  3.5732504645179786 -270.31909920798665  3.5721159697098797 -270.17093483998821  3.5709725215764796 -270.02195590438811  3.5698200544503371 -269.87216199252498  3.5686681725436324 -269.72280417502594  3.567514653328772 -269.57359290188356  3.5663600923146888 -269.42460575633436  3.5652043299918406 -269.27582195544068  3.5640474089412466 -269.12724704771682  3.562889318390519 -268.97887962204169  3.5617300587840965 -268.83071977438618  3.5605696390811619 -268.68276853198864  3.5594080230189027 -268.53502168992395  3.5582490265703761 -268.38796220278181  3.5570868745613811 -268.24085645207452  3.5559177796923898 -268.09322872405573  3.5547353626355975 -267.94428143865343  3.5535413725942155 -267.79424657761496  3.5523487497517001 -267.64475351819408  3.5511541663433657 -267.49538323264539  3.5499585140388281 -267.34624799911523  3.5487615539288231 -267.19731773276436  3.5475633500422843 -267.04860049480158  3.5463638852057633 -266.90009412523227  3.545163164011826 -266.75179920282551  3.5439611852315478 -266.60371557250028  3.5427579492139589 -266.45584327581076  3.5415534558649591 -266.30818230162197  3.5403477051933105 -266.1607326529184  3.5391406971910158 -266.01349432889913  3.5383351869772683 -265.91547632948789  3.5379322223184264 -265.86650255058726 
 5.0308391340750364e-12 4 0.00014847706254342727 1 0.00029695412005601541 1 0.00044543117756860352 1 0.00059390823508119169 1 0.00074238529259377985 1 0.00089086235010636791 1 0.001039339407618956 1 0.0011878164651315441 1 0.0013362935226441323 1 0.0014847705801567205 1 0.0016332476376693086 1 0.0017817246951818966 1 0.0019302017526944847 1 0.0020786788102070729 1 0.0022271558677196611 1 0.0023756329252322492 1 0.0025241099827448374 1 0.0026725870402574256 1 0.0028210640977700137 1 0.0029695411552826019 1 0.0031180182127951901 1 0.0032664952703077782 1 0.0034149723278203664 1 0.0035634493853329541 1 0.0037119264428455423 1 0.0038604035003581305 1 0.0040088805578707195 1 0.0041573576153833072 1 0.0043058346728958958 1 0.0044543117304084836 1 0.0046027887879210722 1 0.0047512658454336599 1 0.0048997429029462476 1 0.0050482199604588362 1 0.005196697017971424 1 0.0053451740754840125 1 0.0054936511329966003 1 0.0056421281905091889 1 0.0057906052480217766 1 0.0059390823055343652 1 0.0060875593630469529 1 0.0062360364205595415 1 0.0063845134780721293 1 0.0065329905355847179 1 0.0066814675930973056 1 0.0068299446506098942 1 0.0069784217081224819 1 0.0071268987656350697 1 0.0072753758231476583 1 0.007423852880660246 1 0.0075723299381728346 1 0.0077208069956854223 1 0.0078692840531980092 1 0.0080177611107105987 1 0.0081662381682231864 1 0.0083147152257357741 1 0.0084631922832483619 1 0.0086116693407609513 1 0.0087601463982735391 1 0.0089086234557861268 1 0.0090571005132987145 1 0.009205577570811304 1 0.0093540546283238917 1 0.0095025316858364794 1 0.0096510087433490672 1 0.0097994858008616549 1 0.0099479628583742444 1 0.010096439915886832 1 0.01024491697339942 1 0.010393394030912008 1 0.010541871088424597 1 0.010690348145937185 1 0.010838825203449773 1 0.01098730226096236 1 0.01113577931847495 1 0.011284256375987537 1 0.011432733433500125 1 0.011581210491012713 1 0.011729687548525302 1 0.01187816460603789 1 0.012026641663550478 1 0.012175118721063066 1 0.012323595778575653 1 0.012472072836088243 1 0.01262054989360083 1 0.012769026951113418 1 0.012917504008626006 1 0.013065981066138595 4
7 0 0  3 91 89  5.1390001683448361 -2879.1494637369583  5.1390328093482678 -2879.09922959714  5.1390980653061611 -2878.9988626989243  5.139195870692161 -2878.8486164958872  5.1392935971235385 -2878.6986744368332  5.139391244196017 -2878.5490365226306  5.1394888115078832 -2878.399702749763  5.1395862986487071 -2878.2506731310932  5.1396837052522661 -2878.1019476183551  5.1397810308007283 -2877.9535263914017  5.1398782753405259 -2877.8054087787559  5.13997543681345 -2877.6575972861287  5.1400725210182836 -2877.5100825618338  5.140169504448532 -2877.3628995065415  5.1402664729719563 -2877.2159178689335  5.1403631042654281 -2877.0696237532602  5.140460649691744 -2876.9221270395201  5.140559316427848 -2876.7731180617707  5.1406585204585991 -2876.6234812666021  5.1407579223038926 -2876.4737312420366  5.1408569934920161 -2876.3246678977102  5.1409560773401148 -2876.1757710002289  5.141055171119314 -2876.0270447061262  5.1411542754693906 -2875.8784879903942  5.1412533904102276 -2875.730100796598  5.141352515072267 -2875.5818843755469  5.1414516527619698 -2875.4338337804929  5.1415507909624099 -2875.2859675476875  5.141649976270509 -2875.1382164789275  5.1417490346508847 -2874.9908388308349  5.1418487179961616 -2874.8427185884552  5.1419490209615235 -2874.6938660186756  5.1420497241932983 -2874.5446086802554  5.1421506714179612 -2874.3951802533929  5.1422516671884164 -2874.2458726406194  5.14235264743954 -2874.0967791743892  5.1424536264653318 -2873.9478786974646  5.1425546002890385 -2873.7991769262144  5.1426555699829075 -2873.6506721523779  5.1427565346937358 -2873.5023654926399  5.1428574962198512 -2873.3542541885067  5.1429584476737249 -2873.2063481572659  5.143059414258131 -2873.0586104882477  5.1431603015003269 -2872.9111789068443  5.1432615917831361 -2872.7633492080977  5.1433633206424423 -2872.6150720843893  5.1434654766496237 -2872.4663665105541  5.1435680718483949 -2872.3172172709887  5.1436710713599112 -2872.1676776293675  5.1437739921556185 -2872.0184496338347  5.1438769286023964 -2871.869395933908  5.143979855288908 -2871.7205533410506  5.1440827789262018 -2871.571911959893  5.1441856975138025 -2871.4234745604399  5.1442886117731854 -2871.2752399580381  5.1443915202442874 -2871.1272101212808  5.1444944274700299 -2870.9793783604459  5.1445973161627148 -2870.831769465814  5.1447002647618012 -2870.6842693013441  5.1448034952416979 -2870.5365629069211  5.1449071852443113 -2870.3883985389498  5.1450115859960066 -2870.2394196033983  5.1451166996995079 -2870.0896256914853  5.1452216506096127 -2869.9402678739511  5.1453266412865437 -2869.7910566007718  5.1454316173361114 -2869.6420694551816  5.1455365932098784 -2869.4932856542473  5.1456415649305969 -2869.3447107464767  5.145746533388043 -2869.1963433207547  5.1458514984271284 -2869.0481834730485  5.1459564592041893 -2868.9002322305955  5.1460614186745195 -2868.7524853884638  5.14616603095185 -2868.6054259010566  5.146270820645479 -2868.4583201502201  5.1463761284107772 -2868.3106924222488  5.1464825248376478 -2868.1617451369134  5.146589846767661 -2868.0117102757408  5.1466969322862841 -2867.8622172162377  5.146804080088506 -2867.7128469305953  5.1469112100245473 -2867.563711696976  5.1470183434558372 -2867.4147814305416  5.147125474543448 -2867.2660641925008  5.1472326047352048 -2867.1175578228599  5.1473397335262545 -2866.9692629003894  5.14744686093485 -2866.8211792700072  5.1475539868392275 -2866.6733069732704  5.1476611111539521 -2866.5256459990442  5.1477682337828572 -2866.3781963503134  5.1478753546326024 -2866.2309580262795  5.1479467672835346 -2866.1329400268637  5.1479824732811226 -2866.0839662479625 
 5.0308391340750364e-12 4 0.00014847706254342727 1 0.00029695412005601541 1 0.00044543117756860352 1 0.00059390823508119169 1 0.00074238529259377985 1 0.00089086235010636791 1 0.001039339407618956 1 0.0011878164651315441 1 0.0013362935226441323 1 0.0014847705801567205 1 0.0016332476376693086 1 0.0017817246951818966 1 0.0019302017526944847 1 0.0020786788102070729 1 0.0022271558677196611 1 0.0023756329252322492 1 0.0025241099827448374 1 0.0026725870402574256 1 0.0028210640977700137 1 0.0029695411552826019 1 0.0031180182127951901 1 0.0032664952703077782 1 0.0034149723278203664 1 0.0035634493853329541 1 0.0037119264428455423 1 0.0038604035003581305 1 0.0040088805578707195 1 0.0041573576153833072 1 0.0043058346728958958 1 0.0044543117304084836 1 0.0046027887879210722 1 0.0047512658454336599 1 0.0048997429029462476 1 0.0050482199604588362 1 0.005196697017971424 1 0.0053451740754840125 1 0.0054936511329966003 1 0.0056421281905091889 1 0.0057906052480217766 1 0.0059390823055343652 1 0.0060875593630469529 1 0.0062360364205595415 1 0.0063845134780721293 1 0.0065329905355847179 1 0.0066814675930973056 1 0.0068299446506098942 1 0.0069784217081224819 1 0.0071268987656350697 1 0.0072753758231476583 1 0.007423852880660246 1 0.0075723299381728346 1 0.0077208069956854223 1 0.0078692840531980092 1 0.0080177611107105987 1 0.0081662381682231864 1 0.0083147152257357741 1 0.0084631922832483619 1 0.0086116693407609513 1 0.0087601463982735391 1 0.0089086234557861268 1 0.0090571005132987145 1 0.009205577570811304 1 0.0093540546283238917 1 0.0095025316858364794 1 0.0096510087433490672 1 0.0097994858008616549 1 0.0099479628583742444 1 0.010096439915886832 1 0.01024491697339942 1 0.010393394030912008 1 0.010541871088424597 1 0.010690348145937185 1 0.010838825203449773 1 0.01098730226096236 1 0.01113577931847495 1 0.011284256375987537 1 0.011432733433500125 1 0.011581210491012713 1 0.011729687548525302 1 0.01187816460603789 1 0.012026641663550478 1 0.012175118721063066 1 0.012323595778575653 1 0.012472072836088243 1 0.01262054989360083 1 0.012769026951113418 1 0.012917504008626006 1 0.013065981066138595 4
8 0 3.141592653589806
1 3.1415926535897802 -265.8665025592835 1 0 
8 0 13.065497485295964
1 3.1415926535897802 -265.8665025592835 1.0196838130729692e-16 -1 
7 0 0  3 25 23  4.7123889346987706 -278.93200176994731  4.6885922256952846 -278.93200169885665  4.6409983276449829 -278.93200155883136  4.5696060949207835 -278.93200135628774  4.4982125283371159 -278.93200116228212  4.4268176891051754 -278.93200097780016  4.355421644230808 -278.93200080378278  4.2840244670624523 -278.93200064111659  4.2126262366796814 -278.93200049063057  4.141227037554243 -278.93200035309167  4.0698269591023761 -278.93200022920115  3.9984260952334441 -278.93200011959038  3.9270245438693983 -278.93200002481791  3.8556224064453906 -278.93199994536707  3.7842197873915291 -278.93199988164281  3.7128167935995031 -278.93199983396994  3.6414135338764888 -278.93199980259135  3.5700101183886583 -278.93199978766734  3.4986066580996278 -278.93199978927356  3.4272032641973738 -278.93199980740212  3.3558000475480432 -278.93199984196087  3.2843971180462845 -278.93199989277196  3.2129945843631758 -278.93199995958275  3.1653932296111975 -278.93200001454682  3.1415926535902252 -278.93200004457941 
 6.2648625877243838 4 6.3362442365052694 1 6.407625885286155 1 6.4790075340670397 1 6.5503891828479253 1 6.6217708316288109 1 6.6931524804096965 1 6.7645341291905821 1 6.8359157779714668 1 6.9072974267523524 1 6.978679075533238 1 7.0500607243141236 1 7.1214423730950092 1 7.1928240218758948 1 7.2642056706567795 1 7.3355873194376651 1 7.4069689682185507 1 7.4783506169994363 1 7.549732265780321 1 7.6211139145612066 1 7.6924955633420922 1 7.7638772121229778 1 7.8352588609038634 4
8 0 13.065497485296362
1 6.2831853071795862 -265.8665025592835 0 -1 
7 0 0  3 91 89  4.8003942630895962 -2866.083966252369  4.8004297060123164 -2866.1325786991247  4.8005006290586332 -2866.229923306913  4.8006071247291953 -2866.3762993616201  4.8007137309991954 -2866.5230345591335  4.8008204473673697 -2866.6701289006419  4.8009272733293482 -2866.8175823821157  4.801034208390643 -2866.96539501899  4.8011412519980059 -2867.1135667540698  4.8012484037924859 -2867.2620978011983  4.8013556626928935 -2867.410987362709  4.8014630303110604 -2867.5602384159238  4.8015704982038176 -2867.7098398497283  4.8016780954216429 -2867.8598331317717  4.8017857110769633 -2868.010063503064  4.8018937565389734 -2868.1611085324248  4.8020006297176225 -2868.3107224556752  4.8021060722231255 -2868.4585388714381  4.8022108369825274 -2868.6056101828844  4.8023153628850954 -2868.7525492093118  4.8024203310067781 -2868.9003083011121  4.8025252975887076 -2869.0482678266862  4.8026302661547691 -2869.1964327542137  4.8027352357197479 -2869.3448018506797  4.8028402061814939 -2869.4933750799719  4.8029451784149551 -2869.6421538195441  4.8030501485047754 -2869.7911325956848  4.803155130726017 -2869.9403319257722  4.8032600713851643 -2870.0896752140034  4.8033651704728184 -2870.2394483262051  4.8034695633918965 -2870.3884161026126  4.8035732526448731 -2870.5365794067156  4.8036764865757196 -2870.6842907368405  4.8037794408683325 -2870.8317990582304  4.8038823350346362 -2870.9794158336713  4.8039852462433075 -2871.1272533536517  4.8040881574615542 -2871.2752871876037  4.8041910731701467 -2871.4235239285454  4.8042939919328385 -2871.5719616349688  4.804396914468084 -2871.7206014798971  4.8044998387938964 -2871.8694407127532  4.804602771580976 -2872.0184891628137  4.8047056875916283 -2872.1677102635495  4.8048086805692343 -2872.3172404518104  4.8049112706918926 -2872.4663823311812  4.8050134235288198 -2872.6150833030752  4.8051151512395824 -2872.7633587636046  4.8052164426722301 -2872.9111901529595  4.8053173333272206 -2873.0586267403141  4.8054183021676051 -2873.2063677373035  4.8055192553900374 -2873.3542763913856  4.8056202180215299 -2873.5023893532175  4.8057211832231612 -2873.6506967727319  4.8058221527895757 -2873.7992013995308  4.8059231258487474 -2873.9479020852918  4.8060241035670987 -2874.0968006737007  4.8061250816252681 -2874.2458909383358  4.8062260756087873 -2874.3951959411979  4.8063270136016252 -2874.5446107667517  4.8064276946657323 -2874.6938352638849  4.8065279583162477 -2874.8426294122096  4.8066275776119038 -2874.9906542913413  4.8067265518702378 -2875.1379064500979  4.8068256751928846 -2875.2855646776384  4.8069247636881896 -2875.4333561640169  4.807023866521809 -2875.5813540071063  4.8071229704159792 -2875.7295386253495  4.8072220788095112 -2875.8779152471093  4.8073211907203852 -2876.026482540497  4.8074203061384253 -2876.1752406046985  4.8075194255878957 -2876.3241903748731  4.8076185464836376 -2876.4733280111909  4.8077179589429875 -2876.6230931919458  4.807817221850982 -2876.7728183569898  4.8079160494606032 -2876.9220704912091  4.8080139627974523 -2877.0701243228109  4.8081111021393452 -2877.2171890615909  4.8082084469223165 -2877.3647436018323  4.8083057451485205 -2877.5124076163015  4.808403064224505 -2877.6602830133738  4.8085003859726241 -2877.8083424867868  4.8085977151477604 -2877.9565933532349  4.8086950503610568 -2878.1050336522162  4.8087923918700248 -2878.2536639090504  4.8088897394910965 -2878.4024839829813  4.8089870931587821 -2878.5514939117252  4.8090844527767693 -2878.7006936851822  4.8091818182577297 -2878.8500833060557  4.8092791895119849 -2878.9996627736268  4.8093441074710119 -2879.0995089832695  4.8093765673830413 -2879.1494637292308 
 0 4 0.00014847705596009384 1 0.00029695411192018768 1 0.00044543116788028155 1 0.00059390822384037536 1 0.00074238527980046917 1 0.00089086233576056309 1 0.0010393393917206568 1 0.0011878164476807507 1 0.0013362935036408446 1 0.0014847705596009383 1 0.0016332476155610323 1 0.0017817246715211262 1 0.0019302017274812199 1 0.0020786787834413136 1 0.0022271558394014075 1 0.0023756328953615014 1 0.0025241099513215954 1 0.0026725870072816893 1 0.0028210640632417828 1 0.0029695411192018767 1 0.0031180181751619706 1 0.0032664952311220645 1 0.0034149722870821585 1 0.0035634493430422524 1 0.0037119263990023459 1 0.0038604034549624398 1 0.0040088805109225337 1 0.0041573575668826272 1 0.0043058346228427215 1 0.004454311678802815 1 0.0046027887347629094 1 0.0047512657907230029 1 0.0048997428466830964 1 0.0050482199026431907 1 0.0051966969586032842 1 0.0053451740145633786 1 0.005493651070523472 1 0.0056421281264835655 1 0.0057906051824436599 1 0.0059390822384037534 1 0.0060875592943638477 1 0.0062360363503239412 1 0.0063845134062840347 1 0.0065329904622441291 1 0.0066814675182042225 1 0.0068299445741643169 1 0.0069784216301244104 1 0.0071268986860845047 1 0.0072753757420445982 1 0.0074238527980046917 1 0.0075723298539647861 1 0.0077208069099248796 1 0.0078692839658849739 1 0.0080177610218450674 1 0.0081662380778051609 1 0.0083147151337652544 1 0.0084631921897253496 1 0.0086116692456854431 1 0.0087601463016455366 1 0.0089086233576056301 1 0.0090571004135657236 1 0.0092055774695258188 1 0.0093540545254859123 1 0.0095025315814460058 1 0.0096510086374060992 1 0.0097994856933661927 1 0.0099479627493262879 1 0.010096439805286381 1 0.010244916861246475 1 0.010393393917206568 1 0.010541870973166662 1 0.010690348029126757 1 0.010838825085086851 1 0.010987302141046944 1 0.011135779197007038 1 0.011284256252967131 1 0.011432733308927226 1 0.01158121036488732 1 0.011729687420847413 1 0.011878164476807507 1 0.0120266415327676 1 0.012175118588727695 1 0.012323595644687789 1 0.012472072700647882 1 0.012620549756607976 1 0.012769026812568069 1 0.012917503868528165 1 0.013065980924488258 4
8 0 0.34758821019461106
1 4.8003942630865133 -2866.0839662479625 0.999999999999995 -1.0053318743061998e-07 
Curves 23
2 -60.001462674242433 119.99981239271219 7.0350000000000001 0 0 1 0.86602540378443393 -0.50000000000000822 0 0.50000000000000822 0.86602540378443393 -0 13.757356485092032
2 -60.001462674242347 119.99981239271212 7.0350000000000001 0 0 1 0.49999999999999684 -0.86602540378444048 0 0.86602540378444048 0.49999999999999684 -0 13.75735648509192
2 -60.001462674242411 119.99981239271219 7.0350000000000001 0 0 1 1.0329640531305144e-15 -1 0 1 1.0329640531305144e-15 -0 13.757356485092004
2 -60.001462674242369 119.99981239271223 7.0350000000000001 0 0 1 -0.49999999999999678 -0.86602540378444059 0 0.86602540378444059 -0.49999999999999678 0 13.75735648509205
2 -60.001462674242532 119.99981239271206 7.0350000000000001 0 0 1 -0.86602540378443915 -0.49999999999999922 0 0.49999999999999922 -0.86602540378443915 0 13.757356485091826
2 -60.001462674242234 119.99981239271217 7.0350000000024373 1.1813406737992506e-13 -5.5894326942431498e-13 1 -1 1.0329640531305111e-15 1.1813406737992564e-13 -1.0329640531965413e-15 -1 -5.5894326942431488e-13 13.757356485092131
1 -73.758819159334394 119.99981239271219 7.0350000000000001 -0.0087265354983743059 0 -0.99996192306417131 
2 -60.00146267424239 119.99981239271219 -2.649034408330945e-15 -2.24345194311077e-18 -1.179452485037474e-18 -1 1 -1.6370683849314698e-50 -2.24345194311077e-18 2.6460449693641311e-36 -1 1.179452485037474e-18 13.818749999999987
1 -46.182712674242403 119.99981239271219 -2.6800361098698068e-15 -0.0087265354983743128 0 0.99996192306417131 
2 -53.731044074476308 109.13992893932129 7.0349999999999993 0 0 -1 0.48221012336458818 -0.87605559008815692 0 -0.87605559008815692 -0.48221012336458818 -0 1.21744957180163
2 -60.002632225299472 120.00417586461185 7.0350000000223218 -4.6604960805493959e-13 1.7393209232463751e-12 -1 0.41373447428621951 -0.91039759708992296 -1.7762943786716354e-12 -0.91039759708992296 -0.41373447428621951 -2.953265844964435e-13 12.566956301199671
7 0 0  3 4 2  -58.784967013652874 107.49635102938942 7.0349999999999993  -58.784780567175062 107.48407098879771 7.0349999999999007  -58.784594120692319 107.47179094817507 7.0349999999999007  -58.784407674200295 107.45951090757706 7.0349999999999993 
 0 4 0.036844367761881831 4
2 -60.001805035979416 107.45965551468784 7.0349999999999993 0 0 -1 0.99999999294520203 -0.00011878382055310447 0 -0.00011878382055310447 -0.99999999294520203 -0 1.2173973703676131
2 -53.731734807369982 109.13952756641953 7.0349999999999993 0 0 -1 0.85056573404691749 0.52586874033852637 0 0.52586874033852637 -0.85056573404691749 0 1.2174473049415218
7 0 0  3 40 20  -52.853773938797239 109.80788978205305 20.099999999992157  -52.850972801371618 109.80745409859261 19.874888574635918  -52.848160730483691 109.8070133252923 19.648482942362829  -52.842514676832771 109.80612124997762 19.193083263982931  -52.839680694069465 109.8056699479621 18.964089217876129  -52.833990775513065 109.80475646514212 18.503512711828812  -52.83113483971966 109.80429428433651 18.271930251888303  -52.825400977754434 109.80335869285899 17.806176918173566  -52.822644192944978 109.80290521598384 17.581857981424282  -52.8170466564154 109.80197761550251 17.125629457959985  -52.814243657717654 109.80150959304322 16.896784649181544  -52.808629217205009 109.80056509860464 16.43763393753208  -52.805817775390942 109.80008862662503 16.207328034661053  -52.800186466742936 109.79912722969196 15.745255134826419  -52.79742252692003 109.79865189998438 15.518082264210246  -52.7918860800294 109.79769311931855 15.062302671339882  -52.789113592734964 109.79720962543924 14.833692543771798  -52.783560106483748 109.79623441919843 14.375031626369827  -52.780779107527735 109.79574270683663 14.14498083653594  -52.775208614353929 109.79475105373835 13.683438594602361  -52.772446258575648 109.79425594438597 13.454195748513643  -52.76696747211421 109.79326756511485 12.998819449980934  -52.764223881717299 109.79276939446426 12.770428584201968  -52.758728321855031 109.79176507879932 12.312241419618806  -52.755976352390348 109.79125893378472 12.082445120814612  -52.750464049987855 109.79023865844948 11.621447090180997  -52.74770368921245 109.78972448243607 11.390238628314625  -52.742279471154099 109.78870794862181 10.935229304173031  -52.739563271779723 109.78819582120961 10.707042115686969  -52.734122707173675 109.78716383424258 10.249302685884313  -52.731398341942608 109.78664397468751 10.01975044456772  -52.725941460739307 109.78559651360291 9.5592809091040039  -52.72318349218763 109.78506394975517 9.32620748340433  -52.717812169144366 109.7840208138204 8.87163110129387  -52.715122338050229 109.78349546524625 8.6436641853845373  -52.709734350078129 109.78243718849804 8.1863729038576807  -52.707036193200743 109.78190426032378 7.957048538240155  -52.701631567340407 109.78083080718267 7.4970423572969018  -52.698925098358039 109.7802902822156 7.2663605419711761  -52.696214480311497 109.77974595085607 7.0350000017913512 
 0 4 0.00068768320748307913 2 0.0013753664149661583 2 0.0020630496224492375 2 0.0027507328299323165 2 0.003438416037415396 2 0.004126099244898475 2 0.004813782452381554 2 0.0055014656598646331 2 0.0061891488673477121 2 0.006876832074830792 2 0.0075645152823138719 2 0.00825219848979695 2 0.0089398816972800308 2 0.0096275649047631081 2 0.010315248112246189 2 0.011002931319729266 2 0.011690614527212347 2 0.012378297734695424 2 0.013065980942178505 4
2 -53.731311931696361 109.1395927355066 20.09999999999588 3.8110230008681868e-12 5.6871292770029888e-13 1 -0.9224802593681648 -0.38604426051431401 3.7351418479179194e-12 0.38604426051431401 -0.9224802593681648 -9.4659710712220114e-13 1.1030384723137006
7 0 0  3 40 20  -54.803249660785852 108.56324876010805 7.0350000000098589  -54.802361002044947 108.56588339336784 7.2676545216069366  -54.801472525623367 108.56850771952931 7.4992216937211511  -54.799696140830164 108.57373588667291 7.9601813389838521  -54.798808232459081 108.57633972765531 8.1895738121323394  -54.797033185851674 108.58152705527623 8.6461840594635841  -54.796146047615906 108.58411054191501 8.8734018336463443  -54.79437274202003 108.58925729349289 9.3256626830461364  -54.793454118683862 108.59191447572405 9.5589529653765428  -54.791633699262711 108.59716137969764 10.019195441833281  -54.790721891360192 108.5997802503544 10.248709840160192  -54.788895060939097 108.6050087949078 10.706524957011094  -54.787980038420848 108.60761846880402 10.934825675535086  -54.786146761803529 108.61282858632694 11.390213432780149  -54.785211720839904 108.61547661648666 11.621457433844867  -54.783339099815827 108.62076067428308 12.082467403362926  -54.782401434950224 108.62339704712019 12.312266415917323  -54.780523415302959 108.62865847380527 12.770452496616857  -54.77958306052188 108.63128352765276 12.99883956476199  -54.77769968086222 108.63652231048528 13.454201756642995  -54.776747252700893 108.63916219996024 13.683450682247694  -54.774820676702454 108.64448252911809 14.145021402687798  -54.77385597594909 108.64713688156523 14.37507986067066  -54.771923768798843 108.65243395538475 14.833742972162007  -54.77095626240262 108.65507667675661 15.062347625670489  -54.769018464917991 108.66035048270408 15.518103128213076  -54.768048214475478 108.66298159430632 15.745259233424548  -54.766064891914787 108.66833984849613 16.207392756605  -54.765071727061432 108.6710130734813 16.437716847425936  -54.763082408072641 108.67634770998936 16.896879687529232  -54.762086253937952 108.6790091215117 17.125718436811592  -54.760090975431453 108.68432012301976 17.581910593837737  -54.759102344282809 108.68694206032201 17.80689526308047  -54.757059221252391 108.6923400349571 18.269595971192537  -54.756036038585776 108.69503307076538 18.500190814002622  -54.753986444565868 108.70040722572115 18.959869477130866  -54.752960033213377 108.70308834486806 19.188953297449025  -54.750903996743695 108.70843865409466 19.645609915593447  -54.749874371627328 108.71110784417374 19.873182713419702  -54.748843147729367 108.71377106414342 20.100000000000001 
 0 4 0.00068768321400729444 2 0.0013753664280145889 2 0.0020630496420218835 2 0.0027507328560291778 2 0.0034384160700364724 2 0.0041260992840437671 2 0.0048137824980510613 2 0.0055014657120583555 2 0.0061891489260656497 2 0.0068768321400729448 2 0.0075645153540802399 2 0.0082521985680875341 2 0.0089398817820948284 2 0.0096275649961021226 2 0.010315248210109417 2 0.011002931424116711 2 0.011690614638124007 2 0.012378297852131299 2 0.013065981066138595 4
2 -60.001462674242397 107.4595109076202 20.099999991186657 1.610421471112638e-15 -4.9563676495569017e-15 1 -1 7.9818408815745141e-30 1.610421471112638e-15 -1.5963681763149028e-29 -1 -4.9563676495569017e-15 1.1030384723900681
1 -61.104501146632465 107.4595109076202 20.099999991186657 -0.0087265354983428137 0 -0.99996192306417164 
2 -60.001120312604655 107.45965551458511 7.0349999999999993 0 0 -1 -0.01860291622149661 -0.99982695078101191 -0 -0.99982695078101191 0.01860291622149661 0 1.2173973702251737
1 -58.898424201852329 107.4595109076202 20.099999991186657 0.0087265354983431069 0 -0.99996192306417164 
7 0 0  3 40 20  -58.907343956294909 107.5995041307587 20.099999995593333  -58.905135625584087 107.59772600389972 19.874856188235363  -58.90292047218648 107.5959380765479 19.648428399843016  -58.898476653414818 107.59234230227526 19.193004860989578  -58.896247988041118 107.59053445535325 18.964009110528487  -58.891777282430901 107.58689852439598 18.503449647537558  -58.889535242194746 107.58507044035954 18.27188593500772  -58.885037927678034 107.5813937187053 17.806190547879293  -58.882877092517425 107.57962250005963 17.58185838462261  -58.87849328661968 107.57602040841522 17.125630143692003  -58.876299830210435 107.57421359011994 16.896785382068924  -58.871909828404121 107.57058841300102 16.437634576507225  -58.869713283007933 107.56877005417752 16.207328532568599  -58.865317120648648 107.56512180200502 15.745255162375807  -58.863161143105735 107.56332818423594 15.518082260329175  -58.858845829784805 107.5597296323774 15.062302667462305  -58.856686532296393 107.55792467074853 14.833692539949325  -58.852364675245838 107.55430337424615 14.375031622764276  -58.850202115684496 107.55248703937272 14.144980833092207  -58.845873753637647 107.54884299601437 13.683438591588979  -58.843729038040436 107.54703304085244 13.454195746016548  -58.839478459427283 107.54343768607173 12.998819448420571  -58.837351525774068 107.54163446243682 12.770428582939875  -58.833094389160209 107.53801691962853 12.312241418613073  -58.830964186200283 107.53620260045525 12.082445119766964  -58.826700529950109 107.5325628648915 11.621447088709337  -58.824567075397169 107.53073739501022 11.39023862634888  -58.820377831663748 107.52714494186864 10.935229301510626  -58.818281597708385 107.52534332683115 10.707042112855596  -58.814085924032391 107.52172931759839 10.249302683073736  -58.811986484312413 107.5199169234032 10.019750441946906  -58.807784417114021 107.51628135489861 9.5592809072214422  -58.805662228218502 107.51444115680951 9.3262074825306787  -58.801532093975332 107.51085211306611 8.8716311000704966  -58.799465306202322 107.50905223230735 8.643664184083427  -58.795328310117682 107.50544174377343 8.1863729025953305  -58.793258101806664 107.50363113599833 7.9570485370943054  -58.789114285088097 107.49999918538158 7.4970423565782962  -58.787040676681144 107.49817784254002 7.266360541563313  -58.784965378276311 107.49635112873459 7.0350000017913512 
 0 4 0.00068768320718255868 2 0.0013753664143651174 2 0.0020630496215476761 2 0.0027507328287302347 2 0.0034384160359127933 2 0.0041260992430953523 2 0.0048137824502779104 2 0.0055014656574604694 2 0.0061891488646430284 2 0.0068768320718255865 2 0.0075645152790081464 2 0.0082521984861907045 2 0.0089398816933732635 2 0.0096275649005558208 2 0.010315248107738382 2 0.011002931314920939 2 0.011690614522103498 2 0.012378297729286057 2 0.013065980936468616 4
2 -60.001462673382598 119.99981239291014 20.09999998599223 7.9129308975399125e-09 1.8278135190211981e-09 1 0.087891727492130325 -0.99613003380003007 1.1252587763721017e-09 0.99613003380003007 0.087891727492130312 -8.0429578101439783e-09 12.448483472435338
Polygon3D 0
PolygonOnTriangulations 0
Surfaces 6
3 -60.001462674242397 119.99981239271217 3166.9438179487461 0 0 1 -1 1.2246063538223773e-16 0 -1.2246063538223773e-16 -1 0 13.818749999999993
0.0087266462599717761
1 -56.561566847391461 107.4028574785946 7.0349999999999993 0 0 1 1 0 -0 -0 1 0 
3 -53.731311931696403 109.1395927355066 285.95637916883078 0 0 1 -1 1.2246063538223773e-16 0 -1.2246063538223773e-16 -1 0 1.2170550000144182
0.0087266462599410212
3 -60.001462674242397 119.99981239271217 2886.0748345526999 0 0 1 -1 1.2246063538223773e-16 0 -1.2246063538223773e-16 -1 0 12.562500000469299
0.0087266462599715818
1 -56.561566847391461 107.4028574785946 7.0349999999999993 0 0 1 1 0 -0 -0 1 0 
3 -60.001462674242397 107.45951090762019 285.95637916871328 0 0 1 -1 1.2246063538223773e-16 0 -1.2246063538223773e-16 -1 0 1.2170550000139104
0.0087266462599410559
Triangulations 0

TShapes 53
Ve
1e-07
-48.0872424692342 113.121134150166 7.035
0 0

0101101
*
Ve
1e-07
-46.2441061891504 119.999812392712 7.03500000000407
0 0

0101101
*
Ed
 1e-07 1 1 0
1  1 0 0 0.523598775598308
2  1 1 0 0 0.523598775598308
0

0101000
+53 0 -52 0 *
Ve
0.0002372788083319
-53.1227844316964 108.085592187704 7.035
0 0

0101101
*
Ed
 1e-07 1 1 0
1  2 0 0 0.523598775598294
2  2 1 0 0 0.523598775598294
0

0101000
+50 0 -53 0 *
Ve
0.000197719479246326
-60.0014626742424 106.24245590762 7.035
0 0

0101101
*
Ed
 5.5613618892973e-06 1 1 0
1  3 0 0 0.523598775598296
2  3 1 0 0 0.523598775598296
0

0101000
+48 0 -50 0 *
Ve
1e-07
-66.8801409167883 108.085592187704 7.035
0 0

0101101
*
Ed
 1e-07 1 1 0
1  4 0 0 0.523598775598293
2  4 1 0 0 0.523598775598293
0

0101000
+46 0 -48 0 *
Ve
1e-07
-71.9156828792507 113.121134150166 7.035
0 0

0101101
*
Ed
 1e-07 1 1 0
1  5 0 0 0.523598775598308
2  5 1 0 0 0.523598775598308
0

0101000
+44 0 -46 0 *
Ve
1e-07
-73.7588191593344 119.999812392712 7.035
0 0

0101101
*
Ed
 1e-07 1 1 0
1  6 0 0 0.523598775598295
2  6 1 0 0 0.523598775598295
0

0101000
+42 0 -44 0 *
Ve
1e-07
-73.8202126742424 119.999812392712 -2.61803270679208e-15
0 0

0101101
*
Ed
 1e-07 1 1 0
1  7 0 0 7.03526788144366
2  7 1 0 0 7.03526788144366
0

0101000
+42 0 -40 0 *
Ve
1e-07
-46.1827126742424 119.999812392712 -2.68003610986981e-15
0 0

0101101
*
Ed
 1e-07 1 1 0
1  8 0 0 3.14159265358979
2  8 1 0 0 3.14159265358979
0

0101000
+38 0 -40 0 *
Ed
 1e-07 1 1 0
1  9 0 0 7.03526788144773
2  9 1 0 0 7.03526788144773
0

0101000
+38 0 -52 0 *
Wi

0101100
-51 1 -49 1 -47 1 -45 1 -43 1 -41 1 +39 1 -37 1 +36 1 *
Fa
0  1e-07 1 0

0101000
+35 2 *
Ve
0.0002372788083319
-54.8032491666447 108.563249045266 7.035
0 0

0101101
*
Ed
 0.0002372788083319 1 1 0
1  10 0 6.26309098900713 7.8636943079747
2  10 3 0 6.26309098900713 7.8636943079747
0

0101000
+50 0 -33 0 *
Ve
6.11924296560752e-05
-58.7849670136529 107.496351029389 7.035
0 0

0101101
*
Ed
 6.11924296560752e-05 1 1 0
1  11 0 0 0.329505821054549
2  11 4 0 0 0.329505821054549
0

0101000
+33 0 -31 0 *
Ve
0.000197719479246326
-58.7844076742003 107.459510907577 7.035
0 0

0101101
*
Ed
 1.00005e-07 1 1 0
1  12 0 0 0.0368443677618818
3  12 13C0 5 0 0 0.0368443677618818
0

0101000
+31 0 -29 0 *
Ed
 0.000197719479246326 1 1 0
1  13 0 0 1.57039627297857
2  14 6 0 0 1.57039627297857
0

0101000
+29 0 -48 0 *
Wi

0101100
+32 1 +30 1 +28 1 +27 1 +47 1 *
Fa
0  1e-07 2 0

0101000
+26 2 *
Ve
0.000237233184197845
-52.696215846779 109.779745047098 7.035
0 0

0101101
*
Ed
 0.000237233184197845 1 1 0
1  14 0 0 1.60060607074595
2  15 3 0 0 1.60060607074595
0

0101000
+24 0 -50 0 *
Ve
1e-07
-52.8537739387972 109.807889782053 20.0999999999922
0 0

0101101
*
Ed
 1e-07 1 1 0
1  15 0 0 0.0130659809301998
2  16 3 0 0 0.0130659809301998
0

0101000
+22 0 -24 0 *
Ve
6.447441898493e-07
-54.7488431477294 108.713771064143 20.1
0 0

0101101
*
Ed
 1e-07 1 1 0
1  16 0 0 3.39611106732892
2  17 3 0 0 3.39611106732892
0

0101000
+20 0 -22 0 *
Ed
 6.447441898493e-07 1 1 0
1  17 0 5.03083913407504e-12 0.0130659810661386
2  18 3 0 5.03083913407504e-12 0.0130659810661386
2  19 4 0 5.03083913407504e-12 0.0130659810661386
0

0101000
+33 0 -20 0 *
Wi

0101100
-32 1 -23 1 -21 1 -19 1 -18 1 *
Fa
0  1e-07 3 0

0101000
+17 2 *
Ve
1e-07
-61.1045011466325 107.45951090762 20.0999999911867
0 0

0101101
*
Ve
1e-07
-58.8984242018523 107.45951090762 20.0999999911867
0 0

0101101
*
Ed
 1e-07 1 1 0
1  18 0 0 3.14159265358979
2  20 6 0 0 3.14159265358979
0

0101000
+15 0 -14 0 *
Ve
0.000197709554074355
-61.2185176742414 107.45951090762 7.035
0 0

0101101
*
Ed
 1e-07 1 1 0
1  19 0 0 13.065497485296
2  21 6 0 0 13.065497485296
0

0101000
+15 0 -12 0 *
Ed
 0.000197709554074355 1 1 0
1  20 0 6.26486258772438 7.83525886090386
2  22 6 0 6.26486258772438 7.83525886090386
0

0101000
+48 0 -12 0 *
Ed
 1e-07 1 1 0
1  21 0 0 13.0654974852963
2  23 6 0 0 13.0654974852963
0

0101000
+14 0 -29 0 *
Wi

0101100
-13 1 +11 1 -10 1 -27 1 -9 1 *
Fa
0  1e-07 6 0

0101000
+8 2 *
Ve
7.40718495268187e-07
-58.9073439562949 107.599504130759 20.0999999955933
0 0

0101101
*
Ed
 7.40718495268187e-07 1 1 0
1  22 0 0 0.0130659809244883
2  24 4 0 0 0.0130659809244883
0

0101000
+6 0 -31 0 *
Ed
 1e-07 1 1 0
1  23 0 0 0.347588210195479
2  25 4 0 0 0.347588210195479
0

0101000
+6 0 -20 0 *
Wi

0101100
+5 1 -30 1 +18 1 -4 1 *
Fa
0  1e-07 4 0

0101000
+3 2 *
Sh

0101000
-34 0 -25 0 -16 0 -7 0 -2 0 *

+1 1 
0

