DBRep_DrawableShape

CASCADE Topology V1, (c) Matra-Datavision
Locations 1
1
              1               0               0               0 
              0               1               0           683.4 
              0               0               1               0 
Curve2ds 0
Curves 8
1 -1496.4563675158956 -1296.6999999999998 -2073.5436324841039 0 1 0 
1 -2187.1816191051894 -1296.6999999999998 -2764.2688840733981 0 1 0 
1 -1496.4563675158956 -1296.6999999999998 -2073.5436324841039 -0.70710678118654724 0 -0.70710678118654779 
1 -3568.6321222837782 -1296.6999999999998 -1382.8183808948099 0 1 0 
1 -2187.1816191051894 -1296.6999999999998 -2764.2688840733981 -0.70710678118654768 0 0.70710678118654735 
1 -2877.906870694484 -1296.6999999999998 -692.09312930551573 0 1 0 
1 -3568.6321222837782 -1296.6999999999998 -1382.8183808948099 0.70710678118654757 0 0.70710678118654757 
1 -2877.906870694484 -1296.6999999999998 -692.09312930551573 0.70710678118654757 0 -0.70710678118654746 
Polygon3D 0
PolygonOnTriangulations 0
Surfaces 5
1 -1496.4563675158956 -1296.6999999999998 -2073.5436324841039 -0.70710678118654779 0 0.70710678118654724 -0.70710678118654724 0 -0.70710678118654779 0 -1 0 
1 -2187.1816191051894 -1296.6999999999998 -2764.2688840733981 0.70710678118654735 0 0.70710678118654768 -0.70710678118654768 0 0.70710678118654735 0 -1 0 
1 -3568.6321222837782 -1296.6999999999998 -1382.8183808948099 0.70710678118654757 0 -0.70710678118654757 0.70710678118654757 0 0.70710678118654757 0 -1 0 
1 -2877.906870694484 -1296.6999999999998 -692.09312930551573 -0.70710678118654746 0 -0.70710678118654757 0.70710678118654757 0 -0.70710678118654746 0 -1 0 
1 -1496.4563675158956 -1296.6999999999998 -2073.5436324841039 0 -1 0 0 0 -1 1 0 0 
Triangulations 0

TShapes 24
Ve
1e-007
-1496.4563675159 -1296.7 -2073.5436324841
0 0

0101101
*
Ed
 1e-007 1 1 0
1  1 0 0 683.4
0

0101000
+24 0 -24 1 *
Ve
1e-007
-2187.18161910519 -1296.7 -2764.2688840734
0 0

0101101
*
Ed
 1e-007 1 1 0
1  2 0 0 683.4
0

0101000
+22 0 -22 1 *
Ed
 1e-007 1 1 0
1  3 0 0 976.833018671148
0

0101000
+24 0 -22 0 *
Wi

0101000
+23 0 -21 0 -20 0 +20 1 *
Fa
0  1e-007 1 0

0111000
+19 0 *
Ve
1e-007
-3568.63212228378 -1296.7 -1382.81838089481
0 0

0101101
*
Ed
 1e-007 1 1 0
1  4 0 0 683.4
0

0101000
+17 0 -17 1 *
Ed
 1e-007 1 1 0
1  5 0 0 1953.6660373423
0

0101000
+22 0 -17 0 *
Wi

0101000
+21 0 -16 0 -15 0 +15 1 *
Fa
0  1e-007 2 0

0111000
+14 0 *
Ve
1e-007
-2877.90687069448 -1296.7 -692.093129305516
0 0

0101101
*
Ed
 1e-007 1 1 0
1  6 0 0 683.4
0

0101000
+12 0 -12 1 *
Ed
 1e-007 1 1 0
1  7 0 0 976.833018671148
0

0101000
+17 0 -12 0 *
Wi

0101000
+16 0 -11 0 -10 0 +10 1 *
Fa
0  1e-007 3 0

0111000
+9 0 *
Ed
 1e-007 1 1 0
1  8 0 0 1953.6660373423
0

0101000
+12 0 -24 0 *
Wi

0101000
+11 0 -23 0 -7 0 +7 1 *
Fa
0  1e-007 4 0

0111000
+6 0 *
Wi

0101100
+20 0 +15 0 +10 0 +7 0 *
Fa
0  1e-007 5 0

0111000
-4 0 *
Sh

0101000
-18 0 -13 0 -8 0 -5 0 +3 0 -3 1 *
So

0100000
+2 0 *

+1 0 
0

