DBRep_DrawableShape

CASCADE Topology V1, (c) Matra-Datavision
Locations 49
1
              1               0 -2.77555756156289e-017              -7 
              0               1 -2.77555756156289e-017              -3 
-2.77555756156289e-017 -2.77555756156289e-017               1              -2 
2  1 -1 0
1
              0               0              -1 -1.8838661659859e-015 
              1               0               0         -256.75 
              0              -1              -0              -0 
1
              1               0               0              -0 
              0               1               0           2.035 
              0               0               1              -0 
1
              1               0 5.55111512312578e-017              -7 
              0               1               0               0 
5.55111512312578e-017               0               1           52.15 
2  3 -1 4 1 5 1 0
1
              0               0              -1 -25.5463737619219 
              1               0               0 27.806718085179 
              0              -1              -0              -0 
1
              1               0               0              -0 
              0               1               0           1.518 
              0               0               1              -0 
1
              1               0               0              -2 
              0               1               0               0 
              0               0               1              12 
2  7 -1 8 1 9 1 0
1
              0               0              -1 -1.8838661659859e-015 
              1               0               0         -256.75 
              0              -1              -0              -0 
1
              1               0               0              -0 
              0               1               0           2.035 
              0               0               1              -0 
1
              1               0               0              -7 
              0               1               0               0 
              0               0               1          -40.15 
2  11 -1 12 1 13 1 0
2  1 1 5 -1 4 -1 3 1 0
2  5 -1 4 -1 3 1 0
1
              0               0              -1 1.16376426239143e-016 
              1               0               0         -256.75 
              0              -1              -0               0 
1
              1               0               0              -0 
              0               1               0              52 
              0               0               1              -0 
1
              1               0               0              -7 
              0               1               0               0 
              0               0               1              24 
2  17 -1 18 1 19 1 0
2  1 1 19 -1 18 -1 17 1 0
1
              1               0               0               0 
              0               1               0               0 
              0               0               1              52 
2  17 1 22 1 0
2  19 -1 18 -1 17 1 0
1
              0               0              -1 1.16376426239143e-016 
              1               0               0         -256.75 
              0              -1              -0               0 
1
              1               0               0               0 
              0               1               0               0 
              0               0               1              52 
1
              1               0               0              -0 
              0               1               0              52 
              0               0               1              -0 
1
              1               0               0              -7 
              0               1               0               0 
              0               0               1             -12 
2  25 1 26 1 25 -1 27 1 28 1 1 -1 0
2  17 1 22 1 17 -1 18 1 19 1 1 -1 0
2  25 -1 27 1 28 1 0
2  1 1 28 -1 27 -1 25 1 0
2  25 1 26 1 0
2  28 -1 27 -1 25 1 0
2  1 1 13 -1 12 -1 11 1 0
2  13 -1 12 -1 11 1 0
2  9 -1 8 -1 7 1 0
2  17 1 22 1 17 -1 18 1 19 1 0
2  22 -1 17 -1 0
1
              1               0               0               0 
              0               1               0               0 
              0               0               1              52 
2  40 -1 22 -1 17 -1 0
2  1 1 19 -1 18 -1 17 1 22 -1 17 -1 0
2  7 -1 8 1 9 1 19 -1 18 -1 17 1 22 -1 17 -1 0
2  25 1 26 1 25 -1 27 1 28 1 0
2  26 -1 25 -1 0
1
              1               0               0               0 
              0               1               0               0 
              0               0               1              52 
2  46 -1 26 -1 25 -1 0
2  1 1 28 -1 27 -1 25 1 26 -1 25 -1 0
2  28 -1 27 -1 25 1 26 -1 25 -1 0
Curve2ds 97
1 0 0 1 0 
1 0 513.5 1 0 
8 -513.5 -9.8607613152626454e-032
1 12.604987890232353 -3.4985869452143094e-016 -2.7755575615628907e-017 -1 
8 -513.5 -9.8607613152626454e-032
1 5.6969435383017011 -1.4689926355344829e-016 0 1 
2 54.049999999988827 8.0000299203834455 7.4707574169198378e-007 -0.999999999999721 0.999999999999721 7.4707574169198378e-007 45.589277439024386
1 0 -4.1268670708995208 1 0 
8 -58.025985468279039 -46.974014531721004
1 -44.5 10.539277439024401 -1 1.3135241539439016e-016 
8 -58.025985468279039 -46.974014531721004
1 4.126867070899527 -44.5 2.2554322069316436e-016 1 
8 -513.5 0
1 3.3950121097676402 513.5 -2.7755575615628907e-017 1 
8 -513.5 0
1 5.6969435383017011 0 0 1 
8 3.4033616610104023 4.4506199729640805
1 4.7123889803846897 0 0 1 
8 3.4033616610104023 4.4506199729640805
1 9.6865469681899885 -513.5 -1 -0 
2 9.9586860158311339 -3.0003139841688951 -1 -2.7755575615628914e-017 2.7755575615628914e-017 -1 4.0005996568088324
8 1.0359628282748408 2.1067154530215992
1 4.7123889803846897 0 -0 -1 
8 1.0359628282748408 2.1067154530215992
1 0 -513.5 1 0 
1 14.368000000000009 -3.9999999999999996 -0.2586965407304172 0.96595864291082134 
1 1.5707963267948966 0 0 -1 
1 513.5 0 0 -1 
1 14.000000000000014 -2.9999999999999996 2.7755575615628907e-017 1 
1 0 -3 1 0 
1 0 513.5 1 0 
1 4.7123889803846897 0 0 -1 
1 0 0 0 -1 
1 2.0000000000000142 -3 2.7755575615628907e-017 1 
8 1.0359628282748408 2.1067154530216006
1 0 -1.1351202410651023e-018 1 0 
8 1.0359628282748408 2.1067154530216006
1 1.5707963267948966 0 -0 -1 
1 1.6320000000000121 -4 0.25869654073041731 0.96595864291082134 
8 0 1.0472583119536782
1 6.2831853071795862 0 -1 -0 
8 0 1.0472583119536782
1 1.5707963267948966 3.4033616610104023 0 1 
2 6.0413139841689087 -3.0003139841688955 -0.96593368886387176 0.25878969979084004 0.25878969979084004 0.96593368886387176 4.0005996568088324
7 0 0  7 14 3  5.696943538301702 -26.991954220845223  5.7304002345505625 -26.417754845831151  5.7626463905312733 -25.80751175350003  5.7938415213006271 -25.160911857907852  5.8240794675304617 -24.476237543567329  5.853417362988715 -23.75081445147276  5.8818847087499693 -22.980244558575322  5.9298618247111738 -21.547566236064245  5.9497516587100865 -20.91018957165404  5.9691555363913338 -20.240574204846229  5.9880518013304727 -19.534544958452695  6.0063786811644349 -18.786541906668635  6.0240426909110329 -17.990040089785523  6.0408697333834329 -17.132270194533902 
 0 8 0.57502092055281118 6 1 8
7 0 0  7 14 3  4.2826998580236326 -4.1268670708994479  4.2932327038284095 -3.7847524259328291  4.3047272772670686 -3.4398785367229601  4.3172164366042649 -3.0931985624953993  4.330766831866268 -2.7456811845574305  4.3454688641674011 -2.398339151652539  4.3614566759315592 -2.0523268630389917  4.3918929530332065 -1.4554444514973506  4.4056424896231343 -1.2035449633304953  4.4203079034137174 -0.95380620028747654  4.4360051055530603 -0.70699408139159647  4.4528872560337565 -0.46440230139358185  4.4711333257877657 -0.22776988031755341  4.4910768849435856 -7.1054273576010019e-015 
 0 8 0.57502092055281118 6 1 8
7 0 0  4 74 25  6.2831853071795862 -11.832791502389798  6.2797332076899828 -11.880283125083601  6.2762988564718416 -11.928011230171199  6.2728822380950868 -11.975974999102121  6.2660610134442827 -12.072709603518167  6.2626566540098914 -12.12148371846293  6.2592703563169199 -12.170498770349422  6.2525395433944446 -12.268935914395296  6.2491949691463855 -12.318357208887965  6.2458685828473426 -12.368023834867714  6.2392609250088098 -12.467728109348911  6.2359795598773093 -12.517764479459004  6.2327165681869712 -12.56805286062648  6.2262390101352043 -12.668967939543837  6.2230243147182094 -12.719592843621637  6.2198282320851508 -12.770478371362357  6.2134877826986505 -12.872557471952469  6.2103432500406104 -12.923748689436749  6.2072176204735996 -12.97521078069038  6.2010213462414718 -13.078414462539257  6.197950497007902 -13.130153080270365  6.19489889128333 -13.182174204008408  6.1888539079459512 -13.28646855797119  6.1858602848978155 -13.33873813475544  6.1828862966602802 -13.391303003765396  6.1769997589783392 -13.496658146742268  6.1740869206658155 -13.549444018374924  6.1711941614238031 -13.602538910905022  6.1654732510055474 -13.708927721872529  6.162644764616136 -13.76221641765439  6.159836857629017 -13.8158286015569  6.1542887687565564 -13.923225649176075  6.1515482020686552 -13.977004397762039  6.1488287751193456 -14.031121636015092  6.14346069853051 -14.139502259655501  6.1408116109412525 -14.193758567338666  6.138184287990474 -14.248368688647075  6.1330033925932232 -14.357708203582671  6.1304493252087919 -14.412429492196848  6.1279177169319388 -14.467520014118751  6.1229311294539075 -14.57779301858031  6.1204755942522748 -14.632966313379587  6.1180432874677164 -14.688524108342044  6.1132580700742309 -14.799703875514316  6.1109045381749389 -14.855315535865243  6.1085750841827622 -14.91132653271411  6.1039982101322847 -15.023384474992442  6.1017500992353799 -15.07941996263029  6.0995270010976617 -15.135868878164125  6.0951653285438745 -15.248774074286789  6.0930259896307595 -15.305217755342101  6.0909126884377489 -15.362087851714026  6.0867729325317228 -15.4758066299473  6.0847456359543441 -15.532641607998116  6.0827454961344918 -15.589914473032827  6.0788341996276269 -15.704410045532658  6.0769221207482191 -15.76161802359041  6.0750384144932292 -15.819273372043565  6.0713619170906261 -15.934505516931331  6.0695681216712556 -15.992066686508057  6.0678040125589039 -16.050082181161503  6.064368419321414 -16.166006969780724  6.0626958488980316 -16.223899924955933  6.0610543748049874 -16.282251017303931  6.0578655239435495 -16.398820584595235  6.0563169814490534 -16.457022258202027  6.0548010368526652 -16.515682049435359  6.0518644672966033 -16.632844405398941  6.0504426032144272 -16.691330023010067  6.0490549209875351 -16.750269147197454  6.0458951538649615 -16.889085805298812  6.0441511967398185 -16.969323236245518  6.0424747018590548 -17.050385981927331  6.0408697333834338 -17.132270194533909 
 0 5 0.044425849162314464 3 0.089159320549338422 3 0.13382010124120894 3 0.1783666861635656 3 0.22275801050038416 3 0.26695329908885812 3 0.31091200469516761 3 0.35459382343619705 3 0.39795877840303828 3 0.44096736482307697 3 0.48358075193605848 3 0.52576103822779208 3 0.56747155782569647 3 0.6086772367604395 3 0.64934499846883564 3 0.6894442183645213 3 0.72894722751660856 3 0.76782986539916731 3 0.80607208119748375 3 0.84365858209891498 3 0.8805795250687185 3 0.91683124538865479 3 0.95241701012916291 3 1 5
7 0 0  4 74 25  4.6173966490624121 3.6852259790202595  4.6162350682292068 3.6930235562794129  4.6150683806008761 3.7008204251037453  4.6138966284858354 3.7086178383850221  4.6115348423495757 3.7242701966665672  4.6103447381552574 3.7321251668694391  4.6091494952590235 3.7399831706176307  4.6067506006995371 3.7556949380355977  4.605546966031655 3.7635486884130049  4.6043381279720474 3.7714079220336427  4.6019129999822113 3.7871197200112867  4.6006967371395353 3.7949722504907224  4.5994751491318411 3.8028326981609855  4.5970253902946663 3.8185445122797512  4.5957972573448691 3.8263958152600845  4.5945636291912137 3.8342574717680655  4.5920905927822702 3.8499692933164167  4.5908512341830399 3.8578193560865728  4.5896061694769363 3.8656822238237609  4.5871110136751643 3.8813940490157961  4.5858609852209087 3.889242855858158  4.5846050052790854 3.8971069423114186  4.5820887376504613 3.912818771726533  4.5808285269735096 3.9206663058166993  4.5795620906400547 3.9285316214190504  4.577025604988882 3.9442434596265796  4.575755648558828 3.9520897048254797  4.5744791687661577 3.9599562610493302  4.5719232759670927 3.9756681163885021  4.5706439733123059 3.9835130590116443  4.5693578310821978 3.9913808666065185  4.5667832851348047 4.0070927510983427  4.565495010841027 4.0149363817396475  4.5641995672535947 4.0228054490297671  4.5616070875147914 4.0385173784026334  4.5603102014249224 4.0463596938852566  4.5590058079635121 4.0542300250522931  4.5563960982916685 4.0699420188670317  4.5550909542296401 4.0777830243907331  4.5537779618164631 4.0856546176730619  4.5511517271888859 4.1013666995357658  4.5498386804518534 4.1092064110889188  4.5485174474167032 4.1170792568322954  4.5458754084482305 4.1327914546837672  4.5445548222499914 4.1406299017856227  4.5432257214177518 4.1485039802824479  4.5405686271034122 4.1642163267516228  4.5392408781046294 4.1720535555861078  4.5379043031424704 4.1799288346416983  4.5352329420654485 4.1956413674455701  4.5338984250902374 4.2034774444385361  4.5325547962198867 4.2113538766048517  4.529870006402577 4.2270666389680258  4.5285291384149708 4.234901654840618  4.5271789075666176 4.2427791742631857  4.524481585094243 4.2584922153141429  4.5231348084915286 4.2663262896111398  4.5217784639517395 4.2742048084454964  4.5190695704626824 4.2899181835207578  4.5177173557359005 4.2977514695538703  4.5163554263206569 4.3056308739301814  4.5136359954340168 4.3213446446781703  4.5122788432501846 4.3291773347300815  4.5109119020132136 4.3370574802847113  4.5081830447513989 4.3527717144040494  4.5068214875294235 4.360604044893913  4.5054501549931958 4.3684847519566983  4.5027130642549604 4.3841995223259023  4.5013476673391954 4.3920317784263778  4.4999726142078273 4.3999128270665064  4.4967362259295935 4.4184478966600489  4.4948672401054877 4.4291410057913279  4.4929807459285787 4.4399248625702521  4.4910768849435856 4.4508002567640439 
 0 5 0.044425849162314464 3 0.089159320549338422 3 0.13382010124120894 3 0.1783666861635656 3 0.22275801050038416 3 0.26695329908885812 3 0.31091200469516761 3 0.35459382343619705 3 0.39795877840303828 3 0.44096736482307697 3 0.48358075193605848 3 0.52576103822779208 3 0.56747155782569647 3 0.6086772367604395 3 0.64934499846883564 3 0.6894442183645213 3 0.72894722751660856 3 0.76782986539916731 3 0.80607208119748375 3 0.84365858209891498 3 0.8805795250687185 3 0.91683124538865479 3 0.95241701012916291 3 1 5
8 -513.5 -0
1 6.2831853071795862 0 0 1 
1 2.1067154530215997 -6.6743250553530947e-017 0 1 
1 0 4.4508002567640439 1 0 
8 1.5707963267948966 4.7123889803846897
1 0 -0 1 0 
8 -0 1.498031056216877
1 4.7123889803846897 0 -0 -1 
8 -0 1.498031056216877
1 0 0 0 1 
7 0 0  8 16 3  4.7123889803846897 -1.4980207035256146  4.7075490742446782 -1.7137718589025581  4.7027826079517929 -1.9284844921430926  4.6980219206268536 -2.1455159333013745  4.6933219817265801 -2.3618740806700984  4.6886726526808502 -2.5784572417364391  4.6840407945252167 -2.7963914782913921  4.6794690532356764 -3.0138742886504066  4.6701816596879722 -3.4603151225792961  4.665476535400912 -3.689016467512098  4.6608144933113218 -3.9181324821879158  4.656194848464426 -4.1476566235880288  4.6516169316173608 -4.377582513392249  4.647080089239183 -4.6079039379789304  4.6425836835108623 -4.8386148484249656  4.6381270923252842 -5.0697093605057857 
 0 9 0.48866917821901323 7 1 9
7 0 0  8 16 3  1.4980207035775777 -100.00000224122556  1.7137718587288395 -99.791644295234732  1.9284844925072053 -99.585295371169451  2.1455159327968509 -99.378089561204604  2.3618740811391934 -99.172347380102991  2.5784572414488434 -98.967762049109865  2.7963914783998902 -98.762804508207864  3.0138742886300172 -98.559426319722874  3.4603151225792725 -98.144048350676698  3.6890164675120789 -97.932415273348354  3.9181324821879033 -97.721535457364283  4.1476566235880146 -97.511400839632415  4.377582513392225 -97.302003504764457  4.6079039379788975 -97.0933356850758  4.8386148484249336 -96.885389760585639  5.0697093605057857 -96.678158259016854 
 0 9 0.48866917821901323 7 1 9
1 5.235566427625983 0 0 1 
1 0 0 1.1829268600964296e-016 1 
7 0 0  8 9 2  5.6969435383017011 -502.96072256097563  5.7445696814468787 -503.43113745787713  5.7921958245906353 -503.93058226787252  5.8398219677146699 -504.45743106189184  5.8874481109087355 -505.0099174240604  5.9350742540009378 -505.58614629157819  5.9827003971713566 -506.18410739820683  6.0303265403179447 -506.80169024754775  6.0779526834631223 -507.43669999999997 
 0.72278555049640214 9 1.1037946956578235 9
3 -7.4666694306229626 -95.041313984168895 1 -1.1829268600964296e-016 1.1829268600964296e-016 1 15.45874811567071 4.0005996568088324
8 0 1.4980310562168619
1 1.5707970738706365 0 0 1 
8 0 1.4980310562168619
1 -1.1829268866084887e-014 -100.00000224122556 1 0 
7 0 0  4 35 12  6.0408697333834347 -506.94699999999995  6.0455079838670915 -507.00768857756725  6.0507686215133401 -507.06654826677334  6.0565740290052972 -507.12354759300786  6.0679145397530601 -507.22307218484463  6.0732853435657743 -507.26627672226078  6.078933936543617 -507.30829446752733  6.0900497902550779 -507.38524794276032  6.0954606302666887 -507.42043583605965  6.1010549311139126 -507.4547574584671  6.1121080625563318 -507.51893036181622  6.1175392491969847 -507.54891555639966  6.1231071748280179 -507.57821595089081  6.134134818455192 -507.63362222453293  6.1395780657287826 -507.65981192486259  6.1451309464904087 -507.68543154163797  6.1561460466962847 -507.73420868238213  6.1615971745072242 -507.75742455118944  6.1671405595902993 -507.78014752169719  6.1781487185722908 -507.82359634222399  6.1836053812966583 -507.84436596799782  6.1891423161675068 -507.86469662298049  6.2001463232364271 -507.90367722547558  6.2056071149368721 -507.92236189001522  6.2111393992148365 -507.94064609773972  6.2221407883767039 -507.97576040846542  6.227604833605537 -507.99261922057457  6.2331335822803293 -508.00910535826466  6.2441332633234028 -508.04079230209334  6.2496000092953716 -508.05601761290404  6.2551259311807286 -508.07089027604945  6.2662435582125404 -508.09978946505379  6.2718341888160429 -508.11382250991829  6.2774816723511382 -508.12750204078287  6.2831853071795871 -508.14082294399441 
 0 5 0.14443224399467139 3 0.26082726435559461 3 0.36357951156203966 3 0.45776394627106476 3 0.54583332423921105 3 0.62918516911898714 3 0.7087051920305123 3 0.78500022451430562 3 0.8585127224006609 3 0.92958281880645266 3 1 5
7 0 0  4 35 12  5.2355664276259821 -91.538320938123235  5.2669955827673753 -91.52935838207334  5.2978302655219469 -91.51929341517625  5.3281065717481653 -91.508338693931947  5.3818022469671973 -91.487303824328464  5.4054213215177676 -91.477462873773618  5.4287256869195488 -91.467261703337087  5.4720766687651539 -91.447514655210441  5.4921846783544197 -91.438032267623441  5.512098400224084 -91.428376704698579  5.5499384109354324 -91.409616773207887  5.5678918732522513 -91.400533672308114  5.5857200412877672 -91.391370758307559  5.6200091820229874 -91.373536804144791  5.6364837360934699 -91.36487250844317  5.6528773266270695 -91.356183467146622  5.6846533998961961 -91.339260121319015  5.7000429917988171 -91.331026421995034  5.7153820920657514 -91.322804170807231  5.7452755192100575 -91.306789424888478  5.7598334990677404 -91.298994570075678  5.77436285371975 -91.291236923809109  5.802791274505231 -91.276133551705882  5.8166920005471434 -91.268783892224036  5.8305802244156713 -91.261490962525968  5.8578376431356798 -91.247303599205893  5.8712072906526709 -91.240404340720332  5.8845764991123497 -91.233577377728139  5.9108795240816558 -91.220311346545827  5.9238130448993749 -91.213866931956517  5.9367551756019052 -91.207507749104394  5.9625454568296927 -91.195034935425738  5.9753933751477426 -91.18891958829056  5.9882573764371054 -91.182905052898505  6.0011407053697674 -91.177000000000021 
 0 5 0.14443224399467139 3 0.26082726435559461 3 0.36357951156203966 3 0.45776394627106476 3 0.54583332423921105 3 0.62918516911898714 3 0.7087051920305123 3 0.78500022451430562 3 0.8585127224006609 3 0.92958281880645266 3 1 5
8 -513.5 -0
1 6.2831853071795862 0 0 1 
1 2.1067154530215997 -6.6743250553530947e-017 0 1 
8 -1.6280082382759125 -1.6270659421831253
5 -247.76503260177637 -8.0000299203834455 1 -2.9601034646209427e-018 2.9601034646209427e-018 1 94.266417454598795 1.1597301874875161
8 -1.6280082382759125 -1.6270659421831253
7 0 0  8 9 2  4.6416674073670663 -1.5716147746861056  4.6416640083983669 -1.544423926468421  4.6416606087473156 -1.517237031965351  4.6416572084090149 -1.4900540906091919  4.6416538074117852 -1.4628751018053663  4.6416504057015118 -1.4357000650170448  4.6416470033418591 -1.4085289796300913  4.6416436002861188 -1.3813618450936296  4.6416401965488419 -1.3541986608239296 
 -1.6280082382759125 9 -1.6270659421831253 9
7 0 0  5 42 11  1.5714958514431374 -10.839860607296631  1.5840555155865192 -10.839960137712145  1.5966115430465653 -10.841504672784936  1.609002038285982 -10.844503738380581  1.6211684341660042 -10.848811761580013  1.6460052914851206 -10.860325775608516  1.6586264862088775 -10.867710151303186  1.6710149273140771 -10.876405485106677  1.6831760338562642 -10.886305539508019  1.7078541459099079 -10.909045696764375  1.7203405960523326 -10.922036711008289  1.732592122554361 -10.936168379105396  1.7446208440807429 -10.951337675815866  1.7690080643768531 -10.984597107317626  1.7813388073827361 -11.002811200595978  1.793446321929532 -11.021991646797536  1.8053444382777499 -11.042047439257953  1.8294244412592917 -11.084964759431264  1.8415828689956704 -11.107920924496664  1.8535363979222104 -11.131681924912767  1.8652985989712072 -11.15617223780569  1.8890522881108722 -11.207765213470035  1.9010251125704489 -11.234936799218326  1.9128139044363603 -11.262773482988312  1.9244309304273568 -11.291215155365638  1.9478383598775455 -11.350465892037306  1.9596145413493278 -11.381323647364978  1.9712274021195313 -11.412730996233536  1.9826874602866322 -11.444641343063957  2.0057278859674152 -11.510559649815725  2.0172977320546437 -11.544601378200952  2.0287232573832932 -11.579099978897672  2.0400131666025283 -11.614019884762754  2.0626652197582898 -11.685684168679041  2.0740197345848652 -11.722451718163015  2.0852464990684392 -11.759603031410624  2.0963525422289333 -11.797111177301796  2.1212470141877504 -11.882822529710293  2.1349666515302674 -11.931226222373727  2.1485147949359402 -11.980120423473798  2.1619016106190498 -12.029468241748761  2.1751353860830456 -12.079240618898773 
 0 6 0.074923718779202203 4 0.15528794879057711 4 0.24095378356045216 4 0.33205806449864617 4 0.42843174859394362 4 0.52969628520168555 4 0.63534201878124907 4 0.74479585083833122 4 0.85747244369043307 4 1 6
7 0 0  5 42 11  4.6416674073670698 3.4031813772104407  4.6416706497684261 3.4094643084660103  4.6416380244278814 3.4157586279989371  4.6415692362398282 3.4219839784690516  4.6414678865325349 3.4281102674882771  4.6411935783492089 3.4406447716653923  4.6410161761934221 3.447030205891644  4.640806194135215 3.4533135719391419  4.6405662853276679 3.4594971403349826  4.6400138610997681 3.4720768072020811  4.6396975984125159 3.4784594618723865  4.6393530338638618 3.4847394354044843  4.6389827420816818 3.4909223492242076  4.6381701448486865 3.5034925906183565  4.6377247682746994 3.509867869259041  4.637255473250133 3.5161468851893689  4.6367645349201494 3.5223361883176167  4.6357136153190845 3.5349008300636617  4.6351512967343043 3.5412661864718871  4.6345691272895966 3.547545206638822  4.6339689960976349 3.5537444201894504  4.6327045994126532 3.5663057943430458  4.6320386391731958 3.5726602519468642  4.631356354131853 3.5789397986164815  4.6306592491723766 3.5851504329213006  4.6292070854756338 3.5977103321615558  4.6284508365997441 3.6040539776435203  4.6276811852654776 3.610334285330095  4.6268992995835516 3.6165564970267745  4.625284360802671 3.6291161699140657  4.6244504887249587 3.6354497144186197  4.6236055681758703 3.6417308319508663  4.6227504925486693 3.6479639646579214  4.6209960325363939 3.660524172777547  4.6200960916761415 3.6668486245336225  4.61918696646093 3.6731304987671733  4.6182693352817585 3.6793734945548606  4.6161729658498967 3.6934326296310132  4.6149894675620375 3.7012273943134382  4.6137943896650739 3.7089715855547021  4.6125886656891151 3.716670804765799  4.6113730338057906 3.7243297841626499 
 0 6 0.074923718779202203 4 0.15528794879057711 4 0.24095378356045216 4 0.33205806449864617 4 0.42843174859394362 4 0.52969628520168555 4 0.63534201878124907 4 0.74479585083833122 4 0.85747244369043307 4 1 6
8 -564.85000000000002 51.350000000000001
1 0 -0.37409174311929677 -1 -2.0727558303781528e-016 
8 -564.85000000000002 51.350000000000001
1 1.4225161224072769 -2.4638898555520342e-017 2.4626137275084661e-016 1 
1 12 -256.75000000000006 0 1 
1 0 0 1 0 
1 0 -52 1 0 
1 14 -3.8857805861880489e-016 -2.7755575615628907e-017 1 
8 -7.4707574131867095e-007 0.074248687190392931
5 8.0000299203834473 149.37610810810673 0 -1 1 0 149.37567567563261 40.049999999988827
8 -7.4707574131867095e-007 0.074248687190392931
7 0 0  8 9 2  4.7123889803846897 -1.0348716452454108  4.7031078011014253 -1.0348705729313257  4.6938266217448472 -1.0500943317726978  4.6845466605609545 -1.0805429216334232  4.6752691358778975 -1.1262191401747259  4.6659952641348355 -1.187128582871992  4.6567262587186633 -1.2632796442778726  4.6474633277364132 -1.354683520622058  4.6382076727758728 -1.4613542136447144 
 -7.4707574131867095e-007 9 0.074248687190392931 9
2 11.000002241225552 7.9999977587744482 0.999999999999721 7.470757408769853e-007 7.470757408769853e-007 -0.999999999999721 2.9998818167463055
1 0 1.03531935091067 1 0 
8 -59.700000000000017 -45.299999999999983
1 -44.5 5.0001159420289882 -1 3.5197287918370069e-017 
8 -59.700000000000017 -45.299999999999983
1 1.0353193509106702 -44.5 6.0450478671681681e-017 1 
1 -12 256.74999999999994 0 -1 
1 0 0 1 0 
1 0 -52 1 0 
1 1.9999999999999858 513.5 2.7755575615628907e-017 -1 
8 -65.364003826788249 -64.899238521987513
1 491.58264282565005 -63.096737569196584 -0.25896931395433903 -0.96588554934320192 
8 -65.364003826788249 -64.899238521987513
1 66.360592735632196 -91 1 -3.1714594141156729e-017 
8 -564.85000000000002 51.350000000000001
1 0 -0.3740917431192714 -1 0 
8 -564.85000000000002 51.350000000000001
1 1.4225161224072504 -4.5067002208622911e-017 3.1681189055599845e-017 1 
3 1.0363131252040398 -506.43003562005276 -1 3.1681189055599839e-017 -3.1681189055599839e-017 -1 2.0694143071571265 1.9989686357617356
7 0 0  8 9 2  6.2831853071795853 -91.038540540540524  6.2430417563105571 -91.059300291357687  6.2028982054407606 -91.079805056200712  6.1627546545969381 -91.100003857165575  6.1226111036849034 -91.119846592075191  6.0824675528529042 -91.139284299395513  6.0423240019636069 -91.158269411622314  6.0021804510963843 -91.176755999736173  5.9620369002273561 -91.194699999999997 
 1.8323850504155457 9 2.1535334573677747 9
8 50.750925364873815 51.03093878230267
1 50.755129505341486 -495.62298425611237 -0.96806044518875178 -0.25071692097055553 
8 50.750925364873815 51.03093878230267
1 50.758970409155658 -103.76217642735618 -0.96813370334201654 0.2504338883882779 
8 3.4031813772104407 4.4508002567640439
1 4.7123889803846897 0 0 1 
8 3.4031813772104407 4.4508002567640439
1 0 -3.1415926535897931 0 1 
1 0 -1.5716147746823974 1 0 
8 1.5707963267948966 4.7123889803846897
1 0 3.4031813772104407 1 0 
1 0 1.3092076031742512 1 0 
8 0 1.5707970738706383
1 0 0 1 0 
1 1.5707970738706365 1.4980310562168619 -1 9.612338465653149e-015 
8 0.26158872362064767 1.3092076031742512
1 1.5707970738706383 0 0 1 
8 0.26158872362064767 1.3092076031742512
1 6.5447740308002338 -100.00000224122556 -1 -0 
8 -100.00000224122556 -0
1 6.2831853071795862 0 0 1 
1 1.5716147746823974 -4.9843124725297714e-017 0 1 
8 1.0348716452454052 1.5716147746823974
1 0 0 0 1 
8 1.0348716452454052 1.5716147746823974
1 4.7123889803846897 0 -0 -1 
1 0 1.5716147746823974 1 0 
8 0 1.5707970738706383
1 0 0.26158872362064767 1 0 
8 1.0348716452454052 1.5716147746823974
1 1.5707970738706374 0 0 1 
8 1.0348716452454052 1.5716147746823974
1 -4.4408920985006262e-016 -100.00000224122556 1 0 
Curves 43
1 513.5 0 0 0 0 1 
1 -7 -3 10.604987890232353 -1 0 -5.5511151231257815e-017 
2 1.0000299203834473 -2.9999999999999982 52.049999999988827 0 1 0 -0.999999999999721 0 7.470757416642282e-007 7.470757416642282e-007 -0 0.999999999999721 45.589277439024386
1 3.5392774390243984 -3.0000000000000013 -46.5 1.0359683977876125e-016 -2.7755575615628914e-017 -1 
1 506.5 -3 1.3950121097676544 1 0 0 
8 3.4033616610104023 4.4506199729640805
2 44.191313984168914 256.75 2.0346860158311046 -1.4926731101488178e-016 1 0 1 1.4926731101488178e-016 -0 -0 0 -1 4.0005996568088324
8 1.0359628282748408 2.1067154530215992
1 39.782000000000039 256.75 1.0350000000000001 0.25869654073041726 4.8162065017231699e-017 0.96595864291082134 
1 12 256.74999999999994 52 0 0 1 
1 513.5 3 0 0 0 1 
1 -12 256.74999999999994 52 0 0 1 
8 1.0359628282748408 2.1067154530216006
1 -39.781999999999996 256.75 1.0350000000000001 -0.25869654073041731 3.1681189055599845e-017 0.96595864291082134 
8 0 1.0472583119536782
2 -44.191313984168893 256.75 2.0346860158311046 -0 -1 -0 0.96593368886387176 -0 0.25878969979084004 -0.25878969979084004 0 0.96593368886387176 4.0005996568088324
7 0 0  7 14 3  19.991954220845212 -3.0000000000000004 10.604987890232351  19.417754845831144 -2.9114634819713965 10.705368483821941  18.807511753500133 -2.8222128937288837 10.798661561439095  18.160911857907767 -2.7324949052126937 10.885610636243275  17.476237543567226 -2.6425602033525846 10.966713722331226  16.750814451472834 -2.5526708793764299 11.042343189955654  15.980244558575327 -2.4631256825260115 11.112801375394483  14.547566236064252 -2.3086573159479897 11.226728656532831  13.910189571654453 -2.2434677547772202 11.272397802687266  13.240574204845206 -2.1788373718867184 11.315456555571551  12.534544958453683 -2.1149643809588277 11.355954651951581  11.786541906668258 -2.0521835797875925 11.393874306607994  10.990040089785527 -1.9909450127663346 11.429163932395156  10.132270194533906 -1.9319999999999999 11.461679061876779 
 0 8 0.57502092055281118 6 1 8
7 0 0  4 74 25  4.8327915023897967 -1.035000000000001 11.823000000000002  4.8802831250836007 -1.0483399963324165 11.819425993123675  4.9280112301711991 -1.0615949573755037 11.815808960192401  4.9759749991021183 -1.0747648991811145 11.812150417950013  5.0727096035181649 -1.1010250172566709 11.804727809302278  5.1214837184629314 -1.1141140104139078 11.800963187900004  5.1704987703494192 -1.1271164672772851 11.797159639009555  5.2689359143952963 -1.1529266631095014 11.789484183126511  5.3183572088879636 -1.1657346844882801 11.785612397564901  5.3680238348677136 -1.1784557963851299 11.78170505358103  5.4677281093489105 -1.2036909557831919 11.773832666824669  5.5177644794589993 -1.2162054495903294 11.769867797486471  5.5680528606264783 -1.2286325428389853 11.7658708707923  5.6689679395438368 -1.2532677168882356 11.757830371148865  5.7195928436216343 -1.2654764098262201 11.753787009744123  5.7704783713623549 -1.2775971158333777 11.74971521654466  5.872557471952466 -1.3016079585314064 11.741536397680699  5.9237486894367475 -1.3134988765963256 11.737429607492885  5.9752107806903787 -1.3253011379583717 11.733298129548411  6.0784144625392553 -1.3486639282772988 11.725011679345025  6.1301530802703637 -1.36022541238499 11.72085695180238  6.1821742040084064 -1.3716974898871976 11.716681394428971  6.2864685579711885 -1.3943891536233437 11.708318805880022  6.3387381347554363 -1.4056098742341274 11.704132013282555  6.3913030037653957 -1.4167403544777599 11.699928359421744  6.4966581467422682 -1.4387384857777983 11.691521833558525  6.549444018374925 -1.4496074566455261 11.687319177814432  6.6025389109050181 -1.4603852600913949 11.683103738003943  6.7089277218725272 -1.4816681425575271 11.674686078567975  6.7622164176543897 -1.4921747336912021 11.670484035825666  6.8158286015569001 -1.5025891229561303 11.666273393938004  6.9232256491760742 -1.5231357502456104 11.657877893597639  6.9770043977620375 -1.5332697001398485 11.653693154702619  7.0311216360150919 -1.5433102884220782 11.64950410935913  7.1395022596555009 -1.5631003842668023 11.641164427356651  7.1937585673386621 -1.5728518114281098 11.63701383411694  7.2483686886470737 -1.5825085709717546 11.632863335732667  7.3577082035826695 -1.6015226085518151 11.624613366957723  7.4124294921968499 -1.6108820223204747 11.620513844266581  7.4675200141187483 -1.6201452928578195 11.616418927737111  7.5777930185803077 -1.6383645134687823 11.608292663350598  7.6329663133795851 -1.64732282410968 11.604261147292904  7.6885241083420439 -1.6561833212461572 11.600238860397315  7.7997038755143162 -1.6735897522032028 11.592270240277326  7.8553155358652402 -1.6821382802103857 11.58832360243529  7.9113265327141065 -1.690587103742329 11.584390930100147  8.0233844749924401 -1.7071635754660308 11.57661368754759  8.0794199626302934 -1.7152940599952409 11.57276865582226  8.1358688781641231 -1.723322702175841 11.568942440468469  8.2487740742867892 -1.7390528644038721 11.561389939793035  8.3052177553421025 -1.7467574707130851 11.557663016170393  8.3620878517140262 -1.7543578245093112 11.553959874446356  8.4758066299473001 -1.7692261615763381 11.546664942251006  8.532641607998114 -1.7764974873151813 11.543072318062931  8.5899144730328274 -1.7836618547299592 11.539508554351595  8.7044100455326578 -1.7976536998548494 11.532503305541741  8.7616180235904082 -1.8044847800015744 11.529060774900403  8.8192733720435648 -1.8112058805713842 11.525652292072046  8.9345055169313294 -1.8243074290876593 11.518967951828881  8.992066686508057 -1.8306917392875819 11.515690824044013  9.0500821811615015 -1.8369627189089188 11.512453032006741  9.1660069697807227 -1.8491610403736511 11.506119755175497  9.2238999249559335 -1.8550924983928416 11.503022767089936  9.2822510173039312 -1.860906938680509 11.49997048976442  9.3988205845952351 -1.87218998780327 11.494017179308019  9.4570222582020271 -1.8776629527864277 11.491114408596452  9.5156820494353589 -1.8830148812219529 11.488261790006131  9.6328444053989379 -1.8933715075769468 11.482715916350427  9.6913300230100656 -1.8983807768101375 11.480020696902795  9.7502691471974554 -1.9032646779930353 11.477381107127306  9.8890858052988158 -1.914374782754523 11.471351221184333  9.9693232362455113 -1.9204984206753934 11.468007849194469  10.050385981927334 -1.9263778065463673 11.464780364825868  10.132270194533911 -1.9319999999999986 11.461679061876779 
 0 5 0.044425849162314464 3 0.089159320549338422 3 0.13382010124120894 3 0.1783666861635656 3 0.22275801050038416 3 0.26695329908885812 3 0.31091200469516761 3 0.35459382343619705 3 0.39795877840303828 3 0.44096736482307697 3 0.48358075193605848 3 0.52576103822779208 3 0.56747155782569647 3 0.6086772367604395 3 0.64934499846883564 3 0.6894442183645213 3 0.72894722751660856 3 0.76782986539916731 3 0.80607208119748375 3 0.84365858209891498 3 0.8805795250687185 3 0.91683124538865479 3 0.95241701012916291 3 1 5
1 40.326999999999998 -256.75 3.0700000000000003 -8.1958140149100351e-018 -1 -3.0602718385948388e-017 
2 -65.596373761910741 30.806748005562408 3.4499999999999984 -0 0 -1 -7.47075741465531e-007 -0.999999999999721 0 -0.999999999999721 7.47075741465531e-007 0 41.603000000000002
8 -0 1.498031056216877
1 -23.993373761922349 30.806716924970335 3.4500000000000002 0.96593308447766268 -7.2162517530692774e-007 0.25879195565347091 
7 0 0  8 16 3  -22.546386003154446 30.806715843960884 3.8376757074747823  -22.337984657058687 31.015073622822307 3.8935103709091576  -22.131739092136574 31.222575018129739 3.9490762731697471  -21.92436651589454 31.432046101131263 4.0052422642631393  -21.718811022707349 31.64122028182679 4.061234012346107  -21.514080812304293 31.850280243099235 4.1172839921559863  -21.309198978613196 32.060865839722268 4.1736836194405775  -21.105796206848908 32.270915098242305 4.2299664212533727  -20.69042211259859 32.702150944797502 4.3455017177495732  -20.478789035270257 32.92306114033277 4.4046877860653151  -20.26790921928621 33.14437187909197 4.4639811675748016  -20.057774601554357 33.366076840956765 4.5233801689974218  -19.848377266686363 33.588169864896635 4.5828831396752179  -19.639709446997664 33.810644948968907 4.6424884715728956  -19.431763522507474 34.033496250318699 4.7021945992778162  -19.224532020938767 34.256718085178981 4.7619999999999996 
 0 9 0.48866917821901323 7 1 9
1 77.453626238078087 29.359718085178965 3.4499999999999984 1 0 0 
3 -7.6593030338987091 0.00031398416889549807 4.0413139841688945 0.25879195565347096 0.96593308447793214 0 0.96593308447793214 -0.25879195565347096 0 0 0 -1 15.45874811567071 4.0005996568088324
8 0 1.4980310562168619
1 -22.546376003147465 29.35971808517812 3.4500000000000002 6.4319256267342164e-016 0.96593308447793225 0.25879195565347091 
7 0 0  4 35 12  -0.44699999999997075 -1.9319999999999991 0.53832093812323234  -0.50768857756725172 -1.9157522406876117 0.52935838207333297  -0.56654826677335501 -1.8972689881430533 0.51929341517622041  -0.62354759300792462 -1.8767886688986903 0.50833869393193276  -0.72307218484468083 -1.8365908304901291 0.48730382432845071  -0.76627672226080823 -1.8174900135924952 0.47746287377361946  -0.80829446752739409 -1.7973249610325486 0.46726170333707023  -0.88524794276038044 -1.7574797335416221 0.44751465521042805  -0.9204358360596725 -1.7380200110006359 0.43803226762343539  -0.95475745846706417 -1.7178286528350957 0.42837670469856332  -1.0189303618162113 -1.6777861936431935 0.40961677320787787  -1.0489155563997601 -1.6580472570572238 0.40053367230810533  -1.0782159508908227 -1.6377433540696396 0.39137075830755097  -1.133622224532951 -1.5973914483514391 0.37353680414477575  -1.1598119248626839 -1.5774125065959974 0.36487250844316077  -1.1854315416379619 -1.556966738816584 0.35618346714661087  -1.2342086823821754 -1.5162788856794236 0.33926012131900563  -1.2574245511894782 -1.4960846076093939 0.33102642199501453  -1.280147521697206 -1.4754876042407439 0.32280417080723145  -1.3235963422239598 -1.4344634368183216 0.30678942488846861  -1.344365967997883 -1.4140720292039632 0.29899457007566949  -1.3646966229804649 -1.3933231338566519 0.29123692380909311  -1.4036772254755496 -1.3519724406267761 0.27613355170586956  -1.4223618900153103 -1.3313988294982999 0.26878389222403287  -1.4406460977397066 -1.3105017783367858 0.26149096252595833  -1.4757604084654214 -1.2688389844336994 0.24730359920588246  -1.4926192205746276 -1.2480962684215475 0.24040434072032674  -1.5091053582646836 -1.2270572560817663 0.23357737772812159  -1.5407923020933783 -1.185099174344201 0.22031134654581347  -1.556017612904089 -1.1641993611707844 0.21386693195651657  -1.5708902760494934 -1.1430260771180083 0.20750774910439357  -1.5997894650538365 -1.1003335952862536 0.19503493542573755  -1.6138225099183003 -1.0788193779114781 0.18891958829054553  -1.6275020407829157 -1.057040635828169 0.18290505289848957  -1.6408229439944315 -1.0350000000000006 0.17700000000000338 
 0 5 0.14443224399467139 3 0.26082726435559461 3 0.36357951156203966 3 0.45776394627106476 3 0.54583332423921105 3 0.62918516911898714 3 0.7087051920305123 3 0.78500022451430562 3 0.8585127224006609 3 0.92958281880645266 3 1 5
1 -40.326999999999998 256.75 3.0700000000000003 8.1958140149100351e-018 1 -3.0602718385948388e-017 
5 1.0000299203834486 240.33077465276727 76.463956848038634 -5.3621476309763186e-017 0.25869654073041737 -0.96595864291082134 -1.4360542795489449e-017 -0.96595864291082134 -0.25869654073041737 -1 -1.5407439555097883e-033 5.5511151231257827e-017 94.266417454598795 1.1597301874875161
7 0 0  5 42 11  3.8398606072966306 -0.51799999999999891 11.961459459459469  3.8399601377121453 -0.53013211613135569 11.95821031779284  3.8415046727849358 -0.54226071937701281 11.95496211692361  3.8445037383805811 -0.55422942534347275 11.951756738667235  3.8488117615800128 -0.56598166059685484 11.948609334139917  3.8603257756085156 -0.58997303758699826 11.942184125068847  3.8677101513031857 -0.60216458971427178 11.938919065653925  3.8764054851066767 -0.61413131147203082 11.935714218794969  3.8863055395080188 -0.62587843744381622 11.932568182601051  3.909045696764375 -0.64971647307275493 11.926184040381015  3.922036711008289 -0.6617778675071051 11.922953838923167  3.9361683791053963 -0.67361233542059051 11.919784411398425  3.951337675815866 -0.68523158294216646 11.916672622750141  3.9845971073176258 -0.70878862916376439 11.910363733221507  4.0028112005959784 -0.72069961694380913 11.907173812661249  4.0219916467975363 -0.73239497526445518 11.904041640531149  4.0420474392579528 -0.74388806358537485 11.900963638990657  4.0849647594312639 -0.76714835058671338 11.894734225518555  4.1079209244966641 -0.77889288894287501 11.891588882322432  4.1316819249127672 -0.79043950352275094 11.888496545739615  4.1561722378056896 -0.80180130328568411 11.885453705016864  4.2077652134700347 -0.82474638461116045 11.879308707806848  4.2349367992183264 -0.83631163787794272 11.876211379536382  4.2627734829883117 -0.84769912327029662 11.87316165986128  4.2912151553656379 -0.85892068993121917 11.870156375423834  4.350465892037306 -0.88153129871695435 11.86410095439768  4.3813236473649777 -0.89290660299010871 11.861054496987915  4.4127309962335364 -0.9041241462200067 11.85805029007868  4.4446413430639566 -0.91519408845477868 11.855085612674282  4.5105596498157254 -0.9374501867774756 11.849125134253706  4.5446013782009516 -0.94862617960258167 11.846132055094158  4.5790999788976716 -0.95966276454358734 11.843176311215608  4.6140198847627545 -0.97056834993158603 11.840255650755431  4.6856841686790407 -0.99244929645706903 11.834395642963594  4.7224517181630148 -1.0034172881898589 11.831458269256286  4.7596030314106237 -1.0142618783746911 11.828553944120792  4.7971111773017956 -1.0249898567541114 11.825680849173969  4.8828225297102925 -1.0490368871034317 11.819240735394912  4.9312262223737271 -1.0622894893720378 11.815691512674327  4.9801204234737977 -1.075376435590143 11.812186654841961  5.0294682417487611 -1.0883075459002969 11.808723531933344  5.0792406188987727 -1.1010908256880847 11.805300000000006 
 0 6 0.074923718779202203 4 0.15528794879057711 4 0.24095378356045216 4 0.33205806449864617 4 0.42843174859394362 4 0.52969628520168555 4 0.63534201878124907 4 0.74479585083833122 4 0.85747244369043307 4 1 6
1 -7 -0.37409174311929677 12 -1 -2.0727558303781528e-016 0 
1 0 0 -12 1 0 0 
5 1.0000299203834473 149.37610810810673 12 0 0 1 0 -1 0 1 0 -0 149.37567567563261 40.049999999988827
2 0.99999775877444819 2.2204460492503131e-016 9.0000022412255518 0 -1 0 7.4707574090474087e-007 0 0.999999999999721 -0.999999999999721 0 7.4707574090474087e-007 2.9998818167463055
1 -1.9998840579710129 -1.2212453270876722e-015 -46.5 7.4417123027411509e-018 -2.7755575615628914e-017 -1 
1 513.5 0 12 -1 0 0 
1 14.917357174349959 -63.096737569196584 0 0.25896931395433903 -0.96588554934320192 0 
1 506.5 -0.3740917431192714 3.3306690738754696e-016 1 -0 0 
3 0.069964379947215605 -0.0010356200527843473 -0.099909379396194709 0 0.25869654073041731 0.96595864291082134 0 0.96595864291082134 -0.25869654073041731 -1 0 0 2.0694143071571265 1.9989686357617356
1 10.877015743887601 -48.027356017742655 12.762176427356177 -0.25071692097055559 0.93510635389017205 -0.25043388838827779 
8 3.4031813772104407 4.4508002567640439
2 -23.47640938197528 30.806716538758796 1.5190356200527844 7.4707574128183401e-007 0.999999999999721 0 0.999999999999721 -7.4707574128183401e-007 -0 0 0 -1 1.9989686357617356
2 -65.596373761910741 30.806748005562408 2.036 -0 0 -1 -7.4707574150719232e-007 -0.999999999999721 0 -0.999999999999721 7.4707574150719232e-007 0 40.189000000000007
2 -22.546376003147465 30.806715843953409 3.4499999999999984 0 0 1 -0.999999999999721 7.4707574127705389e-007 0 -7.4707574127705389e-007 -0.999999999999721 0 1.4469977587752858
8 0.26158872362064767 1.3092076031742512
2 -22.546376003147465 29.876682465125334 1.5190356200527844 -1 -3.7548727029810798e-016 0 3.7548727029810798e-016 -1 0 0 0 1 1.9989686357617356
1 77.453626238078087 27.945718085178964 2.036 1 -8.2131066870756587e-018 -3.063266818422786e-017 
8 1.0348716452454052 1.5716147746823974
1 -25.814373761921836 30.806718285395267 0.51800000000000002 0.25896931395426692 -1.9346969220247496e-007 0.96588554934320192 
2 -22.546376003147465 30.806715843953409 2.036 0 0 1 -0.999999999999721 7.4707574090474087e-007 0 -7.4707574090474087e-007 -0.999999999999721 0 2.8609977587752899
8 1.0348716452454052 1.5716147746823974
1 -22.546376003147465 27.538718085178115 0.51800000000000002 3.6353595304970503e-017 0.25896931395433914 0.96588554934320192 
Polygon3D 0
PolygonOnTriangulations 0
Surfaces 26
1 0 0 0 -0 1 0 0 0 1 1 0 -0 
1 513.5 0 0 1 0 -0 0 0 1 0 -1 0 
10 5.235926995225908 6.2831853071795862 -513.5 -0
2 44.191313984168893 -256.75 2.0346860158311046 0 -1 0 -0.96593368886387176 0 0.25878969979084004 -0.25878969979084004 -0 -0.96593368886387176 4.0005996568088324
10 1.5707963267948966 4.7123889803846897 -5.0697093605057857 -0
3 -65.596373761910741 30.806748005562408 3.4500000000000002 -0 0 -1 -7.470757416642282e-007 -0.999999999999721 0 -0.999999999999721 7.470757416642282e-007 0 41.603000000000002
-1.309024983951719
1 77.453626238078087 29.359718085178965 3.4500000000000002 0 0.25879195565347096 -0.96593308447793214 1.1829268600964296e-016 0.96593308447793214 0.25879195565347096 1 -1.1426281906847396e-016 -3.0613195551937488e-017 
10 5.235926995225908 6.2831853071795862 -513.5 -0
2 -44.191313984168893 256.75 2.0346860158311046 0 1 0 0.96593368886387176 -0 0.25878969979084004 0.25878969979084004 0 -0.96593368886387176 4.0005996568088324
10 1.5707963267948966 4.7123889803846897 3.4033616610104023 4.4506199729640805
5 -1.8838661659859044e-015 256.75 2.0346860158311046 -0 -0 -1 -3.4429708857221194e-017 -1 0 -1 3.4429708857221194e-017 0 44.191313984168914 4.0005996568088324
10 1.5707963267948966 4.7123889803846897 -2.1067154530215992 -1.0359628282748408
3 -1.8838661659859044e-015 256.75 1.0350000000000001 -0 -0 -1 2.475028974195554e-018 -1 0 -1 -2.475028974195554e-018 0 39.782000000000039
-0.26167256409525574
1 39.781999999999996 -256.75 1.0350000000000001 0.96595864291082134 0 -0.25869654073041731 0.25869654073041731 -3.1681189055599845e-017 0.96595864291082134 -8.1958140149100351e-018 -1 -3.0602718385948388e-017 
2 1.1637642623914289e-016 256.74999999999994 52 0 -0 -1 -0 -1 0 1 0 0 12
1 12 -256.75000000000006 52 -1 0 0 0 1 0 0 0 -1 
1 0 3 0 -0 1 0 0 0 1 1 0 -0 
2 1.1637642623914289e-016 256.74999999999994 52 0 -0 -1 -0 -1 0 1 0 0 12
1 -12 256.74999999999994 52 1 0 -0 0 -1 0 0 -0 -1 
1 -39.781999999999996 256.75 1.0350000000000001 -0.96595864291082134 0 -0.25869654073041731 -0.25869654073041731 3.1681189055599845e-017 0.96595864291082134 8.1958140149100351e-018 1 -3.0602718385948388e-017 
10 1.5707963267948966 4.7123889803846897 -2.1067154530215992 -1.0359628282748408
3 -1.8838661659859044e-015 256.75 1.0350000000000001 -0 -0 -1 2.475028974195554e-018 -1 0 -1 -2.475028974195554e-018 0 39.782000000000039
-0.26167256409525574
10 1.5707963267948966 4.7123889803846897 3.4033616610104023 4.4506199729640805
5 -1.8838661659859044e-015 256.75 2.0346860158311046 -0 -0 -1 -3.4429708857221194e-017 -1 0 -1 3.4429708857221194e-017 0 44.191313984168914 4.0005996568088324
10 1.5707963267948966 4.7123889803846897 3.4031813772104407 4.4508002567640439
5 -65.596373761910741 30.806748005562408 1.5190356200527844 -0 0 -1 -7.47075741465531e-007 -0.999999999999721 0 -0.999999999999721 7.47075741465531e-007 0 42.119964379947213 1.9989686357617356
10 0 1.5707970738706383 0 5.0697093605057857
3 -22.546376003147465 30.806715843953409 3.4500000000000002 0 0 1 -0.999999999999721 7.4707574054206127e-007 0 -7.4707574054206127e-007 -0.999999999999721 0 1.446997758775288
-1.309024983951719
10 5.235566427625983 6.2831853071795862 -100.00000224122556 -0
2 77.453626238078087 29.876682465126176 1.5190356200527844 1 0 0 0 -0.9659803287565798 0.25861555339022069 0 -0.25861555339022069 -0.9659803287565798 1.9989686357617356
10 1.5707963267948966 4.7123889803846897 -1.5716147746823974 -1.0348716452454052
3 -65.596373761910741 30.806748005562408 0.51800000000000002 -0 0 -1 -7.4707574150719232e-007 -0.999999999999721 0 -0.999999999999721 7.4707574150719232e-007 0 39.782000000000004
-0.261954960805304
1 0 0 52 0 0 1 1 0 -0 -0 1 0 
10 0 1.5707970738706383 1.0348716452454052 1.5716147746823974
3 -22.546376003147465 30.806715843953409 0.51800000000000002 0 0 1 -0.999999999999721 7.4707574090474087e-007 0 -7.4707574090474087e-007 -0.999999999999721 0 3.2679977587752935
-0.26195496080530395
1 77.453626238078087 27.53871808517896 0.51800000000000002 0 0.96588554934320192 -0.25896931395433903 3.1714594141156729e-017 0.25896931395433903 0.96588554934320192 1 -8.2131066870756587e-018 -3.063266818422786e-017 
1 0 0 52 0 0 1 1 0 -0 -0 1 0 
10 0 1.5707970738706383 0.26158872362064767 1.3092076031742512
5 -22.546376003147465 30.806715843953409 1.5190356200527844 0 0 1 -0.999999999999721 7.4707574127705389e-007 0 -7.4707574127705389e-007 -0.999999999999721 0 0.93003337882807469 1.9989686357617356
Triangulations 0

TShapes 110
Ve
0.0001
506.5 -2.99999999999993 1.39501210976749
0 0

0101101
*
Ve
0.0001
506.5 -2.99999999999993 10.6049878902325
0 0

0101101
*
Ed
 1e-007 1 1 0
1  1 0 3.3950121097675 12.6049878902325
2  1 2 0 3.3950121097675 12.6049878902325
2  2 1 0 3.3950121097675 12.6049878902325
0

0101000
+110 2 -109 2 *
Ve
0.000100100001
19.9919542208454 -3 10.6049878902324
0 0

0101101
*
Ed
 0.0001 1 1 0
1  2 0 -513.5 -26.9919542208454
2  3 1 1 -513.5 -26.9919542208454
2  4 3 6 -513.5 -26.9919542208454
0

0101000
+109 0 -107 0 *
Ve
0.0001
3.53927742973618 -3 6.53149343963751
0 0

0101101
*
Ed
 0.0001 1 1 0
1  3 0 4.28269985802363 4.65666104461725
2  5 1 1 4.28269985802363 4.65666104461725
2  6 4 10 4.28269985802363 4.65666104461725
0

0101000
+107 0 -105 0 *
Ve
0.000100100001
3.53927743902432 -3 1.39501210976765
0 0

0101101
*
Ed
 0.0001 1 1 0
1  4 0 -53.0314934396375 -47.8950121097677
2  7 1 1 -53.0314934396375 -47.8950121097677
2  8 5 10 -53.0314934396375 -47.8950121097677
0

0101000
+105 0 -103 0 *
Ed
 0.0001 1 1 0
1  5 0 -502.960722560976 0
2  9 1 1 -502.960722560976 0
2  10 6 14 -502.960722560976 0
0

0101000
+103 0 -110 0 *
Wi

0101100
-108 1 -106 0 -104 0 -102 0 -101 0 *
Fa
0  1e-007 1 1

0111000
+100 0 *
Ve
0.0001
40.327 256.75 3.07
0 0

0101101
*
Ed
 1e-007 1 1 0
1  6 0 3.4033616610104 3.98960342988825
2  11 7 0 3.4033616610104 3.98960342988825
2  12 3 0 3.4033616610104 3.98960342988825
4 G1 7 0 3 0
2  13 2 15 3.4033616610104 3.98960342988825
0

0101000
+98 0 -109 16 *
Ve
0.000100000000056843
506.5 -0.374091743119245 12
0 0

0101101
*
Ed
 1e-007 1 1 0
1  7 0 1.42251612240722 2.1067154530216
4 G1 8 0 9 0
2  14 8 0 1.42251612240722 2.1067154530216
2  15 9 0 1.42251612240722 2.1067154530216
2  16 2 15 1.42251612240722 2.1067154530216
0

0101000
+96 16 -98 0 *
Ve
0.001
513.5 0 -12
0 0

0101101
*
Ed
 0.0001 1 1 0
1  8 0 0 0.374091743119245
2  17 10 0 0 0.374091743119245
4 G1 11 0 10 0
2  18 11 0 0 0.374091743119245
2  19 2 21 0 0.374091743119245
0

0101000
+94 23 -96 24 *
Ve
0.001
513.5 0 12
0 0

0101101
*
Ed
 1e-007 1 1 0
1  9 0 2.00000000000001 14
2  20 2 0 2.00000000000001 14
2  21 12 0 2.00000000000001 14
0

0101000
+92 29 -94 30 *
Ve
0.000100000000000333
506.5 -0.374091743119272 3.33066907387547e-016
0 0

0101101
*
Ed
 0.0001 1 1 0
1  10 0 0 0.374091743119272
2  22 13 0 0 0.374091743119272
4 G1 13 0 14 0
2  23 14 0 0 0.374091743119272
2  24 2 32 0 0.374091743119272
0

0101000
+92 33 -90 34 *
Ve
0.0001
-40.327 256.75 3.07
0 0

0101101
*
Ed
 1e-007 1 1 0
1  11 0 1.42251612240725 2.1067154530216
4 G1 15 0 16 0
2  25 15 0 1.42251612240725 2.1067154530216
2  26 16 0 1.42251612240725 2.1067154530216
2  27 2 35 1.42251612240725 2.1067154530216
0

0101000
+90 36 -88 0 *
Ed
 1e-007 1 1 0
1  12 0 0 0.586241768877843
2  28 6 0 0 0.586241768877843
2  29 17 0 0 0.586241768877843
4 G1 6 0 17 0
2  30 2 35 0 0.586241768877843
0

0101000
+88 0 -110 36 *
Wi

0101100
-108 1 +97 6 +95 6 +93 20 +91 1 -89 31 -87 14 -86 14 *
Fa
0  1e-007 2 1

0111000
+85 0 *
Ve
0.0001
10.1322701945343 -1.932 11.4616790618769
0 0

0101101
*
Ed
 0.0001 1 1 0
1  13 0 0 1
2  31 3 6 0 1
2  32 4 10 0 1
0

0101000
+107 0 -83 0 *
Ve
0.0001
4.83279150238982 -1.035 11.823
0 0

0101101
*
Ed
 0.0001 1 1 0
1  14 0 0 1
2  33 3 6 0 1
2  34 18 10 0 1
0

0101000
+81 0 -83 0 *
Ed
 1e-007 1 1 0
1  15 0 -513.5 -11.8327915023898
2  35 3 0 -513.5 -11.8327915023898
2  36 9 0 -513.5 -11.8327915023898
4 G1 9 0 3 0
0

0101000
+98 0 -81 16 *
Wi

0101100
-97 6 -106 0 -82 0 +80 0 +79 6 *
Fa
0  1e-007 3 6

0111000
+78 0 *
Ve
0.0001
-23.9933737619223 30.8067169249703 3.45
0 0

0101101
*
Ed
 1e-007 1 1 0
1  16 0 4.49107688494358 4.71238898038469
2  37 18 0 4.49107688494358 4.71238898038469
2  38 4 0 4.49107688494358 4.71238898038469
4 G1 18 0 4 0
0

0101000
+83 37 -76 0 *
Ve
0.0001
-22.5463860031544 30.8067158439609 3.83767570747478
0 0

0101101
*
Ed
 1e-007 1 1 0
1  17 0 -0 1.49803105621688
2  39 4 0 -0 1.49803105621688
2  40 19 0 -0 1.49803105621688
4 G1 4 0 19 0
0

0101000
+76 0 -74 0 *
Ed
 2.12131720304919e-005 1 1 0
1  18 0 0 0.738437980749211
2  41 4 0 0 0.738437980749211
2  42 5 0 0 0.738437980749211
4 C0 4 0 5 0
0

0101000
+74 0 -105 37 *
Wi

0101100
-75 10 -73 10 -72 10 +104 0 -82 0 *
Fa
0  1e-007 4 10

0111000
+71 0 *
Ve
0.0001
-22.5463760031475 29.3597180851781 3.45
0 0

0101101
*
Ve
0.0001
-0.446999999999996 -1.932 0.538320938123462
0 0

0101101
*
Ed
 1e-007 1 1 0
1  19 0 -100.000002241226 -91.5383209381235
2  43 20 0 -100.000002241226 -91.5383209381235
2  44 5 0 -100.000002241226 -91.5383209381235
4 G1 20 0 5 0
0

0101000
+69 0 -68 37 *
Ed
 0.0001 1 1 0
1  20 0 0.722785550496402 1.06671174557813
2  45 6 14 0.722785550496402 1.06671174557813
2  46 5 10 0.722785550496402 1.06671174557813
0

0101000
+103 0 -68 0 *
Ed
 1e-007 1 1 0
1  21 0 0 1.49803105621686
2  47 19 0 0 1.49803105621686
2  48 5 0 0 1.49803105621686
4 G1 19 0 5 0
0

0101000
+69 0 -74 0 *
Wi

0101100
-67 10 +66 0 +102 0 +72 10 +65 10 *
Fa
0  1e-007 5 10

0111000
+64 0 *
Ve
0.0001
-1.64082294399071 -1.03500000000002 0.177000000000004
0 0

0101101
*
Ed
 0.0001 1 1 0
1  22 0 0 1
2  49 6 14 0 1
2  50 20 10 0 1
0

0101000
+68 0 -62 0 *
Ed
 1e-007 1 1 0
1  23 0 -508.140822943991 -0
2  51 6 0 -508.140822943991 -0
2  52 15 0 -508.140822943991 -0
4 G1 15 0 6 0
0

0101000
+62 36 -88 0 *
Wi

0101100
+61 0 +66 0 -101 0 +86 14 +60 14 *
Fa
0  1e-007 6 14

0111000
+59 0 *
Ve
0.0001
3.83986060729659 -0.518 11.9614594594595
0 0

0101101
*
Ve
0.000100100001
3.83788071205068 -0.374091743119295 12
0 0

0101101
*
Ed
 0.0001 1 1 0
1  24 0 -1.62800823827591 -1.62736260467304
2  53 9 6 -1.62800823827591 -1.62736260467304
2  54 21 10 -1.62800823827591 -1.62736260467304
0

0101000
+57 0 -56 0 *
Ed
 0.0001 1 1 0
1  25 0 0 0.856184381246713
2  55 9 6 0 0.856184381246713
2  56 18 10 0 0.856184381246713
0

0101000
+57 0 -81 0 *
Ed
 0.0001 1 1 0
1  26 0 -513.5 -10.8378807120507
2  57 11 20 -513.5 -10.8378807120507
2  58 9 6 -513.5 -10.8378807120507
0

0101000
+96 0 -56 0 *
Wi

0101100
+55 0 -54 0 +79 6 +95 6 -53 0 *
Fa
0  1e-007 9 6

0111000
+52 0 *
Ve
0.096880621379077
-25.5463737619219 30.806718085179 1.51756756756756
0 0

0101101
*
Ed
 0.001 1 1 0
1  27 0 8 513.5
2  59 22 39 8 513.5
2  60 11 39 8 513.5
2  61 11 41 8 513.5
2  62 12 42 8 513.5
0

0101000
+50 43 -94 0 *
Ed
 0.0001 1 1 0
1  28 0 -7.47075741318671e-007 0.070798537358476
2  63 11 20 -7.47075741318671e-007 0.070798537358476
2  64 21 10 -7.47075741318671e-007 0.070798537358476
0

0101000
+50 10 -56 0 *
Wi

0101100
-49 38 -93 20 -53 0 +48 0 *
Fa
0  0.0001 11 20

0111000
+47 0 *
Ve
0.0001
-1.99988405797186 3.33066907387547e-016 9.00000224122555
0 0

0101101
*
Ed
 0.0001 1 1 0
1  29 0 0 1.57079707387064
2  65 12 1 0 1.57079707387064
2  66 23 10 0 1.57079707387064
0

0101000
+50 10 -45 0 *
Ve
0.00121621621621926
-2 0.000216216216219256 0
0 0

0101101
*
Ed
 0.0001 1 1 0
1  30 0 -55.5000022412256 -46.5
2  67 12 1 -55.5000022412256 -46.5
2  68 24 10 -55.5000022412256 -46.5
0

0101000
+45 0 -43 0 *
Ed
 0.001 1 1 0
1  31 0 0 508.5
2  69 25 45 0 508.5
2  70 14 45 0 508.5
2  71 14 47 0 508.5
2  72 12 48 0 508.5
0

0101000
+92 0 -43 49 *
Wi

0101100
-91 1 +49 38 -44 0 -42 0 +41 44 *
Fa
0  1e-007 12 1

0111000
+40 0 *
Ve
0.000100100001
-1.8995840978593 -0.374091743119271 3.33066907387547e-016
0 0

0101101
*
Ed
 0.0001 1 1 0
1  32 0 -65.325512250268 -64.9379689640542
2  73 14 31 -65.325512250268 -64.9379689640542
2  74 24 10 -65.325512250268 -64.9379689640542
0

0101000
+43 0 -38 0 *
Ed
 0.0001 1 1 0
1  33 0 -508.399584097859 0
2  75 14 31 -508.399584097859 0
2  76 15 14 -508.399584097859 0
0

0101000
+38 0 -90 0 *
Wi

0101100
-41 44 -37 0 -36 0 +89 31 *
Fa
0  0.0001 14 31

0111000
+35 0 *
Ve
0.0001
-1.861 -0.518000000000003 0.0385405405405379
0 0

0101101
*
Ed
 0.0001 1 1 0
1  34 0 1.83238505041555 2.11442965222629
2  77 15 14 1.83238505041555 2.11442965222629
2  78 20 10 1.83238505041555 2.11442965222629
0

0101000
+33 0 -62 0 *
Ed
 0.0001 1 1 0
1  35 0 50.8063663775753 50.9602614466036
2  79 15 14 50.8063663775753 50.9602614466036
2  80 24 10 50.8063663775753 50.9602614466036
0

0101000
+33 0 -38 0 *
Wi

0101100
-36 0 -87 14 +60 14 +32 0 -31 0 *
Fa
0  1e-007 15 14

0111000
+30 0 *
Ve
0.0001
-25.407373761922 30.8067179813354 2.036
0 0

0101101
*
Ed
 1e-007 1 1 0
1  36 0 3.40318137721044 4.45080025676404
2  81 18 0 3.40318137721044 4.45080025676404
2  82 26 0 3.40318137721044 4.45080025676404
4 G1 18 0 26 0
0

0101000
+28 0 -76 0 *
Ed
 1e-007 1 1 0
1  37 0 4.64166740736707 4.71238898038469
2  83 21 0 4.64166740736707 4.71238898038469
2  84 18 0 4.64166740736707 4.71238898038469
4 G1 21 0 18 0
0

0101000
+57 37 -28 0 *
Wi

0101100
-54 0 -80 0 -75 10 +27 10 +26 10 *
Fa
0  1e-007 18 10

0111000
+25 0 *
Ed
 1e-007 1 1 0
1  38 0 0 1.57079707387064
2  85 26 0 0 1.57079707387064
2  86 19 0 0 1.57079707387064
4 G1 26 0 19 0
0

0101000
+76 0 -69 0 *
Ed
 0.0001 0 0 1
2  87 19 0 0 1.57079707387064
0

0101000
+74 0 -74 0 *
Wi

0101100
-73 0 +65 0 +23 0 +22 0 *
Fa
0  1e-007 19 0

0101000
+21 0 *
Ve
0.0001
-22.5463760031475 27.9457180851781 2.036
0 0

0101101
*
Ed
 1e-007 1 1 0
1  39 0 0.261588723620648 1.30920760317425
2  88 26 0 0.261588723620648 1.30920760317425
2  89 20 0 0.261588723620648 1.30920760317425
4 G1 26 0 20 0
0

0101000
+19 0 -69 0 *
Ed
 1e-007 1 1 0
1  40 0 -100.000002241226 -91.0385405405405
2  90 20 0 -100.000002241226 -91.0385405405405
2  91 24 0 -100.000002241226 -91.0385405405405
4 G1 24 0 20 0
0

0101000
+19 0 -33 37 *
Wi

0101100
-18 10 -67 10 -61 0 +32 0 +17 10 *
Fa
0  1e-007 20 10

0111000
+16 0 *
Ed
 1e-007 1 1 0
1  41 0 1.03487164524541 1.5716147746824
4 G1 21 0 23 0
2  92 23 0 1.03487164524541 1.5716147746824
2  93 21 0 1.03487164524541 1.5716147746824
0

0101000
+50 0 -28 0 *
Wi

0101100
-14 10 +26 10 -55 0 +48 0 *
Fa
0  1e-007 21 10

0111000
+13 0 *
Ed
 1e-007 1 1 0
1  42 0 0 1.57079707387064
2  94 23 0 0 1.57079707387064
2  95 26 0 0 1.57079707387064
4 G1 23 0 26 0
0

0101000
+28 0 -19 0 *
Ed
 1e-007 1 1 0
1  43 0 1.03531935091067 1.5716147746824
4 G1 23 0 24 0
2  96 23 0 1.03531935091067 1.5716147746824
2  97 24 0 1.03531935091067 1.5716147746824
0

0101000
+45 37 -19 0 *
Wi

0101100
-14 10 -11 10 +10 10 +44 0 *
Fa
0  1e-007 23 10

0111000
+9 0 *
Wi

0101100
-42 0 -37 0 +31 0 +17 10 +10 10 *
Fa
0  1e-007 24 10

0111000
+7 0 *
Wi

0101000
-27 0 +11 0 +18 0 -23 0 *
Fa
0  1e-007 26 0

0101000
+5 0 *
Sh

0101100
-99 0 +84 0 +77 0 -70 0 -63 0 +58 0 -51 0 +46 0 +39 0 +34 0 
-29 0 +24 0 +20 10 +15 0 -12 0 +8 0 -6 0 +4 10 *
So

0100000
+3 0 *
Co

1100000
+2 0 *

+1 0 