DBRep_DrawableShape

CASCADE Topology V1, (c) Matra-Datavision
Locations 0
Curve2ds 20
1 0 0 0 1 
1 0 10 1 0 
1 0 0 0 -1 
1 0 0 0 1 
1 3 0 0 1 
1 0 0 0 1 
1 0 0 1 0 
1 0 0 0 -1 
1 0 0 0 1 
1 0 0 0 1 
1 0 10 1 0 
1 3 10 1 0 
1 0 0 0 -1 
1 10 0 0 1 
1 7 0 0 1 
1 0 0 0 1 
1 0 0 1 0 
1 3 0 1 0 
1 0 0 0 -1 
1 10 0 0 1 
Curves 8
1 0 10 0 1 0 -0 
1 3 0 0 -0 1 0 
1 0 0 0 1 0 -0 
1 0 0 0 -0 1 0 
1 3 10 0 1 0 -0 
1 10 0 0 -0 1 0 
1 3 0 0 1 0 -0 
1 13 0 0 -0 1 0 
Polygon3D 0
PolygonOnTriangulations 0
Surfaces 10
1 0 0 0 0 0 1 1 0 -0 -0 1 0 
1 0 10 0 -0 1 0 0 0 1 1 0 -0 
1 3 0 0 1 0 -0 0 0 1 0 -1 0 
1 3 0 0 0 0 1 1 0 -0 -0 1 0 
1 0 0 0 -0 1 0 0 0 1 1 0 -0 
1 0 0 0 1 0 -0 0 0 1 0 -1 0 
1 3 10 0 -0 1 0 0 0 1 1 0 -0 
1 10 0 0 1 0 -0 0 0 1 0 -1 0 
1 3 0 0 -0 1 0 0 0 1 1 0 -0 
1 13 0 0 1 0 -0 0 0 1 0 -1 0 
Triangulations 0

TShapes 26
Ve
1e-007
0 10 0
0 0

0101101
*
Ve
1e-007
3 10 0
0 0

0101101
*
Ed
 1e-007 1 1 0
1  1 0 0 3
2  1 2 0 0 3
2  2 1 0 0 3
0

0101000
+26 0 -25 0 *
Ve
1e-007
3 0 0
0 0

0101101
*
Ed
 1e-007 1 1 0
1  2 0 0 10
2  3 3 0 0 10
2  4 4 0 0 10
2  5 1 0 0 10
0

0101000
-25 0 +23 0 *
Ve
1e-007
0 0 0
0 0

0101101
*
Ed
 1e-007 1 1 0
1  3 0 0 3
2  6 5 0 0 3
2  7 1 0 0 3
0

0101000
+21 0 -23 0 *
Ed
 1e-007 1 1 0
1  4 0 0 10
2  8 6 0 0 10
2  9 1 0 0 10
0

0101000
-26 0 +21 0 *
Wi

0101000
-24 0 +22 0 +20 0 -19 0 *
Fa
0  1e-007 1 0

0111000
+18 0 *
Ve
1e-007
10 10 0
0 0

0101101
*
Ed
 1e-007 1 1 0
1  5 0 0 7
2  10 7 0 0 7
2  11 4 0 0 7
2  12 1 0 0 7
0

0101000
+25 0 -16 0 *
Ve
1e-007
10 0 0
0 0

0101101
*
Ed
 1e-007 1 1 0
1  6 0 0 10
2  13 8 0 0 10
2  14 1 0 0 10
2  15 4 0 0 10
0

0101000
-16 0 +14 0 *
Ed
 1e-007 1 1 0
1  7 0 0 7
2  16 9 0 0 7
2  17 4 0 0 7
2  18 1 0 0 7
0

0101000
+23 0 -14 0 *
Wi

0101000
-15 0 +13 0 +12 0 -22 0 *
Fa
0  1e-007 4 0

0111000
+11 0 *
Ve
1e-007
13 10 0
0 0

0101101
*
Ed
 1e-007 1 1 0
1  5 0 7 10
2  10 7 0 7 10
2  11 4 0 7 10
0

0101000
+16 0 -9 0 *
Ve
1e-007
13 0 0
0 0

0101101
*
Ed
 1e-007 1 1 0
1  8 0 0 10
2  19 10 0 0 10
2  20 4 0 0 10
0

0101000
-9 0 +7 0 *
Ed
 1e-007 1 1 0
1  7 0 7 10
2  16 9 0 7 10
2  17 4 0 7 10
0

0101000
+14 0 -7 0 *
Wi

0101000
-8 0 +6 0 +5 0 -13 0 *
Fa
0  1e-007 4 0

0111000
+4 0 *
Sh

0101000
-17 0 -10 0 -3 0 *
Co

1100000
+2 0 *

+1 0 
0

