DBRep_DrawableShape

CASCADE Topology V1, (c) Matra-Datavision
Locations 24
1
              1               0               0               0 
              0               1               0               0 
              0               0               1               0 
1
              1               0               0               0 
              0               1               0               0 
              0               0               1               0 
1
              1               0               0               0 
              0               1               0               0 
              0               0               1               0 
1
              1               0               0               0 
              0               1               0               0 
              0               0               1               0 
1
          0.001               0               0               0 
              0           0.001               0               0 
              0               0           0.001               0 
1
              1               0               0               0 
              0               1               0               0 
              0               0               1               0 
1
              1               0               0               0 
              0               1               0               0 
              0               0               1               0 
1
              1               0               0               0 
              0               1               0               0 
              0               0               1               0 
1
              1               0               0               0 
              0               1               0               0 
              0               0               1               0 
1
              1               0               0               0 
              0 3.26794896587934e-07 -0.999999999999947               0 
              0 0.999999999999947 3.26794896587934e-07           24000 
1
              1               0               0               0 
              0               1               0               0 
              0               0               1               0 
1
              1               0               0               0 
              0               1               0               0 
              0               0               1               0 
1
              1               0               0               0 
              0               1               0               0 
              0               0               1               0 
1
              1               0               0               0 
              0 3.26794896587934e-07 -0.999999999999947               0 
              0 0.999999999999947 3.26794896587934e-07          -75000 
1
              1               0               0               0 
              0               1               0               0 
              0               0               1            -150 
1
              1               0               0               0 
              0               1               0               0 
              0               0               1               0 
1
              1               0               0               0 
              0               1               0               0 
              0               0               1               0 
1
              1               0               0               0 
              0 -3.67320510341607e-06 -0.999999999993254               0 
              0 0.999999999993254 -3.67320510341607e-06          104.99 
1
              1               0               0               0 
              0               1               0               0 
              0               0               1               0 
1
              1               0               0               0 
              0               1               0               0 
              0               0               1               0 
1
              1               0               0               0 
              0 -3.67320510341607e-06 -0.999999999993254               0 
              0 0.999999999993254 -3.67320510341607e-06              30 
1
              1               0               0               0 
              0               1               0               0 
              0               0               1               0 
1
              1               0               0               0 
              0               1               0               0 
              0               0               1               0 
1
              1               0               0               0 
              0               1               0               0 
              0               0               1               0 
Curve2ds 24
1 0 2000 1 0 
2 0 0 1 0 -0 1 15000
1 6.2831853071795862 -0 0 1 
1 0 -0 0 1 
1 0 0 1 0 
2 0 0 1 0 -0 1 15000
1 0 2000 1 0 
2 0 0 1 0 -0 1 20000
1 6.2831853071795862 -0 0 1 
1 0 -0 0 1 
1 0 0 1 0 
2 0 0 1 0 -0 1 20000
1 0 90 1 0 
2 0 0 1 0 -0 1 10
1 6.2831853071795862 -0 0 1 
1 0 -0 0 1 
1 0 0 1 0 
2 0 0 1 0 -0 1 10
1 0 60 1 0 
2 0 0 1 0 -0 1 10
1 6.2831853071795862 -0 0 1 
1 0 -0 0 1 
1 0 0 1 0 
2 0 0 1 0 -0 1 10
Curves 12
2 0 1000 0 0 1 0 0 -0 1 1 0 -0 15000
1 -3.6739403974420597e-12 -1000 15000 0 1 0 
2 0 -1000 0 0 1 0 0 -0 1 1 0 -0 15000
2 0 1000 0 0 1 0 0 -0 1 1 0 -0 20000
1 -4.8985871965894132e-12 -1000 20000 0 1 0 
2 0 -1000 0 0 1 0 0 -0 1 1 0 -0 20000
2 0 45 0 0 1 0 0 -0 1 1 0 -0 10
1 -2.4492935982947065e-15 -45 10 0 1 0 
2 0 -45 0 0 1 0 0 -0 1 1 0 -0 10
2 0 30 0 0 1 0 0 -0 1 1 0 -0 10
1 -2.4492935982947065e-15 -30 10 0 1 0 
2 0 -30 0 0 1 0 0 -0 1 1 0 -0 10
Polygon3D 0
PolygonOnTriangulations 0
Surfaces 12
2 0 -1000 0 0 1 0 0 -0 1 1 0 -0 15000
1 0 1000 0 0 1 0 0 -0 1 1 0 -0 
1 0 -1000 0 0 1 0 0 -0 1 1 0 -0 
2 0 -1000 0 0 1 0 0 -0 1 1 0 -0 20000
1 0 1000 0 0 1 0 0 -0 1 1 0 -0 
1 0 -1000 0 0 1 0 0 -0 1 1 0 -0 
2 0 -45 0 0 1 0 0 -0 1 1 0 -0 10
1 0 45 0 0 1 0 0 -0 1 1 0 -0 
1 0 -45 0 0 1 0 0 -0 1 1 0 -0 
2 0 -30 0 0 1 0 0 -0 1 1 0 -0 10
1 0 30 0 0 1 0 0 -0 1 1 0 -0 
1 0 -30 0 0 1 0 0 -0 1 1 0 -0 
Triangulations 0

TShapes 186
Fa
0  2.22044604925031e-16 0 0

0101000
*
Fa
0  2.22044604925031e-16 0 0

0101000
*
Fa
0  2.22044604925031e-16 0 0

0101000
*
Fa
0  2.22044604925031e-16 0 0

0101000
*
Fa
0  2.22044604925031e-16 0 0

0101000
*
Fa
0  2.22044604925031e-16 0 0

0101000
*
Fa
0  2.22044604925031e-16 0 0

0101000
*
Fa
0  2.22044604925031e-16 0 0

0101000
*
Fa
0  2.22044604925031e-16 0 0

0101000
*
Fa
0  2.22044604925031e-16 0 0

0101000
*
Fa
0  2.22044604925031e-16 0 0

0101000
*
Fa
0  2.22044604925031e-16 0 0

0101000
*
Fa
0  2.22044604925031e-16 0 0

0101000
*
Fa
0  2.22044604925031e-16 0 0

0101000
*
Fa
0  2.22044604925031e-16 0 0

0101000
*
Fa
0  2.22044604925031e-16 0 0

0101000
*
Fa
0  2.22044604925031e-16 0 0

0101000
*
Fa
0  2.22044604925031e-16 0 0

0101000
*
Fa
0  2.22044604925031e-16 0 0

0101000
*
Fa
0  2.22044604925031e-16 0 0

0101000
*
Fa
0  2.22044604925031e-16 0 0

0101000
*
Fa
0  2.22044604925031e-16 0 0

0101000
*
Fa
0  2.22044604925031e-16 0 0

0101000
*
Fa
0  2.22044604925031e-16 0 0

0101000
*
Fa
0  2.22044604925031e-16 0 0

0101000
*
Fa
0  2.22044604925031e-16 0 0

0101000
*
Fa
0  2.22044604925031e-16 0 0

0101000
*
Fa
0  2.22044604925031e-16 0 0

0101000
*
Fa
0  2.22044604925031e-16 0 0

0101000
*
Fa
0  2.22044604925031e-16 0 0

0101000
*
Fa
0  2.22044604925031e-16 0 0

0101000
*
Fa
0  2.22044604925031e-16 0 0

0101000
*
Fa
0  2.22044604925031e-16 0 0

0101000
*
Fa
0  2.22044604925031e-16 0 0

0101000
*
Fa
0  2.22044604925031e-16 0 0

0101000
*
Fa
0  2.22044604925031e-16 0 0

0101000
*
Fa
0  2.22044604925031e-16 0 0

0101000
*
Fa
0  2.22044604925031e-16 0 0

0101000
*
Fa
0  2.22044604925031e-16 0 0

0101000
*
Fa
0  2.22044604925031e-16 0 0

0101000
*
Fa
0  2.22044604925031e-16 0 0

0101000
*
Fa
0  2.22044604925031e-16 0 0

0101000
*
Fa
0  2.22044604925031e-16 0 0

0101000
*
Fa
0  2.22044604925031e-16 0 0

0101000
*
Fa
0  2.22044604925031e-16 0 0

0101000
*
Fa
0  2.22044604925031e-16 0 0

0101000
*
Fa
0  2.22044604925031e-16 0 0

0101000
*
Fa
0  2.22044604925031e-16 0 0

0101000
*
Fa
0  2.22044604925031e-16 0 0

0101000
*
Fa
0  2.22044604925031e-16 0 0

0101000
*
Fa
0  2.22044604925031e-16 0 0

0101000
*
Fa
0  2.22044604925031e-16 0 0

0101000
*
Fa
0  2.22044604925031e-16 0 0

0101000
*
Fa
0  2.22044604925031e-16 0 0

0101000
*
Fa
0  2.22044604925031e-16 0 0

0101000
*
Fa
0  2.22044604925031e-16 0 0

0101000
*
Fa
0  2.22044604925031e-16 0 0

0101000
*
Fa
0  2.22044604925031e-16 0 0

0101000
*
Fa
0  2.22044604925031e-16 0 0

0101000
*
Fa
0  2.22044604925031e-16 0 0

0101000
*
Fa
0  2.22044604925031e-16 0 0

0101000
*
Fa
0  2.22044604925031e-16 0 0

0101000
*
Fa
0  2.22044604925031e-16 0 0

0101000
*
Fa
0  2.22044604925031e-16 0 0

0101000
*
Fa
0  2.22044604925031e-16 0 0

0101000
*
Co

0100000
+186 0 +185 0 +184 0 +183 0 +182 0 +181 0 +180 0 +179 0 +178 0 +177 0 
+176 0 +175 0 +174 0 +173 0 +172 0 +171 0 +170 0 +169 0 +168 0 +167 0 
+166 0 +165 0 +164 0 +163 0 +162 0 +161 0 +160 0 +159 0 +158 0 +157 0 
+156 0 +155 0 +154 0 +153 0 +152 0 +151 0 +150 0 +149 0 +148 0 +147 0 
+146 0 +145 0 +144 0 +143 0 +142 0 +141 0 +140 0 +139 0 +138 0 +137 0 
+136 0 +135 0 +134 0 +133 0 +132 0 +131 0 +130 0 +129 0 +128 0 +127 0 
+126 0 +125 0 +124 0 +123 0 +122 0 *
Ve
1e-07
-3.67394039744206e-12 1000 15000
0 0

0101101
*
Ed
 1e-07 1 1 0
1  1 0 0 6.28318530717959
2  1 1 0 0 6.28318530717959
2  2 2 0 0 6.28318530717959
0

0101100
+120 0 -120 0 *
Ve
1e-07
-3.67394039744206e-12 -1000 15000
0 0

0101101
*
Ed
 1e-07 1 1 0
1  2 0 0 2000
3  3 4CN 1 0 0 2000
0

0101000
-120 0 +118 0 *
Ed
 1e-07 1 1 0
1  3 0 0 6.28318530717959
2  5 1 0 0 6.28318530717959
2  6 3 0 0 6.28318530717959
0

0101100
+118 0 -118 0 *
Wi

0101000
-119 0 +117 0 +116 0 -117 0 *
Fa
0  1e-07 1 0

0111000
+115 0 *
Wi

0101000
+119 0 *
Fa
0  1e-07 2 0

0111000
+113 0 *
Wi

0101000
-116 0 *
Fa
0  1e-07 3 0

0111000
-111 0 *
Sh

0101100
+114 0 +112 0 -110 0 *
Co

0100000
+109 10 *
Co

0100000
+121 8 +108 9 *
Fa
0  2.22044604925031e-16 0 0

0101000
*
Fa
0  2.22044604925031e-16 0 0

0101000
*
Fa
0  2.22044604925031e-16 0 0

0101000
*
Fa
0  2.22044604925031e-16 0 0

0101000
*
Fa
0  2.22044604925031e-16 0 0

0101000
*
Fa
0  2.22044604925031e-16 0 0

0101000
*
Fa
0  2.22044604925031e-16 0 0

0101000
*
Fa
0  2.22044604925031e-16 0 0

0101000
*
Fa
0  2.22044604925031e-16 0 0

0101000
*
Fa
0  2.22044604925031e-16 0 0

0101000
*
Fa
0  2.22044604925031e-16 0 0

0101000
*
Fa
0  2.22044604925031e-16 0 0

0101000
*
Fa
0  2.22044604925031e-16 0 0

0101000
*
Fa
0  2.22044604925031e-16 0 0

0101000
*
Fa
0  2.22044604925031e-16 0 0

0101000
*
Fa
0  2.22044604925031e-16 0 0

0101000
*
Fa
0  2.22044604925031e-16 0 0

0101000
*
Fa
0  2.22044604925031e-16 0 0

0101000
*
Fa
0  2.22044604925031e-16 0 0

0101000
*
Fa
0  2.22044604925031e-16 0 0

0101000
*
Fa
0  2.22044604925031e-16 0 0

0101000
*
Fa
0  2.22044604925031e-16 0 0

0101000
*
Fa
0  2.22044604925031e-16 0 0

0101000
*
Fa
0  2.22044604925031e-16 0 0

0101000
*
Fa
0  2.22044604925031e-16 0 0

0101000
*
Fa
0  2.22044604925031e-16 0 0

0101000
*
Fa
0  2.22044604925031e-16 0 0

0101000
*
Fa
0  2.22044604925031e-16 0 0

0101000
*
Fa
0  2.22044604925031e-16 0 0

0101000
*
Fa
0  2.22044604925031e-16 0 0

0101000
*
Fa
0  2.22044604925031e-16 0 0

0101000
*
Fa
0  2.22044604925031e-16 0 0

0101000
*
Fa
0  2.22044604925031e-16 0 0

0101000
*
Fa
0  2.22044604925031e-16 0 0

0101000
*
Fa
0  2.22044604925031e-16 0 0

0101000
*
Fa
0  2.22044604925031e-16 0 0

0101000
*
Fa
0  2.22044604925031e-16 0 0

0101000
*
Fa
0  2.22044604925031e-16 0 0

0101000
*
Fa
0  2.22044604925031e-16 0 0

0101000
*
Fa
0  2.22044604925031e-16 0 0

0101000
*
Fa
0  2.22044604925031e-16 0 0

0101000
*
Fa
0  2.22044604925031e-16 0 0

0101000
*
Fa
0  2.22044604925031e-16 0 0

0101000
*
Fa
0  2.22044604925031e-16 0 0

0101000
*
Fa
0  2.22044604925031e-16 0 0

0101000
*
Fa
0  2.22044604925031e-16 0 0

0101000
*
Fa
0  2.22044604925031e-16 0 0

0101000
*
Fa
0  2.22044604925031e-16 0 0

0101000
*
Co

0100000
+106 0 +105 0 +104 0 +103 0 +102 0 +101 0 +100 0 +99 0 +98 0 +97 0 
+96 0 +95 0 +94 0 +93 0 +92 0 +91 0 +90 0 +89 0 +88 0 +87 0 
+86 0 +85 0 +84 0 +83 0 +82 0 +81 0 +80 0 +79 0 +78 0 +77 0 
+76 0 +75 0 +74 0 +73 0 +72 0 +71 0 +70 0 +69 0 +68 0 +67 0 
+66 0 +65 0 +64 0 +63 0 +62 0 +61 0 +60 0 +59 0 *
Ve
1e-07
-4.89858719658941e-12 1000 20000
0 0

0101101
*
Ed
 1e-07 1 1 0
1  4 0 0 6.28318530717959
2  7 4 0 0 6.28318530717959
2  8 5 0 0 6.28318530717959
0

0101100
+57 0 -57 0 *
Ve
1e-07
-4.89858719658941e-12 -1000 20000
0 0

0101101
*
Ed
 1e-07 1 1 0
1  5 0 0 2000
3  9 10CN 4 0 0 2000
0

0101000
-57 0 +55 0 *
Ed
 1e-07 1 1 0
1  6 0 0 6.28318530717959
2  11 4 0 0 6.28318530717959
2  12 6 0 0 6.28318530717959
0

0101100
+55 0 -55 0 *
Wi

0101000
-56 0 +54 0 +53 0 -54 0 *
Fa
0  1e-07 4 0

0111000
+52 0 *
Wi

0101000
+56 0 *
Fa
0  1e-07 5 0

0111000
+50 0 *
Wi

0101000
-53 0 *
Fa
0  1e-07 6 0

0111000
-48 0 *
Sh

0101100
+51 0 +49 0 -47 0 *
Co

0100000
+46 14 *
Co

0100000
+58 12 +45 13 *
Co

0100000
+107 7 +44 11 *
Co

0100000
+43 6 *
Co

0100000
+42 5 *
Co

0100000
+41 4 *
Co

0100000
+40 3 *
Ve
1e-07
-2.44929359829471e-15 45 10
0 0

0101101
*
Ed
 1e-07 1 1 0
1  7 0 0 6.28318530717959
2  13 7 0 0 6.28318530717959
2  14 8 0 0 6.28318530717959
0

0101100
+38 0 -38 0 *
Ve
1e-07
-2.44929359829471e-15 -45 10
0 0

0101101
*
Ed
 1e-07 1 1 0
1  8 0 0 90
3  15 16CN 7 0 0 90
0

0101000
-38 0 +36 0 *
Ed
 1e-07 1 1 0
1  9 0 0 6.28318530717959
2  17 7 0 0 6.28318530717959
2  18 9 0 0 6.28318530717959
0

0101100
+36 0 -36 0 *
Wi

0101000
-37 0 +35 0 +34 0 -35 0 *
Fa
0  1e-07 7 0

0111000
+33 0 *
Wi

0101000
+37 0 *
Fa
0  1e-07 8 0

0111000
+31 0 *
Wi

0101000
-34 0 *
Fa
0  1e-07 9 0

0111000
-29 0 *
Sh

0101100
+32 0 +30 0 -28 0 *
Co

0100000
+27 18 *
Co

0100000
+26 17 *
Ve
1e-07
-2.44929359829471e-15 30 10
0 0

0101101
*
Ed
 1e-07 1 1 0
1  10 0 0 6.28318530717959
2  19 10 0 0 6.28318530717959
2  20 11 0 0 6.28318530717959
0

0101100
+24 0 -24 0 *
Ve
1e-07
-2.44929359829471e-15 -30 10
0 0

0101101
*
Ed
 1e-07 1 1 0
1  11 0 0 60
3  21 22CN 10 0 0 60
0

0101000
-24 0 +22 0 *
Ed
 1e-07 1 1 0
1  12 0 0 6.28318530717959
2  23 10 0 0 6.28318530717959
2  24 12 0 0 6.28318530717959
0

0101100
+22 0 -22 0 *
Wi

0101000
-23 0 +21 0 +20 0 -21 0 *
Fa
0  1e-07 10 0

0111000
+19 0 *
Wi

0101000
+23 0 *
Fa
0  1e-07 11 0

0111000
+17 0 *
Wi

0101000
-20 0 *
Fa
0  1e-07 12 0

0111000
-15 0 *
Sh

0101100
+18 0 +16 0 -14 0 *
Co

0100000
+13 21 *
Ed
 2.22044604925031e-16 1 1 0
0

0101000
*
Ed
 2.22044604925031e-16 1 1 0
0

0101000
*
Ed
 2.22044604925031e-16 1 1 0
0

0101000
*
Wi

0101000
+11 0 +10 0 +9 0 *
Ed
 2.22044604925031e-16 1 1 0
0

0101000
*
Wi

0101000
+7 0 *
Co

0100000
+8 23 +6 24 *
Co

0100000
+12 20 +5 22 *
Co

0100000
+25 16 +4 19 *
Co

0100000
+39 2 +3 15 *
Co

1100000
+2 1 *

+1 0 
0

