DBRep_DrawableShape

CASCADE Topology V1, (c) Matra-Datavision
Locations 0
Curve2ds 36
1 0 0 -0.99862454062061345 -0.052431163159602029 
1 0 0 -0.20459629798514822 0.97884644089395989 
1 -0.0023047027756462057 -0.00012100468429210309 -0.052431163159602029 0.99862454062061357 
1 0 0 0.089348392473668825 -0.99600043411756167 
1 -0.00012100468429210309 0.0023047027756462057 -0.99862454062061345 -0.052431163159602029 
1 0.0050412908013051094 0.0011031192796490119 -0.21375918371379937 0.97688638611560663 
1 0 0 -0.052431163159602029 0.99862454062061357 
1 0 0 0.089348392473668825 -0.99600043411756167 
1 0 0 -0.21375918371379937 0.97688638611560663 
1 -0.0045181147017632206 -0.00094436624912164202 -0.20459629798514822 0.97884644089395989 
1 -0.00049332993931727742 0.0022545337852126757 0.97688638611560674 0.21375918371379946 
1 -0.0045972933203288768 -0.00041241022978599773 0.93080768637275835 -0.3655093035606522 
1 0 0 0.97688638611560674 0.21375918371379946 
1 -0.0045972933203288768 -0.00041241022978599773 0.93080768637275835 -0.3655093035606522 
1 0 0 -0.97884644089396 -0.20459629798514814 
1 0 0 -0.99600043411756167 -0.089348392473668811 
1 -0.00047218312456065448 0.0022590573508816103 -0.97884644089396 -0.20459629798514814 
1 0 0 -0.99600043411756167 -0.089348392473668811 
1 0 0 -0.99861129261351023 -0.052682883983077668 
1 0 0 -0.20491922479906657 0.97877888785350775 
1 -0.0023046730540516869 -0.00012158567004405541 -0.052682883983077668 0.99861129261351023 
1 0 0 0.084239450072068692 -0.99644554043437594 
1 -0.00012158567004361132 0.0023046730540512428 -0.99861129261351023 -0.052682883983077668 
1 0.0050413441937644521 0.0011028841852888105 -0.21371354870989104 0.97689637070562674 
1 0 0 -0.052682883983077668 0.99861129261351023 
1 0 0 0.084239450072068692 -0.99644554043437594 
1 0 0 -0.21371354870989104 0.97689637070562674 
1 -0.0045178045659928223 -0.00094585715011408222 -0.20491922479906657 0.97877888785350775 
1 -0.00049322480192248719 0.0022545576630461639 0.97689637070562674 0.21371354870989109 
1 -0.0045993495243954463 -0.00038882875069656819 0.92892101306478092 -0.37027793815821797 
1 0 0 0.97689637070562674 0.21371354870989109 
1 -0.0045993495243954463 -0.00038882875069745637 0.92892101306478092 -0.37027793815821797 
1 0 0 -0.97877888785350786 -0.20491922479906657 
1 0 0 -0.99644554043437594 -0.084239450072068678 
1 -0.00047292857505709662 0.0022589022829963001 -0.97877888785350786 -0.20491922479906657 
1 0 0 -0.99644554043437594 -0.084239450072068678 
Curves 18
1 5.0480000005094396 -0.52022182692003593 2.5002358927427424 0.052222034299947546 -0.97647425630692375 0.2092149275348569 
1 5.0481205225500121 -0.52247540956027338 2.5007187350969837 -0.99464139016546826 -0.069577476372846725 -0.076468815547848526 
1 5.0457044903557815 -0.52038240318909024 2.5000594121093562 0.052222034299947546 -0.97647425630692375 0.2092149275348569 
1 5.0480000005094396 -0.52022182692003593 2.5002358927427424 -0.99464139016546826 -0.069577476372846725 -0.076468815547848526 
1 5.047588153013975 -0.5192797492945096 2.5047356771218801 0.052222034299947546 -0.97647425630692375 0.2092149275348569 
1 5.0477086750545475 -0.52153333193474705 2.5052185194761214 -0.36501056561695022 -0.21366900277491002 -0.90615277091733804 
1 5.047588153013975 -0.5192797492945096 2.5047356771218801 -0.36501056561695022 -0.21366900277491002 -0.90615277091733804 
1 5.0480000005094396 -0.52022182692003593 2.5002358927427424 -0.089226476470160035 0.20410046925822162 0.97487518911155679 
1 5.0481205225500121 -0.52247540956027338 2.5007187350969837 -0.089226476470160035 0.20410046925822162 0.97487518911155679 
1 5.0480000005094396 -0.51828781075041652 2.5092625385061882 0.052496141777296702 -0.97645984211637837 0.20921360336401523 
1 5.048121155201251 -0.52054136095872583 2.5097453779831502 -0.99507156848678391 -0.068797072711412555 -0.071411038191531884 
1 5.0457034967069019 -0.51844658600245741 2.5090977305406672 0.052496141777296702 -0.97645984211637837 0.20921360336401523 
1 5.0480000005094396 -0.51828781075041652 2.5092625385061882 -0.99507156848678391 -0.068797072711412555 -0.071411038191531884 
1 5.0476117079042462 -0.51734419464372827 2.513764096163364 0.052496141777296702 -0.97645984211637837 0.20921360336401523 
1 5.0477328625960576 -0.51959774485203758 2.5142469356403261 -0.36976737187115344 -0.21361805027554417 -0.90423416176119753 
1 5.0476117079042462 -0.51734419464372827 2.513764096163364 -0.36976737187115344 -0.21361805027554417 -0.90423416176119753 
1 5.0480000005094396 -0.51828781075041652 2.5092625385061882 -0.084123294560720666 0.20443370446283587 0.97525900754202322 
1 5.048121155201251 -0.52054136095872583 2.5097453779831502 -0.084123294560720666 0.20443370446283587 0.97525900754202322 
Polygon3D 0
PolygonOnTriangulations 36
2 1 2 
p 0.00452729600489905 1 0 0.00230787716694209 
2 1 4 
p 0.00452729600489905 1 0 0.00230787716694209 
2 2 3 
p 0.00452729600489905 1 -0 0.00230787716694182 
2 1 2 
p 0.00452729600489905 1 -0 0.00230787716694182 
2 4 3 
p 0.00452729600489905 1 0 0.00230787716694209 
2 4 3 
p 0.00452729600489905 1 0 0.00230787716694209 
2 1 4 
p 0.00452729600489905 1 -0 0.00230787716694182 
2 1 2 
p 0.00452729600489905 1 -0 0.00230787716694182 
2 1 2 
p 0.00452729600489905 1 0 0.00230787716694209 
2 2 3 
p 0.00452729600489905 1 0 0.00230787716694209 
2 2 3 
p 0.00452729600489905 1 -0 0.00516057022900192 
2 3 2 
p 0.00452729600489905 1 -0 0.00516057022900192 
2 1 4 
p 0.00452729600489905 1 -0 0.00516057022900192 
2 3 2 
p 0.00452729600489905 1 -0 0.00516057022900192 
2 1 2 
p 0.00452729600489905 1 0 0.00461575433388403 
2 1 3 
p 0.00452729600489905 1 0 0.00461575433388403 
2 4 3 
p 0.00452729600489905 1 0 0.00461575433388403 
2 1 3 
p 0.00452729600489905 1 0 0.00461575433388403 
2 1 2 
p 0.00452729600489905 1 0 0.00230787802130698 
2 1 4 
p 0.00452729600489905 1 0 0.00230787802130698 
2 2 3 
p 0.00452729600489905 1 -0 0.00230787802130663 
2 1 2 
p 0.00452729600489905 1 -0 0.00230787802130663 
2 4 3 
p 0.00452729600489905 1 0 0.00230787802130698 
2 4 3 
p 0.00452729600489905 1 0 0.00230787802130698 
2 1 4 
p 0.00452729600489905 1 -0 0.00230787802130663 
2 1 2 
p 0.00452729600489905 1 -0 0.00230787802130663 
2 1 2 
p 0.00452729600489905 1 0 0.00230787802130698 
2 2 3 
p 0.00452729600489905 1 0 0.00230787802130698 
2 2 3 
p 0.00452729600489905 1 -0 0.00516057213941999 
2 3 2 
p 0.00452729600489905 1 -0 0.00516057213941999 
2 1 4 
p 0.00452729600489905 1 -0 0.00516057213941999 
2 3 2 
p 0.00452729600489905 1 -0 0.00516057213941999 
2 1 2 
p 0.00452729600489905 1 0 0.00461575604261404 
2 1 3 
p 0.00452729600489905 1 0 0.00461575604261404 
2 4 3 
p 0.00452729600489905 1 0 0.00461575604261404 
2 1 3 
p 0.00452729600489905 1 0 0.00461575604261404 
Surfaces 10
1 5.0480000005094396 -0.52022182692003593 2.5002358927427424 -0.089226476470160035 0.20410046925822162 0.97487518911155679 3.469446951953615e-018 0.97877918364829486 -0.20491781195586062 -0.99601136333714591 -0.018284094326796275 -0.087333017799277046 
1 5.0480000005094396 -0.52022182692003593 2.5002358927427424 -0.99464139016546826 -0.069577476372846725 -0.076468815547848526 0.076654584035302134 0 -0.99705770883453637 0.069372759178799634 -0.99757655083787222 0.0053334325095866272 
1 5.0481205225500121 -0.52247540956027338 2.5007187350969837 0.052222034299947546 -0.97647425630692375 0.2092149275348569 -1.7347234759768071e-018 -0.20950079165107532 -0.97780847730911646 0.99863549863479983 0.051063147840816163 -0.010940557527468623 
1 5.047588153013975 -0.5192797492945096 2.5047356771218801 -0.92953759801396363 0.029044517951169607 0.36758165059672787 -0.36773679176338675 -1.7347234759768075e-018 -0.92992991778067424 -0.027009366190310472 -0.99957811899670168 0.01068073784967721 
1 5.0480000005094396 -0.52022182692003593 2.5002358927427424 0.052222034299947546 -0.97647425630692375 0.2092149275348569 -1.7347234759768071e-018 -0.20950079165107532 -0.97780847730911646 0.99863549863479983 0.051063147840816163 -0.010940557527468623 
1 5.0480000005094396 -0.51828781075041652 2.5092625385061882 -0.084123294560720666 0.20443370446283587 0.97525900754202322 0 0.97872825332105129 -0.20516092744751382 -0.99645535339635272 -0.017258813132017846 -0.082333845149026433 
1 5.0480000005094396 -0.51828781075041652 2.5092625385061882 -0.99507156848678391 -0.068797072711412555 -0.071411038191531884 0.071580636014769702 0 -0.99743481618987073 0.068620595574308954 -0.99763067454160648 0.0049245382206372671 
1 5.048121155201251 -0.52054136095872583 2.5097453779831502 0.052496141777296702 -0.97645984211637837 0.20921360336401523 1.7347234759768071e-018 -0.2095024806982495 -0.97780811542003454 0.99862112690374116 0.051331153458081431 -0.010998071929430669 
1 5.0476117079042462 -0.51734419464372827 2.513764096163364 -0.92764014887131641 0.029891559519914932 0.37227711301054922 -0.37244354033909122 0 -0.9280548525058655 -0.027741006861424954 -0.99955314749615365 0.011132918253853786 
1 5.0480000005094396 -0.51828781075041652 2.5092625385061882 0.052496141777296702 -0.97645984211637837 0.20921360336401523 1.7347234759768071e-018 -0.2095024806982495 -0.97780811542003454 0.99862112690374116 0.051331153458081431 -0.010998071929430669 
Triangulations 10
4 2 1 2.59849484657129e-016
5.04800000050944 -0.520221826920036 2.50023589274274 5.04812052255001 -0.522475409560273 2.50071873509698 5.04582501239635 -0.522635985829328 2.5005422544636 5.04570449035578 -0.52038240318909 2.50005941210936 0 0 -0.00230470277564635 -0.000121004684292261 -0.00242570745993845 0.00218369809135398 -0.000121004684292103 0.00230470277564621 4 2 1 4 3 2 
4 2 1 3.17115582924854e-016
5.04800000050944 -0.520221826920036 2.50023589274274 5.04758815301398 -0.51927974929451 2.50473567712188 5.04770867505455 -0.521533331934747 2.50521851947612 5.04812052255001 -0.522475409560273 2.50071873509698 0 0 -0.00451811470176326 -0.000944366249121577 -0.00499029782632403 0.00131469110176006 -0.000472183124560654 0.00225905735088161 4 2 1 4 3 2 
3 1 1 5.68121938382404e-017
5.04812052255001 -0.522475409560273 2.50071873509698 5.04582501239635 -0.522635985829328 2.5005422544636 5.04770867505455 -0.521533331934747 2.50521851947612 0 0 0.000206205114892936 -0.00229864666016406 -0.00459729332032888 -0.000412410229785998 1 3 2 
4 2 1 6.58327559133198e-016
5.04758815301398 -0.51927974929451 2.50473567712188 5.04770867505455 -0.521533331934747 2.50521851947612 5.04582501239635 -0.522635985829328 2.5005422544636 5.04570449035578 -0.52038240318909 2.50005941210936 0 0 -0.000493329939317258 0.00225453378521279 0.0045479608619882 0.00335765306486186 0.00504129080130511 0.00110311927964901 4 2 1 3 2 4 
3 1 1 5.68121938382404e-017
5.04800000050944 -0.520221826920036 2.50023589274274 5.04570449035578 -0.52038240318909 2.50005941210936 5.04758815301398 -0.51927974929451 2.50473567712188 0 0 0.000206205114892936 -0.00229864666016406 -0.00459729332032888 -0.000412410229785998 1 3 2 
4 2 1 3.83262004108387e-016
5.04800000050944 -0.518287810750417 2.50926253850619 5.04812115520125 -0.520541360958726 2.50974537798315 5.04582465139871 -0.520700136210767 2.50958057001763 5.0457034967069 -0.518446586002457 2.50909773054067 0 0 -0.00230467305405167 -0.00012158567004361 -0.00242625872409528 0.00218308738400727 -0.000121585670043611 0.00230467305405124 4 2 1 4 3 2 
4 2 1 4.72114987127172e-016
5.04800000050944 -0.518287810750417 2.50926253850619 5.04761170790425 -0.517344194643728 2.51376409616336 5.04773286259606 -0.519597744852038 2.51424693564033 5.04812115520125 -0.520541360958726 2.50974537798315 0 0 -0.00451780456599288 -0.000945857150114076 -0.00499073314104985 0.00131304513288232 -0.000472928575057097 0.0022589022829963 4 2 1 4 3 2 
3 1 1 2.58582218137793e-017
5.04812115520125 -0.520541360958726 2.50974537798315 5.04582465139871 -0.520700136210767 2.50958057001763 5.04773286259606 -0.519597744852038 2.51424693564033 0 0 0.000194414375348285 -0.00229967476219751 -0.00459934952439545 -0.000388828750696568 1 3 2 
4 2 1 7.82816140305133e-016
5.04761170790425 -0.517344194643728 2.51376409616336 5.04773286259606 -0.519597744852038 2.51424693564033 5.04582465139871 -0.520700136210767 2.50958057001763 5.0457034967069 -0.518446586002457 2.50909773054067 0 0 -0.000493224801923076 0.00225455766304607 0.00454811939184147 0.003357441848335 0.00504134419376445 0.00110288418528881 3 2 1 3 1 4 
3 1 1 2.58582218137793e-017
5.04800000050944 -0.518287810750417 2.50926253850619 5.0457034967069 -0.518446586002457 2.50909773054067 5.04761170790425 -0.517344194643728 2.51376409616336 0 0 0.000194414375348285 -0.00229967476219751 -0.00459934952439545 -0.000388828750697456 1 3 2 

TShapes 55
Ve
1e-007
5.04812052255001 -0.522475409560273 2.50071873509698
0 0

0101101
*
Ve
1e-007
5.04800000050944 -0.520221826920036 2.50023589274274
0 0

0101101
*
Ed
 1e-007 1 1 0
1  1 0 0 0.00230787716694209
2  1 1 0 0 0.00230787716694209
2  2 2 0 0 0.00230787716694209
6  1 1 0
6  2 2 0
0

0101000
-55 0 +54 0 *
Ve
1e-007
5.04582501239635 -0.522635985829328 2.5005422544636
0 0

0101101
*
Ed
 1e-007 1 1 0
1  2 0 -0 0.00230787716694182
2  3 1 0 -0 0.00230787716694182
2  4 3 0 -0 0.00230787716694182
6  3 1 0
6  4 3 0
0

0101000
-52 0 +55 0 *
Ve
1e-007
5.04570449035578 -0.52038240318909 2.50005941210936
0 0

0101101
*
Ed
 1e-007 1 1 0
1  3 0 0 0.00230787716694209
2  5 1 0 0 0.00230787716694209
2  6 4 0 0 0.00230787716694209
6  5 1 0
6  6 4 0
0

0101000
-52 0 +50 0 *
Ed
 1e-007 1 1 0
1  4 0 -0 0.00230787716694182
2  7 1 0 -0 0.00230787716694182
2  8 5 0 -0 0.00230787716694182
6  7 1 0
6  8 5 0
0

0101000
-50 0 +54 0 *
Wi

0101000
-53 0 -51 0 +49 0 +48 0 *
Fa
0  1e-007 1 0
2  1
0101000
+47 0 *
Ve
1e-007
5.04770867505455 -0.521533331934747 2.50521851947612
0 0

0101101
*
Ve
1e-007
5.04758815301398 -0.51927974929451 2.50473567712188
0 0

0101101
*
Ed
 1e-007 1 1 0
1  5 0 0 0.00230787716694209
2  9 4 0 0 0.00230787716694209
2  10 2 0 0 0.00230787716694209
6  9 4 0
6  10 2 0
0

0101000
-45 0 +44 0 *
Ed
 1e-007 1 1 0
1  6 0 -0 0.00516057022900192
2  11 4 0 -0 0.00516057022900192
2  12 3 0 -0 0.00516057022900192
6  11 4 0
6  12 3 0
0

0101000
-52 0 +45 0 *
Ed
 1e-007 1 1 0
1  7 0 -0 0.00516057022900192
2  13 4 0 -0 0.00516057022900192
2  14 5 0 -0 0.00516057022900192
6  13 4 0
6  14 5 0
0

0101000
-50 0 +44 0 *
Wi

0101000
-43 0 -42 0 +49 0 +41 0 *
Fa
0  1e-007 4 0
2  4
0101000
+40 0 *
Ed
 1e-007 1 1 0
1  8 0 0 0.00461575433388403
2  15 2 0 0 0.00461575433388403
2  16 5 0 0 0.00461575433388403
6  15 2 0
6  16 5 0
0

0101000
-44 0 +54 0 *
Ed
 1e-007 1 1 0
1  9 0 0 0.00461575433388403
2  17 2 0 0 0.00461575433388403
2  18 3 0 0 0.00461575433388403
6  17 2 0
6  18 3 0
0

0101000
-45 0 +55 0 *
Wi

0101000
-38 0 -43 0 +37 0 +53 0 *
Fa
0  1e-007 2 0
2  2
0101000
+36 0 *
Wi

0101000
-48 0 +41 0 +38 0 *
Fa
0  1e-007 5 0
2  5
0101000
+34 0 *
Wi

0101000
-51 0 +42 0 +37 0 *
Fa
0  1e-007 3 0
2  3
0101000
+32 0 *
Sh

0101100
-46 0 +39 0 -35 0 -33 0 +31 0 *
So

0100100
+30 0 *
Ve
1e-007
5.04812115520125 -0.520541360958726 2.50974537798315
0 0

0101101
*
Ve
1e-007
5.04800000050944 -0.518287810750417 2.50926253850619
0 0

0101101
*
Ed
 1e-007 1 1 0
1  10 0 0 0.00230787802130698
2  19 6 0 0 0.00230787802130698
2  20 7 0 0 0.00230787802130698
6  19 6 0
6  20 7 0
0

0101000
-28 0 +27 0 *
Ve
1e-007
5.04582465139871 -0.520700136210767 2.50958057001763
0 0

0101101
*
Ed
 1e-007 1 1 0
1  11 0 -0 0.00230787802130663
2  21 6 0 -0 0.00230787802130663
2  22 8 0 -0 0.00230787802130663
6  21 6 0
6  22 8 0
0

0101000
-25 0 +28 0 *
Ve
1e-007
5.0457034967069 -0.518446586002457 2.50909773054067
0 0

0101101
*
Ed
 1e-007 1 1 0
1  12 0 0 0.00230787802130698
2  23 6 0 0 0.00230787802130698
2  24 9 0 0 0.00230787802130698
6  23 6 0
6  24 9 0
0

0101000
-25 0 +23 0 *
Ed
 1e-007 1 1 0
1  13 0 -0 0.00230787802130663
2  25 6 0 -0 0.00230787802130663
2  26 10 0 -0 0.00230787802130663
6  25 6 0
6  26 10 0
0

0101000
-23 0 +27 0 *
Wi

0101000
-26 0 -24 0 +22 0 +21 0 *
Fa
0  1e-007 6 0
2  6
0101000
+20 0 *
Ve
1e-007
5.04773286259606 -0.519597744852038 2.51424693564033
0 0

0101101
*
Ve
1e-007
5.04761170790425 -0.517344194643728 2.51376409616336
0 0

0101101
*
Ed
 1e-007 1 1 0
1  14 0 0 0.00230787802130698
2  27 9 0 0 0.00230787802130698
2  28 7 0 0 0.00230787802130698
6  27 9 0
6  28 7 0
0

0101000
-18 0 +17 0 *
Ed
 1e-007 1 1 0
1  15 0 -0 0.00516057213941999
2  29 9 0 -0 0.00516057213941999
2  30 8 0 -0 0.00516057213941999
6  29 9 0
6  30 8 0
0

0101000
-25 0 +18 0 *
Ed
 1e-007 1 1 0
1  16 0 -0 0.00516057213941999
2  31 9 0 -0 0.00516057213941999
2  32 10 0 -0 0.00516057213941999
6  31 9 0
6  32 10 0
0

0101000
-23 0 +17 0 *
Wi

0101000
-16 0 -15 0 +22 0 +14 0 *
Fa
0  1e-007 9 0
2  9
0101000
+13 0 *
Ed
 1e-007 1 1 0
1  17 0 0 0.00461575604261404
2  33 7 0 0 0.00461575604261404
2  34 10 0 0 0.00461575604261404
6  33 7 0
6  34 10 0
0

0101000
-17 0 +27 0 *
Ed
 1e-007 1 1 0
1  18 0 0 0.00461575604261404
2  35 7 0 0 0.00461575604261404
2  36 8 0 0 0.00461575604261404
6  35 7 0
6  36 8 0
0

0101000
-18 0 +28 0 *
Wi

0101000
-11 0 -16 0 +10 0 +26 0 *
Fa
0  1e-007 7 0
2  7
0101000
+9 0 *
Wi

0101000
-21 0 +14 0 +11 0 *
Fa
0  1e-007 10 0
2  10
0101000
+7 0 *
Wi

0101000
-24 0 +15 0 +10 0 *
Fa
0  1e-007 8 0
2  8
0101000
+5 0 *
Sh

0101100
-19 0 +12 0 -8 0 -6 0 +4 0 *
So

0100100
+3 0 *
Co

1100000
+29 0 +2 0 *

+1 0 
0

