DBRep_DrawableShape

CASCADE Topology V1, (c) Matra-Datavision
Locations 11
1
              1               0               0               5 
              0               1               0               5 
              0               0               1               0 
1
              1               0               0               0 
              0               1               0               0 
              0               0               1               1 
2  1 1 2 1 0
1
              1               0               0               0 
              0               1               0               0 
              0               0               1               1 
1
1.11022302462516e-016              -1               0              10 
              1 1.11022302462516e-016               0 -8.88178419700125e-016 
              0               0               1               0 
1
1.11022302462516e-016              -1               0              10 
              1 1.11022302462516e-016               0 -8.88178419700125e-016 
              0               0               1               0 
2  1 1 2 1 4 -1 5 -1 6 -1 1 -1 0
2  1 1 6 1 5 1 4 1 2 -1 1 -1 0
2  2 -1 1 -1 0
2  1 1 6 1 5 1 4 1 0
2  4 -1 5 -1 6 -1 1 -1 0
Curve2ds 44
1 0 -1.4142135623730951 1 0 
2 5 5 -1 3.2566542055671257e-015 -3.2566542055671257e-015 -1 4
1 0 -1.4142135623730951 1 0 
2 5 5 1 0 -0 1 4
1 1 0 0 -1 
1 0 0 0 1 
1 1 0 0 1 
1 0 10 1 0 
1 1 0 0 1 
1 0 0 1 0 
1 1 0 0 -1 
1 10 0 0 1 
8 -1.4142135623730951 0
1 2.2204460492503131e-015 0 0 1 
8 -1.4142135623730951 0
1 3.1415926535897922 0 0 1 
1 0 0 1 0 
1 3.14159265358979 1 1 0 
8 -1.4142135623730951 0
1 3.1415926535897962 0 0 1 
8 -1.4142135623730951 0
1 0 0 0 1 
1 0 0 1 0 
1 0 1 1 0 
1 0 0 1 0 
1 0 0 1 0 
1 0 -10 1 0 
1 0 0 1 0 
1 0 0 0 -1 
1 0 0 0 1 
1 0 0 0 1 
1 0 10 1 0 
1 0 -10 1 0 
1 0 10 1 0 
1 0 0 0 1 
1 0 0 1 0 
1 0 0 1 0 
1 0 10 1 0 
1 0 0 0 -1 
1 10 0 0 1 
1 6.2831853071795862 -0 0 1 
1 0 -0 0 1 
1 3.1415926535897922 0 0 1 
1 3.1415926535897927 0 0 1 
1 0 5 1 0 
2 0 0 1 0 -0 1 3
8 3.1415926535897931 6.2831853071795862
1 -3.1415926535897931 5 1 0 
8 0 3.1415926535897931
1 3.1415926535897931 5 1 0 
Curves 20
2 5 5 1 0 0 1 -1 3.2566542055671257e-015 0 -3.2566542055671257e-015 -1 0 4
2 5 5 1 0 0 1 1 0 -0 -0 1 0 4
1 0 0 1 -0 1 0 
1 0 10 1 1 0 -0 
1 0 0 1 1 0 -0 
1 10 0 1 -0 1 0 
1 2 5.0000000000000036 2 0.70710678118654757 -7.3270981405242823e-016 0.70710678118654746 
2 5 5 2 0 0 1 -1 3.2566542055671257e-015 0 -3.2566542055671257e-015 -1 0 3
1 8 4.9999999999999991 2 -0.70710678118654757 1.9126843620246732e-016 0.70710678118654746 
2 5 5 2 0 0 1 1 0 -0 -0 1 0 3
1 0 0 0 0 0 1 
1 0 10 0 0 0 1 
1 0 0 0 -0 1 0 
1 0 10 0 1 0 -0 
1 10 10 0 0 0 1 
1 0 0 0 1 0 -0 
1 10 0 0 0 0 1 
1 10 0 0 -0 1 0 
1 3 -7.3478807948841188e-016 0 0 0 1 
2 0 0 5 0 0 1 1 0 -0 -0 1 0 3
Polygon3D 0
PolygonOnTriangulations 0
Surfaces 10
1 0 0 1 0 0 1 1 0 -0 -0 1 0 
3 5 5 2 0 0 1 -1 3.2566542055671257e-015 0 -3.2566542055671257e-015 -1 0 3
-0.78539816339744839
3 5 5 2 0 0 1 1 0 -0 -0 1 0 3
-0.78539816339744839
1 0 0 0 1 0 -0 0 0 1 0 -1 0 
1 0 10 0 -0 1 0 0 0 1 1 0 -0 
1 0 0 0 -0 1 0 0 0 1 1 0 -0 
1 10 0 0 1 0 -0 0 0 1 0 -1 0 
2 0 0 0 0 0 1 1 0 -0 -0 1 0 3
1 0 0 0 0 0 1 1 0 -0 -0 1 0 
1 0 0 5 0 0 1 1 0 -0 -0 1 0 
Triangulations 0

TShapes 60
Ve
1e-007
1 5 1
0 0

0101101
*
Ve
1e-007
9 5 1
0 0

0101101
*
Ed
 1e-007 1 1 0
1  1 0 2.22044604925031e-015 3.1415926535898
2  1 2 0 2.22044604925031e-015 3.1415926535898
2  2 1 0 2.22044604925031e-015 3.1415926535898
0

0101000
+60 0 -59 0 *
Ed
 1e-007 1 1 0
1  2 0 0 3.14159265358979
2  3 3 0 0 3.14159265358979
2  4 1 0 0 3.14159265358979
0

0101000
+59 0 -60 0 *
Wi

0101100
-58 0 -57 0 *
Ve
1e-007
0 10 1
0 0

0101101
*
Ve
1e-007
0 0 1
0 0

0101101
*
Ed
 1e-007 1 1 0
1  3 0 0 10
2  5 4 0 0 10
2  6 1 0 0 10
0

0101000
-55 0 +54 0 *
Ve
1e-007
10 10 1
0 0

0101101
*
Ed
 1e-007 1 1 0
1  4 0 0 10
2  7 5 0 0 10
2  8 1 0 0 10
0

0101000
-52 0 +55 0 *
Ve
1e-007
10 0 1
0 0

0101101
*
Ed
 1e-007 1 1 0
1  5 0 0 10
2  9 6 0 0 10
2  10 1 0 0 10
0

0101000
-50 0 +54 0 *
Ed
 1e-007 1 1 0
1  6 0 0 10
2  11 7 0 0 10
2  12 1 0 0 10
0

0101000
-52 0 +50 0 *
Wi

0101100
-53 0 -51 0 +49 0 +48 0 *
Fa
0  1e-007 1 0

0111000
+56 0 +47 0 *
Ve
1.00000000888178e-007
2 5 2
0 0

0101101
*
Ed
 1e-007 1 1 0
1  7 0 -1.4142135623731 0
2  13 2 0 -1.4142135623731 0
2  14 3 0 -1.4142135623731 0
4 G1 2 0 3 0
0

0101000
+60 0 -45 0 *
Ve
1.00000000888178e-007
8 5 2
0 0

0101101
*
Ed
 1e-007 1 1 0
1  8 0 2.22044604925031e-015 3.1415926535898
2  15 2 0 2.22044604925031e-015 3.1415926535898
2  16 8 3 2.22044604925031e-015 3.1415926535898
0

0101000
+45 0 -43 0 *
Ed
 1e-007 1 1 0
1  9 0 -1.4142135623731 0
2  17 2 0 -1.4142135623731 0
2  18 3 0 -1.4142135623731 0
4 G1 2 0 3 0
0

0101000
+59 0 -43 0 *
Wi

0101100
-44 0 +58 0 -42 0 +41 0 *
Fa
0  0 2 0

0111000
+40 0 *
Ed
 1e-007 1 1 0
1  10 0 0 3.14159265358979
2  19 3 0 0 3.14159265358979
2  20 8 3 0 3.14159265358979
0

0101000
+43 0 -45 0 *
Wi

0101100
-41 0 +57 0 -38 0 +44 0 *
Fa
0  0 3 0

0111000
+37 0 *
Ve
1e-007
0 0 0
0 0

0101101
*
Ed
 1e-007 1 1 0
1  11 0 0 1
2  21 4 0 0 1
2  22 6 0 0 1
0

0101000
-54 0 +35 0 *
Ve
1e-007
0 10 0
0 0

0101101
*
Ed
 1e-007 1 1 0
1  12 0 0 1
2  23 4 0 0 1
2  24 5 0 0 1
0

0101000
-55 0 +33 0 *
Ed
 1e-007 1 1 0
1  13 0 0 10
2  25 4 0 0 10
2  26 9 0 0 10
0

0101000
-33 0 +35 0 *
Wi

0101100
-34 0 -53 0 +32 0 +31 0 *
Fa
0  1e-007 4 0

0111000
+30 0 *
Ve
1e-007
10 10 0
0 0

0101101
*
Ed
 1e-007 1 1 0
1  14 0 0 10
2  27 5 0 0 10
2  28 9 0 0 10
0

0101000
-28 0 +33 0 *
Ed
 1e-007 1 1 0
1  15 0 0 1
2  29 7 0 0 1
2  30 5 0 0 1
0

0101000
-52 0 +28 0 *
Wi

0101100
-27 0 -26 0 +51 0 +32 0 *
Fa
0  1e-007 5 0

0111000
+25 0 *
Ve
1e-007
10 0 0
0 0

0101101
*
Ed
 1e-007 1 1 0
1  16 0 0 10
2  31 6 0 0 10
2  32 9 0 0 10
0

0101000
-23 0 +35 0 *
Ed
 1e-007 1 1 0
1  17 0 0 1
2  33 7 0 0 1
2  34 6 0 0 1
0

0101000
-50 0 +23 0 *
Wi

0101100
-22 0 -21 0 +49 0 +34 0 *
Fa
0  1e-007 6 0

0111000
+20 0 *
Ed
 1e-007 1 1 0
1  18 0 0 10
2  35 7 0 0 10
2  36 9 0 0 10
0

0101000
-28 0 +23 0 *
Wi

0101100
-21 0 -48 0 +26 0 +18 0 *
Fa
0  1e-007 7 0

0111000
+17 0 *
Ve
1.00000002808667e-007
3 -7.34788079488412e-016 5
0 0

0101101
*
Ed
 1.00000000888178e-007 1 1 0
1  19 0 1 5
3  37 38CN 8 0 1 5
2  39 8 7 1 5
2  40 8 8 1 5
0

0101000
+43 9 -15 0 *
Ed
 1.00000001601186e-007 1 1 0
1  20 0 3.14159265358979 6.28318530717959
2  41 8 0 3.14159265358979 6.28318530717959
2  42 10 0 3.14159265358979 6.28318530717959
2  43 8 8 3.14159265358979 6.28318530717959
0

0101000
+15 8 -15 0 *
Ed
 1.00000000888178e-007 1 1 0
1  19 0 1 5
3  37 38CN 8 0 1 5
2  39 8 7 1 5
2  40 8 8 1 5
0

0101000
+45 11 -15 0 *
Wi

0101100
+14 3 +42 0 -13 3 -12 10 *
Fa
0  1e-007 8 3

0111000
+11 0 *
Ed
 1.00000001986027e-007 1 1 0
1  20 0 0 3.14159265358979
2  41 8 0 0 3.14159265358979
2  42 10 0 0 3.14159265358979
2  44 8 8 0 3.14159265358979
0

0101000
+15 0 -15 8 *
Wi

0101100
+12 10 +38 0 -9 3 -14 3 *
Fa
0  1e-007 8 3

0111000
+8 0 *
Wi

0101100
-31 0 -27 0 +18 0 +22 0 *
Fa
0  1e-007 9 0

0111000
+6 0 *
Wi

0101100
+9 3 +13 3 *
Fa
0  1e-007 10 3

0111000
+4 0 *
Sh

0101100
+46 0 +39 0 +36 0 -29 0 +24 0 -19 0 +16 0 +10 0 +7 0 -5 0 
+3 0 *
So

0100000
+2 0 *

+1 0 
0

