DBRep_DrawableShape

CASCADE Topology V1, (c) Matra-Datavision
Locations 23
1
              1               0               0               0 
              0               1               0              10 
              0               0               1               0 
1
              1               0               0               0 
              0               1               0               0 
              0               0               1              10 
1
              1               0               0              10 
              0               1               0               0 
              0               0               1               0 
2  3 1 2 1 0
2  1 1 2 1 0
1
              1               0               0              10 
              0               1               0               0 
              0               0               1               0 
1
              1               0               0               0 
              0               1               0              10 
              0               0               1               0 
2  6 1 7 1 0
2  1 1 7 -1 6 -1 0
2  7 -1 6 -1 0
2  6 1 7 1 2 1 7 -1 6 -1 0
2  1 1 2 1 7 -1 6 -1 0
2  3 1 7 -1 6 -1 0
2  3 1 2 1 7 -1 6 -1 0
2  6 1 7 1 2 1 0
2  3 -1 0
2  3 1 2 1 3 -1 0
2  1 -1 0
2  1 1 2 1 1 -1 0
2  2 -1 0
2  2 -1 7 -1 6 -1 0
2  2 -1 3 -1 0
2  2 -1 1 -1 0
Curve2ds 180
1 0 0 1 0 
1 0 0 1 0 
1 0 0 0 -1 
1 0 0 0 1 
1 0 -10 1 0 
1 0 0 1 0 
1 0 0 1 0 
1 10 0 0 -1 
1 0 0 0 1 
1 0 0 0 1 
1 0 0 0 1 
1 0 0 1 0 
1 10 0 0 1 
1 0 0 1 0 
1 0 0 1 0 
1 0 0 1 0 
1 0 10 1 0 
1 0 0 1 0 
1 10 0 0 -1 
1 10 0 0 1 
1 10 0 0 -1 
1 0 0 0 1 
1 0 0 0 -1 
1 10 0 0 1 
1 0 0 0 -1 
1 0 0 0 1 
8 -8.5 -1.5
1 2.5 5 -1 0 
8 -8.5 -1.5
1 5 -2.5 0 -1 
1 2.5 5 -1 0 
8 1.5 8.5
1 5 2.5 0 1 
8 1.5 8.5
1 5 2.5 0 -1 
1 5 2.5 0 1 
1 10 0 0 1 
1 0 10 1 0 
1 10 0 0 1 
1 0 0 1 0 
1 0 0 0 1 
1 0 10 1 0 
1 0 0 0 1 
1 0 0 1 0 
1 0 0 0 1 
1 0 10 1 0 
1 0 0 0 1 
8 -8.5 -1.5
1 2.5 5 -1 0 
8 -8.5 -1.5
1 -2.5 -5 -1 -0 
1 2.5 5 -1 0 
8 1.5 8.5
1 5 2.5 0 1 
8 1.5 8.5
1 -2.5 5 1 0 
1 5 2.5 0 1 
1 0 -10 1 0 
1 0 10 1 0 
1 0 0 1 0 
1 0 0 1 0 
1 0 -10 1 0 
1 0 0 1 0 
1 0 0 1 0 
1 0 10 1 0 
1 0 0 0 -1 
1 10 0 0 1 
1 0 0 0 -1 
8 -8.5 -1.5
1 5 -2.5 0 1 
8 -8.5 -1.5
1 5 -2.5 0 -1 
1 5 -2.5 0 1 
8 1.5 8.5
1 2.5 -5 1 0 
8 1.5 8.5
1 -2.5 5 1 0 
1 2.5 -5 1 0 
1 0 0 1 0 
1 0 0 1 0 
1 0 0 0 -1 
1 0 0 0 1 
1 0 0 0 1 
1 0 0 1 0 
1 0 0 0 -1 
1 0 -10 1 0 
1 10 0 0 -1 
1 10 0 0 1 
1 0 0 0 -1 
1 0 0 0 1 
1 0 0 0 -1 
1 10 0 0 1 
8 1.5 8.5
1 2.5 -5 1 0 
8 1.5 8.5
1 -2.5 5 1 0 
1 2.5 -5 1 0 
8 -8.5 -1.5
1 5 2.5 0 1 
8 -8.5 -1.5
1 5 2.5 0 -1 
1 5 2.5 0 1 
1 0 0 0 1 
8 1.5 8.5
1 5 -2.5 0 1 
8 1.5 8.5
1 2.5 5 1 0 
1 5 -2.5 0 1 
8 -8.5 -1.5
1 2.5 5 -1 0 
8 -8.5 -1.5
1 -2.5 -5 -1 -0 
1 2.5 5 -1 0 
1 10 0 0 1 
1 0 10 1 0 
1 0 0 0 1 
1 0 0 1 0 
1 0 0 0 1 
1 0 10 1 0 
1 0 10 1 0 
1 0 0 0 -1 
1 10 0 0 1 
1 0 0 0 1 
1 0 10 1 0 
8 -8.5 -1.5
1 -2.5 5 -1 0 
8 -8.5 -1.5
1 5 2.5 0 -1 
1 -2.5 5 -1 0 
1 0 -10 1 0 
1 0 10 1 0 
8 1.5 8.5
1 5 -2.5 0 1 
8 1.5 8.5
1 5 -2.5 0 -1 
1 5 -2.5 0 1 
1 10 0 0 1 
1 0 10 1 0 
1 0 0 1 0 
1 10 0 0 1 
8 1.5 8.5
1 5 2.5 0 1 
8 1.5 8.5
1 5 2.5 0 -1 
1 5 2.5 0 1 
8 -8.5 -1.5
1 -2.5 5 -1 0 
8 -8.5 -1.5
1 5 2.5 0 -1 
1 -2.5 5 -1 0 
1 0 0 1 0 
1 0 10 1 0 
1 0 0 0 1 
8 1.5 8.5
1 5 -2.5 0 1 
8 1.5 8.5
1 5 -2.5 0 -1 
1 5 -2.5 0 1 
8 -8.5 -1.5
1 2.5 5 -1 0 
8 -8.5 -1.5
1 5 -2.5 0 -1 
1 2.5 5 -1 0 
1 0 10 1 0 
1 0 -10 1 0 
1 0 0 1 0 
1 0 0 1 0 
1 0 0 1 0 
1 10 0 0 -1 
1 10 0 0 1 
1 0 0 1 0 
1 0 0 1 0 
1 0 -10 1 0 
1 0 0 1 0 
1 0 0 1 0 
1 0 10 1 0 
8 1.5 8.5
1 5 2.5 0 1 
8 1.5 8.5
1 -2.5 5 1 0 
1 5 2.5 0 1 
8 -8.5 -1.5
1 -2.5 5 -1 0 
8 -8.5 -1.5
1 2.5 -5 -1 -0 
1 -2.5 5 -1 0 
8 1.5 8.5
1 -2.5 -5 1 0 
8 1.5 8.5
1 2.5 5 1 0 
1 -2.5 -5 1 0 
8 -8.5 -1.5
1 5 -2.5 0 1 
8 -8.5 -1.5
1 5 -2.5 0 -1 
1 5 -2.5 0 1 
1 10 0 0 -1 
1 0 0 0 1 
1 10 0 0 1 
1 0 0 1 0 
8 -8.5 -1.5
1 5 2.5 0 1 
8 -8.5 -1.5
1 5 2.5 0 -1 
1 5 2.5 0 1 
8 1.5 8.5
1 -2.5 -5 1 0 
8 1.5 8.5
1 2.5 5 1 0 
1 -2.5 -5 1 0 
1 0 -10 1 0 
1 10 0 0 -1 
8 -8.5 -1.5
1 -2.5 5 -1 0 
8 -8.5 -1.5
1 2.5 -5 -1 -0 
1 -2.5 5 -1 0 
8 1.5 8.5
1 5 -2.5 0 1 
8 1.5 8.5
1 2.5 5 1 0 
1 5 -2.5 0 1 
1 10 0 0 1 
1 0 10 1 0 
1 10 0 0 1 
1 0 10 1 0 
1 10 0 0 -1 
1 10 0 0 1 
Curves 48
1 0 0 0 0 0 1 
1 0 0 0 -0 1 0 
1 0 10 0 0 0 1 
1 0 0 10 -0 1 0 
1 0 0 0 1 0 -0 
1 0 0 10 1 0 -0 
1 10 0 0 0 0 1 
1 10 0 10 -0 1 0 
1 2.5 5 10 -1 -0 0 
1 5 2.5 10 -0 1 0 
1 0 10 10 1 0 -0 
1 0 10 0 1 0 -0 
1 5 10 2.5 -0 0 -1 
1 2.5 10 5 1 0 -0 
1 10 10 0 0 0 1 
1 10 0 0 -0 1 0 
1 10 2.5 5 0 -1 0 
1 10 5 2.5 0 0 1 
1 5 5 5 0 0 1 
1 5 5 5 -0 1 0 
1 5 5 5 1 0 -0 
1 10 15 2.5 0 0 1 
1 10 7.5 5 0 -1 0 
1 7.5 10 5 1 0 -0 
1 15 10 2.5 -0 0 -1 
1 15 5 5 -0 1 0 
1 5 15 5 1 0 -0 
1 7.5 15 10 -1 -0 0 
1 15 15 5 0 0 1 
1 15 7.5 10 -0 1 0 
1 15 2.5 10 -0 1 0 
1 7.5 5 10 -1 -0 0 
1 15 5 5 0 0 1 
1 5 7.5 10 -0 1 0 
1 2.5 15 10 -1 -0 0 
1 5 15 5 0 0 1 
1 2.5 10 15 1 0 -0 
1 5 10 7.5 -0 0 -1 
1 10 5 7.5 0 0 1 
1 10 2.5 15 0 -1 0 
1 5 5 15 -0 1 0 
1 5 5 15 1 0 -0 
1 10 7.5 15 0 -1 0 
1 10 15 7.5 0 0 1 
1 15 10 7.5 -0 0 -1 
1 7.5 10 15 1 0 -0 
1 5 15 15 1 0 -0 
1 15 5 15 -0 1 0 
Polygon3D 0
PolygonOnTriangulations 0
Surfaces 12
1 0 0 0 1 0 -0 0 0 1 0 -1 0 
1 0 0 0 -0 1 0 0 0 1 1 0 -0 
1 0 0 0 0 0 1 1 0 -0 -0 1 0 
1 0 10 0 -0 1 0 0 0 1 1 0 -0 
1 0 0 10 0 0 1 1 0 -0 -0 1 0 
1 10 0 0 1 0 -0 0 0 1 0 -1 0 
1 5 5 5 -0 1 0 0 0 1 1 0 -0 
1 5 5 5 1 0 -0 0 0 1 0 -1 0 
1 5 5 5 0 0 1 1 0 -0 -0 1 0 
1 5 15 5 -0 1 0 0 0 1 1 0 -0 
1 15 5 5 1 0 -0 0 0 1 0 -1 0 
1 5 5 15 0 0 1 1 0 -0 -0 1 0 
Triangulations 0

TShapes 291
Ve
1e-007
0 0 0
0 0

0101101
*
Ve
1e-007
0 0 10
0 0

0101101
*
Ed
 1e-007 1 1 0
1  1 0 0 10
2  1 1 0 0 10
2  2 2 0 0 10
0

0101000
+291 0 -290 0 *
Ve
1e-007
0 10 0
0 0

0101101
*
Ed
 1e-007 1 1 0
1  2 0 0 10
2  3 1 0 0 10
2  4 3 0 0 10
0

0101000
+291 0 -288 0 *
Ve
1e-007
0 10 10
0 0

0101101
*
Ed
 1e-007 1 1 0
1  3 0 0 10
2  5 1 0 0 10
2  6 4 0 0 10
2  7 2 1 0 10
0

0101000
+288 0 -286 0 *
Ed
 1e-007 1 1 0
1  4 0 0 10
2  8 1 0 0 10
2  9 5 0 0 10
2  10 3 2 0 10
0

0101000
+290 0 -286 0 *
Wi

0101100
-289 0 +287 0 +285 0 -284 0 *
Fa
0  1e-007 1 0

0111000
+283 0 *
Ve
1e-007
10 0 0
0 0

0101101
*
Ed
 1e-007 1 1 0
1  5 0 0 10
2  11 2 0 0 10
2  12 3 0 0 10
0

0101000
+291 0 -281 0 *
Ve
1e-007
10 0 10
0 0

0101101
*
Ed
 1e-007 1 1 0
1  6 0 0 10
2  13 2 0 0 10
2  14 5 0 0 10
2  15 3 2 0 10
0

0101000
+290 0 -279 0 *
Ed
 1e-007 1 1 0
1  7 0 0 10
2  16 6 0 0 10
2  17 2 0 0 10
2  18 1 3 0 10
0

0101000
+281 0 -279 0 *
Wi

0101100
-280 0 +289 0 +278 0 -277 0 *
Fa
0  1e-007 2 0

0111000
+276 0 *
Ve
2.12133034355964e-007
10 5 10
0 0

0101101
*
Ed
 1e-007 1 1 0
1  8 0 0 5
2  19 6 0 0 5
2  20 5 0 0 5
2  21 1 3 0 5
2  22 5 3 0 5
2  23 6 2 0 5
2  24 3 2 0 5
2  25 1 4 0 5
2  26 3 4 0 5
0

0101000
+279 0 -274 0 *
Ve
2.12133034355964e-007
5 5 10
0 0

0101101
*
Ed
 2.12132034355964e-007 1 1 0
1  9 0 -7.5 -2.5
2  27 5 0 -7.5 -2.5
2  28 7 0 -7.5 -2.5
2  29 3 2 -7.5 -2.5
0

0101000
+274 0 -272 0 *
Ve
2.12133034355964e-007
5 10 10
0 0

0101101
*
Ed
 2.12132034355964e-007 1 1 0
1  10 0 2.5 7.5
2  30 5 0 2.5 7.5
2  31 8 0 2.5 7.5
2  32 3 2 2.5 7.5
0

0101000
+272 0 -270 0 *
Ed
 1e-007 1 1 0
1  11 0 0 5
2  33 4 0 0 5
2  34 5 0 0 5
2  35 2 1 0 5
2  36 5 1 0 5
2  37 4 2 0 5
2  38 3 2 0 5
2  39 2 5 0 5
2  40 3 5 0 5
0

0101000
+286 0 -270 0 *
Wi

0101100
-284 0 +278 0 +273 0 +271 0 +269 0 -268 0 *
Fa
0  1e-007 5 0

0111000
+267 0 *
Ve
1e-007
10 10 0
0 0

0101101
*
Ed
 1e-007 1 1 0
1  12 0 0 10
2  41 4 0 0 10
2  42 3 0 0 10
2  43 2 1 0 10
0

0101000
+288 0 -265 0 *
Ve
2.12133034355964e-007
5 10 5
0 0

0101101
*
Ed
 2.12132034355964e-007 1 1 0
1  13 0 -7.5 -2.5
2  44 4 0 -7.5 -2.5
2  45 8 0 -7.5 -2.5
2  46 2 1 -7.5 -2.5
0

0101000
+270 0 -263 0 *
Ve
2.12133034355964e-007
10 10 5
0 0

0101101
*
Ed
 2.12132034355964e-007 1 1 0
1  14 0 2.5 7.5
2  47 4 0 2.5 7.5
2  48 9 0 2.5 7.5
2  49 2 1 2.5 7.5
0

0101000
+263 0 -261 0 *
Ed
 1e-007 1 1 0
1  15 0 0 5
2  50 6 0 0 5
2  51 4 0 0 5
2  52 1 8 0 5
2  53 2 8 0 5
2  54 1 3 0 5
2  55 4 3 0 5
2  56 6 1 0 5
2  57 2 1 0 5
0

0101000
+265 0 -261 0 *
Wi

0101100
-264 0 +285 0 +268 0 +262 0 +260 0 -259 0 *
Fa
0  1e-007 4 0

0111000
+258 0 *
Ed
 1e-007 1 1 0
1  16 0 0 10
2  58 6 0 0 10
2  59 3 0 0 10
2  60 1 3 0 10
0

0101000
+281 0 -265 0 *
Wi

0101100
-287 0 +280 0 +256 0 -264 0 *
Fa
0  1e-007 3 0

0111000
+255 0 *
Ve
2.12133034355964e-007
10 5 5
0 0

0101101
*
Ed
 2.12132034355964e-007 1 1 0
1  17 0 -7.5 -2.5
2  61 6 0 -7.5 -2.5
2  62 9 0 -7.5 -2.5
2  63 1 3 -7.5 -2.5
0

0101000
+261 0 -253 0 *
Ed
 2.12132034355964e-007 1 1 0
1  18 0 2.5 7.5
2  64 6 0 2.5 7.5
2  65 7 0 2.5 7.5
2  66 1 3 2.5 7.5
0

0101000
+253 0 -274 0 *
Wi

0101100
-277 0 +256 0 +259 0 +252 0 +251 0 -273 0 *
Fa
0  1e-007 6 0

0111000
+250 0 *
Ve
1e-007
5 5 5
0 0

0101101
*
Ed
 1e-007 1 1 0
1  19 0 0 5
2  67 8 0 0 5
2  68 7 0 0 5
0

0101000
+248 0 -272 0 *
Ed
 1e-007 1 1 0
1  20 0 0 5
2  69 8 0 0 5
2  70 9 0 0 5
0

0101000
+248 0 -263 0 *
Wi

0101100
-247 0 +246 0 -262 0 -269 0 *
Fa
0  1e-007 8 0

0111000
+245 0 *
Ed
 1e-007 1 1 0
1  21 0 0 5
2  71 7 0 0 5
2  72 9 0 0 5
0

0101000
+248 0 -253 0 *
Wi

0101100
-243 0 +247 0 -271 0 -251 0 *
Fa
0  1e-007 7 0

0111000
+242 0 *
Wi

0101100
-246 0 +243 0 -252 0 -260 0 *
Fa
0  1e-007 9 0

0111000
+240 0 *
Sh

0101100
-282 0 -275 0 +266 0 +257 0 -254 0 +249 0 +244 0 +241 0 +239 0 *
So

0100000
+238 0 *
Ve
1e-007
10 20 0
0 0

0101101
*
Ed
 1e-007 1 1 0
1  2 0 0 10
2  3 1 0 0 10
2  4 3 0 0 10
2  73 6 9 0 10
0

0101000
+265 10 -236 10 *
Ve
1e-007
10 20 10
0 0

0101101
*
Ed
 1e-007 1 1 0
1  3 0 0 10
2  5 1 0 0 10
2  6 4 0 0 10
2  74 6 9 0 10
0

0101000
+236 10 -234 10 *
Ve
2.12133034355964e-007
10 15 10
0 0

0101101
*
Ed
 1e-007 1 1 0
1  4 0 5 10
2  8 1 0 5 10
2  9 5 0 5 10
2  75 6 9 5 10
2  76 5 9 5 10
2  77 1 11 5 10
2  78 3 11 5 10
2  79 6 12 5 10
2  80 3 12 5 10
0

0101000
+232 10 -234 10 *
Ve
2.12133034355964e-007
10 15 5
0 0

0101101
*
Ed
 2.12132034355964e-007 1 1 0
1  22 0 2.5 7.5
2  81 1 8 2.5 7.5
2  82 10 0 2.5 7.5
2  83 6 1 2.5 7.5
0

0101000
+230 0 -232 0 *
Ed
 2.12132034355964e-007 1 1 0
1  23 0 -7.5 -2.5
2  84 1 8 -7.5 -2.5
2  85 9 0 -7.5 -2.5
2  86 6 1 -7.5 -2.5
0

0101000
+230 0 -261 0 *
Wi

0101100
-259 0 +235 8 +233 8 -231 8 -229 0 +228 0 *
Fa
0  1e-007 1 8

0111000
+227 0 *
Ve
1e-007
20 10 0
0 0

0101101
*
Ed
 1e-007 1 1 0
1  5 0 0 10
2  11 2 0 0 10
2  12 3 0 0 10
2  87 4 13 0 10
0

0101000
+265 10 -225 10 *
Ve
2.12133034355964e-007
15 10 5
0 0

0101101
*
Ed
 2.12132034355964e-007 1 1 0
1  24 0 2.5 7.5
2  88 2 8 2.5 7.5
2  89 9 0 2.5 7.5
2  90 4 3 2.5 7.5
0

0101000
+261 0 -223 0 *
Ve
2.12133034355964e-007
15 10 10
0 0

0101101
*
Ed
 2.12132034355964e-007 1 1 0
1  25 0 -7.5 -2.5
2  91 2 8 -7.5 -2.5
2  92 11 0 -7.5 -2.5
2  93 4 3 -7.5 -2.5
0

0101000
+221 0 -223 0 *
Ve
1e-007
20 10 10
0 0

0101101
*
Ed
 1e-007 1 1 0
1  6 0 5 10
2  13 2 0 5 10
2  14 5 0 5 10
2  94 4 13 5 10
2  95 5 13 5 10
2  96 2 11 5 10
2  97 3 11 5 10
2  98 4 14 5 10
2  99 3 14 5 10
0

0101000
+221 10 -219 10 *
Ed
 1e-007 1 1 0
1  7 0 0 10
2  16 6 0 0 10
2  17 2 0 0 10
2  100 4 13 0 10
0

0101000
+225 10 -219 10 *
Wi

0101100
-224 8 +259 0 +222 0 -220 0 +218 8 -217 8 *
Fa
0  1e-007 2 8

0111000
+216 0 *
Ve
1e-007
15 15 5
0 0

0101101
*
Ed
 1e-007 1 1 0
1  26 0 5 10
2  101 11 0 5 10
2  102 9 0 5 10
0

0101000
+223 0 -214 0 *
Ed
 1e-007 1 1 0
1  27 0 5 10
2  103 10 0 5 10
2  104 9 0 5 10
0

0101000
+230 0 -214 0 *
Wi

0101100
+228 0 +222 0 +213 0 -212 0 *
Fa
0  1e-007 9 0

0111000
+211 0 *
Ve
2.12133034355964e-007
15 15 10
0 0

0101101
*
Ed
 2.12132034355964e-007 1 1 0
1  28 0 -7.5 -2.5
2  105 5 8 -7.5 -2.5
2  106 10 0 -7.5 -2.5
2  107 3 15 -7.5 -2.5
0

0101000
+209 0 -232 0 *
Ed
 1e-007 1 1 0
1  29 0 0 5
2  108 11 0 0 5
2  109 10 0 0 5
0

0101000
+214 0 -209 0 *
Wi

0101100
-212 0 +229 0 -208 0 -207 0 *
Fa
0  1e-007 10 0

0111000
+206 0 *
Ed
 2.12132034355964e-007 1 1 0
1  30 0 2.5 7.5
2  110 5 8 2.5 7.5
2  111 11 0 2.5 7.5
2  112 3 15 2.5 7.5
0

0101000
+221 0 -209 0 *
Ve
1e-007
20 20 10
0 0

0101101
*
Ed
 1e-007 1 1 0
1  8 0 0 10
2  19 6 0 0 10
2  20 5 0 0 10
2  113 3 11 0 10
0

0101000
+219 10 -203 10 *
Ed
 1e-007 1 1 0
1  11 0 0 10
2  33 4 0 0 10
2  34 5 0 0 10
2  114 3 11 0 10
0

0101000
+234 10 -203 10 *
Wi

0101100
-231 8 -208 0 -204 0 +218 8 +202 8 -201 8 *
Fa
0  1e-007 5 8

0111000
+200 0 *
Ve
1e-007
10 10 0
0 0

0101101
*
Ed
 1e-007 1 1 0
1  12 0 0 10
2  41 4 0 0 10
2  42 3 0 0 10
0

0101000
+236 10 -198 0 *
Ed
 1e-007 1 1 0
1  15 0 0 10
2  50 6 0 0 10
2  51 4 0 0 10
0

0101000
+198 0 -203 10 *
Wi

0101100
-197 8 +233 8 +201 8 -196 8 *
Fa
0  1e-007 4 8

0111000
+195 0 *
Ed
 1e-007 1 1 0
1  16 0 0 10
2  58 6 0 0 10
2  59 3 0 0 10
0

0101000
+225 10 -198 0 *
Wi

0101100
-235 8 +224 8 +193 8 -197 8 *
Fa
0  1e-007 3 8

0111000
+192 0 *
Wi

0101100
-217 8 +193 8 +196 8 -202 8 *
Fa
0  1e-007 6 8

0111000
+190 0 *
Wi

0101100
+220 0 +213 0 +207 0 -204 0 *
Fa
0  1e-007 11 0

0111000
+188 0 *
Sh

0101100
-226 0 -215 0 +210 0 -205 0 +199 0 +194 0 -191 0 +189 0 -187 0 *
So

0100000
+186 0 *
Ve
1e-007
10 0 0
0 0

0101101
*
Ed
 1e-007 1 1 0
1  5 0 0 10
2  11 2 0 0 10
2  12 3 0 0 10
0

0101000
+281 16 -184 0 *
Ve
1e-007
20 0 10
0 0

0101101
*
Ed
 1e-007 1 1 0
1  6 0 0 10
2  13 2 0 0 10
2  14 5 0 0 10
2  115 3 17 0 10
0

0101000
+279 16 -182 16 *
Ed
 1e-007 1 1 0
1  7 0 0 10
2  16 6 0 0 10
2  17 2 0 0 10
0

0101000
+184 0 -182 16 *
Wi

0101100
-183 3 +277 0 +181 3 -180 3 *
Fa
0  1e-007 2 3

0111000
+179 0 *
Ed
 1e-007 1 1 0
1  8 0 0 10
2  19 6 0 0 10
2  20 5 0 0 10
2  116 3 17 0 10
0

0101000
+182 16 -219 16 *
Ve
2.12133034355964e-007
15 5 10
0 0

0101101
*
Ed
 2.12132034355964e-007 1 1 0
1  31 0 2.5 7.5
2  117 5 3 2.5 7.5
2  118 11 0 2.5 7.5
2  119 3 4 2.5 7.5
0

0101000
+176 0 -221 0 *
Ed
 2.12132034355964e-007 1 1 0
1  32 0 -7.5 -2.5
2  120 5 3 -7.5 -2.5
2  121 7 0 -7.5 -2.5
2  122 3 4 -7.5 -2.5
0

0101000
+176 0 -274 0 *
Wi

0101100
-273 0 +181 3 +177 3 -218 8 -175 0 +174 0 *
Fa
0  1e-007 5 3

0111000
+173 0 *
Ve
1e-007
15 5 5
0 0

0101101
*
Ed
 1e-007 1 1 0
1  21 0 5 10
2  71 7 0 5 10
2  72 9 0 5 10
0

0101000
+253 0 -171 0 *
Ed
 1e-007 1 1 0
1  33 0 0 5
2  123 11 0 0 5
2  124 7 0 0 5
0

0101000
+171 0 -176 0 *
Wi

0101100
-170 0 +251 0 -174 0 -169 0 *
Fa
0  1e-007 7 0

0111000
+168 0 *
Ed
 1e-007 1 1 0
1  26 0 0 5
2  101 11 0 0 5
2  102 9 0 0 5
0

0101000
+171 0 -223 0 *
Wi

0101100
+252 0 +170 0 +166 0 -222 0 *
Fa
0  1e-007 9 0

0111000
+165 0 *
Ed
 1e-007 1 1 0
1  16 0 0 10
2  58 6 0 0 10
2  59 3 0 0 10
0

0101000
+184 0 -225 16 *
Wi

0101100
-256 0 +183 3 +163 3 -224 8 *
Fa
0  1e-007 3 3

0111000
+162 0 *
Wi

0101100
-180 3 +163 3 +217 8 -177 3 *
Fa
0  1e-007 6 3

0111000
+160 0 *
Wi

0101100
-169 0 +166 0 -220 0 -175 0 *
Fa
0  1e-007 11 0

0111000
+158 0 *
Sh

0101100
-249 0 -178 0 +172 0 +167 0 +164 0 +215 0 -161 0 +159 0 -157 0 *
So

0100000
+156 0 *
Ve
1e-007
0 10 0
0 0

0101101
*
Ed
 1e-007 1 1 0
1  2 0 0 10
2  3 1 0 0 10
2  4 3 0 0 10
0

0101000
+288 18 -154 0 *
Ve
1e-007
0 20 10
0 0

0101101
*
Ed
 1e-007 1 1 0
1  3 0 0 10
2  5 1 0 0 10
2  6 4 0 0 10
0

0101000
+154 0 -152 18 *
Ed
 1e-007 1 1 0
1  4 0 0 10
2  8 1 0 0 10
2  9 5 0 0 10
2  125 3 19 0 10
0

0101000
+286 18 -152 18 *
Wi

0101100
-285 0 +153 1 +151 1 -150 1 *
Fa
0  1e-007 1 1

0111000
+149 0 *
Ve
2.12133034355964e-007
5 15 10
0 0

0101101
*
Ed
 2.12132034355964e-007 1 1 0
1  34 0 2.5 7.5
2  126 5 1 2.5 7.5
2  127 8 0 2.5 7.5
2  128 3 5 2.5 7.5
0

0101000
+270 0 -147 0 *
Ed
 2.12132034355964e-007 1 1 0
1  35 0 -7.5 -2.5
2  129 5 1 -7.5 -2.5
2  130 10 0 -7.5 -2.5
2  131 3 5 -7.5 -2.5
0

0101000
+232 0 -147 0 *
Ed
 1e-007 1 1 0
1  11 0 0 10
2  33 4 0 0 10
2  34 5 0 0 10
2  132 3 19 0 10
0

0101000
+152 18 -234 18 *
Wi

0101100
-150 1 +268 0 +146 0 -145 0 +231 8 -144 1 *
Fa
0  1e-007 5 1

0111000
+143 0 *
Ed
 1e-007 1 1 0
1  12 0 0 10
2  41 4 0 0 10
2  42 3 0 0 10
0

0101000
+154 0 -236 18 *
Wi

0101100
-141 1 +151 1 +144 1 -233 8 *
Fa
0  1e-007 4 1

0111000
+140 0 *
Wi

0101100
-153 1 +264 0 +235 8 -141 1 *
Fa
0  1e-007 3 1

0111000
+138 0 *
Ve
1e-007
5 15 5
0 0

0101101
*
Ed
 1e-007 1 1 0
1  20 0 5 10
2  69 8 0 5 10
2  70 9 0 5 10
0

0101000
+263 0 -136 0 *
Ed
 1e-007 1 1 0
1  27 0 0 5
2  103 10 0 0 5
2  104 9 0 0 5
0

0101000
+136 0 -230 0 *
Wi

0101100
-135 0 +260 0 -228 0 -134 0 *
Fa
0  1e-007 9 0

0111000
+133 0 *
Ed
 1e-007 1 1 0
1  36 0 0 5
2  133 8 0 0 5
2  134 10 0 0 5
0

0101000
+136 0 -147 0 *
Wi

0101100
+262 0 +135 0 +131 0 -146 0 *
Fa
0  1e-007 8 0

0111000
+130 0 *
Wi

0101100
-134 0 +131 0 -145 0 -229 0 *
Fa
0  1e-007 10 0

0111000
+128 0 *
Sh

0101100
-148 0 -257 0 +142 0 +139 0 -137 0 +226 0 +132 0 +129 0 -127 0 *
So

0100000
+126 0 *
Ve
1e-007
0 0 10
0 0

0101101
*
Ed
 1e-007 1 1 0
1  1 0 0 10
2  1 1 0 0 10
2  2 2 0 0 10
0

0101000
+290 20 -124 0 *
Ve
1e-007
0 10 20
0 0

0101101
*
Ed
 1e-007 1 1 0
1  3 0 0 10
2  5 1 0 0 10
2  6 4 0 0 10
2  135 2 1 0 10
0

0101000
+286 20 -122 20 *
Ed
 1e-007 1 1 0
1  4 0 0 10
2  8 1 0 0 10
2  9 5 0 0 10
0

0101000
+124 0 -122 20 *
Wi

0101100
-123 2 +284 0 +121 2 -120 2 *
Fa
0  1e-007 1 2

0111000
+119 0 *
Ve
1e-007
10 0 20
0 0

0101101
*
Ed
 1e-007 1 1 0
1  6 0 0 10
2  13 2 0 0 10
2  14 5 0 0 10
0

0101000
+124 0 -117 20 *
Ed
 1e-007 1 1 0
1  7 0 0 10
2  16 6 0 0 10
2  17 2 0 0 10
2  136 1 3 0 10
0

0101000
+279 20 -117 20 *
Wi

0101100
-278 0 +123 2 +116 2 -115 2 *
Fa
0  1e-007 2 2

0111000
+114 0 *
Ve
1e-007
10 10 20
0 0

0101101
*
Ed
 1e-007 1 1 0
1  8 0 0 10
2  19 6 0 0 10
2  20 5 0 0 10
2  137 1 3 0 10
0

0101000
+117 20 -112 20 *
Ed
 1e-007 1 1 0
1  11 0 0 10
2  33 4 0 0 10
2  34 5 0 0 10
2  138 2 1 0 10
0

0101000
+122 20 -112 20 *
Wi

0101100
-120 2 +116 2 +111 2 -110 2 *
Fa
0  1e-007 5 2

0111000
+109 0 *
Ve
2.12133034355964e-007
10 10 15
0 0

0101101
*
Ed
 1e-007 1 1 0
1  15 0 5 10
2  50 6 0 5 10
2  51 4 0 5 10
2  139 1 8 5 10
2  140 2 8 5 10
2  141 1 3 5 10
2  142 4 3 5 10
2  143 6 1 5 10
2  144 2 1 5 10
0

0101000
+107 20 -112 20 *
Ve
2.12133034355964e-007
5 10 15
0 0

0101101
*
Ed
 2.12132034355964e-007 1 1 0
1  37 0 2.5 7.5
2  145 4 2 2.5 7.5
2  146 12 0 2.5 7.5
2  147 2 5 2.5 7.5
0

0101000
+105 0 -107 0 *
Ed
 2.12132034355964e-007 1 1 0
1  38 0 -7.5 -2.5
2  148 4 2 -7.5 -2.5
2  149 8 0 -7.5 -2.5
2  150 2 5 -7.5 -2.5
0

0101000
+105 0 -270 0 *
Wi

0101100
-268 0 +121 2 +110 2 -106 2 -104 0 +103 0 *
Fa
0  1e-007 4 2

0111000
+102 0 *
Ve
2.12133034355964e-007
10 5 15
0 0

0101101
*
Ed
 2.12132034355964e-007 1 1 0
1  39 0 2.5 7.5
2  151 6 2 2.5 7.5
2  152 7 0 2.5 7.5
2  153 1 4 2.5 7.5
0

0101000
+274 0 -100 0 *
Ed
 2.12132034355964e-007 1 1 0
1  40 0 -7.5 -2.5
2  154 6 2 -7.5 -2.5
2  155 12 0 -7.5 -2.5
2  156 1 4 -7.5 -2.5
0

0101000
+107 0 -100 0 *
Wi

0101100
-115 2 +273 0 +99 0 -98 0 +106 2 -111 2 *
Fa
0  1e-007 6 2

0111000
+97 0 *
Ve
1e-007
5 5 15
0 0

0101101
*
Ed
 1e-007 1 1 0
1  19 0 5 10
2  67 8 0 5 10
2  68 7 0 5 10
0

0101000
+272 0 -95 0 *
Ed
 1e-007 1 1 0
1  41 0 0 5
2  157 8 0 0 5
2  158 12 0 0 5
0

0101000
+95 0 -105 0 *
Wi

0101100
-94 0 +269 0 -103 0 -93 0 *
Fa
0  1e-007 8 0

0111000
+92 0 *
Ed
 1e-007 1 1 0
1  42 0 0 5
2  159 7 0 0 5
2  160 12 0 0 5
0

0101000
+95 0 -100 0 *
Wi

0101100
-93 0 +90 0 -98 0 -104 0 *
Fa
0  1e-007 12 0

0111000
+89 0 *
Wi

0101100
+271 0 +94 0 +90 0 -99 0 *
Fa
0  1e-007 7 0

0111000
+87 0 *
Sh

0101100
-118 0 -113 0 +108 0 +101 0 -266 0 +96 0 +91 0 -88 0 +86 0 *
So

0100000
+85 0 *
Ve
2.12133034355964e-007
10 15 15
0 0

0101101
*
Ed
 2.12132034355964e-007 1 1 0
1  43 0 -7.5 -2.5
2  161 1 15 -7.5 -2.5
2  162 12 0 -7.5 -2.5
2  163 6 5 -7.5 -2.5
0

0101000
+83 0 -107 0 *
Ed
 2.12132034355964e-007 1 1 0
1  44 0 2.5 7.5
2  164 1 15 2.5 7.5
2  165 10 0 2.5 7.5
2  166 6 5 2.5 7.5
0

0101000
+232 0 -83 0 *
Ve
1e-007
10 20 20
0 0

0101101
*
Ed
 1e-007 1 1 0
1  3 0 0 10
2  5 1 0 0 10
2  6 4 0 0 10
2  167 6 9 0 10
0

0101000
+234 21 -80 21 *
Ed
 1e-007 1 1 0
1  4 0 0 10
2  8 1 0 0 10
2  9 5 0 0 10
2  168 6 9 0 10
0

0101000
+112 21 -80 21 *
Wi

0101100
-106 2 -82 0 -81 0 +231 8 +79 15 -78 15 *
Fa
0  1e-007 1 15

0111000
+77 0 *
Ve
2.12133034355964e-007
15 10 15
0 0

0101101
*
Ed
 2.12132034355964e-007 1 1 0
1  45 0 -7.5 -2.5
2  169 2 15 -7.5 -2.5
2  170 11 0 -7.5 -2.5
2  171 4 4 -7.5 -2.5
0

0101000
+75 0 -221 0 *
Ed
 2.12132034355964e-007 1 1 0
1  46 0 2.5 7.5
2  172 2 15 2.5 7.5
2  173 12 0 2.5 7.5
2  174 4 4 2.5 7.5
0

0101000
+107 0 -75 0 *
Ve
1e-007
20 10 20
0 0

0101101
*
Ed
 1e-007 1 1 0
1  6 0 0 10
2  13 2 0 0 10
2  14 5 0 0 10
2  175 4 13 0 10
0

0101000
+112 21 -72 21 *
Ed
 1e-007 1 1 0
1  7 0 0 10
2  16 6 0 0 10
2  17 2 0 0 10
2  176 4 13 0 10
0

0101000
+219 21 -72 21 *
Wi

0101100
-218 8 -74 0 -73 0 +106 2 +71 15 -70 15 *
Fa
0  1e-007 2 15

0111000
+69 0 *
Ve
1e-007
10 10 10
0 0

0101101
*
Ed
 1e-007 1 1 0
1  8 0 0 10
2  19 6 0 0 10
2  20 5 0 0 10
0

0101000
+72 21 -67 0 *
Ed
 1e-007 1 1 0
1  11 0 0 10
2  33 4 0 0 10
2  34 5 0 0 10
0

0101000
+80 21 -67 0 *
Wi

0101100
-78 15 +71 15 +66 15 -65 15 *
Fa
0  1e-007 5 15

0111000
+64 0 *
Ed
 1e-007 1 1 0
1  15 0 0 10
2  50 6 0 0 10
2  51 4 0 0 10
0

0101000
+203 21 -67 0 *
Wi

0101100
-201 8 +79 15 +65 15 -62 15 *
Fa
0  1e-007 4 15

0111000
+61 0 *
Ve
1e-007
15 15 15
0 0

0101101
*
Ed
 1e-007 1 1 0
1  47 0 5 10
2  177 10 0 5 10
2  178 12 0 5 10
0

0101000
+83 0 -59 0 *
Ed
 1e-007 1 1 0
1  29 0 5 10
2  108 11 0 5 10
2  109 10 0 5 10
0

0101000
+209 0 -59 0 *
Wi

0101100
+208 0 +81 0 +58 0 -57 0 *
Fa
0  1e-007 10 0

0111000
+56 0 *
Ed
 1e-007 1 1 0
1  48 0 5 10
2  179 11 0 5 10
2  180 12 0 5 10
0

0101000
+75 0 -59 0 *
Wi

0101100
+82 0 +73 0 +54 0 -58 0 *
Fa
0  1e-007 12 0

0111000
+53 0 *
Wi

0101100
-70 15 +202 8 +62 15 -66 15 *
Fa
0  1e-007 6 15

0111000
+51 0 *
Wi

0101100
+74 0 +204 0 +57 0 -54 0 *
Fa
0  1e-007 11 0

0111000
+49 0 *
Sh

0101100
-76 0 -68 0 +63 0 +60 0 -199 0 -55 0 -52 0 +50 0 -48 0 *
So

0100000
+47 0 *
Ve
1e-007
10 0 10
0 0

0101101
*
Ed
 1e-007 1 1 0
1  6 0 0 10
2  13 2 0 0 10
2  14 5 0 0 10
0

0101000
+117 22 -45 0 *
Ed
 1e-007 1 1 0
1  7 0 0 10
2  16 6 0 0 10
2  17 2 0 0 10
0

0101000
+182 22 -45 0 *
Wi

0101100
-181 3 +115 2 +44 4 -43 4 *
Fa
0  1e-007 2 4

0111000
+42 0 *
Ed
 1e-007 1 1 0
1  8 0 0 10
2  19 6 0 0 10
2  20 5 0 0 10
0

0101000
+45 0 -72 22 *
Wi

0101100
-111 2 +44 4 +40 4 -71 15 *
Fa
0  1e-007 5 4

0111000
+39 0 *
Ve
1e-007
15 5 15
0 0

0101101
*
Ed
 1e-007 1 1 0
1  42 0 5 10
2  159 7 0 5 10
2  160 12 0 5 10
0

0101000
+100 0 -37 0 *
Ed
 1e-007 1 1 0
1  48 0 0 5
2  179 11 0 0 5
2  180 12 0 0 5
0

0101000
+37 0 -75 0 *
Wi

0101100
+98 0 +36 0 +35 0 -73 0 *
Fa
0  1e-007 12 0

0111000
+34 0 *
Ed
 1e-007 1 1 0
1  33 0 5 10
2  123 11 0 5 10
2  124 7 0 5 10
0

0101000
+176 0 -37 0 *
Wi

0101100
+174 0 +99 0 +36 0 -32 0 *
Fa
0  1e-007 7 0

0111000
+31 0 *
Wi

0101100
-43 4 +177 3 +70 15 -40 4 *
Fa
0  1e-007 6 4

0111000
+29 0 *
Wi

0101100
-32 0 +175 0 -74 0 -35 0 *
Fa
0  1e-007 11 0

0111000
+27 0 *
Sh

0101100
-96 0 -41 0 +38 0 +68 0 -33 0 +30 0 -172 0 +28 0 -26 0 *
So

0100000
+25 0 *
Ve
1e-007
0 10 10
0 0

0101101
*
Ed
 1e-007 1 1 0
1  3 0 0 10
2  5 1 0 0 10
2  6 4 0 0 10
0

0101000
+152 23 -23 0 *
Ed
 1e-007 1 1 0
1  4 0 0 10
2  8 1 0 0 10
2  9 5 0 0 10
0

0101000
+122 23 -23 0 *
Wi

0101100
-121 2 +150 1 +22 5 -21 5 *
Fa
0  1e-007 1 5

0111000
+20 0 *
Ed
 1e-007 1 1 0
1  11 0 0 10
2  33 4 0 0 10
2  34 5 0 0 10
0

0101000
+23 0 -80 23 *
Wi

0101100
-21 5 +110 2 +78 15 -18 5 *
Fa
0  1e-007 5 5

0111000
+17 0 *
Wi

0101100
-144 1 +22 5 +18 5 -79 15 *
Fa
0  1e-007 4 5

0111000
+15 0 *
Ve
1e-007
5 15 15
0 0

0101101
*
Ed
 1e-007 1 1 0
1  36 0 5 10
2  133 8 0 5 10
2  134 10 0 5 10
0

0101000
+147 0 -13 0 *
Ed
 1e-007 1 1 0
1  41 0 5 10
2  157 8 0 5 10
2  158 12 0 5 10
0

0101000
+105 0 -13 0 *
Wi

0101100
+103 0 +146 0 +12 0 -11 0 *
Fa
0  1e-007 8 0

0111000
+10 0 *
Ed
 1e-007 1 1 0
1  47 0 0 5
2  177 10 0 0 5
2  178 12 0 0 5
0

0101000
+13 0 -83 0 *
Wi

0101100
-11 0 +104 0 -82 0 -8 0 *
Fa
0  1e-007 12 0

0111000
+7 0 *
Wi

0101100
+145 0 +12 0 +8 0 -81 0 *
Fa
0  1e-007 10 0

0111000
+5 0 *
Sh

0101100
-19 0 -101 0 +16 0 +14 0 -142 0 +9 0 -6 0 +76 0 -4 0 *
So

0100000
+3 0 *
CS

1101000
+237 0 +185 0 +155 0 +125 0 +84 0 +46 0 +24 0 +2 0 *

+1 0 
0

