DBRep_DrawableShape

CASCADE Topology V1, (c) Matra-Datavision
Locations 8
1
              1               0               0               0 
              0               1               0               0 
              0               0               1               0 
1
              1               0              -0               0 
             -0 2.22044604925031e-16              -1               0 
              0               1 2.22044604925031e-16               0 
2  2 -1 0
1
              1               0              -0               0 
             -0 2.22044604925031e-16              -1               0 
              0               1 2.22044604925031e-16               0 
1
              1               0               0               0 
              0 -2.22044604925031e-16              -1               0 
              0               1 -2.22044604925031e-16               0 
2  4 1 5 -1 0
2  5 1 4 -1 0
2  2 -1 5 1 4 -1 0
Curve2ds 25
2 0 0 1 0 -0 1 16
1 0 90 1 0 
2 0 0 1 0 -0 1 11
1 0 0 1 0 
1 0 2 1 0 
1 0 0 1 0 
1 6.2831853071795862 0 0 1 
1 0 0 0 1 
1 0 18 1 0 
2 0 0 -1 -8.6057553296837645e-31 -8.6057553296837645e-31 1 11
1 6.2831853071795862 0 0 1 
1 0 0 0 1 
2 0 0 -1 8.6510885035725674e-17 8.6510885035725674e-17 1 14
1 0 0 1 0 
1 0 50 1 0 
1 0 0 1 0 
1 6.2831853071795862 0 0 1 
1 0 0 0 1 
1 0 22.803508501982748 1 0 
1 6.2831853071795862 0 0 1 
1 0 0 0 1 
2 0 0 -1 -3.944304526105059e-31 -3.944304526105059e-31 1 16
1 0 0 1 0 
1 6.2831853071795862 0 0 1 
1 0 0 0 1 
Curves 12
2 0 0 0 -0 -1 2.2204460492503131e-16 1 0 0 -0 2.2204460492503131e-16 1 16
2 0 0 0 -0 -1 2.2204460492503131e-16 1 0 0 -0 2.2204460492503131e-16 1 11
2 0 2 -4.4408920985006262e-16 -0 -1 2.2204460492503131e-16 1 -8.9643284684205972e-33 -4.037174635000573e-17 4.037174635000573e-17 2.2204460492503131e-16 1 11
1 11 0 0 0 1 0 
2 0 20 -4.4408920985006262e-15 -0 -1 2.2204460492503131e-16 1 -8.964328468420595e-32 -4.0371746350005721e-16 4.0371746350005721e-16 2.2204460492503131e-16 1 11
1 11 2 0 0 1 0 
2 0 20 -4.4408920985006262e-15 -0 -1 2.2204460492503131e-16 1 -7.0434009394733242e-32 -3.1720657846433064e-16 3.1720657846433064e-16 2.2204460492503131e-16 1 14
2 0 70 -1.5543122344752192e-14 -0 -1 2.2204460492503131e-16 1 -2.4651903288156641e-31 -1.1102230246251575e-15 1.1102230246251575e-15 2.2204460492503131e-16 1 14
1 14 20 0 0 1 0 
1 14 70 0 -0.61394061351492046 0.78935221737632633 0 
2 0 90 -1.9984014443252818e-14 -0 -1 2.2204460492503131e-16 1 -2.773339119917617e-31 -1.2490009027032999e-15 1.2490009027032999e-15 2.2204460492503131e-16 1 16
1 16 90 0 0 -1 0 
Polygon3D 0
PolygonOnTriangulations 0
Surfaces 8
1 0 0 0 -0 -1 2.2204460492503131e-16 1 0 0 -0 2.2204460492503131e-16 1 
2 0 90 -1.9984014443252818e-14 -0 -1 2.2204460492503131e-16 1 -2.7733391199176161e-31 -1.2490009027032995e-15 1.2490009027032995e-15 2.2204460492503131e-16 1 16
2 0 0 0 0 1 -2.2204460492503131e-16 1 0 0 -0 2.2204460492503131e-16 1 11
2 0 2 -4.4408920985006262e-16 0 1 -2.2204460492503131e-16 1 -8.9643284684205766e-33 -4.0371746350005638e-17 4.0371746350005638e-17 2.2204460492503131e-16 1 11
1 0 20 -4.4408920985006262e-15 -0 -1 2.2204460492503131e-16 -1 8.9643284684205764e-32 4.0371746350005637e-16 4.0371746350005637e-16 2.2204460492503131e-16 1 
2 0 20 -4.4408920985006262e-15 0 1 -2.2204460492503131e-16 1 -7.04340093947331e-32 -3.1720657846433e-16 3.1720657846433e-16 2.2204460492503131e-16 1 14
3 0 70 -1.5543122344752192e-14 0 1 -2.2204460492503131e-16 1 -2.4651903288156588e-31 -1.1102230246251552e-15 1.1102230246251552e-15 2.2204460492503131e-16 1 14
-0.66104316885068692
1 0 90 -1.9984014443252818e-14 -0 -1 2.2204460492503131e-16 -1 2.7733391199176161e-31 1.2490009027032995e-15 1.2490009027032995e-15 2.2204460492503131e-16 1 
Triangulations 0

TShapes 41
Ve
1e-07
16 0 0
0 0

0101101
*
Ed
 1e-07 1 1 0
1  1 0 0 6.28318530717959
2  1 1 0 0 6.28318530717959
2  2 2 0 0 6.28318530717959
0

0101100
+41 3 -41 3 *
Wi

0101000
+40 0 *
Ve
1e-07
11 0 0
0 0

0101101
*
Ed
 1e-07 1 1 0
1  2 0 0 6.28318530717959
2  3 1 0 0 6.28318530717959
2  4 3 0 0 6.28318530717959
0

0101100
+38 3 -38 3 *
Wi

0101000
-37 0 *
Fa
0  1e-07 1 0

0111000
+39 0 +36 0 *
Ve
1e-07
11 1.33226762955019e-15 2
0 0

0101101
*
Ed
 1e-07 1 1 0
1  3 0 0 6.28318530717959
2  5 3 0 0 6.28318530717959
2  6 4 0 0 6.28318530717959
4 C2 3 0 4 0
0

0101100
+34 3 -34 3 *
Ed
 1e-07 1 1 0
1  4 0 0 2
3  7 8CN 3 7 0 2
0

0101000
+38 8 -34 8 *
Wi

0101000
+37 0 -33 0 -32 6 +32 6 *
Fa
0  1e-07 3 0

0111000
+31 0 *
Ve
1e-07
11 1.33226762955019e-14 20
0 0

0101101
*
Ed
 1e-07 1 1 0
1  5 0 0 6.28318530717959
2  9 4 0 0 6.28318530717959
2  10 5 0 0 6.28318530717959
0

0101100
+29 3 -29 3 *
Ed
 1e-07 1 1 0
1  6 0 0 18
3  11 12CN 4 7 0 18
0

0101000
+34 8 -29 8 *
Wi

0101000
+33 0 -28 0 -27 6 +27 6 *
Fa
0  1e-07 4 0

0111000
+26 0 *
Wi

0101000
+28 0 *
Ve
1e-07
14 1.33226762955019e-14 20
0 0

0101101
*
Ed
 1e-07 1 1 0
1  7 0 0 6.28318530717959
2  13 5 0 0 6.28318530717959
2  14 6 0 0 6.28318530717959
0

0101100
+23 3 -23 3 *
Wi

0101000
-22 0 *
Fa
0  1e-07 5 0

0111000
+24 0 +21 0 *
Ve
1e-07
14 4.66293670342566e-14 70
0 0

0101101
*
Ed
 1e-07 1 1 0
1  8 0 0 6.28318530717959
2  15 6 0 0 6.28318530717959
2  16 7 0 0 6.28318530717959
0

0101100
+19 3 -19 3 *
Ed
 1e-07 1 1 0
1  9 0 0 50
3  17 18CN 6 7 0 50
0

0101000
+23 8 -19 8 *
Wi

0101000
+22 0 -18 0 -17 6 +17 6 *
Fa
0  1e-07 6 0

0111000
+16 0 *
Ve
1e-07
0 5.86197757002083e-14 88
0 0

0101101
*
Ed
 1e-07 1 1 1
2  19 7 0 0 6.28318530717959
0

0101100
+14 3 -14 3 *
Ed
 1e-07 1 1 0
1  10 0 0 22.8035085019828
3  20 21CN 7 7 0 22.8035085019828
0

0101000
+19 8 -14 8 *
Wi

0101000
+18 0 -13 0 -12 6 +12 6 *
Fa
0  1e-07 7 0

0111000
+11 0 *
Ve
1e-07
16 5.99520433297584e-14 90
0 0

0101101
*
Ed
 1e-07 1 1 0
1  11 0 0 6.28318530717959
2  22 8 0 0 6.28318530717959
2  23 2 0 0 6.28318530717959
0

0101100
+9 3 -9 3 *
Wi

0101000
-8 0 *
Fa
0  1e-07 8 0

0111000
+7 0 *
Ed
 1e-07 1 1 0
1  12 0 0 90
3  24 25CN 2 7 0 90
0

0101000
+9 8 -41 8 *
Wi

0101000
+8 0 -40 0 -5 6 +5 6 *
Fa
0  1e-07 2 0

0111000
+4 0 *
Sh

0101000
-35 0 -30 0 -25 0 -20 0 -15 0 -10 0 -6 0 -3 0 *
So

1100000
-2 0 *

+1 1 