DBRep_DrawableShape

CASCADE Topology V1, (c) Matra-Datavision
Locations 67
1
              1               0               0               0 
              0               1               0               0 
              0               0               1               0 
1
              1               0              -0               0 
             -0 2.22044604925031e-16              -1               0 
              0               1 2.22044604925031e-16               0 
1
              1               0               0               0 
              0 -2.22044604925031e-16              -1               0 
              0               1 -2.22044604925031e-16               0 
1
              1               0              -0               0 
             -0 2.22044604925031e-16              -1               0 
              0               1 2.22044604925031e-16               0 
1
              1               0               0               0 
              0 -2.22044604925031e-16              -1               0 
              0               1 -2.22044604925031e-16               0 
1
              1               0              -0               0 
             -0 2.22044604925031e-16              -1               0 
              0               1 2.22044604925031e-16               0 
1
              1               0               0               0 
              0 -2.22044604925031e-16              -1               0 
              0               1 -2.22044604925031e-16               0 
1
              1               0              -0               0 
             -0 2.22044604925031e-16              -1               0 
              0               1 2.22044604925031e-16               0 
1
              1               0               0               0 
              0 -2.22044604925031e-16              -1               0 
              0               1 -2.22044604925031e-16               0 
1
              1               0               0               0 
              0               1               0               0 
              0               0               1               0 
1
              1               0               0               0 
              0               1               0               0 
              0               0               1               0 
1
              1               0               0               0 
              0               1               0               0 
              0               0               1               0 
1
              1               0               0               0 
              0               1               0               0 
              0               0               1               0 
1
              1               0               0               0 
              0               1               0               0 
              0               0               1               0 
1
              1               0               0               0 
              0               1               0               0 
              0               0               1               0 
1
              1               0              -0               0 
             -0 2.22044604925031e-16              -1               0 
              0               1 2.22044604925031e-16               0 
2  2 1 3 -1 4 1 5 -1 6 1 7 -1 8 1 9 -1 10 1 11 1 12 1 13 1 14 1 15 1 16 1 0
2  12 1 13 1 14 1 15 1 16 1 0
2  2 1 3 -1 4 1 5 -1 6 1 7 -1 8 1 9 -1 10 1 11 1 0
2  1 -1 16 -1 15 -1 14 -1 13 -1 12 -1 0
1
              1               0              -0               0 
             -0 2.22044604925031e-16              -1               0 
              0               1 2.22044604925031e-16               0 
1
              1               0               0               0 
              0 -2.22044604925031e-16              -1               0 
              0               1 -2.22044604925031e-16               0 
2  21 1 22 -1 2 1 3 -1 4 1 5 -1 6 1 7 -1 8 1 9 -1 10 1 11 1 12 1 13 1 14 1 15 1 16 1 0
2  22 1 21 -1 0
2  1 -1 16 -1 15 -1 14 -1 13 -1 12 -1 11 -1 10 -1 9 1 8 -1 7 1 6 -1 5 1 4 -1 3 1 2 -1 22 1 21 -1 0
1
              1               0               0              30 
              0               1               0             -50 
              0               0               1             -50 
2  1 -1 0
2  15 -1 14 -1 13 -1 12 -1 11 -1 10 -1 9 1 8 -1 7 1 6 -1 5 1 4 -1 3 1 2 -1 0
2  2 1 3 -1 4 1 5 -1 6 1 7 -1 8 1 9 -1 10 1 11 1 12 1 13 1 14 1 15 1 0
2  1 -1 16 -1 0
2  11 -1 10 -1 9 1 8 -1 7 1 6 -1 5 1 4 -1 3 1 2 -1 0
2  4 1 5 -1 6 1 7 -1 8 1 9 -1 10 1 11 1 12 1 13 1 14 1 15 1 16 1 0
2  2 1 3 -1 0
2  15 -1 14 -1 13 -1 12 -1 11 -1 10 -1 9 1 8 -1 7 1 6 -1 5 1 4 -1 0
2  21 1 22 -1 2 1 3 -1 4 1 5 -1 6 1 7 -1 8 1 9 -1 10 1 11 1 12 1 13 1 14 1 15 1 0
2  12 1 13 1 14 1 15 1 0
2  3 -1 4 1 5 -1 6 1 7 -1 8 1 9 -1 10 1 11 1 0
2  3 -1 0
2  11 -1 10 -1 9 1 8 -1 7 1 6 -1 5 1 4 -1 0
2  10 -1 9 1 8 -1 7 1 6 -1 5 1 4 -1 0
1
2.22044604925031e-16               0              -1               0 
              0              -1               0              -0 
             -1               0 -2.22044604925031e-16              -0 
2  41 1 3 -1 4 1 5 -1 6 1 7 -1 8 1 9 -1 10 1 0
2  41 -1 0
2  3 1 41 -1 0
2  1 -1 16 -1 15 -1 14 -1 13 -1 12 -1 11 -1 10 -1 9 1 8 -1 7 1 6 -1 5 1 4 -1 3 1 41 -1 0
2  3 -1 4 1 5 -1 6 1 7 -1 8 1 9 -1 10 1 0
2  1 -1 16 -1 15 -1 14 -1 13 -1 12 -1 11 -1 0
2  4 1 5 -1 6 1 7 -1 8 1 9 -1 10 1 0
1
              1               0               0             -25 
              0               1               0 -5.55111512312578e-15 
              0               0               1 1.23259516440783e-30 
2  41 1 3 -1 49 1 4 1 5 -1 6 1 7 -1 8 1 9 -1 10 1 0
2  49 -1 3 1 41 -1 0
2  1 -1 16 -1 15 -1 14 -1 13 -1 12 -1 11 -1 10 -1 9 1 8 -1 7 1 6 -1 5 1 4 -1 49 -1 3 1 41 -1 0
2  11 1 12 1 13 1 14 1 15 1 16 1 0
2  3 -1 49 1 4 1 5 -1 6 1 7 -1 8 1 9 -1 10 1 0
2  6 1 7 -1 8 1 9 -1 10 1 11 1 12 1 13 1 14 1 15 1 16 1 0
2  3 -1 49 1 4 1 5 -1 0
2  13 -1 12 -1 11 -1 10 -1 9 1 8 -1 7 1 6 -1 0
2  3 -1 49 1 4 1 5 -1 6 1 7 -1 8 1 9 -1 10 1 11 1 12 1 13 1 0
2  1 -1 16 -1 15 -1 14 -1 0
2  10 -1 9 1 8 -1 7 1 6 -1 0
2  14 1 15 1 16 1 0
2  6 1 7 -1 8 1 9 -1 10 1 11 1 12 1 13 1 0
2  1 -1 16 -1 15 -1 14 -1 13 -1 12 -1 11 -1 10 -1 9 1 8 -1 7 1 6 -1 0
1
              1               0               0             -15 
              0               1               0 -3.33066907387547e-15 
              0               0               1 2.2186712959341e-30 
2  5 -1 64 1 6 1 7 -1 8 1 9 -1 10 1 11 1 12 1 13 1 0
2  5 -1 64 1 6 1 7 -1 8 1 9 -1 10 1 11 1 12 1 13 1 14 1 15 1 16 1 0
2  13 -1 12 -1 11 -1 10 -1 9 1 8 -1 7 1 6 -1 64 -1 5 1 0
Curve2ds 86
1 0 5.9999999999999982 1 0 
1 0 3.1415926535897931 1 0 
1 6.2831853071795862 0 0 1 
1 0 0 0 1 
1 0 14.999999999999998 1 0 
2 50 -50 1 -2.4424906541753416e-15 2.4424906541753416e-15 1 14.999999999999995
8 1.5707963267948966 3.1415926535897931
1 6.2831853071795862 0 0 1 
8 1.5707963267948966 3.1415926535897931
1 0 0 0 1 
1 0 1.5707963267948966 1 0 
2 0 0 1 0 -0 1 20.999999999999986
2 0 0 1 -4.3523360288055832e-31 4.3523360288055832e-31 1 28.999999999999996
1 0 4.7123889803846897 1 0 
8 4.7123889803846897 6.2831853071795862
1 6.2831853071795862 0 0 1 
8 4.7123889803846897 6.2831853071795862
1 0 0 0 1 
1 0 6.2831853071795862 1 0 
1 0 1 1 0 
1 6.2831853071795862 0 0 1 
1 0 0 0 1 
1 0 9.000000000000016 1 0 
1 0 3.1415926535897931 1 0 
8 1.5707963267948966 3.1415926535897931
1 6.2831853071795862 0 0 1 
8 1.5707963267948966 3.1415926535897931
1 0 0 0 1 
1 0 1.5707963267948966 1 0 
2 37.499999999999986 -37.499999999999986 -1 -5.9211894646675042e-16 -5.9211894646675042e-16 1 35.999999999999986
1 0 0 1 0 
1 0 0 1 3.944304526105059e-31 
2 9.9999999999999982 -9.9999999999999982 1 -1.5543122344752192e-15 1.5543122344752192e-15 1 10
1 -1.5707963267948981 7.8886090522101181e-31 1 0 
2 64.999999999999972 -10.000000000000002 1 -1.5543122344752192e-15 -1.5543122344752192e-15 -1 10
1 -4.712388980384687 4.437342591868197e-30 1 0 
1 -5.3290705182007009e-15 -74.999999999999972 0 1 
1 0 0 1 0 
1 74.999999999999972 -5.3290705182007009e-15 0 -1 
1 0 0 1 0 
2 9.9999999999999947 -64.999999999999972 1 -1.5543122344752192e-15 1.5543122344752192e-15 1 10
1 -3.1415926535897949 -2.9582283945786682e-31 1 0 
2 64.999999999999972 -64.999999999999972 1 -1.5543122344752192e-15 -1.5543122344752192e-15 -1 10
1 1.5543122344752192e-15 2.4454688061851366e-29 1 0 
1 74.999999999999972 -74.999999999999972 -1 0 
1 0 0 1 -3.944304526105059e-31 
1 10 7.888609052210062e-31 -2.958228394578789e-31 -1 
1 0 0 0 1 
1 64.999999999999972 2.3665827156630318e-29 -2.958228394578789e-31 -1 
1 0 0 0 1 
1 1.5543122344752121e-15 -25.000000000000011 1 3.944304526105059e-31 
1 0 0 1 0 
1 1.5707963267948966 0 0 1 
1 64.999999999999972 -3.4512664603417024e-31 0 -1 
1 -1.5707963267948981 25.000000000000011 1 0 
2 9.9999999999999982 -9.9999999999999982 1 -1.5543122344752192e-15 1.5543122344752192e-15 1 10
1 1.5707963267948966 0 0 1 
1 9.9999999999999964 2.9582283945787522e-31 0 -1 
1 -4.7123889803846861 25.000000000000011 1 0 
2 64.999999999999972 -10.000000000000002 1 -1.5543122344752192e-15 -1.5543122344752192e-15 -1 10
1 10 -2.9582283945787662e-31 0 -1 
1 0 0 0 1 
1 -1.2621774483536189e-29 -25.000000000000011 1 0 
1 -5.3290705182007009e-15 -74.999999999999972 0 1 
1 64.999999999999972 3.4512664603417024e-31 0 -1 
1 0 0 0 1 
1 1.2621774483536189e-29 -25.000000000000011 1 0 
1 74.999999999999972 -5.3290705182007009e-15 0 -1 
1 1.5707963267948966 0 0 1 
1 64.999999999999972 -2.3665827156630318e-29 2.958228394578789e-31 -1 
1 -3.1415926535897949 25.000000000000011 1 0 
2 9.9999999999999947 -64.999999999999972 1 -1.5543122344752192e-15 1.5543122344752192e-15 1 10
1 1.5707963267948966 0 0 1 
1 9.9999999999999964 -1.577721810442018e-30 2.958228394578789e-31 -1 
1 1.5543122344752192e-15 25.000000000000011 1 0 
2 64.999999999999972 -64.999999999999972 1 -1.5543122344752192e-15 -1.5543122344752192e-15 -1 10
1 -1.5543122344752121e-15 -25.000000000000011 1 -3.944304526105059e-31 
1 74.999999999999972 -74.999999999999972 -1 0 
2 37.499999999999986 -37.499999999999986 1 -4.5069270299779858e-16 4.5069270299779858e-16 1 31.531139999999994
1 0 1.5707963267948966 1 0 
8 1.5707963267948966 3.1415926535897931
1 6.2831853071795862 0 0 1 
8 1.5707963267948966 3.1415926535897931
1 -4.5897351501608438e-47 0 0 1 
1 0 3.1415926535897931 1 0 
1 4.5897351501608438e-47 -1.0000000000000036 1 0 
1 0 0 0 -1 
1 6.2831853071795862 0 0 -1 
1 4.5897351501608428e-47 -14 1 0 
1 0 0 1 0 
8 0 1.5707963267948966
1 6.2831853071795862 0 0 1 
8 0 1.5707963267948966
1 -4.5897351501608428e-47 0 0 1 
1 0 1.5707963267948966 1 0 
2 30.531139999999994 -1.7610021288969323e-30 -1 2.7333483809514391e-31 2.7333483809514391e-31 1 29.531139999999994
Curves 43
2 21.000000000000007 0 0 1 -0 0 0 1 -2.2204460492503131e-15 0 2.2204460492503131e-15 1 14.999999999999988
1 15 14.999999999999996 0 1 0 0 
2 30 0 0 1 0 0 -0 2.4424906541753416e-15 1 0 -1 2.4424906541753416e-15 14.999999999999995
2 21.000000000000007 20.999999999999986 -4.6629367034256543e-14 0 2.2204460492503131e-15 1 0 1 -2.2204460492503131e-15 -1 0 0 6
2 15.000000000000009 0 0 1 -0 0 0 1 -2.2204460492503131e-15 0 2.2204460492503131e-15 1 20.999999999999986
2 15.000000000000002 0 0 1 -0 0 0 1 -2.2204460492503107e-15 0 2.2204460492503107e-15 1 28.999999999999996
2 14.000000000000002 28.999999999999996 -6.4392935428259004e-14 0 2.2204460492503107e-15 1 0 1 -2.2204460492503107e-15 -1 0 0 1
2 14.000000000000002 0 0 1 -0 0 0 1 -2.2204460492503107e-15 0 2.2204460492503107e-15 1 29.999999999999996
1 15 30 0 -1 0 0 
2 6 1.3322676295501886e-15 -2.0707598762051574e-30 1 2.2204460492503146e-16 -3.4512664603419288e-31 -2.2204460492503146e-16 1 -2.2204460492503135e-15 -1.4791141972893993e-31 2.2204460492503135e-15 1 29.999999999999982
2 5.999999999999992 35.999999999999986 -7.9936057773011258e-14 -1.4791141972893993e-31 2.2204460492503135e-15 1 -2.2204460492503146e-16 1 -2.2204460492503135e-15 -1 -2.2204460492503146e-16 3.4512664603419288e-31 6
2 0 0 0 1 2.2204460492503146e-16 -3.4512664603419288e-31 -2.2204460492503146e-16 1 -2.2204460492503135e-15 -1.4791141972893993e-31 2.2204460492503135e-15 1 35.999999999999986
1 -37.5 37.5 0 1 0 0 
8 1.5707963267948981 3.1415926535897958
2 -6.1062266354383665e-15 27.500000000000028 27.499999999999947 -1 -2.2204460492503116e-16 3.4512664603419245e-31 2.2204460492503116e-16 -1 0 3.4512664603419245e-31 7.6633509767763336e-47 1 10
8 4.712388980384687 6.2831853071795845
2 6.106226635438342e-15 -27.499999999999947 27.500000000000028 1 2.2204460492503116e-16 -3.4512664603419245e-31 2.2204460492503116e-16 -1 0 -3.4512664603419245e-31 -7.6633509767763336e-47 -1 10
1 -37.5 -37.5 0 0 1 0 
1 37.5 37.5 0 0 -1 0 
8 3.1415926535897944 4.7123889803846923
2 -6.1062266354383673e-15 27.499999999999947 -27.500000000000028 -1 -2.2204460492503116e-16 3.4512664603419245e-31 2.2204460492503116e-16 -1 0 3.4512664603419245e-31 7.6633509767763336e-47 1 10
8 -2.6645352591003757e-15 1.5707963267948948
2 6.1062266354383413e-15 -27.500000000000028 -27.499999999999947 1 2.2204460492503116e-16 -3.4512664603419245e-31 2.2204460492503116e-16 -1 0 -3.4512664603419245e-31 -7.6633509767763336e-47 -1 10
1 37.5 -37.5 0 -1 0 0 
1 -6.1062266354383657e-15 27.500000000000043 37.499999999999943 -1 -2.2204460492503116e-16 3.4512664603419245e-31 
1 6.1062266354383657e-15 -27.499999999999932 37.500000000000028 -1 -2.2204460492503116e-16 3.4512664603419245e-31 
1 -37.5 37.5 0 1 0 0 
1 -8.3266726846886772e-15 37.500000000000028 27.499999999999932 -1 -2.2204460492503116e-16 3.4512664603419245e-31 
8 1.5707963267948983 3.1415926535897958
2 -25.000000000000018 27.500000000000021 27.499999999999947 -1 -2.2204460492503116e-16 3.4512664603419245e-31 2.2204460492503116e-16 -1 0 3.4512664603419245e-31 7.6633509767763336e-47 1 10
1 8.3266726846886772e-15 -37.499999999999943 27.500000000000046 -1 -2.2204460492503116e-16 3.4512664603419245e-31 
8 4.7123889803846861 6.2831853071795845
2 -25.000000000000004 -27.499999999999954 27.500000000000028 1 2.2204460492503116e-16 -3.4512664603419245e-31 2.2204460492503116e-16 -1 0 -3.4512664603419245e-31 -7.6633509767763336e-47 -1 10
1 -8.3266726846886772e-15 37.499999999999943 -27.500000000000043 -1 -2.2204460492503116e-16 3.4512664603419245e-31 
1 -37.5 -37.5 0 0 1 0 
1 8.3266726846886772e-15 -37.500000000000028 -27.499999999999932 -1 -2.2204460492503116e-16 3.4512664603419245e-31 
1 37.5 37.5 0 0 -1 0 
1 -6.1062266354383657e-15 27.499999999999932 -37.500000000000028 -1 -2.2204460492503116e-16 3.4512664603419245e-31 
8 3.1415926535897944 4.7123889803846923
2 -25.000000000000018 27.49999999999994 -27.500000000000028 -1 -2.2204460492503116e-16 3.4512664603419245e-31 2.2204460492503116e-16 -1 0 3.4512664603419245e-31 7.6633509767763336e-47 1 10
1 6.1062266354383657e-15 -27.500000000000046 -37.499999999999943 -1 -2.2204460492503116e-16 3.4512664603419245e-31 
8 -2.6645352591003757e-15 1.5707963267948948
2 -25.000000000000004 -27.500000000000036 -27.499999999999947 1 2.2204460492503116e-16 -3.4512664603419245e-31 2.2204460492503116e-16 -1 0 -3.4512664603419245e-31 -7.6633509767763336e-47 -1 10
1 37.5 -37.5 0 -1 0 0 
2 -25.000000000000011 -7.1054273576010019e-15 0 -1 -2.2204460492503146e-16 3.4512664603419288e-31 2.2204460492503146e-16 -1 1.1102230246251567e-15 9.8607613152626476e-32 1.1102230246251567e-15 1 31.531139999999994
2 -26.000000000000004 -31.531140000000001 3.5006597620679257e-14 9.8607613152626476e-32 1.1102230246251567e-15 1 2.2204460492503146e-16 -1 1.1102230246251567e-15 1 2.2204460492503146e-16 -3.4512664603419288e-31 1
2 -26.000000000000011 -7.3274719625260332e-15 3.4512664603419288e-31 -1 -2.2204460492503146e-16 3.4512664603419288e-31 2.2204460492503146e-16 -1 1.1102230246251567e-15 9.8607613152626476e-32 1.1102230246251567e-15 1 30.531139999999994
1 -24.999999999999996 -30.531140000000008 6.7792749192108245e-15 -1 -2.2204460492503131e-16 1.4791141972893969e-31 
2 -39.000000000000007 -1.0425413815681903e-14 1.2446783155998488e-29 -1 -2.327272207195998e-16 1.7499132753770048e-31 2.327272207195998e-16 -1 1.1102230246251567e-15 -8.3387791362220046e-32 1.1102230246251567e-15 1 30.531139999999994
2 -39 -29.531140000000004 3.2786151571428957e-14 8.3387791362220046e-32 -1.1102230246251567e-15 -1 2.327272207195998e-16 -1 1.1102230246251567e-15 -1 -2.327272207195998e-16 1.7499132753770048e-31 1
2 -40.000000000000007 -1.0658141036401503e-14 1.2621774483536189e-29 -1 -2.327272207195998e-16 1.7499132753770048e-31 2.327272207195998e-16 -1 1.1102230246251567e-15 -8.3387791362220046e-32 1.1102230246251567e-15 1 29.531139999999994
Polygon3D 0
PolygonOnTriangulations 0
Surfaces 21
2 15.000000000000002 0 0 1 0 0 0 1 -4.4408920985006262e-16 -0 4.4408920985006262e-16 1 14.999999999999995
5 21.000000000000007 0 0 -1 0 -0 0 1 -2.2204460492503131e-15 -0 2.2204460492503131e-15 1 20.999999999999986 6
1 0 0 0 1 0 -0 0 0 1 0 -1 0 
1 15.000000000000002 0 0 1 0 0 0 1 -4.4408920985006262e-16 -0 4.4408920985006262e-16 1 
5 14.000000000000002 0 0 -1 0 -0 0 1 -2.2204460492503107e-15 -0 2.2204460492503107e-15 1 28.999999999999996 1
2 15.000000000000002 0 0 -1 -0 -0 0 1 -4.4408920985006262e-16 -0 4.4408920985006262e-16 1 29.999999999999996
5 6 1.3322676295501886e-15 -2.0707598762051574e-30 -1 -2.2204460492503146e-16 3.4512664603419288e-31 -2.2204460492503146e-16 1 -2.2204460492503135e-15 -1.4791141972893993e-31 2.2204460492503135e-15 1 35.999999999999986 6
1 -8.3266726846886741e-15 -37.5 37.5 -1 0 -2.2204460492503131e-16 2.2204460492503131e-16 0 -1 0 -1 -0 
1 -8.3266726846886741e-15 37.500000000000007 37.499999999999993 0 2.2204460492503131e-16 1 2.2204460492503131e-16 -1 2.2204460492503131e-16 1 2.2204460492503131e-16 -4.9303806576313238e-32 
2 -6.1062266354383657e-15 27.500000000000028 27.499999999999947 -1 -2.2204460492503116e-16 3.4512664603419245e-31 0 1.5543122344752192e-15 1 -2.2204460492503116e-16 1 -1.5543122344752192e-15 10
2 6.1062266354383657e-15 -27.499999999999947 27.500000000000028 -1 -2.2204460492503116e-16 3.4512664603419245e-31 0 1.5543122344752192e-15 1 2.2204460492503116e-16 -1 1.5543122344752192e-15 10
1 -8.3266726846886741e-15 37.499999999999993 -37.500000000000007 -2.2204460492503131e-16 1 -2.2204460492503131e-16 0 2.2204460492503131e-16 1 1 2.2204460492503131e-16 -4.9303806576313238e-32 
1 8.3266726846886741e-15 -37.499999999999993 37.500000000000007 2.2204460492503131e-16 -1 2.2204460492503131e-16 0 -2.2204460492503131e-16 -1 1 2.2204460492503131e-16 -4.9303806576313238e-32 
2 -6.1062266354383657e-15 27.499999999999947 -27.500000000000028 -1 -2.2204460492503116e-16 3.4512664603419245e-31 -2.2204460492503116e-16 1 -1.5543122344752192e-15 0 -1.5543122344752192e-15 -1 10
2 6.1062266354383657e-15 -27.500000000000028 -27.499999999999947 -1 -2.2204460492503116e-16 3.4512664603419245e-31 2.2204460492503116e-16 -1 1.5543122344752192e-15 -0 -1.5543122344752192e-15 -1 10
1 8.3266726846886741e-15 -37.500000000000007 -37.499999999999993 0 -2.2204460492503131e-16 -1 -2.2204460492503131e-16 1 -2.2204460492503131e-16 1 2.2204460492503131e-16 -4.9303806576313238e-32 
1 -8.3266726846886741e-15 -37.5 37.5 -1 0 -2.2204460492503131e-16 2.2204460492503131e-16 0 -1 0 -1 -0 
5 -26.000000000000011 -7.3274719625260332e-15 3.4512664603419288e-31 1 2.2204460492503146e-16 -3.4512664603419288e-31 2.2204460492503146e-16 -1 1.1102230246251567e-15 9.8607613152626476e-32 1.1102230246251567e-15 1 31.531139999999994 1
2 -25.000000000000004 -5.5511151231257819e-15 3.6977854932234921e-30 1 2.2204460492503131e-16 -1.4791141972893969e-31 2.2204460492503131e-16 -1 2.2204460492503131e-16 9.8607613152626454e-32 2.2204460492503131e-16 1 30.531140000000001
5 -39.000000000000007 -1.0425413815681903e-14 1.2446783155998488e-29 -1 -2.327272207195998e-16 1.7499132753770048e-31 2.327272207195998e-16 -1 1.1102230246251567e-15 -8.3387791362220046e-32 1.1102230246251567e-15 1 29.531139999999994 1
1 -24.999999999999996 -2.4651903288156612e-30 -30.531140000000008 1 -8.3387791362219969e-32 2.327272207195997e-16 -2.327272207195997e-16 0 1 -8.3387791362219969e-32 -1 -1.9406608925675297e-47 
Triangulations 0

TShapes 118
Ve
1e-07
21 3.66373598126301e-14 15
0 0

0101101
*
Ed
 1e-07 1 1 0
1  1 0 0 6.28318530717959
2  1 1 19 0 6.28318530717959
2  2 2 0 0 6.28318530717959
4 G1 1 19 2 0
0

0101100
+118 20 -118 20 *
Ve
2.00001e-07
30 3.66373598126301e-14 15
0 0

0101101
*
Ed
 1e-07 1 1 0
1  2 0 6 15
3  3 4CN 1 24 6 15
0

0101000
+118 25 -116 25 *
Ed
 1e-07 1 1 0
1  3 0 0 6.28318530717959
2  5 1 17 0 6.28318530717959
2  6 3 26 0 6.28318530717959
0

0101000
+116 27 -116 27 *
Wi

0101000
+117 18 -115 23 -114 0 +115 23 *
Fa
0  1e-07 1 17

0111000
+113 0 *
Ve
1e-07
15 5.12923037376822e-14 21
0 0

0101101
*
Ed
 1e-07 1 1 0
1  4 0 1.5707963267949 3.14159265358979
3  7 8CN 2 0 1.5707963267949 3.14159265358979
0

0101000
+111 20 -118 20 *
Ed
 1e-07 1 1 0
1  5 0 0 6.28318530717959
2  9 2 0 0 6.28318530717959
2  10 4 19 0 6.28318530717959
4 G1 2 0 4 19
0

0101100
+111 20 -111 20 *
Wi

0101100
-110 0 +109 0 -117 0 +110 0 *
Fa
0  1e-07 2 0

0111000
+108 0 *
Wi

0101000
+114 0 *
Fa
0  1e-07 3 26

0111000
+106 0 *
Ve
1e-07
15 7.08322289710849e-14 29
0 0

0101101
*
Ed
 1e-07 1 1 0
1  6 0 0 6.28318530717959
2  11 4 29 0 6.28318530717959
2  12 5 0 0 6.28318530717959
4 G1 4 29 5 0
0

0101000
+104 30 -104 30 *
Wi

0101100
+103 0 *
Wi

0101100
-109 0 *
Fa
0  1e-07 4 0

0111000
+102 28 +101 31 *
Ve
1e-07
14 7.32747196252603e-14 30
0 0

0101101
*
Ed
 1e-07 1 1 0
1  7 0 4.71238898038469 6.28318530717959
3  13 14CN 5 0 4.71238898038469 6.28318530717959
0

0101000
+104 30 -99 30 *
Ed
 1e-07 1 1 0
1  8 0 0 6.28318530717959
2  15 5 0 0 6.28318530717959
2  16 6 29 0 6.28318530717959
4 G1 5 0 6 29
0

0101000
+99 30 -99 30 *
Wi

0101100
-98 0 +103 0 -97 0 +98 0 *
Fa
0  1e-07 5 0

0111000
+96 0 *
Ve
1e-07
5.99999999999999 7.32747196252603e-14 30
0 0

0101101
*
Ed
 1e-07 1 1 0
1  9 0 1 9.00000000000002
3  17 18CN 6 24 1 9.00000000000002
0

0101000
+99 25 -94 25 *
Ed
 1e-07 1 1 0
1  10 0 0 6.28318530717959
2  19 6 19 0 6.28318530717959
2  20 7 0 0 6.28318530717959
4 G1 6 19 7 0
0

0101100
+94 20 -94 20 *
Wi

0101100
-93 35 +97 0 -92 36 +93 35 *
Fa
0  1e-07 6 33

0111000
+91 34 *
Ve
1e-07
-7.99360577730113e-15 8.79296635503124e-14 36
0 0

0101101
*
Ed
 1e-07 1 1 0
1  11 0 1.5707963267949 3.14159265358979
3  21 22CN 7 0 1.5707963267949 3.14159265358979
0

0101000
+89 20 -94 20 *
Ed
 1e-07 1 1 0
1  12 0 0 6.28318530717959
2  23 7 0 0 6.28318530717959
2  24 8 37 0 6.28318530717959
4 G1 7 0 8 37
0

0101100
+89 20 -89 20 *
Wi

0101100
-88 0 +87 0 -92 0 +88 0 *
Fa
0  1e-07 7 0

0111000
+86 0 *
Wi

0101100
+87 0 *
Ve
1e-07
-6.10622663543836e-15 -37.4999999999999 27.5
0 0

0101101
*
Ve
1e-07
6.10622663543836e-15 -37.5 -27.4999999999999
0 0

0101101
*
Ed
 1e-07 1 1 0
1  13 0 10 65
2  25 8 43 10 65
2  26 9 44 10 65
0

0101000
+83 45 -82 45 *
Ve
1e-07
-8.32667268468868e-15 -27.4999999999999 37.5
0 0

0101101
*
Ed
 1e-07 1 1 0
1  14 0 1.5707963267949 3.1415926535898
2  27 8 46 1.5707963267949 3.1415926535898
2  28 10 0 1.5707963267949 3.1415926535898
0

0101000
+83 47 -80 47 *
Ve
1e-07
8.32667268468868e-15 -27.5 -37.4999999999999
0 0

0101101
*
Ed
 1e-07 1 1 0
1  15 0 4.71238898038469 6.28318530717958
2  29 8 46 4.71238898038469 6.28318530717958
2  30 11 0 4.71238898038469 6.28318530717958
0

0101000
+82 47 -78 47 *
Ve
1e-07
-8.32667268468868e-15 27.5 37.4999999999999
0 0

0101101
*
Ed
 1e-07 1 1 0
1  16 0 9.99999999999997 64.9999999999999
2  31 8 43 9.99999999999997 64.9999999999999
2  32 12 44 9.99999999999997 64.9999999999999
0

0101000
+76 45 -80 45 *
Ve
1e-07
8.32667268468868e-15 27.4999999999999 -37.5
0 0

0101101
*
Ed
 1e-07 1 1 0
1  17 0 10 65
2  33 8 43 10 65
2  34 13 44 10 65
0

0101000
+78 45 -74 45 *
Ve
1e-07
-6.10622663543836e-15 37.5 27.4999999999999
0 0

0101101
*
Ed
 1e-07 1 1 0
1  18 0 3.14159265358979 4.71238898038469
2  35 8 46 3.14159265358979 4.71238898038469
2  36 14 0 3.14159265358979 4.71238898038469
0

0101000
+76 47 -72 47 *
Ve
1e-07
6.10622663543836e-15 37.4999999999999 -27.5
0 0

0101101
*
Ed
 1e-07 1 1 0
1  19 0 -2.66453525910038e-15 1.57079632679489
2  37 8 46 -2.66453525910038e-15 1.57079632679489
2  38 15 0 -2.66453525910038e-15 1.57079632679489
0

0101000
+74 47 -70 47 *
Ed
 1e-07 1 1 0
1  20 0 9.99999999999997 64.9999999999999
2  39 8 43 9.99999999999997 64.9999999999999
2  40 16 44 9.99999999999997 64.9999999999999
0

0101000
+70 45 -72 45 *
Wi

0101100
-81 42 +79 0 -77 0 -75 42 -73 42 +71 0 -69 0 -68 42 *
Fa
0  1e-07 8 38

0111000
+84 39 +67 40 *
Ve
1e-07
-25 -37.4999999999999 27.5
0 0

0101101
*
Ed
 1e-07 1 1 0
1  21 0 -2.16936748935778e-30 25
2  41 9 48 -2.16936748935778e-30 25
2  42 10 0 -2.16936748935778e-30 25
4 G1 9 48 10 0
0

0101000
+83 47 -65 47 *
Ve
1e-07
-25 -37.5 -27.4999999999999
0 0

0101101
*
Ed
 1e-07 1 1 0
1  22 0 4.4373425918682e-30 25
2  43 9 48 4.4373425918682e-30 25
2  44 11 0 4.4373425918682e-30 25
4 G1 9 48 11 0
0

0101000
+82 47 -63 47 *
Ed
 1e-07 1 1 0
1  23 0 10 65
2  45 9 51 10 65
2  46 17 43 10 65
0

0101000
+65 52 -63 52 *
Wi

0101100
-81 42 +64 0 -62 0 +61 50 *
Fa
0  1e-07 9 0

0111000
+60 40 *
Ve
1e-07
-25 -27.4999999999999 37.5
0 0

0101101
*
Ed
 1e-07 1 1 0
1  24 0 -3.45126646034162e-31 25
2  47 10 0 -3.45126646034162e-31 25
2  48 12 48 -3.45126646034162e-31 25
4 G1 10 0 12 48
0

0101000
+80 47 -58 47 *
Ed
 1e-07 1 1 0
1  25 0 1.5707963267949 3.1415926535898
2  49 10 0 1.5707963267949 3.1415926535898
2  50 17 54 1.5707963267949 3.1415926535898
0

0101000
+65 47 -58 47 *
Wi

0101100
+79 0 -64 0 +57 0 -56 0 *
Fa
0  1e-07 10 0

0111000
+55 0 *
Ve
1e-07
-25 -27.5 -37.4999999999999
0 0

0101101
*
Ed
 1e-07 1 1 0
1  26 0 2.95822839457875e-31 25
2  51 11 0 2.95822839457875e-31 25
2  52 13 48 2.95822839457875e-31 25
4 G1 11 0 13 48
0

0101000
+78 47 -53 47 *
Ed
 1e-07 1 1 0
1  27 0 4.71238898038469 6.28318530717958
2  53 11 0 4.71238898038469 6.28318530717958
2  54 17 54 4.71238898038469 6.28318530717958
0

0101000
+63 47 -53 47 *
Wi

0101100
+77 0 -62 0 +52 0 -51 0 *
Fa
0  1e-07 11 0

0111000
+50 0 *
Ve
1e-07
-25 27.5 37.4999999999999
0 0

0101101
*
Ed
 1e-07 1 1 0
1  28 0 -2.95822839457867e-31 25
2  55 12 48 -2.95822839457867e-31 25
2  56 14 0 -2.95822839457867e-31 25
4 G1 12 48 14 0
0

0101000
+76 47 -48 47 *
Ed
 1e-07 1 1 0
1  29 0 9.99999999999997 64.9999999999999
2  57 12 51 9.99999999999997 64.9999999999999
2  58 17 43 9.99999999999997 64.9999999999999
0

0101000
+48 52 -58 52 *
Wi

0101100
-75 42 +47 0 -57 0 +46 50 *
Fa
0  1e-07 12 0

0111000
+45 40 *
Ve
1e-07
-25 27.4999999999999 -37.5
0 0

0101101
*
Ed
 1e-07 1 1 0
1  30 0 3.4512664603417e-31 25
2  59 13 48 3.4512664603417e-31 25
2  60 15 0 3.4512664603417e-31 25
4 G1 13 48 15 0
0

0101000
+74 47 -43 47 *
Ed
 1e-07 1 1 0
1  31 0 10 65
2  61 13 51 10 65
2  62 17 43 10 65
0

0101000
+53 52 -43 52 *
Wi

0101100
-73 42 +52 0 -42 0 +41 50 *
Fa
0  1e-07 13 0

0101000
+40 40 *
Ve
1e-07
-25 37.5 27.4999999999999
0 0

0101101
*
Ed
 1e-07 1 1 0
1  32 0 -3.64848168664718e-30 25
2  63 14 0 -3.64848168664718e-30 25
2  64 16 48 -3.64848168664718e-30 25
4 G1 14 0 16 48
0

0101000
+72 47 -38 47 *
Ed
 1e-07 1 1 0
1  33 0 3.14159265358979 4.71238898038469
2  65 14 0 3.14159265358979 4.71238898038469
2  66 17 54 3.14159265358979 4.71238898038469
0

0101000
+48 47 -38 47 *
Wi

0101100
+71 0 -47 0 +37 0 -36 0 *
Fa
0  1e-07 14 0

0111000
+35 0 *
Ve
1e-07
-25 37.4999999999999 -27.5000000000001
0 0

0101101
*
Ed
 1e-07 1 1 0
1  34 0 2.16936748935779e-30 25
2  67 15 0 2.16936748935779e-30 25
2  68 16 48 2.16936748935779e-30 25
4 G1 15 0 16 48
0

0101000
+70 47 -33 47 *
Ed
 1e-07 1 1 0
1  35 0 -2.66453525910038e-15 1.57079632679489
2  69 15 0 -2.66453525910038e-15 1.57079632679489
2  70 17 54 -2.66453525910038e-15 1.57079632679489
0

0101000
+43 47 -33 47 *
Wi

0101100
+69 0 -42 0 +32 0 -31 0 *
Fa
0  1e-07 15 0

0111000
+30 0 *
Ed
 1e-07 1 1 0
1  36 0 9.99999999999997 64.9999999999999
2  71 16 51 9.99999999999997 64.9999999999999
2  72 17 43 9.99999999999997 64.9999999999999
0

0101000
+33 52 -38 52 *
Wi

0101100
-68 42 +32 0 -37 0 +28 50 *
Fa
0  1e-07 16 0

0111000
+27 40 *
Ve
1e-07
-25 -4.20079171448151e-14 -31.53114
0 0

0101101
*
Ed
 1e-07 1 1 0
1  37 0 -4.58973515016084e-47 6.28318530717959
2  73 17 58 -4.58973515016084e-47 6.28318530717959
2  74 18 0 -4.58973515016084e-47 6.28318530717959
4 G1 17 58 18 0
0

0101100
+25 59 -25 59 *
Wi

0101100
-24 0 *
Wi

0101100
-61 50 +56 0 -51 0 -46 50 -41 50 +36 0 -31 0 -28 50 *
Fa
0  1e-07 17 56

0101000
+23 57 +22 60 *
Ve
1e-07
-26 -4.06756495152649e-14 -30.53114
0 0

0101101
*
Ed
 1e-07 1 1 0
1  38 0 1.5707963267949 3.14159265358979
3  75 76CN 18 0 1.5707963267949 3.14159265358979
0

0101000
+25 59 -20 59 *
Ed
 1e-07 1 1 0
1  39 0 -4.58973515016084e-47 6.28318530717959
2  77 18 0 -4.58973515016084e-47 6.28318530717959
2  78 19 62 -4.58973515016084e-47 6.28318530717959
4 G1 18 0 19 62
0

0101100
+20 59 -20 59 *
Wi

0101100
-19 0 +24 0 -18 0 +19 0 *
Fa
0  1e-07 18 0

0111000
+17 0 *
Ve
1e-07
-39 -4.06756495152649e-14 -30.53114
0 0

0101101
*
Ed
 1e-07 1 1 0
1  40 0 1 14
3  79 80CN 19 0 1 14
0

0101000
+20 63 -15 63 *
Ed
 1e-07 1 1 0
1  41 0 -4.58973515016084e-47 6.28318530717959
2  81 19 62 -4.58973515016084e-47 6.28318530717959
2  82 20 0 -4.58973515016084e-47 6.28318530717959
4 G1 19 62 20 0
0

0101100
+15 59 -15 59 *
Wi

0101100
-14 62 -18 0 +13 0 +14 62 *
Fa
0  1e-07 19 0

0111000
+12 57 *
Ve
1e-07
-40 -3.93433818857147e-14 -29.53114
0 0

0101101
*
Ed
 1e-07 1 1 0
1  42 0 0 1.5707963267949
3  83 84CN 20 0 0 1.5707963267949
0

0101000
+15 59 -10 59 *
Ed
 1e-07 1 1 0
1  43 0 -4.58973515016084e-47 6.28318530717959
2  85 20 0 -4.58973515016084e-47 6.28318530717959
2  86 21 65 -4.58973515016084e-47 6.28318530717959
4 G1 20 0 21 65
0

0101100
+10 59 -10 59 *
Wi

0101100
-9 0 +13 0 -8 0 +9 0 *
Fa
0  1e-07 20 0

0111000
+7 0 *
Wi

0101100
-8 0 *
Fa
0  1e-07 21 0

0101000
+5 67 *
Sh

0101100
+112 0 +107 18 +105 0 +100 17 -95 16 -90 32 +85 18 -66 32 +59 32 +54 53 
-49 53 +44 32 +39 32 +34 53 -29 53 +26 32 +21 55 +16 61 -11 55 +6 61 
-4 66 *
So

0100000
+3 0 *
Co

1100000
+2 0 *

+1 1 