DBRep_DrawableShape

CASCADE Topology V1, (c) Matra-Datavision
Locations 4
1
-0.990401979237502 -0.138215991989022 -0.000508999930233899       4708.7565 
0.000504114603631876 7.03519394415748e-005 -0.999999870459527       52.919389 
0.138216009893589 -0.99040210753466 -4.9000442022517e-014      -1049.9996 
1
0.999999870457562 -0.000509003790232901               0       309991.32 
              0               0               1   0.00036305277 
-0.000509003790232901 -0.999999870457562               0       213904.72 
2  1 1 2 1 0
1
              1               0               0               0 
              0               1               0               0 
              0               0               1             108 
Curve2ds 0
Curves 8
1 0 0 0 0 0 1 
1 3979.2411999999999 0 0 0 0 1 
1 0 0 0 1 0 0 
1 4573.5829999999996 82.944419999999994 0 0 0 1 
1 3979.2411999999999 0 0 0.99040192874317134 0.13821729103772226 0 
1 4497.5132000000003 627.65778 0 0 0 1 
1 4573.5829999999996 82.944419999999994 0 -0.13830889666475815 0.99038914023901592 0 
1 4497.5132000000003 627.65778 0 -0.99040194746213428 -0.1382171569061231 0 
Polygon3D 0
PolygonOnTriangulations 0
Surfaces 5
1 0 0 0 0 1 0 1 0 0 0 0 -1 
1 3979.2411999999999 0 0 -0.13821729103772226 0.99040192874317134 0 0.99040192874317134 0.13821729103772226 0 0 0 -1 
1 4573.5829999999996 82.944419999999994 0 -0.99038914023901603 -0.13830889666475818 0 -0.13830889666475818 0.99038914023901603 0 -0 0 -1 
1 4497.5132000000003 627.65778 0 0.1382171569061231 -0.99040194746213428 0 -0.99040194746213428 -0.1382171569061231 0 0 -0 -1 
1 0 0 0 0 0 1 1 0 -0 -0 1 0 
Triangulations 0

TShapes 24
Ve
1e-007
0 0 0
0 0

0101101
*
Ed
 1e-007 1 1 0
1  1 0 0 108
0

0101000
+24 0 -24 4 *
Ve
1e-007
3979.2412 0 0
0 0

0101101
*
Ed
 1e-007 1 1 0
1  2 0 0 108
0

0101000
+22 0 -22 4 *
Ed
 1e-007 1 1 0
1  3 0 0 3979.2412
0

0101000
+24 0 -22 0 *
Wi

0101000
+23 0 -21 0 -20 0 +20 4 *
Fa
0  1e-007 1 0

0111000
+19 0 *
Ve
1e-007
4573.583 82.94442 0
0 0

0101101
*
Ed
 1e-007 1 1 0
1  4 0 0 108
0

0101000
+17 0 -17 4 *
Ed
 1e-007 1 1 0
1  5 0 0 600.101618091783
0

0101000
+22 0 -17 0 *
Wi

0101000
+21 0 -16 0 -15 0 +15 4 *
Fa
0  1e-007 2 0

0111000
+14 0 *
Ve
1e-007
4497.5132 627.65778 0
0 0

0101101
*
Ed
 1e-007 1 1 0
1  6 0 0 108
0

0101000
+12 0 -12 4 *
Ed
 1e-007 1 1 0
1  7 0 0 549.999326394614
0

0101000
+17 0 -12 0 *
Wi

0101000
+16 0 -11 0 -10 0 +10 4 *
Fa
0  1e-007 3 0

0111000
+9 0 *
Ed
 1e-007 1 1 0
1  8 0 0 4541.09890587826
0

0101000
+12 0 -24 0 *
Wi

0101000
+11 0 -23 0 -7 0 +7 4 *
Fa
0  1e-007 4 0

0111000
+6 0 *
Wi

0101100
+20 0 +15 0 +10 0 +7 0 *
Fa
0  1e-007 5 0

0111000
+4 0 *
Sh

0101100
+18 0 +13 0 +8 0 +5 0 +3 0 -3 4 *
So

0100000
-2 0 *

+1 3 