DBRep_DrawableShape

CASCADE Topology V1, (c) Matra-Datavision
Locations 2
1
              1               0               0              25 
              0               1               0               0 
              0               0               1               0 
2  1 -1 0
Curve2ds 64
8 0 26.286555605956679
1 1.3467032344935255 0 0 -1 
8 0 26.286555605956679
1 4.4882958880833188 0 0 -1 
1 0 3.455751918948772 1 0 
1 1.3467032344935259 -15.388417685876268 1 0 
8 1.3467032344935257 1.7948894190962674
1 0 0 1 0 
8 1.3467032344935257 1.7948894190962674
2 0 -219.37410968480305 1 0 -0 1 200
8 0 26.286555605956679
1 1.7948894190962674 0 0 -1 
8 0 26.286555605956679
1 4.9364820726860605 0 0 -1 
1 0 0.31415926535897937 1 0 
1 7.8539816339744819 -15.388417685876266 -1 -0 
8 4.4882958880833188 7.8539816339744828
1 0 0 1 0 
8 4.4882958880833188 7.8539816339744828
2 50 0 1 0 -0 1 25
8 0 26.286555605956682
1 7.8539816339744828 0 0 -1 
8 0 26.286555605956682
1 0 0 0 -1 
8 3.455751918948772 4.7123889803846879
1 -4.4408920985006262e-016 0 0 1 
8 3.455751918948772 4.7123889803846879
1 3.3656857458911631 -3.1415926535897927 0 1 
1 0 4.7123889803846879 1 0 
2 0 -219.37410968480305 0.22222222222222213 0.97499604304356913 -0.97499604304356913 0.22222222222222213 219.0211303259031
8 3.455751918948772 4.7123889803846879
1 0.44818618460274151 0 0 1 
8 3.455751918948772 4.7123889803846879
1 0 -3.1415926535897927 0 1 
8 0 26.286555605956679
1 100 0 1.892183365217075e-017 -1 
8 0 26.286555605956679
1 1.5707963267948966 0 0 -1 
1 0 0.31415926535897937 1 0 
1 4.9364820726860605 -15.388417685876268 -1 -0 
8 1.5707963267948966 4.9364820726860605
1 0 0 1 0 
8 1.5707963267948966 4.9364820726860605
2 -50 0 1 0 -0 1 25
8 0 1.2566370614359172
1 0 100 1 0 
8 0 1.2566370614359172
1 -8.8817841970012523e-016 0.31415926535897937 0 1 
1 0 1.5707963267948966 1 0 
2 50 0 0 1 1 -0 5.9788696740969289
1 0 0 0 1 
1 100 -15.388417685876268 -1 0 
8 -25 75
1 25 0 1 0 
8 -25 75
1 25 25 -1 0 
1 0 1.5707963267948968 1 0 
2 -50 0 0.22222222222222196 -0.97499604304356913 -0.97499604304356924 -0.22222222222222199 5.9788696740969307
1 1.2566370614359172 0 0 1 
1 -50 5.9788696740969316 1 0 
8 0.31415926535897937 1.5707963267948968
1 3.365685745891164 0 0 1 
8 0.31415926535897937 1.5707963267948968
1 -0.31415926535897937 -2.911770796222731e-016 1 0 
8 -119999975 119999975
1 25 -2.5993575698632503 1 0 
8 -119999975 119999975
1 25 16.588302206093864 -1 0 
1 12.566370614359172 -2.5993575698632503 -1 0 
2 50 0 1 0 0 -1 16.588302206093861
1 6.2831853071795862 -2.5993575698632503 -1 0 
2 0 -219.37410968480305 1 0 0 -1 208.41169779390611
1 6.2831853071795862 -2.5993575698632503 -1 0 
2 -50 0 1 0 0 -1 16.588302206093861
1 1.3467032344935255 0 0 -1 
1 4.4882958880833188 0 0 -1 
1 1.7948894190962674 0 0 -1 
1 4.9364820726860605 0 0 -1 
1 0 0 0 -1 
1 7.8539816339744828 0 0 -1 
1 100 0 1.892183365217075e-017 -1 
1 1.5707963267948966 0 0 -1 
1 -0.31415926535897937 -2.911770796222731e-016 1 0 
1 3.365685745891164 0 0 1 
1 0 100 1 0 
1 -8.8817841970012523e-016 0.31415926535897937 0 1 
1 -4.4408920985006262e-016 0 0 1 
1 3.3656857458911631 -3.1415926535897927 0 1 
1 0.44818618460274151 0 0 1 
1 0 -3.1415926535897927 0 1 
Curves 40
1 0 44.444444444444443 -24.374901076089227 0.95105651629515353 0.068670443194432815 0.30129034674879057 
2 14.635254915624213 0 -219.37410968480305 1 0 0 -0 0.22222222222222213 0.97499604304356913 0 -0.97499604304356913 0.22222222222222213 204.75528258147577
2 0 0 -219.37410968480305 1 0 -0 0 1 0 0 -0 1 200
1 0 -44.444444444444443 -24.374901076089227 0.95105651629515353 -0.068670443194432745 0.30129034674879057 
2 14.635254915624211 50 0 -1 -0 -0 -0 4.210122747146486e-016 1 0 1 -4.210122747146486e-016 20.244717418524232
2 0 50 0 1 0 -0 0 1 0 0 -0 1 25
1 0 50 25 0.95105651629515364 0 -0.30901699437494745 
2 10 48.671362294645213 -5.8293742741176686 0 -0.97499604304356913 0.2222222222222226 0 0.2222222222222226 0.97499604304356913 -1 0 0 15
2 25 0 -219.37410968480305 1 0 0 -0 0.22222222222222213 0.97499604304356913 0 -0.97499604304356913 0.22222222222222213 219.0211303259031
2 10 -48.671362294645114 -5.8293742741176686 0 -0.97499604304356913 -0.22222222222222213 0 -0.22222222222222213 0.97499604304356913 -1 -0 0 15
1 0 -50 25 0.95105651629515353 -1.892183365217075e-017 -0.3090169943749474 
2 14.635254915624213 -50 0 -1 -0 -0 0 0.22222222222222252 -0.97499604304356913 0 -0.97499604304356913 -0.22222222222222252 20.244717418524235
2 0 -50 0 1 0 -0 0 1 0 0 -0 1 25
2 10.000000000000002 50 5.9788696740969307 -0 1 0 0.30901699437494745 0 0.95105651629515364 0.95105651629515364 0 -0.30901699437494745 15
2 25 50 0 -1 -0 -0 -0 4.210122747146486e-016 1 0 1 -4.210122747146486e-016 5.9788696740969289
1 14.635254915624213 -50 20.244717418524235 -0 1 0 
1 0 25 25 0 -1 -0 
2 25 -50 0 -1 -0 -0 0 0.22222222222222252 -0.97499604304356913 0 -0.97499604304356913 -0.22222222222222252 5.9788696740969307
1 25 -50 5.9788696740969316 -0 1 0 
2 10 -50 5.9788696740969307 -0 1 3.6082248300317588e-016 -0 -3.6082248300317588e-016 1 1 0 0 15
1 2.2204460492503131e-016 25 16.588302206093864 0 -1 -0 
2 0 50 0 -1 -0 0 0 1 0 -0 0 -1 16.588302206093861
2 0 0 -219.37410968480305 -1 -0 0 0 1 0 -0 0 -1 208.41169779390611
2 0 -50 0 -1 -0 0 0 1 0 -0 0 -1 16.588302206093861
1 -2.4721359549995792 46.135211584524711 -16.956690355300616 0.95105651629515364 0.068670443194432829 0.30129034674879063 
2 12.163118960624628 0 -219.37410968480305 1 0 -0 0 0.22222222222222213 0.97499604304356913 0 -0.97499604304356913 0.22222222222222213 212.36373471183703
1 -2.4721359549995792 -46.135211584524718 -16.956690355300616 0.95105651629515364 -0.068670443194432718 0.30129034674879063 
2 12.163118960624631 50 0 -1 -0 0 0 1.2212453270876722e-015 1 -0 1 -1.2212453270876722e-015 12.636265288163003
1 -2.4721359549995792 50.000000000000007 17.391547869638771 0.95105651629515364 -9.4609168260853767e-017 -0.30901699437494745 
1 12.163118960624633 -50 12.636265288163006 -0 1 0 
1 -2.4721359549995792 -50 17.391547869638771 0.95105651629515364 -1.8921833652170753e-017 -0.30901699437494745 
2 12.163118960624633 -50 0 -1 0 -0 0 0.2222222222222221 -0.97499604304356913 0 -0.97499604304356913 -0.2222222222222221 12.636265288163003
2 10.000000000000002 -50 5.9788696740969307 0 1 -0 -5.5511151231257827e-017 0 1 1 0 5.5511151231257827e-017 7
1 17 -50 5.9788696740969307 -0 1 0 
2 10.000000000000002 50 5.9788696740969307 -0 1 0 0.30901699437494745 0 0.95105651629515364 0.95105651629515364 0 -0.30901699437494745 7
2 17 0 -219.37410968480305 1 0 -0 0 0.22222222222222213 0.97499604304356913 0 -0.97499604304356913 0.22222222222222213 219.0211303259031
2 -8 50 0 -1 -0 0 0 0 1 -0 1 0 5.9788696740969289
2 -8 -50 0 -1 -0 0 -0 0.22222222222222199 -0.97499604304356924 0 -0.97499604304356924 -0.22222222222222199 5.9788696740969307
2 10 48.671362294645213 -5.8293742741176686 0 -0.97499604304356913 0.2222222222222226 0 0.2222222222222226 0.97499604304356913 -1 0 0 7
2 10 -48.671362294645114 -5.8293742741176686 -0 -0.97499604304356913 -0.22222222222222213 0 -0.22222222222222213 0.97499604304356913 -1 0 0 7
Polygon3D 0
PolygonOnTriangulations 0
Surfaces 18
3 0 0 -219.37410968480305 -1 -0 0 0 1 0 0 -0 1 200
-0.31415926535897931
3 0 50 0 -1 -0 0 0 1 0 0 -0 1 25
0.31415926535897931
5 10 0 -219.37410968480305 -1 -0 -0 -0 0.22222222222222213 0.97499604304356913 -0 -0.97499604304356913 0.22222222222222213 219.0211303259031 15
1 0 0 0 1 0 0 -0 1 0 0 -0 1 
3 0 -50 0 -1 -0 0 0 1 0 0 -0 1 25
0.31415926535897931
5 10 50 0 1 0 0 -0 4.210122747146486e-016 1 -0 1 -4.210122747146486e-016 5.9788696740969289 15
1 0 50 25 -0.30901699437494745 0 -0.95105651629515364 0 -1 0 -0.95105651629515364 -0 0.30901699437494745 
5 10 -50 0 1 0 0 0 0.22222222222222252 -0.97499604304356913 0 -0.97499604304356913 -0.22222222222222252 5.9788696740969307 15
2 10.000000000000002 -50 5.9788696740969307 -0 1 0 0.30901699437494745 0 0.95105651629515364 0.95105651629515364 0 -0.30901699437494745 15
1 -2.4721359549995796 50 17.391547869638771 -0.30901699437494745 0 -0.95105651629515364 0 -1 0 -0.95105651629515364 -0 0.30901699437494745 
3 -2.4721359549995792 50 0 -1 -0 0 0 1 0 0 -0 1 17.391547869638771
0.31415926535897931
3 -2.4721359549995792 0 -219.37410968480305 -1 -0 0 0 1 0 0 -0 1 207.60845213036123
-0.31415926535897931
3 -2.4721359549995792 -50 0 -1 -0 0 0 1 0 0 -0 1 17.391547869638771
0.31415926535897931
5 10 0 -219.37410968480305 -1 -0 -0 -0 0.22222222222222213 0.97499604304356913 -0 -0.97499604304356913 0.22222222222222213 219.0211303259031 7
11 8
5 10 50 0 1 0 0 -0 4.210122747146486e-016 1 -0 1 -4.210122747146486e-016 5.9788696740969289 15
2 10.000000000000002 -50 5.9788696740969307 -0 1 0 0.30901699437494745 0 0.95105651629515364 0.95105651629515364 0 -0.30901699437494745 7
11 8
5 10 -50 0 1 0 0 0 0.22222222222222252 -0.97499604304356913 0 -0.97499604304356913 -0.22222222222222252 5.9788696740969307 15
1 -8 0 0 1 0 0 -0 1 0 0 -0 1 
Triangulations 0

TShapes 106
Ve
1e-007
14.6352549156242 45.5011739069946 -19.7385193755963
0 0

0101101
*
Ve
0.001
0 44.4444444444444 -24.3749010760892
0 0

0101101
*
Ed
 1e-007 1 1 0
1  1 0 0 15.3884176858763
2  1 1 0 0 15.3884176858763
2  2 2 0 0 15.3884176858763
4 G1 1 0 2 0
0

0101000
-106 0 +105 0 *
Ve
1e-007
14.6352549156242 -45.5011739069946 -19.7385193755963
0 0

0101101
*
Ed
 1e-007 1 1 0
1  2 0 -4.44089209850063e-016 0.448186184602742
2  3 3 0 -4.44089209850063e-016 0.448186184602742
2  4 1 0 -4.44089209850063e-016 0.448186184602742
4 G1 3 0 1 0
0

0101000
+106 0 -103 0 *
Ve
0.001
0 -44.4444444444444 -24.3749010760892
0 0

0101101
*
Ed
 0.001 1 1 0
1  3 0 1.34670323449353 1.79488941909627
2  5 1 0 1.34670323449353 1.79488941909627
2  6 4 0 1.34670323449353 1.79488941909627
0

0101000
+105 0 -101 0 *
Ed
 1e-007 1 1 0
1  4 0 0 15.3884176858763
2  7 1 0 0 15.3884176858763
2  8 5 0 0 15.3884176858763
4 G1 1 0 5 0
0

0101000
-103 0 +101 0 *
Wi

0101100
+104 0 +102 0 -100 0 -99 0 *
Fa
0  1e-007 1 0

0111000
+98 0 *
Ve
1e-007
14.6352549156242 50 20.2447174185242
0 0

0101101
*
Ed
 1e-007 1 1 0
1  5 0 -8.88178419700125e-016 3.36568574589116
2  9 6 0 -8.88178419700125e-016 3.36568574589116
2  10 2 0 -8.88178419700125e-016 3.36568574589116
4 G1 6 0 2 0
0

0101000
+96 0 -106 0 *
Ve
0.001
0 50 25
0 0

0101101
*
Ed
 0.001 1 1 0
1  6 0 4.48829588808332 7.85398163397448
2  11 2 0 4.48829588808332 7.85398163397448
2  12 4 0 4.48829588808332 7.85398163397448
0

0101000
+105 0 -94 0 *
Ed
 1e-007 1 1 0
1  7 0 0 15.3884176858763
2  13 2 0 0 15.3884176858763
2  14 7 0 0 15.3884176858763
4 G1 2 0 7 0
0

0101000
-96 0 +94 0 *
Wi

0101100
+104 0 -95 0 -93 0 -92 0 *
Fa
0  1e-007 2 0

0101000
+91 0 *
Ve
1e-007
25 48.6713622946451 -5.8293742741177
0 0

0101101
*
Ed
 1e-007 1 1 0
1  8 0 3.45575191894877 4.71238898038469
2  15 3 0 3.45575191894877 4.71238898038469
2  16 6 0 3.45575191894877 4.71238898038469
4 G1 3 0 6 0
0

0101000
+106 0 -89 0 *
Ve
1e-007
25 -48.6713622946451 -5.82937427411767
0 0

0101101
*
Ed
 1e-007 1 1 0
1  9 0 -4.44089209850063e-016 0.448186184602742
2  17 3 0 -4.44089209850063e-016 0.448186184602742
2  18 4 1 -4.44089209850063e-016 0.448186184602742
4 G1 3 0 4 1
0

0101000
+89 0 -87 0 *
Ed
 1e-007 1 1 0
1  10 0 3.45575191894877 4.71238898038469
2  19 3 0 3.45575191894877 4.71238898038469
2  20 8 0 3.45575191894877 4.71238898038469
4 G1 3 0 8 0
0

0101000
+103 0 -87 0 *
Wi

0101100
-88 0 +102 0 -86 0 +85 0 *
Fa
0  0 3 0

0101000
+84 0 *
Ve
1e-007
14.6352549156242 -50 20.2447174185242
0 0

0101101
*
Ve
0.001
0 -50 25
0 0

0101101
*
Ed
 1e-007 1 1 0
1  11 0 0 15.3884176858763
2  21 7 0 0 15.3884176858763
2  22 5 0 0 15.3884176858763
4 G1 7 0 5 0
0

0101000
-82 0 +81 0 *
Ed
 1e-007 1 1 0
1  12 0 -0 3.36568574589116
2  23 8 0 -0 3.36568574589116
2  24 5 0 -0 3.36568574589116
4 G1 8 0 5 0
0

0101000
+103 0 -82 0 *
Ed
 0.001 1 1 0
1  13 0 1.5707963267949 4.93648207268606
2  25 5 0 1.5707963267949 4.93648207268606
2  26 4 0 1.5707963267949 4.93648207268606
0

0101000
+81 0 -101 0 *
Wi

0101100
+80 0 -79 0 -78 0 -99 0 *
Fa
0  1e-007 5 0

0101000
+77 0 *
Ve
1e-007
25 50 5.97886967409693
0 0

0101101
*
Ed
 1e-007 1 1 0
1  14 0 0 1.25663706143592
2  27 9 0 0 1.25663706143592
2  28 6 0 0 1.25663706143592
4 G1 9 0 6 0
0

0101000
+96 0 -75 0 *
Ed
 1e-007 1 1 0
1  15 0 -8.88178419700125e-016 3.36568574589116
2  29 6 0 -8.88178419700125e-016 3.36568574589116
2  30 4 1 -8.88178419700125e-016 3.36568574589116
4 G1 6 0 4 1
0

0101000
+75 0 -89 0 *
Wi

0101100
-74 0 +95 0 -73 0 +88 0 *
Fa
0  0 6 0

0101000
+72 0 *
Ed
 1e-007 1 1 0
1  16 0 -2.91177079622273e-016 100
2  31 9 0 -2.91177079622273e-016 100
2  32 7 0 -2.91177079622273e-016 100
4 G1 9 0 7 0
0

0101000
+82 0 -96 0 *
Ed
 0.001 1 1 0
1  17 0 -25 75
2  33 7 0 -25 75
2  34 4 0 -25 75
0

0101000
+94 0 -81 0 *
Wi

0101100
+92 0 -70 0 -69 0 -80 0 *
Fa
0  1e-007 7 0

0101000
+68 0 *
Ve
1e-007
25 -50 5.97886967409693
0 0

0101101
*
Ed
 1e-007 1 1 0
1  18 0 -0 3.36568574589116
2  35 8 0 -0 3.36568574589116
2  36 4 1 -0 3.36568574589116
4 G1 8 0 4 1
0

0101000
+87 0 -66 0 *
Ed
 1e-007 1 1 0
1  19 0 -2.91177079622273e-016 100
2  37 9 0 -2.91177079622273e-016 100
2  38 4 1 -2.91177079622273e-016 100
4 G1 9 0 4 1
0

0101000
+66 0 -75 0 *
Wi

0101100
-86 0 -73 0 -65 0 -64 0 *
Fa
0  1e-007 4 0

0101000
+63 2 *
Ed
 1e-007 1 1 0
1  20 0 0.314159265358979 1.5707963267949
2  39 8 0 0.314159265358979 1.5707963267949
2  40 9 0 0.314159265358979 1.5707963267949
4 G1 8 0 9 0
0

0101000
+82 0 -66 0 *
Wi

0101100
-85 0 +79 0 -65 0 +61 0 *
Fa
0  0 8 0

0101000
+60 0 *
Wi

0101100
+61 0 -70 0 +64 0 -74 0 *
Fa
0  0 9 0

0101000
+58 0 *
Wi

0101100
-100 0 +93 0 +69 0 +78 0 *
Ve
0.001
0 50 16.5883022060939
0 0

0101101
*
Ve
0.001
-4.44089209850063e-016 -50 16.5883022060939
0 0

0101101
*
Ed
 0.001 1 1 0
1  21 0 -25 75
2  41 10 0 -25 75
2  42 4 0 -25 75
0

0101000
+55 0 -54 0 *
Ve
0.001
0 46.313710620868 -16.1735290117524
0 0

0101101
*
Ed
 0.001 1 1 0
1  22 0 4.71238898038469 8.07807472627585
2  43 11 0 4.71238898038469 8.07807472627585
2  44 4 0 4.71238898038469 8.07807472627585
0

0101000
+55 0 -52 0 *
Ve
0.001
0 -46.313710620868 -16.1735290117524
0 0

0101101
*
Ed
 0.001 1 1 0
1  23 0 4.48829588808332 4.93648207268606
2  45 12 0 4.48829588808332 4.93648207268606
2  46 4 0 4.48829588808332 4.93648207268606
0

0101000
+50 0 -52 0 *
Ed
 0.001 1 1 0
1  24 0 1.34670323449353 4.71238898038469
2  47 13 0 1.34670323449353 4.71238898038469
2  48 4 0 1.34670323449353 4.71238898038469
0

0101000
+50 0 -54 0 *
Wi

0101100
-53 0 +51 0 -49 0 +48 0 *
Fa
0  1e-007 4 0

0111000
+56 0 +47 0 *
Ve
0.001
12.1631189606246 47.1919410470749 -12.3203086548077
0 0

0101101
*
Ed
 0.001 1 1 0
2  49 12 0 2.59935756986325 15.3884176858763
1  25 0 2.59935756986325 15.3884176858763
2  50 11 0 2.59935756986325 15.3884176858763
4 G1 12 0 11 0
0

1101000
-45 0 +52 0 *
Ve
0.001
12.1631189606246 -47.1919410470749 -12.3203086548077
0 0

0101101
*
Ed
 0.001 1 1 0
2  4 12 0 -4.44089209850063e-016 0.448186184602742
1  26 0 -4.44089209850063e-016 0.448186184602742
2  3 14 0 -4.44089209850063e-016 0.448186184602742
4 G1 12 0 14 0
0

0101000
+45 0 -43 0 *
Ed
 0.001 1 1 0
2  51 12 0 2.59935756986325 15.3884176858763
1  27 0 2.59935756986325 15.3884176858763
2  52 13 0 2.59935756986325 15.3884176858763
4 G1 12 0 13 0
0

0101000
-43 0 +50 0 *
Wi

0101100
+44 0 +42 0 -41 0 +49 0 *
Fa
0  1e-007 12 0

0111000
+40 0 *
Ve
0.001
12.1631189606246 50 12.636265288163
0 0

0101101
*
Ed
 0.001 1 1 0
2  10 11 0 -8.88178419700125e-016 3.36568574589116
1  28 0 -8.88178419700125e-016 3.36568574589116
2  9 15 0 -8.88178419700125e-016 3.36568574589116
4 G1 11 0 15 0
0

0101000
+38 0 -45 0 *
Ed
 0.001 1 1 0
2  53 10 0 2.59935756986325 15.3884176858763
1  29 0 2.59935756986325 15.3884176858763
2  54 11 0 2.59935756986325 15.3884176858763
4 G1 11 0 10 0
0

0101000
-38 0 +55 0 *
Wi

0101100
-37 0 -36 0 +51 0 +44 0 *
Fa
0  1e-007 11 0

0101000
+35 0 *
Ve
0.001
12.1631189606246 -50 12.636265288163
0 0

0101101
*
Ed
 0.001 1 1 0
2  32 10 0 -2.91177079622273e-016 100
1  30 0 -2.91177079622273e-016 100
2  31 16 0 -2.91177079622273e-016 100
4 G1 10 0 16 0
0

0101000
+33 0 -38 0 *
Ed
 0.001 1 1 0
2  55 10 0 2.59935756986325 15.3884176858763
1  31 0 2.59935756986325 15.3884176858763
2  56 13 0 2.59935756986325 15.3884176858763
4 G1 10 0 13 0
0

0101000
-33 0 +54 0 *
Wi

0101100
-32 0 -31 0 -53 0 +36 0 *
Fa
0  1e-007 10 0

0101000
+30 0 *
Ed
 0.001 1 1 0
2  24 13 0 -0 3.36568574589116
1  32 0 -0 3.36568574589116
2  23 17 0 -0 3.36568574589116
4 G1 13 0 17 0
0

0101000
+43 0 -33 0 *
Wi

0101100
-28 0 -41 0 +48 0 +31 0 *
Fa
0  1e-007 13 0

0101000
+27 0 *
Ve
1.02469507659596e-007
17 -50 5.97886967409693
0 0

0101101
*
Ed
 1e-007 1 1 0
2  57 16 0 0.314159265358979 1.5707963267949
1  33 0 0.314159265358979 1.5707963267949
2  58 17 0 0.314159265358979 1.5707963267949
4 G1 16 0 17 0
0

0101000
+33 0 -25 0 *
Ve
1.02469507659596e-007
17 50 5.97886967409693
0 0

0101101
*
Ed
 1e-007 1 1 0
2  38 18 1 -2.91177079622273e-016 100
1  34 0 -2.91177079622273e-016 100
2  37 16 0 -2.91177079622273e-016 100
4 G1 18 1 16 0
0

0101000
+25 0 -23 0 *
Ed
 1e-007 1 1 0
2  59 16 0 0 1.25663706143592
1  35 0 0 1.25663706143592
2  60 15 0 0 1.25663706143592
4 G1 16 0 15 0
0

0101000
+38 0 -23 0 *
Wi

0101000
+24 0 -32 0 +22 0 -21 0 *
Fa
0  1e-007 16 0

0101000
+20 0 *
Ve
1.02469507659596e-007
17 48.6713622946452 -5.8293742741177
0 0

0101101
*
Ve
1.02469507659596e-007
17 -48.6713622946451 -5.82937427411764
0 0

0101101
*
Ed
 1e-007 1 1 0
2  18 18 1 -4.44089209850063e-016 0.448186184602742
1  36 0 -4.44089209850063e-016 0.448186184602742
2  17 14 0 -4.44089209850063e-016 0.448186184602742
4 G1 18 1 14 0
0

0101000
+18 0 -17 0 *
Ed
 1e-007 1 1 0
2  30 18 1 -8.88178419700125e-016 3.36568574589116
1  37 1 -8.88178419700125e-016 3.36568574589116
2  29 15 0 -8.88178419700125e-016 3.36568574589116
4 G1 18 1 15 0
0

0101000
+23 0 -18 0 *
Ed
 1e-007 1 1 0
2  36 18 1 -0 3.36568574589116
1  38 1 -0 3.36568574589116
2  35 17 0 -0 3.36568574589116
4 G1 18 1 17 0
0

0101000
+17 0 -25 0 *
Wi

0101000
-16 0 -15 0 -14 0 -22 0 *
Fa
0  1e-007 18 1

0101000
+13 0 *
Ed
 1e-007 1 1 0
2  61 14 0 3.45575191894877 4.71238898038469
1  39 0 3.45575191894877 4.71238898038469
2  62 15 0 3.45575191894877 4.71238898038469
4 G1 15 0 14 0
0

0101000
+45 0 -18 0 *
Wi

0101000
-21 0 +37 0 -15 0 +11 0 *
Fa
0  1e-007 15 0

0101000
+10 0 *
Ed
 1e-007 1 1 0
2  63 14 0 3.45575191894877 4.71238898038469
1  40 0 3.45575191894877 4.71238898038469
2  64 17 0 3.45575191894877 4.71238898038469
4 G1 17 0 14 0
0

0101000
+43 0 -17 0 *
Wi

0101000
-8 0 +28 0 -14 0 +24 0 *
Fa
0  1e-007 17 0

0101000
+7 0 *
Wi

0101000
-11 0 +42 0 -16 0 +8 0 *
Fa
0  1e-007 14 0

0101000
+5 0 *
Sh

0101100
+97 0 -90 0 -83 0 -76 0 -71 0 -67 0 +62 1 -59 0 +57 0 -46 0 
-39 0 +34 0 +29 0 +26 0 -19 0 -12 0 +9 0 +6 0 +4 0 *
So

0100100
+3 0 *
Co

0100000
+2 0 *

+1 0 
0

