DBRep_DrawableShape

CASCADE Topology V1, (c) Matra-Datavision
Locations 0
Curve2ds 63
1 -10 0 -1 0 
1 -10 0 1 0 
1 0 10 1 0 
2 0 0 1 0 -0 1 20
2 0 0 -1 0 0 1 20
8 4.7123889803846897 6.2831853071795898
1 0 0 1 0 
1 2.2204460492503099e-015 -10 2.2204460492503101e-016 -1 
1 -10 0 1 0 
2 0 0 1 0 -0 1 10
1 0 0 1 0 
2 0 0 -1 0 0 1 10
8 4.7123889803846897 6.2831853071795898
1 0 10 1 0 
1 20 0 -1 0 
1 0 10 -1 0 
1 0 0 0 1 
1 -10 10 0 -1 
1 0 0 0 1 
1 0 0 0 1 
1 6.2831853071795898 0 0 1 
1 0 0 0 1 
1 -10 10 0 -1 
8 0 10
1 6.2831853071795898 -10 0 1 
8 0 10
1 0 -10 0 1 
2 0 0 1 0 -0 1 10
1 0 0 1 0 
1 0 -10 1 0 
2 0 0 -1 0 0 1 10
1 0 10 1 0 
2 0 0 1 0 -0 1 10
8 4.7123889803846897 6.2831853071795898
1 0 0 1 0 
1 4.7123889803846897 0 0 1 
1 -10 10 0 -1 
1 6.2831853071795898 0 0 1 
1 0 0 0 1 
1 -10 10 0 -1 
8 0 10
1 6.2831853071795898 10 0 1 
8 0 10
1 0 10 0 1 
2 0 0 -1 0 0 1 10
1 0 10 1 0 
1 0 20 1 0 
1 6.2831853071795898 0 0 1 
1 0 0 0 1 
1 0 0 0 1 
8 0 10
1 6.2831853071795898 -10 0 1 
8 0 10
1 0 -10 0 1 
2 0 0 -1 0 0 1 20
1 0 0 1 0 
1 0 -10 1 0 
1 4.7123889803846897 0 0 1 
1 0 0 0 1 
2 0 0 -1 0 0 1 20
1 0 0 1 0 
8 4.7123889803846897 6.2831853071795898
1 0 10 1 0 
1 6.2831853071795898 0 0 1 
1 0 0 0 1 
1 0 0 0 1 
8 0 10
1 6.2831853071795898 10 0 1 
8 0 10
1 0 10 0 1 
1 0 10 1 0 
2 0 0 1 0 -0 1 20
1 0 20 1 0 
1 -4.4408920985006301e-015 -20 2.2204460492503101e-016 1 
1 0 10 -1 0 
Curves 20
1 10 0 10 1 0 0 
2 0 0 10 0 0 1 1 0 -0 -0 1 0 20
1 -2.2204460492503099e-015 -10 10 -2.2204460492503101e-016 -1 0 
2 0 0 10 0 0 1 1 0 -0 -0 1 0 10
1 20 0 20 -1 0 0 
1 10 0 20 0 0 -1 
1 20 0 10 0 0 1 
1 10 0 30 0 0 -1 
2 0 0 30 0 0 1 1 0 -0 -0 1 0 10
2 0 0 20 0 0 1 1 0 -0 -0 1 0 10
1 -2.2204460492503099e-015 -10 20 0 0 -1 
1 10 0 10 0 0 -1 
2 0 0 0 0 0 1 1 0 -0 -0 1 0 10
1 20 0 0 0 0 1 
2 0 0 0 0 0 1 1 0 -0 -0 1 0 20
1 -4.4408920985006301e-015 -20 10 0 0 1 
2 0 0 20 0 0 1 1 0 -0 -0 1 0 20
1 20 0 20 0 0 1 
2 0 0 30 0 0 1 1 0 -0 -0 1 0 20
1 -4.4408920985006301e-015 -20 20 2.2204460492503101e-016 1 0 
Polygon3D 0
PolygonOnTriangulations 0
Surfaces 16
1 0 0 10 0 0 1 -1 0 0 -0 1 -0 
1 20 0 10 0 -1 0 1 0 0 -0 0 1 
2 0 0 0 0 0 1 1 0 -0 -0 1 0 20
1 0 0 10 0 0 1 1 0 -0 -0 1 0 
2 0 0 10 0 0 1 1 0 -0 -0 1 0 20
1 -4.4408920985006301e-015 -20 10 -1 2.2204460492503101e-016 0 -2.2204460492503101e-016 -1 0 0 0 1 
2 0 0 10 0 0 -1 1 0 0 -0 1 -0 10
2 0 0 20 0 0 -1 1 0 0 -0 1 -0 10
1 0 0 20 0 0 1 1 0 -0 -0 1 0 
2 0 0 30 0 0 -1 1 0 0 -0 1 -0 10
1 20 0 20 0 -1 0 1 0 0 -0 0 1 
1 0 0 30 0 0 1 1 0 -0 -0 1 0 
1 0 0 20 0 0 1 -1 0 0 -0 1 -0 
1 20 0 0 0 -1 0 1 0 0 -0 0 1 
1 0 0 0 0 0 1 -1 0 0 -0 1 -0 
2 0 0 20 0 0 1 1 0 -0 -0 1 0 20
Triangulations 0

TShapes 53
Ve
1.0001000025e-007
10 0 10
0 0

0101101
*
Ve
1.0001000025e-007
20 0 10
0 0

0101101
*
Ed
 1.0001000025e-007 1 1 0
1  1 0 0 10
2  1 1 0 0 10
2  2 2 0 0 10
0

0101000
+53 0 -52 0 *
Ve
1.0001000025e-007
-4.44089209850063e-015 -20 10
0 0

0101101
*
Ed
 1.0001000025e-007 1 1 0
1  2 0 4.71238898038469 6.28318530717959
2  3 3 0 4.71238898038469 6.28318530717959
2  4 4 0 4.71238898038469 6.28318530717959
2  5 1 0 4.71238898038469 6.28318530717959
2  6 5 0 4.71238898038469 6.28318530717959
0

0101000
+50 0 -52 0 *
Ve
1.0001000025e-007
-2.22044604925031e-015 -10 10
0 0

0101101
*
Ed
 1.0001000025e-007 1 1 0
1  3 0 0 10
2  7 1 0 0 10
2  8 6 0 0 10
0

0101000
+48 0 -50 0 *
Ed
 1.0001000025e-007 1 1 0
1  4 0 4.71238898038469 6.28318530717959
2  9 4 0 4.71238898038469 6.28318530717959
2  10 7 0 4.71238898038469 6.28318530717959
2  11 1 0 4.71238898038469 6.28318530717959
2  12 8 0 4.71238898038469 6.28318530717959
0

0101000
+48 0 -53 0 *
Wi

0101100
+51 0 -49 0 -47 0 +46 0 *
Fa
0  1e-007 1 0

0111000
+45 0 *
Ve
1.0001000025e-007
20 0 20
0 0

0101101
*
Ve
1.0001000025e-007
10 0 20
0 0

0101101
*
Ed
 1.0001000025e-007 1 1 0
1  5 0 0 10
2  13 9 0 0 10
2  14 2 0 0 10
0

0101000
+43 0 -42 0 *
Ed
 1.00005e-007 1 1 0
1  6 0 0 10
2  15 8 0 0 10
2  16 2 0 0 10
0

0101000
+42 0 -53 0 *
Ed
 1.00005e-007 1 1 0
1  7 0 0 10
2  17 5 0 0 10
2  18 2 0 0 10
0

0101000
+52 0 -43 0 *
Wi

0101100
+41 0 +40 0 +51 0 +39 0 *
Fa
0  1e-007 2 0

0111000
+38 0 *
Ve
1.0001000025e-007
10 0 30
0 0

0101101
*
Ed
 1e-007 1 1 0
1  8 0 0 10
3  19 20CN 10 0 0 10
2  21 11 0 0 10
3  22 23C0 8 0 0 10
0

0101000
+36 0 -42 0 *
Ed
 1.0001000025e-007 1 1 0
1  9 0 0 6.28318530717959
2  24 12 0 0 6.28318530717959
2  25 10 0 0 6.28318530717959
2  26 8 0 0 6.28318530717959
0

0101000
+36 0 -36 0 *
Ve
1.0001000025e-007
-2.22044604925031e-015 -10 20
0 0

0101101
*
Ed
 1.0001000025e-007 1 1 0
1  10 0 4.71238898038469 6.28318530717959
2  27 13 0 4.71238898038469 6.28318530717959
2  28 10 0 4.71238898038469 6.28318530717959
2  29 9 0 4.71238898038469 6.28318530717959
2  30 8 0 4.71238898038469 6.28318530717959
0

0101000
+33 0 -42 0 *
Ed
 1.00005e-007 1 1 0
1  11 0 0 10
2  31 8 0 0 10
2  32 6 0 0 10
0

0101000
+33 0 -48 0 *
Ve
1.0001000025e-007
10 0 0
0 0

0101101
*
Ed
 1e-007 1 1 0
1  12 0 0 10
3  33 34CN 7 0 0 10
2  35 14 0 0 10
3  36 37C0 8 0 0 10
0

0101000
+53 0 -30 0 *
Ed
 1.0001000025e-007 1 1 0
1  13 0 0 6.28318530717959
2  38 15 0 0 6.28318530717959
2  39 7 0 0 6.28318530717959
2  40 8 0 0 6.28318530717959
0

0101000
+30 0 -30 0 *
Wi

0101100
-40 0 -35 0 +34 0 +35 0 -32 0 +31 0 +46 0 +29 0 -28 0 -29 0 
*
Fa
0  1e-007 8 0

0111000
+27 0 *
Ve
1.0001000025e-007
20 0 0
0 0

0101101
*
Ed
 1e-007 1 1 0
1  14 0 0 10
3  41 42CN 3 0 0 10
2  43 14 0 0 10
3  44 45C0 5 0 0 10
0

0101000
+25 0 -52 0 *
Ed
 1.0001000025e-007 1 1 0
1  15 0 0 6.28318530717959
2  46 15 0 0 6.28318530717959
2  47 3 0 0 6.28318530717959
2  48 5 0 0 6.28318530717959
0

0101000
+25 0 -25 0 *
Ve
1.0001000025e-007
-4.44089209850063e-015 -20 20
0 0

0101101
*
Ed
 1.00005e-007 1 1 0
1  16 0 0 10
2  49 5 0 0 10
2  50 6 0 0 10
0

0101000
+50 0 -22 0 *
Ed
 1.0001000025e-007 1 1 0
1  17 0 4.71238898038469 6.28318530717959
2  51 13 0 4.71238898038469 6.28318530717959
2  52 16 0 4.71238898038469 6.28318530717959
2  53 5 0 4.71238898038469 6.28318530717959
0

0101000
+22 0 -43 0 *
Ve
1.0001000025e-007
20 0 30
0 0

0101101
*
Ed
 1e-007 1 1 0
1  18 0 0 10
3  54 55CN 16 0 0 10
2  56 11 0 0 10
3  57 58C0 5 0 0 10
0

0101000
+43 0 -19 0 *
Ed
 1.0001000025e-007 1 1 0
1  19 0 0 6.28318530717959
2  59 16 0 0 6.28318530717959
2  60 12 0 0 6.28318530717959
2  61 5 0 0 6.28318530717959
0

0101000
+19 0 -19 0 *
Wi

0101100
-39 0 -24 0 +23 0 +24 0 -49 0 +21 0 +20 0 +18 0 -17 0 -18 0 
*
Fa
0  1e-007 5 0

0111000
+16 0 *
Ed
 1.0001000025e-007 1 1 0
1  20 0 0 10
2  62 9 0 0 10
2  63 6 0 0 10
0

0101000
+22 0 -33 0 *
Wi

0101100
+14 0 +31 0 +47 0 +21 0 *
Fa
0  1e-007 6 0

0111000
+13 0 *
Wi

0101100
+41 0 -32 0 -14 0 +20 0 *
Fa
0  1e-007 9 0

0111000
+11 0 *
Wi

0101000
+17 0 *
Wi

0101000
-34 0 *
Fa
0  1e-007 12 0

0111000
+9 0 +8 0 *
Wi

0101000
+28 0 *
Wi

0101000
-23 0 *
Fa
0  1e-007 15 0

0111000
+6 0 +5 0 *
Sh

0101000
-44 0 +37 0 +26 0 +15 0 -12 0 -10 0 +7 0 +4 0 *
So

0100000
+3 0 *
Co

1100000
+2 0 *

+1 0 
0

