DBRep_DrawableShape

CASCADE Topology V1, (c) Matra-Datavision
Locations 12
1
              1               0               0               0 
              0               1               0               0 
              0               0               1               0 
1
              1               0               0               0 
              0               1               0               0 
              0               0               1            -0.5 
2  2 -1 0
1
2.22044604925031e-16              -1               0              -3 
              1 2.22044604925031e-16              -0           0.425 
              0               0               1            -0.3 
1
              1               0               0               0 
              0               1               0               0 
              0               0               1               0 
1
              1               0               0               0 
              0               1               0               0 
              0               0               1               0 
2  4 1 5 1 6 1 0
2  6 -1 5 -1 4 -1 0
2  2 -1 6 -1 5 -1 4 -1 0
2  5 1 6 1 0
2  6 -1 5 -1 0
2  2 -1 6 -1 5 -1 0
Curve2ds 12
1 0 0.30249645820891236 1 0 
1 0 0.38093732884081 1 0 
1 0 1.5701224186409655 1 0 
1 0 -3.2747745379856409e-17 1 0 
1 6.2831853071795862 -1.570796326794897 0 1 
1 0 -1.570796326794897 0 1 
1 0 0.28083892260232579 1 0 
1 0 -7.2861505266244063e-28 1 0 
1 6.2831853071795862 0 0 1 
1 0 0 0 1 
1 6.2831853071795862 0 0 1 
1 0 0 0 1 
Curves 6
2 -3 0.30583830363193898 -0.29999999999999999 0 1 0 -1 0 0 0 -0 1 0.38183830363080995
2 -3 0.0250000908284366 -0.29999999999999999 0 1 0 -1 0 0 0 -0 1 0.00026956324117000108
2 0 0 0 0 0 1 1 0 -0 -0 1 0 0.40000000000199998
2 -3 0.30583830362700004 -0.29999999999999999 0 1 0 -1 0 0 0 -0 1 0.00090097478999995317
1 -3.0002695632411722 0.025000090828436627 -0.29999999999999999 -0.0022483049820050212 0.99999747255916005 0 
1 -3.00090097479 0.30583830362699999 -0.29999999999999999 -1 1.3125519698810977e-11 0 
Polygon3D 0
PolygonOnTriangulations 0
Surfaces 3
4 -3 0.42499999999999999 -0.29999999999999999 -0 -1 -0 -1 0 0 0 -0 1 0.40000000000199998
3 -3 0.30583830362700004 -0.29999999999999999 0 1 0 -1 0 0 0 -0 1 0.00090097478999995317
1.5707963267817711
3 -3 0.025000090828436627 -0.29999999999999999 0 1 0 -1 0 0 0 -0 1 0.00026956324117222152
0.0022483068761595471
Triangulations 0

TShapes 17
Ve
1.00000811191168e-07
-3.38183830363081 0.305838303631939 -0.8
0 0

0101101
*
Ed
 1.00000811191168e-07 1 1 0
1  1 0 0 6.28318530717959
2  1 1 0 0 6.28318530717959
2  2 2 0 0 6.28318530717959
0

0101000
+17 3 -17 3 *
Ve
1e-07
-3.00026956324117 0.0250000908284366 -0.8
0 0

0101101
*
Ed
 1e-07 1 1 0
1  2 0 0 6.28318530717959
2  3 1 0 0 6.28318530717959
2  4 3 0 0 6.28318530717959
0

0101000
+15 3 -15 3 *
Ed
 1e-07 1 1 0
1  3 0 1.87329278500335 3.14091874543586
3  5 6CN 1 8 1.87329278500335 3.14091874543586
0

0101000
+17 9 -15 9 *
Wi

0101100
+16 0 -14 0 -13 7 +13 7 *
Fa
0  1e-07 1 0

0111000
+12 0 *
Ve
1e-07
-3.00090097479 0.305838303627 -0.8
0 0

0101101
*
Ed
 1e-07 1 1 0
1  4 0 0 6.28318530717959
2  7 3 0 0 6.28318530717959
2  8 2 0 0 6.28318530717959
0

0101000
+10 3 -10 3 *
Ed
 1e-07 1 1 0
1  5 0 0 0.280838922602326
3  9 10CN 3 11 0 0.280838922602326
0

0101000
+15 12 -10 12 *
Wi

0101100
+14 0 -9 0 -8 10 +8 10 *
Fa
0  1e-07 3 0

0111000
+7 0 *
Ed
 1e-07 1 1 0
1  6 0 0 0.38093732884
3  11 12CN 2 11 0 0.38093732884
0

0101000
+10 12 -17 12 *
Wi

0101100
+9 0 -16 0 -5 10 +5 10 *
Fa
0  1e-07 2 0

0111000
+4 0 *
Sh

0101100
-11 0 -6 0 -3 0 *
So

1100000
+2 0 *

+1 1 