CASCADE Topology V1, (c) Matra-Datavision
Locations 2
1
             -1 -1.22464679914735e-16               0 1.22464679914735e-15 
1.22464679914735e-16              -1               0              20 
              0               0               1               0 
2  1 -1 0
Curve2ds 54
1 0 0 1 0 
1 0 6.2831853071795862 1 0 
1 0 0 0 1 
2 5 75 1 0 -0 1 5
1 3.1415926535897931 0 0 1 
2 5 75 1 0 -0 1 5
1 0 0 1 0 
1 0 6.2831853071795862 1 0 
1 0 0 0 1 
2 1 75 1 0 -0 1 0.5
1 3.1415926535897931 0 0 1 
2 1 75 1 0 -0 1 0.5
1 0 0 1 0 
1 0 6.2831853071795862 1 0 
1 0 0 0 1 
2 2.1715728752538102 77.828427124746185 1 0 -0 1 0.5
1 3.1415926535897931 0 0 1 
2 2.1715728752538119 77.828427124746185 1 0 -0 1 0.5
1 0 0 1 0 
1 0 6.2831853071795862 1 0 
1 0 0 0 1 
2 2.1715728752538084 72.171572875253815 1 0 -0 1 0.5
1 3.1415926535897931 0 0 1 
2 2.1715728752538084 72.171572875253815 1 0 -0 1 0.5
1 0 0 1 0 
1 0 6.2831853071795862 1 0 
1 0 0 0 1 
2 9 75 1 0 -0 1 0.5
1 3.1415926535897931 0 0 1 
2 9 75 1 0 -0 1 0.5
1 0 0 1 0 
1 0 6.2831853071795862 1 0 
1 0 0 0 1 
2 5 71 1 0 -0 1 0.5
1 3.1415926535897931 0 0 1 
2 5 71 1 0 -0 1 0.5
1 0 0 1 0 
1 0 6.2831853071795862 1 0 
1 0 0 0 1 
2 5 79 1 0 -0 1 0.5
1 3.1415926535897931 0 0 1 
2 5 79 1 0 -0 1 0.5
1 0 0 1 0 
1 0 6.2831853071795862 1 0 
1 0 0 0 1 
2 7.8284271247461881 77.828427124746185 1 0 -0 1 0.5
1 3.1415926535897931 0 0 1 
2 7.8284271247461881 77.828427124746185 1 0 -0 1 0.5
1 0 0 1 0 
1 0 6.2831853071795862 1 0 
1 0 0 0 1 
2 7.8284271247461881 72.171572875253815 1 0 -0 1 0.5
1 3.1415926535897931 0 0 1 
2 7.8284271247461881 72.171572875253815 1 0 -0 1 0.5
Curves 26
2 0 16.300000000000001 75 1 0 -0 0 1 0 0 -0 1 5
2 6.1232339957367663e-16 26.300000000000001 75 -1 1.2246467991473532e-16 0 -1.2246467991473532e-16 -1 0 0 0 1 5
2 0 21.300000000000001 75 0 0 1 0 -1 0 1 0 -0 8.5
2 0 12.300000000000001 75 1 0 -0 0 1 0 0 -0 1 0.5
2 1.3838508830365093e-15 -10.300000000000001 75 1 0 0 0 1 0 0 0 1 0.5
2 0 21.300000000000001 77.828427124746185 0 0 1 0 -1 0 1 0 -0 7.3284271247461898
2 0 13.471572875253811 77.828427124746185 1 0 -0 0 1 0 0 -0 1 0.5
2 1.3838508830365093e-15 -9.1284271247461906 77.828427124746185 1 0 0 0 1 0 0 0 1 0.5
2 0 21.300000000000001 72.171572875253815 0 0 1 0 -1 0 1 0 -0 7.3284271247461907
2 0 13.471572875253809 72.171572875253815 1 0 -0 0 1 0 0 -0 1 0.5
2 1.3838508830365093e-15 -9.1284271247461923 72.171572875253815 1 0 0 0 1 0 0 0 1 0.5
2 0 21.300000000000001 75 0 0 1 0 -1 0 1 0 -0 0.5
2 0 20.300000000000001 75 1 0 -0 0 1 0 0 -0 1 0.5
2 1.3838508830365093e-15 -2.3000000000000007 75 1 0 0 0 1 0 0 0 1 0.5
2 0 21.300000000000001 71 0 0 1 0 -1 0 1 0 -0 4.5
2 0 16.300000000000001 71 1 0 -0 0 1 0 0 -0 1 0.5
2 1.3838508830365093e-15 -6.3000000000000007 71 1 0 0 0 1 0 0 0 1 0.5
2 0 21.300000000000001 79 0 0 1 0 -1 0 1 0 -0 4.5
2 0 16.300000000000001 79 1 0 -0 0 1 0 0 -0 1 0.5
2 1.3838508830365093e-15 -6.3000000000000007 79 1 0 0 0 1 0 0 0 1 0.5
2 0 21.300000000000001 77.828427124746185 0 0 1 0 -1 0 1 0 -0 1.6715728752538102
2 0 19.128427124746189 77.828427124746185 1 0 -0 0 1 0 0 -0 1 0.5
2 1.3838508830365093e-15 -3.4715728752538109 77.828427124746185 1 0 0 0 1 0 0 0 1 0.5
2 0 21.300000000000001 72.171572875253815 0 0 1 0 -1 0 1 0 -0 1.6715728752538102
2 0 19.128427124746189 72.171572875253815 1 0 -0 0 1 0 0 -0 1 0.5
2 1.3838508830365093e-15 -3.4715728752538109 72.171572875253815 1 0 0 0 1 0 0 0 1 0.5
Polygon3D 0
PolygonOnTriangulations 0
Surfaces 11
7 0 21.300000000000001 85 0 0 1 
8 0 6.2831853071795862
2 0 16.300000000000001 75 1 0 -0 0 1 0 0 -0 1 5
1 0 11.300000000000001 0 1 0 0 -0 1 0 0 -0 1 
1 1.2246467991473533e-15 31.300000000000001 0 -1 1.2246467991473532e-16 0 -1.2246467991473532e-16 -1 0 0 0 1 
7 0 21.300000000000001 85 0 0 1 
8 0 6.2831853071795862
2 0 12.300000000000001 75 1 0 -0 0 1 0 0 -0 1 0.5
7 0 21.300000000000001 85 0 0 1 
8 0 6.2831853071795862
2 0 13.471572875253811 77.828427124746185 1 0 -0 0 1 0 0 -0 1 0.5
7 0 21.300000000000001 85 0 0 1 
8 0 6.2831853071795862
2 0 13.471572875253809 72.171572875253815 1 0 -0 0 1 0 0 -0 1 0.5
7 0 21.300000000000001 85 0 0 1 
8 0 6.2831853071795862
2 0 20.300000000000001 75 1 0 -0 0 1 0 0 -0 1 0.5
7 0 21.300000000000001 85 0 0 1 
8 0 6.2831853071795862
2 0 16.300000000000001 71 1 0 -0 0 1 0 0 -0 1 0.5
7 0 21.300000000000001 85 0 0 1 
8 0 6.2831853071795862
2 0 16.300000000000001 79 1 0 -0 0 1 0 0 -0 1 0.5
7 0 21.300000000000001 85 0 0 1 
8 0 6.2831853071795862
2 0 19.128427124746189 77.828427124746185 1 0 -0 0 1 0 0 -0 1 0.5
7 0 21.300000000000001 85 0 0 1 
8 0 6.2831853071795862
2 0 19.128427124746189 72.171572875253815 1 0 -0 0 1 0 0 -0 1 0.5
Triangulations 0

TShapes 84
Ve
3.51003150195036e-05
0 21.3 75
0 0

0101101
*
Ed
 1.000500112515e-07 1 1 1
3  1 2CN 1 0 0 3.14159265358979
0

0101000
+84 0 -84 0 *
Ed
 1.51008200352546e-05 1 1 0
1  1 0 0 6.28318530717959
2  3 1 0 0 6.28318530717959
2  4 2 0 0 6.28318530717959
0

0101000
+84 0 -84 0 *
Ed
 1.01008300675076e-05 1 1 0
1  2 0 0 6.28318530717959
2  5 1 0 0 6.28318530717959
2  6 3 0 0 6.28318530717959
0

0101000
+84 0 -84 0 *
Wi

0101100
+83 0 -83 0 -82 0 +81 0 *
Fa
0  1.000500112515e-07 1 0

0111000
+80 0 *
Ve
1.51015750762563e-05
0 12.8 75
0 0

0101101
*
Ve
1.0101335109011e-05
1.04094977927525e-15 29.8 75
0 0

0101101
*
Ed
 1.000500112515e-07 1 1 0
1  3 0 0 3.14159265358979
3  7 8CN 4 0 0 3.14159265358979
0

0101000
+78 0 -77 0 *
Ed
 1.51015750762563e-05 1 1 0
1  4 0 0 6.28318530717959
2  9 4 0 0 6.28318530717959
2  10 2 0 0 6.28318530717959
0

0101000
+78 0 -78 0 *
Ed
 1.0101335109011e-05 1 1 0
1  5 0 0 6.28318530717959
2  11 4 2 0 6.28318530717959
2  12 3 2 0 6.28318530717959
0

0101000
+77 2 -77 2 *
Wi

0101100
+76 0 -76 0 -75 0 +74 1 *
Fa
0  1.000500112515e-07 4 0

0111000
+73 0 *
Ve
1.51015700727552e-05
0 13.9715728752538 77.8284271247462
0 0

0101101
*
Ve
1.01013301050095e-05
8.97473482110506e-16 28.6284271247462 77.8284271247462
0 0

0101101
*
Ed
 1.0004500900105e-07 1 1 0
1  6 0 0 3.14159265358979
3  13 14CN 5 0 0 3.14159265358979
0

0101000
+71 0 -70 0 *
Ed
 1.51015700727552e-05 1 1 0
1  7 0 0 6.28318530717959
2  15 5 0 0 6.28318530717959
2  16 2 0 0 6.28318530717959
0

0101000
+71 0 -71 0 *
Ed
 1.01013301050095e-05 1 1 0
1  8 0 0 6.28318530717959
2  17 5 2 0 6.28318530717959
2  18 3 2 0 6.28318530717959
0

0101000
+70 2 -70 2 *
Wi

0101100
+69 0 -69 0 -68 0 +67 1 *
Fa
0  1.0004500900105e-07 5 0

0111000
+66 0 *
Ve
1.51015650695042e-05
0 13.9715728752538 72.1715728752538
0 0

0101101
*
Ve
1.01013251012582e-05
8.97473482110506e-16 28.6284271247462 72.1715728752538
0 0

0101101
*
Ed
 1.000400070007e-07 1 1 0
1  9 0 0 3.14159265358979
3  19 20CN 6 0 0 3.14159265358979
0

0101000
+64 0 -63 0 *
Ed
 1.51015650695042e-05 1 1 0
1  10 0 0 6.28318530717959
2  21 6 0 0 6.28318530717959
2  22 2 0 0 6.28318530717959
0

0101000
+64 0 -64 0 *
Ed
 1.01013251012582e-05 1 1 0
1  11 0 0 6.28318530717959
2  23 6 2 0 6.28318530717959
2  24 3 2 0 6.28318530717959
0

0101000
+63 2 -63 2 *
Wi

0101100
+62 0 -62 0 -61 0 +60 1 *
Fa
0  1.000400070007e-07 6 0

0111000
+59 0 *
Ve
1.51015600665034e-05
0 20.8 75
0 0

0101101
*
Ve
1.01013200977571e-05
6.12323399573678e-17 21.8 75
0 0

0101101
*
Ed
 1.00035005250438e-07 1 1 0
1  12 0 0 3.14159265358979
3  25 26CN 7 0 0 3.14159265358979
0

0101000
+57 0 -56 0 *
Ed
 1.51015600665034e-05 1 1 0
1  13 0 0 6.28318530717959
2  27 7 0 0 6.28318530717959
2  28 2 0 0 6.28318530717959
0

0101000
+57 0 -57 0 *
Ed
 1.01013200977571e-05 1 1 0
1  14 0 0 6.28318530717959
2  29 7 2 0 6.28318530717959
2  30 3 2 0 6.28318530717959
0

0101000
+56 2 -56 2 *
Wi

0101100
+55 0 -55 0 -54 0 +53 1 *
Fa
0  1.00035005250438e-07 7 0

0111000
+52 0 *
Ve
1.51015550637527e-05
0 16.8 71
0 0

0101101
*
Ve
1.01013150945061e-05
5.51091059616309e-16 25.8 71
0 0

0101101
*
Ed
 1.0003000375025e-07 1 1 0
1  15 0 0 3.14159265358979
3  31 32CN 8 0 0 3.14159265358979
0

0101000
+50 0 -49 0 *
Ed
 1.51015550637527e-05 1 1 0
1  16 0 0 6.28318530717959
2  33 8 0 0 6.28318530717959
2  34 2 0 0 6.28318530717959
0

0101000
+50 0 -50 0 *
Ed
 1.01013150945061e-05 1 1 0
1  17 0 0 6.28318530717959
2  35 8 2 0 6.28318530717959
2  36 3 2 0 6.28318530717959
0

0101000
+49 2 -49 2 *
Wi

0101100
+48 0 -48 0 -47 0 +46 1 *
Fa
0  1.0003000375025e-07 8 0

0111000
+45 0 *
Ve
1.51015500612521e-05
0 16.8 79
0 0

0101101
*
Ve
1.01013100915053e-05
5.51091059616309e-16 25.8 79
0 0

0101101
*
Ed
 1.00025002500125e-07 1 1 0
1  18 0 0 3.14159265358979
3  37 38CN 9 0 0 3.14159265358979
0

0101000
+43 0 -42 0 *
Ed
 1.51015500612521e-05 1 1 0
1  19 0 0 6.28318530717959
2  39 9 0 0 6.28318530717959
2  40 2 0 0 6.28318530717959
0

0101000
+43 0 -43 0 *
Ed
 1.01013100915053e-05 1 1 0
1  20 0 0 6.28318530717959
2  41 9 2 0 6.28318530717959
2  42 3 2 0 6.28318530717959
0

0101000
+42 2 -42 2 *
Wi

0101100
+41 0 -41 0 -40 0 +39 1 *
Fa
0  1.00025002500125e-07 9 0

0111000
+38 0 *
Ve
1.51015450590017e-05
0 19.6284271247462 77.8284271247462
0 0

0101101
*
Ve
1.01013050887546e-05
2.04708637122112e-16 22.9715728752538 77.8284271247462
0 0

0101101
*
Ed
 1.0002000150005e-07 1 1 0
1  21 0 0 3.14159265358979
3  43 44CN 10 0 0 3.14159265358979
0

0101000
+36 0 -35 0 *
Ed
 1.51015450590017e-05 1 1 0
1  22 0 0 6.28318530717959
2  45 10 0 0 6.28318530717959
2  46 2 0 0 6.28318530717959
0

0101000
+36 0 -36 0 *
Ed
 1.01013050887546e-05 1 1 0
1  23 0 0 6.28318530717959
2  47 10 2 0 6.28318530717959
2  48 3 2 0 6.28318530717959
0

0101000
+35 2 -35 2 *
Wi

0101100
+34 0 -34 0 -33 0 +32 1 *
Fa
0  1.0002000150005e-07 10 0

0111000
+31 0 *
Ve
1.51015400570013e-05
0 19.6284271247462 72.1715728752538
0 0

0101101
*
Ve
1.0101300086254e-05
2.04708637122112e-16 22.9715728752538 72.1715728752538
0 0

0101101
*
Ed
 1.00015000750013e-07 1 1 0
1  24 0 0 3.14159265358979
3  49 50CN 11 0 0 3.14159265358979
0

0101000
+29 0 -28 0 *
Ed
 1.51015400570013e-05 1 1 0
1  25 0 0 6.28318530717959
2  51 11 0 0 6.28318530717959
2  52 2 0 0 6.28318530717959
0

0101000
+29 0 -29 0 *
Ed
 1.0101300086254e-05 1 1 0
1  26 0 0 6.28318530717959
2  53 11 2 0 6.28318530717959
2  54 3 2 0 6.28318530717959
0

0101000
+28 2 -28 2 *
Wi

0101100
+27 0 -27 0 -26 0 +25 1 *
Fa
0  1.00015000750013e-07 11 0

0111000
+24 0 *
Wi

0101100
+82 0 *
Wi

0101100
+75 0 *
Wi

0101100
+68 0 *
Wi

0101100
+61 0 *
Wi

0101100
+54 0 *
Wi

0101100
+47 0 *
Wi

0101100
+40 0 *
Wi

0101100
+33 0 *
Wi

0101100
+26 0 *
Fa
0  5.1e-06 2 0

0111000
+22 0 -21 0 -20 0 -19 0 -18 0 -17 0 -16 0 -15 0 -14 0 *
Wi

0101100
+81 0 *
Wi

0101100
+74 0 *
Wi

0101100
+67 0 *
Wi

0101100
+60 0 *
Wi

0101100
+53 0 *
Wi

0101100
+46 0 *
Wi

0101100
+39 0 *
Wi

0101100
+32 0 *
Wi

0101100
+25 0 *
Fa
0  1.01e-05 3 0

0111000
+12 0 -11 1 -10 1 -9 1 -8 1 -7 1 -6 1 -5 1 -4 1 *
Sh

0101100
+79 0 -72 0 -65 0 -58 0 -51 0 -44 0 -37 0 -30 0 -23 0 +13 0 
-3 0 *
So

1100000
-2 0 *

+1 0 