DBRep_DrawableShape

CASCADE Topology V1, (c) Matra-Datavision
Locations 0
Curve2ds 0
Curves 0
Polygon3D 0
PolygonOnTriangulations 0
Surfaces 1
1 90 75 38 -0 -1 -0 0 0 -1 1 -0 0 
Triangulations 0

TShapes 3
Fa
0  2.22044604925031e-16 1 0

0101000
*
Sh

0101000
+3 0 *
So

1100000
+2 0 *

+1 0 