DBRep_DrawableShape

CASCADE Topology V1, (c) Matra-Datavision
Locations 7
1
              1               0               0               0 
              0               1               0               0 
              0               0               1               0 
1
              1               0               0               0 
              0               1               0               0 
              0               0               1               0 
2  1 1 2 1 0
1
              1               0               0               0 
              0               1               0               0 
              0               0               1               4 
2  1 1 2 1 4 1 0
2  2 -1 1 -1 0
2  4 -1 2 -1 1 -1 0
Curve2ds 10
1 0 0 0 -1 
1 11.389334906673653 0 0 -1 
7 0 0  2 45 25  3.6093750000000004 0.84765625  3.46875 1.177734375  3.328125 1.5078125  2.392578125 1.5078125  1.45703125 1.5078125  1.345703125 1.25  1.234375 0.99218750000000011  1.125 0.734375  1.125 0.34375  1.3046875 0.23828125000000003  1.41015625 0.17578125  1.8242187500000002 0.14453125  1.8242187500000002 0.072265625  1.8242187500000002 0  0.94335937500000011 0  0.0625 0  0.0625 0.072265625  0.0625 0.14453125  0.34765625 0.1875  0.71484375 0.57421875  0.98437500000000011 1.1796875  1.931640625 3.29296875  2.87890625 5.40625  2.916015625 5.40625  2.953125 5.40625  3.908203125 3.234375  4.86328125 1.0625  5.13671875 0.44531250000000006  5.3125 0.28515625  5.4453125 0.1640625  5.6875 0.14453125  5.6875 0.072265625  5.6875 0  4.40625 0  3.125 0  3.125 0.072265625  3.125 0.14453125  3.177734375 0.14453125  3.5390625000000004 0.14453125  3.6640625000000004 0.23046875000000003  3.7500000000000004 0.29296875  3.7500000000000004 0.48046875000000006  3.7265625000000004 0.5546875  3.7187500000000004 0.58984375  3.6093750000000004 0.84765625 
 0 3 0.71757078878258607 2 2.5886645387825862 2 3.1503093965789186 2 3.7104171568581354 1 4.4528855832747718 2 4.8897583468063477 2 4.9657887820206223 2 5.8925381409838078 2 5.9685685761980825 2 6.271967474341678 1 6.5753663724852736 2 7.6355427583594215 2 7.6525309418810386 2 8.7386745016219756 2 9.0477021429701843 2 9.2812656827921316 2 9.3507325017831082 2 10.58236042767718 2 10.651827246668157 2 10.702519249715627 1 10.999161341623042 2 11.206962500009418 1 11.331643195041243 2 11.389334906673653 3
1 0 0 1 0 
1 0 -4 1 0 
1 0 0 0 -1 
1 5.5861025239124933 0 0 -1 
7 0 0  1 4 4  1.59375 1.7968750000000002  3.1953125 1.7968750000000002  2.40625 3.6210937500000004  1.59375 1.7968750000000002 
 0 2 1.6015625 1 3.5891222291044644 1 5.5861025239124933 2
1 0 0 1 0 
1 0 -4 1 0 
Curves 4
1 3.6093750000000004 0.84765625 0 0 0 1 
7 0 0  2 45 25  3.6093750000000004 0.84765625 0  3.46875 1.177734375 0  3.328125 1.5078125 0  2.392578125 1.5078125 0  1.45703125 1.5078125 0  1.345703125 1.25 0  1.234375 0.99218750000000011 0  1.125 0.734375 0  1.125 0.34375 0  1.3046875 0.23828125000000003 0  1.41015625 0.17578125 0  1.8242187500000002 0.14453125 0  1.8242187500000002 0.072265625 0  1.8242187500000002 0 0  0.94335937500000011 0 0  0.0625 0 0  0.0625 0.072265625 0  0.0625 0.14453125 0  0.34765625 0.1875 0  0.71484375 0.57421875 0  0.98437500000000011 1.1796875 0  1.931640625 3.29296875 0  2.87890625 5.40625 0  2.916015625 5.40625 0  2.953125 5.40625 0  3.908203125 3.234375 0  4.86328125 1.0625 0  5.13671875 0.44531250000000006 0  5.3125 0.28515625 0  5.4453125 0.1640625 0  5.6875 0.14453125 0  5.6875 0.072265625 0  5.6875 0 0  4.40625 0 0  3.125 0 0  3.125 0.072265625 0  3.125 0.14453125 0  3.177734375 0.14453125 0  3.5390625000000004 0.14453125 0  3.6640625000000004 0.23046875000000003 0  3.7500000000000004 0.29296875 0  3.7500000000000004 0.48046875000000006 0  3.7265625000000004 0.5546875 0  3.7187500000000004 0.58984375 0  3.6093750000000004 0.84765625 0 
 0 3 0.71757078878258607 2 2.5886645387825862 2 3.1503093965789186 2 3.7104171568581354 1 4.4528855832747718 2 4.8897583468063477 2 4.9657887820206223 2 5.8925381409838078 2 5.9685685761980825 2 6.271967474341678 1 6.5753663724852736 2 7.6355427583594215 2 7.6525309418810386 2 8.7386745016219756 2 9.0477021429701843 2 9.2812656827921316 2 9.3507325017831082 2 10.58236042767718 2 10.651827246668157 2 10.702519249715627 1 10.999161341623042 2 11.206962500009418 1 11.331643195041243 2 11.389334906673653 3
1 1.59375 1.7968750000000002 0 0 0 1 
7 0 0  1 4 4  1.59375 1.7968750000000002 0  3.1953125 1.7968750000000002 0  2.40625 3.6210937500000004 0  1.59375 1.7968750000000002 0 
 0 2 1.6015625 1 3.5891222291044644 1 5.5861025239124933 2
Polygon3D 0
PolygonOnTriangulations 0
Surfaces 3
6 -0 -0 -1 
7 0 0  2 45 25  3.6093750000000004 0.84765625 0  3.46875 1.177734375 0  3.328125 1.5078125 0  2.392578125 1.5078125 0  1.45703125 1.5078125 0  1.345703125 1.25 0  1.234375 0.99218750000000011 0  1.125 0.734375 0  1.125 0.34375 0  1.3046875 0.23828125000000003 0  1.41015625 0.17578125 0  1.8242187500000002 0.14453125 0  1.8242187500000002 0.072265625 0  1.8242187500000002 0 0  0.94335937500000011 0 0  0.0625 0 0  0.0625 0.072265625 0  0.0625 0.14453125 0  0.34765625 0.1875 0  0.71484375 0.57421875 0  0.98437500000000011 1.1796875 0  1.931640625 3.29296875 0  2.87890625 5.40625 0  2.916015625 5.40625 0  2.953125 5.40625 0  3.908203125 3.234375 0  4.86328125 1.0625 0  5.13671875 0.44531250000000006 0  5.3125 0.28515625 0  5.4453125 0.1640625 0  5.6875 0.14453125 0  5.6875 0.072265625 0  5.6875 0 0  4.40625 0 0  3.125 0 0  3.125 0.072265625 0  3.125 0.14453125 0  3.177734375 0.14453125 0  3.5390625000000004 0.14453125 0  3.6640625000000004 0.23046875000000003 0  3.7500000000000004 0.29296875 0  3.7500000000000004 0.48046875000000006 0  3.7265625000000004 0.5546875 0  3.7187500000000004 0.58984375 0  3.6093750000000004 0.84765625 0 
 0 3 0.71757078878258607 2 2.5886645387825862 2 3.1503093965789186 2 3.7104171568581354 1 4.4528855832747718 2 4.8897583468063477 2 4.9657887820206223 2 5.8925381409838078 2 5.9685685761980825 2 6.271967474341678 1 6.5753663724852736 2 7.6355427583594215 2 7.6525309418810386 2 8.7386745016219756 2 9.0477021429701843 2 9.2812656827921316 2 9.3507325017831082 2 10.58236042767718 2 10.651827246668157 2 10.702519249715627 1 10.999161341623042 2 11.206962500009418 1 11.331643195041243 2 11.389334906673653 3
1 0 0 0 0 0 1 1 0 -0 -0 1 0 
6 -0 -0 -1 
7 0 0  1 4 4  1.59375 1.7968750000000002 0  3.1953125 1.7968750000000002 0  2.40625 3.6210937500000004 0  1.59375 1.7968750000000002 0 
 0 2 1.6015625 1 3.5891222291044644 1 5.5861025239124933 2
Triangulations 0

TShapes 16
Ve
1e-007
3.609375 0.84765625 0
0 0

0101101
*
Ed
 1e-007 1 1 0
1  1 0 0 4
3  1 2C0 1 0 0 4
0

0101000
+16 3 -16 5 *
Ed
 1e-007 1 1 0
1  2 0 0 11.3893349066737
2  3 2 0 0 11.3893349066737
2  4 1 6 0 11.3893349066737
2  5 1 7 0 11.3893349066737
0

0101100
+16 0 -16 0 *
Wi

0101000
+15 0 -15 0 -14 3 +14 5 *
Fa
0  1e-007 1 0

0101000
+13 0 *
Ve
1e-007
1.59375 1.796875 0
0 0

0101101
*
Ed
 1e-007 1 1 0
1  3 0 0 4
3  6 7C0 3 0 0 4
0

0101000
+11 3 -11 5 *
Ed
 1e-007 1 1 0
1  4 0 0 5.58610252391249
2  8 2 0 0 5.58610252391249
2  9 3 6 0 5.58610252391249
2  10 3 7 0 5.58610252391249
0

0101100
+11 0 -11 0 *
Wi

0101000
+10 0 -10 0 -9 3 +9 5 *
Fa
0  1e-007 3 0

0101000
+8 0 *
Wi

0101100
+14 0 *
Wi

0101100
+9 0 *
Fa
0  1e-007 2 0

0101000
-6 0 -5 0 *
Sh

0101000
-12 0 -7 0 +4 3 -4 5 *
So

0100000
-3 0 *
Co

1100000
+2 0 *

+1 0 
0

