DBRep_DrawableShape

CASCADE Topology V1, (c) Matra-Datavision
Locations 12
1
-0.999575256310251 0.029142871723551               0 600005529.72342 
-0.029142871723551 -0.999575256310251               0 133338714.029555 
              0               0               1            8000 
2  1 -1 0
1
              1               0               0               0 
              0               1               0               0 
              0               0               1            3000 
2  3 -1 0
2  1 -1 3 -1 0
1
             -1               0               0 143.750000000006 
              0               0               1 -67.9999999999997 
              0               1               0         2103.75 
1
-0.999575256310251 0.029142871723551               0 600005529.72342 
-0.029142871723551 -0.999575256310251               0 133338714.029555 
              0               0               1            8000 
2  6 1 7 1 0
2  7 -1 6 -1 0
1
              1               0               0               0 
              0               1               0               0 
              0               0               1             116 
2  10 -1 0
2  7 -1 6 -1 10 -1 0
Curve2ds 30
1 0 -0 0 -1 
1 95.999999999999787 0 0 -1 
1 204.99999999999699 0 0 -1 
1 0 0 0 -1 
1 0 -0 1 0 
1 102.49999999999848 47.999999999999893 -1 0 
1 0 -3000 1 0 
1 102.49999999999848 47.999999999999893 -1 0 
1 95.999999999999787 0 0 -1 
1 0 0 0 -1 
1 0 0 1 0 
1 -102.49999999999849 47.999999999999893 0 -1 
1 0 -3000 1 0 
1 -102.49999999999849 47.999999999999893 0 -1 
1 204.99999999999699 0 0 -1 
1 0 0 0 -1 
1 0 0 1 0 
1 -102.49999999999849 -47.999999999999893 1 0 
1 0 -3000 1 0 
1 -102.49999999999849 -47.999999999999893 1 0 
1 0 0 1 0 
1 102.49999999999848 -47.999999999999893 0 1 
1 0 -3000 1 0 
1 102.49999999999848 -47.999999999999893 0 1 
1 0 0 0 -1 
1 6.2831853071795862 0 0 -1 
1 0 0 1 0 
2 2.8005173914407386e-15 -2.4916989321708564e-16 1 0 -0 1 62.5
1 0 -116 1 0 
2 2.8005173914407386e-15 -2.4916989321708564e-16 1 0 -0 1 62.5
Curves 15
1 204.99999999999648 47.999999999999893 0 0 0 1 
1 -4.9737991503207013e-13 47.999999999999893 0 0 0 1 
1 204.99999999999648 47.999999999999893 0 -1 0 0 
1 204.99999999999648 47.999999999999893 0 -1 0 0 
1 -4.9737991503207013e-13 -47.999999999999893 0 0 0 1 
1 -4.9737991503207013e-13 47.999999999999893 0 0 -1 0 
1 -4.9737991503207013e-13 47.999999999999893 0 0 -1 0 
1 204.99999999999648 -47.999999999999893 0 0 0 1 
1 -4.9737991503207013e-13 -47.999999999999893 0 1 0 0 
1 -4.9737991503207013e-13 -47.999999999999893 0 1 0 0 
1 204.99999999999648 -47.999999999999893 0 0 1 0 
1 204.99999999999648 -47.999999999999893 0 0 1 0 
1 62.5 0 0 0 0 1 
2 0 0 0 0 0 1 1 0 -0 -0 1 0 62.5
2 0 0 0 0 0 1 1 0 -0 -0 1 0 62.5
Polygon3D 0
PolygonOnTriangulations 0
Surfaces 9
1 204.99999999999648 47.999999999999893 0 0 -1 0 -1 0 0 -0 -0 -1 
1 204.99999999999648 -47.999999999999893 0 -1 0 0 0 1 0 0 0 -1 
1 -4.9737991503207013e-13 47.999999999999893 0 1 0 -0 0 -1 0 0 -0 -1 
1 102.499999999998 0 0 0 0 1 1 0 -0 -0 1 0 
1 102.499999999998 0 0 0 0 1 1 0 -0 -0 1 0 
1 -4.9737991503207013e-13 -47.999999999999893 0 0 1 0 1 0 0 0 0 -1 
2 0 0 0 -0 -0 -1 1 0 0 -0 1 -0 62.5
1 -2.8005173914407386e-15 2.4916989321708564e-16 0 0 0 1 1 0 -0 -0 1 0 
1 -2.8005173914407386e-15 2.4916989321708564e-16 0 0 0 1 1 0 -0 -0 1 0 
Triangulations 0

TShapes 49
Ve
1e-05
600005326.20935 133338660.075654 8000
0 0

0101101
*
Ve
1e-05
600005326.20935 133338660.075654 11000
0 0

0101101
*
Ed
 1e-05 1 1 0
1  1 0 0 3000
2  1 1 0 0 3000
2  2 2 0 0 3000
0

0101000
+49 2 -48 2 *
Ve
1e-05
600005531.122278 133338666.049943 8000
0 0

0101101
*
Ve
1e-05
600005531.122278 133338666.049943 11000
0 0

0101101
*
Ed
 1e-05 1 1 0
1  2 0 0 3000
2  3 1 0 0 3000
2  4 3 0 0 3000
0

0101000
+46 2 -45 2 *
Ed
 1e-05 1 1 0
1  3 0 0 204.999999999997
2  5 1 0 0 204.999999999997
2  6 4 0 0 204.999999999997
0

0101000
+49 2 -46 2 *
Ed
 1e-05 1 1 0
1  4 0 0 204.999999999997
2  7 1 4 0 204.999999999997
2  8 5 0 0 204.999999999997
0

0101000
+48 5 -45 5 *
Wi

0101100
+47 0 -44 0 -43 0 +42 3 *
Fa
0  1e-05 1 0

0111000
+41 0 *
Ve
1e-05
600005528.324562 133338762.009167 8000
0 0

0101101
*
Ve
1e-05
600005528.324562 133338762.009167 11000
0 0

0101101
*
Ed
 1e-05 1 1 0
1  5 0 0 3000
2  9 3 0 0 3000
2  10 6 0 0 3000
0

0101000
+39 2 -38 2 *
Ed
 1e-05 1 1 0
1  6 0 0 95.9999999999998
2  11 3 0 0 95.9999999999998
2  12 4 0 0 95.9999999999998
0

0101000
+46 2 -39 2 *
Ed
 1e-05 1 1 0
1  7 0 0 95.9999999999998
2  13 3 4 0 95.9999999999998
2  14 5 0 0 95.9999999999998
0

0101000
+45 5 -38 5 *
Wi

0101100
+44 0 -37 0 -36 0 +35 3 *
Fa
0  1e-05 3 0

0111000
+34 0 *
Ve
1e-05
600005323.411635 133338756.034879 8000
0 0

0101101
*
Ve
1e-05
600005323.411635 133338756.034879 11000
0 0

0101101
*
Ed
 1e-05 1 1 0
1  8 0 0 3000
2  15 6 0 0 3000
2  16 2 0 0 3000
0

0101000
+32 2 -31 2 *
Ed
 1e-05 1 1 0
1  9 0 0 204.999999999997
2  17 6 0 0 204.999999999997
2  18 4 0 0 204.999999999997
0

0101000
+39 2 -32 2 *
Ed
 1e-05 1 1 0
1  10 0 0 204.999999999997
2  19 6 4 0 204.999999999997
2  20 5 0 0 204.999999999997
0

0101000
+38 5 -31 5 *
Wi

0101100
+37 0 -30 0 -29 0 +28 3 *
Fa
0  1e-05 6 0

0111000
+27 0 *
Ed
 1e-05 1 1 0
1  11 0 0 95.9999999999998
2  21 2 0 0 95.9999999999998
2  22 4 0 0 95.9999999999998
0

0101000
+32 2 -49 2 *
Ed
 1e-05 1 1 0
1  12 0 0 95.9999999999998
2  23 2 4 0 95.9999999999998
2  24 5 0 0 95.9999999999998
0

0101000
+31 5 -48 5 *
Wi

0101100
+30 0 -47 0 -25 0 +24 3 *
Fa
0  1e-05 2 0

0111000
+23 0 *
Wi

0101100
+43 0 +36 0 +29 0 +25 0 *
Fa
0  1e-05 4 0

0111000
+21 0 *
Wi

0101100
+42 0 +35 0 +28 0 +24 0 *
Fa
0  1e-05 5 0

0111000
+19 0 *
Sh

0101100
+40 0 +33 0 +26 0 +22 0 +20 0 -18 3 *
So

0100000
-17 0 *
Ve
1.00149011611938e-05
600005446.526215 133338779.632814 10103.75
0 0

0101101
*
Ve
1.00149011611938e-05
600005449.906788 133338663.682084 10103.75
0 0

0101101
*
Ed
 1e-05 1 1 0
1  13 0 0 116
3  25 26CN 7 0 0 116
0

0101000
+15 9 -14 9 *
Ed
 1e-05 1 1 0
1  14 0 0 6.28318530717959
2  27 7 0 0 6.28318530717959
2  28 8 0 0 6.28318530717959
0

0101000
+15 9 -15 9 *
Ed
 1e-05 1 1 0
1  15 0 0 6.28318530717959
2  29 7 11 0 6.28318530717959
2  30 9 0 0 6.28318530717959
0

0101000
+14 12 -14 12 *
Wi

0101100
+13 0 -13 0 -12 0 +11 10 *
Fa
0  1e-05 7 0

0111000
+10 0 *
Wi

0101100
+12 0 *
Fa
0  1e-05 8 0

0111000
+8 0 *
Wi

0101100
+11 0 *
Fa
0  1e-05 9 0

0111000
+6 0 *
Sh

0101100
+9 0 +7 0 -5 10 *
So

0100000
-4 0 *
Co

0100000
+3 8 *
Co

1100000
+16 1 +2 0 *

+1 0 
0

