DBRep_DrawableShape

CASCADE Topology V1, (c) Matra-Datavision
Locations 0
Curve2ds 26
7 0 0  1 2 2  8.7157548023242271e-007 8.7157554418126892e-007  179.00000087157548 8.7157554418126892e-007 
 8.7157548023242271e-007 2 179.00000087157548 2
7 0 0  1 2 2  8.7157548023242271e-007 8.7157551220684581e-007  179.00000087157548 8.7157551220684581e-007 
 8.7157548023242271e-007 2 179.00000087157548 2
7 0 0  3 32 30  179.00000087157548 8.7157555173078549e-007  179.00000087157548 3.237183848696926  178.82432606291241 9.7115523816977785  178.03456489464014 19.394523698567347  176.72087890115185 29.020420855714143  174.88713403234129 38.560915804387264  172.53872668113632 47.987932712270407  169.68256780277355 57.273729454011345  166.32706257734151 66.39097955500894  162.48208567373473 75.312852526153137  158.15895219416757 84.013092847099912  153.3703843610507 92.466097210837816  148.13047413271136 100.64698992746837  142.45464152789702 108.53169591915299  136.35959001355593 116.09701235076452  129.96637092674672 123.20601269826534  123.20601269826525 129.96637092674678  116.0970123507644 136.35959001355604  108.53169591915287 142.45464152789705  100.64698992746828 148.13047413271138  92.466097210837745 153.37038436105087  84.013092847099699 158.15895219416763  75.312852526153051 162.48208567373487  66.390979555008798 166.32706257734159  57.273729454011303 169.68256780277366  47.9879327122703 172.53872668113638  38.560915804387136 174.88713403234141  29.020420855713887 176.72087890115199  19.394523698567156 178.03456489464025  9.7115523816976133 178.82432606291241  3.2371838486969864 179.00000087157554  8.7157548023242271e-007 179.00000087157554 
 0 4 9.7115489313641206 1 19.423097862728259 1 29.134646794092369 1 38.846195725456489 1 48.557744656820617 1 58.269293588184752 1 67.980842519548858 1 77.692391450912979 1 87.403940382277113 1 97.115489313641248 1 106.82703824500541 1 116.53858717636953 1 126.25013610773368 1 135.96168503909783 1 145.21077925944456 1 154.92232819080868 1 164.63387712217283 1 174.34542605353698 1 184.0569749849011 1 193.76852391626517 1 203.48007284762932 1 213.19162177899341 1 222.90317071035753 1 232.61471964172156 1 242.32626857308557 1 252.03781750444963 1 261.74936643581395 1 271.46091536717847 1 281.17246429854299 4
7 0 0  10 38 5  148.10023386739141 0  144.39624172404754 0  140.69427696223477 0  136.99475214379225 0  133.2914380707017 0  129.58452122129137 0  125.88731813082194 0  122.18189067890856 0  118.48036594159149 0  114.77768984184554 0  107.37266053994641 0  103.67015025099263 0  99.967643423644233 0  96.265139157786265 0  92.562636552813586 0  88.860134708776229 0  85.157632725046298 0  81.45512970154671 0  77.752624737848194 0  70.347609129542704 0  66.645104165848565 0  62.942601142333551 0  59.240099158637783 0  55.537597314545785 0  51.835094709636707 0  48.132590443725263 0  44.430083616408261 0  40.727573327442343 0  33.32254402554701 0  29.619867925793812 0  25.918343188496706 0  22.21291573654042 0  18.515712646140862 0  14.808795796645244 0  11.1054817236316 0  7.4059569051404548 0  3.7039921433479108 0  -3.6409209362473701e-016 0 
 0 11 70.293116074635748 9 140.5862321492715 9 210.87934822390724 9 281.17246429854299 11
7 0 0  1 2 2  8.7157548023242271e-007 179.00000087157554  8.7157548023242271e-007 8.7157545181071328e-007 
 8.7157548023242271e-007 2 179.00000087157557 2
7 0 0  1 2 2  179.00000087157548 8.715754979959911e-007  8.7157548023242271e-007 8.715754979959911e-007 
 8.7157548023242271e-007 2 179.00000087157557 2
7 0 0  1 2 2  148.10023386739141 0  148.10023386739141 205.7176896952401 
 0 2 205.7176896952401 2
7 0 0  9 18 3  179.00000087157554 8.7157549444327742e-007  171.80125129956002 8.8766315414096368  164.11729841347298 17.371564447932702  155.96993396537894 25.451948635776912  147.41038776107175 33.068633174814813  138.44295085709925 40.219605469771452  129.09386031307233 46.883009937151137  119.41650507534577 53.015480460431966  109.42682629100001 58.61608062174232  88.904371846402981 68.705331968806334  78.370064824085048 73.195509150096328  67.597580946294187 77.112965028205778  56.62555754614872 80.447521996895659  45.468800994928131 83.180556376160496  34.223838790265951 85.307244706021365  22.843494752612166 86.824000817227699  11.425346880717097 87.720651590896892  8.7157550154870478e-007 88.000000871575523 
 0 10 102.85884484762005 8 205.7176896952401 10
7 0 0  1 2 2  148.10023386739141 205.7176896952401  0 205.7176896952401 
 0 2 148.10023386739141 2
7 0 0  1 2 2  0 205.7176896952401  0 0 
 0 2 205.7176896952401 2
7 0 0  9 18 3  8.7157549444327742e-007 88.000000871575494  11.425346880716068 87.720651590896068  22.843494752616198 86.824000817231166  34.22383879025751 85.307244706014203  45.468800994940267 83.180556376168582  56.625557546135738 80.447521996889407  67.597580946304333 77.11296502820953  78.370064824079876 73.195509150094992  88.904371846404587 68.705331968806647  109.42682629099816 58.616080621741787  119.41650507535138 53.015480460433672  129.09386031306298 46.883009937148039  138.44295085710954 40.219605469774251  147.41038776106043 33.068633174812277  155.9699339653894 25.451948635779321  164.11729841346673 17.371564447931217  171.80125129956161 8.8766315414099424  179.00000087157548 8.7157547312699535e-007 
 0 10 102.85884484762005 8 205.7176896952401 10
7 0 0  1 2 2  8.7157548023242271e-007 88.000000871575509  8.7157548023242271e-007 8.7157548023242271e-007 
 8.7157548023242281e-007 2 88.000000871575509 2
7 0 0  1 2 2  8.7157548023242271e-007 88.000000871575509  8.7157548023242271e-007 8.7157548023242271e-007 
 8.7157548023242281e-007 2 88.000000871575509 2
7 0 0  1 2 2  8.7157548023242271e-007 8.7157554418126892e-007  179.00000087157548 8.7157554418126892e-007 
 8.7157548023242271e-007 2 179.00000087157548 2
7 0 0  1 2 2  8.7157548023242271e-007 8.7157551220684581e-007  179.00000087157548 8.7157551220684581e-007 
 8.7157548023242271e-007 2 179.00000087157548 2
7 0 0  3 32 30  179.00000087157548 8.7157555173078549e-007  179.00000087157548 3.237183848696926  178.82432606291241 9.7115523816977785  178.03456489464014 19.394523698567347  176.72087890115185 29.020420855714143  174.88713403234129 38.560915804387264  172.53872668113632 47.987932712270407  169.68256780277355 57.273729454011345  166.32706257734151 66.39097955500894  162.48208567373473 75.312852526153137  158.15895219416757 84.013092847099912  153.3703843610507 92.466097210837816  148.13047413271136 100.64698992746837  142.45464152789702 108.53169591915299  136.35959001355593 116.09701235076452  129.96637092674672 123.20601269826534  123.20601269826525 129.96637092674678  116.0970123507644 136.35959001355604  108.53169591915287 142.45464152789705  100.64698992746828 148.13047413271138  92.466097210837745 153.37038436105087  84.013092847099699 158.15895219416763  75.312852526153051 162.48208567373487  66.390979555008798 166.32706257734159  57.273729454011303 169.68256780277366  47.9879327122703 172.53872668113638  38.560915804387136 174.88713403234141  29.020420855713887 176.72087890115199  19.394523698567156 178.03456489464025  9.7115523816976133 178.82432606291241  3.2371838486969864 179.00000087157554  8.7157548023242271e-007 179.00000087157554 
 0 4 9.7115489313641206 1 19.423097862728259 1 29.134646794092369 1 38.846195725456489 1 48.557744656820617 1 58.269293588184752 1 67.980842519548858 1 77.692391450912979 1 87.403940382277113 1 97.115489313641248 1 106.82703824500541 1 116.53858717636953 1 126.25013610773368 1 135.96168503909783 1 145.21077925944456 1 154.92232819080868 1 164.63387712217283 1 174.34542605353698 1 184.0569749849011 1 193.76852391626517 1 203.48007284762932 1 213.19162177899341 1 222.90317071035753 1 232.61471964172156 1 242.32626857308557 1 252.03781750444963 1 261.74936643581395 1 271.46091536717847 1 281.17246429854299 4
7 0 0  10 38 5  148.10023386739141 0  144.39624172404754 0  140.69427696223477 0  136.99475214379225 0  133.2914380707017 0  129.58452122129137 0  125.88731813082194 0  122.18189067890856 0  118.48036594159149 0  114.77768984184554 0  107.37266053994641 0  103.67015025099263 0  99.967643423644233 0  96.265139157786265 0  92.562636552813586 0  88.860134708776229 0  85.157632725046298 0  81.45512970154671 0  77.752624737848194 0  70.347609129542704 0  66.645104165848565 0  62.942601142333551 0  59.240099158637783 0  55.537597314545785 0  51.835094709636707 0  48.132590443725263 0  44.430083616408261 0  40.727573327442343 0  33.32254402554701 0  29.619867925793812 0  25.918343188496706 0  22.21291573654042 0  18.515712646140862 0  14.808795796645244 0  11.1054817236316 0  7.4059569051404548 0  3.7039921433479108 0  -3.6409209362473701e-016 0 
 0 11 70.293116074635748 9 140.5862321492715 9 210.87934822390724 9 281.17246429854299 11
7 0 0  1 2 2  8.7157548023242271e-007 179.00000087157554  8.7157548023242271e-007 8.7157545181071328e-007 
 8.7157548023242271e-007 2 179.00000087157557 2
7 0 0  1 2 2  179.00000087157548 8.715754979959911e-007  8.7157548023242271e-007 8.715754979959911e-007 
 8.7157548023242271e-007 2 179.00000087157557 2
7 0 0  1 2 2  148.10023386739141 0  148.10023386739141 205.7176896952401 
 0 2 205.7176896952401 2
7 0 0  9 18 3  179.00000087157554 8.7157549444327742e-007  171.80125129956002 8.8766315414096368  164.11729841347298 17.371564447932702  155.96993396537894 25.451948635776912  147.41038776107175 33.068633174814813  138.44295085709925 40.219605469771452  129.09386031307233 46.883009937151137  119.41650507534577 53.015480460431966  109.42682629100001 58.61608062174232  88.904371846402981 68.705331968806334  78.370064824085048 73.195509150096328  67.597580946294187 77.112965028205778  56.62555754614872 80.447521996895659  45.468800994928131 83.180556376160496  34.223838790265951 85.307244706021365  22.843494752612166 86.824000817227699  11.425346880717097 87.720651590896892  8.7157550154870478e-007 88.000000871575523 
 0 10 102.85884484762005 8 205.7176896952401 10
7 0 0  1 2 2  148.10023386739141 205.7176896952401  0 205.7176896952401 
 0 2 148.10023386739141 2
7 0 0  1 2 2  0 205.7176896952401  0 0 
 0 2 205.7176896952401 2
7 0 0  9 18 3  8.7157549444327742e-007 88.000000871575494  11.425346880716068 87.720651590896068  22.843494752616198 86.824000817231166  34.22383879025751 85.307244706014203  45.468800994940267 83.180556376168582  56.625557546135738 80.447521996889407  67.597580946304333 77.11296502820953  78.370064824079876 73.195509150094992  88.904371846404587 68.705331968806647  109.42682629099816 58.616080621741787  119.41650507535138 53.015480460433672  129.09386031306298 46.883009937148039  138.44295085710954 40.219605469774251  147.41038776106043 33.068633174812277  155.9699339653894 25.451948635779321  164.11729841346673 17.371564447931217  171.80125129956161 8.8766315414099424  179.00000087157548 8.7157547312699535e-007 
 0 10 102.85884484762005 8 205.7176896952401 10
7 0 0  1 2 2  8.7157548023242271e-007 88.000000871575509  8.7157548023242271e-007 8.7157548023242271e-007 
 8.7157548023242281e-007 2 88.000000871575509 2
7 0 0  1 2 2  8.7157548023242271e-007 88.000000871575509  8.7157548023242271e-007 8.7157548023242271e-007 
 8.7157548023242281e-007 2 88.000000871575509 2
Curves 12
7 0 0  3 4 2  -90.391312469092611 -50.704225352111997 4.1327979458596225e-015  -90.391312469092611 -50.704225352111997 59.666666666666664  -90.391312469092611 -50.704225352111997 119.33333333333333  -90.391312469092611 -50.704225352111997 178.99999999999997 
 8.7157548023242271e-007 4 179.00000087157548 4
7 0 0  8 9 2  -90.391312469092611 -50.704225352111997 179  -55.244754431774666 -50.704225352112118 178.99999999999974  -20.098149663236129 -50.704225352111493 171.11309064993569  12.983553095469063 -50.704225352113149 155.3394771596592  41.935971757053302 -50.704225352110427 132.32728422613383  64.948164690560532 -50.704225352113355 103.37486556457279  80.721778180844694 -50.704225352111237 70.293162805849789  88.608687530907645 -50.704225352112239 35.146558037317632  88.60868753090736 -50.704225352111997 1.4210854715202004e-014 
 0 9 281.17246429854299 9
7 0 0  3 4 2  88.608687530907403 -50.704225352111997 1.0587911840678754e-022  28.942020864240686 -50.704225352111997 1.0587911840678754e-022  -30.724645802426011 -50.704225352111997 1.0587911840678754e-022  -90.391312469092696 -50.704225352111997 1.0587911840678754e-022 
 8.7157548023242271e-007 4 179.00000087157557 4
7 0 0  3 11 9  -90.391312469092597 -50.704225352112026 179  -90.391312469092597 -44.046752349735819 173.60093782098983  -90.391312469092597 -31.305182129478133 162.07286358251059  -90.391312469092568 -14.178747790197317 142.82738100645122  -90.391312469092583 0.77316946407403098 121.84404772795911  -90.391312469092611 13.372899804722341 99.370318512857111  -90.391312469092597 23.474111746555739 75.668267403365618  -90.391312469092625 30.958646070511662 51.013818494327332  -90.391312469092611 35.73905848560949 25.698783240457381  -90.391312469092611 37.086262687380234 8.5690095068560925  -90.391312469092611 37.29577464788801 0 
 0 4 25.714711211905019 1 51.429422423810024 1 77.144133635715008 1 102.85884484762006 1 128.57355605952509 1 154.28826727143002 1 180.00297848333506 1 205.7176896952401 4
7 0 0  3 11 9  -90.391312469092611 37.29577464788801 0  -81.82230296223652 37.086262687380234 0  -64.692529228635209 35.73905848560949 0  -39.377493974765294 30.958646070511662 0  -14.723045065726971 23.474111746555739 0  8.9790060437644641 13.372899804722341 0  31.452735258866539 0.77316946407403098 0  52.436068537358608 -14.178747790197317 0  71.68155111341801 -31.305182129478126 0  83.20962535189723 -44.046752349735826 0  88.608687530907389 -50.704225352112026 0 
 0 4 25.71471121190504 1 51.429422423810081 1 77.144133635715008 1 102.85884484762003 1 128.57355605952509 1 154.28826727143007 1 180.00297848333508 1 205.7176896952401 4
7 0 0  3 4 2  -90.391312469092597 37.29577464788801 0  -90.391312469092597 7.9624413145546606 0  -90.391312469092597 -21.370892018778679 0  -90.391312469092597 -50.704225352112012 0 
 8.7157548023242281e-007 4 88.000000871575509 4
7 0 0  3 4 2  -90.391312469092611 -50.704225352111997 -4.1327979458596225e-015  -90.391312469092611 -50.704225352111997 -59.666666666666664  -90.391312469092611 -50.704225352111997 -119.33333333333333  -90.391312469092611 -50.704225352111997 -178.99999999999997 
 8.7157548023242271e-007 4 179.00000087157548 4
7 0 0  8 9 2  -90.391312469092611 -50.704225352111997 -179  -55.244754431774666 -50.704225352112118 -178.99999999999974  -20.098149663236129 -50.704225352111493 -171.11309064993569  12.983553095469063 -50.704225352113149 -155.3394771596592  41.935971757053302 -50.704225352110427 -132.32728422613383  64.948164690560532 -50.704225352113355 -103.37486556457279  80.721778180844694 -50.704225352111237 -70.293162805849789  88.608687530907645 -50.704225352112239 -35.146558037317632  88.60868753090736 -50.704225352111997 -1.4210854715202004e-014 
 0 9 281.17246429854299 9
7 0 0  3 4 2  88.608687530907403 -50.704225352111997 -1.0587911840678754e-022  28.942020864240686 -50.704225352111997 -1.0587911840678754e-022  -30.724645802426011 -50.704225352111997 -1.0587911840678754e-022  -90.391312469092696 -50.704225352111997 -1.0587911840678754e-022 
 8.7157548023242271e-007 4 179.00000087157557 4
7 0 0  3 11 9  -90.391312469092597 -50.704225352112026 -179  -90.391312469092597 -44.046752349735819 -173.60093782098983  -90.391312469092597 -31.305182129478133 -162.07286358251059  -90.391312469092568 -14.178747790197317 -142.82738100645122  -90.391312469092583 0.77316946407403098 -121.84404772795911  -90.391312469092611 13.372899804722341 -99.370318512857111  -90.391312469092597 23.474111746555739 -75.668267403365618  -90.391312469092625 30.958646070511662 -51.013818494327332  -90.391312469092611 35.73905848560949 -25.698783240457381  -90.391312469092611 37.086262687380234 -8.5690095068560925  -90.391312469092611 37.29577464788801 0 
 0 4 25.714711211905019 1 51.429422423810024 1 77.144133635715008 1 102.85884484762006 1 128.57355605952509 1 154.28826727143002 1 180.00297848333506 1 205.7176896952401 4
7 0 0  3 11 9  -90.391312469092611 37.29577464788801 0  -81.82230296223652 37.086262687380234 0  -64.692529228635209 35.73905848560949 0  -39.377493974765294 30.958646070511662 0  -14.723045065726971 23.474111746555739 0  8.9790060437644641 13.372899804722341 0  31.452735258866539 0.77316946407403098 0  52.436068537358608 -14.178747790197317 0  71.68155111341801 -31.305182129478126 0  83.20962535189723 -44.046752349735826 0  88.608687530907389 -50.704225352112026 0 
 0 4 25.71471121190504 1 51.429422423810081 1 77.144133635715008 1 102.85884484762003 1 128.57355605952509 1 154.28826727143007 1 180.00297848333508 1 205.7176896952401 4
7 0 0  3 4 2  -90.391312469092597 37.29577464788801 0  -90.391312469092597 7.9624413145546606 0  -90.391312469092597 -21.370892018778679 0  -90.391312469092597 -50.704225352112012 0 
 8.7157548023242281e-007 4 88.000000871575509 4
Polygon3D 0
PolygonOnTriangulations 0
Surfaces 8
9 0 0 0 0 3 3 4 4 2 2 -90.391313340668148 -50.704225352111997 -8.7157548023242271e-007  -30.724646092951147 -50.704225352111997 -8.7157548023242271e-007  28.942021154765854 -50.704225352111997 -8.7157548023242271e-007  88.608688402482869 -50.704225352111997 -8.7157548023242271e-007  
-90.391313340668148 -50.704225352111997 59.666666376141507  -30.724646092951147 -50.704225352111997 59.666666376141507  28.942021154765854 -50.704225352111997 59.666666376141507  88.608688402482869 -50.704225352111997 59.666666376141507  
-90.391313340668148 -50.704225352111997 119.33333362385849  -30.724646092951147 -50.704225352111997 119.33333362385849  28.942021154765854 -50.704225352111997 119.33333362385849  88.608688402482869 -50.704225352111997 119.33333362385849  
-90.391313340668148 -50.704225352111997 179.00000087157548  -30.724646092951147 -50.704225352111997 179.00000087157548  28.942021154765854 -50.704225352111997 179.00000087157548  88.608688402482869 -50.704225352111997 179.00000087157548  

0 4
179.00000174315096 4

0 4
179.00000174315102 4

9 0 0 0 0 3 3 4 4 2 2 -90.391312469092611 -50.704226223687506 -8.7157548023242271e-007  -90.391312469092611 -21.370892309303844 -8.7157548023242271e-007  -90.391312469092611 7.9624416050798175 -8.7157548023242271e-007  -90.391312469092611 37.295775519463483 -8.7157548023242271e-007  
-90.391312469092611 -50.704226223687506 59.666666376141507  -90.391312469092611 -21.370892309303844 59.666666376141507  -90.391312469092611 7.9624416050798175 59.666666376141507  -90.391312469092611 37.295775519463483 59.666666376141507  
-90.391312469092597 -50.704226223687506 119.33333362385849  -90.391312469092597 -21.370892309303844 119.33333362385849  -90.391312469092597 7.9624416050798175 119.33333362385849  -90.391312469092597 37.295775519463483 119.33333362385849  
-90.391312469092597 -50.704226223687506 179.00000087157548  -90.391312469092597 -21.370892309303844 179.00000087157548  -90.391312469092597 7.9624416050798175 179.00000087157548  -90.391312469092597 37.295775519463483 179.00000087157548  

0 4
179.00000174315096 4

0 4
88.000001743150989 4

9 0 0 0 0 3 3 19 11 17 9 88.608687530907389 -50.704225352112026 0  83.20962535189723 -44.046752349735826 0  71.68155111341801 -31.305182129478126 0  52.436068537358608 -14.178747790197317 0  31.452735258866539 0.77316946407403098 0  8.9790060437644641 13.372899804722341 0  -14.723045065726971 23.474111746555739 0  -39.377493974765294 30.958646070511662 0  -64.692529228635209 35.73905848560949 0  -81.82230296223652 37.086262687380234 0  -90.391312469092611 37.29577464788801 0  
88.608687530907389 -50.704225352112026 5.8554091364052168  83.209429729585466 -44.04659589841004 5.678789787468526  71.681641906681207 -31.305254740966213 5.3016952950619665  52.436044194405049 -14.178728326977708 4.6721374812069882  31.452741837417562 0.77316422268368301 3.9857362502960485  8.9790040725139377 13.372901307064126 3.2505802199173273  -14.723043759275882 23.474110978578938 2.4752439773152273  -39.377497229319118 30.958647640077082 1.6687528482561869  -64.692517516871007 35.739052975324597 0.84065340088180229  -81.822328119983794 37.08627449833471 0.28030675557254225  -90.391312469092611 37.29577464788801 0  
88.033141109356833 -50.704225352112019 17.574365065373438  82.650852813432607 -44.04628220803054 17.044223050069075  71.160703200041922 -31.305400329532681 15.912471880811871  51.976756582779451 -14.178689302564278 14.022900835561789  31.060984540988034 0.77315371359643326 11.96274929178835  8.6594904682132388 13.372904318999694 9.7562578218753178  -14.966340599272941 23.4741094399239 7.4291722020206041  -39.541530645075923 30.958650782761651 5.0085770831683671  -64.775124589250794 35.739041943241368 2.523130817299077  -81.849930548726306 37.086298144739132 0.84130488293914152  -90.391312469092611 37.295774647888003 0  
85.45149645227383 -50.704225352112033 34.977017280533225  80.147085454773332 -44.046282475399934 33.921913143715258  68.823187703011598 -31.305400205442428 31.669468646405846  49.916816086148586 -14.178689335826146 27.908788918803705  29.303676787770627 0.77315372255364867 23.80861482656762  7.2263126135860958 13.372904316432701 19.417190730434186  -16.057673497447958 23.474109441234702 14.785756612877984  -40.27728218559885 30.958650780085478 9.9682171478889607  -65.145768280448024 35.739041952635247 5.0216090197783076  -81.973516778303008 37.086298124604326 1.6743896844391835  -90.391312469092611 37.29577464788801 0  
81.176389420061639 -50.704225352112019 52.044571657815425  76.00093960946441 -44.046282345328954 50.474613760360583  64.952349761048978 -31.30540026581038 47.123055630525791  46.505631550634526 -14.178689319644766 41.527296421874084  26.39364087268444 0.77315371819610368 35.426381573133199  4.8530236613971871 13.372904317681501 28.892096951598162  -17.864879970457245 23.474109440597005 22.000685861605952  -41.495659240916424 30.958650781387398 14.832356557609046  -65.759540333555989 35.739041948065257 7.4719776266231754  -82.178171044749448 37.086298134399598 2.491432960215112  -90.391312469092611 37.295774647888017 0  
75.248991629316052 -50.704225352112019 68.610439459497556  70.252345634329728 -44.046282395503347 66.540761554681126  59.58546733042207 -31.305400242523667 62.122397243678186  41.776054635119159 -14.178689325886673 54.745499222443357  22.358902007833542 0.77315371987701198 46.702653720187328  1.5624796881189096 13.372904317199772 38.088496179802632  -20.37055563723996 23.474109440843009 29.00353826123035  -43.18492816254421 30.958650780885176 19.553518633013244  -66.610529830562058 35.73904194982812 9.8503196815613929  -82.461922324972903 37.086298130621095 3.2844599350085799  -90.391312469092611 37.295774647887995 0  
67.726387165240467 -50.704225352112033 84.515676864300701  62.956665338767088 -44.046282378079894 81.966207263167604  52.774226564540541 -31.305400250610173 76.523579985365998  35.773633717144889 -14.178689323719126 67.436573186539292  17.238316946974827 0.77315371929330334 57.529239305841941  -2.6136295696355694 13.372904317367061 46.918152116960862  -23.550569467612124 23.474109440757591 35.727123844750594  -45.328820371044607 30.958650781059589 24.086405441429591  -67.690541259055834 35.739041949215945 12.133815813124169  -82.822037976952274 37.086298131933226 4.0458617760969506  -90.391312469092611 37.295774647888024 0  
58.681022805299797 -50.704225352112033 99.606948434421099  54.184160202395368 -44.046282383781339 96.602240950770891  44.58422337212744 -31.305400247964027 90.187768332051135  28.556175391927667 -14.178689324428412 79.478169225486212  11.081199709140337 0.77315371948430744 67.801763952004393  -7.6350859045281823 13.372904317312329 55.295941912166711  -27.374296197396426 23.474109440785526 42.106623463784743  -47.906689015230896 30.958650781002536 28.387317404234256  -68.989173527153355 35.739041949416276 14.300451831334929  -83.255049877326059 37.086298131503845 4.7682981465621763  -90.391312469092611 37.295774647887995 0  
48.200010411938308 -50.704225352112033 113.73895966106772  44.019314268232748 -44.046282381951464 110.30795099357495  35.094332030277087 -31.305400248813303 102.98340733790917  20.193187771396428 -14.178689324200764 90.754354244740597  3.9468467404349954 0.77315371942300493 77.421326687548728  -13.453529914660235 13.372904317329892 63.141206566607615  -31.804911222772006 23.474109440776566 48.080617094350792  -50.893707794617342 30.958650781020822 32.414846553094137  -70.493920085703223 35.739041949351986 16.329367976359162  -83.756787886345577 37.086298131641676 5.4448136304694392  -90.39131246909264 37.295774647888024 0  
36.384287643970751 -50.704225352112005 126.77560011306329  32.560020356492387 -44.046282382655157 122.95133282558491  24.395945176165377 -31.305400248486691 114.78725764525791  10.765210823757688 -14.178689324288312 101.15652329285032  -4.0960343901529948 0.77315371944658162 86.295278078939532  -20.012926925574412 13.372904317323137 70.378385543518192  -36.799745392110594 23.474109440779991 53.591567076982017  -54.261110148021217 30.958650781013805 36.130202321071359  -72.190289434991911 35.739041949376684 18.201023034100643  -84.322420001880062 37.086298131588656 6.0688924672125211  -90.391312469092597 37.295774647887995 0  
23.347647191975085 -50.704225352112005 138.59132288103089  19.916638524482295 -44.046282381951443 134.41062673732534  12.592094868816488 -31.305400248813303 125.48564449936968  0.36304177564806439 -14.178689324200759 110.58450024048898  -12.969985781543887 0.77315371942300359 94.338159209527547  -27.250105902485025 13.37290431732989 76.937782554432403  -42.310695374741798 23.474109440776559 58.58640124632057  -57.97646591599846 30.958650781020822 39.497604674475291  -74.061944492733431 35.739041949351972 19.897392383389359  -84.946498838623157 37.086298131641655 6.6345245827470487  -90.391312469092583 37.29577464788801 0  
9.2156359653285129 -50.704225352112033 149.0723352743924  6.2109284816783239 -44.046282383781339 144.57547267148794  -0.20354413704140217 -31.305400247964027 134.97553584121999  -10.913143243606388 -14.178689324428412 118.94748786102031  -22.589548517088165 0.77315371948430833 101.4725121782329  -35.095370556925907 13.372904317312326 82.756226564564457  -48.284689005307847 23.474109440785533 63.017016271696178  -62.00399506485838 30.958650781002525 42.484623453861708  -76.090860637757629 35.739041949416254 21.402138941939278  -85.623014322530437 37.086298131503852 7.1362625917665605  -90.391312469092625 37.29577464788801 0  
-5.8756356047919089 -50.704225352112026 158.11769963433304  -8.4251052059250142 -44.04628237807988 153.34797780785968  -13.867732483726606 -31.305400250610145 143.16553903363314  -22.954739282553305 -14.178689323719126 126.1649461862375  -32.862073163250628 0.77315371929330201 107.62962941606736  -43.47316035213175 13.372904317367066 87.777682899457091  -54.664188624342017 23.474109440757569 66.840743001480462  -66.304907027662992 30.958650781059585 45.062492098048033  -78.257496655968453 35.739041949215959 22.700771210036759  -86.345450692995655 37.086298131933219 7.5692744921403392  -90.391312469092611 37.29577464788801 0  
-21.780873009595027 -50.704225352112019 165.64030409840865  -23.850550914411453 -44.046282395503354 160.6436581034223  -28.268915225414389 -31.305400242523657 149.97677979951462  -35.64581324664924 -14.17868932588668 132.16736710421168  -43.688658748905226 0.77315371987701198 112.75021447692613  -52.302816289290007 13.372904317199779 91.953792157211552  -61.387774207862236 23.474109440843002 70.020756831852623  -70.837793836079371 30.958650780885193 47.206384306548387  -80.540992787531195 35.739041949828106 23.780782638530518  -87.106852534084013 37.086298130621103 7.9293901441196946  -90.391312469092597 37.29577464788801 0  
-38.346740811277151 -50.704225352112033 171.56770188915434  -39.916698708732 -44.046282345328962 166.39225207855711  -43.268256838566813 -31.30540026581038 155.34366223014166  -48.86401604721847 -14.178689319644766 136.89694401972719  -54.964930895959384 0.77315371819610279 116.78495334177704  -61.499215517494434 13.372904317681504 95.244336130489856  -68.390626607486681 23.474109440597019 72.526432498635387  -75.558955911483537 30.958650781387398 48.895653228176229  -82.919334842469482 35.739041948065278 24.631772135536593  -87.899879508877532 37.086298134399598 8.2131414243431617  -90.39131246909264 37.29577464788801 0  
-55.414295188559429 -50.704225352112019 175.84280892136644  -56.469399325377395 -44.046282475399927 170.53839792386594  -58.721843822686786 -31.305400205442425 159.21450017210418  -62.48252355028891 -14.178689335826155 140.30812855524121  -66.582697642524977 0.77315372255365267 119.69498925686321  -70.974121738658454 13.372904316432692 97.617625082678757  -75.605555856214608 23.47410944123471 74.33363897164466  -80.423095321203704 30.958650780085488 50.114030283493797  -85.369703449314301 35.739041952635219 25.245544188644601  -88.716922784653406 37.086298124604319 8.4177956907896139  -90.391312469092597 37.29577464788801 0  
-72.816947403719112 -50.704225352112033 178.42445357844943  -73.347089419023476 -44.046282208030547 173.04216528252519  -74.47884058828069 -31.305400329532688 161.55201566913451  -76.368411633530783 -14.178689302564271 142.36806905187206  -78.428563177304241 0.77315371359643059 121.45229701008056  -80.63505464721726 13.372904318999698 99.050802937305832  -82.962140267071987 23.47410943992389 75.424971869819643  -85.382735385924235 30.958650782761655 50.849781824016674  -87.86818165179352 35.739041943241389 25.61618787984181  -89.55000758615347 37.086298144739139 8.5413819203662928  -90.391312469092611 37.29577464788801 0  
-84.535903332687369 -50.704225352112026 179  -84.712522681624066 -44.04659589841004 173.60074219867806  -85.089617174030622 -31.305254740966213 162.07295437577383  -85.719174987885594 -14.178728326977708 142.82735666349762  -86.405576218796512 0.77316422268368301 121.84405430651016  -87.140732249175286 13.372901307064126 99.37031654160657  -87.916068491777338 23.474110978578938 75.668268709816715  -88.722559620836464 30.958647640077082 51.0138152397735  -89.550659068210791 35.739052975324597 25.698794952221593  -90.111005713520058 37.086274498334703 8.5689843491088133  -90.391312469092597 37.295774647888003 0  
-90.391312469092597 -50.704225352112026 179  -90.391312469092597 -44.046752349735819 173.60093782098983  -90.391312469092597 -31.305182129478133 162.07286358251059  -90.391312469092568 -14.178747790197317 142.82738100645122  -90.391312469092583 0.77316946407403098 121.84404772795911  -90.391312469092611 13.372899804722341 99.370318512857111  -90.391312469092597 23.474111746555739 75.668267403365618  -90.391312469092625 30.958646070511662 51.013818494327332  -90.391312469092611 35.73905848560949 25.698783240457381  -90.391312469092611 37.086262687380234 8.5690095068560925  -90.391312469092611 37.29577464788801 0  

0 4
9.2562646167119631 1
18.512529233423926 1
27.768793850135889 1
37.025058466847852 1
46.281323083559812 1
55.537587700271771 1
64.793852316983731 1
74.050116933695691 1
83.306381550407664 1
92.562646167119624 1
101.81891078383157 1
111.07517540054354 1
120.33144001725552 1
129.58770463396746 1
138.84396925067944 1
148.10023386739141 4

0 4
25.714711211905019 1
51.429422423810024 1
77.144133635715008 1
102.85884484762006 1
128.57355605952509 1
154.28826727143002 1
180.00297848333506 1
205.7176896952401 4

9 0 0 0 0 3 3 4 4 2 2 -90.391313340668091 -50.704226223687499 0  -90.391313340668091 -21.370892309303837 0  -90.391313340668091 7.9624416050798246 0  -90.391313340668091 37.29577551946349 0  
-30.724646092951104 -50.704226223687499 0  -30.724646092951104 -21.370892309303837 0  -30.724646092951104 7.9624416050798246 0  -30.724646092951104 37.29577551946349 0  
28.942021154765882 -50.704226223687499 0  28.942021154765882 -21.370892309303837 0  28.942021154765882 7.9624416050798246 0  28.942021154765882 37.29577551946349 0  
88.608688402482869 -50.704226223687499 0  88.608688402482869 -21.370892309303837 0  88.608688402482869 7.9624416050798246 0  88.608688402482869 37.29577551946349 0  

0 4
179.00000174315096 4

0 4
88.000001743150989 4

9 0 0 0 0 3 3 4 4 2 2 -90.391313340668148 -50.704225352111997 8.7157548023242271e-007  -30.724646092951147 -50.704225352111997 8.7157548023242271e-007  28.942021154765854 -50.704225352111997 8.7157548023242271e-007  88.608688402482869 -50.704225352111997 8.7157548023242271e-007  
-90.391313340668148 -50.704225352111997 -59.666666376141507  -30.724646092951147 -50.704225352111997 -59.666666376141507  28.942021154765854 -50.704225352111997 -59.666666376141507  88.608688402482869 -50.704225352111997 -59.666666376141507  
-90.391313340668148 -50.704225352111997 -119.33333362385849  -30.724646092951147 -50.704225352111997 -119.33333362385849  28.942021154765854 -50.704225352111997 -119.33333362385849  88.608688402482869 -50.704225352111997 -119.33333362385849  
-90.391313340668148 -50.704225352111997 -179.00000087157548  -30.724646092951147 -50.704225352111997 -179.00000087157548  28.942021154765854 -50.704225352111997 -179.00000087157548  88.608688402482869 -50.704225352111997 -179.00000087157548  

0 4
179.00000174315096 4

0 4
179.00000174315102 4

9 0 0 0 0 3 3 4 4 2 2 -90.391312469092611 -50.704226223687506 8.7157548023242271e-007  -90.391312469092611 -21.370892309303844 8.7157548023242271e-007  -90.391312469092611 7.9624416050798175 8.7157548023242271e-007  -90.391312469092611 37.295775519463483 8.7157548023242271e-007  
-90.391312469092611 -50.704226223687506 -59.666666376141507  -90.391312469092611 -21.370892309303844 -59.666666376141507  -90.391312469092611 7.9624416050798175 -59.666666376141507  -90.391312469092611 37.295775519463483 -59.666666376141507  
-90.391312469092597 -50.704226223687506 -119.33333362385849  -90.391312469092597 -21.370892309303844 -119.33333362385849  -90.391312469092597 7.9624416050798175 -119.33333362385849  -90.391312469092597 37.295775519463483 -119.33333362385849  
-90.391312469092597 -50.704226223687506 -179.00000087157548  -90.391312469092597 -21.370892309303844 -179.00000087157548  -90.391312469092597 7.9624416050798175 -179.00000087157548  -90.391312469092597 37.295775519463483 -179.00000087157548  

0 4
179.00000174315096 4

0 4
88.000001743150989 4

9 0 0 0 0 3 3 19 11 17 9 88.608687530907389 -50.704225352112026 0  83.20962535189723 -44.046752349735826 0  71.68155111341801 -31.305182129478126 0  52.436068537358608 -14.178747790197317 0  31.452735258866539 0.77316946407403098 0  8.9790060437644641 13.372899804722341 0  -14.723045065726971 23.474111746555739 0  -39.377493974765294 30.958646070511662 0  -64.692529228635209 35.73905848560949 0  -81.82230296223652 37.086262687380234 0  -90.391312469092611 37.29577464788801 0  
88.608687530907389 -50.704225352112026 -5.8554091364052168  83.209429729585466 -44.04659589841004 -5.678789787468526  71.681641906681207 -31.305254740966213 -5.3016952950619665  52.436044194405049 -14.178728326977708 -4.6721374812069882  31.452741837417562 0.77316422268368301 -3.9857362502960485  8.9790040725139377 13.372901307064126 -3.2505802199173273  -14.723043759275882 23.474110978578938 -2.4752439773152273  -39.377497229319118 30.958647640077082 -1.6687528482561869  -64.692517516871007 35.739052975324597 -0.84065340088180229  -81.822328119983794 37.08627449833471 -0.28030675557254225  -90.391312469092611 37.29577464788801 0  
88.033141109356833 -50.704225352112019 -17.574365065373438  82.650852813432607 -44.04628220803054 -17.044223050069075  71.160703200041922 -31.305400329532681 -15.912471880811871  51.976756582779451 -14.178689302564278 -14.022900835561789  31.060984540988034 0.77315371359643326 -11.96274929178835  8.6594904682132388 13.372904318999694 -9.7562578218753178  -14.966340599272941 23.4741094399239 -7.4291722020206041  -39.541530645075923 30.958650782761651 -5.0085770831683671  -64.775124589250794 35.739041943241368 -2.523130817299077  -81.849930548726306 37.086298144739132 -0.84130488293914152  -90.391312469092611 37.295774647888003 0  
85.45149645227383 -50.704225352112033 -34.977017280533225  80.147085454773332 -44.046282475399934 -33.921913143715258  68.823187703011598 -31.305400205442428 -31.669468646405846  49.916816086148586 -14.178689335826146 -27.908788918803705  29.303676787770627 0.77315372255364867 -23.80861482656762  7.2263126135860958 13.372904316432701 -19.417190730434186  -16.057673497447958 23.474109441234702 -14.785756612877984  -40.27728218559885 30.958650780085478 -9.9682171478889607  -65.145768280448024 35.739041952635247 -5.0216090197783076  -81.973516778303008 37.086298124604326 -1.6743896844391835  -90.391312469092611 37.29577464788801 0  
81.176389420061639 -50.704225352112019 -52.044571657815425  76.00093960946441 -44.046282345328954 -50.474613760360583  64.952349761048978 -31.30540026581038 -47.123055630525791  46.505631550634526 -14.178689319644766 -41.527296421874084  26.39364087268444 0.77315371819610368 -35.426381573133199  4.8530236613971871 13.372904317681501 -28.892096951598162  -17.864879970457245 23.474109440597005 -22.000685861605952  -41.495659240916424 30.958650781387398 -14.832356557609046  -65.759540333555989 35.739041948065257 -7.4719776266231754  -82.178171044749448 37.086298134399598 -2.491432960215112  -90.391312469092611 37.295774647888017 0  
75.248991629316052 -50.704225352112019 -68.610439459497556  70.252345634329728 -44.046282395503347 -66.540761554681126  59.58546733042207 -31.305400242523667 -62.122397243678186  41.776054635119159 -14.178689325886673 -54.745499222443357  22.358902007833542 0.77315371987701198 -46.702653720187328  1.5624796881189096 13.372904317199772 -38.088496179802632  -20.37055563723996 23.474109440843009 -29.00353826123035  -43.18492816254421 30.958650780885176 -19.553518633013244  -66.610529830562058 35.73904194982812 -9.8503196815613929  -82.461922324972903 37.086298130621095 -3.2844599350085799  -90.391312469092611 37.295774647887995 0  
67.726387165240467 -50.704225352112033 -84.515676864300701  62.956665338767088 -44.046282378079894 -81.966207263167604  52.774226564540541 -31.305400250610173 -76.523579985365998  35.773633717144889 -14.178689323719126 -67.436573186539292  17.238316946974827 0.77315371929330334 -57.529239305841941  -2.6136295696355694 13.372904317367061 -46.918152116960862  -23.550569467612124 23.474109440757591 -35.727123844750594  -45.328820371044607 30.958650781059589 -24.086405441429591  -67.690541259055834 35.739041949215945 -12.133815813124169  -82.822037976952274 37.086298131933226 -4.0458617760969506  -90.391312469092611 37.295774647888024 0  
58.681022805299797 -50.704225352112033 -99.606948434421099  54.184160202395368 -44.046282383781339 -96.602240950770891  44.58422337212744 -31.305400247964027 -90.187768332051135  28.556175391927667 -14.178689324428412 -79.478169225486212  11.081199709140337 0.77315371948430744 -67.801763952004393  -7.6350859045281823 13.372904317312329 -55.295941912166711  -27.374296197396426 23.474109440785526 -42.106623463784743  -47.906689015230896 30.958650781002536 -28.387317404234256  -68.989173527153355 35.739041949416276 -14.300451831334929  -83.255049877326059 37.086298131503845 -4.7682981465621763  -90.391312469092611 37.295774647887995 0  
48.200010411938308 -50.704225352112033 -113.73895966106772  44.019314268232748 -44.046282381951464 -110.30795099357495  35.094332030277087 -31.305400248813303 -102.98340733790917  20.193187771396428 -14.178689324200764 -90.754354244740597  3.9468467404349954 0.77315371942300493 -77.421326687548728  -13.453529914660235 13.372904317329892 -63.141206566607615  -31.804911222772006 23.474109440776566 -48.080617094350792  -50.893707794617342 30.958650781020822 -32.414846553094137  -70.493920085703223 35.739041949351986 -16.329367976359162  -83.756787886345577 37.086298131641676 -5.4448136304694392  -90.39131246909264 37.295774647888024 0  
36.384287643970751 -50.704225352112005 -126.77560011306329  32.560020356492387 -44.046282382655157 -122.95133282558491  24.395945176165377 -31.305400248486691 -114.78725764525791  10.765210823757688 -14.178689324288312 -101.15652329285032  -4.0960343901529948 0.77315371944658162 -86.295278078939532  -20.012926925574412 13.372904317323137 -70.378385543518192  -36.799745392110594 23.474109440779991 -53.591567076982017  -54.261110148021217 30.958650781013805 -36.130202321071359  -72.190289434991911 35.739041949376684 -18.201023034100643  -84.322420001880062 37.086298131588656 -6.0688924672125211  -90.391312469092597 37.295774647887995 0  
23.347647191975085 -50.704225352112005 -138.59132288103089  19.916638524482295 -44.046282381951443 -134.41062673732534  12.592094868816488 -31.305400248813303 -125.48564449936968  0.36304177564806439 -14.178689324200759 -110.58450024048898  -12.969985781543887 0.77315371942300359 -94.338159209527547  -27.250105902485025 13.37290431732989 -76.937782554432403  -42.310695374741798 23.474109440776559 -58.58640124632057  -57.97646591599846 30.958650781020822 -39.497604674475291  -74.061944492733431 35.739041949351972 -19.897392383389359  -84.946498838623157 37.086298131641655 -6.6345245827470487  -90.391312469092583 37.29577464788801 0  
9.2156359653285129 -50.704225352112033 -149.0723352743924  6.2109284816783239 -44.046282383781339 -144.57547267148794  -0.20354413704140217 -31.305400247964027 -134.97553584121999  -10.913143243606388 -14.178689324428412 -118.94748786102031  -22.589548517088165 0.77315371948430833 -101.4725121782329  -35.095370556925907 13.372904317312326 -82.756226564564457  -48.284689005307847 23.474109440785533 -63.017016271696178  -62.00399506485838 30.958650781002525 -42.484623453861708  -76.090860637757629 35.739041949416254 -21.402138941939278  -85.623014322530437 37.086298131503852 -7.1362625917665605  -90.391312469092625 37.29577464788801 0  
-5.8756356047919089 -50.704225352112026 -158.11769963433304  -8.4251052059250142 -44.04628237807988 -153.34797780785968  -13.867732483726606 -31.305400250610145 -143.16553903363314  -22.954739282553305 -14.178689323719126 -126.1649461862375  -32.862073163250628 0.77315371929330201 -107.62962941606736  -43.47316035213175 13.372904317367066 -87.777682899457091  -54.664188624342017 23.474109440757569 -66.840743001480462  -66.304907027662992 30.958650781059585 -45.062492098048033  -78.257496655968453 35.739041949215959 -22.700771210036759  -86.345450692995655 37.086298131933219 -7.5692744921403392  -90.391312469092611 37.29577464788801 0  
-21.780873009595027 -50.704225352112019 -165.64030409840865  -23.850550914411453 -44.046282395503354 -160.6436581034223  -28.268915225414389 -31.305400242523657 -149.97677979951462  -35.64581324664924 -14.17868932588668 -132.16736710421168  -43.688658748905226 0.77315371987701198 -112.75021447692613  -52.302816289290007 13.372904317199779 -91.953792157211552  -61.387774207862236 23.474109440843002 -70.020756831852623  -70.837793836079371 30.958650780885193 -47.206384306548387  -80.540992787531195 35.739041949828106 -23.780782638530518  -87.106852534084013 37.086298130621103 -7.9293901441196946  -90.391312469092597 37.29577464788801 0  
-38.346740811277151 -50.704225352112033 -171.56770188915434  -39.916698708732 -44.046282345328962 -166.39225207855711  -43.268256838566813 -31.30540026581038 -155.34366223014166  -48.86401604721847 -14.178689319644766 -136.89694401972719  -54.964930895959384 0.77315371819610279 -116.78495334177704  -61.499215517494434 13.372904317681504 -95.244336130489856  -68.390626607486681 23.474109440597019 -72.526432498635387  -75.558955911483537 30.958650781387398 -48.895653228176229  -82.919334842469482 35.739041948065278 -24.631772135536593  -87.899879508877532 37.086298134399598 -8.2131414243431617  -90.39131246909264 37.29577464788801 0  
-55.414295188559429 -50.704225352112019 -175.84280892136644  -56.469399325377395 -44.046282475399927 -170.53839792386594  -58.721843822686786 -31.305400205442425 -159.21450017210418  -62.48252355028891 -14.178689335826155 -140.30812855524121  -66.582697642524977 0.77315372255365267 -119.69498925686321  -70.974121738658454 13.372904316432692 -97.617625082678757  -75.605555856214608 23.47410944123471 -74.33363897164466  -80.423095321203704 30.958650780085488 -50.114030283493797  -85.369703449314301 35.739041952635219 -25.245544188644601  -88.716922784653406 37.086298124604319 -8.4177956907896139  -90.391312469092597 37.29577464788801 0  
-72.816947403719112 -50.704225352112033 -178.42445357844943  -73.347089419023476 -44.046282208030547 -173.04216528252519  -74.47884058828069 -31.305400329532688 -161.55201566913451  -76.368411633530783 -14.178689302564271 -142.36806905187206  -78.428563177304241 0.77315371359643059 -121.45229701008056  -80.63505464721726 13.372904318999698 -99.050802937305832  -82.962140267071987 23.47410943992389 -75.424971869819643  -85.382735385924235 30.958650782761655 -50.849781824016674  -87.86818165179352 35.739041943241389 -25.61618787984181  -89.55000758615347 37.086298144739139 -8.5413819203662928  -90.391312469092611 37.29577464788801 0  
-84.535903332687369 -50.704225352112026 -179  -84.712522681624066 -44.04659589841004 -173.60074219867806  -85.089617174030622 -31.305254740966213 -162.07295437577383  -85.719174987885594 -14.178728326977708 -142.82735666349762  -86.405576218796512 0.77316422268368301 -121.84405430651016  -87.140732249175286 13.372901307064126 -99.37031654160657  -87.916068491777338 23.474110978578938 -75.668268709816715  -88.722559620836464 30.958647640077082 -51.0138152397735  -89.550659068210791 35.739052975324597 -25.698794952221593  -90.111005713520058 37.086274498334703 -8.5689843491088133  -90.391312469092597 37.295774647888003 0  
-90.391312469092597 -50.704225352112026 -179  -90.391312469092597 -44.046752349735819 -173.60093782098983  -90.391312469092597 -31.305182129478133 -162.07286358251059  -90.391312469092568 -14.178747790197317 -142.82738100645122  -90.391312469092583 0.77316946407403098 -121.84404772795911  -90.391312469092611 13.372899804722341 -99.370318512857111  -90.391312469092597 23.474111746555739 -75.668267403365618  -90.391312469092625 30.958646070511662 -51.013818494327332  -90.391312469092611 35.73905848560949 -25.698783240457381  -90.391312469092611 37.086262687380234 -8.5690095068560925  -90.391312469092611 37.29577464788801 0  

0 4
9.2562646167119631 1
18.512529233423926 1
27.768793850135889 1
37.025058466847852 1
46.281323083559812 1
55.537587700271771 1
64.793852316983731 1
74.050116933695691 1
83.306381550407664 1
92.562646167119624 1
101.81891078383157 1
111.07517540054354 1
120.33144001725552 1
129.58770463396746 1
138.84396925067944 1
148.10023386739141 4

0 4
25.714711211905019 1
51.429422423810024 1
77.144133635715008 1
102.85884484762006 1
128.57355605952509 1
154.28826727143002 1
180.00297848333506 1
205.7176896952401 4

9 0 0 0 0 3 3 4 4 2 2 -90.391313340668091 -50.704226223687499 0  -90.391313340668091 -21.370892309303837 0  -90.391313340668091 7.9624416050798246 0  -90.391313340668091 37.29577551946349 0  
-30.724646092951104 -50.704226223687499 0  -30.724646092951104 -21.370892309303837 0  -30.724646092951104 7.9624416050798246 0  -30.724646092951104 37.29577551946349 0  
28.942021154765882 -50.704226223687499 0  28.942021154765882 -21.370892309303837 0  28.942021154765882 7.9624416050798246 0  28.942021154765882 37.29577551946349 0  
88.608688402482869 -50.704226223687499 0  88.608688402482869 -21.370892309303837 0  88.608688402482869 7.9624416050798246 0  88.608688402482869 37.29577551946349 0  

0 4
179.00000174315096 4

0 4
88.000001743150989 4

Triangulations 0

TShapes 43
Ve
0.00300000014249235
-90.3913124690927 -50.704225352112 1.05879118406788e-022
0 0

0101101
*
Ve
0.00300000014249235
-90.3913124690926 -50.704225352112 179
0 0

0101101
*
Ed
 1e-007 1 1 0
1  1 0 8.71575480232423e-007 179.000000871575
2  1 1 0 8.71575480232423e-007 179.000000871575
2  2 2 0 8.71575480232423e-007 179.000000871575
0

0101000
+43 0 -42 0 *
Ve
0.00300000014249235
88.6086875309074 -50.704225352112 0
0 0

0101101
*
Ed
 0.000111635881962372 1 1 0
1  2 0 0 281.172464298543
2  3 1 0 0 281.172464298543
2  4 3 0 0 281.172464298543
0

0101000
+42 0 -40 0 *
Ed
 1e-007 1 1 0
1  3 0 8.71575480232423e-007 179.000000871576
2  5 1 0 8.71575480232423e-007 179.000000871576
2  6 4 0 8.71575480232423e-007 179.000000871576
0

0101000
+40 0 -43 0 *
Wi

0101000
+41 0 +39 0 +38 0 *
Fa
0  1e-007 1 0

0111000
+37 0 *
Ve
0.00300000014249235
-90.3913124690926 37.295774647888 0
0 0

0101101
*
Ed
 0.000247317428660225 1 1 0
1  4 0 0 205.71768969524
2  7 3 0 0 205.71768969524
2  8 2 0 0 205.71768969524
0

0101000
+42 0 -35 0 *
Ed
 0.00100000004749745 1 1 1
2  9 3 0 0 148.100233867391
0

0101000
+35 0 -35 0 *
Ed
 0.000247317428668708 1 1 0
1  5 0 0 205.71768969524
2  10 3 0 0 205.71768969524
2  11 4 0 0 205.71768969524
0

0101000
+35 0 -40 0 *
Wi

0101000
+34 0 +33 0 +32 0 -39 0 *
Fa
0  0.000111635881962372 3 0

0111000
+31 0 *
Ed
 1e-007 1 1 0
1  6 0 8.71575480232423e-007 88.0000008715755
2  12 4 0 8.71575480232423e-007 88.0000008715755
2  13 2 0 8.71575480232423e-007 88.0000008715755
0

0101000
+35 0 -43 0 *
Wi

0101000
-32 0 +29 0 -38 0 *
Fa
0  1e-007 4 0

0111000
+28 0 *
Wi

0101000
+41 0 +34 0 +29 0 *
Fa
0  1e-007 2 0

0111000
+26 0 *
Sh

0101000
+36 0 +30 0 +27 0 -25 0 *
So

0100000
-24 0 *
Ve
0.00300000014249235
-90.3913124690927 -50.704225352112 -1.05879118406788e-022
0 0

0101101
*
Ve
0.00300000014249235
-90.3913124690926 -50.704225352112 -179
0 0

0101101
*
Ed
 1e-007 1 1 0
1  7 0 8.71575480232423e-007 179.000000871575
2  14 5 0 8.71575480232423e-007 179.000000871575
2  15 6 0 8.71575480232423e-007 179.000000871575
0

0101000
+22 0 -21 0 *
Ve
0.00300000014249235
88.6086875309074 -50.704225352112 0
0 0

0101101
*
Ed
 0.000111635881962372 1 1 0
1  8 0 0 281.172464298543
2  16 5 0 0 281.172464298543
2  17 7 0 0 281.172464298543
0

0101000
+21 0 -19 0 *
Ed
 1e-007 1 1 0
1  9 0 8.71575480232423e-007 179.000000871576
2  18 5 0 8.71575480232423e-007 179.000000871576
2  19 8 0 8.71575480232423e-007 179.000000871576
0

0101000
+19 0 -22 0 *
Wi

0101000
+20 0 +18 0 +17 0 *
Fa
0  1e-007 5 0

0111000
+16 0 *
Ve
0.00300000014249235
-90.3913124690926 37.295774647888 0
0 0

0101101
*
Ed
 0.000247317428660225 1 1 0
1  10 0 0 205.71768969524
2  20 7 0 0 205.71768969524
2  21 6 0 0 205.71768969524
0

0101000
+21 0 -14 0 *
Ed
 2.22044604925031e-016 1 1 1
2  22 7 0 0 148.100233867391
0

0101100
+14 0 -14 0 *
Ed
 0.000247317428668708 1 1 0
1  11 0 0 205.71768969524
2  23 7 0 0 205.71768969524
2  24 8 0 0 205.71768969524
0

0101000
+14 0 -19 0 *
Wi

0101000
+13 0 +12 0 +11 0 -18 0 *
Fa
0  0.000111635881962372 7 0

0111000
+10 0 *
Ed
 1e-007 1 1 0
1  12 0 8.71575480232423e-007 88.0000008715755
2  25 8 0 8.71575480232423e-007 88.0000008715755
2  26 6 0 8.71575480232423e-007 88.0000008715755
0

0101000
+14 0 -22 0 *
Wi

0101000
-11 0 +8 0 -17 0 *
Fa
0  1e-007 8 0

0111000
+7 0 *
Wi

0101000
+20 0 +13 0 +8 0 *
Fa
0  1e-007 6 0

0111000
+5 0 *
Sh

0101000
-15 0 -9 0 -6 0 +4 0 *
So

0100000
-3 0 *
Co

1100000
+23 0 +2 0 *

+1 0 