DBRep_DrawableShape

CASCADE Topology V1, (c) Matra-Datavision
Locations 0
Curve2ds 78
1 0 0 1 0 
1 0 0 1 0 
1 10 0 0 -1 
1 0 0 0 1 
1 0 -10 1 0 
1 0 0 1 0 
1 0 0 0 -1 
1 0 0 0 1 
1 0 0 0 1 
1 0 0 1 0 
1 0 0 1 0 
1 0 10 1 0 
1 0 0 1 0 
1 0 0 1 0 
8 1.5 8.5
1 5 2.5 0 1 
8 1.5 8.5
1 -2.5 5 1 0 
8 -8.5 -1.5
1 2.5 5 -1 0 
8 -8.5 -1.5
1 -2.5 -5 -1 -0 
1 10 0 0 1 
1 0 0 1 0 
1 10 0 0 1 
1 0 10 1 0 
1 10 0 0 -1 
1 10 0 0 1 
1 10 0 0 -1 
1 0 0 0 1 
8 -8.5 -1.5
1 2.5 5 -1 0 
8 -8.5 -1.5
1 5 -2.5 0 -1 
8 1.5 8.5
1 5 -2.5 0 1 
8 1.5 8.5
1 5 -2.5 0 -1 
1 0 0 0 1 
1 0 10 1 0 
1 0 -10 1 0 
1 0 10 1 0 
1 0 -10 1 0 
1 0 0 0 -1 
1 10 0 0 1 
1 0 0 0 -1 
8 -8.5 -1.5
1 5 2.5 0 1 
8 -8.5 -1.5
1 5 2.5 0 -1 
1 5 2.5 0 1 
8 1.5 8.5
1 2.5 -5 1 0 
8 1.5 8.5
1 -2.5 5 1 0 
1 2.5 -5 1 0 
1 0 0 0 -1 
1 0 0 0 1 
1 0 0 0 1 
1 0 10 1 0 
1 0 -10 1 0 
1 0 0 1 0 
1 0 0 0 1 
1 0 0 1 0 
1 0 0 1 0 
1 0 10 1 0 
1 10 0 0 1 
1 0 0 1 0 
8 -8.5 -1.5
1 2.5 5 -1 0 
8 -8.5 -1.5
1 -2.5 -5 -1 -0 
8 1.5 8.5
1 5 -2.5 0 1 
8 1.5 8.5
1 2.5 5 1 0 
1 0 0 0 -1 
1 10 0 0 1 
1 0 -10 1 0 
1 0 10 1 0 
8 -8.5 -1.5
1 -2.5 5 -1 0 
8 -8.5 -1.5
1 5 2.5 0 -1 
1 10 0 0 1 
1 0 10 1 0 
1 10 0 0 -1 
1 10 0 0 1 
8 1.5 8.5
1 5 -2.5 0 1 
8 1.5 8.5
1 5 -2.5 0 -1 
1 0 0 0 1 
1 0 10 1 0 
1 0 -10 1 0 
1 0 10 1 0 
1 0 0 0 -1 
1 10 0 0 1 
Curves 35
1 0 0 0 0 0 1 
1 0 0 10 -0 1 0 
1 0 10 0 0 0 1 
1 0 0 0 -0 1 0 
1 0 0 0 1 0 -0 
1 10 0 0 0 0 1 
1 2.5 0 5 1 0 -0 
1 5 0 2.5 -0 0 -1 
1 0 0 10 1 0 -0 
1 0 10 10 1 0 -0 
1 10 0 10 -0 1 0 
1 2.5 5 10 -1 -0 0 
1 5 -2.5 10 -0 1 0 
1 0 10 0 1 0 -0 
1 10 10 0 0 0 1 
1 10 0 0 -0 1 0 
1 10 -2.5 5 0 -1 0 
1 10 5 2.5 0 0 1 
1 5 -5 5 -0 1 0 
1 5 5 5 1 0 -0 
1 5 5 5 0 0 1 
1 10 0 0 1 0 -0 
1 20 0 0 0 0 1 
1 10 0 10 1 0 -0 
1 15 0 2.5 -0 0 -1 
1 7.5 0 5 1 0 -0 
1 15 -5 5 -0 1 0 
1 15 5 5 0 0 1 
1 7.5 5 10 -1 -0 0 
1 10 10 10 1 0 -0 
1 20 0 10 -0 1 0 
1 15 -2.5 10 -0 1 0 
1 10 10 0 1 0 -0 
1 20 10 0 0 0 1 
1 20 0 0 -0 1 0 
Polygon3D 0
PolygonOnTriangulations 0
Surfaces 16
1 0 0 0 1 0 -0 0 0 1 0 -1 0 
1 0 0 0 -0 1 0 0 0 1 1 0 -0 
1 0 0 10 0 0 1 1 0 -0 -0 1 0 
1 0 10 0 -0 1 0 0 0 1 1 0 -0 
1 0 0 0 0 0 1 1 0 -0 -0 1 0 
1 10 0 0 1 0 -0 0 0 1 0 -1 0 
1 10 0 0 1 0 -0 0 0 1 0 -1 0 
1 10 0 0 -0 1 0 0 0 1 1 0 -0 
1 5 -5 5 0 0 1 1 0 -0 -0 1 0 
1 5 -5 5 1 0 -0 0 0 1 0 -1 0 
1 10 0 10 0 0 1 1 0 -0 -0 1 0 
1 5 5 5 -0 1 0 0 0 1 1 0 -0 
1 10 0 0 0 0 1 1 0 -0 -0 1 0 
1 20 0 0 1 0 -0 0 0 1 0 -1 0 
1 15 -5 5 1 0 -0 0 0 1 0 -1 0 
1 10 10 0 -0 1 0 0 0 1 1 0 -0 
Triangulations 0

TShapes 97
Ve
1e-007
0 0 10
0 0

0101101
*
Ve
1e-007
0 0 0
0 0

0101101
*
Ed
 1e-007 1 1 0
1  1 0 0 10
2  1 1 0 0 10
2  2 2 0 0 10
0

0101000
-97 0 +96 0 *
Ve
1e-007
0 10 10
0 0

0101101
*
Ed
 1e-007 1 1 0
1  2 0 0 10
2  3 1 0 0 10
2  4 3 0 0 10
0

0101000
-94 0 +97 0 *
Ve
1e-007
0 10 0
0 0

0101101
*
Ed
 1e-007 1 1 0
1  3 0 0 10
2  5 1 0 0 10
2  6 4 0 0 10
0

0101000
-94 0 +92 0 *
Ed
 1e-007 1 1 0
1  4 0 0 10
2  7 1 0 0 10
2  8 5 0 0 10
0

0101000
-92 0 +96 0 *
Wi

0101100
-95 0 -93 0 +91 0 +90 0 *
Fa
0  1e-007 1 0

0111000
+89 0 *
Ve
1e-007
10 0 0
0 0

0101101
*
Ed
 1e-007 1 1 0
1  5 0 0 10
2  9 2 0 0 10
2  10 5 0 0 10
0

0101000
+96 0 -87 0 *
Ve
2.12132034355964e-007
10 0 5
0 0

0101101
*
Ed
 1e-007 1 1 0
1  6 0 0 5
2  11 6 0 0 5
2  12 2 0 0 5
2  13 7 0 0 5
2  14 8 0 0 5
0

0101000
+87 0 -85 0 *
Ve
1.5e-007
5 0 5
0 0

0101101
*
Ed
 1.5e-007 1 1 0
1  7 0 2.5 7.5
2  15 2 0 2.5 7.5
2  16 9 0 2.5 7.5
0

0101000
+83 0 -85 0 *
Ve
1.5e-007
5 0 10
0 0

0101101
*
Ed
 1.5e-007 1 1 0
1  8 0 -7.5 -2.5
2  17 2 0 -7.5 -2.5
2  18 10 0 -7.5 -2.5
0

0101000
+81 0 -83 0 *
Ed
 1e-007 1 1 0
1  9 0 0 5
2  19 2 0 0 5
2  20 3 0 0 5
0

0101000
+97 0 -81 0 *
Wi

0101100
-86 0 -84 0 +82 0 +80 0 +79 0 +95 0 *
Fa
0  1e-007 2 0

0111000
+78 0 *
Ve
1e-007
10 10 10
0 0

0101101
*
Ed
 1e-007 1 1 0
1  10 0 0 10
2  21 4 0 0 10
2  22 3 0 0 10
0

0101000
+94 0 -76 0 *
Ve
2.12132034355964e-007
10 5 10
0 0

0101101
*
Ed
 1e-007 1 1 0
1  11 0 5 10
2  23 6 0 5 10
2  24 3 0 5 10
2  25 7 0 5 10
2  26 11 0 5 10
0

0101000
+74 0 -76 0 *
Ve
1.5e-007
5 5 10
0 0

0101101
*
Ed
 1.5e-007 1 1 0
1  12 0 -7.5 -2.5
2  27 3 0 -7.5 -2.5
2  28 12 0 -7.5 -2.5
0

0101000
+74 0 -72 0 *
Ed
 1.5e-007 1 1 0
1  13 0 2.5 7.5
2  29 3 0 2.5 7.5
2  30 10 0 2.5 7.5
0

0101000
+81 0 -72 0 *
Wi

0101100
-75 0 +73 0 -71 0 +70 0 +79 0 -93 0 *
Fa
0  1e-007 3 0

0111000
+69 0 *
Ve
1e-007
10 10 0
0 0

0101101
*
Ed
 1e-007 1 1 0
1  14 0 0 10
2  31 4 0 0 10
2  32 5 0 0 10
0

0101000
+92 0 -67 0 *
Ed
 1e-007 1 1 0
1  15 0 0 10
2  33 6 0 0 10
2  34 4 0 0 10
2  35 7 0 0 10
0

0101000
+67 0 -76 0 *
Wi

0101100
-66 0 -65 0 +75 0 +91 0 *
Fa
0  1e-007 4 0

0111000
+64 0 *
Ed
 1e-007 1 1 0
1  16 0 0 10
2  36 6 0 0 10
2  37 5 0 0 10
2  38 7 0 0 10
0

0101000
+87 0 -67 0 *
Wi

0101100
-90 0 -66 0 +62 0 +86 0 *
Fa
0  1e-007 5 0

0111000
+61 0 *
Ve
2.12133034355964e-007
10 5 5
0 0

0101101
*
Ed
 2.12132034355964e-007 1 1 0
1  17 0 -7.5 -2.5
2  39 6 0 -7.5 -2.5
2  40 9 0 -7.5 -2.5
2  41 7 0 -7.5 -2.5
0

0101000
+59 0 -85 0 *
Ed
 2.12132034355964e-007 1 1 0
1  18 0 2.5 7.5
2  42 6 0 2.5 7.5
2  43 12 0 2.5 7.5
2  44 7 0 2.5 7.5
0

0101000
+59 0 -74 0 *
Wi

0101100
-84 0 +58 0 -57 0 -73 0 +65 0 +62 0 *
Fa
0  1e-007 6 0

0111000
+56 0 *
Ve
1e-007
5 5 5
0 0

0101101
*
Ed
 1e-007 1 1 0
1  19 0 5 10
2  45 10 0 5 10
2  46 9 0 5 10
0

0101000
+83 0 -54 0 *
Ed
 1e-007 1 1 0
1  20 0 0 5
2  47 12 0 0 5
2  48 9 0 0 5
0

0101000
+54 0 -59 0 *
Wi

0101100
-53 0 -52 0 -58 0 +82 0 *
Fa
0  1e-007 9 0

0111000
+51 0 *
Ed
 1e-007 1 1 0
1  21 0 0 5
2  49 10 0 0 5
2  50 12 0 0 5
0

0101000
+54 0 -72 0 *
Wi

0101100
+80 0 -70 0 +49 0 +53 0 *
Fa
0  1e-007 10 0

0111000
+48 0 *
Wi

0101100
-52 0 -57 0 -71 0 +49 0 *
Fa
0  1e-007 12 0

0111000
+46 0 *
Sh

0101100
-88 0 -77 0 +68 0 +63 0 -60 0 +55 0 +50 0 +47 0 -45 0 *
So

0100000
+44 0 *
Ve
1e-007
20 0 0
0 0

0101101
*
Ed
 1e-007 1 1 0
1  22 0 0 10
2  51 8 0 0 10
2  52 13 0 0 10
0

0101000
+87 0 -42 0 *
Ve
1e-007
20 0 10
0 0

0101101
*
Ed
 1e-007 1 1 0
1  23 0 0 10
2  53 14 0 0 10
2  54 8 0 0 10
0

0101000
-40 0 +42 0 *
Ve
1.5e-007
15 0 10
0 0

0101101
*
Ed
 1e-007 1 1 0
1  24 0 5 10
2  55 8 0 5 10
2  56 11 0 5 10
0

0101000
+38 0 -40 0 *
Ve
1.5e-007
15 0 5
0 0

0101101
*
Ed
 1.5e-007 1 1 0
1  25 0 -7.5 -2.5
2  57 8 0 -7.5 -2.5
2  58 15 0 -7.5 -2.5
0

0101000
+38 0 -36 0 *
Ed
 1.5e-007 1 1 0
1  26 0 2.5 7.5
2  59 8 0 2.5 7.5
2  60 9 0 2.5 7.5
0

0101000
+85 0 -36 0 *
Wi

0101100
-41 0 -39 0 +37 0 -35 0 +34 0 +84 0 *
Fa
0  1e-007 8 0

0111000
+33 0 *
Ve
1e-007
15 5 5
0 0

0101101
*
Ed
 1e-007 1 1 0
1  20 0 5 10
2  47 12 0 5 10
2  48 9 0 5 10
0

0101000
+59 0 -31 0 *
Ed
 1e-007 1 1 0
1  27 0 5 10
2  61 15 0 5 10
2  62 9 0 5 10
0

0101000
+36 0 -31 0 *
Wi

0101100
+58 0 -30 0 +29 0 +34 0 *
Fa
0  1e-007 9 0

0111000
+28 0 *
Ve
1.5e-007
15 5 10
0 0

0101101
*
Ed
 1e-007 1 1 0
1  28 0 0 5
2  63 15 0 0 5
2  64 12 0 0 5
0

0101000
+31 0 -26 0 *
Ed
 1.5e-007 1 1 0
1  29 0 -7.5 -2.5
2  65 11 0 -7.5 -2.5
2  66 12 0 -7.5 -2.5
0

0101000
+26 0 -74 0 *
Wi

0101100
-30 0 -25 0 -24 0 +57 0 *
Fa
0  1e-007 12 0

0111000
+23 0 *
Ve
1e-007
20 10 10
0 0

0101101
*
Ed
 1e-007 1 1 0
1  30 0 0 10
2  67 16 0 0 10
2  68 11 0 0 10
0

0101000
+76 0 -21 0 *
Ed
 1e-007 1 1 0
1  31 0 0 10
2  69 14 0 0 10
2  70 11 0 0 10
0

0101000
-21 0 +40 0 *
Ed
 1.5e-007 1 1 0
1  32 0 2.5 7.5
2  71 11 0 2.5 7.5
2  72 15 0 2.5 7.5
0

0101000
+38 0 -26 0 *
Wi

0101100
-73 0 -20 0 +19 0 +37 0 -18 0 -24 0 *
Fa
0  1e-007 11 0

0111000
+17 0 *
Ve
1e-007
20 10 0
0 0

0101101
*
Ed
 1e-007 1 1 0
1  33 0 0 10
2  73 16 0 0 10
2  74 13 0 0 10
0

0101000
+67 0 -15 0 *
Ed
 1e-007 1 1 0
1  34 0 0 10
2  75 14 0 0 10
2  76 16 0 0 10
0

0101000
-21 0 +15 0 *
Wi

0101100
-14 0 -13 0 +20 0 +65 0 *
Fa
0  1e-007 16 0

0111000
+12 0 *
Ed
 1e-007 1 1 0
1  35 0 0 10
2  77 14 0 0 10
2  78 13 0 0 10
0

0101000
-15 0 +42 0 *
Wi

0101100
-62 0 -14 0 +10 0 +41 0 *
Fa
0  1e-007 13 0

0111000
+9 0 *
Wi

0101100
-39 0 -19 0 +13 0 +10 0 *
Fa
0  1e-007 14 0

0111000
+7 0 *
Wi

0101100
+35 0 -18 0 +25 0 +29 0 *
Fa
0  1e-007 15 0

0111000
+5 0 *
Sh

0101100
-55 0 -32 0 +27 0 -22 0 +16 0 +11 0 -8 0 +6 0 -4 0 *
So

0100000
+3 0 *
Co

1100000
+43 0 +2 0 *

+1 0 
0

