DBRep_DrawableShape

CASCADE Topology V1, (c) Matra-Datavision
Locations 15
1
              1               0               0               0 
              0               1               0               0 
              0               0               1               0 
1
              1               0               0               0 
              0               1               0               0 
              0               0               1              -2 
2  2 -1 0
1
              1               0               0               0 
              0               1               0               0 
              0               0               1              -2 
1
              1               0               0               0 
              0               1               0               0 
              0               0               1              -2 
2  4 1 5 -1 0
2  5 1 4 -1 0
2  4 -1 0
2  2 -1 5 1 4 -1 0
1
              1               0               0               0 
              0               1               0               0 
              0               0               1               2 
2  4 1 5 -1 10 1 0
2  10 -1 5 1 4 -1 0
2  2 -1 10 -1 5 1 4 -1 0
2  5 -1 0
2  5 -1 10 1 0
Curve2ds 12
1 0 0 0 -1 
1 6.2831853071795898 0 0 -1 
1 0 0 1 0 
2 20 0 -1 0 0 1 20
1 0 -2 1 0 
2 20 0 -1 0 0 1 20
1 0 0 0 -1 
1 6.2831853071795898 0 0 -1 
1 0 0 1 0 
2 20 0 -1 0 0 1 11
1 0 -2 1 0 
2 20 0 -1 0 0 1 11
Curves 6
1 20 0 0 0 0 1 
2 0 0 0 0 0 1 1 0 -0 -0 1 0 20
2 0 0 0 0 0 1 1 0 -0 -0 1 0 20
1 11 0 0 0 0 1 
2 0 0 0 0 0 1 1 0 -0 -0 1 0 11
2 0 0 0 0 0 1 1 0 -0 -0 1 0 11
Polygon3D 0
PolygonOnTriangulations 0
Surfaces 4
2 0 0 0 -0 -0 -1 1 0 0 -0 1 -0 20
1 20 0 -2 -0 0 -1 -1 0 0 0 1 0 
1 20 0 -2 -0 0 -1 -1 0 0 0 1 0 
2 0 0 0 -0 -0 -1 1 0 0 -0 1 -0 11
Triangulations 0

TShapes 22
Ve
1e-07
20 0 -2
0 0

0101101
*
Ve
1e-07
20 0 0
0 0

0101101
*
Ed
 1e-07 1 1 0
1  1 0 0 2
3  1 2CN 1 0 0 2
0

0101000
+22 3 -21 3 *
Ed
 1e-07 1 1 0
1  2 0 0 6.28318530717959
2  3 1 7 0 6.28318530717959
2  4 2 8 0 6.28318530717959
0

0101100
+22 9 -22 9 *
Ed
 1e-07 1 1 0
1  3 0 0 6.28318530717959
2  5 1 12 0 6.28318530717959
2  6 3 8 0 6.28318530717959
0

0101100
+21 13 -21 13 *
Wi

0101000
+20 0 -20 0 -19 6 +18 11 *
Fa
0  1e-07 1 0

0111000
+17 0 *
Ve
1e-07
11 0 -2
0 0

0101101
*
Ve
1e-07
11 0 0
0 0

0101101
*
Ed
 1e-07 1 1 0
1  4 0 0 2
3  7 8CN 4 0 0 2
0

0101000
+15 3 -14 3 *
Ed
 1e-07 1 1 0
1  5 0 0 6.28318530717959
2  9 4 7 0 6.28318530717959
2  10 2 8 0 6.28318530717959
0

0101100
+15 9 -15 9 *
Ed
 1e-07 1 1 0
1  6 0 0 6.28318530717959
2  11 4 12 0 6.28318530717959
2  12 3 8 0 6.28318530717959
0

0101100
+14 13 -14 13 *
Wi

0101000
+13 0 -13 0 -12 6 +11 11 *
Fa
0  1e-07 4 0

0111000
+10 0 *
Wi

0101100
+19 0 *
Wi

0101100
+12 0 *
Fa
0  1e-07 2 0

0111000
-8 4 +7 4 *
Wi

0101100
+18 0 *
Wi

0101100
+11 0 *
Fa
0  1e-07 3 0

0111000
-5 4 +4 4 *
Sh

0101000
-16 0 +9 0 +6 14 -3 15 *
So

1100000
+2 0 *

+1 1 