DBRep_DrawableShape

CASCADE Topology V1, (c) Matra-Datavision
Locations 2
1
              1               0               0               0 
              0               1               0               0 
              0               0               1              15 
2  1 -1 0
Curve2ds 4
1 0 0 0 -1 
1 163.47900000000001 0 0 -1 
1 0 0 1 0 
1 0 -15 1 0 
Curves 2
1 -7.2660971632872755 -2.4959487905308499 0 0 0 1 
7 0 1  3 42 42  -6.8486399999999996 -2.8969800000000001 0  -7.8487 -1.9362699999999999 0  -9.6224000000000007 0.16669700000000001 0  -11.6493 4.1509900000000002 0  -7.22539 6.8743800000000004 0  -2.7861199999999999 8.7348300000000005 0  3.2602000000000002 8.5477000000000007 0  8.6131399999999996 8.7223400000000009 0  13.337300000000001 5.4558600000000004 0  13.044600000000001 -0.081470799999999996 0  10.230499999999999 -5.9357699999999998 0  3.0874700000000002 -5.1701699999999997 0  -4.4514800000000001 -3.1082100000000001 0  -2.9066399999999999 4.4059699999999999 0  2.8742299999999998 5.66723 0  9.1714199999999995 4.92753 0  10.07 -1.5828199999999999 0  4.8646599999999998 -4.1270699999999998 0  2.02312 -0.94201800000000002 0  2.7526799999999998 2.1121699999999999 0  5.74315 2.2866200000000001 0  5.5704500000000001 0.53995199999999999 0  3.72607 -0.548149 0  4.1394299999999999 0.55539400000000005 0  3.5847099999999998 1.3003 0  3.1969400000000001 -0.60752399999999995 0  4.4475699999999998 -1.87283 0  7.1553899999999997 -2.24152 0  8.7864500000000003 0.63375000000000004 0  6.8171299999999997 4.2550100000000004 0  2.7662300000000002 3.7265299999999999 0  -0.98736400000000002 2.7783600000000002 0  -2.2271700000000001 -2.1424500000000002 0  2.7729900000000001 -3.5527700000000002 0  7.1952999999999996 -4.9727399999999999 0  11.341799999999999 -1.3008 0  11.857699999999999 5.9371900000000002 0  4.7447499999999998 6.4367000000000001 0  -0.65536499999999998 7.2409600000000003 0  -4.9104099999999997 5.8733899999999997 0  -9.2731399999999997 1.7958700000000001 0  -3.0376500000000002 -1.20269 0 
 0 2 3.0633400000000002 1 7.6806000000000001 1 10.573700000000001 1 16.706700000000001 1 22.5611 1 28.314900000000002 1 32.6648 1 37.811100000000003 1 43.601100000000002 1 49.604399999999998 1 57.709099999999999 1 62.169499999999999 1 67.901600000000002 1 73.882400000000004 1 78.489000000000004 1 83.287400000000005 1 86.552300000000002 1 89.020799999999994 1 91.207300000000004 1 92.072000000000003 1 93.735600000000005 1 94.311800000000005 1 94.819999999999993 1 95.6982 1 97.877499999999998 1 100.039 1 102.785 1 105.81 1 110.37 1 113.465 1 117.047 1 121.723 1 126.226 1 130.541 1 136.50999999999999 1 142.87100000000001 1 147.93199999999999 1 153.249 1 156.78 1 161.28399999999999 1 163.47900000000001 2
Polygon3D 0
PolygonOnTriangulations 0
Surfaces 2
6 -0 -0 -1 
7 0 1  3 42 42  -6.8486399999999996 -2.8969800000000001 0  -7.8487 -1.9362699999999999 0  -9.6224000000000007 0.16669700000000001 0  -11.6493 4.1509900000000002 0  -7.22539 6.8743800000000004 0  -2.7861199999999999 8.7348300000000005 0  3.2602000000000002 8.5477000000000007 0  8.6131399999999996 8.7223400000000009 0  13.337300000000001 5.4558600000000004 0  13.044600000000001 -0.081470799999999996 0  10.230499999999999 -5.9357699999999998 0  3.0874700000000002 -5.1701699999999997 0  -4.4514800000000001 -3.1082100000000001 0  -2.9066399999999999 4.4059699999999999 0  2.8742299999999998 5.66723 0  9.1714199999999995 4.92753 0  10.07 -1.5828199999999999 0  4.8646599999999998 -4.1270699999999998 0  2.02312 -0.94201800000000002 0  2.7526799999999998 2.1121699999999999 0  5.74315 2.2866200000000001 0  5.5704500000000001 0.53995199999999999 0  3.72607 -0.548149 0  4.1394299999999999 0.55539400000000005 0  3.5847099999999998 1.3003 0  3.1969400000000001 -0.60752399999999995 0  4.4475699999999998 -1.87283 0  7.1553899999999997 -2.24152 0  8.7864500000000003 0.63375000000000004 0  6.8171299999999997 4.2550100000000004 0  2.7662300000000002 3.7265299999999999 0  -0.98736400000000002 2.7783600000000002 0  -2.2271700000000001 -2.1424500000000002 0  2.7729900000000001 -3.5527700000000002 0  7.1952999999999996 -4.9727399999999999 0  11.341799999999999 -1.3008 0  11.857699999999999 5.9371900000000002 0  4.7447499999999998 6.4367000000000001 0  -0.65536499999999998 7.2409600000000003 0  -4.9104099999999997 5.8733899999999997 0  -9.2731399999999997 1.7958700000000001 0  -3.0376500000000002 -1.20269 0 
 0 2 3.0633400000000002 1 7.6806000000000001 1 10.573700000000001 1 16.706700000000001 1 22.5611 1 28.314900000000002 1 32.6648 1 37.811100000000003 1 43.601100000000002 1 49.604399999999998 1 57.709099999999999 1 62.169499999999999 1 67.901600000000002 1 73.882400000000004 1 78.489000000000004 1 83.287400000000005 1 86.552300000000002 1 89.020799999999994 1 91.207300000000004 1 92.072000000000003 1 93.735600000000005 1 94.311800000000005 1 94.819999999999993 1 95.6982 1 97.877499999999998 1 100.039 1 102.785 1 105.81 1 110.37 1 113.465 1 117.047 1 121.723 1 126.226 1 130.541 1 136.50999999999999 1 142.87100000000001 1 147.93199999999999 1 153.249 1 156.78 1 161.28399999999999 1 163.47900000000001 2
1 2.8673239437050859 1.7146770934022124 0 -0 -0 -1 -1 0 0 0 1 -0 
Triangulations 0

TShapes 9
Ve
1e-07
-7.26609716328728 -2.49594879053085 0
0 0

0101101
*
Ed
 1e-07 1 1 0
1  1 0 0 15
3  1 2CN 1 0 0 15
0

0101000
+9 0 -9 1 *
Ed
 1e-07 1 1 0
1  2 0 0 163.479
2  3 1 0 0 163.479
2  4 1 2 0 163.479
0

0101000
+9 0 -9 0 *
Wi

0101100
+8 0 -8 0 -7 0 +7 1 *
Fa
0  1e-07 1 0

0101000
+6 0 *
Wi

0101100
+7 0 *
Fa
0  1e-07 2 0

0111000
+4 0 *
Sh

0101100
+5 0 +3 0 -3 1 *
So

1100000
+2 0 *

+1 0 