DBRep_DrawableShape

CASCADE Topology V1, (c) Matra-Datavision
Locations 0
Curve2ds 5
1 0 131.52437513921896 1 0 
1 6.2831853071795862 -0 0 1 
1 0 -0 0 1 
1 0 0 1 0 
2 0 0 1 0 -0 1 19.96650334339979
Curves 2
1 53.524382004569361 37.065735926354137 0 -0.15180838777804637 3.7182331235220932e-017 0.98840994197763421 
2 33.557878661169568 37.065735926354144 0 0 0 1 1 0 -0 -0 1 0 19.96650334339979
Polygon3D 0
PolygonOnTriangulations 5
2 1 2 
p 0.5200000008 1 0 6.28318530717959 
2 3 2 
p 0.5200000008 1 0 131.524375139219 
2 4 1 
p 0.5200000008 1 0 131.524375139219 
37 4 5 6 7 8 9 10 11 12 13 14 15 16 17 18 19 20 21 22 23 24 25 26 27 28 29 30 31 32 33 34 35 36 37 38 39 3 
p 0.5200000008 1 0 0.174532925199433 0.349065850398866 0.523598775598299 0.698131700797732 0.872664625997165 1.0471975511966 1.22173047639603 1.39626340159546 1.5707963267949 1.74532925199433 1.91986217719376 2.0943951023932 2.26892802759263 2.44346095279206 2.61799387799149 2.79252680319093 2.96705972839036 3.14159265358979 3.31612557878922 3.49065850398866 3.66519142918809 3.83972435438752 4.01425727958696 4.18879020478639 4.36332312998582 4.53785605518525 4.71238898038469 4.88692190558412 5.06145483078355 5.23598775598299 5.41052068118242 5.58505360638185 5.75958653158128 5.93411945678072 6.10865238198015 6.28318530717959 
37 1 2 3 4 5 6 7 8 9 10 11 12 13 14 15 16 17 18 19 20 21 22 23 24 25 26 27 28 29 30 31 32 33 34 35 36 1 
p 0.5200000008 1 0 0.174532925199433 0.349065850398866 0.523598775598299 0.698131700797732 0.872664625997165 1.0471975511966 1.22173047639603 1.39626340159546 1.5707963267949 1.74532925199433 1.91986217719376 2.0943951023932 2.26892802759263 2.44346095279206 2.61799387799149 2.79252680319093 2.96705972839036 3.14159265358979 3.31612557878922 3.49065850398866 3.66519142918809 3.83972435438752 4.01425727958696 4.18879020478639 4.36332312998582 4.53785605518525 4.71238898038469 4.88692190558412 5.06145483078355 5.23598775598299 5.41052068118242 5.58505360638185 5.75958653158128 5.93411945678072 6.10865238198015 6.28318530717959 
Surfaces 2
3 33.557878661169568 37.065735926354144 0 0 0 1 1 0 0 0 1 0 19.96650334339979
-0.15239760967267743
1 33.557878661169568 37.065735926354144 0 0 0 1 1 0 0 0 1 0 
Triangulations 2
421 801 1 0.446966004685387
33.5578786611696 37.0657359263541 130 33.5578786611696 37.0657359263541 130 53.5243820045694 37.0657359263541 0 53.5243820045694 37.0657359263541 0 53.2210459542939 40.5328828463162 0 52.3202545158595 43.8946822615762 0 50.8493777813007 47.048987598054 0 48.8531075958975 49.8999568842564 0 46.3920996190718 52.360964861082 0 43.5411303328695 54.3572350464853 0 40.3868249963916 55.8281117810441 0 37.0250255811316 56.7289032194784 0 33.5578786611696 57.0322392697539 0 30.0907317412075 56.7289032194784 0 26.7289323259475 55.8281117810441 0 23.5746269894697 54.3572350464853 0 20.7236577032673 52.3609648610821 0 18.2626497264417 49.8999568842564 0 16.2663795410384 47.0489875980541 0 14.7955028064796 43.8946822615762 0 13.8947113680453 40.5328828463162 0 13.5913753177698 37.0657359263542 0 13.8947113680453 33.5985890063921 0 14.7955028064796 30.2367895911321 0 16.2663795410384 27.0824842546543 0 18.2626497264416 24.2315149684519 0 20.7236577032673 21.7705069916263 0 23.5746269894696 19.774236806223 0 26.7289323259475 18.3033600716642 0 30.0907317412075 17.4025686332299 0 33.5578786611695 17.0992325829544 0 37.0250255811316 17.4025686332298 0 40.3868249963915 18.3033600716642 0 43.5411303328694 19.774236806223 0 46.3920996190718 21.7705069916262 0 48.8531075958974 24.2315149684518 0 50.8493777813007 27.0824842546542 0 52.3202545158595 30.236789591132 0 53.2210459542938 33.598589006392 0 50.2621338663514 45.1100812592533 9.28571428571429 45.1175819307442 51.5611453415506 9.28571428571429 37.6834889921408 55.1412158146383 9.28571428571429 48.9771911582605 44.4912854644149 18.5714285714286 29.4322683301983 55.1412158146383 9.28571428571429 44.2283739869308 50.446113848074 18.5714285714286 21.9981753915949 51.5611453415506 9.28571428571429 37.3661343512969 53.7507942847703 18.5714285714286 47.6922484501696 43.8724896695765 27.8571428571429 16.8536234559877 45.1100812592533 9.28571428571429 29.7496229710423 53.7507942847703 18.5714285714286 43.3391660431173 49.3310823545973 27.8571428571429 15.0175541280126 37.0657359263541 9.28571428571429 22.8873833354084 50.446113848074 18.5714285714286 37.0487797104529 52.3603727549023 27.8571428571429 46.4073057420787 43.2536938747381 37.1428571428571 16.8536234559877 29.021390593455 9.28571428571429 18.1385661640786 44.4912854644149 18.5714285714286 30.0669776118862 52.3603727549023 27.8571428571429 42.4499580993039 48.2160508611207 37.1428571428571 21.9981753915949 22.5703265111577 9.28571428571429 16.4437329382555 37.0657359263541 18.5714285714286 23.7765912792218 49.3310823545973 27.8571428571429 36.731425069609 50.9699512250343 37.1428571428571 45.1223630339878 42.6348980798997 46.4285714285714 29.4322683301983 18.99025603807 9.28571428571429 18.1385661640786 29.6401863882934 18.5714285714286 19.4235088721695 43.8724896695765 27.8571428571429 30.3843322527301 50.9699512250343 37.1428571428571 41.5607501554905 47.101019367644 46.4285714285714 37.6834889921408 18.99025603807 9.28571428571429 22.8873833354084 23.6853580046343 18.5714285714286 17.8699117484983 37.0657359263541 27.8571428571429 24.6657992230352 48.2160508611207 37.1428571428571 36.4140704287651 49.5795296951662 46.4285714285714 43.8374203258969 42.0161022850613 55.7142857142857 45.1175819307442 22.5703265111577 9.28571428571429 29.7496229710423 20.380677567938 18.5714285714286 19.4235088721695 30.2589821831318 27.8571428571429 20.7084515802604 43.2536938747381 37.1428571428571 30.7016868935741 49.5795296951662 46.4285714285714 40.671542211677 45.9859878741674 55.7142857142857 50.2621338663514 29.021390593455 9.28571428571429 37.3661343512969 20.380677567938 18.5714285714286 23.7765912792218 24.800389498111 27.8571428571429 19.2960905587411 37.0657359263541 37.1428571428571 25.5550071668487 47.101019367644 46.4285714285714 36.0967157879211 48.1891081652982 55.7142857142857 42.552477617806 41.3973064902229 65 44.2283739869308 23.6853580046343 18.5714285714286 30.0669776118862 21.771099097806 27.8571428571429 20.7084515802604 30.8777779779702 37.1428571428571 21.9933942883514 42.6348980798997 46.4285714285714 31.019041534418 48.1891081652982 55.7142857142857 39.7823342678636 44.8709563806907 65 48.9771911582605 29.6401863882934 18.5714285714286 37.0487797104529 21.771099097806 27.8571428571429 24.6657992230352 25.9154209915876 37.1428571428571 20.722269368984 37.0657359263541 46.4285714285714 26.4442151106621 45.9859878741674 55.7142857142857 35.7793611470772 46.7986866354302 65 41.267534909715 40.7785106953845 74.2857142857143 43.3391660431173 24.800389498111 27.8571428571429 30.3843322527301 23.161520627674 37.1428571428571 21.9933942883514 31.4965737728086 46.4285714285714 23.2783369964423 42.0161022850613 55.7142857142857 31.336396175262 46.7986866354302 65 38.8931263240502 43.7559248872141 74.2857142857143 47.6922484501696 30.2589821831318 27.8571428571429 36.731425069609 23.161520627674 37.1428571428571 25.5550071668487 27.0304524850643 46.4285714285714 22.1484481792268 37.0657359263541 55.7142857142857 27.3334230544755 44.8709563806907 65 35.4620065062332 45.4082651055622 74.2857142857143 39.9825922016241 40.1597149005461 83.5714285714286 42.4499580993039 25.9154209915876 37.1428571428571 30.7016868935741 24.551942157542 46.4285714285714 23.2783369964423 32.115369567647 55.7142857142857 24.5632797045332 41.3973064902229 65 31.6537508161059 45.4082651055622 74.2857142857143 38.0039183802367 42.6408933937374 83.5714285714286 46.4073057420787 30.8777779779702 37.1428571428571 36.4140704287651 24.551942157542 46.4285714285714 26.4442151106621 28.1454839785409 55.7142857142857 23.5746269894697 37.0657359263541 65 28.222630998289 43.7559248872141 74.2857142857143 35.1446518653893 44.0178435756942 83.5714285714286 38.6976494935332 39.5409191057077 92.8571428571429 41.5607501554905 27.0304524850643 46.4285714285714 31.019041534418 25.9423636874101 55.7142857142857 24.5632797045332 32.7341653624854 65 25.8482224126241 40.7785106953845 74.2857142857143 31.9711054569499 44.0178435756942 83.5714285714286 37.1147104364233 41.5258619002608 92.8571428571429 45.1223630339878 31.4965737728086 46.4285714285714 36.0967157879211 25.9423636874101 55.7142857142857 27.3334230544755 29.2605154720176 65 25.0008057997125 37.0657359263541 74.2857142857143 29.1118389421024 42.6408933937374 83.5714285714286 34.8272972245453 42.6274220458262 92.8571428571429 37.4127067854423 38.9221233108693 102.142857142857 40.671542211677 28.1454839785409 55.7142857142857 31.336396175262 27.3327852172781 65 25.8482224126241 33.3529611573238 74.2857142857143 27.133165120715 40.1597149005461 83.5714285714286 32.2884600977938 42.6274220458262 92.8571428571429 36.2255024926099 40.4108304067841 102.142857142857 43.8374203258969 32.115369567647 55.7142857142857 35.7793611470772 27.3327852172781 65 28.222630998289 30.3755469654942 74.2857142857143 26.4269846099554 37.0657359263541 83.5714285714286 30.0010468859158 41.5258619002608 92.8571428571429 34.5099425837014 41.2370005159582 102.142857142857 36.1277640773514 38.3033275160309 111.428571428571 39.7823342678636 29.2605154720176 65 31.6537508161059 28.7232067471461 74.2857142857143 27.133165120715 33.9717569521622 83.5714285714286 28.4181078288059 39.5409191057077 92.8571428571429 32.6058147386377 41.2370005159582 102.142857142857 35.3362945487964 39.2957989133075 111.428571428571 42.5524776178059 32.7341653624854 65 35.4620065062332 28.7232067471461 74.2857142857143 29.1118389421024 31.4905784589709 83.5714285714286 27.8531634201982 37.0657359263541 92.8571428571429 30.8902548297293 40.4108304067841 102.142857142857 34.1925879428575 39.8465789860902 111.428571428571 34.8428213692605 37.6845317211925 120.714285714286 38.8931263240502 30.3755469654942 74.2857142857143 31.9711054569499 30.1136282770141 83.5714285714286 28.4181078288059 34.5905527470006 92.8571428571429 29.7030505368968 38.9221233108693 102.142857142857 32.9231693794817 39.8465789860902 111.428571428571 34.447086604983 38.1807674198308 120.714285714286 41.267534909715 33.3529611573238 74.2857142857143 35.1446518653893 30.1136282770141 83.5714285714286 30.0010468859158 32.6056099524475 92.8571428571429 29.279342230441 37.0657359263541 102.142857142857 31.7794627735427 39.2957989133075 111.428571428571 33.8752333020135 38.4561574562222 120.714285714286 38.0039183802367 31.4905784589709 83.5714285714286 32.2884600977938 31.5040498068821 92.8571428571429 29.7030505368968 35.209348541839 102.142857142857 30.9879932449877 38.3033275160309 111.428571428571 33.2405240203256 38.4561574562222 120.714285714286 39.9825922016241 33.9717569521622 83.5714285714286 34.8272972245453 31.5040498068821 92.8571428571429 30.8902548297293 33.7206414459242 102.142857142857 30.7055210406839 37.0657359263541 111.428571428571 32.6686707173561 38.1807674198308 120.714285714286 37.1147104364233 32.6056099524475 92.8571428571429 32.6058147386377 32.8944713367501 102.142857142857 30.9879932449877 35.8281443366774 111.428571428571 32.2729359530787 37.6845317211925 120.714285714286 38.6976494935332 34.5905527470006 92.8571428571429 34.5099425837014 32.8944713367501 102.142857142857 31.7794627735427 34.8356729394008 111.428571428571 32.1316998509267 37.0657359263541 120.714285714286 36.2255024926099 33.7206414459242 102.142857142857 32.9231693794817 34.2848928666181 111.428571428571 32.2729359530787 36.4469401315158 120.714285714286 37.4127067854423 35.209348541839 102.142857142857 34.1925879428575 34.2848928666181 111.428571428571 32.6686707173561 35.9507044328775 120.714285714286 35.3362945487964 34.8356729394008 111.428571428571 33.2405240203256 35.6753143964861 120.714285714286 36.1277640773514 35.8281443366774 111.428571428571 33.8752333020135 35.6753143964861 120.714285714286 34.447086604983 35.9507044328775 120.714285714286 34.8428213692605 36.4469401315157 120.714285714286 51.6333585494537 41.1913462573254 9.28571428571429 50.9381477845197 41.0326689369034 13.9285714285714 50.2429370195857 40.8739916164815 18.5714285714286 49.5477262546517 40.7153142960595 23.2142857142857 48.8525154897177 40.5566369756375 27.8571428571429 48.1573047247837 40.3979596552155 32.5 51.6333585494537 32.9401255953829 9.28571428571429 50.9381477845197 33.0988029158049 13.9285714285714 50.2429370195857 33.2574802362268 18.5714285714286 49.5477262546517 33.4161575566488 23.2142857142857 48.8525154897177 33.5748348770708 27.8571428571429 48.1573047247837 33.7335121974927 32.5 38.4243540157076 38.1764771693079 97.5 37.7291432507736 38.017799848886 102.142857142857 37.0339324858396 37.859122528464 106.785714285714 36.3387217209056 37.700445208042 111.428571428571 34.0024826330763 37.6232516730925 125.357142857143 33.8672765585888 37.7082072803996 125.357142857143 33.7165559815915 37.7609466912881 125.357142857143 33.5578786611696 37.7788253314756 125.357142857143 38.5548768477767 35.5243661185218 95.952380952381 38.4243540157076 35.9549946834003 97.5 37.7291432507736 36.1136720038223 102.142857142857 37.0339324858396 36.2723493242443 106.785714285714 36.3387217209056 36.4310266446663 111.428571428571 33.5578786611696 36.3526465212327 125.357142857143 33.7165559815915 36.3705251614201 125.357142857143 33.8672765585888 36.4232645723087 125.357142857143 34.0024826330763 36.5082201796158 125.357142857143 49.4084195212898 46.2170499587457 10.8333333333333 48.9545250771746 46.740090068524 11.6071428571429 47.4957723296277 48.1808352240221 13.9285714285714 48.350735021645 46.3607036315761 16.25 48.5850148012835 45.7416570219981 17.0238095238095 48.1733124412804 45.5039605536243 20.1190476190476 47.7469449661154 45.9813171946283 20.8928571428571 46.3807408361511 47.2916272802086 23.2142857142857 47.1431549105858 45.6019307576804 25.5357142857143 47.3499077212742 45.0285676168767 26.3095238095238 46.9382053612711 44.7908711485029 29.4047619047619 46.5393648550562 45.2225443207326 30.1785714285714 45.2657093426744 46.4024193363952 32.5 45.9355747995265 44.8431578837848 34.8214285714286 46.1148006412648 44.3154782117553 35.5952380952381 45.9584775119262 38.4629478553908 48.75 49.4084195212898 27.9144218939626 10.8333333333333 48.9545250771746 27.3913817841843 11.6071428571429 47.4957723296277 25.9506366286862 13.9285714285714 48.350735021645 27.7707682211322 16.25 48.5850148012835 28.3898148307102 17.0238095238095 48.1733124412804 28.627511299084 20.1190476190476 47.7469449661154 28.15015465808 20.8928571428571 46.3807408361511 26.8398445724997 23.2142857142857 47.1431549105858 28.5295410950278 25.5357142857143 47.3499077212742 29.1029042358316 26.3095238095238 46.938205361271 29.3406007042054 29.4047619047619 46.5393648550561 28.9089275319757 30.1785714285714 45.2657093426744 27.7290525163131 32.5 45.9355747995265 29.2883139689235 34.8214285714286 46.1148006412648 29.815993640953 35.5952380952381 45.9584775119262 35.6685239973175 48.75 33.3057634841928 37.317851103331 127.678571428571 32.8447892560481 37.0657359263541 125.357142857143 43.8681161653401 52.1880769053621 10.8333333333333 43.2322328033394 52.4623823423592 11.6071428571429 41.2928260966495 53.1275197774905 13.9285714285714 42.8528463663915 51.8585922868296 16.25 43.3325194118767 51.4025007506084 17.0238095238095 43.064721035145 51.0097126732316 20.1190476190476 42.4734599294437 51.2548022312999 20.8928571428571 40.6740303018111 51.8425770693996 23.2142857142857 42.0940734924959 50.6510121757703 25.5357142857143 42.5291242816816 50.2241365184779 26.3095238095238 42.2613259049499 49.8313484411011 29.4047619047619 41.714687055548 50.0472221202407 30.1785714285714 40.0552345069727 50.5576343613087 32.5 41.3353006186002 49.4434320647111 34.8214285714286 41.7257291514865 49.0457722863475 35.5952380952381 43.8681161653401 21.9433949473462 10.8333333333333 43.2322328033394 21.6690895103491 11.6071428571429 41.2928260966495 21.0039520752177 13.9285714285714 42.8528463663916 22.2728795658787 16.25 43.3325194118767 22.7289711020999 17.0238095238095 43.064721035145 23.1217591794767 20.1190476190476 42.4734599294437 22.8766696214083 20.8928571428571 40.6740303018111 22.2888947833087 23.2142857142857 42.0940734924959 23.480459676938 25.5357142857143 42.5291242816816 23.9073353342303 26.3095238095238 42.2613259049499 24.3001234116072 29.4047619047619 41.714687055548 24.0842497324676 30.1785714285714 40.0552345069727 23.5738374913996 32.5 41.3353006186002 24.6880397879972 34.8214285714286 41.7257291514865 25.0856995663608 35.5952380952381 36.2857438249245 55.1639387577449 10.8333333333333 35.5938160434802 55.1351799660281 11.6071428571429 33.5578786611696 54.8929710543897 13.9285714285714 35.5139753618209 54.4265743174134 16.25 36.1440365436905 54.2237723768934 17.0238095238095 36.0731829030735 53.7536891864677 20.1190476190476 35.4341346801617 53.7179686687988 20.8928571428571 33.5578786611696 53.4667922441468 23.2142857142857 35.3542939985025 53.0093630201841 25.5357142857143 35.9314756218394 52.8135228056162 26.3095238095238 35.8606219812224 52.3434396151905 29.4047619047619 35.2744533168432 52.3007573715694 30.1785714285714 33.5578786611696 52.040613433904 32.5 35.194612635184 51.5921517229548 34.8214285714286 35.7189146999884 51.403273234339 35.5952380952381 36.2857438249245 18.9675330949634 10.8333333333333 35.5938160434802 18.9962918866802 11.6071428571429 33.5578786611696 19.2385007983186 13.9285714285714 35.5139753618209 19.7048975352949 16.25 36.1440365436905 19.9076994758149 17.0238095238095 36.0731829030735 20.3777826662406 20.1190476190476 35.4341346801617 20.4135031839095 20.8928571428571 33.5578786611696 20.6646796085615 23.2142857142857 35.3542939985025 21.1221088325242 25.5357142857143 35.9314756218394 21.3179490470921 26.3095238095238 35.8606219812224 21.7880322375178 29.4047619047619 35.2744533168432 21.8307144811388 30.1785714285714 33.5578786611696 22.0908584188043 32.5 35.194612635184 22.5393201297535 34.8214285714286 35.7189146999884 22.7281986183693 35.5952380952381 28.1630843337565 54.5552295794791 10.8333333333333 27.552156915921 54.2291025904514 11.6071428571429 25.8229312256896 53.1275197774905 13.9285714285714 27.7876754157346 53.5560293879378 16.25 28.443333389726 53.6466844546415 17.0238095238095 28.5834579177108 53.1924118922226 20.1190476190476 28.0231939155483 52.8829561854242 20.8928571428571 26.441727020528 51.8425770693996 23.2142857142857 28.258712415362 52.2098829829106 25.5357142857143 28.8637069736803 52.283866767385 26.3095238095238 29.003831501665 51.8295942049661 29.4047619047619 28.4942309151756 51.536809780397 30.1785714285714 27.0605228153664 50.5576343613087 32.5 28.7297494149893 50.8637365778833 34.8214285714286 29.2840805576345 50.9210490801285 35.5952380952381 28.1630843337565 19.5762422732292 10.8333333333333 27.552156915921 19.9023692622568 11.6071428571429 25.8229312256896 21.0039520752177 13.9285714285714 27.7876754157346 20.5754424647705 16.25 28.443333389726 20.4847873980668 17.0238095238095 28.5834579177108 20.9390599604856 20.1190476190476 28.0231939155483 21.2485156672841 20.8928571428571 26.441727020528 22.2888947833086 23.2142857142857 28.258712415362 21.9215888697977 25.5357142857143 28.8637069736803 21.8476050853233 26.3095238095238 29.003831501665 22.3018776477421 29.4047619047619 28.4942309151756 22.5946620723113 30.1785714285714 27.0605228153664 23.5738374913996 32.5 28.7297494149893 23.2677352748249 34.8214285714286 29.2840805576345 23.2104227725798 35.5952380952381 21.1089300219432 50.4825116886485 10.8333333333333 20.7000046353518 49.9236099521719 11.6071428571429 19.6199849927114 48.1808352240221 13.9285714285714 21.2042349893054 49.4193795982183 16.25 21.7556286525523 49.7855363243735 17.0238095238095 22.0789779678569 49.437048642236 20.1190476190476 21.7084653432591 48.9151492442646 20.8928571428571 20.7350164861881 47.2916272802086 23.2142857142857 22.2126956972127 48.410918890311 25.5357142857143 22.7256765984661 48.740073277961 26.3095238095238 21.1089300219432 23.6489601640597 10.8333333333333 20.7000046353518 24.2078619005364 11.6071428571429 19.6199849927114 25.9506366286862 13.9285714285714 23.0490259137706 48.3915855958234 29.4047619047619 22.7169260511664 47.9066885363574 30.1785714285714 21.2042349893054 24.71209225449 16.25 21.7556286525523 24.3459355283348 17.0238095238095 21.8500479796647 46.4024193363952 32.5 23.22115640512 47.4024581824037 34.8214285714286 23.6957245443798 47.6946102315484 35.5952380952381 22.0789779678569 24.6944232104723 20.1190476190476 21.7084653432591 25.2163226084436 20.8928571428571 20.7350164861881 26.8398445724997 23.2142857142857 22.2126956972127 25.7205529623973 25.5357142857143 22.7256765984661 25.3913985747473 26.3095238095238 23.0490259137707 25.7398862568848 29.4047619047619 22.7169260511664 26.2247833163509 30.1785714285714 21.8500479796647 27.7290525163131 32.5 23.22115640512 26.7290136703046 34.8214285714286 23.6957245443798 26.4368616211599 35.5952380952381 16.5204426644643 43.7524368121392 10.8333333333333 16.3945119970723 43.0714576716028 11.6071428571429 16.1776095378194 41.0326689369034 13.9285714285714 17.0675851995859 42.8359391717891 16.25 17.4055042746827 43.4050757271633 17.0238095238095 16.5204426644643 30.3790350405691 10.8333333333333 16.3945119970723 31.0600141811055 11.6071428571429 16.1776095378194 33.0988029158049 13.9285714285714 17.848035079792 43.2313951846754 20.1190476190476 17.7406584020995 42.6004206719754 20.8928571428571 17.0675851995859 31.2955326809192 16.25 17.4055042746827 30.726396125545 17.0238095238095 17.5680310676874 40.7153142960595 23.2142857142857 18.4137316046131 42.3649021721617 25.5357142857143 18.7330966900104 42.8840340996995 26.3095238095238 17.848035079792 30.9000766680329 20.1190476190476 17.7406584020995 31.5310511807329 20.8928571428571 17.5680310676874 33.4161575566488 23.2142857142857 19.1756274951196 42.7103535572116 29.4047619047619 19.0868048071267 42.1293836723481 30.1785714285714 18.4137316046131 31.7665696805465 25.5357142857143 18.7330966900104 31.2474377530088 26.3095238095238 18.9584525975555 40.3979596552155 32.5 19.7598780096404 41.8938651725344 34.8214285714286 20.0606891053381 42.3629924722358 35.5952380952381 19.1756274951196 31.4211182954967 29.4047619047619 19.0868048071267 32.0020881803602 30.1785714285714 18.9584525975555 33.7335121974928 32.5 19.7598780096404 32.2376066801739 34.8214285714286 20.0606891053381 31.7684793804725 35.5952380952381 0 131.524375139219 6.28318530717959 131.524375139219 6.28318530717959 0 0 0 0.174532925199433 0 0.349065850398866 0 0.523598775598299 0 0.698131700797732 0 0.872664625997165 0 1.0471975511966 0 1.22173047639603 0 1.39626340159546 0 1.5707963267949 0 1.74532925199433 0 1.91986217719376 0 2.0943951023932 0 2.26892802759263 0 2.44346095279206 0 2.61799387799149 0 2.79252680319093 0 2.96705972839036 0 3.14159265358979 0 3.31612557878922 0 3.49065850398866 0 3.66519142918809 0 3.83972435438752 0 4.01425727958696 0 4.18879020478639 0 4.36332312998582 0 4.53785605518525 0 4.71238898038469 0 4.88692190558412 0 5.06145483078355 0 5.23598775598299 0 5.41052068118242 0 5.58505360638185 0 5.75958653158128 0 5.93411945678072 0 6.10865238198015 0 0.448798950512828 9.39459822422993 0.897597901025655 9.39459822422993 1.34639685153848 9.39459822422993 0.448798950512828 18.7891964484599 1.79519580205131 9.39459822422993 0.897597901025655 18.7891964484599 2.24399475256414 9.39459822422993 1.34639685153848 18.7891964484599 0.448798950512828 28.1837946726898 2.69279370307697 9.39459822422993 1.79519580205131 18.7891964484599 0.897597901025655 28.1837946726898 3.14159265358979 9.39459822422993 2.24399475256414 18.7891964484599 1.34639685153848 28.1837946726898 0.448798950512828 37.5783928969197 3.59039160410262 9.39459822422993 2.69279370307697 18.7891964484599 1.79519580205131 28.1837946726898 0.897597901025655 37.5783928969197 4.03919055461545 9.39459822422993 3.14159265358979 18.7891964484599 2.24399475256414 28.1837946726898 1.34639685153848 37.5783928969197 0.448798950512828 46.9729911211496 4.48798950512828 9.39459822422993 3.59039160410262 18.7891964484599 2.69279370307697 28.1837946726898 1.79519580205131 37.5783928969197 0.897597901025655 46.9729911211496 4.9367884556411 9.39459822422993 4.03919055461545 18.7891964484599 3.14159265358979 28.1837946726898 2.24399475256414 37.5783928969197 1.34639685153848 46.9729911211496 0.448798950512828 56.3675893453796 5.38558740615393 9.39459822422993 4.48798950512828 18.7891964484599 3.59039160410262 28.1837946726898 2.69279370307697 37.5783928969197 1.79519580205131 46.9729911211496 0.897597901025655 56.3675893453796 5.83438635666676 9.39459822422993 4.9367884556411 18.7891964484599 4.03919055461545 28.1837946726898 3.14159265358979 37.5783928969197 2.24399475256414 46.9729911211496 1.34639685153848 56.3675893453796 0.448798950512828 65.7621875696095 5.38558740615393 18.7891964484599 4.48798950512828 28.1837946726898 3.59039160410262 37.5783928969197 2.69279370307697 46.9729911211496 1.79519580205131 56.3675893453796 0.897597901025655 65.7621875696095 5.83438635666676 18.7891964484599 4.9367884556411 28.1837946726898 4.03919055461545 37.5783928969197 3.14159265358979 46.9729911211496 2.24399475256414 56.3675893453796 1.34639685153848 65.7621875696095 0.448798950512828 75.1567857938394 5.38558740615393 28.1837946726898 4.48798950512828 37.5783928969197 3.59039160410262 46.9729911211496 2.69279370307697 56.3675893453796 1.79519580205131 65.7621875696095 0.897597901025655 75.1567857938394 5.83438635666676 28.1837946726898 4.9367884556411 37.5783928969197 4.03919055461545 46.9729911211496 3.14159265358979 56.3675893453796 2.24399475256414 65.7621875696095 1.34639685153848 75.1567857938394 0.448798950512828 84.5513840180693 5.38558740615393 37.5783928969197 4.48798950512828 46.9729911211496 3.59039160410262 56.3675893453796 2.69279370307697 65.7621875696095 1.79519580205131 75.1567857938394 0.897597901025655 84.5513840180693 5.83438635666676 37.5783928969197 4.9367884556411 46.9729911211496 4.03919055461545 56.3675893453796 3.14159265358979 65.7621875696095 2.24399475256414 75.1567857938394 1.34639685153848 84.5513840180693 0.448798950512828 93.9459822422993 5.38558740615393 46.9729911211496 4.48798950512828 56.3675893453796 3.59039160410262 65.7621875696095 2.69279370307697 75.1567857938394 1.79519580205131 84.5513840180693 0.897597901025655 93.9459822422993 5.83438635666676 46.9729911211496 4.9367884556411 56.3675893453796 4.03919055461545 65.7621875696095 3.14159265358979 75.1567857938394 2.24399475256414 84.5513840180693 1.34639685153848 93.9459822422993 0.448798950512828 103.340580466529 5.38558740615393 56.3675893453796 4.48798950512828 65.7621875696095 3.59039160410262 75.1567857938394 2.69279370307697 84.5513840180693 1.79519580205131 93.9459822422993 0.897597901025655 103.340580466529 5.83438635666676 56.3675893453796 4.9367884556411 65.7621875696095 4.03919055461545 75.1567857938394 3.14159265358979 84.5513840180693 2.24399475256414 93.9459822422993 1.34639685153848 103.340580466529 0.448798950512828 112.735178690759 5.38558740615393 65.7621875696095 4.48798950512828 75.1567857938394 3.59039160410262 84.5513840180693 2.69279370307697 93.9459822422993 1.79519580205131 103.340580466529 0.897597901025655 112.735178690759 5.83438635666676 65.7621875696095 4.9367884556411 75.1567857938394 4.03919055461545 84.5513840180693 3.14159265358979 93.9459822422993 2.24399475256414 103.340580466529 1.34639685153848 112.735178690759 0.448798950512828 122.129776914989 5.38558740615393 75.1567857938394 4.48798950512828 84.5513840180693 3.59039160410262 93.9459822422993 2.69279370307697 103.340580466529 1.79519580205131 112.735178690759 0.897597901025655 122.129776914989 5.83438635666676 75.1567857938394 4.9367884556411 84.5513840180693 4.03919055461545 93.9459822422993 3.14159265358979 103.340580466529 2.24399475256414 112.735178690759 1.34639685153848 122.129776914989 5.38558740615393 84.5513840180693 4.48798950512828 93.9459822422993 3.59039160410262 103.340580466529 2.69279370307697 112.735178690759 1.79519580205131 122.129776914989 5.83438635666676 84.5513840180693 4.9367884556411 93.9459822422993 4.03919055461545 103.340580466529 3.14159265358979 112.735178690759 2.24399475256414 122.129776914989 5.38558740615393 93.9459822422993 4.48798950512828 103.340580466529 3.59039160410262 112.735178690759 2.69279370307697 122.129776914989 5.83438635666676 93.9459822422993 4.9367884556411 103.340580466529 4.03919055461545 112.735178690759 3.14159265358979 122.129776914989 5.38558740615393 103.340580466529 4.48798950512828 112.735178690759 3.59039160410262 122.129776914989 5.83438635666676 103.340580466529 4.9367884556411 112.735178690759 4.03919055461545 122.129776914989 5.38558740615393 112.735178690759 4.48798950512828 122.129776914989 5.83438635666676 112.735178690759 4.9367884556411 122.129776914989 5.38558740615393 122.129776914989 5.83438635666676 122.129776914989 0.224399475256414 9.39459822422993 0.224399475256414 14.0918973363449 0.224399475256414 18.7891964484599 0.224399475256414 23.4864955605748 0.224399475256414 28.1837946726898 0.224399475256414 32.8810937848047 6.05878583192317 9.39459822422993 6.05878583192317 14.0918973363449 6.05878583192317 18.7891964484599 6.05878583192317 23.4864955605748 6.05878583192317 28.1837946726898 6.05878583192317 32.8810937848047 0.224399475256414 98.6432813544142 0.224399475256414 103.340580466529 0.224399475256414 108.037879578644 0.224399475256414 112.735178690759 0.897597901025655 126.827076027104 1.12199737628207 126.827076027104 1.34639685153848 126.827076027104 1.5707963267949 126.827076027104 5.9839860068377 97.0775149837092 6.05878583192317 98.6432813544142 6.05878583192317 103.340580466529 6.05878583192317 108.037879578644 6.05878583192317 112.735178690759 4.71238898038469 126.827076027104 4.9367884556411 126.827076027104 5.16118793089752 126.827076027104 5.38558740615393 126.827076027104 0.523598775598299 10.9603645949349 0.560998688141034 11.7432477802874 0.673198425769241 14.0918973363449 0.560998688141034 16.4405468924024 0.523598775598299 17.2234300777549 0.523598775598299 20.3549628191648 0.560998688141034 21.1378460045173 0.673198425769241 23.4864955605748 0.560998688141034 25.8351451166323 0.523598775598299 26.6180283019848 0.523598775598299 29.7495610433948 0.560998688141034 30.5324442287473 0.673198425769241 32.8810937848047 0.560998688141034 35.2297433408622 0.523598775598299 36.0126265262147 0.112199737628207 49.3216406772071 5.75958653158129 10.9603645949349 5.72218661903855 11.7432477802874 5.60998688141035 14.0918973363449 5.72218661903855 16.4405468924024 5.75958653158129 17.2234300777549 5.75958653158129 20.3549628191648 5.72218661903855 21.1378460045173 5.60998688141035 23.4864955605748 5.72218661903855 25.8351451166323 5.75958653158129 26.6180283019848 5.75958653158129 29.7495610433948 5.72218661903855 30.5324442287473 5.60998688141035 32.8810937848047 5.72218661903855 35.2297433408622 5.75958653158129 36.0126265262147 6.17098556955138 49.3216406772071 2.35619449019234 129.175725583161 3.14159265358979 126.827076027104 0.972397726111126 10.9603645949349 1.00979763865386 11.7432477802874 1.12199737628207 14.0918973363449 1.00979763865386 16.4405468924024 0.972397726111126 17.2234300777549 0.972397726111126 20.3549628191648 1.00979763865386 21.1378460045173 1.12199737628207 23.4864955605748 1.00979763865386 25.8351451166323 0.972397726111126 26.6180283019848 0.972397726111126 29.7495610433948 1.00979763865386 30.5324442287473 1.12199737628207 32.8810937848047 1.00979763865386 35.2297433408622 0.972397726111126 36.0126265262147 5.31078758106846 10.9603645949349 5.27338766852573 11.7432477802874 5.16118793089752 14.0918973363449 5.27338766852573 16.4405468924024 5.31078758106846 17.2234300777549 5.31078758106846 20.3549628191648 5.27338766852573 21.1378460045173 5.16118793089752 23.4864955605748 5.27338766852573 25.8351451166323 5.31078758106846 26.6180283019848 5.31078758106846 29.7495610433948 5.27338766852573 30.5324442287473 5.16118793089752 32.8810937848047 5.27338766852573 35.2297433408622 5.31078758106846 36.0126265262147 1.42119667662395 10.9603645949349 1.45859658916669 11.7432477802874 1.5707963267949 14.0918973363449 1.45859658916669 16.4405468924024 1.42119667662395 17.2234300777549 1.42119667662395 20.3549628191648 1.45859658916669 21.1378460045173 1.5707963267949 23.4864955605748 1.45859658916669 25.8351451166323 1.42119667662395 26.6180283019848 1.42119667662395 29.7495610433948 1.45859658916669 30.5324442287473 1.5707963267949 32.8810937848047 1.45859658916669 35.2297433408622 1.42119667662395 36.0126265262147 4.86198863055563 10.9603645949349 4.8245887180129 11.7432477802874 4.71238898038469 14.0918973363449 4.8245887180129 16.4405468924024 4.86198863055563 17.2234300777549 4.86198863055563 20.3549628191648 4.8245887180129 21.1378460045173 4.71238898038469 23.4864955605748 4.8245887180129 25.8351451166323 4.86198863055563 26.6180283019848 4.86198863055563 29.7495610433948 4.8245887180129 30.5324442287473 4.71238898038469 32.8810937848047 4.8245887180129 35.2297433408622 4.86198863055563 36.0126265262147 1.86999562713678 10.9603645949349 1.90739553967952 11.7432477802874 2.01959527730772 14.0918973363449 1.90739553967952 16.4405468924024 1.86999562713678 17.2234300777549 1.86999562713678 20.3549628191648 1.90739553967952 21.1378460045173 2.01959527730772 23.4864955605748 1.90739553967952 25.8351451166323 1.86999562713678 26.6180283019848 1.86999562713678 29.7495610433948 1.90739553967952 30.5324442287473 2.01959527730772 32.8810937848047 1.90739553967952 35.2297433408622 1.86999562713678 36.0126265262147 4.41318968004281 10.9603645949349 4.37578976750007 11.7432477802874 4.26359002987186 14.0918973363449 4.37578976750007 16.4405468924024 4.41318968004281 17.2234300777549 4.41318968004281 20.3549628191648 4.37578976750007 21.1378460045173 4.26359002987186 23.4864955605748 4.37578976750007 25.8351451166323 4.41318968004281 26.6180283019848 4.41318968004281 29.7495610433948 4.37578976750007 30.5324442287473 4.26359002987186 32.8810937848047 4.37578976750007 35.2297433408622 4.41318968004281 36.0126265262147 2.31879457764961 10.9603645949349 2.35619449019234 11.7432477802874 2.46839422782055 14.0918973363449 2.35619449019234 16.4405468924024 2.31879457764961 17.2234300777549 2.31879457764961 20.3549628191648 2.35619449019234 21.1378460045173 2.46839422782055 23.4864955605748 2.35619449019234 25.8351451166323 2.31879457764961 26.6180283019848 3.96439072952998 10.9603645949349 3.92699081698724 11.7432477802874 3.81479107935903 14.0918973363449 2.31879457764961 29.7495610433948 2.35619449019234 30.5324442287473 3.92699081698724 16.4405468924024 3.96439072952998 17.2234300777549 2.46839422782055 32.8810937848047 2.35619449019234 35.2297433408622 2.31879457764961 36.0126265262147 3.96439072952998 20.3549628191648 3.92699081698724 21.1378460045173 3.81479107935903 23.4864955605748 3.92699081698724 25.8351451166323 3.96439072952998 26.6180283019848 3.96439072952998 29.7495610433948 3.92699081698724 30.5324442287473 3.81479107935903 32.8810937848047 3.92699081698724 35.2297433408622 3.96439072952998 36.0126265262147 2.76759352816244 10.9603645949349 2.80499344070517 11.7432477802874 2.91719317833338 14.0918973363449 2.80499344070517 16.4405468924024 2.76759352816244 17.2234300777549 3.51559177901715 10.9603645949349 3.47819186647441 11.7432477802874 3.36599212884621 14.0918973363449 2.76759352816244 20.3549628191648 2.80499344070517 21.1378460045173 3.47819186647441 16.4405468924024 3.51559177901715 17.2234300777549 2.91719317833338 23.4864955605748 2.80499344070517 25.8351451166323 2.76759352816244 26.6180283019848 3.51559177901715 20.3549628191648 3.47819186647441 21.1378460045173 3.36599212884621 23.4864955605748 2.76759352816244 29.7495610433948 2.80499344070517 30.5324442287473 3.47819186647441 25.8351451166323 3.51559177901715 26.6180283019848 2.91719317833338 32.8810937848047 2.80499344070517 35.2297433408622 2.76759352816244 36.0126265262147 3.51559177901715 29.7495610433948 3.47819186647441 30.5324442287473 3.36599212884621 32.8810937848047 3.47819186647441 35.2297433408622 3.51559177901715 36.0126265262147 293 83 292 137 118 124 137 131 118 294 293 261 138 125 131 295 294 261 138 132 125 296 261 262 296 295 261 296 96 295 296 262 102 139 133 126 297 96 296 297 296 102 297 102 265 297 265 266 298 297 266 141 122 128 298 96 297 141 135 122 142 123 129 299 298 266 142 136 123 143 137 124 300 299 266 143 124 130 301 109 300 301 300 266 301 267 115 301 266 267 144 131 137 301 115 109 302 42 44 144 138 131 302 273 42 302 274 273 145 126 132 303 274 302 145 132 138 303 302 44 145 139 126 304 274 303 146 133 139 147 128 134 305 274 304 147 141 128 306 47 275 306 305 50 148 142 129 306 274 305 306 275 274 307 47 306 148 129 135 307 306 50 307 279 278 307 278 47 149 143 130 149 130 136 149 136 142 308 279 307 308 307 50 150 137 143 150 144 137 309 279 308 310 279 309 151 145 138 311 279 310 311 280 279 152 146 139 311 310 58 311 54 280 312 284 283 312 311 58 312 54 311 154 135 141 312 283 54 154 148 135 313 312 58 313 284 312 314 284 313 155 149 142 156 150 143 156 143 149 315 284 314 157 151 138 316 63 285 316 68 63 316 315 68 316 284 315 157 138 144 316 285 284 158 145 151 317 70 288 158 152 139 317 65 70 317 288 289 318 65 317 158 139 145 318 317 289 319 318 289 160 154 141 160 141 147 161 155 142 320 319 289 321 320 289 161 142 148 321 290 83 321 289 290 321 77 320 162 149 155 322 321 83 322 77 321 162 156 149 322 83 293 322 293 294 163 144 150 323 322 294 163 157 144 323 77 322 164 158 151 324 323 294 325 324 294 165 146 152 165 159 146 326 90 325 326 294 295 326 295 96 326 325 294 327 90 326 327 326 96 167 161 148 327 96 298 327 298 299 40 6 7 167 148 154 40 7 8 168 155 161 328 327 299 328 90 327 168 162 155 169 150 156 329 328 299 169 163 150 330 329 299 170 164 151 170 151 157 331 109 103 331 330 299 331 103 330 331 300 109 331 299 300 41 8 9 332 303 44 41 9 10 171 165 152 332 304 303 332 44 46 171 152 158 333 304 332 333 332 46 172 159 165 172 153 159 172 166 153 173 154 160 334 304 333 173 167 154 335 304 334 174 161 167 174 168 161 41 40 8 336 304 335 336 335 53 175 169 156 336 305 304 175 156 162 42 41 10 336 50 305 42 10 11 175 162 168 42 11 12 42 12 13 337 336 53 337 50 336 176 157 163 337 308 50 176 170 157 337 309 308 338 337 53 338 309 337 177 171 158 339 309 338 177 158 164 178 172 165 340 309 339 341 340 62 179 174 167 179 167 173 341 309 340 341 310 309 341 58 310 342 341 62 342 58 341 180 175 168 342 313 58 342 314 313 181 176 163 44 13 14 181 163 169 44 14 15 343 342 62 44 15 16 343 314 342 182 164 170 182 177 164 344 314 343 183 165 171 345 314 344 183 171 177 183 178 165 346 73 68 346 314 345 346 345 73 44 42 13 346 68 315 346 315 314 184 179 173 347 318 319 347 65 318 347 60 65 185 168 174 185 180 168 348 347 319 348 60 347 186 181 169 186 169 175 186 175 180 46 16 17 46 17 18 349 348 319 187 170 176 187 182 170 350 349 319 351 319 320 188 183 177 351 320 77 351 350 319 351 71 350 352 71 351 352 77 323 189 185 174 352 323 324 189 174 179 46 44 16 352 351 77 353 352 324 190 186 180 353 71 352 354 353 324 191 187 176 191 176 181 355 354 324 192 188 177 356 84 355 192 177 182 356 324 325 356 355 324 356 325 90 193 179 184 49 18 19 49 19 20 357 84 356 193 189 179 49 20 21 357 356 90 194 180 185 357 90 328 357 328 329 358 357 329 194 190 180 358 84 357 195 191 181 359 358 329 195 181 186 360 359 329 196 192 182 196 182 187 49 46 18 197 194 185 361 97 360 197 185 189 361 329 330 361 103 97 361 330 103 361 360 329 362 334 333 198 195 186 198 186 190 362 46 49 362 333 46 363 334 362 363 362 49 199 196 187 364 334 363 199 187 191 52 21 22 52 22 23 365 334 364 201 190 194 201 198 190 366 334 365 366 365 57 366 53 335 202 191 195 366 335 334 202 199 191 202 195 198 367 366 57 203 194 197 367 53 366 52 49 21 367 339 338 203 201 194 367 338 53 368 339 367 204 202 198 368 367 57 369 339 368 206 198 201 206 204 198 370 339 369 371 62 340 207 201 203 207 206 201 371 370 67 371 339 370 371 340 339 208 207 203 56 52 23 372 56 60 56 23 24 208 203 205 56 24 25 372 60 348 56 25 26 209 4 5 372 348 349 209 5 6 373 372 349 373 56 372 209 6 40 210 4 209 374 373 349 375 62 371 375 371 67 375 344 343 375 343 62 376 375 67 211 4 210 376 344 375 377 374 349 212 4 211 378 66 377 378 377 349 378 350 71 378 349 350 213 4 212 60 26 27 60 27 28 379 344 376 380 344 379 381 79 73 381 380 79 381 345 344 381 344 380 381 73 345 60 56 26 382 71 353 382 353 354 215 82 38 382 66 378 382 378 71 215 38 39 215 39 3 383 382 354 216 215 3 383 66 382 384 383 354 385 384 354 64 55 59 386 385 354 217 216 3 386 354 355 218 217 3 386 355 84 386 78 385 387 386 84 65 60 28 387 78 386 65 28 29 387 358 359 65 29 30 65 30 31 387 84 358 388 387 359 388 78 387 389 388 359 219 218 3 390 389 359 391 91 390 391 359 360 391 390 359 391 360 97 391 97 91 392 364 363 221 114 127 392 363 49 221 127 133 392 49 52 221 133 146 393 392 52 69 59 63 221 146 140 69 64 59 393 364 392 221 101 114 394 364 393 222 221 140 70 31 32 222 1 221 70 32 33 394 393 52 70 33 34 223 1 222 223 222 140 223 159 153 395 394 61 223 146 159 223 140 146 395 364 394 224 166 1 70 65 31 224 1 223 224 223 153 224 153 166 396 364 395 396 395 61 396 57 365 396 365 364 225 1 166 397 56 373 225 166 172 397 373 374 397 52 56 226 172 178 398 52 397 398 397 374 226 225 172 226 1 225 399 61 394 399 52 398 399 398 374 74 63 68 399 394 52 227 226 178 74 69 63 400 57 396 227 1 226 400 396 61 400 369 368 228 178 183 400 368 57 401 400 61 76 70 34 401 369 400 76 34 35 228 227 178 76 35 36 402 61 399 228 183 188 402 399 374 229 193 184 229 197 189 229 189 193 403 61 402 229 200 197 403 402 374 403 377 66 403 374 377 404 369 401 404 401 61 230 229 184 230 200 229 230 184 173 405 369 404 405 404 72 231 230 2 231 200 230 406 369 405 406 370 369 406 67 370 232 197 200 406 405 72 232 231 2 232 200 231 80 68 73 232 203 197 80 74 68 407 61 403 232 205 203 407 403 66 233 205 232 81 64 69 233 232 2 407 66 383 233 208 205 407 383 384 233 2 208 81 75 64 408 407 384 82 76 36 82 36 37 408 61 407 234 202 204 82 37 38 234 204 206 409 404 61 409 72 404 409 408 384 235 2 234 409 61 408 235 234 206 410 67 406 236 2 235 410 406 72 236 235 206 410 376 67 236 206 207 410 379 376 237 2 236 237 236 207 411 410 72 237 207 208 411 379 410 237 208 2 412 409 384 238 40 41 412 72 409 238 210 209 238 209 40 413 412 384 413 72 412 239 210 238 86 80 73 413 384 385 86 73 79 239 238 41 413 385 78 87 81 69 240 210 239 414 379 411 87 69 74 414 411 72 241 210 240 415 414 85 415 379 414 242 210 241 416 415 85 242 241 45 416 79 380 242 43 211 416 379 415 242 211 210 416 380 379 416 85 79 243 212 211 417 78 388 417 388 389 243 242 45 243 43 242 243 211 43 417 72 413 417 413 78 244 243 45 418 417 389 244 212 243 418 72 417 419 72 418 419 418 389 245 212 244 92 86 79 419 85 414 419 414 72 92 79 85 420 85 419 246 212 245 93 87 74 247 213 212 420 419 389 421 85 420 247 48 213 421 420 389 247 212 246 93 74 80 421 389 390 247 246 51 421 390 91 421 91 85 94 88 75 248 213 48 94 75 81 248 247 51 248 48 247 248 214 213 249 248 51 249 214 248 250 214 249 251 214 250 252 214 251 252 59 55 252 55 214 98 85 91 252 251 59 98 92 85 253 101 221 253 75 88 253 4 213 253 1 4 253 55 64 253 88 101 99 93 80 253 64 75 253 214 55 253 221 1 253 213 214 99 80 86 254 215 216 254 82 215 100 94 81 254 76 82 255 254 216 100 81 87 255 76 254 256 255 216 257 256 216 258 217 95 258 216 217 258 257 216 104 91 97 258 89 257 104 98 91 259 95 217 105 86 92 259 258 95 259 217 218 259 89 258 105 99 86 260 259 218 106 87 93 260 89 259 106 100 87 107 88 94 261 260 218 107 94 100 262 261 218 107 101 88 263 262 218 263 102 262 263 218 219 263 219 108 264 219 220 264 102 263 264 263 108 264 108 219 110 97 103 110 104 97 265 102 264 265 264 220 111 105 92 266 265 220 111 92 98 112 106 93 112 93 99 267 266 220 268 220 121 268 267 220 268 121 115 268 115 267 269 3 2 269 121 220 113 107 100 269 220 219 269 173 160 269 160 147 269 2 230 114 101 107 269 134 121 269 219 3 269 147 134 269 230 173 270 2 1 270 228 188 270 188 192 270 1 227 270 234 2 116 103 109 270 227 228 116 110 103 271 196 199 271 270 192 271 192 196 271 199 202 117 98 104 271 234 270 117 111 98 271 202 234 272 239 41 272 41 42 272 240 239 118 99 105 118 112 99 273 272 42 273 240 272 119 100 106 119 113 100 274 240 273 119 106 112 275 240 274 120 107 113 120 114 107 276 275 47 276 240 275 276 45 241 276 241 240 277 276 47 122 116 109 277 45 276 277 244 45 277 245 244 122 109 115 278 277 47 278 245 277 123 117 104 123 104 110 279 245 278 124 118 105 280 245 279 124 105 111 125 119 112 281 245 280 281 51 246 281 246 245 281 280 54 126 113 119 282 250 249 126 120 113 282 51 281 282 281 54 282 249 51 283 282 54 128 115 121 283 250 282 128 122 115 129 110 116 129 123 110 284 250 283 285 250 284 130 111 117 286 251 250 286 285 63 286 63 59 286 250 285 130 124 111 286 59 251 131 112 118 287 76 255 287 255 256 287 70 76 131 125 112 288 287 256 288 70 287 132 119 125 132 126 119 289 288 256 133 114 120 133 120 126 133 127 114 290 289 256 134 128 121 291 83 290 291 290 256 291 257 89 135 116 122 291 256 257 135 129 116 292 83 291 292 291 89 292 89 260 292 260 261 136 117 123 293 292 261 136 130 117 
36 34 1 7.105427357601e-015
53.5243820045694 37.0657359263541 0 53.2210459542939 40.5328828463162 0 52.3202545158595 43.8946822615762 0 50.8493777813007 47.048987598054 0 48.8531075958975 49.8999568842564 0 46.3920996190718 52.360964861082 0 43.5411303328695 54.3572350464853 0 40.3868249963916 55.8281117810441 0 37.0250255811316 56.7289032194784 0 33.5578786611696 57.0322392697539 0 30.0907317412075 56.7289032194784 0 26.7289323259475 55.8281117810441 0 23.5746269894697 54.3572350464853 0 20.7236577032673 52.3609648610821 0 18.2626497264417 49.8999568842564 0 16.2663795410384 47.0489875980541 0 14.7955028064796 43.8946822615762 0 13.8947113680453 40.5328828463162 0 13.5913753177698 37.0657359263542 0 13.8947113680453 33.5985890063921 0 14.7955028064796 30.2367895911321 0 16.2663795410384 27.0824842546543 0 18.2626497264416 24.2315149684519 0 20.7236577032673 21.7705069916263 0 23.5746269894696 19.774236806223 0 26.7289323259475 18.3033600716642 0 30.0907317412075 17.4025686332299 0 33.5578786611695 17.0992325829544 0 37.0250255811316 17.4025686332298 0 40.3868249963915 18.3033600716642 0 43.5411303328694 19.774236806223 0 46.3920996190718 21.7705069916262 0 48.8531075958974 24.2315149684518 0 50.8493777813007 27.0824842546542 0 52.3202545158595 30.236789591132 0 53.2210459542938 33.598589006392 0 19.9665033433998 0 19.6631672931243 3.46714691996204 18.76237585469 6.82894633522204 17.2914991201312 9.98325167169989 15.2952289347279 12.8342209579022 12.8342209579023 15.2952289347279 9.9832516716999 17.2914991201311 6.82894633522204 18.76237585469 3.46714691996205 19.6631672931243 0 19.9665033433998 -3.46714691996204 19.6631672931243 -6.82894633522204 18.76237585469 -9.98325167169989 17.2914991201312 -12.8342209579022 15.2952289347279 -15.2952289347279 12.8342209579023 -17.2914991201311 9.98325167169991 -18.7623758546899 6.82894633522206 -19.6631672931243 3.46714691996207 -19.9665033433998 2.8421709430404e-014 -19.6631672931243 -3.46714691996201 -18.76237585469 -6.82894633522201 -17.2914991201312 -9.98325167169986 -15.2952289347279 -12.8342209579022 -12.8342209579023 -15.2952289347279 -9.98325167169993 -17.2914991201311 -6.82894633522208 -18.7623758546899 -3.4671469199621 -19.6631672931243 -5.6843418860808e-014 -19.9665033433998 3.46714691996199 -19.6631672931243 6.82894633522198 -18.76237585469 9.98325167169984 -17.2914991201312 12.8342209579022 -15.295228934728 15.2952289347279 -12.8342209579023 17.2914991201311 -9.98325167169997 18.7623758546899 -6.82894633522212 19.6631672931243 -3.46714691996213 22 23 24 21 24 25 21 25 26 21 22 24 20 26 27 20 21 26 29 27 28 17 18 19 17 19 20 17 20 27 31 29 30 32 27 29 32 29 31 32 17 27 33 15 16 33 16 17 33 17 32 12 13 14 12 14 15 36 33 34 36 34 35 11 15 33 11 12 15 11 33 36 9 10 11 2 36 1 7 8 9 5 2 3 5 3 4 5 7 9 5 11 36 5 36 2 5 9 11 6 7 5 

TShapes 12
Ve
0.0453393502216159
33.5578786611696 37.0657359263541 130
0 0

0101101
*
Ed
 1e-007 1 1 1
2  1 1 0 0 6.28318530717959
6  1 1 0
0

0101100
+12 0 -12 0 *
Ve
1e-007
53.5243820045694 37.0657359263541 0
0 0

0101101
*
Ed
 1e-007 1 1 0
1  1 0 0 131.524375139219
3  2 3CN 1 0 0 131.524375139219
7  2 3 1 0
0

0101000
-12 0 +10 0 *
Ed
 1e-007 1 1 0
1  2 0 0 6.28318530717959
2  4 1 0 0 6.28318530717959
2  5 2 0 0 6.28318530717959
6  4 1 0
6  5 2 0
0

0101100
+10 0 -10 0 *
Wi

0101000
-11 0 +9 0 +8 0 -9 0 *
Fa
0  1e-007 1 0
2  1
0111000
+7 0 *
Wi

0101000
-8 0 *
Fa
0  1e-007 2 0
2  2
0111000
-5 0 *
Sh

0101100
+6 0 -4 0 *
So

0100100
+3 0 *
Co

1100000
+2 0 *

+1 0 