DBRep_DrawableShape

CASCADE Topology V1, (c) Matra-Datavision
Locations 0
Curve2ds 10
7 0 0  10 56 7  6.2831853071795862 -0.39771545352818011  6.1997266823711037 -0.3988624527648027  6.1162004025321774 -0.39858878972453576  6.0327003181644248 -0.39688208023437854  5.9493232260235036 -0.39374960136791887  5.86616348859833 -0.38921884129513284  5.783306968701921 -0.38333684640973992  5.7008260083309343 -0.37616850302999055  5.6187763858901993 -0.36779404653252146  5.5371963908179831 -0.35830624634270131  5.3142015549330335 -0.32943571351406342  5.1737993374583606 -0.30796866796436134  5.0350149373043678 -0.28395744587008381  4.8978041231282985 -0.25804634105443258  4.7619706500336179 -0.23093001984761941  4.627223446188145 -0.20331375527621276  4.4932360581546167 -0.17589234932992212  4.359694479569491 -0.14933731747278606  4.2263340145053432 -0.12427837848545058  3.9929299714908133 -0.084038042396155158  3.8928922000256394 -0.067953438157892246  3.7927649163253272 -0.053269880478305789  3.6924883345643438 -0.040207617158697917  3.592029562824286 -0.028962824657895681  3.4913847545893688 -0.019702131959867586  3.3905770304827421 -0.012557049895885195  3.2896499764989988 -0.0076192364018941947  3.1886580776847069 -0.0049376037563159548  2.936155380761055 -0.0038894678856699044  2.7846331040946097 -0.0083509276548738853  2.6332781320379581 -0.017923572582276392  2.4822840660635848 -0.032411400041382876  2.3317784520913847 -0.051400250109509216  2.1817414687247947 -0.074280884377003531  2.0319814193353523 -0.10030641639832538  1.8821701441447658 -0.12863117362689991  1.7318964698485741 -0.15833904596828946  1.505171004591987 -0.20354529463048593  1.4293766888624488 -0.21872145036647667  1.3533114253850222 -0.23388582804773606  1.2769232059841218 -0.24891689615902424  1.2001622551781312 -0.26369183137596031  1.1229837567956866 -0.27808758889285251  1.0453508180374507 -0.29198219861403474  0.96723743713853472 -0.30525640441901603  0.888631042346964 -0.31779566991693603  0.73043690064068012 -0.34118929070508797  0.65084915469420479 -0.35204364653228792  0.57077306500208824 -0.3619480243813577  0.49022590208682376 -0.37080193539344081  0.40924128279829752 -0.37851414111913884  0.32786974598802771 -0.38500523249164575  0.24617757169695467 -0.39021020811197971  0.16424361077710242 -0.3940806854702294  0.082154583795854538 -0.39658637615462977  3.4895447386979758e-015 -0.39771545352818011 
 0.0029812734648959009 11 0.78837943686234835 9 2.1628262228078801 9 3.1936613122670239 9 4.7399139464557489 9 5.5130402635501152 9 6.2861665806444824 11
2 0.82186809221649137 398.33404975438464 -1 -4.3368086899420168e-019 4.3368086899420168e-019 -1 793.63561030141136
7 0 0  10 146 17  4.6213260246690089 0.34019850271643082  4.6841308670325388 0.33610906181657879  4.7464857237251863 0.32725683494418073  4.8078063516675682 0.3137026820561914  4.867541211601929 0.29559703020968298  4.9252259912827867 0.27317353273792833  4.980529924220173 0.24672419092512426  5.0332530447203681 0.21656850453952076  5.0832954901204515 0.18302925853847168  5.1306317147741769 0.14642044685890368  5.2143547824183756 0.072579447347653772  5.251370676743921 0.035997200284615088  5.286346648610559 -0.002509486518652738  5.3193259467386564 -0.042751996089085267  5.3503668218905256 -0.084555782176746822  5.3795312921885259 -0.12776140972938302  5.4068765471741136 -0.17222393321002377  5.4324483814504614 -0.21781147926138916  5.4562748647331816 -0.26440345587747383  5.4976793767004919 -0.35343766216840811  5.5156661779413216 -0.39567061068852655  5.5323185088947868 -0.43851251189903451  5.5476216430775818 -0.481894009251846  5.5615402319672285 -0.52574989949062001  5.5740132626902774 -0.57001791040966054  5.584944845243081 -0.61463703437195816  5.5941916213563356 -0.65954558387027151  5.6015417418414071 -0.70467841237233997  5.6089045379259819 -0.76977172901389701  5.6107189011842431 -0.78961134943647948  5.6120790138898267 -0.80947331699159863  5.6129527155634893 -0.8293510119855757  5.6133026335090914 -0.84923736123068427  5.6130851038395724 -0.86912470751599358  5.6122488008632079 -0.88900464615815444  5.6107329220252904 -0.90886780889265617  5.6084646500277699 -0.92870355569528462  5.6024406489412915 -0.96705822772527728  5.5987867474951418 -0.98558197066477948  5.5943208543146437 -1.0040605518079597  5.5889579533146998 -1.0224824352316471  5.5825981950365531 -1.0408344192559928  5.5751234965898533 -1.0591011756941042  5.5663929748655416 -1.0772646482428732  5.5562366901977898 -1.095303212317007  5.544447168314659 -1.1131904033354512  5.5179440879200197 -1.1474890394026187  5.5034593328766208 -1.1639228456873887  5.4871027942101138 -1.1801669150593626  5.4686255846987475 -1.1961885019314651  5.4477336224954342 -1.2119482136931765  5.4240768968069464 -1.2273978247321793  5.397240582317318 -1.2424778360968503  5.3667340904132503 -1.2571136556855891  5.3319905135090915 -1.2712101613837981  5.2738871007408274 -1.2909468560801745  5.2542852114425642 -1.2971010551489239  5.2335654414278192 -1.3030982073413984  5.2116675276993192 -1.3089248385765433  5.1885321406136633 -1.3145662230988615  5.1641028915918765 -1.3200063219340337  5.1383294113226574 -1.325227770198822  5.1111716971622219 -1.3302119557206311  5.082605501796376 -1.3349392419013637  5.0235875089252122 -1.3437004871920317  4.9932225379740105 -1.3477514962419903  4.9615306708021452 -1.3515240321418693  4.9285284643376146 -1.3549991767744358  4.8942559431355521 -1.3581578490901745  4.8587819381065263 -1.3609813191867637  4.8222080446825979 -1.3634519162791312  4.7846694727827703 -1.3655538753951209  4.7463316668285227 -1.3672741707183029  4.6696498645352751 -1.3698904738327056  4.6313434991141831 -1.3708105606005243  4.5926336990102135 -1.3713545157082963  4.5537104919906293 -1.3715164241285795  4.5147774262311744 -1.3712937913971679  4.4760413157167935 -1.3706878555412005  4.4377010099329022 -1.3697035611833623  4.3999377495769885 -1.3683491795689737  4.3629088448950846 -1.3666356873520507  4.2917124331237702 -1.3625809654444812  4.257491664087202 -1.3602610257041958  4.2242025819373801 -1.3576281996443158  4.1919414884313166 -1.354696191104146  4.1607792990354131 -1.351479983795798  4.130762399134861 -1.3479952516392588  4.1019154815045242 -1.3442578423756248  4.0742452982378667 -1.3402833910347067  4.0477444555981439 -1.3360870646332859  3.9732791828787448 -1.3231512535966832  3.9284844019894081 -1.3138407362112048  3.8878766840789467 -1.3038574488382437  3.8511682661483064 -1.2932979552133474  3.8180074396077543 -1.2822450273670256  3.7880460798623972 -1.2707681104948279  3.7609557507967111 -1.2589255036727991  3.7364393437019316 -1.2467661154933012  3.7142310463460926 -1.2343312176166858  3.6752184478292724 -1.2097725975155387  3.6581631489875677 -1.1976780005509569  3.6427356577704799 -1.1854008430414846  3.6287655268506569 -1.1729651074501664  3.616104576087916 -1.1603909396488032  3.6046241600657596 -1.1476954394255092  3.5942122151834619 -1.1348932652551404  3.5847707647762128 -1.1219970922158988  3.5762139700069056 -1.1090179629727526  3.5539391989266207 -1.0714923411848409  3.542256493737348 -1.046761553334933  3.5329198093529302 -1.0218371002197471  3.5255580489424263 -0.99676625048690148  3.5198862375412618 -0.97158597313076223  3.515680104986616 -0.94632633734493843  3.5127601382552527 -0.92101242736998634  3.5109808369027293 -0.89566565715104773  3.5102228324610074 -0.87030481660925685  3.5106755576694253 -0.80056979881332602  3.5137892032867897 -0.75620109841379268  3.5191996333760471 -0.71193020083235292  3.5265714712470073 -0.66782784850765897  3.5356728485203348 -0.62395660996571678  3.5463413700665116 -0.58037493761221415  3.5584642362031444 -0.53713977898028131  3.5719636472993783 -0.4943087309798006  3.5867899106563628 -0.45194130656456621  3.627101253663624 -0.34733880628015179  3.6542091804074963 -0.28576175775464774  3.6841420457174534 -0.22558109441016541  3.7169114405929577 -0.16702517370113129  3.7525920388725353 -0.11034831609322282  3.7912994099926438 -0.055837290551608021  3.8331720754002161 -0.0038175605397015033  3.8783442858100572 0.045342669210311735  3.9269046731222232 0.091235857404915757  4.0307924213424426 0.1756302341803524  4.0861198045422498 0.21413141973926031  4.1448259389144368 0.24850764139773673  4.2068139981129207 0.27830837172950851  4.2718447545776144 0.30307934002485126  4.339498404355254 0.32239322599343723  4.4091173336200882 0.33589735077657679  4.4798699944076361 0.34338030712706313  4.5508810786355181 0.34478541723855871  4.621326024669008 0.34019850271643087 
 0 11 0.7853981633973609 9 1.4726215563700693 9 2.0739420252211955 9 2.3370197303435591 9 2.5836550788957733 9 2.8148757181634965 9 2.9232603928202412 9 3.028258046393959 9 3.1299745232934972 9 3.2285123602899342 9 3.4194294194705313 9 3.5984141624523422 9 3.934010555543249 9 4.5213042434523363 9 5.4022447753159648 9 6.2831853071795862 11
2 -208.30797016874163 3.0242884714458818 1 6.9388939039072268e-018 -6.9388939039072268e-018 1 612.0543500536703
1 6.2831853071795862 -6.2831853071795862 0 1 
1 0 -6.2831853071795862 0 1 
1 0 1.5707963267948966 1 0 
8 -734.64906568112144 751.36776652310004
1 -92.050613912892771 11.287522121956158 0.15120854103369366 -0.98850188523768723 
8 -734.64906568112144 751.36776652310004
1 29.545150836369725 -119.35889153536732 0.99930537399286667 0.037266197940988718 
1 0 -1.5707963267948966 1 0 
Curves 4
2 -31.599096096524086 2.3657889549080178 -13.766038630066646 -0.19506165616391546 0.014604047858489823 -0.98068224827450479 0.98078684408494266 0 -0.19508246069264809 -0.0028489935923073926 -0.99989335520651756 -0.014323458009993699 793.63561030141136
2 -69.437576140849757 -456.63063856552981 -115.96772210156391 0.13087704292087843 0.86066465743712828 0.49206457612280652 6.9388939039072284e-018 -0.49633373723671587 0.86813179948705654 0.99139860784463818 -0.11361852278244693 -0.064958691831409662 612.0543500536703
2 0 0 145.09999999999999 -2.4492127076447545e-016 -1 0 1 -2.4492127076447545e-016 0 0 0 1 810
1 -61.24541780343889 -515.27194307803268 -15.577783059800444 -0.97999939287644322 0.037262223695005411 0.19548073216331524 
Polygon3D 0
PolygonOnTriangulations 0
Surfaces 3
4 0 0 145.09999999999999 0 0 1 1 0 -0 -0 1 0 810
1 -31.927869839453052 -395.92578054700346 -19.631891715468658 -0.19506165616391546 0.014604047858489823 -0.98068224827450479 -0.98078684408494266 -4.3368086899420177e-019 0.19508246069264809 0.0028489935923073921 0.99989335520651756 0.014323458009993699 
1 -72.43585152116178 -559.67729670698191 65.067504711347794 0.13087704292087843 0.86066465743712828 0.49206457612280652 0 -0.49633373723671587 0.86813179948705654 0.99139860784463818 -0.11361852278244693 -0.064958691831409662 
Triangulations 0

TShapes 33
Ve
5.87018502693224e-007
746.778069500404 -1.82901833761081e-013 -168.623628235505
0 0

0101101
*
Ve
6.33095423640969e-007
536.886787688321 -538.014544963512 -134.887368667625
0 0

0101101
*
Ed
 5.87017502693224e-007 1 1 0
1  1 0 0.0029812734648959 0.749079386014779
2  1 1 0 0.0029812734648959 0.749079386014779
2  2 2 0 0.0029812734648959 0.749079386014779
0

0101000
+33 0 -32 0 *
Ve
6.33075693354816e-007
-69.4375761408498 -760.413861519657 415.37612219441
0 0

0101101
*
Ed
 6.33074693354816e-007 1 1 0
1  2 0 0 1.53162503051903
2  3 1 0 0 1.53162503051903
2  4 3 0 0 1.53162503051903
0

0101000
+30 0 -32 0 *
Ve
6.33084050142437e-007
-640.932303685224 -493.230682061147 100.052509878493
0 0

0101101
*
Ed
 6.33074693354816e-007 1 1 0
1  2 0 5.05514179144377 6.28318530717959
2  3 1 0 5.05514179144377 6.28318530717959
2  4 3 0 5.05514179144377 6.28318530717959
0

0101000
+28 0 -30 0 *
Ed
 5.87017502693224e-007 1 1 0
1  1 0 2.46706292563353 6.28616658064448
2  1 1 0 2.46706292563353 6.28616658064448
2  2 2 0 2.46706292563353 6.28616658064448
0

0101000
+28 0 -33 0 *
Ve
1e-007
4.95965573298063e-014 -1.21472518467593e-029 955.1
0 0

0101101
*
Ed
 1e-007 1 1 0
1  3 0 5.88546985365141 7.85398163397448
3  5 6CN 1 0 5.88546985365141 7.85398163397448
0

0101000
+33 0 -25 0 *
Ed
 1e-007 1 1 1
2  7 1 0 0 6.28318530717959
0

0101100
+25 0 -25 0 *
Wi

0101100
-31 0 +29 0 +27 0 -26 0 -24 0 -23 0 +24 0 *
Fa
0  1e-007 1 0

0111000
+22 0 *
Ed
 1.5e-007 1 1 0
1  4 0 -610.339363309355 591.517596944953
2  8 3 0 -610.339363309355 591.517596944953
2  9 2 0 -610.339363309355 591.517596944953
0

0101000
+32 0 -28 0 *
Wi

0101100
+26 0 +20 0 +31 0 *
Fa
0  1e-007 2 0

0111000
+19 0 *
Wi

0101100
+27 0 +20 0 +29 0 *
Fa
0  1e-007 3 0

0111000
+17 0 *
Sh

0101100
+21 0 +18 0 -16 0 *
So

0100000
+15 0 *
Co

0100000
+14 0 *
Ed
 5.87017502693224e-007 1 1 0
1  1 0 0.0029812734648959 6.28616658064448
2  1 1 0 0.0029812734648959 6.28616658064448
2  2 2 0 0.0029812734648959 6.28616658064448
0

0101000
+33 0 -33 0 *
Ve
1e-007
4.95965573298063e-014 -1.21472518467593e-029 -664.9
0 0

0101101
*
Ed
 1e-007 1 1 0
1  3 0 4.71238898038469 5.88546985365141
3  5 6CN 1 0 4.71238898038469 5.88546985365141
0

0101000
+11 0 -33 0 *
Ed
 1e-007 1 1 1
2  10 1 0 0 6.28318530717959
0

0101100
+11 0 -11 0 *
Wi

0101100
+12 0 +10 0 +9 0 -10 0 *
Fa
0  1e-007 1 0

0111000
+8 0 *
Wi

0101100
+12 0 *
Fa
0  1e-007 2 0

0111000
+6 0 *
Sh

0101100
+7 0 -5 0 *
So

0100000
+4 0 *
Co

0100000
+3 0 *
Co

1100000
+13 0 +2 0 *

+1 0 
0

