DBRep_DrawableShape

CASCADE Topology V1, (c) Matra-Datavision
Locations 19
1
              1               0               0           -19.1 
              0               1               0            -0.1 
              0               0               1            2.35 
1
              1               0               0             -15 
              0               1               0            50.1 
              0               0               1             5.5 
2  1 1 2 -1 0
1
              1               0               0             -15 
              0               1               0            50.1 
              0               0               1            2.35 
2  4 1 2 -1 0
2  2 -1 0
2  2 1 1 -1 0
2  1 -1 0
2  2 1 4 -1 0
2  4 -1 0
1
             -1 -8.65956056235493e-017 8.65956056235493e-017               0 
8.65956056235493e-017 -2.22044604925031e-016               1               0 
-8.65956056235493e-017               1 2.22044604925031e-016               0 
1
              1               0               0 -15.000003814697 
              0               1               0 -0.100001335144 
              0               0               1  5.500000953674 
2  11 1 12 1 0
2  2 1 12 -1 11 -1 0
2  12 -1 11 -1 0
2  4 1 12 -1 11 -1 0
2  11 1 12 1 4 -1 0
2  1 1 4 -1 0
2  1 1 12 -1 11 -1 0
Curve2ds 42
1 0 0 0 1 
1 0 0 0 1 
1 3.1499999999999999 4.1000000000000014 1 0 
8 -1.7600000262262001 0.16000000238420001
1 0 0.050000047683999682 -1 0 
8 -1.7600000262262001 0.16000000238420001
1 0 0 -1 0 
1 3.2000000476839996 4.1000000000000014 0 -1 
1 0 -6.2831853071795862 0 1 
2 0 0 1 0 -0 1 1.600000023842
2 3.1499999999999999 4.1000000000000014 0 1 1 -0 1.600000023842
1 3.299999952316 0 0 1 
1 0 50.200000762938998 1 0 
1 -4.1000000000000014 0.14999995231599961 1 0 
1 -4.1000000000000014 0.14999995231599961 1 0 
1 0 0 1 0 
1 0 3.200000047684 1 0 
1 0 0.050000047683999682 1 0 
1 0 50.200000762938998 1 0 
2 0 0 1 0 -0 1 1.600000023842
2 -3.8146969956187604e-006 9.5367398866841313e-007 -1 -8.6595605623549304e-017 -8.6595605623549304e-017 1 1.600000023842
8 1.8899999976158006 3.8100000262262008
1 2.0500000000000007 50.200000000000003 1 0 
8 1.8899999976158006 3.8100000262262008
1 -2.0500000000000007 0.14999995231599961 1 0 
1 2.0499961853030051 0.14999899864201111 -1 -8.6595605623549267e-017 
2 -3.8146969956187604e-006 9.5367398866841313e-007 -1 -8.6595605623549304e-017 -8.6595605623549304e-017 1 1.600000023842
2 -3.8146969956187604e-006 3.1500009536739886 -1 -8.6595605623549304e-017 -8.6595605623549304e-017 1 1.600000023842
2 3.1499999999999999 4.1000000000000014 0 1 1 -0 1.600000023842
2 0 3.1499999999999999 1 0 -0 1 1.600000023842
1 0 0.050000047683999682 1 0 
1 -3.81469699562309e-006 0.049999094010011014 -1 -8.6595605623549267e-017 
1 0 0 0 1 
1 0 0 0 1 
1 0 4.1000000000000014 1 0 
1 0 -3.1499999999999999 0 1 
1 0 -3.1499999999999999 0 1 
1 -3.814696995345984e-006 -3.1500009536739886 -8.6595605623549304e-017 1 
1 0 0.050000047683999682 1 0 
1 -3.81469699562309e-006 0.049999094010011014 -1 -8.6595605623549267e-017 
1 0 0 -1 1.2246467991473532e-016 
1 0 50.200000762938998 1 0 
1 3.1500009536739886 4.0999961853030058 2.090602855382846e-016 1 
1 -3.8146969956187604e-006 -5.722049891687675e-007 1 -8.6595605623549329e-017 
1 -3.8146969956187604e-006 9.5367398866841313e-007 1 2.090602855382846e-016 
1 -3.8146969956187604e-006 3.1500009536739886 1 2.090602855382846e-016 
Curves 9
1 0 0 0 0 0 1 
1 -15 50.100000000000001 5.5500000476839997 -1 -0 0 
2 0 0 0 0 -1 0 1 0 0 -0 0 1 1.600000023842
1 0 50.200000762938998 3.299999952316 1 0 -0 
1 0 0 3.200000047684 1 0 -0 
2 0 0 50.200000762938998 0 0 1 1 0 -0 -0 1 0 1.600000023842
1 -17.050000000000001 50.100000000000001 5.6499999523159996 1 0 -0 
1 0 0 0 0 0 1 
1 0 0 50.200000762938998 -1 1.2246467991473532e-016 0 
Polygon3D 0
PolygonOnTriangulations 0
Surfaces 12
1 0 50.200000762938998 0 -0 1 0 0 0 1 1 0 -0 
1 0 0 0 0 -1 -0 1 0 0 0 -0 1 
1 0 0 0 1.2246467991473532e-016 1 -0 -1 1.2246467991473532e-016 0 0 0 1 
1 0 0 3.200000047684 0 0 1 1 0 -0 -0 1 0 
4 0 0 0 0 0 1 1 0 -0 -0 1 0 1.600000023842
1 0 0 3.299999952316 0 0 1 1 0 -0 -0 1 0 
1 0 0 0 0 -1 -0 1 0 0 0 -0 1 
2 0 0 0 0 0 1 1 0 -0 -0 1 0 1.600000023842
1 0 0 50.200000762938998 0 0 1 1 0 -0 -0 1 0 
1 0 0 0 1.2246467991473532e-016 1 -0 -1 1.2246467991473532e-016 0 0 0 1 
1 0 0 0 1.2246467991473532e-016 1 -0 -1 1.2246467991473532e-016 0 0 0 1 
1 0 0 0 0 0 1 1 0 -0 -0 1 0 
Triangulations 0

TShapes 41
Ve
7.21249016810279e-006
0 0 3.200000047684
0 0

0101101
*
Ve
7.21249016810279e-006
-15 50.1000003814695 5.649999952316
0 0

0101101
*
Ed
 8.62938995535478e-007 1 1 0
1  1 0 0.0500000476839997 0.149999952316
2  1 2 0 0.0500000476839997 0.149999952316
2  2 3 0 0.0500000476839997 0.149999952316
2  3 1 3 0.0500000476839997 0.149999952316
0

0101000
+41 5 -40 6 *
Ve
7.4911259632194e-006
-13.400781697101 50.1 5.55000004768398
0 0

0101101
*
Ed
 5.1e-006 1 1 0
1  2 0 -1.59921858153475 0
2  4 2 2 -1.59921858153475 0
2  5 4 4 -1.59921858153475 0
2  6 1 1 -1.59921858153475 0
0

0101000
+38 0 -41 4 *
Ve
7.21249016810279e-006
-13.4070504642498 50.100000095367 5.64999995231597
0 0

0101101
*
Ed
 1e-007 1 1 0
1  3 0 6.31444042503024 6.3770731509496
2  7 5 0 6.31444042503024 6.3770731509496
2  8 2 0 6.31444042503024 6.3770731509496
2  9 1 3 6.31444042503024 6.3770731509496
0

0101000
+38 6 -36 6 *
Ve
8.81888186431643e-006
-13.4070489107235 50.1000005040846 5.649999952316
0 0

0101101
*
Ed
 1e-007 1 1 0
1  4 0 5.69294943575016 5.69294953575016
2  10 1 0 5.69294943575016 5.69294953575016
2  11 6 0 5.69294943575016 5.69294953575016
2  12 2 7 5.69294943575016 5.69294953575016
0

0101000
+34 8 -36 8 *
Ed
 1e-007 1 1 0
1  4 0 4.1 5.69294943575016
2  10 1 0 4.1 5.69294943575016
2  11 6 0 4.1 5.69294943575016
2  13 2 7 4.1 5.69294943575016
0

0101000
+40 8 -34 8 *
Wi

0101100
+39 2 +37 0 -35 2 +33 1 +32 1 *
Fa
0  1e-007 1 1

0111000
+31 0 *
Ve
1.04179761207898e-005
-13.4007846225322 50.0999999046325 5.550000047684
0 0

0101101
*
Ed
 1e-007 1 1 0
1  5 0 1.59921479665437 1.59921858153475
2  14 4 0 1.59921479665437 1.59921858153475
2  15 7 0 1.59921479665437 1.59921858153475
2  16 2 9 1.59921479665437 1.59921858153475
0

0101000
+29 10 -38 10 *
Ed
 1e-007 1 1 0
1  6 0 3.04770540850276 3.11033813207661
2  17 8 0 3.04770540850276 3.11033813207661
2  18 9 0 3.04770540850276 3.11033813207661
2  19 2 14 3.04770540850276 3.11033813207661
0

0101000
+36 15 -29 15 *
Wi

0101100
+28 4 +27 13 +35 2 *
Fa
0  1e-007 2 2

0111000
+26 0 *
Ed
 5.1e-006 1 1 0
1  7 0 2.05 3.64294953575016
2  20 6 1 2.05 3.64294953575016
2  21 2 2 2.05 3.64294953575016
2  22 9 13 2.05 3.64294953575016
0

0101000
+40 0 -36 0 *
Wi

0101100
-32 1 -33 1 +24 0 *
Fa
0  1e-007 6 1

0111000
+23 0 *
Ve
7.21249016810279e-006
-13.4000018835065 50.0999997138975 5.50000047683699
0 0

0101101
*
Ed
 1e-007 1 1 0
1  6 0 3.11033813207661 3.14159265358979
2  17 8 0 3.11033813207661 3.14159265358979
2  18 9 0 3.11033813207661 3.14159265358979
2  23 2 14 3.11033813207661 3.14159265358979
2  24 7 16 3.11033813207661 3.14159265358979
0

0101000
+29 15 -21 15 *
Ed
 1e-007 1 1 0
1  3 0 6.28318530717959 6.31444042503024
2  7 5 0 6.28318530717959 6.31444042503024
2  8 2 0 6.28318530717959 6.31444042503024
2  25 1 3 6.28318530717959 6.31444042503024
2  26 7 5 6.28318530717959 6.31444042503024
0

0101000
+21 6 -38 6 *
Wi

0101100
+20 13 -28 4 +19 2 *
Fa
0  1e-007 2 2

0111000
+18 0 *
Ed
 1e-007 1 1 0
1  5 0 1.59921469665437 1.59921479665437
2  14 4 0 1.59921469665437 1.59921479665437
2  15 7 0 1.59921469665437 1.59921479665437
2  27 2 9 1.59921469665437 1.59921479665437
2  28 9 17 1.59921469665437 1.59921479665437
0

0101000
+38 10 -29 10 *
Wi

0101100
-37 0 -39 2 -24 0 -27 13 +16 4 *
Fa
0  1e-007 2 2

0111000
+15 0 *
Ve
7.21249016810279e-006
-15.0000019073485 50.0999997138975 5.50000047683699
0 0

0101101
*
Ed
 8.62938995535478e-007 1 1 0
1  8 0 3.15000047683699 3.200000047684
2  29 7 0 3.15000047683699 3.200000047684
2  30 10 0 3.15000047683699 3.200000047684
2  31 1 18 3.15000047683699 3.200000047684
2  32 2 9 3.15000047683699 3.200000047684
2  33 3 9 3.15000047683699 3.200000047684
2  34 9 17 3.15000047683699 3.200000047684
0

0101000
+13 10 -41 0 *
Ed
 1e-007 1 1 0
1  5 0 0 1.59921469665437
2  14 4 0 0 1.59921469665437
2  15 7 0 0 1.59921469665437
2  35 2 9 0 1.59921469665437
2  36 9 17 0 1.59921469665437
0

0101000
+41 0 -38 10 *
Ed
 1.43514398470425e-006 1 1 0
1  9 0 0 1.600000023842
2  37 9 0 0 1.600000023842
2  38 11 0 0 1.600000023842
2  39 1 19 0 1.600000023842
2  40 12 14 0 1.600000023842
2  41 2 14 0 1.600000023842
2  42 7 16 0 1.600000023842
0

0101000
+13 15 -21 15 *
Wi

0101100
-12 4 -11 4 -16 4 -20 13 +10 13 *
Fa
0  1e-007 2 2

0111000
+9 0 *
Wi

0101100
-12 4 -11 4 +19 2 +10 13 *
Wi

0101000
i20 13 *
Fa
0  1e-007 7 4

0111000
+7 0 +6 0 *
Sh

0101100
+30 0 +25 0 +22 0 +17 0 +14 0 +8 0 -5 0 *
So

0100000
+4 0 *
Ve
1e-007
-14.3086403511879 50.100000762939 5.52160697960613
0 0

0101101
*
Co

1100000
+3 0 +2 0 *

+1 0 
0

