DBRep_DrawableShape

CASCADE Topology V1, (c) Matra-Datavision
Locations 0
Curve2ds 6
1 0 63.318577462316775 1 0 
2 0 0 1 0 -0 1 570.54154072398546
1 6.2831853071795862 -0 0 1 
1 0 -0 0 1 
1 0 0 1 0 
2 0 0 1 0 -0 1 548.88531178514643
Curves 3
2 0 -1280.5500000000002 0 0 -1 0 0 -0 -1 1 0 0 570.54154072398546
1 -1.344381280353353e-013 -1221.0500000000002 -548.88531178514643 -8.3770774753539823e-017 -0.93969262078590843 -0.34202014332566866 
2 0 -1221.0500000000002 0 0 -1 0 0 -0 -1 1 0 0 548.88531178514643
Polygon3D 0
PolygonOnTriangulations 0
Surfaces 3
3 0 -1221.0500000000002 0 0 -1 0 0 -0 -1 1 0 0 548.88531178514643
0.34906585039886584
1 0 -1280.5500000000002 0 0 -1 0 0 -0 -1 1 0 0 
1 0 -1221.0500000000002 0 0 -1 0 0 -0 -1 1 0 0 
Triangulations 0

TShapes 13
Ve
0.001
-1.39742374325646e-013 -1280.55 -570.541540723985
0 0

0101101
*
Ed
 0.001 1 1 0
1  1 0 0 6.28318530717959
2  1 1 0 0 6.28318530717959
2  2 2 0 0 6.28318530717959
0

0101100
+13 0 -13 0 *
Ve
0.001
-1.34438128035335e-013 -1221.05 -548.885311785146
0 0

0101101
*
Ed
 0.001 1 1 0
1  2 0 0 63.3185774623168
3  3 4CN 1 0 0 63.3185774623168
0

0101000
-13 0 +11 0 *
Ed
 0.001 1 1 0
1  3 0 0 6.28318530717959
2  5 1 0 0 6.28318530717959
2  6 3 0 0 6.28318530717959
0

0101100
+11 0 -11 0 *
Wi

0101000
-12 0 +10 0 +9 0 -10 0 *
Fa
0  0.001 1 0

0111000
+8 0 *
Wi

0101000
+12 0 *
Fa
0  0.001 2 0

0111000
+6 0 *
Wi

0101000
-9 0 *
Fa
0  0.001 3 0

0111000
-4 0 *
Sh

0101100
+7 0 +5 0 -3 0 *
So

0100100
+2 0 *

+1 0 