DBRep_DrawableShape

CASCADE Topology V1, (c) Matra-Datavision
Locations 0
Curve2ds 30
7 0 0  3 25 23  0 34.085201284419171  0 33.568837648055514  0 32.536110375328242  0 30.987019466237367  0 29.437928557146446  0 27.888837648055532  0 26.339746738964614  0 24.790655829873717  0 23.241564920782803  0 21.6924740116919  0 20.143383102600989  0 18.594292193510089  0 17.045201284419161  0 15.496110375328261  0 13.947019466237345  0 12.397928557146447  0 10.848837648055534  0 9.2997467389646271  0 7.7506558298737325  0 6.2015649207827899  0 4.652474011691897  0 3.1033831026009833  0 1.554292193510084  -0 0.52156492078280769  0 0.0052012844191662846 
 0 4 1.5490909090909091 1 3.0981818181818181 1 4.6472727272727274 1 6.1963636363636363 1 7.7454545454545451 1 9.2945454545454549 1 10.843636363636364 1 12.392727272727273 1 13.941818181818181 1 15.49090909090909 1 17.039999999999999 1 18.58909090909091 1 20.138181818181817 1 21.687272727272727 1 23.236363636363635 1 24.785454545454545 1 26.334545454545456 1 27.883636363636363 1 29.432727272727274 1 30.981818181818181 1 32.530909090909091 1 34.079999999999998 4
7 0 0  3 25 23  -34.079999999999998 17.850000000000001  -33.563636363636363 17.849999999999998  -32.530909090909105 17.850000000000001  -30.981818181818202 17.850000000000005  -29.432727272727298 17.850000000000001  -27.88363636363637 17.850000000000005  -26.334545454545452 17.849999999999994  -24.785454545454563 17.850000000000005  -23.236363636363645 17.849999999999998  -21.687272727272742 17.850000000000001  -20.138181818181831 17.850000000000001  -18.589090909090931 17.849999999999998  -17.039999999999999 17.850000000000005  -15.490909090909108 17.850000000000001  -13.941818181818164 17.850000000000001  -12.392727272727278 17.850000000000001  -10.84363636363636 17.850000000000001  -9.2945454545454567 17.850000000000005  -7.7454545454545576 17.850000000000005  -6.1963636363636168 17.849999999999998  -4.6472727272727221 17.850000000000001  -3.0981818181818075 17.850000000000001  -1.5490909090909044 17.850000000000001  -0.51636363636363447 17.850000000000001  0 17.850000000000001 
 0 4 1.5490909090909091 1 3.0981818181818181 1 4.6472727272727274 1 6.1963636363636363 1 7.7454545454545451 1 9.2945454545454549 1 10.843636363636364 1 12.392727272727273 1 13.941818181818181 1 15.49090909090909 1 17.039999999999999 1 18.58909090909091 1 20.138181818181817 1 21.687272727272727 1 23.236363636363635 1 24.785454545454545 1 26.334545454545456 1 27.883636363636363 1 29.432727272727274 1 30.981818181818181 1 32.530909090909091 1 34.079999999999998 4
7 0 0  3 25 23  21.549864458177382 0.0052012844191662846  21.223351360326209 0.0052012844191662855  20.570325164623867 0.0052012844191662855  19.590785871070338 0.0052012844191662829  18.611246577516837 0.0052012844191662863  17.631707283963308 0.0052012844191662855  16.65216799040979 0.0052012844191662837  15.672628696856277 0.0052012844191662846  14.693089403302759 0.0052012844191662855  13.713550109749239 0.0052012844191662837  12.734010816195728 0.0052012844191662846  11.754471522642207 0.0052012844191662837  10.774932229088693 0.0052012844191662846  9.7953929355351725 0.0052012844191662855  8.815853641981656 0.0052012844191662837  7.8363143484281386 0.0052012844191662837  6.856775054874622 0.0052012844191662846  5.8772357613211037 0.0052012844191662846  4.8976964677675863 0.0052012844191662846  3.9181571742140706 0.0052012844191662855  2.9386178806605527 0.0052012844191662846  1.9590785871070355 0.0052012844191662829  0.97953929355351932 0.0052012844191662855  0.32651309785117388 0.0052012844191662846  0 0.0052012844191662846 
 0 4 0.97953929355351721 1 1.9590785871070344 1 2.9386178806605514 1 3.9181571742140688 1 4.8976964677675863 1 5.8772357613211028 1 6.8567750548746202 1 7.8363143484281377 1 8.8158536419816542 1 9.7953929355351725 1 10.774932229088689 1 11.754471522642206 1 12.734010816195724 1 13.71355010974924 1 14.693089403302759 1 15.672628696856275 1 16.652167990409794 1 17.631707283963308 1 18.611246577516827 1 19.590785871070345 1 20.57032516462386 1 21.549864458177378 4
7 0 0  2 3 2  -21.5 21.549864458177382  -21.499999999999986 10.774932229088678  -21.5 0 
 0 3 21.549864458177378 3
7 0 0  3 25 23  21.549729099821931 0.0052012844196892864  21.549729099821931 0.52156492078332339  21.549729099821928 1.5542921935105947  21.549729099821938 3.1033831026015113  21.549729099821928 4.6524740116923837  21.549729099821938 6.2015649207833317  21.549729099821935 7.7506558298741979  21.549729099821935 9.2997467389651494  21.549729099821935 10.848837648055998  21.549729099821931 12.397928557146919  21.549729099821935 13.947019466237824  21.549729099821931 15.496110375328733  21.549729099821931 17.045201284419637  21.549729099821931 18.594292193510544  21.549729099821931 20.143383102601458  21.549729099821935 21.692474011692358  21.549729099821931 23.241564920783279  21.549729099821935 24.790655829874147  21.549729099821935 26.339746738965093  21.549729099821931 27.888837648055965  21.549729099821928 29.437928557146876  21.549729099821931 30.987019466237797  21.549729099821931 32.536110375328697  21.549729099821931 33.568837648055968  21.549729099821931 34.085201284419604 
 0 4 1.5490909090909057 1 3.0981818181818115 1 4.6472727272727177 1 6.196363636363623 1 7.7454545454545283 1 9.2945454545454353 1 10.843636363636341 1 12.392727272727246 1 13.941818181818151 1 15.490909090909057 1 17.039999999999964 1 18.589090909090871 1 20.138181818181774 1 21.687272727272681 1 23.236363636363585 1 24.785454545454492 1 26.334545454545399 1 27.883636363636302 1 29.43272727272721 1 30.981818181818113 1 32.53090909090902 1 34.079999999999927 4
7 0 0  3 25 23  0.0080654192994643638 0.0052012844198543462  0.0080654192994650403 0.52156492078349015  0.0080654192994658019 1.554292193510761  0.0080654192994657013 3.1033831026016698  0.0080654192994627817 4.6524740116925729  0.0080654192994628008 6.2015649207834906  0.0080654192994655954 7.7506558298743657  0.0080654192994660586 9.2997467389653092  0.008065419299463486 10.848837648056181  0.0080654192994658123 12.3979285571471  0.0080654192994632969 13.947019466238002  0.0080654192994656752 15.496110375328914  0.0080654192994650212 17.045201284419814  0.0080654192994620306 18.594292193510725  0.0080654192994618484 20.143383102601632  0.0080654192994644765 21.692474011692536  0.008065419299464768 23.241564920783453  0.008065419299462015 24.790655829874332  0.0080654192994641955 26.339746738965271  0.0080654192994613974 27.888837648056136  0.0080654192994640064 29.437928557147075  0.0080654192994616819 30.987019466237989  0.008065419299464114 32.536110375328867  0.0080654192994641365 33.568837648056146  0.0080654192994633576 34.085201284419796 
 0 4 1.5490909090909057 1 3.0981818181818115 1 4.6472727272727177 1 6.196363636363623 1 7.7454545454545283 1 9.2945454545454353 1 10.843636363636341 1 12.392727272727246 1 13.941818181818151 1 15.490909090909057 1 17.039999999999964 1 18.589090909090871 1 20.138181818181774 1 21.687272727272681 1 23.236363636363585 1 24.785454545454492 1 26.334545454545399 1 27.883636363636302 1 29.43272727272721 1 30.981818181818113 1 32.53090909090902 1 34.079999999999927 4
7 0 0  3 25 23  21.549864458177382 34.085201284419163  21.223351360326205 34.085201284419171  20.57032516462386 34.085201284419163  19.590785871070345 34.085201284419156  18.611246577516834 34.085201284419163  17.631707283963308 34.085201284419163  16.652167990409794 34.085201284419163  15.672628696856281 34.085201284419156  14.693089403302761 34.085201284419171  13.713550109749239 34.085201284419156  12.734010816195728 34.085201284419163  11.754471522642207 34.085201284419163  10.774932229088693 34.085201284419163  9.7953929355351725 34.085201284419163  8.815853641981656 34.085201284419149  7.8363143484281386 34.085201284419171  6.8567750548746211 34.085201284419156  5.8772357613211037 34.085201284419156  4.897696467767588 34.085201284419163  3.9181571742140706 34.085201284419171  2.9386178806605527 34.085201284419163  1.9590785871070355 34.085201284419156  0.97953929355351932 34.085201284419171  0.32651309785117388 34.085201284419171  0 34.085201284419171 
 0 4 0.97953929355351721 1 1.9590785871070344 1 2.9386178806605514 1 3.9181571742140688 1 4.8976964677675863 1 5.8772357613211028 1 6.8567750548746202 1 7.8363143484281377 1 8.8158536419816542 1 9.7953929355351725 1 10.774932229088689 1 11.754471522642206 1 12.734010816195724 1 13.71355010974924 1 14.693089403302759 1 15.672628696856275 1 16.652167990409794 1 17.631707283963308 1 18.611246577516827 1 19.590785871070345 1 20.57032516462386 1 21.549864458177378 4
7 0 0  2 3 2  21.500000000000004 21.549864458177382  21.499999999999979 10.774932229088678  21.500000000000004 0 
 0 3 21.549864458177378 3
7 0 0  3 25 23  -34.079999999999998 0  -33.563636363636355 0  -32.530909090909091 0  -30.981818181818184 0  -29.432727272727281 0  -27.883636363636356 0  -26.334545454545438 0  -24.785454545454549 0  -23.236363636363631 0  -21.687272727272731 0  -20.138181818181817 0  -18.58909090909092 0  -17.039999999999988 0  -15.49090909090909 0  -13.941818181818171 0  -12.392727272727274 0  -10.84363636363636 0  -9.2945454545454567 0  -7.7454545454545576 0  -6.1963636363636185 0  -4.6472727272727257 0  -3.098181818181811 0  -1.5490909090909095 0  -0.51636363636363702 -0  0 0 
 0 4 1.5490909090909091 1 3.0981818181818181 1 4.6472727272727274 1 6.1963636363636363 1 7.7454545454545451 1 9.2945454545454549 1 10.843636363636364 1 12.392727272727273 1 13.941818181818181 1 15.49090909090909 1 17.039999999999999 1 18.58909090909091 1 20.138181818181817 1 21.687272727272727 1 23.236363636363635 1 24.785454545454545 1 26.334545454545456 1 27.883636363636363 1 29.432727272727274 1 30.981818181818181 1 32.530909090909091 1 34.079999999999998 4
1 0 5.6784146209817603 1 0 
1 0 0 0 1 
7 0 0  3 25 23  -3.649999999999995 0  -3.9204545454545419 0  -4.4613636363636342 0  -5.2727272727272636 0  -6.0840909090909063 0  -6.895454545454542 0  -7.7068181818181785 0  -8.5181818181818123 0  -9.3295454545454515 0  -10.140909090909087 0  -10.952272727272724 0  -11.763636363636358 0  -12.574999999999998 0  -13.386363636363631 0  -14.197727272727271 0  -15.009090909090901 0  -15.820454545454549 0  -16.631818181818172 0  -17.443181818181824 0  -18.25454545454545 0  -19.065909090909091 0  -19.877272727272722 0  -20.688636363636363 0  -21.229545454545455 -0  -21.5 0 
 0 4 0.8113636363636364 1 1.6227272727272728 1 2.4340909090909091 1 3.2454545454545456 1 4.0568181818181817 1 4.8681818181818182 1 5.6795454545454547 1 6.4909090909090912 1 7.3022727272727277 1 8.1136363636363633 1 8.9250000000000007 1 9.7363636363636363 1 10.547727272727274 1 11.359090909090909 1 12.170454545454547 1 12.981818181818182 1 13.793181818181818 1 14.604545454545455 1 15.415909090909091 1 16.227272727272727 1 17.038636363636364 1 17.850000000000001 4
1 -34.079999999999998 0 0 1 
7 0 0  3 25 23  3.6499999999999995 0  3.9204545454545467 0  4.4613636363636386 0  5.2727272727272672 0  6.0840909090909117 0  6.8954545454545437 0  7.706818181818182 0  8.5181818181818159 0  9.3295454545454533 0  10.140909090909096 0  10.952272727272726 0  11.763636363636364 0  12.575000000000001 0  13.386363636363637 0  14.197727272727276 0  15.009090909090903 0  15.820454545454551 0  16.631818181818179 0  17.443181818181824 0  18.254545454545458 0  19.065909090909095 0  19.877272727272725 0  20.688636363636363 0  21.229545454545459 -0  21.500000000000004 0 
 0 4 0.8113636363636364 1 1.6227272727272728 1 2.4340909090909091 1 3.2454545454545456 1 4.0568181818181817 1 4.8681818181818182 1 5.6795454545454547 1 6.4909090909090912 1 7.3022727272727277 1 8.1136363636363633 1 8.9250000000000007 1 9.7363636363636363 1 10.547727272727274 1 11.359090909090909 1 12.170454545454547 1 12.981818181818182 1 13.793181818181818 1 14.604545454545455 1 15.415909090909091 1 16.227272727272727 1 17.038636363636364 1 17.850000000000001 4
7 0 0  3 25 23  -3.649999999999995 0  -3.5946969696969666 0.065908033094575616  -3.4840909090909067 0.19772409928372633  -3.3181818181818108 0.3954481985674515  -3.152272727272726 0.59317229785117853  -2.9863636363636297 0.79089639713490556  -2.8204545454545435 0.98862049641863081  -2.6545454545454472 1.1863445957023595  -2.4886363636363615 1.3840686949860832  -2.3227272727272652 1.5817927942698111  -2.1568181818181795 1.779516893553537  -1.9909090909090832 1.977240992837263  -1.8249999999999975 2.1749650921209898  -1.6590909090909014 2.372689191404715  -1.4931818181818139 2.5704132906884438  -1.3272727272727249 2.7681373899721682  -1.1613636363636319 2.9658614892558979  -0.99545454545453782 3.1635855885396209  -0.82954545454544981 3.361309687823351  -0.66363636363636125 3.5590337871070745  -0.49772727272726641 3.756757886390802  -0.33181818181818007 3.9544819856745277  -0.16590909090908421 4.1522060849582543  -0.055303030303026197 4.2840221511474059  0 4.3499301842419822 
 0 4 0.25810975549917109 1 0.51621951099834218 1 0.77432926649751321 1 1.0324390219966844 1 1.2905487774958555 1 1.5486585329950264 1 1.8067682884941976 1 2.0648780439933687 1 2.3229877994925396 1 2.581097554991711 1 2.8392073104908819 1 3.0973170659900529 1 3.3554268214892242 1 3.6135365769883951 1 3.8716463324875665 1 4.1297560879867374 1 4.3878658434859084 1 4.6459755989850793 1 4.9040853544842511 1 5.162195109983422 1 5.4203048654825929 1 5.6784146209817639 4
1 34.080000000000013 5.6784146209817603 0 -1 
7 0 0  3 25 23  0 20.430208333332033  0 20.186567755315515  0 19.699286599282484  0 18.968364865232935  0 18.237443131183394  0 17.506521397133838  0 16.775599663084293  0 16.044677929034748  0 15.313756194985197  0 14.582834460935651  0 13.851912726886104  0 13.120990992836559  0 12.390069258787006  0 11.659147524737463  0 10.928225790687913  0 10.197304056638364  0 9.4663823225888191  0 8.7354605885392651  0 8.0045388544897254  0 7.2736171204401749  0 6.5426953863906245  0 5.8117736523410777  0 5.080851918291529  -0 4.5935707622584987  0 4.3499301842419822 
 0 4 0.73092173404954763 1 1.4618434680990953 1 2.1927652021486428 1 2.9236869361981905 1 3.6546086702477383 1 4.3855304042972856 1 5.1164521383468333 1 5.8473738723963811 1 6.5782956064459288 1 7.3092173404954766 1 8.0401390745450243 1 8.7710608085945712 1 9.5019825426441198 1 10.232904276693667 1 10.963826010743215 1 11.694747744792762 1 12.425669478842309 1 13.156591212891858 1 13.887512946941404 1 14.618434680990953 1 15.3493564150405 1 16.080278149090049 4
1 0 0 1 0 
7 0 0  3 25 23  21.53199857783105 0.0052012844193936817  21.20587837845936 0.0052012844193972986  20.55363797971598 0.0052012844194006666  19.575277381600909 0.0052012844193993144  18.596916783485831 0.0052012844193996743  17.618556185370764 0.005201284419399578  16.640195587255693 0.0052012844193996049  15.661834989140615 0.0052012844193995962  14.683474391025545 0.0052012844193995997  13.705113792910478 0.0052012844193995988  12.726753194795398 0.005201284419399598  11.748392596680334 0.005201284419399598  10.770031998565255 0.0052012844193995988  9.7916714004501895 0.0052012844193995988  8.8133108023351134 0.0052012844193995988  7.8349502042200454 0.0052012844193995988  6.8565896061049711 0.005201284419399598  5.8782290079899004 0.0052012844193995997  4.8998684098748289 0.005201284419399598  3.9215078117597559 0.0052012844193995997  2.9431472136446812 0.005201284419399598  1.9647866155296134 0.0052012844193995988  0.98642601741454028 0.0052012844193995997  0.33418561867115704 0.0052012844193995988  0.0080654192994659528 0.0052012844193995988 
 0 4 0.97836059811507214 1 1.9567211962301443 1 2.9350817943452165 1 3.9134423924602886 1 4.8918029905753606 1 5.8701635886904331 1 6.8485241868055047 1 7.8268847849205772 1 8.8052453830356487 1 9.7836059811507212 1 10.761966579265794 1 11.740327177380866 1 12.718687775495939 1 13.697048373611009 1 14.675408971726082 1 15.653769569841154 1 16.632130167956227 1 17.610490766071297 1 18.588851364186372 1 19.567211962301442 1 20.545572560416517 1 21.523933158531587 4
7 0 0  2 3 2  0 20.430208333332033  -10.747399358290496 20.989968716576968  -21.494798716581027 21.549729099821931 
 0 3 21.523933158531587 3
7 0 0  3 25 23  3.6499999999999995 0  3.5946969696969711 0.065908033094575616  3.484090909090912 0.19772409928372633  3.3181818181818143 0.3954481985674515  3.1522727272727304 0.59317229785117853  2.9863636363636332 0.79089639713490556  2.820454545454548 0.98862049641863081  2.6545454545454512 1.1863445957023595  2.4886363636363673 1.3840686949860832  2.3227272727272643 1.5817927942698111  2.1568181818181809 1.779516893553537  1.9909090909090845 1.977240992837263  1.8249999999999973 2.1749650921209898  1.659090909090907 2.372689191404715  1.4931818181818182 2.5704132906884438  1.3272727272727296 2.7681373899721682  1.1613636363636359 2.9658614892558979  0.99545454545454426 3.1635855885396209  0.8295454545454477 3.361309687823351  0.66363636363636902 3.5590337871070745  0.4977272727272643 3.756757886390802  0.33181818181818606 3.9544819856745277  0.16590909090908909 4.1522060849582543  0.055303030303028515 4.2840221511474059  0 4.3499301842419822 
 0 4 0.25810975549917109 1 0.51621951099834218 1 0.77432926649751321 1 1.0324390219966844 1 1.2905487774958555 1 1.5486585329950264 1 1.8067682884941976 1 2.0648780439933687 1 2.3229877994925396 1 2.581097554991711 1 2.8392073104908819 1 3.0973170659900529 1 3.3554268214892242 1 3.6135365769883951 1 3.8716463324875665 1 4.1297560879867374 1 4.3878658434859084 1 4.6459755989850793 1 4.9040853544842511 1 5.162195109983422 1 5.4203048654825929 1 5.6784146209817639 4
1 0 5.6784146209817603 0 -1 
7 0 0  3 25 23  21.53199857783105 34.085201284419796  21.20587837845936 34.085201284419796  20.553637979715976 34.085201284419789  19.575277381600916 34.085201284419803  18.596916783485831 34.085201284419789  17.618556185370764 34.085201284419803  16.640195587255693 34.085201284419796  15.661834989140615 34.085201284419796  14.683474391025545 34.085201284419796  13.705113792910478 34.085201284419803  12.726753194795398 34.085201284419789  11.748392596680334 34.085201284419796  10.770031998565255 34.085201284419796  9.7916714004501895 34.085201284419796  8.8133108023351134 34.085201284419803  7.8349502042200454 34.085201284419803  6.8565896061049711 34.085201284419789  5.8782290079899013 34.085201284419803  4.8998684098748271 34.085201284419789  3.9215078117597577 34.085201284419803  2.9431472136446799 34.085201284419782  1.9647866155296116 34.085201284419796  0.98642601741454095 34.085201284419803  0.33418561867115942 34.085201284419796  0.0080654192994685028 34.085201284419796 
 0 4 0.97836059811507214 1 1.9567211962301443 1 2.9350817943452165 1 3.9134423924602886 1 4.8918029905753606 1 5.8701635886904331 1 6.8485241868055047 1 7.8268847849205772 1 8.8052453830356487 1 9.7836059811507212 1 10.761966579265794 1 11.740327177380866 1 12.718687775495939 1 13.697048373611009 1 14.675408971726082 1 15.653769569841154 1 16.632130167956227 1 17.610490766071297 1 18.588851364186372 1 19.567211962301442 1 20.545572560416517 1 21.523933158531587 4
7 0 0  2 3 2  0 20.430208333332033  10.747399358290506 20.989968716576968  21.49479871658103 21.549729099821931 
 0 3 21.523933158531587 3
7 0 0  3 25 23  0 20.430208333332033  0 20.186567755315515  0 19.699286599282484  0 18.968364865232935  0 18.237443131183394  0 17.506521397133838  0 16.775599663084293  0 16.044677929034748  0 15.313756194985197  0 14.582834460935651  0 13.851912726886104  0 13.120990992836559  0 12.390069258787006  0 11.659147524737463  0 10.928225790687913  0 10.197304056638364  0 9.4663823225888191  0 8.7354605885392651  0 8.0045388544897254  0 7.2736171204401749  0 6.5426953863906245  0 5.8117736523410777  0 5.080851918291529  -0 4.5935707622584987  0 4.3499301842419822 
 0 4 0.73092173404954763 1 1.4618434680990953 1 2.1927652021486428 1 2.9236869361981905 1 3.6546086702477383 1 4.3855304042972856 1 5.1164521383468333 1 5.8473738723963811 1 6.5782956064459288 1 7.3092173404954766 1 8.0401390745450243 1 8.7710608085945712 1 9.5019825426441198 1 10.232904276693667 1 10.963826010743215 1 11.694747744792762 1 12.425669478842309 1 13.156591212891858 1 13.887512946941404 1 14.618434680990953 1 15.3493564150405 1 16.080278149090049 4
1 0 34.079999999999998 1 0 
1 34.080000000000013 0 -1 0 
1 16.080278149090049 0 0 1 
7 0 0  3 25 23  21.53199857783105 34.085201284419341  21.53199857783105 33.568837648055712  21.53199857783105 32.536110375328441  21.531998577831054 30.987019466237513  21.531998577831047 29.437928557146606  21.53199857783105 27.888837648055713  21.531998577831054 26.339746738964838  21.53199857783105 24.79065582987387  21.531998577831054 23.241564920782999  21.53199857783105 21.692474011692077  21.531998577831054 20.143383102601202  21.531998577831047 18.59429219351026  21.531998577831047 17.045201284419363  21.531998577831054 15.49611037532846  21.531998577831043 13.947019466237542  21.531998577831054 12.397928557146647  21.53199857783105 10.848837648055724  21.531998577831054 9.2997467389648563  21.531998577831054 7.7506558298739119  21.531998577831047 6.2015649207830306  21.531998577831047 4.6524740116921217  21.53199857783105 3.1033831026012111  21.531998577831054 1.5542921935103067  21.53199857783105 0.52156492078303285  21.53199857783105 0.0052012844193936817 
 0 4 1.5490909090909057 1 3.0981818181818115 1 4.6472727272727177 1 6.196363636363623 1 7.7454545454545283 1 9.2945454545454353 1 10.843636363636341 1 12.392727272727246 1 13.941818181818151 1 15.490909090909057 1 17.039999999999964 1 18.589090909090871 1 20.138181818181774 1 21.687272727272681 1 23.236363636363585 1 24.785454545454492 1 26.334545454545399 1 27.883636363636302 1 29.43272727272721 1 30.981818181818113 1 32.53090909090902 1 34.079999999999927 4
1 0 34.079999999999998 0 -1 
Curves 15
1 116.02 0 2.7999999999999998 -1 0 0 
1 81.939999999999998 0 24.349864458177379 0 0 -1 
1 81.940000000000509 -0.0052012834189700003 24.349729099821928 1 0 0 
1 116.02 0 24.349864458177379 0 0 -1 
1 116.02 -17.850000000000001 2.7999999999999998 -1 0 0 
1 81.939999999999998 -17.850000000000001 2.7999999999999998 0 1 0 
1 116.02 -17.850000000000001 2.7999999999999998 0 1 0 
1 81.939999999999984 -17.850000000000001 2.7999999999999998 0 -0.6427850454091949 0.76604659479583836 
1 81.939999999999998 -21.5 23.23020833333203 0 0 -1 
1 81.940000000000055 -21.5 23.23020833333203 0 0.99864641644554575 0.05201283418993273 
1 116.01999999999998 -17.850000000000001 2.7999999999999998 0 -0.6427850454091949 0.76604659479583836 
1 116.02000000000044 -21.5 23.23020833333203 0 0.99864641644554575 0.05201283418993273 
1 116.01999999999998 -21.5 23.23020833333203 0 0 -1 
1 81.939999999999998 -21.5 7.1499301842419802 1 0 0 
1 116.01999999999998 -21.5 23.23020833333203 -1 0 0 
Polygon3D 0
PolygonOnTriangulations 0
Surfaces 7
9 0 0 0 0 1 1 2 2 2 2 81.934798715580826 0 2.7999999999999998  116.02520128441941 0 2.7999999999999998  
81.934798715580826 0 24.35499806341862  116.02520128441941 0 24.35499806341862  

0 2
21.554998063418619 2

0 2
34.090402568838577 2

9 0 0 0 0 1 1 2 2 2 2 116.02 -17.850000000000001 2.7999999999999998  116.01999999999998 0 2.7999999999999998  
81.939999999999998 -17.850000000000001 2.7999999999999998  81.939999999999998 0 2.7999999999999998  

-34.079999999999998 2
0 2

0 2
17.850000000000001 2

9 0 0 0 0 1 1 2 2 2 2 81.939999999999998 8.8049342000000004e-007 2.7999999999999998  81.939999999999998 8.8049342000000004e-007 24.352398301202559  
81.939999999999998 -21.5 2.7999999999999998  81.939999999999998 -21.5 24.352398301202559  

-21.50000088049342 2
0 2

0 2
21.552398301202562 2

9 0 0 0 0 1 1 2 2 2 2 81.934798715580655 0.00285321866157 24.350148605138621  116.02520128441938 0.00285321866157 24.350148605138621  
81.934798715580655 -21.5 23.23020833333203  116.02520128441938 -21.5 23.23020833333203  

0 2
21.53199857783105 2

0 2
34.090402568838734 2

9 0 0 0 0 1 1 2 2 2 2 116.02 -21.5 2.7999999999999998  116.02 -21.5 24.352398301202559  
116.02 8.8049342000000004e-007 2.7999999999999998  116.02 8.8049342000000004e-007 24.352398301202559  

0 2
21.50000088049342 2

0 2
21.552398301202562 2

9 0 0 0 0 1 1 2 2 2 2 116.02 -21.5 7.1499301842419802  116.02 -17.850000000000001 2.7999999999999998  
81.939999999999984 -21.5 7.1499301842419802  81.939999999999984 -17.850000000000001 2.7999999999999998  

0 2
34.080000000000013 2

0 2
5.6784146209817603 2

9 0 0 0 0 1 1 2 2 2 2 81.94000000000004 -21.5 23.23020833333203  116.02000000000004 -21.5 23.23020833333203  
81.94000000000004 -21.5 7.1499301842419802  116.02000000000005 -21.5 7.1499301842419802  

0 2
16.080278149090049 2

0 2
34.079999999999998 2

Triangulations 0

TShapes 41
Ve
0.00260154821813096
116.02 0 2.8
0 0

0101101
*
Ve
0.00260154821812741
81.94 0 2.8
0 0

0101101
*
Ed
 1e-007 1 1 0
1  1 0 0 34.08
2  1 1 0 0 34.08
2  2 2 0 0 34.08
0

0101000
+41 0 -40 0 *
Ve
0.00520138744515851
81.9399999999998 -0.00260064170949 24.3497967789997
0 0

0101101
*
Ed
 0.00260154821812741 1 1 0
1  2 0 0 21.5498644581774
2  3 1 0 0 21.5498644581774
2  4 3 0 0 21.5498644581774
0

0101000
+38 0 -40 0 *
Ve
0.00520138744515851
116.02 -0.00260064170949 24.3497967789997
0 0

0101101
*
Ed
 0.00520138744515851 1 1 0
1  3 0 0 34.0799999999999
2  5 1 0 0 34.0799999999999
2  6 4 0 0 34.0799999999999
0

0101000
+38 0 -36 0 *
Ed
 0.00260154821813096 1 1 0
1  4 0 0 21.5498644581774
2  7 1 0 0 21.5498644581774
2  8 5 0 0 21.5498644581774
0

0101000
+36 0 -41 0 *
Wi

0101100
+39 0 -37 0 +35 0 +34 0 *
Fa
0  1e-007 1 0

0111000
+33 0 *
Ve
1e-007
116.02 -17.85 2.8
0 0

0101101
*
Ve
1e-007
81.94 -17.85 2.8
0 0

0101101
*
Ed
 1e-007 1 1 0
1  5 0 0 34.08
2  9 2 0 0 34.08
2  10 6 0 0 34.08
0

0101000
+31 0 -30 0 *
Ed
 1e-007 1 1 0
1  6 0 0 17.85
2  11 2 0 0 17.85
2  12 3 0 0 17.85
0

0101000
+30 0 -40 0 *
Ed
 1e-007 1 1 0
1  7 0 0 17.85
2  13 2 0 0 17.85
2  14 5 0 0 17.85
0

0101000
+31 0 -41 0 *
Wi

0101100
+29 0 +28 0 -39 0 -27 0 *
Fa
0  1e-007 2 0

0111000
+26 0 *
Ve
1e-007
81.94 -21.5 7.14993018424198
0 0

0101101
*
Ed
 1e-007 1 1 0
1  8 0 0 5.67841462098176
2  15 3 0 0 5.67841462098176
2  16 6 0 0 5.67841462098176
0

0101000
+30 0 -24 0 *
Ve
0.00260157423361315
81.94 -21.5 23.230208333332
0 0

0101101
*
Ed
 1e-007 1 1 0
1  9 0 0 16.08027814909
2  17 3 0 0 16.08027814909
2  18 7 0 0 16.08027814909
0

0101000
+22 0 -24 0 *
Ed
 0.00260157423361315 1 1 0
1  10 0 0 21.5239331585316
2  19 4 0 0 21.5239331585316
2  20 3 0 0 21.5239331585316
0

0101000
+22 0 -38 0 *
Wi

0101100
+23 0 -21 0 +20 0 +37 0 -28 0 *
Fa
0  1e-007 3 0

0101000
+19 0 *
Ve
1e-007
116.02 -21.5 7.14993018424198
0 0

0101101
*
Ed
 1e-007 1 1 0
1  11 0 0 5.67841462098176
2  21 5 0 0 5.67841462098176
2  22 6 0 0 5.67841462098176
0

0101000
+31 0 -17 0 *
Ve
0.00260157423360959
116.02 -21.5 23.230208333332
0 0

0101101
*
Ed
 0.00260157423360959 1 1 0
1  12 0 0 21.5239331585316
2  23 4 0 0 21.5239331585316
2  24 5 0 0 21.5239331585316
0

0101000
+15 0 -36 0 *
Ed
 1e-007 1 1 0
1  13 0 0 16.08027814909
2  25 5 0 0 16.08027814909
2  26 7 0 0 16.08027814909
0

0101000
+15 0 -17 0 *
Wi

0101100
-16 0 +27 0 -34 0 -14 0 +13 0 *
Fa
0  1e-007 5 0

0111000
+12 0 *
Ed
 1e-007 1 1 0
1  14 0 0 34.08
2  27 6 0 0 34.08
2  28 7 0 0 34.08
0

0101000
+24 0 -17 0 *
Wi

0101100
-23 0 -29 0 +16 0 -10 0 *
Fa
0  1e-007 6 0

0101000
+9 0 *
Ed
 1e-007 1 1 0
1  15 0 0 34.0799999999999
2  29 4 0 0 34.0799999999999
2  30 7 0 0 34.0799999999999
0

0101000
+15 0 -22 0 *
Wi

0101100
+14 0 -35 0 -20 0 -7 0 *
Fa
0  1e-007 4 0

0111000
+6 0 *
Wi

0101100
+21 0 +10 0 -13 0 +7 0 *
Fa
0  1e-007 7 0

0101000
+4 0 *
Sh

0101100
+32 0 +25 0 +18 0 +11 0 +8 0 +5 0 +3 0 *
So

1100000
+2 0 *

+1 0 