DBRep_DrawableShape

CASCADE Topology V1, (c) Matra-Datavision
Locations 0
Curve2ds 6
1 0 130 1 0 
2 0 0 1 0 -0 1 50
1 6.2831853071795862 -0 0 1 
1 0 -0 0 1 
1 0 0 1 0 
2 0 0 1 0 -0 1 50
Curves 3
2 0 0 130 0 0 1 1 0 -0 -0 1 0 50
1 50 -1.2246467991473532e-014 0 0 0 1 
2 0 0 0 0 0 1 1 0 -0 -0 1 0 50
Polygon3D 0
PolygonOnTriangulations 6
37 1 3 4 5 6 7 8 9 10 11 12 13 14 15 16 17 18 19 20 21 22 23 24 25 26 27 28 29 30 31 32 33 34 35 36 37 2 
p 0.5200000008 1 0 0.174532925199433 0.349065850398866 0.523598775598299 0.698131700797732 0.872664625997165 1.0471975511966 1.22173047639603 1.39626340159546 1.5707963267949 1.74532925199433 1.91986217719376 2.0943951023932 2.26892802759263 2.44346095279206 2.61799387799149 2.79252680319093 2.96705972839036 3.14159265358979 3.31612557878922 3.49065850398866 3.66519142918809 3.83972435438752 4.01425727958696 4.18879020478639 4.36332312998582 4.53785605518525 4.71238898038469 4.88692190558412 5.06145483078355 5.23598775598299 5.41052068118242 5.58505360638185 5.75958653158128 5.93411945678072 6.10865238198015 6.28318530717959 
37 1 2 3 4 5 6 7 8 9 10 11 12 13 14 15 16 17 18 19 20 21 22 23 24 25 26 27 28 29 30 31 32 33 34 35 36 1 
p 0.5200000008 1 0 0.174532925199433 0.349065850398866 0.523598775598299 0.698131700797732 0.872664625997165 1.0471975511966 1.22173047639603 1.39626340159546 1.5707963267949 1.74532925199433 1.91986217719376 2.0943951023932 2.26892802759263 2.44346095279206 2.61799387799149 2.79252680319093 2.96705972839036 3.14159265358979 3.31612557878922 3.49065850398866 3.66519142918809 3.83972435438752 4.01425727958696 4.18879020478639 4.36332312998582 4.53785605518525 4.71238898038469 4.88692190558412 5.06145483078355 5.23598775598299 5.41052068118242 5.58505360638185 5.75958653158128 5.93411945678072 6.10865238198015 6.28318530717959 
2 38 2 
p 0.5200000008 1 0 130 
2 39 1 
p 0.5200000008 1 0 130 
37 39 40 41 42 43 44 45 46 47 48 49 50 51 52 53 54 55 56 57 58 59 60 61 62 63 64 65 66 67 68 69 70 71 72 73 74 38 
p 0.5200000008 1 0 0.174532925199433 0.349065850398866 0.523598775598299 0.698131700797732 0.872664625997165 1.0471975511966 1.22173047639603 1.39626340159546 1.5707963267949 1.74532925199433 1.91986217719376 2.0943951023932 2.26892802759263 2.44346095279206 2.61799387799149 2.79252680319093 2.96705972839036 3.14159265358979 3.31612557878922 3.49065850398866 3.66519142918809 3.83972435438752 4.01425727958696 4.18879020478639 4.36332312998582 4.53785605518525 4.71238898038469 4.88692190558412 5.06145483078355 5.23598775598299 5.41052068118242 5.58505360638185 5.75958653158128 5.93411945678072 6.10865238198015 6.28318530717959 
37 1 2 3 4 5 6 7 8 9 10 11 12 13 14 15 16 17 18 19 20 21 22 23 24 25 26 27 28 29 30 31 32 33 34 35 36 1 
p 0.5200000008 1 0 0.174532925199433 0.349065850398866 0.523598775598299 0.698131700797732 0.872664625997165 1.0471975511966 1.22173047639603 1.39626340159546 1.5707963267949 1.74532925199433 1.91986217719376 2.0943951023932 2.26892802759263 2.44346095279206 2.61799387799149 2.79252680319093 2.96705972839036 3.14159265358979 3.31612557878922 3.49065850398866 3.66519142918809 3.83972435438752 4.01425727958696 4.18879020478639 4.36332312998582 4.53785605518525 4.71238898038469 4.88692190558412 5.06145483078355 5.23598775598299 5.41052068118242 5.58505360638185 5.75958653158128 5.93411945678072 6.10865238198015 6.28318530717959 
Surfaces 3
2 0 0 0 0 0 1 1 0 0 0 1 0 50
1 0 0 130 0 0 1 1 0 0 0 1 0 
1 0 0 0 0 0 1 1 0 0 0 1 0 
Triangulations 3
74 72 1 0.190265095412737
50 -1.22464679914735e-014 130 50 -1.22464679914735e-014 130 49.2403876506104 8.68240888334652 130 46.9846310392954 17.1010071662834 130 43.3012701892219 25 130 38.3022221559489 32.139380484327 130 32.139380484327 38.3022221559489 130 25 43.3012701892219 130 17.1010071662834 46.9846310392954 130 8.68240888334652 49.2403876506104 130 3.06161699786838e-015 50 130 -8.68240888334651 49.2403876506104 130 -17.1010071662834 46.9846310392954 130 -25 43.3012701892219 130 -32.1393804843269 38.3022221559489 130 -38.3022221559489 32.139380484327 130 -43.3012701892219 25 130 -46.9846310392954 17.1010071662835 130 -49.2403876506104 8.68240888334658 130 -50 7.27366154732462e-014 130 -49.2403876506104 -8.68240888334644 130 -46.9846310392955 -17.1010071662833 130 -43.301270189222 -24.9999999999999 130 -38.302222155949 -32.1393804843269 130 -32.139380484327 -38.3022221559488 130 -25.0000000000001 -43.3012701892219 130 -17.1010071662836 -46.9846310392954 130 -8.68240888334665 -49.2403876506104 130 -1.42411613948624e-013 -50 130 8.68240888334637 -49.2403876506104 130 17.1010071662833 -46.9846310392955 130 24.9999999999999 -43.301270189222 130 32.1393804843268 -38.302222155949 130 38.3022221559488 -32.1393804843271 130 43.3012701892218 -25.0000000000002 130 46.9846310392953 -17.1010071662836 130 49.2403876506104 -8.68240888334674 130 50 -1.22464679914735e-014 0 50 -1.22464679914735e-014 0 49.2403876506104 8.68240888334652 0 46.9846310392954 17.1010071662834 0 43.3012701892219 25 0 38.3022221559489 32.139380484327 0 32.139380484327 38.3022221559489 0 25 43.3012701892219 0 17.1010071662834 46.9846310392954 0 8.68240888334652 49.2403876506104 0 3.06161699786838e-015 50 0 -8.68240888334651 49.2403876506104 0 -17.1010071662834 46.9846310392954 0 -25 43.3012701892219 0 -32.1393804843269 38.3022221559489 0 -38.3022221559489 32.139380484327 0 -43.3012701892219 25 0 -46.9846310392954 17.1010071662835 0 -49.2403876506104 8.68240888334658 0 -50 7.27366154732462e-014 0 -49.2403876506104 -8.68240888334644 0 -46.9846310392955 -17.1010071662833 0 -43.301270189222 -24.9999999999999 0 -38.302222155949 -32.1393804843269 0 -32.139380484327 -38.3022221559488 0 -25.0000000000001 -43.3012701892219 0 -17.1010071662836 -46.9846310392954 0 -8.68240888334665 -49.2403876506104 0 -1.42411613948624e-013 -50 0 8.68240888334637 -49.2403876506104 0 17.1010071662833 -46.9846310392955 0 24.9999999999999 -43.301270189222 0 32.1393804843268 -38.302222155949 0 38.3022221559488 -32.1393804843271 0 43.3012701892218 -25.0000000000002 0 46.9846310392953 -17.1010071662836 0 49.2403876506104 -8.68240888334674 0 0 130 6.28318530717959 130 0.174532925199433 130 0.349065850398866 130 0.523598775598299 130 0.698131700797732 130 0.872664625997165 130 1.0471975511966 130 1.22173047639603 130 1.39626340159546 130 1.5707963267949 130 1.74532925199433 130 1.91986217719376 130 2.0943951023932 130 2.26892802759263 130 2.44346095279206 130 2.61799387799149 130 2.79252680319093 130 2.96705972839036 130 3.14159265358979 130 3.31612557878922 130 3.49065850398866 130 3.66519142918809 130 3.83972435438752 130 4.01425727958696 130 4.18879020478639 130 4.36332312998582 130 4.53785605518525 130 4.71238898038469 130 4.88692190558412 130 5.06145483078355 130 5.23598775598299 130 5.41052068118242 130 5.58505360638185 130 5.75958653158128 130 5.93411945678072 130 6.10865238198015 130 6.28318530717959 0 0 0 0.174532925199433 0 0.349065850398866 0 0.523598775598299 0 0.698131700797732 0 0.872664625997165 0 1.0471975511966 0 1.22173047639603 0 1.39626340159546 0 1.5707963267949 0 1.74532925199433 0 1.91986217719376 0 2.0943951023932 0 2.26892802759263 0 2.44346095279206 0 2.61799387799149 0 2.79252680319093 0 2.96705972839036 0 3.14159265358979 0 3.31612557878922 0 3.49065850398866 0 3.66519142918809 0 3.83972435438752 0 4.01425727958696 0 4.18879020478639 0 4.36332312998582 0 4.53785605518525 0 4.71238898038469 0 4.88692190558412 0 5.06145483078355 0 5.23598775598299 0 5.41052068118242 0 5.58505360638185 0 5.75958653158128 0 5.93411945678072 0 6.10865238198015 0 22 21 59 23 59 60 23 60 61 23 22 59 3 39 40 24 61 62 24 23 61 3 1 39 4 40 41 25 24 62 4 3 40 26 62 63 26 63 64 5 41 42 26 25 62 5 42 43 5 4 41 27 26 64 6 43 44 6 5 43 28 64 65 28 65 66 7 44 45 28 27 64 7 6 44 29 66 67 8 7 45 29 28 66 8 45 46 30 67 68 30 29 67 9 8 46 31 30 68 10 9 46 10 46 47 32 68 69 32 69 70 32 31 68 11 10 47 11 47 48 11 48 49 33 70 71 12 11 49 33 32 70 34 33 71 34 71 72 13 12 49 13 49 50 35 34 72 14 13 50 14 50 51 36 35 72 36 72 73 36 73 74 37 36 74 15 14 51 15 51 52 15 52 53 37 74 38 2 37 38 16 15 53 17 16 53 17 53 54 17 54 55 18 17 55 19 18 55 19 55 56 19 56 57 20 19 57 21 20 57 21 57 58 21 58 59 
36 34 1 7.105427357601e-015
50 -1.22464679914735e-014 130 49.2403876506104 8.68240888334652 130 46.9846310392954 17.1010071662834 130 43.3012701892219 25 130 38.3022221559489 32.139380484327 130 32.139380484327 38.3022221559489 130 25 43.3012701892219 130 17.1010071662834 46.9846310392954 130 8.68240888334652 49.2403876506104 130 3.06161699786838e-015 50 130 -8.68240888334651 49.2403876506104 130 -17.1010071662834 46.9846310392954 130 -25 43.3012701892219 130 -32.1393804843269 38.3022221559489 130 -38.3022221559489 32.139380484327 130 -43.3012701892219 25 130 -46.9846310392954 17.1010071662835 130 -49.2403876506104 8.68240888334658 130 -50 7.27366154732462e-014 130 -49.2403876506104 -8.68240888334644 130 -46.9846310392955 -17.1010071662833 130 -43.301270189222 -24.9999999999999 130 -38.302222155949 -32.1393804843269 130 -32.139380484327 -38.3022221559488 130 -25.0000000000001 -43.3012701892219 130 -17.1010071662836 -46.9846310392954 130 -8.68240888334665 -49.2403876506104 130 -1.42411613948624e-013 -50 130 8.68240888334637 -49.2403876506104 130 17.1010071662833 -46.9846310392955 130 24.9999999999999 -43.301270189222 130 32.1393804843268 -38.302222155949 130 38.3022221559488 -32.1393804843271 130 43.3012701892218 -25.0000000000002 130 46.9846310392953 -17.1010071662836 130 49.2403876506104 -8.68240888334674 130 50 0 49.2403876506104 8.68240888334652 46.9846310392954 17.1010071662834 43.3012701892219 25 38.3022221559489 32.139380484327 32.139380484327 38.3022221559489 25 43.3012701892219 17.1010071662834 46.9846310392954 8.68240888334652 49.2403876506104 0 50 -8.68240888334651 49.2403876506104 -17.1010071662834 46.9846310392954 -25 43.3012701892219 -32.1393804843269 38.3022221559489 -38.3022221559489 32.139380484327 -43.3012701892219 25 -46.9846310392954 17.1010071662835 -49.2403876506104 8.68240888334658 -50 7.105427357601e-014 -49.2403876506104 -8.68240888334644 -46.9846310392955 -17.1010071662834 -43.301270189222 -24.9999999999999 -38.302222155949 -32.1393804843269 -32.139380484327 -38.3022221559488 -25.0000000000001 -43.3012701892219 -17.1010071662836 -46.9846310392954 -8.68240888334665 -49.2403876506104 -1.4210854715202e-013 -50 8.68240888334637 -49.2403876506104 17.1010071662833 -46.9846310392955 24.9999999999999 -43.301270189222 32.1393804843268 -38.302222155949 38.3022221559488 -32.1393804843271 43.3012701892218 -25.0000000000002 46.9846310392954 -17.1010071662836 49.2403876506104 -8.68240888334674 25 23 24 21 22 23 27 25 26 20 23 25 20 21 23 19 27 28 19 25 27 19 20 25 18 28 29 18 19 28 32 17 18 32 29 30 32 30 31 32 18 29 33 15 16 33 16 17 33 17 32 13 14 15 36 33 34 36 34 35 36 15 33 11 12 13 9 10 11 8 13 15 8 11 13 8 15 36 8 9 11 5 1 2 5 2 3 5 3 4 5 7 8 5 36 1 5 8 36 6 7 5 
36 34 1 7.105427357601e-015
50 -1.22464679914735e-014 0 49.2403876506104 8.68240888334652 0 46.9846310392954 17.1010071662834 0 43.3012701892219 25 0 38.3022221559489 32.139380484327 0 32.139380484327 38.3022221559489 0 25 43.3012701892219 0 17.1010071662834 46.9846310392954 0 8.68240888334652 49.2403876506104 0 3.06161699786838e-015 50 0 -8.68240888334651 49.2403876506104 0 -17.1010071662834 46.9846310392954 0 -25 43.3012701892219 0 -32.1393804843269 38.3022221559489 0 -38.3022221559489 32.139380484327 0 -43.3012701892219 25 0 -46.9846310392954 17.1010071662835 0 -49.2403876506104 8.68240888334658 0 -50 7.27366154732462e-014 0 -49.2403876506104 -8.68240888334644 0 -46.9846310392955 -17.1010071662833 0 -43.301270189222 -24.9999999999999 0 -38.302222155949 -32.1393804843269 0 -32.139380484327 -38.3022221559488 0 -25.0000000000001 -43.3012701892219 0 -17.1010071662836 -46.9846310392954 0 -8.68240888334665 -49.2403876506104 0 -1.42411613948624e-013 -50 0 8.68240888334637 -49.2403876506104 0 17.1010071662833 -46.9846310392955 0 24.9999999999999 -43.301270189222 0 32.1393804843268 -38.302222155949 0 38.3022221559488 -32.1393804843271 0 43.3012701892218 -25.0000000000002 0 46.9846310392953 -17.1010071662836 0 49.2403876506104 -8.68240888334674 0 50 0 49.2403876506104 8.68240888334652 46.9846310392954 17.1010071662834 43.3012701892219 25 38.3022221559489 32.139380484327 32.139380484327 38.3022221559489 25 43.3012701892219 17.1010071662834 46.9846310392954 8.68240888334652 49.2403876506104 0 50 -8.68240888334651 49.2403876506104 -17.1010071662834 46.9846310392954 -25 43.3012701892219 -32.1393804843269 38.3022221559489 -38.3022221559489 32.139380484327 -43.3012701892219 25 -46.9846310392954 17.1010071662835 -49.2403876506104 8.68240888334658 -50 7.105427357601e-014 -49.2403876506104 -8.68240888334644 -46.9846310392955 -17.1010071662834 -43.301270189222 -24.9999999999999 -38.302222155949 -32.1393804843269 -32.139380484327 -38.3022221559488 -25.0000000000001 -43.3012701892219 -17.1010071662836 -46.9846310392954 -8.68240888334665 -49.2403876506104 -1.4210854715202e-013 -50 8.68240888334637 -49.2403876506104 17.1010071662833 -46.9846310392955 24.9999999999999 -43.301270189222 32.1393804843268 -38.302222155949 38.3022221559488 -32.1393804843271 43.3012701892218 -25.0000000000002 46.9846310392954 -17.1010071662836 49.2403876506104 -8.68240888334674 25 23 24 21 22 23 27 25 26 20 23 25 20 21 23 19 27 28 19 25 27 19 20 25 18 28 29 18 19 28 32 17 18 32 29 30 32 30 31 32 18 29 33 15 16 33 16 17 33 17 32 13 14 15 36 33 34 36 34 35 36 15 33 11 12 13 9 10 11 8 13 15 8 11 13 8 15 36 8 9 11 5 1 2 5 2 3 5 3 4 5 7 8 5 36 1 5 8 36 6 7 5 

TShapes 14
Ve
1e-007
50 -1.22464679914735e-014 130
0 0

0101101
*
Ed
 1e-007 1 1 0
1  1 0 0 6.28318530717959
2  1 1 0 0 6.28318530717959
2  2 2 0 0 6.28318530717959
6  1 1 0
6  2 2 0
0

0101100
+14 0 -14 0 *
Ve
1e-007
50 -1.22464679914735e-014 0
0 0

0101101
*
Ed
 1e-007 1 1 0
1  2 0 0 130
3  3 4CN 1 0 0 130
7  3 4 1 0
0

0101000
-14 0 +12 0 *
Ed
 1e-007 1 1 0
1  3 0 0 6.28318530717959
2  5 1 0 0 6.28318530717959
2  6 3 0 0 6.28318530717959
6  5 1 0
6  6 3 0
0

0101100
+12 0 -12 0 *
Wi

0101000
-13 0 +11 0 +10 0 -11 0 *
Fa
0  1e-007 1 0
2  1
0111000
+9 0 *
Wi

0101000
+13 0 *
Fa
0  1e-007 2 0
2  2
0101000
+7 0 *
Wi

0101000
-10 0 *
Fa
0  1e-007 3 0
2  3
0111000
-5 0 *
Sh

0101100
+8 0 +6 0 -4 0 *
So

0100100
+3 0 *
Co

1100000
+2 0 *

+1 0 