DBRep_DrawableShape

CASCADE Topology V1, (c) Matra-Datavision
Locations 0
Curve2ds 18
1 0 8 1 0 
2 0 0 1 0 -0 1 4
8 3 8.0000005999999999
1 2.6179938779914944 0 0 1 
8 3 8.0000005999999999
1 -4 1.5358983848622456 1 0 
1 0 4 1 0 
2 5 8 1 0 -0 1 4
1 6.2831853071795862 -0 0 1 
1 0 -0 0 1 
1 0 0 1 0 
2 0 0 1 0 -0 1 4
1 0 4 1 0 
2 5 8 1 0 -0 1 4
8 3 8.0000005999999999
1 0.52359877559829893 0 0 1 
8 3 8.0000005999999999
1 -4 8.4641016151377535 1 0 
8 -7.2999999999999998 2.2999999999999998
1 -2.5 2 -1 0 
8 -7.2999999999999998 2.2999999999999998
1 4 2.5 0 -1 
1 0 0 0 1 
1 0 10 1 0 
Curves 9
2 0 0 8 0 0 1 1 0 -0 -0 1 0 4
1 -3.4641016151377544 2 0 0 0 1 
2 0 0 4 0 0 1 1 0 -0 -0 1 0 4
1 4 -9.7968508305790181e-16 0 0 0 1 
2 0 0 0 0 0 1 1 0 -0 -0 1 0 4
2 0 0 4 0 0 1 1 0 -0 -0 1 0 4
1 3.4641016151377544 2 0 0 0 1 
1 -2.5 2 8 -1 -0 0 
1 -5 2 4 1 0 -0 
Polygon3D 0
PolygonOnTriangulations 0
Surfaces 5
2 0 0 0 0 0 1 1 0 -0 -0 1 0 4
1 0 0 8 0 0 1 1 0 -0 -0 1 0 
1 -5 2 4 -0 1 0 0 0 1 1 0 -0 
1 -5 -8 4 0 0 1 1 0 -0 -0 1 0 
1 0 0 0 0 0 1 1 0 -0 -0 1 0 
Triangulations 0

TShapes 28
Ve
1.50000000444089e-07
3.46410161513775 2 8
0 0

0101101
*
Ve
1.50000001332268e-07
-3.46410161513775 2 8
0 0

0101101
*
Ed
 1e-07 1 1 0
1  1 0 0.523598775598299 2.61799387799149
2  1 1 0 0.523598775598299 2.61799387799149
2  2 2 0 0.523598775598299 2.61799387799149
0

0101000
+28 0 -27 0 *
Ve
1.00000001404333e-07
-3.46410161513775 2 4
0 0

0101101
*
Ed
 1e-07 1 1 0
1  2 0 4 8
2  3 1 0 4 8
2  4 3 0 4 8
0

0101000
+25 0 -27 0 *
Ve
1.00000000979685e-07
4 -9.79685083057902e-16 4
0 0

0101101
*
Ed
 1e-07 1 1 0
1  3 0 2.61799387799149 6.28318530717959
2  5 1 0 2.61799387799149 6.28318530717959
2  6 4 0 2.61799387799149 6.28318530717959
0

0101000
+25 0 -23 0 *
Ve
1e-07
4 -9.79685083057902e-16 0
0 0

0101101
*
Ed
 1e-07 1 1 0
1  4 0 0 4
3  7 8CN 1 0 0 4
0

0101000
+21 0 -23 0 *
Ed
 1e-07 1 1 0
1  5 0 0 6.28318530717959
2  9 1 0 0 6.28318530717959
2  10 5 0 0 6.28318530717959
0

0101000
+21 0 -21 0 *
Ve
1.00000000993014e-07
3.46410161513775 2 4
0 0

0101101
*
Ed
 1e-07 1 1 0
1  6 0 0 0.523598775598299
2  11 1 0 0 0.523598775598299
2  12 4 0 0 0.523598775598299
0

0101000
+23 0 -18 0 *
Ed
 1e-07 1 1 0
1  7 0 4 8
2  13 1 0 4 8
2  14 3 0 4 8
0

0101000
+18 0 -28 0 *
Wi

0101100
-26 0 +24 0 -22 0 +20 0 +19 0 -20 0 -17 0 -16 0 *
Fa
0  1e-07 1 0

0111000
+15 0 *
Ed
 1.5e-07 1 1 0
1  8 0 -5.96410161513775 0.964101615137754
2  15 2 0 -5.96410161513775 0.964101615137754
2  16 3 0 -5.96410161513775 0.964101615137754
0

0101000
+28 0 -27 0 *
Wi

0101100
-13 0 +26 0 *
Fa
0  1e-07 2 0

0111000
+12 0 *
Ed
 1e-07 1 1 0
1  9 0 1.53589838486225 8.46410161513775
2  17 3 0 1.53589838486225 8.46410161513775
2  18 4 0 1.53589838486225 8.46410161513775
0

0101000
+25 0 -18 0 *
Wi

0101100
-10 0 -16 0 -13 0 +24 0 *
Fa
0  1e-07 3 0

0111000
+9 0 *
Wi

0101100
-10 0 +17 0 +22 0 *
Fa
0  1e-07 4 0

0111000
+7 0 *
Wi

0101100
-19 0 *
Fa
0  1e-07 5 0

0111000
-5 0 *
Sh

0101100
+14 0 +11 0 -8 0 +6 0 -4 0 *
So

0100000
+3 0 *
Co

1100000
+2 0 *

+1 0 
0

