DBRep_DrawableShape

CASCADE Topology V1, (c) Matra-Datavision
Locations 21
1
              1               0               0 0.913999974727631 
              0               1               0               9 
              0               0               1 4.21600008010864 
2  1 -1 0
1
              1               0               0 0.913999974727631 
              0               1               0               9 
              0               0               1 4.21600008010864 
2  3 -1 0
1
              1               0               0 0.913999974727631 
              0               1               0               9 
              0               0               1 4.21600008010864 
2  3 1 5 -1 0
2  5 -1 0
1
              1               0               0 0.913999974727631 
              0               1               0               9 
              0               0               1 4.21600008010864 
2  5 1 8 -1 0
2  8 -1 0
1
              1               0               0 0.913999974727631 
              0               1               0               9 
              0               0               1 4.21600008010864 
2  5 1 11 -1 0
2  11 -1 0
2  8 1 11 -1 0
1
              1               0               0 0.913999974727631 
              0               1               0               9 
              0               0               1 4.21600008010864 
2  15 -1 0
1
              1               0               0 0.913999974727631 
              0               1               0               9 
              0               0               1 4.21600008010864 
2  17 1 15 -1 0
2  15 1 17 -1 0
2  17 -1 0
2  17 1 8 -1 0
Curve2ds 100
1 -1.1820000000000022 0.44750000000000156 0 -1 
1 -1.1820000000000022 0.44750000000000156 0 -1 
1 0 0 0 -1 
1 0.20899999999999963 0 0 -1 
1 1.1820000000000022 -0.23849999999999838 -0.96038130815028622 0.27868933053768868 
1 1.1820000000000022 -0.23849999999999838 -0.96038130815028622 0.27868933053768868 
1 0 0 1 0 
1 -1.1820000000000022 0.23850000000000193 0.96038130815028633 -0.2786893305376883 
1 -0.13079253607106267 0.090794944505859121 0 -1 
1 0 0 1 0 
1 1.1820000000000022 -0.28749999999999787 0 -1 
1 0.16000000000000014 0 -1 0 
1 1.1820000000000022 -0.44749999999999801 0 1 
1 0 0 1 0 
1 0 -0.27500000000000213 1 0 
1 -1.1820000000000022 0.23850000000000193 0.96038130815028633 -0.2786893305376883 
1 -0.13079253607106267 0.090794944505859121 0 -1 
1 0 -0.27500000000000213 1 0 
1 1.1820000000000022 -0.28749999999999787 0 -1 
1 0.16000000000000014 -0.27500000000000213 -1 0 
1 1.1820000000000022 -0.44749999999999801 0 1 
1 0 -0.27500000000000213 1 0 
1 0 0 0 -1 
1 0.16000000000000014 0 0 -1 
1 2.4615222932161349 0 0 -1 
1 0 0 0 -1 
1 0 0 0 -1 
1 0.25 0 0 -1 
1 0.16000000000000014 0 0 -1 
1 0.11920746392893733 0.090794944505859121 -1 0 
1 0 -0 1 0 
1 0 0 1 0 
1 -0.13079253607106267 -0.069205055494141021 0.98744063191670595 -0.1579905011066696 
1 0.11920761651682454 -9.6592050554941409 0 1 
1 -9.5500000000000007 8.0108641498100042e-008 1 0 
1 0 0 0 1 
1 0 0 0 -1 
1 0.0092074639289307925 -1.2382050554941415 0 1 
1 0 1.1580000000000013 1 0 
1 0 0 0 1 
1 0.0092074639289307925 -0.080205055494140254 1 0 
1 0.11920746392893733 0.090794944505859121 -1 0 
1 0 -0.27500000000000213 1 0 
1 0 -0.27500000000000213 1 0 
1 -0.13079253607106267 -0.069205055494141021 0.98744063191670595 -0.1579905011066696 
1 0.11920746392893733 -0.10920505549414017 0 1 
1 0 -0.27500000000000213 1 0 
1 0 0 0 1 
1 0.27500000000000213 0 0 -1 
1 0.0092074639289307925 -1.2382050554941415 0 1 
1 0 1.1580000000000013 1 0 
1 0.27500000000000213 0 0 1 
1 0.0092074639289307925 -0.080205055494140254 1 0 
8 -0.30250000000000232 0.027500000000000215
1 0.14178067569312139 0 0 1 
8 -0.30250000000000232 0.027500000000000215
1 0 -1.146600000000003 -1 0 
1 0.19999999999999929 0 0 -1 
1 0 -0 0 -1 
1 8.0108641498100042e-008 -9.5790000000000006 1 0 
1 0 0.11000000000000654 1 0 
1 0.028999999999999915 0 0 -1 
1 0 -1.1580000000000013 1 0 
1 0 0 1 0 
1 0.062610186451308891 0.30462003226160306 -1 -1.9300827971658517e-055 
1 0.062610186451308891 0.30462003226160306 -1 -1.9300827971658517e-055 
1 0 0 0 -1 
1 0.19300000000000139 0 0 -1 
1 0.062610186451308891 -0.24037996773839865 0 1 
1 0.062610186451308891 -0.24037996773839865 0 1 
1 0 0 1 0 
1 0.027610186451308749 0.30462003226160306 -0.27844316991334284 -0.96045270634665258 
1 -0.1303898135486925 -0.24037996773839865 1 1.9300827971658517e-055 
1 0 0 1 0 
1 0.066000000000002501 0 -1 0 
1 0.12499999999998579 0.0084999999999979536 0 -1 
1 0 -0.27500000000000213 1 0 
1 0.027610186451308749 0.30462003226160306 -0.27844316991334284 -0.96045270634665258 
1 0 -0.27500000000000213 1 0 
1 0.12499999999998579 -0.057500000000004547 0 1 
1 -0.06438981354869 -0.24037996773839865 -1 -1.9300827971658517e-055 
1 0.066000000000002501 -0.27500000000000213 -1 0 
1 -0.1303898135486925 -0.24037996773839865 1 1.9300827971658517e-055 
1 0 -0.27500000000000213 1 0 
1 0.56744074580523585 0 0 -1 
1 0 0 0 -1 
1 0.066000000000002501 0 0 -1 
1 0 0 0 -1 
1 0.25 0 0 -1 
1 0.066000000000002501 0 0 -1 
1 0.12499999999998579 0.057499999999997442 -1 0 
1 0 0 1 0 
1 0.12499999999998579 -0.057500000000004547 0 1 
1 -0.12500015258790143 -8.1925000000000026 0 1 
1 -0.12500000000001421 -0.057500000000004547 1 0 
1 0 -0 1 0 
1 0.12499999999998579 0.057499999999997442 -1 0 
1 -0.12500000000001421 0.057499999999997442 0 -1 
1 -0.12500000000001421 -0.057500000000004547 1 0 
1 0 -0.27500000000000213 1 0 
1 0.11500000000000199 0 0 -1 
1 0 -0 0 -1 
Curves 62
1 59.212000025272367 -16.776 -8.4320000801086437 0 0 1 
1 59.212000025272367 -16.776 -8.4320000801086437 0.96074878131442942 -0.27741986086587 0 
1 59.212000025272367 -16.776 -8.1570000801086415 0.96074878131442942 -0.27741986086587 0 
1 59.541000025272368 -16.871000000000002 -8.4320000801086437 0 0 1 
1 59.541000025272368 -16.776 -8.4320000801086437 0 0 1 
1 59.541000025272368 -16.776 -8.4320000801086437 -1 0 0 
1 59.541000025272368 -16.776 -8.1570000801086415 -1 0 0 
1 59.541000025272368 -16.871000000000002 -8.4320000801086437 0 1 0 
1 59.541000025272368 -16.871000000000002 -8.1570000801086415 0 1 0 
1 58.312000025272368 -16.515000000000001 -8.4320000801086437 0 0 1 
1 58.312000025272368 -16.515000000000001 -8.4320000801086437 0 -1 0 
1 58.312000025272368 -16.515000000000001 -8.1570000801086415 0 -1 0 
1 58.312000025272368 -16.724 -8.4320000801086437 0 0 1 
1 60.676000025272373 -17.201000000000001 -8.4320000801086437 0 0 1 
1 60.676000025272373 -17.201000000000001 -8.4320000801086437 -0.96038130815028622 0.27868933053768868 0 
1 60.676000025272373 -17.201000000000001 -8.1570000801086415 -0.96038130815028622 0.27868933053768868 0 
1 58.312000025272368 -16.724 -8.4320000801086437 0.96038130815028633 -0.2786893305376883 0 
1 60.676000025272373 -17.25 -8.4320000801086437 0 -1 0 
1 60.676000025272373 -17.41 -8.4320000801086437 0 1 0 
1 58.312000025272368 -16.724 -8.1570000801086415 0.96038130815028633 -0.2786893305376883 0 
1 60.676000025272373 -17.25 -8.1570000801086415 0 -1 0 
1 60.676000025272373 -17.41 -8.1570000801086415 0 1 0 
1 60.676000025272373 -17.41 -8.4320000801086437 0 0 1 
1 60.676000025272373 -17.25 -8.4320000801086437 0 0 1 
1 60.926000025272373 -17.25 -8.4320000801086437 -1 0 0 
1 60.676000025272373 -17.41 -8.4320000801086437 0.98744063191670595 -0.1579905011066696 0 
1 60.92600017786026 -27 -8.4320001602172852 0 1 0 
1 60.816000025272366 -18.579000000000001 -8.4320000801086437 0 1 0 
1 60.816000025272366 -17.420999999999999 -8.4320000801086437 1 0 0 
1 60.926000025272373 -17.25 -8.1570000801086415 -1 0 0 
1 60.676000025272373 -17.41 -8.1570000801086415 0.98744063191670595 -0.1579905011066696 0 
1 60.926000025272373 -17.449999999999999 -8.1570000801086415 0 1 0 
1 60.816000025272366 -18.579000000000001 -8.1570000801086415 0 1 0 
1 60.816000025272366 -17.420999999999999 -8.1570000801086415 1 0 0 
1 61.729999999999997 -8.4323999999999977 -4.2160000000000011 0 0 -1 
1 60.926000025272373 -17.25 -8.4320000801086437 0 0 1 
1 60.926000025272373 -17.420999999999999 -8.4320000801086437 0 0 1 
1 60.816000025272366 -17.420999999999999 -8.4320000801086437 0 0 1 
1 60.131000025272371 -18.992000000000001 -8.4320000801086437 0 0 1 
1 60.131000025272371 -18.992000000000001 -8.4320000801086437 0 1 0 
1 60.131000025272371 -18.992000000000001 -8.1570000801086415 0 1 0 
1 60.131000025272371 -18.957000000000001 -8.4320000801086437 0 0 1 
1 60.676000025272373 -18.992000000000001 -8.4320000801086437 0 0 1 
1 60.676000025272373 -18.992000000000001 -8.4320000801086437 -1 0 0 
1 60.676000025272373 -18.992000000000001 -8.1570000801086415 -1 0 0 
1 60.131000025272371 -18.957000000000001 -8.4320000801086437 0.96045270634665258 0.27844316991334284 0 
1 60.676000025272373 -18.798999999999999 -8.4320000801086437 0 -1 0 
1 60.131000025272371 -18.957000000000001 -8.1570000801086415 0.96045270634665258 0.27844316991334284 0 
1 60.676000025272373 -18.865000000000002 -8.1570000801086415 0 1 0 
1 60.676000025272373 -18.798999999999999 -8.1570000801086415 0 -1 0 
1 60.676000025272373 -18.798999999999999 -8.4320000801086437 0 0 1 
1 60.676000025272373 -18.865000000000002 -8.4320000801086437 0 0 1 
1 60.676000025272373 -18.75 -8.4320000801086437 1 0 0 
1 60.676000025272373 -18.865000000000002 -8.4320000801086437 0 1 0 
1 60.92600017786026 -27 -8.4320001602172852 0 1 0 
1 60.926000025272373 -18.865000000000002 -8.4320000801086437 -1 0 0 
1 60.676000025272373 -18.75 -8.1570000801086415 1 0 0 
1 60.926000025272373 -18.75 -8.1570000801086415 0 -1 0 
1 60.926000025272373 -18.865000000000002 -8.1570000801086415 -1 0 0 
1 60.676000025272373 -18.75 -8.4320000801086437 0 0 1 
1 60.926000025272373 -18.865000000000002 -8.4320000801086437 0 0 1 
1 60.926000025272373 -18.75 -8.4320000801086437 0 0 1 
Polygon3D 0
PolygonOnTriangulations 88
2 1 2 
p 0.0007002 1 0 0.275 
2 3 4 
p 0.0007002 1 0 0.275 
2 1 3 
p 0.0007002 1 0 0.342441235834706 
2 1 2 
p 0.0007002 1 0 0.342441235834706 
2 2 4 
p 0.0007002 1 0 0.342441235834706 
2 1 2 
p 0.0007002 1 0 0.342441235834706 
2 3 4 
p 0.0007002 1 0 0.275 
2 1 2 
p 0.0007002 1 0 0.275 
2 1 2 
p 0.0007002 1 0 0.275 
2 3 4 
p 0.0007002 1 0 0.275 
2 1 3 
p 0.0007002 1 0 0.329000000000001 
2 3 1 
p 0.0007002 1 0 0.329000000000001 
2 2 4 
p 0.0007002 1 0 0.329000000000001 
2 3 1 
p 0.0007002 1 0 0.329000000000001 
2 2 3 
p 0.0007002 1 0 0.0950000000000006 
2 1 3 
p 0.0007002 1 0 0.0950000000000006 
2 2 3 
p 0.0001 1 0 0.0950000000000006 
2 2 4 
p 0.0001 1 0 0.0950000000000006 
2 1 2 
p 0.0006002 1 0 0.275 
2 3 4 
p 0.0006002 1 0 0.275 
2 1 3 
p 0.0006002 1 0 0.209000000000001 
2 3 1 
p 0.0006002 1 0 0.209000000000001 
2 2 4 
p 0.0006002 1 0 0.209000000000001 
2 4 1 
p 0.0006002 1 0 0.209000000000001 
2 1 2 
p 0.0006002 1 0 0.275 
2 3 4 
p 0.0006002 1 0 0.275 
2 3 4 
p 0.0006002 1 0 0.275 
2 1 2 
p 0.0006002 1 0 0.275 
2 4 3 
p 0.0006002 1 0 2.46152229321614 
2 1 3 
p 0.0006002 1 0 2.46152229321614 
2 3 4 
p 0.0001 1 0 2.46152229321614 
2 2 4 
p 0.0001 1 0 2.46152229321614 
2 1 2 
p 0.0005002 1 0 0.275 
2 3 4 
p 0.0005002 1 0 0.275 
2 4 3 
p 0.0005002 1 0 0.25 
2 1 3 
p 0.0005002 1 0 0.25 
2 2 3 
p 0.0002002 1 0 0.110000000000007 
2 1 2 
p 0.0002002 1 0 0.110000000000007 
2 4 3 
p 0.0004002 1 0 0.25 
2 2 4 
p 0.0004002 1 0 0.25 
2 2 3 
p 0.0002002 1 0 0.110000000000007 
2 4 3 
p 0.0002002 1 0 0.110000000000007 
2 3 4 
p 0.0005002 1 0 0.275 
2 1 2 
p 0.0005002 1 0 0.275 
2 2 3 
p 0.0002002 1 0 0.275 
2 4 3 
p 0.0002002 1 0 0.275 
2 4 3 
p 0.0002002 1 0 0.275 
2 1 4 
p 0.0002002 1 0 0.275 
2 1 2 
p 0.0004002 1 0 0.275 
2 3 4 
p 0.0004002 1 0 0.275 
2 1 3 
p 0.0004002 1 0 0.0350000000000001 
2 3 1 
p 0.0004002 1 0 0.0350000000000001 
2 2 4 
p 0.0004002 1 0 0.0350000000000001 
2 4 1 
p 0.0004002 1 0 0.0350000000000001 
2 1 2 
p 0.0004002 1 0 0.275 
2 3 4 
p 0.0004002 1 0 0.275 
2 3 4 
p 0.0004002 1 0 0.275 
2 1 2 
p 0.0004002 1 0 0.275 
2 4 3 
p 0.0004002 1 0 0.545000000000002 
2 1 3 
p 0.0004002 1 0 0.545000000000002 
2 3 4 
p 0.0001 1 0 0.545000000000002 
2 2 4 
p 0.0001 1 0 0.545000000000002 
2 1 3 
p 0.0004002 1 0 0.567440745805236 
2 1 2 
p 0.0004002 1 0 0.567440745805236 
2 2 4 
p 0.0004002 1 0 0.567440745805236 
2 1 2 
p 0.0004002 1 0 0.567440745805236 
2 3 4 
p 0.0004002 1 0 0.275 
2 1 2 
p 0.0004002 1 0 0.275 
2 1 2 
p 0.0003002 1 0 0.275 
2 3 4 
p 0.0003002 1 0 0.275 
2 1 3 
p 0.0003002 1 0 0.25 
2 1 2 
p 0.0003002 1 0 0.25 
2 4 2 
p 0.0003002 1 8.135 8.25 
2 3 1 
p 0.0003002 1 8.135 8.25 
2 4 3 
p 0.0003002 1 0 0.25 
2 1 3 
p 0.0003002 1 0 0.25 
2 2 4 
p 0.0003002 1 0 0.25 
2 1 2 
p 0.0003002 1 0 0.25 
2 2 4 
p 0.0003002 1 0 0.115 
2 2 4 
p 0.0003002 1 0 0.115 
2 4 3 
p 0.0003002 1 0 0.25 
2 2 4 
p 0.0003002 1 0 0.25 
2 1 2 
p 0.0003002 1 0 0.275 
2 3 4 
p 0.0003002 1 0 0.275 
2 3 4 
p 0.0003002 1 0 0.275 
2 1 2 
p 0.0003002 1 0 0.275 
2 3 4 
p 0.0003002 1 0 0.275 
2 1 2 
p 0.0003002 1 0 0.275 
Surfaces 34
1 59.212000025272367 -16.776 -8.4320000801086437 0.27741986086587 0.96074878131442942 0 0.96074878131442942 -0.27741986086587 0 0 0 -1 
1 59.541000025272368 -16.776 -8.4320000801086437 0 -1 0 -1 0 0 -0 -0 -1 
1 59.396889716313694 -16.803110308958676 -8.4320000801086437 0 0 1 1 0 -0 -0 1 0 
1 59.396889716313694 -16.803110308958676 -8.1570000801086415 0 0 1 1 0 -0 -0 1 0 
1 59.541000025272368 -16.871000000000002 -8.4320000801086437 -1 0 0 0 1 0 0 0 -1 
1 58.312000025272368 -16.515000000000001 -8.4320000801086437 1 0 0 0 -1 0 0 0 -1 
1 59.494000025272371 -16.962500000000002 -8.4320000801086437 0 0 1 1 0 -0 -0 1 0 
1 59.494000025272371 -16.962500000000002 -8.1570000801086415 0 0 1 1 0 -0 -0 1 0 
1 58.312000025272368 -16.724 -8.4320000801086437 0.2786893305376883 0.96038130815028633 0 0.96038130815028633 -0.2786893305376883 0 0 0 -1 
1 60.676000025272373 -17.201000000000001 -8.4320000801086437 -0.27868933053768868 -0.96038130815028622 0 -0.96038130815028622 0.27868933053768868 0 -0 0 -1 
1 60.676000025272373 -17.41 -8.4320000801086437 -1 0 0 0 1 0 0 0 -1 
1 60.806792561343435 -17.340794944505859 -8.4320000801086437 0 0 1 1 0 -0 -0 1 0 
1 60.676000025272373 -17.25 -8.4320000801086437 1 0 0 0 -1 0 0 0 -1 
1 60.806792561343435 -17.340794944505859 -8.1570000801086415 0 0 1 1 0 -0 -0 1 0 
1 60.676000025272373 -17.41 -8.4320000801086437 0.1579905011066696 0.98744063191670595 0 0.98744063191670595 -0.1579905011066696 0 0 0 -1 
1 60.926000025272373 -17.25 -8.4320000801086437 0 -1 0 -1 0 0 -0 -0 -1 
1 60.926000025272373 -17.449999999999999 -8.4320000801086437 -1 0 0 0 1 0 0 0 -1 
1 60.816000025272366 -18.579000000000001 -8.4320000801086437 0 0 1 1 0 -0 -0 1 0 
1 60.816000025272366 -18.579000000000001 -8.4320000801086437 1 0 0 0 0 1 0 -1 0 
1 60.816000025272366 -17.420999999999999 -8.4320000801086437 0 1 0 0 -0 1 1 0 -0 
1 60.816000025272366 -18.579000000000001 -8.1570000801086415 0 0 1 1 0 -0 -0 1 0 
1 60.92600017786026 -27 -8.4320001602172852 1 0 0 0 0 1 0 -1 0 
1 60.131000025272371 -18.992000000000001 -8.4320000801086437 -1 0 0 0 1 0 0 0 -1 
1 60.435620057533974 -18.929389813548692 -8.4320000801086437 -3.51411343522818e-028 5.4923747703110974e-028 -1 0 -1 -5.4923747703110974e-028 -1 -1.9300827971658517e-055 3.51411343522818e-028 
1 60.435620057533974 -18.929389813548692 -8.1570000801086433 -3.51411343522818e-028 5.4923747703110974e-028 -1 0 -1 -5.4923747703110974e-028 -1 -1.9300827971658517e-055 3.51411343522818e-028 
1 60.131000025272371 -18.957000000000001 -8.4320000801086437 -0.27844316991334284 0.96045270634665258 0 0.96045270634665258 0.27844316991334284 0 0 0 -1 
1 60.676000025272373 -18.992000000000001 -8.4320000801086437 0 -1 0 -1 0 0 -0 -0 -1 
1 60.676000025272373 -18.798999999999999 -8.4320000801086437 1 0 0 0 -1 0 0 0 -1 
1 60.676000025272373 -18.865000000000002 -8.4320000801086437 -1 0 0 0 1 0 0 0 -1 
1 60.801000025272359 -18.807499999999997 -8.4320000801086437 -0 -0 -1 -1 0 0 0 1 -0 
1 60.801000025272359 -18.807499999999997 -8.1570000801086415 -0 -0 -1 -1 0 0 0 1 -0 
1 60.926000025272373 -18.865000000000002 -8.4320000801086437 0 -1 0 -1 0 0 -0 -0 -1 
1 60.676000025272373 -18.75 -8.4320000801086437 0 1 0 1 0 0 0 0 -1 
1 60.926000025272373 -18.75 -8.4320000801086437 1 0 0 0 -1 0 0 0 -1 
Triangulations 33
4 2 1 2.29114879583812e-015
60.126 -7.776 -4.216 60.126 -7.776 -3.941 60.455 -7.871 -4.216 60.455 -7.871 -3.941 0 0 0 -0.275000000000002 0.342441235834706 0 0.342441235834706 -0.275000000000002 3 1 2 3 2 4 
4 2 1 2.27595720048157e-015
60.455 -7.776 -4.216 60.455 -7.776 -3.941 60.126 -7.776 -4.216 60.126 -7.776 -3.941 0 0 0 -0.275000000000002 0.329000000000001 0 0.329000000000001 -0.275000000000002 3 1 2 3 2 4 
3 1 1 8.88178419700125e-016
60.126 -7.776 -4.216 60.455 -7.871 -4.216 60.455 -7.776 -4.216 -0.184889691041327 0.0271103089586759 0.144110308958673 -0.0678896910413265 0.144110308958673 0.0271103089586759 3 1 2 
3 1 1 8.88178419700125e-016
59.2120000252724 -16.776 -8.15700008010864 59.5410000252724 -16.871 -8.15700008010864 59.5410000252724 -16.776 -8.15700008010864 -0.184889691041327 0.0271103089586759 0.144110308958673 -0.0678896910413265 0.144110308958673 0.0271103089586759 3 1 2 
4 2 1 2.51187959321442e-015
60.455 -7.871 -4.216 60.455 -7.871 -3.941 60.455 -7.776 -4.216 60.455 -7.776 -3.941 0 0 0 -0.275000000000002 0.0950000000000024 0 0.0950000000000024 -0.275000000000002 3 1 2 3 2 4 
4 2 1 1.77635683940025e-015
59.226 -7.515 -4.216 59.226 -7.515 -3.941 59.226 -7.724 -4.216 59.226 -7.724 -3.941 0 0 0 -0.275000000000002 0.209 0 0.209 -0.275000000000002 3 1 2 3 2 4 
4 2 1 1.99840144432528e-015
61.59 -8.201 -4.216 61.59 -8.201 -3.941 59.226 -7.515 -4.216 59.226 -7.515 -3.941 0 0 0 -0.275000000000002 2.46152229321613 0 2.46152229321613 -0.275000000000002 3 1 2 3 2 4 
4 2 1 1.96124126127567e-015
59.226 -7.724 -4.216 61.59 -8.41 -4.216 59.226 -7.515 -4.216 61.59 -8.201 -4.216 -1.182 0.238500000000002 1.182 -0.447499999999998 -1.182 0.447500000000002 1.182 -0.238499999999998 4 1 2 4 3 1 
4 2 1 1.96124126127567e-015
58.3120000252724 -16.724 -8.15700008010864 60.6760000252724 -17.41 -8.15700008010864 60.6760000252724 -17.201 -8.15700008010864 58.3120000252724 -16.515 -8.15700008010864 -1.182 0.238500000000002 1.182 -0.447499999999998 1.182 -0.238499999999998 -1.182 0.447500000000002 3 1 2 3 4 1 
4 2 1 1.83186799063151e-015
59.226 -7.724 -4.216 59.226 -7.724 -3.941 61.59 -8.41 -4.216 61.59 -8.41 -3.941 0 0 0 -0.275000000000002 2.46152229321613 0 2.46152229321613 -0.275000000000002 3 1 2 3 2 4 
4 2 1 1.41553435639707e-015
61.59 -8.41 -4.216 61.59 -8.41 -3.941 61.59 -8.201 -4.216 61.59 -8.201 -3.941 0 0 0 -0.275000000000002 0.209 0 0.209 -0.275000000000002 3 1 2 3 2 4 
4 2 1 1.5404344466674e-015
61.59 -8.25 -4.216 61.59 -8.25 -3.941 61.59 -8.41 -4.216 61.59 -8.41 -3.941 0 0 0 -0.275000000000002 0.16 0 0.16 -0.275000000000002 3 1 2 3 2 4 
4 2 1 0
61.84 -8.25 -4.216 61.84 -8.25 -3.941 61.59 -8.25 -4.216 61.59 -8.25 -3.941 0 0 0 -0.275000000000002 0.25 0 0.25 -0.275000000000002 3 1 2 3 2 4 
4 2 1 1.74220136389405e-015
61.59 -8.41 -4.216 61.84 -8.45 -4.216 61.59 -8.25 -4.216 61.84 -8.25 -4.216 -0.130792536071063 -0.069205055494141 0.119207463928937 -0.10920505549414 -0.130792536071063 0.0907949445058591 0.119207463928937 0.0907949445058591 4 1 2 4 3 1 
4 2 1 3.6485915595746e-015
61.73 -9.579 -4.216 61.73 -8.421 -4.216 61.84 -8.421 -4.216 61.84 -9.579 -4.216 0 0 0 1.158 0.110000000000007 1.158 0.110000000000007 0 3 2 1 3 1 4 
4 2 1 3.30291349825984e-015
61.73 -8.421 -4.216 61.84 -8.421 -4.216 61.84 -8.421 -3.941 61.73 -8.421 -3.941 0 0 0 0.110000000000007 0.275000000000002 0.110000000000007 0.275000000000002 0 3 2 1 3 1 4 
4 2 1 1.74220136389405e-015
61.59 -8.41 -3.941 61.84 -8.45 -3.941 61.59 -8.25 -3.941 61.84 -8.25 -3.941 -0.130792536071063 -0.069205055494141 0.119207463928937 -0.10920505549414 -0.130792536071063 0.0907949445058591 0.119207463928937 0.0907949445058591 4 1 2 4 3 1 
4 2 1 3.6485915595746e-015
61.73 -9.579 -3.941 61.73 -8.421 -3.941 61.84 -8.421 -3.941 61.84 -9.579 -3.941 0 0 0 1.158 0.110000000000007 1.158 0.110000000000007 0 3 2 1 3 1 4 
4 2 1 1.42941214420489e-015
61.84 -8.45 -4.216 61.84 -8.45 -3.941 61.84 -8.25 -4.216 61.84 -8.25 -3.941 0 0 0 -0.275000000000002 0.199999999999999 0 0.199999999999999 -0.275000000000002 3 1 2 3 2 4 
4 2 1 1.52587887214395e-007
61.84 -9.579 -4.216 61.84 -9.579 -3.941 61.84 -8.421 -3.941 61.84 -8.421 -4.216 8.01086414981e-008 -8.421 0.275000080108644 -8.421 0.275000080108644 -9.579 8.01086414981e-008 -9.579 2 4 3 2 1 4 
4 2 1 0
61.73 -9.579 -4.216 61.73 -9.579 -3.941 61.73 -8.421 -3.941 61.73 -8.421 -4.216 0 0 0.275000000000002 0 0.275000000000002 -1.158 0 -1.158 2 1 4 2 4 3 
4 2 1 1.76247905159244e-015
61.045 -9.992 -4.216 61.045 -9.992 -3.941 61.045 -9.957 -4.216 61.045 -9.957 -3.941 0 0 0 -0.275000000000002 0.0350000000000001 0 0.0350000000000001 -0.275000000000002 3 1 2 3 2 4 
4 2 1 0
61.59 -9.992 -4.216 61.59 -9.992 -3.941 61.045 -9.992 -4.216 61.045 -9.992 -3.941 0 0 0 -0.275000000000002 0.545000000000002 0 0.545000000000002 -0.275000000000002 3 1 2 3 2 4 
4 2 1 1.9829247619421e-015
61.045 -9.957 -4.216 61.59 -9.799 -4.216 61.045 -9.992 -4.216 61.59 -9.992 -4.216 0.0276101864513087 0.304620032261603 -0.130389813548693 -0.240379967738399 0.0626101864513089 0.304620032261603 0.0626101864513089 -0.240379967738399 1 2 4 3 1 4 
4 2 1 1.9829247619421e-015
60.1310000252724 -18.957 -8.15700008010864 60.6760000252724 -18.799 -8.15700008010864 60.6760000252724 -18.992 -8.15700008010864 60.1310000252724 -18.992 -8.15700008010864 0.0276101864513087 0.304620032261603 -0.130389813548693 -0.240379967738399 0.0626101864513089 -0.240379967738399 0.0626101864513089 0.304620032261603 1 2 3 4 1 3 
4 2 1 1.33226762955019e-015
61.045 -9.957 -4.216 61.045 -9.957 -3.941 61.59 -9.799 -4.216 61.59 -9.799 -3.941 0 0 0 -0.275000000000002 0.567440745805243 0 0.567440745805243 -0.275000000000002 3 1 2 3 2 4 
4 2 1 1.4432899320127e-015
61.59 -9.799 -4.216 61.59 -9.799 -3.941 61.59 -9.992 -4.216 61.59 -9.992 -3.941 0 0 0 -0.275000000000002 0.193000000000001 0 0.193000000000001 -0.275000000000002 3 1 2 3 2 4 
4 2 1 8.18789480661053e-016
61.59 -9.865 -4.216 61.59 -9.865 -3.941 61.59 -9.75 -4.216 61.59 -9.75 -3.941 0 0 0 -0.275000000000002 0.115000000000002 0 0.115000000000002 -0.275000000000002 3 1 2 3 2 4 
4 2 1 1.77635683940025e-015
61.84 -9.865 -4.216 61.84 -9.865 -3.941 61.59 -9.865 -4.216 61.59 -9.865 -3.941 0 0 0 -0.275000000000002 0.25 0 0.25 -0.275000000000002 3 1 2 3 2 4 
4 2 1 0
61.59 -9.75 -4.216 61.59 -9.75 -3.941 61.84 -9.75 -4.216 61.84 -9.75 -3.941 0 0 0 -0.275000000000002 0.25 0 0.25 -0.275000000000002 3 1 2 3 2 4 
4 2 1 1.19864245649521e-015
61.59 -9.75 -4.216 61.84 -9.75 -4.216 61.59 -9.865 -4.216 61.84 -9.865 -4.216 0.124999999999986 0.0574999999999974 -0.125000000000014 0.0574999999999974 0.124999999999986 -0.0575000000000045 -0.125000000000014 -0.0575000000000045 1 2 4 1 4 3 
4 2 1 8.2572837456496e-016
61.84 -9.75 -4.216 61.84 -9.75 -3.941 61.84 -9.865 -4.216 61.84 -9.865 -3.941 0 0 0 -0.275000000000002 0.115000000000002 0 0.115000000000002 -0.275000000000002 3 1 2 3 2 4 
4 2 1 1.19864245649521e-015
61.59 -9.75 -3.941 61.84 -9.75 -3.941 61.59 -9.865 -3.941 61.84 -9.865 -3.941 0.124999999999986 0.0574999999999974 -0.125000000000014 0.0574999999999974 0.124999999999986 -0.0575000000000045 -0.125000000000014 -0.0575000000000045 1 2 4 1 4 3 

TShapes 173
Ve
0.0003501
60.126 -7.776 -4.216
0 0

0101101
*
Ve
1e-007
60.126 -7.776 -3.941
0 0

0101101
*
Ed
 1e-007 1 1 0
1  1 0 0 0.275
6  1 1 2
6  2 2 2
0

0101000
+173 2 -172 2 *
Ve
0.0003501
60.455 -7.871 -4.216
0 0

0101101
*
Ed
 0.0003501 1 1 0
1  2 0 0 0.342441235834706
6  3 1 2
6  4 3 2
0

0101000
+173 2 -170 2 *
Ve
1e-007
60.455 -7.871 -3.941
0 0

0101101
*
Ed
 1e-007 1 1 0
1  3 0 0 0.342441235834706
6  5 1 2
6  6 4 0
0

0101000
+172 2 -168 2 *
Ed
 1e-007 1 1 0
1  4 0 0 0.275
6  7 1 2
6  8 5 2
0

0101000
+170 2 -168 2 *
Wi

0101100
+171 1 -169 1 +167 1 -166 1 *
Fa
0  1e-007 1 1
2  1
0111000
+165 0 *
Ve
0.0003501
60.455 -7.776 -4.216
0 0

0101101
*
Ve
1e-007
60.455 -7.776 -3.941
0 0

0101101
*
Ed
 1e-007 1 1 0
1  5 0 0 0.275
6  9 2 2
6  10 5 2
0

0101000
+163 2 -162 2 *
Ed
 0.0003501 1 1 0
1  6 0 0 0.329000000000001
6  11 2 2
6  12 3 2
0

0101000
+163 2 -173 2 *
Ed
 1e-007 1 1 0
1  7 0 0 0.329000000000001
6  13 2 2
6  14 4 0
0

0101000
+162 2 -172 2 *
Wi

0101100
+161 1 -160 1 +159 1 -171 1 *
Fa
0  1e-007 2 1
2  2
0111000
+158 0 *
Ed
 0.0003501 1 1 0
1  8 0 0 0.0950000000000006
6  15 3 2
6  16 5 2
0

0101000
+170 2 -163 2 *
Wi

0101100
+169 1 +160 1 +156 1 *
Fa
0  5.01e-005 3 1
2  3
0111000
+155 0 *
Ed
 1e-007 1 1 0
1  9 0 0 0.0950000000000006
6  17 4 0
6  18 5 2
0

0101000
+168 2 -162 2 *
Wi

0101100
+167 0 +153 0 +159 0 *
Fa
0  1e-007 4 0
2  4
0111000
+152 0 *
Wi

0101100
+166 1 -156 1 +153 1 -161 1 *
Fa
0  1e-007 5 1
2  5
0111000
+150 0 *
Sh

0101100
-164 0 -157 0 -154 0 +151 1 -149 0 *
So

0100000
+148 0 *
Co

0100000
+147 0 *
Ve
0.0003001
59.226 -7.515 -4.216
0 0

0101101
*
Ve
1e-007
59.226 -7.515 -3.941
0 0

0101101
*
Ed
 1e-007 1 1 0
1  10 0 0 0.275
6  19 6 4
6  20 7 4
0

0101000
+145 4 -144 4 *
Ve
0.0003001
59.226 -7.724 -4.216
0 0

0101101
*
Ed
 0.0003001 1 1 0
1  11 0 0 0.209000000000001
6  21 6 4
6  22 8 4
2  1 7 0 0 0.209000000000001
0

0101000
+145 4 -142 4 *
Ve
1e-007
59.226 -7.724 -3.941
0 0

0101101
*
Ed
 1e-007 1 1 0
1  12 0 0 0.209000000000001
6  23 6 4
6  24 9 0
2  2 8 0 0 0.209000000000001
0

0101000
+144 4 -140 4 *
Ed
 1e-007 1 1 0
1  13 0 0 0.275
6  25 10 4
6  26 6 4
2  3 9 0 0 0.275
0

0101000
+142 4 -140 4 *
Wi

0101100
+143 3 -141 3 +139 3 -138 3 *
Fa
0  1e-007 6 3
2  6
0111000
+137 0 *
Ve
0.0003501
61.59 -8.201 -4.216
0 0

0101101
*
Ve
5.01e-005
61.59 -8.201 -3.941
0 0

0101101
*
Ed
 5.01e-005 1 1 0
1  14 0 0 0.275
6  27 11 4
6  28 7 4
2  4 11 0 0 0.275
0

0101000
+135 4 -134 4 *
Ed
 0.0003001 1 1 0
1  15 0 0 2.46152229321614
6  29 8 4
6  30 7 4
2  5 7 0 0 2.46152229321614
0

0101000
+135 4 -145 4 *
Ed
 1e-007 1 1 0
1  16 0 0 2.46152229321614
6  31 9 0
6  32 7 4
2  6 8 0 0 2.46152229321614
0

0101000
+134 4 -144 4 *
Wi

0101100
+133 3 -132 3 +131 3 -143 3 *
Fa
0  1e-007 10 3
2  7
0111000
+130 0 *
Ve
0.0004001
61.59 -8.41 -4.216
0 0

0101101
*
Ed
 0.0003001 1 1 0
1  17 0 0 2.46152229321613
2  7 9 0 0 2.46152229321613
2  8 7 0 0 2.46152229321613
0

0101000
+142 4 -128 4 *
Ve
0.0004001
61.59 -8.25 -4.216
0 0

0101101
*
Ed
 0.0004001 1 1 0
1  18 0 0 0.16
2  9 12 0 0 0.16
2  10 13 0 0 0.16
2  11 7 6 0 0.16
2  12 11 6 0 0.16
0

0101000
+126 7 -128 7 *
Ed
 0.0003501 1 1 0
1  19 0 0.16 0.209
2  13 7 0 0.16 0.209
2  14 11 0 0.16 0.209
0

0101000
+126 4 -135 4 *
Wi

0101100
+127 3 +141 3 -125 5 +132 3 +124 3 *
Fa
0  5.01e-005 7 3

0111000
+123 0 *
Ve
0.0001501
61.59 -8.41 -3.941
0 0

0101101
*
Ed
 1e-007 1 1 0
1  20 0 0 2.46152229321613
2  15 9 0 0 2.46152229321613
2  16 8 0 0 2.46152229321613
0

0101000
+140 4 -121 4 *
Ve
0.0001501
61.59 -8.25 -3.941
0 0

0101101
*
Ed
 0.0001501 1 1 0
1  21 0 0 0.16
2  17 14 0 0 0.16
2  18 13 0 0 0.16
2  19 8 6 0 0.16
2  20 11 6 0 0.16
0

0101000
+119 7 -121 7 *
Ed
 5.01e-005 1 1 0
1  22 0 0.16 0.209
2  21 8 0 0.16 0.209
2  22 11 0 0.16 0.209
0

0101000
+119 4 -134 4 *
Wi

0101100
+120 3 +139 3 -118 5 +131 3 +117 3 *
Fa
0  1e-007 8 3

0111000
+116 0 *
Ed
 0.0001501 1 1 0
1  23 0 0 0.275
2  23 15 0 0 0.275
2  24 13 0 0 0.275
2  25 9 6 0 0.275
2  26 11 6 0 0.275
0

0101000
+128 7 -121 7 *
Wi

0101100
+138 3 -127 3 +120 3 -114 5 *
Fa
0  1e-007 9 3

0111000
+113 0 *
Ed
 5.01e-005 1 1 0
1  24 0 0 0.275
6  33 12 7
6  34 13 7
2  27 13 0 0 0.275
2  28 16 0 0 0.275
2  29 11 6 0 0.275
0

0101000
+126 7 -119 7 *
Wi

0101100
-124 3 -133 3 +117 3 +111 5 *
Fa
0  5.01e-005 11 3

0111000
+110 0 *
Ve
0.0003501
61.84 -8.25 -4.216
0 0

0101101
*
Ed
 0.0003501 1 1 0
1  25 0 0 0.25
6  35 14 7
6  36 13 7
2  30 12 0 0 0.25
2  31 16 0 0 0.25
0

0101000
+108 7 -126 7 *
Ve
0.0003501
61.73 -8.4324 -4.216
0 0

0101101
*
Ed
 0.0003501 1 1 0
1  26 0 0 0.141780675693122
2  32 15 0 0 0.141780675693122
2  33 12 0 0 0.141780675693122
0

0101000
+128 7 -106 7 *
Ve
0.0003501
61.84 -8.421 -4.216
0 0

0101101
*
Ed
 0.0003501 1 1 0
1  27 0 9.579 9.75
2  34 12 9 9.579 9.75
2  35 17 9 9.579 9.75
0

0101000
+104 10 -108 10 *
Ve
0.0002001
61.73 -8.421 -4.216
0 0

0101101
*
Ed
 0.0002001 1 1 0
1  28 0 1.1466 1.158
2  36 18 0 1.1466 1.158
2  37 19 0 1.1466 1.158
2  38 12 12 1.1466 1.158
0

0101000
+106 13 -102 13 *
Ed
 0.0002001 1 1 0
1  29 0 0 0.110000000000007
6  37 15 13
6  38 16 13
2  39 18 0 0 0.110000000000007
2  40 20 0 0 0.110000000000007
2  41 12 12 0 0.110000000000007
0

0101000
-104 13 +102 13 *
Wi

0101100
+125 5 +107 5 +105 5 +103 8 +101 11 +100 11 *
Fa
0  0.0001501 12 5

0111000
+99 0 *
Ve
0.0003001
61.84 -8.25 -3.941
0 0

0101101
*
Ed
 0.0001001 1 1 0
1  30 0 0 0.25
6  39 17 7
6  40 13 7
2  42 14 0 0 0.25
2  43 16 0 0 0.25
0

0101000
+97 7 -119 7 *
Ve
0.0001001
61.73 -8.4324 -3.941
0 0

0101101
*
Ed
 0.0001001 1 1 0
1  31 0 0 0.141780675693122
2  44 15 0 0 0.141780675693122
2  45 14 0 0 0.141780675693122
0

0101000
+121 7 -95 7 *
Ve
0.0003001
61.84 -8.421 -3.941
0 0

0101101
*
Ed
 0.0003001 1 1 0
1  32 0 0.0289999999999999 0.199999999999999
2  46 14 0 0.0289999999999999 0.199999999999999
2  47 17 0 0.0289999999999999 0.199999999999999
0

0101000
+93 7 -97 7 *
Ve
0.0001001
61.73 -8.421 -3.941
0 0

0101101
*
Ed
 0.0001001 1 1 0
1  33 0 1.1466 1.158
2  48 21 0 1.1466 1.158
2  49 19 0 1.1466 1.158
2  50 14 12 1.1466 1.158
0

0101000
+95 13 -91 13 *
Ed
 0.0001001 1 1 0
1  34 0 0 0.110000000000007
6  41 18 13
6  42 16 13
2  51 21 0 0 0.110000000000007
2  52 20 0 0 0.110000000000007
2  53 14 12 0 0.110000000000007
0

0101000
-93 13 +91 13 *
Wi

0101100
+118 5 +96 5 +94 5 +92 5 +90 11 +89 11 *
Fa
0  0.0001001 14 5

0111000
+88 0 *
Ed
 0.0001001 1 1 0
1  35 0 -0.275000000000002 0
2  54 15 5 -0.275000000000002 0
2  55 19 11 -0.275000000000002 0
0

0101000
+95 0 -106 0 *
Wi

0101100
-105 5 +114 5 +86 0 +94 5 *
Fa
0  0.0001001 15 5

0111000
+85 0 *
Ed
 0.0003001 1 1 0
1  36 0 0 0.275
6  43 19 7
6  44 13 7
2  56 17 0 0 0.275
2  57 16 0 0 0.275
0

0101000
+108 7 -97 7 *
Wi

0101100
+83 5 -107 5 +96 5 -111 5 *
Fa
0  1e-007 16 5

0111000
+82 0 *
Ed
 0.0002001 1 1 0
1  37 0 0 0.275
6  45 16 13
6  46 20 13
2  58 22 14 0 0.275
2  59 20 0 0 0.275
2  60 17 12 0 0.275
0

0101000
-93 13 +104 13 *
Wi

0101100
-103 8 -83 5 +92 5 +80 11 *
Fa
0  0.0001501 17 5

0111000
+79 0 *
Ed
 0.0001001 1 1 0
1  38 0 0 0.275
6  47 21 13
6  48 16 13
2  61 19 0 0 0.275
2  62 20 0 0 0.275
0

0101000
-91 13 +102 13 *
Wi

0101100
-90 11 +77 11 +101 11 +86 0 *
Fa
0  0.0001001 19 11

0111000
+76 0 *
Wi

0101100
-100 11 -80 11 +77 11 +89 11 *
Fa
0  1e-007 20 11

0111000
+74 0 *
Sh

0101100
-136 0 -129 0 -122 0 +115 0 -112 0 -109 0 -98 0 +87 0 -84 0 -81 0 
-78 0 +75 0 -73 0 *
So

0100000
+72 0 *
Ve
0.0002001
61.045 -9.992 -4.216
0 0

0101101
*
Ve
1e-007
61.045 -9.992 -3.941
0 0

0101101
*
Ed
 1e-007 1 1 0
1  39 0 0 0.275
6  49 22 16
6  50 23 16
0

0101000
+70 16 -69 16 *
Ve
0.0002001
61.045 -9.957 -4.216
0 0

0101101
*
Ed
 0.0002001 1 1 0
1  40 0 0 0.0350000000000001
6  51 22 16
6  52 24 16
2  63 24 0 0 0.0350000000000001
0

0101000
+70 16 -67 16 *
Ve
1e-007
61.045 -9.957 -3.941
0 0

0101101
*
Ed
 1e-007 1 1 0
1  41 0 0 0.0350000000000001
6  53 22 16
6  54 25 0
2  64 25 0 0 0.0350000000000001
0

0101000
+69 16 -65 16 *
Ed
 1e-007 1 1 0
1  42 0 0 0.275
6  55 26 16
6  56 22 16
2  65 26 0 0 0.275
0

0101000
+67 16 -65 16 *
Wi

0101100
+68 15 -66 15 +64 15 -63 15 *
Fa
0  1e-007 23 15
2  22
0111000
+62 0 *
Ve
0.0002501
61.59 -9.992 -4.216
0 0

0101101
*
Ve
5.01e-005
61.59 -9.992 -3.941
0 0

0101101
*
Ed
 5.01e-005 1 1 0
1  43 0 0 0.275
6  57 27 16
6  58 23 16
2  66 28 0 0 0.275
0

0101000
+60 16 -59 16 *
Ed
 0.0002001 1 1 0
1  44 0 0 0.545000000000002
6  59 24 16
6  60 23 16
2  67 24 0 0 0.545000000000002
0

0101000
+60 16 -70 16 *
Ed
 1e-007 1 1 0
1  45 0 0 0.545000000000002
6  61 25 0
6  62 23 16
2  68 25 0 0 0.545000000000002
0

0101000
+59 16 -69 16 *
Wi

0101100
+58 15 -57 15 +56 15 -68 15 *
Fa
0  1e-007 27 15
2  23
0111000
+55 0 *
Ve
0.0002501
61.59 -9.799 -4.216
0 0

0101101
*
Ed
 0.0002001 1 1 0
1  46 0 0 0.567440745805236
6  63 26 16
6  64 24 16
2  69 26 0 0 0.567440745805236
2  70 24 0 0 0.567440745805236
0

0101000
+67 16 -53 16 *
Ve
0.0002501
61.59 -9.865 -4.216
0 0

0101101
*
Ed
 0.0002501 1 1 0
1  47 0 0 0.0660000000000007
2  71 24 0 0 0.0660000000000007
2  72 28 0 0 0.0660000000000007
2  73 29 18 0 0.0660000000000007
2  74 30 18 0 0.0660000000000007
0

0101000
+53 16 -51 16 *
Ed
 0.0002501 1 1 0
1  47 0 0.0660000000000007 0.193000000000001
2  71 24 0 0.0660000000000007 0.193000000000001
2  72 28 0 0.0660000000000007 0.193000000000001
0

0101000
+51 16 -60 16 *
Wi

0101100
+52 15 +66 15 +50 15 +57 15 +49 15 *
Fa
0  5.01e-005 24 15

0111000
+48 0 *
Ve
5.01e-005
61.59 -9.799 -3.941
0 0

0101101
*
Ed
 1e-007 1 1 0
1  48 0 0 0.567440745805236
6  65 26 16
6  66 25 0
2  75 26 0 0 0.567440745805236
2  76 25 0 0 0.567440745805236
0

0101000
+65 16 -46 16 *
Ve
5.01e-005
61.59 -9.865 -3.941
0 0

0101101
*
Ed
 5.01e-005 1 1 0
1  49 0 0 0.0660000000000025
2  77 29 0 0 0.0660000000000025
2  78 31 0 0 0.0660000000000025
2  79 25 19 0 0.0660000000000025
2  80 28 19 0 0.0660000000000025
0

0101000
+44 20 -46 20 *
Ed
 5.01e-005 1 1 0
1  50 0 0.0660000000000007 0.193000000000001
2  81 25 0 0.0660000000000007 0.193000000000001
2  82 28 0 0.0660000000000007 0.193000000000001
0

0101000
+44 16 -59 16 *
Wi

0101100
+45 15 +64 15 -43 17 +56 15 +42 15 *
Fa
0  1e-007 25 15

0111000
+41 0 *
Ed
 5.01e-005 1 1 0
1  51 0 0 0.275
6  67 26 16
6  68 27 16
2  83 26 0 0 0.275
2  84 28 0 0 0.275
2  85 29 18 0 0.275
0

0101000
+53 16 -46 16 *
Wi

0101100
+63 15 -52 15 +45 15 -39 15 *
Fa
0  1e-007 26 15

0111000
+38 0 *
Ed
 5.01e-005 1 1 0
1  52 0 0 0.275
6  69 28 20
6  70 29 20
2  86 29 0 0 0.275
2  87 32 0 0 0.275
2  88 28 19 0 0.275
0

0101000
+51 20 -44 20 *
Wi

0101100
-49 15 -58 15 +42 15 +36 17 *
Fa
0  5.01e-005 28 15

0111000
+35 0 *
Ve
0.0002001
61.59 -9.75 -4.216
0 0

0101101
*
Ve
0.0001501
61.84 -9.75 -4.216
0 0

0101101
*
Ed
 0.0001501 1 1 0
1  53 0 0 0.25
6  71 30 20
6  72 31 20
2  89 30 0 0 0.25
0

0101000
+33 20 -32 20 *
Ed
 0.0002001 1 1 0
1  54 0 0.0660000000000025 0.115
2  90 29 0 0.0660000000000025 0.115
2  91 30 0 0.0660000000000025 0.115
0

0101000
+53 20 -33 20 *
Ve
0.0001501
61.84 -9.865 -4.216
0 0

0101101
*
Ed
 0.0001501 1 1 0
1  55 0 8.135 8.25
6  73 31 10
6  74 32 10
2  92 30 21 8.135 8.25
0

0101000
+29 10 -32 10 *
Ed
 0.0001501 1 1 0
1  56 0 0 0.25
6  75 31 20
6  76 29 20
2  93 30 0 0 0.25
2  94 32 0 0 0.25
0

0101000
+29 20 -51 20 *
Wi

0101100
+31 17 +30 17 -28 8 -50 15 +27 17 *
Fa
0  5.01e-005 30 17

0111000
+26 0 *
Ve
5.01e-005
61.59 -9.75 -3.941
0 0

0101101
*
Ve
0.0001501
61.84 -9.75 -3.941
0 0

0101101
*
Ed
 1e-007 1 1 0
1  57 0 0 0.25
6  77 30 20
6  78 33 20
2  95 31 0 0 0.25
0

0101000
+24 20 -23 20 *
Ed
 5.01e-005 1 1 0
1  49 0 0.0660000000000025 0.115
2  77 29 0 0.0660000000000025 0.115
2  78 31 0 0.0660000000000025 0.115
0

0101000
+46 20 -24 20 *
Ve
0.0001501
61.84 -9.865 -3.941
0 0

0101101
*
Ed
 0.0001501 1 1 0
1  58 0 0 0.115
6  79 33 20
6  80 32 20
2  96 31 0 0 0.115
0

0101000
+23 20 -20 20 *
Ed
 1e-007 1 1 0
1  59 0 0 0.25
6  81 33 20
6  82 29 20
2  97 31 0 0 0.25
2  98 32 0 0 0.25
0

0101000
+20 20 -44 20 *
Wi

0101100
+22 17 +21 17 +19 17 +43 17 +18 17 *
Fa
0  1e-007 31 17

0111000
+17 0 *
Ed
 5.01e-005 1 1 0
1  60 0 0 0.275
6  83 30 20
6  84 28 20
2  99 29 0 0 0.275
0

0101000
+33 20 -24 20 *
Wi

0101100
-30 17 -15 17 +21 17 +39 15 *
Fa
0  5.01e-005 29 17

0111000
+14 0 *
Ed
 0.0001501 1 1 0
1  61 0 0 0.275
6  85 32 20
6  86 29 20
2  100 32 0 0 0.275
0

0101000
+29 20 -20 20 *
Wi

0101100
+12 17 -27 17 +18 17 -36 17 *
Fa
0  1e-007 32 17

0111000
+11 0 *
Ed
 0.0001501 1 1 0
1  62 0 0 0.275
6  87 30 20
6  88 32 20
0

0101000
+32 20 -23 20 *
Wi

0101100
+15 17 -31 17 +22 17 -9 17 *
Fa
0  1e-007 33 17
2  30
0111000
+8 0 *
Wi

0101100
+9 17 +28 8 +19 17 -12 17 *
Fa
0  5.01e-005 34 17
2  32
0111000
+6 0 *
Sh

0101100
+61 0 +54 0 +47 0 -40 0 +37 0 +34 0 +25 0 -16 0 +13 0 +10 0 
+7 0 +5 0 *
So

0100000
+4 0 *
Co

0100000
+71 0 +3 0 *
Co

1100000
+146 0 +2 0 *

+1 0 
0

