DBRep_DrawableShape

CASCADE Topology V1, (c) Matra-Datavision
Locations 0
Curve2ds 8
1 0.97266459457948073 -4.0273354054205193 1 0 
1 0.97266459457947896 4.0273354054205184 1 0 
1 -4.0273354054205193 0.97266459457948073 0 1 
1 -4.0273354054205184 0.97266459457947896 0 1 
1 -4.027335405420521 -0.97266459457948162 0 -1 
1 4.027335405420521 -0.97266459457947985 0 -1 
1 -0.97266459457947896 4.0273354054205202 -1 0 
1 0.97266459457948162 -4.027335405420521 1 0 
Curves 6
1 5 0 0 1 0 0 
2 0 0 0 0 0 1 1 0 -0 -0 1 0 5
2 0 0 0 0 0 1 1 0 -0 -0 1 0 8
1 0 5 0 0 1 0 
1 0 -5 0 0 -1 0 
1 -5 0 0 -1 0 0 
Polygon3D 0
PolygonOnTriangulations 16
2 1 2 
p 0.0640000008 1 0 3 
2 3 12 
p 0.0640000008 1 0 3 
10 1 4 5 6 7 8 9 10 11 3 
p 0.0640000008 1 0 0.174532925199433 0.349065850398866 0.523598775598299 0.698131700797732 0.872664625997165 1.0471975511966 1.22173047639603 1.39626340159546 1.5707963267949 
10 2 13 14 15 16 17 18 19 20 12 
p 0.0640000008 1 0 0.174532925199433 0.349065850398866 0.523598775598299 0.698131700797732 0.872664625997165 1.0471975511966 1.22173047639603 1.39626340159546 1.5707963267949 
2 3 12 
p 0.0640000008 1 0 3 
2 3 12 
p 0.0640000008 1 0 3 
2 1 2 
p 0.0640000008 1 0 3 
2 3 12 
p 0.0640000008 1 0 3 
10 1 4 5 6 7 8 9 10 11 3 
p 0.0640000008 1 4.71238898038469 4.88692190558412 5.06145483078356 5.23598775598299 5.41052068118242 5.58505360638185 5.75958653158129 5.93411945678072 6.10865238198015 6.28318530717959 
10 2 13 14 15 16 17 18 19 20 12 
p 0.0640000008 1 4.71238898038469 4.88692190558412 5.06145483078356 5.23598775598299 5.41052068118242 5.58505360638185 5.75958653158129 5.93411945678072 6.10865238198015 6.28318530717959 
2 1 2 
p 0.0640000008 1 0 3 
2 1 2 
p 0.0640000008 1 0 3 
10 1 4 5 6 7 8 9 10 11 3 
p 0.0640000008 1 3.14159265358979 3.31612557878923 3.49065850398866 3.66519142918809 3.83972435438752 4.01425727958696 4.18879020478639 4.36332312998582 4.53785605518526 4.71238898038469 
10 2 13 14 15 16 17 18 19 20 12 
p 0.0640000008 1 3.14159265358979 3.31612557878923 3.49065850398866 3.66519142918809 3.83972435438752 4.01425727958696 4.18879020478639 4.36332312998582 4.53785605518526 4.71238898038469 
10 3 4 5 6 7 8 9 10 11 1 
p 0.0640000008 1 1.5707963267949 1.74532925199433 1.91986217719376 2.0943951023932 2.26892802759263 2.44346095279206 2.61799387799149 2.79252680319093 2.96705972839036 3.14159265358979 
10 12 13 14 15 16 17 18 19 20 2 
p 0.0640000008 1 1.5707963267949 1.74532925199433 1.91986217719376 2.0943951023932 2.26892802759263 2.44346095279206 2.61799387799149 2.79252680319093 2.96705972839036 3.14159265358979 
Surfaces 4
1 4.0273354054205193 4.0273354054205193 0 0 0 1 1 0 -0 -0 1 0 
1 4.027335405420521 -4.0273354054205184 0 0 0 1 1 0 -0 -0 1 0 
1 -4.0273354054205184 4.027335405420521 0 -0 -0 -1 -1 0 0 0 1 -0 
1 -4.027335405420521 -4.0273354054205202 0 0 0 1 1 0 -0 -0 1 0 
Triangulations 4
20 18 1 4.44089209850063e-016
5 -6.12323386463351e-016 0 8 -9.79717427605784e-016 0 1.53080849893419e-016 5 0 4.92403876506104 0.868240888334652 0 4.69846310392954 1.71010071662834 0 4.33012701892219 2.5 0 3.83022221559489 3.2139380484327 0 3.2139380484327 3.83022221559489 0 2.5 4.33012701892219 0 1.71010071662834 4.69846310392954 0 0.868240888334652 4.92403876506104 0 2.44929359829471e-016 8 0 7.87846202409766 1.38918542133544 0 7.51754096628727 2.73616114660535 0 6.92820323027551 4 0 6.12835554495182 5.14230087749231 0 5.14230087749231 6.12835554495182 0 4 6.92820323027551 0 2.73616114660535 7.51754096628727 0 1.38918542133544 7.87846202409766 0 0.972664594579481 -4.02733540542052 3.97266459457948 -4.02733540542052 -4.02733540542052 0.972664594579481 0.896703359640521 -3.15909451708587 0.671127698509023 -2.31723468879218 0.302791613501674 -1.52733540542052 -0.197113189825629 -0.813397356987823 -0.813397356987823 -0.197113189825629 -1.52733540542052 0.302791613501674 -2.31723468879218 0.671127698509022 -3.15909451708587 0.896703359640521 -4.02733540542052 3.97266459457948 3.85112661867714 -2.63814998408508 3.49020556086675 -1.29117425881517 2.90086782485499 -0.0273354054205193 2.1010201395313 1.11496547207179 1.1149654720718 2.1010201395313 -0.0273354054205184 2.90086782485499 -1.29117425881517 3.49020556086675 -2.63814998408508 3.85112661867714 20 11 10 20 3 11 20 12 3 13 1 2 13 4 1 13 5 4 19 20 10 14 6 5 14 5 13 18 10 9 18 19 10 15 6 14 16 7 6 16 6 15 17 8 7 17 9 8 17 18 9 17 7 16 
20 18 1 7.21644966006352e-016
-4.59242549680257e-016 -5 0 -7.34788079488412e-016 -8 0 5 -6.12323386463351e-016 0 0.86824088833465 -4.92403876506104 0 1.71010071662834 -4.69846310392954 0 2.5 -4.3301270189222 0 3.21393804843269 -3.83022221559489 0 3.83022221559489 -3.2139380484327 0 4.33012701892219 -2.50000000000001 0 4.69846310392954 -1.71010071662835 0 4.92403876506104 -0.868240888334661 0 8 -9.79717427605784e-016 0 1.38918542133544 -7.87846202409767 0 2.73616114660535 -7.51754096628727 0 3.99999999999999 -6.92820323027551 0 5.14230087749231 -6.12835554495183 0 6.12835554495182 -5.14230087749232 0 6.9282032302755 -4.00000000000001 0 7.51754096628726 -2.73616114660536 0 7.87846202409766 -1.38918542133546 0 -4.02733540542052 -0.972664594579482 -4.02733540542052 -3.97266459457948 0.972664594579479 4.02733540542052 -3.15909451708587 -0.896703359640522 -2.31723468879218 -0.671127698509024 -1.52733540542052 -0.302791613501677 -0.813397356987828 0.197113189825624 -0.197113189825635 0.813397356987817 0.302791613501668 1.52733540542051 0.671127698509018 2.31723468879217 0.896703359640518 3.15909451708586 3.97266459457948 4.02733540542052 -2.63814998408508 -3.85112661867715 -1.29117425881518 -3.49020556086675 -0.0273354054205264 -2.90086782485499 1.11496547207179 -2.10102013953131 2.1010201395313 -1.1149654720718 2.90086782485498 0.0273354054205086 3.49020556086674 1.29117425881516 3.85112661867714 2.63814998408506 4 1 2 4 2 13 5 13 14 5 4 13 6 14 15 6 5 14 7 15 16 7 6 15 17 8 7 17 7 16 18 9 8 18 8 17 10 9 18 19 11 10 19 10 18 20 3 11 20 11 19 12 3 20 
20 18 1 4.44089209850063e-016
-5 3.06161699786838e-016 0 -8 4.89858719658941e-016 0 1.53080849893419e-016 5 0 -0.868240888334652 4.92403876506104 0 -1.71010071662834 4.69846310392954 0 -2.5 4.33012701892219 0 -3.21393804843269 3.83022221559489 0 -3.83022221559489 3.2139380484327 0 -4.33012701892219 2.5 0 -4.69846310392954 1.71010071662835 0 -4.92403876506104 0.868240888334658 0 2.44929359829471e-016 8 0 -1.38918542133544 7.87846202409766 0 -2.73616114660535 7.51754096628727 0 -4 6.92820323027551 0 -5.14230087749231 6.12835554495183 0 -6.12835554495182 5.14230087749232 0 -6.92820323027551 4.00000000000001 0 -7.51754096628726 2.73616114660536 0 -7.87846202409766 1.38918542133545 0 0.972664594579482 -4.02733540542052 3.97266459457948 -4.02733540542052 -4.02733540542052 0.972664594579479 -3.15909451708587 0.896703359640519 -2.31723468879217 0.671127698509022 -1.52733540542052 0.302791613501673 -0.813397356987823 -0.197113189825629 -0.197113189825631 -0.813397356987822 0.302791613501673 -1.52733540542052 0.671127698509022 -2.31723468879217 0.896703359640521 -3.15909451708586 -4.02733540542052 3.97266459457948 -2.63814998408508 3.85112661867714 -1.29117425881517 3.49020556086675 -0.0273354054205202 2.90086782485499 1.11496547207179 2.10102013953131 2.1010201395313 1.1149654720718 2.90086782485499 -0.0273354054205148 3.49020556086675 -1.29117425881516 3.85112661867714 -2.63814998408507 13 3 4 13 4 5 13 12 3 20 1 2 20 10 11 20 11 1 14 13 5 19 9 10 19 10 20 15 5 6 15 6 7 15 14 5 18 9 19 16 15 7 17 7 8 17 8 9 17 9 18 17 16 7 
20 18 1 4.44089209850063e-016
-5 3.06161699786838e-016 0 -8 4.89858719658941e-016 0 -4.59242549680257e-016 -5 0 -4.92403876506104 -0.86824088833465 0 -4.69846310392954 -1.71010071662834 0 -4.3301270189222 -2.5 0 -3.83022221559489 -3.21393804843269 0 -3.2139380484327 -3.83022221559489 0 -2.50000000000001 -4.33012701892219 0 -1.71010071662835 -4.69846310392954 0 -0.86824088833466 -4.92403876506104 0 -7.34788079488412e-016 -8 0 -7.87846202409767 -1.38918542133544 0 -7.51754096628727 -2.73616114660535 0 -6.92820323027551 -3.99999999999999 0 -6.12835554495183 -5.14230087749231 0 -5.14230087749232 -6.12835554495182 0 -4.00000000000001 -6.9282032302755 0 -2.73616114660536 -7.51754096628726 0 -1.38918542133546 -7.87846202409766 0 -0.972664594579479 4.02733540542052 -3.97266459457948 4.02733540542052 4.02733540542052 -0.97266459457948 -0.89670335964052 3.15909451708587 -0.671127698509022 2.31723468879218 -0.302791613501674 1.52733540542052 0.197113189825627 0.813397356987827 0.81339735698782 0.197113189825633 1.52733540542052 -0.302791613501669 2.31723468879217 -0.671127698509019 3.15909451708586 -0.896703359640519 4.02733540542052 -3.97266459457948 -3.85112661867714 2.63814998408508 -3.49020556086675 1.29117425881517 -2.90086782485499 0.0273354054205255 -2.10102013953131 -1.11496547207179 -1.1149654720718 -2.1010201395313 0.0273354054205122 -2.90086782485498 1.29117425881516 -3.49020556086674 2.63814998408506 -3.85112661867714 8 17 18 7 16 17 7 17 8 9 8 18 6 14 15 6 15 16 6 16 7 10 18 19 10 9 18 5 14 6 11 19 20 11 10 19 4 13 14 4 14 5 1 2 13 1 13 4 3 20 12 3 11 20 

TShapes 29
Ve
1.00000000612323e-007
5 -6.12323386463351e-016 0
0 0

0101101
*
Ve
1.00000000979717e-007
8 -9.79717427605784e-016 0
0 0

0101101
*
Ed
 1e-007 1 1 0
1  1 0 0 3
2  1 1 0 0 3
2  2 2 0 0 3
6  1 1 0
6  2 2 0
0

0101000
+29 0 -28 0 *
Ve
1.00000000153081e-007
1.53080849893419e-016 5 0
0 0

0101101
*
Ed
 1e-007 1 1 0
1  2 0 0 1.5707963267949
6  3 1 0
0

0101000
+29 0 -26 0 *
Ve
1.00000000244929e-007
2.44929359829471e-016 8 0
0 0

0101101
*
Ed
 1e-007 1 1 0
1  3 0 0 1.5707963267949
6  4 1 0
0

0101000
+28 0 -24 0 *
Ed
 1e-007 1 1 0
1  4 0 0 3
2  3 1 0 0 3
2  4 3 0 0 3
6  5 1 0
6  6 3 0
0

0101000
+26 0 -24 0 *
Wi

0101100
+27 0 -25 0 +23 0 -22 0 *
Fa
0  1e-007 1 0
2  1
0101000
+21 0 *
Ve
1.00000000459243e-007
-4.59242549680257e-016 -5 0
0 0

0101101
*
Ve
1.00000000734788e-007
-7.34788079488412e-016 -8 0
0 0

0101101
*
Ed
 1e-007 1 1 0
1  5 0 0 3
2  5 2 0 0 3
2  6 4 0 0 3
6  7 2 0
6  8 4 0
0

0101000
+19 0 -18 0 *
Ed
 1e-007 1 1 0
1  2 0 4.71238898038469 6.28318530717959
6  9 2 0
0

0101000
+19 0 -29 0 *
Ed
 1e-007 1 1 0
1  3 0 4.71238898038469 6.28318530717959
6  10 2 0
0

0101000
+18 0 -28 0 *
Wi

0101100
+17 0 -16 0 +15 0 -27 0 *
Fa
0  1e-007 2 0
2  2
0101000
+14 0 *
Ve
1.00000000306162e-007
-5 3.06161699786838e-016 0
0 0

0101101
*
Ve
1.00000000489859e-007
-8 4.89858719658941e-016 0
0 0

0101101
*
Ed
 1e-007 1 1 0
1  6 0 0 3
2  7 4 0 0 3
2  8 3 0 0 3
6  11 4 0
6  12 3 0
0

0101000
+12 0 -11 0 *
Ed
 1e-007 1 1 0
1  2 0 3.14159265358979 4.71238898038469
6  13 4 0
0

0101000
+12 0 -19 0 *
Ed
 1e-007 1 1 0
1  3 0 3.14159265358979 4.71238898038469
6  14 4 0
0

0101000
+11 0 -18 0 *
Wi

0101100
+10 0 -9 0 +8 0 -17 0 *
Fa
0  1e-007 4 0
2  4
0101000
+7 0 *
Ed
 1e-007 1 1 0
1  2 0 1.5707963267949 3.14159265358979
6  15 3 0
0

0101000
+26 0 -12 0 *
Ed
 1e-007 1 1 0
1  3 0 1.5707963267949 3.14159265358979
6  16 3 0
0

0101000
+24 0 -11 0 *
Wi

0101100
+10 0 +5 0 -4 0 -22 0 *
Fa
0  1e-007 3 0
2  3
0101000
+3 0 *
Sh

0101000
+20 0 +13 0 +6 0 -2 0 *

+1 0 
0

