DBRep_DrawableShape

CASCADE Topology V1, (c) Matra-Datavision
Locations 0
Curve2ds 14
1 0 30.5 1 0 
2 0 0 1 0 -0 1 37.0015
1 6.2831853071795862 -0 0 1 
1 0 -0 0 1 
1 0 0 1 0 
2 0 0 1 0 -0 1 37.0015
1 0 30.5 1 0 
2 0 0 1 0 -0 1 24.999500000000001
2 0 0 1 0 -0 1 24.999500000000001
1 0 0 1 0 
2 0 0 1 0 -0 1 24.999500000000001
2 0 0 1 0 -0 1 24.999500000000001
1 6.2831853071795862 -0 0 1 
1 0 -0 0 1 
Curves 6
2 0 0 40 0 0 1 1 0 -0 -0 1 0 37.0015
1 37.0015 -9.0627537077301578e-015 9.5 0 0 1 
2 0 0 9.5 0 0 1 1 0 -0 -0 1 0 37.0015
2 0 0 40 0 0 1 1 0 -0 -0 1 0 24.999500000000001
2 0 0 9.5 0 0 1 1 0 -0 -0 1 0 24.999500000000001
1 24.999500000000001 -6.1231115310568519e-015 9.5 0 0 1 
Polygon3D 0
PolygonOnTriangulations 0
Surfaces 6
2 0 0 9.5 0 0 1 1 0 -0 -0 1 0 37.0015
1 0 0 40 0 0 1 1 0 -0 -0 1 0 
1 0 0 9.5 0 0 1 1 0 -0 -0 1 0 
2 0 0 9.5 0 0 1 1 0 -0 -0 1 0 24.999500000000001
1 0 0 40 0 0 1 1 0 -0 -0 1 0 
1 0 0 9.5 0 0 1 1 0 -0 -0 1 0 
Triangulations 0

TShapes 23
Ve
1e-007
37.0015 -9.06275370773016e-015 40
0 0

0101101
*
Ed
 1e-007 1 1 0
1  1 0 0 6.28318530717959
2  1 1 0 0 6.28318530717959
2  2 2 0 0 6.28318530717959
0

0101100
+23 0 -23 0 *
Ve
1e-007
37.0015 -9.06275370773016e-015 9.5
0 0

0101101
*
Ed
 1e-007 1 1 0
1  2 0 0 30.5
3  3 4CN 1 0 0 30.5
0

0101000
-23 0 +21 0 *
Ed
 1e-007 1 1 0
1  3 0 0 6.28318530717959
2  5 1 0 0 6.28318530717959
2  6 3 0 0 6.28318530717959
0

0101100
+21 0 -21 0 *
Wi

0101000
-22 0 +20 0 +19 0 -20 0 *
Fa
0  1e-007 1 0

0111000
+18 0 *
Wi

0101000
+22 0 *
Ve
1e-007
24.9995 -6.12311153105685e-015 40
0 0

0101101
*
Ed
 1e-007 1 1 0
1  4 0 0 6.28318530717959
2  7 4 0 0 6.28318530717959
2  8 5 0 0 6.28318530717959
2  9 2 0 0 6.28318530717959
0

0101100
+15 0 -15 0 *
Wi

0101000
-14 0 *
Fa
0  1e-007 2 0

0111000
+16 0 +13 0 *
Wi

0101000
+19 0 *
Ve
1e-007
24.9995 -6.12311153105685e-015 9.5
0 0

0101101
*
Ed
 1e-007 1 1 0
1  5 0 0 6.28318530717959
2  10 4 0 0 6.28318530717959
2  11 6 0 0 6.28318530717959
2  12 3 0 0 6.28318530717959
0

0101100
+10 0 -10 0 *
Wi

0101000
-9 0 *
Fa
0  1e-007 3 0

0111000
+11 0 +8 0 *
Ed
 1e-007 1 1 0
1  6 0 0 30.5
3  13 14CN 4 0 0 30.5
0

0101000
-15 0 +10 0 *
Wi

0101000
+6 0 +9 0 -6 0 -14 0 *
Fa
0  1e-007 4 0

0111000
+5 0 *
Sh

0101000
+17 0 +12 0 -7 0 -4 0 *
So

0100000
+3 0 *
Co

1100000
+2 0 *

+1 0 