DBRep_DrawableShape

CASCADE Topology V1, (c) Matra-Datavision
Locations 0
Curve2ds 27
1 0 1.2984587118981703 1 0 
1 0 6.2831853071795862 1 0 
1 0 5.4995511287821 1 0 
1 0 41.765407073826161 1 0 
7 0 0  3 172 170  34.733581543 -120.55317688  34.732539539742518 -119.35009523080616  34.730759087766749 -116.94466682247685  34.728982504821474 -113.33908605813697  34.72811939362763 -109.7400869364304  34.728058281205321 -106.15204097712176  34.729564003027022 -102.57929208274547  34.731752439901783 -99.026148174835456  34.734746152053411 -95.496863792894843  34.738792670683289 -91.995642990875567  34.743877847623985 -88.526618869936684  34.748847699947035 -85.09384143819598  34.754163466016138 -81.701274388068285  34.758075985018749 -78.352783764107045  34.760657189525141 -75.052129467875659  34.762768205082921 -71.802958306370826  34.761158422648336 -68.608778857729263  34.757295829447926 -65.472982295726581  34.753355451186181 -62.398799577505677  34.741289740522696 -59.389344413664489  34.734428160567283 -56.447531141598304  34.720590785759612 -53.576085472575926  34.740750285986948 -50.777788498955125  34.744469642468985 -48.054488309047542  34.836792182449997 -45.410735610184595  34.875137424124595 -42.844420369035383  35.067292708752468 -40.367464836387761  35.150103432821716 -37.965306646699084  35.486258716156982 -35.672062929253713  35.657062342614921 -33.443861865830776  36.168771886617407 -31.358027999765223  36.57679448550374 -29.345606272319912  37.141629734001278 -27.458126539747326  37.844701472282601 -25.717582420671871  38.408556700064828 -24.015113076148726  39.197182942470597 -22.50409563934091  39.919640018257496 -21.064368517960759  40.569512819560551 -19.683815993481513  41.324531946211977 -18.459978417950911  42.021248465633541 -17.303926219985041  42.68135277337462 -16.225506539333509  43.281217634918136 -15.207262922239183  43.94063425874922 -14.328015771624637  44.527789934734528 -13.497626363277384  45.073260904082623 -12.734095996919162  45.578927019580227 -12.036966263868374  46.020821119383271 -11.38481443693099  46.487870172090858 -10.842728148877507  46.896814180178545 -10.343645005523376  47.266482231027005 -9.898243140792685  47.594863095390735 -9.5012993599182902  47.884841220279348 -9.151069598089812  48.138303749395206 -8.8448700131790261  48.357481263799073 -8.5801073760844488  48.544622927151188 -8.3540419071178906  48.702071430915232 -8.1638523600979926  48.832216242001536 -8.0066098324521384  48.937602784982147 -7.8793857839168115  49.020565435927203 -7.7789589089205879  49.087832375875486 -7.6982365310302123  49.155146674285113 -7.6149620748007054  49.249255329990021 -7.513993618519307  49.381790626239848 -7.3728319015267418  49.55841622706167 -7.1842678716980828  49.785183377971833 -6.9423614735336372  50.06752697631611 -6.6410581211380011  50.410782584550525 -6.2749596396335416  50.819274068292991 -5.8384417531810788  51.299670403686612 -5.3289880294901799  51.845400672161269 -4.7322629421746658  52.508001316489036 -4.0909432148968214  53.258852107461379 -3.3720295261076925  54.100499986558027 -2.5721765589780947  55.013469986363006 -1.665919226432645  56.100624979240763 -0.76303308643487822  57.258388234746164 0.25195683570995026  58.529506441726809 1.3337570689742748  59.961230634700158 2.4196370914976324  61.455961921225857 3.6328140338791384  63.151873437762326 4.7852536197134867  64.904235140631911 6.0697759975767038  66.84882934582518 7.283473246768521  68.876369956242016 8.579228737630805  71.05238361224221 9.8445875712948308  73.352950385407681 11.100407111816718  75.752885500035347 12.380639393268044  78.292537446812176 13.587451043505396  80.931301225074563 14.77873407105514  83.665026500252836 15.943954835083737  86.494955642033702 17.053595084270096  89.412488930473728 18.096589266352808  92.393766760148935 19.106831645341167  95.432144117914802 20.071983462409992  98.515545081487588 20.994335858897202  101.63677779341795 21.85849801755959  104.77620112444598 22.694062687327502  107.92540620211369 23.492054870473549  111.07218070930709 24.257688491569404  114.20802992326641 24.98152662272296  117.32073016707575 25.670200600665229  120.39813812248116 26.332497577785087  123.43017902861008 26.96953152096237  126.40744511871982 27.580808297498589  129.31968452936198 28.171941737954413  132.15699217992292 28.749286673599446  134.91227117896568 29.307846134707088  137.57581336800962 29.85796533059569  140.14374451586392 30.38436653947668  142.608397329583 30.893460152899621  144.96767666839645 31.367559381319364  147.21295919453627 31.824772785902255  149.34602306934528 32.234541912834175  151.35682237519268 32.630393231225653  153.24953291788461 32.976314075064089  155.01588369124931 33.305979615582984  156.65670137043247 33.609292045490093  158.17107557297751 33.889635931831968  159.5596174108002 34.147116485768514  160.81979436894085 34.40170139054721  161.95847008560045 34.629161465642191  162.97928057462005 34.826525135526104  163.87974085409755 35.024323852964685  164.66771399896101 35.205233147298856  165.3505884796279 35.360320393994797  165.93349586302224 35.493057757535105  166.42282695639699 35.604433814312756  166.82546893368777 35.696022463193884  167.1487217230347 35.769755549094533  167.40076409040128 35.826703609945127  167.58766014870275 35.877578610395595  167.72115244553231 35.912500343559309  167.81730558068736 35.937870042003688  167.90569598543897 35.961154632815621  168.01489211273213 35.989931010856644  168.16486669382209 36.029444756981761  168.36175509770118 36.081327859289743  168.61146528229901 36.147125827721801  168.91963273430099 36.228323549000486  169.29158628863749 36.326349762890182  169.73237094696134 36.442406561521288  170.24646168120711 36.578287032553597  170.83892121559936 36.732482830982633  171.50676191967514 36.93055832176934  172.26102428845559 37.146171063369771  173.10191344348669 37.390083623510897  174.03423742858539 37.655156978386074  175.05336274323113 37.964862081749608  176.16694392612533 38.298964224153544  177.37471649203886 38.66250521127256  178.67752930760673 39.054840128550453  180.0752746894789 39.476741530948409  181.56901940453693 39.923297014521232  183.1575879626769 40.395182461623882  184.8394184905525 40.892718895807064  186.61332150205774 41.413101089379971  188.4767007586133 41.956591550704772  190.42652296766894 42.52323051218869  192.46066323518539 43.108238153231056  194.57392054276659 43.715858943841013  196.7636194216316 44.340022448584435  199.0244879225769 44.982274855074159  201.35159272093625 45.64157466575454  203.74005704464383 46.315350044867358  206.18404637971466 47.003190992453163  208.67756009545747 47.70427962324132  211.21453818853607 48.416952921522665  213.78851859699301 49.140124170293419  216.39270195459844 49.873105440904858  219.02039743269268 50.614309529894953  221.66475583136582 51.362204165848794  223.43227185758437 51.863503279521375  224.31765747099999 52.114994049000003 
 0 4 0.074556696860862581 1 0.1490678354695128 1 0.22344295721162025 1 0.29759176108692048 1 0.37142410657675684 1 0.44485126758520299 1 0.51778514888417071 1 0.59013892060096929 1 0.66182700678057427 1 0.73276570337687674 1 0.80287321000232614 1 0.87206943554847283 1 0.94027653020080793 1 1.0074194843669637 1 1.0734251850831305 1 1.1382243234298626 1 1.201749387604137 1 1.2639367327431998 1 1.3247256250268988 1 1.3840591148344179 1 1.4418826615572682 1 1.4981478631783849 1 1.5528063132137659 1 1.6058184660288939 1 1.6571448298911711 1 1.7067507447286758 1 1.754607294289138 1 1.8006885789357292 1 1.8449422288153494 1 1.8874128733429565 1 1.9279638831959962 1 1.9667739079997721 1 2.003745802406105 1 2.0388619654374405 1 2.0721648687672007 1 2.1036457896763481 1 2.1333059716983991 1 2.1611899626912021 1 2.1873076928972313 1 2.2116789117620428 1 2.2343500606700744 1 2.255349338094101 1 2.2747163422240528 1 2.2924947704642862 1 2.3087320919491074 1 2.3234780541845899 1 2.3367904717713368 1 2.3487261229655636 1 2.3593465584551696 1 2.3687166281627157 1 2.3769041587186202 1 2.3839798415508007 1 2.3900169513065368 1 2.3950912196886454 1 2.3992809027716788 1 2.4026662167782886 1 2.4053291892678392 1 2.4073533023636671 1 2.4091782978019305 1 2.4119630248648245 1 2.4159021427968348 1 2.4211798774463342 1 2.4279734608929493 1 2.4364506612688221 1 2.4467688701185915 1 2.4590738987348355 1 2.4734991804859741 1 2.4901652139496826 1 2.5091725585135194 1 2.5306241912713583 1 2.5545907819308047 1 2.5811328877083839 1 2.6102953419805424 1 2.6421060756305481 1 2.676568088776456 1 2.7136933477177565 1 2.7534498453023564 1 2.7958020163800592 1 2.8406913573442965 1 2.8880526663828037 1 2.9377872633825537 1 2.9898131591172676 1 3.0439947770284572 1 3.1002203670644217 1 3.1583454653099867 1 3.2182021261073177 1 3.2796385509889143 1 3.3424843966603883 1 3.4065449032973323 1 3.4716305064174882 1 3.5375492093654373 1 3.6040980642532272 1 3.6710665602789181 1 3.7382443282151545 1 3.8054226677630254 1 3.8723910806425414 1 3.9389399182627578 1 4.0048613976120802 1 4.0699527203691295 1 4.1340169819367292 1 4.1968628574916726 1 4.2583064005957958 1 4.3181730047119942 1 4.376298141755437 1 4.4325280251837418 1 4.4867200785224428 1 4.538745765780428 1 4.5884898667327363 1 4.6358508474945532 1 4.6807431057310271 1 4.7230950186956555 1 4.7628528912462533 1 4.7999780777628551 1 4.834448766592943 1 4.8662591254069421 1 4.8954211788588324 1 4.9219635203577683 1 4.9459299876787641 1 4.967381624657885 1 4.9863928435522533 1 5.0030590250000984 1 5.0174843569693293 1 5.0297890819314945 1 5.0401073401101515 1 5.0485846233429248 1 5.0553783372406151 1 5.0606554741825578 1 5.0645947119664108 1 5.0673803927644396 1 5.0692067460325143 1 5.0707573492742428 1 5.0730449504774775 1 5.0762048156279844 1 5.0803686571140423 1 5.0856629290145925 1 5.0922079127593456 1 5.1001180219415119 1 5.1095005026745959 1 5.12045478400539 1 5.1330717123605298 1 5.1474357435366001 1 5.1636194650971001 1 5.1816875189813754 1 5.2016946970695388 1 5.2236852887774594 1 5.2476941383624167 1 5.273744441111158 1 5.3018496488368765 1 5.3320128482523907 1 5.3642246227805312 1 5.3984670330759945 1 5.434710253847479 1 5.4729150091622376 1 5.5130307726001258 1 5.5549980931472254 1 5.5987471821900527 1 5.6441988804421142 1 5.6912655654782043 1 5.73985098833945 1 5.7898516764863182 1 5.8411555776499737 1 5.8936441737656304 1 5.9471932837766284 1 6.0016739268083166 1 6.056949852925845 1 6.1128825400106646 1 6.1693295837472713 1 6.2261461781936154 1 6.283185307179588 4
1 6.2831853071795862 0 0 1 
1 0 0 0 1 
1 0 49.765407073826161 1 0 
2 0 0 -1 0 0 1 187.821609497
1 187.821609497 0 0 1 
1 6.2831853071795862 0 0 1 
1 0 0 0 1 
2 0 0 -1 0 0 1 20
1 0 49.765407073826161 1 0 
1 0 -57.695600986000002 1 0 
1 0 6.2831853071795862 1 0 
1 20 0 0 1 
1 6.2831853071795862 0 0 1 
1 0 0 0 1 
1 0 4.7123889803846897 1 0 
3 0 -57.695600986000002 1 0 -0 1 20 5.2628212757772275
1 6.2831853071795862 0 0 1 
1 0 0 0 1 
1 0 4.7123889803846897 1 0 
3 0 -57.695600986000002 1 0 -0 1 34.737178724222773 20
1 6.2831853071795862 0 0 1 
1 0 0 0 1 
Curves 10
2 0 0 -57.695600986000009 0 0 1 0 1 0 -1 0 0 34.737178724222773
2 0 0 41.765407073826161 0 0 1 0 1 0 -1 0 0 187.821609497
7 0 0  3 172 170  0 34.733581543 -120.55317688  0 34.732539539742518 -119.35009523080616  0 34.730759087766749 -116.94466682247685  0 34.728982504821474 -113.33908605813697  0 34.72811939362763 -109.7400869364304  0 34.728058281205321 -106.15204097712176  0 34.729564003027022 -102.57929208274547  0 34.731752439901783 -99.026148174835456  0 34.734746152053411 -95.496863792894843  0 34.738792670683289 -91.995642990875567  0 34.743877847623985 -88.526618869936684  0 34.748847699947035 -85.09384143819598  0 34.754163466016138 -81.701274388068285  0 34.758075985018749 -78.352783764107045  0 34.760657189525141 -75.052129467875659  0 34.762768205082921 -71.802958306370826  0 34.761158422648336 -68.608778857729263  0 34.757295829447926 -65.472982295726581  0 34.753355451186181 -62.398799577505677  0 34.741289740522696 -59.389344413664489  0 34.734428160567283 -56.447531141598304  0 34.720590785759612 -53.576085472575926  0 34.740750285986948 -50.777788498955125  0 34.744469642468985 -48.054488309047542  0 34.836792182449997 -45.410735610184595  0 34.875137424124595 -42.844420369035383  0 35.067292708752468 -40.367464836387761  0 35.150103432821716 -37.965306646699084  0 35.486258716156982 -35.672062929253713  0 35.657062342614921 -33.443861865830776  0 36.168771886617407 -31.358027999765223  0 36.57679448550374 -29.345606272319912  0 37.141629734001278 -27.458126539747326  0 37.844701472282601 -25.717582420671871  0 38.408556700064828 -24.015113076148726  0 39.197182942470597 -22.50409563934091  0 39.919640018257496 -21.064368517960759  0 40.569512819560551 -19.683815993481513  0 41.324531946211977 -18.459978417950911  0 42.021248465633541 -17.303926219985041  0 42.68135277337462 -16.225506539333509  0 43.281217634918136 -15.207262922239183  0 43.94063425874922 -14.328015771624637  0 44.527789934734528 -13.497626363277384  0 45.073260904082623 -12.734095996919162  0 45.578927019580227 -12.036966263868374  0 46.020821119383271 -11.38481443693099  0 46.487870172090858 -10.842728148877507  0 46.896814180178545 -10.343645005523376  0 47.266482231027005 -9.898243140792685  0 47.594863095390735 -9.5012993599182902  0 47.884841220279348 -9.151069598089812  0 48.138303749395206 -8.8448700131790261  0 48.357481263799073 -8.5801073760844488  0 48.544622927151188 -8.3540419071178906  0 48.702071430915232 -8.1638523600979926  0 48.832216242001536 -8.0066098324521384  0 48.937602784982147 -7.8793857839168115  0 49.020565435927203 -7.7789589089205879  0 49.087832375875486 -7.6982365310302123  0 49.155146674285113 -7.6149620748007054  0 49.249255329990021 -7.513993618519307  0 49.381790626239848 -7.3728319015267418  0 49.55841622706167 -7.1842678716980828  0 49.785183377971833 -6.9423614735336372  0 50.06752697631611 -6.6410581211380011  0 50.410782584550525 -6.2749596396335416  0 50.819274068292991 -5.8384417531810788  0 51.299670403686612 -5.3289880294901799  0 51.845400672161269 -4.7322629421746658  0 52.508001316489036 -4.0909432148968214  0 53.258852107461379 -3.3720295261076925  0 54.100499986558027 -2.5721765589780947  0 55.013469986363006 -1.665919226432645  0 56.100624979240763 -0.76303308643487822  0 57.258388234746164 0.25195683570995026  0 58.529506441726809 1.3337570689742748  0 59.961230634700158 2.4196370914976324  0 61.455961921225857 3.6328140338791384  0 63.151873437762326 4.7852536197134867  0 64.904235140631911 6.0697759975767038  0 66.84882934582518 7.283473246768521  0 68.876369956242016 8.579228737630805  0 71.05238361224221 9.8445875712948308  0 73.352950385407681 11.100407111816718  0 75.752885500035347 12.380639393268044  0 78.292537446812176 13.587451043505396  0 80.931301225074563 14.77873407105514  0 83.665026500252836 15.943954835083737  0 86.494955642033702 17.053595084270096  0 89.412488930473728 18.096589266352808  0 92.393766760148935 19.106831645341167  0 95.432144117914802 20.071983462409992  0 98.515545081487588 20.994335858897202  0 101.63677779341795 21.85849801755959  0 104.77620112444598 22.694062687327502  0 107.92540620211369 23.492054870473549  0 111.07218070930709 24.257688491569404  0 114.20802992326641 24.98152662272296  0 117.32073016707575 25.670200600665229  0 120.39813812248116 26.332497577785087  0 123.43017902861008 26.96953152096237  0 126.40744511871982 27.580808297498589  0 129.31968452936198 28.171941737954413  0 132.15699217992292 28.749286673599446  0 134.91227117896568 29.307846134707088  0 137.57581336800962 29.85796533059569  0 140.14374451586392 30.38436653947668  0 142.608397329583 30.893460152899621  0 144.96767666839645 31.367559381319364  0 147.21295919453627 31.824772785902255  0 149.34602306934528 32.234541912834175  0 151.35682237519268 32.630393231225653  0 153.24953291788461 32.976314075064089  0 155.01588369124931 33.305979615582984  0 156.65670137043247 33.609292045490093  0 158.17107557297751 33.889635931831968  0 159.5596174108002 34.147116485768514  0 160.81979436894085 34.40170139054721  0 161.95847008560045 34.629161465642191  0 162.97928057462005 34.826525135526104  0 163.87974085409755 35.024323852964685  0 164.66771399896101 35.205233147298856  0 165.3505884796279 35.360320393994797  0 165.93349586302224 35.493057757535105  0 166.42282695639699 35.604433814312756  0 166.82546893368777 35.696022463193884  0 167.1487217230347 35.769755549094533  0 167.40076409040128 35.826703609945127  0 167.58766014870275 35.877578610395595  0 167.72115244553231 35.912500343559309  0 167.81730558068736 35.937870042003688  0 167.90569598543897 35.961154632815621  0 168.01489211273213 35.989931010856644  0 168.16486669382209 36.029444756981761  0 168.36175509770118 36.081327859289743  0 168.61146528229901 36.147125827721801  0 168.91963273430099 36.228323549000486  0 169.29158628863749 36.326349762890182  0 169.73237094696134 36.442406561521288  0 170.24646168120711 36.578287032553597  0 170.83892121559936 36.732482830982633  0 171.50676191967514 36.93055832176934  0 172.26102428845559 37.146171063369771  0 173.10191344348669 37.390083623510897  0 174.03423742858539 37.655156978386074  0 175.05336274323113 37.964862081749608  0 176.16694392612533 38.298964224153544  0 177.37471649203886 38.66250521127256  0 178.67752930760673 39.054840128550453  0 180.0752746894789 39.476741530948409  0 181.56901940453693 39.923297014521232  0 183.1575879626769 40.395182461623882  0 184.8394184905525 40.892718895807064  0 186.61332150205774 41.413101089379971  0 188.4767007586133 41.956591550704772  0 190.42652296766894 42.52323051218869  0 192.46066323518539 43.108238153231056  0 194.57392054276659 43.715858943841013  0 196.7636194216316 44.340022448584435  0 199.0244879225769 44.982274855074159  0 201.35159272093625 45.64157466575454  0 203.74005704464383 46.315350044867358  0 206.18404637971466 47.003190992453163  0 208.67756009545747 47.70427962324132  0 211.21453818853607 48.416952921522665  0 213.78851859699301 49.140124170293419  0 216.39270195459844 49.873105440904858  0 219.02039743269268 50.614309529894953  0 221.66475583136582 51.362204165848794  0 223.43227185758437 51.863503279521375  0 224.31765747099999 52.114994049000003 
 0 4 0.074556696860862581 1 0.1490678354695128 1 0.22344295721162025 1 0.29759176108692048 1 0.37142410657675684 1 0.44485126758520299 1 0.51778514888417071 1 0.59013892060096929 1 0.66182700678057427 1 0.73276570337687674 1 0.80287321000232614 1 0.87206943554847283 1 0.94027653020080793 1 1.0074194843669637 1 1.0734251850831305 1 1.1382243234298626 1 1.201749387604137 1 1.2639367327431998 1 1.3247256250268988 1 1.3840591148344179 1 1.4418826615572682 1 1.4981478631783849 1 1.5528063132137659 1 1.6058184660288939 1 1.6571448298911711 1 1.7067507447286758 1 1.754607294289138 1 1.8006885789357292 1 1.8449422288153494 1 1.8874128733429565 1 1.9279638831959962 1 1.9667739079997721 1 2.003745802406105 1 2.0388619654374405 1 2.0721648687672007 1 2.1036457896763481 1 2.1333059716983991 1 2.1611899626912021 1 2.1873076928972313 1 2.2116789117620428 1 2.2343500606700744 1 2.255349338094101 1 2.2747163422240528 1 2.2924947704642862 1 2.3087320919491074 1 2.3234780541845899 1 2.3367904717713368 1 2.3487261229655636 1 2.3593465584551696 1 2.3687166281627157 1 2.3769041587186202 1 2.3839798415508007 1 2.3900169513065368 1 2.3950912196886454 1 2.3992809027716788 1 2.4026662167782886 1 2.4053291892678392 1 2.4073533023636671 1 2.4091782978019305 1 2.4119630248648245 1 2.4159021427968348 1 2.4211798774463342 1 2.4279734608929493 1 2.4364506612688221 1 2.4467688701185915 1 2.4590738987348355 1 2.4734991804859741 1 2.4901652139496826 1 2.5091725585135194 1 2.5306241912713583 1 2.5545907819308047 1 2.5811328877083839 1 2.6102953419805424 1 2.6421060756305481 1 2.676568088776456 1 2.7136933477177565 1 2.7534498453023564 1 2.7958020163800592 1 2.8406913573442965 1 2.8880526663828037 1 2.9377872633825537 1 2.9898131591172676 1 3.0439947770284572 1 3.1002203670644217 1 3.1583454653099867 1 3.2182021261073177 1 3.2796385509889143 1 3.3424843966603883 1 3.4065449032973323 1 3.4716305064174882 1 3.5375492093654373 1 3.6040980642532272 1 3.6710665602789181 1 3.7382443282151545 1 3.8054226677630254 1 3.8723910806425414 1 3.9389399182627578 1 4.0048613976120802 1 4.0699527203691295 1 4.1340169819367292 1 4.1968628574916726 1 4.2583064005957958 1 4.3181730047119942 1 4.376298141755437 1 4.4325280251837418 1 4.4867200785224428 1 4.538745765780428 1 4.5884898667327363 1 4.6358508474945532 1 4.6807431057310271 1 4.7230950186956555 1 4.7628528912462533 1 4.7999780777628551 1 4.834448766592943 1 4.8662591254069421 1 4.8954211788588324 1 4.9219635203577683 1 4.9459299876787641 1 4.967381624657885 1 4.9863928435522533 1 5.0030590250000984 1 5.0174843569693293 1 5.0297890819314945 1 5.0401073401101515 1 5.0485846233429248 1 5.0553783372406151 1 5.0606554741825578 1 5.0645947119664108 1 5.0673803927644396 1 5.0692067460325143 1 5.0707573492742428 1 5.0730449504774775 1 5.0762048156279844 1 5.0803686571140423 1 5.0856629290145925 1 5.0922079127593456 1 5.1001180219415119 1 5.1095005026745959 1 5.12045478400539 1 5.1330717123605298 1 5.1474357435366001 1 5.1636194650971001 1 5.1816875189813754 1 5.2016946970695388 1 5.2236852887774594 1 5.2476941383624167 1 5.273744441111158 1 5.3018496488368765 1 5.3320128482523907 1 5.3642246227805312 1 5.3984670330759945 1 5.434710253847479 1 5.4729150091622376 1 5.5130307726001258 1 5.5549980931472254 1 5.5987471821900527 1 5.6441988804421142 1 5.6912655654782043 1 5.73985098833945 1 5.7898516764863182 1 5.8411555776499737 1 5.8936441737656304 1 5.9471932837766284 1 6.0016739268083166 1 6.056949852925845 1 6.1128825400106646 1 6.1693295837472713 1 6.2261461781936154 1 6.283185307179588 4
2 0 0 49.765407073826161 0 0 1 0 1 0 -1 0 0 187.821609497
1 0 187.821609497 0 0 0 1 
2 0 0 49.765407073826161 0 0 1 0 1 0 -1 0 0 20
2 0 0 -57.695600986000002 0 0 1 0 1 0 -1 0 0 20
1 0 20 0 0 0 1 
3 0 0 -57.695600986000002 1 0 -0 0 1 0 0 -0 1 20 5.2628212757772275
3 0 0 -57.695600986000002 1 0 -0 0 1 0 0 -0 1 34.737178724222773 20
Polygon3D 0
PolygonOnTriangulations 0
Surfaces 7
7 0 0 0 0 0 1 
8 1.2984587118981703 5.4995511287821
7 0 0  3 172 170  0 34.733581543 -120.55317688  0 34.732539539742518 -119.35009523080616  0 34.730759087766749 -116.94466682247685  0 34.728982504821474 -113.33908605813697  0 34.72811939362763 -109.7400869364304  0 34.728058281205321 -106.15204097712176  0 34.729564003027022 -102.57929208274547  0 34.731752439901783 -99.026148174835456  0 34.734746152053411 -95.496863792894843  0 34.738792670683289 -91.995642990875567  0 34.743877847623985 -88.526618869936684  0 34.748847699947035 -85.09384143819598  0 34.754163466016138 -81.701274388068285  0 34.758075985018749 -78.352783764107045  0 34.760657189525141 -75.052129467875659  0 34.762768205082921 -71.802958306370826  0 34.761158422648336 -68.608778857729263  0 34.757295829447926 -65.472982295726581  0 34.753355451186181 -62.398799577505677  0 34.741289740522696 -59.389344413664489  0 34.734428160567283 -56.447531141598304  0 34.720590785759612 -53.576085472575926  0 34.740750285986948 -50.777788498955125  0 34.744469642468985 -48.054488309047542  0 34.836792182449997 -45.410735610184595  0 34.875137424124595 -42.844420369035383  0 35.067292708752468 -40.367464836387761  0 35.150103432821716 -37.965306646699084  0 35.486258716156982 -35.672062929253713  0 35.657062342614921 -33.443861865830776  0 36.168771886617407 -31.358027999765223  0 36.57679448550374 -29.345606272319912  0 37.141629734001278 -27.458126539747326  0 37.844701472282601 -25.717582420671871  0 38.408556700064828 -24.015113076148726  0 39.197182942470597 -22.50409563934091  0 39.919640018257496 -21.064368517960759  0 40.569512819560551 -19.683815993481513  0 41.324531946211977 -18.459978417950911  0 42.021248465633541 -17.303926219985041  0 42.68135277337462 -16.225506539333509  0 43.281217634918136 -15.207262922239183  0 43.94063425874922 -14.328015771624637  0 44.527789934734528 -13.497626363277384  0 45.073260904082623 -12.734095996919162  0 45.578927019580227 -12.036966263868374  0 46.020821119383271 -11.38481443693099  0 46.487870172090858 -10.842728148877507  0 46.896814180178545 -10.343645005523376  0 47.266482231027005 -9.898243140792685  0 47.594863095390735 -9.5012993599182902  0 47.884841220279348 -9.151069598089812  0 48.138303749395206 -8.8448700131790261  0 48.357481263799073 -8.5801073760844488  0 48.544622927151188 -8.3540419071178906  0 48.702071430915232 -8.1638523600979926  0 48.832216242001536 -8.0066098324521384  0 48.937602784982147 -7.8793857839168115  0 49.020565435927203 -7.7789589089205879  0 49.087832375875486 -7.6982365310302123  0 49.155146674285113 -7.6149620748007054  0 49.249255329990021 -7.513993618519307  0 49.381790626239848 -7.3728319015267418  0 49.55841622706167 -7.1842678716980828  0 49.785183377971833 -6.9423614735336372  0 50.06752697631611 -6.6410581211380011  0 50.410782584550525 -6.2749596396335416  0 50.819274068292991 -5.8384417531810788  0 51.299670403686612 -5.3289880294901799  0 51.845400672161269 -4.7322629421746658  0 52.508001316489036 -4.0909432148968214  0 53.258852107461379 -3.3720295261076925  0 54.100499986558027 -2.5721765589780947  0 55.013469986363006 -1.665919226432645  0 56.100624979240763 -0.76303308643487822  0 57.258388234746164 0.25195683570995026  0 58.529506441726809 1.3337570689742748  0 59.961230634700158 2.4196370914976324  0 61.455961921225857 3.6328140338791384  0 63.151873437762326 4.7852536197134867  0 64.904235140631911 6.0697759975767038  0 66.84882934582518 7.283473246768521  0 68.876369956242016 8.579228737630805  0 71.05238361224221 9.8445875712948308  0 73.352950385407681 11.100407111816718  0 75.752885500035347 12.380639393268044  0 78.292537446812176 13.587451043505396  0 80.931301225074563 14.77873407105514  0 83.665026500252836 15.943954835083737  0 86.494955642033702 17.053595084270096  0 89.412488930473728 18.096589266352808  0 92.393766760148935 19.106831645341167  0 95.432144117914802 20.071983462409992  0 98.515545081487588 20.994335858897202  0 101.63677779341795 21.85849801755959  0 104.77620112444598 22.694062687327502  0 107.92540620211369 23.492054870473549  0 111.07218070930709 24.257688491569404  0 114.20802992326641 24.98152662272296  0 117.32073016707575 25.670200600665229  0 120.39813812248116 26.332497577785087  0 123.43017902861008 26.96953152096237  0 126.40744511871982 27.580808297498589  0 129.31968452936198 28.171941737954413  0 132.15699217992292 28.749286673599446  0 134.91227117896568 29.307846134707088  0 137.57581336800962 29.85796533059569  0 140.14374451586392 30.38436653947668  0 142.608397329583 30.893460152899621  0 144.96767666839645 31.367559381319364  0 147.21295919453627 31.824772785902255  0 149.34602306934528 32.234541912834175  0 151.35682237519268 32.630393231225653  0 153.24953291788461 32.976314075064089  0 155.01588369124931 33.305979615582984  0 156.65670137043247 33.609292045490093  0 158.17107557297751 33.889635931831968  0 159.5596174108002 34.147116485768514  0 160.81979436894085 34.40170139054721  0 161.95847008560045 34.629161465642191  0 162.97928057462005 34.826525135526104  0 163.87974085409755 35.024323852964685  0 164.66771399896101 35.205233147298856  0 165.3505884796279 35.360320393994797  0 165.93349586302224 35.493057757535105  0 166.42282695639699 35.604433814312756  0 166.82546893368777 35.696022463193884  0 167.1487217230347 35.769755549094533  0 167.40076409040128 35.826703609945127  0 167.58766014870275 35.877578610395595  0 167.72115244553231 35.912500343559309  0 167.81730558068736 35.937870042003688  0 167.90569598543897 35.961154632815621  0 168.01489211273213 35.989931010856644  0 168.16486669382209 36.029444756981761  0 168.36175509770118 36.081327859289743  0 168.61146528229901 36.147125827721801  0 168.91963273430099 36.228323549000486  0 169.29158628863749 36.326349762890182  0 169.73237094696134 36.442406561521288  0 170.24646168120711 36.578287032553597  0 170.83892121559936 36.732482830982633  0 171.50676191967514 36.93055832176934  0 172.26102428845559 37.146171063369771  0 173.10191344348669 37.390083623510897  0 174.03423742858539 37.655156978386074  0 175.05336274323113 37.964862081749608  0 176.16694392612533 38.298964224153544  0 177.37471649203886 38.66250521127256  0 178.67752930760673 39.054840128550453  0 180.0752746894789 39.476741530948409  0 181.56901940453693 39.923297014521232  0 183.1575879626769 40.395182461623882  0 184.8394184905525 40.892718895807064  0 186.61332150205774 41.413101089379971  0 188.4767007586133 41.956591550704772  0 190.42652296766894 42.52323051218869  0 192.46066323518539 43.108238153231056  0 194.57392054276659 43.715858943841013  0 196.7636194216316 44.340022448584435  0 199.0244879225769 44.982274855074159  0 201.35159272093625 45.64157466575454  0 203.74005704464383 46.315350044867358  0 206.18404637971466 47.003190992453163  0 208.67756009545747 47.70427962324132  0 211.21453818853607 48.416952921522665  0 213.78851859699301 49.140124170293419  0 216.39270195459844 49.873105440904858  0 219.02039743269268 50.614309529894953  0 221.66475583136582 51.362204165848794  0 223.43227185758437 51.863503279521375  0 224.31765747099999 52.114994049000003 
 0 4 0.074556696860862581 1 0.1490678354695128 1 0.22344295721162025 1 0.29759176108692048 1 0.37142410657675684 1 0.44485126758520299 1 0.51778514888417071 1 0.59013892060096929 1 0.66182700678057427 1 0.73276570337687674 1 0.80287321000232614 1 0.87206943554847283 1 0.94027653020080793 1 1.0074194843669637 1 1.0734251850831305 1 1.1382243234298626 1 1.201749387604137 1 1.2639367327431998 1 1.3247256250268988 1 1.3840591148344179 1 1.4418826615572682 1 1.4981478631783849 1 1.5528063132137659 1 1.6058184660288939 1 1.6571448298911711 1 1.7067507447286758 1 1.754607294289138 1 1.8006885789357292 1 1.8449422288153494 1 1.8874128733429565 1 1.9279638831959962 1 1.9667739079997721 1 2.003745802406105 1 2.0388619654374405 1 2.0721648687672007 1 2.1036457896763481 1 2.1333059716983991 1 2.1611899626912021 1 2.1873076928972313 1 2.2116789117620428 1 2.2343500606700744 1 2.255349338094101 1 2.2747163422240528 1 2.2924947704642862 1 2.3087320919491074 1 2.3234780541845899 1 2.3367904717713368 1 2.3487261229655636 1 2.3593465584551696 1 2.3687166281627157 1 2.3769041587186202 1 2.3839798415508007 1 2.3900169513065368 1 2.3950912196886454 1 2.3992809027716788 1 2.4026662167782886 1 2.4053291892678392 1 2.4073533023636671 1 2.4091782978019305 1 2.4119630248648245 1 2.4159021427968348 1 2.4211798774463342 1 2.4279734608929493 1 2.4364506612688221 1 2.4467688701185915 1 2.4590738987348355 1 2.4734991804859741 1 2.4901652139496826 1 2.5091725585135194 1 2.5306241912713583 1 2.5545907819308047 1 2.5811328877083839 1 2.6102953419805424 1 2.6421060756305481 1 2.676568088776456 1 2.7136933477177565 1 2.7534498453023564 1 2.7958020163800592 1 2.8406913573442965 1 2.8880526663828037 1 2.9377872633825537 1 2.9898131591172676 1 3.0439947770284572 1 3.1002203670644217 1 3.1583454653099867 1 3.2182021261073177 1 3.2796385509889143 1 3.3424843966603883 1 3.4065449032973323 1 3.4716305064174882 1 3.5375492093654373 1 3.6040980642532272 1 3.6710665602789181 1 3.7382443282151545 1 3.8054226677630254 1 3.8723910806425414 1 3.9389399182627578 1 4.0048613976120802 1 4.0699527203691295 1 4.1340169819367292 1 4.1968628574916726 1 4.2583064005957958 1 4.3181730047119942 1 4.376298141755437 1 4.4325280251837418 1 4.4867200785224428 1 4.538745765780428 1 4.5884898667327363 1 4.6358508474945532 1 4.6807431057310271 1 4.7230950186956555 1 4.7628528912462533 1 4.7999780777628551 1 4.834448766592943 1 4.8662591254069421 1 4.8954211788588324 1 4.9219635203577683 1 4.9459299876787641 1 4.967381624657885 1 4.9863928435522533 1 5.0030590250000984 1 5.0174843569693293 1 5.0297890819314945 1 5.0401073401101515 1 5.0485846233429248 1 5.0553783372406151 1 5.0606554741825578 1 5.0645947119664108 1 5.0673803927644396 1 5.0692067460325143 1 5.0707573492742428 1 5.0730449504774775 1 5.0762048156279844 1 5.0803686571140423 1 5.0856629290145925 1 5.0922079127593456 1 5.1001180219415119 1 5.1095005026745959 1 5.12045478400539 1 5.1330717123605298 1 5.1474357435366001 1 5.1636194650971001 1 5.1816875189813754 1 5.2016946970695388 1 5.2236852887774594 1 5.2476941383624167 1 5.273744441111158 1 5.3018496488368765 1 5.3320128482523907 1 5.3642246227805312 1 5.3984670330759945 1 5.434710253847479 1 5.4729150091622376 1 5.5130307726001258 1 5.5549980931472254 1 5.5987471821900527 1 5.6441988804421142 1 5.6912655654782043 1 5.73985098833945 1 5.7898516764863182 1 5.8411555776499737 1 5.8936441737656304 1 5.9471932837766284 1 6.0016739268083166 1 6.056949852925845 1 6.1128825400106646 1 6.1693295837472713 1 6.2261461781936154 1 6.283185307179588 4
7 0 0 0 0 0 1 
8 4.7123889803846897 6.2831853071795862
3 0 0 -57.695600986000002 1 0 -0 0 1 0 0 -0 1 34.737178724222773 20
2 0 0 0 0 0 1 0 1 0 -1 0 0 187.821609497
1 0 0 0 1 0 0 -0 1 0 0 -0 1 
1 0 0 49.765407073826161 0 0 1 -0 -1 -0 -1 0 0 
2 0 0 0 0 0 1 0 1 -0 -1 0 0 20
7 0 0 0 0 0 1 
8 4.7123889803846897 6.2831853071795862
3 0 0 -57.695600986000002 1 0 -0 0 1 0 0 -0 1 20 5.2628212757772275
Triangulations 0

TShapes 34
Ve
1e-007
0 34.7371787242228 -57.695600986
0 0

0101101
*
Ed
 1e-007 1 1 0
1  1 0 0 6.28318530717959
2  1 1 0 0 6.28318530717959
2  2 2 0 0 6.28318530717959
0

0101100
+34 0 -34 0 *
Ve
1e-007
0 187.821609497 41.7654070738262
0 0

0101101
*
Ed
 1e-007 1 1 0
1  2 0 0 6.28318530717959
2  3 1 0 0 6.28318530717959
2  4 3 0 0 6.28318530717959
0

0101100
+32 0 -32 0 *
Ed
 1e-007 1 1 0
2  5 4 0 1.29845871189817 5.4995511287821
1  3 0 1.29845871189817 5.4995511287821
3  6 7C2 1 0 1.29845871189817 5.4995511287821
0

0101000
+34 0 -32 0 *
Wi

0101000
+33 0 -31 0 -30 0 +30 0 *
Fa
0  1e-007 1 0

0101000
+29 0 *
Ve
1e-007
0 187.821609497 49.7654070738262
0 0

0101101
*
Ed
 1e-007 1 1 0
1  4 0 0 6.28318530717959
2  8 3 0 0 6.28318530717959
2  9 5 0 0 6.28318530717959
0

0101100
+27 0 -27 0 *
Ed
 1e-007 1 1 0
2  10 4 0 41.7654070738262 49.7654070738262
1  5 0 41.7654070738262 49.7654070738262
3  11 12CN 3 0 41.7654070738262 49.7654070738262
0

0101000
+32 0 -27 0 *
Wi

0101000
+31 0 -26 0 -25 0 +25 0 *
Fa
0  1e-007 3 0

0101000
+24 0 *
Ve
1e-007
0 20 49.7654070738262
0 0

0101101
*
Ed
 1e-007 1 1 0
1  6 0 0 6.28318530717959
2  13 5 0 0 6.28318530717959
2  14 6 0 0 6.28318530717959
0

0101100
+22 0 -22 0 *
Wi

0101000
+21 0 *
Wi

0101000
-26 0 *
Fa
0  1e-007 5 0

0101000
+20 0 +19 0 *
Ve
1e-007
0 20 -57.695600986
0 0

0101101
*
Ed
 1e-007 1 1 0
1  7 0 0 6.28318530717959
2  15 6 0 0 6.28318530717959
2  16 7 0 0 6.28318530717959
4 G1 6 0 7 0
0

0101100
+17 0 -17 0 *
Ed
 1e-007 1 1 0
2  17 4 0 -57.695600986 49.7654070738262
1  8 0 -57.695600986 49.7654070738262
3  18 19CN 6 0 -57.695600986 49.7654070738262
0

0101000
+17 0 -22 0 *
Wi

0101000
+16 0 -21 0 -15 0 +15 0 *
Fa
0  1e-007 6 0

0101000
+14 0 *
Ve
1e-007
0 -3.67381906146713e-015 -62.9584222617772
0 0

0101101
*
Ed
 1e-007 1 1 1
2  20 7 0 0 6.28318530717959
0

0101100
+12 0 -12 0 *
Ed
 1e-007 1 1 0
2  21 4 0 4.71238898038469 6.28318530717959
1  9 0 4.71238898038469 6.28318530717959
3  22 23CN 7 0 4.71238898038469 6.28318530717959
0

0101000
+12 0 -17 0 *
Wi

0101000
+11 0 -16 0 -10 0 +10 0 *
Fa
0  1e-007 7 0

0101000
+9 0 *
Ve
1e-007
0 -6.38090546693201e-015 -77.695600986
0 0

0101101
*
Ed
 1e-007 1 1 1
2  24 2 0 0 6.28318530717959
0

0101100
+7 0 -7 0 *
Ed
 1e-007 1 1 0
2  25 4 0 4.71238898038469 6.28318530717959
1  10 0 4.71238898038469 6.28318530717959
3  26 27CN 2 0 4.71238898038469 6.28318530717959
0

0101000
+7 0 -34 0 *
Wi

0101000
+6 0 -33 0 -5 0 +5 0 *
Fa
0  1e-007 2 0

0101000
+4 0 *
Sh

0101000
+28 0 +23 0 -18 0 -13 0 -8 0 +3 0 *
So

1100000
+2 0 *

+1 0 