DBRep_DrawableShape

CASCADE Topology V1, (c) Matra-Datavision
Locations 0
Curve2ds 6
2 0 0 1 0 -0 1 1
1 0 5.0990195135927845 1 0 
1 0 0 1 0 
1 6.2831853071795862 0 0 1 
1 0 0 0 1 
1 -23.858571571457155 -5.5 0.19611613513818404 -0.98058067569092022 
Curves 2
2 23.858571571457155 12 10.5 0 0 -1 -1 0 0 0 1 0 1
1 23.858571571457155 12 5.5 -0.19611613513818404 0 0.98058067569092022 
Polygon3D 0
PolygonOnTriangulations 0
Surfaces 3
1 23.858571571457155 12 10.5 0 0 -1 -1 0 0 0 1 0 
3 23.858571571457155 12 5.5 -0 -0 1 -1 0 0 0 1 0 0
0.19739555984988078
1 9.8121710831719509e-24 12 0 -8.1768092359766264e-25 -1 0 -1 8.1768092359766264e-25 0 -0 0 -1 
Triangulations 0

TShapes 11
Ve
1e-07
22.8585715714572 12 10.5
0 0

0101101
*
Ed
 1e-07 1 1 0
1  1 0 0 6.28318530717959
2  1 1 0 0 6.28318530717959
2  2 2 0 0 6.28318530717959
0

0101000
+11 0 -11 0 *
Wi

0101100
+10 0 *
Fa
0  1e-07 1 0

0101000
+9 0 *
Ve
0.234223911268158
23.8585715714572 12 5.5
0 0

0101101
*
Ed
 1e-07 1 1 1
2  3 2 0 0 6.28318530717959
0

0101000
+7 0 -7 0 *
Ed
 1e-07 1 1 0
1  2 0 0 5.09901951359278
3  4 5CN 2 0 0 5.09901951359278
2  6 3 0 0 5.09901951359278
0

0101000
+7 0 -11 0 *
Wi

0101100
+6 0 -10 0 -5 0 +5 0 *
Fa
0  1e-07 2 0

0101000
+4 0 *
Sh

0101100
-8 0 -3 0 *
So

0100000
+2 0 *

+1 0 
0

