DBRep_DrawableShape

CASCADE Topology V1, (c) Matra-Datavision
Locations 14
1
              1               0               0 -1.43637143582699 
              0               1               0 -11.9137247365524 
              0               0               1               0 
2  1 -1 0
1
              1               0               0 -10.2100880144141 
              0               1               0 -6.30508546634519 
              0               0               1               0 
2  3 -1 0
1
              1               0               0 8.41896213057548 
              0               1               0 -8.55108628443989 
              0               0               1               0 
2  5 -1 0
1
              1               0               0 -11.2954000703076 
              0               1               0 4.0514117603245 
              0               0               1               0 
2  7 -1 0
1
              1               0               0 11.9346454971244 
              0               1               0 1.25069455022767 
              0               0               1              -0 
2  9 -1 0
1
              1               0               0 -3.87504548908828 
              0               1               0 11.3571132977309 
              0               0               1               0 
2  11 -1 0
1
              1               0               0 6.46329738193711 
              0               1               0 10.1106768790544 
              0               0               1              -0 
2  13 -1 0
Curve2ds 14
8 -48 48
1 -93.824757377353663 -7.1054273576010019e-015 7.9663307021763235e-018 1 
8 -48 48
1 -93.824757377353691 0 -1.27770024119517e-017 -1 
8 -47.999999999999986 48.000000000000014
1 93.824757377353635 -1.4210854715202004e-014 4.4371683308126513e-016 1 
8 -47.999999999999986 48.000000000000014
1 93.824757377353649 -7.1054273576009955e-015 -2.7665292033922314e-016 1 
8 -48 48
1 -93.824757377353677 -9.8607613152626476e-032 -3.0706875110744909e-017 1 
8 -48 48
1 93.82475737735362 -7.1054273576010019e-015 -3.6723613732854741e-017 1 
8 -48.000000000000014 47.999999999999986
1 93.824757377353748 1.4210854715202004e-014 -4.4371683308126453e-016 1 
8 -48.000000000000014 47.999999999999986
1 -93.824757377353677 -7.1054273576010019e-015 -2.7665292033922196e-016 -1 
8 -72 24
1 5.778895425690342 -24 -2.8757283030678422e-017 1 
8 -72 24
1 93.82475737735362 -24 -1.7929872698793214e-017 -1 
8 -72 24
1 -93.824757377353635 -24 -0 -1 
8 -72 24
1 193.42841018039761 -24 -0 1 
8 0 96
1 5.7788954256903544 0 0 -1 
8 0 96
1 193.42841018039769 0 0 -1 
Curves 42
1 -122.20812330497549 -181.50605162897773 96 0.99281039471269927 -0.11969761965224897 0 
1 -122.20812330497549 -181.50605162897773 96 -0.11969761965224897 -0.99281039471269916 0 
1 65.711626837055618 -208.71333037947707 96 0.71259052370332421 0.70158017754795643 0 
1 65.711626837055618 -208.71333037947707 96 0.70158017754795643 -0.71259052370332432 0 
1 -218.10266400694925 -17.621013953147649 96 0.52542378886209951 -0.8508406678678424 0 
1 -218.10266400694925 -17.621013953147649 96 -0.85084066786784229 -0.52542378886209951 0 
1 -116.47077585639246 -182.19777165565216 48 -1.2685140807854877e-017 1.5293767750016629e-018 1 
1 75.566960403458083 -205.35069192736458 0 -0.99281039471269927 0.11969761965224897 0 
1 69.829612954874989 -204.65897190069018 48.000000000000014 4.4052668419207971e-016 -5.3111848719461748e-017 -1 
1 65.711626837055618 -208.71333037947707 0 0 0 1 
1 -122.20812330497547 -181.50605162897773 0 -1.4802973661668753e-016 0 1 
1 207.66486506442604 -68.953433543507828 96 0.70158017754795643 -0.71259052370332432 0 
1 -149.76145022813398 159.53300663258167 96 -0.33761764669370842 -0.94128333919229779 0 
1 -149.76145022813398 159.53300663258167 96 -0.94128333919229779 0.33761764669370842 0 
1 -215.06629487694519 -22.537933196680463 48 1.0796019121235842e-017 -3.6494645395076934e-017 1 
1 -113.43440672638836 -187.11469089918492 0 -0.52542378886209951 0.8508406678678424 0 
1 -218.10266400694925 -17.621013953147635 0 0 -1.4802973661668753e-016 1 
1 65.711626837055618 -208.71333037947707 0 0.70158017754795643 -0.71259052370332432 0 
1 207.66486506442604 -68.953433543507828 0 -0.71259052370332421 -0.70158017754795643 0 
1 -122.20812330497547 -181.50605162897773 0 -0.11969761965224897 -0.99281039471269916 0 
1 203.54687894660663 -73.007792022294836 48.000000000000014 -4.6246185414918153e-017 4.4130025866096629e-016 1 
1 207.66486506442604 -68.953433543507828 96 0 0 -1 
1 204.14918169787714 -78.755214378175381 96 -0.10422454585230574 0.99455379142703015 0 
1 188.85823885580839 110.50718436349578 96 0.53860811516142582 0.84255640658786535 -0 
1 188.85823885580839 110.50718436349578 96 -0.84255640658786535 0.53860811516142582 0 
1 31.353190149317584 216.55541934370041 96 -0.94642610814424366 -0.32292045742402342 0 
1 31.353190149317584 216.55541934370041 96 -0.32292045742402342 0.94642610814424366 0 
1 -151.7125073022446 154.09342864944477 24 -2.7216643459527479e-017 -9.2863149905387798e-018 -1 
1 -217.01735195105579 -27.977511179817345 0 0.33761764669370842 0.94128333919229779 0 
1 -149.76145022813398 159.53300663258167 0 0 0 1 
1 -218.10266400694925 -17.621013953147635 0 -0.85084066786784229 -0.52542378886209951 0 
1 207.66486506442604 -68.953433543507828 0 0.70158017754795643 -0.71259052370332432 0 
1 183.98919349189168 113.61974433644184 24 -0 0 -1 
1 183.38689074062114 119.3671666923225 0 0.10422454585230574 -0.99455379142703015 0 
1 188.85823885580839 110.50718436349578 0 0 0 1 
1 -157.18180480935328 152.22730509517524 0 0.94642610814424366 0.32292045742402342 0 
1 25.883892642208917 214.6892957894309 0 0 -0 1 
1 31.353190149317584 216.55541934370041 0 0 0 1 
1 -149.76145022813398 159.53300663258167 0 -0.94128333919229779 0.33761764669370842 0 
1 188.85823885580839 110.50718436349578 0 0.53860811516142582 0.84255640658786535 -0 
1 21.014847278292194 217.80185576237696 0 0.84255640658786535 -0.53860811516142582 0 
1 31.353190149317584 216.55541934370041 0 -0.32292045742402342 0.94642610814424366 0 
Polygon3D 0
PolygonOnTriangulations 0
Surfaces 21
1 -122.20812330497549 -181.50605162897773 96 0 0 1 0.99281039471269927 -0.11969761965224897 0 0.11969761965224897 0.99281039471269927 -0 
1 -218.10266400694925 -17.621013953147649 96 0 0 1 0.52542378886209951 -0.8508406678678424 0 0.8508406678678424 0.52542378886209951 -0 
1 -23.320581450758702 -193.42837177817117 48 0.11969761965224901 0.99281039471269916 0 0.99281039471269916 -0.11969761965224901 0 0 0 -1 
1 -165.76853536666883 -102.36785242616629 48.000000000000007 0.8508406678678424 0.52542378886209951 9.9894627372337931e-018 -0.52542378886209939 0.85084066786784229 0 -8.4994411469889251e-018 -5.2487013600941376e-018 1 
1 136.68824595074079 -138.83338196149251 48.000000000000007 0.70158017754795599 -0.71259052370332476 3.4691178940394466e-016 -0.71259052370332476 -0.70158017754795599 2.4651903288156619e-032 2.4338643480349859e-016 -2.4720605369021445e-016 -1 
1 65.711626837055618 -208.71333037947707 96 -0 0 1 0.71259052370332421 0.70158017754795643 0 -0.70158017754795643 0.71259052370332421 -0 
1 -149.76145022813398 159.53300663258167 96 0 0 1 -0.33761764669370842 -0.94128333919229779 0 0.94128333919229779 -0.33761764669370842 0 
1 -183.38940108959488 65.777747726382174 48 0.94128333919229779 -0.33761764669370842 -2.2483349223628025e-017 0.33761764669370842 0.94128333919229779 0 2.1163202033443142e-017 -7.5907754546741094e-018 1 
1 75.566960403458083 -205.35069192736458 0 -0 0 -1 -0.99281039471269927 0.11969761965224897 0 0.11969761965224897 0.99281039471269927 0 
1 193.76803621924915 20.305976157073559 48 -0.99455379142703015 -0.10422454585230576 0 0.10422454585230576 -0.99455379142703015 0 0 0 1 
1 204.14918169787714 -78.755214378175381 96 0 0 1 -0.10422454585230574 0.99455379142703015 0 -0.99455379142703015 -0.10422454585230574 0 
1 31.353190149317584 216.55541934370041 96 0 0 1 -0.94642610814424366 -0.32292045742402342 0 0.32292045742402342 -0.94642610814424366 0 
1 -157.18180480935328 152.22730509517524 0 -0.32292045742402337 0.94642610814424366 0 0.94642610814424366 0.32292045742402337 0 0 0 -1 
1 -113.43440672638836 -187.11469089918492 0 -0 0 -1 -0.52542378886209951 0.8508406678678424 0 0.8508406678678424 0.52542378886209951 0 
1 207.66486506442604 -68.953433543507828 0 0 -0 -1 -0.71259052370332421 -0.70158017754795643 0 -0.70158017754795643 0.71259052370332421 -0 
1 21.014847278292194 217.80185576237696 0 0.53860811516142582 0.84255640658786535 0 0.84255640658786535 -0.53860811516142582 0 0 0 -1 
1 188.85823885580839 110.50718436349578 96 0 0 1 -0.84255640658786535 0.53860811516142582 0 -0.53860811516142582 -0.84255640658786535 0 
1 -217.01735195105579 -27.977511179817345 0 0 0 -1 0.33761764669370842 0.94128333919229779 0 0.94128333919229779 -0.33761764669370842 0 
1 183.38689074062114 119.3671666923225 0 0 -0 -1 0.10422454585230574 -0.99455379142703015 0 -0.99455379142703015 -0.10422454585230574 0 
1 -157.18180480935328 152.22730509517524 0 0 0 -1 0.94642610814424366 0.32292045742402342 0 0.32292045742402342 -0.94642610814424366 0 
1 21.014847278292194 217.80185576237696 0 0 -0 -1 0.84255640658786535 -0.53860811516142582 0 -0.53860811516142582 -0.84255640658786535 0 
Triangulations 0

TShapes 171
Ve
1e-007
-122.208123304975 -181.506051628978 96
0 0

0101101
*
Ve
1.00000014210855e-007
-116.470775856392 -182.197771655652 96
0 0

0101101
*
Ed
 1e-007 1 1 0
1  1 0 0 5.77889542569034
0

0101000
+171 0 -170 0 *
Ve
1.00000028421709e-007
-123.644494740802 -193.41977636553 96
0 0

0101101
*
Ed
 1e-007 1 1 0
1  2 0 0 12
0

0101000
+171 0 -168 0 *
Ve
1.00000031776437e-007
69.8296129548751 -204.65897190069 96
0 0

0101101
*
Ed
 1e-007 1 1 0
1  1 0 5.77889542569034 193.428410180398
0

0101000
+170 0 -166 0 *
Ve
1.00000014210855e-007
74.1305889676311 -217.264416663917 96
0 0

0101101
*
Ed
 1e-007 1 1 0
1  1 0 0 199.207305606088
0

0101000
+168 2 -164 2 *
Ve
1e-007
65.7116268370556 -208.713330379477 96
0 0

0101101
*
Ed
 1e-007 1 1 0
1  3 0 0 5.77889542569038
0

0101000
+162 0 -166 0 *
Ed
 1e-007 1 1 0
1  4 0 0 12
0

0101000
+162 0 -164 0 *
Wi

0101000
-169 0 +167 0 -165 0 +163 1 +161 0 -160 0 *
Fa
0  1e-007 1 0

0111000
+159 0 *
Ve
1e-007
-218.102664006949 -17.6210139531476 96
0 0

0101101
*
Ve
1.00000003552714e-007
-215.066294876945 -22.5379331966805 96
0 0

0101101
*
Ed
 1e-007 1 1 0
1  5 0 0 5.77889542569036
0

0101000
+157 0 -156 0 *
Ve
1.00000010658141e-007
-228.312752021363 -23.9260994194928 96
0 0

0101101
*
Ed
 1e-007 1 1 0
1  6 0 0 12
0

0101000
+157 0 -154 0 *
Ed
 1e-007 1 1 0
1  5 0 5.77889542569036 193.428410180398
0

0101000
+156 0 -170 0 *
Ed
 1e-007 1 1 0
1  5 0 0 199.207305606088
0

0101000
+154 4 -168 4 *
Wi

0101000
-155 0 +153 0 -152 0 +151 3 +169 0 -167 0 *
Fa
0  1e-007 2 0

0111000
+150 0 *
Ve
1.00000031776437e-007
-116.470775856392 -182.197771655652 0
0 0

0101101
*
Ed
 1e-007 1 1 0
1  7 0 -48 48
2  1 4 0 -48 48
2  2 3 0 -48 48
0

0101000
+148 0 -170 0 *
Ve
1e-007
69.829612954875 -204.65897190069 0
0 0

0101101
*
Ed
 1e-007 1 1 0
1  8 0 5.77889542569034 193.428410180398
0

0101000
+146 0 -148 0 *
Ed
 1e-007 1 1 0
1  9 0 -48 48
2  3 3 0 -48 48
2  4 5 0 -48 48
0

0101000
+166 0 -146 0 *
Wi

0101000
+165 0 +147 0 +145 0 +144 0 *
Fa
0  1e-007 3 0

0111000
+143 0 *
Ve
1e-007
74.1305889676311 -217.264416663917 0
0 0

0101101
*
Ve
1.00000014210855e-007
-123.644494740802 -193.41977636553 0
0 0

0101101
*
Ed
 1e-007 1 1 0
1  8 0 0 199.207305606088
0

0101000
+141 2 -140 2 *
Ed
 1e-007 1 1 0
1  10 0 0 96
0

0101000
+141 6 -164 6 *
Ed
 1e-007 1 1 0
1  11 0 0 96
0

0101000
+140 2 -168 2 *
Wi

0101000
+139 1 -138 5 +137 1 +163 1 *
Fa
0  1e-007 3 1

0111000
+136 0 *
Ve
1e-007
216.083827195002 -77.5045198279477 96
0 0

0101101
*
Ed
 1e-007 1 1 0
1  3 0 0 199.207305606088
0

0101000
+164 6 -134 6 *
Ve
1.00000014210855e-007
203.546878946607 -73.0077920222948 96
0 0

0101101
*
Ed
 1e-007 1 1 0
1  3 0 5.77889542569038 193.428410180398
0

0101000
+166 0 -132 0 *
Ve
1e-007
207.664865064426 -68.9534335435078 96
0 0

0101101
*
Ed
 1e-007 1 1 0
1  12 0 0 12
0

0101000
+130 0 -134 0 *
Ed
 1e-007 1 1 0
1  3 0 193.428410180398 199.207305606088
0

0101000
+132 0 -130 0 *
Wi

0101000
+160 0 -161 0 +133 5 -131 0 -129 0 -128 0 *
Fa
0  1e-007 6 0

0111000
+127 0 *
Ve
1e-007
-149.761450228134 159.533006632582 96
0 0

0101101
*
Ve
1.00000020097183e-007
-151.712507302245 154.093428649445 96
0 0

0101101
*
Ed
 1e-007 1 1 0
1  13 0 0 5.7788954256904
0

0101000
+125 0 -124 0 *
Ve
1e-007
-161.056850298442 163.584418392906 96
0 0

0101101
*
Ed
 1e-007 1 1 0
1  14 0 0 12
0

0101000
+125 0 -122 0 *
Ed
 1e-007 1 1 0
1  13 0 5.7788954256904 193.428410180398
0

0101000
+124 0 -156 0 *
Ed
 1e-007 1 1 0
1  13 0 0 199.207305606088
0

0101000
+122 8 -154 8 *
Wi

0101000
-123 0 +121 0 -120 0 +119 7 +155 0 -153 0 *
Fa
0  1e-007 7 0

0111000
+118 0 *
Ve
1.00000014648214e-007
-215.066294876945 -22.5379331966805 0
0 0

0101101
*
Ed
 1e-007 1 1 0
1  15 0 -48 48
2  5 8 0 -48 48
2  6 4 0 -48 48
0

0101000
+116 0 -156 0 *
Ed
 1e-007 1 1 0
1  16 0 5.77889542569039 193.428410180398
0

0101000
+148 0 -116 0 *
Wi

0101000
-147 0 +152 0 +115 0 +114 0 *
Fa
0  1e-007 4 0

0101000
+113 0 *
Ve
1.00000010658141e-007
-228.312752021363 -23.9260994194928 0
0 0

0101101
*
Ed
 1e-007 1 1 0
1  16 0 0 199.207305606088
0

0101000
+140 4 -111 4 *
Ed
 1e-007 1 1 0
1  17 0 0 96
0

0101000
+111 4 -154 4 *
Wi

0101000
+110 3 -137 1 +109 3 +151 3 *
Fa
0  1e-007 4 3

0101000
+108 0 *
Ve
1e-007
65.7116268370556 -208.713330379477 0
0 0

0101101
*
Ed
 1e-007 1 1 0
1  18 0 0 12
0

0101000
+106 0 -141 0 *
Ed
 1e-007 1 1 0
1  19 0 193.428410180398 199.207305606088
0

0101000
+146 0 -106 0 *
Ve
1e-007
-122.208123304975 -181.506051628978 0
0 0

0101101
*
Ed
 1e-007 1 1 0
1  20 0 0 12
0

0101000
+103 0 -140 0 *
Ed
 1e-007 1 1 0
1  8 0 193.428410180398 199.207305606088
0

0101000
+148 0 -103 0 *
Wi

0101000
+105 0 +104 0 +139 1 -145 0 -102 0 -101 0 *
Fa
0  1e-007 9 0

0111000
+100 0 *
Ve
1.00000014210855e-007
203.546878946607 -73.0077920222948 0
0 0

0101101
*
Ed
 1e-007 1 1 0
1  19 0 5.7788954256904 193.428410180398
0

0101000
+98 0 -146 0 *
Ed
 1e-007 1 1 0
1  21 0 -48 48
2  7 10 0 -48 48
2  8 5 0 -48 48
0

0101000
+98 0 -132 0 *
Wi

0101000
-97 0 +144 0 -131 0 +96 0 *
Fa
0  1e-007 5 0

0111000
+95 0 *
Ve
1e-007
216.083827195002 -77.5045198279477 0
0 0

0101101
*
Ed
 1e-007 1 1 0
1  19 0 0 199.207305606088
0

0101000
+93 6 -141 6 *
Ed
 1e-007 1 1 0
1  22 0 0 96
0

0101000
+134 6 -93 6 *
Wi

0101000
-92 5 -91 5 -138 5 -133 5 *
Fa
0  1e-007 5 5

0101000
+90 0 *
Ve
1e-007
195.321536237746 120.61786124255 96
0 0

0101101
*
Ed
 1e-007 1 1 0
1  23 0 0 199.207305606088
0

0101000
+134 10 -88 10 *
Ve
1.00000007105427e-007
183.989193491892 113.619744336442 96
0 0

0101101
*
Ed
 1e-007 1 1 0
1  23 0 5.77889542569032 193.428410180398
0

0101000
+132 0 -86 0 *
Ve
1e-007
188.858238855808 110.507184363496 96
0 0

0101101
*
Ed
 1e-007 1 1 0
1  24 0 0 12
0

0101000
+84 0 -88 0 *
Ed
 1e-007 1 1 0
1  25 0 0 5.77889542569035
0

0101000
+84 0 -86 0 *
Wi

0101000
+129 0 +128 0 +87 9 -85 0 -83 0 +82 0 *
Fa
0  1e-007 11 0

0111000
+81 0 *
Ve
1e-007
31.3531901493176 216.5554193437 96
0 0

0101101
*
Ve
1.00000007105427e-007
25.8838926422089 214.689295789431 96
0 0

0101101
*
Ed
 1e-007 1 1 0
1  26 0 0 5.77889542569033
0

0101000
+79 0 -78 0 *
Ve
1e-007
27.4781446602293 227.912532641431 96
0 0

0101101
*
Ed
 1e-007 1 1 0
1  27 0 0 12
0

0101000
+79 0 -76 0 *
Ed
 1e-007 1 1 0
1  26 0 5.77889542569033 193.428410180398
0

0101000
+78 0 -124 0 *
Ed
 1e-007 1 1 0
1  26 0 0 199.207305606088
0

0101000
+76 12 -122 12 *
Wi

0101000
-77 0 +75 0 -74 0 +73 11 +123 0 -121 0 *
Fa
0  1e-007 12 0

0111000
+72 0 *
Ve
1e-007
-151.712507302245 154.093428649445 0
0 0

0101101
*
Ed
 1e-007 1 1 0
1  28 0 -72 24
2  9 13 0 -72 24
2  10 8 0 -72 24
0

0101000
+124 0 -70 0 *
Ed
 1e-007 1 1 0
1  29 0 5.77889542569034 193.428410180398
0

0101000
+116 0 -70 0 *
Wi

0101000
-115 0 +120 0 -69 0 +68 0 *
Fa
0  1e-007 8 0

0101000
+67 0 *
Ve
1e-007
-161.056850298442 163.584418392906 0
0 0

0101101
*
Ed
 1e-007 1 1 0
1  29 0 0 199.207305606088
0

0101000
+111 8 -65 8 *
Ed
 1e-007 1 1 0
1  30 0 0 96
0

0101000
+65 8 -122 8 *
Wi

0101000
+64 7 -109 3 +63 7 +119 7 *
Fa
0  1e-007 8 7

0101000
+62 0 *
Ve
1e-007
-218.102664006949 -17.6210139531476 0
0 0

0101101
*
Ed
 1e-007 1 1 0
1  31 0 0 12
0

0101000
+60 0 -111 0 *
Ed
 1e-007 1 1 0
1  16 0 193.428410180398 199.207305606088
0

0101000
+116 0 -60 0 *
Wi

0101000
+102 0 +101 0 +110 3 -114 0 -59 0 -58 0 *
Fa
0  1e-007 14 0

0111000
+57 0 *
Ve
1e-007
207.664865064426 -68.9534335435078 0
0 0

0101101
*
Ed
 1e-007 1 1 0
1  32 0 0 12
0

0101000
+55 0 -93 0 *
Ed
 1e-007 1 1 0
1  19 0 0 5.7788954256904
0

0101000
+55 0 -98 0 *
Wi

0101000
+54 0 -53 0 +92 5 -97 0 -105 0 -104 0 *
Fa
0  1e-007 15 0

0101000
+52 0 *
Ve
1e-007
183.989193491892 113.619744336442 0
0 0

0101101
*
Ed
 1e-007 1 1 0
1  33 0 -72 24
2  11 10 0 -72 24
2  12 16 0 -72 24
0

0101000
+86 0 -50 0 *
Ed
 1e-007 1 1 0
1  34 0 5.77889542569035 193.428410180398
0

0101000
+50 0 -98 0 *
Wi

0101000
+49 0 +85 0 +48 0 +96 0 *
Fa
0  1e-007 10 0

0101000
+47 0 *
Ve
1e-007
195.321536237746 120.61786124255 0
0 0

0101101
*
Ed
 1e-007 1 1 0
1  34 0 0 199.207305606088
0

0101000
+45 10 -93 10 *
Ed
 1e-007 1 1 0
1  35 0 0 96
0

0101000
+45 14 -88 14 *
Wi

0101000
+44 9 -43 13 -91 5 +87 9 *
Fa
0  1e-007 10 9

0111000
+42 0 *
Ed
 1e-007 1 1 0
1  25 0 5.77889542569035 193.428410180398
0

0101000
+86 0 -78 0 *
Ed
 1e-007 1 1 0
1  25 0 0 199.207305606088
0

0101000
+88 14 -76 14 *
Wi

0101000
-82 0 +83 0 -40 0 +39 13 +77 0 -75 0 *
Fa
0  1e-007 17 0

0111000
+38 0 *
Ve
1.00000016758117e-007
25.883892642209 214.689295789431 0
0 0

0101101
*
Ed
 1e-007 1 1 0
1  36 0 5.77889542569033 193.428410180398
0

0101000
+70 0 -36 0 *
Ed
 1e-007 1 1 0
1  37 0 0 96
2  13 16 0 0 96
2  14 13 0 0 96
0

0101000
+36 0 -78 0 *
Wi

0101000
-35 0 -34 0 -74 0 -69 0 *
Fa
0  1e-007 13 0

0111000
+33 0 *
Ve
1e-007
27.4781446602293 227.912532641431 0
0 0

0101101
*
Ed
 1e-007 1 1 0
1  36 0 0 199.207305606088
0

0101000
+65 12 -31 12 *
Ed
 1e-007 1 1 0
1  38 0 0 96
0

0101000
+31 12 -76 12 *
Wi

0101000
-30 11 +63 7 -29 11 -73 11 *
Fa
0  1e-007 13 11

0111000
+28 0 *
Ve
1e-007
-149.761450228134 159.533006632582 0
0 0

0101101
*
Ed
 1e-007 1 1 0
1  39 0 0 12
0

0101000
+26 0 -65 0 *
Ed
 1e-007 1 1 0
1  29 0 193.428410180398 199.207305606088
0

0101000
+70 0 -26 0 *
Wi

0101000
+59 0 +58 0 +64 7 -68 0 -25 0 -24 0 *
Fa
0  1e-007 18 0

0101000
+23 0 *
Ve
1e-007
188.858238855808 110.507184363496 0
0 0

0101101
*
Ed
 1e-007 1 1 0
1  40 0 0 12
0

0101000
+21 0 -45 0 *
Ed
 1e-007 1 1 0
1  41 0 193.428410180398 199.207305606088
0

0101000
+50 0 -21 0 *
Wi

0101000
+20 0 +19 0 +44 9 -48 0 -54 0 +53 0 *
Fa
0  1e-007 19 0

0101000
+18 0 *
Ed
 1e-007 1 1 0
1  41 0 5.77889542569039 193.428410180398
0

0101000
+36 0 -50 0 *
Wi

0101000
-16 0 +49 0 -40 0 +34 0 *
Fa
0  1e-007 16 0

0111000
+15 0 *
Ed
 1e-007 1 1 0
1  41 0 0 199.207305606088
0

0101000
+31 14 -45 14 *
Wi

0101000
-13 13 +29 11 -43 13 -39 13 *
Fa
0  1e-007 16 13

0101000
+12 0 *
Ve
1e-007
31.3531901493176 216.5554193437 0
0 0

0101101
*
Ed
 1e-007 1 1 0
1  42 0 0 12
0

0101000
+10 0 -31 0 *
Ed
 1e-007 1 1 0
1  36 0 193.428410180398 199.207305606088
0

0101000
+36 0 -10 0 *
Wi

0101000
+25 0 +24 0 +30 11 -35 0 -9 0 -8 0 *
Fa
0  1e-007 20 0

0101000
+7 0 *
Wi

0101000
+9 0 +8 0 +13 13 -16 0 -20 0 -19 0 *
Fa
0  1e-007 21 0

0101000
+5 0 *
Sh

0101100
+158 0 +149 0 +142 0 -135 0 +126 0 +117 0 +112 0 -107 0 +99 0 -94 0 
+89 0 +80 0 +71 0 +66 0 -61 0 +56 0 +51 0 +46 0 -41 0 +37 0 
-32 0 +27 0 +22 0 +17 0 -14 0 +11 0 +6 0 +4 0 *
So

0100000
+3 0 *
Co

1100000
+2 0 *

+1 0 