DBRep_DrawableShape

CASCADE Topology V1, (c) Matra-Datavision
Locations 0
Curve2ds 24
1 0 0 1 0 
1 1 0 0 1 
1 1 0 0 1 
1 0 1 1 0 
1 0 0 0 1 
1 6 0 0 1 
1 0 0 1 0 
1 2 0 0 1 
1 2 0 0 1 
1 0 1 1 0 
1 0 0 1 0 
1 3 0 0 1 
1 3 0 0 1 
1 0 1 1 0 
1 0 0 1 0 
1 4 0 0 1 
1 4 0 0 1 
1 0 1 1 0 
1 0 0 1 0 
1 5 0 0 1 
1 5 0 0 1 
1 0 1 1 0 
1 0 0 1 0 
1 0 1 1 0 
Curves 18
7 0 0  8 9 2  126.46928612771829 76.062258863373827 -10.166054119540165  126.37089919438237 76.11403042564362 -8.8952973545976448  126.27251226104647 76.165801987913426 -7.6245405896551217  126.17412532771056 76.217573550183204 -6.3537838247126013  126.07573839437464 76.269345112452982 -5.0830270597700826  125.97735146103871 76.321116674722759 -3.8122702948275613  125.87896452770282 76.372888236992566 -2.5415135298850413  125.78057759436689 76.424659799262344 -1.2707567649425204  125.68219066103097 76.476431361532136 0 
 0 9 1 9
7 1 0  4 5 2  125.68219066103097 76.476431361532136 0  1 143.44836207158696 98.115713683891158 0  1.0000000000000027 149.34676518137172 102.82697194374255 0  0.99999999999999489 161.93152283981343 117.59111834014436 0  1.0000000000000031 176.26584199598958 133.09223351754289 0  1
 0 5 1 5
7 0 0  8 9 2  176.78078010147993 132.53007311888834 -8.7137606738915725  176.71641283829362 132.60034316872014 -7.6245405896551279  176.65204557510734 132.67061321855192 -6.5353205054186798  176.58767831192105 132.74088326838375 -5.4461004211822326  176.52331104873477 132.81115331821562 -4.3568803369457862  176.45894378554848 132.88142336804745 -3.2676602527093408  176.3945765223622 132.95169341787928 -2.1784401684728936  176.33020925917589 133.02196346771106 -1.0892200842364468  176.26584199598958 133.09223351754289 0 
 0 9 1 9
7 1 0  4 5 2  126.46928612771829 76.062258863373827 -10.166054119540165  1 143.90979751337622 97.298796406009359 -9.8353092480136137  1.0000000000000027 150.07120073385138 102.42712642829063 -9.4364648623424738  0.99999999999999489 162.60111983416715 117.14167934193667 -9.0624701888661345  1.0000000000000031 176.78078010147993 132.53007311888834 -8.7137606738915725  1
 0 5 1 5
7 0 0  8 9 2  125.68219066103097 76.476431361532136 0  130.35127152379175 74.019544024635508 0  135.02035238655247 71.562656687738922 0  139.68943324931317 69.105769350842323 0  144.35851411207395 66.648882013945681 0  149.02759497483464 64.191994677049067 0  153.69667583759539 61.73510734015246 0  158.36575670035609 59.278220003255853 0  163.03483756311684 56.821332666359247 0 
 1 9 2 9
7 1 0  4 5 2  163.03483756311684 56.821332666359247 0  1 165.46611378436521 59.252431120436682 4.1877010749101972e-015  1.0000000000000027 183.9331589527504 83.578783381262156 -1.05742434564365e-014  0.99999999999999489 194.191858368938 96.038409020822684 1.0713908677109252e-014  1.0000000000000031 201.15587636490071 105.91966366076745 3.5527136788005009e-015  1
 0 5 1 5
7 0 0  8 9 2  176.26584199598958 133.09223351754289 0  179.37709629210352 129.69566228544596 4.4408920985006252e-016  182.48835058821737 126.299091053349 8.8817841970012504e-016  185.59960488433128 122.90251982125211 1.3322676295501877e-015  188.71085918044511 119.50594858915518 1.7763568394002499e-015  191.82211347655903 116.10937735705824 2.2204460492503123e-015  194.93336777267291 112.71280612496132 2.6645352591003749e-015  198.04462206878677 109.3162348928644 3.1086244689504375e-015  201.15587636490071 105.91966366076745 3.5527136788005009e-015 
 1 9 2 9
7 0 0  8 9 2  163.03483756311684 56.821332666359247 0  162.26545084156959 57.226186758397461 -1.5058513503663731  161.49606412002225 57.631040850435667 -3.0117027007327466  160.72667739847492 58.035894942473874 -4.5175540510991201  159.95729067692761 58.440749034512088 -6.0234054014654941  159.18790395538028 58.845603126550301 -7.5292567518318663  158.418517233833 59.250457218588508 -9.0351081021982385  157.64913051228567 59.655311310626736 -10.540959452564614  156.87974379073844 60.060165402664992 -12.046810802930999 
 2 9 3 9
7 1 0  4 5 2  156.87974379073844 60.060165402664992 -12.046810802930999  1 161.8628687733883 65.636600679382283 -11.643422507374758  1.0000000000000027 178.27704502877799 86.693757924739046 -11.15697760443339  0.99999999999999489 188.97654996530426 99.543326945077865 -10.70084030082406  1.0000000000000031 197.14866990536669 110.29435016534754 -10.275541682464217  1
 0 5 1 5
7 0 0  8 9 2  201.15587636490071 105.91966366076745 3.5527136788005009e-015  200.65497555745895 106.46649947383996 -1.2844427103080236  200.15407475001714 107.01333528691245 -2.5688854206160494  199.65317394257539 107.56017109998498 -3.8533281309240768  199.15227313513367 108.10700691305749 -5.1377708412321041  198.65137232769194 108.65384272613002 -6.4222135515401302  198.15047152025019 109.20067853920254 -7.7066562618481562  197.64957071280838 109.74751435227503 -8.991098972156184  197.14866990536669 110.29435016534754 -10.275541682464217 
 2 9 3 9
7 0 0  8 9 2  156.87974379073844 60.060165402664992 -12.046810802930999  156.65348463829682 60.179223791849807 -12.489647468415164  156.36859843693031 60.329131947470785 -12.894235551143279  156.0309934018087 60.506780945220058 -13.249013545093931  155.64871858940251 60.707935342287463 -13.543814418623967  155.23164665366551 60.927400112249209 -13.770510015978722  154.79094331643739 61.159299811655941 -13.923502986741754  154.338425089342 61.39741654908957 -13.999999999999963  153.88590678445829 61.635533327458795 -14 
 3 9 4 9
7 1 0  4 5 2  153.88590678445829 61.635533327458795 -14  1 160.09217593819338 68.756262620302763 -13.544520602888419  1.0000000000000027 175.49460827855108 88.25009416721133 -12.995259175225685  0.99999999999999489 186.36679751193591 101.28193385078575 -12.480219085226002  1.0000000000000031 195.13118195501781 112.49685143366766 -12  1
 0 5 1 5
7 0 0  8 9 2  197.14866990536669 110.29435016534754 -10.275541682464217  196.99619830696238 110.4608041403558 -10.666519357463523  196.8042190919067 110.67038876988582 -11.02372760205342  196.57671369033878 110.91875750755955 -11.336958836111119  196.31910620331396 111.19998883625323 -11.597236652074283  196.03804961840009 111.50681965754137 -11.797384752931169  195.74106829621172 111.83103559086275 -11.932461273604176  195.43612515182554 112.16394348365073 -12.000000000000036  195.13118195501781 112.49685143366766 -12 
 3 9 4 9
7 0 0  8 9 2  153.88590678445829 61.635533327458795 -14  150.92166478589979 63.195328251517864 -14  147.95742278734122 64.755123175576941 -14  144.99318078878269 66.314918099636003 -14  142.02893879022417 67.874713023695065 -14  139.06469679166568 69.434507947754128 -14  136.1004547931071 70.994302871813204 -14  133.13621279454861 72.554097795872281 -14  130.17197079599006 74.113892719931357 -14 
 4 9 5 9
7 1 0  4 5 2  130.17197079599006 74.113892719931357 -14  1 146.08049980811168 93.455822830271728 -13.544520602888495  1.0000000000000027 153.47911823158577 100.5461578261378 -12.995259175225565  0.99999999999999489 165.75106368450105 115.02741117699112 -12.480219085226054  1.0000000000000031 179.20317167785734 129.88553662070663 -11.999999999999995  1
 0 5 1 5
7 0 0  8 9 2  195.13118195501781 112.49685143366766 -12  193.14018067037276 114.67043708204756 -12  191.14917938572765 116.84402273042741 -12  189.1581781010826 119.0176083788073 -12  187.16717681643757 121.19119402718719 -12  185.17617553179252 123.36477967556705 -12  183.1851742471475 125.53836532394695 -12  181.19417296250248 127.7119509723268 -12  179.20317167785734 129.88553662070663 -11.999999999999995 
 4 9 5 9
7 0 0  8 9 2  130.17197079599006 74.113892719931357 -14  129.48271756898583 74.476580275602785 -14.000000000000075  128.79346419953541 74.83926790622381 -13.8349353036045  128.14032970706322 75.182949652387819 -13.504806948935256  127.5594273329389 75.488622595059667 -13.021720430083811  127.08291334392109 75.73936598973377 -12.409904878517002  126.73495054177906 75.922465282159123 -11.703446758102174  126.52935850465954 76.030648560074837 -10.941943526755539  126.46928612771831 76.062258863373813 -10.166054119540167 
 5 9 6 9
7 0 0  8 9 2  179.20317167785734 129.88553662070663 -11.999999999999995  178.75224448295296 130.37781600137598 -12.000000000000135  178.30131719484822 130.87009548377199 -11.858515974518006  177.87401980538564 131.33657809257454 -11.575548813373285  177.49397852617409 131.75147097917019 -11.161474654357367  177.18223081434505 132.0918074508981 -10.637061324443202  176.95458459643652 132.34032991842454 -10.031525792659039  176.82008099607822 132.48716814382772 -9.3788087372190212  176.78078010148002 132.53007311888831 -8.7137606738915778 
 5 9 6 9
Polygon3D 0
PolygonOnTriangulations 36
2 1 2 
p 0.309047986376869 1 0 1 
2 1 2 
p 0.309047986376869 1 0 1 
4 2 4 5 3 
p 0.309047986376869 1 0 0.256215659846254 0.628107829923127 1 
4 1 8 9 7 
p 0.309047986376869 1 0 0.256215659846254 0.628107829923127 1 
2 6 3 
p 0.309047986376869 1 0 1 
2 1 2 
p 0.309047986376869 1 0 1 
4 1 7 8 6 
p 0.309047986376869 1 0 0.258878613265908 0.629439306632954 1 
4 2 13 14 12 
p 0.309047986376869 1 0 0.258878613265908 0.629439306632954 1 
2 1 2 
p 0.309047986376869 1 1 2 
2 2 3 
p 0.309047986376869 1 1 2 
5 2 4 5 6 3 
p 0.309047986376869 1 0 0.210216820743633 0.490505915068477 0.745252957534239 1 
5 1 7 8 9 6 
p 0.309047986376869 1 0 0.210216820743633 0.490505915068477 0.745252957534239 1 
2 7 3 
p 0.309047986376869 1 1 2 
2 2 3 
p 0.309047986376869 1 1 2 
2 1 2 
p 0.309047986376869 1 2 3 
2 3 4 
p 0.309047986376869 1 2 3 
4 2 4 5 3 
p 0.309047986376869 1 0 0.300555452589748 0.650277726294874 1 
4 1 17 18 11 
p 0.309047986376869 1 0 0.300555452589748 0.650277726294874 1 
2 6 3 
p 0.309047986376869 1 2 3 
2 3 4 
p 0.309047986376869 1 2 3 
7 1 3 4 5 6 7 2 
p 0.309047986376869 1 3 3.16666666666667 3.33333333333333 3.5 3.66666666666667 3.83333333333333 4 
7 4 6 7 8 9 10 5 
p 0.309047986376869 1 3 3.16666666666667 3.33333333333333 3.5 3.66666666666667 3.83333333333333 4 
4 2 9 10 8 
p 0.309047986376869 1 0 0.366887272636011 0.683443636318005 1 
4 1 7 8 6 
p 0.309047986376869 1 0 0.366887272636011 0.683443636318005 1 
7 11 12 13 14 15 16 8 
p 0.309047986376869 1 3 3.16666666666667 3.33333333333333 3.5 3.66666666666667 3.83333333333333 4 
7 4 6 7 8 9 10 5 
p 0.309047986376869 1 3 3.16666666666667 3.33333333333333 3.5 3.66666666666667 3.83333333333333 4 
2 1 2 
p 0.309047986376869 1 4 5 
2 5 11 
p 0.309047986376869 1 4 5 
4 2 4 5 3 
p 0.309047986376869 1 0 0.333280727722054 0.666640363861027 1 
4 1 25 26 15 
p 0.309047986376869 1 0 0.333280727722054 0.666640363861027 1 
2 6 3 
p 0.309047986376869 1 4 5 
2 5 11 
p 0.309047986376869 1 4 5 
11 1 3 4 5 6 7 8 9 10 11 2 
p 0.309047986376869 1 5 5.10935 5.2187 5.32805 5.4374 5.54675 5.6561 5.76545 5.8748 5.9374 6 
11 11 12 13 14 15 16 17 18 19 20 1 
p 0.309047986376869 1 5 5.10935 5.2187 5.32805 5.4374 5.54675 5.6561 5.76545 5.8748 5.9374 6 
11 15 16 17 18 19 20 21 22 23 24 12 
p 0.309047986376869 1 5 5.10935 5.2187 5.32805 5.4374 5.54675 5.6561 5.76545 5.8748 5.9374 6 
11 11 12 13 14 15 16 17 18 19 20 1 
p 0.309047986376869 1 5 5.10935 5.2187 5.32805 5.4374 5.54675 5.6561 5.76545 5.8748 5.9374 6 
Surfaces 8
9 1 0 0 0 8 4 9 5 2 2 126.46928612771829 76.062258863373827 -10.166054119540165  1 143.90979751337622 97.298796406009359 -9.8353092480136137  1.0000000000000027 150.07120073385138 102.42712642829063 -9.4364648623424738  0.99999999999999489 162.60111983416715 117.14167934193667 -9.0624701888661345  1.0000000000000031 176.78078010147993 132.53007311888834 -8.7137606738915725  1 
126.37089919438237 76.11403042564362 -8.8952973545976448  1 143.85211808315287 97.400911065744822 -8.6058955920119438  1.0000000000000027 149.980646289791 102.47710711772184 -8.2569067545496004  0.99999999999999489 162.51742020987308 117.19785921671276 -7.9296614152579057  1.0000000000000031 176.71641283829362 132.60034316872014 -7.6245405896551279  1 
126.27251226104647 76.165801987913426 -7.6245405896551217  1 143.79443865292856 97.503025725479461 -7.3764819360102596  1.0000000000000027 149.89009184573214 102.5270878071543 -7.0773486467567688  0.99999999999999489 162.43372058557821 117.25403909148824 -6.796852641649652  1.0000000000000031 176.65204557510734 132.67061321855192 -6.5353205054186798  1 
126.17412532771056 76.217573550183204 -6.3537838247126013  1 143.73675922270522 97.605140385214867 -6.1470682800085434  1.0000000000000027 149.79953740167142 102.57706849658545 -5.8977905389639833  0.99999999999999489 162.35002096128454 117.31021896626432 -5.6640438680413725  1.0000000000000031 176.58767831192105 132.74088326838375 -5.4461004211822326  1 
126.07573839437464 76.269345112452982 -5.0830270597700826  1 143.67907979248221 97.707255044951168 -4.9176546240068228  1.0000000000000027 149.7089829576104 102.62704918601507 -4.7182324311712112  0.99999999999999489 162.2663213369909 117.36639884104123 -4.5312350944330797  1.0000000000000031 176.52331104873477 132.81115331821562 -4.3568803369457862  1 
125.97735146103871 76.321116674722759 -3.8122702948275613  1 143.6214003622579 97.809369704685636 -3.6882409680050987  1.0000000000000027 149.61842851355158 102.67702987544787 -3.5386743233784403  0.99999999999999489 162.182621712696 117.4225787158165 -3.398426320824794  1.0000000000000031 176.45894378554848 132.88142336804745 -3.2676602527093408  1 
125.87896452770282 76.372888236992566 -2.5415135298850413  1 143.56372093203436 97.911484364420616 -2.4588273120034052  1.0000000000000027 149.52787406949156 102.72701056487973 -2.3591162155856185  0.99999999999999489 162.09892208840196 117.47875859059218 -2.2656175472165336  1.0000000000000031 176.3945765223622 132.95169341787928 -2.1784401684728936  1 
125.78057759436689 76.424659799262344 -1.2707567649425204  1 143.50604150181024 98.013599024156093 -1.2294136560017057  1.0000000000000027 149.43731962543256 102.77699125431074 -1.1795581077928028  0.99999999999999489 162.01522246410707 117.53493846536848 -1.1328087736082699  1.0000000000000031 176.33020925917589 133.02196346771106 -1.0892200842364468  1 
125.68219066103097 76.476431361532136 0  1 143.44836207158696 98.115713683891158 0  1.0000000000000027 149.34676518137172 102.82697194374255 0  0.99999999999999489 161.93152283981343 117.59111834014436 0  1.0000000000000031 176.26584199598958 133.09223351754289 0  1 

0 9
1 9

0 5
1 5

9 1 0 0 0 8 4 9 5 2 2 125.68219066103097 76.476431361532136 0  1 143.44836207158696 98.115713683891158 0  1.0000000000000027 149.34676518137172 102.82697194374255 0  0.99999999999999489 161.93152283981343 117.59111834014436 0  1.0000000000000031 176.26584199598958 133.09223351754289 0  1 
130.35127152379175 74.019544024635508 0  1 146.20058103568363 93.25780336345936 5.2346263436377436e-016  1.0000000000000027 153.67006440279528 100.42094837343259 -1.3217804320545619e-015  0.99999999999999489 165.96406478095329 114.89702967522901 1.3392385846386559e-015  1.0000000000000031 179.37709629210352 129.69566228544596 4.4408920985006252e-016  1 
135.02035238655247 71.562656687738922 0  1 148.95279999978212 88.399893043028058 1.0469252687275487e-015  1.0000000000000027 157.99336362421539 98.014924803121531 -2.6435608641091237e-015  0.99999999999999489 169.99660672209518 112.20294101031445 2.6784771692773117e-015  1.0000000000000031 182.48835058821737 126.299091053349 8.8817841970012504e-016  1 
139.68943324931317 69.105769350842323 0  1 151.70501896387893 83.541982722596117 1.5703879030913237e-015  1.0000000000000027 162.31666284563838 95.608901232811689 -3.965341296163687e-015  0.99999999999999489 174.02914866323545 109.50885234539909 4.017715753915968e-015  1.0000000000000031 185.59960488433128 122.90251982125211 1.3322676295501877e-015  1 
144.35851411207395 66.648882013945681 0  1 154.45723792797628 78.684072402164105 2.0938505374550974e-015  1.0000000000000027 166.63996206706065 93.202877662501933 -5.2871217282182475e-015  0.99999999999999489 178.06169060437614 106.81476368048374 5.3569543385546234e-015  1.0000000000000031 188.71085918044511 119.50594858915518 1.7763568394002499e-015  1 
149.02759497483464 64.191994677049067 0  1 157.20945689207286 73.826162081732534 2.617313171818872e-015  1.0000000000000027 170.96326128848418 90.796854092191509 -6.6089021602728088e-015  0.99999999999999489 182.09423254551598 104.12067501556876 6.6961929231932781e-015  1.0000000000000031 191.82211347655903 116.10937735705824 2.2204460492503123e-015  1 
153.69667583759539 61.73510734015246 0  1 159.96167585617096 68.968251761300323 3.1407758061826446e-015  1.0000000000000027 175.28656050990517 88.390830521882151 -7.9306825923273693e-015  0.99999999999999489 186.12677448665747 101.42658635065321 8.0354315078319328e-015  1.0000000000000031 194.93336777267291 112.71280612496132 2.6645352591003749e-015  1 
158.36575670035609 59.278220003255853 0  1 162.71389482026851 64.110341440868638 3.6642384405464211e-015  1.0000000000000027 179.60985973132711 85.984806951571997 -9.2524630243819329e-015  0.99999999999999489 190.15931642779813 98.732497685738039 9.3746700924705898e-015  1.0000000000000031 198.04462206878677 109.3162348928644 3.1086244689504375e-015  1 
163.03483756311684 56.821332666359247 0  1 165.46611378436521 59.252431120436682 4.1877010749101972e-015  1.0000000000000027 183.9331589527504 83.578783381262156 -1.05742434564365e-014  0.99999999999999489 194.191858368938 96.038409020822684 1.0713908677109252e-014  1.0000000000000031 201.15587636490071 105.91966366076745 3.5527136788005009e-015  1 

1 9
2 9

0 5
1 5

9 1 0 0 0 8 4 9 5 2 2 130.17197079599006 74.113892719931357 -14  1 146.08049980811168 93.455822830271728 -13.544520602888495  1.0000000000000027 153.47911823158577 100.5461578261378 -12.995259175225565  0.99999999999999489 165.75106368450105 115.02741117699112 -12.480219085226054  1.0000000000000031 179.20317167785734 129.88553662070663 -11.999999999999995  1 
129.48271756898583 74.476580275602785 -14.000000000000075  1 145.67642446939811 94.171190779663519 -13.544520602889246  1.0000000000000027 152.84473579204462 100.89629935723281 -12.995259175224676  0.99999999999999489 165.1647029332519 115.4209813256806 -12.480219085226283  1.0000000000000031 178.75224448295296 130.37781600137598 -12.000000000000135  1 
128.79346419953541 74.83926790622381 -13.8349353036045  1 145.27234904712915 94.886558876877487 -13.384826161376225  1.0000000000000027 152.21035322144706 101.24644096070952 -12.842040710204637  0.99999999999999489 164.57834206082367 115.81455155571132 -12.333073115636145  1.0000000000000031 178.30131719484822 130.87009548377199 -11.858515974518006  1 
128.14032970706322 75.182949652387819 -13.504806948935256  1 144.8894483498525 95.5644396096354 -13.065438282710584  1.0000000000000027 151.60921413859282 101.57823412790454 -12.535604743765433  0.99999999999999489 164.02270819989715 116.18749756341852 -12.038782101886422  1.0000000000000031 177.87401980538564 131.33657809257454 -11.575548813373285  1 
127.5594273329389 75.488622595059667 -13.021720430083811  1 144.54889379824237 96.167351462429806 -12.598068617874748  1.0000000000000027 151.07455684471151 101.87333328560096 -12.087187992597778  0.99999999999999489 163.52852356768267 116.5191983445045 -11.608137416713506  1.0000000000000031 177.49397852617409 131.75147097917019 -11.161474654357367  1 
127.08291334392109 75.73936598973377 -12.409904878517002  1 144.26953703370566 96.66191981822999 -12.006158021929968  1.0000000000000027 150.63597767663168 102.11540300850861 -11.519280731153431  0.99999999999999489 163.12314410823873 116.79129236475464 -11.062737979337573  1.0000000000000031 177.18223081434505 132.0918074508981 -10.637061324443202  1 
126.73495054177906 75.922465282159123 -11.703446758102174  1 144.06554352061619 97.023066384483144 -11.322683981420941  1.0000000000000027 150.31571585905931 102.29216856223066 -10.863523133216438  0.99999999999999489 162.8271255738681 116.98998243455023 -10.432969970955998  1.0000000000000031 176.95458459643652 132.34032991842454 -10.031525792659039  1 
126.52935850465954 76.030648560074837 -10.941943526755539  1 143.94501499965449 97.236447981044392 -10.585955680985027  1.0000000000000027 150.12649080655075 102.39660958307952 -10.156670857918602  0.99999999999999489 162.65222454095999 117.10737744330319 -9.7541323165773086  1.0000000000000031 176.82008099607822 132.48716814382772 -9.3788087372190212  1 
126.46928612771831 76.062258863373813 -10.166054119540167  1 143.90979751337611 97.298796406008762 -9.8353092480136297  1.0000000000000027 150.07120073385138 102.42712642829154 -9.4364648623424596  0.99999999999999489 162.60111983416715 117.14167934193625 -9.0624701888661345  1.0000000000000031 176.78078010148002 132.53007311888831 -8.7137606738915778  1 

5 9
6 9

0 5
1 5

9 1 0 0 0 8 4 9 5 2 2 163.03483756311684 56.821332666359247 0  1 165.46611378436521 59.252431120436682 4.1877010749101972e-015  1.0000000000000027 183.9331589527504 83.578783381262156 -1.05742434564365e-014  0.99999999999999489 194.191858368938 96.038409020822684 1.0713908677109252e-014  1.0000000000000031 201.15587636490071 105.91966366076745 3.5527136788005009e-015  1 
162.26545084156959 57.226186758397461 -1.5058513503663731  1 165.01570815799258 60.050452315305044 -1.4554278134218397  1.0000000000000027 183.2261447122543 83.968155199196474 -1.3946222005541851  0.99999999999999489 193.53994481848383 96.476523761354741 -1.337605037602998  1.0000000000000031 200.65497555745895 106.46649947383996 -1.2844427103080236  1 
161.49606412002225 57.631040850435667 -3.0117027007327466  1 164.56530253162205 60.848473510173413 -2.9108556268436763  1.0000000000000027 182.51913047175523 84.357527017130735 -2.7892444011083692  0.99999999999999489 192.88803126803089 96.914638501886785 -2.6752100752060026  1.0000000000000031 200.15407475001714 107.01333528691245 -2.5688854206160494  1 
160.72667739847492 58.035894942473874 -4.5175540510991201  1 164.11489690524922 61.646494705041199 -4.3662834402654882  1.0000000000000027 181.81211623125998 84.746898835066077 -4.1838666016625972  0.99999999999999489 192.23611771757589 97.352753242418231 -4.0128151128089815  1.0000000000000031 199.65317394257539 107.56017109998498 -3.8533281309240768  1 
159.95729067692761 58.440749034512088 -6.0234054014654941  1 163.66449127887725 62.444515899909582 -5.8217112536873641  1.0000000000000027 181.10510199076325 85.136270653000409 -5.5784888022167074  0.99999999999999489 191.58420416712175 97.790867982950289 -5.3504201504120301  1.0000000000000031 199.15227313513367 108.10700691305749 -5.1377708412321041  1 
159.18790395538028 58.845603126550301 -7.5292567518318663  1 163.21408565250442 63.242537094777504 -7.2771390671092009  1.0000000000000027 180.3980877502679 85.525642470935324 -6.9731110027709011  0.99999999999999489 190.93229061666676 98.228982723482133 -6.688025188015029  1.0000000000000031 198.65137232769194 108.65384272613002 -6.4222135515401302  1 
158.418517233833 59.250457218588508 -9.0351081021982385  1 162.7636800261325 64.040558289645091 -8.732566880531067  1.0000000000000027 179.69107350977083 85.915014288870978 -8.3677332033250327  0.99999999999999489 190.28037706621299 98.667097464013352 -8.025630225618066  1.0000000000000031 198.15047152025019 109.20067853920254 -7.7066562618481562  1 
157.64913051228567 59.655311310626736 -10.540959452564614  1 162.31327439976033 64.838579484513573 -10.187994693952895  1.0000000000000027 178.98405926927455 86.304386106805211 -9.7623554038792371  0.99999999999999489 189.62846351575843 99.10521220454541 -9.3632352632210516  1.0000000000000031 197.64957071280838 109.74751435227503 -8.991098972156184  1 
156.87974379073844 60.060165402664992 -12.046810802930999  1 161.8628687733883 65.636600679382283 -11.643422507374758  1.0000000000000027 178.27704502877799 86.693757924739046 -11.15697760443339  0.99999999999999489 188.97654996530426 99.543326945077865 -10.70084030082406  1.0000000000000031 197.14866990536669 110.29435016534754 -10.275541682464217  1 

2 9
3 9

0 5
1 5

9 1 0 0 0 8 4 9 5 2 2 156.87974379073844 60.060165402664992 -12.046810802930999  1 161.8628687733883 65.636600679382283 -11.643422507374758  1.0000000000000027 178.27704502877799 86.693757924739046 -11.15697760443339  0.99999999999999489 188.97654996530426 99.543326945077865 -10.70084030082406  1.0000000000000031 197.14866990536669 110.29435016534754 -10.275541682464217  1 
156.65348463829682 60.179223791849807 -12.489647468415164  1 161.72904870927727 65.872369047928373 -12.074448821998697  1.0000000000000027 178.06676244508265 86.811377995033709 -11.573761847481373  0.99999999999999489 188.77931799277462 99.674722115921739 -11.104269814309152  1.0000000000000031 196.99619830696238 110.4608041403558 -10.666519357463523  1 
156.36859843693031 60.329131947470785 -12.894235551143279  1 161.560553913277 66.169228442080268 -12.468246634670903  1.0000000000000027 177.80199257464426 86.959475142359011 -11.954547701386165  0.99999999999999489 188.53098033732093 99.84016369339659 -11.472854410163265  1.0000000000000031 196.8042190919067 110.67038876988582 -11.02372760205342  1 
156.0309934018087 60.506780945220058 -13.249013545093931  1 161.36087877547473 66.52102233632128 -12.813562782048429  1.0000000000000027 177.48822644279676 87.13497800062224 -12.288453832434827  0.99999999999999489 188.23668723892362 100.03622060773544 -11.796061417736214  1.0000000000000031 196.57671369033878 110.91875750755955 -11.336958836111119  1 
155.64871858940251 60.707935342287463 -13.543814418623967  1 161.1347838778604 66.919363388530357 -13.100501384854679  1.0000000000000027 177.1329447476096 87.333702294527157 -12.565911343298456  0.99999999999999489 187.90345512660573 100.25821854126536 -12.064628549261244  1.0000000000000031 196.31910620331396 111.19998883625323 -11.597236652074283  1 
155.23164665366551 60.927400112249209 -13.770510015978722  1 160.88810836184661 67.353964017021866 -13.321151063359107  1.0000000000000027 176.74532301702817 87.550515757636745 -12.779270263890476  0.99999999999999489 187.53989007438696 100.50042416104958 -12.271150957359565  1.0000000000000031 196.03804961840009 111.50681965754137 -11.797384752931169  1 
154.79094331643739 61.159299811655941 -13.923502986741754  1 160.6274561486432 67.81318922718792 -13.470063747180193  1.0000000000000027 176.33573854101024 87.779613926459263 -12.923262540232299  0.99999999999999489 187.15572533424822 100.75635321259176 -12.41052938866925  1.0000000000000031 195.74106829621172 111.83103559086275 -11.932461273604176  1 
154.338425089342 61.39741654908957 -13.999999999999963  1 160.35981606642014 68.28472588321273 -13.544520602888428  1.0000000000000027 175.91517344593507 88.014854026618281 -12.995259175225561  0.99999999999999489 186.76126145699598 101.01914350909985 -12.480219085226103  1.0000000000000031 195.43612515182554 112.16394348365073 -12.000000000000036  1 
153.88590678445829 61.635533327458795 -14  1 160.09217593819338 68.756262620302763 -13.544520602888419  1.0000000000000027 175.49460827855108 88.25009416721133 -12.995259175225685  0.99999999999999489 186.36679751193591 101.28193385078575 -12.480219085226002  1.0000000000000031 195.13118195501781 112.49685143366766 -12  1 

3 9
4 9

0 5
1 5

9 1 0 0 0 8 4 9 5 2 2 153.88590678445829 61.635533327458795 -14  1 160.09217593819338 68.756262620302763 -13.544520602888419  1.0000000000000027 175.49460827855108 88.25009416721133 -12.995259175225685  0.99999999999999489 186.36679751193591 101.28193385078575 -12.480219085226002  1.0000000000000031 195.13118195501781 112.49685143366766 -12  1 
150.92166478589979 63.195328251517864 -14  1 158.34071642193237 71.843707646548623 -13.544520602888419  1.0000000000000027 172.74267202268189 89.787102124577586 -12.995259175225685  0.99999999999999489 183.78983078350564 103.00011851656123 -12.480219085226002  1.0000000000000031 193.14018067037276 114.67043708204756 -12  1 
147.95742278734122 64.755123175576941 -14  1 156.5892569056717 74.931152672795704 -13.544520602888419  1.0000000000000027 169.99073576681164 91.324110081941811 -12.995259175225685  0.99999999999999489 181.21286405507615 104.71830318233775 -12.480219085226002  1.0000000000000031 191.14917938572765 116.84402273042741 -12  1 
144.99318078878269 66.314918099636003 -14  1 154.83779738941143 78.018597699041166 -13.544520602888419  1.0000000000000027 167.23879951094153 92.861118039308892 -12.995259175225685  0.99999999999999489 178.63589732664627 106.43648784811263 -12.480219085226002  1.0000000000000031 189.1581781010826 119.0176083788073 -12  1 
142.02893879022417 67.874713023695065 -14  1 153.08633787315267 81.106042725287551 -13.544520602888419  1.0000000000000027 164.48686325506844 94.39812599667431 -12.995259175225685  0.99999999999999489 176.05893059821847 108.15467251388853 -12.480219085226002  1.0000000000000031 187.16717681643757 121.19119402718719 -12  1 
139.06469679166568 69.434507947754128 -14  1 151.33487835689141 84.193487751533482 -13.544520602888419  1.0000000000000027 161.7349269991995 95.935133954040452 -12.995259175225685  0.99999999999999489 173.48196386978819 109.87285717966402 -12.480219085226002  1.0000000000000031 185.17617553179252 123.36477967556705 -12  1 
136.1004547931071 70.994302871813204 -14  1 149.58341884063128 87.280932777779839 -13.544520602888419  1.0000000000000027 158.9829907433286 97.472141911405899 -12.995259175225685  0.99999999999999489 170.90499714135913 111.59104184543993 -12.480219085226002  1.0000000000000031 183.1851742471475 125.53836532394695 -12  1 
133.13621279454861 72.554097795872281 -14  1 147.83195932437056 90.368377804025755 -13.544520602888419  1.0000000000000027 156.23105448745883 99.009149868771885 -12.995259175225685  0.99999999999999489 168.32803041292928 113.30922651121563 -12.480219085226002  1.0000000000000031 181.19417296250248 127.7119509723268 -12  1 
130.17197079599006 74.113892719931357 -14  1 146.08049980811168 93.455822830271728 -13.544520602888495  1.0000000000000027 153.47911823158577 100.5461578261378 -12.995259175225565  0.99999999999999489 165.75106368450105 115.02741117699112 -12.480219085226054  1.0000000000000031 179.20317167785734 129.88553662070663 -11.999999999999995  1 

4 9
5 9

0 5
1 5

1 126.46928612771829 76.062258863373827 -10.166054119540165 0.46566871085365946 0.88495912432828838 3.0228076813624688e-015 0.85933142823091269 -0.45218332392929517 0.23891366226081329 0.21142882534439514 -0.11125461711031692 -0.97104081375868345 
1 176.78078010147993 132.53007311888834 -8.7137606738915725 0.73739949943947869 0.67545686629599544 7.1351828762900783e-015 0.65658654074579359 -0.71679867456181812 0.2347206310870289 0.15854366192906805 -0.17308287587168897 -0.97206287108504819 
Triangulations 8
8 6 1 0.111400670906019
126.469286127718 76.0622588633738 -10.1660541195402 125.682190661031 76.4764313615321 0 176.26584199599 133.092233517543 0 140.362676261831 93.6449523413841 0 156.960728810015 111.867153519794 0 176.78078010148 132.530073118888 -8.71376067389157 141.118015956459 93.2034625081972 -9.80221460394699 157.660993111783 111.437358795847 -9.24963203694102 0 0 1 0 1 1 1 0.256215659846254 1 0.628107829923127 0 1 0 0.258878613265908 0 0.629439306632954 4 1 2 4 7 1 5 8 7 5 7 4 3 6 8 3 8 5 
21 20 1 4.77109294237107e-014
126.469286127718 76.0622588633738 -10.1660541195402 125.682190661031 76.4764313615321 0 163.034837563117 56.8213326663592 0 156.879743790738 60.0601654026649 -12.046810802931 153.885906784458 61.6355333274588 -14 156.534111086558 60.2420385890754 -12.6045932312436 156.108014042934 60.4662524036437 -13.0860810736468 155.614399382247 60.7259942339515 -13.4766445247452 155.068265362264 61.0133719421955 -13.7644165630181 154.486205962544 61.3196537159592 -13.9406533295239 130.17197079599 74.1138927199314 -14 129.571653230448 74.4297820069773 -13.9448561795519 128.987099392299 74.7373763633176 -13.7808727586642 128.43365903268 75.0285986940594 -13.5123557472945 127.925864933927 75.2958017962648 -13.1463561357867 127.477051247212 75.5319691910752 -12.692484700815 127.099003338411 75.7308993760891 -12.1626596191424 126.801648355492 75.8873686499286 -11.5707935482934 126.592794546678 75.9972682839727 -10.9324282933644 126.515282851658 76.0380552198928 -10.5524838314639 144.852654065845 66.3888637725059 -5.6445876191461 0 -3.5527136788005e-015 1.56515145200116 -10.0841467376089 42.5511627227172 7.105427357601e-015 32.9192033605589 10.0362456231344 29.1675064412568 11.1246216536897 32.4066884505747 10.4845641778611 31.8241100978078 10.8370745046566 31.1891696378046 11.0830657102753 30.5211594315096 11.2150635332743 29.8403766144031 11.229057229805 3.14686993203739 4.72253692698126 2.501332925332 4.50692144730379 1.89909628188036 4.18987402915178 1.3559740882569 3.7797199778903 0.886228180779983 3.2872295286536 0.502193603500703 2.72533497743261 0.213954692421605 2.10879107212834 0.0290803044758765 1.45378761715576 -0.0475749382498565 0.777524343361675 -0.0418524232443129 0.38765682232744 21.2517938922337 0.572455246098038 6 8 10 4 10 5 4 6 10 21 2 3 21 3 4 21 5 11 21 11 2 21 4 5 17 18 19 17 19 20 16 17 20 15 16 20 12 13 14 12 14 15 12 15 20 11 1 2 11 20 1 11 12 20 8 9 10 6 7 8 
9 7 1 1.97772615527395e-015
125.682190661031 76.4764313615321 0 163.034837563117 56.8213326663592 0 201.155876364901 105.919663660767 0 168.487106166843 63.5005317918546 3.07228607799734e-016 181.197196773734 79.7531901017011 -9.3364454682106e-017 192.574619036025 94.4139085503385 3.53435299523344e-015 176.26584199599 133.092233517543 0 140.362676261831 93.6449523413841 0 156.960728810015 111.867153519794 0 1 0 2 0 2 1 2 0.210216820743633 2 0.490505915068477 2 0.745252957534239 1 1 1 0.256215659846254 1 0.628107829923127 4 1 2 4 8 1 5 9 8 5 8 4 6 7 9 6 9 5 3 7 6 
21 20 1 1.50994520048059e-013
176.78078010148 132.530073118888 -8.71376067389157 176.26584199599 133.092233517543 0 201.155876364901 105.919663660767 0 197.148669905367 110.294350165348 -10.2755416824642 195.131181955018 112.496851433668 -12 196.915754815311 110.548624685882 -10.768004240276 196.628616387472 110.86209508425 -11.1931067935108 196.295979163747 111.225236736232 -11.5379327800475 195.927950175435 111.627015747302 -11.7920048820735 195.535711779405 112.055224284851 -11.9476032021505 179.203171677857 129.885536620707 -12 178.810428480906 130.314296251841 -11.9527338681873 178.42799832 130.731797092078 -11.8121766502836 178.065923397267 131.127076021208 -11.5820192119667 177.733711432826 131.489753415592 -11.2683052592457 177.440085971447 131.810305739578 -10.8792726006986 177.192757302712 132.080315633062 -10.4251368164078 176.998220022239 132.292692914871 -9.91782304139435 176.861582486912 132.441860767302 -9.37065282288376 176.810872341732 132.497221275927 -9.04498614125477 189.03607317917 119.150910907496 -4.85297642646308 5.32907051820075e-014 1.24344978758018e-014 1.30424214648832 -8.64926373002259 37.1239657695907 -1.77635683940025e-015 28.9452368256954 8.59597204236012 25.6370654569516 9.57117876439246 28.4944531507778 8.99373883363751 27.9814464180911 9.30718490616015 27.4218040660489 9.52678631964077 26.8325305589884 9.64587064639495 26.2315306593549 9.66081951933728 2.71476179366522 4.03621004800749 2.16065189756246 3.85378650155567 1.64328103111643 3.58426192451923 1.17623479679742 3.23471372625942 0.77177735364589 2.81432069286516 0.440529337850699 2.33412191586646 0.191188966939073 1.80672689980702 0.0303036622298332 1.24598449159329 -0.0379018843356747 0.666619221921534 -0.0344391333101841 0.332429004204057 18.5430319426275 0.50577789465734 6 7 8 6 10 5 6 8 10 4 6 5 21 2 3 21 3 4 21 5 11 21 11 2 21 4 5 17 18 19 17 19 20 16 17 20 15 16 20 12 13 14 12 14 15 12 15 20 11 1 2 11 20 1 11 12 20 8 9 10 
93 158 1 0.281525776462423
130.17197079599 74.1138927199314 -14 126.469286127718 76.0622588633738 -10.1660541195402 129.571653230448 74.4297820069773 -13.9448561795519 128.987099392299 74.7373763633176 -13.7808727586642 128.43365903268 75.0285986940594 -13.5123557472945 127.925864933927 75.2958017962648 -13.1463561357867 127.477051247212 75.5319691910752 -12.692484700815 127.099003338411 75.7308993760891 -12.1626596191424 126.801648355492 75.8873686499286 -11.5707935482934 126.592794546678 75.9972682839727 -10.9324282933644 126.515282851658 76.0380552198928 -10.5524838314639 176.78078010148 132.530073118888 -8.71376067389157 141.118015956459 93.2034625081972 -9.80221460394699 157.660993111783 111.437358795847 -9.24963203694102 179.203171677857 129.885536620707 -12 178.810428480906 130.314296251841 -11.9527338681873 178.42799832 130.731797092078 -11.8121766502836 178.065923397267 131.127076021208 -11.5820192119667 177.733711432826 131.489753415592 -11.2683052592457 177.440085971447 131.810305739578 -10.8792726006986 177.192757302712 132.080315633062 -10.4251368164078 176.998220022239 132.292692914871 -9.91782304139435 176.861582486912 132.441860767302 -9.37065282288376 176.810872341732 132.497221275927 -9.04498614125477 147.479588689037 94.3136494593499 -13.3476709514504 162.388890254251 111.034593923237 -12.6618980626419 133.595757551468 81.5717590627021 -13.229711137227 133.301925911312 81.7903384601235 -12.9753256887894 133.031632946004 81.9914075943149 -12.682519346616 132.788036991998 82.1726169998525 -12.3547135127737 132.573984435996 82.3318492686527 -11.9957385554881 135.526712325567 84.8173511411023 -12.6716296025361 137.408392590646 85.2431911990442 -13.3856793896849 136.983068891756 85.2075748919779 -13.2486961866084 135.344710740902 84.9669936420221 -12.4357348989505 135.1779633865 85.104094047936 -12.1813848520346 135.027566717452 85.2277508486597 -11.9102519523898 134.894509676097 85.3371509314667 -11.6241190495802 134.779667188222 85.4315749285384 -11.3248676279582 138.162417914879 88.2125525804303 -12.3533687758317 139.307495584514 88.4708427538603 -12.9249847088624 146.668353353288 94.3756030834788 -13.3102459750502 145.868506087043 94.4265477383889 -13.1686808522274 145.091975231481 94.4547582232238 -12.9267403484482 148.814316517129 100.370839737871 -11.7669614092953 143.010281249335 94.2951527344625 -11.6749991021957 142.429375592641 94.1298233376523 -11.1193446065155 141.916524400407 93.8966044827339 -10.5176616374269 141.505910156234 93.5632946351425 -10.1634817041757 153.252872300645 103.10203591285 -12.7067499636119 150.19334800931 100.453662959826 -12.5710059990385 152.951728289351 103.194614692361 -12.5737568618423 152.0021374533 103.355791172605 -12.0148901642013 151.666942454947 103.321027613831 -11.7981646167235 151.346411086809 103.274773967681 -11.5636561119765 151.041553765084 103.216067392428 -11.3129222815881 149.711296511109 100.444430326782 -12.3388762503636 149.250694941753 100.417720238908 -12.0698035794501 155.017637779545 106.021296168651 -12.2523923552798 154.229802090727 106.131851367949 -11.7009981933408 165.753184642133 118.24958055724 -11.6677856083123 166.136224325057 118.179934130865 -11.8917740615874 165.390573716028 118.302564379558 -11.4090529100612 158.105300763654 111.73914970111 -9.93502216723254 157.870202961276 111.597946600247 -9.59548310934573 161.729848195075 111.21555773289 -12.6195874334061 161.083353183363 111.387542556841 -12.4786653480497 160.461891528036 111.540942879833 -12.2428559379932 159.877307138171 111.666630377114 -11.9183811157733 159.340487201094 111.756191636942 -11.5138000489748 158.86107305958 111.802147846841 -11.0397870501817 158.447204008543 111.798150732012 -10.5088536739396 169.371777867382 121.089933442277 -12.0259099723563 169.165117434211 121.263934602369 -11.8965350163376 168.967144795902 121.430620930292 -11.7456683467229 168.779161732904 121.588896370528 -11.5743019967444 168.318995466945 121.788165071594 -11.1463515740762 168.577785253065 121.758448618965 -11.3543809662161 168.676522709385 121.675314989172 -11.4674019209412 168.073587851558 121.806317700742 -10.9216496908353 171.806864383589 124.716287434586 -11.5865699816695 171.572902760467 124.927242344982 -11.3471720978574 171.359461908111 125.11969440307 -11.0751036517798 171.207692248767 125.256539730353 -10.8403130058105 171.1067716817 125.347536231825 -10.6588495405487 139.980916594053 91.1002500808727 -11.5570040128148 140.235164775474 91.2381452332349 -11.7111430484956 144.350049570598 94.4490135162419 -12.5908376917982 143.653092586478 94.3989096549757 -12.1698718590622 140.458555628854 91.967586501141 -11.1112135569179 148.04346713037 97.481547664713 -12.891132847359 156.068059619256 108.915645402227 -10.930336180631 158.724052258868 110.161757876263 -12.0789926671489 5 0 6 0 5.10935 0 5.2187 0 5.32805 0 5.4374 0 5.54675 0 5.6561 0 5.76545 0 5.8748 0 5.9374 0 6 1 6 0.258878613265908 6 0.629439306632954 5 1 5.10935 1 5.2187 1 5.32805 1 5.4374 1 5.54675 1 5.6561 1 5.76545 1 5.8748 1 5.9374 1 5 0.333280727722054 5 0.666640363861027 5.36978333333333 0.0862928710886359 5.44268333333333 0.0862928710886359 5.51558333333333 0.0862928710886359 5.58848333333333 0.0862928710886359 5.66138333333333 0.0862928710886359 5.5 0.129439306632954 5.273375 0.148039835246991 5.32805 0.144319729524183 5.554675 0.129439306632954 5.60935 0.129439306632954 5.664025 0.129439306632954 5.7187 0.129439306632954 5.773375 0.129439306632954 5.55203333333333 0.182506024104758 5.40095 0.194906376514116 5.10935 0.32584051627644 5.2187 0.318400304830825 5.32805 0.310960093385211 5.58848333333333 0.414639760652587 5.6561 0.288639459048366 5.76545 0.281199247602752 5.8748 0.273759036157137 5.9374 0.266318824711522 5.273375 0.490660281484522 5.36978333333333 0.429520183543816 5.32805 0.488800228623119 5.5 0.481360017177504 5.554675 0.477639911454697 5.60935 0.473919805731889 5.664025 0.470199700009082 5.44268333333333 0.424560042580073 5.51558333333333 0.41959990161633 5.40095 0.541880097497743 5.55203333333333 0.535679921293064 5.44268333333333 0.774040136851211 5.36978333333333 0.776520207333082 5.51558333333333 0.771560066369339 5.8748 0.636879518078568 5.9374 0.633159412355761 5.10935 0.66292025813822 5.2187 0.659200152415413 5.32805 0.655480046692605 5.4374 0.651759940969798 5.54675 0.64803983524699 5.6561 0.644319729524183 5.76545 0.640599623801376 5.273375 0.833320181930514 5.32805 0.833320181930514 5.382725 0.833320181930514 5.4374 0.833320181930514 5.554675 0.83146012906911 5.5 0.833320181930514 5.4687 0.833320181930514 5.60935 0.829600076207706 5.40095 0.888880121287009 5.47385 0.888880121287009 5.54675 0.888880121287009 5.60406666666667 0.888880121287009 5.6458 0.888880121287009 5.700475 0.226892494890012 5.669175 0.230612600612819 5.4374 0.303519881939596 5.54675 0.296079670493981 5.77945 0.240034604830515 5.29424166666667 0.373960244187321 5.700475 0.585659702065348 5.4049125 0.624289980101784 27 1 3 27 3 4 27 4 5 27 5 6 28 27 6 29 6 7 29 28 6 30 7 8 30 29 7 31 8 9 31 9 10 31 10 11 31 30 8 31 11 2 32 27 28 32 28 29 33 25 1 33 1 27 34 33 27 34 27 32 35 29 30 35 34 32 35 32 29 36 35 30 36 30 31 36 34 35 37 36 31 37 34 36 38 37 31 39 2 13 39 31 2 39 38 31 40 33 34 40 34 37 40 37 38 40 38 39 41 33 40 41 42 25 41 43 42 41 25 33 41 44 43 45 46 47 45 47 48 45 49 13 45 48 49 50 26 25 50 25 51 52 50 51 53 52 51 54 53 51 55 54 51 56 13 14 56 57 58 56 51 57 56 58 45 56 45 13 56 55 51 59 26 50 60 59 50 60 50 52 60 52 53 60 53 54 60 54 55 60 55 56 61 62 26 63 64 65 63 26 66 63 66 67 63 67 68 63 61 26 63 68 69 63 69 70 63 70 71 63 71 72 63 65 14 63 72 64 73 15 26 73 26 62 74 73 62 75 74 62 76 75 62 77 78 79 77 79 76 77 76 62 80 77 62 80 14 12 80 62 61 80 61 63 80 63 14 81 75 76 81 16 15 81 17 16 81 18 17 81 19 18 81 15 73 81 74 75 81 73 74 82 81 76 82 79 78 82 76 79 82 20 19 82 19 81 83 20 82 83 82 78 84 21 20 84 83 78 84 20 83 85 80 12 85 77 80 85 22 21 85 23 22 85 24 23 85 12 24 85 84 78 85 21 84 85 78 77 86 39 13 86 41 40 86 40 39 87 41 86 87 88 44 87 44 41 87 89 88 87 46 89 90 87 86 90 47 46 90 48 47 90 46 87 90 86 13 90 13 49 90 49 48 91 25 42 91 42 43 91 44 88 91 46 45 91 58 57 91 88 89 91 89 46 91 57 51 91 45 58 91 43 44 91 51 25 92 59 60 92 56 14 92 60 56 92 14 65 93 65 64 93 92 65 93 66 26 93 59 92 93 26 59 93 67 66 93 68 67 93 69 68 93 70 69 93 71 70 93 72 71 93 64 72 
9 7 1 0.041598947341539
163.034837563117 56.8213326663592 0 156.879743790738 60.0601654026649 -12.046810802931 197.148669905367 110.294350165348 -10.2755416824642 167.370089938096 72.8254285993061 -11.5282225222042 183.620934869113 93.1153970101299 -10.8913390591113 201.155876364901 105.919663660767 0 168.487106166843 63.5005317918546 3.07228607799734e-016 181.197196773734 79.7531901017011 -9.3364454682106e-017 192.574619036025 94.4139085503385 3.53435299523344e-015 2 0 3 0 3 1 3 0.300555452589748 3 0.650277726294874 2 1 2 0.210216820743633 2 0.490505915068477 2 0.745252957534239 7 1 2 4 8 7 4 7 2 5 9 8 5 8 4 3 6 9 3 9 5 
39 58 1 0.182950759487468
156.879743790738 60.0601654026649 -12.046810802931 153.885906784458 61.6355333274588 -14 156.534111086558 60.2420385890754 -12.6045932312436 156.108014042934 60.4662524036437 -13.0860810736468 155.614399382247 60.7259942339515 -13.4766445247452 155.068265362264 61.0133719421955 -13.7644165630181 154.486205962544 61.3196537159592 -13.9406533295239 195.131181955018 112.496851433668 -12 168.002145009132 78.7832603943929 -13.2787972733615 182.620970341089 96.8502028444717 -12.6276462446764 197.148669905367 110.294350165348 -10.2755416824642 196.915754815311 110.548624685882 -10.768004240276 196.628616387472 110.86209508425 -11.1931067935108 196.295979163747 111.225236736232 -11.5379327800475 195.927950175435 111.627015747302 -11.7920048820735 195.535711779405 112.055224284851 -11.9476032021505 167.370089938096 72.8254285993061 -11.5282225222042 183.620934869113 93.1153970101299 -10.8913390591113 188.12629926543 101.440470295188 -12.1282126936599 183.475150096008 94.2218466282264 -11.8298380691925 183.312818324843 94.8416417804972 -12.1791117798309 183.58146533283 93.6436502119462 -11.3961367967581 183.10698742388 95.4934432998774 -12.4332097098824 182.871474895184 96.1666974200202 -12.5842889891034 190.666890500475 103.624795515574 -11.6779186888553 160.118876079586 66.5527992086906 -13.344676283765 190.576610222832 103.926896040945 -11.83763566579 192.823818107681 106.222137273201 -11.513257310578 162.496412986128 68.4131228200822 -12.8536460908754 162.52191661736 69.0299638965975 -13.0833105421857 167.750557651716 74.637758368334 -12.4891929148026 167.590567324451 73.6999963330801 -12.0462003103693 167.972489020964 77.7142213372614 -13.2445638916345 167.8597763776 75.6277950617629 -12.8434319200102 167.92954824753 76.6577444942924 -13.0978811064296 173.363915021806 83.0772878414419 -12.7893138753409 176.058263204016 85.8144743574464 -12.4943879367233 175.968814024353 86.1568064135751 -12.636827597037 178.630689594998 88.4477654757651 -12.1629433103914 3 0 4 0 3.16666666666667 0 3.33333333333333 0 3.5 0 3.66666666666667 0 3.83333333333333 0 4 1 4 0.366887272636011 4 0.683443636318005 3 1 3.16666666666667 1 3.33333333333333 1 3.5 1 3.66666666666667 1 3.83333333333333 1 3 0.300555452589748 3 0.650277726294874 3.61111111111111 0.787119873655163 3.33333333333333 0.661333029635917 3.5 0.666860681306439 3.16666666666667 0.655805377965396 3.66666666666667 0.672388332976961 3.83333333333333 0.677915984647483 3.41666666666667 0.838957992323742 3.58333333333333 0.155805377965396 3.5 0.841721818159003 3.38888888888889 0.894481212106002 3.38888888888889 0.20405540284018 3.5 0.211425605067542 3.33333333333333 0.322666059271835 3.16666666666667 0.311610755930792 3.83333333333333 0.355831969294967 3.5 0.333721362612879 3.66666666666667 0.344776665953923 3.61111111111111 0.457665656075284 3.5 0.508582499465442 3.58333333333333 0.511346325300703 3.38888888888889 0.55765679229876 19 20 21 19 22 20 19 21 23 19 24 10 19 23 24 25 11 18 25 18 19 26 1 3 26 3 4 26 4 5 26 5 6 27 19 8 26 6 7 27 25 19 26 7 2 28 12 11 26 2 9 28 13 12 28 14 13 28 15 14 28 16 15 28 8 16 28 11 25 28 27 8 28 25 27 29 17 1 29 1 26 30 31 32 30 17 29 30 32 17 30 26 9 30 9 33 30 34 31 30 33 35 30 35 34 30 29 26 36 32 31 36 17 32 36 33 9 36 31 34 36 35 33 36 34 35 37 17 36 38 9 10 38 37 36 38 36 9 39 18 17 39 22 18 39 21 20 39 20 22 39 17 37 39 37 38 39 23 21 39 10 24 39 24 23 39 38 10 19 10 8 19 18 22 
8 6 1 0.035365735701123
153.885906784458 61.6355333274588 -14 130.17197079599 74.1138927199314 -14 179.203171677857 129.885536620707 -12 147.479588689037 94.3136494593499 -13.3476709514504 162.388890254251 111.034593923237 -12.6618980626419 195.131181955018 112.496851433668 -12 168.002145009132 78.7832603943929 -13.2787972733615 182.620970341089 96.8502028444717 -12.6276462446764 4 0 5 0 5 1 5 0.333280727722054 5 0.666640363861027 4 1 4 0.366887272636011 4 0.683443636318005 4 1 2 4 7 1 5 8 7 5 7 4 3 6 8 3 8 5 

TShapes 48
Ve
1e-007
126.469286127718 76.0622588633738 -10.1660541195402
0 0

0101101
*
Ve
1e-007
125.682190661031 76.4764313615321 0
0 0

0101101
*
Ed
 1e-007 1 1 0
1  1 0 0 1
2  1 1 0 0 1
6  1 1 0
6  2 2 0
0

0101000
+48 0 -47 0 *
Ve
1e-007
176.26584199599 133.092233517543 0
0 0

0101101
*
Ed
 1e-007 1 1 0
1  2 0 0 1
2  2 1 0 0 1
2  3 2 0 0 1
6  3 1 0
6  4 3 0
0

0101000
+47 0 -45 0 *
Ve
1e-007
176.78078010148 132.530073118888 -8.71376067389157
0 0

0101101
*
Ed
 1e-007 1 1 0
1  3 0 0 1
2  4 1 0 0 1
6  5 1 0
6  6 4 0
0

0101000
+43 0 -45 0 *
Ed
 1e-007 1 1 0
1  4 0 0 1
2  5 1 0 0 1
2  6 3 0 0 1
4 G1 1 0 3 0
6  7 1 0
6  8 5 0
0

0101000
+48 0 -43 0 *
Wi

0101000
+46 0 +44 0 -42 0 -41 0 *
Fa
0  1e-007 1 0
2  1
0101000
+40 0 *
Ve
1e-007
163.034837563117 56.8213326663592 0
0 0

0101101
*
Ed
 1e-007 1 1 0
1  5 0 1 2
2  7 2 0 1 2
6  9 3 0
6  10 2 0
0

0101000
+47 0 -38 0 *
Ve
1e-007
201.155876364901 105.919663660767 0
0 0

0101101
*
Ed
 1e-007 1 1 0
1  6 0 0 1
2  8 2 0 0 1
2  9 4 0 0 1
6  11 3 0
6  12 6 0
0

0101000
+38 0 -36 0 *
Ed
 1e-007 1 1 0
1  7 0 1 2
2  10 2 0 1 2
6  13 3 0
6  14 4 0
0

0101000
+45 0 -36 0 *
Wi

0101000
+37 0 +35 0 -34 0 -44 0 *
Fa
0  1e-007 2 0
2  3
0101000
+33 0 *
Ve
1e-007
156.879743790738 60.0601654026649 -12.046810802931
0 0

0101101
*
Ed
 1e-007 1 1 0
1  8 0 2 3
2  11 4 0 2 3
6  15 6 0
6  16 2 0
0

0101000
+38 0 -31 0 *
Ve
1e-007
197.148669905367 110.294350165348 -10.2755416824642
0 0

0101101
*
Ed
 1e-007 1 1 0
1  9 0 0 1
2  12 4 0 0 1
2  13 5 0 0 1
6  17 6 0
6  18 7 0
0

0101000
+31 0 -29 0 *
Ed
 1e-007 1 1 0
1  10 0 2 3
2  14 4 0 2 3
6  19 6 0
6  20 4 0
0

0101000
+36 0 -29 0 *
Wi

0101000
+30 0 +28 0 -27 0 -35 0 *
Fa
0  1e-007 4 0
2  6
0101000
+26 0 *
Ve
1e-007
153.885906784458 61.6355333274588 -14
0 0

0101101
*
Ed
 1e-007 1 1 0
1  11 0 3 4
2  15 5 0 3 4
6  21 7 0
6  22 2 0
0

0101000
+31 0 -24 0 *
Ve
1e-007
195.131181955018 112.496851433668 -12
0 0

0101101
*
Ed
 1e-007 1 1 0
1  12 0 0 1
2  16 5 0 0 1
2  17 6 0 0 1
6  23 7 0
6  24 8 0
0

0101000
+24 0 -22 0 *
Ed
 1e-007 1 1 0
1  13 0 3 4
2  18 5 0 3 4
6  25 7 0
6  26 4 0
0

0101000
+29 0 -22 0 *
Wi

0101000
+23 0 +21 0 -20 0 -28 0 *
Fa
0  1e-007 5 0
2  7
0101000
+19 0 *
Ve
1e-007
130.17197079599 74.1138927199314 -14
0 0

0101101
*
Ed
 1e-007 1 1 0
1  14 0 4 5
2  19 6 0 4 5
6  27 8 0
6  28 2 0
0

0101000
+24 0 -17 0 *
Ve
1e-007
179.203171677857 129.885536620707 -12
0 0

0101101
*
Ed
 1e-007 1 1 0
1  15 0 0 1
2  20 6 0 0 1
2  21 3 0 0 1
6  29 8 0
6  30 5 0
0

0101000
+17 0 -15 0 *
Ed
 1e-007 1 1 0
1  16 0 4 5
2  22 6 0 4 5
6  31 8 0
6  32 4 0
0

0101000
+22 0 -15 0 *
Wi

0101000
+16 0 +14 0 -13 0 -21 0 *
Fa
0  1e-007 6 0
2  8
0101000
+12 0 *
Ed
 1e-007 1 1 0
1  17 0 5 6
2  23 3 0 5 6
6  33 5 0
6  34 2 0
0

0101000
+17 0 -48 0 *
Ed
 1e-007 1 1 0
1  18 0 5 6
2  24 3 0 5 6
6  35 5 0
6  36 4 0
0

0101000
+15 0 -43 0 *
Wi

0101000
+10 0 +41 0 -9 0 -14 0 *
Fa
0  1e-007 3 0
2  5
0101000
+8 0 *
Wi

0101000
-46 0 -37 0 -30 0 -23 0 -16 0 -10 0 *
Fa
0  1e-007 7 0
2  2
0101000
-6 0 *
Wi

0101000
+42 0 +34 0 +27 0 +20 0 +13 0 +9 0 *
Fa
0  1e-007 8 0
2  4
0101000
+4 0 *
Sh

0101100
+39 0 +32 0 +25 0 +18 0 +11 0 +7 0 -5 0 +3 0 *
So

0100100
+2 0 *

+1 0 