DBRep_DrawableShape

CASCADE Topology V1, (c) Matra-Datavision
Locations 0
Curve2ds 4
1 0 1.5707963267948966 1 0 
1 6.2831853071795862 -6.2831853071795862 0 1 
1 0 -6.2831853071795862 0 1 
1 0 -1.5707963267948966 1 0 
Curves 2
2 0 0 145.09999999999999 -2.4492127076447545e-016 -1 0 1 -2.4492127076447545e-016 0 0 0 1 810
2 -72.435851521161823 -559.67729670698179 65.067504711347681 -0.1308770429208784 -0.86066465743712817 -0.49206457612280646 -0.57797881330084877 0.46949854754656556 -0.66746655738471872 0.80548847975103233 0.19704685049575407 -0.55889251891403491 1720
Polygon3D 0
PolygonOnTriangulations 0
Surfaces 2
4 0 0 145.09999999999999 0 0 1 1 0 -0 -0 1 0 810
1 -72.43585152116178 -559.67729670698191 65.067504711347794 0.13087704292087843 0.86066465743712828 0.49206457612280652 6.9388939039072284e-018 -0.49633373723671587 0.86813179948705654 0.99139860784463818 -0.11361852278244693 -0.064958691831409662 
Triangulations 0

TShapes 16
Ve
1e-007
4.95965573298063e-014 -1.21472518467593e-029 955.1
0 0

0101101
*
Ed
 1e-007 1 1 1
2  1 1 0 0 6.28318530717959
0

0101100
+16 0 -16 0 *
Ve
1e-007
4.95965573298063e-014 -1.21472518467593e-029 -664.9
0 0

0101101
*
Ed
 1e-007 1 1 0
1  1 0 4.71238898038469 7.85398163397448
3  2 3CN 1 0 4.71238898038469 7.85398163397448
0

0101000
-16 0 +14 0 *
Ed
 1e-007 1 1 1
2  4 1 0 0 6.28318530717959
0

0101100
+14 0 -14 0 *
Wi

0101000
-15 0 +13 0 +12 0 -13 0 *
Fa
0  1e-007 1 0

0111000
+11 0 *
Sh

0101100
+10 0 *
So

0100100
+9 0 *
Ve
1e-007
-1066.55941039862 247.860205073111 -1082.97497399037
0 0

0101101
*
Ed
 1e-007 1 1 0
1  2 0 0 6.28318530717959
0

0101100
+7 0 -7 0 *
Wi

0101100
+6 0 *
Fa
0  1e-007 2 0

0101000
-5 0 *
Sh

0101000
+4 0 *
So

0100000
-3 0 *
Co

1100000
+8 0 +2 0 *

+1 0 
0

