DBRep_DrawableShape

CASCADE Topology V1, (c) Matra-Datavision
Locations 0
Curve2ds 24
1 0 0 1 0 
1 1 0 0 1 
1 1 0 0 1 
1 0 1 1 0 
1 0 0 0 1 
1 6 0 0 1 
1 0 0 1 0 
1 2 0 0 1 
1 2 0 0 1 
1 0 1 1 0 
1 0 0 1 0 
1 3 0 0 1 
1 3 0 0 1 
1 0 1 1 0 
1 0 0 1 0 
1 4 0 0 1 
1 4 0 0 1 
1 0 1 1 0 
1 0 0 1 0 
1 5 0 0 1 
1 5 0 0 1 
1 0 1 1 0 
1 0 0 1 0 
1 0 1 1 0 
Curves 18
7 0 0  8 9 2  107.23761714813121 5.1613399303627228 -10.892200842364458  107.12255798414003 5.1921699404413513 -9.530675737068897  107.00749882014898 5.2229999505199798 -8.1691506317733413  106.89243965615789 5.2538299605986083 -6.8076255264777874  106.77738049216673 5.284659970677235 -5.446100421182229  106.66232132817561 5.3154899807558627 -4.0845753158866724  106.54726216418449 5.3463199908344912 -2.7230502105911154  106.43220300019338 5.3771500009131206 -1.3615251052955577  106.31714383620226 5.4079800109917491 0 
 0 9 1 9
7 1 0  4 5 2  106.31714383620226 5.4079800109917491 0  1 109.6963672875379 18.540898942098149 0  1.0000000000000067 117.79269517039538 47.681873677574558 0  0.99999999999998868 116.8339374507664 46.866340676044516 0  1.0000000000000064 125.68219066103097 76.476431361532136 0  1
 0 5 1 5
7 0 0  8 9 2  126.46928612771829 76.062258863373827 -10.166054119540165  126.37089919438237 76.11403042564362 -8.8952973545976448  126.27251226104647 76.165801987913426 -7.6245405896551217  126.17412532771056 76.217573550183204 -6.3537838247126013  126.07573839437464 76.269345112452982 -5.0830270597700826  125.97735146103871 76.321116674722759 -3.8122702948275613  125.87896452770282 76.372888236992566 -2.5415135298850413  125.78057759436689 76.424659799262344 -1.2707567649425204  125.68219066103097 76.476431361532136 0 
 0 9 1 9
7 1 0  4 5 2  107.23761714813121 5.1613399303627228 -10.892200842364458  1 110.64865550308681 18.462063528924805 -10.707929388239551  1.0000000000000067 118.5627912032956 47.034321954475253 -10.535596714965132  0.99999999999998868 117.84375849542674 47.077883263110522 -10.327434362217019  1.0000000000000064 126.46928612771829 76.062258863373827 -10.166054119540165  1
 0 5 1 5
7 0 0  8 9 2  106.31714383620226 5.4079800109917491 0  111.3628578771517 4.0559850082438116 -2.2204460492503126e-016  116.40857191810113 2.7039900054958745 -4.4408920985006252e-016  121.45428595905057 1.351995002747937 -6.6613381477509383e-016  126.5 1.2490009027033011e-016 -8.8817841970012494e-016  131.54571404094943 -1.3519950027479366 -1.1102230246251561e-015  136.59142808189884 -2.7039900054958732 -1.3322676295501875e-015  141.63714212284827 -4.0559850082438098 -1.5543122344752188e-015  146.68285616379777 -5.4079800109917446 -1.7763568394002505e-015 
 1 9 2 9
7 1 0  4 5 2  146.68285616379777 -5.4079800109917446 -1.7763568394002505e-015  1 152.36789734289377 15.28739719192509 -1.2578318850319831e-014  1.0000000000000067 152.747427046312 17.778753606140729 4.0863258991871472e-014  0.99999999999998868 163.94711209254339 56.813947707178471 -1.995601505735403e-014  1.0000000000000064 163.03483756311684 56.821332666359247 0  1
 0 5 1 5
7 0 0  8 9 2  125.68219066103097 76.476431361532136 0  130.35127152379175 74.019544024635508 0  135.02035238655247 71.562656687738922 0  139.68943324931317 69.105769350842323 0  144.35851411207395 66.648882013945681 0  149.02759497483464 64.191994677049067 0  153.69667583759539 61.73510734015246 0  158.36575670035609 59.278220003255853 0  163.03483756311684 56.821332666359247 0 
 1 9 2 9
7 0 0  8 9 2  146.68285616379777 -5.4079800109917446 -1.7763568394002505e-015  145.76514106490896 -5.1620789913195084 -1.645601696223306  144.84742596602013 -4.9161779716472704 -3.2912033924466089  143.92971086713135 -4.6702769519750325 -4.936805088669912  143.01199576824251 -4.4243759323027945 -6.582406784893216  142.09428066935371 -4.1784749126305556 -8.2280084811165217  141.17656557046493 -3.9325738929583181 -9.8736101773398275  140.25885047157607 -3.6866728732860801 -11.519211873563128  139.34113537268729 -3.4407718536138399 -13.164813569786434 
 2 9 3 9
7 1 0  4 5 2  139.34113537268729 -3.4407718536138399 -13.164813569786434  1 144.81185151512176 15.925010439028938 -12.881102318205095  1.0000000000000067 146.65636868712312 22.878436973388236 -12.615772462014426  0.99999999999998868 156.01526258912116 55.155723973781853 -12.29527788562573  1.0000000000000064 156.87974379073844 60.060165402664992 -12.046810802930999  1
 0 5 1 5
7 0 0  8 9 2  163.03483756311684 56.821332666359247 0  162.26545084156959 57.226186758397461 -1.5058513503663731  161.49606412002225 57.631040850435667 -3.0117027007327466  160.72667739847492 58.035894942473874 -4.5175540510991201  159.95729067692761 58.440749034512088 -6.0234054014654941  159.18790395538028 58.845603126550301 -7.5292567518318663  158.418517233833 59.250457218588508 -9.0351081021982385  157.64913051228567 59.655311310626736 -10.540959452564614  156.87974379073844 60.060165402664992 -12.046810802930999 
 2 9 3 9
7 0 0  8 9 2  139.34113537268729 -3.4407718536138399 -13.164813569786434  139.109095510759 -3.3785969599872265 -13.580896067333029  138.8169307337005 -3.3003116439045272 -13.961040786729987  138.4707002060486 -3.2075394536081325 -14.294384715322984  138.07865863012955 -3.102492229922964 -14.571375067066354  137.65093089696001 -2.987882929220111 -14.784374752237177  137.19896800211785 -2.8667798365165633 -14.928124586755796  136.73488835803713 -2.7424300706398754 -14.999999999999979  136.2708086341793 -2.6180802833866355 -15 
 3 9 4 9
7 1 0  4 5 2  136.2708086341793 -2.6180802833866355 -15  1 141.51710855971399 16.161514114063724 -14.746233855592937  1.0000000000000067 143.93389255106953 25.234029331990868 -14.508908990166223  0.99999999999998868 152.27937406284812 54.362965937720155 -14.222241921094334  1.0000000000000064 153.88590678445829 61.635533327458795 -14  1
 0 5 1 5
7 0 0  8 9 2  156.87974379073844 60.060165402664992 -12.046810802930999  156.65348463829682 60.179223791849807 -12.489647468415164  156.36859843693031 60.329131947470785 -12.894235551143279  156.0309934018087 60.506780945220058 -13.249013545093931  155.64871858940251 60.707935342287463 -13.543814418623967  155.23164665366551 60.927400112249209 -13.770510015978722  154.79094331643739 61.159299811655941 -13.923502986741754  154.338425089342 61.39741654908957 -13.999999999999963  153.88590678445829 61.635533327458795 -14 
 3 9 4 9
7 0 0  8 9 2  136.2708086341793 -2.6180802833866355 -15  133.18292542854769 -1.7906844719708703 -15  130.09504222291605 -0.96328866055510542 -15  127.00715901728435 -0.13589284913934063 -15  123.91927581165268 0.69150296227642405 -15  120.83139260602101 1.5188987736921884 -15  117.74350940038939 2.3462945851079531 -15  114.65562619475772 3.1736903965237189 -15  111.56774298912606 4.0010862079394833 -14.999999999999998 
 4 9 5 9
7 1 0  4 5 2  111.56774298912606 4.0010862079394833 -14.999999999999998  1 115.12844623334003 18.0912029560617 -14.746233855592932  1.0000000000000067 122.1855064834573 43.988084314301318 -14.508908990166233  0.99999999999998868 122.59419736594916 48.073030010826855 -14.222241921094307  1.0000000000000064 130.17197079599006 74.113892719931357 -14  1
 0 5 1 5
7 0 0  8 9 2  153.88590678445829 61.635533327458795 -14  150.92166478589979 63.195328251517864 -14  147.95742278734122 64.755123175576941 -14  144.99318078878269 66.314918099636003 -14  142.02893879022417 67.874713023695065 -14  139.06469679166568 69.434507947754128 -14  136.1004547931071 70.994302871813204 -14  133.13621279454861 72.554097795872281 -14  130.17197079599006 74.113892719931357 -14 
 4 9 5 9
7 0 0  8 9 2  111.56774298912606 4.0010862079394833 -14.999999999999998  110.76169184606985 4.2170669608179221 -15.000000000000165  109.95564053642528 4.4330477583312318 -14.823144968147467  109.19182865481791 4.6377105352171561 -14.469436016716756  108.51248903864958 4.8197390367821651 -13.951843317946411  107.95522701872204 4.9690569450259474 -13.296326655554298  107.54829992222911 5.0780927319251417 -12.5394072408236  107.30786913419801 5.1425159674264558 -11.723510921523832  107.23761714813116 5.1613399303627236 -10.892200842364458 
 5 9 6 9
7 0 0  8 9 2  130.17197079599006 74.113892719931357 -14  129.48271756898583 74.476580275602785 -14.000000000000075  128.79346419953541 74.83926790622381 -13.8349353036045  128.14032970706322 75.182949652387819 -13.504806948935256  127.5594273329389 75.488622595059667 -13.021720430083811  127.08291334392109 75.73936598973377 -12.409904878517002  126.73495054177906 75.922465282159123 -11.703446758102174  126.52935850465954 76.030648560074837 -10.941943526755539  126.46928612771831 76.062258863373813 -10.166054119540167 
 5 9 6 9
Polygon3D 0
PolygonOnTriangulations 36
2 1 2 
p 0.331657504744676 1 0 1 
2 1 2 
p 0.331657504744676 1 0 1 
4 2 4 5 3 
p 0.331657504744676 1 0 0.444444444444444 0.722222222222222 1 
4 1 18 19 17 
p 0.331657504744676 1 0 0.444444444444444 0.722222222222222 1 
2 6 3 
p 0.331657504744676 1 0 1 
2 1 2 
p 0.331657504744676 1 0 1 
4 1 7 8 6 
p 0.331657504744676 1 0 0.444444444444444 0.722222222222222 1 
4 2 13 14 12 
p 0.331657504744676 1 0 0.444444444444444 0.722222222222222 1 
2 1 2 
p 0.331657504744676 1 1 2 
2 2 3 
p 0.331657504744676 1 1 2 
15 2 4 5 6 7 8 9 10 11 12 13 14 15 16 3 
p 0.331657504744676 1 0 0.444444444444444 0.888888888888889 0.944444444444444 0.972222222222222 0.982347222222222 0.986760416666667 0.9900703125 0.9923044921875 0.993980126953125 0.995376489257813 0.996423760986328 0.997696196136475 0.998848098068237 1 
15 1 7 8 9 10 11 12 13 14 15 16 17 18 19 6 
p 0.331657504744676 1 0 0.444444444444444 0.888888888888889 0.944444444444444 0.972222222222222 0.982347222222222 0.986760416666667 0.9900703125 0.9923044921875 0.993980126953125 0.995376489257813 0.996423760986328 0.997696196136475 0.998848098068237 1 
2 17 3 
p 0.331657504744676 1 1 2 
2 2 3 
p 0.331657504744676 1 1 2 
2 1 2 
p 0.331657504744676 1 2 3 
2 3 4 
p 0.331657504744676 1 2 3 
4 2 4 5 3 
p 0.331657504744676 1 0 0.444444444444444 0.722222222222222 1 
4 1 17 18 11 
p 0.331657504744676 1 0 0.444444444444444 0.722222222222222 1 
2 6 3 
p 0.331657504744676 1 2 3 
2 3 4 
p 0.331657504744676 1 2 3 
7 1 3 4 5 6 7 2 
p 0.331657504744676 1 3 3.16666666666667 3.33333333333333 3.5 3.66666666666667 3.83333333333333 4 
7 4 6 7 8 9 10 5 
p 0.331657504744676 1 3 3.16666666666667 3.33333333333333 3.5 3.66666666666667 3.83333333333333 4 
4 2 9 10 8 
p 0.331657504744676 1 0 0.444444444444444 0.722222222222222 1 
4 1 7 8 6 
p 0.331657504744676 1 0 0.444444444444444 0.722222222222222 1 
7 11 12 13 14 15 16 8 
p 0.331657504744676 1 3 3.16666666666667 3.33333333333333 3.5 3.66666666666667 3.83333333333333 4 
7 4 6 7 8 9 10 5 
p 0.331657504744676 1 3 3.16666666666667 3.33333333333333 3.5 3.66666666666667 3.83333333333333 4 
2 1 2 
p 0.331657504744676 1 4 5 
2 5 11 
p 0.331657504744676 1 4 5 
4 2 4 5 3 
p 0.331657504744676 1 0 0.444444444444444 0.722222222222222 1 
4 1 25 26 15 
p 0.331657504744676 1 0 0.444444444444444 0.722222222222222 1 
2 6 3 
p 0.331657504744676 1 4 5 
2 5 11 
p 0.331657504744676 1 4 5 
11 1 3 4 5 6 7 8 9 10 11 2 
p 0.331657504744676 1 5 5.10935 5.2187 5.32805 5.4374 5.54675 5.6561 5.76545 5.8748 5.9374 6 
11 11 12 13 14 15 16 17 18 19 20 1 
p 0.331657504744676 1 5 5.10935 5.2187 5.32805 5.4374 5.54675 5.6561 5.76545 5.8748 5.9374 6 
11 15 16 17 18 19 20 21 22 23 24 12 
p 0.331657504744676 1 5 5.10935 5.2187 5.32805 5.4374 5.54675 5.6561 5.76545 5.8748 5.9374 6 
11 11 12 13 14 15 16 17 18 19 20 1 
p 0.331657504744676 1 5 5.10935 5.2187 5.32805 5.4374 5.54675 5.6561 5.76545 5.8748 5.9374 6 
Surfaces 8
9 1 0 0 0 8 4 9 5 2 2 107.23761714813121 5.1613399303627228 -10.892200842364458  1 110.64865550308681 18.462063528924805 -10.707929388239551  1.0000000000000067 118.5627912032956 47.034321954475253 -10.535596714965132  0.99999999999998868 117.84375849542674 47.077883263110522 -10.327434362217019  1.0000000000000064 126.46928612771829 76.062258863373827 -10.166054119540165  1 
107.12255798414003 5.1921699404413513 -9.530675737068897  1 110.52961947614335 18.47191795557141 -9.3694382147096018  1.0000000000000067 118.46652919918279 47.115265919862786 -9.2186471255945328  0.99999999999998868 117.71753086484441 47.051440439727138 -9.0365050669398581  1.0000000000000064 126.37089919438237 76.11403042564362 -8.8952973545976448  1 
107.00749882014898 5.2229999505199798 -8.1691506317733413  1 110.41058344919996 18.481772382218107 -8.030947041179644  1.0000000000000067 118.37026719506972 47.196209885250219 -7.901697536223879  0.99999999999998868 117.59130323426228 47.02499761634386 -7.7455757716627511  1.0000000000000064 126.27251226104647 76.165801987913426 -7.6245405896551217  1 
106.89243965615789 5.2538299605986083 -6.8076255264777874  1 110.29154742225631 18.491626808864726 -6.6924558676497217  1.0000000000000067 118.27400519095733 47.277153850637696 -6.5847479468532022  0.99999999999998868 117.46507560367954 46.998554792960583 -6.4546464763856433  1.0000000000000064 126.17412532771056 76.217573550183204 -6.3537838247126013  1 
106.77738049216673 5.284659970677235 -5.446100421182229  1 110.17251139531236 18.501481235511459 -5.3539646941197718  1.0000000000000067 118.1777431868455 47.358097816024987 -5.2677983574825662  0.99999999999998868 117.33884797309658 46.972111969577412 -5.1637171811085096  1.0000000000000064 126.07573839437464 76.269345112452982 -5.0830270597700826  1 
106.66232132817561 5.3154899807558627 -4.0845753158866724  1 110.05347536836904 18.511335662157972 -4.0154735205898353  1.0000000000000067 118.08148118273229 47.439041781412655 -3.9508487681119138  0.99999999999998868 117.21262034251444 46.945669146194028 -3.8727878858313889  1.0000000000000064 125.97735146103871 76.321116674722759 -3.8122702948275613  1 
106.54726216418449 5.3463199908344912 -2.7230502105911154  1 109.93443934142505 18.52119008880457 -2.6769823470598739  1.0000000000000067 117.98521917862047 47.519985746800145 -2.633899178741308  0.99999999999998868 117.08639271193148 46.919226322810751 -2.5818585905542419  1.0000000000000064 125.87896452770282 76.372888236992566 -2.5415135298850413  1 
106.43220300019338 5.3771500009131206 -1.3615251052955577  1 109.81540331448166 18.531044515451281 -1.3384911735299447  1.0000000000000067 117.8889571745076 47.600929712187479 -1.3169495893706415  0.99999999999998868 116.96016508134915 46.892783499427587 -1.2909292952771274  1.0000000000000064 125.78057759436689 76.424659799262344 -1.2707567649425204  1 
106.31714383620226 5.4079800109917491 0  1 109.6963672875379 18.540898942098149 0  1.0000000000000067 117.79269517039538 47.681873677574558 0  0.99999999999998868 116.8339374507664 46.866340676044516 0  1.0000000000000064 125.68219066103097 76.476431361532136 0  1 

0 9
1 9

0 5
1 5

9 1 0 0 0 8 4 9 5 2 2 106.31714383620226 5.4079800109917491 0  1 109.6963672875379 18.540898942098149 0  1.0000000000000067 117.79269517039538 47.681873677574558 0  0.99999999999998868 116.8339374507664 46.866340676044516 0  1.0000000000000064 125.68219066103097 76.476431361532136 0  1 
111.3628578771517 4.0559850082438116 -2.2204460492503126e-016  1 115.03030854445696 18.134211223326432 -1.5722898562899765e-015  1.0000000000000067 122.16203665488543 43.943983668645473 5.1079073739839301e-015  0.99999999999998868 122.72308428098826 48.109791554936173 -2.4945018821692522e-015  1.0000000000000064 130.35127152379175 74.019544024635508 0  1 
116.40857191810113 2.7039900054958745 -4.4408920985006252e-016  1 120.36424980137677 17.727523504554835 -3.144579712579953e-015  1.0000000000000067 126.53137813937472 40.206093659716231 1.021581474796786e-014  0.99999999999998868 128.61223111121055 49.353242433827845 -4.9890037643385044e-015  1.0000000000000064 135.02035238655247 71.562656687738922 0  1 
121.45428595905057 1.351995002747937 -6.6613381477509383e-016  1 125.69819105829603 17.32083578578322 -4.7168695688699281e-015  1.0000000000000067 130.90071962386475 36.468203650786975 1.532372212195179e-014  0.99999999999998868 134.50137794143242 50.596693312719616 -7.4835056465077554e-015  1.0000000000000064 139.68943324931317 69.105769350842323 0  1 
126.5 1.2490009027033011e-016 -8.8817841970012494e-016  1 131.03213231521602 16.91414806701167 -6.2891594251599044e-015  1.0000000000000067 135.27006110835333 32.730313641857578 2.0431629495935714e-014  0.99999999999998868 140.39052477165509 51.840144191611486 -9.9780075286770024e-015  1.0000000000000064 144.35851411207395 66.648882013945681 0  1 
131.54571404094943 -1.3519950027479366 -1.1102230246251561e-015  1 136.36607357213447 16.507460348240034 -7.8614492814498854e-015  1.0000000000000067 139.63940259284476 28.992423632928336 2.553953686991965e-014  0.99999999999998868 146.27967160187615 53.083595070503264 -1.2472509410846257e-014  1.0000000000000064 149.02759497483464 64.191994677049067 0  1 
136.59142808189884 -2.7039900054958732 -1.3322676295501875e-015  1 141.70001482905425 16.100772629468249 -9.4337391377398594e-015  1.0000000000000067 144.00874407733394 25.254533623999407 3.0647444243903574e-014  0.99999999999998868 152.16881843209842 54.327045949394822 -1.4967011293015504e-014  1.0000000000000064 153.69667583759539 61.73510734015246 0  1 
141.63714212284827 -4.0559850082438098 -1.5543122344752188e-015  1 147.03395608597384 15.694084910696725 -1.1006028994029844e-014  1.0000000000000067 148.3780855618233 21.516643615069984 3.5755351617887523e-014  0.99999999999998868 158.05796526232069 55.5704968282867 -1.7461513175184769e-014  1.0000000000000064 158.36575670035609 59.278220003255853 0  1 
146.68285616379777 -5.4079800109917446 -1.7763568394002505e-015  1 152.36789734289377 15.28739719192509 -1.2578318850319831e-014  1.0000000000000067 152.747427046312 17.778753606140729 4.0863258991871472e-014  0.99999999999998868 163.94711209254339 56.813947707178471 -1.995601505735403e-014  1.0000000000000064 163.03483756311684 56.821332666359247 0  1 

1 9
2 9

0 5
1 5

9 1 0 0 0 8 4 9 5 2 2 111.56774298912606 4.0010862079394833 -14.999999999999998  1 115.12844623334003 18.0912029560617 -14.746233855592932  1.0000000000000067 122.1855064834573 43.988084314301318 -14.508908990166233  0.99999999999998868 122.59419736594916 48.073030010826855 -14.222241921094307  1.0000000000000064 130.17197079599006 74.113892719931357 -14  1 
110.76169184606985 4.2170669608179221 -15.000000000000165  1 114.29453503274594 18.160238499057186 -14.746233855592864  1.0000000000000067 121.51113952513784 44.555140197214406 -14.508908990166429  0.99999999999998868 121.7099051254402 47.887783853333275 -14.222241921094151  1.0000000000000064 129.48271756898583 74.476580275602785 -14.000000000000075  1 
109.95564053642528 4.4330477583312318 -14.823144968147467  1 113.46062365981783 18.229274056318893 -14.572370811711309  1.0000000000000067 120.83677242744045 45.122196197314096 -14.337844086059002  0.99999999999998868 120.82561270218756 47.702537657557585 -14.054556917897614  1.0000000000000064 128.79346419953541 74.83926790622381 -13.8349353036045  1 
109.19182865481791 4.6377105352171561 -14.469436016716756  1 112.67041166307344 18.294691950020201 -14.224645817400988  1.0000000000000067 120.19774412289684 45.659536817257482 -13.995715353706975  0.99999999999998868 119.9876597683715 47.526998900073906 -13.719187966099915  1.0000000000000064 128.14032970706322 75.182949652387819 -13.504806948935256  1 
108.51248903864958 4.8197390367821651 -13.951843317946411  1 111.96759160037369 18.352875081057512 -13.715809618871074  1.0000000000000067 119.62938789068501 46.137451313307366 -13.495068329673838  0.99999999999998868 119.24237858318369 47.370873504551646 -13.228432727539316  1.0000000000000064 127.5594273329389 75.488622595059667 -13.021720430083811  1 
107.95522701872204 4.9690569450259474 -13.296326655554298  1 111.39106857933341 18.400602680563697 -13.071382818875422  1.0000000000000067 119.16316549699572 46.529484386473456 -12.86101288993239  0.99999999999998868 118.63102472007004 47.242803904000787 -12.606904957143108  1.0000000000000064 127.08291334392109 75.73936598973377 -12.409904878517002  1 
107.54829992222911 5.0780927319251417 -12.5394072408236  1 110.97007660321003 18.43545460442407 -12.32726877224747  1.0000000000000067 118.82271788310133 46.815757045420391 -12.128874563181787  0.99999999999998868 118.18459836491279 47.14928417929066 -11.8892322217425  1.0000000000000064 126.73495054177906 75.922465282159123 -11.703446758102174  1 
107.30786913419801 5.1425159674264558 -11.723510921523832  1 110.72133565315931 18.456046684898812 -11.525175577159018  1.0000000000000067 118.62156615643413 46.984899777821759 -11.339690200374182  0.99999999999998868 117.920829642454 47.094028529557562 -11.115640566033152  1.0000000000000064 126.52935850465954 76.030648560074837 -10.941943526755539  1 
107.23761714813116 5.1613399303627236 -10.892200842364458  1 110.64865550308681 18.462063528924691 -10.707929388239569  1.0000000000000067 118.5627912032956 47.034321954475452 -10.535596714965106  0.99999999999998868 117.84375849542674 47.077883263110415 -10.327434362217046  1.0000000000000064 126.46928612771831 76.062258863373813 -10.166054119540167  1 

5 9
6 9

0 5
1 5

9 1 0 0 0 8 4 9 5 2 2 146.68285616379777 -5.4079800109917446 -1.7763568394002505e-015  1 152.36789734289377 15.28739719192509 -1.2578318850319831e-014  1.0000000000000067 152.747427046312 17.778753606140729 4.0863258991871472e-014  0.99999999999998868 163.94711209254339 56.813947707178471 -1.995601505735403e-014  1.0000000000000064 163.03483756311684 56.821332666359247 0  1 
145.76514106490896 -5.1620789913195084 -1.645601696223306  1 151.4233916144224 15.36709884781313 -1.6101377897756577  1.0000000000000067 151.9860447514134 18.416214027046575 -1.5769715577517518  0.99999999999998868 162.9556309046155 56.606669740503946 -1.5369097357032422  1.0000000000000064 162.26545084156959 57.226186758397461 -1.5058513503663731  1 
144.84742596602013 -4.9161779716472704 -3.2912033924466089  1 150.47888588595052 15.446800503701118 -3.2202755795512834  1.0000000000000067 151.22466245651555 19.053674447952478 -3.1539431155035764  0.99999999999998868 161.96414971668719 56.399391773829421 -3.0738194714064453  1.0000000000000064 161.49606412002225 57.631040850435667 -3.0117027007327466  1 
143.92971086713135 -4.6702769519750325 -4.936805088669912  1 149.53438015747938 15.526502159589127 -4.8304133693269096  1.0000000000000067 150.4632801616165 19.691134868858352 -4.7309146732554046  0.99999999999998868 160.97266852875975 56.19211380715489 -4.6107292071096486  1.0000000000000064 160.72667739847492 58.035894942473874 -4.5175540510991201  1 
143.01199576824251 -4.4243759323027945 -6.582406784893216  1 148.58987442900778 15.606203815477143 -6.4405511591025517  1.0000000000000067 149.70189786671767 20.328595289764227 -6.3078862310072026  0.99999999999998868 159.98118734083229 55.984835840480365 -6.1476389428128648  1.0000000000000064 159.95729067692761 58.440749034512088 -6.0234054014654941  1 
142.09428066935371 -4.1784749126305556 -8.2280084811165217  1 147.64536870053681 15.685905471365137 -8.0506889488781788  1.0000000000000067 148.94051557181828 20.966055710670101 -7.8848577887590148  0.99999999999998868 158.9897061529048 55.77755787380584 -7.684548678516081  1.0000000000000064 159.18790395538028 58.845603126550301 -7.5292567518318663  1 
141.17656557046493 -3.9325738929583181 -9.8736101773398275  1 146.70086297206555 15.765607127253185 -9.6608267386537925  1.0000000000000067 148.17913327691923 21.603516131575933 -9.461829346510866  0.99999999999998868 157.99822496497734 55.570279907131322 -9.2214584142192724  1.0000000000000064 158.418517233833 59.250457218588508 -9.0351081021982385  1 
140.25885047157607 -3.6866728732860801 -11.519211873563128  1 145.75635724359367 15.845308783141002 -11.270964528429426  1.0000000000000067 147.41775098202115 22.24097655248222 -11.038800904262684  0.99999999999998868 157.00674377704945 55.363001940456485 -10.758368149922488  1.0000000000000064 157.64913051228567 59.655311310626736 -10.540959452564614  1 
139.34113537268729 -3.4407718536138399 -13.164813569786434  1 144.81185151512176 15.925010439028938 -12.881102318205095  1.0000000000000067 146.65636868712312 22.878436973388236 -12.615772462014426  0.99999999999998868 156.01526258912116 55.155723973781853 -12.29527788562573  1.0000000000000064 156.87974379073844 60.060165402664992 -12.046810802930999  1 

2 9
3 9

0 5
1 5

9 1 0 0 0 8 4 9 5 2 2 139.34113537268729 -3.4407718536138399 -13.164813569786434  1 144.81185151512176 15.925010439028938 -12.881102318205095  1.0000000000000067 146.65636868712312 22.878436973388236 -12.615772462014426  0.99999999999998868 156.01526258912116 55.155723973781853 -12.29527788562573  1.0000000000000064 156.87974379073844 60.060165402664992 -12.046810802930999  1 
139.109095510759 -3.3785969599872265 -13.580896067333029  1 144.56285140354419 15.942884198004833 -13.303974117795908  1.0000000000000067 146.45061762525808 23.056460803488722 -13.0449936909105  0.99999999999998868 155.73292291271426 55.095811306207359 -12.732168653430376  1.0000000000000064 156.65348463829682 60.179223791849807 -12.489647468415164  1 
138.8169307337005 -3.3003116439045272 -13.961040786729987  1 144.24933172860744 15.965389308820047 -13.690321735262481  1.0000000000000067 146.19155346008591 23.28061320644256 -13.437142326289944  0.99999999999998868 155.37742490505661 55.020374391964815 -13.131324396133323  1.0000000000000064 156.36859843693031 60.329131947470785 -12.894235551143279  1 
138.4707002060486 -3.2075394536081325 -14.294384715322984  1 143.87779453106569 15.99205904112312 -14.029104903979032  1.0000000000000067 145.88454888715231 23.546245516850075 -13.781012331684142  0.99999999999998868 154.95614118971923 54.930977706693014 -13.481338842222332  1.0000000000000064 156.0309934018087 60.506780945220058 -13.249013545093931  1 
138.07865863012955 -3.102492229922964 -14.571375067066354  1 143.45709786570026 16.022257544855428 -14.310614963166794  1.0000000000000067 145.53692339785337 23.847024625765371 -14.066749270557075  0.99999999999998868 154.47911585983258 54.829752613649212 -13.772181471174886  1.0000000000000064 155.64871858940251 60.707935342287463 -13.543814418623967  1 
137.65093089696001 -2.987882929220111 -14.784374752237177  1 142.99810667170087 16.055204911511719 -14.527090207167269  1.0000000000000067 145.15765479048832 24.17518259253119 -14.286474895072951  0.99999999999998868 153.95866860232121 54.719313358613114 -13.995833262694605  1.0000000000000064 155.23164665366551 60.927400112249209 -13.770510015978722  1 
137.19896800211785 -2.8667798365165633 -14.928124586755796  1 142.51310892040638 16.09001908430583 -14.673185636731517  1.0000000000000067 144.75689672778284 24.521934072793066 -14.434763950704173  0.99999999999998868 153.40873267141075 54.602616587421871 -14.146772021101809  1.0000000000000064 154.79094331643739 61.159299811655941 -13.923502986741754  1 
136.73488835803713 -2.7424300706398754 -14.999999999999979  1 142.01510878286913 16.125766596112612 -14.746233855593283  1.0000000000000067 144.34539467479399 24.877981671788159 -14.508908990165938  0.99999999999998868 152.84405341566614 54.48279127287028 -14.222241921094412  1.0000000000000064 154.338425089342 61.39741654908957 -13.999999999999963  1 
136.2708086341793 -2.6180802833866355 -15  1 141.51710855971399 16.161514114063724 -14.746233855592937  1.0000000000000067 143.93389255106953 25.234029331990868 -14.508908990166223  0.99999999999998868 152.27937406284812 54.362965937720155 -14.222241921094334  1.0000000000000064 153.88590678445829 61.635533327458795 -14  1 

3 9
4 9

0 5
1 5

9 1 0 0 0 8 4 9 5 2 2 136.2708086341793 -2.6180802833866355 -15  1 141.51710855971399 16.161514114063724 -14.746233855592937  1.0000000000000067 143.93389255106953 25.234029331990868 -14.508908990166223  0.99999999999998868 152.27937406284812 54.362965937720155 -14.222241921094334  1.0000000000000064 153.88590678445829 61.635533327458795 -14  1 
133.18292542854769 -1.7906844719708703 -15  1 138.21852576891735 16.402725219313371 -14.746233855592937  1.0000000000000067 141.2153442926178 27.578286204779857 -14.508908990166223  0.99999999999998868 148.56872697573598 53.576723946858422 -14.222241921094334  1.0000000000000064 150.92166478589979 63.195328251517864 -14  1 
130.09504222291605 -0.96328866055510542 -15  1 134.91994297812013 16.643936324563278 -14.746233855592937  1.0000000000000067 138.49679603416718 29.922543077568402 -14.508908990166223  0.99999999999998868 144.85807988862302 52.790481955996903 -14.222241921094334  1.0000000000000064 147.95742278734122 64.755123175576941 -14  1 
127.00715901728435 -0.13589284913934063 -15  1 131.62136018732363 16.885147429813031 -14.746233855592937  1.0000000000000067 135.77824777571519 32.266799950357161 -14.508908990166223  0.99999999999998868 141.14743280151089 52.004239965135284 -14.222241921094334  1.0000000000000064 144.99318078878269 66.314918099636003 -14  1 
123.91927581165268 0.69150296227642405 -15  1 128.32277739652704 17.126358535062796 -14.746233855592937  1.0000000000000067 133.05969951726328 34.611056823145923 -14.508908990166223  0.99999999999998868 137.43678571439875 51.217997974273665 -14.222241921094334  1.0000000000000064 142.02893879022417 67.874713023695065 -14  1 
120.83139260602101 1.5188987736921884 -15  1 125.02419460572975 17.367569640312606 -14.746233855592937  1.0000000000000067 130.34115125881272 36.955313695934642 -14.508908990166223  0.99999999999998868 133.72613862728579 50.431755983412039 -14.222241921094334  1.0000000000000064 139.06469679166568 69.434507947754128 -14  1 
117.74350940038939 2.3462945851079531 -15  1 121.72561181493337 17.608780745562232 -14.746233855592937  1.0000000000000067 127.62260300036064 39.299570568723688 -14.508908990166223  0.99999999999998868 130.01549154017366 49.645513992550207 -14.222241921094334  1.0000000000000064 136.1004547931071 70.994302871813204 -14  1 
114.65562619475772 3.1736903965237189 -15  1 118.42702902413625 17.849991850812007 -14.746233855592937  1.0000000000000067 124.90405474190982 41.643827441512457 -14.508908990166223  0.99999999999998868 126.30484445306089 48.859272001688588 -14.222241921094334  1.0000000000000064 133.13621279454861 72.554097795872281 -14  1 
111.56774298912606 4.0010862079394833 -14.999999999999998  1 115.12844623334003 18.0912029560617 -14.746233855592932  1.0000000000000067 122.1855064834573 43.988084314301318 -14.508908990166233  0.99999999999998868 122.59419736594916 48.073030010826855 -14.222241921094307  1.0000000000000064 130.17197079599006 74.113892719931357 -14  1 

4 9
5 9

0 5
1 5

1 107.23761714813121 5.1613399303627228 -10.892200842364458 0.25881904514488002 0.96592582627771817 -7.3289634038860206e-016 0.93329756947247133 -0.25007633008194508 0.25771588222211639 0.24893442648028868 -0.066701778555399202 -0.96622074292082782 
1 126.46928612771829 76.062258863373827 -10.166054119540165 0.46566871085365946 0.88495912432828838 3.0228076813624688e-015 0.85933142823091269 -0.45218332392929517 0.23891366226081329 0.21142882534439514 -0.11125461711031692 -0.97104081375868345 
Triangulations 8
8 6 1 0.0805278380078306
107.237617148131 5.16133993036272 -10.8922008423645 106.317143836202 5.40798001099175 0 125.682190661031 76.4764313615321 0 114.352308890086 35.7361933716101 0 118.968256400439 53.1186337237001 0 126.469286127718 76.0622588633738 -10.1660541195402 115.239699548012 35.47690383339 -10.5670693883727 119.855496093145 52.931771813732 -10.3607175055099 0 0 1 0 1 1 1 0.444444444444444 1 0.722222222222222 0 1 0 0.444444444444444 0 0.722222222222222 4 1 2 4 7 1 5 8 7 5 7 4 3 6 8 3 8 5 
21 20 1 2.30458658176173e-014
107.237617148131 5.16133993036272 -10.8922008423645 106.317143836202 5.40798001099175 0 146.682856163798 -5.40798001099175 0 139.341135372687 -3.44077185361384 -13.1648135697864 136.270808634179 -2.61808028338663 -15 138.986672076549 -3.34579369965035 -13.6888973323768 138.549688652437 -3.22870434403331 -14.1412958793365 138.043462599366 -3.09306148190155 -14.5082632712659 137.483375366545 -2.94298656014986 -14.7786494378624 136.886444894175 -2.78303952211262 -14.9442387841897 111.567742989126 4.00108620793948 -15 110.865698165911 4.1891985514034 -14.9409173352342 110.18208832419 4.37237125646264 -14.7652208128545 109.534864318546 4.54579440612737 -14.4775240149584 108.941021594709 4.70491408443852 -14.0853815740571 108.416153852313 4.84555197217127 -13.5990907508732 107.974043555139 4.96401506928547 -13.0314210205097 107.626300063365 5.05719265709579 -12.3972788017429 107.382054777697 5.122637984157 -11.7133160286047 107.291408280992 5.14692663975013 -11.3062326765685 127.060324495038 -0.150138495971035 -5.96482959078825 -2.8421709430404e-014 0 1.88633879842806 -10.7698592179887 42.2643755924086 -7.105427357601e-015 31.5276316823881 10.7612926104139 27.983410821276 11.7153027897188 31.0379954522192 11.1730998837309 30.484288317606 11.4936264575384 29.8833343783497 11.713133251253 29.2533933301312 11.8249507157388 28.6136055983687 11.825681280267 3.27280283187666 5.12434913353685 2.585770201287 4.87995168398533 1.9472314239573 4.52779809050762 1.37395384184852 4.077135507534 0.880991140960175 3.53979788353119 0.481288014366394 2.92989515540354 0.185340237369624 2.26344271425915 0.000919093855497266 1.55794091100943 -0.0671326953392186 0.83191551239632 -0.0528950230406684 0.414398003364662 21.0986214485347 0.527911031139153 4 6 5 21 1 2 21 2 3 21 3 4 21 5 11 21 11 1 21 4 5 17 18 19 17 19 20 16 17 20 15 16 20 12 13 14 12 14 15 12 15 20 11 20 1 11 12 20 8 9 10 6 7 8 6 10 5 6 8 10 
19 17 1 2.9041587735073e-014
106.317143836202 5.40798001099175 0 146.682856163798 -5.40798001099175 0 163.034837563117 56.8213326663592 0 154.640394237757 23.9493872518663 7.05094674315076e-015 162.662985487117 54.3218981284252 -3.89920895360962e-015 163.028626098589 56.1475453413213 -3.06904262739945e-015 163.082070318036 56.6462292755418 -1.85987414369829e-015 163.07710906986 56.7494902130038 -1.26234422718463e-015 163.070623394975 56.7805927859224 -9.73683379516929e-016 163.063996054145 56.7982454870119 -7.45602117428852e-016 163.058657210472 56.8073750897195 -5.85939424749158e-016 163.054191087624 56.8127346714354 -4.63137177372525e-016 163.050164762325 56.8162201557812 -3.58784007506576e-016 163.046962364894 56.8182459559971 -2.79307093449895e-016 163.042859783723 56.8200254614489 -1.81336212013915e-016 163.038944679859 56.8209883902976 -9.13076071671846e-017 125.682190661031 76.4764313615321 0 114.352308890086 35.7361933716101 0 118.968256400439 53.1186337237001 0 1 0 2 0 2 1 2 0.444444444444444 2 0.888888888888889 2 0.944444444444444 2 0.972222222222222 2 0.982347222222222 2 0.986760416666667 2 0.9900703125 2 0.9923044921875 2 0.993980126953125 2 0.995376489257812 2 0.996423760986328 2 0.997696196136475 2 0.998848098068237 1 1 1 0.444444444444444 1 0.722222222222222 4 1 2 4 18 1 4 19 18 5 17 19 5 19 4 6 17 5 7 17 6 8 17 7 9 17 8 10 17 9 11 17 10 12 17 11 13 17 12 14 17 13 15 17 14 16 17 15 3 17 16 
21 20 1 4.77109294237107e-014
126.469286127718 76.0622588633738 -10.1660541195402 125.682190661031 76.4764313615321 0 163.034837563117 56.8213326663592 0 156.879743790738 60.0601654026649 -12.046810802931 153.885906784458 61.6355333274588 -14 156.534111086558 60.2420385890754 -12.6045932312436 156.108014042934 60.4662524036437 -13.0860810736468 155.614399382247 60.7259942339515 -13.4766445247452 155.068265362264 61.0133719421955 -13.7644165630181 154.486205962544 61.3196537159592 -13.9406533295239 130.17197079599 74.1138927199314 -14 129.571653230448 74.4297820069773 -13.9448561795519 128.987099392299 74.7373763633176 -13.7808727586642 128.43365903268 75.0285986940594 -13.5123557472945 127.925864933927 75.2958017962648 -13.1463561357867 127.477051247212 75.5319691910752 -12.692484700815 127.099003338411 75.7308993760891 -12.1626596191424 126.801648355492 75.8873686499286 -11.5707935482934 126.592794546678 75.9972682839727 -10.9324282933644 126.515282851658 76.0380552198928 -10.5524838314639 144.852654065845 66.3888637725059 -5.6445876191461 0 -3.5527136788005e-015 1.56515145200116 -10.0841467376089 42.5511627227172 7.105427357601e-015 32.9192033605589 10.0362456231344 29.1675064412568 11.1246216536897 32.4066884505747 10.4845641778611 31.8241100978078 10.8370745046566 31.1891696378046 11.0830657102753 30.5211594315096 11.2150635332743 29.8403766144031 11.229057229805 3.14686993203739 4.72253692698126 2.501332925332 4.50692144730379 1.89909628188036 4.18987402915178 1.3559740882569 3.7797199778903 0.886228180779983 3.2872295286536 0.502193603500703 2.72533497743261 0.213954692421605 2.10879107212834 0.0290803044758765 1.45378761715576 -0.0475749382498565 0.777524343361675 -0.0418524232443129 0.38765682232744 21.2517938922337 0.572455246098038 6 8 10 4 10 5 4 6 10 21 2 3 21 3 4 21 5 11 21 11 2 21 4 5 17 18 19 17 19 20 16 17 20 15 16 20 12 13 14 12 14 15 12 15 20 11 1 2 11 20 1 11 12 20 8 9 10 6 7 8 
44 60 1 0.0778931856776022
111.567742989126 4.00108620793948 -15 107.237617148131 5.16133993036272 -10.8922008423645 110.865698165911 4.1891985514034 -14.9409173352342 110.18208832419 4.37237125646264 -14.7652208128545 109.534864318546 4.54579440612737 -14.4775240149584 108.941021594709 4.70491408443852 -14.0853815740571 108.416153852313 4.84555197217127 -13.5990907508732 107.974043555139 4.96401506928547 -13.0314210205097 107.626300063365 5.05719265709579 -12.3972788017429 107.382054777697 5.122637984157 -11.7133160286047 107.291408280992 5.14692663975013 -11.3062326765685 126.469286127718 76.0622588633738 -10.1660541195402 115.239699548012 35.47690383339 -10.5670693883727 119.855496093145 52.931771813732 -10.3607175055099 130.17197079599 74.1138927199314 -14 129.571653230448 74.4297820069773 -13.9448561795519 128.987099392299 74.7373763633176 -13.7808727586642 128.43365903268 75.0285986940594 -13.5123557472945 127.925864933927 75.2958017962648 -13.1463561357867 127.477051247212 75.5319691910752 -12.692484700815 127.099003338411 75.7308993760891 -12.1626596191424 126.801648355492 75.8873686499286 -11.5707935482934 126.592794546678 75.9972682839727 -10.9324282933644 126.515282851658 76.0380552198928 -10.5524838314639 119.414196699797 34.2571440476405 -14.5522510206654 124.029283068555 52.0527288533721 -14.2680772078852 122.693657360366 52.3340255231294 -14.0447540366187 123.352585520519 52.1952483972297 -14.21187747305 118.078343732807 34.6474712342603 -14.3244799762807 122.069801328434 52.4654160939417 -13.7710953616292 117.454381550797 34.8297887565323 -14.0453709082257 116.881882078426 34.9970692237046 -13.6649338925023 118.737384010616 34.4549041300483 -14.4949319694226 121.497399251172 52.5859699265827 -13.3980874534113 120.991481818869 52.6925214013008 -12.9355251193664 116.375878563482 35.1449200226237 -13.1931588173011 120.565333880495 52.7822725906899 -12.3955547499393 115.94965811537 35.2694587499405 -12.6424339897622 120.230145641158 52.8528667211331 -11.7923554073964 115.614412843231 35.3674151471903 -12.0272208730758 115.378945956864 35.4362169761107 -11.3636743421759 119.994718813034 52.902450060475 -11.1417664970994 119.907345101228 52.920851873202 -10.7545467173062 115.291557378284 35.4617513267186 -10.9687424004982 5 0 6 0 5.10935 0 5.2187 0 5.32805 0 5.4374 0 5.54675 0 5.6561 0 5.76545 0 5.8748 0 5.9374 0 6 1 6 0.444444444444444 6 0.722222222222222 5 1 5.10935 1 5.2187 1 5.32805 1 5.4374 1 5.54675 1 5.6561 1 5.76545 1 5.8748 1 5.9374 1 5 0.444444444444444 5 0.722222222222222 5.2187 0.722222222222222 5.10935 0.722222222222222 5.2187 0.444444444444444 5.32805 0.722222222222222 5.32805 0.444444444444444 5.4374 0.444444444444444 5.10935 0.444444444444444 5.4374 0.722222222222222 5.54675 0.722222222222222 5.54675 0.444444444444444 5.6561 0.722222222222222 5.6561 0.444444444444444 5.76545 0.722222222222222 5.76545 0.444444444444444 5.8748 0.444444444444444 5.8748 0.722222222222222 5.9374 0.722222222222222 5.9374 0.444444444444444 27 17 16 27 18 17 27 16 28 27 28 29 30 19 18 30 31 32 12 24 14 30 29 31 33 1 3 30 18 27 33 3 4 30 27 29 34 20 19 33 25 1 34 30 32 33 26 25 34 19 30 35 32 36 35 34 32 29 33 4 31 4 5 31 5 6 35 20 34 37 21 20 37 22 21 31 29 4 37 36 38 37 35 36 37 20 35 32 31 6 39 38 40 39 22 37 36 6 7 39 40 41 39 37 38 42 23 22 42 24 23 36 32 6 38 7 8 42 22 39 42 39 41 43 13 14 43 24 42 38 36 7 43 44 13 43 41 44 43 14 24 40 8 9 43 42 41 40 38 8 16 15 26 41 9 10 41 40 9 44 10 11 44 11 2 44 2 13 44 41 10 28 26 33 28 33 29 28 16 26 
19 17 1 0.0679984457484608
146.682856163798 -5.40798001099175 0 139.341135372687 -3.44077185361384 -13.1648135697864 156.879743790738 60.0601654026649 -12.046810802931 147.622000916289 25.9994690192355 -12.6642289720336 153.197466004116 45.9176512554686 -12.3465218630775 163.034837563117 56.8213326663592 0 154.640394237757 23.9493872518663 7.05094674315076e-015 162.662985487117 54.3218981284252 -3.89920895360962e-015 163.028626098589 56.1475453413213 -3.06904262739945e-015 163.082070318036 56.6462292755418 -1.85987414369829e-015 163.07710906986 56.7494902130038 -1.26234422718463e-015 163.070623394975 56.7805927859224 -9.73683379516929e-016 163.063996054145 56.7982454870119 -7.45602117428852e-016 163.058657210472 56.8073750897195 -5.85939424749158e-016 163.054191087624 56.8127346714354 -4.63137177372525e-016 163.050164762325 56.8162201557812 -3.58784007506576e-016 163.046962364894 56.8182459559971 -2.79307093449895e-016 163.042859783723 56.8200254614489 -1.81336212013915e-016 163.038944679859 56.8209883902976 -9.13076071671846e-017 2 0 3 0 3 1 3 0.444444444444444 3 0.722222222222222 2 1 2 0.444444444444444 2 0.888888888888889 2 0.944444444444444 2 0.972222222222222 2 0.982347222222222 2 0.986760416666667 2 0.9900703125 2 0.9923044921875 2 0.993980126953125 2 0.995376489257813 2 0.996423760986328 2 0.997696196136475 2 0.998848098068237 4 1 2 4 7 1 5 8 7 5 7 4 3 9 8 3 10 9 3 11 10 3 12 11 3 13 12 3 14 13 3 15 14 3 16 15 3 17 16 3 18 17 3 19 18 3 6 19 3 8 5 
28 36 1 0.107899346945038
139.341135372687 -3.44077185361384 -13.1648135697864 136.270808634179 -2.61808028338663 -15 138.986672076549 -3.34579369965035 -13.6888973323768 138.549688652437 -3.22870434403331 -14.1412958793365 138.043462599366 -3.09306148190155 -14.5082632712659 137.483375366545 -2.94298656014986 -14.7786494378624 136.886444894175 -2.78303952211262 -14.9442387841897 153.885906784458 61.6355333274588 -14 144.483646635517 26.918410513626 -14.5522510206654 149.939469185305 46.6028175563867 -14.2680772078852 156.879743790738 60.0601654026649 -12.046810802931 156.534111086558 60.2420385890754 -12.6045932312436 156.108014042934 60.4662524036437 -13.0860810736468 155.614399382247 60.7259942339515 -13.4766445247452 155.068265362264 61.0133719421955 -13.7644165630181 154.486205962544 61.3196537159592 -13.9406533295239 147.622000916289 25.9994690192355 -12.6642289720336 153.197466004116 45.9176512554686 -12.3465218630775 146.295576320458 26.3878593956048 -14.0463570304488 146.813018545993 26.2363471412658 -13.6688245271102 145.723079542612 26.55549217301 -14.3245277033432 145.112923209805 26.7341520444326 -14.494884421188 152.821336559415 45.9967523825182 -12.8952704471738 147.259683971691 26.1055590411784 -13.2034012778061 152.357643041793 46.0942684913107 -13.3689601124752 151.820474521642 46.2072366089579 -13.7531979979145 151.226152621011 46.3322242504003 -14.0363092802517 150.592735481512 46.4654337354136 -14.2096917160848 3 0 4 0 3.16666666666667 0 3.33333333333333 0 3.5 0 3.66666666666667 0 3.83333333333333 0 4 1 4 0.444444444444444 4 0.722222222222222 3 1 3.16666666666667 1 3.33333333333333 1 3.5 1 3.66666666666667 1 3.83333333333333 1 3 0.444444444444444 3 0.722222222222222 3.5 0.444444444444444 3.33333333333333 0.444444444444444 3.66666666666667 0.444444444444444 3.83333333333333 0.444444444444444 3.16666666666667 0.722222222222222 3.16666666666667 0.444444444444444 3.33333333333333 0.722222222222222 3.5 0.722222222222222 3.66666666666667 0.722222222222222 3.83333333333333 0.722222222222222 19 20 5 21 5 6 21 19 5 22 6 7 22 7 2 22 2 9 22 21 6 23 12 11 23 13 12 23 11 18 23 18 24 17 1 3 25 23 24 25 13 23 25 24 20 25 20 19 26 14 13 26 13 25 26 25 19 27 15 14 27 19 21 27 26 19 27 14 26 28 9 10 28 10 8 28 16 15 28 8 16 28 21 22 28 22 9 28 27 21 28 15 27 24 3 4 24 18 17 24 17 3 20 4 5 20 24 4 
8 6 1 0.0361387821041604
136.270808634179 -2.61808028338663 -15 111.567742989126 4.00108620793948 -15 130.17197079599 74.1138927199314 -14 119.414196699797 34.2571440476405 -14.5522510206654 124.029283068555 52.0527288533721 -14.2680772078852 153.885906784458 61.6355333274588 -14 144.483646635517 26.918410513626 -14.5522510206654 149.939469185305 46.6028175563867 -14.2680772078852 4 0 5 0 5 1 5 0.444444444444444 5 0.722222222222222 4 1 4 0.444444444444444 4 0.722222222222222 7 1 2 4 7 2 5 8 7 5 7 4 3 6 8 3 8 5 

TShapes 48
Ve
1e-007
107.237617148131 5.16133993036272 -10.8922008423645
0 0

0101101
*
Ve
1e-007
106.317143836202 5.40798001099175 0
0 0

0101101
*
Ed
 1e-007 1 1 0
1  1 0 0 1
2  1 1 0 0 1
6  1 1 0
6  2 2 0
0

0101000
+48 0 -47 0 *
Ve
1e-007
125.682190661031 76.4764313615321 0
0 0

0101101
*
Ed
 1e-007 1 1 0
1  2 0 0 1
2  2 1 0 0 1
2  3 2 0 0 1
6  3 1 0
6  4 3 0
0

0101000
+47 0 -45 0 *
Ve
1e-007
126.469286127718 76.0622588633738 -10.1660541195402
0 0

0101101
*
Ed
 1e-007 1 1 0
1  3 0 0 1
2  4 1 0 0 1
6  5 1 0
6  6 4 0
0

0101000
+43 0 -45 0 *
Ed
 1e-007 1 1 0
1  4 0 0 1
2  5 1 0 0 1
2  6 3 0 0 1
4 G1 1 0 3 0
6  7 1 0
6  8 5 0
0

0101000
+48 0 -43 0 *
Wi

0101000
+46 0 +44 0 -42 0 -41 0 *
Fa
0  1e-007 1 0
2  1
0101000
+40 0 *
Ve
1e-007
146.682856163798 -5.40798001099175 0
0 0

0101101
*
Ed
 1e-007 1 1 0
1  5 0 1 2
2  7 2 0 1 2
6  9 3 0
6  10 2 0
0

0101000
+47 0 -38 0 *
Ve
1e-007
163.034837563117 56.8213326663592 0
0 0

0101101
*
Ed
 1e-007 1 1 0
1  6 0 0 1
2  8 2 0 0 1
2  9 4 0 0 1
6  11 3 0
6  12 6 0
0

0101000
+38 0 -36 0 *
Ed
 1e-007 1 1 0
1  7 0 1 2
2  10 2 0 1 2
6  13 3 0
6  14 4 0
0

0101000
+45 0 -36 0 *
Wi

0101000
+37 0 +35 0 -34 0 -44 0 *
Fa
0  1e-007 2 0
2  3
0101000
+33 0 *
Ve
1e-007
139.341135372687 -3.44077185361384 -13.1648135697864
0 0

0101101
*
Ed
 1e-007 1 1 0
1  8 0 2 3
2  11 4 0 2 3
6  15 6 0
6  16 2 0
0

0101000
+38 0 -31 0 *
Ve
1e-007
156.879743790738 60.0601654026649 -12.046810802931
0 0

0101101
*
Ed
 1e-007 1 1 0
1  9 0 0 1
2  12 4 0 0 1
2  13 5 0 0 1
6  17 6 0
6  18 7 0
0

0101000
+31 0 -29 0 *
Ed
 1e-007 1 1 0
1  10 0 2 3
2  14 4 0 2 3
6  19 6 0
6  20 4 0
0

0101000
+36 0 -29 0 *
Wi

0101000
+30 0 +28 0 -27 0 -35 0 *
Fa
0  1e-007 4 0
2  6
0101000
+26 0 *
Ve
1e-007
136.270808634179 -2.61808028338663 -15
0 0

0101101
*
Ed
 1e-007 1 1 0
1  11 0 3 4
2  15 5 0 3 4
6  21 7 0
6  22 2 0
0

0101000
+31 0 -24 0 *
Ve
1e-007
153.885906784458 61.6355333274588 -14
0 0

0101101
*
Ed
 1e-007 1 1 0
1  12 0 0 1
2  16 5 0 0 1
2  17 6 0 0 1
6  23 7 0
6  24 8 0
0

0101000
+24 0 -22 0 *
Ed
 1e-007 1 1 0
1  13 0 3 4
2  18 5 0 3 4
6  25 7 0
6  26 4 0
0

0101000
+29 0 -22 0 *
Wi

0101000
+23 0 +21 0 -20 0 -28 0 *
Fa
0  1e-007 5 0
2  7
0101000
+19 0 *
Ve
1e-007
111.567742989126 4.00108620793948 -15
0 0

0101101
*
Ed
 1e-007 1 1 0
1  14 0 4 5
2  19 6 0 4 5
6  27 8 0
6  28 2 0
0

0101000
+24 0 -17 0 *
Ve
1e-007
130.17197079599 74.1138927199314 -14
0 0

0101101
*
Ed
 1e-007 1 1 0
1  15 0 0 1
2  20 6 0 0 1
2  21 3 0 0 1
6  29 8 0
6  30 5 0
0

0101000
+17 0 -15 0 *
Ed
 1e-007 1 1 0
1  16 0 4 5
2  22 6 0 4 5
6  31 8 0
6  32 4 0
0

0101000
+22 0 -15 0 *
Wi

0101000
+16 0 +14 0 -13 0 -21 0 *
Fa
0  1e-007 6 0
2  8
0101000
+12 0 *
Ed
 1e-007 1 1 0
1  17 0 5 6
2  23 3 0 5 6
6  33 5 0
6  34 2 0
0

0101000
+17 0 -48 0 *
Ed
 1e-007 1 1 0
1  18 0 5 6
2  24 3 0 5 6
6  35 5 0
6  36 4 0
0

0101000
+15 0 -43 0 *
Wi

0101000
+10 0 +41 0 -9 0 -14 0 *
Fa
0  1e-007 3 0
2  5
0101000
+8 0 *
Wi

0101000
-46 0 -37 0 -30 0 -23 0 -16 0 -10 0 *
Fa
0  1e-007 7 0
2  2
0101000
-6 0 *
Wi

0101000
+42 0 +34 0 +27 0 +20 0 +13 0 +9 0 *
Fa
0  1e-007 8 0
2  4
0101000
+4 0 *
Sh

0101100
+39 0 +32 0 +25 0 +18 0 +11 0 +7 0 -5 0 +3 0 *
So

0100100
+2 0 *

+1 0 