DBRep_DrawableShape

CASCADE Topology V1, (c) Matra-Datavision
Locations 18
1
              1               0               0              50 
              0               1               0              -0 
              0               0               1              -0 
1
              1               0               0             -50 
              0               1               0               0 
              0               0               1               0 
2  1 1 2 1 0
1
              1               0               0              -0 
              0               1               0              60 
              0               0               1              -0 
2  1 -1 0
2  2 -1 1 -1 0
1
              1               0               0               0 
              0               1               0              -0 
              0               0               1              -0 
2  7 -1 0
1
              1               0               0             -10 
              0               1               0               0 
              0               0               1               0 
2  9 -1 7 -1 0
1
              1               0               0               0 
              0               1               0              -0 
              0               0               1              -0 
2  11 -1 0
1
              1               0               0             -10 
              0               1               0               0 
              0               0               1               0 
2  13 -1 11 -1 0
1
              1               0               0               0 
              0               1               0              -0 
              0               0               1              -0 
2  15 -1 0
1
              1               0               0             -10 
              0               1               0               0 
              0               0               1               0 
2  17 -1 15 -1 0
Curve2ds 33
1 0 0 0 -1 
1 60 0 0 -1 
1 4.7123889803846897 0 0 -1 
1 62.500918493548852 0 0 -1 
1 -62.500918493548852 50 -0 -1 
1 0 -60 -1 -0 
1 0 0 1 0 
1 0 -50 1 0 
1 3.1415158102992478 0 0 -1 
1 0 0 0 -1 
2 -62.500918493548859 -47.500918456646026 1 0 -0 1 12.499081543354002
1 0 0 1 0 
1 0 -10 1 0 
1 0 0 1 0 
1 0 -10 1 0 
1 0 0 1 0 
1 0 -10 1 0 
1 0 0 1 0 
1 0 -50 1 0 
2 12.499081506451141 -12.499081543353974 1 0 0 -1 12.499081543354002
1 0 0 0 -1 
1 47.499957986092383 0 0 -1 
1 -75 -47.499957986092383 0 1 
1 0 0 1 0 
1 0 -50 1 0 
1 75 0 0 -1 
1 0 0 0 -1 
1 -75 -0 1 0 
1 0 0 1 0 
1 0 -50 1 0 
1 0 -0 0 -1 
1 0 0 1 0 
1 0 -50 1 0 
Curves 10
1 50 60 0 -1 0 0 
1 50 60 62.500918493548852 -1 0 0 
1 0 60 0 0 0 1 
1 50 47.499957986092383 75 -1 0 0 
2 0 47.500918456646026 62.500918493548859 -1 0 0 0 0 -1 -0 -1 -0 12.499081543354
1 50 0 75 -1 0 0 
1 0 47.499957986092383 75 0 -1 0 
1 50 0 0 -1 0 0 
1 0 0 75 0 0 -1 
1 0 0 0 0 1 0 
Polygon3D 0
PolygonOnTriangulations 25
2 1 2 
p 0.304119308267575 1 0 50 
2 3 4 
p 0.304119308267575 1 0 50 
2 3 4 
p 0.304119308267575 1 0 50 
2 3 4 
p 0.304119308267575 1 0 50 
2 1 3 
p 0.304119308267575 1 0 62.5009184935489 
2 2 4 
p 0.304119308267575 1 0 62.5009184935489 
2 1 2 
p 0.304119308267575 1 0 62.5009184935489 
2 1 2 
p 0.304119308267575 1 0 50 
2 1 2 
p 0.304119308267575 1 0 50 
10 2 13 14 15 16 17 18 19 20 4 
p 0.304119308267575 1 3.14151581029925 3.31605727364207 3.4905987369849 3.66514020032773 3.83968166367056 4.01422312701338 4.18876459035621 4.36330605369904 4.53784751704186 4.71238898038469 
10 1 5 6 7 8 9 10 11 12 3 
p 0.304119308267575 1 3.14151581029925 3.31605727364207 3.4905987369849 3.66514020032773 3.83968166367056 4.01422312701338 4.18876459035621 4.36330605369904 4.53784751704186 4.71238898038469 
10 3 4 5 6 7 8 9 10 11 2 
p 0.304119308267575 1 3.14151581029925 3.31605727364207 3.4905987369849 3.66514020032773 3.83968166367056 4.01422312701338 4.18876459035621 4.36330605369904 4.53784751704186 4.71238898038469 
2 3 4 
p 0.304119308267575 1 0 50 
2 1 2 
p 0.304119308267575 1 0 50 
2 1 3 
p 0.304119308267575 1 0 47.4999579860924 
2 2 4 
p 0.304119308267575 1 0 47.4999579860924 
2 3 12 
p 0.304119308267575 1 0 47.4999579860924 
2 3 4 
p 0.304119308267575 1 0 50 
2 1 2 
p 0.304119308267575 1 0 50 
2 2 4 
p 0.304119308267575 1 0 75 
2 1 3 
p 0.304119308267575 1 0 75 
2 12 13 
p 0.304119308267575 1 0 75 
2 2 4 
p 0.304119308267575 1 0 60 
2 1 3 
p 0.304119308267575 1 0 60 
2 13 1 
p 0.304119308267575 1 0 60 
Surfaces 11
1 50 60 0 0 1 -0 0 0 1 1 -0 0 
1 50 0 0 0 0 -1 0 1 0 1 -0 0 
2 50 47.500918456646026 62.500918493548859 1 -0 -0 0 0 -1 -0 -1 -0 12.499081543354
1 0 0 0 0 -1 0 0 -0 -1 1 0 0 
1 0 0 0 -1 0 0 0 0 -1 -0 -1 -0 
1 50 47.499957986092383 75 0 0 1 0 -1 0 1 0 -0 
2 0 47.500918456646026 62.500918493548859 1 -0 -0 0 0 -1 -0 -1 -0 12.499081543354
2 0 47.500918456646026 62.500918493548859 1 -0 -0 0 0 -1 -0 -1 -0 12.499081543354
2 0 47.500918456646026 62.500918493548859 1 -0 -0 0 0 -1 -0 -1 -0 12.499081543354
1 0 60 75 1 0 0 0 0 -1 -0 1 0 
1 50 0 75 -0 -1 -0 0 0 -1 1 -0 0 
Triangulations 6
4 2 1 0
50 60 0 0 60 0 50 60 62.5009184935489 0 60 62.5009184935489 0 0 0 -50 62.5009184935489 0 62.5009184935489 -50 3 1 2 3 2 4 
4 2 1 0
50 0 0 0 0 0 50 60 0 0 60 0 0 0 0 -50 60 0 60 -50 3 1 2 3 2 4 
20 18 1 0.0475674295465302
50 47.4999579860924 75 0 47.4999579860924 75 50 60 62.5009184935489 0 60 62.5009184935489 50 49.6705204028984 74.8102591266709 50 51.7751541288363 74.2464686656774 50 53.7499046921894 73.3257607767141 50 55.5347644405595 72.0761134332965 50 57.0754960209629 70.5355002432289 50 58.3252805151871 68.7507365271423 50 59.2461401477632 66.7760567198433 50 59.8100923340729 64.6714663236334 0 49.6705204028984 74.8102591266709 0 51.7751541288363 74.2464686656774 0 53.7499046921894 73.3257607767141 0 55.5347644405595 72.0761134332965 0 57.0754960209629 70.5355002432289 0 58.3252805151871 68.7507365271423 0 59.2461401477632 66.7760567198433 0 59.8100923340729 64.6714663236334 3.14151581029925 0 3.14151581029925 -50 4.71238898038469 0 4.71238898038469 -50 3.31605727364207 0 3.4905987369849 0 3.66514020032773 0 3.83968166367056 0 4.01422312701338 0 4.18876459035621 0 4.36330605369904 0 4.53784751704186 0 3.31605727364207 -50 3.4905987369849 -50 3.66514020032773 -50 3.83968166367056 -50 4.01422312701338 -50 4.18876459035621 -50 4.36330605369904 -50 4.53784751704186 -50 5 1 2 5 2 13 6 13 14 6 5 13 7 14 15 7 6 14 8 15 16 8 7 15 9 16 17 9 8 16 10 17 18 10 9 17 11 18 19 11 10 18 12 19 20 12 11 19 3 20 4 3 12 20 
13 11 1 7.60502771868232e-015
0 60 0 0 60 62.5009184935489 0 47.4999579860924 75 0 49.6705204028984 74.8102591266709 0 51.7751541288363 74.2464686656774 0 53.7499046921894 73.3257607767141 0 55.5347644405595 72.0761134332965 0 57.0754960209629 70.5355002432289 0 58.3252805151871 68.7507365271423 0 59.2461401477632 66.7760567198433 0 59.8100923340729 64.6714663236334 0 0 75 0 0 0 0 -60 -62.5009184935489 -60 -75 -47.4999579860924 -74.8102591266709 -49.6705204028984 -74.2464686656774 -51.7751541288363 -73.3257607767141 -53.7499046921894 -72.0761134332965 -55.5347644405595 -70.5355002432289 -57.0754960209629 -68.7507365271423 -58.3252805151871 -66.7760567198433 -59.2461401477632 -64.6714663236334 -59.8100923340729 -75 0 0 0 3 4 5 3 5 6 3 6 7 3 7 8 3 8 9 3 9 10 3 10 11 3 11 2 12 3 2 13 2 1 13 12 2 
4 2 1 0
50 47.4999579860924 75 0 47.4999579860924 75 50 0 75 0 0 75 0 0 0 -50 47.4999579860924 0 47.4999579860924 -50 3 1 2 3 2 4 
4 2 1 0
50 0 75 0 0 75 50 0 0 0 0 0 0 0 0 -50 75 0 75 -50 3 1 2 3 2 4 

TShapes 29
Ve
1e-007
0 60 0
0 0

0101101
*
Ed
 1e-007 1 1 0
1  1 0 0 50
2  1 1 0 0 50
2  2 2 0 0 50
6  1 1 0
6  2 2 0
0

0101000
+29 1 -29 3 *
Ve
5.74346302921947e-005
0 60 62.5009184935489
0 0

0101101
*
Ed
 1e-007 1 1 0
1  2 0 0 50
2  3 3 0 0 50
4 G1 1 0 3 0
2  4 1 0 0 50
2  5 4 4 0 50
6  3 3 0
6  4 1 0
0

0101000
+27 1 -27 3 *
Ed
 1e-007 1 1 0
1  3 0 0 62.5009184935489
2  6 5 0 0 62.5009184935489
2  7 1 5 0 62.5009184935489
2  8 1 6 0 62.5009184935489
6  5 1 5
6  6 1 6
6  7 4 0
0

0101000
+29 0 -27 0 *
Wi

0101100
+28 0 -26 0 -25 1 +25 3 *
Fa
0  1e-007 1 0
2  1
0111000
+24 0 *
Ve
0.00192094183496563
0 47.4999579860924 75
0 0

0101101
*
Ed
 1e-007 1 1 0
1  4 0 0 50
2  9 3 0 0 50
4 G1 3 0 6 0
2  10 6 0 0 50
6  8 3 0
6  9 5 0
0

0101000
+22 1 -22 3 *
Ed
 1e-007 1 1 0
1  5 0 3.14151581029925 4.71238898038469
2  11 5 0 3.14151581029925 4.71238898038469
2  12 7 8 3.14151581029925 4.71238898038469
2  13 7 10 3.14151581029925 4.71238898038469
2  14 8 12 3.14151581029925 4.71238898038469
2  15 8 14 3.14151581029925 4.71238898038469
2  16 9 16 3.14151581029925 4.71238898038469
2  17 9 18 3.14151581029925 4.71238898038469
2  18 3 5 3.14151581029925 4.71238898038469
2  19 3 6 3.14151581029925 4.71238898038469
2  20 10 6 3.14151581029925 4.71238898038469
6  10 3 6
6  11 3 5
6  12 4 0
0

0101000
+22 0 -27 0 *
Wi

0101100
+21 0 -26 0 -20 1 +20 3 *
Fa
0  1e-007 3 0
2  3
0111000
+19 0 *
Ve
1e-007
0 0 75
0 0

0101101
*
Ed
 1e-007 1 1 0
1  6 0 0 50
2  21 11 0 0 50
2  22 6 0 0 50
6  13 5 0
6  14 6 0
0

0101000
+17 1 -17 3 *
Ed
 1e-007 1 1 0
1  7 0 0 47.4999579860924
2  23 5 0 0 47.4999579860924
2  24 6 5 0 47.4999579860924
2  25 6 6 0 47.4999579860924
6  15 5 5
6  16 5 6
6  17 4 0
0

0101000
+22 0 -17 0 *
Wi

0101100
+21 0 -16 0 -15 1 +15 3 *
Fa
0  1e-007 6 0
2  5
0111000
+14 0 *
Ve
1e-007
0 0 0
0 0

0101101
*
Ed
 1e-007 1 1 0
1  8 0 0 50
2  26 11 0 0 50
2  27 2 0 0 50
6  18 6 0
6  19 2 0
0

0101000
+12 1 -12 3 *
Ed
 1e-007 1 1 0
1  9 0 0 75
2  28 5 0 0 75
2  29 11 5 0 75
2  30 11 6 0 75
6  20 6 6
6  21 6 5
6  22 4 0
0

0101000
+17 0 -12 0 *
Wi

0101100
+16 0 -11 0 -10 1 +10 3 *
Fa
0  1e-007 11 0
2  6
0111000
+9 0 *
Ed
 1e-007 1 1 0
1  10 0 0 60
2  31 5 0 0 60
2  32 2 5 0 60
2  33 2 6 0 60
6  23 2 6
6  24 2 5
6  25 4 0
0

0101000
+12 0 -29 0 *
Wi

0101100
+11 0 -28 0 -7 1 +7 3 *
Fa
0  1e-007 2 0
2  2
0111000
+6 0 *
Wi

0101100
-25 0 +20 0 -15 0 -10 0 -7 0 *
Fa
0  1e-007 5 0
2  4
0111000
+4 0 *
Sh

0101100
-23 0 +18 0 -13 0 -8 0 -5 0 +3 1 -3 3 *
So

0100000
-2 0 *

+1 0 