DBRep_DrawableShape

CASCADE Topology V1, (c) Matra-Datavision
Locations 0
Curve2ds 18
2 0 0 1 1.899778884988813e-017 -1.899778884988813e-017 1 0.022827965529091322
1 0 0.0064480862241933432 1 0 
2 0 0 1 0 -0 1 0.0089999999999999993
1 0 0 1 0 
1 0.022827965529091325 4.3368086899420177e-019 -1 0 
1 -0.042000000000000003 0.022827965529091325 -0 -1 
1 0.017988682319887529 0.014054298936323636 -0.78801075360672201 -0.6156614753256584 
1 -0.042000000000000003 0.022827965529091325 -0 -1 
1 0 0 1 0 
1 0 0.015257471829512578 1 0 
1 0 0 0 1 
1 -0.035551913775806659 0.022827965529091325 -1 0 
1 0.66322511575784526 0 0 1 
1 -0.035551913775806659 0.022827965529091325 -1 0 
1 0 0 0 1 
1 -0.042000000000000003 0.0089999999999999993 0.42261826180932471 0.90630778700464953 
1 0.66322511575784526 0 0 1 
1 -0.042000000000000003 0.0089999999999999993 0.42261826180932471 0.90630778700464953 
Curves 9
2 0 0 0.042000000000000003 0 0 -1 0.98480775301220813 0.17364817766693036 0 0.17364817766693036 -0.98480775301220813 0 0.022827965529091322
2 0 0 0.042000000000000003 0 0 -1 0.98480775301220813 0.17364817766693036 0 0.17364817766693036 -0.98480775301220813 0 0.0089999999999999993
1 0.022481157438544567 0.0039640346139702114 0.042000000000000003 -0.98480775301220813 -0.17364817766693036 0 
1 0.020155897213777745 -0.010717080652164947 0.042000000000000003 -0.88294759285892699 0.46947156278589086 0 
2 0 0 0.035551913775806659 0 0 -1 0.98480775301220813 0.17364817766693036 0 0.17364817766693036 -0.98480775301220813 0 0.022827965529091322
1 0.022481157438544567 0.0039640346139702114 0.035551913775806659 0 0 1 
1 0.020155897213777745 -0.010717080652164947 0.035551913775806659 0 0 1 
1 0.0088632697771098713 0.0015628335990023729 0.042000000000000003 0.89253893525751571 0.15737869561870582 -0.42261826180932471 
1 0.0079465283357303407 -0.0042252440650730159 0.042000000000000003 0.80022227892505637 -0.42548573313009502 -0.42261826180932471 
Polygon3D 0
PolygonOnTriangulations 0
Surfaces 5
1 0 0 0.042000000000000003 0 0 -1 0.98480775301220813 0.17364817766693036 0 0.17364817766693036 -0.98480775301220813 0 
2 0 0 0.035551913775806659 -0 -0 1 0.98480775301220813 0.17364817766693036 0 0.17364817766693036 -0.98480775301220813 -0 0.022827965529091325
3 0 0 0.042000000000000003 0 0 -1 0.98480775301220813 0.17364817766693036 0 0.17364817766693036 -0.98480775301220813 0 0.0089999999999999993
1.1344640137205946
1 0 0 0 0.17364817766693036 -0.98480775301220813 0 0 0 -1 0.98480775301220813 0.17364817766693036 0 
1 0 0 0 -0.46947156278589086 -0.88294759285892699 0 0 0 -1 0.88294759285892699 -0.46947156278589086 0 
Triangulations 0

TShapes 27
Ve
1e-007
0.0224811574385446 0.00396403461397021 0.042
0 0

0101101
*
Ve
1e-007
0.0201558972137777 -0.0107170806521649 0.042
0 0

0101101
*
Ed
 1e-007 1 1 0
1  1 0 0 0.663225115757845
2  1 1 0 0 0.663225115757845
2  2 2 0 0 0.663225115757845
0

0101000
+27 0 -26 0 *
Ve
1e-007
0.00886326977710987 0.00156283359900237 0.042
0 0

0101101
*
Ve
1e-007
0.00794652833573034 -0.00422524406507302 0.042
0 0

0101101
*
Ed
 1e-007 1 1 0
1  2 0 0 0.663225115757845
2  3 1 0 0 0.663225115757845
2  4 3 0 0 0.663225115757845
0

0101000
+24 0 -23 0 *
Ed
 1e-007 1 1 0
1  3 0 0 0.0138279655290913
2  5 1 0 0 0.0138279655290913
2  6 4 0 0 0.0138279655290913
0

0101000
+27 0 -24 0 *
Ed
 1e-007 1 1 0
1  4 0 0 0.0138279655290913
2  7 1 0 0 0.0138279655290913
2  8 5 0 0 0.0138279655290913
0

0101000
+26 0 -23 0 *
Wi

0101100
+25 0 -22 0 -21 0 +20 0 *
Fa
0  1e-007 1 0

0111000
+19 0 *
Ve
1e-007
0.0224811574385446 0.00396403461397021 0.0355519137758067
0 0

0101101
*
Ve
1e-007
0.0201558972137777 -0.0107170806521649 0.0355519137758067
0 0

0101101
*
Ed
 1e-007 1 1 0
1  5 0 0 0.663225115757845
2  9 2 0 0 0.663225115757845
2  10 3 0 0 0.663225115757845
0

0101000
+17 0 -16 0 *
Ed
 1e-007 1 1 0
1  6 0 0 0.00644808622419334
2  11 2 0 0 0.00644808622419334
2  12 4 0 0 0.00644808622419334
0

0101000
+17 0 -27 0 *
Ed
 1e-007 1 1 0
1  7 0 0 0.00644808622419334
2  13 2 0 0 0.00644808622419334
2  14 5 0 0 0.00644808622419334
0

0101000
+16 0 -26 0 *
Wi

0101100
+15 0 -25 0 -14 0 +13 0 *
Fa
0  1e-007 2 0

0111000
+12 0 *
Ed
 1e-007 1 1 0
1  8 0 0 0.0152574718295126
2  15 3 0 0 0.0152574718295126
2  16 4 0 0 0.0152574718295126
0

0101000
+24 0 -17 0 *
Ed
 1e-007 1 1 0
1  9 0 0 0.0152574718295126
2  17 3 0 0 0.0152574718295126
2  18 5 0 0 0.0152574718295126
0

0101000
+23 0 -16 0 *
Wi

0101100
+22 0 -15 0 -10 0 +9 0 *
Fa
0  1e-007 3 0

0111000
+8 0 *
Wi

0101100
+21 0 +14 0 +10 0 *
Fa
0  1e-007 4 0

0111000
+6 0 *
Wi

0101100
+20 0 +13 0 +9 0 *
Fa
0  1e-007 5 0

0111000
+4 0 *
Sh

0101100
+18 0 +11 0 +7 0 +5 0 -3 0 *
So

1100000
-2 0 *

+1 0 