DBRep_DrawableShape

CASCADE Topology V1, (c) Matra-Datavision
Locations 0
Curve2ds 7
7 0 0  10 92 11  4.6213260246690107 0.34019850271643087  4.7469357101454301 0.33201962075810687  4.8707442273298511 0.30478905114917154  4.9880903221783228 0.2589997780281692  5.0947639832738787 0.19653973913091249  5.1890420361887664 0.12066242509899894  5.2722930603194982 0.034135923730900686  5.3450626533012837 -0.060880399293409937  5.4084395606187172 -0.16257271551373265  5.4629651618226935 -0.26952710528929164  5.5253003345350864 -0.42212273456237714  5.5410081346733921 -0.46430567192734873  5.5554047917915144 -0.50698946918665877  5.5684518212897576 -0.55011273700053298  5.5800875401287664 -0.59361688731435913  5.5902174425072495 -0.63744445910582115  5.5987035110879484 -0.68153741119168976  5.6053490012369327 -0.72583502484527518  5.6098663686854655 -0.77026995745799276  5.6135053223398703 -0.85368857527598119  5.6132313693201743 -0.89265925524365619  5.6106809219422251 -0.93161748027377822  5.6054666385470524 -0.97049723561790413  5.5970527045974459 -1.0092233905383587  5.5847123901946665 -1.0476973695236969  5.5674439667297619 -1.0857860128164929  5.5437752226620409 -1.1233069013468442  5.5113817509778489 -1.1599767259924731  5.446776709521818 -1.2107001496293568  5.4247124970524707 -1.2258728044816449  5.3999277220785089 -1.2407357619869617  5.3720487544380973 -1.2552353328295038  5.3406435870876736 -1.269305476686289  5.3052149834161044 -1.2828655753322287  5.2651993229074057 -1.2958160407554302  5.2199953313213445 -1.308032359669433  5.1690620173730419 -1.3193621654656629  5.0587761390146371 -1.3392636865938408  5.0001491189371636 -1.3479635044575839  4.9360399739556673 -1.35559239520112  4.8664618004462685 -1.3619933104913797  4.7917449379528989 -1.367005519765371  4.7128011293621963 -1.3704688815501869  4.6313050363880395 -1.3722676955235329  4.5493828311560689 -1.3723700975867328  4.4688595265492985 -1.3708165261042551  4.3183728297011017 -1.3647737148578547  4.2480636000674412 -1.3604740877967285  4.1814499254408082 -1.3548732487428929  4.1194172005243059 -1.348085997111927  4.0623479972346113 -1.3402488622112088  4.0102275239969458 -1.3314985859505819  3.9628240010468283 -1.3219583207266947  3.9198156305746599 -1.3117346860732126  3.8808376391587531 -1.3009213341793975  3.7793128486348913 -1.2683643934717339  3.725986341078773 -1.24533594192764  3.6831329976863345 -1.2210347121359519  3.6483331358409488 -1.1958140204871597  3.6199291634111432 -1.1699015003487148  3.5966886590089415 -1.1434599697044177  3.5776448120799613 -1.116611854361554  3.5621060031697667 -1.0894459279188875  3.5495048997143201 -1.0620342462376375  3.5217350068448399 -0.98613137033742448  3.5117267918124719 -0.93724985957159601  3.507040861622015 -0.88809153839778998  3.5064247354534017 -0.83882962037999587  3.5090846612753617 -0.78959029102568601  3.5144674132860629 -0.7404781339706461  3.5221959876418003 -0.69158210074640025  3.5320174823062387 -0.64298212117161713  3.5437376723625205 -0.59475880243344847  3.5774760355572126 -0.47533933622320423  3.6017117841161919 -0.40471282620335769  3.6295124406784964 -0.33537968379621935  3.6607383449626765 -0.26761075853839122  3.6953929849308524 -0.20170263308482891  3.7335706445572816 -0.13799014989980754  3.7754324933587826 -0.076857685713296292  3.82117235096946 -0.01875027547108089  3.8709588134452608 0.035822513327280078  3.9787729493285644 0.13678799835839558  4.0367997741806239 0.18318085917248547  4.0990251140809448 0.22492732933473264  4.1654121182379935 0.26142829387739158  4.2357883641679006 0.29205274145723104  4.3097038362809439 0.3161799832376801  4.3863504369253494 0.33327985468809795  4.4646257165665482 0.343009512301376  4.5433226053504301 0.34527757555543098  4.6213260246690053 0.34019850271643087 
 0 11 1.5707963267948966 9 2.1598449493429759 9 2.6752624940725522 9 2.9007576698917337 9 3.1121593972222139 9 3.3103485165945439 9 3.6819531154176803 9 4.3322611633581607 9 5.3077232352688801 9 6.2831853071795862 11
2 -208.30797016874163 3.0242884714458818 1 6.9388939039072268e-018 -6.9388939039072268e-018 1 612.0543500536703
7 0 0  10 29 4  6.2831853071795818 -0.39771545352818016  6.1162680565515712 -0.40000945198274007  5.9490809684095982 -0.3966205410797975  5.7823696937517512 -0.38745151290850338  5.6169456869463223 -0.37271229419695062  5.4534663265860415 -0.35295883460445215  5.2922634511583366 -0.32900815797756117  5.1333094819020655 -0.3018249308849536  4.9763228750737678 -0.27243415606491711  4.8209272146363071 -0.24187385175243917  4.4353362409773922 -0.16509130033664546  4.2065915597158892 -0.11867810981283355  3.9790213133383077 -0.07534783678840995  3.7509893404785544 -0.038423602041575577  3.5214599561295472 -0.010766116031618367  3.2901785934809595 0.0052317089844109432  3.0584504515281878 0.0083330549995253023  2.8273557323882414 -0.0011378612037447056  2.5973282429747355 -0.021798263170615766  2.1388266107008524 -0.081095249866145691  1.9103531971495613 -0.11973242225667491  1.6823583940858953 -0.16515654619252018  1.4538744212622987 -0.21438453031441895  1.2229781100468244 -0.26388911974936491  0.98795171159144957 -0.31015512272279011  0.74676991515298141 -0.34937277017525048  0.50014242570432543 -0.37804707008399419  0.25037587540605583 -0.39427445575596465  -1.2285482729243856e-015 -0.39771545352818038 
 0.0029812734648959026 11 1.573777600259797 9 3.9299720904521394 9 6.2861665806444815 11
2 0.82186809221649204 398.33404975438464 -1 0 -0 -1 793.63561030141136
1 6.2831853071795862 -6.2831853071795862 0 1 
1 0 -6.2831853071795862 0 1 
1 0 -1.5707963267948966 1 0 
Curves 3
2 -69.437576140849757 -456.63063856552981 -115.96772210156391 0.13087704292087843 0.86066465743712828 0.49206457612280652 6.9388939039072284e-018 -0.49633373723671587 0.86813179948705654 0.99139860784463818 -0.11361852278244693 -0.064958691831409662 612.0543500536703
2 -31.599096096524075 2.3657889549080173 -13.766038630066589 -0.19506165616391544 0.014604047858489821 -0.98068224827450468 0.98078684408494266 4.3368086899420187e-019 -0.19508246069264809 -0.0028489935923073921 -0.99989335520651756 -0.014323458009993699 793.63561030141136
2 0 0 145.09999999999999 -2.4492127076447545e-016 -1 0 1 -2.4492127076447545e-016 0 0 0 1 810
Polygon3D 0
PolygonOnTriangulations 0
Surfaces 3
4 0 0 145.09999999999999 0 0 1 1 0 -0 -0 1 0 810
1 -72.43585152116178 -559.67729670698191 65.067504711347794 0.13087704292087843 0.86066465743712828 0.49206457612280652 6.9388939039072284e-018 -0.49633373723671587 0.86813179948705654 0.99139860784463818 -0.11361852278244693 -0.064958691831409662 
1 -31.927869839453052 -395.92578054700346 -19.631891715468658 -0.19506165616391544 0.014604047858489821 -0.98068224827450468 -0.98078684408494266 -4.3368086899420187e-019 0.19508246069264809 0.0028489935923073921 0.99989335520651756 0.014323458009993699 
Triangulations 0

TShapes 24
Ve
6.0460892513971e-005
-69.4375761408498 -760.413861519657 415.37612219441
0 0

0101101
*
Ed
 6.0460892513971e-005 1 1 0
1  1 0 0 6.28318530717959
2  1 1 0 0 6.28318530717959
2  2 2 0 0 6.28318530717959
0

0101100
+24 0 -24 0 *
Wi

0101000
-23 0 *
Fa
0  1e-007 1 0

0111000
+22 0 *
Wi

0101000
+23 0 *
Fa
0  1e-007 2 0

0111000
+20 0 *
Sh

0101000
+21 0 +19 0 *
So

0100000
+18 0 *
Co

0100000
+17 0 *
Co

0100000
+16 0 *
Ve
6.61394770394213e-005
746.778069500404 -1.82901833761081e-013 -168.623628235505
0 0

0101101
*
Ed
 6.61394770394213e-005 1 1 0
1  2 0 0.0029812734648959 6.28616658064448
2  3 1 0 0.0029812734648959 6.28616658064448
2  4 3 0 0.0029812734648959 6.28616658064448
0

0101100
+14 0 -14 0 *
Ve
1e-007
4.95965573298063e-014 -1.21472518467593e-029 -664.9
0 0

0101101
*
Ed
 1e-007 1 1 0
1  3 0 4.71238898038469 5.88546985365141
3  5 6CN 1 0 4.71238898038469 5.88546985365141
0

0101000
+12 0 -14 0 *
Ed
 1e-007 1 1 1
2  7 1 0 0 6.28318530717959
0

0101100
+12 0 -12 0 *
Wi

0101000
+13 0 +11 0 +10 0 -11 0 *
Fa
0  1e-007 1 0

0111000
+9 0 *
Wi

0101000
+13 0 *
Fa
0  1e-007 3 0

0111000
+7 0 *
Sh

0101000
+8 0 -6 0 *
So

0100000
+5 0 *
Co

0100000
+4 0 *
Co

0100000
+3 0 *
Co

1100000
+15 0 +2 0 *

+1 0 
0

