DBRep_DrawableShape

CASCADE Topology V1, (c) Matra-Datavision
Locations 14
1
              1               0               0               0 
              0               1               0               0 
              0               0               1               0 
2  1 -1 0
1
              1               0               0               0 
              0               1               0               0 
              0               0               1               0 
1
              1               0               0               0 
              0               1               0               0 
              0               0               1               0 
2  3 1 4 -1 0
2  4 1 3 -1 0
2  3 -1 0
2  1 -1 4 1 3 -1 0
1
              1               0               0               0 
              0               1               0               0 
              0               0               1              20 
2  3 1 4 -1 9 1 0
2  9 -1 4 1 3 -1 0
2  1 -1 9 -1 4 1 3 -1 0
2  4 -1 0
2  4 -1 9 1 0
Curve2ds 54
1 0.058857505947081203 0 0 -1 
1 4.2632564145606011e-014 -0 0 -1 
1 1.5707963267949001 0 0 -1 
1 0.97056274847714263 0 0 -1 
1 0 0 1 0 
2 -2.8930491083150946e-015 -1.000000000000002 1 0 -0 1 17
1 0 -20 1 0 
2 -2.8930491083150946e-015 -1.000000000000002 1 0 -0 1 17
1 4.2632564145606011e-014 0 0 -1 
1 1.6296538327419801 0 0 -1 
1 0 0 1 0 
1 -2.8930491083150946e-015 16.970562748477139 0 -1 
1 0 -20 1 0 
1 -2.8930491083150946e-015 16.970562748477139 0 -1 
1 3.14159265358979 0 0 -1 
1 0 0 0 -1 
1 0 0 1 0 
2 0.99999999999999711 -2.1031903480281109e-015 1 0 -0 1 17
1 0 -20 1 0 
2 0.99999999999999711 -2.1031903480281109e-015 1 0 -0 1 17
1 0.9705627484771 0 0 -1 
1 3.20045015953687 0 0 -1 
1 0 0 1 0 
1 -16.000000000000004 -2.1031903480281109e-015 -1 1.3726754211827949e-015 
1 0 -20 1 0 
1 -16.000000000000004 -2.1031903480281109e-015 -1 1.3726754211827949e-015 
1 4.7123889803846897 0 0 -1 
1 0.97056274847713908 0 0 -1 
1 0 0 1 0 
2 -2.8930491083150946e-015 0.99999999999999789 1 0 -0 1 17
1 0 -20 1 0 
2 -2.8930491083150946e-015 0.99999999999999789 1 0 -0 1 17
1 3.907985046680551e-014 0 0 -1 
1 4.7712464863317701 0 0 -1 
1 0 0 1 0 
1 -5.1134951575654081e-015 -16.970562748477143 -9.2977325782526976e-016 1 
1 0 -20 1 0 
1 -5.1134951575654081e-015 -16.970562748477143 -9.2977325782526976e-016 1 
1 6.2831853071795898 0 0 -1 
1 0.97056274847714263 -0 0 -1 
1 0 0 1 0 
2 -1.0000000000000029 -2.1031903480281109e-015 1 0 -0 1 17
1 0 -20 1 0 
2 -1.0000000000000029 -2.1031903480281109e-015 1 0 -0 1 17
1 0 0 1 -0 
1 16.970562748477139 -2.1031903480281109e-015 -1 -4.2900875019509989e-015 
1 0 -20 1 -0 
1 16.970562748477139 -2.1031903480281109e-015 -1 -4.2900875019509989e-015 
1 0 0 0 -1 
1 6.2831853071795898 0 0 -1 
1 0 0 1 0 
2 -2.8930491083150946e-015 -2.1031903480281109e-015 1 0 -0 1 15
1 0 -20 1 0 
2 -2.8930491083150946e-015 -2.1031903480281109e-015 1 0 -0 1 15
Curves 27
1 16.9705627484771 0 0 0 0 1 
1 5.2047489249636203e-016 16 0 0 0 1 
2 0 -1 0 0 0 1 1 0 -0 -0 1 0 17
2 0 -1 0 0 0 1 1 0 -0 -0 1 0 17
1 1.1102230287429501e-016 16.9705627484771 0 0 0 1 
1 0 16.970562748477143 0 0 -1 0 
1 0 16.970562748477143 0 0 -1 0 
1 -16 1.0409497849927199e-015 0 0 0 1 
2 1 0 0 0 0 1 1 0 -0 -0 1 0 17
2 1 0 0 0 0 1 1 0 -0 -0 1 0 17
1 -16.9705627484771 1.33226762955019e-015 0 0 0 1 
1 -16 0 0 -1 1.3726754211827949e-015 0 
1 -16 0 0 -1 1.3726754211827949e-015 0 
1 -3.1228493378257498e-015 -16 0 0 0 1 
2 0 1 0 0 0 1 1 0 -0 -0 1 0 17
2 0 1 0 0 0 1 1 0 -0 -0 1 0 17
1 -2.2204460492503099e-015 -16.9705627484771 0 0 0 1 
1 -2.2204460492503131e-015 -16.970562748477139 0 -9.2977325782526976e-016 1 0 
1 -2.2204460492503131e-015 -16.970562748477139 0 -9.2977325782526976e-016 1 0 
1 16 -4.1637991171009998e-015 0 0 0 1 
2 -1 0 0 0 0 1 1 0 -0 -0 1 0 17
2 -1 0 0 0 0 1 1 0 -0 -0 1 0 17
1 16.970562748477143 0 0 -1 -4.2900875019509989e-015 0 
1 16.970562748477143 0 0 -1 -4.2900875019509989e-015 0 
1 15 0 0 0 0 1 
2 0 0 0 0 0 1 1 0 -0 -0 1 0 15
2 0 0 0 0 0 1 1 0 -0 -0 1 0 15
Polygon3D 0
PolygonOnTriangulations 0
Surfaces 11
2 0 -1 0 -0 -0 -1 1 0 0 -0 1 -0 17
1 16.970562748477143 0 0 4.2900875019509989e-015 -1 0 -1 -4.2900875019509989e-015 0 0 -0 -1 
1 0 16.970562748477143 0 1 0 -0 0 -1 0 0 -0 -1 
1 2.8930491083150946e-015 2.1031903480281109e-015 0 0 0 1 1 0 -0 -0 1 0 
1 2.8930491083150946e-015 2.1031903480281109e-015 0 0 0 1 1 0 -0 -0 1 0 
2 1 0 0 -0 -0 -1 1 0 0 -0 1 -0 17
1 -16 0 0 -1.3726754211827949e-015 -1 0 -1 1.3726754211827949e-015 0 -0 0 -1 
2 0 1 0 -0 -0 -1 1 0 0 -0 1 -0 17
1 -2.2204460492503131e-015 -16.970562748477139 0 -1 -9.2977325782526976e-016 0 -9.2977325782526976e-016 1 0 -0 0 -1 
2 -1 0 0 -0 -0 -1 1 0 0 -0 1 -0 17
2 0 0 0 -0 -0 -1 1 0 0 -0 1 -0 15
Triangulations 0

TShapes 71
Ve
2.12136569919332e-007
16.9705627484771 0 0
0 0

0101101
*
Ve
2.12136569919332e-007
16.9705627484771 0 20
0 0

0101101
*
Ed
 1.00005e-007 1 1 0
1  1 0 0 20
2  1 1 0 0 20
2  2 2 0 0 20
0

0101000
+71 2 -70 2 *
Ve
0.000235575758481545
5.20474892496362e-016 16 0
0 0

0101101
*
Ve
0.000235575758481545
5.20474892496362e-016 16 20
0 0

0101101
*
Ed
 1.00005e-007 1 1 0
1  2 0 0 20
2  3 1 0 0 20
2  4 3 0 0 20
0

0101000
+68 2 -67 2 *
Ed
 1.00005e-007 1 1 0
1  3 0 0.0588575059470812 1.5707963267949
2  5 1 6 0.0588575059470812 1.5707963267949
2  6 4 7 0.0588575059470812 1.5707963267949
0

0101000
+71 8 -68 8 *
Ed
 1.00005e-007 1 1 0
1  4 0 0.0588575059470812 1.5707963267949
2  7 1 11 0.0588575059470812 1.5707963267949
2  8 5 7 0.0588575059470812 1.5707963267949
0

0101000
+70 12 -67 12 *
Wi

0101100
+69 0 -66 0 -65 5 +64 10 *
Fa
0  1.00005e-007 1 0

0111000
+63 0 *
Ve
2.12136569919332e-007
1.11022302874295e-016 16.9705627484771 0
0 0

0101101
*
Ve
2.12136569919332e-007
1.11022302874295e-016 16.9705627484771 20
0 0

0101101
*
Ed
 1.00005e-007 1 1 0
1  5 0 0 20
2  9 3 0 0 20
2  10 6 0 0 20
0

0101000
+61 2 -60 2 *
Ed
 1.00005e-007 1 1 0
1  6 0 0 0.970562748477143
2  11 3 6 0 0.970562748477143
2  12 4 7 0 0.970562748477143
0

0101000
+61 8 -68 8 *
Ed
 1.00005e-007 1 1 0
1  7 0 0 0.970562748477143
2  13 3 11 0 0.970562748477143
2  14 5 7 0 0.970562748477143
0

0101000
+60 12 -67 12 *
Wi

0101100
+59 0 -66 0 -58 5 +57 10 *
Fa
0  1.00005e-007 3 0

0111000
+56 0 *
Ve
0.000235568374118786
-16 1.04094978499272e-015 0
0 0

0101101
*
Ve
0.000235568374118786
-16 1.04094978499272e-015 20
0 0

0101101
*
Ed
 1.00005e-007 1 1 0
1  8 0 0 20
2  15 6 0 0 20
2  16 7 0 0 20
0

0101000
+54 2 -53 2 *
Ed
 1.00005e-007 1 1 0
1  9 0 1.62965383274198 3.14159265358979
2  17 6 6 1.62965383274198 3.14159265358979
2  18 4 7 1.62965383274198 3.14159265358979
0

0101000
+61 8 -54 8 *
Ed
 1.00005e-007 1 1 0
1  10 0 1.62965383274198 3.14159265358979
2  19 6 11 1.62965383274198 3.14159265358979
2  20 5 7 1.62965383274198 3.14159265358979
0

0101000
+60 12 -53 12 *
Wi

0101100
+59 0 -52 0 -51 5 +50 10 *
Fa
0  1.00005e-007 6 0

0111000
+49 0 *
Ve
2.12136569919332e-007
-16.9705627484771 1.33226762955019e-015 0
0 0

0101101
*
Ve
2.12136569919332e-007
-16.9705627484771 1.33226762955019e-015 20
0 0

0101101
*
Ed
 1.00005e-007 1 1 0
1  11 0 0 20
2  21 7 0 0 20
2  22 8 0 0 20
0

0101000
+47 2 -46 2 *
Ed
 1.00005e-007 1 1 0
1  12 0 0 0.970562748477139
2  23 7 6 0 0.970562748477139
2  24 4 7 0 0.970562748477139
0

0101000
+54 8 -47 8 *
Ed
 1.00005e-007 1 1 0
1  13 0 0 0.970562748477139
2  25 7 11 0 0.970562748477139
2  26 5 7 0 0.970562748477139
0

0101000
+53 12 -46 12 *
Wi

0101100
+52 0 -45 0 -44 5 +43 10 *
Fa
0  1.00005e-007 7 0

0111000
+42 0 *
Ve
0.000235560989281699
-3.12284933782575e-015 -16 0
0 0

0101101
*
Ve
0.000235560989281699
-3.12284933782575e-015 -16 20
0 0

0101101
*
Ed
 1.00005e-007 1 1 0
1  14 0 0 20
2  27 8 0 0 20
2  28 9 0 0 20
0

0101000
+40 2 -39 2 *
Ed
 1.00005e-007 1 1 0
1  15 0 3.20045015953687 4.71238898038469
2  29 8 6 3.20045015953687 4.71238898038469
2  30 4 7 3.20045015953687 4.71238898038469
0

0101000
+47 8 -40 8 *
Ed
 1.00005e-007 1 1 0
1  16 0 3.20045015953687 4.71238898038469
2  31 8 11 3.20045015953687 4.71238898038469
2  32 5 7 3.20045015953687 4.71238898038469
0

0101000
+46 12 -39 12 *
Wi

0101100
+45 0 -38 0 -37 5 +36 10 *
Fa
0  1.00005e-007 8 0

0111000
+35 0 *
Ve
2.12136569919332e-007
-2.22044604925031e-015 -16.9705627484771 0
0 0

0101101
*
Ve
2.12136569919332e-007
-2.22044604925031e-015 -16.9705627484771 20
0 0

0101101
*
Ed
 1.00005e-007 1 1 0
1  17 0 0 20
2  33 9 0 0 20
2  34 10 0 0 20
0

0101000
+33 2 -32 2 *
Ed
 1.00005e-007 1 1 0
1  18 0 0 0.970562748477139
2  35 9 6 0 0.970562748477139
2  36 4 7 0 0.970562748477139
0

0101000
+33 8 -40 8 *
Ed
 1.00005e-007 1 1 0
1  19 0 0 0.970562748477139
2  37 9 11 0 0.970562748477139
2  38 5 7 0 0.970562748477139
0

0101000
+32 12 -39 12 *
Wi

0101100
+31 0 -38 0 -30 5 +29 10 *
Fa
0  1.00005e-007 9 0

0111000
+28 0 *
Ve
0.000235567635435139
16 -4.163799117101e-015 0
0 0

0101101
*
Ve
0.000235567635435139
16 -4.163799117101e-015 20
0 0

0101101
*
Ed
 1.00005e-007 1 1 0
1  20 0 0 20
2  39 10 0 0 20
2  40 2 0 0 20
0

0101000
+26 2 -25 2 *
Ed
 1.00005e-007 1 1 0
1  21 0 4.77124648633177 6.28318530717959
2  41 10 6 4.77124648633177 6.28318530717959
2  42 4 7 4.77124648633177 6.28318530717959
0

0101000
+33 8 -26 8 *
Ed
 1.00005e-007 1 1 0
1  22 0 4.77124648633177 6.28318530717959
2  43 10 11 4.77124648633177 6.28318530717959
2  44 5 7 4.77124648633177 6.28318530717959
0

0101000
+32 12 -25 12 *
Wi

0101100
+31 0 -24 0 -23 5 +22 10 *
Fa
0  1.00005e-007 10 0

0111000
+21 0 *
Ed
 1.00005e-007 1 1 0
1  23 0 0 0.970562748477143
2  45 2 6 0 0.970562748477143
2  46 4 7 0 0.970562748477143
0

0101000
+71 8 -26 8 *
Ed
 1.00005e-007 1 1 0
1  24 0 0 0.970562748477143
2  47 2 11 0 0.970562748477143
2  48 5 7 0 0.970562748477143
0

0101000
+70 12 -25 12 *
Wi

0101100
+69 0 -24 0 -19 5 +18 10 *
Fa
0  1.00005e-007 2 0

0111000
+17 0 *
Ve
1.50006e-007
15 0 0
0 0

0101101
*
Ve
1.50006e-007
15 0 20
0 0

0101101
*
Ed
 1.00005e-007 1 1 0
1  25 0 0 20
3  49 50CN 11 0 0 20
0

0101000
+15 2 -14 2 *
Ed
 1.00005e-007 1 1 0
1  26 0 0 6.28318530717959
2  51 11 6 0 6.28318530717959
2  52 4 7 0 6.28318530717959
0

0101100
+15 8 -15 8 *
Ed
 1.00005e-007 1 1 0
1  27 0 0 6.28318530717959
2  53 11 11 0 6.28318530717959
2  54 5 7 0 6.28318530717959
0

0101100
+14 12 -14 12 *
Wi

0101100
+13 0 -13 0 -12 5 +11 10 *
Fa
0  1.00005e-007 11 0

0111000
+10 0 *
Wi

0101100
+65 3 -58 3 +51 3 +44 3 +37 3 -30 3 +23 3 -19 3 *
Wi

0101100
-12 3 *
Fa
0  1e-007 4 0

0111000
+8 0 +7 0 *
Wi

0101100
+64 3 -57 3 +50 3 +43 3 +36 3 -29 3 +22 3 -18 3 *
Wi

0101100
-11 3 *
Fa
0  1e-007 5 0

0111000
+5 0 +4 0 *
Sh

0101100
+62 0 -55 0 +48 0 +41 0 +34 0 -27 0 +20 0 -16 0 -9 0 +6 13 
-3 14 *
So

1100000
-2 0 *

+1 1 
0

