DBRep_DrawableShape

CASCADE Topology V1, (c) Matra-Datavision
Locations 2
1
              1               0               0            1.01 
              0               1               0               0 
              0               0               1               0 
2  1 -1 0
Curve2ds 10
1 0 0 0 -1 
1 6.2831853071795862 0 0 -1 
1 0 0 1 0 
1 0 -1.01 1 0 
2 6.3507190896001261e-019 7.8245552017560379e-019 0 1 -1 0 0.01
1 0 0 0 -1 
1 6.2831853071795862 0 0 -1 
1 0 0 1 0 
1 0 -1.01 1 0 
2 6.3507190896001261e-019 7.8245552017560379e-019 0 1 -1 0 0.0060000000000000001
Curves 4
1 -0.01 0 0.01 1 0 0 
2 -0.01 0 0 1 0 0 -0 0 1 0 -1 0 0.01
1 -0.01 0 0.0060000000000000001 1 0 0 
2 -0.01 0 0 1 0 0 -0 0 1 0 -1 0 0.0060000000000000001
Polygon3D 0
PolygonOnTriangulations 10
2 1 2 
p 0.001 1 0 1.01 
2 3 4 
p 0.001 1 0 1.01 
26 2 29 30 31 32 33 34 35 36 37 38 39 40 41 42 43 44 45 46 47 48 49 50 51 52 4 
p 0.001 1 0 0.251327412287183 0.502654824574367 0.75398223686155 1.00530964914873 1.25663706143592 1.5079644737231 1.75929188601028 2.01061929829747 2.26194671058465 2.51327412287183 2.76460153515902 3.0159289474462 3.26725635973338 3.51858377202057 3.76991118430775 4.02123859659493 4.27256600888212 4.5238934211693 4.77522083345649 5.02654824574367 5.27787565803085 5.52920307031804 5.78053048260522 6.03185789489241 6.28318530717959 
26 1 5 6 7 8 9 10 11 12 13 14 15 16 17 18 19 20 21 22 23 24 25 26 27 28 3 
p 0.001 1 0 0.251327412287183 0.502654824574367 0.75398223686155 1.00530964914873 1.25663706143592 1.5079644737231 1.75929188601028 2.01061929829747 2.26194671058465 2.51327412287183 2.76460153515902 3.0159289474462 3.26725635973338 3.51858377202057 3.76991118430775 4.02123859659493 4.27256600888212 4.5238934211693 4.77522083345649 5.02654824574367 5.27787565803085 5.52920307031804 5.78053048260522 6.03185789489241 6.28318530717959 
26 1 2 3 4 5 6 7 8 9 10 11 12 13 14 15 16 17 18 19 20 21 22 23 24 25 1 
p 0.001 1 0 0.251327412287183 0.502654824574367 0.75398223686155 1.00530964914873 1.25663706143592 1.5079644737231 1.75929188601028 2.01061929829747 2.26194671058465 2.51327412287183 2.76460153515902 3.0159289474462 3.26725635973338 3.51858377202057 3.76991118430775 4.02123859659493 4.27256600888212 4.5238934211693 4.77522083345649 5.02654824574367 5.27787565803085 5.52920307031804 5.78053048260522 6.03185789489241 6.28318530717959 
2 1 2 
p 0.001 1 0 1.01 
2 3 4 
p 0.001 1 0 1.01 
26 2 29 30 31 32 33 34 35 36 37 38 39 40 41 42 43 44 45 46 47 48 49 50 51 52 4 
p 0.001 1 0 0.251327412287183 0.502654824574367 0.75398223686155 1.00530964914873 1.25663706143592 1.5079644737231 1.75929188601028 2.01061929829747 2.26194671058465 2.51327412287183 2.76460153515902 3.0159289474462 3.26725635973338 3.51858377202057 3.76991118430775 4.02123859659493 4.27256600888212 4.5238934211693 4.77522083345649 5.02654824574367 5.27787565803085 5.52920307031804 5.78053048260522 6.03185789489241 6.28318530717959 
26 1 5 6 7 8 9 10 11 12 13 14 15 16 17 18 19 20 21 22 23 24 25 26 27 28 3 
p 0.001 1 0 0.251327412287183 0.502654824574367 0.75398223686155 1.00530964914873 1.25663706143592 1.5079644737231 1.75929188601028 2.01061929829747 2.26194671058465 2.51327412287183 2.76460153515902 3.0159289474462 3.26725635973338 3.51858377202057 3.76991118430775 4.02123859659493 4.27256600888212 4.5238934211693 4.77522083345649 5.02654824574367 5.27787565803085 5.52920307031804 5.78053048260522 6.03185789489241 6.28318530717959 
26 26 27 28 29 30 31 32 33 34 35 36 37 38 39 40 41 42 43 44 45 46 47 48 49 50 26 
p 0.001 1 0 0.251327412287183 0.502654824574367 0.75398223686155 1.00530964914873 1.25663706143592 1.5079644737231 1.75929188601028 2.01061929829747 2.26194671058465 2.51327412287183 2.76460153515902 3.0159289474462 3.26725635973338 3.51858377202057 3.76991118430775 4.02123859659493 4.27256600888212 4.5238934211693 4.77522083345649 5.02654824574367 5.27787565803085 5.52920307031804 5.78053048260522 6.03185789489241 6.28318530717959 
Surfaces 3
2 -0.01 0 0 -1 -0 -0 -0 0 1 0 -1 0 0.01
1 -0.0099999999999999985 -6.3507190896001261e-019 -7.8245552017560379e-019 1 -2.2271671506389845e-033 -6.8422776578360209e-049 2.2271671506389845e-033 1 0 6.8422776578360209e-049 -1.5238896035083435e-081 1 
2 -0.01 0 0 -1 -0 -0 -0 0 1 0 -1 0 0.0060000000000000001
Triangulations 3
52 50 1 7.88529868552232e-005
-0.01 0 0.01 1 0 0.01 -0.01 0 0.01 1 0 0.01 -0.01 -0.00248689887164855 0.00968583161128631 -0.01 -0.00481753674101715 0.00876306680043864 -0.01 -0.00684547105928689 0.00728968627421412 -0.01 -0.00844327925502015 0.00535826794978997 -0.01 -0.00951056516295154 0.00309016994374947 -0.01 -0.00998026728428272 0.000627905195293135 -0.01 -0.00982287250728689 -0.00187381314585724 -0.01 -0.0090482705246602 -0.00425779291565072 -0.01 -0.0077051324277579 -0.00637423989748689 -0.01 -0.00587785252292474 -0.00809016994374947 -0.01 -0.00368124552684679 -0.00929776485888251 -0.01 -0.00125333233564305 -0.00992114701314478 -0.01 0.00125333233564303 -0.00992114701314478 -0.01 0.00368124552684677 -0.00929776485888252 -0.01 0.00587785252292472 -0.00809016994374948 -0.01 0.00770513242775789 -0.0063742398974869 -0.01 0.00904827052466019 -0.00425779291565073 -0.01 0.00982287250728689 -0.00187381314585725 -0.01 0.00998026728428272 0.000627905195293137 -0.01 0.00951056516295153 0.00309016994374948 -0.01 0.00844327925502015 0.00535826794978998 -0.01 0.00684547105928688 0.00728968627421412 -0.01 0.00481753674101714 0.00876306680043864 -0.01 0.00248689887164853 0.00968583161128632 1 -0.00248689887164855 0.00968583161128631 1 -0.00481753674101715 0.00876306680043864 1 -0.00684547105928689 0.00728968627421412 1 -0.00844327925502015 0.00535826794978997 1 -0.00951056516295154 0.00309016994374947 1 -0.00998026728428272 0.000627905195293135 1 -0.00982287250728689 -0.00187381314585724 1 -0.0090482705246602 -0.00425779291565072 1 -0.0077051324277579 -0.00637423989748689 1 -0.00587785252292474 -0.00809016994374947 1 -0.00368124552684679 -0.00929776485888251 1 -0.00125333233564305 -0.00992114701314478 1 0.00125333233564303 -0.00992114701314478 1 0.00368124552684677 -0.00929776485888252 1 0.00587785252292472 -0.00809016994374948 1 0.00770513242775789 -0.0063742398974869 1 0.00904827052466019 -0.00425779291565073 1 0.00982287250728689 -0.00187381314585725 1 0.00998026728428272 0.000627905195293137 1 0.00951056516295153 0.00309016994374948 1 0.00844327925502015 0.00535826794978998 1 0.00684547105928688 0.00728968627421412 1 0.00481753674101714 0.00876306680043864 1 0.00248689887164853 0.00968583161128632 0 0 0 -1.01 6.28318530717959 0 6.28318530717959 -1.01 0.251327412287183 0 0.502654824574367 0 0.75398223686155 0 1.00530964914873 0 1.25663706143592 0 1.5079644737231 0 1.75929188601028 0 2.01061929829747 0 2.26194671058465 0 2.51327412287183 0 2.76460153515902 0 3.0159289474462 0 3.26725635973338 0 3.51858377202057 0 3.76991118430775 0 4.02123859659493 0 4.27256600888212 0 4.5238934211693 0 4.77522083345649 0 5.02654824574367 0 5.27787565803085 0 5.52920307031804 0 5.78053048260522 0 6.03185789489241 0 0.251327412287183 -1.01 0.502654824574367 -1.01 0.75398223686155 -1.01 1.00530964914873 -1.01 1.25663706143592 -1.01 1.5079644737231 -1.01 1.75929188601028 -1.01 2.01061929829747 -1.01 2.26194671058465 -1.01 2.51327412287183 -1.01 2.76460153515902 -1.01 3.0159289474462 -1.01 3.26725635973338 -1.01 3.51858377202057 -1.01 3.76991118430775 -1.01 4.02123859659493 -1.01 4.27256600888212 -1.01 4.5238934211693 -1.01 4.77522083345649 -1.01 5.02654824574367 -1.01 5.27787565803085 -1.01 5.52920307031804 -1.01 5.78053048260522 -1.01 6.03185789489241 -1.01 23 22 46 23 46 47 24 23 47 24 47 48 5 1 2 25 24 48 5 2 29 25 48 49 26 25 49 6 29 30 26 49 50 6 5 29 27 26 50 27 50 51 7 30 31 7 6 30 28 27 51 28 51 52 8 31 32 8 7 31 3 52 4 3 28 52 9 32 33 9 8 32 10 33 34 10 9 33 11 34 35 11 10 34 12 35 36 12 11 35 13 36 37 13 12 36 14 37 38 14 13 37 15 38 39 15 14 38 16 15 39 16 39 40 17 16 40 17 40 41 18 17 41 18 41 42 19 18 42 19 42 43 20 19 43 20 43 44 21 20 44 21 44 45 22 21 45 22 45 46 
50 50 1 1.0464657362886e-017
-0.01 0 0.01 -0.01 -0.00248689887164855 0.00968583161128631 -0.01 -0.00481753674101715 0.00876306680043864 -0.01 -0.00684547105928689 0.00728968627421412 -0.01 -0.00844327925502015 0.00535826794978997 -0.01 -0.00951056516295154 0.00309016994374947 -0.01 -0.00998026728428272 0.000627905195293135 -0.01 -0.00982287250728689 -0.00187381314585724 -0.01 -0.0090482705246602 -0.00425779291565072 -0.01 -0.0077051324277579 -0.00637423989748689 -0.01 -0.00587785252292474 -0.00809016994374947 -0.01 -0.00368124552684679 -0.00929776485888251 -0.01 -0.00125333233564305 -0.00992114701314478 -0.01 0.00125333233564303 -0.00992114701314478 -0.01 0.00368124552684677 -0.00929776485888252 -0.01 0.00587785252292472 -0.00809016994374948 -0.01 0.00770513242775789 -0.0063742398974869 -0.01 0.00904827052466019 -0.00425779291565073 -0.01 0.00982287250728689 -0.00187381314585725 -0.01 0.00998026728428272 0.000627905195293137 -0.01 0.00951056516295153 0.00309016994374948 -0.01 0.00844327925502015 0.00535826794978998 -0.01 0.00684547105928688 0.00728968627421412 -0.01 0.00481753674101714 0.00876306680043864 -0.01 0.00248689887164853 0.00968583161128632 -0.01 0 0.006 -0.01 -0.00149213932298913 0.00581149896677179 -0.01 -0.00289052204461029 0.00525784008026318 -0.01 -0.00410728263557213 0.00437381176452847 -0.01 -0.00506596755301209 0.00321496076987398 -0.01 -0.00570633909777092 0.00185410196624968 -0.01 -0.00598816037056963 0.000376743117175881 -0.01 -0.00589372350437213 -0.00112428788751435 -0.01 -0.00542896231479612 -0.00255467574939043 -0.01 -0.00462307945665474 -0.00382454393849214 -0.01 -0.00352671151375484 -0.00485410196624968 -0.01 -0.00220874731610807 -0.00557865891532951 -0.01 -0.00075199940138583 -0.00595268820788687 -0.01 0.000751999401385821 -0.00595268820788687 -0.01 0.00220874731610806 -0.00557865891532951 -0.01 0.00352671151375483 -0.00485410196624969 -0.01 0.00462307945665473 -0.00382454393849214 -0.01 0.00542896231479612 -0.00255467574939044 -0.01 0.00589372350437213 -0.00112428788751435 -0.01 0.00598816037056963 0.000376743117175882 -0.01 0.00570633909777092 0.00185410196624969 -0.01 0.00506596755301209 0.00321496076987399 -0.01 0.00410728263557213 0.00437381176452847 -0.01 0.00289052204461028 0.00525784008026319 -0.01 0.00149213932298912 0.00581149896677179 0 0.01 -0.00248689887164855 0.00968583161128631 -0.00481753674101715 0.00876306680043863 -0.00684547105928689 0.00728968627421412 -0.00844327925502015 0.00535826794978997 -0.00951056516295154 0.00309016994374948 -0.00998026728428272 0.000627905195293136 -0.00982287250728689 -0.00187381314585724 -0.0090482705246602 -0.00425779291565072 -0.00770513242775789 -0.00637423989748689 -0.00587785252292474 -0.00809016994374947 -0.00368124552684678 -0.00929776485888251 -0.00125333233564305 -0.00992114701314478 0.00125333233564304 -0.00992114701314478 0.00368124552684677 -0.00929776485888252 0.00587785252292472 -0.00809016994374948 0.00770513242775789 -0.0063742398974869 0.00904827052466019 -0.00425779291565073 0.00982287250728689 -0.00187381314585724 0.00998026728428272 0.000627905195293137 0.00951056516295153 0.00309016994374948 0.00844327925502015 0.00535826794978998 0.00684547105928688 0.00728968627421413 0.00481753674101714 0.00876306680043864 0.00248689887164853 0.00968583161128632 0 0.006 -0.00149213932298913 0.00581149896677179 -0.00289052204461029 0.00525784008026318 -0.00410728263557213 0.00437381176452847 -0.00506596755301209 0.00321496076987398 -0.00570633909777092 0.00185410196624969 -0.00598816037056963 0.000376743117175882 -0.00589372350437213 -0.00112428788751434 -0.00542896231479612 -0.00255467574939043 -0.00462307945665474 -0.00382454393849214 -0.00352671151375484 -0.00485410196624968 -0.00220874731610807 -0.00557865891532951 -0.000751999401385829 -0.00595268820788687 0.000751999401385822 -0.00595268820788687 0.00220874731610806 -0.00557865891532951 0.00352671151375483 -0.00485410196624969 0.00462307945665473 -0.00382454393849214 0.00542896231479612 -0.00255467574939044 0.00589372350437213 -0.00112428788751435 0.00598816037056963 0.000376743117175882 0.00570633909777092 0.00185410196624969 0.00506596755301209 0.00321496076987399 0.00410728263557213 0.00437381176452848 0.00289052204461028 0.00525784008026319 0.00149213932298912 0.00581149896677179 19 43 18 19 44 43 4 30 29 4 5 30 17 42 41 17 41 16 3 4 29 36 10 11 3 29 28 36 35 10 34 9 10 34 10 35 37 11 12 37 36 11 1 27 26 1 2 27 33 8 9 20 44 19 33 9 34 38 12 13 20 45 44 25 1 26 38 37 12 18 42 17 25 26 50 18 43 42 21 45 20 21 46 45 32 7 8 24 25 50 32 8 33 39 13 14 24 50 49 22 46 21 22 47 46 39 38 13 23 48 47 31 6 7 23 49 48 23 24 49 23 47 22 31 7 32 40 14 15 2 3 28 40 39 14 2 28 27 30 5 6 30 6 31 41 15 16 41 40 15 
52 50 1 4.7311792113134e-005
-0.01 0 0.006 1 0 0.006 -0.01 0 0.006 1 0 0.006 -0.01 -0.00149213932298913 0.00581149896677179 -0.01 -0.00289052204461029 0.00525784008026318 -0.01 -0.00410728263557213 0.00437381176452847 -0.01 -0.00506596755301209 0.00321496076987398 -0.01 -0.00570633909777092 0.00185410196624968 -0.01 -0.00598816037056963 0.000376743117175881 -0.01 -0.00589372350437213 -0.00112428788751435 -0.01 -0.00542896231479612 -0.00255467574939043 -0.01 -0.00462307945665474 -0.00382454393849214 -0.01 -0.00352671151375484 -0.00485410196624968 -0.01 -0.00220874731610807 -0.00557865891532951 -0.01 -0.00075199940138583 -0.00595268820788687 -0.01 0.000751999401385821 -0.00595268820788687 -0.01 0.00220874731610806 -0.00557865891532951 -0.01 0.00352671151375483 -0.00485410196624969 -0.01 0.00462307945665473 -0.00382454393849214 -0.01 0.00542896231479612 -0.00255467574939044 -0.01 0.00589372350437213 -0.00112428788751435 -0.01 0.00598816037056963 0.000376743117175882 -0.01 0.00570633909777092 0.00185410196624969 -0.01 0.00506596755301209 0.00321496076987399 -0.01 0.00410728263557213 0.00437381176452847 -0.01 0.00289052204461028 0.00525784008026319 -0.01 0.00149213932298912 0.00581149896677179 1 -0.00149213932298913 0.00581149896677179 1 -0.00289052204461029 0.00525784008026318 1 -0.00410728263557213 0.00437381176452847 1 -0.00506596755301209 0.00321496076987398 1 -0.00570633909777092 0.00185410196624968 1 -0.00598816037056963 0.000376743117175881 1 -0.00589372350437213 -0.00112428788751435 1 -0.00542896231479612 -0.00255467574939043 1 -0.00462307945665474 -0.00382454393849214 1 -0.00352671151375484 -0.00485410196624968 1 -0.00220874731610807 -0.00557865891532951 1 -0.00075199940138583 -0.00595268820788687 1 0.000751999401385821 -0.00595268820788687 1 0.00220874731610806 -0.00557865891532951 1 0.00352671151375483 -0.00485410196624969 1 0.00462307945665473 -0.00382454393849214 1 0.00542896231479612 -0.00255467574939044 1 0.00589372350437213 -0.00112428788751435 1 0.00598816037056963 0.000376743117175882 1 0.00570633909777092 0.00185410196624969 1 0.00506596755301209 0.00321496076987399 1 0.00410728263557213 0.00437381176452847 1 0.00289052204461028 0.00525784008026319 1 0.00149213932298912 0.00581149896677179 0 0 0 -1.01 6.28318530717959 0 6.28318530717959 -1.01 0.251327412287183 0 0.502654824574367 0 0.75398223686155 0 1.00530964914873 0 1.25663706143592 0 1.5079644737231 0 1.75929188601028 0 2.01061929829747 0 2.26194671058465 0 2.51327412287183 0 2.76460153515902 0 3.0159289474462 0 3.26725635973338 0 3.51858377202057 0 3.76991118430775 0 4.02123859659493 0 4.27256600888212 0 4.5238934211693 0 4.77522083345649 0 5.02654824574367 0 5.27787565803085 0 5.52920307031804 0 5.78053048260522 0 6.03185789489241 0 0.251327412287183 -1.01 0.502654824574367 -1.01 0.75398223686155 -1.01 1.00530964914873 -1.01 1.25663706143592 -1.01 1.5079644737231 -1.01 1.75929188601028 -1.01 2.01061929829747 -1.01 2.26194671058465 -1.01 2.51327412287183 -1.01 2.76460153515902 -1.01 3.0159289474462 -1.01 3.26725635973338 -1.01 3.51858377202057 -1.01 3.76991118430775 -1.01 4.02123859659493 -1.01 4.27256600888212 -1.01 4.5238934211693 -1.01 4.77522083345649 -1.01 5.02654824574367 -1.01 5.27787565803085 -1.01 5.52920307031804 -1.01 5.78053048260522 -1.01 6.03185789489241 -1.01 23 22 46 23 46 47 24 23 47 24 47 48 5 1 2 25 24 48 5 2 29 25 48 49 26 25 49 6 29 30 26 49 50 6 5 29 27 26 50 27 50 51 7 30 31 7 6 30 28 27 51 28 51 52 8 31 32 8 7 31 3 52 4 3 28 52 9 32 33 9 8 32 10 33 34 10 9 33 11 34 35 11 10 34 12 35 36 12 11 35 13 36 37 13 12 36 14 37 38 14 13 37 15 38 39 15 14 38 16 15 39 16 39 40 17 16 40 17 40 41 18 17 41 18 41 42 19 18 42 19 42 43 20 19 43 20 43 44 21 20 44 21 44 45 22 21 45 22 45 46 

TShapes 15
Ve
0.0005
-0.01 0 0.01
0 0

0101101
*
Ed
 0.0005 1 1 0
1  1 0 0 1.01
3  1 2CN 1 0 0 1.01
7  1 2 1 0
0

0101000
+15 0 -15 1 *
Ed
 0.0005 1 1 0
1  2 0 0 6.28318530717959
2  3 1 0 0 6.28318530717959
2  4 1 2 0 6.28318530717959
6  3 1 2
6  4 1 0
6  5 2 0
2  5 2 0 0 6.28318530717959
0

0101000
+15 0 -15 0 *
Wi

0101100
+14 0 -14 0 -13 0 +13 1 *
Fa
0  0.0005 1 0
2  1
0111000
+12 0 *
Ve
0.0005
-0.01 0 0.006
0 0

0101101
*
Ed
 0.0005 1 1 0
1  3 0 0 1.01
3  6 7CN 3 0 0 1.01
7  6 7 3 0
0

0101000
+10 0 -10 1 *
Ed
 0.0005 1 1 0
1  4 0 0 6.28318530717959
2  8 3 0 0 6.28318530717959
2  9 3 2 0 6.28318530717959
6  8 3 2
6  9 3 0
6  10 2 0
2  10 2 0 0 6.28318530717959
0

0101000
+10 0 -10 0 *
Wi

0101100
+9 0 -9 0 -8 0 +8 1 *
Fa
0  0.0005 3 0
2  3
0111000
+7 0 *
Wi

0101100
+13 0 *
Wi

0101100
+8 0 *
Fa
0  0.0005 2 0
2  2
0111000
+5 0 -4 0 *
Sh

0101100
+11 0 -6 0 +3 0 -3 1 *
So

0100000
-2 0 *

+1 0 