DBRep_DrawableShape

CASCADE Topology V1, (c) Matra-Datavision
Locations 2
1
              1               0               0               0 
              0               1               0               0 
              0               0               1 -4288.16843595065 
2  1 -1 0
Curve2ds 4
1 0 0 0 -1 
1 1 0 0 -1 
1 0 0 1 0 
1 0 -4288.1684359506489 1 0 
Curves 3
1 3093.4756516522598 3019.0539278051601 5638.9351036574944 0 0 -1 
1 3093.6844108886298 3078.9585329349902 5618.0591800204147 0 0 -1 
7 0 0  8 16 3  3093.4756516522639 3019.0539278051615 5638.9351036574953  3093.4848306905405 3022.8615299180883 5638.0171998298192  3093.4943575383927 3026.8153949099983 5637.0645150443715  3093.5040443564658 3030.8213596863025 5636.0958332374294  3093.5138201467544 3034.8120246632657 5635.1182542083052  3093.5237513917345 3038.7431968652818 5634.1251297100871  3093.5339890624509 3042.596426848334 5633.1013626388794  3093.5447373494808 3046.3814182187766 5632.0265339356547  3093.5685259849815 3054.0716782144159 5629.6476703856515  3093.5815965095676 3057.9547960966952 5628.3406179272542  3093.5957273813628 3061.7546387811644 5626.92753074764  3093.6110576196393 3065.4476251685728 5625.394506919376  3093.6276616132523 3069.0172924368462 5623.7341075591557  3093.6454788754609 3072.4599578440761 5621.9523813374526  3093.6644425577429 3075.7726837816872 5620.0560131095781  3093.6844108886344 3078.9585329349925 5618.0591800204165 
 0 9 0.4877169692440077 7 1 9
Polygon3D 0
PolygonOnTriangulations 0
Surfaces 1
6 -0 -0 1 
7 0 0  8 16 3  3093.4756516522639 3019.0539278051615 5638.9351036574953  3093.4848306905405 3022.8615299180883 5638.0171998298192  3093.4943575383927 3026.8153949099983 5637.0645150443715  3093.5040443564658 3030.8213596863025 5636.0958332374294  3093.5138201467544 3034.8120246632657 5635.1182542083052  3093.5237513917345 3038.7431968652818 5634.1251297100871  3093.5339890624509 3042.596426848334 5633.1013626388794  3093.5447373494808 3046.3814182187766 5632.0265339356547  3093.5685259849815 3054.0716782144159 5629.6476703856515  3093.5815965095676 3057.9547960966952 5628.3406179272542  3093.5957273813628 3061.7546387811644 5626.92753074764  3093.6110576196393 3065.4476251685728 5625.394506919376  3093.6276616132523 3069.0172924368462 5623.7341075591557  3093.6454788754609 3072.4599578440761 5621.9523813374526  3093.6644425577429 3075.7726837816872 5620.0560131095781  3093.6844108886344 3078.9585329349925 5618.0591800204165 
 0 9 0.4877169692440077 7 1 9
Triangulations 0

TShapes 8
Ve
1e-007
3093.47565165226 3019.05392780516 5638.93510365749
0 0

0101101
*
Ed
 1e-007 1 1 0
1  1 0 0 4288.16843595065
2  1 1 0 0 4288.16843595065
0

0101000
+8 0 -8 1 *
Ve
1e-007
3093.68441088863 3078.95853293499 5618.05918002041
0 0

0101101
*
Ed
 1e-007 1 1 0
1  2 0 0 4288.16843595065
2  2 1 0 0 4288.16843595065
0

0101000
+6 0 -6 1 *
Ed
 1e-007 1 1 0
1  3 0 0 1
2  3 1 0 0 1
2  4 1 2 0 1
0

0101000
+8 0 -6 0 *
Wi

0101100
+7 0 -5 0 -4 0 +4 1 *
Fa
0  1e-007 1 0

0111000
+3 0 *
Sh

1101000
+2 0 *

+1 0 
0

