DBRep_DrawableShape

CASCADE Topology V1, (c) Matra-Datavision
Locations 4
1
-0.990402116314994 -0.138215011580787 0.000508500250362937       4708.7014 
0.000503619646583452 7.02833991451263e-005 0.999999870713739      -55.080597 
-0.138215029450611 0.990402244360324 -1.03197030073656e-009            1050 
1
0.999999870457562 -0.000509003790232901               0       309991.32 
              0               0               1   0.00036305277 
-0.000509003790232901 -0.999999870457562               0       213904.72 
2  1 1 2 1 0
1
              1               0               0               0 
              0               1               0               0 
              0               0               1             108 
Curve2ds 0
Curves 8
1 0 0 0 0 0 1 
1 3979.2910000000002 0 0 0 0 1 
1 0 0 0 1 0 0 
1 4573.5326999999997 82.929276000000002 0 0 0 1 
1 3979.2910000000002 0 0 0.99040219667442986 0.13821537115120014 0 
1 4497.5141999999996 627.65044999999998 0 0 0 1 
1 4573.5326999999997 82.929276000000002 0 -0.13821546145709881 0.9904021840718048 0 
1 4497.5141999999996 627.65044999999998 0 -0.99040217262914976 -0.13821554345101647 0 
Polygon3D 0
PolygonOnTriangulations 0
Surfaces 5
1 0 0 0 0 1 0 1 0 0 0 0 -1 
1 3979.2910000000002 0 0 -0.13821537115120014 0.99040219667442986 0 0.99040219667442986 0.13821537115120014 0 0 0 -1 
1 4573.5326999999997 82.929276000000002 0 -0.99040218407180491 -0.13821546145709884 0 -0.13821546145709884 0.99040218407180491 0 -0 0 -1 
1 4497.5141999999996 627.65044999999998 0 0.13821554345101647 -0.99040217262914976 0 -0.99040217262914976 -0.13821554345101647 0 0 -0 -1 
1 0 0 0 0 0 1 1 0 -0 -0 1 0 
Triangulations 0

TShapes 24
Ve
1e-007
0 0 0
0 0

0101101
*
Ed
 1e-007 1 1 0
1  1 0 0 108
0

0101000
+24 0 -24 4 *
Ve
1e-007
3979.291 0 0
0 0

0101101
*
Ed
 1e-007 1 1 0
1  2 0 0 108
0

0101000
+22 0 -22 4 *
Ed
 1e-007 1 1 0
1  3 0 0 3979.291
0

0101000
+24 0 -22 0 *
Wi

0101000
+23 0 -21 0 -20 0 +20 4 *
Fa
0  1e-007 1 0

0111000
+19 0 *
Ve
1e-007
4573.5327 82.929276 0
0 0

0101101
*
Ed
 1e-007 1 1 0
1  4 0 0 108
0

0101000
+17 0 -17 4 *
Ed
 1e-007 1 1 0
1  5 0 0 600.000385697187
0

0101000
+22 0 -17 0 *
Wi

0101000
+21 0 -16 0 -15 0 +15 4 *
Fa
0  1e-007 2 0

0111000
+14 0 *
Ve
1e-007
4497.5142 627.65045 0
0 0

0101101
*
Ed
 1e-007 1 1 0
1  6 0 0 108
0

0101000
+12 0 -12 4 *
Ed
 1e-007 1 1 0
1  7 0 0 549.999972496534
0

0101000
+17 0 -12 0 *
Wi

0101000
+16 0 -11 0 -10 0 +10 4 *
Fa
0  1e-007 3 0

0111000
+9 0 *
Ed
 1e-007 1 1 0
1  8 0 0 4541.09888315448
0

0101000
+12 0 -24 0 *
Wi

0101000
+11 0 -23 0 -7 0 +7 4 *
Fa
0  1e-007 4 0

0111000
+6 0 *
Wi

0101100
+20 0 +15 0 +10 0 +7 0 *
Fa
0  1e-007 5 0

0111000
+4 0 *
Sh

0101100
+18 0 +13 0 +8 0 +5 0 +3 0 -3 4 *
So

0100000
-2 0 *

+1 3 