DBRep_DrawableShape

CASCADE Topology V1, (c) Matra-Datavision
Locations 4
1
              0 -2.1175824e-022              -1        5008.705 
             -1              -0               0              -0 
             -0               1 -2.1175824e-022 -7.3333744000039e-023 
1
0.999999870457562 -0.000509003790232901               0       309991.32 
              0               0               1   0.00036305277 
-0.000509003790232901 -0.999999870457562               0       213904.72 
2  1 1 2 1 0
1
              1               0               0               0 
              0               1               0               0 
              0               0               1       4841.1004 
Curve2ds 0
Curves 8
1 -50 -1050 0 0 0 1 
1 50 -1050 0 0 0 1 
1 -50 -1050 0 1 0 0 
1 50 1050 0 0 0 1 
1 50 -1050 0 0 1 0 
1 -50 1050 0 0 0 1 
1 50 1050 0 -1 0 0 
1 -50 1050 0 0 -1 0 
Polygon3D 0
PolygonOnTriangulations 4
2 1 2 
p 1 1 0 100 
2 2 3 
p 1 1 0 2100 
2 3 4 
p 1 1 0 100 
2 4 1 
p 1 1 0 2100 
Surfaces 5
1 -50 -1050 0 0 1 0 1 0 0 0 0 -1 
1 50 -1050 0 -1 0 0 0 1 0 0 0 -1 
1 50 1050 0 0 -1 0 -1 0 0 -0 -0 -1 
1 -50 1050 0 1 0 -0 0 -1 0 0 -0 -1 
1 -50 -1050 0 0 0 -1 -1 0 -0 0 1 0 
Triangulations 1
4 2 1 0
-50 -1050 0 50 -1050 0 50 1050 0 -50 1050 0 0 0 -100 0 -100 2100 0 2100 4 2 1 4 3 2 

TShapes 24
Ve
1e-007
-50 -1050 0
0 0

0101101
*
Ed
 1e-007 1 1 0
1  1 0 0 4841.1004
0

0101000
+24 0 -24 4 *
Ve
1e-007
50 -1050 0
0 0

0101101
*
Ed
 1e-007 1 1 0
1  2 0 0 4841.1004
0

0101000
+22 0 -22 4 *
Ed
 1e-007 1 1 0
1  3 0 0 100
6  1 1 0
0

0101000
+24 0 -22 0 *
Wi

0101000
+23 0 -21 0 -20 0 +20 4 *
Fa
0  1e-007 1 0

0111000
+19 0 *
Ve
1e-007
50 1050 0
0 0

0101101
*
Ed
 1e-007 1 1 0
1  4 0 0 4841.1004
0

0101000
+17 0 -17 4 *
Ed
 1e-007 1 1 0
1  5 0 0 2100
6  2 1 0
0

0101000
+22 0 -17 0 *
Wi

0101000
+21 0 -16 0 -15 0 +15 4 *
Fa
0  1e-007 2 0

0111000
+14 0 *
Ve
1e-007
-50 1050 0
0 0

0101101
*
Ed
 1e-007 1 1 0
1  6 0 0 4841.1004
0

0101000
+12 0 -12 4 *
Ed
 1e-007 1 1 0
1  7 0 0 100
6  3 1 0
0

0101000
+17 0 -12 0 *
Wi

0101000
+16 0 -11 0 -10 0 +10 4 *
Fa
0  1e-007 3 0

0111000
+9 0 *
Ed
 1e-007 1 1 0
1  8 0 0 2100
6  4 1 0
0

0101000
+12 0 -24 0 *
Wi

0101000
+11 0 -23 0 -7 0 +7 4 *
Fa
0  1e-007 4 0

0111000
+6 0 *
Wi

0101100
+20 0 +15 0 +10 0 +7 0 *
Fa
0  1e-007 5 0
2  1
0111000
-4 0 *
Sh

0101100
-18 0 -13 0 -8 0 -5 0 +3 0 -3 4 *
So

1100000
+2 0 *

+1 3 