DBRep_DrawableShape

CASCADE Topology V1, (c) Matra-Datavision
Locations 0
Curve2ds 24
1 -979.99999999999818 740.99999999999852 1 3.0175670264529802e-016 
1 0 0 1 0 
1 376.75 0 0 1 
1 0 0 0 1 
1 -979.99999999999818 740.99999999999852 1 3.0175670264529802e-016 
1 0 8 1 0 
1 0 0 0 1 
1 6 0 0 1 
1 -979.99999999999818 746.99999999999852 0 -1 
1 0 0 1 0 
1 -979.99999999999818 746.99999999999852 0 -1 
1 0 8 1 0 
1 0 0 0 1 
1 376.75 0 0 1 
1 -603.24999999999818 746.99999999999864 -1 -3.0175670264529802e-016 
1 0 0 1 0 
1 -603.24999999999818 746.99999999999864 -1 -3.0175670264529802e-016 
1 0 8 1 0 
1 0 0 0 1 
1 6 0 0 1 
1 -603.24999999999818 740.99999999999864 0 1 
1 0 0 1 0 
1 -603.24999999999818 740.99999999999864 0 1 
1 0 8 1 0 
Curves 12
1 -979.99999999999818 740.99999999999852 -8 1 3.0175670264529802e-016 0 
1 -603.24999999999818 740.99999999999864 -8 0 0 1 
1 -979.99999999999818 740.99999999999852 0 1 3.0175670264529802e-016 0 
1 -979.99999999999818 740.99999999999852 -8 0 0 1 
1 -979.99999999999818 746.99999999999852 -8 0 -1 0 
1 -979.99999999999818 746.99999999999852 0 0 -1 0 
1 -979.99999999999818 746.99999999999852 -8 0 0 1 
1 -603.24999999999818 746.99999999999864 -8 -1 -3.0175670264529802e-016 0 
1 -603.24999999999818 746.99999999999864 0 -1 -3.0175670264529802e-016 0 
1 -603.24999999999818 746.99999999999864 -8 0 0 1 
1 -603.24999999999818 740.99999999999864 -8 0 1 0 
1 -603.24999999999818 740.99999999999864 0 0 1 0 
Polygon3D 0
PolygonOnTriangulations 0
Surfaces 6
1 -979.99999999999818 740.99999999999852 -8 3.0175670264529802e-016 -1 0 1 3.0175670264529802e-016 0 -0 0 1 
1 0 0 -8 0 0 1 1 0 -0 -0 1 0 
1 -603.24999999999818 740.99999999999864 -8 1 0 0 -0 1 0 0 -0 1 
1 0 0 0 0 0 1 1 0 -0 -0 1 0 
1 -979.99999999999818 746.99999999999852 -8 -1 0 0 0 -1 0 0 0 1 
1 -603.24999999999818 746.99999999999864 -8 -3.0175670264529802e-016 1 0 -1 -3.0175670264529802e-016 0 0 0 1 
Triangulations 0

TShapes 34
Ve
1e-007
-979.999999999998 740.999999999999 -8
0 0

0101101
*
Ve
1e-007
-603.249999999998 740.999999999999 -8
0 0

0101101
*
Ed
 1e-007 1 1 0
2  1 2 0 0 376.75
1  1 0 0 376.75
2  2 1 0 0 376.75
0

0101000
+34 0 -33 0 *
Ve
1e-007
-603.249999999998 740.999999999999 0
0 0

0101101
*
Ed
 1e-007 1 1 0
1  2 0 0 8
2  3 1 0 0 8
2  4 3 0 0 8
0

0101000
+33 0 -31 0 *
Ve
1e-007
-979.999999999998 740.999999999999 0
0 0

0101101
*
Ed
 1e-007 1 1 0
2  5 4 0 0 376.75
1  3 0 0 376.75
2  6 1 0 0 376.75
0

0101000
+29 0 -31 0 *
Ed
 1e-007 1 1 0
1  4 0 0 8
2  7 1 0 0 8
2  8 5 0 0 8
0

0101000
+34 0 -29 0 *
Wi

0101000
+32 0 +30 0 -28 0 -27 0 *
Fa
0  1e-007 1 0

0111000
+26 0 *
Ve
1e-007
-979.999999999998 746.999999999999 -8
0 0

0101101
*
Ed
 1e-007 1 1 0
2  9 2 0 0 6
1  5 0 0 6
2  10 5 0 0 6
0

0101000
+24 0 -34 0 *
Ve
1e-007
-979.999999999998 746.999999999999 0
0 0

0101101
*
Ed
 1e-007 1 1 0
2  11 4 0 0 6
1  6 0 0 6
2  12 5 0 0 6
0

0101000
+22 0 -29 0 *
Ed
 1e-007 1 1 0
1  7 0 0 8
2  13 5 0 0 8
2  14 6 0 0 8
0

0101000
+24 0 -22 0 *
Wi

0101000
+23 0 +27 0 -21 0 -20 0 *
Fa
0  1e-007 5 0

0111000
+19 0 *
Ve
1e-007
-603.249999999998 746.999999999999 -8
0 0

0101101
*
Ed
 1e-007 1 1 0
2  15 2 0 0 376.75
1  8 0 0 376.75
2  16 6 0 0 376.75
0

0101000
+17 0 -24 0 *
Ve
1e-007
-603.249999999998 746.999999999999 0
0 0

0101101
*
Ed
 1e-007 1 1 0
2  17 4 0 0 376.75
1  9 0 0 376.75
2  18 6 0 0 376.75
0

0101000
+15 0 -22 0 *
Ed
 1e-007 1 1 0
1  10 0 0 8
2  19 6 0 0 8
2  20 3 0 0 8
0

0101000
+17 0 -15 0 *
Wi

0101000
+16 0 +20 0 -14 0 -13 0 *
Fa
0  1e-007 6 0

0111000
+12 0 *
Ed
 1e-007 1 1 0
2  21 2 0 0 6
1  11 0 0 6
2  22 3 0 0 6
0

0101000
+33 0 -17 0 *
Ed
 1e-007 1 1 0
2  23 4 0 0 6
1  12 0 0 6
2  24 3 0 0 6
0

0101000
+31 0 -15 0 *
Wi

0101000
+10 0 +13 0 -9 0 -30 0 *
Fa
0  1e-007 3 0

0111000
+8 0 *
Wi

0101000
+10 0 +16 0 +23 0 +32 0 *
Fa
0  1e-007 2 0

0111000
+6 0 *
Wi

0101000
+9 0 +14 0 +21 0 +28 0 *
Fa
0  1e-007 4 0

0111000
+4 0 *
Sh

0101000
+25 0 +18 0 +11 0 +7 0 -5 0 +3 0 *
So

1100000
+2 0 *

+1 0 