DBRep_DrawableShape

CASCADE Topology V1, (c) Matra-Datavision
Locations 13
1
              1               0               0              -0 
              0               1               0               0 
              0               0               1              -0 
1
              1               0               0              -0 
              0               1               0              10 
              0               0               1              -0 
2  1 1 2 1 0
1
              1               0               0              -0 
              0               1               0       6.0000002 
              0               0               1              -0 
2  4 -1 0
1
              1               0               0               0 
              0               1               0     -12.0000004 
              0               0               1               0 
2  6 -1 4 -1 0
1
              1               0               0               0 
              0               1               0             -10 
              0               0               1               0 
1
              1               0               0              -0 
              0               1               0               0 
              0               0               1              -0 
2  8 -1 9 -1 0
2  9 -1 0
2  2 -1 1 -1 0
2  1 -1 0
Curve2ds 29
1 0 0 0 -1 
1 0.50000000000000011 0 0 -1 
1 0 0 0 -1 
1 1 0 0 -1 
1 -0.75000000000000011 10 0 1 
1 0 0 1 0 
1 0 -12.000000400000001 1 0 
1 0 0 1 0 
1 0 -10 1 0 
1 0 0 0 -1 
1 0.50000000000000011 0 0 -1 
1 -0.75000000000000011 11 1 0 
1 0 0 1 0 
1 0 -12.000000400000001 1 0 
1 0 0 1 0 
1 0 -10 1 0 
1 1 0 0 -1 
1 0 0 0 -1 
1 -0.25 11 -0 -1 
1 0 0 1 0 
1 0 -12.000000400000001 1 0 
1 0 0 1 0 
1 0 -10 1 0 
1 -0.25 10 -1 0 
1 0 0 1 0 
1 0 -12.000000400000001 1 0 
1 0 0 1 0 
1 0 -10 1 0 
1 4.7123889803846897 -0.25 0 -1 
Curves 8
1 10 1 0.75000000000000011 -0 1 -0 
1 11 1 0.75000000000000011 -0 1 -0 
1 10 1 0.75000000000000011 1 0 0 
1 11 1 0.25 -0 1 -0 
1 11 1 0.75000000000000011 0 0 -1 
1 10 1 0.25 -0 1 -0 
1 11 1 0.25 -1 0 0 
1 10 1 0.25 0 0 1 
Polygon3D 0
PolygonOnTriangulations 30
2 1 2 
p 0.0400000008 1 0 10 
2 3 4 
p 0.0400000008 1 0 10 
2 3 4 
p 0.0400000008 1 0 10 
2 1 2 
p 0.0400000008 1 0 10 
2 1 2 
p 0.0400000008 1 0 1 
2 2 4 
p 0.0400000008 1 0 1 
2 1 3 
p 0.0400000008 1 0 1 
2 2 4 
p 0.0400000008 1 0 1 
2 1 3 
p 0.0400000008 1 0 1 
2 3 4 
p 0.0400000008 1 0 10 
2 1 2 
p 0.0400000008 1 0 10 
2 2 3 
p 0.0400000008 1 0 0.5 
2 2 4 
p 0.0400000008 1 0 0.5 
2 1 3 
p 0.0400000008 1 0 0.5 
2 1 3 
p 0.0400000008 1 0 0.5 
2 2 4 
p 0.0400000008 1 0 0.5 
2 3 4 
p 0.0400000008 1 0 10 
2 1 2 
p 0.0400000008 1 0 10 
2 3 4 
p 0.0400000008 1 0 1 
2 1 3 
p 0.0400000008 1 0 1 
2 2 4 
p 0.0400000008 1 0 1 
2 2 4 
p 0.0400000008 1 0 1 
2 1 3 
p 0.0400000008 1 0 1 
2 4 1 
p 0.0400000008 1 0 0.5 
2 1 3 
p 0.0400000008 1 0 0.5 
2 2 4 
p 0.0400000008 1 0 0.5 
2 2 4 
p 0.0400000008 1 0 0.5 
2 1 3 
p 0.0400000008 1 0 0.5 
2 2 12 
p 0.0406591384029861 1 0 0.5 
2 1 2 
p 0.0406591384029861 1 0 0.5 
Surfaces 10
1 10 1 0.75000000000000011 0 0 -1 1 0 0 0 -1 0 
1 10 1 0.25 1 0 -0 0 0 1 0 -1 0 
1 11 1 0.75000000000000011 -1 -0 -0 0 0 -1 0 -1 0 
1 0 1 0 0 -1 0 0 -0 -1 1 0 0 
1 10 7.0000002000000006 0.75000000000000011 -0 0 1 1 0 0 0 1 -0 
1 11 1 0.25 0 0 1 -1 0 0 0 -1 0 
1 11 7.0000002000000006 0.75000000000000011 1 0 0 0 0 -1 -0 1 0 
1 11 7.0000002000000006 0.25 -0 -0 -1 -1 0 0 0 1 -0 
1 10 7.0000002000000006 0.25 -1 0 0 0 0 1 0 1 -0 
2 10 2 0 -0 -0 -1 1 0 -0 -0 1 -0 1.0000000000408615
Triangulations 11
4 2 1 0
10 1 0.75 10 11 0.75 11 1 0.75 11 11 0.75 0 0 0 -10 1 0 1 -10 3 1 2 3 2 4 
4 2 1 5.55111512312578e-017
10 1 0.25 10 11 0.25 10 1 0.75 10 11 0.75 0 0 0 -10 0.5 0 0.5 -10 3 1 2 3 2 4 
4 2 1 5.55111512312578e-017
11 1 0.75 11 11 0.75 11 1 0.25 11 11 0.25 0 0 0 -10 0.5 0 0.5 -10 3 1 2 3 2 4 
4 2 1 5.55111512312578e-017
10 1 0.75 11 1 0.75 11 1 0.25 10 1 0.25 -0.75 10 -0.75 11 -0.25 11 -0.25 10 3 2 1 3 1 4 
4 2 1 0
10 1 0.75 10 -9 0.75 11 1 0.75 11 -9 0.75 0 0 0 -10 1 0 1 -10 3 1 2 3 2 4 
4 2 1 0
11 1 0.25 11 11 0.25 10 1 0.25 10 11 0.25 0 0 0 -10 1 0 1 -10 3 1 2 3 2 4 
4 2 1 5.55111512312578e-017
11 1 0.75 11 -9 0.75 11 1 0.25 11 -9 0.25 0 0 0 -10 0.5 0 0.5 -10 3 1 2 3 2 4 
4 2 1 0
11 1 0.25 11 -9 0.25 10 1 0.25 10 -9 0.25 0 0 0 -10 1 0 1 -10 3 1 2 3 2 4 
4 2 1 5.55111512312578e-017
10 1 0.25 10 -9 0.25 10 1 0.75 10 -9 0.75 0 0 0 -10 0.5 0 0.5 -10 3 1 2 3 2 4 
20 18 1 0.00380538968380283
11 2.00000908777471 0.25 10 1 0.25 10.9848089813398 1.82635878843388 0.25 10.939694351215 1.65798461090722 0.25 10.8660269263915 1.50000263716037 0.25 10.7660451058277 1.35721318003618 0.25 10.6427868564885 1.23395492482009 0.25 10.4999974041314 1.13397309744812 0.25 10.342015433897 1.0603056650921 0.25 10.1736412585213 1.01519102693931 0.25 11 2.00000908777471 0.75 10 1 0.75 10.9848089813398 1.82635878843388 0.75 10.939694351215 1.65798461090722 0.75 10.8660269263915 1.50000263716037 0.75 10.7660451058277 1.35721318003618 0.75 10.6427868564885 1.23395492482009 0.75 10.4999974041314 1.13397309744812 0.75 10.342015433897 1.0603056650921 0.75 10.1736412585213 1.01519102693931 0.75 6.28319439495429 -0.25 4.7123799402895 -0.25 6.10865945554709 -0.25 5.9341245161399 -0.25 5.7595895767327 -0.25 5.5850546373255 -0.25 5.4105196979183 -0.25 5.2359847585111 -0.25 5.0614498191039 -0.25 4.8869148796967 -0.25 6.28319439495429 -0.75 4.7123799402895 -0.75 6.10865945554709 -0.75 5.9341245161399 -0.75 5.7595895767327 -0.75 5.5850546373255 -0.75 5.4105196979183 -0.75 5.2359847585111 -0.75 5.0614498191039 -0.75 4.8869148796967 -0.75 10 12 20 10 2 12 9 20 19 9 10 20 8 19 18 8 9 19 7 18 17 7 8 18 6 17 16 6 7 17 5 16 15 5 6 16 4 15 14 4 5 15 3 14 13 3 4 14 1 13 11 1 3 13 
4 2 1 2.77555756156289e-017
10 1 0.25 10 1 0.75 10 3.5 0.75 10 3.5 0.25 0 0 0.5 0 0.5 -2.5 0 -2.5 2 4 3 2 1 4 

TShapes 24
Ve
9.08518322601881e-006
10 1 0.75
0 0

0101101
*
Ed
 1e-007 1 1 0
1  1 0 0 10
6  1 1 0
6  2 2 0
2  1 1 0 0 10
2  2 2 0 0 10
0

0101000
+24 1 -24 3 *
Ve
1e-007
11 1 0.75
0 0

0101101
*
Ed
 1e-007 1 1 0
1  2 0 0 10
6  3 1 0
6  4 3 0
2  3 3 0 0 10
2  4 1 0 0 10
0

0101000
+22 1 -22 3 *
Ed
 1e-007 1 1 0
1  3 0 0 1
2  5 4 0 0 1
2  6 5 5 0 1
2  7 5 7 0 1
6  5 4 0
6  6 5 10
6  7 5 11
6  8 1 12
6  9 1 13
2  8 1 13 0 1
2  9 1 12 0 1
0

0101000
+24 0 -22 0 *
Wi

0101100
+23 0 -21 0 -20 1 +20 3 *
Fa
0  1e-007 1 0
2  1
0111000
+19 0 *
Ve
1e-007
11 1 0.25
0 0

0101101
*
Ed
 1e-007 1 1 0
1  4 0 0 10
6  10 3 0
6  11 6 0
2  10 6 0 0 10
2  11 3 0 0 10
0

0101000
+17 1 -17 3 *
Ed
 1e-007 1 1 0
1  5 0 0 0.5
2  12 4 0 0 0.5
2  13 7 5 0 0.5
2  14 7 7 0 0.5
6  12 4 0
6  13 7 10
6  14 7 11
6  15 3 13
6  16 3 12
2  15 3 13 0 0.5
2  16 3 12 0 0.5
0

0101000
+22 0 -17 0 *
Wi

0101100
+21 0 -16 0 -15 1 +15 3 *
Fa
0  1e-007 3 0
2  3
0111000
+14 0 *
Ve
9.08518322601881e-006
10 1 0.25
0 0

0101101
*
Ed
 1e-007 1 1 0
1  6 0 0 10
6  17 6 0
6  18 2 0
2  17 6 0 0 10
2  18 2 0 0 10
0

0101000
+12 1 -12 3 *
Ed
 1e-007 1 1 0
1  7 0 0 1
2  19 4 0 0 1
2  20 8 5 0 1
2  21 8 7 0 1
6  19 4 0
6  20 8 11
6  21 8 10
6  22 6 12
6  23 6 13
2  22 6 13 0 1
2  23 6 12 0 1
0

0101000
+17 0 -12 0 *
Wi

0101100
+16 0 -11 0 -10 1 +10 3 *
Fa
0  1e-007 6 0
2  6
0111000
+9 0 *
Ed
 1e-007 1 1 0
1  8 0 0 0.5
2  24 4 0 0 0.5
2  25 9 5 0 0.5
2  26 9 7 0 0.5
6  24 4 0
6  25 9 11
6  26 9 10
6  27 2 12
6  28 2 13
2  27 2 13 0 0.5
2  28 2 12 0 0.5
2  29 10 13 0 0.5
6  29 10 13
6  30 11 13
0

0101000
+12 0 -24 0 *
Wi

0101100
+11 0 -23 0 -7 1 +7 3 *
Fa
0  1e-007 2 0
2  2
0111000
+6 0 *
Wi

0101100
-20 0 -15 0 -10 0 -7 0 *
Fa
0  1e-007 4 0
2  4
0111000
+4 0 *
Sh

0101100
-18 0 -13 0 -8 0 -5 0 +3 1 -3 3 *
So

0100000
+2 0 *

+1 0 