DBRep_DrawableShape

CASCADE Topology V1, (c) Matra-Datavision
Locations 0
Curve2ds 4
1 6.2831853071795862 0 0 1 
1 0 0 0 1 
1 0 0 1 0 
1 0 1 1 0 
Curves 3
7 1 0  9 45 7  9.2847669088525961 -3.7139067635410399 1.2246467991473531e-015  1.6690784610682365 11.911926704020999 -0.1377655018053332 1.3607186657192883e-015  1.6690784610682259 14.548376869040643 3.3992867256422694 1.4882860406304358e-015  1.6690784610682832 17.193816762624543 6.8641089280683474 1.6073489238809698e-015  1.6690784610681375 19.846536943962253 10.223842297786369 1.7179073154704832e-015  1.6690784610683582 22.502933868669857 13.445821016732696 1.8199612153996506e-015  1.6690784610681393 25.156743144441137 16.498106688026994 1.9135106236676688e-015  1.6690784610682849 27.798458281379808 19.349978058917223 1.9985555402752177e-015  1.6690784610682254 31.721509486343244 23.286930903367185 2.1133661776952484e-015  1.6690784610682394 35.548878417925195 26.671466871053045 2.2090417088786451e-015  1.6690784610682392 36.812014918957175 27.7359801748335 2.2388074296912716e-015  1.6690784610682248 38.060353884479355 28.73507488843271 2.2664470275886527e-015  1.669078461068249 39.291726241872958 29.667670504561364 2.2919605025709353e-015  1.6690784610682334 40.504076900238481 30.533521377909018 2.3153478546379527e-015  1.6690784610682325 41.695742983716748 31.333385305752625 2.3366090837898322e-015  1.6690784610682383 44.036001072817811 32.804828714456555 2.374879296263183e-015  1.6690784610682359 46.291783197379431 34.030752616633272 2.4046450170757875e-015  1.6690784610682363 47.398971012109961 34.585097345569643 2.4174017545669168e-015  1.669078461068245 48.487151166383576 35.084505763178697 2.4280323691428554e-015  1.6690784610682146 49.559702312077562 35.533412363471164 2.436536860803552e-015  1.6690784610682672 50.622228741878807 35.93661812450015 2.4429152295491766e-015  1.6690784610682121 51.682774417666103 36.298508441320976 2.4471674753795193e-015  1.6690784610682448 53.820223828269533 36.945685403633647 2.4514197212098755e-015  1.6690784610682312 56.036241868166329 37.444157770400025 2.4471674753795541e-015  1.6690784610682388 57.175360125625794 37.657340935785662 2.4429152295490145e-015  1.6690784610682423 58.358356109658729 37.833711983547303 2.4365368608038214e-015  1.669078461068217 59.59859076837099 37.97004928578091 2.4280323691425872e-015  1.6690784610682652 60.908767208724562 38.060539494385779 2.4174017545670829e-015  1.6690784610682123 62.299939622541856 38.097282029961711 2.4046450170757363e-015  1.6690784610682485 65.262273787877433 38.045078611672594 2.3748792962632343e-015  1.6690784610682208 68.61247089603367 37.702734169273683 2.3366090837897806e-015  1.6690784610682567 70.391504552738709 37.449338831116215 2.3153478546380896e-015  1.6690784610681779 72.279410474570739 37.103447294498942 2.2919605025707279e-015  1.6690784610683218 74.279082971635432 36.654883906432083 2.2664470275888562e-015  1.669078461068161 76.391791007885558 36.094073434999139 2.2388074296911506e-015  1.6690784610682743 78.617665825647322 35.412256814024261 2.2090417088786719e-015  1.6690784610682305 85.632917707993101 32.979906121747661 2.1133661776952267e-015  1.6690784610682423 93.651185806308277 29.322059778241378 1.9985555402752299e-015  1.6690784610682308 99.433720425048108 26.281225838505417 1.9135106236676566e-015  1.6690784610682552 105.63691829793707 22.592652299634043 1.8199612153996632e-015  1.6690784610681926 112.24627227148233 18.221005588075151 1.7179073154704674e-015  1.6690784610683012 119.25083789176014 13.134890342972092 1.6073489238809858e-015  1.6690784610681737 126.64247962106383 7.3058042798854359 1.4882860406304289e-015  1.6690784610682732 134.4157065462656 0.70646921146605035 1.3607186657192889e-015  1.6690784610682263 142.56705853752834 -6.6896473162244945 1.2246467991473531e-015  1.6690784610682365
 0 10 0.25 7 0.375 7 0.5 7 0.625 7 0.75 7 1 10
7 1 1  6 6 2  9.2847669088525961 -3.7139067635410399 1.2246467991473531e-015  1.6690784610682365 9.2847669088525606 -3.7139067635410257 -16.615430755710584  1.0367296232096121 -9.7912341433917547 3.9164936573566997 -19.001123832456035  1.0383466998475064 -25.524909816746082 10.209963926698434 -3.4584366695660049e-014  0.85353433019614966 -9.7912341433917405 3.9164936573567033 19.00112383245607  1.0383466998475068 9.2847669088525748 -3.7139067635410328 16.615430755710577  1.0367296232096115
 0 6 6.2831853071795862 6
7 1 1  6 6 2  142.56705853752834 -6.6896473162244945 1.2246467991473531e-015  1.6690784610682365 142.56705853752837 -6.6896473162244803 -16.615430755710584  1.0367296232096121 157.83839496969972 7.054555472729767 -19.001123832456038  1.0383466998475064 170.43402514734623 18.39062263261161 -3.4584366695660043e-014  0.85353433019614966 157.83839496969975 7.054555472729767 19.001123832456074  1.0383466998475068 142.56705853752834 -6.6896473162244874 16.615430755710577  1.0367296232096115
 0 6 6.2831853071795862 6
Polygon3D 0
PolygonOnTriangulations 0
Surfaces 1
9 1 1 1 0 6 9 6 45 2 7 9.2847669088525961 -3.7139067635410399 1.2246467991473531e-015  1.6690784610682365 11.911926704020999 -0.1377655018053332 1.3607186657192883e-015  1.6690784610682259 14.548376869040645 3.3992867256422699 1.4882860406304358e-015  1.6690784610682832 17.193816762624543 6.8641089280683474 1.6073489238809698e-015  1.6690784610681375 19.846536943962256 10.223842297786369 1.7179073154704832e-015  1.6690784610683582 22.502933868669857 13.445821016732697 1.8199612153996506e-015  1.6690784610681393 25.156743144441137 16.498106688026994 1.9135106236676688e-015  1.6690784610682849 27.798458281379808 19.349978058917223 1.9985555402752177e-015  1.6690784610682254 31.721509486343244 23.286930903367185 2.1133661776952484e-015  1.6690784610682394 35.548878417925195 26.671466871053045 2.2090417088786451e-015  1.6690784610682392 36.812014918957175 27.7359801748335 2.2388074296912716e-015  1.6690784610682248 38.060353884479355 28.73507488843271 2.2664470275886527e-015  1.669078461068249 39.291726241872951 29.667670504561364 2.2919605025709353e-015  1.6690784610682334 40.504076900238481 30.533521377909018 2.3153478546379527e-015  1.6690784610682325 41.695742983716748 31.333385305752625 2.3366090837898322e-015  1.6690784610682383 44.036001072817811 32.804828714456555 2.374879296263183e-015  1.6690784610682359 46.291783197379431 34.030752616633272 2.4046450170757875e-015  1.6690784610682363 47.398971012109968 34.585097345569643 2.4174017545669168e-015  1.669078461068245 48.487151166383583 35.084505763178697 2.4280323691428554e-015  1.6690784610682146 49.559702312077562 35.533412363471164 2.436536860803552e-015  1.6690784610682672 50.622228741878807 35.93661812450015 2.4429152295491766e-015  1.6690784610682121 51.682774417666103 36.298508441320976 2.4471674753795193e-015  1.6690784610682448 53.820223828269533 36.945685403633647 2.4514197212098755e-015  1.6690784610682312 56.036241868166329 37.444157770400025 2.4471674753795541e-015  1.6690784610682388 57.175360125625794 37.657340935785662 2.4429152295490145e-015  1.6690784610682423 58.358356109658729 37.833711983547303 2.4365368608038214e-015  1.669078461068217 59.59859076837099 37.97004928578091 2.4280323691425872e-015  1.6690784610682652 60.908767208724555 38.060539494385779 2.4174017545670829e-015  1.6690784610682123 62.299939622541856 38.097282029961711 2.4046450170757363e-015  1.6690784610682485 65.262273787877433 38.045078611672594 2.3748792962632343e-015  1.6690784610682208 68.61247089603367 37.702734169273683 2.3366090837897806e-015  1.6690784610682567 70.391504552738709 37.449338831116215 2.3153478546380896e-015  1.6690784610681779 72.279410474570739 37.103447294498942 2.2919605025707279e-015  1.6690784610683218 74.279082971635432 36.654883906432083 2.2664470275888562e-015  1.669078461068161 76.391791007885558 36.094073434999139 2.2388074296911506e-015  1.6690784610682743 78.617665825647322 35.412256814024261 2.2090417088786719e-015  1.6690784610682305 85.632917707993101 32.979906121747661 2.1133661776952267e-015  1.6690784610682423 93.651185806308263 29.322059778241378 1.9985555402752299e-015  1.6690784610682308 99.433720425048108 26.281225838505417 1.9135106236676566e-015  1.6690784610682552 105.63691829793706 22.59265229963404 1.8199612153996632e-015  1.6690784610681926 112.24627227148233 18.221005588075151 1.7179073154704674e-015  1.6690784610683012 119.25083789176014 13.134890342972092 1.6073489238809858e-015  1.6690784610681737 126.64247962106384 7.3058042798854359 1.4882860406304289e-015  1.6690784610682732 134.4157065462656 0.70646921146605024 1.3607186657192889e-015  1.6690784610682263 142.56705853752834 -6.6896473162244945 1.2246467991473531e-015  1.6690784610682365 
9.2847669088525606 -3.7139067635410257 -16.615430755710584  1.0367296232096121 11.911926704021212 -0.13776550180534031 -18.461589728567244  1.0367296232096028 14.548376869039686 3.3992867256424013 -20.19236376562073  1.0367296232096521 17.193816762626874 6.8641089280682266 -21.807752866869738  1.0367296232095293 19.846536943958455 10.223842297786337 -23.307757032316736  1.0367296232097116 22.502933868673637 13.445821016732967 -24.692376261958248  1.036729623209536 25.156743144438742 16.49810668802677 -25.961610555798217  1.0367296232096481 27.798458281380555 19.349978058917351 -27.115459913833039  1.0367296232096039 31.721509486342811 23.286930903367136 -28.673156547181268  1.0367296232096153 35.548878417925231 26.671466871053109 -29.971237074970855  1.0367296232096128 36.812014918957232 27.73598017483339 -30.375084350284059  1.0367296232096084 38.060353884479134 28.735074888432983 -30.750085391643786  1.0367296232096115 39.291726241873178 29.667670504561166 -31.09624019905678  1.036729623209623 40.504076900238204 30.533521377909167 -31.413548772514556  1.0367296232095973 41.695742983716812 31.333385305752632 -31.702011112024433  1.0367296232096186 44.036001072817733 32.804828714456619 -32.221243323139866  1.036729623209609 46.291783197379431 34.030752616633279 -32.625090598452907  1.0367296232096124 47.398971012109847 34.585097345569757 -32.79816800215675  1.0367296232096181 48.487151166383782 35.084505763178619 -32.942399171913941  1.0367296232095984 49.559702312077306 35.533412363471335 -33.057784107714497  1.0367296232096288 50.622228741878935 35.936618124500114 -33.144322809569196  1.0367296232095982 51.682774417666074 36.298508441321047 -33.202015277470061  1.0367296232096188 53.820223828269512 36.945685403633668 -33.259707745372403  1.0367296232096033 56.036241868166357 37.444157770400082 -33.202015277469776  1.036729623209623 57.175360125625701 37.657340935785761 -33.144322809570262  1.0367296232095784 58.358356109658793 37.833711983547197 -33.057784107713111  1.0367296232096626 59.598590768370954 37.970049285781158 -32.942399171914857  1.0367296232095651 60.908767208724562 38.060539494385679 -32.798168002156409  1.0367296232096386 62.299939622541885 38.097282029961818 -32.625090598452921  1.0367296232096053 65.262273787877348 38.045078611672572 -32.221243323139895  1.0367296232096175 68.612470896033813 37.702734169273775 -31.702011112024302  1.0367296232096086 70.391504552738269 37.449338831116165 -31.413548772515185  1.0367296232096237 72.27941047457152 37.103447294499098 -31.096240199055739  1.0367296232095922 74.279082971634594 36.654883906431991 -30.750085391644713  1.0367296232096332 76.391791007886212 36.094073434999224 -30.375084350283608  1.0367296232095975 78.617665825647137 35.412256814024339 -29.971237074970993  1.0367296232096159 85.632917707993471 32.979906121747504 -28.673156547180952  1.0367296232096104 93.651185806307822 29.322059778241755 -27.115459913833554  1.036729623209611 99.43372042504933 26.281225838504376 -25.961610555796863  1.0367296232096219 105.63691829793486 22.592652299636022 -24.692376261960359  1.0367296232095908 112.24627227148534 18.221005588072742 -23.307757032314399  1.0367296232096401 119.25083789175741 13.134890342974284 -21.807752866871553  1.0367296232095884 126.64247962106546 7.3058042798841534 -20.192363765619781  1.0367296232096246 134.41570654626517 0.70646921146649788 -18.46158972856751  1.036729623209609 142.56705853752837 -6.6896473162244803 -16.615430755710584  1.0367296232096121 
-9.7912341433917547 3.9164936573566997 -19.001123832456035  1.0383466998475064 -9.1374537674203609 8.7058978212659639 -21.112359813839856  1.0383466998475013 -8.279455097650704 13.536523255554076 -23.091643546388202  1.0383466998475299 -7.2054559806827925 18.385993168680198 -24.938975030097126  1.0383466998474615 -5.9021886161430714 23.231633193478139 -26.654354264975204  1.0383466998475483 -4.3543877801331305 28.050565445934645 -28.237781251008752  1.0383466998474882 -2.5439822564353918 32.819144941326556 -29.689255988214114  1.0383466998475066 -0.44948188063705885 37.512443157811504 -31.008778476577046  1.0383466998475088 3.1581551786414295 44.395907604749972 -32.790133835870485  1.0383466998475057 7.5288040629039727 50.959044646709302 -34.274596635281114  1.0383466998475044 9.0740313185857033 53.10640974461694 -34.736429506207493  1.0383466998475235 10.711297373031421 55.208110771722772 -35.165274314929611  1.0383466998474686 12.444322756937524 57.258121479617202 -35.561131061434352  1.0383466998475541 14.27670780176593 59.249535217695367 -35.923999745738755  1.0383466998474704 16.211639229339887 61.17438715679409 -36.253880367827996  1.0383466998475184 20.291259056956306 64.872745349670254 -36.847665487593062  1.0383466998474975 24.794361979678243 68.22809727869992 -37.309498358520166  1.0383466998475124 27.152778932255515 69.809942629550122 -37.507426731775972  1.0383466998474946 29.617706436827351 71.284909973470803 -37.67236704281963  1.038346699847517 32.187014681262511 72.6411572274001 -37.804319291658445  1.0383466998475048 34.856226807921637 73.866455833210892 -37.903283478284067  1.0383466998474999 37.618293210453707 74.949015485053522 -37.969259602703161  1.0383466998475117 43.309572882748604 76.807969499103621 -38.035235727120977  1.0383466998474991 49.292525163091071 78.021181788379465 -37.969259602703175  1.0383466998475157 52.346260005694631 78.45800241075834 -37.903283478283996  1.0383466998474813 55.450221702778272 78.718672322597158 -37.804319291658594  1.0383466998475397 58.591753629776385 78.799423190351646 -37.672367042819346  1.0383466998474817 61.758892887311077 78.699219774326451 -37.507426731776313  1.0383466998475146 64.941415436483169 78.419227920810499 -37.309498358520074  1.0383466998475062 71.321114280392919 77.504521494397295 -36.847665487592927  1.0383466998475084 77.706447868019197 75.892585401296628 -36.253880367828323  1.0383466998475028 80.894606953568399 74.915360558869736 -35.923999745737468  1.0383466998475241 84.0744849941577 73.770546684658058 -35.561131061436399  1.0383466998474722 87.24446293938388 72.461708799686136 -35.165274314927771  1.0383466998475426 90.404635744692925 70.991778752032928 -34.736429506208417  1.0383466998474835 93.5562981478094 69.362827703660287 -34.274596635280943  1.0383466998475142 102.99202864745942 64.002599591517594 -32.790133835870634  1.0383466998474904 112.39329151730655 57.226082832503991 -31.008778476576897  1.0383466998475308 118.66618666977243 52.082365033085928 -29.689255988214462  1.0383466998474407 124.97318517667171 46.303231898775167 -28.237781251008027  1.0383466998476103 131.34105064316458 39.86861882228169 -26.654354264976142  1.0383466998473962 137.79278963597531 32.754308161228799 -24.938975030096458  1.0383466998475848 144.3484465843662 24.933031384751239 -23.091643546388426  1.0383466998474702 151.02527703349548 16.37622909260503 -21.112359813839841  1.0383466998475157 157.83839496969972 7.054555472729767 -19.001123832456038  1.0383466998475064 
-25.524909816746082 10.209963926698432 -3.4584366695660049e-014  0.85353433019614966 -26.498751062156536 16.000053976345729 -3.8427074106288338e-014  0.85353433019614455 -27.107599607918736 21.89760435158226 -4.2029612303755529e-014  0.85353433019617497 -27.329707544608517 27.889116453858971 -4.5391981288050199e-014  0.85353433019609493 -27.139454008147005 33.960315930450342 -4.8514181059194132e-014  0.85353433019621738 -26.506011022351224 40.096397877581239 -5.1396211617157518e-014  0.85353433019609759 -25.391235628892069 46.280557625597361 -5.4038072961971435e-014  0.85353433019617364 -23.748071964184085 52.492644433329673 -5.6439765093610907e-014  0.853534330196144 -20.400585020085209 61.806359213887063 -5.9682049471330552e-014  0.85353433019615244 -15.581844811447617 70.99117143088074 -6.23839531194283e-014  0.85353433019614866 -13.803952206674246 74.031660768215446 -6.3224545365503696e-014  0.85353433019615388 -11.845903370710467 77.042779344870311 -6.4005095308287274e-014  0.85353433019614033 -9.6991200928953489 80.01442171960025 -6.4725602947780622e-014  0.85353433019616265 -7.3553375116371384 82.934187317963364 -6.5386068283982101e-014  0.85353433019613867 -4.8073690103516995 85.786916984528204 -6.5986491316893023e-014  0.85353433019615443 0.70685723175940041 91.322009976821377 -6.7067252776132503e-014  0.85353433019614466 7.0635256095996937 96.433690700994049 -6.7907845022207268e-014  0.8535343301961551 10.45394258115283 98.863007253757019 -6.8268098841954864e-014  0.85353433019613245 14.054396144592353 101.14260486083475 -6.8568310358407561e-014  0.85353433019617997 17.858213167298352 103.2472166976105 -6.880847957157562e-014  0.85353433019611635 21.852601969834794 105.15056843193091 -6.8988606481445512e-014  0.85353433019616998 26.018063936916398 106.82752821795521 -6.9108691088029466e-014  0.85353433019614511 34.640503687389099 109.68594260465815 -6.9228775694610744e-014  0.85353433019615055 43.730381861670224 111.48866451394184 -6.9108691088029428e-014  0.85353433019615232 48.363271387007671 112.10993884897977 -6.8988606481445348e-014  0.85353433019613867 53.051624457628684 112.44013753591722 -6.8808479571576403e-014  0.85353433019616709 57.76132544143924 112.4750413244312 -6.856831035840616e-014  0.85353433019613212 62.460067188561929 112.21755590602194 -6.8268098841956139e-014  0.85353433019615998 67.12007560963697 111.67632501509493 -6.7907845022206827e-014  0.85353433019614677 76.318379221023932 110.05023560228113 -6.7067252776132831e-014  0.85353433019615277 85.207059965193707 107.39115429174095 -6.5986491316892821e-014  0.85353433019614655 89.557450192362992 105.81692284233139 -6.538606828398282e-014  0.85353433019615832 93.80293261407445 104.01316661885761 -6.472560294777912e-014  0.85353433019613945 97.938165609858231 101.9947837990068 -6.4005095308289104e-014  0.85353433019615721 101.96227582586999 99.775021932757227 -6.3224545365502485e-014  0.85353433019614555 105.8775176380303 97.364884835016653 -6.2383953119428716e-014  0.85353433019615121 117.30963225585299 89.589775657950696 -5.9682049471329669e-014  0.85353433019614799 127.85157398882583 80.241013871518931 -5.6439765093612232e-014  0.85353433019615099 134.52891311146246 73.362860613831543 -5.4038072961968103e-014  0.85353433019614766 140.92152523863695 65.859456938732237 -5.1396211617162522e-014  0.85353433019614955 147.09021364287324 57.723331914214285 -4.851418105918861e-014  0.85353433019615632 153.08598731905815 48.936188001088517 -4.5391981288054717e-014  0.85353433019613756 158.95213322291517 39.471774254862005 -4.2029612303753011e-014  0.85353433019615965 164.72466792806057 29.300474544990543 -3.8427074106289108e-014  0.85353433019614611 170.43402514734623 18.39062263261161 -3.4584366695660043e-014  0.85353433019614966 
-9.7912341433917405 3.9164936573567033 19.00112383245607  1.0383466998475068 -9.1374537674212561 8.7058978212657365 21.112359813840293  1.0383466998474942 -8.2794550976472649 13.536523255554844 23.09164354638666  1.0383466998475603 -7.2054559806901395 18.38599316867878 24.938975030100679  1.038346699847394 -5.9021886161328823 23.231633193479766 26.65435426497006  1.0383466998476518 -4.3543877801428508 28.05056544593354 28.237781251014084  1.0383466998473811 -2.5439822564292101 32.819144941326869 29.689255988210668  1.0383466998475794 -0.4494818806393539 37.512443157811568 31.008778476578389  1.038346699847482 3.1581551786427369 44.395907604749752 32.790133835869703  1.0383466998475233 7.5288040629035322 50.959044646709508 34.274596635281576  1.0383466998474975 9.0740313185865418 53.106409744616123 34.736429506206328  1.0383466998475444 10.711297373030469 55.208110771724265 35.165274314931807  1.0383466998474358 12.444322756938121 57.258121479615468 35.561131061432128  1.0383466998475888 14.276707801765703 59.249535217696589 35.923999745740247  1.0383466998474484 16.211639229340001 61.174387156793713 36.253880367827705  1.0383466998475264 20.29125905695615 64.87274534967051 36.847665487593282  1.0383466998474915 24.794361979678492 68.228097278699778 37.30949835852028  1.0383466998475182 27.152778932254591 69.809942629550619 37.507426731775517  1.0383466998474782 29.617706436828975 71.284909973469752 37.672367042820824  1.0383466998475499 32.187014681260798 72.641157227401408 37.804319291657215  1.0383466998474662 34.856226807922724 73.86645583320994 37.903283478284976  1.0383466998475293 37.61829321045338 74.949015485053863 37.969259602702977  1.0383466998475015 43.309572882748867 76.807969499103365 38.03523572712119  1.0383466998475106 49.292525163090893 78.02118178837965 37.969259602703204  1.0383466998475044 52.346260005694994 78.458002410758041 37.903283478284088  1.0383466998475159 55.450221702777931 78.718672322597655 37.804319291658366  1.038346699847488 58.59175362977652 78.79942319035095 37.672367042820014  1.0383466998475326 61.758892887311127 78.699219774327076 37.507426731775844  1.038346699847484 64.941415436483112 78.419227920810329 37.309498358520273  1.0383466998475166 71.321114280393033 77.504521494397281 36.847665487592998  1.0383466998474999 77.70644786801904 75.892585401296813 36.253880367828309  1.038346699847511 80.894606953568939 74.915360558868954 35.923999745737909  1.0383466998475026 84.074484994156819 73.77054668465928 35.561131061435653  1.0383466998475048 87.244462939384704 72.461708799684914 35.165274314928787  1.0383466998475162 90.404635744692456 70.991778752033795 34.736429506207813  1.0383466998474959 93.556298147809557 69.362827703660002 34.274596635281213  1.0383466998475133 102.99202864745914 64.00259959151802 32.790133835870449  1.03834669984749 112.39329151730698 57.226082832503437 31.008778476577195  1.0383466998475348 118.66618666977104 52.082365033087207 29.689255988214097  1.0383466998474313 124.97318517667424 46.303231898773518 28.237781251008713  1.0383466998476234 131.34105064316131 39.868618822283103 26.654354264975463  1.0383466998473887 137.79278963597824 32.754308161227925 24.938975030097016  1.0383466998475883 144.34844658436461 24.933031384751608 23.091643546388308  1.0383466998474691 151.02527703349588 16.376229092604955 21.112359813839891  1.038346699847517 157.83839496969975 7.054555472729767 19.001123832456074  1.0383466998475068 
9.2847669088525748 -3.7139067635410328 16.615430755710577  1.0367296232096115 11.911926704021077 -0.13776550180551794 18.461589728567095  1.0367296232096006 14.548376869040254 3.399286725643055 20.192363765621202  1.0367296232096579 17.193816762625659 6.8641089280669405 21.8077528668688  1.0367296232095162 19.84653694396011 10.223842297788 23.307757032317991  1.0367296232097276 22.502933868672287 13.445821016731411 24.692376261957037  1.0367296232095187 25.156743144439403 16.498106688027764 25.961610555798927  1.0367296232096599 27.798458281380427 19.349978058916975 27.115459913832794  1.0367296232095973 31.721509486342907 23.286930903367367 28.673156547181332  1.0367296232096215 35.548878417925181 26.671466871052996 29.971237074970919  1.0367296232096053 36.81201491895753 27.735980174833639 30.375084350283597  1.0367296232096366 38.060353884478744 28.735074888432624 30.750085391644639  1.0367296232095631 39.291726241873519 29.667670504561436 31.096240199055849  1.0367296232096692 40.504076900238076 30.533521377909029 31.413548772515075  1.0367296232095693 41.695742983716841 31.33338530575265 31.702011112024291  1.036729623209625 44.03600107281774 32.80482871445659 32.221243323139937  1.0367296232096033 46.291783197379445 34.030752616633272 32.625090598452815  1.0367296232096144 47.398971012109875 34.58509734556975 32.798168002156665  1.036729623209617 48.487151166383754 35.084505763178619 32.942399171914467  1.0367296232095915 49.55970231207732 35.533412363471278 33.057784107713502  1.0367296232096397 50.62222874187897 35.936618124500143 33.144322809570021  1.0367296232095893 51.682774417666053 36.298508441321012 33.202015277469762  1.0367296232096199 53.820223828269533 36.945685403633689 33.259707745372545  1.0367296232096022 56.036241868166336 37.444157770400018 33.202015277469783  1.0367296232096215 57.175360125625744 37.657340935785903 33.144322809569857  1.0367296232095833 58.358356109658764 37.833711983546948 33.057784107713779  1.0367296232096539 59.598590768371004 37.970049285781379 32.942399171914296  1.03672962320957 60.908767208724512 38.060539494385523 32.798168002156622  1.0367296232096359 62.299939622541906 38.097282029961846 32.625090598452907  1.0367296232096046 65.262273787877319 38.04507861167253 32.221243323139824  1.0367296232096175 68.612470896033869 37.702734169273775 31.702011112024394  1.0367296232096066 70.391504552738084 37.449338831116094 31.413548772514797  1.0367296232096264 72.279410474571748 37.103447294499126 31.09624019905625  1.0367296232095891 74.279082971634509 36.654883906432005 30.750085391644429  1.0367296232096308 76.39179100788607 36.094073434999153 30.375084350283576  1.0367296232096008 78.617665825647308 35.412256814024353 29.971237074970993  1.0367296232096141 85.632917707992902 32.979906121747433 28.673156547181001  1.0367296232096097 93.651185806308803 29.322059778241847 27.115459913833405  1.0367296232096113 99.433720425046573 26.281225838504064 25.96161055579719  1.0367296232096199 105.63691829793926 22.59265229963647 24.6923762619599  1.0367296232095884 112.24627227148042 18.22100558807232 23.307757032314825  1.0367296232096446 119.25083789176125 13.134890342974455 21.807752866871233  1.0367296232095826 126.64247962106339 7.3058042798841463 20.192363765619941  1.0367296232096268 134.41570654626574 0.70646921146646235 18.46158972856745  1.0367296232096075 142.56705853752834 -6.6896473162244874 16.615430755710577  1.0367296232096115 

0 6
6.2831853071795862 6

0 10
0.25 7
0.375 7
0.5 7
0.625 7
0.75 7
1 10

Triangulations 0

TShapes 8
Ve
1e-007
9.2847669088526 -3.71390676354104 1.22464679914735e-015
0 0

0101101
*
Ve
1e-007
142.567058537528 -6.68964731622449 1.22464679914735e-015
0 0

0101101
*
Ed
 1e-007 1 1 0
1  1 0 0 1
3  1 2C0 1 0 0 1
0

0101000
+8 0 -7 0 *
Ed
 1e-007 1 1 0
1  2 0 0 6.28318530717959
2  3 1 0 0 6.28318530717959
0

0101000
+8 0 -8 0 *
Ed
 1e-007 1 1 0
1  3 0 0 6.28318530717959
2  4 1 0 0 6.28318530717959
0

0101000
+7 0 -7 0 *
Wi

0101100
-6 0 +5 0 +6 0 -4 0 *
Fa
1  1e-007 1 0

0101000
+3 0 *
Sh

1101000
+2 0 *

+1 0 
0

