DBRep_DrawableShape

CASCADE Topology V1, (c) Matra-Datavision
Locations 0
Curve2ds 5
7 0 0  3 47 45  0.78532623905683518 -74.140322569638954  0.79526701841887437 -73.85051092447155  0.81539936453363282 -73.276387182022745  0.84631544215637877 -72.433784003622705  0.87791470551383632 -71.611847041134908  0.91016127337073005 -70.812660113614299  0.94301852594259472 -70.038306897427816  0.9764493368053353 -69.290871601279036  1.0104162014056435 -68.57243644721305  1.0448827335134858 -67.885091071571821  1.0798101618292399 -67.23089744016869  1.1151783351014153 -66.612070206504754  1.1509815516999975 -66.030911722423141  1.1872170470645882 -65.489704205261205  1.2238878315568398 -64.990733378977168  1.2610034985262235 -64.536291075551517  1.2985757165646037 -64.12864118825479  1.3366367441404723 -63.770153257175259  1.375140964115344 -63.462582077087305  1.4139995571344475 -63.207375826768953  1.4531328615965569 -63.006058425493016  1.4924594028434539 -62.86012572223045  1.5319007035810888 -62.771110106664644  1.5713824434851098 -62.740425875931194  1.6108344962125107 -62.76992315664436  1.650201878612549 -62.858986686450791  1.6894290843515201 -63.005683333168903  1.7284545465771561 -63.208391627100113  1.7672128717420374 -63.465413358320582  1.8056387396180149 -63.77504561532448  1.8436571331719502 -64.135681033159358  1.8812415672153762 -64.545162020508101  1.9183900564535072 -65.000997113549388  1.9550890349635353 -65.500774578201487  1.9913221742571032 -66.04205513890075  2.0270702263735174 -66.62242995627183  2.0623057926216166 -67.239395987667592  2.0970257358071631 -67.890949628029716  2.1312396840807697 -68.575396605733772  2.1649492450835321 -69.290970638701424  2.198153194966352 -70.03592479873987  2.230846317883227 -70.808506752567652  2.2630200639326645 -71.606966433372932  2.2946624136795499 -72.429550113553745  2.3257591978166623 -73.274516442198887  2.3461133713318354 -73.851557629015986  2.3561931534004277 -74.143215114682221 
 0.91194807419333479 4 2.2837536573138735 1 3.6555592404344126 1 5.0273648235549517 1 6.3991704066754904 1 7.7709759897960291 1 9.1427815729165687 1 10.514587156037107 1 11.886392739157646 1 13.258198322278185 1 14.630003905398723 1 16.001809488519264 1 17.373615071639804 1 18.745420654760338 1 20.117226237880878 1 21.489031821001419 1 22.860837404121959 1 24.2326429872425 1 25.604448570363033 1 26.976254153483573 1 28.348059736604114 1 29.719865319724654 1 31.091670902845188 1 32.463476485965728 1 33.835282069086269 1 35.207087652206809 1 36.578893235327342 1 37.950698818447883 1 39.322504401568423 1 40.694309984688964 1 42.066115567809497 1 43.437921150930038 1 44.809726734050578 1 46.181532317171119 1 47.553337900291659 1 48.925143483412192 1 50.296949066532733 1 51.668754649653273 1 53.040560232773814 1 54.412365815894347 1 55.784171399014888 1 57.155976982135428 1 58.527782565255968 1 59.899588148376509 1 61.271393731497042 4
7 0 0  3 47 45  2.3561944901923439 -74.143158692025935  2.3660777358892915 -73.853917611040515  2.3861027356424351 -73.28086070126605  2.4168812770823891 -72.439637715759702  2.4483669274703388 -71.618863727739708  2.480523827525559 -70.820625370360005  2.5133150625232119 -70.047009221718511  2.5467027681755336 -69.300102065313752  2.5806484491005577 -68.5819899180985  2.6151136812756839 -67.894761657807237  2.6500594929512715 -67.240495485593868  2.6854511153759333 -66.6213105381416  2.7212776468495683 -66.039563421624521  2.75753128895016 -65.497586854306633  2.7942099295917586 -64.997718692892946  2.8313174924097346 -64.542300128234388  2.8688618773334138 -64.133653876157481  2.9068645157859336 -63.774173218439905  2.945323609076544 -63.465968925045104  2.9841490631253524 -63.21031913912195  3.0232617504243322 -63.008625707518078  3.0625792522446851 -62.862252111839197  3.1020215623656373 -62.772591590959408  3.1415119435438577 -62.740956719921776  3.1809773740559741 -62.768952971824469  3.2203557297980616 -62.856978243753851  3.2595904951973882 -63.002846920943924  3.2986178287245806 -63.204806826589731  3.3373698979121134 -63.460991682386812  3.375778430906232 -63.769558178067754  3.4137655083759704 -64.128685232716194  3.4512884653299807 -64.53642744676057  3.488374087566438 -64.990571908688551  3.525030757766956 -65.488951080887063  3.5612649495063504 -66.029384834045715  3.5970765920758137 -66.609698031743775  3.632462513579533 -67.227708157699098  3.6674084333372932 -67.881259371913288  3.7018816883599843 -68.568261475347455  3.735850626693022 -69.286613892736327  3.769281815991004 -70.034218829116227  3.8021413861181497 -70.808977744543924  3.8343952022356937 -71.608792298692975  3.8660093193490699 -72.431564097748719  3.8969501641878672 -73.275194762233355  3.9171068303739638 -73.850122193283923  3.927062046041204 -74.140362925451939 
 0 4 1.3715538915039771 1 2.7431077830079542 1 4.1146616745119315 1 5.4862155660159084 1 6.8577694575198853 1 8.2293233490238631 1 9.60087724052784 1 10.972431132031817 1 12.343985023535794 1 13.715538915039771 1 15.087092806543748 1 16.458646698047726 1 17.830200589551701 1 19.20175448105568 1 20.573308372559655 1 21.944862264063634 1 23.316416155567612 1 24.687970047071587 1 26.059523938575566 1 27.431077830079541 1 28.80263172158352 1 30.174185613087495 1 31.545739504591474 1 32.917293396095452 1 34.288847287599431 1 35.660401179103403 1 37.031955070607381 1 38.40350896211136 1 39.775062853615339 1 41.14661674511931 1 42.518170636623289 1 43.889724528127267 1 45.261278419631246 1 46.632832311135225 1 48.004386202639196 1 49.375940094143175 1 50.747493985647154 1 52.119047877151132 1 53.490601768655104 1 54.862155660159083 1 56.233709551663061 1 57.60526344316704 1 58.976817334671019 1 60.34837122617499 4
7 0 0  3 47 45  3.9269908169872423 -74.143158692025949  3.9368740626841863 -73.853917611040529  3.9568990624373317 -73.280860701266093  3.9876776038772839 -72.439637715759687  4.0191632542652354 -71.618863727739736  4.0513201543204538 -70.820625370359977  4.0841113893181102 -70.047009221718525  4.1174990949704284 -69.300102065313737  4.151444775895456 -68.581989918098515  4.1859100080705804 -67.894761657807265  4.2208558197461663 -67.240495485593868  4.2562474421708298 -66.6213105381416  4.2920739736444631 -66.039563421624521  4.3283276157450565 -65.497586854306633  4.3650062563866552 -64.99771869289296  4.402113819204633 -64.542300128234359  4.4396582041283104 -64.133653876157453  4.477660842580832 -63.774173218439905  4.5161199358714406 -63.46596892504509  4.554945389920249 -63.210319139121964  4.5940580772192288 -63.00862570751805  4.6333755790395834 -62.862252111839233  4.6728178891605303 -62.772591590959379  4.7123082703387524 -62.740956719921783  4.7517737008508689 -62.768952971824469  4.7911520565929582 -62.856978243753851  4.8303868219922848 -63.002846920943931  4.8694141555194754 -63.204806826589753  4.9081662247070099 -63.460991682386805  4.9465747577011268 -63.769558178067747  4.9845618351708687 -64.128685232716208  5.022084792124879 -64.536427446760555  5.0591704143613327 -64.990571908688551  5.0958270845618525 -65.488951080887063  5.1320612763012452 -66.029384834045715  5.1678729188707102 -66.60969803174379  5.2032588403744278 -67.227708157699084  5.2382047601321879 -67.881259371913302  5.2726780151548809 -68.568261475347441  5.3066469534879204 -69.286613892736298  5.3400781427858988 -70.034218829116242  5.3729377129130462 -70.808977744543881  5.4051915290305921 -71.60879229869299  5.4368056461439647 -72.431564097748733  5.4677464909827656 -73.275194762233326  5.4879031571688586 -73.850122193283909  5.4978583728361023 -74.140362925451939 
 0 4 1.3715538915039769 1 2.7431077830079538 1 4.1146616745119307 1 5.4862155660159075 1 6.8577694575198844 1 8.2293233490238613 1 9.6008772405278382 1 10.972431132031815 1 12.343985023535792 1 13.715538915039769 1 15.087092806543746 1 16.458646698047723 1 17.830200589551701 1 19.201754481055676 1 20.573308372559652 1 21.94486226406363 1 23.316416155567609 1 24.687970047071584 1 26.059523938575559 1 27.431077830079538 1 28.802631721583516 1 30.174185613087491 1 31.545739504591467 1 32.917293396095445 1 34.288847287599424 1 35.660401179103403 1 37.031955070607374 1 38.403508962111353 1 39.775062853615331 1 41.146616745119303 1 42.518170636623282 1 43.88972452812726 1 45.261278419631239 1 46.632832311135218 1 48.004386202639189 1 49.375940094143168 1 50.747493985647147 1 52.119047877151118 1 53.490601768655097 1 54.862155660159075 1 56.233709551663054 1 57.605263443167033 1 58.976817334671004 1 60.348371226174983 4
7 0 0  3 47 45  5.4977871437821371 -74.143158692025949  5.5076740252577601 -73.853811201801122  5.5277064898290078 -73.280545576615268  5.5584967672107837 -72.43902401840397  5.5899946521918089 -71.617968149192123  5.62216424191333 -70.819466793615661  5.6549685760974615 -70.045608719839052  5.6883697437396812 -69.298482906708514  5.7223292003913784 -68.58017754681471  5.7568084792032668 -67.892783767089199  5.7917685442522568 -67.238381743354665  5.8271746553310635 -66.619093681932497  5.8630159546559 -66.037279560921391  5.899284667398252 -65.495275075085289  5.935978721573651 -64.995421130532108  5.9731021038305467 -64.540062071328492  6.0106627389407628 -64.13152327836211  6.0486822834730845 -63.77220254727807  6.0871583353571417 -63.46420695164489  6.1260005162277746 -63.208813256159921  6.1651295509149833 -63.007423374970969  6.2044628418191223 -62.86140035208664  6.2439202182460996 -62.772137562621772  6.2834248054630635 -62.74094592740547  6.3229034011736474 -62.76943585330357  6.3622939966767849 -62.857976817683713  6.4015403992413322 -63.00438851513249  6.4405790537445142 -63.206924981764786  6.4793424389097076 -63.4637262179697  6.5177626224259164 -63.772954025510842  6.5557619543838559 -64.132797036379856  6.5932985949886938 -64.541299515469007  6.6303975821696532 -64.996211219597612  6.6670657394965644 -65.495332823480766  6.7033079483599174 -66.036450842250076  6.7391225788080256 -66.617357511475433  6.7745050132193541 -67.235836344557043  6.8094392990830421 -67.88970280110324  6.84389151461464 -68.576846071991866  6.8778289063436446 -69.295143377851716  6.9112170754150348 -70.042475146729984  6.9440213284056718 -70.816720947248726  6.976206843985544 -71.615760578312504  7.0077391228458321 -72.437473777120601  7.038584146296504 -73.279740297411678  7.0586674013770256 -73.853540024784877  7.0685834705770354 -74.143158692025935 
 0 4 1.3720584740684707 1 2.7441169481369414 1 4.1161754222054121 1 5.4882338962738828 1 6.8602923703423535 1 8.2323508444108242 1 9.6044093184792949 1 10.976467792547766 1 12.348526266616236 1 13.720584740684707 1 15.092643214753178 1 16.464701688821648 1 17.836760162890119 1 19.20881863695859 1 20.580877111027061 1 21.952935585095531 1 23.324994059164002 1 24.697052533232473 1 26.069111007300943 1 27.441169481369414 1 28.813227955437885 1 30.185286429506355 1 31.557344903574826 1 32.929403377643297 1 34.301461851711764 1 35.673520325780238 1 37.045578799848712 1 38.41763727391718 1 39.789695747985647 1 41.161754222054121 1 42.533812696122595 1 43.905871170191062 1 45.27792964425953 1 46.649988118328004 1 48.022046592396478 1 49.394105066464945 1 50.766163540533412 1 52.138222014601887 1 53.510280488670361 1 54.882338962738828 1 56.254397436807295 1 57.626455910875769 1 58.998514384944244 1 60.370572859012711 4
8 0 6.2831853071795862
1 3.1415926535897931 0.22500000000000853 -1 0 
Curves 17
7 0 0  3 10 8  20.528151402403484 24.221013603893628 -25.196130655320871  23.179629957033491 26.487795644329484 -23.099238726220758  27.510700734760142 30.335293143650688 -18.232139620682656  31.65410560028219 34.162278135005131 -9.1771781013456728  32.928737199492538 35.349428026218938 0.079122763788819786  31.639318413546587 34.147949185904793 8.7838126994112713  28.113239676489741 30.897019946344319 17.206554999459602  23.928742518675492 27.124207767104703 22.302678953694041  20.935156301531773 24.566285064698874 24.864624735638863  20.528151402403537 24.221013603893617 25.196130655320911 
 0 4 12.400741976313684 1 21.96088895438757 1 31.584408768003886 1 39.850944755056091 1 48.090082592859289 1 60.283384776352065 1 62.172534017869282 4
7 0 0  3 9 7  21.106841307974058 24.713382002469839 24.713382002469835  23.662817714067032 22.596720968611361 26.913541347412554  27.835801644042967 17.706272601116275 30.633225791639763  31.785951487373598 8.6831493895962453 34.285015857297246  32.917596388019255 -0.51387917557550677 35.3385968518703  31.531504896835692 -9.1556204780177346 34.049179259329691  27.74952554961698 -17.907596369334161 30.556783687803939  23.455522544417459 -22.881146648191315 26.724925080555209  20.528151402403473 -25.196130655320871 24.221013603893617 
 0 4 12.120198743642131 1 21.576022107722128 1 31.091835439435886 1 39.316997955623698 1 47.591526519624146 1 61.258702340152134 4
7 0 0  3 9 7  21.106841307974047 -24.713382002469842 24.713382002469839  23.662817714067025 -26.913541347412561 22.596720968611365  27.835801644042949 -30.633225791639763 17.706272601116275  31.78595148737362 -34.285015857297239 8.6831493895962524  32.917596388019241 -35.338596851870307 -0.51387917557550289  31.531504896835703 -34.049179259329669 -9.1556204780177364  27.74952554961698 -30.556783687803954 -17.907596369334158  23.455522544417459 -26.724925080555213 -22.881146648191308  20.528151402403477 -24.221013603893624 -25.196130655320871 
 0 4 12.120198743642126 1 21.576022107722125 1 31.091835439435883 1 39.316997955623691 1 47.591526519624139 1 61.258702340152126 4
7 0 0  3 9 7  21.106841307974054 -24.713382002469839 -24.713382002469835  23.662817714067032 -22.596720968611365 -26.913541347412561  27.835793967046119 -17.706259819103057 -30.633221607952198  31.785972135004211 -8.6831837673995658 -34.285027109514381  32.917522977255082 0.51400140271433126 -35.338556845640319  31.53173844192473 9.1552316311184612 -34.049306533015617  27.859784636436355 17.651738967125713 -30.65901075518661  23.804284922349435 22.470118923598839 -27.035014636031342  21.106841307974058 24.713382002469835 -24.713382002469839 
 0 4 12.120198743642137 1 21.576022107722125 1 31.091835439435876 1 39.316997955623684 1 47.591526519624132 1 60.370572859012711 4
2 95.475000000000009 0 0 -1 0 0 0 0 1 0 1 -0 34.950000000000003
7 0 0  3 10 8  -20.528151402403481 24.221013603893624 25.196130655320868  -23.179629957033487 26.487795644329481 23.099238726220754  -27.510700734760146 30.335293143650684 18.232139620682652  -31.65410560028219 34.162278135005131 9.1771781013456657  -32.928737199492531 35.349428026218938 -0.07912276378884045  -31.639318413546587 34.147949185904778 -8.7838126994112855  -28.113239676489709 30.897019946344304 -17.206554999459623  -23.928742518675492 27.124207767104661 -22.302678953694031  -20.935156301531769 24.566285064698867 -24.864624735638884  -20.52815140240353 24.221013603893613 -25.196130655320921 
 0 4 12.400741976313684 1 21.960888954387578 1 31.5844087680039 1 39.850944755056112 1 48.090082592859311 1 60.283384776352094 1 62.172534017869296 4
3 0 0 -8.6736173798840512e-016 -0 0.70710678118654757 -0.70710678118654757 0 0.70710678118654757 0.70710678118654757 1 0 -0 45.961940777125584 32.5
3 0 0 -8.6736173798840512e-016 0 0.70710678118654757 0.70710678118654757 0 -0.70710678118654757 0.70710678118654757 1 0 -0 45.961940777125584 32.5
2 0 95.25 -1.7347234759768102e-015 -6.12303176911189e-017 -1 0 1 -6.12303176911189e-017 0 0 0 1 32.5
7 0 0  3 9 7  -20.528151402403473 -25.196130655320871 24.221013603893624  -23.17962995703348 -23.099238726220758 26.487795644329477  -27.510752752429823 -18.232330740603878 30.335298086400911  -31.653967454724619 -9.1766705359695049 34.162265008331275  -32.929227532012959 0.077321216098564849 35.349474617909571  -31.637775247569213 8.7894824989583604 34.147802553346622  -28.000493665862013 17.466585777527129 30.787098226526439  -23.888390589487891 22.407474102333904 27.108421954742358  -21.106841307974058 24.713382002469842 24.713382002469835 
 0 4 12.400741976313693 1 21.960888954387585 1 31.584408768003904 1 39.850944755056112 1 48.090082592859304 1 61.259825498037799 4
3 0 0 -8.6736173798840512e-016 -0 -0.70710678118654757 -0.70710678118654757 0 -0.70710678118654757 0.70710678118654757 -1 0 0 45.961940777125584 32.5
2 0 0 95.450000000000003 0 0 -1 -1 0 -0 0 1 0 32.5
7 0 0  3 9 7  -20.528151402403484 -24.221013603893628 -25.196130655320871  -23.179629957033491 -26.487795644329484 -23.099238726220758  -27.510752752429834 -30.335298086400908 -18.232330740603881  -31.653967454724611 -34.162265008331268 -9.1766705359695102  -32.929227532012966 -35.349474617909571 0.077321216098549889  -31.637775247569216 -34.147802553346637 8.7894824989583569  -28.000493665862013 -30.787098226526439 17.466585777527118  -23.888390589487898 -27.108421954742369 22.407474102333897  -21.106841307974058 -24.713382002469842 24.713382002469835 
 0 4 12.400741976313684 1 21.96088895438757 1 31.584408768003886 1 39.850944755056091 1 48.090082592859289 1 61.259825498037785 4
3 0 0 -8.6736173798840512e-016 0 -0.70710678118654757 0.70710678118654757 0 0.70710678118654757 0.70710678118654757 -1 0 0 45.961940777125584 32.5
2 0 -95.25 -1.7347234759768102e-015 -6.12303176911189e-017 -1 0 1 -6.12303176911189e-017 0 0 0 1 32.5
7 0 0  3 9 7  -21.106841307974062 24.713382002469835 -24.713382002469842  -23.662817714067046 22.596720968611365 -26.913541347412568  -27.835793967046133 17.706259819103053 -30.633221607952205  -31.785972135004208 8.6831837673995533 -34.285027109514374  -32.917522977255075 -0.51400140271434414 -35.338556845640319  -31.531738441924734 -9.1552316311184718 -34.049306533015617  -27.859784636436355 -17.651738967125727 -30.659010755186625  -23.804284922349428 -22.470118923598843 -27.035014636031345  -21.106841307974062 -24.713382002469839 -24.713382002469832 
 0 4 12.120198743642137 1 21.576022107722132 1 31.091835439435879 1 39.316997955623691 1 47.591526519624139 1 60.370572859012711 4
2 0 0 -95.450000000000003 0 0 -1 -1 0 -0 0 1 0 32.5
Polygon3D 0
PolygonOnTriangulations 0
Surfaces 5
2 95.25 0 0 1 0 0 0 0 -1 -0 1 0 34.950000000000003
2 0 95.25 -1.7347234759768102e-015 0 1 0 0 0 -1 -1 0 0 32.5
2 0 0 95.25 0 0 1 0 1 0 -1 0 0 32.5
2 0 95.25 -1.7347234759768102e-015 0 1 0 0 0 -1 -1 0 0 32.5
2 0 0 95.25 0 0 1 0 1 0 -1 0 0 32.5
Triangulations 0

TShapes 46
Ve
0.025504984862341394
21.106841307974058 24.713382002469835 -24.713382002469839
0 0

0101101
*
Ve
0.027242814427635029
21.106841307974058 24.713382002469839 24.713382002469835
0 0

0101101
*
Ed
 0.025504984862341394 1 1 0
1  1 0 0.91194807419333479 61.271393731497042
2  1 1 0 0.91194807419333479 61.271393731497042
0

0101000
+46 0 -45 0 *
Ve
0.027242814427635029
21.106841307974047 -24.713382002469842 24.713382002469839
0 0

0101101
*
Ed
 0.027242814427635029 1 1 0
1  2 0 0 60.34837122617499
2  2 1 0 0 60.34837122617499
0

0101000
+45 0 -43 0 *
Ve
0.027242814427635029
21.106841307974054 -24.713382002469839 -24.713382002469835
0 0

0101101
*
Ed
 0.027242814427635029 1 1 0
1  3 0 0 60.348371226174983
2  3 1 0 0 60.348371226174983
0

0101000
+43 0 -41 0 *
Ed
 0.024146725266190352 1 1 0
1  4 0 0 60.370572859012711
2  4 1 0 0 60.370572859012711
0

0101000
+41 0 -46 0 *
Wi

0101000
+44 0 +42 0 +40 0 +39 0 *
Ve
9.9999999999999995e-008
95.475000000000009 0 34.950000000000003
0 0

0101101
*
Ed
 9.9999999999999995e-008 1 1 0
1  5 0 0 6.2831853071795862
2  5 1 0 0 6.2831853071795862
0

0101100
+37 0 -37 0 *
Wi

0101000
+36 0 *
Fa
0  9.9999999999999995e-008 1 0

0101000
+38 0 +35 0 *
Ve
9.9999999999999995e-008
-21.106841307974054 24.713382002469842 24.713382002469835
0 0

0101101
*
Ve
9.9999999999999995e-008
-21.106841307974062 24.713382002469835 -24.713382002469842
0 0

0101101
*
Ed
 9.9999999999999995e-008 1 1 0
1  6 0 0.9119480741933419 61.271393731497049
0

0101000
+33 0 -32 0 *
Ed
 9.9999999999999995e-008 1 1 0
1  7 0 5.5763358728475962 6.9900347415115762
0

0101000
+33 0 -45 0 *
Ed
 9.9999999999999995e-008 1 1 0
1  8 0 2.4347432192578036 3.8484420879217827
0

0101000
+46 0 -32 0 *
Wi

0101000
-31 0 +30 0 -44 0 +29 0 *
Ve
9.9999999999999995e-008
32.5 95.25 -1.7347234759768102e-015
0 0

0101101
*
Ed
 9.9999999999999995e-008 1 1 0
1  9 0 0 6.2831853071795862
0

0101100
+27 0 -27 0 *
Wi

0101000
+26 0 *
Fa
0  9.9999999999999995e-008 2 0

0101000
+28 0 +25 0 *
Ve
9.9999999999999995e-008
-21.106841307974054 -24.713382002469835 24.713382002469832
0 0

0101101
*
Ed
 9.9999999999999995e-008 1 1 0
1  10 0 0.91194860657098753 61.259825498037799
0

0101000
+23 0 -33 0 *
Ed
 9.9999999999999995e-008 1 1 0
1  11 0 5.5763358728475962 6.9900347415115762
0

0101000
+43 0 -23 0 *
Wi

0101000
-22 0 -21 0 -42 0 -30 0 *
Ve
9.9999999999999995e-008
-32.5 0 95.450000000000003
0 0

0101101
*
Ed
 9.9999999999999995e-008 1 1 0
1  12 0 0 6.2831853071795862
0

0101100
+19 0 -19 0 *
Wi

0101000
+18 0 *
Fa
0  9.9999999999999995e-008 3 0

0101000
+20 0 +17 0 *
Ve
9.9999999999999995e-008
-21.106841307974058 -24.713382002469835 -24.713382002469839
0 0

0101101
*
Ed
 9.9999999999999995e-008 1 1 0
1  13 0 0.91194860657097898 61.259825498037785
0

0101000
+15 0 -23 0 *
Ed
 9.9999999999999995e-008 1 1 0
1  14 0 2.4347432192578036 3.8484420879217827
0

0101000
+15 0 -41 0 *
Wi

0101000
-40 0 +21 0 -14 0 +13 0 *
Ve
9.9999999999999995e-008
32.5 -95.25 -1.7347234759768102e-015
0 0

0101101
*
Ed
 9.9999999999999995e-008 1 1 0
1  15 0 0 6.2831853071795862
0

0101100
+11 0 -11 0 *
Wi

0101000
-10 0 *
Fa
0  9.9999999999999995e-008 4 0

0101000
+12 0 +9 0 *
Ed
 9.9999999999999995e-008 1 1 0
1  16 0 0 60.370572859012711
0

0101000
+32 0 -15 0 *
Wi

0101000
-39 0 -13 0 -7 0 -29 0 *
Ve
9.9999999999999995e-008
-32.5 0 -95.450000000000003
0 0

0101101
*
Ed
 9.9999999999999995e-008 1 1 0
1  17 0 0 6.2831853071795862
0

0101100
+5 0 -5 0 *
Wi

0101000
-4 0 *
Fa
0  9.9999999999999995e-008 5 0

0101000
+6 0 +3 0 *
Sh

1101000
+34 0 +24 0 +16 0 +8 0 +2 0 *

+1 0 
0

