DBRep_DrawableShape

CASCADE Topology V1, (c) Matra-Datavision
Locations 0
Curve2ds 42
1 0 0 -0.52542378886209995 -0.85084066786784207 
8 0 202.99808964504922
1 101.49904482252461 6 -1 -0 
1 -106.66002539306996 -172.71903016948974 -0.99281039471269916 -0.11969761965224984 
8 0 168.51016315461894
1 -168.51016315461894 0 1 -0 
1 -273.95866698770851 -192.88929558630988 -0.71259052370332532 0.70158017754795554 
8 0 218.34666087078386
1 109.17333043539193 -5.9999999999999858 -1 -0 
1 -429.55042840649276 -39.701606485582133 0.10422454585230578 0.99455379142703015 
8 0 168.51016315461916
1 84.255081577309596 6 -1 -0 
1 -411.98753318020459 127.8908151738318 0.84255640658786646 0.53860811516142426 
8 0 218.34666087078384
1 -109.17333043539189 -5.9999999999999858 1 3.9093893857709499e-030 
1 -228.01815520645746 245.4940986372354 0.94642610814424399 -0.32292045742402231 
8 0 168.51016315461979
1 -84.25508157730988 -6 1 -0 
1 -68.535737309279085 191.07871967074894 0.33761764669370514 -0.94128333919229901 
8 0 202.99808964504857
1 101.4990448225243 6.0000000000000142 -1 6.9289857896976741e-033 
1 -84.25508157730988 -6 -0 1 
8 0 12
1 109.17333043539193 -5.9999999999999858 -3.1554436208840472e-030 1 
1 0 0 0.94642610814424399 0.32292045742402231 
8 0 168.51016315461979
1 84.255081577309909 6 -1 -0 
1 84.255081577309909 6 0 -1 
8 0 12
1 101.49904482252427 -5.9999999999999858 -0 1 
1 159.48241789717838 54.415378966486458 0.84255640658786646 -0.53860811516142426 
8 0 218.34666087078384
1 109.17333043539192 6.0000000000000142 -1 -3.9093893857709499e-030 
1 343.45179587092548 -63.187904496917142 0.10422454585230578 -0.99455379142703015 
8 0 168.51016315461916
1 -84.255081577309596 -6 1 -0 
1 361.01469109721364 -230.78032615633106 -0.71259052370332532 -0.70158017754795554 
8 0 218.34666087078386
1 -109.17333043539193 6.0000000000000142 1 -0 
1 205.42292967842943 -383.96801525705882 -0.99281039471269916 0.11969761965224984 
8 0 168.51016315461894
1 0 12 -1 -0 
1 38.124288083790873 -363.79774984023868 -0.52542378886209995 0.85084066786784207 
8 0 202.99808964504922
1 -101.49904482252462 -6 1 -0 
1 -68.535737309279085 -191.07871967074894 0.33761764669370514 0.94128333919229901 
8 0 202.99808964504857
1 -101.49904482252428 -5.9999999999999858 1 -6.9289857896976741e-033 
1 -109.17333043539192 -5.9999999999999858 -3.1554436208840472e-030 1 
8 0 12
1 -84.255081577309568 6 -0 -1 
1 84.255081577309568 6 0 -1 
8 0 12
1 -109.17333043539195 -5.9999999999999858 -0 1 
1 109.17333043539193 -5.9999999999999858 0 1 
8 0 12
1 0 0 -0 1 
1 -168.51016315461894 0 0 1 
8 0 12
1 -101.49904482252461 6 -0 -1 
1 101.4990448225246 6 0 -1 
8 0 12
1 -101.49904482252428 6.0000000000000142 -0 -1 
Curves 21
1 -215.06629907697467 -22.537933636823681 108 0.52542378886209984 -0.85084066786784196 0 
1 -108.40627368390471 -195.25696380631342 108 0.99281039471269916 -0.11969761965224984 0 
1 58.892367910733839 -215.42722922313357 108 0.71259052370332521 0.70158017754795543 0 
1 214.48412932951805 -62.239540122405813 108 -0.10422454585230578 0.99455379142703015 0 
1 196.92123410322992 105.35288153700812 108 -0.84255640658786646 0.53860811516142426 0 
1 12.951856129482792 222.95616500041172 108 -0.94642610814424399 -0.32292045742402231 0 
1 -146.53056176769559 168.54078603392526 108 -0.33761764669370509 -0.9412833391922989 0 
1 12.951856129482792 222.95616500041172 108 0 0 -1 
1 -146.53056176769559 168.54078603392526 96 0.94642610814424399 0.32292045742402231 0 
1 -146.53056176769559 168.54078603392526 96 0 0 1 
1 12.951856129482792 222.95616500041172 96 0.84255640658786646 -0.53860811516142426 0 
1 196.92123410322992 105.35288153700812 96 0.10422454585230578 -0.99455379142703015 0 
1 214.48412932951805 -62.239540122405813 96 -0.71259052370332521 -0.70158017754795543 0 
1 58.892367910733839 -215.42722922313357 96 -0.99281039471269916 0.11969761965224984 0 
1 -108.40627368390471 -195.25696380631342 96 -0.52542378886209984 0.85084066786784196 0 
1 -215.06629907697467 -22.537933636823681 96 0.33761764669370509 0.9412833391922989 0 
1 196.92123410322992 105.35288153700812 108 0 0 -1 
1 214.48412932951805 -62.239540122405813 108 0 0 -1 
1 58.892367910733839 -215.42722922313357 108 0 0 -1 
1 -108.40627368390471 -195.25696380631342 108 0 0 -1 
1 -215.06629907697467 -22.537933636823681 108 0 0 -1 
Polygon3D 0
PolygonOnTriangulations 0
Surfaces 9
1 -215.06629907697467 -22.537933636823681 108 0 0 -1 -1 0 -0 0 1 0 
1 -161.73628638043968 -108.89744872156854 102 0.85084066786784207 0.52542378886209984 0 -0.52542378886209984 0.85084066786784207 0 0 -0 1 
1 58.892367910733839 -215.42722922313357 108 0.11969761965224983 0.99281039471269905 0 0.99281039471269905 -0.11969761965224983 0 0 0 -1 
1 136.68824862012593 -138.83338467276968 102.00000000000001 0.70158017754795543 -0.71259052370332521 5.5686486913138938e-014 -0.71259052370332532 -0.70158017754795554 0 3.9068535375541919e-014 -3.968166287263205e-014 -1 
1 205.70268171637397 21.556670707301148 102 -0.99455379142703015 -0.10422454585230577 0 0.10422454585230577 -0.99455379142703015 0 0 0 1 
1 104.93654511635636 164.15452326870991 102.00000000000001 -0.53860811516142426 -0.84255640658786624 2.1001794446806438e-014 -0.84255640658786635 0.53860811516142437 1.577721810442024e-030 -1.1311736922002086e-014 -1.7695196460998237e-014 -1 
1 -66.789352819106384 195.74847551716849 102 0.32292045742402237 -0.94642610814424388 0 -0.94642610814424399 -0.32292045742402242 0 0 -0 -1 
1 -180.79843042233517 73.001426198550803 101.99999999999999 0.94128333919229901 -0.33761764669370514 -1.0129999309822767e-015 0.33761764669370514 0.94128333919229901 0 9.5351995763656579e-016 -3.4200665279912198e-016 1 
1 -146.53056176769559 168.54078603392526 96 -0 0 1 1 0 0 0 1 -0 
Triangulations 0

TShapes 55
Ve
3e-007
-215.066299076975 -22.5379336368237 108
0 0

0101101
*
Ve
3e-007
-108.406273683905 -195.256963806313 108
0 0

0101101
*
Ed
 1e-007 1 1 0
1  1 0 0 202.998089645049
2  1 1 0 0 202.998089645049
2  2 2 0 0 202.998089645049
0

0101000
+55 0 -54 0 *
Ve
3e-007
58.8923679107338 -215.427229223134 108
0 0

0101101
*
Ed
 1e-007 1 1 0
1  2 0 0 168.510163154619
2  3 1 0 0 168.510163154619
2  4 3 0 0 168.510163154619
0

0101000
+54 0 -52 0 *
Ve
3e-007
214.484129329518 -62.2395401224058 108
0 0

0101101
*
Ed
 1e-007 1 1 0
1  3 0 0 218.346660870784
2  5 1 0 0 218.346660870784
2  6 4 0 0 218.346660870784
0

0101000
+52 0 -50 0 *
Ve
3e-007
196.92123410323 105.352881537008 108
0 0

0101101
*
Ed
 1e-007 1 1 0
1  4 0 0 168.510163154619
2  7 1 0 0 168.510163154619
2  8 5 0 0 168.510163154619
0

0101000
+50 0 -48 0 *
Ve
3e-007
12.9518561294828 222.956165000412 108
0 0

0101101
*
Ed
 1e-007 1 1 0
1  5 0 0 218.346660870784
2  9 1 0 0 218.346660870784
2  10 6 0 0 218.346660870784
0

0101000
+48 0 -46 0 *
Ve
3e-007
-146.530561767696 168.540786033925 108
0 0

0101101
*
Ed
 1e-007 1 1 0
1  6 0 0 168.51016315462
2  11 1 0 0 168.51016315462
2  12 7 0 0 168.51016315462
0

0101000
+46 0 -44 0 *
Ed
 1e-007 1 1 0
1  7 0 0 202.998089645049
2  13 1 0 0 202.998089645049
2  14 8 0 0 202.998089645049
0

0101000
+44 0 -55 0 *
Wi

0101000
+53 0 +51 0 +49 0 +47 0 +45 0 +43 0 +42 0 *
Fa
0  1e-007 1 0

0111000
-41 0 *
Ve
3e-007
12.9518561294828 222.956165000412 96
0 0

0101101
*
Ed
 1e-007 1 1 0
1  8 0 0 12
2  15 7 0 0 12
2  16 6 0 0 12
0

0101000
+46 0 -39 0 *
Ve
3e-007
-146.530561767696 168.540786033925 96
0 0

0101101
*
Ed
 1e-007 1 1 0
1  9 0 0 168.51016315462
2  17 9 0 0 168.51016315462
2  18 7 0 0 168.51016315462
0

0101000
+37 0 -39 0 *
Ed
 1e-007 1 1 0
1  10 0 0 12
2  19 7 0 0 12
2  20 8 0 0 12
0

0101000
+37 0 -44 0 *
Wi

0101000
-43 0 +38 0 -36 0 +35 0 *
Fa
0  1e-007 7 0

0101000
-34 0 *
Ve
3e-007
196.92123410323 105.352881537008 96
0 0

0101101
*
Ed
 1e-007 1 1 0
1  11 0 0 218.346660870784
2  21 9 0 0 218.346660870784
2  22 6 0 0 218.346660870784
0

0101000
+39 0 -32 0 *
Ve
3e-007
214.484129329518 -62.2395401224058 96
0 0

0101101
*
Ed
 1e-007 1 1 0
1  12 0 0 168.510163154619
2  23 9 0 0 168.510163154619
2  24 5 0 0 168.510163154619
0

0101000
+32 0 -30 0 *
Ve
3e-007
58.8923679107338 -215.427229223134 96
0 0

0101101
*
Ed
 1e-007 1 1 0
1  13 0 0 218.346660870784
2  25 9 0 0 218.346660870784
2  26 4 0 0 218.346660870784
0

0101000
+30 0 -28 0 *
Ve
3e-007
-108.406273683905 -195.256963806313 96
0 0

0101101
*
Ed
 1e-007 1 1 0
1  14 0 0 168.510163154619
2  27 9 0 0 168.510163154619
2  28 3 0 0 168.510163154619
0

0101000
+28 0 -26 0 *
Ve
3e-007
-215.066299076975 -22.5379336368237 96
0 0

0101101
*
Ed
 1e-007 1 1 0
1  15 0 0 202.998089645049
2  29 9 0 0 202.998089645049
2  30 2 0 0 202.998089645049
0

0101000
+26 0 -24 0 *
Ed
 1e-007 1 1 0
1  16 0 0 202.998089645049
2  31 9 0 0 202.998089645049
2  32 8 0 0 202.998089645049
0

0101000
+24 0 -37 0 *
Wi

0101000
+36 0 +31 0 +29 0 +27 0 +25 0 +23 0 +22 0 *
Fa
0  1e-007 9 0

0111000
-21 0 *
Ed
 1e-007 1 1 0
1  17 0 0 12
2  33 6 0 0 12
2  34 5 0 0 12
0

0101000
+48 0 -32 0 *
Wi

0101000
-45 0 +19 0 -31 0 -38 0 *
Fa
0  1e-007 6 0

0101000
-18 0 *
Ed
 1e-007 1 1 0
1  18 0 0 12
2  35 5 0 0 12
2  36 4 0 0 12
0

0101000
+50 0 -30 0 *
Wi

0101000
-47 0 +16 0 -29 0 -19 0 *
Fa
0  1e-007 5 0

0111000
-15 0 *
Ed
 1e-007 1 1 0
1  19 0 0 12
2  37 4 0 0 12
2  38 3 0 0 12
0

0101000
+52 0 -28 0 *
Wi

0101000
-49 0 +13 0 -27 0 -16 0 *
Fa
0  1e-007 4 0

0101000
+12 0 *
Ed
 1e-007 1 1 0
1  20 0 0 12
2  39 3 0 0 12
2  40 2 0 0 12
0

0101000
+54 0 -26 0 *
Wi

0101000
-51 0 +10 0 -25 0 -13 0 *
Fa
0  1e-007 3 0

0101000
-9 0 *
Ed
 1e-007 1 1 0
1  21 0 0 12
2  41 2 0 0 12
2  42 8 0 0 12
0

0101000
+55 0 -24 0 *
Wi

0101000
-53 0 +7 0 -23 0 -10 0 *
Fa
0  1e-007 2 0

0111000
-6 0 *
Wi

0101000
-42 0 -35 0 -22 0 -7 0 *
Fa
0  1e-007 8 0

0111000
-4 0 *
Sh

0101100
+40 0 +33 0 +20 0 +17 0 +14 0 -11 0 +8 0 +5 0 +3 0 *
So

1100000
+2 0 *

-1 0 