DBRep_DrawableShape

CASCADE Topology V3, (c) Open Cascade
Locations 0
Curve2ds 28
7 0 0  1 2 2  0.97539963882104475 1  1.0000000000000011 1 
 0 2 3.5 2
7 0 0  1 2 2  -3.5056321994603179e-15 1.0000000000000002  0.024600361178958419 1.0000000000000002 
 0 2 3.5 2
7 0 0  3 25 23  0.024600361178972199 1  0.025436413017288367 1  0.027084037940624188 1.0000000000000002  0.029490414265133144 0.99999999999999978  0.031840378993248313 1  0.034141621662599167 1  0.036401347571047557 1  0.038626276207367957 1  0.040822752292492048 1  0.042996814526023844 1  0.045154266185322228 1  0.047300737995755328 1  0.049441747807593646 1.0000000000000002  0.051582757619242678 1  0.053729229429844989 0.99999999999999989  0.055886681088964899 1  0.058060743322568942 1.0000000000000002  0.060257219407697363 0.99999999999999978  0.062482148044060944 1.0000000000000002  0.06474187395245791 1  0.067043116621823592 1.0000000000000002  0.069393081349857472 0.99999999999999978  0.071799457674495817 1.0000000000000002  0.073447082597807328 1  0.0742831344360535 1 
 0 4 0.071399833036131663 1 0.14279966607226333 1 0.21419949910839498 1 0.28559933214452665 1 0.35699916518065833 1 0.42839899821678995 1 0.49979883125292163 1 0.5711986642890533 1 0.64259849732518493 1 0.71399833036131666 1 0.78539816339744828 1 0.8567979964335799 1 0.92819782946971163 1 0.99959766250584325 1 1.070997495541975 1 1.1423973285781066 1 1.2137971616142382 1 1.2851969946503699 1 1.3565968276865017 1 1.4279966607226333 1 1.4993964937587649 1 1.5707963267948966 4
7 0 0  1 2 2  0.074283134436049877 0.99999999999999956  0.27460036117896719 1.0000000000000004 
 0 2 28.5 2
7 0 0  3 25 23  0.27460036117897202 1  0.27627246485545986 1  0.27956771470208525 0.99999999999999978  0.28438046735138878 1.0000000000000004  0.28908039680741837 0.99999999999999967  0.29368288214622618 1  0.29820233396295631 1  0.30265219123574311 1  0.30704514340595002 0.99999999999999989  0.31139326787325561 1  0.31570817119145284 1  0.32000111481269017 0.99999999999999978  0.3242831344361351 0.99999999999999978  0.32856515405969411 0.99999999999999989  0.33285809768069946 1  0.33717300099915914 1.0000000000000002  0.34152112546625718 0.99999999999999967  0.34591407763652005 1.0000000000000002  0.35036393490934326 0.99999999999999989  0.35488338672601905 1.0000000000000002  0.35948587206489091 1  0.36418580152074709 0.99999999999999989  0.36899855417014638 1  0.37229380401672557 1  0.37396590769313498 1 
 1.5707963267948966 4 1.6421961598310282 1 1.7135959928671598 1 1.7849958259032914 1 1.8563956589394233 1 1.9277954919755549 1 1.9991953250116865 1 2.0705951580478184 1 2.14199499108395 1 2.2133948241200816 1 2.2847946571562132 1 2.3561944901923448 1 2.4275943232284765 1 2.4989941562646081 1 2.5703939893007397 1 2.6417938223368713 1 2.7131936553730034 1 2.7845934884091346 1 2.8559933214452666 1 2.9273931544813983 1 2.9987929875175299 1 3.0701928205536615 1 3.1415926535897931 4
7 0 0  1 2 2  0.37396590769312221 0.99999999999999978  0.92571686556395028 1.0000000000000002 
 0 2 78.5 2
7 0 0  3 25 23  0.92571686556396504 1  0.92655291740222201 1  0.92820054232554239 1.0000000000000002  0.93060691865018164 0.99999999999999978  0.93295688337815408 1  0.93525812604762359 1  0.93751785195602921 1  0.93974278059235383 1  0.9419392566775161 1  0.94411331891110362 1  0.94627077057021514 1  0.94841724238079961 1  0.95055825219261891 1.0000000000000002  0.95269926200428523 1  0.95484573381483617 0.99999999999999989  0.95700318547395657 1  0.95917724770759738 1.0000000000000002  0.96137372379268149 0.99999999999999978  0.96359865242906784 1.0000000000000002  0.96585837833740773 1  0.96815962100683706 1.0000000000000002  0.97050958573483304 0.99999999999999978  0.97291596205949848 1.0000000000000002  0.97456358698280865 1  0.97539963882104597 1 
 0 4 0.071399833036131663 1 0.14279966607226333 1 0.21419949910839498 1 0.28559933214452665 1 0.35699916518065833 1 0.42839899821678995 1 0.49979883125292163 1 0.5711986642890533 1 0.64259849732518493 1 0.71399833036131666 1 0.78539816339744828 1 0.8567979964335799 1 0.92819782946971163 1 0.99959766250584325 1 1.070997495541975 1 1.1423973285781066 1 1.2137971616142382 1 1.2851969946503699 1 1.3565968276865017 1 1.4279966607226333 1 1.4993964937587649 1 1.5707963267948966 4
7 0 0  1 2 2  1.0000000000000011 -1.1089310845903718e-16  0.97539963882104552 -1.1089310845903698e-16 
 -3.5 2 0 2
7 0 0  3 25 23  0.97539963882104597 0  0.97456358698280343 0  0.97291596205949704 0  0.97050958573486035 0  0.9681596210068012 0  0.96585837833742894 0  0.96359865242907305 0  0.96137372379270136 0  0.95917724770758461 0  0.95700318547398799 0  0.95484573381480198 0  0.95269926200431188 0  0.95055825219260359 0  0.94841724238078229 0  0.94627077057027631 0  0.94411331891116501 0  0.94193925667739686 0  0.93974278059241823 0  0.93751785195595083 0  0.9352581260476891 0  0.93295688337823612 0  0.93060691865023093 0  0.92820054232550553 0  0.92655291740218848 -0  0.92571686556396504 0 
 4.7123889803846897 4 4.7837888134208217 1 4.8551886464569529 1 4.926588479493085 1 4.9979883125292162 1 5.0693881455653482 1 5.1407879786014794 1 5.2121878116376115 1 5.2835876446737426 1 5.3549874777098747 1 5.4263873107460068 1 5.497787143782138 1 5.5691869768182691 1 5.6405868098544012 1 5.7119866428905333 1 5.7833864759266644 1 5.8547863089627965 1 5.9261861419989277 1 5.9975859750350597 1 6.0689858080711918 1 6.140385641107323 1 6.2117854741434542 1 6.2831853071795862 4
7 0 0  1 2 2  0.92571686556400656 -1.0936800415848352e-16  0.37396590769306787 -6.4119627481451043e-16 
 -78.5 2 0 2
7 0 0  3 25 23  0.37396590769313498 0  0.37229380401662865 0  0.3689985541700303 0  0.36418580152086089 0  0.35948587206481025 0  0.35488338672609993 0  0.35036393490920126 0  0.34591407763661253 0  0.34152112546633367 0  0.33717300099920083 0  0.33285809768073588 0  0.32856515405964665 0  0.32428313443616713 0  0.32000111481265475 0  0.31570817119149558 0  0.31139326787324884 0  0.30704514340597705 0  0.30265219123575066 0  0.29820233396298096 0  0.29368288214623534 0  0.28908039680742614 0  0.28438046735138578 0  0.27956771470208291 0  0.27627246485545892 -0  0.27460036117897202 0 
 3.1415926535897931 4 3.2129924866259247 1 3.2843923196620564 1 3.355792152698188 1 3.4271919857343196 1 3.4985918187704517 1 3.5699916518065828 1 3.6413914848427149 1 3.7127913178788465 1 3.7841911509149782 1 3.8555909839511098 1 3.9269908169872414 1 3.998390650023373 1 4.0697904830595046 1 4.1411903160956367 1 4.2125901491317679 1 4.2839899821678999 1 4.3553898152040311 1 4.4267896482401632 1 4.4981894812762953 1 4.5695893143124264 1 4.6409891473485576 1 4.7123889803846897 4
7 0 0  1 2 2  0.27460036117896408 4.2031513852889095e-16  0.074283134436050252 -1.107169257974532e-16 
 -28.5 2 0 2
7 0 0  3 25 23  0.0742831344360535 0  0.07344708259781059 0  0.07179945767449962 0  0.069393081349848826 0  0.067043116621844964 0  0.064741873952428766 0  0.062482148044054026 0  0.060257219407709846 0  0.058060743322602866 0  0.055886681089018592 0  0.053729229429799491 0  0.051582757619310096 0  0.049441747807615649 0  0.047300737995775659 0  0.045154266185243458 0  0.042996814526019229 0  0.040822752292600004 0  0.03862627620735759 0  0.03640134757102783 0  0.034141621662673309 0  0.031840378993171443 0  0.029490414265413208 0  0.027084037940378856 0  0.025436413017072272 -0  0.024600361178972199 0 
 4.7123889803846897 4 4.7837888134208217 1 4.8551886464569529 1 4.926588479493085 1 4.9979883125292162 1 5.0693881455653482 1 5.1407879786014794 1 5.2121878116376115 1 5.2835876446737426 1 5.3549874777098747 1 5.4263873107460068 1 5.497787143782138 1 5.5691869768182691 1 5.6405868098544012 1 5.7119866428905333 1 5.7833864759266644 1 5.8547863089627965 1 5.9261861419989277 1 5.9975859750350597 1 6.0689858080711918 1 6.140385641107323 1 6.2117854741434542 1 6.2831853071795862 4
7 0 0  1 2 2  0.024600361178956826 -1.1090032971811103e-16  -3.5056321994603179e-15 -1.1090032971811103e-16 
 -3.5 2 0 2
7 0 0  1 2 2  1.0000000000000011 -1.1089310845903718e-16  1.0000000000000011 1 
 -1715.0000004416906 2 1714.9999995583094 2
7 0 0  1 2 2  -3.5056321994603179e-15 -1.1090032971811103e-16  -3.5056321994603179e-15 1.0000000000000002 
 -1715.0000004416906 2 1714.9999995583094 2
7 0 0  1 2 2  0.024600361178956826 -1.1090032971811103e-16  0.024600361178958419 1.0000000000000002 
 -1715.0000004416906 2 1714.9999995583094 2
7 0 0  1 2 2  0.024600361178956826 -1.1090032971811103e-16  0.024600361178958419 1.0000000000000002 
 -1715.0000004416906 2 1714.9999995583094 2
7 0 0  1 2 2  0.074283134436050252 -1.107169257974532e-16  0.074283134436049877 0.99999999999999956 
 -1715.0000004416906 2 1714.9999995583094 2
7 0 0  1 2 2  0.074283134436050252 -1.107169257974532e-16  0.074283134436049877 0.99999999999999956 
 -1715.0000004416906 2 1714.9999995583094 2
7 0 0  1 2 2  0.27460036117896408 4.2031513852889095e-16  0.27460036117896719 1.0000000000000004 
 -1715.0000004416906 2 1714.9999995583094 2
7 0 0  1 2 2  0.27460036117896408 4.2031513852889095e-16  0.27460036117896719 1.0000000000000004 
 -1715.0000004416906 2 1714.9999995583094 2
7 0 0  1 2 2  0.37396590769306787 -6.4119627481451043e-16  0.37396590769312221 0.99999999999999978 
 -1715.0000004416906 2 1714.9999995583094 2
7 0 0  1 2 2  0.37396590769306787 -6.4119627481451043e-16  0.37396590769312221 0.99999999999999978 
 -1715.0000004416906 2 1714.9999995583094 2
7 0 0  1 2 2  0.92571686556400656 -1.0936800415848352e-16  0.92571686556395028 1.0000000000000002 
 -1715.0000004416906 2 1714.9999995583094 2
7 0 0  1 2 2  0.92571686556400656 -1.0936800415848352e-16  0.92571686556395028 1.0000000000000002 
 -1715.0000004416906 2 1714.9999995583094 2
7 0 0  1 2 2  0.97539963882104552 -1.1089310845903698e-16  0.97539963882104475 1 
 -1715.0000004416906 2 1714.9999995583094 2
7 0 0  1 2 2  0.97539963882104552 -1.1089310845903698e-16  0.97539963882104475 1 
 -1715.0000004416906 2 1714.9999995583094 2
Curves 27
1 61800 3956.5 8040 3.36807989759299e-14 1 0 
1 61800 3960 8040 1 -1.1714533423162799e-15 0 
1 61900 3960 8040 0 -1 0 
1 61900 3910 8040 -1 0 0 
2 61896.5 3914.5 8040 0 0 -1 0 -1 0 -1 -0 -0 4.5
1 61892 3914.5 8040 4.8693992308120904e-16 1 0 
2 61883 3943 8040 0 0 1 0 -1 0 1 0 -0 9
1 61883 3952 8040 -1 -1.3259032937402301e-16 0 
2 61804.5 3956.5 8040 0 0 -1 0 -1 0 -1 -0 -0 4.5
1 61800 3956.5 11470 -3.36807989759299e-14 -1 0 
2 61804.5 3956.5 11470 0 0 1 0 -1 0 1 0 -0 4.5
1 61883 3952 11470 1 1.3259032937402301e-16 0 
2 61883 3943 11470 0 0 -1 0 -1 0 -1 -0 -0 9
1 61892 3914.5 11470 -4.8693992308120904e-16 -1 0 
2 61896.5 3914.5 11470 0 0 1 0 -1 0 1 0 -0 4.5
1 61900 3910 11470 1 0 0 
1 61900 3960 11470 0 1 0 
1 61800 3960 11470 -1 1.1714533423162799e-15 0 
1 61900 3960 9754.9999995583094 0 0 -1 
1 61800 3960 9754.9999995583094 0 0 -1 
1 61900 3910 9754.9999995583094 0 0 -1 
1 61896.5 3910 9754.9999995583094 0 0 -1 
1 61892 3914.5 9754.9999995583094 0 0 -1 
1 61892 3943 9754.9999995583094 0 0 -1 
1 61883 3952 9754.9999995583094 0 0 -1 
1 61804.5 3952 9754.9999995583094 0 0 -1 
1 61800 3956.5 9754.9999995583094 0 0 -1 
Polygon3D 0
PolygonOnTriangulations 0
Surfaces 11
1 61896.5 3914.5 8040 0 0 1 1 0 -0 -0 1 0 
9 0 1 0 0 3 3 22 4 8 2 61900 3910 11470  1 61900 3910 10326.666663460401  1 61900 3910 9183.3333353617709  1 61900 3910 8040  1 
61898.833333333401 3910 11470  1 61898.833333333401 3910 10326.666663460401  1 61898.833333333401 3910 9183.3333353617709  1 61898.833333333401 3910 8040  1 
61897.666666666701 3910 11470  1 61897.666666666701 3910 10326.666663460401  1 61897.666666666701 3910 9183.3333353617709  1 61897.666666666701 3910 8040  1 
61896.5 3910 11470  1 61896.5 3910 10326.666663460401  1 61896.5 3910 9183.3333353617709  1 61896.5 3910 8040  1 
61893.8639610307 3910 11470  0.80473785412436505 61893.8639610307 3910 10326.666663460401  0.80473785412436505 61893.8639610307 3910 9183.3333353617709  0.80473785412436505 61893.8639610307 3910 8040  0.80473785412436505 
61892 3911.86396103068 11470  0.80473785412436505 61892 3911.86396103068 10326.666663460401  0.80473785412436505 61892 3911.86396103068 9183.3333353617709  0.80473785412436505 61892 3911.86396103068 8040  0.80473785412436505 
61892 3914.5 11470  1 61892 3914.5 10326.666663460401  1 61892 3914.5 9183.3333353617709  1 61892 3914.5 8040  1 
61892 3924 11470  1 61892 3924 10326.666663460401  1 61892 3924 9183.3333353617709  1 61892 3924 8040  1 
61892 3933.5 11470  1 61892 3933.5 10326.666663460401  1 61892 3933.5 9183.3333353617709  1 61892 3933.5 8040  1 
61892 3943 11470  1 61892 3943 10326.666663460401  1 61892 3943 9183.3333353617709  1 61892 3943 8040  1 
61892 3948.27207793864 11470  0.80473785412436505 61892 3948.27207793864 10326.666663460401  0.80473785412436505 61892 3948.27207793864 9183.3333353617709  0.80473785412436505 61892 3948.27207793864 8040  0.80473785412436505 
61888.272077938702 3952 11470  0.80473785412436505 61888.272077938702 3952 10326.666663460401  0.80473785412436505 61888.272077938702 3952 9183.3333353617709  0.80473785412436505 61888.272077938702 3952 8040  0.80473785412436505 
61883 3952 11470  1 61883 3952 10326.666663460401  1 61883 3952 9183.3333353617709  1 61883 3952 8040  1 
61856.833333333401 3952 11470  1 61856.833333333401 3952 10326.666663460401  1 61856.833333333401 3952 9183.3333353617709  1 61856.833333333401 3952 8040  1 
61830.666666666701 3952 11470  1 61830.666666666701 3952 10326.666663460401  1 61830.666666666701 3952 9183.3333353617709  1 61830.666666666701 3952 8040  1 
61804.5 3952 11470  1 61804.5 3952 10326.666663460401  1 61804.5 3952 9183.3333353617709  1 61804.5 3952 8040  1 
61801.8639610307 3952 11470  0.80473785412436505 61801.8639610307 3952 10326.666663460401  0.80473785412436505 61801.8639610307 3952 9183.3333353617709  0.80473785412436505 61801.8639610307 3952 8040  0.80473785412436505 
61800 3953.86396103068 11470  0.80473785412436505 61800 3953.86396103068 10326.666663460401  0.80473785412436505 61800 3953.86396103068 9183.3333353617709  0.80473785412436505 61800 3953.86396103068 8040  0.80473785412436505 
61800 3956.5 11470  1 61800 3956.5 10326.666663460401  1 61800 3956.5 9183.33333536176  1 61800 3956.5 8040  1 
61800 3957.6666666666702 11470  1 61800 3957.6666666666702 10326.666663460401  1 61800 3957.6666666666702 9183.33333536176  1 61800 3957.6666666666702 8040  1 
61800 3958.8333333333298 11470  1 61800 3958.8333333333298 10326.666663460401  1 61800 3958.8333333333298 9183.33333536176  1 61800 3958.8333333333298 8040  1 
61800 3960 11470  1 61800 3960 10326.666663460401  1 61800 3960 9183.33333536176  1 61800 3960 8040  1 

0 4
0.024600361178972199 3
0.0742831344360535 3
0.27460036117897202 3
0.37396590769313498 3
0.92571686556396504 3
0.97539963882104597 3
1 4

0 4
1 4

1 61800 3960 11470 0 1 0 1 0 0 0 0 -1 
1 61900 3960 11470 1 0 0 0 -1 0 0 0 -1 
9 0 1 0 0 3 3 22 4 8 2 61900 3910 11470  1 61900 3910 10326.666663460401  1 61900 3910 9183.3333353617709  1 61900 3910 8040  1 
61898.833333333401 3910 11470  1 61898.833333333401 3910 10326.666663460401  1 61898.833333333401 3910 9183.3333353617709  1 61898.833333333401 3910 8040  1 
61897.666666666701 3910 11470  1 61897.666666666701 3910 10326.666663460401  1 61897.666666666701 3910 9183.3333353617709  1 61897.666666666701 3910 8040  1 
61896.5 3910 11470  1 61896.5 3910 10326.666663460401  1 61896.5 3910 9183.3333353617709  1 61896.5 3910 8040  1 
61893.8639610307 3910 11470  0.80473785412436505 61893.8639610307 3910 10326.666663460401  0.80473785412436505 61893.8639610307 3910 9183.3333353617709  0.80473785412436505 61893.8639610307 3910 8040  0.80473785412436505 
61892 3911.86396103068 11470  0.80473785412436505 61892 3911.86396103068 10326.666663460401  0.80473785412436505 61892 3911.86396103068 9183.3333353617709  0.80473785412436505 61892 3911.86396103068 8040  0.80473785412436505 
61892 3914.5 11470  1 61892 3914.5 10326.666663460401  1 61892 3914.5 9183.3333353617709  1 61892 3914.5 8040  1 
61892 3924 11470  1 61892 3924 10326.666663460401  1 61892 3924 9183.3333353617709  1 61892 3924 8040  1 
61892 3933.5 11470  1 61892 3933.5 10326.666663460401  1 61892 3933.5 9183.3333353617709  1 61892 3933.5 8040  1 
61892 3943 11470  1 61892 3943 10326.666663460401  1 61892 3943 9183.3333353617709  1 61892 3943 8040  1 
61892 3948.27207793864 11470  0.80473785412436505 61892 3948.27207793864 10326.666663460401  0.80473785412436505 61892 3948.27207793864 9183.3333353617709  0.80473785412436505 61892 3948.27207793864 8040  0.80473785412436505 
61888.272077938702 3952 11470  0.80473785412436505 61888.272077938702 3952 10326.666663460401  0.80473785412436505 61888.272077938702 3952 9183.3333353617709  0.80473785412436505 61888.272077938702 3952 8040  0.80473785412436505 
61883 3952 11470  1 61883 3952 10326.666663460401  1 61883 3952 9183.3333353617709  1 61883 3952 8040  1 
61856.833333333401 3952 11470  1 61856.833333333401 3952 10326.666663460401  1 61856.833333333401 3952 9183.3333353617709  1 61856.833333333401 3952 8040  1 
61830.666666666701 3952 11470  1 61830.666666666701 3952 10326.666663460401  1 61830.666666666701 3952 9183.3333353617709  1 61830.666666666701 3952 8040  1 
61804.5 3952 11470  1 61804.5 3952 10326.666663460401  1 61804.5 3952 9183.3333353617709  1 61804.5 3952 8040  1 
61801.8639610307 3952 11470  0.80473785412436505 61801.8639610307 3952 10326.666663460401  0.80473785412436505 61801.8639610307 3952 9183.3333353617709  0.80473785412436505 61801.8639610307 3952 8040  0.80473785412436505 
61800 3953.86396103068 11470  0.80473785412436505 61800 3953.86396103068 10326.666663460401  0.80473785412436505 61800 3953.86396103068 9183.3333353617709  0.80473785412436505 61800 3953.86396103068 8040  0.80473785412436505 
61800 3956.5 11470  1 61800 3956.5 10326.666663460401  1 61800 3956.5 9183.33333536176  1 61800 3956.5 8040  1 
61800 3957.6666666666702 11470  1 61800 3957.6666666666702 10326.666663460401  1 61800 3957.6666666666702 9183.33333536176  1 61800 3957.6666666666702 8040  1 
61800 3958.8333333333298 11470  1 61800 3958.8333333333298 10326.666663460401  1 61800 3958.8333333333298 9183.33333536176  1 61800 3958.8333333333298 8040  1 
61800 3960 11470  1 61800 3960 10326.666663460401  1 61800 3960 9183.33333536176  1 61800 3960 8040  1 

0 4
0.024600361178972199 3
0.0742831344360535 3
0.27460036117897202 3
0.37396590769313498 3
0.92571686556396504 3
0.97539963882104597 3
1 4

0 4
1 4

9 0 1 0 0 3 3 22 4 8 2 61900 3910 11470  1 61900 3910 10326.666663460401  1 61900 3910 9183.3333353617709  1 61900 3910 8040  1 
61898.833333333401 3910 11470  1 61898.833333333401 3910 10326.666663460401  1 61898.833333333401 3910 9183.3333353617709  1 61898.833333333401 3910 8040  1 
61897.666666666701 3910 11470  1 61897.666666666701 3910 10326.666663460401  1 61897.666666666701 3910 9183.3333353617709  1 61897.666666666701 3910 8040  1 
61896.5 3910 11470  1 61896.5 3910 10326.666663460401  1 61896.5 3910 9183.3333353617709  1 61896.5 3910 8040  1 
61893.8639610307 3910 11470  0.80473785412436505 61893.8639610307 3910 10326.666663460401  0.80473785412436505 61893.8639610307 3910 9183.3333353617709  0.80473785412436505 61893.8639610307 3910 8040  0.80473785412436505 
61892 3911.86396103068 11470  0.80473785412436505 61892 3911.86396103068 10326.666663460401  0.80473785412436505 61892 3911.86396103068 9183.3333353617709  0.80473785412436505 61892 3911.86396103068 8040  0.80473785412436505 
61892 3914.5 11470  1 61892 3914.5 10326.666663460401  1 61892 3914.5 9183.3333353617709  1 61892 3914.5 8040  1 
61892 3924 11470  1 61892 3924 10326.666663460401  1 61892 3924 9183.3333353617709  1 61892 3924 8040  1 
61892 3933.5 11470  1 61892 3933.5 10326.666663460401  1 61892 3933.5 9183.3333353617709  1 61892 3933.5 8040  1 
61892 3943 11470  1 61892 3943 10326.666663460401  1 61892 3943 9183.3333353617709  1 61892 3943 8040  1 
61892 3948.27207793864 11470  0.80473785412436505 61892 3948.27207793864 10326.666663460401  0.80473785412436505 61892 3948.27207793864 9183.3333353617709  0.80473785412436505 61892 3948.27207793864 8040  0.80473785412436505 
61888.272077938702 3952 11470  0.80473785412436505 61888.272077938702 3952 10326.666663460401  0.80473785412436505 61888.272077938702 3952 9183.3333353617709  0.80473785412436505 61888.272077938702 3952 8040  0.80473785412436505 
61883 3952 11470  1 61883 3952 10326.666663460401  1 61883 3952 9183.3333353617709  1 61883 3952 8040  1 
61856.833333333401 3952 11470  1 61856.833333333401 3952 10326.666663460401  1 61856.833333333401 3952 9183.3333353617709  1 61856.833333333401 3952 8040  1 
61830.666666666701 3952 11470  1 61830.666666666701 3952 10326.666663460401  1 61830.666666666701 3952 9183.3333353617709  1 61830.666666666701 3952 8040  1 
61804.5 3952 11470  1 61804.5 3952 10326.666663460401  1 61804.5 3952 9183.3333353617709  1 61804.5 3952 8040  1 
61801.8639610307 3952 11470  0.80473785412436505 61801.8639610307 3952 10326.666663460401  0.80473785412436505 61801.8639610307 3952 9183.3333353617709  0.80473785412436505 61801.8639610307 3952 8040  0.80473785412436505 
61800 3953.86396103068 11470  0.80473785412436505 61800 3953.86396103068 10326.666663460401  0.80473785412436505 61800 3953.86396103068 9183.3333353617709  0.80473785412436505 61800 3953.86396103068 8040  0.80473785412436505 
61800 3956.5 11470  1 61800 3956.5 10326.666663460401  1 61800 3956.5 9183.33333536176  1 61800 3956.5 8040  1 
61800 3957.6666666666702 11470  1 61800 3957.6666666666702 10326.666663460401  1 61800 3957.6666666666702 9183.33333536176  1 61800 3957.6666666666702 8040  1 
61800 3958.8333333333298 11470  1 61800 3958.8333333333298 10326.666663460401  1 61800 3958.8333333333298 9183.33333536176  1 61800 3958.8333333333298 8040  1 
61800 3960 11470  1 61800 3960 10326.666663460401  1 61800 3960 9183.33333536176  1 61800 3960 8040  1 

0 4
0.024600361178972199 3
0.0742831344360535 3
0.27460036117897202 3
0.37396590769313498 3
0.92571686556396504 3
0.97539963882104597 3
1 4

0 4
1 4

9 0 1 0 0 3 3 22 4 8 2 61900 3910 11470  1 61900 3910 10326.666663460401  1 61900 3910 9183.3333353617709  1 61900 3910 8040  1 
61898.833333333401 3910 11470  1 61898.833333333401 3910 10326.666663460401  1 61898.833333333401 3910 9183.3333353617709  1 61898.833333333401 3910 8040  1 
61897.666666666701 3910 11470  1 61897.666666666701 3910 10326.666663460401  1 61897.666666666701 3910 9183.3333353617709  1 61897.666666666701 3910 8040  1 
61896.5 3910 11470  1 61896.5 3910 10326.666663460401  1 61896.5 3910 9183.3333353617709  1 61896.5 3910 8040  1 
61893.8639610307 3910 11470  0.80473785412436505 61893.8639610307 3910 10326.666663460401  0.80473785412436505 61893.8639610307 3910 9183.3333353617709  0.80473785412436505 61893.8639610307 3910 8040  0.80473785412436505 
61892 3911.86396103068 11470  0.80473785412436505 61892 3911.86396103068 10326.666663460401  0.80473785412436505 61892 3911.86396103068 9183.3333353617709  0.80473785412436505 61892 3911.86396103068 8040  0.80473785412436505 
61892 3914.5 11470  1 61892 3914.5 10326.666663460401  1 61892 3914.5 9183.3333353617709  1 61892 3914.5 8040  1 
61892 3924 11470  1 61892 3924 10326.666663460401  1 61892 3924 9183.3333353617709  1 61892 3924 8040  1 
61892 3933.5 11470  1 61892 3933.5 10326.666663460401  1 61892 3933.5 9183.3333353617709  1 61892 3933.5 8040  1 
61892 3943 11470  1 61892 3943 10326.666663460401  1 61892 3943 9183.3333353617709  1 61892 3943 8040  1 
61892 3948.27207793864 11470  0.80473785412436505 61892 3948.27207793864 10326.666663460401  0.80473785412436505 61892 3948.27207793864 9183.3333353617709  0.80473785412436505 61892 3948.27207793864 8040  0.80473785412436505 
61888.272077938702 3952 11470  0.80473785412436505 61888.272077938702 3952 10326.666663460401  0.80473785412436505 61888.272077938702 3952 9183.3333353617709  0.80473785412436505 61888.272077938702 3952 8040  0.80473785412436505 
61883 3952 11470  1 61883 3952 10326.666663460401  1 61883 3952 9183.3333353617709  1 61883 3952 8040  1 
61856.833333333401 3952 11470  1 61856.833333333401 3952 10326.666663460401  1 61856.833333333401 3952 9183.3333353617709  1 61856.833333333401 3952 8040  1 
61830.666666666701 3952 11470  1 61830.666666666701 3952 10326.666663460401  1 61830.666666666701 3952 9183.3333353617709  1 61830.666666666701 3952 8040  1 
61804.5 3952 11470  1 61804.5 3952 10326.666663460401  1 61804.5 3952 9183.3333353617709  1 61804.5 3952 8040  1 
61801.8639610307 3952 11470  0.80473785412436505 61801.8639610307 3952 10326.666663460401  0.80473785412436505 61801.8639610307 3952 9183.3333353617709  0.80473785412436505 61801.8639610307 3952 8040  0.80473785412436505 
61800 3953.86396103068 11470  0.80473785412436505 61800 3953.86396103068 10326.666663460401  0.80473785412436505 61800 3953.86396103068 9183.3333353617709  0.80473785412436505 61800 3953.86396103068 8040  0.80473785412436505 
61800 3956.5 11470  1 61800 3956.5 10326.666663460401  1 61800 3956.5 9183.33333536176  1 61800 3956.5 8040  1 
61800 3957.6666666666702 11470  1 61800 3957.6666666666702 10326.666663460401  1 61800 3957.6666666666702 9183.33333536176  1 61800 3957.6666666666702 8040  1 
61800 3958.8333333333298 11470  1 61800 3958.8333333333298 10326.666663460401  1 61800 3958.8333333333298 9183.33333536176  1 61800 3958.8333333333298 8040  1 
61800 3960 11470  1 61800 3960 10326.666663460401  1 61800 3960 9183.33333536176  1 61800 3960 8040  1 

0 4
0.024600361178972199 3
0.0742831344360535 3
0.27460036117897202 3
0.37396590769313498 3
0.92571686556396504 3
0.97539963882104597 3
1 4

0 4
1 4

9 0 1 0 0 3 3 22 4 8 2 61900 3910 11470  1 61900 3910 10326.666663460401  1 61900 3910 9183.3333353617709  1 61900 3910 8040  1 
61898.833333333401 3910 11470  1 61898.833333333401 3910 10326.666663460401  1 61898.833333333401 3910 9183.3333353617709  1 61898.833333333401 3910 8040  1 
61897.666666666701 3910 11470  1 61897.666666666701 3910 10326.666663460401  1 61897.666666666701 3910 9183.3333353617709  1 61897.666666666701 3910 8040  1 
61896.5 3910 11470  1 61896.5 3910 10326.666663460401  1 61896.5 3910 9183.3333353617709  1 61896.5 3910 8040  1 
61893.8639610307 3910 11470  0.80473785412436505 61893.8639610307 3910 10326.666663460401  0.80473785412436505 61893.8639610307 3910 9183.3333353617709  0.80473785412436505 61893.8639610307 3910 8040  0.80473785412436505 
61892 3911.86396103068 11470  0.80473785412436505 61892 3911.86396103068 10326.666663460401  0.80473785412436505 61892 3911.86396103068 9183.3333353617709  0.80473785412436505 61892 3911.86396103068 8040  0.80473785412436505 
61892 3914.5 11470  1 61892 3914.5 10326.666663460401  1 61892 3914.5 9183.3333353617709  1 61892 3914.5 8040  1 
61892 3924 11470  1 61892 3924 10326.666663460401  1 61892 3924 9183.3333353617709  1 61892 3924 8040  1 
61892 3933.5 11470  1 61892 3933.5 10326.666663460401  1 61892 3933.5 9183.3333353617709  1 61892 3933.5 8040  1 
61892 3943 11470  1 61892 3943 10326.666663460401  1 61892 3943 9183.3333353617709  1 61892 3943 8040  1 
61892 3948.27207793864 11470  0.80473785412436505 61892 3948.27207793864 10326.666663460401  0.80473785412436505 61892 3948.27207793864 9183.3333353617709  0.80473785412436505 61892 3948.27207793864 8040  0.80473785412436505 
61888.272077938702 3952 11470  0.80473785412436505 61888.272077938702 3952 10326.666663460401  0.80473785412436505 61888.272077938702 3952 9183.3333353617709  0.80473785412436505 61888.272077938702 3952 8040  0.80473785412436505 
61883 3952 11470  1 61883 3952 10326.666663460401  1 61883 3952 9183.3333353617709  1 61883 3952 8040  1 
61856.833333333401 3952 11470  1 61856.833333333401 3952 10326.666663460401  1 61856.833333333401 3952 9183.3333353617709  1 61856.833333333401 3952 8040  1 
61830.666666666701 3952 11470  1 61830.666666666701 3952 10326.666663460401  1 61830.666666666701 3952 9183.3333353617709  1 61830.666666666701 3952 8040  1 
61804.5 3952 11470  1 61804.5 3952 10326.666663460401  1 61804.5 3952 9183.3333353617709  1 61804.5 3952 8040  1 
61801.8639610307 3952 11470  0.80473785412436505 61801.8639610307 3952 10326.666663460401  0.80473785412436505 61801.8639610307 3952 9183.3333353617709  0.80473785412436505 61801.8639610307 3952 8040  0.80473785412436505 
61800 3953.86396103068 11470  0.80473785412436505 61800 3953.86396103068 10326.666663460401  0.80473785412436505 61800 3953.86396103068 9183.3333353617709  0.80473785412436505 61800 3953.86396103068 8040  0.80473785412436505 
61800 3956.5 11470  1 61800 3956.5 10326.666663460401  1 61800 3956.5 9183.33333536176  1 61800 3956.5 8040  1 
61800 3957.6666666666702 11470  1 61800 3957.6666666666702 10326.666663460401  1 61800 3957.6666666666702 9183.33333536176  1 61800 3957.6666666666702 8040  1 
61800 3958.8333333333298 11470  1 61800 3958.8333333333298 10326.666663460401  1 61800 3958.8333333333298 9183.33333536176  1 61800 3958.8333333333298 8040  1 
61800 3960 11470  1 61800 3960 10326.666663460401  1 61800 3960 9183.33333536176  1 61800 3960 8040  1 

0 4
0.024600361178972199 3
0.0742831344360535 3
0.27460036117897202 3
0.37396590769313498 3
0.92571686556396504 3
0.97539963882104597 3
1 4

0 4
1 4

9 0 1 0 0 3 3 22 4 8 2 61900 3910 11470  1 61900 3910 10326.666663460401  1 61900 3910 9183.3333353617709  1 61900 3910 8040  1 
61898.833333333401 3910 11470  1 61898.833333333401 3910 10326.666663460401  1 61898.833333333401 3910 9183.3333353617709  1 61898.833333333401 3910 8040  1 
61897.666666666701 3910 11470  1 61897.666666666701 3910 10326.666663460401  1 61897.666666666701 3910 9183.3333353617709  1 61897.666666666701 3910 8040  1 
61896.5 3910 11470  1 61896.5 3910 10326.666663460401  1 61896.5 3910 9183.3333353617709  1 61896.5 3910 8040  1 
61893.8639610307 3910 11470  0.80473785412436505 61893.8639610307 3910 10326.666663460401  0.80473785412436505 61893.8639610307 3910 9183.3333353617709  0.80473785412436505 61893.8639610307 3910 8040  0.80473785412436505 
61892 3911.86396103068 11470  0.80473785412436505 61892 3911.86396103068 10326.666663460401  0.80473785412436505 61892 3911.86396103068 9183.3333353617709  0.80473785412436505 61892 3911.86396103068 8040  0.80473785412436505 
61892 3914.5 11470  1 61892 3914.5 10326.666663460401  1 61892 3914.5 9183.3333353617709  1 61892 3914.5 8040  1 
61892 3924 11470  1 61892 3924 10326.666663460401  1 61892 3924 9183.3333353617709  1 61892 3924 8040  1 
61892 3933.5 11470  1 61892 3933.5 10326.666663460401  1 61892 3933.5 9183.3333353617709  1 61892 3933.5 8040  1 
61892 3943 11470  1 61892 3943 10326.666663460401  1 61892 3943 9183.3333353617709  1 61892 3943 8040  1 
61892 3948.27207793864 11470  0.80473785412436505 61892 3948.27207793864 10326.666663460401  0.80473785412436505 61892 3948.27207793864 9183.3333353617709  0.80473785412436505 61892 3948.27207793864 8040  0.80473785412436505 
61888.272077938702 3952 11470  0.80473785412436505 61888.272077938702 3952 10326.666663460401  0.80473785412436505 61888.272077938702 3952 9183.3333353617709  0.80473785412436505 61888.272077938702 3952 8040  0.80473785412436505 
61883 3952 11470  1 61883 3952 10326.666663460401  1 61883 3952 9183.3333353617709  1 61883 3952 8040  1 
61856.833333333401 3952 11470  1 61856.833333333401 3952 10326.666663460401  1 61856.833333333401 3952 9183.3333353617709  1 61856.833333333401 3952 8040  1 
61830.666666666701 3952 11470  1 61830.666666666701 3952 10326.666663460401  1 61830.666666666701 3952 9183.3333353617709  1 61830.666666666701 3952 8040  1 
61804.5 3952 11470  1 61804.5 3952 10326.666663460401  1 61804.5 3952 9183.3333353617709  1 61804.5 3952 8040  1 
61801.8639610307 3952 11470  0.80473785412436505 61801.8639610307 3952 10326.666663460401  0.80473785412436505 61801.8639610307 3952 9183.3333353617709  0.80473785412436505 61801.8639610307 3952 8040  0.80473785412436505 
61800 3953.86396103068 11470  0.80473785412436505 61800 3953.86396103068 10326.666663460401  0.80473785412436505 61800 3953.86396103068 9183.3333353617709  0.80473785412436505 61800 3953.86396103068 8040  0.80473785412436505 
61800 3956.5 11470  1 61800 3956.5 10326.666663460401  1 61800 3956.5 9183.33333536176  1 61800 3956.5 8040  1 
61800 3957.6666666666702 11470  1 61800 3957.6666666666702 10326.666663460401  1 61800 3957.6666666666702 9183.33333536176  1 61800 3957.6666666666702 8040  1 
61800 3958.8333333333298 11470  1 61800 3958.8333333333298 10326.666663460401  1 61800 3958.8333333333298 9183.33333536176  1 61800 3958.8333333333298 8040  1 
61800 3960 11470  1 61800 3960 10326.666663460401  1 61800 3960 9183.33333536176  1 61800 3960 8040  1 

0 4
0.024600361178972199 3
0.0742831344360535 3
0.27460036117897202 3
0.37396590769313498 3
0.92571686556396504 3
0.97539963882104597 3
1 4

0 4
1 4

9 0 1 0 0 3 3 22 4 8 2 61900 3910 11470  1 61900 3910 10326.666663460401  1 61900 3910 9183.3333353617709  1 61900 3910 8040  1 
61898.833333333401 3910 11470  1 61898.833333333401 3910 10326.666663460401  1 61898.833333333401 3910 9183.3333353617709  1 61898.833333333401 3910 8040  1 
61897.666666666701 3910 11470  1 61897.666666666701 3910 10326.666663460401  1 61897.666666666701 3910 9183.3333353617709  1 61897.666666666701 3910 8040  1 
61896.5 3910 11470  1 61896.5 3910 10326.666663460401  1 61896.5 3910 9183.3333353617709  1 61896.5 3910 8040  1 
61893.8639610307 3910 11470  0.80473785412436505 61893.8639610307 3910 10326.666663460401  0.80473785412436505 61893.8639610307 3910 9183.3333353617709  0.80473785412436505 61893.8639610307 3910 8040  0.80473785412436505 
61892 3911.86396103068 11470  0.80473785412436505 61892 3911.86396103068 10326.666663460401  0.80473785412436505 61892 3911.86396103068 9183.3333353617709  0.80473785412436505 61892 3911.86396103068 8040  0.80473785412436505 
61892 3914.5 11470  1 61892 3914.5 10326.666663460401  1 61892 3914.5 9183.3333353617709  1 61892 3914.5 8040  1 
61892 3924 11470  1 61892 3924 10326.666663460401  1 61892 3924 9183.3333353617709  1 61892 3924 8040  1 
61892 3933.5 11470  1 61892 3933.5 10326.666663460401  1 61892 3933.5 9183.3333353617709  1 61892 3933.5 8040  1 
61892 3943 11470  1 61892 3943 10326.666663460401  1 61892 3943 9183.3333353617709  1 61892 3943 8040  1 
61892 3948.27207793864 11470  0.80473785412436505 61892 3948.27207793864 10326.666663460401  0.80473785412436505 61892 3948.27207793864 9183.3333353617709  0.80473785412436505 61892 3948.27207793864 8040  0.80473785412436505 
61888.272077938702 3952 11470  0.80473785412436505 61888.272077938702 3952 10326.666663460401  0.80473785412436505 61888.272077938702 3952 9183.3333353617709  0.80473785412436505 61888.272077938702 3952 8040  0.80473785412436505 
61883 3952 11470  1 61883 3952 10326.666663460401  1 61883 3952 9183.3333353617709  1 61883 3952 8040  1 
61856.833333333401 3952 11470  1 61856.833333333401 3952 10326.666663460401  1 61856.833333333401 3952 9183.3333353617709  1 61856.833333333401 3952 8040  1 
61830.666666666701 3952 11470  1 61830.666666666701 3952 10326.666663460401  1 61830.666666666701 3952 9183.3333353617709  1 61830.666666666701 3952 8040  1 
61804.5 3952 11470  1 61804.5 3952 10326.666663460401  1 61804.5 3952 9183.3333353617709  1 61804.5 3952 8040  1 
61801.8639610307 3952 11470  0.80473785412436505 61801.8639610307 3952 10326.666663460401  0.80473785412436505 61801.8639610307 3952 9183.3333353617709  0.80473785412436505 61801.8639610307 3952 8040  0.80473785412436505 
61800 3953.86396103068 11470  0.80473785412436505 61800 3953.86396103068 10326.666663460401  0.80473785412436505 61800 3953.86396103068 9183.3333353617709  0.80473785412436505 61800 3953.86396103068 8040  0.80473785412436505 
61800 3956.5 11470  1 61800 3956.5 10326.666663460401  1 61800 3956.5 9183.33333536176  1 61800 3956.5 8040  1 
61800 3957.6666666666702 11470  1 61800 3957.6666666666702 10326.666663460401  1 61800 3957.6666666666702 9183.33333536176  1 61800 3957.6666666666702 8040  1 
61800 3958.8333333333298 11470  1 61800 3958.8333333333298 10326.666663460401  1 61800 3958.8333333333298 9183.33333536176  1 61800 3958.8333333333298 8040  1 
61800 3960 11470  1 61800 3960 10326.666663460401  1 61800 3960 9183.33333536176  1 61800 3960 8040  1 

0 4
0.024600361178972199 3
0.0742831344360535 3
0.27460036117897202 3
0.37396590769313498 3
0.92571686556396504 3
0.97539963882104597 3
1 4

0 4
1 4

1 61804.5 3956.5 11470 0 0 1 1 0 -0 -0 1 0 
Triangulations 0

TShapes 69
Ve
1.06245686922193e-06
61800 3956.5 8040
0 0

0101101
*
Ve
1.06245686922193e-06
61800 3960 8040
0 0

0101101
*
Ed
 1e-07 1 1 0
1  1 0 0 3.5
2  1 2 0 0 3.5
4 C0 1 0 2 0
0

0101000
+69 0 -68 0 *
Ve
1e-07
61900 3960 8040
0 0

0101101
*
Ed
 1e-07 1 1 0
1  2 0 0 100
4 C0 1 0 3 0
0

0101000
+68 0 -66 0 *
Ve
1.06245505021434e-06
61900 3910 8040
0 0

0101101
*
Ed
 1e-07 1 1 0
1  3 0 0 50
4 C0 1 0 4 0
0

0101000
+66 0 -64 0 *
Ve
1.06245505021434e-06
61896.5 3910 8040
0 0

0101101
*
Ed
 1e-07 1 1 0
1  4 0 0 3.5
2  2 5 0 0 3.5
4 C0 1 0 5 0
0

0101000
+64 0 -62 0 *
Ve
1.06245686922203e-06
61892 3914.5 8040
0 0

0101101
*
Ed
 1e-07 1 1 0
1  5 0 0 1.5707963267949
2  3 6 0 0 1.5707963267949
4 C0 1 0 6 0
0

0101000
+62 0 -60 0 *
Ve
1.06245686922232e-06
61892 3943 8040
0 0

0101101
*
Ed
 1e-07 1 1 0
1  6 0 0 28.5
2  4 7 0 0 28.5
4 C0 1 0 7 0
0

0101000
+60 0 -58 0 *
Ve
1.06245505023935e-06
61883 3952 8040
0 0

0101101
*
Ed
 1e-07 1 1 0
1  7 0 1.5707963267949 3.14159265358979
2  5 8 0 1.5707963267949 3.14159265358979
4 C0 1 0 8 0
0

0101000
+58 0 -56 0 *
Ve
1.06245505021444e-06
61804.5 3952 8040
0 0

0101101
*
Ed
 1e-07 1 1 0
1  8 0 0 78.5
2  6 9 0 0 78.5
4 C0 1 0 9 0
0

0101000
+56 0 -54 0 *
Ed
 1e-07 1 1 0
1  9 0 0 1.5707963267949
2  7 10 0 0 1.5707963267949
4 C0 1 0 10 0
0

0101000
+54 0 -69 0 *
Wi

0101100
+67 0 +65 0 +63 0 +61 0 +59 0 +57 0 +55 0 +53 0 +52 0 *
Fa
0  1e-07 1 0

0111000
-51 0 *
Ve
1.06245686922193e-06
61800 3960 11470
0 0

0101101
*
Ve
1.06245686922193e-06
61800 3956.5 11470
0 0

0101101
*
Ed
 1e-07 1 1 0
1  10 0 -3.5 0
2  8 2 0 -3.5 0
4 C0 11 0 2 0
0

0101000
+49 0 -48 0 *
Ve
1.06245505021444e-06
61804.5 3952 11470
0 0

0101101
*
Ed
 1e-07 1 1 0
1  11 0 4.71238898038469 6.28318530717959
2  9 10 0 4.71238898038469 6.28318530717959
4 C0 11 0 10 0
0

0101000
+48 0 -46 0 *
Ve
1.06245505023935e-06
61883 3952 11470
0 0

0101101
*
Ed
 1e-07 1 1 0
1  12 0 -78.5 0
2  10 9 0 -78.5 0
4 C0 11 0 9 0
0

0101000
+46 0 -44 0 *
Ve
1.06245686922232e-06
61892 3943 11470
0 0

0101101
*
Ed
 1e-07 1 1 0
1  13 0 3.14159265358979 4.71238898038469
2  11 8 0 3.14159265358979 4.71238898038469
4 C0 11 0 8 0
0

0101000
+44 0 -42 0 *
Ve
1.06245686922203e-06
61892 3914.5 11470
0 0

0101101
*
Ed
 1e-07 1 1 0
1  14 0 -28.5 0
2  12 7 0 -28.5 0
4 C0 11 0 7 0
0

0101000
+42 0 -40 0 *
Ve
1.06245505021434e-06
61896.5 3910 11470
0 0

0101101
*
Ed
 1e-07 1 1 0
1  15 0 4.71238898038469 6.28318530717959
2  13 6 0 4.71238898038469 6.28318530717959
4 C0 11 0 6 0
0

0101000
+40 0 -38 0 *
Ve
1.06245505021434e-06
61900 3910 11470
0 0

0101101
*
Ed
 1e-07 1 1 0
1  16 0 -3.5 0
2  14 5 0 -3.5 0
4 C0 11 0 5 0
0

0101000
+38 0 -36 0 *
Ve
1e-07
61900 3960 11470
0 0

0101101
*
Ed
 1e-07 1 1 0
1  17 0 -50 0
4 C0 11 0 4 0
0

0101000
+36 0 -34 0 *
Ed
 1e-07 1 1 0
1  18 0 -100 0
4 C0 11 0 3 0
0

0101000
+34 0 -49 0 *
Wi

0101100
+47 0 +45 0 +43 0 +41 0 +39 0 +37 0 +35 0 +33 0 +32 0 *
Fa
0  1e-07 11 0

0111000
+31 0 *
Ed
 1e-07 1 1 0
1  19 0 -1715.00000044169 1714.99999955831
4 C0 3 0 4 0
0

0101000
+34 0 -66 0 *
Ed
 1.06245686922193e-06 1 1 0
1  20 0 -1715.00000044169 1714.99999955831
2  15 2 0 -1715.00000044169 1714.99999955831
4 C0 3 0 2 0
0

0101000
+49 0 -68 0 *
Wi

0101100
+29 0 -65 0 -28 0 -32 0 *
Fa
0  1e-07 3 0

0111000
+27 0 *
Ed
 1.06245505021434e-06 1 1 0
1  21 0 -1715.00000044169 1714.99999955831
2  16 5 0 -1715.00000044169 1714.99999955831
4 C0 4 0 5 0
0

0101000
+36 0 -64 0 *
Wi

0101100
+25 0 -63 0 -29 0 -33 0 *
Fa
0  1e-07 4 0

0111000
+24 0 *
Ed
 1.06245505021434e-06 1 1 0
1  22 0 -1715.00000044169 1714.99999955831
2  17 5 0 -1715.00000044169 1714.99999955831
2  18 6 0 -1715.00000044169 1714.99999955831
4 C2 5 0 6 0
0

0101000
+38 0 -62 0 *
Wi

0101100
+22 0 -61 0 -25 0 -35 0 *
Fa
0  1e-07 5 0

0111000
+21 0 *
Ed
 1.06245686922203e-06 1 1 0
1  23 0 -1715.00000044169 1714.99999955831
2  19 6 0 -1715.00000044169 1714.99999955831
2  20 7 0 -1715.00000044169 1714.99999955831
4 C2 6 0 7 0
0

0101000
+40 0 -60 0 *
Wi

0101100
+19 0 -59 0 -22 0 -37 0 *
Fa
0  1e-07 6 0

0111000
+18 0 *
Ed
 1.06245686922232e-06 1 1 0
1  24 0 -1715.00000044169 1714.99999955831
2  21 7 0 -1715.00000044169 1714.99999955831
2  22 8 0 -1715.00000044169 1714.99999955831
4 C2 7 0 8 0
0

0101000
+42 0 -58 0 *
Wi

0101100
+16 0 -57 0 -19 0 -39 0 *
Fa
0  1e-07 7 0

0111000
+15 0 *
Ed
 1.06245505023935e-06 1 1 0
1  25 0 -1715.00000044169 1714.99999955831
2  23 8 0 -1715.00000044169 1714.99999955831
2  24 9 0 -1715.00000044169 1714.99999955831
4 C2 8 0 9 0
0

0101000
+44 0 -56 0 *
Wi

0101100
+13 0 -55 0 -16 0 -41 0 *
Fa
0  1e-07 8 0

0111000
+12 0 *
Ed
 1.06245505021444e-06 1 1 0
1  26 0 -1715.00000044169 1714.99999955831
2  25 9 0 -1715.00000044169 1714.99999955831
2  26 10 0 -1715.00000044169 1714.99999955831
4 C2 9 0 10 0
0

0101000
+46 0 -54 0 *
Wi

0101100
+10 0 -53 0 -13 0 -43 0 *
Fa
0  1e-07 9 0

0111000
+9 0 *
Ed
 1.06245686922193e-06 1 1 0
1  27 0 -1715.00000044169 1714.99999955831
2  27 10 0 -1715.00000044169 1714.99999955831
2  28 2 0 -1715.00000044169 1714.99999955831
4 C2 10 0 2 0
0

0101000
+48 0 -69 0 *
Wi

0101100
+7 0 -52 0 -10 0 -45 0 *
Fa
0  1e-07 10 0

0111000
+6 0 *
Wi

0101100
-67 0 -7 0 -47 0 +28 0 *
Fa
0  1e-07 2 0

0111000
+4 0 *
Sh

0101100
-50 0 +30 0 +26 0 +23 0 +20 0 +17 0 +14 0 +11 0 +8 0 +5 0 
+3 0 *
So

0100000
+2 0 *

+1 0 
0

