DBRep_DrawableShape

CASCADE Topology V1, (c) Matra-Datavision
Locations 5
1
             -0               0              -1            3048 
             -1 -3.9301895e-014               0               0 
-3.9301895e-014               1               0               0 
1
-0.657448187513571 -0.0278912077235994 0.752983373831614      -94175.693 
0.0423853058397013 -0.999101339128757 -6.44166227063832e-010       49513.785 
0.752306697154821 0.0319154301685572 0.658039541922186       61144.227 
2  1 1 2 1 0
1
              1               0               0               0 
              0               1               0               0 
              0               0               1            3048 
2  4 -1 0
Curve2ds 8
1 0 0 0 -1 
1 6.2831853071795862 0 0 -1 
1 0 0 1 0 
1 0 -3048 1 0 
1 0 0 0 -1 
1 6.2831853071795862 0 0 -1 
1 0 0 1 0 
1 0 -3048 1 0 
Curves 4
1 255.58750000000001 0 0 0 0 1 
2 0 0 0 0 0 1 1 0 -0 -0 1 0 255.58750000000001
1 252.41249999999999 0 0 0 0 1 
2 0 0 0 0 0 1 1 0 -0 -0 1 0 252.41249999999999
Polygon3D 0
PolygonOnTriangulations 0
Surfaces 3
2 0 0 0 -0 -0 -1 1 0 -0 -0 1 0 255.58750000000001
2 0 0 0 -0 -0 -1 1 0 -0 -0 1 0 252.41249999999999
1 -5.4785883336249603e-015 1.1480872875264035e-014 0 0 0 1 1 0 -0 -0 1 0 
Triangulations 3
52 50 1 2.01538377778593
255.5875 0 0 255.5875 0 3048 255.5875 0 0 255.5875 0 3048 247.557748694964 63.5620265357473 0 223.973033585711 123.130217179472 0 186.31526906107 174.961683436549 0 136.950630961694 215.799663659246 0 78.9808810498069 243.078157358588 0 16.0484719101984 255.083156452161 0 -47.8923217416788 251.060342695619 0 -108.823864682888 231.262484272159 0 -162.917603979893 196.933553437957 0 -206.774631049807 150.230563170303 0 -237.639247586963 94.0880341092953 0 -253.572116222214 32.0336078336168 0 -253.572116222214 -32.0336078336164 0 -237.639247586964 -94.0880341092949 0 -206.774631049807 -150.230563170302 0 -162.917603979893 -196.933553437957 0 -108.823864682888 -231.262484272159 0 -47.8923217416789 -251.060342695619 0 16.0484719101985 -255.083156452161 0 78.980881049807 -243.078157358588 0 136.950630961695 -215.799663659246 0 186.31526906107 -174.961683436548 0 223.973033585711 -123.130217179472 0 247.557748694964 -63.5620265357468 0 247.557748694964 63.5620265357473 3048 223.973033585711 123.130217179472 3048 186.31526906107 174.961683436549 3048 136.950630961694 215.799663659246 3048 78.9808810498069 243.078157358588 3048 16.0484719101984 255.083156452161 3048 -47.8923217416788 251.060342695619 3048 -108.823864682888 231.262484272159 3048 -162.917603979893 196.933553437957 3048 -206.774631049807 150.230563170303 3048 -237.639247586963 94.0880341092953 3048 -253.572116222214 32.0336078336168 3048 -253.572116222214 -32.0336078336164 3048 -237.639247586964 -94.0880341092949 3048 -206.774631049807 -150.230563170302 3048 -162.917603979893 -196.933553437957 3048 -108.823864682888 -231.262484272159 3048 -47.8923217416789 -251.060342695619 3048 16.0484719101985 -255.083156452161 3048 78.980881049807 -243.078157358588 3048 136.950630961695 -215.799663659246 3048 186.31526906107 -174.961683436548 3048 223.973033585711 -123.130217179472 3048 247.557748694964 -63.5620265357468 3048 0 0 0 -3048 6.28318530717959 0 6.28318530717959 -3048 0.251327412287183 0 0.502654824574367 0 0.75398223686155 0 1.00530964914873 0 1.25663706143592 0 1.5079644737231 0 1.75929188601028 0 2.01061929829747 0 2.26194671058465 0 2.51327412287183 0 2.76460153515902 0 3.0159289474462 0 3.26725635973338 0 3.51858377202057 0 3.76991118430775 0 4.02123859659493 0 4.27256600888212 0 4.5238934211693 0 4.77522083345649 0 5.02654824574367 0 5.27787565803085 0 5.52920307031804 0 5.78053048260522 0 6.03185789489241 0 0.251327412287183 -3048 0.502654824574367 -3048 0.75398223686155 -3048 1.00530964914873 -3048 1.25663706143592 -3048 1.5079644737231 -3048 1.75929188601028 -3048 2.01061929829747 -3048 2.26194671058465 -3048 2.51327412287183 -3048 2.76460153515902 -3048 3.0159289474462 -3048 3.26725635973338 -3048 3.51858377202057 -3048 3.76991118430775 -3048 4.02123859659493 -3048 4.27256600888212 -3048 4.5238934211693 -3048 4.77522083345649 -3048 5.02654824574367 -3048 5.27787565803085 -3048 5.52920307031804 -3048 5.78053048260522 -3048 6.03185789489241 -3048 23 22 46 23 46 47 24 23 47 24 47 48 25 24 48 5 1 2 5 2 29 25 48 49 26 25 49 6 29 30 26 49 50 6 5 29 27 26 50 27 50 51 7 30 31 7 6 30 28 27 51 28 51 52 8 31 32 8 7 31 3 52 4 3 28 52 9 32 33 9 8 32 10 33 34 10 9 33 11 34 35 11 10 34 12 35 36 12 11 35 13 36 37 13 12 36 14 37 38 14 13 37 15 38 39 15 14 38 16 15 39 16 39 40 17 16 40 17 40 41 18 17 41 18 41 42 19 18 42 19 42 43 20 19 43 20 43 44 21 20 44 21 44 45 22 21 45 22 45 46 
52 50 1 1.99034795445939
252.4125 0 0 252.4125 0 3048 252.4125 0 0 252.4125 0 3048 244.482497158381 62.7724361439989 0 221.190759876572 121.600649264199 0 184.000793669007 172.788246375225 0 135.249380887636 213.118922495777 0 77.9997520926664 240.05855291935 0 15.8491120106929 251.914421589401 0 -47.2973860678692 247.941580674555 0 -107.472015432169 228.389658380579 0 -160.893782812441 194.487173892144 0 -204.206002092666 148.364344994274 0 -234.687207244268 92.9192386545214 0 -250.422152045541 31.6356748170501 0 -250.422152045541 -31.6356748170497 0 -234.687207244268 -92.9192386545211 0 -204.206002092667 -148.364344994274 0 -160.893782812441 -194.487173892144 0 -107.472015432169 -228.389658380579 0 -47.2973860678692 -247.941580674555 0 15.8491120106929 -251.914421589401 0 77.9997520926666 -240.05855291935 0 135.249380887636 -213.118922495777 0 184.000793669007 -172.788246375225 0 221.190759876572 -121.600649264199 0 244.482497158381 -62.7724361439984 0 244.482497158381 62.7724361439989 3048 221.190759876572 121.600649264199 3048 184.000793669007 172.788246375225 3048 135.249380887636 213.118922495777 3048 77.9997520926664 240.05855291935 3048 15.8491120106929 251.914421589401 3048 -47.2973860678692 247.941580674555 3048 -107.472015432169 228.389658380579 3048 -160.893782812441 194.487173892144 3048 -204.206002092666 148.364344994274 3048 -234.687207244268 92.9192386545214 3048 -250.422152045541 31.6356748170501 3048 -250.422152045541 -31.6356748170497 3048 -234.687207244268 -92.9192386545211 3048 -204.206002092667 -148.364344994274 3048 -160.893782812441 -194.487173892144 3048 -107.472015432169 -228.389658380579 3048 -47.2973860678692 -247.941580674555 3048 15.8491120106929 -251.914421589401 3048 77.9997520926666 -240.05855291935 3048 135.249380887636 -213.118922495777 3048 184.000793669007 -172.788246375225 3048 221.190759876572 -121.600649264199 3048 244.482497158381 -62.7724361439984 3048 0 0 0 -3048 6.28318530717959 0 6.28318530717959 -3048 0.251327412287183 0 0.502654824574367 0 0.75398223686155 0 1.00530964914873 0 1.25663706143592 0 1.5079644737231 0 1.75929188601028 0 2.01061929829747 0 2.26194671058465 0 2.51327412287183 0 2.76460153515902 0 3.0159289474462 0 3.26725635973338 0 3.51858377202057 0 3.76991118430775 0 4.02123859659493 0 4.27256600888212 0 4.5238934211693 0 4.77522083345649 0 5.02654824574367 0 5.27787565803085 0 5.52920307031804 0 5.78053048260522 0 6.0318578948924 0 0.251327412287183 -3048 0.502654824574367 -3048 0.75398223686155 -3048 1.00530964914873 -3048 1.25663706143592 -3048 1.5079644737231 -3048 1.75929188601028 -3048 2.01061929829747 -3048 2.26194671058465 -3048 2.51327412287183 -3048 2.76460153515902 -3048 3.0159289474462 -3048 3.26725635973338 -3048 3.51858377202057 -3048 3.76991118430775 -3048 4.02123859659493 -3048 4.27256600888212 -3048 4.5238934211693 -3048 4.77522083345649 -3048 5.02654824574367 -3048 5.27787565803085 -3048 5.52920307031804 -3048 5.78053048260522 -3048 6.0318578948924 -3048 23 22 46 23 46 47 24 23 47 24 47 48 5 1 2 25 24 48 5 2 29 25 48 49 6 29 30 26 25 49 6 5 29 26 49 50 27 26 50 7 30 31 27 50 51 7 6 30 28 27 51 28 51 52 8 31 32 8 7 31 3 52 4 3 28 52 9 32 33 9 8 32 10 33 34 10 9 33 11 34 35 11 10 34 12 35 36 12 11 35 13 36 37 13 12 36 14 37 38 14 13 37 15 38 39 15 14 38 16 15 39 16 39 40 17 16 40 17 40 41 18 17 41 18 41 42 19 18 42 19 42 43 20 19 43 20 43 44 21 20 44 21 44 45 22 21 45 22 45 46 
50 50 1 2.8421709430404e-014
255.5875 0 -0 247.557748694964 63.5620265357473 0 223.973033585711 123.130217179472 0 186.31526906107 174.961683436549 0 136.950630961694 215.799663659246 0 78.9808810498069 243.078157358588 0 16.0484719101984 255.083156452161 0 -47.8923217416788 251.060342695619 0 -108.823864682888 231.262484272159 0 -162.917603979893 196.933553437957 0 -206.774631049807 150.230563170303 0 -237.639247586963 94.0880341092953 0 -253.572116222214 32.0336078336168 0 -253.572116222214 -32.0336078336164 0 -237.639247586964 -94.0880341092949 0 -206.774631049807 -150.230563170302 0 -162.917603979893 -196.933553437957 0 -108.823864682888 -231.262484272159 0 -47.8923217416789 -251.060342695619 0 16.0484719101985 -255.083156452161 -0 78.980881049807 -243.078157358588 -0 136.950630961695 -215.799663659246 -0 186.31526906107 -174.961683436548 -0 223.973033585711 -123.130217179472 -0 247.557748694964 -63.5620265357468 -0 252.4125 0 -0 244.482497158381 62.7724361439989 0 221.190759876572 121.600649264199 0 184.000793669007 172.788246375225 0 135.249380887636 213.118922495777 0 77.9997520926664 240.05855291935 0 15.8491120106929 251.914421589401 0 -47.2973860678692 247.941580674555 0 -107.472015432169 228.389658380579 0 -160.893782812441 194.487173892144 0 -204.206002092666 148.364344994274 0 -234.687207244268 92.9192386545214 0 -250.422152045541 31.6356748170501 0 -250.422152045541 -31.6356748170497 0 -234.687207244268 -92.9192386545211 0 -204.206002092667 -148.364344994274 0 -160.893782812441 -194.487173892144 0 -107.472015432169 -228.389658380579 0 -47.2973860678692 -247.941580674555 0 15.8491120106929 -251.914421589401 -0 77.9997520926666 -240.05855291935 -0 135.249380887636 -213.118922495777 -0 184.000793669007 -172.788246375225 -0 221.190759876572 -121.600649264199 -0 244.482497158381 -62.7724361439984 -0 255.5875 0 247.557748694964 63.5620265357473 223.973033585711 123.130217179472 186.31526906107 174.961683436549 136.950630961694 215.799663659246 78.9808810498069 243.078157358588 16.0484719101984 255.083156452161 -47.8923217416788 251.060342695619 -108.823864682888 231.262484272159 -162.917603979893 196.933553437957 -206.774631049807 150.230563170303 -237.639247586963 94.0880341092953 -253.572116222214 32.0336078336168 -253.572116222214 -32.0336078336164 -237.639247586964 -94.0880341092949 -206.774631049807 -150.230563170302 -162.917603979893 -196.933553437957 -108.823864682888 -231.262484272159 -47.8923217416789 -251.060342695619 16.0484719101985 -255.083156452161 78.980881049807 -243.078157358588 136.950630961695 -215.799663659246 186.31526906107 -174.961683436548 223.973033585711 -123.130217179472 247.557748694964 -63.5620265357468 252.4125 0 244.482497158381 62.7724361439989 221.190759876572 121.600649264199 184.000793669007 172.788246375225 135.249380887636 213.118922495777 77.9997520926665 240.05855291935 15.8491120106928 251.914421589401 -47.2973860678692 247.941580674555 -107.472015432169 228.389658380579 -160.893782812441 194.487173892144 -204.206002092666 148.364344994274 -234.687207244268 92.9192386545214 -250.422152045541 31.6356748170501 -250.422152045541 -31.6356748170498 -234.687207244268 -92.9192386545211 -204.206002092667 -148.364344994274 -160.893782812441 -194.487173892144 -107.472015432169 -228.389658380579 -47.2973860678692 -247.941580674555 15.8491120106929 -251.914421589401 77.9997520926666 -240.05855291935 135.249380887636 -213.118922495777 184.000793669007 -172.788246375225 221.190759876572 -121.600649264199 244.482497158381 -62.7724361439984 10 11 36 10 36 35 41 16 17 41 17 42 6 32 31 6 7 32 43 17 18 24 48 23 43 42 17 24 49 48 40 15 16 40 16 41 3 27 2 44 18 19 3 28 27 9 10 35 9 35 34 44 43 18 39 14 15 39 15 40 25 49 24 25 50 49 45 19 20 5 31 30 45 44 19 5 6 31 38 13 14 38 14 39 8 9 34 8 34 33 46 20 21 4 5 30 4 29 28 46 45 20 4 30 29 4 28 3 37 12 13 1 50 25 1 26 50 37 13 38 47 21 22 47 46 21 7 8 33 36 11 12 7 33 32 36 12 37 2 27 26 23 48 47 2 26 1 23 47 22 

TShapes 15
Ve
1e-007
255.5875 0 0
0 0

0101101
*
Ed
 1e-007 1 1 0
1  1 0 0 3048
3  1 2CN 1 0 0 3048
0

0101000
+15 0 -15 4 *
Ed
 1e-007 1 1 0
1  2 0 0 6.28318530717959
2  3 1 0 0 6.28318530717959
2  4 1 5 0 6.28318530717959
0

0101000
+15 0 -15 0 *
Wi

0101100
+14 0 -14 0 -13 0 +13 4 *
Fa
0  1e-007 1 0
2  1
0101000
+12 0 *
Ve
1e-007
252.4125 0 0
0 0

0101101
*
Ed
 1e-007 1 1 0
1  3 0 0 3048
3  5 6CN 2 0 0 3048
0

0101000
+10 0 -10 4 *
Ed
 1e-007 1 1 0
1  4 0 0 6.28318530717959
2  7 2 0 0 6.28318530717959
2  8 2 5 0 6.28318530717959
0

0101000
+10 0 -10 0 *
Wi

0101100
+9 0 -9 0 -8 0 +8 4 *
Fa
0  1e-007 2 0
2  2
0101000
+7 0 *
Wi

0101100
+13 0 *
Wi

0101100
-8 0 *
Fa
0  1e-007 3 0
2  3
0101000
+5 0 +4 0 *
Sh

0101100
+11 0 -6 0 +3 0 -3 4 *
So

1100000
-2 0 *

+1 3 