DBRep_DrawableShape

CASCADE Topology V1, (c) Matra-Datavision
Locations 0
Curve2ds 4
1 0 1.5707963267948966 1 0 
1 6.2831853071795862 -6.2831853071795862 0 1 
1 0 -6.2831853071795862 0 1 
1 0 -1.5707963267948966 1 0 
Curves 2
2 0 0 145.09999999999999 -2.4492127076447545e-016 -1 0 1 -2.4492127076447545e-016 0 0 0 1 810
2 -31.927869839453002 -395.92578054700357 -19.631891715468658 -0.19506165616391544 0.014604047858489799 -0.9806822482745049 -0.64020952869463077 -0.75938686359058083 0.11603168004755995 -0.74302268448761999 0.65047545164457021 0.15747690987761764 1720
Polygon3D 0
PolygonOnTriangulations 0
Surfaces 2
4 0 0 145.09999999999999 0 0 1 1 0 -0 -0 1 0 810
1 -31.927869839453052 -395.92578054700346 -19.631891715468658 -0.19506165616391544 0.014604047858489821 -0.98068224827450468 -0.98078684408494266 -4.3368086899420187e-019 0.19508246069264809 0.0028489935923073921 0.99989335520651756 0.014323458009993699 
Triangulations 0

TShapes 16
Ve
1e-007
4.95965573298063e-014 -1.21472518467593e-029 955.1
0 0

0101101
*
Ed
 1e-007 1 1 1
2  1 1 0 0 6.28318530717959
0

0101100
+16 0 -16 0 *
Ve
1e-007
4.95965573298063e-014 -1.21472518467593e-029 -664.9
0 0

0101101
*
Ed
 1e-007 1 1 0
1  1 0 4.71238898038469 7.85398163397448
3  2 3CN 1 0 4.71238898038469 7.85398163397448
0

0101000
-16 0 +14 0 *
Ed
 1e-007 1 1 1
2  4 1 0 0 6.28318530717959
0

0101100
+14 0 -14 0 *
Wi

0101000
-15 0 +13 0 +12 0 -13 0 *
Fa
0  1e-007 1 0

0111000
+11 0 *
Sh

0101100
+10 0 *
So

0100100
+9 0 *
Ve
1e-007
-1133.08825919422 -1702.0711859228 179.942597966334
0 0

0101101
*
Ed
 1e-007 1 1 0
1  2 0 0 6.28318530717959
0

0101100
+7 0 -7 0 *
Wi

0101100
+6 0 *
Fa
0  1e-007 2 0

0111000
+5 0 *
Sh

0101000
+4 0 *
So

0100000
+3 0 *
Co

1100000
+8 0 +2 0 *

+1 0 
0

