DBRep_DrawableShape

CASCADE Topology V1, (c) Matra-Datavision
Locations 0
Curve2ds 52
1 3 0 0 -1 
1 0 0 0 1 
1 3 0 0 1 
1 0 3 1 0 
1 3 0 0 -1 
1 3 0 0 1 
1 3 0 0 1 
1 0 0 1 0 
1 0 0 1 0 
1 0 0 1 0 
1 0 -3 1 0 
1 0 0 1 0 
1 0 0 0 -1 
1 0 0 0 1 
1 1.5 1.5 0 1 
1 0 0 0 1 
1 0 3 1 0 
1 1.5 4.5 1 0 
1 0 -3 1 0 
1 0 3 1 0 
1 0 0 1 0 
1 0 3 1 0 
1 0 0 0 -1 
1 3 0 0 1 
1 4.5 1.5 0 1 
1 0 0 0 1 
1 0 0 1 0 
1 1.5 1.5 1 0 
1 3 0 0 -1 
1 0 0 0 1 
1 3 0 0 1 
1 0 6 1 0 
1 3 0 0 1 
1 0 0 1 0 
1 3 0 0 -1 
1 6 0 0 1 
1 0 0 1 0 
1 0 0 1 0 
1 0 -6 1 0 
1 0 0 1 0 
1 0 0 0 -1 
1 0 0 0 1 
1 0 0 0 1 
1 0 6 1 0 
1 0 -6 1 0 
1 0 6 1 0 
1 0 0 0 1 
1 0 0 1 0 
1 0 0 1 0 
1 0 6 1 0 
1 0 0 0 -1 
1 6 0 0 1 
Curves 24
1 -1.5 -1.5 3 -0 1 0 
1 -1.5 1.5 3 1 0 -0 
1 1.5 -1.5 3 -0 1 0 
1 -1.5 -1.5 3 1 0 -0 
1 -1.5 -1.5 0 0 0 1 
1 -1.5 1.5 0 0 0 1 
1 -1.5 -1.5 0 -0 1 0 
1 -1.5 1.5 0 1 0 -0 
1 1.5 1.5 0 0 0 1 
1 1.5 -1.5 0 0 0 1 
1 1.5 -1.5 0 -0 1 0 
1 -1.5 -1.5 0 1 0 -0 
1 -3 -3 0 -0 1 0 
1 -3 3 0 1 0 -0 
1 -3 -3 0 1 0 -0 
1 3 -3 0 -0 1 0 
1 -3 -3 -3 0 0 1 
1 -3 3 -3 0 0 1 
1 -3 -3 -3 -0 1 0 
1 -3 3 -3 1 0 -0 
1 3 3 -3 0 0 1 
1 -3 -3 -3 1 0 -0 
1 3 -3 -3 0 0 1 
1 3 -3 -3 -0 1 0 
Polygon3D 0
PolygonOnTriangulations 0
Surfaces 12
1 -1.5 -1.5 3 0 0 1 1 0 -0 -0 1 0 
1 -1.5 -1.5 0 1 0 -0 0 0 1 0 -1 0 
1 -1.5 1.5 0 -0 1 0 0 0 1 1 0 -0 
1 1.5 -1.5 0 1 0 -0 0 0 1 0 -1 0 
1 -1.5 -1.5 0 -0 1 0 0 0 1 1 0 -0 
1 -1.5 -1.5 0 0 0 1 1 0 -0 -0 1 0 
1 -3 -3 0 0 0 1 1 0 -0 -0 1 0 
1 -3 -3 -3 1 0 -0 0 0 1 0 -1 0 
1 -3 3 -3 -0 1 0 0 0 1 1 0 -0 
1 -3 -3 -3 -0 1 0 0 0 1 1 0 -0 
1 3 -3 -3 1 0 -0 0 0 1 0 -1 0 
1 -3 -3 -3 0 0 1 1 0 -0 -0 1 0 
Triangulations 0

TShapes 66
Ve
1e-007
-1.5 1.5 3
0 0

0101101
*
Ve
1e-007
-1.5 -1.5 3
0 0

0101101
*
Ed
 1e-007 1 1 0
1  1 0 0 3
2  1 2 0 0 3
2  2 1 0 0 3
0

0101000
-66 0 +65 0 *
Ve
1e-007
1.5 1.5 3
0 0

0101101
*
Ed
 1e-007 1 1 0
1  2 0 0 3
2  3 3 0 0 3
2  4 1 0 0 3
0

0101000
-63 0 +66 0 *
Ve
1e-007
1.5 -1.5 3
0 0

0101101
*
Ed
 1e-007 1 1 0
1  3 0 0 3
2  5 4 0 0 3
2  6 1 0 0 3
0

0101000
-63 0 +61 0 *
Ed
 1e-007 1 1 0
1  4 0 0 3
2  7 5 0 0 3
2  8 1 0 0 3
0

0101000
-61 0 +65 0 *
Wi

0101100
-64 0 -62 0 +60 0 +59 0 *
Fa
0  1e-007 1 0

0111000
+58 0 *
Ve
2.12133034355964e-007
-1.5 -1.5 0
0 0

0101101
*
Ed
 1e-007 1 1 0
1  5 0 0 3
2  9 2 0 0 3
2  10 5 0 0 3
0

0101000
-65 0 +56 0 *
Ve
2.12133034355964e-007
-1.5 1.5 0
0 0

0101101
*
Ed
 1e-007 1 1 0
1  6 0 0 3
2  11 2 0 0 3
2  12 3 0 0 3
0

0101000
-66 0 +54 0 *
Ed
 1e-007 1 1 0
1  7 0 0 3
2  13 2 0 0 3
2  14 6 0 0 3
2  15 7 0 0 3
0

0101000
-54 0 +56 0 *
Wi

0101100
-55 0 -64 0 +53 0 +52 0 *
Fa
0  1e-007 2 0

0101000
+51 0 *
Ve
2.12133034355964e-007
1.5 1.5 0
0 0

0101101
*
Ed
 1e-007 1 1 0
1  8 0 0 3
2  16 3 0 0 3
2  17 6 0 0 3
2  18 7 0 0 3
0

0101000
-49 0 +54 0 *
Ed
 1e-007 1 1 0
1  9 0 0 3
2  19 4 0 0 3
2  20 3 0 0 3
0

0101000
-63 0 +49 0 *
Wi

0101100
-48 0 -47 0 +62 0 +53 0 *
Fa
0  1e-007 3 0

0101000
+46 0 *
Ve
2.12133034355964e-007
1.5 -1.5 0
0 0

0101101
*
Ed
 1e-007 1 1 0
1  10 0 0 3
2  21 4 0 0 3
2  22 5 0 0 3
0

0101000
-61 0 +44 0 *
Ed
 1e-007 1 1 0
1  11 0 0 3
2  23 4 0 0 3
2  24 6 0 0 3
2  25 7 0 0 3
0

0101000
-49 0 +44 0 *
Wi

0101100
-43 0 -60 0 +47 0 +42 0 *
Fa
0  1e-007 4 0

0101000
+41 0 *
Ed
 1e-007 1 1 0
1  12 0 0 3
2  26 5 0 0 3
2  27 6 0 0 3
2  28 7 0 0 3
0

0101000
-44 0 +56 0 *
Wi

0101100
-39 0 -43 0 +59 0 +55 0 *
Fa
0  1e-007 5 0

0101000
+38 0 *
Ve
1e-007
-3 3 0
0 0

0101101
*
Ve
1e-007
-3 -3 0
0 0

0101101
*
Ed
 1e-007 1 1 0
1  13 0 0 6
2  29 8 0 0 6
2  30 7 0 0 6
0

0101000
-36 0 +35 0 *
Ve
1e-007
3 3 0
0 0

0101101
*
Ed
 1e-007 1 1 0
1  14 0 0 6
2  31 9 0 0 6
2  32 7 0 0 6
0

0101000
-33 0 +36 0 *
Ve
1e-007
3 -3 0
0 0

0101101
*
Ed
 1e-007 1 1 0
1  15 0 0 6
2  33 10 0 0 6
2  34 7 0 0 6
0

0101000
-31 0 +35 0 *
Ed
 1e-007 1 1 0
1  16 0 0 6
2  35 11 0 0 6
2  36 7 0 0 6
0

0101000
-33 0 +31 0 *
Wi

0101100
-34 0 -32 0 +30 0 +29 0 *
Wi

0101100
+52 0 -39 0 -42 0 +48 0 *
Fa
0  1e-007 7 0

0111000
+28 0 +27 0 *
Ve
1e-007
-3 -3 -3
0 0

0101101
*
Ed
 1e-007 1 1 0
1  17 0 0 3
2  37 8 0 0 3
2  38 10 0 0 3
0

0101000
-35 0 +25 0 *
Ve
1e-007
-3 3 -3
0 0

0101101
*
Ed
 1e-007 1 1 0
1  18 0 0 3
2  39 8 0 0 3
2  40 9 0 0 3
0

0101000
-36 0 +23 0 *
Ed
 1e-007 1 1 0
1  19 0 0 6
2  41 8 0 0 6
2  42 12 0 0 6
0

0101000
-23 0 +25 0 *
Wi

0101100
-24 0 -34 0 +22 0 +21 0 *
Fa
0  1e-007 8 0

0111000
+20 0 *
Ve
1e-007
3 3 -3
0 0

0101101
*
Ed
 1e-007 1 1 0
1  20 0 0 6
2  43 9 0 0 6
2  44 12 0 0 6
0

0101000
-18 0 +23 0 *
Ed
 1e-007 1 1 0
1  21 0 0 3
2  45 11 0 0 3
2  46 9 0 0 3
0

0101000
-33 0 +18 0 *
Wi

0101100
-17 0 -16 0 +32 0 +22 0 *
Fa
0  1e-007 9 0

0111000
+15 0 *
Ve
1e-007
3 -3 -3
0 0

0101101
*
Ed
 1e-007 1 1 0
1  22 0 0 6
2  47 10 0 0 6
2  48 12 0 0 6
0

0101000
-13 0 +25 0 *
Ed
 1e-007 1 1 0
1  23 0 0 3
2  49 11 0 0 3
2  50 10 0 0 3
0

0101000
-31 0 +13 0 *
Wi

0101100
-12 0 -11 0 +30 0 +24 0 *
Fa
0  1e-007 10 0

0111000
+10 0 *
Ed
 1e-007 1 1 0
1  24 0 0 6
2  51 11 0 0 6
2  52 12 0 0 6
0

0101000
-18 0 +13 0 *
Wi

0101100
-11 0 -29 0 +16 0 +8 0 *
Fa
0  1e-007 11 0

0111000
+7 0 *
Wi

0101100
-21 0 -17 0 +8 0 +12 0 *
Fa
0  1e-007 12 0

0111000
+5 0 *
Sh

0101100
+57 0 -50 0 +45 0 +40 0 -37 0 +26 0 -19 0 +14 0 -9 0 +6 0 
-4 0 *
So

0100000
+3 0 *
Co

1100000
+2 0 *

+1 0 
0

