DBRep_DrawableShape

CASCADE Topology V1, (c) Matra-Datavision
Locations 0
Curve2ds 4
7 0 0  1 2 2  0 -1.5707963267948966  6.2831853071795862 -1.5707963267948966 
 0 2 6.2831853071795862 2
7 0 0  1 2 2  6.2831853071795862 -1.5707963267948966  6.2831853071795862 1.5707963267948966 
 -1.5707963267948966 2 1.5707963267948966 2
7 0 0  1 2 2  0 -1.5707963267948966  0 1.5707963267948966 
 -1.5707963267948966 2 1.5707963267948966 2
7 0 0  1 2 2  6.2831853071795862 1.5707963267948966  0 1.5707963267948966 
 0 2 6.2831853071795862 2
Curves 1
2 0 0 0 0 -1 -0 1 0 0 0 -0 1 12
Polygon3D 0
PolygonOnTriangulations 0
Surfaces 1
7 0 0 0 0 0 1 
8 4.7123889803846897 7.8539816339744828
2 0 0 0 0 -1 -0 1 0 0 0 -0 1 12
Triangulations 0

TShapes 9
Ve
1e-007
0 0 -12
0 0

0101101
*
Ed
 1e-007 1 1 1
2  1 1 0 0 6.28318530717959
0

0101000
+9 0 -9 0 *
Ve
1e-007
0 0 12
0 0

0101101
*
Ed
 1e-007 1 1 0
1  1 0 -1.5707963267949 1.5707963267949
3  2 3C0 1 0 -1.5707963267949 1.5707963267949
0

0101000
+9 0 -7 0 *
Ed
 1e-007 1 1 1
2  4 1 0 0 6.28318530717959
0

0101000
+7 0 -7 0 *
Wi

0101000
+8 0 +6 0 +5 0 -6 0 *
Fa
0  1e-007 1 0

0111000
+4 0 *
Sh

0101000
+3 0 *
So

0100000
+2 0 *

+1 0 