DBRep_DrawableShape

CASCADE Topology V1, (c) Matra-Datavision
Locations 10
1
              1               0               0               0 
              0               1               0               0 
              0               0               1               2 
2  1 -1 0
1
              1               0               0               0 
              0               1               0               0 
              0               0               1               2 
2  1 1 3 1 0
2  3 -1 1 -1 0
1
              1               0               0               0 
              0               1               0               0 
              0               0               1               3 
2  1 1 3 1 6 1 0
2  6 -1 3 -1 1 -1 0
1
              1               0               0               0 
              0               1               0               0 
              0               0               1              10 
2  9 -1 0
Curve2ds 144
1 0 0 1 0 
1 -5 6.0862068965517242 0 -1 
1 10 0 0 -1 
1 0 0 0 -1 
1 0 -2 1 0 
1 0 -2 1 0 
1 0 0 0 -1 
1 1 0 0 -1 
1 10 0 0 -1 
1 0 0 0 -1 
1 0 -4 1 0 
1 0 -4 1 0 
1 0 0 0 -1 
1 1 0 0 -1 
1 10 0 0 -1 
1 0 0 0 -1 
1 0 -7 1 0 
1 0 -7 1 0 
1 0 0 0 -1 
1 1 0 0 -1 
1 10 0 0 -1 
1 0 0 0 -1 
1 0 -10 1 0 
1 -5 6.0862068965517242 0 -1 
1 0 0 0 -1 
1 1 0 0 -1 
1 0 0 1 0 
1 -5 -3.9137931034482758 1 0 
1 10 0 0 -1 
1 0 0 0 -1 
1 0 -2 1 0 
1 0 -2 1 0 
1 10 0 0 -1 
1 0 0 0 -1 
1 0 -4 1 0 
1 0 -4 1 0 
1 10 0 0 -1 
1 0 0 0 -1 
1 0 -7 1 0 
1 0 -7 1 0 
1 10 0 0 -1 
1 0 0 0 -1 
1 0 -10 1 0 
1 -5 -3.9137931034482758 1 0 
1 0 0 1 0 
1 5 -3.9137931034482758 0 1 
1 10 0 0 -1 
1 0 -0 0 -1 
1 0 -2 1 0 
1 0 -2 1 0 
1 10 0 0 -1 
1 0 -0 0 -1 
1 0 -4 1 0 
1 0 -4 1 0 
1 10 0 0 -1 
1 0 -0 0 -1 
1 0 -7 1 0 
1 0 -7 1 0 
1 10 0 0 -1 
1 0 -0 0 -1 
1 0 -10 1 0 
1 5 -3.9137931034482758 0 1 
1 0 -0 1 0 
1 5 6.0862068965517242 -1 0 
1 1 0 0 -1 
1 0 0 0 -1 
1 0 -2 1 0 
1 0 -2 1 0 
1 1 0 0 -1 
1 0 0 0 -1 
1 0 -4 1 0 
1 0 -4 1 0 
1 1 0 0 -1 
1 0 0 0 -1 
1 0 -7 1 0 
1 0 -7 1 0 
1 1 0 0 -1 
1 0 0 0 -1 
1 0 -10 1 0 
1 5 6.0862068965517242 -1 0 
1 0 0 1 0 
1 4 6.0862068965517242 0 -1 
1 9 0 0 -1 
1 0 -0 0 -1 
1 0 -2 1 0 
1 0 -2 1 0 
1 9 0 0 -1 
1 0 -0 0 -1 
1 0 -4 1 0 
1 0 -4 1 0 
1 9 0 0 -1 
1 0 -0 0 -1 
1 0 -7 1 0 
1 0 -7 1 0 
1 9 0 0 -1 
1 0 -0 0 -1 
1 0 -10 1 0 
1 4 6.0862068965517242 0 -1 
1 0 -0 1 0 
1 4 -2.9137931034482758 -1 0 
1 8 0 0 -1 
1 0 0 0 -1 
1 0 -2 1 0 
1 0 -2 1 0 
1 8 0 0 -1 
1 0 0 0 -1 
1 0 -4 1 0 
1 0 -4 1 0 
1 8 0 0 -1 
1 0 0 0 -1 
1 0 -7 1 0 
1 0 -7 1 0 
1 8 0 0 -1 
1 0 0 0 -1 
1 0 -10 1 0 
1 4 -2.9137931034482758 -1 0 
1 0 0 1 0 
1 -4 -2.9137931034482758 0 1 
1 9 0 0 -1 
1 0 -0 0 -1 
1 0 -2 1 0 
1 0 -2 1 0 
1 9 0 0 -1 
1 0 -0 0 -1 
1 0 -4 1 0 
1 0 -4 1 0 
1 9 0 0 -1 
1 0 -0 0 -1 
1 0 -7 1 0 
1 0 -7 1 0 
1 9 0 0 -1 
1 0 -0 0 -1 
1 0 -10 1 0 
1 -4 -2.9137931034482758 0 1 
1 0 -0 1 0 
1 -4 6.0862068965517242 -1 0 
1 0 -2 1 0 
1 0 -2 1 0 
1 0 -4 1 0 
1 0 -4 1 0 
1 0 -7 1 0 
1 0 -7 1 0 
1 0 -10 1 0 
1 -4 6.0862068965517242 -1 0 
Curves 72
1 0 10 0 0 -1 0 
1 0 0 0 0 0 1 
1 0 10 0 0 -1 0 
1 0 10 0 0 0 1 
1 0 0 0 0 0 1 
1 0 10 0 0 -1 0 
1 0 10 0 0 0 1 
1 0 0 0 0 0 1 
1 0 10 0 0 -1 0 
1 0 10 0 0 0 1 
1 0 0 0 0 0 1 
1 0 10 0 0 -1 0 
1 0 10 0 0 0 1 
1 0 0 0 1 0 0 
1 10 0 0 0 0 1 
1 0 0 0 1 0 0 
1 10 0 0 0 0 1 
1 0 0 0 1 0 0 
1 10 0 0 0 0 1 
1 0 0 0 1 0 0 
1 10 0 0 0 0 1 
1 0 0 0 1 0 0 
1 10 0 0 0 1 0 
1 10 10 0 0 0 1 
1 10 0 0 0 1 0 
1 10 10 0 0 0 1 
1 10 0 0 0 1 0 
1 10 10 0 0 0 1 
1 10 0 0 0 1 0 
1 10 10 0 0 0 1 
1 10 0 0 0 1 0 
1 10 10 0 -1 0 0 
1 9 10 0 0 0 1 
1 10 10 0 -1 0 0 
1 9 10 0 0 0 1 
1 10 10 0 -1 0 0 
1 9 10 0 0 0 1 
1 10 10 0 -1 0 0 
1 9 10 0 0 0 1 
1 10 10 0 -1 0 0 
1 9 10 0 0 -1 0 
1 9 1 0 0 0 1 
1 9 10 0 0 -1 0 
1 9 1 0 0 0 1 
1 9 10 0 0 -1 0 
1 9 1 0 0 0 1 
1 9 10 0 0 -1 0 
1 9 1 0 0 0 1 
1 9 10 0 0 -1 0 
1 9 1 0 -1 0 0 
1 1 1 0 0 0 1 
1 9 1 0 -1 0 0 
1 1 1 0 0 0 1 
1 9 1 0 -1 0 0 
1 1 1 0 0 0 1 
1 9 1 0 -1 0 0 
1 1 1 0 0 0 1 
1 9 1 0 -1 0 0 
1 1 1 0 0 1 0 
1 1 10 0 0 0 1 
1 1 1 0 0 1 0 
1 1 10 0 0 0 1 
1 1 1 0 0 1 0 
1 1 10 0 0 0 1 
1 1 1 0 0 1 0 
1 1 10 0 0 0 1 
1 1 1 0 0 1 0 
1 1 10 0 -1 0 0 
1 1 10 0 -1 0 0 
1 1 10 0 -1 0 0 
1 1 10 0 -1 0 0 
1 1 10 0 -1 0 0 
Polygon3D 0
PolygonOnTriangulations 0
Surfaces 34
1 0 10 0 1 0 -0 0 -1 0 0 -0 -1 
1 5 3.9137931034482758 0 0 0 1 1 0 -0 -0 1 0 
1 0 0 0 0 1 0 1 0 0 0 0 -1 
1 0 10 0 1 0 -0 0 -1 0 0 -0 -1 
1 1 10 0 0 -1 0 -1 0 0 -0 -0 -1 
1 0 0 0 0 1 0 1 0 0 0 0 -1 
1 0 10 0 1 0 -0 0 -1 0 0 -0 -1 
1 1 10 0 0 -1 0 -1 0 0 -0 -0 -1 
1 0 0 0 0 1 0 1 0 0 0 0 -1 
1 0 10 0 1 0 -0 0 -1 0 0 -0 -1 
1 1 10 0 0 -1 0 -1 0 0 -0 -0 -1 
1 0 0 0 0 1 0 1 0 0 0 0 -1 
1 5 3.9137931034482758 0 0 0 1 1 0 -0 -0 1 0 
1 1 10 0 0 -1 0 -1 0 0 -0 -0 -1 
1 10 0 0 -1 0 0 0 1 0 0 0 -1 
1 10 0 0 -1 0 0 0 1 0 0 0 -1 
1 10 0 0 -1 0 0 0 1 0 0 0 -1 
1 10 0 0 -1 0 0 0 1 0 0 0 -1 
1 10 10 0 0 -1 0 -1 0 0 -0 -0 -1 
1 10 10 0 0 -1 0 -1 0 0 -0 -0 -1 
1 10 10 0 0 -1 0 -1 0 0 -0 -0 -1 
1 10 10 0 0 -1 0 -1 0 0 -0 -0 -1 
1 9 10 0 1 0 -0 0 -1 0 0 -0 -1 
1 9 10 0 1 0 -0 0 -1 0 0 -0 -1 
1 9 10 0 1 0 -0 0 -1 0 0 -0 -1 
1 9 10 0 1 0 -0 0 -1 0 0 -0 -1 
1 9 1 0 0 -1 0 -1 0 0 -0 -0 -1 
1 9 1 0 0 -1 0 -1 0 0 -0 -0 -1 
1 9 1 0 0 -1 0 -1 0 0 -0 -0 -1 
1 9 1 0 0 -1 0 -1 0 0 -0 -0 -1 
1 1 1 0 -1 0 0 0 1 0 0 0 -1 
1 1 1 0 -1 0 0 0 1 0 0 0 -1 
1 1 1 0 -1 0 0 0 1 0 0 0 -1 
1 1 1 0 -1 0 0 0 1 0 0 0 -1 
Triangulations 0

TShapes 182
Ve
1e-07
0 10 0
0 0

0101101
*
Ve
1e-07
0 0 0
0 0

0101101
*
Ed
 1e-07 1 1 0
1  1 0 0 10
2  1 1 0 0 10
2  2 2 0 0 10
0

0101000
+182 0 -181 0 *
Ve
1e-07
0 0 2
0 0

0101101
*
Ed
 1e-07 1 1 0
1  2 0 0 2
2  3 1 0 0 2
2  4 3 0 0 2
0

0101000
+181 0 -179 0 *
Ve
1e-07
0 10 2
0 0

0101101
*
Ed
 1e-07 1 1 0
1  3 0 0 10
2  5 1 2 0 10
2  6 4 2 0 10
0

0101000
+177 2 -179 2 *
Ed
 1e-07 1 1 0
1  4 0 0 2
2  7 1 0 0 2
2  8 5 0 0 2
0

0101000
+182 0 -177 0 *
Wi

0101100
-180 0 -178 0 +176 1 +175 0 *
Fa
0  1e-07 1 0

0111000
+174 0 *
Ve
1e-07
0 0 4
0 0

0101101
*
Ed
 1e-07 1 1 0
1  5 0 2 4
2  9 4 0 2 4
2  10 6 0 2 4
0

0101000
+179 0 -172 0 *
Ve
1e-07
0 10 4
0 0

0101101
*
Ed
 1e-07 1 1 0
1  6 0 0 10
2  11 4 5 0 10
2  12 7 5 0 10
0

0101000
+170 5 -172 5 *
Ed
 1e-07 1 1 0
1  7 0 2 4
2  13 4 0 2 4
2  14 8 0 2 4
0

0101000
+177 0 -170 0 *
Wi

0101100
-176 1 -171 0 +169 4 +168 0 *
Fa
0  1e-07 4 0

0111000
+167 0 *
Ve
1e-07
0 0 7
0 0

0101101
*
Ed
 1e-07 1 1 0
1  8 0 4 7
2  15 7 0 4 7
2  16 9 0 4 7
0

0101000
+172 0 -165 0 *
Ve
1e-07
0 10 7
0 0

0101101
*
Ed
 1e-07 1 1 0
1  9 0 0 10
2  17 7 8 0 10
2  18 10 8 0 10
0

0101000
+163 8 -165 8 *
Ed
 1e-07 1 1 0
1  10 0 4 7
2  19 7 0 4 7
2  20 11 0 4 7
0

0101000
+170 0 -163 0 *
Wi

0101100
-169 4 -164 0 +162 7 +161 0 *
Fa
0  1e-07 7 0

0111000
+160 0 *
Ve
1e-07
0 0 10
0 0

0101101
*
Ed
 1e-07 1 1 0
1  11 0 7 10
2  21 10 0 7 10
2  22 12 0 7 10
0

0101000
+165 0 -158 0 *
Ve
1e-07
0 10 10
0 0

0101101
*
Ed
 1e-07 1 1 0
1  12 0 0 10
2  23 10 10 0 10
2  24 13 0 0 10
0

0101000
+156 10 -158 10 *
Ed
 1e-07 1 1 0
1  13 0 7 10
2  25 10 0 7 10
2  26 14 0 7 10
0

0101000
+163 0 -156 0 *
Wi

0101100
-162 7 -157 0 +155 9 +154 0 *
Fa
0  1e-07 10 0

0111000
+153 0 *
Ve
1e-07
10 0 0
0 0

0101101
*
Ed
 1e-07 1 1 0
1  14 0 0 10
2  27 3 0 0 10
2  28 2 0 0 10
0

0101000
+181 0 -151 0 *
Ve
1e-07
10 0 2
0 0

0101101
*
Ed
 1e-07 1 1 0
1  15 0 0 2
2  29 3 0 0 2
2  30 15 0 0 2
0

0101000
+151 0 -149 0 *
Ed
 1e-07 1 1 0
1  16 0 0 10
2  31 3 2 0 10
2  32 6 2 0 10
0

0101000
+179 2 -149 2 *
Wi

0101100
-150 0 -148 0 +147 1 +178 0 *
Fa
0  1e-07 3 0

0111000
+146 0 *
Ve
1e-07
10 0 4
0 0

0101101
*
Ed
 1e-07 1 1 0
1  17 0 2 4
2  33 6 0 2 4
2  34 16 0 2 4
0

0101000
+149 0 -144 0 *
Ed
 1e-07 1 1 0
1  18 0 0 10
2  35 6 5 0 10
2  36 9 5 0 10
0

0101000
+172 5 -144 5 *
Wi

0101100
-147 1 -143 0 +142 4 +171 0 *
Fa
0  1e-07 6 0

0111000
+141 0 *
Ve
1e-07
10 0 7
0 0

0101101
*
Ed
 1e-07 1 1 0
1  19 0 4 7
2  37 9 0 4 7
2  38 17 0 4 7
0

0101000
+144 0 -139 0 *
Ed
 1e-07 1 1 0
1  20 0 0 10
2  39 9 8 0 10
2  40 12 8 0 10
0

0101000
+165 8 -139 8 *
Wi

0101100
-142 4 -138 0 +137 7 +164 0 *
Fa
0  1e-07 9 0

0111000
+136 0 *
Ve
1e-07
10 0 10
0 0

0101101
*
Ed
 1e-07 1 1 0
1  21 0 7 10
2  41 12 0 7 10
2  42 18 0 7 10
0

0101000
+139 0 -134 0 *
Ed
 1e-07 1 1 0
1  22 0 0 10
2  43 12 10 0 10
2  44 13 0 0 10
0

0101000
+158 10 -134 10 *
Wi

0101100
-137 7 -133 0 +132 9 +157 0 *
Fa
0  1e-07 12 0

0111000
+131 0 *
Ve
1e-07
10 10 0
0 0

0101101
*
Ed
 1e-07 1 1 0
1  23 0 0 10
2  45 15 0 0 10
2  46 2 0 0 10
0

0101000
+151 0 -129 0 *
Ve
1e-07
10 10 2
0 0

0101101
*
Ed
 1e-07 1 1 0
1  24 0 0 2
2  47 15 0 0 2
2  48 19 0 0 2
0

0101000
+129 0 -127 0 *
Ed
 1e-07 1 1 0
1  25 0 0 10
2  49 15 2 0 10
2  50 16 2 0 10
0

0101000
+149 2 -127 2 *
Wi

0101100
-128 0 -126 0 +125 1 +148 0 *
Fa
0  1e-07 15 0

0111000
+124 0 *
Ve
1e-07
10 10 4
0 0

0101101
*
Ed
 1e-07 1 1 0
1  26 0 2 4
2  51 16 0 2 4
2  52 20 0 2 4
0

0101000
+127 0 -122 0 *
Ed
 1e-07 1 1 0
1  27 0 0 10
2  53 16 5 0 10
2  54 17 5 0 10
0

0101000
+144 5 -122 5 *
Wi

0101100
-125 1 -121 0 +120 4 +143 0 *
Fa
0  1e-07 16 0

0111000
+119 0 *
Ve
1e-07
10 10 7
0 0

0101101
*
Ed
 1e-07 1 1 0
1  28 0 4 7
2  55 17 0 4 7
2  56 21 0 4 7
0

0101000
+122 0 -117 0 *
Ed
 1e-07 1 1 0
1  29 0 0 10
2  57 17 8 0 10
2  58 18 8 0 10
0

0101000
+139 8 -117 8 *
Wi

0101100
-120 4 -116 0 +115 7 +138 0 *
Fa
0  1e-07 17 0

0111000
+114 0 *
Ve
1e-07
10 10 10
0 0

0101101
*
Ed
 1e-07 1 1 0
1  30 0 7 10
2  59 18 0 7 10
2  60 22 0 7 10
0

0101000
+117 0 -112 0 *
Ed
 1e-07 1 1 0
1  31 0 0 10
2  61 18 10 0 10
2  62 13 0 0 10
0

0101000
+134 10 -112 10 *
Wi

0101100
-115 7 -111 0 +110 9 +133 0 *
Fa
0  1e-07 18 0

0111000
+109 0 *
Ve
1e-07
9 10 0
0 0

0101101
*
Ed
 1e-07 1 1 0
1  32 0 0 1
2  63 19 0 0 1
2  64 2 0 0 1
0

0101000
+129 0 -107 0 *
Ve
1e-07
9 10 2
0 0

0101101
*
Ed
 1e-07 1 1 0
1  33 0 0 2
2  65 19 0 0 2
2  66 23 0 0 2
0

0101000
+107 0 -105 0 *
Ed
 1e-07 1 1 0
1  34 0 0 1
2  67 19 2 0 1
2  68 20 2 0 1
0

0101000
+127 2 -105 2 *
Wi

0101100
-106 0 -104 0 +103 1 +126 0 *
Fa
0  1e-07 19 0

0111000
+102 0 *
Ve
1e-07
9 10 4
0 0

0101101
*
Ed
 1e-07 1 1 0
1  35 0 2 4
2  69 20 0 2 4
2  70 24 0 2 4
0

0101000
+105 0 -100 0 *
Ed
 1e-07 1 1 0
1  36 0 0 1
2  71 20 5 0 1
2  72 21 5 0 1
0

0101000
+122 5 -100 5 *
Wi

0101100
-103 1 -99 0 +98 4 +121 0 *
Fa
0  1e-07 20 0

0111000
+97 0 *
Ve
1e-07
9 10 7
0 0

0101101
*
Ed
 1e-07 1 1 0
1  37 0 4 7
2  73 21 0 4 7
2  74 25 0 4 7
0

0101000
+100 0 -95 0 *
Ed
 1e-07 1 1 0
1  38 0 0 1
2  75 21 8 0 1
2  76 22 8 0 1
0

0101000
+117 8 -95 8 *
Wi

0101100
-98 4 -94 0 +93 7 +116 0 *
Fa
0  1e-07 21 0

0111000
+92 0 *
Ve
1e-07
9 10 10
0 0

0101101
*
Ed
 1e-07 1 1 0
1  39 0 7 10
2  77 22 0 7 10
2  78 26 0 7 10
0

0101000
+95 0 -90 0 *
Ed
 1e-07 1 1 0
1  40 0 0 1
2  79 22 10 0 1
2  80 13 0 0 1
0

0101000
+112 10 -90 10 *
Wi

0101100
-93 7 -89 0 +88 9 +111 0 *
Fa
0  1e-07 22 0

0111000
+87 0 *
Ve
1e-07
9 1 0
0 0

0101101
*
Ed
 1e-07 1 1 0
1  41 0 0 9
2  81 23 0 0 9
2  82 2 0 0 9
0

0101000
+107 0 -85 0 *
Ve
1e-07
9 1 2
0 0

0101101
*
Ed
 1e-07 1 1 0
1  42 0 0 2
2  83 23 0 0 2
2  84 27 0 0 2
0

0101000
+85 0 -83 0 *
Ed
 1e-07 1 1 0
1  43 0 0 9
2  85 23 2 0 9
2  86 24 2 0 9
0

0101000
+105 2 -83 2 *
Wi

0101100
-84 0 -82 0 +81 1 +104 0 *
Fa
0  1e-07 23 0

0111000
+80 0 *
Ve
1e-07
9 1 4
0 0

0101101
*
Ed
 1e-07 1 1 0
1  44 0 2 4
2  87 24 0 2 4
2  88 28 0 2 4
0

0101000
+83 0 -78 0 *
Ed
 1e-07 1 1 0
1  45 0 0 9
2  89 24 5 0 9
2  90 25 5 0 9
0

0101000
+100 5 -78 5 *
Wi

0101100
-81 1 -77 0 +76 4 +99 0 *
Fa
0  1e-07 24 0

0111000
+75 0 *
Ve
1e-07
9 1 7
0 0

0101101
*
Ed
 1e-07 1 1 0
1  46 0 4 7
2  91 25 0 4 7
2  92 29 0 4 7
0

0101000
+78 0 -73 0 *
Ed
 1e-07 1 1 0
1  47 0 0 9
2  93 25 8 0 9
2  94 26 8 0 9
0

0101000
+95 8 -73 8 *
Wi

0101100
-76 4 -72 0 +71 7 +94 0 *
Fa
0  1e-07 25 0

0111000
+70 0 *
Ve
1e-07
9 1 10
0 0

0101101
*
Ed
 1e-07 1 1 0
1  48 0 7 10
2  95 26 0 7 10
2  96 30 0 7 10
0

0101000
+73 0 -68 0 *
Ed
 1e-07 1 1 0
1  49 0 0 9
2  97 26 10 0 9
2  98 13 0 0 9
0

0101000
+90 10 -68 10 *
Wi

0101100
-71 7 -67 0 +66 9 +89 0 *
Fa
0  1e-07 26 0

0111000
+65 0 *
Ve
1e-07
1 1 0
0 0

0101101
*
Ed
 1e-07 1 1 0
1  50 0 0 8
2  99 27 0 0 8
2  100 2 0 0 8
0

0101000
+85 0 -63 0 *
Ve
1e-07
1 1 2
0 0

0101101
*
Ed
 1e-07 1 1 0
1  51 0 0 2
2  101 27 0 0 2
2  102 31 0 0 2
0

0101000
+63 0 -61 0 *
Ed
 1e-07 1 1 0
1  52 0 0 8
2  103 27 2 0 8
2  104 28 2 0 8
0

0101000
+83 2 -61 2 *
Wi

0101100
-62 0 -60 0 +59 1 +82 0 *
Fa
0  1e-07 27 0

0111000
+58 0 *
Ve
1e-07
1 1 4
0 0

0101101
*
Ed
 1e-07 1 1 0
1  53 0 2 4
2  105 28 0 2 4
2  106 32 0 2 4
0

0101000
+61 0 -56 0 *
Ed
 1e-07 1 1 0
1  54 0 0 8
2  107 28 5 0 8
2  108 29 5 0 8
0

0101000
+78 5 -56 5 *
Wi

0101100
-59 1 -55 0 +54 4 +77 0 *
Fa
0  1e-07 28 0

0111000
+53 0 *
Ve
1e-07
1 1 7
0 0

0101101
*
Ed
 1e-07 1 1 0
1  55 0 4 7
2  109 29 0 4 7
2  110 33 0 4 7
0

0101000
+56 0 -51 0 *
Ed
 1e-07 1 1 0
1  56 0 0 8
2  111 29 8 0 8
2  112 30 8 0 8
0

0101000
+73 8 -51 8 *
Wi

0101100
-54 4 -50 0 +49 7 +72 0 *
Fa
0  1e-07 29 0

0111000
+48 0 *
Ve
1e-07
1 1 10
0 0

0101101
*
Ed
 1e-07 1 1 0
1  57 0 7 10
2  113 30 0 7 10
2  114 34 0 7 10
0

0101000
+51 0 -46 0 *
Ed
 1e-07 1 1 0
1  58 0 0 8
2  115 30 10 0 8
2  116 13 0 0 8
0

0101000
+68 10 -46 10 *
Wi

0101100
-49 7 -45 0 +44 9 +67 0 *
Fa
0  1e-07 30 0

0111000
+43 0 *
Ve
1e-07
1 10 0
0 0

0101101
*
Ed
 1e-07 1 1 0
1  59 0 0 9
2  117 31 0 0 9
2  118 2 0 0 9
0

0101000
+63 0 -41 0 *
Ve
1e-07
1 10 2
0 0

0101101
*
Ed
 1e-07 1 1 0
1  60 0 0 2
2  119 31 0 0 2
2  120 5 0 0 2
0

0101000
+41 0 -39 0 *
Ed
 1e-07 1 1 0
1  61 0 0 9
2  121 31 2 0 9
2  122 32 2 0 9
0

0101000
+61 2 -39 2 *
Wi

0101100
-40 0 -38 0 +37 1 +60 0 *
Fa
0  1e-07 31 0

0111000
+36 0 *
Ve
1e-07
1 10 4
0 0

0101101
*
Ed
 1e-07 1 1 0
1  62 0 2 4
2  123 32 0 2 4
2  124 8 0 2 4
0

0101000
+39 0 -34 0 *
Ed
 1e-07 1 1 0
1  63 0 0 9
2  125 32 5 0 9
2  126 33 5 0 9
0

0101000
+56 5 -34 5 *
Wi

0101100
-37 1 -33 0 +32 4 +55 0 *
Fa
0  1e-07 32 0

0111000
+31 0 *
Ve
1e-07
1 10 7
0 0

0101101
*
Ed
 1e-07 1 1 0
1  64 0 4 7
2  127 33 0 4 7
2  128 11 0 4 7
0

0101000
+34 0 -29 0 *
Ed
 1e-07 1 1 0
1  65 0 0 9
2  129 33 8 0 9
2  130 34 8 0 9
0

0101000
+51 8 -29 8 *
Wi

0101100
-32 4 -28 0 +27 7 +50 0 *
Fa
0  1e-07 33 0

0111000
+26 0 *
Ve
1e-07
1 10 10
0 0

0101101
*
Ed
 1e-07 1 1 0
1  66 0 7 10
2  131 34 0 7 10
2  132 14 0 7 10
0

0101000
+29 0 -24 0 *
Ed
 1e-07 1 1 0
1  67 0 0 9
2  133 34 10 0 9
2  134 13 0 0 9
0

0101000
+46 10 -24 10 *
Wi

0101100
-27 7 -23 0 +22 9 +45 0 *
Fa
0  1e-07 34 0

0111000
+21 0 *
Ed
 1e-07 1 1 0
1  68 0 0 1
2  135 5 0 0 1
2  136 2 0 0 1
0

0101000
+41 0 -182 0 *
Ed
 1e-07 1 1 0
1  69 0 0 1
2  137 5 2 0 1
2  138 8 2 0 1
0

0101000
+39 2 -177 2 *
Wi

0101100
-19 0 -175 0 +18 1 +38 0 *
Fa
0  1e-07 5 0

0111000
+17 0 *
Ed
 1e-07 1 1 0
1  70 0 0 1
2  139 8 5 0 1
2  140 11 5 0 1
0

0101000
+34 5 -170 5 *
Wi

0101100
-18 1 -168 0 +15 4 +33 0 *
Fa
0  1e-07 8 0

0111000
+14 0 *
Ed
 1e-07 1 1 0
1  71 0 0 1
2  141 11 8 0 1
2  142 14 8 0 1
0

0101000
+29 8 -163 8 *
Wi

0101100
-15 4 -161 0 +12 7 +28 0 *
Fa
0  1e-07 11 0

0111000
+11 0 *
Ed
 1e-07 1 1 0
1  72 0 0 1
2  143 14 10 0 1
2  144 13 0 0 1
0

0101000
+24 10 -156 10 *
Wi

0101100
-12 7 -154 0 +9 9 +23 0 *
Fa
0  1e-07 14 0

0111000
+8 0 *
Wi

0101100
+180 0 +150 0 +128 0 +106 0 +84 0 +62 0 +40 0 +19 0 *
Fa
0  1e-07 2 0

0111000
+6 0 *
Wi

0101100
+155 0 +132 0 +110 0 +88 0 +66 0 +44 0 +22 0 +9 0 *
Fa
0  1e-07 13 0

0111000
+4 0 *
Sh

0101100
+173 0 +166 0 +159 0 +152 0 +145 0 +140 0 +135 0 +130 0 +123 0 +118 0 
+113 0 +108 0 +101 0 +96 0 +91 0 +86 0 +79 0 +74 0 +69 0 +64 0 
+57 0 +52 0 +47 0 +42 0 +35 0 +30 0 +25 0 +20 0 +16 0 +13 0 
+10 0 +7 0 +5 0 -3 9 *
So

1100000
-2 0 *

+1 0 
0

