DBRep_DrawableShape

CASCADE Topology V1, (c) Matra-Datavision
Locations 11
1
1.000000000000000 0.000000000000000 0.000000000000000 0.000000000000000 
0.000000000000000 1.000000000000000 0.000000000000000 0.000000000000000 
0.000000000000000 0.000000000000000 1.000000000000000 0.000000000000000 
1
1.000000000000000 0.000000000000000 0.000000000000000 0.000000000000000 
0.000000000000000 1.000000000000000 0.000000000000000 0.000000000000000 
0.000000000000000 0.000000000000000 1.000000000000000 0.000000000000000 
1
1.000000000000000 0.000000000000000 0.000000000000000 0.000000000000000 
0.000000000000000 1.000000000000000 0.000000000000000 0.000000000000000 
0.000000000000000 0.000000000000000 1.000000000000000 0.000000000000000 
2  2 1 3 1 0
1
1.000000000000000 0.000000000000000 0.000000000000000 0.000000000000000 
0.000000000000000 1.000000000000000 0.000000000000000 0.000000000000000 
0.000000000000000 0.000000000000000 1.000000000000000 0.000000000000000 
2  5 -1 3 -1 2 -1 0
1
1.000000000000000 0.000000000000000 0.000000000000000 0.000000000000000 
0.000000000000000 1.000000000000000 0.000000000000000 0.000000000000000 
0.000000000000000 0.000000000000000 1.000000000000000 0.000000000000000 
1
1.000000000000000 0.000000000000000 0.000000000000000 0.000000000000000 
0.000000000000000 1.000000000000000 0.000000000000000 0.000000000000000 
0.000000000000000 0.000000000000000 1.000000000000000 0.000000000000000 
2  7 1 8 1 0
2  5 -1 8 -1 7 -1 0
2  5 -1 0
Curve2ds 0
Curves 28
1 0.00000000000000000 0.00000000000000000 0.00000000000000000 0.00000000000000000 0.00000000000000000 1.00000000000000000 
1 0.00000000000000000 0.00000000000000000 10.00000000000000000 0.00000000000000000 1.00000000000000000 0.00000000000000000 
1 0.00000000000000000 2.00000000000000000 0.00000000000000000 0.00000000000000000 0.00000000000000000 1.00000000000000000 
1 0.00000000000000000 0.00000000000000000 0.00000000000000000 0.00000000000000000 1.00000000000000000 0.00000000000000000 
1 0.00000000000000000 0.00000000000000000 0.00000000000000000 1.00000000000000000 0.00000000000000000 0.00000000000000000 
1 2.00000000000000000 0.00000000000000000 0.00000000000000000 0.00000000000000000 0.00000000000000000 1.00000000000000000 
1 0.00000000000000000 0.00000000000000000 10.00000000000000000 1.00000000000000000 0.00000000000000000 0.00000000000000000 
1 0.00000000000000000 2.00000000000000000 10.00000000000000000 1.00000000000000000 0.00000000000000000 0.00000000000000000 
1 2.00000000000000000 0.00000000000000000 10.00000000000000000 0.00000000000000000 1.00000000000000000 0.00000000000000000 
1 0.00000000000000000 0.00000000000000000 10.00000000000000000 0.00000000000000000 1.00000000000000000 0.00000000000000000 
1 0.00000000000000000 10.00000000000000000 0.00000000000000000 0.00000000000000000 0.00000000000000000 1.00000000000000000 
1 0.00000000000000000 0.00000000000000000 0.00000000000000000 0.00000000000000000 1.00000000000000000 0.00000000000000000 
1 0.00000000000000000 2.00000000000000000 0.00000000000000000 1.00000000000000000 0.00000000000000000 0.00000000000000000 
1 2.00000000000000000 0.00000000000000000 0.00000000000000000 0.00000000000000000 1.00000000000000000 0.00000000000000000 
1 0.00000000000000000 0.00000000000000000 0.00000000000000000 1.00000000000000000 0.00000000000000000 0.00000000000000000 
1 10.00000000000000000 0.00000000000000000 0.00000000000000000 0.00000000000000000 0.00000000000000000 1.00000000000000000 
1 0.00000000000000000 0.00000000000000000 10.00000000000000000 1.00000000000000000 0.00000000000000000 0.00000000000000000 
1 0.00000000000000000 10.00000000000000000 10.00000000000000000 1.00000000000000000 0.00000000000000000 0.00000000000000000 
1 2.00000000000000000 0.00000000000000000 10.00000000000000000 0.00000000000000000 1.00000000000000000 0.00000000000000000 
1 0.00000000000000000 2.00000000000000000 10.00000000000000000 1.00000000000000000 0.00000000000000000 0.00000000000000000 
1 10.00000000000000000 0.00000000000000000 10.00000000000000000 0.00000000000000000 1.00000000000000000 0.00000000000000000 
1 0.00000000000000000 10.00000000000000000 0.00000000000000000 1.00000000000000000 0.00000000000000000 0.00000000000000000 
1 2.00000000000000000 10.00000000000000000 0.00000000000000000 0.00000000000000000 0.00000000000000000 1.00000000000000000 
1 2.00000000000000000 0.00000000000000000 0.00000000000000000 0.00000000000000000 1.00000000000000000 0.00000000000000000 
1 0.00000000000000000 2.00000000000000000 0.00000000000000000 1.00000000000000000 0.00000000000000000 0.00000000000000000 
1 10.00000000000000000 0.00000000000000000 0.00000000000000000 0.00000000000000000 1.00000000000000000 0.00000000000000000 
1 10.00000000000000000 2.00000000000000000 0.00000000000000000 0.00000000000000000 0.00000000000000000 1.00000000000000000 
1 2.00000000000000000 2.00000000000000000 0.00000000000000000 0.00000000000000000 0.00000000000000000 1.00000000000000000 
Polygon3D 0
PolygonOnTriangulations 0
Surfaces 14
1 0.00000000000000000 0.00000000000000000 0.00000000000000000 1.00000000000000000 0.00000000000000000 0.00000000000000000 0.00000000000000000 0.00000000000000000 1.00000000000000000 0.00000000000000000 -1.00000000000000000 0.00000000000000000 
1 0.00000000000000000 0.00000000000000000 0.00000000000000000 0.00000000000000000 1.00000000000000000 0.00000000000000000 0.00000000000000000 0.00000000000000000 1.00000000000000000 1.00000000000000000 0.00000000000000000 0.00000000000000000 
1 0.00000000000000000 0.00000000000000000 10.00000000000000000 0.00000000000000000 0.00000000000000000 1.00000000000000000 1.00000000000000000 0.00000000000000000 0.00000000000000000 0.00000000000000000 1.00000000000000000 0.00000000000000000 
1 0.00000000000000000 0.00000000000000000 0.00000000000000000 1.00000000000000000 0.00000000000000000 0.00000000000000000 0.00000000000000000 0.00000000000000000 1.00000000000000000 0.00000000000000000 -1.00000000000000000 0.00000000000000000 
1 0.00000000000000000 0.00000000000000000 0.00000000000000000 0.00000000000000000 0.00000000000000000 1.00000000000000000 1.00000000000000000 0.00000000000000000 0.00000000000000000 0.00000000000000000 1.00000000000000000 0.00000000000000000 
1 0.00000000000000000 0.00000000000000000 0.00000000000000000 0.00000000000000000 1.00000000000000000 0.00000000000000000 0.00000000000000000 0.00000000000000000 1.00000000000000000 1.00000000000000000 0.00000000000000000 0.00000000000000000 
1 0.00000000000000000 0.00000000000000000 10.00000000000000000 0.00000000000000000 0.00000000000000000 1.00000000000000000 1.00000000000000000 0.00000000000000000 0.00000000000000000 0.00000000000000000 1.00000000000000000 0.00000000000000000 
1 0.00000000000000000 0.00000000000000000 10.00000000000000000 0.00000000000000000 0.00000000000000000 1.00000000000000000 1.00000000000000000 0.00000000000000000 0.00000000000000000 0.00000000000000000 1.00000000000000000 0.00000000000000000 
1 0.00000000000000000 10.00000000000000000 0.00000000000000000 0.00000000000000000 1.00000000000000000 0.00000000000000000 0.00000000000000000 0.00000000000000000 1.00000000000000000 1.00000000000000000 0.00000000000000000 0.00000000000000000 
1 0.00000000000000000 0.00000000000000000 0.00000000000000000 0.00000000000000000 0.00000000000000000 1.00000000000000000 1.00000000000000000 0.00000000000000000 0.00000000000000000 0.00000000000000000 1.00000000000000000 0.00000000000000000 
1 0.00000000000000000 0.00000000000000000 0.00000000000000000 0.00000000000000000 0.00000000000000000 1.00000000000000000 1.00000000000000000 0.00000000000000000 0.00000000000000000 0.00000000000000000 1.00000000000000000 0.00000000000000000 
1 10.00000000000000000 0.00000000000000000 0.00000000000000000 1.00000000000000000 0.00000000000000000 0.00000000000000000 0.00000000000000000 0.00000000000000000 1.00000000000000000 0.00000000000000000 -1.00000000000000000 0.00000000000000000 
1 2.00000000000000000 0.00000000000000000 0.00000000000000000 1.00000000000000000 0.00000000000000000 0.00000000000000000 0.00000000000000000 0.00000000000000000 1.00000000000000000 0.00000000000000000 -1.00000000000000000 0.00000000000000000 
1 0.00000000000000000 2.00000000000000000 0.00000000000000000 0.00000000000000000 1.00000000000000000 0.00000000000000000 0.00000000000000000 0.00000000000000000 1.00000000000000000 1.00000000000000000 0.00000000000000000 0.00000000000000000 
Triangulations 0

TShapes 75
Ve
0.000000100000000
0.000000000000000 0.000000000000000 0.000000000000000
0 0

0101101
*
Ve
0.000000100000000
0.000000000000000 0.000000000000000 10.000000000000000
0 0

0101101
*
Ed
 0.000000100000000 1 1 0
1  1 0 0.000000000000000 10.000000000000000
0

0101000
+75 6 -74 6 *
Ve
0.000000100000000
0.000000000000000 2.000000000000000 10.000000000000000
0 0

0101101
*
Ed
 0.000000100000000 1 1 0
1  2 0 0.000000000000000 2.000000000000000
0

0101000
+74 6 -72 6 *
Ve
0.000000100000000
0.000000000000000 2.000000000000000 0.000000000000000
0 0

0101101
*
Ed
 0.000000100000000 1 1 0
1  3 0 0.000000000000000 10.000000000000000
0

0101000
-72 10 +70 10 *
Ed
 0.000000100000000 1 1 0
1  4 0 0.000000000000000 2.000000000000000
0

0101000
+75 6 -70 6 *
Wi

0101100
-73 4 -71 4 +69 9 +68 4 *
Fa
0  0.000000100000000 1 4

0101000
+67 0 *
Ve
0.000000100000000
2.000000000000000 0.000000000000000 0.000000000000000
0 0

0101101
*
Ed
 0.000000100000000 1 1 0
1  5 0 0.000000000000000 2.000000000000000
0

0101000
+75 6 -65 6 *
Ve
0.000000100000000
2.000000000000000 0.000000000000000 10.000000000000000
0 0

0101101
*
Ed
 0.000000100000000 1 1 0
1  6 0 0.000000000000000 10.000000000000000
0

0101000
-63 6 +65 6 *
Ed
 0.000000100000000 1 1 0
1  7 0 0.000000000000000 2.000000000000000
0

0101000
+74 6 -63 6 *
Wi

0101100
-64 4 -62 4 +61 4 +73 4 *
Fa
0  0.000000100000000 2 4

0101000
+60 0 *
Ve
0.000000150000000
2.000000000000000 2.000000000000000 10.000000000000000
0 0

0101101
*
Ed
 0.000000100000000 1 1 0
1  8 0 0.000000000000000 2.000000000000000
0

0101000
+72 10 -58 10 *
Ed
 0.000000100000000 1 1 0
1  9 0 0.000000000000000 2.000000000000000
0

0101000
+63 6 -58 6 *
Wi

0101100
-71 4 -57 9 +56 4 +61 4 *
Fa
0  0.000000100000000 3 4

0101000
+55 0 *
Ve
0.000000100000000
0.000000000000000 10.000000000000000 10.000000000000000
0 0

0101101
*
Ed
 0.000000100000000 1 1 0
1  10 0 2.000000000000000 10.000000000000000
0

0101000
+72 6 -53 6 *
Ve
0.000000100000000
0.000000000000000 10.000000000000000 0.000000000000000
0 0

0101101
*
Ed
 0.000000100000000 1 1 0
1  11 0 0.000000000000000 10.000000000000000
0

0101000
-53 6 +51 6 *
Ed
 0.000000100000000 1 1 0
1  12 0 2.000000000000000 10.000000000000000
0

0101000
+70 6 -51 6 *
Wi

0101100
-69 9 -52 4 +50 4 +49 4 *
Fa
0  0.000000100000000 4 4

0101000
+48 0 *
Ve
0.000000150000000
2.000000000000000 2.000000000000000 0.000000000000000
0 0

0101101
*
Ed
 0.000000100000000 1 1 0
1  13 0 0.000000000000000 2.000000000000000
0

0101000
+70 10 -46 10 *
Ed
 0.000000100000000 1 1 0
1  14 0 0.000000000000000 2.000000000000000
0

0101000
+65 6 -46 6 *
Wi

0101100
-68 4 -45 9 +44 4 +64 4 *
Fa
0  0.000000100000000 5 4

0101000
+43 0 *
Ve
0.000000100000000
10.000000000000000 0.000000000000000 0.000000000000000
0 0

0101101
*
Ed
 0.000000100000000 1 1 0
1  15 0 2.000000000000000 10.000000000000000
0

0101000
+65 10 -41 10 *
Ve
0.000000100000000
10.000000000000000 0.000000000000000 10.000000000000000
0 0

0101101
*
Ed
 0.000000100000000 1 1 0
1  16 0 0.000000000000000 10.000000000000000
0

0101000
-39 10 +41 10 *
Ed
 0.000000100000000 1 1 0
1  17 0 2.000000000000000 10.000000000000000
0

0101000
+63 10 -39 10 *
Wi

0101100
-40 9 -38 9 +37 9 +62 4 *
Fa
0  0.000000100000000 6 9

0101000
+36 0 *
Ve
0.000000100000000
2.000000000000000 10.000000000000000 10.000000000000000
0 0

0101101
*
Ed
 0.000000100000000 1 1 0
1  18 0 0.000000000000000 2.000000000000000
0

0101000
-34 6 +53 6 *
Ed
 0.000000100000000 1 1 0
1  19 0 2.000000000000000 10.000000000000000
0

0101000
+58 6 -34 6 *
Wi

0101100
-52 4 -33 4 +32 4 +57 9 *
Fa
0  0.000000100000000 7 4

0101000
+31 0 *
Ve
0.000000100000000
10.000000000000000 2.000000000000000 10.000000000000000
0 0

0101101
*
Ed
 0.000000100000000 1 1 0
1  20 0 2.000000000000000 10.000000000000000
0

0101000
+58 10 -29 10 *
Ed
 0.000000100000000 1 1 0
1  21 0 0.000000000000000 2.000000000000000
0

0101000
-29 10 +39 10 *
Wi

0101100
-56 4 -28 9 +27 9 +37 9 *
Fa
0  0.000000100000000 8 9

0101000
+26 0 *
Ve
0.000000100000000
2.000000000000000 10.000000000000000 0.000000000000000
0 0

0101101
*
Ed
 0.000000100000000 1 1 0
1  22 0 0.000000000000000 2.000000000000000
0

0101000
-24 6 +51 6 *
Ed
 0.000000100000000 1 1 0
1  23 0 0.000000000000000 10.000000000000000
0

0101000
-34 6 +24 6 *
Wi

0101100
-23 0 -22 0 +33 0 +50 0 *
Fa
0  0.000000100000000 9 0

0101000
+21 0 *
Ed
 0.000000100000000 1 1 0
1  24 0 2.000000000000000 10.000000000000000
0

0101000
+46 6 -24 6 *
Wi

0101100
-49 4 -23 4 +19 4 +45 9 *
Fa
0  0.000000100000000 10 4

0101000
+18 0 *
Ve
0.000000100000000
10.000000000000000 2.000000000000000 0.000000000000000
0 0

0101101
*
Ed
 0.000000100000000 1 1 0
1  25 0 2.000000000000000 10.000000000000000
0

0101000
+46 10 -16 10 *
Ed
 0.000000100000000 1 1 0
1  26 0 0.000000000000000 2.000000000000000
0

0101000
-16 10 +41 10 *
Wi

0101100
-44 4 -15 9 +14 9 +40 9 *
Fa
0  0.000000100000000 11 9

0101000
+13 0 *
Ed
 0.000000100000000 1 1 0
1  27 0 0.000000000000000 10.000000000000000
0

0101000
-29 10 +16 10 *
Wi

0101100
-38 0 -27 0 +11 0 +14 0 *
Fa
0  0.000000100000000 12 0

0101000
+10 0 *
Ed
 0.000000150000000 1 1 0
1  28 0 0.000000000000000 10.000000000000000
0

0101000
+46 11 -58 11 *
Wi

0101100
-32 4 +22 4 +19 4 -8 0 *
Fa
0  0.000000100000000 13 4

0101000
+7 0 *
Wi

0101100
-15 9 -11 9 +28 9 +8 0 *
Fa
0  0.000000100000000 14 9

0101000
+5 0 *
Sh

0101100
-66 0 -59 0 +54 0 -47 0 -42 0 -35 0 +30 0 +25 0 +20 4 -17 0 
-12 0 +9 9 +6 0 +4 0 *
So

0100000
+3 0 *
Co

1100000
+2 0 *

+1 1 
