DBRep_DrawableShape

CASCADE Topology V1, (c) Matra-Datavision
Locations 0
Curve2ds 6
7 0 0  3 7 3  0.44862829439959895 15.690592433285854  0.44863068969867748 15.690593049465219  0.44863308511050953 15.690593665681469  0.44863548065160003 15.690594281939999  0.50264626950193325 15.704488683273333  0.62236420708879991 15.739876272809999  0.80778929341219996 15.796757050549999 
 -4.4353010601499984e-05 4 0 3 1 4
7 0 0  2 3 2  0.80778929341219996 15.796757050549999  0.85577468478179997 18.204584577159999  0.86044760675059995 20.673416795240001 
 0 3 1 3
7 0 0  2 3 2  0.86044760675059995 20.673416795240001  0.84318344397709999 20.66728275538  0.82591928120360003 20.66114871552 
 0 3 0.5 3
7 0 0  2 3 2  0.82591928120360003 20.66114871552  0.55171300271690005 20.563137086569999  0.48635148850659998 20.542835846220001 
 0.5 3 1 3
7 0 0  2 3 2  0.48635148850650001 20.542835846220001  0.4798873803275 18.060484487659998  0.42247757469480002 16.002829942200002 
 0 3 1 3
7 1 0  3 7 3  0.42247757469485642 16.002829942207519  1.20336613269 0.43071809304123609 15.903243247905865  1.1604314443775361 0.43936531975433379 15.799943191864628  1.1113002948989017 0.44862824959844388 15.690592962169982  1.0559726842540964 0.44862826453220966 15.690592785874712  1.0559725994954337 0.44862827946597744 15.690592609579424  1.0559725147367565 0.44862829439959917 15.690592433285859  1.0559724299939115
 0.016981718966070002 4 0.069175792387143747 3 0.069175872345410699 4
Curves 6
7 0 0  3 7 5  2083.4491887737154 874.27611465182702 624.99999739101258  2083.5093480210398 874.22465601070235 624.99999770787429  2083.6637823489987 874.08575861726035 624.99797583358475  2083.9708311903751 873.74379937363528 624.99487713198005  2084.3047008768772 873.24140777534581 624.99663891263958  2084.4965591646583 872.79243358617589 624.99999739111377  2084.5710357013045 872.54377820574541 624.99999739111479 
 -4.4353010601499984e-05 4 0.24996673524204888 1 0.49997782349469927 1 0.74998891174734961 1 1 4
7 0 0  3 4 2  2084.5710357013045 872.54377820574541 624.99999739111479  2085.2145378113955 869.86499454474233 616.72339568299947  2085.8347030095206 867.02034950821792 608.38886577460687  2086.4492207926019 863.99999999998693 599.99999999996362 
 0 4 1 4
7 0 0  3 4 2  2086.4492207926019 863.99999999998693 599.99999999996362  2086.435858654464 864.06281948241065 600.00013934493938  2086.4208312747919 864.12575360473022 600.00012524238753  2086.4040919636955 864.18867531235605 599.99999999980969 
 0 4 0.5 4
7 0 0  3 7 5  2086.4040919636955 864.18867531235605 599.99999999980969  2086.3375882297964 864.43869926355012 599.99999999980287  2086.1630503317569 864.88921201235189 599.99629506414055  2085.8598792773309 865.39050789710518 599.99448849749263  2085.5882955540601 865.72699441189195 599.99789573820146  2085.4604521930901 865.85769367759667 599.99999999994111  2085.4141898196053 865.90328362149728 599.99999999994179 
 0.5 4 0.625 1 0.75 1 0.875 1 1 4
7 0 0  3 4 2  2085.4141898196053 865.90328362149762 599.99999999994168  2084.7806113875813 868.9373161255071 608.46530683849051  2084.1312056251118 871.56894213381884 616.25441148993184  2083.4492207926523 873.86954495028317 623.3405542945211 
 0 4 1 4
7 0 0  3 4 2  2083.4492207926564 873.86954495027123 623.3405542944821  2083.4493435470727 873.99652635831853 623.85045144438971  2083.4494225586182 874.12857909379852 624.38781478231851  2083.4491887737149 874.2761146518269 624.99999739101258 
 0.016981718966070002 4 0.069175872345410699 4
Polygon3D 0
PolygonOnTriangulations 0
Surfaces 1
9 1 1 0 0 2 3 3 4 2 2 2082.4106228345727 875.08895442307619 625.72758298835004  0.88890035807699996 2083.0724161302655 872.30173746328319 616.42697124842323  0.88877446873849997 2083.7361725572077 869.25877935140522 607.20513503747679  0.88861750853209998 2084.398577177325 865.97431937154533 598.0762088072338  0.88836622068250004 
2084.6114598858758 874.3298771296154 626.11067660540698  0.77459091155500004 2085.2749667444755 871.54764438253505 616.82187306304536  0.77433549578109995 2085.9407258902047 868.51007534634482 607.61304374787846  0.77401704059590004 2086.6058977290636 865.23268781529396 598.50274019278845  0.77350720488309999 
2084.5992154270002 872.07079917020019 626.7901083767  1 2085.2599497229999 869.30089611879998 617.54826589300001  1 2085.9225750400001 866.27546796460001 608.38274436890003  1 2086.5836555149999 863.00563512489998 599.3048079852  1 

0.2464400230919 3
1 3

15.50738204039 4
20.857258996580001 4

Triangulations 0

TShapes 16
Ve
0.0003
2083.44920478416 874.276101031728 624.999997702653
0 0

0101101
*
Ve
0.0003
2084.57103570101 872.543778206656 624.999997389758
0 0

0101101
*
Ed
 0.0002 0 0 0
1  1 0 -4.43530106015e-05 1
2  1 1 0 -4.43530106015e-05 1
0

0101000
+16 0 -15 0 *
Ve
0.0003
2086.44922079221 864.000000001844 600.00000000132
0 0

0101101
*
Ed
 0.0002 0 0 0
1  2 0 0 1
2  2 1 0 0 1
0

0101000
+15 0 -13 0 *
Ve
0.0003
2086.40409195721 864.188675336858 600.000000001115
0 0

0101101
*
Ed
 0.0002 0 0 0
1  3 0 0 0.5
2  3 1 0 0 0.5
0

0101000
+13 0 -11 0 *
Ve
0.0003
2085.41418982057 865.903283620931 600.000000001282
0 0

0101101
*
Ed
 0.0002 0 0 0
1  4 0 0.5 1
2  4 1 0 0.5 1
0

0101000
+11 0 -9 0 *
Ve
0.0003
2083.44922079379 873.869544949312 623.340554294185
0 0

0101101
*
Ed
 0.0002 0 0 0
1  5 0 0 1
2  5 1 0 0 1
0

0101000
+9 0 -7 0 *
Ed
 0.0002 0 0 0
1  6 0 0.01698171896607 0.0691758723454107
2  6 1 0 0.01698171896607 0.0691758723454107
0

0101000
+7 0 -16 0 *
Wi

0101000
+14 0 +12 0 +10 0 +8 0 +6 0 +5 0 *
Fa
0  0.001 1 0

0101000
+4 0 *
Sh

0101000
+3 0 *
Co

1100000
+2 0 *

+1 0 