DBRep_DrawableShape

CASCADE Topology V1, (c) Matra-Datavision
Locations 0
Curve2ds 32
1 0 0 1 0 
1 0 0 1 0 
1 5 0 0 -1 
1 0 0 0 1 
1 0 -10 1 0 
1 0 0 1 0 
1 0 0 0 -1 
1 0 0 0 1 
1 0 0 1 0 
1 0 10 1 0 
1 5 0 0 -1 
1 10 0 0 1 
1 0 -10 1 0 
1 0 10 1 0 
1 0 0 0 -1 
1 10 0 0 1 
1 0 0 0 1 
1 0 0 1 0 
1 5 0 0 1 
1 0 0 1 0 
1 0 0 0 1 
1 0 10 1 0 
1 5 0 0 1 
1 0 10 1 0 
1 4 4 0 1 
1 0 0 0 1 
1 4 4 1 0 
1 0 0 1 0 
1 6 4 0 1 
1 2 0 0 1 
1 4 6 1 0 
1 0 2 1 0 
Curves 16
1 0 0 0 0 0 1 
1 0 0 5 -0 1 0 
1 0 10 0 0 0 1 
1 0 0 0 -0 1 0 
1 10 0 0 0 0 1 
1 10 0 5 -0 1 0 
1 10 10 0 0 0 1 
1 10 0 0 -0 1 0 
1 0 0 0 1 0 -0 
1 0 0 5 1 0 -0 
1 0 10 0 1 0 -0 
1 0 10 5 1 0 -0 
1 4 4 5 -0 1 0 
1 4 4 5 1 0 -0 
1 6 4 5 -0 1 0 
1 4 6 5 1 0 -0 
Polygon3D 0
PolygonOnTriangulations 0
Surfaces 7
1 0 0 0 1 0 -0 0 0 1 0 -1 0 
1 0 0 0 -0 1 0 0 0 1 1 0 -0 
1 0 0 5 0 0 1 1 0 -0 -0 1 0 
1 0 10 0 -0 1 0 0 0 1 1 0 -0 
1 0 0 0 0 0 1 1 0 -0 -0 1 0 
1 10 0 0 1 0 -0 0 0 1 0 -1 0 
1 4 4 5 0 0 1 1 0 -0 -0 1 0 
Triangulations 0

TShapes 45
Ve
1e-07
0 0 5
0 0

0101101
*
Ve
1e-07
0 0 0
0 0

0101101
*
Ed
 1e-07 1 1 0
1  1 0 0 5
2  1 1 0 0 5
2  2 2 0 0 5
0

0101000
-45 0 +44 0 *
Ve
1e-07
0 10 5
0 0

0101101
*
Ed
 1e-07 1 1 0
1  2 0 0 10
2  3 1 0 0 10
2  4 3 0 0 10
0

0101000
-42 0 +45 0 *
Ve
1e-07
0 10 0
0 0

0101101
*
Ed
 1e-07 1 1 0
1  3 0 0 5
2  5 1 0 0 5
2  6 4 0 0 5
0

0101000
-42 0 +40 0 *
Ed
 1e-07 1 1 0
1  4 0 0 10
2  7 1 0 0 10
2  8 5 0 0 10
0

0101000
-40 0 +44 0 *
Wi

0101100
-43 0 -41 0 +39 0 +38 0 *
Fa
0  1e-07 1 0

0111000
+37 0 *
Ve
1e-07
10 0 5
0 0

0101101
*
Ve
1e-07
10 0 0
0 0

0101101
*
Ed
 1e-07 1 1 0
1  5 0 0 5
2  9 6 0 0 5
2  10 2 0 0 5
0

0101000
-35 0 +34 0 *
Ve
1e-07
10 10 5
0 0

0101101
*
Ed
 1e-07 1 1 0
1  6 0 0 10
2  11 6 0 0 10
2  12 3 0 0 10
0

0101000
-32 0 +35 0 *
Ve
1e-07
10 10 0
0 0

0101101
*
Ed
 1e-07 1 1 0
1  7 0 0 5
2  13 6 0 0 5
2  14 4 0 0 5
0

0101000
-32 0 +30 0 *
Ed
 1e-07 1 1 0
1  8 0 0 10
2  15 6 0 0 10
2  16 5 0 0 10
0

0101000
-30 0 +34 0 *
Wi

0101100
-33 0 -31 0 +29 0 +28 0 *
Fa
0  1e-07 6 0

0111000
+27 0 *
Ed
 1e-07 1 1 0
1  9 0 0 10
2  17 2 0 0 10
2  18 5 0 0 10
0

0101000
-34 0 +44 0 *
Ed
 1e-07 1 1 0
1  10 0 0 10
2  19 2 0 0 10
2  20 3 0 0 10
0

0101000
-35 0 +45 0 *
Wi

0101100
-25 0 -33 0 +24 0 +43 0 *
Fa
0  1e-07 2 0

0111000
+23 0 *
Ed
 1e-07 1 1 0
1  11 0 0 10
2  21 4 0 0 10
2  22 5 0 0 10
0

0101000
-30 0 +40 0 *
Ed
 1e-07 1 1 0
1  12 0 0 10
2  23 4 0 0 10
2  24 3 0 0 10
0

0101000
-32 0 +42 0 *
Wi

0101100
-21 0 -29 0 +20 0 +39 0 *
Fa
0  1e-07 4 0

0111000
+19 0 *
Wi

0101100
-38 0 -21 0 +28 0 +25 0 *
Fa
0  1e-07 5 0

0111000
+17 0 *
Wi

0101100
-41 0 -20 0 +24 0 +31 0 *
Ve
1e-07
4 6 5
0 0

0101101
*
Ve
1e-07
4 4 5
0 0

0101101
*
Ed
 1e-07 1 1 0
1  13 0 0 2
2  25 3 0 0 2
2  26 7 0 0 2
0

0101000
-14 0 +13 0 *
Ve
1e-07
6 4 5
0 0

0101101
*
Ed
 1e-07 1 1 0
1  14 0 0 2
2  27 3 0 0 2
2  28 7 0 0 2
0

0101000
-11 0 +13 0 *
Ve
1e-07
6 6 5
0 0

0101101
*
Ed
 1e-07 1 1 0
1  15 0 0 2
2  29 3 0 0 2
2  30 7 0 0 2
0

0101000
-9 0 +11 0 *
Ed
 1e-07 1 1 0
1  16 0 0 2
2  31 3 0 0 2
2  32 7 0 0 2
0

0101000
-9 0 +14 0 *
Wi

0101100
+12 0 -10 0 -8 0 +7 0 *
Fa
0  1e-07 3 0

0111000
+15 0 +6 0 *
Wi

0101100
-12 0 -7 0 +8 0 +10 0 *
Fa
0  1e-07 7 0

0111000
+4 0 *
Sh

0101100
-36 0 +26 0 -22 0 +18 0 -16 0 +5 0 +3 0 *
So

1100000
+2 0 *

+1 0 
0

