DBRep_DrawableShape

CASCADE Topology V1, (c) Matra-Datavision
Locations 2
1
              1               0               0               0 
              0               1               0               2 
              0               0               1               0 
2  1 -1 0
Curve2ds 96
1 0 0 0 1 
1 0 0 0 1 
1 0 0 0 1 
1 0 0 0 1 
1 0 0.19999999999999996 1 0 
1 0 0 1 0 
1 0 1.8 1 0 
1 0 0 1 0 
1 1.5707963267948966 0 0 1 
1 6.2831853071795862 0.19999999999999996 -1 -0 
1 0 -6.2831853071795862 0 1 
1 1.5707963267948966 0 0 1 
1 6.2831853071795862 1.8 -1 -0 
1 0 -6.2831853071795862 0 1 
1 6.2831853071795862 0.19999999999999996 -1 -0 
1 0 -6.2831853071795862 0 1 
1 1.5707963267948966 0 0 1 
1 0 1.8 1 0 
1 0 0 1 0 
1 0 0.19999999999999996 1 0 
1 0 0 1 0 
1 6.2831853071795862 1.8 -1 -0 
1 0 -6.2831853071795862 0 1 
1 1.5707963267948966 0 0 1 
1 0 -1.5707963267948966 1 0 
1 1.5707963267948966 -6.2831853071795862 0 1 
1 6.2831853071795862 0.19999999999999996 -1 -0 
1 0 -1.5707963267948966 1 0 
1 1.5707963267948966 -6.2831853071795862 0 1 
1 6.2831853071795862 0.19999999999999996 -1 -0 
1 0 0 0 1 
1 0 0 0 1 
1 1.5707963267948966 0 0 1 
1 1.5707963267948966 0 0 1 
1 1.5707963267948966 0 0 1 
1 1.5707963267948966 0 0 1 
1 0 -1.5707963267948966 1 0 
1 1.5707963267948966 -6.2831853071795862 0 1 
1 6.2831853071795862 0.19999999999999996 -1 -0 
1 1.5707963267948966 0 0 1 
1 1.5707963267948966 0 0 1 
1 1.5707963267948966 0 0 1 
1 0 -1.5707963267948966 1 0 
1 1.5707963267948966 -6.2831853071795862 0 1 
1 -4.7123889803846897 0.19999999999999996 1 0 
1 0 0 0 1 
1 1.5707963267948966 0 0 1 
1 6.2831853071795862 -1 -1 0 
1 0 0 0 1 
1 6.2831853071795862 1.8 -1 -0 
1 1.5707963267948966 -6.2831853071795862 0 1 
1 6.2831853071795862 1.8 -1 -0 
1 1.5707963267948966 -6.2831853071795862 0 1 
1 0 0 0 1 
1 0 0.19999999999999996 1 0 
1 0 0 1 0 
1 0 1.8 1 0 
1 0 0 1 0 
1 6.2831853071795862 1.8 -1 -0 
1 1.5707963267948966 -6.2831853071795862 0 1 
1 6.2831853071795862 0.19999999999999996 -1 -0 
1 0 -6.2831853071795862 0 1 
1 0 0 0 1 
1 6.2831853071795862 1.8 -1 -0 
1 0 -6.2831853071795862 0 1 
1 -4.7123889803846897 1.8 1 0 
1 1.5707963267948966 -6.2831853071795862 0 1 
1 6.2831853071795862 0.19999999999999996 -1 -0 
1 0 -6.2831853071795862 0 1 
1 0 0 0 1 
1 0 1.8 1 0 
1 0 0 1 0 
1 0 0 0 1 
7 0 0  7 8 2  0 0.36010205144336438  0.15286672267777884 0.36010205144336438  0.30431075652297795 0.3589888647536767  0.45483792549101743 0.35680115908718413  0.60473486387175202 0.35401032529599946  0.75393714395485034 0.35147835809949096  0.90186271185853895 0.35000000451633811  1.0471975511965974 0.34999999999999998 
 0 8 1 8
7 0 0  7 8 2  2.9402347327994622 -0.80000000000000004  2.9402347327994622 -0.83057334453555587  2.9513644965289831 -0.86086245380403814  2.9732530508794666 -0.88979935579788927  3.0049513497168538 -0.91638006941347139  3.0449323540941386 -0.93961117374869929  3.0912471922938458 -0.95867159346920106  3.1415926535897931 -0.97320508075688772 
 0 8 1 8
1 0 0.34999999999999998 1 0 
1 0 0.19999999999999996 1 0 
1 0 0 1 0 
1 0 0 0 -1 
1 3.1415926535897931 0 0 -1 
1 3.1415926535897931 0 0 -1 
1 0 -2 1 0 
1 0 1.3500000000000001 1 0 
1 0 0 0 -1 
1 6.2831853071795862 1.8 -1 -0 
1 0 -6.2831853071795862 0 1 
7 0 0  7 8 2  0 1.3398979485566356  0.15286672267479071 1.3398979485566356  0.30431075652667761 1.3410111352462841  0.45483792549247881 1.3431988409129421  0.60473486386795727 1.3459896747038653  0.75393714395507194 1.3485216419005579  0.90186271185983313 1.3499999954836619  1.0471975511965974 1.3500000000000001 
 0 8 1 8
7 0 0  7 8 2  0.20135792079033088 -0.80000000000000004  0.20135792079033088 -0.83057334453495812  0.19022815706129231 -0.8608624538048284  0.16833960270884635 -0.88979935579803771  0.13664130387428056 -0.91638006941279815  0.096660299495667595 -0.93961117374885772  0.050345461295498724 -0.95867159346933051  0 -0.97320508075688772 
 0 8 1 8
1 0 -1.5707963267948966 1 0 
1 0 -1.5707963267948966 1 0 
1 0.20135792079033077 0 0 1 
1 2.9402347327994627 0 0 1 
1 0 -1.5707963267948966 1 0 
1 0 -1.5707963267948966 1 0 
1 0 0 1 0 
1 0 -2 1 0 
Curves 69
1 -1 -0.80000000000000004 -1 0 0 1 
1 -1 -1 -0.80000000000000004 -0 1 0 
1 -1 -1 0.80000000000000004 -0 1 0 
1 -1 0.80000000000000004 -1 0 0 1 
2 -0.80000000000000004 -0.80000000000000004 -0.80000000000000004 0 0 1 -1 0 0 0 -1 0 0.20000000000000001
2 -0.80000000000000004 -0.80000000000000004 0.80000000000000004 0 0 1 -1 0 0 0 -1 0 0.20000000000000001
1 -0.80000000000000004 -1 -1 0 0 1 
2 -0.80000000000000004 -0.80000000000000004 -0.80000000000000004 0 1 -0 -1 0 0 0 0 1 0.20000000000000001
1 -0.80000000000000004 -1 -1 -0 1 0 
2 -0.80000000000000004 0.80000000000000004 -0.80000000000000004 0 1 -0 -1 0 0 0 0 1 0.20000000000000001
2 -0.80000000000000004 -0.80000000000000004 0.80000000000000004 0 -1 0 -1 0 0 -0 -0 -1 0.20000000000000001
1 -0.80000000000000004 -1 1 -0 1 0 
2 -0.80000000000000004 0.80000000000000004 0.80000000000000004 -0 1 0 -1 -0 0 0 0 1 0.20000000000000001
2 -0.80000000000000004 0.80000000000000004 -0.80000000000000004 -0 0 -1 -1 0 0 0 1 -0 0.20000000000000001
2 -0.80000000000000004 0.80000000000000004 0.80000000000000004 0 0 1 -1 -0 0 0 -1 0 0.20000000000000001
1 -0.80000000000000004 1 -1 0 0 1 
2 -0.80000000000000004 -0.80000000000000004 -0.80000000000000004 -1 6.123233995736766e-17 0 -6.123233995736766e-17 -1 0 0 0 1 0.20000000000000001
2 -0.80000000000000004 -0.80000000000000004 0.80000000000000004 1 -6.123233995736766e-17 0 -6.123233995736766e-17 -1 0 0 -0 -1 0.20000000000000001
1 -1 -1 -0.80000000000000004 1 0 -0 
1 -1 -1 0.80000000000000004 1 0 -0 
1 0.80000000000000004 -1 -1 0 0 1 
1 -1 -0.80000000000000004 -1 1 0 -0 
1 -1 0.80000000000000004 -1 1 0 -0 
1 0.80000000000000004 -1 -1 -0 1 0 
2 -0.80000000000000004 0.80000000000000004 -0.80000000000000004 1 6.123233995736766e-17 -0 -6.123233995736766e-17 1 0 0 0 1 0.20000000000000001
1 -1 -0.80000000000000004 1 1 0 -0 
1 -1 0.80000000000000004 1 1 0 -0 
1 0.80000000000000004 -1 1 -0 1 0 
2 -0.80000000000000004 0.80000000000000004 0.80000000000000004 1 0 6.123233995736766e-17 -6.123233995736766e-17 -0 1 0 -1 0 0.20000000000000001
1 -1 1 -0.80000000000000004 1 0 -0 
1 0.80000000000000004 1 -1 0 0 1 
1 -0.049999999999999989 1 -0.65000000000000002 1 0 -0 
2 0.40000000000000002 1 -0.15000000000000002 0 -1 -0 0 0 -1 1 -0 0 0.5
1 -0.29999999999999999 1 0.35000000000000003 -1 0 -0 
1 0.80000000000000004 1 -1 0 0 1 
1 -1 1 0.80000000000000004 1 0 -0 
2 0.80000000000000004 -0.80000000000000004 -0.80000000000000004 -1 -6.123233995736766e-17 0 6.123233995736766e-17 -1 -0 0 0 1 0.20000000000000001
2 0.80000000000000004 -0.80000000000000004 0.80000000000000004 1 6.123233995736766e-17 0 6.123233995736766e-17 -1 0 0 -0 -1 0.20000000000000001
1 1 -0.80000000000000004 -1 0 0 1 
2 0.80000000000000004 -0.80000000000000004 -0.80000000000000004 0 -0 -1 1 0 -0 0 -1 0 0.20000000000000001
2 0.80000000000000004 -0.80000000000000004 0.80000000000000004 0 0 -1 1 0 0 0 -1 0 0.20000000000000001
2 0.80000000000000004 0.80000000000000004 -0.80000000000000004 1 -6.123233995736766e-17 0 6.123233995736766e-17 1 0 -0 0 1 0.20000000000000001
2 0.80000000000000004 -0.80000000000000004 -0.80000000000000004 0 -1 0 1 0 0 -0 0 1 0.20000000000000001
1 1 -1 -0.80000000000000004 -0 1 0 
2 0.80000000000000004 0.80000000000000004 -0.80000000000000004 0 -1 0 1 0 0 -0 0 1 0.20000000000000001
2 0.80000000000000004 0.80000000000000004 0.80000000000000004 1 0 -6.123233995736766e-17 6.123233995736766e-17 0 1 0 -1 0 0.20000000000000001
2 0.80000000000000004 -0.80000000000000004 0.80000000000000004 -0 1 0 1 0 0 0 0 -1 0.20000000000000001
1 1 -1 0.80000000000000004 -0 1 0 
2 0.80000000000000004 0.80000000000000004 0.80000000000000004 0 -1 -0 1 0 0 0 -0 1 0.20000000000000001
1 1 0.80000000000000004 -1 0 0 1 
7 0 0  7 8 2  1 0.80000000000000004 -0.63989794855663562  1 0.83057334453555587 -0.63989794855663562  0.99454746603952027 0.86086245380405269 -0.64101113669150522  0.98382462560022466 0.8897993557978553 -0.64319883604428629  0.96821755587405622 0.91638006941350314 -0.64598968202657325  0.94832992716675835 0.93961117374868719 -0.64852163607206481  0.92517273064797356 0.95867159346920106 -0.64999999767636352  0.90000000000000013 0.97320508075688772 -0.65000000000000002 
 0 8 1 8
2 0.80000000000000004 0.80000000000000004 -0.65000000000000002 0 0 1 1 0 -0 -0 1 0 0.20000000000000001
2 0.80000000000000004 0.80000000000000004 -0.80000000000000004 0 0 1 1 0 -0 -0 1 0 0.20000000000000001
1 0.40000000000000002 0 -0.65000000000000002 0 1 0 
1 0.90000000000000002 0 -0.65000000000000002 -1 0 0 
1 0.90000000000000002 0 -0.65000000000000002 0 1 0 
1 0.40000000000000002 0 0.34999999999999998 0 1 0 
2 0.40000000000000002 0 -0.15000000000000002 0 1 0 0 0 -1 -1 0 0 0.5
2 0.80000000000000004 0.80000000000000004 0.35000000000000009 0 0 1 1 0 -0 -0 1 0 0.20000000000000001
1 0.90000000000000002 0 0.34999999999999998 0 1 0 
1 0.40000000000000002 0 0.34999999999999998 1 0 0 
1 1 0.80000000000000004 -1 0 0 1 
2 0.80000000000000004 0.80000000000000004 0.80000000000000004 0 0 -1 1 0 0 0 -1 0 0.20000000000000001
7 0 0  7 8 2  1 0.80000000000000004 0.33989794855663558  1 0.83057334453495824 0.33989794855663558  0.99454746603975863 0.86086245380481285 0.34101113669146688  0.98382462559949679 0.88979935579807679 0.34319883604441037  0.9682175558747117 0.91638006941275951 0.3459896820264402  0.94832992716677145 0.9396111737488726 0.34852163607211289  0.92517273064774941 0.9586715934693304 0.34999999767636353  0.90000000000000013 0.97320508075688772 0.35000000000000003 
 0 8 1 8
1 1 0 0.33989794855663558 0 -1 0 
1 1 0 -0.57499999999999996 0 -0 1 
1 1 0 -0.63989794855663562 0 -1 0 
2 0.90000000000000002 0 -0.15000000000000002 0 1 0 0 0 1 1 0 0 0.5
2 0.90000000000000002 0 -0.15000000000000002 0 1 0 0 0 1 1 0 0 0.5
Polygon3D 0
PolygonOnTriangulations 0
Surfaces 33
1 -1 -1 -1 1 0 -0 0 0 1 0 -1 0 
2 -0.80000000000000004 -0.80000000000000004 -1 0 0 1 -1 -0 0 0 -1 0 0.20000000000000001
2 -0.80000000000000004 -1 -0.80000000000000004 -0 1 0 -1 -0 0 -0 -0 -1 0.20000000000000001
2 -0.80000000000000004 -1 0.80000000000000004 -0 1 0 -1 -0 0 0 0 1 0.20000000000000001
2 -0.80000000000000004 0.80000000000000004 -1 0 0 1 -1 -0 0 -0 1 -0 0.20000000000000001
4 -0.80000000000000004 -0.80000000000000004 -0.80000000000000004 0 0 1 -1 0 0 0 -1 0 0.20000000000000001
4 -0.80000000000000004 -0.80000000000000004 0.80000000000000004 -0 -0 -1 -1 0 0 -0 -1 0 0.20000000000000001
1 -1 -1 -1 -0 1 0 0 0 1 1 0 -0 
1 -1 -1 -1 0 0 1 1 0 -0 -0 1 0 
4 -0.80000000000000004 0.80000000000000004 -0.80000000000000004 0 0 1 -1 0 0 -0 1 -0 0.20000000000000001
1 -1 -1 1 0 0 1 1 0 -0 -0 1 0 
4 -0.80000000000000004 0.80000000000000004 0.80000000000000004 0 -1 -0 -1 -0 0 0 -0 1 0.20000000000000001
1 -1 1 -1 -0 1 0 0 0 1 1 0 -0 
2 -1 -0.80000000000000004 -0.80000000000000004 1 0 -0 0 -1 0 0 -0 -1 0.20000000000000001
2 -1 -0.80000000000000004 0.80000000000000004 1 0 -0 0 -1 0 -0 0 1 0.20000000000000001
2 0.80000000000000004 -0.80000000000000004 -1 0 0 1 1 0 -0 0 -1 -0 0.20000000000000001
2 -1 0.80000000000000004 -0.80000000000000004 1 0 -0 0 1 0 -0 0 -1 0.20000000000000001
2 0.80000000000000004 -1 -0.80000000000000004 -0 1 0 1 0 -0 -0 0 -1 0.20000000000000001
2 -1 0.80000000000000004 0.80000000000000004 1 0 -0 0 1 0 0 -0 1 0.20000000000000001
2 0.80000000000000004 -1 0.80000000000000004 -0 1 0 1 0 -0 0 -0 1 0.20000000000000001
2 0.80000000000000004 0.80000000000000004 -1 0 0 1 1 0 -0 -0 1 0 0.20000000000000001
2 0.40000000000000002 0 -0.15000000000000002 -0 -1 -0 0 0 -1 -1 0 0 0.5
2 0.80000000000000004 0.80000000000000004 -1 0 0 1 1 0 -0 -0 1 0 0.20000000000000001
4 0.80000000000000004 -0.80000000000000004 -0.80000000000000004 0 0 1 1 0 -0 0 -1 -0 0.20000000000000001
4 0.80000000000000004 -0.80000000000000004 0.80000000000000004 -0 -0 -1 1 0 0 0 -1 0 0.20000000000000001
1 1 -1 -1 1 0 -0 0 0 1 0 -1 0 
4 0.80000000000000004 0.80000000000000004 -0.80000000000000004 0 0 1 1 0 -0 -0 1 0 0.20000000000000001
4 0.80000000000000004 0.80000000000000004 0.80000000000000004 0 -1 -0 1 0 0 0 -0 1 0.20000000000000001
2 0.90000000000000002 0 -0.15000000000000002 0 -1 0 0 0 1 1 0 0 0.5
1 0.90000000000000002 0 -0.65000000000000002 0 0 1 -1 0 0 0 -1 0 
1 0.40000000000000002 0 0.34999999999999998 0 0 -1 1 0 0 0 -1 0 
1 0.90000000000000002 0 -0.15000000000000002 0 1 0 0 0 1 1 0 0 
1 0.90000000000000002 0 -0.15000000000000002 0 1 0 0 0 1 1 0 0 
Triangulations 0

TShapes 183
Ve
1e-07
-1 -0.8 -0.8
0 0

0101101
*
Ve
1e-07
-1 -0.8 0.8
0 0

0101101
*
Ed
 1e-07 1 1 0
1  1 0 0.2 1.8
2  1 2 0 0.2 1.8
4 G1 1 0 2 0
0

0101000
+183 0 -182 0 *
Ve
1e-07
-1 0.8 -0.8
0 0

0101101
*
Ed
 1e-07 1 1 0
1  2 0 0.2 1.8
2  2 3 0 0.2 1.8
4 G1 1 0 3 0
0

0101000
+183 0 -180 0 *
Ve
1e-07
-1 0.8 0.8
0 0

0101101
*
Ed
 1e-07 1 1 0
1  3 0 0.2 1.8
2  3 4 0 0.2 1.8
4 G1 1 0 4 0
0

0101000
+182 0 -178 0 *
Ed
 1e-07 1 1 0
1  4 0 0.2 1.8
2  4 5 0 0.2 1.8
4 G1 1 0 5 0
0

0101000
+180 0 -178 0 *
Wi

0101100
-181 0 +179 0 -177 0 +176 0 *
Fa
0  1e-07 1 0

0111000
+175 0 *
Ve
1e-07
-0.8 -1 -0.8
0 0

0101101
*
Ed
 1e-07 1 1 0
1  5 0 0 1.5707963267949
2  5 2 0 0 1.5707963267949
2  6 6 0 0 1.5707963267949
4 G1 2 0 6 0
0

0101000
+183 0 -173 0 *
Ve
1e-07
-0.8 -1 0.8
0 0

0101101
*
Ed
 1e-07 1 1 0
1  6 0 0 1.5707963267949
2  7 2 0 0 1.5707963267949
2  8 7 0 0 1.5707963267949
4 G1 2 0 7 0
0

0101000
+182 0 -171 0 *
Ed
 1e-07 1 1 0
1  7 0 0.2 1.8
2  9 2 0 0.2 1.8
4 G1 2 0 8 0
0

0101000
+173 0 -171 0 *
Wi

0101100
-181 0 +172 0 -170 0 +169 0 *
Fa
0  1e-07 2 0

0111000
+168 0 *
Ve
1e-07
-0.8 -0.8 -1
0 0

0101101
*
Ed
 1e-07 1 1 0
1  8 0 4.71238898038469 6.28318530717959
2  10 3 0 4.71238898038469 6.28318530717959
2  11 6 0 4.71238898038469 6.28318530717959
4 G1 3 0 6 0
0

0101000
+166 0 -183 0 *
Ve
1e-07
-0.8 0.8 -1
0 0

0101101
*
Ed
 1e-07 1 1 0
1  9 0 0.2 1.8
2  12 3 0 0.2 1.8
4 G1 3 0 9 0
0

0101000
+166 0 -164 0 *
Ed
 1e-07 1 1 0
1  10 0 4.71238898038469 6.28318530717959
2  13 3 0 4.71238898038469 6.28318530717959
2  14 10 0 4.71238898038469 6.28318530717959
4 G1 3 0 10 0
0

0101000
+164 0 -180 0 *
Wi

0101100
-165 0 +163 0 -179 0 +162 0 *
Fa
0  1e-07 3 0

0111000
+161 0 *
Ve
1e-07
-0.8 -0.8 1
0 0

0101101
*
Ed
 1e-07 1 1 0
1  11 0 4.71238898038469 6.28318530717959
2  15 4 0 4.71238898038469 6.28318530717959
2  16 7 0 4.71238898038469 6.28318530717959
4 G1 4 0 7 0
0

0101000
+159 0 -182 0 *
Ve
1e-07
-0.8 0.8 1
0 0

0101101
*
Ed
 1e-07 1 1 0
1  12 0 0.2 1.8
2  17 4 0 0.2 1.8
4 G1 4 0 11 0
0

0101000
+159 0 -157 0 *
Ed
 1e-07 1 1 0
1  13 0 0 1.5707963267949
2  18 4 0 0 1.5707963267949
2  19 12 0 0 1.5707963267949
4 G1 4 0 12 0
0

0101000
+178 0 -157 0 *
Wi

0101100
-158 0 +156 0 -177 0 -155 0 *
Fa
0  1e-07 4 0

0111000
+154 0 *
Ve
1e-07
-0.8 1 -0.8
0 0

0101101
*
Ed
 1e-07 1 1 0
1  14 0 0 1.5707963267949
2  20 5 0 0 1.5707963267949
2  21 10 0 0 1.5707963267949
4 G1 5 0 10 0
0

0101000
+180 0 -152 0 *
Ve
1e-07
-0.8 1 0.8
0 0

0101101
*
Ed
 1e-07 1 1 0
1  15 0 4.71238898038469 6.28318530717959
2  22 5 0 4.71238898038469 6.28318530717959
2  23 12 0 4.71238898038469 6.28318530717959
4 G1 5 0 12 0
0

0101000
+150 0 -178 0 *
Ed
 1e-07 1 1 0
1  16 0 0.2 1.8
2  24 5 0 0.2 1.8
4 G1 5 0 13 0
0

0101000
+152 0 -150 0 *
Wi

0101100
-176 0 +151 0 +149 0 +148 0 *
Fa
0  1e-07 5 0

0111000
+147 0 *
Ed
 1e-07 1 1 1
2  25 6 0 0 1.5707963267949
0

0101000
+166 0 -166 0 *
Ed
 1e-07 1 1 0
1  17 0 4.71238898038469 6.28318530717959
2  26 6 0 4.71238898038469 6.28318530717959
2  27 14 0 4.71238898038469 6.28318530717959
4 G1 6 0 14 0
0

0101000
+166 0 -173 0 *
Wi

0101100
-165 0 +145 0 +144 0 -172 0 *
Fa
0  1e-07 6 0

0111000
+143 0 *
Ed
 1e-07 1 1 1
2  28 7 0 0 1.5707963267949
0

0101000
+159 0 -159 0 *
Ed
 1e-07 1 1 0
1  18 0 4.71238898038469 6.28318530717959
2  29 7 0 4.71238898038469 6.28318530717959
2  30 15 0 4.71238898038469 6.28318530717959
4 G1 7 0 15 0
0

0101000
+159 0 -171 0 *
Wi

0101100
-158 0 +141 0 +140 0 -170 0 *
Fa
0  1e-07 7 0

0111000
+139 0 *
Ve
1e-07
0.8 -1 -0.8
0 0

0101101
*
Ed
 1e-07 1 1 0
1  19 0 0.2 1.8
2  31 14 0 0.2 1.8
4 G1 8 0 14 0
0

0101000
+173 0 -137 0 *
Ve
1e-07
0.8 -1 0.8
0 0

0101101
*
Ed
 1e-07 1 1 0
1  20 0 0.2 1.8
2  32 15 0 0.2 1.8
4 G1 8 0 15 0
0

0101000
+171 0 -135 0 *
Ed
 1e-07 1 1 0
1  21 0 0.2 1.8
2  33 16 0 0.2 1.8
4 G1 8 0 16 0
0

0101000
+137 0 -135 0 *
Wi

0101100
+169 0 -136 0 +134 0 -133 0 *
Fa
0  1e-07 8 0

0111000
+132 0 *
Ve
1e-07
0.8 -0.8 -1
0 0

0101101
*
Ed
 1e-07 1 1 0
1  22 0 0.2 1.8
2  34 14 0 0.2 1.8
4 G1 9 0 14 0
0

0101000
+166 0 -130 0 *
Ve
1e-07
0.8 0.8 -1
0 0

0101101
*
Ed
 1e-07 1 1 0
1  23 0 0.2 1.8
2  35 17 0 0.2 1.8
4 G1 9 0 17 0
0

0101000
+164 0 -128 0 *
Ed
 1e-07 1 1 0
1  24 0 0.2 1.8
2  36 18 0 0.2 1.8
4 G1 9 0 18 0
0

0101000
+130 0 -128 0 *
Wi

0101100
-163 0 +129 0 -127 0 +126 0 *
Fa
0  1e-07 9 0

0111000
+125 0 *
Ed
 1e-07 1 1 1
2  37 10 0 0 1.5707963267949
0

0101000
+164 0 -164 0 *
Ed
 1e-07 1 1 0
1  25 0 4.71238898038469 6.28318530717959
2  38 10 0 4.71238898038469 6.28318530717959
2  39 17 0 4.71238898038469 6.28318530717959
4 G1 10 0 17 0
0

0101000
+164 0 -152 0 *
Wi

0101100
-162 0 +123 0 +122 0 -151 0 *
Fa
0  1e-07 10 0

0111000
+121 0 *
Ve
1e-07
0.8 -0.8 1
0 0

0101101
*
Ed
 1e-07 1 1 0
1  26 0 0.2 1.8
2  40 15 0 0.2 1.8
4 G1 11 0 15 0
0

0101000
+159 0 -119 0 *
Ve
1e-07
0.8 0.8 1
0 0

0101101
*
Ed
 1e-07 1 1 0
1  27 0 0.2 1.8
2  41 19 0 0.2 1.8
4 G1 11 0 19 0
0

0101000
+157 0 -117 0 *
Ed
 1e-07 1 1 0
1  28 0 0.2 1.8
2  42 20 0 0.2 1.8
4 G1 11 0 20 0
0

0101000
+119 0 -117 0 *
Wi

0101100
-156 0 +118 0 -116 0 +115 0 *
Fa
0  1e-07 11 0

0111000
+114 0 *
Ed
 1e-07 1 1 1
2  43 12 0 0 1.5707963267949
0

0101000
+150 0 -150 0 *
Ed
 1e-07 1 1 0
1  29 0 4.71238898038469 6.28318530717959
2  44 12 0 4.71238898038469 6.28318530717959
2  45 19 0 4.71238898038469 6.28318530717959
4 G1 12 0 19 0
0

0101000
+150 0 -157 0 *
Wi

0101100
-149 0 +112 0 +111 0 -155 0 *
Fa
0  1e-07 12 0

0111000
+110 0 *
Ve
1e-07
0.8 1 -0.8
0 0

0101101
*
Ed
 1e-07 1 1 0
1  30 0 0.2 1.8
2  46 17 0 0.2 1.8
4 G1 13 0 17 0
0

0101000
+152 0 -108 0 *
Ve
1.5e-07
0.8 1 -0.65
0 0

0101101
*
Ed
 1e-07 1 1 0
1  31 0 0.2 0.35
2  47 21 0 0.2 0.35
4 G1 13 0 21 0
0

0101000
+108 0 -106 0 *
Ve
1.5e-07
0.4 1 -0.65
0 0

0101101
*
Ed
 1.5e-07 1 1 0
1  32 0 0.45 0.85
0

0101000
+104 0 -106 0 *
Ve
1.50000000078505e-07
0.4 1 0.35
0 0

0101101
*
Ed
 1e-07 1 1 0
1  33 0 3.14159265358979 6.28318530717959
2  48 22 0 3.14159265358979 6.28318530717959
0

0101000
+102 0 -104 0 *
Ve
1.50000000055511e-07
0.8 1 0.35
0 0

0101101
*
Ed
 1.5e-07 1 1 0
1  34 0 -1.1 -0.7
0

0101000
+100 0 -102 0 *
Ve
1e-07
0.8 1 0.8
0 0

0101101
*
Ed
 1e-07 1 1 0
1  35 0 1.35 1.8
2  47 23 0 1.35 1.8
4 G1 13 0 23 0
0

0101000
+100 0 -98 0 *
Ed
 1e-07 1 1 0
1  36 0 0.2 1.8
2  49 19 0 0.2 1.8
4 G1 13 0 19 0
0

0101000
+150 0 -98 0 *
Wi

0101100
-107 0 -105 0 +103 0 +101 0 +99 0 -97 0 +96 0 +148 0 *
Fa
0  1e-07 13 0

0111000
+95 0 *
Ed
 1e-07 1 1 0
1  37 0 4.71238898038469 6.28318530717959
2  50 14 0 4.71238898038469 6.28318530717959
2  51 24 0 4.71238898038469 6.28318530717959
4 G1 14 0 24 0
0

0101000
+130 0 -137 0 *
Wi

0101100
-144 0 +129 0 -136 0 +93 0 *
Fa
0  1e-07 14 0

0111000
+92 0 *
Ed
 1e-07 1 1 0
1  38 0 4.71238898038469 6.28318530717959
2  52 15 0 4.71238898038469 6.28318530717959
2  53 25 0 4.71238898038469 6.28318530717959
4 G1 15 0 25 0
0

0101000
+119 0 -135 0 *
Wi

0101100
-140 0 +118 0 -134 0 +90 0 *
Fa
0  1e-07 15 0

0111000
+89 0 *
Ve
1e-07
1 -0.8 -0.8
0 0

0101101
*
Ve
1e-07
1 -0.8 0.8
0 0

0101101
*
Ed
 1e-07 1 1 0
1  39 0 0.2 1.8
2  54 16 0 0.2 1.8
4 G1 16 0 26 0
0

0101000
+87 0 -86 0 *
Ed
 1e-07 1 1 0
1  40 0 0 1.5707963267949
2  55 16 0 0 1.5707963267949
2  56 24 0 0 1.5707963267949
4 G1 16 0 24 0
0

0101000
+87 0 -137 0 *
Ed
 1e-07 1 1 0
1  41 0 0 1.5707963267949
2  57 16 0 0 1.5707963267949
2  58 25 0 0 1.5707963267949
4 G1 16 0 25 0
0

0101000
+86 0 -135 0 *
Wi

0101100
-85 0 +84 0 -83 0 +133 0 *
Fa
0  1e-07 16 0

0111000
+82 0 *
Ed
 1e-07 1 1 0
1  42 0 4.71238898038469 6.28318530717959
2  59 17 0 4.71238898038469 6.28318530717959
2  60 27 0 4.71238898038469 6.28318530717959
4 G1 17 0 27 0
0

0101000
+128 0 -108 0 *
Wi

0101100
-122 0 +127 0 -107 0 +80 0 *
Fa
0  1e-07 17 0

0111000
+79 0 *
Ed
 1e-07 1 1 0
1  43 0 4.71238898038469 6.28318530717959
2  61 18 0 4.71238898038469 6.28318530717959
2  62 24 0 4.71238898038469 6.28318530717959
4 G1 18 0 24 0
0

0101000
+130 0 -87 0 *
Ve
1e-07
1 0.8 -0.8
0 0

0101101
*
Ed
 1e-07 1 1 0
1  44 0 0.2 1.8
2  63 18 0 0.2 1.8
4 G1 18 0 26 0
0

0101000
+87 0 -76 0 *
Ed
 1e-07 1 1 0
1  45 0 4.71238898038469 6.28318530717959
2  64 18 0 4.71238898038469 6.28318530717959
2  65 27 0 4.71238898038469 6.28318530717959
4 G1 18 0 27 0
0

0101000
+128 0 -76 0 *
Wi

0101100
-77 0 +126 0 -75 0 +74 0 *
Fa
0  1e-07 18 0

0111000
+73 0 *
Ed
 1e-07 1 1 0
1  46 0 4.71238898038469 6.28318530717959
2  66 19 0 4.71238898038469 6.28318530717959
2  67 28 0 4.71238898038469 6.28318530717959
4 G1 19 0 28 0
0

0101000
+98 0 -117 0 *
Wi

0101100
+111 0 -96 0 +116 0 -71 0 *
Fa
0  1e-07 19 0

0111000
+70 0 *
Ed
 1e-07 1 1 0
1  47 0 4.71238898038469 6.28318530717959
2  68 20 0 4.71238898038469 6.28318530717959
2  69 25 0 4.71238898038469 6.28318530717959
4 G1 20 0 25 0
0

0101000
+119 0 -86 0 *
Ve
1e-07
1 0.8 0.8
0 0

0101101
*
Ed
 1e-07 1 1 0
1  48 0 0.2 1.8
2  70 20 0 0.2 1.8
4 G1 20 0 26 0
0

0101000
+86 0 -67 0 *
Ed
 1e-07 1 1 0
1  49 0 0 1.5707963267949
2  71 20 0 0 1.5707963267949
2  72 28 0 0 1.5707963267949
4 G1 20 0 28 0
0

0101000
+67 0 -117 0 *
Wi

0101100
-68 0 +115 0 -66 0 -65 0 *
Fa
0  1e-07 20 0

0111000
+64 0 *
Ve
1e-07
1 0.8 -0.639897948556636
0 0

0101101
*
Ed
 1e-07 1 1 0
1  50 0 0.2 0.360102051443364
2  73 21 0 0.2 0.360102051443364
4 G1 21 0 26 0
0

0101000
+76 0 -62 0 *
Ve
1.00000000157009e-07
0.9 0.973205080756888 -0.65
0 0

0101101
*
Ed
 1e-07 1 1 0
1  51 0 0 1
2  74 21 0 0 1
2  75 29 0 0 1
0

0101000
+62 0 -60 0 *
Ed
 1e-07 1 1 0
1  52 0 1.0471975511966 1.5707963267949
2  76 21 0 1.0471975511966 1.5707963267949
0

0101000
+60 0 -106 0 *
Ed
 1e-07 1 1 0
1  53 0 0 1.5707963267949
2  77 21 0 0 1.5707963267949
2  78 27 0 0 1.5707963267949
4 G1 21 0 27 0
0

0101000
+76 0 -108 0 *
Wi

0101100
-61 0 -59 0 -58 0 +105 0 +57 0 *
Fa
0  1e-07 21 0

0111000
+56 0 *
Ve
1e-07
0.4 2 -0.65
0 0

0101101
*
Ed
 1e-07 1 1 0
1  54 0 1 2
2  79 22 0 1 2
4 G1 30 0 22 0
0

0101000
+104 0 -54 0 *
Ve
1e-07
0.9 2 -0.65
0 0

0101101
*
Ed
 1e-07 1 1 0
1  55 0 0 0.5
0

0101000
+52 2 -54 2 *
Ed
 1e-07 1 1 0
1  56 0 0.973205080756888 2
2  80 29 0 0.973205080756888 2
4 G1 30 0 29 0
0

0101000
+60 0 -52 0 *
Wi

0101100
-58 0 +103 0 -53 0 +51 1 +50 0 *
Fa
0  1e-07 30 0

0111000
+49 0 *
Ve
1e-07
0.4 2 0.35
0 0

0101101
*
Ed
 1e-07 1 1 0
1  57 0 1 2
2  81 22 0 1 2
4 G1 22 0 31 0
0

0101000
+102 0 -47 0 *
Ed
 1e-07 1 1 0
1  58 0 0 3.14159265358979
2  82 22 2 0 3.14159265358979
0

0101000
+54 2 -47 2 *
Wi

0101100
+101 0 -46 0 +45 1 +53 0 *
Fa
0  1e-07 22 0

0111000
+44 0 *
Ve
1.00000000166533e-07
0.9 0.973205080756888 0.35
0 0

0101101
*
Ed
 1e-07 1 1 0
1  59 0 1.0471975511966 1.5707963267949
2  83 23 0 1.0471975511966 1.5707963267949
0

0101000
+42 0 -100 0 *
Ve
1e-07
0.9 2 0.35
0 0

0101101
*
Ed
 1e-07 1 1 0
1  60 0 0.973205080756888 2
2  84 29 0 0.973205080756888 2
4 G1 31 0 29 0
0

0101000
+42 0 -40 0 *
Ed
 1e-07 1 1 0
1  61 0 0 0.5
0

0101000
+47 2 -40 2 *
Wi

0101100
+99 0 +41 0 -39 0 +38 1 +46 0 *
Fa
0  1e-07 31 0

0111000
+37 0 *
Ve
1e-07
1 0.8 0.339897948556636
0 0

0101101
*
Ed
 1e-07 1 1 0
1  62 0 1.33989794855664 1.8
2  73 23 0 1.33989794855664 1.8
4 G1 23 0 26 0
0

0101000
+35 0 -67 0 *
Ed
 1e-07 1 1 0
1  63 0 4.71238898038469 6.28318530717959
2  85 23 0 4.71238898038469 6.28318530717959
2  86 28 0 4.71238898038469 6.28318530717959
4 G1 23 0 28 0
0

0101000
+98 0 -67 0 *
Ed
 1e-07 1 1 0
1  64 0 0 1
2  87 23 0 0 1
2  88 29 0 0 1
0

0101000
+35 0 -42 0 *
Wi

0101100
-34 0 +33 0 +97 0 +41 0 +32 0 *
Fa
0  1e-07 23 0

0111000
+31 0 *
Ed
 1e-07 1 1 1
2  89 24 0 0 1.5707963267949
0

0101000
+130 0 -130 0 *
Wi

0101100
-77 0 +29 0 +93 0 -84 0 *
Fa
0  1e-07 24 0

0111000
+28 0 *
Ed
 1e-07 1 1 1
2  90 25 0 0 1.5707963267949
0

0101000
+119 0 -119 0 *
Wi

0101100
-68 0 +26 0 +90 0 -83 0 *
Fa
0  1e-07 25 0

0111000
+25 0 *
Ve
1.5e-07
1 0 0.339897948556636
0 0

0101101
*
Ed
 1e-07 1 1 0
1  65 0 -0.8 0
2  91 29 0 -0.8 0
0

0101000
+35 0 -23 0 *
Ve
1.50000000222045e-07
1 0 -0.639897948556636
0 0

0101101
*
Ed
 1.5e-07 1 1 0
1  66 0 -0.0648979485566357 0.914897948556636
0

0101000
+21 0 -23 0 *
Ed
 1e-07 1 1 0
1  67 0 -0.8 0
2  92 29 0 -0.8 0
0

0101000
+62 0 -21 0 *
Wi

0101100
-85 0 -66 0 +34 0 -22 0 +20 0 +19 0 +61 0 +75 0 *
Fa
0  1e-07 26 0

0111000
+18 0 *
Ed
 1e-07 1 1 1
2  93 27 0 0 1.5707963267949
0

0101000
+128 0 -128 0 *
Wi

0101100
-74 0 +16 0 +80 0 -57 0 *
Fa
0  1e-07 27 0

0111000
+15 0 *
Ed
 1e-07 1 1 1
2  94 28 0 0 1.5707963267949
0

0101000
+98 0 -98 0 *
Wi

0101100
-33 0 +13 0 +71 0 -65 0 *
Fa
0  1e-07 28 0

0111000
+12 0 *
Ed
 1e-07 1 1 0
1  68 0 0.201357920790331 2.94023473279946
2  95 29 0 0.201357920790331 2.94023473279946
0

0101000
+23 0 -21 0 *
Ed
 1e-07 1 1 0
1  69 0 0 3.14159265358979
2  96 29 2 0 3.14159265358979
0

0101000
+40 2 -52 2 *
Wi

0101100
+32 0 -22 0 -10 0 +19 0 -59 0 -50 0 +9 1 +39 0 *
Fa
0  1e-07 29 0

0111000
+8 0 *
Wi

0101100
+9 0 +51 0 +45 0 +38 0 *
Fa
0  1e-07 32 0

0111000
+6 0 *
Wi

0101100
+20 0 +10 0 *
Fa
0  1e-07 33 0

0111000
+4 0 *
Sh

0101100
-174 0 +167 0 -160 0 +153 0 -146 0 +142 0 -138 0 -131 0 -124 0 -120 0 
+113 0 -109 0 +94 0 +91 0 -88 0 -81 0 -78 0 +72 0 +69 0 -63 0 
+55 0 -48 0 -43 0 -36 0 +30 0 -27 0 +24 0 +17 0 +14 0 +11 0 
-7 0 +5 1 -3 0 *
So

1100000
+2 0 *

+1 0 