DBRep_DrawableShape

CASCADE Topology V1, (c) Matra-Datavision
Locations 20
1
              1               0               0 -84.9150579567165 
              0               1               0               0 
              0               0               1               0 
2  1 -1 0
1
              1               0               0               0 
              0               1               0               0 
              0               0               1               0 
2  3 -1 0
2  1 -1 3 -1 0
1
              1               0               0              50 
              0               1               0               0 
              0               0               1               0 
2  3 1 6 1 0
2  6 -1 3 -1 0
2  1 -1 6 -1 3 -1 0
1
              1               0               0               0 
              0               1               0              15 
              0               0               1               0 
1
              1               0               0               0 
              0               1               0               0 
              0               0               1 -28.1209232022554 
2  10 1 11 1 0
2  11 -1 10 -1 0
1
              1               0               0               0 
              0               1               0               0 
              0               0               1               0 
2  14 -1 0
2  11 -1 10 -1 14 -1 0
1
              1               0               0               0 
              0               1               0               0 
              0               0               1              90 
2  14 1 17 1 0
2  17 -1 14 -1 0
2  11 -1 10 -1 17 -1 14 -1 0
Curve2ds 162
1 0 0 0 -1 
1 2.4484327209798362 0 0 -1 
1 0.99999999999999822 0 0 -1 
1 0 0 0 -1 
1 0 0 1 0 
1 24.000000000508393 -3.1799865380760144 1 -8.8817841970012681e-16 
1 0 -50.000000000000007 1 0 
1 24.000000000508393 -3.1799865380760144 1 -8.8817841970012681e-16 
1 0 0 0 -1 
1 1.7552728781760805 0 0 -1 
1 0 0 1 0 
2 20.000000000508393 -3.1799865380760135 -0.76923075323527634 0.63897108563462357 0.63897108563462357 0.76923075323527634 3.999999999999996
1 0 -50.000000000000007 1 0 
2 20.000000000508393 -3.1799865380760135 -0.76923075323527634 0.63897108563462357 0.63897108563462357 0.76923075323527634 3.999999999999996
1 2.4484327035236984 0 0 -1 
1 0 0 0 -1 
1 0 0 1 0 
2 20.000000000508386 -3.1799865380760188 1 7.1054273576009993e-16 -7.1054273576009993e-16 1 5.0000000000000018
1 0 -50.000000000000007 1 0 
2 20.000000000508386 -3.1799865380760188 1 7.1054273576009993e-16 -7.1054273576009993e-16 1 5.0000000000000018
1 0 0 0 -1 
1 1.7552728135990021 0 0 -1 
1 0 0 1 0 
2 15.000000000508368 0.97332539338286139 -0.76923076903052401 -0.63897106661938041 0.63897106661938041 -0.76923076903052401 2.4999999999999232
1 0 -50.000000000000007 1 0 
2 15.000000000508368 0.97332539338286139 -0.76923076903052401 -0.63897106661938041 0.63897106661938041 -0.76923076903052401 2.4999999999999232
1 1.7552732829979578 0 0 -1 
1 0 0 0 -1 
1 0 0 1 0 
2 15.000000000508345 0.97332539338294488 0.7692308597289943 -0.63897095743123755 -0.63897095743123755 -0.7692308597289943 1.5000000000000044
1 0 -50.000000000000007 1 0 
2 15.000000000508345 0.97332539338294488 0.7692308597289943 -0.63897095743123755 -0.63897095743123755 -0.7692308597289943 1.5000000000000044
1 0 0 0 -1 
1 1.7552728781760785 0 0 -1 
1 0 0 1 0 
2 10.000000000508368 -3.179986538075946 -0.76923075323528189 0.6389710856346168 0.6389710856346168 0.76923075323528189 3.9999999999999298
1 0 -50.000000000000007 1 0 
2 10.000000000508368 -3.179986538075946 -0.76923075323528189 0.6389710856346168 0.6389710856346168 0.76923075323528189 3.9999999999999298
1 1.755272705067807 0 0 -1 
1 0 0 0 -1 
1 0 0 1 0 
2 10.00000000050839 -3.1799865380760179 0.76923071116162589 0.63897113628534064 -0.63897113628534064 0.76923071116162589 5.0000000000000027
1 0 -50.000000000000007 1 0 
2 10.00000000050839 -3.1799865380760179 0.76923071116162589 0.63897113628534064 -0.63897113628534064 0.76923071116162589 5.0000000000000027
1 0 0 0 -1 
1 1.7552728135990026 0 0 -1 
1 0 0 1 0 
2 5.0000000005083702 0.97332539338286495 -0.76923076903052345 -0.63897106661938108 0.63897106661938108 -0.76923076903052345 2.4999999999999263
1 0 -50.000000000000007 1 0 
2 5.0000000005083702 0.97332539338286495 -0.76923076903052345 -0.63897106661938108 0.63897106661938108 -0.76923076903052345 2.4999999999999263
1 1.7552732829979583 0 0 -1 
1 0 0 0 -1 
1 0 0 1 0 
2 5.0000000005083436 0.97332539338294488 0.76923085972899452 -0.63897095743123733 -0.63897095743123733 -0.76923085972899452 1.5000000000000051
1 0 -50.000000000000007 1 0 
2 5.0000000005083436 0.97332539338294488 0.76923085972899452 -0.63897095743123733 -0.63897095743123733 -0.76923085972899452 1.5000000000000051
1 0 0 0 -1 
1 1.7552728781760787 0 0 -1 
1 0 0 1 0 
2 5.0836845844060008e-10 -3.1799865380759442 -0.76923075323528201 0.6389710856346168 0.6389710856346168 0.76923075323528201 3.9999999999999285
1 0 -50.000000000000007 1 0 
2 5.0836845844060008e-10 -3.1799865380759442 -0.76923075323528201 0.6389710856346168 0.6389710856346168 0.76923075323528201 3.9999999999999285
1 1.7552727050678087 0 0 -1 
1 0 0 0 -1 
1 0 0 1 0 
2 5.0838977472267288e-10 -3.1799865380760099 0.76923071116162645 0.63897113628533986 -0.63897113628533986 0.76923071116162645 4.9999999999999964
1 0 -50.000000000000007 1 0 
2 5.0838977472267288e-10 -3.1799865380760099 0.76923071116162645 0.63897113628533986 -0.63897113628533986 0.76923071116162645 4.9999999999999964
1 0 0 0 -1 
1 1.7552728135990028 0 0 -1 
1 0 0 1 0 
2 -4.9999999994916315 0.97332539338286495 -0.76923076903052323 -0.63897106661938152 0.63897106661938152 -0.76923076903052323 2.4999999999999263
1 0 -50.000000000000007 1 0 
2 -4.9999999994916315 0.97332539338286495 -0.76923076903052323 -0.63897106661938152 0.63897106661938152 -0.76923076903052323 2.4999999999999263
1 1.7552732829979583 0 0 -1 
1 0 0 0 -1 
1 0 0 1 0 
2 -4.9999999994916529 0.97332539338294488 0.76923085972899452 -0.63897095743123733 -0.63897095743123733 -0.76923085972899452 1.5000000000000051
1 0 -50.000000000000007 1 0 
2 -4.9999999994916529 0.97332539338294488 0.76923085972899452 -0.63897095743123733 -0.63897095743123733 -0.76923085972899452 1.5000000000000051
1 0 0 0 -1 
1 1.7552728983593722 0 0 -1 
1 0 0 1 0 
2 -9.999999999491628 -3.1799865380759442 -0.76923075323528234 0.63897108563461635 0.63897108563461635 0.76923075323528234 3.9999999999999303
1 0 -50.000000000000007 1 0 
2 -9.999999999491628 -3.1799865380759442 -0.76923075323528234 0.63897108563461635 0.63897108563461635 0.76923075323528234 3.9999999999999303
1 1.7552727050678081 0 0 -1 
1 0 0 0 -1 
1 0 0 1 0 
2 -9.9999999994916067 -3.1799865380760135 0.76923071116162611 0.6389711362853403 -0.6389711362853403 0.76923071116162611 4.9999999999999982
1 0 -50.000000000000007 1 0 
2 -9.9999999994916067 -3.1799865380760135 0.76923071116162611 0.6389711362853403 -0.6389711362853403 0.76923071116162611 4.9999999999999982
1 0 0 0 -1 
1 2.4484327335943936 0 0 -1 
1 0 0 1 0 
2 -14.999999999491617 0.97332539338284185 -0.76923078192706129 -0.63897105109377361 0.63897105109377361 -0.76923078192706129 2.4999999999999054
1 0 -50.000000000000007 1 0 
2 -14.999999999491617 0.97332539338284185 -0.76923078192706129 -0.63897105109377361 0.63897105109377361 -0.76923078192706129 2.4999999999999054
1 1.7552732023483582 0 0 -1 
1 0 0 0 -1 
1 0 0 1 0 
2 -14.999999999491624 0.97332539338287916 0.76923085972900829 -0.63897095743122057 -0.63897095743122057 -0.76923085972900829 1.4999999999999412
1 0 -50.000000000000007 1 0 
2 -14.999999999491624 0.97332539338287916 0.76923085972900829 -0.63897095743122057 -0.63897095743122057 -0.76923085972900829 1.4999999999999412
1 0 0 0 -1 
1 0 0 0 -1 
1 0 0 1 0 
2 -19.999999999491624 -3.1799865380759993 -1 -3.9968028886505777e-15 -3.9968028886505777e-15 1 3.9999999999999787
1 0 -50.000000000000007 1 0 
2 -19.999999999491624 -3.1799865380759993 -1 -3.9968028886505777e-15 -3.9968028886505777e-15 1 3.9999999999999787
1 2.448432679328798 0 0 -1 
1 1 0 0 -1 
1 0 0 1 0 
2 -19.99999999949161 -3.1799865380760242 0.76923072662146807 0.63897111767388071 -0.63897111767388071 0.76923072662146807 5.0000000000000089
1 0 -50.000000000000007 1 0 
2 -19.99999999949161 -3.1799865380760242 0.76923072662146807 0.63897111767388071 -0.63897111767388071 0.76923072662146807 5.0000000000000089
1 0 0 1 0 
1 -23.99999999949161 -3.1799865380760153 -1 -4.6054302232499413e-34 
1 0 -50 1 0 
1 -23.99999999949161 -3.1799865380760153 -1 -4.6054302232499413e-34 
1 0 0 0 -1 
1 0 0 0 -1 
1 18.527007313648905 0 0 -1 
1 0 0 0 -1 
1 0 0 1 0 
1 1.1329759104822266 9.5190011574120632 -0.99854227327750833 0.05397525801500045 
1 0 -90 1 0 
1 1.1329759104822266 9.5190011574120632 -0.99854227327750833 0.05397525801500045 
1 7.5 0 0 -1 
1 0 0 0 -1 
1 0 0 1 0 
1 1.1329759104822266 9.5190011574120632 0 -1 
1 0 -90 1 0 
1 1.1329759104822266 9.5190011574120632 0 -1 
1 18.973665961010276 0 0 -1 
1 0 0 0 -1 
1 0 0 1 0 
1 -17.367024089517773 10.519001157412063 0.316227766016838 -0.94868329805051388 
1 0 -90 1 0 
1 -17.367024089517773 10.519001157412063 0.316227766016838 -0.94868329805051388 
1 1.5707963267948966 0 0 -1 
1 0 0 0 -1 
1 0 0 1 0 
2 3.6329759104822266 2.0190011574120632 -1 0 -0 -1 2.5
1 0 -90 1 0 
2 3.6329759104822266 2.0190011574120632 -1 0 -0 -1 2.5
1 30 0 0 -1 
1 0 0 0 -1 
1 0 0 1 0 
1 -11.367024089517773 -7.4809988425879368 1 0 
1 0 -90 1 0 
1 -11.367024089517773 -7.4809988425879368 1 0 
1 15 0 0 -1 
1 7 0 0 -1 
1 0 0 1 0 
1 3.6329759104822266 -0.48099884258793679 1 0 
1 0 -90 1 0 
1 3.6329759104822266 -0.48099884258793679 1 0 
1 0 0 1 0 
1 18.632975910482227 -7.4809988425879368 0 1 
1 0 -90 1 0 
1 18.632975910482227 -7.4809988425879368 0 1 
Curves 81
1 59.915057956716531 -5.0000000000000009 -6.5000000000000018 1 0 0 
1 59.915057956716531 -5 -7.5 1 0 0 
1 59.915057956716531 -5.0000000000000009 -6.5000000000000018 0 8.8817841970012681e-16 -1 
1 59.915057956716531 -5.0000000000000009 -6.5000000000000018 0 8.8817841970012681e-16 -1 
1 59.915057956716531 -7.5558843425384934 0.57692301294109694 1 0 0 
2 59.915057956716531 -5.0000000000000018 -2.5000000000000053 1 0 0 0 -0.63897108563462357 0.76923075323527634 0 -0.76923075323527634 -0.63897108563462357 3.999999999999996
2 59.915057956716531 -5.0000000000000018 -2.5000000000000053 1 0 0 0 -0.63897108563462357 0.76923075323527634 0 -0.76923075323527634 -0.63897108563462357 3.999999999999996
1 59.915057956716531 -8.1948554953121011 1.3461537104065502 1 0 0 
2 59.915057956716531 -4.9999999999999964 -2.4999999999999982 -1 0 0 -0 -7.1054273576009993e-16 -1 0 -1 7.1054273576009993e-16 5.0000000000000018
2 59.915057956716531 -4.9999999999999964 -2.4999999999999982 -1 0 0 -0 -7.1054273576009993e-16 -1 0 -1 7.1054273576009993e-16 5.0000000000000018
1 59.915057956716531 -7.5558842649104747 4.4230769225762714 1 0 0 
2 59.915057956716531 -9.1533119314588767 2.5000000000000204 -1 0 -0 0 0.63897106661938041 0.76923076903052401 0 0.76923076903052401 -0.63897106661938041 2.4999999999999232
2 59.915057956716531 -9.1533119314588767 2.5000000000000204 -1 0 -0 0 0.63897106661938041 0.76923076903052401 0 0.76923076903052401 -0.63897106661938041 2.4999999999999232
1 59.915057956716531 -8.1948556814267022 3.6538464441918688 1 0 0 
2 59.915057956716531 -9.1533119314589602 2.5000000000000449 1 0 -0 -0 0.63897095743123755 -0.7692308597289943 0 0.7692308597289943 0.63897095743123755 1.5000000000000044
2 59.915057956716531 -9.1533119314589602 2.5000000000000449 1 0 -0 -0 0.63897095743123755 -0.7692308597289943 0 0.7692308597289943 0.63897095743123755 1.5000000000000044
1 59.915057956716531 -7.5558843425384925 10.576923012941094 1 0 0 
2 59.915057956716531 -5.0000000000000693 7.5000000000000213 1 0 0 0 -0.6389710856346168 0.76923075323528189 0 -0.76923075323528189 -0.6389710856346168 3.9999999999999303
2 59.915057956716531 -5.0000000000000693 7.5000000000000213 1 0 0 0 -0.6389710856346168 0.76923075323528189 0 -0.76923075323528189 -0.6389710856346168 3.9999999999999303
1 59.915057956716531 -8.1948554953121011 11.346153710406551 1 0 0 
2 59.915057956716531 -4.9999999999999973 7.5 -1 0 0 -0 -0.63897113628534064 -0.76923071116162589 0 -0.76923071116162589 0.63897113628534064 5.0000000000000027
2 59.915057956716531 -4.9999999999999973 7.5 -1 0 0 -0 -0.63897113628534064 -0.76923071116162589 0 -0.76923071116162589 0.63897113628534064 5.0000000000000027
1 59.915057956716524 -7.5558842649104747 14.423076922576271 1 0 0 
2 59.915057956716524 -9.1533119314588802 12.50000000000002 -1 3.9362091665057788e-15 -1.8474111619301e-15 1.0940382607521188e-15 0.63897106661938108 0.76923076903052345 4.2082954848392619e-15 0.76923076903052345 -0.63897106661938108 2.4999999999999263
2 59.915057956716524 -9.1533119314588802 12.50000000000002 -1 3.9362091665057788e-15 -1.8474111619301e-15 1.0940382607521188e-15 0.63897106661938108 0.76923076903052345 4.2082954848392619e-15 0.76923076903052345 -0.63897106661938108 2.4999999999999263
1 59.915057956716524 -8.1948556814267022 13.653846444191871 1 0 0 
2 59.915057956716524 -9.1533119314589602 12.500000000000046 1 -6.5603460920327164e-15 3.0790174240266992e-15 6.560345843711033e-15 0.63897095743123733 -0.76923085972899452 3.0790179531162736e-15 0.76923085972899452 0.63897095743123733 1.5000000000000051
2 59.915057956716524 -9.1533119314589602 12.500000000000046 1 -6.5603460920327164e-15 3.0790174240266992e-15 6.560345843711033e-15 0.63897095743123733 -0.76923085972899452 3.0790179531162736e-15 0.76923085972899452 0.63897095743123733 1.5000000000000051
1 59.915057956716524 -7.5558843425384925 20.576923012941094 1 0 0 
2 59.91505795671651 -5.0000000000000711 17.500000000000021 1 4.9202618432348855e-15 6.2066903873168887e-23 3.1439050038346047e-15 -0.6389710856346168 0.76923075323528201 3.7848167634453457e-15 -0.76923075323528201 -0.6389710856346168 3.9999999999999289
2 59.91505795671651 -5.0000000000000711 17.500000000000021 1 4.9202618432348855e-15 6.2066903873168887e-23 3.1439050038346047e-15 -0.6389710856346168 0.76923075323528201 3.7848167634453457e-15 -0.76923075323528201 -0.6389710856346168 3.9999999999999289
1 59.915057956716524 -8.1948554953121011 21.346153710406547 1 0 0 
2 59.91505795671651 -5.0000000000000053 17.5 -1 -3.9362099296989874e-15 9.5236203594304787e-23 2.5151244581787869e-15 -0.63897113628533986 -0.76923071116162645 3.027853624356993e-15 -0.76923071116162645 0.63897113628533986 4.9999999999999956
2 59.91505795671651 -5.0000000000000053 17.5 -1 -3.9362099296989874e-15 9.5236203594304787e-23 2.5151244581787869e-15 -0.63897113628533986 -0.76923071116162645 3.027853624356993e-15 -0.76923071116162645 0.63897113628533986 4.9999999999999956
1 59.915057956716524 -7.5558842649104747 24.423076922576271 1 0 0 
2 59.91505795671651 -9.1533119314588802 22.500000000000021 -1 8.3405893082266094e-15 -1.6834048503935249e-22 5.3293951170190858e-15 0.63897106661938152 0.76923076903052323 6.4158380352996142e-15 0.76923076903052323 -0.63897106661938152 2.4999999999999267
2 59.91505795671651 -9.1533119314588802 22.500000000000021 -1 8.3405893082266094e-15 -1.6834048503935249e-22 5.3293951170190858e-15 0.63897106661938152 0.76923076903052323 6.4158380352996142e-15 0.76923076903052323 -0.63897106661938152 2.4999999999999267
1 59.915057956716524 -8.1948556814267022 23.653846444191867 1 0 0 
2 59.91505795671651 -9.1533119314589602 22.500000000000043 1 -1.3120691687422028e-14 -1.0581791346777463e-21 8.3837401156880847e-15 0.63897095743123733 -0.76923085972899452 1.0092841623100453e-14 0.76923085972899452 0.63897095743123733 1.5000000000000051
2 59.91505795671651 -9.1533119314589602 22.500000000000043 1 -1.3120691687422028e-14 -1.0581791346777463e-21 8.3837401156880847e-15 0.63897095743123733 -0.76923085972899452 1.0092841623100453e-14 0.76923085972899452 0.63897095743123733 1.5000000000000051
1 59.915057956716524 -7.5558843425384907 30.576923012941094 1 0 0 
2 59.915057956716524 -5.0000000000000711 27.500000000000018 1 0 0 0 -0.63897108563461635 0.76923075323528234 0 -0.76923075323528234 -0.63897108563461635 3.9999999999999289
2 59.915057956716524 -5.0000000000000711 27.500000000000018 1 0 0 0 -0.63897108563461635 0.76923075323528234 0 -0.76923075323528234 -0.63897108563461635 3.9999999999999289
1 59.915057956716524 -8.1948554953121011 31.346153710406547 1 0 0 
2 59.915057956716524 -5.0000000000000018 27.499999999999996 -1 0 0 -0 -0.6389711362853403 -0.76923071116162611 0 -0.76923071116162611 0.6389711362853403 4.9999999999999991
2 59.915057956716524 -5.0000000000000018 27.499999999999996 -1 0 0 -0 -0.6389711362853403 -0.76923071116162611 0 -0.76923071116162611 0.6389711362853403 4.9999999999999991
1 59.915057956716524 -7.5558843037244863 34.423076954817589 1 0 0 
2 59.915057956716524 -9.1533119314588571 32.500000000000007 -1 0 -0 0 0.63897105109377361 0.76923078192706129 0 0.76923078192706129 -0.63897105109377361 2.4999999999999045
2 59.915057956716524 -9.1533119314588571 32.500000000000007 -1 0 -0 0 0.63897105109377361 0.76923078192706129 0 0.76923078192706129 -0.63897105109377361 2.4999999999999045
1 59.915057956716524 -8.1948555883693999 33.653846366892651 1 0 0 
2 59.915057956716524 -9.1533119314588944 32.500000000000014 1 0 -0 -0 0.63897095743122057 -0.76923085972900829 0 0.76923085972900829 0.63897095743122057 1.4999999999999403
2 59.915057956716524 -9.1533119314588944 32.500000000000014 1 0 -0 -0 0.63897095743122057 -0.76923085972900829 0 0.76923085972900829 0.63897095743122057 1.4999999999999403
1 59.915057956716524 -5 41.5 1 0 0 
2 59.915057956716524 -5.000000000000016 37.500000000000014 1 0 0 -0 3.9968028886505777e-15 1 0 -1 3.9968028886505777e-15 3.99999999999998
2 59.915057956716524 -5.000000000000016 37.500000000000014 1 0 0 -0 3.9968028886505777e-15 1 0 -1 3.9968028886505777e-15 3.99999999999998
1 59.915057956716524 -5.0000000000000009 42.5 1 0 0 
2 59.915057956716524 -4.9999999999999911 37.5 -1 0 0 -0 -0.63897111767388071 -0.76923072662146807 0 -0.76923072662146807 0.63897111767388071 5.0000000000000062
2 59.915057956716524 -4.9999999999999911 37.5 -1 0 0 -0 -0.63897111767388071 -0.76923072662146807 0 -0.76923072662146807 0.63897111767388071 5.0000000000000062
1 59.915057956716524 -5 41.5 0 0 1 
1 59.915057956716524 -5 41.5 0 0 1 
1 -17.5 -15 0 0 0 1 
1 -36 -14 0 0 0 1 
1 -17.5 -15 0 -0.99854227327750833 0.05397525801500045 0 
1 -17.5 -15 0 -0.99854227327750833 0.05397525801500045 0 
1 -17.5 -22.5 0 0 0 1 
1 -17.5 -15 0 0 -1 0 
1 -17.5 -15 0 0 -1 0 
1 -30 -32 0 0 0 1 
1 -36 -14 0 0.316227766016838 -0.94868329805051388 0 
1 -36 -14 0 0.316227766016838 -0.94868329805051388 0 
1 -15 -25 0 0 0 1 
2 -15 -22.5 0 0 0 1 -1 0 0 0 -1 0 2.5
2 -15 -22.5 0 0 0 1 -1 0 0 0 -1 0 2.5
1 0 -32 0 0 0 1 
1 -30 -32 0 1 0 0 
1 -30 -32 0 1 0 0 
1 0 -25 0 0 0 1 
1 -15 -25 0 1 0 0 
1 -15 -25 0 1 0 0 
1 0 -32 0 0 1 0 
1 0 -32 0 0 1 0 
Polygon3D 0
PolygonOnTriangulations 0
Surfaces 31
1 59.915057956716531 -5.0000000000000009 -6.5000000000000018 -0 1 8.8817841970012681e-16 0 8.8817841970012681e-16 -1 -1 0 -0 
2 59.915057956716531 -5.0000000000000018 -2.5000000000000053 -1 -0 -0 0 -0.63897108563462357 0.76923075323527634 0 -0.76923075323527634 -0.63897108563462357 3.999999999999996
2 59.915057956716531 -4.9999999999999964 -2.4999999999999982 -1 0 0 -0 -7.1054273576009993e-16 -1 0 -1 7.1054273576009993e-16 5.0000000000000018
1 59.915057956716502 -8.1799865380760153 17.50000000050839 -1 2.3541601320737236e-18 -1.9562943745857796e-16 1.9562943745857796e-16 0 -1 -2.3541601320737236e-18 -1 -4.6054302232499413e-34 
1 59.915057956716502 -8.1799865380760153 17.50000000050839 -1 2.3541601320737236e-18 -1.9562943745857796e-16 1.9562943745857796e-16 0 -1 -2.3541601320737236e-18 -1 -4.6054302232499413e-34 
2 59.915057956716531 -9.1533119314588767 2.5000000000000204 -1 0 0 0 0.63897106661938041 0.76923076903052401 0 0.76923076903052401 -0.63897106661938041 2.4999999999999232
2 59.915057956716531 -9.1533119314589602 2.5000000000000449 -1 -0 0 -0 0.63897095743123755 -0.7692308597289943 -0 0.7692308597289943 0.63897095743123755 1.5000000000000044
2 59.915057956716531 -5.0000000000000693 7.5000000000000213 -1 -0 -0 0 -0.6389710856346168 0.76923075323528189 0 -0.76923075323528189 -0.6389710856346168 3.9999999999999303
2 59.915057956716531 -4.9999999999999973 7.5 -1 0 0 -0 -0.63897113628534064 -0.76923071116162589 0 -0.76923071116162589 0.63897113628534064 5.0000000000000027
2 59.915057956716524 -9.1533119314588802 12.50000000000002 -1 3.9362091665057788e-15 -1.8474111619301e-15 1.0940382607521188e-15 0.63897106661938108 0.76923076903052345 4.2082954848392619e-15 0.76923076903052345 -0.63897106661938108 2.4999999999999263
2 59.915057956716524 -9.1533119314589602 12.500000000000046 -1 6.5603460920327156e-15 -3.0790174240266996e-15 6.5603458437110322e-15 0.63897095743123733 -0.76923085972899452 3.0790179531162732e-15 0.76923085972899452 0.63897095743123733 1.5000000000000051
2 59.91505795671651 -5.0000000000000711 17.500000000000021 -1 -4.9202618432348863e-15 -6.2066903913297949e-23 3.1439050038346047e-15 -0.6389710856346168 0.76923075323528201 3.7848167634453457e-15 -0.76923075323528201 -0.6389710856346168 3.9999999999999289
2 59.91505795671651 -5.0000000000000053 17.5 -1 -3.9362099296989874e-15 9.5236203870580977e-23 2.5151244581787869e-15 -0.63897113628533986 -0.76923071116162645 3.027853624356993e-15 -0.76923071116162645 0.63897113628533986 4.9999999999999956
2 59.91505795671651 -9.1533119314588802 22.500000000000021 -1 8.3405893082266109e-15 -1.6834048511599308e-22 5.3293951170190858e-15 0.63897106661938152 0.76923076903052323 6.415838035299615e-15 0.76923076903052323 -0.63897106661938152 2.4999999999999267
2 59.91505795671651 -9.1533119314589602 22.500000000000043 -1 1.3120691687422027e-14 1.0581791345016459e-21 8.3837401156880831e-15 0.63897095743123733 -0.76923085972899452 1.0092841623100451e-14 0.76923085972899452 0.63897095743123733 1.5000000000000051
2 59.915057956716524 -5.0000000000000711 27.500000000000018 -1 -0 -0 0 -0.63897108563461635 0.76923075323528234 0 -0.76923075323528234 -0.63897108563461635 3.9999999999999289
2 59.915057956716524 -5.0000000000000018 27.499999999999996 -1 0 0 -0 -0.6389711362853403 -0.76923071116162611 0 -0.76923071116162611 0.6389711362853403 4.9999999999999991
2 59.915057956716524 -9.1533119314588571 32.500000000000007 -1 0 0 0 0.63897105109377361 0.76923078192706129 0 0.76923078192706129 -0.63897105109377361 2.4999999999999045
2 59.915057956716524 -9.1533119314588944 32.500000000000014 -1 -0 0 -0 0.63897095743122057 -0.76923085972900829 -0 0.76923085972900829 0.63897095743122057 1.4999999999999403
2 59.915057956716524 -5.000000000000016 37.500000000000014 -1 -0 -0 -0 3.9968028886505777e-15 1 -0 -1 3.9968028886505777e-15 3.99999999999998
2 59.915057956716524 -4.9999999999999911 37.5 -1 0 0 -0 -0.63897111767388071 -0.76923072662146807 0 -0.76923072662146807 0.63897111767388071 5.0000000000000062
1 59.915057956716524 -5 41.5 0 -1 0 0 0 1 -1 0 0 
1 -17.5 -15 0 -0.05397525801500045 -0.99854227327750833 0 -0.99854227327750833 0.05397525801500045 0 -0 0 -1 
1 -17.5 -15 0 1 0 -0 0 -1 0 0 -0 -1 
1 -36 -14 0 0.94868329805051388 0.316227766016838 -0 0.316227766016838 -0.94868329805051388 0 0 -0 -1 
1 -18.632975910482227 -24.519001157412063 0 0 0 1 1 0 -0 -0 1 0 
1 -18.632975910482227 -24.519001157412063 0 0 0 1 1 0 -0 -0 1 0 
2 -15 -22.5 0 -0 -0 -1 -1 0 0 -0 -1 0 2.5
1 -30 -32 0 0 1 0 1 0 0 0 0 -1 
1 -15 -25 0 0 1 0 1 0 0 0 0 -1 
1 0 -32 0 -1 0 0 0 1 0 0 0 -1 
Triangulations 0

TShapes 202
Ve
1e-07
-25 -5 -6.5
0 0

0101101
*
Ve
1e-07
25 -5 -6.5
0 0

0101101
*
Ed
 1e-07 1 1 0
1  1 0 0 50
2  1 1 0 0 50
2  2 2 0 0 50
0

0101000
+202 2 -201 2 *
Ve
1e-07
-25 -5 -7.5
0 0

0101101
*
Ve
1e-07
25 -5 -7.5
0 0

0101101
*
Ed
 1e-07 1 1 0
1  2 0 0 50
2  3 1 0 0 50
2  4 3 0 0 50
0

0101000
+199 2 -198 2 *
Ed
 1e-07 1 1 0
1  3 0 0 0.999999999999998
2  5 1 4 0 0.999999999999998
2  6 4 0 0 0.999999999999998
0

0101000
+202 5 -199 5 *
Ed
 1e-07 1 1 0
1  4 0 0 0.999999999999998
2  7 1 8 0 0.999999999999998
2  8 5 0 0 0.999999999999998
0

0101000
+201 9 -198 9 *
Wi

0101100
+200 0 -197 0 -196 3 +195 7 *
Fa
0  1e-07 1 0

0111000
+194 0 *
Ve
1e-07
-25 -7.55588434253849 0.576923012941097
0 0

0101101
*
Ve
1e-07
25 -7.55588434253849 0.576923012941097
0 0

0101101
*
Ed
 1e-07 1 1 0
1  5 0 0 50
2  9 2 0 0 50
2  10 6 0 0 50
4 G1 2 0 6 0
0

0101000
+192 2 -191 2 *
Ed
 1e-07 1 1 0
1  6 0 0 2.44843272097984
2  11 2 4 0 2.44843272097984
2  12 4 0 0 2.44843272097984
0

0101000
+192 5 -202 5 *
Ed
 1e-07 1 1 0
1  7 0 0 2.44843272097984
2  13 2 8 0 2.44843272097984
2  14 5 0 0 2.44843272097984
0

0101000
+191 9 -201 9 *
Wi

0101100
+190 0 -200 0 -189 3 +188 7 *
Fa
0  1e-07 2 0

0111000
+187 0 *
Ve
1.00000000111022e-07
-25 -8.1948554953121 1.34615371040655
0 0

0101101
*
Ve
1.00000000111022e-07
25 -8.1948554953121 1.34615371040655
0 0

0101101
*
Ed
 1.00000000111022e-07 1 1 0
1  8 0 0 50
2  15 3 0 0 50
2  16 7 0 0 50
4 G1 3 0 7 0
0

0101000
+185 2 -184 2 *
Ed
 1e-07 1 1 0
1  9 0 0 2.4484327035237
2  17 3 4 0 2.4484327035237
2  18 4 0 0 2.4484327035237
0

0101000
+199 5 -185 5 *
Ed
 1e-07 1 1 0
1  10 0 0 2.4484327035237
2  19 3 8 0 2.4484327035237
2  20 5 0 0 2.4484327035237
0

0101000
+198 9 -184 9 *
Wi

0101100
+197 0 -183 0 -182 3 +181 7 *
Fa
0  1e-07 3 0

0111000
+180 0 *
Ve
1e-07
-25 -7.55588426491047 4.42307692257627
0 0

0101101
*
Ve
1e-07
25 -7.55588426491047 4.42307692257627
0 0

0101101
*
Ed
 1e-07 1 1 0
1  11 0 0 50
2  21 6 0 0 50
2  22 8 0 0 50
4 G1 6 0 8 0
0

0101000
+178 2 -177 2 *
Ed
 1e-07 1 1 0
1  12 0 0 1.75527287817608
2  23 6 4 0 1.75527287817608
2  24 4 0 0 1.75527287817608
0

0101000
+178 5 -192 5 *
Ed
 1e-07 1 1 0
1  13 0 0 1.75527287817608
2  25 6 8 0 1.75527287817608
2  26 5 0 0 1.75527287817608
0

0101000
+177 9 -191 9 *
Wi

0101100
+176 0 -190 0 -175 3 +174 7 *
Fa
0  1e-07 6 0

0111000
+173 0 *
Ve
1.00000000222045e-07
-25 -8.1948556814267 3.65384644419187
0 0

0101101
*
Ve
1.00000000222045e-07
25 -8.1948556814267 3.65384644419187
0 0

0101101
*
Ed
 1.00000000222045e-07 1 1 0
1  14 0 0 50
2  27 7 0 0 50
2  28 9 0 0 50
4 G1 7 0 9 0
0

0101000
+171 2 -170 2 *
Ed
 1e-07 1 1 0
1  15 0 0 1.75527328299796
2  29 7 4 0 1.75527328299796
2  30 4 0 0 1.75527328299796
0

0101000
+185 5 -171 5 *
Ed
 1e-07 1 1 0
1  16 0 0 1.75527328299796
2  31 7 8 0 1.75527328299796
2  32 5 0 0 1.75527328299796
0

0101000
+184 9 -170 9 *
Wi

0101100
+183 0 -169 0 -168 3 +167 7 *
Fa
0  1e-07 7 0

0111000
+166 0 *
Ve
1.00000000888178e-07
-25 -7.55588434253849 10.5769230129411
0 0

0101101
*
Ve
1.00000000888178e-07
25 -7.55588434253849 10.5769230129411
0 0

0101101
*
Ed
 1.00000000888178e-07 1 1 0
1  17 0 0 50
2  33 8 0 0 50
2  34 10 0 0 50
4 G1 8 0 10 0
0

0101000
+164 2 -163 2 *
Ed
 1e-07 1 1 0
1  18 0 0 1.755272813599
2  35 8 4 0 1.755272813599
2  36 4 0 0 1.755272813599
0

0101000
+164 5 -178 5 *
Ed
 1e-07 1 1 0
1  19 0 0 1.755272813599
2  37 8 8 0 1.755272813599
2  38 5 0 0 1.755272813599
0

0101000
+163 9 -177 9 *
Wi

0101100
+162 0 -176 0 -161 3 +160 7 *
Fa
0  1e-07 8 0

0111000
+159 0 *
Ve
1e-07
-25 -8.1948554953121 11.3461537104066
0 0

0101101
*
Ve
1e-07
25 -8.1948554953121 11.3461537104066
0 0

0101101
*
Ed
 1e-07 1 1 0
1  20 0 0 50
2  39 9 0 0 50
2  40 11 0 0 50
4 G1 9 0 11 0
0

0101000
+157 2 -156 2 *
Ed
 1e-07 1 1 0
1  21 0 0 1.75527270506781
2  41 9 4 0 1.75527270506781
2  42 4 0 0 1.75527270506781
0

0101000
+171 5 -157 5 *
Ed
 1e-07 1 1 0
1  22 0 0 1.75527270506781
2  43 9 8 0 1.75527270506781
2  44 5 0 0 1.75527270506781
0

0101000
+170 9 -156 9 *
Wi

0101100
+169 0 -155 0 -154 3 +153 7 *
Fa
0  1e-07 9 0

0111000
+152 0 *
Ve
1e-07
-25 -7.55588426491047 14.4230769225763
0 0

0101101
*
Ve
1e-07
25 -7.55588426491047 14.4230769225763
0 0

0101101
*
Ed
 1e-07 1 1 0
1  23 0 0 50
2  45 10 0 0 50
2  46 12 0 0 50
4 G1 10 0 12 0
0

0101000
+150 2 -149 2 *
Ed
 1e-07 1 1 0
1  24 0 0 1.75527287817608
2  47 10 4 0 1.75527287817608
2  48 4 0 0 1.75527287817608
0

0101000
+150 5 -164 5 *
Ed
 1e-07 1 1 0
1  25 0 0 1.75527287817608
2  49 10 8 0 1.75527287817608
2  50 5 0 0 1.75527287817608
0

0101000
+149 9 -163 9 *
Wi

0101100
+148 0 -162 0 -147 3 +146 7 *
Fa
0  1e-07 10 0

0111000
+145 0 *
Ve
1e-07
-25 -8.1948556814267 13.6538464441919
0 0

0101101
*
Ve
1e-07
25 -8.1948556814267 13.6538464441919
0 0

0101101
*
Ed
 1e-07 1 1 0
1  26 0 0 50
2  51 11 0 0 50
2  52 13 0 0 50
4 G1 11 0 13 0
0

0101000
+143 2 -142 2 *
Ed
 1e-07 1 1 0
1  27 0 0 1.75527328299796
2  53 11 4 0 1.75527328299796
2  54 4 0 0 1.75527328299796
0

0101000
+157 5 -143 5 *
Ed
 1e-07 1 1 0
1  28 0 0 1.75527328299796
2  55 11 8 0 1.75527328299796
2  56 5 0 0 1.75527328299796
0

0101000
+156 9 -142 9 *
Wi

0101100
+155 0 -141 0 -140 3 +139 7 *
Fa
0  1e-07 11 0

0111000
+138 0 *
Ve
1.00000000444089e-07
-25 -7.55588434253849 20.5769230129411
0 0

0101101
*
Ve
1.00000000444089e-07
25 -7.55588434253849 20.5769230129411
0 0

0101101
*
Ed
 1.00000000444089e-07 1 1 0
1  29 0 0 50
2  57 12 0 0 50
2  58 14 0 0 50
4 G1 12 0 14 0
0

0101000
+136 2 -135 2 *
Ed
 1e-07 1 1 0
1  30 0 0 1.755272813599
2  59 12 4 0 1.755272813599
2  60 4 0 0 1.755272813599
0

0101000
+136 5 -150 5 *
Ed
 1e-07 1 1 0
1  31 0 0 1.755272813599
2  61 12 8 0 1.755272813599
2  62 5 0 0 1.755272813599
0

0101000
+135 9 -149 9 *
Wi

0101100
+134 0 -148 0 -133 3 +132 7 *
Fa
0  1e-07 12 0

0111000
+131 0 *
Ve
1e-07
-25 -8.1948554953121 21.3461537104065
0 0

0101101
*
Ve
1e-07
25 -8.1948554953121 21.3461537104065
0 0

0101101
*
Ed
 1e-07 1 1 0
1  32 0 0 50
2  63 13 0 0 50
2  64 15 0 0 50
4 G1 13 0 15 0
0

0101000
+129 2 -128 2 *
Ed
 1e-07 1 1 0
1  33 0 0 1.75527270506781
2  65 13 4 0 1.75527270506781
2  66 4 0 0 1.75527270506781
0

0101000
+143 5 -129 5 *
Ed
 1e-07 1 1 0
1  34 0 0 1.75527270506781
2  67 13 8 0 1.75527270506781
2  68 5 0 0 1.75527270506781
0

0101000
+142 9 -128 9 *
Wi

0101100
+141 0 -127 0 -126 3 +125 7 *
Fa
0  1e-07 13 0

0111000
+124 0 *
Ve
1.00000002512148e-07
-25 -7.55588426491047 24.4230769225763
0 0

0101101
*
Ve
1.00000002512148e-07
25 -7.55588426491047 24.4230769225763
0 0

0101101
*
Ed
 1.00000002512148e-07 1 1 0
1  35 0 0 50
2  69 14 0 0 50
2  70 16 0 0 50
4 G1 14 0 16 0
0

0101000
+122 2 -121 2 *
Ed
 1e-07 1 1 0
1  36 0 0 1.75527287817608
2  71 14 4 0 1.75527287817608
2  72 4 0 0 1.75527287817608
0

0101000
+122 5 -136 5 *
Ed
 1e-07 1 1 0
1  37 0 0 1.75527287817608
2  73 14 8 0 1.75527287817608
2  74 5 0 0 1.75527287817608
0

0101000
+121 9 -135 9 *
Wi

0101100
+120 0 -134 0 -119 3 +118 7 *
Fa
0  1e-07 14 0

0111000
+117 0 *
Ve
1e-07
-25 -8.1948556814267 23.6538464441919
0 0

0101101
*
Ve
1e-07
25 -8.1948556814267 23.6538464441919
0 0

0101101
*
Ed
 1e-07 1 1 0
1  38 0 0 50
2  75 15 0 0 50
2  76 17 0 0 50
4 G1 15 0 17 0
0

0101000
+115 2 -114 2 *
Ed
 1e-07 1 1 0
1  39 0 0 1.75527328299796
2  77 15 4 0 1.75527328299796
2  78 4 0 0 1.75527328299796
0

0101000
+129 5 -115 5 *
Ed
 1e-07 1 1 0
1  40 0 0 1.75527328299796
2  79 15 8 0 1.75527328299796
2  80 5 0 0 1.75527328299796
0

0101000
+128 9 -114 9 *
Wi

0101100
+127 0 -113 0 -112 3 +111 7 *
Fa
0  1e-07 15 0

0111000
+110 0 *
Ve
1.00000000444089e-07
-25 -7.55588434253849 30.5769230129411
0 0

0101101
*
Ve
1.00000000444089e-07
25 -7.55588434253849 30.5769230129411
0 0

0101101
*
Ed
 1.00000000444089e-07 1 1 0
1  41 0 0 50
2  81 16 0 0 50
2  82 18 0 0 50
4 G1 16 0 18 0
0

0101000
+108 2 -107 2 *
Ed
 1e-07 1 1 0
1  42 0 0 1.755272813599
2  83 16 4 0 1.755272813599
2  84 4 0 0 1.755272813599
0

0101000
+108 5 -122 5 *
Ed
 1e-07 1 1 0
1  43 0 0 1.755272813599
2  85 16 8 0 1.755272813599
2  86 5 0 0 1.755272813599
0

0101000
+107 9 -121 9 *
Wi

0101100
+106 0 -120 0 -105 3 +104 7 *
Fa
0  1e-07 16 0

0111000
+103 0 *
Ve
1e-07
-25 -8.1948554953121 31.3461537104065
0 0

0101101
*
Ve
1e-07
25 -8.1948554953121 31.3461537104065
0 0

0101101
*
Ed
 1e-07 1 1 0
1  44 0 0 50
2  87 17 0 0 50
2  88 19 0 0 50
4 G1 17 0 19 0
0

0101000
+101 2 -100 2 *
Ed
 1e-07 1 1 0
1  45 0 0 1.75527270506781
2  89 17 4 0 1.75527270506781
2  90 4 0 0 1.75527270506781
0

0101000
+115 5 -101 5 *
Ed
 1e-07 1 1 0
1  46 0 0 1.75527270506781
2  91 17 8 0 1.75527270506781
2  92 5 0 0 1.75527270506781
0

0101000
+114 9 -100 9 *
Wi

0101100
+113 0 -99 0 -98 3 +97 7 *
Fa
0  1e-07 17 0

0111000
+96 0 *
Ve
1.000000037943e-07
-25 -7.55588430372449 34.4230769548176
0 0

0101101
*
Ve
1.000000037943e-07
25 -7.55588430372449 34.4230769548176
0 0

0101101
*
Ed
 1.000000037943e-07 1 1 0
1  47 0 0 50
2  93 18 0 0 50
2  94 20 0 0 50
4 G1 18 0 20 0
0

0101000
+94 2 -93 2 *
Ed
 1e-07 1 1 0
1  48 0 0 1.75527289835937
2  95 18 4 0 1.75527289835937
2  96 4 0 0 1.75527289835937
0

0101000
+94 5 -108 5 *
Ed
 1e-07 1 1 0
1  49 0 0 1.75527289835937
2  97 18 8 0 1.75527289835937
2  98 5 0 0 1.75527289835937
0

0101000
+93 9 -107 9 *
Wi

0101100
+92 0 -106 0 -91 3 +90 7 *
Fa
0  1e-07 18 0

0111000
+89 0 *
Ve
1.00000001776357e-07
-25 -8.1948555883694 33.6538463668927
0 0

0101101
*
Ve
1.00000001776357e-07
25 -8.1948555883694 33.6538463668927
0 0

0101101
*
Ed
 1.00000001776357e-07 1 1 0
1  50 0 0 50
2  99 19 0 0 50
2  100 21 0 0 50
4 G1 19 0 21 0
0

0101000
+87 2 -86 2 *
Ed
 1e-07 1 1 0
1  51 0 0 1.75527320234836
2  101 19 4 0 1.75527320234836
2  102 4 0 0 1.75527320234836
0

0101000
+101 5 -87 5 *
Ed
 1e-07 1 1 0
1  52 0 0 1.75527320234836
2  103 19 8 0 1.75527320234836
2  104 5 0 0 1.75527320234836
0

0101000
+100 9 -86 9 *
Wi

0101100
+99 0 -85 0 -84 3 +83 7 *
Fa
0  1e-07 19 0

0111000
+82 0 *
Ve
1.00000003552714e-07
-25 -5 41.5
0 0

0101101
*
Ve
1.00000003552714e-07
25 -5 41.5
0 0

0101101
*
Ed
 1.00000003552714e-07 1 1 0
1  53 0 0 50
2  105 20 0 0 50
2  106 22 0 0 50
0

0101000
+80 2 -79 2 *
Ed
 1e-07 1 1 0
1  54 0 0 2.44843273359439
2  107 20 4 0 2.44843273359439
2  108 4 0 0 2.44843273359439
0

0101000
+80 5 -94 5 *
Ed
 1e-07 1 1 0
1  55 0 0 2.44843273359439
2  109 20 8 0 2.44843273359439
2  110 5 0 0 2.44843273359439
0

0101000
+79 9 -93 9 *
Wi

0101100
+78 0 -92 0 -77 3 +76 7 *
Fa
0  1e-07 20 0

0111000
+75 0 *
Ve
1.00000003662053e-07
-25 -5 42.5
0 0

0101101
*
Ve
1.00000003662053e-07
25 -5 42.5
0 0

0101101
*
Ed
 1.00000003662053e-07 1 1 0
1  56 0 0 50
2  111 21 0 0 50
2  112 22 0 0 50
0

0101000
+73 2 -72 2 *
Ed
 1e-07 1 1 0
1  57 0 0 2.4484326793288
2  113 21 4 0 2.4484326793288
2  114 4 0 0 2.4484326793288
0

0101000
+87 5 -73 5 *
Ed
 1e-07 1 1 0
1  58 0 0 2.4484326793288
2  115 21 8 0 2.4484326793288
2  116 5 0 0 2.4484326793288
0

0101000
+86 9 -72 9 *
Wi

0101100
+85 0 -71 0 -70 3 +69 7 *
Fa
0  1e-07 21 0

0111000
+68 0 *
Ed
 1e-07 1 1 0
1  59 0 0 1
2  117 22 4 0 1
2  118 4 0 0 1
0

0101000
+80 5 -73 5 *
Ed
 1e-07 1 1 0
1  60 0 0 1
2  119 22 8 0 1
2  120 5 0 0 1
0

0101000
+79 9 -72 9 *
Wi

0101100
+78 0 -71 0 -66 3 +65 7 *
Fa
0  1e-07 22 0

0111000
+64 0 *
Wi

0101100
+196 0 +189 0 +182 0 +175 0 +168 0 +161 0 +154 0 +147 0 +140 0 +133 0 
+126 0 +119 0 +112 0 +105 0 +98 0 +91 0 +84 0 +77 0 +70 0 -66 0 
*
Fa
0  1e-07 4 0

0111000
+62 0 *
Wi

0101100
+195 0 +188 0 +181 0 +174 0 +167 0 +160 0 +153 0 +146 0 +139 0 +132 0 
+125 0 +118 0 +111 0 +104 0 +97 0 +90 0 +83 0 +76 0 +69 0 -65 0 
*
Fa
0  1e-07 5 0

0111000
+60 0 *
Sh

0101100
+193 0 +186 0 +179 0 +172 0 +165 0 +158 0 +151 0 +144 0 +137 0 +130 0 
+123 0 +116 0 +109 0 +102 0 +95 0 +88 0 +81 0 +74 0 +67 0 -63 0 
+61 3 -59 7 *
So

0100000
+58 0 *
Ve
1e-07
-17.5 0 -28.1209232022554
0 0

0101101
*
Ve
1e-07
-17.5 0 61.8790767977446
0 0

0101101
*
Ed
 1e-07 1 1 0
1  61 0 0 90
2  121 23 0 0 90
2  122 24 0 0 90
0

0101000
+56 13 -55 13 *
Ve
1e-07
-36 1 -28.1209232022554
0 0

0101101
*
Ve
1e-07
-36 1 61.8790767977446
0 0

0101101
*
Ed
 1e-07 1 1 0
1  62 0 0 90
2  123 23 0 0 90
2  124 25 0 0 90
0

0101000
+53 13 -52 13 *
Ed
 1e-07 1 1 0
1  63 0 0 18.5270073136489
2  125 23 15 0 18.5270073136489
2  126 26 0 0 18.5270073136489
0

0101000
+56 16 -53 16 *
Ed
 1e-07 1 1 0
1  64 0 0 18.5270073136489
2  127 23 19 0 18.5270073136489
2  128 27 0 0 18.5270073136489
0

0101000
+55 20 -52 20 *
Wi

0101100
+54 0 -51 0 -50 14 +49 18 *
Fa
0  1e-07 23 0

0111000
+48 0 *
Ve
1e-07
-17.5 -7.5 -28.1209232022554
0 0

0101101
*
Ve
1e-07
-17.5 -7.5 61.8790767977446
0 0

0101101
*
Ed
 1e-07 1 1 0
1  65 0 0 90
2  129 24 0 0 90
2  130 28 0 0 90
4 G1 24 0 28 0
0

0101000
+46 13 -45 13 *
Ed
 1e-07 1 1 0
1  66 0 0 7.5
2  131 24 15 0 7.5
2  132 26 0 0 7.5
0

0101000
+56 16 -46 16 *
Ed
 1e-07 1 1 0
1  67 0 0 7.5
2  133 24 19 0 7.5
2  134 27 0 0 7.5
0

0101000
+55 20 -45 20 *
Wi

0101100
+54 0 -44 0 -43 14 +42 18 *
Fa
0  1e-07 24 0

0111000
+41 0 *
Ve
1e-07
-30 -17 -28.1209232022554
0 0

0101101
*
Ve
1e-07
-30 -17 61.8790767977446
0 0

0101101
*
Ed
 1e-07 1 1 0
1  68 0 0 90
2  135 25 0 0 90
2  136 29 0 0 90
0

0101000
+39 13 -38 13 *
Ed
 1e-07 1 1 0
1  69 0 0 18.9736659610103
2  137 25 15 0 18.9736659610103
2  138 26 0 0 18.9736659610103
0

0101000
+53 16 -39 16 *
Ed
 1e-07 1 1 0
1  70 0 0 18.9736659610103
2  139 25 19 0 18.9736659610103
2  140 27 0 0 18.9736659610103
0

0101000
+52 20 -38 20 *
Wi

0101100
+51 0 -37 0 -36 14 +35 18 *
Fa
0  1e-07 25 0

0111000
+34 0 *
Ve
1e-07
-15 -10 -28.1209232022554
0 0

0101101
*
Ve
1e-07
-15 -10 61.8790767977446
0 0

0101101
*
Ed
 1e-07 1 1 0
1  71 0 0 90
2  141 28 0 0 90
2  142 30 0 0 90
4 G1 28 0 30 0
0

0101000
+32 13 -31 13 *
Ed
 1e-07 1 1 0
1  72 0 0 1.5707963267949
2  143 28 15 0 1.5707963267949
2  144 26 0 0 1.5707963267949
0

0101000
+46 16 -32 16 *
Ed
 1e-07 1 1 0
1  73 0 0 1.5707963267949
2  145 28 19 0 1.5707963267949
2  146 27 0 0 1.5707963267949
0

0101000
+45 20 -31 20 *
Wi

0101100
+44 0 -30 0 -29 14 +28 18 *
Fa
0  1e-07 28 0

0111000
+27 0 *
Ve
1e-07
0 -17 -28.1209232022554
0 0

0101101
*
Ve
1e-07
0 -17 61.8790767977446
0 0

0101101
*
Ed
 1e-07 1 1 0
1  74 0 0 90
2  147 29 0 0 90
2  148 31 0 0 90
0

0101000
+25 13 -24 13 *
Ed
 1e-07 1 1 0
1  75 0 0 30
2  149 29 15 0 30
2  150 26 0 0 30
0

0101000
+39 16 -25 16 *
Ed
 1e-07 1 1 0
1  76 0 0 30
2  151 29 19 0 30
2  152 27 0 0 30
0

0101000
+38 20 -24 20 *
Wi

0101100
+37 0 -23 0 -22 14 +21 18 *
Fa
0  1e-07 29 0

0111000
+20 0 *
Ve
1e-07
0 -10 -28.1209232022554
0 0

0101101
*
Ve
1e-07
0 -10 61.8790767977446
0 0

0101101
*
Ed
 1e-07 1 1 0
1  77 0 0 90
2  153 30 0 0 90
2  154 31 0 0 90
0

0101000
+18 13 -17 13 *
Ed
 1e-07 1 1 0
1  78 0 0 15
2  155 30 15 0 15
2  156 26 0 0 15
0

0101000
+32 16 -18 16 *
Ed
 1e-07 1 1 0
1  79 0 0 15
2  157 30 19 0 15
2  158 27 0 0 15
0

0101000
+31 20 -17 20 *
Wi

0101100
+30 0 -16 0 -15 14 +14 18 *
Fa
0  1e-07 30 0

0111000
+13 0 *
Ed
 1e-07 1 1 0
1  80 0 0 7
2  159 31 15 0 7
2  160 26 0 0 7
0

0101000
+25 16 -18 16 *
Ed
 1e-07 1 1 0
1  81 0 0 7
2  161 31 19 0 7
2  162 27 0 0 7
0

0101000
+24 20 -17 20 *
Wi

0101100
+23 0 -16 0 -11 14 +10 18 *
Fa
0  1e-07 31 0

0111000
+9 0 *
Wi

0101100
+50 0 -43 0 +36 0 -29 0 +22 0 -15 0 +11 0 *
Fa
0  1e-07 26 0

0111000
+7 0 *
Wi

0101100
+49 0 -42 0 +35 0 -28 0 +21 0 -14 0 +10 0 *
Fa
0  1e-07 27 0

0111000
+5 0 *
Sh

0101100
+47 0 -40 0 +33 0 -26 0 +19 0 -12 0 +8 0 +6 14 -4 18 *
So

0100000
-3 0 *
Co

1100000
+57 1 +2 12 *

+1 0 
0

