DBRep_DrawableShape

CASCADE Topology V1, (c) Matra-Datavision
Locations 48
1
              1               0               0               0 
              0               1               0               0 
              0               0               1               0 
1
              1               0               0               0 
              0               1               0               0 
              0               0               1 4.21166992744307 
2  2 1 1 1 0
1
              0 -0.999999774485807 -0.00067158643172053               0 
              0 0.00067158643172053 -0.999999774485807               0 
              1               0               0               0 
1
              1               0               0 3.4968501992134 
              0               1               0 0.225349224629468 
              0               0               1 0.989642195441348 
2  4 1 5 1 0
2  5 -1 4 -1 0
1
              1               0               0               0 
              0               1               0               0 
              0               0               1            0.45 
2  8 -1 0
1
              1               0               0               0 
              0               1               0               0 
              0               0               1 0.450000000000002 
1
              0              -1               0 2.97700162571467 
              0               0               1          -0.225 
             -1               0               0 0.653194670656246 
1
              1               0               0               0 
              0               1               0               0 
              0               0               1               0 
2  10 1 11 1 12 1 0
2  12 -1 11 -1 10 -1 0
2  11 1 12 1 0
2  12 -1 11 -1 0
2  8 1 4 1 5 1 0
2  5 -1 4 -1 8 -1 0
1
              0              -1               0 1.69700162571466 
              0               0               1          -0.225 
             -1               0               0 0.653194670656246 
1
              1               0               0               0 
              0               1               0               0 
              0               0               1               0 
2  19 1 20 1 0
2  20 -1 19 -1 0
1
              1               0               0               0 
              0               1               0               0 
              0               0               1            0.45 
1
              0 -0.999999774485807 -0.00067158643172053               0 
              0 0.00067158643172053 -0.999999774485807               0 
              1               0               0               0 
1
              1               0               0 2.21685048787156 
              0               1               0 0.225349224629468 
              0               0               1 0.989642195441348 
2  23 1 24 1 25 1 0
2  25 -1 24 -1 23 -1 0
2  23 -1 0
1
              0              -1               0 4.23700162571468 
              0               0               1          -0.225 
             -1               0               0 0.653194670656246 
1
              1               0               0               0 
              0               1               0               0 
              0               0               1               0 
2  29 1 30 1 0
2  30 -1 29 -1 0
1
              1               0               0               0 
              0               1               0               0 
              0               0               1            0.45 
1
              0 -0.999999774485807 -0.00067158643172053               0 
              0 0.00067158643172053 -0.999999774485807               0 
              1               0               0               0 
1
              1               0               0 4.75684991506552 
              0               1               0 0.225349224629468 
              0               0               1 0.989642195441348 
2  33 1 34 1 35 1 0
2  35 -1 34 -1 33 -1 0
2  33 -1 0
2  24 1 25 1 0
2  25 -1 24 -1 0
1
              1               0               0               0 
              0               1               0               0 
              0               0               1 0.449999999999999 
2  41 1 19 1 20 1 0
2  20 -1 19 -1 41 -1 0
2  34 1 35 1 0
2  35 -1 34 -1 0
1
              1               0               0               0 
              0               1               0               0 
              0               0               1 0.449999999999999 
2  46 1 29 1 30 1 0
2  30 -1 29 -1 46 -1 0
Curve2ds 12
1 0 0 1 0 
1 0 -0.45000000000000001 1 0 
1 0 0 0 -1 
1 3.141592653589794 0 0 -1 
1 0 0 1 0 
1 0 -0.45000000000000001 1 0 
1 0 0 1 0 
1 0 -0.45000000000000001 1 0 
1 3.141592653589794 0 0 -1 
1 0 0 0 -1 
1 3.141592653589794 0 0 -1 
1 0 0 0 -1 
Curves 46
1 5.9070016257146802 0.225000000000001 0 0 0 1 
1 5.9070016257146802 0.225000000000001 0 -1 0 0 
1 0 0.225000000000001 0 0 0 1 
1 0 0 0 1 0 0 
2 1.22 0.52000000000000002 0 -0 0 1 0 -1 0 1 0 0 0.52000000000000002
1 1.22 1.04 0 -1 0 0 
1 0.34355247521434551 0.52000000000000501 0 -1 0 0 
1 0.34355247521434551 -0.52000000000000501 0 0 1 0 
1 -0.34355247521434551 -0.52000000000000501 0 1 0 0 
1 5.9070016257146802 -0.225000000000001 0 0 0 1 
1 5.9070016257146802 -0.225000000000001 0 0 1 0 
1 0 0.225000000000001 0 0 -1 0 
1 0 -0.225000000000001 0 1 0 0 
1 0 -0.225000000000001 0 0 0 1 
1 -0.34355247521434551 -0.52000000000000501 0 0 0 1 
1 1.22 0 0 0 0 1 
1 1.2199999999999998 1.04 0 0 0 1 
1 -0.34355247521434551 0.52000000000000501 0 0 0 1 
1 0.34355247521434551 0.52000000000000501 0 0 0 1 
1 0.34355247521434551 -0.52000000000000501 0 0 0 1 
1 -0.34355247521434551 -0.52000000000000002 0 1 0 0 
1 0.34355247521434551 -0.52000000000000002 0 0 1 0 
1 0.34355247521434551 0.52000000000000002 0 -1 0 0 
1 1.22 1.04 0 -1 0 0 
2 1.22 0.52000000000000002 0 -0 0 1 0 -1 0 1 0 0 0.52000000000000002
1 0 0 0 1 0 0 
1 -0.34355247521434551 -0.52000000000000002 0 1 0 0 
1 0.34355247521434551 -0.52000000000000002 0 0 1 0 
1 0.34355247521434551 0.52000000000000002 0 -1 0 0 
1 1.22 1.04 0 -1 0 0 
2 1.22 0.52000000000000002 0 -0 0 1 0 -1 0 1 0 0 0.52000000000000002
1 0 0 0 1 0 0 
1 0 0 0 0 0 1 
1 0.34355247521434551 -0.52000000000000002 0 0 0 1 
1 0.34355247521434551 0.52000000000000002 0 0 0 1 
1 0 1.04 0 0 0 1 
1 1.2199999999999998 1.04 0 0 0 1 
1 1.22 0 0 0 0 1 
1 0 0 0 0 0 1 
1 0.34355247521434551 -0.52000000000000002 0 0 0 1 
1 0.34355247521434551 0.52000000000000002 0 0 0 1 
1 0 1.04 0 0 0 1 
1 1.2199999999999998 1.04 0 0 0 1 
1 1.22 0 0 0 0 1 
1 0 1.04 0 0 -1 0 
1 0 1.04 0 0 -1 0 
Polygon3D 0
PolygonOnTriangulations 0
Surfaces 25
1 5.9070016257146802 0.225000000000001 0 0 -1 0 -1 0 0 -0 -0 -1 
2 1.22 0.52000000000000002 0 0 -0 -1 0 -1 0 1 0 -0 0.52000000000000002
1 5.9070016257146802 -0.225000000000001 0 -1 0 0 0 1 0 0 0 -1 
1 2.9535008128573406 0 0 0 0 1 1 0 -0 -0 1 0 
1 0 0.225000000000001 0 1 0 -0 0 -1 0 0 -0 -1 
1 0 0 0 0 1 0 1 0 0 0 0 -1 
1 1.22 1.04 0 0 -1 0 -1 0 0 -0 -0 -1 
1 0.34355247521434551 0.52000000000000501 0 0 -1 0 -1 0 0 -0 -0 -1 
1 0.34355247521434551 -0.52000000000000501 0 -1 0 0 0 1 0 0 0 -1 
1 -0.34355247521434551 -0.52000000000000501 0 0 1 0 1 0 0 0 0 -1 
1 0 -0.225000000000001 0 0 1 0 1 0 0 0 0 -1 
2 1.22 0.52000000000000002 0 0 -0 -1 0 -1 0 1 0 -0 0.52000000000000002
2 1.22 0.52000000000000002 0 0 -0 -1 0 -1 0 1 0 -0 0.52000000000000002
1 -0.34355247521434551 -0.52000000000000002 0 0 1 0 1 0 0 0 0 -1 
1 0.34355247521434551 -0.52000000000000002 0 -1 0 0 0 1 0 0 0 -1 
1 0.34355247521434551 0.52000000000000002 0 0 -1 0 -1 0 0 -0 -0 -1 
1 1.22 1.04 0 0 -1 0 -1 0 0 -0 -0 -1 
1 0 0 0 0 1 0 1 0 0 0 0 -1 
1 -0.34355247521434551 -0.52000000000000002 0 0 1 0 1 0 0 0 0 -1 
1 0.34355247521434551 -0.52000000000000002 0 -1 0 0 0 1 0 0 0 -1 
1 0.34355247521434551 0.52000000000000002 0 0 -1 0 -1 0 0 -0 -0 -1 
1 1.22 1.04 0 0 -1 0 -1 0 0 -0 -0 -1 
1 0 0 0 0 1 0 1 0 0 0 0 -1 
1 0 -1.6070578460642824e-17 0 0 0 1 1 0 -0 -0 1 0 
1 0 -1.6070578460642824e-17 0 0 0 1 1 0 -0 -0 1 0 
Triangulations 0

TShapes 167
Ve
1e-07
5.90700162571468 0.225000000000001 0
0 0

0101101
*
Ed
 1e-07 1 1 0
1  1 0 0 4.21166992744307
0

0101000
+167 0 -167 2 *
Ve
1e-07
0 0.225000000000001 0
0 0

0101101
*
Ed
 1e-07 1 1 0
1  2 0 0 5.90700162571468
0

0101000
+167 0 -165 0 *
Ed
 1e-07 1 1 0
1  3 0 0 4.21166992744307
0

0101000
+165 0 -165 2 *
Wi

0101100
+166 1 -164 1 +164 3 -163 1 *
Ve
0.00721787159656019
3.49692484941336 0.22517706395613 0.993144792184885
0 0

0101101
*
Ve
0.00714459758420237
3.4968501992134 0.225349224629468 2.20964219544135
0 0

0101101
*
Ed
 0.000349324629466988 1 1 0
1  4 0 0 1.22
0

0101000
+161 7 -160 7 *
Ve
0.00714459758420237
2.45685043374816 0.226047674518457 2.20964219544135
0 0

0101101
*
Ed
 0.00104767451945633 1 1 0
1  5 0 0 3.14159265358979
2  1 2 0 0 3.14159265358979
2  2 2 9 0 3.14159265358979
0

0101000
+160 7 -158 7 *
Ve
0.00721788572581213
2.45692497840885 0.225531122327901 0.993145265949764
0 0

0101101
*
Ed
 0.00104777451845633 1 1 0
1  6 0 0 1.22
0

0101000
+158 7 -156 7 *
Ve
0.00707120923422171
2.45700162571466 0.225000000000002 0.3096421954419
0 0

0101101
*
Ed
 1.00000000999201e-07 1 1 0
1  7 0 0 0.687104950428691
0

0101000
+154 14 -156 14 *
Ve
0.00707120923422171
3.49700162571467 0.225000000000002 0.3096421954419
0 0

0101101
*
Ed
 1.00000000999201e-07 1 1 0
1  8 0 0 1.04000000000001
0

0101000
+152 14 -154 14 *
Ed
 1.00000000999201e-07 1 1 0
1  9 0 0 0.687104950428691
0

0101000
+161 14 -152 14 *
Wi

0101100
-159 6 -157 6 -155 6 +153 13 +151 13 +150 13 *
Fa
0  1e-07 1 1

0111000
+162 0 +149 0 *
Ve
1e-07
5.90700162571468 -0.225000000000001 0
0 0

0101101
*
Ed
 1e-07 1 1 0
1  10 0 0 4.21166992744307
0

0101000
+147 0 -147 2 *
Ed
 1e-07 1 1 0
1  11 0 0 0.450000000000002
0

0101000
+147 0 -167 0 *
Wi

0101100
+146 0 -166 0 -145 0 +145 2 *
Fa
0  1e-07 3 0

0111000
+144 0 *
Ve
1e-07
0 -0.225000000000001 0
0 0

0101101
*
Ed
 1e-07 1 1 0
1  12 0 0 0.450000000000002
0

0101000
+165 0 -142 0 *
Ed
 1e-07 1 1 0
1  13 0 0 5.90700162571468
0

0101000
+142 0 -147 0 *
Wi

0101100
+164 0 +141 0 +140 0 +145 0 *
Fa
0  1e-07 4 0

0111000
+139 0 *
Ed
 1e-07 1 1 0
1  14 0 0 4.21166992744307
0

0101000
+142 0 -142 2 *
Wi

0101100
+163 0 -137 0 -141 0 +141 2 *
Fa
0  1e-07 5 0

0111000
+136 0 *
Ve
0.00721787159656019
3.4967716265898 -0.224822889009483 0.993144882057514
0 0

0101101
*
Ed
 0.00721787159656019 1 1 0
1  15 0 0 0.450000000000002
0

0101000
+134 16 -161 16 *
Ve
0.00104777600084524
3.49654798531913 -0.224650673889145 2.20964219544135
0 0

0101101
*
Ed
 0.0001 1 1 0
1  16 0 0 0.45
2  3 2 0 0 0.45
4 G1 6 0 2 0
0

0101000
+160 7 -132 7 *
Ed
 0.000349426110855835 1 1 0
1  4 0 0 1.22
0

0101000
+134 18 -132 18 *
Wi

0101100
-133 15 -131 6 -159 6 +130 17 *
Fa
0  0.0001 6 6

0111000
+129 0 *
Ve
0.00104787599984518
2.45654821985389 -0.223952224000156 2.20964219544135
0 0

0101101
*
Ed
 0.0001 1 1 0
1  17 0 0 0.45
2  4 2 0 0 0.45
4 G1 2 0 7 0
0

0101000
+158 7 -127 7 *
Ed
 0.00104777600084524 1 1 0
1  5 0 0 3.14159265358979
2  1 2 0 0 3.14159265358979
2  2 2 9 0 3.14159265358979
0

0101000
+132 18 -127 18 *
Wi

0101100
+131 6 -126 6 -157 6 +125 17 *
Fa
0  0.0001 2 6

0111000
+124 0 *
Ve
0.00721788572581213
2.45677177557264 -0.224468839105949 0.993145353290166
0 0

0101101
*
Ed
 0.00721788572581213 1 1 0
1  18 0 0 0.450000000000002
0

0101000
+122 16 -156 16 *
Ed
 0.00104787599984518 1 1 0
1  6 0 0 1.22
0

0101000
+127 18 -122 18 *
Wi

0101100
+126 6 +121 15 -155 6 +120 17 *
Fa
0  0.0001 7 6

0111000
+119 0 *
Ve
0.00707120923422171
2.45700162571466 -0.225 0.3096421954419
0 0

0101101
*
Ed
 1e-07 1 1 0
1  19 0 0 0.450000000000002
0

0101000
+117 16 -154 16 *
Ed
 1.00000000999201e-07 1 1 0
1  7 0 0 0.687104950428691
0

0101000
+117 16 -122 16 *
Wi

0101100
+116 15 -121 15 -115 15 +153 13 *
Fa
0  1e-07 8 15

0111000
+114 0 *
Ve
0.00707120923422171
3.49700162571467 -0.225 0.3096421954419
0 0

0101101
*
Ed
 1e-07 1 1 0
1  20 0 0 0.450000000000002
0

0101000
+112 16 -152 16 *
Ed
 1.00000000999201e-07 1 1 0
1  8 0 0 1.04000000000001
0

0101000
+112 16 -117 16 *
Wi

0101100
+111 15 -116 15 -110 15 +151 13 *
Fa
0  1e-07 9 15

0111000
+109 0 *
Ed
 1.00000000999201e-07 1 1 0
1  9 0 0 0.687104950428691
0

0101000
+134 16 -112 16 *
Wi

0101100
+133 15 -111 15 -107 15 +150 13 *
Fa
0  1e-07 10 15

0111000
+106 0 *
Wi

0101100
+137 1 -140 1 +140 3 -146 1 *
Ve
0.00711794010727367
2.21677177293348 -0.224822889003176 0.993144881929234
0 0

0101101
*
Ve
0.00707120923422171
2.21700162571466 -0.225 0.3096421954419
0 0

0101101
*
Ed
 1.00000000999201e-07 1 1 0
1  21 0 0 0.687104950428691
0

0101000
+103 22 -102 22 *
Ve
0.00707120923422171
1.17700162571466 -0.225 0.3096421954419
0 0

0101101
*
Ed
 1.00000000999201e-07 1 1 0
1  22 0 0 1.04
0

0101000
+102 22 -100 22 *
Ve
0.00711792600289685
1.17677192189742 -0.224468839087573 0.993145353165559
0 0

0101101
*
Ed
 1.00000000999201e-07 1 1 0
1  23 0 0 0.687104950428691
0

0101000
+100 22 -98 22 *
Ve
0.00104787599984518
1.17654850851205 -0.223952224000156 2.20964219544135
0 0

0101101
*
Ed
 0.00104787599984518 1 1 0
1  24 0 0 1.22
0

0101000
+96 27 -98 27 *
Ve
0.00104777600084524
2.21654827397729 -0.224650673889145 2.20964219544135
0 0

0101101
*
Ed
 0.00104777600084524 1 1 0
1  25 0 0 3.14159265358979
2  5 12 0 0 3.14159265358979
2  6 12 28 0 3.14159265358979
0

0101000
+94 27 -96 27 *
Ed
 0.000349426110855835 1 1 0
1  26 0 0 1.22
0

0101000
+103 27 -94 27 *
Wi

0101100
-101 21 -99 21 -97 21 +95 26 +93 26 +92 26 *
Wi

0101100
-107 15 -110 15 -115 15 +120 17 +125 17 +130 17 *
Ve
0.00711797458686983
4.75677148253274 -0.224822889015696 0.993144882183867
0 0

0101101
*
Ve
0.00707120923422171
4.75700162571468 -0.225 0.3096421954419
0 0

0101101
*
Ed
 1.00000000999201e-07 1 1 0
1  27 0 0 0.687104950428691
0

0101000
+89 32 -88 32 *
Ve
0.00707120923422171
3.71700162571468 -0.225 0.3096421954419
0 0

0101101
*
Ed
 1.00000000999201e-07 1 1 0
1  28 0 0 1.04
0

0101000
+88 32 -86 32 *
Ve
0.00711796046368729
3.71677163153419 -0.224468839124049 0.993145353412902
0 0

0101101
*
Ed
 1.00000000999201e-07 1 1 0
1  29 0 0 0.687104950428691
0

0101000
+86 32 -84 32 *
Ve
0.00104787599984518
3.71654793570601 -0.223952224000156 2.20964219544135
0 0

0101101
*
Ed
 0.00104787599984518 1 1 0
1  30 0 0 1.22
0

0101000
+82 37 -84 37 *
Ve
0.00104777600084525
4.75654770117125 -0.224650673889145 2.20964219544135
0 0

0101101
*
Ed
 0.00104777600084525 1 1 0
1  31 0 0 3.14159265358979
2  7 13 0 0 3.14159265358979
2  8 13 38 0 3.14159265358979
0

0101000
+80 37 -82 37 *
Ed
 0.000349426110855835 1 1 0
1  32 0 0 1.22
0

0101000
+89 37 -80 37 *
Wi

0101100
-87 31 -85 31 -83 31 +81 36 +79 36 +78 36 *
Fa
0  1e-07 11 1

0111000
+104 0 +91 0 +90 0 +77 0 *
Ve
0.00717361881557367
2.21692499576797 0.225177063958243 0.993144792141861
0 0

0101101
*
Ed
 0.00711794010727367 1 1 0
1  33 0 0 0.45
0

0101000
+75 40 -103 40 *
Ve
0.00707120923422171
2.21700162571466 0.224999999999999 0.3096421954419
0 0

0101101
*
Ed
 1e-07 1 1 0
1  34 0 0 0.449999999999999
0

0101000
+102 22 -73 22 *
Ed
 1.00000001998401e-07 1 1 0
1  21 0 0 0.687104950428691
0

0101000
+75 43 -73 43 *
Wi

0101100
-74 39 -72 21 -101 21 +71 42 *
Fa
0  1e-07 14 21

0111000
+70 0 *
Ve
0.00707120923422171
1.17700162571466 0.224999999999999 0.3096421954419
0 0

0101101
*
Ed
 1e-07 1 1 0
1  35 0 0 0.449999999999999
0

0101000
+100 22 -68 22 *
Ed
 1.00000001998401e-07 1 1 0
1  22 0 0 1.04
0

0101000
+73 43 -68 43 *
Wi

0101100
+72 21 -67 21 -99 21 +66 42 *
Fa
0  1e-07 15 21

0111000
+65 0 *
Ve
0.00717361881557367
1.17692512474424 0.225531122334055 0.993145265908018
0 0

0101101
*
Ed
 0.00711792600289685 1 1 0
1  36 0 0 0.45
0

0101000
+63 40 -98 40 *
Ed
 1.00000001998401e-07 1 1 0
1  23 0 0 0.687104950428691
0

0101000
+68 43 -63 43 *
Wi

0101100
+67 21 +62 39 -97 21 +61 42 *
Fa
0  1e-07 16 21

0111000
+60 0 *
Ve
0.00714459758420237
1.17685072240632 0.226047674518457 2.20964219544135
0 0

0101101
*
Ed
 0.0001 1 1 0
1  37 0 0 0.45
2  9 12 0 0 0.45
4 G1 12 0 17 0
0

0101000
+58 40 -96 40 *
Ed
 0.00104777451845633 1 1 0
1  24 0 0 1.22
0

0101000
+58 40 -63 40 *
Wi

0101100
+57 39 -62 39 -56 39 +95 26 *
Fa
0  0.0001 17 39

0111000
+55 0 *
Ve
0.00714459758420237
2.21685048787156 0.225349224629468 2.20964219544135
0 0

0101101
*
Ed
 0.0001 1 1 0
1  38 0 0 0.45
2  10 12 0 0 0.45
4 G1 18 0 12 0
0

0101000
+53 40 -94 40 *
Ed
 0.00104767451945633 1 1 0
1  25 0 0 3.14159265358979
2  5 12 0 0 3.14159265358979
2  6 12 28 0 3.14159265358979
0

0101000
+53 40 -58 40 *
Wi

0101100
+52 39 -57 39 -51 39 +93 26 *
Fa
0  0.0001 12 39

0111000
+50 0 *
Ed
 0.000349324629466988 1 1 0
1  26 0 0 1.22
0

0101000
+75 40 -53 40 *
Wi

0101100
+74 39 -52 39 -48 39 +92 26 *
Fa
0  0.0001 18 39

0111000
+47 0 *
Ve
0.00717361881557367
4.75692470534554 0.225177063954043 0.993144792227318
0 0

0101101
*
Ed
 0.00711797458686983 1 1 0
1  39 0 0 0.45
0

0101000
+45 45 -89 45 *
Ve
0.00707120923422171
4.75700162571468 0.224999999999999 0.3096421954419
0 0

0101101
*
Ed
 1e-07 1 1 0
1  40 0 0 0.449999999999999
0

0101000
+88 32 -43 32 *
Ed
 1.00000001998401e-07 1 1 0
1  27 0 0 0.687104950428691
0

0101000
+45 48 -43 48 *
Wi

0101100
-44 44 -42 31 -87 31 +41 47 *
Fa
0  1e-07 19 31

0111000
+40 0 *
Ve
0.00707120923422171
3.71700162571468 0.224999999999999 0.3096421954419
0 0

0101101
*
Ed
 1e-07 1 1 0
1  41 0 0 0.449999999999999
0

0101000
+86 32 -38 32 *
Ed
 1.00000001998401e-07 1 1 0
1  28 0 0 1.04
0

0101000
+43 48 -38 48 *
Wi

0101100
+42 31 -37 31 -85 31 +36 47 *
Fa
0  1e-07 20 31

0111000
+35 0 *
Ve
0.00717361881557367
3.71692483435996 0.225531122321829 0.993145265990935
0 0

0101101
*
Ed
 0.00711796046368729 1 1 0
1  42 0 0 0.45
0

0101000
+33 45 -84 45 *
Ed
 1.00000001998401e-07 1 1 0
1  29 0 0 0.687104950428691
0

0101000
+38 48 -33 48 *
Wi

0101100
+37 31 +32 44 -83 31 +31 47 *
Fa
0  1e-07 21 31

0111000
+30 0 *
Ve
0.00714459758420237
3.71685014960028 0.226047674518457 2.20964219544135
0 0

0101101
*
Ed
 0.0001 1 1 0
1  43 0 0 0.45
2  11 13 0 0 0.45
4 G1 13 0 22 0
0

0101000
+28 45 -82 45 *
Ed
 0.00104777451845633 1 1 0
1  30 0 0 1.22
0

0101000
+28 45 -33 45 *
Wi

0101100
+27 44 -32 44 -26 44 +81 36 *
Fa
0  0.0001 22 44

0111000
+25 0 *
Ve
0.00714459758420237
4.75684991506552 0.225349224629468 2.20964219544135
0 0

0101101
*
Ed
 0.0001 1 1 0
1  44 0 0 0.45
2  12 13 0 0 0.45
4 G1 23 0 13 0
0

0101000
+23 45 -80 45 *
Ed
 0.00104767451945634 1 1 0
1  31 0 0 3.14159265358979
2  7 13 0 0 3.14159265358979
2  8 13 38 0 3.14159265358979
0

0101000
+23 45 -28 45 *
Wi

0101100
+22 44 -27 44 -21 44 +79 36 *
Fa
0  0.0001 13 44

0111000
+20 0 *
Ed
 0.000349324629466988 1 1 0
1  32 0 0 1.22
0

0101000
+45 45 -23 45 *
Wi

0101100
+44 44 -22 44 -18 44 +78 36 *
Fa
0  0.0001 23 44

0111000
+17 0 *
Ed
 0.00717361881557367 1 1 0
1  45 0 0 1.04
0

0101000
+63 40 -75 40 *
Wi

0101100
-71 42 -66 42 -61 42 -15 39 *
Wi

0101100
-48 39 -51 39 -56 39 +61 42 +66 42 +71 42 *
Fa
0  1e-07 1 1

0111000
+14 0 +13 0 *
Ed
 0.00717361881557367 1 1 0
1  46 0 0 1.04
0

0101000
+33 45 -45 45 *
Wi

0101100
-41 47 -36 47 -31 47 -11 44 *
Wi

0101100
-18 44 -21 44 -26 44 +31 47 +36 47 +41 47 *
Fa
0  1e-07 1 1

0111000
+10 0 +9 0 *
Wi

0101100
+71 42 +66 42 +61 42 +15 39 *
Fa
0  1e-07 24 42

0111000
+7 0 *
Wi

0101100
+41 47 +36 47 +31 47 +11 44 *
Fa
0  1e-07 25 47

0111000
+5 0 *
Sh

0101100
-148 0 -143 1 -138 1 +138 3 -135 1 +128 0 +123 0 +118 0 +113 0 +108 0 
+105 0 -76 0 +69 0 +64 0 +59 0 +54 0 +49 0 +46 0 +39 0 +34 0 
+29 0 +24 0 +19 0 +16 0 -12 0 -8 0 -6 0 -4 0 *
So

0100000
+3 0 *
Co

1100000
+2 0 *

+1 0 
0

