DBRep_DrawableShape

CASCADE Topology V1, (c) Matra-Datavision
Locations 0
Curve2ds 4
1 0 0 0 1 
1 1 0 0 1 
1 0 0 1 0 
1 0 1 1 0 
Curves 9
7 0 0  3 4 2  2.0003330525746295 0.0024978943097201619 0  1.7002406603726998 0.0019446427173466167 2  1.4001482681707698 0.0013913911249730708 4  1.1000558759688401 0.00083813953259952558 6 
 0 4 1 4
7 0 0  3 53 51  2.0003330525746295 0.0024978943097201619 0  1.9996841736080571 0.002677887835960359 0  1.9970911495445822 0.0033971694327781126 0  1.9912632459773667 0.0050083123004547063 0  1.9815790546398335 0.007670057788603947 0  1.9680561780931654 0.011353675521208193 0  1.9507613690120951 0.016009083930580804 0  1.9297348117172259 0.021585689016567971 0  1.9050639598545558 0.02801340910128796 0  1.8768270581040372 0.035219349552228441 0  1.8451278127584094 0.043119507102383478 0  1.8100780634510958 0.051624850552270195 0  1.7718046186673762 0.060640701173127164 0  1.7304467432201596 0.07006863534955235 0  1.6861564821103374 0.079807501094944333 0  1.6390981393281658 0.089754541515879749 0  1.5894478477852048 0.099806351264805734 0  1.5373930262515469 0.10985971968179808 0  1.4831317762087575 0.11981235495667661 0  1.4268722156298073 0.12956350883798048 0  1.3688317625274902 0.13901452778519538 0  1.3092363724356761 0.1480693560702443 0  1.2483197373855395 0.15663504524186048 0  1.1863224721697085 0.16462223738007981 0  1.1234911534619536 0.17194584867603394 0  1.0600777155752936 0.17852546892235918 0  0.99633774555802912 0.18428652654379143 0  0.93253112345239875 0.18916153570813402 0  0.86891781598091278 0.19308223844567743 0  0.80558711924670279 0.1960494203846605 0  0.74274173402218957 0.19777250149378056 0  0.68064990641458989 0.19780540107999384 0  0.61977156236678566 0.1962913696148007 0  0.560428498687496 0.19321738903543198 0  0.50289149196814442 0.18865020135897242 0  0.44742322680090091 0.18265820208608419 0  0.39427578147457309 0.17533379917479228 0  0.34368912793021872 0.16678508491797472 0  0.29588929668079322 0.15713576351272349 0  0.2510870357593894 0.14652225979640893 0  0.20947672809382484 0.13509110918454947 0  0.17123570902299703 0.12299591044393289 0  0.13652398673988558 0.11039420217633508 0  0.1054844465436157 0.097444311893166879 0  0.078243349865508419 0.084302864108069697 0  0.054911296900001447 0.07112233449303966 0  0.035583215168469622 0.058053227391164204 0  0.020336205912931515 0.045242624805719063 0  0.0092166478160584358 0.032856827598278661 0  0.0021981663503842113 0.021059760978135257 0  -0.00089237035436244441 0.010051583409939861 0  -0.00062418502885366292 0.003121990712603414 0  0 0 0 
 0 4 0.0009728687749951259 1 0.0038875501192132469 1 0.0087322894785794823 1 0.015487563422424151 1 0.024126179285208219 1 0.034613411610208623 1 0.046907172648996458 1 0.060958213782351452 1 0.076710354568008399 1 0.094100736176861266 1 0.11306009622047182 1 0.1335130623548445 1 0.15537846251978299 1 0.17856965019409804 1 0.20299484357688991 1 0.22855747811646665 1 0.25515657228204669 1 0.28268710689452381 1 0.31104041868564347 1 0.34010460901883011 1 0.36976496885060395 1 0.39990442100343448 1 0.43040398062211449 1 0.46114323426694981 1 0.49200083744722345 1 0.52285502953532537 1 0.55358416398041987 1 0.58406725065541165 1 0.61443958854168934 1 0.64439585344584649 1 0.67375450979664109 1 0.70240187674027554 1 0.73022718672673781 1 0.75712312313028818 1 0.7829863662509583 1 0.80771815020271376 1 0.8312248382212426 1 0.85341853142959034 1 0.87421773748345089 1 0.89354814358420009 1 0.91134356876043054 1 0.92754722472800166 1 0.94211351775016361 1 0.95501083023826849 1 0.96622615584153282 1 0.97577342450224269 1 0.98370955638766244 1 0.99016720837548478 1 0.99542162565705494 1 1 4
7 0 0  3 4 2  0 0 0  0.033333333333333333 0 2  0.066666666666666693 0 4  0.10000000000000001 0 6 
 0 4 1 4
7 0 0  3 53 51  1.1000558759688401 0.00083813953259952558 6  1.0997306461975891 0.0008904760053093908 6  1.0984309782619899 0.0010996209271283055 6  1.0955103926333813 0.0015681052007746402 5.9999999999999991  1.0906586065783319 0.0023421081156691946 5.9999999999999991  1.0838864918769131 0.0034133393620013456 5.9999999999999991  1.075230013029763 0.004767356902369335 6  1.0647128191902291 0.0063895774147900552 5.9999999999999991  1.052382070436737 0.0082599250340182218 6.0000000000000018  1.0382813114874456 0.010357496691429881 5.9999999999999964  1.0224664184957255 0.012658365906003376 6  1.0049977708881577 0.015137200988953393 5.9999999999999973  0.9859429023082662 0.017767188523735641 6.0000000000000036  0.96537545156005589 0.02052052646055413 5.9999999999999991  0.94337506256119885 0.023368728781513724 5.9999999999999964  0.9200270858042412 0.026282919148457904 6.0000000000000009  0.89542226487949339 0.029234080397026359 6.0000000000000009  0.86965640858401194 0.032193260087085541 6.0000000000000009  0.84283003917384214 0.035131737535208596 6  0.81504802335681326 0.038021158528330545 6.0000000000000018  0.78641918558367463 0.040833647286619958 5.9999999999999991  0.75705590648212895 0.043541907995279697 6.0000000000000027  0.72707370145665495 0.046119324022667198 6.0000000000000009  0.69659080007568108 0.048540083871846849 5.9999999999999991  0.66572765956305691 0.050779277271965871 5.9999999999999982  0.63460659999958224 0.052813225027648548 6.0000000000000018  0.60335109469567338 0.054619133153802422 5.9999999999999982  0.57208573914312932 0.056177190519946504 5.9999999999999991  0.54093484682768656 0.057464998047540759 5.9999999999999973  0.50993726662612637 0.058478238123456427 6.0000000000000044  0.4791920727106535 0.059174532437975221 5.9999999999999991  0.44882061634535753 0.059416388680698116 5.9999999999999991  0.41903290912293506 0.059216467446430623 6  0.38997316794267467 0.058577570204104146 6.0000000000000009  0.36176052327087743 0.057508549119176106 6.0000000000000009  0.33451076285817072 0.056024667028316183 5.9999999999999991  0.30833548145095191 0.054145859870813322 5.9999999999999982  0.28334144851419951 0.051897307851112358 6.0000000000000009  0.25962990992626556 0.049308734024824989 5.9999999999999982  0.23729591505741371 0.046413996898293029 6.0000000000000009  0.21642764109307516 0.043250408837513431 6.0000000000000009  0.19710571482889214 0.039857974422670507 5.9999999999999991  0.17940241582718339 0.036278499128101001 6  0.16338093393244782 0.032554575619301203 6  0.14909368095583767 0.028728391683131963 6  0.13658216864952888 0.024840159765162687 6  0.12586911247421276 0.020925962638963295 6  0.11696835806519545 0.017011227625411053 6.0000000000000009  0.1098383012889225 0.013104539286834971 6  0.10447810187798892 0.0091410355420007919 6  0.10074780864801787 0.004948659172542549 6  0.099845320078101318 0.0015480578791200047 6  0.10000000000000001 0 6 
 0 4 0.0009728687749951259 1 0.0038875501192132469 1 0.0087322894785794823 1 0.015487563422424151 1 0.024126179285208219 1 0.034613411610208623 1 0.046907172648996458 1 0.060958213782351452 1 0.076710354568008399 1 0.094100736176861266 1 0.11306009622047182 1 0.1335130623548445 1 0.15537846251978299 1 0.17856965019409804 1 0.20299484357688991 1 0.22855747811646665 1 0.25515657228204669 1 0.28268710689452381 1 0.31104041868564347 1 0.34010460901883011 1 0.36976496885060395 1 0.39990442100343448 1 0.43040398062211449 1 0.46114323426694981 1 0.49200083744722345 1 0.52285502953532537 1 0.55358416398041987 1 0.58406725065541165 1 0.61443958854168934 1 0.64439585344584649 1 0.67375450979664109 1 0.70240187674027554 1 0.73022718672673781 1 0.75712312313028818 1 0.7829863662509583 1 0.80771815020271376 1 0.8312248382212426 1 0.85341853142959034 1 0.87421773748345089 1 0.89354814358420009 1 0.91134356876043054 1 0.92754722472800166 1 0.94211351775016361 1 0.95501083023826849 1 0.96622615584153282 1 0.97577342450224269 1 0.98370955638766244 1 0.99016720837548478 1 0.99542162565705494 1 1 4
7 0 0  3 53 51  0 0 0  0.00061938804130940697 -0.0030979975857750659 0  0.003006964321691348 -0.009540915239958021 0  0.0099462037245518064 -0.018467748482111423 0  0.020684561846373559 -0.026699311790272493 0  0.035286689779242257 -0.034043298428712815 0  0.053698559024772045 -0.04041218500644371 0  0.075803868265548774 -0.045764890326572022 0  0.10147469638833238 -0.050107267661872769 0  0.13057575474720465 -0.053463689921213413 0  0.16296759891734797 -0.055874158145649513 0  0.19850586725907357 -0.057389222900659502 0  0.23704107615242975 -0.058069366642860464 0  0.27841846886420785 -0.057984260359191679 0  0.32247801315662084 -0.057212459459011877 0  0.36905445419958421 -0.055840908155777615 0  0.41797734145139293 -0.053964183700954342 0  0.46907098105412059 -0.051683528108462391 0  0.52215437724697356 -0.049105078108102995 0  0.57704089742984033 -0.0463395235100173 0  0.63353845585299318 -0.043495005307063565 0  0.69144870327170782 -0.040692793234357844 0  0.75061204994568165 -0.038000752170462698 0  0.81099448755648451 -0.035642260679260664 0  0.87235675477783714 -0.033254673913021296 0  0.93441257945852452 -0.03070521739588038 0  0.99675312500410096 -0.028113272920188823 0  1.0591372010291185 -0.025522456414441577 0  1.121324907104303 -0.02298574409435936 0  1.1830741881085718 -0.020544646170350945 0  1.2441441009482579 -0.018233792078882084 0  1.3042946800712427 -0.016079563194469387 0  1.3632884344849563 -0.014100537604009927 0  1.4208912015222552 -0.012307866663648175 0  1.476873224460747 -0.01070594883575368 0  1.5310101499294411 -0.0092932730397596777 0  1.5830840192832527 -0.0080633873890518567 0  1.6328842299419084 -0.0070059348019895678 0  1.6802084671878457 -0.0061076993653719509 0  1.7248636071903625 -0.005353612501660247 0  1.766666585882928 -0.0047276755759887859 0  1.8054452435838892 -0.0042137652583772774 0  1.8410391867859384 -0.0037962987943075967 0  1.8733001894389245 -0.0034607507549399351 0  1.9020947147299987 -0.0031940065338743463 0  1.9272985852848008 -0.0029846198831209622 0  1.948813554225594 -0.002822821148478533 0  1.9665346476705035 -0.0027007158044828903 0  1.9804062333795818 -0.0026118817472963862 0  1.9903487459879026 -0.0025517404880722851 0  1.9963355102945224 -0.0025168702607358258 0  1.9990001154000558 -0.0025016926345927944 0  1.9996669474253705 -0.0024978943097201619 0 
 0 4 0.004674304042370625 1 0.010028413952089182 1 0.016584798045588697 1 0.024609624630368282 1 0.034225597723165177 1 0.045479979569693317 1 0.05837786311546813 1 0.072898565370808924 1 0.089004208212894301 1 0.10664454968020715 1 0.12575990669289228 1 0.14628304161450134 1 0.16814044891685109 1 0.19125327288225136 1 0.2155379862609671 1 0.24090690798686162 1 0.26726861030728366 1 0.29452825003126071 1 0.32258784914136962 1 0.35134654378764307 1 0.38070081620706614 1 0.41061176946115036 1 0.44116127868017202 1 0.47197132546598181 1 0.5029231875000677 1 0.53389704370523039 1 0.56477246348060794 1 0.59542889982093539 1 0.62574618253429681 1 0.65560500844882463 1 0.68488742627362653 1 0.71347731454643637 1 0.74126085178118084 1 0.76812697847050027 1 0.793967850971804 1 0.81867928749757146 1 0.84216120643883496 1 0.86431805707826415 1 0.88505924240348144 1 0.90429953322459111 1 0.92195947215304364 1 0.93796576524450248 1 0.95225165829390113 1 0.96475729395937038 1 0.97543004515895015 1 0.98422481961204755 1 0.99110433006575538 1 0.99603932472006584 1 0.99900877268738197 1 1 4
7 0 0  3 4 2  1.9996669474253705 -0.0024978943097201619 0  1.6997593396273005 -0.0019446427173466167 2  1.3998517318292301 -0.0013913911249730708 4  1.09994412403116 -0.00083813953259952558 6 
 0 4 1 4
7 0 0  3 53 51  0.10000000000000001 0 6  0.100156396067156 -0.0015652332962954663 6  0.10174256297075385 -0.0047459367032357735 6.0000000000000009  0.10626947994853522 -0.0081349403615686953 5.9999999999999973  0.11232849147835211 -0.010988360334999489 6.0000000000000009  0.12007972895431729 -0.01346214621265545 5.9999999999999982  0.12952571026247175 -0.015643138701612741 6  0.14069649040287602 -0.017540587069871206 6  0.15356677342420477 -0.019162800010605028 6.0000000000000009  0.16810301049590468 -0.020512557852328413 5.9999999999999991  0.18425516401416731 -0.02159516156185514 6.0000000000000018  0.20196499449098942 -0.022418140325125176 5.9999999999999991  0.22116653671964367 -0.022992003655789392 6  0.24178794292694336 -0.02333022447591316 5.9999999999999991  0.26375226480133129 -0.023449227039509798 6.0000000000000018  0.28697816412356952 -0.023368233993414964 5.9999999999999982  0.31138038871319218 -0.023109046949808826 6.0000000000000027  0.33687014214666378 -0.022695716382174016 6.0000000000000018  0.36335535938774083 -0.022154189755747573 6.0000000000000018  0.39074090254831706 -0.021511766826584063 5.9999999999999982  0.41892878561732472 -0.020796548963162801 6.0000000000000009  0.44781818925222805 -0.020037926437350119 6  0.47732823202981234 -0.019258199466874282 5.9999999999999991  0.50743967148869495 -0.018507619257493769 6  0.53803790747772551 -0.017688947685360952 5.9999999999999991  0.56898292383873139 -0.016788606340662812 6.0000000000000009  0.60006893948209528 -0.015838233407652346 6.0000000000000009  0.63117571033205588 -0.014853058250996783 6.0000000000000036  0.662182850584913 -0.013850465679501451 5.9999999999999973  0.69296955923047998 -0.012845017343561039 6.0000000000000027  0.72341549425726892 -0.011849600640211632 6.0000000000000018  0.75340105952110281 -0.0108750062489417 6  0.78280797094444754 -0.009930030581784783 6.0000000000000018  0.81151971009759249 -0.0090215493747478233 5.9999999999999991  0.83942201292340979 -0.0081546835059821774 6  0.86640334201748426 -0.0073330130045814665 6  0.89235535456592741 -0.0065588284124885685 6.0000000000000027  0.91717336180535614 -0.0058334009586113716 6.0000000000000018  0.94075678012852759 -0.0051572544087730302 5.9999999999999964  0.96300957225997919 -0.0045304226081756193 6.0000000000000018  0.98384068164531069 -0.0039526788918496829 6  1.0031644418662908 -0.0034237271038954804 6.0000000000000018  1.0209010485282939 -0.0029433447038208923 5.9999999999999991  1.0369766616037621 -0.0025114860163737321 5.9999999999999991  1.0513249062631511 -0.0021282991797233865 5.9999999999999991  1.0638837540655754 -0.0017942202802596161 6  1.0746045467383705 -0.0015097074258762098 5.9999999999999991  1.0834347142837295 -0.0012756430847433249 5.9999999999999991  1.0903467826234756 -0.0010924919816068664 6.0000000000000027  1.0953010008161641 -0.00096121029490325611 5.9999999999999991  1.0982841158578205 -0.00088214489510039492 6.0000000000000018  1.099611851385069 -0.00084694779002220089 6  1.09994412403116 -0.00083813953259952558 6 
 0 4 0.004674304042370625 1 0.010028413952089182 1 0.016584798045588697 1 0.024609624630368282 1 0.034225597723165177 1 0.045479979569693317 1 0.05837786311546813 1 0.072898565370808924 1 0.089004208212894301 1 0.10664454968020715 1 0.12575990669289228 1 0.14628304161450134 1 0.16814044891685109 1 0.19125327288225136 1 0.2155379862609671 1 0.24090690798686162 1 0.26726861030728366 1 0.29452825003126071 1 0.32258784914136962 1 0.35134654378764307 1 0.38070081620706614 1 0.41061176946115036 1 0.44116127868017202 1 0.47197132546598181 1 0.5029231875000677 1 0.53389704370523039 1 0.56477246348060794 1 0.59542889982093539 1 0.62574618253429681 1 0.65560500844882463 1 0.68488742627362653 1 0.71347731454643637 1 0.74126085178118084 1 0.76812697847050027 1 0.793967850971804 1 0.81867928749757146 1 0.84216120643883496 1 0.86431805707826415 1 0.88505924240348144 1 0.90429953322459111 1 0.92195947215304364 1 0.93796576524450248 1 0.95225165829390113 1 0.96475729395937038 1 0.97543004515895015 1 0.98422481961204755 1 0.99110433006575538 1 0.99603932472006584 1 0.99900877268738197 1 1 4
7 0 0  3 5 3  1.9996669474253705 -0.0024978943097201619 0  1.999777964950247 -0.0016652628731467745 0  2 6.5052130349130266e-19 0  2.0002220350497533 0.001665262873146775 0  2.0003330525746295 0.0024978943097201619 0 
 0 4 0.5 1 1 4
7 0 0  3 5 3  1.09994412403116 -0.00083813953259952558 6  1.0999627493541064 -0.00055875968839968375 6  1.1000000000000001 0 6  1.1000372506458937 0.00055875968839968375 6  1.1000558759688401 0.00083813953259952558 6 
 0 4 0.5 1 1 4
Polygon3D 0
PolygonOnTriangulations 0
Surfaces 5
9 0 0 0 0 3 3 53 4 51 2 2.0003330525746295 0.0024978943097201619 0  1.7002406603726998 0.0019446427173466167 2  1.4001482681707698 0.0013913911249730708 4  1.1000558759688401 0.00083813953259952558 6  
1.9996841736080571 0.002677887835960359 0  1.6996996747719959 0.0020820925619701811 2  1.3997151450336502 0.0014862712792995684 4.0000000000000009  1.0997306461975891 0.0008904760053093908 6  
1.9970911495445822 0.0033971694327781126 0  1.6975377441341515 0.0026313075020290046 2.0000000015625532  1.3979843836974157 0.0018654828519127449 3.9999999984374468  1.0984309782619899 0.0010996209271283055 6  
1.9912632459773667 0.0050083123004547063 0  1.6926789715292692 0.003861584530832937 1.9999999958123955  1.3940946670144501 0.0027148329863912225 4.000000004187604  1.0955103926333813 0.0015681052007746402 5.9999999999999991  
1.9815790546398335 0.007670057788603947 0  1.6846055667234054 0.0058940709057391195 2.0000000063983689  1.3876320945972636 0.004118094974073977 3.9999999936016302  1.0906586065783319 0.0023421081156691946 5.9999999999999991  
1.9680561780931654 0.011353675521208193 0  1.6733329521548124 0.0087068982651340859 1.9999999923026703  1.378609717691808 0.0060601166475357498 4.000000007697329  1.0838864918769131 0.0034133393620013456 5.9999999999999991  
1.9507613690120951 0.016009083930580804 0  1.6589175819367432 0.012261841042046032 2.0000000079746258  1.3670738002332106 0.0085145997603369317 3.9999999920253746  1.075230013029763 0.004767356902369335 6  
1.9297348117172259 0.021585689016567971 0  1.6413941487974337 0.016520318682344857 1.9999999926102867  1.3530534819911075 0.011454947777389608 4.0000000073897111  1.0647128191902291 0.0063895774147900552 5.9999999999999991  
1.9050639598545558 0.02801340910128796 0  1.6208366624310862 0.021428914336317578 2.0000000062455556  1.3366093679609197 0.014844419774954964 3.9999999937544484  1.052382070436737 0.0082599250340182218 6.0000000000000018  
1.8768270581040372 0.035219349552228441 0  1.5973118099406003 0.026932065297131276 1.9999999951303202  1.3177965595721679 0.018644780965311251 4.0000000048696744  1.0382813114874456 0.010357496691429881 5.9999999999999964  
1.8451278127584094 0.043119507102383478 0  1.5709073475000428 0.032965793355013789 2.0000000035285463  1.2966868838112795 0.022812079639725695 3.9999999964714554  1.0224664184957255 0.012658365906003376 6  
1.8100780634510958 0.051624850552270195 0  1.5417179662686222 0.039462300705962738 1.9999999976119118  1.2733578680318154 0.027299750844524191 4.0000000023880853  1.0049977708881577 0.015137200988953393 5.9999999999999973  
1.7718046186673762 0.060640701173127164 0  1.5098507130003347 0.046349530285431303 2.0000000015151933  1.2478968080000119 0.032058359405535745 3.9999999984848107  0.9859429023082662 0.017767188523735641 6.0000000000000036  
1.7304467432201596 0.07006863534955235 0  1.4754229794608875 0.053552599055786777 1.9999999990961821  1.2203992153045444 0.037036562757848085 4.0000000009038192  0.96537545156005589 0.02052052646055413 5.9999999999999991  
1.6861564821103374 0.079807501094944333 0  1.4385626755224021 0.060994576989063569 2.0000000005080136  1.1909688691574705 0.042181652885404645 3.999999999491981  0.94337506256119885 0.023368728781513724 5.9999999999999964  
1.6390981393281658 0.089754541515879749 0  1.3994077881914724 0.06859733406080834 1.9999999997304314  1.1597174369364986 0.047440126604588566 4.0000000002695701  0.9200270858042412 0.026282919148457904 6.0000000000000009  
1.5894478477852048 0.099806351264805734 0  1.3581059867975989 0.076282260975178762 2.0000000001352554  1.1267641258693268 0.052758170686120522 3.9999999998647451  0.89542226487949339 0.029234080397026359 6.0000000000000009  
1.5373930262515469 0.10985971968179808 0  1.3148141537047502 0.083970899817067582 1.9999999999357416  1.0922352811297595 0.058082079952069203 4.0000000000642588  0.86965640858401194 0.032193260087085541 6.0000000000000009  
1.4831317762087575 0.11981235495667661 0  1.2696978638596974 0.091585482482776578 2.0000000000289422  1.0562639515233527 0.063358610008995439 3.9999999999710578  0.84283003917384214 0.035131737535208596 6  
1.4268722156298073 0.12956350883798048 0  1.2229308182072482 0.099049392068128989 1.999999999987629  1.0189894207792209 0.06853527529822899 4.0000000000123723  0.81504802335681326 0.038021158528330545 6.0000000000000018  
1.3688317625274902 0.13901452778519538 0  1.1746942368787892 0.10628756761899205 2.0000000000050235  0.98055671123236599 0.073560607452805668 3.9999999999949756  0.78641918558367463 0.040833647286619958 5.9999999999999991  
1.3092363724356761 0.1480693560702443 0  1.1251762171181889 0.11322687337859284 1.9999999999980611  0.9411160617997324 0.078384390686937366 4.0000000000019424  0.75705590648212895 0.043541907995279697 6.0000000000000027  
1.2483197373855395 0.15663504524186048 0  1.0745710587423434 0.11979647150212784 2.0000000000007128  0.90082238009963889 0.082957897762395705 3.9999999999992872  0.72707370145665495 0.046119324022667198 6.0000000000000009  
1.1863224721697085 0.16462223738007981 0  1.0230785814719257 0.12592818621067256 1.9999999999997506  0.85983469077377883 0.087234135041262234 4.0000000000002496  0.69659080007568108 0.048540083871846849 5.9999999999999991  
1.1234911534619536 0.17194584867603394 0  0.97090332216205266 0.13155699154133513 2.0000000000000826  0.81831549086253053 0.091168134406647325 3.9999999999999156  0.66572765956305691 0.050779277271965871 5.9999999999999982  
1.0600777155752936 0.17852546892235918 0  0.91825401038371868 0.13662138762414072 1.9999999999999742  0.77643030519169909 0.094717306325898365 4.0000000000000275  0.63460659999958224 0.052813225027648548 6.0000000000000018  
0.99633774555802912 0.18428652654379143 0  0.86534219527018885 0.14106406208043143 2.0000000000000084  0.73434664498286784 0.097841597617112933 3.9999999999999898  0.60335109469567338 0.054619133153802422 5.9999999999999982  
0.93253112345239875 0.18916153570813402 0  0.81238266201641052 0.14483342064544891 1.9999999999999949  0.69223420057984253 0.10050530558270157 4.0000000000000062  0.57208573914312932 0.056177190519946504 5.9999999999999991  
0.86891781598091278 0.19308223844567743 0  0.75959015959604481 0.1478764916462407 2.0000000000000093  0.65026250321178858 0.10267074484688732 3.9999999999999885  0.54093484682768656 0.057464998047540759 5.9999999999999973  
0.80558711924670279 0.1960494203846605 0  0.70703716837363617 0.15019235963099553 1.9999999999999745  0.60848721749995893 0.10433529887722881 4.000000000000032  0.50993726662612637 0.058478238123456427 6.0000000000000044  
0.74274173402218957 0.19777250149378056 0  0.65489184691791225 0.15157317847510152 2.0000000000000742  0.56704195981420857 0.10537385545653563 3.9999999999999223  0.4791920727106535 0.059174532437975221 5.9999999999999991  
0.68064990641458989 0.19780540107999384 0  0.60337347639189132 0.15167573028030537 1.9999999999998019  0.5260970463686927 0.10554605948050702 4.000000000000199  0.44882061634535753 0.059416388680698116 5.9999999999999991  
0.61977156236678566 0.1962913696148007 0  0.5528586779518605 0.15059973555861395 2.0000000000004956  0.48594579353733364 0.10490810150250525 3.9999999999995035  0.41903290912293506 0.059216467446430623 6  
0.560428498687496 0.19321738903543198 0  0.50361005510611456 0.14833744942501131 1.9999999999988263  0.44679161152446439 0.10345750981461829 4.0000000000011768  0.38997316794267467 0.058577570204104146 6.0000000000000009  
0.50289149196814442 0.18865020135897242 0  0.45584783573559279 0.1449363172791405 2.0000000000026361  0.40880417950313425 0.10122243319894456 3.9999999999973639  0.36176052327087743 0.057508549119176106 6.0000000000000009  
0.44742322680090091 0.18265820208608419 0  0.40978573881999164 0.14044702373300935 1.9999999999944011  0.37214825083927427 0.098235845381409573 4.0000000000055964  0.33451076285817072 0.056024667028316183 5.9999999999999991  
0.39427578147457309 0.17533379917479228 0  0.36562901480025289 0.13493781940856117 2.0000000000112301  0.33698224812516298 0.094541839637093283 3.9999999999887685  0.30833548145095191 0.054145859870813322 5.9999999999999982  
0.34368912793021872 0.16678508491797472 0  0.32357323479083233 0.12848915922294291 1.9999999999787565  0.3034573416536227 0.09019323354599211 4.0000000000212443  0.28334144851419951 0.051897307851112358 6.0000000000000009  
0.29588929668079322 0.15713576351272349 0  0.28380283443131815 0.12119342037081968 2.0000000000378213  0.27171637217576911 0.085251077167037836 3.9999999999621751  0.25962990992626556 0.049308734024824989 5.9999999999999982  
0.2510870357593894 0.14652225979640893 0  0.24648999551942757 0.11315283876011184 1.9999999999367633  0.24189295529728241 0.079783417934051054 4.0000000000632392  0.23729591505741371 0.046413996898293029 6.0000000000000009  
0.20947672809382484 0.13509110918454947 0  0.21179369911193607 0.10447754263842976 2.0000000000990354  0.21411067007512624 0.073863975384488426 3.9999999999009659  0.21642764109307516 0.043250408837513431 6.0000000000000009  
0.17123570902299703 0.12299591044393289 0  0.17985904423338661 0.095283264317804053 1.9999999998551712  0.18848237961826564 0.067570620547545132 4.0000000001448264  0.19710571482889214 0.039857974422670507 5.9999999999999991  
0.13652398673988558 0.11039420217633508 0  0.15081679662247161 0.085688970405032497 2.0000000001970251  0.16510960594490998 0.060983730901108014 3.9999999998029754  0.17940241582718339 0.036278499128101001 6  
0.1054844465436157 0.097444311893166879 0  0.12478327507618305 0.075814391480056836 1.9999999997518303  0.14408210539950092 0.054184496030269494 4.0000000002481695  0.16338093393244782 0.032554575619301203 6  
0.078243349865508419 0.084302864108069697 0  0.101860128777779 0.065778066307989866 2.0000000002876952  0.12547690204399159 0.047253189485687727 3.9999999997123044  0.14909368095583767 0.028728391683131963 6  
0.054911296900001447 0.07112233449303966 0  0.082134915004881764 0.055694861454403617 1.9999999996954323  0.10935855054421348 0.040267632801184956 4.0000000003045688  0.13658216864952888 0.024840159765162687 6  
0.035583215168469622 0.058053227391164204 0  0.06567853174454831 0.045677717547931769 2.0000000002914335  0.095773795898538835 0.033301472484690287 3.9999999997085656  0.12586911247421276 0.020925962638963295 6  
0.020336205912931515 0.045242624805719063 0  0.052546872387569409 0.035831444946363269 1.9999999997512827  0.084757691590220063 0.026422407482642775 4.0000000002487193  0.11696835806519545 0.017011227625411053 6.0000000000000009  
0.0092166478160584358 0.032856827598278661 0  0.04275734242111752 0.026274743815976789 2.0000000001863731  0.076297606684111674 0.019686623070725513 3.9999999998136269  0.1098383012889225 0.013104539286834971 6  
0.0021981663503842113 0.021059760978135257 0  0.036291083127574009 0.017081310325007284 1.9999999998787776  0.070385185100639791 0.013119486194096889 4.0000000001212221  0.10447810187798892 0.0091410355420007919 6  
-0.00089237035436244441 0.010051583409939861 0  0.032988806176431303 0.0083662766415466602 2.0000000000690719  0.066866632117314209 0.0066339659415232295 3.999999999930929  0.10074780864801787 0.004948659172542549 6  
-0.00062418502885366292 0.003121990712603414 0  0.032863548585622182 0.0025678665064098414 2  0.066357586463625509 0.0021021820853135776 3.9999999999999991  0.099845320078101318 0.0015480578791200047 6  
0 0 0  0.03333333333333334 0 2  0.06666666666666668 0 3.9999999999999996  0.10000000000000001 0 6  

0 4
0.0009728687749951259 1
0.0038875501192132469 1
0.0087322894785794823 1
0.015487563422424151 1
0.024126179285208219 1
0.034613411610208623 1
0.046907172648996458 1
0.060958213782351452 1
0.076710354568008399 1
0.094100736176861266 1
0.11306009622047182 1
0.1335130623548445 1
0.15537846251978299 1
0.17856965019409804 1
0.20299484357688991 1
0.22855747811646665 1
0.25515657228204669 1
0.28268710689452381 1
0.31104041868564347 1
0.34010460901883011 1
0.36976496885060395 1
0.39990442100343448 1
0.43040398062211449 1
0.46114323426694981 1
0.49200083744722345 1
0.52285502953532537 1
0.55358416398041987 1
0.58406725065541165 1
0.61443958854168934 1
0.64439585344584649 1
0.67375450979664109 1
0.70240187674027554 1
0.73022718672673781 1
0.75712312313028818 1
0.7829863662509583 1
0.80771815020271376 1
0.8312248382212426 1
0.85341853142959034 1
0.87421773748345089 1
0.89354814358420009 1
0.91134356876043054 1
0.92754722472800166 1
0.94211351775016361 1
0.95501083023826849 1
0.96622615584153282 1
0.97577342450224269 1
0.98370955638766244 1
0.99016720837548478 1
0.99542162565705494 1
1 4

0 4
1 4

9 0 0 0 0 3 3 5 4 3 2 1.9996669474253705 -0.0024978943097201619 0  1.6997593396273005 -0.0019446427173466167 2  1.3998517318292301 -0.0013913911249730708 4  1.09994412403116 -0.00083813953259952558 6  
1.999777964950247 -0.0016652628731467745 0  1.6998395597515334 -0.0012964284782310776 2  1.3999011545528199 -0.00092759408331538054 3.9999999999999991  1.0999627493541064 -0.00055875968839968375 6  
2 6.5052130349130266e-19 0  1.6999999993098571 4.960224939121182e-19 2.0000000046009494  1.4000000006901425 2.4259023609363116e-19 3.9999999953990506  1.1000000000000001 0 6  
2.0002220350497533 0.001665262873146775 0  1.7001604402484671 0.0012964284782310781 2  1.4000988454471801 0.00092759408331538054 3.9999999999999991  1.1000372506458937 0.00055875968839968375 6  
2.0003330525746295 0.0024978943097201619 0  1.7002406603726998 0.0019446427173466167 2  1.4001482681707698 0.0013913911249730708 4  1.1000558759688401 0.00083813953259952558 6  

0 4
0.5 1
1 4

0 4
1 4

9 0 0 0 0 3 3 53 4 51 2 0 0 0  0.033333333333333333 0 2  0.066666666666666693 0 4  0.10000000000000001 0 6  
0.00061938804130940697 -0.0030979975857750659 0  0.033802402626146082 -0.0025877081805869904 2  0.06697338148231935 -0.0020755227014835416 4  0.100156396067156 -0.0015652332962954663 6  
0.003006964321691348 -0.009540915239958021 0  0.035916702321648654 -0.0079422537883251654 2.0000000000685385  0.068832824971084991 -0.0063445981553908659 3.9999999999314628  0.10174256297075385 -0.0047459367032357735 6.0000000000000009  
0.0099462037245518064 -0.018467748482111423 0  0.042054711788964388 -0.015023597154202494 1.9999999998802245  0.074160971883616977 -0.011579091688564446 4.0000000001197717  0.10626947994853522 -0.0081349403615686953 5.9999999999999973  
0.020684561846373559 -0.026699311790272493 0  0.051232267864323985 -0.021462285354858897 2.0000000001831042  0.081780785461178909 -0.016225386771810502 3.999999999816898  0.11232849147835211 -0.010988360334999489 6.0000000000000009  
0.035286689779242257 -0.034043298428712815 0  0.063551131622581081 -0.027182929392669222 1.9999999997570312  0.091815287109939386 -0.020322515246842258 4.0000000002429674  0.12007972895431729 -0.01346214621265545 5.9999999999999982  
0.053698559024772045 -0.04041218500644371 0  0.078974243529332563 -0.032155831107853562 2.0000000002831944  0.10425002575913396 -0.023899492602370568 3.9999999997168061  0.12952571026247175 -0.015643138701612741 6  
0.075803868265548774 -0.045764890326572022 0  0.097434753079861325 -0.036356790935978142 1.9999999997054778  0.11906560558727705 -0.026948686458206601 4.0000000002945209  0.14069649040287602 -0.017540587069871206 6  
0.10147469638833238 -0.050107267661872769 0  0.11883871860519904 -0.039792444567487192 2.0000000002769669  0.13620275120856445 -0.029477623107118642 3.9999999997230336  0.15356677342420477 -0.019162800010605028 6.0000000000000009  
0.13057575474720465 -0.053463689921213413 0  0.14308484108242567 -0.042479979401411225 1.9999999997620601  0.15559392415961296 -0.031496268370298501 4.0000000002379368  0.16810301049590468 -0.020512557852328413 5.9999999999999991  
0.16296759891734797 -0.055874158145649513 0  0.17006345361706832 -0.044447825899622657 2.0000000001881992  0.17715930931531049 -0.033021493809334813 3.9999999998118048  0.18425516401416731 -0.02159516156185514 6.0000000000000018  
0.19850586725907357 -0.057389222900659502 0  0.19965890976897918 -0.045732195390408882 1.9999999998621256  0.20081195198043481 -0.034075167834307349 4.0000000001378728  0.20196499449098942 -0.022418140325125176 5.9999999999999991  
0.23704107615242975 -0.058069366642860464 0  0.23174956297954219 -0.046376912309818316 2.0000000000939968  0.22645804989299195 -0.034684457989565702 3.999999999906005  0.22116653671964367 -0.022992003655789392 6  
0.27841846886420785 -0.057984260359191679 0  0.26620829355958586 -0.046432915065674346 1.9999999999401383  0.25399811823124796 -0.034881569768953818 4.0000000000598597  0.24178794292694336 -0.02333022447591316 5.9999999999999991  
0.32247801315662084 -0.057212459459011877 0  0.30290276370296826 -0.045958048652413215 2.0000000000357234  0.28332751425520958 -0.034703637846407745 3.9999999999642801  0.26375226480133129 -0.023449227039509798 6.0000000000000018  
0.36905445419958421 -0.055840908155777615 0  0.34169569084122392 -0.04501668343491555 1.9999999999799718  0.31433692748174519 -0.034192458714086105 4.0000000000200266  0.28697816412356952 -0.023368233993414964 5.9999999999999982  
0.41797734145139293 -0.053964183700954342 0  0.38244502387206664 -0.043679138117331213 2.0000000000105729  0.34691270629270821 -0.033394092533566726 3.9999999999894298  0.31138038871319218 -0.023109046949808826 6.0000000000000027  
0.46907098105412059 -0.051683528108462391 0  0.42500403475146786 -0.042020924199614285 1.9999999999947355  0.38093708844908164 -0.032358320290908182 4.000000000005266  0.33687014214666378 -0.022695716382174016 6.0000000000000018  
0.52215437724697356 -0.049105078108102995 0  0.46922137129410724 -0.040121448657400874 2.000000000002478  0.4162883653409199 -0.031137819206563704 3.9999999999975246  0.36335535938774083 -0.022154189755747573 6.0000000000000018  
0.57704089742984033 -0.0463395235100173 0  0.51494089913573815 -0.038063604615452842 1.9999999999988962  0.45284090084200579 -0.029787685721024765 4.0000000000011013  0.39074090254831706 -0.021511766826584063 5.9999999999999982  
0.63353845585299318 -0.043495005307063565 0  0.56200189910809084 -0.035928853192522169 2.0000000000004663  0.49046534236275169 -0.028362701077838986 3.9999999999995355  0.41892878561732472 -0.020796548963162801 6.0000000000000009  
0.69144870327170782 -0.040692793234357844 0  0.61023853193150113 -0.033807837635259907 1.9999999999998135  0.52902836059180403 -0.026922882036306772 4.0000000000001865  0.44781818925222805 -0.020037926437350119 6  
0.75061204994568165 -0.038000752170462698 0  0.65951744397415502 -0.03175323460269374 2.0000000000000706  0.56842283800205562 -0.025505717034783423 3.9999999999999285  0.47732823202981234 -0.019258199466874282 5.9999999999999991  
0.81099448755648451 -0.035642260679260664 0  0.70980954886675951 -0.029930713538584494 1.9999999999999742  0.60862461017764868 -0.024219166398038835 4.0000000000000266  0.50743967148869495 -0.018507619257493769 6  
0.87235675477783714 -0.033254673913021296 0  0.76091713901160007 -0.028066098503876501 2.0000000000000089  0.64947752324474295 -0.022877523094619715 3.9999999999999898  0.53803790747772551 -0.017688947685360952 5.9999999999999991  
0.93441257945852452 -0.03070521739588038 0  0.81260269425148501 -0.026066347044081221 1.9999999999999958  0.69079280904503182 -0.021427476692370554 4.0000000000000062  0.56898292383873139 -0.016788606340662812 6.0000000000000009  
0.99675312500410096 -0.028113272920188823 0  0.86452506316382549 -0.024021593082720595 2.000000000000008  0.73229700132302999 -0.019929913245188193 3.9999999999999911  0.60006893948209528 -0.015838233407652346 6.0000000000000009  
1.0591372010291185 -0.025522456414441577 0  0.91648337079643671 -0.021965990359930708 1.9999999999999751  0.7738295405641834 -0.018409524305461979 4.0000000000000293  0.63117571033205588 -0.014853058250996783 6.0000000000000036  
1.121324907104303 -0.02298574409435936 0  0.96827755493142387 -0.019940651289424079 2.0000000000000808  0.8152302027582321 -0.016895558484464421 3.9999999999999174  0.662182850584913 -0.013850465679501451 5.9999999999999973  
1.1830741881085718 -0.020544646170350945 0  1.0197059784823799 -0.017978103228078933 1.999999999999756  0.85633776885634072 -0.015411560285818516 4.000000000000246  0.69296955923047998 -0.012845017343561039 6.0000000000000027  
1.2441441009482579 -0.018233792078882084 0  1.0705678987179676 -0.016105728265995014 2.0000000000006999  0.89699169648780108 -0.01397766445310465 3.9999999999993023  0.72341549425726892 -0.011849600640211632 6.0000000000000018  
1.3042946800712427 -0.016079563194469387 0  1.1206634732213721 -0.014344710879293829 1.9999999999980937  0.93703226637078829 -0.012609858564116326 4.0000000000019051  0.75340105952110281 -0.0108750062489417 6  
1.3632884344849563 -0.014100537604009927 0  1.1697949466374842 -0.012710368596598824 2.0000000000049427  0.97630145879209951 -0.011320199589193999 3.9999999999950591  0.78280797094444754 -0.009930030581784783 6.0000000000000018  
1.4208912015222552 -0.012307866663648175 0  1.2177673710490426 -0.011212427567353718 1.9999999999878142  1.0146435405705405 -0.010116988471046372 4.000000000012184  0.81151971009759249 -0.0090215493747478233 5.9999999999999991  
1.476873224460747 -0.01070594883575368 0  1.26438948727765 -0.0098555270591517505 2.0000000000285416  1.051905750107025 -0.0090051052825766108 3.9999999999714593  0.83942201292340979 -0.0081546835059821774 6  
1.5310101499294411 -0.0092932730397596777 0  1.3094745473010134 -0.0086398530280573042 1.9999999999365536  1.087938944644816 -0.0079864330162984429 4.0000000000634452  0.86640334201748426 -0.0073330130045814665 6  
1.5830840192832527 -0.0080633873890518567 0  1.3528411310253841 -0.0075618677301490618 2.0000000001337073  1.1225982428260706 -0.0070603480713621646 3.9999999998662963  0.89235535456592741 -0.0065588284124885685 6.0000000000000027  
1.6328842299419084 -0.0070059348019895678 0  1.3943139406005136 -0.0066150901876243636 1.9999999997332043  1.1557436511422399 -0.0062242455730337296 4.0000000002667981  0.91717336180535614 -0.0058334009586113716 6.0000000000000018  
1.6802084671878457 -0.0061076993653719509 0  1.4337245714306983 -0.005790884379667495 2.0000000005033685  1.1872406758941503 -0.0054740693943705161 3.9999999994966275  0.94075678012852759 -0.0051572544087730302 5.9999999999999964  
1.7248636071903625 -0.005353612501660247 0  1.4709122623395992 -0.0050792158707830505 1.9999999991034498  1.2169609170957005 -0.0048048192392424558 4.0000000008965531  0.96300957225997919 -0.0045304226081756193 6.0000000000000018  
1.766666585882928 -0.0047276755759887859 0  1.5057246175919519 -0.0044693433475388551 2.0000000015046093  1.2447826499614476 -0.0042110111199824942 3.9999999984953893  0.98384068164531069 -0.0039526788918496829 6  
1.8054452435838892 -0.0042137652583772774 0  1.5380183100129359 -0.0039504192072650551 1.9999999976262051  1.2705913753976716 -0.003687073155506441 4.0000000023737998  1.0031644418662908 -0.0034237271038954804 6.0000000000000018  
1.8410391867859384 -0.0037962987943075967 0  1.5676598068688159 -0.0035119807644483358 2.0000000035107286  1.2942804285037728 -0.0032276627329446621 3.9999999964892696  1.0209010485282939 -0.0029433447038208923 5.9999999999999991  
1.8733001894389245 -0.0034607507549399351 0  1.5945256808566786 -0.0031443291721123274 1.9999999951507115  1.3157511701056162 -0.0028279076002145926 4.0000000048492872  1.0369766616037621 -0.0025114860163737321 5.9999999999999991  
1.9020947147299987 -0.0031940065338743463 0  1.618504777653937 -0.0028387707627556815 2.0000000062242833  1.3349148434421527 -0.0024835349495445614 3.9999999937757162  1.0513249062631511 -0.0021282991797233865 5.9999999999999991  
1.9272985852848008 -0.0029846198831209622 0  1.6394936427189566 -0.0025878199700645216 1.9999999926303318  1.3516886965097932 -0.0021910201948491222 4.0000000073696675  1.0638837540655754 -0.0017942202802596161 6  
1.948813554225594 -0.002822821148478533 0  1.6574105502099188 -0.0023851167115129181 2.00000000795777  1.3660075508851413 -0.0019474118611893599 3.9999999920422296  1.0746045467383705 -0.0015097074258762098 5.9999999999999991  
1.9665346476705035 -0.0027007158044828903 0  1.6721680053918542 -0.0022256911818375235 1.9999999923151028  1.3778013564359655 -0.0017506677089821536 4.0000000076848954  1.0834347142837295 -0.0012756430847433249 5.9999999999999991  
1.9804062333795818 -0.0026118817472963862 0  1.6837197461121898 -0.0021054194627379485 2.0000000063905508  1.3870332699958665 -0.0015989542648417517 3.9999999936094519  1.0903467826234756 -0.0010924919816068664 6.0000000000000027  
1.9903487459879026 -0.0025517404880722851 0  1.6919995042395808 -0.0020215616421216955 1.9999999958163257  1.3936502424958055 -0.0014913891417195949 4.000000004183673  1.0953010008161641 -0.00096121029490325611 5.9999999999999991  
1.9963355102945224 -0.0025168702607358258 0  1.6969850357631753 -0.0019719651260107487 2.0000000015613537  1.397634590414784 -0.0014270500295025658 3.9999999984386485  1.0982841158578205 -0.00088214489510039492 6.0000000000000018  
1.9990001154000558 -0.0025016926345927944 0  1.6992040340239554 -0.0019501087022465113 2  1.399407932761169 -0.001398531722368484 4  1.099611851385069 -0.00084694779002220089 6  
1.9996669474253705 -0.0024978943097201619 0  1.6997593396273005 -0.0019446427173466167 2  1.3998517318292301 -0.0013913911249730708 4  1.09994412403116 -0.00083813953259952558 6  

0 4
0.004674304042370625 1
0.010028413952089182 1
0.016584798045588697 1
0.024609624630368282 1
0.034225597723165177 1
0.045479979569693317 1
0.05837786311546813 1
0.072898565370808924 1
0.089004208212894301 1
0.10664454968020715 1
0.12575990669289228 1
0.14628304161450134 1
0.16814044891685109 1
0.19125327288225136 1
0.2155379862609671 1
0.24090690798686162 1
0.26726861030728366 1
0.29452825003126071 1
0.32258784914136962 1
0.35134654378764307 1
0.38070081620706614 1
0.41061176946115036 1
0.44116127868017202 1
0.47197132546598181 1
0.5029231875000677 1
0.53389704370523039 1
0.56477246348060794 1
0.59542889982093539 1
0.62574618253429681 1
0.65560500844882463 1
0.68488742627362653 1
0.71347731454643637 1
0.74126085178118084 1
0.76812697847050027 1
0.793967850971804 1
0.81867928749757146 1
0.84216120643883496 1
0.86431805707826415 1
0.88505924240348144 1
0.90429953322459111 1
0.92195947215304364 1
0.93796576524450248 1
0.95225165829390113 1
0.96475729395937038 1
0.97543004515895015 1
0.98422481961204755 1
0.99110433006575538 1
0.99603932472006584 1
0.99900877268738197 1
1 4

0 4
1 4

1 2.0003330525746295 0.0024978943097201619 0 0 0 -1 -0.99999922032414124 -0.00124873980869042 0 -0.00124873980869042 0.99999922032414124 0 
1 1.1000558759688401 0.00083813953259952558 6 0 0 -1 -0.99999964880351544 -0.00083808880545059724 0 -0.00083808880545059724 0.99999964880351544 0 
Triangulations 0

TShapes 27
Ve
2e-07
2.00033305257463 0.00249789430972016 0
0 0

0101101
*
Ve
1e-07
1.10005587596884 0.000838139532599526 6
0 0

0101101
*
Ed
 1e-07 1 1 0
1  1 0 0 1
2  1 1 0 0 1
2  2 2 0 0 1
0

0101000
+27 0 -26 0 *
Ve
2e-07
0 0 0
0 0

0101101
*
Ed
 1e-07 1 1 0
1  2 0 0 1
2  3 1 0 0 1
0

0101000
+27 0 -24 0 *
Ve
1e-07
0.1 0 6
0 0

0101101
*
Ed
 1e-07 1 1 0
1  3 0 0 1
2  2 1 0 0 1
2  1 3 0 0 1
0

0101000
+24 0 -22 0 *
Ed
 1e-07 1 1 0
1  4 0 0 1
2  4 1 0 0 1
0

0101000
+26 0 -22 0 *
Wi

0101100
-25 0 +23 0 +21 0 -20 0 *
Fa
0  1e-07 1 0

0111000
+19 0 *
Ve
2e-07
1.99966694742537 -0.00249789430972016 0
0 0

0101101
*
Ed
 1e-07 1 1 0
1  5 0 0 1
2  3 3 0 0 1
0

0101000
+24 0 -17 0 *
Ve
1e-07
1.09994412403116 -0.000838139532599526 6
0 0

0101101
*
Ed
 1e-07 1 1 0
1  6 0 0 1
2  2 3 0 0 1
2  1 2 0 0 1
0

0101000
+17 0 -15 0 *
Ed
 1e-07 1 1 0
1  7 0 0 1
2  4 3 0 0 1
0

0101000
+22 0 -15 0 *
Wi

0101100
-21 0 +16 0 +14 0 -13 0 *
Fa
0  1e-07 3 0

0111000
+12 0 *
Ed
 1e-07 1 1 0
1  8 0 0 1
2  3 2 0 0 1
0

0101000
+17 0 -27 0 *
Ed
 1e-07 1 1 0
1  9 0 0 1
2  4 2 0 0 1
0

0101000
+15 0 -26 0 *
Wi

0101100
-14 0 +10 0 +25 0 -9 0 *
Fa
0  1e-07 2 0

0111000
+8 0 *
Wi

0101100
+23 0 +16 0 +10 0 *
Fa
0  1e-07 4 0

0111000
-6 0 *
Wi

0101100
+20 0 +13 0 +9 0 *
Fa
0  1e-07 5 0

0111000
-4 0 *
Sh

0101000
+18 0 +11 0 +7 0 +5 0 -3 0 *
So

1100000
+2 0 *

+1 0 