DBRep_DrawableShape

CASCADE Topology V1, (c) Matra-Datavision
Locations 130
1
              1               0               0               0 
              0               1               0               0 
              0               0               1               0 
1
              1               0               0               0 
              0               1               0               0 
              0               0               1               0 
1
              1               0               0               0 
              0               1               0               0 
              0               0               1           0.001 
1
              1               0               0               0 
              0               1               0               0 
              0               0               1               0 
1
              1               0               0               0 
              0               1               0               0 
              0               0               1               0 
1
              1               0               0               0 
              0               1               0               0 
              0               0               1               0 
1
              1               0               0               0 
              0               1               0               0 
              0               0               1               0 
1
              1               0               0               0 
              0               1               0               0 
              0               0               1               0 
1
              1               0               0               0 
              0               1               0               0 
              0               0               1               0 
2  3 1 4 1 5 1 6 1 7 1 8 1 9 1 0
2  6 -1 5 -1 4 -1 3 -1 0
2  1 -1 2 -1 9 -1 8 -1 7 -1 6 -1 5 -1 4 -1 3 -1 0
1
              1               0               0               0 
              0               1               0               0 
              0               0               1               0 
2  13 -1 0
2  1 -1 2 -1 9 -1 8 -1 7 -1 6 -1 5 -1 4 -1 3 -1 13 -1 0
1
              1               0               0               0 
              0               1               0               0 
              0               0               1            0.01 
2  13 1 16 1 0
2  16 -1 13 -1 0
2  1 -1 2 -1 9 -1 8 -1 7 -1 6 -1 5 -1 4 -1 3 -1 16 -1 13 -1 0
2  7 1 8 1 9 1 0
2  3 1 4 1 5 1 6 1 0
2  1 -1 2 -1 9 -1 8 -1 7 -1 0
1
              1               0               0               0 
              0               1               0               0 
              0               0               1           0.001 
1
              1               0               0               0 
              0               1               0               0 
              0               0               1               0 
1
              1               0               0               0 
              0               1               0               0 
              0               0               1               0 
2  23 1 24 1 25 1 0
2  1 -1 2 -1 0
2  13 1 16 1 3 1 4 1 5 1 6 1 7 1 8 1 9 1 0
2  6 -1 5 -1 4 -1 3 -1 16 -1 13 -1 0
1
              1               0               0               0 
              0               1               0               0 
              0               0               1               0 
1
              1               0               0               0 
              0               1               0               0 
              0               0               1               0 
2  30 1 31 1 6 1 7 1 8 1 9 1 0
2  6 -1 31 -1 30 -1 0
1
              1               0               0               0 
              0               1               0               0 
              0               0               1          -0.009 
1
              1               0               0               0 
              0               1               0               0 
              0               0               1               0 
2  34 1 35 1 0
2  1 -1 2 -1 9 -1 8 -1 7 -1 6 -1 31 -1 30 -1 0
2  13 1 3 1 4 1 5 1 6 1 7 1 8 1 9 1 0
1
              1               0               0               0 
              0               1               0               0 
              0               0               1               0 
2  39 1 23 1 24 1 25 1 0
2  3 1 4 1 5 1 6 1 7 1 8 1 9 1 25 -1 24 -1 23 -1 39 -1 0
2  39 -1 0
2  1 -1 2 -1 25 -1 24 -1 23 -1 39 -1 0
2  6 1 7 1 8 1 9 1 0
2  16 1 3 1 4 1 5 1 0
2  13 1 16 1 3 1 4 1 5 1 0
2  34 1 35 1 30 1 31 1 0
2  1 -1 2 -1 9 -1 8 -1 7 -1 6 -1 0
1
              1               0               0               0 
              0               1               0               0 
              0               0               1           0.089 
2  49 1 23 1 24 1 25 1 0
2  49 -1 0
2  1 -1 2 -1 25 -1 24 -1 23 -1 49 -1 0
1
              1               0               0               0 
              0               1               0               0 
              0               0               1           0.109 
2  53 1 34 1 35 1 30 1 31 1 0
2  53 -1 0
2  1 -1 2 -1 9 -1 8 -1 7 -1 6 -1 31 -1 30 -1 35 -1 34 -1 53 -1 0
2  30 1 31 1 0
2  53 1 34 1 35 1 0
1
              1               0               0               0 
              0               1               0               0 
              0               0               1               0 
1
              1               0               0               0 
              0               1               0               0 
              0               0               1               0 
1
              1               0               0               0 
              0               1               0               0 
              0               0               1               0 
1
              1               0               0               0 
              0               1               0               0 
              0               0               1               0 
1
              1               0               0               0 
              0               1               0               0 
              0               0               1               0 
1
              1               0               0               0 
              0               1               0               0 
              0               0               1               0 
2  61 1 62 1 63 1 64 1 0
1
              1               0               0               0 
              0               1               0               0 
              0               0               1            0.01 
1
              1               0               0               0 
              0               1               0               0 
              0               0               1           0.001 
1
              1               0               0               0 
              0               1               0               0 
              0               0               1               0 
1
              1               0               0               0 
              0               1               0               0 
              0               0               1               0 
1
              1               0               0               0 
              0               1               0               0 
              0               0               1               0 
1
              1               0               0               0 
              0               1               0               0 
              0               0               1               0 
1
              1               0               0               0 
              0               1               0               0 
              0               0               1               0 
2  66 1 67 1 68 1 69 1 70 1 71 1 72 1 0
1
              1               0               0               0 
              0               1               0               0 
              0               0               1          -0.059 
1
              1               0               0               0 
              0               1               0               0 
              0               0               1               0 
1
              1               0               0               0 
              0               1               0               0 
              0               0               1               0 
1
              1               0               0               0 
              0               1               0               0 
              0               0               1               0 
1
              1               0               0               0 
              0               1               0               0 
              0               0               1               0 
1
              1               0               0               0 
              0               1               0               0 
              0               0               1               0 
2  74 1 75 1 76 1 77 1 78 1 79 1 0
2  59 -1 60 -1 64 -1 63 -1 62 -1 61 -1 0
2  71 1 72 1 0
2  66 1 67 1 68 1 69 1 70 1 0
2  61 -1 72 -1 71 -1 0
2  59 -1 60 -1 64 -1 63 -1 62 -1 61 -1 72 -1 71 -1 0
1
              1               0               0               0 
              0               1               0               0 
              0               0               1            0.01 
1
              1               0               0               0 
              0               1               0               0 
              0               0               1               0 
1
              1               0               0               0 
              0               1               0               0 
              0               0               1               0 
2  86 1 87 1 88 1 0
1
              1               0               0               0 
              0               1               0               0 
              0               0               1           0.209 
2  90 1 74 1 75 1 76 1 77 1 78 1 79 1 0
2  90 -1 0
1
              1               0               0               0 
              0               1               0               0 
              0               0               1            0.14 
2  93 1 86 1 87 1 88 1 77 -1 76 -1 75 -1 74 -1 90 -1 0
2  59 -1 60 -1 64 -1 63 -1 62 -1 61 -1 79 -1 78 -1 77 -1 76 -1 75 -1 74 -1 90 -1 0
2  78 1 79 1 0
2  74 1 75 1 76 1 77 1 0
2  61 -1 79 -1 78 -1 0
2  59 -1 60 -1 64 -1 63 -1 62 -1 61 -1 79 -1 78 -1 0
2  62 1 63 1 64 1 0
2  86 1 87 1 88 1 71 1 72 1 61 1 0
2  59 -1 60 -1 64 -1 63 -1 62 -1 0
2  71 1 72 1 61 1 62 1 63 1 64 1 0
2  78 1 79 1 61 1 62 1 63 1 64 1 0
1
              1               0               0               0 
              0               1               0               0 
              0               0               1               0 
2  105 1 93 1 86 1 87 1 88 1 78 1 79 1 61 1 62 1 63 1 64 1 0
2  61 -1 79 -1 78 -1 88 -1 87 -1 86 -1 93 -1 105 -1 0
2  105 -1 0
2  59 -1 60 -1 64 -1 63 -1 62 -1 61 -1 79 -1 78 -1 88 -1 87 -1 86 -1 93 -1 105 -1 0
1
              1               0               0               0 
              0               1               0               0 
              0               0               1            0.01 
1
              1               0               0               0 
              0               1               0               0 
              0               0               1               0 
1
              1               0               0               0 
              0               1               0               0 
              0               0               1               0 
2  110 1 111 1 112 1 61 1 0
1
              1               0               0               0 
              0               1               0               0 
              0               0               1           0.001 
1
              1               0               0               0 
              0               1               0               0 
              0               0               1               0 
1
              1               0               0               0 
              0               1               0               0 
              0               0               1               0 
2  114 1 115 1 116 1 0
2  59 -1 60 -1 0
2  105 1 110 1 111 1 112 1 61 1 0
2  86 1 87 1 88 1 71 1 72 1 112 -1 111 -1 110 -1 105 -1 0
2  59 -1 60 -1 64 -1 63 -1 62 -1 61 -1 112 -1 111 -1 110 -1 105 -1 0
2  71 1 72 1 61 1 0
2  93 1 86 1 87 1 88 1 78 1 79 1 0
2  105 1 93 1 86 1 87 1 88 1 78 1 79 1 0
2  110 1 111 1 112 1 61 1 62 1 63 1 64 1 0
2  105 1 110 1 111 1 112 1 61 1 62 1 63 1 64 1 0
1
              1               0               0               0 
              0               1               0               0 
              0               0               1           0.089 
2  127 1 114 1 115 1 116 1 0
2  127 -1 0
2  59 -1 60 -1 116 -1 115 -1 114 -1 127 -1 0
Curve2ds 144
1 0 0 0 -1 
1 -0.24999999999999994 -0.016836732490361779 0 1 
1 0.60000000000000009 0 0 -1 
1 0.24999999999999994 -0.016836732490361769 0 1 
1 0 0 1 0 
1 -0.29999999999999999 0.25 1 0 
1 0 -0.01 1 0 
1 -0.29999999999999999 0.25 1 0 
1 0.25000000000000006 -0.016836732490361779 -1 -0 
1 -0.30000000000000004 -0.25 1.1e-16 1 
7 0 0  4 5 2  0.050000000000000017 -0.016836732490361779  0.042499678138407999 0.0054142223656945404  0.034999544654740491 0.02766461836724143  0.027499633611015512 0.049914354463625507  0.01999999999999999 0.072163267509638224 
 0 5 1 5
7 0 0  4 5 2  0.69999999999999996 0  0.70562524148052985 0.25001072871973395  0.711531687644261 0.50001517817531693  0.71775050388065698 0.75001221296614928  0.72432432432432436 1 
 0 5 1 5
8 -0.041783783783783779 0.054216216216216237
1 -0.0099999999999999499 0.072163267509638224 -1 0 
8 -0.041783783783783779 0.054216216216216237
1 0.070437711709575621 -0.0062071546717250596 -0.053975258015000353 0.99854227327750833 
7 0 0  4 5 2  -0.049999999999999989 -0.016836732490361779  -0.042499678138407868 0.0054142223656948501  -0.034999544654740672 0.027664618367240872  -0.027499633611015359 0.049914354463625847  -0.019999999999999959 0.072163267509638224 
 0 5 1 5
7 0 0  4 5 2  0.10000000000000006 0  0.094374758519470026 0.25001072871973745  0.088468312355739265 0.5000151781753106  0.08224949611934311 0.75001221296615328  0.075675675675675805 1 
 0 5 1 5
1 0.25000000000000006 -0.016836732490361779 -1 -0 
1 -0.30000000000000004 -0.25 1.1e-16 1 
1 0.25000000000000006 -0.0068367324903617797 -1 -0 
1 -0.30000000000000004 -0.25 1.1e-16 1 
7 0 0  4 5 2  -0.060552829087131277 -0.016836732490361779  -0.052209566874782183 0.0079149454062738996  -0.043866632001555661 0.032665652196845987  -0.035524088109170293 0.057415199077588977  -0.027182042570277291 0.082163267509638233 
 0 5 1 5
7 0 0  4 5 2  0.11146050714814341 0.091743119266055079  0.10531384625393371 0.31882273299665764  0.098834217451063286 0.54589343749731889  0.091981752053200846 0.77295350062340151  0.08470040064125646 1 
 0 5 1 5
1 0.11140897871486138 0.082163267509638233 1 0 
8 -0.19826571388383166 -0.067791909546500384
1 0.086944277132647477 0.13268470729537468 0.07187969724840354 0.99741330907677284 
7 0 0  4 5 2  0.060552829087131332 -0.016836732490361779  0.052209566874782232 0.0079149454062738597  0.043866632001555661 0.032665652196845973  0.035524088109170383 0.057415199077588998  0.02718204257027737 0.082163267509638233 
 0 5 1 5
7 0 0  4 5 2  0.71638672405982717 0.091743119266055079  0.72253338495403685 0.31882273299665731  0.72901301375690708 0.54589343749731878  0.73586547915476974 0.77295350062340162  0.74314683056671416 1 
 0 5 1 5
1 0.25000000000000006 -0.0068367324903617797 -1 -0 
1 -0.30000000000000004 -0.25 1.1e-16 1 
1 0.25000000000000006 -0.016836732490361779 0 1 
1 0.60000000000000009 0 0 -1 
1 0.24999999999999994 -0.016836732490361769 -1 0 
1 0.30000000000000004 0.25 0 -1 
7 0 0  4 5 2  0.049999999999999989 -0.016836732490361769  0.042499678138408048 0.00541422236569434  0.034999544654740408 0.02766461836724168  0.027499633611015491 0.049914354463625479  0.019999999999999959 0.072163267509638224 
 0 5 1 5
7 0 0  4 5 2  0.70000000000000018 0  0.70562524148053007 0.25001072871973162  0.71153168764426133 0.50001517817531949  0.71775050388065698 0.75001221296614906  0.72432432432432436 1 
 0 5 1 5
8 -0.021783783783783789 0.074216216216216227
1 0.0099999999999999499 0.072163267509638224 -1 0 
8 -0.021783783783783789 0.074216216216216227
1 0.66956307567608075 0.026178000137275229 0.053975258015000457 -0.99854227327750833 
7 0 0  4 5 2  -0.050000000000000037 -0.016836732490361769  -0.042499678138407958 0.00541422236569472  -0.03499954465474063 0.027664618367241121  -0.027499633611015459 0.049914354463625771  -0.020000000000000021 0.072163267509638224 
 0 5 1 5
7 0 0  4 5 2  0.099999999999999839 0  0.094374758519469845 0.2500107287197359  0.088468312355738987 0.50001517817531294  0.082249496119342805 0.75001221296615217  0.075675675675675472 1 
 0 5 1 5
1 0.24999999999999994 -0.016836732490361769 -1 0 
1 0.30000000000000004 0.25 0 -1 
1 -0.25000000000000006 -0.016836732490361769 0 1 
1 0 -0 0 -1 
1 0.24999999999999994 -0.0068367324903617702 -1 0 
1 0.30000000000000004 0.25 0 -1 
7 0 0  4 5 2  -0.060552829087131388 -0.016836732490361769  -0.052209566874782232 0.0079149454062741303  -0.043866632001555772 0.032665652196845578  -0.035524088109170293 0.057415199077589282  -0.027182042570277402 0.082163267509638233 
 0 5 1 5
7 0 0  4 5 2  0.11146050714814341 0.091743119266055037  0.10531384625393367 0.31882273299665959  0.098834217451063328 0.54589343749731478  0.091981752053200722 0.77295350062340418  0.084700400641256432 1 
 0 5 1 5
1 0.13859102128513862 0.082163267509638233 1 -0 
8 -0.22544775645410897 -0.094973952116777713
1 0.66742233826661024 -0.1597964383228607 -0.071879697248403637 -0.99741330907677272 
7 0 0  4 5 2  0.060552829087131277 -0.016836732490361769  0.052209566874782232 0.0079149454062736706  0.04386663200155555 0.03266565219684632  0.035524088109170349 0.057415199077588908  0.027182042570277291 0.082163267509638233 
 0 5 1 5
7 0 0  4 5 2  0.71638672405982717 0.091743119266055079  0.72253338495403685 0.31882273299665542  0.7290130137569073 0.54589343749732155  0.73586547915476974 0.77295350062340062  0.74314683056671416 1 
 0 5 1 5
1 0.24999999999999994 -0.0068367324903617702 -1 0 
1 0.30000000000000004 0.25 0 -1 
1 -0.40000000000000002 0.049999999999999989 1 0 
1 0 0 1 0 
7 0 0  1 2 2  0.30000000000000004 0.057182042570277397  -0.30000000000000004 0.057182042570277383 
 0 2 1 2
7 0 0  1 2 2  0.71889061242276886 0.18348623853211007  0.10895661878520171 0.18348623853211007 
 0 2 1 2
1 0.40000000000000002 -0.049999999999999989 -1 0 
1 0 0 1 0 
1 0.30000000000000004 -0.25 -1 0 
1 0 -0 1 0 
7 0 0  1 2 2  0 1  0.80000000000000004 1 
 0 2 0.73999999999999999 2
1 0.7410802925459562 0 -0.99854227327750833 -0.053975258015000457 
1 0 0 0.99854227327750833 0.053975258015000457 
7 0 0  1 2 2  0 1  0.80000000000000004 1 
 0 2 0.7400000000000001 2
7 0 0  1 2 2  0 1  0.82784723120797055 1 
 0 2 0.75436408514055475 2
1 0 0 0.99741330907677272 -0.071879697248403637 
1 0.7563204523898025 -1.0000000000000001e-17 -0.99741330907677272 0.071879697248403637 
7 0 0  1 2 2  0 1  0.82784723120797055 1 
 0 2 0.75436408514055486 2
7 0 0  1 2 2  0.71889061242276886 0.18348623853211007  0.10895661878520164 0.18348623853211007 
 0 2 1 2
7 0 0  1 2 2  -0.30000000000000004 -0.057182042570277397  0.30000000000000004 -0.057182042570277383 
 0 2 1 2
1 0.30000000000000004 -0.25 -1 0 
1 0 -0.01 1 0 
7 0 0  1 2 2  -0.28000000000000003 -0.093092255421664161  -0.23999999999999999 -0.093092255421664161 
 0 2 1 2
7 0 0  1 2 2  0.78910260686048139 0.57416267942583732  0.74545104782668559 0.57416267942583732 
 0 2 1 2
8 -0.17499999999999999 0.42500000000000004
1 -0.23999999999999999 -0.125 0 1 
1 -0.12500000000000006 0.0084161857164305309 1 -0 
8 -0.14399999999999999 -0.095999999999999974
1 -0.14000000000000001 -0.25 1 0 
8 -0.14399999999999999 -0.095999999999999974
1 0.13999999999999999 -0.050999999999999997 1 0 
8 -0.17499999999999999 0.42500000000000004
1 -0.28000000000000003 0.125 0 -1 
1 -0.0084161857164304996 -0.12499999999999983 0 1 
7 0 0  1 2 2  0 1  0.96708338724782283 1 
 0 2 0.82618451084332833 2
1 0.67309225542166418 -0.063092255421664162 -1 0 
7 0 0  4 5 2  0.7776902858938155 0.33014354066985641  0.78523154904122161 0.49764746101484525  0.79328773758283444 0.66512919586206953  0.80193556016471856 0.83258349094026463  0.81129335790165025 1 
 0 5 1 5
7 0 0  4 5 2  0.042583814283569492 0.11028326665761939  0.0075754949314667999 0.098482709572640936  -0.027428187651603219 0.086683715443516274  -0.06242613532294581 0.07488665443070408  -0.097416185716430514 0.063092255421664301 
 0 5 1 5
7 0 0  4 5 2  0.73566905842668273 0.33014354066985646  0.74213259136223331 0.49763691664219278  0.74903766478309053 0.66511398641967379  0.75645011821366748 0.83257088666839563  0.76447169157625894 1 
 0 5 1 5
7 0 0  4 5 2  -0.11028326665761928 -0.042583814283569457  -0.098483452417770428 -0.0075776987053511801  -0.08668478694018833 0.027425008878142431  -0.074887542394576095 0.062423501030125228  -0.06309225542166419 0.097416185716430528 
 0 5 1 5
1 -0.25000000000000006 -0.042583814283569457 0 1 
1 0.040000000000000008 0 0 -1 
1 -0.25000000000000006 0.097416185716430528 1 -0 
1 0.020000000000000049 -0.25 0 1 
7 0 0  4 5 2  0.11028326665761917 -0.042583814283569457  0.098483452417770401 -0.0075776987053515097  0.086684786940188052 0.027425008878142809  0.074887542394576068 0.062423501030125027  0.063092255421664079 0.097416185716430528 
 0 5 1 5
7 0 0  4 5 2  0.23141432882114008 0.33014354066985646  0.2249507958855895 0.49763691664219112  0.21804572246473233 0.66511398641967578  0.21063326903415547 0.83257088666839474  0.20261169567156392 1 
 0 5 1 5
1 -0.12500000000000006 0.0084161857164305309 1 -0 
8 -0.17499999999999999 0.42500000000000004
1 -0.23999999999999999 -0.125 0 1 
1 0.24999999999999994 -0.042583814283569457 0 1 
1 0 -0 0 -1 
1 -0.25000000000000006 -0.042583814283569457 1 -0 
1 0.020000000000000049 -0.25 0 1 
7 0 0  4 5 2  0.046966292134831458 -0.042583814283569457  0.040224548415873529 -0.0225833079173276  0.033482905860230443 -0.00258310166891986  0.02674138116319465 0.017416754932286269  0.019999999999999959 0.037416185716430517 
 0 5 1 5
7 0 0  4 5 2  0.15816586455459664 0.10112359550561803  0.15405875572706204 0.32584838613754907  0.1497656695126314 0.55056980465898431  0.14526787860611154 0.77528729456017687  0.14054054054054071 1 
 0 5 1 5
8 -0.050972972972972999 0.045027027027027017
1 0.0099999999999999499 0.037416185716430531 -1 0 
8 -0.050972972972972999 0.045027027027027017
1 0.13035024810622617 -0.0029686391908250302 0.053975258015000457 -0.99854227327750833 
7 0 0  4 5 2  -0.046966292134831507 -0.042583814283569457  -0.040224548415873723 -0.02258330791732803  -0.03348290586023029 -0.0025831016689192199  -0.026741381163194831 0.017416754932285929  -0.020000000000000021 0.037416185716430517 
 0 5 1 5
7 0 0  4 5 2  0.64183413544540346 0.10112359550561799  0.64594124427293798 0.32584838613754424  0.65023433048736878 0.55056980465899175  0.65473212139388848 0.77528729456017298  0.65945945945945939 1 
 0 5 1 5
1 -0.25000000000000006 -0.042583814283569457 1 -0 
1 0.020000000000000049 -0.25 0 1 
1 0 0 1 0 
1 -0.019999999999999959 -0.25 1 0 
1 0 0 0 -1 
1 0.042583814283569492 0.25000000000000017 -1 -0 
1 0.042583814283569492 -0.24999999999999983 0 1 
1 -0.019999999999999959 0.25 0 -1 
7 0 0  4 5 2  0.042583814283569492 0.046966292134831611  0.022583125148846271 0.040224486808520407  0.0025828444677786998 0.033482819163216729  -0.017416960365445489 0.0267413119160625  -0.03741618571643051 0.020000000000000129 
 0 5 1 5
7 0 0  4 5 2  0.68213982468630507 0.10112359550561799  0.68693149543857335 0.32585043971599131  0.69194011764798746 0.55057269455944768  0.69718753161166769 0.77528960279792103  0.70270270270270252 1 
 0 5 1 5
8 -0.042864864864864981 0.053135135135135042
1 -0.037416185716430503 -0.0099999999999999499 0 -1 
8 -0.042864864864864981 0.053135135135135042
1 0.090408557175125914 -0.0051276495114249299 -0.053975258015000457 0.99854227327750833 
7 0 0  4 5 2  0.042583814283569492 -0.046966292134831333  0.022583125148846021 -0.040224486808520053  0.0025828444677789999 -0.033482819163216562  -0.0174169603654456 -0.026741311916062171  -0.03741618571643051 -0.019999999999999851 
 0 5 1 5
7 0 0  4 5 2  0.11786017531369498 0.10112359550561795  0.11306850456142661 0.32585043971599403  0.10805988235201272 0.55057269455944446  0.10281246838833244 0.77528960279792236  0.097297297297297566 1 
 0 5 1 5
1 0.042583814283569492 -0.24999999999999983 0 1 
1 -0.019999999999999959 0.25 0 -1 
1 0.042583814283569492 -0.24999999999999983 -1 -0 
1 0.040000000000000008 0 0 -1 
1 -0.0084161857164304996 -0.12499999999999983 0 1 
8 -0.17499999999999999 0.42500000000000004
1 -0.28000000000000003 0.125 0 -1 
7 0 0  4 5 2  0.042583814283569492 -0.11028326665761906  0.0075754949314670002 -0.098482709572640659  -0.027428187651603549 -0.086683715443515774  -0.062426135322945477 -0.074886654430703858  -0.097416185716430514 -0.063092255421663967 
 0 5 1 5
7 0 0  4 5 2  0.18939310135400736 0.33014354066985641  0.18185183820660128 0.49764746101484436  0.17379564966498834 0.66512919586207164  0.16514782708310441 0.83258349094026318  0.15579002934617267 1 
 0 5 1 5
1 -0.097416185716430501 -0.24999999999999983 0 1 
1 -0.019999999999999959 0.25 0 -1 
1 -0.1530922554216641 0.063092255421664134 1 0 
7 0 0  1 2 2  0 1  0.96708338724782283 1 
 0 2 0.82618451084332845 2
7 0 0  1 2 2  0.2216323394211373 0.57416267942583732  0.17798078038734155 0.57416267942583732 
 0 2 1 2
7 0 0  1 2 2  -0.23999999999999999 0.093092255421664161  -0.28000000000000003 0.093092255421664161 
 0 2 1 2
8 0.11599999999999999 0.16400000000000001
1 -0.12 0.25 -1 0 
8 0.11599999999999999 0.16400000000000001
1 -0.12 -0.050999999999999997 1 0 
1 0 -0 1 0 
1 0.020000000000000049 0.25 -1 0 
7 0 0  1 2 2  0.020000000000000049 0.046966292134831479  -0.019999999999999959 0.046966292134831493 
 0 2 1 2
7 0 0  1 2 2  0.15816586470421751 0.10112359550561797  0.11786017548825367 0.10112359550561799 
 0 2 1 2
7 0 0  1 2 2  0 1  0.80000000000000004 1 
 0 2 0.7400000000000001 2
1 0 0 0.99854227327750833 0.053975258015000457 
1 0.7410802925459562 0 -0.99854227327750833 -0.053975258015000457 
7 0 0  1 2 2  0 1  0.80000000000000004 1 
 0 2 0.73999999999999999 2
7 0 0  1 2 2  0.68213982451174637 0.10112359550561797  0.64183413529578259 0.10112359550561799 
 0 2 1 2
7 0 0  1 2 2  -0.019999999999999959 -0.046966292134831431  0.020000000000000049 -0.046966292134831437 
 0 2 1 2
Curves 72
1 0.20000000000000001 0.5 0 0 0 1 
1 0.80000000000000004 0.5 0 0 0 1 
1 0.20000000000000001 0.5 0 1 0 0 
1 0.20000000000000001 0.5 0 1 0 0 
1 0.19999999999999996 0 0.001 1.1e-16 1 0 
7 0 0  4 5 2  0.20000000000000004 0.20000000000000004 0.001  0.20000000000000004 0.20750032186159206 0.02325095485605632  0.20000000000000004 0.21500045534525958 0.045501350857603207  0.20000000000000004 0.22250036638898454 0.067751086953987294  0.20000000000000004 0.23000000000000007 0.089999999999999997 
 0 5 1 5
1 0.20000000000000004 0.26000000000000001 0.089999999999999997 9.9999999999999998e-17 1 -0 
7 0 0  4 5 2  0.20000000000000004 0.30000000000000004 0.001  0.20000000000000004 0.29249967813840794 0.023250954856056629  0.20000000000000004 0.28499954465474076 0.045501350857602652  0.20000000000000004 0.27749963361101543 0.067751086953987627  0.20000000000000004 0.27000000000000002 0.089999999999999997 
 0 5 1 5
1 0.19999999999999996 0 0.001 1.1e-16 1 0 
1 0.19999999999999996 0 0 1.1e-16 1 0 
7 0 0  4 5 2  0.19999999999999998 0.31055282908713133 0.001  0.19999999999999998 0.30220956687478223 0.025751677896635679  0.19999999999999998 0.29386663200155572 0.050502384687207767  0.19999999999999998 0.28552408810917035 0.075251931567950764  0.19999999999999998 0.27718204257027734 0.10000000000000001 
 0 5 1 5
1 0.19999999999999996 0.13859102128513867 0.10000000000000001 -1.1e-16 -1 -0 
7 0 0  4 5 2  0.19999999999999998 0.1894471709128687 0.001  0.19999999999999998 0.1977904331252178 0.025751677896635641  0.19999999999999998 0.20613336799844437 0.050502384687207753  0.19999999999999998 0.21447591189082965 0.075251931567950778  0.19999999999999998 0.22281795742972266 0.10000000000000001 
 0 5 1 5
1 0.19999999999999996 0 0 1.1e-16 1 0 
1 0.19999999999999996 0 0 0 0 1 
1 0.80000000000000004 0.5 0.001 0 -1 0 
7 0 0  4 5 2  0.80000000000000016 0.30000000000000004 0.001  0.80000000000000016 0.2924996781384081 0.023250954856056119  0.80000000000000016 0.28499954465474048 0.045501350857603463  0.80000000000000016 0.27749963361101554 0.067751086953987252  0.80000000000000016 0.27000000000000002 0.089999999999999997 
 0 5 1 5
1 0.80000000000000016 0.26000000000000001 0.089999999999999997 -0 -1 0 
7 0 0  4 5 2  0.80000000000000016 0.20000000000000001 0.001  0.80000000000000016 0.20750032186159209 0.02325095485605649  0.80000000000000016 0.21500045534525941 0.045501350857602887  0.80000000000000016 0.2225003663889846 0.067751086953987544  0.80000000000000016 0.23000000000000004 0.089999999999999997 
 0 5 1 5
1 0.80000000000000004 0.5 0.001 0 -1 0 
1 0.80000000000000004 0 0 0 0 1 
1 0.80000000000000004 0.5 0 0 -1 0 
7 0 0  4 5 2  0.80000000000000004 0.18944717091286867 0.001  0.80000000000000004 0.19779043312521782 0.025751677896635908  0.80000000000000004 0.20613336799844428 0.050502384687207358  0.80000000000000004 0.21447591189082976 0.075251931567951055  0.80000000000000004 0.22281795742972266 0.10000000000000001 
 0 5 1 5
1 0.80000000000000004 0.38859102128513867 0.10000000000000001 -0 1 0 
7 0 0  4 5 2  0.80000000000000004 0.31055282908713133 0.001  0.80000000000000004 0.30220956687478229 0.025751677896635451  0.80000000000000004 0.29386663200155561 0.050502384687208093  0.80000000000000004 0.2855240881091704 0.075251931567950681  0.80000000000000004 0.27718204257027734 0.10000000000000001 
 0 5 1 5
1 0.80000000000000004 0.5 0 0 -1 0 
1 0.10000000000000001 0.29999999999999999 0 1 0 0 
7 0 0  1 2 2  0.80000000000000004 0.30718204257027737 0.010999999999999999  0.19999999999999996 0.30718204257027737 0.010999999999999999 
 0 2 1 2
1 0.90000000000000002 0.20000000000000001 0 -1 0 0 
1 0.80000000000000004 0 0 -1 0 0 
1 0.87 0.23000000000000001 0 -1 0 0 
1 0.13 0.27000000000000002 0 1 0 0 
1 0.12281795742972264 0.27718204257027734 0 1 0 0 
1 0.87718204257027743 0.22281795742972266 0 -1 0 0 
7 0 0  1 2 2  0.19999999999999996 0.1928179574297226 0.010999999999999999  0.80000000000000004 0.19281795742972263 0.010999999999999999 
 0 2 1 2
1 0.80000000000000004 0 0 -1 0 0 
7 0 0  1 2 2  0.21999999999999997 0.15690774457833584 0.060999999999999999  0.26000000000000001 0.15690774457833584 0.060999999999999999 
 0 2 1 2
1 0.26000000000000001 0.125 0.060999999999999999 0 1 -0 
1 0.35999999999999999 0 0.060999999999999999 1 0 0 
1 0.21999999999999997 0.375 0.060999999999999999 0 -1 0 
1 0.91309225542166417 0.18690774457833584 0 -1 0 0 
7 0 0  4 5 2  0.22 0.13971673334238077 0.01  0.22 0.15151729042735923 0.045008319352102692  0.22 0.16331628455648389 0.080012001935172702  0.22 0.17511334556929609 0.1150099496065153  0.22 0.18690774457833587 0.14999999999999999 
 0 5 1 5
7 0 0  4 5 2  0.26000000000000001 0.13971673334238077 0.01  0.26000000000000001 0.15151654758222963 0.045006115578218292  0.26000000000000001 0.16331521305981173 0.080008823161711901  0.26000000000000001 0.17511245760542396 0.11500731531369469  0.26000000000000001 0.18690774457833587 0.14999999999999999 
 0 5 1 5
1 0.26000000000000001 0 0.01 0 0 1 
1 0.26000000000000001 0 0 0 1 0 
7 0 0  4 5 2  0.26000000000000001 0.36028326665761923 0.01  0.26000000000000001 0.34848345241777046 0.045006115578217952  0.26000000000000001 0.33668478694018811 0.080008823161712275  0.26000000000000001 0.32488754239457612 0.1150073153136945  0.26000000000000001 0.31309225542166413 0.14999999999999999 
 0 5 1 5
1 0.26000000000000001 0.125 0.060999999999999999 0 1 -0 
1 0.26000000000000001 0.5 0.01 0 0 1 
1 0.26000000000000001 0 0.01 0 1 0 
7 0 0  4 5 2  0.26000000000000006 0.2969662921348315 0.01  0.26000000000000006 0.29022454841587358 0.03000050636624187  0.26000000000000006 0.28348290586023051 0.050000712614649598  0.26000000000000006 0.27674138116319469 0.070000569215855735  0.26000000000000006 0.27000000000000002 0.089999999999999997 
 0 5 1 5
1 0.26000000000000006 0.26000000000000001 0.089999999999999997 -0 -1 0 
7 0 0  4 5 2  0.26000000000000006 0.20303370786516856 0.01  0.26000000000000006 0.20977545158412633 0.03000050636624144  0.26000000000000006 0.21651709413976977 0.050000712614650243  0.26000000000000006 0.22325861883680523 0.070000569215855402  0.26000000000000006 0.23000000000000004 0.089999999999999997 
 0 5 1 5
1 0.26000000000000001 0 0.01 0 1 0 
1 0.22 0 0 1 0 0 
1 0.22 0 0.01 0 0 1 
1 0.22 0.5 0.01 0 -1 0 
7 0 0  4 5 2  0.22000000000000017 0.20303370786516856 0.01  0.22000000000000017 0.20977551319147975 0.030000689134723219  0.22000000000000017 0.21651718083678345 0.050000969815790802  0.22000000000000017 0.22325868808393767 0.070000774649014982  0.22000000000000017 0.23000000000000004 0.089999999999999997 
 0 5 1 5
1 0.22000000000000017 0.26000000000000012 0.089999999999999997 0 1 -0 
7 0 0  4 5 2  0.22000000000000017 0.2969662921348315 0.01  0.22000000000000017 0.2902244868085202 0.030000689134723469  0.22000000000000017 0.28348281916321671 0.050000969815790497  0.22000000000000017 0.27674131191606233 0.070000774649015093  0.22000000000000017 0.27000000000000002 0.089999999999999997 
 0 5 1 5
1 0.22 0.5 0.01 0 -1 0 
1 0.22 0.5 0.01 0 0 1 
1 0.21999999999999997 0.375 0.060999999999999999 0 -1 0 
7 0 0  4 5 2  0.22 0.36028326665761923 0.01  0.22 0.34848270957264083 0.045008319352102498  0.22 0.33668371544351594 0.080012001935173035  0.22 0.32488665443070402 0.11500994960651496  0.22 0.31309225542166413 0.14999999999999999 
 0 5 1 5
1 0.22 0.5 0 0 -1 0 
1 0.086907744578335847 0.31309225542166413 0 1 0 0 
7 0 0  1 2 2  0.26000000000000001 0.34309225542166416 0.060999999999999999  0.21999999999999997 0.34309225542166416 0.060999999999999999 
 0 2 1 2
1 0.38 0.5 0.060999999999999999 -1 0 0 
1 0.26000000000000001 0.5 0 -1 0 0 
7 0 0  1 2 2  0.26000000000000001 0.2969662921348315 0.01  0.22 0.2969662921348315 0.01 
 0 2 1 2
1 0.13 0.27000000000000002 0 1 0 0 
1 0.87 0.23000000000000001 0 -1 0 0 
7 0 0  1 2 2  0.22 0.20303370786516856 0.01  0.26000000000000001 0.20303370786516856 0.01 
 0 2 1 2
Polygon3D 0
PolygonOnTriangulations 0
Surfaces 28
1 0.20000000000000001 0.5 0 0 1 0 1 0 0 0 0 -1 
1 0.20000000000000004 0.25000000000000006 0.01783673249036178 -1 9.9999999999999998e-17 -7.0000000000000003e-17 -9.9999999999999998e-17 -1 0 -7.0000000000000003e-17 6.9999999999999997e-33 1 
1 0.80000000000000016 0.25000000000000006 0.01783673249036177 1 -0 -0 0 1 0 0 -0 1 
1 0.5 0.25 0 0 0 1 1 0 -0 -0 1 0 
1 0.5 0.25 0 0 0 1 1 0 -0 -0 1 0 
1 0.5 0.25 0 0 0 1 1 0 -0 -0 1 0 
9 0 0 0 0 1 1 2 2 2 2 0.90000000000000002 0.20000000000000001 0  0.87 0.23000000000000001 0.088999999999999996  
0.099999999999999978 0.20000000000000001 0  0.13 0.23000000000000001 0.088999999999999996  

0 2
0.80000000000000004 2

0 2
1 2

1 0.13 0.27000000000000002 0.088999999999999996 -0 0 1 0.99854227327750833 -0.053975258015000457 0 0.053975258015000457 0.99854227327750833 0 
9 0 0 0 0 1 1 2 2 2 2 0.10000000000000001 0.29999999999999999 0  0.13 0.27000000000000002 0.088999999999999996  
0.90000000000000002 0.29999999999999999 0  0.87000000000000011 0.27000000000000002 0.088999999999999996  

0 2
0.80000000000000004 2

0 2
1 2

9 0 0 0 0 1 1 2 2 2 2 0.086076384396014768 0.31392361560398524 0  0.12281795742972264 0.27718204257027734 0.109  
0.91392361560398527 0.31392361560398524 0  0.87718204257027743 0.27718204257027734 0.109  

0 2
0.82784723120797055 2

0 2
1 2

1 0.12281795742972264 0.27718204257027734 0.109 0 -0 -1 0.99741330907677272 -0.071879697248403637 0 -0.071879697248403637 -0.99741330907677272 0 
9 0 0 0 0 1 1 2 2 2 2 0.91392361560398527 0.18607638439601476 0  0.87718204257027743 0.22281795742972266 0.109  
0.086076384396014727 0.18607638439601476 0  0.12281795742972257 0.22281795742972266 0.109  

0 2
0.82784723120797055 2

0 2
1 2

1 0.5 0.25 0 0 0 1 1 0 -0 -0 1 0 
1 0.80000000000000004 0 0 0 -1 0 -1 0 0 -0 -0 -1 
1 0.5 0.25 0.050000000000000003 0 0 1 1 0 -0 -0 1 0 
9 0 0 0 0 1 1 2 2 2 2 0.98354169362391142 0.11645830637608862 0  0.91309225542166417 0.18690774457833584 0.20900000000000002  
0.016458306376088579 0.11645830637608862 0  0.086907744578335833 0.18690774457833584 0.20900000000000002  

0 2
0.96708338724782283 2

0 2
1 2

1 0.26000000000000006 0.25000000000000006 0.052583814283569473 1 -0 -0 0 1 0 0 -0 1 
1 0.22 0 0 0 1 0 1 0 0 0 0 -1 
1 0.22000000000000017 0.25000000000000017 0.052583814283569487 -1 0 -2.0000000000000001e-17 2.0000000000000001e-17 0 -1 0 -1 -0 
1 0.23999999999999996 0.25 0 0 0 1 1 0 -0 -0 1 0 
9 0 0 0 0 1 1 2 2 2 2 0.016458306376088638 0.38354169362391138 0  0.086907744578335847 0.31309225542166413 0.20900000000000002  
0.98354169362391142 0.38354169362391138 0  0.91309225542166428 0.31309225542166413 0.20900000000000002  

0 2
0.96708338724782283 2

0 2
1 2

1 0.5 0.25 0.050000000000000003 0 0 1 1 0 -0 -0 1 0 
1 0.26000000000000001 0.5 0 0 -1 0 -1 0 0 -0 -0 -1 
1 0.23999999999999996 0.25 0 0 0 1 1 0 -0 -0 1 0 
9 0 0 0 0 1 1 2 2 2 2 0.10000000000000001 0.29999999999999999 0  0.13 0.27000000000000002 0.088999999999999996  
0.90000000000000002 0.29999999999999999 0  0.87000000000000011 0.27000000000000002 0.088999999999999996  

0 2
0.80000000000000004 2

0 2
1 2

1 0.13 0.27000000000000002 0.088999999999999996 -0 0 1 0.99854227327750833 -0.053975258015000457 0 0.053975258015000457 0.99854227327750833 0 
9 0 0 0 0 1 1 2 2 2 2 0.90000000000000002 0.20000000000000001 0  0.87 0.23000000000000001 0.088999999999999996  
0.099999999999999978 0.20000000000000001 0  0.13 0.23000000000000001 0.088999999999999996  

0 2
0.80000000000000004 2

0 2
1 2

1 0.23999999999999996 0.25 0 0 0 1 1 0 -0 -0 1 0 
Triangulations 0

TShapes 183
Ve
5e-06
0.2 0.5 0.001
0 0

0101101
*
Ve
5e-06
0.2 0.5 0.011
0 0

0101101
*
Ed
 5e-06 1 1 0
1  1 0 0 0.01
2  1 1 0 0 0.01
2  2 2 11 0 0.01
0

0101000
+183 12 -182 12 *
Ve
5e-06
0.8 0.5 0.001
0 0

0101101
*
Ve
5e-06
0.8 0.5 0.011
0 0

0101101
*
Ed
 5e-06 1 1 0
1  2 0 0 0.01
2  3 1 0 0 0.01
2  4 3 11 0 0.01
0

0101000
+180 12 -179 12 *
Ed
 5e-06 1 1 0
1  3 0 0 0.6
2  5 1 14 0 0.6
2  6 4 14 0 0.6
0

0101000
+183 15 -180 15 *
Ed
 5e-06 1 1 0
1  4 0 0 0.6
2  7 1 18 0 0.6
2  8 5 14 0 0.6
0

0101000
+182 19 -179 19 *
Wi

0101100
+181 0 -178 0 -177 13 +176 17 *
Fa
0  1e-07 1 0

0111000
+175 0 *
Ve
5e-06
0.2 0 0.001
0 0

0101101
*
Ve
5e-06
0.2 0.2 0.001
0 0

0101101
*
Ed
 5e-06 1 1 0
1  5 0 0 0.2
2  9 2 0 0 0.2
2  10 6 21 0 0.2
0

0101000
+173 22 -172 22 *
Ve
5.05e-06
0.2 0.23 0.09
0 0

0101101
*
Ed
 5e-06 1 1 0
1  6 0 0 1
2  11 2 20 0 1
2  12 7 26 0 1
0

0101000
+172 27 -170 27 *
Ve
5.05e-06
0.2 0.27 0.09
0 0

0101101
*
Ed
 5.05e-06 1 1 0
1  7 0 -0.03 0.01
2  13 2 20 -0.03 0.01
2  14 8 26 -0.03 0.01
0

0101000
+170 27 -168 27 *
Ve
5e-06
0.2 0.3 0.001
0 0

0101101
*
Ed
 5e-06 1 1 0
1  8 0 0 1
2  15 2 20 0 1
2  16 9 26 0 1
0

0101000
+166 27 -168 27 *
Ed
 5e-06 1 1 0
1  9 0 0.3 0.5
2  17 2 0 0.3 0.5
2  18 4 21 0.3 0.5
0

0101000
+166 22 -183 22 *
Ve
5.000001e-06
0.2 0.307182042570278 0.010999999999999
0 0

0101101
*
Ed
 5e-06 1 1 0
1  10 0 0.307182042570278 0.5
2  19 2 29 0.307182042570278 0.5
2  20 5 14 0.307182042570278 0.5
0

0101000
+163 19 -182 19 *
Ve
5e-06
0.2 0.277182042570277 0.1
0 0

0101101
*
Ed
 5e-06 1 1 0
1  11 0 0.101003861995876 1
2  21 2 33 0.101003861995876 1
2  22 10 36 0.101003861995876 1
0

0101000
+163 37 -161 37 *
Ve
5e-06
0.2 0.222817957429723 0.1
0 0

0101101
*
Ed
 5e-06 1 1 0
1  12 0 -0.138591021285139 -0.084226936144584
2  23 2 33 -0.138591021285139 -0.084226936144584
2  24 11 36 -0.138591021285139 -0.084226936144584
0

0101000
+161 37 -159 37 *
Ve
5.000001e-06
0.2 0.192817957429722 0.010999999999999
0 0

0101101
*
Ed
 5e-06 1 1 0
1  13 0 0.101003861995876 1
2  25 2 33 0.101003861995876 1
2  26 12 36 0.101003861995876 1
0

0101000
+157 37 -159 37 *
Ve
5e-06
0.2 0 0.011
0 0

0101101
*
Ed
 5e-06 1 1 0
1  14 0 0 0.192817957429722
2  27 2 29 0 0.192817957429722
2  28 13 14 0 0.192817957429722
0

0101000
+155 19 -157 19 *
Ed
 5e-06 1 1 0
1  15 0 0 0.01
2  29 2 11 0 0.01
2  30 14 0 0 0.01
0

0101000
+173 12 -155 12 *
Wi

0101100
-171 20 -169 0 -167 0 +165 0 -164 20 -181 10 +162 28 -160 32 -158 32 +156 32 
+154 28 +153 10 *
Fa
0  5e-06 2 20

0111000
+152 0 *
Ve
5e-06
0.8 0.3 0.001
0 0

0101101
*
Ed
 5e-06 1 1 0
1  16 0 0 0.2
2  31 3 0 0 0.2
2  32 4 21 0 0.2
0

0101000
+180 22 -150 22 *
Ve
5.05e-06
0.8 0.27 0.09
0 0

0101101
*
Ed
 5e-06 1 1 0
1  17 0 0 1
2  33 3 20 0 1
2  34 9 26 0 1
0

0101000
+150 27 -148 27 *
Ve
5.05e-06
0.8 0.23 0.09
0 0

0101101
*
Ed
 5.05e-06 1 1 0
1  18 0 -0.01 0.03
2  35 3 20 -0.01 0.03
2  36 8 26 -0.01 0.03
0

0101000
+148 27 -146 27 *
Ve
5e-06
0.8 0.2 0.001
0 0

0101101
*
Ed
 5e-06 1 1 0
1  19 0 0 1
2  37 3 20 0 1
2  38 7 26 0 1
0

0101000
+144 27 -146 27 *
Ve
5e-06
0.8 0 0.001
0 0

0101101
*
Ed
 5e-06 1 1 0
1  20 0 0.3 0.5
2  39 3 0 0.3 0.5
2  40 6 21 0.3 0.5
0

0101000
+144 22 -142 22 *
Ve
5e-06
0.8 0 0.011
0 0

0101101
*
Ed
 5e-06 1 1 0
1  21 0 0 0.01
2  41 3 11 0 0.01
2  42 14 0 0 0.01
0

0101000
+142 12 -140 12 *
Ve
5.000001e-06
0.8 0.192817957429722 0.010999999999999
0 0

0101101
*
Ed
 5e-06 1 1 0
1  22 0 0.307182042570278 0.5
2  43 3 29 0.307182042570278 0.5
2  44 13 14 0.307182042570278 0.5
0

0101000
+138 19 -140 19 *
Ve
5e-06
0.8 0.222817957429723 0.1
0 0

0101101
*
Ed
 5e-06 1 1 0
1  23 0 0.101003861995876 1
2  45 3 33 0.101003861995876 1
2  46 12 36 0.101003861995876 1
0

0101000
+138 37 -136 37 *
Ve
5e-06
0.8 0.277182042570277 0.1
0 0

0101101
*
Ed
 5e-06 1 1 0
1  24 0 -0.165773063855416 -0.111408978714861
2  47 3 33 -0.165773063855416 -0.111408978714861
2  48 11 36 -0.165773063855416 -0.111408978714861
0

0101000
+136 37 -134 37 *
Ve
5.000001e-06
0.8 0.307182042570278 0.010999999999999
0 0

0101101
*
Ed
 5e-06 1 1 0
1  25 0 0.101003861995877 1
2  49 3 33 0.101003861995877 1
2  50 10 36 0.101003861995877 1
0

0101000
+132 37 -134 37 *
Ed
 5e-06 1 1 0
1  26 0 0 0.192817957429722
2  51 3 29 0 0.192817957429722
2  52 5 14 0 0.192817957429722
0

0101000
+179 19 -132 19 *
Wi

0101100
-149 20 -147 0 -145 0 +143 0 -141 20 -139 10 +137 28 -135 32 -133 32 +131 32 
+130 28 +178 10 *
Fa
0  5e-06 3 20

0111000
+129 0 *
Ed
 5e-06 1 1 0
1  27 0 0.1 0.7
2  53 4 41 0.1 0.7
2  54 9 42 0.1 0.7
0

0101000
+166 43 -150 43 *
Wi

0101100
-177 38 -149 20 +127 40 -164 20 *
Fa
0  5e-06 4 10

0111000
+126 0 *
Ed
 5e-06 1 1 0
1  28 0 0 1
2  55 5 45 0 1
2  56 10 47 0 1
0

0101000
+132 48 -163 48 *
Wi

0101100
-176 46 -130 46 -124 0 -162 46 *
Fa
0  1e-07 5 45

0111000
+123 0 *
Ed
 5e-06 1 1 0
1  29 0 0.1 0.7
2  57 6 41 0.1 0.7
2  58 7 42 0.1 0.7
0

0101000
+144 43 -172 43 *
Ed
 5e-06 1 1 0
1  30 0 0 0.6
2  59 6 14 0 0.6
2  60 14 14 0 0.6
0

0101000
+142 15 -173 15 *
Wi

0101100
+121 40 -141 20 -120 38 -171 20 *
Fa
0  5e-06 6 10

0111000
+119 0 *
Ed
 1e-07 1 1 0
1  31 0 0.07 0.67
2  61 7 51 0.07 0.67
2  62 8 51 0.07 0.67
0

0101000
+146 52 -170 52 *
Wi

0101100
-143 0 -117 50 +169 0 +121 40 *
Fa
0  1e-07 7 26

0111000
+116 0 *
Ed
 1e-07 1 1 0
1  32 0 0.07 0.67
2  63 8 51 0.07 0.67
2  64 9 51 0.07 0.67
0

0101000
+168 52 -148 52 *
Wi

0101100
-114 50 -145 0 -117 50 -167 0 *
Fa
0  1e-07 8 26

0111000
+113 0 *
Wi

0101100
-165 0 -114 50 +147 0 +127 40 *
Fa
0  1e-07 9 26

0111000
+111 0 *
Ed
 1e-07 1 1 0
1  33 0 0.077182042570277 0.677182042570277
2  65 10 55 0.077182042570277 0.677182042570277
2  66 11 55 0.077182042570277 0.677182042570277
0

0101000
+161 56 -134 56 *
Wi

0101100
-109 54 +131 57 -124 0 -160 57 *
Fa
0  1e-07 10 47

0111000
+108 0 *
Ed
 1e-07 1 1 0
1  34 0 0.077182042570277 0.677182042570277
2  67 11 55 0.077182042570277 0.677182042570277
2  68 12 55 0.077182042570277 0.677182042570277
0

0101000
+136 56 -159 56 *
Wi

0101100
-158 0 +106 58 -133 0 +109 58 *
Fa
0  1e-07 11 36

0111000
+105 0 *
Ed
 5e-06 1 1 0
1  35 0 0 1
2  69 12 47 0 1
2  70 13 45 0 1
0

0101000
+157 48 -138 48 *
Wi

0101100
-106 54 +156 57 -103 0 -135 57 *
Fa
0  1e-07 12 47

0111000
+102 0 *
Ed
 5e-06 1 1 0
1  36 0 0 0.6
2  71 13 14 0 0.6
2  72 14 18 0 0.6
0

0101000
+140 19 -155 19 *
Wi

0101100
-103 0 -137 46 -100 46 -154 46 *
Fa
0  1e-07 13 45

0111000
+99 0 *
Wi

0101100
+139 0 -153 0 -120 13 +100 17 *
Fa
0  1e-07 14 0

0111000
+97 0 *
Sh

0101100
+174 10 +151 0 +128 0 -125 0 +122 44 -118 0 +115 0 -112 0 +110 0 -107 44 
-104 32 -101 44 +98 44 +96 10 *
So

0100000
+95 0 *
Co

0100000
+94 2 *
Ve
5.000001e-06
0.22 0.156907744578333 0.060999999999996
0 0

0101101
*
Ve
5.000001e-06
0.26 0.156907744578335 0.060999999999999
0 0

0101101
*
Ed
 5e-06 1 1 0
1  37 0 0 1
2  73 15 73 0 1
2  74 16 80 0 1
0

0101000
+92 81 -91 81 *
Ve
5e-06
0.26 0 0.061
0 0

0101101
*
Ed
 5e-06 1 1 0
1  38 0 -0.125 0.031907744578335
2  75 15 83 -0.125 0.031907744578335
2  76 17 84 -0.125 0.031907744578335
0

0101000
+89 85 -91 85 *
Ve
5e-06
0.22 0 0.061
0 0

0101101
*
Ed
 1.5e-07 1 1 0
1  39 0 -0.14 -0.1
2  77 15 83 -0.14 -0.1
2  78 18 89 -0.14 -0.1
0

0101000
+87 85 -89 85 *
Ed
 5e-06 1 1 0
1  40 0 0.218092255421667 0.375
2  79 15 83 0.218092255421667 0.375
2  80 19 84 0.218092255421667 0.375
0

0101000
+92 85 -87 85 *
Wi

0101100
-90 0 +88 82 +86 82 +85 82 *
Fa
0  1e-07 15 73

0111000
+84 0 *
Ve
5.000001e-06
0.26 0.186907744578336 0.15
0 0

0101101
*
Ve
5.000001e-06
0.22 0.186907744578336 0.15
0 0

0101101
*
Ed
 1e-07 1 1 0
1  41 0 0.653092255421664 0.693092255421664
2  81 16 92 0.653092255421664 0.693092255421664
2  82 20 94 0.653092255421664 0.693092255421664
0

0101000
+82 95 -81 95 *
Ed
 5e-06 1 1 0
1  42 0 0.364227151142287 1
2  83 16 97 0.364227151142287 1
2  84 19 98 0.364227151142287 1
0

0101000
+92 99 -81 99 *
Ed
 5e-06 1 1 0
1  43 0 0.36424266112728 1
2  85 16 97 0.36424266112728 1
2  86 17 98 0.36424266112728 1
0

0101000
+91 99 -82 99 *
Wi

0101100
-80 91 +79 96 -90 0 -78 96 *
Fa
0  1e-07 16 80

0111000
+77 0 *
Ve
5.052228232e-06
0.26 0 0.01
0 0

0101101
*
Ed
 5e-06 1 1 0
1  44 0 0 0.051
2  87 17 0 0 0.051
2  88 18 101 0 0.051
0

0101000
+75 102 -89 102 *
Ve
5.000001e-06
0.26 0.313092255421664 0.15
0 0

0101101
*
Ed
 5e-06 1 1 0
1  45 0 0.186907744578336 0.313092255421664
2  89 17 107 0.186907744578336 0.313092255421664
2  90 20 108 0.186907744578336 0.313092255421664
0

0101000
+82 109 -73 109 *
Ve
5.000001e-06
0.26 0.343092255421665 0.060999999999999
0 0

0101101
*
Ed
 5e-06 1 1 0
1  46 0 0.36424266112728 1
2  91 17 98 0.36424266112728 1
2  92 21 97 0.36424266112728 1
0

0101000
+71 99 -73 99 *
Ve
5e-06
0.26 0.5 0.061
0 0

0101101
*
Ed
 5e-06 1 1 0
1  47 0 0.218092255421665 0.375
2  93 17 84 0.218092255421665 0.375
2  94 22 83 0.218092255421665 0.375
0

0101000
+71 85 -69 85 *
Ve
5.052228232e-06
0.26 0.5 0.01
0 0

0101101
*
Ed
 5e-06 1 1 0
1  48 0 0 0.051
2  95 17 0 0 0.051
2  96 23 101 0 0.051
0

0101000
+67 102 -69 102 *
Ve
5.050001e-06
0.26 0.296966292134831 0.01
0 0

0101101
*
Ed
 5e-06 1 1 0
1  49 0 0.296966292134831 0.5
2  97 17 0 0.296966292134831 0.5
2  98 24 113 0.296966292134831 0.5
0

0101000
+65 102 -67 102 *
Ve
5.052228232e-06
0.26 0.27 0.09
0 0

0101101
*
Ed
 5e-06 1 1 0
1  50 0 0 1
2  99 17 100 0 1
2  100 25 117 0 1
0

0101000
+65 118 -63 118 *
Ve
5.052228232e-06
0.26 0.23 0.09
0 0

0101101
*
Ed
 5.05e-06 1 1 0
1  51 0 -0.01 0.03
2  101 17 100 -0.01 0.03
2  102 26 117 -0.01 0.03
0

0101000
+63 118 -61 118 *
Ve
5.050001e-06
0.26 0.203033707865169 0.01
0 0

0101101
*
Ed
 5e-06 1 1 0
1  52 0 0 1
2  103 17 100 0 1
2  104 27 117 0 1
0

0101000
+59 118 -61 118 *
Ed
 5e-06 1 1 0
1  53 0 0 0.203033707865169
2  105 17 0 0 0.203033707865169
2  106 28 113 0 0.203033707865169
0

0101000
+75 102 -59 102 *
Wi

0101100
-74 100 -88 103 -78 104 -72 106 +70 104 -68 103 +66 100 +64 100 -62 0 -60 0 
+58 0 +57 100 *
Fa
0  5e-06 17 100

0111000
+56 0 *
Ve
5.052228232e-06
0.22 0 0.01
0 0

0101101
*
Ed
 5e-06 1 1 0
1  54 0 0 0.04
2  107 18 120 0 0.04
2  108 28 108 0 0.04
0

0101000
+54 121 -75 121 *
Ed
 5e-06 1 1 0
1  55 0 0 0.051
2  109 18 101 0 0.051
2  110 19 0 0 0.051
0

0101000
+54 102 -87 102 *
Wi

0101000
+53 119 +74 0 -86 122 -52 0 *
Fa
0  1.5e-07 18 101

0111000
-51 0 *
Ve
5.050001e-06
0.22 0.203033707865169 0.01
0 0

0101101
*
Ed
 5e-06 1 1 0
1  56 0 0.296966292134831 0.5
2  111 19 0 0.296966292134831 0.5
2  112 28 113 0.296966292134831 0.5
0

0101000
+49 102 -54 102 *
Ve
5.052228232e-06
0.22 0.23 0.09
0 0

0101101
*
Ed
 5e-06 1 1 0
1  57 0 0 1
2  113 19 100 0 1
2  114 27 117 0 1
0

0101000
+49 118 -47 118 *
Ve
5.052228232e-06
0.22 0.27 0.09
0 0

0101101
*
Ed
 5.05e-06 1 1 0
1  58 0 -0.03 0.01
2  115 19 100 -0.03 0.01
2  116 26 117 -0.03 0.01
0

0101000
+47 118 -45 118 *
Ve
5.050001e-06
0.22 0.296966292134831 0.01
0 0

0101101
*
Ed
 5e-06 1 1 0
1  59 0 0 1
2  117 19 100 0 1
2  118 25 117 0 1
0

0101000
+43 118 -45 118 *
Ve
5.052228232e-06
0.22 0.5 0.01
0 0

0101101
*
Ed
 5e-06 1 1 0
1  60 0 0 0.203033707865169
2  119 19 0 0 0.203033707865169
2  120 24 113 0 0.203033707865169
0

0101000
+41 102 -43 102 *
Ve
5e-06
0.22 0.5 0.061
0 0

0101101
*
Ed
 5e-06 1 1 0
1  61 0 0 0.051
2  121 19 0 0 0.051
2  122 23 101 0 0.051
0

0101000
+41 102 -39 102 *
Ve
5.000001e-06
0.22 0.343092255421667 0.060999999999996
0 0

0101101
*
Ed
 5e-06 1 1 0
1  62 0 -0.125 0.031907744578333
2  123 19 84 -0.125 0.031907744578333
2  124 22 83 -0.125 0.031907744578333
0

0101000
+39 85 -37 85 *
Ve
5.000001e-06
0.22 0.313092255421664 0.15
0 0

0101101
*
Ed
 5e-06 1 1 0
1  63 0 0.364227151142287 1
2  125 19 98 0.364227151142287 1
2  126 21 97 0.364227151142287 1
0

0101000
+37 99 -35 99 *
Ed
 5e-06 1 1 0
1  64 0 0.186907744578336 0.313092255421664
2  127 19 107 0.186907744578336 0.313092255421664
2  128 20 108 0.186907744578336 0.313092255421664
0

0101000
+35 109 -81 109 *
Wi

0101100
+48 100 -46 0 -44 0 +42 0 +40 100 -38 100 -36 103 -34 104 -33 106 +79 104 
-85 103 +52 100 *
Fa
0  5e-06 19 100

0111000
+32 0 *
Ed
 1e-07 1 1 0
1  65 0 0.133092255421664 0.173092255421664
2  129 20 94 0.133092255421664 0.173092255421664
2  130 21 92 0.133092255421664 0.173092255421664
0

0101000
+35 95 -73 95 *
Wi

0101100
+33 124 -30 91 +72 124 -80 91 *
Fa
0  1e-07 20 123

0111000
+29 0 *
Ed
 5e-06 1 1 0
1  66 0 0 1
2  131 21 80 0 1
2  132 22 73 0 1
0

0101000
+71 81 -37 81 *
Wi

0101100
-30 91 +70 96 -27 0 -34 96 *
Fa
0  1e-07 21 80

0111000
+26 0 *
Ed
 5e-06 1 1 0
1  67 0 0.12 0.16
2  133 22 83 0.12 0.16
2  134 23 89 0.12 0.16
0

0101000
+69 85 -39 85 *
Wi

0101100
+24 82 +68 82 -27 0 +36 82 *
Fa
0  1e-07 22 73

0111000
+23 0 *
Ed
 5e-06 1 1 0
1  68 0 0 0.04
2  135 23 120 0 0.04
2  136 24 108 0 0.04
0

0101000
+67 121 -41 121 *
Wi

0101000
-66 0 +21 119 +38 0 -24 122 *
Fa
0  5e-06 23 101

0111000
-20 0 *
Ed
 5e-06 1 1 0
1  69 0 0 1
2  137 24 125 0 1
2  138 25 117 0 1
0

0101000
+65 118 -43 118 *
Wi

0101100
+21 126 +64 100 -18 0 +40 100 *
Fa
0  5e-06 24 125

0111000
+17 0 *
Ed
 1e-07 1 1 0
1  70 0 0.09 0.13
2  139 25 129 0.09 0.13
2  140 26 129 0.09 0.13
0

0101000
+45 130 -63 130 *
Wi

0101100
-15 128 +62 0 -18 0 -42 0 *
Fa
0  1e-07 25 117

0111000
+14 0 *
Ed
 1e-07 1 1 0
1  71 0 0.61 0.65
2  141 26 129 0.61 0.65
2  142 27 129 0.61 0.65
0

0101000
+61 130 -47 130 *
Wi

0101100
-15 128 -60 0 -12 128 -44 0 *
Fa
0  1e-07 26 117

0111000
+11 0 *
Ed
 5e-06 1 1 0
1  72 0 0 1
2  143 27 117 0 1
2  144 28 125 0 1
0

0101000
+49 118 -59 118 *
Wi

0101100
-12 128 +46 0 -9 0 -58 0 *
Fa
0  1e-07 27 117

0111000
+8 0 *
Wi

0101100
-9 0 +57 100 +53 126 +48 100 *
Fa
0  5e-06 28 125

0111000
+6 0 *
Sh

0101100
+83 65 -76 65 +55 0 -50 100 +31 0 +28 65 -25 65 +22 65 -19 100 -16 0 
+13 0 -10 0 +7 0 -5 0 *
So

0100000
+4 0 *
Co

0100000
+3 60 *
Co

1100000
+93 1 +2 59 *

+1 0 
0

