DBRep_DrawableShape

CASCADE Topology V1, (c) Matra-Datavision
Locations 0
Curve2ds 2
7 0 0  3 40 20  0.2398829177867931 1.0747588153364185e-06  0.25949677469758464 1.0533224780740298e-06  0.27871396670995063 1.0977729317968029e-06  0.31526579393430354 1.2821169143276831e-06  0.33225226562260285 1.41603462922857e-06  0.36675908924126199 1.637636817549961e-06  0.38327801260121636 1.7176578970463367e-06  0.4177855554453071 1.6482156885705452e-06  0.43477272367426578 1.4992318766951635e-06  0.47132688282341584 8.3887249599386314e-07  0.49054765420985025 3.4540008146024651e-07  0.52977169259089174 -1.0103784460946331e-06  0.54761572258055491 -1.834780388177593e-06  0.58321376369011224 -3.7053481960733021e-06  0.59993172207105538 -4.6977003162163837e-06  0.63421764540083436 -6.6412069074554536e-06  0.65079115356123085 -7.5359038929845134e-06  0.68575798732984983 -9.0000941795015407e-06  0.70313532674576251 -9.5268262367576937e-06  0.74094025137149067 -1.0059926639287625e-05  0.76095814696313424 -1.0050687956979894e-05  0.79863056955264999 -9.4826022730700527e-06  0.81596536893826832 -8.9403855738513444e-06  0.85087806989140558 -7.4522765315126687e-06  0.86744170021853095 -6.5498386213376313e-06  0.90173860522827232 -4.6000442521695667e-06  0.91847707615366259 -3.6093146846689987e-06  0.95415381256664122 -1.7497098587909307e-06  0.97205351604946244 -9.3430996476997119e-07  1.0114438148764553 3.9993304294172147e-07  1.0304967408677403 8.8157976647778379e-07  1.0669479983590107 1.5195570564481587e-06  1.0839045532353884 1.6586720163382618e-06  1.1183809801283795 1.7132183918592972e-06  1.1349003836686904 1.6285984960399933e-06  1.1694404178753923 1.4033770458843098e-06  1.1864585706748463 1.2705282395571075e-06  1.2161589840919975 1.1256624271803789e-06  1.2277137910904325 1.0880586735947581e-06  1.2398829177867858 1.0747588159791608e-06 
 0 4 0.67154273377559737 2 1.3430854674031829 2 2.0146282039973613 2 2.6861709597326695 2 3.3577137260649486 2 4.0292564331848064 2 4.7007990149931524 2 5.3723415313689635 2 6.0438841631131766 2 6.715427025272958 2 7.386970011209522 2 8.0585128847441077 2 8.7300555279761323 2 9.4015980463535556 2 10.07314062211381 2 10.74468332308984 2 11.416226087631783 2 12.087768844257642 2 12.504417576146317 4
7 0 0  3 40 20  0.73988205995038581 0.99997855638520627  0.72026824704299708 0.99997882772957669  0.70242301410253549 0.99997988384676961  0.6668232451381193 0.99998323721475879  0.65010481833344291 0.99998543540995166  0.61581862101588047 0.99999018810886053  0.59924531989404795 0.99999260186412586  0.56427968631923175 0.99999674627931157  0.54690330476003679 0.99999835375539214  0.50910135147618119 1.0000001378429937  0.48908330922142101 1.0000002611184517  0.45140803786526795 0.99999895371849756  0.43407231672254931 0.99999756188096045  0.39915844506707959 0.99999379022120849  0.38259460421792008 0.99999152310147643  0.34829797549632224 0.99998700957864262  0.3315599830985877 0.99998489828998283  0.29588504936548138 0.99998169500577028  0.2779866078804587 0.99998069897116948  0.23860002502311772 0.99998026176526544  0.21954323164512934 0.999980833697247  0.18308969498696803 0.99998336129932552  0.16613244292856041 0.99998524124437815  0.13165528992934086 0.99998958487449741  0.11513588417624138 0.99999191849306113  0.080596585411283658 0.99999610375822301  0.063579149837590096 0.9999978302603646  0.026924196816630268 0.99999995016142329  0.0075580811126260061 1.0000002804058938  -0.031510214617886043 0.99999934771147236  -0.049302257345344665 0.99999811277972028  -0.084827360271714072 0.99999448651415412  -0.1015266902248164 0.99999220309919989  -0.13580408782677339 0.99998741299457716  -0.15238796592176673 0.99998504829177548  -0.18740862305801262 0.99998111950684965  -0.20482771135500666 0.99997967154525635  -0.23556279617218945 0.99997852722564262  -0.24794881004244088 0.99997838803319239  -0.26011794004961869 0.99997855638520705 
 0 4 0.67154347940779047 2 1.3430870411967624 2 2.0146293766616044 2 2.6861707525438585 2 3.357712737904238 2 4.0292554397681091 2 4.7007976837083207 2 5.3723392530056442 2 6.0438815084574902 2 6.7154252950464643 2 7.3869694300549771 2 8.0585122476876556 2 8.7300538828592362 2 9.4015958122858549 2 10.073138485526327 2 10.744680818715612 2 11.416222267150561 2 12.087764064553607 2 12.504414306420795 4
Curves 4
2 300.75000000000352 702.20000000000005 804 -0.99991278751671731 0.00076432352202149018 0.013184580770806125 0.013184584621960874 -1.0164395367051604e-20 0.99991307958659403 0.00076425708670498028 0.99999970790473425 -1.0077288154647504e-05 2.9999999999993849
7 0 1  3 39 20  300.72363083081899 702.19999999946708 802.00017384538899  300.72345729057088 701.97292955578291 802.0001761335227  300.72378412895375 701.75225922959703 802.03775589484019  300.72543856297705 701.32371881226629 802.18807036380906  300.72671952739665 701.12792739146369 802.29656836748677  300.73018895104894 700.77330212414097 802.58024591276774  300.73227962248706 700.62446360471301 802.74742983198405  300.73717288462268 700.38373478967014 803.13248796664379  300.7398375557965 700.29862958214085 803.33950908778672  300.74560297834307 700.19893757168279 803.78253543651692  300.74854122779874 700.18716064931175 804.0060536987952  300.75452880278431 700.23974498098005 804.45710037644164  300.75740936485715 700.3026241072871 804.67191576619746  300.76294403787136 700.5015562778043 805.0801306255097  300.76544215072704 700.63200228485198 805.26202431471336  300.76989992945289 700.95485414303141 805.58138423641208  300.77173395020276 701.13816021475691 805.70984912184031  300.77461225518852 701.54853268075931 805.90434879366285  300.77557541256158 701.76403249071461 805.96490148124451  300.77654973729057 702.21565930023701 806.01261257444855  300.77653344240946 702.43905693611362 805.99842619022809  300.77549393788382 702.88102063331723 805.89396954184724  300.77450002712146 703.08712967914482 805.80664343777164  300.77156388863426 703.46960208292023 805.56179567733545  300.76970441792582 703.63518522606103 805.4111752165544  300.76520267386405 703.9150453631305 805.05354115739999  300.76268728518068 704.02143434512902 804.85660771247581  300.75712747424114 704.16713016864287 804.42650796958856  300.75423975870495 704.20233049800402 804.20546429881381  300.74824870676599 704.19743601908874 803.75138930141998  300.74531423172613 704.15747915856105 803.53115634905566  300.73956738320607 704.0025461928924 803.10429951446258  300.73691698811973 703.8919369525313 802.90970685059006  300.73206225659146 703.60443295919345 802.55819305194336  300.72999475372973 703.43564167345528 802.41117954930235  300.72657947408533 703.04798053795355 802.17463935745764  300.72532795901702 702.84003715222241 802.09177969593907  300.72403908058664 702.48020947193004 802.01489130018251  300.72373850129276 702.34088248936996 802.00017242575041 
 0 3 0.67154273377559737 2 1.3430854674031829 2 2.0146282039973613 2 2.6861709597326695 2 3.3577137260649486 2 4.0292564331848064 2 4.7007990149931524 2 5.3723415313689635 2 6.0438841631131766 2 6.715427025272958 2 7.386970011209522 2 8.0585128847441077 2 8.7300555279761323 2 9.4015980463535556 2 10.07314062211381 2 10.74468332308984 2 11.416226087631783 2 12.087768844257642 2 12.504417576146317 3
7 0 1  3 39 20  381.83575360777252 700.99999986614603 785.29999806490298  381.83574864771361 700.77292911058873 785.29999809716583  381.83572966685858 700.5522584593341 785.26241734771168  381.83566366349538 700.12371736494458 785.11209412464984  381.8356185013289 699.92792562835564 785.00358859320306  381.83550385607583 699.57330021739631 784.71988979466244  381.83543760438499 699.42446183141237 784.55269288501279  381.83528724287646 699.18373354779692 784.1676040600147  381.83520737111274 699.09862863550768 783.96056617364104  381.83503824539559 698.99893694555522 783.51750302101334  381.83495375833763 698.98716009278314 783.29396571353391  381.83478493580935 699.03974443186735 782.84287959734661  381.83470535870555 699.10262358431658 782.62804492240059  381.83455587297254 699.30155585775969 782.21979274750265  381.83449017768879 699.43200190101402 782.03788208563867  381.83437688229708 699.75485371320065 781.71849163930972  381.83433247546856 699.93815965160002 781.59001402000376  381.83426814340254 700.34853186945486 781.39549359321768  381.8342500314215 700.56403163040193 781.33493350529841  381.83424191553621 701.01565872467734 781.28721349418799  381.83425214044536 701.2390567390853 781.30139874812869  381.83430115601834 701.68102129698775 781.40585993911827  381.83433856516234 701.88713077872626 781.49319161242352  381.83443918611891 702.26960358541089 781.7380570186308  381.83449956181335 702.43518671307811 781.88868892402706  381.83464044362154 702.71504651479131 782.24635109880478  381.83471697886137 702.82143526145853 782.44330034353982  381.8348822381538 702.96713081208372 782.87343550963806  381.8349663042855 703.00233108075895 783.09449784263597  381.83513730957719 702.99743660183651 783.5486121607471  381.83521942885284 702.95747972524975 783.76886467284498  381.83537690052032 702.8025466355532 784.19576002464294  381.83544781447353 702.69193734352177 784.39037054716709  381.83557399856522 702.40443337047088 784.74191713651396  381.83562571214753 702.23564224816676 784.88894469583192  381.83570638253445 701.84798153899499 785.12550874828969  381.835733065591 701.64003835377514 785.20837753172043  381.83575418142988 701.28021042335388 785.28527640171831  381.83575668517523 701.14088290394454 785.29999804488591 
 0 3 0.67154347940779047 2 1.3430870411967624 2 2.0146293766616044 2 2.6861707525438585 2 3.357712737904238 2 4.0292554397681091 2 4.7007976837083207 2 5.3723392530056442 2 6.0438815084574902 2 6.7154252950464643 2 7.3869694300549771 2 8.0585122476876556 2 8.7300538828592362 2 9.4015958122858549 2 10.073138485526327 2 10.744680818715612 2 11.416222267150561 2 12.087764064553607 2 12.504414306420795 3
2 381.83499999999998 701 783.29999999999995 0.99999992877071175 -2.1843723259798698e-05 -0.00037680422393188687 -0.00037680422402178268 -6.6174449004242214e-24 -0.99999992900928603 2.1843721709097189e-05 0.99999999976142606 -8.2308071926550208e-09 2.99999999999996
Polygon3D 0
PolygonOnTriangulations 0
Surfaces 4
1 300.75 702.20000000000005 804 0.99991278751671808 -0.00076432352214209336 -0.013184580770740268 0.013206716493764595 0.057868802195632583 0.99823683781550376 8.4317806643002813e-13 -0.99832390412230265 0.057873849517754997 
11 1
9 1 1 1 0 4 3 12 18 5 12 299.88204844043304 705.25699327736515 804.89625044761408  1.016611713785802 300.17603490635082 705.2567791335922 804.8925564675161  1.016611713785802 300.47002137226809 705.25656498981834 804.88886248741835  1.016611713785802 300.76400783818588 705.25635084604448 804.88516850732037  1.016611713785802 302.97380024770678 705.25474120294734 804.85740216387399  1.0166117137858039 307.36885114595952 705.25446210770031 804.85258777088598  1.016611713785802 314.39248859008399 705.26020566100556 804.9516640654133  1.016611713785802 322.40558112366648 705.22410202707613 804.3288763799427  1.016611713785802 330.1617804914319 705.09755081802257 802.14586802336555  1.0166117137858039 339.32914548819974 704.85679633635311 797.99285321397508  1.016611713785802 349.69105745297162 704.49451623078187 791.74352139239795  1.0166117137858039 361.25780248529503 704.16549477897001 786.06790134901212  1.016611713785802 372.15786252897266 704.05370909539761 784.13959830831004  1.0166117137858039 378.72362413922457 704.05628933879029 784.18410750718999  1.016611713785802 381.83540033223142 704.0563561951692 784.18526077964714  1.016611713785802 382.12820897700885 704.05636248615019 784.18536929906656  1.016611713785802 382.42101762178629 704.0563687771313 784.18547781848599  1.016611713785802 382.71382626656327 704.05637506811229 784.18558633790451  1.016611713785802 
299.84954150841475 705.13425246418853 802.7789714204323  1.016611713785802 300.14502505954846 705.13403250235547 802.77517707881225  1.016611713785802 300.44050861068212 705.13381254052251 802.77138273719231  1.016611713785802 300.73599216181572 705.13359257868944 802.76758839557226  1.016611713785802 302.95703763204102 705.13193920329593 802.73906767001552  1.0166117137858039 307.40806176404948 705.13176628483632 802.73608482661302  1.016611713785802 314.36511631026258 705.13729537541417 802.83146163905985  1.016611713785802 322.03410121489912 705.10232496477568 802.22822205543139  1.016611713785802 329.41477974119704 704.98210224701916 800.15438017368933  1.0166117137858039 338.29539735680072 704.74933219229945 796.13909672926457  1.016611713785802 348.58675457057188 704.38979141029893 789.9370182392197  1.0166117137858039 360.5343367252969 704.04816311720845 784.04393018387225  1.016611713785802 372.02773402943927 703.93016758301599 782.00850721999461  1.0166117137858039 378.74212568750147 703.93374873713321 782.07028212888849  1.016611713785802 381.83459966777514 703.93358722956259 782.06749612321835  1.016611713785802 382.12559203323133 703.93357203219296 782.06723396858615  1.016611713785802 382.41658439868701 703.93355683482343 782.06697181395282  1.016611713785802 382.7075767641432 703.93354163745369 782.06670965932051  1.016611713785802 
299.82794996329704 704.52328514959936 801.4033382188353  0.95847071553549201 300.12442789873529 704.52306132333263 801.39947721573117  0.95847071553549201 300.4209058341736 704.52283749706601 801.39561621262578  0.95847071553549201 300.71738376961235 704.52261367079927 801.39175520952153  0.95847071553549201 302.94590367537563 704.52093124782186 801.3627334131379  0.95847071553549201 307.43410598837198 704.52082885342406 801.36096710980974  0.95847071553549301 314.34693527077303 704.52621549494654 801.45388667608438  0.95847071553549101 321.787359221347 704.49199778659261 800.86363120681824  0.95847071553549401 328.91861171179136 704.37597853858165 798.86229917821788  0.95847071553549101 337.60876782784959 704.14851184853126 794.93849877436901  0.95847071553549401 347.85326161911695 703.79079056239709 788.76780658799339  0.95847071553549001 360.05380095559138 703.44078863435459 782.73027332972254  0.95847071553549401 371.94130091519622 703.31866843315413 780.62369986007138  0.95847071553549101 378.75441466679098 703.32291440575159 780.69694288771893  0.95847071553549301 381.83406785558435 703.32260121574757 780.69154036009115  0.95847071553549201 382.12385382368177 703.3225717455241 780.69103199872541  0.95847071553549201 382.4136397917797 703.32254227529972 780.69052363736068  0.95847071553549201 382.70342575987763 703.3225128050766 780.69001527599596  0.95847071553549201 
299.81982323029462 703.08595183939576 800.95556327983854  1.016611713785802 300.11667543703652 703.08572655861462 800.95167718635219  1.016611713785802 300.41352764377899 703.08550127783258 800.94779109286708  1.016611713785802 300.71037985052135 703.08527599705155 800.94390499938174  1.016611713785802 302.94171302145884 703.08358264100002 800.91469460746725  1.0166117137858039 307.44390864289352 703.08350679079922 800.9133861915426  1.016611713785802 314.34009220081936 703.08883981664042 801.00538088728911  1.016611713785802 321.6944892441598 703.05490541410973 800.42001244349262  1.016611713785802 328.73186152423881 702.94046828892147 798.4459720335899  1.0166117137858039 337.35033079500778 702.71499770561002 794.55660447099126  1.016611713785802 347.57718589852061 702.35796125036518 788.39772561749533  1.0166117137858039 359.87293451558986 702.00480761200731 782.3058253562416  1.016611713785802 371.90876879030623 701.88113494814706 780.17247190579383  1.0166117137858039 378.75904005385877 701.88563114843043 780.2500313609479  1.016611713785802 381.83386768947025 701.88526086743718 780.24364401378773  1.016611713785802 382.1231995877381 701.88522602512558 780.24304298391007  1.016611713785802 382.412531486006 701.8851911828142 780.24244195403139  1.016611713785802 382.70186338427385 701.88515634050259 780.24184092415385  1.016611713785802 
299.81982323029655 700.96818703211989 801.07833225418005  1.016611713785802 300.11667543703902 700.96796175133784 801.07444616069472  1.016611713785802 300.41352764378092 700.96773647055682 801.0705600672095  1.016611713785802 300.71037985052283 700.96751118977454 801.06667397372416  1.016611713785802 302.94171302145986 700.96581783372324 801.03746358181161  1.0166117137858039 307.44390864289107 700.96574198352346 801.03615516588206  1.016611713785802 314.3400922008214 700.97107500936352 801.12814986163346  1.016611713785802 321.6944892441652 700.93714060683283 800.54278141783311  1.016611713785802 328.7318615242491 700.82270348164457 798.56874100793141  1.0166117137858039 337.35033079501852 700.59723289833312 794.67937344533277  1.016611713785802 347.57718589852749 700.24019644309021 788.52049459183786  1.0166117137858039 359.87293451558787 699.88704280472848 782.42859433059186  1.016611713785802 371.90876879029537 699.76337014087414 780.295240880145  1.0166117137858039 378.75904005385775 699.7678663411524 780.37280033530021  1.016611713785802 381.83386768947025 699.76749606016131 780.36641298813913  1.016611713785802 382.1231995877381 699.76746121784981 780.36581195826147  1.016611713785802 382.412531486006 699.76742637553821 780.3652109283837  1.016611713785802 382.70186338427385 699.76739153322683 780.36460989850502  1.016611713785802 
299.82794996330279 699.5922241285034 801.68919682876992  0.95847071553549201 300.12442789874052 699.59200030223667 801.68533582566556  0.95847071553549201 300.42090583417826 699.59177647597005 801.68147482256143  0.95847071553549201 300.71738376961656 699.59155264970343 801.67761381945729  0.95847071553549201 302.94590367537666 699.58987022672704 801.64859202307355  0.95847071553549201 307.43410598836681 699.58976783232708 801.64682571974322  0.95847071553549301 314.34693527077718 699.59515447385263 801.73974528602116  0.95847071553549101 321.7873592213611 699.56093676549654 801.14948981675275  0.95847071553549401 328.91861171181432 699.44491751748672 799.14815778815046  0.95847071553549101 337.60876782787517 699.21745082743541 795.22435738430272  0.95847071553549401 347.85326161913207 698.85972954130227 789.05366519793324  0.95847071553549001 360.05380095558615 698.50972761325954 783.01613193967501  0.95847071553549401 371.94130091517167 698.38760741206033 780.90955847003102  0.95847071553549101 378.75441466678683 698.39185338465768 780.9828014976755  0.95847071553549301 381.83406785558435 698.39154019465366 780.97739897004874  0.95847071553549201 382.12385382368223 698.39151072442928 780.97689060868402  0.95847071553549201 382.41363979178072 698.39148125420604 780.97638224731929  0.95847071553549201 382.70342575987928 698.39145178398167 780.97587388595446  0.95847071553549201 
299.84954150842117 699.14430903945424 803.1262145175391  1.016611713785802 300.14502505955483 699.14408907762129 803.12242017591905  1.016611713785802 300.44050861068797 699.14386911578833 803.118625834299  1.016611713785802 300.73599216182112 699.14364915395549 803.11483149267906  1.016611713785802 302.9570376320425 699.14199577856073 803.08631076712231  1.0166117137858039 307.4080617640426 699.14182286010316 803.08332792371891  1.016611713785802 314.36511631026804 699.14735195067897 803.17870473616767  1.016611713785802 322.03410121491635 699.11238154004445 802.57546515253819  1.016611713785802 329.41477974122563 698.99215882228395 800.50162327079227  1.0166117137858039 338.29539735683119 698.75938876756732 796.48633982636841  1.016611713785802 348.58675457059201 698.39984798556293 790.2842613363315  1.0166117137858039 360.53433672528809 698.05821969248109 784.39117328099974  1.016611713785802 372.02773402941119 697.94022415827988 782.35575031713086  1.0166117137858039 378.74212568749562 697.94380531240188 782.41752522602087  1.016611713785802 381.83459966777514 697.94364380483046 782.41473922035266  1.016611713785802 382.12559203323184 697.94362860746082 782.41447706572035  1.016611713785802 382.41658439868854 697.94361341009017 782.41421491108713  1.016611713785802 382.70757676414519 697.94359821272053 782.41395275645471  1.016611713785802 
299.88204844043941 699.267049852632 805.24349354471997  1.016611713785802 300.17603490635668 699.26683570885893 805.23979956462301  1.016611713785802 300.47002137227395 699.26662156508507 805.23610558452503  1.016611713785802 300.76400783819082 699.26640742131121 805.23241160442728  1.016611713785802 302.9738002477082 699.26479777821123 805.20464526098078  1.0166117137858039 307.36885114595361 699.26451868296886 805.19983086799073  1.016611713785802 314.39248859008848 699.27026223626945 805.29890716252112  1.016611713785802 322.40558112368365 699.23415860234479 804.67611947704654  1.016611713785802 330.16178049145992 699.10760739328748 802.49311112047144  1.0166117137858039 339.32914548823021 698.86685291162007 798.34009631107688  1.016611713785802 349.6910574529918 698.50457280604758 792.09076448950964  1.0166117137858039 361.25780248528764 698.17555135423891 786.41514444613961  1.016611713785802 372.15786252894361 698.06376567066343 784.48684140544731  1.0166117137858039 378.72362413921917 698.06634591405998 784.53135060432328  1.016611713785802 381.83540033223187 698.06641277043707 784.53250387678133  1.016611713785802 382.12820897700925 698.06641906141795 784.53261239620076  1.016611713785802 382.4210176217872 698.06642535239905 784.53272091562019  1.016611713785802 382.71382626656521 698.06643164338016 784.53282943503962  1.016611713785802 
299.90363998555654 699.87801716721924 806.61912674631571  0.95847071553549201 300.19663206716916 699.87780688787871 806.61549942770228  0.95847071553549201 300.48962414878133 699.87759660853919 806.61187210908975  0.95847071553549201 300.78261623039401 699.87738632919968 806.60824479047608  0.95847071553549201 302.98493420437416 699.87580573368803 806.58097951785976  0.95847071553549201 307.3428069216294 699.87545611437656 806.57494858479197  0.95847071553549301 314.41066962957802 699.88134211673628 806.67648212549716  0.95847071553549101 322.65232311723435 699.84448578052422 806.04071032565355  0.95847071553549401 330.65794852086657 699.71373110172658 803.78519211594607  0.95847071553549101 340.01577501717992 699.46767325538508 799.54069426596902  0.95847071553549401 350.42455040444781 699.10357365395134 793.25997614073822  0.95847071553549001 361.73833825499122 698.78292583709128 787.72880130028591  0.95847071553549401 372.24429564318774 698.67526482052574 785.87164876537383  0.95847071553549101 378.71133515992841 698.67718024543842 785.90468984548943  0.95847071553549301 381.8359321444218 698.67739878424948 785.90845963990694  0.95847071553549201 382.12994718655796 698.67741934808487 785.90881436605935  0.95847071553549201 382.42396222869365 698.67743991192037 785.90916909221153  0.95847071553549201 382.71797727082992 698.67746047575577 785.90952381836291  0.95847071553549201 
299.91176671855959 701.31535047742364 807.06690168531463  1.016611713785802 300.20438452886862 701.31514165259887 807.06329945708194  1.016611713785802 300.49700233917707 701.3149328277741 807.05969722884925  1.016611713785802 300.78962014948564 701.31472400294933 807.05609500061769  1.016611713785802 302.98912485829038 701.3131543405101 807.02901832352916  1.0166117137858039 307.33300426710861 701.312778177003 807.02252950306217  1.016611713785802 314.41751269953158 701.31871779504604 807.12498791429186  1.016611713785802 322.74519309442348 701.2815781530087 806.48432908898531  1.016611713785802 330.8446987084177 701.14924135138722 804.20151926057076  1.0166117137858039 340.27421205002372 700.90118739830859 799.92258856935018  1.016611713785802 350.70062612504256 700.53640296598155 793.63005711123685  1.0166117137858039 361.91920469499274 700.21890685944277 788.1532492737673  1.016611713785802 372.27682776807814 700.11279830552928 786.32287671965105  1.0166117137858039 378.70670977286045 700.1144635027639 786.35160137226194  1.016611713785802 381.83613231053624 700.11473913256145 786.35635598621195  1.016611713785802 382.13060142250254 700.1147650684843 786.35680338087673  1.016611713785802 382.42507053446877 700.11479100440727 786.35725077554162  1.016611713785802 382.71953964643501 700.11481694033012 786.3576981702065  1.016611713785802 
299.91176671855715 703.43311528470053 806.94413271097312  1.016611713785802 300.20438452886617 703.43290645987474 806.94053048274054  1.016611713785802 300.49700233917463 703.43269763504986 806.93692825450796  1.016611713785802 300.78962014948371 703.43248881022521 806.93332602627527  1.016611713785802 302.98912485828987 703.43091914778597 806.90624934918776  1.0166117137858039 307.33300426711105 703.4305429842799 806.89976052871975  1.016611713785802 314.41751269953068 703.43648260232101 807.00221893995035  1.016611713785802 322.74519309441712 703.39934296028559 806.36156011464288  1.016611713785802 330.84469870840837 703.26700615866298 804.07875028622925  1.0166117137858039 340.27421205001292 703.01895220558538 799.79981959500867  1.016611713785802 350.70062612503568 702.65416777325731 793.5072881368925  1.0166117137858039 361.91920469499564 702.33667166671876 788.03048029941897  1.016611713785802 372.27682776808803 702.23056311280516 786.20010774529794  1.0166117137858039 378.7067097728625 702.23222831003966 786.22883239791076  1.016611713785802 381.83613231053624 702.23250393983733 786.23358701186055  1.016611713785802 382.13060142250254 702.23252987576029 786.23403440652544  1.016611713785802 382.42507053446832 702.23255581168326 786.23448180119021  1.016611713785802 382.7195396464345 702.2325817476061 786.23492919585419  1.016611713785802 
299.9036399855508 704.80907818831417 806.33326813638018  0.95847071553549201 300.19663206716393 704.80886790897466 806.32964081776663  0.95847071553549201 300.48962414877661 704.80865762963515 806.3260134991541  0.95847071553549201 300.78261623038981 704.80844735029552 806.32238618054066  0.95847071553549201 302.98493420437319 704.80686675478296 806.29512090792514  0.95847071553549201 307.34280692163463 704.80651713547354 806.2890899748553  0.95847071553549301 314.41066962957439 704.81240313783121 806.39062351556254  0.95847071553549101 322.65232311721968 704.77554680162029 805.75485171571995  0.95847071553549401 330.65794852084406 704.64479212282254 803.49933350601157  0.95847071553549101 340.01577501715434 704.39873427647979 799.25483565603645  0.95847071553549401 350.42455040443321 704.03463467504639 792.97411753080041  0.95847071553549001 361.73833825499543 703.71398685818826 787.44294269033048  0.95847071553549401 372.24429564321326 703.60632584161863 785.58579015541636  0.95847071553549101 378.71133515993205 703.60824126653426 785.6188312355298  0.95847071553549301 381.8359321444218 703.60845980534452 785.62260102994946  0.95847071553549201 382.12994718655744 703.6084803691798 785.62295575610062  0.95847071553549201 382.4239622286932 703.60850093301519 785.62331048225303  0.95847071553549201 382.71797727082884 703.60852149685047 785.62366520840533  0.95847071553549201 

0 3
0.25 3
0.5 3
0.75 3
1 3

-0.01 4
0 3
0.075166467361843403 1
0.1517989465808495 1
0.24460235833800451 1
0.35449054432360699 1
0.43419162383064352 1
0.59510193020995905 1
0.76994061231070499 1
0.893726628345484 1
1 3
1.01 4

1 381.83499999999998 701 783.29999999999995 0.99999992877071175 -2.1843723104645447e-05 -0.00037680422399337436 0.00037743684433070581 0.057873845400126196 0.9983238330121299 2.84218042980941e-14 -0.99832390412203109 0.057873849522439298 
9 1 1 1 0 4 3 12 18 5 12 299.88204844043304 705.25699327736515 804.89625044761408  1.016611713785802 300.17603490635082 705.2567791335922 804.8925564675161  1.016611713785802 300.47002137226809 705.25656498981834 804.88886248741835  1.016611713785802 300.76400783818588 705.25635084604448 804.88516850732037  1.016611713785802 302.97380024770678 705.25474120294734 804.85740216387399  1.0166117137858039 307.36885114595952 705.25446210770031 804.85258777088598  1.016611713785802 314.39248859008399 705.26020566100556 804.9516640654133  1.016611713785802 322.40558112366648 705.22410202707613 804.3288763799427  1.016611713785802 330.1617804914319 705.09755081802257 802.14586802336555  1.0166117137858039 339.32914548819974 704.85679633635311 797.99285321397508  1.016611713785802 349.69105745297162 704.49451623078187 791.74352139239795  1.0166117137858039 361.25780248529503 704.16549477897001 786.06790134901212  1.016611713785802 372.15786252897266 704.05370909539761 784.13959830831004  1.0166117137858039 378.72362413922457 704.05628933879029 784.18410750718999  1.016611713785802 381.83540033223142 704.0563561951692 784.18526077964714  1.016611713785802 382.12820897700885 704.05636248615019 784.18536929906656  1.016611713785802 382.42101762178629 704.0563687771313 784.18547781848599  1.016611713785802 382.71382626656327 704.05637506811229 784.18558633790451  1.016611713785802 
299.84954150841475 705.13425246418853 802.7789714204323  1.016611713785802 300.14502505954846 705.13403250235547 802.77517707881225  1.016611713785802 300.44050861068212 705.13381254052251 802.77138273719231  1.016611713785802 300.73599216181572 705.13359257868944 802.76758839557226  1.016611713785802 302.95703763204102 705.13193920329593 802.73906767001552  1.0166117137858039 307.40806176404948 705.13176628483632 802.73608482661302  1.016611713785802 314.36511631026258 705.13729537541417 802.83146163905985  1.016611713785802 322.03410121489912 705.10232496477568 802.22822205543139  1.016611713785802 329.41477974119704 704.98210224701916 800.15438017368933  1.0166117137858039 338.29539735680072 704.74933219229945 796.13909672926457  1.016611713785802 348.58675457057188 704.38979141029893 789.9370182392197  1.0166117137858039 360.5343367252969 704.04816311720845 784.04393018387225  1.016611713785802 372.02773402943927 703.93016758301599 782.00850721999461  1.0166117137858039 378.74212568750147 703.93374873713321 782.07028212888849  1.016611713785802 381.83459966777514 703.93358722956259 782.06749612321835  1.016611713785802 382.12559203323133 703.93357203219296 782.06723396858615  1.016611713785802 382.41658439868701 703.93355683482343 782.06697181395282  1.016611713785802 382.7075767641432 703.93354163745369 782.06670965932051  1.016611713785802 
299.82794996329704 704.52328514959936 801.4033382188353  0.95847071553549201 300.12442789873529 704.52306132333263 801.39947721573117  0.95847071553549201 300.4209058341736 704.52283749706601 801.39561621262578  0.95847071553549201 300.71738376961235 704.52261367079927 801.39175520952153  0.95847071553549201 302.94590367537563 704.52093124782186 801.3627334131379  0.95847071553549201 307.43410598837198 704.52082885342406 801.36096710980974  0.95847071553549301 314.34693527077303 704.52621549494654 801.45388667608438  0.95847071553549101 321.787359221347 704.49199778659261 800.86363120681824  0.95847071553549401 328.91861171179136 704.37597853858165 798.86229917821788  0.95847071553549101 337.60876782784959 704.14851184853126 794.93849877436901  0.95847071553549401 347.85326161911695 703.79079056239709 788.76780658799339  0.95847071553549001 360.05380095559138 703.44078863435459 782.73027332972254  0.95847071553549401 371.94130091519622 703.31866843315413 780.62369986007138  0.95847071553549101 378.75441466679098 703.32291440575159 780.69694288771893  0.95847071553549301 381.83406785558435 703.32260121574757 780.69154036009115  0.95847071553549201 382.12385382368177 703.3225717455241 780.69103199872541  0.95847071553549201 382.4136397917797 703.32254227529972 780.69052363736068  0.95847071553549201 382.70342575987763 703.3225128050766 780.69001527599596  0.95847071553549201 
299.81982323029462 703.08595183939576 800.95556327983854  1.016611713785802 300.11667543703652 703.08572655861462 800.95167718635219  1.016611713785802 300.41352764377899 703.08550127783258 800.94779109286708  1.016611713785802 300.71037985052135 703.08527599705155 800.94390499938174  1.016611713785802 302.94171302145884 703.08358264100002 800.91469460746725  1.0166117137858039 307.44390864289352 703.08350679079922 800.9133861915426  1.016611713785802 314.34009220081936 703.08883981664042 801.00538088728911  1.016611713785802 321.6944892441598 703.05490541410973 800.42001244349262  1.016611713785802 328.73186152423881 702.94046828892147 798.4459720335899  1.0166117137858039 337.35033079500778 702.71499770561002 794.55660447099126  1.016611713785802 347.57718589852061 702.35796125036518 788.39772561749533  1.0166117137858039 359.87293451558986 702.00480761200731 782.3058253562416  1.016611713785802 371.90876879030623 701.88113494814706 780.17247190579383  1.0166117137858039 378.75904005385877 701.88563114843043 780.2500313609479  1.016611713785802 381.83386768947025 701.88526086743718 780.24364401378773  1.016611713785802 382.1231995877381 701.88522602512558 780.24304298391007  1.016611713785802 382.412531486006 701.8851911828142 780.24244195403139  1.016611713785802 382.70186338427385 701.88515634050259 780.24184092415385  1.016611713785802 
299.81982323029655 700.96818703211989 801.07833225418005  1.016611713785802 300.11667543703902 700.96796175133784 801.07444616069472  1.016611713785802 300.41352764378092 700.96773647055682 801.0705600672095  1.016611713785802 300.71037985052283 700.96751118977454 801.06667397372416  1.016611713785802 302.94171302145986 700.96581783372324 801.03746358181161  1.0166117137858039 307.44390864289107 700.96574198352346 801.03615516588206  1.016611713785802 314.3400922008214 700.97107500936352 801.12814986163346  1.016611713785802 321.6944892441652 700.93714060683283 800.54278141783311  1.016611713785802 328.7318615242491 700.82270348164457 798.56874100793141  1.0166117137858039 337.35033079501852 700.59723289833312 794.67937344533277  1.016611713785802 347.57718589852749 700.24019644309021 788.52049459183786  1.0166117137858039 359.87293451558787 699.88704280472848 782.42859433059186  1.016611713785802 371.90876879029537 699.76337014087414 780.295240880145  1.0166117137858039 378.75904005385775 699.7678663411524 780.37280033530021  1.016611713785802 381.83386768947025 699.76749606016131 780.36641298813913  1.016611713785802 382.1231995877381 699.76746121784981 780.36581195826147  1.016611713785802 382.412531486006 699.76742637553821 780.3652109283837  1.016611713785802 382.70186338427385 699.76739153322683 780.36460989850502  1.016611713785802 
299.82794996330279 699.5922241285034 801.68919682876992  0.95847071553549201 300.12442789874052 699.59200030223667 801.68533582566556  0.95847071553549201 300.42090583417826 699.59177647597005 801.68147482256143  0.95847071553549201 300.71738376961656 699.59155264970343 801.67761381945729  0.95847071553549201 302.94590367537666 699.58987022672704 801.64859202307355  0.95847071553549201 307.43410598836681 699.58976783232708 801.64682571974322  0.95847071553549301 314.34693527077718 699.59515447385263 801.73974528602116  0.95847071553549101 321.7873592213611 699.56093676549654 801.14948981675275  0.95847071553549401 328.91861171181432 699.44491751748672 799.14815778815046  0.95847071553549101 337.60876782787517 699.21745082743541 795.22435738430272  0.95847071553549401 347.85326161913207 698.85972954130227 789.05366519793324  0.95847071553549001 360.05380095558615 698.50972761325954 783.01613193967501  0.95847071553549401 371.94130091517167 698.38760741206033 780.90955847003102  0.95847071553549101 378.75441466678683 698.39185338465768 780.9828014976755  0.95847071553549301 381.83406785558435 698.39154019465366 780.97739897004874  0.95847071553549201 382.12385382368223 698.39151072442928 780.97689060868402  0.95847071553549201 382.41363979178072 698.39148125420604 780.97638224731929  0.95847071553549201 382.70342575987928 698.39145178398167 780.97587388595446  0.95847071553549201 
299.84954150842117 699.14430903945424 803.1262145175391  1.016611713785802 300.14502505955483 699.14408907762129 803.12242017591905  1.016611713785802 300.44050861068797 699.14386911578833 803.118625834299  1.016611713785802 300.73599216182112 699.14364915395549 803.11483149267906  1.016611713785802 302.9570376320425 699.14199577856073 803.08631076712231  1.0166117137858039 307.4080617640426 699.14182286010316 803.08332792371891  1.016611713785802 314.36511631026804 699.14735195067897 803.17870473616767  1.016611713785802 322.03410121491635 699.11238154004445 802.57546515253819  1.016611713785802 329.41477974122563 698.99215882228395 800.50162327079227  1.0166117137858039 338.29539735683119 698.75938876756732 796.48633982636841  1.016611713785802 348.58675457059201 698.39984798556293 790.2842613363315  1.0166117137858039 360.53433672528809 698.05821969248109 784.39117328099974  1.016611713785802 372.02773402941119 697.94022415827988 782.35575031713086  1.0166117137858039 378.74212568749562 697.94380531240188 782.41752522602087  1.016611713785802 381.83459966777514 697.94364380483046 782.41473922035266  1.016611713785802 382.12559203323184 697.94362860746082 782.41447706572035  1.016611713785802 382.41658439868854 697.94361341009017 782.41421491108713  1.016611713785802 382.70757676414519 697.94359821272053 782.41395275645471  1.016611713785802 
299.88204844043941 699.267049852632 805.24349354471997  1.016611713785802 300.17603490635668 699.26683570885893 805.23979956462301  1.016611713785802 300.47002137227395 699.26662156508507 805.23610558452503  1.016611713785802 300.76400783819082 699.26640742131121 805.23241160442728  1.016611713785802 302.9738002477082 699.26479777821123 805.20464526098078  1.0166117137858039 307.36885114595361 699.26451868296886 805.19983086799073  1.016611713785802 314.39248859008848 699.27026223626945 805.29890716252112  1.016611713785802 322.40558112368365 699.23415860234479 804.67611947704654  1.016611713785802 330.16178049145992 699.10760739328748 802.49311112047144  1.0166117137858039 339.32914548823021 698.86685291162007 798.34009631107688  1.016611713785802 349.6910574529918 698.50457280604758 792.09076448950964  1.0166117137858039 361.25780248528764 698.17555135423891 786.41514444613961  1.016611713785802 372.15786252894361 698.06376567066343 784.48684140544731  1.0166117137858039 378.72362413921917 698.06634591405998 784.53135060432328  1.016611713785802 381.83540033223187 698.06641277043707 784.53250387678133  1.016611713785802 382.12820897700925 698.06641906141795 784.53261239620076  1.016611713785802 382.4210176217872 698.06642535239905 784.53272091562019  1.016611713785802 382.71382626656521 698.06643164338016 784.53282943503962  1.016611713785802 
299.90363998555654 699.87801716721924 806.61912674631571  0.95847071553549201 300.19663206716916 699.87780688787871 806.61549942770228  0.95847071553549201 300.48962414878133 699.87759660853919 806.61187210908975  0.95847071553549201 300.78261623039401 699.87738632919968 806.60824479047608  0.95847071553549201 302.98493420437416 699.87580573368803 806.58097951785976  0.95847071553549201 307.3428069216294 699.87545611437656 806.57494858479197  0.95847071553549301 314.41066962957802 699.88134211673628 806.67648212549716  0.95847071553549101 322.65232311723435 699.84448578052422 806.04071032565355  0.95847071553549401 330.65794852086657 699.71373110172658 803.78519211594607  0.95847071553549101 340.01577501717992 699.46767325538508 799.54069426596902  0.95847071553549401 350.42455040444781 699.10357365395134 793.25997614073822  0.95847071553549001 361.73833825499122 698.78292583709128 787.72880130028591  0.95847071553549401 372.24429564318774 698.67526482052574 785.87164876537383  0.95847071553549101 378.71133515992841 698.67718024543842 785.90468984548943  0.95847071553549301 381.8359321444218 698.67739878424948 785.90845963990694  0.95847071553549201 382.12994718655796 698.67741934808487 785.90881436605935  0.95847071553549201 382.42396222869365 698.67743991192037 785.90916909221153  0.95847071553549201 382.71797727082992 698.67746047575577 785.90952381836291  0.95847071553549201 
299.91176671855959 701.31535047742364 807.06690168531463  1.016611713785802 300.20438452886862 701.31514165259887 807.06329945708194  1.016611713785802 300.49700233917707 701.3149328277741 807.05969722884925  1.016611713785802 300.78962014948564 701.31472400294933 807.05609500061769  1.016611713785802 302.98912485829038 701.3131543405101 807.02901832352916  1.0166117137858039 307.33300426710861 701.312778177003 807.02252950306217  1.016611713785802 314.41751269953158 701.31871779504604 807.12498791429186  1.016611713785802 322.74519309442348 701.2815781530087 806.48432908898531  1.016611713785802 330.8446987084177 701.14924135138722 804.20151926057076  1.0166117137858039 340.27421205002372 700.90118739830859 799.92258856935018  1.016611713785802 350.70062612504256 700.53640296598155 793.63005711123685  1.0166117137858039 361.91920469499274 700.21890685944277 788.1532492737673  1.016611713785802 372.27682776807814 700.11279830552928 786.32287671965105  1.0166117137858039 378.70670977286045 700.1144635027639 786.35160137226194  1.016611713785802 381.83613231053624 700.11473913256145 786.35635598621195  1.016611713785802 382.13060142250254 700.1147650684843 786.35680338087673  1.016611713785802 382.42507053446877 700.11479100440727 786.35725077554162  1.016611713785802 382.71953964643501 700.11481694033012 786.3576981702065  1.016611713785802 
299.91176671855715 703.43311528470053 806.94413271097312  1.016611713785802 300.20438452886617 703.43290645987474 806.94053048274054  1.016611713785802 300.49700233917463 703.43269763504986 806.93692825450796  1.016611713785802 300.78962014948371 703.43248881022521 806.93332602627527  1.016611713785802 302.98912485828987 703.43091914778597 806.90624934918776  1.0166117137858039 307.33300426711105 703.4305429842799 806.89976052871975  1.016611713785802 314.41751269953068 703.43648260232101 807.00221893995035  1.016611713785802 322.74519309441712 703.39934296028559 806.36156011464288  1.016611713785802 330.84469870840837 703.26700615866298 804.07875028622925  1.0166117137858039 340.27421205001292 703.01895220558538 799.79981959500867  1.016611713785802 350.70062612503568 702.65416777325731 793.5072881368925  1.0166117137858039 361.91920469499564 702.33667166671876 788.03048029941897  1.016611713785802 372.27682776808803 702.23056311280516 786.20010774529794  1.0166117137858039 378.7067097728625 702.23222831003966 786.22883239791076  1.016611713785802 381.83613231053624 702.23250393983733 786.23358701186055  1.016611713785802 382.13060142250254 702.23252987576029 786.23403440652544  1.016611713785802 382.42507053446832 702.23255581168326 786.23448180119021  1.016611713785802 382.7195396464345 702.2325817476061 786.23492919585419  1.016611713785802 
299.9036399855508 704.80907818831417 806.33326813638018  0.95847071553549201 300.19663206716393 704.80886790897466 806.32964081776663  0.95847071553549201 300.48962414877661 704.80865762963515 806.3260134991541  0.95847071553549201 300.78261623038981 704.80844735029552 806.32238618054066  0.95847071553549201 302.98493420437319 704.80686675478296 806.29512090792514  0.95847071553549201 307.34280692163463 704.80651713547354 806.2890899748553  0.95847071553549301 314.41066962957439 704.81240313783121 806.39062351556254  0.95847071553549101 322.65232311721968 704.77554680162029 805.75485171571995  0.95847071553549401 330.65794852084406 704.64479212282254 803.49933350601157  0.95847071553549101 340.01577501715434 704.39873427647979 799.25483565603645  0.95847071553549401 350.42455040443321 704.03463467504639 792.97411753080041  0.95847071553549001 361.73833825499543 703.71398685818826 787.44294269033048  0.95847071553549401 372.24429564321326 703.60632584161863 785.58579015541636  0.95847071553549101 378.71133515993205 703.60824126653426 785.6188312355298  0.95847071553549301 381.8359321444218 703.60845980534452 785.62260102994946  0.95847071553549201 382.12994718655744 703.6084803691798 785.62295575610062  0.95847071553549201 382.4239622286932 703.60850093301519 785.62331048225303  0.95847071553549201 382.71797727082884 703.60852149685047 785.62366520840533  0.95847071553549201 

0 3
0.25 3
0.5 3
0.75 3
1 3

-0.01 4
0 3
0.075166467361843403 1
0.1517989465808495 1
0.24460235833800451 1
0.35449054432360699 1
0.43419162383064352 1
0.59510193020995905 1
0.76994061231070499 1
0.893726628345484 1
1 3
1.01 4

Triangulations 0

TShapes 22
Ve
1e-07
300.789553753869 702.2 806.999739238759
0 0

0101101
*
Ed
 1e-07 1 1 0
1  1 0 0 6.28318530717959
0

0101000
+22 0 -22 0 *
Wi

0101000
+21 0 *
Ve
1e-07
300.723630830819 702.199999999467 802.000173845389
0 0

0101101
*
Ed
 1e-07 1 1 0
2  1 2 0 0 12.5044175761463
1  2 0 0 12.5044175761463
0

0101100
+19 0 -19 0 *
Wi

0101000
-18 0 *
Fa
0  1e-07 1 0

0101000
-20 0 -17 0 *
Ve
1e-07
381.835753607773 700.999999866146 785.299998064903
0 0

0101101
*
Ed
 1e-07 1 1 0
2  2 2 0 0 12.5044143064208
1  3 0 0 12.5044143064208
0

0101100
+15 0 -15 0 *
Wi

0101000
-14 0 *
Ve
1e-07
381.833869587328 701 780.300000212972
0 0

0101101
*
Ed
 1e-07 1 1 0
1  4 0 0 6.28318530717959
0

0101000
+12 0 -12 0 *
Wi

0101000
+11 0 *
Fa
0  1e-07 3 0

0101000
+13 0 +10 0 *
Wi

0101000
-21 0 *
Wi

0101000
-11 0 *
Fa
0  1e-07 4 0

0101000
-8 0 -7 0 *
Wi

0101000
+18 0 *
Wi

0101000
+14 0 *
Fa
0  1e-07 2 0

0101000
+5 0 +4 0 *
Sh

0101000
-16 0 +9 0 -6 0 +3 0 *
So

0100000
+2 0 *

+1 0 
0

