DBRep_DrawableShape

CASCADE Topology V1, (c) Matra-Datavision
Locations 4
1
              1               0               0               0 
              0               1               0               6 
              0               0               1               0 
2  1 -1 0
1
              1               0               0               6 
              0               1               0               0 
              0               0               1               0 
2  3 -1 0
Curve2ds 56
1 0 0 1 0 
1 0 0 1 0 
1 5 0 0 -1 
1 0 0 0 1 
1 5 0 0 -1 
1 0 0 0 1 
1 0 -10 1 0 
1 0 0 1 0 
1 0 0 0 -1 
1 0 0 0 1 
1 0 0 1 0 
1 0 10 1 0 
1 5 0 0 -1 
1 10 0 0 1 
1 5 0 0 -1 
1 10 0 0 1 
1 0 -10 1 0 
1 0 10 1 0 
1 0 0 0 -1 
1 10 0 0 1 
1 0 0 0 1 
1 0 0 1 0 
1 5 0 0 1 
1 0 0 1 0 
1 5 0 0 1 
1 0 0 1 0 
1 0 0 0 1 
1 0 10 1 0 
1 5 0 0 1 
1 0 10 1 0 
1 5 0 0 1 
1 0 10 1 0 
1 0 5 1 0 
1 0 5 1 0 
1 4 4 0 1 
1 0 0 0 1 
1 4 4 1 0 
1 0 0 1 0 
1 5 0 0 1 
1 5 0 0 1 
1 5 6 0 1 
1 5 6 0 1 
1 4 6 1 0 
1 0 2 1 0 
1 4 4 0 1 
1 0 0 0 1 
1 4 4 1 0 
1 0 0 1 0 
1 6 4 0 1 
1 2 0 0 1 
1 6 5 1 0 
1 6 5 1 0 
1 6 4 0 1 
1 2 0 0 1 
1 4 6 1 0 
1 0 2 1 0 
Curves 28
1 0 0 0 0 0 1 
1 0 0 5 -0 1 0 
1 0 0 5 -0 1 0 
1 0 10 0 0 0 1 
1 0 0 0 -0 1 0 
1 10 0 0 0 0 1 
1 10 0 5 -0 1 0 
1 10 0 5 -0 1 0 
1 10 10 0 0 0 1 
1 10 0 0 -0 1 0 
1 0 0 0 1 0 -0 
1 0 0 5 1 0 -0 
1 0 0 5 1 0 -0 
1 0 10 0 1 0 -0 
1 0 10 5 1 0 -0 
1 0 10 5 1 0 -0 
1 0 5 5 1 0 0 
1 4 4 5 -0 1 0 
1 4 4 5 1 0 -0 
1 5 0 5 0 1 0 
1 5 0 5 0 1 0 
1 4 6 5 1 0 -0 
1 4 4 5 -0 1 0 
1 4 4 5 1 0 -0 
1 6 4 5 -0 1 0 
1 0 5 5 1 0 0 
1 6 4 5 -0 1 0 
1 4 6 5 1 0 -0 
Polygon3D 0
PolygonOnTriangulations 0
Surfaces 10
1 0 0 0 1 0 -0 0 0 1 0 -1 0 
1 0 0 0 -0 1 0 0 0 1 1 0 -0 
1 0 0 5 0 0 1 1 0 -0 -0 1 0 
1 0 0 5 0 0 1 1 0 -0 -0 1 0 
1 0 10 0 -0 1 0 0 0 1 1 0 -0 
1 0 0 0 0 0 1 1 0 -0 -0 1 0 
1 10 0 0 1 0 -0 0 0 1 0 -1 0 
1 0 0 5 0 0 1 1 0 -0 -0 1 0 
1 0 0 5 0 0 1 1 0 -0 -0 1 0 
1 4 4 5 0 0 1 1 0 -0 -0 1 0 
Triangulations 0

TShapes 70
Ve
1e-07
0 0 5
0 0

0101101
*
Ve
1e-07
0 0 0
0 0

0101101
*
Ed
 1e-07 1 1 0
1  1 0 0 5
2  1 1 0 0 5
2  2 2 0 0 5
0

0101000
-70 0 +69 0 *
Ve
1e-07
0 5 5
0 0

0101101
*
Ed
 1e-07 1 1 0
1  2 0 0 5
2  3 1 0 0 5
2  4 3 0 0 5
0

0101000
+70 0 -67 0 *
Ve
1e-07
0 10 5
0 0

0101101
*
Ed
 1e-07 1 1 0
1  3 0 5 10
2  5 1 0 5 10
2  6 4 0 5 10
0

0101000
+67 0 -65 0 *
Ve
1e-07
0 10 0
0 0

0101101
*
Ed
 1e-07 1 1 0
1  4 0 0 5
2  7 1 0 0 5
2  8 5 0 0 5
0

0101000
-65 0 +63 0 *
Ed
 1e-07 1 1 0
1  5 0 0 10
2  9 1 0 0 10
2  10 6 0 0 10
0

0101000
-63 0 +69 0 *
Wi

0101100
-68 0 -66 0 -64 0 +62 0 +61 0 *
Fa
0  1e-07 1 0

0111000
+60 0 *
Ve
1e-07
10 0 5
0 0

0101101
*
Ve
1e-07
10 0 0
0 0

0101101
*
Ed
 1e-07 1 1 0
1  6 0 0 5
2  11 7 0 0 5
2  12 2 0 0 5
0

0101000
-58 0 +57 0 *
Ve
1e-07
10 5 5
0 0

0101101
*
Ed
 1e-07 1 1 0
1  7 0 0 5
2  13 7 0 0 5
2  14 8 0 0 5
0

0101000
+58 0 -55 0 *
Ve
1e-07
10 10 5
0 0

0101101
*
Ed
 1e-07 1 1 0
1  8 0 5 10
2  15 7 0 5 10
2  16 9 0 5 10
0

0101000
+55 0 -53 0 *
Ve
1e-07
10 10 0
0 0

0101101
*
Ed
 1e-07 1 1 0
1  9 0 0 5
2  17 7 0 0 5
2  18 5 0 0 5
0

0101000
-53 0 +51 0 *
Ed
 1e-07 1 1 0
1  10 0 0 10
2  19 7 0 0 10
2  20 6 0 0 10
0

0101000
-51 0 +57 0 *
Wi

0101100
-56 0 -54 0 -52 0 +50 0 +49 0 *
Fa
0  1e-07 7 0

0111000
+48 0 *
Ed
 1e-07 1 1 0
1  11 0 0 10
2  21 2 0 0 10
2  22 6 0 0 10
0

0101000
-57 0 +69 0 *
Ve
1e-07
5 0 5
0 0

0101101
*
Ed
 1e-07 1 1 0
1  12 0 0 5
2  23 2 0 0 5
2  24 3 0 0 5
0

0101000
+70 0 -45 0 *
Ed
 1e-07 1 1 0
1  13 0 5 10
2  25 2 0 5 10
2  26 8 0 5 10
0

0101000
+45 0 -58 0 *
Wi

0101100
-46 0 -56 0 +44 0 +43 0 +68 0 *
Fa
0  1e-07 2 0

0111000
+42 0 *
Ed
 1e-07 1 1 0
1  14 0 0 10
2  27 5 0 0 10
2  28 6 0 0 10
0

0101000
-51 0 +63 0 *
Ve
1e-07
5 10 5
0 0

0101101
*
Ed
 1e-07 1 1 0
1  15 0 0 5
2  29 5 0 0 5
2  30 4 0 0 5
0

0101000
+65 0 -39 0 *
Ed
 1e-07 1 1 0
1  16 0 5 10
2  31 5 0 5 10
2  32 9 0 5 10
0

0101000
+39 0 -53 0 *
Wi

0101100
-40 0 -50 0 +38 0 +37 0 +62 0 *
Fa
0  1e-07 5 0

0111000
+36 0 *
Wi

0101100
-61 0 -40 0 +49 0 +46 0 *
Fa
0  1e-07 6 0

0111000
+34 0 *
Ve
1e-07
4 5 5
0 0

0101101
*
Ed
 1e-07 1 1 0
1  17 0 0 4
2  33 3 0 0 4
2  34 4 0 0 4
0

0101000
+67 0 -32 0 *
Ve
1e-07
4 4 5
0 0

0101101
*
Ed
 1e-07 1 1 0
1  18 0 0 1
2  35 3 0 0 1
2  36 10 0 0 1
0

0101000
+30 0 -32 0 *
Ve
1e-07
5 4 5
0 0

0101101
*
Ed
 1e-07 1 1 0
1  19 0 0 1
2  37 3 0 0 1
2  38 10 0 0 1
0

0101000
+30 0 -28 0 *
Ed
 1e-07 1 1 0
1  20 0 0 4
2  39 3 0 0 4
2  40 8 0 0 4
0

0101000
+45 0 -28 0 *
Wi

0101100
-66 0 -31 0 +29 0 -27 0 +26 0 +44 0 *
Fa
0  1e-07 3 0

0111000
+25 0 *
Ve
1e-07
5 6 5
0 0

0101101
*
Ed
 1e-07 1 1 0
1  21 0 0 4
2  41 4 2 0 4
2  42 9 2 0 4
0

0101000
+23 2 -39 2 *
Ve
1e-07
4 6 5
0 0

0101101
*
Ed
 1e-07 1 1 0
1  22 0 0 1
2  43 4 0 0 1
2  44 10 0 0 1
0

0101000
+21 0 -23 0 *
Ed
 1e-07 1 1 0
1  23 0 1 2
2  45 4 0 1 2
2  46 10 0 1 2
0

0101000
+32 0 -21 0 *
Wi

0101100
-64 0 -38 0 +22 1 +20 0 +19 0 +31 0 *
Fa
0  1e-07 4 0

0111000
+18 0 *
Ve
1e-07
6 4 5
0 0

0101101
*
Ed
 1e-07 1 1 0
1  24 0 1 2
2  47 8 0 1 2
2  48 10 0 1 2
0

0101000
+28 0 -16 0 *
Ve
1e-07
6 5 5
0 0

0101101
*
Ed
 1e-07 1 1 0
1  25 0 0 1
2  49 8 0 0 1
2  50 10 0 0 1
0

0101000
+16 0 -14 0 *
Ed
 1e-07 1 1 0
1  26 0 0 4
2  51 8 4 0 4
2  52 9 4 0 4
0

0101000
+14 4 -55 4 *
Wi

0101100
-26 0 -15 0 -13 0 -12 3 +54 0 +43 0 *
Fa
0  1e-07 8 0

0111000
+11 0 *
Ve
1e-07
6 6 5
0 0

0101101
*
Ed
 1e-07 1 1 0
1  27 0 1 2
2  53 9 0 1 2
2  54 10 0 1 2
0

0101000
+14 0 -9 0 *
Ed
 1e-07 1 1 0
1  28 0 1 2
2  55 9 0 1 2
2  56 10 0 1 2
0

0101000
+23 0 -9 0 *
Wi

0101100
-37 0 +52 0 +12 3 -8 0 +7 0 -22 1 *
Fa
0  1e-07 9 0

0111000
+6 0 *
Wi

0101100
-29 0 -19 0 -20 0 -7 0 +13 0 +8 0 +27 0 +15 0 *
Fa
0  1e-07 10 0

0111000
+4 0 *
Sh

0101100
-59 0 +47 0 -41 0 +35 0 -33 0 +24 0 +17 0 +10 0 +5 0 +3 0 
*
So

1100000
+2 0 *

+1 0 
0

