DBRep_DrawableShape

CASCADE Topology V1, (c) Matra-Datavision
Locations 2
1
              1               0               0               0 
              0               1               0              10 
              0               0               1               0 
2  1 -1 0
Curve2ds 108
1 0 0 0 -1 
1 1 0 0 -1 
1 10 0 0 -1 
1 0 0 0 -1 
1 0 0 1 0 
1 1.763157894736842 -5 0 1 
1 0 -10 1 0 
1 1.763157894736842 -5 0 1 
1 1 0 0 -1 
1 0 0 0 -1 
1 0 0 1 0 
1 1.763157894736842 5 -1 0 
1 0 -10 1 0 
1 1.763157894736842 5 -1 0 
1 2 0 0 -1 
1 0 0 0 -1 
1 0 0 1 0 
1 0.76315789473684204 5 0 -1 
1 0 -10 1 0 
1 0.76315789473684204 5 0 -1 
1 4 0 0 -1 
1 0 0 0 -1 
1 0 0 1 0 
1 0.76315789473684204 3 -1 0 
1 0 -10 1 0 
1 0.76315789473684204 3 -1 0 
1 1 0 0 -1 
1 0 -0 0 -1 
1 0 0 1 0 
1 -3.236842105263158 3 0 -1 
1 0 -10 1 0 
1 -3.236842105263158 3 0 -1 
1 0 -0 1 0 
1 -3.236842105263158 2 1 0 
1 2 0 0 -1 
1 2 0 0 -1 
1 0 -10 1 0 
1 -3.236842105263158 2 1 0 
1 0 -0 1 0 
1 -3.236842105263158 2 1 0 
1 4 0 0 -1 
1 0 0 0 -1 
1 4 0 0 -1 
1 0 0 0 -1 
1 4 0 0 -1 
1 0 0 0 -1 
1 4 0 0 -1 
1 0 0 0 -1 
1 4 0 0 -1 
1 0 0 0 -1 
1 0 -10 1 0 
1 -3.236842105263158 2 1 0 
1 0 0 1 0 
1 0.76315789473684204 2 0 -1 
1 4 0 0 -1 
1 0 0 0 -1 
1 4 -2 -1 0 
1 4 -2 -1 0 
1 4 0 0 -1 
1 0 0 0 -1 
1 4 -4 -1 0 
1 4 -4 -1 0 
1 4 0 0 -1 
1 0 0 0 -1 
1 4 -6 -1 0 
1 4 -6 -1 0 
1 4 0 0 -1 
1 0 0 0 -1 
1 4 -8 -1 0 
1 4 -8 -1 0 
1 4 0 0 -1 
1 0 0 0 -1 
1 0 -10 1 0 
1 0.76315789473684204 2 0 -1 
1 0 0 1 0 
1 0.76315789473684204 -2 -1 0 
1 2 0 0 -1 
1 2 0 0 -1 
1 0 -10 1 0 
1 0.76315789473684204 -2 -1 0 
1 0 0 1 0 
1 0.76315789473684204 -2 -1 0 
1 4 0 0 -1 
1 0 0 0 -1 
1 0 -10 1 0 
1 0.76315789473684204 -2 -1 0 
1 1 0 0 -1 
1 0 -0 0 -1 
1 0 0 1 0 
1 -3.236842105263158 -2 0 -1 
1 0 -10 1 0 
1 -3.236842105263158 -2 0 -1 
1 4 0 0 -1 
1 0 0 0 -1 
1 0 -0 1 0 
1 -3.236842105263158 -3 1 0 
1 0 -10 1 0 
1 -3.236842105263158 -3 1 0 
1 2 0 0 -1 
1 0 -0 0 -1 
1 0 0 1 0 
1 0.76315789473684204 -3 0 -1 
1 0 -10 1 0 
1 0.76315789473684204 -3 0 -1 
1 0 -0 1 0 
1 0.76315789473684204 -5 1 0 
1 0 -10 1 0 
1 0.76315789473684204 -5 1 0 
Curves 54
1 0 0 0 0 1 0 
1 10 0 0 0 1 0 
1 0 0 0 1 0 0 
1 0 0 0 1 0 0 
1 10 0 1 0 1 0 
1 10 0 0 0 0 1 
1 10 0 0 0 0 1 
1 8 0 1 0 1 0 
1 10 0 1 -1 0 0 
1 10 0 1 -1 0 0 
1 8 0 5 0 1 0 
1 8 0 1 0 0 1 
1 8 0 1 0 0 1 
1 7 0 5 0 1 0 
1 8 0 5 -1 0 0 
1 8 0 5 -1 0 0 
1 7 0 5 0 0 -1 
1 7 0 3 0 1 0 
1 7 0 5 0 0 -1 
1 7 0 5 0 0 -1 
1 7 0 1 0 1 0 
1 7 0 1 0 1 0 
1 7 0 1 0 1 0 
1 7 0 1 0 1 0 
1 7 0 1 0 1 0 
1 7 0 5 0 0 -1 
1 7 0 1 -1 0 0 
1 3 0 1 0 1 0 
1 3 2 1 1 0 0 
1 3 0 1 0 1 0 
1 3 4 1 1 0 0 
1 3 0 1 0 1 0 
1 3 6 1 1 0 0 
1 3 0 1 0 1 0 
1 3 8 1 1 0 0 
1 3 0 1 0 1 0 
1 7 0 1 -1 0 0 
1 3 0 1 0 0 1 
1 3 0 3 0 1 0 
1 3 0 1 0 0 1 
1 3 0 1 0 0 1 
1 3 0 5 0 1 0 
1 3 0 1 0 0 1 
1 2 0 5 0 1 0 
1 3 0 5 -1 0 0 
1 3 0 5 -1 0 0 
1 2 0 1 0 1 0 
1 2 0 5 0 0 -1 
1 2 0 5 0 0 -1 
1 0 0 1 0 1 0 
1 2 0 1 -1 0 0 
1 2 0 1 -1 0 0 
1 0 0 1 0 0 -1 
1 0 0 1 0 0 -1 
Polygon3D 0
PolygonOnTriangulations 0
Surfaces 20
1 0 0 0 0 0 -1 1 0 0 0 -1 0 
1 0 0 1 -1 0 0 0 0 -1 -0 -1 -0 
1 10 0 0 1 0 0 0 0 1 0 -1 0 
1 5 0 1.763157894736842 -0 -1 -0 0 0 -1 1 -0 0 
1 5 0 1.763157894736842 -0 -1 -0 0 0 -1 1 -0 0 
1 10 0 1 0 -0 1 -1 0 0 -0 -1 0 
1 8 0 1 1 0 0 0 0 1 0 -1 0 
1 8 0 5 0 -0 1 -1 0 0 -0 -1 0 
1 7 0 5 -1 0 0 0 0 -1 -0 -1 -0 
1 7 0 5 -1 0 0 0 0 -1 -0 -1 -0 
1 7 0 1 0 -0 1 -1 0 0 -0 -1 0 
1 7 0 1 0 -0 1 -1 0 0 -0 -1 0 
1 7 0 1 0 -0 1 -1 0 0 -0 -1 0 
1 7 0 1 0 -0 1 -1 0 0 -0 -1 0 
1 7 0 1 0 -0 1 -1 0 0 -0 -1 0 
1 3 0 1 1 0 0 0 0 1 0 -1 0 
1 3 0 1 1 0 0 0 0 1 0 -1 0 
1 3 0 5 0 -0 1 -1 0 0 -0 -1 0 
1 2 0 5 -1 0 0 0 0 -1 -0 -1 -0 
1 2 0 1 0 -0 1 -1 0 0 -0 -1 0 
Triangulations 0

TShapes 132
Ve
1e-07
0 0 0
0 0

0101101
*
Ve
1e-07
0 10 0
0 0

0101101
*
Ed
 1e-07 1 1 0
1  1 0 0 10
2  1 1 0 0 10
2  2 2 0 0 10
0

0101000
+132 0 -131 0 *
Ve
1e-07
10 0 0
0 0

0101101
*
Ve
1e-07
10 10 0
0 0

0101101
*
Ed
 1e-07 1 1 0
1  2 0 0 10
2  3 1 0 0 10
2  4 3 0 0 10
0

0101000
+129 0 -128 0 *
Ed
 1e-07 1 1 0
1  3 0 0 10
2  5 1 0 0 10
2  6 4 0 0 10
0

0101000
+132 0 -129 0 *
Ed
 1e-07 1 1 0
1  4 0 0 10
2  7 1 2 0 10
2  8 5 0 0 10
0

0101000
+131 2 -128 2 *
Wi

0101100
+130 0 -127 0 -126 0 +125 1 *
Fa
0  1e-07 1 0

0111000
+124 0 *
Ve
1e-07
10 0 1
0 0

0101101
*
Ve
1e-07
10 10 1
0 0

0101101
*
Ed
 1e-07 1 1 0
1  5 0 0 10
2  9 3 0 0 10
2  10 6 0 0 10
0

0101000
+122 0 -121 0 *
Ed
 1e-07 1 1 0
1  6 0 0 1
2  11 3 0 0 1
2  12 4 0 0 1
0

0101000
+129 0 -122 0 *
Ed
 1e-07 1 1 0
1  7 0 0 1
2  13 3 2 0 1
2  14 5 0 0 1
0

0101000
+128 2 -121 2 *
Wi

0101100
+127 0 -120 0 -119 0 +118 1 *
Fa
0  1e-07 3 0

0111000
+117 0 *
Ve
1e-07
8 0 1
0 0

0101101
*
Ve
1e-07
8 10 1
0 0

0101101
*
Ed
 1e-07 1 1 0
1  8 0 0 10
2  15 6 0 0 10
2  16 7 0 0 10
0

0101000
+115 0 -114 0 *
Ed
 1e-07 1 1 0
1  9 0 0 2
2  17 6 0 0 2
2  18 4 0 0 2
0

0101000
+122 0 -115 0 *
Ed
 1e-07 1 1 0
1  10 0 0 2
2  19 6 2 0 2
2  20 5 0 0 2
0

0101000
+121 2 -114 2 *
Wi

0101100
+120 0 -113 0 -112 0 +111 1 *
Fa
0  1e-07 6 0

0111000
+110 0 *
Ve
1e-07
8 0 5
0 0

0101101
*
Ve
1e-07
8 10 5
0 0

0101101
*
Ed
 1e-07 1 1 0
1  11 0 0 10
2  21 7 0 0 10
2  22 8 0 0 10
0

0101000
+108 0 -107 0 *
Ed
 1e-07 1 1 0
1  12 0 0 4
2  23 7 0 0 4
2  24 4 0 0 4
0

0101000
+115 0 -108 0 *
Ed
 1e-07 1 1 0
1  13 0 0 4
2  25 7 2 0 4
2  26 5 0 0 4
0

0101000
+114 2 -107 2 *
Wi

0101100
+113 0 -106 0 -105 0 +104 1 *
Fa
0  1e-07 7 0

0111000
+103 0 *
Ve
1e-07
7 0 5
0 0

0101101
*
Ve
1e-07
7 10 5
0 0

0101101
*
Ed
 1e-07 1 1 0
1  14 0 0 10
2  27 8 0 0 10
2  28 9 0 0 10
0

0101000
+101 0 -100 0 *
Ed
 1e-07 1 1 0
1  15 0 0 1
2  29 8 0 0 1
2  30 4 0 0 1
0

0101000
+108 0 -101 0 *
Ed
 1e-07 1 1 0
1  16 0 0 1
2  31 8 2 0 1
2  32 5 0 0 1
0

0101000
+107 2 -100 2 *
Wi

0101100
+106 0 -99 0 -98 0 +97 1 *
Fa
0  1e-07 8 0

0111000
+96 0 *
Ve
1e-07
7 0 3
0 0

0101101
*
Ed
 1e-07 1 1 0
1  17 0 0 2
2  33 9 0 0 2
2  34 4 0 0 2
0

0101000
+101 0 -94 0 *
Ve
1e-07
7 10 3
0 0

0101101
*
Ed
 1e-07 1 1 0
1  18 0 0 10
2  35 9 0 0 10
2  36 10 0 0 10
0

0101000
+94 0 -92 0 *
Ed
 1e-07 1 1 0
1  19 0 0 2
2  37 9 2 0 2
2  38 5 0 0 2
0

0101000
+100 2 -92 2 *
Wi

0101100
-93 0 -91 0 +90 1 +99 0 *
Fa
0  1e-07 9 0

0111000
+89 0 *
Ve
1e-07
7 0 1
0 0

0101101
*
Ed
 1e-07 1 1 0
1  20 0 2 4
2  39 10 0 2 4
2  40 4 0 2 4
0

0101000
+94 0 -87 0 *
Ve
1e-07
7 2 1
0 0

0101101
*
Ed
 1e-07 1 1 0
1  21 0 0 2
2  41 10 0 0 2
2  42 11 0 0 2
0

0101000
+87 0 -85 0 *
Ve
1e-07
7 4 1
0 0

0101101
*
Ed
 1e-07 1 1 0
1  22 0 2 4
2  43 10 0 2 4
2  44 12 0 2 4
0

0101000
+85 0 -83 0 *
Ve
1e-07
7 6 1
0 0

0101101
*
Ed
 1e-07 1 1 0
1  23 0 4 6
2  45 10 0 4 6
2  46 13 0 4 6
0

0101000
+83 0 -81 0 *
Ve
1e-07
7 8 1
0 0

0101101
*
Ed
 1e-07 1 1 0
1  24 0 6 8
2  47 10 0 6 8
2  48 14 0 6 8
0

0101000
+81 0 -79 0 *
Ve
1e-07
7 10 1
0 0

0101101
*
Ed
 1e-07 1 1 0
1  25 0 8 10
2  49 10 0 8 10
2  50 15 0 8 10
0

0101000
+79 0 -77 0 *
Ed
 1e-07 1 1 0
1  26 0 2 4
2  51 10 2 2 4
2  52 5 0 2 4
0

0101000
+92 2 -77 2 *
Wi

0101100
-86 0 -84 0 -82 0 -80 0 -78 0 -76 0 +75 1 +91 0 *
Fa
0  1e-07 10 0

0111000
+74 0 *
Ve
1e-07
3 0 1
0 0

0101101
*
Ed
 1e-07 1 1 0
1  27 0 0 4
2  53 11 0 0 4
2  54 4 0 0 4
0

0101000
+87 0 -72 0 *
Ve
1e-07
3 2 1
0 0

0101101
*
Ed
 1e-07 1 1 0
1  28 0 0 2
2  55 11 0 0 2
2  56 16 0 0 2
0

0101000
+72 0 -70 0 *
Ed
 1e-07 1 1 0
1  29 0 0 4
2  57 11 0 0 4
2  58 12 0 0 4
0

0101000
+70 0 -85 0 *
Wi

0101100
-71 0 -69 0 -68 0 +84 0 *
Fa
0  1e-07 11 0

0111000
+67 0 *
Ve
1e-07
3 4 1
0 0

0101101
*
Ed
 1e-07 1 1 0
1  30 0 2 4
2  59 12 0 2 4
2  60 16 0 2 4
0

0101000
+70 0 -65 0 *
Ed
 1e-07 1 1 0
1  31 0 0 4
2  61 12 0 0 4
2  62 13 0 0 4
0

0101000
+65 0 -83 0 *
Wi

0101100
+68 0 -64 0 -63 0 +82 0 *
Fa
0  1e-07 12 0

0111000
+62 0 *
Ve
1e-07
3 6 1
0 0

0101101
*
Ed
 1e-07 1 1 0
1  32 0 4 6
2  63 13 0 4 6
2  64 16 0 4 6
0

0101000
+65 0 -60 0 *
Ed
 1e-07 1 1 0
1  33 0 0 4
2  65 13 0 0 4
2  66 14 0 0 4
0

0101000
+60 0 -81 0 *
Wi

0101100
+63 0 -59 0 -58 0 +80 0 *
Fa
0  1e-07 13 0

0111000
+57 0 *
Ve
1e-07
3 8 1
0 0

0101101
*
Ed
 1e-07 1 1 0
1  34 0 6 8
2  67 14 0 6 8
2  68 16 0 6 8
0

0101000
+60 0 -55 0 *
Ed
 1e-07 1 1 0
1  35 0 0 4
2  69 14 0 0 4
2  70 15 0 0 4
0

0101000
+55 0 -79 0 *
Wi

0101100
+58 0 -54 0 -53 0 +78 0 *
Fa
0  1e-07 14 0

0111000
+52 0 *
Ve
1e-07
3 10 1
0 0

0101101
*
Ed
 1e-07 1 1 0
1  36 0 8 10
2  71 15 0 8 10
2  72 16 0 8 10
0

0101000
+55 0 -50 0 *
Ed
 1e-07 1 1 0
1  37 0 0 4
2  73 15 2 0 4
2  74 5 0 0 4
0

0101000
+77 2 -50 2 *
Wi

0101100
+53 0 -49 0 +48 1 +76 0 *
Fa
0  1e-07 15 0

0111000
+47 0 *
Ve
1e-07
3 0 3
0 0

0101101
*
Ed
 1e-07 1 1 0
1  38 0 0 2
2  75 16 0 0 2
2  76 4 0 0 2
0

0101000
+72 0 -45 0 *
Ve
1e-07
3 10 3
0 0

0101101
*
Ed
 1e-07 1 1 0
1  39 0 0 10
2  77 16 0 0 10
2  78 17 0 0 10
0

0101000
+45 0 -43 0 *
Ed
 1e-07 1 1 0
1  40 0 0 2
2  79 16 2 0 2
2  80 5 0 0 2
0

0101000
+50 2 -43 2 *
Wi

0101100
-44 0 -42 0 +41 1 +49 0 +54 0 +59 0 +64 0 +69 0 *
Fa
0  1e-07 16 0

0111000
+40 0 *
Ve
1e-07
3 0 5
0 0

0101101
*
Ed
 1e-07 1 1 0
1  41 0 2 4
2  81 17 0 2 4
2  82 4 0 2 4
0

0101000
+45 0 -38 0 *
Ve
1e-07
3 10 5
0 0

0101101
*
Ed
 1e-07 1 1 0
1  42 0 0 10
2  83 17 0 0 10
2  84 18 0 0 10
0

0101000
+38 0 -36 0 *
Ed
 1e-07 1 1 0
1  43 0 2 4
2  85 17 2 2 4
2  86 5 0 2 4
0

0101000
+43 2 -36 2 *
Wi

0101100
-37 0 -35 0 +34 1 +42 0 *
Fa
0  1e-07 17 0

0111000
+33 0 *
Ve
1e-07
2 0 5
0 0

0101101
*
Ve
1e-07
2 10 5
0 0

0101101
*
Ed
 1e-07 1 1 0
1  44 0 0 10
2  87 18 0 0 10
2  88 19 0 0 10
0

0101000
+31 0 -30 0 *
Ed
 1e-07 1 1 0
1  45 0 0 1
2  89 18 0 0 1
2  90 4 0 0 1
0

0101000
+38 0 -31 0 *
Ed
 1e-07 1 1 0
1  46 0 0 1
2  91 18 2 0 1
2  92 5 0 0 1
0

0101000
+36 2 -30 2 *
Wi

0101100
+35 0 -29 0 -28 0 +27 1 *
Fa
0  1e-07 18 0

0111000
+26 0 *
Ve
1e-07
2 0 1
0 0

0101101
*
Ve
1e-07
2 10 1
0 0

0101101
*
Ed
 1e-07 1 1 0
1  47 0 0 10
2  93 19 0 0 10
2  94 20 0 0 10
0

0101000
+24 0 -23 0 *
Ed
 1e-07 1 1 0
1  48 0 0 4
2  95 19 0 0 4
2  96 4 0 0 4
0

0101000
+31 0 -24 0 *
Ed
 1e-07 1 1 0
1  49 0 0 4
2  97 19 2 0 4
2  98 5 0 0 4
0

0101000
+30 2 -23 2 *
Wi

0101100
+29 0 -22 0 -21 0 +20 1 *
Fa
0  1e-07 19 0

0111000
+19 0 *
Ve
1e-07
0 0 1
0 0

0101101
*
Ve
1e-07
0 10 1
0 0

0101101
*
Ed
 1e-07 1 1 0
1  50 0 0 10
2  99 20 0 0 10
2  100 2 0 0 10
0

0101000
+17 0 -16 0 *
Ed
 1e-07 1 1 0
1  51 0 0 2
2  101 20 0 0 2
2  102 4 0 0 2
0

0101000
+24 0 -17 0 *
Ed
 1e-07 1 1 0
1  52 0 0 2
2  103 20 2 0 2
2  104 5 0 0 2
0

0101000
+23 2 -16 2 *
Wi

0101100
+22 0 -15 0 -14 0 +13 1 *
Fa
0  1e-07 20 0

0111000
+12 0 *
Ed
 1e-07 1 1 0
1  53 0 0 1
2  105 2 0 0 1
2  106 4 0 0 1
0

0101000
+17 0 -132 0 *
Ed
 1e-07 1 1 0
1  54 0 0 1
2  107 2 2 0 1
2  108 5 0 0 1
0

0101000
+16 2 -131 2 *
Wi

0101100
+15 0 -130 0 -10 0 +9 1 *
Fa
0  1e-07 2 0

0111000
+8 0 *
Wi

0101100
+126 0 +119 0 +112 0 +105 0 +98 0 +93 0 +86 0 +71 0 +44 0 +37 0 
+28 0 +21 0 +14 0 +10 0 *
Fa
0  1e-07 4 0

0111000
+6 0 *
Wi

0101100
+125 1 +118 1 +111 1 +104 1 +97 1 +90 1 +75 1 +48 1 +41 1 +34 1 
+27 1 +20 1 +13 1 +9 1 *
Fa
0  1e-07 5 1

0111000
+4 0 *
Sh

0101100
+123 0 +116 0 +109 0 +102 0 +95 0 +88 0 +73 0 +66 0 +61 0 +56 0 
+51 0 +46 0 +39 0 +32 0 +25 0 +18 0 +11 0 +7 0 +5 0 -3 0 
*
So

1100000
+2 0 *

+1 0 
0

