DBRep_DrawableShape

CASCADE Topology V1, (c) Matra-Datavision
Locations 1
1
              1               0               0               0 
              0               1               0              10 
              0               0               1               0 
Curve2ds 152
8 -9999997.5 9999997.5
1 2.5 0 -1 0 
8 -9999997.5 9999997.5
1 1.763157894736842 -2.5 0 -1 
8 -10000000 10000000
1 10 0 0 1 
8 -10000000 10000000
1 0 0 0 1 
8 -9999997.5 9999997.5
1 2.5 -10 -1 0 
8 -9999997.5 9999997.5
1 1.763157894736842 -2.5 0 -1 
8 -10000000 10000000
1 0 0 0 -1 
8 -10000000 10000000
1 1 0 0 -1 
8 -9999999.6184210535 9999999.6184210535
1 0.38157894736842102 -5 -1 0 
8 -9999999.6184210535 9999999.6184210535
1 -0.38157894736842102 -0 -1 0 
8 -9999998.5 9999998.5
1 0.76315789473684204 -1.5 0 1 
8 -9999998.5 9999998.5
1 -1.5 0 -1 -0 
8 -9999998.3815789465 9999998.3815789465
1 -1.6184210526315792 -3 -1 0 
8 -9999998.3815789465 9999998.3815789465
1 1.6184210526315788 0 -1 0 
8 -9999999 9999999
1 -3.236842105263158 -1 0 1 
8 -9999999 9999999
1 -1 0 -1 -0 
8 -9999999.6184210535 9999999.6184210535
1 0.38157894736842102 -2 1 0 
8 -9999999.6184210535 9999999.6184210535
1 0.38157894736842102 0 -1 0 
8 -9999999 9999999
1 -1.236842105263158 -1 0 1 
8 -9999999 9999999
1 0 -1 0 -1 
8 -9999999.6184210535 9999999.6184210535
1 0.38157894736842102 -1 1 0 
8 -9999999.6184210535 9999999.6184210535
1 0.38157894736842102 0 -1 0 
8 -9999999 9999999
1 0.76315789473684204 1 0 1 
8 -9999999 9999999
1 1 0 -1 -0 
8 -9999998.3815789465 9999998.3815789465
1 -1.6184210526315792 1 -1 0 
8 -9999998.3815789465 9999998.3815789465
1 1.6184210526315788 0 -1 0 
8 -9999999 9999999
1 -1.236842105263158 1 0 -1 
8 -9999999 9999999
1 0 -1 0 -1 
8 -9999998.3815789465 9999998.3815789465
1 -1.6184210526315792 2 -1 0 
8 -9999998.3815789465 9999998.3815789465
1 1.6184210526315788 0 -1 0 
8 -9999998.5 9999998.5
1 -3.236842105263158 1.5 0 1 
8 -9999998.5 9999998.5
1 1.5 0 -1 -0 
8 -9999999.6184210535 9999999.6184210535
1 0.38157894736842102 3 1 0 
8 -9999999.6184210535 9999999.6184210535
1 0.38157894736842102 0 -1 0 
8 -9999997.5 9999997.5
1 0.76315789473684204 2.5 0 1 
8 -9999997.5 9999997.5
1 2.5 0 -1 -0 
8 -9999999.1184210535 9999999.1184210535
1 0.88157894736842102 5 1 0 
8 -9999999.1184210535 9999999.1184210535
1 0.88157894736842102 0 -1 0 
8 -10000000 10000000
1 1 0 0 1 
8 -10000000 10000000
1 0 0 -0 1 
8 -9999999.1184210535 9999999.1184210535
1 0.88157894736842102 -10 -1 0 
8 -9999999.1184210535 9999999.1184210535
1 0.88157894736842102 5 1 0 
8 -9999999.6184210535 9999999.6184210535
1 0.38157894736842102 -5 -1 0 
8 -9999999.6184210535 9999999.6184210535
1 -0.38157894736842102 -10 -1 0 
8 -9999998.5 9999998.5
1 0.76315789473684204 -1.5 0 1 
8 -9999998.5 9999998.5
1 -1.5 -10 -1 -0 
8 -9999998.3815789465 9999998.3815789465
1 -1.6184210526315792 -3 -1 0 
8 -9999998.3815789465 9999998.3815789465
1 1.6184210526315788 -10 -1 0 
8 -9999999 9999999
1 -3.236842105263158 -1 0 1 
8 -9999999 9999999
1 -1 -10 -1 -0 
8 -9999999.6184210535 9999999.6184210535
1 0.38157894736842102 -2 1 0 
8 -9999999.6184210535 9999999.6184210535
1 0.38157894736842102 -10 -1 0 
8 -9999999 9999999
1 -1.236842105263158 -1 0 1 
8 -9999999 9999999
1 10 -1 0 -1 
8 -9999999.6184210535 9999999.6184210535
1 0.38157894736842102 -1 1 0 
8 -9999999.6184210535 9999999.6184210535
1 0.38157894736842102 -10 -1 0 
8 -9999999 9999999
1 0.76315789473684204 1 0 1 
8 -9999999 9999999
1 1 -10 -1 -0 
8 -9999998.3815789465 9999998.3815789465
1 -1.6184210526315792 1 -1 0 
8 -9999998.3815789465 9999998.3815789465
1 1.6184210526315788 -10 -1 0 
8 -9999999 9999999
1 -1.236842105263158 1 0 -1 
8 -9999999 9999999
1 10 -1 0 -1 
8 -9999998.3815789465 9999998.3815789465
1 -1.6184210526315792 2 -1 0 
8 -9999998.3815789465 9999998.3815789465
1 1.6184210526315788 -10 -1 0 
8 -9999998.5 9999998.5
1 -3.236842105263158 1.5 0 1 
8 -9999998.5 9999998.5
1 1.5 -10 -1 -0 
8 -9999999.6184210535 9999999.6184210535
1 0.38157894736842102 3 1 0 
8 -9999999.6184210535 9999999.6184210535
1 0.38157894736842102 -10 -1 0 
8 -9999997.5 9999997.5
1 0.76315789473684204 2.5 0 1 
8 -9999997.5 9999997.5
1 2.5 -10 -1 -0 
8 -10000000 10000000
1 0 -0 -0 1 
8 -10000000 10000000
1 2 0 0 1 
8 -10000000 10000000
1 0 0 0 -1 
8 -10000000 10000000
1 4 0 0 -1 
8 -10000000 10000000
1 0 -0 -0 1 
8 -10000000 10000000
1 1 0 0 1 
8 -10000000 10000000
1 0 0 -0 1 
8 -10000000 10000000
1 4 0 0 1 
8 -10000000 10000000
1 2 0 0 1 
8 -10000000 10000000
1 0 0 -1 -0 
8 -10000000 10000000
1 0 -1 1 0 
8 -10000000 10000000
1 2 0 0 -1 
1 0 -1 1 0 
8 -10000000 10000000
1 3 0 0 -1 
8 -10000000 10000000
1 0 -1 1 0 
8 -10000000 10000000
1 2 0 0 -1 
1 0 -1 1 0 
8 -10000000 10000000
1 3 0 0 -1 
8 -10000000 10000000
1 0 -1 1 0 
8 -10000000 10000000
1 2 0 0 -1 
8 -10000000 10000000
1 0 -2 -1 0 
8 -10000000 10000000
1 1 0 0 1 
8 -10000000 10000000
1 0 0 0 -1 
8 -10000000 10000000
1 3 0 0 -1 
8 -9999998 9999998
1 2 -2 1 0 
8 -9999998 9999998
1 2 0 -1 0 
8 -10000000 10000000
1 1 0 0 -1 
8 -10000000 10000000
1 4 0 0 -1 
8 -9999998 9999998
1 2 -2 -1 0 
8 -9999998 9999998
1 3 -2 0 -1 
8 -10000000 10000000
1 2 0 0 -1 
8 -10000000 10000000
1 0 -1 1 0 
8 -10000000 10000000
1 0 -1 1 0 
8 -10000000 10000000
1 2 0 0 -1 
1 0 -1 1 0 
8 -10000000 10000000
1 1 0 0 -1 
8 -10000000 10000000
1 0 -1 1 0 
8 -10000000 10000000
1 2 0 0 -1 
1 0 -1 1 0 
8 -10000000 10000000
1 1 0 0 -1 
8 -10000000 10000000
1 0 0 -1 0 
8 -10000000 10000000
1 2 0 0 1 
8 -10000000 10000000
1 0 -0 -0 1 
8 -10000000 10000000
1 1 0 0 1 
8 -10000000 10000000
1 0 0 -0 1 
8 -10000000 10000000
1 4 0 0 1 
8 -10000000 10000000
1 0 0 0 -1 
8 -10000000 10000000
1 2 0 0 -1 
8 -10000000 10000000
1 0 0 0 -1 
8 -10000000 10000000
1 3 0 0 -1 
8 -10000000 10000000
1 0 -8 -1 0 
8 -10000000 10000000
1 1 0 0 1 
8 -9999998 9999998
1 2 -8 1 0 
8 -9999998 9999998
1 2 0 -1 0 
8 -10000000 10000000
1 1 0 0 -1 
8 -10000000 10000000
1 4 0 0 -1 
8 -9999998 9999998
1 2 -8 -1 0 
8 -9999998 9999998
1 3 -2 0 -1 
8 -9999998 9999998
1 2 -6 -1 -0 
8 -9999998 9999998
1 2 -2 1 0 
8 -9999998 9999998
1 2 -8 -1 -0 
8 -9999998 9999998
1 2 -2 1 0 
8 -10000000 10000000
1 0 -6 -1 0 
8 -10000000 10000000
1 1 0 0 1 
8 -10000000 10000000
1 0 0 0 -1 
8 -10000000 10000000
1 3 0 0 -1 
8 -10000000 10000000
1 0 -4 -1 0 
8 -10000000 10000000
1 1 0 0 1 
8 -9999998 9999998
1 2 -2 -1 -0 
8 -9999998 9999998
1 2 -2 1 0 
8 -9999998 9999998
1 2 -4 -1 -0 
8 -9999998 9999998
1 2 -2 1 0 
8 -9999998 9999998
1 2 -4 -1 0 
8 -9999998 9999998
1 3 -2 0 -1 
8 -10000000 10000000
1 4 0 0 -1 
8 -10000000 10000000
1 1 0 0 -1 
8 -9999998 9999998
1 2 -6 -1 0 
8 -9999998 9999998
1 3 -2 0 -1 
8 -9999998 9999998
1 2 0 -1 0 
8 -9999998 9999998
1 2 -6 1 0 
8 -9999998 9999998
1 2 -4 1 0 
8 -9999998 9999998
1 2 0 -1 0 
Curves 76
8 -9999997.5 9999997.5
1 2.5 0 0 -1 0 0 
8 -10000000 10000000
1 10 0 0 0 -1 0 
8 -9999997.5 9999997.5
1 2.5 10 0 -1 0 0 
8 -10000000 10000000
1 0 0 0 0 1 0 
8 -9999999.6184210535 9999999.6184210535
1 0 0 1.381578947368421 0 -0 1 
8 -9999998.5 9999998.5
1 3.5 0 1 1 0 -0 
8 -9999998.3815789465 9999998.3815789465
1 2 0 3.3815789473684212 0 -0 1 
8 -9999999 9999999
1 4 0 5 1 0 -0 
8 -9999999.6184210535 9999999.6184210535
1 3 0 1.381578947368421 0 0 -1 
8 -9999999 9999999
1 4 0 3 1 0 -0 
8 -9999999.6184210535 9999999.6184210535
1 4 0 1.381578947368421 0 0 -1 
8 -9999999 9999999
1 6 0 1 1 0 -0 
8 -9999998.3815789465 9999998.3815789465
1 6 0 3.3815789473684212 0 -0 1 
8 -9999999 9999999
1 6 0 3 -1 0 0 
8 -9999998.3815789465 9999998.3815789465
1 7 0 3.3815789473684212 0 -0 1 
8 -9999998.5 9999998.5
1 6.5 0 5 1 0 -0 
8 -9999999.6184210535 9999999.6184210535
1 8 0 1.381578947368421 0 0 -1 
8 -9999997.5 9999997.5
1 7.5 0 1 1 0 -0 
8 -9999999.1184210535 9999999.1184210535
1 10 0 0.88157894736842102 0 0 -1 
8 -10000000 10000000
1 10 0 1 0 -1 -0 
8 -9999999.1184210535 9999999.1184210535
1 10 10 0.88157894736842102 0 0 -1 
8 -9999999.6184210535 9999999.6184210535
1 0 10 1.381578947368421 0 -0 1 
8 -9999998.5 9999998.5
1 3.5 10 1 1 0 -0 
8 -9999998.3815789465 9999998.3815789465
1 2 10 3.3815789473684212 0 -0 1 
8 -9999999 9999999
1 4 10 5 1 0 -0 
8 -9999999.6184210535 9999999.6184210535
1 3 10 1.381578947368421 0 0 -1 
8 -9999999 9999999
1 4 10 3 1 0 -0 
8 -9999999.6184210535 9999999.6184210535
1 4 10 1.381578947368421 0 0 -1 
8 -9999999 9999999
1 6 10 1 1 0 -0 
8 -9999998.3815789465 9999998.3815789465
1 6 10 3.3815789473684212 0 -0 1 
8 -9999999 9999999
1 6 10 3 -1 0 0 
8 -9999998.3815789465 9999998.3815789465
1 7 10 3.3815789473684212 0 -0 1 
8 -9999998.5 9999998.5
1 6.5 10 5 1 0 -0 
8 -9999999.6184210535 9999999.6184210535
1 8 10 1.381578947368421 0 0 -1 
8 -9999997.5 9999997.5
1 7.5 10 1 1 0 -0 
8 -10000000 10000000
1 0 0 1 -0 -1 0 
8 -10000000 10000000
1 2 0 1 0 1 0 
8 -10000000 10000000
1 2 0 5 -0 -1 0 
8 -10000000 10000000
1 3 0 5 0 -1 -0 
8 -10000000 10000000
1 3 0 3 0 -1 -0 
8 -10000000 10000000
1 4 0 3 -0 1 0 
8 -10000000 10000000
1 4 0 3 -0 1 0 
8 -10000000 10000000
1 4 0 3 -0 1 0 
8 -10000000 10000000
1 4 0 3 -0 1 0 
8 -10000000 10000000
1 4 0 3 -0 1 0 
8 -10000000 10000000
1 4 2 1 0 0 -1 
8 -10000000 10000000
1 4 0 1 -0 1 0 
8 -9999998 9999998
1 5 2 1 -1 0 0 
8 -10000000 10000000
1 6 0 1 0 1 0 
8 -9999998 9999998
1 6 2 3 0 -0 1 
8 -10000000 10000000
1 6 0 3 0 1 0 
8 -10000000 10000000
1 6 0 3 0 1 0 
8 -10000000 10000000
1 6 0 3 0 1 0 
8 -10000000 10000000
1 6 0 3 0 1 0 
8 -10000000 10000000
1 6 0 3 0 1 0 
8 -10000000 10000000
1 7 0 3 -0 -1 -0 
8 -10000000 10000000
1 7 0 5 -0 -1 0 
8 -10000000 10000000
1 8 0 5 0 -1 -0 
8 -10000000 10000000
1 8 0 1 -0 1 0 
8 -10000000 10000000
1 4 0 1 -0 1 0 
8 -10000000 10000000
1 4 8 1 0 0 -1 
8 -9999998 9999998
1 5 8 1 -1 0 0 
8 -10000000 10000000
1 6 0 1 0 1 0 
8 -9999998 9999998
1 6 8 3 0 -0 1 
8 -9999998 9999998
1 5 6 3 1 0 -0 
8 -9999998 9999998
1 5 8 3 1 0 -0 
8 -10000000 10000000
1 4 6 1 0 0 -1 
8 -10000000 10000000
1 4 0 1 -0 1 0 
8 -10000000 10000000
1 4 4 1 0 0 -1 
8 -9999998 9999998
1 5 2 3 1 0 -0 
8 -9999998 9999998
1 5 4 3 1 0 -0 
8 -9999998 9999998
1 6 4 3 0 -0 1 
8 -10000000 10000000
1 6 0 1 0 1 0 
8 -9999998 9999998
1 6 6 3 0 -0 1 
8 -9999998 9999998
1 5 6 1 -1 0 0 
8 -9999998 9999998
1 5 4 1 -1 0 0 
Polygon3D 0
PolygonOnTriangulations 0
Surfaces 30
1 0 0 0 0 0 -1 1 0 0 0 -1 0 
1 5 0 1.763157894736842 -0 -1 -0 0 0 -1 1 -0 0 
1 10 0 0 1 0 0 0 0 1 0 -1 0 
1 5 0 1.763157894736842 -0 -1 -0 0 0 -1 1 -0 0 
1 0 0 1 -1 0 0 0 0 -1 -0 -1 -0 
1 2 0 1 0 -0 1 -1 0 0 -0 -1 0 
1 2 0 5 -1 0 0 0 0 -1 -0 -1 -0 
1 3 0 5 0 -0 1 -1 0 0 -0 -1 0 
1 3 0 1 1 0 0 0 0 1 0 -1 0 
1 3 0 3 0 -0 1 0 1 0 -1 0 0 
1 4 0 1 1 0 0 0 0 1 0 -1 0 
1 7 0 1 0 -0 1 -1 0 0 -0 -1 0 
1 6 0 5 -1 0 0 0 0 -1 -0 -1 -0 
1 7 0 3 0 0 -1 0 1 0 1 -0 0 
1 7 0 5 -1 0 0 0 0 -1 -0 -1 -0 
1 8 0 5 0 -0 1 -1 0 0 -0 -1 0 
1 8 0 1 1 0 0 0 0 1 0 -1 0 
1 10 0 1 0 -0 1 -1 0 0 -0 -1 0 
1 4 0 1 1 0 0 0 0 1 0 -1 0 
1 7 0 1 0 -0 1 -1 0 0 -0 -1 0 
1 6 0 5 -1 0 0 0 0 -1 -0 -1 -0 
1 7 0 3 0 -0 1 -1 0 0 -0 -1 0 
1 4 0 1 1 0 0 0 0 1 0 -1 0 
1 7 0 3 0 -0 1 -1 0 0 -0 -1 0 
1 3 2 1 0 1 0 1 0 0 0 0 -1 
1 6 0 5 -1 0 0 0 0 -1 -0 -1 -0 
1 3 8 1 0 1 0 1 0 0 0 0 -1 
1 3 6 1 0 1 0 1 0 0 0 0 -1 
1 7 0 1 0 -0 1 -1 0 0 -0 -1 0 
1 3 4 1 0 1 0 1 0 0 0 0 -1 
Triangulations 0

TShapes 186
Ve
1.02469507659596e-07
10 0 0
0 0

0101101
*
Ve
1.02469507659596e-07
0 0 0
0 0

0101101
*
Ed
 1e-07 1 1 0
1  1 0 -7.5 2.5
2  1 1 0 -7.5 2.5
2  2 2 0 -7.5 2.5
0

0101000
+186 0 -185 0 *
Ve
1.02469507659596e-07
10 10 0
0 0

0101101
*
Ed
 1e-07 1 1 0
1  2 0 -10 0
2  3 1 0 -10 0
2  4 3 0 -10 0
0

0101000
+183 0 -186 0 *
Ve
1.02469507659596e-07
0 10 0
0 0

0101101
*
Ed
 1e-07 1 1 0
1  3 0 -7.5 2.5
2  5 1 0 -7.5 2.5
2  6 4 1 -7.5 2.5
0

0101000
+183 0 -181 0 *
Ed
 1e-07 1 1 0
1  4 0 0 10
2  7 1 0 0 10
2  8 5 0 0 10
0

0101000
+185 0 -181 0 *
Wi

0101100
+184 0 +182 0 -180 0 +179 0 *
Fa
0  1e-07 1 0

0111000
+178 0 *
Ve
1.02469507659596e-07
0 0 1
0 0

0101101
*
Ed
 1e-07 1 1 0
1  5 0 -1.38157894736842 -0.381578947368421
2  9 2 0 -1.38157894736842 -0.381578947368421
2  10 5 0 -1.38157894736842 -0.381578947368421
0

0101000
+185 0 -176 0 *
Ve
1.02469507659596e-07
2 0 1
0 0

0101101
*
Ed
 1e-07 1 1 0
1  6 0 -3.5 -1.5
2  11 2 0 -3.5 -1.5
2  12 6 0 -3.5 -1.5
0

0101000
+176 0 -174 0 *
Ve
1.02469507659596e-07
2 0 5
0 0

0101101
*
Ed
 1e-07 1 1 0
1  7 0 -2.38157894736842 1.61842105263158
2  13 2 0 -2.38157894736842 1.61842105263158
2  14 7 0 -2.38157894736842 1.61842105263158
0

0101000
+174 0 -172 0 *
Ve
1.02469507659596e-07
3 0 5
0 0

0101101
*
Ed
 1e-07 1 1 0
1  8 0 -2 -1
2  15 2 0 -2 -1
2  16 8 0 -2 -1
0

0101000
+172 0 -170 0 *
Ve
1.02469507659596e-07
3 0 3
0 0

0101101
*
Ed
 1e-07 1 1 0
1  9 0 -3.61842105263158 -1.61842105263158
2  17 2 0 -3.61842105263158 -1.61842105263158
2  18 9 0 -3.61842105263158 -1.61842105263158
0

0101000
+170 0 -168 0 *
Ve
1.02469507659596e-07
4 0 3
0 0

0101101
*
Ed
 1e-07 1 1 0
1  10 0 -1 -0
2  19 2 0 -1 -0
2  20 10 0 -1 -0
0

0101000
+168 0 -166 0 *
Ve
1.02469507659596e-07
4 0 1
0 0

0101101
*
Ed
 1e-07 1 1 0
1  11 0 -1.61842105263158 0.381578947368421
2  21 2 0 -1.61842105263158 0.381578947368421
2  22 11 0 -1.61842105263158 0.381578947368421
0

0101000
+166 0 -164 0 *
Ve
1.02469507659596e-07
6 0 1
0 0

0101101
*
Ed
 1e-07 1 1 0
1  12 0 -2 -0
2  23 2 0 -2 -0
2  24 12 0 -2 -0
0

0101000
+164 0 -162 0 *
Ve
1.02469507659596e-07
6 0 3
0 0

0101101
*
Ed
 1e-07 1 1 0
1  13 0 -2.38157894736842 -0.381578947368421
2  25 2 0 -2.38157894736842 -0.381578947368421
2  26 13 0 -2.38157894736842 -0.381578947368421
0

0101000
+162 0 -160 0 *
Ve
1.02469507659596e-07
7 0 3
0 0

0101101
*
Ed
 1e-07 1 1 0
1  14 0 -1 -0
2  27 2 0 -1 -0
2  28 14 0 -1 -0
0

0101000
+158 0 -160 0 *
Ve
1.02469507659596e-07
7 0 5
0 0

0101101
*
Ed
 1e-07 1 1 0
1  15 0 -0.381578947368421 1.61842105263158
2  29 2 0 -0.381578947368421 1.61842105263158
2  30 15 0 -0.381578947368421 1.61842105263158
0

0101000
+158 0 -156 0 *
Ve
1.02469507659596e-07
8 0 5
0 0

0101101
*
Ed
 1e-07 1 1 0
1  16 0 0.5 1.5
2  31 2 0 0.5 1.5
2  32 16 0 0.5 1.5
0

0101000
+156 0 -154 0 *
Ve
1.02469507659596e-07
8 0 1
0 0

0101101
*
Ed
 1e-07 1 1 0
1  17 0 -3.61842105263158 0.381578947368421
2  33 2 0 -3.61842105263158 0.381578947368421
2  34 17 0 -3.61842105263158 0.381578947368421
0

0101000
+154 0 -152 0 *
Ve
1.02469507659596e-07
10 0 1
0 0

0101101
*
Ed
 1e-07 1 1 0
1  18 0 0.5 2.5
2  35 2 0 0.5 2.5
2  36 18 0 0.5 2.5
0

0101000
+152 0 -150 0 *
Ed
 1e-07 1 1 0
1  19 0 -0.118421052631579 0.881578947368421
2  37 2 0 -0.118421052631579 0.881578947368421
2  38 3 0 -0.118421052631579 0.881578947368421
0

0101000
+150 0 -186 0 *
Wi

0101100
-184 0 -175 0 -173 0 -171 0 -169 0 -167 0 -165 0 -163 0 -161 0 -159 0 
+157 0 -155 0 -153 0 -151 0 -149 0 -148 0 *
Fa
0  1e-07 2 0

0111000
+147 0 *
Ve
1.02469507659596e-07
10 10 1
0 0

0101101
*
Ed
 1e-07 1 1 0
1  20 0 -10 -0
2  39 3 0 -10 -0
2  40 18 0 -10 -0
0

0101000
+145 0 -150 0 *
Ed
 1e-07 1 1 0
1  21 0 -0.118421052631579 0.881578947368421
2  41 3 0 -0.118421052631579 0.881578947368421
2  42 4 1 -0.118421052631579 0.881578947368421
0

0101000
+145 0 -183 0 *
Wi

0101100
-182 0 +148 0 +144 0 -143 0 *
Fa
0  1e-07 3 0

0111000
+142 0 *
Ve
1.02469507659596e-07
0 10 1
0 0

0101101
*
Ed
 1e-07 1 1 0
1  22 0 -1.38157894736842 -0.381578947368421
2  43 4 1 -1.38157894736842 -0.381578947368421
2  44 5 0 -1.38157894736842 -0.381578947368421
0

0101000
+181 0 -140 0 *
Ve
1.02469507659596e-07
2 10 1
0 0

0101101
*
Ed
 1e-07 1 1 0
1  23 0 -3.5 -1.5
2  45 4 1 -3.5 -1.5
2  46 6 0 -3.5 -1.5
0

0101000
+140 0 -138 0 *
Ve
1.02469507659596e-07
2 10 5
0 0

0101101
*
Ed
 1e-07 1 1 0
1  24 0 -2.38157894736842 1.61842105263158
2  47 4 1 -2.38157894736842 1.61842105263158
2  48 7 0 -2.38157894736842 1.61842105263158
0

0101000
+138 0 -136 0 *
Ve
1.02469507659596e-07
3 10 5
0 0

0101101
*
Ed
 1e-07 1 1 0
1  25 0 -2 -1
2  49 4 1 -2 -1
2  50 8 0 -2 -1
0

0101000
+136 0 -134 0 *
Ve
1.02469507659596e-07
3 10 3
0 0

0101101
*
Ed
 1e-07 1 1 0
1  26 0 -3.61842105263158 -1.61842105263158
2  51 4 1 -3.61842105263158 -1.61842105263158
2  52 9 0 -3.61842105263158 -1.61842105263158
0

0101000
+134 0 -132 0 *
Ve
1.02469507659596e-07
4 10 3
0 0

0101101
*
Ed
 1e-07 1 1 0
1  27 0 -1 -0
2  53 4 1 -1 -0
2  54 10 0 -1 -0
0

0101000
+132 0 -130 0 *
Ve
1.02469507659596e-07
4 10 1
0 0

0101101
*
Ed
 1e-07 1 1 0
1  28 0 -1.61842105263158 0.381578947368421
2  55 4 1 -1.61842105263158 0.381578947368421
2  56 19 0 -1.61842105263158 0.381578947368421
0

0101000
+130 0 -128 0 *
Ve
1.02469507659596e-07
6 10 1
0 0

0101101
*
Ed
 1e-07 1 1 0
1  29 0 -2 -0
2  57 4 1 -2 -0
2  58 20 0 -2 -0
0

0101000
+128 0 -126 0 *
Ve
1.02469507659596e-07
6 10 3
0 0

0101101
*
Ed
 1e-07 1 1 0
1  30 0 -2.38157894736842 -0.381578947368421
2  59 4 1 -2.38157894736842 -0.381578947368421
2  60 21 0 -2.38157894736842 -0.381578947368421
0

0101000
+126 0 -124 0 *
Ve
1.02469507659596e-07
7 10 3
0 0

0101101
*
Ed
 1e-07 1 1 0
1  31 0 -1 -0
2  61 4 1 -1 -0
2  62 14 0 -1 -0
0

0101000
+122 0 -124 0 *
Ve
1.02469507659596e-07
7 10 5
0 0

0101101
*
Ed
 1e-07 1 1 0
1  32 0 -0.381578947368421 1.61842105263158
2  63 4 1 -0.381578947368421 1.61842105263158
2  64 15 0 -0.381578947368421 1.61842105263158
0

0101000
+122 0 -120 0 *
Ve
1.02469507659596e-07
8 10 5
0 0

0101101
*
Ed
 1e-07 1 1 0
1  33 0 0.5 1.5
2  65 4 1 0.5 1.5
2  66 16 0 0.5 1.5
0

0101000
+120 0 -118 0 *
Ve
1.02469507659596e-07
8 10 1
0 0

0101101
*
Ed
 1e-07 1 1 0
1  34 0 -3.61842105263158 0.381578947368421
2  67 4 1 -3.61842105263158 0.381578947368421
2  68 17 0 -3.61842105263158 0.381578947368421
0

0101000
+118 0 -116 0 *
Ed
 1e-07 1 1 0
1  35 0 0.5 2.5
2  69 4 1 0.5 2.5
2  70 18 0 0.5 2.5
0

0101000
+116 0 -145 0 *
Wi

0101100
-180 0 -139 0 -137 0 -135 0 -133 0 -131 0 -129 0 -127 0 -125 0 -123 0 
+121 0 -119 0 -117 0 -115 0 -114 0 -143 0 *
Fa
0  1e-07 4 1

0111000
+113 0 *
Ed
 1e-07 1 1 0
1  36 0 -10 -0
2  71 5 0 -10 -0
2  72 6 0 -10 -0
0

0101000
+140 0 -176 0 *
Wi

0101100
-179 0 -139 0 -111 0 +175 0 *
Fa
0  1e-07 5 0

0111000
+110 0 *
Ed
 1e-07 1 1 0
1  37 0 -0 10
2  73 6 0 -0 10
2  74 7 0 -0 10
0

0101000
+174 0 -138 0 *
Wi

0101100
+173 0 +111 0 -137 0 +108 0 *
Fa
0  1e-07 6 0

0111000
+107 0 *
Ed
 1e-07 1 1 0
1  38 0 -10 0
2  75 7 0 -10 0
2  76 8 0 -10 0
0

0101000
+136 0 -172 0 *
Wi

0101100
-105 0 +171 0 -108 0 -135 0 *
Fa
0  1e-07 7 0

0111000
+104 0 *
Ed
 1e-07 1 1 0
1  39 0 -10 0
2  77 8 0 -10 0
2  78 9 0 -10 0
0

0101000
+134 0 -170 0 *
Wi

0101100
-102 0 +169 0 +105 0 -133 0 *
Fa
0  1e-07 8 0

0111000
+101 0 *
Ed
 1e-07 1 1 0
1  40 0 -10 -0
2  79 9 0 -10 -0
2  80 10 0 -10 -0
0

0101000
+132 0 -168 0 *
Wi

0101100
-99 0 +167 0 +102 0 -131 0 *
Fa
0  1e-07 9 0

0111000
+98 0 *
Ve
1.02469507659596e-07
4 8 3
0 0

0101101
*
Ed
 1e-07 1 1 0
1  41 0 8 10
2  81 10 0 8 10
2  82 19 0 8 10
0

0101000
+96 0 -130 0 *
Ve
1.02469507659596e-07
4 6 3
0 0

0101101
*
Ed
 1e-07 1 1 0
1  42 0 6 8
2  83 10 0 6 8
2  84 22 0 6 8
0

0101000
+94 0 -96 0 *
Ve
1.02469507659596e-07
4 4 3
0 0

0101101
*
Ed
 1e-07 1 1 0
1  43 0 4 6
2  85 10 0 4 6
2  86 23 0 4 6
0

0101000
+92 0 -94 0 *
Ve
1.02469507659596e-07
4 2 3
0 0

0101101
*
Ed
 1e-07 1 1 0
1  44 0 2 4
2  87 10 0 2 4
2  88 24 0 2 4
0

0101000
+90 0 -92 0 *
Ed
 1e-07 1 1 0
1  45 0 -0 2
2  89 10 0 -0 2
2  90 11 0 -0 2
0

0101000
+166 0 -90 0 *
Wi

0101100
-129 0 +95 0 +93 0 +91 0 +89 0 +88 0 +165 0 +99 0 *
Fa
0  1e-07 10 0

0111000
+87 0 *
Ve
1.02469507659596e-07
4 2 1
0 0

0101101
*
Ed
 1e-07 1 1 0
1  46 0 -2 0
2  91 11 0 -2 0
2  92 25 0 -2 0
0

0101000
+90 0 -85 0 *
Ed
 1e-07 1 1 0
1  47 0 -0 2
2  93 11 0 -0 2
2  94 12 0 -0 2
0

0101000
+164 0 -85 0 *
Wi

0101100
+163 0 -88 0 -84 0 +83 0 *
Fa
0  1e-07 11 0

0111000
+82 0 *
Ve
1.02469507659596e-07
6 2 1
0 0

0101101
*
Ed
 1e-07 1 1 0
1  48 0 -1 1
2  95 12 0 -1 1
2  96 25 0 -1 1
0

0101000
+80 0 -85 0 *
Ed
 1e-07 1 1 0
1  49 0 -0 2
2  97 12 0 -0 2
2  98 13 0 -0 2
0

0101000
+162 0 -80 0 *
Wi

0101100
+161 0 -83 0 +79 0 +78 0 *
Fa
0  1e-07 12 0

0111000
+77 0 *
Ve
1.02469507659596e-07
6 2 3
0 0

0101101
*
Ed
 1e-07 1 1 0
1  50 0 -2 -0
2  99 13 0 -2 -0
2  100 25 0 -2 -0
0

0101000
+80 0 -75 0 *
Ed
 1e-07 1 1 0
1  51 0 -0 2
2  101 13 0 -0 2
2  102 14 0 -0 2
0

0101000
+160 0 -75 0 *
Wi

0101100
-78 0 -74 0 +73 0 +159 0 *
Fa
0  1e-07 13 0

0111000
+72 0 *
Ve
1.02469507659596e-07
6 8 3
0 0

0101101
*
Ed
 1e-07 1 1 0
1  52 0 8 10
2  103 14 0 8 10
2  104 21 0 8 10
0

0101000
+70 0 -124 0 *
Ve
1.02469507659596e-07
6 6 3
0 0

0101101
*
Ed
 1e-07 1 1 0
1  53 0 6 8
2  105 14 0 6 8
2  106 22 0 6 8
0

0101000
+68 0 -70 0 *
Ve
1.02469507659596e-07
6 4 3
0 0

0101101
*
Ed
 1e-07 1 1 0
1  54 0 4 6
2  107 14 0 4 6
2  108 26 0 4 6
0

0101000
+66 0 -68 0 *
Ed
 1e-07 1 1 0
1  55 0 2 4
2  109 14 0 2 4
2  110 24 0 2 4
0

0101000
+75 0 -66 0 *
Ed
 1e-07 1 1 0
1  56 0 -10 -0
2  111 14 0 -10 -0
2  112 15 0 -10 -0
0

0101000
+122 0 -158 0 *
Wi

0101100
-121 0 +69 0 +67 0 +65 0 +64 0 +73 0 +157 0 +63 0 *
Fa
0  1e-07 14 0

0111000
+62 0 *
Ed
 1e-07 1 1 0
1  57 0 -10 0
2  113 15 0 -10 0
2  114 16 0 -10 0
0

0101000
+120 0 -156 0 *
Wi

0101100
-60 0 +155 0 +63 0 -119 0 *
Fa
0  1e-07 15 0

0111000
+59 0 *
Ed
 1e-07 1 1 0
1  58 0 -10 -0
2  115 16 0 -10 -0
2  116 17 0 -10 -0
0

0101000
+118 0 -154 0 *
Wi

0101100
-57 0 +153 0 +60 0 -117 0 *
Fa
0  1e-07 16 0

0111000
+56 0 *
Ed
 1e-07 1 1 0
1  59 0 -0 10
2  117 17 0 -0 10
2  118 18 0 -0 10
0

0101000
+152 0 -116 0 *
Wi

0101100
+151 0 +57 0 -115 0 +54 0 *
Fa
0  1e-07 17 0

0111000
+53 0 *
Wi

0101100
-144 0 +149 0 -54 0 -114 0 *
Fa
0  1e-07 18 0

0111000
+51 0 *
Ve
1.02469507659596e-07
4 8 1
0 0

0101101
*
Ed
 1e-07 1 1 0
1  60 0 8 10
2  119 19 0 8 10
2  120 20 0 8 10
0

0101000
+49 0 -128 0 *
Ed
 1e-07 1 1 0
1  61 0 -2 0
2  121 19 0 -2 0
2  122 27 0 -2 0
0

0101000
+96 0 -49 0 *
Wi

0101100
-95 0 -127 0 +48 0 +47 0 *
Fa
0  1e-07 19 0

0111000
+46 0 *
Ve
1.02469507659596e-07
6 8 1
0 0

0101101
*
Ed
 1e-07 1 1 0
1  62 0 -1 1
2  123 20 0 -1 1
2  124 27 0 -1 1
0

0101000
+44 0 -49 0 *
Ed
 1e-07 1 1 0
1  63 0 8 10
2  125 20 0 8 10
2  126 21 0 8 10
0

0101000
+44 0 -126 0 *
Wi

0101100
-43 0 -48 0 -125 0 +42 0 *
Fa
0  1e-07 20 0

0111000
+41 0 *
Ed
 1e-07 1 1 0
1  64 0 -2 -0
2  127 21 0 -2 -0
2  128 27 0 -2 -0
0

0101000
+44 0 -70 0 *
Wi

0101100
+39 0 -42 0 -123 0 +69 0 *
Fa
0  1e-07 21 0

0111000
+38 0 *
Ed
 1e-07 1 1 0
1  65 0 -1 1
2  129 22 0 -1 1
2  130 28 0 -1 1
0

0101000
+94 0 -68 0 *
Ed
 1e-07 1 1 0
1  66 0 -1 1
2  131 22 0 -1 1
2  132 27 0 -1 1
0

0101000
+96 0 -70 0 *
Wi

0101100
+36 0 -93 0 -35 0 +67 0 *
Fa
0  1e-07 22 0

0111000
+34 0 *
Ve
1.02469507659596e-07
4 6 1
0 0

0101101
*
Ed
 1e-07 1 1 0
1  67 0 -2 0
2  133 23 0 -2 0
2  134 28 0 -2 0
0

0101000
+94 0 -32 0 *
Ve
1.02469507659596e-07
4 4 1
0 0

0101101
*
Ed
 1e-07 1 1 0
1  68 0 4 6
2  135 23 0 4 6
2  136 29 0 4 6
0

0101000
+30 0 -32 0 *
Ed
 1e-07 1 1 0
1  69 0 -2 0
2  137 23 0 -2 0
2  138 30 0 -2 0
0

0101000
+92 0 -30 0 *
Wi

0101100
-91 0 -31 0 +29 0 +28 0 *
Fa
0  1e-07 23 0

0111000
+27 0 *
Ed
 1e-07 1 1 0
1  70 0 -1 1
2  139 24 0 -1 1
2  140 25 0 -1 1
0

0101000
+90 0 -75 0 *
Ed
 1e-07 1 1 0
1  71 0 -1 1
2  141 24 0 -1 1
2  142 30 0 -1 1
0

0101000
+92 0 -66 0 *
Wi

0101100
+25 0 -89 0 -24 0 +64 0 *
Fa
0  1e-07 24 0

0111000
+23 0 *
Wi

0101100
-74 0 +25 0 -84 0 +79 0 *
Fa
0  1e-07 25 0

0111000
+21 0 *
Ve
1.02469507659596e-07
6 4 1
0 0

0101101
*
Ed
 1e-07 1 1 0
1  72 0 -2 -0
2  143 26 0 -2 -0
2  144 30 0 -2 -0
0

0101000
+19 0 -66 0 *
Ve
1.02469507659596e-07
6 6 1
0 0

0101101
*
Ed
 1e-07 1 1 0
1  73 0 4 6
2  145 26 0 4 6
2  146 29 0 4 6
0

0101000
+19 0 -17 0 *
Ed
 1e-07 1 1 0
1  74 0 -2 -0
2  147 26 0 -2 -0
2  148 28 0 -2 -0
0

0101000
+17 0 -68 0 *
Wi

0101100
+18 0 -16 0 -15 0 +65 0 *
Fa
0  1e-07 26 0

0111000
+14 0 *
Wi

0101100
-39 0 +35 0 -47 0 +43 0 *
Fa
0  1e-07 27 0

0111000
+12 0 *
Ed
 1e-07 1 1 0
1  75 0 -1 1
2  149 28 0 -1 1
2  150 29 0 -1 1
0

0101000
+17 0 -32 0 *
Wi

0101100
-15 0 +36 0 -31 0 +10 0 *
Fa
0  1e-07 28 0

0111000
+9 0 *
Ed
 1e-07 1 1 0
1  76 0 -1 1
2  151 29 0 -1 1
2  152 30 0 -1 1
0

0101000
+19 0 -30 0 *
Wi

0101100
-7 0 -29 0 +10 0 +16 0 *
Fa
0  1e-07 29 0

0111000
+6 0 *
Wi

0101100
-18 0 +24 0 -28 0 +7 0 *
Fa
0  1e-07 30 0

0111000
+4 0 *
Sh

0101100
+177 0 +146 0 +141 0 -112 0 +109 0 +106 0 +103 0 +100 0 +97 0 +86 0 
+81 0 +76 0 +71 0 -61 0 +58 0 +55 0 +52 0 +50 0 +45 0 +40 0 
+37 0 +33 0 +26 0 +22 0 -20 0 +13 0 +11 0 -8 0 +5 0 +3 0 
*
So

1100100
+2 0 *

+1 0 
0

