DBRep_DrawableShape

CASCADE Topology V1, (c) Matra-Datavision
Locations 10
1
0.841253532831181 0.540640817455598               0               0 
-0.540640817455598 0.841253532831181               0               0 
              0               0               1               0 
2  1 -1 0
1
0.841253532831181 0.540640817455598               0               0 
-0.540640817455598 0.841253532831181               0               0 
              0               0               1               0 
2  3 -1 0
1
0.841253532831181 0.540640817455598               0               0 
-0.540640817455598 0.841253532831181               0               0 
              0               0               1               0 
2  5 -1 0
1
0.841253532831181 0.540640817455598               0               0 
-0.540640817455598 0.841253532831181               0               0 
              0               0               1               0 
2  7 -1 0
1
0.841253532831181 0.540640817455598               0               0 
-0.540640817455598 0.841253532831181               0               0 
              0               0               1               0 
2  9 -1 0
Curve2ds 24
1 -0.019174784320990412 0 0 1 
1 0 0 0 1 
1 0.5711986642890533 0 0 1 
1 0 -0.33803861024295478 1 0 
1 0 0 0 1 
1 0.5711986642890533 0 0 1 
1 1.0188167926299672 0 0 1 
1 0 0 0 1 
1 0.5711986642890533 0 0 1 
1 0 1.3380413419560104 1 0 
1 0 0 0 1 
1 0.5711986642890533 0 0 1 
1 0 -0.019174784320990412 1 0 
1 0 -0.33803861024295478 1 0 
1 0 1.0188167926299672 1 0 
1 0 -0.33803861024295478 1 0 
1 0 -0.33803861024295478 1 0 
1 0 -0.019174784320990412 1 0 
1 0 1.3380413419560104 1 0 
1 0 1.0188167926299672 1 0 
1 0 1.3380413419560104 1 0 
1 0 1.3380413419560104 1 0 
1 0.5711986642890533 0 0 1 
1 0.5711986642890533 0 0 1 
Curves 12
7 0 0  4 11 4  130.94522455043003 11.728165710386868 -2.1893196155438859  131.58251096498802 11.780190396153122 -2.1845764019768654  132.21811807106093 11.832009406212435 -2.1798478684235238  132.85204601288567 11.883623819577066 -2.1751344321484001  135.35466563023869 12.086734747587521 -2.1565617501982786  137.23282342570155 12.10578176517401 -2.1630656328693658  139.10425219352297 12.241040139793341 -2.1541489134559368  141.61252539265507 12.348201866918837 -2.1518798357958828  142.24798422079877 12.37533446396308 -2.1513145719738698  142.88521486843925 12.402536366755788 -2.150751859124453  143.52421695556498 12.429807571050409 -2.1501916803675445 
 -0.33803861024295478 5 0 3 1 3 1.3380413419560104 5
7 0 0  3 39 35  130.94522455043003 11.728165710386868 -2.1893196155438859  130.97837285155663 11.267828927633055 -1.4130012846307169  131.00953370528916 10.835092206064294 -0.68322807944942188  131.0862523112406 9.769686286582246 1.1134872301756142  131.18900973158259 8.405276402956849 3.425852789002731  131.3307848819581 5.9658153793496522 6.6067329739297955  131.44122671945851 2.4843879657285681 8.6344607482171352  131.44207876383001 -1.3303233529724874 9.7693222665562178  131.32862582558431 -5.1803798399798637 10.712138046577579  131.10217524905516 -9.0584702479120907 11.515675769308123  130.76370943986547 -12.935606591693675 12.269745211401791  130.31401807741821 -16.805076701712593 12.998500354925532  129.75341042346474 -20.660247064540513 13.72164856720577  129.08206485466985 -24.496455120250243 14.453768678469514  128.30040427335078 -28.305259581151706 15.209590653508021  127.40926793130028 -32.08480291029192 15.992251478200226  126.40897752843739 -35.830499634477327 16.809090541176136  125.30239973521286 -39.535516811027257 17.667567964783895  124.09105273537062 -43.197229848093251 18.571535460242728  122.77673806203472 -46.811607006213272 19.525407658672112  121.36433813427482 -50.370936270675791 20.540345437663426  119.85701495804589 -53.870870760777315 21.624064827393067  118.25809361543038 -57.306525662161242 22.784418594741769  116.57521160958864 -60.6679711214394 24.03920633853453  114.81543572977814 -63.947118517701306 25.402624230720004  112.98725887453854 -67.134886917822541 26.889577887208009  111.10111231529699 -70.220691373048751 28.516616505116602  109.17103270416506 -73.192169104188125 30.301025144125521  107.21519551607132 -76.034422925568279 32.261018012846172  105.25493970890462 -78.730927810103907 34.415238824914979  103.31911918712105 -81.259368089576668 36.78718634360466  101.44714000028863 -83.588641021587193 39.402725536345812  99.671627669281349 -85.701706411850068 42.261669183759729  98.010347337763548 -87.603190548904536 45.328867753431361  96.510518742899777 -89.24702574103587 48.621641208416328  95.558519421429835 -90.268845631070164 50.874696174363976  94.801672660457299 -91.082231081100531 52.677587479446423  94.498253742195516 -91.408316288971335 53.400364344909555  94.175864495361722 -91.754788965004067 54.168330596389374 
 -0.019174784320990412 4 0 2 0.03125 1 0.0625 1 0.09375 1 0.125 1 0.15625 1 0.1875 1 0.21875 1 0.25 1 0.28125 1 0.3125 1 0.34375 1 0.375 1 0.40625 1 0.4375 1 0.46875 1 0.5 1 0.53125 1 0.5625 1 0.59375 1 0.625 1 0.65625 1 0.6875 1 0.71875 1 0.75 1 0.78125 1 0.8125 1 0.84375 1 0.875 1 0.90625 1 0.9375 1 0.96875 1 1 2 1.0188167926299672 4
7 0 0  4 11 4  94.175864495361722 -91.754788965004067 54.168330596389374  94.667403150771051 -92.162193678596978 54.166336242487851  95.15823578351403 -92.568985111620762 54.164351625647292  95.648362186055337 -92.975163463225911 54.162376710728275  97.585676138163365 -94.580390140501436 54.154636288363243  98.991836396844363 -95.829719287593733 54.14477958177293  100.46946216951638 -96.994105858992555 54.143221305081425  102.40541469595269 -98.601076951043424 54.136636231133942  102.89527790592699 -99.007629435178458 54.134992371861223  103.38589001122536 -99.414776981010689 54.133355032427552  103.87725089096294 -99.822519669096934 54.131724193127987 
 -0.33803861024295478 5 0 3 1 3 1.3380413419560104 5
7 0 0  3 39 35  143.52421695556498 12.429807571050409 -2.1501916803675445  143.55598314460968 11.975837072647659 -1.4334611202450294  143.58774933365439 11.521866574244909 -0.71673056012251457  143.67128629576376 10.328040135999533 1.1680877150367712  143.78147199342845 8.7849266343597243 3.5795538164435747  143.92881699001995 6.04725260486601 6.8662573974040102  144.03623615283826 2.2760647481934777 8.9212007291028215  144.02677171667233 -1.8174052675647665 10.050415984611956  143.89772473136702 -5.9405849031116249 10.992607198961617  143.65047701939937 -10.089721890642648 11.794802946134887  143.28606746807151 -14.236918300358752 12.547703757996999  142.80513039111844 -18.376041297661271 13.273714586406314  142.20791039438069 -22.500949111026841 13.991878403485835  141.49451339822619 -26.606316095694542 14.71791461365139  140.66529761562441 -30.684479446612993 15.464021278777404  139.72081894129985 -34.733941812467094 16.233261122488365  138.66154481694986 -38.749127305231838 17.033644176186119  137.49005444802353 -42.724146267792605 17.871168992103442  136.20731088612428 -46.656975416118968 18.748856237342483  134.81557016443705 -50.542269472526129 19.672343845554227  133.31889580084427 -54.373692120473898 20.651258630974397  131.71967888748711 -58.147749173708554 21.691576699725687  130.0212343230217 -61.858963346077957 22.802106632307517  128.2305025250964 -65.498124991963067 24.000353145594072  126.35287284573059 -69.058934623628616 25.298449800902386  124.39572077774547 -72.532897567084348 26.712294526751119  122.36839912465062 -75.909617215267915 28.260940147369592  120.285443452864 -79.17513802786091 29.967693160296051  118.16327161274644 -82.314976071698453 31.855081950421887  116.02466275330819 -85.309343234649717 33.951533026248192  113.90111981056377 -88.131414455338628 36.291580721834691  111.8369644605347 -90.743696301680515 38.914195871012687  109.87967985167394 -93.111154198989212 41.838091923492883  108.04451869313279 -95.24551517349262 45.008963029397769  106.39206947702947 -97.084246906049501 48.454923590313477  105.34196100421771 -98.227465672453846 50.819912575870575  104.50578059920959 -99.138057389444896 52.71057473104284  104.19151574508628 -99.480288529270922 53.421149462085417  103.87725089096294 -99.822519669096934 54.131724193127987 
 -0.019174784320990412 4 0 2 0.03125 1 0.0625 1 0.09375 1 0.125 1 0.15625 1 0.1875 1 0.21875 1 0.25 1 0.28125 1 0.3125 1 0.34375 1 0.375 1 0.40625 1 0.4375 1 0.46875 1 0.5 1 0.53125 1 0.5625 1 0.59375 1 0.625 1 0.65625 1 0.6875 1 0.71875 1 0.75 1 0.78125 1 0.8125 1 0.84375 1 0.875 1 0.90625 1 0.9375 1 0.96875 1 1 2 1.0188167926299672 4
2 0 0 -2.1893196155438859 -0 -0 -1 0.99601298840745756 0.089208334384439647 -0 0.089208334384439647 -0.99601298840745756 0 131.4693945505677
2 0 0 54.168330596389374 -0 -0 -1 0.71625357409033941 -0.69784010890949433 0 -0.69784010890949433 -0.71625357409033941 0 131.48397146215643
7 0 0  3 39 35  116.49885785733984 -60.927972405358794 -2.1893196155438859  116.27786712823705 -61.333153674760936 -1.4130012846307169  116.07012617163358 -61.714041800001013 -0.68322807944942188  115.55866404269331 -62.651795503500168 1.1134872301756142  114.90745341075291 -63.855164994063131 3.425852789002731  113.7078500549199 -65.984019631570561 6.6067329739297955  111.91855787807707 -68.972492107882147 8.6344607482171352  109.85688601771506 -72.182092131436022 9.7693222665562178  107.67994564621989 -75.359628463454683 10.712138046577579  105.39278933039191 -78.499657294958382 11.515675769308123  103.01191561037962 -81.578323509671719 12.269745211401791  100.54161767963657 -84.590407404113591 12.998500354925532  97.985742053826129 -87.530495711203386 13.72164856720577  95.346959563158222 -90.394762473636163 14.453768678469514  92.630189680378379 -93.176335066575518 15.209590653508021  89.837142689318924 -95.87410456427267 15.992251478200226  86.970568315149052 -98.484387345311049 16.809090541176136  84.036572322229375 -101.00298501157677 17.667567964783895  81.037850849480492 -103.42851040800542 18.571535460242728  77.97809916592594 -105.75854580187202 19.525407658672112  74.865594053794766 -107.98924306859219 20.540345437663426  71.705345662904335 -110.1186548889016 21.624064827393067  68.50279216033033 -112.14446957056076 22.784418594741769  65.269727106641383 -114.06246273527825 24.03920633853453  62.016468501887282 -115.86965039685835 25.402624230720004  58.755070550076098 -117.56298479583779 26.889577887208009  55.500031250495134 -119.13920087779363 28.516616505116602  52.269842809370672 -120.59548719812706 30.301025144125521  49.087849435836958 -121.92913785038499 32.261018012846172  45.980936707756776 -123.13778780878843 34.415238824914979  42.985442835297434 -124.21826353710316 36.78718634360466  40.151333708948854 -125.16570426225613 39.402725536345812  37.515268287974791 -125.98341354887978 42.261669183759729  35.089690401826509 -126.68488784034463 45.328867753431361  32.939229895719983 -127.2569014455469 48.621641208416328  31.585919562639972 -127.60182134657873 50.874696174363976  30.50947017654908 -127.87690247842946 52.677587479446423  30.077922966290089 -127.98718215955421 53.400364344909555  29.619394602648008 -128.1043567363491 54.168330596389374 
 -0.019174784320990412 4 0 2 0.03125 1 0.0625 1 0.09375 1 0.125 1 0.15625 1 0.1875 1 0.21875 1 0.25 1 0.28125 1 0.3125 1 0.34375 1 0.375 1 0.40625 1 0.4375 1 0.46875 1 0.5 1 0.53125 1 0.5625 1 0.59375 1 0.625 1 0.65625 1 0.6875 1 0.71875 1 0.75 1 0.78125 1 0.8125 1 0.84375 1 0.875 1 0.90625 1 0.9375 1 0.96875 1 1 2 1.0188167926299672 4
2 0 0 -2.1501916803675445 -0 -0 -1 0.99627081612309631 0.086281289636977024 -0 0.086281289636977024 -0.99627081612309631 0 144.06144858691871
2 0 0 54.131724193127987 -0 -0 -1 0.72103921154891348 -0.69289425990472842 0 -0.69289425990472842 -0.72103921154891348 0 144.06602196823269
7 0 0  3 39 35  127.46031588672643 -67.138430447973263 -2.1501916803675445  127.24160432412768 -67.537508831968296 -1.4334611202450294  127.02289276152892 -67.936587215963314 -0.71673056012251457  126.44773722455234 -68.986061416207079 1.1680877150367712  125.70616118702692 -70.343781986678408 3.5795538164435747  124.35001736072208 -72.726520655135403 6.8662573974040102  122.40152602532667 -75.957120946527695 8.9212007291028215  120.18046705941632 -79.395650198317313 10.050415984611956  117.84274661844869 -82.794521565593044 10.992607198961617  115.39155579459745 -86.151325509441847 11.794802946134887  112.84285131504762 -89.443154462741774 12.547703757996999  110.20048245918046 -92.665192092616707 13.273714586406314  107.46797549490046 -95.812403855976299 13.991878403485835  104.64829878902836 -98.880366800225175 14.71791461365139  101.74589651467724 -101.86282822809505 15.464021278777404  98.762045849486952 -104.75882902688051 16.233261122488365  95.700154583096676 -107.56393117914322 17.033644176186119  92.565576670239338 -110.27457441377071 17.871168992103442  89.360216151410782 -112.8895773009306 18.748856237342483  86.088860797795036 -115.40566281051188 19.672343845554227  82.758354729520391 -117.81969739746971 20.651258630974397  79.372598561010435 -120.13003428728356 21.691576699725687  75.937342206933408 -122.33385786314687 22.802106632307517  72.463403428491233 -124.4271727512174 24.000353145594072  68.958721797308641 -126.40759318886413 25.298449800902386  65.434094540267949 -128.27196049405046 26.712294526751119  61.903010566504413 -130.01658499169073 28.260940147369592  58.385242907344619 -131.63758505469985 29.967693160296051  54.902433742872368 -133.13165218317351 31.855081950421887  51.484444373785706 -134.49445489561546 33.951533026248192  48.172279479412069 -135.72045828745382 36.291580721834691  45.023495306057029 -136.80208298364462 38.914195871012687  42.096978341204135 -137.7355273526569 41.838091923492883  39.399219871265977 -138.53890303387846 45.008963029397769  37.014997703423845 -139.19236110482274 48.454923590313477  35.513519512415577 -139.58636642770131 50.819912575870575  34.317776742375948 -139.9003316688829 52.71057473104284  33.868376200405734 -140.01833041667561 53.421149462085417  33.4189756584355 -140.13632916446829 54.131724193127987 
 -0.019174784320990412 4 0 2 0.03125 1 0.0625 1 0.09375 1 0.125 1 0.15625 1 0.1875 1 0.21875 1 0.25 1 0.28125 1 0.3125 1 0.34375 1 0.375 1 0.40625 1 0.4375 1 0.46875 1 0.5 1 0.53125 1 0.5625 1 0.59375 1 0.625 1 0.65625 1 0.6875 1 0.71875 1 0.75 1 0.78125 1 0.8125 1 0.84375 1 0.875 1 0.90625 1 0.9375 1 0.96875 1 1 2 1.0188167926299672 4
7 0 0  4 11 4  116.49885785733984 -60.927972405358794 -2.1893196155438859  117.06310397365262 -61.228749502783486 -2.1845764019768654  117.62582616908726 -61.528791722911123 -2.1798478684235238  118.18702514834166 -61.828098235999178 -2.1751344321484001  120.40217280092624 -63.010248765959915 -2.1565617501982786  121.99247727673185 -64.00963416097504 -2.1630656328693658  123.63994953732544 -64.907618354326416 -2.1541489134559368  125.80797923115418 -66.173543045578555 -2.1518798357958828  126.35723020474451 -66.494272632767178 -2.1513145719738698  126.90800919726256 -66.815901834191195 -2.150751859124453  127.46031588672643 -67.138430447973263 -2.1501916803675445 
 -0.33803861024295478 5 0 3 1 3 1.3380413419560104 5
7 0 0  4 11 4  29.619394602648008 -128.1043567363491 54.168330596389374  29.81264361564206 -128.71283325142275 54.166336242487851  30.00563024908201 -129.32041213737949 54.164351625647292  30.198354220709149 -129.92709344955338 54.162376710728275  30.96027536411939 -132.32488706154209 54.154636288363243  31.467774318106514 -134.13611725192931 54.14477958177293  32.081317311773866 -135.91452637433062 54.143221305081425  32.841150049197964 -138.31305143912374 54.136636231133942  33.033450337831503 -138.91990519896558 54.134992371861223  33.226058922659718 -139.52766443994261 54.133355032427552  33.4189756584355 -140.13632916446829 54.131724193127987 
 -0.33803861024295478 5 0 3 1 3 1.3380413419560104 5
Polygon3D 0
PolygonOnTriangulations 0
Surfaces 5
9 0 0 0 0 3 4 39 11 35 4 130.94522455043003 11.728165710386868 -2.1893196155438859  131.58251096498802 11.780190396153122 -2.1845764019768654  132.21811807106093 11.832009406212435 -2.1798478684235238  132.85204601288567 11.883623819577066 -2.1751344321484001  135.35466563023869 12.086734747587521 -2.1565617501982786  137.23282342570155 12.10578176517401 -2.1630656328693658  139.10425219352297 12.241040139793341 -2.1541489134559368  141.61252539265507 12.348201866918837 -2.1518798357958828  142.24798422079877 12.37533446396308 -2.1513145719738698  142.88521486843925 12.402536366755788 -2.150751859124453  143.52421695556498 12.429807571050409 -2.1501916803675445  
130.97837285155663 11.267828927633055 -1.4130012846307169  131.61571969360045 11.318377759349161 -1.4121771240121677  132.25139194909198 11.368771037267885 -1.4113558961014558  132.88538966611017 11.419009121059981 -1.4105377399867614  135.38828646148889 11.617122127825992 -1.4073195992368326  137.26560944989092 11.644029597227378 -1.4184559772088416  139.13706222375677 11.778185793440485 -1.4186322965632243  141.6447818267871 11.890365388330872 -1.4270403466757566  142.28008913037883 11.918779480490988 -1.4291734840574974  142.91715627854322 11.947270042401756 -1.4313137437894869  143.55598314460968 11.975837072647659 -1.4334611202450294  
131.00953370528916 10.835092206064294 -0.68322807944942188  131.64702776915843 10.882996293968958 -0.68398499001987945  132.28285269503448 10.930775062690735 -0.68473993996028126  132.91700848291723 10.978428512229627 -0.68549292927062799  135.42054367792687 11.166556351955649 -0.68846568250407314  137.29735687693685 11.19690483514772 -0.69743409958571967  139.16909308449479 11.326323268341433 -0.7005826587445787  141.67670244333979 11.43729538632663 -0.70974706807712895  142.3119701394906 11.465408523261209 -0.71206862673287397  142.94898576959545 11.493598919233969 -0.71439645741466917  143.58774933365439 11.521866574244909 -0.71673056012251457  
131.0862523112406 9.769686286582246 1.1134872301756142  131.72436177784158 9.8075614924319385 1.114720801043001  132.36081834560918 9.8453385899054986 1.1159511765842651  132.99562201454339 9.8830175790029244 1.1171783567994069  135.50178595803806 10.031771797865336 1.1220231851421949  137.37811325461828 10.059547275274181 1.1366394138887501  139.25127704881885 10.166945943272687 1.1417707609780958  141.75976239590008 10.258371639323983 1.1567064070249047  142.3952202480107 10.281531900757475 1.1604899545620007  143.03239488129861 10.304754732982659 1.1642837238992896  143.67128629576376 10.328040135999533 1.1680877150367712  
131.18900973158259 8.405276402956849 3.425852789002731  131.82766385837286 8.4301552984692947 3.4274062947803237  132.46472558952496 8.4549721619004696 3.4289559271063554  133.10019492503878 8.479726993250372 3.4305016859808264  135.6092332242041 8.5774670673580538 3.4366048415551007  137.4852089593706 8.5986117436572886 3.4874755066372547  139.36012162538657 8.6768025977562928 3.4979138076120107  141.86967883378711 8.7381737701068793 3.5442526533497345  142.50531695947939 8.75371828801382 3.5559896788906844  143.14258134602647 8.7693025760981023 3.5677567332552975  143.78147199342845 8.7849266343597243 3.5795538164435747  
131.3307848819581 5.9658153793496522 6.6067329739297955  131.96966776376354 5.9720917987505464 6.6065627100132858  132.60710822609903 5.9783540477458725 6.6063928305052411  133.24310626896457 5.9846021263356297 6.6062233354056614  135.75483096171439 6.0092774432681013 6.6055539543726729  137.6302677798125 6.0062725633120255 6.7058635265278692  139.50714114411886 6.0400767098570904 6.7178242531839469  142.01745803178639 6.0441506788798609 6.8020941638719048  142.65311975285849 6.0451822881453463 6.8234329664452638  143.29023940560302 6.0462162634740633 6.8448207109559656  143.92881699001995 6.04725260486601 6.8662573974040102  
131.44122671945851 2.4843879657285681 8.6344607482171352  132.08015001120995 2.4857911935293249 8.6469416551362475  132.71754244969617 2.4871910592115167 8.6593926579379854  133.35340403491722 2.4885875627751437 8.671813756622349  135.86423855293435 2.4941019536954103 8.7208611028581764  137.73912195038753 2.4034385472063522 8.7739788391176692  139.61591837616845 2.4137491602213306 8.8077601066863398  142.12526711697484 2.3355877647274634 8.8721586629438658  142.76074155518847 2.3157939560456615 8.8884671320275146  143.39773123380959 2.2959529505343332 8.904814487413832  144.03623615283826 2.2760647481934777 8.9212007291028215  
131.44207876383001 -1.3303233529724874 9.7693222665562178  132.08104583737645 -1.3431914477153266 9.7822052818325815  132.7183626003293 -1.3560263070162275 9.7950550231305691  133.35402905268856 -1.3688279308751898 9.8078714904501823  135.86361834661579 -1.4193683016342526 9.8584704626814386  137.73526827909203 -1.5515097076806539 9.9059552150708114  139.61128464229188 -1.5793750323272659 9.9445170929029647  142.11731424590093 -1.714470165890303 10.004620486513113  142.75211748495298 -1.748691161620946 10.019845298257881  143.38860330854345 -1.7830028621791008 10.035110464290828  144.02677171667233 -1.8174052675647665 10.050415984611956  
131.32862582558431 -5.1803798399798637 10.712138046577579  131.96733694866936 -5.2059834019090685 10.726725078379436  132.6042896030639 -5.2315164733451667 10.74127194986815  133.23948378876796 -5.25697905428816 10.755778661043722  135.7467756210882 -5.3574870920898618 10.813040769644456  137.61455515795276 -5.5359723114830626 10.851717002083079  139.48910970409554 -5.6009299519987792 10.896179374040967  141.99090488167417 -5.793676906196052 10.950900111932221  142.62473362676809 -5.8425092651335095 10.96476358762323  143.26034024333237 -5.8914785974387005 10.978665949966361  143.89772473136702 -5.9405849031116249 10.992607198961617  
131.10217524905516 -9.0584702479120907 11.515675769308123  131.74028165051106 -9.0977273252688367 11.531100717278511  132.37655945090654 -9.1368719048773634 11.546481462469938  133.01100865024148 -9.1759039867376764 11.561818004882403  135.51507404536869 -9.3299571175299167 11.62234878524467  137.37815770034499 -9.5501364070759447 11.655666302136368  139.25054295933603 -9.6541576270392113 11.704742347716719  141.74712554803628 -9.9013027301085028 11.755843959438455  142.37971777861927 -9.9639251615617539 11.768792252313592  143.01416826907365 -10.026731548406469 11.781778581212402  143.65047701939937 -10.089721890642648 11.794802946134887  
130.76370943986547 -12.935606591693675 12.269745211401791  131.40086498499019 -12.988679743275691 12.286002522455863  132.03614842167451 -13.041596953822904 12.302212065818868  132.66955974991839 -13.094358223335314 12.318373841490802  135.1693447874099 -13.302582841691686 12.38215698398054  137.02708418260792 -13.563481008860542 12.410500878404374  138.89653552271528 -13.707497067450364 12.463409134816017  141.38705461777855 -14.00787845350799 12.511235958098474  142.01815780755717 -14.083995778312627 12.523355383639274  142.65116209098818 -14.160342393929547 12.535511316938782  143.28606746807151 -14.236918300358752 12.547703757996999  
130.31401807741821 -16.805076701712593 12.998500354925532  130.94985138062307 -16.872334044646049 13.015357173631005  131.58379405148506 -16.939391399772632 13.032163869062842  132.21584609000413 -17.006248767092337 13.048920441221044  134.71017740778674 -17.270094803442085 13.115048608153019  136.56194485122256 -17.570136240064919 13.13894110479476  138.42760653216035 -17.755221827051237 13.194658049547662  140.91122614848982 -18.10744821463588 13.239511343799677  141.54060636517201 -18.196706778500349 13.250877728518844  142.17190777938157 -18.286237806175482 13.262278809387722  142.80513039111844 -18.376041297661271 13.273714586406314  
129.75341042346474 -20.660247064540513 13.72164856720577  130.38754801887112 -20.74185145515791 13.738896484250144  131.01980230538121 -20.823213490999407 13.756093177150344  131.65017328299496 -20.904333172064995 13.773238645906371  134.13787954294276 -21.224465198377093 13.840901802156946  135.98304778320991 -21.56296945108943 13.860538824751622  137.84406674858155 -21.789695418737978 13.918096407133797  140.31993125378426 -22.19323136408002 13.959957262085988  140.94734433194634 -22.295492101323134 13.970565293262526  141.57667071214519 -22.398064683638744 13.981205673729143  142.20791039438069 -22.500949111026841 13.991878403485835  
129.08206485466985 -24.496455120250243 14.453768678469514  129.71413107610076 -24.59254589787307 14.471146311361867  130.34434276841446 -24.68835473803593 14.488472956991977  130.97269993161092 -24.783881640738819 14.505748615359844  133.45254894416706 -25.160884258382666 14.573928031230398  135.2904804416616 -25.53721605188364 14.589733086284291  137.14597978006819 -25.805804064311143 14.64888774626924  139.61323272002147 -26.25999525525685 14.688051923538801  140.23844157944075 -26.37508858511011 14.697976236609552  140.86553513884235 -26.490528865256007 14.707930466647081  141.49451339822619 -26.606316095694542 14.71791461365139  
128.30040427335078 -28.305259581151706 15.209590653508021  128.93000038944956 -28.416009956628578 15.226859163100837  129.55779418794333 -28.526443291789647 15.244078238877186  130.18378566883214 -28.636559586634903 15.261247880837072  132.65447740421931 -29.071171602791008 15.329013807027648  134.4845938298447 -29.484689082316002 15.340858826833344  136.33364501828549 -29.795704133294073 15.400559405772958  138.79147663236668 -30.300005901222583 15.436568433333191  139.41425211241929 -30.427787956678998 15.445692548791961  140.03885910683852 -30.555945805142468 15.454843497273364  140.66529761562441 -30.684479446612993 15.464021278777404  
127.40926793130028 -32.08480291029192 15.992251478200226  128.03601743630685 -32.210216021811121 16.009151742499249  128.66103693309867 -32.335282957208229 16.026005357226421  129.28432642167564 -32.460003716483229 16.042812322381735  131.74460923578781 -32.952308409937729 16.109153706741356  133.56619391246912 -33.403049033806404 16.116856269037058  135.40786605884637 -33.756720441816121 16.176183346809548  137.855309741914 -34.311257979262592 16.208572905734894  138.4753877267315 -34.451754171720211 16.216779040391451  139.09722412652678 -34.59264878278838 16.225008445975938  139.72081894129985 -34.733941812467094 16.233261122488365  
126.40897752843739 -35.830499634477327 16.809090541176136  127.03248715675842 -35.970615363171021 16.825372709715445  127.65436040681149 -36.110363363247529 16.841612146297546  128.27459727859667 -36.249743634706832 16.857808850922449  130.72316770682821 -36.799988914372108 16.921750183312433  132.53555895645081 -37.287747473984055 16.925115401755491  134.36895148014744 -37.684056010894075 16.98355748574545  136.80513447457895 -38.288517782960184 17.011983272659048  137.42227353902524 -38.44164132637178 17.019184153537928  138.04107698648221 -38.595177833795667 17.026404454713617  138.66154481694986 -38.749127305231838 17.033644176186119  
125.30239973521286 -39.535516811027257 17.667567964783895  125.92227700368817 -39.690332163495967 17.682952589332672  126.54063296435706 -39.84476756687436 17.698299456811441  127.15746761721951 -39.998823021162444 17.713608567220192  129.5930267164922 -40.607107853641821 17.774056278749981  131.39549585387041 -41.131939735893141 17.772729226971801  133.2196674777542 -41.571044874175904 17.829302274155676  135.64361403450951 -42.225565453248997 17.853066557701503  136.25754574384428 -42.391340947261135 17.859085521765621  136.87302588168228 -42.557534552109004 17.865119666566265  137.49005444802353 -42.724146267792605 17.871168992103442  
124.09105273537062 -43.197229848093251 18.571535460242728  124.70691426527088 -43.366750596300889 18.585719054994701  125.32137877433806 -43.535886803495039 18.599870475667934  125.93444626257217 -43.704638469675693 18.613989722262428  128.35558597066566 -44.37107628873828 18.669749763749472  130.14728954771471 -44.933151392368785 18.663291917016  131.96117712400479 -45.415341857392363 18.716812097372372  134.3717526222911 -46.120230493077344 18.73500389796153  134.98218161501501 -46.298729137973382 18.73961059977087  135.59403436962606 -46.47764411232059 18.744228046231189  136.20731088612428 -46.656975416118968 18.748856237342483  
122.77673806203472 -46.811607006213272 19.525407658672112  123.38818031517464 -46.995796481236802 19.53809004516139  123.99837279621256 -47.179609477752045 19.550746509181714  124.60731550514845 -47.363045995758995 19.563377050733092  127.01271118486456 -48.087641924803179 19.613269182840639  128.79285485786426 -48.687116745797169 19.601289715869367  130.59555977804087 -49.212200214911789 19.651026172114722  132.99177749104734 -49.967443738694314 19.66313083111277  133.59843188422707 -50.158649988083226 19.666195387609157  134.20636277535698 -50.350258566027165 19.669266392422976  134.81557016443705 -50.542269472526129 19.672343845554227  
121.36433813427482 -50.370936270675791 20.540345437663426  121.97094987072443 -50.569820852416775 20.551182756098775  122.57646899946525 -50.768347210249274 20.562000554737597  123.18089552049732 -50.966515344173281 20.572798833579895  125.56903713046121 -51.749494829561748 20.615463769882254  127.33674160743038 -52.386486308509518 20.597599323737235  129.12715085563829 -52.954749102901118 20.642349829258791  131.50782808799889 -53.76062956082734 20.647409531528108  132.1103985891678 -53.964605045119804 20.648690187003282  132.71408782678293 -54.168959231668659 20.649973220152042  133.31889580084427 -54.373692120473898 20.651258630974397  
119.85701495804589 -53.870870760777315 21.624064827393067  120.45838267517698 -54.084486550339896 21.632657996629941  121.05881524014018 -54.297770158338665 21.641237803126167  121.65831265293551 -54.51072158477362 21.649804246881736  124.0275669069931 -55.35232000074695 21.683659411018972  125.78179947291733 -56.02714397843404 21.659397489197406  127.55866670478878 -56.638974440876311 21.697492278357938  129.92240098180767 -57.496059783506261 21.694131832541441  130.52053295667076 -57.712941246705277 21.693281487343107  131.11962559189726 -57.930171043439373 21.692429776404524  131.71967888748711 -58.147749173708554 21.691576699725687  
118.25809361543038 -57.306525662161242 22.784418594741769  118.85377449088632 -57.534904232115323 22.790348659052768  119.44868527285374 -57.762987555307447 22.796271057003977  120.04282596133265 -57.990775631737627 22.802185788595395  122.39153034663754 -58.891247295109835 22.825567382039573  124.13122068003563 -59.604288282880233 22.794389266899302  125.8933409596529 -60.259868203674451 22.824463367660709  128.2388008488202 -61.168470530651383 22.811760320026458  128.83215034081206 -61.398326829462704 22.808546729849418  129.42629483221256 -61.628491101271564 22.805328833943101  130.0212343230217 -61.858963346077957 22.802106632307517  
116.57521160958864 -60.6679711214394 24.03920633853453  117.16473837398981 -60.911157956218602 24.042066602550467  117.75366588150905 -61.154097590373283 24.044923959093829  118.34199413214637 -61.396790023903435 24.047778408164625  120.66836769473666 -62.356446917132075 24.059065499761651  122.392409144129 -63.108029733773307 24.02077202587364  124.13848106730597 -63.807614873102324 24.04138219240642  126.46412420181865 -64.768392643284272 24.018063907783684  127.05229459341037 -65.011379638552114 24.012166560768481  127.64108736783626 -65.254623754778379 24.006262973371946  128.2305025250964 -65.498124991963067 24.000353145594072  
114.81543572977814 -63.947118517701306 25.402624230720004  115.39832047485577 -64.205221600935872 25.40192167168977  115.98076425805334 -64.463129424950168 25.401219644156981  116.56276707937089 -64.720841989744187 25.40051814812163  118.8647296321478 -65.740157793390921 25.397743560877117  120.57169356148054 -66.530967398337111 25.351948077288867  122.30009479201127 -67.275150177328953 25.360947622678392  124.60396386343676 -68.289172105361246 25.325419696719202  125.18647221012428 -68.545556569274197 25.316436845363476  125.7694418708889 -68.802144075363316 25.307446880091206  126.35287284573059 -69.058934623628616 25.298449800902386  
112.98725887453854 -67.134886917822541 26.889577887208009  113.56298714146375 -67.408015958694079 26.884885745072726  114.13841568954047 -67.681002811095269 26.880196045623538  114.7135445187687 -67.953847475026095 26.875508788860458  116.98885722173752 -69.033269855246772 26.856965161218938  118.67718613801893 -69.864026212545824 26.803614502704683  120.38613108278373 -70.653398682109952 26.799043195256818  122.66592471986935 -71.722054062050233 26.749719180200152  123.24220638308725 -71.992186625691403 26.737251154598631  123.81880506904595 -72.262467794036127 26.724776270115619  124.39572077774547 -72.532897567084348 26.712294526751119  
111.10111231529699 -70.220691373048751 28.516616505116602  111.66912271555788 -70.509006566819153 28.507575741501686  112.23694989496296 -70.797228759904129 28.498537894129939  112.80459385351222 -71.085357952303681 28.489502963001357  115.05074075455725 -72.225474891560651 28.453752062723137  116.71866748706583 -73.09705280402153 28.393059008452958  118.40615539759685 -73.93224715109011 28.373182795006262  120.65942623080461 -75.056748973541815 28.309352020933659  121.22888702019853 -75.340940152893609 28.293220305892909  121.79854465148054 -75.625229566802304 28.277083014704889  122.36839912465062 -75.909617215267915 28.260940147369592  
109.17103270416506 -73.192169104188125 30.301025144125521  109.73079120742875 -73.495652433651728 30.287659966625657  110.29047620311559 -73.799095909635611 30.274296544243054  110.8500876912256 -74.102499532139745 30.260934876977714  113.06487440246143 -75.303286731009592 30.208053112167672  114.71074366652508 -76.216389582611555 30.141060143236643  116.37507092690721 -77.097410854331727 30.105500988665995  118.59922569498931 -78.279187467455756 30.027118190987782  119.16121603585354 -78.577793954362988 30.007312745873463  119.72328862181178 -78.876444141164711 29.987504402309554  120.285443452864 -79.17513802786091 29.967693160296051  
107.21519551607132 -76.034422925568279 32.261018012846172  107.7661921286069 -76.353131267757547 32.243632272525595  108.31717788076452 -76.671833328069624 32.226246874885362  108.86815277254418 -76.990529106504511 32.208861819925488  111.0490017185884 -78.251979243122321 32.140048922365466  112.6708841414291 -79.207222334559361 32.068238233374217  114.3098278244909 -80.134453831087555 32.017061045081114  116.50182816587962 -81.374826276740492 31.92492054678878  117.05562772482342 -81.688201097153836 31.90164164196765  117.60944220711237 -82.001584362139823 31.878362109845355  118.16327161274644 -82.314976071698453 31.855081950421887  
105.25493970890462 -78.730927810103907 34.415238824914979  105.79679105722612 -79.064733199840532 34.394704935732044  106.3386424055476 -79.398538589577143 34.374171046549122  106.88049375386908 -79.732343979313754 34.353637157366208  109.02527249540178 -81.053626478534127 34.272359055656295  110.62136555654291 -82.051250619114441 34.198091377932514  112.23301597938639 -83.024399525868944 34.133371299494506  114.38991370732714 -84.324201482063287 34.029931664474788  114.93483005598738 -84.652582066258688 34.003798785065889  115.47974640464773 -84.98096265045416 33.977665905657027  116.02466275330819 -85.309343234649717 33.951533026248192  
103.31911918712105 -81.259368089576668 36.78718634360466  103.85164789809102 -81.607932208095377 36.764952421782787  104.38412077651601 -81.956459781689034 36.742720831058591  104.91653782239605 -82.304950810357681 36.720491571432063  107.02375231344536 -83.684217968112577 36.632512010347817  108.59239094873297 -84.724019581482807 36.559120574041259  110.17539965930656 -85.741899207781699 36.485093010405066  112.29461968163521 -87.101074978021245 36.375021641688036  112.83006844971089 -87.444488584963977 36.347210664932973  113.36556849268707 -87.787935077403105 36.319397024981853  113.90111981056377 -88.131414455338628 36.291580721834691  
101.44714000028863 -83.588641021587193 39.402725536345812  101.97055665034382 -83.951175670275049 39.3809086739439  102.49379194539492 -84.313584706847422 39.359099370715299  103.01684588544194 -84.675868131304284 39.337297626660011  105.08650208986822 -86.10937637926925 39.251030969635508  106.62619929285543 -87.190814939290362 39.182979115081253  108.18041939020976 -88.250711837102656 39.106524670069398  110.25986657694112 -89.668451652072449 38.997148859725307  110.78539088734594 -90.02674723339311 38.969507067390929  111.31109018187713 -90.385162116595794 38.941856071153389  111.8369644605347 -90.743696301680515 38.914195871012687  
99.671627669281349 -85.701706411850068 42.261669183759729  100.18669274670623 -86.076745631633031 42.242955615569507  100.70140010832274 -86.451524384411826 42.224255044065458  101.21574975413087 -86.826042670186425 42.205567469247598  103.25025417715717 -88.307445671282053 42.131648970552327  104.75978423006197 -89.429635422002832 42.073752384040638  106.2891490040503 -90.524025888527149 42.006684649649628  108.33044076060536 -91.994862351829369 41.910836164641552  108.84650216526725 -92.366706273131769 41.886604594779456  109.36291519562344 -92.738803555518388 41.862356514396566  109.87967985167394 -93.111154198989212 41.838091923492883  
98.010347337763548 -87.603190548904536 45.328867753431361  98.517565289754216 -87.98949221597762 45.315093842697877  99.024268098093131 -88.375401545100758 45.301333921103854  99.530455762780306 -88.760918536273977 45.287587988649314  101.53202995218436 -90.28533509744382 45.233233634464675  103.01096797384565 -91.44684476309186 45.190090254403231  104.51808158682012 -92.571057178080423 45.139063610596665  106.52237019631777 -94.091114259826995 45.065119540384892  107.02924228407295 -94.475527214568601 45.046419546248501  107.53662511634461 -94.8603275191238 45.027700709252791  108.04451869313279 -95.24551517349262 45.008963029397769  
96.510518742899777 -89.24702574103587 48.621641208416328  97.010790376072322 -89.642987505597603 48.614685321646839  97.51038330202654 -90.038412077782297 48.607738871771723  98.009297520762431 -90.433299457589939 48.60080185879098  99.981434227056099 -91.994232915337435 48.573380836463699  101.42928169151693 -93.193616505915543 48.550200204918454  102.92062650949227 -94.338156456744613 48.524413803556563  104.89306881469304 -95.898460061547695 48.484930096729045  105.39206012180665 -96.293187924158389 48.474941451470571  105.89172700925214 -96.688450205658995 48.464939282665384  106.39206947702947 -97.084246906049501 48.454923590313477  
95.558519421429835 -90.268845631070164 50.874696174363976  96.054258126765163 -90.670703188099353 50.872472853525586  96.549265354276656 -91.071967791848635 50.870252813265992  97.043541103964316 -91.472639442318012 50.8680360535852  98.997108748629003 -93.056247727745699 50.859274567732172  100.42369868114562 -94.280712840677921 50.851377442485159  101.90623097715999 -95.436680459004322 50.843206077937957  103.85814579572254 -97.022187751677777 50.829972520148459  104.35201317266345 -97.423347843453698 50.826624206784153  104.84661824216182 -97.825107150379054 50.823270892024858  105.34196100421771 -98.227465672453846 50.819912575870575  
94.801672660457299 -91.082231081100531 52.677587479446423  95.293665306148156 -91.488681259871328 52.678926223995745  95.784935615840539 -91.894534673606913 52.680262993186005  96.275483589534403 -92.299791322307257 52.681597787017175  98.214331980409497 -93.901533052256966 52.686873405014857  99.623618382348425 -95.14624966951618 52.691628559195429  101.09931801113414 -96.311356149472275 52.696548843105582  103.03459381600835 -97.917258646830305 52.704517262711313  103.52425462403691 -98.323581853659107 52.706533407294948  104.0146502184373 -98.730514767863951 52.708552563405455  104.50578059920959 -99.138057389444896 52.71057473104284  
94.498253742195516 -91.408316288971335 53.400364344909555  94.989625759189565 -91.815660000167426 53.401038304825043  95.480282023231482 -92.222400963621524 53.401713535068438  95.970222465142783 -92.628539245717093 53.402390023926593  97.906715378763082 -94.233714345193349 53.405085501135936  99.312791982433566 -95.482505538965754 53.406555086453089  100.78827767676539 -96.648516947082612 53.410955944799376  102.72169455427905 -98.25733071172391 53.416729339755967  103.21089583937145 -98.6643771686946 53.418197531248687  103.70083624973881 -99.072029765592831 53.419670907547932  104.19151574508628 -99.480288529270922 53.421149462085417  
94.175864495361722 -91.754788965004067 54.168330596389374  94.667403150771051 -92.162193678596978 54.166336242487851  95.15823578351403 -92.568985111620762 54.164351625647292  95.648362186055337 -92.975163463225911 54.162376710728275  97.585676138163365 -94.580390140501436 54.154636288363243  98.991836396844363 -95.829719287593733 54.14477958177293  100.46946216951638 -96.994105858992555 54.143221305081425  102.40541469595269 -98.601076951043424 54.136636231133942  102.89527790592699 -99.007629435178458 54.134992371861223  103.38589001122536 -99.414776981010689 54.133355032427552  103.87725089096294 -99.822519669096934 54.131724193127987  

-0.019174784320990412 4
0 2
0.03125 1
0.0625 1
0.09375 1
0.125 1
0.15625 1
0.1875 1
0.21875 1
0.25 1
0.28125 1
0.3125 1
0.34375 1
0.375 1
0.40625 1
0.4375 1
0.46875 1
0.5 1
0.53125 1
0.5625 1
0.59375 1
0.625 1
0.65625 1
0.6875 1
0.71875 1
0.75 1
0.78125 1
0.8125 1
0.84375 1
0.875 1
0.90625 1
0.9375 1
0.96875 1
1 2
1.0188167926299672 4

-0.33803861024295478 5
0 3
1 3
1.3380413419560104 5

7 0 0 0 -0 -0 -1 
8 -0.33803861024295478 1.3380413419560104
7 0 0  4 11 4  130.94522455043003 11.728165710386868 -2.1893196155438859  131.58251096498802 11.780190396153122 -2.1845764019768654  132.21811807106093 11.832009406212435 -2.1798478684235238  132.85204601288567 11.883623819577066 -2.1751344321484001  135.35466563023869 12.086734747587521 -2.1565617501982786  137.23282342570155 12.10578176517401 -2.1630656328693658  139.10425219352297 12.241040139793341 -2.1541489134559368  141.61252539265507 12.348201866918837 -2.1518798357958828  142.24798422079877 12.37533446396308 -2.1513145719738698  142.88521486843925 12.402536366755788 -2.150751859124453  143.52421695556498 12.429807571050409 -2.1501916803675445 
 -0.33803861024295478 5 0 3 1 3 1.3380413419560104 5
7 0 0 0 -0 -0 -1 
8 -0.019174784320990412 1.0188167926299672
7 0 0  3 39 35  130.94522455043003 11.728165710386868 -2.1893196155438859  130.97837285155663 11.267828927633055 -1.4130012846307169  131.00953370528916 10.835092206064294 -0.68322807944942188  131.0862523112406 9.769686286582246 1.1134872301756142  131.18900973158259 8.405276402956849 3.425852789002731  131.3307848819581 5.9658153793496522 6.6067329739297955  131.44122671945851 2.4843879657285681 8.6344607482171352  131.44207876383001 -1.3303233529724874 9.7693222665562178  131.32862582558431 -5.1803798399798637 10.712138046577579  131.10217524905516 -9.0584702479120907 11.515675769308123  130.76370943986547 -12.935606591693675 12.269745211401791  130.31401807741821 -16.805076701712593 12.998500354925532  129.75341042346474 -20.660247064540513 13.72164856720577  129.08206485466985 -24.496455120250243 14.453768678469514  128.30040427335078 -28.305259581151706 15.209590653508021  127.40926793130028 -32.08480291029192 15.992251478200226  126.40897752843739 -35.830499634477327 16.809090541176136  125.30239973521286 -39.535516811027257 17.667567964783895  124.09105273537062 -43.197229848093251 18.571535460242728  122.77673806203472 -46.811607006213272 19.525407658672112  121.36433813427482 -50.370936270675791 20.540345437663426  119.85701495804589 -53.870870760777315 21.624064827393067  118.25809361543038 -57.306525662161242 22.784418594741769  116.57521160958864 -60.6679711214394 24.03920633853453  114.81543572977814 -63.947118517701306 25.402624230720004  112.98725887453854 -67.134886917822541 26.889577887208009  111.10111231529699 -70.220691373048751 28.516616505116602  109.17103270416506 -73.192169104188125 30.301025144125521  107.21519551607132 -76.034422925568279 32.261018012846172  105.25493970890462 -78.730927810103907 34.415238824914979  103.31911918712105 -81.259368089576668 36.78718634360466  101.44714000028863 -83.588641021587193 39.402725536345812  99.671627669281349 -85.701706411850068 42.261669183759729  98.010347337763548 -87.603190548904536 45.328867753431361  96.510518742899777 -89.24702574103587 48.621641208416328  95.558519421429835 -90.268845631070164 50.874696174363976  94.801672660457299 -91.082231081100531 52.677587479446423  94.498253742195516 -91.408316288971335 53.400364344909555  94.175864495361722 -91.754788965004067 54.168330596389374 
 -0.019174784320990412 4 0 2 0.03125 1 0.0625 1 0.09375 1 0.125 1 0.15625 1 0.1875 1 0.21875 1 0.25 1 0.28125 1 0.3125 1 0.34375 1 0.375 1 0.40625 1 0.4375 1 0.46875 1 0.5 1 0.53125 1 0.5625 1 0.59375 1 0.625 1 0.65625 1 0.6875 1 0.71875 1 0.75 1 0.78125 1 0.8125 1 0.84375 1 0.875 1 0.90625 1 0.9375 1 0.96875 1 1 2 1.0188167926299672 4
7 0 0 0 -0 -0 -1 
8 -0.33803861024295478 1.3380413419560104
7 0 0  4 11 4  94.175864495361722 -91.754788965004067 54.168330596389374  94.667403150771051 -92.162193678596978 54.166336242487851  95.15823578351403 -92.568985111620762 54.164351625647292  95.648362186055337 -92.975163463225911 54.162376710728275  97.585676138163365 -94.580390140501436 54.154636288363243  98.991836396844363 -95.829719287593733 54.14477958177293  100.46946216951638 -96.994105858992555 54.143221305081425  102.40541469595269 -98.601076951043424 54.136636231133942  102.89527790592699 -99.007629435178458 54.134992371861223  103.38589001122536 -99.414776981010689 54.133355032427552  103.87725089096294 -99.822519669096934 54.131724193127987 
 -0.33803861024295478 5 0 3 1 3 1.3380413419560104 5
7 0 0 0 -0 -0 -1 
8 -0.019174784320990412 1.0188167926299672
7 0 0  3 39 35  143.52421695556498 12.429807571050409 -2.1501916803675445  143.55598314460968 11.975837072647659 -1.4334611202450294  143.58774933365439 11.521866574244909 -0.71673056012251457  143.67128629576376 10.328040135999533 1.1680877150367712  143.78147199342845 8.7849266343597243 3.5795538164435747  143.92881699001995 6.04725260486601 6.8662573974040102  144.03623615283826 2.2760647481934777 8.9212007291028215  144.02677171667233 -1.8174052675647665 10.050415984611956  143.89772473136702 -5.9405849031116249 10.992607198961617  143.65047701939937 -10.089721890642648 11.794802946134887  143.28606746807151 -14.236918300358752 12.547703757996999  142.80513039111844 -18.376041297661271 13.273714586406314  142.20791039438069 -22.500949111026841 13.991878403485835  141.49451339822619 -26.606316095694542 14.71791461365139  140.66529761562441 -30.684479446612993 15.464021278777404  139.72081894129985 -34.733941812467094 16.233261122488365  138.66154481694986 -38.749127305231838 17.033644176186119  137.49005444802353 -42.724146267792605 17.871168992103442  136.20731088612428 -46.656975416118968 18.748856237342483  134.81557016443705 -50.542269472526129 19.672343845554227  133.31889580084427 -54.373692120473898 20.651258630974397  131.71967888748711 -58.147749173708554 21.691576699725687  130.0212343230217 -61.858963346077957 22.802106632307517  128.2305025250964 -65.498124991963067 24.000353145594072  126.35287284573059 -69.058934623628616 25.298449800902386  124.39572077774547 -72.532897567084348 26.712294526751119  122.36839912465062 -75.909617215267915 28.260940147369592  120.285443452864 -79.17513802786091 29.967693160296051  118.16327161274644 -82.314976071698453 31.855081950421887  116.02466275330819 -85.309343234649717 33.951533026248192  113.90111981056377 -88.131414455338628 36.291580721834691  111.8369644605347 -90.743696301680515 38.914195871012687  109.87967985167394 -93.111154198989212 41.838091923492883  108.04451869313279 -95.24551517349262 45.008963029397769  106.39206947702947 -97.084246906049501 48.454923590313477  105.34196100421771 -98.227465672453846 50.819912575870575  104.50578059920959 -99.138057389444896 52.71057473104284  104.19151574508628 -99.480288529270922 53.421149462085417  103.87725089096294 -99.822519669096934 54.131724193127987 
 -0.019174784320990412 4 0 2 0.03125 1 0.0625 1 0.09375 1 0.125 1 0.15625 1 0.1875 1 0.21875 1 0.25 1 0.28125 1 0.3125 1 0.34375 1 0.375 1 0.40625 1 0.4375 1 0.46875 1 0.5 1 0.53125 1 0.5625 1 0.59375 1 0.625 1 0.65625 1 0.6875 1 0.71875 1 0.75 1 0.78125 1 0.8125 1 0.84375 1 0.875 1 0.90625 1 0.9375 1 0.96875 1 1 2 1.0188167926299672 4
Triangulations 0

TShapes 34
Ve
1e-07
130.94522455043 11.7281657103869 -2.18931961554389
0 0

0101101
*
Ve
1e-07
143.524216955565 12.4298075710504 -2.15019168036754
0 0

0101101
*
Ed
 1e-07 1 1 0
1  1 0 -0.338038610242955 1.33804134195601
2  1 1 0 -0.338038610242955 1.33804134195601
2  2 2 0 -0.338038610242955 1.33804134195601
2  3 2 2 -0.338038610242955 1.33804134195601
0

0101000
+34 0 -33 0 *
Ve
1e-07
94.1758644953617 -91.7547889650041 54.1683305963894
0 0

0101101
*
Ed
 1e-07 1 1 0
1  2 0 -0.0191747843209904 1.01881679262997
2  4 1 0 -0.0191747843209904 1.01881679262997
2  5 3 0 -0.0191747843209904 1.01881679262997
2  6 3 4 -0.0191747843209904 1.01881679262997
0

0101000
+34 0 -31 0 *
Ve
1e-07
103.877250890963 -99.8225196690969 54.131724193128
0 0

0101101
*
Ed
 1e-07 1 1 0
1  3 0 -0.338038610242955 1.33804134195601
2  7 1 0 -0.338038610242955 1.33804134195601
2  8 4 0 -0.338038610242955 1.33804134195601
2  9 4 6 -0.338038610242955 1.33804134195601
0

0101000
+31 0 -29 0 *
Ed
 1e-07 1 1 0
1  4 0 -0.0191747843209904 1.01881679262997
2  10 1 0 -0.0191747843209904 1.01881679262997
2  11 5 0 -0.0191747843209904 1.01881679262997
2  12 5 8 -0.0191747843209904 1.01881679262997
0

0101000
+33 0 -29 0 *
Wi

0101100
-32 0 +30 0 +28 0 -27 0 *
Fa
1  1e-07 1 0

0111000
+26 0 *
Ve
1e-07
116.49885785734 -60.9279724053588 -2.18931961554389
0 0

0101101
*
Ed
 1e-07 1 1 0
1  5 0 0 0.571198664289053
2  13 3 0 0 0.571198664289053
2  14 2 0 0 0.571198664289053
4 C0 3 0 2 0
0

0101000
+34 0 -24 0 *
Ve
1e-07
29.619394602648 -128.104356736349 54.1683305963894
0 0

0101101
*
Ed
 1e-07 1 1 0
1  6 0 0 0.571198664289053
2  15 3 0 0 0.571198664289053
2  16 4 0 0 0.571198664289053
4 C0 3 0 4 0
0

0101000
+31 0 -22 0 *
Ed
 1e-07 1 1 0
1  7 0 -0.0191747843209904 1.01881679262997
2  6 3 0 -0.0191747843209904 1.01881679262997
2  17 1 9 -0.0191747843209904 1.01881679262997
4 C0 3 0 1 9
0

0101000
+24 0 -22 0 *
Wi

0101100
+23 0 -21 0 -30 0 +20 0 *
Fa
0  1e-07 3 0

0111000
+19 0 *
Ve
1e-07
127.460315886726 -67.1384304479733 -2.15019168036754
0 0

0101101
*
Ed
 1e-07 1 1 0
1  8 0 0 0.571198664289053
2  18 5 0 0 0.571198664289053
2  19 2 0 0 0.571198664289053
4 C0 5 0 2 0
0

0101000
+33 0 -17 0 *
Ve
1e-07
33.4189756584355 -140.136329164468 54.131724193128
0 0

0101101
*
Ed
 1e-07 1 1 0
1  9 0 0 0.571198664289053
2  20 5 0 0 0.571198664289053
2  21 4 0 0 0.571198664289053
4 C0 5 0 4 0
0

0101000
+29 0 -15 0 *
Ed
 1e-07 1 1 0
1  10 0 -0.0191747843209904 1.01881679262997
2  12 5 0 -0.0191747843209904 1.01881679262997
2  22 1 9 -0.0191747843209904 1.01881679262997
4 C0 5 0 1 9
0

0101000
+17 0 -15 0 *
Wi

0101100
+16 0 -14 0 -27 0 +13 0 *
Fa
0  1e-07 5 0

0111000
+12 0 *
Ed
 1e-07 1 1 0
1  11 0 -0.338038610242955 1.33804134195601
2  1 1 9 -0.338038610242955 1.33804134195601
2  23 2 0 -0.338038610242955 1.33804134195601
4 C0 1 9 2 0
0

0101000
+24 0 -17 0 *
Ed
 1e-07 1 1 0
1  12 0 -0.338038610242955 1.33804134195601
2  7 1 9 -0.338038610242955 1.33804134195601
2  24 4 0 -0.338038610242955 1.33804134195601
4 C0 1 9 4 0
0

0101000
+22 0 -15 0 *
Wi

0101100
-10 10 +20 10 +9 10 -13 10 *
Fa
1  1e-07 1 0

0111000
+8 0 *
Wi

0101100
+23 0 -16 0 -32 0 +10 0 *
Fa
0  1e-07 2 0

0111000
+6 0 *
Wi

0101100
+21 0 -14 0 -28 0 +9 0 *
Fa
0  1e-07 4 0

0111000
+4 0 *
Sh

0101100
+25 0 +18 0 -11 0 -7 9 -5 0 +3 0 *
So

1100000
+2 0 *

+1 0 