DBRep_DrawableShape

CASCADE Topology V1, (c) Matra-Datavision
Locations 6
1
-1.56697842532061e-13 -0.999971817859617 0.00750756195665067               0 
-0.975504442076781 -0.00165151148406912 -0.219973534767905            6.49 
0.219979734267656 -0.00732366003791385 -0.97547695027365 394.343971929687 
1
              1               0               0               0 
              0               1               0               0 
              0               0               1           -1045 
1
              1               0               0               0 
              0               1               0               0 
              0               0               1            2090 
2  2 1 3 1 0
2  2 -1 0
2  3 -1 2 -1 0
Curve2ds 20
1 3.067499999999507 0 0 -1 
1 4.7636509103402789 0 0 -1 
1 3.9155754551698929 0 0 -1 
1 3.9155754551698929 0 0 -1 
1 0 0 1 0 
1 0 -2090 1 0 
1 4 0 0 -1 
1 4 0 0 -1 
1 0 0 1 0 
1 0 -2090 1 0 
1 4.3479026156791623 0 0 -1 
1 4.3479026156791623 0 0 -1 
1 0 0 1 0 
1 0 -2090 1 0 
1 4.6958051480713907 0 0 -1 
1 4.6958051480713907 0 0 -1 
1 0 0 1 0 
1 0 -2090 1 0 
1 0 0 1 0 
1 0 -2090 1 0 
Curves 10
1 -54.367856029189646 111.1092131777993 -1045 0 0 1 
1 -48.874520683726843 -104.23628167121612 -1045 0 0 1 
7 0 0  14 28 3  -54.36785602918966 111.1092131777993 0  -44.354642109474298 109.040700945834 0  -34.258800883155217 105.864550413899 0  -24.255526608237631 101.51378970682229 0  -14.548118316162441 95.961728869552502 0  -5.3564552312687619 89.231264860314596 0  3.0975663163115188 81.408471123236737 0  10.61479802063428 72.645308696709236 0  17.045166123731651 63.147089316367257 0  22.30426264640197 53.148147034071208 0  26.374320949465009 42.883735610491307 0  29.29210810728441 32.567166462582911 0  31.132600181504561 22.37833837187334 0  31.99648503632277 12.462787598398471 0  31.996485036323016 -6.2318935795406549 0  31.198846405649753 -15.747825206559339 0  29.503811554649275 -25.52279498484253 0  26.821070361030031 -35.429944878974759 0  23.082945055956316 -45.311546230306014 0  18.252793008130176 -54.982164518419239 0  12.338573317769182 -64.236638696830141 0  5.4039055028251415 -72.866749785847503 0  -2.4314651764635959 -80.684128781346757 0  -11.003401301845219 -87.541474456306929 0  -20.122597472158468 -93.344294374453611 0  -29.594248046599173 -98.051202057296479 0  -39.233306442458122 -101.66763197524085 0  -48.87452068372685 -104.23628167121609 0 
 3.067499999999507 15 3.499999999999825 13 3.9155754551698929 15
1 -75.838598344900561 -107.7934331362278 -1045 0 0 1 
7 0 0  14 15 2  -48.87452068372685 -104.23628167121609 0  -50.833142430517839 -104.75810527439775 0  -52.791853149706171 -105.23668666836758 0  -54.7492673519886 -105.67238383364983 0  -56.704033262989491 -106.06561821865229 0  -58.654836295705323 -106.41687143250329 0  -60.600402155755361 -106.72668170782852 0  -62.539499567795929 -106.99564018072495 0  -64.470942623166124 -107.22438703068588 0  -66.393592761629037 -107.41360751378798 0  -68.306360413631282 -107.56402790694537 0  -70.208206343424834 -107.67641135822593 0  -72.098142747196775 -107.75155360676004 0  -73.975234173476977 -107.79027849417993 0  -75.838598344900561 -107.7934331362278 0 
 3.9155754551698929 15 4 15
1 -80.416664500966561 2.8987597036057009 -1045 0 0 1 
7 0 0  14 54 5  -75.838598344900561 -107.7934331362278 0  -75.915263155675945 -106.797746490137 0  -75.992009714311436 -105.80218762298909 0  -76.068820251410642 -104.806728477203 0  -76.1457229434629 -103.8114139102254 0  -76.222709620645276 -102.8162311335599 0  -76.299762911684923 -101.8211527378526 0  -76.376884876549681 -100.8261821461971 0  -76.45409284951765 -99.831346988815113 0  -76.531394158324261 -98.836659063554862 0  -76.608771573797526 -97.8420911976051 0  -76.686203385234791 -96.847609120999905 0  -76.763708422244449 -95.853242831559712 0  -76.841344812299951 -94.85908466314234 0  -76.996964616730324 -92.866972355685121 0  -77.074927586614606 -91.868987452877406 0  -77.152726568277629 -90.870730280346379 0  -77.230390606136879 -89.872287548806895 0  -77.307706879477578 -88.873278182305924 0  -77.384543288154447 -87.87348583170062 0  -77.460919823884268 -86.872987287712149 0  -77.536839802085808 -85.871815580677435 0  -77.612181035206802 -84.869753950740403 0  -77.686796694994129 -83.866547915382569 0  -77.760678463249945 -82.862230776770943 0  -77.833884193882881 -81.856966398958932 0  -77.906221226245833 -80.85040534336575 0  -78.099221576228103 -78.129179024268623 0  -78.21827219841461 -76.412208381164035 0  -78.334110982474201 -74.690453874696715 0  -78.449253994159776 -72.969254081181973 0  -78.554093658111697 -71.22980889678702 0  -78.670538879534377 -69.514569859300437 0  -78.76025699319905 -67.752719633741449 0  -78.873010830142789 -66.033078000176857 0  -78.958608184063195 -64.27041001294036 0  -79.055517813289086 -62.527654303517011 0  -79.141287007858068 -60.76999931478359 0  -79.225400927789892 -59.011933090327943 0  -79.305135656537473 -57.24964603869347 0  -79.557834576695043 -51.368543316354547 0  -79.713406770556148 -47.234826930007543 0  -79.848669509453259 -43.086190614361762 0  -79.963270706318852 -38.925166639561041 0  -80.063816272651707 -34.757301922295788 0  -80.142980946865791 -30.580850823465141 0  -80.217897186334227 -26.40388365013904 0  -80.271547187046508 -22.220150195244379 0  -80.323114058437 -18.037214665130911 0  -80.359268939542986 -13.85076361666178 0  -80.388410258271691 -9.6640464538319684 0  -80.407218358437802 -5.4764170423089702 0  -80.416649446263392 -1.2886699920875739 0  -80.416664500966561 2.8987597036057009 0 
 4 15 4.0452456268457526 13 4.0906672633172549 13 4.167892084686863 13 4.3479026156791623 15
1 -75.838598344959692 113.2861226437538 -1045 0 0 1 
7 0 0  14 54 5  -80.416664500966561 2.8987597036057009 0  -80.416649446193006 7.0861883968420178 0  -80.407218358782956 11.27330747962116 0  -80.388410257296528 15.459684555680539 0  -80.359268941641517 19.644461349514231 0  -80.323114054939325 23.828505027202318 0  -80.271547191827722 28.008006988874492 0  -80.217897181031475 32.188168160324487 0  -80.142980951762894 36.360147051967203 0  -80.06381626900324 40.531326977117949 0  -79.963270708553367 44.692496885124697 0  -79.848669508446548 48.84589015333475 0  -79.713406770913011 52.985520019009442 0  -79.557834576675532 57.108877652239322 0  -79.305135656560125 62.973154452046359 0  -79.225400927976068 64.730132378045397 0  -79.141287007342484 66.482597887980489 0  -79.055517814558812 68.234541948862756 0  -78.958608182006913 69.970844940255105 0  -78.873010832950044 71.727813445155107 0  -78.760256990274513 73.439947373468456 0  -78.670538882139084 75.195823737425599 0  -78.554093656331261 76.903309280689967 0  -78.44925399523666 78.635773734165994 0  -78.334110982043995 80.349306744299085 0  -78.218272198610251 82.063348142225195 0  -78.099221576237255 83.772391815925943 0  -77.906221226304169 86.480767233563697 0  -77.833884193856946 87.482511737797878 0  -77.760678463459342 88.482901722455736 0  -77.686796694742853 89.482299453272731 0  -77.612181035648874 90.480537216031664 0  -77.536839801698463 91.477582259537897 0  -77.460919824311247 92.473698846183964 0  -77.384543287923066 93.469111868533076 0  -77.307706879678634 94.463788077880736 0  -77.230390606120991 95.457649350917194 0  -77.152726568336291 96.450920833290226 0  -77.07492758666595 97.44399777144838 0  -76.996964616772104 98.436791520704034 0  -76.841344812361029 100.41854190510089 0  -76.763708422207145 101.4075306651401 0  -76.686203385578708 102.3967362928842 0  -76.608771573143443 103.386062581917 0  -76.531394159689725 104.3754782857166 0  -76.454092847612031 105.3650191102811 0  -76.376884878970756 106.354713390493 0  -76.299762909414213 107.3445488213833 0  -76.222709622545977 108.3344966392379 0  -76.145722942350773 109.3245532651767 0  -76.068820252041434 110.3147472791042 0  -75.992009714163586 111.30509200502441 0  -75.915263155778788 112.29554071350449 0  -75.838598344959692 113.2861226437538 0 
 4.3479026156791623 15 4.5279131035775286 13 4.605137906459766 13 4.6505595320574766 13 4.6958051480713907 15
7 0 0  14 15 2  -75.838598344959692 113.2861226437538 0  -74.348781825080934 113.28864487634 0  -72.850189812799158 113.2684598491051 0  -71.343273098267403 113.2251318114142 0  -69.828504580274313 113.158235157969 0  -68.306378786929244 113.06735572634589 0  -66.77741139634692 112.9520920945333 0  -65.242138757332555 112.8120568784698 0  -63.701117410066743 112.6468780295818 0  -62.154923606790298 112.456200132321 0  -60.604152832489049 112.2396857017029 0  -59.049419325579059 111.9970164808441 0  -57.491355598591191 111.7278947385 0  -55.930611958856218 111.4320445666028 0  -54.367856029189632 111.1092131777993 0 
 4.6958051480713907 15 4.7636509103402789 15
Polygon3D 0
PolygonOnTriangulations 0
Surfaces 6
6 -0 -0 -1 
7 0 0  14 28 3  -54.36785602918966 111.1092131777993 -1045  -44.354642109474298 109.040700945834 -1045  -34.258800883155217 105.864550413899 -1045  -24.255526608237631 101.51378970682229 -1045  -14.548118316162441 95.961728869552502 -1045  -5.3564552312687619 89.231264860314596 -1045  3.0975663163115188 81.408471123236737 -1045  10.61479802063428 72.645308696709236 -1045  17.045166123731651 63.147089316367257 -1045  22.30426264640197 53.148147034071208 -1045  26.374320949465009 42.883735610491307 -1045  29.29210810728441 32.567166462582911 -1045  31.132600181504561 22.37833837187334 -1045  31.99648503632277 12.462787598398471 -1045  31.996485036323016 -6.2318935795406549 -1045  31.198846405649753 -15.747825206559339 -1045  29.503811554649275 -25.52279498484253 -1045  26.821070361030031 -35.429944878974759 -1045  23.082945055956316 -45.311546230306014 -1045  18.252793008130176 -54.982164518419239 -1045  12.338573317769182 -64.236638696830141 -1045  5.4039055028251415 -72.866749785847503 -1045  -2.4314651764635959 -80.684128781346757 -1045  -11.003401301845219 -87.541474456306929 -1045  -20.122597472158468 -93.344294374453611 -1045  -29.594248046599173 -98.051202057296479 -1045  -39.233306442458122 -101.66763197524085 -1045  -48.87452068372685 -104.23628167121609 -1045 
 3.067499999999507 15 3.499999999999825 13 3.9155754551698929 15
6 -0 -0 -1 
7 0 0  14 15 2  -75.838598344959692 113.2861226437538 -1045  -74.348781825080934 113.28864487634 -1045  -72.850189812799158 113.2684598491051 -1045  -71.343273098267403 113.2251318114142 -1045  -69.828504580274313 113.158235157969 -1045  -68.306378786929244 113.06735572634589 -1045  -66.77741139634692 112.9520920945333 -1045  -65.242138757332555 112.8120568784698 -1045  -63.701117410066743 112.6468780295818 -1045  -62.154923606790298 112.456200132321 -1045  -60.604152832489049 112.2396857017029 -1045  -59.049419325579059 111.9970164808441 -1045  -57.491355598591191 111.7278947385 -1045  -55.930611958856218 111.4320445666028 -1045  -54.367856029189632 111.1092131777993 -1045 
 4.6958051480713907 15 4.7636509103402789 15
6 -0 -0 -1 
7 0 0  14 15 2  -48.87452068372685 -104.23628167121609 -1045  -50.833142430517839 -104.75810527439775 -1045  -52.791853149706171 -105.23668666836758 -1045  -54.7492673519886 -105.67238383364983 -1045  -56.704033262989491 -106.06561821865229 -1045  -58.654836295705323 -106.41687143250329 -1045  -60.600402155755361 -106.72668170782852 -1045  -62.539499567795929 -106.99564018072495 -1045  -64.470942623166124 -107.22438703068588 -1045  -66.393592761629037 -107.41360751378798 -1045  -68.306360413631282 -107.56402790694537 -1045  -70.208206343424834 -107.67641135822593 -1045  -72.098142747196775 -107.75155360676004 -1045  -73.975234173476977 -107.79027849417993 -1045  -75.838598344900561 -107.7934331362278 -1045 
 3.9155754551698929 15 4 15
6 -0 -0 -1 
7 0 0  14 54 5  -75.838598344900561 -107.7934331362278 -1045  -75.915263155675945 -106.797746490137 -1045  -75.992009714311436 -105.80218762298909 -1045  -76.068820251410642 -104.806728477203 -1045  -76.1457229434629 -103.8114139102254 -1045  -76.222709620645276 -102.8162311335599 -1045  -76.299762911684923 -101.8211527378526 -1045  -76.376884876549681 -100.8261821461971 -1045  -76.45409284951765 -99.831346988815113 -1045  -76.531394158324261 -98.836659063554862 -1045  -76.608771573797526 -97.8420911976051 -1045  -76.686203385234791 -96.847609120999905 -1045  -76.763708422244449 -95.853242831559712 -1045  -76.841344812299951 -94.85908466314234 -1045  -76.996964616730324 -92.866972355685121 -1045  -77.074927586614606 -91.868987452877406 -1045  -77.152726568277629 -90.870730280346379 -1045  -77.230390606136879 -89.872287548806895 -1045  -77.307706879477578 -88.873278182305924 -1045  -77.384543288154447 -87.87348583170062 -1045  -77.460919823884268 -86.872987287712149 -1045  -77.536839802085808 -85.871815580677435 -1045  -77.612181035206802 -84.869753950740403 -1045  -77.686796694994129 -83.866547915382569 -1045  -77.760678463249945 -82.862230776770943 -1045  -77.833884193882881 -81.856966398958932 -1045  -77.906221226245833 -80.85040534336575 -1045  -78.099221576228103 -78.129179024268623 -1045  -78.21827219841461 -76.412208381164035 -1045  -78.334110982474201 -74.690453874696715 -1045  -78.449253994159776 -72.969254081181973 -1045  -78.554093658111697 -71.22980889678702 -1045  -78.670538879534377 -69.514569859300437 -1045  -78.76025699319905 -67.752719633741449 -1045  -78.873010830142789 -66.033078000176857 -1045  -78.958608184063195 -64.27041001294036 -1045  -79.055517813289086 -62.527654303517011 -1045  -79.141287007858068 -60.76999931478359 -1045  -79.225400927789892 -59.011933090327943 -1045  -79.305135656537473 -57.24964603869347 -1045  -79.557834576695043 -51.368543316354547 -1045  -79.713406770556148 -47.234826930007543 -1045  -79.848669509453259 -43.086190614361762 -1045  -79.963270706318852 -38.925166639561041 -1045  -80.063816272651707 -34.757301922295788 -1045  -80.142980946865791 -30.580850823465141 -1045  -80.217897186334227 -26.40388365013904 -1045  -80.271547187046508 -22.220150195244379 -1045  -80.323114058437 -18.037214665130911 -1045  -80.359268939542986 -13.85076361666178 -1045  -80.388410258271691 -9.6640464538319684 -1045  -80.407218358437802 -5.4764170423089702 -1045  -80.416649446263392 -1.2886699920875739 -1045  -80.416664500966561 2.8987597036057009 -1045 
 4 15 4.0452456268457526 13 4.0906672633172549 13 4.167892084686863 13 4.3479026156791623 15
6 -0 -0 -1 
7 0 0  14 54 5  -80.416664500966561 2.8987597036057009 -1045  -80.416649446193006 7.0861883968420178 -1045  -80.407218358782956 11.27330747962116 -1045  -80.388410257296528 15.459684555680539 -1045  -80.359268941641517 19.644461349514231 -1045  -80.323114054939325 23.828505027202318 -1045  -80.271547191827722 28.008006988874492 -1045  -80.217897181031475 32.188168160324487 -1045  -80.142980951762894 36.360147051967203 -1045  -80.06381626900324 40.531326977117949 -1045  -79.963270708553367 44.692496885124697 -1045  -79.848669508446548 48.84589015333475 -1045  -79.713406770913011 52.985520019009442 -1045  -79.557834576675532 57.108877652239322 -1045  -79.305135656560125 62.973154452046359 -1045  -79.225400927976068 64.730132378045397 -1045  -79.141287007342484 66.482597887980489 -1045  -79.055517814558812 68.234541948862756 -1045  -78.958608182006913 69.970844940255105 -1045  -78.873010832950044 71.727813445155107 -1045  -78.760256990274513 73.439947373468456 -1045  -78.670538882139084 75.195823737425599 -1045  -78.554093656331261 76.903309280689967 -1045  -78.44925399523666 78.635773734165994 -1045  -78.334110982043995 80.349306744299085 -1045  -78.218272198610251 82.063348142225195 -1045  -78.099221576237255 83.772391815925943 -1045  -77.906221226304169 86.480767233563697 -1045  -77.833884193856946 87.482511737797878 -1045  -77.760678463459342 88.482901722455736 -1045  -77.686796694742853 89.482299453272731 -1045  -77.612181035648874 90.480537216031664 -1045  -77.536839801698463 91.477582259537897 -1045  -77.460919824311247 92.473698846183964 -1045  -77.384543287923066 93.469111868533076 -1045  -77.307706879678634 94.463788077880736 -1045  -77.230390606120991 95.457649350917194 -1045  -77.152726568336291 96.450920833290226 -1045  -77.07492758666595 97.44399777144838 -1045  -76.996964616772104 98.436791520704034 -1045  -76.841344812361029 100.41854190510089 -1045  -76.763708422207145 101.4075306651401 -1045  -76.686203385578708 102.3967362928842 -1045  -76.608771573143443 103.386062581917 -1045  -76.531394159689725 104.3754782857166 -1045  -76.454092847612031 105.3650191102811 -1045  -76.376884878970756 106.354713390493 -1045  -76.299762909414213 107.3445488213833 -1045  -76.222709622545977 108.3344966392379 -1045  -76.145722942350773 109.3245532651767 -1045  -76.068820252041434 110.3147472791042 -1045  -75.992009714163586 111.30509200502441 -1045  -75.915263155778788 112.29554071350449 -1045  -75.838598344959692 113.2861226437538 -1045 
 4.3479026156791623 15 4.5279131035775286 13 4.605137906459766 13 4.6505595320574766 13 4.6958051480713907 15
1 -34.439344225323957 2.8548782061866413 -1045.0000000000018 2.5228467492595884e-29 -9.8371334492235132e-31 -1 -1 0 -2.5228467492595884e-29 2.4817580144406302e-59 1 -9.8371334492235132e-31 
Triangulations 0

TShapes 29
Ve
1.00000014210855e-07
-54.3678560291896 111.109213177799 0
0 0

0101101
*
Ed
 1.00000014210855e-07 1 1 0
1  1 0 0 2090
2  1 1 0 0 2090
2  2 2 0 0 2090
4 G1 1 0 2 0
0

0101000
+29 2 -29 4 *
Ve
1e-07
-48.8745206837268 -104.236281671216 0
0 0

0101101
*
Ed
 1e-07 1 1 0
1  2 0 0 2090
2  3 1 0 0 2090
2  4 3 0 0 2090
4 C1 1 0 3 0
0

0101000
+27 2 -27 4 *
Ed
 1e-07 1 1 0
1  3 0 3.06749999999951 3.91557545516989
2  5 1 5 3.06749999999951 3.91557545516989
2  6 1 6 3.06749999999951 3.91557545516989
0

0101000
+29 0 -27 0 *
Wi

0101100
+28 0 -26 0 -25 2 +25 4 *
Fa
0  1e-07 1 0

0111000
+24 0 *
Ve
1e-07
-75.8385983449006 -107.793433136228 0
0 0

0101101
*
Ed
 1e-07 1 1 0
1  4 0 0 2090
2  7 3 0 0 2090
2  8 4 0 0 2090
0

0101000
+22 2 -22 4 *
Ed
 1e-07 1 1 0
1  5 0 3.91557545516989 4
2  9 3 5 3.91557545516989 4
2  10 3 6 3.91557545516989 4
0

0101000
+27 0 -22 0 *
Wi

0101100
+26 0 -21 0 -20 2 +20 4 *
Fa
0  1e-07 3 0

0111000
+19 0 *
Ve
1e-07
-80.4166645009666 2.8987597036057 0
0 0

0101101
*
Ed
 1e-07 1 1 0
1  6 0 0 2090
2  11 4 0 0 2090
2  12 5 0 0 2090
4 C1 4 0 5 0
0

0101000
+17 2 -17 4 *
Ed
 1e-07 1 1 0
1  7 0 4 4.34790261567916
2  13 4 5 4 4.34790261567916
2  14 4 6 4 4.34790261567916
0

0101000
+22 0 -17 0 *
Wi

0101100
+21 0 -16 0 -15 2 +15 4 *
Fa
0  1e-07 4 0

0111000
+14 0 *
Ve
1e-07
-75.8385983449597 113.286122643754 0
0 0

0101101
*
Ed
 1e-07 1 1 0
1  8 0 0 2090
2  15 5 0 0 2090
2  16 2 0 0 2090
0

0101000
+12 2 -12 4 *
Ed
 1e-07 1 1 0
1  9 0 4.34790261567916 4.69580514807139
2  17 5 5 4.34790261567916 4.69580514807139
2  18 5 6 4.34790261567916 4.69580514807139
0

0101000
+17 0 -12 0 *
Wi

0101100
+16 0 -11 0 -10 2 +10 4 *
Fa
0  1e-07 5 0

0111000
+9 0 *
Ed
 1e-07 1 1 0
1  10 0 4.69580514807139 4.76365091034028
2  19 2 5 4.69580514807139 4.76365091034028
2  20 2 6 4.69580514807139 4.76365091034028
0

0101000
+12 0 -29 0 *
Wi

0101100
+11 0 -28 0 -7 2 +7 4 *
Fa
0  1e-07 2 0

0111000
+6 0 *
Wi

0101100
+25 0 +20 0 +15 0 +10 0 +7 0 *
Fa
0  1e-07 6 0

0111000
+4 2 *
Sh

0101100
+23 0 +18 0 +13 0 +8 0 +5 0 +3 0 -3 3 *
So

1100000
+2 0 *

+1 1 