DBRep_DrawableShape

CASCADE Topology V3, (c) Open Cascade
Locations 11
1
-0.82386892032349 0.566780382621882               0               0 
-0.566780382621882 -0.82386892032349               0               0 
              0               0               1               0 
1
0.623489801858734 -0.78183148246803               0               0 
0.78183148246803 0.623489801858734               0               0 
              0               0               1               0 
2  2 -1 0
1
0.623489801858734 -0.78183148246803               0               0 
0.78183148246803 0.623489801858734               0               0 
              0               0               1               0 
2  4 -1 0
1
0.623489801858734 -0.78183148246803               0               0 
0.78183148246803 0.623489801858734               0               0 
              0               0               1               0 
2  6 -1 0
1
0.623489801858734 -0.78183148246803               0               0 
0.78183148246803 0.623489801858734               0               0 
              0               0               1               0 
2  8 -1 0
1
0.623489801858734 -0.78183148246803               0               0 
0.78183148246803 0.623489801858734               0               0 
              0               0               1               0 
2  10 -1 0
Curve2ds 40
2 0 0 -1 0 0 1 20
1 0 0 1 0 
2 0 0 -1 0 0 1 119.5
1 0 0 1 0 
1 0 1 1 0 
1 0 69.000000000000028 1 0 
1 6.2831853071795862 0 0 1 
1 0 0 0 1 
1 0 0 1 0 
1 0 1 1 0 
1 6.2831853071795862 0 0 1 
1 0 0 0 1 
1 6.2831853071795862 0 0 1 
1 0 0 0 1 
1 6.2831853071795862 0 0 1 
1 0 0 0 1 
1 0 0 0 1 
1 0 0 0 1 
1 0.89759790102565518 0 0 1 
1 0 0 1 0 
1 0 0 0 1 
1 0.89759790102565518 0 0 1 
1 1 0 0 1 
1 0 0 0 1 
1 0.89759790102565518 0 0 1 
1 0 1 1 0 
1 0 0 0 1 
1 0.89759790102565518 0 0 1 
1 0 0 1 0 
1 0 0 1 0 
1 0 1 1 0 
1 0 0 1 0 
1 0 0 0 1 
1 0 1 1 0 
1 0 0 1 0 
1 0 0 1 0 
1 0 1 1 0 
1 0 1 1 0 
1 1 0 0 1 
1 0 1 1 0 
Curves 19
2 0 0 0 0 0 1 1 0 -0 -0 1 0 20
2 0 0 0 0 0 1 1 0 -0 -0 1 0 119.5
2 0 0 97.365536988130614 0 0 1 1 0 -0 -0 1 0 179.08033140445792
7 0 0  4 5 2  119.5 0 0  119.5 0 49.600114939767941  119.5 0 66.133486586357265  155.24819884267475 0 84.872716827421272  179.08033140445792 0 97.365536988130614 
 0 5 1 5
2 0 0 159.9007730118694 0 0 1 1 0 -0 -0 1 0 149.91966859554211
1 149.91966859554211 0 159.9007730118694 0.4226183015784899 0 -0.90630776845998207 
7 0 0  4 5 2  20 0 0  20 0 77.244593595259744  20 0 102.99279146034633  97.951801157325264 0 137.13758039126017  149.91966859554211 0 159.9007730118694 
 0 5 1 5
7 0 0  3 7 5  10.819320986333546 -5.2020563621924625 -7.9950386505934725  23.177158337243391 -11.940118761362712 -7.9950386505934565  52.59522230359066 -29.624334928834848 -7.9950386505934956  92.793818055632258 -43.384946846058483 -7.995038650593453  138.04392591922016 -45.128668616129929 -7.9950386505934983  174.68320020009023 -3.9839111032295156 -7.9950386505934583  185.99086117641832 20.114513170561832 -7.9950386505934725 
 0 4 0.20458422228958689 1 0.44329565573376384 1 0.71883513404394961 1 1 4
7 0 0  3 9 7  10.819320986333546 -5.2020563621924625 -7.9950386505934725  10.800000676263249 -5.2478813135868325 1.3809052219548086  11.111026325595757 -4.5685331855463112 26.565680898517002  10.771583947523915 -5.3098877375704365 53.314984650735532  10.846431933966095 -5.1421215370651705 75.148776697534885  10.971693332066872 -4.8827760818471981 107.56436978927276  11.479552884857885 -3.6676492181441551 138.46821770558148  11.798713196509713 -2.2815356780120277 157.69405809537307  11.776159685261552 -2.3326294321998837 167.89581166246288 
 0 4 0.13990989843506557 1 0.32428686396026413 1 0.54232107480335801 1 0.70812567019933348 1 0.85615886313950185 1 1 4
7 0 0  3 7 5  11.776159685261552 -2.3326294321998837 167.89581166246288  25.042246875274984 -5.3039971396473256 167.8958116624629  61.186823819798704 -10.795890589625785 167.89581166246271  100.78588604155954 34.858747075864926 167.89581166246325  109.33406083101497 94.617328294793694 167.89581166246262  129.92292401814981 113.03459657221717 167.8958116624629  135.85276393984077 128.61267671244667 167.89581166246288 
 0 4 0.20458422228958689 1 0.44329565573376384 1 0.71883513404394961 1 1 4
7 0 0  3 9 7  185.99086117641832 20.114513170561832 -7.9950386505934725  185.66803405674329 20.042253987319462 1.3809052219548086  188.13093122085303 7.7440589190458269 26.565680898517002  179.05293892724012 65.563914405919718 53.314984650735532  158.45218993963874 99.719122432706371 75.148776697534885  144.83432748681901 119.30791200919576 107.56436978927276  139.54852952264801 124.08578331726741 138.46821770558148  137.77876552014862 126.83520245626188 157.69405809537307  135.85276393984077 128.61267671244667 167.89581166246288 
 0 4 0.13990989843506557 1 0.32428686396026413 1 0.54232107480335801 1 0.70812567019933348 1 0.85615886313950185 1 1 4
2 0 0 -7.9950386505934725 0 0 1 0.90123746936248206 -0.43332554023171677 0 0.43332554023171677 0.90123746936248206 -0 12.004961349406527
2 0 0 -7.9950386505934725 0 0 1 0.99420282382275171 0.10752090542246506 -0 -0.10752090542246506 0.99420282382275171 0 187.07537005505139
7 0 0  3 7 5  10.81286773555032 5.2154566755212795 -7.9950386505934725  23.78588261137692 10.676089781511472 -7.9950386505934565  55.953822427322166 22.650129909375874 -7.9950386505934956  91.775716542672114 45.499056421602916 -7.995038650593453  121.35199390513358 79.789822593511488 -7.9950386505934983  112.02794100466252 134.0888974303208 -7.9950386505934583  100.23724553115721 157.95470455026316 -7.9950386505934725 
 0 4 0.20458422228958689 1 0.44329565573376384 1 0.71883513404394961 1 1 4
2 0 0 167.89581166246288 0 0 1 0.98094107448698398 -0.19430545124705453 0 0.19430545124705453 0.98094107448698398 -0 12.004961349406528
7 0 0  3 9 7  10.81286773555032 5.2154566755212795 -7.9950386505934725  10.836649108935426 5.1717800589922156 1.3809052219548086  10.499434675352934 5.8385163332405181 26.565680898517002  10.867410142749907 5.110902592831545 53.314984650735532  10.782912201737208 5.2740216201430012 75.148776697534885  10.658246964295195 5.5336541712029668 107.56436978927276  10.024867779001251 6.6883339657305489 138.46821770558148  9.1401537745237107 7.8020912018249451 157.69405809537307  9.1660385958459258 7.7526017220161307 167.89581166246288 
 0 4 0.13990989843506557 1 0.32428686396026413 1 0.54232107480335801 1 0.70812567019933348 1 0.85615886313950185 1 1 4
2 0 0 167.89581166246288 0 0 1 0.72619267784884167 0.68749123240862398 -0 -0.68749123240862398 0.72619267784884167 0 187.07537005505142
7 0 0  3 7 5  9.1660385958459258 7.7526017220161307 167.89581166246288  19.76041748905935 16.271828873168626 167.8958116624629  46.589927804021315 41.106657489929027 167.89581166246271  35.585306214907284 100.53165200310113 167.89581166246325  -5.8061341239425701 144.47375013468587 167.89581166246262  -7.3683880552487011 172.05375051168483 167.8958116624629  -15.850626827460999 186.40266014842973 167.89581166246288 
 0 4 0.20458422228958689 1 0.44329565573376384 1 0.71883513404394961 1 1 4
7 0 0  3 9 7  100.23724553115721 157.95470455026316 -7.9950386505934725  100.09246061863273 157.65725528086446 1.3809052219548086  111.24316796539134 151.91502661550871 26.565680898517002  60.377749017581635 180.8676566837716 53.314984650735532  20.829775187574 186.0567664479085 75.148776697534885  -2.9759555692150599 187.62330339007252 107.56436978927276  -10.007086902392459 186.46965416689432 138.46821770558148  -13.260099151013534 186.80023174739995 157.69405809537307  -15.850626827460999 186.40266014842973 167.89581166246288 
 0 4 0.13990989843506557 1 0.32428686396026413 1 0.54232107480335801 1 0.70812567019933348 1 0.85615886313950185 1 1 4
Polygon3D 0
PolygonOnTriangulations 0
Surfaces 10
1 0 0 0 0 0 1 -1 -0 0 -0 1 -0 
7 0 0 0 0 0 1 
8 0 1
7 0 0  4 5 2  20 0 0  20 0 77.244593595259744  20 0 102.99279146034633  97.951801157325264 0 137.13758039126017  149.91966859554211 0 159.9007730118694 
 0 5 1 5
7 0 0 0 0 0 1 
8 0 1
7 0 0  4 5 2  119.5 0 0  119.5 0 49.600114939767941  119.5 0 66.133486586357265  155.24819884267475 0 84.872716827421272  179.08033140445792 0 97.365536988130614 
 0 5 1 5
3 0 0 159.9007730118694 -0 -0 -1 1 0 0 -0 1 -0 149.91966859554211
0.43633235695472117
3 0 0 159.9007730118694 -0 -0 -1 1 0 0 -0 1 -0 149.91966859554211
0.43633235695472117
9 0 0 0 0 3 3 9 7 7 5 10.819320986333546 -5.2020563621924625 -7.9950386505934725  23.177158337243391 -11.940118761362712 -7.9950386505934565  52.59522230359066 -29.624334928834848 -7.9950386505934956  92.793818055632258 -43.384946846058483 -7.995038650593453  138.04392591922016 -45.128668616129929 -7.9950386505934983  174.68320020009023 -3.9839111032295156 -7.9950386505934583  185.99086117641832 20.114513170561832 -7.9950386505934725  
10.800000676263249 -5.2478813135868325 1.3809052219548086  23.046786972698897 -12.34109225250481 1.380905221954837  52.667676201007183 -29.281374603120124 1.3809052219547873  92.14478876112274 -44.968546741279582 1.3809052219548263  138.26413212440912 -46.005107587462376 1.3809052219547979  174.64684364466089 -4.2296699395538599 1.3809052219548512  185.66803405674329 20.042253987319462 1.3809052219548086  
11.111026325595757 -4.5685331855463112 26.565680898517002  24.150409555690644 -10.023934992346431 26.565680898516923  52.591167938473362 -29.530125580053912 26.56568089851708  95.752673443468225 -37.887039826378846 26.565680898516952  138.48822527155397 -37.390144934170401 26.565680898517051  173.75518010278861 -11.988269205374792 26.565680898516916  188.13093122085303 7.7440589190458269 26.565680898517002  
10.771583947523915 -5.3098877375704365 53.314984650735532  22.65110231222847 -13.326249425216131 53.314984650735511  54.210228382784031 -26.270269084845644 53.314984650735468  96.580772006554625 -34.840299849412126 53.314984650735596  148.28626846166458 -17.422774891796998 53.314984650735475  174.64730630809385 44.859686649567493 53.314984650735575  179.05293892724012 65.563914405919718 53.314984650735532  
10.846431933966095 -5.1421215370651705 75.148776697534885  24.081520118616833 -10.894381388327238 75.148776697534927  51.729674921168971 -29.496816133832354 75.148776697534942  105.16457091785017 -20.764151429421791 75.148776697535055  145.75382377618138 46.829619017860963 75.148776697534885  147.75951636002918 88.627262943461645 75.148776697534885  158.45218993963874 99.719122432706371 75.148776697534885  
10.971693332066872 -4.8827760818471981 107.56436978927276  23.569662260712825 -8.9782456205587984 107.56436978927253  52.09873009546461 -37.933066590808735 107.56436978927299  110.36838126510526 13.707155795598897 107.56436978927255  121.96821573040776 74.731731065077724 107.56436978927294  138.81821995408927 104.35006362224982 107.5643697892727  144.83432748681901 119.30791200919576 107.56436978927276  
11.479552884857885 -3.6676492181441551 138.46821770558148  24.56550124311681 -9.1829165670148623 138.4682177055812  58.7754117241195 -19.181944630934233 138.46821770558165  106.44590899831741 18.947272400898736 138.46821770558128  114.20452681711051 91.93838775600959 138.46821770558159  134.84738412755107 106.02528342709141 138.46821770558117  139.54852952264801 124.08578331726741 138.46821770558148  
11.798713196509713 -2.2815356780120277 157.69405809537307  24.925281643312065 -4.7974844474733498 157.69405809537307  61.883554834692603 -10.351542230250775 157.69405809537312  99.982824263350267 36.631348931817683 157.69405809537344  111.85464002825039 90.569516864021907 157.69405809537298  130.97189786099122 112.27068581516015 157.69405809537349  137.77876552014862 126.83520245626188 157.69405809537307  
11.776159685261552 -2.3326294321998837 167.89581166246288  25.042246875274984 -5.3039971396473256 167.8958116624629  61.186823819798704 -10.795890589625785 167.89581166246271  100.78588604155954 34.858747075864926 167.89581166246325  109.33406083101497 94.617328294793694 167.89581166246262  129.92292401814981 113.03459657221717 167.8958116624629  135.85276393984077 128.61267671244667 167.89581166246288  

0 4
0.13990989843506557 1
0.32428686396026413 1
0.54232107480335801 1
0.70812567019933348 1
0.85615886313950185 1
1 4

0 4
0.20458422228958689 1
0.44329565573376384 1
0.71883513404394961 1
1 4

7 0 0 0 0 0 1 
8 0 1
7 0 0  3 7 5  10.819320986333546 -5.2020563621924625 -7.9950386505934725  23.177158337243391 -11.940118761362712 -7.9950386505934565  52.59522230359066 -29.624334928834848 -7.9950386505934956  92.793818055632258 -43.384946846058483 -7.995038650593453  138.04392591922016 -45.128668616129929 -7.9950386505934983  174.68320020009023 -3.9839111032295156 -7.9950386505934583  185.99086117641832 20.114513170561832 -7.9950386505934725 
 0 4 0.20458422228958689 1 0.44329565573376384 1 0.71883513404394961 1 1 4
7 0 0 0 0 0 1 
8 0 1
7 0 0  3 9 7  10.819320986333546 -5.2020563621924625 -7.9950386505934725  10.800000676263249 -5.2478813135868325 1.3809052219548086  11.111026325595757 -4.5685331855463112 26.565680898517002  10.771583947523915 -5.3098877375704365 53.314984650735532  10.846431933966095 -5.1421215370651705 75.148776697534885  10.971693332066872 -4.8827760818471981 107.56436978927276  11.479552884857885 -3.6676492181441551 138.46821770558148  11.798713196509713 -2.2815356780120277 157.69405809537307  11.776159685261552 -2.3326294321998837 167.89581166246288 
 0 4 0.13990989843506557 1 0.32428686396026413 1 0.54232107480335801 1 0.70812567019933348 1 0.85615886313950185 1 1 4
7 0 0 0 0 0 1 
8 0 1
7 0 0  3 7 5  11.776159685261552 -2.3326294321998837 167.89581166246288  25.042246875274984 -5.3039971396473256 167.8958116624629  61.186823819798704 -10.795890589625785 167.89581166246271  100.78588604155954 34.858747075864926 167.89581166246325  109.33406083101497 94.617328294793694 167.89581166246262  129.92292401814981 113.03459657221717 167.8958116624629  135.85276393984077 128.61267671244667 167.89581166246288 
 0 4 0.20458422228958689 1 0.44329565573376384 1 0.71883513404394961 1 1 4
7 0 0 0 0 0 1 
8 0 1
7 0 0  3 9 7  185.99086117641832 20.114513170561832 -7.9950386505934725  185.66803405674329 20.042253987319462 1.3809052219548086  188.13093122085303 7.7440589190458269 26.565680898517002  179.05293892724012 65.563914405919718 53.314984650735532  158.45218993963874 99.719122432706371 75.148776697534885  144.83432748681901 119.30791200919576 107.56436978927276  139.54852952264801 124.08578331726741 138.46821770558148  137.77876552014862 126.83520245626188 157.69405809537307  135.85276393984077 128.61267671244667 167.89581166246288 
 0 4 0.13990989843506557 1 0.32428686396026413 1 0.54232107480335801 1 0.70812567019933348 1 0.85615886313950185 1 1 4
Triangulations 0

TShapes 57
Ve
1e-07
20 0 0
0 0

0101101
*
Ed
 1e-07 1 1 0
1  1 0 0 6.28318530717959
2  1 1 0 0 6.28318530717959
2  2 2 0 0 6.28318530717959
0

0101000
+57 0 -57 0 *
Wi

0101100
+56 0 *
Ve
1e-07
119.5 0 0
0 0

0101101
*
Ed
 1e-07 1 1 0
1  2 0 0 6.28318530717959
2  3 1 0 0 6.28318530717959
2  4 3 0 0 6.28318530717959
0

0101000
+54 0 -54 0 *
Wi

0101100
-53 0 *
Fa
0  1e-07 1 0

0111000
+55 0 +52 0 *
Ve
1e-07
179.080331404458 0 97.3655369881306
0 0

0101101
*
Ed
 1e-07 1 1 0
1  3 0 0 6.28318530717959
2  5 3 0 0 6.28318530717959
2  6 4 0 0 6.28318530717959
0

0101000
+50 0 -50 0 *
Ed
 1e-07 1 1 0
1  4 0 0 1
3  7 8CN 3 0 0 1
0

0101000
+54 0 -50 0 *
Wi

0101100
+53 0 -49 0 -48 0 +48 0 *
Fa
0  1e-07 3 0

0111000
+47 0 *
Ve
1e-07
149.919668595542 0 159.900773011869
0 0

0101101
*
Ed
 1e-07 1 1 0
1  5 0 0 6.28318530717959
2  9 4 0 0 6.28318530717959
2  10 2 0 0 6.28318530717959
0

0101000
+45 0 -45 0 *
Ed
 1e-07 1 1 0
1  6 0 0 69
3  11 12CN 5 0 0 69
3  13 14CN 4 0 0 69
0

0101000
+45 0 -50 0 *
Wi

0101100
+44 0 -49 0 -43 0 +43 0 *
Fa
0  1e-07 4 0

0111000
+42 0 *
Ed
 1e-07 1 1 0
1  7 0 0 1
3  15 16CN 2 0 0 1
0

0101000
+57 0 -45 0 *
Wi

0101100
+56 0 -44 0 -40 0 +40 0 *
Fa
0  1e-07 2 0

0111000
+39 0 *
Sh

0101100
+51 0 +46 0 -41 0 -38 0 *
So

0100000
+37 0 *
Ve
1e-07
10.8193209863335 -5.20205636219246 -7.99503865059347
0 0

0101101
*
Ve
1e-07
185.990861176418 20.1145131705618 -7.99503865059347
0 0

0101101
*
Ed
 1e-07 1 1 0
1  8 0 0 1
2  17 6 0 0 1
2  18 7 0 0 1
2  19 7 3 0 1
0

0101000
+35 0 -34 0 *
Ve
1e-07
11.7761596852616 -2.33262943219988 167.895811662463
0 0

0101101
*
Ed
 1e-07 1 1 0
1  9 0 0 1
2  20 6 0 0 1
2  21 8 0 0 1
2  22 8 5 0 1
0

0101000
+35 0 -32 0 *
Ve
1e-07
135.852763939841 128.612676712447 167.895811662463
0 0

0101101
*
Ed
 1e-07 1 1 0
1  10 0 0 1
2  23 6 0 0 1
2  24 9 0 0 1
2  25 9 7 0 1
0

0101000
+32 0 -30 0 *
Ed
 1e-07 1 1 0
1  11 0 0 1
2  26 6 0 0 1
2  27 10 0 0 1
2  28 10 9 0 1
0

0101000
+34 0 -30 0 *
Wi

0101100
-33 0 +31 0 +29 0 -28 0 *
Fa
1  1e-07 6 0

0111000
+27 0 *
Ve
1e-07
10.8128677355503 5.21545667552128 -7.99503865059347
0 0

0101101
*
Ed
 1e-07 1 1 0
1  12 0 0 0.897597901025655
2  29 7 0 0 0.897597901025655
2  30 8 0 0 0.897597901025655
4 C0 7 0 8 0
0

0101000
+35 0 -25 0 *
Ve
1e-07
100.237245531157 157.954704550263 -7.99503865059347
0 0

0101101
*
Ed
 1e-07 1 1 0
1  13 0 0 0.897597901025655
2  31 7 0 0 0.897597901025655
2  32 10 0 0 0.897597901025655
4 C0 7 0 10 0
0

0101000
+34 0 -23 0 *
Ed
 1e-07 1 1 0
1  14 0 0 1
2  19 7 0 0 1
2  33 6 10 0 1
4 C0 7 0 6 10
0

0101000
+25 0 -23 0 *
Wi

0101100
+24 0 -22 0 -33 0 +21 0 *
Fa
0  1e-07 7 0

0111000
+20 0 *
Ve
1e-07
9.16603859584593 7.75260172201613 167.895811662463
0 0

0101101
*
Ed
 1e-07 1 1 0
1  15 0 0 0.897597901025655
2  34 8 0 0 0.897597901025655
2  35 9 0 0 0.897597901025655
4 C0 8 0 9 0
0

0101000
+32 0 -18 0 *
Ed
 1e-07 1 1 0
1  16 0 0 1
2  22 8 0 0 1
2  36 6 10 0 1
4 C0 8 0 6 10
0

0101000
+25 0 -18 0 *
Wi

0101100
+24 0 -17 0 -31 0 +16 0 *
Fa
0  1e-07 8 0

0111000
+15 0 *
Ve
1e-07
-15.850626827461 186.40266014843 167.895811662463
0 0

0101101
*
Ed
 1e-07 1 1 0
1  17 0 0 0.897597901025655
2  37 9 0 0 0.897597901025655
2  38 10 0 0 0.897597901025655
4 C0 9 0 10 0
0

0101000
+30 0 -13 0 *
Ed
 1e-07 1 1 0
1  18 0 0 1
2  25 9 0 0 1
2  39 6 10 0 1
4 C0 9 0 6 10
0

0101000
+18 0 -13 0 *
Wi

0101100
+17 0 -12 0 -29 0 +11 0 *
Fa
0  1e-07 9 0

0111000
+10 0 *
Ed
 1e-07 1 1 0
1  19 0 0 1
2  28 10 0 0 1
2  40 6 10 0 1
4 C0 10 0 6 10
0

0101000
+23 0 -13 0 *
Wi

0101100
+22 0 -12 0 -28 0 +8 0 *
Fa
0  1e-07 10 0

0111000
+7 0 *
Wi

0101100
-21 11 +16 11 +11 11 -8 11 *
Fa
1  1e-07 6 0

0111000
+5 0 *
Sh

0101100
+26 0 -19 0 +14 0 +9 0 -6 0 -4 10 *
So

0100000
-3 0 *
Co

1100000
+36 1 +2 0 *

+1 0 
0

