DBRep_DrawableShape

CASCADE Topology V1, (c) Matra-Datavision
Locations 22
1
              1               0               0               0 
              0               1               0               0 
              0               0               1               2 
2  1 -1 0
1
              1               0               0               0 
              0               1               0               0 
              0               0               1               2 
2  1 1 3 1 0
2  3 -1 1 -1 0
1
              1               0               0               0 
              0               1               0               0 
              0               0               1               3 
2  1 1 3 1 6 1 0
2  6 -1 3 -1 1 -1 0
1
              1               0               0               0 
              0               1               0               0 
              0               0               1              10 
2  9 -1 0
1
              1               0               0               0 
              0               1               0               0 
              0               0               1              -1 
2  1 1 3 1 6 1 11 1 0
2  11 -1 6 -1 3 -1 1 -1 0
1
              1               0               0               0 
              0               1               0               0 
              0               0               1              -1 
2  1 1 3 1 6 1 14 1 0
2  14 -1 6 -1 3 -1 1 -1 0
1
              1               0               0               0 
              0               1               0               0 
              0               0               1              -1 
2  1 1 3 1 6 1 17 1 0
2  17 -1 6 -1 3 -1 1 -1 0
1
              1               0               0               0 
              0               1               0               0 
              0               0               1              -1 
2  1 1 3 1 6 1 20 1 0
2  20 -1 6 -1 3 -1 1 -1 0
Curve2ds 160
1 0 0 1 0 
1 -5 6.0862068965517242 0 -1 
1 10 0 0 -1 
1 0 0 0 -1 
1 0 -2 1 0 
1 0 -2 1 0 
1 0 0 0 -1 
1 1 0 0 -1 
1 10 0 0 -1 
1 0 0 0 -1 
1 0 -4 1 0 
1 0 -4 1 0 
1 0 0 0 -1 
1 1 0 0 -1 
1 10 0 0 -1 
1 0 0 0 -1 
1 10 0 0 -1 
1 0 0 0 -1 
1 0 -7 1 0 
1 0 -7 1 0 
1 0 0 0 -1 
1 1 0 0 -1 
1 0 0 0 -1 
1 1 0 0 -1 
1 10 0 0 -1 
1 0 0 0 -1 
1 0 -10 1 0 
1 -5 6.0862068965517242 0 -1 
1 0 0 0 -1 
1 1 0 0 -1 
1 0 0 1 0 
1 -5 -3.9137931034482758 1 0 
1 10 0 0 -1 
1 0 0 0 -1 
1 0 -2 1 0 
1 0 -2 1 0 
1 10 0 0 -1 
1 0 0 0 -1 
1 0 -4 1 0 
1 0 -4 1 0 
1 10 0 0 -1 
1 0 0 0 -1 
1 0 -6 1 0 
1 0 -6 1 0 
1 10 0 0 -1 
1 0 0 0 -1 
1 10 0 0 -1 
1 0 0 0 -1 
1 0 -10 1 0 
1 -5 -3.9137931034482758 1 0 
1 0 0 1 0 
1 5 -3.9137931034482758 0 1 
1 10 0 0 -1 
1 0 -0 0 -1 
1 0 -2 1 0 
1 0 -2 1 0 
1 10 0 0 -1 
1 0 -0 0 -1 
1 0 -4 1 0 
1 0 -4 1 0 
1 10 0 0 -1 
1 0 -0 0 -1 
1 10 0 0 -1 
1 0 -0 0 -1 
1 0 -7 1 0 
1 0 -7 1 0 
1 10 0 0 -1 
1 0 -0 0 -1 
1 0 -10 1 0 
1 5 -3.9137931034482758 0 1 
1 0 -0 1 0 
1 5 6.0862068965517242 -1 0 
1 1 0 0 -1 
1 0 0 0 -1 
1 0 -2 1 0 
1 0 -2 1 0 
1 1 0 0 -1 
1 0 0 0 -1 
1 0 -4 1 0 
1 0 -4 1 0 
1 1 0 0 -1 
1 0 0 0 -1 
1 0 -6 1 0 
1 0 -6 1 0 
1 1 0 0 -1 
1 0 0 0 -1 
1 1 0 0 -1 
1 0 0 0 -1 
1 0 -10 1 0 
1 5 6.0862068965517242 -1 0 
1 0 0 1 0 
1 4 6.0862068965517242 0 -1 
1 9 0 0 -1 
1 0 -0 0 -1 
1 0 -2 1 0 
1 0 -2 1 0 
1 9 0 0 -1 
1 0 -0 0 -1 
1 0 -4 1 0 
1 0 -4 1 0 
1 9 0 0 -1 
1 0 -0 0 -1 
1 9 0 0 -1 
1 0 -0 0 -1 
1 0 -7 1 0 
1 0 -7 1 0 
1 9 0 0 -1 
1 0 -0 0 -1 
1 0 -10 1 0 
1 4 6.0862068965517242 0 -1 
1 0 -0 1 0 
1 4 -2.9137931034482758 -1 0 
1 8 0 0 -1 
1 0 0 0 -1 
1 0 -2 1 0 
1 0 -2 1 0 
1 8 0 0 -1 
1 0 0 0 -1 
1 0 -4 1 0 
1 0 -4 1 0 
1 8 0 0 -1 
1 0 0 0 -1 
1 0 -6 1 0 
1 0 -6 1 0 
1 8 0 0 -1 
1 0 0 0 -1 
1 8 0 0 -1 
1 0 0 0 -1 
1 0 -10 1 0 
1 4 -2.9137931034482758 -1 0 
1 0 0 1 0 
1 -4 -2.9137931034482758 0 1 
1 9 0 0 -1 
1 0 -0 0 -1 
1 0 -2 1 0 
1 0 -2 1 0 
1 9 0 0 -1 
1 0 -0 0 -1 
1 0 -4 1 0 
1 0 -4 1 0 
1 9 0 0 -1 
1 0 -0 0 -1 
1 9 0 0 -1 
1 0 -0 0 -1 
1 0 -7 1 0 
1 0 -7 1 0 
1 9 0 0 -1 
1 0 -0 0 -1 
1 0 -10 1 0 
1 -4 -2.9137931034482758 0 1 
1 0 -0 1 0 
1 -4 6.0862068965517242 -1 0 
1 0 -2 1 0 
1 0 -2 1 0 
1 0 -4 1 0 
1 0 -4 1 0 
1 0 -6 1 0 
1 0 -6 1 0 
1 0 -10 1 0 
1 -4 6.0862068965517242 -1 0 
Curves 80
1 0 10 0 0 -1 0 
1 0 0 0 0 0 1 
1 0 10 0 0 -1 0 
1 0 10 0 0 0 1 
1 0 0 0 0 0 1 
1 0 10 0 0 -1 0 
1 0 10 0 0 0 1 
1 0 0 0 0 0 1 
1 0 0 0 0 0 1 
1 0 10 0 0 -1 0 
1 0 10 0 0 0 1 
1 0 10 0 0 0 1 
1 0 0 0 0 0 1 
1 0 10 0 0 -1 0 
1 0 10 0 0 0 1 
1 0 0 0 1 0 0 
1 10 0 0 0 0 1 
1 0 0 0 1 0 0 
1 10 0 0 0 0 1 
1 0 0 0 1 0 0 
1 10 0 0 0 0 1 
1 0 0 0 1 0 0 
1 10 0 0 0 0 1 
1 10 0 0 0 0 1 
1 0 0 0 1 0 0 
1 10 0 0 0 1 0 
1 10 10 0 0 0 1 
1 10 0 0 0 1 0 
1 10 10 0 0 0 1 
1 10 0 0 0 1 0 
1 10 10 0 0 0 1 
1 10 10 0 0 0 1 
1 10 0 0 0 1 0 
1 10 10 0 0 0 1 
1 10 0 0 0 1 0 
1 10 10 0 -1 0 0 
1 9 10 0 0 0 1 
1 10 10 0 -1 0 0 
1 9 10 0 0 0 1 
1 10 10 0 -1 0 0 
1 9 10 0 0 0 1 
1 10 10 0 -1 0 0 
1 9 10 0 0 0 1 
1 9 10 0 0 0 1 
1 10 10 0 -1 0 0 
1 9 10 0 0 -1 0 
1 9 1 0 0 0 1 
1 9 10 0 0 -1 0 
1 9 1 0 0 0 1 
1 9 10 0 0 -1 0 
1 9 1 0 0 0 1 
1 9 1 0 0 0 1 
1 9 10 0 0 -1 0 
1 9 1 0 0 0 1 
1 9 10 0 0 -1 0 
1 9 1 0 -1 0 0 
1 1 1 0 0 0 1 
1 9 1 0 -1 0 0 
1 1 1 0 0 0 1 
1 9 1 0 -1 0 0 
1 1 1 0 0 0 1 
1 9 1 0 -1 0 0 
1 1 1 0 0 0 1 
1 1 1 0 0 0 1 
1 9 1 0 -1 0 0 
1 1 1 0 0 1 0 
1 1 10 0 0 0 1 
1 1 1 0 0 1 0 
1 1 10 0 0 0 1 
1 1 1 0 0 1 0 
1 1 10 0 0 0 1 
1 1 10 0 0 0 1 
1 1 1 0 0 1 0 
1 1 10 0 0 0 1 
1 1 1 0 0 1 0 
1 1 10 0 -1 0 0 
1 1 10 0 -1 0 0 
1 1 10 0 -1 0 0 
1 1 10 0 -1 0 0 
1 1 10 0 -1 0 0 
Polygon3D 0
PolygonOnTriangulations 0
Surfaces 34
1 0 10 0 1 0 -0 0 -1 0 0 -0 -1 
1 5 3.9137931034482758 0 0 0 1 1 0 -0 -0 1 0 
1 0 0 0 0 1 0 1 0 0 0 0 -1 
1 0 10 0 1 0 -0 0 -1 0 0 -0 -1 
1 1 10 0 0 -1 0 -1 0 0 -0 -0 -1 
1 0 0 0 0 1 0 1 0 0 0 0 -1 
1 0 10 0 1 0 -0 0 -1 0 0 -0 -1 
1 1 10 0 0 -1 0 -1 0 0 -0 -0 -1 
1 0 0 0 0 1 0 1 0 0 0 0 -1 
1 0 0 0 0 1 0 1 0 0 0 0 -1 
1 0 10 0 1 0 -0 0 -1 0 0 -0 -1 
1 1 10 0 0 -1 0 -1 0 0 -0 -0 -1 
1 1 10 0 0 -1 0 -1 0 0 -0 -0 -1 
1 5 3.9137931034482758 0 0 0 1 1 0 -0 -0 1 0 
1 10 0 0 -1 0 0 0 1 0 0 0 -1 
1 10 0 0 -1 0 0 0 1 0 0 0 -1 
1 10 0 0 -1 0 0 0 1 0 0 0 -1 
1 10 0 0 -1 0 0 0 1 0 0 0 -1 
1 10 10 0 0 -1 0 -1 0 0 -0 -0 -1 
1 10 10 0 0 -1 0 -1 0 0 -0 -0 -1 
1 10 10 0 0 -1 0 -1 0 0 -0 -0 -1 
1 10 10 0 0 -1 0 -1 0 0 -0 -0 -1 
1 9 10 0 1 0 -0 0 -1 0 0 -0 -1 
1 9 10 0 1 0 -0 0 -1 0 0 -0 -1 
1 9 10 0 1 0 -0 0 -1 0 0 -0 -1 
1 9 10 0 1 0 -0 0 -1 0 0 -0 -1 
1 9 1 0 0 -1 0 -1 0 0 -0 -0 -1 
1 9 1 0 0 -1 0 -1 0 0 -0 -0 -1 
1 9 1 0 0 -1 0 -1 0 0 -0 -0 -1 
1 9 1 0 0 -1 0 -1 0 0 -0 -0 -1 
1 1 1 0 -1 0 0 0 1 0 0 0 -1 
1 1 1 0 -1 0 0 0 1 0 0 0 -1 
1 1 1 0 -1 0 0 0 1 0 0 0 -1 
1 1 1 0 -1 0 0 0 1 0 0 0 -1 
Triangulations 0

TShapes 198
Ve
1e-07
0 10 0
0 0

0101101
*
Ve
1e-07
0 0 0
0 0

0101101
*
Ed
 1e-07 1 1 0
1  1 0 0 10
2  1 1 0 0 10
2  2 2 0 0 10
0

0101000
+198 0 -197 0 *
Ve
1e-07
0 0 2
0 0

0101101
*
Ed
 1e-07 1 1 0
1  2 0 0 2
2  3 1 0 0 2
2  4 3 0 0 2
0

0101000
+197 0 -195 0 *
Ve
1e-07
0 10 2
0 0

0101101
*
Ed
 1e-07 1 1 0
1  3 0 0 10
2  5 1 2 0 10
2  6 4 2 0 10
0

0101000
+193 2 -195 2 *
Ed
 1e-07 1 1 0
1  4 0 0 2
2  7 1 0 0 2
2  8 5 0 0 2
0

0101000
+198 0 -193 0 *
Wi

0101100
-196 0 -194 0 +192 1 +191 0 *
Fa
0  1e-07 1 0

0111000
+190 0 *
Ve
1e-07
0 0 4
0 0

0101101
*
Ed
 1e-07 1 1 0
1  5 0 2 4
2  9 4 0 2 4
2  10 6 0 2 4
0

0101000
+195 0 -188 0 *
Ve
1e-07
0 10 4
0 0

0101101
*
Ed
 1e-07 1 1 0
1  6 0 0 10
2  11 4 5 0 10
2  12 7 5 0 10
0

0101000
+186 5 -188 5 *
Ed
 1e-07 1 1 0
1  7 0 2 4
2  13 4 0 2 4
2  14 8 0 2 4
0

0101000
+193 0 -186 0 *
Wi

0101100
-192 1 -187 0 +185 4 +184 0 *
Fa
0  1e-07 4 0

0111000
+183 0 *
Ve
1e-07
0 0 6
0 0

0101101
*
Ed
 1e-07 1 1 0
1  8 0 4 6
2  15 7 0 4 6
2  16 9 0 4 6
0

0101000
+188 0 -181 0 *
Ve
1e-07
0 0 7
0 0

0101101
*
Ed
 1e-07 1 1 0
1  9 0 6 7
2  17 7 0 6 7
2  18 10 0 6 7
0

0101000
+181 0 -179 0 *
Ve
1e-07
0 10 7
0 0

0101101
*
Ed
 1e-07 1 1 0
1  10 0 0 10
2  19 7 8 0 10
2  20 11 8 0 10
0

0101000
+177 8 -179 8 *
Ve
1e-07
0 10 6
0 0

0101101
*
Ed
 1e-07 1 1 0
1  11 0 6 7
2  21 7 0 6 7
2  22 12 0 6 7
0

0101000
+175 0 -177 0 *
Ed
 1e-07 1 1 0
1  12 0 4 6
2  23 7 0 4 6
2  24 13 0 4 6
0

0101000
+186 0 -175 0 *
Wi

0101100
-185 4 -180 0 -178 0 +176 7 +174 0 +173 0 *
Fa
0  1e-07 7 0

0111000
+172 0 *
Ve
1e-07
0 0 10
0 0

0101101
*
Ed
 1e-07 1 1 0
1  13 0 7 10
2  25 11 0 7 10
2  26 10 0 7 10
0

0101000
+179 0 -170 0 *
Ve
1e-07
0 10 10
0 0

0101101
*
Ed
 1e-07 1 1 0
1  14 0 0 10
2  27 11 10 0 10
2  28 14 0 0 10
0

0101000
+168 10 -170 10 *
Ed
 1e-07 1 1 0
1  15 0 7 10
2  29 11 0 7 10
2  30 12 0 7 10
0

0101000
+177 0 -168 0 *
Wi

0101100
-176 7 -169 0 +167 9 +166 0 *
Fa
0  1e-07 11 0

0111000
+165 0 *
Ve
1e-07
10 0 0
0 0

0101101
*
Ed
 1e-07 1 1 0
1  16 0 0 10
2  31 3 0 0 10
2  32 2 0 0 10
0

0101000
+197 0 -163 0 *
Ve
1e-07
10 0 2
0 0

0101101
*
Ed
 1e-07 1 1 0
1  17 0 0 2
2  33 3 0 0 2
2  34 15 0 0 2
0

0101000
+163 0 -161 0 *
Ed
 1e-07 1 1 0
1  18 0 0 10
2  35 3 2 0 10
2  36 6 2 0 10
0

0101000
+195 2 -161 2 *
Wi

0101100
-162 0 -160 0 +159 1 +194 0 *
Fa
0  1e-07 3 0

0111000
+158 0 *
Ve
1e-07
10 0 4
0 0

0101101
*
Ed
 1e-07 1 1 0
1  19 0 2 4
2  37 6 0 2 4
2  38 16 0 2 4
0

0101000
+161 0 -156 0 *
Ed
 1e-07 1 1 0
1  20 0 0 10
2  39 6 5 0 10
2  40 9 5 0 10
0

0101000
+188 5 -156 5 *
Wi

0101100
-159 1 -155 0 +154 4 +187 0 *
Fa
0  1e-07 6 0

0111000
+153 0 *
Ve
1e-07
10 0 6
0 0

0101101
*
Ed
 1e-07 1 1 0
1  21 0 4 6
2  41 9 0 4 6
2  42 17 0 4 6
0

0101000
+156 0 -151 0 *
Ed
 1e-07 1 1 0
1  22 0 0 10
2  43 9 13 0 10
2  44 10 13 0 10
0

0101000
+181 13 -151 13 *
Wi

0101100
-154 4 -150 0 +149 12 +180 0 *
Fa
0  1e-07 9 0

0111000
+148 0 *
Ve
1e-07
10 0 7
0 0

0101101
*
Ed
 1e-07 1 1 0
1  23 0 6 7
2  45 10 0 6 7
2  46 17 0 6 7
0

0101000
+151 0 -146 0 *
Ve
1e-07
10 0 10
0 0

0101101
*
Ed
 1e-07 1 1 0
1  24 0 7 10
2  47 10 0 7 10
2  48 18 0 7 10
0

0101000
+146 0 -144 0 *
Ed
 1e-07 1 1 0
1  25 0 0 10
2  49 10 10 0 10
2  50 14 0 0 10
0

0101000
+170 10 -144 10 *
Wi

0101100
-149 12 -145 0 -143 0 +142 9 +169 0 +178 0 *
Fa
0  1e-07 10 0

0111000
+141 0 *
Ve
1e-07
10 10 0
0 0

0101101
*
Ed
 1e-07 1 1 0
1  26 0 0 10
2  51 15 0 0 10
2  52 2 0 0 10
0

0101000
+163 0 -139 0 *
Ve
1e-07
10 10 2
0 0

0101101
*
Ed
 1e-07 1 1 0
1  27 0 0 2
2  53 15 0 0 2
2  54 19 0 0 2
0

0101000
+139 0 -137 0 *
Ed
 1e-07 1 1 0
1  28 0 0 10
2  55 15 2 0 10
2  56 16 2 0 10
0

0101000
+161 2 -137 2 *
Wi

0101100
-138 0 -136 0 +135 1 +160 0 *
Fa
0  1e-07 15 0

0111000
+134 0 *
Ve
1e-07
10 10 4
0 0

0101101
*
Ed
 1e-07 1 1 0
1  29 0 2 4
2  57 16 0 2 4
2  58 20 0 2 4
0

0101000
+137 0 -132 0 *
Ed
 1e-07 1 1 0
1  30 0 0 10
2  59 16 5 0 10
2  60 17 5 0 10
0

0101000
+156 5 -132 5 *
Wi

0101100
-135 1 -131 0 +130 4 +155 0 *
Fa
0  1e-07 16 0

0111000
+129 0 *
Ve
1e-07
10 10 6
0 0

0101101
*
Ed
 1e-07 1 1 0
1  31 0 4 6
2  61 17 0 4 6
2  62 21 0 4 6
0

0101000
+132 0 -127 0 *
Ve
1e-07
10 10 7
0 0

0101101
*
Ed
 1e-07 1 1 0
1  32 0 6 7
2  63 17 0 6 7
2  64 22 0 6 7
0

0101000
+127 0 -125 0 *
Ed
 1e-07 1 1 0
1  33 0 0 10
2  65 17 8 0 10
2  66 18 8 0 10
0

0101000
+146 8 -125 8 *
Wi

0101100
-130 4 -126 0 -124 0 +123 7 +145 0 +150 0 *
Fa
0  1e-07 17 0

0111000
+122 0 *
Ve
1e-07
10 10 10
0 0

0101101
*
Ed
 1e-07 1 1 0
1  34 0 7 10
2  67 18 0 7 10
2  68 22 0 7 10
0

0101000
+125 0 -120 0 *
Ed
 1e-07 1 1 0
1  35 0 0 10
2  69 18 10 0 10
2  70 14 0 0 10
0

0101000
+144 10 -120 10 *
Wi

0101100
-123 7 -119 0 +118 9 +143 0 *
Fa
0  1e-07 18 0

0111000
+117 0 *
Ve
1e-07
9 10 0
0 0

0101101
*
Ed
 1e-07 1 1 0
1  36 0 0 1
2  71 19 0 0 1
2  72 2 0 0 1
0

0101000
+139 0 -115 0 *
Ve
1e-07
9 10 2
0 0

0101101
*
Ed
 1e-07 1 1 0
1  37 0 0 2
2  73 19 0 0 2
2  74 23 0 0 2
0

0101000
+115 0 -113 0 *
Ed
 1e-07 1 1 0
1  38 0 0 1
2  75 19 2 0 1
2  76 20 2 0 1
0

0101000
+137 2 -113 2 *
Wi

0101100
-114 0 -112 0 +111 1 +136 0 *
Fa
0  1e-07 19 0

0111000
+110 0 *
Ve
1e-07
9 10 4
0 0

0101101
*
Ed
 1e-07 1 1 0
1  39 0 2 4
2  77 20 0 2 4
2  78 24 0 2 4
0

0101000
+113 0 -108 0 *
Ed
 1e-07 1 1 0
1  40 0 0 1
2  79 20 5 0 1
2  80 21 5 0 1
0

0101000
+132 5 -108 5 *
Wi

0101100
-111 1 -107 0 +106 4 +131 0 *
Fa
0  1e-07 20 0

0111000
+105 0 *
Ve
1e-07
9 10 6
0 0

0101101
*
Ed
 1e-07 1 1 0
1  41 0 4 6
2  81 21 0 4 6
2  82 25 0 4 6
0

0101000
+108 0 -103 0 *
Ed
 1e-07 1 1 0
1  42 0 0 1
2  83 21 16 0 1
2  84 22 16 0 1
0

0101000
+127 16 -103 16 *
Wi

0101100
-106 4 -102 0 +101 15 +126 0 *
Fa
0  1e-07 21 0

0111000
+100 0 *
Ve
1e-07
9 10 7
0 0

0101101
*
Ed
 1e-07 1 1 0
1  43 0 6 7
2  85 22 0 6 7
2  86 25 0 6 7
0

0101000
+103 0 -98 0 *
Ve
1e-07
9 10 10
0 0

0101101
*
Ed
 1e-07 1 1 0
1  44 0 7 10
2  87 22 0 7 10
2  88 26 0 7 10
0

0101000
+98 0 -96 0 *
Ed
 1e-07 1 1 0
1  45 0 0 1
2  89 22 10 0 1
2  90 14 0 0 1
0

0101000
+120 10 -96 10 *
Wi

0101100
-101 15 -97 0 -95 0 +94 9 +119 0 +124 0 *
Fa
0  1e-07 22 0

0111000
+93 0 *
Ve
1e-07
9 1 0
0 0

0101101
*
Ed
 1e-07 1 1 0
1  46 0 0 9
2  91 23 0 0 9
2  92 2 0 0 9
0

0101000
+115 0 -91 0 *
Ve
1e-07
9 1 2
0 0

0101101
*
Ed
 1e-07 1 1 0
1  47 0 0 2
2  93 23 0 0 2
2  94 27 0 0 2
0

0101000
+91 0 -89 0 *
Ed
 1e-07 1 1 0
1  48 0 0 9
2  95 23 2 0 9
2  96 24 2 0 9
0

0101000
+113 2 -89 2 *
Wi

0101100
-90 0 -88 0 +87 1 +112 0 *
Fa
0  1e-07 23 0

0111000
+86 0 *
Ve
1e-07
9 1 4
0 0

0101101
*
Ed
 1e-07 1 1 0
1  49 0 2 4
2  97 24 0 2 4
2  98 28 0 2 4
0

0101000
+89 0 -84 0 *
Ed
 1e-07 1 1 0
1  50 0 0 9
2  99 24 5 0 9
2  100 25 5 0 9
0

0101000
+108 5 -84 5 *
Wi

0101100
-87 1 -83 0 +82 4 +107 0 *
Fa
0  1e-07 24 0

0111000
+81 0 *
Ve
1e-07
9 1 6
0 0

0101101
*
Ed
 1e-07 1 1 0
1  51 0 4 6
2  101 25 0 4 6
2  102 29 0 4 6
0

0101000
+84 0 -79 0 *
Ve
1e-07
9 1 7
0 0

0101101
*
Ed
 1e-07 1 1 0
1  52 0 6 7
2  103 25 0 6 7
2  104 30 0 6 7
0

0101000
+79 0 -77 0 *
Ed
 1e-07 1 1 0
1  53 0 0 9
2  105 25 8 0 9
2  106 26 8 0 9
0

0101000
+98 8 -77 8 *
Wi

0101100
-82 4 -78 0 -76 0 +75 7 +97 0 +102 0 *
Fa
0  1e-07 25 0

0111000
+74 0 *
Ve
1e-07
9 1 10
0 0

0101101
*
Ed
 1e-07 1 1 0
1  54 0 7 10
2  107 26 0 7 10
2  108 30 0 7 10
0

0101000
+77 0 -72 0 *
Ed
 1e-07 1 1 0
1  55 0 0 9
2  109 26 10 0 9
2  110 14 0 0 9
0

0101000
+96 10 -72 10 *
Wi

0101100
-75 7 -71 0 +70 9 +95 0 *
Fa
0  1e-07 26 0

0111000
+69 0 *
Ve
1e-07
1 1 0
0 0

0101101
*
Ed
 1e-07 1 1 0
1  56 0 0 8
2  111 27 0 0 8
2  112 2 0 0 8
0

0101000
+91 0 -67 0 *
Ve
1e-07
1 1 2
0 0

0101101
*
Ed
 1e-07 1 1 0
1  57 0 0 2
2  113 27 0 0 2
2  114 31 0 0 2
0

0101000
+67 0 -65 0 *
Ed
 1e-07 1 1 0
1  58 0 0 8
2  115 27 2 0 8
2  116 28 2 0 8
0

0101000
+89 2 -65 2 *
Wi

0101100
-66 0 -64 0 +63 1 +88 0 *
Fa
0  1e-07 27 0

0111000
+62 0 *
Ve
1e-07
1 1 4
0 0

0101101
*
Ed
 1e-07 1 1 0
1  59 0 2 4
2  117 28 0 2 4
2  118 32 0 2 4
0

0101000
+65 0 -60 0 *
Ed
 1e-07 1 1 0
1  60 0 0 8
2  119 28 5 0 8
2  120 29 5 0 8
0

0101000
+84 5 -60 5 *
Wi

0101100
-63 1 -59 0 +58 4 +83 0 *
Fa
0  1e-07 28 0

0111000
+57 0 *
Ve
1e-07
1 1 6
0 0

0101101
*
Ed
 1e-07 1 1 0
1  61 0 4 6
2  121 29 0 4 6
2  122 33 0 4 6
0

0101000
+60 0 -55 0 *
Ed
 1e-07 1 1 0
1  62 0 0 8
2  123 29 19 0 8
2  124 30 19 0 8
0

0101000
+79 19 -55 19 *
Wi

0101100
-58 4 -54 0 +53 18 +78 0 *
Fa
0  1e-07 29 0

0111000
+52 0 *
Ve
1e-07
1 1 7
0 0

0101101
*
Ed
 1e-07 1 1 0
1  63 0 6 7
2  125 30 0 6 7
2  126 33 0 6 7
0

0101000
+55 0 -50 0 *
Ve
1e-07
1 1 10
0 0

0101101
*
Ed
 1e-07 1 1 0
1  64 0 7 10
2  127 30 0 7 10
2  128 34 0 7 10
0

0101000
+50 0 -48 0 *
Ed
 1e-07 1 1 0
1  65 0 0 8
2  129 30 10 0 8
2  130 14 0 0 8
0

0101000
+72 10 -48 10 *
Wi

0101100
-53 18 -49 0 -47 0 +46 9 +71 0 +76 0 *
Fa
0  1e-07 30 0

0111000
+45 0 *
Ve
1e-07
1 10 0
0 0

0101101
*
Ed
 1e-07 1 1 0
1  66 0 0 9
2  131 31 0 0 9
2  132 2 0 0 9
0

0101000
+67 0 -43 0 *
Ve
1e-07
1 10 2
0 0

0101101
*
Ed
 1e-07 1 1 0
1  67 0 0 2
2  133 31 0 0 2
2  134 5 0 0 2
0

0101000
+43 0 -41 0 *
Ed
 1e-07 1 1 0
1  68 0 0 9
2  135 31 2 0 9
2  136 32 2 0 9
0

0101000
+65 2 -41 2 *
Wi

0101100
-42 0 -40 0 +39 1 +64 0 *
Fa
0  1e-07 31 0

0111000
+38 0 *
Ve
1e-07
1 10 4
0 0

0101101
*
Ed
 1e-07 1 1 0
1  69 0 2 4
2  137 32 0 2 4
2  138 8 0 2 4
0

0101000
+41 0 -36 0 *
Ed
 1e-07 1 1 0
1  70 0 0 9
2  139 32 5 0 9
2  140 33 5 0 9
0

0101000
+60 5 -36 5 *
Wi

0101100
-39 1 -35 0 +34 4 +59 0 *
Fa
0  1e-07 32 0

0111000
+33 0 *
Ve
1e-07
1 10 6
0 0

0101101
*
Ed
 1e-07 1 1 0
1  71 0 4 6
2  141 33 0 4 6
2  142 13 0 4 6
0

0101000
+36 0 -31 0 *
Ve
1e-07
1 10 7
0 0

0101101
*
Ed
 1e-07 1 1 0
1  72 0 6 7
2  143 33 0 6 7
2  144 12 0 6 7
0

0101000
+31 0 -29 0 *
Ed
 1e-07 1 1 0
1  73 0 0 9
2  145 33 8 0 9
2  146 34 8 0 9
0

0101000
+50 8 -29 8 *
Wi

0101100
-34 4 -30 0 -28 0 +27 7 +49 0 +54 0 *
Fa
0  1e-07 33 0

0111000
+26 0 *
Ve
1e-07
1 10 10
0 0

0101101
*
Ed
 1e-07 1 1 0
1  74 0 7 10
2  147 34 0 7 10
2  148 12 0 7 10
0

0101000
+29 0 -24 0 *
Ed
 1e-07 1 1 0
1  75 0 0 9
2  149 34 10 0 9
2  150 14 0 0 9
0

0101000
+48 10 -24 10 *
Wi

0101100
-27 7 -23 0 +22 9 +47 0 *
Fa
0  1e-07 34 0

0111000
+21 0 *
Ed
 1e-07 1 1 0
1  76 0 0 1
2  151 5 0 0 1
2  152 2 0 0 1
0

0101000
+43 0 -198 0 *
Ed
 1e-07 1 1 0
1  77 0 0 1
2  153 5 2 0 1
2  154 8 2 0 1
0

0101000
+41 2 -193 2 *
Wi

0101100
-19 0 -191 0 +18 1 +40 0 *
Fa
0  1e-07 5 0

0111000
+17 0 *
Ed
 1e-07 1 1 0
1  78 0 0 1
2  155 8 5 0 1
2  156 13 5 0 1
0

0101000
+36 5 -186 5 *
Wi

0101100
-18 1 -184 0 +15 4 +35 0 *
Fa
0  1e-07 8 0

0111000
+14 0 *
Ed
 1e-07 1 1 0
1  79 0 0 1
2  157 13 22 0 1
2  158 12 22 0 1
0

0101000
+31 22 -175 22 *
Wi

0101100
-15 4 -173 0 +12 21 +30 0 *
Fa
0  1e-07 13 0

0111000
+11 0 *
Ed
 1e-07 1 1 0
1  80 0 0 1
2  159 12 10 0 1
2  160 14 0 0 1
0

0101000
+24 10 -168 10 *
Wi

0101100
-12 21 -174 0 -166 0 +9 9 +23 0 +28 0 *
Fa
0  1e-07 12 0

0111000
+8 0 *
Wi

0101100
+196 0 +162 0 +138 0 +114 0 +90 0 +66 0 +42 0 +19 0 *
Fa
0  1e-07 2 0

0111000
+6 0 *
Wi

0101100
+167 0 +142 0 +118 0 +94 0 +70 0 +46 0 +22 0 +9 0 *
Fa
0  1e-07 14 0

0111000
+4 0 *
Sh

0101100
+189 0 +182 0 +171 0 +164 0 +157 0 +152 0 +147 0 +140 0 +133 0 +128 0 
+121 0 +116 0 +109 0 +104 0 +99 0 +92 0 +85 0 +80 0 +73 0 +68 0 
+61 0 +56 0 +51 0 +44 0 +37 0 +32 0 +25 0 +20 0 +16 0 +13 0 
+10 0 +7 0 +5 0 -3 9 *
So

1100000
-2 0 *

+1 0 
0

