
CASCADE Topology V1, (c) Matra-Datavision
Locations 45
1
0.000000000000000 -0.000000000000000 1.000000000000000 0.000000000000000 
1.000000000000000 0.000000000000000 0.000000000000000 0.000000000000000 
-0.000000000000000 1.000000000000000 0.000000000000000 0.000000000000000 
1
0.000000000000000 -0.000000000000000 1.000000000000000 0.000000000000000 
1.000000000000000 0.000000000000000 0.000000000000000 0.000000000000000 
-0.000000000000000 1.000000000000000 0.000000000000000 0.000000000000000 
1
-0.000000000000000 0.000000000000000 1.000000000000000 0.000000000000000 
1.000000000000000 -0.000000000000000 0.000000000000000 0.000000000000000 
0.000000000000000 1.000000000000000 -0.000000000000000 0.000000000000000 
1
0.000000000000000 -0.000000000000000 1.000000000000000 0.000000000000000 
1.000000000000000 0.000000000000000 0.000000000000000 0.000000000000000 
-0.000000000000000 1.000000000000000 0.000000000000000 0.000000000000000 
1
-0.000000000000000 0.000000000000000 1.000000000000000 0.000000000000000 
1.000000000000000 -0.000000000000000 0.000000000000000 0.000000000000000 
0.000000000000000 1.000000000000000 -0.000000000000000 0.000000000000000 
2  2 1 3 -1 4 1 5 -1 0
1
1.000000000000000 0.000000000000000 0.000000000000000 0.000000000000000 
0.000000000000000 1.000000000000000 0.000000000000000 0.000000000000000 
0.000000000000000 0.000000000000000 1.000000000000000 0.000000000000000 
1
0.000000000000000 -0.000000000000000 1.000000000000000 0.000000000000000 
1.000000000000000 0.000000000000000 -0.000000000000000 0.000000000000000 
-0.000000000000000 1.000000000000000 0.000000000000000 0.000000000000000 
1
-0.000000000000000 0.000000000000000 1.000000000000000 0.000000000000000 
1.000000000000000 -0.000000000000000 0.000000000000000 0.000000000000000 
0.000000000000000 1.000000000000000 -0.000000000000000 0.000000000000000 
2  7 1 8 1 9 -1 2 1 3 -1 4 1 5 -1 0
2  9 1 8 -1 7 -1 0
1
1.000000000000000 0.000000000000000 0.000000000000000 -0.000000000000001 
0.000000000000000 1.000000000000000 0.000000000000000 0.000000000000001 
0.000000000000000 0.000000000000000 1.000000000000000 2.000000000000000 
2  12 -1 9 1 8 -1 7 -1 0
2  8 -1 7 -1 0
2  3 1 2 -1 9 1 8 -1 7 -1 0
2  5 1 4 -1 3 1 2 -1 9 1 8 -1 7 -1 0
2  4 1 5 -1 0
2  2 1 3 -1 0
2  7 1 8 1 9 -1 12 1 2 1 3 -1 4 1 5 -1 0
2  3 1 2 -1 12 -1 9 1 8 -1 7 -1 0
2  5 1 4 -1 3 1 2 -1 0
2  7 1 8 1 9 -1 12 1 0
1
1.000000000000000 0.000000000000000 0.000000000000000 0.000000000000000 
0.000000000000000 1.000000000000000 0.000000000000000 0.000000000000000 
0.000000000000000 0.000000000000000 1.000000000000000 0.000000000000000 
1
0.000000000000000 -0.000000000000000 1.000000000000000 0.000000000000000 
1.000000000000000 0.000000000000000 -0.000000000000000 0.000000000000000 
-0.000000000000000 1.000000000000000 0.000000000000000 0.000000000000000 
2  23 1 24 1 3 -1 4 1 5 -1 0
2  3 1 24 -1 23 -1 0
1
1.000000000000000 0.000000000000000 0.000000000000000 -0.000000000000001 
0.000000000000000 1.000000000000000 0.000000000000000 0.000000000000001 
0.000000000000000 0.000000000000000 1.000000000000000 2.000000000000000 
2  27 -1 3 1 24 -1 23 -1 0
2  24 -1 23 -1 0
1
1.000000000000000 0.000000000000000 0.000000000000000 0.000000000000000 
0.000000000000000 1.000000000000000 0.000000000000000 0.000000000000000 
0.000000000000000 0.000000000000000 1.000000000000000 0.000000000000000 
1
0.000000000000000 -0.000000000000000 1.000000000000000 0.000000000000000 
1.000000000000000 0.000000000000000 -0.000000000000000 0.000000000000000 
-0.000000000000000 1.000000000000000 0.000000000000000 0.000000000000000 
2  30 1 31 1 5 -1 0
2  5 1 31 -1 30 -1 0
1
1.000000000000000 0.000000000000000 0.000000000000000 0.000000000000004 
0.000000000000000 1.000000000000000 0.000000000000000 -0.000000000000003 
0.000000000000000 0.000000000000000 1.000000000000000 -10.000000000000000 
2  34 -1 5 1 31 -1 30 -1 0
2  31 -1 30 -1 0
2  4 1 31 -1 30 -1 0
2  23 1 24 1 3 -1 0
2  23 1 24 1 3 -1 27 1 0
2  7 1 8 1 9 -1 12 1 2 1 3 -1 0
1
-0.000000000000000 0.000000000000000 1.000000000000000 0.000000000000000 
1.000000000000000 -0.000000000000000 0.000000000000000 0.000000000000000 
0.000000000000000 1.000000000000000 -0.000000000000000 0.000000000000000 
2  41 1 2 -1 9 1 8 -1 7 -1 0
2  30 1 31 1 5 -1 34 1 0
2  5 -1 34 1 0
2  30 1 31 1 0
Curve2ds 65
1 0.00000000000000000 0.00000000000000000 1.00000000000000000 0.00000000000000000 
1 0.00000000000000000 -2.00000000000000000 1.00000000000000000 0.00000000000000000 
2 -16.24459456268579771 0.00000000000000537 -0.00000000000000022 -1.00000000000000000 1.00000000000000000 -0.00000000000000022 50.00000000000000000
2 31.26232367170738868 0.00000000000001284 0.00000000000000078 -1.00000000000000000 -1.00000000000000000 -0.00000000000000078 50.00000000000000000
8 -2.00000059999998525 0.00000060000001462
1 1.15927948072740894 0.00000000000000000 0.00000000000000000 1.00000000000000000 
8 -2.00000059999998525 0.00000060000001462
1 45.82575694955839651 0.00000000000000065 -0.00000000000000011 1.00000000000000000 
1 0.00000000000000000 0.00000000000000000 0.00000000000000000 -1.00000000000000000 
1 0.00000000000000000 0.00000000000000000 0.00000000000000017 -1.00000000000000000 
1 0.00000000000000000 0.00000000000000000 1.00000000000000000 0.00000000000000000 
1 -0.00000000000000033 -2.00000000000000000 1.00000000000000000 0.00000000000000000 
1 -40.00000000000000711 -19.99999999999999289 1.00000000000000000 -0.00000000000000022 
1 31.26232367170739579 -19.99999999999998934 -1.00000000000000000 -0.00000000000000022 
1 40.00000000000000000 -20.00000000000001066 0.00000000000000022 1.00000000000000000 
1 -48.73767632829260776 -20.00000000000000711 -0.00000000000000044 1.00000000000000000 
1 0.00000000000000000 0.00000000000000000 1.00000000000000000 0.00000000000000000 
1 0.00000000000000089 -2.00000000000000000 1.00000000000000000 0.00000000000000000 
1 40.00000000000000000 19.99999999999998934 -1.00000000000000000 0.00000000000000022 
1 -48.73767632829263619 20.00000000000000000 1.00000000000000000 0.00000000000000022 
2 31.26232367170738868 0.00000000000001284 0.00000000000000078 -1.00000000000000000 -1.00000000000000000 -0.00000000000000078 50.00000000000000000
1 0.00000000000000000 0.00000000000000000 1.00000000000000000 0.00000000000000000 
1 0.00000000000000488 -10.00000000000000000 1.00000000000000000 0.00000000000000000 
1 -50.00000000000000711 1.00000000000006151 1.00000000000000000 -0.00000000000000089 
1 31.26232367170734605 50.00000000000003553 0.00000000000000078 -1.00000000000000000 
1 80.00000000000001421 0.00000000000000000 -0.00000000000000017 -1.00000000000000000 
1 -16.24459456268580837 -49.99999999999999289 -1.00000000000000000 0.00000000000000022 
1 0.00000000000000000 0.00000000000000000 1.00000000000000000 0.00000000000000000 
1 0.00000000000000033 -2.00000000000000000 1.00000000000000000 0.00000000000000000 
1 31.26232367170742776 -50.00000000000000711 1.00000000000000000 0.00000000000000033 
1 31.26232367170742776 -50.00000000000000711 1.00000000000000000 0.00000000000000033 
1 -18.24459456268578705 50.00000000000000711 1.00000000000000000 -0.00000000000000022 
1 0.00000000000000000 0.00000000000000000 1.00000000000000000 0.00000000000000000 
1 -0.00000000000000022 -2.00000000000000000 1.00000000000000000 0.00000000000000000 
1 33.26232367170734960 50.00000000000003553 -1.00000000000000000 -0.00000000000000033 
1 33.26232367170734960 50.00000000000003553 -1.00000000000000000 -0.00000000000000033 
1 -18.24459456268580837 -49.99999999999999289 0.00000000000000022 1.00000000000000000 
1 0.00000000000000000 0.00000000000000000 1.00000000000000000 0.00000000000000000 
1 -0.00000000000000044 -2.00000000000000000 1.00000000000000000 0.00000000000000000 
1 33.26232367170742776 -50.00000000000000711 -0.00000000000000078 1.00000000000000000 
1 33.26232367170742776 -50.00000000000000711 -0.00000000000000078 1.00000000000000000 
1 2.00000000000000044 0.00000000000000000 0.00000000000000017 -1.00000000000000000 
1 0.00000000000000000 0.00000000000000000 0.00000000000000022 -1.00000000000000000 
1 0.00000000000000000 0.00000000000000000 0.00000000000000017 -1.00000000000000000 
8 -2.00000059999999413 0.00000060000000573
1 1.98231317286238529 0.00000000000000000 0.00000000000000000 1.00000000000000000 
8 -2.00000059999999413 0.00000060000000573
1 34.17424305044162480 0.00000000000000953 0.00000000000000011 1.00000000000000000 
1 3.14159265358979312 0.00000000000000000 0.00000000000000000 -1.00000000000000000 
1 2.00000000000000666 0.00000000000000000 -0.00000000000000017 -1.00000000000000000 
1 0.00000000000000000 0.00000000000000000 0.00000000000000022 -1.00000000000000000 
1 2.00000000000006795 0.00000000000000000 0.00000000000000017 -1.00000000000000000 
1 100.00000000000007105 -0.00000000000000000 0.00000000000000022 -1.00000000000000000 
1 0.00000000000000000 0.00000000000000000 -0.00000000000000017 -1.00000000000000000 
1 100.00000000000002842 -0.00000000000000000 0.00000000000000022 -1.00000000000000000 
1 0.00000000000000000 0.00000000000000000 -0.00000000000000017 -1.00000000000000000 
1 2.00000000000000044 -0.00000000000000000 -0.00000000000000017 -1.00000000000000000 
1 0.00000000000000000 0.00000000000000000 -0.00000000000000022 -1.00000000000000000 
1 0.00000000000000000 0.00000000000000000 1.00000000000000000 0.00000000000000000 
1 -0.00000000000000167 -10.00000000000000000 1.00000000000000000 0.00000000000000000 
1 50.00000000000003553 0.99999999999997213 -0.00000000000000022 -1.00000000000000000 
1 100.00000000000007105 0.00000000000000000 -0.00000000000000022 -1.00000000000000000 
1 0.00000000000000000 0.00000000000000000 0.00000000000000017 -1.00000000000000000 
1 -50.00000000000000711 -1.00000000000000577 0.00000000000000022 1.00000000000000000 
1 0.00000000000000000 0.00000000000000000 1.00000000000000000 0.00000000000000000 
1 0.00000000000000178 -10.00000000000000000 1.00000000000000000 0.00000000000000000 
1 50.00000000000003553 -1.00000000000002798 -1.00000000000000000 0.00000000000000022 
1 0.00000000000000000 0.00000000000000000 1.00000000000000000 0.00000000000000000 
1 -0.00000000000000488 -10.00000000000000000 1.00000000000000000 0.00000000000000000 
Curves 23
2 -0.00000000000000000 -0.00000000000000000 0.00000000000000000 0.00000000000000000 0.00000000000000000 1.00000000000000000 1.00000000000000000 0.00000000000000000 0.00000000000000000 0.00000000000000000 1.00000000000000000 0.00000000000000000 50.00000000000000000
1 20.00000000000001421 45.82575694955838941 -0.00000000000001656 0.00000000000000044 -0.00000000000000056 -1.00000000000000000 
1 50.00000000000001421 -0.00000000000002220 0.00000000000001110 -0.00000000000000044 0.00000000000000028 1.00000000000000000 
1 20.00000000000000000 0.00000000000000000 0.00000000000000000 0.00000000000000000 1.00000000000000000 0.00000000000000000 
1 20.00000000000000000 80.00000000000000000 0.00000000000000000 -1.00000000000000000 0.00000000000000000 0.00000000000000000 
1 -20.00000000000000000 80.00000000000000000 0.00000000000000000 0.00000000000000000 -1.00000000000000000 0.00000000000000000 
1 -50.00000000000002132 0.00000000000003670 0.00000000000000000 1.00000000000000000 -0.00000000000000067 0.00000000000000000 
1 20.00000000000002132 80.00000000000000000 -0.00000000000003109 -0.00000000000000044 0.00000000000000028 1.00000000000000000 
1 50.00000000000000000 0.00000000000000000 0.00000000000000000 0.00000000000000000 -1.00000000000000000 0.00000000000000000 
1 -50.00000000000000000 -2.00000000000000000 0.00000000000000000 0.00000000000000000 1.00000000000000000 0.00000000000000000 
1 50.00000000000000000 -2.00000000000000000 0.00000000000000000 -1.00000000000000000 0.00000000000000000 0.00000000000000000 
1 50.00000000000001421 -2.00000000000002265 0.00000000000001199 -0.00000000000000044 0.00000000000000028 1.00000000000000000 
1 -19.99999999999998579 80.00000000000002842 -0.00000000000003997 -0.00000000000000044 0.00000000000000028 1.00000000000000000 
1 -19.99999999999999289 45.82575694955840362 -0.00000000000003432 0.00000000000000044 -0.00000000000000056 -1.00000000000000000 
1 -50.00000000000001421 0.00000000000002837 -0.00000000000001110 -0.00000000000000044 0.00000000000000028 1.00000000000000000 
1 -50.00000000000003553 0.00000000000005898 -0.00000000000001110 0.00000000000000044 -0.00000000000000028 -1.00000000000000000 
1 50.00000000000003553 -0.00000000000005270 0.00000000000001110 0.00000000000000044 -0.00000000000000028 -1.00000000000000000 
1 -50.00000000000001421 -1.99999999999997824 -0.00000000000001021 -0.00000000000000044 0.00000000000000028 1.00000000000000000 
1 50.00000000000003553 -2.00000000000005329 0.00000000000001199 0.00000000000000044 -0.00000000000000028 -1.00000000000000000 
1 50.00000000000002132 -0.00000000000003050 0.00000000000000000 0.00000000000000000 -1.00000000000000000 0.00000000000000000 
1 -50.00000000000003553 -2.00000000000000888 -0.00000000000001021 0.00000000000000044 -0.00000000000000028 -1.00000000000000000 
1 -50.00000000000002132 -2.00000000000003064 0.00000000000000000 0.00000000000000000 1.00000000000000000 0.00000000000000000 
1 50.00000000000002132 -2.00000000000003064 0.00000000000000000 -1.00000000000000000 0.00000000000000000 0.00000000000000000 
Polygon3D 0
PolygonOnTriangulations 0
Surfaces 17
2 -0.00000000000000000 -0.00000000000000000 0.00000000000000000 0.00000000000000022 -0.00000000000000044 -1.00000000000000000 1.00000000000000000 -0.00000000000000044 0.00000000000000022 0.00000000000000022 1.00000000000000000 -0.00000000000000044 50.00000000000000000
1 -0.00000000000000361 0.00000000000000537 16.24459456268579771 1.00000000000000000 -0.00000000000000022 0.00000000000000022 -0.00000000000000022 0.00000000000000000 1.00000000000000000 -0.00000000000000022 -1.00000000000000000 -0.00000000000000000 
1 0.00000000000001284 31.26232367170738868 -0.00000000000001667 0.00000000000000022 -0.00000000000000046 -1.00000000000000000 0.00000000000000000 -1.00000000000000000 0.00000000000000046 -1.00000000000000000 -0.00000000000000000 -0.00000000000000022 
1 20.00000000000000355 -0.00000000000000888 0.00000000000000444 -1.00000000000000000 0.00000000000000022 -0.00000000000000044 0.00000000000000022 1.00000000000000000 -0.00000000000000044 0.00000000000000044 -0.00000000000000044 -1.00000000000000000 
1 50.00000000000001421 -0.00000000000002220 0.00000000000001110 1.00000000000000000 -0.00000000000000022 0.00000000000000044 -0.00000000000000022 -1.00000000000000000 0.00000000000000044 0.00000000000000044 -0.00000000000000044 -1.00000000000000000 
1 -0.00000000000000888 0.00000000000000853 40.00000000000000000 1.00000000000000000 -0.00000000000000022 0.00000000000000022 -0.00000000000000022 0.00000000000000000 1.00000000000000000 -0.00000000000000022 -1.00000000000000000 -0.00000000000000000 
1 -19.99999999999998579 80.00000000000002842 -0.00000000000003997 1.00000000000000000 -0.00000000000000022 0.00000000000000044 -0.00000000000000022 -1.00000000000000000 0.00000000000000044 0.00000000000000044 -0.00000000000000044 -1.00000000000000000 
1 -50.00000000000003553 0.00000000000005891 -0.00000000000001110 -0.00000000000000112 -1.00000000000000000 0.00000000000000028 1.00000000000000000 -0.00000000000000112 0.00000000000000022 -0.00000000000000022 0.00000000000000028 1.00000000000000000 
1 0.00000000000000022 -0.00000000000001679 -1.00000000000001377 1.00000000000000000 -0.00000000000000022 0.00000000000000022 0.00000000000000022 1.00000000000000000 0.00000000000000000 -0.00000000000000022 0.00000000000000000 1.00000000000000000 
1 0.00000000000001527 31.26232367170739579 1.99999999999998379 -0.00000000000000022 0.00000000000000047 1.00000000000000000 0.00000000000000000 1.00000000000000000 -0.00000000000000047 -1.00000000000000000 -0.00000000000000000 -0.00000000000000022 
1 0.00000000000001284 31.26232367170738868 -0.00000000000001667 0.00000000000000022 -0.00000000000000046 -1.00000000000000000 0.00000000000000000 -1.00000000000000000 0.00000000000000046 -1.00000000000000000 -0.00000000000000000 -0.00000000000000022 
1 -50.00000000000001421 -1.99999999999997824 -0.00000000000001021 -1.00000000000000000 0.00000000000000022 -0.00000000000000044 0.00000000000000022 1.00000000000000000 -0.00000000000000044 0.00000000000000044 -0.00000000000000044 -1.00000000000000000 
1 50.00000000000001421 -2.00000000000002265 0.00000000000001199 -0.00000000000000044 -1.00000000000000000 0.00000000000000028 -1.00000000000000000 0.00000000000000044 -0.00000000000000022 0.00000000000000022 -0.00000000000000028 -1.00000000000000000 
1 20.00000000000002132 80.00000000000000000 -0.00000000000003109 -0.00000000000000044 -1.00000000000000000 0.00000000000000028 -1.00000000000000000 0.00000000000000044 -0.00000000000000022 0.00000000000000022 -0.00000000000000028 -1.00000000000000000 
1 -50.00000000000003553 -2.00000000000000888 -0.00000000000001021 1.00000000000000000 -0.00000000000000022 0.00000000000000044 0.00000000000000022 1.00000000000000000 -0.00000000000000044 -0.00000000000000044 0.00000000000000044 1.00000000000000000 
1 50.00000000000003553 -0.00000000000005270 0.00000000000001110 -1.00000000000000000 0.00000000000000022 -0.00000000000000044 -0.00000000000000022 -1.00000000000000000 0.00000000000000044 -0.00000000000000044 0.00000000000000044 1.00000000000000000 
1 50.00000000000003553 -2.00000000000005329 0.00000000000001199 0.00000000000000044 1.00000000000000000 -0.00000000000000028 -1.00000000000000000 0.00000000000000044 -0.00000000000000022 -0.00000000000000022 0.00000000000000028 1.00000000000000000 
Triangulations 0

TShapes 82
Ve
0.000001000000000
50.000000000000036 -0.000000000000055 0.000000000000011
0 0

0101101
*
Ve
0.000100000000000
20.000000000000476 45.825756949557984 -0.000000000000024
0 0

0101101
*
Ed
 0.000000100000015 1 1 0
1  1 0 0.000000000000000 1.159279480727397
2  1 1 11 0.000000000000000 1.159279480727397
2  2 1 13 0.000000000000000 1.159279480727397
2  3 2 14 0.000000000000000 1.159279480727397
2  4 3 15 0.000000000000000 1.159279480727397
0

0101000
+82 16 -81 15 *
Ve
0.000000100000614
20.000000000000476 45.825756949557984 1.999999999999977
0 0

0101101
*
Ed
 0.000000100000000 1 1 0
1  2 0 -1.999999999999993 0.000000000000007
2  5 1 18 -1.999999999999993 0.000000000000007
2  6 4 0 -1.999999999999993 0.000000000000007
0

0101000
+79 0 -81 0 *
Ve
0.000000100000015
50.000000000000000 0.000000000000000 0.000000000000000
0 0

0101101
*
Ed
 0.000000100000015 1 1 0
1  1 0 0.000000000000000 1.159279480727397
2  1 1 11 0.000000000000000 1.159279480727397
2  2 1 13 0.000000000000000 1.159279480727397
2  3 2 14 0.000000000000000 1.159279480727397
0

0101000
+77 0 -79 20 *
Ed
 0.000000100000000 1 1 0
1  3 0 0.000000000000000 2.000000000000000
2  7 1 0 0.000000000000000 2.000000000000000
4 G1 1 0 5 0
2  8 5 0 0.000000000000000 2.000000000000000
0

0101000
+82 21 -77 22 *
Wi

0101100
-80 10 +78 17 +76 19 +75 6 *
Fa
0  0.000000100000000 1 6

0101000
+74 0 *
Ve
0.000000100000015
20.000000000000000 80.000000000000000 0.000000000000000
0 0

0101101
*
Ed
 0.000000100000015 1 1 0
1  4 0 45.825756949557992 80.000000000000000
2  9 4 26 45.825756949557992 80.000000000000000
2  10 4 28 45.825756949557992 80.000000000000000
2  11 6 29 45.825756949557992 80.000000000000000
2  12 3 26 45.825756949557992 80.000000000000000
0

0101000
+81 26 -72 0 *
Ve
0.000000100000015
-20.000000000000000 80.000000000000000 0.000000000000000
0 0

0101101
*
Ed
 0.000000100000015 1 1 0
1  5 0 0.000000000000000 40.000000000000000
2  13 6 29 0.000000000000000 40.000000000000000
2  14 3 26 0.000000000000000 40.000000000000000
0

0101000
+72 0 -70 0 *
Ve
0.000000100000615
-20.000000000000462 45.825756949558006 -0.000000000000032
0 0

0101101
*
Ed
 0.000000100000015 1 1 0
1  6 0 0.000000000000000 34.174243050442023
2  15 7 26 0.000000000000000 34.174243050442023
2  16 7 28 0.000000000000000 34.174243050442023
2  17 6 29 0.000000000000000 34.174243050442023
2  18 3 26 0.000000000000000 34.174243050442023
0

0101000
+70 0 -68 26 *
Ve
0.000000100000034
-50.000000000000036 0.000000000000061 -0.000000000000011
0 0

0101101
*
Ed
 0.000000100000015 1 1 0
1  1 0 1.982313172862397 3.141592653589793
2  1 1 11 1.982313172862397 3.141592653589793
2  2 1 13 1.982313172862397 3.141592653589793
2  3 2 14 1.982313172862397 3.141592653589793
2  19 3 15 1.982313172862397 3.141592653589793
0

0101000
+68 15 -66 16 *
Ed
 0.000000100000033 1 1 0
1  7 0 0.000000000000000 100.000000000000043
2  20 8 33 0.000000000000000 100.000000000000043
2  21 8 35 0.000000000000000 100.000000000000043
2  22 9 36 0.000000000000000 100.000000000000043
2  23 3 37 0.000000000000000 100.000000000000043
0

0101000
+66 33 -82 33 *
Wi

0101100
-80 10 -71 25 -69 25 -67 25 -65 10 -64 32 *
Fa
0  0.000000100000015 3 17

0101000
+63 0 *
Ed
 0.000000100000000 1 1 0
1  8 0 0.000000000000000 2.000000000000000
2  24 4 0 0.000000000000000 2.000000000000000
0

0101000
+72 38 -72 39 *
Ed
 0.000000100000015 1 1 0
1  4 0 45.825756949557992 80.000000000000000
2  9 4 26 45.825756949557992 80.000000000000000
2  10 4 28 45.825756949557992 80.000000000000000
2  11 6 29 45.825756949557992 80.000000000000000
0

0101000
+79 28 -72 0 *
Wi

0101100
-71 38 -61 0 +60 39 -78 0 *
Fa
0  0.000000100000000 4 0

0111000
+59 0 *
Ve
0.000000100000015
50.000000000000000 -2.000000000000000 0.000000000000000
0 0

0101101
*
Ed
 0.000000100000015 1 1 0
1  9 0 0.000000000000000 2.000000000000000
2  25 2 14 0.000000000000000 2.000000000000000
2  26 5 11 0.000000000000000 2.000000000000000
2  27 5 13 0.000000000000000 2.000000000000000
2  28 11 42 0.000000000000000 2.000000000000000
2  29 3 15 0.000000000000000 2.000000000000000
0

0101000
+77 0 -57 0 *
Ve
0.000000100000615
-20.000000000000462 45.825756949558006 1.999999999999968
0 0

0101101
*
Ed
 0.000000100000015 1 1 0
1  6 0 0.000000000000000 34.174243050442023
2  15 7 26 0.000000000000000 34.174243050442023
2  16 7 28 0.000000000000000 34.174243050442023
2  17 6 29 0.000000000000000 34.174243050442023
0

0101000
+70 0 -55 28 *
Ve
0.000000100000015
-50.000000000000000 0.000000000000006 0.000000000000000
0 0

0101101
*
Ed
 0.000000100000015 1 1 0
1  1 0 1.982313172862397 3.141592653589793
2  1 1 11 1.982313172862397 3.141592653589793
2  2 1 13 1.982313172862397 3.141592653589793
2  3 2 14 1.982313172862397 3.141592653589793
0

0101000
+55 20 -53 0 *
Ve
0.000000100000015
-50.000000000000000 -2.000000000000000 0.000000000000000
0 0

0101101
*
Ed
 0.000000100000015 1 1 0
1  10 0 0.000000000000000 2.000000000000006
2  30 2 14 0.000000000000000 2.000000000000006
2  31 12 11 0.000000000000000 2.000000000000006
2  32 12 13 0.000000000000000 2.000000000000006
2  33 11 42 0.000000000000000 2.000000000000006
2  34 3 15 0.000000000000000 2.000000000000006
0

0101000
+51 0 -53 0 *
Ed
 0.000000100000015 1 1 0
1  11 0 0.000000000000000 100.000000000000000
2  35 2 14 0.000000000000000 100.000000000000000
2  36 13 11 0.000000000000000 100.000000000000000
2  37 13 13 0.000000000000000 100.000000000000000
2  38 11 42 0.000000000000000 100.000000000000000
2  39 3 15 0.000000000000000 100.000000000000000
0

0101000
+57 0 -51 0 *
Wi

0101100
-56 40 +76 40 +60 39 +69 39 +54 39 +52 40 -50 40 -49 40 *
Fa
0  0.000000100000015 10 0

0111000
+48 0 *
Ve
0.000000100000059
50.000000000000036 -2.000000000000056 0.000000000000013
0 0

0101101
*
Ed
 0.000000100000000 1 1 0
1  12 0 0.000000000000000 2.000000000000000
2  40 5 0 0.000000000000000 2.000000000000000
2  41 13 0 0.000000000000000 2.000000000000000
0

0101000
+46 21 -57 22 *
Ed
 0.000000100000015 1 1 0
1  9 0 0.000000000000000 2.000000000000000
2  25 2 14 0.000000000000000 2.000000000000000
2  26 5 11 0.000000000000000 2.000000000000000
2  27 5 13 0.000000000000000 2.000000000000000
2  28 11 42 0.000000000000000 2.000000000000000
2  29 3 15 0.000000000000000 2.000000000000000
0

0101000
+82 16 -46 16 *
Wi

0101100
+75 6 -45 6 -44 10 +56 19 *
Fa
0  0.000000100000000 5 6

0101000
+43 0 *
Ed
 0.000000100000000 1 1 0
1  13 0 0.000000000000000 2.000000000000000
2  42 7 0 0.000000000000000 2.000000000000000
0

0101000
+70 38 -70 39 *
Wi

0101100
+61 0 -41 0 -69 38 +69 39 *
Fa
0  0.000000100000000 14 0

0111000
+40 0 *
Ed
 0.000000100000000 1 1 0
1  14 0 -2.000000000000002 -0.000000000000002
2  43 1 18 -2.000000000000002 -0.000000000000002
2  44 7 0 -2.000000000000002 -0.000000000000002
0

0101000
+55 0 -68 0 *
Wi

0101100
-67 38 +38 0 +54 39 +41 0 *
Fa
0  0.000000100000000 7 0

0111000
+37 0 *
Ed
 0.000000100000000 1 1 0
1  15 0 0.000000000000000 2.000000000000000
2  45 1 0 0.000000000000000 2.000000000000000
4 G1 1 0 12 0
2  46 12 0 0.000000000000000 2.000000000000000
0

0101000
+66 21 -53 22 *
Wi

0101100
-65 10 -35 6 +52 19 -38 17 *
Fa
0  0.000000100000000 1 6

0111000
+34 0 *
Ve
0.000000100000000
-50.000000000000021 0.000000000000037 0.000000000000000
0 0

0101101
*
Ed
 0.000000100000000 1 1 0
1  16 0 0.000000000000000 10.000000000000000
2  47 8 0 0.000000000000000 10.000000000000000
2  48 15 0 0.000000000000000 10.000000000000000
0

0101000
+66 0 -32 43 *
Ve
0.000000100000000
50.000000000000021 -0.000000000000031 0.000000000000000
0 0

0101101
*
Ed
 0.000000100000000 1 1 0
1  17 0 0.000000000000000 10.000000000000000
2  49 8 0 0.000000000000000 10.000000000000000
2  50 16 0 0.000000000000000 10.000000000000000
0

0101000
+82 0 -30 43 *
Ed
 0.000000100000000 1 1 0
1  7 0 0.000000000000000 100.000000000000043
2  20 8 33 0.000000000000000 100.000000000000043
2  21 8 35 0.000000000000000 100.000000000000043
2  22 9 36 0.000000000000000 100.000000000000043
0

0101000
+32 0 -30 0 *
Wi

0101100
+31 0 -29 0 -64 32 +28 43 *
Fa
0  0.000000100000000 8 0

0101000
+27 0 *
Ve
0.000000100000062
-50.000000000000036 -1.999999999999975 -0.000000000000009
0 0

0101101
*
Ed
 0.000000100000000 1 1 0
1  18 0 0.000000000000000 2.000000000000000
2  51 13 0 0.000000000000000 2.000000000000000
2  52 12 0 0.000000000000000 2.000000000000000
0

0101000
+25 21 -51 22 *
Ed
 0.000000100000015 1 1 0
1  10 0 0.000000000000000 2.000000000000006
2  30 2 14 0.000000000000000 2.000000000000006
2  31 12 11 0.000000000000000 2.000000000000006
2  32 12 13 0.000000000000000 2.000000000000006
2  33 11 42 0.000000000000000 2.000000000000006
2  34 3 15 0.000000000000000 2.000000000000006
0

0101000
+25 16 -66 16 *
Wi

0101100
+24 6 -35 6 -23 10 +50 19 *
Fa
0  0.000000100000000 12 6

0111000
+22 0 *
Ed
 0.000000100000057 1 1 0
1  11 0 0.000000000000000 100.000000000000000
2  35 2 14 0.000000000000000 100.000000000000000
2  36 13 11 0.000000000000000 100.000000000000000
2  37 13 13 0.000000000000000 100.000000000000000
2  38 11 42 0.000000000000000 100.000000000000000
2  39 3 15 0.000000000000000 100.000000000000000
0

0101000
+46 16 -25 16 *
Wi

0101100
+45 6 -24 6 -20 10 +49 19 *
Fa
0  0.000000100000000 13 6

0111000
+19 0 *
Ve
0.000000100000000
50.000000000000021 -2.000000000000031 0.000000000000000
0 0

0101101
*
Ed
 0.000000100000000 1 1 0
1  19 0 0.000000000000000 10.000000000000000
2  53 16 0 0.000000000000000 10.000000000000000
2  54 17 0 0.000000000000000 10.000000000000000
0

0101000
+46 0 -17 43 *
Ed
 0.000000100000000 1 1 0
1  20 0 0.000000000000000 2.000000000000000
2  55 16 33 0.000000000000000 2.000000000000000
2  56 16 35 0.000000000000000 2.000000000000000
2  57 9 36 0.000000000000000 2.000000000000000
0

0101000
+30 0 -17 0 *
Wi

0101100
+29 0 -16 0 -44 10 +15 43 *
Fa
0  0.000000100000000 16 0

0111000
+14 0 *
Ve
0.000000100000000
-50.000000000000021 -2.000000000000031 0.000000000000000
0 0

0101101
*
Ed
 0.000000100000000 1 1 0
1  21 0 0.000000000000000 10.000000000000000
2  58 17 0 0.000000000000000 10.000000000000000
2  59 15 0 0.000000000000000 10.000000000000000
0

0101000
+25 0 -12 43 *
Ed
 0.000000100000000 1 1 0
1  22 0 0.000000000000000 2.000000000000068
2  60 9 36 0.000000000000000 2.000000000000068
2  61 15 33 0.000000000000000 2.000000000000068
2  62 15 35 0.000000000000000 2.000000000000068
0

0101000
+12 0 -32 0 *
Wi

0101100
+11 0 -31 0 -23 10 +10 43 *
Fa
0  0.000000100000000 15 0

0111000
+9 0 *
Ed
 0.000000100000000 1 1 0
1  23 0 0.000000000000000 100.000000000000043
2  63 9 36 0.000000000000000 100.000000000000043
2  64 17 33 0.000000000000000 100.000000000000043
2  65 17 35 0.000000000000000 100.000000000000043
0

0101000
+17 0 -12 0 *
Wi

0101100
+28 0 +15 0 +7 0 +10 0 *
Fa
0  0.000000100000000 9 0

0111000
-6 45 *
Wi

0101100
+16 0 -11 0 -20 10 +7 43 *
Fa
0  0.000000100000000 17 0

0111000
+4 0 *
Sh

0101100
-73 0 +62 0 -58 17 +47 17 +42 0 -39 17 -36 17 -33 0 -26 0 +21 0 
+18 0 -13 0 -8 0 -5 44 -3 0 *
So

0100000
+2 0 *

+1 1 