DBRep_DrawableShape

CASCADE Topology V1, (c) Matra-Datavision
Locations 0
Curve2ds 4
1 0 0 0 1 
1 1 0 0 1 
1 0 0 1 0 
1 0 1 1 0 
Curves 6
7 0 0  3 4 2  2 0 0  1.7000000000000002 0 2  1.4000000000000001 0 4  1.1000000000000001 0 6 
 0 4 1 4
7 0 0  3 14 12  2 0 0  1.9405509346042047 0.0144762334567683 0  1.8210240250609186 0.040846497921783916 0  1.6401854068203023 0.072580699232173779 0  1.4581395562391795 0.096433861197571316 0  1.2752297661882863 0.11236100285471254 0  1.0918009601281586 0.12033208943484772 0  0.90819903987183981 0.12033208943484826 0  0.72477023381171357 0.11236100285471094 0  0.54186044376081943 0.096433861197571732 0  0.35981459317969716 0.072580699232173682 0  0.17897597493908088 0.040846497921783964 0  0.059449065395795093 0.014476233456768298 0  0 0 0 
 0 4 0.090909090909090912 1 0.18181818181818182 1 0.27272727272727271 1 0.36363636363636365 1 0.45454545454545459 1 0.54545454545454541 1 0.63636363636363635 1 0.72727272727272729 1 0.81818181818181823 1 0.90909090909090917 1 1 4
7 0 0  3 4 2  0 0 0  0.033333333333333333 0 2  0.066666666666666693 0 4  0.10000000000000001 0 6 
 0 4 1 4
7 0 0  3 14 12  1.1000000000000001 0 6  1.0699548964438477 0.0048381809004605621 6  1.009724228009965 0.013642300132043966 6  0.91903298708288339 0.024220620539343662 6  0.82807291792607562 0.032162170358464921 6  0.73692066850793048 0.037460257424397986 6  0.64565304567502002 0.040110417520678891 6.0000000000000009  0.55434695432498027 0.040110417520678898 6  0.46307933149206992 0.037460257424397965 6  0.37192708207392422 0.032162170358464977 6  0.28096701291711701 0.024220620539343443 6  0.19027577199003523 0.013642300132044802 6  0.13004510355615256 0.0048381809004605534 6  0.10000000000000001 0 6 
 0 4 0.090909090909090912 1 0.18181818181818182 1 0.27272727272727271 1 0.36363636363636365 1 0.45454545454545459 1 0.54545454545454541 1 0.63636363636363635 1 0.72727272727272729 1 0.81818181818181823 1 0.90909090909090917 1 1 4
7 0 0  3 14 12  0 0 0  0.059449065395795177 -0.014476233456768328 0  0.17897597493908313 -0.040846497921783929 0  0.35981459317969416 -0.072580699232173682 0  0.54186044376082221 -0.096433861197571732 0  0.72477023381171102 -0.11236100285471098 0  0.90819903987184225 -0.12033208943484822 0  1.091800960128156 -0.12033208943484784 0  1.2752297661882879 -0.11236100285471208 0  1.4581395562391763 -0.096433861197572857 0  1.6401854068203028 -0.072580699232173362 0  1.8210240250609204 -0.040846497921784054 0  1.9405509346042049 -0.014476233456768295 0  2 0 0 
 0 4 0.090909090909090912 1 0.18181818181818182 1 0.27272727272727271 1 0.36363636363636365 1 0.45454545454545459 1 0.54545454545454541 1 0.63636363636363635 1 0.72727272727272729 1 0.81818181818181823 1 0.90909090909090917 1 1 4
7 0 0  3 14 12  0.10000000000000001 0 6  0.13004510355615259 -0.0048381809004605517 6  0.19027577199003423 -0.013642300132044795 6  0.28096701291711995 -0.024220620539343443 6  0.37192708207392516 -0.032162170358464977 6  0.46307933149207142 -0.037460257424397972 6  0.55434695432497794 -0.040110417520678898 6.0000000000000009  0.64565304567502368 -0.040110417520678891 6  0.73692066850793014 -0.037460257424397979 6  0.82807291792607629 -0.032162170358464914 6  0.91903298708288117 -0.024220620539343665 6  1.0097242280099676 -0.013642300132043971 6  1.0699548964438477 -0.0048381809004605638 6  1.1000000000000001 0 6 
 0 4 0.090909090909090912 1 0.18181818181818182 1 0.27272727272727271 1 0.36363636363636365 1 0.45454545454545459 1 0.54545454545454541 1 0.63636363636363635 1 0.72727272727272729 1 0.81818181818181823 1 0.90909090909090917 1 1 4
Polygon3D 0
PolygonOnTriangulations 0
Surfaces 4
9 0 0 0 0 3 3 14 4 12 2 2 0 0  1.7000000000000002 0 2  1.4000000000000001 0 4  1.1000000000000001 0 6  
1.9405509346042047 0.0144762334567683 0  1.6504287907772366 0.011549717719890861 2.0000000000000004  1.360077040270816 0.0077646966373379972 3.9999999999999996  1.0699548964438477 0.0048381809004605621 6  
1.8210240250609186 0.040846497921783916 0  1.5505552365601301 0.03164562204487735 2.0000000051935274  1.2801930147482119 0.022843176290490232 3.9999999948064731  1.009724228009965 0.013642300132043966 6  
1.6401854068203023 0.072580699232173779 0  1.3998107885704472 0.056496255769444642 1.9999999935010095  1.159407607762994 0.040305063649704709 4.0000000064989898  0.91903298708288339 0.024220620539343662 6  
1.4581395562391795 0.096433861197571316 0  1.248114786178804 0.075000442342140761 2.0000000062109247  1.0380976851348038 0.053595589550722515 3.9999999937890749  0.82807291792607562 0.032162170358464921 6  
1.2752297661882863 0.11236100285471254 0  1.0957941004150771 0.087396593326651367 1.9999999955709586  0.91635633734706146 0.062424666712215131 4.000000004429042  0.73692066850793048 0.037460257424397986 6  
1.0918009601281586 0.12033208943484772 0  0.94308475294608496 0.093591031045492545 2.0000000016010291  0.79436924971123246 0.066851475996889495 3.9999999983989696  0.64565304567502002 0.040110417520678891 6.0000000000000009  
0.90819903987183981 0.12033208943484826 0  0.79024858017377653 0.093591031045492878 2.0000000016010295  0.67229741716890457 0.066851475996889689 3.9999999983989714  0.55434695432498027 0.040110417520678898 6  
0.72477023381171357 0.11236100285471094 0  0.63753923350879538 0.087396593326650299 1.9999999955709582  0.55031032872906671 0.062424666712214597 4.0000000044290411  0.46307933149206992 0.037460257424397965 6  
0.54186044376081943 0.096433861197571732 0  0.48521854632640538 0.075000442342141052 2.0000000062109242  0.42856898235998586 0.053595589550722682 3.9999999937890749  0.37192708207392422 0.032162170358464977 6  
0.35981459317969716 0.072580699232173682 0  0.33352254562941736 0.05649625576944451 1.9999999935010098  0.30725905803714082 0.040305063649704528 4.0000000064989898  0.28096701291711701 0.024220620539343443 6  
0.17897597493908088 0.040846497921783964 0  0.18277809608073289 0.031645622044877635 2.0000000051935274  0.18647365261092494 0.022843176290490829 3.9999999948064726  0.19027577199003523 0.013642300132044802 6  
0.059449065395795093 0.014476233456768298 0  0.082904542556096875 0.011549717719890912 2.0000000000000004  0.10658962639585082 0.0077646966373379417 3.9999999999999996  0.13004510355615256 0.0048381809004605534 6  
0 0 0  0.033333333333333333 0 2  0.066666666666666693 0 4  0.10000000000000001 0 6  

0 4
0.090909090909090912 1
0.18181818181818182 1
0.27272727272727271 1
0.36363636363636365 1
0.45454545454545459 1
0.54545454545454541 1
0.63636363636363635 1
0.72727272727272729 1
0.81818181818181823 1
0.90909090909090917 1
1 4

0 4
1 4

9 0 0 0 0 3 3 14 4 12 2 0 0 0  0.033333333333333333 0 2  0.066666666666666693 0 4  0.10000000000000001 0 6  
0.059449065395795177 -0.014476233456768328 0  0.082904542556096847 -0.011549717719890943 2.0000000000000004  0.10658962639585096 -0.0077646966373379383 3.9999999999999996  0.13004510355615259 -0.0048381809004605517 6  
0.17897597493908313 -0.040846497921783929 0  0.18277809608073411 -0.031645622044877607 2.0000000051935274  0.18647365261092491 -0.022843176290490815 3.9999999948064731  0.19027577199003423 -0.013642300132044795 6  
0.35981459317969416 -0.072580699232173682 0  0.33352254562941641 -0.056496255769444503 1.9999999935010095  0.30725905803714182 -0.040305063649704514 4.0000000064989898  0.28096701291711995 -0.024220620539343443 6  
0.54186044376082221 -0.096433861197571732 0  0.4852185463264076 -0.075000442342141066 2.0000000062109247  0.42856898235998742 -0.053595589550722689 3.9999999937890749  0.37192708207392516 -0.032162170358464977 6  
0.72477023381171102 -0.11236100285471098 0  0.63753923350879405 -0.087396593326650326 1.9999999955709586  0.55031032872906671 -0.06242466671221461 4.000000004429042  0.46307933149207142 -0.037460257424397972 6  
0.90819903987184225 -0.12033208943484822 0  0.79024858017377753 -0.093591031045492865 2.0000000016010291  0.67229741716890368 -0.066851475996889662 3.9999999983989696  0.55434695432497794 -0.040110417520678898 6.0000000000000009  
1.091800960128156 -0.12033208943484784 0  0.94308475294608451 -0.093591031045492601 2.0000000016010295  0.7943692497112339 -0.066851475996889537 3.9999999983989714  0.64565304567502368 -0.040110417520678891 6  
1.2752297661882879 -0.11236100285471208 0  1.095794100415078 -0.087396593326651076 1.9999999955709582  0.91635633734706146 -0.062424666712214985 4.0000000044290411  0.73692066850793014 -0.037460257424397979 6  
1.4581395562391763 -0.096433861197572857 0  1.248114786178802 -0.075000442342141774 2.0000000062109242  1.0380976851348032 -0.053595589550723029 3.9999999937890749  0.82807291792607629 -0.032162170358464914 6  
1.6401854068203028 -0.072580699232173362 0  1.3998107885704469 -0.056496255769444378 1.9999999935010098  1.1594076077629925 -0.04030506364970457 4.0000000064989898  0.91903298708288117 -0.024220620539343665 6  
1.8210240250609204 -0.040846497921784054 0  1.5505552365601325 -0.031645622044877447 2.0000000051935274  1.2801930147482146 -0.022843176290490281 3.9999999948064726  1.0097242280099676 -0.013642300132043971 6  
1.9405509346042049 -0.014476233456768295 0  1.6504287907772364 -0.01154971771989086 2.0000000000000004  1.3600770402708162 -0.0077646966373380007 3.9999999999999996  1.0699548964438477 -0.0048381809004605638 6  
2 0 0  1.7000000000000002 0 2  1.4000000000000001 0 4  1.1000000000000001 0 6  

0 4
0.090909090909090912 1
0.18181818181818182 1
0.27272727272727271 1
0.36363636363636365 1
0.45454545454545459 1
0.54545454545454541 1
0.63636363636363635 1
0.72727272727272729 1
0.81818181818181823 1
0.90909090909090917 1
1 4

0 4
1 4

1 1 -4.1066666666666665 0 0 0 1 1 0 0 0 1 0 
1 0.59999999999999998 -3.105 6 0 0 1 1 0 0 0 1 0 
Triangulations 0

TShapes 20
Ve
2e-07
2 0 0
0 0

0101101
*
Ve
1e-07
1.1 0 6
0 0

0101101
*
Ed
 1e-07 1 1 0
1  1 0 0 1
2  1 1 0 0 1
2  2 2 0 0 1
0

0101000
+20 0 -19 0 *
Ve
2e-07
0 0 0
0 0

0101101
*
Ed
 1e-07 1 1 0
1  2 0 0 1
2  3 1 0 0 1
0

0101000
+20 0 -17 0 *
Ve
1e-07
0.1 0 6
0 0

0101101
*
Ed
 1e-07 1 1 0
1  3 0 0 1
2  2 1 0 0 1
2  1 2 0 0 1
0

0101000
+17 0 -15 0 *
Ed
 1e-07 1 1 0
1  4 0 0 1
2  4 1 0 0 1
0

0101000
+19 0 -15 0 *
Wi

0101100
-18 0 +16 0 +14 0 -13 0 *
Fa
0  1e-07 1 0

0111000
+12 0 *
Ed
 1e-07 1 1 0
1  5 0 0 1
2  3 2 0 0 1
0

0101000
+17 0 -20 0 *
Ed
 1e-07 1 1 0
1  6 0 0 1
2  4 2 0 0 1
0

0101000
+15 0 -19 0 *
Wi

0101100
-14 0 +10 0 +18 0 -9 0 *
Fa
0  1e-07 2 0

0111000
+8 0 *
Wi

0101100
+16 0 +10 0 *
Fa
0  1e-07 3 0

0111000
+6 0 *
Wi

0101100
+13 0 +9 0 *
Fa
0  1e-07 4 0

0111000
+4 0 *
Sh

0101000
+11 0 +7 0 -5 0 +3 0 *
So

1100000
+2 0 *

+1 0 