
CASCADE Topology V1, (c) Matra-Datavision
Locations 1
1
              1               0               0               0 
              0               1               0               0 
              0               0               1               0 
Curve2ds 9
1 0 0 1 0 
1 0 0 0 1 
1 0 40 1 0 
1 0 0 1 0 
1 0 0 0 1 
1 40 0 0 1 
1 0 -0 1 0 
1 0 -40 1 0 
1 6.2831853071795862 0 0 1 
Curves 10
2 50.000000000000007 -19.999999999999996 35.000000000000007 0 1 0 -7.1054273576009963e-16 0 -1 -1 0 7.1054273576009963e-16 10.000000000000007
1 50 -19.999999999999996 25 0 1 0 
2 50.000000000000007 20.000000000000004 35.000000000000007 0 1 0 -7.1054273576009963e-16 0 -1 -1 0 7.1054273576009963e-16 10.000000000000007
1 40.031881860323963 -19.999999999999996 34.20211482438787 0 1 0 
1 40.031881860323963 -19.999999999999996 34.20211482438787 0 -0 1 
1 40.031881860323963 20.000000000000004 34.20211482438787 0 -0 1 
1 40.031881860323963 -19.999999999999996 54.20211482438787 0 1 0 
2 30.104144634888335 -19.999999999999996 53.002100831677716 -0 -1 0 -0.040406868890513051 0 0.99918330898112229 -0.99918330898112229 0 -0.040406868890513051 10.000000000000007
2 30.104144634888335 20.000000000000004 53.002100831677716 -0 -1 0 -0.040406868890513051 0 0.99918330898112229 -0.99918330898112229 0 -0.040406868890513051 10.000000000000007
1 29.700075945983208 -19.999999999999996 62.993933921488946 -0 -1 0 
Polygon3D 6
10 1
0.1600000008
50 -20 25 48.350985418937 -20 25.1368995284727 46.7471207015924 -20 25.5438498177117 45.2323195126739 -20 26.2097086071752 43.8480569658802 -20 27.1162447460018 42.6322340391989 -20 28.2386373602017 41.6181398497037 -20 29.546155445846 40.8335402006686 -20 31.0029992810557 40.299917356492 -20 32.5692806190111 40.031881860324 -20 34.2021148243879 
0 0.165658100822771 0.331316201645541 0.496974302468312 0.662632403291083 0.828290504113854 0.993948604936625 1.1596067057594 1.32526480658217 1.49092290740494 
2 1
0.1600000008
50 -20 25 50 20 25 
0 40 
10 1
0.1600000008
50 20 25 48.350985418937 20 25.1368995284727 46.7471207015924 20 25.5438498177117 45.2323195126739 20 26.2097086071752 43.8480569658802 20 27.1162447460018 42.6322340391989 20 28.2386373602017 41.6181398497037 20 29.546155445846 40.8335402006686 20 31.0029992810557 40.299917356492 20 32.5692806190111 40.031881860324 20 34.2021148243879 
0 0.165658100822771 0.331316201645541 0.496974302468312 0.662632403291083 0.828290504113854 0.993948604936625 1.1596067057594 1.32526480658217 1.49092290740494 
10 1
0.1600000008
40.031881860324 -20 54.2021148243879 39.6980875486817 -20 55.8227850335822 39.101611984821 -20 57.3662251753342 38.2587866134294 -20 58.7901760041177 37.1926879136926 -20 60.0556498805268 35.9325055674703 -20 61.1279982491666 34.5127432485602 -20 61.977860312832 32.9722739153627 -20 62.5819669283664 31.353275472946 -20 62.9237777136072 29.7000759459832 -20 62.9939339214889 
4.79226239977465 4.95792050059742 5.12357860142019 5.28923670224296 5.45489480306573 5.62055290388851 5.78621100471128 5.95186910553405 6.11752720635682 6.28318530717959 
10 1
0.1600000008
40.031881860324 20 54.2021148243879 39.6980875486817 20 55.8227850335822 39.101611984821 20 57.3662251753342 38.2587866134294 20 58.7901760041177 37.1926879136926 20 60.0556498805268 35.9325055674703 20 61.1279982491666 34.5127432485602 20 61.977860312832 32.9722739153627 20 62.5819669283664 31.353275472946 20 62.9237777136072 29.7000759459832 20 62.9939339214889 
4.79226239977465 4.95792050059742 5.12357860142019 5.28923670224296 5.45489480306573 5.62055290388851 5.78621100471128 5.95186910553405 6.11752720635682 6.28318530717959 
2 1
0.1600000008
29.7000759459832 20 62.9939339214889 29.7000759459832 -20 62.9939339214889 
-40 -0 
PolygonOnTriangulations 4
2 1 3 
p 0.1600000008 1 0 40 
2 1 2 
p 0.1600000008 1 0 20 
2 3 4 
p 0.1600000008 1 0 20 
2 2 4 
p 0.1600000008 1 0 40 
Surfaces 3
10 0 1.4909229074049366 0 40
2 50.000000000000007 -19.999999999999996 35.000000000000007 0 1 0 -7.1054273576009963e-16 0 -1 -1 0 7.1054273576009963e-16 10.000000000000007
1 40.031881860323963 -19.999999999999996 34.20211482438787 1 0 0 -0 1 0 0 -0 1 
10 4.7922623997746499 6.2831853071795862 -40 -0
2 30.104144634888335 -19.999999999999996 53.002100831677716 -0 -1 0 -0.040406868890513051 0 0.99918330898112229 -0.99918330898112229 0 -0.040406868890513051 10.000000000000007
Triangulations 1
4 2 1 0.1600000008
40.031881860324 -20 34.2021148243879 40.031881860324 -20 54.2021148243879 40.031881860324 20 34.2021148243879 40.031881860324 20 54.2021148243879 0 0 0 20 40 0 40 20 4 2 1 4 1 3 

TShapes 26
Ve
1e-07
50 -20 25
0 0

0101101
*
Ve
1.01e-07
40.031881860324 -20 34.2021148243879
0 0

0101101
*
Ed
 1e-07 1 1 0
1  1 0 0 1.49092290740494
2  1 1 0 0 1.49092290740494
5  1 0
0

0101000
+26 0 -25 0 *
Ve
1e-07
50 20 25
0 0

0101101
*
Ed
 1e-07 1 1 0
1  2 0 0 40
2  2 1 0 0 40
5  2 0
0

0101000
+26 0 -23 0 *
Ve
1.01e-07
40.031881860324 20 34.2021148243879
0 0

0101101
*
Ed
 1e-07 1 1 0
1  3 0 0 1.49092290740494
2  3 1 0 0 1.49092290740494
5  3 0
0

0101000
+23 0 -21 0 *
Ed
 1e-07 1 1 0
1  4 0 0 40
2  4 2 0 0 40
6  1 1 0
0

0101000
+25 0 -21 0 *
Wi

0101100
+24 0 -22 0 -20 0 +19 0 *
Fa
0  1e-07 1 0

0111000
+18 0 *
Ve
1.01e-07
40.031881860324 -20 54.2021148243879
0 0

0101101
*
Ed
 1e-07 1 1 0
1  5 0 0 20
2  5 2 0 0 20
6  2 1 0
0

0101000
+25 0 -16 0 *
Ve
1.01e-07
40.031881860324 20 54.2021148243879
0 0

0101101
*
Ed
 1e-07 1 1 0
1  6 0 0 20
2  6 2 0 0 20
6  3 1 0
0

0101000
+21 0 -14 0 *
Ed
 1e-07 1 1 0
1  7 0 0 40
6  4 1 0
0

0101000
+16 0 -14 0 *
Wi

0101100
-15 0 +19 0 +13 0 -12 0 *
Fa
0  1e-07 2 0
2  1
0111000
+11 0 *
Ve
1.00000004898587e-07
29.7000759459832 -20 62.9939339214889
0 0

0101101
*
Ed
 1e-07 1 1 0
1  8 0 4.79226239977465 6.28318530717959
2  7 3 0 4.79226239977465 6.28318530717959
5  4 0
0

0101000
+16 0 -9 0 *
Ve
1.00000004898587e-07
29.7000759459832 20 62.9939339214889
0 0

0101101
*
Ed
 1e-07 1 1 0
1  9 0 4.79226239977465 6.28318530717959
2  8 3 0 4.79226239977465 6.28318530717959
5  5 0
0

0101000
+14 0 -7 0 *
Ed
 1e-07 1 1 0
1  10 0 -40 -0
2  9 3 0 -40 -0
5  6 0
0

0101000
-9 0 +7 0 *
Wi

0101100
-8 0 -12 0 +6 0 +5 0 *
Fa
0  1e-07 3 0

0111000
+4 0 *
Sh

0101000
-17 0 +10 0 +3 0 *
Co

1100000
+2 1 *

+1 0 