DBRep_DrawableShape

CASCADE Topology V1, (c) Matra-Datavision
Locations 46
1
              1               0               0               0 
              0               1               0               0 
              0               0               1               2 
1
              1               0               0               0 
              0               1               0               0 
              0               0               1               2 
1
              1               0               0               0 
              0               1               0               0 
              0               0               1               3 
2  1 1 2 1 3 1 0
2  3 -1 2 -1 1 -1 0
1
              1               0               0               0 
              0               1               0               0 
              0               0               1              10 
2  6 -1 0
2  1 1 2 1 0
2  2 -1 1 -1 0
1
              1               0               0               0 
              0               1               0               0 
              0               0               1              -1 
2  1 1 2 1 3 1 10 1 0
2  10 -1 3 -1 2 -1 1 -1 0
1
              1               0               0               0 
              0               1               0               0 
              0               0               1              -1 
2  1 1 2 1 3 1 13 1 0
2  13 -1 3 -1 2 -1 1 -1 0
1
              1               0               0               0 
              0               1               0               0 
              0               0               1              -1 
2  1 1 2 1 16 1 0
2  16 -1 2 -1 1 -1 0
2  1 -1 0
1
              1               0               0               0 
              0               1               0               0 
              0               0               1              -1 
2  1 1 2 1 20 1 0
2  20 -1 2 -1 1 -1 0
1
              1               0               0               0 
              0               1               0               0 
              0               0               1              -1 
2  1 1 2 1 3 1 23 1 0
2  23 -1 3 -1 2 -1 1 -1 0
1
              1               0               0               0 
              0               1               0               0 
              0               0               1              -1 
2  1 1 2 1 3 1 26 1 0
2  26 -1 3 -1 2 -1 1 -1 0
1
              1               0               0               0 
              0               1               0               0 
              0               0               1              -1 
2  1 1 29 1 0
2  29 -1 1 -1 0
1
              1               0               0               0 
              0               1               0               0 
              0               0               1              -1 
2  1 1 32 1 0
2  32 -1 1 -1 0
1
              1               0               0               0 
              0               1               0               0 
              0               0               1              -1 
2  1 1 2 1 35 1 0
2  35 -1 2 -1 1 -1 0
1
              1               0               0               0 
              0               1               0               0 
              0               0               1              -1 
2  1 1 2 1 38 1 0
2  38 -1 2 -1 1 -1 0
1
              1               0               0               0 
              0               1               0               0 
              0               0               1              -1 
2  1 1 41 1 0
2  41 -1 1 -1 0
1
              1               0               0               0 
              0               1               0               0 
              0               0               1              -1 
2  1 1 44 1 0
2  44 -1 1 -1 0
Curve2ds 192
1 0 -0 0 -1 
1 0 -0 0 -1 
1 7 -10 -1 -0 
1 0 0 -1 0 
1 -3 -0 0 -1 
1 -10 0 0 1 
1 7 0 -1 -0 
1 -7 0 1 0 
1 7 0 -1 -0 
1 -7 0 1 0 
1 7 0 -1 -0 
1 -7 0 1 0 
1 3 0 0 -1 
1 3 0 0 -1 
1 7 -10 -1 -0 
1 0 0 -1 0 
1 7 -10 -1 -0 
1 0 0 -1 0 
1 -6 0 -0 -1 
1 -6 0 -0 -1 
1 -0 -1 -1 0 
1 0 0 1 0 
1 -0 -1 -1 0 
1 0 0 1 0 
1 -10 0 -0 -1 
1 -10 10 1 0 
1 0 0 -1 0 
1 3 -10 0 1 
1 -9 10 -0 -1 
1 10 0 0 1 
1 -9 1 1 0 
1 -10 0 -0 -1 
1 -1 1 0 1 
1 -10 -0 0 -1 
1 -1 10 1 0 
1 -10 -9 -0 -1 
1 0 10 -0 -1 
1 -10 -0 0 1 
1 -7 -10 1 0 
1 0 10 -1 -0 
1 -7 -10 1 0 
1 0 10 -1 -0 
1 -1 -10 0 1 
1 -1 -10 0 1 
1 -7 -10 1 0 
1 0 10 -1 -0 
1 -7 -10 1 0 
1 0 10 -1 -0 
1 -4 -10 0 1 
1 -4 -10 0 1 
1 -7 0 1 0 
1 7 0 -1 -0 
1 7 0 -1 -0 
1 -7 0 1 0 
1 5 0 0 -1 
1 5 0 0 -1 
1 7 -10 -1 -0 
1 0 0 -1 0 
1 7 -10 -1 -0 
1 0 0 -1 0 
1 -3 0 -0 -1 
1 -3 0 -0 -1 
1 -0 -1 -1 0 
1 0 0 1 0 
1 -0 -1 -1 0 
1 0 0 1 0 
1 4 0 0 1 
1 4 0 0 1 
1 0 9 1 0 
1 0 0 -1 0 
1 0 9 1 0 
1 0 0 -1 0 
1 7 0 0 1 
1 7 0 0 1 
1 0 9 1 0 
1 0 0 -1 0 
1 -6 0 -0 -1 
1 -6 0 -0 -1 
1 -0 -8 -1 0 
1 0 -0 -1 -0 
1 -0 -8 -1 0 
1 0 -0 -1 -0 
1 -7 -0 0 -1 
1 -7 -0 0 -1 
1 0 -9 -1 -0 
1 -0 -9 -1 0 
1 -6 -9 -0 -1 
1 -6 -9 -0 -1 
1 -0 -10 -1 0 
1 0 -0 -1 -0 
1 -0 -10 -1 0 
1 0 -0 -1 -0 
1 -0 -9 -1 0 
1 0 -9 -1 -0 
1 -7 -0 0 1 
1 -7 -0 0 1 
1 0 -0 -1 -0 
1 -0 -10 -1 0 
1 -4 -0 0 1 
1 -4 -0 0 1 
1 0 -0 -1 -0 
1 -0 -10 -1 0 
1 0 -0 -1 -0 
1 -0 -10 -1 0 
1 0 10 -1 -0 
1 -7 -10 1 0 
1 -2 -0 0 1 
1 -2 -0 0 1 
1 -7 -10 1 0 
1 0 10 -1 -0 
1 -6 -10 0 1 
1 -6 -10 0 1 
1 -7 0 1 0 
1 7 0 -1 -0 
1 7 0 -1 -0 
1 -7 0 1 0 
1 7 0 0 -1 
1 0 0 0 1 
1 7 -10 -1 -0 
1 0 0 -1 0 
1 7 -10 -1 -0 
1 0 0 -1 0 
1 -1 0 -0 -1 
1 -1 0 -0 -1 
1 -0 -1 -1 0 
1 0 0 1 0 
1 -0 -1 -1 0 
1 0 0 1 0 
1 2 0 0 1 
1 2 0 0 1 
1 0 9 1 0 
1 0 0 -1 0 
1 0 9 1 0 
1 0 0 -1 0 
1 -3 0 -0 -1 
1 -3 0 -0 -1 
1 -0 -8 -1 0 
1 0 -0 -1 -0 
1 -0 -8 -1 0 
1 0 -0 -1 -0 
1 -4 -0 0 -1 
1 -4 -0 0 -1 
1 0 -9 -1 -0 
1 -0 -9 -1 0 
1 -3 -9 -0 -1 
1 -3 -9 -0 -1 
1 -0 -9 -1 0 
1 0 -9 -1 -0 
1 -1 -9 -0 -1 
1 -1 -9 -0 -1 
1 -0 -10 -1 0 
1 0 -0 -1 -0 
1 -0 -9 -1 0 
1 0 -9 -1 -0 
1 -0 -9 -1 0 
1 0 -9 -1 -0 
1 0 -0 -1 -0 
1 -0 -10 -1 0 
1 0 10 -1 -0 
1 -7 -10 1 0 
1 0 -0 0 1 
1 10 10 -0 -1 
1 -7 -10 0 1 
1 10 0 -1 0 
1 0 10 1 0 
1 0 0 -0 -1 
1 1 10 -0 -1 
1 0 0 0 1 
1 1 1 1 0 
1 0 0 -0 -1 
1 9 1 0 1 
1 0 -0 0 -1 
1 9 10 1 0 
1 -0 -9 -0 -1 
1 -0 -1 -1 0 
1 0 0 1 0 
1 0 9 1 0 
1 0 0 -1 0 
1 0 9 1 0 
1 0 0 -1 0 
1 -1 0 -0 -1 
1 -1 0 -0 -1 
1 -0 -8 -1 0 
1 0 -0 -1 -0 
1 -0 -8 -1 0 
1 0 -0 -1 -0 
1 -2 -0 0 -1 
1 -2 -0 0 -1 
1 -0 -9 -1 0 
1 0 -9 -1 -0 
1 0 -0 -1 -0 
1 -0 -8 -1 0 
Curves 96
1 10 0 0 0 1 0 
1 10 10 0 0 0 1 
1 10 0 0 0 1 0 
1 10 0 0 0 0 1 
1 10 0 0 0 0 1 
1 10 0 0 0 0 1 
1 10 0 0 0 1 0 
1 10 10 0 0 0 1 
1 10 10 0 0 0 1 
1 10 10 0 -1 0 0 
1 9 10 0 0 0 1 
1 9 10 0 0 0 1 
1 10 10 0 -1 0 0 
1 0 0 0 1 0 0 
1 9 10 0 0 -1 0 
1 9 1 0 -1 0 0 
1 1 1 0 0 1 0 
1 1 10 0 -1 0 0 
1 0 10 0 0 -1 0 
1 0 0 0 0 0 1 
1 0 0 0 0 0 1 
1 0 0 0 1 0 0 
1 0 0 0 0 0 1 
1 0 0 0 0 0 1 
1 0 0 0 1 0 0 
1 10 0 0 0 0 1 
1 10 0 0 0 0 1 
1 10 0 0 0 1 0 
1 10 10 0 0 0 1 
1 10 10 0 0 0 1 
1 10 10 0 -1 0 0 
1 9 10 0 0 0 1 
1 9 10 0 0 0 1 
1 9 10 0 0 -1 0 
1 9 1 0 0 0 1 
1 9 1 0 0 0 1 
1 9 10 0 0 -1 0 
1 9 1 0 0 0 1 
1 9 1 0 -1 0 0 
1 1 1 0 0 0 1 
1 1 1 0 0 0 1 
1 1 1 0 0 1 0 
1 1 10 0 0 0 1 
1 1 10 0 -1 0 0 
1 0 10 0 0 0 1 
1 0 10 0 0 0 1 
1 1 10 0 0 0 1 
1 0 10 0 0 -1 0 
1 0 10 0 0 0 1 
1 0 10 0 0 -1 0 
1 0 10 0 0 0 1 
1 0 10 0 0 0 1 
1 0 0 0 0 0 1 
1 0 10 0 0 -1 0 
1 0 0 0 0 0 1 
1 0 0 0 1 0 0 
1 10 0 0 0 0 1 
1 10 0 0 0 0 1 
1 10 0 0 0 1 0 
1 10 10 0 0 0 1 
1 10 10 0 0 0 1 
1 10 10 0 -1 0 0 
1 9 10 0 0 0 1 
1 9 10 0 0 0 1 
1 9 10 0 0 -1 0 
1 9 1 0 0 0 1 
1 9 1 0 0 0 1 
1 9 1 0 -1 0 0 
1 1 1 0 0 0 1 
1 1 1 0 0 0 1 
1 1 1 0 0 1 0 
1 1 10 0 0 0 1 
1 1 10 0 -1 0 0 
1 1 10 0 0 0 1 
1 1 10 0 -1 0 0 
1 0 10 0 0 0 1 
1 1 10 0 0 0 1 
1 1 10 0 0 0 1 
1 0 10 0 0 0 1 
1 0 0 0 0 0 1 
1 0 10 0 0 -1 0 
1 0 0 0 1 0 0 
1 10 10 0 -1 0 0 
1 9 10 0 0 -1 0 
1 9 1 0 -1 0 0 
1 1 1 0 0 1 0 
1 1 10 0 -1 0 0 
1 9 10 0 0 0 1 
1 9 1 0 0 0 1 
1 9 1 0 0 0 1 
1 9 1 0 -1 0 0 
1 1 1 0 0 0 1 
1 1 1 0 0 0 1 
1 1 1 0 0 1 0 
1 1 10 0 0 0 1 
1 1 1 0 0 0 1 
Polygon3D 0
PolygonOnTriangulations 0
Surfaces 34
1 10 0 7 -1 0 0 0 0 -1 -0 -1 -0 
1 10 0 7 -1 0 0 0 0 -1 -0 -1 -0 
1 10 10 0 0 -1 0 0 -0 -1 1 0 0 
1 0 0 10 0 0 -1 -1 0 -0 0 1 0 
1 10 0 7 0 1 0 0 -0 1 1 0 -0 
1 10 0 7 0 1 0 0 -0 1 1 0 -0 
1 10 0 7 -1 0 0 0 0 -1 -0 -1 -0 
1 10 10 0 0 -1 0 0 -0 -1 1 0 0 
1 9 10 0 1 0 -0 0 0 1 0 -1 0 
1 9 10 0 1 0 -0 0 0 1 0 -1 0 
1 9 1 0 0 -1 0 0 -0 -1 1 0 0 
1 1 1 0 -1 0 0 0 0 -1 -0 -1 -0 
1 10 10 0 0 -1 0 0 -0 -1 1 0 0 
1 0 10 0 -1 0 0 0 0 -1 -0 -1 -0 
1 0 10 0 -1 0 0 0 0 -1 -0 -1 -0 
1 0 10 0 -1 0 0 0 0 -1 -0 -1 -0 
1 10 0 7 0 1 0 0 -0 1 1 0 -0 
1 10 0 7 -1 0 0 0 0 -1 -0 -1 -0 
1 10 10 0 0 -1 0 0 -0 -1 1 0 0 
1 9 10 0 1 0 -0 0 0 1 0 -1 0 
1 9 1 0 0 -1 0 0 -0 -1 1 0 0 
1 1 1 0 -1 0 0 0 0 -1 -0 -1 -0 
1 10 10 0 0 -1 0 0 -0 -1 1 0 0 
1 10 10 0 0 -1 0 0 -0 -1 1 0 0 
1 0 10 0 -1 0 0 0 0 -1 -0 -1 -0 
1 10 0 7 0 1 0 0 -0 1 1 0 -0 
1 10 0 0 0 0 -1 -1 0 -0 0 1 0 
1 10 10 0 0 -1 0 0 -0 -1 1 0 0 
1 9 10 0 1 0 -0 0 0 1 0 -1 0 
1 9 1 0 0 -1 0 0 -0 -1 1 0 0 
1 1 1 0 -1 0 0 0 0 -1 -0 -1 -0 
1 10 10 0 0 -1 0 0 -0 -1 1 0 0 
1 1 1 0 -1 0 0 0 0 -1 -0 -1 -0 
1 9 1 0 0 -1 0 0 -0 -1 1 0 0 
Triangulations 0

TShapes 230
Ve
1e-07
10 0 7
0 0

0101101
*
Ve
1e-07
10 10 7
0 0

0101101
*
Ed
 1e-07 1 1 0
1  1 0 0 10
2  1 1 5 0 10
2  2 2 5 0 10
0

0101000
+230 5 -229 5 *
Ve
1e-07
10 10 10
0 0

0101101
*
Ed
 1e-07 1 1 0
1  2 0 7 10
2  3 1 0 7 10
2  4 3 0 7 10
0

0101000
+229 0 -227 0 *
Ve
1e-07
10 0 10
0 0

0101101
*
Ed
 1e-07 1 1 0
1  3 0 0 10
2  5 1 7 0 10
2  6 4 7 0 10
0

0101000
+225 7 -227 7 *
Ed
 1e-07 1 1 0
1  4 0 7 10
2  7 1 0 7 10
2  8 5 0 7 10
0

0101000
+230 0 -225 0 *
Wi

0101100
-228 4 -226 0 +224 6 +223 0 *
Fa
0  1e-07 1 0

0111000
+222 0 *
Ve
1e-07
10 0 6
0 0

0101101
*
Ed
 1e-07 1 1 0
1  5 0 6 7
2  9 2 0 6 7
2  10 5 0 6 7
0

0101000
+220 0 -230 0 *
Ve
1e-07
10 0 4
0 0

0101101
*
Ed
 1e-07 1 1 0
1  6 0 4 6
2  11 2 0 4 6
2  12 6 0 4 6
0

0101000
+218 0 -220 0 *
Ve
1e-07
10 10 4
0 0

0101101
*
Ed
 1e-07 1 1 0
1  7 0 0 10
2  13 2 9 0 10
2  14 7 9 0 10
0

0101000
+218 9 -216 9 *
Ve
1e-07
10 10 6
0 0

0101101
*
Ed
 1e-07 1 1 0
1  8 0 4 6
2  15 2 0 4 6
2  16 8 0 4 6
0

0101000
+216 0 -214 0 *
Ed
 1e-07 1 1 0
1  9 0 6 7
2  17 2 0 6 7
2  18 3 0 6 7
0

0101000
+214 0 -229 0 *
Wi

0101100
+219 0 +217 0 -215 8 -213 0 -212 0 +228 4 *
Fa
0  1e-07 2 0

0111000
+211 0 *
Ve
1e-07
9 10 6
0 0

0101101
*
Ed
 1e-07 1 1 0
1  10 0 0 1
2  19 3 12 0 1
2  20 8 12 0 1
0

0101000
+214 12 -209 12 *
Ve
1e-07
9 10 7
0 0

0101101
*
Ed
 1e-07 1 1 0
1  11 0 6 7
2  21 3 0 6 7
2  22 9 0 6 7
0

0101000
+209 0 -207 0 *
Ve
1e-07
9 10 10
0 0

0101101
*
Ed
 1e-07 1 1 0
1  12 0 7 10
2  23 3 0 7 10
2  24 10 0 7 10
0

0101000
+207 0 -205 0 *
Ed
 1e-07 1 1 0
1  13 0 0 1
2  25 3 7 0 1
2  26 4 7 0 1
0

0101000
+227 7 -205 7 *
Wi

0101100
-208 11 -206 0 -204 0 +203 6 +226 0 +212 0 *
Fa
0  1e-07 3 0

0111000
+202 0 *
Ve
1e-07
0 0 10
0 0

0101101
*
Ed
 1e-07 1 1 0
1  14 0 0 10
2  27 4 7 0 10
2  28 5 7 0 10
0

0101000
+200 7 -225 7 *
Ve
1e-07
9 1 10
0 0

0101101
*
Ed
 1e-07 1 1 0
1  15 0 0 9
2  29 4 7 0 9
2  30 10 7 0 9
0

0101000
+205 7 -198 7 *
Ve
1e-07
1 1 10
0 0

0101101
*
Ed
 1e-07 1 1 0
1  16 0 0 8
2  31 4 7 0 8
2  32 11 7 0 8
0

0101000
+198 7 -196 7 *
Ve
1e-07
1 10 10
0 0

0101101
*
Ed
 1e-07 1 1 0
1  17 0 0 9
2  33 4 7 0 9
2  34 12 7 0 9
0

0101000
+196 7 -194 7 *
Ve
1e-07
0 10 10
0 0

0101101
*
Ed
 1e-07 1 1 0
1  18 0 0 1
2  35 4 7 0 1
2  36 13 7 0 1
0

0101000
+194 7 -192 7 *
Ed
 1e-07 1 1 0
1  19 0 0 10
2  37 4 7 0 10
2  38 14 7 0 10
0

0101000
+192 7 -200 7 *
Wi

0101100
-199 6 -224 6 -203 6 -197 6 -195 6 -193 6 -191 6 -190 6 *
Fa
0  1e-07 4 0

0111000
+189 0 *
Ve
1e-07
0 0 7
0 0

0101101
*
Ed
 1e-07 1 1 0
1  20 0 7 10
2  39 5 0 7 10
2  40 14 0 7 10
0

0101000
+187 0 -200 0 *
Ve
1e-07
0 0 6
0 0

0101101
*
Ed
 1e-07 1 1 0
1  21 0 6 7
2  41 5 0 6 7
2  42 15 0 6 7
0

0101000
+185 0 -187 0 *
Ed
 1e-07 1 1 0
1  22 0 0 10
2  43 5 15 0 10
2  44 6 15 0 10
0

0101000
+185 15 -220 15 *
Wi

0101100
-223 0 +199 6 +186 0 +184 0 -183 14 -219 0 *
Fa
0  1e-07 5 0

0111000
+182 0 *
Ve
1e-07
0 0 4
0 0

0101101
*
Ed
 1e-07 1 1 0
1  23 0 4 6
2  45 6 0 4 6
2  46 15 0 4 6
0

0101000
+180 0 -185 0 *
Ve
1e-07
0 0 3
0 0

0101101
*
Ed
 1e-07 1 1 0
1  24 0 3 4
2  47 6 0 3 4
2  48 16 0 3 4
0

0101000
+178 0 -180 0 *
Ve
1e-07
10 0 3
0 0

0101101
*
Ed
 1e-07 1 1 0
1  25 0 0 10
2  49 6 18 0 10
2  50 17 18 0 10
0

0101000
+178 18 -176 18 *
Ed
 1e-07 1 1 0
1  26 0 3 4
2  51 6 0 3 4
2  52 7 0 3 4
0

0101000
+176 0 -218 0 *
Wi

0101100
+183 14 +179 0 +177 0 -175 17 -174 0 -217 0 *
Fa
0  1e-07 6 0

0111000
+173 0 *
Ve
1e-07
10 0 2
0 0

0101101
*
Ed
 1e-07 1 1 0
1  27 0 2 3
2  53 7 0 2 3
2  54 17 0 2 3
0

0101000
+171 0 -176 0 *
Ve
1e-07
10 10 2
0 0

0101101
*
Ed
 1e-07 1 1 0
1  28 0 0 10
2  55 7 19 0 10
2  56 18 19 0 10
0

0101000
+171 19 -169 19 *
Ve
1e-07
10 10 3
0 0

0101101
*
Ed
 1e-07 1 1 0
1  29 0 2 3
2  57 7 0 2 3
2  58 19 0 2 3
0

0101000
+169 0 -167 0 *
Ed
 1e-07 1 1 0
1  30 0 3 4
2  59 7 0 3 4
2  60 8 0 3 4
0

0101000
+167 0 -216 0 *
Wi

0101100
+174 0 +170 0 -168 1 -166 0 -165 0 +215 8 *
Fa
0  1e-07 7 0

0111000
+164 0 *
Ve
1e-07
9 10 3
0 0

0101101
*
Ed
 1e-07 1 1 0
1  31 0 0 1
2  61 8 22 0 1
2  62 19 22 0 1
0

0101000
+167 22 -162 22 *
Ve
1e-07
9 10 4
0 0

0101101
*
Ed
 1e-07 1 1 0
1  32 0 3 4
2  63 8 0 3 4
2  64 20 0 3 4
0

0101000
+162 0 -160 0 *
Ed
 1e-07 1 1 0
1  33 0 4 6
2  65 8 0 4 6
2  66 9 0 4 6
0

0101000
+160 0 -209 0 *
Wi

0101100
-161 21 -159 0 -158 0 +208 11 +213 0 +165 0 *
Fa
0  1e-07 8 0

0111000
+157 0 *
Ve
1e-07
9 1 4
0 0

0101101
*
Ed
 1e-07 1 1 0
1  34 0 0 9
2  67 9 9 0 9
2  68 20 9 0 9
0

0101000
+160 9 -155 9 *
Ve
1e-07
9 1 6
0 0

0101101
*
Ed
 1e-07 1 1 0
1  35 0 4 6
2  69 9 0 4 6
2  70 21 0 4 6
0

0101000
+155 0 -153 0 *
Ve
1e-07
9 1 7
0 0

0101101
*
Ed
 1e-07 1 1 0
1  36 0 6 7
2  71 9 0 6 7
2  72 11 0 6 7
0

0101000
+153 0 -151 0 *
Ed
 1e-07 1 1 0
1  37 0 0 9
2  73 9 5 0 9
2  74 10 5 0 9
0

0101000
+207 5 -151 5 *
Wi

0101100
-154 8 -152 0 -150 0 +149 4 +206 0 +158 0 *
Fa
0  1e-07 9 0

0111000
+148 0 *
Ed
 1e-07 1 1 0
1  38 0 7 10
2  75 10 0 7 10
2  76 11 0 7 10
0

0101000
+151 0 -198 0 *
Wi

0101100
-149 4 -146 0 +197 6 +204 0 *
Fa
0  1e-07 10 0

0111000
+145 0 *
Ve
1e-07
1 1 6
0 0

0101101
*
Ed
 1e-07 1 1 0
1  39 0 0 8
2  77 11 25 0 8
2  78 21 25 0 8
0

0101000
+153 25 -143 25 *
Ve
1e-07
1 1 7
0 0

0101101
*
Ed
 1e-07 1 1 0
1  40 0 6 7
2  79 11 0 6 7
2  80 22 0 6 7
0

0101000
+143 0 -141 0 *
Ed
 1e-07 1 1 0
1  41 0 7 10
2  81 11 0 7 10
2  82 12 0 7 10
0

0101000
+141 0 -196 0 *
Wi

0101100
-142 24 -140 0 -139 0 +195 6 +146 0 +150 0 *
Fa
0  1e-07 11 0

0111000
+138 0 *
Ve
1e-07
1 10 7
0 0

0101101
*
Ed
 1e-07 1 1 0
1  42 0 0 9
2  83 12 5 0 9
2  84 22 5 0 9
0

0101000
+141 5 -136 5 *
Ed
 1e-07 1 1 0
1  43 0 7 10
2  85 12 0 7 10
2  86 13 0 7 10
0

0101000
+136 0 -194 0 *
Wi

0101100
-135 4 -134 0 +193 6 +139 0 *
Fa
0  1e-07 12 0

0111000
+133 0 *
Ve
1e-07
1 10 6
0 0

0101101
*
Ve
1e-07
0 10 6
0 0

0101101
*
Ed
 1e-07 1 1 0
1  44 0 0 1
2  87 13 28 0 1
2  88 23 28 0 1
0

0101000
+131 28 -130 28 *
Ve
1e-07
0 10 7
0 0

0101101
*
Ed
 1e-07 1 1 0
1  45 0 6 7
2  89 13 0 6 7
2  90 15 0 6 7
0

0101000
+130 0 -128 0 *
Ed
 1e-07 1 1 0
1  46 0 7 10
2  91 13 0 7 10
2  92 14 0 7 10
0

0101000
+128 0 -192 0 *
Ed
 1e-07 1 1 0
1  47 0 6 7
2  93 13 0 6 7
2  94 22 0 6 7
0

0101000
+131 0 -136 0 *
Wi

0101100
-129 27 -127 0 -126 0 +191 6 +134 0 +125 0 *
Fa
0  1e-07 13 0

0111000
+124 0 *
Ed
 1e-07 1 1 0
1  48 0 0 10
2  95 14 5 0 10
2  96 15 5 0 10
0

0101000
+128 5 -187 5 *
Wi

0101100
-126 0 -190 6 +186 0 +122 4 *
Fa
0  1e-07 14 0

0111000
+121 0 *
Ve
1e-07
0 10 4
0 0

0101101
*
Ed
 1e-07 1 1 0
1  49 0 4 6
2  97 15 0 4 6
2  98 23 0 4 6
0

0101000
+119 0 -130 0 *
Ed
 1e-07 1 1 0
1  50 0 0 10
2  99 15 9 0 10
2  100 16 9 0 10
0

0101000
+119 9 -180 9 *
Wi

0101100
-118 0 -127 0 -122 4 +184 0 +179 0 +117 8 *
Fa
0  1e-07 15 0

0111000
+116 0 *
Ve
1e-07
0 10 2
0 0

0101101
*
Ve
1e-07
0 10 3
0 0

0101101
*
Ed
 1e-07 1 1 0
1  51 0 2 3
2  101 16 0 2 3
2  102 24 0 2 3
0

0101000
+114 0 -113 0 *
Ed
 1e-07 1 1 0
1  52 0 3 4
2  103 16 0 3 4
2  104 23 0 3 4
0

0101000
+113 0 -119 0 *
Ve
1e-07
0 0 2
0 0

0101101
*
Ed
 1e-07 1 1 0
1  53 0 2 3
2  105 16 0 2 3
2  106 17 0 2 3
0

0101000
+110 0 -178 0 *
Ed
 1e-07 1 1 0
1  54 0 0 10
2  107 16 19 0 10
2  108 25 19 0 10
0

0101000
+114 19 -110 19 *
Wi

0101100
-112 0 -111 0 -117 8 +177 0 +109 0 +108 1 *
Fa
0  1e-07 16 0

0111000
+107 0 *
Ve
1e-07
0 0 1
0 0

0101101
*
Ed
 1e-07 1 1 0
1  55 0 1 2
2  109 17 0 1 2
2  110 25 0 1 2
0

0101000
+105 0 -110 0 *
Ve
1e-07
10 0 1
0 0

0101101
*
Ed
 1e-07 1 1 0
1  56 0 0 10
2  111 17 31 0 10
2  112 26 31 0 10
0

0101000
+105 31 -103 31 *
Ed
 1e-07 1 1 0
1  57 0 1 2
2  113 17 0 1 2
2  114 18 0 1 2
0

0101000
+103 0 -171 0 *
Wi

0101100
+175 17 +109 0 +104 0 -102 30 -101 0 -170 0 *
Fa
0  1e-07 17 0

0111000
+100 0 *
Ve
1e-07
10 0 0
0 0

0101101
*
Ed
 1e-07 1 1 0
1  58 0 0 1
2  115 18 0 0 1
2  116 26 0 0 1
0

0101000
+98 0 -103 0 *
Ve
1e-07
10 10 0
0 0

0101101
*
Ed
 1e-07 1 1 0
1  59 0 0 10
2  117 18 0 0 10
2  118 27 0 0 10
0

0101000
+98 0 -96 0 *
Ve
1e-07
10 10 1
0 0

0101101
*
Ed
 1e-07 1 1 0
1  60 0 0 1
2  119 18 0 0 1
2  120 28 0 0 1
0

0101000
+96 0 -94 0 *
Ed
 1e-07 1 1 0
1  61 0 1 2
2  121 18 0 1 2
2  122 19 0 1 2
0

0101000
+94 0 -169 0 *
Wi

0101100
+101 0 +97 0 -95 0 -93 0 -92 0 +168 1 *
Fa
0  1e-07 18 0

0111000
+91 0 *
Ve
1e-07
9 10 1
0 0

0101101
*
Ed
 1e-07 1 1 0
1  62 0 0 1
2  123 19 34 0 1
2  124 28 34 0 1
0

0101000
+94 34 -89 34 *
Ve
1e-07
9 10 2
0 0

0101101
*
Ed
 1e-07 1 1 0
1  63 0 1 2
2  125 19 0 1 2
2  126 29 0 1 2
0

0101000
+89 0 -87 0 *
Ed
 1e-07 1 1 0
1  64 0 2 3
2  127 19 0 2 3
2  128 20 0 2 3
0

0101000
+87 0 -162 0 *
Wi

0101100
-88 33 -86 0 -85 0 +161 21 +166 0 +92 0 *
Fa
0  1e-07 19 0

0111000
+84 0 *
Ve
1e-07
9 1 2
0 0

0101101
*
Ed
 1e-07 1 1 0
1  65 0 0 9
2  129 20 19 0 9
2  130 29 19 0 9
0

0101000
+87 19 -82 19 *
Ve
1e-07
9 1 3
0 0

0101101
*
Ed
 1e-07 1 1 0
1  66 0 2 3
2  131 20 0 2 3
2  132 30 0 2 3
0

0101000
+82 0 -80 0 *
Ed
 1e-07 1 1 0
1  67 0 3 4
2  133 20 0 3 4
2  134 21 0 3 4
0

0101000
+80 0 -155 0 *
Wi

0101100
-81 1 -79 0 -78 0 +154 8 +159 0 +85 0 *
Fa
0  1e-07 20 0

0111000
+77 0 *
Ve
1e-07
1 1 3
0 0

0101101
*
Ed
 1e-07 1 1 0
1  68 0 0 8
2  135 21 37 0 8
2  136 30 37 0 8
0

0101000
+80 37 -75 37 *
Ve
1e-07
1 1 4
0 0

0101101
*
Ed
 1e-07 1 1 0
1  69 0 3 4
2  137 21 0 3 4
2  138 31 0 3 4
0

0101000
+75 0 -73 0 *
Ed
 1e-07 1 1 0
1  70 0 4 6
2  139 21 0 4 6
2  140 22 0 4 6
0

0101000
+73 0 -143 0 *
Wi

0101100
-74 36 -72 0 -71 0 +142 24 +152 0 +78 0 *
Fa
0  1e-07 21 0

0111000
+70 0 *
Ve
1e-07
1 10 4
0 0

0101101
*
Ed
 1e-07 1 1 0
1  71 0 0 9
2  141 22 9 0 9
2  142 31 9 0 9
0

0101000
+73 9 -68 9 *
Ed
 1e-07 1 1 0
1  72 0 4 6
2  143 22 0 4 6
2  144 23 0 4 6
0

0101000
+68 0 -131 0 *
Wi

0101100
-67 8 -66 0 -125 0 +135 4 +140 0 +71 0 *
Fa
0  1e-07 22 0

0111000
+65 0 *
Ve
1e-07
1 10 3
0 0

0101101
*
Ed
 1e-07 1 1 0
1  73 0 0 1
2  145 23 40 0 1
2  146 24 40 0 1
0

0101000
+63 40 -113 40 *
Ed
 1e-07 1 1 0
1  74 0 3 4
2  147 23 0 3 4
2  148 31 0 3 4
0

0101000
+63 0 -68 0 *
Wi

0101100
-62 39 -111 0 -118 0 +129 27 +66 0 +61 0 *
Fa
0  1e-07 23 0

0111000
+60 0 *
Ve
1e-07
1 10 1
0 0

0101101
*
Ve
1e-07
0 10 1
0 0

0101101
*
Ed
 1e-07 1 1 0
1  75 0 0 1
2  149 24 43 0 1
2  150 32 43 0 1
0

0101000
+58 43 -57 43 *
Ed
 1e-07 1 1 0
1  76 0 1 2
2  151 24 0 1 2
2  152 25 0 1 2
0

0101000
+57 0 -114 0 *
Ve
1e-07
1 10 2
0 0

0101101
*
Ed
 1e-07 1 1 0
1  77 0 2 3
2  153 24 0 2 3
2  154 31 0 2 3
0

0101000
+54 0 -63 0 *
Ed
 1e-07 1 1 0
1  78 0 1 2
2  155 24 0 1 2
2  156 33 0 1 2
0

0101000
+58 0 -54 0 *
Wi

0101100
-56 42 -55 0 -112 0 +62 39 +53 0 +52 0 *
Fa
0  1e-07 24 0

0111000
+51 0 *
Ve
1e-07
0 10 0
0 0

0101101
*
Ed
 1e-07 1 1 0
1  79 0 0 1
2  157 25 0 0 1
2  158 32 0 0 1
0

0101000
+49 0 -57 0 *
Ve
1e-07
0 0 0
0 0

0101101
*
Ed
 1e-07 1 1 0
1  80 0 0 1
2  159 25 0 0 1
2  160 26 0 0 1
0

0101000
+47 0 -105 0 *
Ed
 1e-07 1 1 0
1  81 0 0 10
2  161 25 0 0 10
2  162 27 0 0 10
0

0101000
+49 0 -47 0 *
Wi

0101100
-48 0 -55 0 -108 1 +104 0 +46 0 +45 0 *
Fa
0  1e-07 25 0

0111000
+44 0 *
Ed
 1e-07 1 1 0
1  82 0 0 10
2  163 26 0 0 10
2  164 27 0 0 10
0

0101000
+47 0 -98 0 *
Wi

0101100
+102 30 +46 0 -42 0 -97 0 *
Fa
0  1e-07 26 0

0111000
+41 0 *
Ve
1e-07
9 10 0
0 0

0101101
*
Ed
 1e-07 1 1 0
1  83 0 0 1
2  165 27 0 0 1
2  166 28 0 0 1
0

0101000
+96 0 -39 0 *
Ve
1e-07
9 1 0
0 0

0101101
*
Ed
 1e-07 1 1 0
1  84 0 0 9
2  167 27 0 0 9
2  168 29 0 0 9
0

0101000
+39 0 -37 0 *
Ve
1e-07
1 1 0
0 0

0101101
*
Ed
 1e-07 1 1 0
1  85 0 0 8
2  169 27 0 0 8
2  170 34 0 0 8
0

0101000
+37 0 -35 0 *
Ve
1e-07
1 10 0
0 0

0101101
*
Ed
 1e-07 1 1 0
1  86 0 0 9
2  171 27 0 0 9
2  172 33 0 0 9
0

0101000
+35 0 -33 0 *
Ed
 1e-07 1 1 0
1  87 0 0 1
2  173 27 0 0 1
2  174 32 0 0 1
0

0101000
+33 0 -49 0 *
Wi

0101100
-95 0 -38 0 -36 0 -34 0 -32 0 -31 0 -45 0 -42 0 *
Fa
0  1e-07 27 0

0111000
+30 0 *
Ed
 1e-07 1 1 0
1  88 0 0 1
2  175 28 0 0 1
2  176 29 0 0 1
0

0101000
+39 0 -89 0 *
Wi

0101100
-38 0 -28 0 +88 33 +93 0 *
Fa
0  1e-07 28 0

0111000
+27 0 *
Ve
1e-07
9 1 1
0 0

0101101
*
Ed
 1e-07 1 1 0
1  89 0 0 1
2  177 29 0 0 1
2  178 34 0 0 1
0

0101000
+37 0 -25 0 *
Ed
 1e-07 1 1 0
1  90 0 1 2
2  179 29 0 1 2
2  180 30 0 1 2
0

0101000
+25 0 -82 0 *
Wi

0101100
-36 0 -24 0 -23 0 +81 1 +86 0 +28 0 *
Fa
0  1e-07 29 0

0111000
+22 0 *
Ve
1e-07
1 1 1
0 0

0101101
*
Ed
 1e-07 1 1 0
1  91 0 0 8
2  181 30 46 0 8
2  182 34 46 0 8
0

0101000
+25 46 -20 46 *
Ve
1e-07
1 1 2
0 0

0101101
*
Ed
 1e-07 1 1 0
1  92 0 1 2
2  183 30 0 1 2
2  184 33 0 1 2
0

0101000
+20 0 -18 0 *
Ed
 1e-07 1 1 0
1  93 0 2 3
2  185 30 0 2 3
2  186 31 0 2 3
0

0101000
+18 0 -75 0 *
Wi

0101100
-19 45 -17 0 -16 0 +74 36 +79 0 +23 0 *
Fa
0  1e-07 30 0

0111000
+15 0 *
Ed
 1e-07 1 1 0
1  94 0 0 9
2  187 31 19 0 9
2  188 33 19 0 9
0

0101000
+18 19 -54 19 *
Wi

0101100
-13 1 -53 0 -61 0 +67 8 +72 0 +16 0 *
Fa
0  1e-07 31 0

0111000
+12 0 *
Ed
 1e-07 1 1 0
1  95 0 0 1
2  189 32 0 0 1
2  190 33 0 0 1
0

0101000
+33 0 -58 0 *
Wi

0101100
-31 0 -48 0 +56 42 +10 0 *
Fa
0  1e-07 32 0

0111000
+9 0 *
Ed
 1e-07 1 1 0
1  96 0 0 1
2  191 33 0 0 1
2  192 34 0 0 1
0

0101000
+35 0 -20 0 *
Wi

0101100
-32 0 -10 0 -52 0 +13 1 +17 0 +7 0 *
Fa
0  1e-07 33 0

0111000
+6 0 *
Wi

0101100
-34 0 -7 0 +19 45 +24 0 *
Fa
0  1e-07 34 0

0111000
+4 0 *
Sh

0101100
-221 0 -210 0 -201 0 -188 0 -181 0 -172 0 -163 0 -156 0 -147 0 -144 0 
-137 0 -132 0 -123 0 +120 0 +115 0 +106 0 -99 0 -90 0 -83 0 -76 0 
-69 0 -64 0 -59 0 -50 0 +43 0 -40 0 +29 0 -26 0 -21 0 -14 0 
-11 0 -8 0 -5 0 -3 0 *
So

1100000
+2 0 *

+1 0 
0

