
CASCADE Topology V1, (c) Matra-Datavision
Locations 2
1
              1               0               0               0 
              0               1               0               0 
              0               0               1               0 
1
0.586824088833465 -0.642787609686539 0.492403876506104               0 
0.492403876506104 0.766044443118978 0.413175911166535               5 
-0.642787609686539 1.38777878078145e-16 0.766044443118978              20 
Curve2ds 12
1 0 0 1 0 
1 1 0 0 1 
1 1 0 0 1 
1 0 1 1 0 
1 0 0 0 1 
1 0 0 1 0 
1 2 0 0 1 
1 2 0 0 1 
1 0 1 1 0 
1 0 0 1 0 
1 3 0 0 1 
1 0 1 1 0 
Curves 10
7 0 0  8 9 2  -5 5 0  -5 3.7500000000000004 0  -5 2.5 0  -5 1.2499999999999998 0  -5 -2.7755575615628914e-17 0  -5 -1.2500000000000002 0  -5 -2.5000000000000004 0  -5 -3.7500000000000004 0  -5 -5 0 
 0 9 1 9
7 0 0  2 3 2  -5 -5 0  -2.6441704617714841 1.4390419016205835 11.741538723805098  0.27981760426537194 -1.2922415981254112 23.213938048432702 
 0 3 1 3
7 0 0  8 9 2  -6.1480584926000228 6.3682028330643679 23.213938048432706  -5.3445739804918508 5.4106472791656453 23.213938048432702  -4.5410894683836744 4.4530917252669235 23.213938048432702  -3.737604956275502 3.4955361713682014 23.213938048432702  -2.9341204441673265 2.5379806174694792 23.213938048432702  -2.1306359320591515 1.5804250635707562 23.213938048432702  -1.3271514199509771 0.62286950967203381 23.213938048432702  -0.52366690784280268 -0.33468604422668857 23.213938048432702  0.27981760426537194 -1.2922415981254112 23.213938048432702 
 0 9 1 9
7 0 0  2 3 2  -5 5 0  3.4860528479380601 0.012761457480367588 9.6830020882551402  -6.1480584926000228 6.3682028330643679 23.213938048432706 
 0 3 1 3
7 0 0  8 9 2  -5 -5 0  -3.7500000000000004 -5 0  -2.5 -5 0  -1.25 -5 0  2.7755575615628914e-17 -5 0  1.2499999999999998 -5 0  2.5 -5 0  3.7500000000000004 -5 0  5 -5 0 
 1 9 2 9
7 0 0  2 3 2  5 -5 0  -3.4860528479380402 -4.4840089180142257 12.557064555728697  6.1480584926000228 3.6317971669356304 16.786061951567302 
 0 3 1 3
7 0 0  8 9 2  0.27981760426537194 -1.2922415981254112 23.213938048432702  1.013347715307203 -0.67673675249278098 22.410453536324525  1.7468778263490345 -0.061231906860150787 21.606969024216351  2.4804079373908658 0.55427293877247941 20.803484512108174  3.2139380484326976 1.1697777844051096 20  3.9474681594745289 1.7852826300377398 19.196515487891826  4.6809982705163611 2.40078747567037 18.393030975783649  5.4145283815581937 3.0162923213030002 17.589546463675475  6.1480584926000228 3.6317971669356304 16.786061951567302 
 1 9 2 9
7 0 0  8 9 2  5 -5 0  5 -3.7500000000000004 0  5 -2.5000000000000004 0  5 -1.2500000000000002 0  5 0 0  5 1.2499999999999998 0  5 2.5 0  5 3.7500000000000004 0  5 5 0 
 2 9 3 9
7 0 0  2 3 2  5 5 0  2.644170461771485 -5.910289362154427 10.498527920178745  -0.27981760426537194 11.292241598125413 16.786061951567305 
 0 3 1 3
7 0 0  8 9 2  6.1480584926000228 3.6317971669356304 16.786061951567302  5.3445739804918508 4.589352720834353 16.786061951567305  4.5410894683836744 5.5469082747330765 16.786061951567305  3.7376049562754998 6.5044638286317991 16.786061951567305  2.9341204441673256 7.4620193825305208 16.786061951567305  2.1306359320591515 8.4195749364292425 16.786061951567305  1.3271514199509771 9.377130490327966 16.786061951567305  0.52366690784280268 10.334686044226689 16.786061951567305  -0.27981760426537194 11.292241598125413 16.786061951567305 
 2 9 3 9
Polygon3D 0
PolygonOnTriangulations 0
Surfaces 3
9 0 0 0 0 8 2 9 3 2 2 -5 5 0  3.4860528479380601 0.012761457480367588 9.6830020882551402  -6.1480584926000228 6.3682028330643679 23.213938048432706  
-5 3.7500000000000004 0  2.083256629987337 0.76000141978754643 10.087194811466969  -5.3445739804918508 5.4106472791656453 23.213938048432702  
-5 2.5 0  0.77116083182700912 1.2580430047450826 10.491387661907652  -4.5410894683836744 4.4530917252669235 23.213938048432702  
-5 1.2499999999999998 0  -0.38892735331161937 1.5292029776442193 10.87183423864883  -3.737604956275502 3.4955361713682014 23.213938048432702  
-5 -2.7755575615628914e-17 0  -1.3431696269472542 1.6162771167450019 11.204793320179116  -2.9341204441673265 2.5379806174694792 23.213938048432702  
-5 -1.2500000000000002 0  -2.0527221949406398 1.5798523797183572 11.469437369843595  -2.1306359320591515 1.5804250635707562 23.213938048432702  
-5 -2.5000000000000004 0  -2.4998706545942349 1.4911800719213848 11.650837975537231  -1.3271514199509771 0.62286950967203381 23.213938048432702  
-5 -3.7500000000000004 0  -2.6891053765491146 1.4224954000682573 11.741538723805098  -0.52366690784280268 -0.33468604422668857 23.213938048432702  
-5 -5 0  -2.6441704617714841 1.4390419016205835 11.741538723805098  0.27981760426537194 -1.2922415981254112 23.213938048432702  

0 9
1 9

0 3
1 3

9 0 0 0 0 8 2 9 3 2 2 -5 -5 0  -2.6441704617714841 1.4390419016205835 11.741538723805098  0.27981760426537194 -1.2922415981254112 23.213938048432702  
-3.7500000000000004 -5 0  -3.2668673009974682 0.053324073690097423 12.100796532239295  1.013347715307203 -0.67673675249278098 22.410453536324525  
-2.5 -5 0  -3.6553942490332383 -1.2471632799517034 12.369353592405616  1.7468778263490345 -0.061231906860150787 21.606969024216351  
-1.25 -5 0  -3.8335000067692291 -2.3971782960786419 12.547210795146171  2.4804079373908658 0.55427293877247941 20.803484512108174  
2.7755575615628914e-17 -5 0  -3.844176646587413 -3.3384992413789356 12.641824553915919  3.2139380484326976 1.1697777844051096 20  
1.2499999999999998 -5 0  -3.7467936444946668 -4.0279310478855903 12.668123280819785  3.9474681594745289 1.7852826300377398 19.196515487891826  
2.5 -5 0  -3.6100516188408784 -4.4440297229354 12.64693451251283  4.6809982705163611 2.40078747567037 18.393030975783649  
3.7500000000000004 -5 0  -3.5027016950167833 -4.5886183895936066 12.60199947050633  5.4145283815581937 3.0162923213030002 17.589546463675475  
5 -5 0  -3.4860528479380402 -4.4840089180142257 12.557064555728697  6.1480584926000228 3.6317971669356304 16.786061951567302  

1 9
2 9

0 3
1 3

9 0 0 0 0 8 2 9 3 2 2 5 -5 0  -3.4860528479380402 -4.4840089180142257 12.557064555728697  6.1480584926000228 3.6317971669356304 16.786061951567302  
5 -3.7500000000000004 0  -2.0832566299872939 -5.2312488803214201 12.152871832516865  5.3445739804918508 4.589352720834353 16.786061951567305  
5 -2.5000000000000004 0  -0.7711608318271499 -5.7292904652788179 11.748678982076225  4.5410894683836744 5.5469082747330765 16.786061951567305  
5 -1.2500000000000002 0  0.38892735331184058 -6.0004504381782562 11.368232405334963  3.7376049562754998 6.5044638286317991 16.786061951567305  
5 0 0  1.3431696269470284 -6.0875245772786535 11.03527332380478  2.9341204441673256 7.4620193825305208 16.786061951567305  
5 1.2499999999999998 0  2.0527221949408037 -6.0510998402523217 10.770629274140211  2.1306359320591515 8.4195749364292425 16.786061951567305  
5 2.5 0  2.4998706545941469 -5.9624275324551812 10.589228668446639  1.3271514199509771 9.377130490327966 16.786061951567305  
5 3.7500000000000004 0  2.6891053765491408 -5.8937428606021127 10.498527920178738  0.52366690784280268 10.334686044226689 16.786061951567305  
5 5 0  2.644170461771485 -5.910289362154427 10.498527920178745  -0.27981760426537194 11.292241598125413 16.786061951567305  

2 9
3 9

0 3
1 3

Triangulations 0

TShapes 25
Ve
1e-07
-5 5 0
0 0

0101101
*
Ve
1e-07
-5 -5 0
0 0

0101101
*
Ed
 1e-07 1 1 0
1  1 0 0 1
2  1 1 0 0 1
0

0101000
+25 0 -24 0 *
Ve
1e-07
-5 -5 0
0 0

0101101
*
Ed
 1e-07 1 1 0
1  2 0 0 1
2  2 1 0 0 1
2  3 2 0 0 1
4 C0 1 0 2 0
0

0101000
+24 0 -22 2 *
Ve
1e-07
-5 5 0
0 0

0101101
*
Ed
 1e-07 1 1 0
1  3 0 0 1
2  4 1 0 0 1
0

0101000
+20 2 -22 2 *
Ed
 1e-07 1 1 0
1  4 0 0 1
2  5 1 0 0 1
0

0101000
+25 0 -20 2 *
Wi

0101000
+23 0 +21 0 -19 0 -18 0 *
Fa
0  1e-07 1 0

0101000
+17 0 *
Ve
1e-07
5 -5 0
0 0

0101101
*
Ed
 1e-07 1 1 0
1  5 0 1 2
2  6 2 0 1 2
0

0101000
+24 0 -15 0 *
Ve
1e-07
5 -5 0
0 0

0101101
*
Ed
 1e-07 1 1 0
1  6 0 0 1
2  7 2 0 0 1
2  8 3 0 0 1
4 C0 2 0 3 0
0

0101000
+15 0 -13 2 *
Ed
 1e-07 1 1 0
1  7 0 1 2
2  9 2 0 1 2
0

0101000
+22 2 -13 2 *
Wi

0101000
+14 0 +12 0 -11 0 -21 0 *
Fa
0  1e-07 2 0

0101000
+10 0 *
Ve
1e-07
5 5 0
0 0

0101101
*
Ed
 1e-07 1 1 0
1  8 0 2 3
2  10 3 0 2 3
0

0101000
+15 0 -8 0 *
Ve
1e-07
5 5 0
0 0

0101101
*
Ed
 1e-07 1 1 0
1  9 0 0 1
2  11 3 0 0 1
0

0101000
+8 0 -6 2 *
Ed
 1e-07 1 1 0
1  10 0 2 3
2  12 3 0 2 3
0

0101000
+13 2 -6 2 *
Wi

0101000
+7 0 +5 0 -4 0 -12 0 *
Fa
0  1e-07 3 0

0101000
+3 0 *
Sh

1101000
+16 0 +9 0 +2 0 *

+1 1  