DBRep_DrawableShape

CASCADE Topology V1, (c) Matra-Datavision
Locations 0
Curve2ds 10
1 0 0.49981882168895997 1 0 
7 0 0  3 25 23  4.2437356438478222 -1.0104495540319134  4.2361153023424301 -1.0167460548212774  4.2204361689427934 -1.0292672087796995  4.1954607083158209 -1.0478058273349717  4.1688924475012428 -1.066075148597903  4.1405765528857827 -1.0840441415183888  4.1103449229479949 -1.1016779556228069  4.078014170538907 -1.11893692771955  4.0433862997820107 -1.135776058524359  4.0062496961900287 -1.1521443048870548  3.9663815533170137 -1.1679838893815262  3.9235520611951102 -1.1832296195915171  3.8775310380903711 -1.1978082934640835  3.8280977008142969 -1.2116382816170086  3.7750542775215106 -1.2246294189215869  3.7182439849285007 -1.2366833774321921  3.6575734268054259 -1.2476947249526118  3.5930386488341153 -1.2575528972627863  3.5247526974462513 -1.2661452452275685  3.4529712939605517 -1.2733613601736613  3.3781102816155553 -1.2790981741231189  3.3007529530050768 -1.2832670176945202  3.2216266309219286 -1.2857962485322119  3.168278066050803 -1.2863654138840277  3.1415928624311089 -1.2863630676370219 
 5.7881612936848699 4 5.8106623852073573 1 5.8331634767298448 1 5.8556645682523314 1 5.8781656597748189 1 5.9006667512973063 1 5.9231678428197938 1 5.9456689343422804 1 5.9681700258647679 1 5.9906711173872553 1 6.0131722089097428 1 6.0356733004322294 1 6.0581743919547169 1 6.0806754834772043 1 6.1031765749996918 1 6.1256776665221793 1 6.1481787580446658 1 6.1706798495671533 1 6.1931809410896408 1 6.2156820326121283 1 6.2381831241346148 1 6.2606842156571023 1 6.2831853071795898 4
7 0 0  3 25 23  3.1415928624311213 -1.2863630676370219  3.0012269509641261 -1.2866069996453351  2.7448127582649384 -1.2714955705981674  2.437389689817433 -1.2144434390209353  2.2280430841885703 -1.1366456874813318  2.0794359904739927 -1.0474490150162512  1.9703739519646248 -0.95168670287298329  1.8860785437491963 -0.85198365888908079  1.8180483067662241 -0.74979777017186022  1.7608899716271722 -0.64599854740737184  1.7111502271580914 -0.54113391076519068  1.6664800708439351 -0.43557190361943332  1.6252055968824903 -0.32957603773164296  1.5860597717414953 -0.2233490576905903  1.5480180303059266 -0.1170599769020441  1.5101861670463705 -0.010862632880949616  1.4717165410245272 0.095089779163323215  1.4317351889662788 0.20063108199515967  1.3892689230343178 0.30556737267257805  1.3431547764206355 0.40965677618595614  1.2919382583557262 0.51258611116065944  1.2336631956506476 0.61391548211517932  1.165815458295242 0.71306692084556433  1.1114743819081969 0.77703488217079553  1.0814197624415636 0.80833647625727556 
 0 4 0.11293504727879454 1 0.22587009455758908 1 0.33880514183638361 1 0.45174018911517816 1 0.56467523639397266 1 0.67761028367276721 1 0.79054533095156176 1 0.90348037823035632 1 1.0164154255091509 1 1.1293504727879453 1 1.24228552006674 1 1.3552205673455344 1 1.4681556146243291 1 1.5810906619031235 1 1.6940257091819182 1 1.8069607564607126 1 1.9198958037395071 1 2.0328308510183017 1 2.1457658982970962 1 2.2587009455758906 1 2.3716359928546855 1 2.48457104013348 4
7 0 0  3 25 23  5.2017657716130241 0.80833653376936399  5.1863308928395107 0.7923297647737142  5.1570567434803998 0.75993374875988984  5.1173019138052638 0.71035413387741331  5.0810305695128619 0.6599637841916538  5.0477184773544419 0.60889201077689359  5.0169155094627165 0.55724746891593013  4.9882452375532083 0.50511858824691758  4.9613878340190247 0.45257893620888068  4.9360703861772439 0.3996900223123715  4.9120577601751698 0.34650384803060813  4.8891454218384993 0.29306481163926296  4.8671534373985672 0.23941124474770298  4.8459215144947336 0.18557663676194674  4.8253048273713564 0.1315906314085295  4.8051704494671377 0.077479848933417431  4.7853942362498927 0.023268578688628919  4.7658580218098621 -0.031020622414138325  4.7464470254118645 -0.085366398462497703  4.727047305690478 -0.13974809810626737  4.7075433541015421 -0.19414531693322315  4.6878149746218689 -0.24853735756490594  4.6677360918032225 -0.30290295343154999  4.654022041676388 -0.33911355234129265  4.6470601132162805 -0.35720678800238542 
 3.7986142670461098 4 3.8564207785286264 1 3.9142272900111434 1 3.9720338014936605 1 4.0298403129761766 1 4.0876468244586937 1 4.1454533359412107 1 4.2032598474237277 1 4.2610663589062447 1 4.3188728703887609 1 4.3766793818712779 1 4.4344858933537949 1 4.4922924048363111 1 4.5500989163188281 1 4.6079054278013452 1 4.6657119392838622 1 4.7235184507663792 1 4.7813249622488954 1 4.8391314737314124 1 4.8969379852139294 1 4.9547444966964456 1 5.0125510081789626 1 5.0703575196614796 4
1 6.2831853071795862 -6.2831853071795862 0 1 
1 0 -6.2831853071795862 0 1 
1 0 -1.5707963267948966 1 0 
7 0 0  8 37 6  4.2693945161582398 0.4998188216889502  4.3047939038981635 0.44542777745874829  4.3289187953951114 0.38598664791180681  4.3422054470538569 0.32347682324939342  4.3456635426591674 0.25966129031439777  4.3400162569232634 0.19600866828920971  4.325758948461953 0.13391478085691233  4.3032553117724213 0.074764132812543946  4.2502659887702468 -0.021201868308967926  4.2231822801439698 -0.059904301499304036  4.1919227512631068 -0.09560267457714211  4.1567191448989433 -0.12772787051115841  4.1178866518355051 -0.15571668245894532  4.0758985428634418 -0.1790499967077972  4.0314195974310607 -0.19730814108863337  3.9505919623256798 -0.21990249682208507  3.9149906813043391 -0.22657796976278072  3.8787588963639053 -0.23013073073714896  3.8422650049412823 -0.23049108668935503  3.8059008309872979 -0.22764571871089601  3.7700517547573043 -0.22163994210744548  3.7350687393792117 -0.21257213372865308  3.6505454217309392 -0.18259532782574303  3.6024722643855966 -0.15803275328938327  3.5580771982840815 -0.12736356404366234  3.5181792122202751 -0.091267383143417646  3.4832825415214757 -0.050550065384214804  3.453701609563268 -0.0060297869658967329  3.4296906979021742 0.041473337409866091  3.3933368358765499 0.14078392795229167  3.380993950032007 0.19259139973976858  3.3747492326638167 0.24571993199390363  3.3748788121720281 0.2993280501937079  3.3817442637555359 0.35254575896465212  3.3958216589526273 0.40443876419652725  3.4176634101927341 0.45392637811971748  3.4475316435982948 0.49981882168895031 
 2.4716429896931471 9 3.5920159850389179 7 4.4322957315482538 7 5.0625055414302524 7 6.0078202562532432 7 6.9531349710762322 9
7 0 0  3 25 23  4.6470601132162734 -0.35720678800237088  4.6308797531317509 -0.33087820195810458  4.5943523369890666 -0.28077500604918021  4.5286761657959573 -0.21516359869219684  4.4536707909920512 -0.16105328644625225  4.3710992474530226 -0.12013490068628317  4.2830340332740136 -0.093798518493233368  4.1918724026256342 -0.082989460669002632  4.1002321696361328 -0.088109823073769758  4.0107679046775289 -0.1089681547087781  3.9259729094212847 -0.14480348646922425  3.8480412909138195 -0.19437278767057231  3.7788368630298255 -0.25607220713101281  3.7199758604868922 -0.32805466071910594  3.6730031082210743 -0.40831303593540996  3.6396359333524622 -0.49470970943531639  3.6220598629869674 -0.58494055175452531  3.6232599084880377 -0.67642391328198959  3.6473510948435894 -0.7660960016419609  3.6996816160448507 -0.85011852456400139  3.7862987637242327 -0.92347929204547852  3.9109704152243729 -0.97994146738886001  4.0705821138627591 -1.0121725202755112  4.1862452964811432 -1.0147394030009655  4.2437356438478151 -1.0104495540319012 
 2.4716429896931502 4 2.6753471706651082 1 2.8790513516370666 1 3.0827555326090246 1 3.286459713580983 1 3.490163894552941 1 3.6938680755248994 1 3.8975722564968573 1 4.1012764374688153 1 4.3049806184407737 1 4.5086847994127321 1 4.7123889803846897 1 4.9160931613566481 1 5.1197973423286065 1 5.323501523300564 1 5.5272057042725233 1 5.7309098852444809 1 5.9346140662164384 1 6.1383182471883977 1 6.3420224281603552 1 6.5457266091323127 1 6.749430790104272 1 6.9531349710762296 4
7 0 0  3 25 23  5.2017657716130081 0.80833653376934156  5.1625316229424563 0.82344708552219814  5.0831137301579883 0.85464372931641241  4.9592863342958076 0.90368163471495966  4.8291262049159744 0.95432353146977855  4.6902325878549753 1.0057739064042868  4.5394668060978205 1.0570672887965542  4.3726843475206145 1.1069680676434155  4.1846530130007871 1.1538468676282256  3.9694270260868816 1.1955238118143783  3.7220289500193129 1.2291577852634066  3.4425253709173358 1.2514083952490127  3.1415926482028702 1.259251394278974  2.8406599406014532 1.2514083756505805  2.5611563981504002 1.2291577491061914  2.3137583645073985 1.195523763395365  2.0985324157489309 1.1538468109532973  1.9105011118911435 1.1069680058872677  1.743718676717787 1.0570672243407542  1.59295291241411 1.0057738410341064  1.4540593082258608 0.95432346655895839  1.3238991882658659 0.90368157136224525  1.2000717992493852 0.85464366843199102  1.1206539097081709 0.8234470268129066  1.081419762441584 0.80833647625725191 
 1.4714168111294701 4 1.6232509786258629 1 1.7750851461222557 1 1.9269193136186482 1 2.078753481115041 1 2.2305876486114338 1 2.3824218161078266 1 2.5342559836042193 1 2.6860901511006121 1 2.8379243185970049 1 2.9897584860933977 1 3.1415926535897905 1 3.2934268210861832 1 3.445260988582576 1 3.5970951560789688 1 3.7489293235753616 1 3.9007634910717544 1 4.0525976585681471 1 4.2044318260645399 1 4.3562659935609327 1 4.5081001610573255 1 4.6599343285537183 1 4.8117684960501101 4
Curves 7
2 32.491024057700002 19.330249107 100 0 0 1 1 0 -0 -0 1 0 8.7766940899567292
2 19.380136130499999 7.9035065724800013 100 0 0 1 1.1102230246251565e-16 1 -0 -1 1.1102230246251565e-16 0 9.9815087244712082
2 19.380136130499999 7.9035065724800013 100 0 0 1 1.1102230246251565e-16 1 -0 -1 1.1102230246251565e-16 0 9.9815087244712082
1 0 0 100 1 0 -0 
2 32.491024057700002 19.330249107 95.207334681899994 -2.4492935982947064e-16 -1 0 1 -2.4492935982947064e-16 0 0 0 1 10
2 25.935580094100001 13.616877839740001 97.299741534499987 0.73294554715705151 0.63879579367094319 -0.23394605978934563 -0.65702861528560863 0.75386563703081455 0 0.17636389539394406 0.15370925571491798 0.97224957758234076 4.4727370552873715
2 19.380136130499999 0 99.392148387099994 -0 1 0 0 0 1 1 0 -0 6.1265474664582031
Polygon3D 0
PolygonOnTriangulations 0
Surfaces 4
1 0 0 100 0 0 1 1 0 -0 -0 1 0 
4 32.491024057700002 19.330249107 95.207334681899994 0 0 1 1 0 -0 -0 1 0 10
4 19.380136130500002 7.9035065724799978 99.392148387099994 3.258010073492591e-08 -0.94098887229387229 -0.33843750120089455 9.7403152534812471e-08 -0.33843750120089017 0.94098887229386941 -0.99999999999999478 -6.3622391802750119e-08 8.0628954779999612e-08 10
1 0 0 0 -0 1 0 0 0 1 1 0 -0 
Triangulations 0

TShapes 27
Ve
1.1435621737366e-07
28.7289222403532 11.4007504428601 100
0 0

0101101
*
Ve
1.00000016280579e-07
41.2677181476567 19.330249107 100
0 0

0101101
*
Ed
 1e-07 1 1 0
1  1 0 4.26939451615823 6.28318530717959
2  1 2 0 4.26939451615823 6.28318530717959
0

0101000
+27 0 -26 0 *
Ve
1.14356219720992e-07
24.1218796211921 16.686808063672 100
0 0

0101101
*
Ed
 1e-07 1 1 0
1  1 0 0 3.44753164359828
2  1 2 0 0 3.44753164359828
0

0101000
+26 0 -24 0 *
Ve
1.00000003552714e-07
19.3801361305 17.8850152969512 100
0 0

0101101
*
Ed
 1e-07 1 1 0
1  2 0 5.78816129368487 6.28318530717959
2  2 3 0 5.78816129368487 6.28318530717959
0

0101000
+24 0 -22 0 *
Ve
1.01233987898547e-07
13.2838175466777 0 100
0 0

0101101
*
Ed
 1e-07 1 1 0
1  3 0 0 2.48457104013348
2  3 3 0 0 2.48457104013348
0

0101000
+22 0 -20 0 *
Ve
1.01233986130952e-07
25.4764547143223 0 100
0 0

0101101
*
Ed
 1e-07 1 1 0
1  4 0 13.2838175466777 25.4764547143223
0

0101000
+20 0 -18 0 *
Ed
 1e-07 1 1 0
1  2 0 3.79861426704611 5.07035751966148
2  4 3 0 3.79861426704611 5.07035751966148
0

0101000
+18 0 -27 0 *
Wi

0101100
+25 0 +23 0 +21 0 +19 0 +17 0 +16 0 *
Fa
0  0 1 0

0101000
+15 0 *
Ve
1e-07
32.4910240577 19.330249107 85.2073346819
0 0

0101101
*
Ed
 1e-07 1 1 0
1  5 0 4.71238898038469 6.78300412886854
3  5 6C0 2 0 4.71238898038469 6.78300412886854
0

0101000
+13 0 -26 0 *
Ed
 2.22044604925031e-16 1 1 1
2  7 2 0 0 6.28318530717959
0

0101000
+13 0 -13 0 *
Ed
 1.14356076727024e-07 1 1 0
1  6 0 2.47164298969315 6.95313497107623
2  8 2 0 2.47164298969315 6.95313497107623
2  9 3 0 2.47164298969315 6.95313497107623
0

0101000
+27 0 -24 0 *
Wi

0101100
+12 0 +11 0 -12 0 -23 0 +10 0 -25 0 *
Fa
0  1e-07 2 0

0101000
+9 0 *
Ed
 1.01233700496307e-07 1 1 0
1  7 0 1.47141681112947 4.81176849605011
2  10 3 0 1.47141681112947 4.81176849605011
0

0101000
+18 0 -20 0 *
Wi

0101100
-21 0 -10 0 -16 0 +7 0 -19 0 *
Fa
0  1e-07 3 0

0101000
+6 0 *
Wi

0101100
+17 0 +7 0 *
Fa
0  1e-07 4 0

0101000
+4 0 *
Sh

0101100
+14 0 +8 0 +5 0 -3 0 *
So

1100000
+2 0 *

+1 0 