DBRep_DrawableShape

CASCADE Topology V3, (c) Open Cascade
Locations 5
1
-0.338388342085475 0.941006551486569               0               0 
-0.941006551486569 -0.338388342085475               0               0 
              0               0               1               0 
1
0.623489801858734 -0.78183148246803               0               0 
0.78183148246803 0.623489801858734               0               0 
              0               0               1               0 
1
0.623489801858734 -0.78183148246803               0               0 
0.78183148246803 0.623489801858734               0               0 
              0               0               1               0 
2  3 -1 0
2  2 -1 0
Curve2ds 36
2 0 0 -1 0 0 1 4
1 0 0 1 0 
2 0 0 -1 0 0 1 45
1 0 0 1 0 
1 0 1 1 0 
1 0 14.999999999999996 1 0 
1 6.2831853071795862 0 0 1 
1 0 0 0 1 
1 0 0 1 0 
1 0 1 1 0 
1 6.2831853071795862 0 0 1 
1 0 0 0 1 
1 6.2831853071795862 0 0 1 
1 0 0 0 1 
1 6.2831853071795862 0 0 1 
1 0 0 0 1 
1 0 0 0 1 
1 0 0 0 1 
1 0 0 1 0 
1 0 0 1 0 
1 1 0 0 1 
1 0 0 0 1 
1 0 1 1 0 
1 0 0 0 1 
1 0.89759790102565518 0 0 1 
1 0 0 1 0 
1 0 1 1 0 
1 0 0 1 0 
1 0.89759790102565518 0 0 1 
1 0 0 0 1 
1 0 0 1 0 
1 0 1 1 0 
1 0 1 1 0 
1 0.89759790102565518 0 0 1 
1 1 0 0 1 
1 0 1 1 0 
Curves 16
2 0 0 0 0 0 1 1 0 -0 -0 1 0 4
2 0 0 0 0 0 1 1 0 -0 -0 1 0 45
2 0 0 24.66591 0 0 1 1 0 -0 -0 1 0 106
7 0 0  4 5 2  45 0 0  46.125814535999993 0 12.1395584794176  46.829999999999998 0 19.732728000000002  82.331999999999994 0 22.6926372  106 0 24.66591 
 0 5 1 5
2 0 0 39.665909999999997 0 0 1 1 0 -0 -0 1 0 106
1 106 0 39.665909999999997 0 0 -1 
7 0 0  4 5 2  4 0 0  4 0 18.395644884786002  4 0 39.665909999999997  19.956435279999997 0 39.665909999999997  106 0 39.665909999999997 
 0 5 1 5
7 0 0  3 9 7  0 0 -5.0999999999999979  4.0753214680832581 7.2226993211067052 -5.0999999999999943  16.884374883291606 4.9614544874716344 -5.1000000000000094  38.148419137593777 23.218723168013788 -5.0999999999999872  19.623852888843718 58.747321363188775 -5.1000000000000121  5.4763411503674124 70.868377909006568 -5.099999999999981  -13.750965171009732 90.638239520600735 -5.1000000000000121  -29.321881338917557 100.84190966845756 -5.0999999999999917  -41.436842451049074 103.08345205554059 -5.0999999999999979 
 0 4 0.10407333597706142 1 0.20999077914617911 1 0.36468787043736045 1 0.63015247912087147 1 0.84321422145316594 1 1 4
7 0 0  3 6 4  0 0 -5.0999999999999979  0 0 4.6117055570494871  0 0 12.209732622028515  0 0 26.944545900678285  0 0 38.330050858195833  0 -0 44.765909999999991 
 0 4 0.25928428006989573 1 0.66266712532998506 1 1 4
7 0 0  3 9 7  0 0 44.765909999999991  5.4362104550282613 -2.9832929658709979 44.765910000000012  18.735025697138092 -5.4224647186883548 44.765909999999934  39.113500460910238 -10.845111217049435 44.765910000000048  61.4720749824439 -18.455533630894291 44.765909999999948  61.911473348608652 63.859347174213923 44.765909999999977  6.7380158759991611 88.934028292001869 44.765910000000048  -4.9561688535349884 106.571883518454 44.765909999999948  -15.722779806871316 109.98183575093041 44.765909999999991 
 0 4 0.10407333597706142 1 0.20999077914617911 1 0.36468787043736045 1 0.63015247912087147 1 0.84321422145316594 1 1 4
7 0 0  3 6 4  -41.436842451049074 103.08345205554059 -5.0999999999999979  -46.268367912662839 100.76146490454929 4.6117055570494871  -43.469118719324534 103.40237221147233 12.209732622028515  -9.3725470797143622 112.24813744931998 26.944545900678285  -20.153489595244586 108.79578620994172 38.330050858195833  -15.722779806871316 109.98183575093041 44.765909999999991 
 0 4 0.25928428006989573 1 0.66266712532998506 1 1 4
2 0 0 -5.0999999999999979 0 0 1 -0.37296887894733644 0.92784385288515392 0 -0.92784385288515392 -0.37296887894733644 0 111.09999999999999
7 0 0  3 9 7  0 0 -5.0999999999999979  -3.1060123429958142 7.6894939935273499 -5.0999999999999943  6.6482142333544552 16.294152120874656 -5.1000000000000094  5.6320215338592554 44.302272195594405 -5.0999999999999872  -33.695233203037532 51.97090175228513 -5.1000000000000121  -51.992686101949772 48.467286820628786 -5.099999999999981  -79.437415722522843 45.761080514507007 -5.1000000000000121  -97.12327371712432 39.949132322285344 -5.0999999999999917  -106.42933682796152 31.874853134725385 -5.0999999999999979 
 0 4 0.10407333597706142 1 0.20999077914617911 1 0.36468787043736045 1 0.63015247912087147 1 0.84321422145316594 1 1 4
2 0 0 44.765909999999991 0 0 1 -0.14151917017885979 0.98993551530990498 0 -0.98993551530990498 -0.14151917017885979 0 111.09999999999998
7 0 0  3 9 7  0 0 44.765909999999991  5.7218541416113142 2.3901477388854859 44.765910000000012  15.920551089369614 11.266781461829133 44.765909999999934  32.865918032730832 23.818349806013337 44.765910000000048  52.756329069029832 36.55396650718653 44.765909999999948  -11.326075819749988 88.219990706401347 44.765909999999977  -65.330338997941809 60.717452619504797 44.765910000000048  -86.411374417112043 62.571593696511783 44.765909999999948  -95.790254556159994 56.279988735482775 44.765909999999991 
 0 4 0.10407333597706142 1 0.20999077914617911 1 0.36468787043736045 1 0.63015247912087147 1 0.84321422145316594 1 1 4
7 0 0  3 6 4  -106.42933682796152 31.874853134725385 -5.0999999999999979  -107.62634102416727 26.649679111799763 4.6117055570494871  -107.94578217409183 30.484799031945613 12.209732622028515  -93.602815227919777 62.657816599453923 26.944545900678285  -97.625466053294673 52.076430539947609 38.330050858195833  -95.790254556159994 56.279988735482775 44.765909999999991 
 0 4 0.25928428006989573 1 0.66266712532998506 1 1 4
Polygon3D 0
PolygonOnTriangulations 0
Surfaces 9
1 0 0 0 0 0 1 -1 -0 0 -0 1 -0 
7 0 0 0 0 0 1 
8 0 1
7 0 0  4 5 2  4 0 0  4 0 18.395644884786002  4 0 39.665909999999997  19.956435279999997 0 39.665909999999997  106 0 39.665909999999997 
 0 5 1 5
7 0 0 0 0 0 1 
8 0 1
7 0 0  4 5 2  45 0 0  46.125814535999993 0 12.1395584794176  46.829999999999998 0 19.732728000000002  82.331999999999994 0 22.6926372  106 0 24.66591 
 0 5 1 5
2 0 0 39.665909999999997 -0 -0 -1 1 0 0 -0 1 -0 106
2 0 0 39.665909999999997 -0 -0 -1 1 0 0 -0 1 -0 106
9 0 0 0 0 3 3 6 9 4 7 0 0 -5.0999999999999979  4.0753214680832581 7.2226993211067052 -5.0999999999999943  16.884374883291606 4.9614544874716344 -5.1000000000000094  38.148419137593777 23.218723168013788 -5.0999999999999872  19.623852888843718 58.747321363188775 -5.1000000000000121  5.4763411503674124 70.868377909006568 -5.099999999999981  -13.750965171009732 90.638239520600735 -5.1000000000000121  -29.321881338917557 100.84190966845756 -5.0999999999999917  -41.436842451049074 103.08345205554059 -5.0999999999999979  
0 0 4.6117055570494871  3.8243707509207359 7.2397869799982892 4.6117055570495014  17.202749277369932 5.306333368773501 4.6117055570494623  36.647974220489857 25.080170770733915 4.6117055570495351  21.825446864980503 57.266037550314159 4.6117055570494285  2.9333667933453915 71.499505050246498 4.6117055570494987  -14.498204405722966 89.726571572108554 4.611705557049433  -35.778413402780984 99.173731178668945 4.611705557049504  -46.268367912662839 100.76146490454929 4.6117055570494871  
0 0 12.209732622028515  5.1523160453172201 6.2500576618598203 12.209732622028419  17.142684234823154 3.7003512133872123 12.20973262202865  41.493736856769125 16.462279316789594 12.20973262202833  29.789022061177619 56.622823495286511 12.209732622028717  6.2843259393025406 73.478807172817213 12.209732622028412  -20.214557799080431 89.964431026228112 12.209732622028685  -31.833744601442625 100.74834486539309 12.209732622028451  -43.469118719324534 103.40237221147233 12.209732622028515  
0 0 26.944545900678285  7.4541389889812422 1.9661520459494914 26.944545900678349  18.635510289578882 0.39944861912745289 26.9445459006782  43.752012734361038 3.3286036753766695 26.944545900678449  62.700066587636258 29.030588772189958 26.944545900678115  39.523886588881872 69.890824839969241 26.944545900678349  4.5799416038807266 91.220736598401672 26.94454590067815  -3.1597660127216578 106.71602847328859 26.944545900678321  -9.3725470797143622 112.24813744931998 26.944545900678285  
0 0 38.330050858195833  5.8158436351971483 -2.5871772328916269 38.330050858195733  18.80514660671432 -5.1075150739917135 38.330050858196017  39.925811342969872 -9.0749183549243071 38.330050858195669  63.4763437493813 -15.312788932261954 38.330050858196017  57.735545045672495 65.943763217167444 38.330050858195776  5.9825852425096802 88.21748915718409 38.330050858195939  -9.0136856106172552 106.19834293888093 38.33005085819579  -20.153489595244586 108.79578620994172 38.330050858195833  
0 -0 44.765909999999991  5.4362104550282613 -2.9832929658709979 44.765910000000012  18.735025697138092 -5.4224647186883548 44.765909999999934  39.113500460910238 -10.845111217049435 44.765910000000048  61.4720749824439 -18.455533630894291 44.765909999999948  61.911473348608652 63.859347174213923 44.765909999999977  6.7380158759991611 88.934028292001869 44.765910000000048  -4.9561688535349884 106.571883518454 44.765909999999948  -15.722779806871316 109.98183575093041 44.765909999999991  

0 4
0.25928428006989573 1
0.66266712532998506 1
1 4

0 4
0.10407333597706142 1
0.20999077914617911 1
0.36468787043736045 1
0.63015247912087147 1
0.84321422145316594 1
1 4

7 0 0 0 0 0 1 
8 0 1
7 0 0  3 9 7  0 0 -5.0999999999999979  4.0753214680832581 7.2226993211067052 -5.0999999999999943  16.884374883291606 4.9614544874716344 -5.1000000000000094  38.148419137593777 23.218723168013788 -5.0999999999999872  19.623852888843718 58.747321363188775 -5.1000000000000121  5.4763411503674124 70.868377909006568 -5.099999999999981  -13.750965171009732 90.638239520600735 -5.1000000000000121  -29.321881338917557 100.84190966845756 -5.0999999999999917  -41.436842451049074 103.08345205554059 -5.0999999999999979 
 0 4 0.10407333597706142 1 0.20999077914617911 1 0.36468787043736045 1 0.63015247912087147 1 0.84321422145316594 1 1 4
7 0 0 0 0 0 1 
8 0 1
7 0 0  3 9 7  0 0 44.765909999999991  5.4362104550282613 -2.9832929658709979 44.765910000000012  18.735025697138092 -5.4224647186883548 44.765909999999934  39.113500460910238 -10.845111217049435 44.765910000000048  61.4720749824439 -18.455533630894291 44.765909999999948  61.911473348608652 63.859347174213923 44.765909999999977  6.7380158759991611 88.934028292001869 44.765910000000048  -4.9561688535349884 106.571883518454 44.765909999999948  -15.722779806871316 109.98183575093041 44.765909999999991 
 0 4 0.10407333597706142 1 0.20999077914617911 1 0.36468787043736045 1 0.63015247912087147 1 0.84321422145316594 1 1 4
7 0 0 0 0 0 1 
8 0 1
7 0 0  3 6 4  -41.436842451049074 103.08345205554059 -5.0999999999999979  -46.268367912662839 100.76146490454929 4.6117055570494871  -43.469118719324534 103.40237221147233 12.209732622028515  -9.3725470797143622 112.24813744931998 26.944545900678285  -20.153489595244586 108.79578620994172 38.330050858195833  -15.722779806871316 109.98183575093041 44.765909999999991 
 0 4 0.25928428006989573 1 0.66266712532998506 1 1 4
Triangulations 0

TShapes 52
Ve
1e-07
4 0 0
0 0

0101101
*
Ed
 1e-07 1 1 0
1  1 0 0 6.28318530717959
2  1 1 0 0 6.28318530717959
2  2 2 0 0 6.28318530717959
0

0101000
+52 0 -52 0 *
Wi

0101100
+51 0 *
Ve
1e-07
45 0 0
0 0

0101101
*
Ed
 1e-07 1 1 0
1  2 0 0 6.28318530717959
2  3 1 0 0 6.28318530717959
2  4 3 0 0 6.28318530717959
0

0101000
+49 0 -49 0 *
Wi

0101100
-48 0 *
Fa
0  1e-07 1 0

0111000
+50 0 +47 0 *
Ve
1e-07
106 0 24.66591
0 0

0101101
*
Ed
 1e-07 1 1 0
1  3 0 0 6.28318530717959
2  5 3 0 0 6.28318530717959
2  6 4 0 0 6.28318530717959
0

0101000
+45 0 -45 0 *
Ed
 1e-07 1 1 0
1  4 0 0 1
3  7 8CN 3 0 0 1
0

0101000
+49 0 -45 0 *
Wi

0101100
+48 0 -44 0 -43 0 +43 0 *
Fa
0  1e-07 3 0

0111000
+42 0 *
Ve
1e-07
106 0 39.66591
0 0

0101101
*
Ed
 1e-07 1 1 0
1  5 0 0 6.28318530717959
2  9 4 0 0 6.28318530717959
2  10 2 0 0 6.28318530717959
0

0101000
+40 0 -40 0 *
Ed
 1e-07 1 1 0
1  6 0 0 15
3  11 12CN 5 0 0 15
3  13 14CN 4 0 0 15
0

0101000
+40 0 -45 0 *
Wi

0101100
+39 0 -44 0 -38 0 +38 0 *
Fa
0  1e-07 4 0

0111000
+37 0 *
Ed
 1e-07 1 1 0
1  7 0 0 1
3  15 16CN 2 0 0 1
0

0101000
+52 0 -40 0 *
Wi

0101100
+51 0 -39 0 -35 0 +35 0 *
Fa
0  1e-07 2 0

0111000
+34 0 *
Sh

0101100
+46 0 +41 0 -36 0 -33 0 *
So

0100000
+32 0 *
Ve
1e-07
0 0 -5.1
0 0

0101101
*
Ve
1e-07
-41.4368424510491 103.083452055541 -5.1
0 0

0101101
*
Ed
 1e-07 1 1 0
1  8 0 0 1
2  17 6 0 0 1
2  18 7 0 0 1
0

0101000
+30 0 -29 0 *
Ve
1e-07
0 0 44.76591
0 0

0101101
*
Ed
 1e-07 1 1 0
1  9 0 0 1
2  19 6 0 0 1
2  20 6 2 0 1
4 C0 6 0 6 2
0

0101000
+30 0 -27 0 *
Ve
1e-07
-15.7227798068713 109.98183575093 44.76591
0 0

0101101
*
Ed
 1e-07 1 1 0
1  10 0 0 1
2  21 6 0 0 1
2  22 8 0 0 1
0

0101000
+27 0 -25 0 *
Ed
 1e-07 1 1 0
1  11 0 0 1
2  23 6 0 0 1
2  24 9 0 0 1
2  25 9 4 0 1
0

0101000
+29 0 -25 0 *
Wi

0101100
-28 0 +26 0 +24 0 -23 0 *
Fa
1  1e-07 6 0

0111000
+22 0 *
Ed
 1e-07 1 1 1
2  26 7 0 0 0.897597901025655
0

0101000
+30 0 -30 0 *
Ve
1e-07
-106.429336827962 31.8748531347254 -5.1
0 0

0101101
*
Ed
 1e-07 1 1 0
1  12 0 0 0.897597901025655
2  27 7 0 0 0.897597901025655
2  28 9 0 0 0.897597901025655
4 C0 7 0 9 0
0

0101000
+29 0 -19 0 *
Ed
 1e-07 1 1 0
1  13 0 0 1
2  29 7 0 0 1
2  30 6 2 0 1
4 C0 7 0 6 2
0

0101000
+30 0 -19 0 *
Wi

0101100
+20 0 -18 0 -28 0 +17 0 *
Fa
0  1e-07 7 0

0111000
+16 0 *
Ed
 1e-07 1 1 1
2  31 8 0 0 0.897597901025655
0

0101000
+27 0 -27 0 *
Ve
1e-07
-95.79025455616 56.2799887354828 44.76591
0 0

0101101
*
Ed
 1e-07 1 1 0
1  14 0 0 0.897597901025655
2  32 8 0 0 0.897597901025655
2  33 9 0 0 0.897597901025655
4 C0 8 0 9 0
0

0101000
+25 0 -13 0 *
Ed
 1e-07 1 1 0
1  15 0 0 1
2  34 8 0 0 1
2  35 6 2 0 1
4 C0 8 0 6 2
0

0101000
+27 0 -13 0 *
Wi

0101100
+14 0 -12 0 -24 0 +11 0 *
Fa
0  1e-07 8 0

0111000
+10 0 *
Ed
 1e-07 1 1 0
1  16 0 0 1
2  25 9 0 0 1
2  36 6 2 0 1
4 C0 9 0 6 2
0

0101000
+19 0 -13 0 *
Wi

0101100
+18 0 -12 0 -23 0 +8 0 *
Fa
0  1e-07 9 0

0111000
+7 0 *
Wi

0101100
-17 5 +26 5 +11 5 -8 5 *
Fa
1  1e-07 6 0

0111000
+5 0 *
Sh

0101000
+21 0 -15 0 +9 0 -6 0 -4 2 *
So

0100000
-3 0 *
Co

1100000
+31 1 +2 0 *

+1 0 
0

