DBRep_DrawableShape

CASCADE Topology V1, (c) Matra-Datavision
Locations 2
1
              1               0               0               0 
              0               1               0               0 
              0               0               1             0.2 
2  1 -1 0
Curve2ds 32
1 1 0 0 -1 
7 0 0  8 16 3  0 5.8317385869028504  0.24421233654622959 5.8317385868459084  0.48842284988091345 5.8315796391566446  0.73263116818342189 5.8312462617672907  0.97683697578879924 5.8307244193296794  1.2210400436759508 5.8300035197376854  1.4652402226299104 5.8290779430760686  1.7094373990781879 5.8279481029957321  2.4384157266711459 5.8239864998031985  2.9231880399991255 5.8205744469922838  3.4079461630044792 5.8164401527755292  3.8926941251452369 5.8117321660266921  4.3774418614885233 5.8067145819127388  4.8621965009421224 5.8016427183894761  5.3469611597840823 5.7967006199856685  5.8317358409767781 5.7920120106318871 
 0 9 0.33498117197711474 7 1 9
7 0 0  8 16 3  0 5.8317385869028504  0.24421233654626326 5.8317385868459084  0.48842284988084783 5.8315796391566446  0.7326311681834301 5.8312462617672898  0.97683697578886608 5.8307244193296786  1.2210400436759448 5.8300035197376854  1.4652402226298347 5.8290779430760686  1.7094373990782308 5.8279481029957321  2.4384157266725728 5.8239864998031905  2.9231880399927612 5.8205744469923255  3.4079461630183472 5.816440152775427  3.8926941251273321 5.8117321660268253  4.3774418615028647 5.8067145819126269  4.8621965009351733 5.8016427183895312  5.3469611597857742 5.7967006199856517  5.8317358409767772 5.7920120106318862 
 0 9 0.3349811719764193 7 1 9
7 0 0  8 9 2  0 1.7763568394002505e-15  0.19634954084936207 1.7763568394002505e-15  0.39269908169762857 -0.0017806950613667993  0.58904862254985346 -0.0053420700568480584  0.78539816339434765 -0.010537732138161005  0.98174770424975577 -0.017074598265722329  1.1780972450952731 -0.024543772522140017  1.3744467859455345 -0.032479146624747809  1.5707963267948966 -0.040414518843272518 
 0 9 1.5707963267948966 9
7 0 0  8 9 2  0 1.7763568394002505e-15  0.19634954084936207 1.7763568394002505e-15  0.39269908169762857 -0.0017806950613667993  0.58904862254985346 -0.0053420700568480584  0.78539816339434765 -0.010537732138161005  0.98174770424975577 -0.017074598265722329  1.1780972450952731 -0.024543772522140017  1.3744467859455345 -0.032479146624747809  1.5707963267948966 -0.040414518843272518 
 0 9 1.5707963267948966 9
7 0 0  7 20 4  7.2621944825386719e-23 -0.069999999999999993  0.025210720939955772 -0.070000000000000562  0.050419946302180003 -0.069999999999998494  0.075628720561485008 -0.070000000000001991  0.10083781412740571 -0.069999999999998383  0.12604772334423739 -0.070000000000000812  0.15125867049099528 -0.069999999999999826  0.28655757340008825 -0.070000000000000326  0.39664218109175242 -0.069999999999999396  0.50672558045850424 -0.07000000000000077  0.61680848619216155 -0.06999999999999959  0.72689122700625708 -0.070000000000000118  0.83697402295869505 -0.070000000000000118  0.95462012308562616 -0.069999999999999882  0.9621834359046979 -0.070000000000000742  0.96974674872374333 -0.069999999999999188  0.97731006154281652 -0.070000000000000451  0.98487337436187783 -0.069999999999999951  0.99243668718093614 -0.069999999999999979  1 -0.070000000000000021 
 2.7459260724484014e-06 8 1.0291694749406111 6 5.5229877444206679 6 5.8317385869028504 8
1 0 0 0 1 
7 0 0  7 20 4  0 -0.13  0.025210720939955394 -0.12999999999999973  0.050419946302180926 -0.13000000000000006  0.075628720561483995 -0.130000000000001  0.10083781412740651 -0.12999999999999867  0.1260477233442367 -0.13000000000000084  0.15125867049099559 -0.12999999999999984  0.28655757340008742 -0.13000000000000034  0.39664218109175614 -0.12999999999999928  0.50672558045849836 -0.13000000000000092  0.61680848619216522 -0.12999999999999937  0.72689122700625786 -0.13000000000000031  0.83697402295869228 -0.12999999999999989  0.95462012308562949 -0.13000000000000014  0.96218343590468436 -0.12999999999999964  0.96974674872375877 -0.13000000000000025  0.97731006154280986 -0.13000000000000006  0.98487337436187694 -0.12999999999999987  0.99243668718093803 -0.13000000000000009  1 -0.13 
 2.7459260725368558e-06 8 1.0291694749406111 6 5.5229877444206679 6 5.8317385869028495 8
1 0 0 0 1 
7 0 0  1 2 2  0.02116810250827629 -3.0824324832552584e-15  0.021168102508275936 -0.2000000000000044 
 -8.2512020490883159e-17 2 0.20000000000000845 2
1 0.20000000000000853 0 0 1 
7 0 0  9 26 4  5.8317358409767825 0.12344803805663424  5.6518076382216416 0.1234481945877014  5.4754500814004246 0.12344834801241879  5.3027109140625859 0.12344849828930761  5.1322883199256513 0.12344864655080011  4.9652403247619459 0.12344879187657606  4.7999233497590472 0.12344893569638048  4.6369983371109269 0.12344907743528807  4.4757655290168596 0.12344921770202907  4.1564580189347105 0.12344949548807853  3.9983579556930442 0.12344963302944335  3.8415735282350338 0.12344976942626412  3.6858722492724221 0.12344990488076021  3.5310272002489005 0.1234500395904005  3.3768170313326076 0.12345017374768714  3.2230259614253387 0.12345030754039218  3.0694437781541164 0.12345044115136558  2.6087099573225827 0.12345084197321585  2.3015492143464176 0.12345110919201745  1.9927047223341989 0.12345137787560501  1.6804738885431689 0.12345164950522013  1.3630930181654035 0.12345192561513559  1.0386694120870787 0.12345220785202131  0.7050829583264232 0.12345249806022636  0.35985721717192981 0.1234527983942089  -4.4408920985006262e-16 0.12345311145704112 
 4.7123889803846897 10 5.1050880620834143 8 5.497787143782138 8 6.2831853071795862 10
1 0 -6.2831853071795862 0 1 
1 5.8317358409767781 0 0 1 
7 0 0  9 26 4  5.8317358409767825 0.12344803805663095  5.6518076382216416 0.12344819458769823  5.4754500813981926 0.12344834801241616  5.3027109140668962 0.1234484982893027  5.1322883199192448 0.12344864655080087  4.9652403247670716 0.12344879187656894  4.7999233497561331 0.12344893569638099  4.6369983371114571 0.12344907743528406  4.4757655290166216 0.1234492177020268  4.1564580189345612 0.12344949548807563  3.9983579556928976 0.12344963302944317  3.8415735282349166 0.12344976942625689  3.6858722492722391 0.12344990488076475  3.5310272002487912 0.12345003959039262  3.3768170313324433 0.12345017374768855  3.2230259614252303 0.12345030754038876  3.0694437781540134 0.12345044115136385  2.6087099573224828 0.12345084197321354  2.3015492143463296 0.12345110919201825  1.9927047223340622 0.12345137787559834  1.6804738885431476 0.12345164950522718  1.3630930181653103 0.12345192561512604  1.0386694120870328 0.12345220785202693  0.7050829583263627 0.12345249806022177  0.35985721717192881 0.12345279839420999  -4.4408920985006262e-16 0.12345311145704083 
 4.7123889803846897 10 5.1050880620834143 8 5.497787143782138 8 6.2831853071795862 10
1 0 -6.2831853071795862 0 1 
1 5.8317358409767772 0 0 1 
1 1.5707963267948966 0 0 1 
1 1.5707963267948966 0 0 1 
1 0 0 0 1 
7 0 0  1 2 2  1.5707963267948966 2.1909983830626345  0 2.1909985775989083 
 4.7123889803846897 2 6.2831853071795862 2
1 2.0742450769126841 -6.2831853071795862 0 1 
1 0 0 0 1 
7 0 0  1 2 2  1.5707963267948966 2.1909983830626323  0 2.1909985775989083 
 4.7123889803846897 2 6.2831853071795862 2
1 2.0742450769125607 -6.2831853071795862 0 1 
1 0 0 0 1 
7 0 0  7 8 2  0.2000000000000085 0.069999999999999396  0.16558295042126631 0.069999999999999243  0.13794822770536522 0.069999999999999202  0.11228154976724698 0.07000000000000027  0.087719504430482709 0.069999999999998438  0.062059041843102743 0.070000000000000506  0.034417049578739201 0.069999999999999146  2.0163099964833019e-18 0.069999999999999632 
 0 8 2.0742450769126841 8
1 0 0 1 0 
7 0 0  7 8 2  0.20000000000000856 0.13000000000000148  0.1655829504212683 0.12999999999999973  0.13794822770537679 0.13000000000000411  0.11228154976726379 0.12999999999999726  0.087719504430450221 0.13000000000000467  0.062059041843143946 0.12999999999999881  0.03441704957873809 0.13000000000000161  -1.3877787807814457e-17 0.13000000000000075 
 0 8 2.0742450769125607 8
1 0 0 1 0 
1 0 -1.5707963267948966 1 0 
1 0 -1.5707963267948966 1 0 
Curves 24
1 25.834529946162075 0.086602540378443893 0.049999999999999982 0 -0.86602540378443882 -0.49999999999999978 
8 0 1
7 0 0  8 16 3  25.834529946162082 0.025980762113533153 0.014999999999999986  25.834529946276913 0.029570919015579705 0.017072778053829556  25.834850490700696 0.033261694399707331 0.019203648215374083  25.835522801264311 0.037029253490594202 0.021378849470685437  25.836575182496372 0.040843352607260755 0.023580920622408786  25.838028996653033 0.044667308350944165 0.025788682500393619  25.839895568109409 0.0484592633240137 0.027977968724850248  25.842174017112661 0.052174748379926389 0.030123105022051472  25.850162543059589 0.062909062201429153 0.03632056399646201  25.857042369345518 0.069575741650472714 0.040169573170968247  25.8653770102054 0.075432348880470873 0.043550886931745594  25.874865214407162 0.080155168447195696 0.046277608079928201  25.884969678710902 0.083542884752369651 0.048233507000658468  25.895171105662076 0.085645195076030203 0.049447276431944021  25.905098397357825 0.0866025402056365 0.049999999900229589  25.914503704450624 0.086602540378443879 0.049999999999999975 
 0 9 0.33498117197711474 7 1 9
8 0 1
7 0 0  8 16 3  25.834529946162075 -0.025980762113533163 -0.014999999999999993  25.834529946276906 -0.029570919015580208 -0.017072778053829847  25.834850490700713 -0.033261694399706263 -0.019203648215373466  25.835522801264311 -0.037029253490594286 -0.021378849470685485  25.836575182496357 -0.040843352607261789 -0.023580920622409383  25.83802899665303 -0.04466730835094411 -0.025788682500393584  25.839895568109416 -0.048459263324012535 -0.027977968724849575  25.842174017112647 -0.052174748379927034 -0.030123105022051844  25.850162543059589 -0.062909062201450164 -0.036320563996474139  25.857042369345471 -0.06957574165040048 -0.040169573170926544  25.865377010205439 -0.075432348880596314 -0.043550886931818016  25.874865214407102 -0.080155168447066716 -0.04627760807985374  25.884969678710934 -0.083542884752447324 -0.048233507000703314  25.895171105662012 -0.085645195076007721 -0.049447276431931038  25.905098397357847 -0.086602540205636513 -0.049999999900229596  25.914503704450613 -0.086602540378443893 -0.049999999999999982 
 0 9 0.3349811719764193 7 1 9
1 25.834529946162075 0.086602540378443893 0.049999999999999982 1 0 0 
1 25.834529946162075 -0.086602540378443893 -0.25 1 0 0 
8 0 1.5707963267948966
3 29.75370090847553 0.025980762113533177 0.014999999999999999 0 -0.49999999999999978 0.86602540378443882 1 0 0 0 0.86602540378443882 0.49999999999999978 0.080829037686547631 0.070000000000000007
8 0 1.5707963267948966
3 29.75370090847553 -0.025980762113533177 -0.014999999999999999 0 0.49999999999999978 -0.86602540378443882 1 0 0 0 -0.86602540378443882 -0.49999999999999978 0.080829037686547631 0.070000000000000007
1 29.834529946162075 0.086602540378443893 0.049999999999999982 0 -0.86602540378443882 -0.49999999999999978 
7 0 0  7 32 6  31.242532257665307 -0.97136414142155569 1.7424520455926555  31.204873500400918 -0.9717588786239526 1.7431357504828444  31.16770567302828 -0.97214846992387938 1.7438105424085044  31.131028775547385 -0.97253291532133679 1.7444764213696367  31.094842807958248 -0.97291221481632395 1.7451333873662396  31.059147770260854 -0.97328636840884142 1.7457814403983143  31.023943662455213 -0.97365537609888886 1.7464205804658604  30.84822160225508 -0.97549728590904361 1.7496108618400084  30.707221030401044 -0.97697520236433399 1.752170688229912  30.565853824163074 -0.97815758685362897 1.7542186382394547  30.423746458589083 -0.97874893242737426 1.7552428788180101  30.280526828603524 -0.97845362558547921 1.7547313923640266  30.135824248995672 -0.97697594627704343 1.7521719767245223  29.349343391192519 -0.96111333483556971 1.7246971277671665  28.674222649368478 -0.92002447431496348 1.6535291337203641  27.998590381749988 -0.84538486645674016 1.5242495406529064  27.357123566161519 -0.73182513432909457 1.3275583149139099  26.784502609767866 -0.57397516145934047 1.0541541419301284  26.315410112072382 -0.36646433441123955 0.69473484636217897  25.96179619779376 -0.085884612727906554 0.20875651283311072  25.939715250279871 -0.067586740679878493 0.17706366877553265  25.918156243874595 -0.049081052382955695 0.14501087641622776  25.896988694422131 -0.030419502896179441 0.11268812455717227  25.87608211775774 -0.011654047278486481 0.080185402000148023  25.855306029725003 0.0071633594110716535 0.047592697547147379  25.817481328393299 0.041422108655281537 -0.011745196747586298  25.80028483617436 0.056997388672491683 -0.038722373079506649  25.782940469505249 0.072706602165163656 -0.065931528995761157  25.765448228385996 0.08854974913329744 -0.093372664496349858  25.747808112816575 0.10452682957689305 -0.12104577958127266  25.730020122796997 0.12063784349595053 -0.14895087425052969  25.712084258327256 0.13688279089046979 -0.17708794850412088 
 -0.25335468225930063 8 2.7459260724484014e-06 6 1.0291694749406111 6 5.5229877444206679 6 5.8317385869028504 6 6.0850960150882214 8
7 0 0  7 32 6  31.242532257665307 -1.0233256656486227 1.7124520455926573  31.204873500400971 -1.0237204028510216 1.7131357504828493  31.167705673028372 -1.0241099941509499 1.7138105424085119  31.131028775547506 -1.0244944395484075 1.7144764213696446  31.094842807958365 -1.0248737390433946 1.7151333873662475  31.05914777026096 -1.0252478926359112 1.7157814403983207  31.023943662455274 -1.0256169003259572 1.7164205804658641  30.848221602254842 -1.0274588101361017 1.7196108618399937  30.707221030401481 -1.028936726591416 1.722170688229941  30.565853824162868 -1.030119111080686 1.724218638239436  30.423746458589012 -1.0307104566544409 1.7252428788180134  30.280526828603623 -1.0304151498125471 1.7247313923640284  30.135824248995657 -1.0289374705041097 1.7221719767245225  29.349343391192527 -1.0130748590626351 1.6946971277671643  28.674222649368406 -0.97198599854203227 1.6235291337203701  27.99859038175013 -0.89734639068380206 1.4942495406528968  27.357123566161288 -0.78378665855616625 1.2975583149139209  26.784502609768115 -0.62593668568640348 1.0241541419301217  26.315410112072172 -0.41842585863830589 0.66473484636217917  25.961796197793905 -0.13784613695497427 0.17875651283311317  25.9397152502792 -0.11954826490693708 0.14706366877551941  25.918156243875593 -0.10104257661003659 0.11501087641625295  25.896988694421278 -0.082381027123230047 0.082688124557145248  25.87608211775817 -0.063615571505562796 0.050185402000165275  25.855306029724872 -0.04479816481599104 0.01759269754714109  25.817481328393402 -0.010539415571787834 -0.041745196747581009  25.800284836174558 0.0050358644454278172 -0.068722373079510887  25.782940469505547 0.020745077938113796 -0.095931528995789661  25.765448228386369 0.03658822490627011 -0.12337266449641734  25.747808112817019 0.052565305349896743 -0.1510457795813939  25.730020122797509 0.068676319268993674 -0.17895087425071929  25.712084258327824 0.084921266663560924 -0.20708794850439355 
 -0.2533546822592998 8 2.7459260725368558e-06 6 1.0291694749406111 6 5.5229877444206679 6 5.8317385869028495 6 6.0850960150882223 8
7 0 0  2 5 4  30.870810514137844 -0.90826055167020325 1.7878414220033245  30.870810514137844 -0.91144059695289981 1.7860054220033246  30.870810514137847 -1.0012231826140408 1.7341694220033244  30.870810514137847 -1.0910057682751815 1.6823334220033241  30.870810514137847 -1.0941858135578779 1.680497422003324 
 -0.0073440000000000892 3 -8.2512020490883159e-17 1 0.20000000000000845 1 0.20734400000000844 3
2 30.869402499532899 -0.94024950159227305 1.6885599085491318 0.99979768309232775 0.010057247178199932 -0.017419663096921018 0.020114494356399875 -0.49989884154616365 0.86585019220277948 0 -0.86602540378443882 -0.49999999999999978 0.070000000000000007
7 0 0  7 32 6  31.241063534600478 -0.87575006804937938 1.7168436125934277  31.203405427944794 -0.8761447984400611 1.7175273056853795  31.166238034311405 -0.87653438520138494 1.7182020897499484  31.1295613537003 -0.87691882833334989 1.7188679647871326  31.093375386111479 -0.87729812783595629 1.7195249307969325  31.057680131544942 -0.87767228370920436 1.7201729877793488  31.022475590000688 -0.87804129595309399 1.7208121357343806  30.846750236348395 -0.87988324032206489 1.7240024769661551  30.705953658080158 -0.88135860494833307 1.7265578834585371  30.565006492224818 -0.88253656660259505 1.7285981728930935  30.423534509077683 -0.88312375649457853 1.729615215619694  30.281154783691253 -0.88282812888795392 1.7291031735849032  30.137475695863284 -0.88135896109997691 1.7265585003312827  29.357305953170705 -0.86562391465652011 1.6993046004317598  28.687576003996877 -0.8248789045061925 1.6287321726964821  28.018695704834137 -0.75078492788532514 1.5003976406543196  27.384255930431099 -0.63861459685274435 1.3061129282040704  26.822363068481067 -0.48233374081242242 1.0354265452918729  26.365581696602096 -0.28000156757455591 0.68497694123806263  26.021640475802599 -0.0070967747747181509 0.21229197447968448  26.000061052901863 0.010787449624173828 0.18131558916684437  25.97888992273154 0.028960242392600768 0.14983938877650074  25.958003272867423 0.047370637172495261 0.11795164963033131  25.937277290876974 0.065967667605818292 0.085740648049905138  25.916588164335327 0.08470036733449543 0.053294660356907192  25.878763463076954 0.11895911651230251 -0.0060432338228141244  25.861566970880045 0.13453439650956023 -0.033020410120176202  25.844222604221972 0.15024360999225692 -0.060229566019153385  25.826730363102719 0.1660867569603926 -0.087670701519745611  25.809090247522288 0.18206383741396723 -0.11534381662195287  25.791302257480684 0.19817485135298082 -0.14324891132577527  25.773366392977898 0.21441979877743336 -0.17138598563121274 
 -0.25335468225930063 8 2.7459260724484014e-06 6 1.0291694749406111 6 5.5229877444206679 6 5.8317385869028504 6 6.0850960150882214 8
2 30.869402499532896 -0.9922110258193404 1.6585599085491336 -0.99979768309232653 -0.010057247178225584 0.017419663096965448 0.020114494356451181 -0.49989884154616315 0.86585019220277859 0 0.86602540378443882 0.49999999999999978 0.070000000000000007
7 0 0  7 32 6  31.241063534600478 -1.0489551488062672 1.6168436125934276  31.203405427944844 -1.0493498791969504 1.6175273056853827  31.166238034311498 -1.0497394659582755 1.6182020897499538  31.129561353700414 -1.050123909090241 1.6188679647871387  31.093375386111592 -1.0505032085928474 1.6195249307969388  31.057680131545034 -1.0508773644660949 1.6201729877793536  31.022475590000745 -1.0512463767099833 1.6208121357343837  30.846750236348154 -1.0530883210789455 1.6240024769661419  30.705953658080613 -1.0545636857052332 1.6265578834585619  30.565006492224583 -1.055741647359479 1.6285981728930814  30.423534509077644 -1.0563288372514619 1.6296152156196912  30.281154783691338 -1.0560332096448459 1.6291031735849084  30.137475695863269 -1.054564041856864 1.6265585003312817  29.357305953170712 -1.0388289954134091 1.5993046004317613  28.687576003996817 -0.99808398526307629 1.5287321726964767  28.018695704834268 -0.9239900086422177 1.4003976406543268  27.384255930430882 -0.81181967760962881 1.2061129282040643  26.822363068481302 -0.65553882156931187 0.93542654529187697  26.365581696601897 -0.45320664833144292 0.58497694123806043  26.021640475802744 -0.18030185553160713 0.11229197447968681  26.000061052901209 -0.16241763113271143 0.081315589166838675  25.978889922732492 -0.14424483836429189 0.049839388776511472  25.95800327286663 -0.12583444358438722 0.017951649630320428  25.937277290877354 -0.10723741315107335 -0.01425935195008711  25.916588164335209 -0.088504713422390358 -0.046705339643096387  25.878763463077043 -0.0542459642445869 -0.10604323382281121  25.861566970880233 -0.038670684247323471 -0.13302041012018301  25.844222604222228 -0.022961470764613842 -0.16022956601918242  25.826730363103046 -0.0071183237964579926 -0.18767070151980952  25.809090247522683 0.0088587566571441401 -0.21534381662206425  25.791302257481139 0.024969770596192514 -0.2432489113259467  25.773366392978406 0.041214718020687102 -0.27138598563145683 
 -0.2533546822592998 8 2.7459260725368558e-06 6 1.0291694749406111 6 5.5229877444206679 6 5.8317385869028495 6 6.0850960150882223 8
1 29.773908167897165 0.069102540378444002 0.080310889132455168 0.50000000000000033 -0.43301270189221908 0.75 
1 29.773908167897165 -0.10410254037844378 -0.019689110867544806 0.50000000000000033 -0.43301270189221908 0.75 
1 29.834529946162075 0.025980762113533291 0.014999999999999802 0.50000000000000033 -0.43301270189221908 0.75 
2 30.869402499532899 -0.94024950159227305 1.6885599085491318 -0.49997040371112744 0.43302124526774993 -0.75001479756048761 0.86604249053550042 0.24998520185556367 -0.43298707075419807 0 -0.86602540378443882 -0.49999999999999978 0.070000000000000007
1 29.834529946162075 -0.025980762113533062 -0.015000000000000197 0.50000000000000033 -0.43301270189221908 0.75 
2 30.869402499532896 -0.9922110258193404 1.6585599085491336 0.49997040371106505 -0.43302124526776803 0.75001479756051892 0.86604249053553639 0.24998520185553241 -0.43298707075414394 0 0.86602540378443882 0.49999999999999978 0.070000000000000007
7 0 0  2 5 4  30.93002923496153 -0.85576758298427658 1.6969209331991804  30.93002923496153 -0.85894762826697313 1.6950849331991802  30.93002923496153 -0.94873021392811552 1.6432489331991791  30.93002923496153 -1.038512799589258 1.591412933199178  30.93002923496153 -1.0416928448719545 1.5895769331991778 
 -0.0073440000000000892 3 -8.2512020490883159e-17 1 0.20000000000000845 1 0.20734400000000844 3
2 30.869402499532899 -0.94024950159227305 1.6885599085491318 0 0.86602540378443882 0.49999999999999983 0.020114494356399875 -0.49989884154616365 0.86585019220277948 0.99979768309232764 0.010057247178199934 -0.017419663096921018 0.070000000000000007
2 30.869402499532896 -0.9922110258193404 1.6585599085491336 0 0.86602540378443871 0.49999999999999978 0.020114494356451181 -0.49989884154616315 0.86585019220277859 0.99979768309232664 0.010057247178225587 -0.017419663096965451 0.070000000000000007
Polygon3D 0
PolygonOnTriangulations 0
Surfaces 12
1 25.834529946162075 0.086602540378443893 0.049999999999999982 0 -0.49999999999999983 0.86602540378443882 1 0 0 0 0.86602540378443882 0.49999999999999978 
6 0 0.86602540378443882 0.49999999999999978 
7 0 0  3 6 4  30.989230484541327 -0.91339745962155572 1.7820508075688777  30.66020555957784 -0.91684628236118471 1.7880243437802139  28.894509305134047 -0.93535417017428579 1.8200809458132898  26.637068025412674 -0.64027565280593712 1.3089899615092142  25.88300747447536 0.042695267406039572 0.12604962761000008  25.834529946162075 0.086602540378443893 0.049999999999999982 
 0 4 0.17647729911144522 1 0.94705681026656663 1 1 4
9 1 1 0 0 2 7 3 32 2 6 31.242532257665307 -0.97136414142155569 1.7424520455926555  1 31.204873500400918 -0.9717588786239526 1.7431357504828444  1 31.16770567302828 -0.97214846992387938 1.7438105424085044  1 31.131028775547385 -0.97253291532133679 1.7444764213696367  1 31.094842807958248 -0.97291221481632395 1.7451333873662396  1 31.059147770260854 -0.97328636840884142 1.7457814403983143  1 31.023943662455213 -0.97365537609888886 1.7464205804658604  1 30.84822160225508 -0.97549728590904361 1.7496108618400084  1 30.707221030401044 -0.97697520236433399 1.752170688229912  1 30.565853824163074 -0.97815758685362897 1.7542186382394547  1 30.423746458589083 -0.97874893242737426 1.7552428788180101  1 30.280526828603524 -0.97845362558547921 1.7547313923640266  1 30.135824248995672 -0.97697594627704343 1.7521719767245223  1 29.349343391192519 -0.96111333483556971 1.7246971277671665  1 28.674222649368478 -0.92002447431496348 1.6535291337203641  1 27.998590381749988 -0.84538486645674016 1.5242495406529064  1 27.357123566161519 -0.73182513432909457 1.3275583149139099  1 26.784502609767866 -0.57397516145934047 1.0541541419301284  1 26.315410112072382 -0.36646433441123955 0.69473484636217897  1 25.96179619779376 -0.085884612727906554 0.20875651283311072  1 25.939715250279871 -0.067586740679878493 0.17706366877553265  1 25.918156243874595 -0.049081052382955695 0.14501087641622776  1 25.896988694422131 -0.030419502896179441 0.11268812455717227  1 25.87608211775774 -0.011654047278486481 0.080185402000148023  1 25.855306029725003 0.0071633594110716535 0.047592697547147379  1 25.817481328393299 0.041422108655281537 -0.011745196747586298  1 25.80028483617436 0.056997388672491683 -0.038722373079506649  1 25.782940469505249 0.072706602165163656 -0.065931528995761157  1 25.765448228385996 0.08854974913329744 -0.093372664496349858  1 25.747808112816575 0.10452682957689305 -0.12104577958127266  1 25.730020122796997 0.12063784349595053 -0.14895087425052969  1 25.712084258327256 0.13688279089046979 -0.17708794850412088  1 
31.242532257665307 -0.91074236315664769 1.7774520455926606  0.70710678118654768 31.204873500400961 -0.91113710035904583 1.7781357504828517  0.70710678118654624 31.167705673028347 -0.91152669165897338 1.778810542408513  0.70710678118654535 31.131028775547485 -0.91191113705643045 1.7794764213696446  0.70710678118654491 31.09484280795834 -0.91229043655141739 1.7801333873662473  0.70710678118654491 31.059147770260932 -0.91266459014393386 1.78078144039832  0.70710678118654535 31.023943662455267 -0.91303359783397986 1.7814205804658634  0.70710678118654624 30.848221602254888 -0.91487550764412551 1.7846108618399952  0.7071067811865529 30.707221030401513 -0.91635342409944165 1.7871706882299452  0.70710678118653314 30.565853824162541 -0.91753580858869521 1.7892186382394131  0.70710678118656656 30.423746458589434 -0.91812715416248203 1.7902428788180436  0.70710678118653314 30.280526828603399 -0.91783184732055911 1.7897313923640099  0.70710678118655379 30.135824248995686 -0.91635416801213476 1.7871719767245258  0.70710678118654646 29.349343391192459 -0.90049155657065505 1.7596971277671594  0.70710678118654935 28.674222649368598 -0.85940269605006148 1.6885291337203807  0.70710678118654491 27.998590381749914 -0.78476308819181895 1.5592495406528863  0.70710678118654979 27.357123566161423 -0.67120335606419013 1.3625583149139227  0.70710678118654802 26.784502609768044 -0.51335338319442902 1.0891541419301263  0.70710678118654469 26.315410112072236 -0.30584255614632766 0.729734846362177  0.70710678118655035 25.961796197793841 -0.025262834462996667 0.24375651283311239  0.70710678118654602 25.939715250279413 -0.0069649624149606959 0.21206366877551952  0.70710678118655601 25.918156243875281 0.01154072588194216 0.18001087641625135  0.70710678118653547 25.896988694421538 0.03020227536874464 0.14768812455714803  0.7071067811865579 25.876082117758045 0.048967730986415381 0.115185402000164  0.70710678118654269 25.855306029724918 0.06778513767598543 0.082592697547141811  0.70710678118654857 25.817481328393363 0.10204388692018937 0.023254803252418882  0.70710678118654691 25.800284836174491 0.11761916693740267 -0.0037223730795066939  0.70710678118654635 25.782940469505444 0.13332838043008349 -0.030931528995776392  0.70710678118654613 25.765448228386237 0.14917152739823192 -0.058372664496390211  0.70710678118654624 25.747808112816859 0.16514860784184787 -0.086045779581348125  0.70710678118654668 25.730020122797324 0.18125962176093144 -0.11395087425065008  0.70710678118654713 25.712084258327618 0.19750456915548248 -0.1420879485042961  0.70710678118654779 
31.241063534600478 -0.87575006804937938 1.7168436125934277  1 31.203405427944794 -0.8761447984400611 1.7175273056853795  1 31.166238034311405 -0.87653438520138494 1.7182020897499484  1 31.1295613537003 -0.87691882833334989 1.7188679647871326  1 31.093375386111479 -0.87729812783595629 1.7195249307969325  1 31.057680131544942 -0.87767228370920436 1.7201729877793488  1 31.022475590000688 -0.87804129595309399 1.7208121357343806  1 30.846750236348395 -0.87988324032206489 1.7240024769661551  1 30.705953658080158 -0.88135860494833307 1.7265578834585371  1 30.565006492224818 -0.88253656660259505 1.7285981728930935  1 30.423534509077683 -0.88312375649457853 1.729615215619694  1 30.281154783691253 -0.88282812888795392 1.7291031735849032  1 30.137475695863284 -0.88135896109997691 1.7265585003312827  1 29.357305953170705 -0.86562391465652011 1.6993046004317598  1 28.687576003996877 -0.8248789045061925 1.6287321726964821  1 28.018695704834137 -0.75078492788532514 1.5003976406543196  1 27.384255930431099 -0.63861459685274435 1.3061129282040704  1 26.822363068481067 -0.48233374081242242 1.0354265452918729  1 26.365581696602096 -0.28000156757455591 0.68497694123806263  1 26.021640475802599 -0.0070967747747181509 0.21229197447968448  1 26.000061052901863 0.010787449624173828 0.18131558916684437  1 25.97888992273154 0.028960242392600768 0.14983938877650074  1 25.958003272867423 0.047370637172495261 0.11795164963033131  1 25.937277290876974 0.065967667605818292 0.085740648049905138  1 25.916588164335327 0.08470036733449543 0.053294660356907192  1 25.878763463076954 0.11895911651230251 -0.0060432338228141244  1 25.861566970880045 0.13453439650956023 -0.033020410120176202  1 25.844222604221972 0.15024360999225692 -0.060229566019153385  1 25.826730363102719 0.1660867569603926 -0.087670701519745611  1 25.809090247522288 0.18206383741396723 -0.11534381662195287  1 25.791302257480684 0.19817485135298082 -0.14324891132577527  1 25.773366392977898 0.21441979877743336 -0.17138598563121274  1 

0 3
5.8317358409767781 3

-0.25335468225930063 8
2.7459260724484014e-06 6
1.0291694749406111 6
5.5229877444206679 6
5.8317385869028504 6
6.0850960150882214 8

9 1 1 0 0 2 7 3 32 2 6 31.242532257665307 -1.0233256656486227 1.7124520455926573  1 31.204873500400971 -1.0237204028510216 1.7131357504828493  1 31.167705673028372 -1.0241099941509499 1.7138105424085119  1 31.131028775547506 -1.0244944395484075 1.7144764213696446  1 31.094842807958365 -1.0248737390433946 1.7151333873662475  1 31.05914777026096 -1.0252478926359112 1.7157814403983207  1 31.023943662455274 -1.0256169003259572 1.7164205804658641  1 30.848221602254842 -1.0274588101361017 1.7196108618399937  1 30.707221030401481 -1.028936726591416 1.722170688229941  1 30.565853824162868 -1.030119111080686 1.724218638239436  1 30.423746458589012 -1.0307104566544409 1.7252428788180134  1 30.280526828603623 -1.0304151498125471 1.7247313923640284  1 30.135824248995657 -1.0289374705041097 1.7221719767245225  1 29.349343391192527 -1.0130748590626351 1.6946971277671643  1 28.674222649368406 -0.97198599854203227 1.6235291337203701  1 27.99859038175013 -0.89734639068380206 1.4942495406528968  1 27.357123566161288 -0.78378665855616625 1.2975583149139209  1 26.784502609768115 -0.62593668568640348 1.0241541419301217  1 26.315410112072172 -0.41842585863830589 0.66473484636217917  1 25.961796197793905 -0.13784613695497427 0.17875651283311317  1 25.9397152502792 -0.11954826490693708 0.14706366877551941  1 25.918156243875593 -0.10104257661003659 0.11501087641625295  1 25.896988694421278 -0.082381027123230047 0.082688124557145248  1 25.87608211775817 -0.063615571505562796 0.050185402000165275  1 25.855306029724872 -0.04479816481599104 0.01759269754714109  1 25.817481328393402 -0.010539415571787834 -0.041745196747581009  1 25.800284836174558 0.0050358644454278172 -0.068722373079510887  1 25.782940469505547 0.020745077938113796 -0.095931528995789661  1 25.765448228386369 0.03658822490627011 -0.12337266449641734  1 25.747808112817019 0.052565305349896743 -0.1510457795813939  1 25.730020122797509 0.068676319268993674 -0.17895087425071929  1 25.712084258327824 0.084921266663560924 -0.20708794850439355  1 
31.242532257665307 -1.0839474439135317 1.6774520455926538  0.70710678118654768 31.204873500400968 -1.0843421811159306 1.6781357504828462  0.70710678118654779 31.167705673028355 -1.0847317724158587 1.6788105424085087  0.70710678118654791 31.131028775547481 -1.0851162178133165 1.6794764213696414  0.70710678118654791 31.094842807958344 -1.0854955173083036 1.6801333873662445  0.70710678118654791 31.059147770260935 -1.0858696709008204 1.6807814403983179  0.70710678118654791 31.02394366245526 -1.0862386785908675 1.6814205804658631  0.70710678118654779 30.848221602254892 -1.0880805884010152 1.6846108618399986  0.70710678118654668 30.707221030401506 -1.0895585048563237 1.6871706882299351  0.70710678118654546 30.565853824162559 -1.0907408893455928 1.6892186382394305  0.70710678118655701 30.423746458589427 -1.0913322349193599 1.6902428788180262  0.70710678118653658 30.280526828603406 -1.0910369280774519 1.6897313923640187  0.70710678118655379 30.135824248995682 -1.0895592487690213 1.6871719767245237  0.70710678118654657 29.349343391192459 -1.0736966373275432 1.6596971277671599  0.70710678118654957 28.674222649368591 -1.0326077768069506 1.5885291337203831  0.70710678118654358 27.998590381749914 -0.95796816894870285 1.45924954065288  0.70710678118655212 27.357123566161444 -0.84440843682108391 1.2625583149139323  0.70710678118654491 26.78450260976803 -0.68655846395131115 0.98915414193011719  0.70710678118654824 26.315410112072239 -0.47904763690321789 0.62973484636218124  0.70710678118654735 25.961796197793838 -0.19846791521988383 0.14375651283311136  0.70710678118654813 25.939715250279413 -0.18017004317185531 0.11206366877553151  0.70710678118654791 25.918156243875284 -0.16166435487493488 0.080010876416232696  0.70710678118654513 25.896988694421523 -0.14300280538815341 0.047688124557166207  0.70710678118655212 25.876082117758045 -0.12423734977046644 0.015185402000153371  0.70710678118654358 25.855306029724904 -0.10541994308090433 -0.017407302452854427  0.70710678118654891 25.817481328393367 -0.071161193836696682 -0.076745196747584246  0.70710678118654635 25.800284836174487 -0.055585913819481844 -0.10372237307951271  0.70710678118654557 25.782940469505441 -0.039876700326799554 -0.13093152899578506  0.70710678118654524 25.765448228386244 -0.024033553358649914 -0.15837266449640125  0.70710678118654535 25.747808112816873 -0.0080564729150328085 -0.18604577958136118  0.7071067811865458 25.730020122797338 0.0080545410040516185 -0.21395087425066492  0.70710678118654646 25.712084258327636 0.024299488398603394 -0.24208794850431239  0.70710678118654768 
31.241063534600478 -1.0489551488062672 1.6168436125934276  1 31.203405427944844 -1.0493498791969504 1.6175273056853827  1 31.166238034311498 -1.0497394659582755 1.6182020897499538  1 31.129561353700414 -1.050123909090241 1.6188679647871387  1 31.093375386111592 -1.0505032085928474 1.6195249307969388  1 31.057680131545034 -1.0508773644660949 1.6201729877793536  1 31.022475590000745 -1.0512463767099833 1.6208121357343837  1 30.846750236348154 -1.0530883210789455 1.6240024769661419  1 30.705953658080613 -1.0545636857052332 1.6265578834585619  1 30.565006492224583 -1.055741647359479 1.6285981728930814  1 30.423534509077644 -1.0563288372514619 1.6296152156196912  1 30.281154783691338 -1.0560332096448459 1.6291031735849084  1 30.137475695863269 -1.054564041856864 1.6265585003312817  1 29.357305953170712 -1.0388289954134091 1.5993046004317613  1 28.687576003996817 -0.99808398526307629 1.5287321726964767  1 28.018695704834268 -0.9239900086422177 1.4003976406543268  1 27.384255930430882 -0.81181967760962881 1.2061129282040643  1 26.822363068481302 -0.65553882156931187 0.93542654529187697  1 26.365581696601897 -0.45320664833144292 0.58497694123806043  1 26.021640475802744 -0.18030185553160713 0.11229197447968681  1 26.000061052901209 -0.16241763113271143 0.081315589166838675  1 25.978889922732492 -0.14424483836429189 0.049839388776511472  1 25.95800327286663 -0.12583444358438722 0.017951649630320428  1 25.937277290877354 -0.10723741315107335 -0.01425935195008711  1 25.916588164335209 -0.088504713422390358 -0.046705339643096387  1 25.878763463077043 -0.0542459642445869 -0.10604323382281121  1 25.861566970880233 -0.038670684247323471 -0.13302041012018301  1 25.844222604222228 -0.022961470764613842 -0.16022956601918242  1 25.826730363103046 -0.0071183237964579926 -0.18767070151980952  1 25.809090247522683 0.0088587566571441401 -0.21534381662206425  1 25.791302257481139 0.024969770596192514 -0.2432489113259467  1 25.773366392978406 0.041214718020687102 -0.27138598563145683  1 

0 3
5.8317358409767772 3

-0.2533546822592998 8
2.7459260725368558e-06 6
1.0291694749406111 6
5.5229877444206679 6
5.8317385869028495 6
6.0850960150882223 8

2 29.773908167897165 0.0084807621135332863 0.045310889132455179 0.50000000000000033 -0.43301270189221908 0.75 0.86602540378443849 0.25000000000000006 -0.43301270189221969 0 0.86602540378443882 0.49999999999999978 0.070000000000000007
2 29.773908167897165 -0.043480762113533064 0.015310889132455183 0.50000000000000033 -0.43301270189221908 0.75 0.86602540378443849 0.25000000000000006 -0.43301270189221969 0 -0.86602540378443882 -0.49999999999999978 0.070000000000000007
9 0 1 0 0 2 2 3 5 2 4 30.93002923496153 -0.85576758298427658 1.6969209331991804  1 30.93002923496153 -0.85894762826697313 1.6950849331991802  1 30.93002923496153 -0.94873021392811552 1.6432489331991791  1 30.93002923496153 -1.038512799589258 1.591412933199178  1 30.93002923496153 -1.0416928448719545 1.5895769331991778  1 
30.98927175880188 -0.90707311361432741 1.7857847189597129  0.50865449051635769 30.98927175880188 -0.91025315889702396 1.783948718959713  0.50865449051635769 30.98927175880188 -1.000035744558168 1.7321127189597108  0.50865449051635769 30.98927175880188 -1.0898183302193121 1.6802767189597088  0.50865449051635769 30.98927175880188 -1.0929983755020085 1.6784407189597086  0.50865449051635769 
30.870810514137844 -0.90826055167020325 1.7878414220033245  1 30.870810514137844 -0.91144059695289981 1.7860054220033246  1 30.870810514137847 -1.0012231826140408 1.7341694220033244  1 30.870810514137847 -1.0910057682751815 1.6823334220033241  1 30.870810514137847 -1.0941858135578779 1.680497422003324  1 

0 3
0.20000000000000853 3

-0.0073440000000000892 3
-8.2512020490883159e-17 1
0.20000000000000845 1
0.20734400000000844 3

4 30.869402499532899 -0.94024950159227305 1.6885599085491318 0 -0.86602540378443882 -0.49999999999999978 0.020114494356399875 -0.49989884154616365 0.86585019220277948 0.99979768309232764 0.010057247178199934 -0.017419663096921018 0.070000000000000007
1 25.834529946162075 0.086602540378443893 0.049999999999999982 0 0.86602540378443882 0.49999999999999978 0.93228578094903014 -0.18086128845074681 0.31326094071906385 0.36172257690149373 0.4661428904745149 -0.80738316988887471 
4 30.869402499532896 -0.9922110258193404 1.6585599085491336 0 0.86602540378443882 0.49999999999999978 0.020114494356451181 -0.49989884154616315 0.86585019220277859 0.99979768309232664 0.010057247178225587 -0.017419663096965451 0.070000000000000007
1 25.834529946162075 -0.086602540378443893 -0.25 0 0.86602540378443882 0.49999999999999978 0.93228578094903014 -0.18086128845074681 0.31326094071906385 0.36172257690149373 0.4661428904745149 -0.80738316988887471 
1 29.834529946162075 0.086602540378443893 0.049999999999999982 -0.86602540378443849 -0.25000000000000006 0.43301270189221969 0.50000000000000033 -0.43301270189221908 0.75 0 0.86602540378443882 0.49999999999999978 
Triangulations 0

TShapes 66
Ve
1.14274202079584e-05
25.8345299461621 0.0259807621135331 0.0150000000000001
0 0

0101101
*
Ve
1.14274202071085e-05
25.8345299461621 -0.0259807621135332 -0.0149999999999999
0 0

0101101
*
Ed
 1e-07 1 1 0
1  1 0 0.07 0.13
2  1 2 0 0.07 0.13
0

0101000
+66 0 -65 0 *
Ve
7.88646240763358e-05
25.914501964918 0.0866025403784439 0.05
0 0

0101101
*
Ed
 7.82874474337607e-06 1 1 0
1  2 0 0 1
2  2 3 0 0 1
0

0101000
+66 0 -63 0 *
Ve
7.88646240305949e-05
25.914501964918 -0.0866025403784439 -0.05
0 0

0101101
*
Ed
 7.82874474278383e-06 1 1 0
1  3 0 0 1
2  3 4 0 0 1
0

0101000
+65 0 -61 0 *
Ve
1e-07
29.7537009084755 0.0866025403784441 0.0499999999999997
0 0

0101101
*
Ed
 1e-07 1 1 0
1  4 0 0.0799737582885561 3.91917096231345
0

0101000
+63 0 -59 0 *
Ve
1e-07
29.7537009084755 -0.0866025403784437 -0.0500000000000003
0 0

0101101
*
Ed
 1e-07 1 1 0
1  5 0 0.0799737582885358 3.91917096231345
0

0101000
+61 2 -57 2 *
Ve
1e-07
29.8345299461621 0.0259807621135333 0.0149999999999998
0 0

0101101
*
Ed
 1e-07 1 1 0
1  6 0 0 1.5707963267949
2  4 5 0 0 1.5707963267949
0

0101000
+55 0 -59 0 *
Ve
1e-07
29.8345299461621 -0.0259807621135331 -0.0150000000000002
0 0

0101101
*
Ed
 1e-07 1 1 0
1  7 0 0 1.5707963267949
2  5 6 0 0 1.5707963267949
0

0101000
+53 0 -57 0 *
Ed
 1e-07 1 1 0
1  8 0 0.07 0.13
0

0101000
+55 0 -53 0 *
Wi

0101100
+64 0 -62 0 +60 0 -58 0 +56 1 +54 0 -52 0 -51 0 *
Fa
0  1e-07 1 0

0111000
+50 0 *
Ve
1.14274202079584e-05
30.8708105141378 -0.975242420500504 1.74916942200333
0 0

0101101
*
Ed
 7.82874474337607e-06 1 1 0
1  9 0 0.123453111457041 5.83173858690285
2  6 2 0 0.123453111457041 5.83173858690285
2  7 3 0 0.123453111457041 5.83173858690285
4 G1 2 0 3 0
0

0101000
+48 0 -66 0 *
Ve
1.14274202071085e-05
30.8708105141379 -1.02720394472757 1.71916942200333
0 0

0101101
*
Ed
 7.82874474278383e-06 1 1 0
1  10 0 0.123453111457041 5.83173858690285
2  8 2 0 0.123453111457041 5.83173858690285
2  9 4 0 0.123453111457041 5.83173858690285
4 G1 2 0 4 0
0

0101000
+46 0 -65 0 *
Ed
 1e-07 1 1 0
1  11 0 0.0699999999999994 0.130000000000001
2  10 2 0 0.0699999999999994 0.130000000000001
2  11 7 0 0.0699999999999994 0.130000000000001
4 G1 2 0 7 0
0

0101000
+48 0 -46 0 *
Wi

0101100
-64 0 -47 0 +45 0 +44 0 *
Fa
0  1e-07 2 0

0111000
+43 0 *
Ve
7.88646240763358e-05
30.8694024961019 -0.879627638057039 1.7235597608566
0 0

0101101
*
Ed
 7.30092154443204e-06 1 1 0
1  12 0 4.71238898038469 6.28318530717959
2  12 3 0 4.71238898038469 6.28318530717959
2  13 8 0 4.71238898038469 6.28318530717959
4 G1 3 0 8 0
0

0101000
+41 0 -48 0 *
Ed
 7.82874474337607e-06 1 1 0
1  13 0 0.123448038056634 5.79201201063189
2  14 3 0 0.123448038056634 5.79201201063189
4 G1 3 0 9 0
0

0101000
+41 0 -63 0 *
Wi

0101100
-40 0 +39 0 -47 0 -62 0 *
Fa
0  7.82874474337607e-06 3 0

0111000
+38 0 *
Ve
7.88646240305949e-05
30.8694024961019 -1.05283271881393 1.6235597608566
0 0

0101101
*
Ed
 7.30092150755197e-06 1 1 0
1  14 0 4.71238898038469 6.28318530717959
2  15 4 0 4.71238898038469 6.28318530717959
2  16 10 0 4.71238898038469 6.28318530717959
4 G1 4 0 10 0
0

0101000
+36 0 -46 0 *
Ed
 7.82874474278383e-06 1 1 0
1  15 0 0.123448038056631 5.79201201063189
2  17 4 0 0.123448038056631 5.79201201063189
4 G1 4 0 11 1
0

0101000
+36 0 -61 0 *
Wi

0101100
-35 0 +34 0 -45 0 -60 0 *
Fa
0  7.82874474278383e-06 4 0

0111000
+33 0 *
Ed
 1e-07 1 1 0
1  16 0 -0.0404145188432736 2.19099838306263
2  18 5 0 -0.0404145188432736 2.19099838306263
4 G1 9 0 5 0
0

0101000
+59 0 -41 0 *
Wi

0101100
-58 0 -39 0 -31 0 *
Fa
0  1e-07 9 0

0111000
+30 0 *
Ed
 1e-07 1 1 0
1  17 0 -0.0404145188432736 2.19099838306263
2  19 6 0 -0.0404145188432736 2.19099838306263
4 G1 11 1 6 0
0

0101000
+57 0 -36 0 *
Wi

0101100
-56 1 -34 0 -28 0 *
Fa
0  1e-07 11 0

0111000
+27 2 *
Ve
9.73456203096195e-06
30.9300292349615 -0.922749451814579 1.65824893319918
0 0

0101101
*
Ed
 1e-07 1 1 0
1  18 0 1.98305527033305e-16 2.19099857759891
2  20 5 0 1.98305527033305e-16 2.19099857759891
4 G1 5 0 12 0
0

0101000
+55 0 -25 0 *
Ed
 7.30092152322147e-06 1 1 0
1  19 0 4.71238898038469 6.28318530717959
2  21 5 0 4.71238898038469 6.28318530717959
2  22 8 0 4.71238898038469 6.28318530717959
4 G1 5 0 8 0
0

0101000
+41 0 -25 0 *
Wi

0101100
+54 0 -24 0 +31 0 +23 0 *
Fa
0  1e-07 5 0

0111000
+22 0 *
Ve
9.73456203847233e-06
30.9300292349615 -0.974710976041645 1.62824893319918
0 0

0101101
*
Ed
 1e-07 1 1 0
1  20 0 1.98305527033305e-16 2.19099857759891
2  23 6 0 1.98305527033305e-16 2.19099857759891
4 G1 6 0 12 0
0

0101000
+53 0 -20 0 *
Ed
 7.30092152885425e-06 1 1 0
1  21 0 4.71238898038469 6.28318530717959
2  24 6 0 4.71238898038469 6.28318530717959
2  25 10 0 4.71238898038469 6.28318530717959
4 G1 6 0 10 0
0

0101000
+36 0 -20 0 *
Wi

0101100
+52 0 -19 0 +28 0 +18 0 *
Fa
0  1e-07 6 0

0111000
+17 0 *
Ed
 1e-07 1 1 0
1  22 0 0.0699999999999996 0.130000000000001
2  26 7 0 0.0699999999999996 0.130000000000001
4 G1 12 0 7 0
0

0101000
+25 0 -20 0 *
Wi

0101100
+51 0 -24 0 +19 0 -15 0 *
Fa
0  1e-07 12 0

0111000
+14 0 *
Ed
 7.43343763028143e-06 1 1 0
1  23 0 0 2.07424507691268
2  27 7 0 0 2.07424507691268
2  28 8 0 0 2.07424507691268
4 G1 7 0 8 0
0

0101000
+48 0 -25 0 *
Ed
 7.43343763021474e-06 1 1 0
1  24 0 0 2.07424507691256
2  29 7 0 0 2.07424507691256
2  30 10 0 0 2.07424507691256
4 G1 7 0 10 0
0

0101000
+46 0 -20 0 *
Wi

0101100
-15 0 -12 0 +11 0 +44 0 *
Fa
0  1e-07 7 0

0111000
+10 0 *
Ed
 1e-07 1 1 1
2  31 8 0 0 2.07424507691268
0

0101000
+41 0 -41 0 *
Wi

0101100
-40 0 +8 0 +23 0 -12 0 *
Fa
0  1e-07 8 0

0111000
+7 0 *
Ed
 1e-07 1 1 1
2  32 10 0 0 2.07424507691256
0

0101000
+36 0 -36 0 *
Wi

0101100
-35 0 +5 0 +18 0 -11 0 *
Fa
0  1e-07 10 0

0111000
+4 0 *
Sh

0101100
-49 0 -42 0 +37 0 -32 0 +29 0 -26 1 +21 0 -16 0 -13 0 +9 0 
-6 0 +3 0 *
So

1100000
+2 0 *

+1 0 