DBRep_DrawableShape

CASCADE Topology V1, (c) Matra-Datavision
Locations 0
Curve2ds 40
1 5 0 0 -1 
1 0 0 0 1 
1 0 0 1 0 
1 0 0 1 0 
1 0 -10 0 1 
1 0 10 0 -1 
1 0 -10 1 0 
1 0 0 1 0 
1 5 0 0 -1 
1 0 0 0 1 
8 -7.5 2.5
1 2.5 5 -1 0 
8 -7.5 2.5
1 2.5 5 -1 0 
8 -2.5 7.5
1 5 2.5 0 1 
8 -2.5 7.5
1 5 2.5 0 1 
1 0 0 1 0 
1 5 0 0 1 
1 10 0 -1 0 
1 0 10 0 -1 
1 10 10 0 -1 
1 0 -10 0 1 
1 0 10 1 0 
1 0 0 0 1 
1 5 0 0 1 
1 0 0 1 0 
1 0 10 1 0 
1 0 0 1 0 
1 0 10 1 0 
1 5 0 0 1 
8 -2.5 7.5
1 5 2.5 0 1 
8 -2.5 7.5
1 5 2.5 0 1 
8 -7.5 2.5
1 2.5 5 -1 0 
8 -7.5 2.5
1 2.5 5 -1 0 
1 10 0 0 1 
1 5 0 0 -1 
1 5 0 0 1 
1 0 10 1 0 
1 0 10 1 0 
1 0 -10 1 0 
1 10 0 0 1 
1 5 0 0 -1 
Curves 20
1 0 0 5 -0 1 0 
1 0 0 0 0 0 1 
8 0 10
1 0 10 0 0 -1 0 
1 0 10 0 0 0 1 
1 0 0 5 -0 1 0 
1 2.5 5 5 -1 0 0 
1 5 2.5 5 0 1 0 
1 0 0 5 1 0 -0 
8 0 10
1 10 0 0 -1 0 0 
8 0 10
1 10 10 0 0 -1 0 
8 0 10
1 0 10 0 1 0 0 
1 0 0 5 1 0 -0 
1 10 0 0 0 0 1 
1 0 10 5 1 0 -0 
1 5 2.5 5 0 1 0 
1 2.5 5 5 -1 0 0 
1 10 0 5 -0 1 0 
1 0 10 5 1 0 -0 
1 10 10 0 0 0 1 
1 10 0 5 -0 1 0 
Polygon3D 0
PolygonOnTriangulations 0
Surfaces 9
1 0 0 0 1 0 -0 0 0 1 0 -1 0 
1 0 0 5 0 0 1 1 0 -0 -0 1 0 
1 0 0 0 -0 1 0 0 0 1 1 0 -0 
1 0 0 0 0 0 1 1 0 -0 -0 1 0 
1 0 10 0 -0 1 0 0 0 1 1 0 -0 
1 0 0 5 0 0 1 1 0 -0 -0 1 0 
1 0 0 5 0 0 1 1 0 -0 -0 1 0 
1 10 0 0 1 0 -0 0 0 1 0 -1 0 
1 0 0 5 0 0 1 1 0 -0 -0 1 0 
Triangulations 0

TShapes 53
Ve
1e-07
0 0 5
0 0

0101101
*
Ve
1e-07
0 5 5
0 0

0101101
*
Ed
 1e-07 1 1 0
1  1 0 0 5
2  1 1 0 0 5
2  2 2 0 0 5
0

0101000
+53 0 -52 0 *
Ve
1e-07
0 0 0
0 0

0101101
*
Ed
 1e-07 1 1 0
1  2 0 0 5
2  3 1 0 0 5
2  4 3 0 0 5
0

0101000
-53 0 +50 0 *
Ve
1e-07
0 10 0
0 0

0101101
*
Ed
 1e-07 1 1 0
1  3 0 0 10
2  5 1 0 0 10
2  6 4 0 0 10
0

0101000
+48 0 -50 0 *
Ve
1e-07
0 10 5
0 0

0101101
*
Ed
 1e-07 1 1 0
1  4 0 0 5
2  7 1 0 0 5
2  8 5 0 0 5
0

0101000
-46 0 +48 0 *
Ed
 1e-07 1 1 0
1  5 0 5 10
2  9 1 0 5 10
2  10 6 0 5 10
0

0101000
+52 0 -46 0 *
Wi

0101100
-51 0 -49 0 -47 0 +45 0 -44 0 *
Fa
0  1e-07 1 0

0111000
+43 0 *
Ve
1e-07
5 5 5
0 0

0101101
*
Ed
 1e-07 1 1 0
1  6 0 -2.5 2.5
2  11 2 0 -2.5 2.5
2  12 6 0 -2.5 2.5
0

0101000
+41 0 -52 0 *
Ve
1e-07
5 0 5
0 0

0101101
*
Ed
 1e-07 1 1 0
1  7 0 -2.5 2.5
2  13 2 0 -2.5 2.5
2  14 7 0 -2.5 2.5
0

0101000
+39 0 -41 0 *
Ed
 1e-07 1 1 0
1  8 0 0 5
2  15 2 0 0 5
2  16 3 0 0 5
0

0101000
+53 0 -39 0 *
Wi

0101100
-51 0 +40 0 +38 0 +37 0 *
Fa
0  1e-07 2 0

0111000
+36 0 *
Ve
1e-07
10 0 0
0 0

0101101
*
Ed
 1e-07 1 1 0
1  9 0 0 10
2  17 4 0 0 10
2  18 3 0 0 10
0

0101000
+34 0 -50 0 *
Ve
1e-07
10 10 0
0 0

0101101
*
Ed
 1e-07 1 1 0
1  10 0 0 10
2  19 4 0 0 10
2  20 8 0 0 10
0

0101000
+32 0 -34 0 *
Ed
 1e-07 1 1 0
1  11 0 0 10
2  21 4 0 0 10
2  22 5 0 0 10
0

0101000
+48 0 -32 0 *
Wi

0101100
-33 0 -31 0 -30 0 +47 0 *
Fa
0  1e-07 4 0

0111000
+29 0 *
Ve
1e-07
10 0 5
0 0

0101101
*
Ed
 1e-07 1 1 0
1  12 0 5 10
2  23 3 0 5 10
2  24 7 0 5 10
0

0101000
+39 0 -27 0 *
Ed
 1e-07 1 1 0
1  13 0 0 5
2  25 3 0 0 5
2  26 8 0 0 5
0

0101000
-27 0 +34 0 *
Wi

0101100
+49 0 +37 0 +26 0 -25 0 +33 0 *
Fa
0  1e-07 3 0

0111000
+24 0 *
Ve
1e-07
5 10 5
0 0

0101101
*
Ed
 1e-07 1 1 0
1  14 0 0 5
2  27 6 0 0 5
2  28 5 0 0 5
0

0101000
+46 0 -22 0 *
Ed
 1e-07 1 1 0
1  15 0 2.5 7.5
2  29 6 0 2.5 7.5
2  30 9 0 2.5 7.5
0

0101000
+41 0 -22 0 *
Wi

0101100
-44 0 -21 0 +20 0 -40 0 *
Fa
0  1e-07 6 0

0111000
+19 0 *
Ve
1e-07
10 5 5
0 0

0101101
*
Ed
 1e-07 1 1 0
1  16 0 -7.5 -2.5
2  31 7 0 -7.5 -2.5
2  32 9 0 -7.5 -2.5
0

0101000
+17 0 -41 0 *
Ed
 1e-07 1 1 0
1  17 0 0 5
2  33 7 0 0 5
2  34 8 0 0 5
0

0101000
+27 0 -17 0 *
Wi

0101100
-38 0 +16 0 +15 0 +26 0 *
Fa
0  1e-07 7 0

0111000
+14 0 *
Ve
1e-07
10 10 5
0 0

0101101
*
Ed
 1e-07 1 1 0
1  18 0 5 10
2  35 5 0 5 10
2  36 9 0 5 10
0

0101000
+22 0 -12 0 *
Ed
 1e-07 1 1 0
1  19 0 0 5
2  37 5 0 0 5
2  38 8 0 0 5
0

0101000
-12 0 +32 0 *
Wi

0101100
-30 0 +45 0 +21 0 +11 0 -10 0 *
Fa
0  1e-07 5 0

0111000
+9 0 *
Ed
 1e-07 1 1 0
1  20 0 5 10
2  39 9 0 5 10
2  40 8 0 5 10
0

0101000
+17 0 -12 0 *
Wi

0101100
-20 0 -11 0 +7 0 -16 0 *
Fa
0  1e-07 9 0

0111000
+6 0 *
Wi

0101100
-15 0 -25 0 -31 0 +10 0 -7 0 *
Fa
0  1e-07 8 0

0111000
+4 0 *
Sh

0101100
-42 0 +35 0 -28 0 -23 0 +18 0 +13 0 +8 0 +5 0 +3 0 *
So

1100000
+2 0 *

+1 0 
0

