DBRep_DrawableShape

CASCADE Topology V1, (c) Matra-Datavision
Locations 0
Curve2ds 7
7 0 0  3 23 21  4.0371759674719998 -0.99572779551725699  4.0210200886439997 -0.99572045363942718  3.988905526021 -0.99570555649011361  3.9412195431270001 -0.99568273487486503  3.8939060583259999 -0.9956596169619345  3.8468784447800002 -0.99563632877924668  3.7999401098329999 -0.99561299114914759  3.753067734364 -0.99558982347909286  3.7064617966840001 -0.99556705054970163  3.660252824744 -0.99554499801758789  3.6145590503679998 -0.99552402704461107  3.569100445094 -0.99550412365339136  3.5237645087399998 -0.99548552870373197  3.4784046546690002 -0.99546837565199686  3.4328454443980001 -0.99545277882165462  3.387270217088 -0.99543910958957094  3.3417975508779998 -0.9954274128861591  3.2965244218700001 -0.99541786181412917  3.251623883663 -0.99541074260507334  3.2065308166270001 -0.99540601462750489  3.169829173727539 -0.99540412301489245  3.1481651133390374 -0.99540384528887138  3.1415926533254801 -0.99540383975990165 
 0 4 0.00014663562643381332 1 0.00029327125286772665 1 0.00043990687930154 1 0.00058654250573545331 1 0.00073317813216926654 1 0.00087981375860307989 1 0.0010264493850367933 1 0.0011730850114709066 1 0.00131972063790502 1 0.0014663562643381335 1 0.0016129918907722468 1 0.0017596275172063601 1 0.0019062631436404735 1 0.002052898770073587 1 0.0021995343965077003 1 0.0023461700229418137 1 0.002492805649375927 1 0.0026394412758090403 1 0.0027860769022431536 1 0.0028498837633239736 4
7 0 0  3 69 67  3.141592653196382 -0.99540384138082239  3.1264758579223662 -0.99540381880880158  3.0962032707720573 -0.9954046435192746  3.0507981435751703 -0.99540839204345122  3.0056749751958409 -0.99541452114193241  2.9605608540855695 -0.99542301465735761  2.9153238731591866 -0.99543376670935368  2.8697862848095608 -0.99544667111188068  2.8240978621586734 -0.99546161054665461  2.7783099509376949 -0.99547827298851876  2.7324962424737698 -0.99549644471296739  2.686774512013796 -0.99551597114800139  2.6406440512488096 -0.99553682022208667  2.5942548364902591 -0.9955586257740362  2.5476669723506666 -0.9955811335418614  2.5009998825865192 -0.99560414730047331  2.454273284937313 -0.99562736008674568  2.4073417426741326 -0.99565067690681019  2.3601062283715311 -0.9956739427635436  2.3124087204401573 -0.99569697367488685  2.2643523322531296 -0.99571955376852916  2.216036311184995 -0.99574142150736966  2.1675078160989112 -0.99576237120979971  2.1189415196761119 -0.9957821960106874  2.0700725544926173 -0.9958008938151548  2.020833383778299 -0.99581831226342343  1.9712898323070112 -0.99583427691664206  1.9214830607984454 -0.99584864501057835  1.8714688275096814 -0.99586129344298924  1.8213098035854591 -0.99587212363209421  1.7710571062209179 -0.99588106243198693  1.7208208515646459 -0.9958880594421754  1.6704946571708938 -0.99589309996365816  1.6198975279770476 -0.99589612813353179  1.5691648978424018 -0.99589709688428751  1.5183110287071127 -0.9958959906750956  1.46752167708632 -0.99589280188483031  1.4171130540977881 -0.99588759649577263  1.3669337757950943 -0.99588045397133951  1.3169590048625932 -0.99587141944798263  1.2670877229838149 -0.99586051054335423  1.2171637367693626 -0.99584777930341417  1.1673377241689942 -0.99583330922719704  1.1176847561483023 -0.99581722397190264  1.0682951078781551 -0.99579968440987554  1.0194690220713578 -0.9957809147658917  0.9710613305361272 -0.99576106388017893  0.92299543025572006 -0.99574025934919019  0.87519609688688071 -0.99571859047471789  0.82737147952398349 -0.99569613939870216  0.7796776496247505 -0.9956731000607012  0.73221521046717875 -0.99564970671217123  0.6850512341714361 -0.99562626084337447  0.63841637581998634 -0.9956030433672699  0.59218215103870331 -0.99558024331778561  0.54620839215743078 -0.99555803211965532  0.50042903330395871 -0.99553652054085173  0.45444376950693949 -0.99551586935467906  0.40839234187858037 -0.99549626268502744  0.36245930050080655 -0.99547793998764944  0.31681327861036185 -0.99546130393640198  0.27154681250875051 -0.99544656875040904  0.2264754839661921 -0.99543378251908909  0.18145254848797454 -0.9954231183048734  0.13630913013429954 -0.99541461275946075  0.090909786709815019 -0.99540846705394093  0.045421006877448065 -0.99540477159216167  0.015120663590948161 -0.99540390960993419  0 -0.99540387765335059 
 0.0028498837633239727 4 0.0029965896711278651 1 0.0031432955789317575 1 0.0032900014867356499 1 0.0034367073945395423 1 0.0035834133023434347 1 0.0037301192101473275 1 0.0038768251179512199 1 0.0040235310257551119 1 0.0041702369335590052 1 0.0043169428413628967 1 0.00446364874916679 1 0.0046103546569706824 1 0.0047570605647745748 1 0.0049037664725784672 1 0.0050504723803823596 1 0.005197178288186252 1 0.0053438841959901444 1 0.0054905901037940368 1 0.0056372960115979292 1 0.0057840019194018216 1 0.005930707827205714 1 0.0060774137350096073 1 0.0062241196428134988 1 0.0063708255506173921 1 0.0065175314584212836 1 0.0066642373662251769 1 0.0068109432740290693 1 0.0069576491818329617 1 0.0071043550896368541 1 0.0072510609974407465 1 0.0073977669052446389 1 0.0075444728130485313 1 0.0076911787208524237 1 0.0078378846286563161 1 0.0079845905364602093 1 0.0081312964442641009 1 0.0082780023520679924 1 0.0084247082598718857 1 0.0085714141676757789 1 0.0087181200754796705 1 0.0088648259832835637 1 0.009011531891087457 1 0.0091582377988913485 1 0.0093049437066952401 1 0.0094516496144991333 1 0.0095983555223030266 1 0.0097450614301069181 1 0.0098917673379108097 1 0.010038473245714703 1 0.010185179153518596 1 0.010331885061322488 1 0.010478590969126379 1 0.010625296876930273 1 0.010772002784734166 1 0.010918708692538057 1 0.011065414600341951 1 0.011212120508145842 1 0.011358826415949735 1 0.011505532323753627 1 0.01165223823155752 1 0.011798944139361412 1 0.011945650047165305 1 0.012092355954969197 1 0.01223906186277309 1 0.012385767770576983 1 0.012532473678380875 4
7 0 0  1 2 2  6.2831853071800001 -0.99652315595689511  6.2831853071800001 -0.99540387599298086 
 -996.52315595690004 2 -995.4038759929 2
7 0 0  1 2 2  0 -0.99652315595689511  0 -0.99540387599298086 
 -996.52315595690004 2 -995.4038759929 2
1 0 -0.99652315595639174 1 0 
1 0 -0.99652315595639174 1 0 
7 0 0  3 47 45  6.2831853071795862 -0.99540387765335059  6.267198087914287 -0.99540382624692558  6.2353412926916167 -0.99540472324355622  6.1876614301520609 -0.99540892733924424  6.139654343501566 -0.99541587008992249  6.0915348200508914 -0.99542535846301949  6.043313534738652 -0.99543735648773779  5.9952126251094651 -0.99545166017740483  5.9471649690897079 -0.99546801370863758  5.8989754711336095 -0.99548632053636799  5.8503928019599094 -0.99550638680770986  5.8015522541294624 -0.99552793025921604  5.7526147254141922 -0.99555061378795862  5.7035170693168107 -0.9955741712795585  5.654391978915589 -0.99559828755176483  5.6048340120803282 -0.99562295721839122  5.5548398804061074 -0.99564783450394112  5.5045485403818919 -0.99567257320484692  5.4541066336336259 -0.99569693649556179  5.4035574411210945 -0.99572062882380852  5.3527541821987601 -0.99574354194859838  5.3015973054893069 -0.99576552780403293  5.2499524152731452 -0.99578638750983939  5.1978252089694816 -0.99580597042516028  5.1453929780524366 -0.99582398591490706  5.0927987163963859 -0.99584023593619564  5.0402721725321342 -0.99585459408682364  4.9875633207429066 -0.99586699283155855  4.9346015813140074 -0.99587738904470069  4.8813179034059795 -0.99588570098713436  4.8276165176777948 -0.99589180557461943  4.773903696105644 -0.99589562364159967  4.7202386679485011 -0.99589711775147249  4.6667413630077483 -0.99589629394303514  4.6135127415552351 -0.99589319611782745  4.5603158795472583 -0.99588783175497542  4.5071286737561769 -0.99588026668676466  4.4538330842900065 -0.99587051867698129  4.4005117228521469 -0.99585856771195247  4.3477242662602018 -0.99584462292570874  4.2952926770879065 -0.9958288638709949  4.2432083072245588 -0.99581145578472774  4.1914096685604818 -0.99579254545747053  4.1398434728340021 -0.99577226044608902  4.088449918708041 -0.99575071065871867  4.0542616990689542 -0.99573555538631842  4.037175967471585 -0.99572779551777202 
 0.012532473678380875 4 0.012687552826043128 1 0.01284263197370538 1 0.012997711121367633 1 0.013152790269029886 1 0.013307869416692139 1 0.013462948564354392 1 0.013618027712016645 1 0.013773106859678898 1 0.013928186007341151 1 0.014083265155003404 1 0.014238344302665656 1 0.014393423450327909 1 0.014548502597990162 1 0.014703581745652413 1 0.014858660893314666 1 0.015013740040976919 1 0.015168819188639172 1 0.015323898336301425 1 0.015478977483963678 1 0.015634056631625932 1 0.015789135779288185 1 0.015944214926950438 1 0.016099294074612691 1 0.016254373222274944 1 0.016409452369937193 1 0.01656453151759945 1 0.016719610665261699 1 0.016874689812923952 1 0.017029768960586205 1 0.017184848108248458 1 0.017339927255910711 1 0.017495006403572964 1 0.017650085551235217 1 0.017805164698897469 1 0.017960243846559722 1 0.018115322994221975 1 0.018270402141884228 1 0.018425481289546481 1 0.018580560437208734 1 0.018735639584870987 1 0.01889071873253324 1 0.019045797880195493 1 0.019200877027857745 1 0.019355956175519998 4
Curves 6
7 0 1  3 60 31  0.030952791781775003 -0.0025762943663890001 0.011978091485821001  0.030441217690811002 -0.0022489115794250003 0.012042311397077001  0.030282967060262001 -0.0021256830665540003 0.012064970139370001  0.029991644018715999 -0.0018498668458320001 0.012110327229931  0.029857891718480002 -0.001695751353095 0.012133183019276  0.029628795946977999 -0.0013684758913179999 0.012174439476447  0.029531872559298001 -0.0011942668514720001 0.012193072009884001  0.029376463866773003 -0.00082255364518200001 0.012223775351811  0.029319222311356998 -0.00062598067518400001 0.012235594106147999  0.029252588691338 -0.00023067261867000001 0.012249424683596001  0.029242142006264998 -2.7172660349070001e-05 0.012251643818547001  0.029269836388096 0.00037782713401 0.012245846694567001  0.029307164454157 0.00057544350192699999 0.012238004120662  0.029426787984962999 0.00096136061286300001 0.012213749049873001  0.029509317429212999 0.0011482870491499998 0.012197315788441999  0.029709855514932 0.0014959617732440002 0.012159571290273001  0.029830035763162004 0.0016605602440420001 0.01213787182821  0.030098637372384003 0.0019598456820920001 0.012093154995473001  0.030246544605373002 0.0020947748799440002 0.012070194801037  0.030568142677328002 0.0023371584962720003 0.012025613269015  0.030741064070915002 0.0024435493415880002 0.012004163259034001  0.031278883418264 0.002712063519276 0.011947413410638999  0.031673920168514003 0.0028284196381159997 0.011919099896700001  0.03227220380938 0.0028998502992900002 0.011901847261703001  0.032475199957133001 0.0029070502076029999 0.011900069957388  0.032880446250772001 0.0028870524758520004 0.011904937374969001  0.033079620612499 0.0028602304867570002 0.01191148859171  0.033471248225769995 0.0027736449137719999 0.011931947569449999  0.033665226233936002 0.002713238831071 0.011946004012356  0.03403871198814 0.0025597370354700001 0.011979834019171  0.034216224331000002 0.002467806078611 0.011999350095306999  0.034552742310082998 0.0022530957689130002 0.012041512737504  0.034713326169335999 0.002128795540316 0.01206442256627  0.035005685577927 0.00185278353077 0.012109882555091  0.035136585501489001 0.0017025462736620001 0.012132225106544001  0.035366518114135 0.001376217022611 0.012173560553777999  0.035466549456141007 0.001197312879888 0.012192767056321999  0.035622218485003007 0.00082642009079900007 0.012223508352989  0.035678785832513001 0.00063439175444200007 0.012235183125670001  0.035747008111269997 0.000236351946209 0.012249338625996  0.035757683617348004 3.0741360071199998e-05 0.012251607597598  0.035731045914369 -0.00037088524479000001 0.012246031107747999  0.035693595396108994 -0.00057226829624700004 0.012238161129353  0.035574098323999007 -0.00095921528903200007 0.012213925857815  0.035493205365662001 -0.0011433422264240001 0.012197802661938002  0.035291532156620002 -0.001494116046287 0.012159820659308001  0.035171869944155998 -0.0016580750362089999 0.012138209145725999  0.034904248051645999 -0.0019569860354430001 0.012093615660676999  0.034753785684734001 -0.0020944771800409999 0.01207024566704  0.034432518510768 -0.0023367087898890004 0.012025699861199999  0.034261879470384005 -0.0024419345037860001 0.012004496875164  0.033901335551758997 -0.0026222302396030003 0.011966407059645001  0.033711303598150999 -0.0026968673304310002 0.011949596336176  0.033325901923788995 -0.0028112669489659997 0.011923201085998  0.033128848904873998 -0.0028519585897069997 0.011913414497872999  0.032725912368586005 -0.002900084176484 0.011901790813353999  0.032522333401479996 -0.0029069654015350002 0.011900090627962  0.032120697252146002 -0.0028870718666489997 0.011904932626278002  0.031921160189145002 -0.0028604992166660001 0.011911426476962  0.031326539288830002 -0.0027287440506679997 0.011942554242891999 
 0 2 0.00060487363048510002 2 0.0012097472609699999 2 0.001814620891455 2 0.0024194945219399998 2 0.0030243681524250001 2 0.0036292417829099999 2 0.0042341154133949998 2 0.0048389890438799996 2 0.0054438626743650003 2 0.0060487363048510002 2 0.0072584835658209999 2 0.0078633571963060006 2 0.0084682308267910004 2 0.0090731044572760003 2 0.0096779780877610001 2 0.01028285171825 2 0.010887725348730001 2 0.01149259897922 2 0.0120974726097 2 0.01270234624019 2 0.01330721987067 2 0.013912093501159999 2 0.01451696713164 2 0.015121840762130001 2 0.015726714392609999 2 0.016331588023099999 2 0.016936461653579999 2 0.017541335284069998 2 0.018146208914549999 2 0.019355956175519998 2
7 0 1  3 60 31  0.030952791781775003 -0.0025762943663890001 0.011978091485821001  0.030441217690811002 -0.0022489115794250003 0.012042311397077001  0.030282967060262001 -0.0021256830665540003 0.012064970139370001  0.029991644018715999 -0.0018498668458320001 0.012110327229931  0.029857891718480002 -0.001695751353095 0.012133183019276  0.029628795946977999 -0.0013684758913179999 0.012174439476447  0.029531872559298001 -0.0011942668514720001 0.012193072009884001  0.029376463866773003 -0.00082255364518200001 0.012223775351811  0.029319222311356998 -0.00062598067518400001 0.012235594106147999  0.029252588691338 -0.00023067261867000001 0.012249424683596001  0.029242142006264998 -2.7172660349070001e-05 0.012251643818547001  0.029269836388096 0.00037782713401 0.012245846694567001  0.029307164454157 0.00057544350192699999 0.012238004120662  0.029426787984962999 0.00096136061286300001 0.012213749049873001  0.029509317429212999 0.0011482870491499998 0.012197315788441999  0.029709855514932 0.0014959617732440002 0.012159571290273001  0.029830035763162004 0.0016605602440420001 0.01213787182821  0.030098637372384003 0.0019598456820920001 0.012093154995473001  0.030246544605373002 0.0020947748799440002 0.012070194801037  0.030568142677328002 0.0023371584962720003 0.012025613269015  0.030741064070915002 0.0024435493415880002 0.012004163259034001  0.031278883418264 0.002712063519276 0.011947413410638999  0.031673920168514003 0.0028284196381159997 0.011919099896700001  0.03227220380938 0.0028998502992900002 0.011901847261703001  0.032475199957133001 0.0029070502076029999 0.011900069957388  0.032880446250772001 0.0028870524758520004 0.011904937374969001  0.033079620612499 0.0028602304867570002 0.01191148859171  0.033471248225769995 0.0027736449137719999 0.011931947569449999  0.033665226233936002 0.002713238831071 0.011946004012356  0.03403871198814 0.0025597370354700001 0.011979834019171  0.034216224331000002 0.002467806078611 0.011999350095306999  0.034552742310082998 0.0022530957689130002 0.012041512737504  0.034713326169335999 0.002128795540316 0.01206442256627  0.035005685577927 0.00185278353077 0.012109882555091  0.035136585501489001 0.0017025462736620001 0.012132225106544001  0.035366518114135 0.001376217022611 0.012173560553777999  0.035466549456141007 0.001197312879888 0.012192767056321999  0.035622218485003007 0.00082642009079900007 0.012223508352989  0.035678785832513001 0.00063439175444200007 0.012235183125670001  0.035747008111269997 0.000236351946209 0.012249338625996  0.035757683617348004 3.0741360071199998e-05 0.012251607597598  0.035731045914369 -0.00037088524479000001 0.012246031107747999  0.035693595396108994 -0.00057226829624700004 0.012238161129353  0.035574098323999007 -0.00095921528903200007 0.012213925857815  0.035493205365662001 -0.0011433422264240001 0.012197802661938002  0.035291532156620002 -0.001494116046287 0.012159820659308001  0.035171869944155998 -0.0016580750362089999 0.012138209145725999  0.034904248051645999 -0.0019569860354430001 0.012093615660676999  0.034753785684734001 -0.0020944771800409999 0.01207024566704  0.034432518510768 -0.0023367087898890004 0.012025699861199999  0.034261879470384005 -0.0024419345037860001 0.012004496875164  0.033901335551758997 -0.0026222302396030003 0.011966407059645001  0.033711303598150999 -0.0026968673304310002 0.011949596336176  0.033325901923788995 -0.0028112669489659997 0.011923201085998  0.033128848904873998 -0.0028519585897069997 0.011913414497872999  0.032725912368586005 -0.002900084176484 0.011901790813353999  0.032522333401479996 -0.0029069654015350002 0.011900090627962  0.032120697252146002 -0.0028870718666489997 0.011904932626278002  0.031921160189145002 -0.0028604992166660001 0.011911426476962  0.031326539288830002 -0.0027287440506679997 0.011942554242891999 
 0 2 0.00060487363048510002 2 0.0012097472609699999 2 0.001814620891455 2 0.0024194945219399998 2 0.0030243681524250001 2 0.0036292417829099999 2 0.0042341154133949998 2 0.0048389890438799996 2 0.0054438626743650003 2 0.0060487363048510002 2 0.0072584835658209999 2 0.0078633571963060006 2 0.0084682308267910004 2 0.0090731044572760003 2 0.0096779780877610001 2 0.01028285171825 2 0.010887725348730001 2 0.01149259897922 2 0.0120974726097 2 0.01270234624019 2 0.01330721987067 2 0.013912093501159999 2 0.01451696713164 2 0.015121840762130001 2 0.015726714392609999 2 0.016331588023099999 2 0.016936461653579999 2 0.017541335284069998 2 0.018146208914549999 2 0.019355956175519998 2
7 0 0  1 2 2  0.034958500002036999 -6.0215883114070003e-19 0.011458500000000002  0.035749950454566998 -7.9600828381560003e-19 0.01224995045253 
 -996.52315595690004 2 -995.4038759929 2
2 0.032500000002036997 0 0.011458500000000002 0 0 1 1 0 -0 -0 1 0 0.0024584999999999997
2 0.032500000002036997 0 0.011458500000000002 0 0 1 1 0 -0 -0 1 0 0.0024584999999999997
7 0 1  3 60 31  0.030952791781775003 -0.0025762943663890001 0.011978091485821001  0.030441217690811002 -0.0022489115794250003 0.012042311397077001  0.030282967060262001 -0.0021256830665540003 0.012064970139370001  0.029991644018715999 -0.0018498668458320001 0.012110327229931  0.029857891718480002 -0.001695751353095 0.012133183019276  0.029628795946977999 -0.0013684758913179999 0.012174439476447  0.029531872559298001 -0.0011942668514720001 0.012193072009884001  0.029376463866773003 -0.00082255364518200001 0.012223775351811  0.029319222311356998 -0.00062598067518400001 0.012235594106147999  0.029252588691338 -0.00023067261867000001 0.012249424683596001  0.029242142006264998 -2.7172660349070001e-05 0.012251643818547001  0.029269836388096 0.00037782713401 0.012245846694567001  0.029307164454157 0.00057544350192699999 0.012238004120662  0.029426787984962999 0.00096136061286300001 0.012213749049873001  0.029509317429212999 0.0011482870491499998 0.012197315788441999  0.029709855514932 0.0014959617732440002 0.012159571290273001  0.029830035763162004 0.0016605602440420001 0.01213787182821  0.030098637372384003 0.0019598456820920001 0.012093154995473001  0.030246544605373002 0.0020947748799440002 0.012070194801037  0.030568142677328002 0.0023371584962720003 0.012025613269015  0.030741064070915002 0.0024435493415880002 0.012004163259034001  0.031278883418264 0.002712063519276 0.011947413410638999  0.031673920168514003 0.0028284196381159997 0.011919099896700001  0.03227220380938 0.0028998502992900002 0.011901847261703001  0.032475199957133001 0.0029070502076029999 0.011900069957388  0.032880446250772001 0.0028870524758520004 0.011904937374969001  0.033079620612499 0.0028602304867570002 0.01191148859171  0.033471248225769995 0.0027736449137719999 0.011931947569449999  0.033665226233936002 0.002713238831071 0.011946004012356  0.03403871198814 0.0025597370354700001 0.011979834019171  0.034216224331000002 0.002467806078611 0.011999350095306999  0.034552742310082998 0.0022530957689130002 0.012041512737504  0.034713326169335999 0.002128795540316 0.01206442256627  0.035005685577927 0.00185278353077 0.012109882555091  0.035136585501489001 0.0017025462736620001 0.012132225106544001  0.035366518114135 0.001376217022611 0.012173560553777999  0.035466549456141007 0.001197312879888 0.012192767056321999  0.035622218485003007 0.00082642009079900007 0.012223508352989  0.035678785832513001 0.00063439175444200007 0.012235183125670001  0.035747008111269997 0.000236351946209 0.012249338625996  0.035757683617348004 3.0741360071199998e-05 0.012251607597598  0.035731045914369 -0.00037088524479000001 0.012246031107747999  0.035693595396108994 -0.00057226829624700004 0.012238161129353  0.035574098323999007 -0.00095921528903200007 0.012213925857815  0.035493205365662001 -0.0011433422264240001 0.012197802661938002  0.035291532156620002 -0.001494116046287 0.012159820659308001  0.035171869944155998 -0.0016580750362089999 0.012138209145725999  0.034904248051645999 -0.0019569860354430001 0.012093615660676999  0.034753785684734001 -0.0020944771800409999 0.01207024566704  0.034432518510768 -0.0023367087898890004 0.012025699861199999  0.034261879470384005 -0.0024419345037860001 0.012004496875164  0.033901335551758997 -0.0026222302396030003 0.011966407059645001  0.033711303598150999 -0.0026968673304310002 0.011949596336176  0.033325901923788995 -0.0028112669489659997 0.011923201085998  0.033128848904873998 -0.0028519585897069997 0.011913414497872999  0.032725912368586005 -0.002900084176484 0.011901790813353999  0.032522333401479996 -0.0029069654015350002 0.011900090627962  0.032120697252146002 -0.0028870718666489997 0.011904932626278002  0.031921160189145002 -0.0028604992166660001 0.011911426476962  0.031326539288830002 -0.0027287440506679997 0.011942554242891999 
 0 2 0.00060487363048510002 2 0.0012097472609699999 2 0.001814620891455 2 0.0024194945219399998 2 0.0030243681524250001 2 0.0036292417829099999 2 0.0042341154133949998 2 0.0048389890438799996 2 0.0054438626743650003 2 0.0060487363048510002 2 0.0072584835658209999 2 0.0078633571963060006 2 0.0084682308267910004 2 0.0090731044572760003 2 0.0096779780877610001 2 0.01028285171825 2 0.010887725348730001 2 0.01149259897922 2 0.0120974726097 2 0.01270234624019 2 0.01330721987067 2 0.013912093501159999 2 0.01451696713164 2 0.015121840762130001 2 0.015726714392609999 2 0.016331588023099999 2 0.016936461653579999 2 0.017541335284069998 2 0.018146208914549999 2 0.019355956175519998 2
Polygon3D 0
PolygonOnTriangulations 0
Surfaces 1
3 0.032500000002036997 0 0.71610678118654003 -0 -0 1 1 0 0 -0 1 0 0.70710678118654002
0.78539816339699997
Triangulations 0

TShapes 14
Ve
1.81244224553515e-07
0.030611742387799 -0.00235803917508 0.012020904759992
0 0

0101101
*
Ve
2.47200280364305e-07
0.029250036396118 3.000384657911e-18 0.01225
0 0

0101101
*
Ed
 1e-07 1 1 0
1  1 0 0 0.00284988376332397
2  1 1 0 0 0.00284988376332397
0

0101000
+14 0 -13 0 *
Ve
2.47200280364305e-07
0.035749950454567 7.371378189588e-19 0.01224995045253
0 0

0101101
*
Ed
 2.47200280364305e-07 1 1 0
1  2 0 0.00284988376332397 0.0125324736783809
2  2 1 0 0.00284988376332397 0.0125324736783809
0

0101000
+13 0 -11 0 *
Ve
1e-07
0.034958500002037 0 0.0114585
0 0

0101101
*
Ed
 1e-07 1 1 0
1  3 0 -996.5231559569 -995.4038759929
3  3 4CN 1 0 -996.5231559569 -995.4038759929
0

0101000
+9 0 -11 0 *
Ve
1e-07
0.0300415 0 0.0114585
0 0

0101101
*
Ed
 1e-07 1 1 0
1  4 0 0 3.14159265358979
2  5 1 0 0 3.14159265358979
0

0101000
+9 0 -7 0 *
Ed
 1e-07 1 1 0
1  5 0 3.14159265358979 6.28318530717959
2  6 1 0 3.14159265358979 6.28318530717959
0

0101000
+7 0 -9 0 *
Ed
 1.81244224553515e-07 1 1 0
1  6 0 0.0125324736783809 0.01935595617552
2  7 1 0 0.0125324736783809 0.01935595617552
0

0101000
+11 0 -14 0 *
Wi

0101100
+12 0 +10 0 -8 0 +6 0 +5 0 +8 0 +4 0 *
Fa
0  1e-07 1 0

0111000
+3 0 *
Sh

0101000
-2 0 *

+1 0 
0

