DBRep_DrawableShape

CASCADE Topology V1, (c) Matra-Datavision
Locations 12
1
              1               0               0               0 
              0               1               0               1 
              0               0               1               0 
2  1 -1 0
1
              1               0               0              -1 
              0               1               0               0 
              0               0               1               0 
2  3 -1 0
1
              1               0               0               0 
              0               1               0               6 
              0               0               1               0 
1
              1               0               0               1 
              0               1               0               0 
              0               0               1               0 
2  5 1 6 1 0
2  6 -1 5 -1 0
1
              1               0               0               6 
              0               1               0               0 
              0               0               1               0 
1
              1               0               0               0 
              0               1               0              -1 
              0               0               1               0 
2  9 1 10 1 0
2  10 -1 9 -1 0
Curve2ds 48
1 0 0 1 0 
1 0 0 1 0 
1 5 0 0 -1 
1 0 0 0 1 
1 5 0 0 -1 
1 0 0 0 1 
1 0 -10 1 0 
1 0 0 1 0 
1 0 0 0 -1 
1 0 0 0 1 
1 0 0 1 0 
1 0 10 1 0 
1 5 0 0 -1 
1 10 0 0 1 
1 5 0 0 -1 
1 10 0 0 1 
1 0 -10 1 0 
1 0 10 1 0 
1 0 0 0 -1 
1 10 0 0 1 
1 0 0 0 1 
1 0 0 1 0 
1 5 0 0 1 
1 0 0 1 0 
1 5 0 0 1 
1 0 0 1 0 
1 0 0 0 1 
1 0 10 1 0 
1 5 0 0 1 
1 0 10 1 0 
1 5 0 0 1 
1 0 10 1 0 
1 0 6 1 0 
1 0 6 1 0 
1 4 4 0 1 
1 0 0 0 1 
1 4 0 0 1 
1 4 0 0 1 
1 6 6 0 1 
1 6 6 0 1 
1 4 6 1 0 
1 0 2 1 0 
1 4 4 1 0 
1 0 0 1 0 
1 6 4 1 0 
1 6 4 1 0 
1 6 4 0 1 
1 2 0 0 1 
Curves 24
1 0 0 0 0 0 1 
1 0 0 5 -0 1 0 
1 0 0 5 -0 1 0 
1 0 10 0 0 0 1 
1 0 0 0 -0 1 0 
1 10 0 0 0 0 1 
1 10 0 5 -0 1 0 
1 10 0 5 -0 1 0 
1 10 10 0 0 0 1 
1 10 0 0 -0 1 0 
1 0 0 0 1 0 -0 
1 0 0 5 1 0 -0 
1 0 0 5 1 0 -0 
1 0 10 0 1 0 -0 
1 0 10 5 1 0 -0 
1 0 10 5 1 0 -0 
1 0 5 5 1 0 0 
1 4 4 5 -0 1 0 
1 5 0 5 0 1 0 
1 5 0 5 0 1 0 
1 4 6 5 1 0 -0 
1 4 4 5 1 0 -0 
1 0 5 5 1 0 0 
1 6 4 5 -0 1 0 
Polygon3D 0
PolygonOnTriangulations 0
Surfaces 10
1 0 0 0 1 0 -0 0 0 1 0 -1 0 
1 0 0 0 -0 1 0 0 0 1 1 0 -0 
1 0 0 5 0 0 1 1 0 -0 -0 1 0 
1 0 0 5 0 0 1 1 0 -0 -0 1 0 
1 0 10 0 -0 1 0 0 0 1 1 0 -0 
1 0 0 0 0 0 1 1 0 -0 -0 1 0 
1 10 0 0 1 0 -0 0 0 1 0 -1 0 
1 0 0 5 0 0 1 1 0 -0 -0 1 0 
1 0 0 5 0 0 1 1 0 -0 -0 1 0 
1 4 4 5 0 0 1 1 0 -0 -0 1 0 
Triangulations 0

TShapes 62
Ve
1e-07
0 0 5
0 0

0101101
*
Ve
1e-07
0 0 0
0 0

0101101
*
Ed
 1e-07 1 1 0
1  1 0 0 5
2  1 1 0 0 5
2  2 2 0 0 5
0

0101000
-62 0 +61 0 *
Ve
1e-07
0 6 5
0 0

0101101
*
Ed
 1e-07 1 1 0
1  2 0 0 6
2  3 1 0 0 6
2  4 3 0 0 6
0

0101000
+62 0 -59 0 *
Ve
1e-07
0 10 5
0 0

0101101
*
Ed
 1e-07 1 1 0
1  3 0 6 10
2  5 1 0 6 10
2  6 4 0 6 10
0

0101000
+59 0 -57 0 *
Ve
1e-07
0 10 0
0 0

0101101
*
Ed
 1e-07 1 1 0
1  4 0 0 5
2  7 1 0 0 5
2  8 5 0 0 5
0

0101000
-57 0 +55 0 *
Ed
 1e-07 1 1 0
1  5 0 0 10
2  9 1 0 0 10
2  10 6 0 0 10
0

0101000
-55 0 +61 0 *
Wi

0101100
-60 0 -58 0 -56 0 +54 0 +53 0 *
Fa
0  1e-07 1 0

0111000
+52 0 *
Ve
1e-07
10 0 5
0 0

0101101
*
Ve
1e-07
10 0 0
0 0

0101101
*
Ed
 1e-07 1 1 0
1  6 0 0 5
2  11 7 0 0 5
2  12 2 0 0 5
0

0101000
-50 0 +49 0 *
Ve
1e-07
10 4 5
0 0

0101101
*
Ed
 1e-07 1 1 0
1  7 0 0 4
2  13 7 0 0 4
2  14 8 0 0 4
0

0101000
+50 0 -47 0 *
Ve
1e-07
10 10 5
0 0

0101101
*
Ed
 1e-07 1 1 0
1  8 0 4 10
2  15 7 0 4 10
2  16 9 0 4 10
0

0101000
+47 0 -45 0 *
Ve
1e-07
10 10 0
0 0

0101101
*
Ed
 1e-07 1 1 0
1  9 0 0 5
2  17 7 0 0 5
2  18 5 0 0 5
0

0101000
-45 0 +43 0 *
Ed
 1e-07 1 1 0
1  10 0 0 10
2  19 7 0 0 10
2  20 6 0 0 10
0

0101000
-43 0 +49 0 *
Wi

0101100
-48 0 -46 0 -44 0 +42 0 +41 0 *
Fa
0  1e-07 7 0

0111000
+40 0 *
Ed
 1e-07 1 1 0
1  11 0 0 10
2  21 2 0 0 10
2  22 6 0 0 10
0

0101000
-49 0 +61 0 *
Ve
1e-07
4 0 5
0 0

0101101
*
Ed
 1e-07 1 1 0
1  12 0 0 4
2  23 2 0 0 4
2  24 3 0 0 4
0

0101000
+62 0 -37 0 *
Ed
 1e-07 1 1 0
1  13 0 4 10
2  25 2 0 4 10
2  26 8 0 4 10
0

0101000
+37 0 -50 0 *
Wi

0101100
-38 0 -48 0 +36 0 +35 0 +60 0 *
Fa
0  1e-07 2 0

0111000
+34 0 *
Ed
 1e-07 1 1 0
1  14 0 0 10
2  27 5 0 0 10
2  28 6 0 0 10
0

0101000
-43 0 +55 0 *
Ve
1e-07
6 10 5
0 0

0101101
*
Ed
 1e-07 1 1 0
1  15 0 0 6
2  29 5 0 0 6
2  30 4 0 0 6
0

0101000
+57 0 -31 0 *
Ed
 1e-07 1 1 0
1  16 0 6 10
2  31 5 0 6 10
2  32 9 0 6 10
0

0101000
+31 0 -45 0 *
Wi

0101100
-32 0 -42 0 +30 0 +29 0 +54 0 *
Fa
0  1e-07 5 0

0111000
+28 0 *
Wi

0101100
-53 0 -32 0 +41 0 +38 0 *
Fa
0  1e-07 6 0

0111000
+26 0 *
Ve
1e-07
4 6 5
0 0

0101101
*
Ed
 1e-07 1 1 0
1  17 0 0 4
2  33 3 2 0 4
2  34 4 2 0 4
0

0101000
+59 2 -24 2 *
Ve
1e-07
4 4 5
0 0

0101101
*
Ed
 1e-07 1 1 0
1  18 0 0 2
2  35 3 0 0 2
2  36 10 0 0 2
0

0101000
+22 0 -24 0 *
Ed
 1e-07 1 1 0
1  19 0 0 4
2  37 3 4 0 4
2  38 8 4 0 4
0

0101000
+37 4 -22 4 *
Wi

0101100
-58 0 -23 1 +21 0 +20 3 +36 0 *
Fa
0  1e-07 3 0

0111000
+19 0 *
Ve
1e-07
6 6 5
0 0

0101101
*
Ed
 1e-07 1 1 0
1  20 0 0 4
2  39 4 8 0 4
2  40 9 8 0 4
0

0101000
+17 8 -31 8 *
Ed
 1e-07 1 1 0
1  21 0 0 2
2  41 4 0 0 2
2  42 10 0 0 2
0

0101000
+24 0 -17 0 *
Wi

0101100
-56 0 -30 0 +16 7 +15 0 +23 1 *
Fa
0  1e-07 4 0

0111000
+14 0 *
Ve
1e-07
6 4 5
0 0

0101101
*
Ed
 1e-07 1 1 0
1  22 0 0 2
2  43 8 0 0 2
2  44 10 0 0 2
0

0101000
+22 0 -12 0 *
Ed
 1e-07 1 1 0
1  23 0 0 4
2  45 8 12 0 4
2  46 9 12 0 4
0

0101000
+12 12 -47 12 *
Wi

0101100
-20 3 -11 0 -10 11 +46 0 +35 0 *
Fa
0  1e-07 8 0

0111000
+9 0 *
Ed
 1e-07 1 1 0
1  24 0 0 2
2  47 9 0 0 2
2  48 10 0 0 2
0

0101000
+12 0 -17 0 *
Wi

0101100
-29 0 +44 0 +10 11 -7 0 -16 7 *
Fa
0  1e-07 9 0

0111000
+6 0 *
Wi

0101100
-21 0 -15 0 +7 0 +11 0 *
Fa
0  1e-07 10 0

0111000
+4 0 *
Sh

0101100
-51 0 +39 0 -33 0 +27 0 -25 0 +18 0 +13 0 +8 0 +5 0 +3 0 
*
So

1100000
+2 0 *

+1 0 
0

