DBRep_DrawableShape

CASCADE Topology V1, (c) Matra-Datavision
Locations 29
1
              1               0               0               0 
              0               1               0               0 
              0               0               1               0 
1
              1               0               0               0 
              0               1               0               0 
              0               0               1 4.21166992744307 
1
              0              -1               0 2.97700162571467 
              0               0               1          -0.225 
             -1               0               0 0.653194670656246 
1
              1               0               0               0 
              0               1               0               0 
              0               0               1               0 
2  3 1 4 1 0
1
              1               0               0               0 
              0               1               0               0 
              0               0               1 0.450000000000002 
1
              0 -0.999999774485807 -0.00067158643172053               0 
              0 0.00067158643172053 -0.999999774485807               0 
              1               0               0               0 
1
              1               0               0 4.75684991506552 
              0               1               0 0.225349224629468 
              0               0               1 0.989642195441348 
2  7 1 8 1 0
1
              1               0               0               0 
              0               1               0               0 
              0               0               1            0.45 
2  10 -1 0
1
              0 -0.999999774485807 -0.00067158643172053               0 
              0 0.00067158643172053 -0.999999774485807               0 
              1               0               0               0 
1
              1               0               0 3.4968501992134 
              0               1               0 0.225349224629468 
              0               0               1 0.989642195441348 
2  12 1 13 1 0
1
              1               0               0               0 
              0               1               0               0 
              0               0               1            0.45 
2  15 -1 0
1
              0 -0.999999774485807 -0.00067158643172053               0 
              0 0.00067158643172053 -0.999999774485807               0 
              1               0               0               0 
1
              1               0               0 2.21685048787156 
              0               1               0 0.225349224629468 
              0               0               1 0.989642195441348 
2  17 1 18 1 0
1
              1               0               0               0 
              0               1               0               0 
              0               0               1            0.45 
2  20 -1 0
1
              0              -1               0 4.23700162571468 
              0               0               1          -0.225 
             -1               0               0 0.653194670656246 
1
              1               0               0               0 
              0               1               0               0 
              0               0               1               0 
2  22 1 23 1 0
1
              1               0               0               0 
              0               1               0               0 
              0               0               1 0.449999999999999 
1
              0              -1               0 1.69700162571466 
              0               0               1          -0.225 
             -1               0               0 0.653194670656246 
1
              1               0               0               0 
              0               1               0               0 
              0               0               1               0 
2  26 1 27 1 0
1
              1               0               0               0 
              0               1               0               0 
              0               0               1 0.449999999999999 
Curve2ds 12
1 0 0 0 -1 
1 3.141592653589794 0 0 -1 
1 0 0 1 0 
1 0 -0.45000000000000001 1 0 
1 0 0 0 -1 
1 3.141592653589794 0 0 -1 
1 0 0 1 0 
1 0 -0.45000000000000001 1 0 
1 0 0 0 -1 
1 3.141592653589794 0 0 -1 
1 0 0 1 0 
1 0 -0.45000000000000001 1 0 
Curves 56
1 5.9070016257146802 0.225000000000001 0 0 0 1 
1 0 0.225000000000001 0 0 0 1 
1 5.9070016257146802 0.225000000000001 0 -1 0 0 
1 0 -0.225000000000001 0 0 0 1 
1 0 0.225000000000001 0 0 -1 0 
1 5.9070016257146802 -0.225000000000001 0 0 0 1 
1 0 -0.225000000000001 0 1 0 0 
1 5.9070016257146802 -0.225000000000001 0 0 1 0 
1 -0.34355247521434551 -0.52000000000000501 0 0 0 1 
1 0.34355247521434551 -0.52000000000000501 0 0 0 1 
1 -0.34355247521434551 -0.52000000000000501 0 1 0 0 
1 0.34355247521434551 0.52000000000000501 0 0 0 1 
1 0.34355247521434551 -0.52000000000000501 0 0 1 0 
1 -0.34355247521434551 0.52000000000000501 0 0 0 1 
1 0.34355247521434551 0.52000000000000501 0 -1 0 0 
1 -0.34355247521434551 0.52000000000000501 0 0 -1 0 
1 0 0 0 0 0 1 
1 1.22 0 0 0 0 1 
1 0 0 0 1 0 0 
1 1.2199999999999998 1.04 0 0 0 1 
2 1.22 0.52000000000000002 0 -0 0 1 0 -1 0 1 0 0 0.52000000000000002
1 0 1.04 0 0 0 1 
1 1.22 1.04 0 -1 0 0 
1 0 1.04 0 0 -1 0 
1 0 0 0 0 0 1 
1 1.22 0 0 0 0 1 
1 0 0 0 1 0 0 
1 1.2199999999999998 1.04 0 0 0 1 
2 1.22 0.52000000000000002 0 -0 0 1 0 -1 0 1 0 0 0.52000000000000002
1 0 1.04 0 0 0 1 
1 1.22 1.04 0 -1 0 0 
1 0 1.04 0 0 -1 0 
1 0 0 0 0 0 1 
1 1.22 0 0 0 0 1 
1 0 0 0 1 0 0 
1 1.2199999999999998 1.04 0 0 0 1 
2 1.22 0.52000000000000002 0 -0 0 1 0 -1 0 1 0 0 0.52000000000000002
1 0 1.04 0 0 0 1 
1 1.22 1.04 0 -1 0 0 
1 0 1.04 0 0 -1 0 
1 -0.34355247521434551 -0.52000000000000002 0 0 0 1 
1 0.34355247521434551 -0.52000000000000002 0 0 0 1 
1 -0.34355247521434551 -0.52000000000000002 0 1 0 0 
1 0.34355247521434551 0.52000000000000002 0 0 0 1 
1 0.34355247521434551 -0.52000000000000002 0 0 1 0 
1 -0.34355247521434551 0.52000000000000002 0 0 0 1 
1 0.34355247521434551 0.52000000000000002 0 -1 0 0 
1 -0.34355247521434551 0.52000000000000002 0 0 -1 0 
1 -0.34355247521434551 -0.52000000000000002 0 0 0 1 
1 0.34355247521434551 -0.52000000000000002 0 0 0 1 
1 -0.34355247521434551 -0.52000000000000002 0 1 0 0 
1 0.34355247521434551 0.52000000000000002 0 0 0 1 
1 0.34355247521434551 -0.52000000000000002 0 0 1 0 
1 -0.34355247521434551 0.52000000000000002 0 0 0 1 
1 0.34355247521434551 0.52000000000000002 0 -1 0 0 
1 -0.34355247521434551 0.52000000000000002 0 0 -1 0 
Polygon3D 0
PolygonOnTriangulations 0
Surfaces 35
1 5.9070016257146802 0.225000000000001 0 0 -1 0 -1 0 0 -0 -0 -1 
1 0 0.225000000000001 0 1 0 -0 0 -1 0 0 -0 -1 
1 0 -0.225000000000001 0 0 1 0 1 0 0 0 0 -1 
1 5.9070016257146802 -0.225000000000001 0 -1 0 0 0 1 0 0 0 -1 
1 2.9535008128573406 0 0 0 0 1 1 0 -0 -0 1 0 
1 -0.34355247521434551 -0.52000000000000501 0 0 1 0 1 0 0 0 0 -1 
1 0.34355247521434551 -0.52000000000000501 0 -1 0 0 0 1 0 0 0 -1 
1 0.34355247521434551 0.52000000000000501 0 0 -1 0 -1 0 0 -0 -0 -1 
1 -0.34355247521434551 0.52000000000000501 0 1 0 -0 0 -1 0 0 -0 -1 
1 0 0 0 0 0 1 1 0 -0 -0 1 0 
1 0 0 0 0 1 0 1 0 0 0 0 -1 
2 1.22 0.52000000000000002 0 0 -0 -1 0 -1 0 1 0 -0 0.52000000000000002
1 1.22 1.04 0 0 -1 0 -1 0 0 -0 -0 -1 
1 0 1.04 0 1 0 -0 0 -1 0 0 -0 -1 
1 0.76586240840607633 0.52000000000000013 0 0 0 1 1 0 -0 -0 1 0 
1 0 0 0 0 1 0 1 0 0 0 0 -1 
2 1.22 0.52000000000000002 0 0 -0 -1 0 -1 0 1 0 -0 0.52000000000000002
1 1.22 1.04 0 0 -1 0 -1 0 0 -0 -0 -1 
1 0 1.04 0 1 0 -0 0 -1 0 0 -0 -1 
1 0.76586240840607633 0.52000000000000013 0 0 0 1 1 0 -0 -0 1 0 
1 0 0 0 0 1 0 1 0 0 0 0 -1 
2 1.22 0.52000000000000002 0 0 -0 -1 0 -1 0 1 0 -0 0.52000000000000002
1 1.22 1.04 0 0 -1 0 -1 0 0 -0 -0 -1 
1 0 1.04 0 1 0 -0 0 -1 0 0 -0 -1 
1 0.76586240840607633 0.52000000000000013 0 0 0 1 1 0 -0 -0 1 0 
1 -0.34355247521434551 -0.52000000000000002 0 0 1 0 1 0 0 0 0 -1 
1 0.34355247521434551 -0.52000000000000002 0 -1 0 0 0 1 0 0 0 -1 
1 0.34355247521434551 0.52000000000000002 0 0 -1 0 -1 0 0 -0 -0 -1 
1 -0.34355247521434551 0.52000000000000002 0 1 0 -0 0 -1 0 0 -0 -1 
1 0 -1.6070578460642824e-17 0 0 0 1 1 0 -0 -0 1 0 
1 -0.34355247521434551 -0.52000000000000002 0 0 1 0 1 0 0 0 0 -1 
1 0.34355247521434551 -0.52000000000000002 0 -1 0 0 0 1 0 0 0 -1 
1 0.34355247521434551 0.52000000000000002 0 0 -1 0 -1 0 0 -0 -0 -1 
1 -0.34355247521434551 0.52000000000000002 0 1 0 -0 0 -1 0 0 -0 -1 
1 0 -1.6070578460642824e-17 0 0 0 1 1 0 -0 -0 1 0 
Triangulations 0

TShapes 169
Ve
1e-07
5.90700162571468 0.225000000000001 0
0 0

0101101
*
Ed
 1e-07 1 1 0
1  1 0 0 4.21166992744307
0

0101000
+169 0 -169 2 *
Ve
1e-07
0 0.225000000000001 0
0 0

0101101
*
Ed
 1e-07 1 1 0
1  2 0 0 4.21166992744307
0

0101000
+167 0 -167 2 *
Ed
 1e-07 1 1 0
1  3 0 0 5.90700162571468
0

0101000
+169 0 -167 0 *
Wi

0101100
+168 0 -166 0 -165 0 +165 2 *
Fa
0  1e-07 1 0

0111000
+164 0 *
Ve
1e-07
0 -0.225000000000001 0
0 0

0101101
*
Ed
 1e-07 1 1 0
1  4 0 0 4.21166992744307
0

0101000
+162 0 -162 2 *
Ed
 1e-07 1 1 0
1  5 0 0 0.450000000000002
0

0101000
+167 0 -162 0 *
Wi

0101100
+166 0 -161 0 -160 0 +160 2 *
Fa
0  1e-07 2 0

0111000
+159 0 *
Ve
1e-07
5.90700162571468 -0.225000000000001 0
0 0

0101101
*
Ed
 1e-07 1 1 0
1  6 0 0 4.21166992744307
0

0101000
+157 0 -157 2 *
Ed
 1e-07 1 1 0
1  7 0 0 5.90700162571468
0

0101000
+162 0 -157 0 *
Wi

0101100
+161 0 -156 0 -155 0 +155 2 *
Fa
0  1e-07 3 0

0111000
+154 0 *
Ed
 1e-07 1 1 0
1  8 0 0 0.450000000000002
0

0101000
+157 0 -169 0 *
Wi

0101100
+156 0 -168 0 -152 0 +152 2 *
Fa
0  1e-07 4 0

0111000
+151 0 *
Wi

0101100
+165 0 +160 0 +155 0 +152 0 *
Fa
0  1e-07 5 0

0111000
+149 0 *
Sh

0101100
+163 0 +158 0 +153 0 +150 0 +148 0 -148 2 *
So

0100000
-147 0 *
Ve
1e-07
-0.343552475214346 -0.520000000000005 0
0 0

0101101
*
Ed
 1e-07 1 1 0
1  9 0 0 0.450000000000002
0

0101000
+145 0 -145 6 *
Ve
1e-07
0.343552475214346 -0.520000000000005 0
0 0

0101101
*
Ed
 1e-07 1 1 0
1  10 0 0 0.450000000000002
0

0101000
+143 0 -143 6 *
Ed
 1e-07 1 1 0
1  11 0 0 0.687104950428691
0

0101000
+145 0 -143 0 *
Wi

0101100
+144 0 -142 0 -141 0 +141 6 *
Fa
0  1e-07 6 0

0111000
+140 0 *
Ve
1e-07
0.343552475214346 0.520000000000005 0
0 0

0101101
*
Ed
 1e-07 1 1 0
1  12 0 0 0.450000000000002
0

0101000
+138 0 -138 6 *
Ed
 1e-07 1 1 0
1  13 0 0 1.04000000000001
0

0101000
+143 0 -138 0 *
Wi

0101100
+142 0 -137 0 -136 0 +136 6 *
Fa
0  1e-07 7 0

0111000
+135 0 *
Ve
1e-07
-0.343552475214346 0.520000000000005 0
0 0

0101101
*
Ed
 1e-07 1 1 0
1  14 0 0 0.450000000000002
0

0101000
+133 0 -133 6 *
Ed
 1e-07 1 1 0
1  15 0 0 0.687104950428691
0

0101000
+138 0 -133 0 *
Wi

0101100
+137 0 -132 0 -131 0 +131 6 *
Fa
0  1e-07 8 0

0111000
+130 0 *
Ed
 1e-07 1 1 0
1  16 0 0 1.04000000000001
0

0101000
+133 0 -145 0 *
Wi

0101100
+132 0 -144 0 -128 0 +128 6 *
Fa
0  1e-07 9 0

0111000
+127 0 *
Wi

0101100
+141 0 +136 0 +131 0 +128 0 *
Fa
0  1e-07 10 0

0111000
+125 0 *
Sh

0101100
+139 0 +134 0 +129 0 +126 0 +124 0 -124 6 *
So

0100000
-123 0 *
Ve
0.0001
0 0 0
0 0

0101101
*
Ed
 0.0001 1 1 0
1  17 0 0 0.45
0

0101000
+121 0 -121 10 *
Ve
0.0001
1.22 0 0
0 0

0101101
*
Ed
 0.0001 1 1 0
1  18 0 0 0.45
2  1 12 0 0 0.45
4 G1 11 0 12 0
0

0101000
+119 0 -119 10 *
Ed
 0.0001 1 1 0
1  19 0 0 1.22
0

0101000
+121 0 -119 0 *
Wi

0101100
+120 0 -118 0 -117 0 +117 10 *
Fa
0  0.0001 11 0

0111000
+116 0 *
Ve
0.0001
1.22 1.04 0
0 0

0101101
*
Ed
 0.0001 1 1 0
1  20 0 0 0.45
2  2 12 0 0 0.45
4 G1 12 0 13 0
0

0101000
+114 0 -114 10 *
Ed
 0.0001 1 1 0
1  21 0 0 3.14159265358979
2  3 12 0 0 3.14159265358979
2  4 12 11 0 3.14159265358979
0

0101000
+119 0 -114 0 *
Wi

0101100
+118 0 -113 0 -112 0 +112 10 *
Fa
0  0.0001 12 0

0111000
+111 0 *
Ve
0.0001
0 1.04 0
0 0

0101101
*
Ed
 0.0001 1 1 0
1  22 0 0 0.45
0

0101000
+109 0 -109 10 *
Ed
 0.0001 1 1 0
1  23 0 0 1.22
0

0101000
+114 0 -109 0 *
Wi

0101100
+113 0 -108 0 -107 0 +107 10 *
Fa
0  0.0001 13 0

0111000
+106 0 *
Ed
 0.0001 1 1 0
1  24 0 0 1.04
0

0101000
+109 0 -121 0 *
Wi

0101100
+108 0 -120 0 -104 0 +104 10 *
Fa
0  0.0001 14 0

0111000
+103 0 *
Wi

0101100
+117 0 +112 0 +107 0 +104 0 *
Fa
0  0.0001 15 0

0111000
+101 0 *
Sh

0101100
+115 0 +110 0 +105 0 +102 0 +100 0 -100 10 *
So

0100000
-99 0 *
Ve
0.0001
0 0 0
0 0

0101101
*
Ed
 0.0001 1 1 0
1  25 0 0 0.45
0

0101000
+97 0 -97 15 *
Ve
0.0001
1.22 0 0
0 0

0101101
*
Ed
 0.0001 1 1 0
1  26 0 0 0.45
2  5 17 0 0 0.45
4 G1 16 0 17 0
0

0101000
+95 0 -95 15 *
Ed
 0.0001 1 1 0
1  27 0 0 1.22
0

0101000
+97 0 -95 0 *
Wi

0101100
+96 0 -94 0 -93 0 +93 15 *
Fa
0  0.0001 16 0

0111000
+92 0 *
Ve
0.0001
1.22 1.04 0
0 0

0101101
*
Ed
 0.0001 1 1 0
1  28 0 0 0.45
2  6 17 0 0 0.45
4 G1 17 0 18 0
0

0101000
+90 0 -90 15 *
Ed
 0.0001 1 1 0
1  29 0 0 3.14159265358979
2  7 17 0 0 3.14159265358979
2  8 17 16 0 3.14159265358979
0

0101000
+95 0 -90 0 *
Wi

0101100
+94 0 -89 0 -88 0 +88 15 *
Fa
0  0.0001 17 0

0111000
+87 0 *
Ve
0.0001
0 1.04 0
0 0

0101101
*
Ed
 0.0001 1 1 0
1  30 0 0 0.45
0

0101000
+85 0 -85 15 *
Ed
 0.0001 1 1 0
1  31 0 0 1.22
0

0101000
+90 0 -85 0 *
Wi

0101100
+89 0 -84 0 -83 0 +83 15 *
Fa
0  0.0001 18 0

0111000
+82 0 *
Ed
 0.0001 1 1 0
1  32 0 0 1.04
0

0101000
+85 0 -97 0 *
Wi

0101100
+84 0 -96 0 -80 0 +80 15 *
Fa
0  0.0001 19 0

0111000
+79 0 *
Wi

0101100
+93 0 +88 0 +83 0 +80 0 *
Fa
0  0.0001 20 0

0111000
+77 0 *
Sh

0101100
+91 0 +86 0 +81 0 +78 0 +76 0 -76 15 *
So

0100000
-75 0 *
Ve
0.0001
0 0 0
0 0

0101101
*
Ed
 0.0001 1 1 0
1  33 0 0 0.45
0

0101000
+73 0 -73 20 *
Ve
0.0001
1.22 0 0
0 0

0101101
*
Ed
 0.0001 1 1 0
1  34 0 0 0.45
2  9 22 0 0 0.45
4 G1 21 0 22 0
0

0101000
+71 0 -71 20 *
Ed
 0.0001 1 1 0
1  35 0 0 1.22
0

0101000
+73 0 -71 0 *
Wi

0101100
+72 0 -70 0 -69 0 +69 20 *
Fa
0  0.0001 21 0

0111000
+68 0 *
Ve
0.0001
1.22 1.04 0
0 0

0101101
*
Ed
 0.0001 1 1 0
1  36 0 0 0.45
2  10 22 0 0 0.45
4 G1 22 0 23 0
0

0101000
+66 0 -66 20 *
Ed
 0.0001 1 1 0
1  37 0 0 3.14159265358979
2  11 22 0 0 3.14159265358979
2  12 22 21 0 3.14159265358979
0

0101000
+71 0 -66 0 *
Wi

0101100
+70 0 -65 0 -64 0 +64 20 *
Fa
0  0.0001 22 0

0111000
+63 0 *
Ve
0.0001
0 1.04 0
0 0

0101101
*
Ed
 0.0001 1 1 0
1  38 0 0 0.45
0

0101000
+61 0 -61 20 *
Ed
 0.0001 1 1 0
1  39 0 0 1.22
0

0101000
+66 0 -61 0 *
Wi

0101100
+65 0 -60 0 -59 0 +59 20 *
Fa
0  0.0001 23 0

0111000
+58 0 *
Ed
 0.0001 1 1 0
1  40 0 0 1.04
0

0101000
+61 0 -73 0 *
Wi

0101100
+60 0 -72 0 -56 0 +56 20 *
Fa
0  0.0001 24 0

0111000
+55 0 *
Wi

0101100
+69 0 +64 0 +59 0 +56 0 *
Fa
0  0.0001 25 0

0111000
+53 0 *
Sh

0101100
+67 0 +62 0 +57 0 +54 0 +52 0 -52 20 *
So

0100000
-51 0 *
Ve
1e-07
-0.343552475214346 -0.52 0
0 0

0101101
*
Ed
 1e-07 1 1 0
1  41 0 0 0.449999999999999
0

0101000
+49 0 -49 25 *
Ve
1e-07
0.343552475214346 -0.52 0
0 0

0101101
*
Ed
 1e-07 1 1 0
1  42 0 0 0.449999999999999
0

0101000
+47 0 -47 25 *
Ed
 1e-07 1 1 0
1  43 0 0 0.687104950428691
0

0101000
+49 0 -47 0 *
Wi

0101100
+48 0 -46 0 -45 0 +45 25 *
Fa
0  1e-07 26 0

0111000
+44 0 *
Ve
1e-07
0.343552475214346 0.52 0
0 0

0101101
*
Ed
 1e-07 1 1 0
1  44 0 0 0.449999999999999
0

0101000
+42 0 -42 25 *
Ed
 1e-07 1 1 0
1  45 0 0 1.04
0

0101000
+47 0 -42 0 *
Wi

0101100
+46 0 -41 0 -40 0 +40 25 *
Fa
0  1e-07 27 0

0111000
+39 0 *
Ve
1e-07
-0.343552475214346 0.52 0
0 0

0101101
*
Ed
 1e-07 1 1 0
1  46 0 0 0.449999999999999
0

0101000
+37 0 -37 25 *
Ed
 1e-07 1 1 0
1  47 0 0 0.687104950428691
0

0101000
+42 0 -37 0 *
Wi

0101100
+41 0 -36 0 -35 0 +35 25 *
Fa
0  1e-07 28 0

0111000
+34 0 *
Ed
 1e-07 1 1 0
1  48 0 0 1.04
0

0101000
+37 0 -49 0 *
Wi

0101100
+36 0 -48 0 -32 0 +32 25 *
Fa
0  1e-07 29 0

0111000
+31 0 *
Wi

0101100
+45 0 +40 0 +35 0 +32 0 *
Fa
0  1e-07 30 0

0111000
+29 0 *
Sh

0101100
+43 0 +38 0 +33 0 +30 0 +28 0 -28 25 *
So

0100000
-27 0 *
Ve
1e-07
-0.343552475214346 -0.52 0
0 0

0101101
*
Ed
 1e-07 1 1 0
1  49 0 0 0.449999999999999
0

0101000
+25 0 -25 29 *
Ve
1e-07
0.343552475214346 -0.52 0
0 0

0101101
*
Ed
 1e-07 1 1 0
1  50 0 0 0.449999999999999
0

0101000
+23 0 -23 29 *
Ed
 1e-07 1 1 0
1  51 0 0 0.687104950428691
0

0101000
+25 0 -23 0 *
Wi

0101100
+24 0 -22 0 -21 0 +21 29 *
Fa
0  1e-07 31 0

0111000
+20 0 *
Ve
1e-07
0.343552475214346 0.52 0
0 0

0101101
*
Ed
 1e-07 1 1 0
1  52 0 0 0.449999999999999
0

0101000
+18 0 -18 29 *
Ed
 1e-07 1 1 0
1  53 0 0 1.04
0

0101000
+23 0 -18 0 *
Wi

0101100
+22 0 -17 0 -16 0 +16 29 *
Fa
0  1e-07 32 0

0111000
+15 0 *
Ve
1e-07
-0.343552475214346 0.52 0
0 0

0101101
*
Ed
 1e-07 1 1 0
1  54 0 0 0.449999999999999
0

0101000
+13 0 -13 29 *
Ed
 1e-07 1 1 0
1  55 0 0 0.687104950428691
0

0101000
+18 0 -13 0 *
Wi

0101100
+17 0 -12 0 -11 0 +11 29 *
Fa
0  1e-07 33 0

0111000
+10 0 *
Ed
 1e-07 1 1 0
1  56 0 0 1.04
0

0101000
+13 0 -25 0 *
Wi

0101100
+12 0 -24 0 -8 0 +8 29 *
Fa
0  1e-07 34 0

0111000
+7 0 *
Wi

0101100
+21 0 +16 0 +11 0 +8 0 *
Fa
0  1e-07 35 0

0111000
+5 0 *
Sh

0101100
+19 0 +14 0 +9 0 +6 0 +4 0 -4 29 *
So

0100000
-3 0 *
Co

1100000
+146 1 +122 5 +98 9 +74 14 +50 19 +26 24 +2 28 *

+1 0 
0

