DBRep_DrawableShape

CASCADE Topology V1, (c) Matra-Datavision
Locations 4
1
              1               0               0               0 
              0               1               0               0 
              0               0               1               1 
2  1 -1 0
1
              1               0               0               0 
              0               1               0               0 
              0               0               1             1.5 
2  3 -1 0
Curve2ds 9
1 0 0 1 0 
1 5.0943663029208297 0 0 -1 
1 0 -1 1 0 
1 0 0 0 -1 
1 0 0 0 -1 
1 0 -1.5 1 0 
1 1.188819004258757 0 0 -1 
1 6.2831853071795862 -1 -1 0 
1 0 -1.5 1 0 
Curves 18
2 0 0 0 0 0 1 -0.9684835396368674 -0.24907756513271989 0 0.24907756513271989 -0.9684835396368674 0 1.3650366295287675
1 -0.80828522189999996 1.1000000000000001 0 0 0 1 
2 0 0 0 0 0 1 -0.9684835396368674 -0.24907756513271989 0 0.24907756513271989 -0.9684835396368674 0 1.3650366295287675
1 -1.3220155066999999 -0.34000000000000002 0 0 0 1 
2 0 0 0 0 0 1 -0.59213445589509428 0.80583918131462229 0 -0.80583918131462229 -0.59213445589509428 0 1.3650366295238865
1 -3.2549999999999999 1.1000000000000001 0 0 0 1 
1 -0.80828522189999996 1.1000000000000001 0 -1 0 0 
1 -0.80828522189999996 1.1000000000000001 0 -1 0 0 
1 -0.80828522189999996 1.1000000000000001 0 0 0 1 
2 0 0 0 0 0 1 -0.9684835396368674 -0.24907756513271989 0 0.24907756513271989 -0.9684835396368674 0 1.3650366295287675
1 -1.3220155066999999 -0.34000000000000002 0 0 0 1 
1 -3.2549999999999999 -0.34000000000000002 0 0 0 1 
1 -3.2549999999999999 -0.34000000000000002 0 1 0 0 
1 -3.2549999999999999 -0.34000000000000002 0 1 0 0 
1 -3.2549999999999999 1.1000000000000001 0 0 -1 0 
1 -3.2549999999999999 1.1000000000000001 0 0 -1 0 
2 0 0 1 -0 0 -1 -0.59213445589509428 0.80583918131462229 0 0.80583918131462229 0.59213445589509428 -0 1.3650366295238865
2 0 0 0 0 0 1 -0.59213445589509428 0.80583918131462229 0 -0.80583918131462229 -0.59213445589509428 0 1.3650366295238865
Polygon3D 0
PolygonOnTriangulations 0
Surfaces 10
2 0 0 0 -0 -0 -1 -0.9684835396368674 -0.24907756513271989 0 0.24907756513271989 -0.9684835396368674 0 1.3650366295287675
2 0 0 0 -0 -0 -1 -0.9684835396368674 -0.24907756513271989 0 0.24907756513271989 -0.9684835396368674 0 1.3650366295287675
1 0 0 0 0 0 1 1 0 0 0 1 0 
1 -0.80828522189999996 1.1000000000000001 0 0 -1 0 -1 0 0 -0 -0 -1 
2 0 0 0 -0 -0 -1 -0.59213445589509428 0.80583918131462229 0 -0.80583918131462229 -0.59213445589509428 0 1.3650366295238865
1 -3.2549999999999999 -0.34000000000000002 0 0 1 0 1 0 0 0 0 -1 
1 0 0 0 0 0 1 1 0 0 0 1 0 
1 -3.2549999999999999 1.1000000000000001 0 1 0 -0 0 -1 0 0 -0 -1 
1 0 0 0 0 0 1 1 0 0 0 1 0 
1 0 0 0 0 0 1 1 0 0 0 1 0 
Triangulations 0

TShapes 51
Ve
1.50001e-07
-1.3220155067 -0.34 0
0 0

0101101
*
Ve
1.50001e-07
-0.8082852219 1.1 0
0 0

0101101
*
Ed
 1.00000001221245e-07 1 1 0
1  1 0 0 5.09436630292083
2  1 1 0 0 5.09436630292083
0

0101000
+51 0 -50 0 *
Ve
1.00000001221245e-07
-0.8082852219 1.1 1
0 0

0101101
*
Ed
 1e-07 1 1 0
1  2 0 0 1
2  2 1 0 0 1
0

0101000
+50 0 -48 0 *
Ve
1.00004880894332e-07
-1.3220155067 -0.34 1
0 0

0101101
*
Ed
 1.00000001221245e-07 1 1 0
1  3 0 0 5.09436630292083
2  3 1 2 0 5.09436630292083
2  3 2 2 0 5.09436630292083
0

0101000
+46 2 -48 2 *
Ed
 1e-07 1 1 0
1  4 0 0 1
2  4 1 0 0 1
0

0101000
+51 0 -46 0 *
Wi

0101100
-49 0 -47 0 +45 1 +44 0 *
Fa
0  1e-07 1 0

0111000
+43 0 *
Ed
 1e-07 1 1 0
1  5 0 0 1.18881900425876
0

0101000
+50 0 -51 0 *
Wi

0101100
+49 0 +41 0 *
Fa
0  1e-07 3 0

0111000
+40 0 *
Ve
1e-07
-3.255 1.1 0
0 0

0101101
*
Ve
1e-07
-3.255 1.1 1
0 0

0101101
*
Ed
 1e-07 1 1 0
1  6 0 0 1
0

0101000
+38 0 -37 0 *
Ed
 1e-07 1 1 0
1  7 0 0 2.4467147781
0

0101000
+50 0 -38 0 *
Ed
 1e-07 1 1 0
1  8 0 0 2.4467147781
0

0101000
+48 2 -37 2 *
Wi

0101100
+47 0 -36 0 -35 0 +34 1 *
Fa
0  1e-07 4 0

0111000
+33 0 *
Ve
1e-07
-0.8082852219 1.1 1.5
0 0

0101101
*
Ed
 1e-07 1 1 0
1  9 0 1 1.5
2  2 2 0 1 1.5
2  5 5 0 1 1.5
4 C2 2 0 5 0
0

0101000
+48 0 -31 0 *
Ve
1e-07
-1.3220155067 -0.34 1.5
0 0

0101101
*
Ed
 1e-07 1 1 0
1  10 0 0 5.09436630292083
2  6 2 4 0 5.09436630292083
0

0101000
+29 4 -31 4 *
Ed
 1e-07 1 1 0
1  11 0 1 1.5
2  4 2 0 1 1.5
2  7 5 0 1 1.5
4 C2 2 0 5 0
0

0101000
+46 0 -29 0 *
Wi

0101100
-45 1 -30 0 +28 3 +27 0 *
Fa
0  1e-07 2 0

0111000
+26 0 *
Ve
1e-07
-3.255 -0.34 0
0 0

0101101
*
Ve
1e-07
-3.255 -0.34 1
0 0

0101101
*
Ed
 1e-07 1 1 0
1  12 0 0 1
0

0101000
+24 0 -23 0 *
Ed
 1e-07 1 1 0
1  13 0 0 1.9329844933
0

0101000
+24 0 -51 0 *
Ed
 1e-07 1 1 0
1  14 0 0 1.9329844933
0

0101000
+23 2 -46 2 *
Wi

0101100
+22 0 -44 0 -21 0 +20 1 *
Fa
0  1e-07 6 0

0111000
+19 0 *
Ed
 1e-07 1 1 0
1  15 0 0 1.44
0

0101000
+38 0 -24 0 *
Wi

0101100
+35 0 -41 0 +21 0 +17 0 *
Fa
0  1e-07 7 0

0111000
+16 0 *
Ed
 1e-07 1 1 0
1  16 0 0 1.44
0

0101000
+37 2 -23 2 *
Wi

0101100
+36 0 -22 0 -17 0 +14 1 *
Fa
0  1e-07 8 0

0111000
+13 0 *
Ed
 1e-07 1 1 0
1  17 0 5.09436630292083 6.28318530717959
2  8 5 0 5.09436630292083 6.28318530717959
0

0101000
+46 0 -48 0 *
Wi

0101100
+34 1 +11 0 +20 1 +14 1 *
Fa
0  1e-07 9 1

0111000
+10 0 *
Ed
 1e-07 1 1 0
1  18 0 0 1.18881900425876
2  9 5 4 0 1.18881900425876
0

0101000
+31 4 -29 4 *
Wi

0101100
+11 0 -27 0 +8 3 +30 0 *
Fa
0  1e-07 5 0

0111000
+7 0 *
Wi

0101100
+28 0 +8 0 *
Fa
0  1e-07 10 0

0111000
+5 0 *
Sh

0101100
-42 0 -39 0 -32 0 -25 0 -18 0 -15 0 -12 0 +9 0 -6 0 +4 3 
*
So

0100000
+3 0 *
Co

1100000
+2 0 *

+1 0 