DBRep_DrawableShape

CASCADE Topology V1, (c) Matra-Datavision
Locations 0
Curve2ds 40
8 -2.0000005999999999 6.000000000172534e-07
1 0.21757018515629012 0 0 1 
8 -2.0000005999999999 6.000000000172534e-07
1 1.6206465557774858 -1 0 1 
1 0.21757018515629012 1 0 1 
8 -1.0000005999999999 5.9999999999999997e-07
1 1.6206465557774858 0 0 1 
1 0 1 1 0 
2 4.4408920985006262e-16 5.5511151231257827e-17 1 0 -0 1 3.1435120659853633
1 0 1 0 -1 
1 6.2831853071795862 1 0 -1 
1 0 0 0 -1 
1 6.2831853071795862 0 0 -1 
1 0 -2 1 0 
2 4.4408920985006262e-16 5.5511151231257827e-17 1 0 -0 1 3.1435120659853633
8 -6.5779867233855835 1.2964292888492048
1 2.1835242055772475 -3.0000000000000004 -1 -0 
8 -6.5779867233855835 1.2964292888492048
1 2.5301136485850337 0.83979035441160732 0.95809377440089516 -0.28645474241884511 
8 -2.0000005999999999 6.000000000172534e-07
1 7.1134502665315029 -1 0 1 
8 -2.0000005999999999 6.000000000172534e-07
1 2.3429735566146199 0 0 1 
8 -1.0000005999999999 5.9999999999999997e-07
1 7.1134502665315029 0 0 1 
1 2.3429735566146199 1 0 1 
1 0 0 1 0 
1 4.6221345962022546 0.21430949053766343 -0.95809377440089516 0.28645474241884511 
2 4.4408920985006262e-16 5.5511151231257827e-17 1 0 -0 1 3.1435120659853633
1 0 -2 1 0 
8 -5.9886519362298651 1.8857026564437955
1 -1.9655204116614491 -1.7551069543719826 -0.958101247483095 -0.28642974631022045 
8 -5.9886519362298651 1.8857026564437955
1 2.3858823980543913 -3 -1 -0 
2 4.4408920985006262e-16 5.5511151231257827e-17 1 0 -0 1 3.1435120659853633
1 0 -2 1 0 
1 0 1 1 0 
2 4.4408920985006262e-16 5.5511151231257827e-17 1 0 -0 1 3.1435120659853633
1 6.2098711616623898 1 0 1 
8 -1.0000005999999999 5.9999999999999997e-07
1 7.7095244895484374 0 -0 1 
8 -2.0000005999999999 6.000000000172534e-07
1 6.2098711616623898 0 0 1 
8 -2.0000005999999999 6.000000000172534e-07
1 7.7095244895484374 -1 -0 1 
1 -4.2514373135853187 -2.4384946443727222 0.958101247483095 0.28642974631022045 
1 0 0 1 0 
2 4.4408920985006262e-16 5.5511151231257827e-17 1 0 -0 1 3.1435120659853633
1 0 1 1 0 
8 -2.0000005999999999 6.000000000172534e-07
1 3.7959035322940782 0 0 1 
8 -2.0000005999999999 6.000000000172534e-07
1 1.8340051026691282 -1 -0 1 
1 3.7959035322940782 1 0 1 
8 -1.0000005999999999 5.9999999999999997e-07
1 1.8340051026691282 0 -0 1 
Curves 20
1 0.82087560524914149 1 2.0694032206075921 -0 -1 -0 
1 0.82087560524914149 0 2.0694032206075921 -0 -1 -0 
2 0.1423242230242496 0 -1 0 1 0 0 -0 1 1 0 -0 3.1435120659853633
1 0.1423242230242496 0 2.1435120659853633 0 1 0 
1 0.1423242230242496 1 2.1435120659853633 0 1 0 
2 0.1423242230242496 3 -1 0 1 0 0 -0 1 1 0 -0 3.1435120659853633
1 0.98211457743585684 3.0000000000000004 1.5301136485850333 -0.28645474241884511 0 0.95809377440089516 
1 2.3943152773704597 1 -3.1932178186719655 -0 -1 -0 
1 2.3943152773704597 0 -3.1932178186719655 -0 -1 -0 
1 0.35663371356191298 0 3.6221345962022538 0.28645474241884511 0 -0.95809377440089516 
2 0.1423242230242496 3 -1 0 1 0 0 -0 1 1 0 -0 3.1435120659853633
1 -1.612782731347733 3 -2.9655204116614495 -0.28642974631022045 0 -0.958101247483095 
2 0.1423242230242496 3 -1 0 1 0 0 -0 1 1 0 -0 3.1435120659853633
2 0.1423242230242496 0 -1 0 1 0 0 -0 1 1 0 -0 3.1435120659853633
1 -0.087933277634682172 0 2.1350677173525092 -0 -1 -0 
1 -0.087933277634682172 1 2.1350677173525092 -0 -1 -0 
1 -2.2961704213484726 0 -5.2514373135853196 0.28642974631022045 0 0.958101247483095 
2 0.1423242230242496 0 -1 0 1 0 0 -0 1 1 0 -0 3.1435120659853633
1 -1.7708568050593045 1 -3.4942747368276663 -0 -1 -0 
1 -1.7708568050593045 0 -3.4942747368276663 -0 -1 -0 
Polygon3D 0
PolygonOnTriangulations 0
Surfaces 7
2 0.1423242230242496 1 -1 -0 -1 -0 0 -0 1 1 -0 -0 3.1435120659853633
1 0.35663371356191298 0 3.6221345962022538 -0.95809377440089516 0 -0.28645474241884511 0.28645474241884511 0 -0.95809377440089516 0 -1 -0 
1 0.14232422302424955 0 -1.0000000000000004 0 1 0 0 -0 1 1 0 -0 
2 0.1423242230242496 1 -1 -0 -1 -0 0 -0 1 1 -0 -0 3.1435120659853633
1 0.14232422302424955 3 -1.0000000000000004 0 1 0 0 -0 1 1 0 -0 
2 0.1423242230242496 1 -1 -0 -1 -0 0 -0 1 1 -0 -0 3.1435120659853633
1 -2.2961704213484726 0 -5.2514373135853196 0.958101247483095 0 -0.28642974631022045 0.28642974631022045 0 0.958101247483095 0 -1 0 
Triangulations 0

TShapes 52
Ve
1.50000000800593e-07
0.820875605249142 3 2.06940322060759
0 0

0101101
*
Ve
1.50000001831027e-07
0.820875605249142 1 2.06940322060759
0 0

0101101
*
Ed
 1e-07 1 1 0
1  1 0 -2 0
2  1 1 0 -2 0
2  2 2 0 -2 0
0

0101000
+52 0 -51 0 *
Ve
1.00000019885083e-07
0.820875605249124 0 2.0694032206076
0 0

0101101
*
Ed
 1e-07 1 1 0
1  2 0 -1 0
2  3 1 0 -1 0
2  4 2 0 -1 0
0

0101000
+51 0 -49 0 *
Ve
1e-07
0.14232422302425 0 2.14351206598536
0 0

0101101
*
Ed
 1e-07 1 1 0
1  3 0 0 0.217570185156284
2  5 1 0 0 0.217570185156284
2  6 3 0 0 0.217570185156284
0

0101000
+47 0 -49 0 *
Ve
1e-07
0.14232422302425 1 2.14351206598536
0 0

0101101
*
Ed
 1e-07 1 1 0
1  4 0 0 1
2  7 1 0 0 1
2  8 4 0 0 1
0

0101000
+47 0 -45 0 *
Ve
1e-07
0.14232422302425 3 2.14351206598536
0 0

0101101
*
Ed
 1e-07 1 1 0
1  5 0 0 2
2  9 1 0 0 2
2  10 4 0 0 2
0

0101000
+45 0 -43 0 *
Ed
 1e-07 1 1 0
1  6 0 0 0.21757018515629
2  11 1 0 0 0.21757018515629
2  12 5 0 0 0.21757018515629
0

0101000
+43 0 -52 0 *
Wi

0101100
+50 0 +48 0 -46 0 +44 0 +42 0 +41 0 *
Fa
0  1e-07 1 0

0111000
+40 0 *
Ve
1.50000001884111e-07
2.39431527737046 3 -3.19321781867197
0 0

0101101
*
Ed
 1.5e-07 1 1 0
1  7 0 -4.92992606095426 0.562877649799761
2  13 2 0 -4.92992606095426 0.562877649799761
2  14 5 0 -4.92992606095426 0.562877649799761
0

0101000
+38 0 -52 0 *
Ve
1.50000001831027e-07
2.39431527737046 1 -3.19321781867197
0 0

0101101
*
Ed
 1e-07 1 1 0
1  8 0 -2 0
2  15 2 0 -2 0
2  16 6 0 -2 0
0

0101000
+38 0 -36 0 *
Ve
1.00000033374715e-07
2.39431527737047 0 -3.19321781867194
0 0

0101101
*
Ed
 1e-07 1 1 0
1  9 0 -1 -0
2  17 2 0 -1 -0
2  18 6 0 -1 -0
0

0101000
+36 0 -34 0 *
Ed
 1e-07 1 1 0
1  10 0 1.62064655577747 7.11345026653148
2  19 2 0 1.62064655577747 7.11345026653148
2  20 3 0 1.62064655577747 7.11345026653148
0

0101000
+49 0 -34 0 *
Wi

0101100
-50 0 -37 0 +35 0 +33 0 -32 0 -48 0 *
Fa
0  1e-07 2 0

0111000
+31 0 *
Ve
1.50000000572196e-07
-0.0879332776346823 3 2.13506771735251
0 0

0101101
*
Ed
 1e-07 1 1 0
1  11 0 6.20987116166239 6.28318530717959
2  21 5 0 6.20987116166239 6.28318530717959
2  22 4 0 6.20987116166239 6.28318530717959
0

0101000
+29 0 -43 0 *
Ve
1.5e-07
-1.7708568050593 3 -3.49427473682767
0 0

0101101
*
Ed
 1.5e-07 1 1 0
1  12 0 -5.32364209149405 0.551877295385262
2  23 5 0 -5.32364209149405 0.551877295385262
2  24 7 0 -5.32364209149405 0.551877295385262
0

0101000
+29 0 -27 0 *
Ed
 1e-07 1 1 0
1  13 0 2.34297355661462 3.79590353229408
2  25 5 0 2.34297355661462 3.79590353229408
2  26 6 0 2.34297355661462 3.79590353229408
0

0101000
+38 0 -27 0 *
Wi

0101100
+28 0 -26 0 +25 0 -37 0 +41 0 *
Fa
0  1e-07 5 0

0111000
+24 0 *
Ve
1.000000526527e-07
-0.0879332776346329 0 2.13506771735253
0 0

0101101
*
Ed
 1e-07 1 1 0
1  14 0 6.20987116166241 6.28318530717959
2  27 4 0 6.20987116166241 6.28318530717959
2  28 3 0 6.20987116166241 6.28318530717959
0

0101000
+22 0 -47 0 *
Ve
1.50000000993014e-07
-0.0879332776346823 1 2.13506771735251
0 0

0101101
*
Ed
 1e-07 1 1 0
1  15 0 -1 -0
2  29 4 0 -1 -0
2  30 7 0 -1 -0
0

0101000
+20 0 -22 0 *
Ed
 1e-07 1 1 0
1  16 0 -2 0
2  31 4 0 -2 0
2  32 7 0 -2 0
0

0101000
+29 0 -20 0 *
Wi

0101100
-42 0 -44 0 -21 0 -19 0 -18 0 +28 0 *
Fa
0  1e-07 4 0

0111000
+17 0 *
Ve
1.0000005413564e-07
-1.77085680505927 0 -3.49427473682771
0 0

0101101
*
Ed
 1e-07 1 1 0
1  17 0 1.8340051026691 7.70952448954847
2  33 3 0 1.8340051026691 7.70952448954847
2  34 7 0 1.8340051026691 7.70952448954847
0

0101000
+15 0 -22 0 *
Ed
 1e-07 1 1 0
1  18 0 2.34297355661461 3.79590353229406
2  35 3 0 2.34297355661461 3.79590353229406
2  36 6 0 2.34297355661461 3.79590353229406
0

0101000
+34 0 -15 0 *
Wi

0101100
+21 0 +14 0 +13 0 +32 0 +46 0 *
Fa
0  1e-07 3 0

0111000
+12 0 *
Ve
1.50000000993014e-07
-1.7708568050593 1 -3.49427473682767
0 0

0101101
*
Ed
 1e-07 1 1 0
1  19 0 -2 -0
2  37 6 0 -2 -0
2  38 7 0 -2 -0
0

0101000
+27 0 -10 0 *
Ed
 1e-07 1 1 0
1  20 0 -1 0
2  39 6 0 -1 0
2  40 7 0 -1 0
0

0101000
+10 0 -15 0 *
Wi

0101100
+9 0 +8 0 -13 0 -33 0 -35 0 +25 0 *
Fa
0  1e-07 6 0

0111000
+7 0 *
Wi

0101100
-9 0 -26 0 +18 0 +19 0 -14 0 -8 0 *
Fa
0  1e-07 7 0

0111000
+5 0 *
Sh

0101100
-39 0 -30 0 +23 0 -16 0 -11 0 -6 0 -4 0 *
So

0100000
+3 0 *
Co

1100000
+2 0 *

+1 0 
0

