DBRep_DrawableShape

CASCADE Topology V1, (c) Matra-Datavision
Locations 0
Curve2ds 4
1 0 0 0 1 
1 1 0 0 1 
1 0 0 1 0 
1 0 1 1 0 
Curves 12
7 0 0  3 4 2  0.10000000000000012 0 -1.8999999999999999  4.0333333333333332 0 -1.8999999999999999  7.9666666666666677 0 -1.8999999999999999  11.9 0 -1.8999999999999999 
 0 4 1 4
7 0 0  3 14 12  0.10000000000000012 0 -1.8999999999999999  0.10000000000000012 0.1280930572270452 -1.898689779151191  0.10000000000000012 0.38433239824101723 -1.898704350585982  0.10000000000000009 0.76868225975690541 -1.8986715792853865  0.10000000000000012 1.1529051812009936 -1.8907112292688188  0.10000000000000012 1.5367047248912138 -1.8666468120284689  0.10000000000000012 1.9177732328310768 -1.8114546849059399  0.10000000000000012 2.287790394004626 -1.7008356587465998  0.10000000000000009 2.6186348456905502 -1.4891322096413637  0.10000000000000013 2.8224000800951976 -1.1510398519746259  0.10000000000000007 2.8899737717843119 -0.76855264297831816  0.10000000000000002 2.9002573788266126 -0.38468315120263957  0.10000000000000002 2.8969483638510889 -0.1280634042389095  0.10000000000000001 2.8999999999999999 0 
 0 4 0.090909090909090912 1 0.18181818181818182 1 0.27272727272727271 1 0.36363636363636365 1 0.45454545454545459 1 0.54545454545454541 1 0.63636363636363635 1 0.72727272727272729 1 0.81818181818181823 1 0.90909090909090917 1 1 4
7 0 0  3 4 2  0.10000000000000001 2.8999999999999999 0  4.0333333333333332 2.8999999999999999 0  7.9666666666666677 2.8999999999999999 0  11.9 2.8999999999999999 0 
 0 4 1 4
7 0 0  3 14 12  11.9 0 -1.8999999999999999  11.9 0.1280930572270452 -1.898689779151191  11.900000000000002 0.38433239824101723 -1.898704350585982  11.899999999999997 0.76868225975690541 -1.8986715792853865  11.899999999999999 1.1529051812009936 -1.8907112292688188  11.900000000000004 1.5367047248912138 -1.8666468120284689  11.9 1.9177732328310768 -1.8114546849059399  11.9 2.287790394004626 -1.7008356587465998  11.900000000000002 2.6186348456905502 -1.4891322096413637  11.900000000000004 2.8224000800951976 -1.1510398519746259  11.899999999999999 2.8899737717843119 -0.76855264297831816  11.899999999999999 2.9002573788266126 -0.38468315120263957  11.9 2.8969483638510889 -0.1280634042389095  11.9 2.8999999999999999 0 
 0 4 0.090909090909090912 1 0.18181818181818182 1 0.27272727272727271 1 0.36363636363636365 1 0.45454545454545459 1 0.54545454545454541 1 0.63636363636363635 1 0.72727272727272729 1 0.81818181818181823 1 0.90909090909090917 1 1 4
7 0 0  3 14 12  0.10000000000000001 2.8999999999999999 0  0.10000000000000001 2.8969483638510889 0.12806340423890963  0.10000000000000001 2.9002573788266148 0.38468315120264018  0.099999999999999964 2.8899737717843119 0.76855264297831882  0.099999999999999867 2.8224000800951963 1.1510398519746246  0.09999999999999995 2.618634845690551 1.4891322096413637  0.099999999999999867 2.2877903940046247 1.7008356587465996  0.099999999999999867 1.917773232831077 1.8114546849059396  0.099999999999999922 1.536704724891214 1.8666468120284683  0.099999999999999867 1.1529051812009943 1.8907112292688177  0.099999999999999922 0.76868225975690574 1.8986715792853879  0.099999999999999881 0.38433239824101717 1.8987043505859811  0.099999999999999895 0.12809305722704512 1.898689779151191  0.099999999999999895 0 1.8999999999999999 
 0 4 0.090909090909090912 1 0.18181818181818182 1 0.27272727272727271 1 0.36363636363636365 1 0.45454545454545459 1 0.54545454545454541 1 0.63636363636363635 1 0.72727272727272729 1 0.81818181818181823 1 0.90909090909090917 1 1 4
7 0 0  3 4 2  0.099999999999999895 0 1.8999999999999999  4.0333333333333323 0 1.8999999999999999  7.9666666666666677 0 1.8999999999999999  11.9 0 1.8999999999999999 
 0 4 1 4
7 0 0  3 14 12  11.9 2.8999999999999999 0  11.900000000000002 2.8969483638510889 0.12806340423890963  11.900000000000002 2.9002573788266148 0.38468315120264018  11.899999999999999 2.8899737717843119 0.76855264297831882  11.899999999999999 2.8224000800951963 1.1510398519746246  11.899999999999999 2.618634845690551 1.4891322096413637  11.899999999999995 2.2877903940046247 1.7008356587465996  11.900000000000002 1.917773232831077 1.8114546849059396  11.900000000000002 1.536704724891214 1.8666468120284683  11.899999999999997 1.1529051812009943 1.8907112292688177  11.9 0.76868225975690574 1.8986715792853879  11.899999999999999 0.38433239824101717 1.8987043505859811  11.9 0.12809305722704512 1.898689779151191  11.9 0 1.8999999999999999 
 0 4 0.090909090909090912 1 0.18181818181818182 1 0.27272727272727271 1 0.36363636363636365 1 0.45454545454545459 1 0.54545454545454541 1 0.63636363636363635 1 0.72727272727272729 1 0.81818181818181823 1 0.90909090909090917 1 1 4
7 0 0  3 14 12  0.099999999999999895 0 1.8999999999999999  0.099999999999999895 -0.1280930572270452 1.898689779151191  0.099999999999999908 -0.38433239824101723 1.898704350585982  0.099999999999999853 -0.76868225975690541 1.8986715792853865  0.099999999999999922 -1.1529051812009936 1.8907112292688188  0.099999999999999895 -1.5367047248912138 1.8666468120284689  0.099999999999999895 -1.9177732328310768 1.8114546849059399  0.099999999999999881 -2.287790394004626 1.7008356587465998  0.099999999999999922 -2.6186348456905502 1.4891322096413637  0.09999999999999995 -2.8224000800951976 1.1510398519746259  0.099999999999999964 -2.8899737717843119 0.76855264297831816  0.099999999999999936 -2.9002573788266126 0.38468315120263957  0.10000000000000001 -2.8969483638510889 0.1280634042389095  0.10000000000000001 -2.8999999999999999 0 
 0 4 0.090909090909090912 1 0.18181818181818182 1 0.27272727272727271 1 0.36363636363636365 1 0.45454545454545459 1 0.54545454545454541 1 0.63636363636363635 1 0.72727272727272729 1 0.81818181818181823 1 0.90909090909090917 1 1 4
7 0 0  3 4 2  0.10000000000000001 -2.8999999999999999 0  4.0333333333333332 -2.8999999999999999 0  7.9666666666666677 -2.8999999999999999 0  11.9 -2.8999999999999999 0 
 0 4 1 4
7 0 0  3 14 12  11.9 0 1.8999999999999999  11.9 -0.1280930572270452 1.898689779151191  11.900000000000002 -0.38433239824101723 1.898704350585982  11.899999999999997 -0.76868225975690541 1.8986715792853865  11.899999999999999 -1.1529051812009936 1.8907112292688188  11.900000000000004 -1.5367047248912138 1.8666468120284689  11.9 -1.9177732328310768 1.8114546849059399  11.9 -2.287790394004626 1.7008356587465998  11.900000000000002 -2.6186348456905502 1.4891322096413637  11.900000000000004 -2.8224000800951976 1.1510398519746259  11.899999999999999 -2.8899737717843119 0.76855264297831816  11.899999999999999 -2.9002573788266126 0.38468315120263957  11.9 -2.8969483638510889 0.1280634042389095  11.9 -2.8999999999999999 0 
 0 4 0.090909090909090912 1 0.18181818181818182 1 0.27272727272727271 1 0.36363636363636365 1 0.45454545454545459 1 0.54545454545454541 1 0.63636363636363635 1 0.72727272727272729 1 0.81818181818181823 1 0.90909090909090917 1 1 4
7 0 0  3 14 12  0.10000000000000001 -2.8999999999999999 0  0.10000000000000002 -2.8969483638510889 -0.12806340423890963  0.10000000000000006 -2.9002573788266148 -0.38468315120264018  0.10000000000000005 -2.8899737717843119 -0.76855264297831882  0.10000000000000005 -2.8224000800951963 -1.1510398519746246  0.1000000000000001 -2.618634845690551 -1.4891322096413637  0.10000000000000009 -2.2877903940046247 -1.7008356587465996  0.10000000000000012 -1.917773232831077 -1.8114546849059396  0.10000000000000013 -1.536704724891214 -1.8666468120284683  0.10000000000000009 -1.1529051812009943 -1.8907112292688177  0.10000000000000014 -0.76868225975690574 -1.8986715792853879  0.10000000000000009 -0.38433239824101717 -1.8987043505859811  0.10000000000000012 -0.12809305722704512 -1.898689779151191  0.10000000000000012 0 -1.8999999999999999 
 0 4 0.090909090909090912 1 0.18181818181818182 1 0.27272727272727271 1 0.36363636363636365 1 0.45454545454545459 1 0.54545454545454541 1 0.63636363636363635 1 0.72727272727272729 1 0.81818181818181823 1 0.90909090909090917 1 1 4
7 0 0  3 14 12  11.9 -2.8999999999999999 0  11.900000000000002 -2.8969483638510889 -0.12806340423890963  11.900000000000002 -2.9002573788266148 -0.38468315120264018  11.899999999999999 -2.8899737717843119 -0.76855264297831882  11.899999999999999 -2.8224000800951963 -1.1510398519746246  11.899999999999999 -2.618634845690551 -1.4891322096413637  11.899999999999995 -2.2877903940046247 -1.7008356587465996  11.900000000000002 -1.917773232831077 -1.8114546849059396  11.900000000000002 -1.536704724891214 -1.8666468120284683  11.899999999999997 -1.1529051812009943 -1.8907112292688177  11.9 -0.76868225975690574 -1.8986715792853879  11.899999999999999 -0.38433239824101717 -1.8987043505859811  11.9 -0.12809305722704512 -1.898689779151191  11.9 0 -1.8999999999999999 
 0 4 0.090909090909090912 1 0.18181818181818182 1 0.27272727272727271 1 0.36363636363636365 1 0.45454545454545459 1 0.54545454545454541 1 0.63636363636363635 1 0.72727272727272729 1 0.81818181818181823 1 0.90909090909090917 1 1 4
Polygon3D 0
PolygonOnTriangulations 0
Surfaces 6
9 0 0 0 0 3 3 14 4 12 2 0.10000000000000012 0 -1.8999999999999999  4.0333333333333332 0 -1.8999999999999999  7.9666666666666677 0 -1.8999999999999999  11.9 0 -1.8999999999999999  
0.10000000000000012 0.1280930572270452 -1.898689779151191  4.0333333333333332 0.12809305722704517 -1.898689779151191  7.9666666666666686 0.12809305722704517 -1.898689779151191  11.9 0.1280930572270452 -1.898689779151191  
0.10000000000000012 0.38433239824101723 -1.898704350585982  4.0333333392027262 0.38433239939294978 -1.89870435024539  7.9666666607972791 0.38433239939294978 -1.89870435024539  11.900000000000002 0.38433239824101723 -1.898704350585982  
0.10000000000000009 0.76868225975690541 -1.8986715792853865  4.0333333259822028 0.76868225823863601 -1.8986715798654665  7.9666666740177927 0.76868225823863601 -1.8986715798654665  11.899999999999997 0.76868225975690541 -1.8986715792853865  
0.10000000000000012 1.1529051812009936 -1.8907112292688188  4.0333333403669345 1.1529051828382675 -1.8907112283608927  7.9666666596330664 1.1529051828382675 -1.8907112283608927  11.899999999999999 1.1529051812009936 -1.8907112292688188  
0.10000000000000012 1.5367047248912138 -1.8666468120284689  4.0333333283121755 1.536704723348743 -1.8666468133470295  7.966666671687828 1.536704723348743 -1.8666468133470295  11.900000000000004 1.5367047248912138 -1.8666468120284689  
0.10000000000000012 1.9177732328310768 -1.8114546849059399  4.033333335149579 1.9177732341452252 -1.8114546831328191  7.9666666648504183 1.9177732341452252 -1.8114546831328191  11.9 1.9177732328310768 -1.8114546849059399  
0.10000000000000012 2.287790394004626 -1.7008356587465998  4.0333333351495799 2.2877903929635344 -1.7008356609434649  7.966666664850421 2.2877903929635344 -1.7008356609434649  11.9 2.287790394004626 -1.7008356587465998  
0.10000000000000009 2.6186348456905502 -1.4891322096413637  4.0333333283121746 2.6186348464783951 -1.4891322071530801  7.9666666716878245 2.6186348464783951 -1.4891322071530801  11.900000000000002 2.6186348456905502 -1.4891322096413637  
0.10000000000000013 2.8224000800951976 -1.1510398519746259  4.0333333403669354 2.8224000795143831 -1.15103985451696  7.9666666596330664 2.8224000795143831 -1.15103985451696  11.900000000000004 2.8224000800951976 -1.1510398519746259  
0.10000000000000007 2.8899737717843119 -0.76855264297831816  4.0333333259822046 2.8899737721991259 -0.76855264069473517  7.9666666740177963 2.8899737721991259 -0.76855264069473517  11.899999999999999 2.8899737717843119 -0.76855264297831816  
0.10000000000000002 2.9002573788266126 -0.38468315120263957  4.0333333392027235 2.9002573785553074 -0.38468315290061067  7.9666666607972729 2.9002573785553074 -0.38468315290061067  11.899999999999999 2.9002573788266126 -0.38468315120263957  
0.10000000000000002 2.8969483638510889 -0.1280634042389095  4.0333333333333332 2.8969483638510889 -0.1280634042389095  7.9666666666666677 2.8969483638510889 -0.1280634042389095  11.9 2.8969483638510889 -0.1280634042389095  
0.10000000000000001 2.8999999999999999 0  4.0333333333333332 2.8999999999999999 0  7.9666666666666677 2.8999999999999999 0  11.9 2.8999999999999999 0  

0 4
0.090909090909090912 1
0.18181818181818182 1
0.27272727272727271 1
0.36363636363636365 1
0.45454545454545459 1
0.54545454545454541 1
0.63636363636363635 1
0.72727272727272729 1
0.81818181818181823 1
0.90909090909090917 1
1 4

0 4
1 4

9 0 0 0 0 3 3 14 4 12 2 0.10000000000000001 -2.8999999999999999 0  4.0333333333333332 -2.8999999999999999 0  7.9666666666666677 -2.8999999999999999 0  11.9 -2.8999999999999999 0  
0.10000000000000002 -2.8969483638510889 -0.12806340423890963  4.0333333333333332 -2.8969483638510889 -0.12806340423890963  7.9666666666666694 -2.8969483638510889 -0.12806340423890963  11.900000000000002 -2.8969483638510889 -0.12806340423890963  
0.10000000000000006 -2.9002573788266148 -0.38468315120264018  4.0333333392027262 -2.9002573785553101 -0.38468315290061128  7.9666666607972756 -2.9002573785553101 -0.38468315290061128  11.900000000000002 -2.9002573788266148 -0.38468315120264018  
0.10000000000000005 -2.8899737717843119 -0.76855264297831882  4.0333333259822046 -2.8899737721991263 -0.76855264069473561  7.9666666740177972 -2.8899737721991263 -0.76855264069473561  11.899999999999999 -2.8899737717843119 -0.76855264297831882  
0.10000000000000005 -2.8224000800951963 -1.1510398519746246  4.0333333403669336 -2.8224000795143818 -1.1510398545169589  7.966666659633062 -2.8224000795143818 -1.1510398545169589  11.899999999999999 -2.8224000800951963 -1.1510398519746246  
0.1000000000000001 -2.618634845690551 -1.4891322096413637  4.0333333283121746 -2.6186348464783959 -1.4891322071530804  7.966666671687828 -2.6186348464783959 -1.4891322071530804  11.899999999999999 -2.618634845690551 -1.4891322096413637  
0.10000000000000009 -2.2877903940046247 -1.7008356587465996  4.033333335149579 -2.2877903929635321 -1.7008356609434643  7.9666666648504156 -2.2877903929635321 -1.7008356609434643  11.899999999999995 -2.2877903940046247 -1.7008356587465996  
0.10000000000000012 -1.917773232831077 -1.8114546849059396  4.033333335149579 -1.9177732341452258 -1.8114546831328193  7.9666666648504219 -1.9177732341452258 -1.8114546831328193  11.900000000000002 -1.917773232831077 -1.8114546849059396  
0.10000000000000013 -1.536704724891214 -1.8666468120284683  4.0333333283121755 -1.5367047233487432 -1.8666468133470289  7.9666666716878254 -1.5367047233487432 -1.8666468133470289  11.900000000000002 -1.536704724891214 -1.8666468120284683  
0.10000000000000009 -1.1529051812009943 -1.8907112292688177  4.0333333403669345 -1.1529051828382684 -1.8907112283608918  7.9666666596330664 -1.1529051828382684 -1.8907112283608918  11.899999999999997 -1.1529051812009943 -1.8907112292688177  
0.10000000000000014 -0.76868225975690574 -1.8986715792853879  4.0333333259822055 -0.76868225823863634 -1.8986715798654676  7.9666666740177972 -0.76868225823863634 -1.8986715798654676  11.9 -0.76868225975690574 -1.8986715792853879  
0.10000000000000009 -0.38433239824101717 -1.8987043505859811  4.0333333392027235 -0.38433239939294978 -1.8987043502453893  7.9666666607972729 -0.38433239939294978 -1.8987043502453893  11.899999999999999 -0.38433239824101717 -1.8987043505859811  
0.10000000000000012 -0.12809305722704512 -1.898689779151191  4.0333333333333332 -0.12809305722704512 -1.898689779151191  7.9666666666666677 -0.12809305722704512 -1.898689779151191  11.9 -0.12809305722704512 -1.898689779151191  
0.10000000000000012 0 -1.8999999999999999  4.0333333333333332 0 -1.8999999999999999  7.9666666666666677 0 -1.8999999999999999  11.9 0 -1.8999999999999999  

0 4
0.090909090909090912 1
0.18181818181818182 1
0.27272727272727271 1
0.36363636363636365 1
0.45454545454545459 1
0.54545454545454541 1
0.63636363636363635 1
0.72727272727272729 1
0.81818181818181823 1
0.90909090909090917 1
1 4

0 4
1 4

9 0 0 0 0 3 3 14 4 12 2 0.10000000000000001 2.8999999999999999 0  4.0333333333333332 2.8999999999999999 0  7.9666666666666677 2.8999999999999999 0  11.9 2.8999999999999999 0  
0.10000000000000001 2.8969483638510889 0.12806340423890963  4.0333333333333332 2.8969483638510889 0.12806340423890963  7.9666666666666694 2.8969483638510889 0.12806340423890963  11.900000000000002 2.8969483638510889 0.12806340423890963  
0.10000000000000001 2.9002573788266148 0.38468315120264018  4.0333333392027262 2.9002573785553101 0.38468315290061128  7.9666666607972756 2.9002573785553101 0.38468315290061128  11.900000000000002 2.9002573788266148 0.38468315120264018  
0.099999999999999964 2.8899737717843119 0.76855264297831882  4.0333333259822046 2.8899737721991263 0.76855264069473561  7.9666666740177972 2.8899737721991263 0.76855264069473561  11.899999999999999 2.8899737717843119 0.76855264297831882  
0.099999999999999867 2.8224000800951963 1.1510398519746246  4.0333333403669327 2.8224000795143818 1.1510398545169589  7.966666659633062 2.8224000795143818 1.1510398545169589  11.899999999999999 2.8224000800951963 1.1510398519746246  
0.09999999999999995 2.618634845690551 1.4891322096413637  4.0333333283121737 2.6186348464783959 1.4891322071530804  7.966666671687828 2.6186348464783959 1.4891322071530804  11.899999999999999 2.618634845690551 1.4891322096413637  
0.099999999999999867 2.2877903940046247 1.7008356587465996  4.0333333351495773 2.2877903929635321 1.7008356609434643  7.9666666648504156 2.2877903929635321 1.7008356609434643  11.899999999999995 2.2877903940046247 1.7008356587465996  
0.099999999999999867 1.917773232831077 1.8114546849059396  4.0333333351495799 1.9177732341452258 1.8114546831328193  7.9666666648504219 1.9177732341452258 1.8114546831328193  11.900000000000002 1.917773232831077 1.8114546849059396  
0.099999999999999922 1.536704724891214 1.8666468120284683  4.0333333283121746 1.5367047233487432 1.8666468133470289  7.9666666716878254 1.5367047233487432 1.8666468133470289  11.900000000000002 1.536704724891214 1.8666468120284683  
0.099999999999999867 1.1529051812009943 1.8907112292688177  4.0333333403669336 1.1529051828382684 1.8907112283608918  7.9666666596330664 1.1529051828382684 1.8907112283608918  11.899999999999997 1.1529051812009943 1.8907112292688177  
0.099999999999999922 0.76868225975690574 1.8986715792853879  4.0333333259822046 0.76868225823863634 1.8986715798654676  7.9666666740177972 0.76868225823863634 1.8986715798654676  11.9 0.76868225975690574 1.8986715792853879  
0.099999999999999881 0.38433239824101717 1.8987043505859811  4.0333333392027235 0.38433239939294978 1.8987043502453893  7.9666666607972729 0.38433239939294978 1.8987043502453893  11.899999999999999 0.38433239824101717 1.8987043505859811  
0.099999999999999895 0.12809305722704512 1.898689779151191  4.0333333333333323 0.12809305722704512 1.898689779151191  7.9666666666666677 0.12809305722704512 1.898689779151191  11.9 0.12809305722704512 1.898689779151191  
0.099999999999999895 0 1.8999999999999999  4.0333333333333323 0 1.8999999999999999  7.9666666666666677 0 1.8999999999999999  11.9 0 1.8999999999999999  

0 4
0.090909090909090912 1
0.18181818181818182 1
0.27272727272727271 1
0.36363636363636365 1
0.45454545454545459 1
0.54545454545454541 1
0.63636363636363635 1
0.72727272727272729 1
0.81818181818181823 1
0.90909090909090917 1
1 4

0 4
1 4

9 0 0 0 0 3 3 14 4 12 2 0.099999999999999895 0 1.8999999999999999  4.0333333333333323 0 1.8999999999999999  7.9666666666666677 0 1.8999999999999999  11.9 0 1.8999999999999999  
0.099999999999999895 -0.1280930572270452 1.898689779151191  4.0333333333333323 -0.12809305722704517 1.898689779151191  7.9666666666666686 -0.12809305722704517 1.898689779151191  11.9 -0.1280930572270452 1.898689779151191  
0.099999999999999908 -0.38433239824101723 1.898704350585982  4.0333333392027253 -0.38433239939294978 1.89870435024539  7.9666666607972791 -0.38433239939294978 1.89870435024539  11.900000000000002 -0.38433239824101723 1.898704350585982  
0.099999999999999853 -0.76868225975690541 1.8986715792853865  4.0333333259822037 -0.76868225823863601 1.8986715798654665  7.9666666740177927 -0.76868225823863601 1.8986715798654665  11.899999999999997 -0.76868225975690541 1.8986715792853865  
0.099999999999999922 -1.1529051812009936 1.8907112292688188  4.0333333403669327 -1.1529051828382675 1.8907112283608927  7.9666666596330664 -1.1529051828382675 1.8907112283608927  11.899999999999999 -1.1529051812009936 1.8907112292688188  
0.099999999999999895 -1.5367047248912138 1.8666468120284689  4.0333333283121755 -1.536704723348743 1.8666468133470295  7.966666671687828 -1.536704723348743 1.8666468133470295  11.900000000000004 -1.5367047248912138 1.8666468120284689  
0.099999999999999895 -1.9177732328310768 1.8114546849059399  4.033333335149579 -1.9177732341452252 1.8114546831328191  7.9666666648504183 -1.9177732341452252 1.8114546831328191  11.9 -1.9177732328310768 1.8114546849059399  
0.099999999999999881 -2.287790394004626 1.7008356587465998  4.0333333351495799 -2.2877903929635344 1.7008356609434649  7.966666664850421 -2.2877903929635344 1.7008356609434649  11.9 -2.287790394004626 1.7008356587465998  
0.099999999999999922 -2.6186348456905502 1.4891322096413637  4.0333333283121737 -2.6186348464783951 1.4891322071530801  7.9666666716878245 -2.6186348464783951 1.4891322071530801  11.900000000000002 -2.6186348456905502 1.4891322096413637  
0.09999999999999995 -2.8224000800951976 1.1510398519746259  4.0333333403669362 -2.8224000795143831 1.15103985451696  7.9666666596330664 -2.8224000795143831 1.15103985451696  11.900000000000004 -2.8224000800951976 1.1510398519746259  
0.099999999999999964 -2.8899737717843119 0.76855264297831816  4.0333333259822046 -2.8899737721991259 0.76855264069473517  7.9666666740177963 -2.8899737721991259 0.76855264069473517  11.899999999999999 -2.8899737717843119 0.76855264297831816  
0.099999999999999936 -2.9002573788266126 0.38468315120263957  4.0333333392027235 -2.9002573785553074 0.38468315290061067  7.9666666607972729 -2.9002573785553074 0.38468315290061067  11.899999999999999 -2.9002573788266126 0.38468315120263957  
0.10000000000000001 -2.8969483638510889 0.1280634042389095  4.0333333333333332 -2.8969483638510889 0.1280634042389095  7.9666666666666677 -2.8969483638510889 0.1280634042389095  11.9 -2.8969483638510889 0.1280634042389095  
0.10000000000000001 -2.8999999999999999 0  4.0333333333333332 -2.8999999999999999 0  7.9666666666666677 -2.8999999999999999 0  11.9 -2.8999999999999999 0  

0 4
0.090909090909090912 1
0.18181818181818182 1
0.27272727272727271 1
0.36363636363636365 1
0.45454545454545459 1
0.54545454545454541 1
0.63636363636363635 1
0.72727272727272729 1
0.81818181818181823 1
0.90909090909090917 1
1 4

0 4
1 4

1 0.10000000000000012 0 -1.8999999999999999 1 0 6.123233995736766e-17 -5.0386919906991288e-17 0.56821396313575978 0.82288084927135929 -3.479307055925202e-17 -0.82288084927135929 0.56821396313575978 
1 11.9 0 -1.8999999999999999 1 0 6.123233995736766e-17 -5.0386919906991288e-17 0.56821396313575978 0.82288084927135929 -3.479307055925202e-17 -0.82288084927135929 0.56821396313575978 
Triangulations 0

TShapes 34
Ve
1e-07
0.1 0 -1.9
0 0

0101101
*
Ve
1e-07
11.9 0 -1.9
0 0

0101101
*
Ed
 1e-07 1 1 0
1  1 0 0 1
2  1 1 0 0 1
2  2 2 0 0 1
0

0101000
+34 0 -33 0 *
Ve
1e-07
0.1 2.9 0
0 0

0101101
*
Ed
 1e-07 1 1 0
1  2 0 0 1
2  3 1 0 0 1
0

0101000
+34 0 -31 0 *
Ve
1e-07
11.9 2.9 0
0 0

0101101
*
Ed
 1e-07 1 1 0
1  3 0 0 1
2  2 1 0 0 1
2  1 3 0 0 1
0

0101000
+31 0 -29 0 *
Ed
 1e-07 1 1 0
1  4 0 0 1
2  4 1 0 0 1
0

0101000
+33 0 -29 0 *
Wi

0101100
-32 0 +30 0 +28 0 -27 0 *
Fa
0  1e-07 1 0

0111000
+26 0 *
Ve
1e-07
0.0999999999999999 0 1.9
0 0

0101101
*
Ed
 1e-07 1 1 0
1  5 0 0 1
2  3 3 0 0 1
0

0101000
+31 0 -24 0 *
Ve
1e-07
11.9 0 1.9
0 0

0101101
*
Ed
 1e-07 1 1 0
1  6 0 0 1
2  2 3 0 0 1
2  1 4 0 0 1
0

0101000
+24 0 -22 0 *
Ed
 1e-07 1 1 0
1  7 0 0 1
2  4 3 0 0 1
0

0101000
+29 0 -22 0 *
Wi

0101100
-28 0 +23 0 +21 0 -20 0 *
Fa
0  1e-07 3 0

0111000
+19 0 *
Ve
1e-07
0.1 -2.9 0
0 0

0101101
*
Ed
 1e-07 1 1 0
1  8 0 0 1
2  3 4 0 0 1
0

0101000
+24 0 -17 0 *
Ve
1e-07
11.9 -2.9 0
0 0

0101101
*
Ed
 1e-07 1 1 0
1  9 0 0 1
2  2 4 0 0 1
2  1 2 0 0 1
0

0101000
+17 0 -15 0 *
Ed
 1e-07 1 1 0
1  10 0 0 1
2  4 4 0 0 1
0

0101000
+22 0 -15 0 *
Wi

0101100
-21 0 +16 0 +14 0 -13 0 *
Fa
0  1e-07 4 0

0111000
+12 0 *
Ed
 1e-07 1 1 0
1  11 0 0 1
2  3 2 0 0 1
0

0101000
+17 0 -34 0 *
Ed
 1e-07 1 1 0
1  12 0 0 1
2  4 2 0 0 1
0

0101000
+15 0 -33 0 *
Wi

0101100
-14 0 +10 0 +32 0 -9 0 *
Fa
0  1e-07 2 0

0111000
+8 0 *
Wi

0101100
+30 0 +23 0 +16 0 +10 0 *
Fa
0  1e-07 5 0

0111000
+6 0 *
Wi

0101100
+27 0 +20 0 +13 0 +9 0 *
Fa
0  1e-07 6 0

0111000
+4 0 *
Sh

0101000
+25 0 +18 0 +11 0 +7 0 -5 0 +3 0 *
So

1100000
+2 0 *

+1 0 