DBRep_DrawableShape

CASCADE Topology V1, (c) Matra-Datavision
Locations 0
Curve2ds 23
7 0 0  3 25 23  5.1858995450365937 0.55831239331455595  5.1592318157501325 0.53516372262472256  5.10882630618734 0.4874190860683788  5.0408010337492648 0.41213396548318493  4.9791008824723235 0.3339099646993372  4.9226465362839908 0.25328188906452281  4.8704825442184632 0.17069328212460311  4.8217755197964092 0.086499723888334767  4.7757878239141869 0.00099329307125977187  4.7318538298477497 -0.085583588159939369  4.6893538878596344 -0.1730254164640152  4.6476872337137083 -0.26115348270330874  4.606241709416607 -0.34980694600374029  4.5643573544970302 -0.43883446022457662  4.5212789207460329 -0.52808539150030309  4.4760888763067026 -0.61739930022812362  4.4276076744604831 -0.70659198154845948  4.3742330885485199 -0.79543363574461001  4.3136839395149638 -0.88361650363577204  4.2425155703220252 -0.9706850575140934  4.155396434657737 -1.0559538322258435  4.0432007928013238 -1.1381565123814157  3.8916325429775775 -1.215416426654091  3.7449707912499552 -1.260146450863177  3.6560965416498123 -1.2801062713308746 
 4.0839567002859898 4 4.1839216369629719 1 4.2838865736399532 1 4.3838515103169353 1 4.4838164469939175 1 4.5837813836708987 1 4.6837463203478809 1 4.7837112570248621 1 4.8836761937018442 1 4.9836411303788264 1 5.0836060670558076 1 5.1835710037327898 1 5.2835359404097719 1 5.3835008770867532 1 5.4834658137637353 1 5.5834307504407175 1 5.6833956871176987 1 5.7833606237946809 1 5.883325560471663 1 5.9832904971486442 1 6.0832554338256264 1 6.1832203705026085 1 6.2831853071795898 4
7 0 0  3 25 23  3.6560965416498252 -1.2801062713308722  3.5568168765089108 -1.306866773800077  3.2568706695472418 -1.3437875899265035  2.6883727899665182 -1.3500074605081698  2.2343323881869219 -1.2956254250625789  1.9616965600145957 -1.2114801095358565  1.7847219791350812 -1.1135596959931178  1.6613442765337103 -1.0090128102187839  1.5676082287746065 -0.90098482910519351  1.4916116016807457 -0.7910758423880202  1.426472227555013 -0.68017807786271056  1.3680739794381065 -0.56885567910910251  1.3137090916507597 -0.45750892802325033  1.2614619820171173 -0.34645998610891243  1.2098500735609019 -0.23600113629096828  1.1576165817901169 -0.12642722407654772  1.1035930263950362 -0.018061772428204982  1.0465983473593279 0.088717294579844438  0.98535441586946981 0.193448732880034  0.91840801588685927 0.29555030246594316  0.84405716412501408 0.3942753542007989  0.76028834685419422 0.48863438161822437  0.66475674149030495 0.57737484260177074  0.59148695466861345 0.63156983454899851  0.55203414213570579 0.6571485703127089 
 0 4 0.12464191199546727 1 0.24928382399093454 1 0.37392573598640183 1 0.49856764798186909 1 0.6232095599773364 1 0.74785147197280366 1 0.87249338396827092 1 0.99713529596373818 1 1.1217772079592054 1 1.2464191199546728 1 1.37106103195014 1 1.4957029439456073 1 1.6203448559410745 1 1.7449867679365418 1 1.869628679932009 1 1.9942705919274764 1 2.1189125039229437 1 2.2435544159184109 1 2.368196327913878 1 2.4928382399093456 1 2.6174801519048128 1 2.7421220639002799 4
7 0 0  3 25 23  5.1451725438803244 0.53639498165812305  5.092079337835056 0.48204620353057076  4.9992552072905649 0.36742716596160824  4.8903715154403553 0.18222012767933679  4.8007538328744666 -0.010987063991615456  4.7240482039477705 -0.20968936335700553  4.6540660476677989 -0.41199287856652905  4.5897591474078929 -0.61699331104370592  4.5126395598011975 -0.82269884395901283  4.4621297680928631 -1.0322034636406137  4.2319255581621871 -1.229290170914656  4.4017565599503445 -1.4649872067440481  1.5341447188531276 -1.4928095172093381  1.5757408685436562 -1.2479868816981372  1.3649660695581893 -1.0538889964046145  1.305341207179529 -0.84363310873794894  1.2294304466569024 -0.63801661183306957  1.1646443481436819 -0.43276664092192002  1.0953073291143083 -0.2301735989988076  1.0195293661553819 -0.031038029465031595  0.93154977737492128 0.16287738630990833  0.82482044107633534 0.34889533623791175  0.69000784209964117 0.52310080192322783  0.57178490681928995 0.62579175904707651  0.50342314479208028 0.67259447628584379 
 0.95711279616399703 4 1.1803788494302845 1 1.4036449026965718 1 1.6269109559628592 1 1.8501770092291467 1 2.0734430624954339 1 2.2967091157617214 1 2.519975169028009 1 2.7432412222942961 1 2.9665072755605837 1 3.1897733288268708 1 3.4130393820931584 1 3.6363054353594459 1 3.8595714886257331 1 4.0828375418920206 1 4.3061035951583078 1 4.5293696484245958 1 4.7526357016908829 1 4.9759017549571709 1 5.199167808223458 1 5.4224338614897452 1 5.6456999147560332 1 5.8689659680223203 4
7 0 0  3 25 23  2.4213048358314015 1.2683382729548156  2.4424236204051635 1.2696620750621255  2.4851117314555284 1.2720650705167698  2.5502523021700005 1.2749125681893765  2.6162693418917042 1.2769776252888088  2.6828914129562373 1.2782427621715797  2.7498303242794164 1.2786966557996877  2.8167863208749933 1.2783352672064854  2.8834592924394076 1.2771618300502019  2.9495586560581755 1.2751867643764718  3.0148128103902305 1.2724272391260742  3.0789769694570261 1.26890650113277  3.1418389977121954 1.2646530104437359  3.2032229805931967 1.2596994591564714  3.2629905734591333 1.2540817449499662  3.3210403769585506 1.2478379648432179  3.3773057305293253 1.2410074811314058  3.4317513784105111 1.2336300949922194  3.4843694483828651 1.2257453500180475  3.5351751579019615 1.2173919646194324  3.5842024744221002 1.2086074175709181  3.6315002714749758 1.1994275697429646  3.6771279401225514 1.1898867010534335  3.7064792783506029 1.1833065493104491  3.7208992686190214 1.1799669819400112 
 4.4032867792108998 4 4.4324462990530247 1 4.4616058188951486 1 4.4907653387372735 1 4.5199248585793983 1 4.5490843784215222 1 4.5782438982636471 1 4.6074034181057719 1 4.6365629379478959 1 4.6657224577900207 1 4.6948819776321455 1 4.7240414974742695 1 4.7532010173163943 1 4.7823605371585192 1 4.811520057000644 1 4.840679576842768 1 4.8698390966848928 1 4.8989986165270176 1 4.9281581363691416 1 4.9573176562112664 1 4.9864771760533912 1 5.0156366958955152 1 5.04479621573764 4
7 0 0  3 25 23  3.703122850429569 1.1719074455004972  3.6893213253180708 1.1754566161554219  3.6612201536404392 1.1824683425465665  3.6174907182979226 1.1926949814865755  3.5720989401855689 1.2026004200352076  3.5249648845452306 1.2121514119370427  3.4760151081822421 1.2213127436372901  3.4251863208176925 1.2300470391345679  3.3724292979267503 1.2383150015544069  3.3177134414877862 1.2460756731989191  3.2610317463630558 1.2532868528351349  3.2024059830629881 1.2599056564009832  3.1418917542258669 1.2658892404935169  3.0795829781125921 1.2711956861157037  3.0156152554324098 1.2757850273356801  2.9501675314989821 1.2796203896170559  2.883461505141355 1.282669181234467  2.8157583673219548 1.2849042645182405  2.7473527423215121 1.2863050113219294  2.6785638967407799 1.286858178824712  2.6097251859429349 1.2865584225899416  2.5411710212680632 1.2854087693806806  2.4732283311442611 1.2834196054655502  2.4285371514842939 1.2815475301047914  2.4063931695520964 1.2804779432947575 
 4.4032867792108998 4 4.4324462990530247 1 4.4616058188951486 1 4.4907653387372735 1 4.5199248585793983 1 4.5490843784215222 1 4.5782438982636471 1 4.6074034181057719 1 4.6365629379478959 1 4.6657224577900207 1 4.6948819776321455 1 4.7240414974742695 1 4.7532010173163943 1 4.7823605371585192 1 4.811520057000644 1 4.840679576842768 1 4.8698390966848928 1 4.8989986165270176 1 4.9281581363691416 1 4.9573176562112664 1 4.9864771760533912 1 5.0156366958955152 1 5.04479621573764 4
7 0 0  3 25 23  0.55203414213570434 0.65714857031272444  0.57035980017485355 0.66573898976687118  0.60711118968438527 0.68326561240613315  0.66267440418472912 0.71051666953987025  0.71880101554264197 0.73865380798263081  0.77564854200251854 0.7675978343357408  0.83339899341790591 0.79726617757938856  0.89226623022145402 0.82757174953302226  0.95250124465224362 0.85842197474471549  1.0143997755140859 0.88971734196114682  1.0783114666149232 0.92134953113643503  1.1446512041205827 0.9531989425747992  1.2139128583711472 0.9851314653921206  1.2866855953834588 1.0169942584454028  1.3636724912569886 1.048610265974746  1.4457102297500377 1.0797711462490207  1.533786955330694 1.1102282883512637  1.6290512965905717 1.1396817358206708  1.7328015663070675 1.1677671770697544  1.8464267152068257 1.1940423878878703  1.9712874822093869 1.2179755456597228  2.1084080922152064 1.2389446785671832  2.2582689297079055 1.2562489371548353  2.3657822442210841 1.2648721536235121  2.4213048358314291 1.2683382729548174 
 9.0040922542589303 4 9.0805640648103658 1 9.1570358753617995 1 9.233507685913235 1 9.3099794964646705 1 9.386451307016106 1 9.4629231175675397 1 9.5393949281189752 1 9.6158667386704106 1 9.6923385492218461 1 9.7688103597732798 1 9.8452821703247153 1 9.9217539808761508 1 9.9982257914275845 1 10.07469760197902 1 10.151169412530455 1 10.227641223081891 1 10.304113033633325 1 10.38058484418476 1 10.457056654736196 1 10.533528465287631 1 10.610000275839065 1 10.6864720863905 4
7 0 0  3 25 23  5.1451725438803191 0.5363949816581326  5.1271607306682316 0.54307324839536408  5.0911571860884486 0.55689104190194472  5.0371563714437482 0.57893747933010975  4.9831090001827345 0.60224060452548656  4.9289476178299303 0.62673395074256777  4.8745923979104084 0.6523489907821961  4.8199480870900064 0.67901483865127099  4.7649023869188198 0.70665826132083098  4.7093233580374623 0.73520345243070229  4.6530563300591936 0.7645716846010735  4.595919984478412 0.79468077016771299  4.5377014471914379 0.82544429796037722  4.4781501213132735 0.85677058637368031  4.4169699500228372 0.88856127731220935  4.3538097318996698 0.92070946591744374  4.2882510775462137 0.95309723312380423  4.2197935383843763 0.98559237269905464  4.1478367317638209 1.0180441519209964  4.0716589146607003 1.050277479144861  3.9903949646223644 1.0820862663845527  3.9030085870825637 1.113221209865523  3.8082943026346499 1.1433879327923326  3.7393066361937048 1.1625924742699238  3.7031228504295495 1.1719074455005021 
 9.0040922542589303 4 9.0805640648103658 1 9.1570358753617995 1 9.233507685913235 1 9.3099794964646705 1 9.386451307016106 1 9.4629231175675397 1 9.5393949281189752 1 9.6158667386704106 1 9.6923385492218461 1 9.7688103597732798 1 9.8452821703247153 1 9.9217539808761508 1 9.9982257914275845 1 10.07469760197902 1 10.151169412530455 1 10.227641223081891 1 10.304113033633325 1 10.38058484418476 1 10.457056654736196 1 10.533528465287631 1 10.610000275839065 1 10.6864720863905 4
7 0 0  3 25 23  3.7208992686190214 1.1799669819400112  3.7581891569262731 1.1713233553165019  3.829373631045192 1.1533945461128914  3.9272390805605863 1.1249561569984814  4.0175088879037064 1.0953794930123881  4.1013552647309703 1.0649755270240699  4.1798063589765571 1.0340082746192496  4.2537393968569965 1.0026963798122548  4.3238961015343662 0.97122513054842619  4.3909000923617167 0.93975328979117068  4.4552751810227527 0.90841918417795531  4.5174618431350764 0.87734522771867751  4.5778314494674399 0.84664145940379421  4.6366981486420302 0.8164082461329738  4.6943286279274448 0.78673835665728842  4.7509500448796302 0.7577185427441242  4.8067564356885333 0.72943073727447238  4.8619138727880973 0.70195294965026178  4.9165646211285043 0.67535992248259358  4.9708304459753174 0.64972358639048633  5.0248154031527603 0.6251133832468736  5.0786076169575427 0.60159635371561748  5.132282496881837 0.57923750008746944  5.1680266585263324 0.56514490930886851  5.1858995450365857 0.55831239331454285 
 5.04479621573764 4 5.120208706553659 1 5.195621197369678 1 5.271033688185697 1 5.3464461790017168 1 5.4218586698177358 1 5.4972711606337548 1 5.5726836514497737 1 5.6480961422657927 1 5.7235086330818117 1 5.7989211238978307 1 5.8743336147138496 1 5.9497461055298695 1 6.0251585963458885 1 6.1005710871619074 1 6.1759835779779264 1 6.2513960687939454 1 6.3268085596099652 1 6.4022210504259842 1 6.4776335412420032 1 6.5530460320580222 1 6.6284585228740411 1 6.7038710136900601 4
7 0 0  3 25 23  2.4063931695520964 1.2804779432947575  2.348965803498448 1.2777216297600069  2.2373242539412619 1.2704017370014113  2.0809602760059303 1.2547149061799818  1.9377899125056981 1.2350236826542631  1.8076807889792956 1.21207338781925  1.6897332049936953 1.186534650537558  1.5825542393609053 1.1589862963888251  1.4846550632124966 1.1299094115491954  1.3946164038324493 1.0996985948259659  1.3111731426350941 1.0686763363650593  1.2332351500599366 1.0371075320058483  1.1598808203935258 1.0052119919880762  1.0903382164514968 0.9731746335854834  1.0239630993257292 0.94115349497344214  0.96021780635860754 0.90928593152759918  0.89865264498141073 0.87769336387507035  0.83889021199174341 0.84648490140176103  0.78061248262695848 0.81576010514718733  0.72355040683164429 0.78561108147462333  0.66747530511156494 0.75612410007488318  0.61219286332317058 0.72738070013595835  0.55753503424272832 0.69945893315192254  0.52142226698463912 0.68144144759145542  0.50342314479208206 0.67259447628583446 
 5.04479621573764 4 5.120208706553659 1 5.195621197369678 1 5.271033688185697 1 5.3464461790017168 1 5.4218586698177358 1 5.4972711606337548 1 5.5726836514497737 1 5.6480961422657927 1 5.7235086330818117 1 5.7989211238978307 1 5.8743336147138496 1 5.9497461055298695 1 6.0251585963458885 1 6.1005710871619074 1 6.1759835779779264 1 6.2513960687939454 1 6.3268085596099652 1 6.4022210504259842 1 6.4776335412420032 1 6.5530460320580222 1 6.6284585228740411 1 6.7038710136900601 4
7 0 0  3 25 23  2.9504334456696579 0.12760159287303421  2.947151983593141 0.11965556157159875  2.9399051652769579 0.10404629483026329  2.9270776600104078 0.081648121533766424  2.9123833726485913 0.060435691813799194  2.8959264803890239 0.040569651075951403  2.8778212892179518 0.022203233557028433  2.8581942324212566 0.005480247445649779  2.8371841214396802 -0.0094660698509861484  2.8149424673758752 -0.022514578245294379  2.7916332671055635 -0.033557742628557173  2.7674323273095602 -0.042503147638402614  2.7425260584873428 -0.049274919730547692  2.7171097585638737 -0.05381498558160009  2.6913854369213688 -0.056084091141786904  2.665559274763341 -0.056062518923846241  2.6398388530714776 -0.053750456333367155  2.6144302983851055 -0.049167994299510985  2.5895355214483899 -0.042354743411607235  2.5653496526090791 -0.033369140862479725  2.5420589888318403 -0.022287313356700048  2.5198388568677537 -0.009202236172804034  2.4988540209149068 0.0057792634480459803  2.4857860275681496 0.016947857511242975  2.4795079165979264 0.022807414805228444 
 3.7353746129423699 4 3.8265969971175493 1 3.9178193812927291 1 4.0090417654679085 1 4.1002641496430883 1 4.1914865338182681 1 4.282708917993447 1 4.3739313021686268 1 4.4651536863438066 1 4.5563760705189864 1 4.6475984546941653 1 4.7388208388693451 1 4.8300432230445249 1 4.9212656072197039 1 5.0124879913948837 1 5.1037103755700635 1 5.1949327597452433 1 5.2861551439204231 1 5.377377528095602 1 5.4685999122707818 1 5.5598222964459616 1 5.6510446806211405 1 5.7422670647963203 4
7 0 0  8 16 3  5.8018421388991701 -0.055579717570446975  5.8218667388264187 -0.084816854811994441  5.845992539620056 -0.11127915776863517  5.8738445126764418 -0.13428554294716832  5.9049192477323231 -0.15321567116654933  5.9385594665036479 -0.16753955021363254  5.9739156899004229 -0.17687926965467682  6.0100513978259524 -0.18106305582790383  6.0820299981101584 -0.17917076366013485  6.1178728542408862 -0.17309468742956824  6.1526434602492373 -0.16191509600452036  6.1854253298588446 -0.14585626019163556  6.2154110233823303 -0.12534127768549297  6.2419888125905345 -0.10093117121547834  6.2646943671475546 -0.073267933496886511  6.2831853071795631 -0.043047481304379055 
 3.7353746129423664 9 4.7388208388693442 7 5.7422670647963221 9
7 0 0  3 25 23  2.4795079165979264 0.022807414805228444  2.4759575647383443 0.026119753084911664  2.4690195776935724 0.032919496082340523  2.459122678992486 0.043617596305494132  2.4497582689465442 0.054787838364639276  2.440947092033225 0.06640258443220344  2.4327088592905746 0.078433439469880184  2.4250621427057748 0.090851191517689514  2.4180244703774445 0.1036259045213411  2.4116123691117473 0.11672696279393656  2.4058414196223215 0.13012312092881589  2.4007263042128759 0.14378254492172488  2.3962808497500347 0.15767284868174397  2.3925180626773148 0.17176112534978633  2.3894501545541722 0.18601397428771346  2.387088556218238 0.20039752436645464  2.3854439190150849 0.21487745441892761  2.3845261011307439 0.22941901171660711  2.3843441390093414 0.2439870297950997  2.3849061972108121 0.25854594574039691  2.3862195155089179 0.27305982204991952  2.3882902779375552 0.28749235996512118  2.3911236807114697 0.30180695957309578  2.3935233354085153 0.31124673790145535  2.3948514994704411 0.31593465816861371 
 5.7422670647963203 4 5.7938443466934126 1 5.845421628590505 1 5.8969989104875973 1 5.9485761923846896 1 6.000153474281781 1 6.0517307561788733 1 6.1033080380759657 1 6.154885319973058 1 6.2064626018701503 1 6.2580398837672426 1 6.3096171656643349 1 6.3611944475614273 1 6.4127717294585196 1 6.4643490113556119 1 6.5159262932527042 1 6.5675035751497965 1 6.619080857046888 1 6.6706581389439803 1 6.7222354208410726 1 6.7738127027381649 1 6.8253899846352573 1 6.8769672665323496 4
7 0 0  8 9 2  -2.3092638912203256e-14 -0.043047481304379055  0.020909614130246723 -0.0088740973069314152  0.036429869825703065 0.028569241383792132  0.046065483217468284 0.068276649861957139  0.049516969601178573 0.10915446684441577  0.046625118055750647 0.1500804677780252  0.037298876900173639 0.18990749989458777  0.021626226635361512 0.22746290412007536  -2.3980817331903381e-14 0.26163628811752287 
 5.7422670647963221 9 6.8769672665323505 9
7 0 0  3 25 23  2.3948514994704428 0.3159346581686141  2.3971987509836836 0.32422587847733036  2.4027008195049664 0.34060828510133578  2.4133567371519362 0.36437394706989307  2.4264040287438302 0.38712371722221489  2.4418017109131931 0.40864999422516868  2.4594844136501983 0.42874776204736403  2.4793559187577188 0.44721698312835856  2.5012861956179862 0.46386560365041257  2.525108425399381 0.47851300697935789  2.5506175529646615 0.49099384525146961  2.5775705421319088 0.50116207208330976  2.6056887708715752 0.50889494902553545  2.6346627245217213 0.51409675024268031  2.6641589188808794 0.51670187397995948  2.6938286936997891 0.51667709057138533  2.7233182496494024 0.51402271698484803  2.752279125765865 0.5087726076224276  2.7803781975879556 0.50099294965303642  2.807306530424821 0.49078002652617347  2.8327859256823622 0.47825698149246504  2.8565748296684816 0.46357051953347383  2.8784659874177159 0.44688534930056101  2.8916914613227949 0.43455240442764703  2.8979336949075734 0.42811336041392417 
 0.59378195935276401 4 0.68500434352794382 1 0.77622672770312362 1 0.86744911187830342 1 0.95867149605348323 1 1.049893880228663 1 1.1411162644038428 1 1.2323386485790226 1 1.3235610327542024 1 1.4147834169293823 1 1.5060058011045621 1 1.5972281852797419 1 1.6884505694549217 1 1.7796729536301015 1 1.8708953378052813 1 1.9621177219804611 1 2.0533401061556411 1 2.1445624903308209 1 2.2357848745060007 1 2.3270072586811805 1 2.4182296428563603 1 2.5094520270315401 1 2.6006744112067199 4
7 0 0  8 16 3  6.2831853071795614 0.26163628811752287  6.2640606472340377 0.29185674031003017  6.2402801424932477 0.31943235694137684  6.2121144784468925 0.34359475055725852  6.18002395604708 0.36361458123269585  6.1447047436849971 0.37884018932800245  6.1071950057648792 0.38878859528216481  6.0686934826494667 0.39324271968864905  5.9920631260579142 0.39122803842124171  5.9539344307277133 0.38475923973510362  5.9171701491395652 0.37286260986070374  5.882933186563605 0.35582196235191077  5.8521851827172213 0.33417416707993652  5.8255477257907842 0.30860153434468884  5.8034208372979474 0.27985129996431696  5.7860280580862966 0.24870042895739719 
 0.59378195935276434 9 1.5972281852797408 7 2.6006744112067168 9
7 0 0  3 25 23  2.8979336949075627 0.42811336041393405  2.8953538902325917 0.44143277383073609  2.8901020403668571 0.4680642112382753  2.8818987112468584 0.50798526134910638  2.8733235647568751 0.54787647737799183  2.8643213438093476 0.58773339750060816  2.8548291049228496 0.62755093104627868  2.8447736362213387 0.66732314544329596  2.8340693419524694 0.7070430896965153  2.8226152434556546 0.74670254357986632  2.8102912079216349 0.78629170036272356  2.7969530280058574 0.82579875033920846  2.782425967232296 0.86520933053643034  2.7664961822171552 0.90450578714777974  2.7488991929463538 0.94366617431892041  2.7293041554734039 0.98266287122904217  2.7072922239263093 1.0214606537827706  2.6823259685232248 1.060013911149678  2.6537070424856655 1.0982627339170934  2.6205112286184011 1.1361266321495167  2.5815090985871905 1.173496871409492  2.5349930336883251 1.2102177581216684  2.4787360031003942 1.2460830155562086  2.432344223558589 1.2691830706340468  2.4063931695520964 1.2804779432947542 
 6.3262327884839298 4 6.3668065057529315 1 6.4073802230219323 1 6.447953940290934 1 6.4885276575599349 1 6.5291013748289366 1 6.5696750920979383 1 6.6102488093669391 1 6.6508225266359409 1 6.6913962439049417 1 6.7319699611739434 1 6.7725436784429451 1 6.813117395711946 1 6.8536911129809477 1 6.8942648302499485 1 6.9348385475189502 1 6.975412264787952 1 7.0159859820569528 1 7.0565596993259545 1 7.0971334165949553 1 7.1377071338639571 1 7.1782808511329588 1 7.2188545684019596 4
7 0 0  3 25 23  2.8979336949075627 0.42811336041393405  2.8953538902325917 0.44143277383073609  2.8901020403668571 0.4680642112382753  2.8818987112468584 0.50798526134910638  2.8733235647568751 0.54787647737799183  2.8643213438093476 0.58773339750060816  2.8548291049228496 0.62755093104627868  2.8447736362213387 0.66732314544329596  2.8340693419524694 0.7070430896965153  2.8226152434556546 0.74670254357986632  2.8102912079216349 0.78629170036272356  2.7969530280058574 0.82579875033920846  2.782425967232296 0.86520933053643034  2.7664961822171552 0.90450578714777974  2.7488991929463538 0.94366617431892041  2.7293041554734039 0.98266287122904217  2.7072922239263093 1.0214606537827706  2.6823259685232248 1.060013911149678  2.6537070424856655 1.0982627339170934  2.6205112286184011 1.1361266321495167  2.5815090985871905 1.173496871409492  2.5349930336883251 1.2102177581216684  2.4787360031003942 1.2460830155562086  2.432344223558589 1.2691830706340468  2.4063931695520964 1.2804779432947542 
 6.3262327884839298 4 6.3668065057529315 1 6.4073802230219323 1 6.447953940290934 1 6.4885276575599349 1 6.5291013748289366 1 6.5696750920979383 1 6.6102488093669391 1 6.6508225266359409 1 6.6913962439049417 1 6.7319699611739434 1 6.7725436784429451 1 6.813117395711946 1 6.8536911129809477 1 6.8942648302499485 1 6.9348385475189502 1 6.975412264787952 1 7.0159859820569528 1 7.0565596993259545 1 7.0971334165949553 1 7.1377071338639571 1 7.1782808511329588 1 7.2188545684019596 4
7 0 0  3 25 23  2.8979336949075734 0.42811336041392417  2.9014650737778513 0.42447333691169309  2.9082936440012688 0.41702002269045191  2.9178189044109626 0.40535680238767163  2.9266103267304509 0.39324668829362919  2.9346559055626393 0.38072672683714903  2.9419461229637882 0.36783422955582767  2.9484741209002969 0.35460672073884747  2.9542353601953906 0.3410818058247978  2.9592274254086579 0.3272970809413957  2.9634498043886968 0.31329004997411652  2.9669036926734726 0.29909805655165778  2.9695918125160041 0.28475822716816862  2.971518251542058 0.27030742454144968  2.9726883211233144 0.25578220948462482  2.9731084351687826 0.24121880977092092  2.972786009192685 0.22665309449545343  2.9717293795115189 0.21212055232085208  2.9699477409979718 0.19765627275197167  2.9674511056491877 0.18329492708226794  2.9642502688029566 0.16907075539481725  2.9603568264560334 0.1550175300856371  2.955783075057024 0.14116860088364488  2.9522893023506658 0.13209395019486156  2.9504334456696579 0.12760159287303421 
 2.6006744112067199 4 2.6522516931037949 1 2.7038289750008699 1 2.7554062568979449 1 2.8069835387950199 1 2.8585608206920949 1 2.9101381025891699 1 2.9617153844862449 1 3.0132926663833199 1 3.0648699482803949 1 3.1164472301774699 1 3.1680245120745449 1 3.2196017939716199 1 3.2711790758686949 1 3.3227563577657699 1 3.3743336396628449 1 3.4259109215599199 1 3.4774882034569949 1 3.5290654853540699 1 3.5806427672511449 1 3.6322200491482199 1 3.6837973310452949 1 3.7353746129423699 4
7 0 0  8 9 2  5.7860280580862966 0.24870042895739719  5.7663602477240898 0.21347492438873947  5.7527461125100672 0.1751796694044998  5.7455103944921575 0.13493759238858161  5.7446953943872359 0.093919209382534063  5.7501859200419858 0.053264923301355793  5.7617986961258794 0.014091412433288042  5.7791982572540581 -0.022518269264625156  5.8018421388991701 -0.055579717570446975 
 2.6006744112067168 9 3.7353746129423664 9
1 6.2831853071795862 -6.2831853071795862 0 1 
1 0 -6.2831853071795862 0 1 
1 0 -1.5707963267948966 1 0 
1 0 1.5707963267948966 1 0 
Curves 10
2 100 61.801726079700003 73.738325908500002 1 0 -0 0 0 1 0 -1 0 9.7114666207792499
2 100 65.820081272899984 59.300238128700002 1 0 -0 0 0 1 0 -1 0 9.5353327587687282
2 97.301146183100016 63.810903676299993 66.519282018599995 -0.041869787893145057 0.26789034621212371 -0.96253918531565863 -6.9388939039072253e-18 0.96338399993097812 0.26812547189140584 0.99912307593298189 0.011226356636842596 -0.040336683736759728 6.6143782776231195
2 97.301146183100016 63.810903676299993 66.519282018599995 -0.041869787893145057 0.26789034621212371 -0.96253918531565863 -6.9388939039072253e-18 0.96338399993097812 0.26812547189140584 0.99912307593298189 0.011226356636842596 -0.040336683736759728 6.6143782776231195
2 87.732256754600002 68.131357495149985 58.284686164999997 0.96475075275216515 -0.24093330693106332 0.10586371746445018 0.2422948469384914 0.97020266292515034 -3.4694469519536134e-18 -0.10270926059116531 0.025650233219388661 0.99438064810444049 2.8238469148119387
2 87.732256754600002 68.131357495149985 58.284686164999997 0.96475075275216515 -0.24093330693106332 0.10586371746445018 0.2422948469384914 0.97020266292515034 -3.4694469519536134e-18 -0.10270926059116531 0.025650233219388661 0.99438064810444049 2.8238469148119387
2 87.732256754600002 68.131357495149985 58.284686164999997 0.96475075275216515 -0.24093330693106332 0.10586371746445018 0.2422948469384914 0.97020266292515034 -3.4694469519536134e-18 -0.10270926059116531 0.025650233219388661 0.99438064810444049 2.8238469148119387
2 96.987122773899983 65.820081272900012 59.300238128700002 3.6739403974420564e-16 1 -0 -1 3.6739403974420564e-16 0 0 0 1 10
2 87.732256754600002 68.131357495149985 58.284686164999997 0.96475075275216515 -0.24093330693106332 0.10586371746445018 0.2422948469384914 0.97020266292515034 -3.4694469519536134e-18 -0.10270926059116531 0.025650233219388661 0.99438064810444049 2.8238469148119387
2 78.477390735300006 70.4426337174 57.269134201299998 -2.4492935982947064e-16 -1 0 1 -2.4492935982947064e-16 0 0 0 1 10
Polygon3D 0
PolygonOnTriangulations 0
Surfaces 4
1 100 0 0 1 0 -0 0 0 1 0 -1 0 
4 97.615169592299992 61.801726079700018 73.738325908500002 -0.44957294305640011 0.17411587852404881 -0.87610948500595842 0.87418408205286469 -0.11576940235835534 -0.47159265914873993 -0.18353844163280142 -0.97789626562503451 -0.10016253850424733 10
4 96.987122773899983 65.820081272900012 59.300238128700002 -0.37621396335033402 -0.15784318314140935 0.91298881883406491 0.90093677223223767 0.16769369812691728 0.40023962328619533 -0.21627756753762209 0.97312093449082981 0.079118017137081262 10
4 78.477390735300006 70.4426337174 57.269134201299998 0 0 1 1 0 -0 -0 1 0 10
Triangulations 0

TShapes 36
Ve
1.20026296264985e-07
100 69.6578182547052 68.0291753881222
0 0

0101101
*
Ve
1.20026256070618e-07
100 61.8017260797 83.4497925292793
0 0

0101101
*
Ed
 1.20026256070618e-07 1 1 0
1  1 0 4.08395670028599 6.28318530717959
2  1 2 0 4.08395670028599 6.28318530717959
0

0101000
+36 0 -35 0 *
Ve
1.20026301009286e-07
100 58.0246388740612 64.7914719269314
0 0

0101101
*
Ed
 1.20026256070618e-07 1 1 0
1  1 0 0 2.74212206390028
2  2 2 0 0 2.74212206390028
0

0101000
+35 0 -33 0 *
Ed
 1.05477788164709e-07 1 1 0
1  2 0 0.957112796163997 5.86896596802232
2  3 3 0 0.957112796163997 5.86896596802232
0

0101000
+33 0 -36 0 *
Wi

0101100
+34 0 +32 0 +31 0 *
Fa
0  0 1 0

0101000
+30 0 *
Ve
1.00000015888219e-07
91.0057681037998 61.8017260797 66.2339397268186
0 0

0101101
*
Ve
1e-07
91.0543247092705 65.8200812729 67.3502013040399
0 0

0101101
*
Ed
 1e-07 1 1 0
1  3 0 4.4032867792109 5.04479621573764
2  4 2 0 4.4032867792109 5.04479621573764
2  5 3 0 4.4032867792109 5.04479621573764
0

0101000
+28 0 -27 0 *
Ed
 1e-07 1 1 0
1  4 0 9.00409225425893 10.6864720863905
2  6 2 0 9.00409225425893 10.6864720863905
2  7 3 0 9.00409225425893 10.6864720863905
0

0101000
+33 0 -28 0 *
Ed
 1e-07 1 1 0
1  4 0 5.04479621573764 6.70387101369006
2  8 2 0 5.04479621573764 6.70387101369006
2  9 3 0 5.04479621573764 6.70387101369006
0

0101000
+27 0 -36 0 *
Wi

0101100
-26 0 -25 0 -32 0 -34 0 -24 0 *
Fa
0  1e-07 2 0

0101000
+23 0 *
Ve
1.00000146309704e-07
87.327442506448 65.8200812729 56.7136231340404
0 0

0101101
*
Ve
1.00000410887887e-07
88.4681267377811 70.4426337174 56.8387923270548
0 0

0101101
*
Ed
 1e-07 1 1 0
1  5 0 3.73537461294237 5.74226706479632
2  10 3 0 3.73537461294237 5.74226706479632
2  11 4 0 3.73537461294237 5.74226706479632
0

0101000
+21 0 -20 0 *
Ve
1.00000409718929e-07
88.137071002752 70.4426337174 59.8557491959596
0 0

0101101
*
Ed
 1e-07 1 1 0
1  6 0 5.74226706479632 6.87696726653235
2  12 3 0 5.74226706479632 6.87696726653235
2  13 4 0 5.74226706479632 6.87696726653235
0

0101000
+20 0 -18 0 *
Ve
1.00000127897692e-07
86.996386771419 65.8200812729 59.7305800029452
0 0

0101101
*
Ed
 1e-07 1 1 0
1  7 0 0.593781959352764 2.60067441120672
2  14 3 0 0.593781959352764 2.60067441120672
2  15 4 0 0.593781959352764 2.60067441120672
0

0101000
+18 0 -16 0 *
Ed
 1e-07 1 1 0
1  8 0 6.32623278848393 7.21885456840196
3  16 17C0 3 0 6.32623278848393 7.21885456840196
0

0101000
+16 0 -27 0 *
Ed
 1e-07 1 1 0
1  9 0 2.60067441120672 3.73537461294237
2  18 3 0 2.60067441120672 3.73537461294237
2  19 4 0 2.60067441120672 3.73537461294237
0

0101000
+16 0 -21 0 *
Wi

0101100
+19 0 +17 0 +15 0 +14 0 +24 0 -31 0 +25 0 +26 0 -14 0 +13 0 
*
Fa
0  1e-07 3 0

0101000
+12 0 *
Ve
1e-07
78.4773907353 70.4426337174 67.2691342013
0 0

0101101
*
Ed
 1e-07 1 1 0
1  10 0 6.54482159529708 7.85398163397448
3  20 21C0 4 0 6.54482159529708 7.85398163397448
0

0101000
+18 0 -10 0 *
Ve
1e-07
78.4773907353 70.4426337174 47.2691342013
0 0

0101101
*
Ed
 1e-07 1 1 0
1  10 0 4.71238898038469 6.24013782587524
3  20 21C0 4 0 4.71238898038469 6.24013782587524
0

0101000
+8 0 -20 0 *
Ed
 2.22044604925031e-16 1 1 1
2  22 4 0 0 6.28318530717959
0

0101000
+8 0 -8 0 *
Ed
 2.22044604925031e-16 1 1 1
2  23 4 0 0 6.28318530717959
0

0101000
+10 0 -10 0 *
Wi

0101100
+9 0 -15 0 -13 0 -19 0 +7 0 +6 0 -7 0 -17 0 -9 0 -5 0 
*
Fa
0  1e-07 4 0

0101000
+4 0 *
Sh

0101100
+29 0 +22 0 +11 0 +3 0 *
So

1100000
+2 0 *

+1 0 