DBRep_DrawableShape

CASCADE Topology V1, (c) Matra-Datavision
Locations 5
1
0.707106781186548 0.707106781186547               0 -0.907106781186547 
-0.707106781186547 0.707106781186548               0 0.210050506338833 
              0               0               1               0 
1
              1               0               0               0 
              0               1               0               0 
              0               0               1               0 
1
              1               0               0               0 
              0 0.707106781186548 -0.707106781186547             1.2 
              0 0.707106781186547 0.707106781186548 -0.497056274847714 
2  1 1 2 1 3 1 0
2  3 -1 2 -1 1 -1 0
Curve2ds 28
1 0 0 1 0 
1 0 0 1 0 
1 1 0 0 -1 
1 0 0 0 1 
1 0 -1 1 0 
1 0 0 1 0 
1 0 0 0 -1 
1 0 0 0 1 
1 0 0 1 0 
1 0 1 1 0 
1 1 0 0 -1 
1 1 0 0 1 
1 0 -1 1 0 
1 0 1 1 0 
1 0 0 0 -1 
1 1 0 0 1 
1 0 0 0 1 
1 0 0 1 0 
1 1 0 0 1 
1 0 0 1 0 
1 0 0 0 1 
1 0 1 1 0 
1 1 0 0 1 
1 0 1 1 0 
8 0 6.2831853071795862
7 0 0  1 2 2  0 1.5707963267948966  6.2831853071795862 1.5707963267948966 
 0 2 6.2831853071795862 2
8 4.7123889803846897 7.8539816339744828
7 0 0  2 5 3  6.2831853071795862 -1.5707963267948968  6.2831853071795862 -0.78539816339744872  6.2831853071795862 0  6.2831853071795871 0.78539816339744828  6.2831853071795862 1.5707963267948963 
 4.7123889803846897 3 6.2831853071795862 2 7.8539816339744828 3
8 4.7123889803846897 7.8539816339744828
7 0 0  2 5 3  0 -1.5707963267948968  0 -0.78539816339744872  0 0  8.8817841970012523e-16 0.78539816339744828  0 1.5707963267948963 
 4.7123889803846897 3 6.2831853071795862 2 7.8539816339744828 3
8 0 6.2831853071795862
7 0 0  1 2 2  0 -1.5707963267948966  6.2831853071795862 -1.5707963267948966 
 0 2 6.2831853071795862 2
Curves 13
1 0 0 0 0 0 1 
1 0 0 1 -0 1 0 
1 0 1 0 0 0 1 
1 0 0 0 -0 1 0 
1 1 0 0 0 0 1 
1 1 0 1 -0 1 0 
1 1 1 0 0 0 1 
1 1 0 0 -0 1 0 
1 0 0 0 1 0 -0 
1 0 0 1 1 0 -0 
1 0 1 0 1 0 -0 
1 0 1 1 1 0 -0 
8 4.7123889803846897 7.8539816339744828
7 1 0  2 5 3  -0.20000000000000012 1.2 0.89999999999999991  1 0.29999999999999993 1.2 0.89999999999999991  0.70710678118654757 0.30000000000000004 1.2 1.2  1 0.30000000000000016 1.2 1.5  0.70710678118654757 -0.19999999999999984 1.2 1.5  1
 4.7123889803846897 3 6.2831853071795862 2 7.8539816339744828 3
Polygon3D 0
PolygonOnTriangulations 0
Surfaces 7
1 0 0 0 1 0 -0 0 0 1 0 -1 0 
1 0 0 0 -0 1 0 0 0 1 1 0 -0 
1 0 0 1 0 0 1 1 0 -0 -0 1 0 
1 0 1 0 -0 1 0 0 0 1 1 0 -0 
1 0 0 0 0 0 1 1 0 -0 -0 1 0 
1 1 0 0 1 0 -0 0 0 1 0 -1 0 
9 1 1 1 0 2 2 6 5 4 3 -0.19999999999999998 1.2 0.89999999999999991  1 0.30000000000000004 1.2 0.90000000000000002  0.70710678118654757 0.30000000000000004 1.2 1.2  1 0.30000000000000004 1.2 1.5  0.70710678118654757 -0.19999999999999998 1.2 1.5  1 
-0.19999999999999998 1.2 0.89999999999999991  0.5 0.30000000000000004 1.5464101615137755 0.90000000000000002  0.35355339059327379 0.30000000000000004 1.5464101615137755 1.2  0.5 0.30000000000000004 1.5464101615137755 1.5  0.35355339059327379 -0.19999999999999998 1.2 1.5  0.5 
-0.20000000000000001 1.2 0.89999999999999991  1 -0.44999999999999984 1.3732050807568876 0.90000000000000002  0.70710678118654757 -0.44999999999999984 1.3732050807568876 1.2  1 -0.44999999999999984 1.3732050807568876 1.5  0.70710678118654757 -0.20000000000000001 1.2 1.5  1 
-0.20000000000000007 1.2 0.89999999999999991  0.5 -1.2 1.2 0.90000000000000002  0.35355339059327379 -1.2 1.2 1.2  0.5 -1.2 1.2 1.5  0.35355339059327379 -0.20000000000000007 1.2 1.5  0.5 
-0.20000000000000001 1.2 0.89999999999999991  1 -0.45000000000000018 1.0267949192431123 0.90000000000000002  0.70710678118654757 -0.45000000000000018 1.0267949192431123 1.2  1 -0.45000000000000018 1.0267949192431123 1.5  0.70710678118654757 -0.20000000000000001 1.2 1.5  1 
-0.19999999999999998 1.2 0.89999999999999991  0.5 0.29999999999999916 0.85358983848622438 0.90000000000000002  0.35355339059327379 0.29999999999999916 0.85358983848622438 1.2  0.5 0.29999999999999916 0.85358983848622438 1.5  0.35355339059327379 -0.19999999999999998 1.2 1.5  0.5 

0 2
2.0943951023931953 2
4.1887902047863905 2
6.2831853071795862 2

-1.5707963267948966 3
0 2
1.5707963267948966 3

Triangulations 0

TShapes 44
Ve
1e-07
0 0 1
0 0

0101101
*
Ve
1e-07
0 0 0
0 0

0101101
*
Ed
 1e-07 1 1 0
1  1 0 0 1
2  1 1 0 0 1
2  2 2 0 0 1
0

0101000
-44 0 +43 0 *
Ve
1e-07
0 1 1
0 0

0101101
*
Ed
 1e-07 1 1 0
1  2 0 0 1
2  3 1 0 0 1
2  4 3 0 0 1
0

0101000
-41 0 +44 0 *
Ve
1e-07
0 1 0
0 0

0101101
*
Ed
 1e-07 1 1 0
1  3 0 0 1
2  5 1 0 0 1
2  6 4 0 0 1
0

0101000
-41 0 +39 0 *
Ed
 1e-07 1 1 0
1  4 0 0 1
2  7 1 0 0 1
2  8 5 0 0 1
0

0101000
-39 0 +43 0 *
Wi

0101100
-42 0 -40 0 +38 0 +37 0 *
Fa
0  1e-07 1 0

0111000
+36 0 *
Ve
1e-07
1 0 1
0 0

0101101
*
Ve
1e-07
1 0 0
0 0

0101101
*
Ed
 1e-07 1 1 0
1  5 0 0 1
2  9 6 0 0 1
2  10 2 0 0 1
0

0101000
-34 0 +33 0 *
Ve
1e-07
1 1 1
0 0

0101101
*
Ed
 1e-07 1 1 0
1  6 0 0 1
2  11 6 0 0 1
2  12 3 0 0 1
0

0101000
-31 0 +34 0 *
Ve
1e-07
1 1 0
0 0

0101101
*
Ed
 1e-07 1 1 0
1  7 0 0 1
2  13 6 0 0 1
2  14 4 0 0 1
0

0101000
-31 0 +29 0 *
Ed
 1e-07 1 1 0
1  8 0 0 1
2  15 6 0 0 1
2  16 5 0 0 1
0

0101000
-29 0 +33 0 *
Wi

0101100
-32 0 -30 0 +28 0 +27 0 *
Fa
0  1e-07 6 0

0111000
+26 0 *
Ed
 1e-07 1 1 0
1  9 0 0 1
2  17 2 0 0 1
2  18 5 0 0 1
0

0101000
-33 0 +43 0 *
Ed
 1e-07 1 1 0
1  10 0 0 1
2  19 2 0 0 1
2  20 3 0 0 1
0

0101000
-34 0 +44 0 *
Wi

0101100
-24 0 -32 0 +23 0 +42 0 *
Fa
0  1e-07 2 0

0111000
+22 0 *
Ed
 1e-07 1 1 0
1  11 0 0 1
2  21 4 0 0 1
2  22 5 0 0 1
0

0101000
-29 0 +39 0 *
Ed
 1e-07 1 1 0
1  12 0 0 1
2  23 4 0 0 1
2  24 3 0 0 1
0

0101000
-31 0 +41 0 *
Wi

0101100
-20 0 -28 0 +19 0 +38 0 *
Fa
0  1e-07 4 0

0111000
+18 0 *
Wi

0101100
-37 0 -20 0 +27 0 +24 0 *
Fa
0  1e-07 5 0

0111000
+16 0 *
Wi

0101100
-40 0 -19 0 +30 0 +23 0 *
Fa
0  1e-07 3 0

0111000
+14 0 *
Sh

0101100
-35 0 +25 0 -21 0 +17 0 -15 0 +13 0 *
So

0100000
+12 0 *
Ve
1e-07
-0.2 0.987867965644037 1.41213203435596
0 0

0101101
*
Ed
 1e-07 1 1 1
2  25 7 0 0 6.28318530717959
0

0101000
+10 5 -10 5 *
Ve
1e-07
-0.2 1.41213203435597 0.987867965644036
0 0

0101101
*
Ed
 1e-07 1 1 0
1  13 0 4.71238898038469 7.85398163397448
3  26 27CN 7 0 4.71238898038469 7.85398163397448
0

0101000
-10 5 +8 5 *
Ed
 1e-07 1 1 1
2  28 7 0 0 6.28318530717959
0

0101000
+8 5 -8 5 *
Wi

0101100
-9 0 +7 0 +6 0 -7 0 *
Fa
0  1e-07 7 0

0111000
+5 0 *
Sh

0101100
+4 0 *
So

0100000
+3 0 *
Co

1100000
+11 0 +2 4 *

+1 0 