DBRep_DrawableShape

CASCADE Topology V1, (c) Matra-Datavision
Locations 5
1
              1               0               0              -0 
              0               1               0               0 
              0               0               1              -0 
2  1 -1 0
1
              1               0               0               0 
              0               1               0              -8 
              0               0               1               0 
2  1 1 3 1 0
2  3 -1 1 -1 0
Curve2ds 12
1 4.1887902047863905 0 0 -1 
1 2.0943951023931957 0 0 -1 
1 5.2359877559830226 0 0 -1 
1 1.0471975511965634 0 0 -1 
1 0 0 1 0 
2 0 5.196152422706632 1 0 -0 1 6
1 0 -8 1 0 
2 0 5.196152422706632 1 0 -0 1 6
1 0 0 1 0 
2 -0 -5.196152422706632 1 0 -0 1 6.000000000000119
1 0 -8 1 0 
2 -0 -5.196152422706632 1 0 -0 1 6.000000000000119
Curves 6
1 5.1514348342607263e-14 4 10.00000000000003 0 -1 0 
1 5.1535489201844381e-14 4 3.9999999999997922 0 -1 0 
2 5.196152422706632 4 7 0 -1 0 0 -0 -1 1 0 0 6
2 5.196152422706632 4 7 0 -1 0 0 -0 -1 1 0 0 6
2 -5.196152422706632 4 7 0 -1 0 0 -0 -1 1 0 0 6.000000000000119
2 -5.196152422706632 4 7 0 -1 0 0 -0 -1 1 0 0 6.000000000000119
Polygon3D 0
PolygonOnTriangulations 0
Surfaces 4
2 5.196152422706632 4 7 -0 1 -0 0 0 -1 1 0 0 6
2 -5.196152422706632 4 7 -0 1 -0 0 0 -1 1 0 0 6.000000000000119
1 0 4 7 0 -1 0 0 -0 -1 1 0 0 
1 0 4 7 0 -1 0 0 -0 -1 1 0 0 
Triangulations 0

TShapes 21
Ve
1.00000059489724e-07
5.15143483426073e-14 4 10
0 0

0101101
*
Ve
1.00000059489724e-07
5.15143483426073e-14 -4 10
0 0

0101101
*
Ed
 1.00000059489724e-07 1 1 0
1  1 0 0 8
2  1 1 0 0 8
2  2 2 0 0 8
0

0101000
+21 0 -20 0 *
Ve
1.00000059582819e-07
5.15354892018444e-14 4 3.99999999999979
0 0

0101101
*
Ve
1.00000059582819e-07
5.15354892018444e-14 -4 3.99999999999979
0 0

0101101
*
Ed
 1.00000059582819e-07 1 1 0
1  2 0 0 8
2  3 1 0 0 8
2  4 2 0 0 8
0

0101000
+18 0 -17 0 *
Ed
 1e-07 1 1 0
1  3 0 4.18879020478639 5.23598775598302
2  5 1 2 4.18879020478639 5.23598775598302
2  6 3 0 4.18879020478639 5.23598775598302
0

0101000
+21 2 -18 2 *
Ed
 1e-07 1 1 0
1  4 0 4.18879020478639 5.23598775598302
2  7 1 5 4.18879020478639 5.23598775598302
2  8 4 0 4.18879020478639 5.23598775598302
0

0101000
+20 5 -17 5 *
Wi

0101100
+19 0 -16 0 -15 1 +14 4 *
Fa
0  1e-07 1 0

0111000
+13 0 *
Ed
 1e-07 1 1 0
1  5 0 1.04719755119656 2.0943951023932
2  9 2 2 1.04719755119656 2.0943951023932
2  10 3 0 1.04719755119656 2.0943951023932
0

0101000
+18 2 -21 2 *
Ed
 1e-07 1 1 0
1  6 0 1.04719755119656 2.0943951023932
2  11 2 5 1.04719755119656 2.0943951023932
2  12 4 0 1.04719755119656 2.0943951023932
0

0101000
+17 5 -20 5 *
Wi

0101100
+16 0 -19 0 -11 1 +10 4 *
Fa
0  1e-07 2 0

0111000
+9 0 *
Wi

0101100
+15 0 +11 0 *
Fa
0  1e-07 3 0

0111000
+7 0 *
Wi

0101100
+14 0 +10 0 *
Fa
0  1e-07 4 0

0111000
+5 0 *
Sh

0101100
+12 0 +8 0 +6 1 -4 4 *
So

0100000
-3 0 *
Co

1100000
+2 0 *

+1 0 