DBRep_DrawableShape

CASCADE Topology V1, (c) Matra-Datavision
Locations 24
1
              1               0               0               0 
              0               1               0               1 
              0               0               1               0 
1
              1               0               0               0 
              0               1               0              -2 
              0               0               1               0 
2  1 1 2 1 0
2  2 -1 1 -1 0
1
              1               0               0              -1 
              0               1               0               0 
              0               0               1               0 
2  5 -1 0
2  1 -1 0
1
              1               0               0               2 
              0               1               0               0 
              0               0               1               0 
2  5 1 8 1 0
2  8 -1 5 -1 0
1
              1               0               0               0 
              0               1               0               6 
              0               0               1               0 
1
              1               0               0               1 
              0               1               0               0 
              0               0               1               0 
1
              1               0               0              -2 
              0               1               0               0 
              0               0               1               0 
2  11 1 12 1 13 1 0
2  13 -1 12 -1 11 -1 0
1
              1               0               0               6 
              0               1               0               0 
              0               0               1               0 
1
              1               0               0               0 
              0               1               0              -1 
              0               0               1               0 
2  16 1 17 1 0
2  17 -1 16 -1 0
2  11 1 12 1 0
2  12 -1 11 -1 0
1
              1               0               0               0 
              0               1               0               2 
              0               0               1               0 
2  16 1 17 1 22 1 0
2  22 -1 17 -1 16 -1 0
Curve2ds 64
1 0 0 1 0 
1 0 0 1 0 
1 5 0 0 -1 
1 0 0 0 1 
1 5 0 0 -1 
1 0 0 0 1 
1 5 0 0 -1 
1 0 0 0 1 
1 0 -10 1 0 
1 0 0 1 0 
1 0 0 0 -1 
1 0 0 0 1 
1 0 0 1 0 
1 0 10 1 0 
1 5 0 0 -1 
1 10 0 0 1 
1 5 0 0 -1 
1 10 0 0 1 
1 5 0 0 -1 
1 10 0 0 1 
1 0 -10 1 0 
1 0 10 1 0 
1 0 0 0 -1 
1 10 0 0 1 
1 0 0 0 1 
1 0 0 1 0 
1 5 0 0 1 
1 0 0 1 0 
1 5 0 0 1 
1 0 0 1 0 
1 5 0 0 1 
1 0 0 1 0 
1 0 0 0 1 
1 0 10 1 0 
1 5 0 0 1 
1 0 10 1 0 
1 5 0 0 1 
1 0 10 1 0 
1 5 0 0 1 
1 0 10 1 0 
1 0 4 1 0 
1 0 4 1 0 
1 4 0 0 1 
1 4 0 0 1 
1 0 6 1 0 
1 0 6 1 0 
1 4 4 0 1 
1 0 0 0 1 
1 4 4 1 0 
1 0 0 1 0 
1 6 0 0 1 
1 6 0 0 1 
1 4 6 0 1 
1 4 6 0 1 
1 6 4 1 0 
1 6 4 1 0 
1 6 6 0 1 
1 6 6 0 1 
1 4 6 1 0 
1 0 2 1 0 
1 6 4 0 1 
1 2 0 0 1 
1 6 6 1 0 
1 6 6 1 0 
Curves 32
1 0 0 0 0 0 1 
1 0 0 5 -0 1 0 
1 0 0 5 -0 1 0 
1 0 0 5 -0 1 0 
1 0 10 0 0 0 1 
1 0 0 0 -0 1 0 
1 10 0 0 0 0 1 
1 10 0 5 -0 1 0 
1 10 0 5 -0 1 0 
1 10 0 5 -0 1 0 
1 10 10 0 0 0 1 
1 10 0 0 -0 1 0 
1 0 0 0 1 0 -0 
1 0 0 5 1 0 -0 
1 0 0 5 1 0 -0 
1 0 0 5 1 0 -0 
1 0 10 0 1 0 -0 
1 0 10 5 1 0 -0 
1 0 10 5 1 0 -0 
1 0 10 5 1 0 -0 
1 0 5 5 1 0 0 
1 5 0 5 0 1 0 
1 0 5 5 1 0 0 
1 4 4 5 -0 1 0 
1 4 4 5 1 0 -0 
1 5 0 5 0 1 0 
1 5 0 5 0 1 0 
1 0 5 5 1 0 0 
1 5 0 5 0 1 0 
1 4 6 5 1 0 -0 
1 6 4 5 -0 1 0 
1 0 5 5 1 0 0 
Polygon3D 0
PolygonOnTriangulations 0
Surfaces 14
1 0 0 0 1 0 -0 0 0 1 0 -1 0 
1 0 0 0 -0 1 0 0 0 1 1 0 -0 
1 0 0 5 0 0 1 1 0 -0 -0 1 0 
1 0 0 5 0 0 1 1 0 -0 -0 1 0 
1 0 0 5 0 0 1 1 0 -0 -0 1 0 
1 0 10 0 -0 1 0 0 0 1 1 0 -0 
1 0 0 0 0 0 1 1 0 -0 -0 1 0 
1 10 0 0 1 0 -0 0 0 1 0 -1 0 
1 0 0 5 0 0 1 1 0 -0 -0 1 0 
1 0 0 5 0 0 1 1 0 -0 -0 1 0 
1 0 0 5 0 0 1 1 0 -0 -0 1 0 
1 0 0 5 0 0 1 1 0 -0 -0 1 0 
1 0 0 5 0 0 1 1 0 -0 -0 1 0 
1 4 4 5 0 0 1 1 0 -0 -0 1 0 
Triangulations 0

TShapes 82
Ve
1e-07
0 0 5
0 0

0101101
*
Ve
1e-07
0 0 0
0 0

0101101
*
Ed
 1e-07 1 1 0
1  1 0 0 5
2  1 1 0 0 5
2  2 2 0 0 5
0

0101000
-82 0 +81 0 *
Ve
1e-07
0 4 5
0 0

0101101
*
Ed
 1e-07 1 1 0
1  2 0 0 4
2  3 1 0 0 4
2  4 3 0 0 4
0

0101000
+82 0 -79 0 *
Ve
1e-07
0 6 5
0 0

0101101
*
Ed
 1e-07 1 1 0
1  3 0 4 6
2  5 1 0 4 6
2  6 4 0 4 6
0

0101000
+79 0 -77 0 *
Ve
1e-07
0 10 5
0 0

0101101
*
Ed
 1e-07 1 1 0
1  4 0 6 10
2  7 1 0 6 10
2  8 5 0 6 10
0

0101000
+77 0 -75 0 *
Ve
1e-07
0 10 0
0 0

0101101
*
Ed
 1e-07 1 1 0
1  5 0 0 5
2  9 1 0 0 5
2  10 6 0 0 5
0

0101000
-75 0 +73 0 *
Ed
 1e-07 1 1 0
1  6 0 0 10
2  11 1 0 0 10
2  12 7 0 0 10
0

0101000
-73 0 +81 0 *
Wi

0101100
-80 0 -78 0 -76 0 -74 0 +72 0 +71 0 *
Fa
0  1e-07 1 0

0111000
+70 0 *
Ve
1e-07
10 0 5
0 0

0101101
*
Ve
1e-07
10 0 0
0 0

0101101
*
Ed
 1e-07 1 1 0
1  7 0 0 5
2  13 8 0 0 5
2  14 2 0 0 5
0

0101000
-68 0 +67 0 *
Ve
1e-07
10 4 5
0 0

0101101
*
Ed
 1e-07 1 1 0
1  8 0 0 4
2  15 8 0 0 4
2  16 9 0 0 4
0

0101000
+68 0 -65 0 *
Ve
1e-07
10 6 5
0 0

0101101
*
Ed
 1e-07 1 1 0
1  9 0 4 6
2  17 8 0 4 6
2  18 10 0 4 6
0

0101000
+65 0 -63 0 *
Ve
1e-07
10 10 5
0 0

0101101
*
Ed
 1e-07 1 1 0
1  10 0 6 10
2  19 8 0 6 10
2  20 11 0 6 10
0

0101000
+63 0 -61 0 *
Ve
1e-07
10 10 0
0 0

0101101
*
Ed
 1e-07 1 1 0
1  11 0 0 5
2  21 8 0 0 5
2  22 6 0 0 5
0

0101000
-61 0 +59 0 *
Ed
 1e-07 1 1 0
1  12 0 0 10
2  23 8 0 0 10
2  24 7 0 0 10
0

0101000
-59 0 +67 0 *
Wi

0101100
-66 0 -64 0 -62 0 -60 0 +58 0 +57 0 *
Fa
0  1e-07 8 0

0111000
+56 0 *
Ed
 1e-07 1 1 0
1  13 0 0 10
2  25 2 0 0 10
2  26 7 0 0 10
0

0101000
-67 0 +81 0 *
Ve
1e-07
4 0 5
0 0

0101101
*
Ed
 1e-07 1 1 0
1  14 0 0 4
2  27 2 0 0 4
2  28 3 0 0 4
0

0101000
+82 0 -53 0 *
Ve
1e-07
6 0 5
0 0

0101101
*
Ed
 1e-07 1 1 0
1  15 0 4 6
2  29 2 0 4 6
2  30 12 0 4 6
0

0101000
+53 0 -51 0 *
Ed
 1e-07 1 1 0
1  16 0 6 10
2  31 2 0 6 10
2  32 9 0 6 10
0

0101000
+51 0 -68 0 *
Wi

0101100
-54 0 -66 0 +52 0 +50 0 +49 0 +80 0 *
Fa
0  1e-07 2 0

0111000
+48 0 *
Ed
 1e-07 1 1 0
1  17 0 0 10
2  33 6 0 0 10
2  34 7 0 0 10
0

0101000
-59 0 +73 0 *
Ve
1e-07
4 10 5
0 0

0101101
*
Ed
 1e-07 1 1 0
1  18 0 0 4
2  35 6 0 0 4
2  36 5 0 0 4
0

0101000
+75 0 -45 0 *
Ve
1e-07
6 10 5
0 0

0101101
*
Ed
 1e-07 1 1 0
1  19 0 4 6
2  37 6 0 4 6
2  38 13 0 4 6
0

0101000
+45 0 -43 0 *
Ed
 1e-07 1 1 0
1  20 0 6 10
2  39 6 0 6 10
2  40 11 0 6 10
0

0101000
+43 0 -61 0 *
Wi

0101100
-46 0 -58 0 +44 0 +42 0 +41 0 +72 0 *
Fa
0  1e-07 6 0

0111000
+40 0 *
Wi

0101100
-71 0 -46 0 +57 0 +54 0 *
Fa
0  1e-07 7 0

0111000
+38 0 *
Ve
1e-07
4 4 5
0 0

0101101
*
Ed
 1e-07 1 1 0
1  21 0 0 4
2  41 3 4 0 4
2  42 4 4 0 4
0

0101000
+79 4 -36 4 *
Ed
 1e-07 1 1 0
1  22 0 0 4
2  43 3 6 0 4
2  44 12 6 0 4
0

0101000
+53 6 -36 6 *
Wi

0101100
-78 0 -35 3 +34 5 +52 0 *
Fa
0  1e-07 3 0

0111000
+33 0 *
Ve
1e-07
4 6 5
0 0

0101101
*
Ed
 1e-07 1 1 0
1  23 0 0 4
2  45 4 7 0 4
2  46 5 7 0 4
0

0101000
+77 7 -31 7 *
Ed
 1e-07 1 1 0
1  24 0 0 2
2  47 4 0 0 2
2  48 14 0 0 2
0

0101000
+36 0 -31 0 *
Wi

0101100
-76 0 -30 1 +29 0 +35 3 *
Fa
0  1e-07 4 0

0111000
+28 0 *
Ve
1e-07
6 4 5
0 0

0101101
*
Ed
 1e-07 1 1 0
1  25 0 0 2
2  49 12 0 0 2
2  50 14 0 0 2
0

0101000
+36 0 -26 0 *
Ed
 1e-07 1 1 0
1  26 0 0 4
2  51 12 10 0 4
2  52 9 10 0 4
0

0101000
+51 10 -26 10 *
Wi

0101100
-34 5 -25 0 +24 9 +50 0 *
Fa
0  1e-07 12 0

0111000
+23 0 *
Ed
 1e-07 1 1 0
1  27 0 0 4
2  53 5 15 0 4
2  54 13 15 0 4
0

0101000
+31 15 -45 15 *
Wi

0101100
-74 0 -44 0 +21 14 +30 1 *
Fa
0  1e-07 5 0

0111000
+20 0 *
Ed
 1e-07 1 1 0
1  28 0 0 4
2  55 9 19 0 4
2  56 10 19 0 4
0

0101000
+26 19 -65 19 *
Wi

0101100
-24 9 -18 18 +64 0 +49 0 *
Fa
0  1e-07 9 0

0111000
+17 0 *
Ve
1e-07
6 6 5
0 0

0101101
*
Ed
 1e-07 1 1 0
1  29 0 0 4
2  57 13 21 0 4
2  58 11 21 0 4
0

0101000
+15 21 -43 21 *
Ed
 1e-07 1 1 0
1  30 0 0 2
2  59 13 0 0 2
2  60 14 0 0 2
0

0101000
+31 0 -15 0 *
Wi

0101100
-21 14 -42 0 +14 20 +13 0 *
Fa
0  1e-07 13 0

0111000
+12 0 *
Ed
 1e-07 1 1 0
1  31 0 0 2
2  61 10 0 0 2
2  62 14 0 0 2
0

0101000
+26 0 -15 0 *
Ed
 1e-07 1 1 0
1  32 0 0 4
2  63 10 24 0 4
2  64 11 24 0 4
0

0101000
+15 24 -63 24 *
Wi

0101100
-10 0 -9 23 +62 0 +18 18 *
Fa
0  1e-07 10 0

0111000
+8 0 *
Wi

0101100
-14 20 -41 0 +60 0 +9 23 *
Fa
0  1e-07 11 0

0111000
+6 0 *
Wi

0101100
-29 0 -13 0 +10 0 +25 0 *
Fa
0  1e-07 14 0

0111000
+4 0 *
Sh

0101100
-69 0 +55 0 -47 0 +39 0 -37 0 +32 0 +27 0 +22 0 +19 0 +16 0 
+11 0 +7 0 +5 0 +3 0 *
So

1100000
+2 0 *

+1 0 
0

