DBRep_DrawableShape

CASCADE Topology V1, (c) Matra-Datavision
Locations 8
1
              1 2.44929359829471e-16               0               0 
-2.44929359829471e-16               1               0 -4.89858719658941e-15 
              0               0               1               0 
1
              1               0 -2.44929359829471e-16 4.89858719658941e-15 
              0               1               0               0 
2.44929359829471e-16               0               1               0 
2  1 1 2 1 0
1
             -1               0 1.22464679914735e-16 -2.44929359829471e-15 
              0               1               0               0 
-1.22464679914735e-16               0              -1              40 
2  1 1 2 1 4 1 0
2  2 -1 0
2  4 -1 2 -1 0
2  2 1 4 1 0
Curve2ds 10
1 0 0 1 0 
1 0 6.2831853071795862 1 0 
2 0 0 -1 0 0 1 9.9999999999766942e-05
1 0 0 0 1 
1 3.1415926535897931 0 0 1 
1 0 0 1 0 
1 0 6.2831853071795862 1 0 
2 0 0 -1 -4.8988262214224833e-28 -4.8988262214224833e-28 1 2
1 0 0 0 1 
1 3.1415926535897931 0 0 1 
Curves 4
2 0 -2.4492935982841007e-20 20 0 1 0 -1 0 -1.7763657212288565e-16 -1.7763657212288565e-16 0 1 19.9999
2 -20 0 20 0 0 1 1 -2.4492935982898091e-16 0 2.4492935982898091e-16 1 -0 9.9999999999766942e-05
2 0 -4.8985871965894138e-16 20 0 1 0 -1 0 -1.9737298215558337e-16 -1.9737298215558337e-16 0 1 18
2 -20 0 20 0 0 1 1 -2.4492935982947069e-16 0 2.4492935982947069e-16 1 -0 2
Polygon3D 0
PolygonOnTriangulations 0
Surfaces 3
7 0 0 20 0 1 0 
8 0 6.2831853071795862
2 -20 0 19.999999999999996 -2.4492935982947064e-16 0 1 1 -2.4492935982898091e-16 2.4492935982947064e-16 2.4492935982898091e-16 1 5.9990391306354351e-32 9.9999999999766942e-05
1 -20 0 20 0 0 1 -1 2.4492935982898091e-16 -0 2.4492935982898091e-16 1 -0 
7 0 0 20 0 1 0 
8 0 6.2831853071795862
2 -20 0 19.999999999999996 -2.4492935982947064e-16 0 1 1 -2.4492935982947069e-16 2.4492935982947064e-16 2.4492935982947069e-16 1 5.9990391306474315e-32 2
Triangulations 0

TShapes 15
Ve
1e-07
-19.9999 0 20
0 0

0101101
*
Ed
 1e-07 1 1 0
1  1 0 0 3.14159265358979
3  1 2CN 1 0 0 3.14159265358979
0

0101000
+15 3 -15 5 *
Ed
 1e-07 1 1 0
1  2 0 0 6.28318530717959
2  3 2 0 0 6.28318530717959
2  4 1 6 0 6.28318530717959
2  5 1 7 0 6.28318530717959
0

0101000
+15 1 -15 1 *
Wi

0101100
+14 0 -14 0 -13 2 +13 8 *
Fa
0  1e-07 1 0

0101000
+12 0 *
Ve
1e-07
-18 0 20
0 0

0101101
*
Ed
 1e-07 1 1 0
1  3 0 0 3.14159265358979
3  6 7CN 3 0 0 3.14159265358979
0

0101000
+10 3 -10 5 *
Ed
 1e-07 1 1 0
1  4 0 0 6.28318530717959
2  8 2 0 0 6.28318530717959
2  9 3 6 0 6.28318530717959
2  10 3 7 0 6.28318530717959
0

0101000
+10 1 -10 1 *
Wi

0101100
+9 0 -9 0 -8 2 +8 8 *
Fa
0  1e-07 3 0

0101000
+7 0 *
Wi

0101100
+13 0 *
Wi

0101100
-8 0 *
Fa
0  1e-07 2 0

0101000
+5 0 +4 0 *
Sh

0101100
+11 0 -6 0 +3 2 -3 8 *
So

1100000
+2 0 *

+1 0 