DBRep_DrawableShape

CASCADE Topology V1, (c) Matra-Datavision
Locations 22
1
1.000000000000000 0.000000000000000 0.000000000000000 0.000000000000000 
0.000000000000000 1.000000000000000 0.000000000000000 0.000000000000000 
0.000000000000000 0.000000000000000 1.000000000000000 0.000000000000000 
1
1.000000000000000 0.000000000000000 0.000000000000000 0.000000000000000 
0.000000000000000 1.000000000000000 0.000000000000000 0.000000000000000 
0.000000000000000 0.000000000000000 1.000000000000000 0.000000000000000 
1
1.000000000000000 0.000000000000000 0.000000000000000 0.000000000000000 
0.000000000000000 1.000000000000000 0.000000000000000 0.000000000000000 
0.000000000000000 0.000000000000000 1.000000000000000 0.000000000000000 
1
1.000000000000000 0.000000000000000 0.000000000000000 0.000000000000000 
0.000000000000000 1.000000000000000 0.000000000000000 0.000000000000000 
0.000000000000000 0.000000000000000 1.000000000000000 0.000000000000000 
2  2 1 3 1 4 -1 0
1
1.000000000000000 0.000000000000000 0.000000000000000 0.000000000000000 
0.000000000000000 1.000000000000000 0.000000000000000 0.000000000000000 
0.000000000000000 0.000000000000000 1.000000000000000 16.000000000000000 
2  2 1 3 1 4 -1 6 1 0
1
1.000000000000000 0.000000000000000 0.000000000000000 0.000000000000000 
0.000000000000000 1.000000000000000 0.000000000000000 0.000000000000000 
0.000000000000000 0.000000000000000 1.000000000000000 0.000000000000000 
1
1.000000000000000 0.000000000000000 0.000000000000000 0.000000000000000 
0.000000000000000 1.000000000000000 0.000000000000000 0.000000000000000 
0.000000000000000 0.000000000000000 1.000000000000000 0.000000000000000 
2  8 1 9 -1 2 -1 0
1
1.000000000000000 0.000000000000000 0.000000000000000 0.000000000000000 
0.000000000000000 1.000000000000000 0.000000000000000 0.000000000000000 
0.000000000000000 0.000000000000000 1.000000000000000 10.000000000000000 
2  11 -1 8 1 9 -1 2 -1 0
1
1.000000000000000 0.000000000000000 0.000000000000000 0.000000000000000 
0.000000000000000 1.000000000000000 0.000000000000000 0.000000000000000 
0.000000000000000 0.000000000000000 1.000000000000000 0.000000000000000 
1
1.000000000000000 0.000000000000000 0.000000000000000 0.000000000000000 
0.000000000000000 1.000000000000000 0.000000000000000 0.000000000000000 
0.000000000000000 0.000000000000000 1.000000000000000 0.000000000000000 
2  13 1 14 -1 2 -1 0
1
1.000000000000000 0.000000000000000 0.000000000000000 0.000000000000000 
0.000000000000000 1.000000000000000 0.000000000000000 0.000000000000000 
0.000000000000000 0.000000000000000 1.000000000000000 16.000000000000000 
2  16 -1 13 1 14 -1 2 -1 0
2  4 1 3 -1 2 -1 0
2  6 -1 4 1 3 -1 2 -1 0
2  4 -1 0
2  2 1 3 1 0
2  4 -1 6 1 0
Curve2ds 56
1 2.01282471692158804 0.00000000000000000 0.00000000000000000 -1.00000000000000000 
1 4.27036235085633908 0.00000000000000000 0.00000000000000000 -1.00000000000000000 
1 0.00000000000000000 0.00000000000000000 1.00000000000000000 0.00000000000000000 
1 0.00000000000000000 -10.00000000000000000 1.00000000000000000 0.00000000000000000 
1 0.00000000000000000 0.00000000000000000 1.00000000000000000 0.00000000000000000 
1 0.00000000000000000 -16.00000000000000000 1.00000000000000000 0.00000000000000000 
1 0.00000000000000000 0.00000000000000000 1.00000000000000000 0.00000000000000000 
1 0.00000000000000000 -16.00000000000000000 1.00000000000000000 0.00000000000000000 
1 4.38595484997075413 0.00000000000000000 0.00000000000000000 -1.00000000000000000 
1 5.03882210784955209 0.00000000000000000 0.00000000000000000 -1.00000000000000000 
1 0.00000000000000000 0.00000000000000000 1.00000000000000000 0.00000000000000000 
1 0.00000000000000000 -10.00000000000000000 1.00000000000000000 0.00000000000000000 
1 0.00000000000000000 0.00000000000000000 1.00000000000000000 0.00000000000000000 
1 0.00000000000000000 -16.00000000000000000 1.00000000000000000 0.00000000000000000 
1 0.00000000000000000 0.00000000000000000 1.00000000000000000 0.00000000000000000 
1 0.00000000000000000 -16.00000000000000000 1.00000000000000000 0.00000000000000000 
1 5.15441529497820916 0.00000000000000000 0.00000000000000000 -1.00000000000000000 
1 7.41195531938096419 0.00000000000000000 0.00000000000000000 -1.00000000000000000 
1 0.00000000000000000 0.00000000000000000 1.00000000000000000 0.00000000000000000 
1 0.00000000000000000 -10.00000000000000000 1.00000000000000000 0.00000000000000000 
1 0.00000000000000000 0.00000000000000000 1.00000000000000000 0.00000000000000000 
1 0.00000000000000000 -16.00000000000000000 1.00000000000000000 0.00000000000000000 
1 0.00000000000000000 0.00000000000000000 1.00000000000000000 0.00000000000000000 
1 0.00000000000000000 -16.00000000000000000 1.00000000000000000 0.00000000000000000 
1 1.24436319933003392 0.00000000000000000 0.00000000000000000 -1.00000000000000000 
1 1.89723045720883210 0.00000000000000000 0.00000000000000000 -1.00000000000000000 
1 0.00000000000000000 0.00000000000000000 1.00000000000000000 0.00000000000000000 
1 0.00000000000000000 -10.00000000000000000 1.00000000000000000 0.00000000000000000 
1 0.00000000000000000 0.00000000000000000 1.00000000000000000 0.00000000000000000 
1 0.00000000000000000 -16.00000000000000000 1.00000000000000000 0.00000000000000000 
1 0.00000000000000000 0.00000000000000000 1.00000000000000000 0.00000000000000000 
1 0.00000000000000000 -16.00000000000000000 1.00000000000000000 0.00000000000000000 
1 0.00000000000000000 0.00000000000000000 0.00000000000000000 -1.00000000000000000 
1 6.28318530717958623 0.00000000000000000 0.00000000000000000 -1.00000000000000000 
1 0.00000000000000000 0.00000000000000000 1.00000000000000000 0.00000000000000000 
1 0.00000000000000000 -10.00000000000000000 1.00000000000000000 0.00000000000000000 
1 0.00000000000000000 0.00000000000000000 1.00000000000000000 0.00000000000000000 
1 0.00000000000000000 -16.00000000000000000 1.00000000000000000 0.00000000000000000 
1 0.00000000000000000 0.00000000000000000 1.00000000000000000 0.00000000000000000 
1 0.00000000000000000 -16.00000000000000000 1.00000000000000000 0.00000000000000000 
1 0.00000000000000000 0.00000000000000000 0.00000000000000000 -1.00000000000000000 
1 6.28318530717958623 0.00000000000000000 0.00000000000000000 -1.00000000000000000 
1 0.00000000000000000 0.00000000000000000 1.00000000000000000 0.00000000000000000 
1 0.00000000000000000 -10.00000000000000000 1.00000000000000000 0.00000000000000000 
1 0.00000000000000000 0.00000000000000000 1.00000000000000000 0.00000000000000000 
1 0.00000000000000000 -16.00000000000000000 1.00000000000000000 0.00000000000000000 
1 0.00000000000000000 0.00000000000000000 1.00000000000000000 0.00000000000000000 
1 0.00000000000000000 -16.00000000000000000 1.00000000000000000 0.00000000000000000 
1 0.00000000000000000 0.00000000000000000 0.00000000000000000 -1.00000000000000000 
1 6.28318530717958623 0.00000000000000000 0.00000000000000000 -1.00000000000000000 
1 0.00000000000000000 0.00000000000000000 1.00000000000000000 0.00000000000000000 
1 0.00000000000000000 -10.00000000000000000 1.00000000000000000 0.00000000000000000 
1 0.00000000000000000 0.00000000000000000 1.00000000000000000 0.00000000000000000 
1 0.00000000000000000 -16.00000000000000000 1.00000000000000000 0.00000000000000000 
1 0.00000000000000000 0.00000000000000000 1.00000000000000000 0.00000000000000000 
1 0.00000000000000000 -16.00000000000000000 1.00000000000000000 0.00000000000000000 
Curves 22
1 -70.26657064591461221 21.69325994802174762 0.00000000000000000 0.00000000000000000 0.00000000000000000 1.00000000000000000 
1 -70.26653245278123450 -21.69327802329537036 0.00000000000000000 0.00000000000000000 0.00000000000000000 1.00000000000000000 
2 -60.00000000000000000 0.00000000000000000 0.00000000000000000 0.00000000000000000 0.00000000000000000 1.00000000000000000 1.00000000000000000 0.00000000000000000 -0.00000000000000000 -0.00000000000000000 1.00000000000000000 0.00000000000000000 24.00000000000000000
1 -16.03337558768711801 -47.35959107999306639 0.00000000000000000 0.00000000000000000 0.00000000000000000 1.00000000000000000 
1 -70.26653245278123450 -21.69327802329537036 0.00000000000000000 0.90388658430408808 -0.42777218553230972 0.00000000000000000 
1 16.03332808842105450 -47.35960716062843545 0.00000000000000000 0.00000000000000000 0.00000000000000000 1.00000000000000000 
2 0.00000000000000000 0.00000000000000000 0.00000000000000000 0.00000000000000000 0.00000000000000000 1.00000000000000000 1.00000000000000000 0.00000000000000000 -0.00000000000000000 -0.00000000000000000 1.00000000000000000 0.00000000000000000 50.00000000000000000
1 70.26652562081186204 -21.69328125658296713 0.00000000000000000 0.00000000000000000 0.00000000000000000 1.00000000000000000 
1 16.03332808842105450 -47.35960716062843545 0.00000000000000000 0.90388662553984733 0.42777209840075814 0.00000000000000000 
1 70.26652562081184783 21.69328125658296003 0.00000000000000000 0.00000000000000000 0.00000000000000000 1.00000000000000000 
2 60.00000000000000000 -0.00000000000000219 0.00000000000000000 0.00000000000000000 0.00000000000000000 1.00000000000000000 1.00000000000000000 0.00000000000000000 -0.00000000000000000 -0.00000000000000000 1.00000000000000000 0.00000000000000000 24.00000000000000000
1 16.03332808842105806 47.35960716062843545 0.00000000000000000 0.00000000000000000 0.00000000000000000 1.00000000000000000 
1 16.03332808842105806 47.35960716062843545 0.00000000000000000 0.90388662553984722 -0.42777209840075830 0.00000000000000000 
1 -16.03337558768711801 47.35959107999306639 0.00000000000000000 0.00000000000000000 0.00000000000000000 1.00000000000000000 
2 0.00000000000000000 0.00000000000000000 0.00000000000000000 0.00000000000000000 0.00000000000000000 1.00000000000000000 1.00000000000000000 0.00000000000000000 -0.00000000000000000 -0.00000000000000000 1.00000000000000000 0.00000000000000000 50.00000000000000000
1 -70.26657064591461221 21.69325994802174762 0.00000000000000000 0.90388658430382285 0.42777218553287011 0.00000000000000000 
1 30.00000000000000000 0.00000000000000000 0.00000000000000000 0.00000000000000000 0.00000000000000000 1.00000000000000000 
2 0.00000000000000000 0.00000000000000000 0.00000000000000000 0.00000000000000000 0.00000000000000000 1.00000000000000000 1.00000000000000000 0.00000000000000000 -0.00000000000000000 -0.00000000000000000 1.00000000000000000 0.00000000000000000 30.00000000000000000
1 -48.00000000000000000 0.00000000000000000 0.00000000000000000 0.00000000000000000 0.00000000000000000 1.00000000000000000 
2 -60.00000000000000000 0.00000000000000000 0.00000000000000000 0.00000000000000000 0.00000000000000000 1.00000000000000000 1.00000000000000000 0.00000000000000000 -0.00000000000000000 -0.00000000000000000 1.00000000000000000 0.00000000000000000 12.00000000000000000
1 72.00000000000000000 -0.00000000000000200 0.00000000000000000 0.00000000000000000 0.00000000000000000 1.00000000000000000 
2 60.00000000000000000 -0.00000000000000219 0.00000000000000000 0.00000000000000000 0.00000000000000000 1.00000000000000000 1.00000000000000000 0.00000000000000000 -0.00000000000000000 -0.00000000000000000 1.00000000000000000 0.00000000000000000 12.00000000000000000
Polygon3D 0
PolygonOnTriangulations 0
Surfaces 26
2 -60.00000000000000000 0.00000000000000000 0.00000000000000000 -0.00000000000000000 -0.00000000000000000 -1.00000000000000000 1.00000000000000000 0.00000000000000000 0.00000000000000000 -0.00000000000000000 1.00000000000000000 -0.00000000000000000 24.00000000000000000
1 -70.26657064591461221 21.69325994802174762 0.00000000000000000 -0.42777218553287011 0.90388658430382285 0.00000000000000000 0.90388658430382285 0.42777218553287011 0.00000000000000000 0.00000000000000000 0.00000000000000000 -1.00000000000000000 
1 -70.26653245278123450 -21.69327802329537036 0.00000000000000000 0.42777218553230972 0.90388658430408808 -0.00000000000000000 0.90388658430408808 -0.42777218553230972 0.00000000000000000 0.00000000000000000 -0.00000000000000000 -1.00000000000000000 
2 -60.00000000000000000 0.00000000000000000 0.00000000000000000 -0.00000000000000000 -0.00000000000000000 -1.00000000000000000 1.00000000000000000 0.00000000000000000 0.00000000000000000 -0.00000000000000000 1.00000000000000000 -0.00000000000000000 24.00000000000000000
2 -60.00000000000000000 0.00000000000000000 0.00000000000000000 -0.00000000000000000 -0.00000000000000000 -1.00000000000000000 1.00000000000000000 0.00000000000000000 0.00000000000000000 -0.00000000000000000 1.00000000000000000 -0.00000000000000000 24.00000000000000000
2 0.00000000000000000 0.00000000000000000 0.00000000000000000 -0.00000000000000000 -0.00000000000000000 -1.00000000000000000 1.00000000000000000 0.00000000000000000 0.00000000000000000 -0.00000000000000000 1.00000000000000000 -0.00000000000000000 50.00000000000000000
2 0.00000000000000000 0.00000000000000000 0.00000000000000000 -0.00000000000000000 -0.00000000000000000 -1.00000000000000000 1.00000000000000000 0.00000000000000000 0.00000000000000000 -0.00000000000000000 1.00000000000000000 -0.00000000000000000 50.00000000000000000
2 0.00000000000000000 0.00000000000000000 0.00000000000000000 -0.00000000000000000 -0.00000000000000000 -1.00000000000000000 1.00000000000000000 0.00000000000000000 0.00000000000000000 -0.00000000000000000 1.00000000000000000 -0.00000000000000000 50.00000000000000000
1 16.03332808842105450 -47.35960716062843545 0.00000000000000000 -0.42777209840075814 0.90388662553984733 0.00000000000000000 0.90388662553984733 0.42777209840075814 0.00000000000000000 0.00000000000000000 0.00000000000000000 -1.00000000000000000 
2 60.00000000000000000 -0.00000000000000219 0.00000000000000000 -0.00000000000000000 -0.00000000000000000 -1.00000000000000000 1.00000000000000000 0.00000000000000000 0.00000000000000000 -0.00000000000000000 1.00000000000000000 -0.00000000000000000 24.00000000000000000
1 16.03332808842105806 47.35960716062843545 0.00000000000000000 0.42777209840075830 0.90388662553984722 -0.00000000000000000 0.90388662553984722 -0.42777209840075830 0.00000000000000000 0.00000000000000000 -0.00000000000000000 -1.00000000000000000 
2 60.00000000000000000 -0.00000000000000219 0.00000000000000000 -0.00000000000000000 -0.00000000000000000 -1.00000000000000000 1.00000000000000000 0.00000000000000000 0.00000000000000000 -0.00000000000000000 1.00000000000000000 -0.00000000000000000 24.00000000000000000
2 60.00000000000000000 -0.00000000000000219 0.00000000000000000 -0.00000000000000000 -0.00000000000000000 -1.00000000000000000 1.00000000000000000 0.00000000000000000 0.00000000000000000 -0.00000000000000000 1.00000000000000000 -0.00000000000000000 24.00000000000000000
2 0.00000000000000000 0.00000000000000000 0.00000000000000000 -0.00000000000000000 -0.00000000000000000 -1.00000000000000000 1.00000000000000000 0.00000000000000000 0.00000000000000000 -0.00000000000000000 1.00000000000000000 -0.00000000000000000 50.00000000000000000
2 0.00000000000000000 0.00000000000000000 0.00000000000000000 -0.00000000000000000 -0.00000000000000000 -1.00000000000000000 1.00000000000000000 0.00000000000000000 0.00000000000000000 -0.00000000000000000 1.00000000000000000 -0.00000000000000000 50.00000000000000000
2 0.00000000000000000 0.00000000000000000 0.00000000000000000 -0.00000000000000000 -0.00000000000000000 -1.00000000000000000 1.00000000000000000 0.00000000000000000 0.00000000000000000 -0.00000000000000000 1.00000000000000000 -0.00000000000000000 50.00000000000000000
2 0.00000000000000000 0.00000000000000000 0.00000000000000000 -0.00000000000000000 -0.00000000000000000 -1.00000000000000000 1.00000000000000000 0.00000000000000000 0.00000000000000000 -0.00000000000000000 1.00000000000000000 -0.00000000000000000 30.00000000000000000
2 0.00000000000000000 0.00000000000000000 0.00000000000000000 -0.00000000000000000 -0.00000000000000000 -1.00000000000000000 1.00000000000000000 0.00000000000000000 0.00000000000000000 -0.00000000000000000 1.00000000000000000 -0.00000000000000000 30.00000000000000000
2 0.00000000000000000 0.00000000000000000 0.00000000000000000 -0.00000000000000000 -0.00000000000000000 -1.00000000000000000 1.00000000000000000 0.00000000000000000 0.00000000000000000 -0.00000000000000000 1.00000000000000000 -0.00000000000000000 30.00000000000000000
2 -60.00000000000000000 0.00000000000000000 0.00000000000000000 -0.00000000000000000 -0.00000000000000000 -1.00000000000000000 1.00000000000000000 0.00000000000000000 0.00000000000000000 -0.00000000000000000 1.00000000000000000 -0.00000000000000000 12.00000000000000000
2 -60.00000000000000000 0.00000000000000000 0.00000000000000000 -0.00000000000000000 -0.00000000000000000 -1.00000000000000000 1.00000000000000000 0.00000000000000000 0.00000000000000000 -0.00000000000000000 1.00000000000000000 -0.00000000000000000 12.00000000000000000
2 -60.00000000000000000 0.00000000000000000 0.00000000000000000 -0.00000000000000000 -0.00000000000000000 -1.00000000000000000 1.00000000000000000 0.00000000000000000 0.00000000000000000 -0.00000000000000000 1.00000000000000000 -0.00000000000000000 12.00000000000000000
2 60.00000000000000000 -0.00000000000000219 0.00000000000000000 -0.00000000000000000 -0.00000000000000000 -1.00000000000000000 1.00000000000000000 0.00000000000000000 0.00000000000000000 -0.00000000000000000 1.00000000000000000 -0.00000000000000000 12.00000000000000000
2 60.00000000000000000 -0.00000000000000219 0.00000000000000000 -0.00000000000000000 -0.00000000000000000 -1.00000000000000000 1.00000000000000000 0.00000000000000000 0.00000000000000000 -0.00000000000000000 1.00000000000000000 -0.00000000000000000 12.00000000000000000
2 60.00000000000000000 -0.00000000000000219 0.00000000000000000 -0.00000000000000000 -0.00000000000000000 -1.00000000000000000 1.00000000000000000 0.00000000000000000 0.00000000000000000 -0.00000000000000000 1.00000000000000000 -0.00000000000000000 12.00000000000000000
1 -0.00000142124815097 0.00000015601840204 0.00000000000000000 0.00000000000000000 0.00000000000000000 1.00000000000000000 1.00000000000000000 0.00000000000000000 -0.00000000000000000 -0.00000000000000000 1.00000000000000000 0.00000000000000000 
Triangulations 0

TShapes 62
Ve
0.000000100000000
-70.266570645914612 21.693259948021748 0.000000000000000
0 0

0101101
*
Ed
 0.000000100000000 1 1 0
1  1 0 0.000000000000000 16.000000000000000
2  1 1 0 0.000000000000000 16.000000000000000
4 G1 1 0 2 0
0

0101000
+62 5 -62 7 *
Ve
0.000000100000000
-70.266532452781234 -21.693278023295370 0.000000000000000
0 0

0101101
*
Ed
 0.000000100000000 1 1 0
1  2 0 0.000000000000000 16.000000000000000
2  2 1 0 0.000000000000000 16.000000000000000
4 G1 1 0 3 0
0

0101000
+60 5 -60 7 *
Ed
 0.000000100000000 1 1 0
1  3 0 2.012824716921588 4.270362350856339
2  3 4 10 2.012824716921588 4.270362350856339
2  4 4 12 2.012824716921588 4.270362350856339
2  5 5 15 2.012824716921588 4.270362350856339
2  6 5 17 2.012824716921588 4.270362350856339
2  7 1 18 2.012824716921588 4.270362350856339
2  8 1 19 2.012824716921588 4.270362350856339
0

0101000
+62 0 -60 0 *
Wi

0101100
+61 0 -59 0 -58 5 +58 7 *
Fa
0  0.000000100000000 1 0

0101000
+57 0 *
Ve
0.000000100000002
-16.033375587687118 -47.359591079993066 0.000000000000000
0 0

0101101
*
Ed
 0.000000100000002 1 1 0
1  4 0 0.000000000000000 16.000000000000000
2  9 6 0 0.000000000000000 16.000000000000000
0

0101000
+55 5 -55 7 *
Ed
 0.000000100000000 1 1 0
1  5 0 0.000000000000000 59.999957745637751
0

0101000
+60 0 -55 0 *
Wi

0101100
+59 0 -54 0 -53 5 +53 7 *
Fa
0  0.000000100000000 3 0

0101000
+52 0 *
Ve
0.000000100000000
16.033328088421055 -47.359607160628435 0.000000000000000
0 0

0101101
*
Ed
 0.000000100000000 1 1 0
1  6 0 0.000000000000000 16.000000000000000
2  10 6 0 0.000000000000000 16.000000000000000
0

0101000
+50 5 -50 7 *
Ed
 0.000000100000000 1 1 0
1  7 0 4.385954849970754 5.038822107849552
2  11 7 10 4.385954849970754 5.038822107849552
2  12 7 12 4.385954849970754 5.038822107849552
2  13 8 15 4.385954849970754 5.038822107849552
2  14 8 17 4.385954849970754 5.038822107849552
2  15 6 18 4.385954849970754 5.038822107849552
2  16 6 19 4.385954849970754 5.038822107849552
0

0101000
+55 0 -50 0 *
Wi

0101100
+54 0 -49 0 -48 5 +48 7 *
Fa
0  0.000000100000000 6 0

0101000
+47 0 *
Ve
0.000000100000000
70.266525620811862 -21.693281256582967 0.000000000000000
0 0

0101101
*
Ed
 0.000000100000000 1 1 0
1  8 0 0.000000000000000 16.000000000000000
2  17 10 0 0.000000000000000 16.000000000000000
4 G1 9 0 10 0
0

0101000
+45 5 -45 7 *
Ed
 0.000000100000000 1 1 0
1  9 0 0.000000000000000 59.999999999999964
0

0101000
+50 0 -45 0 *
Wi

0101100
+49 0 -44 0 -43 5 +43 7 *
Fa
0  0.000000100000000 9 0

0101000
+42 0 *
Ve
0.000000100000000
70.266525620811848 21.693281256582960 0.000000000000000
0 0

0101101
*
Ed
 0.000000100000000 1 1 0
1  10 0 0.000000000000000 16.000000000000000
2  18 10 0 0.000000000000000 16.000000000000000
4 G1 10 0 11 0
0

0101000
+40 5 -40 7 *
Ed
 0.000000100000000 1 1 0
1  11 0 5.154415294978209 7.411955319380964
2  19 12 10 5.154415294978209 7.411955319380964
2  20 12 12 5.154415294978209 7.411955319380964
2  21 13 15 5.154415294978209 7.411955319380964
2  22 13 17 5.154415294978209 7.411955319380964
2  23 10 18 5.154415294978209 7.411955319380964
2  24 10 19 5.154415294978209 7.411955319380964
0

0101000
+45 0 -40 0 *
Wi

0101100
+44 0 -39 0 -38 5 +38 7 *
Fa
0  0.000000100000000 10 0

0101000
+37 0 *
Ve
0.000000100000000
16.033328088421058 47.359607160628435 0.000000000000000
0 0

0101101
*
Ed
 0.000000100000000 1 1 0
1  12 0 0.000000000000000 16.000000000000000
2  25 14 0 0.000000000000000 16.000000000000000
0

0101000
+35 5 -35 7 *
Ed
 0.000000100000000 1 1 0
1  13 0 0.000000000000000 59.999999999999950
0

0101000
+35 0 -40 0 *
Wi

0101100
+34 0 -39 0 -33 5 +33 7 *
Fa
0  0.000000100000000 11 0

0101000
+32 0 *
Ve
0.000000100000002
-16.033375587687118 47.359591079993066 0.000000000000000
0 0

0101101
*
Ed
 0.000000100000002 1 1 0
1  14 0 0.000000000000000 16.000000000000000
2  26 14 0 0.000000000000000 16.000000000000000
0

0101000
+30 5 -30 7 *
Ed
 0.000000100000000 1 1 0
1  15 0 1.244363199330034 1.897230457208832
2  27 15 10 1.244363199330034 1.897230457208832
2  28 15 12 1.244363199330034 1.897230457208832
2  29 16 15 1.244363199330034 1.897230457208832
2  30 16 17 1.244363199330034 1.897230457208832
2  31 14 18 1.244363199330034 1.897230457208832
2  32 14 19 1.244363199330034 1.897230457208832
0

0101000
+35 0 -30 0 *
Wi

0101100
+34 0 -29 0 -28 5 +28 7 *
Fa
0  0.000000100000000 14 0

0101000
+27 0 *
Ed
 0.000000100000000 1 1 0
1  16 0 0.000000000000000 59.999999999997925
0

0101000
+62 0 -30 0 *
Wi

0101100
+61 0 -29 0 -25 5 +25 7 *
Fa
0  0.000000100000000 2 0

0101000
+24 0 *
Ve
0.000000100000000
30.000000000000000 0.000000000000000 0.000000000000000
0 0

0101101
*
Ed
 0.000000100000000 1 1 0
1  17 0 0.000000000000000 16.000000000000000
3  33 34CN 17 0 0.000000000000000 16.000000000000000
0

0101000
+22 5 -22 7 *
Ed
 0.000000100000000 1 1 0
1  18 0 0.000000000000000 6.283185307179586
2  35 18 10 0.000000000000000 6.283185307179586
2  36 18 12 0.000000000000000 6.283185307179586
2  37 19 15 0.000000000000000 6.283185307179586
2  38 19 17 0.000000000000000 6.283185307179586
2  39 17 18 0.000000000000000 6.283185307179586
2  40 17 19 0.000000000000000 6.283185307179586
0

0101000
+22 0 -22 0 *
Wi

0101100
+21 0 -21 0 -20 5 +20 7 *
Fa
0  0.000000100000000 17 0

0101000
+19 0 *
Ve
0.000000100000000
-48.000000000000000 0.000000000000000 0.000000000000000
0 0

0101101
*
Ed
 0.000000100000000 1 1 0
1  19 0 0.000000000000000 16.000000000000000
3  41 42CN 20 0 0.000000000000000 16.000000000000000
0

0101000
+17 5 -17 7 *
Ed
 0.000000100000000 1 1 0
1  20 0 0.000000000000000 6.283185307179586
2  43 21 10 0.000000000000000 6.283185307179586
2  44 21 12 0.000000000000000 6.283185307179586
2  45 22 15 0.000000000000000 6.283185307179586
2  46 22 17 0.000000000000000 6.283185307179586
2  47 20 18 0.000000000000000 6.283185307179586
2  48 20 19 0.000000000000000 6.283185307179586
0

0101000
+17 0 -17 0 *
Wi

0101100
+16 0 -16 0 -15 5 +15 7 *
Fa
0  0.000000100000000 20 0

0101000
+14 0 *
Ve
0.000000100000000
72.000000000000000 -0.000000000000002 0.000000000000000
0 0

0101101
*
Ed
 0.000000100000000 1 1 0
1  21 0 0.000000000000000 16.000000000000000
3  49 50CN 23 0 0.000000000000000 16.000000000000000
0

0101000
+12 5 -12 7 *
Ed
 0.000000100000000 1 1 0
1  22 0 0.000000000000000 6.283185307179586
2  51 24 10 0.000000000000000 6.283185307179586
2  52 24 12 0.000000000000000 6.283185307179586
2  53 25 15 0.000000000000000 6.283185307179586
2  54 25 17 0.000000000000000 6.283185307179586
2  55 23 18 0.000000000000000 6.283185307179586
2  56 23 19 0.000000000000000 6.283185307179586
0

0101000
+12 0 -12 0 *
Wi

0101100
+11 0 -11 0 -10 5 +10 7 *
Fa
0  0.000000100000000 23 0

0101000
+9 0 *
Wi

0101100
+58 21 +53 21 +48 21 +43 21 +38 21 -33 21 +28 21 -25 21 *
Wi

0101100
-20 21 *
Wi

0101100
-15 21 *
Wi

0101100
-10 21 *
Fa
0  0.000000100000000 26 0

0101000
+7 0 +6 0 +5 0 +4 0 *
Sh

0101100
+56 0 +51 0 +46 0 +41 0 +36 0 -31 0 +26 0 -23 0 -18 0 -13 0 
-8 0 +3 20 -3 22 *
So

1100000
-2 0 *

+1 1 
