DBRep_DrawableShape

CASCADE Topology V1, (c) Matra-Datavision
Locations 1
1
              1               0               0              -0 
              0               1               0              -0 
              0               0               1            -0.5 
Curve2ds 4
1 -2 0 0 1 
1 0 -2 1 0 
1 2 0 0 1 
1 0 2 1 0 
Curves 8
1 -2 -2 0 -0 -0 -1 
1 -2 2 0 -0 -0 -1 
1 -2 0 0 -0 1 0 
1 2 -2 0 -0 -0 -1 
1 0 -2 0 1 0 -0 
1 2 2 0 -0 -0 -1 
1 2 0 0 -0 1 0 
1 0 2 0 1 0 -0 
Polygon3D 0
PolygonOnTriangulations 0
Surfaces 5
1 -2 -2 0 1 0 -0 0 1 0 0 -0 1 
1 0 0 0 0 0 1 1 0 -0 -0 1 0 
1 -2 -2 0 0 -1 0 1 0 0 -0 0 1 
1 2 -2 0 1 0 -0 0 1 0 0 -0 1 
1 -2 2 0 0 -1 0 1 0 0 -0 0 1 
Triangulations 0

TShapes 24
Ve
1e-07
-2 -2 0
0 0

0101101
*
Ed
 1e-07 1 1 0
1  1 0 0 0.5
0

0101000
+24 0 -24 1 *
Ve
1e-07
-2 2 0
0 0

0101101
*
Ed
 1e-07 1 1 0
1  2 0 0 0.5
0

0101000
+22 0 -22 1 *
Ed
 1e-07 1 1 0
1  3 0 -2 2
2  1 2 0 -2 2
0

0101000
+24 0 -22 0 *
Wi

0101100
+23 0 -21 0 -20 0 +20 1 *
Fa
0  1e-07 1 0

0101000
+19 0 *
Ve
1e-07
2 -2 0
0 0

0101101
*
Ed
 1e-07 1 1 0
1  4 0 0 0.5
0

0101000
+17 0 -17 1 *
Ed
 1e-07 1 1 0
1  5 0 -2 2
2  2 2 0 -2 2
0

0101000
+24 0 -17 0 *
Wi

0101100
+23 0 -16 0 -15 0 +15 1 *
Fa
0  1e-07 3 0

0101000
+14 0 *
Ve
1e-07
2 2 0
0 0

0101101
*
Ed
 1e-07 1 1 0
1  6 0 0 0.5
0

0101000
+12 0 -12 1 *
Ed
 1e-07 1 1 0
1  7 0 -2 2
2  3 2 0 -2 2
0

0101000
+17 0 -12 0 *
Wi

0101100
+16 0 -11 0 -10 0 +10 1 *
Fa
0  1e-07 4 0

0101000
+9 0 *
Ed
 1e-07 1 1 0
1  8 0 -2 2
2  4 2 0 -2 2
0

0101000
+22 0 -12 0 *
Wi

0101100
+21 0 -11 0 -7 0 +7 1 *
Fa
0  1e-07 5 0

0101000
+6 0 *
Wi

0101100
-20 0 +15 0 +10 0 -7 0 *
Fa
0  1e-07 2 0

0101000
+4 0 *
Sh

0101100
-18 0 +13 0 +8 0 -5 0 +3 0 -3 1 *
So

1100000
+2 0 *

+1 0 
0

