DBRep_DrawableShape

CASCADE Topology V1, (c) Matra-Datavision
Locations 5
1
              1               0               0              -0 
              0               1               0              -0 
              0               0               1              -0 
2  1 -1 0
1
              1               0               0               0 
              0               1               0               0 
              0               0               1              50 
2  1 1 3 1 0
2  3 -1 1 -1 0
Curve2ds 20
1 0 0 1 0 
2 0 0 1 0 -0 1 55.547721359398295
8 -50.0000006 5.9999999999999997e-07
1 1.5707963267948966 0 0 1 
8 -50.0000006 5.9999999999999997e-07
1 0 -55.547721359398295 -1 0 
8 -50 -0
1 1.5707963267948966 0 0 1 
1 0 -50 1 0 
2 0 0 1 0 -0 1 55.547721359398295
1 0 0 0 -1 
1 6.2831853071795862 0 0 -1 
2 0 0 1 0 -0 1 55.547721359398295
1 0 0 1 0 
1 0 0 1 0 
2 0 0 1 0 -0 1 55.547721359398295
8 -50.0000006 5.9999999999999997e-07
1 0 55.547721359398295 -1 0 
8 -50.0000006 5.9999999999999997e-07
1 4.7123889803846897 0 0 1 
8 -50 0
1 4.7123889803846897 0 0 1 
1 0 -50 1 0 
2 0 0 1 0 -0 1 55.547721359398295
2 0 0 1 0 -0 1 55.547721359398295
1 0 -50 1 0 
Curves 9
2 0 0 0 0 0 1 1 0 -0 -0 1 0 55.547721359398295
1 0 55.547721359398295 0 -0 -0 -1 
2 0 0 0 0 0 1 1 0 -0 -0 1 0 55.547721359398295
1 55.547721359398295 0 0 0 0 1 
2 0 0 0 0 0 1 1 0 -0 -0 1 0 55.547721359398295
2 0 0 0 0 0 1 1 0 -0 -0 1 0 55.547721359398295
1 0 -55.547721359398295 0 -0 -0 -1 
2 0 0 0 0 0 1 1 0 -0 -0 1 0 55.547721359398295
2 0 0 0 0 0 1 1 0 -0 -0 1 0 55.547721359398295
Polygon3D 0
PolygonOnTriangulations 2
2 1 12 
p 44.4381772075186 1 0 50 
2 1 2 
p 44.4381772075186 1 0 50 
Surfaces 8
2 0 0 0 -0 -0 -1 1 0 -0 -0 1 -0 55.547721359398295
1 0 0 0 0 0 1 1 0 -0 -0 1 0 
1 -0 0 0 1 0 0 -0 0 1 0 -1 0 
2 0 0 0 -0 -0 -1 1 0 -0 -0 1 -0 55.547721359398295
1 0 0 0 0 0 1 1 0 -0 -0 1 0 
2 0 0 0 -0 -0 -1 1 0 -0 -0 1 -0 55.547721359398295
1 0 0 0 0 0 1 1 0 -0 -0 1 0 
1 0 0 0 0 0 1 1 0 -0 -0 1 0 
Triangulations 2
20 18 1 0.211375850088109
55.5477213593983 0 0 3.40131695813581e-15 55.5477213593983 0 54.7038266568973 9.64576058760994 0 52.1977838628984 18.9984396207557 0 48.1057378195784 27.7738606796991 0 42.5520232752884 35.7053870361416 0 35.7053870361416 42.5520232752884 0 27.7738606796992 48.1057378195784 0 18.9984396207557 52.1977838628984 0 9.64576058760994 54.7038266568973 0 3.40131695813581e-15 55.5477213593983 50 55.5477213593983 0 50 54.7038266568973 9.64576058760994 50 52.1977838628984 18.9984396207557 50 48.1057378195784 27.7738606796991 50 42.5520232752884 35.7053870361416 50 35.7053870361416 42.5520232752884 50 27.7738606796992 48.1057378195784 50 18.9984396207557 52.1977838628984 50 9.64576058760994 54.7038266568973 50 0 0 1.5707963267949 0 0.174532925199433 0 0.349065850398866 0 0.523598775598299 0 0.698131700797732 0 0.872664625997165 0 1.0471975511966 0 1.22173047639603 0 1.39626340159546 0 1.5707963267949 -50 0 -50 0.174532925199433 -50 0.349065850398866 -50 0.523598775598299 -50 0.698131700797732 -50 0.872664625997165 -50 1.0471975511966 -50 1.22173047639603 -50 1.39626340159546 -50 3 12 13 3 1 12 4 13 14 4 3 13 5 14 15 5 4 14 6 15 16 6 5 15 7 16 17 7 6 16 8 17 18 8 7 17 9 18 19 9 8 18 10 19 20 10 9 19 2 20 11 2 10 20 
20 18 1 0.211375850088111
55.5477213593983 0 0 55.5477213593983 0 50 -1.02039508744074e-14 -55.5477213593983 50 9.64576058760992 -54.7038266568973 50 18.9984396207557 -52.1977838628984 50 27.7738606796991 -48.1057378195784 50 35.7053870361415 -42.5520232752885 50 42.5520232752884 -35.7053870361416 50 48.1057378195784 -27.7738606796992 50 52.1977838628983 -18.9984396207558 50 54.7038266568973 -9.64576058761004 50 -1.02039508744074e-14 -55.5477213593983 0 9.64576058760992 -54.7038266568973 0 18.9984396207557 -52.1977838628984 0 27.7738606796991 -48.1057378195784 0 35.7053870361415 -42.5520232752885 0 42.5520232752884 -35.7053870361416 0 48.1057378195784 -27.7738606796992 0 52.1977838628983 -18.9984396207558 0 54.7038266568973 -9.64576058761004 0 6.28318530717959 0 6.28318530717959 -50 4.71238898038469 -50 4.88692190558412 -50 5.06145483078356 -50 5.23598775598299 -50 5.41052068118242 -50 5.58505360638185 -50 5.75958653158129 -50 5.93411945678072 -50 6.10865238198015 -50 4.71238898038469 0 4.88692190558412 0 5.06145483078356 0 5.23598775598299 0 5.41052068118242 0 5.58505360638185 0 5.75958653158129 0 5.93411945678072 0 6.10865238198015 0 13 3 4 13 12 3 14 4 5 14 5 6 14 13 4 15 14 6 16 6 7 16 7 8 16 15 6 17 16 8 18 8 9 18 17 8 19 9 10 19 18 9 20 10 11 20 11 2 20 19 10 1 20 2 

TShapes 27
Ve
1e-07
55.5477213593983 0 0
0 0

0101101
*
Ve
1.50000003401317e-07
3.40131695813581e-15 55.5477213593983 0
0 0

0101101
*
Ed
 1e-07 1 1 0
1  1 0 0 1.5707963267949
2  1 1 2 0 1.5707963267949
2  2 2 0 0 1.5707963267949
0

0101000
+27 2 -26 2 *
Ve
1.50000003401317e-07
3.40131695813581e-15 55.5477213593983 50
0 0

0101101
*
Ed
 1e-07 1 1 0
1  2 0 -50 -0
2  3 1 0 -50 -0
2  4 3 0 -50 -0
2  5 4 0 -50 -0
0

0101000
+24 0 -26 0 *
Ve
1e-07
55.5477213593983 0 50
0 0

0101101
*
Ed
 1e-07 1 1 0
1  3 0 0 1.5707963267949
2  6 1 5 0 1.5707963267949
2  7 5 0 0 1.5707963267949
0

0101000
+22 5 -24 5 *
Ed
 1e-07 1 1 0
1  4 0 0 50
2  8 1 0 0 50
2  9 6 0 0 50
4 CN 1 0 6 0
6  1 1 0
6  2 2 0
0

0101000
+27 0 -22 0 *
Wi

0101100
-25 1 +23 0 +21 4 +20 0 *
Fa
0  1e-07 1 0

0101000
+19 0 *
Ve
1.50000010203951e-07
-1.02039508744074e-14 -55.5477213593983 0
0 0

0101101
*
Ed
 1e-07 1 1 0
1  5 0 4.71238898038469 6.28318530717959
2  10 2 0 4.71238898038469 6.28318530717959
2  11 6 2 4.71238898038469 6.28318530717959
0

0101000
+17 2 -27 2 *
Ed
 1e-07 1 1 0
1  6 0 1.5707963267949 4.71238898038469
2  12 4 2 1.5707963267949 4.71238898038469
2  13 7 0 1.5707963267949 4.71238898038469
0

0101000
+26 2 -17 2 *
Wi

0101100
+16 1 +25 1 +15 1 *
Fa
0  0 2 1

0101000
+14 0 *
Ve
1.50000010203951e-07
-1.02039508744074e-14 -55.5477213593983 50
0 0

0101101
*
Ed
 1e-07 1 1 0
1  7 0 -50 0
2  14 3 0 -50 0
2  15 6 0 -50 0
2  16 4 0 -50 0
0

0101000
+12 0 -17 0 *
Ed
 1e-07 1 1 0
1  8 0 1.5707963267949 4.71238898038469
2  17 4 5 1.5707963267949 4.71238898038469
2  18 8 0 1.5707963267949 4.71238898038469
0

0101000
+24 5 -12 5 *
Wi

0101100
-15 1 +11 0 +10 4 -23 0 *
Fa
0  1e-07 4 0

0101000
+9 0 *
Ed
 1e-07 1 1 0
1  9 0 4.71238898038469 6.28318530717959
2  19 5 0 4.71238898038469 6.28318530717959
2  20 6 5 4.71238898038469 6.28318530717959
0

0101000
+12 5 -22 5 *
Wi

0101100
+7 4 +21 4 +10 4 *
Fa
0  0 5 4

0101000
+6 0 *
Wi

0101100
-20 0 +7 4 -11 0 -16 1 *
Fa
0  1e-07 6 0

0101000
+4 0 *
Sh

0101100
-18 0 -13 0 -8 0 +5 0 -3 0 *
So

0100000
+2 0 *

+1 0 
0

