DBRep_DrawableShape

CASCADE Topology V1, (c) Matra-Datavision
Locations 0
Curve2ds 20
1 0 0 1 0 
1 0 0 1 0 
1 3.1415926535897931 0 0 1 
1 3.1415926535897931 0 0 1 
7 0 0  8 16 3  3.1415926535897931 3.6999999999999997  3.1028827600293831 3.7000000019451478  3.0636217385852134 3.704281258922085  3.0264851980429786 3.7130571809239092  2.9938511869782625 3.7258619189616837  2.9676686108004984 3.7419561305554119  2.9494925740198785 3.7603632375263962  2.9402347327994622 3.7800802680939434  2.9402347327994622 3.8199198309788334  2.9494926664118584 3.8396368952863389  2.9676687791121332 3.8580439803729147  2.9938513652329055 3.8741381691400836  3.0264854244490693 3.886942900109756  3.0636219943423395 3.8957187789192256  3.1028829309497494 3.8999999980548603  3.1415926535897931 3.8999999999999999 
 0 9 0.49999875660311111 7 1 9
7 0 0  8 16 3  3.1415926535897931 0.099999999999999978  3.335142121391844 0.10000000019354945  3.5314399799408198 0.10085628874964535  3.7277712459184804 0.10261135805554367  3.9239051840472321 0.10497505424883852  4.1198934855396434 0.10735875996664218  4.3160234239749844 0.1091762587239266  4.5131916613241243 0.11010205144336438  4.911587290173026 0.11010205144336438  5.1087558641797814 0.10917624946875544  5.3048857655277679 0.10735874310118558  5.5008740332805157 0.10497504177129829  5.6970079817176442 0.10261134132070165  5.8933392630544752 0.10085628129386795  6.0896366939793669 0.1000000001935486  6.2831853071795862 0.099999999999999978 
 0 9 0.49999875660311111 7 1 9
1 0 -0 0 1 
1 6.2831853071795862 -0 0 1 
7 0 0  8 16 3  0 3.6999999999999997  0.038709893560386822 3.7000000019451478  0.077970915004872451 3.7042812589221388  0.11510745554639101 3.7130571809237756  0.14774146661170356 3.7258619189618698  0.1739240427893689 3.7419561305551805  0.1921000795698545 3.7603632375266405  0.20135792079033088 3.7800802680938084  0.20135792079033088 3.8199198309781615  0.19209998717807614 3.8396368952878546  0.17392387447711521 3.8580439803719409  0.14774128835646974 3.8741381691398291  0.11510722914366542 3.8869429001101925  0.077970659244139304 3.8957187789191217  0.038709722641352001 3.8999999980548603  0 3.8999999999999999 
 0 9 0.49999875661323806 7 1 9
7 0 0  8 16 3  3.1415926535897931 1.1000000000000001  3.3351421213917281 1.0999999998064507  3.5314399799428351 1.0991437112503513  3.7277712459144627 1.0973886419444541  3.9239051840513359 1.0950249457511794  4.1198934855363509 1.0926412400333365  4.3160234239776214 1.0908237412760817  4.5131916613227734 1.0898979485566356  4.9115872901663078 1.0898979485566356  5.1087558641973407 1.090823750531196  5.3048857655082369 1.0926412568990238  5.5008740332986426 1.0950249582283909  5.6970079816952683 1.0973886586794872  5.8933392630730363 1.0991437187060906  6.0896366939728255 1.0999999998064516  6.2831853071795862 1.1000000000000001 
 0 9 0.49999875661323806 7 1 9
1 0 4 1 0 
7 0 0  8 16 3  3.1415926535897931 3.8999999999999999  3.1803025471496782 3.8999999980548519  3.219563568595373 3.8957187410780154  3.2567001091364167 3.8869428190757342  3.2893341202003699 3.8741380810385966  3.315516696379972 3.8580438694449013  3.3336927331594568 3.839636762472991  3.342950574380124 3.8199197319063622  3.342950574380124 3.7800801652774769  3.3336926373132516 3.7603630994714536  3.3155165212262512 3.7419560190492436  3.2893339450931181 3.7258618337460212  3.2566998866993719 3.7130571010935172  3.2195633224309934 3.7042812263057425  3.1803023998076654 3.7000000019451402  3.1415926535897931 3.6999999999999997 
 0 9 0.49999870962250376 7 1 9
7 0 0  8 16 3  0 0.099999999999999978  0.19354946779942567 0.10000000019354945  0.38984732635678249 0.10085628874962053  0.58617859232467451 0.10261135805564595  0.78231253045943427 0.10497505424868642  0.97830083194475437 0.1073587599667413  1.174430770391774 0.10917625872390181  1.3715990077312727 0.11010205144336438  1.7699946740201242 0.11010205144336438  1.9671632630117919 0.10917624911950612  2.1632931246661862 0.10735874241369919  2.3592813649036399 0.10497504238602248  2.5554152910177024 0.10261134140660486  2.7517465610894378 0.10085628236557763  2.9480439225004313 0.10000000019354871  3.1415926535897931 0.099999999999999978 
 0 9 0.49999870962250376 7 1 9
1 0 4 1 0 
7 0 0  8 16 3  6.2831853071795862 3.8999999999999999  6.2444754136192193 3.8999999980548519  6.2052143921747849 3.8957187410778777  6.1680778516328072 3.8869428190761717  6.1354438405683371 3.8741380810381187  6.1092612643900805 3.8580438694449426  6.0910852276097245 3.839636762473309  6.0818273863892554 3.8199197319061664  6.0818273863892554 3.7800801652774512  6.0910853234561904 3.7603630994717694  6.1092614395424754 3.7419560190489873  6.135444015677499 3.7258618337456975  6.168078074069725 3.7130571010939568  6.2052146383374742 3.7042812263056342  6.2444755609621971 3.7000000019451402  6.2831853071795862 3.6999999999999997 
 0 9 0.49999870961972265 7 1 9
7 0 0  8 16 3  0 1.1000000000000001  0.1935494678018374 1.0999999998064507  0.38984732635227337 1.0991437112503559  0.58617859232770231 1.0973886419444363  0.78231253045834404 1.0950249457511965  0.97830083194727679 1.0926412400333378  1.1744307703878345 1.0908237412760775  1.371599007733233 1.0898979485566356  1.7699946740203822 1.0898979485566356  1.9671632630080758 1.0908237508804988  2.1632931246704725 1.0926412575862359  2.3592813649034063 1.0950249576141271  2.5554152910195285 1.0973886585932739  2.75174656108394 1.0991437176344507  2.9480439225028454 1.0999999998064514  3.1415926535897931 1.1000000000000001 
 0 9 0.49999870961972265 7 1 9
1 3.1415926535897931 0 0 1 
1 3.1415926535897931 0 0 1 
1 6.2831853071795862 -0 0 1 
1 0 -0 0 1 
Curves 44
1 0 0 0 0 0 1 
1 0 0 1 -0 1 0 
1 0 2 0 0 0 1 
1 0 0 0 -0 1 0 
1 0 0 0 1 0 -0 
1 4 0 0 0 0 1 
1 0 0 1 1 0 -0 
1 0 0 1 0 0 1 
1 0 0 2 -0 1 0 
1 0 2 1 0 0 1 
1 0 2 0 1 0 -0 
1 4 2 0 0 0 1 
1 0 2 1 1 0 -0 
1 4 0 0 -0 1 0 
1 4 0 1 -0 1 0 
1 4 0 1 -0 1 0 
1 4 0 1 0 0 1 
1 0 0 2 1 0 -0 
1 0 0 2 0 0 1 
1 0 0 3 -0 1 0 
1 0 2 2 0 0 1 
1 4 2 1 0 0 1 
1 0 2 2 1 0 -0 
1 4 0 2 -0 1 0 
2 4 1 1.5 1 0 -0 0 0 1 0 -1 0 0.5
2 4 1 1.5 1 0 -0 0 0 1 0 -1 0 0.5
1 4 0 2 -0 1 0 
1 4 0 2 0 0 1 
1 0 0 3 1 0 -0 
1 0 2 3 1 0 -0 
1 4 0 3 -0 1 0 
1 4 2 2 0 0 1 
7 0 0  1 2 2  4 0.99999999999999989 1  8 0.99999999999999989 1 
 0 2 4 2
7 0 0  8 16 3  7.6999999999999993 1 1  7.7000000019354946 0.980645053219795 1.0000000001935494  7.7042812589524461 0.96101465953580978 1.0008562887496453  7.7130571808766462 0.94248993392485325 1.0026113580555438  7.7258619190043394 0.92631255646731436 1.0049750542488385  7.7419561305333797 0.9134404808950779 1.0073587599666423  7.7603632375317098 0.90453527119539023 1.0091762587239266  7.7800802680939434 0.89999999999999991 1.0101020514433645  7.8199198309788329 0.89999999999999991 1.0101020514433645  7.8396368952810267 0.90453531638715989 1.0091762494687555  7.8580439803949371 0.91344056350108849 1.0073587431011857  7.8741381690974492 0.92631264473117303 1.0049750417712984  7.8869429001570062 0.94249004613042708 1.0026113413207016  7.8957187788888668 0.9610147875367413 1.0008562812938679  7.8999999980645139 0.98064513867997816 1.0000000001935487  7.9000000000000004 1 1 
 0 9 0.49999875660311111 7 1 9
7 0 0  1 2 2  4 0.99999999999999989 1  8 0.99999999999999989 1 
 0 2 4 2
1 4 1.0000000000000002 2 1 0 0 
7 0 0  8 16 3  7.6999999999999993 1 2  7.7000000019354946 0.98064505321980655 1.9999999998064506  7.7042812589525003 0.96101465953566734 1.9991437112503532  7.713057180876512 0.94248993392505531 1.9973886419444491  7.7258619190045259 0.9263125564672372 1.9950249457511855  7.7419561305331479 0.91344048089503715 1.9926412400333324  7.7603632375319531 0.90453527119542088 1.990823741276083  7.7800802680938084 0.89999999999999991 1.9898979485566355  7.8199198309781615 0.89999999999999991 1.9898979485566355  7.8396368952825419 0.90453531638707763 1.9908237505311954  7.8580439803939637 0.91344056350139269 1.9926412568990255  7.8741381690971952 0.92631264473134134 1.9950249582283888  7.8869429001574431 0.94249004612898468 1.9973886586794884  7.8957187788887628 0.96101478753838987 1.9991437187060905  7.8999999980645139 0.98064513867932401 1.9999999998064513  7.9000000000000004 1 2 
 0 9 0.49999875661323806 7 1 9
1 4 1.0000000000000002 2 1 0 0 
2 8 1 1.5 1 0 -0 0 0 1 0 -1 0 0.5
7 0 0  8 16 3  7.9000000000000004 1 1  7.899999998064505 1.0193549467799423 1.0000000001935494  7.8957187410476539 1.0389853404646976 1.0008562887496206  7.8869428191229982 1.0575100660750261 1.0026113580556459  7.8741380809959409 1.0736874435322452 1.0049750542486864  7.8580438694669335 1.0865595191053372 1.0073587599667413  7.8396367624676779 1.0954647288044925 1.0091762587239019  7.8199197319063618 1.1000000000000001 1.0101020514433645  7.7800801652774769 1.1000000000000001 1.0101020514433645  7.7603630994767663 1.0954646819250626 1.0091762491195062  7.741956019027219 1.0865594331294381 1.0073587424136992  7.7258618337886595 1.0736873567950376 1.0049750423860224  7.713057101046263 1.0575099558081125 1.0026113414066049  7.7042812263361036 1.0389852172527612 1.0008562823655778  7.7000000019354875 1.0193548731089361 1.0000000001935487  7.6999999999999993 1 1 
 0 9 0.49999870962250376 7 1 9
2 8 1 1.5 1 0 -0 0 0 1 0 -1 0 0.5
7 0 0  8 16 3  7.9000000000000004 1 2  7.899999998064505 1.0193549467801837 1.9999999998064506  7.8957187410475171 1.038985340464303 1.9991437112503558  7.8869428191234352 1.0575100660751264 1.9973886419444378  7.8741380809954631 1.0736874435325428 1.9950249457511937  7.8580438694669752 1.0865595191050341 1.99264124003334  7.8396367624679959 1.0954647288045802 1.990823741276077  7.8199197319061664 1.1000000000000001 1.9898979485566355  7.7800801652774512 1.1000000000000001 1.9898979485566355  7.7603630994770825 1.0954646819250251 1.9908237508804993  7.7419560190269623 1.0865594331297783 1.9926412575862344  7.7258618337883362 1.0736873567944079 1.9950249576141292  7.7130571010467026 1.0575099558082577 1.9973886585932723  7.7042812263359943 1.0389852172532166 1.9991437176344515  7.7000000019354875 1.0193548731086948 1.9999999998064513  7.6999999999999993 1 2 
 0 9 0.49999870961972265 7 1 9
7 0 0  1 2 2  7.6999999999999993 1 0.90000000000000002  7.6999999999999993 1 2.1000000000000001 
 0 2 1.2 2
1 7.9000000000000004 1 0.90000000000000002 0 0 1 
Polygon3D 0
PolygonOnTriangulations 0
Surfaces 20
1 0 0 0 1 0 -0 0 0 1 0 -1 0 
1 0 0 0 -0 1 0 0 0 1 1 0 -0 
1 0 0 1 1 0 -0 0 0 1 0 -1 0 
1 0 2 0 -0 1 0 0 0 1 1 0 -0 
1 0 0 0 0 0 1 1 0 -0 -0 1 0 
1 4 0 0 1 0 -0 0 0 1 0 -1 0 
1 0 0 1 -0 1 0 0 0 1 1 0 -0 
1 0 0 2 1 0 -0 0 0 1 0 -1 0 
1 0 2 1 -0 1 0 0 0 1 1 0 -0 
1 4 0 1 1 0 -0 0 0 1 0 -1 0 
10 0 3.1415926535897931 0 4
2 4 1 1.5 1 0 0 0 0 1 0 -1 0 0.5
1 4 0 1 1 0 -0 0 0 1 0 -1 0 
10 3.1415926535897931 6.2831853071795862 0 4
2 4 1 1.5 1 0 0 0 0 1 0 -1 0 0.5
1 0 0 2 -0 1 0 0 0 1 1 0 -0 
1 0 0 3 0 0 1 1 0 -0 -0 1 0 
1 0 2 2 -0 1 0 0 0 1 1 0 -0 
1 4 0 2 1 0 -0 0 0 1 0 -1 0 
10 3.1415926535897931 6.2831853071795862 0 1.2
2 7.7999999999999998 1 0.90000000000000002 0 0 1 1 0 0 0 1 0 0.10000000000000001
10 0 3.1415926535897931 0 1.2
2 7.7999999999999998 1 0.90000000000000002 0 0 1 1 0 0 0 1 0 0.10000000000000001
1 8 1 1.5 1 0 0 0 0 1 0 -1 0 
Triangulations 0

TShapes 110
Ve
1e-07
0 0 0
0 0

0101101
*
Ve
1e-07
0 0 1
0 0

0101101
*
Ed
 1e-07 1 1 0
1  1 0 0 1
0

0101000
+110 0 -109 0 *
Ve
1e-07
0 2 1
0 0

0101101
*
Ed
 1e-07 1 1 0
1  2 0 0 2
0

0101000
+109 0 -107 0 *
Ve
1e-07
0 2 0
0 0

0101101
*
Ed
 1e-07 1 1 0
1  3 0 0 1
0

0101000
+105 0 -107 0 *
Ed
 1e-07 1 1 0
1  4 0 0 2
0

0101000
-105 0 +110 0 *
Wi

0101100
-108 0 -106 0 +104 0 +103 0 *
Fa
0  1e-07 1 0

0111000
+102 0 *
Ve
1e-07
4 0 0
0 0

0101101
*
Ed
 1e-07 1 1 0
1  5 0 0 4
0

0101000
-100 0 +110 0 *
Ve
1e-07
4 0 1
0 0

0101101
*
Ed
 1e-07 1 1 0
1  6 0 0 1
0

0101000
+100 0 -98 0 *
Ed
 1e-07 1 1 0
1  7 0 0 4
0

0101000
+109 0 -98 0 *
Wi

0101100
-99 0 -97 0 +96 0 +108 0 *
Fa
0  1e-07 2 0

0111000
+95 0 *
Ve
1e-07
0 0 2
0 0

0101101
*
Ed
 1e-07 1 1 0
1  8 0 0 1
0

0101000
+109 0 -93 0 *
Ve
1e-07
0 2 2
0 0

0101101
*
Ed
 1e-07 1 1 0
1  9 0 0 2
0

0101000
+93 0 -91 0 *
Ed
 1e-07 1 1 0
1  10 0 0 1
0

0101000
+107 0 -91 0 *
Wi

0101100
-92 0 -90 0 +89 0 +106 0 *
Fa
0  1e-07 3 0

0111000
+88 0 *
Ve
1e-07
4 2 0
0 0

0101101
*
Ed
 1e-07 1 1 0
1  11 0 0 4
0

0101000
-86 0 +105 0 *
Ve
1e-07
4 2 1
0 0

0101101
*
Ed
 1e-07 1 1 0
1  12 0 0 1
0

0101000
+86 0 -84 0 *
Ed
 1e-07 1 1 0
1  13 0 0 4
0

0101000
+107 0 -84 0 *
Wi

0101100
-85 0 -83 0 +82 0 +104 0 *
Fa
0  1e-07 4 0

0111000
+81 0 *
Ed
 1e-07 1 1 0
1  14 0 0 2
0

0101000
-86 0 +100 0 *
Wi

0101100
-103 0 -85 0 +79 0 +99 0 *
Fa
0  1e-07 5 0

0111000
+78 0 *
Ve
1e-05
4 1 1
0 0

0101101
*
Ed
 1e-07 1 1 0
1  15 0 0 1
0

0101000
+98 0 -76 0 *
Ed
 1e-07 1 1 0
1  16 0 1 2
0

0101000
+76 0 -84 0 *
Wi

0101100
-97 0 -75 0 -74 0 +83 0 +79 0 *
Fa
0  1e-07 6 0

0111000
+73 0 *
Ve
1e-07
4 0 2
0 0

0101101
*
Ed
 1e-07 1 1 0
1  17 0 0 1
0

0101000
+98 0 -71 0 *
Ed
 1e-07 1 1 0
1  18 0 0 4
0

0101000
+93 0 -71 0 *
Wi

0101100
-96 0 -70 0 +69 0 +92 0 *
Fa
0  1e-07 7 0

0111000
+68 0 *
Ve
1e-07
0 0 3
0 0

0101101
*
Ed
 1e-07 1 1 0
1  19 0 0 1
0

0101000
+93 0 -66 0 *
Ve
1e-07
0 2 3
0 0

0101101
*
Ed
 1e-07 1 1 0
1  20 0 0 2
0

0101000
-64 0 +66 0 *
Ed
 1e-07 1 1 0
1  21 0 0 1
0

0101000
+91 0 -64 0 *
Wi

0101100
-65 0 -63 0 +62 0 +90 0 *
Fa
0  1e-07 8 0

0111000
+61 0 *
Ve
1e-07
4 2 2
0 0

0101101
*
Ed
 1e-07 1 1 0
1  22 0 0 1
0

0101000
+84 0 -59 0 *
Ed
 1e-07 1 1 0
1  23 0 0 4
0

0101000
+91 0 -59 0 *
Wi

0101100
-82 0 -58 0 +57 0 +89 0 *
Fa
0  1e-07 9 0

0111000
+56 0 *
Ve
1.00000000058387e-07
4 1 2
0 0

0101101
*
Ed
 1e-07 1 1 0
1  24 0 0 1
0

0101000
+71 0 -54 0 *
Ed
 1e-07 1 1 0
1  25 0 0 3.14159265358979
2  1 11 0 0 3.14159265358979
0

0101000
+54 0 -76 0 *
Wi

0101100
-70 0 -53 0 -52 0 +75 0 *
Fa
0  1e-07 10 0

0111000
+51 0 *
Ed
 1e-07 1 1 0
1  26 0 3.14159265358979 6.28318530717959
2  2 13 0 3.14159265358979 6.28318530717959
0

0101000
+76 0 -54 0 *
Ed
 1e-07 1 1 0
1  27 0 1 2
0

0101000
+54 0 -59 0 *
Wi

0101100
-49 0 -48 0 +58 0 +74 0 *
Fa
0  1e-07 12 0

0111000
+47 0 *
Ve
1e-07
4 0 3
0 0

0101101
*
Ed
 1e-07 1 1 0
1  28 0 0 1
0

0101000
+71 0 -45 0 *
Ed
 1e-07 1 1 0
1  29 0 0 4
0

0101000
-45 0 +66 0 *
Wi

0101100
-69 0 -44 0 +43 0 +65 0 *
Fa
0  1e-07 14 0

0111000
+42 0 *
Ve
1e-07
4 2 3
0 0

0101101
*
Ed
 1e-07 1 1 0
1  30 0 0 4
0

0101000
-40 0 +64 0 *
Ed
 1e-07 1 1 0
1  31 0 0 2
0

0101000
-40 0 +45 0 *
Wi

0101100
-63 0 -39 0 +38 0 +43 0 *
Fa
0  1e-07 15 0

0111000
+37 0 *
Ed
 1e-07 1 1 0
1  32 0 0 1
0

0101000
+59 0 -40 0 *
Wi

0101100
-57 0 -35 0 +39 0 +62 0 *
Fa
0  1e-07 16 0

0111000
+34 0 *
Wi

0101100
-44 0 -38 0 +35 0 +53 0 +48 0 *
Fa
0  1e-07 17 0

0111000
+32 0 *
Ve
1.00000000013324e-05
7.9 1 1
0 0

0101101
*
Ve
1e-05
8 1 1
0 0

0101101
*
Ed
 1e-05 1 1 0
1  33 0 3.9 4
2  3 11 0 3.9 4
2  4 13 0 3.9 4
0

0101000
+30 0 -29 0 *
Ve
1.00000000159874e-05
7.70000000000002 1 1
0 0

0101101
*
Ed
 1e-07 1 1 0
1  34 0 0 1
2  5 11 0 0 1
2  6 18 0 0 1
0

0101000
+27 0 -30 0 *
Ed
 1e-05 1 1 0
1  35 0 0 3.70000000000002
2  3 11 0 0 3.70000000000002
2  4 13 0 0 3.70000000000002
0

0101000
+76 0 -27 0 *
Ve
1.0000000022038e-05
7.7 1 2.00000000000002
0 0

0101101
*
Ed
 1e-07 1 1 0
1  36 0 0 3.7
2  7 11 0 0 3.7
2  8 13 0 0 3.7
0

0101000
+54 0 -24 0 *
Ve
1.00000000133136e-07
7.9 1 2
0 0

0101101
*
Ed
 1e-07 1 1 0
1  37 0 0 1
2  9 11 0 0 1
2  10 18 0 0 1
0

0101000
+24 0 -22 0 *
Ve
1e-07
8 1 2
0 0

0101101
*
Ed
 1e-07 1 1 0
1  38 0 3.9 4
2  7 11 0 3.9 4
2  8 13 0 3.9 4
0

0101000
+22 0 -20 0 *
Ed
 1e-07 1 1 0
1  39 0 0 3.14159265358979
2  11 11 0 0 3.14159265358979
0

0101000
-29 0 +20 0 *
Wi

0101100
+28 0 +26 0 +25 0 +52 0 -23 0 -21 0 -19 0 -18 0 *
Fa
0  1e-07 11 0

0111000
+17 0 *
Ed
 1e-07 1 1 0
1  40 0 0 1
2  12 13 0 0 1
2  13 19 0 0 1
0

0101000
+30 0 -27 0 *
Ed
 1e-07 1 1 0
1  41 0 3.14159265358979 6.28318530717959
2  14 13 0 3.14159265358979 6.28318530717959
0

0101000
-20 0 +29 0 *
Ed
 1e-07 1 1 0
1  42 0 0 1
2  15 13 0 0 1
2  16 19 0 0 1
0

0101000
+22 0 -24 0 *
Wi

0101100
-25 0 +15 0 -28 0 -14 0 +19 0 -13 0 +23 0 +49 0 *
Fa
0  1e-07 13 0

0111000
+12 0 *
Ed
 1e-05 1 1 0
1  43 0 0.1 1.10000000000002
2  17 18 0 0.1 1.10000000000002
2  18 19 0 0.1 1.10000000000002
0

0101000
+27 0 -24 0 *
Ed
 1e-07 1 1 0
1  44 0 0.1 1.1
2  19 18 0 0.1 1.1
2  20 19 0 0.1 1.1
0

0101000
+30 0 -22 0 *
Wi

0101100
-10 0 -21 0 +9 0 +26 0 *
Fa
0  1e-07 18 0

0111000
+8 0 *
Wi

0101100
+18 0 +14 0 *
Fa
0  1e-07 20 0

0111000
+6 0 *
Wi

0101100
+10 0 +15 0 -9 0 -13 0 *
Fa
0  1e-07 19 0

0111000
+4 0 *
Sh

0101100
-101 0 -94 0 -87 0 +80 0 -77 0 +72 0 -67 0 -60 0 +55 0 +50 0 
+46 0 -41 0 +36 0 +33 0 +31 0 +16 0 +11 0 -7 0 +5 0 -3 0 
*
So

1100000
+2 0 *

+1 0 