
CASCADE Topology V1, (c) Matra-Datavision
Locations 1
1
              1               0               0 -343.243338743911 
              0               1               0 365.352260864583 
              0               0               1               0 
Curve2ds 6
1 0 300 1 0 
2 0 0 1 0 -0 1 141.42135623730951
1 6.2831853071795862 -0 0 1 
1 0 -0 0 1 
1 0 0 1 0 
2 0 0 1 0 -0 1 141.42135623730951
Curves 3
2 0 0 300 0 0 1 1 0 -0 -0 1 0 141.42135623730951
1 141.42135623730951 -3.463824224941973e-14 0 0 0 1 
2 0 0 0 0 0 1 1 0 -0 -0 1 0 141.42135623730951
Polygon3D 0
PolygonOnTriangulations 6
37 1 2 3 4 5 6 7 8 9 10 11 12 13 14 15 16 17 18 19 20 21 22 23 24 25 26 27 28 29 30 31 32 33 34 35 36 37 
p 1.2000000008 1 0 0.174532925199433 0.349065850398866 0.523598775598299 0.698131700797732 0.872664625997165 1.0471975511966 1.22173047639603 1.39626340159546 1.5707963267949 1.74532925199433 1.91986217719376 2.0943951023932 2.26892802759263 2.44346095279206 2.61799387799149 2.79252680319093 2.96705972839036 3.14159265358979 3.31612557878922 3.49065850398866 3.66519142918809 3.83972435438752 4.01425727958696 4.18879020478639 4.36332312998582 4.53785605518525 4.71238898038469 4.88692190558412 5.06145483078355 5.23598775598299 5.41052068118242 5.58505360638185 5.75958653158128 5.93411945678072 6.10865238198015 6.28318530717959 
37 1 2 3 4 5 6 7 8 9 10 11 12 13 14 15 16 17 18 19 20 21 22 23 24 25 26 27 28 29 30 31 32 33 34 35 36 1 
p 1.2000000008 1 0 0.174532925199433 0.349065850398866 0.523598775598299 0.698131700797732 0.872664625997165 1.0471975511966 1.22173047639603 1.39626340159546 1.5707963267949 1.74532925199433 1.91986217719376 2.0943951023932 2.26892802759263 2.44346095279206 2.61799387799149 2.79252680319093 2.96705972839036 3.14159265358979 3.31612557878922 3.49065850398866 3.66519142918809 3.83972435438752 4.01425727958696 4.18879020478639 4.36332312998582 4.53785605518525 4.71238898038469 4.88692190558412 5.06145483078355 5.23598775598299 5.41052068118242 5.58505360638185 5.75958653158128 5.93411945678072 6.10865238198015 6.28318530717959 
2 38 1 
p 1.2000000008 1 0 300 
2 74 37 
p 1.2000000008 1 0 300 
37 38 39 40 41 42 43 44 45 46 47 48 49 50 51 52 53 54 55 56 57 58 59 60 61 62 63 64 65 66 67 68 69 70 71 72 73 74 
p 1.2000000008 1 0 0.174532925199433 0.349065850398866 0.523598775598299 0.698131700797732 0.872664625997165 1.0471975511966 1.22173047639603 1.39626340159546 1.5707963267949 1.74532925199433 1.91986217719376 2.0943951023932 2.26892802759263 2.44346095279206 2.61799387799149 2.79252680319093 2.96705972839036 3.14159265358979 3.31612557878922 3.49065850398866 3.66519142918809 3.83972435438752 4.01425727958696 4.18879020478639 4.36332312998582 4.53785605518525 4.71238898038469 4.88692190558412 5.06145483078355 5.23598775598299 5.41052068118242 5.58505360638185 5.75958653158128 5.93411945678072 6.10865238198015 6.28318530717959 
37 1 2 3 4 5 6 7 8 9 10 11 12 13 14 15 16 17 18 19 20 21 22 23 24 25 26 27 28 29 30 31 32 33 34 35 36 1 
p 1.2000000008 1 0 0.174532925199433 0.349065850398866 0.523598775598299 0.698131700797732 0.872664625997165 1.0471975511966 1.22173047639603 1.39626340159546 1.5707963267949 1.74532925199433 1.91986217719376 2.0943951023932 2.26892802759263 2.44346095279206 2.61799387799149 2.79252680319093 2.96705972839036 3.14159265358979 3.31612557878922 3.49065850398866 3.66519142918809 3.83972435438752 4.01425727958696 4.18879020478639 4.36332312998582 4.53785605518525 4.71238898038469 4.88692190558412 5.06145483078355 5.23598775598299 5.41052068118242 5.58505360638185 5.75958653158128 5.93411945678072 6.10865238198015 6.28318530717959 
Surfaces 3
2 0 0 0 0 0 1 1 0 -0 -0 1 0 141.42135623730951
1 0 0 300 0 0 1 1 0 -0 -0 1 0 
1 0 0 0 0 0 1 1 0 -0 -0 1 0 
Triangulations 3
74 72 1 1.2000000008
141.42135623731 -3.46382422494197e-14 300 139.272848064004 24.5575607937946 300 132.892604877735 48.368952529595 300 122.474487139159 70.7106781186547 300 108.33504408394 90.9038955344087 300 90.9038955344087 108.33504408394 300 70.7106781186548 122.474487139159 300 48.3689525295951 132.892604877735 300 24.5575607937946 139.272848064004 300 8.65956056235493e-15 141.42135623731 300 -24.5575607937946 139.272848064004 300 -48.368952529595 132.892604877735 300 -70.7106781186547 122.474487139159 300 -90.9038955344087 108.33504408394 300 -108.33504408394 90.9038955344088 300 -122.474487139159 70.7106781186549 300 -132.892604877735 48.3689525295952 300 -139.272848064004 24.5575607937947 300 -141.42135623731 2.05730216166763e-13 300 -139.272848064004 -24.5575607937943 300 -132.892604877735 -48.3689525295948 300 -122.474487139159 -70.7106781186545 300 -108.335044083941 -90.9038955344085 300 -90.903895534409 -108.33504408394 300 -70.710678118655 -122.474487139159 300 -48.3689525295954 -132.892604877735 300 -24.5575607937949 -139.272848064004 300 -4.02800871771171e-13 -141.42135623731 300 24.5575607937941 -139.272848064004 300 48.3689525295946 -132.892604877735 300 70.7106781186543 -122.474487139159 300 90.9038955344083 -108.335044083941 300 108.33504408394 -90.9038955344092 300 122.474487139159 -70.7106781186553 300 132.892604877735 -48.3689525295956 300 139.272848064004 -24.5575607937952 300 141.42135623731 -3.46382422494197e-14 300 141.42135623731 -3.46382422494197e-14 0 139.272848064004 24.5575607937946 0 132.892604877735 48.368952529595 0 122.474487139159 70.7106781186547 0 108.33504408394 90.9038955344087 0 90.9038955344087 108.33504408394 0 70.7106781186548 122.474487139159 0 48.3689525295951 132.892604877735 0 24.5575607937946 139.272848064004 0 8.65956056235493e-15 141.42135623731 0 -24.5575607937946 139.272848064004 0 -48.368952529595 132.892604877735 0 -70.7106781186547 122.474487139159 0 -90.9038955344087 108.33504408394 0 -108.33504408394 90.9038955344088 0 -122.474487139159 70.7106781186549 0 -132.892604877735 48.3689525295952 0 -139.272848064004 24.5575607937947 0 -141.42135623731 2.05730216166763e-13 0 -139.272848064004 -24.5575607937943 0 -132.892604877735 -48.3689525295948 0 -122.474487139159 -70.7106781186545 0 -108.335044083941 -90.9038955344085 0 -90.903895534409 -108.33504408394 0 -70.710678118655 -122.474487139159 0 -48.3689525295954 -132.892604877735 0 -24.5575607937949 -139.272848064004 0 -4.02800871771171e-13 -141.42135623731 0 24.5575607937941 -139.272848064004 0 48.3689525295946 -132.892604877735 0 70.7106781186543 -122.474487139159 0 90.9038955344083 -108.335044083941 0 108.33504408394 -90.9038955344092 0 122.474487139159 -70.7106781186553 0 132.892604877735 -48.3689525295956 0 139.272848064004 -24.5575607937952 0 141.42135623731 -3.46382422494197e-14 0 0 300 0.174532925199433 300 0.349065850398866 300 0.523598775598299 300 0.698131700797732 300 0.872664625997165 300 1.0471975511966 300 1.22173047639603 300 1.39626340159546 300 1.5707963267949 300 1.74532925199433 300 1.91986217719376 300 2.0943951023932 300 2.26892802759263 300 2.44346095279206 300 2.61799387799149 300 2.79252680319093 300 2.96705972839036 300 3.14159265358979 300 3.31612557878922 300 3.49065850398866 300 3.66519142918809 300 3.83972435438752 300 4.01425727958696 300 4.18879020478639 300 4.36332312998582 300 4.53785605518525 300 4.71238898038469 300 4.88692190558412 300 5.06145483078355 300 5.23598775598299 300 5.41052068118242 300 5.58505360638185 300 5.75958653158128 300 5.93411945678072 300 6.10865238198015 300 6.28318530717959 300 0 0 0.174532925199433 0 0.349065850398866 0 0.523598775598299 0 0.698131700797732 0 0.872664625997165 0 1.0471975511966 0 1.22173047639603 0 1.39626340159546 0 1.5707963267949 0 1.74532925199433 0 1.91986217719376 0 2.0943951023932 0 2.26892802759263 0 2.44346095279206 0 2.61799387799149 0 2.79252680319093 0 2.96705972839036 0 3.14159265358979 0 3.31612557878922 0 3.49065850398866 0 3.66519142918809 0 3.83972435438752 0 4.01425727958696 0 4.18879020478639 0 4.36332312998582 0 4.53785605518525 0 4.71238898038469 0 4.88692190558412 0 5.06145483078355 0 5.23598775598299 0 5.41052068118242 0 5.58505360638185 0 5.75958653158128 0 5.93411945678072 0 6.10865238198015 0 6.28318530717959 0 10 9 47 11 10 47 11 47 48 11 48 49 12 11 49 13 12 49 30 29 66 31 30 68 32 31 68 32 68 69 33 32 69 33 69 70 24 60 61 24 23 60 25 61 62 25 24 61 26 62 63 26 63 64 26 25 62 3 2 39 4 40 41 4 41 42 4 3 40 5 4 42 6 42 43 6 5 42 13 49 50 13 50 51 14 13 51 14 51 52 15 14 52 16 15 52 16 52 53 16 53 54 17 16 54 18 17 54 18 54 55 19 18 55 19 55 56 19 56 57 20 19 57 27 26 64 28 64 65 28 65 66 28 27 64 29 28 66 30 66 67 30 67 68 21 20 57 21 57 58 21 58 59 22 59 60 22 21 59 23 22 60 2 1 38 2 38 39 3 39 40 7 6 43 7 43 44 7 44 45 8 7 45 8 45 46 9 8 46 9 46 47 34 33 70 34 70 71 35 34 71 35 71 72 35 72 73 36 35 73 37 36 73 37 73 74 
36 34 1 1.2000000008
141.42135623731 -3.46382422494197e-14 300 139.272848064004 24.5575607937946 300 132.892604877735 48.368952529595 300 122.474487139159 70.7106781186547 300 108.33504408394 90.9038955344087 300 90.9038955344087 108.33504408394 300 70.7106781186548 122.474487139159 300 48.3689525295951 132.892604877735 300 24.5575607937946 139.272848064004 300 8.65956056235493e-15 141.42135623731 300 -24.5575607937946 139.272848064004 300 -48.368952529595 132.892604877735 300 -70.7106781186547 122.474487139159 300 -90.9038955344087 108.33504408394 300 -108.33504408394 90.9038955344088 300 -122.474487139159 70.7106781186549 300 -132.892604877735 48.3689525295952 300 -139.272848064004 24.5575607937947 300 -141.42135623731 2.05730216166763e-13 300 -139.272848064004 -24.5575607937943 300 -132.892604877735 -48.3689525295948 300 -122.474487139159 -70.7106781186545 300 -108.335044083941 -90.9038955344085 300 -90.903895534409 -108.33504408394 300 -70.710678118655 -122.474487139159 300 -48.3689525295954 -132.892604877735 300 -24.5575607937949 -139.272848064004 300 -4.02800871771171e-13 -141.42135623731 300 24.5575607937941 -139.272848064004 300 48.3689525295946 -132.892604877735 300 70.7106781186543 -122.474487139159 300 90.9038955344083 -108.335044083941 300 108.33504408394 -90.9038955344092 300 122.474487139159 -70.7106781186553 300 132.892604877735 -48.3689525295956 300 139.272848064004 -24.5575607937952 300 141.42135623731 -2.8421709430404e-14 139.272848064004 24.5575607937946 132.892604877735 48.368952529595 122.474487139159 70.7106781186548 108.33504408394 90.9038955344087 90.9038955344087 108.33504408394 70.7106781186548 122.474487139159 48.3689525295951 132.892604877735 24.5575607937946 139.272848064004 0 141.42135623731 -24.5575607937946 139.272848064004 -48.368952529595 132.892604877735 -70.7106781186547 122.474487139159 -90.9038955344087 108.33504408394 -108.33504408394 90.9038955344088 -122.474487139159 70.7106781186549 -132.892604877735 48.3689525295952 -139.272848064004 24.5575607937947 -141.42135623731 1.98951966012828e-13 -139.272848064004 -24.5575607937943 -132.892604877735 -48.3689525295948 -122.474487139159 -70.7106781186545 -108.335044083941 -90.9038955344085 -90.903895534409 -108.33504408394 -70.710678118655 -122.474487139159 -48.3689525295954 -132.892604877735 -24.5575607937949 -139.272848064004 -3.97903932025656e-13 -141.42135623731 24.5575607937942 -139.272848064004 48.3689525295946 -132.892604877735 70.7106781186543 -122.474487139159 90.9038955344083 -108.335044083941 108.33504408394 -90.9038955344092 122.474487139159 -70.7106781186553 132.892604877735 -48.3689525295956 139.272848064004 -24.5575607937952 32 29 30 32 30 31 32 20 23 32 23 29 15 19 20 15 16 19 13 14 15 20 21 22 20 22 23 28 26 27 29 23 24 29 24 25 29 25 26 35 32 33 35 33 34 35 20 32 10 11 12 2 35 36 2 36 1 7 8 9 7 9 10 7 12 13 7 10 12 4 2 3 4 15 20 4 13 15 4 20 35 4 35 2 6 4 5 6 13 4 6 7 13 29 26 28 17 18 19 16 17 19 
36 34 1 1.2000000008
141.42135623731 -3.46382422494197e-14 0 139.272848064004 24.5575607937946 0 132.892604877735 48.368952529595 0 122.474487139159 70.7106781186547 0 108.33504408394 90.9038955344087 0 90.9038955344087 108.33504408394 0 70.7106781186548 122.474487139159 0 48.3689525295951 132.892604877735 0 24.5575607937946 139.272848064004 0 8.65956056235493e-15 141.42135623731 0 -24.5575607937946 139.272848064004 0 -48.368952529595 132.892604877735 0 -70.7106781186547 122.474487139159 0 -90.9038955344087 108.33504408394 0 -108.33504408394 90.9038955344088 0 -122.474487139159 70.7106781186549 0 -132.892604877735 48.3689525295952 0 -139.272848064004 24.5575607937947 0 -141.42135623731 2.05730216166763e-13 0 -139.272848064004 -24.5575607937943 0 -132.892604877735 -48.3689525295948 0 -122.474487139159 -70.7106781186545 0 -108.335044083941 -90.9038955344085 0 -90.903895534409 -108.33504408394 0 -70.710678118655 -122.474487139159 0 -48.3689525295954 -132.892604877735 0 -24.5575607937949 -139.272848064004 0 -4.02800871771171e-13 -141.42135623731 0 24.5575607937941 -139.272848064004 0 48.3689525295946 -132.892604877735 0 70.7106781186543 -122.474487139159 0 90.9038955344083 -108.335044083941 0 108.33504408394 -90.9038955344092 0 122.474487139159 -70.7106781186553 0 132.892604877735 -48.3689525295956 0 139.272848064004 -24.5575607937952 0 141.42135623731 -2.8421709430404e-14 139.272848064004 24.5575607937946 132.892604877735 48.368952529595 122.474487139159 70.7106781186548 108.33504408394 90.9038955344087 90.9038955344087 108.33504408394 70.7106781186548 122.474487139159 48.3689525295951 132.892604877735 24.5575607937946 139.272848064004 0 141.42135623731 -24.5575607937946 139.272848064004 -48.368952529595 132.892604877735 -70.7106781186547 122.474487139159 -90.9038955344087 108.33504408394 -108.33504408394 90.9038955344088 -122.474487139159 70.7106781186549 -132.892604877735 48.3689525295952 -139.272848064004 24.5575607937947 -141.42135623731 1.98951966012828e-13 -139.272848064004 -24.5575607937943 -132.892604877735 -48.3689525295948 -122.474487139159 -70.7106781186545 -108.335044083941 -90.9038955344085 -90.903895534409 -108.33504408394 -70.710678118655 -122.474487139159 -48.3689525295954 -132.892604877735 -24.5575607937949 -139.272848064004 -3.97903932025656e-13 -141.42135623731 24.5575607937942 -139.272848064004 48.3689525295946 -132.892604877735 70.7106781186543 -122.474487139159 90.9038955344083 -108.335044083941 108.33504408394 -90.9038955344092 122.474487139159 -70.7106781186553 132.892604877735 -48.3689525295956 139.272848064004 -24.5575607937952 32 29 30 32 30 31 32 20 23 32 23 29 15 19 20 15 16 19 13 14 15 20 21 22 20 22 23 28 26 27 29 23 24 29 24 25 29 25 26 35 32 33 35 33 34 35 20 32 10 11 12 2 35 36 2 36 1 7 8 9 7 9 10 7 12 13 7 10 12 4 2 3 4 15 20 4 13 15 4 20 35 4 35 2 6 4 5 6 13 4 6 7 13 29 26 28 17 18 19 16 17 19 

TShapes 14
Ve
1e-07
141.42135623731 -3.46382422494197e-14 300
0 0

0101101
*
Ed
 1e-07 1 1 0
1  1 0 0 6.28318530717959
2  1 1 0 0 6.28318530717959
2  2 2 0 0 6.28318530717959
6  1 1 0
6  2 2 0
0

0101000
+14 0 -14 0 *
Ve
1e-07
141.42135623731 -3.46382422494197e-14 0
0 0

0101101
*
Ed
 1e-07 1 1 0
1  2 0 0 300
3  3 4CN 1 0 0 300
7  3 4 1 0
0

0101000
-14 0 +12 0 *
Ed
 1e-07 1 1 0
1  3 0 0 6.28318530717959
2  5 1 0 0 6.28318530717959
2  6 3 0 0 6.28318530717959
6  5 1 0
6  6 3 0
0

0101000
+12 0 -12 0 *
Wi

0101100
-13 0 +11 0 +10 0 -11 0 *
Fa
0  1e-07 1 0
2  1
0101000
+9 0 *
Wi

0101100
+13 0 *
Fa
0  1e-07 2 0
2  2
0101000
+7 0 *
Wi

0101100
-10 0 *
Fa
0  1e-07 3 0
2  3
0101000
-5 0 *
Sh

0101100
+8 0 +6 0 -4 0 *
So

0100000
+3 0 *
Co

1100000
+2 0 +2 1 *

+1 0 