DBRep_DrawableShape

CASCADE Topology V1, (c) Matra-Datavision
Locations 8
1
              1               0               0           56750 
              0               1               0           51440 
              0               0               1 14681.551500414 
1
              1               0               0               0 
              0               1               0               0 
              0               0               1             120 
2  2 -1 0
1
              1               0               0           56750 
              0               1               0           51440 
              0               0               1 14681.551500414 
2  4 1 1 -1 0
2  1 -1 0
2  2 1 1 1 0
2  1 -1 2 -1 0
Curve2ds 29
1 0 0 1 0 
1 0 -120 1 0 
2 2.9172056160841027e-15 -4.6791201778939577e-16 1 0 -0 1 60
2 1.8760204244491092e-15 -1.8760204244491092e-15 -1 0 0 1 60
1 0 0 0 -1 
1 6.2831853071795862 0 0 -1 
7 0 0  8 30 5  0 -31.869886932050576  0.19634954084936207 -31.2524723281002  0.3926990816991065 -30.635057577565021  0.58904862254712498 -30.053915680357022  0.78539816339616664 -29.545312366157304  0.98174770424657254 -29.141061934089521  1.1780972450956142 -28.86396782045631  1.3744467859455345 -28.725420175063846  1.7180584824319183 -28.725420175063846  1.8653206380686274 -28.803353431254891  2.0125827937064287 -28.95921802379371  2.159844949343551 -29.189414213100463  2.3071071049801617 -29.486721287725686  2.4543692606171623 -29.840750449574458  2.6016314162540253 -30.23873906378121  2.9697868053465797 -31.308270405649921  3.1906800387992007 -32.01709295775072  3.4115732722639223 -32.745301169707091  3.6324665057181846 -33.438217120565241  3.853359739177904 -34.041547956687282  4.0742529726212524 -34.510937116356217  4.2951462060797692 -34.818425576380371  4.7369326729908341 -35.089441707660178  4.9578259064392114 -35.052969528904214  5.1787191399125732 -34.834444693144178  5.3996123733086279 -34.441681633295957  5.620505606810184 -33.902014226288884  5.8413988402635368 -33.259070175387023  6.0622920737239321 -32.56447836149475  6.2831853071794646 -31.869886932050576 
 4.7123889803846897 9 6.2831853071795756 7 7.4612825522757422 7 9.2284284199200091 7 10.995574287564276 9
3 0 0.028665388563240413 1 -8.576493193051187e-17 8.576493193051187e-17 1 60.082340759875471 60
8 -120.00002040000072 -21.618578544870616
1 2.9321531433520707 0 0 1 
8 -120.00002040000072 -21.618578544870616
1 -1.8363364469763064 -75.555213507559529 -0 -1 
8 -120.00002040000072 -19.994447316919832
1 0.83775804095564121 0 0 1 
8 -120.00002040000072 -19.994447316919832
1 -0.049177827400041729 74.762626731371711 0 1 
8 -120.00002040000072 -20.978356695019102
1 0.41887902047900016 0 0 1 
8 -120.00002040000072 -20.978356695019102
1 0.067755138587459796 -75.288154401745487 0 -1 
1 0.074999959248631287 -75.926192431622795 0 1 
8 -120.00002040000072 -23.792090371618542
1 5.8643062867006472 0 0 1 
8 -120.00002040000072 -23.792090371618542
1 0.069297451010368646 -76.567124254745067 0 -1 
8 -120.00002040000072 -25.135394555489256
1 5.4454272662239447 0 0 1 
8 -120.00002040000072 -25.135394555489256
1 -0.051242701582382685 77.099420930720953 -1.9259299443872354e-34 1 
8 -120.00002040000072 -26.119303933590345
1 5.0265482457426689 0 0 1 
8 -120.00002040000072 -26.119303933590345
1 -0.67602341189396586 77.42413448946354 -0 1 
8 -120.00002040000072 -26.41998990059983
1 4.6076692252667248 0 0 1 
8 -120.00002040000072 -26.41998990059983
1 1.9404440140466583 77.493184307997581 0 1 
8 -120.00002040000072 -25.684775154290037
1 4.188790204784846 0 0 1 
8 -120.00002040000072 -25.684775154290037
1 0.038425091539380007 77.294348628374792 9.6296497219361793e-35 1 
8 -120.00002040000072 -23.257692993600358
1 3.3510321638274725 0 0 1 
8 -120.00002040000072 -23.257692993600358
1 1.7242036537036758 -76.300265529709577 0 -1 
8 -120.00002040000072 -24.495172705639561
1 3.7699111843089441 0 0 1 
8 -120.00002040000072 -24.495172705639561
1 -0.061682617302045897 -76.853350076087736 0 -1 
Curves 13
2 0 0 0 0 0 1 1 0 0 0 1 0 60
1 60 0 0 0 0 1 
3 56750 51440 14713.42138734605 4.4947496228450364e-18 0.052335956243010226 0.99862953475457039 8.576493193051187e-17 0.99862953475457039 -0.052335956243010226 -1 8.5882631091608979e-17 -7.7037197775489434e-34 60.082340759875471 60
1 56691.311143955929 51452.474701448977 14681.551500414 -0 -0 -1 
1 56790.147836381613 51484.588689528588 14681.551500414 -0 -0 -1 
1 56804.812727458549 51464.404198584569 14681.551500414 -0 -0 -1 
1 56804.812727458542 51415.595801415438 14681.551500414 -0 -0 -1 
1 56790.147836381613 51395.411310471412 14681.551500414 -0 -0 -1 
1 56768.541019662443 51382.936609022261 14681.551500414 -0 -0 -1 
1 56743.728292204039 51380.32868627787 14681.551500414 -0 -0 -1 
1 56719.999999999905 51388.038475772955 14681.551500414 -0 -0 -1 
1 56691.311143955951 51427.525298551031 14681.551500414 -0 -0 -1 
1 56701.458980337557 51404.732884862402 14681.551500414 -0 -0 -1 
Polygon3D 0
PolygonOnTriangulations 0
Surfaces 15
2 0 0 0 -0 -0 -1 1 0 0 0 1 0 60
1 -2.9172056160841027e-15 4.6791201778939577e-16 0 0 0 1 1 0 -0 -0 1 0 
1 1.8760204244491092e-15 1.8760204244491092e-15 0 -0 -0 -1 -1 0 0 0 1 -0 
1 0.028665388563172318 -8.9157289986817827e-16 31.869886932050001 4.4947496228450364e-18 0.052335956243010226 0.99862953475457039 0 0.99862953475457039 -0.052335956243010226 -1 2.3523701958450456e-19 4.4885897247000191e-18 
1 -58.307060228466497 14.270909538724817 75.555213507559202 0.9781476007341493 -0.2079116908161425 2.2681790818287561e-19 0.2079116908161425 0.9781476007341493 0 -2.2186139269261835e-19 4.7158094797682228e-20 1 
1 40.111290133654897 44.621595918058759 74.762626731371014 -0.66913060636009714 -0.74314482547627869 5.7842233519960737e-18 -0.74314482547627869 0.66913060636009714 0 -3.8704008788433665e-18 -4.2985156534349383e-18 -1 
1 54.78516896092259 24.466095983654625 75.288154401745956 -0.91354545764246753 -0.40673664307609975 1.2181911568755705e-18 0.40673664307609975 -0.91354545764246753 0 1.1128729979039e-18 4.9548298177255999e-19 1 
1 60.000000000000007 0.074999959248631287 75.926192431622795 -1 -3.0983167696339397e-32 -2.5456221634658227e-32 3.0983167696339397e-32 -1 0 -2.5456221634658227e-32 -7.8871438382179889e-64 1 
1 54.840913271142561 -24.34089221296481 76.567124254745963 -0.91354545764246753 0.40673664307609986 3.6653242025069391e-19 -0.40673664307609986 -0.91354545764246753 0 3.348440275987214e-19 -1.4908216619132553e-19 1 
1 40.185917130143594 -44.554401468606315 77.099420930720996 -0.66913060636009702 0.74314482547627891 2.8045933234133602e-18 0.74314482547627891 0.66913060636009702 1.9259299443872354e-34 -1.876639231089061e-18 2.0842190158599584e-18 -1 
1 19.183956133489385 -56.854488254867817 77.424134489463086 -0.30901699437398944 0.95105651629546484 -1.3862994642218917e-18 0.95105651629546484 0.30901699437398944 0 4.2839009373612087e-19 -1.3184491389851418e-18 -1 
1 -8.2015218546656037 -59.468482091279718 77.493184307997069 0.10452846326591533 0.99452189536845603 2.4506845406772279e-19 0.99452189536845603 -0.10452846326591533 0 2.5616628898652621e-20 2.4372594343444907e-19 -1 
1 -30.033277105508624 -51.942311681276671 77.294348628375346 0.50000000000127709 0.8660254037837013 1.8824085598127864e-18 0.8660254037837013 -0.50000000000127709 -9.6296497219361793e-35 9.4120427990879715e-19 1.630213633097764e-18 -1 
1 -58.330373947111639 -14.16122711602212 76.300265529709208 0.9781476007341493 0.2079116908161425 4.6770722888112555e-20 -0.2079116908161425 0.9781476007341493 0 -4.5748670377609059e-20 -9.7241800763607365e-21 1 
1 -48.577275795232509 -35.217212851950897 76.853350076087395 0.80901699437427088 0.58778525229340428 2.9645480787674929e-18 -0.58778525229340428 0.80901699437427088 0 -2.3983697763624962e-18 -1.7425176404142776e-18 1 
Triangulations 0

TShapes 86
Ve
1.00000033853576e-05
60 0 0
0 0

0101101
*
Ed
 1e-05 1 1 0
1  1 0 0 6.28318530717959
2  1 1 0 0 6.28318530717959
2  2 1 3 0 6.28318530717959
2  3 2 0 0 6.28318530717959
2  4 3 5 0 6.28318530717959
0

0101000
+86 0 -86 0 *
Ve
1.00000018189894e-05
56810 51440 14713.421387346
0 0

0101101
*
Ed
 1e-05 1 1 0
1  2 0 0 31.8698869320488
3  5 6CN 1 0 0 31.8698869320488
0

0101000
+86 0 -84 6 *
Ve
1.00000074998854e-05
56804.8127274585 51415.5958014154 14714.700357199
0 0

0101101
*
Ed
 1e-05 1 1 0
1  3 0 10.5766952670853 10.9955742875643
2  7 1 1 10.5766952670853 10.9955742875643
2  8 4 4 10.5766952670853 10.9955742875643
0

0101000
+82 0 -84 0 *
Ve
1.00000224996563e-05
56790.1478363816 51395.4113104714 14715.7581815454
0 0

0101101
*
Ed
 1e-05 1 1 0
1  3 0 10.1578162466087 10.5766952670853
2  7 1 1 10.1578162466087 10.5766952670853
2  8 4 4 10.1578162466087 10.5766952670853
0

0101000
+80 0 -82 0 *
Ve
1.0000009094947e-05
56768.5410196624 51382.9366090223 14716.4119529456
0 0

0101101
*
Ed
 1e-05 1 1 0
1  3 0 9.7389372261274 10.1578162466087
2  7 1 1 9.7389372261274 10.1578162466087
2  8 4 4 9.7389372261274 10.1578162466087
0

0101000
+78 0 -80 0 *
Ve
1.00000219035329e-05
56743.728292204 51380.3286862779 14716.5486283851
0 0

0101101
*
Ed
 1e-05 1 1 0
1  3 0 9.32005820565152 9.7389372261274
2  7 1 1 9.32005820565152 9.7389372261274
2  8 4 4 9.32005820565152 9.7389372261274
0

0101000
+76 0 -78 0 *
Ve
1.00000333426265e-05
56719.9999999999 51388.0384757729 14716.1445754389
0 0

0101101
*
Ed
 1e-05 1 1 0
1  3 0 8.9011791851696 9.32005820565152
2  7 1 1 8.9011791851696 9.32005820565152
2  8 4 4 8.9011791851696 9.32005820565152
0

0101000
+74 0 -76 0 *
Ve
1.0000018189894e-05
56701.4589803375 51404.7328848624 14715.2696585322
0 0

0101101
*
Ed
 1e-05 1 1 0
1  3 0 8.48230016469359 8.9011791851696
2  7 1 1 8.48230016469359 8.9011791851696
2  8 4 4 8.48230016469359 8.9011791851696
0

0101000
+72 0 -74 0 *
Ve
1.00000171603117e-05
56691.3111439559 51427.525298551 14714.0751587462
0 0

0101101
*
Ed
 1e-05 1 1 0
1  3 0 8.06342114421211 8.48230016469359
2  7 1 1 8.06342114421211 8.48230016469359
2  8 4 4 8.06342114421211 8.48230016469359
0

0101000
+70 0 -72 0 *
Ve
1.00000171603117e-05
56691.3111439559 51452.474701449 14712.7676159459
0 0

0101101
*
Ed
 1e-05 1 1 0
1  3 0 7.64454212373685 8.06342114421211
2  7 1 1 7.64454212373685 8.06342114421211
2  8 4 4 7.64454212373685 8.06342114421211
0

0101000
+68 0 -70 0 *
Ve
1.24608879415609e-05
56691.3111413652 51452.4746892604 14801.551500414
0 0

0101101
*
Ed
 1e-05 1 1 0
1  4 0 -120 -31.216115531899
2  9 1 1 -120 -31.216115531899
2  10 5 4 -120 -31.216115531899
0

0101000
+66 0 -68 0 *
Ve
91.4780767957967
56744.0897742917 51496.2320751827 14756.0129447581
0 0

0101101
*
Ed
 1e-05 1 1 0
1  1 0 2.51327403055235 2.93215335103352
2  1 1 0 2.51327403055235 2.93215335103352
2  2 1 3 2.51327403055235 2.93215335103352
2  3 2 0 2.51327403055235 2.93215335103352
0

0101000
+64 8 -66 8 *
Ve
1.0050001e-05
56790.1478364585 51484.5886894594 14801.551500414
0 0

0101101
*
Ed
 1e-05 1 1 0
1  1 0 0.837758039231379 1.25663679654249
2  1 1 0 0.837758039231379 1.25663679654249
2  2 1 3 0.837758039231379 1.25663679654249
2  3 2 0 0.837758039231379 1.25663679654249
0

0101000
+62 8 -64 8 *
Ve
1.00000149997709e-05
56790.1478363816 51484.5886895286 14711.0845931467
0 0

0101101
*
Ed
 1e-05 1 1 0
1  5 0 -120 -29.5330927327032
2  11 1 1 -120 -29.5330927327032
2  12 6 4 -120 -29.5330927327032
0

0101000
+62 0 -60 0 *
Ve
1.00000102897579e-05
56804.8127274585 51464.4041985846 14712.142417493
0 0

0101101
*
Ed
 1e-05 1 1 0
1  3 0 5.13126800086363 5.55014702134033
2  7 1 1 5.13126800086363 5.55014702134033
2  8 4 4 5.13126800086363 5.55014702134033
0

0101000
+58 0 -60 0 *
Ed
 1e-05 1 1 0
1  3 0 4.71238898038469 5.13126800086363
2  7 1 1 4.71238898038469 5.13126800086363
2  8 4 4 4.71238898038469 5.13126800086363
0

0101000
+84 0 -58 0 *
Wi

0101100
-85 1 -83 1 +81 0 +79 0 +77 0 +75 0 +73 0 +71 0 +69 0 +67 0 
+65 0 +63 7 +61 7 -59 0 +57 0 +56 0 +83 1 *
Fa
0  1e-05 1 1

0101000
+55 0 i64 0 *
Ve
2.79244115724635e-05
56804.8127266418 51464.4042004189 14801.551500414
0 0

0101101
*
Ed
 1e-05 1 1 0
1  6 0 -120.000020400001 -30.5909170790492
2  13 1 1 -120.000020400001 -30.5909170790492
2  14 7 4 -120.000020400001 -30.5909170790492
0

0101000
+53 0 -58 0 *
Ed
 1e-05 1 1 0
1  1 0 0 0.418879053945177
2  1 1 0 0 0.418879053945177
2  2 1 3 0 0.418879053945177
2  3 2 0 0 0.418879053945177
0

0101000
+86 0 -53 8 *
Ed
 1e-05 1 1 0
1  2 0 31.8698869320488 120
3  5 6CN 1 0 31.8698869320488 120
2  15 8 5 31.8698869320488 120
0

0101000
+84 6 -86 2 *
Wi

0101100
-56 0 +52 0 +51 7 +50 1 *
Fa
0  1e-05 1 1

0111000
+49 0 *
Ve
3.21681137949498e-05
56804.8127177562 51415.5957796236 14801.551500414
0 0

0101101
*
Ed
 1e-05 1 1 0
1  1 0 5.8643058891311 6.28318530717959
2  1 1 0 5.8643058891311 6.28318530717959
2  2 1 3 5.8643058891311 6.28318530717959
2  3 2 0 5.8643058891311 6.28318530717959
0

0101000
+47 8 -86 0 *
Ed
 1e-05 1 1 0
1  7 0 -120.000020400001 -33.1488567850502
2  16 1 1 -120.000020400001 -33.1488567850502
2  17 9 4 -120.000020400001 -33.1488567850502
0

0101000
+47 0 -82 0 *
Wi

0101100
-50 1 +46 7 -45 0 -81 0 *
Fa
0  1e-05 1 1

0111000
+44 0 *
Ed
 1e-05 1 1 0
1  1 0 0.418879053945177 0.837758039231379
2  1 1 0 0.418879053945177 0.837758039231379
2  2 1 3 0.418879053945177 0.837758039231379
2  3 2 0 0.418879053945177 0.837758039231379
0

0101000
+53 8 -62 8 *
Wi

0101100
-57 0 +59 0 +42 7 -52 0 *
Fa
0  1e-05 1 1

0111000
+41 0 *
Ve
1.0050001e-05
56790.1478367831 51395.4113108329 14801.551500414
0 0

0101101
*
Ed
 1e-05 1 1 0
1  1 0 5.44542727522893 5.8643058891311
2  1 1 0 5.44542727522893 5.8643058891311
2  2 1 3 5.44542727522893 5.8643058891311
2  3 2 0 5.44542727522893 5.8643058891311
0

0101000
+39 8 -47 8 *
Ed
 1e-05 1 1 0
1  8 0 -120 -34.2066811313962
2  18 1 1 -120 -34.2066811313962
2  19 10 4 -120 -34.2066811313962
0

0101000
+39 0 -80 0 *
Wi

0101100
+45 0 +38 7 -37 0 -79 0 *
Fa
0  1e-05 1 1

0111000
+36 0 *
Ve
1.0050001e-05
56768.5410137244 51382.9366070929 14801.551500414
0 0

0101101
*
Ed
 1e-05 1 1 0
1  1 0 5.02654814168179 5.44542727522893
2  1 1 0 5.02654814168179 5.44542727522893
2  2 1 3 5.02654814168179 5.44542727522893
2  3 2 0 5.02654814168179 5.44542727522893
0

0101000
+34 8 -39 8 *
Ed
 1e-05 1 1 0
1  9 0 -120 -34.8604525315623
2  20 1 1 -120 -34.8604525315623
2  21 11 4 -120 -34.8604525315623
0

0101000
+34 0 -78 0 *
Wi

0101100
+37 0 +33 7 -32 0 -77 0 *
Fa
0  1e-05 1 1

0111000
+31 0 *
Ve
1.0050001e-05
56743.7282905379 51380.328686453 14801.551500414
0 0

0101101
*
Ed
 1e-05 1 1 0
1  1 0 4.60766919734407 5.02654814168179
2  1 1 0 4.60766919734407 5.02654814168179
2  2 1 3 4.60766919734407 5.02654814168179
2  3 2 0 4.60766919734407 5.02654814168179
0

0101000
+29 8 -34 8 *
Ed
 1e-05 1 1 0
1  10 0 -120 -34.9971279711153
2  22 1 1 -120 -34.9971279711153
2  23 12 4 -120 -34.9971279711153
0

0101000
+29 0 -76 0 *
Wi

0101100
+32 0 +28 7 -27 0 -75 0 *
Fa
0  1e-05 1 1

0111000
+26 0 *
Ve
1.0050001e-05
56719.9999989979 51388.0384763515 14801.551500414
0 0

0101101
*
Ed
 1e-05 1 1 0
1  1 0 4.18879018550165 4.60766919734407
2  1 1 0 4.18879018550165 4.60766919734407
2  2 1 3 4.18879018550165 4.60766919734407
2  3 2 0 4.18879018550165 4.60766919734407
0

0101000
+24 8 -29 8 *
Ed
 1e-05 1 1 0
1  11 0 -120 -34.5930750249463
2  24 1 1 -120 -34.5930750249463
2  25 13 4 -120 -34.5930750249463
0

0101000
+24 0 -74 0 *
Wi

0101100
+27 0 +23 7 -22 0 -73 0 *
Fa
0  1e-05 1 1

0111000
+21 0 *
Ve
2.07612841264662e-05
56691.3111396394 51427.5253188586 14801.551500414
0 0

0101101
*
Ed
 1e-05 1 1 0
1  12 0 -120 -32.5236583322021
2  26 1 1 -120 -32.5236583322021
2  27 14 4 -120 -32.5236583322021
0

0101000
+19 0 -70 0 *
Ed
 1e-05 1 1 0
1  1 0 2.93215335103352 3.35103181780609
2  1 1 0 2.93215335103352 3.35103181780609
2  2 1 3 2.93215335103352 3.35103181780609
2  3 2 0 2.93215335103352 3.35103181780609
0

0101000
+66 8 -19 8 *
Wi

0101100
-65 0 -67 0 +18 0 +17 7 *
Fa
0  1e-05 1 1

0111000
+16 0 *
Ve
1.0050001e-05
56701.4589775083 51404.7328887565 14801.551500414
0 0

0101101
*
Ed
 1e-05 1 1 0
1  1 0 3.76991110408676 4.18879018550165
2  1 1 0 3.76991110408676 4.18879018550165
2  2 1 3 3.76991110408676 4.18879018550165
2  3 2 0 3.76991110408676 4.18879018550165
0

0101000
+14 8 -24 8 *
Ed
 1e-05 1 1 0
1  13 0 -120 -33.7181581181521
2  28 1 1 -120 -33.7181581181521
2  29 15 4 -120 -33.7181581181521
0

0101000
+14 0 -72 0 *
Wi

0101100
+22 0 +13 7 -12 0 -71 0 *
Fa
0  1e-05 1 1

0111000
+11 0 *
Ed
 1e-05 1 1 0
1  1 0 3.35103181780609 3.76991110408676
2  1 1 0 3.35103181780609 3.76991110408676
2  2 1 3 3.35103181780609 3.76991110408676
2  3 2 0 3.35103181780609 3.76991110408676
0

0101000
+19 8 -14 8 *
Wi

0101100
-18 0 -69 0 +12 0 +9 7 *
Fa
0  1e-05 1 1

0111000
+8 0 *
Wi

0101100
+85 0 *
Fa
0  1e-05 2 0

0111000
+6 0 *
Wi

0101100
+51 7 +42 7 +61 7 +63 7 +17 7 +9 7 +13 7 +23 7 +28 7 +33 7 
+38 7 +46 7 *
Fa
0  1e-05 2 7

0111000
+4 0 *
Sh

0101100
+54 0 +48 0 +43 0 +40 0 +35 0 +30 0 +25 0 +20 0 +15 0 +10 0 
+7 0 +5 1 -3 0 *
So

0100000
-2 0 *

+1 0 
0

