DBRep_DrawableShape

CASCADE Topology V1, (c) Matra-Datavision
Locations 0
Curve2ds 16
7 0 0  1 2 2  0 0  22.699524447195301 0 
 0 2 22.699523916116188 2
1 22.699524447195301 0 0 1 
1 0 0 0 1 
1 0 1 1 0 
1 0 0 0 1 
1 12.500000692767481 0 0 1 
7 0 0  1 2 2  0 0  12.500000508579163 0 
 0 2 12.50000032439149 2
1 12.500000508579163 0 0 1 
1 0 0 0 1 
1 0 1 1 0 
7 0 0  1 2 2  0 0  22.699524978276205 0 
 0 2 22.699523650573063 2
1 22.699524978276205 0 0 1 
1 0 0 0 1 
1 0 1 1 0 
7 0 0  1 2 2  0 0  12.500000692767481 0 
 0 2 12.500000232296426 2
1 0 1 1 0 
Curves 12
1 0 0 25 0.8910065621323614 0 -0.45399042527025885 
7 0 0  1 2 2  20.225424766540002 0 14.69463348389  -8.0254954099660019 28.25092077255 14.69463348389 
 0 2 1 2
1 -28.25092077255 28.25092077255 25 0.89100656754432594 0 -0.45399041464867812 
7 0 0  1 2 2  0 0 25  -28.25092077255 28.25092077255 25 
 0 2 1 2
1 20.225424766540002 0 14.69463348389 -0.3090168872750042 -0.95105655109402798 0 
7 0 0  1 2 2  16.362713575360001 -11.888207197190001 14.69463348389  -11.888207197190001 16.362713575360001 14.69463348389 
 0 2 1 2
1 -8.0254954099660001 28.25092077255 14.69463348389 -0.30901693040515432 -0.95105653708019688 0 
1 16.362713575360001 -11.888207197190001 14.69463348389 -0.89100655942634266 0 0.45399043058112082 
7 0 0  1 2 2  -3.8627108931539986 -11.888207197190001 25  -32.113633155819997 16.362713575360001 25 
 0 2 1 2
1 -11.888207197190001 16.362713575360001 14.69463348389 -0.89100657295630825 0 0.45399040402706203 
1 -3.862710893154 -11.888207197190001 25 0.30901686570963893 0.95105655810103695 0 
1 -32.113633155819997 16.362713575360001 25 0.30901697353544694 0.95105652306631738 0 
Polygon3D 0
PolygonOnTriangulations 0
Surfaces 6
9 0 0 0 0 1 1 2 2 2 2 0 0 25  -28.25092077255 28.25092077255 25  
20.225424766540002 0 14.69463348389  -8.0254954099660019 28.25092077255 14.69463348389  

0 2
22.699524447195301 2

0 2
1 2

9 0 0 0 0 1 1 2 2 2 2 20.225424766540002 0 14.69463348389  -8.0254954099660001 28.25092077255 14.69463348389  
16.362713575360001 -11.888207197190001 14.69463348389  -11.888207197190001 16.362713575360001 14.69463348389  

0 2
12.500000508579163 2

0 2
1 2

9 0 0 0 0 1 1 2 2 2 2 -3.862710893154 -11.888207197190001 25  -32.113633155819997 16.362713575360001 25  
0 0 25  -28.25092077255 28.25092077255 25  

0 2
12.500000692767481 2

0 2
1 2

9 0 0 0 0 1 1 2 2 2 2 16.362713575360001 -11.888207197190001 14.69463348389  -11.888207197190001 16.362713575360001 14.69463348389  
-3.8627108931539986 -11.888207197190001 25  -32.113633155819997 16.362713575360001 25  

0 2
22.699524978276205 2

0 2
1 2

1 8.1813568621864992 -5.9441035985950004 19.847316741944997 0.44913034071430152 -0.14593123232739652 0.8814681006600652 0.89100656077935192 6.9388939039072299e-18 -0.45399042792569011 0.066251382612038043 0.98929473638112908 0.13002568542632614 
1 -20.069564133881496 22.306817173954997 19.847316741944997 0.44913032013425497 -0.14593126504756215 0.88146810572914081 0.89100657025031715 -6.9388939039072299e-18 -0.45399040933786994 0.066251394754135939 0.9892947315545646 0.13002571596231835 
Triangulations 0

TShapes 34
Ve
0.003
0 0 25
0 0

0101101
*
Ve
0.003
20.22542476654 0 14.69463348389
0 0

0101101
*
Ed
 0.003 1 1 0
1  1 0 0 22.6995239161162
2  1 1 0 0 22.6995239161162
0

0101000
+34 0 -33 0 *
Ve
0.003
-8.025495409966 28.25092077255 14.69463348389
0 0

0101101
*
Ed
 1e-07 1 1 0
1  2 0 0 1
2  2 1 0 0 1
2  3 2 0 0 1
0

0101000
+33 0 -31 0 *
Ve
0.003
-28.25092077255 28.25092077255 25
0 0

0101101
*
Ed
 0.003 1 1 0
1  3 0 0 22.6995244471953
2  4 1 0 0 22.6995244471953
0

0101000
+29 0 -31 0 *
Ed
 1e-07 1 1 0
1  4 0 0 1
2  5 1 0 0 1
2  6 3 0 0 1
0

0101000
+34 0 -29 0 *
Wi

0101000
+32 0 +30 0 -28 0 -27 0 *
Fa
0  1e-07 1 0

0111000
+26 0 *
Ve
0.003
16.36271357536 -11.88820719719 14.69463348389
0 0

0101101
*
Ed
 0.003 1 1 0
1  5 0 0 12.5000003243915
2  7 2 0 0 12.5000003243915
0

0101000
+33 0 -24 0 *
Ve
0.003
-11.88820719719 16.36271357536 14.69463348389
0 0

0101101
*
Ed
 1e-07 1 1 0
1  6 0 0 1
2  8 2 0 0 1
2  9 4 0 0 1
0

0101000
+24 0 -22 0 *
Ed
 0.003 1 1 0
1  7 0 0 12.5000005085792
2  10 2 0 0 12.5000005085792
0

0101000
+31 0 -22 0 *
Wi

0101000
+23 0 +21 0 -20 0 -30 0 *
Fa
0  1e-07 2 0

0111000
+19 0 *
Ve
0.003
-3.862710893154 -11.88820719719 25
0 0

0101101
*
Ed
 0.003 1 1 0
1  8 0 0 22.6995236505731
2  11 4 0 0 22.6995236505731
0

0101000
+24 0 -17 0 *
Ve
0.003
-32.11363315582 16.36271357536 25
0 0

0101101
*
Ed
 1e-07 1 1 0
1  9 0 0 1
2  12 4 0 0 1
2  13 3 0 0 1
0

0101000
+17 0 -15 0 *
Ed
 0.003 1 1 0
1  10 0 0 22.6995249782762
2  14 4 0 0 22.6995249782762
0

0101000
+22 0 -15 0 *
Wi

0101000
+16 0 +14 0 -13 0 -21 0 *
Fa
0  1e-07 4 0

0101000
+12 0 *
Ed
 0.003 1 1 0
1  11 0 0 12.5000002322964
2  15 3 0 0 12.5000002322964
0

0101000
+17 0 -34 0 *
Ed
 0.003 1 1 0
1  12 0 0 12.5000006927675
2  16 3 0 0 12.5000006927675
0

0101000
+15 0 -29 0 *
Wi

0101000
+10 0 +27 0 -9 0 -14 0 *
Fa
0  1e-07 3 0

0101000
+8 0 *
Wi

0101100
+32 0 +23 0 +16 0 +10 0 *
Fa
0  0.003 5 0

0111100
-6 0 *
Wi

0101100
+28 0 +20 0 +13 0 +9 0 *
Fa
0  0.003 6 0

0111100
-4 0 *
Sh

0101100
+25 0 +18 0 +11 0 +7 0 +5 0 -3 0 *
So

1100000
+2 0 *

+1 0 