DBRep_DrawableShape

CASCADE Topology V1, (c) Matra-Datavision
Locations 2
1
              1               0               0              20 
              0               1               0               0 
              0               0               1               0 
2  1 -1 0
Curve2ds 11
1 1.5707963267948966 0 0 1 
8 4.9999986999999981 25.000001300000001
1 -10 5 0 -1 
8 4.9999986999999981 25.000001300000001
1 40 5 0 1 
1 4.7123889803846897 31.622776601683796 0 -1 
8 -30.000001300000001 -9.9999987000000008
1 10.540925533894601 10 0 1 
8 -30.000001300000001 -9.9999987000000008
1 10 26.666666666666664 -1 0 
8 9.9999987000000008 30.000001300000001
1 21.081851067789202 10 0 -1 
8 9.9999987000000008 30.000001300000001
1 10 13.333333333333332 1 0 
1 -1.5707963267948966 10.540925533894598 1 0 
2 20 20 0 -1 1 0 6.6666666666666661
1 0 31.622776601683793 1 0 
Curves 7
1 0 10 0 0 -0.316227766016838 0.94868329805051388 
1 20 -15 10 0 1 -0 
1 0 0 30 0 -0.316227766016838 -0.94868329805051388 
1 -10 6.6666666666666661 10.000000000000002 -1 -0 0 
1 0 0 30 1 0 0 
1 -10 -6.6666666666666687 9.9999999999999964 1 -0 0 
2 0 0 10 0 0 1 0 -1 0 1 0 -0 6.6666666666666661
Polygon3D 0
PolygonOnTriangulations 0
Surfaces 5
1 0 -10 0 -1 0 0 0 0 -1 -0 -1 -0 
3 0 0 0 0 0 1 1 0 -0 -0 1 0 10
-0.32175055439664219
1 -20 -20 10 0 0 1 1 0 -0 -0 1 0 
1 0 10 0 0 -0.94868329805051388 -0.316227766016838 0 -0.316227766016838 0.94868329805051388 -1 -0 0 
1 0 0 30 0 0.94868329805051388 -0.316227766016838 0 -0.316227766016838 -0.94868329805051388 -1 0 -0 
Triangulations 0

TShapes 29
Ve
2.00001e-07
20 6.66666666666667 10
0 0

0101101
*
Ve
1e-07
0 0 30
0 0

0101101
*
Ed
 1e-07 1 1 0
1  1 0 10.5409255338946 31.6227766016838
2  1 2 0 10.5409255338946 31.6227766016838
0

0101000
+29 2 -28 0 *
Ve
2.00001e-07
20 -6.66666666666667 10
0 0

0101101
*
Ed
 1e-07 1 1 0
1  2 0 8.33333333333333 21.6666666666667
2  2 1 1 8.33333333333333 21.6666666666667
2  3 3 0 8.33333333333333 21.6666666666667
0

0101000
+26 0 -29 0 *
Ed
 1e-07 1 1 0
1  3 0 0 21.0818510677892
2  4 2 0 0 21.0818510677892
0

0101000
+28 0 -26 2 *
Wi

0101000
-27 1 -25 0 -24 1 *
Fa
0  1e-07 1 1

0111000
+23 0 *
Ve
2.00001e-07
0 6.66666666666667 10
0 0

0101101
*
Ve
5.00000999318624e-07
-8.88178419700125e-16 2.17540971751503e-31 30
0 0

0101101
*
Ed
 1e-07 1 1 0
1  1 0 10.5409255338946 31.6227766016838
2  1 2 0 10.5409255338946 31.6227766016838
0

0101000
+21 0 -20 0 *
Ed
 1e-07 1 1 0
1  4 0 -30 -10
2  5 4 0 -30 -10
2  6 3 0 -30 -10
0

0101000
+29 0 -21 0 *
Ed
 1e-07 1 1 0
1  5 0 0 20
0

0101000
+20 0 -28 1 *
Wi

0101000
-19 0 -18 0 -17 0 +27 1 *
Fa
0  1e-07 4 0

0111000
+16 0 *
Ve
2.00001e-07
0 -6.66666666666667 10
0 0

0101101
*
Ed
 1e-07 1 1 0
1  6 0 10 30
2  7 5 0 10 30
2  8 3 0 10 30
0

0101000
+14 0 -26 0 *
Ed
 1e-07 1 1 0
1  7 0 3.14159265358979 6.28318530717959
2  9 2 0 3.14159265358979 6.28318530717959
2  10 3 0 3.14159265358979 6.28318530717959
0

0101000
+21 0 -14 0 *
Wi

0101000
+25 0 +13 0 +18 0 +12 0 *
Fa
0  1e-07 3 0

0111000
+11 0 *
Ed
 1e-07 1 1 0
1  3 0 0 21.0818510677892
2  4 2 0 0 21.0818510677892
0

0101000
+20 0 -14 0 *
Wi

0101000
+17 0 -9 0 +24 1 -13 0 *
Fa
0  1e-07 5 0

0111000
+8 0 *
Ed
 1e-07 1 1 1
2  11 2 0 1.5707963267949 4.71238898038469
0

0101100
-20 0 +20 0 *
Wi

0101000
-6 0 -9 0 +12 0 -19 0 *
Fa
0  1e-07 2 0

0111000
+5 0 *
Sh

0101000
-22 0 -15 0 -10 0 -7 0 +4 0 *
So

0100000
+3 0 *
Co

1100000
+2 0 *

+1 0 
0

