DBRep_DrawableShape

CASCADE Topology V1, (c) Matra-Datavision
Locations 0
Curve2ds 30
1 0 0 1 0 
1 0 100 1 0 
1 100 0 0 -1 
1 100 0 0 1 
1 0 -100 1 0 
1 0 100 1 0 
1 0 0 0 -1 
1 100 0 0 1 
1 0 0 0 1 
1 0 0 1 0 
1 100 0 0 1 
1 0 0 1 0 
1 0 0 1 0 
1 0 0 1 0 
1 100 0 0 -1 
1 0 0 0 1 
1 100 0 0 1 
1 0 100 1 0 
1 0 0 0 1 
1 0 100 1 0 
1 0 -100 1 0 
1 0 0 1 0 
1 0 0 0 -1 
1 0 0 0 1 
2 50 -50 1 0 -0 1 20
1 4.7123889803846897 1.5707963267948966 0 -1 
2 50 -50 1 0 -0 1 20
1 1.5707963267948966 -4.7123889803846897 -0 1 
1 0 -1.5707963267948966 1 0 
1 0 1.5707963267948966 1 0 
Curves 14
1 100 -50 -50 0 0 1 
1 100 -50 50 0 1 0 
1 100 50 -50 0 0 1 
1 100 -50 -50 -0 1 0 
1 0 -50 -50 1 0 -0 
1 0 -50 50 1 0 -0 
1 0 -50 -50 0 0 1 
1 0 -50 50 -0 1 0 
1 0 50 50 1 0 -0 
1 0 50 -50 1 0 -0 
1 0 50 -50 0 0 1 
1 0 -50 -50 -0 1 0 
2 0 0 0 1 0 -0 0 0 1 0 -1 0 20
2 0 0 0 1 0 -0 0 0 1 0 -1 0 20
Polygon3D 0
PolygonOnTriangulations 0
Surfaces 7
1 100 -50 -50 1 0 -0 0 0 1 0 -1 0 
1 0 -50 -50 -0 1 0 0 0 1 1 0 -0 
1 0 -50 50 0 0 1 1 0 -0 -0 1 0 
1 0 50 -50 -0 1 0 0 0 1 1 0 -0 
1 0 -50 -50 0 0 1 1 0 -0 -0 1 0 
1 0 -50 -50 1 0 -0 0 0 1 0 -1 0 
4 0 0 0 0 0 1 1 0 -0 -0 1 0 20
Triangulations 0

TShapes 44
Ve
1e-07
100 -50 50
0 0

0101101
*
Ve
1e-07
100 -50 -50
0 0

0101101
*
Ed
 1e-07 1 1 0
1  1 0 0 100
2  1 1 0 0 100
2  2 2 0 0 100
0

0101000
-44 0 +43 0 *
Ve
1e-07
100 50 50
0 0

0101101
*
Ed
 1e-07 1 1 0
1  2 0 0 100
2  3 1 0 0 100
2  4 3 0 0 100
0

0101000
-41 0 +44 0 *
Ve
1e-07
100 50 -50
0 0

0101101
*
Ed
 1e-07 1 1 0
1  3 0 0 100
2  5 1 0 0 100
2  6 4 0 0 100
0

0101000
-41 0 +39 0 *
Ed
 1e-07 1 1 0
1  4 0 0 100
2  7 1 0 0 100
2  8 5 0 0 100
0

0101000
-39 0 +43 0 *
Wi

0101000
-42 0 -40 0 +38 0 +37 0 *
Fa
0  1e-07 1 0

0111000
+36 0 *
Ve
1e-07
0 -50 -50
0 0

0101101
*
Ed
 1e-07 1 1 0
1  5 0 0 100
2  9 2 0 0 100
2  10 5 0 0 100
0

0101000
-43 0 +34 0 *
Ve
1e-07
0 -50 50
0 0

0101101
*
Ed
 1e-07 1 1 0
1  6 0 0 100
2  11 2 0 0 100
2  12 3 0 0 100
0

0101000
-44 0 +32 0 *
Ed
 1e-07 1 1 0
1  7 0 0 100
2  13 6 0 0 100
2  14 2 0 0 100
0

0101000
-32 0 +34 0 *
Wi

0101000
-33 0 -42 0 +31 0 +30 0 *
Fa
0  1e-07 2 0

0111000
+29 0 *
Ve
1e-07
0 50 50
0 0

0101101
*
Ed
 1e-07 1 1 0
1  8 0 0 100
2  15 6 0 0 100
2  16 3 0 0 100
0

0101000
-27 0 +32 0 *
Ed
 1e-07 1 1 0
1  9 0 0 100
2  17 4 0 0 100
2  18 3 0 0 100
0

0101000
-41 0 +27 0 *
Wi

0101000
-26 0 -25 0 +40 0 +31 0 *
Fa
0  1e-07 3 0

0111000
+24 0 *
Ve
1e-07
0 50 -50
0 0

0101101
*
Ed
 1e-07 1 1 0
1  10 0 0 100
2  19 4 0 0 100
2  20 5 0 0 100
0

0101000
-39 0 +22 0 *
Ed
 1e-07 1 1 0
1  11 0 0 100
2  21 6 0 0 100
2  22 4 0 0 100
0

0101000
-27 0 +22 0 *
Wi

0101000
-21 0 -38 0 +25 0 +20 0 *
Fa
0  1e-07 4 0

0111000
+19 0 *
Ed
 1e-07 1 1 0
1  12 0 0 100
2  23 6 0 0 100
2  24 5 0 0 100
0

0101000
-22 0 +34 0 *
Wi

0101000
-17 0 -21 0 +37 0 +33 0 *
Fa
0  1e-07 5 0

0111000
+16 0 *
Wi

0101000
-30 0 -26 0 +17 0 +20 0 *
Ve
1e-07
1.22464679914735e-15 -2.99951956532372e-31 20
0 0

0101101
*
Ve
1e-07
1.22464679914735e-15 -2.99951956532372e-31 -20
0 0

0101101
*
Ed
 1e-07 1 1 0
1  13 0 6.12323399573677e-17 3.14159265358979
2  25 6 0 6.12323399573677e-17 3.14159265358979
2  26 7 0 6.12323399573677e-17 3.14159265358979
0

0101000
+13 0 -12 0 *
Ed
 1e-07 1 1 0
1  14 0 3.14159265358979 6.28318530717959
2  27 6 0 3.14159265358979 6.28318530717959
2  28 7 0 3.14159265358979 6.28318530717959
0

0101000
+12 0 -13 0 *
Wi

0101000
-11 0 -10 0 *
Fa
0  1e-07 6 0

0111000
+14 0 +9 0 *
Ed
 1e-07 1 1 1
2  29 7 0 1.5707963267949 4.71238898038469
0

0101100
+12 0 -12 0 *
Ed
 1e-07 1 1 1
2  30 7 0 1.5707963267949 4.71238898038469
0

0101100
-13 0 +13 0 *
Wi

0101000
-11 0 +7 0 -10 0 -6 0 *
Fa
0  1e-07 7 0

0111000
+5 0 *
Sh

0101000
+35 0 -28 0 +23 0 +18 0 -15 0 -8 0 +4 0 *
So

0100000
+3 0 *
Co

1100000
+2 0 *

+1 0 
0

