DBRep_DrawableShape

CASCADE Topology V1, (c) Matra-Datavision
Locations 11
1
7.54978995987088e-008 -1.22460626136717e-016 -0.999999999999997 4.23825306574349e-015 
-1.22460626136717e-016               1 -1.22460635382237e-016               0 
0.999999999999997 1.22460635382237e-016 7.54978995987088e-008 -4.2382533857227e-015 
1
              1               0               0 -19.9999999999999 
              0               1               0 -2.44921270764475e-015 
              0               0               1 1.50995799197418e-006 
2  1 1 2 1 0
1
              1               0               0               0 
              0               1               0               0 
              0               0               1             -20 
1
              1               0               0               0 
              0               1               0               0 
              0               0               1             100 
2  5 -1 0
1
              1               0               0               0 
              0               1               0               0 
              0               0               1            -100 
2  7 -1 0
1
              1               0               0               0 
              0               1               0               0 
              0               0               1             -20 
2  9 -1 0
2  4 -1 0
Curve2ds 10
1 0 0 0 -1 
1 6.28318530717959 0 0 -1 
1 0 0 1 0 
1 0 -100 1 0 
1 0 0 1 0 
1 0 -100 1 0 
1 0 0 1 0 
1 0 -20 1 0 
1 0 0 1 0 
1 0 -20 1 0 
Curves 2
1 100 33.8692283630371 0 0 0 -1 
2 50 33.8692283630371 0 0 0 1 1 0 0 0 1 0 50
Polygon3D 0
PolygonOnTriangulations 6
5 1 3 4 5 2 
p 8.00000008 1 0 5 10 15 20 
5 6 7 8 9 10 
p 8.00000008 1 0 5 10 15 20 
48 1 11 12 13 14 15 16 17 18 19 20 21 22 23 24 25 26 27 28 29 30 31 32 33 34 35 36 37 38 39 40 41 42 43 44 45 46 47 48 49 50 51 52 53 54 55 56 6 
p 10.8239220229239 1 0 0.133684793769778 0.267369587539557 0.401054381309335 0.534739175079114 0.668423968848892 0.802108762618671 0.935793556388449 1.06947835015823 1.20316314392801 1.33684793769778 1.47053273146756 1.60421752523734 1.73790231900712 1.8715871127769 2.00527190654668 2.13895670031646 2.27264149408623 2.40632628785601 2.54001108162579 2.67369587539557 2.80738066916535 2.94106546293513 3.0747502567049 3.20843505047468 3.34211984424446 3.47580463801424 3.60948943178402 3.7431742255538 3.87685901932358 4.01054381309335 4.14422860686313 4.27791340063291 4.41159819440269 4.54528298817247 4.67896778194225 4.81265257571202 4.9463373694818 5.08002216325158 5.21370695702136 5.34739175079114 5.48107654456092 5.6147613383307 5.74844613210047 5.88213092587025 6.01581571964003 6.14950051340981 6.28318530717959 
48 1 2 3 4 5 6 7 8 9 10 11 12 13 14 15 16 17 18 19 20 21 22 23 24 25 26 27 28 29 30 31 32 33 34 35 36 37 38 39 40 41 42 43 44 45 46 47 1 
p 11.8768078475949 1 0 0.133684793769778 0.267369587539557 0.401054381309335 0.534739175079114 0.668423968848892 0.802108762618671 0.935793556388449 1.06947835015823 1.20316314392801 1.33684793769778 1.47053273146756 1.60421752523734 1.73790231900712 1.8715871127769 2.00527190654668 2.13895670031646 2.27264149408623 2.40632628785601 2.54001108162579 2.67369587539557 2.80738066916535 2.94106546293513 3.0747502567049 3.20843505047468 3.34211984424446 3.47580463801424 3.60948943178402 3.7431742255538 3.87685901932358 4.01054381309335 4.14422860686313 4.27791340063291 4.41159819440269 4.54528298817247 4.67896778194225 4.81265257571202 4.9463373694818 5.08002216325158 5.21370695702136 5.34739175079114 5.48107654456092 5.6147613383307 5.74844613210047 5.88213092587025 6.01581571964003 6.14950051340981 6.28318530717959 
48 2 57 58 59 60 61 62 63 64 65 66 67 68 69 70 71 72 73 74 75 76 77 78 79 80 81 82 83 84 85 86 87 88 89 90 91 92 93 94 95 96 97 98 99 100 101 102 10 
p 10.8239220229239 1 0 0.133684793769778 0.267369587539557 0.401054381309335 0.534739175079114 0.668423968848892 0.802108762618671 0.935793556388449 1.06947835015823 1.20316314392801 1.33684793769778 1.47053273146756 1.60421752523734 1.73790231900712 1.8715871127769 2.00527190654668 2.13895670031646 2.27264149408623 2.40632628785601 2.54001108162579 2.67369587539557 2.80738066916535 2.94106546293513 3.0747502567049 3.20843505047468 3.34211984424446 3.47580463801424 3.60948943178402 3.7431742255538 3.87685901932358 4.01054381309335 4.14422860686313 4.27791340063291 4.41159819440269 4.54528298817247 4.67896778194225 4.81265257571202 4.9463373694818 5.08002216325158 5.21370695702136 5.34739175079114 5.48107654456092 5.6147613383307 5.74844613210047 5.88213092587025 6.01581571964003 6.14950051340981 6.28318530717959 
48 1 2 3 4 5 6 7 8 9 10 11 12 13 14 15 16 17 18 19 20 21 22 23 24 25 26 27 28 29 30 31 32 33 34 35 36 37 38 39 40 41 42 43 44 45 46 47 1 
p 11.8768078475949 1 0 0.133684793769778 0.267369587539557 0.401054381309335 0.534739175079114 0.668423968848892 0.802108762618671 0.935793556388449 1.06947835015823 1.20316314392801 1.33684793769778 1.47053273146756 1.60421752523734 1.73790231900712 1.8715871127769 2.00527190654668 2.13895670031646 2.27264149408623 2.40632628785601 2.54001108162579 2.67369587539557 2.80738066916535 2.94106546293513 3.0747502567049 3.20843505047468 3.34211984424446 3.47580463801424 3.60948943178402 3.7431742255538 3.87685901932358 4.01054381309335 4.14422860686313 4.27791340063291 4.41159819440269 4.54528298817247 4.67896778194225 4.81265257571202 4.9463373694818 5.08002216325158 5.21370695702136 5.34739175079114 5.48107654456092 5.6147613383307 5.74844613210047 5.88213092587025 6.01581571964003 6.14950051340981 6.28318530717959 
Surfaces 5
2 50 33.8692283630371 0 0 0 1 1 0 0 0 1 0 50
2 50 33.8692283630371 0 0 0 -1 1 0 0 0 1 0 50
2 50 33.8692283630371 0 0 0 1 1 0 0 0 1 0 50
2 50 33.8692283630371 0 0 0 1 1 0 0 0 1 0 50
1 0 0 0 0 0 1 1 0 0 0 1 0 
Triangulations 3
102 100 1 9.41196105146197
100 33.8692283630371 0 100 33.8692283630371 -20 100 33.8692283630371 -5 100 33.8692283630371 -10 100 33.8692283630371 -15 100 33.8692283630371 0 100 33.8692283630371 -5 100 33.8692283630371 -10 100 33.8692283630371 -15 100 33.8692283630371 -20 99.553874407739 40.5335761317261 0 98.2234587527188 47.0789984566014 0 96.0324943338214 53.3886921212118 0 93.020078963007 59.350060492633 0 89.239969263933 64.8567228110494 0 84.7596213837321 69.8104125569336 0 79.6589872364678 74.1227310194153 0 74.0290877593342 77.7167247733707 0 67.9703886418756 80.5282589151172 0 61.5910075133764 82.507161551289 0 55.0047845812049 83.6181191174623 0 48.3292511496163 83.8413065495498 0 41.6835322708435 83.1727410625385 0 35.1862209557183 81.6243532233827 0 28.9532618785832 79.2237740497541 0 23.0958823418313 76.013841933877 0 17.7186074220599 72.0518381904037 0 12.9173947176021 67.4084648699983 0 8.77792198291197 62.1665830795668 0 5.37405820700592 56.4197343238422 0 2.76654541960405 50.2704712550155 0 1.00191474817066 43.8285276182289 0 0.111656068842336 37.2088600502931 0 0.111656068842343 30.529596675781 0 1.00191474817067 23.9099291078453 0 2.76654541960407 17.4679854710586 0 5.37405820700596 11.318722402232 0 8.77792198291201 5.57187364650731 0 12.9173947176022 0.3299918560759 0 17.7186074220599 -4.31338146432951 0 23.0958823418314 -8.27538520780276 0 28.9532618785833 -11.4853173236799 0 35.1862209557183 -13.8858964973085 0 41.6835322708435 -15.4342843364643 0 48.3292511496163 -16.1028498234756 0 55.004784581205 -15.8796623913881 0 61.5910075133765 -14.7687048252147 0 67.9703886418757 -12.789802189043 0 74.0290877593342 -9.97826804729644 0 79.6589872364678 -6.384274293341 0 84.7596213837322 -2.07195583085932 0 89.2399692639331 2.88173391502492 0 93.020078963007 8.38839623344129 0 96.0324943338215 14.3497646048624 0 98.2234587527188 20.6594582694729 0 99.553874407739 27.2048805943482 0 99.553874407739 40.5335761317261 -20 98.2234587527188 47.0789984566014 -20 96.0324943338214 53.3886921212118 -20 93.020078963007 59.350060492633 -20 89.239969263933 64.8567228110494 -20 84.7596213837321 69.8104125569336 -20 79.6589872364678 74.1227310194153 -20 74.0290877593342 77.7167247733707 -20 67.9703886418756 80.5282589151172 -20 61.5910075133764 82.507161551289 -20 55.0047845812049 83.6181191174623 -20 48.3292511496163 83.8413065495498 -20 41.6835322708435 83.1727410625385 -20 35.1862209557183 81.6243532233827 -20 28.9532618785832 79.2237740497541 -20 23.0958823418313 76.013841933877 -20 17.7186074220599 72.0518381904037 -20 12.9173947176021 67.4084648699983 -20 8.77792198291197 62.1665830795668 -20 5.37405820700592 56.4197343238422 -20 2.76654541960405 50.2704712550155 -20 1.00191474817066 43.8285276182289 -20 0.111656068842336 37.2088600502931 -20 0.111656068842343 30.529596675781 -20 1.00191474817067 23.9099291078453 -20 2.76654541960407 17.4679854710586 -20 5.37405820700596 11.318722402232 -20 8.77792198291201 5.57187364650731 -20 12.9173947176022 0.3299918560759 -20 17.7186074220599 -4.31338146432951 -20 23.0958823418314 -8.27538520780276 -20 28.9532618785833 -11.4853173236799 -20 35.1862209557183 -13.8858964973085 -20 41.6835322708435 -15.4342843364643 -20 48.3292511496163 -16.1028498234756 -20 55.004784581205 -15.8796623913881 -20 61.5910075133765 -14.7687048252147 -20 67.9703886418757 -12.789802189043 -20 74.0290877593342 -9.97826804729644 -20 79.6589872364678 -6.384274293341 -20 84.7596213837322 -2.07195583085932 -20 89.2399692639331 2.88173391502492 -20 93.020078963007 8.38839623344129 -20 96.0324943338215 14.3497646048624 -20 98.2234587527188 20.6594582694729 -20 99.553874407739 27.2048805943482 -20 0 0 0 -20 0 -5 0 -10 0 -15 6.28318530717959 0 6.28318530717959 -5 6.28318530717959 -10 6.28318530717959 -15 6.28318530717959 -20 0.133684793769778 0 0.267369587539557 0 0.401054381309335 0 0.534739175079114 0 0.668423968848892 0 0.802108762618671 0 0.935793556388449 0 1.06947835015823 0 1.20316314392801 0 1.33684793769778 0 1.47053273146756 0 1.60421752523734 0 1.73790231900712 0 1.8715871127769 0 2.00527190654668 0 2.13895670031646 0 2.27264149408623 0 2.40632628785601 0 2.54001108162579 0 2.67369587539557 0 2.80738066916535 0 2.94106546293513 0 3.0747502567049 0 3.20843505047468 0 3.34211984424446 0 3.47580463801424 0 3.60948943178402 0 3.7431742255538 0 3.87685901932358 0 4.01054381309335 0 4.14422860686313 0 4.27791340063291 0 4.41159819440269 0 4.54528298817247 0 4.67896778194225 0 4.81265257571202 0 4.9463373694818 0 5.08002216325158 0 5.21370695702136 0 5.34739175079114 0 5.48107654456092 0 5.6147613383307 0 5.74844613210047 0 5.88213092587025 0 6.01581571964003 0 6.14950051340981 0 0.133684793769778 -20 0.267369587539557 -20 0.401054381309335 -20 0.534739175079114 -20 0.668423968848892 -20 0.802108762618671 -20 0.935793556388449 -20 1.06947835015823 -20 1.20316314392801 -20 1.33684793769778 -20 1.47053273146756 -20 1.60421752523734 -20 1.73790231900712 -20 1.8715871127769 -20 2.00527190654668 -20 2.13895670031646 -20 2.27264149408623 -20 2.40632628785601 -20 2.54001108162579 -20 2.67369587539557 -20 2.80738066916535 -20 2.94106546293513 -20 3.0747502567049 -20 3.20843505047468 -20 3.34211984424446 -20 3.47580463801424 -20 3.60948943178402 -20 3.7431742255538 -20 3.87685901932358 -20 4.01054381309335 -20 4.14422860686313 -20 4.27791340063291 -20 4.41159819440269 -20 4.54528298817247 -20 4.67896778194225 -20 4.81265257571202 -20 4.9463373694818 -20 5.08002216325158 -20 5.21370695702136 -20 5.34739175079114 -20 5.48107654456092 -20 5.6147613383307 -20 5.74844613210047 -20 5.88213092587025 -20 6.01581571964003 -20 6.14950051340981 -20 2 57 5 5 57 4 13 58 59 14 59 60 12 57 58 62 16 61 60 61 15 63 17 62 18 63 64 19 64 65 66 20 65 21 66 67 22 67 68 24 69 70 25 70 71 23 68 69 27 72 73 28 73 74 30 75 76 32 77 78 31 76 77 29 74 75 26 71 72 33 78 79 3 4 11 1 3 11 11 4 57 11 57 12 13 12 58 13 59 14 14 60 15 16 62 17 18 64 19 63 18 17 61 16 15 20 19 65 20 66 21 21 67 22 23 69 24 24 70 25 68 23 22 26 72 27 27 73 28 29 75 30 31 77 32 76 31 30 74 29 28 71 26 25 78 33 32 79 80 33 35 80 81 36 81 82 38 83 84 39 84 85 37 82 83 41 86 87 42 87 88 44 89 90 45 90 91 43 88 89 40 85 86 47 92 93 48 93 94 50 95 96 51 96 97 49 94 95 53 98 99 54 99 100 56 101 102 10 9 102 100 101 55 97 98 52 91 92 46 8 102 9 34 80 35 35 81 36 37 83 38 38 84 39 82 37 36 40 86 41 41 87 42 43 89 44 45 91 46 90 45 44 88 43 42 85 40 39 47 93 48 48 94 49 50 96 51 50 49 95 56 8 7 46 92 47 51 97 52 52 98 53 54 100 55 6 56 7 101 56 55 99 54 53 102 8 56 80 34 33 
48 47 1 11.8768078475949
100 33.8692283630371 0 99.553874407739 40.5335761317261 0 98.2234587527188 47.0789984566014 0 96.0324943338214 53.3886921212118 0 93.020078963007 59.350060492633 0 89.239969263933 64.8567228110494 0 84.7596213837321 69.8104125569336 0 79.6589872364678 74.1227310194153 0 74.0290877593342 77.7167247733707 0 67.9703886418756 80.5282589151172 0 61.5910075133764 82.507161551289 0 55.0047845812049 83.6181191174623 0 48.3292511496163 83.8413065495498 0 41.6835322708435 83.1727410625385 0 35.1862209557183 81.6243532233827 0 28.9532618785832 79.2237740497541 0 23.0958823418313 76.013841933877 0 17.7186074220599 72.0518381904037 0 12.9173947176021 67.4084648699983 0 8.77792198291197 62.1665830795668 0 5.37405820700592 56.4197343238422 0 2.76654541960405 50.2704712550155 0 1.00191474817066 43.8285276182289 0 0.111656068842336 37.2088600502931 0 0.111656068842343 30.529596675781 0 1.00191474817067 23.9099291078453 0 2.76654541960407 17.4679854710586 0 5.37405820700596 11.318722402232 0 8.77792198291201 5.57187364650731 0 12.9173947176022 0.3299918560759 0 17.7186074220599 -4.31338146432951 0 23.0958823418314 -8.27538520780276 0 28.9532618785833 -11.4853173236799 0 35.1862209557183 -13.8858964973085 0 41.6835322708435 -15.4342843364643 0 48.3292511496163 -16.1028498234756 0 55.004784581205 -15.8796623913881 0 61.5910075133765 -14.7687048252147 0 67.9703886418757 -12.789802189043 0 74.0290877593342 -9.97826804729644 0 79.6589872364678 -6.384274293341 0 84.7596213837322 -2.07195583085932 0 89.2399692639331 2.88173391502492 0 93.020078963007 8.38839623344129 0 96.0324943338215 14.3497646048624 0 98.2234587527188 20.6594582694729 0 99.553874407739 27.2048805943482 0 50.0558280344212 33.8692283630371 0 100 33.8692283630371 99.553874407739 40.5335761317261 98.2234587527188 47.0789984566014 96.0324943338214 53.3886921212118 93.020078963007 59.350060492633 89.239969263933 64.8567228110494 84.7596213837321 69.8104125569336 79.6589872364678 74.1227310194153 74.0290877593342 77.7167247733707 67.9703886418756 80.5282589151172 61.5910075133764 82.507161551289 55.0047845812049 83.6181191174623 48.3292511496163 83.8413065495498 41.6835322708435 83.1727410625385 35.1862209557183 81.6243532233827 28.9532618785832 79.2237740497541 23.0958823418313 76.013841933877 17.7186074220599 72.0518381904037 12.9173947176021 67.4084648699983 8.77792198291197 62.1665830795668 5.37405820700592 56.4197343238422 2.76654541960405 50.2704712550155 1.00191474817066 43.8285276182289 0.111656068842336 37.2088600502931 0.111656068842343 30.529596675781 1.00191474817067 23.9099291078453 2.76654541960407 17.4679854710586 5.37405820700596 11.318722402232 8.77792198291201 5.57187364650731 12.9173947176022 0.3299918560759 17.7186074220599 -4.31338146432951 23.0958823418314 -8.27538520780276 28.9532618785833 -11.4853173236799 35.1862209557183 -13.8858964973085 41.6835322708435 -15.4342843364643 48.3292511496163 -16.1028498234756 55.004784581205 -15.8796623913881 61.5910075133765 -14.7687048252147 67.9703886418757 -12.789802189043 74.0290877593342 -9.97826804729644 79.6589872364678 -6.384274293341 84.7596213837322 -2.07195583085932 89.2399692639331 2.88173391502492 93.020078963007 8.38839623344129 96.0324943338215 14.3497646048624 98.2234587527188 20.6594582694729 99.553874407739 27.2048805943482 50.0558280344212 33.8692283630371 28 48 27 28 29 48 48 26 27 25 48 24 30 48 29 34 48 33 48 30 31 48 31 32 33 48 32 25 26 48 35 48 34 21 22 48 23 48 22 20 48 19 21 48 20 23 24 48 17 48 16 48 17 18 15 48 14 48 15 16 48 13 14 48 18 19 35 36 48 48 37 38 48 38 39 48 40 41 40 48 39 48 41 42 37 48 36 43 44 48 45 48 44 47 48 46 48 45 46 42 43 48 48 47 1 8 48 7 48 8 9 11 12 48 48 10 11 10 48 9 5 48 4 48 3 4 6 7 48 5 6 48 3 48 2 48 1 2 48 12 13 
48 47 1 11.8768078475949
100 33.8692283630371 0 99.553874407739 40.5335761317261 0 98.2234587527188 47.0789984566014 0 96.0324943338214 53.3886921212118 0 93.020078963007 59.350060492633 0 89.239969263933 64.8567228110494 0 84.7596213837321 69.8104125569336 0 79.6589872364678 74.1227310194153 0 74.0290877593342 77.7167247733707 0 67.9703886418756 80.5282589151172 0 61.5910075133764 82.507161551289 0 55.0047845812049 83.6181191174623 0 48.3292511496163 83.8413065495498 0 41.6835322708435 83.1727410625385 0 35.1862209557183 81.6243532233827 0 28.9532618785832 79.2237740497541 0 23.0958823418313 76.013841933877 0 17.7186074220599 72.0518381904037 0 12.9173947176021 67.4084648699983 0 8.77792198291197 62.1665830795668 0 5.37405820700592 56.4197343238422 0 2.76654541960405 50.2704712550155 0 1.00191474817066 43.8285276182289 0 0.111656068842336 37.2088600502931 0 0.111656068842343 30.529596675781 0 1.00191474817067 23.9099291078453 0 2.76654541960407 17.4679854710586 0 5.37405820700596 11.318722402232 0 8.77792198291201 5.57187364650731 0 12.9173947176022 0.3299918560759 0 17.7186074220599 -4.31338146432951 0 23.0958823418314 -8.27538520780276 0 28.9532618785833 -11.4853173236799 0 35.1862209557183 -13.8858964973085 0 41.6835322708435 -15.4342843364643 0 48.3292511496163 -16.1028498234756 0 55.004784581205 -15.8796623913881 0 61.5910075133765 -14.7687048252147 0 67.9703886418757 -12.789802189043 0 74.0290877593342 -9.97826804729644 0 79.6589872364678 -6.384274293341 0 84.7596213837322 -2.07195583085932 0 89.2399692639331 2.88173391502492 0 93.020078963007 8.38839623344129 0 96.0324943338215 14.3497646048624 0 98.2234587527188 20.6594582694729 0 99.553874407739 27.2048805943482 0 50.0558280344212 33.8692283630371 0 100 33.8692283630371 99.553874407739 40.5335761317261 98.2234587527188 47.0789984566014 96.0324943338214 53.3886921212118 93.020078963007 59.350060492633 89.239969263933 64.8567228110494 84.7596213837321 69.8104125569336 79.6589872364678 74.1227310194153 74.0290877593342 77.7167247733707 67.9703886418756 80.5282589151172 61.5910075133764 82.507161551289 55.0047845812049 83.6181191174623 48.3292511496163 83.8413065495498 41.6835322708435 83.1727410625385 35.1862209557183 81.6243532233827 28.9532618785832 79.2237740497541 23.0958823418313 76.013841933877 17.7186074220599 72.0518381904037 12.9173947176021 67.4084648699983 8.77792198291197 62.1665830795668 5.37405820700592 56.4197343238422 2.76654541960405 50.2704712550155 1.00191474817066 43.8285276182289 0.111656068842336 37.2088600502931 0.111656068842343 30.529596675781 1.00191474817067 23.9099291078453 2.76654541960407 17.4679854710586 5.37405820700596 11.318722402232 8.77792198291201 5.57187364650731 12.9173947176022 0.3299918560759 17.7186074220599 -4.31338146432951 23.0958823418314 -8.27538520780276 28.9532618785833 -11.4853173236799 35.1862209557183 -13.8858964973085 41.6835322708435 -15.4342843364643 48.3292511496163 -16.1028498234756 55.004784581205 -15.8796623913881 61.5910075133765 -14.7687048252147 67.9703886418757 -12.789802189043 74.0290877593342 -9.97826804729644 79.6589872364678 -6.384274293341 84.7596213837322 -2.07195583085932 89.2399692639331 2.88173391502492 93.020078963007 8.38839623344129 96.0324943338215 14.3497646048624 98.2234587527188 20.6594582694729 99.553874407739 27.2048805943482 50.0558280344212 33.8692283630371 28 48 27 28 29 48 48 26 27 25 48 24 30 48 29 34 48 33 48 30 31 48 31 32 33 48 32 25 26 48 35 48 34 21 22 48 23 48 22 20 48 19 21 48 20 23 24 48 17 48 16 48 17 18 15 48 14 48 15 16 48 13 14 48 18 19 35 36 48 48 37 38 48 38 39 48 40 41 40 48 39 48 41 42 37 48 36 43 44 48 45 48 44 47 48 46 48 45 46 42 43 48 48 47 1 8 48 7 48 8 9 11 12 48 48 10 11 10 48 9 5 48 4 48 3 4 6 7 48 5 6 48 3 48 2 48 1 2 48 12 13 

TShapes 13
Ve
1e-007
100 33.8692283630371 0
0 0

0101100
*
Ve
1e-007
100 33.8692283630371 0
0 0

0101100
*
Ed
 1e-007 1 1 0
1  1 0 0 20
3  1 2CN 1 0 0 20
7  1 2 1 0
0

0101000
+13 0 -12 4 *
Ed
 1e-007 1 1 0
1  2 0 0 6.28318530717959
2  3 2 0 0 6.28318530717959
2  4 2 6 0 6.28318530717959
2  5 3 0 0 6.28318530717959
2  6 3 8 0 6.28318530717959
2  7 4 0 0 6.28318530717959
2  8 4 10 0 6.28318530717959
2  9 1 0 0 6.28318530717959
2  10 1 11 0 6.28318530717959
6  3 1 0
6  4 2 0
0

0101100
+13 0 -13 0 *
Ed
 1e-007 1 1 0
1  2 0 0 6.28318530717959
2  3 2 0 0 6.28318530717959
2  4 2 6 0 6.28318530717959
2  5 3 0 0 6.28318530717959
2  6 3 8 0 6.28318530717959
2  7 4 0 0 6.28318530717959
2  8 4 10 0 6.28318530717959
2  9 1 0 0 6.28318530717959
2  10 1 11 0 6.28318530717959
6  5 1 11
6  6 3 0
0

0101100
+12 0 -12 0 *
Wi

0101000
+11 0 -11 0 -10 0 +9 4 *
Fa
0  1e-007 1 0
2  1
0101000
+8 0 *
Wi

0101100
+10 0 *
Fa
0  1e-007 5 0
2  2
0101000
+6 0 *
Wi

0101100
+9 0 *
Fa
0  1e-007 5 0
2  3
0101000
+4 0 *
Sh

0101000
+7 0 +5 0 -3 4 *
So

0100000
+2 0 *

+1 3 