DBRep_DrawableShape

CASCADE Topology V1, (c) Matra-Datavision
Locations 47
1
              1               0               0            -320 
              0               1               0            -500 
              0               0               1               0 
1
              1               0               0               0 
              0               1               0               0 
              0               0               1             300 
2  1 1 2 1 0
2  1 -1 0
1
              1               0               0               0 
              0               1               0               0 
              0               0               1             100 
2  5 -1 1 -1 0
1
              1               0               0               0 
              0               1               0               0 
              0               0               1             110 
2  7 -1 1 -1 0
1
              1               0               0               0 
              0               1               0               0 
              0               0               1             120 
2  9 -1 1 -1 0
1
              1               0               0               0 
              0               1               0               0 
              0               0               1             130 
2  11 -1 1 -1 0
1
              1               0               0               0 
              0               1               0               0 
              0               0               1             140 
2  13 -1 1 -1 0
1
              1               0               0               0 
              0               1               0               0 
              0               0               1             150 
2  15 -1 1 -1 0
1
              1               0               0               0 
              0               1               0               0 
              0               0               1             160 
2  17 -1 1 -1 0
1
              1               0               0               0 
              0               1               0               0 
              0               0               1             170 
2  19 -1 1 -1 0
1
              1               0               0               0 
              0               1               0               0 
              0               0               1             180 
2  21 -1 1 -1 0
1
              1               0               0               0 
              0               1               0               0 
              0               0               1             190 
2  23 -1 1 -1 0
1
              1               0               0               0 
              0               1               0               0 
              0               0               1             200 
2  25 -1 1 -1 0
1
              1               0               0               0 
              0               1               0               0 
              0               0               1             210 
2  27 -1 1 -1 0
1
              1               0               0               0 
              0               1               0               0 
              0               0               1             220 
2  29 -1 1 -1 0
1
              1               0               0               0 
              0               1               0               0 
              0               0               1             230 
2  31 -1 1 -1 0
1
              1               0               0               0 
              0               1               0               0 
              0               0               1             240 
2  33 -1 1 -1 0
1
              1               0               0               0 
              0               1               0               0 
              0               0               1             250 
2  35 -1 1 -1 0
1
              1               0               0               0 
              0               1               0               0 
              0               0               1             260 
2  37 -1 1 -1 0
1
              1               0               0               0 
              0               1               0               0 
              0               0               1             270 
2  39 -1 1 -1 0
1
              1               0               0               0 
              0               1               0               0 
              0               0               1             280 
2  41 -1 1 -1 0
1
              1               0               0               0 
              0               1               0               0 
              0               0               1             290 
2  43 -1 1 -1 0
1
              1               0               0               0 
              0               1               0               0 
              0               0               1             300 
2  45 -1 1 -1 0
2  2 -1 1 -1 0
Curve2ds 46
1 0 0 0 -1 
1 6.2831853071795898 0 0 -1 
1 0 0 1 0 
1 0 -100 1 0 
1 0 0 1 0 
1 0 -110 1 0 
1 0 0 1 0 
1 0 -120 1 0 
1 0 0 1 0 
1 0 -130 1 0 
1 0 0 1 0 
1 0 -140 1 0 
1 0 0 1 0 
1 0 -150 1 0 
1 0 0 1 0 
1 0 -160 1 0 
1 0 0 1 0 
1 0 -170 1 0 
1 0 0 1 0 
1 0 -180 1 0 
1 0 0 1 0 
1 0 -190 1 0 
1 0 0 1 0 
1 0 -200 1 0 
1 0 0 1 0 
1 0 -210 1 0 
1 0 0 1 0 
1 0 -220 1 0 
1 0 0 1 0 
1 0 -230 1 0 
1 0 0 1 0 
1 0 -240 1 0 
1 0 0 1 0 
1 0 -250 1 0 
1 0 0 1 0 
1 0 -260 1 0 
1 0 0 1 0 
1 0 -270 1 0 
1 0 0 1 0 
1 0 -280 1 0 
1 0 0 1 0 
1 0 -290 1 0 
1 0 0 1 0 
1 0 -300 1 0 
1 0 0 1 0 
1 0 -300 1 0 
Curves 2
1 322.60327468786801 488.75118332966798 0 0 0 1 
2 204.84917802379701 986.56241284634802 0 0 0 1 0.99998750023437011 0.0049999375011718509 -0 -0.0049999375011718509 0.99998750023437011 0 437.75956855608001
Polygon3D 0
PolygonOnTriangulations 5
5 1 3 4 5 2 
p 4.35406224636716 1 0 75 150 225 300 
5 6 7 8 9 10 
p 4.35406224636716 1 0 75 150 225 300 
37 2 46 47 48 49 50 51 52 53 54 55 56 57 58 59 60 61 62 63 64 65 66 67 68 69 70 71 72 73 74 75 76 77 78 79 80 10 
p 4.35406224636716 1 0 0.174532925199433 0.349065850398866 0.523598775598299 0.698131700797732 0.872664625997165 1.0471975511966 1.22173047639603 1.39626340159546 1.5707963267949 1.74532925199433 1.91986217719376 2.0943951023932 2.26892802759263 2.44346095279206 2.6179938779915 2.79252680319093 2.96705972839036 3.1415926535898 3.31612557878923 3.49065850398866 3.66519142918809 3.83972435438753 4.01425727958696 4.18879020478639 4.36332312998583 4.53785605518526 4.71238898038469 4.88692190558413 5.06145483078356 5.23598775598299 5.41052068118242 5.58505360638186 5.75958653158129 5.93411945678072 6.10865238198015 6.28318530717959 
37 1 11 12 13 14 15 16 17 18 19 20 21 22 23 24 25 26 27 28 29 30 31 32 33 34 35 36 37 38 39 40 41 42 43 44 45 6 
p 4.35406224636716 1 0 0.174532925199433 0.349065850398866 0.523598775598299 0.698131700797732 0.872664625997165 1.0471975511966 1.22173047639603 1.39626340159546 1.5707963267949 1.74532925199433 1.91986217719376 2.0943951023932 2.26892802759263 2.44346095279206 2.6179938779915 2.79252680319093 2.96705972839036 3.1415926535898 3.31612557878923 3.49065850398866 3.66519142918809 3.83972435438753 4.01425727958696 4.18879020478639 4.36332312998583 4.53785605518526 4.71238898038469 4.88692190558413 5.06145483078356 5.23598775598299 5.41052068118242 5.58505360638186 5.75958653158129 5.93411945678072 6.10865238198015 6.28318530717959 
37 1 2 3 4 5 6 7 8 9 10 11 12 13 14 15 16 17 18 19 20 21 22 23 24 25 26 27 28 29 30 31 32 33 34 35 36 1 
p 4.35406224636716 1 0 0.174532925199433 0.349065850398866 0.523598775598299 0.698131700797732 0.872664625997165 1.0471975511966 1.22173047639603 1.39626340159546 1.5707963267949 1.74532925199433 1.91986217719376 2.0943951023932 2.26892802759263 2.44346095279206 2.6179938779915 2.79252680319093 2.96705972839036 3.1415926535898 3.31612557878923 3.49065850398866 3.66519142918809 3.83972435438753 4.01425727958696 4.18879020478639 4.36332312998583 4.53785605518526 4.71238898038469 4.88692190558413 5.06145483078356 5.23598775598299 5.41052068118242 5.58505360638186 5.75958653158129 5.93411945678072 6.10865238198015 6.28318530717959 
Surfaces 23
2 -115.15082197620301 486.56241284634802 0 0 0 -1 0.99998750023437011 0.0049999375011718509 0 -0.0049999375011718509 0.99998750023437011 -0 437.75956855608001
2 -115.15082197620301 486.56241284634802 0 0 0 -1 0.99998750023437011 0.0049999375011718509 0 -0.0049999375011718509 0.99998750023437011 -0 437.75956855608001
2 -115.15082197620301 486.56241284634802 0 0 0 -1 0.99998750023437011 0.0049999375011718509 0 -0.0049999375011718509 0.99998750023437011 -0 437.75956855608001
2 -115.15082197620301 486.56241284634802 0 0 0 -1 0.99998750023437011 0.0049999375011718509 0 -0.0049999375011718509 0.99998750023437011 -0 437.75956855608001
2 -115.15082197620301 486.56241284634802 0 0 0 -1 0.99998750023437011 0.0049999375011718509 0 -0.0049999375011718509 0.99998750023437011 -0 437.75956855608001
2 -115.15082197620301 486.56241284634802 0 0 0 -1 0.99998750023437011 0.0049999375011718509 0 -0.0049999375011718509 0.99998750023437011 -0 437.75956855608001
2 -115.15082197620301 486.56241284634802 0 0 0 -1 0.99998750023437011 0.0049999375011718509 0 -0.0049999375011718509 0.99998750023437011 -0 437.75956855608001
2 -115.15082197620301 486.56241284634802 0 0 0 -1 0.99998750023437011 0.0049999375011718509 0 -0.0049999375011718509 0.99998750023437011 -0 437.75956855608001
2 -115.15082197620301 486.56241284634802 0 0 0 -1 0.99998750023437011 0.0049999375011718509 0 -0.0049999375011718509 0.99998750023437011 -0 437.75956855608001
2 -115.15082197620301 486.56241284634802 0 0 0 -1 0.99998750023437011 0.0049999375011718509 0 -0.0049999375011718509 0.99998750023437011 -0 437.75956855608001
2 -115.15082197620301 486.56241284634802 0 0 0 -1 0.99998750023437011 0.0049999375011718509 0 -0.0049999375011718509 0.99998750023437011 -0 437.75956855608001
2 -115.15082197620301 486.56241284634802 0 0 0 -1 0.99998750023437011 0.0049999375011718509 0 -0.0049999375011718509 0.99998750023437011 -0 437.75956855608001
2 -115.15082197620301 486.56241284634802 0 0 0 -1 0.99998750023437011 0.0049999375011718509 0 -0.0049999375011718509 0.99998750023437011 -0 437.75956855608001
2 -115.15082197620301 486.56241284634802 0 0 0 -1 0.99998750023437011 0.0049999375011718509 0 -0.0049999375011718509 0.99998750023437011 -0 437.75956855608001
2 -115.15082197620301 486.56241284634802 0 0 0 -1 0.99998750023437011 0.0049999375011718509 0 -0.0049999375011718509 0.99998750023437011 -0 437.75956855608001
2 -115.15082197620301 486.56241284634802 0 0 0 -1 0.99998750023437011 0.0049999375011718509 0 -0.0049999375011718509 0.99998750023437011 -0 437.75956855608001
2 -115.15082197620301 486.56241284634802 0 0 0 -1 0.99998750023437011 0.0049999375011718509 0 -0.0049999375011718509 0.99998750023437011 -0 437.75956855608001
2 -115.15082197620301 486.56241284634802 0 0 0 -1 0.99998750023437011 0.0049999375011718509 0 -0.0049999375011718509 0.99998750023437011 -0 437.75956855608001
2 -115.15082197620301 486.56241284634802 0 0 0 -1 0.99998750023437011 0.0049999375011718509 0 -0.0049999375011718509 0.99998750023437011 -0 437.75956855608001
2 -115.15082197620301 486.56241284634802 0 0 0 -1 0.99998750023437011 0.0049999375011718509 0 -0.0049999375011718509 0.99998750023437011 -0 437.75956855608001
2 -115.15082197620301 486.56241284634802 0 0 0 -1 0.99998750023437011 0.0049999375011718509 0 -0.0049999375011718509 0.99998750023437011 -0 437.75956855608001
2 -115.15082197620301 486.56241284634802 0 0 0 -1 0.99998750023437011 0.0049999375011718509 0 -0.0049999375011718509 0.99998750023437011 -0 437.75956855608001
1 -320 -500 0 0 0 1 1 0 -0 -0 1 0 
Triangulations 2
80 78 1 4.35406224636716
322.603274687868 488.751183329668 0 322.603274687868 488.751183329668 300 322.603274687868 488.751183329668 75 322.603274687868 488.751183329668 150 322.603274687868 488.751183329668 225 322.603274687868 488.751183329668 0 322.603274687868 488.751183329668 75 322.603274687868 488.751183329668 150 322.603274687868 488.751183329668 225 322.603274687868 488.751183329668 300 315.57273032567 564.733132139835 0 295.454868783413 638.339903200562 0 262.860961103931 707.334992019993 0 218.78135667875 769.622017737547 0 164.555391982975 823.308420595553 0 101.830695514223 866.762966409802 0 32.5131254344708 898.665310794789 0 -41.2911389657922 918.04611715974 0 -117.339592459524 924.316509510419 0 -193.321541269691 917.285965148221 0 -266.928312330418 897.168103605964 0 -335.923401149848 864.574195926482 0 -398.210426867402 820.494591501301 0 -451.896829725409 766.268626805526 0 -495.351375539658 703.543930336774 0 -527.253719924644 634.226360257021 0 -546.634526289595 560.422095856758 0 -552.904918640274 484.373642363027 0 -545.874374278075 408.39169355286 0 -525.756512735819 334.784922492133 0 -493.162605056336 265.789833672703 0 -449.083000631156 203.502807955148 0 -394.85703593538 149.816405097142 0 -332.132339466628 106.361859282893 0 -262.814769386876 74.4595148979068 0 -189.010504986613 55.0787085329556 0 -112.962051492882 48.8083161822773 0 -36.9801026827147 55.8388605444754 0 36.6266683780121 75.956722086732 0 105.621757197442 108.550629766215 0 167.908782914996 152.630234191395 0 221.595185773003 206.856198887171 0 265.049731587252 269.580895355922 0 296.952075972238 338.898465435674 0 316.332882337189 412.702729835937 0 315.57273032567 564.733132139835 300 295.454868783413 638.339903200562 300 262.860961103931 707.334992019993 300 218.78135667875 769.622017737547 300 164.555391982975 823.308420595553 300 101.830695514223 866.762966409802 300 32.5131254344708 898.665310794789 300 -41.2911389657922 918.04611715974 300 -117.339592459524 924.316509510419 300 -193.321541269691 917.285965148221 300 -266.928312330418 897.168103605964 300 -335.923401149848 864.574195926482 300 -398.210426867402 820.494591501301 300 -451.896829725409 766.268626805526 300 -495.351375539658 703.543930336774 300 -527.253719924644 634.226360257021 300 -546.634526289595 560.422095856758 300 -552.904918640274 484.373642363027 300 -545.874374278075 408.39169355286 300 -525.756512735819 334.784922492133 300 -493.162605056336 265.789833672703 300 -449.083000631156 203.502807955148 300 -394.85703593538 149.816405097142 300 -332.132339466628 106.361859282893 300 -262.814769386876 74.4595148979068 300 -189.010504986613 55.0787085329556 300 -112.962051492882 48.8083161822773 300 -36.9801026827147 55.8388605444754 300 36.6266683780121 75.956722086732 300 105.621757197442 108.550629766215 300 167.908782914996 152.630234191395 300 221.595185773003 206.856198887171 300 265.049731587252 269.580895355922 300 296.952075972238 338.898465435674 300 316.332882337189 412.702729835937 300 0 0 0 -300 0 -75 0 -150 0 -225 6.28318530717959 0 6.28318530717959 -75 6.28318530717959 -150 6.28318530717959 -225 6.28318530717959 -300 0.174532925199433 0 0.349065850398866 0 0.523598775598299 0 0.698131700797732 0 0.872664625997165 0 1.0471975511966 0 1.22173047639603 0 1.39626340159546 0 1.5707963267949 0 1.74532925199433 0 1.91986217719376 0 2.0943951023932 0 2.26892802759263 0 2.44346095279206 0 2.6179938779915 0 2.79252680319093 0 2.96705972839036 0 3.1415926535898 0 3.31612557878923 0 3.49065850398866 0 3.66519142918809 0 3.83972435438753 0 4.01425727958696 0 4.18879020478639 0 4.36332312998583 0 4.53785605518526 0 4.71238898038469 0 4.88692190558413 0 5.06145483078356 0 5.23598775598299 0 5.41052068118242 0 5.58505360638186 0 5.75958653158129 0 5.93411945678072 0 6.10865238198015 0 0.174532925199433 -300 0.349065850398866 -300 0.523598775598299 -300 0.698131700797732 -300 0.872664625997165 -300 1.0471975511966 -300 1.22173047639603 -300 1.39626340159546 -300 1.5707963267949 -300 1.74532925199433 -300 1.91986217719376 -300 2.0943951023932 -300 2.26892802759263 -300 2.44346095279206 -300 2.6179938779915 -300 2.79252680319093 -300 2.96705972839036 -300 3.1415926535898 -300 3.31612557878923 -300 3.49065850398866 -300 3.66519142918809 -300 3.83972435438753 -300 4.01425727958696 -300 4.18879020478639 -300 4.36332312998583 -300 4.53785605518526 -300 4.71238898038469 -300 4.88692190558413 -300 5.06145483078356 -300 5.23598775598299 -300 5.41052068118242 -300 5.58505360638186 -300 5.75958653158129 -300 5.93411945678072 -300 6.10865238198015 -300 2 46 5 12 46 47 13 47 48 5 46 4 50 15 49 48 49 14 16 50 51 17 51 52 53 18 52 19 53 54 21 55 56 22 56 57 20 54 55 24 58 59 26 60 61 27 61 62 25 59 60 23 57 58 27 62 63 3 4 11 11 1 3 11 4 46 12 11 46 12 47 13 14 49 15 15 50 16 48 14 13 17 16 51 17 52 18 19 54 20 20 55 21 53 19 18 22 57 23 24 59 25 25 60 26 58 24 23 56 22 21 61 27 26 63 28 27 30 64 65 32 66 67 33 67 68 31 65 66 35 69 70 37 71 72 38 72 73 36 70 71 34 68 69 40 74 75 42 76 77 43 77 78 41 75 76 45 79 80 10 9 80 9 8 80 78 79 44 73 74 39 45 80 8 28 64 29 30 65 31 31 66 32 64 30 29 33 68 34 35 70 36 36 71 37 69 35 34 67 33 32 38 73 39 75 41 40 40 39 74 76 42 41 37 72 38 42 77 43 44 79 45 6 45 7 78 44 43 7 45 8 64 28 63 
37 36 1 4.35406224636716
322.603274687868 488.751183329668 0 315.57273032567 564.733132139835 0 295.454868783413 638.339903200562 0 262.860961103931 707.334992019993 0 218.78135667875 769.622017737547 0 164.555391982975 823.308420595553 0 101.830695514223 866.762966409802 0 32.5131254344708 898.665310794789 0 -41.2911389657922 918.04611715974 0 -117.339592459524 924.316509510419 0 -193.321541269691 917.285965148221 0 -266.928312330418 897.168103605964 0 -335.923401149848 864.574195926482 0 -398.210426867402 820.494591501301 0 -451.896829725409 766.268626805526 0 -495.351375539658 703.543930336774 0 -527.253719924644 634.226360257021 0 -546.634526289595 560.422095856758 0 -552.904918640274 484.373642363027 0 -545.874374278075 408.39169355286 0 -525.756512735819 334.784922492133 0 -493.162605056336 265.789833672703 0 -449.083000631156 203.502807955148 0 -394.85703593538 149.816405097142 0 -332.132339466628 106.361859282893 0 -262.814769386876 74.4595148979068 0 -189.010504986613 55.0787085329556 0 -112.962051492882 48.8083161822773 0 -36.9801026827147 55.8388605444754 0 36.6266683780121 75.956722086732 0 105.621757197442 108.550629766215 0 167.908782914996 152.630234191395 0 221.595185773003 206.856198887171 0 265.049731587252 269.580895355922 0 296.952075972238 338.898465435674 0 316.332882337189 412.702729835937 0 -115.150821976203 486.562412846348 0 642.603274687868 988.751183329668 635.57273032567 1064.73313213984 615.454868783413 1138.33990320056 582.860961103931 1207.33499201999 538.78135667875 1269.62201773755 484.555391982975 1323.30842059555 421.830695514223 1366.7629664098 352.513125434471 1398.66531079479 278.708861034208 1418.04611715974 202.660407540476 1424.31650951042 126.678458730309 1417.28596514822 53.0716876695825 1397.16810360596 -15.9234011498476 1364.57419592648 -78.210426867402 1320.4945915013 -131.896829725409 1266.26862680553 -175.351375539657 1203.54393033677 -207.253719924644 1134.22636025702 -226.634526289595 1060.42209585676 -232.904918640274 984.373642363027 -225.874374278075 908.39169355286 -205.756512735819 834.784922492133 -173.162605056336 765.789833672703 -129.083000631156 703.502807955148 -74.8570359353798 649.816405097142 -12.1323394666282 606.361859282893 57.1852306131242 574.459514897907 130.989495013387 555.078708532956 207.037948507118 548.808316182277 283.019897317285 555.838860544476 356.626668378012 575.956722086732 425.621757197442 608.550629766215 487.908782914996 652.630234191395 541.595185773003 706.856198887171 585.049731587251 769.580895355922 616.952075972238 838.898465435674 636.332882337189 912.702729835937 204.849178023797 986.562412846348 19 37 18 37 19 20 37 21 22 37 24 25 37 23 24 21 37 20 37 22 23 37 25 26 37 16 17 37 15 16 17 18 37 13 37 12 12 37 11 10 11 37 37 13 14 15 37 14 26 27 37 29 37 28 37 29 30 30 31 37 37 32 33 37 34 35 33 34 37 32 37 31 35 36 37 37 6 7 6 37 5 37 8 9 8 37 7 37 9 10 3 37 2 37 4 5 37 3 4 2 37 1 37 36 1 28 37 27 

TShapes 8
Ve
1e-07
642.603274687868 988.751183329668 0
0 0

0101100
*
Ed
 1e-07 1 1 0
1  1 0 0 300
3  1 2CN 1 0 0 300
7  1 2 1 0
0

0101000
+8 1 -8 3 *
Ed
 1e-07 1 1 0
1  2 0 0 6.28318530717959
2  3 2 4 0 6.28318530717959
2  4 2 6 0 6.28318530717959
2  5 3 4 0 6.28318530717959
2  6 3 8 0 6.28318530717959
2  7 4 4 0 6.28318530717959
2  8 4 10 0 6.28318530717959
2  9 5 4 0 6.28318530717959
2  10 5 12 0 6.28318530717959
2  11 6 4 0 6.28318530717959
2  12 6 14 0 6.28318530717959
2  13 7 4 0 6.28318530717959
2  14 7 16 0 6.28318530717959
2  15 8 4 0 6.28318530717959
2  16 8 18 0 6.28318530717959
2  17 9 4 0 6.28318530717959
2  18 9 20 0 6.28318530717959
2  19 10 4 0 6.28318530717959
2  20 10 22 0 6.28318530717959
2  21 11 4 0 6.28318530717959
2  22 11 24 0 6.28318530717959
2  23 12 4 0 6.28318530717959
2  24 12 26 0 6.28318530717959
2  25 13 4 0 6.28318530717959
2  26 13 28 0 6.28318530717959
2  27 14 4 0 6.28318530717959
2  28 14 30 0 6.28318530717959
2  29 15 4 0 6.28318530717959
2  30 15 32 0 6.28318530717959
2  31 16 4 0 6.28318530717959
2  32 16 34 0 6.28318530717959
2  33 17 4 0 6.28318530717959
2  34 17 36 0 6.28318530717959
2  35 18 4 0 6.28318530717959
2  36 18 38 0 6.28318530717959
2  37 19 4 0 6.28318530717959
2  38 19 40 0 6.28318530717959
2  39 20 4 0 6.28318530717959
2  40 20 42 0 6.28318530717959
2  41 21 4 0 6.28318530717959
2  42 21 44 0 6.28318530717959
2  43 22 4 0 6.28318530717959
2  44 22 46 0 6.28318530717959
2  45 1 4 0 6.28318530717959
2  46 1 47 0 6.28318530717959
6  3 1 47
6  4 1 4
6  5 2 4
0

0101100
+8 0 -8 0 *
Wi

0101000
+7 0 -7 0 -6 1 +6 3 *
Fa
0  1e-07 1 0
2  1
0111000
+5 0 *
Wi

0101100
+6 0 *
Fa
0  1e-07 23 0
2  2
0111000
+3 1 *
Sh

0101000
+4 0 +2 0 -2 2 *

-1 0 
0

