DBRep_DrawableShape

CASCADE Topology V1, (c) Matra-Datavision
Locations 2
1
              1               0               0               0 
              0               1               0               0 
              0               0               1              50 
2  1 -1 0
Curve2ds 8
1 6.2831853071795898 -6.2831853071795898 0 1 
1 0 -6.2831853071795898 0 1 
1 0 -1.5707963267949001 1 0 
1 0 1.5707963267949001 1 0 
1 6.2831853071795898 -6.2831853071795898 0 1 
1 0 -6.2831853071795898 0 1 
1 0 -1.5707963267949001 1 0 
1 0 1.5707963267949001 1 0 
Curves 2
2 0 0 0 -2.4492935982947099e-016 -1 0 1 -2.4492935982947099e-016 0 0 0 1 150
2 0 0 0 -2.4492935982947099e-016 -1 0 1 -2.4492935982947099e-016 0 0 0 1 100
Polygon3D 0
PolygonOnTriangulations 0
Surfaces 2
4 0 0 0 0 0 1 1 0 -0 -0 1 0 150
4 0 0 0 0 0 1 1 0 -0 -0 1 0 100
Triangulations 0

TShapes 16
Ve
1e-007
9.18485099360515e-015 -2.24963967399279e-030 -150
0 0

0101100
*
Ve
5.00001330784828e-007
7.65404249467096e-015 -1.87469972832733e-030 150
0 0

0101101
*
Ed
 1e-007 1 1 0
1  1 0 4.71238898038469 7.85398163397448
3  1 2CN 1 0 4.71238898038469 7.85398163397448
0

0101000
+16 0 -15 0 *
Ed
 1e-007 1 1 1
2  3 1 0 0 6.28318530717959
0

0101100
+16 0 -16 0 *
Ed
 1e-007 1 1 1
2  4 1 0 0 6.28318530717959
0

0101100
-15 0 +15 0 *
Wi

0101000
+14 0 +13 0 -14 0 -12 0 *
Fa
0  1e-007 1 0

0111000
+11 0 *
Sh

0101000
+10 0 *
Ve
1e-007
6.12323399573677e-015 -1.49975978266186e-030 -100
0 0

0101100
*
Ed
 1e-007 1 1 0
1  2 0 4.71238898038469 7.85398163397448
3  5 6CN 2 0 4.71238898038469 7.85398163397448
0

0101000
+8 0 -15 2 *
Ed
 1e-007 1 1 1
2  7 2 0 0 6.28318530717959
0

0101100
-8 0 +8 0 *
Ed
 1e-007 1 1 1
2  8 2 0 0 6.28318530717959
0

0101100
+15 2 -15 2 *
Wi

0101000
+7 1 +6 1 -7 1 -5 1 *
Fa
0  1e-007 2 1

0111000
+4 0 *
Sh

0101000
-3 0 *
So

1100000
+9 0 +2 0 *

+1 0 
0

