DBRep_DrawableShape

CASCADE Topology V1, (c) Matra-Datavision
Locations 8
1
              1               0               0               0 
              0               1               0               0 
              0               0               1               0 
2  1 -1 0
1
              1               0               0               0 
              0               1               0               0 
              0               0               1               0 
1
              1               0               0               0 
              0               1               0             100 
              0               0               1               0 
2  3 1 4 1 1 -1 0
2  3 1 4 1 0
2  1 1 4 -1 3 -1 0
2  4 -1 3 -1 0
Curve2ds 56
1 0 0 0 1 
1 0 100 1 0 
1 0 0 1 0 
2 0 0 1 0 0 1 20
1 0 0 0 -1 
1 0 0 0 1 
1 0 0 0 -1 
1 100 0 0 1 
1 0 0 0 1 
1 0 0 1 0 
1 0 80 1 0 
1 3.14159265358979 0 0 1 
1 100 0 0 1 
1 0 100 1 0 
1 0 -100 1 0 
1 0 0 1 0 
1 0 100 1 0 
2 0 0 1 0 0 1 20
1 0 -80 1 0 
1 4.71238898038469 0 0 1 
1 0 0 1 0 
1 0 0 1 0 
1 100 0 0 -1 
1 0 0 0 1 
1 100 0 0 -1 
1 100 0 0 1 
1 0 0 1 0 
1 0 100 1 0 
1 100 0 0 1 
1 0 0 1 0 
1 100 0 0 -1 
1 0 0 0 1 
1 0 -100 1 0 
1 0 0 1 0 
1 0 0 0 -1 
1 0 0 0 1 
1 0 0 1 0 
1 0 100 1 0 
1 100 0 0 -1 
1 100 0 0 1 
1 0 -100 1 0 
1 0 100 1 0 
1 0 0 0 -1 
1 100 0 0 1 
1 0 0 0 1 
1 0 0 1 0 
1 100 0 0 1 
1 0 0 1 0 
1 0 0 0 1 
1 0 100 1 0 
1 100 0 0 1 
1 0 100 1 0 
1 0 1.5707963267949 1 0 
1 6.28318530717959 -6.28318530717959 0 1 
1 0 -6.28318530717959 0 1 
1 0 -1.5707963267949 1 0 
Curves 27
1 0 100 0 1 0 0 
2 100 100 0 0 0 1 1 0 0 0 1 0 20
1 0 0 0 0 1 0 
1 100 0 0 0 1 0 
1 0 0 0 1 0 0 
1 80 100 0 0 0 1 
1 0 100 100 1 0 0 
1 0 100 0 0 0 1 
2 100 100 100 0 0 1 1 0 0 0 1 0 20
1 100 80 0 0 0 1 
1 0 0 0 0 0 1 
1 0 0 100 0 1 0 
1 100 0 100 0 1 0 
1 100 0 0 0 0 1 
1 0 0 100 1 0 0 
1 0 0 100 0 1 0 
1 0 100 0 0 0 1 
1 0 0 0 0 1 0 
1 100 0 0 0 0 1 
1 100 0 100 0 1 0 
1 100 100 0 0 0 1 
1 100 0 0 0 1 0 
1 0 0 0 1 0 0 
1 0 0 100 1 0 0 
1 0 100 0 1 0 0 
1 0 100 100 1 0 0 
2 0 0 0 -2.44921270764475e-016 -1 0 1 -2.44921270764475e-016 0 0 0 1 10
Polygon3D 0
PolygonOnTriangulations 78
2 1 2 
p 10.00000002 1 0 80 
2 1 2 
p 10.1143655091496 1 0 80 
2 3 1 
p 10.1143655091496 1 0 80 
2 1 5 
p 10.1143655091496 1 0 80 
4 2 4 5 3 
p 8.65913768233914 1 3.14159265358979 3.66519142918809 4.18879020478639 4.71238898038469 
4 5 7 8 6 
p 10.00000002 1 3.14159265358979 3.66519142918809 4.18879020478639 4.71238898038469 
4 5 7 8 6 
p 10.00000002 1 3.14159265358979 3.66519142918809 4.18879020478639 4.71238898038469 
2 1 4 
p 10.00000002 1 0 100 
2 1 2 
p 12.000000004 1 0 100 
2 6 1 
p 12.000000004 1 0 100 
2 7 3 
p 10.00000002 1 0 80 
2 4 3 
p 10.1143655091496 1 0 80 
2 1 2 
p 10.00000002 1 0 100 
2 1 4 
p 12.2000000024 1 0 100 
2 6 7 
p 12.2000000024 1 0 100 
2 1 2 
p 10.00000002 1 0 100 
2 5 1 
p 12.1110041905404 1 0 100 
2 1 3 
p 12.1110041905404 1 0 100 
2 4 3 
p 10.00000002 1 0 80 
2 1 2 
p 10.1057182776575 1 0 80 
2 4 2 
p 10.1057182776575 1 0 80 
2 1 5 
p 10.1057182776575 1 0 80 
2 4 3 
p 10.00000002 1 0 100 
2 1 4 
p 12.000000004 1 0 100 
2 1 4 
p 12.000000004 1 0 100 
2 3 4 
p 12.000000004 1 0 100 
2 1 2 
p 12.000000004 1 0 100 
4 1 3 4 2 
p 8.65913768233914 1 3.14159265358979 3.66519142918809 4.18879020478639 4.71238898038469 
4 2 3 4 5 
p 10.00000002 1 3.14159265358979 3.66519142918809 4.18879020478639 4.71238898038469 
4 1 2 3 4 
p 10.00000002 1 3.14159265358979 3.66519142918809 4.18879020478639 4.71238898038469 
2 6 2 
p 10.00000002 1 0 100 
2 3 2 
p 12.0382427999998 1 0 100 
2 6 4 
p 12.0382427999998 1 0 100 
2 1 2 
p 10.00000002 1 0 100 
2 1 4 
p 12.000000004 1 0 100 
2 2 3 
p 10.00000002 1 0 100 
2 1 2 
p 12.000000004 1 0 100 
2 6 1 
p 12.000000004 1 0 100 
2 1 2 
p 10.00000002 1 0 80 
2 7 5 
p 10.2076304166575 1 0 80 
2 1 2 
p 10.00000002 1 0 100 
2 2 3 
p 12.000000004 1 0 100 
2 4 1 
p 12.000000004 1 0 100 
2 4 3 
p 10.00000002 1 0 100 
2 1 4 
p 12.2000000024 1 0 100 
2 6 7 
p 12.2000000024 1 0 100 
2 2 3 
p 10.00000002 1 0 100 
2 1 2 
p 12.2000000024 1 0 100 
2 4 3 
p 10.00000002 1 0 100 
2 1 4 
p 12.000000004 1 0 100 
2 4 3 
p 12.000000004 1 0 100 
2 1 4 
p 10.00000002 1 0 100 
2 1 2 
p 12.2000000024 1 0 100 
2 1 2 
p 10.00000002 1 0 100 
2 2 3 
p 12.000000004 1 0 100 
2 2 4 
p 12.000000004 1 0 100 
2 2 3 
p 10.00000002 1 0 100 
2 4 3 
p 12.000000004 1 0 100 
2 4 3 
p 12.000000004 1 0 100 
2 4 3 
p 10.00000002 1 0 100 
2 2 3 
p 12.000000004 1 0 100 
2 1 4 
p 10.00000002 1 0 100 
2 4 3 
p 12.000000004 1 0 100 
2 4 3 
p 12.000000004 1 0 100 
2 1 2 
p 8.00000008 1 80 100 
2 5 4 
p 10.00000002 1 80 100 
2 3 4 
p 8.00000008 1 80 100 
2 5 4 
p 10.00000002 1 80 100 
2 1 2 
p 10.00000002 1 0 100 
2 2 3 
p 12.2000000024 1 0 100 
2 2 3 
p 12.2000000024 1 0 100 
2 4 3 
p 10.00000002 1 0 100 
2 2 3 
p 12.2000000024 1 0 100 
2 2 3 
p 12.2000000024 1 0 100 
2 1 2 
p 1e-005 1 0 6.28318530717959 
25 3 4 5 6 7 8 9 10 11 12 13 14 15 16 17 18 19 20 21 22 23 24 25 26 2 
p 2.16478442058479 1 4.71238898038469 4.84328867428426 4.97418836818384 5.10508806208341 5.23598775598299 5.36688744988256 5.49778714378214 5.62868683768171 5.75958653158129 5.89048622548086 6.02138591938044 6.15228561328001 6.28318530717958 6.41408500107916 6.54498469497873 6.67588438887831 6.80678408277788 6.93768377667746 7.06858347057703 7.19948316447661 7.33038285837618 7.46128255227576 7.59218224617533 7.7230819400749 7.85398163397448 
25 27 28 29 30 31 32 33 34 35 36 37 38 39 40 41 42 43 44 45 46 47 48 49 50 1 
p 2.16478442058479 1 4.71238898038469 4.84328867428426 4.97418836818384 5.10508806208341 5.23598775598299 5.36688744988256 5.49778714378214 5.62868683768171 5.75958653158129 5.89048622548086 6.02138591938044 6.15228561328001 6.28318530717958 6.41408500107916 6.54498469497873 6.67588438887831 6.80678408277788 6.93768377667746 7.06858347057703 7.19948316447661 7.33038285837618 7.46128255227576 7.59218224617533 7.7230819400749 7.85398163397448 
2 27 3 
p 1e-005 1 0 6.28318530717959 
Surfaces 16
1 0 0 0 0 0 1 1 0 0 0 1 0 
1 0 100 0 0 1 0 0 0 1 1 0 0 
2 100 100 0 0 0 1 1 0 0 0 1 0 20
1 100 100 0 0 0 1 1 0 0 0 1 0 
1 0 0 0 1 0 0 0 0 1 0 -1 0 
1 100 0 0 1 0 0 0 0 1 0 -1 0 
1 0 0 0 0 1 0 0 0 1 1 0 0 
1 0 0 100 0 0 1 1 0 0 0 1 0 
1 100 100 100 0 0 1 1 0 0 0 1 0 
1 0 0 0 1 0 0 0 0 1 0 -1 0 
1 0 0 100 0 0 1 1 0 0 0 1 0 
1 0 100 0 0 1 0 0 0 1 1 0 0 
1 0 0 0 0 0 1 1 0 0 0 1 0 
1 100 0 0 1 0 0 0 0 1 0 -1 0 
1 0 0 0 0 1 0 0 0 1 1 0 0 
4 0 0 0 0 0 1 1 0 0 0 1 0 10
Triangulations 24
8 7 1 10.5718275457478
0 100 0 80 100 0 100 80 0 82.6794919243112 90 0 90 82.6794919243112 0 0 0 0 100 0 0 50 50 0 0 100 80 100 100 80 82.6794919243112 90 90 82.6794919243112 0 0 100 0 50 50 6 8 1 8 6 7 2 1 8 8 4 2 3 5 8 4 8 5 8 7 3 
4 2 1 10.5285913882874
0 100 0 80 100 0 80 100 100 0 100 100 0 0 0 80 100 80 100 0 2 1 4 4 3 2 
4 2 1 10.5550209527018
80 100 0 80 100 100 0 100 0 0 100 100 0 80 100 80 0 0 100 0 1 3 4 4 2 1 
6 5 1 11.3028731075899
0 0 0 0 100 0 100 100 0 100 0 0 80 0 0 50 50 0 0 0 0 100 100 100 100 0 80 0 50 50 1 6 2 6 1 5 2 6 3 4 3 6 4 6 5 
8 6 1 10.1912139999992
80 100 100 100 80 100 82.6794919243112 90 100 90 82.6794919243112 100 80 100 0 100 80 0 82.6794919243112 90 0 90 82.6794919243112 0 3.14159265358979 100 4.71238898038469 100 3.66519142918809 100 4.18879020478639 100 3.14159265358979 0 4.71238898038469 0 3.66519142918809 0 4.18879020478639 0 5 7 3 3 1 5 7 8 3 8 6 2 2 4 8 8 4 3 
8 6 1 11.037311757635
80 100 100 82.6794919243112 90 100 90 82.6794919243112 100 100 80 100 80 100 0 100 80 0 82.6794919243112 90 0 90 82.6794919243112 0 3.14159265358979 100 3.66519142918809 100 4.18879020478639 100 4.71238898038469 100 3.14159265358979 0 4.71238898038469 0 3.66519142918809 0 4.18879020478639 0 5 7 2 2 1 5 7 8 2 8 6 4 4 3 8 8 3 2 
4 2 1 10.00000002
0 0 0 0 0 100 0 100 100 0 100 0 0 0 100 0 100 -100 0 -100 1 4 3 3 2 1 
4 2 1 12.1000000032
0 0 0 0 100 0 100 100 0 100 0 0 0 0 0 100 100 100 100 0 2 1 4 4 3 2 
4 2 1 11.0381520832873
100 0 100 100 80 100 100 80 0 100 0 0 100 0 100 -80 0 -80 0 0 4 3 2 2 1 4 
4 2 1 11.000000012
0 0 0 100 0 0 100 0 100 0 0 100 0 0 0 100 100 100 100 0 2 1 4 4 3 2 
4 2 1 10.0277510886351
80 100 0 100 100 0 80 100 100 100 100 100 0 80 0 100 100 80 100 100 2 1 3 3 4 2 
8 7 1 10.902669744143
0 100 100 80 100 100 82.6794919243112 90 100 90 82.6794919243112 100 100 80 100 0 0 100 100 0 100 50 50 100 0 100 80 100 82.6794919243112 90 90 82.6794919243112 100 80 0 0 100 0 50 50 6 8 1 8 6 7 2 1 8 8 3 2 5 4 8 3 8 4 8 7 5 
6 5 1 11.3011436612915
0 0 100 0 100 100 100 100 100 100 0 100 80 0 100 50 50 100 0 0 0 100 100 100 100 0 80 0 50 50 1 6 2 6 1 5 2 6 3 4 3 6 4 6 5 
4 2 1 11.000000012
0 100 0 100 100 0 100 100 100 0 100 100 0 0 0 100 100 100 100 0 2 1 4 4 3 2 
4 2 1 11.000000012
0 0 0 0 0 100 0 100 100 0 100 0 0 0 100 0 100 -100 0 -100 1 4 3 3 2 1 
4 2 1 12.1000000032
0 0 100 0 100 100 100 100 100 100 0 100 0 0 0 100 100 100 100 0 2 1 4 4 3 2 
4 2 1 10.00000002
100 0 0 100 0 100 100 100 100 100 100 0 0 0 100 0 100 -100 0 -100 1 4 3 3 2 1 
4 2 1 10.00000002
0 0 0 0 0 100 0 100 100 0 100 0 0 0 100 0 100 -100 0 -100 1 4 3 3 2 1 
4 2 1 11.000000012
0 100 0 100 100 0 100 100 100 0 100 100 0 0 0 100 100 100 100 0 2 1 4 4 3 2 
4 2 1 10.00000002
100 0 0 100 0 100 100 100 100 100 100 0 0 0 100 0 100 -100 0 -100 1 4 3 3 2 1 
4 2 1 11.000000012
0 0 0 100 0 0 100 0 100 0 0 100 0 0 0 100 100 100 100 0 2 1 4 4 3 2 
4 2 1 12.1000000032
0 0 100 0 100 100 100 100 100 100 0 100 0 0 0 100 100 100 100 0 2 1 4 4 3 2 
4 2 1 12.1000000032
0 0 0 0 100 0 100 100 0 100 0 0 0 0 0 100 100 100 100 0 2 1 4 4 3 2 
82 112 1 1.08239228029239
6.12303176911189e-016 -1.49966072182214e-031 10 6.12303176911189e-016 -1.49966072182214e-031 10 6.12303176911189e-016 -1.49966072182214e-031 -10 1.30526192220051 -3.19686408665831e-016 -9.91444861373811 2.5881904510252 -6.33902894245574e-016 -9.65925826289068 3.82683432365089 -9.37273125553688e-016 -9.23879532511287 4.99999999999999 -1.22460635382238e-015 -8.66025403784439 6.0876142900872 -1.49098622785214e-015 -7.93353340291236 7.07106781186547 -1.73185491414387e-015 -7.07106781186548 7.93353340291234 -1.9430910826937e-015 -6.08761429008722 8.66025403784438 -2.12108042409202e-015 -5.00000000000001 9.23879532511286 -2.26277749135954e-015 -3.82683432365091 9.65925826289068 -2.36575780838945e-015 -2.58819045102522 9.9144486137381 -2.42825935340583e-015 -1.30526192220053 10 -2.44921270764475e-015 -2.02127811016473e-014 9.91444861373811 -2.42825935340583e-015 1.30526192220049 9.65925826289069 -2.36575780838945e-015 2.58819045102519 9.23879532511288 -2.26277749135954e-015 3.82683432365087 8.6602540378444 -2.12108042409203e-015 4.99999999999998 7.93353340291237 -1.94309108269371e-015 6.08761429008718 7.0710678118655 -1.73185491414388e-015 7.07106781186545 6.08761429008723 -1.49098622785214e-015 7.93353340291233 5.00000000000003 -1.22460635382238e-015 8.66025403784437 3.82683432365093 -9.37273125553698e-016 9.23879532511285 2.58819045102524 -6.33902894245583e-016 9.65925826289067 1.30526192220055 -3.19686408665841e-016 9.9144486137381 6.12303176911189e-016 -1.49966072182214e-031 -10 1.30526192220051 -3.19686408665831e-016 -9.91444861373811 2.5881904510252 -6.33902894245574e-016 -9.65925826289068 3.82683432365089 -9.37273125553688e-016 -9.23879532511287 4.99999999999999 -1.22460635382238e-015 -8.66025403784439 6.0876142900872 -1.49098622785214e-015 -7.93353340291236 7.07106781186547 -1.73185491414387e-015 -7.07106781186548 7.93353340291234 -1.9430910826937e-015 -6.08761429008722 8.66025403784438 -2.12108042409202e-015 -5.00000000000001 9.23879532511286 -2.26277749135954e-015 -3.82683432365091 9.65925826289068 -2.36575780838945e-015 -2.58819045102522 9.9144486137381 -2.42825935340583e-015 -1.30526192220053 10 -2.44921270764475e-015 -2.02127811016473e-014 9.91444861373811 -2.42825935340583e-015 1.30526192220049 9.65925826289069 -2.36575780838945e-015 2.58819045102519 9.23879532511288 -2.26277749135954e-015 3.82683432365087 8.6602540378444 -2.12108042409203e-015 4.99999999999998 7.93353340291237 -1.94309108269371e-015 6.08761429008718 7.0710678118655 -1.73185491414388e-015 7.07106781186545 6.08761429008723 -1.49098622785214e-015 7.93353340291233 5.00000000000003 -1.22460635382238e-015 8.66025403784437 3.82683432365093 -9.37273125553698e-016 9.23879532511285 2.58819045102524 -6.33902894245583e-016 9.65925826289067 1.30526192220055 -3.19686408665841e-016 9.9144486137381 5.29576213327687 2.55030463062816 -8.09016994374947 1.30794523305869 5.73048248828767 -8.09016994374947 -3.6647811048732 4.59549015172669 -8.09016994374947 -5.87785252292473 7.19805554640452e-016 -8.09016994374947 -3.6647811048732 -4.59549015172669 -8.09016994374947 1.30794523305869 -5.73048248828767 -8.09016994374947 5.29576213327687 -2.55030463062816 -8.09016994374947 7.69420884293813 5.59016994374947 -3.09016994374947 2.93892626146237 9.04508497187474 -3.09016994374947 -2.93892626146236 9.04508497187474 -3.09016994374947 -7.69420884293813 5.59016994374947 -3.09016994374947 -9.51056516295153 1.16466985269922e-015 -3.09016994374947 -7.69420884293813 -5.59016994374947 -3.09016994374947 -2.93892626146237 -9.04508497187474 -3.09016994374947 2.93892626146236 -9.04508497187474 -3.09016994374947 7.69420884293813 -5.59016994374948 -3.09016994374947 9.04508497187474 2.93892626146237 3.09016994374947 5.59016994374947 7.69420884293813 3.09016994374947 5.8233492634961e-016 9.51056516295153 3.09016994374947 -5.59016994374947 7.69420884293813 3.09016994374947 -9.04508497187474 2.93892626146237 3.09016994374947 -9.04508497187474 -2.93892626146236 3.09016994374947 -5.59016994374947 -7.69420884293813 3.09016994374947 -1.74700477904883e-015 -9.51056516295153 3.09016994374947 5.59016994374947 -7.69420884293813 3.09016994374947 9.04508497187474 -2.93892626146237 3.09016994374947 3.6647811048732 4.59549015172669 8.09016994374947 -1.30794523305869 5.73048248828767 8.09016994374947 -5.29576213327687 2.55030463062816 8.09016994374947 -5.29576213327687 -2.55030463062815 8.09016994374947 -1.30794523305869 -5.73048248828767 8.09016994374947 3.6647811048732 -4.59549015172669 8.09016994374947 0 1.5707963267949 6.28318530717959 1.5707963267949 6.28318530717959 -1.5707963267949 6.28318530717959 -1.43989663289532 6.28318530717959 -1.30899693899575 6.28318530717959 -1.17809724509617 6.28318530717959 -1.0471975511966 6.28318530717959 -0.916297857297024 6.28318530717959 -0.785398163397449 6.28318530717959 -0.654498469497875 6.28318530717959 -0.5235987755983 6.28318530717959 -0.392699081698725 6.28318530717959 -0.261799387799151 6.28318530717959 -0.130899693899576 6.28318530717959 -1.77635683940025e-015 6.28318530717959 0.130899693899573 6.28318530717959 0.261799387799147 6.28318530717959 0.392699081698722 6.28318530717959 0.523598775598296 6.28318530717959 0.654498469497871 6.28318530717959 0.785398163397446 6.28318530717959 0.91629785729702 6.28318530717959 1.04719755119659 6.28318530717959 1.17809724509617 6.28318530717959 1.30899693899574 6.28318530717959 1.43989663289532 0 -1.5707963267949 0 -1.43989663289532 0 -1.30899693899575 0 -1.17809724509617 0 -1.0471975511966 0 -0.916297857297024 0 -0.785398163397449 0 -0.654498469497875 0 -0.5235987755983 0 -0.392699081698725 0 -0.261799387799151 0 -0.130899693899576 0 -1.77635683940025e-015 0 0.130899693899573 0 0.261799387799147 0 0.392699081698722 0 0.523598775598296 0 0.654498469497871 0 0.785398163397446 0 0.91629785729702 0 1.04719755119659 0 1.17809724509617 0 1.30899693899574 0 1.43989663289532 0.448798950512828 -0.942477796076938 1.34639685153848 -0.942477796076938 2.24399475256414 -0.942477796076938 3.14159265358979 -0.942477796076938 4.03919055461545 -0.942477796076938 4.9367884556411 -0.942477796076938 5.83438635666676 -0.942477796076938 0.628318530717959 -0.314159265358979 1.25663706143592 -0.314159265358979 1.88495559215388 -0.314159265358979 2.51327412287183 -0.314159265358979 3.14159265358979 -0.314159265358979 3.76991118430775 -0.314159265358979 4.39822971502571 -0.314159265358979 5.02654824574367 -0.314159265358979 5.65486677646163 -0.314159265358979 0.314159265358979 0.314159265358979 0.942477796076938 0.314159265358979 1.5707963267949 0.314159265358979 2.19911485751286 0.314159265358979 2.82743338823081 0.314159265358979 3.45575191894877 0.314159265358979 4.08407044966673 0.314159265358979 4.71238898038469 0.314159265358979 5.34070751110265 0.314159265358979 5.96902604182061 0.314159265358979 0.897597901025655 0.942477796076938 1.79519580205131 0.942477796076938 2.69279370307697 0.942477796076938 3.59039160410262 0.942477796076938 4.48798950512828 0.942477796076938 5.38558740615393 0.942477796076938 28 27 51 30 29 51 31 30 51 28 51 29 33 32 51 35 34 51 36 35 58 33 51 34 31 51 32 58 37 36 58 51 52 58 52 59 53 52 27 54 53 27 60 52 53 51 27 52 61 53 54 37 58 38 68 58 59 60 59 52 61 60 53 69 59 60 38 58 39 70 60 61 61 62 71 58 35 51 27 3 54 40 39 67 42 41 67 43 42 67 40 67 41 45 44 67 47 46 77 48 47 77 45 77 46 43 67 44 67 68 77 67 39 58 69 70 78 68 59 69 69 60 70 70 71 79 58 68 67 68 69 77 50 49 77 1 50 77 77 78 1 78 77 69 79 78 70 78 79 1 48 77 49 1 79 2 79 71 72 77 45 67 61 71 70 62 61 54 55 56 64 56 55 3 57 3 4 3 57 56 66 57 11 55 54 3 56 57 66 72 62 63 62 54 63 74 64 65 65 64 56 66 65 56 75 65 66 63 55 64 73 63 64 57 4 5 63 54 55 5 6 57 7 8 57 8 9 57 6 7 57 10 11 57 12 13 66 13 14 66 11 12 66 9 10 57 15 66 14 72 73 80 72 63 73 74 65 75 74 73 64 76 15 16 66 15 76 73 74 81 80 81 2 80 73 81 75 76 82 75 66 76 21 82 76 82 81 74 75 82 74 81 82 2 76 16 17 80 79 72 17 18 76 19 20 76 20 21 76 18 19 76 22 23 82 23 24 82 25 26 82 26 2 82 24 25 82 21 22 82 80 2 79 72 71 62 

TShapes 84
Ve
5e-007
80 100 0
0 0

0101101
*
Ve
1e-007
0 100 0
0 0

0101101
*
Ed
 1e-007 1 1 0
1  1 0 0 80
2  1 2 0 0 80
2  2 1 0 0 80
6  1 1 2
6  2 2 2
6  3 3 2
6  4 4 5
0

0101000
-84 2 +83 0 *
Ve
5e-007
100 80 0
0 0

0101101
*
Ed
 1e-007 1 1 0
1  2 0 3.14159265358979 4.71238898038469
2  3 3 0 3.14159265358979 4.71238898038469
2  4 4 0 3.14159265358979 4.71238898038469
6  5 1 0
6  6 5 0
6  7 6 0
0

0101000
+84 0 -81 0 *
Ve
1e-007
0 0 0
0 0

0101101
*
Ed
 1e-007 1 1 0
1  3 0 0 100
2  5 5 0 0 100
2  6 1 0 0 100
6  8 7 0
6  9 8 0
6  10 1 2
0

0101000
-83 0 +79 0 *
Ve
1e-007
100 0 0
0 0

0101101
*
Ed
 1e-007 1 1 0
1  4 0 0 80
2  7 6 0 0 80
2  8 1 0 0 80
6  11 1 2
6  12 9 2
0

0101000
-81 2 +77 0 *
Ed
 1e-007 1 1 0
1  5 0 0 100
2  9 7 0 0 100
2  10 1 0 0 100
6  13 10 0
6  14 8 0
6  15 1 2
0

0101000
-77 0 +79 0 *
Wi

1101100
-82 1 -80 0 -78 1 +76 1 +75 1 *
Fa
0  1e-007 1 1
2  1
0111000
+74 0 *
Ve
5e-007
80 100 100
0 0

0101101
*
Ed
 1e-007 1 1 0
1  6 0 0 100
2  11 2 1 0 100
2  12 3 0 0 100
6  16 3 0
6  17 6 0
6  18 11 0
0

0101000
+84 0 -72 0 *
Ve
1e-007
0 100 100
0 0

0101101
*
Ed
 1e-007 1 1 0
1  7 0 0 80
2  13 2 0 0 80
2  14 8 0 0 80
6  19 2 2
6  20 12 2
6  21 3 2
6  22 13 5
0

0101000
-72 2 +70 0 *
Ed
 1e-007 1 1 0
1  8 0 0 100
2  15 5 0 0 100
2  16 2 0 0 100
6  23 7 0
6  24 14 0
6  25 2 2
6  26 3 2
6  27 15 5
0

0101000
-70 0 +83 0 *
Wi

0101100
-71 0 -82 1 +69 1 +68 1 *
Fa
0  1e-007 2 1
2  3
0101000
+67 0 *
Ve
5e-007
100 80 100
0 0

0101101
*
Ed
 1e-007 1 1 0
1  9 0 3.14159265358979 4.71238898038469
2  17 3 0 3.14159265358979 4.71238898038469
2  18 9 0 3.14159265358979 4.71238898038469
6  28 5 0
6  29 12 0
6  30 6 0
0

0101000
+72 0 -65 0 *
Ed
 1e-007 1 1 0
1  10 0 0 100
2  19 6 1 0 100
2  20 3 0 0 100
6  31 5 0
6  32 9 0
6  33 6 0
0

0101000
+81 0 -65 0 *
Wi

0101000
-64 0 -71 0 +63 0 +80 0 *
Fa
0  1e-007 3 0
2  6
0101000
+62 0 *
Ve
1e-007
0 0 100
0 0

0101101
*
Ed
 1e-007 1 1 0
1  11 0 0 100
2  21 5 0 0 100
2  22 7 0 0 100
6  34 7 0
6  35 10 0
0

0101000
-60 0 +79 0 *
Ed
 1e-007 1 1 0
1  12 0 0 100
2  23 5 0 0 100
2  24 8 0 0 100
6  36 7 0
6  37 16 0
6  38 12 2
0

0101000
-70 0 +60 0 *
Wi

1101000
-59 0 -58 0 +68 0 +78 0 *
Fa
0  1e-007 5 0
2  7
0111000
+57 0 *
Ve
1e-007
100 0 100
0 0

0101101
*
Ed
 1e-007 1 1 0
1  13 0 0 80
2  25 6 0 0 80
2  26 8 0 0 80
6  39 9 2
6  40 12 2
0

0101000
-65 2 +55 0 *
Ed
 1e-007 1 1 0
1  14 0 0 100
2  27 6 0 0 100
2  28 7 0 0 100
6  41 17 0
6  42 10 0
6  43 9 2
0

0101000
-55 0 +77 0 *
Wi

1101100
-54 1 +63 0 -53 1 +76 1 *
Fa
0  1e-007 6 1
2  9
0111000
+52 0 *
Ed
 1e-007 1 1 0
1  15 0 0 100
2  29 7 0 0 100
2  30 8 0 0 100
6  44 10 0
6  45 16 0
6  46 12 2
0

0101000
-55 0 +60 0 *
Wi

1101000
-75 0 -53 0 +50 0 +59 0 *
Fa
0  1e-007 7 0
2  10
0101000
+49 0 *
Wi

1101100
-69 1 -64 0 -58 1 +54 1 +50 1 *
Fa
0  1e-007 8 1
2  12
0111000
+47 0 *
Sh

0101000
-73 0 +66 0 -61 0 -56 1 +51 0 -48 1 +46 0 *
So

0100000
+45 0 *
Ve
1e-007
0 100 100
0 0

0101101
*
Ed
 1e-007 1 1 0
1  16 0 0 100
2  31 10 0 0 100
2  32 11 0 0 100
6  47 15 0
6  48 13 0
0

0101000
-43 0 +70 7 *
Ve
1e-007
0 100 0
0 0

0101101
*
Ed
 1e-007 1 1 0
1  17 0 0 100
2  33 10 0 0 100
2  34 12 0 0 100
6  49 18 0
6  50 19 0
6  51 15 0
0

0101000
-43 0 +41 0 *
Ed
 1e-007 1 1 0
1  18 0 0 100
2  35 10 0 0 100
2  36 13 0 0 100
6  52 15 0
6  53 4 0
0

0101000
-41 0 +83 7 *
Wi

0101000
-68 7 -42 0 +40 0 +39 0 *
Fa
0  1e-007 10 0
2  15
0101000
+38 0 *
Ve
1e-007
100 0 100
0 0

0101101
*
Ve
1e-007
100 0 0
0 0

0101101
*
Ed
 1e-007 1 1 0
1  19 0 0 100
2  37 14 0 0 100
2  38 15 0 0 100
6  54 20 0
6  55 21 0
6  56 11 8
0

0101000
-36 0 +35 0 *
Ve
1e-007
100 100 100
0 0

0101101
*
Ed
 1e-007 1 1 0
1  20 0 0 100
2  39 14 0 0 100
2  40 11 0 0 100
6  57 20 0
6  58 22 0
6  59 13 0
0

0101000
-33 0 +36 0 *
Ve
1e-007
100 100 0
0 0

0101101
*
Ed
 1e-007 1 1 0
1  21 0 0 100
2  41 14 0 0 100
2  42 12 0 0 100
6  60 20 0
6  61 19 0
0

0101000
-33 0 +31 0 *
Ed
 1e-007 1 1 0
1  22 0 0 100
2  43 14 0 0 100
2  44 13 0 0 100
6  62 20 0
6  63 23 0
6  64 4 0
0

0101000
-31 0 +35 0 *
Wi

0101000
-34 0 -32 0 +30 0 +29 0 *
Fa
0  1e-007 14 0
2  20
0111000
+28 0 *
Ed
 1e-007 1 1 0
1  23 0 80 100
2  45 15 0 80 100
2  46 13 0 80 100
6  65 11 8
6  66 4 0
0

0101000
+84 8 -35 0 *
Ed
 1e-007 1 1 0
1  24 0 80 100
2  47 15 0 80 100
2  48 11 0 80 100
6  67 11 8
6  68 13 0
0

0101000
+72 8 -36 0 *
Wi

0101100
-26 6 +71 0 -34 6 +25 6 *
Fa
0  1e-007 15 6
2  11
0101000
+24 0 *
Ed
 1e-007 1 1 0
1  25 0 0 100
2  49 12 0 0 100
2  50 13 0 0 100
6  69 19 0
6  70 23 0
6  71 4 0
0

0101000
-31 0 +41 0 *
Ed
 1e-007 1 1 0
1  26 0 0 100
2  51 12 0 0 100
2  52 11 0 0 100
6  72 19 0
6  73 22 0
6  74 13 0
0

0101000
-33 0 +43 0 *
Wi

0101000
-22 0 -30 0 +21 0 +40 0 *
Fa
0  1e-007 12 0
2  19
0101000
+20 0 *
Wi

0101000
-39 0 -22 0 +29 0 +26 0 +82 7 *
Fa
0  1e-007 13 0
2  4
0101000
+18 0 *
Wi

0101000
-42 0 -21 0 +32 0 +25 0 +69 7 *
Fa
0  1e-007 11 0
2  13
0101000
+16 0 *
Sh

0101000
-37 0 +27 0 -23 8 -66 8 +19 0 -17 0 +15 0 *
So

0100000
+14 0 *
CS

0101000
+44 0 +13 6 *
Ve
1e-007
6.12303176911189e-016 -1.49966072182214e-031 10
0 0

0101101
*
Ed
 1e-007 1 1 1
2  53 16 0 0 6.28318530717959
6  75 24 0
0

0101100
+11 0 -11 0 *
Ve
1e-007
6.12303176911189e-016 -1.49966072182214e-031 -10
0 0

0101101
*
Ed
 1e-007 1 1 0
1  27 0 4.71238898038469 7.85398163397448
3  54 55CN 16 0 4.71238898038469 7.85398163397448
7  76 77 24 0
0

0101000
-11 0 +9 0 *
Ed
 1e-007 1 1 1
2  56 16 0 0 6.28318530717959
6  78 24 0
0

0101100
+9 0 -9 0 *
Wi

0101000
-10 0 +8 0 +7 0 -8 0 *
Fa
0  1e-007 16 0
2  24
0101000
+6 0 *
Sh

0101100
+5 0 *
So

0100100
+4 0 *
Ve
1e-007
-10 0 0
0 0

0101101
*
Co

1100000
+12 0 +3 0 +2 0 *

+1 0 