DBRep_DrawableShape

CASCADE Topology V1, (c) Matra-Datavision
Locations 0
Curve2ds 47
1 0 0 1 0 
1 0 5 1 0 
1 5 0 0 -1 
1 5 0 0 1 
1 0 -5 1 0 
1 0 5 1 0 
1 0 0 0 -1 
1 5 0 0 1 
1 0 0 0 1 
1 0 0 1 0 
1 10 0 0 1 
1 5 0 0 1 
1 0 0 1 0 
1 0 0 1 0 
1 0 0 1 0 
1 0 0 0 1 
1 0 5 1 0 
1 5 0 0 1 
1 0 5 1 0 
1 0 -5 1 0 
1 0 0 1 0 
1 5 0 0 -1 
1 0 0 0 1 
1 10 0 0 -1 
1 0 0 0 1 
1 0 0 0 -1 
1 0 0 1 0 
1 0 10 1 0 
1 10 0 0 -1 
1 10 0 0 1 
1 0 -10 1 0 
1 0 10 1 0 
1 0 0 0 -1 
1 10 0 0 1 
1 10 0 0 1 
1 0 10 1 0 
1 0 0 1 0 
1 0 0 1 0 
1 0 0 1 0 
1 0 -10 1 0 
1 0 0 1 0 
1 0 0 0 -1 
1 0 0 0 1 
1 0 0 0 1 
1 0 10 1 0 
1 0 0 0 1 
1 0 0 1 0 
Curves 23
1 5 0 10 0 0 1 
1 5 0 15 0 1 0 
1 5 5 10 0 0 1 
1 5 0 10 -0 1 0 
1 0 0 10 1 0 -0 
1 0 0 15 1 0 -0 
1 0 0 10 0 0 1 
1 0 5 10 1 0 -0 
1 0 5 15 1 0 -0 
1 0 5 10 0 0 1 
1 0 0 15 -0 1 0 
1 0 0 10 -0 1 0 
1 10 0 0 0 0 1 
1 10 0 10 0 1 0 
1 10 10 0 0 0 1 
1 10 0 0 -0 1 0 
1 0 10 10 1 0 -0 
1 0 0 10 1 0 -0 
1 0 0 0 0 0 1 
1 0 10 0 0 0 1 
1 0 0 0 -0 1 0 
1 0 10 0 1 0 -0 
1 0 0 0 1 0 -0 
Polygon3D 0
PolygonOnTriangulations 0
Surfaces 13
1 5 0 10 1 0 -0 0 0 1 0 -1 0 
1 0 0 10 -0 1 0 0 0 1 1 0 -0 
1 0 0 15 0 0 1 1 0 -0 -0 1 0 
1 0 5 10 -0 1 0 0 0 1 1 0 -0 
1 0 0 10 0 0 1 1 0 -0 -0 1 0 
1 0 0 0 -0 1 0 0 0 1 1 0 -0 
1 0 0 10 1 0 -0 0 0 1 0 -1 0 
1 0 0 0 1 0 -0 0 0 1 0 -1 0 
1 0 0 10 0 0 1 1 0 -0 -0 1 0 
1 0 0 10 0 0 1 1 0 -0 -0 1 0 
1 10 0 0 1 0 -0 0 0 1 0 -1 0 
1 0 10 0 -0 1 0 0 0 1 1 0 -0 
1 0 0 0 0 0 1 1 0 -0 -0 1 0 
Triangulations 0

TShapes 68
Ve
1e-07
5 0 15
0 0

0101100
*
Ve
1e-07
5 0 10
0 0

0101100
*
Ed
 1e-07 1 1 0
1  1 0 0 5
2  1 1 0 0 5
2  2 2 0 0 5
0

0101000
-68 0 +67 0 *
Ve
1e-07
5 5 15
0 0

0101100
*
Ed
 1e-07 1 1 0
1  2 0 0 5
2  3 1 0 0 5
2  4 3 0 0 5
0

0101000
-65 0 +68 0 *
Ve
1e-07
5 5 10
0 0

0101100
*
Ed
 1e-07 1 1 0
1  3 0 0 5
2  5 1 0 0 5
2  6 4 0 0 5
0

0101000
-65 0 +63 0 *
Ed
 1e-07 1 1 0
1  4 0 0 5
2  7 1 0 0 5
2  8 5 0 0 5
0

0101000
-63 0 +67 0 *
Wi

0101000
-66 0 -64 0 +62 0 +61 0 *
Fa
0  1e-07 1 0

0111000
+60 0 *
Ve
1e-07
0 0 10
0 0

0101100
*
Ed
 0 1 1 0
1  5 0 0 5
2  9 2 0 0 5
2  10 5 0 0 5
2  11 6 0 0 5
0

0101000
+58 0 -67 0 *
Ve
1e-07
0 0 15
0 0

0101100
*
Ed
 1e-07 1 1 0
1  6 0 0 5
2  12 2 0 0 5
2  13 3 0 0 5
0

0101000
-68 0 +56 0 *
Ed
 1e-07 1 1 0
1  7 0 0 5
2  14 7 0 0 5
2  15 2 0 0 5
0

0101000
-56 0 +58 0 *
Wi

0101000
-57 0 -66 0 +55 0 +54 0 *
Fa
0  1e-07 2 0

0101000
+53 0 *
Ve
1e-07
0 5 10
0 0

0101100
*
Ed
 1e-07 1 1 0
1  8 0 0 5
2  16 4 0 0 5
2  17 5 0 0 5
0

0101000
-63 0 +51 0 *
Ve
1e-07
0 5 15
0 0

0101100
*
Ed
 1e-07 1 1 0
1  9 0 0 5
2  18 4 0 0 5
2  19 3 0 0 5
0

0101000
-65 0 +49 0 *
Ed
 1e-07 1 1 0
1  10 0 0 5
2  20 7 0 0 5
2  21 4 0 0 5
0

0101000
-49 0 +51 0 *
Wi

0101000
-50 0 -62 0 +48 0 +47 0 *
Fa
0  1e-07 4 0

0111000
+46 0 *
Ed
 1e-07 1 1 0
1  11 0 0 5
2  22 7 0 0 5
2  23 3 0 0 5
0

0101000
-49 0 +56 0 *
Ed
 0 1 1 0
1  12 0 0 5
2  24 8 0 0 5
2  25 9 0 0 5
2  26 7 0 0 5
0

0101000
+58 0 -51 0 *
Wi

0101000
-54 0 -44 0 +47 0 +43 0 *
Fa
0  1e-07 7 0

0101000
+42 0 *
Wi

0101000
-44 0 -48 0 +64 0 +55 0 *
Fa
0  1e-07 3 0

0111000
+40 0 *
Wi

0101100
+57 0 +61 0 -50 0 -43 0 *
Fa
0  1e-07 10 0

0111000
+38 0 *
Sh

0101000
+59 0 -52 0 +45 0 -41 0 +39 0 -37 0 *
So

0100000
+36 0 *
Ve
1e-07
10 0 10
0 0

0101100
*
Ve
1e-07
10 0 0
0 0

0101100
*
Ed
 1e-07 1 1 0
1  13 0 0 10
2  27 11 0 0 10
2  28 6 0 0 10
0

0101000
-34 0 +33 0 *
Ve
1e-07
10 10 10
0 0

0101100
*
Ed
 1e-07 1 1 0
1  14 0 0 10
2  29 11 0 0 10
2  30 9 0 0 10
0

0101000
-31 0 +34 0 *
Ve
1e-07
10 10 0
0 0

0101100
*
Ed
 1e-07 1 1 0
1  15 0 0 10
2  31 11 0 0 10
2  32 12 0 0 10
0

0101000
-31 0 +29 0 *
Ed
 1e-07 1 1 0
1  16 0 0 10
2  33 11 0 0 10
2  34 13 0 0 10
0

0101000
-29 0 +33 0 *
Wi

0101000
-32 0 -30 0 +28 0 +27 0 *
Fa
0  1e-07 11 0

0111000
+26 0 *
Ve
1e-07
0 10 10
0 0

0101100
*
Ed
 0 1 1 0
1  12 0 5 10
2  24 8 0 5 10
2  25 9 0 5 10
0

0101000
+51 0 -24 0 *
Ed
 1e-07 1 1 0
1  17 0 0 10
2  35 12 0 0 10
2  36 9 0 0 10
0

0101000
-31 0 +24 0 *
Ed
 0 1 1 0
1  18 0 5 10
2  11 6 0 5 10
2  37 9 0 5 10
0

0101000
+67 0 -34 0 *
Wi

0101000
-23 0 +50 0 -22 0 -61 0 +30 0 +21 0 *
Fa
0  1e-07 9 0

0101000
+20 0 *
Ve
1e-07
0 0 0
0 0

0101100
*
Ed
 1e-07 1 1 0
1  19 0 0 10
2  38 8 0 0 10
2  39 6 0 0 10
0

0101000
-58 0 +18 0 *
Ve
1e-07
0 10 0
0 0

0101100
*
Ed
 1e-07 1 1 0
1  20 0 0 10
2  40 8 0 0 10
2  41 12 0 0 10
0

0101000
-24 0 +16 0 *
Ed
 1e-07 1 1 0
1  21 0 0 10
2  42 8 0 0 10
2  43 13 0 0 10
0

0101000
-16 0 +18 0 *
Wi

0101000
-17 0 -43 0 -23 0 +15 0 +14 0 *
Fa
0  1e-07 8 0

0101000
+13 0 *
Ed
 1e-07 1 1 0
1  22 0 0 10
2  44 12 0 0 10
2  45 13 0 0 10
0

0101000
-29 0 +16 0 *
Ed
 1e-07 1 1 0
1  23 0 0 10
2  46 6 0 0 10
2  47 13 0 0 10
0

0101000
-33 0 +18 0 *
Wi

0101000
-14 0 -11 0 +27 0 +10 0 *
Fa
0  1e-07 13 0

0111000
+9 0 *
Wi

0101000
-11 0 -28 0 +22 0 +15 0 *
Fa
0  1e-07 12 0

0111000
+7 0 *
Wi

0101000
-10 0 -32 0 +57 0 +21 0 +17 0 *
Fa
0  1e-07 6 0

0101000
+5 0 *
Sh

0101000
+25 0 +19 0 -12 0 -8 0 +6 0 -4 0 -37 0 *
So

0100000
+3 0 *
CS

1101000
+35 0 +2 0 *

+1 0 
0

