DBRep_DrawableShape

CASCADE Topology V1, (c) Matra-Datavision
Locations 8
1
              1               0               0               0 
              0               1               0               0 
              0               0               1               0 
2  1 -1 0
1
              1               0               0               0 
              0               1               0               0 
              0               0               1               0 
1
              1               0               0               0 
              0               1               0             100 
              0               0               1               0 
2  3 1 4 1 1 -1 0
2  3 1 4 1 0
2  1 1 4 -1 3 -1 0
2  4 -1 3 -1 0
Curve2ds 52
1 0 0 0 1 
1 0 100 1 0 
1 0 0 1 0 
2 0 0 1 0 0 1 20
1 0 0 0 -1 
1 0 0 0 1 
1 0 0 0 -1 
1 100 0 0 1 
1 0 0 0 1 
1 0 0 1 0 
1 0 80 1 0 
1 3.14159265358979 0 0 1 
1 100 0 0 1 
1 0 100 1 0 
1 0 -100 1 0 
1 0 0 1 0 
1 0 100 1 0 
2 0 0 1 0 0 1 20
1 0 -80 1 0 
1 4.71238898038469 0 0 1 
1 0 0 1 0 
1 0 0 1 0 
1 100 0 0 -1 
1 0 0 0 1 
1 100 0 0 -1 
1 100 0 0 1 
1 0 0 1 0 
1 0 100 1 0 
1 100 0 0 1 
1 0 0 1 0 
1 100 0 0 -1 
1 0 0 0 1 
1 0 -100 1 0 
1 0 0 1 0 
1 0 0 0 -1 
1 0 0 0 1 
1 0 0 1 0 
1 0 100 1 0 
1 100 0 0 -1 
1 100 0 0 1 
1 0 -100 1 0 
1 0 100 1 0 
1 0 0 0 -1 
1 100 0 0 1 
1 0 0 0 1 
1 0 0 1 0 
1 100 0 0 1 
1 0 0 1 0 
1 0 0 0 1 
1 0 100 1 0 
1 100 0 0 1 
1 0 100 1 0 
Curves 26
1 0 100 0 1 0 0 
2 100 100 0 0 0 1 1 0 0 0 1 0 20
1 0 0 0 0 1 0 
1 100 0 0 0 1 0 
1 0 0 0 1 0 0 
1 80 100 0 0 0 1 
1 0 100 100 1 0 0 
1 0 100 0 0 0 1 
2 100 100 100 0 0 1 1 0 0 0 1 0 20
1 100 80 0 0 0 1 
1 0 0 0 0 0 1 
1 0 0 100 0 1 0 
1 100 0 100 0 1 0 
1 100 0 0 0 0 1 
1 0 0 100 1 0 0 
1 0 0 100 0 1 0 
1 0 100 0 0 0 1 
1 0 0 0 0 1 0 
1 100 0 0 0 0 1 
1 100 0 100 0 1 0 
1 100 100 0 0 0 1 
1 100 0 0 0 1 0 
1 0 0 0 1 0 0 
1 0 0 100 1 0 0 
1 0 100 0 1 0 0 
1 0 100 100 1 0 0 
Polygon3D 0
PolygonOnTriangulations 74
2 1 2 
p 10.00000002 1 0 80 
2 1 2 
p 10.1143655091496 1 0 80 
2 3 1 
p 10.1143655091496 1 0 80 
2 1 5 
p 10.1143655091496 1 0 80 
4 2 4 5 3 
p 8.65913768233914 1 3.14159265358979 3.66519142918809 4.18879020478639 4.71238898038469 
4 5 7 8 6 
p 10.00000002 1 3.14159265358979 3.66519142918809 4.18879020478639 4.71238898038469 
4 5 7 8 6 
p 10.00000002 1 3.14159265358979 3.66519142918809 4.18879020478639 4.71238898038469 
2 1 4 
p 10.00000002 1 0 100 
2 1 2 
p 12.000000004 1 0 100 
2 6 1 
p 12.000000004 1 0 100 
2 7 3 
p 10.00000002 1 0 80 
2 4 3 
p 10.1143655091496 1 0 80 
2 1 2 
p 10.00000002 1 0 100 
2 1 4 
p 12.2000000024 1 0 100 
2 6 7 
p 12.2000000024 1 0 100 
2 1 2 
p 10.00000002 1 0 100 
2 5 1 
p 12.1110041905404 1 0 100 
2 1 3 
p 12.1110041905404 1 0 100 
2 4 3 
p 10.00000002 1 0 80 
2 1 2 
p 10.1057182776575 1 0 80 
2 4 2 
p 10.1057182776575 1 0 80 
2 1 5 
p 10.1057182776575 1 0 80 
2 4 3 
p 10.00000002 1 0 100 
2 1 4 
p 12.000000004 1 0 100 
2 1 4 
p 12.000000004 1 0 100 
2 3 4 
p 12.000000004 1 0 100 
2 1 2 
p 12.000000004 1 0 100 
4 1 3 4 2 
p 8.65913768233914 1 3.14159265358979 3.66519142918809 4.18879020478639 4.71238898038469 
4 2 3 4 5 
p 10.00000002 1 3.14159265358979 3.66519142918809 4.18879020478639 4.71238898038469 
4 1 2 3 4 
p 10.00000002 1 3.14159265358979 3.66519142918809 4.18879020478639 4.71238898038469 
2 6 2 
p 10.00000002 1 0 100 
2 3 2 
p 12.0382427999998 1 0 100 
2 6 4 
p 12.0382427999998 1 0 100 
2 1 2 
p 10.00000002 1 0 100 
2 1 4 
p 12.000000004 1 0 100 
2 2 3 
p 10.00000002 1 0 100 
2 1 2 
p 12.000000004 1 0 100 
2 6 1 
p 12.000000004 1 0 100 
2 1 2 
p 10.00000002 1 0 80 
2 7 5 
p 10.2076304166575 1 0 80 
2 1 2 
p 10.00000002 1 0 100 
2 2 3 
p 12.000000004 1 0 100 
2 4 1 
p 12.000000004 1 0 100 
2 4 3 
p 10.00000002 1 0 100 
2 1 4 
p 12.2000000024 1 0 100 
2 6 7 
p 12.2000000024 1 0 100 
2 2 3 
p 10.00000002 1 0 100 
2 1 2 
p 12.2000000024 1 0 100 
2 4 3 
p 10.00000002 1 0 100 
2 1 4 
p 12.000000004 1 0 100 
2 4 3 
p 12.000000004 1 0 100 
2 1 4 
p 10.00000002 1 0 100 
2 1 2 
p 12.2000000024 1 0 100 
2 1 2 
p 10.00000002 1 0 100 
2 2 3 
p 12.000000004 1 0 100 
2 2 4 
p 12.000000004 1 0 100 
2 2 3 
p 10.00000002 1 0 100 
2 4 3 
p 12.000000004 1 0 100 
2 4 3 
p 12.000000004 1 0 100 
2 4 3 
p 10.00000002 1 0 100 
2 2 3 
p 12.000000004 1 0 100 
2 1 4 
p 10.00000002 1 0 100 
2 4 3 
p 12.000000004 1 0 100 
2 4 3 
p 12.000000004 1 0 100 
2 1 2 
p 8.00000008 1 80 100 
2 5 4 
p 10.00000002 1 80 100 
2 3 4 
p 8.00000008 1 80 100 
2 5 4 
p 10.00000002 1 80 100 
2 1 2 
p 10.00000002 1 0 100 
2 2 3 
p 12.2000000024 1 0 100 
2 2 3 
p 12.2000000024 1 0 100 
2 4 3 
p 10.00000002 1 0 100 
2 2 3 
p 12.2000000024 1 0 100 
2 2 3 
p 12.2000000024 1 0 100 
Surfaces 15
1 0 0 0 0 0 1 1 0 0 0 1 0 
1 0 100 0 0 1 0 0 0 1 1 0 0 
2 100 100 0 0 0 1 1 0 0 0 1 0 20
1 100 100 0 0 0 1 1 0 0 0 1 0 
1 0 0 0 1 0 0 0 0 1 0 -1 0 
1 100 0 0 1 0 0 0 0 1 0 -1 0 
1 0 0 0 0 1 0 0 0 1 1 0 0 
1 0 0 100 0 0 1 1 0 0 0 1 0 
1 100 100 100 0 0 1 1 0 0 0 1 0 
1 0 0 0 1 0 0 0 0 1 0 -1 0 
1 0 0 100 0 0 1 1 0 0 0 1 0 
1 0 100 0 0 1 0 0 0 1 1 0 0 
1 0 0 0 0 0 1 1 0 0 0 1 0 
1 100 0 0 1 0 0 0 0 1 0 -1 0 
1 0 0 0 0 1 0 0 0 1 1 0 0 
Triangulations 23
8 7 1 10.5718275457478
0 100 0 80 100 0 100 80 0 82.6794919243112 90 0 90 82.6794919243112 0 0 0 0 100 0 0 50 50 0 0 100 80 100 100 80 82.6794919243112 90 90 82.6794919243112 0 0 100 0 50 50 6 8 1 8 6 7 2 1 8 8 4 2 3 5 8 4 8 5 8 7 3 
4 2 1 10.5285913882874
0 100 0 80 100 0 80 100 100 0 100 100 0 0 0 80 100 80 100 0 2 1 4 4 3 2 
4 2 1 10.5550209527018
80 100 0 80 100 100 0 100 0 0 100 100 0 80 100 80 0 0 100 0 1 3 4 4 2 1 
6 5 1 11.3028731075899
0 0 0 0 100 0 100 100 0 100 0 0 80 0 0 50 50 0 0 0 0 100 100 100 100 0 80 0 50 50 1 6 2 6 1 5 2 6 3 4 3 6 4 6 5 
8 6 1 10.1912139999992
80 100 100 100 80 100 82.6794919243112 90 100 90 82.6794919243112 100 80 100 0 100 80 0 82.6794919243112 90 0 90 82.6794919243112 0 3.14159265358979 100 4.71238898038469 100 3.66519142918809 100 4.18879020478639 100 3.14159265358979 0 4.71238898038469 0 3.66519142918809 0 4.18879020478639 0 5 7 3 3 1 5 7 8 3 8 6 2 2 4 8 8 4 3 
8 6 1 11.037311757635
80 100 100 82.6794919243112 90 100 90 82.6794919243112 100 100 80 100 80 100 0 100 80 0 82.6794919243112 90 0 90 82.6794919243112 0 3.14159265358979 100 3.66519142918809 100 4.18879020478639 100 4.71238898038469 100 3.14159265358979 0 4.71238898038469 0 3.66519142918809 0 4.18879020478639 0 5 7 2 2 1 5 7 8 2 8 6 4 4 3 8 8 3 2 
4 2 1 10.00000002
0 0 0 0 0 100 0 100 100 0 100 0 0 0 100 0 100 -100 0 -100 1 4 3 3 2 1 
4 2 1 12.1000000032
0 0 0 0 100 0 100 100 0 100 0 0 0 0 0 100 100 100 100 0 2 1 4 4 3 2 
4 2 1 11.0381520832873
100 0 100 100 80 100 100 80 0 100 0 0 100 0 100 -80 0 -80 0 0 4 3 2 2 1 4 
4 2 1 11.000000012
0 0 0 100 0 0 100 0 100 0 0 100 0 0 0 100 100 100 100 0 2 1 4 4 3 2 
4 2 1 10.0277510886351
80 100 0 100 100 0 80 100 100 100 100 100 0 80 0 100 100 80 100 100 2 1 3 3 4 2 
8 7 1 10.902669744143
0 100 100 80 100 100 82.6794919243112 90 100 90 82.6794919243112 100 100 80 100 0 0 100 100 0 100 50 50 100 0 100 80 100 82.6794919243112 90 90 82.6794919243112 100 80 0 0 100 0 50 50 6 8 1 8 6 7 2 1 8 8 3 2 5 4 8 3 8 4 8 7 5 
6 5 1 11.3011436612915
0 0 100 0 100 100 100 100 100 100 0 100 80 0 100 50 50 100 0 0 0 100 100 100 100 0 80 0 50 50 1 6 2 6 1 5 2 6 3 4 3 6 4 6 5 
4 2 1 11.000000012
0 100 0 100 100 0 100 100 100 0 100 100 0 0 0 100 100 100 100 0 2 1 4 4 3 2 
4 2 1 11.000000012
0 0 0 0 0 100 0 100 100 0 100 0 0 0 100 0 100 -100 0 -100 1 4 3 3 2 1 
4 2 1 12.1000000032
0 0 100 0 100 100 100 100 100 100 0 100 0 0 0 100 100 100 100 0 2 1 4 4 3 2 
4 2 1 10.00000002
100 0 0 100 0 100 100 100 100 100 100 0 0 0 100 0 100 -100 0 -100 1 4 3 3 2 1 
4 2 1 10.00000002
0 0 0 0 0 100 0 100 100 0 100 0 0 0 100 0 100 -100 0 -100 1 4 3 3 2 1 
4 2 1 11.000000012
0 100 0 100 100 0 100 100 100 0 100 100 0 0 0 100 100 100 100 0 2 1 4 4 3 2 
4 2 1 10.00000002
100 0 0 100 0 100 100 100 100 100 100 0 0 0 100 0 100 -100 0 -100 1 4 3 3 2 1 
4 2 1 11.000000012
0 0 0 100 0 0 100 0 100 0 0 100 0 0 0 100 100 100 100 0 2 1 4 4 3 2 
4 2 1 12.1000000032
0 0 100 0 100 100 100 100 100 100 0 100 0 0 0 100 100 100 100 0 2 1 4 4 3 2 
4 2 1 12.1000000032
0 0 0 0 100 0 100 100 0 100 0 0 0 0 0 100 100 100 100 0 2 1 4 4 3 2 

TShapes 73
Ve
5e-007
80 100 0
0 0

0101101
*
Ve
1e-007
0 100 0
0 0

0101101
*
Ed
 1e-007 1 1 0
1  1 0 0 80
2  1 2 0 0 80
2  2 1 0 0 80
6  1 1 2
6  2 2 2
6  3 3 2
6  4 4 5
0

0101000
-73 2 +72 0 *
Ve
5e-007
100 80 0
0 0

0101101
*
Ed
 1e-007 1 1 0
1  2 0 3.14159265358979 4.71238898038469
2  3 3 0 3.14159265358979 4.71238898038469
2  4 4 0 3.14159265358979 4.71238898038469
6  5 1 0
6  6 5 0
6  7 6 0
0

0101000
+73 0 -70 0 *
Ve
1e-007
0 0 0
0 0

0101101
*
Ed
 1e-007 1 1 0
1  3 0 0 100
2  5 5 0 0 100
2  6 1 0 0 100
6  8 7 0
6  9 8 0
6  10 1 2
0

0101000
-72 0 +68 0 *
Ve
1e-007
100 0 0
0 0

0101101
*
Ed
 1e-007 1 1 0
1  4 0 0 80
2  7 6 0 0 80
2  8 1 0 0 80
6  11 1 2
6  12 9 2
0

0101000
-70 2 +66 0 *
Ed
 1e-007 1 1 0
1  5 0 0 100
2  9 7 0 0 100
2  10 1 0 0 100
6  13 10 0
6  14 8 0
6  15 1 2
0

0101000
-66 0 +68 0 *
Wi

1101100
-71 1 -69 0 -67 1 +65 1 +64 1 *
Fa
0  1e-007 1 1
2  1
0111000
+63 0 *
Ve
5e-007
80 100 100
0 0

0101101
*
Ed
 1e-007 1 1 0
1  6 0 0 100
2  11 2 1 0 100
2  12 3 0 0 100
6  16 3 0
6  17 6 0
6  18 11 0
0

0101000
+73 0 -61 0 *
Ve
1e-007
0 100 100
0 0

0101101
*
Ed
 1e-007 1 1 0
1  7 0 0 80
2  13 2 0 0 80
2  14 8 0 0 80
6  19 2 2
6  20 12 2
6  21 3 2
6  22 13 5
0

0101000
-61 2 +59 0 *
Ed
 1e-007 1 1 0
1  8 0 0 100
2  15 5 0 0 100
2  16 2 0 0 100
6  23 7 0
6  24 14 0
6  25 2 2
6  26 3 2
6  27 15 5
0

0101000
-59 0 +72 0 *
Wi

0101100
-60 0 -71 1 +58 1 +57 1 *
Fa
0  1e-007 2 1
2  3
0101000
+56 0 *
Ve
5e-007
100 80 100
0 0

0101101
*
Ed
 1e-007 1 1 0
1  9 0 3.14159265358979 4.71238898038469
2  17 3 0 3.14159265358979 4.71238898038469
2  18 9 0 3.14159265358979 4.71238898038469
6  28 5 0
6  29 12 0
6  30 6 0
0

0101000
+61 0 -54 0 *
Ed
 1e-007 1 1 0
1  10 0 0 100
2  19 6 1 0 100
2  20 3 0 0 100
6  31 5 0
6  32 9 0
6  33 6 0
0

0101000
+70 0 -54 0 *
Wi

0101000
-53 0 -60 0 +52 0 +69 0 *
Fa
0  1e-007 3 0
2  6
0101000
+51 0 *
Ve
1e-007
0 0 100
0 0

0101101
*
Ed
 1e-007 1 1 0
1  11 0 0 100
2  21 5 0 0 100
2  22 7 0 0 100
6  34 7 0
6  35 10 0
0

0101000
-49 0 +68 0 *
Ed
 1e-007 1 1 0
1  12 0 0 100
2  23 5 0 0 100
2  24 8 0 0 100
6  36 7 0
6  37 16 0
6  38 12 2
0

0101000
-59 0 +49 0 *
Wi

1101000
-48 0 -47 0 +57 0 +67 0 *
Fa
0  1e-007 5 0
2  7
0111000
+46 0 *
Ve
1e-007
100 0 100
0 0

0101101
*
Ed
 1e-007 1 1 0
1  13 0 0 80
2  25 6 0 0 80
2  26 8 0 0 80
6  39 9 2
6  40 12 2
0

0101000
-54 2 +44 0 *
Ed
 1e-007 1 1 0
1  14 0 0 100
2  27 6 0 0 100
2  28 7 0 0 100
6  41 17 0
6  42 10 0
6  43 9 2
0

0101000
-44 0 +66 0 *
Wi

1101100
-43 1 +52 0 -42 1 +65 1 *
Fa
0  1e-007 6 1
2  9
0111000
+41 0 *
Ed
 1e-007 1 1 0
1  15 0 0 100
2  29 7 0 0 100
2  30 8 0 0 100
6  44 10 0
6  45 16 0
6  46 12 2
0

0101000
-44 0 +49 0 *
Wi

1101000
-64 0 -42 0 +39 0 +48 0 *
Fa
0  1e-007 7 0
2  10
0101000
+38 0 *
Wi

1101100
-58 1 -53 0 -47 1 +43 1 +39 1 *
Fa
0  1e-007 8 1
2  12
0111000
+36 0 *
Sh

0101000
-62 0 +55 0 -50 0 -45 1 +40 0 -37 1 +35 0 *
So

0100000
+34 0 *
Ve
1e-007
0 100 100
0 0

0101101
*
Ed
 1e-007 1 1 0
1  16 0 0 100
2  31 10 0 0 100
2  32 11 0 0 100
6  47 15 0
6  48 13 0
0

0101000
-32 0 +59 7 *
Ve
1e-007
0 100 0
0 0

0101101
*
Ed
 1e-007 1 1 0
1  17 0 0 100
2  33 10 0 0 100
2  34 12 0 0 100
6  49 18 0
6  50 19 0
6  51 15 0
0

0101000
-32 0 +30 0 *
Ed
 1e-007 1 1 0
1  18 0 0 100
2  35 10 0 0 100
2  36 13 0 0 100
6  52 15 0
6  53 4 0
0

0101000
-30 0 +72 7 *
Wi

0101000
-57 7 -31 0 +29 0 +28 0 *
Fa
0  1e-007 10 0
2  15
0101000
+27 0 *
Ve
1e-007
100 0 100
0 0

0101101
*
Ve
1e-007
100 0 0
0 0

0101101
*
Ed
 1e-007 1 1 0
1  19 0 0 100
2  37 14 0 0 100
2  38 15 0 0 100
6  54 20 0
6  55 21 0
6  56 11 8
0

0101000
-25 0 +24 0 *
Ve
1e-007
100 100 100
0 0

0101101
*
Ed
 1e-007 1 1 0
1  20 0 0 100
2  39 14 0 0 100
2  40 11 0 0 100
6  57 20 0
6  58 22 0
6  59 13 0
0

0101000
-22 0 +25 0 *
Ve
1e-007
100 100 0
0 0

0101101
*
Ed
 1e-007 1 1 0
1  21 0 0 100
2  41 14 0 0 100
2  42 12 0 0 100
6  60 20 0
6  61 19 0
0

0101000
-22 0 +20 0 *
Ed
 1e-007 1 1 0
1  22 0 0 100
2  43 14 0 0 100
2  44 13 0 0 100
6  62 20 0
6  63 23 0
6  64 4 0
0

0101000
-20 0 +24 0 *
Wi

0101000
-23 0 -21 0 +19 0 +18 0 *
Fa
0  1e-007 14 0
2  20
0111000
+17 0 *
Ed
 1e-007 1 1 0
1  23 0 80 100
2  45 15 0 80 100
2  46 13 0 80 100
6  65 11 8
6  66 4 0
0

0101000
+73 8 -24 0 *
Ed
 1e-007 1 1 0
1  24 0 80 100
2  47 15 0 80 100
2  48 11 0 80 100
6  67 11 8
6  68 13 0
0

0101000
+61 8 -25 0 *
Wi

0101100
-15 6 +60 0 -23 6 +14 6 *
Fa
0  1e-007 15 6
2  11
0101000
+13 0 *
Ed
 1e-007 1 1 0
1  25 0 0 100
2  49 12 0 0 100
2  50 13 0 0 100
6  69 19 0
6  70 23 0
6  71 4 0
0

0101000
-20 0 +30 0 *
Ed
 1e-007 1 1 0
1  26 0 0 100
2  51 12 0 0 100
2  52 11 0 0 100
6  72 19 0
6  73 22 0
6  74 13 0
0

0101000
-22 0 +32 0 *
Wi

0101000
-11 0 -19 0 +10 0 +29 0 *
Fa
0  1e-007 12 0
2  19
0101000
+9 0 *
Wi

0101000
-28 0 -11 0 +18 0 +15 0 +71 7 *
Fa
0  1e-007 13 0
2  4
0101000
+7 0 *
Wi

0101000
-31 0 -10 0 +21 0 +14 0 +58 7 *
Fa
0  1e-007 11 0
2  13
0101000
+5 0 *
Sh

0101000
-26 0 +16 0 -12 8 -55 8 +8 0 -6 0 +4 0 *
So

0100000
+3 0 *
CS

0101000
+33 0 +2 6 *

+1 0 