DBRep_DrawableShape

CASCADE Topology V1, (c) Matra-Datavision
Locations 0
Curve2ds 38
6 0 1 0 0  0 1  
6 0 1 0 0  1 0  
6 0 1 1 0  1 1  
6 0 1 0 1  1 1  
6 0 7 0.50000000000000011 0.70000000000000007  0.48960099801654605 0.70000000000000007  0.4792029985836162 0.69936938777114988  0.46882060351498273 0.69810763398033637  0.45847007969155457 0.6962085846739211  0.44816966386661367 0.69365916916576498  0.43793986747104935 0.69043810792525673  0.42780378141859393 0.6865146204653394  
6 0 7 0 0.11111111111111113  0.016550525688891333 0.11111111111111113  0.033099292192009862 0.11111111111111115  0.049696708829015369 0.11111111111111115  0.066389435912189015 0.11111111111111113  0.083225540313830088 0.11111111111111113  0.10025965103365263 0.11111111111111113  0.11755811476618229 0.11111111111111113  
6 0 7 0.58967414752961056 0.67876952086882525  0.57722870840124962 0.68501239529669156  0.56458415439967724 0.69009011625897543  0.55179542377151425 0.69408697919891338  0.53890776963884635 0.69705211625632835  0.52595917179359974 0.69901690439238007  0.51298143874212587 0.69999999999999996  0.50000000000000011 0.69999999999999996  
6 0 7 0.85200444121078789 0.11111111111111113  0.87416429426181597 0.11111111111111113  0.89577613873606643 0.11111111111111115  0.9169962738390689 0.11111111111111108  0.93793470804194257 0.11111111111111109  0.95868448961134656 0.11111111111111119  0.97933939855746055 0.11111111111111113  1 0.11111111111111113  
6 0 7 0.65913946506088816 0.62113874602391361  0.65032188217364895 0.63272238280437743  0.64095334412433047 0.64298893049377825  0.63118089495663821 0.65210431014211911  0.62110486118934405 0.66016080861935822  0.61080125265089225 0.66724662267945734  0.6003170710657777 0.67343082333502235  0.58967414752961056 0.67876952086882525  
6 0 7 0.70710454048180682 0.11111111111111112  0.73027403742128449 0.11111111111111112  0.75230678051107758 0.11111111111111112  0.77347095706231817 0.11111111111111112  0.79390160526981157 0.11111111111111112  0.81372629800190022 0.11111111111111112  0.83305407560598232 0.11111111111111112  0.85200444121078789 0.11111111111111113  
6 0 7 0.69738324819795605 0.5322461935657864  0.69482009652811838 0.54793556454486891  0.69089707546059664 0.56280412105980537  0.68585607127306625 0.57660330807019988  0.67997896925935752 0.58928522768780289  0.67347951037358655 0.60087322767283124  0.666511740579526 0.6114538059507113  0.65913946506088816 0.62113874602391361  
6 0 7 0.55154651147973177 0.11111111111111112  0.5768479944170376 0.11111111111111112  0.6012089851372624 0.11111111111111112  0.62443936711614634 0.11111111111111112  0.64656011030905813 0.11111111111111112  0.66761654885717858 0.11111111111111112  0.68773280139520687 0.11111111111111112  0.70710454048180682 0.11111111111111112  
6 0 7 0.68370230564279311 0.42092151690573976  0.68943209978746933 0.43423194116132346  0.69441248489007368 0.44889972290240454  0.69826128925372055 0.46476828420024319  0.70062303396249526 0.48155786101967168  0.701240575508843 0.49883669034961531  0.70003663544355399 0.51600447937569771  0.69738324819795605 0.5322461935657864  
6 0 7 0.37060840474299778 0.11111111111111113  0.39367201485954967 0.11111111111111112  0.41824845914974207 0.11111111111111112  0.4440651522559621 0.11111111111111112  0.47080759159927954 0.11111111111111112  0.49807946064321268 0.11111111111111112  0.52535429160036229 0.11111111111111112  0.55154651147973177 0.11111111111111112  
6 0 7 0.64730878668488478 0.36472222419529909  0.65322983491165509 0.3711699091336183  0.65897553007540466 0.37808720733719525  0.6645220976497116 0.38551091077037614  0.66983036661761808 0.39347603138058745  0.67484575932467372 0.40201475494084349  0.67949825324854873 0.41115542068183125  0.68370230564279311 0.42092151690573976  
6 0 7 0.26354369754526219 0.11111111111111108  0.27747604304657691 0.11111111111111108  0.29176988375678059 0.11111111111111113  0.30648699567224513 0.11111111111111115  0.32167956457676616 0.11111111111111113  0.33739590497903127 0.11111111111111113  0.35368622169729441 0.11111111111111113  0.37060840474299778 0.11111111111111113  
6 0 7 0.57219621858140202 0.31348537953465888  0.58352329132026548 0.31786987544545808  0.59472316557335947 0.32312785118226967  0.60577415782537769 0.32930526491031809  0.61663458006553096 0.33646253428672546  0.6272397964542511 0.34467995597298595  0.63750507717631411 0.35404654183009254  0.64730878668488478 0.36472222419529909  
6 0 7 0.11755811476617517 0.11111111111111113  0.1368891421425151 0.11111111111111112  0.15653310908772122 0.11111111111111112  0.1766013808347992 0.11111111111111112  0.19719785662164063 0.11111111111111112  0.2184447153436897 0.11111111111111112  0.24047537199939217 0.11111111111111112  0.26354369754526219 0.11111111111111108  
6 0 7 0.5 0.29999999999999999  0.51039900198345478 0.29999999999999999  0.52079700141638152 0.30063061222885007  0.53117939648501455 0.30189236601966341  0.54152992030844382 0.30379141532607878  0.55183033613338461 0.30634083083423436  0.56206013252894627 0.30956189207474166  0.57219621858140202 0.31348537953465888  
6 0 7 0 0.11111111111111113  0.016550525688892436 0.11111111111111113  0.033099292192006358 0.11111111111111115  0.049696708829010963 0.11111111111111115  0.066389435912186337 0.11111111111111113  0.083225540313826937 0.11111111111111113  0.10025965103364523 0.11111111111111113  0.11755811476617517 0.11111111111111113  
6 0 7 0.41032585247038933 0.32123047913117481  0.42277129159875104 0.31498760470330811  0.43541584560032115 0.30990988374102696  0.44820457622848558 0.30591302080108479  0.46109223036115443 0.30294788374366971  0.47404082820640009 0.30098309560762182  0.48701856125787396 0.29999999999999988  0.49999999999999989 0.29999999999999988  
6 0 7 0.85200444121078767 0.11111111111111113  0.87416429426181719 0.11111111111111113  0.89577613873606232 0.11111111111111115  0.91699627383906923 0.11111111111111108  0.93793470804194534 0.11111111111111109  0.95868448961134567 0.11111111111111119  0.97933939855746011 0.11111111111111113  1 0.11111111111111113  
6 0 7 0.34086053493911417 0.37886125397608339  0.34967811782634589 0.36727761719562979  0.35904665587570489 0.35701106950617567  0.36881910504329773 0.34789568985796215  0.37889513881072434 0.33983919138056373  0.38919874734907162 0.33275337732057692  0.39968292893423146 0.32656917666497298  0.41032585247038933 0.32123047913117481  
6 0 7 0.70710454048181293 0.11111111111111112  0.73027403742127062 0.11111111111111112  0.75230678051113808 0.11111111111111112  0.77347095706223334 0.11111111111111112  0.79390160526989662 0.11111111111111112  0.81372629800185203 0.11111111111111112  0.83305407560599865 0.11111111111111112  0.85200444121078767 0.11111111111111113  
6 0 7 0.30261675180204528 0.46775380643420644  0.30517990347188539 0.45206443545511232  0.3091029245393927 0.43719587894023526  0.31414392872696539 0.42339669192971308  0.32002103074061028 0.41071477231227005  0.32652048962643637 0.39912677232712734  0.33348825942047128 0.38854619404929203  0.34086053493911417 0.37886125397608339  
6 0 7 0.55154651147974354 0.11111111111111112  0.57684799441706835 0.11111111111111112  0.6012089851371899 0.11111111111111112  0.62443936711630688 0.11111111111111112  0.64656011030892047 0.11111111111111112  0.66761654885725685 0.11111111111111112  0.6877328013952001 0.11111111111111112  0.70710454048181293 0.11111111111111112  
6 0 7 0.31629769435720378 0.57907848309425236  0.31056790021253605 0.56576805883868708  0.30558751510990234 0.55110027709751874  0.30173871074630126 0.53523171579985751  0.29937696603749453 0.51844213898022184  0.29875942449115567 0.50116330965042311  0.29996336455644862 0.48399552062428408  0.30261675180204528 0.46775380643420644  
6 0 7 0.37060840474301154 0.11111111111111113  0.39367201485953074 0.11111111111111112  0.41824845914987202 0.11111111111111112  0.4440651522557888 0.11111111111111112  0.47080759159946339 0.11111111111111112  0.49807946064314501 0.11111111111111112  0.5253542916003916 0.11111111111111112  0.55154651147974354 0.11111111111111112  
6 0 7 0.35269121331511033 0.63527777580469591  0.34677016508834063 0.62883009086637698  0.3410244699245914 0.62191279266279875  0.3354779023502843 0.61448908922961765  0.33016963338237776 0.60652396861940638  0.32515424067532234 0.59798524505914974  0.32050174675144755 0.58884457931816037  0.31629769435720378 0.57907848309425236  
6 0 7 0.26354369754527263 0.11111111111111113  0.27747604304658563 0.11111111111111115  0.29176988375679347 0.11111111111111109  0.30648699567225857 0.11111111111111112  0.32167956457677743 0.11111111111111113  0.33739590497904259 0.11111111111111116  0.35368622169730968 0.11111111111111113  0.37060840474301154 0.11111111111111113  
6 0 7 0.42780378141859393 0.6865146204653394  0.41647670867972775 0.68213012455453892  0.40527683442664925 0.67687214881773228  0.39422584217459089 0.67069473508966704  0.38336541993449447 0.66353746571329064  0.37276020354572753 0.65532004402699573  0.36249492282368634 0.64595345816990868  0.35269121331511033 0.63527777580469591  
6 0 7 0.11755811476618229 0.11111111111111113  0.13688914214252704 0.11111111111111112  0.15653310908771248 0.11111111111111112  0.17660138083484117 0.11111111111111112  0.19719785662160766 0.11111111111111112  0.21844471534372831 0.11111111111111112  0.24047537199939062 0.11111111111111112  0.26354369754527263 0.11111111111111113  
6 0 1 1 0.11111111111111112  1 1  
6 0 1 0 0.11111111111111112  0 1  
6 0 1 0 1  1 1  
6 0 1 0 0.11111111111111112  0 1  
6 0 1 1 0.11111111111111112  1 1  
6 0 1 0 1  1 1  
Curves 22
6 0 1 -30 -30 0  -30 30 0  
6 0 1 -30 -30 0  30 -30 0  
6 0 1 30 -30 0  30 30 0  
6 0 1 -30 30 0  30 30 0  
6 0 7 5.3290705182007514e-15 11.999999999999998 0  -0.62394011900723712 11.999999999999998 0  -1.2478200849830205 11.96216326626897 0  -1.8707637891010351 11.886458038820177 0  -2.4917952185067245 11.772515080435268 0  -3.1098201680031798 11.619550149945907 0  -3.7236079517370348 11.426286475515408 0  -4.3317731148843635 11.190877227920366 0  
6 0 7 5.3804488517766362 10.726171252129518 0  4.6337225040749788 11.100743717801496 0  3.8750492639806411 11.405406975538444 0  3.1077254262908474 11.645218751934886 0  2.3344661783307763 11.823126975379768 0  1.55755030761598 11.941014263542728 0  0.7788863245275498 11.999999999999996 0  7.1054273576010019e-15 11.999999999999996 0  
6 0 7 9.5483679036532862 7.2683247614348163 0  9.0193129304189377 7.963342968262646 0  8.4572006474597714 8.579335829626535 0  7.8708536973983847 9.1262586085275732 0  7.2662916713605936 9.6096485171611032 0  6.6480751590535325 10.034797360767582 0  6.0190242639466653 10.405849400101344 0  5.3804488517766362 10.726171252129518 0  
6 0 7 11.84299489187736 1.9347716139471858 0  11.689205791687103 2.8761338726921348 0  11.453824527636119 3.768247263588183 0  11.151364276383138 4.5961984842124384 0  10.798738155562333 5.3571136612676202 0  10.408770622414838 6.0523936603701411 0  9.9907044347715548 6.6872283570426756 0  9.5483679036532862 7.2683247614348163 0  
6 0 7 11.02213833856759 -4.7447089856556097 0  11.365925987248158 -3.9460835303205908 0  11.664749093404378 -3.0660166258554931 0  11.895677355223375 -2.1139029479860341 0  12.037382037749524 -1.1065283388190412 0  12.074434530530674 -0.069798579023354179 0  12.002198126613232 0.96026876254186533 0  11.84299489187736 1.9347716139471858 0  
6 0 7 8.8385272010930933 -8.1166665482820566 0  9.1937900946993096 -7.7298054519829069 0  9.5385318045242702 -7.3147675597682777 0  9.8713258589826953 -6.8693453537774234 0  10.189821997057082 -6.3914381171647534 0  10.490745559480416 -5.8791147035493951 0  10.769895194912928 -5.3306747590901224 0  11.02213833856759 -4.7447089856556097 0  
6 0 7 4.3317731148841201 -11.190877227920467 0  5.0113974792159306 -10.927807473272516 0  5.6833899344016574 -10.61232892906385 0  6.3464494695223648 -10.241684105380848 0  6.9980748039321927 -9.8122479427965352 0  7.6343877872549157 -9.3192026416208211 0  8.2503046305788459 -8.7572074901944461 0  8.8385272010930933 -8.1166665482820566 0  
6 0 7 0 -11.999999999999998 0  0.62394011900728341 -11.999999999999998 0  1.2478200849828924 -11.962163266268997 0  1.8707637891008737 -11.886458038820198 0  2.4917952185066299 -11.772515080435273 0  3.1098201680030733 -11.619550149945935 0  3.7236079517367764 -11.426286475515498 0  4.3317731148841201 -11.190877227920467 0  
6 0 7 -5.3804488517766451 -10.726171252129513 0  -4.6337225040749388 -11.100743717801517 0  -3.8750492639806882 -11.405406975538385 0  -3.1077254262908971 -11.645218751934916 0  -2.3344661783307714 -11.823126975379816 0  -1.5575503076159578 -11.941014263542689 0  -0.77888632452756723 -12.000000000000011 0  -1.0658141036401503e-14 -12.000000000000011 0  
6 0 7 -9.5483679036531512 -7.2683247614349957 0  -9.0193129304192468 -7.9633429682622134 0  -8.4572006474577393 -8.5793358296294944 0  -7.8708536974020644 -9.1262586085222086 0  -7.2662916713566119 -9.6096485171662263 0  -6.6480751590556686 -10.034797360765374 0  -6.0190242639461156 -10.405849400101619 0  -5.3804488517766451 -10.726171252129513 0  
6 0 7 -11.842994891877282 -1.9347716139476137 0  -11.689205791686875 -2.8761338726932593 0  -11.453824527636435 -3.7682472635859057 0  -11.151364276382072 -4.5961984842171448 0  -10.798738155563393 -5.3571136612638934 0  -10.408770622413813 -6.0523936603723145 0  -9.9907044347717253 -6.6872283570424749 0  -9.5483679036531512 -7.2683247614349957 0  
6 0 7 -11.022138338567782 4.7447089856550946 0  -11.365925987247836 3.946083530321232 0  -11.664749093405854 3.0660166258511037 0  -11.895677355221935 2.1139029479914822 0  -12.037382037750323 1.1065283388133 0  -12.074434530530661 0.069798579025389884 0  -12.002198126613084 -0.96026876254295601 0  -11.842994891877282 -1.9347716139476137 0  
6 0 7 -8.8385272010933722 8.1166665482818008 0  -9.1937900946995406 7.7298054519827044 0  -9.5385318045245331 7.3147675597678461 0  -9.8713258589829582 6.8693453537769882 0  -10.189821997057324 6.3914381171644497 0  -10.490745559480644 5.8791147035490656 0  -10.769895194913163 5.330674759089538 0  -11.022138338567782 4.7447089856550946 0  
6 0 7 -4.3317731148843635 11.190877227920366 0  -5.0113974792163374 10.927807473272333 0  -5.6833899344011405 10.612328929064125 0  -6.3464494695243063 10.241684105379578 0  -6.9980748039305878 9.8122479427978444 0  -7.63438778725624 9.3192026416196025 0  -8.250304630578821 8.7572074901945118 0  -8.8385272010933722 8.1166665482818008 0  
6 0 1 -3.5527136788005009e-15 -11.999999999999998 0  -3.5527136788005009e-15 -11.999999999999998 40  
6 0 10 3.5527136788005009e-15 11.999999999999998 40  -3.7699111843077473 12 40  -7.5398223686154981 10.68405274652142 40  -10.792962274918253 8.0521582395642604 40  -13.012559625211015 4.3362428863523341 40  -13.803279524340088 6.2172489379008766e-15 40  -13.012559625211018 -4.3362428863523226 40  -10.79296227491826 -8.0521582395642515 40  -7.5398223686155079 -10.684052746521415 40  -3.7699111843077602 -11.999999999999998 40  -1.3766765505351941e-14 -12 40  
6 0 1 3.5527136788005009e-15 11.999999999999998 0  3.5527136788005009e-15 11.999999999999998 40  
6 0 10 0 -12 40  3.7699111843077517 -12 40  7.5398223686155035 -10.684052746521418 40  10.792962274918258 -8.0521582395642568 40  13.01255962521102 -4.3362428863523297 40  13.803279524340093 -1.7763568394002505e-15 40  13.012559625211022 4.3362428863523261 40  10.792962274918262 8.0521582395642533 40  7.5398223686155088 10.684052746521413 40  3.7699111843077597 11.999999999999993 40  1.1546319456101628e-14 11.999999999999991 40  
Polygon3D 0
PolygonOnTriangulations 0
Surfaces 3
8 0 0 1 1 -30 -30 0  -30 30 0  
30 -30 0  30 30 0  

8 0 0 10 1 3.5527136788005009e-15 11.999999999999998 -5  3.5527136788005009e-15 11.999999999999998 40  
-3.7699111843077473 12 -5  -3.7699111843077473 12 40  
-7.5398223686154981 10.68405274652142 -5  -7.5398223686154981 10.68405274652142 40  
-10.792962274918253 8.0521582395642604 -5  -10.792962274918253 8.0521582395642604 40  
-13.012559625211015 4.3362428863523341 -5  -13.012559625211015 4.3362428863523341 40  
-13.803279524340088 6.2172489379008766e-15 -5  -13.803279524340088 6.2172489379008766e-15 40  
-13.012559625211018 -4.3362428863523226 -5  -13.012559625211018 -4.3362428863523226 40  
-10.79296227491826 -8.0521582395642515 -5  -10.79296227491826 -8.0521582395642515 40  
-7.5398223686155079 -10.684052746521415 -5  -7.5398223686155079 -10.684052746521415 40  
-3.7699111843077602 -11.999999999999998 -5  -3.7699111843077602 -11.999999999999998 40  
-1.3766765505351941e-14 -12 -5  -1.3766765505351941e-14 -12 40  

8 0 0 10 1 0 -12 -5  0 -12 40  
3.7699111843077517 -12 -5  3.7699111843077517 -12 40  
7.5398223686155035 -10.684052746521418 -5  7.5398223686155035 -10.684052746521418 40  
10.792962274918258 -8.0521582395642568 -5  10.792962274918258 -8.0521582395642568 40  
13.01255962521102 -4.3362428863523297 -5  13.01255962521102 -4.3362428863523297 40  
13.803279524340093 -1.7763568394002505e-15 -5  13.803279524340093 -1.7763568394002505e-15 40  
13.012559625211022 4.3362428863523261 -5  13.012559625211022 4.3362428863523261 40  
10.792962274918262 8.0521582395642533 -5  10.792962274918262 8.0521582395642533 40  
7.5398223686155088 10.684052746521413 -5  7.5398223686155088 10.684052746521413 40  
3.7699111843077597 11.999999999999993 -5  3.7699111843077597 11.999999999999993 40  
1.1546319456101628e-14 11.999999999999991 -5  1.1546319456101628e-14 11.999999999999991 40  

Triangulations 0

TShapes 50
Ve
0.0011
-30 -30 0
0 0

0101100
*
Ve
0.0011
-30 30 0
0 0

0101100
*
Ed
 1e-07 1 1 0
1  1 0 0 1
2  1 1 0 0 1
0

0101000
+50 0 -49 0 *
Ve
0.0011
30 -30 0
0 0

0101100
*
Ed
 1e-07 1 1 0
1  2 0 0 1
2  2 1 0 0 1
0

0101000
+50 0 -47 0 *
Ve
0.0011
30 30 0
0 0

0101100
*
Ed
 1e-07 1 1 0
1  3 0 0 1
2  3 1 0 0 1
0

0101000
+47 0 -45 0 *
Ed
 1e-07 1 1 0
1  4 0 0 1
2  4 1 0 0 1
0

0101000
+49 0 -45 0 *
Wi

0101100
-48 0 +46 0 +44 0 -43 0 *
Ve
0.0011
7.105427357601e-15 12 2.96059473233375e-16
0 0

0101100
*
Ve
0.0011
-4.33177311488436 11.1908772279204 4.44089209850063e-16
0 0

0101100
*
Ed
 2.44930977959666e-06 1 1 0
1  5 0 0 1
2  5 1 0 0 1
2  6 2 0 0 1
0

0101000
+41 0 -40 0 *
Ve
0.0011
5.38044885177663 10.7261712521295 4.44089209850063e-16
0 0

0101100
*
Ed
 1.2030108877436e-06 1 1 0
1  6 0 0 1
2  7 1 0 0 1
2  8 3 0 0 1
0

0101000
+38 0 -41 0 *
Ve
0.0011
9.54836790365329 7.26832476143482 0
0 0

0101100
*
Ed
 3.55806305033202e-07 1 1 0
1  7 0 0 1
2  9 1 0 0 1
2  10 3 0 0 1
0

0101000
+36 0 -38 0 *
Ve
0.0011
11.8429948918774 1.93477161394718 0
0 0

0101100
*
Ed
 6.37704225094134e-07 1 1 0
1  8 0 0 1
2  11 1 0 0 1
2  12 3 0 0 1
0

0101000
+34 0 -36 0 *
Ve
0.0011
11.0221397005194 -4.74470888858542 4.44089209850063e-16
0 0

0101100
*
Ed
 3.00389455207977e-06 1 1 0
1  9 0 0 1
2  13 1 0 0 1
2  14 3 0 0 1
0

0101000
+32 0 -34 0 *
Ve
0.0011
8.83852858733221 -8.11666672987466 -8.88178419700125e-16
0 0

0101100
*
Ed
 3.075781575425e-06 1 1 0
1  10 0 0 1
2  15 1 0 0 1
2  16 3 0 0 1
0

0101000
+30 0 -32 0 *
Ve
0.0011
4.33177311488412 -11.1908772279205 4.44089209850063e-16
0 0

0101100
*
Ed
 3.075781575425e-06 1 1 0
1  11 0 0 1
2  17 1 0 0 1
2  18 3 0 0 1
0

0101000
+28 0 -30 0 *
Ve
0.0011
-4.736951571734e-15 -12 2.96059473233375e-16
0 0

0101100
*
Ed
 2.44930978527732e-06 1 1 0
1  12 0 0 1
2  19 1 0 0 1
2  20 3 0 0 1
0

0101000
+26 0 -28 0 *
Ve
0.0011
-5.38044885177664 -10.7261712521295 4.44089209850063e-16
0 0

0101100
*
Ed
 1.20301089048512e-06 1 1 0
1  13 0 0 1
2  21 1 0 0 1
2  22 2 0 0 1
0

0101000
+24 0 -26 0 *
Ve
0.0011
-9.54836790365315 -7.268324761435 0
0 0

0101100
*
Ed
 3.5580630311558e-07 1 1 0
1  14 0 0 1
2  23 1 0 0 1
2  24 2 0 0 1
0

0101000
+22 0 -24 0 *
Ve
0.0011
-11.8429948918773 -1.93477161394761 0
0 0

0101100
*
Ed
 6.37704166785864e-07 1 1 0
1  15 0 0 1
2  25 1 0 0 1
2  26 2 0 0 1
0

0101000
+20 0 -22 0 *
Ve
0.0011
-11.0221397005195 4.74470888858495 4.44089209850063e-16
0 0

0101100
*
Ed
 3.00389455862999e-06 1 1 0
1  16 0 0 1
2  27 1 0 0 1
2  28 2 0 0 1
0

0101000
+18 0 -20 0 *
Ve
0.0011
-8.83852858733249 8.11666672987436 4.44089209850063e-16
0 0

0101100
*
Ed
 3.07578155148224e-06 1 1 0
1  17 0 0 1
2  29 1 0 0 1
2  30 2 0 0 1
0

0101000
+16 0 -18 0 *
Ed
 3.07578155148224e-06 1 1 0
1  18 0 0 1
2  31 1 0 0 1
2  32 2 0 0 1
0

0101000
+40 0 -16 0 *
Wi

0101100
-39 0 -37 0 -35 0 -33 0 -31 0 -29 0 -27 0 -25 0 -23 0 -21 0 
-19 0 -17 0 -15 0 -14 0 *
Fa
0  1e-07 1 0

0101000
+42 0 +13 0 *
Ve
0.0011
-5.32907051820075e-15 -12 40
0 0

0101100
*
Ed
 1e-07 1 1 0
1  19 0 0 1
2  33 2 0 0 1
2  34 3 0 0 1
4 G1 2 0 3 0
0

0101000
+26 0 -11 0 *
Ve
0.0011
5.32907051820075e-15 12 40
0 0

0101100
*
Ed
 1e-07 1 1 0
1  20 0 0 1
2  35 2 0 0 1
0

0101000
+9 0 -11 0 *
Ed
 1e-07 1 1 0
1  21 0 0 1
2  36 2 0 0 1
2  37 3 0 0 1
4 G1 2 0 3 0
0

0101000
+41 0 -9 0 *
Wi

0101100
+39 0 +14 0 +15 0 +17 0 +19 0 +21 0 +23 0 +10 0 -8 0 -7 0 
*
Fa
0  1e-07 2 0

0101000
+6 0 *
Ed
 1e-07 1 1 0
1  22 0 0 1
2  38 3 0 0 1
0

0101000
+11 0 -9 0 *
Wi

0101100
+25 0 +27 0 +29 0 +31 0 +33 0 +35 0 +37 0 +7 0 -4 0 -10 0 
*
Fa
0  1e-07 3 0

0101000
+3 0 *
Sh

1101000
+12 0 +5 0 +2 0 *

+1 0 