DBRep_DrawableShape

CASCADE Topology V1, (c) Matra-Datavision
Locations 0
Curve2ds 4
6 0 1 0 0  0 1  
6 0 1 0 0  1 0  
6 0 1 1 0  1 1  
6 0 1 0 1  1 1  
Curves 4
6 0 3 15 3.5527136788005e-15 29.9999998616498  15 17.7296767708792 29.9999998616498  15 31.0681023291567 29.9999998616498  15 50 35  
6 0 14 15 3.5527136788005e-15 29.9999998616498  23.0916933073839 3.5527136788005e-15 25.6585932871868  31.4834565699584 3.5527136788005e-15 21.8764695180812  40.1334118171273 3.5527136788005e-15 18.6760971885191  48.9978457261886 3.5527136788005e-15 16.0765241274481  58.0315169939462 3.5527136788005e-15 14.0932124456121  67.1879801727896 3.5527136788005e-15 12.7379043097423  76.4199225125395 3.5527136788005e-15 12.0185202595909  85.6795101285328 3.5527136788005e-15 11.9390914702005  94.9187396491334 3.5527136788005e-15 12.4997268831441  104.089791395633 3.5527136788005e-15 13.6966156312434  113.145380122004 3.5527136788005e-15 15.522064671901  122.039099393675 3.5527136788005e-15 17.9645710376615  130.725755811556 3.5527136788005e-15 21.0089276224435  139.161689484725 3.5527136788005e-15 24.63636096067  
6 0 3 139.161689484725 3.5527136788005e-15 24.63636096067  139.161689484725 17.7296767708792 24.63636096067  139.161689484725 31.0681023291567 24.63636096067  139.161689484725 50 29.6363610990202  
6 0 14 15 50 35  23.0916933073839 50 30.6585934255371  31.4834565699584 50 26.8764696564314  40.1334118171273 50 23.6760973268693  48.9978457261886 50 21.0765242657984  58.0315169939462 50 19.0932125839623  67.1879801727896 50 17.7379044480926  76.4199225125395 50 17.0185203979412  85.6795101285328 50 16.9390916085507  94.9187396491334 50 17.4997270214943  104.089791395633 50 18.6966157695937  113.145380122004 50 20.5220648102512  122.039099393675 50 22.9645711760117  130.725755811556 50 26.0089277607937  139.161689484725 50 29.6363610990203  
Polygon3D 0
PolygonOnTriangulations 0
Surfaces 1
8 0 0 14 3 15 3.5527136788005e-15 29.9999998616498  15 17.7296767708792 29.9999998616498  15 31.0681023291567 29.9999998616498  15 50 35  
23.0916933073839 3.5527136788005e-15 25.6585932871868  23.0916933073839 17.7296767708792 25.6585932871868  23.0916933073839 31.0681023291567 25.6585932871868  23.0916933073839 50 30.6585934255371  
31.4834565699584 3.5527136788005e-15 21.8764695180812  31.4834565699584 17.7296767708792 21.8764695180812  31.4834565699584 31.0681023291567 21.8764695180812  31.4834565699584 50 26.8764696564314  
40.1334118171273 3.5527136788005e-15 18.6760971885191  40.1334118171273 17.7296767708792 18.6760971885191  40.1334118171273 31.0681023291567 18.6760971885191  40.1334118171273 50 23.6760973268693  
48.9978457261886 3.5527136788005e-15 16.0765241274481  48.9978457261886 17.7296767708792 16.0765241274481  48.9978457261886 31.0681023291567 16.0765241274481  48.9978457261886 50 21.0765242657984  
58.0315169939462 3.5527136788005e-15 14.0932124456121  58.0315169939462 17.7296767708792 14.0932124456121  58.0315169939462 31.0681023291567 14.0932124456121  58.0315169939462 50 19.0932125839623  
67.1879801727896 3.5527136788005e-15 12.7379043097423  67.1879801727896 17.7296767708792 12.7379043097423  67.1879801727896 31.0681023291567 12.7379043097423  67.1879801727896 50 17.7379044480926  
76.4199225125395 3.5527136788005e-15 12.0185202595909  76.4199225125395 17.7296767708792 12.0185202595909  76.4199225125395 31.0681023291567 12.0185202595909  76.4199225125395 50 17.0185203979412  
85.6795101285328 3.5527136788005e-15 11.9390914702005  85.6795101285328 17.7296767708792 11.9390914702005  85.6795101285328 31.0681023291567 11.9390914702005  85.6795101285328 50 16.9390916085507  
94.9187396491334 3.5527136788005e-15 12.4997268831441  94.9187396491334 17.7296767708792 12.4997268831441  94.9187396491334 31.0681023291567 12.4997268831441  94.9187396491334 50 17.4997270214943  
104.089791395633 3.5527136788005e-15 13.6966156312434  104.089791395633 17.7296767708792 13.6966156312434  104.089791395633 31.0681023291567 13.6966156312434  104.089791395633 50 18.6966157695937  
113.145380122004 3.5527136788005e-15 15.522064671901  113.145380122004 17.7296767708792 15.522064671901  113.145380122004 31.0681023291567 15.522064671901  113.145380122004 50 20.5220648102512  
122.039099393675 3.5527136788005e-15 17.9645710376615  122.039099393675 17.7296767708792 17.9645710376615  122.039099393675 31.0681023291567 17.9645710376615  122.039099393675 50 22.9645711760117  
130.725755811556 3.5527136788005e-15 21.0089276224435  130.725755811556 17.7296767708792 21.0089276224435  130.725755811556 31.0681023291567 21.0089276224435  130.725755811556 50 26.0089277607937  
139.161689484725 3.5527136788005e-15 24.63636096067  139.161689484725 17.7296767708792 24.63636096067  139.161689484725 31.0681023291567 24.63636096067  139.161689484725 50 29.6363610990203  

Triangulations 0

TShapes 13
Ve
0.0011
15 3.5527136788005e-15 29.9999998616498
0 0

0101101
*
Ve
0.0011
15 50 35
0 0

0101101
*
Ed
 1e-07 1 1 0
1  1 0 0 1
2  1 1 0 0 1
0

0101000
+13 0 -12 0 *
Ve
0.0011
139.161689484725 3.5527136788005e-15 24.63636096067
0 0

0101101
*
Ed
 1e-07 1 1 0
1  2 0 0 1
2  2 1 0 0 1
0

0101000
+13 0 -10 0 *
Ve
0.0011
139.161689484725 50 29.6363610990202
0 0

0101101
*
Ed
 1e-07 1 1 0
1  3 0 0 1
2  3 1 0 0 1
0

0101000
+10 0 -8 0 *
Ed
 1e-07 1 1 0
1  4 0 0 1
2  4 1 0 0 1
0

0101000
+12 0 -8 0 *
Wi

0101100
-11 0 +9 0 +7 0 -6 0 *
Fa
1  1e-07 1 0

0101000
+5 0 *
Sh

0101000
+4 0 *
So

0100000
+3 0 *
Co

1100000
+2 0 *

+1 0 