DBRep_DrawableShape

CASCADE Topology V1, (c) Matra-Datavision
Locations 0
Curve2ds 53
6 0 8 0.20000000000000048 0.99999999999999978  0.16073009183012799 0.99999999999999978  0.12146018366025549 0.98578686002147253  0.084497290124333879 0.95736058006441793  0.052148268276930643 0.91588988987591846  0.026436440360060817 0.86371404818655861  0.0088121467866868648 0.8040964779673303  -1.0928757898653885e-16 0.74075791640302002  -1.0581813203458523e-16 0.67741935483870974  
6 0 1 0 0  1 0  
6 0 1 4.0747970509539761e-16 0.67741935483870963  4.0747970509539761e-16 0.32258064516129026  
6 0 1 0 0  1 0  
6 0 8 4.0747970509539761e-16 0.32258064516129042  4.0747970509539761e-16 0.25924208359698014  0.0088121467866873835 0.19590352203266986  0.026436440360061333 0.13628595181344164  0.05214826827693092 0.084110110124081761  0.084497290124333921 0.042639419935582228  0.12146018366025554 0.014213139978527658  0.16073009183012804 3.7643499428696714e-16  0.20000000000000054 3.8337388819087437e-16  
6 0 1 0 0  1 0  
6 0 1 0.20000000000000029 1.018699262738494e-16  0.79999999999999971 1.018699262738494e-16  
6 0 1 0 0  1 0  
6 0 8 0.80000000000000016 4.0747970509539761e-16  0.83926990816987268 4.0747970509539761e-16  0.87853981633974521 0.014213139978527694  0.91550270987566684 0.042639419935582269  0.9478517317230698 0.084110110124081802  0.97356355963993935 0.13628595181344166  0.99118785321331304 0.19590352203266989  1 0.2592420835969802  1 0.32258064516129048  
6 0 1 0 0  1 0  
6 0 1 0.99999999999999978 0.32258064516129054  0.99999999999999978 0.67741935483870996  
6 0 1 0 0  1 0  
6 0 8 0.99999999999999978 0.67741935483870974  0.99999999999999978 0.74075791640302002  0.99118785321331282 0.8040964779673303  0.9735635596399389 0.86371404818655861  0.94785173172306936 0.91588988987591846  0.9155027098756664 0.95736058006441793  0.87853981633974498 0.98578686002147253  0.83926990816987268 0.99999999999999989  0.80000000000000038 0.99999999999999989  
6 0 1 0 0  1 0  
6 0 1 0.80000000000000016 0.99999999999999978  0.20000000000000051 0.99999999999999978  
6 0 1 0 0  1 0  
6 0 1 0 0  0 0.86105644925839198  
6 0 1 1 0  1 0.86105644925839198  
6 0 8 0 0.86105644925839198  0.064390734009374825 0.86529753260995512  0.12644778082836758 0.86979716094612791  0.18696966123388142 0.87449291251544548  0.24654552245047068 0.87931039990979021  0.30569289371812169 0.88417436026984797  0.36503858011376761 0.88899961716292097  0.42519898619303986 0.8937015649905885  0.48754582939260782 0.89815811435115844  
6 0 8 0.48754582939260782 0.89815811435115844  0.51938745765295724 0.90043415241148095  0.55168731970522977 0.90263813587195185  0.5846599245514198 0.90475727511931447  0.61846981310555504 0.9067686364340426  0.65324856660004804 0.90863928992267384  0.68910843881922346 0.91032614064083117  0.72614975218124711 0.91177656527970852  0.76445919768968618 0.91293097678879709  
6 0 8 0.76445919768968618 0.91293097678879709  0.79269250785122547 0.91378175543509643  0.82168303548869204 0.91447380159279879  0.85124220647861359 0.9149751070022073  0.88117550701439407 0.91525910052881321  0.91127574395541699 0.91530815507121455  0.94131007592169702 0.91511687688893784  0.97100081513408232 0.91469517735015904  1 0.91407112709932836  
6 0 1 1 0  1 0.91407112709932814  
6 0 1 0 0  0 0.91407112709932814  
6 0 7 0 0.91407112709932825  0.087324840024025532 0.9128785674434361  0.17183656393755245 0.91122293207338234  0.25292456273861286 0.9091703008227856  0.33045807851523001 0.90679765192772477  0.40451310060315115 0.90416820597537606  0.47534633733180159 0.90132955643871093  0.54335167162744047 0.89830922987713868  
6 0 7 0.54335167162744047 0.89830922987713868  0.61718366387239443 0.89503012347201771  0.68758220196823949 0.89154138857695642  0.75496654754226156 0.88788371421951218  0.81964450131739175 0.88408728322112495  0.88187885252989762 0.8801747157310863  0.9419193221635106 0.87616245152539352  1 0.8720605710704934  
6 0 1 1 0  1 0.87206057107049351  
6 0 1 0 0  0 0.87206057107049351  
6 0 8 0 0.87206057107049362  0.067042986931659609 0.86463174280783717  0.13185164497352528 0.85628745273128137  0.19499924783504519 0.84722997082321427  0.25688116325404053 0.8376586475300658  0.31787418658871547 0.82776047515532247  0.37837208734787231 0.81770382271867137  0.43882172721914142 0.80763511442029534  0.49993835921618857 0.79768624431565671  
6 0 8 0.49993835921618857 0.79768624431565671  0.55793735636452657 0.78824487835727097  0.61628337087627716 0.7789529648359651  0.67564732938845351 0.76990945510908904  0.736456672770887 0.76127605351010241  0.79903145719870117 0.75326986906661686  0.8636590423381667 0.74615853908186214  0.93059776542322958 0.74023691710865602  1 0.73576441784496815  
6 0 1 1 0  1 0.73576441784496804  
6 0 1 0 0  0 0.73576441784496804  
6 0 6 0 0.73576441784496815  0.18464558642872322 0.71478609111429803  0.36110354159379471 0.69252077880912666  0.53020773254132025 0.6692358581213943  0.69263005810450318 0.64512680322664662  0.84901658146475889 0.6203354664527545  0.99999999999999989 0.59495145200665556  
6 0 1 1 0  1 0.59495145200665522  
6 0 1 0 0  0 0.59495145200665522  
6 0 6 0 0.59495145200665522  0.0059691271718628654 0.59439059970099273  0.011949740753229675 0.59384091628138869  0.017833516337488135 0.59331275776659487  0.023556648553113284 0.59281079296432948  0.029085651788490277 0.59233649168064639  0.03441207655870919 0.59188918615743158  
6 0 6 0.03441207655870919 0.59188918615743158  0.041668784042273532 0.59127977825667588  0.048549550490313433 0.59072047224298907  0.055073747006358378 0.59020615286204992  0.061271139135696998 0.58973141393527762  0.067178153387937922 0.58929107589339746  0.072838683054457121 0.5888801080834819  
6 0 8 0.07283868305445107 0.5888801080834849  0.098333385089423034 0.58702913256051659  0.1248933858329303 0.58527738542384256  0.15280257905264011 0.58363366335108668  0.18227188925559631 0.58212418180763825  0.21344897480857727 0.58079170624728504  0.24639148144428025 0.57969005789193484  0.28109012717688037 0.57888253430534342  0.31725105393923714 0.57841764317660249  
6 0 8 0.31725105393923714 0.57841764317660249  0.35485429879773317 0.57793420935695861  0.39367638817611239 0.5778259056505537  0.43231856689390152 0.57814795906330319  0.47004370631264908 0.57886080343146418  0.50641028924624332 0.57989286569465603  0.54115489219477064 0.58116982822558472  0.57419435971257138 0.58262653940129217  0.60561886572115964 0.58421774460075582  
6 0 8 0.60561886572115964 0.58421774460075582  0.63811066780246917 0.5858629931974273  0.66913141375083096 0.58766491008734989  0.69893805601419523 0.58958782019357103  0.72768102569729387 0.59160639084443312  0.75548396164825748 0.5937012782491804  0.78246462595374566 0.59585824579957725  0.80873481242120016 0.59806845718078872  0.83441705462683124 0.60032764727478249  
6 0 8 0.83441705462683124 0.60032764727478249  0.85641493916446554 0.60226273543563424  0.87795309007244282 0.60423127654633413  0.8990868536415404 0.60622848937788487  0.91985945369229072 0.60825038054476277  0.94030666047446165 0.6102936027598862  0.96046003574386662 0.61235536077556674  0.98034875401650046 0.61443336501043622  1 0.61652583286235541  
6 0 1 1 0  1 0.61652583286235552  
6 0 1 0 0  0 0.61652583286235552  
6 0 7 0 0.61652583286235541  0.055532999976448193 0.62039655503620972  0.11298234057085355 0.62419510620316598  0.17257669020142488 0.6279128263847723  0.23456287479519991 0.63153537001928861  0.29920365627545464 0.63504286587217518  0.36681127244111894 0.63840858396439248  0.437816738238198 0.64159610951851664  
6 0 7 0.437816738238198 0.64159610951851664  0.50718047615366835 0.64470993582263525  0.57967587852907543 0.64764866643413233  0.65580714715440758 0.65038474940609992  0.73592086505819143 0.65286557241777032  0.82015096030697177 0.65501883302433217  0.90840611749232725 0.65675285961993679  1 0.65798736526481105  
6 0 1 1 0  1 0.65798736526481116  
6 0 1 0 0  0 0.65798736526481116  
6 0 8 0 0.65798736526481105  0.064519071224100805 0.65932163570067814  0.12783569095850381 0.66106783271621383  0.18958883490946227 0.66317282781693965  0.24967271868750032 0.66558230453316558  0.30800863602626738 0.66825159185525329  0.36459124427387846 0.67113974243369645  0.41946785989452867 0.67421260577071251  0.47278418112837184 0.67744577783133142  
6 0 8 0.47278418112837184 0.67744577783133142  0.53535159762531059 0.68123994851380898  0.59574091454489952 0.68525310051068689  0.65431479526163516 0.68945326628745374  0.71130671511112209 0.6938122778356699  0.76693336363085207 0.69830278923675138  0.8214244906157534 0.70289896591375156  0.87503549006849468 0.70757864345487687  0.92810801612452365 0.71232475889249103  
6 0 7 0.92810801612451754 0.71232475889248825  0.93253184457875105 0.7127203684871366  0.9371104502617823 0.71313206835183973  0.94186496368474615 0.71356200868717434  0.94681566274697737 0.71401233719017809  0.95198197805353402 0.71448519533981636  0.9573837228726898 0.7149828375848496  0.96304354773339718 0.7155078734340975  
6 0 7 0.96304354773339718 0.7155078734340975  0.96781666792063392 0.71595065378026446  0.97277366633373608 0.71641294734522487  0.97792211911366722 0.7168957630594478  0.9832552835917634 0.71739881028707508  0.9887492138471663 0.71792015918587682  0.99435777956093474 0.71845565472752948  1 0.71899751716810145  
6 0 1 1 0  1 0.71899751716810145  
6 0 1 0 0  0 0.71899751716810145  
6 0 6 0 0.71899751716810156  0.15097058207536504 0.74460388923715137  0.30734804212111155 0.76961326937093599  0.46976589716013051 0.79393527383546947  0.63887125308979298 0.81742676758964106  0.81533726523750572 0.83989047265081263  1 0.86105644925839175  
Curves 37
6 0 6 2.1999999999999993 18.999999999999996 0.75  2.1999999999999993 18.214601836602547 0.75  1.9532598899727656 17.429203673205098 0.75  1.4595617544691837 16.740438245530818 0.75  0.77079632679489707 16.246740110027226 0.75  -0.014601836602550988 15.999999999999989 0.75  -0.79999999999999905 15.999999999999989 0.75  
6 0 1 -0.7999999999999996 16 0.75  -4.1000000000000014 16 0.75  
6 0 6 -4.0999999999999996 16 0.75  -4.8853981633974479 16 0.75  -5.6707963267948962 16.246740110027236 0.75  -6.3595617544691807 16.740438245530814 0.75  -6.8532598899727644 17.429203673205102 0.75  -7.0999999999999979 18.214601836602551 0.75  -7.0999999999999979 19 0.75  
6 0 1 -7.1000000000000005 19 0.75  -7.1000000000000005 27.999999999999996 0.75  
6 0 6 -7.0999999999999988 27.999999999999996 0.75  -7.0999999999999988 28.785398163397446 0.75  -6.8532598899727653 29.570796326794895 0.75  -6.3595617544691763 30.2595617544692 0.75  -5.6707963267948962 30.75325988997276 0.75  -4.8853981633974479 30.999999999999996 0.75  -4.0999999999999996 30.999999999999996 0.75  
6 0 1 -4.0999999999999988 31 0.75  -0.79999999999999716 31 0.75  
6 0 6 -0.79999999999999882 30.999999999999996 0.75  -0.014601836602550544 30.999999999999996 0.75  0.77079632679489773 30.75325988997276 0.75  1.4595617544691841 30.259561754469175 0.75  1.9532598899727658 29.570796326794895 0.75  2.2000000000000006 28.785398163397449 0.75  2.2000000000000006 28.000000000000004 0.75  
6 0 1 2.1999999999999997 28 0.75  2.1999999999999997 19 0.75  
6 0 1 2.2000000000000002 19 0.75  2.4924335284443209 19 6.3299641283207642  
6 0 8 2.4924335284443186 19 6.3299641283207633  2.4938738927433057 18.666987704787786 6.3574479163898534  2.4570022559264006 18.345635440890913 6.3866071715446724  2.3864566394411812 18.037094465201815 6.4170373777580236  2.2849085775722959 17.742035685363881 6.4482564771240245  2.1541942281799904 17.460991619580341 6.4797767384890239  1.9945022950676163 17.194618423870761 6.5110461870791854  1.805483963344467 16.943559939645006 6.541516547337455  1.5822194653440596 16.709211576916626 6.5703966348038332  
6 0 8 1.5822194653440596 16.709211576916626 6.5703966348038332  1.4681943634426418 16.589525750554365 6.5851462028980388  1.3456378105922611 16.474621062656503 6.5994288305462563  1.2138642867933189 16.364487929578587 6.6131616363261267  1.0721912657204831 16.259585136188957 6.6261960012565098  0.92002485931324296 16.160749334612582 6.6383185274533547  0.75690175608941901 16.069151570503806 6.6492499437446133  0.58254492196402707 15.98627209016362 6.6586492316342252  0.39699053235590642 15.913864681816959 6.6661302450051609  
6 0 8 0.39699053235590642 15.913864681816959 6.6661302450051609  0.26024058559702906 15.860501841642353 6.671643605170547  0.11707710858262005 15.812697290797178 6.6761283201255868  -0.031426729849058976 15.771634382212026 6.6793769645138141  -0.18396960048374766 15.7382757648029 6.6812173475601302  -0.33901295941893023 15.713302062838428 6.681535239130616  -0.49477155924725524 15.697035660404469 6.6802956857929079  -0.64920352573563189 15.689349590965964 6.6775629168770703  -0.8000000000000026 15.689561532026202 6.6735188405370067  
6 0 1 -0.79999999999999893 15.999999999999996 0.75  -0.80000000000000004 15.689561532026197 6.6735188405370058  
6 0 7 -0.79999999999999716 15.6895615320262 6.6735188405370049  -1.0881719720792815 15.689966551265478 6.6657906130712075  -1.3670606609939493 15.690528841105483 6.6550614837760973  -1.6346510570373232 15.691225959395094 6.6417596744036063  -1.8905116591003828 15.692031762648543 6.6263840323827417  -2.1348932319903371 15.692924779776854 6.6093442504914481  -2.368642913194944 15.693888847000052 6.5909487520300969  -2.5930605163705525 15.694914615698741 6.5713759192803956  
6 0 7 -2.5930605163705525 15.694914615698741 6.5713759192803956  -2.8367060907789008 15.696028271669865 6.5501260974722202  -3.069021266495199 15.697213122042958 6.5275178055484702  -3.2913896068894557 15.698455347937893 6.5038147234506578  -3.5048268543473857 15.699744698610905 6.4792124470204788  -3.7102002133486716 15.701073491766513 6.453857563188123  -3.9083337631395847 15.702436144098714 6.4278566077799182  -4.1000000000000005 15.703829232061434 6.4012749059452521  
6 0 1 -4.0999999999999996 15.999999999999998 0.75  -4.0999999999999988 15.70382923206143 6.4012749059452547  
6 0 8 -4.0999999999999943 15.703829232061434 6.4012749059452538  -4.447122636322745 15.706352223977849 6.3531333523261146  -4.7821561273277187 15.750857969804441 6.299059267701745  -5.101960141937905 15.832480960277927 6.2403634363388516  -5.4043163300495429 15.947319825148643 6.1783377228296654  -5.6876781504435252 16.092073258906218 6.114193906435327  -5.9508550626660792 16.264344331659686 6.0490230806478111  -6.1929331591057721 16.462540502488171 5.9837741284196788  -6.4126053320913634 16.686946781391946 5.9193017719916892  
6 0 8 -6.4126053320913634 16.686946781391946 5.9193017719916892  -6.6210717563402675 16.899905818971728 5.8581182300583858  -6.808442997643227 17.13553431657844 5.7979031951707203  -6.9741761028585962 17.393982719631673 5.7392979087071527  -7.1155987871686142 17.675366511813571 5.6833502745314561  -7.2289167416459525 17.979080295085367 5.6314672394089111  -7.309363286285965 18.303531392445009 5.5853831920113697  -7.3514005832501104 18.645708385633789 5.547008892370008  -7.3498816250659269 19.000000000000004 5.518025443634663  
6 0 1 -7.0999999999999988 19 0.75  -7.3498816250659278 19 5.518025443634663  
6 0 6 -7.3498816250659305 19 5.518025443634663  -7.342756928291414 20.66181027785851 5.3820781306215011  -7.33519514317857 22.249931874344131 5.2377906752801877  -7.3272870768466634 23.771869592871916 5.0868957806652864  -7.319099116584117 25.233670522940507 4.930660191702116  -7.310679438531789 26.64114923318283 4.7700031639188865  -7.30205847423038 27.999999999999996 4.6055053657036815  
6 0 1 -7.0999999999999996 28 0.75000000000000022  -7.3020584742303791 28 4.6055053657036797  
6 0 6 -7.3020584742303809 28 4.6055053657036797  -7.3018679965691051 28.030023406551354 4.601870835412921  -7.301344113892009 28.060100803336862 4.5983086836330171  -7.3004878225038494 28.089682628754982 4.5948860211941556  -7.2993394486551901 28.118443741431072 4.5916331036964317  -7.2979465734023874 28.146214054060266 4.5885594560264709  -7.2963496780060906 28.172950297201268 4.5856607508648199  
6 0 6 -7.2963496780060906 28.172950297201268 4.5856607508648199  -7.2941740718025505 28.209375686473354 4.5817115623665963  -7.2916197461234775 28.243882072499673 4.5780870526195123  -7.2887769562729599 28.276564599186241 4.5747540728844278  -7.2857153167158808 28.307573814349787 4.57167758912545  -7.282480772416509 28.337094338347264 4.5688240358187642  -7.2790962209027166 28.365347433988045 4.5661608124735364  
6 0 8 -7.2790962209027201 28.365347433988013 4.566160812473556  -7.2638523943618019 28.492597761671615 4.5541658067692738  -7.2422110988618993 28.624445848548262 4.5428138376934468  -7.2131945496687084 28.761897347498955 4.5321619109692151  -7.1755073137855279 28.905452260458425 4.5223799125043822  -7.1275790914803521 29.055032178068348 4.5137449782500125  -7.067819406426203 29.209874300731961 4.5066058896221159  -6.9946357253917189 29.368413900506351 4.5013728382352625  -6.9077002625713817 29.527804235636125 4.4983601718483097  
6 0 8 -6.9077002625713817 29.527804235636125 4.4983601718483097  -6.8172972837759671 29.693552028532903 4.4952273419689757  -6.712895392904592 29.858623367980208 4.4945254939110155  -6.5970673484669788 30.015311427221803 4.4966125190904895  -6.4732701365003837 30.159883006168045 4.5012320141385072  -6.3449192876115657 30.290813082815035 4.5079201591628664  -6.2148940618601385 30.407916457653442 4.5161953484630928  -6.0852671207357174 30.511922874069455 4.5256353754355088  -5.9570523054812234 30.604041997740154 4.5359469734050171  
6 0 8 -5.9570523054812234 30.604041997740154 4.5359469734050171  -5.8244828261073192 30.699289838180164 4.5466087925685628  -5.692382710106437 30.78257857413978 4.5582858801934636  -5.5610814797183759 30.855492397895947 4.5707470485918309  -5.430901723703097 30.919083332671363 4.5838281326856665  -5.3020679967904423 30.974234668133661 4.5974037775593839  -5.1746798086283343 31.021726337972311 4.6113817247282816  -5.0487117373899295 31.06219390884128 4.6257047116053762  -4.9240037032002562 31.096172849955554 4.6403450986489894  
6 0 8 -4.9240037032002562 31.096172849955554 4.6403450986489894  -4.8171862020235752 31.125277194403292 4.652885185343643  -4.7114305434262738 31.149583157510655 4.6656420595210406  -4.6067430391234279 31.169413916640053 4.6785847370496478  -4.503142332406485 31.185031335356697 4.6916873393148837  -4.4006505746579476 31.196656077887329 4.7049281746589502  -4.2992875362509837 31.204480591428386 4.7182891288434083  -4.1990676518339738 31.208674956303586 4.7317553645345267  -4.1000000000000005 31.209385603970905 4.7453153298114001  
6 0 1 -4.0999999999999988 31 0.75  -4.0999999999999996 31.209385603970908 4.7453153298114019  
6 0 7 -4.0999999999999979 31.209385603970901 4.7453153298114001  -3.9167411000777186 31.210700185545555 4.7703990405244516  -3.727158276116179 31.211990256274003 4.7950150564307998  -3.5304969223352978 31.213252875038904 4.8191072576684322  -3.32594251317584 31.214483169774976 4.84258267969365  -3.1126279342909955 31.215674391778073 4.865312549560139  -2.889522800944305 31.216817462964986 4.8871236471214985  -2.655204763813944 31.217900016084009 4.9077799911572892  
6 0 7 -2.655204763813944 31.217900016084009 4.9077799911572892  -2.4263044286928919 31.21895753933218 4.9279587368060422  -2.1870696008540742 31.219955596268637 4.9470027976327948  -1.9358364143904012 31.220884829652015 4.9647336268355255  -1.671461145308005 31.221727371191946 4.9808102771245144  -1.3935018309869789 31.222458665403146 4.9947642019268992  -1.1022598122753173 31.223047578611094 5.0060013353452204  -0.79999999999999716 31.223466843622031 5.0140013883272756  
6 0 1 -0.79999999999999827 31 0.75  -0.79999999999999927 31.223466843622035 5.0140013883272765  
6 0 8 -0.80000000000000127 31.223466843622035 5.0140013883272765  -0.47331349747633517 31.223919990929385 5.0226479540385371  -0.15254863938893681 31.186748273650984 5.0339639562774749  0.15530265574003999 31.114255496193767 5.04760510275805  0.44543771161621926 31.010789667353155 5.0632194026754149  0.71462220276637278 30.881083188695776 5.0805173713722667  0.96109432464950639 30.729944204714851 5.0992336548850892  1.1842469799755211 30.561619552693031 5.1191469453628047  1.3842648078828721 30.379488879153779 5.1400990956364367  
6 0 8 1.3842648078828721 30.379488879153779 5.1400990956364367  1.6189884057583468 30.165756096311945 5.1646867243838734  1.8217431671288198 29.93311181089188 5.1906934330071657  1.9933425816361479 29.686600099336623 5.2179120600641538  2.1346817627524648 29.430373503005178 5.2461600664462189  2.2469304474241691 29.167833593903886 5.2752602404910469  2.3314016319743041 28.901646627697744 5.3050451645888694  2.3892679060174857 28.633735276506172 5.3353712051569095  2.421297546141544 28.365347433988013 5.3661277878566462  
6 0 7 2.4212975461415405 28.365347433988056 5.3661277878566258  2.4239673575089147 28.342976126972275 5.3686914842889077  2.4265500910037558 28.319799461341461 5.3713594516198055  2.4290356323671332 28.295709482926735 5.3741456239439893  2.4314066829305392 28.270602310869617 5.3770639191322829  2.4336388286871595 28.244378348959025 5.3801282147601004  2.4356998462677772 28.216936383915943 5.3833531204888869  2.4375482458213114 28.188161570625645 5.3867555469005453  
6 0 7 2.4375482458213114 28.188161570625645 5.3867555469005453  2.4391070631770049 28.163894805207974 5.389624927241945  2.4405147617601219 28.138678432389966 5.3926207604552614  2.4417443838026482 28.112474116514111 5.3957495847829611  2.4427605963859707 28.085316856730099 5.3990095167972019  2.4435246627639673 28.057330244443239 5.4023880504068833  2.4440031920365968 28.028752514824678 5.405858259492331  2.4441872203259898 28.000000000000007 5.4093697284366495  
6 0 1 2.2000000000000002 28.000000000000004 0.75  2.444187220325992 28 5.4093697284366486  
6 0 6 2.4441872203259929 27.999999999999996 5.4093697284366495  2.4528837021202583 26.641264761321711 5.5753084862553663  2.4613774324477258 25.233867620910011 5.7373785156224901  2.4696377150233086 23.772106925558802 5.8949940965264345  2.4776159380688201 22.250158722191866 6.0472276609830393  2.4852451016836206 20.661964612862448 6.1928007747300793  2.4924335284443231 19 6.3299641283207633  
Polygon3D 0
PolygonOnTriangulations 0
Surfaces 9
8 0 0 1 1 -7.1000000000000014 15.999999999999993 0.75  2.2000000000000011 15.999999999999993 0.75  
-7.1000000000000014 31 0.75  2.2000000000000011 31 0.75  

8 0 0 8 1 2.2000000000000002 19.000000000000004 0.75  2.5396217851874709 19 7.2303697052924445  
2.2000000000000002 18.410951377451916 0.75  2.5396217851874709 18.344266795867913 7.2303697052924445  
2.0678177981996964 17.821902754903828 0.75  2.3928987827611405 17.688183735996461 7.2303697052924445  
1.8034533945990887 17.267459351865003 0.75  2.0980558644239444 17.071333104251885 7.2303697052924445  
1.4177759758460433 16.782224024153955 0.75  1.6683953055656193 16.531604694434385 7.2303697052924445  
0.93254064813499671 16.396546605400907 0.75  1.1286668957481152 16.101944135576062 7.2303697052924445  
0.3780972450961736 16.132182201800298 0.75  0.51181626400353653 15.807101217238861 7.2303697052924445  
-0.2109513774519125 15.999999999999993 0.75  -0.1442667958679158 15.660378214812523 7.2303697052924445  
-0.7999999999999986 15.999999999999993 0.75  -0.80000000000000326 15.660378214812523 7.2303697052924445  

8 0 0 1 1 -0.79999999999999938 16 0.75  -0.79999999999999716 15.660378214812525 7.2303697052924445  
-4.1000000000000005 16 0.75  -4.1000000000000005 15.660378214812525 7.2303697052924445  

8 0 0 8 1 -4.0999999999999996 16 0.75  -4.0999999999999943 15.660378214812528 7.2303697052924445  
-4.6890486225480856 16 0.75  -4.7557332041320812 15.660378214812528 7.2303697052924445  
-5.2780972450961716 16.132182201800305 0.75  -5.4118162640035345 15.807101217238857 7.2303697052924445  
-5.8325406481349944 16.396546605400914 0.75  -6.0286668957481142 16.101944135576055 7.2303697052924445  
-6.3177759758460414 16.782224024153958 0.75  -6.5683953055656179 16.531604694434382 7.2303697052924445  
-6.7034533945990873 17.267459351865003 0.75  -6.9980558644239421 17.071333104251888 7.2303697052924445  
-6.9678177981996949 17.821902754903828 0.75  -7.2928987827611387 17.688183735996464 7.2303697052924445  
-7.0999999999999988 18.410951377451916 0.75  -7.4396217851874695 18.344266795867913 7.2303697052924445  
-7.0999999999999988 19.000000000000004 0.75  -7.4396217851874695 19 7.2303697052924445  

8 0 0 1 1 -7.1000000000000005 19 0.75  -7.4396217851874731 19 7.2303697052924445  
-7.1000000000000005 27.999999999999996 0.75  -7.4396217851874731 27.999999999999996 7.2303697052924445  

8 0 0 8 1 -7.0999999999999979 28 0.75  -7.4396217851874766 28 7.2303697052924445  
-7.0999999999999979 28.589048622548088 0.75  -7.4396217851874766 28.655733204132087 7.2303697052924445  
-6.967817798199694 29.178097245096176 0.75  -7.2928987827611449 29.311816264003536 7.2303697052924445  
-6.7034533945990864 29.732540648135 0.75  -6.9980558644239474 29.928666895748115 7.2303697052924445  
-6.3177759758460406 30.217775975846045 0.75  -6.5683953055656223 30.468395305565622 7.2303697052924445  
-5.8325406481349935 30.603453394599089 0.75  -6.0286668957481186 30.898055864423949 7.2303697052924445  
-5.2780972450961707 30.867817798199695 0.75  -5.4118162640035408 31.192898782761144 7.2303697052924445  
-4.6890486225480847 31 0.75  -4.7557332041320892 31.339621785187475 7.2303697052924445  
-4.0999999999999988 31 0.75  -4.1000000000000014 31.339621785187475 7.2303697052924445  

8 0 0 1 1 -4.0999999999999988 31 0.75  -4.0999999999999979 31.339621785187472 7.2303697052924445  
-0.7999999999999976 31 0.75  -0.79999999999999716 31.339621785187472 7.2303697052924445  

8 0 0 8 1 -0.79999999999999893 31 0.75  -0.80000000000000249 31.339621785187472 7.2303697052924445  
-0.21095137745191272 31 0.75  -0.14426679586791513 31.339621785187472 7.2303697052924445  
0.37809724509617348 30.867817798199695 0.75  0.5118162640035363 31.192898782761144 7.2303697052924445  
0.93254064813499671 30.603453394599086 0.75  1.128666895748115 30.898055864423949 7.2303697052924445  
1.4177759758460433 30.217775975846042 0.75  1.66839530556562 30.468395305565622 7.2303697052924445  
1.8034533945990887 29.732540648134997 0.75  2.0980558644239458 29.928666895748115 7.2303697052924445  
2.0678177981996964 29.178097245096176 0.75  2.3928987827611414 29.311816264003536 7.2303697052924445  
2.2000000000000006 28.589048622548091 0.75  2.5396217851874709 28.655733204132087 7.2303697052924445  
2.2000000000000006 28.000000000000007 0.75  2.5396217851874709 28 7.2303697052924445  

8 0 0 1 1 2.2000000000000002 28 0.75  2.5396217851874745 28 7.2303697052924445  
2.2000000000000002 19 0.75  2.5396217851874745 19 7.2303697052924445  

Triangulations 0

TShapes 86
Ve
0.0011
2.2 19 0.75
0 0

0101100
*
Ve
0.0011
-0.799999999999999 16 0.75
0 0

0101100
*
Ed
 2.7715962266371e-05 1 1 0
1  1 0 0 1
2  1 1 0 0 1
2  2 2 0 0 1
0

0101000
+86 0 -85 0 *
Ve
0.0011
-4.1 16 0.75
0 0

0101100
*
Ed
 1e-07 1 1 0
1  2 0 0 1
2  3 1 0 0 1
2  4 3 0 0 1
0

0101000
+85 0 -83 0 *
Ve
0.0011
-7.1 19 0.75
0 0

0101100
*
Ed
 2.77159622612562e-05 1 1 0
1  3 0 0 1
2  5 1 0 0 1
2  6 4 0 0 1
0

0101000
+83 0 -81 0 *
Ve
0.0011
-7.1 28 0.75
0 0

0101100
*
Ed
 1e-07 1 1 0
1  4 0 0 1
2  7 1 0 0 1
2  8 5 0 0 1
0

0101000
+81 0 -79 0 *
Ve
0.0011
-4.1 31 0.75
0 0

0101100
*
Ed
 2.77159622619592e-05 1 1 0
1  5 0 0 1
2  9 1 0 0 1
2  10 6 0 0 1
0

0101000
+79 0 -77 0 *
Ve
0.0011
-0.799999999999998 31 0.75
0 0

0101100
*
Ed
 1e-07 1 1 0
1  6 0 0 1
2  11 1 0 0 1
2  12 7 0 0 1
0

0101000
+77 0 -75 0 *
Ve
0.0011
2.2 28 0.75
0 0

0101100
*
Ed
 2.77159622642338e-05 1 1 0
1  7 0 0 1
2  13 1 0 0 1
2  14 8 0 0 1
0

0101000
+75 0 -73 0 *
Ed
 1e-07 1 1 0
1  8 0 0 1
2  15 1 0 0 1
2  16 9 0 0 1
0

0101000
+73 0 -86 0 *
Wi

0101100
+84 0 +82 0 +80 0 +78 0 +76 0 +74 0 +72 0 +71 0 *
Fa
0  1e-07 1 0

0101000
+70 0 *
Ve
0.0011
2.49243352844432 19 6.32996412832076
0 0

0101100
*
Ed
 1e-07 1 1 0
1  9 0 0 1
2  17 2 0 0 1
2  18 9 0 0 1
4 G1 2 0 9 0
0

0101000
+86 0 -68 0 *
Ve
0.0011
1.58221946534406 16.7092115769166 6.57039663480383
0 0

0101100
*
Ed
 1.87270236386764e-07 1 1 0
1  10 0 0 1
2  19 2 0 0 1
0

0101000
+68 0 -66 0 *
Ve
0.0011
0.396990532355907 15.913864681817 6.66613024500516
0 0

0101100
*
Ed
 1e-07 1 1 0
1  11 0 0 1
2  20 2 0 0 1
0

0101000
+66 0 -64 0 *
Ve
0.0011
-0.8 15.6895615320262 6.67351884053701
0 0

0101100
*
Ed
 1e-07 1 1 0
1  12 0 0 1
2  21 2 0 0 1
0

0101000
+64 0 -62 0 *
Ed
 1e-07 1 1 0
1  13 0 0 1
2  22 2 0 0 1
2  23 3 0 0 1
4 G1 2 0 3 0
0

0101000
+85 0 -62 0 *
Wi

0101100
-84 0 +67 0 +65 0 +63 0 +61 0 -60 0 *
Fa
0  1e-07 2 0

0101000
-59 0 *
Ve
0.0011
-2.59306051637055 15.6949146156987 6.5713759192804
0 0

0101100
*
Ed
 1e-07 1 1 0
1  14 0 0 1
2  24 3 0 0 1
0

0101000
+62 0 -57 0 *
Ve
0.0011
-4.1 15.7038292320614 6.40127490594525
0 0

0101100
*
Ed
 1e-07 1 1 0
1  15 0 0 1
2  25 3 0 0 1
0

0101000
+57 0 -55 0 *
Ed
 1e-07 1 1 0
1  16 0 0 1
2  26 3 0 0 1
2  27 4 0 0 1
4 G1 3 0 4 0
0

0101000
+83 0 -55 0 *
Wi

0101100
-82 0 +60 0 +56 0 +54 0 -53 0 *
Fa
0  1e-07 3 0

0101000
-52 0 *
Ve
0.0011
-6.41260533209136 16.6869467813919 5.91930177199169
0 0

0101100
*
Ed
 1e-07 1 1 0
1  17 0 0 1
2  28 4 0 0 1
0

0101000
+55 0 -50 0 *
Ve
0.0011
-7.34988162506593 19 5.51802544363466
0 0

0101100
*
Ed
 3.65763771127114e-07 1 1 0
1  18 0 0 1
2  29 4 0 0 1
0

0101000
+50 0 -48 0 *
Ed
 1e-07 1 1 0
1  19 0 0 1
2  30 4 0 0 1
2  31 5 0 0 1
4 G1 4 0 5 0
0

0101000
+81 0 -48 0 *
Wi

0101100
-80 0 +53 0 +49 0 +47 0 -46 0 *
Fa
0  1e-07 4 0

0101000
-45 0 *
Ve
0.0011
-7.30205847423038 28 4.60550536570368
0 0

0101100
*
Ed
 1e-07 1 1 0
1  20 0 0 1
2  32 5 0 0 1
0

0101000
+48 0 -43 0 *
Ed
 1e-07 1 1 0
1  21 0 0 1
2  33 5 0 0 1
2  34 6 0 0 1
4 G1 5 0 6 0
0

0101000
+79 0 -43 0 *
Wi

0101100
-78 0 +46 0 +42 0 -41 0 *
Fa
0  1e-07 5 0

0101000
-40 0 *
Ve
0.0011
-7.29634967800609 28.1729502972013 4.58566075086482
0 0

0101100
*
Ed
 1e-07 1 1 0
1  22 0 0 1
2  35 6 0 0 1
0

0101000
+43 0 -38 0 *
Ve
0.0011
-7.27909622090272 28.365347433988 4.56616081247355
0 0

0101100
*
Ed
 1e-07 1 1 0
1  23 0 0 1
2  36 6 0 0 1
0

0101000
+38 0 -36 0 *
Ve
0.0011
-6.90770026257138 29.5278042356361 4.49836017184831
0 0

0101100
*
Ed
 1e-07 1 1 0
1  24 0 0 1
2  37 6 0 0 1
0

0101000
+36 0 -34 0 *
Ve
0.0011
-5.95705230548122 30.6040419977402 4.53594697340502
0 0

0101100
*
Ed
 1e-07 1 1 0
1  25 0 0 1
2  38 6 0 0 1
0

0101000
+34 0 -32 0 *
Ve
0.0011
-4.92400370320026 31.0961728499556 4.64034509864899
0 0

0101100
*
Ed
 1e-07 1 1 0
1  26 0 0 1
2  39 6 0 0 1
0

0101000
+32 0 -30 0 *
Ve
0.0011
-4.1 31.2093856039709 4.7453153298114
0 0

0101100
*
Ed
 1e-07 1 1 0
1  27 0 0 1
2  40 6 0 0 1
0

0101000
+30 0 -28 0 *
Ed
 1e-07 1 1 0
1  28 0 0 1
2  41 6 0 0 1
2  42 7 0 0 1
4 G1 6 0 7 0
0

0101000
+77 0 -28 0 *
Wi

0101100
-76 0 +41 0 +37 0 +35 0 +33 0 +31 0 +29 0 +27 0 -26 0 *
Fa
0  1e-07 6 0

0101000
-25 0 *
Ve
0.0011
-2.65520476381394 31.217900016084 4.90777999115729
0 0

0101100
*
Ed
 1e-07 1 1 0
1  29 0 0 1
2  43 7 0 0 1
0

0101000
+28 0 -23 0 *
Ve
0.0011
-0.799999999999999 31.223466843622 5.01400138832728
0 0

0101100
*
Ed
 1e-07 1 1 0
1  30 0 0 1
2  44 7 0 0 1
0

0101000
+23 0 -21 0 *
Ed
 1e-07 1 1 0
1  31 0 0 1
2  45 7 0 0 1
2  46 8 0 0 1
4 G1 7 0 8 0
0

0101000
+75 0 -21 0 *
Wi

0101100
-74 0 +26 0 +22 0 +20 0 -19 0 *
Fa
0  1e-07 7 0

0101000
-18 0 *
Ve
0.0011
1.38426480788287 30.3794888791538 5.14009909563644
0 0

0101100
*
Ed
 1e-07 1 1 0
1  32 0 0 1
2  47 8 0 0 1
0

0101000
+21 0 -16 0 *
Ve
0.0011
2.42129754614154 28.365347433988 5.36612778785663
0 0

0101100
*
Ed
 1.53654382024978e-07 1 1 0
1  33 0 0 1
2  48 8 0 0 1
0

0101000
+16 0 -14 0 *
Ve
0.0011
2.43754824582131 28.1881615706256 5.38675554690055
0 0

0101100
*
Ed
 1e-07 1 1 0
1  34 0 0 1
2  49 8 0 0 1
0

0101000
+14 0 -12 0 *
Ve
0.0011
2.44418722032599 28 5.40936972843665
0 0

0101100
*
Ed
 1e-07 1 1 0
1  35 0 0 1
2  50 8 0 0 1
0

0101000
+12 0 -10 0 *
Ed
 1e-07 1 1 0
1  36 0 0 1
2  51 8 0 0 1
2  52 9 0 0 1
4 G1 8 0 9 0
0

0101000
+73 0 -10 0 *
Wi

0101100
-72 0 +19 0 +15 0 +13 0 +11 0 +9 0 -8 0 *
Fa
0  1e-07 8 0

0101000
-7 0 *
Ed
 1e-07 1 1 0
1  37 0 0 1
2  53 9 0 0 1
0

0101000
+10 0 -68 0 *
Wi

0101100
-71 0 +8 0 +5 0 -67 0 *
Fa
0  1e-07 9 0

0101000
-4 0 *
Sh

0101000
+69 0 -58 0 -51 0 -44 0 -39 0 -24 0 -17 0 -6 0 -3 0 *
So

1100000
+2 0 *

+1 0 