DBRep_DrawableShape

CASCADE Topology V1, (c) Matra-Datavision
Locations 11
1
              1               0               0               0 
              0               1               0               0 
              0               0               1               0 
2  1 -1 0
1
              1               0               0              -0 
              0               1               0               4 
              0               0               1               0 
2  3 1 1 -1 0
2  3 -1 0
1
              1               0               0              -4 
              0               1               0              -0 
              0               0               1               0 
2  6 -1 0
1
              1               0               0            -144 
              0               1               0              -0 
              0               0               1               0 
2  8 -1 0
1
              1               0               0               0 
              0               1               0               0 
              0               0               1 1.20000004768372 
2  1 1 10 1 0
Curve2ds 52
1 10.5 0 0 -1 
1 36 0 0 1 
1 0 0 1 0 
1 0 -4 1 0 
1 0 0 1 0 
1 0 -144 1 0 
1 0 0 1 0 
1 0 36 1 0 
1 0 0 0 -1 
1 36 0 0 1 
1 0 -29.5 1 0 
1 0 36 1 0 
1 14.873434932024239 0 0 1 
1 1.7763568394002505e-15 -1.5 -1 0 
1 1.5707963267948966 0 0 -1 
1 24.299999952316284 -2.625 0 -1 
1 2.625 16.5 -1 0 
1 3.8734349320242387 -1.8500000238418579 0 -1 
1 1.8500000238418579 -1.5 -1 0 
2 9.3734349320242387 -3.7000000476837158 0 1 1 -0 5.5
1 0 -1.5 1 0 
1 14.14999997615814 -9.2999999523162842 -1 0 
1 34.5 14.149999976158144 -6.123233995736766e-17 1 
1 14.149999976158142 -5.3000001907348633 -1 -1.1248198369963932e-32 
1 1.5 -14.149999976158142 6.123233995736766e-17 -1 
1 4.7123889803846897 0 0 -1 
1 -0.60000002384185969 -5.3000001907348704 -1 0 
1 34.799999952316284 -0.60000002384185969 -0 1 
1 -0.75 -5.3000001907348633 -1 1.8369701987210297e-16 
1 0.75 -1.2000000476837154 -1 1.2246467991473532e-16 
1 0 0 0 1 
1 0 0 1 0 
1 0 0 1 0 
1 0 0 1 0 
1 10.5 0 0 1 
1 0 29.5 1 0 
1 10.5 0 0 -1 
1 0 0 0 1 
1 0 0 0 -1 
1 0 0 0 1 
1 0 0 0 1 
1 0 29.5 1 0 
1 0 -29.5 1 0 
1 0 0 1 0 
1 -0.6000000238418588 -9.2999999523162842 -1 0 
1 0.60000002384185702 28.299999952316284 -1 -6.123233995736766e-17 
1 -0.60000002384185969 -9.2999999523162842 -1 0 
1 1.2000000476837158 0.60000002384185969 0 -1 
1 17.25 -9.2999999523162842 -1 0 
1 17.25 1.2000000476837176 1 -1.2246467991473532e-16 
1 2.7999999523162806 -2.625 0 1 
1 2.625 -16.799999952316284 1 0 
Curves 43
1 36 0 10.5 0 1 0 
1 36 13.426565020292045 10.500000000000002 -1 -0 0 
1 -2.8764237660015297 0 10.5 1 0 6.1232339957367648e-17 
1 34.5 25.423629760742188 10.5 6.123233995736766e-17 -1 -0 
1 36 13.426565020292045 12.773005481507063 0 -0 -1 
1 36 0 11.487842748122915 1.2246467991473532e-16 0 -1 
2 36 18.926565020292045 6.7999999523162842 1 0 -0 0 0 1 0 -1 0 5.5
1 36 0 5.1999998092651358 -0 1 0 
1 36 24.426565020292045 6.3672039632274533 0 0 1 
1 36 0 0 0 0 1 
1 36 0 0 -0 1 0 
1 36 29.5 0 0 0 1 
1 34.5 13.426565020292045 10.5 0 0 1 
1 36 13.426565020292045 6.7999999523162842 -1 -0 0 
1 34.5 4 7.875 -0 0 -1 
1 38.86688868383029 0 5.1999998092651367 -1 -0 -1.8369701987210297e-16 
1 34.5 24.426565020292045 8.6499999761581421 -0 0 -1 
1 34.5 28.299999952316284 10.5 -0 -0 -1 
8 1.5707963267948966 4.7123889803846897
2 34.5 18.926565020292045 6.7999999523162842 1 0 -0 0 0 1 0 -1 0 5.5
1 34.5 14.149999976158144 1.2000000476837158 -6.123233995736766e-17 1 0 
1 34.5 1.2000000476837158 10.5 -0 -0 -1 
1 34.5 14.149999976158142 5.1999998092651367 -6.123233995736766e-17 1 -1.1248198369963932e-32 
1 36 24.426565020292045 6.7999999523162842 -1 -0 0 
1 0 0 5.1999998092651296 -0 1 0 
1 1.2000000476837158 0.60000002384185969 5.1999998092651296 0 -1 0 
1 35.25 1.2000000476837154 5.1999998092651367 1 -1.2246467991473532e-16 1.8369701987210297e-16 
1 36 24.426565020292045 10.5 -1 -0 0 
1 0 0 0 1 0 -0 
1 0 0 0 0 0 1 
1 0 29.5 10.5 1 0 -0 
1 0 0 10.5 -0 1 0 
1 4.4088287353515625 28.299999952316284 10.5 1 6.123233995736766e-17 0 
1 1.2000000476837158 2.5006256103515625 10.5 0 1 0 
1 0 0 0 -0 1 0 
1 0 29.5 0 1 0 -0 
1 0 29.5 0 0 0 1 
1 1.2000000476837158 28.299999952316284 10.5 -0 -0 -1 
1 0.60000002384185702 28.299999952316284 1.2000000476837158 -1 -6.123233995736766e-17 0 
1 1.2000000476837158 0.60000002384185969 1.2000000476837158 0 -1 0 
1 17.25 1.2000000476837176 1.2000000476837158 1 -1.2246467991473532e-16 0 
1 1.2000000476837158 1.2000000476837194 10.5 -0 -0 -1 
1 0 0 5.25 6.123233995736766e-17 0 1 
1 1.2000000476837158 4 7.875 0 -0 1 
Polygon3D 0
PolygonOnTriangulations 82
2 1 2 
p 0.942656522029204 1 4 13.426565020292 
2 1 2 
p 2.95000002 1 4 13.426565020292 
2 1 2 
p 0.370000024768372 1 0 1.5 
2 1 2 
p 0.530000039073487 1 37.3764237660015 38.8764237660015 
2 3 4 
p 0.942656522029204 1 11.9970647404501 21.4236297607422 
2 16 18 
p 2.71000001046326 1 11.9970647404501 21.4236297607422 
2 1 4 
p 0.370000024768372 1 2.27300548150706 5.97300552919078 
2 2 4 
p 0.530000039073487 1 0.987842748122912 6.28784293885778 
25 1 3 4 5 6 7 8 9 10 11 12 13 14 15 16 17 18 19 20 21 22 23 24 25 2 
p 1.19063144032163 1 1.5707963267949 1.70169602069447 1.83259571459405 1.96349540849362 2.0943951023932 2.22529479629277 2.35619449019234 2.48709418409192 2.61799387799149 2.74889357189107 2.87979326579064 3.01069295969022 3.14159265358979 3.27249234748937 3.40339204138894 3.53429173528852 3.66519142918809 3.79609112308767 3.92699081698724 4.05789051088681 4.18879020478639 4.31968989868596 4.45058959258554 4.58148928648511 4.71238898038469 
2 14 4 
p 1.60000008 1 0 4 
2 1 3 
p 3.40714996720241 1 0 4 
2 4 1 
p 0.370000024768372 1 0.432795989088831 4.13279603677255 
2 16 14 
p 2.08000000370605 1 0 5.19999980926514 
2 1 2 
p 3.60000002 1 0 5.19999980926514 
2 15 17 
p 2.02937407188318 1 24.426565020292 29.5 
2 1 2 
p 3.60000002 1 24.426565020292 29.5 
2 16 18 
p 2.95000002 1 0 29.5 
2 4 3 
p 3.60000002 1 0 29.5 
2 18 17 
p 2.95000002 1 0 10.5 
2 2 3 
p 3.60000002 1 0 10.5 
2 3 2 
p 0.370000024768372 1 -3.70000004768372 0 
2 5 16 
p 1.77600003888818 1 -3.70000004768372 0 
2 4 3 
p 0.370000024768372 1 0 1.5 
2 1 26 
p 0.896000019814699 1 0 1.5 
2 1 3 
p 0.530000039073487 1 -2.625 2.67500019073486 
2 18 19 
p 2.54400010755274 1 -2.625 2.67500019073486 
2 4 3 
p 0.530000039073487 1 2.86688868383029 4.36688868383029 
2 3 5 
p 1.02400003125879 1 2.86688868383029 4.36688868383029 
2 1 2 
p 1.5493740528097 1 -2.8763701915741 0.997064740450142 
2 5 3 
p 3.22212392366859 1 -2.8763701915741 0.997064740450142 
2 2 3 
p 0.370000024768372 1 -1.85000002384186 1.85000002384186 
2 1 4 
p 2.71000001046326 1 0 9.29999995231628 
2 4 3 
p 3.33000001523163 1 0 9.29999995231628 
25 26 31 32 33 34 35 36 37 38 39 40 41 42 43 44 45 46 47 48 49 50 51 52 53 27 
p 1.19063144032163 1 1.5707963267949 1.70169602069447 1.83259571459405 1.96349540849362 2.0943951023932 2.22529479629277 2.35619449019234 2.48709418409192 2.61799387799149 2.74889357189107 2.87979326579064 3.01069295969022 3.14159265358979 3.27249234748937 3.40339204138894 3.53429173528852 3.66519142918809 3.79609112308767 3.92699081698724 4.05789051088681 4.18879020478639 4.31968989868596 4.45058959258554 4.58148928648511 4.71238898038469 
2 15 4 
p 2.71000001046326 1 -12.9499999284744 14.1499999761581 
2 3 1 
p 3.33000001523163 1 -12.9499999284744 14.1499999761581 
2 17 15 
p 1.59999998463257 1 5.30000019073486 9.29999995231628 
2 1 2 
p 3.27274985549146 1 5.30000019073486 9.29999995231628 
2 17 19 
p 1.12000006092651 1 -12.9499999284744 -10.1499999761581 
2 7 5 
p 2.79274993178541 1 -12.9499999284744 -10.1499999761581 
2 4 3 
p 0.370000024768372 1 0 1.5 
2 1 2 
p 3.60000002 1 2.86688868383029 38.8668886838303 
2 2 3 
p 4.04059750525617 1 2.86688868383029 38.8668886838303 
2 2 4 
p 1.60000008 1 0 4 
2 2 3 
p 2.95000002 1 0 4 
2 6 4 
p 0.480000099073486 1 37.6668886361466 38.8668886838303 
2 3 4 
p 0.560597510024537 1 37.6668886361466 38.8668886838303 
2 6 8 
p 1.12000006092651 1 -3.39999997615814 -0.60000002384186 
2 3 1 
p 2.71000001046326 1 -3.39999997615814 -0.60000002384186 
2 8 7 
p 3.60000002 1 -34.0499999523163 -0.75 
2 3 1 
p 3.77059750048779 1 -34.0499999523163 -0.75 
2 1 2 
p 0.370000024768372 1 0 1.5 
2 1 3 
p 0.896000019814699 1 0 1.5 
2 4 1 
p 3.60000002 1 0 36 
2 1 4 
p 4.26602987744811 1 0 36 
2 4 3 
p 2.08000000370605 1 0 5.19999980926513 
2 1 2 
p 2.95000002 1 0 5.19999980926513 
2 4 2 
p 3.60000002 1 0 36 
2 4 3 
p 4.16495310356392 1 0 36 
2 5 6 
p 2.95000002 1 4 29.5 
2 7 5 
p 3.60000002 1 -3.20882868766785 30.0911712646484 
2 1 4 
p 3.89495309879555 1 -3.20882868766785 30.0911712646484 
2 6 8 
p 0.480000099073486 1 2.87642376600153 4.07642381368525 
2 1 2 
p 0.684953108332291 1 2.87642376600153 4.07642381368525 
2 5 6 
p 2.71000001046326 1 1.49937438964844 25.7993743419647 
2 1 2 
p 3.60000002 1 0 29.5 
2 1 4 
p 3.70330149687241 1 0 29.5 
2 2 3 
p 3.60000002 1 0 36 
2 1 2 
p 4.35330149687241 1 0 36 
2 4 6 
p 2.95000002 1 0 10.5 
2 6 4 
p 2.71000001046326 1 0 9.29999995231628 
2 3 2 
p 3.33000001523163 1 -33.8999999761581 -0.600000023841859 
2 1 2 
p 4.02424765245615 1 -33.8999999761581 -0.600000023841859 
2 2 4 
p 3.33000001523163 1 -27.6999999284744 -0.60000002384186 
2 4 2 
p 3.41071237537081 1 -27.6999999284744 -0.60000002384186 
2 4 3 
p 3.33000001523163 1 -16.0499999523163 17.25 
2 4 2 
p 4.03071238013918 1 -16.0499999523163 17.25 
2 3 4 
p 1.59999998463257 1 5.30000019073487 9.29999995231628 
2 1 2 
p 2.71000001046326 1 5.30000019073487 9.29999995231628 
2 4 1 
p 0.530000039073487 1 -0.0500001907348704 5.25 
2 3 2 
p 0.530000039073487 1 -2.67500019073487 2.625 
2 3 5 
p 2.58111021559471 1 -2.67500019073487 2.625 
Surfaces 16
1 0 0 10.5 0 0 1 1 0 -0 -0 1 0 
1 36 0 0 1 0 -0 0 0 1 0 -1 0 
2 36 18.926565020292045 6.7999999523162842 1 0 -0 0 0 1 0 -1 0 5.5
2 36 18.926565020292045 6.7999999523162842 1 0 -0 0 0 1 0 -1 0 5.5
1 0 0 0 -0 1 0 0 0 1 1 0 -0 
1 0 0 0 0 0 1 1 0 -0 -0 1 0 
1 0 29.5 0 -0 1 0 0 0 1 1 0 -0 
1 36 13.426565020292045 10.500000000000002 0 -1 0 0 -0 -1 1 0 0 
1 34.5 28.299999952316284 10.5 -1 -6.123233995736766e-17 0 6.123233995736766e-17 -1 -0 0 0 1 
1 18 0 5.25 -0 1 0 0 0 1 1 0 -0 
1 36 24.426565020292045 6.7999999523162842 -0 1 0 0 0 1 1 0 -0 
1 36 0 5.1999998092651358 -1.8369701987210297e-16 -0 1 -1 0 -1.8369701987210297e-16 0 -1 -0 
1 1.2000000476837158 1.2000000476837194 10.5 1 0 0 -0 1 0 0 -0 1 
1 34.5 1.2000000476837156 10.5 1.2246467991473532e-16 1 -0 -1 1.2246467991473532e-16 0 0 0 1 
1 0 0 0 1 0 -0 0 0 1 0 -1 0 
1 1.2000000476837158 28.299999952316284 10.5 6.123233995736766e-17 -1 0 1 6.123233995736766e-17 0 -0 0 1 
Triangulations 18
4 2 1 0.771328301014603
36 4 10.5 36 13.426565020292 10.5 34.5 13.426565020292 10.5 34.5 4 10.5 36 4 36 13.426565020292 34.5 13.426565020292 34.5 4 3 4 1 1 2 3 
18 16 1 2.25893745900302
36 4 10.5 36 13.426565020292 10.5 36 13.426565020292 6.79999995231628 36 4 5.19999980926514 36 24.426565020292 6.79999995231628 36 13.7582556059695 4.91888916402511 36 14.7133205831377 3.26466809904032 36 16.176565020292 2.03686023150187 36 17.9715000431239 1.38355731074914 36 19.8816299974602 1.38355731074914 36 21.676565020292 2.03686023150187 36 23.1398094574464 3.26466809904032 36 24.0948744346145 4.9188891640251 36 0 5.19999980926514 36 24.426565020292 10.5 36 0 0 36 29.5 10.5 36 29.5 0 10.5 -4 10.5 -13.426565020292 6.79999995231628 -13.426565020292 5.19999980926514 -4 6.79999995231628 -24.426565020292 4.91888916402511 -13.7582556059695 3.26466809904032 -14.7133205831377 2.03686023150187 -16.176565020292 1.38355731074914 -17.9715000431239 1.38355731074914 -19.8816299974602 2.03686023150187 -21.676565020292 3.26466809904032 -23.1398094574464 4.9188891640251 -24.0948744346145 5.19999980926514 0 10.5 -24.426565020292 0 0 10.5 -29.5 0 -29.5 18 11 10 11 18 12 13 12 18 18 5 13 18 9 16 9 18 10 8 7 16 9 8 16 16 7 4 17 15 5 5 18 17 14 16 4 3 2 1 3 1 4 4 6 3 4 7 6 
4 2 1 0.370000024768372
36 13.426565020292 10.5 34.5 13.426565020292 10.5 34.5 13.426565020292 6.79999995231628 36 13.426565020292 6.79999995231628 0 0 1.77635683940025e-15 -1.5 3.70000004768372 -1.5 3.70000004768372 0 1 2 4 3 4 2 
4 2 1 0.530000039073487
34.5 4 10.5 36 4 10.5 34.5 4 5.19999980926514 36 4 5.19999980926514 5.25 16.5 5.25 18 -0.0500001907348642 16.5 -0.0500001907348642 18 4 3 1 1 2 4 
19 17 1 2.09093743857362
34.5 28.2999999523163 10.5 34.5 24.426565020292 10.5 34.5 24.426565020292 6.79999995231628 34.5 28.2999999523163 1.20000004768372 34.5 13.426565020292 6.79999995231628 34.5 13.6957541806687 5.10040648325407 34.5 14.4769715512298 3.56718106470768 34.5 15.6937461326834 2.35040648325407 34.5 17.2269715512298 1.56918911269294 34.5 18.926565020292 1.29999995231628 34.5 20.6261584893543 1.56918911269294 34.5 22.1593839079006 2.35040648325407 34.5 23.3761584893543 3.56718106470768 34.5 24.1573758599154 5.10040648325407 34.5 1.20000004768372 1.20000004768372 34.5 13.426565020292 10.5 34.5 1.20000004768372 5.19999980926514 34.5 4 10.5 34.5 4 5.19999980926514 0 0 3.87343493202424 0 3.87343493202424 -3.70000004768372 -3.5527136788005e-15 -9.29999995231628 14.8734349320242 -3.70000004768372 14.6042457716476 -5.39959351674593 13.8230284010865 -6.93281893529232 12.6062538196328 -8.14959351674593 11.0730284010865 -8.93081088730706 9.37343493202424 -9.20000004768372 7.67384146296203 -8.93081088730706 6.14061604441564 -8.14959351674593 4.92384146296203 -6.93281893529232 4.14262409240089 -5.39959351674593 27.0999999046326 -9.29999995231628 14.8734349320242 0 27.0999999046326 -5.30000019073486 24.2999999523163 0 24.2999999523163 -5.30000019073486 4 12 13 12 4 11 10 11 4 4 15 10 1 3 2 1 4 3 3 4 14 4 13 14 8 9 15 6 7 19 15 7 8 19 7 15 9 10 15 16 5 18 17 19 15 19 18 5 5 6 19 
53 51 1 0.969315745114492
36 13.426565020292 6.79999995231628 36 24.426565020292 6.79999995231628 36 13.4736182827361 6.082105895106 36 13.6139729757022 5.37649520425242 36 13.84522759148 4.69524107430829 36 14.1634252994776 4.04999995231628 36 14.5631216486903 3.45181209276832 36 15.037477723766 2.91091265579027 36 15.5783771607441 2.43655658071449 36 16.176565020292 2.03686023150187 36 16.821806142284 1.71866252350421 36 17.5030602722282 1.48740790772641 36 18.2086709630818 1.34705321476033 36 18.926565020292 1.29999995231628 36 19.6444590775023 1.34705321476033 36 20.3500697683559 1.48740790772641 36 21.0313238983 1.7186625235042 36 21.676565020292 2.03686023150187 36 22.27475287984 2.43655658071448 36 22.815652316818 2.91091265579027 36 23.2900083918938 3.45181209276831 36 23.6897047411065 4.04999995231627 36 24.0079024491041 4.69524107430828 36 24.2391570648819 5.37649520425241 36 24.379511757848 6.08210589510599 34.5 13.426565020292 6.79999995231628 34.5 24.426565020292 6.79999995231628 35.625 24.426565020292 6.79999995231628 35.25 24.426565020292 6.79999995231628 34.875 24.426565020292 6.79999995231628 34.5 13.4736182827361 6.082105895106 34.5 13.6139729757022 5.37649520425242 34.5 13.84522759148 4.69524107430829 34.5 14.1634252994776 4.04999995231628 34.5 14.5631216486903 3.45181209276832 34.5 15.037477723766 2.91091265579027 34.5 15.5783771607441 2.43655658071449 34.5 16.176565020292 2.03686023150187 34.5 16.821806142284 1.71866252350421 34.5 17.5030602722282 1.48740790772641 34.5 18.2086709630818 1.34705321476033 34.5 18.926565020292 1.29999995231628 34.5 19.6444590775023 1.34705321476033 34.5 20.3500697683559 1.48740790772641 34.5 21.0313238983 1.7186625235042 34.5 21.676565020292 2.03686023150187 34.5 22.27475287984 2.43655658071448 34.5 22.815652316818 2.91091265579027 34.5 23.2900083918938 3.45181209276831 34.5 23.6897047411065 4.04999995231627 34.5 24.0079024491041 4.69524107430828 34.5 24.2391570648819 5.37649520425241 34.5 24.379511757848 6.08210589510599 1.5707963267949 0 4.71238898038469 0 1.70169602069447 0 1.83259571459405 0 1.96349540849362 0 2.0943951023932 0 2.22529479629277 0 2.35619449019234 0 2.48709418409192 0 2.61799387799149 0 2.74889357189107 0 2.87979326579064 0 3.01069295969022 0 3.14159265358979 0 3.27249234748937 0 3.40339204138894 0 3.53429173528852 0 3.66519142918809 0 3.79609112308767 0 3.92699081698724 0 4.05789051088681 0 4.18879020478639 0 4.31968989868596 0 4.45058959258554 0 4.58148928648511 0 1.5707963267949 -1.5 4.71238898038469 -1.5 4.71238898038469 -0.375 4.71238898038469 -0.750000000000001 4.71238898038469 -1.125 1.70169602069447 -1.5 1.83259571459405 -1.5 1.96349540849362 -1.5 2.0943951023932 -1.5 2.22529479629277 -1.5 2.35619449019234 -1.5 2.48709418409192 -1.5 2.61799387799149 -1.5 2.74889357189107 -1.5 2.87979326579064 -1.5 3.01069295969022 -1.5 3.14159265358979 -1.5 3.27249234748937 -1.5 3.40339204138894 -1.5 3.53429173528852 -1.5 3.66519142918809 -1.5 3.79609112308767 -1.5 3.92699081698724 -1.5 4.05789051088681 -1.5 4.18879020478639 -1.5 4.31968989868596 -1.5 4.45058959258554 -1.5 4.58148928648511 -1.5 31 32 4 26 31 1 33 34 6 34 35 7 32 33 5 36 37 9 37 38 10 39 40 12 41 42 14 40 41 13 38 39 11 35 36 8 3 1 31 4 3 31 6 5 33 7 6 34 4 32 5 9 8 36 10 9 37 12 11 39 14 13 41 12 40 13 10 38 11 7 35 8 42 43 14 16 43 44 17 44 45 19 46 47 20 47 48 18 45 46 22 49 50 24 51 52 52 53 25 30 53 27 50 51 23 48 49 21 29 53 30 15 43 16 16 44 17 18 46 19 20 48 21 47 20 19 45 18 17 22 50 23 22 21 49 25 29 28 23 51 24 2 25 28 52 25 24 53 29 25 43 15 14 
8 6 1 2.20298752628083
36 0 5.19999980926514 0 0 5.19999980926513 36 4 5.19999980926514 0 4 5.19999980926513 34.5 4 5.19999980926514 1.20000004768372 4 5.19999980926513 34.5 1.20000004768372 5.19999980926514 1.20000004768372 1.20000004768372 5.19999980926513 0 0 36 0 0 -4 36 -4 1.5 -4 34.7999999523163 -4 1.5 -1.20000004768372 34.7999999523163 -1.20000004768372 3 5 7 1 7 2 7 1 3 6 4 8 8 2 7 2 8 4 
4 2 1 0.370000024768372
36 24.426565020292 10.5 34.5 24.426565020292 10.5 34.5 24.426565020292 6.79999995231628 36 24.426565020292 6.79999995231628 3.70000004768372 0 3.70000004768372 -1.5 0 -1.5 0 0 4 3 2 2 1 4 
4 2 1 3.33014938724055
36 0 0 36 0 5.19999980926514 0 0 5.19999980926513 0 0 0 0 36 5.19999980926514 36 5.19999980926513 0 0 0 1 4 3 3 2 1 
8 6 1 2.8247655178196
36 24.426565020292 10.5 36 29.5 10.5 34.5 24.426565020292 10.5 0 29.5 10.5 34.5 28.2999999523163 10.5 0 4 10.5 1.20000004768372 28.2999999523163 10.5 1.20000004768372 4 10.5 36 24.426565020292 36 29.5 34.5 24.426565020292 0 29.5 34.5 28.2999999523163 0 4 1.20000004768372 28.2999999523163 1.20000004768372 4 6 8 7 4 7 5 7 4 6 3 1 5 5 2 4 2 5 1 
4 2 1 3.76650748436203
0 0 0 0 29.5 0 36 29.5 0 36 0 0 0 0 0 29.5 36 29.5 36 0 2 1 4 4 3 2 
4 2 1 3.92956366010908
0 29.5 0 36 29.5 0 36 29.5 10.5 0 29.5 10.5 0 0 0 36 10.5 36 10.5 0 2 1 4 4 3 2 
4 2 1 3.47123828612261
1.20000004768372 28.2999999523163 10.5 1.20000004768372 28.2999999523163 1.20000004768372 34.5 28.2999999523163 1.20000004768372 34.5 28.2999999523163 10.5 0 0 0 -9.29999995231628 33.2999999523163 -9.29999995231628 33.2999999523163 0 1 2 3 3 4 1 
4 2 1 3.50356192453776
34.5 28.2999999523163 1.20000004768372 1.20000004768372 28.2999999523163 1.20000004768372 34.5 1.20000004768372 1.20000004768372 1.20000004768372 1.20000004768372 1.20000004768372 34.5 28.2999999523163 1.20000004768372 28.2999999523163 34.5 1.20000004768372 1.20000004768372 1.20000004768372 2 4 3 3 1 2 
4 2 1 3.16851493018775
34.5 1.20000004768372 5.19999980926514 34.5 1.20000004768372 1.20000004768372 1.20000004768372 1.20000004768372 5.19999980926513 1.20000004768372 1.20000004768372 1.20000004768372 0 -5.30000019073486 0 -9.29999995231628 33.2999999523163 -5.30000019073487 33.2999999523163 -9.29999995231628 1 2 3 4 3 2 
7 6 1 2.93721695552773
0 0 0 0 0 5.19999980926513 0 4 5.19999980926513 0 29.5 0 0 4 10.5 0 29.5 10.5 0 14.75 5.25 0 0 5.19999980926513 0 5.19999980926513 -4 0 -29.5 10.5 -4 10.5 -29.5 5.25 -14.75 1 7 3 7 1 4 1 3 2 7 6 5 6 7 4 5 3 7 
4 2 1 0.57638767412595
0 4 10.5 1.20000004768372 4 10.5 1.20000004768372 4 5.19999980926513 0 4 5.19999980926513 5.25 -18 5.25 -16.7999999523163 -0.0500001907348704 -16.7999999523163 -0.0500001907348704 -18 3 4 1 1 2 3 
7 6 1 2.80530377213642
1.20000004768372 1.20000004768372 5.19999980926513 1.20000004768372 1.20000004768372 1.20000004768372 1.20000004768372 4 5.19999980926513 1.20000004768372 28.2999999523163 1.20000004768372 1.20000004768372 4 10.5 1.20000004768372 28.2999999523163 10.5 1.20000004768372 14.75 5.85000002384186 0 -5.30000019073487 0 -9.29999995231628 2.79999995231628 -5.30000019073487 27.0999999046326 -9.29999995231628 2.79999995231628 0 27.0999999046326 0 13.5499999523163 -4.64999997615814 2 3 1 3 2 7 7 4 6 4 7 2 6 5 7 7 5 3 

TShapes 117
Ve
1e-07
36 13.426565020292 10.5
0 0

0101100
*
Ve
1e-07
36 0 10.5
0 0

0101100
*
Ed
 1e-07 1 1 0
1  1 0 4 13.426565020292
2  1 2 0 4 13.426565020292
2  2 1 0 4 13.426565020292
6  1 1 2
6  2 2 2
0

0101000
-117 2 +116 4 *
Ve
1e-07
34.5 13.426565020292 10.5
0 0

0101100
*
Ed
 1e-07 1 1 0
1  2 0 0 1.5
6  3 3 0
0

0101000
-114 0 +117 0 *
Ve
1e-07
34.5 4 10.5
0 0

0101100
*
Ed
 1e-07 1 1 0
1  3 0 37.3764237660015 38.8764237660015
6  4 4 5
0

0101000
+112 5 -116 0 *
Ed
 1e-07 1 1 0
1  4 0 11.9970647404501 21.4236297607422
6  5 1 0
6  6 5 0
0

0101000
+114 0 -112 0 *
Wi

0101100
+115 1 +113 0 +111 3 +110 0 *
Fa
0  1e-07 1 1
2  1
0111000
+109 0 *
Ve
1e-07
36 13.426565020292 6.79999995231628
0 0

0101100
*
Ed
 1e-07 1 1 0
1  5 0 2.27300548150706 5.97300552919078
6  7 3 0
0

0101000
+117 0 -107 0 *
Ve
1e-07
36 0 5.19999980926514
0 0

0101100
*
Ed
 1e-07 1 1 0
1  6 0 0.987842748122912 6.28784293885778
6  8 4 5
0

0101000
+116 0 -105 0 *
Ve
1e-07
36 24.426565020292 6.79999995231628
0 0

0101100
*
Ed
 1e-07 1 1 0
1  7 0 1.5707963267949 4.71238898038469
2  3 3 0 1.5707963267949 4.71238898038469
2  4 3 7 1.5707963267949 4.71238898038469
2  5 4 0 1.5707963267949 4.71238898038469
2  6 4 9 1.5707963267949 4.71238898038469
6  9 6 0
0

0101000
+107 0 -103 0 *
Ed
 1e-07 1 1 0
1  8 0 0 4
6  10 2 0
6  11 7 0
0

0101000
+105 0 -105 3 *
Ve
1e-07
36 24.426565020292 10.5
0 0

0101100
*
Ed
 1e-07 1 1 0
1  9 0 0.432795989088831 4.13279603677255
6  12 8 0
0

0101000
+103 0 -100 0 *
Ve
1e-07
36 0 0
0 0

0101100
*
Ed
 1e-07 1 1 0
1  10 0 0 5.19999980926514
2  7 2 0 0 5.19999980926514
2  8 5 0 0 5.19999980926514
6  13 2 2
6  14 9 2
0

0101000
-105 2 +98 0 *
Ve
1e-07
36 29.5 10.5
0 0

0101100
*
Ed
 1e-07 1 1 0
1  1 0 24.426565020292 29.5
2  1 2 0 24.426565020292 29.5
2  2 1 0 24.426565020292 29.5
6  15 2 2
6  16 10 2
0

0101000
+100 2 -96 0 *
Ve
1e-07
36 29.5 0
0 0

0101100
*
Ed
 1e-07 1 1 0
1  11 0 0 29.5
2  9 2 0 0 29.5
2  10 6 0 0 29.5
6  17 2 2
6  18 11 0
0

0101000
-94 0 +98 0 *
Ed
 1e-07 1 1 0
1  12 0 0 10.5
2  11 2 0 0 10.5
2  12 7 0 0 10.5
6  19 2 2
6  20 12 0
0

0101000
-96 0 +94 0 *
Wi

0101100
-115 1 -106 0 +104 3 -102 0 -101 0 -99 0 -97 1 -95 1 +93 1 +92 1 
*
Fa
0  1e-07 2 1
2  2
0111000
+91 0 *
Ve
1e-07
34.5 13.426565020292 6.79999995231628
0 0

0101100
*
Ed
 1e-08 1 1 0
1  13 0 -3.70000004768372 0
2  13 9 0 -3.70000004768372 0
2  14 8 0 -3.70000004768372 0
6  21 3 0
6  22 5 0
0

0101000
+89 0 -114 0 *
Ed
 1e-07 1 1 0
1  14 0 0 1.5
2  15 4 0 0 1.5
4 G1 8 0 4 0
6  23 3 0
6  24 6 0
0

0101000
-89 0 +107 0 *
Wi

0101100
+113 0 -88 0 -106 0 -87 0 *
Fa
0  1e-07 8 0
2  3
0111000
+86 0 *
Ve
1e-07
34.5 4 5.19999980926514
0 0

0101100
*
Ed
 1e-08 1 1 0
1  15 0 -2.625 2.67500019073486
2  16 9 0 -2.625 2.67500019073486
2  17 10 3 -2.625 2.67500019073486
6  25 4 0
6  26 5 0
0

0101000
+112 0 -84 0 *
Ed
 1e-07 1 1 0
1  16 0 2.86688868383029 4.36688868383029
6  27 4 5
6  28 7 5
0

0101000
-84 5 +105 0 *
Wi

0101100
+111 3 -83 0 +104 3 +82 3 *
Fa
0  1e-07 10 3
2  4
0111000
+81 0 *
Ve
1e-07
34.5 24.426565020292 10.5
0 0

0101100
*
Ve
1e-07
34.5 28.2999999523163 10.5
0 0

0101100
*
Ed
 1e-07 1 1 0
1  4 0 -2.8763701915741 0.997064740450142
6  29 5 0
6  30 10 0
0

0101000
-79 0 +78 0 *
Ve
1e-07
34.5 24.426565020292 6.79999995231628
0 0

0101100
*
Ed
 1e-08 1 1 0
1  17 0 -1.85000002384186 1.85000002384186
2  18 9 0 -1.85000002384186 1.85000002384186
2  19 11 0 -1.85000002384186 1.85000002384186
6  31 8 0
0

0101000
+79 0 -76 0 *
Ve
1e-07
34.5 28.2999999523163 1.20000004768372
0 0

0101100
*
Ed
 1e-07 1 1 0
1  18 0 0 9.29999995231628
6  32 5 0
6  33 13 0
0

0101000
-74 0 +78 0 *
Ed
 5.49999999999924e-08 1 1 0
1  19 0 1.5707963267949 4.71238898038469
2  20 9 0 1.5707963267949 4.71238898038469
2  21 4 0 1.5707963267949 4.71238898038469
6  34 6 0
0

0101000
+89 0 -76 0 *
Ve
1e-07
34.5 1.20000004768372 1.20000004768372
0 0

0101100
*
Ed
 1e-08 1 1 0
1  20 0 -12.9499999284744 14.1499999761581
2  22 9 0 -12.9499999284744 14.1499999761581
2  23 6 11 -12.9499999284744 14.1499999761581
6  35 5 0
6  36 14 0
0

0101000
+71 0 -74 0 *
Ve
1e-07
34.5 1.20000004768372 5.19999980926514
0 0

0101100
*
Ed
 1e-07 1 1 0
1  21 0 5.30000019073486 9.29999995231628
6  37 5 0
6  38 15 0
0

0101000
+69 0 -71 0 *
Ed
 1e-08 1 1 0
1  22 0 -12.9499999284744 -10.1499999761581
2  24 9 0 -12.9499999284744 -10.1499999761581
2  25 12 0 -12.9499999284744 -10.1499999761581
6  39 5 0
6  40 7 0
0

0101000
+69 0 -84 0 *
Wi

0101100
-77 0 -75 0 +73 0 +72 0 -70 0 -88 0 -68 0 -110 0 +67 0 -83 0 
*
Fa
0  1e-07 9 0
2  5
0111000
+66 0 *
Ed
 1e-07 1 1 0
1  23 0 0 1.5
2  26 4 0 0 1.5
4 G1 4 0 11 0
6  41 8 0
0

0101000
-76 0 +103 0 *
Wi

0101100
-102 0 +87 0 -64 0 +72 0 *
Fa
0  1e-07 4 0
2  6
0101000
+63 0 *
Ve
1e-07
0 0 5.19999980926513
0 0

0101100
*
Ed
 1e-07 1 1 0
1  16 0 2.86688868383029 38.8668886838303
6  42 7 0
6  43 9 0
0

0101000
+105 0 -61 0 *
Ed
 1e-07 1 1 0
1  24 0 0 4
6  44 7 0
6  45 16 0
0

0101000
+61 0 -61 3 *
Ve
1e-07
1.20000004768372 4 5.19999980926513
0 0

0101100
*
Ed
 1e-07 1 1 0
1  16 0 37.6668886361466 38.8668886838303
6  46 7 5
6  47 17 5
0

0101000
+58 5 -61 0 *
Ve
1e-07
1.20000004768372 1.20000004768372 5.19999980926513
0 0

0101100
*
Ed
 1e-08 1 1 0
1  25 0 -3.39999997615814 -0.60000002384186
2  27 13 0 -3.39999997615814 -0.60000002384186
2  28 12 0 -3.39999997615814 -0.60000002384186
6  48 7 0
6  49 18 0
0

0101000
+58 0 -56 0 *
Ed
 1e-08 1 1 0
1  26 0 -34.0499999523163 -0.75
2  29 14 0 -34.0499999523163 -0.75
2  30 12 0 -34.0499999523163 -0.75
6  50 7 0
6  51 15 0
0

0101000
+56 0 -69 0 *
Wi

0101100
-60 0 +101 0 -59 0 +82 3 +57 3 -67 0 -55 0 -54 0 *
Fa
0  1e-07 12 0
2  7
0111000
+53 0 *
Ed
 1e-07 1 1 0
1  27 0 0 1.5
6  52 8 0
6  53 10 0
0

0101000
-79 0 +100 0 *
Wi

0101100
-51 0 -75 0 -99 0 +64 0 *
Fa
0  1e-07 11 0
2  8
0111000
+50 0 *
Ve
1e-07
0 0 0
0 0

0101100
*
Ed
 1e-07 1 1 0
1  28 0 0 36
2  31 5 0 0 36
2  32 6 0 0 36
6  54 9 2
6  55 11 0
0

0101000
-98 0 +48 0 *
Ed
 1e-07 1 1 0
1  29 0 0 5.19999980926513
2  33 15 0 0 5.19999980926513
2  34 5 0 0 5.19999980926513
6  56 9 2
6  57 16 2
0

0101000
-61 2 +48 0 *
Wi

0101100
-97 1 -60 0 -47 1 +46 1 *
Fa
0  1e-07 5 1
2  9
0111000
+45 0 *
Ve
1e-07
0 29.5 10.5
0 0

0101100
*
Ed
 1e-07 1 1 0
1  30 0 0 36
2  35 7 0 0 36
2  36 1 0 0 36
6  58 10 2
6  59 12 0
0

0101000
-96 0 +43 0 *
Ve
1e-07
0 0 10.5
0 0

0101100
*
Ed
 1e-07 1 1 0
1  31 0 4 29.5
2  37 15 0 4 29.5
2  38 1 0 4 29.5
6  60 16 2
0

0101000
+41 4 -43 0 *
Ve
1e-07
1.20000004768372 28.2999999523163 10.5
0 0

0101100
*
Ed
 1e-07 1 1 0
1  32 0 -3.20882868766785 30.0911712646484
6  61 10 0
6  62 13 0
0

0101000
+39 0 -78 0 *
Ve
1e-07
1.20000004768372 4 10.5
0 0

0101100
*
Ed
 1e-07 1 1 0
1  3 0 2.87642376600153 4.07642381368525
6  63 10 5
6  64 17 5
0

0101000
-37 5 +41 0 *
Ed
 1e-07 1 1 0
1  33 0 1.49937438964844 25.7993743419647
6  65 18 0
0

0101000
+37 0 -39 0 *
Wi

0101100
+95 1 -51 0 -42 1 +77 0 -40 1 +38 0 +36 3 +35 0 *
Fa
0  1e-07 1 1
2  10
0111000
+34 0 *
Ve
1e-07
0 29.5 0
0 0

0101100
*
Ed
 1e-07 1 1 0
1  34 0 0 29.5
2  39 15 0 0 29.5
2  40 6 0 0 29.5
6  66 11 0
6  67 16 2
0

0101000
-32 0 +48 0 *
Ed
 1e-07 1 1 0
1  35 0 0 36
2  41 7 0 0 36
2  42 6 0 0 36
6  68 11 0
6  69 12 0
0

0101000
-94 0 +32 0 *
Wi

0101000
-31 0 -30 0 +93 0 +47 0 *
Fa
0  1e-07 6 0
2  11
0111000
+29 0 *
Ed
 1e-07 1 1 0
1  36 0 0 10.5
2  43 15 0 0 10.5
2  44 7 0 0 10.5
6  70 16 2
0

0101000
-43 0 +32 0 *
Wi

0101000
-30 0 -92 0 +42 0 +27 0 *
Fa
0  1e-07 7 0
2  12
0111000
+26 0 *
Ve
1e-07
1.20000004768372 28.2999999523163 1.20000004768372
0 0

0101100
*
Ed
 1e-07 1 1 0
1  37 0 0 9.29999995231628
6  71 18 0
0

0101000
-24 0 +39 0 *
Ed
 1e-08 1 1 0
1  38 0 -33.8999999761581 -0.600000023841859
2  45 16 0 -33.8999999761581 -0.600000023841859
2  46 6 11 -33.8999999761581 -0.600000023841859
6  72 13 0
6  73 14 0
0

0101000
+74 0 -24 0 *
Wi

0101100
+23 0 -22 0 -38 0 -73 0 *
Fa
0  1e-07 16 0
2  13
0111000
+21 0 *
Ve
1e-07
1.20000004768372 1.20000004768372 1.20000004768372
0 0

0101100
*
Ed
 1e-08 1 1 0
1  39 0 -27.6999999284744 -0.60000002384186
2  47 13 0 -27.6999999284744 -0.60000002384186
2  48 6 11 -27.6999999284744 -0.60000002384186
6  74 14 0
6  75 18 0
0

0101000
+24 0 -19 0 *
Ed
 1e-08 1 1 0
1  40 0 -16.0499999523163 17.25
2  49 14 0 -16.0499999523163 17.25
2  50 6 11 -16.0499999523163 17.25
6  76 14 0
6  77 15 0
0

0101000
+19 0 -71 0 *
Wi

0101100
+22 0 +70 0 +18 0 +17 0 *
Fa
0  1e-07 6 11
2  14
0111000
+16 0 *
Ed
 1e-07 1 1 0
1  41 0 5.30000019073487 9.29999995231628
6  78 15 0
6  79 18 0
0

0101000
+56 0 -19 0 *
Wi

0101100
+68 0 +54 0 -17 0 -14 0 *
Fa
0  1e-07 14 0
2  15
0111000
+13 0 *
Ed
 1e-07 1 1 0
1  42 0 -0.0500001907348704 5.25
6  80 17 5
0

0101000
+61 0 -41 0 *
Wi

0101100
-46 1 -59 0 +31 1 -11 3 +27 1 -40 1 *
Fa
0  1e-07 15 1
2  16
0111000
+10 0 *
Ed
 1e-08 1 1 0
1  43 0 -2.67500019073487 2.625
2  51 13 0 -2.67500019073487 2.625
2  52 10 3 -2.67500019073487 2.625
6  81 17 0
6  82 18 0
0

0101000
+58 0 -37 0 *
Wi

0101100
+36 3 -8 0 +11 3 +57 3 *
Fa
0  1e-07 10 3
2  17
0111000
+7 0 *
Wi

0101100
+14 0 +55 0 -18 0 -8 0 -23 0 -35 0 *
Fa
0  1e-07 13 0
2  18
0111000
+5 0 *
Sh

0101100
+108 0 +90 0 -85 0 -80 0 +65 0 -62 0 +52 0 -49 0 -44 0 +33 0 
-28 1 +25 1 +20 0 +15 0 +12 0 -9 0 -6 0 +4 0 *
So

0100000
+3 0 *
Co

0100000
+2 0 *

+1 0 