DBRep_DrawableShape

CASCADE Topology V1, (c) Matra-Datavision
Locations 2
1
0.877582561890373 -0.479425538604203               0 239.712769302101 
0.479425538604203 0.877582561890373               0 61.2087190548136 
              0               0               1               0 
2  1 -1 0
Curve2ds 5
1 0 3.14159265358979 0 1 
1 0.5 3.14159265358979 0 1 
1 1.5707963267949 0 0 1 
1 0 3.14159265358979 1 0 
1 0 9.42477796076938 1 0 
Curves 2
2 0 0 0 1 0 0 0 1 0 0 0 1 20
8 0 0.5
2 0 500 0 0 0 1 0 -1 0 1 0 0 480
Polygon3D 0
PolygonOnTriangulations 0
Surfaces 3
10 0 0.5 3.14159265358979 9.42477796076938
5 0 500 0 0 0 -1 0 -1 0 1 0 0 500 20
4 0 0 0 0 0 1 1 0 0 0 1 0 20
1 0 0 0 1 0 0 0 1 0 0 0 1 
Triangulations 0

TShapes 9
Ve
1e-05
0 20 0
0 0

0101101
*
Ed
 1e-05 1 1 0
1  1 0 0 6.28318530717959
2  1 1 0 0 6.28318530717959
2  2 1 2 0 6.28318530717959
2  3 2 0 0 6.28318530717959
0

0101100
+9 0 -9 0 *
Ed
 1e-05 1 1 0
1  2 0 0 0.5
3  4 5G1 1 0 0 0.5
0

0101000
+9 0 -9 1 *
Wi

0101000
+8 0 +7 0 -8 1 -7 0 *
Fa
0  1e-07 1 0

0111000
-6 0 *
Wi

0101100
+8 0 *
Fa
0  1e-07 3 0

0111000
+4 0 *
Sh

0101100
-5 0 -3 0 +3 1 *
So

1100000
+2 0 *

+1 0 
0

