DBRep_DrawableShape

CASCADE Topology V1, (c) Matra-Datavision
Locations 0
Curve2ds 32
6 0 1 0 0  0 1  
6 0 1 0 0  1 0  
6 0 1 0 1  1 1  
6 0 1 1 0  1 1  
6 0 1 0 1  1 1  
6 0 1 0 0  1 0  
6 0 1 0 0  0 1  
6 0 1 0 0  1 0  
6 0 1 0 1  1 1  
6 0 1 1 0  1 1  
6 0 1 0 0  0 1  
6 0 1 1 0  1 1  
6 0 1 0 1  1 1  
6 0 1 0 0  0 1  
6 0 1 0 0  1 0  
6 0 1 1 0  1 1  
6 0 1 0 0  0 1  
6 0 1 0 0  1 0  
6 0 1 0 1  1 1  
6 0 1 1 0  1 1  
6 0 1 0 1  1 1  
6 0 1 0 0  1 0  
6 0 1 0 0  0 1  
6 0 1 0 0  1 0  
6 0 1 1 0  1 1  
6 0 1 0 0  0 1  
6 0 1 1 0  1 1  
6 0 1 0 1  1 1  
6 0 1 0 0  1 0  
6 0 1 0 0  0 1  
6 0 1 1 0  1 1  
6 0 1 0 1  1 1  
Curves 26
6 0 7 -22.513829999999999 -1.6583700000000001 -3.3167200000000001  -22.455319999999997 -1.23397 -2.4679200000000003  -22.402219999999989 -0.65295000000000036 -1.6974399999999998  -22.356879999999983 0.067359999999999642 -1.0399400000000005  -22.321429999999957 0.90000999999999987 -0.52533000000000196  -22.297269999999919 1.8102200000000015 -0.17511000000000465  -22.285209999999832 2.7592000000000074 -1.0880185641326534e-14  -22.28520999999953 3.7081900000000232 -2.4563684419831588e-14  
6 0 1 -22.513830000000013 -1.6583699999999943 -3.3167200000000037  -17.280230000000014 -24.224189999999957 73.980420000000038  
6 0 7 -17.28023 -24.22419 73.980419999999995  -17.221719999999998 -22.841600000000003 75.787379999999999  -17.168619999999994 -21.329010000000004 77.489489999999989  -17.123279999999983 -19.704530000000009 79.051069999999996  -17.087839999999964 -17.994440000000026 80.443230000000014  -17.063669999999941 -16.23453000000006 81.643060000000077  -17.051609999999918 -14.462330000000136 82.641430000000256  -17.051609999999794 -12.716890000000372 83.43787000000097  
6 0 1 -22.285209999999765 3.7081900000000134 -2.1316282072803006e-14  -17.051609999999897 -12.716890000000188 83.437870000000487  
6 0 5 -23.138369999999998 -6.1889400000000006 -12.37786  -23.013469999999998 -5.2828300000000006 -10.565629999999999  -22.888549999999999 -4.3767100000000001 -8.7534100000000006  -22.763650000000002 -3.4705999999999997 -6.9411800000000028  -22.63873000000001 -2.5644899999999957 -5.1289500000000077  -22.513830000000031 -1.6583699999999881 -3.316720000000009  
6 0 1 -23.13837000000045 -6.1889400000000094 -12.377859999999135  -17.904780000000478 -40.197639999997861 53.476390000000876  
6 0 5 -17.904779999999999 -40.197639999999993 53.476390000000009  -17.779869999999999 -36.782270000000004 57.797869999999996  -17.654949999999999 -33.462270000000004 62.02402  -17.530060000000002 -30.256789999999999 66.135550000000023  -17.405140000000006 -27.176119999999976 70.122390000000067  -17.280230000000017 -24.224189999999918 73.980420000000066  
6 0 5 -22.285209999999999 3.7081900000000019 0  -22.285209999999999 12.06344954186469 0  -22.285209999999999 20.418709083729375 0  -22.285209999999999 28.773968625594065 0  -22.285209999999996 37.129235805694435 0  -22.285209999999974 45.484497337666951 0  
6 0 5 -17.05161 -12.716889999999999 83.43786999999999  -17.05161 2.6590364649757152 90.457751637663094  -17.05161 15.783021900391235 95.228139361776826  -17.05161 26.969987271130471 98.057630226193012  -17.051609999999993 36.769454312647397 99.503361835443258  -17.051609999999965 45.431877524081266 99.810452428815353  
6 0 1 -22.285209999999971 45.484497337666951 0  -17.051609999999961 45.431877524081266 99.810452428815353  
6 0 7 -41.763444214721197 -40.297227839145307 -80.594486845323829  -37.210730259662135 -35.751295941873089 -71.50262273401384  -33.257221747888671 -31.055350063841018 -62.110702840918215  -29.926583245057852 -26.233087025227036 -52.466225686583009  -27.237987873050127 -21.309329220936835 -42.618609482509918  -25.205325411902869 -16.309874180572784 -32.619783747167432  -23.837597678359138 -11.260922767371738 -22.521825534742831  -23.138370000000908 -6.1889400000000103 -12.377859999998282  
6 0 1 -41.763444214721197 -40.297227839145307 -80.594486845323829  -36.529076884624551 -139.86073097612092 -80.294759728354322  
6 0 7 -36.529076884624551 -139.86073097612092 -80.294759728354322  -31.97558204599861 -134.33326799956677 -70.220892748181228  -28.032670507501344 -126.77410425797365 -57.968274166920452  -24.670289949577434 -115.57668510699152 -41.939264715850626  -22.029421478664862 -103.34429247586789 -24.798333865024745  -19.956184966921427 -81.32818954324722 2.2304407288122547  -18.608292762170638 -59.261593564822242 29.339694650717185  -17.904780000000958 -40.197639999995708 53.476390000001714  
6 0 5 17.904779999999999 -40.197639999999993 53.476390000000002  17.779869999999999 -36.782269999999997 57.797869999999996  17.654949999999999 -33.462269999999997 62.024019999999993  17.530059999999988 -30.256789999999995 66.135549999999981  17.405139999999978 -27.176119999999997 70.122389999999982  17.280229999999968 -24.224190000000068 73.980419999999953  
6 0 1 17.904779999999413 -40.197640000000213 53.476390000000094  23.138369999999384 -6.1889400000023684 -12.377859999999913  
6 0 5 23.138369999999998 -6.1889400000000023 -12.377860000000005  23.013469999999998 -5.2828299999999953 -10.565629999999995  22.888549999999999 -4.3767099999999965 -8.7534100000000041  22.763649999999988 -3.470600000000001 -6.9411800000000383  22.638729999999978 -2.5644900000000228 -5.1289500000000956  22.513829999999981 -1.6583700000001429 -3.3167200000001245  
6 0 1 17.280229999999982 -24.224190000000036 73.980419999999981  22.513829999999995 -1.6583700000000725 -3.3167200000000605  
6 0 7 36.529076884624786 -139.8607309761212 -80.294759728354805  31.975582045998785 -134.33326799956711 -70.220892748181726  28.032670507501464 -126.7741042579741 -57.968274166921013  24.670289949577498 -115.57668510699199 -41.939264715851131  22.029421478664851 -103.34429247586861 -24.798333865025391  19.956184966921235 -81.328189543248158 2.2304407288116685  18.60829276216991 -59.261593564824146 29.339694650716392  17.90477999999883 -40.197640000000405 53.476390000000151  
6 0 1 36.529076884624786 -139.8607309761212 -80.294759728354805  41.763444214721432 -40.297227839145549 -80.594486845324269  
6 0 7 41.763444214721432 -40.297227839145549 -80.594486845324269  37.210730259662306 -35.751295941873316 -71.502622734014224  33.257221747888785 -31.055350063841257 -62.110702840918556  29.926583245057913 -26.233087025227309 -52.466225686583307  27.237987873050113 -21.309329220937212 -42.618609482510195  25.20532541190267 -16.309874180573484 -32.619783747167773  23.837597678358403 -11.260922767373543 -22.52182553474352  23.138369999998773 -6.1889400000047106 -12.37785999999981  
6 0 7 17.28023 -24.22419 73.980419999999995  17.221719999999998 -22.8416 75.787379999999999  17.168619999999997 -21.329010000000004 77.489489999999989  17.123280000000005 -19.704530000000013 79.051069999999996  17.087840000000028 -17.994440000000022 80.443229999999971  17.063670000000105 -16.234530000000028 81.643059999999721  17.051610000000355 -14.462330000000012 82.641429999999062  17.051610000000966 -12.716889999999866 83.437869999997943  
6 0 7 22.513829999999999 -1.6583700000000015 -3.3167200000000037  22.45532 -1.2339699999999978 -2.4679200000000048  22.402219999999996 -0.65294999999999992 -1.6974399999999952  22.356880000000007 0.067359999999996312 -1.0399399999999992  22.321430000000024 0.90001000000000619 -0.52533000000004815  22.297270000000086 1.8102200000000357 -0.17511000000035781  22.285210000000269 2.7592000000001344 -1.2061462939527701e-12  22.285210000000699 3.7081900000005312 -3.0414004648093851e-12  
6 0 1 17.051610000000476 -12.716889999999932 83.437869999998981  22.285210000000347 3.7081900000002683 -1.5347723092418164e-12  
6 0 5 17.05161 -12.716889999999999 83.43786999999999  17.05161 2.6590365138967211 90.457751659997982  17.05161 15.783021983903415 95.228139392132348  17.05161 26.969987377909909 98.057630253200458  17.05161 36.769454437361766 99.503361853842577  17.051610000000004 45.431877661885757 99.810452433700647  
6 0 5 22.285209999999999 3.7081900000000019 0  22.285209999999999 12.063449568448304 0  22.285209999999999 20.418709136896606 0  22.285209999999999 28.77396870534491 0  22.285210000000003 37.129235912028982 0  22.28521000000001 45.484497470585026 0  
6 0 1 17.051610000000004 45.431877661885757 99.810452433700647  22.285210000000014 45.484497470585019 0  
Polygon3D 0
PolygonOnTriangulations 0
Surfaces 8
8 0 0 1 7 -22.513829999999999 -1.6583700000000001 -3.3167200000000001  -22.455319999999997 -1.23397 -2.4679200000000003  -22.402219999999989 -0.65295000000000036 -1.6974399999999998  -22.356879999999983 0.067359999999999642 -1.0399400000000005  -22.321429999999957 0.90000999999999987 -0.52533000000000196  -22.297269999999919 1.8102200000000015 -0.17511000000000465  -22.285209999999832 2.7592000000000074 -1.0880185641326534e-14  -22.28520999999953 3.7081900000000232 -2.4563684419831588e-14  
-17.28023 -24.22419 73.980419999999995  -17.221719999999994 -22.8416 75.787379999999999  -17.16861999999999 -21.32901 77.489489999999989  -17.12327999999998 -19.704530000000005 79.051069999999996  -17.087839999999957 -17.994440000000026 80.443230000000014  -17.063669999999934 -16.23453000000006 81.643060000000077  -17.051609999999911 -14.462330000000136 82.641430000000256  -17.051609999999791 -12.716890000000372 83.43787000000097  

8 0 0 1 5 -23.138369999999998 -6.1889400000000006 -12.37786  -23.013469999999998 -5.2828300000000006 -10.565629999999999  -22.888549999999999 -4.3767100000000001 -8.7534100000000006  -22.763650000000002 -3.4705999999999997 -6.9411800000000028  -22.63873000000001 -2.5644899999999957 -5.1289500000000077  -22.513830000000031 -1.6583699999999881 -3.316720000000009  
-17.904779999999999 -40.197639999999993 53.476390000000009  -17.779869999999999 -36.782269999999997 57.797869999999989  -17.654949999999999 -33.462270000000004 62.024019999999993  -17.530060000000002 -30.256789999999999 66.135550000000023  -17.405140000000006 -27.176119999999973 70.122390000000081  -17.280230000000017 -24.224189999999915 73.98042000000008  

8 0 0 1 5 -22.285209999999999 3.7081900000000019 0  -22.285209999999999 12.06344954186469 0  -22.285209999999999 20.418709083729375 0  -22.285209999999999 28.773968625594065 0  -22.285209999999996 37.129235805694435 0  -22.285209999999974 45.484497337666951 0  
-17.05161 -12.716889999999999 83.43786999999999  -17.05161 2.6590364649757152 90.457751637663094  -17.05161 15.783021900391233 95.228139361776826  -17.05161 26.969987271130467 98.057630226193012  -17.051609999999993 36.769454312647397 99.503361835443258  -17.051609999999968 45.431877524081258 99.810452428815353  

8 0 0 1 7 -41.763444214721197 -40.297227839145307 -80.594486845323829  -37.210730259662135 -35.751295941873089 -71.50262273401384  -33.257221747888671 -31.055350063841018 -62.110702840918215  -29.926583245057852 -26.233087025227036 -52.466225686583009  -27.237987873050127 -21.309329220936835 -42.618609482509918  -25.205325411902869 -16.309874180572784 -32.619783747167432  -23.837597678359138 -11.260922767371738 -22.521825534742831  -23.138370000000908 -6.1889400000000103 -12.377859999998282  
-36.529076884624551 -139.86073097612092 -80.294759728354322  -31.975582045998614 -134.33326799956677 -70.220892748181214  -28.032670507501347 -126.77410425797363 -57.968274166920438  -24.670289949577437 -115.5766851069915 -41.939264715850612  -22.029421478664865 -103.34429247586786 -24.798333865024727  -19.95618496692143 -81.32818954324722 2.2304407288122761  -18.608292762170642 -59.261593564822256 29.339694650717206  -17.904780000000965 -40.197639999995751 53.476390000001743  

8 0 0 1 5 17.904779999999999 -40.197639999999993 53.476390000000002  17.779869999999999 -36.782269999999997 57.797869999999996  17.654949999999999 -33.462269999999997 62.024019999999993  17.530059999999988 -30.256789999999995 66.135549999999981  17.405139999999978 -27.176119999999997 70.122389999999982  17.280229999999968 -24.224190000000068 73.980419999999953  
23.138369999999998 -6.1889400000000023 -12.377860000000005  23.013469999999998 -5.282829999999997 -10.565629999999992  22.888549999999999 -4.3767099999999957 -8.7534100000000024  22.763649999999988 -3.4705999999999975 -6.9411800000000454  22.638729999999981 -2.5644900000000206 -5.1289500000001027  22.513829999999981 -1.65837000000014 -3.3167200000001316  

8 0 0 1 7 36.529076884624786 -139.8607309761212 -80.294759728354805  31.975582045998785 -134.33326799956711 -70.220892748181726  28.032670507501464 -126.7741042579741 -57.968274166921013  24.670289949577498 -115.57668510699199 -41.939264715851131  22.029421478664851 -103.34429247586861 -24.798333865025391  19.956184966921235 -81.328189543248158 2.2304407288116685  18.60829276216991 -59.261593564824146 29.339694650716392  17.90477999999883 -40.197640000000405 53.476390000000151  
41.763444214721432 -40.297227839145549 -80.594486845324269  37.210730259662306 -35.751295941873323 -71.502622734014224  33.257221747888785 -31.05535006384126 -62.110702840918563  29.926583245057916 -26.233087025227306 -52.466225686583314  27.237987873050113 -21.309329220937201 -42.618609482510209  25.20532541190267 -16.309874180573473 -32.619783747167787  23.837597678358406 -11.260922767373522 -22.521825534743559  23.138369999998773 -6.1889400000046635 -12.377859999999899  

8 0 0 1 7 17.28023 -24.22419 73.980419999999995  17.221719999999998 -22.8416 75.787379999999999  17.168619999999997 -21.329010000000004 77.489489999999989  17.123280000000005 -19.704530000000013 79.051069999999996  17.087840000000028 -17.994440000000022 80.443229999999971  17.063670000000105 -16.234530000000028 81.643059999999721  17.051610000000355 -14.462330000000012 82.641429999999062  17.051610000000966 -12.716889999999866 83.437869999997943  
22.513829999999999 -1.6583700000000015 -3.3167200000000037  22.45532 -1.2339699999999993 -2.4679200000000066  22.402219999999996 -0.65295000000000414 -1.6974400000000003  22.356880000000007 0.067359999999993647 -1.0399400000000014  22.321430000000028 0.90001000000000175 -0.52533000000003938  22.29727000000009 1.810220000000033 -0.17511000000035892  22.285210000000276 2.7592000000001313 -1.2079226507921703e-12  22.285210000000706 3.7081900000005295 -3.0553337637684308e-12  

8 0 0 1 5 17.05161 -12.716889999999999 83.43786999999999  17.05161 2.6590365138967211 90.457751659997982  17.05161 15.783021983903415 95.228139392132348  17.05161 26.969987377909909 98.057630253200458  17.05161 36.769454437361766 99.503361853842577  17.051610000000004 45.431877661885757 99.810452433700647  
22.285209999999999 3.7081900000000019 0  22.285209999999999 12.063449568448304 0  22.285209999999999 20.418709136896602 0  22.285209999999999 28.77396870534491 0  22.285210000000003 37.129235912028975 0  22.285210000000014 45.484497470585019 0  

Triangulations 0

TShapes 67
Ve
0.0011
-22.51383 -1.65836999999999 -3.31672
0 0

0101100
*
Ve
0.0011
-22.2852099999998 3.70819000000001 -1.24344978758018e-14
0 0

0101100
*
Ed
 1e-07 1 1 0
1  1 0 0 1
2  1 1 0 0 1
0

0101000
+67 0 -66 0 *
Ve
0.0011
-17.28023 -24.22419 73.98042
0 0

0101100
*
Ed
 1e-07 1 1 0
1  2 0 0 1
2  2 1 0 0 1
2  3 2 0 0 1
4 G1 1 0 2 0
0

0101000
+67 0 -64 0 *
Ve
0.0011
-17.0516099999999 -12.7168900000002 83.4378700000005
0 0

0101100
*
Ed
 1e-07 1 1 0
1  3 0 0 1
2  4 1 0 0 1
0

0101000
+64 0 -62 0 *
Ed
 1e-07 1 1 0
1  4 0 0 1
2  5 1 0 0 1
2  6 3 0 0 1
4 G1 1 0 3 0
0

0101000
+66 0 -62 0 *
Wi

0101100
-65 0 +63 0 +61 0 -60 0 *
Fa
1  1e-07 1 0

0101000
+59 0 *
Ve
0.0011
-23.1383700000005 -6.18894000000001 -12.3778599999991
0 0

0101100
*
Ed
 1e-07 1 1 0
1  5 0 0 1
2  7 2 0 0 1
0

0101000
+57 0 -67 0 *
Ve
0.0011
-17.9047800000005 -40.1976399999979 53.4763900000009
0 0

0101100
*
Ed
 1e-07 1 1 0
1  6 0 0 1
2  8 2 0 0 1
2  9 4 0 0 1
4 G1 2 0 4 0
0

0101000
+57 0 -55 0 *
Ed
 1e-07 1 1 0
1  7 0 0 1
2  10 2 0 0 1
0

0101000
+55 0 -64 0 *
Wi

0101100
-56 0 +54 0 +53 0 -63 0 *
Fa
1  1e-07 2 0

0101000
+52 0 *
Ve
0.0011
-22.28521 45.484497337667 0
0 0

0101100
*
Ed
 1e-07 1 1 0
1  8 0 0 1
2  11 3 0 0 1
0

0101000
+66 0 -50 0 *
Ve
0.0011
-17.05161 45.4318775240813 99.8104524288154
0 0

0101100
*
Ed
 1e-07 1 1 0
1  9 0 0 1
2  12 3 0 0 1
0

0101000
+62 0 -48 0 *
Ed
 1e-07 1 1 0
1  10 0 0 1
2  13 3 0 0 1
0

0101000
+50 0 -48 0 *
Wi

0101100
-49 0 +60 0 +47 0 -46 0 *
Fa
1  1e-07 3 0

0101000
+45 0 *
Ve
0.0011
-41.7634442147212 -40.2972278391453 -80.5944868453238
0 0

0101100
*
Ed
 1e-07 1 1 0
1  11 0 0 1
2  14 4 0 0 1
0

0101000
+43 0 -57 0 *
Ve
0.0011
-36.5290768846246 -139.860730976121 -80.2947597283543
0 0

0101100
*
Ed
 1e-07 1 1 0
1  12 0 0 1
2  15 4 0 0 1
0

0101000
+43 0 -41 0 *
Ed
 1e-07 1 1 0
1  13 0 0 1
2  16 4 0 0 1
0

0101000
+41 0 -55 0 *
Wi

0101100
-42 0 +40 0 +39 0 -54 0 *
Fa
1  1e-07 4 0

0101000
+38 0 *
Sh

0101000
+58 0 +51 0 +44 0 +37 0 *
So

0100000
+36 0 *
Ve
0.0011
17.9047799999994 -40.1976400000002 53.4763900000001
0 0

0101100
*
Ve
0.0011
17.28023 -24.22419 73.98042
0 0

0101100
*
Ed
 1e-07 1 1 0
1  14 0 0 1
2  17 5 0 0 1
0

0101000
+34 0 -33 0 *
Ve
0.0011
23.1383699999994 -6.18894000000235 -12.3778599999999
0 0

0101100
*
Ed
 1e-07 1 1 0
1  15 0 0 1
2  18 5 0 0 1
2  19 6 0 0 1
4 G1 5 0 6 0
0

0101000
+34 0 -31 0 *
Ve
0.0011
22.51383 -1.65837000000007 -3.31672000000006
0 0

0101100
*
Ed
 1e-07 1 1 0
1  16 0 0 1
2  20 5 0 0 1
0

0101000
+31 0 -29 0 *
Ed
 1e-07 1 1 0
1  17 0 0 1
2  21 5 0 0 1
2  22 7 0 0 1
4 G1 5 0 7 0
0

0101000
+33 0 -29 0 *
Wi

0101100
-32 0 +30 0 +28 0 -27 0 *
Fa
1  1e-07 5 0

0101000
+26 0 *
Ve
0.0011
36.5290768846248 -139.860730976121 -80.2947597283548
0 0

0101100
*
Ed
 1e-07 1 1 0
1  18 0 0 1
2  23 6 0 0 1
0

0101000
+24 0 -34 0 *
Ve
0.0011
41.7634442147214 -40.2972278391455 -80.5944868453243
0 0

0101100
*
Ed
 1e-07 1 1 0
1  19 0 0 1
2  24 6 0 0 1
0

0101000
+24 0 -22 0 *
Ed
 1e-07 1 1 0
1  20 0 0 1
2  25 6 0 0 1
0

0101000
+22 0 -31 0 *
Wi

0101100
-23 0 +21 0 +20 0 -30 0 *
Fa
1  1e-07 6 0

0101000
+19 0 *
Ve
0.0011
17.0516100000005 -12.7168899999999 83.437869999999
0 0

0101100
*
Ed
 1e-07 1 1 0
1  21 0 0 1
2  26 7 0 0 1
0

0101000
+33 0 -17 0 *
Ve
0.0011
22.2852100000004 3.70819000000027 -1.52056145452661e-12
0 0

0101100
*
Ed
 1e-07 1 1 0
1  22 0 0 1
2  27 7 0 0 1
0

0101000
+29 0 -15 0 *
Ed
 1e-07 1 1 0
1  23 0 0 1
2  28 7 0 0 1
2  29 8 0 0 1
4 G1 7 0 8 0
0

0101000
+17 0 -15 0 *
Wi

0101100
-16 0 +27 0 +14 0 -13 0 *
Fa
1  1e-07 7 0

0101000
+12 0 *
Ve
0.0011
17.05161 45.4318776618858 99.8104524337006
0 0

0101100
*
Ed
 1e-07 1 1 0
1  24 0 0 1
2  30 8 0 0 1
0

0101000
+17 0 -10 0 *
Ve
0.0011
22.28521 45.484497470585 0
0 0

0101100
*
Ed
 1e-07 1 1 0
1  25 0 0 1
2  31 8 0 0 1
0

0101000
+15 0 -8 0 *
Ed
 1e-07 1 1 0
1  26 0 0 1
2  32 8 0 0 1
0

0101000
+10 0 -8 0 *
Wi

0101100
-9 0 +13 0 +7 0 -6 0 *
Fa
1  1e-07 8 0

0101000
+5 0 *
Sh

0101000
+25 0 +18 0 +11 0 +4 0 *
So

0100000
+3 0 *
Co

1100000
+35 0 +2 0 *

+1 0 