DBRep_DrawableShape

CASCADE Topology V1, (c) Matra-Datavision
Locations 0
Curve2ds 34
6 0 1 1.0000000000000004 0.99999742086802501  1.214954440387217e-07 0.99999999999999978  
6 0 1 0.98615979535486853 0.99999745656374373  1.214954439276994e-07 0.99999999999999978  
6 0 1 0.013840206326653403 0  1 0  
6 0 1 1.2149544422372251e-07 0.99999999999999989  -4.4995157781756883e-16 2.579119297352328e-06  
6 0 1 0 0  1 0  
6 0 1 -4.5803334585174826e-16 2.5791192970555222e-06  0.98615967385942493 3.5683040955868028e-08  
6 0 1 0 0  0.98616464092992973 0  
6 0 1 -4.5803334585174826e-16 2.5791192970555222e-06  0.99999496324416937 -6.1190761252482087e-16  
6 0 1 0.99999496324416937 -1.001562766428599e-15  1.0000000000000007 0.99999742086802446  
6 0 5 0.013840206326653405 0  0.020901223237959274 0.12967034985767387  0.028021634936604513 0.25388222621586365  0.035195146184001096 0.37296147027437626  0.042416073427048347 0.48722010925615855  0.049679417072936403 0.59694890260484956  
6 0 8 0.049679417072936334 0.59694890260484545  0.083019261953298354 0.58144307029076525  0.11948780762768529 0.56754854607858463  0.158982360388708 0.55525860453340292  0.20122411516321309 0.54448166436861045  0.24575655084155873 0.53504639083941052  0.29210073917024404 0.52677710386732002  0.33980254887803274 0.5195103286022027  0.38845203597480044 0.51310270662035118  
6 0 8 0.38845203597480044 0.51310270662035118  0.45406002482579338 0.50446148105695521  0.5215236505306563 0.49736543819273021  0.59021774026541285 0.49142511338042522  0.65968257827091814 0.48636491370528079  0.72961379279667415 0.48199872103151775  0.79983207890890318 0.47818542893180987  0.87028028876010199 0.47482090615939171  0.94101298158766911 0.47182383675341799  
6 0 4 0.94101298158766922 0.47182383675341777  0.94460443296912877 0.41211026026556585  0.94820325496697633 0.35272208444081143  0.95180936823662554 0.29365720410539842  0.95542269328893337 0.23491348687021993  
6 0 4 1 0.23819151967578525  0.98879806544422089 0.23739526972028721  0.97763320398123099 0.23658384552127365  0.96650737421711896 0.23575675502818569  0.95542269328893326 0.23491348687021946  
6 0 1 1 0  1 0.23819151967578522  
6 0 1 0 0  0 0.23819151967578522  
6 0 1 0 0  0 0.2304137918531706  
6 0 1 1 0  1 0.2304137918531706  
6 0 4 1 0.23041829966303184  0.74999999993844813 0.23041717273492274  0.49999999991792821 0.23041604579057642  0.24999999993844746 0.23041491882999238  0 0.2304137918531706  
6 0 1 1 0  1 0.23041829966303182  
6 0 1 0 0  0 0.23041829966303182  
6 0 1 0 0  0 0.23819539956742167  
6 0 1 1 0  1 0.23819539956742167  
6 0 4 0.044577525821240117 0.23491348687021951  0.033492775447244272 0.23575774911163996  0.022366886200566566 0.23658581722847488  0.011201974944816727 0.23739820317945853  0 0.23819539956742167  
6 0 4 0.04457752582124011 0.23491348687021982  0.048190868634238847 0.2936572041081284  0.05179699962878586 0.35272208444066105  0.055395839315849335 0.41211026026507425  0.058987308350346046 0.47182383675341788  
6 0 8 0.058987308350345963 0.47182383675341821  0.13003697326254532 0.47483432203032755  0.20079775441139247 0.47821547793325647  0.27132655746974194 0.48204976143880962  0.34156595033976822 0.48644281501033398  0.41133328941882452 0.4915380835439464  0.48031803472296597 0.49752472945835002  0.54805016888302616 0.50468374674110228  0.61389070533349843 0.51341187050095738  
6 0 8 0.61389070533349843 0.51341187050095738  0.66220508408481826 0.51981664634052305  0.70957034181967094 0.52707552261479884  0.75558216560040969 0.53532991771372052  0.79979343382609913 0.54474066875798699  0.8417333885215551 0.55548021894719257  0.88095523393045938 0.56771575088801507  0.91718608487428865 0.5815364771423418  0.95032525402370671 0.5969489026048449  
6 0 5 0.95032525402370671 0.59694890260484856  0.95758863337818312 0.48722010914763902  0.96480959611042394 0.37296147023060061  0.97198314260773122 0.25388222623871276  0.97910358930125108 0.12967035004978691  0.98616464092992973 0  
6 0 1 0 0  1 0  
6 0 8 0.52184308849651562 0.23285862430529186  0.4627674227567638 0.23233438554939895  0.40183550012198466 0.23184705499943259  0.33893613833228725 0.23140790979631085  0.27410185713720014 0.23103077763455665  0.20742497408826782 0.23073096806696169  0.13916477442650754 0.2305226672757682  0.069651537520177928 0.23041833008328391  0 0.23041829966303176  
6 0 8 1 0.23819539956742197  0.94269081404382182 0.23748460056690879  0.8853158288679619 0.23677419179423698  0.82748050851020383 0.23606885096094357  0.76890823901086114 0.23537430264067027  0.70934247099878933 0.23469743019913064  0.64853013792654302 0.23404617347477447  0.5861866905810913 0.23342961084406547  0.52184308849651562 0.23285862430529186  
6 0 1 0 0  1 0  
6 0 8 0.50615275156421169 0.23261092390232174  0.4375380422052349 0.23319360982684745  0.37128084767937075 0.23383128106257178  0.30679932953973865 0.23451040809405652  0.24377558969148344 0.23521997086587937  0.18190294832584569 0.2359502689673372  0.12089354865900945 0.23669320718774645  0.060419124878883491 0.23744202934908523  0 0.23819151967578592  
6 0 8 1 0.23041379185317115  0.93446878046377646 0.23041376323178731  0.86901723884794346 0.23050607676023724  0.80459876690273835 0.23069066619082715  0.74154509759250753 0.23095775315293401  0.68009933247820165 0.23129560027714935  0.62036991992112145 0.23169139154907381  0.56240778017705706 0.23213319815426084  0.50615275156421169 0.23261092390232174  
Curves 25
6 0 1 88.038186543008464 -57.49999718180635 162.33905687460816  27.5 -57.49999718180635 129  
6 0 1 87.200325550611765 -57.49999718180635 161.87763744872754  27.5 -57.49999718180635 129  
6 0 1 27.5 -57.49999718180635 129  27.5 -72.50000281819365 129  
6 0 1 27.5 -72.50000281819365 129  87.200325550611808 -72.50000281819365 161.8776374487276  
6 0 1 27.5 -72.50000281819365 129  88.037888982022125 -72.50000281819365 162.3388930044427  
6 0 1 88.037888982022125 -72.50000281819365 162.3388930044427  88.038186543008464 -57.49999718180635 162.33905687460816  
6 0 5 87.200325550611808 -57.49999718180635 161.87763744872754  86.779233560523878 -57.367958127334298 163.15319790823875  86.354599492925615 -57.23480840684072 164.43948793307783  85.926798771722389 -57.100665739538172 165.73537029931154  85.496170342241371 -56.965636406290614 167.03981828292837  85.063012361038645 -56.829813898094514 168.35192871615823  
6 0 8 85.063012361038631 -56.829813898094514 168.35192871615817  83.046635826867785 -56.789238941034036 167.70472285598564  80.841037090672501 -56.744856320775789 166.99678145562552  78.452427014618422 -56.696791016688223 166.23009804471741  75.897667585040637 -56.645382337605341 165.41008489433403  73.204368961899576 -56.591185874726243 164.54560416736518  70.401496477756297 -56.534784488991448 163.64595300286055  67.516515756414918 -56.476730863140844 162.7199471712629  64.574219997889941 -56.417523903508936 161.77554466260088  
6 0 8 64.574219997889941 -56.417523903508936 161.77554466260088  60.606282844972739 -56.337678261154998 160.50193721149037  56.526117737138392 -56.255574288387848 159.1923074258265  52.371534802692736 -56.171972827394171 157.8587914003366  48.170337412376185 -56.087433357297932 156.5103133136852  43.940933811934464 -56.002326301858318 155.15278174711503  39.69416827073897 -55.916869877148471 153.78967743675008  35.433497061020873 -55.831133632725034 152.42210975855826  31.155620468372717 -55.745051169397769 151.04901958768136  
6 0 4 31.155620468372721 -55.745051169397776 151.04901958768136  30.927725006948773 -55.962218615256226 148.44416255555313  30.699361843238385 -56.179831746651089 145.83395966185236  30.470536012050392 -56.397885765783492 143.21846845470731  30.241252557366462 -56.616375866113671 140.59774658709171  
6 0 4 27.544710200896915 -56.57311130857979 139.6066723668213  28.222330569944244 -56.583983349762633 139.85572181078223  28.897708336504785 -56.594819416072866 140.10394694557735  29.570725021817353 -56.605617606488877 140.35130422716819  30.241252557366465 -56.616375866113685 140.59774658709168  
6 0 1 27.5 -57.49999718180635 129  27.544710200896915 -56.573111308579797 139.6066723668213  
6 0 1 27.5 -57.49999718180635 129  26.602337439529453 -57.49999718180635 139.26033001640903  
6 0 4 26.602319877680795 -72.50000281819365 139.26053074925781  26.602324268048072 -68.750001408173546 139.2604805671302  26.602328658478609 -64.999999998768928 139.26043038427949  26.602333048972397 -61.249998589979889 139.26038020070587  26.602337439529453 -57.49999718180635 139.26033001640909  
6 0 1 27.5 -72.50000281819365 129  26.602319877680792 -72.50000281819365 139.26053074925775  
6 0 1 27.5 -72.50000281819365 129  27.544710929179494 -73.426903789425168 139.60684513846095  
6 0 4 30.241252557366465 -73.383624133886315 140.59774658709171  29.570724296945929 -73.394386142971157 140.35134663472513  28.897707502972139 -73.405188099683585 140.10403229226182  28.22233022676647 -73.416027948903462 139.85585061614967  27.544710929179494 -73.426903789425154 139.60684513846098  
6 0 4 30.241252557366462 -73.383624133886329 140.59774658709171  30.47053601206105 -73.602114234226661 143.21846845482912  30.699361843237803 -73.820168253348342 145.8339596618458  30.92772500694689 -74.037781384742019 148.44416255553168  31.155620468372717 -74.25494883060226 151.04901958768136  
6 0 8 31.155620468372717 -74.254948830602245 151.04901958768136  35.452646247266351 -74.168481033783692 152.42825616293541  39.732200571796625 -74.082364809946768 153.80188484330509  43.997725050624325 -73.996530904604796 155.17101029811357  48.245746237362411 -73.911049212904558 156.5345176389263  52.465217995838884 -73.826142013026441 157.88886133547769  56.637359121195331 -73.742187233676574 159.22801309608982  60.73374334629716 -73.659756888341889 160.54284880810923  64.715725284895825 -73.579628626860867 161.82096428013938  
6 0 8 64.715725284895825 -73.579628626860867 161.82096428013938  67.637739501883431 -73.520829786775607 162.75885692702016  70.502351653984761 -73.463186031704566 163.67832496314438  73.285109224561097 -73.407189412510903 164.57151974923542  75.95897066381383 -73.353384078414962 165.42976163186285  78.495464913539337 -73.302342944220939 166.24391212156382  80.867570130709396 -73.254609762596075 167.00529789028369  83.058782442401593 -73.210516636163277 167.70862161230497  85.063012361038631 -73.170186101905472 168.35192871615817  
6 0 5 85.063012361038631 -73.170186101905486 168.35192871615823  85.496170342669743 -73.034363593575065 167.03981828163074  85.926798771928816 -72.899334260397097 165.73537029868629  86.354599492539037 -72.765191593280505 164.43948793424877  86.779233559900007 -72.632041872861322 163.1531979101286  87.200325550611808 -72.50000281819365 161.87763744872757  
6 0 8 26.898011201811634 -73.178221960586825 139.36919844651399  26.834486361686551 -73.11909208233638 139.34585408592  26.77543441320687 -73.051486800112144 139.32415324835478  26.722221923774633 -72.975401792749693 139.30459810509407  26.676524513775774 -72.891174609991012 139.28780440360333  26.640197339205244 -72.79963849070181 139.27445387853012  26.614959380625091 -72.702257134643489 139.26517824080364  26.602319759167393 -72.601230205727632 139.26053210387209  26.602319877680792 -72.50000281819365 139.26053074925775  
6 0 8 27.544710929179498 -73.426903789425168 139.60684513846101  27.45857654921312 -73.428286252680394 139.57519324704447  27.372489708615024 -73.420528026108244 139.54355873248025  27.287017282330254 -73.403658561456325 139.51214989334173  27.202853007227525 -73.377572258765554 139.48122164498889  27.120831042964927 -73.342120067221387 139.45108050381256  27.04191356847592 -73.297175768158056 139.42208003095217  26.96720072315366 -73.242624609457778 139.39462448666387  26.898011201811634 -73.178221960586825 139.36919844651399  
6 0 8 26.868563862847317 -56.850452760999502 139.35816834341455  26.939163925197771 -56.778661407282456 139.38411535740823  27.016425442690846 -56.717857774726291 139.412510868232  27.098709217047524 -56.667752191893932 139.44275240633624  27.184680101358669 -56.628251037341137 139.47434924846871  27.273162846850628 -56.599171432578387 139.50686943517704  27.363176691558689 -56.580358194264733 139.53995248659481  27.453903109215727 -56.571654359400647 139.57329755000066  27.544710200896915 -56.57311130857979 139.60667236682133  
6 0 8 26.60233743952945 -57.49999718180635 139.26033001640906  26.602337551034687 -57.40475988173251 139.26032874189835  26.613525802768304 -57.309638083573454 139.26443946486881  26.635894014985084 -57.21753635745349 139.27265923530928  26.668257327179205 -57.130385137052144 139.28455262221269  26.709193571298449 -57.049502461136221 139.29959696032091  26.757149929630533 -56.97568569465038 139.3172215522994  26.810681106151304 -56.909312219783736 139.33689520783958  26.868563862847317 -56.850452760999502 139.35816834341455  
Polygon3D 0
PolygonOnTriangulations 0
Surfaces 6
8 0 0 1 1 27.500000000018996 -72.500041505097428 129.0000000000104  27.499992644885239 -57.499997181811054 128.99999594945598  
88.038193898123211 -72.500002817998791 162.33906092515218  88.038186542989465 -57.499958494712409 162.33905687459776  

8 0 0 1 1 88.038186543008464 -57.49999718180635 162.33905687460816  88.085359685354234 -56.522052141102648 173.53001677498258  
27.5 -57.49999718180635 129  27.687706938340085 -53.608650107451282 173.53001677498258  

8 0 0 1 1 27.5 -57.49999718180635 129  23.604128345569805 -57.49999718180635 173.53001677498258  
27.5 -72.50000281819365 129  23.604128345569805 -72.50000281819365 173.53001677498258  

8 0 0 1 1 27.5 -72.50000281819365 129  27.687706938340085 -76.391349892548718 173.53001677498258  
88.037888982022125 -72.50000281819365 162.3388930044427  88.085062815128182 -73.477962179028694 173.53001677498258  

8 0 0 5 1 27.5 -57.49999718180635 129  27.687706938340085 -53.608650107451282 173.53001677498256  
27.5 -57.49999718180635 129  26.427692052139172 -53.547870759828868 173.53001677498256  
27.5 -57.49999718180635 129  25.143076608634914 -53.997081275357615 173.53001677498256  
27.5 -57.49999718180635 129  24.114711196766891 -54.977037126807467 173.53001677498256  
27.5 -57.49999718180635 129  23.604128345569805 -56.238517240410012 173.53001677498256  
27.5 -57.49999718180635 129  23.604128345569805 -57.49999718180635 173.53001677498256  

8 0 0 5 1 27.5 -72.50000281819365 129  23.604128345569805 -72.50000281819365 173.53001677498256  
27.5 -72.50000281819365 129  23.604128345569805 -73.761482759589981 173.53001677498256  
27.5 -72.50000281819365 129  24.114711196766891 -75.022962873192526 173.53001677498256  
27.5 -72.50000281819365 129  25.143076608634914 -76.002918724642385 173.53001677498256  
27.5 -72.50000281819365 129  26.427692052139172 -76.452129240171132 173.53001677498256  
27.5 -72.50000281819365 129  27.687706938340082 -76.391349892548718 173.53001677498256  

Triangulations 0

TShapes 61
Ve
0.0011
88.0381865430085 -57.4999971818063 162.339056874608
0 0

0101100
*
Ve
0.0011
87.2003255506118 -57.4999971818063 161.877637448728
0 0

0101100
*
Ed
 1e-07 1 1 0
1  1 0 0 0.0138402063266539
2  1 1 0 0 0.0138402063266539
0

0101000
+61 0 -60 0 *
Ve
0.0011
27.5 -57.4999971818063 129
0 0

0101100
*
Ed
 1e-07 1 1 0
1  2 0 0 1
2  2 1 0 0 1
2  3 2 0 0 1
0

0101000
+60 0 -58 0 *
Ve
0.0011
27.5 -72.5000028181937 129
0 0

0101100
*
Ed
 1e-07 1 1 0
1  3 0 0 1
2  4 1 0 0 1
2  5 3 0 0 1
0

0101000
+58 0 -56 0 *
Ve
0.0011
87.2003255506118 -72.5000028181937 161.877637448728
0 0

0101100
*
Ed
 1e-07 1 1 0
1  4 0 0 1
2  6 1 0 0 1
2  7 4 0 0 1
0

0101000
+56 0 -54 0 *
Ve
0.0011
88.0378889820221 -72.5000028181937 162.338893004443
0 0

0101100
*
Ed
 1e-07 1 1 0
1  5 0 0.98616464092993 1
2  8 1 0 0.98616464092993 1
0

0101000
+54 0 -52 0 *
Ed
 1e-07 1 1 0
1  6 0 0 1
2  9 1 0 0 1
0

0101000
+52 0 -61 0 *
Wi

0101100
+59 0 +57 0 +55 0 +53 0 +51 0 +50 0 *
Fa
0  1e-07 1 0

0101000
+49 0 *
Ve
0.0011
85.0630123610386 -56.8298138980945 168.351928716158
0 0

0101100
*
Ed
 1e-07 1 1 0
1  7 0 0 1
2  10 2 0 0 1
0

0101000
+60 0 -47 0 *
Ve
0.0011
64.57421999789 -56.4175239035089 161.775544662601
0 0

0101100
*
Ed
 1e-07 1 1 0
1  8 0 0 1
2  11 2 0 0 1
0

0101000
+47 0 -45 0 *
Ve
0.0011
31.1556204683727 -55.7450511693978 151.049019587681
0 0

0101100
*
Ed
 1e-07 1 1 0
1  9 0 0 1
2  12 2 0 0 1
0

0101000
+45 0 -43 0 *
Ve
0.0011
30.2412525573665 -56.6163758661137 140.597746587092
0 0

0101100
*
Ed
 1e-07 1 1 0
1  10 0 0 1
2  13 2 0 0 1
0

0101000
+43 0 -41 0 *
Ve
0.0011
27.5447102008969 -56.5731113085798 139.606672366821
0 0

0101100
*
Ed
 1e-07 1 1 0
1  11 0 0 1
2  14 2 0 0 1
0

0101000
+39 0 -41 0 *
Ed
 1e-07 1 1 0
1  12 0 0 1
2  15 2 0 0 1
2  16 5 0 0 1
4 G1 2 0 5 0
0

0101000
+58 0 -39 0 *
Wi

0101100
+46 0 +44 0 +42 0 +40 0 -38 0 -37 0 -57 0 *
Fa
0  1e-07 2 0

0101000
-36 0 *
Ve
0.0011
26.6023374395295 -57.4999971818063 139.260330016409
0 0

0101100
*
Ed
 1e-07 1 1 0
1  13 0 0 1
2  17 3 0 0 1
2  18 5 0 0 1
4 G1 3 0 5 0
0

0101000
+58 0 -34 0 *
Ve
0.0011
26.6023198776808 -72.5000028181937 139.260530749258
0 0

0101100
*
Ed
 1e-07 1 1 0
1  14 0 0 1
2  19 3 0 0 1
0

0101000
+32 0 -34 0 *
Ed
 1e-07 1 1 0
1  15 0 0 1
2  20 3 0 0 1
2  21 6 0 0 1
4 G1 3 0 6 0
0

0101000
+56 0 -32 0 *
Wi

0101100
-55 0 +33 0 -31 0 -30 0 *
Fa
0  1e-07 3 0

0101000
-29 0 *
Ve
0.0011
27.5447109291795 -73.4269037894252 139.606845138461
0 0

0101100
*
Ed
 1e-07 1 1 0
1  16 0 0 1
2  22 4 0 0 1
2  23 6 0 0 1
4 G1 4 0 6 0
0

0101000
+56 0 -27 0 *
Ve
0.0011
30.2412525573665 -73.3836241338863 140.597746587092
0 0

0101100
*
Ed
 1e-07 1 1 0
1  17 0 0 1
2  24 4 0 0 1
0

0101000
+25 0 -27 0 *
Ve
0.0011
31.1556204683727 -74.2549488306022 151.049019587681
0 0

0101100
*
Ed
 1e-07 1 1 0
1  18 0 0 1
2  25 4 0 0 1
0

0101000
+25 0 -23 0 *
Ve
0.0011
64.7157252848958 -73.5796286268609 161.820964280139
0 0

0101100
*
Ed
 1e-07 1 1 0
1  19 0 0 1
2  26 4 0 0 1
0

0101000
+23 0 -21 0 *
Ve
0.0011
85.0630123610386 -73.1701861019055 168.351928716158
0 0

0101100
*
Ed
 1e-07 1 1 0
1  20 0 0 1
2  27 4 0 0 1
0

0101000
+21 0 -19 0 *
Ed
 1e-07 1 1 0
1  21 0 0 1
2  28 4 0 0 1
0

0101000
+19 0 -54 0 *
Wi

0101100
+26 0 -24 0 +22 0 +20 0 +18 0 +17 0 -53 0 *
Fa
0  1e-07 4 0

0101000
-16 0 *
Ed
 1e-07 0 0 1
2  29 6 0 0 1
0

0101100
+56 0 -56 0 *
Ve
0.0011
26.8980112018116 -73.1782219605868 139.369198446514
0 0

0101100
*
Ed
 1e-07 1 1 0
1  22 0 0 1
2  30 6 0 0 1
0

0101000
+13 0 -32 0 *
Ed
 1e-07 1 1 0
1  23 0 0 1
2  31 6 0 0 1
0

0101000
+27 0 -13 0 *
Wi

0101100
-14 0 +30 0 -12 0 -11 0 -26 0 *
Fa
0  1e-07 6 0

0101000
-10 0 *
Ed
 1e-07 0 0 1
2  32 5 0 0 1
0

0101100
+58 0 -58 0 *
Ve
0.0011
26.8685638628473 -56.8504527609995 139.358168343415
0 0

0101100
*
Ed
 1e-07 1 1 0
1  24 0 0 1
2  33 5 0 0 1
0

0101000
+7 0 -39 0 *
Ed
 1e-07 1 1 0
1  25 0 0 1
2  34 5 0 0 1
0

0101000
+34 0 -7 0 *
Wi

0101100
-8 0 +37 0 -6 0 -5 0 -33 0 *
Fa
0  1e-07 5 0

0101000
-4 0 *
Sh

0101000
+48 0 -35 0 -28 0 -15 0 -9 0 -3 0 *
So

1100000
-2 0 *

+1 0 