DBRep_DrawableShape

CASCADE Topology V1, (c) Matra-Datavision
Locations 0
Curve2ds 24
6 0 1 0 0  0 1  
6 0 1 0 0  1 0  
6 0 1 0 1  1 1  
6 0 1 1 0  1 1  
6 0 1 0 0  0 1  
6 0 1 0 1  1 1  
6 0 1 0 0  0 1  
6 0 1 0 0  1 0  
6 0 1 1 0  1 1  
6 0 1 0 0  0 1  
6 0 1 0 0  1 0  
6 0 1 0 1  1 1  
6 0 1 1 0  1 1  
6 0 1 0 0  0 1  
6 0 1 0 1  1 1  
6 0 1 0 0  1 0  
6 0 1 1 0  1 1  
6 0 1 0 0  0 1  
6 0 1 0 0  1 0  
6 0 1 0 1  1 1  
6 0 1 1 0  1 1  
6 0 1 0 1  1 1  
6 0 1 0 0  1 0  
6 0 1 1 0  1 1  
Curves 17
6 0 7 0 -43.681250314947661 161.00000000000003  0 -49.826727892528112 141.24303283830577  0 -54.779914776420753 121.11520068119322  0 -58.513953871318066 100.70284619067596  0 -61.009804556250735 80.094740420569948  0 -62.256535611830387 59.381140201503605  0 -62.251444064657697 38.652808700713074  0 -60.999999948896061 17.999999156622685  
6 0 13 8.8817841970012523e-16 -43.681250314947661 160.99999999999994  1.5602489541089839 -43.68125024122898 161.00000023699653  3.120497829748345 -43.534735974905608 161.00000043449373  4.6657375736040168 -43.241707524016036 161.00000059249143  6.1809591332677529 -42.803856193939239 161.00000071098978  7.6513652173316595 -42.224564309144228 161.00000078998863  9.0625820162893795 -41.508875626136771 161.00000082948804  10.400866166148651 -40.663435914518907 161.00000082948804  11.653302138420287 -39.696404448069174 161.00000078998863  12.807985423390024 -38.617338229530056 161.00000071036141  13.854187291889605 -37.43705168471125 161.00000058777937  14.782497527748296 -36.167455316932752 161.00000041721626  15.584942272314006 -34.821377425096962 161.0000002024417  16.255074967470165 -33.412373471145607 161  
6 0 7 16.255074967470161 -33.412373471145607 161  17.447556845127849 -38.213944671578247 141.02420125183949  18.28416799365192 -42.094849542018913 120.77267055224922  18.769994434913791 -45.062413587632101 100.32029251188098  18.910120958305111 -47.123964904962179 79.741951741386572  18.70963235321754 -48.286831590553419 59.112532851417853  18.173613409042737 -48.558341740950176 38.506920452626588  17.307147289182364 -47.945829142637287 17.999999154706479  
6 0 10 0 -60.999999948896061 17.999999156622692  2.3264033874217356 -60.999998702926987 17.9999991566227  4.6528065597824915 -60.665913527625186 17.999999156601405  6.925236213680547 -59.997744451897503 17.999999156558822  9.0897190510514072 -59.005456892290717 17.999999156494951  11.094428404171429 -57.708978832349665 17.999999156409785  12.891830131554954 -56.137652775802785 17.999999156303332  14.440651615560837 -54.329122942108469 17.999999156175583  15.707489278054243 -52.32774652253778 17.999999156026544  16.667931634161874 -50.182681589645519 17.999999155856212  17.307147289182357 -47.945829142637287 17.999999154706487  
6 0 8 0 -16.999999999999979 226.00000000000006  6.5399075044325627e-15 -21.041083206462115 218.18925727169938  1.1242990665445108e-14 -24.885911330373446 210.2769770653552  1.4109249483037643e-14 -28.531507966712191 202.26891209155792  1.5138683957210168e-14 -31.975098985554947 194.1709201725713  1.4331294087962675e-14 -35.214117217915131 185.98895504568446  1.1687079875295173e-14 -38.246206569868988 177.72905704562527  7.2060413192076535e-15 -41.0692255649695 169.39734366603432  8.8817841970012523e-16 -43.681250314947661 160.99999999999994  
6 0 13 0 -16.999999999999979 226.00000000000006  0.88630792860048324 -16.999999790315119 226.00000040528604  1.7726158011139226 -16.949940286788411 226.00000067547674  2.6558392307551362 -16.849821528482494 226.00000082899413  3.5328938309731615 -16.699852603365972 226.0000008842604  4.4007109583410431 -16.500451627618279 226.00000085969765  5.2562534536923025 -16.252244414392848 226.00000077372783  6.0965312546128132 -15.956061817970669 226.00000064477319  6.9186167508076188 -15.612935759698841 226.00000049125578  7.7196597550469388 -15.224093960805948 226.00000033159762  8.4969019660547751 -14.790953424116957 226.00000018422088  9.2476908055382534 -14.315112721855712 226.00000006754763  9.9694925192665007 -13.798343160122505 226.00000000000003  10.659904441395698 -13.242578902267581 226  
6 0 3 10.659904441395689 -13.242578902267581 226  13.049119197025705 -21.312749454815684 204.85078762981081  14.933207421853574 -28.089824080412544 183.1432019528672  16.255074967470161 -33.412373471145607 161  
6 0 10 16.255074967470161 -33.412373471145607 161  18.550805235270108 -28.585429212288343 160.99999988162239  20.37034067074093 -23.531999897977791 161  21.688541609692749 -18.304916848821431 161  22.486973303937724 -12.96025945681113 161.00000000000003  22.754382132285958 -7.5562730390887483 161  22.486984788145964 -2.1522860413471765 161.00000000000003  21.688564449420959 3.1923730825145329 161  20.370374610961967 8.4194589909446265 161  18.550850799824023 13.472892680250819 161.00000001961868  16.255128631603217 18.299844081820424 161  
6 0 7 16.255128631603228 18.299844081820439 161  17.501687776026667 19.49387783688794 140.63041442096321  18.380819363694357 20.405144854724096 120.21350148718396  18.89372639011313 21.034383006563353 99.765860407275525  19.041612095068945 21.38233027982054 79.304090411610545  18.825679657277991 21.449724632865397 58.844790725121783  18.247132255456449 21.237304024067633 38.404560572742113  17.307173068320488 20.745806411797009 17.999999179404291  
6 0 13 17.307147289182357 -47.945829142637301 17.999999154706472  18.77792614475727 -42.79903075434752 17.99999915670055  20.009939235510103 -37.584000770671146 17.999999147741637  20.999733452233343 -32.312822155597146 17.999999130812732  21.744528331477596 -26.997771533131278 17.99999910889677  22.242228034364231 -21.651276151804936 17.999999084976636  22.491430330699504 -16.285870849182583 17.999999062035162  22.491432588390033 -10.914155016368037 17.999999043055144  22.242234768159562 -5.5487495625094132 17.999999031019399  21.744539423567073 -0.2022538793028561 17.999999028910736  20.999748706326329 5.1127971945050126 17.999999039711998  20.00995837692669 10.383976408615904 17.999999066406044  18.777948820555284 15.599007136679933 17.999999111975811  17.307173068320594 20.745806411796963 17.999999179404316  
6 0 10 10.659904441395689 -13.242578902267581 226  13.025106117290452 -11.338650954402739 226  15.012471555302023 -8.9653456115577495 226  16.517208836742729 -6.2070195718314105 226  17.456049753373247 -3.1747694480556872 226  17.775209648106042 -2.1600664328325081e-05 226  17.456057469383126 3.1747270223526423 226  16.517223922433274 6.2069794278150709 226  15.012493344921031 8.9653091246405943 226  13.025133675072713 11.338619297624772 225.99999999999997  10.659936626552447 13.242552993958265 226  
6 0 3 10.659936626552444 13.242552993958267 226  13.055261130622437 15.336173306594269 204.42121685728929  14.924380540933509 17.025169933787616 182.7452815080724  16.255128631603213 18.299844081820428 161  
6 0 13 16.255128631603228 18.299844081820439 161  15.584995359398791 19.708856364473032 161.00000000572683  14.782549392624038 21.054940717401941 160.99999998467769  13.854237234541465 22.324542871038133 160.99999995118344  12.808032669030155 23.504834772395505 160.99999991082871  11.653345909849953 24.583905887098144 160.99999986774  10.400905747824906 25.550941714162661 160.99999982640881  9.0626167906404582 26.396385188461725 160.99999979169058  7.6513946825130672 27.112076992199597 160.99999976854505  6.180982913499645 27.691371329637594 160.99999976193209  4.665755426615358 28.129224437328148 160.99999977681131  3.1205096511673802 28.422254003860001 160.99999981814261  1.5602547787371126 28.568768757194739 160.99999989088562  1.241229341530925e-13 28.568768742695394 161.00000000000006  
6 0 7 -3.5527136788005009e-15 28.568768742695369 161  -2.8421709430404007e-14 31.265606790432365 140.70502664167563  -6.8854974631990656e-14 33.316101393620869 120.32416585619957  -1.4363113872864883e-13 34.716970195725736 99.882118928321034  -1.6362784143504024e-13 35.466110854821892 79.403743886965671  2.7169800800731447e-13 35.562611027010512 58.913980349150876  1.8621294982170053e-12 35.00675113924202 38.437773781507076  5.3468340865947539e-12 33.799999951545146 17.999999179404604  
6 0 10 17.307173068320488 20.745806411797009 17.999999179404284  16.667956075006057 22.982667853677256 17.999999252717203  15.707513123995268 25.127736206342156 17.999999309738371  14.440674009411586 27.129115942762425 17.999999350467775  12.891850294551176 28.937648780962995 17.999999374905414  11.09444568639738 30.508977342767047 17.999999383051296  9.0897329749044058 31.805457257631282 17.999999374905418  6.9252465063432851 32.797745917371898 17.999999350467796  4.6528131718192611 33.46591528745342 17.999999309738413  2.3264064964467988 33.799999955875776 17.999999252717338  3.0646596371752821e-12 33.799999951545516 17.999999179404554  
6 0 13 10.659936626552447 13.242552993958263 226.00000000000003  9.9695234777743718 13.798321004565533 226.00000000000006  9.2477202082570464 14.315093973639289 226.00000000000006  8.4969295060520214 14.790937745934878 226.00000000000006  7.7196851499512009 15.224081025570745 226  6.9186397449569066 15.612925252869106 226  6.0965516209767729 15.956053440071393 226  5.2562709955493929 16.25223788370505 226  4.4007255106945813 16.500446683012207 226  3.5329052616931373 16.699849007250478 226  2.6558474414358901 16.849819069841757 225.99999999999997  1.7726207276410988 16.949938784276654 226  0.88630954142403384 16.999999095379387 225.99999999999997  -1.6958866664307237e-06 17.000000000001826 226  
6 0 8 -1.6958866666527683e-06 17.000000000001826 226  -1.271914991107792e-06 18.802893487110389 217.94392033145408  -9.0851069727599617e-07 20.504444837438943 209.86516101152836  -6.0567378493533609e-07 22.104321200734912 201.76520935040082  -3.634042538637672e-07 23.602215919829067 193.64555852713352  -1.8170210472742329e-07 24.997848660231352 185.50770700814013  -6.0567336860170551e-08 26.290965522462741 177.35315796425974  4.9293901816900918e-14 27.48133913712314 169.1834186864356  5.3956838414447457e-14 28.568768742695347 161.00000000000006  
Polygon3D 0
PolygonOnTriangulations 0
Surfaces 6
8 0 0 10 7 0 -43.681250314947661 161.00000000000003  0 -49.826727892528112 141.24303283830577  0 -54.779914776420753 121.11520068119322  0 -58.513953871318066 100.70284619067596  0 -61.009804556250735 80.094740420569948  0 -62.256535611830387 59.381140201503605  0 -62.251444064657697 38.652808700713074  0 -60.999999948896061 17.999999156622685  
2.0283236403416782 -43.681250219113387 161.00000030809559  2.0709064613531147 -49.826727652174412 141.24303310781099  2.1134892823645517 -54.779914385293807 121.115200909108  2.1560721033759878 -58.513953322872901 100.70284637469042  2.1986549243874243 -61.009803843735376 80.094740559097374  2.2412377453988617 -62.256534728374412 59.381140293700668  2.2838205664102995 -62.251443003363143 38.65280874648667  2.3264033874217356 -60.999998702926987 17.999999156622692  
4.0566471446693466 -43.427292189430958 161.00000054772551  4.1649724319109787 -49.540300587111773 141.23817039328247  4.2653895081158613 -54.467054319371584 121.10758930573186  4.3580113686038038 -58.181455961315528 100.69434532495067  4.4429510086946244 -60.665050863106373 80.086900918414642  4.5203214237081353 -61.907313567721623 59.37517131318539  4.5902356089641536 -61.905764014378249 38.649566821019761  4.6528065597824915 -60.665913527625186 17.999999156601397  
6.0491989359178087 -42.919376245058807 161.00000071888968  6.2438260879888938 -48.967446717891228 141.22844469472022  6.4147286069497254 -53.841334600597889 121.09236587106476  6.5622454787597402 -57.516461809982289 100.67734304145671  6.6867156893783868 -59.975545639092751 80.071221498521751  6.7884782247651057 -61.20887215599361 59.363233259957717  6.867872070879347 -61.214407125217306 38.64308292431236  6.925236213680547 -59.997744451897503 17.999999156558815  
7.9702074401059786 -42.16326086990987 161.00000082158823  8.2690956093081436 -48.114525518801983 141.21385601212421  8.5205345122897977 -52.909715693638127 121.06953060510679  8.7252021209698238 -56.526532323914878 100.65183952420857  8.8837764072671117 -58.949450617112461 80.047702299418674  8.9969353431005441 -60.169973928984604 59.345326134017697  9.0653569003890144 -60.186736762050728 38.63335705636446  9.0897190510514072 -59.005456892290717 17.999999156494944  
9.78498257539108 -41.170461591586729 161.00000085582107  10.203642830328686 -46.994254296866941 141.19440434549443  10.543220974898773 -51.686116684935499 121.03908350785785  10.804846962299477 -55.226788368976869 100.61783477320616  10.98965074572895 -57.603088442449405 80.016343321105424  11.098762278385333 -58.80814331139883 59.321449935365322  11.133311513466777 -58.841479129003162 38.620389217176061  11.094428404171429 -57.708978832349665 17.999999156409778  
11.460996920857252 -39.958010065527859 161.0000008215882  12.012796512910404 -45.625423400137443 141.17008969483092  12.445972939412266 -50.191086615154262 121.001024579318  12.762221130160066 -53.639537678445279 100.57532878844955  12.963236014951013 -55.96052554099343 79.977144563581973  13.050712523582328 -57.149205421738976 59.291604664000545  13.026345585851239 -57.206218037190098 38.604179406747164  12.891830131554954 -56.137652775802785 17.999999156303325  
12.968899096275981 -38.547966184260503 161.00000071888965  13.665502242908694 -44.032319053559448 141.14091206013367  14.196032957769599 -48.451138041659071 120.9553538194872  14.562864142574815 -51.79351914210357 100.52432156993871  14.768368699040435 -54.05272713494675 79.930106026848406  14.814919528882575 -55.226351814626014 59.255790319923435  14.704889533817337 -55.316371373651194 38.584727625077775  14.440651615560837 -54.329122942108469 17.999999156175576  
14.283389074420931 -36.96671191041883 161.00000054772548  15.135302342967424 -42.243891109572431 141.10687144140266  15.76578570248485 -46.497788706694656 120.90207122836549  16.178003021928014 -49.722818392001734 100.4648131176737  16.375118170251728 -51.916346746164621 79.875227710904625  16.360295016410795 -53.078803901720434 59.214006903133949  16.136697429360037 -53.213728439852318 38.562033872167881  15.707489278054243 -52.32774652253778 17.999999156026536  
15.383902463767161 -35.244078611282362 161.00000026317429  16.532563133130147 -40.355264890837773 141.09084771178161  17.133567796892301 -44.366391981029444 120.84117680595281  17.585424769912439 -47.465549739265455 100.39680343165445  17.760721808636145 -49.59225962612998 79.812509615750699  17.663526744576739 -50.750197874862501 59.166254413632089  17.297907409247539 -50.944686367990919 38.536098148017487  16.667931634161874 -50.182681589645519 17.999999155856205  
16.255074967470161 -33.412373471145607 161  17.447556845127849 -38.213944671578247 141.02420125183949  18.28416799365192 -42.094849542018913 120.77267055224922  18.769994434913787 -45.062413587632101 100.32029251188098  18.910120958305107 -47.123964904962179 79.741951741386572  18.709632353217533 -48.286831590553419 59.112532851417853  18.173613409042733 -48.558341740950183 38.506920452626588  17.307147289182357 -47.945829142637294 17.999999154706479  

8 0 0 13 8 0 -16.999999999999979 226.00000000000006  6.5399075044325627e-15 -21.041083206462115 218.18925727169938  1.1242990665445108e-14 -24.885911330373446 210.2769770653552  1.4109249483037643e-14 -28.531507966712191 202.26891209155792  1.5138683957210168e-14 -31.975098985554947 194.1709201725713  1.4331294087962675e-14 -35.214117217915131 185.98895504568446  1.1687079875295173e-14 -38.246206569868988 177.72905704562527  7.2060413192076535e-15 -41.0692255649695 169.39734366603432  8.8817841970012523e-16 -43.681250314947661 160.99999999999994  
0.88630792860048324 -16.999999790315119 226.00000040528604  1.0478320071157288 -21.041083030052626 218.1892576345021  1.1872756712519221 -24.88591118144268 210.2769773910799  1.304638921009063 -28.531507840005826 202.26891238602244  1.3999217563871522 -31.975098876387701 194.1709204419663  1.4731241773861883 -35.214117122194473 185.98895529653211  1.5242461840061721 -38.246206484115774 177.7290572847358  1.5532877762471045 -41.069225500583102 169.39734390489357  1.5602489541089837 -43.68125024122898 161.00000023699653  
1.7726158011139226 -16.949940286788411 226.00000067547674  2.0847446732630956 -20.97581275919929 218.18452831620871  2.3561175724068182 -24.806055805397317 210.26913227549824  2.5865838679477404 -28.437861284260613 202.25944639173971  2.7760051626161335 -31.868602391790112 194.161200012488  2.9242481009718833 -35.095833974311113 185.98020842978494  3.0311771779064949 -38.117292291950726 177.7223631991981  3.0966475471450776 -40.930894256138529 169.39362234995849  3.1204978297483446 -43.534735974905608 161.00000043449373  
2.6558392307551362 -16.849821528482494 226.00000082899413  3.1060519537824178 -20.846155263831008 218.17594601246114  3.5001991222834414 -24.647934932692262 210.25489877874625  3.837866360718702 -28.252643357991804 202.24227519078687  4.1186726571694896 -31.657907826861731 194.14356986709888  4.3422507501614911 -34.861492834728672 185.96434581358233  4.5082275154884357 -37.861292319657878 177.7102241474964  4.6162043530357213 -40.655321416096783 169.38687372266989  4.6657375736040159 -43.241707524016036 161.00000059249143  
3.5328938309731615 -16.699852603365972 226.0000008842604  4.1073843810283428 -20.653108991493887 218.16438152773094  4.6137364430103691 -24.413240043637337 210.23572386181027  5.0511962983453245 -27.978096685334041 202.21914724130394  5.4190702829767226 -31.34562650161244 194.11982752322876  5.7166894836480093 -34.513856891638795 185.94298619212674  5.9433744341850892 -37.480877767593434 177.69387938896602  6.0983998117788669 -40.244823828861904 169.37778685329863  6.180959133267752 -42.803856193939239 161.00000071098978  
4.4007109583410431 -16.500451627618279 226.00000085969765  5.0846141737680464 -20.39773771160646 218.15070142685505  5.6913557318303694 -24.103678221276041 210.21304721773186  6.2198044890799906 -27.616523761216275 202.19180191650008  6.6689182717243289 -30.934567862106583 194.09176080771428  7.0376915738225465 -34.056119701747221 185.91773922468951  7.3251032554819187 -36.97947643428693 177.67456091499687  7.5300642410541379 -39.702895157869818 169.36704633248053  7.6513652173316586 -42.224564309144228 161.00000078998863  
5.2562534536923025 -16.252244414392848 226.00000077372783  6.0337691910807356 -20.081148588184778 218.13576975678848  6.7279415091079766 -23.720934503518343 210.18830422318359  7.3372612738647369 -27.170238458348475 202.16197319412316  7.8603361241144798 -30.427685017749646 194.06115179223391  8.2958218251761142 -33.491849633306394 185.89020917508103  8.6423536228066613 -36.361220940665682 177.65349640061021  8.8984775970839731 -39.034162762451018 169.35533423296997  9.0625820162893778 -41.508875626136771 161.00000082948804  
6.0965312546128132 -15.956061817970669 226.00000064477319  6.9509446398576742 -19.704500331876417 218.12044975665486  7.7184809419467619 -23.266685727836055 210.16292886998394  8.3972899871749132 -26.641580449359054 202.13139332085387  8.9856617290442635 -29.828084625648437 194.02978070199376  9.4819438729234875 -32.824990097479393 185.86199857604402  9.8844595007070009 -35.630934193203259 177.63191213597344  10.191424695474197 -38.244353277544008 169.34333181968952  10.400866166148649 -40.663435914518907 161.00000082948804  
6.9186167508076188 -15.612935759698841 226.00000049125578  7.8322218436048594 -19.269040863541925 218.10560556779606  8.6579201238255763 -22.742664916915661 210.13835669661174  9.3935948448866782 -26.032991398947615 202.10179647669733  10.037284957102056 -29.139099973692389 193.99942982441314  10.58709357952622 -32.059914606778065 185.83471189364622  11.041096471797813 -34.794151502143038 177.61103595791354  11.397250505983259 -37.340266876133128 169.33172125978032  11.653302138420285 -39.696404448069174 161.00000078998863  
7.7196597550469388 -15.224093960805948 226.00000033159762  8.6728212663552355 -18.77579923040923 218.0919679338806  9.5397074296411208 -22.15013295048248 210.11579455979719  10.318046908614049 -25.346348963709659 202.07463098943467  11.005728512363255 -28.363569880709324 193.97157653780945  11.600707052111154 -31.200733147880804 185.8096677415738  12.100909197966724 -33.856536999308517 177.59186702119547  12.504139335678907 -36.329386304381913 169.32105132223853  12.807985423390022 -38.617338229530056 161.00000071036141  
8.4969019660547751 -14.790953424116957 226.00000018422088  9.4651062334378668 -18.224739802385191 218.07979588633756  10.352366359923316 -21.48842849390936 210.09564066663904  11.156405918936171 -24.581147470742874 202.05033437466935  11.875098620195027 -27.501885142770103 193.94662002062424  12.506380050418334 -30.249439413335875 185.78717392078599  13.04815941403068 -32.822366672906156 177.57459582985291  13.498231273869154 -35.218930737236001 169.31139906217234  13.854187291889604 -37.43705168471125 161.00000058777937  
9.2476908055382534 -14.315112721855712 226.00000006754763  10.198895636277394 -17.615013258829169 218.06893536425773  11.080026326021358 -20.755398283063979 210.07758506586276  11.888988373586374 -23.735028099670711 202.02845894990196  12.623809611064898 -26.552539211490881 193.92401523976881  13.282568288845555 -29.20640257524515 185.76665303358874  13.863321160633102 -31.694881835692829 177.5587047284468  14.364031568468384 -34.015991540176969 169.30242844070176  14.782497527748294 -36.167455316932752 161.00000041721626  
9.9694925192665007 -13.798343160122505 226.00000000000003  10.874467377689292 -16.951232140337211 218.06108100010033  11.724708653533613 -19.958155472511713 210.06448699513987  12.518528302935003 -22.817218436376365 202.01251851936408  13.254311681994746 -25.526447362410426 193.90744274888112  13.930474397791835 -28.083764477396755 185.75148917121879  14.545419159394923 -30.486962749976271 177.54684525488238  15.097492628874333 -32.733680736202665 169.2956521189123  15.584942272314004 -34.821377425096962 161.0000002024417  
10.659904441395698 -13.242578902267581 226  11.555859974756952 -16.268892859473119 218.06904536117904  12.397694808389403 -19.156660824505309 210.07826501092012  13.184389403928606 -21.90300013115143 202.02985103905948  13.914924223010111 -24.505028113198755 193.92599553543346  14.58827972726947 -26.959862104434556 185.76889058987814  15.20343637834223 -29.264619438646118 177.56072829222998  15.759374637863942 -31.41641744962071 169.30370073232515  16.255074967470161 -33.412373471145607 161  

8 0 0 13 9 16.255074967470161 -33.412373471145614 160.99999999999994  17.18256087231503 -37.146928849259886 145.46326764031954  17.90245551849862 -40.344428868212177 129.76569164230514  18.416878081800693 -43.007925821821019 113.93847392706162  18.727947395645515 -45.140472723732707 98.012816415693891  18.837782156515146 -46.745122875524586 82.019921029306886  18.748501026656122 -47.824929650756793 65.990989689005545  18.462222623148577 -48.382946581043385 49.957224315868153  17.981065382407092 -48.422227830213984 33.949826830866556  17.307147289182357 -47.945829142637301 17.999999154706479  
18.021021327316273 -29.699339425870789 160.99999990894025  18.989188487925666 -32.981553125384437 145.42358161677421  19.989863280147343 -35.935716089732864 129.75121465249094  20.681882837802775 -38.385276861210684 113.94618961362988  21.064747424216488 -40.322143598762523 98.03399733236526  21.161945471483399 -41.757089031964469 82.046958131743295  20.994624140522678 -42.707913890597879 66.019259153480647  20.552861872093757 -43.186117263279783 49.981514693211935  19.821027207227562 -43.208933147868038 33.964739438220846  18.777926144757267 -42.79903075434752 17.999999156700557  
19.512239899280196 -25.855640925526767 160.99999995447004  20.451300321177168 -28.721094776842161 145.37465803345196  21.641582953790842 -31.389807376495924 129.70935296950302  22.451334843561291 -33.598725171472452 113.91502601203514  22.878316170099197 -35.334558423780429 98.01202644862812  22.963955542040686 -36.612045910631878 82.032614739110755  22.74544687964314 -37.456127973580223 66.012290712157906  22.202572344187836 -37.882247619059953 49.980212417560523  21.304480683711397 -37.914271129697617 33.966177373368112  20.009939235510096 -37.584000770671146 17.999999147741644  
20.718182572513033 -21.903444957781009 160.99999998758267  21.613496562776003 -24.402088567177046 145.3250796007035  22.942900474211829 -26.76682688217694 129.6558854802422  23.837970759479845 -28.723966609427318 113.86532929151554  24.295479783924886 -30.259840008525799 97.969207671913935  24.371325101208853 -31.390059539048533 81.998728546878098  24.115708266462327 -32.140490163639662 65.989267437478688  23.499925075973742 -32.526849246390348 49.967836219377006  22.48054571843938 -32.573489936042783 33.962189793371302  20.999733452233333 -32.312822155597146 17.999999130812739  
21.630270512194453 -17.865872489308995 160.99999999834426  22.484068284489922 -20.041439570196534 145.27709838012217  23.914047843521224 -22.091810199184629 129.59551232811614  24.870262080791541 -23.791274396313174 113.80320147617442  25.349121599889859 -25.129479250052775 97.912018055972524  25.417479995544745 -26.120479552163133 81.951310381379884  25.135449948164332 -26.786242649465066 65.955128210391848  24.467716821172324 -27.139922782570981 49.947826008368274  23.36102460884317 -27.201616678291739 33.954495098368028  21.744528331477586 -26.997771533131278 17.999999108896777  
22.241987403643787 -13.766786577021048 160.99999999999994  23.064379851227407 -15.650928865485318 145.23185616208403  24.561550161844703 -17.38025293275869 129.53099066387423  25.558402237490956 -18.818415864764017 113.73224644897127  26.051484755571511 -19.960945346888188 97.844158937879058  26.115052775478652 -20.818568167984875 81.893595349700604  25.815976208171833 -21.405924575905139 65.912313762976197  25.11427193398092 -21.731600285672219 49.921678688706052  23.949721248941618 -21.808094444724958 33.943701399250727  22.242228034364217 -21.651276151804939 17.999999084976643  
22.548949808952635 -9.6305803996990544 160.99999999999994  23.355930509639688 -11.241255896725015 145.19071128341457  24.890528935109366 -12.645348496881477 129.46545659905919  25.910102108521166 -13.820026803222586 113.6565553301029  26.411710399731003 -14.768137802854008 97.76987303049026  26.473414083948224 -15.495970961724918 81.829359935350197  26.165629022826799 -16.008802699337735 65.863752066479407  25.445711581016404 -16.309476882041182 49.891270128574725  24.24945498376168 -16.400956051067631 33.930633357868111  22.491430330699487 -16.28587084918259 17.999999062035169  
22.548954216956623 -5.4819652328836836 160.99999999999994  23.360194918931292 -6.8227642612358803 145.15529082097035  24.904386575912486 -7.8994219589666823 129.40251654477532  25.930168981919824 -8.8095235962684963 113.58082391256248  26.435361600956121 -9.5635471035274655 97.694074906398214  26.498192002757374 -10.162896318880883 81.763052482217859  26.189353334684611 -10.60283985787115 65.812975766876988  25.465615430763819 -10.880138494112256 49.858946498939297  24.261869204160753 -10.987681266401879 33.916384380606978  22.491432588390012 -10.914155016368049 17.999999043055151  
22.242000600740361 -1.3457583897446312 160.99999999999997  23.077162987419797 -2.4056163363004552 145.1272891413592  24.602232878183777 -3.1543993753739752 129.34589467047923  25.617190026631757 -3.7997752930614812 113.50989939349088  26.12073417567186 -4.3590375413504896 97.621847365332513  26.187580595832515 -4.8289170407500936 81.699289561514121  25.885373670063842 -5.1954233809988821 65.763668914844047  25.172436704467355 -5.4497250779409407 49.82717173003693  23.985955190106722 -5.575502902317286 33.902115164893054  22.242234768159538 -5.5487495625094327 17.999999031019406  
21.630292430461957 2.7533288553879158 161.00000000027438  22.505277489616788 1.9998353760480576 145.10843191871496  23.978775837102933 1.5773786022773653 129.29936993358481  24.963391913843225 1.1957816845514024 113.44869941159696  25.458700709471536 0.83287813420118795 97.558351475380988  25.532183929130866 0.49573622307100962 81.642766012777287  25.24505375611178 0.20546385530242173 65.719586002532324  24.559392988933304 -0.024838141168747718 49.79846453990983  23.41798971779842 -0.17190963401107684 33.889017715464874  21.744539423567041 -0.20225387930288452 17.999999028910743  
20.718213143484977 6.7909033502399083 161.00000000205796  21.642878697115904 6.3828078977211096 145.10059169538812  23.026867970976642 6.2825723541427871 129.26697831013792  23.95792236008074 6.1623235602694821 113.40247205779609  24.436360851670361 5.998091538911428 97.509115473571583  24.518668646881409 5.7992090139004233 81.598543844379307  24.256184908965665 5.5903670975669275 65.684811973979834  23.617023966844517 5.3867809686116361 49.775600664698267  22.552995662366147 5.2149821668479204 33.878430904530383  20.999748706326294 5.1127971945049735 17.999999039712005  
19.512279069010496 10.743102144172999 161.00000000754571  20.488834367099109 10.731384805895525 145.10580818479409  21.738645248927963 10.945449341610201 129.25304832480128  22.588329869392474 11.081778337328977 113.37684155661965  23.038693747287756 11.118794938742825 97.480085522994955  23.131420968677133 11.065900566214045 81.572102990647593  22.904479471263844 10.946442500803272 65.663807906520546  22.334353169999204 10.77476319993589 49.76164838862622  21.385403942147097 10.575593984710522 33.871860774615783  20.009958376926651 10.383976408615853 17.999999066406051  
18.021068761003836 14.586804542151501 161.00000001509136  19.033457589951482 15.027211783997672 145.12542237190894  20.089688037943734 15.538437586089545 129.26068573045615  20.82022236457281 15.920611635886356 113.37585999873191  21.225968937193478 16.159873876602042 97.475460972044743  21.329964443287366 16.262837654581389 81.567176571639976  21.153250004368697 16.245186626388882 65.659462744901816  20.683083194689068 16.116571377109373 49.758453226270234  19.900019341963187 15.893449252323791 33.870114642795485  18.777948820555238 15.599007136679868 17.999999111975818  
16.255128631603228 18.299844081820439 161  17.224674632821436 19.228537002428496 145.1569889940825  17.979887892598807 19.992282659651615 129.28637036456524  18.521269659063162 20.591388499837464 113.39506044837046  18.849321248197676 21.026162001606039 97.489975588464489  18.964543992949338 21.296910651645483 81.578032129324953  18.867439222872392 21.403941935030261 65.666146415127173  18.558508262431879 21.347563334414389 49.761234789593132  18.038252436092904 21.12808233245191 33.87021359644487  17.307173068320537 20.745806411796885 17.999999179404323  

8 0 0 10 3 10.659904441395689 -13.242578902267581 226  13.049119197025705 -21.312749454815684 204.85078762981081  14.933207421853574 -28.089824080412544 183.1432019528672  16.255074967470161 -33.412373471145607 161  
13.025106117290452 -11.338650954402739 226  15.391774592264685 -18.259005835758131 204.80783055255864  17.206198898464816 -24.03462976147048 183.09557740473838  18.550805235270108 -28.585429212288343 160.99999988162239  
15.012471555302023 -8.9653456115577495 226  17.32380668713769 -14.816849582997776 204.76487347530644  19.12579958861879 -19.714801543764018 183.06361786506969  20.37034067074093 -23.531999897977791 161  
16.517208836742729 -6.2070195718314105 226  18.766975405544226 -11.060128395213685 204.7219163980543  20.505291894214899 -15.129457166060895 183.02382582117093  21.688541609692749 -18.304916848821431 161  
17.456049753373247 -3.1747694480556872 226  19.659623465841698 -7.0815997037786884 204.67895932080214  21.349639248403061 -10.374421865105338 182.9840337772722  22.486973303937724 -12.96025945681113 161.00000000000003  
17.775209648106042 -2.1600664328325081e-05 226  19.962143222908431 -2.9882961880292438 204.63600224355002  21.633411018027473 -5.5323346391365256 182.94424173337342  22.754382132285958 -7.5562730390887474 161  
17.456057469383126 3.1747270223526423 226  19.660852873508613 1.1050080381436729 204.59304516629788  21.347874648174507 -0.6902467679463733 182.90444968947469  22.486984788145964 -2.1522860413471747 161.00000000000003  
16.517223922433274 6.2069794278150709 226  18.769433947095845 5.0835388279869385 204.55008808904572  20.501762492522545 4.0647904481390151 182.86465764557593  21.688564449420959 3.1923730825145356 161  
15.012493344921031 8.9653091246405943 226  17.327493833730145 8.8402634069283987 204.50713101179358  19.120504993527138 8.6501379510576903 182.82486560167717  20.370374610961964 8.41945899094463 161  
13.025133675072713 11.338619297624772 225.99999999999997  15.396689594498749 12.282424195350959 204.46417393454135  17.194011596176892 12.967532113580715 182.78060756198738  18.550850799824016 13.472892680250824 161.00000001961868  
10.659936626552447 13.242552993958265 226  13.055261130622441 15.336173306594269 204.42121685728929  14.924380540933504 17.02516993378762 182.7452815080724  16.255128631603199 18.299844081820432 161  

8 0 0 10 7 16.255128631603228 18.299844081820439 161  17.501687776026667 19.49387783688794 140.63041442096321  18.380819363694357 20.405144854724096 120.21350148718396  18.89372639011313 21.034383006563353 99.765860407275525  19.041612095068945 21.38233027982054 79.304090411610545  18.825679657277991 21.449724632865397 58.844790725121783  18.247132255456449 21.237304024067633 38.404560572742113  17.307173068320488 20.745806411797009 17.999999179404291  
15.383955377737458 20.13156004926882 161.00000000744487  16.585441400145825 21.671534551747527 140.65790053269779  17.210897945967265 22.72186478776311 120.23563438114107  17.684418600169856 23.483727887448488 99.789112142178553  17.865922197202092 23.890212657635313 79.324021148074408  17.756371280036902 23.941726996244935 58.858628702065268  17.356728391647238 23.638917355361393 38.411203277310307  16.667956075006053 22.982667853677256 17.99999925271721  
14.283440119949812 21.854201175747054 161.00000000000006  15.16900089845976 23.58386957785844 140.65860128085811  15.82594001010151 24.893420009494584 120.25530806241913  16.255006099409574 25.782071643429312 99.809780347570751  16.456947810918475 26.249489435720978 79.341737353665309  16.432513789162712 26.295787897225097 58.870929120221945  16.182452678676796 25.921532141105295 38.417107896613679  15.707513123995263 25.127736206342156 17.999999309738378  
12.96894702434923 23.435463029825719 161  13.690785069950014 25.397022957153418 140.67020763094806  14.241156865399645 26.881908547424334 120.27252253101821  14.620623894099021 27.888713591104644 99.827865023452233  14.829747639449012 28.416661219769317 79.357239028383205  14.86908958485051 28.465609230590637 58.881691979591849  14.739211213704399 28.036051565177097 38.422274430652223  14.440674009411582 27.129115942762425 17.999999350467782  
11.4610402839059 24.845513774631492 161.00000000000003  12.030864095033094 27.011320874610366 140.68015592961291  12.478212013195177 28.651976751614438 120.2872777869383  12.80348509796422 29.765539154129105 99.843366169822929  13.007084408912275 30.350852507027543 79.370526172228168  13.08941100561141 30.407554567181329 58.890917280174946  13.050865947633682 29.936078272009169 38.426702879425946  12.891850294551173 28.937648780962991 17.999999374905421  
9.7850201307647211 26.057971174629394 161  10.215695845116525 28.397813217174015 140.68844617685264  10.564720964158264 30.172106631489363 120.29957383017938  10.832362860937968 31.378462464406933 99.856283786682837  11.018888908503691 32.015409551879635 79.38159878520014  11.124566479903461 32.082402283860901 58.898605021971257  11.149662948185332 31.5798227609449 38.430393242934848  11.094445686397378 30.508977342767047 17.999999383051307  
7.9702382029846683 27.050775112345896 160.99999999999997  8.276334979958607 29.532213545503737 140.69507837266744  8.5334413997465024 31.415785425841378 120.30941066074139  8.7417178861771845 32.698744438863287 99.866617874032016  8.9013248630794717 33.379366949383609 79.390456867299179  9.0124227542822037 33.456960653820289 58.904755204980745  9.0751719836142222 32.931866983308211 38.433345521178936  9.0897329749044182 31.805457257631321 17.999999374905432  
6.0492222198359817 27.806893766478904 161  6.247453022686817 30.395731354457219 140.70005251705706  6.4211886469446338 32.362463945687942 120.31678827862447  6.5705093045238394 33.70407720467535 99.874368431870437  6.6954952073388565 34.418658142876467 79.397100418525255  6.796226567304128 34.505404436556226 58.909367829203454  6.8727835963341244 33.96462701475555 38.435559714158181  6.9252465063433881 32.797745917372069 17.99999935046781  
4.0566625871179545 28.314811510004425 161  4.1661884484298586 30.975649244508816 140.70336861002161  4.2675492502107613 32.998223019001799 120.32170668382848  4.3607717297654567 34.379339817314268 99.879535460198042  4.4458826243987781 35.116960415327682 79.401529438878384  4.5229086714156068 35.210209142536584 58.912442894639376  4.5918766081209075 34.659376593253185 38.437035821872605  4.652813171819731 33.465915287453932 17.999999309738424  
2.0283312123581507 28.568769829023701 161.00000000000003  2.0709133957991188 31.265607716316786 140.70502665156116  2.1134955792401056 33.316102160998163 120.32416587635356  2.1560777626810919 34.716970806552254 99.882118959014946  2.1986599461221434 35.466111311066506 79.403743928358509  2.2412421295634517 35.562611330647556 58.913980401288555  2.2838243130053821 35.006751292244282 38.437773844322251  2.3264064964484423 33.799999955877055 17.999999252717341  
-4.4408920985006262e-15 28.568768742695369 161  -2.1760371282653068e-14 31.265606790432368 140.70502664167563  6.2172489379008766e-15 33.316101393620897 120.32416585619957  5.6843418860808015e-14 34.7169701957258 99.882118928321049  2.55351295663786e-13 35.466110854822034 79.403743886965685  1.0418332863082469e-12 35.562611027010938 58.913980349150897  3.2303049124493555e-12 35.006751139243242 38.437773781507097  7.87236942301206e-12 33.799999951548322 17.999999179404561  

8 0 0 13 8 10.659936626552447 13.242552993958263 226.00000000000003  11.558183315578695 14.027660611196765 217.90795632148354  12.400050887416484 14.769415690709263 209.80550347798419  13.185322088032205 15.467645039750806 201.69313800606724  13.913779663392241 16.122175465576426 193.57135644229791  14.585206359462973 16.732833775441154 185.44065532324132  15.199384922210795 17.29944677660005 177.30153118546264  15.756098097602084 17.821841276308128 169.15448056552711  16.255128631603228 18.299844081820439 161  
9.9695234777743718 13.798321004565533 226.00000000000006  10.876158957562854 14.705059238019347 217.90097304423878  11.726184568127216 15.562760191066603 209.79385108950223  12.518613830487272 16.372099922077716 201.67892089474262  13.25253795712522 17.133661251503867 193.55651558493577  13.927077080594843 17.847904132042473 185.42700699929745  14.541331482130712 18.515136018802494 177.29079803950188  15.094332820257419 19.135482239469891 169.14831501789774  15.584995359398791 19.708856364473032 161.00000000572683  
9.2477202082570464 14.315093973639289 226.00000000000006  10.201869276264604 15.366389942021314 217.90221760255545  11.083897531961449 16.356037005184668 209.79612051351836  11.892314035660743 17.285271248323426 201.68189374680389  12.62575733344625 18.155174367526804 193.55979981875564  13.282914171521041 18.966624291705799 185.43016597280783  13.862438210556199 19.720245803855914 177.29337140409447  14.362868740039481 20.416361161655768 169.14983448400315  14.782549392624038 21.054940717401941 160.99999998467769  
8.4969295060520214 14.790937745934878 226.00000000000006  9.4687624698412591 15.974791862155843 217.9049651642429  10.35759776522711 17.08695693181323 209.80081191567771  11.161668272026667 18.12897956141888 201.68771509191748  11.879365784411878 19.102218482671788 193.56594500629757  12.509141251246568 20.007783960025012 185.43585173346835  13.049405016423453 20.846477196381336 177.29784939483795  13.498427059201209 21.618729736917654 169.15240044386175  13.854237234541465 22.324542871038133 160.99999995118344  
7.7196851499512009 15.224081025570745 226  8.6765579180550905 16.525465935839655 217.90840183849306  9.5452572218073328 17.748097644566602 209.80655850368299  10.32393155671031 18.893623492861131 201.69470976177558  11.01089892691158 19.963492705533742 193.57319773138755  11.604540434896691 20.958891770465105 185.442450070814  12.103193871182036 21.880679814474274 177.30296316501452  12.505047304007677 22.729323975685737 169.15528531231502  12.808032669030155 23.504834772395505 160.99999991082871  
6.9186397449569066 15.612925252869106 226  7.8357837112471556 17.019225335581684 217.91268837259358  8.6633392551296922 18.341561007871857 209.81366429334867  9.3995257999442714 19.58151027751266 201.70329109811883  10.042727569102304 20.740461617457733 193.58203232175762  10.591390131621623 21.819551155458086 185.45043528406381  11.043916947661121 22.819599858246207 177.30911467528921  11.398565914055506 23.741050710287329 169.15873614120662  11.653345909849953 24.583905887098144 160.99999986774  
6.0965516209767729 15.956053440071393 226  6.9541782649857806 17.455936984598239 217.9177501711859  7.7234927173704087 18.867729709621912 209.82202985596635  8.4029041574305374 20.192809940430504 201.71336813705716  8.9909700845305718 21.432389450682397 193.59238517917018  9.4863032090806598 22.587456952998842 185.4597773668973  9.8874783435179445 23.65872158201109 177.31630244198658  10.192939293287768 24.646556369862061 169.16276464000759  10.400905747824906 25.550941714162661 160.99999982640881  
5.2562709955493929 16.25223788370505 226  6.0365733379830324 17.834364440890379 217.92326540631925  6.7323566981167602 19.324997899692448 209.83113193553936  7.3423023553041151 20.725226272551815 201.72432013061288  7.8652151889524085 22.036003983923131 193.60362760239715  8.2999460876737459 23.258104804854888 185.46991652899746  8.6453143584360514 24.392074777850681 177.32410115432492  8.9000301357140774 25.438185132011839 169.16713528587002  9.0626167906404564 26.396385188461725 160.99999979169058  
4.4007255106945813 16.500446683012207 226  5.086924731621985 18.153032175367763 217.92884189803885  5.6950466859072559 19.711252931885401 209.84032667263955  6.2240906130218381 21.175855740581422 201.73537557652529  6.673149923906716 22.547492324328193 193.61497008565246  7.0413530841350944 23.826683514715629 185.48014222579013  7.3278044970750944 25.013783414081409 177.33196489814307  7.5315253870524179 26.108943545709842 169.17154220401983  7.651394682513061 27.112076992199597 160.99999976854505  
3.5329052616931373 16.699849007250478 226  4.1091728513075498 18.410543831811854 217.93408771605212  4.616634502152106 20.024421136773441 209.84897063583085  5.0546167898511349 21.54187529293629 201.74576350752395  5.4225098557708886 22.963245266741946 193.6256236938064  5.7197275031543784 24.288790480993061 185.48974444769192  5.9456672932561645 25.518666661811302 177.33934818727218  6.0996706414772071 26.652901671832275 169.17567976934532  6.1809829134996308 27.69137132963759 160.99999976193209  
2.6558474414358901 16.849819069841757 225.99999999999997  3.107323091560124 18.605549510399783 217.93861092880147  3.5022905711433623 20.262411916780348 209.85642039150912  3.8403766839684996 21.820476768564191 201.75471295362834  4.1212435481194873 23.279795518443308 193.63479948883815  4.3445664271673845 24.640387239661589 185.49801318240853  4.5100115613563112 25.902225258062849 177.345705533375  4.6172139987895138 27.065223768746101 169.17924235547008  4.6657554266153305 28.129224437328137 160.99999977681131  
1.7726207276410988 16.949938784276654 226  2.085532316394473 18.736743529082315 217.94201935253784  2.3574364900532485 20.423114038748782 209.86203207374126  2.5881966885353163 22.008865146417214 201.76145240444686  2.7776893003355867 23.493821331241367 193.64170795628866  2.9257955339609509 24.877811904691939 185.50423787723514  3.032393289365042 26.160666180261245 177.35049101578562  3.0973490293832135 27.342208626567619 169.18192408382572  3.1205096511673331 28.422254003859983 160.99999981814261  
0.88630954142403384 16.999999095379387 225.99999999999997  1.0481919450323955 18.802892817823118 217.94392030039324  1.1878917060852459 20.504444368020962 209.86516095410497  1.3054088245826128 22.104320896240999 201.76520927147607  1.4007433005244694 23.602215745839928 193.64555843171294  1.4738951339108548 24.997848582858126 185.50770690135528  1.5248643247417291 26.29096550835084 177.35315785134881  1.5536508730171252 27.481339153455462 169.18341857272509  1.5602547787370384 28.568768757194707 160.99999989088562  
-1.6958866664307237e-06 17.000000000001826 226  -1.2719149846684985e-06 18.802893487110385 217.94392033145408  -9.0851071066211375e-07 20.504444837438939 209.86516101152836  -6.0567380666398662e-07 22.104321200734908 201.76520935040082  -3.6340430509262944e-07 23.602215919829067 193.64555852713352  -1.8170215354551544e-07 24.997848660231348 185.50770700814013  -6.0567403314948365e-08 26.290965522462727 177.35315796425974  -1.1546319456101628e-14 27.481339137123133 169.1834186864356  1.4876988529977098e-14 28.56876874269534 161.00000000000006  

Triangulations 0

TShapes 43
Ve
0.0011
4.44089209850063e-16 -43.6812503149477 161
0 0

0101100
*
Ve
0.0011
0 -60.9999999488961 17.9999991566227
0 0

0101100
*
Ed
 1e-07 1 1 0
1  1 0 0 1
2  1 1 0 0 1
0

0101000
+43 0 -42 0 *
Ve
0.0011
16.2550749674702 -33.4123734711456 161
0 0

0101100
*
Ed
 1e-07 1 1 0
1  2 0 0 1
2  2 1 0 0 1
2  3 2 0 0 1
4 G1 1 0 2 0
0

0101000
+43 0 -40 0 *
Ve
0.0011
17.3071472891824 -47.9458291426373 17.9999991547065
0 0

0101100
*
Ed
 1e-07 1 1 0
1  3 0 0 1
2  4 1 0 0 1
2  5 3 0 0 1
4 G1 1 0 3 0
0

0101000
+40 0 -38 0 *
Ed
 1e-07 1 1 0
1  4 0 0 1
2  6 1 0 0 1
0

0101000
+42 0 -38 0 *
Wi

0101100
-41 0 +39 0 +37 0 -36 0 *
Fa
1  1e-07 1 0

0101000
+35 0 *
Ve
0.0011
0 -17 226
0 0

0101100
*
Ed
 1e-07 1 1 0
1  5 0 0 1
2  7 2 0 0 1
0

0101000
+33 0 -43 0 *
Ve
0.0011
10.6599044413957 -13.2425789022676 226
0 0

0101100
*
Ed
 1e-07 1 1 0
1  6 0 0 1
2  8 2 0 0 1
0

0101000
+33 0 -31 0 *
Ed
 1e-07 1 1 0
1  7 0 0 1
2  9 2 0 0 1
2  10 4 0 0 1
4 G1 2 0 4 0
0

0101000
+31 0 -40 0 *
Wi

0101100
-32 0 +30 0 +29 0 -39 0 *
Fa
1  1e-07 2 0

0101000
+28 0 *
Ve
0.0011
16.2551286316032 18.2998440818204 161
0 0

0101100
*
Ed
 1e-07 1 1 0
1  8 0 0 1
2  11 3 0 0 1
2  12 4 0 0 1
4 G1 3 0 4 0
0

0101000
+40 0 -26 0 *
Ve
0.0011
17.3071730683205 20.745806411797 17.9999991794043
0 0

0101100
*
Ed
 1e-07 1 1 0
1  9 0 0 1
2  13 3 0 0 1
2  14 5 0 0 1
4 G1 3 0 5 0
0

0101000
+26 0 -24 0 *
Ed
 1e-07 1 1 0
1  10 0 0 1
2  15 3 0 0 1
0

0101000
+38 0 -24 0 *
Wi

0101100
-37 0 +25 0 +23 0 -22 0 *
Fa
1  1e-07 3 0

0101000
+21 0 *
Ve
0.0011
10.6599366265524 13.2425529939583 226
0 0

0101100
*
Ed
 1e-07 1 1 0
1  11 0 0 1
2  16 4 0 0 1
0

0101000
+31 0 -19 0 *
Ed
 1e-07 1 1 0
1  12 0 0 1
2  17 4 0 0 1
2  18 6 0 0 1
4 G1 4 0 6 0
0

0101000
+19 0 -26 0 *
Wi

0101100
-29 0 +18 0 +17 0 -25 0 *
Fa
1  1e-07 4 0

0101000
+16 0 *
Ve
0.0011
2.52020626589911e-14 28.5687687426954 161
0 0

0101100
*
Ed
 1.75212648697779e-06 1 1 0
1  13 0 0 1
2  19 5 0 0 1
2  20 6 0 0 1
4 G1 5 0 6 0
0

0101000
+26 0 -14 0 *
Ve
0.0011
5.34683408659475e-12 33.7999999515451 17.9999991794046
0 0

0101100
*
Ed
 1e-07 1 1 0
1  14 0 0 1
2  21 5 0 0 1
0

0101000
+14 0 -12 0 *
Ed
 1e-07 1 1 0
1  15 0 0 1
2  22 5 0 0 1
0

0101000
+24 0 -12 0 *
Wi

0101100
-23 0 +13 0 +11 0 -10 0 *
Fa
1  1e-07 5 0

0101000
+9 0 *
Ve
0.0011
-1.69588666665277e-06 17.0000000000018 226
0 0

0101100
*
Ed
 1e-07 1 1 0
1  16 0 0 1
2  23 6 0 0 1
0

0101000
+19 0 -7 0 *
Ed
 1e-07 1 1 0
1  17 0 0 1
2  24 6 0 0 1
0

0101000
+7 0 -14 0 *
Wi

0101100
-17 0 +6 0 +5 0 -13 0 *
Fa
1  1e-07 6 0

0101000
+4 0 *
Sh

0101000
+34 0 +27 0 +20 0 +15 0 +8 0 +3 0 *
So

1100000
+2 0 *

+1 0 