DBRep_DrawableShape

CASCADE Topology V1, (c) Matra-Datavision
Locations 0
Curve2ds 12
6 0 1 0 0  0 1  
6 0 1 1 0  1 1  
6 0 1 0 0  1 0  
6 0 1 1 0  1 1  
6 0 1 0 1  1 1  
6 0 1 0 0  0 1  
6 0 1 1 0  1 1  
6 0 1 0 0  1 0  
6 0 1 0 1  1 1  
6 0 1 0 0  0 1  
6 0 1 0 0  1 0  
6 0 1 0 1  1 1  
Curves 10
6 0 3 5.8387755799960672 150.0000000000002 -36.900558300015902  5.8387755800014958 50.000000000000043 -36.900558300029871  5.8387755799989662 -50.000000000000128 -36.900558300027583  5.8387755800076349 -150.00000000000026 -36.900558300020919  
6 0 14 5.8387756000000044 150.00000000000014 -36.900558000000025  19.608881761742484 150.00000000000014 -40.922180850266905  33.58643094604497 150.00000000000196 -41.322575838368635  45.726191110592943 149.99999999999147 -37.181512050493339  61.698139109264943 150.00000000002987 -41.617892072259366  72.408674670584503 149.99999999993042 -28.088598094271035  81.354654257630983 150.00000000011838 -10.133932111095028  107.20595020704754 149.99999999985425 -66.948770611217213  104.082166712861 150.00000000013509 2.8742868486422708  131.66073352631096 149.99999999990692 -51.859607258820205  135.45233844598764 150.00000000004835 -24.052281778515976  153.13443426698998 149.99999999998283 -36.526597543550707  164.78329840139145 150.00000000000412 -36.156612213774565  178.35427964116184 150.00000000000014 -39.384251415725345  191.71011421098154 150.00000000000014 -42.969757404468453  
6 0 3 191.71011421106789 150.00000000000014 -42.969757405340921  191.71011421142495 49.999999999999986 -42.969757402523335  191.71011421079422 -50.000000000000171 -42.969757402909757  191.71011421056096 -150.00000000000031 -42.969757402074841  
6 0 14 5.8387756000550164 -150.00000000000031 -36.900557999986908  19.608881761789991 -150.00000000000028 -40.922180850060904  33.586430946085336 -150.00000000000671 -41.322575837955767  45.726191110635185 -149.99999999997007 -37.181512049873362  61.698139109314312 -150.000000000092 -41.617892071432571  72.408674670643705 -149.99999999981006 -28.088598093237536  81.354654257701256 -150.00000000028831 -10.133932109854804  107.20595020712942 -149.9999999996775 -66.948770609770122  104.0821667129546 -150.00000000027208 2.8742868502966701  131.66073352641646 -149.99999999982964 -51.859607256957275  135.45233844610414 -150.00000000007893 -24.052281776442328  153.13443426711228 -149.99999999997539 -36.526597541260401  164.7832984014986 -150.00000000000495 -36.156612211228634  178.35427964118597 -150.00000000000026 -39.384251412743055  191.71011421075815 -150.00000000000031 -42.969757400567062  
6 0 3 -71.929321302866754 150.00000000000014 -32.48658739852209  -71.929321303490639 49.999999999999972 -32.486587398398584  -71.92932130260445 -50.000000000000142 -32.486587398200854  -71.929321301790992 -150.00000000000026 -32.486587397746689  
6 0 11 -71.929321000000073 150.00000000000014 -32.486588000000033  -64.635151020876165 150.00000000000014 -29.881442879162336  -57.497691693802864 150.00000000000176 -27.978776572839088  -49.918655497601563 149.99999999999622 -25.766784771618639  -43.839452822285182 150.00000000000634 -27.256934918255126  -34.558533620744711 149.99999999999508 -21.944770697602973  -30.840930106591134 150.00000000000236 -29.16877552544479  -20.316955451681 150.00000000000139 -23.877105808136605  -15.939330792711598 149.99999999999812 -28.602353025723552  -8.4504494195053006 150.00000000000134 -31.511076067888073  -1.5907844759482472 150.0000000000002 -34.730722290588488  5.8387755800001102 150.0000000000002 -36.900558300009777  
6 0 11 -71.929320999996349 -150.00000000000037 -32.486587999988068  -64.635151020873479 -150.00000000000037 -29.881442879159486  -57.497691693800434 -150.00000000000284 -27.978776572838957  -49.918655497598834 -149.99999999999412 -25.766784771619228  -43.839452822281842 -150.00000000001057 -27.256934918255979  -34.558533620740633 -149.9999999999913 -21.944770697604046  -30.840930106586271 -150.00000000000506 -29.168775525446058  -20.316955451675312 -150.00000000000048 -23.877105808138047  -15.93933079270505 -149.99999999999872 -28.602353025725293  -8.4504494194979429 -150.00000000000134 -31.511076067890908  -1.590784475940481 -150.00000000000023 -34.730722290594905  5.8387755800062138 -150.00000000000023 -36.900558300026731  
6 0 3 -198.20494000000019 150.00000000000014 -44.980499000000052  -198.20494000006087 49.999999999999972 -44.980499000007057  -198.20494000012152 -50.000000000000199 -44.980499000014063  -198.20494000018215 -150.00000000000031 -44.980499000021084  
6 0 14 -198.20494000000019 150.00000000000014 -44.980499000000052  -188.62858048128504 150.00000000000014 -40.486174213180512  -179.29176896401538 150.00000000000165 -36.388495143169763  -171.83563493430393 149.99999999999298 -34.157995208800401  -157.66425615401505 150.00000000002183 -28.903125564937966  -163.84164923921725 149.99999999995723 -31.09466804646312  -125.42386598856049 150.00000000006239 -35.641189298642246  -159.43280954061444 149.99999999993102 -7.7950025672202834  -105.6961927866048 150.00000000006105 -69.211019339318256  -133.77346059403283 149.99999999995788 -10.843350422955297  -99.560678087620289 150.00000000002265 -55.583366501369028  -103.56230690006251 149.9999999999919 -41.173773736415882  -91.072877757569756 150.0000000000019 -40.84618107454898  -82.416256336735898 150.00000000000014 -36.23204420117807  -71.929321302798968 150.00000000000014 -32.486587399042321  
6 0 14 -198.20494000018215 -150.00000000000031 -44.980499000021084  -188.62858048140532 -150.00000000000034 -40.486174213285409  -179.29176896412912 -150.00000000000625 -36.388495143370214  -171.83563493443037 -149.99999999997408 -34.157995209099028  -157.66425615416469 -150.00000000007722 -28.903125565335756  -163.84164923939639 -149.99999999984422 -31.094668046960393  -125.42386598877258 -150.00000000023846 -35.641189299238988  -159.43280954086123 -149.99999999972357 -7.7950025679164945  -105.69619278688785 -150.00000000024966 -69.211019340114149  -133.77346059435578 -149.99999999982862 -10.843350423851149  -99.560678087993296 -150.00000000008902 -55.583366502362935  -103.56230690050836 -149.99999999996894 -41.173773737488403  -91.072877758115823 -150.00000000000713 -40.846181075592881  -82.41625633726315 -150.00000000000023 -36.232044201720356  -71.92932130218739 -150.00000000000028 -32.486587397189226  
Polygon3D 0
PolygonOnTriangulations 0
Surfaces 3
8 0 0 14 3 5.8387756000000044 150.00000000000014 -36.900558000000025  5.8387756000183408 49.999999999999972 -36.900557999995655  5.8387756000366791 -50.000000000000199 -36.900557999991285  5.8387756000550164 -150.00000000000031 -36.900557999986908  
19.608881761742484 150.00000000000014 -40.922180850266905  19.608881761758319 49.999999999999972 -40.922180850198238  19.608881761774153 -50.000000000000171 -40.922180850129578  19.608881761789991 -150.00000000000028 -40.922180850060904  
33.58643094604497 150.00000000000196 -41.322575838368635  33.586430946058435 49.999999999999062 -41.322575838231003  33.586430946071886 -50.000000000003809 -41.322575838093378  33.586430946085336 -150.00000000000671 -41.322575837955767  
45.726191110592943 149.99999999999147 -37.181512050493339  45.726191110607026 50.000000000004263 -37.181512050286685  45.726191110621116 -49.999999999982919 -37.181512050080023  45.726191110635185 -149.99999999997007 -37.181512049873362  
61.698139109264943 150.00000000002987 -41.617892072259366  61.698139109281414 49.999999999989207 -41.617892071983782  61.698139109297855 -50.000000000051394 -41.617892071708184  61.698139109314312 -150.000000000092 -41.617892071432571  
72.408674670584503 149.99999999993042 -28.088598094271035  72.40867467060427 50.000000000016897 -28.088598093926542  72.408674670623981 -49.999999999896588 -28.088598093582043  72.408674670643705 -149.99999999981006 -28.088598093237543  
81.354654257630983 150.00000000011838 -10.133932111095028  81.354654257654417 49.999999999982784 -10.133932110681684  81.354654257677836 -50.000000000152774 -10.133932110268262  81.354654257701256 -150.00000000028831 -10.133932109854882  
107.20595020704754 149.99999999985425 -66.948770611217213  107.20595020707489 50.000000000010303 -66.948770610735181  107.20595020710219 -49.999999999833605 -66.948770610252694  107.20595020712942 -149.9999999996775 -66.948770609770492  
104.082166712861 150.00000000013509 2.8742868486422708  104.0821667128923 49.999999999999304 2.8742868491928277  104.08216671292357 -50.00000000013641 2.8742868497445215  104.0821667129546 -150.00000000027208 2.8742868502953627  
131.66073352631096 149.99999999990692 -51.859607258820205  131.66073352634635 49.999999999994721 -51.859607258201294  131.66073352638165 -49.99999999991747 -51.859607257580024  131.66073352641658 -149.99999999982964 -51.859607256960885  
135.45233844598764 150.00000000004835 -24.052281778515976  135.45233844602728 50.000000000005883 -24.052281777829677  135.45233844606719 -50.00000000003655 -24.052281777136301  135.45233844610539 -150.00000000007893 -24.052281776450798  
153.13443426698998 149.99999999998283 -36.526597543550707  153.13443426703714 49.999999999996724 -36.526597542797873  153.13443426708187 -49.999999999989363 -36.526597542025428  153.13443426711933 -149.99999999997539 -36.526597541281689  
164.78329840139145 150.00000000000412 -36.156612213774565  164.78329840146921 50.000000000001094 -36.15661221294036  164.78329840150784 -50.000000000001947 -36.156612212100754  164.78329840152657 -150.00000000000495 -36.15661221131316  
178.35427964116184 150.00000000000014 -39.384251415725345  178.35427964137622 49.999999999999993 -39.384251414685565  178.35427964133248 -50.000000000000163 -39.384251413978063  178.35427964127464 -150.00000000000026 -39.38425141314093  
191.71011421098154 150.00000000000014 -42.969757404468453  191.71011421169746 49.999999999999993 -42.969757402572867  191.71011421125323 -50.000000000000163 -42.969757403187515  191.71011421101281 -150.00000000000031 -42.969757402165556  

8 0 0 11 3 -71.929321000000073 150.00000000000014 -32.486588000000033  -71.929320999998836 49.999999999999972 -32.486587999996047  -71.9293209999976 -50.000000000000199 -32.486587999992061  -71.929320999996349 -150.00000000000037 -32.486587999988068  
-64.635151020876165 150.00000000000014 -29.881442879162336  -64.63515102087527 49.999999999999972 -29.881442879161384  -64.635151020874375 -50.000000000000185 -29.881442879160439  -64.635151020873479 -150.00000000000037 -29.881442879159486  
-57.497691693802864 150.00000000000176 -27.978776572839088  -57.497691693802061 50.000000000000206 -27.978776572839045  -57.497691693801244 -50.000000000001315 -27.978776572838999  -57.497691693800434 -150.00000000000284 -27.978776572838957  
-49.918655497601563 149.99999999999622 -25.766784771618639  -49.918655497600653 49.999999999999439 -25.766784771618831  -49.918655497599744 -49.999999999997335 -25.766784771619026  -49.918655497598834 -149.99999999999412 -25.766784771619228  
-43.839452822285182 150.00000000000634 -27.256934918255126  -43.839452822284073 50.000000000000689 -27.256934918255407  -43.839452822282958 -50.000000000004938 -27.256934918255695  -43.839452822281842 -150.00000000001057 -27.256934918255979  
-34.558533620744711 149.99999999999508 -21.944770697602973  -34.558533620743347 49.999999999999631 -21.944770697603325  -34.55853362074199 -49.999999999995822 -21.944770697603687  -34.558533620740633 -149.9999999999913 -21.944770697604049  
-30.840930106591134 150.00000000000236 -29.16877552544479  -30.840930106589504 49.999999999999879 -29.168775525445206  -30.840930106587894 -50.000000000002593 -29.168775525445678  -30.840930106586271 -150.00000000000506 -29.168775525446076  
-20.316955451681 150.00000000000139 -23.877105808136605  -20.316955451679092 50.000000000000753 -23.877105808137095  -20.316955451677263 -49.999999999999886 -23.877105808137745  -20.316955451675312 -150.00000000000048 -23.877105808138069  
-15.939330792711598 149.99999999999812 -28.602353025723552  -15.939330792709384 49.999999999999169 -28.602353025724252  -15.939330792707526 -49.999999999999794 -28.602353025725186  -15.939330792704993 -149.99999999999875 -28.602353025725144  
-8.4504494195053006 150.00000000000134 -31.511076067888073  -8.4504494195027178 50.000000000000469 -31.511076067889533  -8.4504494195013145 -50.000000000000455 -31.511076067890563  -8.4504494194974313 -150.00000000000136 -31.511076067889853  
-1.5907844759482472 150.0000000000002 -34.730722290588488  -1.5907844759451493 50.000000000000036 -34.730722290592347  -1.5907844759451493 -50.000000000000149 -34.730722290591714  -1.590784475937923 -150.00000000000026 -34.730722290590336  
5.8387755800001102 150.0000000000002 -36.900558300009777  5.8387755800034853 50.000000000000057 -36.900558300021956  5.8387755800000818 -50.000000000000128 -36.900558300011831  5.8387755800155929 -150.00000000000026 -36.900558300009436  

8 0 0 14 3 -198.20494000000019 150.00000000000014 -44.980499000000052  -198.20494000006087 49.999999999999972 -44.980499000007057  -198.20494000012152 -50.000000000000199 -44.980499000014063  -198.20494000018215 -150.00000000000031 -44.980499000021084  
-188.62858048128504 150.00000000000014 -40.486174213180512  -188.62858048132514 49.999999999999972 -40.486174213215477  -188.62858048136522 -50.000000000000199 -40.48617421325045  -188.62858048140532 -150.00000000000034 -40.486174213285409  
-179.29176896401538 150.00000000000165 -36.388495143169763  -179.29176896405332 49.999999999998998 -36.388495143236582  -179.29176896409123 -50.000000000003631 -36.388495143303388  -179.29176896412912 -150.00000000000625 -36.388495143370214  
-171.83563493430393 149.99999999999298 -34.157995208800401  -171.83563493434607 50.000000000003936 -34.157995208899948  -171.83563493438825 -49.999999999985093 -34.157995208999488  -171.83563493443037 -149.99999999997408 -34.157995209099028  
-157.66425615401505 150.00000000002183 -28.903125564937966  -157.66425615406496 49.999999999988788 -28.90312556507056  -157.66425615411484 -50.000000000044182 -28.903125565203155  -157.66425615416469 -150.00000000007722 -28.903125565335756  
-163.84164923921725 149.99999999995723 -31.09466804646312  -163.84164923927696 50.000000000023398 -31.094668046628875  -163.84164923933665 -49.999999999910422 -31.094668046794631  -163.84164923939639 -149.99999999984422 -31.0946680469604  
-125.42386598856049 150.00000000006239 -35.641189298642246  -125.42386598863118 49.999999999962064 -35.641189298841155  -125.42386598870189 -50.000000000138222 -35.641189299040072  -125.42386598877258 -150.00000000023846 -35.641189299238995  
-159.43280954061444 149.99999999993102 -7.7950025672202834  -159.43280954069667 50.000000000046136 -7.795002567452304  -159.43280954077875 -49.999999999838728 -7.7950025676844135  -159.43280954086123 -149.99999999972357 -7.7950025679164519  
-105.6961927866048 150.00000000006105 -69.211019339318256  -105.69619278669944 49.999999999957453 -69.211019339583359  -105.69619278679201 -50.000000000146144 -69.211019339848804  -105.69619278688785 -150.00000000024966 -69.21101934011385  
-133.77346059403283 149.99999999995788 -10.843350422955297  -133.7734605941429 50.000000000029054 -10.843350423253483  -133.77346059424386 -49.999999999899778 -10.843350423552835  -133.77346059435578 -149.99999999982859 -10.843350423849884  
-99.560678087620289 150.00000000002265 -55.583366501369028  -99.560678087756173 49.999999999985405 -55.583366501699757  -99.560678087864574 -50.000000000051799 -55.583366502034238  -99.560678087995115 -150.00000000008896 -55.583366502356981  
-103.56230690006251 149.9999999999919 -41.173773736415882  -103.56230690025444 50.00000000000496 -41.173773736775573  -103.56230690037961 -49.999999999981952 -41.173773737141261  -103.56230690052109 -149.99999999996885 -41.173773737460451  
-91.072877757569756 150.0000000000019 -40.84618107454898  -91.072877757866479 49.999999999998877 -40.846181074921574  -91.072877758051305 -50.000000000004121 -40.846181075274387  -91.072877758146745 -150.00000000000705 -40.846181075480658  
-82.416256336735898 150.00000000000014 -36.23204420117807  -82.416256337055046 49.999999999999993 -36.232044201505474  -82.416256337395993 -50.000000000000121 -36.232044201633727  -82.416256337195847 -150.00000000000014 -36.232044201342163  
-71.929321302798968 150.00000000000014 -32.486587399042321  -71.929321302180597 49.999999999999972 -32.486587399176088  -71.929321302628182 -50.000000000000142 -32.486587398311002  -71.929321301239696 -150.0000000000002 -32.486587396091821  

Triangulations 0

TShapes 26
Ve
0.0011
5.83877558999804 150 -36.900558150008
0 0

0101100
*
Ve
0.0011
5.83877559003133 -150 -36.9005581500039
0 0

0101100
*
Ed
 3.30773712198584e-07 1 1 0
1  1 0 0 1
2  1 1 0 0 1
2  2 2 0 0 1
4 G1 1 0 2 0
0

0101000
+26 0 -25 0 *
Ve
0.0011
191.710114211068 150 -42.9697574053409
0 0

0101100
*
Ed
 1e-07 1 1 0
1  2 0 0 1
2  3 1 0 0 1
0

0101000
+26 0 -23 0 *
Ve
0.0011
191.710114210561 -150 -42.9697574020748
0 0

0101100
*
Ed
 1e-07 1 1 0
1  3 0 0 1
2  4 1 0 0 1
0

0101000
+23 0 -21 0 *
Ed
 1e-07 1 1 0
1  4 0 0 1
2  5 1 0 0 1
0

0101000
+25 0 -21 0 *
Wi

0101100
-24 0 +22 0 +20 0 -19 0 *
Fa
1  1e-07 1 0

0101000
+18 0 *
Ve
0.0011
-71.9293211514334 150 -32.4865876992611
0 0

0101100
*
Ve
0.0011
-71.9293211508937 -150 -32.4865876988674
0 0

0101100
*
Ed
 7.41024406212142e-07 1 1 0
1  5 0 0 1
2  6 2 0 0 1
2  7 3 0 0 1
4 G1 2 0 3 0
0

0101000
+16 0 -15 0 *
Ed
 1e-07 1 1 0
1  6 0 0 1
2  8 2 0 0 1
0

0101000
+16 0 -26 0 *
Ed
 1e-07 1 1 0
1  7 0 0 1
2  9 2 0 0 1
0

0101000
+15 0 -25 0 *
Wi

0101100
-14 0 +13 0 +24 0 -12 0 *
Fa
1  1e-07 2 0

0101000
+11 0 *
Ve
0.0011
-198.20494 150 -44.9804990000001
0 0

0101100
*
Ve
0.0011
-198.204940000182 -150 -44.9804990000211
0 0

0101100
*
Ed
 1e-07 1 1 0
1  8 0 0 1
2  10 3 0 0 1
0

0101000
+9 0 -8 0 *
Ed
 1e-07 1 1 0
1  9 0 0 1
2  11 3 0 0 1
0

0101000
+9 0 -16 0 *
Ed
 1e-07 1 1 0
1  10 0 0 1
2  12 3 0 0 1
0

0101000
+8 0 -15 0 *
Wi

0101100
-7 0 +6 0 +14 0 -5 0 *
Fa
1  1e-07 3 0

0101000
+4 0 *
Sh

0101000
+17 0 +10 0 +3 0 *
So

1100000
+2 0 *

+1 0 