DBRep_DrawableShape

CASCADE Topology V1, (c) Matra-Datavision
Locations 0
Curve2ds 48
6 0 1 0 1  1 1  
6 0 1 0 0  0 1  
6 0 1 0 0  1 0  
6 0 1 0 1  1 1  
6 0 1 1 0  1 1  
6 0 1 0 0  0 1  
6 0 1 0 0  0 1  
6 0 1 0 0  1 0  
6 0 1 0 1  1 1  
6 0 1 1 0  1 1  
6 0 1 0 0  0 1  
6 0 1 0 1  1 1  
6 0 1 0 0  1 0  
6 0 1 0 1  1 1  
6 0 1 1 0  1 1  
6 0 1 0 0  0 1  
6 0 1 0 0  0 1  
6 0 1 0 0  1 0  
6 0 1 1 0  1 1  
6 0 1 0 0  0 1  
6 0 1 0 0  1 0  
6 0 1 0 1  1 1  
6 0 1 1 0  1 1  
6 0 1 0 0  0 1  
6 0 1 0 1  1 1  
6 0 1 0 0  1 0  
6 0 1 0 1  1 1  
6 0 1 1 0  1 1  
6 0 1 0 0  0 1  
6 0 1 0 0  1 0  
6 0 1 1 0  1 1  
6 0 1 0 0  0 1  
6 0 1 0 0  1 0  
6 0 1 0 1  1 1  
6 0 1 1 0  1 1  
6 0 1 0 0  0 1  
6 0 1 0 0  1 0  
6 0 1 0 1  1 1  
6 0 1 1 0  1 1  
6 0 1 0 1  1 1  
6 0 1 0 0  1 0  
6 0 1 1 0  1 1  
6 0 1 0 0  0 1  
6 0 1 0 0  1 0  
6 0 1 0 1  1 1  
6 0 1 1 0  1 1  
6 0 1 0 0  1 0  
6 0 1 1 0  1 1  
Curves 31
6 0 6 8.6422072508816044 -149.99999999999943 -27.301559563736205  15.393813041437383 -149.99999999999611 -29.273397093750567  22.006525274439323 -149.99999999999471 -30.031273538808197  29.515491139236204 -149.99999999998457 -29.974380064045285  36.375569188325557 -149.99999999998482 -29.38215848081839  43.606224153967176 -149.99999999998113 -28.089502198129949  51.160942138298047 -149.99999999997723 -26.60606265979364  
6 0 1 8.6422072509040735 -49.999999999999318 -27.301559563752509  8.6422072508816044 -149.99999999999943 -27.301559563736202  
6 0 6 8.6422072509041001 -49.999999999999361 -27.301559563752498  15.393813041467638 -49.999999999996 -29.273397093800291  22.006525274477269 -49.999999999993527 -30.031273538890744  29.515491139268963 -49.999999999986919 -29.974380064165047  36.375569188360643 -49.999999999984553 -29.382158480972809  43.606224154000721 -49.999999999980879 -28.08950219832197  51.160942138330419 -49.999999999977 -26.606062660025174  
6 0 1 51.160942138330448 -49.999999999976986 -26.606062660025188  51.16094213829804 -149.99999999997721 -26.606062659793626  
6 0 1 8.6422072509341259 83.333333333334366 -27.301559563774209  8.642207250904125 -49.999999999999403 -27.30155956375248  
6 0 6 8.6422072509341135 83.333333333334309 -27.301559563774227  15.393813041507997 83.333333333337649 -29.273397093866595  22.00652527452776 83.3333333333415 -30.031273539000782  29.515491139315611 83.333333333345124 -29.974380064324006  36.375569188407191 83.333333333349302 -29.382158481178742  43.606224154045385 83.333333333352925 -28.089502198577993  51.160942138373464 83.333333333356777 -26.606062660333848  
6 0 1 51.160942138373464 83.333333333356791 -26.606062660333869  51.160942138330419 -49.999999999977035 -26.606062660025184  
6 0 5 51.160942138298054 -149.99999999997715 -26.606062659793611  60.226603719495145 -149.99999999997249 -24.825935213790057  69.781772506682202 -149.99999999996757 -22.758962773077997  79.914022806321043 -149.99999999996189 -21.62411664553564  89.587127387819237 -149.99999999995694 -21.277508116752262  99.126754667445041 -149.99999999995208 -21.277195131769911  
6 0 5 51.160942138330427 -49.999999999977007 -26.606062660025188  60.226603719526054 -49.999999999972353 -24.825935214069037  69.781772506709117 -49.999999999967422 -22.75896277340788  79.914022806340412 -49.999999999961936 -21.624116645916409  89.587127387847815 -49.999999999956962 -21.277508117184791  99.126754667471474 -49.999999999951982 -21.277195132253517  
6 0 1 99.1267546674719 -49.999999999952053 -21.27719513225238  99.126754667444231 -149.99999999995225 -21.277195131770064  
6 0 1 8.6422072509491219 150.00000000000094 -27.301559563785105  8.6422072509341028 83.333333333334267 -27.301559563774241  
6 0 6 8.6422072509491201 150.00000000000097 -27.301559563785101  15.393813041528173 150.00000000000432 -29.273397093899764  22.006525274553251 150.00000000000887 -30.031273539055892  29.5154911393366 150.00000000001066 -29.974380064403682  36.375569188431122 150.00000000001614 -29.382158481281582  43.606224154067782 150.00000000001972 -28.08950219870605  51.160942138395008 150.00000000002359 -26.606062660488249  
6 0 1 51.160942138394972 150.00000000002356 -26.606062660488242  51.160942138373471 83.333333333356677 -26.60606266033388  
6 0 5 51.160942138373471 83.333333333356677 -26.60606266033389  60.22660371956718 83.333333333361296 -24.825935214440943  69.781772506743678 83.333333333366255 -22.758962773847852  79.914022806351866 83.333333333372053 -21.624116646423229  89.587127387885786 83.333333333376885 -21.277508117760139  99.12675466750791 83.333333333381745 -21.277195132898235  
6 0 1 99.126754667507512 83.333333333381773 -21.277195132898669  99.126754667471701 -49.999999999952024 -21.277195132254374  
6 0 5 99.1267546674448 -149.99999999995237 -21.277195131769972  108.66638194707059 -149.99999999994739 -21.276882146787433  118.0743641288911 -149.99999999994253 -21.62286464549334  127.58520497597247 -149.99999999993798 -22.129235340814962  137.04363498546388 -149.99999999993318 -22.971522936685201  146.52453675109959 -149.99999999992815 -24.118530559321155  
6 0 5 99.126754667471715 -49.99999999995201 -21.277195132253475  108.66638194709554 -49.999999999947036 -21.276882147322503  118.07436412948081 -49.999999999942119 -21.62286464607935  127.58520497594785 -49.999999999937572 -22.129235341405835  137.04363498546817 -49.999999999932584 -22.971522937357012  146.52453675113142 -49.999999999927525 -24.118530560062432  
6 0 5 146.52453675112258 -49.999999999927496 -24.118530560017327  146.52453675111755 -69.999999999928136 -24.118530559871367  146.52453675111286 -89.999999999933337 -24.118530559725826  146.52453675110888 -109.99999999993175 -24.118530559611489  146.52453675110436 -129.99999999992767 -24.118530559466336  146.52453675109965 -149.99999999992815 -24.118530559321158  
6 0 5 51.160942138394944 150.00000000002359 -26.606062660488242  60.226603719587629 150.00000000002819 -24.825935214626877  69.781772506770253 150.00000000003314 -22.758962774065907  79.914022806411353 150.00000000003925 -21.624116646684552  89.587127387899642 150.00000000004385 -21.277508118051312  99.126754667520032 150.00000000004852 -21.277195133219106  
6 0 1 99.126754667520117 150.00000000004852 -21.277195133219092  99.12675466750845 83.333333333381717 -21.277195132897784  
6 0 5 99.126754667507214 83.333333333381788 -21.277195132898093  108.6663819471291 83.333333333386719 -21.276882148035508  118.07436413019741 83.33333333339165 -21.622864646861292  127.58520497585822 83.333333333396808 -22.129235342285686  137.04363498549495 83.333333333401882 -22.971522938245812  146.52453675121308 83.333333333407367 -24.118530561059689  
6 0 5 146.52453675121808 83.333333333407296 -24.118530561089099  146.52453675120677 56.666666666739438 -24.11853056088939  146.52453675119722 30.000000000070937 -24.118530560691493  146.52453675115433 3.3333333334069053 -24.118530560497479  146.52453675114708 -23.333333333259951 -24.11853056030213  146.52453675114037 -49.999999999927496 -24.118530560107512  
6 0 6 146.52453675113145 -49.999999999927482 -24.118530560062428  154.42528822251748 -49.999999999923268 -25.074370245650279  162.34102086466544 -49.999999999919005 -26.233356615740952  170.69619249174175 -49.999999999915481 -27.833528578639601  177.75018689677211 -49.999999999910216 -29.02865476544795  186.3601483797988 -49.999999999910003 -31.179421337665243  194.30290636722438 -49.999999999914117 -33.311733337864197  
6 0 1 194.30290636713275 -49.999999999954603 -33.311733337203471  194.30290636724416 -149.99999999994844 -33.311733337118348  
6 0 6 146.52453675109956 -149.99999999992798 -24.118530559321183  154.42528822246268 -149.99999999992377 -25.074370244851149  162.34102086458864 -149.99999999991942 -26.233356614891594  170.69619248961715 -149.99999999991456 -27.833528577277637  177.75018689859544 -149.99999999991078 -29.02865476485491  186.36014837987506 -149.99999999990754 -31.179421336619082  194.30290636719977 -149.99999999990786 -33.31173333691153  
6 0 5 99.12675466752134 150.00000000004854 -21.277195133219141  108.66638194714173 150.00000000005346 -21.276882148387834  118.07436412397143 150.00000000005838 -21.622864647244992  127.58520497679427 150.00000000006392 -22.129235342796857  137.04363498551587 150.00000000006909 -22.971522938943366  146.52453675106187 150.00000000007498 -24.118530561548873  
6 0 5 146.52453675106185 150.00000000007495 -24.118530561548866  146.52453675105417 136.66666666674098 -24.118530561446953  146.52453675104707 123.33333333341507 -24.118530561345619  146.52453675121996 110.00000000008319 -24.118530561230422  146.52453675121384 96.666666666741193 -24.118530561130122  146.52453675120819 83.333333333407296 -24.118530561030276  
6 0 6 146.52453675121308 83.333333333407353 -24.118530561059686  154.42528822264487 83.333333333411915 -25.074370246737914  162.3410208647976 83.333333333416761 -26.233356616985304  170.69619249197615 83.333333333420228 -27.833528580043467  177.75018689641317 83.333333333431099 -29.028654766168458  186.36014838046822 83.333333333436457 -31.179421339067257  194.30290636807584 83.333333333448721 -33.311733339822325  
6 0 1 194.30290636835917 83.33333333347025 -33.311733340475762  194.30290636697211 -49.999999999892566 -33.311733338042139  
6 0 6 146.52453675106176 150.00000000007503 -24.118530561548887  154.4252882223501 150.00000000007995 -25.074370247053473  162.34102086485476 150.00000000008532 -26.233356616864054  170.69619247900769 150.0000000000893 -27.833528576004966  177.75018691125871 150.00000000010485 -29.028654771875466  186.36014837953684 150.00000000011673 -31.179421339919365  194.30290636719062 150.00000000014643 -33.311733340111942  
6 0 1 194.30290636673874 150.00000000015851 -33.311733340005361  194.30290636849631 83.3333333334608 -33.311733339401243  
Polygon3D 0
PolygonOnTriangulations 0
Surfaces 12
8 0 0 10 1 8.6422072509040717 -49.999999999999318 -27.301559563752509  8.6422072508816026 -149.99999999999943 -27.301559563736202  
12.693170725242199 -49.9999999999973 -28.484662081781188  12.693170725215071 -149.99999999999744 -28.484662081744819  
16.697836347062353 -49.99999999999558 -29.263110904824085  16.697836347030591 -149.99999999999608 -29.26311090476786  
20.791922330615986 -49.999999999994067 -29.682153070619275  20.791922330582889 -149.99999999999136 -29.682153070543784  
25.113149973993984 -49.999999999990436 -29.858297802643804  25.113149973962212 -149.99999999999196 -29.858297802544886  
29.376726686524179 -49.999999999990187 -29.780627177126146  29.376726686490706 -149.99999999998502 -29.780627177006192  
33.617218348557174 -49.999999999985668 -29.511392882073157  33.617218348522329 -149.99999999998755 -29.511392881931467  
37.880531663992009 -49.999999999984212 -29.012199515580836  37.880531663958109 -149.99999999998329 -29.012199515418285  
42.203301563364619 -49.999999999981569 -28.322595687432706  42.203301563330733 -149.99999999998184 -28.322595687247919  
46.628111347732613 -49.999999999979309 -27.496126383003279  46.628111347699495 -149.99999999997956 -27.496126382795421  
51.160942138330455 -49.999999999976978 -26.606062660025206  51.160942138298005 -149.99999999997723 -26.606062659793633  

8 0 0 10 1 8.6422072509341259 83.333333333334366 -27.301559563774209  8.642207250904125 -49.999999999999403 -27.30155956375248  
12.693170725278456 83.33333333333637 -28.484662081829633  12.693170725242242 -49.999999999997392 -28.484662081781153  
16.697836347104754 83.333333333338544 -29.263110904898998  16.697836347062395 -49.999999999995673 -29.263110904824046  
20.791922330661585 83.333333333339866 -29.682153070720677  20.791922330617304 -49.999999999991992 -29.682153070619719  
25.113149974040354 83.333333333341656 -29.858297802773858  25.113149973997526 -49.999999999989178 -29.858297802642589  
29.376726686571732 83.333333333345436 -29.780627177285321  29.376726686526979 -49.999999999987665 -29.780627177124561  
33.617218348604339 83.33333333334663 -29.511392882260235  33.617218348558481 -49.999999999985242 -29.511392882072101  
37.880531664039268 83.333333333350254 -29.012199515797356  37.880531663992514 -49.999999999983828 -29.012199515580427  
42.203301563409767 83.333333333352286 -28.322595687679026  42.203301563364725 -49.999999999981647 -28.322595687432642  
46.628111347776638 83.333333333354517 -27.496126383280327  46.628111347732606 -49.999999999979387 -27.496126383003219  
51.160942138373464 83.333333333356819 -26.606062660333837  51.160942138330419 -49.999999999977064 -26.606062660025131  

8 0 0 9 3 51.160942138330384 -49.999999999977014 -26.60606266002517  51.160942138319655 -83.333333333310406 -26.606062659947977  51.160942138308783 -116.66666666664378 -26.606062659870801  51.160942138298054 -149.99999999997721 -26.606062659793608  
56.197420794550169 -49.999999999974428 -25.617102967827304  56.197420794539717 -83.33333333330782 -25.617102967741342  56.197420794529116 -116.66666666664119 -25.61710296765537  56.197420794518663 -149.99999999997462 -25.617102967569409  
61.369873674654521 -49.999999999971763 -24.548464110433759  61.369873674642527 -83.333333333305163 -24.548464110339115  61.369873674637361 -116.66666666663853 -24.548464110243046  61.369873674625374 -149.99999999997198 -24.548464110148405  
66.690374305789604 -49.999999999968814 -23.504456345427922  66.690374305781418 -83.333333333302292 -23.504456345321397  66.690374305765445 -116.66666666663568 -23.504456345223772  66.69037430575726 -149.99999999996905 -23.504456345117255  
72.141356823810298 -49.999999999966917 -22.605374978951691  72.14135682379225 -83.333333333300487 -22.605374978844182  72.141356823806376 -116.66666666663407 -22.605374978711552  72.141356823788342 -149.99999999996723 -22.605374978604054  
77.644700595868116 -49.999999999961872 -21.984947438080859  77.644700595854331 -83.333333333295897 -21.984947437949604  77.644700595856335 -116.66666666662859 -21.984947437849907  77.644700595842579 -149.99999999996191 -21.98494743771867  
83.098405011280249 -49.999999999961261 -21.59421567671609  83.098405011271069 -83.333333333294988 -21.594215676587478  83.098405011260297 -116.6666666666288 -21.594215676441628  83.098405011251131 -149.99999999996169 -21.594215676313048  
88.490091772918618 -49.999999999957382 -21.37373609989891  88.490091772904051 -83.33333333329125 -21.373736099755561  88.49009177291083 -116.66666666662448 -21.373736099616096  88.490091772896278 -149.99999999995762 -21.373736099472804  
93.826961734346895 -49.999999999954653 -21.277369012770169  93.826961734338923 -83.333333333288365 -21.277369012617893  93.826961734327568 -116.66666666662159 -21.277369012467844  93.82696173431961 -149.99999999995489 -21.277369012315656  
99.126754667471161 -49.999999999951925 -21.277195132252643  99.126754667463544 -83.333333333285523 -21.277195132091396  99.126754667452659 -116.66666666661875 -21.27719513193102  99.126754667445056 -149.99999999995219 -21.277195131769904  

8 0 0 10 1 8.6422072509491219 150.00000000000094 -27.301559563785105  8.6422072509341028 83.333333333334267 -27.301559563774241  
12.693170725296554 150.00000000000296 -28.484662081853902  12.693170725278431 83.33333333333627 -28.484662081829661  
16.697836347125993 150.00000000000537 -29.263110904936521  16.697836347104712 83.333333333338445 -29.263110904899019  
20.791922330684613 150.00000000000804 -29.682153070771527  20.791922330663017 83.33333333334069 -29.682153070721071  
25.11314997406425 150.00000000000711 -29.858297802838571  25.113149974043061 83.333333333345053 -29.858297802772935  
29.3767266865962 150.00000000001438 -29.780627177364185  29.37672668657466 83.333333333344285 -29.780627177284025  
33.617218348628874 150.00000000001208 -29.511392882353789  33.61721834860532 83.3333333333496 -29.511392882259319  
37.880531664061706 150.00000000001771 -29.012199515905444  37.880531664040006 83.333333333349415 -29.012199515797111  
42.203301563432589 150.00000000001901 -28.322595687802202  42.203301563409795 83.333333333352186 -28.322595687679044  
46.628111347798701 150.00000000002123 -27.496126383418936  46.628111347776645 83.333333333354418 -27.496126383280355  
51.160942138395022 150.00000000002353 -26.606062660488256  51.160942138373514 83.333333333356734 -26.606062660333865  

8 0 0 9 3 51.160942138373485 83.333333333356762 -26.606062660333894  51.160942138359154 38.888888888912163 -26.606062660230997  51.160942138344787 -5.5555555555324148 -26.60606266012811  51.160942138330455 -49.999999999977014 -26.606062660025213  
56.197420794592219 83.33333333335932 -25.617102968171146  56.197420794578235 38.888888888914749 -25.617102968056546  56.197420794564223 -5.5555555555298515 -25.617102967941957  56.197420794550247 -49.999999999974428 -25.617102967827357  
61.369873674694659 83.333333333361978 -24.548464110813988  61.36987367468187 38.888888888917414 -24.548464110687156  61.369873674669059 -5.5555555555272003 -24.548464110560339  61.369873674656276 -49.99999999997177 -24.548464110433507  
66.6903743058336 83.333333333364564 -23.50445634584305  66.690374305835846 38.888888888919993 -23.504456345699325  66.69037430578723 -5.5555555555246432 -23.504456345573352  66.69037430578949 -49.999999999969212 -23.504456345429631  
72.141356823845229 83.333333333368472 -22.605374979412534  72.141356823840113 38.888888888924008 -22.605374979271367  72.141356823824097 -5.555555555521007 -22.605374979087657  72.141356823818995 -49.999999999965468 -22.60537497894649  
77.644700595907679 83.333333333369794 -21.984947438568202  77.644700595915054 38.888888888925166 -21.984947438390964  77.644700595868116 -5.5555555555193932 -21.984947438265419  77.644700595875491 -49.999999999964025 -21.984947438088181  
83.098405011320878 83.333333333374014 -21.594215677251938  83.098405011334265 38.888888888929444 -21.594215677083749  83.098405011267701 -5.5555555555153084 -21.594215676881024  83.098405011281102 -49.99999999995989 -21.594215676712835  
88.490091772952468 83.333333333376231 -21.373736100468157  88.490091772943373 38.888888888931618 -21.373736100278784  88.49009177293425 -5.5555555555129974 -21.373736100089417  88.490091772925155 -49.999999999957623 -21.373736099900043  
93.826961734384 83.333333333379016 -21.277369013377651  93.826961734371821 38.888888888934417 -21.277369013175637  93.826961734359642 -5.5555555555102085 -21.277369012973629  93.826961734347464 -49.999999999954817 -21.277369012771619  
99.126754667507498 83.333333333381802 -21.277195132898683  99.126754667495561 38.888888888937231 -21.277195132683911  99.126754667483638 -5.5555555555074188 -21.277195132469156  99.126754667471715 -49.99999999995201 -21.277195132254391  

8 0 0 8 5 99.126754667471289 -49.99999999995201 -21.277195132252572  99.126754667466258 -69.999999999952081 -21.277195132155953  99.126754667461185 -89.999999999952209 -21.277195132059333  99.12675466745489 -109.99999999995227 -21.277195131963087  99.126754667449831 -129.99999999995231 -21.27719513186651  99.126754667444814 -149.99999999995239 -21.277195131769972  
105.08902171723609 -49.999999999948898 -21.276999516670482  105.0890217172313 -69.999999999948969 -21.276999516567567  105.08902171722649 -89.999999999948997 -21.276999516464659  105.08902171722049 -109.99999999994907 -21.276999516361528  105.0890217172157 -129.99999999994918 -21.27699951625868  105.08902171721094 -149.99999999994927 -21.276999516155886  
111.00427266104111 -49.999999999945807 -21.400480859548253  111.00427266103675 -69.999999999945885 -21.400480859439064  111.00427266103239 -89.999999999945842 -21.400480859329889  111.0042726606267 -109.99999999994593 -21.400480859220067  111.00427266062236 -129.99999999994611 -21.400480859110978  111.00427266061803 -149.9999999999462 -21.400480859001959  
116.89556386161226 -49.999999999942844 -21.606555947089475  116.8955638616083 -69.999999999942972 -21.606555946974282  116.89556386160437 -89.999999999943327 -21.606555946859142  116.89556386257522 -109.99999999994333 -21.606555946648811  116.89556386257136 -129.99999999994319 -21.606555946533788  116.89556386256749 -149.9999999999433 -21.60655594641883  
122.81742030632159 -49.999999999939732 -21.884017632826495  122.81742030631786 -69.999999999939959 -21.884017632705518  122.81742030631423 -89.999999999941323 -21.884017632584673  122.81742030546523 -109.99999999994111 -21.884017632741394  122.81742030546175 -129.99999999994012 -21.884017632620708  122.81742030545824 -149.99999999994029 -21.884017632500058  
128.75978437000148 -49.999999999936918 -22.287002841706734  128.75978436999773 -69.999999999937273 -22.287002841579984  128.75978436999421 -89.999999999940115 -22.287002841453454  128.75978437016292 -109.9999999999394 -22.287002841071111  128.75978437015959 -129.99999999993713 -22.287002840944808  128.75978437015624 -149.99999999993739 -22.287002840818516  
134.68143517120376 -49.999999999933792 -22.793599612642183  134.68143517119978 -69.999999999934275 -22.793599612509414  134.68143517119611 -89.999999999938694 -22.793599612376951  134.68143517125631 -109.99999999993761 -22.793599612278275  134.68143517125287 -129.999999999934 -22.793599612146121  134.68143517124938 -149.99999999993435 -22.793599612013974  
140.59897314757313 -49.999999999930658 -23.401650795831038  140.59897314756873 -69.999999999931248 -23.401650795691847  140.59897314756466 -89.999999999936719 -23.401650795553024  140.5989731475851 -109.99999999993533 -23.401650795450561  140.59897314758126 -129.99999999993085 -23.401650795312118  140.59897314757731 -149.99999999993128 -23.401650795173691  
146.52453675112261 -49.999999999927496 -24.118530560017334  146.52453675111758 -69.999999999928164 -24.118530559871367  146.52453675111289 -89.999999999933337 -24.118530559725823  146.52453675110885 -109.99999999993175 -24.118530559611489  146.52453675110434 -129.99999999992767 -24.11853055946634  146.52453675109962 -149.99999999992812 -24.118530559321162  

8 0 0 9 1 51.160942138394937 150.00000000002356 -26.606062660488238  51.160942138373443 83.333333333356606 -26.60606266033389  
56.197420794613095 150.00000000002612 -25.617102968343037  56.197420794592162 83.333333333359178 -25.617102968171142  
61.369873674717347 150.00000000002876 -24.548464111003501  61.369873674695398 83.33333333336185 -24.548464110813836  
66.690374305849417 150.00000000003075 -23.504456346055221  66.690374305832904 83.333333333364692 -23.504456345843732  
72.14135682388563 150.00000000003683 -22.605374979630547  72.141356823844731 83.333333333368543 -22.605374979410179  
77.644700595924093 150.00000000003607 -21.984947438827891  77.644700595910393 83.333333333370348 -21.98494743856876  
83.098405011347452 150.00000000004192 -21.594215677511478  83.098405011318334 83.333333333374767 -21.594215677251519  
88.490091772978516 150.00000000004329 -21.373736100755178  88.490091772952056 83.333333333376501 -21.37373610046653  
93.826961734397599 150.00000000004587 -21.277369013681444  93.826961734385009 83.333333333379102 -21.277369013376482  
99.126754667520046 150.00000000004846 -21.277195133219106  99.126754667508322 83.333333333381702 -21.277195132897777  

8 0 0 8 5 99.126754667507043 83.333333333381759 -21.277195132898552  99.126754667500279 56.666666666714988 -21.277195132769794  99.126754667493543 30.000000000048257 -21.277195132640983  99.126754667485699 3.3333333333815141 -21.277195132512063  99.126754667478934 -23.333333333285228 -21.277195132383213  99.126754667472113 -49.999999999951996 -21.277195132254381  
105.08902171727071 83.333333333384857 -21.276999517359435  105.08902171726432 56.666666666718086 -21.276999517222315  105.08902171725794 30.000000000051422 -21.27699951708512  105.08902171724999 3.3333333333846848 -21.276999516947221  105.08902171724358 -23.333333333282123 -21.27699951680998  105.0890217172371 -49.999999999948891 -21.276999516672756  
111.00427266091528 83.333333333387941 -21.400480860280492  111.00427266090915 56.666666666721177 -21.40048086013504  111.00427266090315 30.000000000054609 -21.400480859989489  111.00427266066038 3.3333333333878747 -21.400480859842339  111.00427266065451 -23.333333333279032 -21.400480859696728  111.00427266064862 -49.999999999945807 -21.400480859551141  
116.89556386196448 83.333333333391053 -21.60655594782401  116.89556386195821 56.666666666724197 -21.606555947670039  116.8955638619523 30.000000000059295 -21.606555947516156  116.89556386274454 3.3333333333927699 -21.606555947251074  116.8955638627391 -23.333333333275963 -21.606555947097387  116.89556386273375 -49.999999999942801 -21.606555946943793  
122.81742030617451 83.333333333394279 -21.884017633735155  122.81742030616765 56.666666666727217 -21.884017633572448  122.81742030616145 30.00000000006424 -21.88401763341021  122.81742030522237 3.3333333333981199 -21.884017633540257  122.8174203052171 -23.333333333272861 -21.884017633378729  122.81742030521207 -49.999999999939831 -21.884017633217425  
128.75978437002834 83.333333333397348 -22.287002842519385  128.75978437002055 56.666666666730038 -22.287002842347778  128.75978437001376 30.000000000067047 -22.287002842177081  128.75978437035829 3.3333333334016904 -22.287002841781824  128.75978437035289 -23.333333333269696 -22.287002841612434  128.75978437034789 -49.999999999936833 -22.287002841443432  
134.68143517126364 83.333333333400589 -22.793599613584984  134.68143517125478 56.666666666733043 -22.793599613404343  134.68143517124719 30.000000000066997 -22.793599613224973  134.6814351713 3.3333333334022646 -22.793599613041003  134.6814351712942 -23.33333333326647 -22.793599612863442  134.68143517128891 -49.999999999933777 -22.793599612686418  
140.59897314764936 83.333333333403871 -23.401650796825674  140.59897314763936 56.666666666736148 -23.401650796635774  140.59897314763086 30.000000000065945 -23.401650796447385  140.5989731476231 3.3333333334016966 -23.401650796283846  140.59897314761668 -23.333333333263202 -23.401650796097613  140.59897314761082 -49.999999999930651 -23.401650795912026  
146.52453675121808 83.333333333407296 -24.118530561089102  146.5245367512068 56.666666666739424 -24.11853056088939  146.52453675119722 30.000000000070926 -24.118530560691493  146.52453675115439 3.3333333334068977 -24.118530560497479  146.52453675114711 -23.333333333259958 -24.118530560302126  146.5245367511404 -49.999999999927503 -24.118530560107509  

8 0 0 10 5 146.52453675112258 -49.999999999927404 -24.118530560017319  146.52453675111758 -69.999999999928036 -24.118530559871367  146.52453675111286 -89.999999999933209 -24.11853055972583  146.52453675110885 -109.99999999993162 -24.118530559611496  146.52453675110431 -129.99999999992752 -24.11853055946635  146.52453675109959 -149.99999999992801 -24.118530559321179  
151.26498763396216 -49.999999999924874 -24.692034371366358  151.26498763395665 -69.999999999925564 -24.692034371214987  151.26498763395145 -89.999999999930509 -24.692034371064072  151.26498763392789 -109.99999999992875 -24.692034370940242  151.2649876339228 -129.99999999992497 -24.692034370789727  151.26498763391746 -149.99999999992548 -24.69203437063916  
156.01043224038048 -49.999999999922331 -25.333253744224912  156.01043224037431 -69.999999999923048 -25.333253744067903  156.01043224036849 -89.999999999926942 -25.333253743911385  156.01043224033489 -109.99999999992508 -25.333253743773028  156.0104322403291 -129.99999999992241 -25.333253743616886  156.01043224032296 -149.99999999992292 -25.333253743460631  
160.7679397963924 -49.999999999919744 -26.046028761525783  160.76793979638558 -69.999999999920476 -26.046028761362933  160.7679397963791 -89.999999999926459 -26.046028761200603  160.76793979637068 -109.99999999992444 -26.046028761061876  160.76793979636409 -129.99999999991965 -26.046028760899844  160.76793979635698 -149.99999999992011 -26.046028760737592  
165.5354630041542 -49.999999999917598 -26.834558264969427  165.53546300414666 -69.999999999918316 -26.834558264800634  165.5354630041395 -89.999999999930466 -26.834558264632399  165.53546300437603 -109.99999999992875 -26.834558264747859  165.53546300436855 -129.99999999991766 -26.834558264579762  165.53546300436034 -149.999999999918 -26.834558264411235  
170.3380323429968 -49.999999999914444 -27.718494200757878  170.33803234298838 -69.999999999915133 -27.718494200583258  170.3380323429804 -89.999999999936378 -27.718494200409271  170.33803234300717 -109.99999999993494 -27.718494200412209  170.3380323429987 -129.99999999991451 -27.718494200238062  170.33803234298924 -149.99999999991465 -27.71849420006312  
175.10127733725116 -49.999999999913342 -28.677653773773219  175.10127733724156 -69.999999999913996 -28.677653773593249  175.10127733723246 -89.999999999945146 -28.677653773414058  175.10127733745682 -109.9999999999436 -28.677653774122003  175.10127733744716 -129.99999999991286 -28.677653773942161  175.10127733743633 -149.99999999991269 -28.677653773760891  
179.85766843435638 -49.999999999911161 -29.729873622984577  179.85766843434516 -69.999999999911793 -29.729873622800252  179.85766843433453 -89.999999999951584 -29.729873622616974  179.85766843261536 -109.99999999995065 -29.729873620966206  179.85766843260424 -129.99999999991073 -29.729873620781522  179.85766843259196 -149.99999999991007 -29.729873620594386  
184.54919561666949 -49.99999999991055 -30.746807413057603  184.54919561665611 -69.999999999911211 -30.746807412870613  184.54919561664352 -89.999999999957396 -30.746807412685143  184.54919561778499 -109.99999999995707 -30.746807413116663  184.54919561777226 -129.99999999991007 -30.746807412928682  184.54919561775853 -149.99999999990871 -30.746807412736672  
189.53725157472522 -49.999999999911573 -32.032346137282651  189.53725157470916 -69.99999999991239 -32.032346137095594  189.5372515746943 -89.999999999963876 -32.032346136910824  189.53725157483444 -109.99999999996315 -32.032346137120065  189.53725157482009 -129.99999999991005 -32.032346136931231  189.537251574805 -149.99999999990771 -32.032346136736052  
194.30290636718075 -49.999999999914046 -33.31173333739487  194.30290636716165 -69.999999999915232 -33.311733337211471  194.30290636714454 -89.999999999975245 -33.311733337031562  194.30290636723166 -109.99999999997407 -33.311733337293347  194.30290636721602 -129.99999999991152 -33.311733337107256  194.30290636719982 -149.99999999990791 -33.31173333691153  

8 0 0 8 5 99.126754667521325 150.00000000004854 -21.277195133219138  99.126754667518 136.66666666671523 -21.27719513315483  99.126754667514703 123.33333333338182 -21.277195133090494  99.126754667514035 110.00000000004844 -21.277195133026385  99.126754667510724 96.66666666671513 -21.277195132962017  99.126754667507356 83.333333333381802 -21.277195132897642  
105.08902171728407 150.00000000005161 -21.276999517699572  105.08902171728094 136.6666666667183 -21.276999517631104  105.08902171727782 123.3333333333846 -21.276999517562604  105.08902171727736 110.00000000005124 -21.276999517495625  105.08902171727422 96.666666666718214 -21.276999517427079  105.08902171727105 83.333333333384871 -21.276999517358522  
111.00427265890728 150.00000000005468 -21.400480860640169  111.00427265890414 136.66666666672137 -21.400480860567569  111.00427265890103 123.33333333338742 -21.400480860494927  111.00427266133595 110.00000000005406 -21.400480860424924  111.00427266133291 96.666666666721298 -21.400480860352218  111.00427266132986 83.333333333387955 -21.400480860279497  
116.89556386788082 150.00000000005784 -21.606555947554813  116.89556386787733 136.66666666672447 -21.606555947477741  116.89556386787393 123.33333333339026 -21.606555947400686  116.89556386093811 110.00000000005709 -21.606555948128257  116.89556386093493 96.666666666724467 -21.606555948051245  116.89556386093182 83.333333333391082 -21.606555947974265  
122.81742029978035 150.00000000006131 -21.884017635761481  122.81742029977619 136.66666666672782 -21.884017635679601  122.81742029977222 123.33333333339746 -21.884017635597864  122.8174203070887 110.00000000006443 -21.884017633566678  122.81742030708513 96.66666666672775 -21.884017633485204  122.81742030708172 83.333333333394265 -21.884017633403857  
128.75978437242856 150.00000000006429 -22.287002841598607  128.75978437242355 136.66666666673063 -22.287002841511772  128.75978437241884 123.33333333341145 -22.28700284142522  128.75978436979301 110.00000000007908 -22.287002842903554  128.75978436978889 96.666666666730976 -22.287002842817522  128.75978436978502 83.333333333397363 -22.287002842731727  
134.68143517156659 150.00000000006784 -22.793599614170194  134.68143517156071 136.66666666673407 -22.793599614078438  134.68143517155519 123.33333333343079 -22.793599613987077  134.68143517122039 110.00000000009858 -22.793599613719028  134.68143517121564 96.666666666734329 -22.793599613628391  134.68143517121123 83.333333333400589 -22.793599613538081  
140.59897314759556 150.00000000007125 -23.401650797420423  140.59897314758882 136.6666666667374 -23.401650797323768  140.59897314758251 123.3333333334415 -23.401650797227585  140.59897314763964 110.00000000010952 -23.401650796966614  140.59897314763427 96.666666666737697 -23.401650796871287  140.59897314762929 83.333333333403871 -23.401650796776348  
146.52453675106182 150.00000000007492 -24.118530561548866  146.52453675105417 136.66666666674098 -24.118530561446953  146.52453675104704 123.33333333341507 -24.118530561345615  146.5245367512199 110.00000000008318 -24.118530561230418  146.52453675121382 96.666666666741193 -24.118530561130115  146.52453675120819 83.333333333407282 -24.118530561030269  

8 0 0 10 5 146.52453675121805 83.333333333407296 -24.118530561089077  146.52453675120674 56.666666666739452 -24.118530560889386  146.52453675119716 30.000000000070933 -24.118530560691489  146.52453675115424 3.3333333334068698 -24.118530560497483  146.524536751147 -23.333333333260001 -24.118530560302133  146.52453675114029 -49.999999999927525 -24.118530560107533  
151.26498763407307 83.333333333410025 -24.692034372499819  151.2649876340607 56.666666666742067 -24.69203437229228  151.26498763405024 30.000000000074923 -24.692034372086773  151.26498763397927 3.3333333334110349 -24.692034371868388  151.26498763397132 -23.333333333257396 -24.692034371665741  151.26498763396395 -49.999999999924995 -24.692034371463915  
156.01043224050861 83.333333333412853 -25.333253745435819  156.01043224049513 56.666666666744796 -25.333253745220087  156.01043224048368 30.000000000082668 -25.333253745006669  156.01043224040052 3.3333333334187909 -25.333253744732229  156.01043224039171 -23.333333333254807 -25.333253744522008  156.01043224038349 -49.999999999922451 -25.333253744312664  
160.76793979653581 83.333333333415837 -26.046028762836951  160.76793979652058 56.66666666674768 -26.046028762612544  160.76793979650779 30.000000000085436 -26.046028762390836  160.76793979646675 3.3333333334213502 -26.046028762028435  160.76793979645703 -23.333333333252256 -26.046028761810369  160.76793979644793 -49.999999999919915 -26.046028761593234  
165.53546300444089 83.333333333419048 -26.834558266500093  165.53546300442329 56.66666666675075 -26.834558266266306  165.5354630044088 30.000000000081485 -26.834558266035874  165.53546300441033 3.3333333334168809 -26.834558265663595  165.53546300439962 -23.333333333249836 -26.834558265437529  165.53546300438956 -49.99999999991747 -26.834558265212468  
170.33803234309204 83.33333333342209 -27.718494202260679  170.33803234307169 56.666666666753535 -27.718494202016487  170.33803234305515 30.000000000073367 -27.718494201776839  170.33803234325612 3.3333333334085693 -27.718494201430605  170.33803234324415 -23.333333333247445 -27.718494201196638  170.33803234323292 -49.999999999915026 -27.718494200963807  
175.10127733763483 83.333333333426566 -28.677653775585462  175.10127733761152 56.66666666675755 -28.677653775329407  175.10127733759262 30.000000000068173 -28.677653775080003  175.10127733745361 3.333333333401689 -28.677653775272802  175.10127733743997 -23.333333333245516 -28.677653775031441  175.10127733742718 -49.999999999913037 -28.677653774791477  
179.85766843368376 83.333333333430232 -29.729873623697902  179.85766843365715 56.666666666760406 -29.729873623427959  179.85766843363535 30.000000000069463 -29.729873623168224  179.85766843389587 3.333333333402412 -29.729873623149572  179.85766843387989 -23.333333333244006 -29.72987362290192  179.85766843386494 -49.999999999911488 -29.729873622656143  
184.54919561810851 83.333333333436229 -30.746807415490867  184.54919561807756 56.666666666765032 -30.746807415204295  184.54919561805184 30.000000000084256 -30.746807414933627  184.54919561759419 3.3333333334148803 -30.746807414682429  184.54919561757501 -23.333333333243122 -30.746807414430386  184.54919561755719 -49.999999999910649 -30.746807414181053  
189.53725157553711 83.333333333441288 -32.032346139833173  189.5372515754992 56.666666666767867 -32.032346139526339  189.53725157546748 30.00000000010899 -32.032346139244119  189.53725157485772 3.3333333334383979 -32.032346138709912  189.53725157483427 -23.333333333243932 -32.032346138456404  189.5372515748129 -49.999999999911672 -32.032346138206975  
194.30290636809426 83.33333333344865 -33.311733340293465  194.30290636804398 56.666666666771789 -33.311733339961656  194.30290636800265 30.00000000014025 -33.311733339667256  194.30290636732232 3.3333333334676927 -33.311733338828823  194.30290636729345 -23.333333333245903 -33.311733338578058  194.30290636726804 -49.999999999914138 -33.311733338333511  

8 0 0 10 5 146.52453675106176 150.00000000007506 -24.118530561548891  146.52453675105406 136.66666666674109 -24.11853056144697  146.52453675104695 123.3333333334152 -24.118530561345636  146.52453675121987 110.0000000000833 -24.11853056123044  146.52453675121379 96.666666666741321 -24.118530561130139  146.52453675120813 83.333333333407438 -24.118530561030287  
151.26498763383478 150.00000000007802 -24.692034372851641  151.26498763382634 136.66666666674396 -24.692034372745518  151.26498763381858 123.33333333339407 -24.692034372640059  151.26498763408409 110.00000000006223 -24.69203437264148  151.26498763407744 96.666666666744121 -24.692034372537197  151.26498763407128 83.333333333410181 -24.692034372433419  
156.01043224034655 150.00000000008112 -25.333253745589722  156.01043224033737 136.66666666674701 -25.333253745479173  156.0104322403289 123.33333333334981 -25.333253745369383  156.01043224051514 110.00000000001796 -25.333253745573725  156.0104322405079 96.666666666747005 -25.333253745465278  156.01043224050116 83.333333333413009 -25.333253745357403  
160.76793979675213 150.00000000008399 -26.04602876277551  160.76793979674156 136.66666666674979 -26.04602876266015  160.76793979673187 123.33333333334959 -26.046028762545692  160.76793979650691 110.00000000001796 -26.046028762952144  160.76793979649869 96.66666666674989 -26.046028762839263  160.76793979649108 83.333333333415837 -26.046028762727051  
165.53546300524221 150.00000000008984 -26.834558267403086  165.53546300522967 136.6666666667555 -26.834558267282237  165.53546300521822 123.33333333341101 -26.834558267162524  165.53546300422647 110.00000000007772 -26.834558266345589  165.53546300421692 96.666666666753741 -26.834558266227855  165.53546300420814 83.333333333419617 -26.834558266110953  
170.33803234366789 150.00000000009055 -27.718494202569111  170.33803234365311 136.66666666675602 -27.718494202441615  170.33803234363964 123.33333333350451 -27.718494202315679  170.33803234305455 110.0000000001734 -27.718494202218281  170.33803234304344 96.6666666667561 -27.718494202095048  170.33803234303329 83.333333333421848 -27.718494201972945  
175.10127733584125 150.00000000010084 -28.677653779665668  175.10127733582428 136.66666666676593 -28.677653779529678  175.10127733580882 123.33333333360461 -28.677653779396  175.10127733756099 110.0000000002694 -28.677653774818797  175.10127733754825 96.66666666676133 -28.677653774689109  175.10127733753663 83.333333333426836 -28.677653774561072  
179.85766843033565 150.00000000010502 -29.729873617587113  179.85766843031661 136.66666666676949 -29.729873617439857  179.85766843029916 123.33333333365405 -29.729873617296185  179.85766843484581 110.00000000032027 -29.729873625049827  179.85766843483131 96.666666666765309 -29.729873624912305  179.85766843481807 83.333333333430417 -29.729873624777326  
184.54919562179796 150.00000000011678 -30.746807417263739  184.54919562177633 136.66666666678023 -30.746807417101252  184.54919562175641 123.33333333364061 -30.746807416944385  184.54919561685213 110.00000000030447 -30.746807414536335  184.54919561683536 96.666666666771974 -30.746807414389071  184.54919561681996 83.333333333436386 -30.746807414245779  
189.53725157459834 150.00000000012867 -32.032346139996392  189.53725157457214 136.66666666679049 -32.032346139813228  189.53725157454792 123.33333333356396 -32.032346139638776  189.53725157552486 110.00000000022645 -32.032346139218369  189.53725157550434 96.666666666778156 -32.032346139058795  189.53725157548544 83.333333333441445 -32.032346138905368  
194.30290636719062 150.00000000014649 -33.311733340111942  194.30290636715509 136.66666666680584 -33.311733339900819  194.3029063671224 123.33333333348715 -33.311733339702947  194.30290636810994 110.00000000014755 -33.311733339692339  194.30290636808255 96.666666666787251 -33.311733339517069  194.30290636805745 83.333333333448806 -33.311733339351157  

Triangulations 0

TShapes 77
Ve
0.00769637328178451
8.6422072508816 -149.999999999999 -27.3015595637362
0 0

0101100
*
Ve
0.0594444263053722
51.1609421382981 -149.999999999977 -26.6060626597936
0 0

0101100
*
Ed
 0.00769637328178451 1 1 0
1  1 0 0 1
2  1 1 0 0 1
0

0101000
+77 0 -76 0 *
Ve
0.00769637328210784
8.6422072509041 -49.9999999999994 -27.3015595637525
0 0

0101100
*
Ed
 1e-07 1 1 0
1  2 0 0 1
2  2 1 0 0 1
0

0101000
+74 0 -77 0 *
Ve
0.0594444263070716
51.1609421383304 -49.999999999977 -26.6060626600252
0 0

0101100
*
Ed
 0.00769637328210784 1 1 0
1  3 0 0 1
2  3 1 0 0 1
2  4 2 0 0 1
4 G1 1 0 2 0
0

0101000
+74 0 -72 0 *
Ed
 1e-07 1 1 0
1  4 0 0 1
2  5 1 0 0 1
2  6 3 0 0 1
4 G1 1 0 3 0
0

0101000
+72 0 -76 0 *
Wi

0101100
-75 0 -73 0 +71 0 +70 0 *
Fa
1  1e-07 1 0

0101000
+69 0 *
Ve
0.00769637328177059
8.64220725093411 83.3333333333343 -27.3015595637742
0 0

0101100
*
Ed
 1e-07 1 1 0
1  5 0 0 1
2  7 2 0 0 1
0

0101000
+67 0 -74 0 *
Ve
0.0594444263089095
51.1609421383735 83.3333333333567 -26.6060626603339
0 0

0101100
*
Ed
 0.00769637328177059 1 1 0
1  6 0 0 1
2  8 2 0 0 1
2  9 4 0 0 1
4 G1 2 0 4 0
0

0101000
+67 0 -65 0 *
Ed
 1e-07 1 1 0
1  7 0 0 1
2  10 2 0 0 1
2  11 5 0 0 1
4 G1 2 0 5 0
0

0101000
+65 0 -72 0 *
Wi

0101100
-71 0 -66 0 +64 0 +63 0 *
Fa
1  1e-07 2 0

0101000
+62 0 *
Ve
0.0594444263053722
99.1267546674449 -149.999999999952 -21.2771951317699
0 0

0101100
*
Ed
 0.0594444263053722 1 1 0
1  8 0 0 1
2  12 3 0 0 1
0

0101000
+76 0 -60 0 *
Ve
0.0594444263070716
99.1267546674716 -49.999999999952 -21.2771951322535
0 0

0101100
*
Ed
 0.0594444263070716 1 1 0
1  9 0 0 1
2  13 3 0 0 1
2  14 5 0 0 1
4 G1 3 0 5 0
0

0101000
+72 0 -58 0 *
Ed
 1e-07 1 1 0
1  10 0 0 1
2  15 3 0 0 1
2  16 6 0 0 1
4 G1 3 0 6 0
0

0101000
+58 0 -60 0 *
Wi

0101100
-59 0 -70 0 +57 0 +56 0 *
Fa
1  1e-07 3 0

0101000
+55 0 *
Ve
0.00769637328143531
8.64220725094912 150.000000000001 -27.3015595637851
0 0

0101100
*
Ed
 1e-07 1 1 0
1  11 0 0 1
2  17 4 0 0 1
0

0101000
+53 0 -67 0 *
Ve
0.0594444263066293
51.160942138395 150.000000000024 -26.6060626604882
0 0

0101100
*
Ed
 0.00769637328143531 1 1 0
1  12 0 0 1
2  18 4 0 0 1
0

0101000
+53 0 -51 0 *
Ed
 1e-07 1 1 0
1  13 0 0 1
2  19 4 0 0 1
2  20 7 0 0 1
4 G1 4 0 7 0
0

0101000
+51 0 -65 0 *
Wi

0101100
-64 0 -52 0 +50 0 +49 0 *
Fa
1  1e-07 4 0

0101000
+48 0 *
Ve
0.0594444263089095
99.1267546675076 83.3333333333818 -21.2771951328982
0 0

0101100
*
Ed
 0.0594444263089095 1 1 0
1  14 0 0 1
2  21 5 0 0 1
2  22 7 0 0 1
4 G1 5 0 7 0
0

0101000
+65 0 -46 0 *
Ed
 1e-07 1 1 0
1  15 0 0 1
2  23 5 0 0 1
2  24 8 0 0 1
4 G1 5 0 8 0
0

0101000
+46 0 -58 0 *
Wi

0101100
-57 0 -63 0 +45 0 +44 0 *
Fa
1  1e-07 5 0

0101000
+43 0 *
Ve
0.0617622757830108
146.5245367511 -149.999999999928 -24.1185305593212
0 0

0101100
*
Ed
 0.0160605725337129 1 1 0
1  16 0 0 1
2  25 6 0 0 1
0

0101000
+60 0 -41 0 *
Ve
0.061762276630103
146.524536751131 -49.9999999999275 -24.1185305600624
0 0

0101100
*
Ed
 0.0160605726202051 1 1 0
1  17 0 0 1
2  26 6 0 0 1
2  27 8 0 0 1
4 G1 6 0 8 0
0

0101000
+58 0 -39 0 *
Ed
 1e-07 1 1 0
1  18 0 0 1
2  28 6 0 0 1
2  29 9 0 0 1
4 G1 6 0 9 0
0

0101000
+39 0 -41 0 *
Wi

0101100
-40 0 -56 0 +38 0 +37 0 *
Fa
1  1e-07 6 0

0101000
+36 0 *
Ve
0.0594444263066293
99.1267546675207 150.000000000049 -21.2771951332191
0 0

0101100
*
Ed
 0.0594444263066293 1 1 0
1  19 0 0 1
2  30 7 0 0 1
0

0101000
+51 0 -34 0 *
Ed
 1e-07 1 1 0
1  20 0 0 1
2  31 7 0 0 1
2  32 10 0 0 1
4 G1 7 0 10 0
0

0101000
+34 0 -46 0 *
Wi

0101100
-45 0 -49 0 +33 0 +32 0 *
Fa
1  1e-07 7 0

0101000
+31 0 *
Ve
0.0617622765976978
146.524536751213 83.3333333334073 -24.1185305610597
0 0

0101100
*
Ed
 0.0160605727291051 1 1 0
1  21 0 0 1
2  33 8 0 0 1
2  34 10 0 0 1
4 G1 8 0 10 0
0

0101000
+46 0 -29 0 *
Ed
 1e-07 1 1 0
1  22 0 0 1
2  35 8 0 0 1
2  36 11 0 0 1
4 G1 8 0 11 0
0

0101000
+29 0 -39 0 *
Wi

0101100
-38 0 -44 0 +28 0 +27 0 *
Fa
1  1e-07 8 0

0101000
+26 0 *
Ve
0.061762276630103
194.302906367224 -49.9999999999141 -33.3117333378642
0 0

0101100
*
Ed
 0.061762276630103 1 1 0
1  23 0 0 1
2  37 9 0 0 1
2  38 11 0 0 1
4 G1 9 0 11 0
0

0101000
+39 0 -24 0 *
Ve
0.0617622757830108
194.3029063672 -149.999999999908 -33.3117333369115
0 0

0101100
*
Ed
 1e-07 1 1 0
1  24 0 0 1
2  39 9 0 0 1
0

0101000
+24 0 -22 0 *
Ed
 0.0617622757830108 1 1 0
1  25 0 0 1
2  40 9 0 0 1
0

0101000
+41 0 -22 0 *
Wi

0101100
+23 0 +21 0 -20 0 -37 0 *
Fa
1  1e-07 9 0

0101000
+19 0 *
Ve
0.0617622731756597
146.524536751062 150.000000000075 -24.1185305615489
0 0

0101100
*
Ed
 0.0160605718037469 1 1 0
1  26 0 0 1
2  41 10 0 0 1
0

0101000
+34 0 -17 0 *
Ed
 1e-07 1 1 0
1  27 0 0 1
2  42 10 0 0 1
2  43 12 0 0 1
4 G1 10 0 12 0
0

0101000
+17 0 -29 0 *
Wi

0101100
-28 0 -32 0 +16 0 +15 0 *
Fa
1  1e-07 10 0

0101000
+14 0 *
Ve
0.0617622765976978
194.302906368076 83.3333333334487 -33.3117333398223
0 0

0101100
*
Ed
 0.0617622765976978 1 1 0
1  28 0 0 1
2  44 11 0 0 1
2  45 12 0 0 1
4 G1 11 0 12 0
0

0101000
+29 0 -12 0 *
Ed
 1e-07 1 1 0
1  29 0 0 1
2  46 11 0 0 1
0

0101000
+12 0 -24 0 *
Wi

0101100
+11 0 +10 0 -23 0 -27 0 *
Fa
1  1e-07 11 0

0101000
+9 0 *
Ve
0.0617622731756597
194.302906367191 150.000000000146 -33.3117333401119
0 0

0101100
*
Ed
 0.0617622731756597 1 1 0
1  30 0 0 1
2  47 12 0 0 1
0

0101000
+17 0 -7 0 *
Ed
 1e-07 1 1 0
1  31 0 0 1
2  48 12 0 0 1
0

0101000
+7 0 -12 0 *
Wi

0101100
+6 0 +5 0 -11 0 -15 0 *
Fa
1  1e-07 12 0

0101000
+4 0 *
Sh

0101000
+68 0 +61 0 +54 0 +47 0 +42 0 +35 0 +30 0 +25 0 +18 0 +13 0 
+8 0 +3 0 *
So

1100000
-2 0 *

+1 0 