DBRep_DrawableShape

CASCADE Topology V1, (c) Matra-Datavision
Locations 1
1
              1               0               0               0 
              0               1               0               0 
              0               0               1 -219.409404959755 
Curve2ds 0
Curves 8
1 -1.26844790323978e-05 -168.011019094201 209.70470247987762 0 0 -1 
1 1.47749387733479e-05 195.69999792851999 209.70470247987762 0 0 -1 
1 -1.26844790323978e-05 -168.011019094201 209.70470247987762 7.5497899487686482e-08 0.999999999999997 0 
1 597.04716014740893 195.69995285271463 209.70470247987762 0 0 -1 
1 1.47749387733479e-05 195.69999792851999 209.70470247987762 0.99999999999999711 -7.5497899470171905e-08 0 
1 597.04713268799105 -168.01106417000636 209.70470247987762 0 0 -1 
1 597.04716014740893 195.69995285271463 209.70470247987762 -7.5497899689292804e-08 -0.999999999999997 0 
1 597.04713268799105 -168.01106417000636 209.70470247987762 -0.99999999999999711 7.5497899470171905e-08 0 
Polygon3D 0
PolygonOnTriangulations 0
Surfaces 5
1 -1.26844790323978e-05 -168.011019094201 209.70470247987762 0.99999999999999722 -7.5497899487686495e-08 0 7.5497899487686495e-08 0.99999999999999722 0 -0 0 1 
1 1.47749387733479e-05 195.69999792851999 209.70470247987762 -7.5497899470171918e-08 -0.99999999999999722 -0 0.99999999999999722 -7.5497899470171918e-08 0 -0 0 1 
1 597.04716014740893 195.69995285271463 209.70470247987762 -0.99999999999999722 7.5497899689292817e-08 0 -7.5497899689292817e-08 -0.99999999999999722 0 0 0 1 
1 597.04713268799105 -168.01106417000636 209.70470247987762 7.5497899470171918e-08 0.99999999999999722 0 -0.99999999999999722 7.5497899470171918e-08 0 0 -0 1 
1 1.47749387733479e-05 195.69999792851999 209.70470247987762 0 0 -1 7.5497899487686495e-08 0.99999999999999722 0 0.99999999999999722 -7.5497899487686495e-08 0 
Triangulations 0

TShapes 24
Ve
1e-07
-1.26844790323978e-05 -168.011019094201 209.704702479878
0 0

0101100
*
Ed
 1e-07 1 1 0
1  1 0 0 219.409404959755
0

0101000
+24 0 -24 1 *
Ve
1e-07
1.47749387733479e-05 195.69999792852 209.704702479878
0 0

0101100
*
Ed
 1e-07 1 1 0
1  2 0 0 219.409404959755
0

0101000
+22 0 -22 1 *
Ed
 1e-07 1 1 0
1  3 0 0 363.711017022722
0

0101000
+24 0 -22 0 *
Wi

0101000
+23 0 -21 0 -20 0 +20 1 *
Fa
0  1e-07 1 0

0101000
+19 0 *
Ve
1e-07
597.047160147409 195.699952852715 209.704702479878
0 0

0101100
*
Ed
 1e-07 1 1 0
1  4 0 0 219.409404959755
0

0101000
+17 0 -17 1 *
Ed
 1e-07 1 1 0
1  5 0 0 597.047145372472
0

0101000
+22 0 -17 0 *
Wi

0101000
+21 0 -16 0 -15 0 +15 1 *
Fa
0  1e-07 2 0

0101000
+14 0 *
Ve
1e-07
597.047132687991 -168.011064170006 209.704702479878
0 0

0101100
*
Ed
 1e-07 1 1 0
1  6 0 0 219.409404959755
0

0101000
+12 0 -12 1 *
Ed
 1e-07 1 1 0
1  7 0 0 363.711017022722
0

0101000
+17 0 -12 0 *
Wi

0101000
+16 0 -11 0 -10 0 +10 1 *
Fa
0  1e-07 3 0

0101000
+9 0 *
Ed
 1e-07 1 1 0
1  8 0 0 597.047145372472
0

0101000
+12 0 -24 0 *
Wi

0101000
+11 0 -23 0 -7 0 +7 1 *
Fa
0  1e-07 4 0

0101000
+6 0 *
Wi

0101100
+20 0 +15 0 +10 0 +7 0 *
Fa
0  1e-07 5 0

0111000
+4 0 *
Sh

0101000
+18 0 +13 0 +8 0 +5 0 +3 0 -3 1 *
So

1100000
-2 0 *

+1 0 