DBRep_DrawableShape

CASCADE Topology V1, (c) Matra-Datavision
Locations 0
Curve2ds 68
6 0 1 1 0  1 0.75189624756612483  
6 0 1 0 0  0 0.75189624756612483  
6 0 6 0.070516951779099571 0.61697167350821325  0.21212575513775989 0.64113089396029543  0.3583893735569002 0.66476106387472489  0.50979234248466077 0.6877861946948769  0.66683099455337758 0.71009317950661799  0.83002488190576051 0.73153037877514349  1 0.75189624756612483  
6 0 4 0 0.60431135945240055  0.017203888030533288 0.60755396862543309  0.034682468281164974 0.61074805472237093  0.052448916929648287 0.61388916997235421  0.07051695177910694 0.61697167350822824  
6 0 1 0 0  0 0.60431135945240055  
6 0 1 1 0  1 0.60431135945240055  
6 0 1 0 0  1 0  
6 0 1 0.20000000000000143 -7.5189707487836737e-17  0.79999999999999971 1.362813448217122e-15  
6 0 1 0.79999999999999816 1  0.19999999999999951 0.99999999999999856  
6 0 1 0 0  1 0  
6 0 8 0.999999999999998 0.76190476190476264  0.99999999999999789 0.80865465258318214  0.99118785321331082 0.85540454326160154  0.97356355963993702 0.89940798794722232  0.94785173172306736 0.93791872824174971  0.9155027098756644 0.96852804719040397  0.87853981633974276 0.98950934906346799  0.83926990816987057 1  0.79999999999999838 0.99999999999999989  
6 0 1 0 0  1 0  
6 0 1 0.999999999999999 0.23809523809523969  0.999999999999998 0.76190476190476264  
6 0 1 0 0  1 0  
6 0 8 0.79999999999999993 1.3534147347811423e-15  0.83926990816987235 1.4475318212353435e-15  0.87853981633974476 0.010490650936533575  0.91550270987566629 0.031471952809597734  0.94785173172306936 0.062081271758252198  0.97356355963993901 0.10059201205277975  0.99118785321331282 0.14459545673840066  0.99999999999999967 0.19134534741682013  0.99999999999999956 0.23809523809523958  
6 0 1 0 0  1 0  
6 0 8 1.5037941497568202e-15 0.23809523809523742  1.5923749370078326e-15 0.19134534741681797  0.0088121467866886412 0.14459545673839852  0.026436440360062645 0.10059201205277776  0.052148268276932502 0.062081271758250331  0.084497290124335503 0.031471952809596013  0.1214601836602571 0.01049065093653203  0.16073009183012954 8.8470897274817162e-17  0.20000000000000195 1.8388068845354155e-16  
6 0 1 0 0  1 0  
6 0 1 3.0075882995136401e-16 0.7619047619047602  1.2932629687908653e-15 0.23809523809523714  
6 0 1 0 0  1 0  
6 0 8 0.19999999999999962 0.99999999999999833  0.16073009183012721 0.99999999999999822  0.12146018366025481 0.9895093490634661  0.084497290124333296 0.96852804719040198  0.052148268276930178 0.93791872824174749  0.026436440360060473 0.89940798794721999  0.0088121467866866393 0.85540454326159909  6.9388939039072284e-18 0.80865465258317959  9.7144514654701197e-17 0.76190476190476009  
6 0 1 0 0  1 0  
6 0 1 1 0  1 0.87654849654505185  
6 0 1 0 0  0 0.87654849654505185  
6 0 7 0.49948467462871216 0.81127804985204044  0.56848589165713992 0.82161579225679549  0.63688912003177411 0.83200531048432569  0.70585892389099358 0.84226471225205335  0.77602375313311667 0.85216188003335347  0.8480095390123088 0.86140152227833622  0.92238102586757065 0.86964430982964991  1 0.87654849654505196  
6 0 7 0 0.75189624756612483  0.078966535881322034 0.7572719734233444  0.15453867942277025 0.76429224337953683  0.22717511457104311 0.77257984930295343  0.29737830537541954 0.78171714200058995  0.36567480072478481 0.79136350016701174  0.43267461153949599 0.80126858549756097  0.49948467462871216 0.81127804985204044  
6 0 8 0.8976782918905456 0.5945608936842639  0.91159416940165627 0.59574078806811803  0.92512125001429568 0.59693450767182699  0.93830127069452307 0.59814039679118491  0.9511675354653526 0.59935707273567174  0.96374773530397462 0.60058337953440144  0.9760659152835206 0.60181835612370482  0.98814358895937071 0.60306121901635013  1 0.60431135945240044  
6 0 8 0.75809511838856969 0.58484053403411906  0.77835991077558431 0.58593888060659982  0.79755815016572884 0.58708450700972303  0.8158757678957973 0.58826782893667706  0.83343026382318963 0.589481958890405  0.85031372856017751 0.59072162701199038  0.86660538104860108 0.59198289346894817  0.8823724580205442 0.59326314818391723  0.8976782918905456 0.5945608936842639  
6 0 8 0.63976340380197283 0.57999640417391274  0.65679457650893469 0.58046836048025374  0.67306775596205659 0.58099289351977934  0.68864834893297211 0.5815608960469596  0.70359442871662381 0.5821648442663383  0.71795953349189334 0.58279871738833344  0.73179546468223278 0.5834579171850377  0.74515508531629615 0.58413918754601857  0.75809511838856969 0.58484053403411906  
6 0 8 0.49879561075911227 0.57826045740415855  0.51475241897192137 0.57821637289603134  0.53156293725165771 0.57823056886087432  0.54897834664747069 0.57831608478208152  0.56680275565827787 0.57848124548753921  0.58488674282616337 0.57873067158546632  0.60312089932977486 0.57906628990025666  0.62142937157772216 0.5794883439083176  0.63976340380197283 0.57999640417391274  
6 0 8 0.29135301207160574 0.58309970535148925  0.31300046272562876 0.5821750100653551  0.3355383247986547 0.5813058142089027  0.35927038666329281 0.58049562749766059  0.38439594398844901 0.57976089439394218  0.41101778618542717 0.57913118548779685  0.43910853772785846 0.57864346995581295  0.46854553369888352 0.57834403049410377  0.49879561075911227 0.57826045740415855  
6 0 8 0.135250985524069 0.59177371398786516  0.15265267369941521 0.59059709848741671  0.17050446153845841 0.5894398451793017  0.18887355146457771 0.58830361656948449  0.20782826941137519 0.58719136240765912  0.22744721257481826 0.58610762052345899  0.24781967597222782 0.58505848778588365  0.26905931636120733 0.58405200572456273  0.29135301207160574 0.58309970535148925  
6 0 8 0 0.60215022610128555  0.015734978740185101 0.60080969552109509  0.031739585830620774 0.59947899705137653  0.048041111420632762 0.59815899083623236  0.06467011025354201 0.5968508693987693  0.081660536938112968 0.59555615394184769  0.099051924671879024 0.59427673372000622  0.11689360741634532 0.59301494848255876  0.135250985524069 0.59177371398786516  
6 0 1 0 0  0 0.60215022610128544  
6 0 1 1 0  1 0.60215022610128544  
6 0 1 1 0  1 0.87655152308721807  
6 0 1 0 0  0 0.87655152308721807  
6 0 8 0.88988221378802124 0.88764330533224689  0.90521063716216754 0.88629201451429807  0.91998981510746702 0.88492798020423391  0.93428624470452903 0.88355290599217706  0.9481502606659995 0.88216816151554645  0.96162194447333782 0.8807748539207102  0.97473510097110683 0.87937387560562763  0.98751930241877017 0.87796592824346842  1 0.87655152308721795  
6 0 8 0.73435750551332768 0.89860607013145988  0.75805304213538993 0.89735343603569129  0.77999019578123763 0.89604867557869372  0.80060660366567427 0.89470581077448497  0.82011553423846983 0.89333337850030381  0.83867584991099675 0.89193755740124947  0.85642395575884889 0.89052269065073786  0.87346020271749625 0.88909100234779781  0.88988221378802124 0.88764330533224689  
6 0 8 0.59722041173893792 0.90373160062199864  0.61424824585893856 0.90335862519735821  0.6331785646016358 0.90286907798340432  0.65275972600669119 0.90226127576973025  0.6720849207967583 0.90155378629036231  0.69047786011584578 0.90078183852161542  0.70737846326768417 0.89999373297994334  0.72222854545408932 0.89924725201979361  0.73435750551332768 0.89860607013145988  
6 0 8 0.4643311069433107 0.90465266401179512  0.48128526517704484 0.90478895473117704  0.49879456027017643 0.90485558125308607  0.51641694903324042 0.90484079160049924  0.53381509093512258 0.90474389462098992  0.55074094523498951 0.90457210036844116  0.56702036811422063 0.90433736048475777  0.58253770980833808 0.90405320858158067  0.59722041173893792 0.90373160062199864  
6 0 8 0.27120880371936945 0.89889543812533934  0.28986335183400397 0.89985821557532575  0.30935694392161639 0.90077437162845686  0.33014095820826128 0.90165301957886701  0.3525967088530132 0.90248706712697879  0.37703954410593732 0.90325225201549497  0.40370115417433966 0.90390899966370375  0.43278373148356364 0.90439906165438266  0.4643311069433107 0.90465266401179512  
6 0 8 0.10515620405563919 0.88720071921449528  0.12250644053161794 0.8887499626291796  0.14053415051123164 0.89028128388391115  0.15934975633277701 0.89179410855106556  0.17908588729688724 0.89328565260605841  0.19988051229713077 0.89475128703900442  0.22195225747025979 0.89618294578711155  0.24553589344242005 0.89757043690106486  0.27120880371936945 0.89889543812533934  
6 0 8 0 0.87654849654505196  0.011973146589646043 0.87790545485934202  0.024225683485771442 0.87925648092338693  0.036780045947324536 0.88060111350209236  0.049662105008159228 0.88193873519936272  0.062901363486704914 0.88326857082959354  0.076532589405316223 0.88458966831751362  0.090598886819302865 0.88590086212637487  0.10515620405563919 0.88720071921449528  
6 0 7 0.87013678843402942 0.61475533231233714  0.89131057928622393 0.6130092524776426  0.91136027098907146 0.61123859604533692  0.93049160676528853 0.60944842733345228  0.94883336550199238 0.60764230074181713  0.96648053557934221 0.60582279339752299  0.98351446674008502 0.60399174803365585  1 0.60215022610128532  
6 0 7 0.72794246929924167 0.62421915429618613  0.75242094807716875 0.62297858679978602  0.77494316181564926 0.62168139536938882  0.79604080204892202 0.62034494019714703  0.8159309344801462 0.61897863715265899  0.83481905959900637 0.6175895757453379  0.85284409549775497 0.61618136049190908  0.87013678843402942 0.61475533231233714  
6 0 7 0.57832492815416192 0.62931051789049075  0.60515926653414442 0.62884368028446513  0.62961399907984583 0.62823166686256315  0.65214284618975027 0.62752571840768989  0.67296572911567432 0.62675609987360936  0.69235848040082038 0.62594424004576532  0.71058393051700108 0.62509888375950828  0.72794246929924167 0.62421915429618613  
6 0 7 0.39273686695662768 0.62871469456868545  0.41545387535764761 0.62925582821598935  0.4409449273461678 0.62972926570223142  0.46845001487790938 0.63005799005535135  0.49711342408309389 0.63017957236526134  0.52588480260494186 0.63006301053563618  0.55349102010406892 0.62974255396375634  0.57832492815416192 0.62931051789049075  
6 0 7 0.25814173416713482 0.62349376045525173  0.27410504443196421 0.62435220888062426  0.29081335406141834 0.62518502251960506  0.30848251165844942 0.62599052520132137  0.32727982233965214 0.62676287982553591  0.34738839512563285 0.62748991808447374  0.36907149033137887 0.62815097018464794  0.39273686695662768 0.62871469456868545  
6 0 7 0.10558125494443135 0.61268914352628512  0.12403749507455022 0.61431159238142041  0.14329324480916758 0.61591513100626616  0.16349560621241299 0.61749848318502665  0.18479946975941425 0.61905784297053568  0.20744491429668771 0.62058532058489668  0.231676567466504 0.62207056061107935  0.25814173416713482 0.62349376045525173  
6 0 7 0 0.60215320916423309  0.013713707806464536 0.60368502146082315  0.027807602810825342 0.60520967293205319  0.042318720419485381 0.60672645574199013  0.057291289419023138 0.60823434749163552  0.072777229482433078 0.60973200743188383  0.088842779244231992 0.61121769969238215  0.10558125494443135 0.61268914352628512  
6 0 1 0 0  0 0.60215320916423309  
6 0 1 1 0  1 0.60215320916423309  
6 0 1 1 0  1 0.75190218333464076  
6 0 1 0 0  0 0.75190218333464076  
6 0 8 0.50550240645457412 0.81053635286900061  0.56335763570878916 0.80187650350329331  0.62138446979045825 0.79330103815055386  0.6802489044064437 0.78490440722023325  0.74038081175631421 0.77682774624252282  0.80211908334188675 0.76925648471465691  0.86577560120527042 0.76241626582505551  0.93164660221251916 0.75655541351463951  1 0.75190218333464087  
6 0 8 0 0.87655152308721807  0.068622705405813417 0.8704478767020094  0.13475113495364222 0.86332000663386654  0.19894931982322356 0.85538775912649334  0.26162070736260423 0.84687001668609418  0.32315006470039631 0.83796731915232103  0.38394571724477555 0.8288534034701045  0.44447698881589093 0.81967072034178812  0.50550240645457412 0.81053635286900061  
6 0 7 0.8677371001814882 0.59197997233045618  0.88820783395751512 0.59337279523651421  0.90802808891693376 0.59479141213856856  0.92729455064917254 0.59623157227126478  0.94607480578934045 0.59769004389000102  0.9644222612555905 0.59916432222777083  0.98238377524671994 0.60065248695812234  1 0.60215320916423287  
6 0 7 0.71046311236348336 0.58318181848319262  0.73614431264811364 0.58428685475227038  0.7604015069908503 0.58546474097216272  0.78354038856405883 0.58669677798130737  0.80571589622883377 0.5879713803444967  0.82706678444590243 0.58927985643594882  0.84770423938488348 0.59061694217742577  0.8677371001814882 0.59197997233045618  
6 0 7 0.54507084747490009 0.5785852776198892  0.57244363475237725 0.57890764187207744  0.59854699373313669 0.57939204659800392  0.62329059759623895 0.58000286768943143  0.64672278485410062 0.58070660589443168  0.66894020747527672 0.58147939344334731  0.69011014788216873 0.58230605085216935  0.71046311236348336 0.58318181848319262  
6 0 7 0.34495856647537448 0.58045118318421862  0.36936709380857402 0.5796917640350967  0.39585687137421882 0.57902247106408666  0.42425270870148712 0.57849538193501393  0.45418698796897172 0.57816564297959538  0.4850502091177793 0.57807952119962791  0.51589003470465833 0.57824162058593176  0.54507084747490009 0.5785852776198892  
6 0 7 0.23113585322160934 0.58544287510745674  0.24544483434824027 0.5846328282065596  0.26027220194842593 0.58384678014644964  0.27569733165402749 0.58308760212625954  0.29179421988307286 0.58236011310087832  0.30864023882983854 0.58167136536692188  0.32632489145493221 0.58103093014870633  0.34495856647537448 0.58045118318421862  
6 0 7 0.09465673114121903 0.59522283837448375  0.11184415127786769 0.59373776934819389  0.12961703050742918 0.59227455383691907  0.14806789926226388 0.59083548973308753  0.16729743551655002 0.58942480977411627  0.18743260639707823 0.58804914992660318  0.20862273994268574 0.58671736680464681  0.23113585322160934 0.58544287510745674  
6 0 7 0 0.60431725003128023  0.012610923725630144 0.60298755251162639  0.025477373296357009 0.60166623931422991  0.0386246356453155 0.60035412574249281  0.052080064509423978 0.59905225389624384  0.065875787168557312 0.59776193680123291  0.08005141118471984 0.59648480253862279  0.09465673114121903 0.59522283837448375  
6 0 1 0 0  0 0.60431725003128023  
6 0 1 1 0  1 0.60431725003128023  
6 0 4 0.92948304822089256 0.6169775679636138  0.94755108298078705 0.61389506349917722  0.96531753160764644 0.61075394729215859  0.98279611188830207 0.60755986021247654  1 0.60431725003128034  
6 0 6 0 0.75190218333464076  0.16997511400183787 0.73153630879806908  0.33316900497924412 0.71009910261942044  0.49020765936663696 0.68779211056692902  0.64161062827111282 0.66476697265891727  0.78787424509498805 0.64113679577337002  0.92948304822090033 0.61697756796359882  
Curves 52
6 0 1 -6.2999999999999989 -19.999999999999996 0.75  -6.5553603458741687 -20.000000000000004 5.6225656642505832  
6 0 6 -6.5095370211669614 -28.365347433988106 4.7482045420262065  -6.5177420187456354 -27.090868203760163 4.9047652223473612  -6.5257673392362587 -25.774495637987886 5.0578974595917376  -6.5335871752695729 -24.411868917638099 5.2071088198190569  -6.5411631132734849 -22.998521049019583 5.3516663284094754  -6.5484436531584826 -21.529776062848164 5.4905873051155467  -6.5553603458741696 -20.000000000000007 5.6225656642505832  
6 0 4 -6.5052373027062922 -29.000000000000004 4.6661610263594291  -6.506338563422303 -28.845165007725203 4.6871743326104527  -6.5074233446445868 -28.687857785469522 4.7078731913891456  -6.5084901358132656 -28.527959747633169 4.7282287794959679  -6.5095370211669659 -28.365347433988042 4.7482045420263033  
6 0 1 -6.2999999999999972 -28.999999999999996 0.75000000000000022  -6.5052373027062913 -29.000000000000007 4.6661610263594291  
6 0 1 -6.2999999999999989 -29 0.75  -6.3000000000000078 -20.000000000000004 0.75  
6 0 1 6.3000000000000007 -20 0.75  6.3000000000000096 -29 0.75  
6 0 6 3.2999999999999989 -16.999999999999996 0.75  4.0853981633974472 -16.999999999999996 0.75  4.8707963267948955 -17.246740110027233 0.75  5.5595617544691844 -17.740438245530825 0.75  6.0532598899727628 -18.429203673205102 0.75  6.299999999999998 -19.214601836602547 0.75  6.299999999999998 -19.999999999999993 0.75  
6 0 1 -3.2999999999999989 -17 0.75  3.2999999999999989 -16.999999999999993 0.75  
6 0 6 -6.2999999999999989 -20 0.75  -6.2999999999999989 -19.214601836602551 0.75  -6.0532598899727654 -18.429203673205102 0.75  -5.5595617544691818 -17.740438245530814 0.75  -4.8707963267948955 -17.246740110027229 0.75  -4.0853981633974472 -16.999999999999993 0.75  -3.2999999999999989 -16.999999999999993 0.75  
6 0 6 -3.299999999999998 -32 0.75  -4.0853981633974463 -32 0.75  -4.8707963267948946 -31.753259889972764 0.75  -5.5595617544691764 -31.259561754469168 0.75  -6.0532598899727654 -30.570796326794891 0.75  -6.2999999999999989 -29.785398163397442 0.75  -6.2999999999999989 -28.999999999999993 0.75  
6 0 1 3.2999999999999998 -31.999999999999996 0.75  -3.2999999999999998 -32 0.75  
6 0 6 6.299999999999998 -29 0.75  6.299999999999998 -29.785398163397449 0.75  6.0532598899727645 -30.570796326794898 0.75  5.5595617544691756 -31.259561754469193 0.75  4.8707963267948955 -31.753259889972778 0.75  4.0853981633974472 -32.000000000000007 0.75  3.2999999999999989 -32.000000000000007 0.75  
6 0 1 -3.2999999999999989 -16.999999999999989 0.75  -3.3000000000000007 -16.70230503479997 6.4303583222301928  
6 0 7 -5.6179664948921673 -17.685783180931551 6.0073816968298956  -5.3696157507017883 -17.432062646934675 6.0743740895307869  -5.0910896192622532 -17.211562766849887 6.1417020087050629  -4.7837456190000749 -17.024079271608709 6.2081867251150653  -4.4483517364257033 -16.873294797674795 6.2723240313731914  -4.0867664501399084 -16.764491774248512 6.3322003290653299  -3.7020668400677814 -16.704649847017521 6.3856166398000198  -3.3000000000000007 -16.70230503479997 6.4303583222301937  
6 0 7 -6.5553603458741687 -20 5.6225656642505832  -6.5571860594864759 -19.596203981219301 5.6574023552396664  -6.5012633592035902 -19.209126250987762 5.7028962999867545  -6.3960826638851538 -18.846572749590969 5.7566030503422532  -6.250015829096685 -18.511943136195569 5.8158160851284233  -6.0692646649034012 -18.2068894983272 5.8783280523564931  -5.8584307881636493 -17.931446744755032 5.9425166672609224  -5.6179664948921673 -17.685783180931551 6.0073816968298956  
6 0 8 -6.4606916786171364 -29.512451986897791 4.6029744033831044  -6.4722829398028994 -29.443422354558201 4.6106205552036785  -6.4818426703252969 -29.376023841831195 4.6183562995601681  -6.4895635240270328 -29.310127320458044 4.6261709068771957  -6.4956008278022059 -29.245628934262051 4.6340554168090078  -6.500083618368083 -29.182441140666402 4.6420023382368907  -6.5031222720785937 -29.120486521298258 4.6500054431129572  -6.5048127277796617 -29.059694361678897 4.6580596541502857  -6.5052373027062904 -29.000000000000004 4.6661610263594282  
6 0 8 -6.2705111776214935 -30.186426803150621 4.5399828791817587  -6.3086282319940734 -30.092014230348923 4.5471005710359744  -6.3413410068501683 -30.001183285545356 4.5545246536723578  -6.3695645994722287 -29.91346263410562 4.5621930172394034  -6.393904632134678 -29.828556092946279 4.5700610282098246  -6.4148342065781421 -29.746220026485084 4.5780945359495622  -6.4327437463849728 -29.666229195142435 4.5862680088875392  -6.447942650184582 -29.58837648995938 4.5945645327574773  -6.4606916786171364 -29.512451986897791 4.6029744033831044  
6 0 8 -5.9986555626687963 -30.714027482506108 4.5085911267871754  -6.0446527845947831 -30.641924626581911 4.5116495781370096  -6.0864231675568288 -30.571635558319883 4.5150487461557773  -6.1244310870396284 -30.503172391764995 4.5187296125254459  -6.1590794183170496 -30.436516789183546 4.5226434202698735  -6.1907189885619536 -30.371617985196814 4.5267511524466499  -6.2196580289560259 -30.308390810914787 4.531023010838946  -6.2461716267996019 -30.246713718069881 4.5354378946473588  -6.2705111776214935 -30.186426803150621 4.5399828791817587  
6 0 8 -5.5558694616730291 -31.264421277260283 4.4973415499304625  -5.6126169152484335 -31.207866849626939 4.4970558660195232  -5.6707978124133662 -31.146676851612675 4.4971478611200268  -5.7291670996376043 -31.081484709163192 4.4977020359051378  -5.786778597584723 -31.012883360488193 4.4987723383372904  -5.8429398556837482 -30.941410968303153 4.500388711666008  -5.8971670067007951 -30.86753663207109 4.5025636424257156  -5.949139621310727 -30.791646100244296 4.5052987084335507  -5.9986555626687963 -30.714027482506108 4.5085911267871754  
6 0 8 -4.7130664714832875 -31.868949432957972 4.528701665724741  -4.8104737478691355 -31.820609902877628 4.5227092984058501  -4.9100118460077029 -31.766529657333788 4.5170765879097372  -5.0126080207868782 -31.705573450492668 4.5118262784905472  -5.118519886689529 -31.636563968014499 4.5070649363437854  -5.2273067928365009 -31.558357241040511 4.5029841898251961  -5.3378361920219346 -31.470180917630302 4.4998236128669555  -5.4482906263110955 -31.371634184201938 4.4978831344507197  -5.5558694616730291 -31.264421277260283 4.4973415499304625  
6 0 8 -3.974989791093539 -32.129056355769848 4.5849124485153574  -4.0604398274377989 -32.110220614426979 4.5772875450714743  -4.1475017158180609 -32.088246206043699 4.5697881157922131  -4.2363544087560072 -32.062840550876075 4.5624249343308705  -4.327152997728998 -32.033660340513237 4.5552171161559913  -4.4200489695040197 -32.000276842663396 4.5481940680812629  -4.5151894245475708 -31.962181141796407 4.5413953000718497  -4.6127512789725618 -31.918732051318838 4.5348729242127446  -4.7130664714832875 -31.868949432957972 4.528701665724741  
6 0 8 -3.2999999999999972 -32.204503334739563 4.6521560832617661  -3.3792039362168338 -32.204048061350825 4.6434689495008818  -3.4597425817493055 -32.201362631400322 4.6348455314508383  -3.5416785524357381 -32.196314025218669 4.6262914031634219  -3.6250790718759531 -32.188744734516547 4.6178142926292427  -3.7100157234300184 -32.178473544823788 4.6094240578052332  -3.7965703200148551 -32.165287713648567 4.6011329417592712  -3.8848468916987158 -32.148926544356499 4.5929561069319336  -3.974989791093539 -32.129056355769848 4.5849124485153574  
6 0 1 -3.299999999999998 -32 0.75  -3.2999999999999989 -32.204503334739549 4.6521560832617661  
6 0 1 3.2999999999999994 -17 0.75  3.2999999999999989 -16.702304006920325 6.4303779353423591  
6 0 8 2.57322261100094 -16.698536996033358 6.5022567849807436  2.6743902052703064 -16.698995923833255 6.4934999209010673  2.771932779709279 -16.699459179600701 6.4846604742811493  2.8662892150498962 -16.699926184759367 6.4757494850148101  2.9577917203956026 -16.700396474150541 6.4667758288588786  3.0467048335240277 -16.700869671763215 6.4577466805311472  3.1332516664092971 -16.701345474519595 6.4486678231003136  3.2176273959638837 -16.701823644116189 6.43954380366793  3.3000000000000007 -16.702304006920329 6.4303779353423565  
6 0 8 1.5467595363879632 -16.694813802281658 6.5732995538718111  1.7031500780935738 -16.695239224109454 6.5651820218257742  1.8479352921562859 -16.695682349185088 6.5567266916875804  1.9840035841932639 -16.696138415327184 6.5480244312920926  2.1127625259739009 -16.696604523226178 6.539130562759917  2.2352606094127649 -16.697078574479626 6.530085125995595  2.3523981080082854 -16.697559094051254 6.5209162663685607  2.4648373379354753 -16.698045326588524 6.5116383968627627  2.57322261100094 -16.698536996033358 6.5022567849807436  
6 0 8 0.6416547174769901 -16.693073060466428 6.6065148863862486  0.75403842266899379 -16.693199731045976 6.6040978677435893  0.8789785263707931 -16.693365991944724 6.6009254208089754  1.0082141916441596 -16.693572414817567 6.5969866377566726  1.1357604772586036 -16.693812693657552 6.592401844367763  1.257153876764584 -16.694074863936837 6.587399337433105  1.3686978575667181 -16.694342521747814 6.5822921221562813  1.4667083999969905 -16.694596042944113 6.5774546495565529  1.5467595363879632 -16.694813802281658 6.5732995538718111  
6 0 8 -0.23541469417414976 -16.692760247273718 6.6124837176741416  -0.12351724983150456 -16.692713959976295 6.613366931923137  -0.007955902216836605 -16.692691332157988 6.6137986964172839  0.10835186361938617 -16.692696355046198 6.6137028540007083  0.2231796001718083 -16.692729263371355 6.613074925750162  0.33489023855093103 -16.692787608442089 6.6119616354804034  0.44233442955385627 -16.692867331220441 6.6104404342495586  0.5447488847350308 -16.692963835397066 6.6085990248645059  0.6416547174769901 -16.693073060466428 6.6065148863862486  
6 0 8 -1.5100218954521623 -16.694715526607002 6.5751747654530268  -1.3869018778955744 -16.6943885464107 6.5814139192728582  -1.2582441701171403 -16.69407739985644 6.5873509492048798  -1.1210696758260723 -16.693778991870907 6.5930449127643858  -0.9728617215693145 -16.693495731153781 6.5984498492278387  -0.81153900890135588 -16.693235857695871 6.6034085301984344  -0.63557238244919789 -16.693012811887201 6.6076644977618519  -0.4436273722084807 -16.692846376159068 6.6108402806399749  -0.23541469417414976 -16.692760247273718 6.6124837176741416  
6 0 8 -2.6059690532327817 -16.698687307920764 6.4993886633112838  -2.4914574924913224 -16.698161151106582 6.5094283334019281  -2.3724746066258722 -16.697641081048353 6.5193518612701533  -2.2482916082036901 -16.697127292834228 6.5291555244126211  -2.1180331438404947 -16.696620731979571 6.5388212813206712  -1.9807886188389923 -16.696122970597028 6.5483191342990041  -1.835115100696266 -16.695636748097218 6.5575968122785344  -1.6794631032800285 -16.695165525888164 6.566588267659764  -1.5100218954521623 -16.694715526607002 6.5751747654530268  
6 0 8 -3.3000000000000007 -16.702305034799977 6.4303583222301919  -3.2209772325083366 -16.701844182194858 6.4391519137814628  -3.1401104889939111 -16.701385344311152 6.4479070621579631  -3.0572516967476582 -16.700928677794348 6.456620778385755  -2.9722301069461476 -16.700474392325606 6.4652890615098872  -2.8848510009877484 -16.700022751174867 6.4739068880410535  -2.7948849099249156 -16.699574077687622 6.4824680881795063  -2.7020473469926012 -16.69912876770552 6.4909651088162192  -2.6059690532327817 -16.698687307920764 6.4993886633112838  
6 0 7 -2.4429028036645946 -32.208784303413431 4.7338418316838595  -2.5826498232890787 -32.208191296662889 4.7225265888200836  -2.7149777885278383 -32.2075899431644 4.7110520805176881  -2.8412446046509272 -32.206981962870692 4.6994511254298263  -2.9623002123131772 -32.206368562933363 4.6877467573814711  -3.0787715348236335 -32.205750618600931 4.6759556771089521  -3.1911954804845619 -32.205128755705687 4.6640898262039299  -3.3000000000000007 -32.204503334739563 4.6521560832617652  
6 0 7 -1.5044202973749954 -32.211998423530275 4.7951708969642741  -1.6659782573093138 -32.211577099782502 4.7871315609432328  -1.8146248679833785 -32.211136545313266 4.7787252808957295  -1.9538692935226685 -32.210682656021653 4.7700645572850355  -2.0851441675691644 -32.210218629742769 4.7612104084273037  -2.2098057933533699 -32.209746874227804 4.7522087769644976  -2.3287710302851834 -32.209268613649506 4.7430830214976512  -2.4429028036645946 -32.208784303413431 4.7338418316838595  
6 0 7 -0.5169445258174683 -32.213727561523214 4.8281648153594361  -0.69405115912535331 -32.213569013302063 4.8251395350800559  -0.8554523939269294 -32.213361160211143 4.8211734618415312  -1.0041427848524949 -32.213121404736718 4.8165986548610658  -1.1415738121632955 -32.21286002551615 4.8116112422281896  -1.26956597064548 -32.212584300232209 4.8063500903948775  -1.3898539414122075 -32.212297198821091 4.8008718691272403  -1.5044202973749954 -32.211998423530275 4.7951708969642741  
6 0 7 0.70793667808625749 -32.213525206943004 4.8243036599551017  0.55800442263952643 -32.213708987718327 4.8278104060496032  0.38976347951534995 -32.213869777402621 4.8308784559927993  0.20822990180563927 -32.213981419354184 4.8330087113321394  0.01905140105174441 -32.214022711355369 4.8337966096500002  -0.17083969719268266 -32.213983124418718 4.8330412459004854  -0.35304073268685476 -32.213874290385682 4.8309645688402192  -0.5169445258174683 -32.213727561523214 4.8281648153594361  
6 0 7 1.5962645544969103 -32.211752063979063 4.7904700766930777  1.4909067067490362 -32.212043611765786 4.796033139862419  1.3806318631946382 -32.212326453420566 4.8014300801386236  1.2640154230542335 -32.212600019679307 4.8066500353147488  1.1399531725582968 -32.212862328135607 4.8116551788232513  1.0072365921708244 -32.213109246167001 4.8163666555310609  0.86412816381289936 -32.213333753861342 4.8206505175346503  0.70793667808625749 -32.213525206943004 4.8243036599551017  
6 0 7 2.603163717366753 -32.208082580689378 4.7204521644693127  2.4813525325079686 -32.208633599665937 4.7309662328785169  2.3542645842596563 -32.209178196316337 4.7413577560042377  2.2209289989976941 -32.209715937209836 4.7516184634962775  2.0803234995882169 -32.210245529763974 4.7617236914099506  1.9308635656417321 -32.210764294438178 4.7716223110675626  1.7709346547210743 -32.211268714307309 4.7812472155383263  1.5962645544969103 -32.211752063979063 4.7904700766930777  
6 0 7 3.3000000000000007 -32.204504347852719 4.6521754146125209  3.2094895284773353 -32.205024584679464 4.6621021246135381  3.1164698214486086 -32.205542389533903 4.6719824298188231  3.0206964452313487 -32.206057522019549 4.6818117431898516  2.9218774898344018 -32.206569634907446 4.6915834392031144  2.8196702854160014 -32.207078272849955 4.7012888293087283  2.7136376569880687 -32.207582846307709 4.7109166644250484  2.603163717366753 -32.208082580689378 4.7204521644693127  
6 0 1 3.2999999999999998 -31.999999999999993 0.75  3.2999999999999998 -32.204504347852726 4.6521754146125209  
6 0 1 6.3000000000000007 -19.999999999999996 0.75  6.5553623617904693 -20 5.6226041302250511  
6 0 8 5.6358447970845731 -17.704188938114839 6.0025752261704977  5.8423933088134543 -17.918529998181739 5.9464562006885719  6.0271247224871729 -18.154690674037308 5.8908840148078934  6.189706394612231 -18.412592108529033 5.8364707421005244  6.3278188914635063 -18.692192587516381 5.7841309929806535  6.4380647181969621 -18.992869001881232 5.735066419144621  6.5161374499253517 -19.313173081712062 5.6907392718748815  6.556942700131084 -19.650474132101923 5.6527587821152672  6.5553623617904657 -20 5.6226041302250502  
6 0 8 3.2999999999999958 -16.702304006920322 6.4303779353423582  3.6554662146440102 -16.704376938201818 6.3908240502158336  3.9975926621982869 -16.750476289087409 6.3446328169629682  4.3227307077243067 -16.835065811004313 6.2932289205213623  4.6285499042105727 -16.953514828972171 6.238030800453009  4.9135963713388335 -17.101924880190587 6.1803380290598673  5.1769244880356702 -17.27742010411993 6.1212764859761881  5.4179784200364676 -17.478103018547806 6.0617693044181591  5.6358447970845731 -17.704188938114839 6.0025752261704977  
6 0 7 3.9603095422424661 -32.132257655396835 4.5862490788301473  3.8596843722179832 -32.153946387462604 4.5952750861954028  3.761428640803449 -32.171196094912581 4.6044682481908863  3.6653276240736536 -32.184498690829805 4.6138010182855895  3.5712403294556578 -32.194214423013072 4.623252453579676  3.4790561524684636 -32.200631424008137 4.6328063222569211  3.3886734456969414 -32.203994669898016 4.6424501798919815  3.299999999999998 -32.204504347852726 4.6521754146125192  
6 0 7 4.7048893031674588 -31.872994638388228 4.5292337891758381  4.5891683123731601 -31.930014621218938 4.5363948327372192  4.4771838417571361 -31.978474010879857 4.5440279709128921  4.3683882720730702 -32.019973107907077 4.5520120262227417  4.2625553456685008 -32.0554154354896 4.5602719207634665  4.1594341969932547 -32.085576543101887 4.5687513295865987  4.0587823202967543 -32.111032849530957 4.5774161395190491  3.9603095422424661 -32.132257655396835 4.5862490788301473  
6 0 7 5.3946836562739886 -31.414455126542713 4.4994465050161478  5.2909447989853282 -31.504608933433367 4.501535544550098  5.1875327316502684 -31.585429873201292 4.5046746662610975  5.0858440785915091 -31.657214776672561 4.5086330127573149  4.9866658506179427 -31.720885139229868 4.5131934965014979  4.8903099793750062 -31.777409785288469 4.51820144552208  4.7966009517382027 -31.82780494038283 4.5235584911508795  4.7048893031674588 -31.872994638388228 4.5292337891758381  
6 0 7 6.0391480027577575 -30.648861982762284 4.5115382629081635  5.9756975652052189 -30.753739710433685 4.5066169460605749  5.9021972723459992 -30.864740958221024 4.5022796801672786  5.8178235687417077 -30.979995426317004 4.4988639477432448  5.7224200447604634 -31.096676127002688 4.4967271174058965  5.6170580551672016 -31.210920823144296 4.49616901643203  5.5052746655436238 -31.318346486500587 4.4972194803842793  5.3946836562739886 -31.414455126542713 4.4994465050161478  
6 0 7 6.2903481463836926 -30.136086041518041 4.5438862720256692  6.2645532526120338 -30.203197210583376 4.5386368686292284  6.2360840118687069 -30.272063721683654 4.5335429865935897  6.2045857066098522 -30.342909953801129 4.5286232323506272  6.169664778659965 -30.415903775083642 4.5239088345096139  6.1308554927987258 -30.491168932838821 4.5194454945598928  6.0875866003478194 -30.568797443528364 4.5152952375735653  6.0391480027577575 -30.648861982762284 4.5115382629081635  
6 0 7 6.4668513701245667 -29.474391608142192 4.607264049700186  6.4535526734057811 -29.559820848347364 4.5976402533719476  6.4371364644246274 -29.647728493897347 4.5881580759003686  6.4172185768690078 -29.738420913724525 4.5788324084779264  6.393325454517349 -29.832204703334348 4.5696906808079385  6.3648218782013863 -29.929434436633404 4.5607758964073382  6.3309326827919712 -30.030496318666501 4.552145449409787  6.2903481463836926 -30.136086041518041 4.5438862720256692  
6 0 7 6.5052393032752045 -29.000000000000007 4.6661991994883474  6.5047877090298227 -29.063493202898304 4.6575822679647816  6.5028748054812402 -29.128254494729823 4.6490196699491682  6.4993918223538225 -29.194368487716645 4.6405166889089795  6.494215333047646 -29.2619246697348 4.6320800780363767  6.4871968095400021 -29.331025844533084 4.6237183462236473  6.4781521772869022 -29.401796571951934 4.6154420440386366  6.4668513701245667 -29.474391608142192 4.607264049700186  
6 0 1 6.2999999999999998 -29 0.74999999999999978  6.5052393032752081 -29.000000000000011 4.6661991994883483  
6 0 4 6.5095390230524259 -28.365347433988042 4.7482427402764138  6.5084921373833664 -28.527959746827094 4.7282669717286501  6.5074253458896596 -28.687857784468822 4.7079113774198822  6.5063405643336143 -28.845165006994726 4.6872125122726445  6.5052393032752089 -29.000000000000007 4.6661991994883483  
6 0 6 6.5553623617904702 -20 5.6226041302250511  6.5484456671234561 -21.529776026016542 5.490625733856465  6.5411651248916298 -22.99852104481317 5.3517047123702461  6.5335891844286005 -24.41186893429979 5.2071471568570731  6.5257693459880954 -25.774495654439995 5.0579357506978226  6.5177440231299286 -27.0908682058549 4.9048034682780157  6.5095390230524233 -28.365347433988109 4.7482427402763161  
Polygon3D 0
PolygonOnTriangulations 0
Surfaces 9
8 0 0 1 1 -6.2999999999999989 -29 0.75  -6.6396217851874724 -29.000000000000007 7.2303697052924445  
-6.2999999999999989 -20.000000000000004 0.75  -6.6396217851874724 -20.000000000000007 7.2303697052924445  

8 0 0 8 1 -6.2999999999999989 -20 0.75  -6.6396217851874724 -20 7.2303697052924445  
-6.2999999999999989 -19.410951377451912 0.75  -6.6396217851874724 -19.344266795867913 7.2303697052924445  
-6.1678177981996951 -18.821902754903824 0.75  -6.4928987827611415 -18.688183735996464 7.2303697052924445  
-5.9034533945990875 -18.267459351865 0.75  -6.1980558644239441 -18.071333104251888 7.2303697052924445  
-5.5177759758460416 -17.782224024153951 0.75  -5.7683953055656172 -17.531604694434385 7.2303697052924445  
-5.0325406481349946 -17.396546605400903 0.75  -5.2286668957481135 -17.101944135576058 7.2303697052924445  
-4.4780972450961709 -17.132182201800294 0.75  -4.6118162640035374 -16.807101217238859 7.2303697052924445  
-3.8890486225480849 -16.999999999999989 0.75  -3.9557332041320885 -16.660378214812525 7.2303697052924445  
-3.2999999999999989 -16.999999999999989 0.75  -3.3000000000000007 -16.660378214812525 7.2303697052924445  

8 0 0 8 1 -3.2999999999999972 -32 0.75  -3.2999999999999972 -32.339621785187482 7.2303697052924445  
-3.8890486225480831 -32 0.75  -3.9557332041320845 -32.339621785187482 7.2303697052924445  
-4.4780972450961691 -31.867817798199695 0.75  -4.6118162640035365 -32.192898782761162 7.2303697052924445  
-5.0325406481349919 -31.603453394599086 0.75  -5.2286668957481162 -31.898055864423966 7.2303697052924445  
-5.517775975846039 -31.217775975846038 0.75  -5.7683953055656216 -31.468395305565632 7.2303697052924445  
-5.9034533945990848 -30.732540648134993 0.75  -6.1980558644239467 -30.928666895748123 7.2303697052924445  
-6.1678177981996924 -30.178097245096168 0.75  -6.4928987827611406 -30.31181626400355 7.2303697052924445  
-6.2999999999999963 -29.589048622548081 0.75  -6.6396217851874679 -29.655733204132112 7.2303697052924445  
-6.2999999999999963 -28.999999999999993 0.75  -6.6396217851874679 -29.000000000000025 7.2303697052924445  

8 0 0 1 1 -6.2999999999999927 -32.000000000000028 0.75  6.3000000000000247 -32 0.75  
-6.3000000000000229 -16.999999999999993 0.75  6.2999999999999945 -16.999999999999968 0.75  

8 0 0 1 1 6.3000000000000007 -20 0.75  6.6396217851874741 -20 7.2303697052924445  
6.3000000000000007 -29 0.75  6.6396217851874741 -29.000000000000011 7.2303697052924445  

8 0 0 8 1 3.2999999999999989 -17 0.75  3.2999999999999972 -16.660378214812532 7.2303697052924445  
3.8890486225480849 -17 0.75  3.9557332041320845 -16.660378214812532 7.2303697052924445  
4.4780972450961709 -17.132182201800305 0.75  4.6118162640035356 -16.807101217238859 7.2303697052924445  
5.0325406481349937 -17.396546605400911 0.75  5.2286668957481144 -17.101944135576055 7.2303697052924445  
5.5177759758460407 -17.782224024153955 0.75  5.768395305565619 -17.531604694434385 7.2303697052924445  
5.9034533945990866 -18.267459351865 0.75  6.198055864423945 -18.071333104251892 7.2303697052924445  
6.1678177981996942 -18.821902754903824 0.75  6.4928987827611406 -18.688183735996468 7.2303697052924445  
6.2999999999999989 -19.410951377451909 0.75  6.6396217851874697 -19.344266795867913 7.2303697052924445  
6.2999999999999989 -19.999999999999993 0.75  6.6396217851874697 -20 7.2303697052924445  

8 0 0 1 1 -3.2999999999999989 -17 0.75  -3.3000000000000007 -16.660378214812532 7.2303697052924445  
3.2999999999999989 -17 0.75  3.2999999999999998 -16.660378214812532 7.2303697052924445  

8 0 0 1 1 3.3000000000000007 -32 0.75  3.3000000000000007 -32.339621785187468 7.2303697052924445  
-3.2999999999999989 -32 0.75  -3.3000000000000016 -32.339621785187468 7.2303697052924445  

8 0 0 8 1 6.2999999999999989 -29 0.75  6.6396217851874733 -29.000000000000021 7.2303697052924445  
6.2999999999999989 -29.589048622548088 0.75  6.6396217851874733 -29.655733204132108 7.2303697052924445  
6.1678177981996951 -30.178097245096176 0.75  6.4928987827611433 -30.311816264003546 7.2303697052924445  
5.9034533945990875 -30.732540648135 0.75  6.1980558644239476 -30.928666895748123 7.2303697052924445  
5.5177759758460416 -31.217775975846049 0.75  5.7683953055656225 -31.468395305565636 7.2303697052924445  
5.0325406481349946 -31.603453394599097 0.75  5.2286668957481179 -31.89805586442397 7.2303697052924445  
4.4780972450961709 -31.867817798199706 0.75  4.6118162640035392 -32.192898782761162 7.2303697052924445  
3.8890486225480849 -32.000000000000007 0.75  3.9557332041320867 -32.339621785187482 7.2303697052924445  
3.2999999999999989 -32.000000000000007 0.75  3.2999999999999994 -32.339621785187482 7.2303697052924445  

Triangulations 0

TShapes 116
Ve
0.0011
-6.3 -20 0.75
0 0

0101100
*
Ve
0.0011
-6.55536034587417 -20 5.62256566425058
0 0

0101100
*
Ed
 1e-07 1 1 0
1  1 0 0 1
2  1 1 0 0 1
2  2 2 0 0 1
4 G1 1 0 2 0
0

0101000
+116 0 -115 0 *
Ve
0.0011
-6.50953702116696 -28.3653474339881 4.74820454202625
0 0

0101100
*
Ed
 1e-07 1 1 0
1  2 0 0 1
2  3 1 0 0 1
0

0101000
+113 0 -115 0 *
Ve
0.0011
-6.50523730270629 -29 4.66616102635943
0 0

0101100
*
Ed
 1e-07 1 1 0
1  3 0 0 1
2  4 1 0 0 1
0

0101000
+111 0 -113 0 *
Ve
0.0011
-6.3 -29 0.75
0 0

0101100
*
Ed
 1e-07 1 1 0
1  4 0 0 1
2  5 1 0 0 1
2  6 3 0 0 1
4 G1 1 0 3 0
0

0101000
+109 0 -111 0 *
Ed
 1e-07 1 1 0
1  5 0 0 1
2  7 1 0 0 1
2  8 4 0 0 1
0

0101000
+109 0 -116 0 *
Wi

0101100
+114 0 -112 0 -110 0 -108 0 +107 0 *
Fa
0  1e-07 1 0

0101000
+106 0 *
Ve
0.0011
6.3 -20 0.75
0 0

0101100
*
Ve
0.0011
6.3 -29 0.75
0 0

0101100
*
Ed
 1e-07 1 1 0
1  6 0 0 1
2  9 4 0 0 1
2  10 5 0 0 1
0

0101000
+104 0 -103 0 *
Ve
0.0011
3.3 -17 0.75
0 0

0101100
*
Ed
 2.77159622655229e-05 1 1 0
1  7 0 0 1
2  11 4 0 0 1
2  12 6 0 0 1
0

0101000
+101 0 -104 0 *
Ve
0.0011
-3.3 -17 0.75
0 0

0101100
*
Ed
 1e-07 1 1 0
1  8 0 0 1
2  13 4 0 0 1
2  14 7 0 0 1
0

0101000
+99 0 -101 0 *
Ed
 2.77159622633895e-05 1 1 0
1  9 0 0 1
2  15 4 0 0 1
2  16 2 0 0 1
0

0101000
+116 0 -99 0 *
Ve
0.0011
-3.3 -32 0.75
0 0

0101100
*
Ed
 2.77159622619592e-05 1 1 0
1  10 0 0 1
2  17 4 0 0 1
2  18 3 0 0 1
0

0101000
+96 0 -109 0 *
Ve
0.0011
3.3 -32 0.75
0 0

0101100
*
Ed
 1e-07 1 1 0
1  11 0 0 1
2  19 4 0 0 1
2  20 8 0 0 1
0

0101000
+94 0 -96 0 *
Ed
 2.7715962262711e-05 1 1 0
1  12 0 0 1
2  21 4 0 0 1
2  22 9 0 0 1
0

0101000
+103 0 -94 0 *
Wi

0101100
-102 0 -100 0 -98 0 -97 0 -107 0 -95 0 -93 0 -92 0 *
Fa
0  1e-07 4 0

0101000
-91 0 *
Ve
0.0011
-3.3 -16.7023050348 6.43035832223019
0 0

0101100
*
Ed
 1e-07 1 1 0
1  13 0 0 1
2  23 2 0 0 1
2  24 7 0 0 1
4 G1 2 0 7 0
0

0101000
+99 0 -89 0 *
Ve
0.0011
-5.61796649489217 -17.6857831809316 6.0073816968299
0 0

0101100
*
Ed
 2.11017625173274e-07 1 1 0
1  14 0 0 1
2  25 2 0 0 1
0

0101000
+87 0 -89 0 *
Ed
 2.4308267467109e-07 1 1 0
1  15 0 0 1
2  26 2 0 0 1
0

0101000
+115 0 -87 0 *
Wi

0101100
+88 0 -86 0 -85 0 -114 0 +97 0 *
Fa
0  1e-07 2 0

0101000
+84 0 *
Ve
0.0011
-6.46069167861714 -29.5124519868978 4.60297440338311
0 0

0101100
*
Ed
 1e-07 1 1 0
1  16 0 0 1
2  27 3 0 0 1
0

0101000
+82 0 -111 0 *
Ve
0.0011
-6.27051117762149 -30.1864268031506 4.53998287918176
0 0

0101100
*
Ed
 1e-07 1 1 0
1  17 0 0 1
2  28 3 0 0 1
0

0101000
+80 0 -82 0 *
Ve
0.0011
-5.9986555626688 -30.7140274825061 4.50859112678718
0 0

0101100
*
Ed
 3.63809888899343e-07 1 1 0
1  18 0 0 1
2  29 3 0 0 1
0

0101000
+78 0 -80 0 *
Ve
0.0011
-5.55586946167303 -31.2644212772603 4.49734154993046
0 0

0101100
*
Ed
 4.38706302954602e-07 1 1 0
1  19 0 0 1
2  30 3 0 0 1
0

0101000
+76 0 -78 0 *
Ve
0.0011
-4.71306647148329 -31.868949432958 4.52870166572474
0 0

0101100
*
Ed
 1e-07 1 1 0
1  20 0 0 1
2  31 3 0 0 1
0

0101000
+74 0 -76 0 *
Ve
0.0011
-3.97498979109354 -32.1290563557698 4.58491244851536
0 0

0101100
*
Ed
 1e-07 1 1 0
1  21 0 0 1
2  32 3 0 0 1
0

0101000
+72 0 -74 0 *
Ve
0.0011
-3.3 -32.2045033347396 4.65215608326177
0 0

0101100
*
Ed
 1e-07 1 1 0
1  22 0 0 1
2  33 3 0 0 1
0

0101000
+70 0 -72 0 *
Ed
 1e-07 1 1 0
1  23 0 0 1
2  34 3 0 0 1
2  35 8 0 0 1
4 G1 3 0 8 0
0

0101000
+96 0 -70 0 *
Wi

0101100
+108 0 -81 0 -79 0 -77 0 -75 0 -73 0 -71 0 -69 0 -68 0 +95 0 
*
Fa
0  1e-07 3 0

0101000
+67 0 *
Ve
0.0011
3.3 -16.7023040069203 6.43037793534236
0 0

0101100
*
Ed
 1e-07 1 1 0
1  24 0 0 1
2  36 7 0 0 1
2  37 6 0 0 1
4 G1 7 0 6 0
0

0101000
+101 0 -65 0 *
Ve
0.0011
2.57322261100094 -16.6985369960334 6.50225678498074
0 0

0101100
*
Ed
 1e-07 1 1 0
1  25 0 0 1
2  38 7 0 0 1
0

0101000
+63 0 -65 0 *
Ve
0.0011
1.54675953638796 -16.6948138022817 6.57329955387181
0 0

0101100
*
Ed
 1e-07 1 1 0
1  26 0 0 1
2  39 7 0 0 1
0

0101000
+61 0 -63 0 *
Ve
0.0011
0.64165471747699 -16.6930730604664 6.60651488638625
0 0

0101100
*
Ed
 1e-07 1 1 0
1  27 0 0 1
2  40 7 0 0 1
0

0101000
+59 0 -61 0 *
Ve
0.0011
-0.23541469417415 -16.6927602472737 6.61248371767414
0 0

0101100
*
Ed
 1e-07 1 1 0
1  28 0 0 1
2  41 7 0 0 1
0

0101000
+57 0 -59 0 *
Ve
0.0011
-1.51002189545216 -16.694715526607 6.57517476545303
0 0

0101100
*
Ed
 1e-07 1 1 0
1  29 0 0 1
2  42 7 0 0 1
0

0101000
+55 0 -57 0 *
Ve
0.0011
-2.60596905323278 -16.6986873079208 6.49938866331128
0 0

0101100
*
Ed
 1e-07 1 1 0
1  30 0 0 1
2  43 7 0 0 1
0

0101000
+53 0 -55 0 *
Ed
 1e-07 1 1 0
1  31 0 0 1
2  44 7 0 0 1
0

0101000
+89 0 -53 0 *
Wi

0101100
+64 0 -62 0 -60 0 -58 0 -56 0 -54 0 -52 0 -51 0 -88 0 +98 0 
*
Fa
0  1e-07 7 0

0101000
+50 0 *
Ve
0.0011
-2.44290280366459 -32.2087843034134 4.73384183168386
0 0

0101100
*
Ed
 1e-07 1 1 0
1  32 0 0 1
2  45 8 0 0 1
0

0101000
+48 0 -70 0 *
Ve
0.0011
-1.50442029737499 -32.2119984235303 4.79517089696428
0 0

0101100
*
Ed
 1e-07 1 1 0
1  33 0 0 1
2  46 8 0 0 1
0

0101000
+46 0 -48 0 *
Ve
0.0011
-0.516944525817469 -32.2137275615232 4.82816481535944
0 0

0101100
*
Ed
 1e-07 1 1 0
1  34 0 0 1
2  47 8 0 0 1
0

0101000
+44 0 -46 0 *
Ve
0.0011
0.707936678086257 -32.213525206943 4.8243036599551
0 0

0101100
*
Ed
 1e-07 1 1 0
1  35 0 0 1
2  48 8 0 0 1
0

0101000
+42 0 -44 0 *
Ve
0.0011
1.59626455449691 -32.2117520639791 4.79047007669308
0 0

0101100
*
Ed
 1e-07 1 1 0
1  36 0 0 1
2  49 8 0 0 1
0

0101000
+40 0 -42 0 *
Ve
0.0011
2.60316371736675 -32.2080825806894 4.72045216446931
0 0

0101100
*
Ed
 1e-07 1 1 0
1  37 0 0 1
2  50 8 0 0 1
0

0101000
+38 0 -40 0 *
Ve
0.0011
3.3 -32.2045043478527 4.65217541461252
0 0

0101100
*
Ed
 1e-07 1 1 0
1  38 0 0 1
2  51 8 0 0 1
0

0101000
+36 0 -38 0 *
Ed
 1e-07 1 1 0
1  39 0 0 1
2  52 8 0 0 1
2  53 9 0 0 1
4 G1 8 0 9 0
0

0101000
+94 0 -36 0 *
Wi

0101100
+68 0 -47 0 -45 0 -43 0 -41 0 -39 0 -37 0 -35 0 -34 0 +93 0 
*
Fa
0  1e-07 8 0

0101000
+33 0 *
Ve
0.0011
6.55536236179047 -20 5.62260413022505
0 0

0101100
*
Ed
 1e-07 1 1 0
1  40 0 0 1
2  54 6 0 0 1
2  55 5 0 0 1
4 G1 6 0 5 0
0

0101000
+104 0 -31 0 *
Ve
0.0011
5.63584479708457 -17.7041889381148 6.0025752261705
0 0

0101100
*
Ed
 2.33868443107533e-07 1 1 0
1  41 0 0 1
2  56 6 0 0 1
0

0101000
+29 0 -31 0 *
Ed
 1e-07 1 1 0
1  42 0 0 1
2  57 6 0 0 1
0

0101000
+65 0 -29 0 *
Wi

0101100
+30 0 -28 0 -27 0 -64 0 +100 0 *
Fa
0  1e-07 6 0

0101000
+26 0 *
Ve
0.0011
3.96030954224247 -32.1322576553968 4.58624907883015
0 0

0101100
*
Ed
 1e-07 1 1 0
1  43 0 0 1
2  58 9 0 0 1
0

0101000
+24 0 -36 0 *
Ve
0.0011
4.70488930316746 -31.8729946383882 4.52923378917584
0 0

0101100
*
Ed
 1e-07 1 1 0
1  44 0 0 1
2  59 9 0 0 1
0

0101000
+22 0 -24 0 *
Ve
0.0011
5.39468365627399 -31.4144551265427 4.49944650501615
0 0

0101100
*
Ed
 1e-07 1 1 0
1  45 0 0 1
2  60 9 0 0 1
0

0101000
+20 0 -22 0 *
Ve
0.0011
6.03914800275776 -30.6488619827623 4.51153826290817
0 0

0101100
*
Ed
 1e-07 1 1 0
1  46 0 0 1
2  61 9 0 0 1
0

0101000
+18 0 -20 0 *
Ve
0.0011
6.29034814638369 -30.136086041518 4.54388627202567
0 0

0101100
*
Ed
 4.41145919028079e-07 1 1 0
1  47 0 0 1
2  62 9 0 0 1
0

0101000
+16 0 -18 0 *
Ve
0.0011
6.46685137012457 -29.4743916081422 4.60726404970019
0 0

0101100
*
Ed
 1e-07 1 1 0
1  48 0 0 1
2  63 9 0 0 1
0

0101000
+14 0 -16 0 *
Ve
0.0011
6.50523930327521 -29 4.66619919948835
0 0

0101100
*
Ed
 1.12507265727843e-07 1 1 0
1  49 0 0 1
2  64 9 0 0 1
0

0101000
+12 0 -14 0 *
Ed
 1e-07 1 1 0
1  50 0 0 1
2  65 9 0 0 1
2  66 5 0 0 1
4 G1 9 0 5 0
0

0101000
+103 0 -12 0 *
Wi

0101100
+34 0 -23 0 -21 0 -19 0 -17 0 -15 0 -13 0 -11 0 -10 0 +92 0 
*
Fa
0  1e-07 9 0

0101000
+9 0 *
Ve
0.0011
6.50953902305243 -28.3653474339881 4.74824274027636
0 0

0101100
*
Ed
 1e-07 1 1 0
1  51 0 0 1
2  67 5 0 0 1
0

0101000
+7 0 -12 0 *
Ed
 1e-07 1 1 0
1  52 0 0 1
2  68 5 0 0 1
0

0101000
+31 0 -7 0 *
Wi

0101100
+10 0 -6 0 -5 0 -30 0 +102 0 *
Fa
0  1e-07 5 0

0101000
+4 0 *
Sh

0101000
+105 0 -90 0 +83 0 +66 0 +49 0 +32 0 +25 0 +8 0 +3 0 *
So

1100000
-2 0 *

+1 0 