DBRep_DrawableShape

CASCADE Topology V1, (c) Matra-Datavision
Locations 16
1
              1               0               0               0 
              0               1               0               0 
              0               0               1            15.5 
2  1 -1 0
1
              1               0               0               0 
              0               1               0               0 
              0               0               1            15.5 
2  3 -1 0
1
              1               0               0               0 
              0               1               0               0 
              0               0               1            15.5 
2  5 -1 0
1
              1               0               0               0 
              0               1               0               0 
              0               0               1             100 
2  7 -1 0
1
              1               0               0               0 
              0               1               0               0 
              0               0               1            15.5 
2  9 -1 0
1
              1               0               0               0 
              0               1               0               0 
              0               0               1             100 
2  11 -1 0
1
              1               0               0               0 
              0               1               0               0 
              0               0               1            15.5 
2  13 -1 0
1
              1               0               0               0 
              0               1               0               0 
              0               0               1            15.5 
2  15 -1 0
Curve2ds 160
1 3.1415926535897931 0 0 -1 
1 3.1415926535897931 0 0 -1 
1 4.7123889803846897 0 0 -1 
2 -14.649999976158142 -11.549999952316281 1 0 -0 1 2
1 0 0 1 0 
1 0 -15.5 1 0 
1 0 0 1 0 
1 0 -15.5 1 0 
1 0 0 1 0 
1 0 -100 1 0 
1 0 0 1 0 
1 0 -15.5 1 0 
1 0 0 1 0 
1 0 -15.5 1 0 
1 4.565334474293012 0 0 -1 
1 4.8594434864763754 0 0 -1 
1 0 0 1 0 
1 0 -100 1 0 
1 0 0 1 0 
1 0 -15.5 1 0 
1 0 0 1 0 
1 0 -15.5 1 0 
1 0 0 1 0 
1 0 -15.5 1 0 
1 0 0 1 0 
1 0 -15.5 1 0 
1 0 0 1 0 
1 0 -100 1 0 
1 0 0 1 0 
1 0 -15.5 1 0 
1 0 0 1 0 
1 0 -15.5 1 0 
1 8.0744923332756446 0 0 -1 
1 1.7913070260960575 0 0 -1 
1 0 0 1 0 
1 0 -100 1 0 
1 0 0 1 0 
1 0 -15.5 1 0 
1 0 0 1 0 
1 0 -15.5 1 0 
1 0 0 1 0 
1 0 -15.5 1 0 
1 0 0 1 0 
1 0 -15.5 1 0 
1 0 0 1 0 
1 0 -100 1 0 
1 0 0 1 0 
1 0 -15.5 1 0 
1 0 0 1 0 
1 0 -15.5 1 0 
1 3.1415926535897931 0 0 -1 
1 0 0 1 0 
1 0 -100 1 0 
1 0 0 1 0 
1 0 -15.5 1 0 
1 0 0 1 0 
1 0 -15.5 1 0 
1 0 0 1 0 
1 0 -15.5 1 0 
1 0 0 1 0 
1 0 -15.5 1 0 
1 0 0 1 0 
1 0 -100 1 0 
1 0 0 1 0 
1 0 -15.5 1 0 
1 0 0 1 0 
1 0 -15.5 1 0 
1 3.1415926535897931 0 0 -1 
1 4.7123889803846897 0 0 -1 
2 -14.35000002384186 -11.250000000000002 1 0 -0 1 3.5
1 0 0 1 0 
1 0 -15.5 1 0 
1 0 0 1 0 
1 0 -15.5 1 0 
1 0 0 1 0 
1 0 -100 1 0 
1 0 0 1 0 
1 0 -15.5 1 0 
1 0 0 1 0 
1 0 -15.5 1 0 
1 4.7123889803846897 0 0 -1 
1 6.2831853071795862 0 0 -1 
2 3.949999213218689 -11.250000000000004 1 0 -0 1 3.5
1 0 0 1 0 
1 0 -15.5 1 0 
1 0 0 1 0 
1 0 -15.5 1 0 
1 0 0 1 0 
1 0 -100 1 0 
1 0 0 1 0 
1 0 -15.5 1 0 
1 0 0 1 0 
1 0 -15.5 1 0 
1 0 0 0 -1 
1 1.3502856274937356 0 0 -1 
1 1.3502856274937201 0 0 -1 
1 0 0 1 0 
1 0 -100 1 0 
1 0 0 1 0 
1 0 -15.5 1 0 
1 0 0 1 0 
1 0 -15.5 1 0 
1 0 0 1 0 
1 0 -15.5 1 0 
1 0 0 1 0 
1 0 -15.5 1 0 
1 0 0 1 0 
1 0 -100 1 0 
1 0 0 1 0 
1 0 -15.5 1 0 
1 0 0 1 0 
1 0 -15.5 1 0 
1 4.5653344742930191 0 0 -1 
1 4.8594434864763691 0 0 -1 
1 0 0 1 0 
1 0 -100 1 0 
1 0 0 1 0 
1 0 -15.5 1 0 
1 0 0 1 0 
1 0 -15.5 1 0 
1 0 0 1 0 
1 0 -15.5 1 0 
1 0 0 1 0 
1 0 -15.5 1 0 
1 0 0 1 0 
1 0 -100 1 0 
1 0 0 1 0 
1 0 -15.5 1 0 
1 0 0 1 0 
1 0 -15.5 1 0 
1 6.2831853071795862 0 0 -1 
1 0 0 1 0 
1 0 -100 1 0 
1 0 0 1 0 
1 0 -15.5 1 0 
1 0 0 1 0 
1 0 -15.5 1 0 
1 0 0 1 0 
1 0 -15.5 1 0 
1 0 0 1 0 
1 0 -15.5 1 0 
1 0 0 1 0 
1 0 -100 1 0 
1 0 0 1 0 
1 0 -15.5 1 0 
1 0 0 1 0 
1 0 -15.5 1 0 
1 6.2831853071795862 0 0 -1 
1 4.7123889803846897 0 0 -1 
2 4.2499991655349723 -11.549999952316286 1 0 -0 1 2
1 0 0 1 0 
1 0 -15.5 1 0 
1 0 0 1 0 
1 0 -15.5 1 0 
1 0 0 1 0 
1 0 -100 1 0 
1 0 0 1 0 
1 0 -15.5 1 0 
1 0 0 1 0 
1 0 -15.5 1 0 
Curves 32
1 1.2000000476837158 3.2000000476837211 1.2000000476837158 0 0 1 
1 1.2000000476837158 9.0495535921955685 1.2000000476837158 0 0 1 
1 1.2000000476837158 1.2209762334823608 1.2000000476837158 0 1 0 
1 3.2000000476837158 1.2000000476837211 1.2000000476837158 0 0 1 
2 3.2000000476837158 3.2000000476837211 1.2000000476837158 0 -0 1 1 0 0 -0 1 0 2
1 2.9069499092019306 11.027967506505668 1.2000000476837158 0 0 1 
2 3.2000000476837158 9.0495535921955685 1.2000000476837158 0 0 -1 1 0 0 0 -1 0 2
1 2.7344520533892194 11.955973572651175 1.2000000476837158 0 0 1 
2 2.8377505965857104 11.495139723689681 1.2000000476837158 0 0 1 1 0 -0 -0 1 0 0.47226944150048789
1 0 8.5407230194062116 1.2000000476837158 0 0 1 
2 3.5 8.5407230194062116 1.2000000476837158 0 0 1 1 0 -0 -0 1 0 3.5
1 0 3.5 1.2000000476837158 0 0 1 
1 0 9.154178134175023 1.2000000476837158 -1.2246467991473532e-16 -1 0 
1 3.4999999999999982 0 1.2000000476837158 0 0 1 
2 3.4999999999999982 3.5 1.2000000476837158 0 -0 1 1 0 0 -0 1 0 3.5
1 21.799999237060547 -1.7763568394002505e-15 1.2000000476837158 0 0 1 
1 -0.26094394928848885 0 1.2000000476837158 1 -1.2246467991473532e-16 -0 
1 25.299999237060547 3.4999999999999982 1.2000000476837158 0 0 1 
2 21.799999237060547 3.4999999999999982 1.2000000476837158 0 -0 1 1 0 0 -0 1 0 3.5
1 25.29999923706055 8.540723019406208 1.2000000476837158 0 0 1 
1 25.299999237060547 -0.20347294211387634 1.2000000476837158 0 1 0 
1 22.565547183671331 11.955973572651169 1.2000000476837158 0 0 1 
2 21.79999923706055 8.540723019406208 1.2000000476837158 0 0 1 1 0 -0 -0 1 0 3.5
1 22.39304932785862 11.027967506505664 1.2000000476837158 0 0 1 
2 22.462248640474833 11.495139723689677 1.2000000476837158 0 0 1 1 0 -0 -0 1 0 0.47226944150048811
1 24.099999189376835 9.049553592195565 1.2000000476837158 0 0 1 
2 22.099999189376831 9.049553592195565 1.2000000476837158 0 0 -1 1 0 0 0 -1 0 2
1 24.099999189376831 3.2000000476837158 1.2000000476837158 0 0 1 
1 24.099999189376831 8.7381786010462292 1.2000000476837158 -6.1232339957367648e-17 -1 0 
1 22.099999189376831 1.2000000476837158 1.2000000476837158 0 0 1 
2 22.099999189376831 3.2000000476837158 1.2000000476837158 0 -0 1 1 0 0 -0 1 0 2
1 21.851633390159652 1.2000000476837158 1.2000000476837158 -1 2.4492935982947064e-16 0 
Polygon3D 0
PolygonOnTriangulations 88
2 1 2 
p 1.55000002 1 0 15.5 
2 1 2 
p 1.860000004 1 0 15.5 
2 3 4 
p 1.55000002 1 0 15.5 
2 1 2 
p 1.860000004 1 0 15.5 
2 2 4 
p 1.55000002 1 1.97902381420136 7.82857735871321 
2 1 3 
p 1.55000002 1 1.97902381420136 7.82857735871321 
2 1 2 
p 2.58767448391073 1 1.97902381420136 7.82857735871321 
5 3 5 6 7 4 
p 1.55000002 1 0 3.875 7.75 11.625 15.5 
5 6 7 8 9 10 
p 1.88999993416931 1 0 3.875 7.75 11.625 15.5 
4 1 8 9 3 
p 0.865913840233915 1 3.14159265358979 3.66519142918809 4.18879020478639 4.71238898038469 
4 2 10 11 4 
p 0.865913840233915 1 3.14159265358979 3.66519142918809 4.18879020478639 4.71238898038469 
4 1 3 4 5 
p 1.82836554089357 1 3.14159265358979 3.66519142918809 4.18879020478639 4.71238898038469 
5 3 5 6 7 4 
p 1.55000002 1 0 3.875 7.75 11.625 15.5 
5 1 2 3 4 5 
p 1.8755000032 1 0 3.875 7.75 11.625 15.5 
4 2 4 5 3 
p 0.856567995919678 1 3.14159265358979 3.61617326049087 4.09075386739194 4.56533447429301 
4 2 10 11 4 
p 1.55000002 1 3.14159265358979 3.61617326049087 4.09075386739194 4.56533447429301 
4 1 8 9 3 
p 1.55000002 1 3.14159265358979 3.61617326049087 4.09075386739194 4.56533447429301 
4 2 6 7 8 
p 2.09981694010799 1 3.14159265358979 3.61617326049087 4.09075386739194 4.56533447429301 
5 6 8 9 10 7 
p 1.55000002 1 0 3.875 7.75 11.625 15.5 
5 1 2 3 4 5 
p 1.87627500316 1 0 3.875 7.75 11.625 15.5 
7 3 7 8 9 10 11 6 
p 0.406737809595941 1 4.85944348647638 5.39528496094292 5.93112643540946 6.46696790987601 7.00280938434255 7.5386508588091 8.07449233327564 
7 1 11 12 13 14 15 6 
p 1.55000002 1 4.85944348647638 5.39528496094292 5.93112643540946 6.46696790987601 7.00280938434255 7.5386508588091 8.07449233327564 
7 5 16 17 18 19 20 7 
p 1.55000002 1 4.85944348647638 5.39528496094292 5.93112643540946 6.46696790987601 7.00280938434255 7.5386508588091 8.07449233327564 
7 8 9 10 11 12 13 14 
p 1.67965380084215 1 4.85944348647638 5.39528496094292 5.93112643540946 6.46696790987601 7.00280938434255 7.5386508588091 8.07449233327564 
5 6 8 9 10 7 
p 1.55000002 1 0 3.875 7.75 11.625 15.5 
5 1 2 3 4 5 
p 1.876313753158 1 0 3.875 7.75 11.625 15.5 
4 6 13 14 12 
p 1.47865630435065 1 1.79130702609606 2.24140223526064 2.69149744442521 3.14159265358979 
4 1 11 12 6 
p 1.55000002 1 1.79130702609606 2.24140223526064 2.69149744442521 3.14159265358979 
4 5 13 14 7 
p 1.55000002 1 1.79130702609606 2.24140223526064 2.69149744442521 3.14159265358979 
4 14 15 16 17 
p 2.58767448391073 1 1.79130702609606 2.24140223526064 2.69149744442521 3.14159265358979 
2 6 7 
p 1.55000002 1 0 15.5 
2 1 2 
p 1.8763156906579 1 0 15.5 
2 5 7 
p 1.55000002 1 0.613455114768811 5.65417813417502 
2 1 6 
p 1.55000002 1 0.613455114768811 5.65417813417502 
2 17 18 
p 2.58767448391073 1 0.613455114768811 5.65417813417502 
5 3 5 6 7 4 
p 1.55000002 1 0 3.875 7.75 11.625 15.5 
5 1 2 3 4 5 
p 1.8763157875329 1 0 3.875 7.75 11.625 15.5 
4 15 17 18 16 
p 1.51534916040935 1 3.14159265358979 3.66519142918809 4.18879020478639 4.71238898038469 
4 2 10 11 4 
p 1.55000002 1 3.14159265358979 3.66519142918809 4.18879020478639 4.71238898038469 
4 1 8 9 3 
p 1.55000002 1 3.14159265358979 3.66519142918809 4.18879020478639 4.71238898038469 
4 18 19 20 21 
p 2.58767448391073 1 3.14159265358979 3.66519142918809 4.18879020478639 4.71238898038469 
2 6 7 
p 1.82999994370606 1 0 15.5 
2 1 2 
p 1.91831578093255 1 0 15.5 
2 1 6 
p 1.82999994370606 1 3.76094394928849 22.060943186349 
2 5 7 
p 1.82999994370606 1 3.76094394928849 22.060943186349 
2 21 22 
p 2.58767448391073 1 3.76094394928849 22.060943186349 
5 3 5 6 7 4 
p 1.55000002 1 0 3.875 7.75 11.625 15.5 
5 1 2 3 4 5 
p 1.87841579204663 1 0 3.875 7.75 11.625 15.5 
4 19 21 22 20 
p 1.51534916040935 1 4.71238898038469 5.23598775598299 5.75958653158129 6.28318530717959 
4 2 10 11 4 
p 1.55000002 1 4.71238898038469 5.23598775598299 5.75958653158129 6.28318530717959 
4 1 8 9 3 
p 1.55000002 1 4.71238898038469 5.23598775598299 5.75958653158129 6.28318530717959 
4 22 23 24 25 
p 2.58767448391073 1 4.71238898038469 5.23598775598299 5.75958653158129 6.28318530717959 
2 6 7 
p 1.55000002 1 0 15.5 
2 1 2 
p 1.87642079260233 1 0 15.5 
2 5 7 
p 1.55000002 1 3.70347294211387 8.74419596152008 
2 1 6 
p 1.55000002 1 3.70347294211387 8.74419596152008 
2 25 26 
p 2.58767448391073 1 3.70347294211387 8.74419596152008 
5 3 5 6 7 4 
p 1.55000002 1 0 3.875 7.75 11.625 15.5 
5 1 2 3 4 5 
p 1.87632104263012 1 0 3.875 7.75 11.625 15.5 
4 23 25 26 24 
p 1.47865630435065 1 0 0.450095209164579 0.900190418329157 1.35028562749374 
4 1 8 9 3 
p 1.55000002 1 0 0.450095209164579 0.900190418329157 1.35028562749374 
4 2 10 11 4 
p 1.55000002 1 0 0.450095209164579 0.900190418329157 1.35028562749374 
4 26 27 28 29 
p 2.58767448391073 1 0 0.450095209164579 0.900190418329157 1.35028562749374 
5 6 8 9 10 7 
p 1.55000002 1 0 3.875 7.75 11.625 15.5 
5 1 2 3 4 5 
p 1.87631605513151 1 0 3.875 7.75 11.625 15.5 
7 24 28 29 30 31 32 27 
p 0.406737809595941 1 1.35028562749372 1.88612710196027 2.42196857642682 2.95781005089337 3.49365152535992 4.02949299982647 4.56533447429302 
7 1 11 12 13 14 15 6 
p 1.55000002 1 1.35028562749372 1.88612710196027 2.42196857642682 2.95781005089337 3.49365152535992 4.02949299982647 4.56533447429302 
7 5 16 17 18 19 20 7 
p 1.55000002 1 1.35028562749372 1.88612710196027 2.42196857642682 2.95781005089337 3.49365152535992 4.02949299982647 4.56533447429302 
7 29 30 31 32 33 34 35 
p 1.67965380084215 1 1.35028562749372 1.88612710196027 2.42196857642682 2.95781005089337 3.49365152535992 4.02949299982647 4.56533447429302 
5 6 8 9 10 7 
p 1.55000002 1 0 3.875 7.75 11.625 15.5 
5 1 2 3 4 5 
p 1.87631580575658 1 0 3.875 7.75 11.625 15.5 
4 27 34 35 33 
p 0.856567995919678 1 4.85944348647637 5.33402409337744 5.80860470027851 6.28318530717959 
4 1 11 12 6 
p 1.55000002 1 4.85944348647637 5.33402409337744 5.80860470027851 6.28318530717959 
4 5 13 14 7 
p 1.55000002 1 4.85944348647637 5.33402409337744 5.80860470027851 6.28318530717959 
4 35 36 37 38 
p 2.09981694010799 1 4.85944348647637 5.33402409337744 5.80860470027851 6.28318530717959 
2 6 7 
p 1.55000002 1 0 15.5 
2 6 7 
p 1.87631579328783 1 0 15.5 
2 5 7 
p 1.55000002 1 -0.311374991149336 5.53817855336251 
2 1 6 
p 1.55000002 1 -0.311374991149336 5.53817855336251 
2 38 39 
p 2.58767448391073 1 -0.311374991149336 5.53817855336251 
5 1 3 4 5 2 
p 1.55000002 1 0 3.875 7.75 11.625 15.5 
5 1 2 3 4 5 
p 1.88999993416931 1 0 3.875 7.75 11.625 15.5 
4 1 8 9 6 
p 0.865913840233917 1 4.71238898038469 5.23598775598299 5.75958653158129 6.28318530717959 
4 2 10 11 7 
p 0.865913840233917 1 4.71238898038469 5.23598775598299 5.75958653158129 6.28318530717959 
4 40 41 42 39 
p 1.83162869875113 1 4.71238898038469 5.23598775598299 5.75958653158129 6.28318530717959 
2 5 10 
p 1.88999993416931 1 -0.248365799217179 18.6516333424759 
2 1 6 
p 1.88999993416931 1 -0.248365799217179 18.6516333424759 
2 40 5 
p 2.58767448391073 1 -0.248365799217179 18.6516333424759 
Surfaces 79
1 1.2000000476837158 3.2000000476837211 1.2000000476837158 -1 0 0 0 1 0 0 0 -1 
2 3.2000000476837158 3.2000000476837211 1.2000000476837158 -0 0 -1 1 0 0 -0 1 0 2
2 3.2000000476837158 9.0495535921955685 1.2000000476837158 0 0 -1 1 0 0 0 -1 0 2
1 22.099999189376831 1.2000000476837158 1.2000000476837158 -2.4492935982947064e-16 -1 0 -1 2.4492935982947064e-16 0 -0 0 -1 
1 17.850000023841858 14.750000000000002 1.2000000476837158 0 0 1 1 0 -0 -0 1 0 
2 3.2000000476837158 3.2000000476837211 1.2000000476837158 -0 0 -1 1 0 0 -0 1 0 2
2 3.2000000476837158 3.2000000476837211 1.2000000476837158 -0 0 -1 1 0 0 -0 1 0 2
2 3.2000000476837158 3.2000000476837211 1.2000000476837158 -0 0 -1 1 0 0 -0 1 0 2
2 3.2000000476837158 3.2000000476837211 1.2000000476837158 -0 0 -1 1 0 0 -0 1 0 2
2 2.8377505965857104 11.495139723689681 1.2000000476837158 -0 -0 -1 1 0 -0 -0 1 0 0.47226944150048789
2 3.2000000476837158 9.0495535921955685 1.2000000476837158 0 0 -1 1 0 0 0 -1 0 2
2 3.2000000476837158 9.0495535921955685 1.2000000476837158 0 0 -1 1 0 0 0 -1 0 2
2 3.2000000476837158 9.0495535921955685 1.2000000476837158 0 0 -1 1 0 0 0 -1 0 2
2 3.2000000476837158 9.0495535921955685 1.2000000476837158 0 0 -1 1 0 0 0 -1 0 2
2 3.2000000476837158 9.0495535921955685 1.2000000476837158 0 0 -1 1 0 0 0 -1 0 2
2 3.2000000476837158 9.0495535921955685 1.2000000476837158 0 0 -1 1 0 0 0 -1 0 2
2 3.2000000476837158 9.0495535921955685 1.2000000476837158 0 0 -1 1 0 0 0 -1 0 2
2 3.5 8.5407230194062116 1.2000000476837158 -0 -0 -1 1 0 -0 -0 1 0 3.5
2 2.8377505965857104 11.495139723689681 1.2000000476837158 -0 -0 -1 1 0 -0 -0 1 0 0.47226944150048789
2 2.8377505965857104 11.495139723689681 1.2000000476837158 -0 -0 -1 1 0 -0 -0 1 0 0.47226944150048789
2 2.8377505965857104 11.495139723689681 1.2000000476837158 -0 -0 -1 1 0 -0 -0 1 0 0.47226944150048789
2 2.8377505965857104 11.495139723689681 1.2000000476837158 -0 -0 -1 1 0 -0 -0 1 0 0.47226944150048789
2 2.8377505965857104 11.495139723689681 1.2000000476837158 -0 -0 -1 1 0 -0 -0 1 0 0.47226944150048789
2 2.8377505965857104 11.495139723689681 1.2000000476837158 -0 -0 -1 1 0 -0 -0 1 0 0.47226944150048789
2 2.8377505965857104 11.495139723689681 1.2000000476837158 -0 -0 -1 1 0 -0 -0 1 0 0.47226944150048789
1 -7.5126584272219706e-17 8.5407230194062116 1.2000000476837158 1 -1.2246467991473532e-16 0 -1.2246467991473532e-16 -1 0 0 -0 -1 
2 3.5 8.5407230194062116 1.2000000476837158 -0 -0 -1 1 0 -0 -0 1 0 3.5
2 3.5 8.5407230194062116 1.2000000476837158 -0 -0 -1 1 0 -0 -0 1 0 3.5
2 3.5 8.5407230194062116 1.2000000476837158 -0 -0 -1 1 0 -0 -0 1 0 3.5
2 3.5 8.5407230194062116 1.2000000476837158 -0 -0 -1 1 0 -0 -0 1 0 3.5
2 3.5 8.5407230194062116 1.2000000476837158 -0 -0 -1 1 0 -0 -0 1 0 3.5
2 3.5 8.5407230194062116 1.2000000476837158 -0 -0 -1 1 0 -0 -0 1 0 3.5
2 3.5 8.5407230194062116 1.2000000476837158 -0 -0 -1 1 0 -0 -0 1 0 3.5
2 3.4999999999999982 3.5 1.2000000476837158 -0 0 -1 1 0 0 -0 1 0 3.5
1 3.4999999999999982 -4.6058279692687507e-16 1.2000000476837158 1.2246467991473532e-16 1 -0 1 -1.2246467991473532e-16 0 0 -0 -1 
1 17.850000023841858 14.750000000000002 1.2000000476837158 0 0 1 1 0 -0 -0 1 0 
2 3.4999999999999982 3.5 1.2000000476837158 -0 0 -1 1 0 0 -0 1 0 3.5
2 3.4999999999999982 3.5 1.2000000476837158 -0 0 -1 1 0 0 -0 1 0 3.5
2 3.4999999999999982 3.5 1.2000000476837158 -0 0 -1 1 0 0 -0 1 0 3.5
2 3.4999999999999982 3.5 1.2000000476837158 -0 0 -1 1 0 0 -0 1 0 3.5
2 21.799999237060547 3.4999999999999982 1.2000000476837158 -0 0 -1 1 0 0 -0 1 0 3.5
1 25.299999237060547 3.4999999999999982 1.2000000476837158 -1 0 0 0 1 0 0 0 -1 
1 17.850000023841858 14.750000000000002 1.2000000476837158 0 0 1 1 0 -0 -0 1 0 
2 21.799999237060547 3.4999999999999982 1.2000000476837158 -0 0 -1 1 0 0 -0 1 0 3.5
2 21.799999237060547 3.4999999999999982 1.2000000476837158 -0 0 -1 1 0 0 -0 1 0 3.5
2 21.799999237060547 3.4999999999999982 1.2000000476837158 -0 0 -1 1 0 0 -0 1 0 3.5
2 21.799999237060547 3.4999999999999982 1.2000000476837158 -0 0 -1 1 0 0 -0 1 0 3.5
2 21.79999923706055 8.540723019406208 1.2000000476837158 -0 -0 -1 1 0 -0 -0 1 0 3.5
2 22.462248640474833 11.495139723689677 1.2000000476837158 -0 -0 -1 1 0 -0 -0 1 0 0.47226944150048811
2 21.79999923706055 8.540723019406208 1.2000000476837158 -0 -0 -1 1 0 -0 -0 1 0 3.5
2 21.79999923706055 8.540723019406208 1.2000000476837158 -0 -0 -1 1 0 -0 -0 1 0 3.5
2 21.79999923706055 8.540723019406208 1.2000000476837158 -0 -0 -1 1 0 -0 -0 1 0 3.5
2 21.79999923706055 8.540723019406208 1.2000000476837158 -0 -0 -1 1 0 -0 -0 1 0 3.5
2 21.79999923706055 8.540723019406208 1.2000000476837158 -0 -0 -1 1 0 -0 -0 1 0 3.5
2 21.79999923706055 8.540723019406208 1.2000000476837158 -0 -0 -1 1 0 -0 -0 1 0 3.5
2 21.79999923706055 8.540723019406208 1.2000000476837158 -0 -0 -1 1 0 -0 -0 1 0 3.5
2 22.099999189376831 9.049553592195565 1.2000000476837158 0 0 -1 1 0 0 0 -1 0 2
2 22.462248640474833 11.495139723689677 1.2000000476837158 -0 -0 -1 1 0 -0 -0 1 0 0.47226944150048811
2 22.462248640474833 11.495139723689677 1.2000000476837158 -0 -0 -1 1 0 -0 -0 1 0 0.47226944150048811
2 22.462248640474833 11.495139723689677 1.2000000476837158 -0 -0 -1 1 0 -0 -0 1 0 0.47226944150048811
2 22.462248640474833 11.495139723689677 1.2000000476837158 -0 -0 -1 1 0 -0 -0 1 0 0.47226944150048811
2 22.462248640474833 11.495139723689677 1.2000000476837158 -0 -0 -1 1 0 -0 -0 1 0 0.47226944150048811
2 22.462248640474833 11.495139723689677 1.2000000476837158 -0 -0 -1 1 0 -0 -0 1 0 0.47226944150048811
2 22.462248640474833 11.495139723689677 1.2000000476837158 -0 -0 -1 1 0 -0 -0 1 0 0.47226944150048811
1 24.099999189376831 9.049553592195565 1.2000000476837158 1 -6.1232339957367648e-17 0 -6.1232339957367648e-17 -1 0 0 -0 -1 
2 22.099999189376831 9.049553592195565 1.2000000476837158 0 0 -1 1 0 0 0 -1 0 2
2 22.099999189376831 9.049553592195565 1.2000000476837158 0 0 -1 1 0 0 0 -1 0 2
2 22.099999189376831 9.049553592195565 1.2000000476837158 0 0 -1 1 0 0 0 -1 0 2
2 22.099999189376831 9.049553592195565 1.2000000476837158 0 0 -1 1 0 0 0 -1 0 2
2 22.099999189376831 9.049553592195565 1.2000000476837158 0 0 -1 1 0 0 0 -1 0 2
2 22.099999189376831 9.049553592195565 1.2000000476837158 0 0 -1 1 0 0 0 -1 0 2
2 22.099999189376831 9.049553592195565 1.2000000476837158 0 0 -1 1 0 0 0 -1 0 2
2 22.099999189376831 3.2000000476837158 1.2000000476837158 -0 0 -1 1 0 0 -0 1 0 2
1 17.850000023841858 14.750000000000002 1.2000000476837158 0 0 1 1 0 -0 -0 1 0 
2 22.099999189376831 3.2000000476837158 1.2000000476837158 -0 0 -1 1 0 0 -0 1 0 2
2 22.099999189376831 3.2000000476837158 1.2000000476837158 -0 0 -1 1 0 0 -0 1 0 2
2 22.099999189376831 3.2000000476837158 1.2000000476837158 -0 0 -1 1 0 0 -0 1 0 2
2 22.099999189376831 3.2000000476837158 1.2000000476837158 -0 0 -1 1 0 0 -0 1 0 2
1 17.850000023841858 14.750000000000002 1.2000000476837158 0 0 1 1 0 -0 -0 1 0 
Triangulations 18
4 2 1 1.55000002
1.20000004768372 3.20000004768372 1.20000004768372 1.20000004768372 3.20000004768372 16.7000000476837 1.20000004768372 9.04955359219557 1.20000004768372 1.20000004768372 9.04955359219557 16.7000000476837 0 0 0 -15.5 5.84955354451185 0 5.84955354451185 -15.5 1 2 4 4 3 1 
11 9 1 1.28545692611696
1.20000004768372 3.20000004768372 1.20000004768372 1.20000004768372 3.20000004768372 16.7000000476837 3.20000004768372 1.20000004768372 1.20000004768372 3.20000004768372 1.20000004768372 16.7000000476837 3.20000004768372 1.20000004768372 5.07500004768372 3.20000004768372 1.20000004768372 8.95000004768372 3.20000004768372 1.20000004768372 12.8250000476837 1.46794924011484 2.20000004768372 1.20000004768372 2.20000004768371 1.46794924011484 1.20000004768372 1.46794924011484 2.20000004768372 16.7000000476837 2.20000004768371 1.46794924011484 16.7000000476837 3.14159265358979 0 3.14159265358979 -15.5 4.71238898038469 0 4.71238898038469 -15.5 4.71238898038469 -3.875 4.71238898038469 -7.75 4.71238898038469 -11.625 3.66519142918809 0 4.18879020478639 0 3.66519142918809 -15.5 4.18879020478639 -15.5 2 10 8 2 8 1 8 10 11 8 11 9 6 11 7 6 9 11 9 5 3 5 9 6 7 11 4 
11 9 1 1.627500016
1.20000004768372 9.04955359219557 1.20000004768372 1.20000004768372 9.04955359219557 16.7000000476837 2.90694990920193 11.0279675065057 1.20000004768372 2.90694990920193 11.0279675065057 16.7000000476837 2.90694990920193 11.0279675065057 5.07500004768372 2.90694990920193 11.0279675065057 8.95000004768372 2.90694990920193 11.0279675065057 12.8250000476837 1.42103115168959 9.96348447967308 1.20000004768372 2.03526971476914 10.6754082141064 1.20000004768372 1.42103115168959 9.96348447967308 16.7000000476837 2.03526971476914 10.6754082141064 16.7000000476837 3.14159265358979 0 3.14159265358979 -15.5 4.56533447429301 0 4.56533447429301 -15.5 4.56533447429301 -3.875 4.56533447429301 -7.75 4.56533447429301 -11.625 3.61617326049087 0 4.09075386739194 0 3.61617326049087 -15.5 4.09075386739194 -15.5 2 10 8 2 8 1 8 10 11 8 11 9 6 11 7 6 9 11 9 5 3 5 9 6 7 11 4 
42 40 1 2.31848003504077
1.20000004768372 3.20000004768372 1.20000004768372 1.20000004768372 9.04955359219557 1.20000004768372 1.46794924011484 2.20000004768372 1.20000004768372 2.20000004768371 1.46794924011484 1.20000004768372 3.20000004768372 1.20000004768372 1.20000004768372 1.42103115168959 9.96348447967308 1.20000004768372 2.03526971476914 10.6754082141064 1.20000004768372 2.90694990920193 11.0279675065057 1.20000004768372 3.13577255319875 11.1287774183801 1.20000004768372 3.28105326898491 11.3322865197945 1.20000004768372 3.30206676481837 11.5814468571893 1.20000004768372 3.19292250840303 11.8064134592203 1.20000004768372 2.98421596907171 11.9441233759953 1.20000004768372 2.73445205338922 11.9559735726512 1.20000004768372 1.32488720979745 11.2827814341555 1.20000004768372 0.348580100517471 10.0634024397523 1.20000004768372 0 8.54072301940621 1.20000004768372 0 3.5 1.20000004768372 0.468911086754463 1.75 1.20000004768372 1.75 0.468911086754466 1.20000004768372 3.5 0 1.20000004768372 21.7999992370605 -1.77635683940025e-15 1.20000004768372 23.5499992370605 0.468911086754463 1.20000004768372 24.8310881503061 1.75 1.20000004768372 25.2999992370605 3.5 1.20000004768372 25.2999992370606 8.54072301940621 1.20000004768372 24.9514191365431 10.0634024397523 1.20000004768372 23.9751120272631 11.2827814341555 1.20000004768372 22.5655471836713 11.9559735726512 1.20000004768372 22.3157832679888 11.9441233759953 1.20000004768372 22.1070767286575 11.8064134592203 1.20000004768372 21.9979324722422 11.5814468571893 1.20000004768372 22.0189459680756 11.3322865197945 1.20000004768372 22.1642266838618 11.1287774183801 1.20000004768372 22.3930493278586 11.0279675065057 1.20000004768372 23.2647295222914 10.6754082141064 1.20000004768372 23.878968085371 9.96348447967307 1.20000004768372 24.0999991893768 9.04955359219556 1.20000004768372 24.0999991893768 3.20000004768372 1.20000004768372 22.0999991893768 1.20000004768372 1.20000004768372 23.0999991893768 1.46794924011484 1.20000004768372 23.8320499969457 2.20000004768372 1.20000004768372 -16.6499999761581 -11.5499999523163 -16.6499999761581 -5.70044640780443 -16.382050783727 -12.5499999523163 -15.6499999761581 -13.2820507598852 -14.6499999761581 -13.5499999523163 -16.4289688721523 -4.78651552032693 -15.8147303090727 -4.07459178589363 -14.9430501146399 -3.72203249349433 -14.7142274706431 -3.62122258161986 -14.568946754857 -3.41771348020547 -14.5479332590235 -3.16855314281067 -14.6570775154388 -2.94358654077966 -14.8657840547701 -2.80587662400467 -15.1155479704526 -2.79402642734883 -16.5251128140444 -3.46721856584452 -17.5014199233244 -4.68659756024769 -17.8500000238419 -6.20927698059379 -17.8500000238419 -11.25 -17.3810889370874 -13 -16.1000000238419 -14.2810889132455 -14.3500000238419 -14.75 3.94999921321869 -14.75 5.69999921321869 -14.2810889132455 6.98108812646423 -13 7.44999921321869 -11.25 7.44999921321869 -6.20927698059379 7.10141911270122 -4.68659756024769 6.12511200342124 -3.46721856584453 4.71554715982947 -2.79402642734883 4.46578324414698 -2.80587662400468 4.25707670481565 -2.94358654077967 4.14793244840032 -3.16855314281067 4.16894594423378 -3.41771348020547 4.31422666001994 -3.62122258161987 4.54304930401676 -3.72203249349434 5.41472949844955 -4.07459178589364 6.0289680615291 -4.78651552032693 6.24999916553498 -5.70044640780444 6.24999916553497 -11.5499999523163 4.24999916553497 -13.5499999523163 5.24999916553497 -13.2820507598852 5.98204997310385 -12.5499999523163 19 1 18 1 19 3 1 17 18 17 1 2 17 2 16 20 21 5 3 19 4 5 4 20 4 19 20 16 6 15 6 16 2 15 7 14 7 15 6 14 7 8 8 9 10 12 14 10 12 13 14 12 10 11 10 14 8 22 5 21 22 23 40 41 40 23 24 42 41 41 23 24 39 24 25 24 39 42 39 26 38 26 39 25 38 26 27 33 34 31 33 31 32 31 34 30 34 29 30 28 36 37 27 37 38 28 37 27 36 29 35 29 36 28 35 29 34 5 22 40 
10 8 1 1.88999993416931
22.0999991893768 1.20000004768372 1.20000004768372 22.0999991893768 1.20000004768372 5.07500004768372 22.0999991893768 1.20000004768372 8.95000004768372 22.0999991893768 1.20000004768372 12.8250000476837 22.0999991893768 1.20000004768372 16.7000000476837 3.20000004768372 1.20000004768372 1.20000004768372 3.20000004768372 1.20000004768372 5.07500004768372 3.20000004768372 1.20000004768372 8.95000004768372 3.20000004768372 1.20000004768372 12.8250000476837 3.20000004768372 1.20000004768372 16.7000000476837 0 0 0 -3.875 0 -7.75 0 -11.625 0 -15.5 18.8999991416931 0 18.8999991416931 -3.875 18.8999991416931 -7.75 18.8999991416931 -11.625 18.8999991416931 -15.5 4 5 10 2 3 8 1 2 7 4 9 3 10 9 4 8 7 2 7 6 1 9 8 3 
20 18 1 1.6313750158
2.90694990920193 11.0279675065057 1.20000004768372 2.90694990920193 11.0279675065057 5.07500004768372 2.90694990920193 11.0279675065057 8.95000004768372 2.90694990920193 11.0279675065057 12.8250000476837 2.90694990920193 11.0279675065057 16.7000000476837 2.73445205338922 11.9559735726512 1.20000004768372 2.73445205338922 11.9559735726512 16.7000000476837 2.73445205338922 11.9559735726512 5.07500004768372 2.73445205338922 11.9559735726512 8.95000004768372 2.73445205338922 11.9559735726512 12.8250000476837 3.13577255319875 11.1287774183801 1.20000004768372 3.28105326898491 11.3322865197945 1.20000004768372 3.30206676481837 11.5814468571893 1.20000004768372 3.19292250840303 11.8064134592203 1.20000004768372 2.98421596907171 11.9441233759953 1.20000004768372 3.13577255319875 11.1287774183801 16.7000000476837 3.28105326898491 11.3322865197945 16.7000000476837 3.30206676481837 11.5814468571893 16.7000000476837 3.19292250840303 11.8064134592203 16.7000000476837 2.98421596907171 11.9441233759953 16.7000000476837 4.85944348647638 0 4.85944348647638 -3.875 4.85944348647638 -7.75 4.85944348647638 -11.625 4.85944348647638 -15.5 8.07449233327564 0 8.07449233327564 -15.5 8.07449233327564 -3.875 8.07449233327564 -7.75 8.07449233327564 -11.625 5.39528496094292 0 5.93112643540946 0 6.46696790987601 0 7.00280938434255 0 7.5386508588091 0 5.39528496094292 -15.5 5.93112643540946 -15.5 6.46696790987601 -15.5 7.00280938434255 -15.5 7.5386508588091 -15.5 4 5 16 4 16 3 12 16 17 12 17 18 2 3 11 11 1 2 11 3 16 16 12 11 18 13 12 15 19 20 7 10 20 10 9 20 15 20 9 13 19 14 15 8 6 15 14 19 8 15 9 19 13 18 
36 34 1 1.63556421797994
1.20000004768372 1.20000004768372 1.20000004768372 1.20000004768372 9.04955359219557 1.20000004768372 2.90694990920193 11.0279675065057 1.20000004768372 1.42103115168959 9.96348447967308 1.20000004768372 2.03526971476914 10.6754082141064 1.20000004768372 2.73445205338922 11.9559735726512 1.20000004768372 3.13577255319875 11.1287774183801 1.20000004768372 3.28105326898491 11.3322865197945 1.20000004768372 3.30206676481837 11.5814468571893 1.20000004768372 3.19292250840303 11.8064134592203 1.20000004768372 2.98421596907171 11.9441233759953 1.20000004768372 0 8.54072301940621 1.20000004768372 1.32488720979745 11.2827814341555 1.20000004768372 0.348580100517471 10.0634024397523 1.20000004768372 0 3.5 1.20000004768372 3.5 0 1.20000004768372 0.468911086754463 1.75 1.20000004768372 1.75 0.468911086754466 1.20000004768372 21.7999992370605 -1.77635683940025e-15 1.20000004768372 25.2999992370605 3.5 1.20000004768372 23.5499992370605 0.468911086754463 1.20000004768372 24.8310881503061 1.75 1.20000004768372 25.2999992370606 8.54072301940621 1.20000004768372 22.5655471836713 11.9559735726512 1.20000004768372 24.9514191365431 10.0634024397523 1.20000004768372 23.9751120272631 11.2827814341555 1.20000004768372 22.3930493278586 11.0279675065057 1.20000004768372 22.3157832679888 11.9441233759953 1.20000004768372 22.1070767286575 11.8064134592203 1.20000004768372 21.9979324722422 11.5814468571893 1.20000004768372 22.0189459680756 11.3322865197945 1.20000004768372 22.1642266838618 11.1287774183801 1.20000004768372 24.0999991893768 9.04955359219556 1.20000004768372 23.2647295222914 10.6754082141064 1.20000004768372 23.878968085371 9.96348447967307 1.20000004768372 24.0999991893768 1.20000004768372 1.20000004768372 -16.6499999761581 -13.5499999523163 -16.6499999761581 -5.70044640780443 -14.9430501146399 -3.72203249349433 -16.4289688721523 -4.78651552032693 -15.8147303090727 -4.07459178589363 -15.1155479704526 -2.79402642734883 -14.7142274706431 -3.62122258161986 -14.568946754857 -3.41771348020547 -14.5479332590235 -3.16855314281067 -14.6570775154388 -2.94358654077966 -14.8657840547701 -2.80587662400467 -17.8500000238419 -6.20927698059379 -16.5251128140444 -3.46721856584452 -17.5014199233244 -4.68659756024769 -17.8500000238419 -11.25 -14.3500000238419 -14.75 -17.3810889370874 -13 -16.1000000238419 -14.2810889132455 3.94999921321869 -14.75 7.44999921321869 -11.25 5.69999921321869 -14.2810889132455 6.98108812646423 -13 7.44999921321869 -6.20927698059379 4.71554715982947 -2.79402642734883 7.10141911270122 -4.68659756024769 6.12511200342124 -3.46721856584453 4.54304930401676 -3.72203249349434 4.46578324414698 -2.80587662400468 4.25707670481565 -2.94358654077967 4.14793244840032 -3.16855314281067 4.16894594423378 -3.41771348020547 4.31422666001994 -3.62122258161987 6.24999916553498 -5.70044640780444 5.41472949844955 -4.07459178589364 6.0289680615291 -4.78651552032693 6.24999916553497 -13.5499999523163 12 15 2 2 14 12 1 15 17 18 16 1 15 1 2 2 4 14 1 16 36 18 1 17 14 4 13 5 3 6 6 13 5 3 8 6 5 13 4 10 6 8 10 11 6 10 8 9 8 3 7 19 21 36 33 36 20 21 22 36 33 23 25 23 33 20 33 25 35 20 36 22 35 25 26 31 32 29 29 30 31 32 28 29 27 34 24 24 28 32 24 34 26 34 35 26 24 32 27 16 19 36 
14 12 1 1.63156876579
2.73445205338922 11.9559735726512 1.20000004768372 2.73445205338922 11.9559735726512 5.07500004768372 2.73445205338922 11.9559735726512 8.95000004768372 2.73445205338922 11.9559735726512 12.8250000476837 2.73445205338922 11.9559735726512 16.7000000476837 0 8.54072301940621 1.20000004768372 0 8.54072301940621 16.7000000476837 0 8.54072301940621 5.07500004768372 0 8.54072301940621 8.95000004768372 0 8.54072301940621 12.8250000476837 1.32488720979745 11.2827814341555 1.20000004768372 0.348580100517471 10.0634024397523 1.20000004768372 1.32488720979745 11.2827814341555 16.7000000476837 0.348580100517471 10.0634024397523 16.7000000476837 1.79130702609606 0 1.79130702609606 -3.875 1.79130702609606 -7.75 1.79130702609606 -11.625 1.79130702609606 -15.5 3.14159265358979 0 3.14159265358979 -15.5 3.14159265358979 -3.875 3.14159265358979 -7.75 3.14159265358979 -11.625 2.24140223526064 0 2.69149744442521 0 2.24140223526064 -15.5 2.69149744442521 -15.5 5 13 4 4 13 3 2 3 11 11 1 2 3 13 11 13 14 11 14 7 10 14 10 9 12 9 8 9 12 14 8 6 12 14 12 11 
7 5 1 1.6315784532895
0 8.54072301940621 1.20000004768372 0 8.54072301940621 5.07500004768372 0 8.54072301940621 8.95000004768372 0 8.54072301940621 12.8250000476837 0 8.54072301940621 16.7000000476837 0 3.5 1.20000004768372 0 3.5 16.7000000476837 0 0 0 -3.875 0 -7.75 0 -11.625 0 -15.5 5.04072301940621 0 5.04072301940621 -15.5 4 5 7 3 4 7 3 6 2 6 3 7 6 1 2 
11 9 1 1.63157893766448
0 3.5 1.20000004768372 0 3.5 16.7000000476837 3.5 0 1.20000004768372 3.5 0 16.7000000476837 3.5 0 5.07500004768372 3.5 0 8.95000004768372 3.5 0 12.8250000476837 0.468911086754463 1.75 1.20000004768372 1.75 0.468911086754466 1.20000004768372 0.468911086754463 1.75 16.7000000476837 1.75 0.468911086754466 16.7000000476837 3.14159265358979 0 3.14159265358979 -15.5 4.71238898038469 0 4.71238898038469 -15.5 4.71238898038469 -3.875 4.71238898038469 -7.75 4.71238898038469 -11.625 3.66519142918809 0 4.18879020478639 0 3.66519142918809 -15.5 4.18879020478639 -15.5 2 10 8 2 8 1 8 10 11 8 11 9 6 11 7 6 9 11 9 5 3 5 9 6 7 11 4 
7 5 1 1.84157890466276
3.5 0 1.20000004768372 3.5 0 5.07500004768372 3.5 0 8.95000004768372 3.5 0 12.8250000476837 3.5 0 16.7000000476837 21.7999992370605 -1.77635683940025e-15 1.20000004768372 21.7999992370605 -1.77635683940025e-15 16.7000000476837 0 0 0 -3.875 0 -7.75 0 -11.625 0 -15.5 18.2999992370605 0 18.2999992370605 -15.5 4 5 7 3 4 7 3 6 2 6 3 7 6 1 2 
11 9 1 1.64207896023314
21.7999992370605 -1.77635683940025e-15 1.20000004768372 21.7999992370605 -1.77635683940025e-15 16.7000000476837 25.2999992370605 3.5 1.20000004768372 25.2999992370605 3.5 16.7000000476837 25.2999992370605 3.5 5.07500004768372 25.2999992370605 3.5 8.95000004768372 25.2999992370605 3.5 12.8250000476837 23.5499992370605 0.468911086754463 1.20000004768372 24.8310881503061 1.75 1.20000004768372 23.5499992370605 0.468911086754463 16.7000000476837 24.8310881503061 1.75 16.7000000476837 4.71238898038469 0 4.71238898038469 -15.5 6.28318530717959 0 6.28318530717959 -15.5 6.28318530717959 -3.875 6.28318530717959 -7.75 6.28318530717959 -11.625 5.23598775598299 0 5.75958653158129 0 5.23598775598299 -15.5 5.75958653158129 -15.5 2 10 8 2 8 1 8 10 11 8 11 9 6 11 7 6 9 11 9 5 3 5 9 6 7 11 4 
7 5 1 1.63210396301166
25.2999992370605 3.5 1.20000004768372 25.2999992370605 3.5 5.07500004768372 25.2999992370605 3.5 8.95000004768372 25.2999992370605 3.5 12.8250000476837 25.2999992370605 3.5 16.7000000476837 25.2999992370606 8.54072301940621 1.20000004768372 25.2999992370606 8.54072301940621 16.7000000476837 0 0 0 -3.875 0 -7.75 0 -11.625 0 -15.5 5.04072301940621 0 5.04072301940621 -15.5 4 5 7 3 4 7 3 6 2 6 3 7 6 1 2 
11 9 1 1.63160521315058
25.2999992370606 8.54072301940621 1.20000004768372 25.2999992370606 8.54072301940621 16.7000000476837 22.5655471836713 11.9559735726512 1.20000004768372 22.5655471836713 11.9559735726512 16.7000000476837 22.5655471836713 11.9559735726512 5.07500004768372 22.5655471836713 11.9559735726512 8.95000004768372 22.5655471836713 11.9559735726512 12.8250000476837 24.9514191365431 10.0634024397523 1.20000004768372 23.9751120272631 11.2827814341555 1.20000004768372 24.9514191365431 10.0634024397523 16.7000000476837 23.9751120272631 11.2827814341555 16.7000000476837 0 0 0 -15.5 1.35028562749374 0 1.35028562749374 -15.5 1.35028562749374 -3.875 1.35028562749374 -7.75 1.35028562749374 -11.625 0.450095209164579 0 0.900190418329157 0 0.450095209164579 -15.5 0.900190418329157 -15.5 2 10 8 2 8 1 8 10 11 8 11 9 6 11 7 6 9 11 9 5 3 5 9 6 7 11 4 
20 18 1 1.63158027565753
22.5655471836713 11.9559735726512 1.20000004768372 22.5655471836713 11.9559735726512 5.07500004768372 22.5655471836713 11.9559735726512 8.95000004768372 22.5655471836713 11.9559735726512 12.8250000476837 22.5655471836713 11.9559735726512 16.7000000476837 22.3930493278586 11.0279675065057 1.20000004768372 22.3930493278586 11.0279675065057 16.7000000476837 22.3930493278586 11.0279675065057 5.07500004768372 22.3930493278586 11.0279675065057 8.95000004768372 22.3930493278586 11.0279675065057 12.8250000476837 22.3157832679888 11.9441233759953 1.20000004768372 22.1070767286575 11.8064134592203 1.20000004768372 21.9979324722422 11.5814468571893 1.20000004768372 22.0189459680756 11.3322865197945 1.20000004768372 22.1642266838618 11.1287774183801 1.20000004768372 22.3157832679888 11.9441233759953 16.7000000476837 22.1070767286575 11.8064134592203 16.7000000476837 21.9979324722422 11.5814468571893 16.7000000476837 22.0189459680756 11.3322865197945 16.7000000476837 22.1642266838618 11.1287774183801 16.7000000476837 1.35028562749372 0 1.35028562749372 -3.875 1.35028562749372 -7.75 1.35028562749372 -11.625 1.35028562749372 -15.5 4.56533447429302 0 4.56533447429302 -15.5 4.56533447429302 -3.875 4.56533447429302 -7.75 4.56533447429302 -11.625 1.88612710196027 0 2.42196857642682 0 2.95781005089337 0 3.49365152535992 0 4.02949299982647 0 1.88612710196027 -15.5 2.42196857642682 -15.5 2.95781005089337 -15.5 3.49365152535992 -15.5 4.02949299982647 -15.5 4 5 16 4 16 3 12 16 17 12 17 18 2 3 11 11 1 2 11 3 16 16 12 11 18 13 12 15 19 20 7 10 20 10 9 20 15 20 9 13 19 14 15 8 6 15 14 19 8 15 9 19 13 18 
14 12 1 1.63157902878288
22.3930493278586 11.0279675065057 1.20000004768372 22.3930493278586 11.0279675065057 5.07500004768372 22.3930493278586 11.0279675065057 8.95000004768372 22.3930493278586 11.0279675065057 12.8250000476837 22.3930493278586 11.0279675065057 16.7000000476837 24.0999991893768 9.04955359219556 1.20000004768372 24.0999991893768 9.04955359219556 16.7000000476837 24.0999991893768 9.04955359219556 5.07500004768372 24.0999991893768 9.04955359219556 8.95000004768372 24.0999991893768 9.04955359219556 12.8250000476837 23.2647295222914 10.6754082141064 1.20000004768372 23.878968085371 9.96348447967307 1.20000004768372 23.2647295222914 10.6754082141064 16.7000000476837 23.878968085371 9.96348447967307 16.7000000476837 4.85944348647637 0 4.85944348647637 -3.875 4.85944348647637 -7.75 4.85944348647637 -11.625 4.85944348647637 -15.5 6.28318530717959 0 6.28318530717959 -15.5 6.28318530717959 -3.875 6.28318530717959 -7.75 6.28318530717959 -11.625 5.33402409337744 0 5.80860470027851 0 5.33402409337744 -15.5 5.80860470027851 -15.5 5 13 4 4 13 3 2 3 11 11 1 2 3 13 11 13 14 11 14 7 10 14 10 9 12 9 8 9 12 14 8 6 12 14 12 11 
7 5 1 1.63157896643914
24.0999991893768 9.04955359219556 1.20000004768372 24.0999991893768 9.04955359219556 5.07500004768372 24.0999991893768 9.04955359219556 8.95000004768372 24.0999991893768 9.04955359219556 12.8250000476837 24.0999991893768 9.04955359219556 16.7000000476837 24.0999991893768 3.20000004768372 1.20000004768372 24.0999991893768 3.20000004768372 16.7000000476837 0 0 0 -3.875 0 -7.75 0 -11.625 0 -15.5 5.84955354451185 0 5.84955354451185 -15.5 4 5 7 3 4 7 3 6 2 6 3 7 6 1 2 
11 9 1 1.28953587343892
22.0999991893768 1.20000004768372 1.20000004768372 22.0999991893768 1.20000004768372 16.7000000476837 22.0999991893768 1.20000004768372 5.07500004768372 22.0999991893768 1.20000004768372 8.95000004768372 22.0999991893768 1.20000004768372 12.8250000476837 24.0999991893768 3.20000004768372 1.20000004768372 24.0999991893768 3.20000004768372 16.7000000476837 23.0999991893768 1.46794924011484 1.20000004768372 23.8320499969457 2.20000004768372 1.20000004768372 23.0999991893768 1.46794924011484 16.7000000476837 23.8320499969457 2.20000004768372 16.7000000476837 4.71238898038469 0 4.71238898038469 -15.5 4.71238898038469 -3.875 4.71238898038469 -7.75 4.71238898038469 -11.625 6.28318530717959 0 6.28318530717959 -15.5 5.23598775598299 0 5.75958653158129 0 5.23598775598299 -15.5 5.75958653158129 -15.5 5 2 10 3 4 8 1 3 8 5 10 4 10 11 9 11 7 6 9 8 10 6 9 11 10 8 4 

TShapes 84
Ve
1e-07
1.20000004768372 3.20000004768372 1.20000004768372
0 0

0101100
*
Ed
 1e-07 1 1 0
1  1 0 0 15.5
2  1 2 0 0 15.5
4 G1 1 0 2 0
6  1 1 0
6  2 2 0
0

0101000
+84 0 -84 1 *
Ve
1e-07
1.20000004768372 9.04955359219557 1.20000004768372
0 0

0101100
*
Ed
 1e-07 1 1 0
1  2 0 0 15.5
2  2 3 0 0 15.5
4 G1 1 0 3 0
6  3 1 0
6  4 3 0
0

0101000
+82 0 -82 1 *
Ed
 1e-07 1 1 0
1  3 0 1.97902381420136 7.82857735871321
6  5 1 2
6  6 1 0
6  7 4 0
0

0101000
+84 0 -82 0 *
Wi

0101000
+83 0 -81 0 -80 0 +80 1 *
Fa
0  1e-07 1 0
2  1
0111000
+79 0 *
Ve
1e-07
3.20000004768372 1.20000004768372 1.20000004768372
0 0

0101100
*
Ed
 1e-07 1 1 0
1  4 0 0 15.5
2  3 2 0 0 15.5
4 G1 2 0 4 0
6  8 2 0
6  9 5 0
0

0101000
+77 0 -77 1 *
Ed
 1e-07 1 1 0
2  4 5 0 3.14159265358979 4.71238898038469
1  5 0 3.14159265358979 4.71238898038469
2  5 6 0 3.14159265358979 4.71238898038469
2  6 6 4 3.14159265358979 4.71238898038469
2  7 7 0 3.14159265358979 4.71238898038469
2  8 7 6 3.14159265358979 4.71238898038469
2  9 8 0 3.14159265358979 4.71238898038469
2  10 8 8 3.14159265358979 4.71238898038469
2  11 9 0 3.14159265358979 4.71238898038469
2  12 9 10 3.14159265358979 4.71238898038469
2  13 2 0 3.14159265358979 4.71238898038469
2  14 2 2 3.14159265358979 4.71238898038469
6  10 2 0
6  11 2 2
6  12 4 0
0

0101000
+84 0 -77 0 *
Wi

0101000
+83 0 -76 0 -75 0 +75 1 *
Fa
0  1e-07 2 0
2  2
0111000
+74 0 *
Ve
1e-07
2.90694990920193 11.0279675065057 1.20000004768372
0 0

0101100
*
Ed
 1e-07 1 1 0
1  6 0 0 15.5
2  15 3 0 0 15.5
2  16 10 0 0 15.5
4 G1 3 0 10 0
6  13 3 0
6  14 6 0
0

0101000
+72 0 -72 1 *
Ed
 1e-07 1 1 0
1  7 0 3.14159265358979 4.56533447429301
2  17 11 0 3.14159265358979 4.56533447429301
2  18 11 12 3.14159265358979 4.56533447429301
2  19 12 0 3.14159265358979 4.56533447429301
2  20 12 14 3.14159265358979 4.56533447429301
2  21 13 0 3.14159265358979 4.56533447429301
2  22 13 16 3.14159265358979 4.56533447429301
6  15 7 0
2  23 14 0 3.14159265358979 4.56533447429301
2  24 14 4 3.14159265358979 4.56533447429301
2  25 15 0 3.14159265358979 4.56533447429301
2  26 15 6 3.14159265358979 4.56533447429301
2  27 16 0 3.14159265358979 4.56533447429301
2  28 16 8 3.14159265358979 4.56533447429301
2  29 17 0 3.14159265358979 4.56533447429301
2  30 17 10 3.14159265358979 4.56533447429301
2  31 3 0 3.14159265358979 4.56533447429301
2  32 3 2 3.14159265358979 4.56533447429301
6  16 3 2
6  17 3 0
6  18 4 0
0

0101000
+82 0 -72 0 *
Wi

0101000
+81 0 -71 0 -70 0 +70 1 *
Fa
0  1e-07 3 0
2  3
0111000
+69 0 *
Ve
1e-07
2.73445205338922 11.9559735726512 1.20000004768372
0 0

0101100
*
Ed
 1e-07 1 1 0
1  8 0 0 15.5
2  33 10 0 0 15.5
2  34 18 0 0 15.5
4 G1 10 0 18 0
6  19 6 0
6  20 8 0
0

0101000
+67 0 -67 1 *
Ed
 1e-07 1 1 0
1  9 0 4.85944348647638 8.07449233327564
2  35 19 0 4.85944348647638 8.07449233327564
2  36 19 12 4.85944348647638 8.07449233327564
2  37 20 0 4.85944348647638 8.07449233327564
2  38 20 14 4.85944348647638 8.07449233327564
2  39 21 0 4.85944348647638 8.07449233327564
2  40 21 16 4.85944348647638 8.07449233327564
6  21 7 0
2  41 22 0 4.85944348647638 8.07449233327564
2  42 22 4 4.85944348647638 8.07449233327564
2  43 23 0 4.85944348647638 8.07449233327564
2  44 23 6 4.85944348647638 8.07449233327564
2  45 24 0 4.85944348647638 8.07449233327564
2  46 24 8 4.85944348647638 8.07449233327564
2  47 25 0 4.85944348647638 8.07449233327564
2  48 25 10 4.85944348647638 8.07449233327564
2  49 10 0 4.85944348647638 8.07449233327564
2  50 10 2 4.85944348647638 8.07449233327564
6  22 6 0
6  23 6 2
6  24 4 0
0

0101000
+72 0 -67 0 *
Wi

0101000
+71 0 -66 0 -65 0 +65 1 *
Fa
0  1e-07 10 0
2  6
0111000
+64 0 *
Ve
1e-07
0 8.54072301940621 1.20000004768372
0 0

0101100
*
Ed
 1e-07 1 1 0
1  10 0 0 15.5
2  51 18 0 0 15.5
4 G1 18 0 26 0
6  25 8 0
6  26 9 0
0

0101000
+62 0 -62 1 *
Ed
 1e-07 1 1 0
1  11 0 1.79130702609606 3.14159265358979
2  52 27 0 1.79130702609606 3.14159265358979
2  53 27 12 1.79130702609606 3.14159265358979
2  54 28 0 1.79130702609606 3.14159265358979
2  55 28 14 1.79130702609606 3.14159265358979
2  56 29 0 1.79130702609606 3.14159265358979
2  57 29 16 1.79130702609606 3.14159265358979
6  27 7 0
2  58 30 0 1.79130702609606 3.14159265358979
2  59 30 4 1.79130702609606 3.14159265358979
2  60 31 0 1.79130702609606 3.14159265358979
2  61 31 6 1.79130702609606 3.14159265358979
2  62 32 0 1.79130702609606 3.14159265358979
2  63 32 8 1.79130702609606 3.14159265358979
2  64 33 0 1.79130702609606 3.14159265358979
2  65 33 10 1.79130702609606 3.14159265358979
2  66 18 0 1.79130702609606 3.14159265358979
2  67 18 2 1.79130702609606 3.14159265358979
6  28 8 0
6  29 8 2
6  30 4 0
0

0101000
+67 0 -62 0 *
Wi

0101000
+66 0 -61 0 -60 0 +60 1 *
Fa
0  1e-07 18 0
2  8
0111000
+59 0 *
Ve
1e-07
0 3.5 1.20000004768372
0 0

0101100
*
Ed
 1e-07 1 1 0
1  12 0 0 15.5
2  68 34 0 0 15.5
4 G1 26 0 34 0
6  31 9 0
6  32 10 0
0

0101000
+57 0 -57 1 *
Ed
 1e-07 1 1 0
1  13 0 0.613455114768811 5.65417813417502
6  33 9 2
6  34 9 0
6  35 4 0
0

0101000
+62 0 -57 0 *
Wi

0101000
+61 0 -56 0 -55 0 +55 1 *
Fa
0  1e-07 26 0
2  9
0111000
+54 0 *
Ve
1e-07
3.5 0 1.20000004768372
0 0

0101100
*
Ed
 1e-07 1 1 0
1  14 0 0 15.5
2  69 34 0 0 15.5
4 G1 34 0 35 0
6  36 10 0
6  37 11 0
0

0101000
+52 0 -52 1 *
Ed
 1e-07 1 1 0
2  70 36 0 3.14159265358979 4.71238898038469
1  15 0 3.14159265358979 4.71238898038469
6  38 7 0
2  71 37 0 3.14159265358979 4.71238898038469
2  72 37 4 3.14159265358979 4.71238898038469
2  73 38 0 3.14159265358979 4.71238898038469
2  74 38 6 3.14159265358979 4.71238898038469
2  75 39 0 3.14159265358979 4.71238898038469
2  76 39 8 3.14159265358979 4.71238898038469
2  77 40 0 3.14159265358979 4.71238898038469
2  78 40 10 3.14159265358979 4.71238898038469
2  79 34 0 3.14159265358979 4.71238898038469
2  80 34 2 3.14159265358979 4.71238898038469
6  39 10 2
6  40 10 0
6  41 4 0
0

0101000
+57 0 -52 0 *
Wi

0101000
+56 0 -51 0 -50 0 +50 1 *
Fa
0  1e-07 34 0
2  10
0111000
+49 0 *
Ve
1e-07
21.7999992370605 -1.77635683940025e-15 1.20000004768372
0 0

0101100
*
Ed
 1e-07 1 1 0
1  16 0 0 15.5
2  81 41 0 0 15.5
4 G1 35 0 41 0
6  42 11 0
6  43 12 0
0

0101000
+47 0 -47 1 *
Ed
 1e-07 1 1 0
1  17 0 3.76094394928849 22.060943186349
6  44 11 0
6  45 11 2
6  46 4 0
0

0101000
+52 0 -47 0 *
Wi

0101000
+51 0 -46 0 -45 0 +45 1 *
Fa
0  1e-07 35 0
2  11
0111000
+44 0 *
Ve
1e-07
25.2999992370605 3.5 1.20000004768372
0 0

0101100
*
Ed
 1e-07 1 1 0
1  18 0 0 15.5
2  82 41 0 0 15.5
4 G1 41 0 42 0
6  47 12 0
6  48 13 0
0

0101000
+42 0 -42 1 *
Ed
 1e-07 1 1 0
2  83 43 0 4.71238898038469 6.28318530717959
1  19 0 4.71238898038469 6.28318530717959
6  49 7 0
2  84 44 0 4.71238898038469 6.28318530717959
2  85 44 4 4.71238898038469 6.28318530717959
2  86 45 0 4.71238898038469 6.28318530717959
2  87 45 6 4.71238898038469 6.28318530717959
2  88 46 0 4.71238898038469 6.28318530717959
2  89 46 8 4.71238898038469 6.28318530717959
2  90 47 0 4.71238898038469 6.28318530717959
2  91 47 10 4.71238898038469 6.28318530717959
2  92 41 0 4.71238898038469 6.28318530717959
2  93 41 2 4.71238898038469 6.28318530717959
6  50 12 2
6  51 12 0
6  52 4 0
0

0101000
+47 0 -42 0 *
Wi

0101000
+46 0 -41 0 -40 0 +40 1 *
Fa
0  1e-07 41 0
2  12
0111000
+39 0 *
Ve
1e-07
25.2999992370606 8.54072301940621 1.20000004768372
0 0

0101100
*
Ed
 1e-07 1 1 0
1  20 0 0 15.5
2  94 48 0 0 15.5
4 G1 42 0 48 0
6  53 13 0
6  54 14 0
0

0101000
+37 0 -37 1 *
Ed
 1e-07 1 1 0
1  21 0 3.70347294211387 8.74419596152008
6  55 13 2
6  56 13 0
6  57 4 0
0

0101000
+42 0 -37 0 *
Wi

0101000
+41 0 -36 0 -35 0 +35 1 *
Fa
0  1e-07 42 0
2  13
0111000
+34 0 *
Ve
1e-07
22.5655471836713 11.9559735726512 1.20000004768372
0 0

0101100
*
Ed
 1e-07 1 1 0
1  22 0 0 15.5
2  95 48 0 0 15.5
2  96 49 0 0 15.5
4 G1 48 0 49 0
6  58 14 0
6  59 15 0
0

0101000
+32 0 -32 1 *
Ed
 1e-07 1 1 0
1  23 0 0 1.35028562749374
2  97 50 0 0 1.35028562749374
2  98 50 12 0 1.35028562749374
2  99 51 0 0 1.35028562749374
2  100 51 14 0 1.35028562749374
2  101 52 0 0 1.35028562749374
2  102 52 16 0 1.35028562749374
6  60 7 0
2  103 53 0 0 1.35028562749374
2  104 53 4 0 1.35028562749374
2  105 54 0 0 1.35028562749374
2  106 54 6 0 1.35028562749374
2  107 55 0 0 1.35028562749374
2  108 55 8 0 1.35028562749374
2  109 56 0 0 1.35028562749374
2  110 56 10 0 1.35028562749374
2  111 48 0 0 1.35028562749374
2  112 48 2 0 1.35028562749374
6  61 14 0
6  62 14 2
6  63 4 0
0

0101000
+37 0 -32 0 *
Wi

0101000
+36 0 -31 0 -30 0 +30 1 *
Fa
0  1e-07 48 0
2  14
0111000
+29 0 *
Ve
1e-07
22.3930493278586 11.0279675065057 1.20000004768372
0 0

0101100
*
Ed
 1e-07 1 1 0
1  24 0 0 15.5
2  113 49 0 0 15.5
2  114 57 0 0 15.5
4 G1 49 0 57 0
6  64 15 0
6  65 16 0
0

0101000
+27 0 -27 1 *
Ed
 1e-07 1 1 0
1  25 0 1.35028562749372 4.56533447429302
2  115 58 0 1.35028562749372 4.56533447429302
2  116 58 12 1.35028562749372 4.56533447429302
2  117 59 0 1.35028562749372 4.56533447429302
2  118 59 14 1.35028562749372 4.56533447429302
2  119 60 0 1.35028562749372 4.56533447429302
2  120 60 16 1.35028562749372 4.56533447429302
6  66 7 0
2  121 61 0 1.35028562749372 4.56533447429302
2  122 61 4 1.35028562749372 4.56533447429302
2  123 62 0 1.35028562749372 4.56533447429302
2  124 62 6 1.35028562749372 4.56533447429302
2  125 63 0 1.35028562749372 4.56533447429302
2  126 63 8 1.35028562749372 4.56533447429302
2  127 64 0 1.35028562749372 4.56533447429302
2  128 64 10 1.35028562749372 4.56533447429302
2  129 49 0 1.35028562749372 4.56533447429302
2  130 49 2 1.35028562749372 4.56533447429302
6  67 15 0
6  68 15 2
6  69 4 0
0

0101000
+32 0 -27 0 *
Wi

0101000
+31 0 -26 0 -25 0 +25 1 *
Fa
0  1e-07 49 0
2  15
0111000
+24 0 *
Ve
1e-07
24.0999991893768 9.04955359219556 1.20000004768372
0 0

0101100
*
Ed
 1e-07 1 1 0
1  26 0 0 15.5
2  131 57 0 0 15.5
4 G1 57 0 65 0
6  70 16 0
6  71 17 0
0

0101000
+22 0 -22 1 *
Ed
 1e-07 1 1 0
1  27 0 4.85944348647637 6.28318530717959
2  132 66 0 4.85944348647637 6.28318530717959
2  133 66 12 4.85944348647637 6.28318530717959
2  134 67 0 4.85944348647637 6.28318530717959
2  135 67 14 4.85944348647637 6.28318530717959
2  136 68 0 4.85944348647637 6.28318530717959
2  137 68 16 4.85944348647637 6.28318530717959
6  72 7 0
2  138 69 0 4.85944348647637 6.28318530717959
2  139 69 4 4.85944348647637 6.28318530717959
2  140 70 0 4.85944348647637 6.28318530717959
2  141 70 6 4.85944348647637 6.28318530717959
2  142 71 0 4.85944348647637 6.28318530717959
2  143 71 8 4.85944348647637 6.28318530717959
2  144 72 0 4.85944348647637 6.28318530717959
2  145 72 10 4.85944348647637 6.28318530717959
2  146 57 0 4.85944348647637 6.28318530717959
2  147 57 2 4.85944348647637 6.28318530717959
6  73 16 0
6  74 16 2
6  75 4 0
0

0101000
+27 0 -22 0 *
Wi

0101000
+26 0 -21 0 -20 0 +20 1 *
Fa
0  1e-07 57 0
2  16
0111000
+19 0 *
Ve
1e-07
24.0999991893768 3.20000004768372 1.20000004768372
0 0

0101100
*
Ed
 1e-07 1 1 0
1  28 0 0 15.5
2  148 73 0 0 15.5
4 G1 65 0 73 0
6  76 17 0
6  77 18 0
0

0101000
+17 0 -17 1 *
Ed
 1e-07 1 1 0
1  29 0 -0.311374991149336 5.53817855336251
6  78 17 2
6  79 17 0
6  80 4 0
0

0101000
+22 0 -17 0 *
Wi

0101000
+21 0 -16 0 -15 0 +15 1 *
Fa
0  1e-07 65 0
2  17
0111000
+14 0 *
Ve
1e-07
22.0999991893768 1.20000004768372 1.20000004768372
0 0

0101100
*
Ed
 1e-07 1 1 0
1  30 0 0 15.5
2  149 73 0 0 15.5
4 G1 73 0 4 0
6  81 18 0
6  82 5 0
0

0101000
+12 0 -12 1 *
Ed
 1e-07 1 1 0
2  150 74 0 4.71238898038469 6.28318530717959
1  31 0 4.71238898038469 6.28318530717959
2  151 75 0 4.71238898038469 6.28318530717959
2  152 75 4 4.71238898038469 6.28318530717959
2  153 76 0 4.71238898038469 6.28318530717959
2  154 76 6 4.71238898038469 6.28318530717959
2  155 77 0 4.71238898038469 6.28318530717959
2  156 77 8 4.71238898038469 6.28318530717959
2  157 78 0 4.71238898038469 6.28318530717959
2  158 78 10 4.71238898038469 6.28318530717959
2  159 73 0 4.71238898038469 6.28318530717959
2  160 73 2 4.71238898038469 6.28318530717959
6  83 18 0
6  84 18 2
6  85 4 0
0

0101000
+12 0 -17 0 *
Wi

0101000
+11 0 -16 0 -10 0 +10 1 *
Fa
0  1e-07 73 0
2  18
0111000
+9 0 *
Ed
 1e-07 1 1 0
1  32 0 -0.248365799217179 18.6516333424759
6  86 5 2
6  87 5 0
6  88 4 0
0

0101000
+12 0 -77 0 *
Wi

0101000
+11 0 -76 0 -7 0 +7 1 *
Fa
0  1e-07 4 0
2  5
0111000
+6 0 *
Wi

0101100
+80 0 -75 0 +70 0 +65 0 +60 0 +55 0 +50 0 +45 0 +40 0 +35 0 
+30 0 +25 0 +20 0 +15 0 -10 0 +7 0 *
Fa
0  1e-07 79 0
2  4
0111000
+4 0 *
Sh

0101000
+78 0 -73 0 +68 0 +63 0 +58 0 +53 0 +48 0 +43 0 +38 0 +33 0 
+28 0 +23 0 +18 0 +13 0 -8 0 +5 0 +3 0 -3 1 *
So

1100000
-2 0 *

+1 0 