DBRep_DrawableShape

CASCADE Topology V1, (c) Matra-Datavision
Locations 0
Curve2ds 71
6 0 1 1 0  1 0.28592901866892845  
6 0 1 0 0  0 0.28592901866892845  
6 0 4 1 0.28592901866892839  0.74999713812174229 0.26659652233972614  0.49999618398768453 0.24726421662435255  0.24999713785976294 0.22793210154692692  0 0.20860017713157036  
6 0 1 0 0  0 0.20860017713157036  
6 0 1 1 0  1 0.20860017713157036  
6 0 1 1 0  0 0  
6 0 1 0.99999999999999867 0.99999999999999956  0.5349428359026811 0.99999999999999856  
6 0 10 0.53494283590268177 2.9850774812940747e-15  0.38884081887993849 1.7430501486614959e-15  0.24273880185719493 0.054831135561608284  0.11666413358744704 0.16449340668482251  0.030644162823690757 0.31932321306865219  1.8041124150158794e-16 0.49999999999999872  0.030644162823690264 0.68067678693134548  0.11666413358744621 0.83550659331517563  0.24273880185719407 0.94516886443839065  0.38884081887993804 0.99999999999999822  0.53494283590268232 0.99999999999999833  
6 0 1 0 0  1 0  
6 0 1 0.53494283590268221 -6.6088597932508365e-16  1 0  
6 0 1 1 0  0 0  
6 0 10 0.99999999999999867 0.99999999999999956  0.99999999999999878 0.89999999999999958  0.99999999999999889 0.7999999999999996  0.999999999999999 0.69999999999999962  0.99999999999999911 0.59999999999999964  0.99999999999999922 0.49999999999999972  0.99999999999999933 0.3999999999999998  0.99999999999999944 0.29999999999999988  0.99999999999999956 0.19999999999999996  0.99999999999999967 0.10000000000000002  0.99999999999999978 8.3266726846886741e-17  
6 0 1 0 0  1 0  
6 0 1 1 0  1 0.29542900094776181  
6 0 1 0 0  0 0.29542900094776181  
6 0 8 1 0.29542900094776176  0.93494184854200724 0.29542898527679129  0.87008404716197607 0.29531181620850433  0.8064601568213805 0.29507839831451799  0.74433621266801775 0.29474356706850591  0.68391952664278577 0.29432387820623201  0.62526233332588677 0.29383678796930068  0.56835141186906601 0.29329744613137393  0.5130062867902081 0.29271729109702516  
6 0 8 0.5130062867902081 0.29271729109702516  0.44450109834491863 0.29199918575533668  0.37823449685215593 0.2912168645297713  0.31348375191396649 0.29038716157077854  0.24988399488365848 0.28952333100027805  0.18708497183654182 0.28863697478489647  0.12477266516025243 0.2877375710064613  0.062588099782542497 0.28683294396227438  0 0.28592901866892811  
6 0 1 0 0  1 0  
6 0 8 1 0.20860017713156953  0.98630637425237888 0.20498495298507177  0.97257340625866051 0.20137088959670443  0.95876728552889179 0.19775920186842549  0.94485364265733784 0.19415133679788316  0.9307967024869761 0.19054897344037663  0.91655728097540967 0.18695404333190313  0.90208962576219553 0.18336877137329236  0.88733710043758873 0.1797957371754271  
6 0 8 0.88733710043758873 0.1797957371754271  0.87076471662203492 0.17578193663550493  0.85384758963326846 0.17178719866522571  0.83649315549251946 0.16781173190857276  0.81859738816743577 0.16385944987957071  0.80004989809753901 0.15993750877415483  0.78068843915175856 0.15605800378516962  0.760326785732655 0.15223679073806057  0.73855504757645474 0.14850012697045273  
6 0 8 0.73855504757645474 0.14850012697045273  0.72933869542272001 0.14691833276939728  0.71987225603579952 0.14535323124930946  0.71013110946831781 0.14380581030554684  0.70008122120121974 0.14227872980610956  0.68967914214377102 0.14077632159164022  0.67887200863355668 0.13930458947542393  0.66759754243648195 0.13787120924338819  0.65578405074677182 0.13648552865410313  
6 0 8 0.65578405074677182 0.13648552865410313  0.64797809182749411 0.13556991741575761  0.63994030973096472 0.13467630282602208  0.63164395824617836 0.13380690448278884  0.62306204293252065 0.13296559538521918  0.61416732111976735 0.1321579019337436  0.60493230190808522 0.13139100393006184  0.5953292461680314 0.13067373457714265  0.58533016654055459 0.13001658047922418  
6 0 8 0.58533016654055459 0.13001658047922418  0.57036428579402665 0.12903300096711443  0.55413462181560813 0.12815989419644519  0.53689793708126388 0.12747382913412886  0.51894063846342853 0.12704292401683528  0.50058326789854179 0.12691571587782735  0.48220990186533036 0.12710846601779369  0.46432245967383279 0.12759090141967774  0.44761992056516886 0.12827039210750371  
6 0 8 0.44761992056516886 0.12827039210750371  0.42018475095462354 0.12938650637899324  0.39564344594683032 0.13104622421386267  0.37321908361886219 0.13303208205556943  0.35269098024670409 0.13522239378161227  0.33379976337792444 0.137529932324715  0.31620813953328136 0.1399029166994433  0.29960868797308798 0.14234047532978014  0.28357001196416748 0.14487475657318458  
6 0 8 0.28357001196416748 0.14487475657318458  0.2598935195282312 0.14861589397483962  0.23804240729355283 0.1524741945819123  0.21741650020073183 0.15640892526637734  0.19779365027076762 0.16039796554766769  0.17895586575642813 0.16442388576735298  0.16077257830471131 0.16847768058396229  0.14311040697347888 0.17255485058938366  0.12585269289083592 0.1766568292167619  
6 0 8 0.12585269289083592 0.1766568292167619  0.10920315414930158 0.18061425090925415  0.09295337881276082 0.18458912376284703  0.077016919648224269 0.18857748018293305  0.061327289775650461 0.19257600563939584  0.045829458274203934 0.19658190655492916  0.030473856791806791 0.20059282563422196  0.01521289715798365 0.20460680463400777  0 0.20862229457397954  
6 0 1 0 0  0 0.20862229457397957  
6 0 1 1 0  1 0.20862229457397957  
6 0 1 1 0  1 0.29543149734200219  
6 0 1 0 0  0 0.29543149734200219  
6 0 4 1 0.29543149734200219  0.74999999995171596 0.29543087326972411  0.49999999993563143 0.29543024917992522  0.24999999995171465 0.2954296250726049  0 0.29542900094776159  
6 0 4 1 0.20862229457397946  0.75000383912593727 0.22794996688625768  0.50000511861296293 0.24727779483416876  0.2500038387934907 0.2666057783957973  0 0.28593391754922065  
6 0 1 0 0  0 0.28593391754922065  
6 0 1 1 0  1 0.28593391754922065  
6 0 8 1 0.28593391754922065  0.93903206214222612 0.28681425692937501  0.87843687988264285 0.28769540261917081  0.81773416436657387 0.28857172170787054  0.75659224425169747 0.28943596602686877  0.69471813263405346 0.2902794429074298  0.6317888303075897 0.2910916473428356  0.56746195389195864 0.2918605962115719  0.50108926300586609 0.29257126611217144  
6 0 8 0.50108926300586609 0.29257126611217144  0.44430556692780865 0.2931792641172053  0.38590289808262529 0.29374591344065853  0.32566274194303779 0.29425926742175124  0.2635572021417667 0.29470308357976199  0.19962453387135104 0.29505828896454245  0.13407627767894498 0.29530669316795516  0.067164181610248133 0.29543151351903968  0 0.29543149734200219  
6 0 1 0 0  1 0  
6 0 1 1.0000000000000004 0.99999742086802501  1.214954440387217e-07 0.99999999999999978  
6 0 1 0.98615979535486853 0.99999745656374373  1.214954439276994e-07 0.99999999999999978  
6 0 1 0.013840206326653403 0  1 0  
6 0 1 1.2149544422372251e-07 0.99999999999999989  -4.4995157781756883e-16 2.579119297352328e-06  
6 0 1 0 0  1 0  
6 0 1 -4.5803334585174826e-16 2.5791192970555222e-06  0.98615967385942493 3.5683040955868028e-08  
6 0 1 0 0  0.98616464092992973 0  
6 0 1 -4.5803334585174826e-16 2.5791192970555222e-06  0.99999496324416937 -6.1190761252482087e-16  
6 0 1 0.99999496324416937 -1.001562766428599e-15  1.0000000000000007 0.99999742086802446  
6 0 5 0.013840206326653405 0  0.020901223237959274 0.12967034985767387  0.028021634936604513 0.25388222621586365  0.035195146184001096 0.37296147027437626  0.042416073427048347 0.48722010925615855  0.049679417072936403 0.59694890260484956  
6 0 8 0.049679417072936334 0.59694890260484545  0.083019261953298354 0.58144307029076525  0.11948780762768529 0.56754854607858463  0.158982360388708 0.55525860453340292  0.20122411516321309 0.54448166436861045  0.24575655084155873 0.53504639083941052  0.29210073917024404 0.52677710386732002  0.33980254887803274 0.5195103286022027  0.38845203597480044 0.51310270662035118  
6 0 8 0.38845203597480044 0.51310270662035118  0.45406002482579338 0.50446148105695521  0.5215236505306563 0.49736543819273021  0.59021774026541285 0.49142511338042522  0.65968257827091814 0.48636491370528079  0.72961379279667415 0.48199872103151775  0.79983207890890318 0.47818542893180987  0.87028028876010199 0.47482090615939171  0.94101298158766911 0.47182383675341799  
6 0 4 0.94101298158766922 0.47182383675341777  0.94460443296912877 0.41211026026556585  0.94820325496697633 0.35272208444081143  0.95180936823662554 0.29365720410539842  0.95542269328893337 0.23491348687021993  
6 0 4 1 0.23819151967578525  0.98879806544422089 0.23739526972028721  0.97763320398123099 0.23658384552127365  0.96650737421711896 0.23575675502818569  0.95542269328893326 0.23491348687021946  
6 0 1 1 0  1 0.23819151967578522  
6 0 1 0 0  0 0.23819151967578522  
6 0 1 0 0  0 0.2304137918531706  
6 0 1 1 0  1 0.2304137918531706  
6 0 4 1 0.23041829966303184  0.74999999993844813 0.23041717273492274  0.49999999991792821 0.23041604579057642  0.24999999993844746 0.23041491882999238  0 0.2304137918531706  
6 0 1 1 0  1 0.23041829966303182  
6 0 1 0 0  0 0.23041829966303182  
6 0 1 0 0  0 0.23819539956742167  
6 0 1 1 0  1 0.23819539956742167  
6 0 4 0.044577525821240117 0.23491348687021951  0.033492775447244272 0.23575774911163996  0.022366886200566566 0.23658581722847488  0.011201974944816727 0.23739820317945853  0 0.23819539956742167  
6 0 4 0.04457752582124011 0.23491348687021982  0.048190868634238847 0.2936572041081284  0.05179699962878586 0.35272208444066105  0.055395839315849335 0.41211026026507425  0.058987308350346046 0.47182383675341788  
6 0 8 0.058987308350345963 0.47182383675341821  0.13003697326254532 0.47483432203032755  0.20079775441139247 0.47821547793325647  0.27132655746974194 0.48204976143880962  0.34156595033976822 0.48644281501033398  0.41133328941882452 0.4915380835439464  0.48031803472296597 0.49752472945835002  0.54805016888302616 0.50468374674110228  0.61389070533349843 0.51341187050095738  
6 0 8 0.61389070533349843 0.51341187050095738  0.66220508408481826 0.51981664634052305  0.70957034181967094 0.52707552261479884  0.75558216560040969 0.53532991771372052  0.79979343382609913 0.54474066875798699  0.8417333885215551 0.55548021894719257  0.88095523393045938 0.56771575088801507  0.91718608487428865 0.5815364771423418  0.95032525402370671 0.5969489026048449  
6 0 5 0.95032525402370671 0.59694890260484856  0.95758863337818312 0.48722010914763902  0.96480959611042394 0.37296147023060061  0.97198314260773122 0.25388222623871276  0.97910358930125108 0.12967035004978691  0.98616464092992973 0  
6 0 1 0 0  1 0  
6 0 8 0.52184308849651562 0.23285862430529186  0.4627674227567638 0.23233438554939895  0.40183550012198466 0.23184705499943259  0.33893613833228725 0.23140790979631085  0.27410185713720014 0.23103077763455665  0.20742497408826782 0.23073096806696169  0.13916477442650754 0.2305226672757682  0.069651537520177928 0.23041833008328391  0 0.23041829966303176  
6 0 8 1 0.23819539956742197  0.94269081404382182 0.23748460056690879  0.8853158288679619 0.23677419179423698  0.82748050851020383 0.23606885096094357  0.76890823901086114 0.23537430264067027  0.70934247099878933 0.23469743019913064  0.64853013792654302 0.23404617347477447  0.5861866905810913 0.23342961084406547  0.52184308849651562 0.23285862430529186  
6 0 1 0 0  1 0  
6 0 8 0.50615275156421169 0.23261092390232174  0.4375380422052349 0.23319360982684745  0.37128084767937075 0.23383128106257178  0.30679932953973865 0.23451040809405652  0.24377558969148344 0.23521997086587937  0.18190294832584569 0.2359502689673372  0.12089354865900945 0.23669320718774645  0.060419124878883491 0.23744202934908523  0 0.23819151967578592  
6 0 8 1 0.23041379185317115  0.93446878046377646 0.23041376323178731  0.86901723884794346 0.23050607676023724  0.80459876690273835 0.23069066619082715  0.74154509759250753 0.23095775315293401  0.68009933247820165 0.23129560027714935  0.62036991992112145 0.23169139154907381  0.56240778017705706 0.23213319815426084  0.50615275156421169 0.23261092390232174  
Curves 50
6 0 1 27.5 -55 126  27.5 -53.811010597868808 139.59021105378847  
6 0 4 27.5 -53.811010597868801 139.59021105378847  24.999971381217421 -53.8914016451265 138.67133717895919  22.499961839876857 -53.971791899747551 137.75247236400847  19.999971378597628 -54.052181361631632 136.83361661008246  17.5 -54.132570030678458 135.91476991832786  
6 0 1 17.500000000000004 -55.000000000000007 126  17.500000000000004 -54.132570030678465 135.91476991832786  
6 0 1 27.5 -55 126  17.500000000000004 -55.000000000000007 126  
6 0 10 17.5 -75 126  14.358407346410207 -75 126  11.216814692820414 -73.903377288767842 126  8.5058647709014501 -71.710131866303541 126  6.6562003123241489 -68.613535738626936 126  5.9972670630499216 -65 126  6.6562003123241489 -61.386464261373057 126  8.5058647709014501 -58.289868133696451 126  11.216814692820412 -56.09662271123215 126  14.358407346410205 -55 126  17.5 -55 126  
6 0 1 17.5 -75 126  27.5 -75 126  
6 0 10 27.5 -55 126  27.5 -57 126  27.5 -59 126  27.5 -61 126  27.5 -63 126  27.5 -65 126  27.5 -67 126  27.5 -69 126  27.5 -71 126  27.5 -73 126  27.5 -75 126  
6 0 1 27.5 -55 126  28.728493536068175 -55 140.04174537086345  
6 0 8 28.728493536068179 -55 140.04174537086345  28.728493470902993 -54.874456443446462 140.04174462602197  28.713343252024679 -54.749298909447589 140.03617557824066  28.683159870078981 -54.628762712593712 140.02508122182439  28.639861867844026 -54.515474784792431 140.00916668708382  28.585590222140048 -54.41111020453242 139.98921886842044  28.522602341291488 -54.316533198450301 139.96606746128776  28.452857353401765 -54.231990977127516 139.94043253468374  28.3778344360868 -54.157330226892064 139.91285775616905  
6 0 8 28.3778344360868 -54.157330226892064 139.91285775616905  28.284972434581626 -54.064916509205844 139.8787261972324  28.183806093662639 -53.987425407907182 139.84154245625783  28.07651235621455 -53.924146173975878 139.80210666069885  27.964805172000787 -53.874813576778514 139.76104877919173  27.850184827487507 -53.839062036679614 139.71892025340662  27.733876946623763 -53.816624150604461 139.67617157672973  27.61689329014348 -53.807251771293217 139.63317463814454  27.500000000000004 -53.811010597868808 139.59021105378847  
6 0 8 17.5 -54.132570030678487 135.91476991832789  17.032485400869867 -54.147603353341985 135.74293825399951  16.565117716541529 -54.185619934690365 135.57116176052452  16.098053600191559 -54.246712284419146 135.39949818221345  15.631479682935183 -54.331212541062051 135.2280162948887  15.165612565996595 -54.43966943600401 135.05679590407678  14.700701447163299 -54.572879640273783 134.88592881571611  14.237033381524547 -54.731973494117099 134.71552077938051  13.774941176493829 -54.918555119349563 134.54569440401841  
6 0 8 13.774941176493829 -54.918555119349563 134.54569440401841  13.255845685285193 -55.128153289035438 134.35491839702448  12.739206903317276 -55.372256292166369 134.16504843428515  12.225050700344191 -55.653186340239195 133.97609443265407  11.713881820003913 -55.974183573896966 133.78824240151442  11.20662417118934 -56.339060666009743 133.60183247498523  10.704839846731158 -56.753656340849602 133.41743953777913  10.210576989911257 -57.224797462785361 133.23581721754954  9.7272270129934295 -57.767023810935207 133.05821352599264  
6 0 8 9.7272270129934295 -57.767023810935207 133.05821352599264  9.5226166337570977 -57.996557573271005 132.98303082108191  9.3201611997400207 -58.238785824955208 132.90864151957757  9.1199881866179204 -58.494598989090832 132.83509257616259  8.9224412195534253 -58.765223800779381 132.76251041440761  8.7280800731960557 -59.052223307121025 132.69110092677101  8.5376806716822333 -59.357496867214479 132.62114947459895  8.3522350886352719 -59.683280152157003 132.55302088812533  8.1729515471653773 -60.032145145044453 132.48715946647184  
6 0 8 8.1729515471653773 -60.032145145044453 132.48715946647184  8.0544869986326511 -60.262663426546737 132.44364044895391  7.9388642765917368 -60.503134831221843 132.40116693251343  7.8263701722872954 -60.754519932622777 132.35984441467542  7.7175053241052254 -61.017769267953717 132.31985697915499  7.6129842175726798 -61.293823338069842 132.28146729585731  7.5137351853580494 -61.583612607477441 132.24501662087761  7.4209004072709792 -61.888057504333815 132.21092479650122  7.3358359102623663 -62.208068420447333 132.1796902512034  
6 0 8 7.3358359102623663 -62.208068420447333 132.1796902512034  7.208517680442899 -62.687037024215755 132.13294070049326  7.0954742041241152 -63.212865792462196 132.0914419210369  7.0066099014389787 -63.777762990507995 132.05883323711637  6.9507373226087035 -64.371520162698857 132.03835230966308  6.934137815396598 -64.98114312155333 132.03230610468208  6.9589195950250557 -65.590475624147629 132.04146752206799  7.0211732165556739 -66.179815735737236 132.06439768481246  7.1089244497325126 -66.725524880615197 132.09669388860328  
6 0 8 7.1089244497325126 -66.725524880615197 132.09669388860328  7.2530624128337227 -67.621892962758253 132.14974281864997  7.4675359433163147 -68.410402340646158 132.22862923518295  7.7242163488751743 -69.112220971840372 132.32301709171216  8.0073632728788997 -69.735251797400849 132.42712264479334  8.3056919323165879 -70.290043295620521 132.53679999045582  8.6125015058814842 -70.789447583843227 132.6495879775936  8.9276763563255273 -71.244150494509768 132.76544518018343  9.2553717712187265 -71.666198051576288 132.88589961019497  
6 0 8 9.2553717712187265 -71.666198051576288 132.88589961019497  9.739119806760721 -72.289229889549262 133.06371593365316  10.23804785979523 -72.825197917241454 133.24710102623055  10.746881514993573 -73.295304621429167 133.43411884166699  11.262756829522647 -73.707870409242773 133.62371799315483  11.783416719770177 -74.070879308939098 133.81507004872938  12.307694583489329 -74.389004532909681 134.00774698436612  12.8350067928129 -74.66653325439249 134.20153494311799  13.365537449250859 -74.906433164608387 134.39650205608791  
6 0 8 13.365537449250859 -74.906433164608387 134.39650205608791  13.87737179044089 -75.137878814368406 134.58459837551777  14.391472316548208 -75.333983900406253 134.77352414892749  14.90732466253673 -75.497331594397309 134.96309079647881  15.424499144977872 -75.629672614527763 135.15314077849959  15.942633598906877 -75.732208053149947 135.34354131621379  16.461422375717948 -75.805759173879551 135.53418036733569  16.980611502098135 -75.850824178134374 135.72496485652999  17.5 -75.867521941114902 135.91582116073661  
6 0 1 17.5 -75 126  17.5 -75.867521941114916 135.91582116073661  
6 0 1 27.5 -75 126  28.728503916918321 -75 140.04186402452359  
6 0 4 28.728503916918324 -75 140.04186402452362  28.728501321815077 -69.999999999034316 140.04183436235778  28.728498726638971 -64.999999998712639 140.04180469935912  28.728496131390006 -59.999999999034294 140.04177503552776  28.728493536068175 -55 140.04174537086348  
6 0 4 17.5 -75.867521941114916 135.91582116073661  19.999961608740627 -75.947892928481437 136.83446574996057  22.499948813870372 -76.028264563033488 137.75311773654875  24.999961612065093 -76.108636844679893 138.67177711945953  27.5 -76.189009773329531 139.59044389765094  
6 0 1 27.5 -75 126  27.5 -76.189009773329531 139.59044389765094  
6 0 8 27.500000000000004 -76.189009773329516 139.59044389765094  27.613869329443798 -76.192670521714405 139.63228644315737  27.727843315292379 -76.183871509283719 139.67416731257458  27.841193296248381 -76.162665295603958 139.71581877356047  27.952981689494365 -76.128835673496937 139.75689632054073  28.062084070761724 -76.08214085473125 139.7969867908225  28.167141601439628 -76.022253239153457 139.83559088126233  28.266604262742149 -75.948913156073687 139.87213903389244  28.358528812663295 -75.861472550590634 139.90591718618941  
6 0 8 28.358528812663295 -75.861472550590634 139.90591718618941  28.437172839824893 -75.786664663486093 139.93481534156783  28.510468613822486 -75.701375654660168 139.96174819341695  28.576870859627299 -75.605386635446365 139.98614791675018  28.634278656282412 -75.498893294276911 140.00724250618487  28.680224984822459 -75.382757236441932 140.02412542408263  28.712357002273425 -75.258731706248383 140.03593208003741  28.72850398418791 -75.129608685377505 140.04186479341845  28.728503916918324 -75 140.04186402452359  
6 0 1 88.038186543008464 -57.49999718180635 162.33905687460816  27.5 -57.49999718180635 129  
6 0 1 87.200325550611765 -57.49999718180635 161.87763744872754  27.5 -57.49999718180635 129  
6 0 1 27.5 -57.49999718180635 129  27.5 -72.50000281819365 129  
6 0 1 27.5 -72.50000281819365 129  87.200325550611808 -72.50000281819365 161.8776374487276  
6 0 1 27.5 -72.50000281819365 129  88.037888982022125 -72.50000281819365 162.3388930044427  
6 0 1 88.037888982022125 -72.50000281819365 162.3388930044427  88.038186543008464 -57.49999718180635 162.33905687460816  
6 0 5 87.200325550611808 -57.49999718180635 161.87763744872754  86.779233560523878 -57.367958127334298 163.15319790823875  86.354599492925615 -57.23480840684072 164.43948793307783  85.926798771722389 -57.100665739538172 165.73537029931154  85.496170342241371 -56.965636406290614 167.03981828292837  85.063012361038645 -56.829813898094514 168.35192871615823  
6 0 8 85.063012361038631 -56.829813898094514 168.35192871615817  83.046635826867785 -56.789238941034036 167.70472285598564  80.841037090672501 -56.744856320775789 166.99678145562552  78.452427014618422 -56.696791016688223 166.23009804471741  75.897667585040637 -56.645382337605341 165.41008489433403  73.204368961899576 -56.591185874726243 164.54560416736518  70.401496477756297 -56.534784488991448 163.64595300286055  67.516515756414918 -56.476730863140844 162.7199471712629  64.574219997889941 -56.417523903508936 161.77554466260088  
6 0 8 64.574219997889941 -56.417523903508936 161.77554466260088  60.606282844972739 -56.337678261154998 160.50193721149037  56.526117737138392 -56.255574288387848 159.1923074258265  52.371534802692736 -56.171972827394171 157.8587914003366  48.170337412376185 -56.087433357297932 156.5103133136852  43.940933811934464 -56.002326301858318 155.15278174711503  39.69416827073897 -55.916869877148471 153.78967743675008  35.433497061020873 -55.831133632725034 152.42210975855826  31.155620468372717 -55.745051169397769 151.04901958768136  
6 0 4 31.155620468372721 -55.745051169397776 151.04901958768136  30.927725006948773 -55.962218615256226 148.44416255555313  30.699361843238385 -56.179831746651089 145.83395966185236  30.470536012050392 -56.397885765783492 143.21846845470731  30.241252557366462 -56.616375866113671 140.59774658709171  
6 0 4 27.544710200896915 -56.57311130857979 139.6066723668213  28.222330569944244 -56.583983349762633 139.85572181078223  28.897708336504785 -56.594819416072866 140.10394694557735  29.570725021817353 -56.605617606488877 140.35130422716819  30.241252557366465 -56.616375866113685 140.59774658709168  
6 0 1 27.5 -57.49999718180635 129  27.544710200896915 -56.573111308579797 139.6066723668213  
6 0 1 27.5 -57.49999718180635 129  26.602337439529453 -57.49999718180635 139.26033001640903  
6 0 4 26.602319877680795 -72.50000281819365 139.26053074925781  26.602324268048072 -68.750001408173546 139.2604805671302  26.602328658478609 -64.999999998768928 139.26043038427949  26.602333048972397 -61.249998589979889 139.26038020070587  26.602337439529453 -57.49999718180635 139.26033001640909  
6 0 1 27.5 -72.50000281819365 129  26.602319877680792 -72.50000281819365 139.26053074925775  
6 0 1 27.5 -72.50000281819365 129  27.544710929179494 -73.426903789425168 139.60684513846095  
6 0 4 30.241252557366465 -73.383624133886315 140.59774658709171  29.570724296945929 -73.394386142971157 140.35134663472513  28.897707502972139 -73.405188099683585 140.10403229226182  28.22233022676647 -73.416027948903462 139.85585061614967  27.544710929179494 -73.426903789425154 139.60684513846098  
6 0 4 30.241252557366462 -73.383624133886329 140.59774658709171  30.47053601206105 -73.602114234226661 143.21846845482912  30.699361843237803 -73.820168253348342 145.8339596618458  30.92772500694689 -74.037781384742019 148.44416255553168  31.155620468372717 -74.25494883060226 151.04901958768136  
6 0 8 31.155620468372717 -74.254948830602245 151.04901958768136  35.452646247266351 -74.168481033783692 152.42825616293541  39.732200571796625 -74.082364809946768 153.80188484330509  43.997725050624325 -73.996530904604796 155.17101029811357  48.245746237362411 -73.911049212904558 156.5345176389263  52.465217995838884 -73.826142013026441 157.88886133547769  56.637359121195331 -73.742187233676574 159.22801309608982  60.73374334629716 -73.659756888341889 160.54284880810923  64.715725284895825 -73.579628626860867 161.82096428013938  
6 0 8 64.715725284895825 -73.579628626860867 161.82096428013938  67.637739501883431 -73.520829786775607 162.75885692702016  70.502351653984761 -73.463186031704566 163.67832496314438  73.285109224561097 -73.407189412510903 164.57151974923542  75.95897066381383 -73.353384078414962 165.42976163186285  78.495464913539337 -73.302342944220939 166.24391212156382  80.867570130709396 -73.254609762596075 167.00529789028369  83.058782442401593 -73.210516636163277 167.70862161230497  85.063012361038631 -73.170186101905472 168.35192871615817  
6 0 5 85.063012361038631 -73.170186101905486 168.35192871615823  85.496170342669743 -73.034363593575065 167.03981828163074  85.926798771928816 -72.899334260397097 165.73537029868629  86.354599492539037 -72.765191593280505 164.43948793424877  86.779233559900007 -72.632041872861322 163.1531979101286  87.200325550611808 -72.50000281819365 161.87763744872757  
6 0 8 26.898011201811634 -73.178221960586825 139.36919844651399  26.834486361686551 -73.11909208233638 139.34585408592  26.77543441320687 -73.051486800112144 139.32415324835478  26.722221923774633 -72.975401792749693 139.30459810509407  26.676524513775774 -72.891174609991012 139.28780440360333  26.640197339205244 -72.79963849070181 139.27445387853012  26.614959380625091 -72.702257134643489 139.26517824080364  26.602319759167393 -72.601230205727632 139.26053210387209  26.602319877680792 -72.50000281819365 139.26053074925775  
6 0 8 27.544710929179498 -73.426903789425168 139.60684513846101  27.45857654921312 -73.428286252680394 139.57519324704447  27.372489708615024 -73.420528026108244 139.54355873248025  27.287017282330254 -73.403658561456325 139.51214989334173  27.202853007227525 -73.377572258765554 139.48122164498889  27.120831042964927 -73.342120067221387 139.45108050381256  27.04191356847592 -73.297175768158056 139.42208003095217  26.96720072315366 -73.242624609457778 139.39462448666387  26.898011201811634 -73.178221960586825 139.36919844651399  
6 0 8 26.868563862847317 -56.850452760999502 139.35816834341455  26.939163925197771 -56.778661407282456 139.38411535740823  27.016425442690846 -56.717857774726291 139.412510868232  27.098709217047524 -56.667752191893932 139.44275240633624  27.184680101358669 -56.628251037341137 139.47434924846871  27.273162846850628 -56.599171432578387 139.50686943517704  27.363176691558689 -56.580358194264733 139.53995248659481  27.453903109215727 -56.571654359400647 139.57329755000066  27.544710200896915 -56.57311130857979 139.60667236682133  
6 0 8 26.60233743952945 -57.49999718180635 139.26033001640906  26.602337551034687 -57.40475988173251 139.26032874189835  26.613525802768304 -57.309638083573454 139.26443946486881  26.635894014985084 -57.21753635745349 139.27265923530928  26.668257327179205 -57.130385137052144 139.28455262221269  26.709193571298449 -57.049502461136221 139.29959696032091  26.757149929630533 -56.97568569465038 139.3172215522994  26.810681106151304 -56.909312219783736 139.33689520783958  26.868563862847317 -56.850452760999502 139.35816834341455  
Polygon3D 0
PolygonOnTriangulations 0
Surfaces 13
8 0 0 1 1 17.500000000000004 -55.000000000000007 126  17.5 -50.841662354992032 173.53001677498258  
27.5 -55 126  27.5 -50.841662354992025 173.53001677498258  

8 0 0 5 1 27.5 -55 126  27.5 -50.841662354992025 173.53001677498256  
27.5 -55 126  28.806380166629413 -50.841662354992025 173.53001677498256  
27.5 -55 126  30.11276047703393 -51.3546767383069 173.53001677498256  
27.5 -55 126  31.1453232616931 -52.38723952296607 173.53001677498256  
27.5 -55 126  31.658337645007975 -53.69361983337059 173.53001677498256  
27.5 -55 126  31.658337645007975 -55 173.53001677498256  

8 0 0 10 1 17.5 -75 126  17.5 -79.158337645007975 173.53001677498258  
14.358407346410207 -75 126  13.052027046739912 -79.158337645007975 173.53001677498258  
11.216814692820414 -73.903377288767842 126  8.6066413170769422 -77.605356405018924 173.53001677498258  
8.5058647709014501 -71.710131866303541 126  4.7616269673099501 -74.501451091224425 173.53001677498258  
6.6562003123241489 -68.613535738626936 126  2.1462644684333192 -70.11508078472184 173.53001677498258  
5.9972670630499216 -65 126  1.2190388182132135 -65 173.53001677498258  
6.6562003123241489 -61.386464261373057 126  2.1462644684333001 -59.884919215278167 173.53001677498258  
8.5058647709014501 -58.289868133696451 126  4.7616269673099465 -55.498548908775597 173.53001677498258  
11.216814692820412 -56.09662271123215 126  8.6066413170769671 -52.394643594981105 173.53001677498258  
14.358407346410205 -55 126  13.052027046739912 -50.841662354992025 173.53001677498258  
17.5 -55 126  17.499999999999996 -50.841662354992039 173.53001677498258  

8 0 0 1 1 5.9972670630499074 -74.999999999999986 126  5.9972670630499358 -54.999999999999972 126  
27.5 -75.000000000000014 126  27.500000000000028 -55 126  

8 0 0 1 1 27.5 -75 126  27.5 -79.158337645007975 173.53001677498258  
17.5 -75 126  17.5 -79.158337645007975 173.53001677498258  

8 0 0 10 1 27.5 -55 126  31.658337645007975 -55 173.53001677498258  
27.5 -57 126  31.658337645007975 -57 173.53001677498258  
27.5 -59 126  31.658337645007975 -59 173.53001677498258  
27.5 -61 126  31.658337645007975 -61 173.53001677498258  
27.5 -63 126  31.658337645007975 -63 173.53001677498258  
27.5 -65 126  31.658337645007975 -65 173.53001677498258  
27.5 -67 126  31.658337645007975 -67 173.53001677498258  
27.5 -69 126  31.658337645007975 -69 173.53001677498258  
27.5 -71 126  31.658337645007975 -71 173.53001677498258  
27.5 -73 126  31.658337645007975 -73 173.53001677498258  
27.5 -75 126  31.658337645007975 -75 173.53001677498258  

8 0 0 5 1 27.5 -75 126  31.658337645007975 -75 173.53001677498256  
27.5 -75 126  31.658337645007975 -76.30638016662941 173.53001677498256  
27.5 -75 126  31.1453232616931 -77.61276047703393 173.53001677498256  
27.5 -75 126  30.11276047703393 -78.645323261693107 173.53001677498256  
27.5 -75 126  28.806380166629413 -79.158337645007975 173.53001677498256  
27.5 -75 126  27.5 -79.158337645007975 173.53001677498256  

8 0 0 1 1 27.500000000018996 -72.500041505097428 129.0000000000104  27.499992644885239 -57.499997181811054 128.99999594945598  
88.038193898123211 -72.500002817998791 162.33906092515218  88.038186542989465 -57.499958494712409 162.33905687459776  

8 0 0 1 1 88.038186543008464 -57.49999718180635 162.33905687460816  88.085359685354234 -56.522052141102648 173.53001677498258  
27.5 -57.49999718180635 129  27.687706938340085 -53.608650107451282 173.53001677498258  

8 0 0 1 1 27.5 -57.49999718180635 129  23.604128345569805 -57.49999718180635 173.53001677498258  
27.5 -72.50000281819365 129  23.604128345569805 -72.50000281819365 173.53001677498258  

8 0 0 1 1 27.5 -72.50000281819365 129  27.687706938340085 -76.391349892548718 173.53001677498258  
88.037888982022125 -72.50000281819365 162.3388930044427  88.085062815128182 -73.477962179028694 173.53001677498258  

8 0 0 5 1 27.5 -57.49999718180635 129  27.687706938340085 -53.608650107451282 173.53001677498256  
27.5 -57.49999718180635 129  26.427692052139172 -53.547870759828868 173.53001677498256  
27.5 -57.49999718180635 129  25.143076608634914 -53.997081275357615 173.53001677498256  
27.5 -57.49999718180635 129  24.114711196766891 -54.977037126807467 173.53001677498256  
27.5 -57.49999718180635 129  23.604128345569805 -56.238517240410012 173.53001677498256  
27.5 -57.49999718180635 129  23.604128345569805 -57.49999718180635 173.53001677498256  

8 0 0 5 1 27.5 -72.50000281819365 129  23.604128345569805 -72.50000281819365 173.53001677498256  
27.5 -72.50000281819365 129  23.604128345569805 -73.761482759589981 173.53001677498256  
27.5 -72.50000281819365 129  24.114711196766891 -75.022962873192526 173.53001677498256  
27.5 -72.50000281819365 129  25.143076608634914 -76.002918724642385 173.53001677498256  
27.5 -72.50000281819365 129  26.427692052139172 -76.452129240171132 173.53001677498256  
27.5 -72.50000281819365 129  27.687706938340082 -76.391349892548718 173.53001677498256  

Triangulations 0

TShapes 122
Ve
0.0011
27.5 -55 126
0 0

0101100
*
Ve
0.0011
27.5 -53.8110105978688 139.590211053788
0 0

0101100
*
Ed
 1e-07 1 1 0
1  1 0 0 1
2  1 1 0 0 1
2  2 2 0 0 1
4 G1 1 0 2 0
0

0101000
+122 0 -121 0 *
Ve
0.0011
17.5 -54.1325700306785 135.914769918328
0 0

0101100
*
Ed
 1e-07 1 1 0
1  2 0 0 1
2  3 1 0 0 1
0

0101000
+121 0 -119 0 *
Ve
0.0011
17.5 -55 126
0 0

0101100
*
Ed
 1e-07 1 1 0
1  3 0 0 1
2  4 1 0 0 1
2  5 3 0 0 1
4 G1 1 0 3 0
0

0101000
+117 0 -119 0 *
Ed
 1e-07 1 1 0
1  4 0 0 1
2  6 1 0 0 1
2  7 4 0 0 1
0

0101000
+122 0 -117 0 *
Wi

0101100
+120 0 +118 0 -116 0 -115 0 *
Fa
0  1e-07 1 0

0101000
+114 0 *
Ve
0.0011
17.5 -75 126
0 0

0101100
*
Ed
 1e-07 1 1 0
1  5 0 0 1
2  8 4 0 0 1
2  9 3 0 0 1
0

0101000
+112 0 -117 0 *
Ve
0.0011
27.5 -75 126
0 0

0101100
*
Ed
 1e-07 1 1 0
1  6 0 0 1
2  10 4 0 0 1
2  11 5 0 0 1
0

0101000
+112 0 -110 0 *
Ed
 1e-07 1 1 0
1  7 0 0 1
2  12 4 0 0 1
2  13 6 0 0 1
0

0101000
+122 0 -110 0 *
Wi

0101100
-111 0 +109 0 -108 0 +115 0 *
Fa
0  1e-07 4 0

0101000
+107 0 *
Ve
0.0011
28.7284935360682 -55 140.041745370863
0 0

0101100
*
Ed
 1e-07 1 1 0
1  8 0 0 1
2  14 2 0 0 1
2  15 6 0 0 1
4 G1 2 0 6 0
0

0101000
+122 0 -105 0 *
Ve
0.0011
28.3778344360868 -54.1573302268921 139.912857756169
0 0

0101100
*
Ed
 1e-07 1 1 0
1  9 0 0 1
2  16 2 0 0 1
0

0101000
+105 0 -103 0 *
Ed
 1e-07 1 1 0
1  10 0 0 1
2  17 2 0 0 1
0

0101000
+103 0 -121 0 *
Ed
 1e-07 0 0 1
2  18 2 0 0 1
0

0101100
+122 0 -122 0 *
Wi

0101100
+104 0 +102 0 +101 0 -120 0 +100 0 *
Fa
0  1e-07 2 0

0101000
+99 0 *
Ve
0.0011
13.7749411764938 -54.9185551193496 134.545694404018
0 0

0101100
*
Ed
 2.30189146839893e-07 1 1 0
1  11 0 0 1
2  19 3 0 0 1
0

0101000
+119 0 -97 0 *
Ve
0.0011
9.72722701299343 -57.7670238109352 133.058213525993
0 0

0101100
*
Ed
 2.15121143224011e-07 1 1 0
1  12 0 0 1
2  20 3 0 0 1
0

0101000
+97 0 -95 0 *
Ve
0.0011
8.17295154716538 -60.0321451450445 132.487159466472
0 0

0101100
*
Ed
 8.52947034823119e-05 1 1 0
1  13 0 0 1
2  21 3 0 0 1
0

0101000
+95 0 -93 0 *
Ve
0.0011
7.33583591026236 -62.2080684204473 132.179690251203
0 0

0101100
*
Ed
 2.1719217600027e-05 1 1 0
1  14 0 0 1
2  22 3 0 0 1
0

0101000
+93 0 -91 0 *
Ve
0.0011
7.10892444973251 -66.7255248806152 132.096693888603
0 0

0101100
*
Ed
 2.29389301648758e-06 1 1 0
1  15 0 0 1
2  23 3 0 0 1
0

0101000
+91 0 -89 0 *
Ve
0.0011
9.25537177121872 -71.6661980515763 132.885899610195
0 0

0101100
*
Ed
 7.96573389798868e-06 1 1 0
1  16 0 0 1
2  24 3 0 0 1
0

0101000
+89 0 -87 0 *
Ve
0.0011
13.3655374492509 -74.9064331646084 134.396502056088
0 0

0101100
*
Ed
 4.84502768758586e-07 1 1 0
1  17 0 0 1
2  25 3 0 0 1
0

0101000
+87 0 -85 0 *
Ve
0.0011
17.5 -75.8675219411149 135.915821160737
0 0

0101100
*
Ed
 5.434042441401e-07 1 1 0
1  18 0 0 1
2  26 3 0 0 1
0

0101000
+85 0 -83 0 *
Ed
 1e-07 1 1 0
1  19 0 0 1
2  27 3 0 0 1
2  28 5 0 0 1
4 G1 3 0 5 0
0

0101000
+112 0 -83 0 *
Wi

0101100
+116 0 +96 0 +94 0 +92 0 +90 0 +88 0 +86 0 +84 0 +82 0 -81 0 
+111 0 *
Fa
0  1e-07 3 0

0101000
+80 0 *
Ve
0.0011
28.7285039169183 -75 140.041864024524
0 0

0101100
*
Ed
 1e-07 1 1 0
1  20 0 0 1
2  29 6 0 0 1
2  30 7 0 0 1
4 G1 6 0 7 0
0

0101000
+110 0 -78 0 *
Ed
 1e-07 1 1 0
1  21 0 0 1
2  31 6 0 0 1
0

0101000
+78 0 -105 0 *
Wi

0101100
+77 0 +76 0 -104 0 +108 0 *
Fa
0  1e-07 6 0

0101000
+75 0 *
Ve
0.0011
27.5 -76.1890097733295 139.590443897651
0 0

0101100
*
Ed
 1e-07 1 1 0
1  22 0 0 1
2  32 5 0 0 1
0

0101000
+83 0 -73 0 *
Ed
 1e-07 1 1 0
1  23 0 0 1
2  33 5 0 0 1
2  34 7 0 0 1
4 G1 5 0 7 0
0

0101000
+110 0 -73 0 *
Wi

0101100
+81 0 +72 0 -71 0 -109 0 *
Fa
0  1e-07 5 0

0101000
+70 0 *
Ve
0.0011
28.3585288126633 -75.8614725505906 139.905917186189
0 0

0101100
*
Ed
 1e-07 1 1 0
1  24 0 0 1
2  35 7 0 0 1
0

0101000
+73 0 -68 0 *
Ed
 1e-07 1 1 0
1  25 0 0 1
2  36 7 0 0 1
0

0101000
+68 0 -78 0 *
Ed
 1e-07 0 0 1
2  37 7 0 0 1
0

0101100
+110 0 -110 0 *
Wi

0101100
+71 0 +67 0 +66 0 -77 0 +65 0 *
Fa
0  1e-07 7 0

0101000
+64 0 *
Sh

0101000
+113 0 +106 0 +98 0 +79 0 +74 0 +69 0 +63 0 *
Ve
0.0011
88.0381865430085 -57.4999971818063 162.339056874608
0 0

0101100
*
Ve
0.0011
87.2003255506118 -57.4999971818063 161.877637448728
0 0

0101100
*
Ed
 1e-07 1 1 0
1  26 0 0 0.0138402063266539
2  38 8 0 0 0.0138402063266539
0

0101000
+61 0 -60 0 *
Ve
0.0011
27.5 -57.4999971818063 129
0 0

0101100
*
Ed
 1e-07 1 1 0
1  27 0 0 1
2  39 8 0 0 1
2  40 9 0 0 1
0

0101000
+60 0 -58 0 *
Ve
0.0011
27.5 -72.5000028181937 129
0 0

0101100
*
Ed
 1e-07 1 1 0
1  28 0 0 1
2  41 8 0 0 1
2  42 10 0 0 1
0

0101000
+58 0 -56 0 *
Ve
0.0011
87.2003255506118 -72.5000028181937 161.877637448728
0 0

0101100
*
Ed
 1e-07 1 1 0
1  29 0 0 1
2  43 8 0 0 1
2  44 11 0 0 1
0

0101000
+56 0 -54 0 *
Ve
0.0011
88.0378889820221 -72.5000028181937 162.338893004443
0 0

0101100
*
Ed
 1e-07 1 1 0
1  30 0 0.98616464092993 1
2  45 8 0 0.98616464092993 1
0

0101000
+54 0 -52 0 *
Ed
 1e-07 1 1 0
1  31 0 0 1
2  46 8 0 0 1
0

0101000
+52 0 -61 0 *
Wi

0101100
+59 0 +57 0 +55 0 +53 0 +51 0 +50 0 *
Fa
0  1e-07 8 0

0101000
+49 0 *
Ve
0.0011
85.0630123610386 -56.8298138980945 168.351928716158
0 0

0101100
*
Ed
 1e-07 1 1 0
1  32 0 0 1
2  47 9 0 0 1
0

0101000
+60 0 -47 0 *
Ve
0.0011
64.57421999789 -56.4175239035089 161.775544662601
0 0

0101100
*
Ed
 1e-07 1 1 0
1  33 0 0 1
2  48 9 0 0 1
0

0101000
+47 0 -45 0 *
Ve
0.0011
31.1556204683727 -55.7450511693978 151.049019587681
0 0

0101100
*
Ed
 1e-07 1 1 0
1  34 0 0 1
2  49 9 0 0 1
0

0101000
+45 0 -43 0 *
Ve
0.0011
30.2412525573665 -56.6163758661137 140.597746587092
0 0

0101100
*
Ed
 1e-07 1 1 0
1  35 0 0 1
2  50 9 0 0 1
0

0101000
+43 0 -41 0 *
Ve
0.0011
27.5447102008969 -56.5731113085798 139.606672366821
0 0

0101100
*
Ed
 1e-07 1 1 0
1  36 0 0 1
2  51 9 0 0 1
0

0101000
+39 0 -41 0 *
Ed
 1e-07 1 1 0
1  37 0 0 1
2  52 9 0 0 1
2  53 12 0 0 1
4 G1 9 0 12 0
0

0101000
+58 0 -39 0 *
Wi

0101100
+46 0 +44 0 +42 0 +40 0 -38 0 -37 0 -57 0 *
Fa
0  1e-07 9 0

0101000
-36 0 *
Ve
0.0011
26.6023374395295 -57.4999971818063 139.260330016409
0 0

0101100
*
Ed
 1e-07 1 1 0
1  38 0 0 1
2  54 10 0 0 1
2  55 12 0 0 1
4 G1 10 0 12 0
0

0101000
+58 0 -34 0 *
Ve
0.0011
26.6023198776808 -72.5000028181937 139.260530749258
0 0

0101100
*
Ed
 1e-07 1 1 0
1  39 0 0 1
2  56 10 0 0 1
0

0101000
+32 0 -34 0 *
Ed
 1e-07 1 1 0
1  40 0 0 1
2  57 10 0 0 1
2  58 13 0 0 1
4 G1 10 0 13 0
0

0101000
+56 0 -32 0 *
Wi

0101100
-55 0 +33 0 -31 0 -30 0 *
Fa
0  1e-07 10 0

0101000
-29 0 *
Ve
0.0011
27.5447109291795 -73.4269037894252 139.606845138461
0 0

0101100
*
Ed
 1e-07 1 1 0
1  41 0 0 1
2  59 11 0 0 1
2  60 13 0 0 1
4 G1 11 0 13 0
0

0101000
+56 0 -27 0 *
Ve
0.0011
30.2412525573665 -73.3836241338863 140.597746587092
0 0

0101100
*
Ed
 1e-07 1 1 0
1  42 0 0 1
2  61 11 0 0 1
0

0101000
+25 0 -27 0 *
Ve
0.0011
31.1556204683727 -74.2549488306022 151.049019587681
0 0

0101100
*
Ed
 1e-07 1 1 0
1  43 0 0 1
2  62 11 0 0 1
0

0101000
+25 0 -23 0 *
Ve
0.0011
64.7157252848958 -73.5796286268609 161.820964280139
0 0

0101100
*
Ed
 1e-07 1 1 0
1  44 0 0 1
2  63 11 0 0 1
0

0101000
+23 0 -21 0 *
Ve
0.0011
85.0630123610386 -73.1701861019055 168.351928716158
0 0

0101100
*
Ed
 1e-07 1 1 0
1  45 0 0 1
2  64 11 0 0 1
0

0101000
+21 0 -19 0 *
Ed
 1e-07 1 1 0
1  46 0 0 1
2  65 11 0 0 1
0

0101000
+19 0 -54 0 *
Wi

0101100
+26 0 -24 0 +22 0 +20 0 +18 0 +17 0 -53 0 *
Fa
0  1e-07 11 0

0101000
-16 0 *
Ed
 1e-07 0 0 1
2  66 13 0 0 1
0

0101100
+56 0 -56 0 *
Ve
0.0011
26.8980112018116 -73.1782219605868 139.369198446514
0 0

0101100
*
Ed
 1e-07 1 1 0
1  47 0 0 1
2  67 13 0 0 1
0

0101000
+13 0 -32 0 *
Ed
 1e-07 1 1 0
1  48 0 0 1
2  68 13 0 0 1
0

0101000
+27 0 -13 0 *
Wi

0101100
-14 0 +30 0 -12 0 -11 0 -26 0 *
Fa
0  1e-07 13 0

0101000
-10 0 *
Ed
 1e-07 0 0 1
2  69 12 0 0 1
0

0101100
+58 0 -58 0 *
Ve
0.0011
26.8685638628473 -56.8504527609995 139.358168343415
0 0

0101100
*
Ed
 1e-07 1 1 0
1  49 0 0 1
2  70 12 0 0 1
0

0101000
+7 0 -39 0 *
Ed
 1e-07 1 1 0
1  50 0 0 1
2  71 12 0 0 1
0

0101000
+34 0 -7 0 *
Wi

0101100
-8 0 +37 0 -6 0 -5 0 -33 0 *
Fa
0  1e-07 12 0

0101000
-4 0 *
Sh

0101000
+48 0 -35 0 -28 0 -15 0 -9 0 -3 0 *
Co

1100000
+62 0 +2 0 *

+1 0 