DBRep_DrawableShape

CASCADE Topology V1, (c) Matra-Datavision
Locations 4
1
              1               0               0 -22.3999977111816 
              0               1               0               0 
              0               0               1               0 
2  1 -1 0
1
              1               0               0 28.4966063950826 
              0               1               0              15 
              0               0               1               6 
2  3 -1 0
Curve2ds 36
1 6 -7.5000000000000089 0 1 
1 21.603395893735822 -7.5000000000000089 0 -1 
1 0 0 0 1 
1 7.4999995231628001 -26.5 1.8369095307335701e-16 1 
1 13.439595709621551 6 -1 0 
1 -13.439595709621548 11.499999999999979 -1 2.4492127076447501e-16 
1 -1.5707963267949001 3.5527136788005003e-14 1 0 
2 51.4825873129789 7.4999995231628001 4.4989821654664101e-32 -1 -1 -4.4989821654664101e-32 3
1 56.879191419243099 3 0 1 
1 -3 -11.499999999999968 1 0 
1 0 0 0 -1 
1 30 0 0 1 
1 1.8999996185302903 10.801697946867911 0 -1 
1 10.801697946867911 8.9999999999999822 1 0 
1 0.133731621485495 7.3476398747485501e-17 0 1 
1 5.0000000000000204 -0.0267862633665246 -1 0 
7 0 0  8 9 2  0.133731621485495 4.3999999761581403  0.16551154140611199 4.4021186381473703  0.19729146032651099 4.4048092689904497  0.229071379247443 4.4080686081069897  0.26085129816692598 4.4118921626613901  0.292631217088683 4.4162742176667997  0.32441113600884802 4.4212078539167097  0.35619105492981201 4.42668497090279  0.38797097485042897 4.4326963174529999 
 3.27532427507529 9 3.5295636284402199 9
3 3.0142255240222902 0.40000009536747899 1 7.4489891634019296e-16 -7.4489891634019296e-16 1 3.0413812705929701 3
1 -1.5707963267949001 2.50000000000002 1 0 
2 0.40000009536748798 -3 1 0 0 1 3
7 0 0  8 9 2  0.235504273498779 4.9999999999999902  0.402415780910794 4.3648965170800098  0.569327287322835 3.7588637379685701  0.73623879373098999 3.2088637309079799  0.90315030014699005 2.7401289320714599  1.07006180655753 2.37376636950103  1.23697331297114 2.1245888896337402  1.4038848193828799 2.00000000065315  1.5707963267948899 2.00000000000002 
 1.8063006002936799 9 3.14159265358979 9
3 4.9307109721897699 -3 1 0 0 1 4.9307109721897699 3
1 1.5707963267949001 0 0 1 
1 -2.1316282072802999e-14 -3 1 0 
1 0.94999980926514471 -8.3966041062641779 1 0 
1 0.9499998092651456 -8.9999999999999822 -1 -0 
1 -3.2499999999999929 -8.3966041062641779 1 0 
1 1.8999996185302805 -3.2499999999999893 -3.0615158845559402e-16 -1 
1 5.7499999999999929 -8.3966041062641779 1 0 
1 4.4999995231628009 -5.7499999999999893 1.8369095307335701e-16 1 
1 1.0999998152256056 -8.3966041062641779 1 -0 
1 1.0999998152256039 -6.4999999999999822 -1 2.4980018054066002e-16 
1 5.1386010691798383 -8.3966041062641779 1 -0 
1 1.3735126342561443 -5.4219734329370688 -0.60843152578210713 0.7936063749961042 
1 2.96736853445113 0.24367806025064501 0.20552826436145699 -0.97865118022131203 
1 -0.27419504273758899 -0.79455933965860603 0.992150456656267 0.12504987547679 
Curves 27
1 72.5 26.5 -2.8304096527419298 0 1.2316536679435301e-16 1 
1 50.100002288818402 7.5000000000000089 6 0 -1 0 
1 50.100002288818402 26.5 7.4999995231628001 0 -1 1.8369095307335701e-16 
1 72.5 24 11.009362519065601 0 0 -1 
1 15.057010685461032 26.499999999999996 6 -1 2.4492127076447501e-16 0 
8 1.5707963267949001 3.14159265358979
2 53.100002288818402 26.5 7.4999995231628001 0 1 -1.8369095307335701e-16 0 -1.8369095307335701e-16 -1 -1 0 0 3
1 58.49660639508258 26.499999999999986 3 0 0 1 
1 50.100002288818402 26.5 10.499999523162799 1 0 0 
1 30 0 0 -0 1 0 
1 39.298304341950491 24 6 1 0 0 
8 2.50000000000002 5.0000000000000204
1 50.126788552184898 26.5 7.8999996185302797 0 -1 1.8369095307335701e-16 
8 3.27532427507529 3.5295636284402199
3 53.100002288818402 21.604464368251602 7.4999995231628001 0.16439899789880999 0.98639392206656795 -3.0198606608362299e-16 0.98639392206656795 -0.16439899789880999 -6.9456790199296404e-16 -7.3476376363193902e-16 -1.8369095307335701e-16 -1 3.0413812705929701 3
8 1.5707963267949001 1.7045279482803899
2 53.100002288818402 24 7.4999995231628001 0 1 -1.8369095307335701e-16 0 -1.8369095307335701e-16 -1 -1 0 0 3
8 1.8063006002936799 3.14159265358979
3 53.100002288818402 20.586956339206999 7.4999995231628001 0 0.60843152578210702 -0.79360637499610398 0 -0.79360637499610398 -0.60843152578210702 -1 0 0 4.9307109721897699 3
1 53.100002288818402 26.5 10.499999523162799 0 -1 1.8369095307335701e-16 
1 50.100002288818402 24 7.8999996185302699 1 0 0 
1 58.49660639508258 24 6.9499998092651456 -0 0 -1 
1 58.49660639508258 18.250000000000007 7.8999996185302805 -0 1 -3.0615158845559402e-16 
1 58.49660639508258 20.750000000000007 10.499999523162801 0 -1 1.8369095307335701e-16 
1 58.49660639508258 21.5 7.0999998152256039 0 -2.4980018054066002e-16 -1 
1 58.49660639508258 20.421973432937087 7.3735126342561443 0 -0.7936063749961042 -0.60843152578210713 
1 50.100002288818402 24.5 10.499999523162799 1 0 0 
1 50.100002288818402 21.5 7.8999996185302797 1 0 0 
1 49.571253358286 22.192589228957001 7.8999996185302797 0.98639392206656795 -0.16439899789880999 5.0331014347228502e-17 
1 53.726788456817502 21.5 7.8999996185302797 0 3.0615158845559402e-16 1 
1 49.8563242285678 22.145077414096701 8.6945589581888907 0.97865118022131203 -0.16310854083913701 -0.12504987547679 
1 50.100002288818402 21.5 8.1999996304512006 1 0 0 
Polygon3D 0
PolygonOnTriangulations 52
2 1 2 
p 0.250000020000002 1 8.83040965274193 10.3304091759047 
2 1 2 
p 0.809999822065121 1 8.83040965274193 10.3304091759047 
2 1 3 
p 0.250000020000002 1 -19 -16.5 
2 4 3 
p 0.839660430626418 1 -19 -16.5 
2 2 4 
p 0.250000020000002 1 3.07020744739185e-14 2.50000000000002 
2 2 4 
p 0.300000004 1 3.07020744739185e-14 2.50000000000002 
2 4 3 
p 0.250000020000002 1 3.5093629959028 5.0093625190656 
2 4 7 
p 0.809999822065121 1 3.5093629959028 5.0093625190656 
2 3 1 
p 0.864378090714136 1 -43.4395957096215 -35.0429916033574 
2 2 4 
p 1.01036089802328 1 -43.4395957096215 -35.0429916033574 
9 20 28 29 30 31 32 33 34 24 
p 0.44428573369891 1 1.5707963267949 1.76714586764426 1.96349540849362 2.15984494934298 2.35619449019235 2.55254403104171 2.74889357189107 2.94524311274043 3.14159265358979 
9 2 4 5 6 7 8 9 10 11 
p 0.914717570415169 1 1.5707963267949 1.76714586764426 1.96349540849362 2.15984494934298 2.35619449019235 2.55254403104171 2.74889357189107 2.94524311274043 3.14159265358979 
9 2 4 5 6 7 8 9 10 11 
p 0.864378090714136 1 1.5707963267949 1.76714586764426 1.96349540849362 2.15984494934298 2.35619449019235 2.55254403104171 2.74889357189107 2.94524311274043 3.14159265358979 
2 2 4 
p 0.50000002 1 3 7.4999995231628 
2 1 2 
p 0.539660430626418 1 3 8.39660410626418 
2 1 2 
p 0.50000002 1 9 11.5 
2 3 1 
p 0.839660430626418 1 10.8016979468679 19.1983020531321 
2 7 3 
p 1.01612752012154 1 10.8016979468679 19.1983020531321 
5 1 3 4 5 2 
p 0.44428573369891 1 2.50000000000002 2.97499999403956 3.44999998807909 3.92499998211863 4.39999997615816 
5 5 6 7 8 4 
p 0.836981804289771 1 2.50000000000002 2.97499999403956 3.44999998807909 3.92499998211863 4.39999997615816 
4 2 7 8 6 
p 0.297666035798212 1 3.27532427507529 3.38831954323748 3.45894158583885 3.52956362844022 
4 1 3 4 5 
p 0.362418561464276 1 3.27532427507529 3.38831954323748 3.45894158583885 3.52956362844022 
4 3 4 5 1 
p 0.160358468716833 1 1.5707963267949 1.61537353395673 1.65995074111856 1.70452794828039 
4 9 10 11 1 
p 0.44428573369891 1 1.5707963267949 1.61537353395673 1.65995074111856 1.70452794828039 
4 5 6 7 4 
p 0.802698689920658 1 1.5707963267949 1.61537353395673 1.65995074111856 1.70452794828039 
4 4 5 6 1 
p 0.802698689920658 1 1.5707963267949 1.61537353395673 1.65995074111856 1.70452794828039 
9 6 13 14 15 16 17 18 19 12 
p 0.44428573369891 1 1.95876730125296 2.18362289158857 2.40847848192418 2.59061151009603 2.74238903357257 2.87898880470145 3.00192859871745 3.07176062615362 3.14159265358979 
9 4 5 6 7 8 9 10 11 1 
p 0.840244609036933 1 1.95876730125296 2.18362289158857 2.40847848192418 2.59061151009603 2.74238903357257 2.87898880470145 3.00192859871745 3.07176062615362 3.14159265358979 
5 24 25 26 27 12 
p 0.44428573369891 1 3.19744231092045e-14 0.500000000000029 1.00000000000003 1.50000000000002 2.00000000000002 
5 1 4 5 6 7 
p 0.539660430626418 1 3.19744231092045e-14 0.500000000000029 1.00000000000003 1.50000000000002 2.00000000000002 
2 1 2 
p 0.840332337784689 1 0.0267862633664776 8.39660410626418 
2 5 3 
p 1.00614811618193 1 0.0267862633664776 8.39660410626418 
2 3 1 
p 0.50000002 1 -0.949999809265124 0.949999809265146 
2 5 3 
p 0.50000002 1 3.24999999999999 5.74999999999999 
2 2 3 
p 0.836981804289771 1 3.24999999999999 5.74999999999999 
2 4 6 
p 0.50000002 1 -5.74999999999999 -3.74999999999999 
2 2 3 
p 0.539660430626418 1 -5.74999999999999 -3.74999999999999 
2 7 5 
p 0.120000084768368 1 -1.0999998152256 -0.799999803304676 
2 2 3 
p 0.476571456741896 1 -1.0999998152256 -0.799999803304676 
2 6 7 
p 0.50000002 1 -5.13860106917984 -1.35838950017032 
2 2 3 
p 0.840244609036933 1 -5.13860106917984 -1.35838950017032 
2 7 3 
p 0.539660430626418 1 3 8.39660410626418 
2 1 2 
p 0.840244609036933 1 3 8.39660410626418 
2 4 3 
p 0.476981813826512 1 3.62678616799906 8.39660410626418 
2 1 2 
p 0.362418561464276 1 0.563198111293128 4.21285553932178 
2 4 1 
p 0.836981804289771 1 0.563198111293128 4.21285553932178 
2 3 1 
p 0.120000084768368 1 0 0.300000011920921 
2 2 6 
p 0.362418561464276 1 0 0.300000011920921 
2 4 1 
p 0.476981813826512 1 0 0.300000011920921 
2 5 6 
p 0.362418561464276 1 0.476821944187487 3.95489660307192 
2 4 12 
p 0.840244609036933 1 0.476821944187487 3.95489660307192 
2 1 2 
p 0.476981813826512 1 3.62678616799908 8.39660410626418 
Surfaces 11
1 72.5 0 0 1 0 0 0 0 1 0 -1 0 
1 0 0 0 0 0 1 1 0 -0 -0 1 0 
2 53.100002288818402 26.5 7.4999995231628001 0 -1 1.8369095307335701e-16 -1 0 0 0 1.8369095307335701e-16 1 3
1 1.61741497583948 26.5 0 -2.4492127076447501e-16 -1 0 1 -2.4492127076447501e-16 0 0 0 1 
1 30 0 0 1 0 -0 0 0 1 0 -1 0 
1 50.100002288818402 24 7.8999996185302903 0 1 0 0 0 -1 -1 0 0 
1 50.100002288818402 21.5 7.8999996185302797 0 3.0615158845559402e-16 1 0 1 -3.0615158845559402e-16 -1 0 0 
1 50.126788552184898 22.100000023841901 7.8999996185302797 0.16439899789880999 0.98639392206656795 -3.0198606608362299e-16 0.98639392206656795 -0.16439899789880999 5.0331014347228502e-17 6.1629758220391499e-33 -3.0615158845559402e-16 -1 
1 50.100002288818402 24.5 10.499999523162799 0 0.60843152578210702 -0.79360637499610398 0 -0.79360637499610498 -0.60843152578210702 -1 0 0 
1 50.100002288818402 26.5 10.499999523162799 0 -1.8369095307335701e-16 -1 0 -1 1.8369095307335701e-16 -1 0 0 
1 50.100002288818402 21.5 8.1999996304512095 0 1 -2.4980018054066002e-16 0 -2.4980018054066002e-16 -1 -1 0 0 
Triangulations 16
4 2 1 0.262500016000002
50.1000022888184 26.5 6 50.1000022888184 26.5 7.4999995231628 50.1000022888184 24 6 50.1000022888184 24 7.4999995231628 6 -26.5 7.4999995231628 -26.5 6 -24 7.4999995231628 -24 3 1 2 2 4 3 
13 12 1 0.853502436984333
50.1000022888184 26.5 6 50.1000022888184 26.5 7.4999995231628 58.4966063950826 26.5 6 50.1576464476087 26.5 8.08527048921119 50.3283636912845 26.5 8.64804982025807 50.6055934519108 26.5 9.16671022222161 50.9786819452588 26.5 9.62131986672244 51.4332915897596 26.5 9.99440836007044 51.9519519917231 26.5 10.2716381206967 52.51473132277 26.5 10.4423553643725 53.1000022888184 26.5 10.4999995231628 58.4966063950826 26.5 10.4999995231628 54.2983043419505 26.5 8.2499997615814 48.4825873129789 6 48.4825873129789 7.4999995231628 56.8791914192431 6 48.5402314717692 8.08527048921119 48.710948715445 8.64804982025807 48.9881784760713 9.16671022222161 49.3612669694193 9.62131986672244 49.8158766139201 9.99440836007044 50.3345370158836 10.2716381206967 50.8973163469305 10.4423553643725 51.4825873129789 10.4999995231628 56.8791914192431 10.4999995231628 52.680889366111 8.2499997615814 4 13 5 13 4 2 5 13 6 7 6 13 2 1 13 9 8 13 13 8 7 3 13 1 12 13 3 9 13 10 10 13 11 13 12 11 
4 2 1 0.882335547475635
58.4966063950826 24 6 58.4966063950826 26.5 6 50.1000022888184 24 6 50.1000022888184 26.5 6 30 9 30 11.5 21.6033958937358 8.99999999999998 21.6033958937358 11.5 4 3 1 1 2 4 
4 2 1 0.250000020000002
50.1000022888184 26.5 6 50.1000022888184 26.5 7.4999995231628 50.1000022888184 24 6 50.1000022888184 24 7.4999995231628 6 -26.5 7.4999995231628 -26.5 6 -24 7.4999995231628 -24 3 1 2 2 4 3 
8 7 1 0.845831659460824
50.1267885521849 24 7.89999961853027 58.4966063950826 24 7.89999961853027 58.4966063950826 24 6 50.1000022888184 24 7.4999995231628 50.1029824863642 24 7.63368685875377 50.11191715795 24 7.7671085845651 50.1000022888184 24 6 54.2983043419505 24 6.94999980926513 2.04281036531029e-14 -0.0267862633664961 2.04281036531029e-14 -8.39660410626418 1.89999961853029 -8.39660410626418 0.400000095367477 0 0.266312759776519 -0.00298019754580281 0.132891033965183 -0.0119148691316084 1.89999961853029 0 0.949999809265155 -4.19830205313209 8 6 1 8 5 6 1 2 8 8 3 7 3 8 2 7 4 8 8 4 5 
34 32 1 0.423340062570239
50.1267885521849 24 7.89999961853027 50.1267885521849 22.1000000238419 7.89999961853028 50.1267885521849 23.5250000059604 7.89999961853028 50.1267885521849 23.0500000119209 7.89999961853028 50.1267885521849 22.5750000178814 7.89999961853028 50.3229665869617 22.067303682547 8.63493243334451 50.190851256933 22.0893229056767 8.23269337033252 50.2498042327705 22.0794974090531 8.43614643540516 50.1000022888184 24 7.4999995231628 50.1029824863642 24 7.63368685875377 50.11191715795 24 7.7671085845651 53.1000022888184 24.5 10.4999995231628 50.6459257926175 22.8376684490431 9.22554539354539 51.0924412930407 23.4947157845274 9.72928166058556 51.5294320105061 23.9209136797992 10.0560333650519 51.9339481757414 24.1923206125096 10.2641120037569 52.3212142557805 24.3658503133803 10.3971514348852 52.6823709432077 24.4618979862548 10.4707879806541 52.8906764333607 24.4904628743108 10.4926877271421 50.1000022888184 26.5 7.4999995231628 50.1000022888184 25.875 7.4999995231628 50.1000022888184 25.25 7.4999995231628 50.1000022888184 24.625 7.4999995231628 53.1000022888184 26.5 10.4999995231628 53.1000022888184 26 10.4999995231628 53.1000022888184 25.5 10.4999995231628 53.1000022888184 25 10.4999995231628 50.1576464476087 26.5 8.08527048921119 50.3283636912845 26.5 8.64804982025807 50.6055934519108 26.5 9.16671022222161 50.9786819452588 26.5 9.62131986672244 51.4332915897596 26.5 9.99440836007044 51.9519519917231 26.5 10.2716381206967 52.51473132277 26.5 10.4423553643725 0.133731621485495 2.50000000000002 0.133731621485495 4.39999997615816 0.133731621485495 2.97499999403956 0.133731621485495 3.44999998807909 0.133731621485495 3.92499998211863 0.387970974850429 4.432696317453 0.246726889750962 4.41067709433597 0.317348931878404 4.4205025908901 0 2.50000000000002 0.04457720716183 2.50000000000002 0.08915441432366 2.50000000000002 1.57079632679489 2.00000000000002 0.61282656515744 3.66233155017973 0.837682155219652 3.00528421383191 1.01981518313893 2.5790863226811 1.17159270643346 2.30767938813334 1.3081924774732 2.13414968557098 1.43113227154493 2.03810201467385 1.50096429911402 2.00953712679658 0 3.07020744739185e-14 0 0.625000000000028 0 1.25000000000003 0 1.87500000000002 1.5707963267949 3.19744231092045e-14 1.5707963267949 0.500000000000029 1.5707963267949 1.00000000000003 1.5707963267949 1.50000000000002 0.196349540849361 3.5527136788005e-14 0.392699081698722 3.5527136788005e-14 0.589048622548084 3.5527136788005e-14 0.785398163397445 3.5527136788005e-14 0.981747704246807 3.5527136788005e-14 1.17809724509617 3.5527136788005e-14 1.37444678594553 3.5527136788005e-14 21 20 10 23 22 10 21 10 22 11 20 28 9 23 10 28 29 8 11 10 20 1 11 28 3 28 4 28 3 1 5 28 2 5 4 28 28 7 2 8 7 28 29 6 8 29 30 6 13 30 31 15 32 33 14 31 32 19 34 24 19 24 25 33 34 17 26 19 25 15 33 16 14 13 31 15 14 32 27 12 19 17 34 18 18 34 19 17 16 33 26 27 19 30 13 6 
13 12 1 0.872298821996111
50.1000022888184 26.5 6 50.1000022888184 26.5 7.4999995231628 59.0000011920929 26.5 6 50.1576464476087 26.5 8.08527048921119 50.3283636912845 26.5 8.64804982025807 50.6055934519108 26.5 9.16671022222161 50.9786819452588 26.5 9.62131986672244 51.4332915897596 26.5 9.99440836007044 51.9519519917231 26.5 10.2716381206967 52.51473132277 26.5 10.4423553643725 53.1000022888184 26.5 10.4999995231628 59.0000011920929 26.5 10.4999995231628 54.5500017404556 26.5 8.2499997615814 48.4825873129789 6 48.4825873129789 7.4999995231628 57.3825862162534 6 48.5402314717692 8.08527048921119 48.710948715445 8.64804982025807 48.9881784760713 9.16671022222161 49.3612669694193 9.62131986672244 49.8158766139201 9.99440836007044 50.3345370158836 10.2716381206967 50.8973163469305 10.4423553643725 51.4825873129789 10.4999995231628 57.3825862162534 10.4999995231628 52.9325867646162 8.2499997615814 4 13 5 13 4 2 5 13 6 7 6 13 2 1 13 9 8 13 13 8 7 3 13 1 12 13 3 9 13 10 10 13 11 13 12 11 
8 7 1 0.44571431496691
58.4966063950826 24 6 58.4966063950826 26.5 6 58.4966063950826 24 7.89999961853027 58.4966063950826 26.5 10.4999995231628 58.4966063950826 21.5 7.89999961853028 58.4966063950826 24.5 10.4999995231628 58.4966063950826 21.5 8.1999996304512 58.4966063950826 24 8.2499997615814 0 -9 0 -11.5 1.89999961853027 -8.99999999999998 4.4999995231628 -11.5 1.89999961853028 -6.49999999999998 4.4999995231628 -9.49999999999998 2.1999996304512 -6.49999999999998 2.2499997615814 -8.99999999999998 1 2 3 5 3 7 2 8 3 4 6 8 7 8 6 8 7 3 4 8 2 
7 5 1 0.539660430626418
53.1000022888184 26.5 10.4999995231628 58.4966063950826 26.5 10.4999995231628 58.4966063950826 24.5 10.4999995231628 53.1000022888184 26 10.4999995231628 53.1000022888184 25.5 10.4999995231628 53.1000022888184 25 10.4999995231628 53.1000022888184 24.5 10.4999995231628 0 -3 1.4210854715202e-14 -8.39660410626418 2 -8.39660410626418 0.500000000000008 -3 1 -3 1.5 -3 2 -3 1 2 4 4 2 5 5 3 6 3 5 2 7 6 3 
9 8 1 0.870815066668203
53.7267884568175 21.5 7.89999961853028 58.4966063950826 21.5 7.89999961853028 58.4966063950826 24 7.89999961853027 50.1267885521849 22.1000000238419 7.89999961853028 50.1267885521849 24 7.89999961853027 50.1267885521849 23.5250000059604 7.89999961853028 50.1267885521849 23.0500000119209 7.89999961853028 50.1267885521849 22.5750000178814 7.89999961853028 54.3116974736337 22.75 7.89999961853028 0 -3.6267861679991 0 -8.39660410626418 2.5 -8.39660410626418 0.600000023841901 -0.0267862633664961 2.5 -0.0267862633664961 2.02500000596047 -0.0267862633665246 1.55000001192093 -0.0267862633665246 1.0750000178814 -0.0267862633665246 1.25 -4.21169518481534 8 1 7 8 4 1 1 2 9 9 3 5 3 9 2 6 7 9 5 6 9 9 7 1 
7 6 1 0.362418561464276
50.1267885521849 22.1000000238419 7.89999961853028 53.7267884568175 21.5 7.89999961853028 50.190851256933 22.0893229056767 8.23269337033252 50.2498042327705 22.0794974090531 8.43614643540516 50.3229665869617 22.067303682547 8.63493243334451 53.7267884568175 21.5 8.1999996304512 51.9267885045012 21.800000011921 8.2674660259374 0 0 3.6496574280287 8.88178419700125e-16 0.0649463701215112 -0.332693751802239 0.124712528974122 -0.536146816874879 0.198884066890681 -0.73493281481423 3.6496574280287 -0.300000011920921 1.82482871401435 -0.367466407407115 7 1 3 7 3 4 5 7 4 7 5 6 6 2 7 7 2 1 
8 7 1 0.803373314717087
50.1267885521849 24 7.89999961853027 59.3000011444092 24 7.89999961853027 50.1000022888184 24 7.4999995231628 50.1029824863642 24 7.63368685875377 50.11191715795 24 7.7671085845651 59.3000011444092 24 3.94081716724796 50.1000022888184 24 3.94081716724797 54.7000017166138 24 5.92040839288912 2.04281036531029e-14 -0.0267862633664961 2.04281036531029e-14 -9.1999988555908 0.400000095367477 0 0.266312759776519 -0.00298019754580281 0.132891033965183 -0.0119148691316084 3.95918245128228 -9.19999885559078 3.95918245128232 0 1.97959122564117 -4.5999994277954 8 5 1 8 4 5 1 2 8 8 6 7 6 8 2 7 3 8 8 3 4 
8 7 1 0.893040912664249
59.3000011444092 24 6 59.3000011444092 24 7.89999961853027 50.1000022888184 24 6 50.1267885521849 24 7.89999961853027 50.1000022888184 24 7.4999995231628 50.1029824863642 24 7.63368685875377 50.11191715795 24 7.7671085845651 54.7000017166138 24 6.94999980926514 1.89999961853029 -9.19999885559078 0 -9.19999885559078 1.89999961853029 0 2.04281036531029e-14 -0.0267862633664961 0.40000009536749 0 0.266312759776519 -0.00298019754580459 0.132891033965183 -0.0119148691316067 0.949999809265146 -4.59999942779539 8 7 4 8 6 7 4 2 8 8 1 3 1 8 2 3 5 8 8 5 6 
13 12 1 0.840244609036933
53.1000022888184 24.5 10.4999995231628 58.4966063950826 24.5 10.4999995231628 58.4966063950826 21.5 8.1999996304512 50.3229665869617 22.067303682547 8.63493243334451 50.6459257926175 22.8376684490431 9.22554539354539 51.0924412930407 23.4947157845274 9.72928166058556 51.5294320105061 23.9209136797992 10.0560333650519 51.9339481757414 24.1923206125096 10.2641120037569 52.3212142557805 24.3658503133803 10.3971514348852 52.6823709432077 24.4618979862548 10.4707879806541 52.8906764333607 24.4904628743108 10.4926877271421 53.7267884568175 21.5 8.1999996304512 54.4097864907995 23 9.34999957680698 0 -3 0 -8.39660410626418 3.78021156900952 -8.39660410626418 3.06536892300321 -0.22296429769804 2.09465498681904 -0.54592350379912 1.26672900715742 -0.992439004222334 0.729689602359518 -1.42942972168774 0.387697726712379 -1.83394588692302 0.169038065779663 -2.22121196696206 0.0480112243874409 -2.58236865438934 0.0120174509552058 -2.79067414454235 3.78021156900951 -3.6267861679991 1.89010578450476 -4.30978420198111 11 13 10 13 11 1 10 13 9 8 9 13 1 2 13 13 3 12 3 13 2 13 12 6 7 13 6 6 12 5 12 4 5 13 7 8 
4 2 1 0.476879224555358
53.7267884568175 21.5 8.1999996304512 58.4966063950826 21.5 8.1999996304512 58.4966063950826 21.5 7.89999961853028 53.7267884568175 21.5 7.89999961853028 8.88178419700125e-15 -3.6267861679991 8.88178419700125e-15 -8.39660410626418 0.30000001192093 -8.39660410626418 0.30000001192093 -3.6267861679991 1 2 3 3 4 1 
4 2 1 0.447990987761473
53.7267884568175 21.5 8.1999996304512 59.3000011444092 21.5 8.19999963045117 53.7267884568175 21.5 7.89999961853028 59.3000011444092 21.5 7.89999961853028 8.88178419700125e-15 -3.6267861679991 3.90798504668055e-14 -9.1999988555908 0.30000001192093 -3.6267861679991 0.300000011920899 -9.19999885559078 1 2 4 4 3 1 

TShapes 70
Ve
1e-07
50.1000022888184 26.5 6
0 0

0101100
*
Ve
1e-07
50.1000022888184 26.5 7.4999995231628
0 0

0101100
*
Ed
 1e-07 1 1 0
1  1 0 8.83040965274193 10.3304091759047
6  1 1 2
6  2 2 2
0

0101000
+70 2 -69 2 *
Ve
1e-07
50.1000022888184 24 6
0 0

0101100
*
Ed
 1e-08 1 1 0
1  2 0 -19 -16.5
2  1 1 1 -19 -16.5
2  2 2 3 -19 -16.5
6  3 1 0
6  4 3 0
0

0101000
+70 0 -67 0 *
Ve
1.00010000888178e-07
50.1000022888184 24 7.4999995231628
0 0

0101100
*
Ed
 1e-07 1 1 0
1  3 0 3.07020744739185e-14 2.50000000000002
2  3 3 0 3.07020744739185e-14 2.50000000000002
2  4 1 1 3.07020744739185e-14 2.50000000000002
4 G1 3 0 1 1
6  5 4 0
6  6 1 0
0

0101000
+69 0 -65 0 *
Ed
 1e-07 1 1 0
1  4 0 3.5093629959028 5.0093625190656
6  7 1 2
6  8 5 2
0

0101000
-67 2 +65 2 *
Wi

0101100
+68 1 -66 0 +64 0 +63 1 *
Fa
0  1e-07 1 1
2  1
0101000
+62 0 *
Ve
1e-07
58.4966063950826 26.5 6
0 0

0101100
*
Ed
 1e-08 1 1 0
1  5 0 -43.4395957096215 -35.0429916033574
2  5 4 0 -43.4395957096215 -35.0429916033574
2  6 2 3 -43.4395957096215 -35.0429916033574
6  9 2 0
6  10 3 0
0

0101000
+60 0 -70 0 *
Ve
1e-07
53.1000022888184 26.5 10.4999995231628
0 0

0101100
*
Ed
 1e-07 1 1 0
1  6 0 1.5707963267949 3.14159265358979
2  7 3 0 1.5707963267949 3.14159265358979
2  8 4 0 1.5707963267949 3.14159265358979
6  11 6 0
6  12 7 0
6  13 2 0
0

0101000
+69 0 -58 0 *
Ve
1e-07
58.4966063950826 26.5 10.4999995231628
0 0

0101100
*
Ed
 1e-08 1 1 0
1  7 0 3 7.4999995231628
2  9 4 0 3 7.4999995231628
2  10 5 3 3 7.4999995231628
6  14 8 0
0

0101000
+60 0 -56 0 *
Ed
 1e-07 1 1 0
1  8 0 3 8.39660410626418
6  15 9 0
0

0101000
-56 0 +58 0 *
Wi

0101100
-68 1 -59 0 -57 0 +55 0 -54 0 *
Fa
0  1e-07 4 0
2  2
0101000
+53 0 *
Ve
1e-07
58.4966063950826 24 6
0 0

0101100
*
Ed
 1e-07 1 1 0
1  9 0 9 11.5
2  11 5 0 9 11.5
2  12 2 0 9 11.5
6  16 8 4
0

0101000
+51 4 -60 4 *
Ed
 1e-08 1 1 0
1  10 0 10.8016979468679 19.1983020531321
2  13 6 0 10.8016979468679 19.1983020531321
2  14 2 3 10.8016979468679 19.1983020531321
6  17 3 0
6  18 5 0
0

0101000
+67 0 -51 0 *
Wi

0101100
+50 3 +49 0 +59 0 +66 0 *
Fa
0  1e-07 2 3
2  3
0101000
+48 0 *
Ve
1e-07
50.1267885521849 22.1000000238419 7.89999961853028
0 0

0101100
*
Ve
2.00000108489447e-07
50.1267885521849 24 7.89999961853027
0 0

0101100
*
Ed
 1e-07 1 1 0
1  11 0 2.50000000000002 4.39999997615816
2  15 3 0 2.50000000000002 4.39999997615816
2  16 7 0 2.50000000000002 4.39999997615816
6  19 6 0
6  20 10 0
0

0101000
-46 0 +45 0 *
Ve
6.00512625551576e-07
50.3229665869617 22.067303682547 8.63493243334451
0 0

0101100
*
Ed
 1e-08 1 1 0
1  12 0 3.27532427507529 3.52956362844022
2  17 3 0 3.27532427507529 3.52956362844022
2  18 8 0 3.27532427507529 3.52956362844022
6  21 6 0
6  22 11 0
0

0101000
+46 0 -43 0 *
Ed
 1e-07 1 1 0
1  13 0 1.5707963267949 1.70452794828039
2  19 3 0 1.5707963267949 1.70452794828039
2  20 6 0 1.5707963267949 1.70452794828039
6  23 12 0
6  24 6 0
6  25 13 0
6  26 5 0
0

0101000
+65 0 -45 0 *
Ve
1.00010007105427e-07
53.1000022888184 24.5 10.4999995231628
0 0

0101100
*
Ed
 1e-07 1 1 0
1  14 0 1.95876730125296 3.14159265358979
2  21 3 0 1.95876730125296 3.14159265358979
2  22 9 0 1.95876730125296 3.14159265358979
6  27 6 0
6  28 14 0
0

0101000
+43 0 -40 0 *
Ed
 1e-07 1 1 0
1  15 0 3.19744231092045e-14 2.00000000000002
2  23 3 0 3.19744231092045e-14 2.00000000000002
2  24 10 0 3.19744231092045e-14 2.00000000000002
4 G1 3 0 10 0
6  29 6 0
6  30 9 0
0

0101000
+58 0 -40 0 *
Wi

0101100
-44 0 -42 0 -41 0 -39 0 -64 0 +38 0 +57 0 *
Fa
0  0 3 0
2  6
0111000
+37 0 *
Ve
1e-07
58.4966063950826 24 7.89999961853027
0 0

0101100
*
Ed
 1e-07 1 1 0
1  16 0 0.0267862633664776 8.39660410626418
6  31 5 0
6  32 10 0
0

0101000
-35 0 +45 0 *
Ed
 1e-08 1 1 0
1  17 0 -0.949999809265124 0.949999809265146
2  25 6 0 -0.949999809265124 0.949999809265146
2  26 5 3 -0.949999809265124 0.949999809265146
6  33 8 0
0

0101000
+35 0 -51 0 *
Wi

0101100
+34 0 +33 0 +41 0 -49 0 -63 1 *
Fa
0  1e-07 6 0
2  5
0101000
+32 0 *
Ve
1e-07
58.4966063950826 21.5 7.89999961853028
0 0

0101100
*
Ed
 1e-08 1 1 0
1  18 0 3.24999999999999 5.74999999999999
2  27 7 0 3.24999999999999 5.74999999999999
2  28 5 3 3.24999999999999 5.74999999999999
6  34 8 0
6  35 10 0
0

0101000
+30 0 -35 0 *
Ve
1e-07
58.4966063950826 24.5 10.4999995231628
0 0

0101100
*
Ed
 1e-08 1 1 0
1  19 0 -5.74999999999999 -3.74999999999999
2  29 10 0 -5.74999999999999 -3.74999999999999
2  30 5 3 -5.74999999999999 -3.74999999999999
6  36 8 0
6  37 9 0
0

0101000
+56 0 -28 0 *
Ve
1e-07
58.4966063950826 21.5 8.1999996304512
0 0

0101100
*
Ed
 1e-08 1 1 0
1  20 0 -1.0999998152256 -0.799999803304676
2  31 11 0 -1.0999998152256 -0.799999803304676
2  32 5 3 -1.0999998152256 -0.799999803304676
6  38 8 0
6  39 15 0
0

0101000
+26 0 -30 0 *
Ed
 1e-08 1 1 0
1  21 0 -5.13860106917984 -1.35838950017032
2  33 9 0 -5.13860106917984 -1.35838950017032
2  34 5 3 -5.13860106917984 -1.35838950017032
6  40 8 0
6  41 14 0
0

0101000
+28 0 -26 0 *
Wi

0101100
+50 3 +33 0 +55 0 +29 0 +27 0 +25 0 +24 0 *
Fa
0  1e-07 5 3
2  8
0101000
+23 0 *
Ed
 1e-07 1 1 0
1  22 0 3 8.39660410626418
6  42 9 0
6  43 14 0
0

0101000
-28 0 +40 0 *
Wi

0101100
+54 0 +27 0 -38 0 -21 0 *
Fa
0  1e-07 10 0
2  9
0101000
+20 0 *
Ve
1e-07
53.7267884568175 21.5 7.89999961853028
0 0

0101100
*
Ed
 1e-07 1 1 0
1  23 0 3.62678616799906 8.39660410626418
6  44 15 0
0

0101000
-30 0 +18 0 *
Ed
 1e-07 1 1 0
1  24 0 0.563198111293128 4.21285553932178
6  45 11 0
6  46 10 0
0

0101000
+46 0 -18 0 *
Wi

0101100
+17 0 +29 0 +16 0 -34 0 +44 0 *
Fa
0  1e-07 7 0
2  10
0101000
+15 0 *
Ve
1.0702243440272e-06
53.7267884568175 21.5 8.1999996304512
0 0

0101100
*
Ed
 1e-07 1 1 0
1  25 0 0 0.300000011920921
6  47 16 0
6  48 11 0
6  49 15 0
0

0101000
-13 0 +18 0 *
Ed
 1e-08 1 1 0
1  26 0 0.476821944187487 3.95489660307192
2  35 9 0 0.476821944187487 3.95489660307192
2  36 8 0 0.476821944187487 3.95489660307192
6  50 11 0
6  51 14 0
0

0101000
+43 0 -13 0 *
Wi

0101100
-16 0 +42 0 -12 0 +11 0 *
Fa
0  1e-07 8 0
2  11
0111000
+10 0 *
Ed
 1e-07 1 1 0
1  27 0 3.62678616799908 8.39660410626418
6  52 15 0
0

0101000
-26 0 +13 0 *
Wi

0101100
+21 0 +24 0 +39 0 -8 0 -11 0 *
Fa
0  1e-07 9 0
2  14
0101000
+7 0 *
Wi

0101100
+8 0 +25 0 +12 0 -17 0 *
Fa
0  1e-07 11 0
2  15
0101000
+5 0 *
Sh

0101100
-61 0 -52 0 -47 0 -36 0 -31 0 +22 0 -19 0 -14 0 -9 0 -6 0 
-4 0 *
So

0100000
+3 0 *
Co

1100000
+2 0 *

+1 0 