DBRep_DrawableShape

CASCADE Topology V1, (c) Matra-Datavision
Locations 0
Curve2ds 56
6 0 1 0 0  0 1  
6 0 1 0 0  1 0  
6 0 1 0 1  1 1  
6 0 1 1 0  1 1  
6 0 1 0 1  1 1  
6 0 1 0 0  1 0  
6 0 1 0 0  0 1  
6 0 1 0 0  1 0  
6 0 1 0 1  1 1  
6 0 1 1 0  1 1  
6 0 1 0 0  0 1  
6 0 1 1 0  1 1  
6 0 1 0 1  1 1  
6 0 1 0 0  0 1  
6 0 1 0 0  1 0  
6 0 1 1 0  1 1  
6 0 1 0 0  0 1  
6 0 1 0 0  1 0  
6 0 1 0 1  1 1  
6 0 1 1 0  1 1  
6 0 1 0 1  1 1  
6 0 1 0 0  1 0  
6 0 1 0 0  0 1  
6 0 1 0 0  1 0  
6 0 1 1 0  1 1  
6 0 1 0 0  0 1  
6 0 1 1 0  1 1  
6 0 1 0 1  1 1  
6 0 1 0 0  1 0  
6 0 1 0 0  0 1  
6 0 1 1 0  1 1  
6 0 1 0 1  1 1  
6 0 1 0 0  0 1  
6 0 1 0 0  1 0  
6 0 1 1 0  1 1  
6 0 1 0 0  0 1  
6 0 1 0 1  1 1  
6 0 1 0 0  1 0  
6 0 1 0 0  1 0  
6 0 1 1 0  1 1  
6 0 1 0 1  1 1  
6 0 1 0 0  1 0  
6 0 1 0 0  0 1  
6 0 1 1 0  1 1  
6 0 1 0 0  0 1  
6 0 1 0 1  1 1  
6 0 1 0 0  1 0  
6 0 1 1 0  1 1  
6 0 1 0 1  1 1  
6 0 1 0 0  1 0  
6 0 1 0 0  0 1  
6 0 1 1 0  1 1  
6 0 1 0 0  0 1  
6 0 1 0 1  1 1  
6 0 1 1 0  1 1  
6 0 1 0 1  1 1  
Curves 43
6 0 7 -22.513829999999999 -1.6583700000000001 -3.3167200000000001  -22.455319999999997 -1.23397 -2.4679200000000003  -22.402219999999989 -0.65295000000000036 -1.6974399999999998  -22.356879999999983 0.067359999999999642 -1.0399400000000005  -22.321429999999957 0.90000999999999987 -0.52533000000000196  -22.297269999999919 1.8102200000000015 -0.17511000000000465  -22.285209999999832 2.7592000000000074 -1.0880185641326534e-14  -22.28520999999953 3.7081900000000232 -2.4563684419831588e-14  
6 0 1 -22.513830000000013 -1.6583699999999943 -3.3167200000000037  -17.280230000000014 -24.224189999999957 73.980420000000038  
6 0 7 -17.28023 -24.22419 73.980419999999995  -17.221719999999998 -22.841600000000003 75.787379999999999  -17.168619999999994 -21.329010000000004 77.489489999999989  -17.123279999999983 -19.704530000000009 79.051069999999996  -17.087839999999964 -17.994440000000026 80.443230000000014  -17.063669999999941 -16.23453000000006 81.643060000000077  -17.051609999999918 -14.462330000000136 82.641430000000256  -17.051609999999794 -12.716890000000372 83.43787000000097  
6 0 1 -22.285209999999765 3.7081900000000134 -2.1316282072803006e-14  -17.051609999999897 -12.716890000000188 83.437870000000487  
6 0 5 -23.138369999999998 -6.1889400000000006 -12.37786  -23.013469999999998 -5.2828300000000006 -10.565629999999999  -22.888549999999999 -4.3767100000000001 -8.7534100000000006  -22.763650000000002 -3.4705999999999997 -6.9411800000000028  -22.63873000000001 -2.5644899999999957 -5.1289500000000077  -22.513830000000031 -1.6583699999999881 -3.316720000000009  
6 0 1 -23.13837000000045 -6.1889400000000094 -12.377859999999135  -17.904780000000478 -40.197639999997861 53.476390000000876  
6 0 5 -17.904779999999999 -40.197639999999993 53.476390000000009  -17.779869999999999 -36.782270000000004 57.797869999999996  -17.654949999999999 -33.462270000000004 62.02402  -17.530060000000002 -30.256789999999999 66.135550000000023  -17.405140000000006 -27.176119999999976 70.122390000000067  -17.280230000000017 -24.224189999999918 73.980420000000066  
6 0 5 -22.285209999999999 3.7081900000000019 0  -22.285209999999999 12.06344954186469 0  -22.285209999999999 20.418709083729375 0  -22.285209999999999 28.773968625594065 0  -22.285209999999996 37.129235805694435 0  -22.285209999999974 45.484497337666951 0  
6 0 5 -17.05161 -12.716889999999999 83.43786999999999  -17.05161 2.6590364649757152 90.457751637663094  -17.05161 15.783021900391235 95.228139361776826  -17.05161 26.969987271130471 98.057630226193012  -17.051609999999993 36.769454312647397 99.503361835443258  -17.051609999999965 45.431877524081266 99.810452428815353  
6 0 1 -22.285209999999971 45.484497337666951 0  -17.051609999999961 45.431877524081266 99.810452428815353  
6 0 7 -41.763444214721197 -40.297227839145307 -80.594486845323829  -37.210730259662135 -35.751295941873089 -71.50262273401384  -33.257221747888671 -31.055350063841018 -62.110702840918215  -29.926583245057852 -26.233087025227036 -52.466225686583009  -27.237987873050127 -21.309329220936835 -42.618609482509918  -25.205325411902869 -16.309874180572784 -32.619783747167432  -23.837597678359138 -11.260922767371738 -22.521825534742831  -23.138370000000908 -6.1889400000000103 -12.377859999998282  
6 0 1 -41.763444214721197 -40.297227839145307 -80.594486845323829  -36.529076884624551 -139.86073097612092 -80.294759728354322  
6 0 7 -36.529076884624551 -139.86073097612092 -80.294759728354322  -31.97558204599861 -134.33326799956677 -70.220892748181228  -28.032670507501344 -126.77410425797365 -57.968274166920452  -24.670289949577434 -115.57668510699152 -41.939264715850626  -22.029421478664862 -103.34429247586789 -24.798333865024745  -19.956184966921427 -81.32818954324722 2.2304407288122547  -18.608292762170638 -59.261593564822242 29.339694650717185  -17.904780000000958 -40.197639999995708 53.476390000001714  
6 0 5 17.904779999999999 -40.197639999999993 53.476390000000002  17.779869999999999 -36.782269999999997 57.797869999999996  17.654949999999999 -33.462269999999997 62.024019999999993  17.530059999999988 -30.256789999999995 66.135549999999981  17.405139999999978 -27.176119999999997 70.122389999999982  17.280229999999968 -24.224190000000068 73.980419999999953  
6 0 1 17.904779999999413 -40.197640000000213 53.476390000000094  23.138369999999384 -6.1889400000023684 -12.377859999999913  
6 0 5 23.138369999999998 -6.1889400000000023 -12.377860000000005  23.013469999999998 -5.2828299999999953 -10.565629999999995  22.888549999999999 -4.3767099999999965 -8.7534100000000041  22.763649999999988 -3.470600000000001 -6.9411800000000383  22.638729999999978 -2.5644900000000228 -5.1289500000000956  22.513829999999981 -1.6583700000001429 -3.3167200000001245  
6 0 1 17.280229999999982 -24.224190000000036 73.980419999999981  22.513829999999995 -1.6583700000000725 -3.3167200000000605  
6 0 7 36.529076884624786 -139.8607309761212 -80.294759728354805  31.975582045998785 -134.33326799956711 -70.220892748181726  28.032670507501464 -126.7741042579741 -57.968274166921013  24.670289949577498 -115.57668510699199 -41.939264715851131  22.029421478664851 -103.34429247586861 -24.798333865025391  19.956184966921235 -81.328189543248158 2.2304407288116685  18.60829276216991 -59.261593564824146 29.339694650716392  17.90477999999883 -40.197640000000405 53.476390000000151  
6 0 1 36.529076884624786 -139.8607309761212 -80.294759728354805  41.763444214721432 -40.297227839145549 -80.594486845324269  
6 0 7 41.763444214721432 -40.297227839145549 -80.594486845324269  37.210730259662306 -35.751295941873316 -71.502622734014224  33.257221747888785 -31.055350063841257 -62.110702840918556  29.926583245057913 -26.233087025227309 -52.466225686583307  27.237987873050113 -21.309329220937212 -42.618609482510195  25.20532541190267 -16.309874180573484 -32.619783747167773  23.837597678358403 -11.260922767373543 -22.52182553474352  23.138369999998773 -6.1889400000047106 -12.37785999999981  
6 0 7 17.28023 -24.22419 73.980419999999995  17.221719999999998 -22.8416 75.787379999999999  17.168619999999997 -21.329010000000004 77.489489999999989  17.123280000000005 -19.704530000000013 79.051069999999996  17.087840000000028 -17.994440000000022 80.443229999999971  17.063670000000105 -16.234530000000028 81.643059999999721  17.051610000000355 -14.462330000000012 82.641429999999062  17.051610000000966 -12.716889999999866 83.437869999997943  
6 0 7 22.513829999999999 -1.6583700000000015 -3.3167200000000037  22.45532 -1.2339699999999978 -2.4679200000000048  22.402219999999996 -0.65294999999999992 -1.6974399999999952  22.356880000000007 0.067359999999996312 -1.0399399999999992  22.321430000000024 0.90001000000000619 -0.52533000000004815  22.297270000000086 1.8102200000000357 -0.17511000000035781  22.285210000000269 2.7592000000001344 -1.2061462939527701e-12  22.285210000000699 3.7081900000005312 -3.0414004648093851e-12  
6 0 1 17.051610000000476 -12.716889999999932 83.437869999998981  22.285210000000347 3.7081900000002683 -1.5347723092418164e-12  
6 0 5 17.05161 -12.716889999999999 83.43786999999999  17.05161 2.6590365138967211 90.457751659997982  17.05161 15.783021983903415 95.228139392132348  17.05161 26.969987377909909 98.057630253200458  17.05161 36.769454437361766 99.503361853842577  17.051610000000004 45.431877661885757 99.810452433700647  
6 0 5 22.285209999999999 3.7081900000000019 0  22.285209999999999 12.063449568448304 0  22.285209999999999 20.418709136896606 0  22.285209999999999 28.77396870534491 0  22.285210000000003 37.129235912028982 0  22.28521000000001 45.484497470585026 0  
6 0 1 17.051610000000004 45.431877661885757 99.810452433700647  22.285210000000014 45.484497470585019 0  
6 0 7 -63.28443 -42.201230000000002 -80.625869999999992  -63.27897999999999 -41.909190000000002 -67.601150000000004  -63.023379999999989 -40.788000000000004 -54.768509999999992  -62.288349999999951 -38.905879999999989 -42.391929999999959  -61.343199999999847 -36.275909999999982 -30.267819999999894  -59.437139999999552 -33.062349999999974 -19.078009999999825  -57.03597999999883 -29.151959999999878 -8.5138099999997259  -54.731179999997565 -25.231959999999482 2.1024500000006849  
6 0 7 -63.28443 -42.201230000000002 -80.625869999999992  -54.336609999999993 -43.15005 -80.604539999999986  -45.353049999999996 -43.94451999999999 -80.586649999999977  -36.336539999999985 -44.582799999999992 -80.572299999999956  -27.289999999999957 -45.06360999999999 -80.561489999999864  -18.216379999999837 -45.385510000000039 -80.554249999999655  -9.118689999999507 -45.547120000000092 -80.550619999999071  1.1368683772161603e-12 -45.547119999999921 -80.550619999997636  
6 0 7 1.1226575225009583e-12 -45.547119999999929 -80.550619999997636  1.309428755900756e-12 -45.25017000000117 -67.343419999999924  -1.3134890001050997e-12 -44.139009999999082 -54.154540000000054  -6.130968748558663e-14 -42.214970000000072 -41.044179999999045  3.6257980744786531e-13 -39.485040000001163 -28.072489999999917  6.3813504744930004e-13 -35.961609999999567 -15.298729999999678  2.2270439460823478e-12 -31.662619999999784 -2.7807399999996409  2.2026824808562577e-12 -26.611149999999583 9.4258500000006595  
6 0 7 -54.731179999999995 -25.231960000000001 2.1024500000000002  -47.365330000000007 -25.623070000000002 4.1033200000000001  -39.807690000000015 -25.950550000000003 5.8194300000000005  -32.07980000000002 -26.213650000000001 7.2291000000000025  -24.206190000000042 -26.411840000000002 8.3121400000000065  -16.214280000000123 -26.544530000000019 9.0499200000000055  -8.1344600000004608 -26.611150000000048 9.4258499999999952  -1.5969447986208252e-12 -26.611150000000091 9.425849999999965  
6 0 7 0 -45.547119999999993 -80.550619999999995  9.1186900000000009 -45.547119999999993 -80.550619999999995  18.216379999999994 -45.385509999999996 -80.554249999999996  27.289999999999988 -45.063609999999997 -80.561490000000049  36.336539999999985 -44.582800000000006 -80.572300000000155  45.353050000000003 -43.94451999999999 -80.586650000000333  54.336610000000022 -43.150049999999958 -80.604540000000782  63.284430000000008 -42.201229999999818 -80.625870000001825  
6 0 7 63.284430000000015 -42.201229999999818 -80.625870000001825  63.278980000000182 -41.909189999998496 -67.60115000000161  63.023380000000742 -40.788000000001155 -54.768509999999189  62.288349999999198 -38.905880000001567 -42.391930000001345  61.34319999999925 -36.275910000000401 -30.267819999999467  59.437139999999815 -33.062349999999377 -19.078010000000031  57.035979999998901 -29.151959999998976 -8.5138099999995163  54.731180000000535 -25.231959999998445 2.102450000001296  
6 0 7 0 -26.611149999998162 9.4258500000011765  8.1344600000000344 -26.611149999998162 9.4258500000011765  16.214280000000066 -26.544529999998165 9.0499200000011744  24.206190000000099 -26.411839999998158 8.3121400000011718  32.079800000000134 -26.213649999998147 7.2291000000011678  39.807690000000186 -25.950549999998145 5.8194300000011694  47.365330000000291 -25.623069999998229 4.1033200000011911  54.731180000000535 -25.231959999998441 2.1024500000012929  
6 0 7 -54.731179999999995 -25.231960000000001 2.1024500000000002  -53.82705 -23.694219999999998 6.2670100000000009  -52.695629999999987 -22.955470000000002 10.734200000000001  -51.815809999999985 -20.736840000000008 14.84742  -51.055529999999976 -17.767580000000017 18.635810000000006  -50.401499999999963 -14.102870000000021 21.897080000000042  -49.81923999999993 -10.106839999999963 25.665990000000178  -49.383789999999991 -5.2467399999996971 26.221710000000581  
6 0 7 -1.5916157281026244e-12 -26.611150000000094 9.4258499999999685  -9.257356785903019e-13 -24.410790000000507 14.742900000000127  2.9775124165185166e-13 -21.19040999999887 19.6379300000002  1.3674902480228675e-12 -17.047710000000265 23.876089999999067  8.2828981768606034e-13 -12.146350000000067 27.250699999999792  -6.2257077799932528e-13 -6.709100000000185 29.608780000000667  -3.7354246679959662e-13 -0.9872399999997894 30.870709999999324  -2.9842794901924854e-13 4.7649400000000792 31.029159999999962  
6 0 7 -49.383789999999991 -5.2467399999997042 26.221710000000581  -43.006960000000042 -2.5202499999997365 27.534720000000565  -36.340790000000098 -0.17686999999976871 28.661110000000555  -29.41854000000016 1.751740000000199 29.586570000000545  -22.278230000000235 3.2359300000001667 30.297720000000545  -14.962590000000286 4.2484100000001357 30.782240000000535  -7.5191300000002768 4.7649400000001059 31.029160000000438  -3.0109248427834245e-13 4.7649400000000792 31.029159999999955  
6 0 7 54.731180000000293 -25.231960000000271 2.1024500000001174  53.827049999999808 -23.694220000000321 6.2670100000000364  52.695630000000577 -22.955469999999732 10.734200000000749  51.81581000000044 -20.736840000000353 14.847420000000113  51.055529999999962 -17.767580000000358 18.635809999999736  50.401500000000127 -14.102869999999896 21.897079999998976  49.819239999999702 -10.106839999999767 25.665989999999699  49.383789999999138 -5.2467399999992299 26.221709999997792  
6 0 7 0 4.7649400000007809 31.029159999999322  7.5191299999998478 4.7649400000007809 31.029159999999322  14.962589999999697 4.2484100000007814 30.782239999999327  22.278229999999549 3.2359300000007813 30.29771999999932  29.418539999999396 1.7517400000007841 29.586569999999281  36.340789999999259 -0.17686999999920872 28.661109999999152  43.006959999999168 -2.5202499999992036 27.534719999998742  49.383789999999138 -5.2467399999992299 26.221709999997799  
6 0 5 -49.383789999999991 -5.2467400000000008 26.221709999999998  -48.677050000000008 2.6411600000000011 27.123619999999995  -48.236470000000004 10.987150000000002 26.571390000000005  -47.967780000000012 19.325800000000001 26.778120000000005  -47.845339999999993 27.770699999999991 27.00048000000001  -47.845469999999871 36.304739999999988 27.235619999999997  
6 0 5 4.2632564145606011e-14 4.7649400000000082 31.029159999999457  -8.4980911196907978e-13 13.298859999999802 31.264219999999266  -4.0074610296869634e-13 21.832779999999985 31.499499999999234  -6.8496319727273622e-13 30.366709999999646 31.734509999999521  -4.5758952182950395e-13 38.900630000000625 31.969729999998631  -1.2079226507921643e-13 47.43456000000014 32.204859999999982  
6 0 7 -47.845469999999871 36.304739999999988 27.235619999999994  -41.753159999999887 39.33583999999999 28.588949999999993  -35.343449999999912 41.940969999999993 29.752079999999985  -28.652959999999933 44.084959999999974 30.709329999999984  -21.723599999999937 45.734859999999955 31.445979999999995  -14.602509999999917 46.860369999999961 31.948500000000045  -7.3421099999999351 47.434560000000069 32.204860000000075  -1.1102230246251565e-13 47.434560000000147 32.204859999999982  
6 0 5 49.383790000000204 -5.2467400000000106 26.221709999998474  48.677049999999646 2.6411600000001929 27.123619999999573  48.236470000000338 10.987149999999815 26.571390000000335  47.967780000000204 19.325799999999312 26.778119999999536  47.845340000000128 27.770700000000026 27.000479999999364  47.845470000000347 36.304739999999192 27.235620000000175  
6 0 7 0 47.434560000000033 32.204859999999897  7.342110000000007 47.434560000000033 32.204859999999897  14.602510000000011 46.860370000000025 31.948499999999903  21.723600000000022 45.734860000000033 31.445979999999896  28.652960000000029 44.084960000000031 30.709329999999898  35.343450000000047 41.940969999999979 29.752079999999921  41.753160000000101 39.335839999999756 28.588950000000022  47.84547000000034 36.304739999999214 27.235620000000182  
Polygon3D 0
PolygonOnTriangulations 0
Surfaces 14
8 0 0 1 7 -22.513829999999999 -1.6583700000000001 -3.3167200000000001  -22.455319999999997 -1.23397 -2.4679200000000003  -22.402219999999989 -0.65295000000000036 -1.6974399999999998  -22.356879999999983 0.067359999999999642 -1.0399400000000005  -22.321429999999957 0.90000999999999987 -0.52533000000000196  -22.297269999999919 1.8102200000000015 -0.17511000000000465  -22.285209999999832 2.7592000000000074 -1.0880185641326534e-14  -22.28520999999953 3.7081900000000232 -2.4563684419831588e-14  
-17.28023 -24.22419 73.980419999999995  -17.221719999999994 -22.8416 75.787379999999999  -17.16861999999999 -21.32901 77.489489999999989  -17.12327999999998 -19.704530000000005 79.051069999999996  -17.087839999999957 -17.994440000000026 80.443230000000014  -17.063669999999934 -16.23453000000006 81.643060000000077  -17.051609999999911 -14.462330000000136 82.641430000000256  -17.051609999999791 -12.716890000000372 83.43787000000097  

8 0 0 1 5 -23.138369999999998 -6.1889400000000006 -12.37786  -23.013469999999998 -5.2828300000000006 -10.565629999999999  -22.888549999999999 -4.3767100000000001 -8.7534100000000006  -22.763650000000002 -3.4705999999999997 -6.9411800000000028  -22.63873000000001 -2.5644899999999957 -5.1289500000000077  -22.513830000000031 -1.6583699999999881 -3.316720000000009  
-17.904779999999999 -40.197639999999993 53.476390000000009  -17.779869999999999 -36.782269999999997 57.797869999999989  -17.654949999999999 -33.462270000000004 62.024019999999993  -17.530060000000002 -30.256789999999999 66.135550000000023  -17.405140000000006 -27.176119999999973 70.122390000000081  -17.280230000000017 -24.224189999999915 73.98042000000008  

8 0 0 1 5 -22.285209999999999 3.7081900000000019 0  -22.285209999999999 12.06344954186469 0  -22.285209999999999 20.418709083729375 0  -22.285209999999999 28.773968625594065 0  -22.285209999999996 37.129235805694435 0  -22.285209999999974 45.484497337666951 0  
-17.05161 -12.716889999999999 83.43786999999999  -17.05161 2.6590364649757152 90.457751637663094  -17.05161 15.783021900391233 95.228139361776826  -17.05161 26.969987271130467 98.057630226193012  -17.051609999999993 36.769454312647397 99.503361835443258  -17.051609999999968 45.431877524081258 99.810452428815353  

8 0 0 1 7 -41.763444214721197 -40.297227839145307 -80.594486845323829  -37.210730259662135 -35.751295941873089 -71.50262273401384  -33.257221747888671 -31.055350063841018 -62.110702840918215  -29.926583245057852 -26.233087025227036 -52.466225686583009  -27.237987873050127 -21.309329220936835 -42.618609482509918  -25.205325411902869 -16.309874180572784 -32.619783747167432  -23.837597678359138 -11.260922767371738 -22.521825534742831  -23.138370000000908 -6.1889400000000103 -12.377859999998282  
-36.529076884624551 -139.86073097612092 -80.294759728354322  -31.975582045998614 -134.33326799956677 -70.220892748181214  -28.032670507501347 -126.77410425797363 -57.968274166920438  -24.670289949577437 -115.5766851069915 -41.939264715850612  -22.029421478664865 -103.34429247586786 -24.798333865024727  -19.95618496692143 -81.32818954324722 2.2304407288122761  -18.608292762170642 -59.261593564822256 29.339694650717206  -17.904780000000965 -40.197639999995751 53.476390000001743  

8 0 0 1 5 17.904779999999999 -40.197639999999993 53.476390000000002  17.779869999999999 -36.782269999999997 57.797869999999996  17.654949999999999 -33.462269999999997 62.024019999999993  17.530059999999988 -30.256789999999995 66.135549999999981  17.405139999999978 -27.176119999999997 70.122389999999982  17.280229999999968 -24.224190000000068 73.980419999999953  
23.138369999999998 -6.1889400000000023 -12.377860000000005  23.013469999999998 -5.282829999999997 -10.565629999999992  22.888549999999999 -4.3767099999999957 -8.7534100000000024  22.763649999999988 -3.4705999999999975 -6.9411800000000454  22.638729999999981 -2.5644900000000206 -5.1289500000001027  22.513829999999981 -1.65837000000014 -3.3167200000001316  

8 0 0 1 7 36.529076884624786 -139.8607309761212 -80.294759728354805  31.975582045998785 -134.33326799956711 -70.220892748181726  28.032670507501464 -126.7741042579741 -57.968274166921013  24.670289949577498 -115.57668510699199 -41.939264715851131  22.029421478664851 -103.34429247586861 -24.798333865025391  19.956184966921235 -81.328189543248158 2.2304407288116685  18.60829276216991 -59.261593564824146 29.339694650716392  17.90477999999883 -40.197640000000405 53.476390000000151  
41.763444214721432 -40.297227839145549 -80.594486845324269  37.210730259662306 -35.751295941873323 -71.502622734014224  33.257221747888785 -31.05535006384126 -62.110702840918563  29.926583245057916 -26.233087025227306 -52.466225686583314  27.237987873050113 -21.309329220937201 -42.618609482510209  25.20532541190267 -16.309874180573473 -32.619783747167787  23.837597678358406 -11.260922767373522 -22.521825534743559  23.138369999998773 -6.1889400000046635 -12.377859999999899  

8 0 0 1 7 17.28023 -24.22419 73.980419999999995  17.221719999999998 -22.8416 75.787379999999999  17.168619999999997 -21.329010000000004 77.489489999999989  17.123280000000005 -19.704530000000013 79.051069999999996  17.087840000000028 -17.994440000000022 80.443229999999971  17.063670000000105 -16.234530000000028 81.643059999999721  17.051610000000355 -14.462330000000012 82.641429999999062  17.051610000000966 -12.716889999999866 83.437869999997943  
22.513829999999999 -1.6583700000000015 -3.3167200000000037  22.45532 -1.2339699999999993 -2.4679200000000066  22.402219999999996 -0.65295000000000414 -1.6974400000000003  22.356880000000007 0.067359999999993647 -1.0399400000000014  22.321430000000028 0.90001000000000175 -0.52533000000003938  22.29727000000009 1.810220000000033 -0.17511000000035892  22.285210000000276 2.7592000000001313 -1.2079226507921703e-12  22.285210000000706 3.7081900000005295 -3.0553337637684308e-12  

8 0 0 1 5 17.05161 -12.716889999999999 83.43786999999999  17.05161 2.6590365138967211 90.457751659997982  17.05161 15.783021983903415 95.228139392132348  17.05161 26.969987377909909 98.057630253200458  17.05161 36.769454437361766 99.503361853842577  17.051610000000004 45.431877661885757 99.810452433700647  
22.285209999999999 3.7081900000000019 0  22.285209999999999 12.063449568448304 0  22.285209999999999 20.418709136896602 0  22.285209999999999 28.77396870534491 0  22.285210000000003 37.129235912028975 0  22.285210000000014 45.484497470585019 0  

8 0 0 7 7 -63.28443 -42.201230000000002 -80.625869999999992  -63.27897999999999 -41.909190000000002 -67.601150000000004  -63.023379999999989 -40.788000000000004 -54.768509999999992  -62.288349999999951 -38.905879999999989 -42.391929999999959  -61.343199999999847 -36.275909999999982 -30.267819999999894  -59.437139999999552 -33.062349999999974 -19.078009999999825  -57.03597999999883 -29.151959999999878 -8.5138099999997259  -54.731179999997565 -25.231959999999482 2.1024500000006849  
-54.336609999999993 -43.15005 -80.604539999999986  -54.332180000000001 -42.856579999999994 -67.527979999999999  -54.123829999999984 -41.737499999999997 -54.597049999999989  -53.524719999999938 -39.841479999999997 -42.017339999999962  -52.754529999999825 -37.182209999999984 -29.662969999999895  -51.200789999999529 -33.878719999999973 -18.039669999999823  -49.239929999998758 -29.866769999999878 -6.9750599999997256  -47.365329999997378 -25.623069999999483 4.1033200000006858  
-45.353049999999996 -43.94451999999999 -80.586649999999977  -45.349530000000009 -43.649880000000003 -67.466770000000011  -45.183769999999981 -42.532920000000004 -54.451979999999992  -44.707239999999935 -40.626420000000003 -41.699679999999951  -44.094559999999817 -37.94301999999999 -29.146899999999899  -42.858629999999501 -34.565429999999971 -17.15237999999982  -41.295539999998702 -30.468539999999873 -5.6504099999997246  -39.807689999997194 -25.950549999999485 5.8194300000006871  
-36.336539999999985 -44.582799999999992 -80.572299999999956  -36.333850000000012 -44.287230000000008 -67.417640000000034  -36.206569999999971 -43.172310000000017 -54.334339999999997  -35.840829999999933 -41.258140000000012 -41.441489999999916  -35.370479999999809 -38.555840000000003 -28.724999999999913  -34.421779999999472 -35.119469999999971 -16.425959999999819  -33.219159999998659 -30.953899999999869 -4.556469999999722  -32.079799999997 -26.213649999999483 7.2291000000006891  
-27.289999999999957 -45.06360999999999 -80.561489999999864  -27.288059999999994 -44.76735000000005 -67.380660000000063  -27.195829999999987 -43.654130000000052 -54.244979999999991  -26.930919999999936 -41.734850000000016 -41.244839999999854  -26.59009999999979 -39.01844000000002 -28.402299999999933  -25.902859999999443 -35.53847999999995 -15.869429999999815  -25.029799999998623 -31.317359999999852 -3.709209999999719  -24.206189999996827 -26.411839999999483 8.3121400000006922  
-18.216379999999837 -45.385510000000039 -80.554249999999655  -18.215129999999881 -45.088790000000181 -67.355900000000076  -18.155220000000064 -43.97689000000004 -54.184809999999992  -17.983269999999965 -42.054390000000026 -41.111769999999687  -17.761989999999741 -39.328870000000052 -28.183449999999951  -17.315799999999406 -35.819909999999901 -15.491169999999792  -16.74761999999857 -31.558999999999848 -3.1222299999997079  -16.214279999996712 -26.544529999999501 9.0499200000006912  
-9.118689999999507 -45.547120000000092 -80.550619999999071  -9.1180699999995554 -45.250170000000494 -67.343440000000015  -9.0886400000003658 -44.138989999999851 -54.154469999999996  -9.0040900000000317 -42.215000000000053 -41.044299999999375  -8.8953099999997018 -39.485010000000244 -28.072369999999964  -8.6759699999993511 -35.961629999999793 -15.298789999999729  -8.3959999999984216 -31.67438999999986 -2.8090099999996809  -8.1344599999968548 -26.61114999999953 9.4258500000006826  
1.1368683772161603e-12 -45.547119999999921 -80.550619999997636  1.3038459201197838e-12 -45.250170000001162 -67.343419999999924  -1.3127277043167851e-12 -44.139009999999082 -54.154540000000054  -4.9737991503207013e-14 -42.214970000000079 -41.044179999999045  3.7481129311345285e-13 -39.485040000001156 -28.07248999999992  6.2883032114768866e-13 -35.961609999999567 -15.298729999999676  2.2186696924109128e-12 -31.662619999999784 -2.7807399999996414  2.2044588376957108e-12 -26.611149999999572 9.4258500000006542  

8 0 0 7 7 0 -45.547119999999993 -80.550619999999995  0 -45.250169999999997 -67.343419999999995  0 -44.139009999999999 -54.154539999999983  0 -42.214969999999973 -41.044179999999962  0 -39.48503999999992 -28.072489999999881  0 -35.96160999999978 -15.29872999999974  0 -31.662619999999379 -2.780739999999458  0 -26.611149999998169 9.4258500000011853  
9.1186900000000009 -45.547119999999993 -80.550619999999995  9.1180699999999995 -45.250169999999997 -67.343440000000001  9.0886399999999998 -44.13899 -54.154469999999982  9.0040899999999944 -42.214999999999975 -41.044299999999964  8.8953099999999843 -39.485009999999924 -28.072369999999882  8.6759699999999729 -35.961629999999779 -15.298789999999741  8.3959999999999724 -31.674389999999384 -2.809009999999458  8.1344600000000344 -26.611149999998169 9.4258500000011853  
18.216379999999994 -45.385509999999996 -80.554249999999996  18.215129999999995 -45.088789999999996 -67.355900000000005  18.155219999999993 -43.976890000000004 -54.184809999999977  17.983269999999987 -42.054389999999984 -41.111769999999957  17.761989999999962 -39.328869999999945 -28.18344999999988  17.315799999999946 -35.81990999999978 -15.491169999999743  16.747619999999941 -31.55899999999939 -3.1222299999994574  16.214280000000066 -26.544529999998172 9.0499200000011832  
27.289999999999988 -45.063609999999997 -80.561490000000049  27.288059999999994 -44.767349999999979 -67.380660000000006  27.19582999999999 -43.654130000000031 -54.244979999999948  26.930919999999979 -41.734849999999994 -41.244839999999975  26.59009999999995 -39.018439999999941 -28.402299999999869  25.902859999999912 -35.538479999999794 -15.869429999999744  25.029799999999916 -31.317359999999386 -3.7092099999994561  24.206190000000099 -26.411839999998165 8.3121400000011825  
36.336539999999985 -44.582800000000006 -80.572300000000155  36.333849999999984 -44.28722999999993 -67.417640000000034  36.206569999999992 -43.172310000000081 -54.334339999999905  35.840829999999968 -41.258140000000033 -41.441490000000002  35.370479999999922 -38.555839999999925 -28.724999999999849  34.42177999999987 -35.119469999999822 -16.425959999999733  33.219159999999874 -30.95389999999939 -4.5564699999994538  32.079800000000134 -26.213649999998154 7.2291000000011785  
45.353050000000003 -43.94451999999999 -80.586650000000333  45.349529999999973 -43.649879999999762 -67.466770000000125  45.183770000000038 -42.532920000000225 -54.451979999999828  44.707239999999928 -40.626420000000131 -41.699680000000093  44.094559999999838 -37.943019999999898 -29.146899999999803  42.85862999999982 -34.565429999999836 -17.152379999999717  41.295539999999804 -30.468539999999368 -5.6504099999994537  39.807690000000186 -25.950549999998152 5.81943000000118  
54.336610000000022 -43.150049999999958 -80.604540000000782  54.332179999999987 -42.856579999999333 -67.527980000000468  54.123830000000204 -41.737500000000509 -54.59704999999969  53.524719999999753 -39.84148000000048 -42.017340000000438  52.754529999999619 -37.182209999999941 -29.662969999999667  51.200789999999785 -33.878719999999753 -18.039669999999759  49.239929999999582 -29.866769999999264 -6.9750599999994645  47.365330000000291 -25.623069999998236 4.1033200000012018  
63.284430000000008 -42.201229999999818 -80.625870000001825  63.278980000000182 -41.909189999998496 -67.60115000000161  63.023380000000749 -40.788000000001148 -54.768509999999189  62.288349999999198 -38.905880000001567 -42.391930000001345  61.34319999999925 -36.275910000000401 -30.267819999999464  59.437139999999815 -33.062349999999377 -19.078010000000027  57.035979999998901 -29.151959999998972 -8.5138099999995127  54.731180000000535 -25.231959999998448 2.1024500000013036  

8 0 0 7 7 -54.731179999999995 -25.231960000000001 2.1024500000000002  -53.82705 -23.694219999999998 6.2670100000000009  -52.695629999999987 -22.955470000000002 10.734200000000001  -51.815809999999985 -20.736840000000008 14.84742  -51.055529999999976 -17.767580000000017 18.635810000000006  -50.401499999999963 -14.102870000000021 21.897080000000042  -49.81923999999993 -10.106839999999963 25.665990000000178  -49.383789999999991 -5.2467399999996971 26.221710000000581  
-47.365330000000007 -25.623070000000002 4.1033200000000001  -46.616309999999999 -23.935960000000001 8.5115700000000007  -45.706259999999993 -22.483469999999997 13.167549999999999  -44.989149999999981 -19.737880000000004 17.314429999999998  -44.369539999999958 -16.240180000000016 20.989220000000003  -43.836419999999954 -12.09107000000002 24.003360000000033  -43.366019999999942 -7.5707899999999748 27.081390000000159  -43.006960000000042 -2.5202499999997281 27.534720000000565  
-39.807690000000015 -25.950550000000003 5.8194300000000005  -39.202959999999997 -24.125859999999999 10.45026  -38.487929999999992 -22.072929999999996 15.254200000000001  -37.917609999999975 -18.876110000000011 19.430160000000001  -37.424599999999934 -14.925460000000019 23.00788  -37.000629999999944 -10.360980000000023 25.810230000000022  -36.629539999999949 -5.4019099999999858 28.302360000000132  -36.340790000000098 -0.17686999999975939 28.661110000000555  
-32.07980000000002 -26.213650000000001 7.2291000000000025  -31.608200000000028 -24.272730000000013 12.059830000000002  -31.066759999999981 -21.731489999999987 16.967929999999992  -30.628899999999959 -18.164480000000019 21.168090000000007  -30.250529999999891 -13.842060000000023 24.666169999999997  -29.92502999999996 -8.936370000000025 27.294780000000006  -29.642629999999961 -3.6274699999999944 29.302920000000093  -29.41854000000016 1.7517400000002092 29.586570000000545  
-24.206190000000042 -26.411840000000002 8.3121400000000065  -23.859900000000064 -24.369380000000039 13.31438  -23.472269999999945 -21.466319999999957 18.284389999999981  -23.155109999999905 -17.615280000000041 22.503219999999995  -22.880929999999843 -13.00735000000002 25.94033000000001  -22.645170000000011 -7.8395700000000375 28.43551999999999  -22.442209999999982 -2.2765199999999988 30.078100000000049  -22.278230000000235 3.2359300000001774 30.297720000000545  
-16.214280000000123 -26.544530000000019 9.0499200000000055  -15.985910000000139 -24.426110000000104 14.1936  -15.737789999999851 -21.28399999999986 19.181069999999977  -15.531889999999745 -17.23973000000008 23.412679999999909  -15.353889999999787 -12.437350000000015 26.808370000000021  -15.20082000000011 -7.0910900000000572 29.212710000000005  -15.070190000000014 -1.3716499999999867 30.603029999999986  -14.962590000000286 4.2484100000001472 30.782240000000535  
-8.1344600000004608 -26.611150000000048 9.4258499999999952  -8.0206000000003748 -24.438330000000256 14.675470000000018  -7.9002199999997096 -21.190409999999559 19.637930000000019  -7.7989999999993476 -17.047710000000141 23.876089999999632  -7.7114899999996567 -12.146350000000012 27.250699999999991  -7.6362400000002939 -6.7091000000000998 29.608780000000145  -7.5725500000001071 -0.93608999999992881 30.87248999999985  -7.5191300000002768 4.7649400000001174 31.029160000000438  
-1.5969447986208252e-12 -26.611150000000091 9.425849999999965  -9.2725827016693074e-13 -24.410790000000507 14.742900000000123  3.0908609005564358e-13 -21.190409999998867 19.637930000000196  1.375788372115494e-12 -17.047710000000261 23.876089999999071  8.3755224977721809e-13 -12.14635000000006 27.250699999999785  -6.2172489379008766e-13 -6.7091000000001788 29.608780000000667  -3.694822225952521e-13 -0.98723999999977963 30.870709999999313  -3.0109248427834245e-13 4.7649400000000908 31.029159999999951  

8 0 0 7 7 0 -26.611149999999995 9.4258500000000005  0 -24.410790000000002 14.742899999999999  0 -21.190410000000004 19.637929999999994  0 -17.047710000000009 23.87608999999998  0 -12.146350000000005 27.250699999999966  0 -6.7090999999999656 29.608779999999921  0 -0.98723999999977785 30.870709999999772  0 4.7649400000007791 31.029159999999322  
8.1344600000000007 -26.611149999999995 9.4258500000000005  8.0205999999999982 -24.438329999999997 14.675469999999997  7.90022 -21.190410000000004 19.637929999999994  7.7990000000000004 -17.047710000000009 23.87608999999998  7.7114899999999968 -12.146350000000005 27.250699999999966  7.6362399999999795 -6.7090999999999656 29.608779999999921  7.5725499999999366 -0.93608999999977782 30.872489999999772  7.5191299999998478 4.7649400000007791 31.029159999999322  
16.214279999999999 -26.544529999999998 9.0499199999999984  15.985909999999993 -24.426109999999991 14.193599999999998  15.737789999999997 -21.284000000000006 19.181069999999995  15.531890000000001 -17.239730000000012 23.41267999999998  15.353889999999993 -12.437350000000007 26.808369999999965  15.200819999999958 -7.0910899999999657 29.212709999999923  15.070189999999872 -1.3716499999997773 30.603029999999769  14.962589999999697 4.2484100000007796 30.782239999999327  
24.206189999999996 -26.411839999999991 8.3121399999999959  23.859899999999989 -24.369379999999992 13.314379999999995  23.472269999999991 -21.466320000000007 18.284390000000002  23.155110000000008 -17.615280000000002 22.50321999999997  22.880929999999992 -13.007350000000011 25.940329999999971  22.64516999999994 -7.8395699999999673 28.435519999999904  22.442209999999815 -2.2765199999997767 30.078099999999772  22.278229999999549 3.2359300000007796 30.29771999999932  
32.079799999999999 -26.21364999999998 7.2290999999999919  31.608199999999982 -24.272729999999996 12.059829999999991  31.066759999999991 -21.731490000000001 16.967930000000027  30.628900000000016 -18.164479999999983 21.16808999999995  30.250529999999991 -13.842060000000025 24.666169999999983  29.925029999999918 -8.9363699999999682 27.294779999999864  29.642629999999752 -3.6274699999997764 29.302919999999769  29.418539999999396 1.7517400000007821 29.586569999999281  
39.807690000000015 -25.950549999999978 5.8194299999999934  39.202959999999948 -24.125860000000028 10.450259999999984  38.48793000000002 -22.072929999999989 15.254200000000088  37.917610000000039 -18.876109999999965 19.430159999999915  37.424599999999998 -14.925460000000051 23.00788  37.000629999999909 -10.360979999999964 25.810229999999748  36.6295399999997 -5.4019099999997771 28.302359999999783  36.340789999999259 -0.17686999999921116 28.661109999999152  
47.365330000000085 -25.623070000000062 4.1033200000000152  46.616309999999864 -23.935960000000129 8.5115699999999812  45.70626000000015 -22.483469999999951 13.167550000000244  44.989150000000151 -19.737879999999997 17.314429999999927  44.369539999999986 -16.240180000000134 20.989219999999964  43.836419999999947 -12.091069999999934 24.003359999999468  43.366019999999658 -7.5707899999997768 27.081389999999786  43.006959999999168 -2.5202499999992067 27.534719999998746  
54.7311800000003 -25.231960000000274 2.1024500000001169  53.827049999999801 -23.694220000000321 6.2670100000000382  52.695630000000577 -22.955469999999728 10.734200000000751  51.815810000000447 -20.736840000000356 14.847420000000115  51.055529999999962 -17.767580000000361 18.635809999999744  50.401500000000127 -14.102869999999898 21.897079999998979  49.819239999999709 -10.106839999999771 25.665989999999699  49.383789999999138 -5.2467399999992352 26.221709999997802  

8 0 0 7 5 -49.383789999999991 -5.2467400000000008 26.221709999999998  -48.677050000000008 2.6411600000000011 27.123619999999995  -48.236470000000004 10.987150000000002 26.571390000000005  -47.967780000000012 19.325800000000001 26.778120000000005  -47.845339999999993 27.770699999999991 27.00048000000001  -47.845469999999871 36.304739999999988 27.235619999999997  
-43.006959999999992 -2.5202500000000003 27.53472  -42.433309999999999 5.5757500000000011 28.257369999999995  -42.071870000000011 13.94084 27.914470000000001  -41.852820000000015 22.33268 28.128240000000005  -41.753070000000008 30.801839999999991 28.35381000000001  -41.753159999999887 39.33583999999999 28.588949999999997  
-36.340790000000005 -0.17687000000000008 28.661110000000008  -35.886390000000013 8.0925900000000013 29.227609999999995  -35.596950000000007 16.479439999999997 29.068270000000005  -35.422750000000008 24.917000000000012 29.288460000000008  -35.343360000000018 33.40699 29.516950000000001  -35.343449999999912 41.940969999999993 29.752079999999985  
-29.418540000000018 1.7517400000000001 29.586570000000016  -29.071230000000028 10.157530000000001 30.022819999999982  -28.847560000000012 18.568689999999993 30.017440000000008  -28.71382000000003 27.043870000000016 30.243180000000002  -28.652900000000052 35.551009999999998 30.474199999999982  -28.652959999999933 44.084959999999974 30.709329999999984  
-22.278230000000043 3.2359299999999998 30.29772000000003  -22.027660000000061 11.737760000000002 30.636169999999957  -21.864580000000043 20.176469999999981 30.747589999999992  -21.767690000000069 28.680590000000024 30.97780999999998  -21.723560000000095 37.200919999999982 31.21084999999994  -21.723599999999937 45.734859999999955 31.445979999999995  
-14.962590000000045 4.2484100000000007 30.78224000000003  -14.800640000000147 12.80491999999999 31.05215999999988  -14.694040000000115 21.273259999999969 31.245539999999941  -14.631140000000155 29.797100000000047 31.478889999999947  -14.602480000000195 38.326449999999966 31.713369999999824  -14.602509999999917 46.860369999999961 31.948500000000045  
-7.5191299999999863 4.7649400000000028 31.029159999999941  -7.4398600000003894 13.332379999999933 31.264969999999686  -7.3871000000002418 21.832779999999961 31.499499999999774  -7.3561800000003386 30.366709999999973 31.734509999999876  -7.3421000000003618 38.900630000000056 31.96972999999949  -7.3421099999999351 47.434560000000069 32.204860000000075  
3.8191672047105385e-14 4.7649400000000082 31.029159999999461  -8.517631044924201e-13 13.298859999999802 31.26421999999927  -4.0412118096355698e-13 21.832779999999982 31.499499999999234  -6.8745009684789693e-13 30.366709999999642 31.734509999999524  -4.7428727611986687e-13 38.900630000000618 31.969729999998634  -1.1102230246251565e-13 47.434560000000147 32.204859999999982  

8 0 0 7 5 0 4.7649400000000002 31.029160000000001  0 13.298859999999998 31.264219999999998  0 21.83278 31.499500000000005  0 30.366710000000008 31.734509999999993  0 38.900630000000007 31.969729999999963  0 47.434560000000026 32.20485999999989  
7.5191299999999996 4.7649400000000002 31.029160000000001  7.4398600000000004 13.332379999999997 31.264969999999998  7.3870999999999993 21.83278 31.499500000000005  7.3561800000000002 30.366710000000008 31.734509999999993  7.3421000000000021 38.900630000000007 31.969729999999963  7.3421100000000079 47.434560000000026 32.20485999999989  
14.962589999999999 4.2484100000000007 30.782240000000005  14.800639999999998 12.804920000000001 31.052160000000001  14.694039999999999 21.273260000000001 31.245539999999998  14.63114 29.797100000000018 31.478889999999989  14.602480000000003 38.326450000000015 31.713369999999959  14.602510000000013 46.860370000000017 31.948499999999896  
22.278230000000001 3.2359300000000006 30.297719999999998  22.027660000000001 11.737760000000005 30.636170000000003  21.86458 20.176469999999988 30.747589999999999  21.767689999999998 28.680590000000013 30.977810000000005  21.72356000000001 37.200919999999996 31.210849999999947  21.723600000000026 45.734860000000026 31.445979999999889  
29.418539999999997 1.7517400000000034 29.586569999999959  29.071229999999989 10.157530000000012 30.022819999999996  28.847559999999998 18.568689999999968 30.017440000000029  28.713819999999998 27.043870000000005 30.243180000000041  28.652900000000027 35.551009999999948 30.474199999999914  28.652960000000036 44.084960000000024 30.709329999999891  
36.340790000000013 -0.17686999999998942 28.66110999999983  35.886389999999956 8.0925900000000297 29.22760999999997  35.596950000000021 16.479439999999936 29.068270000000105  35.422750000000015 24.916999999999955 29.288460000000072  35.343360000000054 33.406989999999858 29.51694999999987  35.343450000000054 41.940969999999972 29.752079999999914  
43.00696000000007 -2.5202499999999843 27.534719999999425  42.433309999999871 5.5757500000000837 28.257369999999874  42.071870000000118 13.940839999999895 27.914470000000232  41.852820000000094 22.332679999999797 28.128239999999991  41.753070000000122 30.801839999999782 28.353809999999786  41.753160000000108 39.335839999999749 28.588950000000015  
49.383790000000197 -5.2467400000000115 26.221709999998481  48.677049999999653 2.6411600000001911 27.123619999999573  48.236470000000338 10.987149999999815 26.571390000000331  47.967780000000211 19.325799999999312 26.778119999999536  47.845340000000128 27.77070000000003 27.000479999999364  47.845470000000347 36.304739999999207 27.235620000000175  

Triangulations 0

TShapes 107
Ve
0.0011
-22.51383 -1.65836999999999 -3.31672
0 0

0101100
*
Ve
0.0011
-22.2852099999998 3.70819000000001 -1.24344978758018e-14
0 0

0101100
*
Ed
 1e-07 1 1 0
1  1 0 0 1
2  1 1 0 0 1
0

0101000
+107 0 -106 0 *
Ve
0.0011
-17.28023 -24.22419 73.98042
0 0

0101100
*
Ed
 1e-07 1 1 0
1  2 0 0 1
2  2 1 0 0 1
2  3 2 0 0 1
4 G1 1 0 2 0
0

0101000
+107 0 -104 0 *
Ve
0.0011
-17.0516099999999 -12.7168900000002 83.4378700000005
0 0

0101100
*
Ed
 1e-07 1 1 0
1  3 0 0 1
2  4 1 0 0 1
0

0101000
+104 0 -102 0 *
Ed
 1e-07 1 1 0
1  4 0 0 1
2  5 1 0 0 1
2  6 3 0 0 1
4 G1 1 0 3 0
0

0101000
+106 0 -102 0 *
Wi

0101100
-105 0 +103 0 +101 0 -100 0 *
Fa
1  1e-07 1 0

0101000
+99 0 *
Ve
0.0011
-23.1383700000005 -6.18894000000001 -12.3778599999991
0 0

0101100
*
Ed
 1e-07 1 1 0
1  5 0 0 1
2  7 2 0 0 1
0

0101000
+97 0 -107 0 *
Ve
0.0011
-17.9047800000005 -40.1976399999979 53.4763900000009
0 0

0101100
*
Ed
 1e-07 1 1 0
1  6 0 0 1
2  8 2 0 0 1
2  9 4 0 0 1
4 G1 2 0 4 0
0

0101000
+97 0 -95 0 *
Ed
 1e-07 1 1 0
1  7 0 0 1
2  10 2 0 0 1
0

0101000
+95 0 -104 0 *
Wi

0101100
-96 0 +94 0 +93 0 -103 0 *
Fa
1  1e-07 2 0

0101000
+92 0 *
Ve
0.0011
-22.28521 45.484497337667 0
0 0

0101100
*
Ed
 1e-07 1 1 0
1  8 0 0 1
2  11 3 0 0 1
0

0101000
+106 0 -90 0 *
Ve
0.0011
-17.05161 45.4318775240813 99.8104524288154
0 0

0101100
*
Ed
 1e-07 1 1 0
1  9 0 0 1
2  12 3 0 0 1
0

0101000
+102 0 -88 0 *
Ed
 1e-07 1 1 0
1  10 0 0 1
2  13 3 0 0 1
0

0101000
+90 0 -88 0 *
Wi

0101100
-89 0 +100 0 +87 0 -86 0 *
Fa
1  1e-07 3 0

0101000
+85 0 *
Ve
0.0011
-41.7634442147212 -40.2972278391453 -80.5944868453238
0 0

0101100
*
Ed
 1e-07 1 1 0
1  11 0 0 1
2  14 4 0 0 1
0

0101000
+83 0 -97 0 *
Ve
0.0011
-36.5290768846246 -139.860730976121 -80.2947597283543
0 0

0101100
*
Ed
 1e-07 1 1 0
1  12 0 0 1
2  15 4 0 0 1
0

0101000
+83 0 -81 0 *
Ed
 1e-07 1 1 0
1  13 0 0 1
2  16 4 0 0 1
0

0101000
+81 0 -95 0 *
Wi

0101100
-82 0 +80 0 +79 0 -94 0 *
Fa
1  1e-07 4 0

0101000
+78 0 *
Sh

0101000
+98 0 +91 0 +84 0 +77 0 *
Ve
0.0011
17.9047799999994 -40.1976400000002 53.4763900000001
0 0

0101100
*
Ve
0.0011
17.28023 -24.22419 73.98042
0 0

0101100
*
Ed
 1e-07 1 1 0
1  14 0 0 1
2  17 5 0 0 1
0

0101000
+75 0 -74 0 *
Ve
0.0011
23.1383699999994 -6.18894000000235 -12.3778599999999
0 0

0101100
*
Ed
 1e-07 1 1 0
1  15 0 0 1
2  18 5 0 0 1
2  19 6 0 0 1
4 G1 5 0 6 0
0

0101000
+75 0 -72 0 *
Ve
0.0011
22.51383 -1.65837000000007 -3.31672000000006
0 0

0101100
*
Ed
 1e-07 1 1 0
1  16 0 0 1
2  20 5 0 0 1
0

0101000
+72 0 -70 0 *
Ed
 1e-07 1 1 0
1  17 0 0 1
2  21 5 0 0 1
2  22 7 0 0 1
4 G1 5 0 7 0
0

0101000
+74 0 -70 0 *
Wi

0101100
-73 0 +71 0 +69 0 -68 0 *
Fa
1  1e-07 5 0

0101000
+67 0 *
Ve
0.0011
36.5290768846248 -139.860730976121 -80.2947597283548
0 0

0101100
*
Ed
 1e-07 1 1 0
1  18 0 0 1
2  23 6 0 0 1
0

0101000
+65 0 -75 0 *
Ve
0.0011
41.7634442147214 -40.2972278391455 -80.5944868453243
0 0

0101100
*
Ed
 1e-07 1 1 0
1  19 0 0 1
2  24 6 0 0 1
0

0101000
+65 0 -63 0 *
Ed
 1e-07 1 1 0
1  20 0 0 1
2  25 6 0 0 1
0

0101000
+63 0 -72 0 *
Wi

0101100
-64 0 +62 0 +61 0 -71 0 *
Fa
1  1e-07 6 0

0101000
+60 0 *
Ve
0.0011
17.0516100000005 -12.7168899999999 83.437869999999
0 0

0101100
*
Ed
 1e-07 1 1 0
1  21 0 0 1
2  26 7 0 0 1
0

0101000
+74 0 -58 0 *
Ve
0.0011
22.2852100000004 3.70819000000027 -1.52056145452661e-12
0 0

0101100
*
Ed
 1e-07 1 1 0
1  22 0 0 1
2  27 7 0 0 1
0

0101000
+70 0 -56 0 *
Ed
 1e-07 1 1 0
1  23 0 0 1
2  28 7 0 0 1
2  29 8 0 0 1
4 G1 7 0 8 0
0

0101000
+58 0 -56 0 *
Wi

0101100
-57 0 +68 0 +55 0 -54 0 *
Fa
1  1e-07 7 0

0101000
+53 0 *
Ve
0.0011
17.05161 45.4318776618858 99.8104524337006
0 0

0101100
*
Ed
 1e-07 1 1 0
1  24 0 0 1
2  30 8 0 0 1
0

0101000
+58 0 -51 0 *
Ve
0.0011
22.28521 45.484497470585 0
0 0

0101100
*
Ed
 1e-07 1 1 0
1  25 0 0 1
2  31 8 0 0 1
0

0101000
+56 0 -49 0 *
Ed
 1e-07 1 1 0
1  26 0 0 1
2  32 8 0 0 1
0

0101000
+51 0 -49 0 *
Wi

0101100
-50 0 +54 0 +48 0 -47 0 *
Fa
1  1e-07 8 0

0101000
+46 0 *
Sh

0101000
+66 0 +59 0 +52 0 +45 0 *
Ve
0.0011
-63.28443 -42.20123 -80.62587
0 0

0101100
*
Ve
0.0011
-54.7311799999988 -25.2319599999997 2.10245000000036
0 0

0101100
*
Ed
 1e-07 1 1 0
1  27 0 0 1
2  33 9 0 0 1
0

0101000
+43 0 -42 0 *
Ve
0.0011
5.61328761250479e-13 -45.54712 -80.5506199999988
0 0

0101100
*
Ed
 1e-07 1 1 0
1  28 0 0 1
2  34 9 0 0 1
0

0101000
+43 0 -40 0 *
Ve
0.0011
1.52766688188422e-13 -26.6111499999995 9.42585000000046
0 0

0101100
*
Ed
 1e-07 1 1 0
1  29 0 0 1
2  35 9 0 0 1
2  36 10 0 0 1
4 G1 9 0 10 0
0

0101000
+40 0 -38 0 *
Ed
 1e-07 1 1 0
1  30 0 0 1
2  37 9 0 0 1
2  38 11 0 0 1
4 G1 9 0 11 0
0

0101000
+42 0 -38 0 *
Wi

0101100
-41 0 +39 0 +37 0 -36 0 *
Fa
1  1e-07 9 0

0101000
+35 0 *
Ve
0.0011
63.28443 -42.2012299999998 -80.6258700000018
0 0

0101100
*
Ed
 1e-07 1 1 0
1  31 0 0 1
2  39 10 0 0 1
0

0101000
+40 0 -33 0 *
Ve
0.0011
54.7311800000004 -25.2319599999994 2.10245000000071
0 0

0101100
*
Ed
 1e-07 1 1 0
1  32 0 0 1
2  40 10 0 0 1
0

0101000
+33 0 -31 0 *
Ed
 1e-07 1 1 0
1  33 0 0 1
2  41 10 0 0 1
2  42 12 0 0 1
4 G1 10 0 12 0
0

0101000
+38 0 -31 0 *
Wi

0101100
-37 0 +32 0 +30 0 -29 0 *
Fa
1  1e-07 10 0

0101000
+28 0 *
Ve
0.0011
-49.38379 -5.24673999999985 26.2217100000003
0 0

0101100
*
Ed
 1e-07 1 1 0
1  34 0 0 1
2  43 11 0 0 1
0

0101000
+42 0 -26 0 *
Ve
0.0011
-6.3948846218409e-14 4.76494000000022 31.0291599999997
0 0

0101100
*
Ed
 1e-07 1 1 0
1  35 0 0 1
2  44 11 0 0 1
2  45 12 0 0 1
4 G1 11 0 12 0
0

0101000
+38 0 -24 0 *
Ed
 1e-07 1 1 0
1  36 0 0 1
2  46 11 0 0 1
2  47 13 0 0 1
4 G1 11 0 13 0
0

0101000
+26 0 -24 0 *
Wi

0101100
-25 0 +36 0 +23 0 -22 0 *
Fa
1  1e-07 11 0

0101000
+21 0 *
Ve
0.0011
49.3837899999997 -5.24673999999962 26.2217099999981
0 0

0101100
*
Ed
 1e-07 1 1 0
1  37 0 0 1
2  48 12 0 0 1
0

0101000
+31 0 -19 0 *
Ed
 1e-07 1 1 0
1  38 0 0 1
2  49 12 0 0 1
2  50 14 0 0 1
4 G1 12 0 14 0
0

0101000
+24 0 -19 0 *
Wi

0101100
-23 0 +29 0 +18 0 -17 0 *
Fa
1  1e-07 12 0

0101000
+16 0 *
Ve
0.0011
-47.8454699999999 36.30474 27.23562
0 0

0101100
*
Ed
 1e-07 1 1 0
1  39 0 0 1
2  51 13 0 0 1
0

0101000
+26 0 -14 0 *
Ve
0.0011
-6.03961325396085e-14 47.4345600000001 32.2048599999999
0 0

0101100
*
Ed
 1e-07 1 1 0
1  40 0 0 1
2  52 13 0 0 1
2  53 14 0 0 1
4 G1 13 0 14 0
0

0101000
+24 0 -12 0 *
Ed
 1e-07 1 1 0
1  41 0 0 1
2  54 13 0 0 1
0

0101000
+14 0 -12 0 *
Wi

0101100
-13 0 +22 0 +11 0 -10 0 *
Fa
1  1e-07 13 0

0101000
+9 0 *
Ve
0.0011
47.8454700000003 36.3047399999992 27.2356200000002
0 0

0101100
*
Ed
 1e-07 1 1 0
1  42 0 0 1
2  55 14 0 0 1
0

0101000
+19 0 -7 0 *
Ed
 1e-07 1 1 0
1  43 0 0 1
2  56 14 0 0 1
0

0101000
+12 0 -7 0 *
Wi

0101100
-11 0 +17 0 +6 0 -5 0 *
Fa
1  1e-07 14 0

0101000
+4 0 *
Sh

0101000
+34 0 +27 0 +20 0 +15 0 +8 0 +3 0 *
Co

1100000
+76 0 +44 0 +2 0 *

+1 0 