DBRep_DrawableShape

CASCADE Topology V1, (c) Matra-Datavision
Locations 0
Curve2ds 4
1 0 1.5707963267949 1 0 
1 6.28318530717959 -6.28318530717959 0 1 
1 0 -6.28318530717959 0 1 
1 0 -1.5707963267949 1 0 
Curves 1
2 0 0 0 0 -1 0 1 0 0 0 0 1 20
Polygon3D 0
PolygonOnTriangulations 0
Surfaces 1
4 0 0 0 0 0 1 1 0 0 0 1 0 20
Triangulations 0

TShapes 9
Ve
1e-07
0 0 20
0 0

0101101
*
Ed
 1e-07 1 1 1
2  1 1 0 0 6.28318530717959
0

0101100
+9 0 -9 0 *
Ve
1e-07
0 0 -20
0 0

0101101
*
Ed
 1e-07 1 1 0
1  1 0 4.71238898038469 7.85398163397448
3  2 3CN 1 0 4.71238898038469 7.85398163397448
0

0101000
-9 0 +7 0 *
Ed
 1e-07 1 1 1
2  4 1 0 0 6.28318530717959
0

0101100
+7 0 -7 0 *
Wi

0101000
-8 0 +6 0 +5 0 -6 0 *
Fa
0  1e-07 1 0

0111000
+4 0 *
Sh

0101100
+3 0 *
So

1100100
+2 0 *

+1 0 
0

