DBRep_DrawableShape

CASCADE Topology V1, (c) Matra-Datavision
Locations 16
1
              1               0               0 2.1316282072803e-14 
              0               1               0               0 
              0               0               1               0 
1
              1               0               0               0 
              0               1               0               0 
              0               0               1               0 
1
              1               0               0 -7.105427357601e-15 
              0               1               0               0 
              0               0               1               0 
2  1 1 2 1 3 1 0
1
              1               0               0 -1.22460635382238e-15 
              0               1               0              -5 
              0               0               1               0 
2  1 1 2 1 3 1 5 1 0
2  5 -1 3 -1 2 -1 1 -1 0
2  3 -1 2 -1 1 -1 0
1
              1               0               0 -2.44921270764475e-14 
              0               1               0            -100 
              0               0               1               0 
2  9 -1 3 -1 2 -1 1 -1 0
1
              1               0               0 -2.44921270764475e-15 
              0               1               0             -10 
              0               0               1               0 
2  11 -1 3 -1 2 -1 1 -1 0
1
              1               0               0 -1.46952762458685e-15 
              0               1               0              -6 
              0               0               1               0 
2  13 -1 3 -1 2 -1 1 -1 0
1
              1               0               0 -1.22460635382238e-15 
              0               1               0              -5 
              0               0               1               0 
2  15 -1 3 -1 2 -1 1 -1 0
Curve2ds 12
1 3.17493213104428 0 0 -1 
1 1.5707963267949001 0 0 -1 
1 0 0 1 0 
1 0 -100 1 0 
1 0 0 1 0 
1 0 -10 1 0 
1 0 0 1 0 
1 0 -6 1 0 
1 0 0 1 0 
1 0 -5 1 0 
1 0 0 1 0 
1 0 -5 1 0 
Curves 8
1 50.100002288818416 25.5 7.3999996185302299 -2.4492127076447501e-16 -1 0 
1 50.100002288818416 25.5 10.499999523162799 -2.4492127076447501e-16 -1 0 
1 50.100002288818402 25.5 -2.5972558404617301 -3.0165818149445603e-32 7.3882505148122803e-48 1 
1 51.100002288818416 25.5 7.3999996185302299 -2.4492127076447501e-16 -1 0 
1 50.919303894042898 25.5 7.3999996185302299 -1 2.4492127076447501e-16 1.22460635382238e-16 
1 54.098335162112114 25.5 10.499999523162799 -2.4492127076447501e-16 -1 0 
2 54.0983351621121 25.5 7.4999995231628001 -2.4492127076447501e-16 -1 0 1 -2.4492127076447501e-16 -6.12303176911189e-17 6.12303176911189e-17 -1.4996607218221399e-32 1 3
1 50.100002288818402 25.5 10.499999523162799 1 -2.4492127076447501e-16 0 
Polygon3D 0
PolygonOnTriangulations 21
2 1 2 
p 0.50000002 1 0 5 
2 3 4 
p 0.600000004 1 0 5 
2 3 4 
p 0.50000002 1 0 5 
2 1 2 
p 0.600000004 1 0 5 
2 1 2 
p 0.399833307329373 1 9.99725545899196 13.0972553636245 
2 2 4 
p 0.50000002 1 9.99725545899196 13.0972553636245 
2 1 2 
p 0.399833307329373 1 9.99725545899196 13.0972553636245 
2 1 2 
p 0.50000002 1 0 5 
2 6 7 
p 0.6050000032 1 0 5 
2 3 1 
p 0.399833307329373 1 -0.180698394775469 0.819301605224531 
2 2 4 
p 0.50000002 1 -0.180698394775469 0.819301605224531 
2 3 1 
p 0.399833307329373 1 -0.180698394775469 0.819301605224531 
5 1 3 4 5 2 
p 0.50000002 1 0 1.25 2.5 3.75 5 
5 3 4 5 6 7 
p 0.60525000316 1 0 1.25 2.5 3.75 5 
11 4 5 6 7 8 9 10 11 12 13 3 
p 0.399833307329373 1 1.5707963267949 1.73120990721984 1.89162348764478 2.05203706806971 2.21245064849465 2.37286422891959 2.53327780934453 2.69369138976947 2.8541049701944 3.01451855061934 3.17493213104428 
11 1 8 9 10 11 12 13 14 15 16 6 
p 0.50000002 1 1.5707963267949 1.73120990721984 1.89162348764478 2.05203706806971 2.21245064849465 2.37286422891959 2.53327780934453 2.69369138976947 2.8541049701944 3.01451855061934 3.17493213104428 
11 4 5 6 7 8 9 10 11 12 13 3 
p 0.399833307329373 1 1.5707963267949 1.73120990721984 1.89162348764478 2.05203706806971 2.21245064849465 2.37286422891959 2.53327780934453 2.69369138976947 2.8541049701944 3.01451855061934 3.17493213104428 
2 2 4 
p 0.399833307329373 1 -3.5527136788005e-14 3.99833287329363 
2 2 7 
p 0.50000002 1 -3.5527136788005e-14 3.99833287329363 
2 1 3 
p 0.50000002 1 -3.5527136788005e-14 3.99833287329363 
2 2 4 
p 0.479799948795245 1 -3.5527136788005e-14 3.99833287329363 
Surfaces 9
1 50.100002288818416 25.5 7.3999996185302299 -1 2.4492127076447501e-16 -3.0165818149445603e-32 -3.0165818149445603e-32 7.3882505148122803e-48 1 2.4492127076447501e-16 1 0 
1 51.100002288818381 25.5 7.3999996185302299 -1.22460635382238e-16 2.999321443644276e-32 -1 -1 2.4492127076447501e-16 1.22460635382238e-16 2.4492127076447501e-16 1 0 
2 54.098335162112114 25.5 7.4999995231628001 2.4492127076447501e-16 1 4.3790577010150533e-47 1 -2.4492127076447501e-16 -6.12303176911189e-17 6.12303176911189e-17 -1.4996607218221399e-32 1 3
2 54.098335162112114 25.5 7.4999995231628001 2.4492127076447501e-16 1 4.3790577010150533e-47 1 -2.4492127076447501e-16 -6.12303176911189e-17 6.12303176911189e-17 -1.4996607218221399e-32 1 3
2 54.098335162112114 25.5 7.4999995231628001 2.4492127076447501e-16 1 4.3790577010150533e-47 1 -2.4492127076447501e-16 -6.12303176911189e-17 6.12303176911189e-17 -1.4996607218221399e-32 1 3
2 54.098335162112114 25.5 7.4999995231628001 2.4492127076447501e-16 1 4.3790577010150533e-47 1 -2.4492127076447501e-16 -6.12303176911189e-17 6.12303176911189e-17 -1.4996607218221399e-32 1 3
2 54.098335162112114 25.5 7.4999995231628001 2.4492127076447501e-16 1 4.3790577010150533e-47 1 -2.4492127076447501e-16 -6.12303176911189e-17 6.12303176911189e-17 -1.4996607218221399e-32 1 3
1 50.100002288818381 25.5 10.499999523162799 0 0 1 1 -2.4492127076447501e-16 0 2.4492127076447501e-16 1 -0 
1 54.232399959670211 25.5 -21.866844900259501 -2.4492127076447501e-16 -1 0 1 -2.4492127076447501e-16 0 0 0 1 
Triangulations 6
4 2 1 0.50000002
50.1000022888184 25.5 7.39999961853023 50.1000022888184 20.5 7.39999961853023 50.1000022888184 25.5 10.4999995231628 50.1000022888184 20.5 10.4999995231628 0 0 0 -5 3.09999990463257 0 3.09999990463257 -5 1 2 4 4 3 1 
4 2 1 0.525000016
51.1000022888184 25.5 7.39999961853023 51.1000022888184 20.5 7.39999961853023 50.1000022888184 25.5 7.39999961853023 50.1000022888184 20.5 7.39999961853023 -3.5527136788005e-14 0 -3.5527136788005e-14 -5 0.999999999999964 -3.5527136788005e-15 0.999999999999964 -5 1 2 3 4 3 2 
7 5 1 0.55131251179
50.1000022888184 25.5 10.4999995231628 50.1000022888184 20.5 10.4999995231628 54.0983351621121 25.5 10.4999995231628 54.0983351621121 24.25 10.4999995231628 54.0983351621121 23 10.4999995231628 54.0983351621121 21.75 10.4999995231628 54.0983351621121 20.5 10.4999995231628 3.5527136788005e-14 0 3.5527136788005e-14 -5 3.99833287329373 3.5527136788005e-15 3.99833287329373 -1.25 3.99833287329373 -2.5 3.99833287329373 -3.75 3.99833287329373 -5 1 2 5 6 2 7 6 5 2 4 3 1 5 4 1 
13 11 1 0.399833307329373
50.1000022888184 25.5 7.39999961853023 50.1000022888184 25.5 10.4999995231628 51.1000022888184 25.5 7.39999961853023 54.0983351621121 25.5 10.4999995231628 53.6191556895429 25.5 10.4614834473245 53.1522802922442 25.5 10.346924211875 52.7096971090221 25.5 10.1592633982813 52.3027705181765 25.5 9.90331964529562 51.9419493299965 25.5 9.5856649189181 51.6364984886474 25.5 9.21445576150313 51.3942611726426 25.5 8.79922385308995 51.2214574025384 25.5 8.35063126279517 51.1225243270775 25.5 7.88019667477097 -4.13239767085179 29.2668445187897 -4.13239767085179 32.3668444234223 -3.13239767085179 29.2668445187897 -0.134064797558096 32.3668444234223 -0.613244270127258 32.328328347584 -1.080119667426 32.2137691121345 -1.52270285064807 32.0261082985408 -1.92962944149366 31.7701645455551 -2.2904506296737 31.4525098191776 -2.59590147102283 31.0813006617626 -2.83813878702757 30.6660687533494 -3.01094255713183 30.2174761630547 -3.10987563259265 29.7470415750305 1 3 13 1 13 12 2 12 11 12 2 1 2 11 10 9 8 2 10 9 2 7 6 2 5 4 2 6 5 2 8 7 2 
13 11 1 0.419824967695841
50.1000022888184 25.5 7.39999961853023 50.1000022888184 25.5 10.4999995231628 51.1000022888184 25.5 7.39999961853023 54.0983351621121 25.5 10.4999995231628 53.6191556895429 25.5 10.4614834473245 53.1522802922442 25.5 10.346924211875 52.7096971090221 25.5 10.1592633982813 52.3027705181765 25.5 9.90331964529562 51.9419493299965 25.5 9.5856649189181 51.6364984886474 25.5 9.21445576150313 51.3942611726426 25.5 8.79922385308995 51.2214574025384 25.5 8.35063126279517 51.1225243270776 25.5 7.88019667477097 -4.13239767085179 29.2668445187897 -4.13239767085179 32.3668444234223 -3.13239767085179 29.2668445187897 -0.134064797558096 32.3668444234223 -0.613244270127258 32.328328347584 -1.080119667426 32.2137691121345 -1.52270285064807 32.0261082985408 -1.92962944149366 31.7701645455551 -2.2904506296737 31.4525098191776 -2.59590147102283 31.0813006617626 -2.83813878702757 30.6660687533494 -3.01094255713183 30.2174761630547 -3.10987563259265 29.7470415750305 1 3 13 1 13 12 2 12 11 12 2 1 2 11 10 9 8 2 10 9 2 7 6 2 5 4 2 6 5 2 8 7 2 
25 23 1 0.5262500158
54.0983351621121 25.5 10.4999995231628 54.0983351621121 20.5 10.4999995231628 54.0983351621121 24.25 10.4999995231628 54.0983351621121 23 10.4999995231628 54.0983351621121 21.75 10.4999995231628 51.1000022888184 25.5 7.39999961853023 51.1000022888184 20.5 7.39999961853023 53.6191556895429 25.5 10.4614834473245 53.1522802922442 25.5 10.346924211875 52.7096971090221 25.5 10.1592633982813 52.3027705181765 25.5 9.90331964529562 51.9419493299965 25.5 9.5856649189181 51.6364984886474 25.5 9.21445576150313 51.3942611726426 25.5 8.79922385308995 51.2214574025384 25.5 8.35063126279517 51.1225243270776 25.5 7.88019667477097 53.6191556895429 20.5 10.4614834473245 53.1522802922442 20.5 10.346924211875 52.7096971090221 20.5 10.1592633982813 52.3027705181765 20.5 9.90331964529562 51.9419493299965 20.5 9.5856649189181 51.6364984886474 20.5 9.21445576150313 51.3942611726426 20.5 8.79922385308995 51.2214574025384 20.5 8.35063126279517 51.1225243270776 20.5 7.88019667477097 1.5707963267949 0 1.5707963267949 -5 1.5707963267949 -1.25 1.5707963267949 -2.5 1.5707963267949 -3.75 3.17493213104428 0 3.17493213104428 -5 1.73120990721984 0 1.89162348764478 0 2.05203706806971 0 2.21245064849465 0 2.37286422891959 0 2.53327780934453 0 2.69369138976947 0 2.8541049701944 0 3.01451855061934 0 1.73120990721984 -5 1.89162348764478 -5 2.05203706806971 -5 2.21245064849465 -5 2.37286422891959 -5 2.53327780934453 -5 2.69369138976947 -5 2.8541049701944 -5 3.01451855061934 -5 2 17 5 4 5 17 9 17 18 10 18 19 10 19 20 3 4 8 1 3 8 8 4 17 8 17 9 18 10 9 20 11 10 21 22 13 22 23 14 24 25 16 25 7 6 23 24 15 12 11 21 13 12 21 15 14 23 6 16 25 15 24 16 13 22 14 21 11 20 

TShapes 24
Ve
1e-07
50.1000022888184 25.5 7.39999961853023
0 0

0101100
*
Ed
 1e-07 1 1 0
1  1 0 0 5
6  1 1 0
6  2 2 0
0

0101000
+24 4 -24 6 *
Ve
1e-07
50.1000022888184 25.5 10.4999995231628
0 0

0101100
*
Ed
 1e-07 1 1 0
1  2 0 0 5
6  3 1 0
6  4 3 0
0

0101000
+22 4 -22 6 *
Ed
 1e-07 1 1 0
1  3 0 9.99725545899196 13.0972553636245
6  5 4 0
6  6 1 7
6  7 5 8
0

0101000
+24 0 -22 0 *
Wi

0101000
+23 0 -21 0 -20 4 +20 6 *
Fa
0  1e-07 1 0
2  1
0101000
+19 0 *
Ve
1e-07
51.1000022888184 25.5 7.39999961853023
0 0

0101100
*
Ed
 1e-07 1 1 0
1  4 0 0 5
2  1 3 0 0 5
6  8 2 0
6  9 6 0
0

0101000
+17 4 -17 6 *
Ed
 1e-07 1 1 0
1  5 0 -0.180698394775469 0.819301605224531
6  10 4 0
6  11 2 7
6  12 5 8
0

0101000
+17 0 -24 0 *
Wi

0101000
+16 0 -23 0 -15 4 +15 6 *
Fa
0  1e-07 2 0
2  2
0101000
+14 0 *
Ve
1e-07
54.0983351621121 25.5 10.4999995231628
0 0

0101100
*
Ed
 1e-07 1 1 0
1  6 0 0 5
2  2 3 0 0 5
6  13 6 0
6  14 3 0
0

0101000
+12 4 -12 6 *
Ed
 1e-07 1 1 0
1  7 0 1.5707963267949 3.17493213104428
6  15 4 0
2  3 4 8 1.5707963267949 3.17493213104428
2  4 4 10 1.5707963267949 3.17493213104428
2  5 5 8 1.5707963267949 3.17493213104428
2  6 5 12 1.5707963267949 3.17493213104428
2  7 6 8 1.5707963267949 3.17493213104428
2  8 6 14 1.5707963267949 3.17493213104428
2  9 7 8 1.5707963267949 3.17493213104428
2  10 7 16 1.5707963267949 3.17493213104428
2  11 3 8 1.5707963267949 3.17493213104428
2  12 3 7 1.5707963267949 3.17493213104428
6  16 6 8
6  17 5 8
0

0101000
+12 0 -17 0 *
Wi

0101000
+11 0 -16 0 -10 4 +10 6 *
Fa
0  1e-07 3 0
2  6
0101000
+9 0 *
Ed
 1e-07 1 1 0
1  8 0 -3.5527136788005e-14 3.99833287329363
6  18 4 0
6  19 3 7
6  20 3 8
6  21 5 8
0

0101000
+22 0 -12 0 *
Wi

0101000
+21 0 -11 0 -7 4 +7 6 *
Fa
0  1e-07 8 0
2  3
0101000
+6 0 *
Wi

0101100
-20 0 -15 0 -10 0 -7 0 *
Fa
0  1e-07 9 0
2  5
0101000
+4 4 *
Sh

0101000
-18 0 -13 0 -8 0 -5 0 +3 0 -3 5 *
So

1100000
-2 0 *

+1 0 