DBRep_DrawableShape

CASCADE Topology V1, (c) Matra-Datavision
Locations 34
1
              1               0               0 -1.12879252263384e-15 
              0               1               0 3.66894015169095e-15 
              0               0               1              30 
1
              1               0               0 1.12879252263384e-15 
              0               1               0 -3.66894015169095e-15 
              0               0               1             -30 
2  2 -1 0
1
              1               0               0 -1.12879252263384e-15 
              0               1               0 3.66894015169095e-15 
              0               0               1              30 
2  4 -1 0
1
              1               0               0 -1.12879252263384e-15 
              0               1               0 3.66894015169095e-15 
              0               0               1              30 
2  6 -1 0
1
              1               0               0 3.7626417421128e-15 
              0               1               0 -1.22298005056365e-14 
              0               0               1            -100 
2  8 -1 0
1
              1               0               0 -3.7626417421128e-15 
              0               1               0 1.22298005056365e-14 
              0               0               1             100 
2  10 -1 0
1
              1               0               0 -1.12879252263384e-15 
              0               1               0 3.66894015169095e-15 
              0               0               1              30 
2  12 -1 0
1
              1               0               0 -1.12879252263384e-15 
              0               1               0 3.66894015169095e-15 
              0               0               1              30 
2  14 -1 0
1
              1               0               0 3.7626417421128e-15 
              0               1               0 -1.22298005056365e-14 
              0               0               1            -100 
2  16 -1 0
1
              1               0               0 -3.7626417421128e-15 
              0               1               0 1.22298005056365e-14 
              0               0               1             100 
2  18 -1 0
1
              1               0               0 -3.38637756790152e-15 
              0               1               0 1.10068204550728e-14 
              0               0               1              90 
2  20 -1 0
1
              1               0               0 -3.01011339369024e-15 
              0               1               0 9.78384040450919e-15 
              0               0               1              80 
2  22 -1 0
1
              1               0               0 -2.63384921947896e-15 
              0               1               0 8.56086035394554e-15 
              0               0               1              70 
2  24 -1 0
1
              1               0               0 -2.25758504526768e-15 
              0               1               0 7.33788030338189e-15 
              0               0               1              60 
2  26 -1 0
1
              1               0               0 -1.8813208710564e-15 
              0               1               0 6.11490025281825e-15 
              0               0               1              50 
2  28 -1 0
1
              1               0               0 -1.50505669684512e-15 
              0               1               0 4.8919202022546e-15 
              0               0               1              40 
2  30 -1 0
1
              1               0               0 -1.12879252263384e-15 
              0               1               0 3.66894015169095e-15 
              0               0               1              30 
2  32 -1 0
2  1 -1 0
Curve2ds 36
1 0 0 0 -1 
1 6.2831853071795862 0 0 -1 
1 0 0 1 0 
1 0 -30 1 0 
1 0 0 1 0 
1 0 -30 1 0 
1 0 0 1 0 
1 0 -30 1 0 
1 0 0 1 0 
1 0 -100 1 0 
1 0 0 1 0 
1 0 -100 1 0 
1 0 0 1 0 
1 0 -30 1 0 
1 0 0 1 0 
1 0 -30 1 0 
1 0 0 1 0 
1 0 -100 1 0 
1 0 0 1 0 
1 0 -100 1 0 
1 0 0 1 0 
1 0 -90 1 0 
1 0 0 1 0 
1 0 -80 1 0 
1 0 0 1 0 
1 0 -70 1 0 
1 0 0 1 0 
1 0 -60 1 0 
1 0 0 1 0 
1 0 -50 1 0 
1 0 0 1 0 
1 0 -40 1 0 
1 0 0 1 0 
1 0 -30 1 0 
1 0 0 1 0 
1 0 -30 1 0 
Curves 2
1 100 -13.500000000000011 -2.1329745449740922e-16 -3.7626417421128034e-17 1.222980050563649e-16 1 
2 100 -26.000000000000011 1.315427608707152e-15 3.7626417421128034e-17 -1.222980050563649e-16 -1 0 1 -1.222980050563649e-16 1 4.6016357880220125e-33 3.7626417421128034e-17 12.5
Polygon3D 0
PolygonOnTriangulations 6
5 1 3 4 5 2 
p 3.00000002 1 0 7.5 15 22.5 30 
5 6 7 8 9 10 
p 3.00000002 1 0 7.5 15 22.5 30 
49 1 2 3 4 5 6 7 8 9 10 11 12 13 14 15 16 17 18 19 20 21 22 23 24 25 26 27 28 29 30 31 32 33 34 35 36 37 38 39 40 41 42 43 44 45 46 47 48 1 
p 2.70598052073099 1 0 0.130899693899575 0.261799387799149 0.392699081698724 0.523598775598299 0.654498469497873 0.785398163397448 0.916297857297023 1.0471975511966 1.17809724509617 1.30899693899575 1.43989663289532 1.5707963267949 1.70169602069447 1.83259571459405 1.96349540849362 2.0943951023932 2.22529479629277 2.35619449019234 2.48709418409192 2.61799387799149 2.74889357189107 2.87979326579064 3.01069295969022 3.14159265358979 3.27249234748937 3.40339204138894 3.53429173528852 3.66519142918809 3.79609112308767 3.92699081698724 4.05789051088681 4.18879020478639 4.31968989868596 4.45058959258554 4.58148928648511 4.71238898038469 4.84328867428426 4.97418836818384 5.10508806208341 5.23598775598299 5.36688744988256 5.49778714378213 5.62868683768171 5.75958653158128 5.89048622548086 6.02138591938043 6.15228561328001 6.28318530717959 
49 1 11 12 13 14 15 16 17 18 19 20 21 22 23 24 25 26 27 28 29 30 31 32 33 34 35 36 37 38 39 40 41 42 43 44 45 46 47 48 49 50 51 52 53 54 55 56 57 6 
p 3.0411961041462 1 0 0.130899693899575 0.261799387799149 0.392699081698724 0.523598775598299 0.654498469497873 0.785398163397448 0.916297857297023 1.0471975511966 1.17809724509617 1.30899693899575 1.43989663289532 1.5707963267949 1.70169602069447 1.83259571459405 1.96349540849362 2.0943951023932 2.22529479629277 2.35619449019234 2.48709418409192 2.61799387799149 2.74889357189107 2.87979326579064 3.01069295969022 3.14159265358979 3.27249234748937 3.40339204138894 3.53429173528852 3.66519142918809 3.79609112308767 3.92699081698724 4.05789051088681 4.18879020478639 4.31968989868596 4.45058959258554 4.58148928648511 4.71238898038469 4.84328867428426 4.97418836818384 5.10508806208341 5.23598775598299 5.36688744988256 5.49778714378213 5.62868683768171 5.75958653158128 5.89048622548086 6.02138591938043 6.15228561328001 6.28318530717959 
49 2 58 59 60 61 62 63 64 65 66 67 68 69 70 71 72 73 74 75 76 77 78 79 80 81 82 83 84 85 86 87 88 89 90 91 92 93 94 95 96 97 98 99 100 101 102 103 104 10 
p 3.0411961041462 1 0 0.130899693899575 0.261799387799149 0.392699081698724 0.523598775598299 0.654498469497873 0.785398163397448 0.916297857297023 1.0471975511966 1.17809724509617 1.30899693899575 1.43989663289532 1.5707963267949 1.70169602069447 1.83259571459405 1.96349540849362 2.0943951023932 2.22529479629277 2.35619449019234 2.48709418409192 2.61799387799149 2.74889357189107 2.87979326579064 3.01069295969022 3.14159265358979 3.27249234748937 3.40339204138894 3.53429173528852 3.66519142918809 3.79609112308767 3.92699081698724 4.05789051088681 4.18879020478639 4.31968989868596 4.45058959258554 4.58148928648511 4.71238898038469 4.84328867428426 4.97418836818384 5.10508806208341 5.23598775598299 5.36688744988256 5.49778714378213 5.62868683768171 5.75958653158128 5.89048622548086 6.02138591938043 6.15228561328001 6.28318530717959 
49 1 2 3 4 5 6 7 8 9 10 11 12 13 14 15 16 17 18 19 20 21 22 23 24 25 26 27 28 29 30 31 32 33 34 35 36 37 38 39 40 41 42 43 44 45 46 47 48 1 
p 3.0411961041462 1 0 0.130899693899575 0.261799387799149 0.392699081698724 0.523598775598299 0.654498469497873 0.785398163397448 0.916297857297023 1.0471975511966 1.17809724509617 1.30899693899575 1.43989663289532 1.5707963267949 1.70169602069447 1.83259571459405 1.96349540849362 2.0943951023932 2.22529479629277 2.35619449019234 2.48709418409192 2.61799387799149 2.74889357189107 2.87979326579064 3.01069295969022 3.14159265358979 3.27249234748937 3.40339204138894 3.53429173528852 3.66519142918809 3.79609112308767 3.92699081698724 4.05789051088681 4.18879020478639 4.31968989868596 4.45058959258554 4.58148928648511 4.71238898038469 4.84328867428426 4.97418836818384 5.10508806208341 5.23598775598299 5.36688744988256 5.49778714378213 5.62868683768171 5.75958653158128 5.89048622548086 6.02138591938043 6.15228561328001 6.28318530717959 
Surfaces 18
2 100 -26.000000000000011 1.315427608707152e-15 3.7626417421128034e-17 -1.222980050563649e-16 -1 0 1 -1.222980050563649e-16 1 4.6016357880220125e-33 3.7626417421128034e-17 12.5
2 100 -26.000000000000011 1.315427608707152e-15 -3.7626417421128034e-17 1.222980050563649e-16 1 0 1 -1.222980050563649e-16 1 4.6016357880220125e-33 3.7626417421128034e-17 12.5
2 100 -26.000000000000011 1.315427608707152e-15 3.7626417421128034e-17 -1.222980050563649e-16 -1 0 1 -1.222980050563649e-16 1 4.6016357880220125e-33 3.7626417421128034e-17 12.5
2 100 -26.000000000000011 1.315427608707152e-15 3.7626417421128034e-17 -1.222980050563649e-16 -1 0 1 -1.222980050563649e-16 1 4.6016357880220125e-33 3.7626417421128034e-17 12.5
2 100 -26.000000000000011 1.315427608707152e-15 -3.7626417421128034e-17 1.222980050563649e-16 1 0 1 -1.222980050563649e-16 1 4.6016357880220125e-33 3.7626417421128034e-17 12.5
2 100 -26.000000000000011 1.315427608707152e-15 3.7626417421128034e-17 -1.222980050563649e-16 -1 0 1 -1.222980050563649e-16 1 4.6016357880220125e-33 3.7626417421128034e-17 12.5
2 100 -26.000000000000011 1.315427608707152e-15 3.7626417421128034e-17 -1.222980050563649e-16 -1 0 1 -1.222980050563649e-16 1 4.6016357880220125e-33 3.7626417421128034e-17 12.5
2 100 -26.000000000000011 1.315427608707152e-15 3.7626417421128034e-17 -1.222980050563649e-16 -1 0 1 -1.222980050563649e-16 1 4.6016357880220125e-33 3.7626417421128034e-17 12.5
2 100 -26.000000000000011 1.315427608707152e-15 -3.7626417421128034e-17 1.222980050563649e-16 1 0 1 -1.222980050563649e-16 1 4.6016357880220125e-33 3.7626417421128034e-17 12.5
2 100 -26.000000000000011 1.315427608707152e-15 3.7626417421128034e-17 -1.222980050563649e-16 -1 0 1 -1.222980050563649e-16 1 4.6016357880220125e-33 3.7626417421128034e-17 12.5
2 100 -26.000000000000011 1.315427608707152e-15 3.7626417421128034e-17 -1.222980050563649e-16 -1 0 1 -1.222980050563649e-16 1 4.6016357880220125e-33 3.7626417421128034e-17 12.5
2 100 -26.000000000000011 1.315427608707152e-15 3.7626417421128034e-17 -1.222980050563649e-16 -1 0 1 -1.222980050563649e-16 1 4.6016357880220125e-33 3.7626417421128034e-17 12.5
2 100 -26.000000000000011 1.315427608707152e-15 3.7626417421128034e-17 -1.222980050563649e-16 -1 0 1 -1.222980050563649e-16 1 4.6016357880220125e-33 3.7626417421128034e-17 12.5
2 100 -26.000000000000011 1.315427608707152e-15 3.7626417421128034e-17 -1.222980050563649e-16 -1 0 1 -1.222980050563649e-16 1 4.6016357880220125e-33 3.7626417421128034e-17 12.5
2 100 -26.000000000000011 1.315427608707152e-15 3.7626417421128034e-17 -1.222980050563649e-16 -1 0 1 -1.222980050563649e-16 1 4.6016357880220125e-33 3.7626417421128034e-17 12.5
2 100 -26.000000000000011 1.315427608707152e-15 3.7626417421128034e-17 -1.222980050563649e-16 -1 0 1 -1.222980050563649e-16 1 4.6016357880220125e-33 3.7626417421128034e-17 12.5
2 100 -26.000000000000011 1.315427608707152e-15 3.7626417421128034e-17 -1.222980050563649e-16 -1 0 1 -1.222980050563649e-16 1 4.6016357880220125e-33 3.7626417421128034e-17 12.5
1 43.252226846963076 -22.741094198978868 -1.2183454697999985e-15 3.7626417421128034e-17 -1.222980050563649e-16 -1 0 1 -1.222980050563649e-16 1 4.6016357880220125e-33 3.7626417421128034e-17 
Triangulations 3
104 102 1 3.0205980620731
100 -13.5 -2.13297454497409e-16 100 -13.5 30 100 -13.5 7.5 100 -13.5 15 100 -13.5 22.5 100 -13.5 -2.13297454497409e-16 100 -13.5 7.5 100 -13.5 15 100 -13.5 22.5 100 -13.5 30 101.631577402751 -13.6069392328274 -1.38828587249588e-16 103.235238063782 -13.9259271713867 -3.94769932929566e-17 104.783542904564 -14.4515058436089 8.30573940544205e-17 106.25 -15.1746824526945 2.2667797745208e-16 107.609517862609 -16.0830832463596 3.8892736889894e-16 108.838834764832 -17.1611652351682 5.67029436323314e-16 109.91691675364 -18.390482137391 7.57936803972349e-16 110.825317547305 -19.75 9.58382993856049e-16 111.548494156391 -21.2164570954364 1.16493831609132e-15 112.074072828613 -22.7647619362185 1.37406855184676e-15 112.393060767173 -24.3684225972494 1.58219542480675e-15 112.5 -26 1.78575782647125e-15 112.393060767173 -27.6315774027507 1.98127274770964e-15 112.074072828613 -29.2352380637815 2.16539487401255e-15 111.548494156391 -30.7835429045636 2.33497382475064e-15 110.825317547305 -32.25 2.48710805706061e-15 109.91691675364 -33.609517862609 2.61919451204806e-15 108.838834764832 -34.8388347648319 2.72897315384687e-15 107.609517862609 -35.9169167536405 2.81456563945948e-15 106.25 -36.8253175473055 2.87450745772632e-15 104.783542904564 -37.5484941563911 2.90777298751786e-15 103.235238063782 -38.0740728286134 2.91379304639639e-15 101.631577402751 -38.3930607671726 2.89246462948544e-15 100 -38.5 2.84415267191171e-15 98.3684225972494 -38.3930607671726 2.76968380466389e-15 96.7647619362185 -38.0740728286134 2.67033221070726e-15 95.2164570954364 -37.5484941563911 2.54779782335988e-15 93.75 -36.8253175473055 2.40417723996223e-15 92.390482137391 -35.9169167536405 2.24192784851537e-15 91.1611652351682 -34.8388347648319 2.06382578109099e-15 90.0830832463596 -33.609517862609 1.87291841344196e-15 89.1746824526945 -32.25 1.67247222355826e-15 88.4515058436089 -30.7835429045637 1.46591690132299e-15 87.9259271713867 -29.2352380637816 1.25678666556755e-15 87.6069392328274 -27.6315774027507 1.04865979260756e-15 87.5 -26 8.45097390943056e-16 87.6069392328274 -24.3684225972494 6.49582469704665e-16 87.9259271713866 -22.7647619362185 4.65460343401755e-16 88.4515058436089 -21.2164570954364 2.95881392663667e-16 89.1746824526945 -19.75 1.43747160353697e-16 90.0830832463595 -18.390482137391 1.16607053662468e-17 91.1611652351681 -17.1611652351682 -9.8117936432565e-17 92.3904821373909 -16.0830832463596 -1.83710422045171e-16 93.75 -15.1746824526946 -2.43652240312018e-16 95.2164570954363 -14.4515058436089 -2.76917770103551e-16 96.7647619362184 -13.9259271713867 -2.82937828982088e-16 98.3684225972493 -13.6069392328274 -2.61609412071141e-16 101.631577402751 -13.6069392328274 30 103.235238063782 -13.9259271713867 30 104.783542904564 -14.4515058436089 30 106.25 -15.1746824526945 30 107.609517862609 -16.0830832463596 30 108.838834764832 -17.1611652351682 30 109.91691675364 -18.390482137391 30 110.825317547305 -19.75 30 111.548494156391 -21.2164570954364 30 112.074072828613 -22.7647619362185 30 112.393060767173 -24.3684225972494 30 112.5 -26 30 112.393060767173 -27.6315774027507 30 112.074072828613 -29.2352380637815 30 111.548494156391 -30.7835429045636 30 110.825317547305 -32.25 30 109.91691675364 -33.609517862609 30 108.838834764832 -34.8388347648318 30 107.609517862609 -35.9169167536404 30 106.25 -36.8253175473055 30 104.783542904564 -37.5484941563911 30 103.235238063782 -38.0740728286134 30 101.631577402751 -38.3930607671726 30 100 -38.5 30 98.3684225972494 -38.3930607671726 30 96.7647619362185 -38.0740728286134 30 95.2164570954364 -37.5484941563911 30 93.75 -36.8253175473055 30 92.390482137391 -35.9169167536405 30 91.1611652351682 -34.8388347648319 30 90.0830832463596 -33.609517862609 30 89.1746824526945 -32.25 30 88.4515058436089 -30.7835429045637 30 87.9259271713867 -29.2352380637815 30 87.6069392328274 -27.6315774027507 30 87.5 -26 30 87.6069392328274 -24.3684225972494 30 87.9259271713866 -22.7647619362185 30 88.4515058436089 -21.2164570954364 30 89.1746824526945 -19.75 30 90.0830832463595 -18.390482137391 30 91.1611652351681 -17.1611652351682 30 92.3904821373909 -16.0830832463596 30 93.75 -15.1746824526945 30 95.2164570954363 -14.4515058436089 30 96.7647619362184 -13.9259271713867 30 98.3684225972493 -13.6069392328274 30 0 0 0 -30 0 -7.5 0 -15 0 -22.5 6.28318530717959 0 6.28318530717959 -7.5 6.28318530717959 -15 6.28318530717959 -22.5 6.28318530717959 -30 0.130899693899575 0 0.261799387799149 0 0.392699081698724 0 0.523598775598299 0 0.654498469497873 0 0.785398163397448 0 0.916297857297023 0 1.0471975511966 0 1.17809724509617 0 1.30899693899575 0 1.43989663289532 0 1.5707963267949 0 1.70169602069447 0 1.83259571459405 0 1.96349540849362 0 2.0943951023932 0 2.22529479629277 0 2.35619449019234 0 2.48709418409192 0 2.61799387799149 0 2.74889357189107 0 2.87979326579064 0 3.01069295969022 0 3.14159265358979 0 3.27249234748937 0 3.40339204138894 0 3.53429173528852 0 3.66519142918809 0 3.79609112308767 0 3.92699081698724 0 4.05789051088681 0 4.18879020478639 0 4.31968989868596 0 4.45058959258554 0 4.58148928648511 0 4.71238898038469 0 4.84328867428426 0 4.97418836818384 0 5.10508806208341 0 5.23598775598298 0 5.36688744988256 0 5.49778714378213 0 5.62868683768171 0 5.75958653158128 0 5.89048622548086 0 6.02138591938043 0 6.15228561328001 0 0.130899693899575 -30 0.261799387799149 -30 0.392699081698724 -30 0.523598775598299 -30 0.654498469497873 -30 0.785398163397448 -30 0.916297857297023 -30 1.0471975511966 -30 1.17809724509617 -30 1.30899693899575 -30 1.43989663289532 -30 1.5707963267949 -30 1.70169602069447 -30 1.83259571459405 -30 1.96349540849362 -30 2.0943951023932 -30 2.22529479629277 -30 2.35619449019234 -30 2.48709418409192 -30 2.61799387799149 -30 2.74889357189107 -30 2.87979326579064 -30 3.01069295969022 -30 3.14159265358979 -30 3.27249234748937 -30 3.40339204138894 -30 3.53429173528852 -30 3.66519142918809 -30 3.79609112308767 -30 3.92699081698724 -30 4.05789051088681 -30 4.18879020478639 -30 4.31968989868596 -30 4.45058959258554 -30 4.58148928648511 -30 4.71238898038469 -30 4.84328867428426 -30 4.97418836818384 -30 5.10508806208341 -30 5.23598775598298 -30 5.36688744988256 -30 5.49778714378213 -30 5.62868683768171 -30 5.75958653158128 -30 5.89048622548086 -30 6.02138591938043 -30 6.15228561328001 -30 2 58 5 5 58 4 13 59 60 14 60 61 12 58 59 63 16 62 61 62 15 64 17 63 18 64 65 20 66 67 19 65 66 68 21 67 22 68 69 23 69 70 25 71 72 26 72 73 24 70 71 28 74 75 29 75 76 31 77 78 33 79 80 32 78 79 30 76 77 27 73 74 33 80 81 3 4 11 1 3 11 11 4 58 11 58 12 13 12 59 13 60 14 14 61 15 16 63 17 18 65 19 64 18 17 62 16 15 20 19 66 20 67 21 21 68 22 23 70 24 24 71 25 69 23 22 26 73 27 27 74 28 29 76 30 31 78 32 77 31 30 75 29 28 72 26 25 79 33 32 81 34 33 36 82 83 37 83 84 39 85 86 40 86 87 38 84 85 42 88 89 43 89 90 45 91 92 47 93 94 46 92 93 44 90 91 41 87 88 49 95 96 50 96 97 52 98 99 53 99 100 51 97 98 55 101 102 56 102 103 104 10 9 9 8 104 103 104 57 100 101 54 94 95 48 57 104 8 34 82 35 35 82 36 37 84 38 38 85 39 83 37 36 40 87 41 41 88 42 43 90 44 45 92 46 91 45 44 89 43 42 86 40 39 47 94 48 48 95 49 97 51 50 50 49 96 98 52 51 46 93 47 52 99 53 53 100 54 55 102 56 6 57 7 103 57 56 101 55 54 7 57 8 82 34 81 
49 48 1 2.70598052073099
100 -13.5 -2.13297454497409e-16 101.631577402751 -13.6069392328274 -1.38828587249588e-16 103.235238063782 -13.9259271713867 -3.94769932929566e-17 104.783542904564 -14.4515058436089 8.30573940544205e-17 106.25 -15.1746824526945 2.2667797745208e-16 107.609517862609 -16.0830832463596 3.8892736889894e-16 108.838834764832 -17.1611652351682 5.67029436323314e-16 109.91691675364 -18.390482137391 7.57936803972349e-16 110.825317547305 -19.75 9.58382993856049e-16 111.548494156391 -21.2164570954364 1.16493831609132e-15 112.074072828613 -22.7647619362185 1.37406855184676e-15 112.393060767173 -24.3684225972494 1.58219542480675e-15 112.5 -26 1.78575782647125e-15 112.393060767173 -27.6315774027507 1.98127274770964e-15 112.074072828613 -29.2352380637815 2.16539487401255e-15 111.548494156391 -30.7835429045636 2.33497382475064e-15 110.825317547305 -32.25 2.48710805706061e-15 109.91691675364 -33.609517862609 2.61919451204806e-15 108.838834764832 -34.8388347648319 2.72897315384687e-15 107.609517862609 -35.9169167536405 2.81456563945948e-15 106.25 -36.8253175473055 2.87450745772632e-15 104.783542904564 -37.5484941563911 2.90777298751786e-15 103.235238063782 -38.0740728286134 2.91379304639639e-15 101.631577402751 -38.3930607671726 2.89246462948544e-15 100 -38.5 2.84415267191171e-15 98.3684225972494 -38.3930607671726 2.76968380466389e-15 96.7647619362185 -38.0740728286134 2.67033221070726e-15 95.2164570954364 -37.5484941563911 2.54779782335988e-15 93.75 -36.8253175473055 2.40417723996223e-15 92.390482137391 -35.9169167536405 2.24192784851537e-15 91.1611652351682 -34.8388347648319 2.06382578109099e-15 90.0830832463596 -33.609517862609 1.87291841344196e-15 89.1746824526945 -32.25 1.67247222355826e-15 88.4515058436089 -30.7835429045637 1.46591690132299e-15 87.9259271713867 -29.2352380637816 1.25678666556755e-15 87.6069392328274 -27.6315774027507 1.04865979260756e-15 87.5 -26 8.45097390943056e-16 87.6069392328274 -24.3684225972494 6.49582469704665e-16 87.9259271713866 -22.7647619362185 4.65460343401755e-16 88.4515058436089 -21.2164570954364 2.95881392663667e-16 89.1746824526945 -19.75 1.43747160353697e-16 90.0830832463595 -18.390482137391 1.16607053662468e-17 91.1611652351681 -17.1611652351682 -9.8117936432565e-17 92.3904821373909 -16.0830832463596 -1.83710422045171e-16 93.75 -15.1746824526946 -2.43652240312018e-16 95.2164570954363 -14.4515058436089 -2.76917770103551e-16 96.7647619362184 -13.9259271713867 -2.82937828982088e-16 98.3684225972493 -13.6069392328274 -2.61609412071141e-16 100 -26 1.31542760870715e-15 9.24109419897886 56.7477731530369 9.13415496615148 58.3793505557876 8.81516702759221 59.9830112168184 8.28958835536994 61.5313160576005 7.56641174628434 62.9977731530369 6.6580109526193 64.3572910156459 5.5799289638107 65.5866079178688 4.35061206158787 66.6646899066774 2.99109419897886 67.5730907003424 1.52463710354248 68.296267309428 -0.0236677372396343 68.8218459816503 -1.6273283982705 69.1408339202096 -3.25890580102114 69.2477731530369 -4.89048320377179 69.1408339202096 -6.49414386480266 68.8218459816503 -8.04244870558477 68.296267309428 -9.50890580102115 67.5730907003424 -10.8684236636302 66.6646899066774 -12.097740565853 65.5866079178688 -13.1758225546616 64.3572910156459 -14.0842233483266 62.9977731530369 -14.8073999574122 61.5313160576005 -15.3329786296345 59.9830112168184 -15.6519665681938 58.3793505557876 -15.7589058010211 56.7477731530369 -15.6519665681938 55.1161957502863 -15.3329786296345 53.5125350892554 -14.8073999574122 51.9642302484733 -14.0842233483266 50.4977731530369 -13.1758225546616 49.1382552904279 -12.097740565853 47.9089383882051 -10.8684236636302 46.8308563993965 -9.50890580102117 45.9224556057315 -8.04244870558479 45.1992789966459 -6.49414386480268 44.6737003244236 -4.89048320377182 44.3547123858643 -3.25890580102118 44.2477731530369 -1.62732839827054 44.3547123858643 -0.0236677372396716 44.6737003244236 1.52463710354244 45.1992789966458 2.99109419897882 45.9224556057314 4.35061206158783 46.8308563993965 5.57992896381067 47.908938388205 6.65801095261927 49.1382552904279 7.56641174628432 50.4977731530369 8.28958835536992 51.9642302484733 8.8151670275922 53.5125350892554 9.13415496615148 55.1161957502862 -3.25890580102114 56.7477731530369 49 29 30 27 28 49 49 25 26 26 27 49 29 49 28 49 35 36 34 35 49 49 33 34 32 33 49 49 30 31 49 31 32 23 49 22 24 49 23 20 49 19 49 20 21 49 24 25 19 49 18 18 49 17 15 49 14 16 17 49 21 22 49 15 16 49 37 49 36 49 38 39 49 39 40 49 41 42 41 49 40 49 42 43 38 49 37 44 45 49 49 45 46 47 48 49 49 46 47 49 43 44 49 48 1 9 49 8 49 9 10 12 13 49 49 11 12 11 49 10 8 49 7 4 49 3 7 49 6 49 5 6 4 5 49 2 3 49 49 1 2 49 13 14 
49 48 1 3.0411961041462
100 -13.5 -2.13297454497409e-16 101.631577402751 -13.6069392328274 -1.38828587249588e-16 103.235238063782 -13.9259271713867 -3.94769932929566e-17 104.783542904564 -14.4515058436089 8.30573940544205e-17 106.25 -15.1746824526945 2.2667797745208e-16 107.609517862609 -16.0830832463596 3.8892736889894e-16 108.838834764832 -17.1611652351682 5.67029436323314e-16 109.91691675364 -18.390482137391 7.57936803972349e-16 110.825317547305 -19.75 9.58382993856049e-16 111.548494156391 -21.2164570954364 1.16493831609132e-15 112.074072828613 -22.7647619362185 1.37406855184676e-15 112.393060767173 -24.3684225972494 1.58219542480675e-15 112.5 -26 1.78575782647125e-15 112.393060767173 -27.6315774027507 1.98127274770964e-15 112.074072828613 -29.2352380637815 2.16539487401255e-15 111.548494156391 -30.7835429045636 2.33497382475064e-15 110.825317547305 -32.25 2.48710805706061e-15 109.91691675364 -33.609517862609 2.61919451204806e-15 108.838834764832 -34.8388347648319 2.72897315384687e-15 107.609517862609 -35.9169167536405 2.81456563945948e-15 106.25 -36.8253175473055 2.87450745772632e-15 104.783542904564 -37.5484941563911 2.90777298751786e-15 103.235238063782 -38.0740728286134 2.91379304639639e-15 101.631577402751 -38.3930607671726 2.89246462948544e-15 100 -38.5 2.84415267191171e-15 98.3684225972494 -38.3930607671726 2.76968380466389e-15 96.7647619362185 -38.0740728286134 2.67033221070726e-15 95.2164570954364 -37.5484941563911 2.54779782335988e-15 93.75 -36.8253175473055 2.40417723996223e-15 92.390482137391 -35.9169167536405 2.24192784851537e-15 91.1611652351682 -34.8388347648319 2.06382578109099e-15 90.0830832463596 -33.609517862609 1.87291841344196e-15 89.1746824526945 -32.25 1.67247222355826e-15 88.4515058436089 -30.7835429045637 1.46591690132299e-15 87.9259271713867 -29.2352380637816 1.25678666556755e-15 87.6069392328274 -27.6315774027507 1.04865979260756e-15 87.5 -26 8.45097390943056e-16 87.6069392328274 -24.3684225972494 6.49582469704665e-16 87.9259271713866 -22.7647619362185 4.65460343401755e-16 88.4515058436089 -21.2164570954364 2.95881392663667e-16 89.1746824526945 -19.75 1.43747160353697e-16 90.0830832463595 -18.390482137391 1.16607053662468e-17 91.1611652351681 -17.1611652351682 -9.8117936432565e-17 92.3904821373909 -16.0830832463596 -1.83710422045171e-16 93.75 -15.1746824526946 -2.43652240312018e-16 95.2164570954363 -14.4515058436089 -2.76917770103551e-16 96.7647619362184 -13.9259271713867 -2.82937828982088e-16 98.3684225972493 -13.6069392328274 -2.61609412071141e-16 100 -26 1.31542760870715e-15 9.24109419897886 56.7477731530369 9.13415496615148 58.3793505557876 8.81516702759221 59.9830112168184 8.28958835536994 61.5313160576005 7.56641174628434 62.9977731530369 6.6580109526193 64.3572910156459 5.5799289638107 65.5866079178688 4.35061206158787 66.6646899066774 2.99109419897886 67.5730907003424 1.52463710354248 68.296267309428 -0.0236677372396343 68.8218459816503 -1.6273283982705 69.1408339202096 -3.25890580102114 69.2477731530369 -4.89048320377179 69.1408339202096 -6.49414386480266 68.8218459816503 -8.04244870558477 68.296267309428 -9.50890580102115 67.5730907003424 -10.8684236636302 66.6646899066774 -12.097740565853 65.5866079178688 -13.1758225546616 64.3572910156459 -14.0842233483266 62.9977731530369 -14.8073999574122 61.5313160576005 -15.3329786296345 59.9830112168184 -15.6519665681938 58.3793505557876 -15.7589058010211 56.7477731530369 -15.6519665681938 55.1161957502863 -15.3329786296345 53.5125350892554 -14.8073999574122 51.9642302484733 -14.0842233483266 50.4977731530369 -13.1758225546616 49.1382552904279 -12.097740565853 47.9089383882051 -10.8684236636302 46.8308563993965 -9.50890580102117 45.9224556057315 -8.04244870558479 45.1992789966459 -6.49414386480268 44.6737003244236 -4.89048320377182 44.3547123858643 -3.25890580102118 44.2477731530369 -1.62732839827054 44.3547123858643 -0.0236677372396716 44.6737003244236 1.52463710354244 45.1992789966458 2.99109419897882 45.9224556057314 4.35061206158783 46.8308563993965 5.57992896381067 47.908938388205 6.65801095261927 49.1382552904279 7.56641174628432 50.4977731530369 8.28958835536992 51.9642302484733 8.8151670275922 53.5125350892554 9.13415496615148 55.1161957502862 -3.25890580102114 56.7477731530369 49 29 30 27 28 49 49 25 26 26 27 49 29 49 28 49 35 36 34 35 49 49 33 34 32 33 49 49 30 31 49 31 32 23 49 22 24 49 23 20 49 19 49 20 21 49 24 25 19 49 18 18 49 17 15 49 14 16 17 49 21 22 49 15 16 49 37 49 36 49 38 39 49 39 40 49 41 42 41 49 40 49 42 43 38 49 37 44 45 49 49 45 46 47 48 49 49 46 47 49 43 44 49 48 1 9 49 8 49 9 10 12 13 49 49 11 12 11 49 10 8 49 7 4 49 3 7 49 6 49 5 6 4 5 49 2 3 49 49 1 2 49 13 14 

TShapes 9
Ve
1e-07
100 -13.5 -2.13297454497409e-16
0 0

0101100
*
Ed
 1e-07 1 1 0
1  1 0 0 30
3  1 2CN 1 0 0 30
7  1 2 1 0
0

0101000
+9 0 -9 1 *
Ed
 1e-07 1 1 0
1  2 0 0 6.28318530717959
2  3 2 0 0 6.28318530717959
2  4 2 3 0 6.28318530717959
2  5 3 0 0 6.28318530717959
2  6 3 5 0 6.28318530717959
2  7 4 0 0 6.28318530717959
2  8 4 7 0 6.28318530717959
6  3 2 0
2  9 5 0 0 6.28318530717959
2  10 5 9 0 6.28318530717959
2  11 6 0 0 6.28318530717959
2  12 6 11 0 6.28318530717959
2  13 7 0 0 6.28318530717959
2  14 7 13 0 6.28318530717959
2  15 8 0 0 6.28318530717959
2  16 8 15 0 6.28318530717959
2  17 9 0 0 6.28318530717959
2  18 9 17 0 6.28318530717959
2  19 10 0 0 6.28318530717959
2  20 10 19 0 6.28318530717959
2  21 11 0 0 6.28318530717959
2  22 11 21 0 6.28318530717959
2  23 12 0 0 6.28318530717959
2  24 12 23 0 6.28318530717959
2  25 13 0 0 6.28318530717959
2  26 13 25 0 6.28318530717959
2  27 14 0 0 6.28318530717959
2  28 14 27 0 6.28318530717959
2  29 15 0 0 6.28318530717959
2  30 15 29 0 6.28318530717959
2  31 16 0 0 6.28318530717959
2  32 16 31 0 6.28318530717959
2  33 17 0 0 6.28318530717959
2  34 17 33 0 6.28318530717959
2  35 1 0 0 6.28318530717959
2  36 1 34 0 6.28318530717959
6  4 1 0
6  5 1 34
6  6 3 0
0

0101100
+9 0 -9 0 *
Wi

0101000
+8 0 -8 0 -7 0 +7 1 *
Fa
0  1e-07 1 0
2  1
0111000
+6 0 *
Wi

0101100
+7 0 *
Fa
0  1e-07 18 0
2  3
0111000
+4 0 *
Sh

0101000
+5 0 +3 0 -3 1 *
So

1100000
+2 0 *

+1 0 