DBRep_DrawableShape

CASCADE Topology V1, (c) Matra-Datavision
Locations 0
Curve2ds 24
6 0 1 0 0  0 1  
6 0 1 0 0  1 0  
6 0 1 0 0  1 0  
6 0 1 0 0  0 1  
6 0 1 1 0  1 1  
6 0 1 0 0  0 1  
6 0 1 0 1  1 1  
6 0 1 0 0  1 0  
6 0 1 0 0  0 1  
6 0 1 0 0  1 0  
6 0 1 1 0  1 1  
6 0 1 0 0  0 1  
6 0 1 0 1  1 1  
6 0 1 0 0  1 0  
6 0 1 1 0  1 1  
6 0 1 0 0  0 1  
6 0 1 0 1  1 1  
6 0 1 0 0  1 0  
6 0 1 1 0  1 1  
6 0 1 0 1  1 1  
6 0 1 0 1  1 1  
6 0 1 1 0  1 1  
6 0 1 0 1  1 1  
6 0 1 1 0  1 1  
Curves 12
6 0 1 0 0 0  99.999999999999972 -3.5527136788005009e-15 0  
6 0 1 0 0 0  3.5527136788005009e-15 99.999999999999972 0  
6 0 1 3.5527136788005009e-15 99.999999999999972 0  99.999999999999972 99.999999999999972 0  
6 0 1 99.999999999999972 -3.5527136788005009e-15 0  99.999999999999972 99.999999999999972 0  
6 0 1 0 0 0  0 0 100  
6 0 1 99.999999999999972 -3.5527136788005009e-15 0  99.999999999999972 -3.5527136788005009e-15 100  
6 0 1 0 0 100  99.999999999999972 -3.5527136788005009e-15 100  
6 0 1 0 0 100  3.5527136788005009e-15 99.999999999999972 100  
6 0 1 3.5527136788005009e-15 99.999999999999972 0  3.5527136788005009e-15 99.999999999999972 100  
6 0 1 3.5527136788005009e-15 99.999999999999972 100  99.999999999999972 99.999999999999972 100  
6 0 1 99.999999999999986 99.999999999999986 0  99.999999999999986 99.999999999999986 100  
6 0 1 99.999999999999972 -3.5527136788005009e-15 100  99.999999999999972 99.999999999999972 100  
Polygon3D 0
PolygonOnTriangulations 0
Surfaces 6
8 0 0 1 1 0 0 0  99.999999999999972 -3.5527136788005009e-15 0  
3.5527136788005009e-15 99.999999999999972 0  99.999999999999972 99.999999999999972 0  

8 0 0 1 1 0 0 0  0 0 100  
99.999999999999972 -3.5527136788005009e-15 0  99.999999999999972 -3.5527136788005009e-15 100  

8 0 0 1 1 0 0 0  3.5527136788005009e-15 99.999999999999972 0  
0 0 100  3.5527136788005009e-15 99.999999999999972 100  

8 0 0 1 1 3.5527136788005009e-15 99.999999999999972 0  99.999999999999972 99.999999999999972 0  
3.5527136788005009e-15 99.999999999999972 100  99.999999999999972 99.999999999999972 100  

8 0 0 1 1 99.999999999999972 -3.5527136788005009e-15 0  99.999999999999972 -3.5527136788005009e-15 100  
99.999999999999972 99.999999999999972 0  99.999999999999972 99.999999999999972 100  

8 0 0 1 1 0 0 100  3.5527136788005009e-15 99.999999999999972 100  
99.999999999999972 -3.5527136788005009e-15 100  99.999999999999972 99.999999999999972 100  

Triangulations 0

TShapes 34
Ve
0.0011
0 0 0
0 0

0101100
*
Ve
0.0011
100 -3.5527136788005e-15 0
0 0

0101100
*
Ed
 1e-07 1 1 0
1  1 0 0 1
2  1 1 0 0 1
2  2 2 0 0 1
0

0101000
+34 0 -33 0 *
Ve
0.0011
3.5527136788005e-15 100 0
0 0

0101100
*
Ed
 1e-07 1 1 0
1  2 0 0 1
2  3 1 0 0 1
2  4 3 0 0 1
0

0101000
+34 0 -31 0 *
Ve
0.0011
100 100 0
0 0

0101100
*
Ed
 1e-07 1 1 0
1  3 0 0 1
2  5 1 0 0 1
2  6 4 0 0 1
0

0101000
+31 0 -29 0 *
Ed
 1e-07 1 1 0
1  4 0 0 1
2  7 1 0 0 1
2  8 5 0 0 1
0

0101000
+33 0 -29 0 *
Wi

0101100
-32 0 +30 0 +28 0 -27 0 *
Fa
1  1e-07 1 0

0101000
+26 0 *
Ve
0.0011
0 0 100
0 0

0101100
*
Ed
 1e-07 1 1 0
1  5 0 0 1
2  9 2 0 0 1
2  10 3 0 0 1
0

0101000
+34 0 -24 0 *
Ve
0.0011
100 -3.5527136788005e-15 100
0 0

0101100
*
Ed
 1e-07 1 1 0
1  6 0 0 1
2  11 2 0 0 1
2  12 5 0 0 1
0

0101000
+33 0 -22 0 *
Ed
 1e-07 1 1 0
1  7 0 0 1
2  13 2 0 0 1
2  14 6 0 0 1
0

0101000
+24 0 -22 0 *
Wi

0101100
-23 0 +32 0 +21 0 -20 0 *
Fa
1  1e-07 2 0

0101000
+19 0 *
Ve
0.0011
3.5527136788005e-15 100 100
0 0

0101100
*
Ed
 1e-07 1 1 0
1  8 0 0 1
2  15 3 0 0 1
2  16 6 0 0 1
0

0101000
+24 0 -17 0 *
Ed
 1e-07 1 1 0
1  9 0 0 1
2  17 3 0 0 1
2  18 4 0 0 1
0

0101000
+31 0 -17 0 *
Wi

0101100
-30 0 +23 0 +16 0 -15 0 *
Fa
1  1e-07 3 0

0101000
+14 0 *
Ve
0.0011
100 100 100
0 0

0101100
*
Ed
 1e-07 1 1 0
1  10 0 0 1
2  19 4 0 0 1
2  20 6 0 0 1
0

0101000
+17 0 -12 0 *
Ed
 1e-07 1 1 0
1  11 0 0 1
2  21 4 0 0 1
2  22 5 0 0 1
0

0101000
+29 0 -12 0 *
Wi

0101100
-28 0 +15 0 +11 0 -10 0 *
Fa
1  1e-07 4 0

0101000
+9 0 *
Ed
 1e-07 1 1 0
1  12 0 0 1
2  23 5 0 0 1
2  24 6 0 0 1
0

0101000
+22 0 -12 0 *
Wi

0101100
-21 0 +27 0 +10 0 -7 0 *
Fa
1  1e-07 5 0

0101000
+6 0 *
Wi

0101100
-16 0 +20 0 +7 0 -11 0 *
Fa
1  1e-07 6 0

0101000
+4 0 *
Sh

0101000
+25 0 +18 0 +13 0 +8 0 +5 0 +3 0 *
So

1100000
+2 0 *

+1 0 