DBRep_DrawableShape

CASCADE Topology V1, (c) Matra-Datavision
Locations 0
Curve2ds 16
6 0 1 0.39609436538249554 1  1 0.99999999999999867  
6 0 12 0.28711613187062068 0.54653351311860598  0.20409348693547186 0.58505645848685661  0.18223562179745836 0.62305114686875629  0.22252028282277883 0.66128186835121239  0.21787351593257795 0.69895973497810671  0.30672814043421731 0.73464552090387614  0.50214561318489637 0.77202085676844345  0.40065924443348644 0.80938047988376516  0.45770306805762456 0.84705753232901415  0.43885774746968959 0.88487243153448658  0.43728451763889853 0.92279436099478485  0.42120648462352994 0.96109703094104071  0.39609436538236092 1.0000000000000047  
6 0 11 0.40328954731368261 0.26915946735221052  0.47253140819746647 0.29543186210501277  0.52264611126731375 0.32113408968110491  0.5775395839937878 0.34609520766164953  0.5428897542570128 0.37169296420827375  0.68090722919482505 0.39853329801099663  0.4880299904187696 0.4191959910254206  0.63656846448697668 0.45268668003459028  0.4981242505690251 0.47094720884185626  0.42285224332409849 0.49691352800893951  0.34074560987289665 0.5216491350201059  0.28711612397412101 0.54653351304717424  
6 0 11 0.42643257493727105 -2.2204460492503131e-16  0.4161562616108101 0.024491220736111229  0.3844285204351286 0.048496986349986906  0.32545979482916754 0.072401265083897756  0.2857689385642268 0.096423016128427602  0.17190668283603175 0.1208734980810728  0.25503633224967104 0.14493317903116065  0.055472070176426663 0.1719197641753559  0.20718199001763304 0.1912510089748401  0.24830528751713313 0.21805301709928068  0.33462741617095981 0.24310704242380038  0.40328956315128317 0.26915946627209508  
6 0 1 1 9.642577112850858e-16  0.42643257493727105 -2.2204460492503131e-16  
6 0 1 1 0  1 1  
6 0 1 0 0  0 1  
6 0 1 0 1  1 0.99999999999999734  
6 0 1 1 3.0325451773669957e-15  0 9.6425771128508561e-16  
6 0 1 1 0  1 1  
6 0 1 0 0  0 1  
6 0 1 0 1  0.60390563462028402 0.99999999999999845  
6 0 1 0.5735674250619951 4.2188474935755949e-15  0 3.0325451773669957e-15  
6 0 11 0.59671043684939185 0.2691594662718525  0.66154795895551544 0.2445582167991304  0.7467727840302768 0.21932126423972775  0.79599287755748926 0.19072561948337419  0.94648251569856057 0.17254650154323919  0.74087022366451571 0.14483527130282745  0.83236445634644696 0.12103314194854392  0.71181033449522624 0.096395744333887604  0.67536996029959018 0.07236426149633414  0.61566396914267885 0.048605218158482753  0.5838738090815494 0.024562887292252811  0.57356742506190206 4.4131365228849972e-15  
6 0 11 0.71288387602609116 0.5465335130471709  0.65925443075017987 0.52164915386940958  0.57714788291036923 0.49691357573302802  0.50187609745275585 0.47094727924236807  0.36343168692603284 0.45268675426115523  0.5119698640410868 0.41919611977906424  0.3190930631532905 0.39853337910374459  0.45710994393095589 0.37169306513100686  0.42246040615616598 0.34609527895341352  0.47735375610105002 0.32113414734737278  0.52746851000115957 0.29543189314287788  0.59671045268649636 0.26915946735222818  
6 0 12 0.6039056346202839 1  0.57877828211269178 0.96107343200523287  0.56269359126708085 0.92275133522669617  0.56116686364884616 0.88480839189207572  0.54218413220101602 0.84698382967719688  0.59961538661577773 0.80928196746843506  0.49740658106836233 0.77194404818726137  0.69415907926213072 0.73453166419362792  0.78200185135739564 0.69887326715798148  0.77766860253963088 0.66115545060978376  0.81784186540276493 0.62292343042797527  0.79567339888956856 0.58494829227953138  0.71288386812836724 0.54653351311859388  
Curves 14
6 0 2 132.97837678091051 -7.0074442129857832 -36.759966526980129  132.97837678091031 -6.0037221064928916 -25.287370391857017  132.97837678091011 -5 -13.814774256733907  
6 0 12 5.838775600028864 -7.3696990284146668 -40.900557999993175  16.639555926962565 -7.6456748076891863 -44.054975580527802  27.292227442089057 -7.718332591230606 -44.88545784374778  38.01107618341134 -7.5844222499264742 -43.354855644033002  48.574919543089614 -7.5998685792324521 -43.531407995283296  58.580237955161522 -7.3045067022660692 -40.155406304934303  69.059259962868779 -6.654918997987564 -32.730584895403581  79.533876545571161 -6.9922700872491799 -36.586525476747646  90.097491630942272 -6.8026505721155459 -34.419164508630914  100.6997551780459 -6.8652943488722986 -35.135186150924461  111.3320270814077 -6.8705239260420274 -35.19496049128783  122.07104820427479 -6.9239689553370578 -35.805839969338244  132.97837678091196 -7.0074442129903938 -36.759966527002433  
6 0 11 -71.929320999998183 -6.9835266909406553 -36.486587999993787  -64.563260028413353 -6.7533596499995854 -33.855766692729951  -57.357058339827176 -6.5867732416337299 -31.951675338739069  -50.358643513391584 -6.4043017132366264 -29.866016232583561  -43.181732644338688 -6.5194812979277978 -31.182524905273041  -35.65643709554336 -6.0606970682802297 -25.93859718279462  -29.863183073114428 -6.701840774525702 -33.266903253508985  -20.473309803339902 -6.2080836656591183 -27.623233693754269  -15.353556928383171 -6.668286419403695 -32.883375220803003  -8.0733111802576438 -6.9184982847700782 -35.743309918857776  -1.1381234622045922 -7.1914291480069013 -38.86292394994193  5.8387755800002354 -7.3696990546646459 -40.900558300023548  
6 0 11 -147.39427447112249 -6.9065968956037249 -35.607276418681579  -140.52760598093519 -6.9407564141369695 -35.997721500808446  -133.79704583045577 -7.0462226770149803 -37.203206397527744  -127.09493982551952 -7.2422407635828998 -39.443703371566372  -120.35989779751651 -7.3741772370140692 -40.95174415832868  -113.50465134799018 -7.7526670427680751 -45.277902419260286  -106.7589748117863 -7.4763355696404981 -42.119419239384307  -99.19267438665112 -8.1397076265548165 -49.701796519991191  -93.772722030218034 -7.6354083069583121 -43.937628940609081  -86.258171953493189 -7.49871025207685 -42.375163029013791  -79.233708448720193 -7.2117666508160037 -39.095382669956351  -71.929321302831994 -6.9835266382944159 -36.486587398231748  
6 0 2 -147.39427447112215 -4.9999999999999982 -13.814774256733905  -147.39427447112232 -5.9532984478018616 -24.711025337707749  -147.39427447112249 -6.9065968956037249 -35.607276418681593  
6 0 1 -147.39427447112243 -4.9999999999999982 -13.814774256733905  132.97837678091051 -4.9999999999999991 -13.814774256733905  
6 0 2 132.97837678091051 -5 -13.814774256733905  132.97837678091014 0 -13.814774256733905  132.97837678090977 5 -13.814774256733905  
6 0 2 -147.39427447112158 5.0000000000000009 -13.814774256733905  -147.39427447112186 8.8817841970012523e-16 -13.814774256733905  -147.39427447112215 -4.9999999999999991 -13.814774256733905  
6 0 1 -147.39427447112243 5.0000000000000009 -13.814774256733905  132.97837678091051 5 -13.814774256733905  
6 0 2 132.97837678091051 5 -13.814774256733905  132.97837678091028 6.0037221064975119 -25.287370391909818  132.97837678091005 7.0074442129950238 -36.75996652708573  
6 0 2 -147.39427447112124 6.9065968956012878 -35.607276418653711  -147.39427447112141 5.9532984478006439 -24.711025337693808  -147.39427447112158 5 -13.814774256733905  
6 0 11 -71.929321302900959 6.9835266382970937 -36.486587398275134  -78.826838841679006 7.1990532058189904 -38.950067329197196  -85.902590140287359 7.4823492575399744 -42.188156006377653  -93.920026874869293 7.645961892113176 -44.058256970497546  -99.016954369201585 8.1462048702946568 -49.776060355499979  -106.78642546111563 7.462728542034295 -41.963890202706025  -113.45989157366702 7.7668647470841865 -45.440182921602421  -120.36754406280423 7.3661304926062803 -40.859769449205331  -127.10531461950242 7.2449989546576923 -39.475229639699862  -133.76670059134554 7.0465301218492611 -37.20672050805117  -140.50751263858774 6.9408563721994989 -35.998864026684267  -147.39427447112448 6.9065968955992956 -35.607276418628217  
6 0 11 5.8387755800004806 7.3696990546641494 -40.900558300026063  -1.1381181773748423 7.1914292830417494 -38.862925493401306  -8.0732977997278113 6.9184987043864101 -35.743314715096361  -15.353537190004673 6.6682875762631459 -32.883388443767934  -20.47328899224663 6.2080841689725572 -27.623239446653429  -29.863146974102015 6.7018402907339985 -33.266897723744492  -35.656414359369037 6.0606980400765096 -25.938608290476871  -43.181704348354174 6.5194802946729444 -31.182513438017693  -50.358623525135563 6.4043016804943402 -29.866015858338095  -57.35704217178175 6.5867728007523443 -31.951670299443016  -64.563251326246728 6.7533593780828713 -33.855763584711326  -71.92932099999841 6.983526690939402 -36.486587999990512  
6 0 12 132.97837678091054 7.007444212995023 -36.759966527085737  122.06443170807577 6.9239183184056055 -35.805261186583174  111.31996383273862 6.8704511578018401 -35.194128746506294  100.68180021370873 6.8653761587511255 -35.136121242126741  90.076827423071251 6.8022756142185878 -34.414878720253832  79.506256358466175 6.9931829889953283 -36.596959991450142  69.037724937366704 6.6534304458018232 -32.713570666088764  58.548315647411656 7.3074559114488391 -40.189115920056395  48.550676331133488 7.5994542873346616 -43.526672617226922  37.97563210607376 7.5850501242258312 -43.362032280097296  27.256419244981117 7.7185901666244776 -44.888401943966485  16.60922908063916 7.6448999122843837 -44.046118485559695  5.8387756000265156 7.3696990284149324 -40.900557999994014  
Polygon3D 0
PolygonOnTriangulations 0
Surfaces 3
8 0 0 1 1 -147.39427447112243 -8.3241024721639452 -51.809439242396792  132.97837678091051 -8.3241024721639469 -51.809439242396792  
-147.39427447112243 -4.9999999999999982 -13.814774256733905  132.97837678091051 -5 -13.814774256733905  

8 0 0 1 1 -147.39427447112243 -4.9999999999999991 -13.814774256733905  132.97837678091051 -5 -13.814774256733905  
-147.39427447112243 5.0000000000000009 -13.814774256733905  132.97837678091051 5 -13.814774256733905  

8 0 0 1 1 -147.39427447112243 5.0000000000000009 -13.814774256733905  132.97837678091051 5 -13.814774256733905  
-147.39427447112243 8.3241024721639469 -51.809439242396792  132.97837678091051 8.3241024721639469 -51.809439242396792  

Triangulations 0

TShapes 34
Ve
0.0011
132.978376780911 -7.00744421298578 -36.7599665269801
0 0

0101100
*
Ve
0.0011
132.97837678091 -5 -13.8147742567339
0 0

0101100
*
Ed
 1e-07 1 1 0
1  1 0 0 1
2  1 1 0 0 1
0

0101000
+34 0 -33 0 *
Ve
0.0011
5.83877559001479 -7.36969904153927 -40.9005581500081
0 0

0101100
*
Ed
 1e-07 1 1 0
1  2 0 0 1
2  2 1 0 0 1
0

0101000
+31 0 -34 0 *
Ve
0.0011
-71.9293211514158 -6.98352666461741 -36.4865876991177
0 0

0101100
*
Ed
 1e-07 1 1 0
1  3 0 0 1
2  3 1 0 0 1
0

0101000
+29 0 -31 0 *
Ve
0.0011
-147.394274471122 -6.90659689560372 -35.6072764186816
0 0

0101100
*
Ed
 1e-07 1 1 0
1  4 0 0 1
2  4 1 0 0 1
0

0101000
+27 0 -29 0 *
Ve
0.0011
-147.394274471122 -5 -13.8147742567339
0 0

0101100
*
Ed
 1e-07 1 1 0
1  5 0 0 1
2  5 1 0 0 1
0

0101000
+25 0 -27 0 *
Ed
 1e-07 1 1 0
1  6 0 0 1
2  6 1 0 0 1
2  7 2 0 0 1
0

0101000
+25 0 -33 0 *
Wi

0101100
-32 0 -30 0 -28 0 -26 0 -24 0 +23 0 *
Fa
0  1e-07 1 0

0101000
+22 0 *
Ve
0.0011
132.97837678091 5 -13.8147742567339
0 0

0101100
*
Ed
 1e-07 1 1 0
1  7 0 0 1
2  8 2 0 0 1
0

0101000
+33 0 -20 0 *
Ve
0.0011
-147.394274471122 5 -13.8147742567339
0 0

0101100
*
Ed
 1e-07 1 1 0
1  8 0 0 1
2  9 2 0 0 1
0

0101000
+18 0 -25 0 *
Ed
 1e-07 1 1 0
1  9 0 0 1
2  10 2 0 0 1
2  11 3 0 0 1
0

0101000
+18 0 -20 0 *
Wi

0101100
-19 0 -23 0 -17 0 +16 0 *
Fa
0  1e-07 2 0

0101000
+15 0 *
Ve
0.0011
132.97837678091 7.00744421299502 -36.7599665270857
0 0

0101100
*
Ed
 1e-07 1 1 0
1  10 0 0 1
2  12 3 0 0 1
0

0101000
+20 0 -13 0 *
Ve
0.0011
-147.394274471121 6.90659689560129 -35.6072764186537
0 0

0101100
*
Ed
 1e-07 1 1 0
1  11 0 0 1
2  13 3 0 0 1
0

0101000
+11 0 -18 0 *
Ve
0.0011
-71.9293211514475 6.98352666461898 -36.4865876991356
0 0

0101100
*
Ed
 1e-07 1 1 0
1  12 0 0 1
2  14 3 0 0 1
0

0101000
+9 0 -11 0 *
Ve
0.0011
5.83877559001279 7.36969904153809 -40.9005581499945
0 0

0101100
*
Ed
 1e-07 1 1 0
1  13 0 0 1
2  15 3 0 0 1
0

0101000
+7 0 -9 0 *
Ed
 1e-07 1 1 0
1  14 0 0 1
2  16 3 0 0 1
0

0101000
+13 0 -7 0 *
Wi

0101100
-12 0 -16 0 -10 0 -8 0 -6 0 -5 0 *
Fa
0  1e-07 3 0

0101000
+4 0 *
Sh

0101000
+21 0 +14 0 +3 0 *
So

1100000
-2 0 *

+1 0 