DBRep_DrawableShape

CASCADE Topology V1, (c) Matra-Datavision
Locations 40
1
              1               0               0 -1.4210854715202e-014 
              0               1               0               0 
              0               0               1               0 
1
              1               0               0 -1.4210854715202e-014 
              0               1               0               0 
              0               0               1               0 
2  1 1 2 1 0
1
              1               0               0 7.07106781186547 
              0               1               0 -7.07106781186547 
              0               0               1               0 
2  1 1 2 1 4 1 0
2  2 -1 1 -1 0
2  4 -1 2 -1 1 -1 0
2  4 -1 0
1
              1               0               0 -7071.06781186547 
              0               1               0 7071.06781186547 
              0               0               1               0 
2  9 -1 0
1
              1               0               0 7071.06781186547 
              0               1               0 -7071.06781186547 
              0               0               1               0 
2  11 -1 0
1
              1               0               0 -7071.06781186547 
              0               1               0 7071.06781186547 
              0               0               1               0 
2  13 -1 0
1
              1               0               0 7071.06781186547 
              0               1               0 -7071.06781186547 
              0               0               1               0 
2  15 -1 0
1
              1               0               0 663.266160752981 
              0               1               0 -663.266160752981 
              0               0               1               0 
2  17 -1 0
1
              1               0               0 70.7106781186547 
              0               1               0 -70.7106781186547 
              0               0               1               0 
2  19 -1 0
1
              1               0               0 63.6396103067892 
              0               1               0 -63.6396103067892 
              0               0               1               0 
2  21 -1 0
1
              1               0               0 56.5685424949238 
              0               1               0 -56.5685424949238 
              0               0               1               0 
2  23 -1 0
1
              1               0               0 49.4974746830583 
              0               1               0 -49.4974746830583 
              0               0               1               0 
2  25 -1 0
1
              1               0               0 42.4264068711928 
              0               1               0 -42.4264068711928 
              0               0               1               0 
2  27 -1 0
1
              1               0               0 35.3553390593273 
              0               1               0 -35.3553390593273 
              0               0               1               0 
2  29 -1 0
1
              1               0               0 28.2842712474619 
              0               1               0 -28.2842712474619 
              0               0               1               0 
2  31 -1 0
1
              1               0               0 21.2132034355964 
              0               1               0 -21.2132034355964 
              0               0               1               0 
2  33 -1 0
1
              1               0               0 14.1421356237309 
              0               1               0 -14.1421356237309 
              0               0               1               0 
2  35 -1 0
1
              1               0               0 7.07106781186547 
              0               1               0 -7.07106781186547 
              0               0               1               0 
2  37 -1 0
1
              1               0               0 7.07106781186547 
              0               1               0 -7.07106781186547 
              0               0               1               0 
2  39 -1 0
Curve2ds 74
1 3.14159265358979 0 0 -1 
1 1.5707963267949 0 0 -1 
2 -11.5 -7.43715020800888 1 0 0 1 2
1 0 0 1 0 
1 0 -9999.99999999999 1 0 
1 0 0 1 0 
1 0 -9999.99999999999 1 0 
1 0 0 1 0 
1 0 -9999.99999999999 1 0 
1 0 0 1 0 
1 0 -9999.99999999999 1 0 
1 0 0 1 0 
1 0 -937.999999999999 1 0 
1 0 0 1 0 
1 0 -99.9999999999999 1 0 
1 0 0 1 0 
1 0 -89.9999999999999 1 0 
1 0 0 1 0 
1 0 -79.9999999999999 1 0 
1 0 0 1 0 
1 0 -70 1 0 
1 0 0 1 0 
1 0 -60 1 0 
1 0 0 1 0 
1 0 -50 1 0 
1 0 0 1 0 
1 0 -40 1 0 
1 0 0 1 0 
1 0 -30 1 0 
1 0 0 1 0 
1 0 -20 1 0 
1 0 0 1 0 
1 0 -9.99999999999999 1 0 
1 0 0 1 0 
1 0 -9.99999999999999 1 0 
1 0 0 1 0 
1 0 -9.99999999999999 1 0 
1 1.5707963267949 0 0 -1 
1 0 0 0 -1 
2 -5.5 -7.43715020800888 1 0 0 1 2
1 0 0 1 0 
1 0 -9999.99999999999 1 0 
1 0 0 1 0 
1 0 -9999.99999999999 1 0 
1 0 0 1 0 
1 0 -9999.99999999999 1 0 
1 0 0 1 0 
1 0 -9999.99999999999 1 0 
1 0 0 1 0 
1 0 -937.999999999999 1 0 
1 0 0 1 0 
1 0 -99.9999999999999 1 0 
1 0 0 1 0 
1 0 -89.9999999999999 1 0 
1 0 0 1 0 
1 0 -79.9999999999999 1 0 
1 0 0 1 0 
1 0 -70 1 0 
1 0 0 1 0 
1 0 -60 1 0 
1 0 0 1 0 
1 0 -50 1 0 
1 0 0 1 0 
1 0 -40 1 0 
1 0 0 1 0 
1 0 -30 1 0 
1 0 0 1 0 
1 0 -20 1 0 
1 0 0 1 0 
1 0 -9.99999999999999 1 0 
1 0 0 1 0 
1 0 -9.99999999999999 1 0 
1 0 0 1 0 
1 0 -9.99999999999999 1 0 
Curves 12
1 120.25 6.75 186 0.707106781186548 -0.707106781186548 0 
1 120.25 6.75 176 0.707106781186548 -0.707106781186548 0 
1 120.25 6.75 186 0 0 -1 
1 118.758859344786 5.25885934478603 176 0.707106781186548 -0.707106781186548 0 
1 120.25 6.75 176 -0.707106781186547 -0.707106781186547 0 
1 117.344645782413 3.84464578241293 178 0.707106781186548 -0.707106781186548 0 
2 118.758859344786 5.25885934478602 178 0.707106781186548 -0.707106781186548 0 0 0 1 -0.707106781186548 -0.707106781186548 0 2
1 117.344645782413 3.84464578241292 184 0.707106781186548 -0.707106781186548 0 
1 117.344645782413 3.84464578241285 176 0 0 1 
1 118.758859344786 5.25885934478602 186 0.707106781186548 -0.707106781186548 0 
2 118.758859344786 5.25885934478602 184 0.707106781186548 -0.707106781186548 0 0 0 1 -0.707106781186548 -0.707106781186548 0 2
1 117.344645782413 3.84464578241285 186 0.707106781186547 0.707106781186547 0 
Polygon3D 0
PolygonOnTriangulations 35
2 1 2 
p 1.00000002 1 0 9.99999999999999 
2 6 7 
p 0.923742297069458 1 0 9.99999999999999 
2 3 4 
p 1.00000002 1 0 9.99999999999999 
2 1 2 
p 0.923742297069458 1 0 9.99999999999999 
2 1 2 
p 1.03295690011695 1 0 10 
2 2 4 
p 1.1663551388291 1 0 10 
2 1 3 
p 1.1663551388291 1 0 10 
2 1 2 
p 1.1663551388291 1 0 10 
2 3 4 
p 0.856220866707946 1 0 9.99999999999999 
2 6 7 
p 0.881727026046212 1 0 9.99999999999999 
2 2 3 
p 0.596456342085588 1 0 2.1087913380095 
2 2 4 
p 0.856220866707946 1 0 2.1087913380095 
2 1 3 
p 0.856220866707946 1 0 2.1087913380095 
2 2 3 
p 1.03295690011695 1 0 2.1087913380095 
5 1 3 4 5 2 
p 0.860180174132583 1 0 2.5 5 7.49999999999999 9.99999999999999 
5 1 2 3 4 5 
p 0.880220158608745 1 0 2.5 5 7.49999999999999 9.99999999999999 
4 4 5 6 3 
p 0.865913840233907 1 1.5707963267949 2.0943951023932 2.61799387799149 3.14159265358979 
4 2 10 11 7 
p 0.860180174132583 1 1.5707963267949 2.0943951023932 2.61799387799149 3.14159265358979 
4 1 8 9 6 
p 0.860180174132583 1 1.5707963267949 2.0943951023932 2.61799387799149 3.14159265358979 
4 4 5 6 3 
p 1.03295690011695 1 1.5707963267949 2.0943951023932 2.61799387799149 3.14159265358979 
2 6 7 
p 0.707106801186555 1 0 9.99999999999999 
2 6 7 
p 0.860180174132583 1 0 9.99999999999999 
2 5 7 
p 0.707106801186555 1 2 8 
2 1 6 
p 0.707106801186555 1 2 8 
2 4 7 
p 1.03295690011695 1 2 8 
5 1 3 4 5 2 
p 0.860180174132583 1 0 2.5 5 7.49999999999999 9.99999999999999 
5 1 2 3 4 5 
p 0.879142816013064 1 0 2.5 5 7.49999999999999 9.99999999999999 
4 8 9 10 7 
p 0.865913840233907 1 0 0.5235987755983 1.0471975511966 1.5707963267949 
4 1 8 9 6 
p 0.860180174132583 1 0 0.5235987755983 1.0471975511966 1.5707963267949 
4 2 10 11 7 
p 0.860180174132583 1 0 0.5235987755983 1.0471975511966 1.5707963267949 
4 8 9 10 7 
p 1.03295690011695 1 0 0.5235987755983 1.0471975511966 1.5707963267949 
2 8 1 
p 0.596456342085594 1 2 4.10879133800952 
2 5 7 
p 0.856220866707953 1 2 4.10879133800952 
2 1 6 
p 0.856220866707953 1 2 4.10879133800952 
2 8 1 
p 1.03295690011695 1 2 4.10879133800952 
Surfaces 41
1 120.25 6.75 186 0.707106781186548 0.707106781186548 0 0 0 -1 -0.707106781186548 0.707106781186548 0 
1 120.25 6.75 176 0 0 -1 -0.707106781186548 -0.707106781186548 0 -0.707106781186548 0.707106781186548 0 
2 118.758859344786 5.25885934478602 178 -0.707106781186548 0.707106781186548 0 0 0 1 -0.707106781186548 -0.707106781186548 0 2
1 117.344645782413 3.84464578241285 178 -0.707106781186548 -0.707106781186548 0 0 0 1 -0.707106781186548 0.707106781186548 0 
1 113.5 0 189.5 0.707106781186547 -0.707106781186547 0 0 0 1 -0.707106781186547 -0.707106781186547 0 
2 118.758859344786 5.25885934478602 178 0.707106781186548 -0.707106781186548 0 0 0 1 -0.707106781186548 -0.707106781186548 0 2
2 118.758859344786 5.25885934478602 178 -0.707106781186548 0.707106781186548 0 0 0 1 -0.707106781186548 -0.707106781186548 0 2
2 118.758859344786 5.25885934478602 178 0.707106781186548 -0.707106781186548 0 0 0 1 -0.707106781186548 -0.707106781186548 0 2
2 118.758859344786 5.25885934478602 178 -0.707106781186548 0.707106781186548 0 0 0 1 -0.707106781186548 -0.707106781186548 0 2
2 118.758859344786 5.25885934478602 178 -0.707106781186548 0.707106781186548 0 0 0 1 -0.707106781186548 -0.707106781186548 0 2
2 118.758859344786 5.25885934478602 178 -0.707106781186548 0.707106781186548 0 0 0 1 -0.707106781186548 -0.707106781186548 0 2
2 118.758859344786 5.25885934478602 178 -0.707106781186548 0.707106781186548 0 0 0 1 -0.707106781186548 -0.707106781186548 0 2
2 118.758859344786 5.25885934478602 178 -0.707106781186548 0.707106781186548 0 0 0 1 -0.707106781186548 -0.707106781186548 0 2
2 118.758859344786 5.25885934478602 178 -0.707106781186548 0.707106781186548 0 0 0 1 -0.707106781186548 -0.707106781186548 0 2
2 118.758859344786 5.25885934478602 178 -0.707106781186548 0.707106781186548 0 0 0 1 -0.707106781186548 -0.707106781186548 0 2
2 118.758859344786 5.25885934478602 178 -0.707106781186548 0.707106781186548 0 0 0 1 -0.707106781186548 -0.707106781186548 0 2
2 118.758859344786 5.25885934478602 178 -0.707106781186548 0.707106781186548 0 0 0 1 -0.707106781186548 -0.707106781186548 0 2
2 118.758859344786 5.25885934478602 178 -0.707106781186548 0.707106781186548 0 0 0 1 -0.707106781186548 -0.707106781186548 0 2
2 118.758859344786 5.25885934478602 178 -0.707106781186548 0.707106781186548 0 0 0 1 -0.707106781186548 -0.707106781186548 0 2
2 118.758859344786 5.25885934478602 178 -0.707106781186548 0.707106781186548 0 0 0 1 -0.707106781186548 -0.707106781186548 0 2
2 118.758859344786 5.25885934478602 178 -0.707106781186548 0.707106781186548 0 0 0 1 -0.707106781186548 -0.707106781186548 0 2
2 118.758859344786 5.25885934478602 184 -0.707106781186548 0.707106781186548 0 0 0 1 -0.707106781186548 -0.707106781186548 0 2
1 118.758859344786 5.25885934478594 186 0 0 1 0.707106781186548 0.707106781186548 0 -0.707106781186548 0.707106781186548 0 
1 113.5 0 189.5 0.707106781186547 -0.707106781186547 0 0 0 1 -0.707106781186547 -0.707106781186547 0 
2 118.758859344786 5.25885934478602 184 0.707106781186548 -0.707106781186548 0 0 0 1 -0.707106781186548 -0.707106781186548 0 2
2 118.758859344786 5.25885934478602 184 -0.707106781186548 0.707106781186548 0 0 0 1 -0.707106781186548 -0.707106781186548 0 2
2 118.758859344786 5.25885934478602 184 0.707106781186548 -0.707106781186548 0 0 0 1 -0.707106781186548 -0.707106781186548 0 2
2 118.758859344786 5.25885934478602 184 -0.707106781186548 0.707106781186548 0 0 0 1 -0.707106781186548 -0.707106781186548 0 2
2 118.758859344786 5.25885934478602 184 -0.707106781186548 0.707106781186548 0 0 0 1 -0.707106781186548 -0.707106781186548 0 2
2 118.758859344786 5.25885934478602 184 -0.707106781186548 0.707106781186548 0 0 0 1 -0.707106781186548 -0.707106781186548 0 2
2 118.758859344786 5.25885934478602 184 -0.707106781186548 0.707106781186548 0 0 0 1 -0.707106781186548 -0.707106781186548 0 2
2 118.758859344786 5.25885934478602 184 -0.707106781186548 0.707106781186548 0 0 0 1 -0.707106781186548 -0.707106781186548 0 2
2 118.758859344786 5.25885934478602 184 -0.707106781186548 0.707106781186548 0 0 0 1 -0.707106781186548 -0.707106781186548 0 2
2 118.758859344786 5.25885934478602 184 -0.707106781186548 0.707106781186548 0 0 0 1 -0.707106781186548 -0.707106781186548 0 2
2 118.758859344786 5.25885934478602 184 -0.707106781186548 0.707106781186548 0 0 0 1 -0.707106781186548 -0.707106781186548 0 2
2 118.758859344786 5.25885934478602 184 -0.707106781186548 0.707106781186548 0 0 0 1 -0.707106781186548 -0.707106781186548 0 2
2 118.758859344786 5.25885934478602 184 -0.707106781186548 0.707106781186548 0 0 0 1 -0.707106781186548 -0.707106781186548 0 2
2 118.758859344786 5.25885934478602 184 -0.707106781186548 0.707106781186548 0 0 0 1 -0.707106781186548 -0.707106781186548 0 2
2 118.758859344786 5.25885934478602 184 -0.707106781186548 0.707106781186548 0 0 0 1 -0.707106781186548 -0.707106781186548 0 2
2 118.758859344786 5.25885934478602 184 -0.707106781186548 0.707106781186548 0 0 0 1 -0.707106781186548 -0.707106781186548 0 2
1 113.5 0 189.5 0.707106781186547 -0.707106781186547 0 0 0 1 -0.707106781186547 -0.707106781186547 0 
Triangulations 8
4 2 1 1.08317757941455
120.25 6.75 186 127.321067811865 -0.32106781186547 186 120.25 6.75 176 127.321067811865 -0.32106781186547 176 0 0 0 -9.99999999999999 10 0 10 -9.99999999999999 1 2 4 4 3 1 
7 5 1 0.878831711624607
118.758859344786 5.25885934478602 186 120.526626297752 3.49109239181965 186 122.294393250719 1.72332543885328 186 124.062160203685 -0.0444415141130827 186 125.829927156651 -1.81220846707945 186 120.25 6.75 186 127.321067811865 -0.32106781186547 186 0 1.13686837721616e-013 -6.28036983473511e-015 -2.49999999999988 -6.28036983473511e-015 -4.99999999999988 -6.28036983473511e-015 -7.49999999999988 0 -9.99999999999989 2.1087913380095 1.13686837721616e-013 2.10879133800951 -9.99999999999987 3 4 7 2 3 6 6 3 7 1 2 6 7 4 5 
4 2 1 0.873101224298324
120.25 6.75 176 127.321067811865 -0.32106781186547 176 118.758859344786 5.25885934478603 176 125.829927156651 -1.81220846707944 176 1.4210854715202e-014 1.4210854715202e-014 0 -9.99999999999997 2.10879133800951 1.4210854715202e-014 2.10879133800951 -9.99999999999999 1 2 3 4 3 2 
11 10 1 0.831775694145484
120.25 6.75 186 120.25 6.75 176 118.758859344786 5.25885934478603 176 117.344645782413 3.84464578241293 178 117.534114473394 4.03411447339443 177 118.051752563599 4.55175256359947 176.267949192431 117.344645782413 3.84464578241292 184 118.758859344786 5.25885934478602 186 118.051752563599 4.55175256359947 185.732050807569 117.534114473394 4.03411447339443 185 118.797322891206 5.29732289120646 181 -3.5 -9.54594154601837 -13.5 -9.54594154601837 -13.5 -7.43715020800887 -11.5 -5.43715020800893 -12.5 -5.70509940043999 -13.2320508075689 -6.43715020800886 -5.5 -5.43715020800892 -3.5 -7.43715020800886 -3.76794919243113 -6.43715020800886 -4.5 -5.70509940043999 -8.5 -7.49154587701364 4 3 11 6 4 5 4 6 3 3 2 11 11 1 8 1 11 2 11 8 7 7 9 10 9 7 8 11 7 4 
11 10 1 1.05518993990231
120.25 6.75 186 120.25 6.75 176 118.758859344786 5.25885934478603 176 117.344645782413 3.84464578241293 178 117.534114473394 4.03411447339443 177 118.051752563599 4.55175256359947 176.267949192431 117.344645782413 3.84464578241292 184 118.758859344786 5.25885934478602 186 118.051752563599 4.55175256359947 185.732050807569 117.534114473394 4.03411447339443 185 118.797322891206 5.29732289120646 181 -3.5 -9.54594154601837 -13.5 -9.54594154601837 -13.5 -7.43715020800887 -11.5 -5.43715020800893 -12.5 -5.70509940043999 -13.2320508075689 -6.43715020800886 -5.5 -5.43715020800892 -3.5 -7.43715020800886 -3.76794919243113 -6.43715020800886 -4.5 -5.70509940043999 -8.5 -7.49154587701364 4 3 11 6 4 5 4 6 3 3 2 11 11 1 8 1 11 2 11 8 7 7 9 10 9 7 8 11 7 4 
11 9 1 0.86556688711099
117.344645782413 3.84464578241293 178 124.415713594278 -3.22642202945254 178 119.112412735379 2.07687882944656 178 120.880179688346 0.309111876480194 178 122.647946641312 -1.45865507648617 178 118.758859344786 5.25885934478603 176 125.829927156651 -1.81220846707944 176 117.534114473394 4.03411447339443 177 118.051752563599 4.55175256359947 176.267949192431 124.60518228526 -3.03695333847104 177 125.122820375465 -2.519315248266 176.267949192431 1.5707963267949 0 1.5707963267949 -9.99999999999999 1.5707963267949 -2.5 1.5707963267949 -5 1.5707963267949 -7.49999999999999 3.14159265358979 0 3.14159265358979 -9.99999999999999 2.0943951023932 0 2.61799387799149 0 2.0943951023932 -9.99999999999999 2.61799387799149 -9.99999999999999 5 2 10 3 4 8 1 3 8 5 10 4 10 11 9 11 7 6 9 8 10 6 9 11 10 8 4 
7 5 1 0.750385140542102
117.344645782413 3.84464578241293 178 119.112412735379 2.07687882944656 178 120.880179688346 0.309111876480194 178 122.647946641312 -1.45865507648617 178 124.415713594278 -3.22642202945254 178 117.344645782413 3.84464578241292 184 124.415713594278 -3.22642202945255 184 0 5.6843418860808e-014 0 -2.49999999999994 0 -4.99999999999994 0 -7.49999999999994 0 -9.99999999999994 6 4.2632564145606e-014 6 -9.99999999999994 4 5 7 3 4 7 3 6 2 6 3 7 6 1 2 
11 9 1 0.860180174132583
118.758859344786 5.25885934478602 186 125.829927156651 -1.81220846707945 186 120.526626297752 3.49109239181965 186 122.294393250719 1.72332543885328 186 124.062160203685 -0.0444415141130827 186 117.344645782413 3.84464578241292 184 124.415713594278 -3.22642202945255 184 118.051752563599 4.55175256359947 185.732050807569 117.534114473394 4.03411447339443 185 125.122820375465 -2.519315248266 185.732050807569 124.60518228526 -3.03695333847104 185 0 0 0 -9.99999999999999 0 -2.5 0 -5 0 -7.49999999999999 1.5707963267949 0 1.5707963267949 -9.99999999999999 0.5235987755983 0 1.0471975511966 0 0.5235987755983 -9.99999999999999 1.0471975511966 -9.99999999999999 5 2 10 3 4 8 1 3 8 5 10 4 10 11 9 11 7 6 9 8 10 6 9 11 10 8 4 

TShapes 34
Ve
1e-007
120.25 6.75 186
0 0

0101100
*
Ed
 1e-007 1 1 0
1  1 0 0 9.99999999999999
6  1 1 0
6  2 2 0
0

0101000
+34 3 -34 5 *
Ve
1e-007
120.25 6.75 176
0 0

0101100
*
Ed
 1e-007 1 1 0
1  2 0 0 9.99999999999999
6  3 1 0
6  4 3 0
0

0101000
+32 3 -32 5 *
Ed
 1e-007 1 1 0
1  3 0 0 10
6  5 4 6
6  6 1 7
6  7 1 6
6  8 5 6
0

0101000
+34 0 -32 0 *
Wi

0101000
+33 0 -31 0 -30 3 +30 5 *
Fa
0  1e-007 1 0
2  1
0111000
+29 0 *
Ve
1e-007
118.758859344786 5.25885934478603 176
0 0

0101100
*
Ed
 1e-007 1 1 0
1  4 0 0 9.99999999999999
2  1 3 0 0 9.99999999999999
4 G1 2 0 3 0
6  9 3 0
6  10 6 0
0

0101000
+27 0 -27 4 *
Ed
 1e-007 1 1 0
1  5 0 0 2.1087913380095
6  11 4 0
6  12 3 8
6  13 3 0
6  14 5 0
0

0101000
+32 3 -27 0 *
Wi

0101000
+31 0 -26 0 -25 0 +25 4 *
Fa
0  1e-007 2 0
2  3
0111000
+24 0 *
Ve
1e-007
117.344645782413 3.84464578241293 178
0 0

0101100
*
Ed
 1e-007 1 1 0
1  6 0 0 9.99999999999999
2  2 3 0 0 9.99999999999999
4 G1 3 0 4 0
6  15 6 0
6  16 7 0
0

0101000
+22 0 -22 4 *
Ed
 1e-007 1 1 0
2  3 5 0 1.5707963267949 3.14159265358979
1  7 0 1.5707963267949 3.14159265358979
6  17 4 0
2  4 6 0 1.5707963267949 3.14159265358979
2  5 6 10 1.5707963267949 3.14159265358979
2  6 7 0 1.5707963267949 3.14159265358979
2  7 7 12 1.5707963267949 3.14159265358979
2  8 8 0 1.5707963267949 3.14159265358979
2  9 8 14 1.5707963267949 3.14159265358979
2  10 9 0 1.5707963267949 3.14159265358979
2  11 9 16 1.5707963267949 3.14159265358979
2  12 10 0 1.5707963267949 3.14159265358979
2  13 10 18 1.5707963267949 3.14159265358979
2  14 11 0 1.5707963267949 3.14159265358979
2  15 11 20 1.5707963267949 3.14159265358979
2  16 12 0 1.5707963267949 3.14159265358979
2  17 12 22 1.5707963267949 3.14159265358979
2  18 13 0 1.5707963267949 3.14159265358979
2  19 13 24 1.5707963267949 3.14159265358979
2  20 14 0 1.5707963267949 3.14159265358979
2  21 14 26 1.5707963267949 3.14159265358979
2  22 15 0 1.5707963267949 3.14159265358979
2  23 15 28 1.5707963267949 3.14159265358979
2  24 16 0 1.5707963267949 3.14159265358979
2  25 16 30 1.5707963267949 3.14159265358979
2  26 17 0 1.5707963267949 3.14159265358979
2  27 17 32 1.5707963267949 3.14159265358979
2  28 18 0 1.5707963267949 3.14159265358979
2  29 18 34 1.5707963267949 3.14159265358979
2  30 19 0 1.5707963267949 3.14159265358979
2  31 19 36 1.5707963267949 3.14159265358979
2  32 20 0 1.5707963267949 3.14159265358979
2  33 20 38 1.5707963267949 3.14159265358979
2  34 21 0 1.5707963267949 3.14159265358979
2  35 21 40 1.5707963267949 3.14159265358979
2  36 3 0 1.5707963267949 3.14159265358979
2  37 3 8 1.5707963267949 3.14159265358979
6  18 6 8
6  19 6 0
6  20 5 0
0

0101000
+22 0 -27 0 *
Wi

0101000
+21 0 -26 0 -20 0 +20 4 *
Fa
0  1e-007 3 0
2  6
0111000
+19 0 *
Ve
1e-007
117.344645782413 3.84464578241292 184
0 0

0101100
*
Ed
 1e-007 1 1 0
1  8 0 0 9.99999999999999
2  38 22 0 0 9.99999999999999
4 G1 4 0 22 0
6  21 7 0
6  22 8 0
0

0101000
+17 0 -17 4 *
Ed
 1e-007 1 1 0
1  9 0 2 8
6  23 7 8
6  24 7 0
6  25 5 0
0

0101000
+22 0 -17 0 *
Wi

0101000
+21 0 -16 0 -15 0 +15 4 *
Fa
0  1e-007 4 0
2  7
0111000
+14 0 *
Ve
1e-007
118.758859344786 5.25885934478602 186
0 0

0101100
*
Ed
 1e-007 1 1 0
1  10 0 0 9.99999999999999
2  39 22 0 0 9.99999999999999
4 G1 22 0 23 0
6  26 8 0
6  27 2 0
0

0101000
+12 0 -12 4 *
Ed
 1e-007 1 1 0
2  40 24 0 0 1.5707963267949
1  11 0 0 1.5707963267949
6  28 4 0
2  41 25 0 0 1.5707963267949
2  42 25 10 0 1.5707963267949
2  43 26 0 0 1.5707963267949
2  44 26 12 0 1.5707963267949
2  45 27 0 0 1.5707963267949
2  46 27 14 0 1.5707963267949
2  47 28 0 0 1.5707963267949
2  48 28 16 0 1.5707963267949
2  49 29 0 0 1.5707963267949
2  50 29 18 0 1.5707963267949
2  51 30 0 0 1.5707963267949
2  52 30 20 0 1.5707963267949
2  53 31 0 0 1.5707963267949
2  54 31 22 0 1.5707963267949
2  55 32 0 0 1.5707963267949
2  56 32 24 0 1.5707963267949
2  57 33 0 0 1.5707963267949
2  58 33 26 0 1.5707963267949
2  59 34 0 0 1.5707963267949
2  60 34 28 0 1.5707963267949
2  61 35 0 0 1.5707963267949
2  62 35 30 0 1.5707963267949
2  63 36 0 0 1.5707963267949
2  64 36 32 0 1.5707963267949
2  65 37 0 0 1.5707963267949
2  66 37 34 0 1.5707963267949
2  67 38 0 0 1.5707963267949
2  68 38 36 0 1.5707963267949
2  69 39 0 0 1.5707963267949
2  70 39 38 0 1.5707963267949
2  71 40 0 0 1.5707963267949
2  72 40 40 0 1.5707963267949
2  73 22 0 0 1.5707963267949
2  74 22 8 0 1.5707963267949
6  29 8 0
6  30 8 8
6  31 5 0
0

0101000
+12 0 -17 0 *
Wi

0101000
+11 0 -16 0 -10 0 +10 4 *
Fa
0  1e-007 22 0
2  8
0111000
+9 0 *
Ed
 1e-007 1 1 0
1  12 0 2 4.10879133800952
6  32 4 0
6  33 2 8
6  34 2 0
6  35 5 0
0

0101000
+12 0 -34 3 *
Wi

0101000
+11 0 -33 0 -7 0 +7 4 *
Fa
0  1e-007 23 0
2  2
0111000
+6 0 *
Wi

0101100
-30 3 -25 0 +20 0 -15 0 +10 0 -7 0 *
Fa
0  1e-007 41 0
2  5
0111000
+4 0 *
Sh

0101000
-28 0 -23 0 +18 0 -13 0 +8 0 -5 0 +3 0 -3 4 *
So

1100000
-2 0 *

+1 0 