DBRep_DrawableShape

CASCADE Topology V1, (c) Matra-Datavision
Locations 2
1
              1               0               0               0 
              0               1               0               0 
              0               0               1             150 
2  1 -1 0
Curve2ds 0
Curves 8
1 -370.84872436523438 256.45751953125 0 0 0 1 
1 516.60516357421875 256.45751953125 0 0 0 1 
1 -370.84872436523438 256.45751953125 0 1 0 0 
1 516.60516357421875 -405.90408325195312 0 0 0 1 
1 516.60516357421875 256.45751953125 0 0 -1 0 
1 -370.84872436523438 -405.90408325195312 0 0 0 1 
1 516.60516357421875 -405.90408325195312 0 -1 0 0 
1 -370.84872436523438 -405.90408325195312 0 0 1 0 
Polygon3D 0
PolygonOnTriangulations 20
2 1 2 
p 4.32215135662035 1 0 150 
2 3 4 
p 4.32215135662035 1 0 150 
2 3 4 
p 4.32215135662035 1 0 150 
2 1 2 
p 4.32215135662035 1 0 150 
2 2 4 
p 4.32215135662035 1 0 887.453887939453 
2 1 3 
p 4.32215135662035 1 0 887.453887939453 
2 1 2 
p 4.32215135662035 1 0 887.453887939453 
2 3 4 
p 4.32215135662035 1 0 150 
2 1 2 
p 4.32215135662035 1 0 150 
2 2 4 
p 4.32215135662035 1 0 662.361602783203 
2 1 3 
p 4.32215135662035 1 0 662.361602783203 
2 2 3 
p 4.32215135662035 1 0 662.361602783203 
2 3 4 
p 4.32215135662035 1 0 150 
2 1 2 
p 4.32215135662035 1 0 150 
2 1 3 
p 4.32215135662035 1 0 887.453887939453 
2 2 4 
p 4.32215135662035 1 0 887.453887939453 
2 3 4 
p 4.32215135662035 1 0 887.453887939453 
2 2 4 
p 4.32215135662035 1 0 662.361602783203 
2 1 3 
p 4.32215135662035 1 0 662.361602783203 
2 4 1 
p 4.32215135662035 1 0 662.361602783203 
Surfaces 5
1 -370.84872436523438 256.45751953125 0 0 1 0 1 0 0 0 0 -1 
1 516.60516357421875 256.45751953125 0 1 0 0 0 -1 0 0 0 -1 
1 516.60516357421875 -405.90408325195312 0 0 -1 0 -1 0 0 0 0 -1 
1 -370.84872436523438 -405.90408325195312 0 -1 0 0 0 1 0 0 0 -1 
1 0 0 0 0 0 1 1 0 0 0 1 0 
Triangulations 5
4 2 1 4.32215135662035
-370.848724365234 256.45751953125 0 -370.848724365234 256.45751953125 150 516.605163574219 256.45751953125 0 516.605163574219 256.45751953125 150 0 0 0 -150 887.453887939453 0 887.453887939453 -150 1 2 4 4 3 1 
4 2 1 4.32215135662035
-370.848724365234 -405.904083251953 0 -370.848724365234 -405.904083251953 150 -370.848724365234 256.45751953125 0 -370.848724365234 256.45751953125 150 0 0 0 -150 662.361602783203 0 662.361602783203 -150 1 2 4 4 3 1 
4 2 1 4.32215135662035
516.605163574219 256.45751953125 0 516.605163574219 256.45751953125 150 516.605163574219 -405.904083251953 0 516.605163574219 -405.904083251953 150 0 0 0 -150 662.361602783203 0 662.361602783203 -150 1 2 4 4 3 1 
4 2 1 4.32215135662035
-370.848724365234 256.45751953125 0 516.605163574219 256.45751953125 0 516.605163574219 -405.904083251953 0 -370.848724365234 -405.904083251953 0 -370.848724365234 256.45751953125 516.605163574219 256.45751953125 516.605163574219 -405.904083251953 -370.848724365234 -405.904083251953 1 4 3 3 2 1 
4 2 1 4.32215135662035
516.605163574219 -405.904083251953 0 516.605163574219 -405.904083251953 150 -370.848724365234 -405.904083251953 0 -370.848724365234 -405.904083251953 150 0 0 0 -150 887.453887939453 0 887.453887939453 -150 1 2 4 4 3 1 

TShapes 24
Ve
1e-07
-370.848724365234 256.45751953125 0
0 0

0101100
*
Ed
 1e-07 1 1 0
1  1 0 0 150
6  1 1 0
6  2 2 0
0

0101000
+24 0 -24 1 *
Ve
1e-07
516.605163574219 256.45751953125 0
0 0

0101100
*
Ed
 1e-07 1 1 0
1  2 0 0 150
6  3 1 0
6  4 3 0
0

0101000
+22 0 -22 1 *
Ed
 1e-07 1 1 0
1  3 0 0 887.453887939453
6  5 1 2
6  6 1 0
6  7 4 0
0

0101000
+24 0 -22 0 *
Wi

0101000
+23 0 -21 0 -20 0 +20 1 *
Fa
0  1e-07 1 0
2  1
0101000
+19 0 *
Ve
1e-07
516.605163574219 -405.904083251953 0
0 0

0101100
*
Ed
 1e-07 1 1 0
1  4 0 0 150
6  8 3 0
6  9 5 0
0

0101000
+17 0 -17 1 *
Ed
 1e-07 1 1 0
1  5 0 0 662.361602783203
6  10 3 2
6  11 3 0
6  12 4 0
0

0101000
+22 0 -17 0 *
Wi

0101000
+21 0 -16 0 -15 0 +15 1 *
Fa
0  1e-07 2 0
2  3
0101000
+14 0 *
Ve
1e-07
-370.848724365234 -405.904083251953 0
0 0

0101100
*
Ed
 1e-07 1 1 0
1  6 0 0 150
6  13 5 0
6  14 2 0
0

0101000
+12 0 -12 1 *
Ed
 1e-07 1 1 0
1  7 0 0 887.453887939453
6  15 5 0
6  16 5 2
6  17 4 0
0

0101000
+17 0 -12 0 *
Wi

0101000
+16 0 -11 0 -10 0 +10 1 *
Fa
0  1e-07 3 0
2  5
0101000
+9 0 *
Ed
 1e-07 1 1 0
1  8 0 0 662.361602783203
6  18 2 2
6  19 2 0
6  20 4 0
0

0101000
+12 0 -24 0 *
Wi

0101000
+11 0 -23 0 -7 0 +7 1 *
Fa
0  1e-07 4 0
2  2
0101000
+6 0 *
Wi

0101100
+20 0 +15 0 +10 0 +7 0 *
Fa
0  1e-07 5 0
2  4
0101000
-4 0 *
Sh

0101000
-18 0 -13 0 -8 0 -5 0 +3 0 -3 1 *
So

0100000
-2 0 *

+1 0 
