DBRep_DrawableShape

CASCADE Topology V1, (c) Matra-Datavision
Locations 0
Curve2ds 4
6 0 1 0 0  0 1  
6 0 1 0 0  1 0  
6 0 1 1 0  1 1  
6 0 1 0 1  1 1  
Curves 4
6 0 1 0 -43.681250314947647 161  30 -43.681250314947647 161  
6 0 8 0 -43.681250314947647 161  0 -37.604557994352724 165.22356873193095  0 -32.242282947017635 170.47501086516291  0 -27.79726759975215 176.61334198149862  0 -24.43896622226211 183.44954663458199  0 -22.289239163996164 190.75643077050816  0 -21.411979573499252 198.28422499870555  0 -21.81020159312175 205.77909373571782  0 -23.429841009562271 213.00000022681951  
6 0 1 0 -23.429841009562267 213.00000022681954  30 -23.429841009562267 213.00000022681954  
6 0 8 30 -43.681250314947647 161  30 -37.604557994352724 165.22356873193095  30 -32.242282947017635 170.47501086516291  30 -27.79726759975215 176.61334198149862  30 -24.43896622226211 183.44954663458199  30 -22.289239163996164 190.75643077050816  30 -21.411979573499252 198.28422499870555  30 -21.81020159312175 205.77909373571782  30 -23.429841009562271 213.00000022681951  
Polygon3D 0
PolygonOnTriangulations 0
Surfaces 1
8 0 0 8 1 0 -43.681250314947647 161  30 -43.681250314947647 161  
0 -37.604557994352724 165.22356873193095  30 -37.604557994352724 165.22356873193095  
0 -32.242282947017635 170.47501086516291  30 -32.242282947017635 170.47501086516291  
0 -27.79726759975215 176.61334198149862  30 -27.79726759975215 176.61334198149862  
0 -24.43896622226211 183.44954663458199  30 -24.43896622226211 183.44954663458199  
0 -22.289239163996164 190.75643077050816  30 -22.289239163996164 190.75643077050816  
0 -21.411979573499252 198.28422499870555  30 -21.411979573499252 198.28422499870555  
0 -21.81020159312175 205.77909373571782  30 -21.81020159312175 205.77909373571782  
0 -23.429841009562271 213.00000022681951  30 -23.429841009562271 213.00000022681951  

Triangulations 0

TShapes 12
Ve
0.0011
0 -43.6812503149476 161
0 0

0101100
*
Ve
0.0011
30 -43.6812503149476 161
0 0

0101100
*
Ed
 1e-07 1 1 0
1  1 0 0 1
2  1 1 0 0 1
0

0101000
+12 0 -11 0 *
Ve
0.0011
0 -23.4298410095623 213.00000022682
0 0

0101100
*
Ed
 1e-07 1 1 0
1  2 0 0 1
2  2 1 0 0 1
0

0101000
+12 0 -9 0 *
Ve
0.0011
30 -23.4298410095623 213.00000022682
0 0

0101100
*
Ed
 1e-07 1 1 0
1  3 0 0 1
2  3 1 0 0 1
0

0101000
+9 0 -7 0 *
Ed
 1e-07 1 1 0
1  4 0 0 1
2  4 1 0 0 1
0

0101000
+11 0 -7 0 *
Wi

0101100
-10 0 +8 0 +6 0 -5 0 *
Fa
1  1e-07 1 0

0101000
+4 0 *
Sh

0101000
+3 0 *
So

1100000
+2 0 *

+1 0 