DBRep_DrawableShape

CASCADE Topology V1, (c) Matra-Datavision
Locations 0
Curve2ds 12
6 0 1 0 0  0 1  
6 0 1 1 0  1 1  
6 0 1 0 0  1 0  
6 0 1 0 0  0 1  
6 0 1 1 0  1 1  
6 0 1 0 0  0 1  
6 0 1 0 1  1 1  
6 0 1 0 0  1 0  
6 0 1 1 1  1 0  
6 0 1 0 1  1 1  
6 0 1 0 0  1 0  
6 0 1 0 1  1 1  
Curves 4
6 0 1 110.26060429977002 71.809221376422784 -20  99.999999999999957 100.00000000000003 40  
6 0 10 110.26060429977002 71.809221376422784 -20  119.11699860205067 75.032685285377724 -20  126.8481917337219 81.347614002925937 -20  132.24016830334523 90.312142062642764 -20  134.2772216770814 100.93955516451955 -20  132.42709977916897 111.80249910319768 -20  126.86180960965572 121.31323237572289 -20  118.47016672746157 128.14491045823766 -20  108.5773854754006 131.5462416328939 -20  98.595790002510554 131.4142425325322 -20  89.739395700229906 128.19077862357724 -20  
6 0 1 89.73939570022992 128.19077862357727 -20  99.999999999999986 100.00000000000003 40  
6 0 10 89.73939570022992 128.19077862357727 -20  80.883001397949272 124.96731471462233 -20  73.151808266278039 118.65238599707412 -20  67.759831696654715 109.68785793735729 -20  65.722778322918543 99.06044483548051 -20  67.572900220830959 88.197500896802381 -20  73.138190390344221 78.686767624277167 -20  81.529833272538369 71.85508954176241 -20  91.422614524599339 68.45375836710619 -20  101.40420999748939 68.585757467467872 -20  110.26060429977004 71.809221376422826 -20  
Polygon3D 0
PolygonOnTriangulations 0
Surfaces 3
8 0 0 10 1 110.26060429977002 71.809221376422784 -20  99.999999999999957 100.00000000000003 40  
119.11699860205067 75.032685285377724 -20  99.999999999999957 100.00000000000003 40  
126.8481917337219 81.347614002925937 -20  99.999999999999957 100.00000000000003 40  
132.24016830334523 90.312142062642764 -20  99.999999999999957 100.00000000000003 40  
134.2772216770814 100.93955516451955 -20  99.999999999999957 100.00000000000003 40  
132.42709977916897 111.80249910319768 -20  99.999999999999957 100.00000000000003 40  
126.86180960965572 121.31323237572289 -20  99.999999999999957 100.00000000000003 40  
118.47016672746157 128.14491045823766 -20  99.999999999999957 100.00000000000003 40  
108.5773854754006 131.5462416328939 -20  99.999999999999957 100.00000000000003 40  
98.595790002510554 131.4142425325322 -20  99.999999999999957 100.00000000000003 40  
89.739395700229906 128.19077862357724 -20  99.999999999999957 100.00000000000003 40  

8 0 0 10 1 89.73939570022992 128.19077862357727 -20  99.999999999999986 100.00000000000003 40  
80.883001397949272 124.96731471462233 -20  99.999999999999986 100.00000000000003 40  
73.151808266278039 118.65238599707412 -20  99.999999999999986 100.00000000000003 40  
67.759831696654715 109.68785793735729 -20  99.999999999999986 100.00000000000003 40  
65.722778322918543 99.06044483548051 -20  99.999999999999986 100.00000000000003 40  
67.572900220830959 88.197500896802381 -20  99.999999999999986 100.00000000000003 40  
73.138190390344221 78.686767624277167 -20  99.999999999999986 100.00000000000003 40  
81.529833272538369 71.85508954176241 -20  99.999999999999986 100.00000000000003 40  
91.422614524599339 68.45375836710619 -20  99.999999999999986 100.00000000000003 40  
101.40420999748939 68.585757467467872 -20  99.999999999999986 100.00000000000003 40  
110.26060429977004 71.809221376422826 -20  99.999999999999986 100.00000000000003 40  

8 0 0 1 10 110.26060429977002 71.809221376422784 -20  119.11699860205067 75.032685285377724 -20  126.8481917337219 81.347614002925937 -20  132.24016830334523 90.312142062642764 -20  134.2772216770814 100.93955516451955 -20  132.42709977916897 111.80249910319768 -20  126.86180960965572 121.31323237572289 -20  118.47016672746157 128.14491045823766 -20  108.5773854754006 131.5462416328939 -20  98.595790002510554 131.4142425325322 -20  89.739395700229906 128.19077862357724 -20  
110.26060429977002 71.809221376422784 -20  101.40420999748937 68.585757467467829 -20  91.422614524599311 68.453758367106133 -20  81.529833272538326 71.855089541762354 -20  73.138190390344192 78.68676762427711 -20  67.572900220830917 88.19750089680231 -20  65.722778322918487 99.060444835480439 -20  67.759831696654643 109.68785793735721 -20  73.151808266277939 118.65238599707402 -20  80.88300139794913 124.96731471462219 -20  89.739395700229721 128.1907786235771 -20  

Triangulations 0

TShapes 19
Ve
0.0011
110.26060429977 71.8092213764228 -20
0 0

0101100
*
Ve
0.0011
100 100 40
0 0

0101100
*
Ed
 1e-07 1 1 0
1  1 0 0 1
2  1 1 0 0 1
2  2 2 0 0 1
4 G1 1 0 2 0
0

0101000
+19 0 -18 0 *
Ve
0.0011
89.7393957002299 128.190778623577 -20
0 0

0101100
*
Ed
 1e-07 1 1 0
1  2 0 0 1
2  3 1 0 0 1
2  4 3 0 0 1
0

0101000
+19 0 -16 0 *
Ed
 1e-07 1 1 0
1  3 0 0 1
2  5 1 0 0 1
2  6 2 0 0 1
4 G1 1 0 2 0
0

0101000
+16 0 -18 0 *
Ed
 1e-07 0 0 1
2  7 1 0 0 1
0

0101100
+18 0 -18 0 *
Wi

0101100
-17 0 +15 0 +14 0 -13 0 *
Fa
1  1e-07 1 0

0101000
+12 0 *
Ed
 1e-07 1 1 0
1  4 0 0 1
2  8 2 0 0 1
2  9 3 0 0 1
0

0101000
+16 0 -19 0 *
Ed
 1e-07 0 0 1
2  10 2 0 0 1
0

0101100
+18 0 -18 0 *
Wi

0101100
-14 0 +10 0 +17 0 -9 0 *
Fa
1  1e-07 2 0

0101000
+8 0 *
Ed
 1e-07 0 0 1
2  11 3 0 0 1
0

0101100
+19 0 -19 0 *
Ed
 1e-07 0 0 1
2  12 3 0 0 1
0

0101100
+16 0 -16 0 *
Wi

0101100
-15 0 +6 0 -10 0 -5 0 *
Fa
1  1e-07 3 0

0101000
+4 0 *
Sh

0101000
+11 0 +7 0 +3 0 *
So

1100000
+2 0 *

+1 0 