DBRep_DrawableShape

CASCADE Topology V1, (c) Matra-Datavision
Locations 0
Curve2ds 59
6 0 1 1 0  1 0.74904995347294245  
6 0 1 0 0  0 0.74904995347294245  
6 0 5 0 0.78168453680055694  0.23370346534170544 0.77712116430963185  0.44823193937553119 0.7711503616536094  0.64555340522488469 0.76431167614924078  0.82832381272958977 0.75691559278570575  1 0.74904995347294245  
6 0 1 0 0  0 0.78168453680055694  
6 0 1 1 0  1 0.78168453680055694  
6 0 1 0 0  1 0  
6 0 1 0 0.69999999999999973  0 0.29999999999999988  
6 0 8 1 0.70000000000000018  1 0.7589048622548088  0.99842412174047634 0.81780972450961742  0.99527236522142903 0.87325406481349965  0.99067431305461506 0.92177759758460431  0.98488932995342626 0.96034533945990885  0.97827924710501668 0.98678177981996962  0.97125660029301786 1  0.96423395348101903 1  
6 0 1 0 0  1 0  
6 0 1 1 0.30000000000000043  1 0.70000000000000029  
6 0 1 0 0  1 0  
6 0 8 0.96423395348101915 1.4307404217070965e-16  0.97125660029301797 1.5431913921286526e-16  0.97827924710501679 0.013218220180030563  0.98488932995342637 0.039654660540091334  0.99067431305461517 0.078222402415395881  0.99527236522142914 0.12674593518650057  0.99842412174047646 0.18219027549038286  1.0000000000000002 0.24109513774519148  1.0000000000000002 0.3000000000000001  
6 0 1 0 0  1 0  
6 0 1 0.035766046518980923 7.5364179524714339e-18  0.96423395348101926 5.0232351296116691e-16  
6 0 1 0 0  1 0  
6 0 8 0 0.29999999999999988  1.6545120143827917e-18 0.24109513774519131  0.0015758782595236675 0.18219027549038275  0.0047276347785709929 0.12674593518650046  0.0093256869453849575 0.078222402415395798  0.015110670046573705 0.039654660540091285  0.021720752894983243 0.013218220180030542  0.028743399706982063 1.5959455978986625e-16  0.035766046518980882 1.6826817716975029e-16  
6 0 1 0 0  1 0  
6 0 8 0.035766046518980923 0.99999999999999944  0.028743399706982104 0.99999999999999944  0.021720752894983285 0.98678177981996906  0.015110670046573746 0.9603453394599083  0.0093256869453849991 0.92177759758460376  0.0047276347785710337 0.8732540648134991  0.0015758782595237083 0.81780972450961686  4.2500725161431774e-17 0.75890486225480824  4.0332320816460765e-17 0.69999999999999973  
6 0 1 0 0  1 0  
6 0 1 0.96423395348101915 1  0.035766046518980965 0.99999999999999956  
6 0 1 0 0  1 0  
6 0 1 1 0  1 0.73125829558849553  
6 0 1 0 0  0 0.73125829558849553  
6 0 8 0.74430355659914316 0.72416233382818795  0.78243122621487737 0.72451084108527963  0.81889053171556103 0.7250842461675534  0.85339806673158436 0.72584735255902921  0.88597931272228503 0.72675597963881811  0.91671802555420667 0.7277737467847637  0.9457918289903342 0.728872372747431  0.97344423636708477 0.73003535082506643  1 0.73125829558849564  
6 0 8 0.44686254347772186 0.72745816880662706  0.47901792861947323 0.72650745024266494  0.51288276627782237 0.72563625894973249  0.54858445507973697 0.72487321871252586  0.58605776020872224 0.72426107274469609  0.62503533129019984 0.72384978774850506  0.66505761260951091 0.7236887971083299  0.70533605723256265 0.72380615007877869  0.74430355659914316 0.72416233382818795  
6 0 8 0.19928354589154376 0.7377134637924474  0.22715350054898228 0.73627941404956698  0.25559426431740689 0.73487468132876199  0.28475691175246193 0.73350179386012637  0.31477839289183251 0.73216641884417166  0.34580806709686757 0.73087825109214877  0.37800482921199069 0.72965069591088105  0.41156767383329523 0.72850171058464208  0.44686254347772186 0.72745816880662706  
6 0 8 0 0.74904995347294256  0.023862321378136254 0.74758968735271936  0.047929950248126484 0.74613797101940393  0.07224414148399394 0.74469609752642985  0.096849275700924178 0.74326582509988448  0.12179331682832516 0.74184936861073536  0.14713118633204866 0.74044945353724079  0.17293105408577261 0.73906943241754308  0.19928354589154376 0.7377134637924474  
6 0 7 0.49138629232454212 0.79840996075894743  0.5611738398081596 0.79569797156134681  0.63190486732593831 0.7930803367373398  0.70356880017505019 0.79056316146742844  0.7761499891650967 0.78814847159151491  0.84967465075955151 0.78584280047575028  0.92421352602983853 0.78367124534487775  1 0.78168453680055694  
6 0 7 0 0.81996493817990956  0.068521276642384013 0.8167368942142893  0.13709212619052077 0.81350834195937349  0.20617609760203981 0.81031947404812354  0.27601220421640194 0.80720106113534307  0.34677271775149404 0.80417248205066172  0.41854920704512583 0.8012404569661522  0.49138629232454212 0.79840996075894743  
6 0 1 0 0  0 0.81996493817990956  
6 0 1 1 0  1 0.81996493817990956  
6 0 1 1 0  1 0.76278034118443283  
6 0 1 0 0  0 0.76278034118443283  
6 0 8 0.79296285152564994 0.86140855890403412  0.82621496439794551 0.8499900074093919  0.85610938277856763 0.83810480306506374  0.88378496712777888 0.82592816556772908  0.90959016774905632 0.81354037671810342  0.93391625246365662 0.80100950950349126  0.9569588841079083 0.78836575378336426  0.97893170723687806 0.77562498082429621  1 0.76278034118443294  
6 0 8 0.67910014934179097 0.89220348749503009  0.69595030187444995 0.88887437625400556  0.71184122616111312 0.88532485167870378  0.72689832404801147 0.88160180393564025  0.74123124551597075 0.87774331869664712  0.75493388868040778 0.87377867713887025  0.76808439979133258 0.86972835594477216  0.78074517323334824 0.86560402730212949  0.79296285152564994 0.86140855890403412  
6 0 8 0.42501060323698464 0.90113085118921721  0.45457581218036458 0.90489358337822834  0.48856780148264156 0.90794249737703714  0.52437727892066999 0.90927540032215981  0.56011188820153279 0.90847869283572513  0.59437461320850904 0.90581502041544115  0.62614719928215856 0.90178826996147488  0.65460886488219872 0.89704226923564234  0.67910014934179097 0.89220348749503009  
6 0 8 0.25368975099425589 0.86054872550452344  0.27076130174364016 0.86646553593919717  0.28858845585326931 0.87221694113338033  0.30741057309653902 0.87782160618867222  0.32746558125103975 0.88325239614753703  0.34895754459249662 0.88844811414783131  0.37216463845211473 0.89328425634034991  0.39731182338782389 0.89760565741384535  0.42501060323698464 0.90113085118921721  
6 0 8 0.12038510159958346 0.80294049366044717  0.13479507938020921 0.8104024655196741  0.14969180209892335 0.81781106481076316  0.16513700914366172 0.82516191547263196  0.18119863960240912 0.83244645754966307  0.19796136020225497 0.83965074701850972  0.21552677080247273 0.84675547871853651  0.23402879344857039 0.85373445535005676  0.25368975099425589 0.86054872550452344  
6 0 8 0 0.73125829558849553  0.013510833654929003 0.74035346184377004  0.027378760371002335 0.74941906173732531  0.041636143522157984 0.75845241685978804  0.056321113570824782 0.76744948399863455  0.071477558992279214 0.77640486620799121  0.087158127547189462 0.7853115964996672  0.10343023790234665 0.7941606941554189  0.12038510159958346 0.80294049366044717  
6 0 8 0.86706678475808885 0.89873420520062552  0.88606232036094157 0.88912016381544057  0.90418254191105629 0.87941396166701757  0.9215611514868286 0.8696330690534978  0.9382923663031022 0.85979048384592505  0.95444728263639111 0.84989600017342126  0.97008445289802381 0.8399570218320237  0.98525467585520499 0.82997892041718091  1 0.81996493817990945  
6 0 8 0.72867202801520059 0.9563650174057674  0.74931401979441747 0.94961832519966616  0.76864046858780544 0.94267206477559617  0.78692282322006557 0.93557679824448736  0.80431631438186812 0.92836541453473742  0.82093802682480099 0.92106185209778035  0.83688622217434305 0.91368313102101728  0.85223854999704474 0.90623908769735861  0.86706678475808885 0.89873420520062552  
6 0 8 0.5890266456415667 0.98941063205499691  0.6105567039096309 0.98625640095009759  0.63053267408389424 0.98264654717063404  0.6492357127060624 0.97871126130022623  0.66682387093274076 0.97453573487620138  0.68343258008191987 0.97018184112708505  0.69919436043839922 0.96569157439398645  0.7142310722710985 0.96108494388425192  0.72867202801520059 0.9563650174057674  
6 0 8 0.42026894680626781 0.99576964572173421  0.44420532895392528 0.99747212678141239  0.46762769370022539 0.99829366702661726  0.49011902960959808 0.99826794711242006  0.51151607170809132 0.9975281279169752  0.53184256816966469 0.99621235933937347  0.55128625322746205 0.99441659138045613  0.5701898773399191 0.99217028647641425  0.5890266456415667 0.98941063205499691  
6 0 8 0.28760272740010256 0.9749812926070347  0.30141641657217338 0.97832846643529892  0.31581696537775428 0.98154100268199818  0.33094738514968425 0.98460290867443423  0.34691805867297826 0.9874792832319591  0.36380674018482778 0.99011631666597444  0.38165855537460053 0.99244129077993237  0.40048600138384044 0.99436257886933488  0.42026894680626781 0.99576964572173421  
6 0 8 0.10552252818276227 0.90942783725874854  0.12393389674208763 0.91822695000909704  0.14314496235434196 0.92690533977005685  0.16332777722417857 0.9354721315995812  0.18468850022581129 0.9439081262558594  0.2074089533572121 0.95217702507999935  0.23183151850440975 0.96019568526951837  0.25824315297060213 0.96786721917485619  0.28760272740010256 0.9749812926070347  
6 0 8 0 0.85176577020778754  0.01191874393314179 0.85909650067451149  0.024136919198263745 0.8663999307065291  0.036680183490627828 0.87367356230771986  0.049578351657336678 0.88091382875425017  0.062865515904191746 0.88811609143645842  0.076582092298073251 0.89527447638167046  0.090778793564841864 0.90238155045794521  0.10552252818276227 0.90942783725874854  
6 0 1 0 0  0 0.85176577020778765  
6 0 1 1 0  1 0.85176577020778765  
6 0 1 1 0  1 0.78350546815646438  
6 0 1 0 0  0 0.78350546815646438  
6 0 8 0.7909923868369646 0.77144831661171476  0.81847234219416554 0.77289261540511389  0.84542112303950945 0.77436218010078528  0.87193099821988862 0.77585243874696119  0.89807196701831038 0.77735967632679392  0.92390091146131736 0.77888084860778406  0.94946789653597441 0.78041345971337039  0.97481961831642372 0.78195550341668429  1 0.78350546815646449  
6 0 8 0.56516629715751887 0.76150969492249176  0.59652542285001309 0.7625722291342466  0.62667928297701392 0.76371009877159224  0.65584553235998466 0.764906901959995  0.68416074601265819 0.76615080159722471  0.71173506529041219 0.76743268162880784  0.73866890880485114 0.76874566233547281  0.76505542794380843 0.77008511503635224  0.7909923868369646 0.77144831661171476  
6 0 8 0.25557219369179118 0.75674114983780694  0.29766919388815666 0.75652465628426446  0.34021959637001586 0.75659503036173348  0.38184915188139068 0.75696342044687326  0.42201796127506996 0.75757893716972879  0.46042316748894674 0.75838524934160101  0.49698228185050608 0.75933101190128549  0.53179319720794171 0.76037892167337562  0.56516629715751887 0.76150969492249176  
6 0 8 0 0.76278034118443283  0.026998054808150145 0.76164871949239099  0.055153362643553236 0.76058342459544659  0.084718462963479735 0.7595943203056571  0.1158539917355334 0.75870216666140644  0.14863531365548827 0.75793709341659521  0.18302217844718763 0.75733427485663229  0.21885423008413535 0.75692998045241577  0.25557219369179118 0.75674114983780694  
6 0 7 0.50683873137820823 0.8320337354836731  0.57968296958654264 0.83464070789888656  0.65162472909803082 0.83732838751346927  0.72264581555731611 0.84009718066028338  0.79279880131606451 0.84294621999063057  0.86222642514996783 0.84586088341998511  0.93114650239878805 0.84881354169651468  1 0.85176577020778776  
6 0 7 0 0.8161543292010971  0.074938160980747209 0.81813027333970789  0.14881836460047232 0.82024529481609998  0.2218969885865853 0.82245465281444152  0.29424627405951187 0.82473797479672972  0.36588315750183792 0.82709371155319056  0.43676708315518276 0.82952598938735844  0.50683873137820823 0.8320337354836731  
6 0 1 0 0  0 0.81615432920109732  
6 0 1 1 0  1 0.81615432920109732  
6 0 5 0 0.78350546815646438  0.17167303291683456 0.79137440411068316  0.35444572796875107 0.7987738741874727  0.55176878354980419 0.80561553442770251  0.76629416058439082 0.81158891383875598  1 0.81615432920109732  
Curves 43
6 0 1 -3.5 -21.92644139925499 2.120000000000001  -3.5 -22.127054300500056 5.9479221899788399  
6 0 5 -1.5 -22.135794596673797 6.1146969759611238  -1.967406930683411 -22.134572419981012 6.0913764554295353  -2.3964638787510575 -22.132973300939582 6.0608634464199147  -2.7911068104497745 -22.131141742799322 6.0259152351943719  -3.1566476254591791 -22.129160900621144 5.9881185148355422  -3.4999999999999996 -22.127054300500063 5.9479221899788399  
6 0 1 -1.4999999999999991 -21.92644139925499 2.1200000000000001  -1.5 -22.135794596673797 6.1146969759611238  
6 0 1 -1.4999999999999996 -21.92644139925499 2.1200000000000001  -3.5 -21.92644139925499 2.1200000000000001  
6 0 8 -1.5 20.012775986819733 2.1200000000000001  -1.205475688725957 20.012775986819733 2.1200000000000001  -0.91095137745191401 19.946684885919581 2.1200000000000001  -0.6337296759325024 19.814502684119276 2.1200000000000001  -0.39111201207697893 19.621663974742752 2.1200000000000001  -0.19827330270045623 19.37904631088723 2.1200000000000001  -0.066091100900152411 19.101824609367817 2.1200000000000001  -4.3021142204224816e-16 18.807300298093775 2.1200000000000001  -4.5796699765787707e-16 18.512775986819733 2.1200000000000001  
6 0 1 -3.5 20.012775986819733 2.1200000000000001  -1.4999999999999996 20.012775986819733 2.1200000000000001  
6 0 8 -5.0000000000000018 18.512775986819733 2.1200000000000001  -5.0000000000000018 18.807300298093775 2.1200000000000001  -4.9339088990998494 19.101824609367817 2.1200000000000001  -4.8017266972995456 19.37904631088723 2.1200000000000001  -4.6088879879230227 19.621663974742752 2.1200000000000001  -4.3662703240674992 19.814502684119276 2.1200000000000001  -4.0890486225480878 19.946684885919581 2.1200000000000001  -3.7945243112740448 20.012775986819733 2.1200000000000001  -3.5000000000000018 20.012775986819733 2.1200000000000001  
6 0 1 -5 -20.42644139925499 2.1200000000000001  -5 18.512775986819733 2.1200000000000001  
6 0 8 -3.5 -21.92644139925499 2.1200000000000001  -3.794524311274043 -21.92644139925499 2.1200000000000001  -4.089048622548086 -21.860350298354838 2.1200000000000001  -4.3662703240674974 -21.728168096554533 2.1200000000000001  -4.6088879879230209 -21.53532938717801 2.1200000000000001  -4.8017266972995438 -21.292711723322487 2.1200000000000001  -4.9339088990998476 -21.015490021803075 2.1200000000000001  -5 -20.720965710529033 2.1200000000000001  -5 -20.42644139925499 2.1200000000000001  
6 0 8 -1.4398204850607499e-16 -20.42644139925499 2.1200000000000001  -7.0256300777060687e-17 -20.720965710529033 2.1200000000000001  -0.066091100900151994 -21.015490021803075 2.1200000000000001  -0.19827330270045576 -21.292711723322487 2.1200000000000001  -0.39111201207697838 -21.53532938717801 2.1200000000000001  -0.63372967593250173 -21.728168096554533 2.1200000000000001  -0.91095137745191312 -21.860350298354838 2.1200000000000001  -1.2054756887259561 -21.92644139925499 2.1200000000000001  -1.4999999999999991 -21.92644139925499 2.1200000000000001  
6 0 1 0 18.512775986819733 2.1200000000000001  0 -20.426441399254983 2.1200000000000001  
6 0 1 -4.9999999999999991 -20.42644139925499 2.1200000000000001  -5.1958478837858024 -20.426441399254987 5.8570002405192358  
6 0 8 -5.0591649680354447 -21.088689098144151 5.8207372525094456  -5.0989202210025057 -20.995354320744926 5.8225182534381617  -5.1306048385535474 -20.9033983662972 5.8254485653994683  -5.1546812311144459 -20.814425584169769 5.8293483211843951  -5.1722542593272784 -20.729199161661668 5.8339917414863445  -5.1843293440387743 -20.648024024398467 5.839192907876031  -5.1918441744005408 -20.570817927852712 5.8448072927130932  -5.1955203508944159 -20.49718148229028 5.8507505406489608  -5.1958478837858024 -20.426441399254983 5.8570002405192358  
6 0 8 -4.5943176284778469 -21.720585975869206 5.8375801877369042  -4.6595162026291836 -21.665112876781521 5.8327216643893731  -4.724991972498044 -21.602966038077788 5.8282695547984575  -4.7901715053121858 -21.533446883649315 5.8243701370863121  -4.8538589705031852 -21.456169733529357 5.8212418448771031  -4.9144149111150828 -21.371313665662822 5.819140026492331  -4.9699234092310576 -21.279854507461412 5.8183173048019352  -5.0185340348988206 -21.184079740054333 5.8189170218669464  -5.0591649680354447 -21.088689098144151 5.8207372525094456  
6 0 8 -4.0227940603220214 -22.041555446238018 5.8899885365512779  -4.0933800084707581 -22.018302844692109 5.8826600121893797  -4.1642328528043322 -21.99106085139675 5.8754813086489444  -4.2354443268560038 -21.959519056997557 5.8684653461204537  -4.3070182382848694 -21.923305141858449 5.8616410860937123  -4.3788762204454219 -21.881943068393522 5.8550580726384434  -4.4508610609839083 -21.834889215212794 5.8487848118285175  -4.522753404770695 -21.781475179728556 5.8429130720254783  -4.5943176284778469 -21.720585975869206 5.8375801877369042  
6 0 8 -3.5 -22.127054300500053 5.9479221899788399  -3.5637438127917327 -22.126663207460656 5.940459690236386  -3.6280074404353906 -22.123549662256028 5.9330408830659334  -3.6927624253686577 -22.117631625736642 5.9256723764485741  -3.7579777176064182 -22.108806402218036 5.9183631555696401  -3.8236195838845313 -22.096952998134935 5.9111245392386298  -3.8896539783453425 -22.081926145547762 5.9039704556570616  -3.9560513747649169 -22.063541990501658 5.8969180375342933  -4.0227940603220214 -22.041555446238018 5.8899885365512779  
6 0 7 -0.27188068463111303 -21.621768082300836 6.2001700758662555  -0.4034389725026446 -21.755890682874977 6.1863108084297558  -0.5538225869508262 -21.874976455300608 6.1729337267256321  -0.72124897698233914 -21.97558384712481 6.1600700304833627  -0.90314124537205964 -22.054433101711531 6.1477300724938253  -1.0961678594662811 -22.10871222119771 6.1359472406734463  -1.2965098521520737 -22.136326683169703 6.1248497911192663  -1.5 -22.135794596673794 6.1146969759611238  
6 0 7 0.21960557424084426 -20.426441399254983 6.3103239794766015  0.21874102941003937 -20.611527653849521 6.2938274813873436  0.19469164007676754 -20.796576845067037 6.2773283857518765  0.14734464299135452 -20.979260182163213 6.2610320917840205  0.076444710045656894 -21.156698657800234 6.2450958489059882  -0.017834053014008422 -21.325484235802431 6.2296186901015274  -0.13457363518705301 -21.481784666230666 6.214634957934499  -0.27188068463111303 -21.621768082300836 6.2001700758662555  
6 0 1 -8.3266726846886741e-17 -20.426441399254987 2.1199999999999997  0.21960557424084459 -20.426441399254983 6.3103239794766015  
6 0 1 -5.0000000000000009 18.512775986819733 2.1200000000000006  -5.2042902166247051 18.512775986819733 6.0180895473815603  
6 0 8 -5.2307051343609929 10.450911455383988 6.5221162033027973  -5.2276469821873812 11.745722707064601 6.4637631836662566  -5.2244638495880729 12.909787963022573 6.4030253954438052  -5.22120266445026 13.987453558263354 6.3407982760650379  -5.2178849280968809 14.992287874983148 6.2774920952124722  -5.2145288720482998 15.939526575800137 6.2134547310177464  -5.2111425818471089 16.836788618563219 6.1488404648245654  -5.2077303081855559 17.692393154963064 6.083730404672516  -5.2042902166247025 18.512775986819733 6.0180895473815603  
6 0 8 -5.2389527284495188 6.0171869428808193 6.6794896734508669  -5.2380611154649195 6.673318695338545 6.6624766842191869  -5.2371104706917766 7.2920988506025655 6.6443373013613733  -5.2361133524011381 7.8784104584239198 6.6253111509638645  -5.2350799608167478 8.4365232032423201 6.6055928648901956  -5.2340181381150508 8.9700934041861444 6.5853320807809919  -5.2329333684251873 9.4821640150724402 6.5646334420539691  -5.2318287778289907 9.9751646244069274 6.5435565979039367  -5.2307051343609929 10.450911455383988 6.5221162033027973  
6 0 8 -5.2413436829150477 -3.8768611284232932 6.72511180242177  -5.2423514296181155 -2.7256150303123015 6.7443407550096204  -5.2431679993009679 -1.4019935694859704 6.7599218327431876  -5.2435249815364697 -0.0076005430438392807 6.7667334595739863  -5.2433116048457142 1.3838771759476067 6.7626619897714235  -5.2425982117672714 2.7180408732367809 6.7490496389298906  -5.2415197548667569 3.9552405092742262 6.7284714553992195  -5.2402486661089167 5.0635154932445623 6.7042176370686137  -5.2389527284495188 6.0171869428808193 6.6794896734508669  
6 0 8 -5.2304748510907455 -10.547961036670493 6.5177221367463396  -5.2320595097665965 -9.8832082109228114 6.5479592255436554  -5.2335998690936245 -9.1890327816722692 6.5773510324108333  -5.2351009280177188 -8.4561142666733495 6.6059929429178696  -5.2365554191696546 -7.6751879444598767 6.6337462873991591  -5.2379469526144904 -6.8383077118596596 6.6602983272654024  -5.2392421833418474 -5.9346416391572578 6.6850128018163781  -5.2403995544928383 -4.9554299382987885 6.7070967589468236  -5.2413436829150477 -3.8768611284232932 6.72511180242177  
6 0 8 -5.2150460342645051 -15.738739758024114 6.2233227739549086  -5.2170445229056801 -15.177626500695821 6.2614562088860479  -5.2190287171387295 -14.59755977641159 6.2993168902619061  -5.2209974449532908 -13.996135501723975 6.336882454792387  -5.2229484137952742 -13.370708181715774 6.3741091579398077  -5.2248778891327374 -12.71798096029611 6.4109257405895974  -5.2267807005971809 -12.033997618458949 6.4472335462335906  -5.2286498319458712 -11.313543336560326 6.4828986969852753  -5.2304748510907455 -10.547961036670493 6.5177221367463396  
6 0 8 -5.1958478837858033 -20.426441399254994 5.857000240519235  -5.198283779658059 -19.900340110498615 5.9034799026147891  -5.2007117569748438 -19.36033389740728 5.9498084696711162  -5.2031310983961889 -18.805162555527872 5.9959722540260971  -5.2055407210562707 -18.233341314494833 6.0419505933689379  -5.2079391795281627 -17.643161191428646 6.0877159073109519  -5.210324607891299 -17.03257212373175 6.1332325919667454  -5.2126946009016324 -16.398948881282084 6.1784547525458695  -5.2150460342645051 -15.738739758024114 6.2233227739549086  
6 0 8 0.24070180569070587 -15.250126033120338 6.7128640553673602  0.23812694305834098 -15.98979732332473 6.6637327495270826  0.23552739764212915 -16.695384569348381 6.6141304681143369  0.23290784839195292 -17.372094025487225 6.5641464908114893  0.23027177643828792 -18.023594436351313 6.5138472415449469  0.22762180487542955 -18.652654235307022 6.4632827719354751  0.22495991661118903 -19.261553407427684 6.4124909181180403  0.22228755028305858 -19.85227001695268 6.36149913093129  0.21960557424084512 -20.42644139925498 6.3103239794766006  
6 0 8 0.25613667005987045 -9.861142515216093 7.0073788121519165  0.2543297498524823 -10.66492552038858 6.9729007206909248  0.25246938066079516 -11.417482311254968 6.9374027618546918  0.25056910418749029 -12.129382892610396 6.9011433267231101  0.24863772884824231 -12.806671826062228 6.8642904898795871  0.24668166591397803 -13.453908300206066 6.8269665856610677  0.24470547375773113 -14.074918545838052 6.7892585930065437  0.24271178679302413 -14.672726176308299 6.751216779520445  0.24070180569070587 -15.250126033120338 6.7128640553673602  
6 0 8 0.26498704992769023 -4.4234606140076309 7.1762541201481076  0.26414227388809841 -5.2618242332426384 7.160134833066139  0.26317547155881149 -6.0396728783565283 7.1416871456710505  0.26212151098911812 -6.767954565044068 7.1215763799772009  0.26100320844298974 -7.4528236816540083 7.1002378962362513  0.25983713500199523 -8.0995538177167461 7.0779878895207373  0.2586345377219097 -8.7133052094082224 7.0550409664391704  0.25740077553123725 -9.2988230002338153 7.0314993814387705  0.25613667005987045 -9.861142515216093 7.0073788121519165  
6 0 8 0.26669014085617487 2.1478321065137997 7.2087510309461411  0.2671461046582061 1.215768118630006 7.2174513385773542  0.26736613213609928 0.3037195660775458 7.2216497129581185  0.26735924374823961 -0.57207545219979039 7.221518274687809  0.26716110305748031 -1.4052595258926441 7.217737525083999  0.26680870980186833 -2.1967573903077153 7.2110134612058303  0.26632776161072103 -2.9538792695586382 7.2018364230308674  0.26572614920584586 -3.6899715982586545 7.1903569745003955  0.26498704992769023 -4.4234606140076309 7.1762541201481076  
6 0 8 0.26112253910797256 7.3137508637591537 7.1025148609658606  0.2620189896711777 6.7758566181842186 7.1196201566961701  0.26287938117619991 6.2151105177649271 7.1360374046084543  0.2636994304154186 5.6259438131231869 7.1516848762326521  0.26446979004547688 5.0040582849976136 7.1663842136325009  0.26517604858728078 4.3464262442435242 7.1798604294055366  0.2657987304259995 3.6512905318329318 7.1917419066830952  0.26631329581106561 2.9181645188545526 7.2015603991303179  0.26669014085617487 2.1478321065137997 7.2087510309461411  
6 0 8 0.24356580767359359 14.403811322782957 6.7675124686767365  0.2459224135702304 13.686887040076243 6.8124791879095694  0.24824668705827527 12.938823179983487 6.8568289680346615  0.25054107203931808 12.152920164299971 6.9006084414719737  0.25280042651227558 11.321150327823137 6.9437194929971104  0.25501502885697086 10.436433664221813 6.9859766230444595  0.25716261150781239 9.4854380908337568 7.0269549411538144  0.25921722571160599 8.4569897148321118 7.0661593156168294  0.26112253910797256 7.3137508637591537 7.1025148609658606  
6 0 8 0.22812257253387028 18.512775986819729 6.4728379880749634  0.23008591169483891 18.048669425838163 6.5103007309697745  0.23204193916799987 17.572903243128525 6.5476239585501208  0.23398998593222142 17.084478348117052 6.584794905132302  0.23592909673636953 16.582233773991337 6.6217953434388939  0.23785802925349636 16.064841996938654 6.6586015684596127  0.23977521029787049 15.53072924694472 6.6951835620224491  0.24167864910484932 14.977920810152757 6.7315033380751101  0.24356580767359359 14.403811322782957 6.7675124686767365  
6 0 1 -2.2204460492503131e-16 18.512775986819733 2.1200000000000006  0.22812257253387086 18.512775986819733 6.4728379880749642  
6 0 1 -3.5000000000000009 20.012775986819733 2.1200000000000001  -3.5000000000000031 20.222616871769361 6.1240026083977694  
6 0 8 -4.0503159734211209 20.128270163255515 6.0623861064113598  -3.9807104019250361 20.152392200195695 6.0697670072105376  -3.9112444379160154 20.17263100773755 6.0772770261112665  -3.8419586103969601 20.189226002449814 6.084892798749733  -3.7729024197969356 20.202354414062484 6.0925953400163868  -3.7041283421661495 20.212154208837003 6.1003690927576901  -3.6356878951565479 20.218738544303505 6.1082013021216737  -3.5676297657879852 20.222201755365123 6.1160817155473239  -3.5000000000000067 20.222616871769358 6.1240026083977686  
6 0 8 -4.5754276451194009 19.834440273635067 6.0115960752183941  -4.510508384502832 19.887641423487345 6.0170260178649828  -4.4450995503716966 19.935180052984187 6.0228409523882434  -4.3793819956163258 19.97771432647319 6.0289570591454629  -4.3135145317920021 20.015682237210651 6.0353138461679796  -4.2476193354071192 20.04944022310158 6.0418647270471979  -4.1817749627483218 20.079296365969146 6.0485745438741789  -4.1160131997506948 20.105502576030428 6.0554196423784203  -4.0503159734211209 20.128270163255515 6.0623861064113598  
6 0 8 -5.0673269728187975 19.178129984171829 5.9872270468792994  -5.0232687059518559 19.281738450284664 5.9861206847818851  -4.9709737187482128 19.383155534269846 5.9864803223354164  -4.9118756039191105 19.478203951074381 5.9883629318662619  -4.8480459627560792 19.565336625005244 5.991508449879813  -4.7813328429024482 19.644068769236718 5.9956290031759885  -4.713200869216724 19.714667671899335 6.0004621995093803  -4.6445162094644177 19.777822391208655 6.0058174058625555  -4.5754276451194009 19.834440273635067 6.0115960752183941  
6 0 8 -5.2042902166247078 18.512775986819733 6.0180895473815603  -5.2039871421639194 18.585052285286412 6.0123065421686981  -5.2002069630275942 18.660404020622206 6.0068624914001445  -5.1924234548718395 18.739305466332326 6.0018078028022588  -5.1799190611261361 18.821920014221835 5.9972485678461593  -5.1618384975698008 18.908047632634961 5.9933387607136011  -5.1373517222687504 18.997054713776269 5.9902581350069459  -5.1057555979438822 19.087760317201958 5.9881920411316276  -5.0673269728187975 19.178129984171829 5.9872270468792994  
6 0 7 -0.26878379364506616 19.717819859181262 6.3719999955970703  -0.13039592160623892 19.577427521196118 6.3853225884503093  -0.012357435324207966 19.420274276227449 6.3990576249302018  0.083154352519145158 19.250190790312786 6.4132071815479144  0.15503379734227773 19.071122251577069 6.42776682583089  0.20301698878458252 18.886615181270653 6.4426618335213979  0.22733189746068105 18.699680774523777 6.457751008927854  0.22812257253387069 18.512775986819729 6.4728379880749642  
6 0 7 -1.4999999999999973 20.231360991845925 6.2908503587925635  -1.2977009113512241 20.231890195385031 6.3009481638578704  -1.0980574676348149 20.204741928816141 6.3117567055368564  -0.90504563323486598 20.151136594363294 6.3230473417197546  -0.72247065297918611 20.072833140636831 6.3347159612054371  -0.55381229189396386 19.972364619145573 6.346754646959317  -0.40190436057452161 19.852868598278071 6.3591844859178979  -0.26878379364506616 19.717819859181262 6.3719999955970703  
6 0 1 -1.5 20.012775986819733 2.1200000000000006  -1.4999999999999991 20.231360991845925 6.2908503587925644  
6 0 5 -3.5 20.222616871769365 6.1240026083977712  -3.1566539341663309 20.224724354807268 6.1642157803110971  -2.791108544062499 20.226706104025588 6.2020298080267384  -2.3964624329003907 20.228538458868904 6.2369932212523143  -1.9674116788312184 20.230138268024927 6.2675193984327793  -1.5 20.231360991845925 6.2908503587925653  
Polygon3D 0
PolygonOnTriangulations 0
Surfaces 9
8 0 0 1 1 -1.4999999999999996 -21.92644139925499 2.1200000000000001  -1.5 -22.194264526824703 7.2303697052924445  
-3.5 -21.92644139925499 2.1200000000000001  -3.5 -22.194264526824703 7.2303697052924445  

8 0 0 8 1 -3.5 -21.92644139925499 2.1200000000000001  -3.5 -22.194264526824689 7.2303697052924445  
-3.794524311274043 -21.92644139925499 2.1200000000000001  -3.8471112594011951 -22.194264526824689 7.2303697052924445  
-4.089048622548086 -21.860350298354838 2.1200000000000001  -4.1944077208354766 -22.116596950968557 7.2303697052924445  
-4.3662703240674974 -21.728168096554533 2.1200000000000001  -4.52093655804729 -21.960522353791699 7.2303697052924445  
-4.6088879879230209 -21.53532938717801 2.1200000000000001  -4.8066408720218403 -21.733082271276814 7.2303697052924445  
-4.8017266972995438 -21.292711723322487 2.1200000000000001  -5.0340809545367264 -21.447377957302269 7.2303697052924445  
-4.9339088990998476 -21.015490021803075 2.1200000000000001  -5.1901555517135813 -21.120849120090458 7.2303697052924445  
-5 -20.720965710529033 2.1200000000000001  -5.2678231275697058 -20.773552658656175 7.2303697052924445  
-5 -20.42644139925499 2.1200000000000001  -5.2678231275697058 -20.42644139925498 7.2303697052924445  

8 0 0 8 1 -1.4398204850607499e-16 -20.42644139925499 2.1200000000000001  0.26782312756970583 -20.426441399254983 7.2303697052924445  
-7.0256300777060687e-17 -20.720965710529033 2.1200000000000001  0.26782312756970589 -20.773552658656179 7.2303697052924445  
-0.066091100900151994 -21.015490021803075 2.1200000000000001  0.19015555171358234 -21.120849120090465 7.2303697052924445  
-0.19827330270045576 -21.292711723322487 2.1200000000000001  0.034080954536727853 -21.447377957302276 7.2303697052924445  
-0.39111201207697838 -21.53532938717801 2.1200000000000001  -0.19335912797815874 -21.733082271276821 7.2303697052924445  
-0.63372967593250173 -21.728168096554533 2.1200000000000001  -0.47906344195270928 -21.960522353791703 7.2303697052924445  
-0.91095137745191312 -21.860350298354838 2.1200000000000001  -0.80559227916452336 -22.11659695096856 7.2303697052924445  
-1.2054756887259561 -21.92644139925499 2.1200000000000001  -1.1528887405988049 -22.194264526824696 7.2303697052924445  
-1.4999999999999991 -21.92644139925499 2.1200000000000001  -1.5 -22.194264526824696 7.2303697052924445  

8 0 0 1 1 -5 -21.92644139925499 2.1200000000000006  2.6645352591003757e-15 -21.92644139925499 2.1200000000000006  
-5.0000000000000027 20.012775986819733 2.1200000000000006  0 20.012775986819733 2.1200000000000006  

8 0 0 8 1 -1.5 20.012775986819733 2.1200000000000001  -1.4999999999999982 20.280599114389439 7.2303697052924445  
-1.205475688725957 20.012775986819733 2.1200000000000001  -1.1528887405988031 20.280599114389439 7.2303697052924445  
-0.91095137745191401 19.946684885919581 2.1200000000000001  -0.80559227916452292 20.202931538533313 7.2303697052924445  
-0.6337296759325024 19.814502684119276 2.1200000000000001  -0.47906344195270922 20.046856941356459 7.2303697052924445  
-0.39111201207697893 19.621663974742752 2.1200000000000001  -0.19335912797815752 19.819416858841571 7.2303697052924445  
-0.19827330270045623 19.37904631088723 2.1200000000000001  0.034080954536730518 19.533712544867019 7.2303697052924445  
-0.066091100900152411 19.101824609367817 2.1200000000000001  0.19015555171358539 19.207183707655204 7.2303697052924445  
-4.3021142204224816e-16 18.807300298093775 2.1200000000000001  0.26782312756970816 18.859887246220925 7.2303697052924445  
-4.5796699765787707e-16 18.512775986819733 2.1200000000000001  0.26782312756970827 18.512775986819729 7.2303697052924445  

8 0 0 1 1 -3.5 20.012775986819733 2.1200000000000001  -3.5 20.280599114389439 7.2303697052924445  
-1.4999999999999996 20.012775986819733 2.1200000000000001  -1.5000000000000002 20.280599114389439 7.2303697052924445  

8 0 0 8 1 -5.0000000000000018 18.512775986819733 2.1200000000000001  -5.2678231275697129 18.512775986819733 7.2303697052924445  
-5.0000000000000018 18.807300298093775 2.1200000000000001  -5.2678231275697129 18.859887246220929 7.2303697052924445  
-4.9339088990998494 19.101824609367817 2.1200000000000001  -5.1901555517135893 19.207183707655208 7.2303697052924445  
-4.8017266972995456 19.37904631088723 2.1200000000000001  -5.0340809545367335 19.533712544867022 7.2303697052924445  
-4.6088879879230227 19.621663974742752 2.1200000000000001  -4.8066408720218448 19.819416858841578 7.2303697052924445  
-4.3662703240674992 19.814502684119276 2.1200000000000001  -4.5209365580472936 20.046856941356467 7.2303697052924445  
-4.0890486225480878 19.946684885919581 2.1200000000000001  -4.1944077208354811 20.202931538533317 7.2303697052924445  
-3.7945243112740448 20.012775986819733 2.1200000000000001  -3.8471112594012027 20.280599114389435 7.2303697052924445  
-3.5000000000000018 20.012775986819733 2.1200000000000001  -3.5000000000000075 20.280599114389435 7.2303697052924445  

8 0 0 1 1 -5 -20.42644139925499 2.1200000000000001  -5.2678231275697058 -20.42644139925499 7.2303697052924445  
-5 18.512775986819733 2.1200000000000001  -5.2678231275697058 18.512775986819733 7.2303697052924445  

8 0 0 1 1 0 18.512775986819733 2.1200000000000001  0.26782312756970761 18.512775986819733 7.2303697052924445  
0 -20.426441399254983 2.1200000000000001  0.26782312756970761 -20.426441399254983 7.2303697052924445  

Triangulations 0

TShapes 98
Ve
0.0011
-3.5 -21.926441399255 2.12
0 0

0101100
*
Ve
0.0011
-3.5 -22.1270543005001 5.94792218997884
0 0

0101100
*
Ed
 1e-07 1 1 0
1  1 0 0 1
2  1 1 0 0 1
2  2 2 0 0 1
4 G1 1 0 2 0
0

0101000
+98 0 -97 0 *
Ve
0.0011
-1.5 -22.1357945966738 6.11469697596112
0 0

0101100
*
Ed
 1e-07 1 1 0
1  2 0 0 1
2  3 1 0 0 1
0

0101000
+95 0 -97 0 *
Ve
0.0011
-1.5 -21.926441399255 2.12
0 0

0101100
*
Ed
 1e-07 1 1 0
1  3 0 0 1
2  4 1 0 0 1
2  5 3 0 0 1
4 G1 1 0 3 0
0

0101000
+93 0 -95 0 *
Ed
 1e-07 1 1 0
1  4 0 0 1
2  6 1 0 0 1
2  7 4 0 0 1
0

0101000
+93 0 -98 0 *
Wi

0101100
+96 0 -94 0 -92 0 +91 0 *
Fa
0  1e-07 1 0

0101000
+90 0 *
Ve
0.0011
-1.5 20.0127759868197 2.12
0 0

0101100
*
Ve
0.0011
-4.44089209850063e-16 18.5127759868197 2.12
0 0

0101100
*
Ed
 1e-07 1 1 0
1  5 0 0 1
2  8 4 0 0 1
2  9 5 0 0 1
0

0101000
+88 0 -87 0 *
Ve
0.0011
-3.5 20.0127759868197 2.12
0 0

0101100
*
Ed
 1e-07 1 1 0
1  6 0 0 1
2  10 4 0 0 1
2  11 6 0 0 1
0

0101000
+85 0 -88 0 *
Ve
0.0011
-5 18.5127759868197 2.12
0 0

0101100
*
Ed
 1e-07 1 1 0
1  7 0 0 1
2  12 4 0 0 1
2  13 7 0 0 1
0

0101000
+83 0 -85 0 *
Ve
0.0011
-5 -20.426441399255 2.12
0 0

0101100
*
Ed
 1e-07 1 1 0
1  8 0 0 1
2  14 4 0 0 1
2  15 8 0 0 1
0

0101000
+81 0 -83 0 *
Ed
 1e-07 1 1 0
1  9 0 0 1
2  16 4 0 0 1
2  17 2 0 0 1
0

0101000
+98 0 -81 0 *
Ve
0.0011
-4.79940161686917e-17 -20.426441399255 2.12
0 0

0101100
*
Ed
 1e-07 1 1 0
1  10 0 0 1
2  18 4 0 0 1
2  19 3 0 0 1
0

0101000
+78 0 -93 0 *
Ed
 1e-07 1 1 0
1  11 0 0 1
2  20 4 0 0 1
2  21 9 0 0 1
0

0101000
+87 0 -78 0 *
Wi

0101100
-86 0 -84 0 -82 0 -80 0 -79 0 -91 0 -77 0 -76 0 *
Fa
0  1e-07 4 0

0101000
-75 0 *
Ve
0.0011
-5.1958478837858 -20.426441399255 5.85700024051924
0 0

0101100
*
Ed
 1e-07 1 1 0
1  12 0 0 1
2  22 2 0 0 1
2  23 8 0 0 1
4 G1 2 0 8 0
0

0101000
+81 0 -73 0 *
Ve
0.0011
-5.05916496803544 -21.0886890981442 5.82073725250945
0 0

0101100
*
Ed
 1e-07 1 1 0
1  13 0 0 1
2  24 2 0 0 1
0

0101000
+71 0 -73 0 *
Ve
0.0011
-4.59431762847785 -21.7205859758692 5.8375801877369
0 0

0101100
*
Ed
 1e-07 1 1 0
1  14 0 0 1
2  25 2 0 0 1
0

0101000
+69 0 -71 0 *
Ve
0.0011
-4.02279406032202 -22.041555446238 5.88998853655128
0 0

0101100
*
Ed
 1e-07 1 1 0
1  15 0 0 1
2  26 2 0 0 1
0

0101000
+67 0 -69 0 *
Ed
 1e-07 1 1 0
1  16 0 0 1
2  27 2 0 0 1
0

0101000
+97 0 -67 0 *
Wi

0101100
+72 0 -70 0 -68 0 -66 0 -65 0 -96 0 +79 0 *
Fa
0  1e-07 2 0

0101000
+64 0 *
Ve
0.0011
-0.271880684631113 -21.6217680823008 6.20017007586625
0 0

0101100
*
Ed
 1e-07 1 1 0
1  17 0 0 1
2  28 3 0 0 1
0

0101000
+62 0 -95 0 *
Ve
0.0011
0.219605574240845 -20.426441399255 6.3103239794766
0 0

0101100
*
Ed
 1e-07 1 1 0
1  18 0 0 1
2  29 3 0 0 1
0

0101000
+60 0 -62 0 *
Ed
 1e-07 1 1 0
1  19 0 0 1
2  30 3 0 0 1
2  31 9 0 0 1
4 G1 3 0 9 0
0

0101000
+78 0 -60 0 *
Wi

0101100
+92 0 -61 0 -59 0 -58 0 +77 0 *
Fa
0  1e-07 3 0

0101000
+57 0 *
Ve
0.0011
-5.20429021662471 18.5127759868197 6.01808954738156
0 0

0101100
*
Ed
 1e-07 1 1 0
1  20 0 0 1
2  32 8 0 0 1
2  33 7 0 0 1
4 G1 8 0 7 0
0

0101000
+83 0 -55 0 *
Ve
0.0011
-5.23070513436099 10.450911455384 6.5221162033028
0 0

0101100
*
Ed
 1e-07 1 1 0
1  21 0 0 1
2  34 8 0 0 1
0

0101000
+53 0 -55 0 *
Ve
0.0011
-5.23895272844952 6.01718694288082 6.67948967345087
0 0

0101100
*
Ed
 1e-07 1 1 0
1  22 0 0 1
2  35 8 0 0 1
0

0101000
+51 0 -53 0 *
Ve
0.0011
-5.24134368291505 -3.87686112842329 6.72511180242177
0 0

0101100
*
Ed
 1e-07 1 1 0
1  23 0 0 1
2  36 8 0 0 1
0

0101000
+49 0 -51 0 *
Ve
0.0011
-5.23047485109075 -10.5479610366705 6.51772213674634
0 0

0101100
*
Ed
 1e-07 1 1 0
1  24 0 0 1
2  37 8 0 0 1
0

0101000
+47 0 -49 0 *
Ve
0.0011
-5.2150460342645 -15.7387397580241 6.22332277395491
0 0

0101100
*
Ed
 1e-07 1 1 0
1  25 0 0 1
2  38 8 0 0 1
0

0101000
+45 0 -47 0 *
Ed
 1e-07 1 1 0
1  26 0 0 1
2  39 8 0 0 1
0

0101000
+73 0 -45 0 *
Wi

0101100
+54 0 -52 0 -50 0 -48 0 -46 0 -44 0 -43 0 -72 0 +80 0 *
Fa
0  1e-07 8 0

0101000
+42 0 *
Ve
0.0011
0.240701805690707 -15.2501260331203 6.71286405536736
0 0

0101100
*
Ed
 1e-07 1 1 0
1  27 0 0 1
2  40 9 0 0 1
0

0101000
+40 0 -60 0 *
Ve
0.0011
0.256136670059871 -9.86114251521609 7.00737881215191
0 0

0101100
*
Ed
 1e-07 1 1 0
1  28 0 0 1
2  41 9 0 0 1
0

0101000
+38 0 -40 0 *
Ve
0.0011
0.26498704992769 -4.42346061400763 7.17625412014811
0 0

0101100
*
Ed
 1e-07 1 1 0
1  29 0 0 1
2  42 9 0 0 1
0

0101000
+36 0 -38 0 *
Ve
0.0011
0.266690140856175 2.1478321065138 7.20875103094614
0 0

0101100
*
Ed
 1e-07 1 1 0
1  30 0 0 1
2  43 9 0 0 1
0

0101000
+34 0 -36 0 *
Ve
0.0011
0.261122539107972 7.31375086375915 7.10251486096586
0 0

0101100
*
Ed
 1e-07 1 1 0
1  31 0 0 1
2  44 9 0 0 1
0

0101000
+32 0 -34 0 *
Ve
0.0011
0.243565807673593 14.403811322783 6.76751246867674
0 0

0101100
*
Ed
 1e-07 1 1 0
1  32 0 0 1
2  45 9 0 0 1
0

0101000
+30 0 -32 0 *
Ve
0.0011
0.228122572533871 18.5127759868197 6.47283798807496
0 0

0101100
*
Ed
 1e-07 1 1 0
1  33 0 0 1
2  46 9 0 0 1
0

0101000
+28 0 -30 0 *
Ed
 1e-07 1 1 0
1  34 0 0 1
2  47 9 0 0 1
2  48 5 0 0 1
4 G1 9 0 5 0
0

0101000
+87 0 -28 0 *
Wi

0101100
+58 0 -39 0 -37 0 -35 0 -33 0 -31 0 -29 0 -27 0 -26 0 +76 0 
*
Fa
0  1e-07 9 0

0101000
+25 0 *
Ve
0.0011
-3.5 20.2226168717694 6.12400260839777
0 0

0101100
*
Ed
 1e-07 1 1 0
1  35 0 0 1
2  49 7 0 0 1
2  50 6 0 0 1
4 G1 7 0 6 0
0

0101000
+85 0 -23 0 *
Ve
0.0011
-4.05031597342112 20.1282701632555 6.06238610641136
0 0

0101100
*
Ed
 1e-07 1 1 0
1  36 0 0 1
2  51 7 0 0 1
0

0101000
+21 0 -23 0 *
Ve
0.0011
-4.5754276451194 19.8344402736351 6.01159607521839
0 0

0101100
*
Ed
 1e-07 1 1 0
1  37 0 0 1
2  52 7 0 0 1
0

0101000
+19 0 -21 0 *
Ve
0.0011
-5.0673269728188 19.1781299841718 5.9872270468793
0 0

0101100
*
Ed
 1e-07 1 1 0
1  38 0 0 1
2  53 7 0 0 1
0

0101000
+17 0 -19 0 *
Ed
 1e-07 1 1 0
1  39 0 0 1
2  54 7 0 0 1
0

0101000
+55 0 -17 0 *
Wi

0101100
+22 0 -20 0 -18 0 -16 0 -15 0 -54 0 +82 0 *
Fa
0  1e-07 7 0

0101000
+14 0 *
Ve
0.0011
-0.268783793645066 19.7178198591813 6.37199999559707
0 0

0101100
*
Ed
 1e-07 1 1 0
1  40 0 0 1
2  55 5 0 0 1
0

0101000
+12 0 -28 0 *
Ve
0.0011
-1.5 20.2313609918459 6.29085035879256
0 0

0101100
*
Ed
 1e-07 1 1 0
1  41 0 0 1
2  56 5 0 0 1
0

0101000
+10 0 -12 0 *
Ed
 1e-07 1 1 0
1  42 0 0 1
2  57 5 0 0 1
2  58 6 0 0 1
4 G1 5 0 6 0
0

0101000
+88 0 -10 0 *
Wi

0101100
+26 0 -11 0 -9 0 -8 0 +86 0 *
Fa
0  1e-07 5 0

0101000
+7 0 *
Ed
 1e-07 1 1 0
1  43 0 0 1
2  59 6 0 0 1
0

0101000
+23 0 -10 0 *
Wi

0101100
+8 0 -5 0 -22 0 +84 0 *
Fa
0  1e-07 6 0

0101000
+4 0 *
Sh

0101000
+89 0 -74 0 +63 0 +56 0 +41 0 +24 0 +13 0 +6 0 +3 0 *
So

1100000
-2 0 *

+1 0 