DBRep_DrawableShape

CASCADE Topology V1, (c) Matra-Datavision
Locations 0
Curve2ds 37
6 0 1 1 0  1 0.28592901866892845  
6 0 1 0 0  0 0.28592901866892845  
6 0 4 1 0.28592901866892839  0.74999713812174229 0.26659652233972614  0.49999618398768453 0.24726421662435255  0.24999713785976294 0.22793210154692692  0 0.20860017713157036  
6 0 1 0 0  0 0.20860017713157036  
6 0 1 1 0  1 0.20860017713157036  
6 0 1 1 0  0 0  
6 0 1 0.99999999999999867 0.99999999999999956  0.5349428359026811 0.99999999999999856  
6 0 10 0.53494283590268177 2.9850774812940747e-15  0.38884081887993849 1.7430501486614959e-15  0.24273880185719493 0.054831135561608284  0.11666413358744704 0.16449340668482251  0.030644162823690757 0.31932321306865219  1.8041124150158794e-16 0.49999999999999872  0.030644162823690264 0.68067678693134548  0.11666413358744621 0.83550659331517563  0.24273880185719407 0.94516886443839065  0.38884081887993804 0.99999999999999822  0.53494283590268232 0.99999999999999833  
6 0 1 0 0  1 0  
6 0 1 0.53494283590268221 -6.6088597932508365e-16  1 0  
6 0 1 1 0  0 0  
6 0 10 0.99999999999999867 0.99999999999999956  0.99999999999999878 0.89999999999999958  0.99999999999999889 0.7999999999999996  0.999999999999999 0.69999999999999962  0.99999999999999911 0.59999999999999964  0.99999999999999922 0.49999999999999972  0.99999999999999933 0.3999999999999998  0.99999999999999944 0.29999999999999988  0.99999999999999956 0.19999999999999996  0.99999999999999967 0.10000000000000002  0.99999999999999978 8.3266726846886741e-17  
6 0 1 0 0  1 0  
6 0 1 1 0  1 0.29542900094776181  
6 0 1 0 0  0 0.29542900094776181  
6 0 8 1 0.29542900094776176  0.93494184854200724 0.29542898527679129  0.87008404716197607 0.29531181620850433  0.8064601568213805 0.29507839831451799  0.74433621266801775 0.29474356706850591  0.68391952664278577 0.29432387820623201  0.62526233332588677 0.29383678796930068  0.56835141186906601 0.29329744613137393  0.5130062867902081 0.29271729109702516  
6 0 8 0.5130062867902081 0.29271729109702516  0.44450109834491863 0.29199918575533668  0.37823449685215593 0.2912168645297713  0.31348375191396649 0.29038716157077854  0.24988399488365848 0.28952333100027805  0.18708497183654182 0.28863697478489647  0.12477266516025243 0.2877375710064613  0.062588099782542497 0.28683294396227438  0 0.28592901866892811  
6 0 1 0 0  1 0  
6 0 8 1 0.20860017713156953  0.98630637425237888 0.20498495298507177  0.97257340625866051 0.20137088959670443  0.95876728552889179 0.19775920186842549  0.94485364265733784 0.19415133679788316  0.9307967024869761 0.19054897344037663  0.91655728097540967 0.18695404333190313  0.90208962576219553 0.18336877137329236  0.88733710043758873 0.1797957371754271  
6 0 8 0.88733710043758873 0.1797957371754271  0.87076471662203492 0.17578193663550493  0.85384758963326846 0.17178719866522571  0.83649315549251946 0.16781173190857276  0.81859738816743577 0.16385944987957071  0.80004989809753901 0.15993750877415483  0.78068843915175856 0.15605800378516962  0.760326785732655 0.15223679073806057  0.73855504757645474 0.14850012697045273  
6 0 8 0.73855504757645474 0.14850012697045273  0.72933869542272001 0.14691833276939728  0.71987225603579952 0.14535323124930946  0.71013110946831781 0.14380581030554684  0.70008122120121974 0.14227872980610956  0.68967914214377102 0.14077632159164022  0.67887200863355668 0.13930458947542393  0.66759754243648195 0.13787120924338819  0.65578405074677182 0.13648552865410313  
6 0 8 0.65578405074677182 0.13648552865410313  0.64797809182749411 0.13556991741575761  0.63994030973096472 0.13467630282602208  0.63164395824617836 0.13380690448278884  0.62306204293252065 0.13296559538521918  0.61416732111976735 0.1321579019337436  0.60493230190808522 0.13139100393006184  0.5953292461680314 0.13067373457714265  0.58533016654055459 0.13001658047922418  
6 0 8 0.58533016654055459 0.13001658047922418  0.57036428579402665 0.12903300096711443  0.55413462181560813 0.12815989419644519  0.53689793708126388 0.12747382913412886  0.51894063846342853 0.12704292401683528  0.50058326789854179 0.12691571587782735  0.48220990186533036 0.12710846601779369  0.46432245967383279 0.12759090141967774  0.44761992056516886 0.12827039210750371  
6 0 8 0.44761992056516886 0.12827039210750371  0.42018475095462354 0.12938650637899324  0.39564344594683032 0.13104622421386267  0.37321908361886219 0.13303208205556943  0.35269098024670409 0.13522239378161227  0.33379976337792444 0.137529932324715  0.31620813953328136 0.1399029166994433  0.29960868797308798 0.14234047532978014  0.28357001196416748 0.14487475657318458  
6 0 8 0.28357001196416748 0.14487475657318458  0.2598935195282312 0.14861589397483962  0.23804240729355283 0.1524741945819123  0.21741650020073183 0.15640892526637734  0.19779365027076762 0.16039796554766769  0.17895586575642813 0.16442388576735298  0.16077257830471131 0.16847768058396229  0.14311040697347888 0.17255485058938366  0.12585269289083592 0.1766568292167619  
6 0 8 0.12585269289083592 0.1766568292167619  0.10920315414930158 0.18061425090925415  0.09295337881276082 0.18458912376284703  0.077016919648224269 0.18857748018293305  0.061327289775650461 0.19257600563939584  0.045829458274203934 0.19658190655492916  0.030473856791806791 0.20059282563422196  0.01521289715798365 0.20460680463400777  0 0.20862229457397954  
6 0 1 0 0  0 0.20862229457397957  
6 0 1 1 0  1 0.20862229457397957  
6 0 1 1 0  1 0.29543149734200219  
6 0 1 0 0  0 0.29543149734200219  
6 0 4 1 0.29543149734200219  0.74999999995171596 0.29543087326972411  0.49999999993563143 0.29543024917992522  0.24999999995171465 0.2954296250726049  0 0.29542900094776159  
6 0 4 1 0.20862229457397946  0.75000383912593727 0.22794996688625768  0.50000511861296293 0.24727779483416876  0.2500038387934907 0.2666057783957973  0 0.28593391754922065  
6 0 1 0 0  0 0.28593391754922065  
6 0 1 1 0  1 0.28593391754922065  
6 0 8 1 0.28593391754922065  0.93903206214222612 0.28681425692937501  0.87843687988264285 0.28769540261917081  0.81773416436657387 0.28857172170787054  0.75659224425169747 0.28943596602686877  0.69471813263405346 0.2902794429074298  0.6317888303075897 0.2910916473428356  0.56746195389195864 0.2918605962115719  0.50108926300586609 0.29257126611217144  
6 0 8 0.50108926300586609 0.29257126611217144  0.44430556692780865 0.2931792641172053  0.38590289808262529 0.29374591344065853  0.32566274194303779 0.29425926742175124  0.2635572021417667 0.29470308357976199  0.19962453387135104 0.29505828896454245  0.13407627767894498 0.29530669316795516  0.067164181610248133 0.29543151351903968  0 0.29543149734200219  
6 0 1 0 0  1 0  
Curves 25
6 0 1 27.5 -55 126  27.5 -53.811010597868808 139.59021105378847  
6 0 4 27.5 -53.811010597868801 139.59021105378847  24.999971381217421 -53.8914016451265 138.67133717895919  22.499961839876857 -53.971791899747551 137.75247236400847  19.999971378597628 -54.052181361631632 136.83361661008246  17.5 -54.132570030678458 135.91476991832786  
6 0 1 17.500000000000004 -55.000000000000007 126  17.500000000000004 -54.132570030678465 135.91476991832786  
6 0 1 27.5 -55 126  17.500000000000004 -55.000000000000007 126  
6 0 10 17.5 -75 126  14.358407346410207 -75 126  11.216814692820414 -73.903377288767842 126  8.5058647709014501 -71.710131866303541 126  6.6562003123241489 -68.613535738626936 126  5.9972670630499216 -65 126  6.6562003123241489 -61.386464261373057 126  8.5058647709014501 -58.289868133696451 126  11.216814692820412 -56.09662271123215 126  14.358407346410205 -55 126  17.5 -55 126  
6 0 1 17.5 -75 126  27.5 -75 126  
6 0 10 27.5 -55 126  27.5 -57 126  27.5 -59 126  27.5 -61 126  27.5 -63 126  27.5 -65 126  27.5 -67 126  27.5 -69 126  27.5 -71 126  27.5 -73 126  27.5 -75 126  
6 0 1 27.5 -55 126  28.728493536068175 -55 140.04174537086345  
6 0 8 28.728493536068179 -55 140.04174537086345  28.728493470902993 -54.874456443446462 140.04174462602197  28.713343252024679 -54.749298909447589 140.03617557824066  28.683159870078981 -54.628762712593712 140.02508122182439  28.639861867844026 -54.515474784792431 140.00916668708382  28.585590222140048 -54.41111020453242 139.98921886842044  28.522602341291488 -54.316533198450301 139.96606746128776  28.452857353401765 -54.231990977127516 139.94043253468374  28.3778344360868 -54.157330226892064 139.91285775616905  
6 0 8 28.3778344360868 -54.157330226892064 139.91285775616905  28.284972434581626 -54.064916509205844 139.8787261972324  28.183806093662639 -53.987425407907182 139.84154245625783  28.07651235621455 -53.924146173975878 139.80210666069885  27.964805172000787 -53.874813576778514 139.76104877919173  27.850184827487507 -53.839062036679614 139.71892025340662  27.733876946623763 -53.816624150604461 139.67617157672973  27.61689329014348 -53.807251771293217 139.63317463814454  27.500000000000004 -53.811010597868808 139.59021105378847  
6 0 8 17.5 -54.132570030678487 135.91476991832789  17.032485400869867 -54.147603353341985 135.74293825399951  16.565117716541529 -54.185619934690365 135.57116176052452  16.098053600191559 -54.246712284419146 135.39949818221345  15.631479682935183 -54.331212541062051 135.2280162948887  15.165612565996595 -54.43966943600401 135.05679590407678  14.700701447163299 -54.572879640273783 134.88592881571611  14.237033381524547 -54.731973494117099 134.71552077938051  13.774941176493829 -54.918555119349563 134.54569440401841  
6 0 8 13.774941176493829 -54.918555119349563 134.54569440401841  13.255845685285193 -55.128153289035438 134.35491839702448  12.739206903317276 -55.372256292166369 134.16504843428515  12.225050700344191 -55.653186340239195 133.97609443265407  11.713881820003913 -55.974183573896966 133.78824240151442  11.20662417118934 -56.339060666009743 133.60183247498523  10.704839846731158 -56.753656340849602 133.41743953777913  10.210576989911257 -57.224797462785361 133.23581721754954  9.7272270129934295 -57.767023810935207 133.05821352599264  
6 0 8 9.7272270129934295 -57.767023810935207 133.05821352599264  9.5226166337570977 -57.996557573271005 132.98303082108191  9.3201611997400207 -58.238785824955208 132.90864151957757  9.1199881866179204 -58.494598989090832 132.83509257616259  8.9224412195534253 -58.765223800779381 132.76251041440761  8.7280800731960557 -59.052223307121025 132.69110092677101  8.5376806716822333 -59.357496867214479 132.62114947459895  8.3522350886352719 -59.683280152157003 132.55302088812533  8.1729515471653773 -60.032145145044453 132.48715946647184  
6 0 8 8.1729515471653773 -60.032145145044453 132.48715946647184  8.0544869986326511 -60.262663426546737 132.44364044895391  7.9388642765917368 -60.503134831221843 132.40116693251343  7.8263701722872954 -60.754519932622777 132.35984441467542  7.7175053241052254 -61.017769267953717 132.31985697915499  7.6129842175726798 -61.293823338069842 132.28146729585731  7.5137351853580494 -61.583612607477441 132.24501662087761  7.4209004072709792 -61.888057504333815 132.21092479650122  7.3358359102623663 -62.208068420447333 132.1796902512034  
6 0 8 7.3358359102623663 -62.208068420447333 132.1796902512034  7.208517680442899 -62.687037024215755 132.13294070049326  7.0954742041241152 -63.212865792462196 132.0914419210369  7.0066099014389787 -63.777762990507995 132.05883323711637  6.9507373226087035 -64.371520162698857 132.03835230966308  6.934137815396598 -64.98114312155333 132.03230610468208  6.9589195950250557 -65.590475624147629 132.04146752206799  7.0211732165556739 -66.179815735737236 132.06439768481246  7.1089244497325126 -66.725524880615197 132.09669388860328  
6 0 8 7.1089244497325126 -66.725524880615197 132.09669388860328  7.2530624128337227 -67.621892962758253 132.14974281864997  7.4675359433163147 -68.410402340646158 132.22862923518295  7.7242163488751743 -69.112220971840372 132.32301709171216  8.0073632728788997 -69.735251797400849 132.42712264479334  8.3056919323165879 -70.290043295620521 132.53679999045582  8.6125015058814842 -70.789447583843227 132.6495879775936  8.9276763563255273 -71.244150494509768 132.76544518018343  9.2553717712187265 -71.666198051576288 132.88589961019497  
6 0 8 9.2553717712187265 -71.666198051576288 132.88589961019497  9.739119806760721 -72.289229889549262 133.06371593365316  10.23804785979523 -72.825197917241454 133.24710102623055  10.746881514993573 -73.295304621429167 133.43411884166699  11.262756829522647 -73.707870409242773 133.62371799315483  11.783416719770177 -74.070879308939098 133.81507004872938  12.307694583489329 -74.389004532909681 134.00774698436612  12.8350067928129 -74.66653325439249 134.20153494311799  13.365537449250859 -74.906433164608387 134.39650205608791  
6 0 8 13.365537449250859 -74.906433164608387 134.39650205608791  13.87737179044089 -75.137878814368406 134.58459837551777  14.391472316548208 -75.333983900406253 134.77352414892749  14.90732466253673 -75.497331594397309 134.96309079647881  15.424499144977872 -75.629672614527763 135.15314077849959  15.942633598906877 -75.732208053149947 135.34354131621379  16.461422375717948 -75.805759173879551 135.53418036733569  16.980611502098135 -75.850824178134374 135.72496485652999  17.5 -75.867521941114902 135.91582116073661  
6 0 1 17.5 -75 126  17.5 -75.867521941114916 135.91582116073661  
6 0 1 27.5 -75 126  28.728503916918321 -75 140.04186402452359  
6 0 4 28.728503916918324 -75 140.04186402452362  28.728501321815077 -69.999999999034316 140.04183436235778  28.728498726638971 -64.999999998712639 140.04180469935912  28.728496131390006 -59.999999999034294 140.04177503552776  28.728493536068175 -55 140.04174537086348  
6 0 4 17.5 -75.867521941114916 135.91582116073661  19.999961608740627 -75.947892928481437 136.83446574996057  22.499948813870372 -76.028264563033488 137.75311773654875  24.999961612065093 -76.108636844679893 138.67177711945953  27.5 -76.189009773329531 139.59044389765094  
6 0 1 27.5 -75 126  27.5 -76.189009773329531 139.59044389765094  
6 0 8 27.500000000000004 -76.189009773329516 139.59044389765094  27.613869329443798 -76.192670521714405 139.63228644315737  27.727843315292379 -76.183871509283719 139.67416731257458  27.841193296248381 -76.162665295603958 139.71581877356047  27.952981689494365 -76.128835673496937 139.75689632054073  28.062084070761724 -76.08214085473125 139.7969867908225  28.167141601439628 -76.022253239153457 139.83559088126233  28.266604262742149 -75.948913156073687 139.87213903389244  28.358528812663295 -75.861472550590634 139.90591718618941  
6 0 8 28.358528812663295 -75.861472550590634 139.90591718618941  28.437172839824893 -75.786664663486093 139.93481534156783  28.510468613822486 -75.701375654660168 139.96174819341695  28.576870859627299 -75.605386635446365 139.98614791675018  28.634278656282412 -75.498893294276911 140.00724250618487  28.680224984822459 -75.382757236441932 140.02412542408263  28.712357002273425 -75.258731706248383 140.03593208003741  28.72850398418791 -75.129608685377505 140.04186479341845  28.728503916918324 -75 140.04186402452359  
Polygon3D 0
PolygonOnTriangulations 0
Surfaces 7
8 0 0 1 1 17.500000000000004 -55.000000000000007 126  17.5 -50.841662354992032 173.53001677498258  
27.5 -55 126  27.5 -50.841662354992025 173.53001677498258  

8 0 0 5 1 27.5 -55 126  27.5 -50.841662354992025 173.53001677498256  
27.5 -55 126  28.806380166629413 -50.841662354992025 173.53001677498256  
27.5 -55 126  30.11276047703393 -51.3546767383069 173.53001677498256  
27.5 -55 126  31.1453232616931 -52.38723952296607 173.53001677498256  
27.5 -55 126  31.658337645007975 -53.69361983337059 173.53001677498256  
27.5 -55 126  31.658337645007975 -55 173.53001677498256  

8 0 0 10 1 17.5 -75 126  17.5 -79.158337645007975 173.53001677498258  
14.358407346410207 -75 126  13.052027046739912 -79.158337645007975 173.53001677498258  
11.216814692820414 -73.903377288767842 126  8.6066413170769422 -77.605356405018924 173.53001677498258  
8.5058647709014501 -71.710131866303541 126  4.7616269673099501 -74.501451091224425 173.53001677498258  
6.6562003123241489 -68.613535738626936 126  2.1462644684333192 -70.11508078472184 173.53001677498258  
5.9972670630499216 -65 126  1.2190388182132135 -65 173.53001677498258  
6.6562003123241489 -61.386464261373057 126  2.1462644684333001 -59.884919215278167 173.53001677498258  
8.5058647709014501 -58.289868133696451 126  4.7616269673099465 -55.498548908775597 173.53001677498258  
11.216814692820412 -56.09662271123215 126  8.6066413170769671 -52.394643594981105 173.53001677498258  
14.358407346410205 -55 126  13.052027046739912 -50.841662354992025 173.53001677498258  
17.5 -55 126  17.499999999999996 -50.841662354992039 173.53001677498258  

8 0 0 1 1 5.9972670630499074 -74.999999999999986 126  5.9972670630499358 -54.999999999999972 126  
27.5 -75.000000000000014 126  27.500000000000028 -55 126  

8 0 0 1 1 27.5 -75 126  27.5 -79.158337645007975 173.53001677498258  
17.5 -75 126  17.5 -79.158337645007975 173.53001677498258  

8 0 0 10 1 27.5 -55 126  31.658337645007975 -55 173.53001677498258  
27.5 -57 126  31.658337645007975 -57 173.53001677498258  
27.5 -59 126  31.658337645007975 -59 173.53001677498258  
27.5 -61 126  31.658337645007975 -61 173.53001677498258  
27.5 -63 126  31.658337645007975 -63 173.53001677498258  
27.5 -65 126  31.658337645007975 -65 173.53001677498258  
27.5 -67 126  31.658337645007975 -67 173.53001677498258  
27.5 -69 126  31.658337645007975 -69 173.53001677498258  
27.5 -71 126  31.658337645007975 -71 173.53001677498258  
27.5 -73 126  31.658337645007975 -73 173.53001677498258  
27.5 -75 126  31.658337645007975 -75 173.53001677498258  

8 0 0 5 1 27.5 -75 126  31.658337645007975 -75 173.53001677498256  
27.5 -75 126  31.658337645007975 -76.30638016662941 173.53001677498256  
27.5 -75 126  31.1453232616931 -77.61276047703393 173.53001677498256  
27.5 -75 126  30.11276047703393 -78.645323261693107 173.53001677498256  
27.5 -75 126  28.806380166629413 -79.158337645007975 173.53001677498256  
27.5 -75 126  27.5 -79.158337645007975 173.53001677498256  

Triangulations 0

TShapes 62
Ve
0.0011
27.5 -55 126
0 0

0101100
*
Ve
0.0011
27.5 -53.8110105978688 139.590211053788
0 0

0101100
*
Ed
 1e-07 1 1 0
1  1 0 0 1
2  1 1 0 0 1
2  2 2 0 0 1
4 G1 1 0 2 0
0

0101000
+62 0 -61 0 *
Ve
0.0011
17.5 -54.1325700306785 135.914769918328
0 0

0101100
*
Ed
 1e-07 1 1 0
1  2 0 0 1
2  3 1 0 0 1
0

0101000
+61 0 -59 0 *
Ve
0.0011
17.5 -55 126
0 0

0101100
*
Ed
 1e-07 1 1 0
1  3 0 0 1
2  4 1 0 0 1
2  5 3 0 0 1
4 G1 1 0 3 0
0

0101000
+57 0 -59 0 *
Ed
 1e-07 1 1 0
1  4 0 0 1
2  6 1 0 0 1
2  7 4 0 0 1
0

0101000
+62 0 -57 0 *
Wi

0101100
+60 0 +58 0 -56 0 -55 0 *
Fa
0  1e-07 1 0

0101000
+54 0 *
Ve
0.0011
17.5 -75 126
0 0

0101100
*
Ed
 1e-07 1 1 0
1  5 0 0 1
2  8 4 0 0 1
2  9 3 0 0 1
0

0101000
+52 0 -57 0 *
Ve
0.0011
27.5 -75 126
0 0

0101100
*
Ed
 1e-07 1 1 0
1  6 0 0 1
2  10 4 0 0 1
2  11 5 0 0 1
0

0101000
+52 0 -50 0 *
Ed
 1e-07 1 1 0
1  7 0 0 1
2  12 4 0 0 1
2  13 6 0 0 1
0

0101000
+62 0 -50 0 *
Wi

0101100
-51 0 +49 0 -48 0 +55 0 *
Fa
0  1e-07 4 0

0101000
+47 0 *
Ve
0.0011
28.7284935360682 -55 140.041745370863
0 0

0101100
*
Ed
 1e-07 1 1 0
1  8 0 0 1
2  14 2 0 0 1
2  15 6 0 0 1
4 G1 2 0 6 0
0

0101000
+62 0 -45 0 *
Ve
0.0011
28.3778344360868 -54.1573302268921 139.912857756169
0 0

0101100
*
Ed
 1e-07 1 1 0
1  9 0 0 1
2  16 2 0 0 1
0

0101000
+45 0 -43 0 *
Ed
 1e-07 1 1 0
1  10 0 0 1
2  17 2 0 0 1
0

0101000
+43 0 -61 0 *
Ed
 1e-07 0 0 1
2  18 2 0 0 1
0

0101100
+62 0 -62 0 *
Wi

0101100
+44 0 +42 0 +41 0 -60 0 +40 0 *
Fa
0  1e-07 2 0

0101000
+39 0 *
Ve
0.0011
13.7749411764938 -54.9185551193496 134.545694404018
0 0

0101100
*
Ed
 2.30189146839893e-07 1 1 0
1  11 0 0 1
2  19 3 0 0 1
0

0101000
+59 0 -37 0 *
Ve
0.0011
9.72722701299343 -57.7670238109352 133.058213525993
0 0

0101100
*
Ed
 2.15121143224011e-07 1 1 0
1  12 0 0 1
2  20 3 0 0 1
0

0101000
+37 0 -35 0 *
Ve
0.0011
8.17295154716538 -60.0321451450445 132.487159466472
0 0

0101100
*
Ed
 8.52947034823119e-05 1 1 0
1  13 0 0 1
2  21 3 0 0 1
0

0101000
+35 0 -33 0 *
Ve
0.0011
7.33583591026236 -62.2080684204473 132.179690251203
0 0

0101100
*
Ed
 2.1719217600027e-05 1 1 0
1  14 0 0 1
2  22 3 0 0 1
0

0101000
+33 0 -31 0 *
Ve
0.0011
7.10892444973251 -66.7255248806152 132.096693888603
0 0

0101100
*
Ed
 2.29389301648758e-06 1 1 0
1  15 0 0 1
2  23 3 0 0 1
0

0101000
+31 0 -29 0 *
Ve
0.0011
9.25537177121872 -71.6661980515763 132.885899610195
0 0

0101100
*
Ed
 7.96573389798868e-06 1 1 0
1  16 0 0 1
2  24 3 0 0 1
0

0101000
+29 0 -27 0 *
Ve
0.0011
13.3655374492509 -74.9064331646084 134.396502056088
0 0

0101100
*
Ed
 4.84502768758586e-07 1 1 0
1  17 0 0 1
2  25 3 0 0 1
0

0101000
+27 0 -25 0 *
Ve
0.0011
17.5 -75.8675219411149 135.915821160737
0 0

0101100
*
Ed
 5.434042441401e-07 1 1 0
1  18 0 0 1
2  26 3 0 0 1
0

0101000
+25 0 -23 0 *
Ed
 1e-07 1 1 0
1  19 0 0 1
2  27 3 0 0 1
2  28 5 0 0 1
4 G1 3 0 5 0
0

0101000
+52 0 -23 0 *
Wi

0101100
+56 0 +36 0 +34 0 +32 0 +30 0 +28 0 +26 0 +24 0 +22 0 -21 0 
+51 0 *
Fa
0  1e-07 3 0

0101000
+20 0 *
Ve
0.0011
28.7285039169183 -75 140.041864024524
0 0

0101100
*
Ed
 1e-07 1 1 0
1  20 0 0 1
2  29 6 0 0 1
2  30 7 0 0 1
4 G1 6 0 7 0
0

0101000
+50 0 -18 0 *
Ed
 1e-07 1 1 0
1  21 0 0 1
2  31 6 0 0 1
0

0101000
+18 0 -45 0 *
Wi

0101100
+17 0 +16 0 -44 0 +48 0 *
Fa
0  1e-07 6 0

0101000
+15 0 *
Ve
0.0011
27.5 -76.1890097733295 139.590443897651
0 0

0101100
*
Ed
 1e-07 1 1 0
1  22 0 0 1
2  32 5 0 0 1
0

0101000
+23 0 -13 0 *
Ed
 1e-07 1 1 0
1  23 0 0 1
2  33 5 0 0 1
2  34 7 0 0 1
4 G1 5 0 7 0
0

0101000
+50 0 -13 0 *
Wi

0101100
+21 0 +12 0 -11 0 -49 0 *
Fa
0  1e-07 5 0

0101000
+10 0 *
Ve
0.0011
28.3585288126633 -75.8614725505906 139.905917186189
0 0

0101100
*
Ed
 1e-07 1 1 0
1  24 0 0 1
2  35 7 0 0 1
0

0101000
+13 0 -8 0 *
Ed
 1e-07 1 1 0
1  25 0 0 1
2  36 7 0 0 1
0

0101000
+8 0 -18 0 *
Ed
 1e-07 0 0 1
2  37 7 0 0 1
0

0101100
+50 0 -50 0 *
Wi

0101100
+11 0 +7 0 +6 0 -17 0 +5 0 *
Fa
0  1e-07 7 0

0101000
+4 0 *
Sh

0101000
+53 0 +46 0 +38 0 +19 0 +14 0 +9 0 +3 0 *
So

1100000
-2 0 *

+1 0 