DBRep_DrawableShape

CASCADE Topology V1, (c) Matra-Datavision
Locations 2
1
              1               0               0              -0 
              0               1               0             -30 
              0               0               1              -0 
2  1 -1 0
Curve2ds 0
Curves 8
1 -103.463821411133 120 -62.25 -0 -1 -0 
1 -103.463821411133 120 -123.497314453125 -0 -1 -0 
1 -103.463821411133 120 -62.25 0 0 -1 
1 108.15542602539099 120 -123.497314453125 -0 -1 -0 
1 -103.463821411133 120 -123.497314453125 1 0 0 
1 108.15542602539099 120 -62.25 -0 -1 -0 
1 108.15542602539099 120 -123.497314453125 0 0 1 
1 108.15542602539099 120 -62.25 -1 0 0 
Polygon3D 0
PolygonOnTriangulations 21
2 1 2 
p 6.1247314653125 1 0 30 
2 3 4 
p 16.89978517225 1 0 30 
2 3 4 
p 6.1247314653125 1 0 30 
2 1 2 
p 16.89978517225 1 0 30 
2 2 4 
p 6.1247314653125 1 0 61.247314453125 
2 1 3 
p 6.1247314653125 1 0 61.247314453125 
2 1 2 
p 21.1619247636524 1 0 61.247314453125 
2 1 2 
p 6.1247314653125 1 0 30 
2 2 3 
p 21.1619247636524 1 0 211.619247436523 
2 1 3 
p 25.3943096963829 1 0 211.619247436523 
2 2 4 
p 25.3943096963829 1 0 211.619247436523 
2 2 3 
p 25.3943096963829 1 0 211.619247436523 
2 3 4 
p 6.1247314653125 1 0 30 
2 1 2 
p 16.89978517225 1 0 30 
2 1 3 
p 6.1247314653125 1 0 61.247314453125 
2 2 4 
p 6.1247314653125 1 0 61.247314453125 
2 3 4 
p 21.1619247636524 1 0 61.247314453125 
2 4 1 
p 21.1619247636524 1 0 211.619247436523 
2 2 4 
p 25.3943096963829 1 0 211.619247436523 
2 1 3 
p 25.3943096963829 1 0 211.619247436523 
2 4 1 
p 25.3943096963829 1 0 211.619247436523 
Surfaces 5
1 -103.463821411133 120 -62.25 1 -0 0 0 0 -1 0 1 0 
1 -103.463821411133 120 -123.497314453125 0 0 1 1 0 -0 -0 1 0 
1 108.15542602539099 120 -123.497314453125 -1 0 0 0 0 1 0 1 -0 
1 108.15542602539099 120 -62.25 0 0 -1 -1 0 0 0 1 0 
1 0 120 0 0 1 0 0 0 1 1 0 0 
Triangulations 6
4 2 1 6.1247314653125
-103.463821411133 120 -62.25 -103.463821411133 90 -62.25 -103.463821411133 120 -123.497314453125 -103.463821411133 90 -123.497314453125 0 0 0 -30 61.247314453125 0 61.247314453125 -30 1 2 4 4 3 1 
4 2 1 21.1470474343164
108.155426025391 120 -62.25 108.155426025391 90 -62.25 -103.463821411133 120 -62.25 -103.463821411133 90 -62.25 0 0 0 -30 211.619247436524 0 211.619247436524 -30 1 2 4 4 3 1 
4 2 1 19.9221011612539
-103.463821411133 120 -123.497314453125 -103.463821411133 90 -123.497314453125 108.155426025391 120 -123.497314453125 108.155426025391 90 -123.497314453125 0 0 0 -30 211.619247436524 0 211.619247436524 -30 1 2 4 4 3 1 
4 2 1 23.2781172300176
-103.463821411133 120 -62.25 -103.463821411133 120 -123.497314453125 108.155426025391 120 -123.497314453125 108.155426025391 120 -62.25 -62.25 -103.463821411133 -123.497314453125 -103.463821411133 -123.497314453125 108.155426025391 -62.25 108.155426025391 3 2 1 1 4 3 
4 2 1 6.1247314653125
108.155426025391 120 -123.497314453125 108.155426025391 90 -123.497314453125 108.155426025391 120 -62.25 108.155426025391 90 -62.25 0 0 0 -30 61.247314453125 0 61.247314453125 -30 1 2 4 4 3 1 
4 2 1 21.1619247636524
-103.463821411133 120 -62.25 -103.463821411133 120 -123.497314453125 108.155426025391 120 -123.497314453125 108.155426025391 120 -62.25 -62.25 -103.463821411133 -123.497314453125 -103.463821411133 -123.497314453125 108.155426025391 -62.25 108.155426025391 3 2 1 1 4 3 

TShapes 24
Ve
1e-07
-103.463821411133 120 -62.25
0 0

0101100
*
Ed
 1e-07 1 1 0
1  1 0 0 30
6  1 1 0
6  2 2 0
0

0101000
+24 0 -24 1 *
Ve
1e-07
-103.463821411133 120 -123.497314453125
0 0

0101100
*
Ed
 1e-07 1 1 0
1  2 0 0 30
6  3 1 0
6  4 3 0
0

0101000
+22 0 -22 1 *
Ed
 1e-07 1 1 0
1  3 0 0 61.247314453125
6  5 1 2
6  6 1 0
6  7 4 0
0

0101000
+24 0 -22 0 *
Wi

0101000
+23 0 -21 0 -20 0 +20 1 *
Fa
0  1e-07 1 0
2  1
0111000
+19 0 *
Ve
1e-07
108.155426025391 120 -123.497314453125
0 0

0101100
*
Ed
 1e-07 1 1 0
1  4 0 0 30
6  8 5 0
0

0101000
+17 0 -17 1 *
Ed
 1e-07 1 1 0
1  5 0 0 211.619247436523
6  9 6 0
6  10 3 0
6  11 3 2
6  12 4 0
0

0101000
+22 0 -17 0 *
Wi

0101000
+21 0 -16 0 -15 0 +15 1 *
Fa
0  1e-07 2 0
2  3
0111000
+14 0 *
Ve
1e-07
108.155426025391 120 -62.25
0 0

0101100
*
Ed
 1e-07 1 1 0
1  6 0 0 30
6  13 5 0
6  14 2 0
0

0101000
+12 0 -12 1 *
Ed
 1e-07 1 1 0
1  7 0 0 61.247314453125
6  15 5 0
6  16 5 2
6  17 4 0
0

0101000
+17 0 -12 0 *
Wi

0101000
+16 0 -11 0 -10 0 +10 1 *
Fa
0  1e-07 3 0
2  5
0111000
+9 0 *
Ed
 1e-07 1 1 0
1  8 0 0 211.619247436523
6  18 6 0
6  19 2 2
6  20 2 0
6  21 4 0
0

0101000
+12 0 -24 0 *
Wi

0101000
+11 0 -23 0 -7 0 +7 1 *
Fa
0  1e-07 4 0
2  2
0111000
+6 0 *
Wi

0101100
+20 0 +15 0 +10 0 +7 0 *
Fa
0  1e-07 5 0
2  4
0111000
-4 0 *
Sh

0101000
-18 0 -13 0 -8 0 -5 0 +3 0 -3 1 *
So

1100000
+2 0 *

+1 0 