DBRep_DrawableShape

CASCADE Topology V1, (c) Matra-Datavision
Locations 0
Curve2ds 24
6 0 1 0 0  0 1  
6 0 1 0 0  1 0  
6 0 1 0 1  1 1  
6 0 1 1 0  1 1  
6 0 1 0 1  1 1  
6 0 1 0 0  1 0  
6 0 1 0 0  0 1  
6 0 1 0 0  1 0  
6 0 1 0 1  1 1  
6 0 1 1 0  1 1  
6 0 1 0 0  0 1  
6 0 1 1 0  1 1  
6 0 1 0 1  1 1  
6 0 1 0 0  1 0  
6 0 1 0 0  0 1  
6 0 1 0 0  1 0  
6 0 1 0 1  1 1  
6 0 1 1 0  1 1  
6 0 1 0 0  0 1  
6 0 1 1 0  1 1  
6 0 1 0 1  1 1  
6 0 1 0 0  1 0  
6 0 1 0 0  0 1  
6 0 1 1 0  1 1  
Curves 18
6 0 7 42.788208788918631 150.57761698137517 23.266416049516948  40.496424466292453 144.81216504476259 24.248281091453009  36.191360018508966 138.74508430463712 25.159640147878534  30.131686665803826 133.07202744346782 25.865736028337995  22.844787818328278 128.28508424318295 26.266492928860476  14.933483864855335 124.8103123437825 26.460786546452518  7.0467833529319162 123.00777642425501 26.563743693586876  7.1054273576010019e-14 123.007776424255 26.563743693586876  
6 0 1 42.788208788918631 150.57761698137517 23.266416049516948  58.707118073330513 144.24980311137361 69.757603933529907  
6 0 7 58.707118073330513 144.24980311137361 69.757603933529907  54.881330869104026 134.62525335426594 70.739468975465968  48.468674922661585 126.36250344695191 71.650828031891493  40.558122457189334 119.09287990056744 72.35692391235095  31.403550858720969 113.09586919312036 72.757680812873431  21.309999919226254 108.61084591195404 72.951974430465469  10.793527063589325 105.87730937928747 73.054931577599831  -4.0856207306205761e-14 105.87730937928748 73.054931577599831  
6 0 1 -2.2819219049821854e-14 123.00777642425507 26.563743693586879  -1.4976265552901479e-13 105.87730937928754 73.054931577599845  
6 0 11 28.403147301315109 172.03505217661254 11.871794241780876  32.719471193943548 171.32242278866588 11.871794938301022  36.287269129846862 170.18624185196785 12.883083087207456  39.173647381364724 168.67602826917934 15.038913427195741  41.307983654855995 166.93255376740566 15.656280258746653  42.784807555323276 165.0433574991487 17.898531051692594  43.832613797518924 163.11163930788143 18.605314830014148  44.496888830402455 160.96321187944071 20.118197554673444  44.770104446733868 158.61413090171317 21.095553846112978  44.542434197632261 156.00169368622036 22.004537697988816  43.882109731498915 153.32954841696497 22.797777170714944  42.788208786826438 150.57761698210868 23.266416049553662  
6 0 1 28.403147301315109 172.03505217661254 11.871794241780876  31.193628287740786 188.93671236261542 58.362982125793842  
6 0 11 31.193628287740786 188.93671236261542 58.362982125793842  37.426112232419385 187.90772303526927 58.362982822313988  43.236523401383408 186.12266370028968 59.374270971220419  48.391156437394834 183.67923196835901 61.530101311208703  53.375952395888859 180.33066365304049 62.147468142759614  57.757800139822145 175.77815399353892 64.389718935705559  60.79796005750746 170.26180290928338 65.09650271402711  62.170826172575929 164.3283346132734 66.609385438686402  62.340001570643842 158.79729102447033 67.586741730125937  61.798950265827173 153.77297996270539 68.495725582001782  60.532935880337796 148.843021033393 69.28896505472791  58.707118071039197 144.2498031116061 69.757603933566628  
6 0 7 -2.2819219049821854e-14 123.00777642425507 26.563743693586879  -7.0467833529318842 123.00777642425507 26.563743693586879  -14.933483864855273 124.81031234378244 26.460786546452436  -22.844787818328083 128.28508424318278 26.266492928860707  -30.131686665804203 133.07202744346853 25.865736028337672  -36.191360018508448 138.74508430463615 25.159640147878779  -40.496424466292666 144.81216504476322 24.248281091452927  -42.788208788918588 150.57761698137512 23.266416049516959  
6 0 7 -1.4976265552901479e-13 105.87730937928754 73.054931577599845  -10.793527063589448 105.87730937928757 73.054931577599845  -21.309999919226563 108.6108459119544 72.951974430465398  -31.403550858720781 113.09586919311977 72.757680812873673  -40.558122457189853 119.09287990056815 72.356923912350638  -48.468674922661606 126.36250344695191 71.650828031891749  -54.881330869104175 134.62525335426625 70.739468975465897  -58.707118073330548 144.24980311137375 69.757603933529921  
6 0 1 -42.788208786826658 150.57761698211272 23.266416049517815  -58.707118071037662 144.24980311160584 69.757603933530788  
6 0 6 2.4116800218072618e-14 174.36398136201296 11.871794241613927  4.7550473128640478 174.36398136201296 11.871794241613927  9.510095011876782 174.2083785353523 11.871794241613927  14.25877757126757 173.89716383968329 11.871794241613927  18.994728880889639 173.43068153922766 11.871794241613927  23.711611966934793 172.80962903398117 11.871794241613927  28.403147495014039 172.03505214464579 11.871794241613927  
6 0 1 2.4116800218072618e-14 174.36398136201296 11.871794241613927  1.5486396448444665e-13 191.4944484069805 58.362982125626893  
6 0 6 1.5486396448444665e-13 191.4944484069805 58.362982125626893  5.2222090549510378 191.4944484069805 58.362982125626893  10.444416296782205 191.32352370277971 58.362982125626893  15.659633320709702 190.98171632634427 58.362982125626893  20.860871137573458 190.4694216162097 58.362982125626893  26.041169894551981 189.78738804668555 58.362982125626893  31.193627378242979 188.93671251278755 58.362982125626893  
6 0 11 -42.788208786826658 150.57761698211272 23.266416049517815  -43.882109731499 153.32954841696645 22.797777170690164  -44.542434197631017 156.00169368621755 22.004537697972609  -44.770104446736532 158.61413090171985 21.095553846105847  -44.496888830398618 160.96321187942567 20.118197554668409  -43.832613797522995 163.11163930789968 18.605314830023104  -42.784807555318665 165.04335749913091 17.898531051696907  -41.307983654859235 166.9325537674153 15.656280258760535  -39.173647381363487 168.67602826917371 15.038913427204522  -36.287269129845072 170.18624185196811 12.883083087208025  -32.719471193942553 171.32242278866468 11.871794938282653  -28.403147301312242 172.03505217661197 11.871794241734253  
6 0 11 -58.707118071037662 144.24980311160584 69.757603933530788  -60.532935880337526 148.84302103339226 69.288965054703141  -61.798950265828999 153.77297996270488 68.495725581985582  -62.34000157064321 158.79729102447854 67.586741730118817  -62.170826172570671 164.32833461325814 66.609385438681386  -60.79796005751529 170.26180290930182 65.096502714036077  -57.757800139818556 175.77815399352309 64.38971893570988  -53.375952395886017 180.33066365305265 62.147468142773505  -48.391156437389654 183.67923196835443 61.530101311217493  -43.236523401386727 186.12266370028956 59.374270971220994  -37.426112232413473 187.90772303526884 58.362982822295621  -31.193628287738832 188.93671236261477 58.362982125747223  
6 0 1 -28.40323570113949 172.03503758170908 11.871794241613927  -31.193724250217468 188.93669651910878 58.362982125626893  
6 0 6 -28.40323570113949 172.03503758170908 11.871794241613927  -23.711685869185363 172.8096193036564 11.871794241613927  -18.994788241697247 173.43067569240364 11.871794241613927  -14.258822211554547 173.89716091417009 11.871794241613927  -9.5101248119569544 174.20837756021893 11.871794241613927  -4.7550622129010733 174.36398136201302 11.871794241613927  -6.2172489379008766e-14 174.36398136201302 11.871794241613927  
6 0 6 -31.193724250217468 188.93669651910878 58.362982125626893  -26.041251057360775 189.78737736040082 58.362982125626893  -20.86093633025558 190.46941519453057 58.362982125626893  -15.659682346634035 190.98171311276394 58.362982125626893  -10.444449024548586 191.32352263141078 58.362982125626893  -5.2222254188485842 191.49444840698055 58.362982125626893  5.9507954119908391e-14 191.49444840698055 58.362982125626893  
Polygon3D 0
PolygonOnTriangulations 0
Surfaces 6
8 0 0 1 7 42.788208788918631 150.57761698137517 23.266416049516948  40.496424466292453 144.81216504476259 24.248281091453009  36.191360018508966 138.74508430463712 25.159640147878534  30.131686665803826 133.07202744346782 25.865736028337995  22.844787818328278 128.28508424318295 26.266492928860476  14.933483864855335 124.8103123437825 26.460786546452518  7.0467833529319162 123.00777642425501 26.563743693586876  7.1054273576010019e-14 123.007776424255 26.563743693586876  
58.707118073330513 144.24980311137361 69.757603933529907  54.881330869104026 134.62525335426591 70.739468975465968  48.468674922661592 126.36250344695188 71.650828031891507  40.558122457189334 119.09287990056743 72.356923912350965  31.403550858720969 113.09586919312034 72.757680812873446  21.309999919226254 108.61084591195403 72.951974430465484  10.793527063589325 105.87730937928745 73.054931577599845  -3.8635761256955448e-14 105.87730937928747 73.054931577599845  

8 0 0 1 11 28.403147301315109 172.03505217661254 11.871794241780876  32.719471193943548 171.32242278866588 11.871794938301022  36.287269129846862 170.18624185196785 12.883083087207456  39.173647381364724 168.67602826917934 15.038913427195741  41.307983654855995 166.93255376740566 15.656280258746653  42.784807555323276 165.0433574991487 17.898531051692594  43.832613797518924 163.11163930788143 18.605314830014148  44.496888830402455 160.96321187944071 20.118197554673444  44.770104446733868 158.61413090171317 21.095553846112978  44.542434197632261 156.00169368622036 22.004537697988816  43.882109731498915 153.32954841696497 22.797777170714944  42.788208786826438 150.57761698210868 23.266416049553662  
31.193628287740786 188.93671236261542 58.362982125793842  37.426112232419385 187.9077230352693 58.362982822313988  43.236523401383408 186.12266370028971 59.374270971220426  48.391156437394827 183.67923196835903 61.530101311208711  53.375952395888859 180.33066365304052 62.147468142759621  57.757800139822137 175.77815399353895 64.389718935705559  60.797960057507453 170.2618029092834 65.09650271402711  62.170826172575921 164.32833461327343 66.609385438686417  62.340001570643821 158.79729102447035 67.586741730125937  61.798950265827116 153.77297996270539 68.495725582001782  60.532935880337661 148.84302103339294 69.28896505472791  58.707118071038906 144.24980311160598 69.757603933566628  

8 0 0 1 7 -2.2819219049821854e-14 123.00777642425507 26.563743693586879  -7.0467833529318842 123.00777642425507 26.563743693586879  -14.933483864855273 124.81031234378244 26.460786546452436  -22.844787818328083 128.28508424318278 26.266492928860707  -30.131686665804203 133.07202744346853 25.865736028337672  -36.191360018508448 138.74508430463615 25.159640147878779  -40.496424466292666 144.81216504476322 24.248281091452927  -42.788208788918588 150.57761698137512 23.266416049516959  
-1.4976265552901479e-13 105.87730937928754 73.054931577599845  -10.793527063589449 105.87730937928757 73.054931577599845  -21.309999919226566 108.61084591195439 72.951974430465398  -31.403550858720784 113.09586919311977 72.757680812873673  -40.55812245718986 119.09287990056815 72.356923912350638  -48.468674922661613 126.36250344695192 71.650828031891749  -54.88133086910419 134.62525335426625 70.739468975465897  -58.707118073330562 144.24980311137378 69.757603933529921  

8 0 0 1 6 2.4116800218072618e-14 174.36398136201296 11.871794241613927  4.7550473128640478 174.36398136201296 11.871794241613927  9.510095011876782 174.2083785353523 11.871794241613927  14.25877757126757 173.89716383968329 11.871794241613927  18.994728880889639 173.43068153922766 11.871794241613927  23.711611966934793 172.80962903398117 11.871794241613927  28.403147495014039 172.03505214464579 11.871794241613927  
1.5486396448444665e-13 191.4944484069805 58.362982125626893  5.2222090549510378 191.4944484069805 58.362982125626893  10.444416296782206 191.32352370277971 58.362982125626893  15.659633320709704 190.98171632634427 58.362982125626893  20.860871137573458 190.4694216162097 58.362982125626893  26.041169894551981 189.78738804668552 58.362982125626893  31.193627378242979 188.93671251278755 58.362982125626893  

8 0 0 1 11 -42.788208786826658 150.57761698211272 23.266416049517815  -43.882109731499 153.32954841696645 22.797777170690164  -44.542434197631017 156.00169368621755 22.004537697972609  -44.770104446736532 158.61413090171985 21.095553846105847  -44.496888830398618 160.96321187942567 20.118197554668409  -43.832613797522995 163.11163930789968 18.605314830023104  -42.784807555318665 165.04335749913091 17.898531051696907  -41.307983654859235 166.9325537674153 15.656280258760535  -39.173647381363487 168.67602826917371 15.038913427204522  -36.287269129845072 170.18624185196811 12.883083087208025  -32.719471193942553 171.32242278866468 11.871794938282653  -28.403147301312242 172.03505217661197 11.871794241734253  
-58.707118071037662 144.24980311160584 69.757603933530788  -60.532935880337519 148.84302103339226 69.288965054703127  -61.798950265828992 153.77297996270488 68.495725581985567  -62.34000157064321 158.79729102447854 67.586741730118817  -62.170826172570663 164.32833461325811 66.609385438681372  -60.797960057515283 170.26180290930179 65.096502714036063  -57.757800139818549 175.77815399352306 64.38971893570988  -53.375952395886017 180.33066365305262 62.147468142773505  -48.391156437389647 183.6792319683544 61.530101311217486  -43.236523401386719 186.12266370028951 59.374270971220994  -37.426112232413459 187.90772303526879 58.362982822295621  -31.193628287738807 188.93671236261468 58.362982125747223  

8 0 0 1 6 -28.40323570113949 172.03503758170908 11.871794241613927  -23.711685869185363 172.8096193036564 11.871794241613927  -18.994788241697247 173.43067569240364 11.871794241613927  -14.258822211554547 173.89716091417009 11.871794241613927  -9.5101248119569544 174.20837756021893 11.871794241613927  -4.7550622129010733 174.36398136201302 11.871794241613927  -6.2172489379008766e-14 174.36398136201302 11.871794241613927  
-31.193724250217468 188.93669651910878 58.362982125626893  -26.041251057360775 189.78737736040085 58.362982125626893  -20.86093633025558 190.4694151945306 58.362982125626893  -15.659682346634035 190.98171311276397 58.362982125626893  -10.444449024548586 191.32352263141081 58.362982125626893  -5.222225418848585 191.49444840698055 58.362982125626893  5.8952842607595812e-14 191.49444840698055 58.362982125626893  

Triangulations 0

TShapes 44
Ve
0.0011
42.7882087878725 150.577616981742 23.2664160495352
0 0

0101100
*
Ve
0.0011
2.76702409418946e-14 123.007776424255 26.5637436935869
0 0

0101100
*
Ed
 1e-07 1 1 0
1  1 0 0 1
2  1 1 0 0 1
0

0101000
+44 0 -43 0 *
Ve
0.0011
58.7071180721849 144.24980311149 69.7576039335482
0 0

0101100
*
Ed
 1e-07 1 1 0
1  2 0 0 1
2  2 1 0 0 1
2  3 2 0 0 1
4 G1 1 0 2 0
0

0101000
+44 0 -41 0 *
Ve
0.0011
-9.61976098373104e-14 105.877309379288 73.0549315775998
0 0

0101100
*
Ed
 1e-07 1 1 0
1  3 0 0 1
2  4 1 0 0 1
0

0101000
+41 0 -39 0 *
Ed
 1e-07 1 1 0
1  4 0 0 1
2  5 1 0 0 1
2  6 3 0 0 1
4 G1 1 0 3 0
0

0101000
+43 0 -39 0 *
Wi

0101100
-42 0 +40 0 +38 0 -37 0 *
Fa
1  1e-07 1 0

0101000
+36 0 *
Ve
0.0011
28.4031473981646 172.035052160629 11.8717942416974
0 0

0101100
*
Ed
 1e-07 1 1 0
1  5 0 0 1
2  7 2 0 0 1
0

0101000
+34 0 -44 0 *
Ve
0.0011
31.1936278329919 188.936712437701 58.3629821257104
0 0

0101100
*
Ed
 1.01399354869955e-06 1 1 0
1  6 0 0 1
2  8 2 0 0 1
2  9 4 0 0 1
4 G1 2 0 4 0
0

0101000
+34 0 -32 0 *
Ed
 1e-07 1 1 0
1  7 0 0 1
2  10 2 0 0 1
0

0101000
+32 0 -41 0 *
Wi

0101100
-33 0 +31 0 +30 0 -40 0 *
Fa
1  1e-07 2 0

0101000
+29 0 *
Ve
0.0011
-42.7882087878726 150.577616981744 23.2664160495174
0 0

0101100
*
Ed
 1e-07 1 1 0
1  8 0 0 1
2  11 3 0 0 1
0

0101000
+43 0 -27 0 *
Ve
0.0011
-58.7071180721841 144.24980311149 69.7576039335304
0 0

0101100
*
Ed
 1e-07 1 1 0
1  9 0 0 1
2  12 3 0 0 1
0

0101000
+39 0 -25 0 *
Ed
 1e-07 1 1 0
1  10 0 0 1
2  13 3 0 0 1
2  14 5 0 0 1
4 G1 3 0 5 0
0

0101000
+27 0 -25 0 *
Wi

0101100
-26 0 +37 0 +24 0 -23 0 *
Fa
1  1e-07 3 0

0101000
+22 0 *
Ve
0.0011
-1.99160230001682e-14 174.363981362013 11.8717942416139
0 0

0101100
*
Ed
 1e-07 1 1 0
1  11 0 0 1
2  15 4 0 0 1
0

0101000
+20 0 -34 0 *
Ve
0.0011
1.05853691672627e-13 191.494448406981 58.3629821256269
0 0

0101100
*
Ed
 1e-07 1 1 0
1  12 0 0 1
2  16 4 0 0 1
2  17 6 0 0 1
4 G1 4 0 6 0
0

0101000
+20 0 -18 0 *
Ed
 1e-07 1 1 0
1  13 0 0 1
2  18 4 0 0 1
0

0101000
+18 0 -32 0 *
Wi

0101100
-19 0 +17 0 +16 0 -31 0 *
Fa
1  1e-07 4 0

0101000
+15 0 *
Ve
0.0011
-28.4031915012259 172.035044879161 11.8717942416741
0 0

0101100
*
Ed
 1e-07 1 1 0
1  14 0 0 1
2  19 5 0 0 1
0

0101000
+27 0 -13 0 *
Ve
0.0011
-31.1936762689782 188.936704440862 58.3629821256871
0 0

0101100
*
Ed
 1e-07 1 1 0
1  15 0 0 1
2  20 5 0 0 1
0

0101000
+25 0 -11 0 *
Ed
 0.00010698773242375 1 1 0
1  16 0 0 1
2  21 5 0 0 1
2  22 6 0 0 1
4 G1 5 0 6 0
0

0101000
+13 0 -11 0 *
Wi

0101100
-12 0 +23 0 +10 0 -9 0 *
Fa
1  1e-07 5 0

0101000
+8 0 *
Ed
 1e-07 1 1 0
1  17 0 0 1
2  23 6 0 0 1
0

0101000
+13 0 -20 0 *
Ed
 1e-07 1 1 0
1  18 0 0 1
2  24 6 0 0 1
0

0101000
+11 0 -18 0 *
Wi

0101100
-6 0 +9 0 +5 0 -17 0 *
Fa
1  1e-07 6 0

0101000
+4 0 *
Sh

0101000
+35 0 +28 0 +21 0 +14 0 +7 0 +3 0 *
So

1100000
+2 0 *

+1 0 