DBRep_DrawableShape

CASCADE Topology V1, (c) Matra-Datavision
Locations 4
1
              1               0               0             100 
              0               1               0               0 
              0               0               1              -0 
2  1 -1 0
1
              1               0               0               5 
              0               1               0               0 
              0               0               1              -0 
2  3 -1 0
Curve2ds 0
Curves 8
1 0 9.220540922758687 18.319849858042062 1 0 -0 
1 0 9.2205409227586816 -1.4210854715202004e-14 1 0 -0 
1 0 9.220540922758687 18.319849858042062 0 -0 -1 
1 0 -7.0209078255958319 -7.1054273576010019e-15 1 0 -0 
1 0 9.2205409227586888 -7.1054273576010019e-15 0 -1 2.4476268497110025e-16 
1 0 -7.0209078255958275 18.319849858042062 1 0 -0 
1 0 -7.0209078255958275 -15.268588696586221 0 0 1 
1 0 -7.0209078255958275 18.319849858042062 -0 1 -0 
Polygon3D 0
PolygonOnTriangulations 26
2 1 2 
p 10.00000002 1 0 100 
2 3 4 
p 11.879352796786 1 0 100 
2 3 4 
p 10.00000002 1 0 100 
2 1 2 
p 11.879352796786 1 0 100 
2 1 2 
p 1.83198500580421 1 0 18.3198498580421 
2 1 2 
p 2.19838198696505 1 0 18.3198498580421 
2 2 4 
p 8.7935279478602 1 0 18.3198498580421 
2 1 2 
p 2.19838198696505 1 0 18.3198498580421 
2 3 4 
p 10.00000002 1 0 100 
2 1 2 
p 11.8901843912378 1 0 100 
2 2 3 
p 1.83198500580421 1 7.105427357601e-15 16.2414487483545 
2 1 2 
p 1.99054187599629 1 7.105427357601e-15 16.2414487483545 
2 2 4 
p 7.96216750398517 1 7.105427357601e-15 16.2414487483545 
2 2 3 
p 1.99054187599629 1 7.105427357601e-15 16.2414487483545 
2 3 4 
p 10.00000002 1 0 100 
2 1 2 
p 11.9738620153479 1 0 100 
2 3 4 
p 1.83198500580421 1 15.2685886965862 33.5884385546283 
2 1 2 
p 2.19838198696505 1 15.2685886965862 33.5884385546283 
2 1 3 
p 8.79352794786019 1 15.2685886965862 33.5884385546283 
2 3 4 
p 2.19838198696505 1 15.2685886965862 33.5884385546283 
2 4 1 
p 1.83198500580421 1 0 16.2414487483545 
2 4 3 
p 1.99054187599629 1 0 16.2414487483545 
2 1 2 
p 1.99054187599629 1 0 16.2414487483545 
2 3 4 
p 1.99054187599629 1 0 16.2414487483545 
2 1 3 
p 7.96216750398517 1 0 16.2414487483545 
2 4 1 
p 1.99054187599629 1 0 16.2414487483545 
Surfaces 5
1 0 9.220540922758687 18.319849858042062 -0 1 -0 0 0 -1 -1 -0 -0 
1 0 9.2205409227586816 -7.1054273576010003e-15 0 -2.4476268497110025e-16 -1 0 -1 2.4476268497110025e-16 -1 -0 0 
1 0 -7.0209078255958275 -7.1054273576010019e-15 0 -1 0 0 0 1 -1 0 0 
1 0 -7.0209078255958275 18.319849858042062 0 0 1 -0 1 0 -1 -0 0 
1 0 -3.5527136788005009e-15 37.499999999999993 1 0 -0 0 0 1 0 -1 0 
Triangulations 10
4 2 1 9.3967639839301
0 9.22054092275869 18.3198498580421 100 9.22054092275869 18.3198498580421 0 9.22054092275868 -1.4210854715202e-14 100 9.22054092275868 -1.4210854715202e-14 0 0 0 -100 18.3198498580421 0 18.3198498580421 -100 1 2 4 4 3 1 
4 2 1 9.94438745502607
0 -7.02090782559583 18.3198498580421 100 -7.02090782559583 18.3198498580421 0 9.22054092275869 18.3198498580421 100 9.22054092275869 18.3198498580421 0 0 0 -100 16.2414487483545 0 16.2414487483545 -100 1 2 4 4 3 1 
4 2 1 9.45092195618909
0 9.22054092275868 -1.4210854715202e-14 100 9.22054092275868 -1.4210854715202e-14 0 -7.02090782559583 -7.105427357601e-15 100 -7.02090782559583 -7.105427357601e-15 0 0 0 -100 16.2414487483545 0 16.2414487483545 -100 1 2 4 4 3 1 
4 2 1 1.83198500580421
0 9.22054092275869 18.3198498580421 0 9.22054092275868 -1.4210854715202e-14 0 -7.02090782559583 -7.105427357601e-15 0 -7.02090782559583 18.3198498580421 -19.1801501419579 -9.22054092275869 -37.5 -9.22054092275869 -37.5 7.02090782559583 -19.1801501419579 7.02090782559582 3 2 4 1 4 2 
4 2 1 2.06680006338277
0 9.22054092275869 18.3198498580421 0 9.22054092275868 -1.4210854715202e-14 5 9.22054092275869 18.3198498580421 5 9.22054092275868 -1.4210854715202e-14 0 0 18.3198498580421 0 0 -5 18.3198498580421 -5 1 3 4 4 2 1 
4 2 1 2.09446193148067
0 9.22054092275869 18.3198498580421 0 9.22054092275868 -1.4210854715202e-14 0 -7.02090782559583 -7.105427357601e-15 0 -7.02090782559583 18.3198498580421 -19.1801501419579 -9.22054092275869 -37.5 -9.22054092275869 -37.5 7.02090782559583 -19.1801501419579 7.02090782559582 3 2 4 1 4 2 
4 2 1 9.86931007673955
0 -7.02090782559583 -7.105427357601e-15 100 -7.02090782559583 -7.105427357601e-15 0 -7.02090782559583 18.3198498580421 100 -7.02090782559583 18.3198498580421 0 0 0 -100 18.3198498580421 0 18.3198498580421 -100 1 2 4 4 3 1 
4 2 1 2.00957949059291
5 9.22054092275868 -1.4210854715202e-14 5 -7.02090782559583 -7.105427357601e-15 5 9.22054092275869 18.3198498580421 5 -7.02090782559583 18.3198498580421 -37.5 -9.22054092275869 -37.5 7.02090782559583 -19.1801501419579 -9.22054092275869 -19.1801501419579 7.02090782559582 2 1 4 3 4 1 
4 2 1 1.96632109385313
0 -7.02090782559583 -7.105427357601e-15 0 -7.02090782559583 18.3198498580421 5 -7.02090782559583 -7.105427357601e-15 5 -7.02090782559583 18.3198498580421 0 0 18.3198498580421 0 0 -5 18.3198498580421 -5 1 3 4 4 2 1 
4 2 1 1.80734338541587
0 -7.02090782559583 18.3198498580421 0 9.22054092275869 18.3198498580421 5 -7.02090782559583 18.3198498580421 5 9.22054092275869 18.3198498580421 0 0 16.2414487483545 0 0 -5 16.2414487483545 -5 1 3 4 4 2 1 

TShapes 24
Ve
1e-07
0 9.22054092275869 18.3198498580421
0 0

0101100
*
Ed
 1e-07 1 1 0
1  1 0 0 100
6  1 1 0
6  2 2 0
0

0101000
+24 0 -24 1 *
Ve
1e-07
0 9.22054092275868 -1.4210854715202e-14
0 0

0101100
*
Ed
 1e-07 1 1 0
1  2 0 0 100
6  3 1 0
6  4 3 0
0

0101000
+22 0 -22 1 *
Ed
 1e-07 1 1 0
1  3 0 0 18.3198498580421
6  5 4 0
6  6 5 0
6  7 1 2
6  8 6 0
0

0101000
+24 0 -22 0 *
Wi

0101000
+23 0 -21 0 -20 0 +20 1 *
Fa
0  1e-07 1 0
2  1
0111000
+19 0 *
Ve
1e-07
0 -7.02090782559583 -7.105427357601e-15
0 0

0101100
*
Ed
 1e-07 1 1 0
1  4 0 0 100
6  9 3 0
6  10 7 0
0

0101000
+17 0 -17 1 *
Ed
 1e-07 1 1 0
1  5 0 7.105427357601e-15 16.2414487483545
6  11 4 0
6  12 8 4
6  13 3 2
6  14 6 0
0

0101000
+22 0 -17 0 *
Wi

0101000
+21 0 -16 0 -15 0 +15 1 *
Fa
0  1e-07 2 0
2  3
0111000
+14 0 *
Ve
1e-07
0 -7.02090782559583 18.3198498580421
0 0

0101100
*
Ed
 1e-07 1 1 0
1  6 0 0 100
6  15 7 0
6  16 2 0
0

0101000
+12 0 -12 1 *
Ed
 1e-07 1 1 0
1  7 0 15.2685886965862 33.5884385546283
6  17 4 0
6  18 9 0
6  19 7 0
6  20 6 0
0

0101000
+17 0 -12 0 *
Wi

0101000
+16 0 -11 0 -10 0 +10 1 *
Fa
0  1e-07 3 0
2  7
0111000
+9 0 *
Ed
 1e-07 1 1 0
1  8 0 0 16.2414487483545
6  21 4 0
6  22 8 4
6  23 10 0
6  24 10 4
6  25 2 0
6  26 6 0
0

0101000
+12 0 -24 0 *
Wi

0101000
+11 0 -23 0 -7 0 +7 1 *
Fa
0  1e-07 4 0
2  2
0111000
+6 0 *
Wi

0101100
+20 0 +15 0 +10 0 +7 0 *
Fa
0  1e-07 5 0
2  6
0111000
-4 0 *
Sh

0101000
-18 0 -13 0 -8 0 -5 0 +3 0 -3 1 *
So

1100000
-2 0 *

+1 0 