DBRep_DrawableShape

CASCADE Topology V1, (c) Matra-Datavision
Locations 15
1
              1              -0               0              -0 
              0               1               0               0 
             -0               0               1              -0 
1
              1               0               0              -0 
              0               1               0              -0 
              0               0               1           -0.05 
2  1 1 2 1 0
1
              1               0               0               0 
              0               1               0               0 
              0               0               1             0.1 
2  1 1 2 1 4 1 0
2  1 -1 0
1
              1               0               0               0 
              0               1               0               0 
              0               0               1             0.1 
2  7 -1 1 -1 0
1
              1               0               0              -0 
              0               1               0              -0 
              0               0               1           -0.05 
2  9 -1 1 -1 0
1
              1               0               0               0 
              0               1               0               0 
              0               0               1             0.1 
2  11 -1 9 -1 1 -1 0
2  2 -1 1 -1 0
2  4 -1 2 -1 1 -1 0
2  2 1 4 1 0
Curve2ds 9
1 0 0 0 -1 
1 6.28318530717959 0 0 -1 
2 0.120277493260801 0.0130843883380294 1 0 -0 1 0.04
1 0 0 1 0 
1 0 -0.1 1 0 
1 0 0 1 0 
1 0 -0.1 1 0 
1 0 0 1 0 
1 0 -0.1 1 0 
Curves 2
1 0.160277493260801 0.0130843883380294 -0.05 0 0 1 
2 0.120277493260801 0.0130843883380294 0 0 -0 1 1 0 0 -0 1 0 0.04
Polygon3D 0
PolygonOnTriangulations 0
Surfaces 4
2 0.120277493260801 0.0130843883380294 -0.05 -0 -0 -1 1 0 0 0 1 0 0.04
1 0 0 -0 0 0 1 1 0 -0 -0 1 0 
2 0.120277493260801 0.0130843883380294 0 -0 -0 -1 1 0 0 0 1 0 0.04
2 0.120277493260801 0.0130843883380294 -0.05 -0 -0 -1 1 0 0 0 1 0 0.04
Triangulations 0

TShapes 9
Ve
1e-07
0.160277493260801 0.0130843883380294 0
0 0

0101101
*
Ed
 1e-07 1 1 0
1  1 0 0 0.1
3  1 2C2 1 0 0 0.1
0

0101000
+9 3 -9 5 *
Ed
 1e-07 1 1 0
2  3 2 0 0 6.28318530717959
1  2 0 0 6.28318530717959
2  4 3 6 0 6.28318530717959
2  5 3 8 0 6.28318530717959
2  6 4 10 0 6.28318530717959
2  7 4 12 0 6.28318530717959
2  8 1 13 0 6.28318530717959
2  9 1 14 0 6.28318530717959
0

0101000
+9 0 -9 0 *
Wi

0101000
+8 0 -8 0 -7 3 +7 5 *
Fa
0  1e-07 1 0

0101000
+6 0 *
Wi

0101100
+7 0 *
Fa
0  1e-07 2 1

0101000
+4 1 *
Sh

0101000
+5 0 +3 2 -3 15 *
So

1100000
-2 0 *

+1 0 