DBRep_DrawableShape

CASCADE Topology V1, (c) Matra-Datavision
Locations 11
1
              1               0               0               0 
              0               1               0               0 
              0               0               1               0 
1
              1               0               0               0 
              0               1               0               0 
              0               0               1               0 
1
              1               0               0               0 
              0               1               0             -60 
              0               0               1               0 
1
              1               0               0               0 
              0               1               0             120 
              0               0               1               0 
2  3 1 4 1 0
2  3 1 4 1 2 -1 0
2  2 -1 0
2  1 -1 0
2  3 1 1 -1 0
1
              1               0               0            -540 
              0               1               0               0 
              0               0               1               0 
2  10 -1 0
Curve2ds 38
1 0 0 0 1 
1 0 -20.100002288818359 1 0 
8 66.995942552863099 540.02056232359041
1 0 0 0.0087265344994895931 -0.99996192307288845 
8 66.995942552863099 540.02056232359041
1 0 12.5 1 0 
8 0 31.16928402141432
1 -15 -40 0.50000001261839133 -0.86602539649920685 
8 0 31.16928402141432
1 0 0 1 0 
8 66.598885233136315 539.62350500386356
1 90.996535065601137 -0.3970422010041541 -0.0087265344994895931 -0.99996192307288845 
8 66.598885233136315 539.62350500386356
1 0.39705731972677644 -132.5 1 0 
8 0 31.16928402141432
1 106 -40 -0.50000001261839133 -0.86602539649920685 
8 0 31.16928402141432
1 0 0 1 0 
8 0 31.16928402141437
1 5.2015335524063106e-15 -20.100002288818359 1 0 
8 0 31.16928402141437
1 0 -1.7763568394002505e-15 0 1 
8 -13.850002288818359 6.25
1 31.16928402141432 -6.25 0 1 
8 -13.850002288818359 6.25
1 66.995942552863099 6.25 0 1 
8 0 31.16928402141437
1 5.2015335524063106e-15 -20.100002288818359 1 0 
8 0 31.16928402141437
1 0 -1.7763568394002505e-15 0 1 
8 46.149997711181641 66.25
1 31.16928402141432 -66.25 0 1 
8 46.149997711181641 66.25
1 66.995942552863099 -66.25 0 -1 
7 0 0  9 10 2  1.3327518996173982 23.780069234557065  1.3333590357710086 25.125489916052363  1.333966172105379 26.471133979146032  1.3345733072499777 27.816997669546048  1.3351804458791718 29.163090635347661  1.3357875787324842 30.509391620883456  1.3363947173657886 31.855925526873346  1.3370018525127751 33.202671095160525  1.3376089888475369 34.549637975318625  1.338216125001451 35.896822411254384 
 4.4743445532071906 10 4.479808778591245 10
8 4.4743445532071906 4.479808778591245
3 561.50556804287385 -7.6000022888183594 1 0 -0 1 2280.4009669984771 19.899997711181641
8 0 1.3382161250014528
7 0 0  8 9 2  -6.8209021574860372e-17 40.000000000000028  0.16727701637518169 39.999999999108077  0.33455403175048559 39.829482049575745  0.50183104712368731 39.488446565839695  0.66910806250189125 38.987070725881495  0.83638507787372873 38.345717005460756  1.0036620932514779 37.593393332972482  1.1709391086262713 36.764759100652974  1.3382161250014528 35.896822411255307 
 0 9 1.3382161250014528 9
8 0 1.3382161250014528
7 0 0  8 9 2  -6.8209021574860372e-17 1.4208188621694405e-14  0.16727701637518169 8.9196678378137573e-10  0.33455403174968978 0.1705179503603631  0.50183104712596105 0.51155343424670718  0.66910806249961752 1.0129292739929951  0.83638507787645722 1.6542829946674829  1.0036620932503411 2.4066066669961401  1.1709391086262713 3.2352408993470769  1.3382161250014528 4.1031775887447566 
 0 9 1.3382161250014528 9
8 3.1415926617531755 4.4743445532071906
7 0 0  8 9 2  8.1633824194361052e-09 14.999999999999996  0.16659399534513447 15.000000017539106  0.33318798152720319 15.364420799978689  0.49978196770553041 16.093261489644647  0.66637595389056514 17.164949198835529  0.83296994006968816 18.536321354855318  0.99956392625415447 20.145862447239779  1.1661579124356454 21.92000020915015  1.332751899617399 23.780069234558397 
 3.1415926617531755 9 4.4743445532071906 9
8 3.1415926617531755 4.4743445532071906
3 22.978538264148774 -7.6000022888183594 1 0 -0 1 22.978538264148778 19.899997711181641
7 0 0  9 10 2  1.3327518996173988 23.780069234558997  1.3333590357710243 25.125489916054359  1.3339661721058038 26.47113397921726  1.3345733072486541 27.81699766933631  1.3351804458837224 29.16309063561113  1.335787578738423 30.509391620742644  1.3363947173666337 31.855925526936648  1.3370018525133147 33.202671095134029  1.3376089888475373 34.54963797532838  1.3382161250014508 35.896822411254384 
 4.4743445532071915 10 4.479808778591245 10
8 4.4743445532071915 4.479808778591245
3 561.50556804287385 -112.39999771118164 1 0 0 -1 2280.4009669984771 19.899997711181641
8 0 1.3382161250014528
7 0 0  8 9 2  -6.8209021574860372e-17 40.000000000000028  0.16727701637518169 39.999999999108077  0.33455403175048559 39.829482049575745  0.50183104712368731 39.488446565839695  0.66910806250189125 38.987070725881495  0.83638507787372873 38.345717005460756  1.0036620932514779 37.593393332972482  1.1709391086262713 36.764759100652974  1.3382161250014528 35.896822411255307 
 0 9 1.3382161250014528 9
8 0 1.3382161250014528
7 0 0  8 9 2  -6.8209021574860372e-17 1.4208188621694405e-14  0.16727701637518169 8.9196678378137573e-10  0.33455403174968978 0.1705179503603631  0.50183104712596105 0.51155343424670718  0.66910806249961752 1.0129292739929951  0.83638507787645722 1.6542829946674829  1.0036620932503411 2.4066066669961401  1.1709391086262713 3.2352408993470769  1.3382161250014528 4.1031775887447566 
 0 9 1.3382161250014528 9
8 1.8088407539724003 3.1415926716478402
7 0 0  8 9 2  1.3327518996173946 23.780069234558344  1.1661579091579628 21.920000172553895  0.99956391969794822 20.14586237745425  0.83296993023986943 18.536321259765828  0.66637594077701578 17.164949091049493  0.49978195132030123 16.093261384150537  0.33318796186074451 15.364420713962318  0.16659397240138255 14.999999967350158  -1.8058047500267122e-08 15.000000000000012 
 1.8088407539724003 9 3.1415926716478402 9
8 1.8088407539724003 3.1415926716478402
3 22.978538264148774 -112.39999771118164 1 0 -0 1 22.978538264148778 19.899997711181641
8 26.938839208849387 93.061160791150542
1 17.560138025955414 0 0 -1 
8 26.938839208849387 93.061160791150542
1 23.780974741000261 0 0 -1 
8 0 1.3382161250014535
3 26.583584623895781 -112.39999771118164 1 0 -0 1 40.412357928967346 19.899997711181641
8 0 1.3382161250014535
7 0 0  8 9 2  -6.8209022712233715e-17 31.169284021414335  0.16727701637518178 31.169284015530678  0.33455403175071297 30.044483328947535  0.50183104712141358 27.794884693503263  0.66910806250598398 24.487620616448112  0.83638507787236449 20.257009659588221  1.0036620932514779 15.294399061731383  1.170939108626271 9.8284152378524254  1.3382161250014528 4.1031775887447104 
 0 9 1.3382161250014535 9
8 -102.5 42.5
1 540.02056232359041 -30 0 1 
8 -102.5 42.5
1 86.287491932449413 30 0 1 
8 4.9449691821781325 6.2831853071795862
3 26.583584623895781 -7.6000022888183594 1 0 -0 1 40.412357928967346 19.899997711181641
8 4.9449691821781325 6.2831853071795862
7 0 0  8 9 2  1.3382161250014528 4.1031775887446962  1.170939108626271 9.8284152378524183  1.0036620932514779 15.294399061753211  0.83638507787350136 20.257009659486357  0.66910806250280075 24.487620616622735  0.5018310471220957 27.79488469347416  0.33455403175094034 30.044483328962087  0.1672770163751818 31.169284015530678  2.7246374164834992e-17 31.169284021414363 
 4.9449691821781325 9 6.2831853071795862 9
Curves 35
1 0 -60 106 0 1 0 
1 0 72.5 106 0 -1 0 
1 0 72.5 106 -1 0 0 
1 -40 72.5 106 0 -1 0 
1 0 52.399997711181641 106 -1 0 0 
1 -14.999999999999998 -60 106 0 1 0 
1 0 -52.399997711181641 106 -1 0 0 
1 -40 -72.5 106 0 1 0 
1 0 -72.5 106 -1 0 0 
1 0 -72.5 106 0 1 0 
1 0 -72.5 91 0 0 -1 
1 0 -72.5 91 0 0 -1 
1 0 -72.5 0 0 1 0 
1 0 72.5 0 0 0 1 
1 0 72.5 91 0 0 -1 
1 0 -72.5 91 -0.99996192307288845 0 -0.0087265344994895931 
1 0 -72.5 0 -1 0 0 
1 -40 -72.5 106 -0.86602539649920685 0 -0.50000001261839133 
1 -0.3970422010041541 72.5 90.996535065601137 -0.99996192307288845 0 -0.0087265344994895931 
1 -40 72.5 106 -0.86602539649920685 0 -0.50000001261839133 
1 0 72.5 0 -1 0 0 
1 -40.000000000000014 -52.399997711181641 106.00000000000001 -0.86602539649920685 0 -0.50000001261839133 
1 -66.993391553241736 -66.25 90.41535759598662 0 -1 0 
1 -40.000000000000014 52.399997711181641 106.00000000000001 -0.86602539649920685 0 -0.50000001261839133 
1 -66.993391553241736 6.25 90.41535759598662 0 1 0 
3 -561.48418763628672 -52.399997711181641 86.100002288818359 -0.0087265344994895931 0 0.99996192307288845 -0.99996192307288845 0 -0.0087265344994895931 -0 -1 0 2280.4009669984771 19.899997711181641
8 0 1.5707963267948966
3 -34.667811528522812 -52.399997711181641 86.100002288818359 -0.9659258244035116 0 -0.25881905213951423 -0.25881905213951423 0 0.9659258244035116 0 1 0 20.601993660818096 19.899997711181641
8 3.1415926617531755 4.4635993160338323
3 -26.489269422026574 -52.399997711181641 86.100002288818359 -0.86602539649920685 0 0.50000001261839133 -0.50000001261839133 0 -0.86602539649920685 -0 -1 0 22.978538264148778 19.899997711181641
3 -561.48418763628672 52.399997711181641 86.100002288818359 0.0087265344994895931 0 -0.99996192307288845 -0.99996192307288845 0 -0.0087265344994895931 0 1 0 2280.4009669984771 19.899997711181641
8 0 1.5707963267948966
3 -34.667811528522812 52.399997711181641 86.100002288818359 0.9659258244035116 0 0.25881905213951423 -0.25881905213951423 0 0.9659258244035116 0 -1 0 20.601993660818096 19.899997711181641
8 1.8195859911457535 3.1415926716478402
3 -26.489269422026574 52.399997711181641 86.100002288818359 -0.86602539649920685 0 0.50000001261839133 -0.50000001261839133 0 -0.86602539649920685 -0 -1 0 22.978538264148778 19.899997711181641
1 -23.780069234558404 -60 90.792474503491164 0 1 0 
3 -26.582572402681691 52.399997711181641 90.768017431659473 -0.0087265344994895931 0 0.99996192307288845 -0.99996192307288845 0 -0.0087265344994895931 -0 -1 0 40.412357928967346 19.899997711181641
1 -540 -30 86.287491932449413 0 -1 0 
3 -26.582572402681691 -52.399997711181641 90.768017431659473 -0.0087265344994895931 0 0.99996192307288845 -0.99996192307288845 0 -0.0087265344994895931 -0 -1 0 40.412357928967346 19.899997711181641
Polygon3D 0
PolygonOnTriangulations 0
Surfaces 16
1 0 -60 106 0 0 1 -1 0 0 0 -1 0 
2 0 52.399997711181641 86.100002288818359 -1 0 0 0 0 1 -0 -1 0 19.899997711181641
1 0 72.5 106 0 0 1 -1 0 0 -0 1 -0 
2 0 -52.399997711181641 86.100002288818359 -1 0 0 0 0 1 0 1 -0 19.899997711181641
1 0 -72.5 106 0 0 1 -1 0 0 0 -1 0 
1 0 -60 91 1 0 0 0 0 1 0 -1 0 
1 0 -72.5 91 0 -1 0 0 0 -1 1 0 0 
1 0 -60 91 -0.0087265344994895931 0 0.99996192307288845 -0.99996192307288845 0 -0.0087265344994895931 -0 -1 0 
1 -40 -72.5 106 -0.50000001261839133 0 0.86602539649920685 -0.86602539649920685 0 -0.50000001261839133 -0 -1 0 
1 0 72.5 0 0 1 0 0 -0 1 1 0 -0 
1 -40 72.5 106 -0.50000001261839133 0 0.86602539649920685 -0.86602539649920685 0 -0.50000001261839133 0 1 -0 
2 -30.050000893303235 -52.399997711181641 88.766096591840622 -0.86602539649920685 0 -0.50000001261839133 -0.50000001261839133 0 0.86602539649920685 0 1 0 19.899997711181641
2 -30.050000893303235 52.399997711181641 88.766096591840622 -0.86602539649920685 0 -0.50000001261839133 -0.50000001261839133 0 0.86602539649920685 -0 -1 -0 19.899997711181641
1 -15 -60 106 -0.86602539649920685 0 0.50000001261839133 -0.50000001261839133 0 -0.86602539649920685 -0 -1 0 
1 0 -72.5 0 0 0 -1 0 1 0 1 -0 0 
1 0 0 0 1 0 0 0 0 1 0 -1 0 
Triangulations 0

TShapes 99
Ve
1.62451293306276e-07
0 -52.3999977111816 106
0 0

0101100
*
Ve
3.59355397354298e-07
0 52.3999977111816 106
0 0

0101100
*
Ed
 1.0001000025e-07 1 1 0
1  1 0 7.60000245126965 112.399998070537
0

0101000
+99 1 -98 2 *
Ve
1.0001000025e-07
0 0 106
0 0

0101100
*
Ed
 1.0001000025e-07 1 1 0
1  1 0 112.399997711182 120
0

0101000
+98 2 -96 5 *
Ve
1.0001000025e-07
0 72.5 106
0 0

0101100
*
Ed
 1.0001000025e-07 1 1 0
1  2 0 0 12.5
0

0101000
-96 6 +94 0 *
Ve
1.0001000025e-07
-40 72.5 106
0 0

0101100
*
Ed
 1.0001000025e-07 1 1 0
1  3 0 0 40
0

0101000
+94 0 -92 0 *
Ve
1.58875289651827e-07
-40 52.3999977111816 106
0 0

0101100
*
Ed
 1.0001000025e-07 1 1 0
1  4 0 0 20.1000022888184
0

0101000
-90 0 +92 0 *
Ve
6.47168365711281e-07
-15 52.3999980705367 106
0 0

0101100
*
Ed
 1e-07 1 1 0
1  5 0 15 40
2  1 2 0 15 40
4 G1 3 0 2 0
0

0101000
+88 7 -90 0 *
Ve
5e-07
-15 -52.3999975487303 106
0 0

0101100
*
Ed
 1.0001000025e-07 1 1 0
1  6 0 7.60000245126965 112.399998070537
0

0101000
+86 0 -88 0 *
Ve
1.58867346284513e-07
-40 -52.3999977111816 106
0 0

0101100
*
Ed
 1e-07 1 1 0
1  7 0 15 40
2  1 4 0 15 40
2  2 5 0 15 40
4 G1 4 0 5 0
0

0101000
+86 8 -84 0 *
Ve
1.0001000025e-07
-40 -72.5 106
0 0

0101100
*
Ed
 1.0001000025e-07 1 1 0
1  8 0 0 20.1000022888184
0

0101000
-84 0 +82 0 *
Ve
1.0001000025e-07
0 -72.5 106
0 0

0101100
*
Ed
 1.0001000025e-07 1 1 0
1  9 0 0 40
0

0101000
+80 0 -82 0 *
Ed
 1.0001000025e-07 1 1 0
1  10 0 0 12.5
0

0101000
-96 9 +80 0 *
Ed
 1.0001000025e-07 1 1 0
1  1 0 0 7.60000228881836
0

0101000
-99 1 +96 3 *
Wi

0101100
+97 0 +95 0 -93 2 +91 2 +89 2 -87 2 -85 0 +83 1 -81 1 -79 1 
+78 1 +77 0 *
Fa
0  1e-07 1 0

0111000
+76 0 *
Ve
1.0001000025e-07
0 -72.5 91
0 0

0101100
*
Ed
 1.0001000025e-07 1 1 0
1  11 0 -15 0
0

0101000
-74 8 +80 0 *
Ve
1.0001000025e-07
0 -72.5 81
0 0

0101100
*
Ed
 1.0001000025e-07 1 1 0
1  12 0 0 10
0

0101000
-72 1 +74 0 *
Ve
1.0002000150005e-07
0 -72.5 0
0 0

0101100
*
Ed
 1.0001000025e-07 1 1 0
1  12 0 9.99999999999999 91
0

0101000
+72 1 -70 0 *
Ve
1.0002000150005e-07
0 72.5 0
0 0

0101100
*
Ed
 1.0002000150005e-07 1 1 0
1  13 0 0 145
0

0101000
+70 0 -68 0 *
Ve
1.0001000025e-07
0 72.5 81
0 0

0101100
*
Ed
 1.0001000025e-07 1 1 0
1  14 0 0 81
0

0101000
-66 2 +68 0 *
Ve
1.0001000025e-07
0 72.5 91
0 0

0101100
*
Ed
 1.0001000025e-07 1 1 0
1  14 0 81 91
0

0101000
+66 2 -64 0 *
Ed
 1.0001000025e-07 1 1 0
1  15 0 -15 0
0

0101000
-64 7 +94 0 *
Wi

0101100
-97 0 -77 0 -78 1 +73 1 +71 0 +69 0 +67 0 +65 0 +63 0 -62 2 
+93 2 -95 0 *
Fa
0  1e-07 6 0

0111000
+61 0 *
Ve
1.0001000025e-07
-66.9933915532417 -72.5 90.4153575959866
0 0

0101100
*
Ve
1.0001000025e-07
-540 -72.5 86.2874919324494
0 0

0101100
*
Ed
 1e-07 1 1 0
1  16 0 66.9959425528631 540.02056232359
2  3 7 0 66.9959425528631 540.02056232359
2  4 8 0 66.9959425528631 540.02056232359
0

0101000
+59 0 -58 0 *
Ed
 1.0001000025e-07 1 1 0
1  12 0 4.71250806755059 91
0

0101000
+58 11 -70 0 *
Ed
 1.0001000025e-07 1 1 0
1  17 0 0 540
0

0101000
+70 0 -70 10 *
Ed
 1e-07 1 1 0
1  18 0 0 31.1692840214143
2  5 7 8 0 31.1692840214143
2  6 9 0 0 31.1692840214143
0

0101000
-59 8 +82 0 *
Wi

0101100
+57 0 +56 10 -55 0 -69 0 -71 0 -73 1 +79 1 +54 1 *
Fa
0  1e-07 7 0

0111000
+53 0 *
Ve
1.0001000025e-07
-66.9933915532417 72.5 90.4153575959866
0 0

0101100
*
Ve
1.0001000025e-07
-540 72.5 86.2874919324494
0 0

0101100
*
Ed
 1e-07 1 1 0
1  19 0 66.5988852331363 539.623505003864
2  7 10 0 66.5988852331363 539.623505003864
2  8 8 0 66.5988852331363 539.623505003864
0

0101000
+51 0 -50 0 *
Ed
 1e-07 1 1 0
1  20 0 0 31.1692840214143
2  9 10 7 0 31.1692840214143
2  10 11 0 0 31.1692840214143
0

0101000
-51 7 +92 0 *
Ed
 1.0001000025e-07 1 1 0
1  21 0 0 540
0

0101000
+68 0 -68 10 *
Ed
 1.0001000025e-07 1 1 0
1  14 0 0 86.2874919324494
0

0101000
+68 0 -50 11 *
Wi

0101100
-49 0 -48 2 -91 2 +62 2 -63 0 -65 0 +47 0 +46 10 *
Fa
0  1e-07 10 0

0111000
+45 0 *
Ve
1.0001000025e-07
-66.9933915532418 -52.3999977111816 90.4153575959866
0 0

0101100
*
Ed
 1e-07 1 1 0
1  22 0 0 31.1692840214144
4 G1 12 0 9 0
2  11 9 0 0 31.1692840214144
2  12 12 0 0 31.1692840214144
0

0101000
-43 8 +84 0 *
Ed
 1e-07 1 1 0
1  23 0 -13.8500022888184 6.25
2  13 9 1 -13.8500022888184 6.25
2  14 8 0 -13.8500022888184 6.25
0

0101000
+43 0 -59 0 *
Wi

0101100
+42 1 +41 0 -54 1 +81 1 *
Fa
0  1e-07 9 1

0111000
+40 0 *
Ve
1.500075e-07
-66.9933915532418 52.3999977111816 90.4153575959866
0 0

0101100
*
Ed
 1e-07 1 1 0
1  24 0 0 31.1692840214144
4 G1 11 0 13 0
2  15 11 0 0 31.1692840214144
2  16 13 0 0 31.1692840214144
0

0101000
-38 7 +90 0 *
Ed
 1e-07 1 1 0
1  25 0 46.1499977111816 66.25
2  17 11 2 46.1499977111816 66.25
2  18 8 0 46.1499977111816 66.25
0

0101000
+38 0 -51 0 *
Wi

0101100
+37 2 +36 0 -48 2 +89 2 *
Fa
0  1e-07 11 2

0111000
+35 0 *
Ve
1.14286141208803e-07
-23.7800692345584 -33.0611607911506 90.7924745034912
0 0

0101100
*
Ve
1.98999977111814e-07
-35.8968224112552 -33.0358088994049 90.6867332125695
0 0

0101100
*
Ed
 1e-07 1 1 0
1  26 0 4.47434455320719 4.47980877859125
2  19 4 1 4.47434455320719 4.47980877859125
2  20 8 0 4.47434455320719 4.47980877859125
0

0101000
+33 0 -32 0 *
Ed
 1e-07 1 1 0
1  27 0 0 1.33821612500145
2  21 4 0 0 1.33821612500145
2  22 12 0 0 1.33821612500145
0

0101000
-32 8 +84 0 *
Ed
 1e-07 1 1 0
1  28 0 3.14159266175318 4.47434455320719
2  23 4 1 3.14159266175318 4.47434455320719
2  24 14 0 3.14159266175318 4.47434455320719
0

0101000
+86 0 -33 0 *
Wi

0101100
+31 0 -30 1 -83 1 +29 0 *
Fa
0  1e-07 4 1

0111000
+28 0 *
Ve
1.14339586486755e-07
-23.7800692345581 33.0611607911505 90.7924745034912
0 0

0101100
*
Ve
1.98999977111814e-07
-35.8968224112552 33.0358088994049 90.6867332125695
0 0

0101100
*
Ed
 1e-07 1 1 0
1  29 0 4.47434455320719 4.47980877859125
2  25 2 2 4.47434455320719 4.47980877859125
2  26 8 0 4.47434455320719 4.47980877859125
0

0101000
+26 0 -25 0 *
Ed
 1e-07 1 1 0
1  30 0 0 1.33821612500145
2  27 2 0 0 1.33821612500145
2  28 13 0 0 1.33821612500145
0

0101000
-25 7 +90 0 *
Ed
 1e-07 1 1 0
1  31 0 1.8088407539724 3.14159267164784
2  29 2 2 1.8088407539724 3.14159267164784
2  30 14 0 1.8088407539724 3.14159267164784
0

0101000
+26 0 -88 0 *
Wi

0101100
+24 0 -23 2 -87 2 -22 0 *
Fa
0  1e-07 2 2

0111000
+21 0 *
Ed
 1e-07 1 1 0
1  32 0 26.9388392088494 93.0611607911505
2  31 14 0 26.9388392088494 93.0611607911505
2  32 8 0 26.9388392088494 93.0611607911505
0

0101000
+33 0 -26 0 *
Wi

0101100
-19 0 -29 0 +85 0 -22 0 *
Fa
0  1e-07 14 0

0111000
+18 0 *
Wi

0101100
+55 0 +67 10 -47 0 -67 0 *
Fa
0  1e-07 15 0

0111000
+16 0 *
Ed
 1e-07 1 1 0
1  33 0 0 1.33821612500145
2  33 8 0 0 1.33821612500145
2  34 13 2 0 1.33821612500145
0

0101000
+38 0 -25 0 *
Ed
 1e-07 1 1 0
1  34 11 -102.5 42.5
2  35 8 11 -102.5 42.5
2  36 16 0 -102.5 42.5
0

0101000
+50 11 -58 11 *
Ed
 1e-07 1 1 0
1  35 0 4.94496918217813 6.28318530717959
2  37 8 0 4.94496918217813 6.28318530717959
2  38 12 1 4.94496918217813 6.28318530717959
0

0101000
+32 0 -43 0 *
Wi

0101100
+24 0 -14 0 +36 0 +49 0 +13 10 -57 0 -41 0 -12 0 -31 0 +19 0 
*
Fa
0  1e-07 8 0

0111000
+11 0 *
Wi

0101100
+46 0 +13 0 +56 0 +67 0 *
Fa
0  1e-07 16 0

0111000
+9 0 *
Wi

0101100
+30 1 +12 0 -42 1 *
Fa
0  1e-07 12 1

0111000
+7 0 *
Wi

0101100
+23 2 -14 0 -37 2 *
Fa
0  1e-07 13 2

0111000
+5 0 *
Sh

0101000
+75 0 +60 0 +52 0 +44 0 +39 0 -34 0 +27 0 -20 0 +17 0 +15 0 
+10 0 -8 10 +6 0 -4 0 *
So

0100000
+3 0 *
Co

1100000
+2 0 *

+1 0 
0

