DBRep_DrawableShape

CASCADE Topology V1, (c) Matra-Datavision
Locations 1
1
              1               0               0               0 
              0               1               0               0 
              0               0               1               0 
Curve2ds 20
1 100 0 0 -1 
1 0 0 0 1 
1 100 0 0 1 
1 0 100 1 0 
1 100 0 0 -1 
1 100 0 0 1 
1 100 0 0 1 
1 0 0 1 0 
1 0 0 1 0 
1 0 0 1 0 
1 0 -100 1 0 
1 0 0 1 0 
1 0 0 0 -1 
1 0 0 0 1 
1 0 0 0 1 
1 0 100 1 0 
1 0 0 0 -1 
1 100 0 0 1 
1 0 0 0 1 
1 0 0 1 0 
Curves 10
1 0 0 100 0 1 0 
1 0 100 100 1 0 0 
1 100 0 100 0 1 0 
1 0 0 100 1 0 0 
1 0 0 0 0 0 1 
1 0 100 0 0 0 1 
1 0 0 0 0 1 0 
1 0 100 0 1 0 0 
1 100 0 0 0 1 0 
1 0 0 0 1 0 0 
Polygon3D 0
PolygonOnTriangulations 32
2 2 3 
p 0.897066666690133 1 0 100 
2 1 2 
p 0.897066666690133 1 0 100 
2 1 2 
p 10.179413333338 1 0 100 
2 4 3 
p 0.897066666690133 1 0 100 
2 2 3 
p 0.897066666690133 1 0 100 
2 2 3 
p 10.179413333338 1 0 100 
2 2 3 
p 10.179413333338 1 0 100 
2 2 3 
p 10.00000002 1 0 100 
2 4 3 
p 12.000000004 1 0 100 
2 4 3 
p 12.000000004 1 0 100 
2 4 3 
p 12.000000004 1 0 100 
2 4 3 
p 0.897066666690133 1 0 100 
2 1 4 
p 0.897066666690133 1 0 100 
2 1 4 
p 10.179413333338 1 0 100 
2 1 4 
p 10.179413333338 1 0 100 
2 1 2 
p 0.897066666690133 1 0 100 
2 1 4 
p 0.897066666690133 1 0 100 
2 1 2 
p 10.179413333338 1 0 100 
2 4 3 
p 0.897066666690133 1 0 100 
2 1 4 
p 0.897066666690133 1 0 100 
2 4 3 
p 10.179413333338 1 0 100 
2 1 4 
p 0.897066666690133 1 0 100 
2 1 2 
p 0.897066666690133 1 0 100 
2 1 2 
p 0.897066666690133 1 0 100 
2 2 3 
p 0.897066666690133 1 0 100 
2 2 3 
p 10.179413333338 1 0 100 
2 1 4 
p 0.897066666690133 1 0 100 
2 4 3 
p 0.897066666690133 1 0 100 
2 4 3 
p 10.179413333338 1 0 100 
2 1 2 
p 0.897066666690133 1 0 100 
2 1 4 
p 0.897066666690133 1 0 100 
2 1 4 
p 10.179413333338 1 0 100 
Surfaces 6
1 0 0 100 0 0 1 1 0 0 0 1 0 
1 0 0 0 1 0 0 0 0 1 0 -1 0 
1 0 100 0 0 1 0 0 0 1 1 0 0 
1 100 0 0 1 0 0 0 0 1 0 -1 0 
1 0 0 0 0 1 0 0 0 1 1 0 0 
1 0 0 0 0 0 1 1 0 0 0 1 0 
Triangulations 12
4 2 1 12.1000000032
0 0 100 0 100 100 100 100 100 100 0 100 0 0 0 100 100 100 100 0 2 1 4 4 3 2 
4 2 1 0.897066666690133
0 0 0 0 0 100 0 100 100 0 100 0 0 0 100 0 100 -100 0 -100 1 4 3 3 2 1 
4 2 1 0.897066666690133
0 0 100 0 100 100 100 100 100 100 0 100 0 0 0 100 100 100 100 0 2 1 4 4 3 2 
4 2 1 10.6345600010035
0 0 100 0 100 100 100 100 100 100 0 100 0 0 0 100 100 100 100 0 2 1 4 4 3 2 
4 2 1 0.897066666690133
0 100 0 100 100 0 100 100 100 0 100 100 0 0 0 100 100 100 100 0 2 1 4 4 3 2 
7 7 1 10.4717653421352
0 0 100 0 100 100 100 100 100 100 0 100 80 20 100 0 20 100 50 50 100 0 0 0 100 100 100 100 0 80 20 0 20 50 50 6 1 5 2 6 7 5 4 3 4 5 1 7 3 2 3 7 5 5 7 6 
4 2 1 10.00000002
100 0 0 100 0 100 100 100 100 100 100 0 0 0 100 0 100 -100 0 -100 1 4 3 3 2 1 
4 2 1 0.897066666690133
0 0 0 100 0 0 100 0 100 0 0 100 0 0 0 100 100 100 100 0 2 1 4 4 3 2 
8 8 1 10.0755299758505
0 0 0 0 0 100 0 100 100 0 100 0 0 20 20 0 20 100 0 31.5470053837925 0 0 50 50 0 0 100 0 100 -100 0 -100 20 -20 100 -20 0 -31.5470053837925 50 -50 5 7 8 1 5 2 5 1 7 7 4 8 8 3 6 3 8 4 2 5 6 6 5 8 
4 2 1 0.897066666690133
0 0 0 0 100 0 100 100 0 100 0 0 0 0 0 100 100 100 100 0 2 1 4 4 3 2 
7 7 1 10.5106692030368
0 0 0 0 100 0 100 100 0 100 0 0 80 31.5470053837925 0 0 31.5470053837925 0 50 50 0 0 0 0 100 100 100 100 0 80 31.5470053837925 0 31.5470053837925 50 50 1 5 6 2 6 7 5 4 3 7 6 5 7 3 2 3 7 5 5 1 4 
8 8 1 0.897066666690133
100 0 0 100 0 100 100 100 100 100 100 0 100 20 20 100 20 100 100 100 20 100 50 50 0 0 100 0 100 -100 0 -100 20 -20 100 -20 20 -100 50 -50 4 7 5 1 5 2 5 1 4 7 8 5 8 3 6 3 8 7 2 5 6 6 5 8 

TShapes 25
Ve
1e-007
0 100 100
0 0

0101101
*
Ve
1e-007
0 0 100
0 0

0101101
*
Ed
 1e-007 1 1 0
1  1 0 0 100
2  1 2 0 0 100
2  2 1 0 0 100
6  1 2 0
6  2 3 0
6  3 4 0
0

0101000
-25 0 +24 0 *
Ve
1e-007
100 100 100
0 0

0101101
*
Ed
 1e-007 1 1 0
1  2 0 0 100
2  3 3 0 0 100
2  4 1 0 0 100
6  4 5 0
6  5 3 0
6  6 4 0
6  7 6 0
0

0101000
-22 0 +25 0 *
Ve
1e-007
100 0 100
0 0

0101101
*
Ed
 1e-007 1 1 0
1  3 0 0 100
2  5 4 0 0 100
2  6 1 0 0 100
6  8 7 0
6  9 1 0
6  10 4 0
6  11 6 0
0

0101000
-22 0 +20 0 *
Ed
 1e-007 1 1 0
1  4 0 0 100
2  7 5 0 0 100
2  8 1 0 0 100
6  12 8 0
6  13 3 0
6  14 4 0
6  15 6 0
0

0101000
-20 0 +24 0 *
Wi

0101000
-23 0 -21 0 +19 0 +18 0 *
Fa
0  1e-007 1 0
2  1
0111000
+17 0 *
Ve
1e-007
0 0 0
0 0

0101101
*
Ed
 1e-007 1 1 0
1  5 0 0 100
2  9 2 0 0 100
2  10 5 0 0 100
6  16 2 0
6  17 8 0
6  18 9 0
0

0101000
-24 0 +15 0 *
Ve
1e-007
0 100 0
0 0

0101101
*
Ed
 1e-007 1 1 0
1  6 0 0 100
2  11 2 0 0 100
2  12 3 0 0 100
6  19 2 0
6  20 5 0
6  21 9 0
0

0101000
-25 0 +13 0 *
Ed
 1e-007 1 1 0
1  7 0 0 100
2  13 2 0 0 100
2  14 6 0 0 100
6  22 2 0
6  23 10 0
0

0101000
-13 0 +15 0 *
Wi

0101000
-14 0 -23 0 +12 0 +11 0 *
Fa
0  1e-007 2 0
2  2
0111000
+10 0 *
Ve
1e-007
100 100 0
0 0

0101101
*
Ed
 1e-007 1 1 0
1  8 0 0 100
2  15 3 0 0 100
2  16 6 0 0 100
6  24 5 0
6  25 10 0
6  26 11 0
0

0101000
-8 0 +13 0 *
Ve
1e-007
100 0 0
0 0

0101101
*
Ed
 1e-007 1 1 0
1  9 0 0 100
2  17 4 0 0 100
2  18 6 0 0 100
6  27 12 0
6  28 10 0
6  29 11 0
0

0101000
-8 0 +6 0 *
Ed
 1e-007 1 1 0
1  10 0 0 100
2  19 5 0 0 100
2  20 6 0 0 100
6  30 8 0
6  31 10 0
6  32 11 0
0

0101000
-6 0 +15 0 *
Wi

0101000
-11 0 -7 0 +5 0 +4 0 *
Fa
0  1e-007 6 0
2  10
0111000
+3 0 *
Sh

0101000
+16 1 -9 1 -2 1 *

+1 0 