DBRep_DrawableShape

CASCADE Topology V1, (c) Matra-Datavision
Locations 22
1
              1               0               0               0 
              0               1               0               0 
              0               0               1               0 
1
              1               0               0             -50 
              0               1               0               0 
              0               0               1               0 
1
              1               0               0              50 
              0               1               0               0 
              0               0               1               0 
1
              1               0               0             -80 
              0               1               0               0 
              0               0               1               0 
1
              1               0               0              80 
              0               1               0               0 
              0               0               1               0 
1
              1               0               0            -120 
              0               1               0               0 
              0               0               1               0 
2  1 1 2 1 3 1 4 1 5 1 6 1 0
1
              1               0               0             100 
              0               1               0               0 
              0               0               1               0 
1
              1               0               0               0 
              0               1               0              20 
              0               0               1               0 
1
              1               0               0               0 
              0               1               0               0 
              0               0               1              20 
2  8 1 9 1 10 1 0
1
              1               0               0               0 
              0               1               0               0 
              0               0               1               0 
1
              1               0               0               0 
              0               1               0               0 
              0               0               1               0 
1
              1               0               0               0 
              0               1               0               0 
              0               0               1               0 
1
              1               0               0               0 
              0               1               0               0 
              0               0               1               0 
1
              1               0               0               0 
              0               1               0               0 
              0               0               1               0 
1
              1               0               0               0 
              0             0.5 0.866025403784439 -7.32050807568877 
              0 -0.866025403784439             0.5 27.3205080756888 
2  8 1 9 1 10 1 12 1 13 1 14 1 15 1 16 1 17 1 10 -1 9 -1 8 -1 0
2  10 -1 9 -1 8 -1 0
2  8 1 9 1 10 1 12 1 13 1 14 1 15 1 16 1 17 1 0
2  17 -1 16 -1 15 -1 14 -1 13 -1 12 -1 10 -1 9 -1 8 -1 0
2  8 1 9 1 10 1 17 -1 16 -1 15 -1 14 -1 13 -1 12 -1 10 -1 9 -1 8 -1 0
Curve2ds 15
1 0 0 0 1 
1 0 0 1 0 
1 0 0 1 0 
1 0 0 1 0 
1 0 100 1 0 
1 100 0 0 1 
1 0 0 1 0 
1 0 0 1 0 
1 0 0 1 0 
1 0 0 0 -1 
1 0 0 0 1 
1 0 0 0 1 
1 0 100 1 0 
1 0 0 0 -1 
1 100 0 0 1 
Curves 7
1 0 0 0 1 0 0 
1 100 0 0 0 0 1 
1 0 0 100 1 0 0 
1 0 0 0 0 0 1 
1 0 0 0 0 1 0 
1 0 100 0 1 0 0 
1 100 0 0 0 1 0 
Polygon3D 0
PolygonOnTriangulations 14
2 1 2 
p 10.00000002 1 0 100 
2 1 4 
p 12.0089706696669 1 0 100 
2 2 3 
p 10.00000002 1 0 100 
2 4 3 
p 0.897066666690133 1 0 100 
2 4 3 
p 10.179413333338 1 0 100 
2 4 3 
p 10.179413333338 1 0 100 
2 1 4 
p 10.00000002 1 0 100 
2 1 4 
p 12.0089706696669 1 0 100 
2 1 2 
p 10.00000002 1 0 100 
2 1 2 
p 10.7696732399946 1 0 100 
2 3 4 
p 0.897066666690133 1 0 100 
2 2 3 
p 10.179413333338 1 0 100 
2 2 3 
p 10.179413333338 1 0 100 
2 4 3 
p 10.00000002 1 0 100 
Surfaces 6
1 0 0 0 0 1 0 0 0 1 1 0 0 
1 0 0 0 0 0 1 1 0 0 0 1 0 
1 100 0 0 1 0 0 0 0 1 0 -1 0 
1 0 0 100 0 0 1 1 0 0 0 1 0 
1 0 0 0 1 0 0 0 0 1 0 -1 0 
1 0 100 0 0 1 0 0 0 1 1 0 0 
Triangulations 6
4 2 1 10.0448533483345
0 0 0 100 0 0 100 0 100 0 0 100 0 0 0 100 100 100 100 0 2 1 4 4 3 2 
4 2 1 10.5470960107512
0 0 0 0 100 7.105427357601e-015 100 100 7.105427357601e-015 100 0 0 0 0 0 100 100 100 100 0 2 1 4 4 3 2 
6 5 1 0.897066666690133
0 0 0 100 0 0 100 0 100 0 0 100 0 0 80 50 0 50 0 0 0 100 100 100 100 0 80 0 50 50 1 6 2 6 1 5 2 6 3 4 3 6 4 6 5 
8 8 1 10.3829738511003
0 0 0 100 0 0 100 0 100 0 0 100 100 0 80 20 0 80 20 0 0 50 0 50 0 0 0 100 100 100 100 0 80 100 80 20 0 20 50 50 1 6 7 2 8 5 8 2 7 6 8 7 6 4 3 4 6 1 3 5 6 6 5 8 
8 8 1 10.52130253736
0 0 0 0 100 1.4210854715202e-014 100 100 7.105427357601e-015 100 0 0 100 23.094010767585 0 20 23.094010767585 0 20 0 0 50 50 0 0 0 0 100 100 100 100 0 100 23.094010767585 20 23.094010767585 20 0 50 50 1 7 6 2 6 8 6 2 1 5 6 7 8 6 5 8 3 2 3 8 5 5 7 4 
6 5 1 0.897066666690133
0 0 0 0 80 0 0 100 0 100 100 0 100 0 0 50 50 0 0 0 0 80 0 100 100 100 100 0 50 50 2 1 6 3 2 6 6 5 4 5 6 1 6 4 3 

TShapes 18
Ve
1e-007
100 20 20
0 0

0101101
*
Ve
1e-007
200 20 20
0 0

0101101
*
Ed
 1e-007 1 1 0
1  1 0 0 100
2  1 1 0 0 100
2  2 2 0 0 100
2  3 2 18 0 100
6  1 1 0
6  2 2 18
0

0101000
+18 19 -17 19 *
Ve
1e-007
100 0 100
0 0

0101101
*
Ed
 1e-007 1 1 0
1  2 0 0 100
2  4 3 0 0 100
2  5 1 0 0 100
6  3 1 0
0

0101000
-15 0 +17 19 *
Ve
1e-007
0 0 100
0 0

0101101
*
Ed
 1e-007 1 1 0
1  3 0 0 100
2  6 1 0 0 100
2  7 4 0 0 100
6  4 3 0
6  5 1 0
6  6 4 0
0

0101000
-15 0 +13 0 *
Ed
 1e-007 1 1 0
1  4 0 0 100
2  8 5 0 0 100
2  9 1 0 0 100
6  7 1 0
6  8 4 0
0

0101000
-13 0 +18 19 *
Wi

0101000
-16 0 -14 0 +12 0 +11 0 *
Fa
0  1e-007 1 0
2  1
0111000
+10 0 *
Ve
1e-007
0 100 0
0 0

0101101
*
Ed
 1e-007 1 1 0
1  5 0 0 100
2  10 5 0 0 100
2  11 2 0 0 100
6  9 2 0
6  10 5 0
0

0101000
-8 0 +18 21 *
Ve
1e-007
100 100 0
0 0

0101101
*
Ed
 1e-007 1 1 0
1  6 0 0 100
2  12 6 0 0 100
2  13 2 0 0 100
6  11 6 0
6  12 2 0
6  13 5 0
0

0101000
-6 0 +8 0 *
Ed
 1e-007 1 1 0
1  7 0 0 100
2  14 3 0 0 100
2  15 2 0 0 100
6  14 2 0
0

0101000
-6 0 +17 21 *
Wi

0101000
-7 0 -5 0 +4 0 +16 22 *
Fa
0  1e-007 2 0
2  2
0111000
+3 0 *
Sh

0101000
-9 11 -2 20 *

+1 7 