DBRep_DrawableShape

CASCADE Topology V1, (c) Matra-Datavision
Locations 6
1
              1               0               0               0 
              0               1               0               0 
              0               0               1               0 
1
              1               0               0               0 
              0               1               0               0 
              0               0               1               0 
1
              1               0               0               0 
              0               1               0               0 
              0               0               1               0 
1
              1               0               0               0 
              0               1               0               0 
              0               0               1               0 
2  1 1 2 1 3 1 4 1 0
2  4 -1 3 -1 2 -1 1 -1 0
Curve2ds 16
1 6.2831853071795898 -6.2831853071795898 0 1 
2 0 0 0 1 1 -0 100
1 6.2831853071795898 -6.2831853071795898 0 1 
1 0 -6.2831853071795898 0 1 
1 -1.5707963267949001 0 1 0 
2 0 0 0 -1 1 0 100
1 0 1.5707963267949001 1 0 
1 0 -1.5707963267949001 1 0 
1 1.5707963267949001 -4.7123889803846897 0 1 
2 0 0 1 0 -0 1 100
1 0 0 0 1 
1 0 0 1 0 
1 0 0 1 0 
1 0 0 1 0 
1 0 0 0 1 
1 0 0 0 -1 
Curves 7
2 0 0 0 -2.4492127076447501e-16 -1 0 1 -2.4492127076447501e-16 0 0 0 1 100
2 0 0 0 -2.4492127076447501e-16 -1 0 1 -2.4492127076447501e-16 0 0 0 1 100
8 1.5707963267949001 3.14159265358979
2 0 0 0 0 0 1 0 -1 0 1 0 -0 100
8 4.7123889803846897 6.2831853071795898
2 0 0 0 1 0 0 0 0 1 0 -1 0 100
1 0 0 0 1 0 0 
1 0 0 0 0 0 1 
1 0 0 0 0 1 0 
Polygon3D 0
PolygonOnTriangulations 0
Surfaces 4
4 0 0 0 0 0 1 1 0 -0 -0 1 0 100
1 0 0 0 0 1 0 0 -0 1 1 0 -0 
1 0 0 0 0 0 1 1 0 -0 -0 1 0 
1 0 0 0 1 0 0 0 0 1 0 -1 0 
Triangulations 0

TShapes 24
Ve
1e-07
100 0 0
0 0

0101101
*
Ve
1e-07
6.12303176911189e-15 -1.49966072182214e-30 100
0 0

0101101
*
Ed
 1e-07 1 1 0
1  1 0 6.28318530717959 7.85398163397448
2  1 1 0 6.28318530717959 7.85398163397448
2  2 2 5 6.28318530717959 7.85398163397448
0

0101000
+24 0 -23 0 *
Ve
1e-07
6.12303176911189e-15 -1.49966072182214e-30 -100
0 0

0101101
*
Ed
 1e-07 1 1 0
1  2 0 4.71238898038469 6.28318530717959
3  3 4CN 1 0 4.71238898038469 6.28318530717959
0

0101000
-24 0 +21 0 *
Ve
1e-07
0 100 0
0 0

0101101
*
Ed
 1e-07 1 1 0
1  3 0 1.5707963267949 3.14159265358979
2  5 1 0 1.5707963267949 3.14159265358979
2  6 3 5 1.5707963267949 3.14159265358979
0

0101000
+24 0 -19 0 *
Ed
 1e-07 1 1 1
2  7 1 0 1.5707963267949 6.28318530717959
0

0101100
+23 0 -23 0 *
Ed
 1e-07 1 1 1
2  8 1 0 0 6.28318530717959
0

0101100
+21 0 -21 0 *
Ed
 1e-07 1 1 0
1  4 0 4.71238898038469 6.28318530717959
2  9 1 0 4.71238898038469 6.28318530717959
2  10 4 5 4.71238898038469 6.28318530717959
0

0101000
+19 0 -23 0 *
Wi

0101100
+22 0 +20 0 -18 0 -17 0 +16 0 -20 0 -15 0 *
Fa
0  1e-07 1 0

0111000
+14 0 *
Ve
1e-07
0 0 0
0 0

0101101
*
Ed
 1e-07 1 1 0
1  5 0 0 100
2  11 2 0 0 100
2  12 3 0 0 100
0

0101000
-24 6 +12 6 *
Ed
 1e-07 1 1 0
1  6 0 0 100
2  13 2 0 0 100
2  14 4 0 0 100
0

0101000
-23 6 +12 6 *
Wi

0101100
-22 0 -11 5 +10 5 *
Fa
0  1e-07 2 5

0111000
+9 0 *
Ed
 1e-07 1 1 0
1  7 0 0 100
2  15 3 0 0 100
2  16 4 0 0 100
0

0101000
-19 6 +12 6 *
Wi

0101100
-7 5 +18 0 +11 5 *
Fa
0  1e-07 3 5

0111000
+6 0 *
Wi

0101100
-10 5 +15 0 +7 5 *
Fa
0  1e-07 4 5

0111000
+4 0 *
Sh

0101100
+13 0 +8 0 +5 0 +3 0 *
So

1100000
+2 0 *

+1 0 
0

