DBRep_DrawableShape

CASCADE Topology V1, (c) Matra-Datavision
Locations 23
1
              1               0               0               0 
              0               1               0               0 
              0               0               1               0 
1
1.11022302462516e-016              -1               0             210 
              1 1.11022302462516e-016               0             -90 
              0               0               1               0 
1
              1               0               0               0 
              0               1               0               0 
              0               0               1               0 
1
              1               0               0               0 
              0               1               0               0 
              0               0               1             -50 
1
              1               0               0               0 
              0               1               0               0 
              0               0               1              50 
1
              1               0               0               0 
              0               1               0               0 
              0               0               1             -60 
2  1 1 2 1 3 1 4 1 5 1 6 1 0
1
              1               0               0             100 
              0               1               0               0 
              0               0               1               0 
1
              1               0               0             -50 
              0               1               0               0 
              0               0               1               0 
1
              1               0               0               0 
              0               1               0              60 
              0               0               1               0 
1
              1               0               0               0 
              0               1               0               0 
              0               0               1              40 
1
              1               0               0               0 
              0               1               0               0 
              0               0               1               0 
1
            0.5               0 0.866025403784439 -46.2435565298214 
              0               1               0               0 
-0.866025403784439               0             0.5 199.903810567666 
2  8 1 9 1 10 1 11 1 12 1 13 1 0
2  13 -1 12 -1 11 -1 10 -1 9 -1 8 -1 0
1
              1               0               0             100 
              0               1               0               0 
              0               0               1               0 
1
              1               0               0             -50 
              0               1               0               0 
              0               0               1               0 
1
              1               0               0               0 
              0               1               0              60 
              0               0               1               0 
1
              1               0               0               0 
              0               1               0               0 
              0               0               1              40 
2  16 1 17 1 18 1 19 1 13 -1 12 -1 11 -1 10 -1 9 -1 8 -1 0
2  16 1 17 1 18 1 19 1 0
2  19 -1 18 -1 17 -1 16 -1 0
2  8 1 9 1 10 1 11 1 12 1 13 1 19 -1 18 -1 17 -1 16 -1 0
Curve2ds 13
1 100 0 0 -1 
1 0 0 0 1 
1 0 100 1 0 
1 100 0 0 -1 
1 100 0 0 1 
1 100 0 0 -1 
1 100 0 0 1 
1 0 0 1 0 
1 0 0 1 0 
1 0 100 1 0 
1 0 -100 1 0 
1 0 0 0 -1 
1 100 0 0 1 
Curves 7
1 0 0 100 0 1 0 
1 0 100 100 1 0 0 
1 100 0 100 0 1 0 
1 0 0 100 1 0 0 
1 100 0 0 0 0 1 
1 100 100 0 0 0 1 
1 100 0 0 0 1 0 
Polygon3D 0
PolygonOnTriangulations 16
2 2 3 
p 10.00000002 1 0 100 
2 1 2 
p 12.000000004 1 0 100 
2 2 3 
p 12.000000004 1 0 100 
2 1 2 
p 12.000000004 1 0 100 
2 1 2 
p 12.000000004 1 0 100 
2 2 3 
p 10.00000002 1 0 100 
2 4 3 
p 10.00000002 1 0 100 
2 2 3 
p 12.1000000032 1 0 100 
2 1 4 
p 10.00000002 1 0 100 
2 1 2 
p 10.00000002 1 0 100 
2 4 3 
p 10.00000002 1 0 100 
2 1 4 
p 10.00000002 1 0 100 
2 4 3 
p 12.000000004 1 0 100 
2 1 4 
p 12.000000004 1 0 100 
2 4 3 
p 12.000000004 1 0 100 
2 1 4 
p 12.000000004 1 0 100 
Surfaces 5
1 0 0 100 0 0 1 1 0 0 0 1 0 
1 0 0 0 1 0 0 0 0 1 0 -1 0 
1 100 0 0 1 0 0 0 0 1 0 -1 0 
1 0 0 0 0 1 0 0 0 1 1 0 0 
1 0 0 0 0 0 1 1 0 0 0 1 0 
Triangulations 10
4 2 1 10.500000016
2.8421709430404e-014 0 100 2.8421709430404e-014 100 100 100 100 100 100 0 100 0 0 0 100 100 100 100 0 2 1 4 4 3 2 
4 2 1 10.00000002
0 0 0 0 0 100 0 100 100 0 100 0 0 0 100 0 100 -100 0 -100 1 4 3 3 2 1 
4 2 1 12.1000000032
0 0 100 0 100 100 100 100 100 100 0 100 0 0 0 100 100 100 100 0 2 1 4 4 3 2 
4 2 1 11.500000008
0 0 0 0 0 100 0 100 100 0 100 0 0 0 100 0 100 -100 0 -100 1 4 3 3 2 1 
4 2 1 11.5500000076
0 0 100 0 100 100 100 100 100 100 0 100 0 0 0 100 100 100 100 0 2 1 4 4 3 2 
4 2 1 11.0250000118
100 0 0 100 0 100 100 100 100 100 100 0 0 0 100 0 100 -100 0 -100 1 4 3 3 2 1 
4 2 1 10.00000002
100 0 0 100 0 100 100 100 100 100 100 0 0 0 100 0 100 -100 0 -100 1 4 3 3 2 1 
4 2 1 12.1000000032
0 0 0 0 100 0 100 100 0 100 0 0 0 0 0 100 100 100 100 0 2 1 4 4 3 2 
4 2 1 11.500000008
100 0 0 100 0 100 100 100 100 100 100 0 0 0 100 0 100 -100 0 -100 1 4 3 3 2 1 
4 2 1 11.5500000076
0 0 0 0 100 0 100 100 0 100 0 0 0 0 0 100 100 100 100 0 2 1 4 4 3 2 

TShapes 18
Ve
1e-007
0 100 100
0 0

0101101
*
Ve
1e-007
0 0 100
0 0

0101101
*
Ed
 1e-007 1 1 0
1  1 0 0 100
2  1 2 0 0 100
2  2 1 0 0 100
6  1 2 0
6  2 3 0
6  3 4 0
6  4 5 0
6  5 1 0
0

0101000
-18 0 +17 0 *
Ve
1.00000028421709e-007
150 160 140
0 0

0101101
*
Ed
 1e-007 1 1 0
1  2 0 0 100
2  3 1 0 0 100
6  6 1 0
0

0101000
+18 0 -15 15 *
Ve
1.00000028421709e-007
150 60 140
0 0

0101101
*
Ed
 1e-007 1 1 0
1  3 0 0 100
2  4 3 0 0 100
2  5 1 0 0 100
2  6 3 20 0 100
6  7 1 0
6  8 6 20
0

0101000
+13 15 -15 15 *
Ed
 1e-007 1 1 0
1  4 0 0 100
2  7 4 0 0 100
2  8 1 0 0 100
6  9 1 0
0

0101000
-13 15 +17 0 *
Wi

0101000
-16 0 -14 0 +12 0 +11 0 *
Fa
0  1e-007 1 0
2  1
0101000
+10 0 *
Ve
1e-007
100 0 0
0 0

0101101
*
Ed
 1e-007 1 1 0
1  5 0 0 100
2  9 3 0 0 100
2  10 4 0 0 100
6  10 6 0
0

0101000
-13 22 +8 0 *
Ve
1e-007
100 100 0
0 0

0101101
*
Ed
 1e-007 1 1 0
1  6 0 0 100
2  11 3 0 0 100
6  11 6 0
0

0101000
-15 22 +6 0 *
Ed
 1e-007 1 1 0
1  7 0 0 100
2  12 3 0 0 100
2  13 5 0 0 100
6  12 7 0
6  13 8 0
6  14 9 0
6  15 10 0
6  16 6 0
0

0101000
-6 0 +8 0 *
Wi

0101000
-7 0 -12 23 +5 0 +4 0 *
Fa
0  1e-007 3 0
2  6
0101000
+3 0 *
Sh

0101000
+9 14 +2 21 *

+1 7 