DBRep_DrawableShape

CASCADE Topology V1, (c) Matra-Datavision
Locations 8
1
              1               0               0               0 
              0               1               0               0 
              0               0               1               0 
1
0.707106781186548               0 0.707106781186547 -41.4213562373095 
              0               1               0               0 
-0.707106781186547               0 0.707106781186548             100 
2  1 1 2 1 0
2  2 -1 1 -1 0
1
              1               0               0               0 
              0               1               0               0 
              0               0               1               0 
1
0.707106781186548               0 -0.707106781186547 29.2893218813452 
              0               1               0               0 
0.707106781186547               0 0.707106781186548 -70.7106781186547 
2  5 1 6 1 0
2  6 -1 5 -1 0
Curve2ds 20
1 0 0 0 1 
1 100 0 0 1 
1 0 100 1 0 
1 100 0 0 -1 
1 100 0 0 1 
1 100 0 0 -1 
1 100 0 0 1 
1 0 0 1 0 
1 0 0 1 0 
1 0 100 1 0 
1 0 -100 1 0 
1 0 100 1 0 
1 0 0 0 -1 
1 100 0 0 1 
1 100 0 0 1 
1 0 0 0 1 
1 0 0 0 1 
1 0 100 1 0 
1 0 0 0 1 
1 0 0 1 0 
Curves 10
1 0 0 100 0 1 0 
1 0 100 100 1 0 0 
1 100 0 100 0 1 0 
1 0 0 100 1 0 0 
1 100 0 0 0 0 1 
1 100 100 0 0 0 1 
1 100 0 0 0 1 0 
1 0 0 0 0 1 0 
1 0 100 0 1 0 0 
1 0 0 0 1 0 0 
Polygon3D 0
PolygonOnTriangulations 14
2 1 2 
p 10.00000002 1 0 100 
2 1 2 
p 12.32000000144 1 0 100 
2 2 3 
p 10.00000002 1 0 100 
2 4 3 
p 10.00000002 1 0 100 
2 2 3 
p 12.116000003072 1 0 100 
2 1 4 
p 10.00000002 1 0 100 
2 1 2 
p 10.00000002 1 0 100 
2 4 3 
p 10.00000002 1 0 100 
2 1 4 
p 10.00000002 1 0 100 
2 4 3 
p 12.1058000031536 1 0 100 
2 1 2 
p 10.00000002 1 0 100 
2 1 2 
p 12.32000000144 1 0 100 
2 2 3 
p 10.00000002 1 0 100 
2 1 4 
p 10.00000002 1 0 100 
Surfaces 5
1 0 0 100 0 0 1 1 0 0 0 1 0 
1 0 100 0 0 1 0 0 0 1 1 0 0 
1 100 0 0 1 0 0 0 0 1 0 -1 0 
1 0 0 0 0 1 0 0 0 1 1 0 0 
1 0 0 0 0 0 1 1 0 0 0 1 0 
Triangulations 5
4 2 1 10.58000001536
0 0 100 0 100 100 100 100 100 100 0 100 0 0 0 100 100 100 100 0 2 1 4 4 3 2 
4 2 1 11.6000000072
0 0 100 0 100 100 100 100 100 100 0 100 0 0 0 100 100 100 100 0 2 1 4 4 3 2 
4 2 1 10.529000015768
100 0 0 100 0 100 100 100 100 100 100 0 0 0 100 0 100 -100 0 -100 1 4 3 3 2 1 
4 2 1 11.1064500111484
0 0 0 0 100 0 100 100 0 100 0 0 0 0 0 100 100 100 100 0 2 1 4 4 3 2 
4 2 1 11.6000000072
0 0 0 0 100 0 100 100 0 100 0 0 0 0 0 100 100 100 100 0 2 1 4 4 3 2 

TShapes 25
Ve
1e-007
0 0 100
0 0

0101101
*
Ve
1e-007
0 100 100
0 0

0101101
*
Ed
 1e-007 1 1 0
1  1 0 0 100
2  1 1 0 0 100
6  1 2 0
6  2 1 0
0

0101000
+25 0 -24 0 *
Ve
1e-007
100 100 100
0 0

0101101
*
Ed
 1e-007 1 1 0
1  2 0 0 100
2  2 2 0 0 100
2  3 1 0 0 100
6  3 1 0
0

0101000
-22 4 +24 0 *
Ve
1e-007
100 0 100
0 0

0101101
*
Ed
 1e-007 1 1 0
1  3 0 0 100
2  4 3 0 0 100
2  5 1 0 0 100
2  6 3 4 0 100
6  4 1 0
6  5 3 4
0

0101000
+20 4 -22 4 *
Ed
 1e-007 1 1 0
1  4 0 0 100
2  7 4 0 0 100
2  8 1 0 0 100
6  6 1 0
0

0101000
-20 4 +25 0 *
Wi

0101000
-23 0 -21 0 +19 0 +18 0 *
Fa
0  1e-007 1 0
2  1
0101000
+17 0 *
Ve
1e-007
100 0 0
0 0

0101101
*
Ed
 1e-007 1 1 0
1  5 0 0 100
2  9 3 0 0 100
2  10 4 0 0 100
6  7 3 0
0

0101000
-20 0 +15 0 *
Ve
1e-007
100 100 0
0 0

0101101
*
Ed
 1e-007 1 1 0
1  6 0 0 100
2  11 3 0 0 100
2  12 2 0 0 100
6  8 3 0
0

0101000
-22 0 +13 0 *
Ed
 1e-007 1 1 0
1  7 0 0 100
2  13 3 0 0 100
2  14 5 0 0 100
2  15 5 7 0 100
6  9 3 0
6  10 4 7
0

0101000
+15 0 -13 0 *
Wi

0101000
-14 0 -19 3 +12 0 +11 0 *
Fa
0  1e-007 3 0
2  3
0101000
+10 0 *
Ve
1e-007
0 100 0
0 0

0101101
*
Ve
1e-007
0 0 0
0 0

0101101
*
Ed
 1e-007 1 1 0
1  8 0 0 100
2  16 5 0 0 100
6  11 5 0
6  12 4 0
0

0101000
-8 0 +7 0 *
Ed
 1e-007 1 1 0
1  9 0 0 100
2  17 2 0 0 100
2  18 5 0 0 100
6  13 4 0
0

0101000
-13 8 +8 0 *
Ed
 1e-007 1 1 0
1  10 0 0 100
2  19 4 0 0 100
2  20 5 0 0 100
6  14 4 0
0

0101000
-15 8 +7 0 *
Wi

0101000
-6 0 -5 0 +11 8 +4 0 *
Fa
0  1e-007 5 0
2  4
0101000
+3 0 *
Sh

0101000
+16 3 +9 0 -2 7 *

+1 0 