DBRep_DrawableShape

CASCADE Topology V1, (c) Matra-Datavision
Locations 0
Curve2ds 24
1 0 0 1 0 
1 0 0 1 0 
1 100 0 0 -1 
1 0 0 0 1 
1 0 -100 1 0 
1 0 0 1 0 
1 0 0 0 -1 
1 0 0 0 1 
1 0 0 1 0 
1 0 100 1 0 
1 100 0 0 -1 
1 100 0 0 1 
1 0 -100 1 0 
1 0 100 1 0 
1 0 0 0 -1 
1 100 0 0 1 
1 0 0 0 1 
1 0 0 1 0 
1 100 0 0 1 
1 0 0 1 0 
1 0 0 0 1 
1 0 100 1 0 
1 100 0 0 1 
1 0 100 1 0 
Curves 12
1 0 0 0 0 0 1 
1 0 0 100 0 1 0 
1 0 100 0 0 0 1 
1 0 0 0 0 1 0 
1 100 0 0 0 0 1 
1 100 0 100 0 1 0 
1 100 100 0 0 0 1 
1 100 0 0 0 1 0 
1 0 0 0 1 0 0 
1 0 0 100 1 0 0 
1 0 100 0 1 0 0 
1 0 100 100 1 0 0 
Polygon3D 0
PolygonOnTriangulations 48
2 1 2 
p 10.00000002 1 0 100 
2 1 4 
p 12.000000004 1 0 100 
2 1 2 
p 12.000000004 1 0 100 
2 1 4 
p 12.000000004 1 0 100 
2 2 3 
p 10.00000002 1 0 100 
2 1 2 
p 12.000000004 1 0 100 
2 2 3 
p 12.000000004 1 0 100 
2 1 2 
p 12.000000004 1 0 100 
2 4 3 
p 10.00000002 1 0 100 
2 1 4 
p 12.000000004 1 0 100 
2 4 3 
p 12.000000004 1 0 100 
2 4 3 
p 12.000000004 1 0 100 
2 1 4 
p 12.000000004 1 0 100 
2 1 4 
p 10.00000002 1 0 100 
2 1 2 
p 12.000000004 1 0 100 
2 1 4 
p 12.000000004 1 0 100 
2 1 2 
p 12.000000004 1 0 100 
2 1 4 
p 12.000000004 1 0 100 
2 1 2 
p 10.00000002 1 0 100 
2 2 3 
p 12.000000004 1 0 100 
2 2 3 
p 12.000000004 1 0 100 
2 1 2 
p 12.000000004 1 0 100 
2 2 3 
p 10.00000002 1 0 100 
2 4 3 
p 12.000000004 1 0 100 
2 2 3 
p 12.000000004 1 0 100 
2 4 3 
p 12.000000004 1 0 100 
2 4 3 
p 10.00000002 1 0 100 
2 2 3 
p 12.000000004 1 0 100 
2 4 3 
p 12.000000004 1 0 100 
2 4 3 
p 12.000000004 1 0 100 
2 2 3 
p 12.000000004 1 0 100 
2 1 4 
p 10.00000002 1 0 100 
2 4 3 
p 12.000000004 1 0 100 
2 1 4 
p 12.000000004 1 0 100 
2 4 3 
p 12.000000004 1 0 100 
2 1 4 
p 12.000000004 1 0 100 
2 1 2 
p 10.00000002 1 0 100 
2 1 4 
p 12.2000000024 1 0 100 
2 1 2 
p 12.2000000024 1 0 100 
2 4 3 
p 10.00000002 1 0 100 
2 1 4 
p 12.2000000024 1 0 100 
2 1 2 
p 10.00000002 1 0 100 
2 2 3 
p 12.2000000024 1 0 100 
2 2 3 
p 12.2000000024 1 0 100 
2 1 2 
p 12.2000000024 1 0 100 
2 4 3 
p 10.00000002 1 0 100 
2 2 3 
p 12.2000000024 1 0 100 
2 2 3 
p 12.2000000024 1 0 100 
Surfaces 6
1 0 0 0 1 0 0 0 0 1 0 -1 0 
1 0 0 0 0 1 0 0 -0 1 1 0 -0 
1 0 0 100 0 0 1 1 0 -0 -0 1 0 
1 0 100 0 0 1 0 0 -0 1 1 0 -0 
1 0 0 0 0 0 1 1 0 -0 -0 1 0 
1 100 0 0 1 0 0 0 0 1 0 -1 0 
Triangulations 14
4 2 1 10.00000002
0 0 0 0 0 100 0 100 100 0 100 0 0 0 100 0 100 -100 0 -100 1 4 3 3 2 1 
4 2 1 11.000000012
0 0 0 100 0 0 100 0 100 0 0 100 0 0 0 100 100 100 100 0 2 1 4 4 3 2 
4 2 1 11.500000008
0 0 0 0 0 100 0 100 100 0 100 0 0 0 100 0 100 -100 0 -100 1 4 3 3 2 1 
4 2 1 11.5500000076
0 0 0 100 0 0 100 0 100 0 0 100 0 0 0 100 100 100 100 0 2 1 4 4 3 2 
4 2 1 12.1000000032
0 0 100 0 100 100 100 100 100 100 0 100 0 0 0 100 100 100 100 0 2 1 4 4 3 2 
4 2 1 11.500000008
0 0 0 0 0 100 0 100 100 0 100 0 0 0 100 0 100 -100 0 -100 1 4 3 3 2 1 
4 2 1 11.5500000076
0 0 100 0 100 100 100 100 100 100 0 100 0 0 0 100 100 100 100 0 2 1 4 4 3 2 
4 2 1 11.000000012
0 100 0 100 100 0 100 100 100 0 100 100 0 0 0 100 100 100 100 0 2 1 4 4 3 2 
4 2 1 11.5500000076
0 100 0 100 100 0 100 100 100 0 100 100 0 0 0 100 100 100 100 0 2 1 4 4 3 2 
4 2 1 12.1000000032
0 0 0 0 100 0 100 100 0 100 0 0 0 0 0 100 100 100 100 0 2 1 4 4 3 2 
4 2 1 11.5500000076
0 0 0 0 100 0 100 100 0 100 0 0 0 0 0 100 100 100 100 0 2 1 4 4 3 2 
4 2 1 10.00000002
100 0 0 100 0 100 100 100 100 100 100 0 0 0 100 0 100 -100 0 -100 1 4 3 3 2 1 
4 2 1 11.500000008
100 0 0 100 0 100 100 100 100 100 100 0 0 0 100 0 100 -100 0 -100 1 4 3 3 2 1 
4 2 1 11.500000008
100 0 0 100 0 100 100 100 100 100 100 0 0 0 100 0 100 -100 0 -100 1 4 3 3 2 1 

TShapes 33
Ve
1e-07
0 0 100
0 0

0101101
*
Ve
1e-07
0 0 0
0 0

0101101
*
Ed
 1e-07 1 1 0
1  1 0 0 100
2  1 1 0 0 100
2  2 2 0 0 100
6  1 1 0
6  2 2 0
6  3 3 0
6  4 4 0
0

0101000
-33 0 +32 0 *
Ve
1e-07
0 100 100
0 0

0101101
*
Ed
 1e-07 1 1 0
1  2 0 0 100
2  3 1 0 0 100
2  4 3 0 0 100
6  5 1 0
6  6 5 0
6  7 6 0
6  8 7 0
0

0101000
-30 0 +33 0 *
Ve
1e-07
0 100 0
0 0

0101101
*
Ed
 1e-07 1 1 0
1  3 0 0 100
2  5 1 0 0 100
2  6 4 0 0 100
6  9 1 0
6  10 8 0
6  11 6 0
6  12 3 0
6  13 9 0
0

0101000
-30 0 +28 0 *
Ed
 1e-07 1 1 0
1  4 0 0 100
2  7 1 0 0 100
2  8 5 0 0 100
6  14 1 0
6  15 10 0
6  16 6 0
6  17 11 0
6  18 3 0
0

0101000
-28 0 +32 0 *
Wi

0101000
-31 0 -29 0 +27 0 +26 0 *
Fa
0  1e-07 1 0
2  1
0111000
+25 0 *
Ve
1e-07
100 0 100
0 0

0101101
*
Ve
1e-07
100 0 0
0 0

0101101
*
Ed
 1e-07 1 1 0
1  5 0 0 100
2  9 6 0 0 100
2  10 2 0 0 100
6  19 12 0
6  20 2 0
6  21 4 0
6  22 13 0
0

0101000
-23 0 +22 0 *
Ve
1e-07
100 100 100
0 0

0101101
*
Ed
 1e-07 1 1 0
1  6 0 0 100
2  11 6 0 0 100
2  12 3 0 0 100
6  23 12 0
6  24 5 0
6  25 14 0
6  26 7 0
0

0101000
-20 0 +23 0 *
Ve
1e-07
100 100 0
0 0

0101101
*
Ed
 1e-07 1 1 0
1  7 0 0 100
2  13 6 0 0 100
2  14 4 0 0 100
6  27 12 0
6  28 8 0
6  29 14 0
6  30 13 0
6  31 9 0
0

0101000
-20 0 +18 0 *
Ed
 1e-07 1 1 0
1  8 0 0 100
2  15 6 0 0 100
2  16 5 0 0 100
6  32 12 0
6  33 10 0
6  34 14 0
6  35 11 0
6  36 13 0
0

0101000
-18 0 +22 0 *
Wi

0101000
-21 0 -19 0 +17 0 +16 0 *
Fa
0  1e-07 6 0
2  12
0111000
+15 0 *
Ed
 1e-07 1 1 0
1  9 0 0 100
2  17 2 0 0 100
2  18 5 0 0 100
6  37 2 0
6  38 10 0
6  39 4 0
0

0101000
-22 0 +32 0 *
Ed
 1e-07 1 1 0
1  10 0 0 100
2  19 2 0 0 100
2  20 3 0 0 100
6  40 2 0
6  41 5 0
0

0101000
-23 0 +33 0 *
Wi

0101000
-13 0 -21 0 +12 0 +31 0 *
Fa
0  1e-07 2 0
2  2
0111000
+11 0 *
Ed
 1e-07 1 1 0
1  11 0 0 100
2  21 4 0 0 100
2  22 5 0 0 100
6  42 8 0
6  43 10 0
6  44 11 0
6  45 9 0
0

0101000
-18 0 +28 0 *
Ed
 1e-07 1 1 0
1  12 0 0 100
2  23 4 0 0 100
2  24 3 0 0 100
6  46 8 0
6  47 5 0
6  48 7 0
0

0101000
-20 0 +30 0 *
Wi

0101000
-9 0 -17 0 +8 0 +27 0 *
Fa
0  1e-07 4 0
2  8
0111000
+7 0 *
Wi

0101000
-26 0 -9 0 +16 0 +13 0 *
Fa
0  1e-07 5 0
2  10
0111000
+5 0 *
Wi

0101000
-29 0 -8 0 +19 0 +12 0 *
Fa
0  1e-07 3 0
2  5
0111000
+3 0 *
Sh

1101100
-24 0 +14 0 -10 0 +6 0 -4 0 +2 0 *

+1 0 