DBRep_DrawableShape

CASCADE Topology V1, (c) Matra-Datavision
Locations 5
1
              1               0               0               0 
              0               1               0              25 
              0               0               1               0 
1
              1               0               0              50 
              0               1               0               0 
              0               0               1               0 
1
              1               0               0               0 
              0               1               0               0 
              0               0               1             -15 
1
              1               0               0               0 
              0               1               0               0 
              0               0               1             -15 
2  1 1 2 1 3 1 4 1 0
Curve2ds 24
1 0 0 1 0 
1 0 0 1 0 
1 160 0 0 -1 
1 0 0 0 1 
1 0 -100 1 0 
1 0 0 1 0 
1 0 0 0 -1 
1 0 0 0 1 
1 0 0 1 0 
1 0 100 1 0 
1 160 0 0 -1 
1 100 0 0 1 
1 0 -100 1 0 
1 0 100 1 0 
1 0 0 0 -1 
1 100 0 0 1 
1 0 0 0 1 
1 0 0 1 0 
1 160 0 0 1 
1 0 0 1 0 
1 0 0 0 1 
1 0 100 1 0 
1 160 0 0 1 
1 0 100 1 0 
Curves 12
1 0 0 0 0 0 1 
1 0 0 160 -0 1 0 
1 0 100 0 0 0 1 
1 0 0 0 -0 1 0 
1 100 0 0 0 0 1 
1 100 0 160 0 1 0 
1 100 100 0 0 0 1 
1 100 0 0 -0 1 0 
1 0 0 0 1 0 -0 
1 0 0 160 1 0 -0 
1 0 100 0 1 0 -0 
1 0 100 160 1 0 -0 
Polygon3D 0
PolygonOnTriangulations 16
2 1 2 
p 16.00000002 1 0 160 
2 1 4 
p 19.200000004 1 0 160 
2 1 2 
p 10.00000002 1 0 100 
2 4 3 
p 16.00000002 1 0 160 
2 1 4 
p 19.200000004 1 0 160 
2 1 2 
p 10.00000002 1 0 100 
2 1 2 
p 16.00000002 1 0 160 
2 2 3 
p 19.200000004 1 0 160 
2 4 3 
p 10.00000002 1 0 100 
2 4 3 
p 16.00000002 1 0 160 
2 2 3 
p 19.200000004 1 0 160 
2 4 3 
p 10.00000002 1 0 100 
2 1 4 
p 10.00000002 1 0 100 
2 1 4 
p 10.00000002 1 0 100 
2 2 3 
p 10.00000002 1 0 100 
2 2 3 
p 10.00000002 1 0 100 
Surfaces 6
1 0 0 0 1 0 -0 0 0 1 0 -1 0 
1 0 0 0 -0 1 0 0 0 1 1 0 -0 
1 0 0 160 0 0 1 1 0 -0 -0 1 0 
1 0 100 0 -0 1 0 0 0 1 1 0 -0 
1 0 0 0 0 0 1 1 0 -0 -0 1 0 
1 100 0 0 1 0 -0 0 0 1 0 -1 0 
Triangulations 6
4 2 1 16.00000002
0 0 0 0 0 160 0 100 160 0 100 0 0 0 160 0 160 -100 0 -100 1 4 3 3 2 1 
4 2 1 17.600000012
0 0 0 100 0 0 100 0 160 0 0 160 0 0 0 100 160 100 160 0 2 1 4 4 3 2 
4 2 1 10.00000002
0 0 160 0 100 160 100 100 160 100 0 160 0 0 0 100 100 100 100 0 2 1 4 4 3 2 
4 2 1 17.600000012
0 100 0 100 100 0 100 100 160 0 100 160 0 0 0 100 160 100 160 0 2 1 4 4 3 2 
4 2 1 10.00000002
0 0 0 0 100 0 100 100 0 100 0 0 0 0 0 100 100 100 100 0 2 1 4 4 3 2 
4 2 1 16.00000002
100 0 0 100 0 160 100 100 160 100 100 0 0 0 160 0 160 -100 0 -100 1 4 3 3 2 1 

TShapes 33
Ve
1e-07
0 0 160
0 0

0101101
*
Ve
1e-07
0 0 0
0 0

0101101
*
Ed
 1e-07 1 1 0
1  1 0 0 160
2  1 1 0 0 160
2  2 2 0 0 160
6  1 1 0
6  2 2 0
0

0101000
-33 0 +32 0 *
Ve
1e-07
0 100 160
0 0

0101101
*
Ed
 1e-07 1 1 0
1  2 0 0 100
2  3 1 0 0 100
2  4 3 0 0 100
6  3 3 0
0

0101000
-30 0 +33 0 *
Ve
1e-07
0 100 0
0 0

0101101
*
Ed
 1e-07 1 1 0
1  3 0 0 160
2  5 1 0 0 160
2  6 4 0 0 160
6  4 1 0
6  5 4 0
0

0101000
-30 0 +28 0 *
Ed
 1e-07 1 1 0
1  4 0 0 100
2  7 1 0 0 100
2  8 5 0 0 100
6  6 5 0
0

0101000
-28 0 +32 0 *
Wi

0101000
-31 0 -29 0 +27 0 +26 0 *
Fa
0  1e-07 1 0
2  1
0101000
+25 0 *
Ve
1e-07
100 0 160
0 0

0101101
*
Ve
1e-07
100 0 0
0 0

0101101
*
Ed
 1e-07 1 1 0
1  5 0 0 160
2  9 6 0 0 160
2  10 2 0 0 160
6  7 6 0
6  8 2 0
0

0101000
-23 0 +22 0 *
Ve
1e-07
100 100 160
0 0

0101101
*
Ed
 1e-07 1 1 0
1  6 0 0 100
2  11 6 0 0 100
2  12 3 0 0 100
6  9 3 0
0

0101000
-20 0 +23 0 *
Ve
1e-07
100 100 0
0 0

0101101
*
Ed
 1e-07 1 1 0
1  7 0 0 160
2  13 6 0 0 160
2  14 4 0 0 160
6  10 6 0
6  11 4 0
0

0101000
-20 0 +18 0 *
Ed
 1e-07 1 1 0
1  8 0 0 100
2  15 6 0 0 100
2  16 5 0 0 100
6  12 5 0
0

0101000
-18 0 +22 0 *
Wi

0101000
-21 0 -19 0 +17 0 +16 0 *
Fa
0  1e-07 6 0
2  6
0101000
+15 0 *
Ed
 1e-07 1 1 0
1  9 0 0 100
2  17 2 0 0 100
2  18 5 0 0 100
6  13 5 0
0

0101000
-22 0 +32 0 *
Ed
 1e-07 1 1 0
1  10 0 0 100
2  19 2 0 0 100
2  20 3 0 0 100
6  14 3 0
0

0101000
-23 0 +33 0 *
Wi

0101000
-13 0 -21 0 +12 0 +31 0 *
Fa
0  1e-07 2 0
2  2
0101000
+11 0 *
Ed
 1e-07 1 1 0
1  11 0 0 100
2  21 4 0 0 100
2  22 5 0 0 100
6  15 5 0
0

0101000
-18 0 +28 0 *
Ed
 1e-07 1 1 0
1  12 0 0 100
2  23 4 0 0 100
2  24 3 0 0 100
6  16 3 0
0

0101000
-20 0 +30 0 *
Wi

0101000
-9 0 -17 0 +8 0 +27 0 *
Fa
0  1e-07 4 0
2  4
0101000
+7 0 *
Wi

0101000
-26 0 -9 0 +16 0 +13 0 *
Fa
0  1e-07 5 0
2  5
0101000
+5 0 *
Wi

0101000
-29 0 -8 0 +19 0 +12 0 *
Fa
0  1e-07 3 0
2  3
0101000
+3 0 *
Sh

0101100
-24 0 +14 0 -10 0 +6 0 -4 0 +2 0 *

+1 5 