DBRep_DrawableShape

CASCADE Topology V1, (c) Matra-Datavision
Locations 6
1
              1               0               0             100 
              0               1               0               0 
              0               0               1               0 
2  1 -1 0
1
0.877582561890373 -0.479425538604203               0 239.712769302101 
0.479425538604203 0.877582561890373               0 61.2087190548136 
              0               0               1               0 
2  3 -1 0
1
0.877582561890373 -0.479425538604203               0 239.712769302101 
0.479425538604203 0.877582561890373               0 61.2087190548136 
              0               0               1               0 
2  5 -1 0
Curve2ds 8
1 0 0 1 0 
1 0 -100 1 0 
1 0 7.85398163397448 0 -1 
1 0.5 7.85398163397448 0 -1 
7 0 0  10 110 13  6.28318530717959 0  6.2433389940564 0  6.20356944663604 0  6.16386818835446 0  6.12423866374319 0  6.08465308677528 0  6.04513518563047 0  6.0056565414075 0  5.96622292710054 0  5.92682793363305 0  5.84810664030729 0  5.80878064528079 0  5.76948278172005 0  5.73021548484234 0  5.69096779544862 0  5.65173887108653 0  5.61252990451583 0  5.57333246792937 0  5.53414696338222 0  5.45579446189144 0  5.41662773100238 0  5.37746702882003 0  5.33831214440207 0  5.29916074121954 0  5.26001036868569 0  5.2208602569912 0  5.18171008452915 0  5.14255772919602 0  5.06424794692875 0  5.02509060050661 0  4.98592974493936 0  4.9467648609303 0  4.90759551004831 0  4.86842124984417 0  4.82924174046652 0  4.79005686532086 0  4.7508666884955 0  4.63327983749281 0  4.55486700304669 0  4.47643267992134 0  4.39797817947102 0  4.31950560128462 0  4.24101748053591 0  4.16251649372806 0  4.08400522319146 0  4.00548597999629 0  3.84843539108464 0  3.76990404136929 0  3.69136848714921 0  3.61283235262554 0  3.53428729840479 0  3.45575687896265 0  3.37721031370171 0  3.29867248690213 0  3.2201324233544 0  3.06305288382519 0  2.98451282027747 0  2.90597499347786 0  2.82742842821697 0  2.74889800877466 0  2.67035295455431 0  2.59181682003016 0  2.51328126581035 0  2.43474991609499 0  2.27769932718316 0  2.1991800839889 0  2.12066881344957 0  2.04216782664694 0  1.96367970589094 0  1.88520712771228 0  1.80675262725576 0  1.728318304134 0  1.64990546968651 0  1.53231861868418 0  1.49312844185848 0  1.45394356671345 0  1.41476405733499 0  1.37558979713156 0  1.33642044624923 0  1.29725556224017 0  1.25809470667298 0  1.21893736025087 0  1.14062757798347 0  1.10147522265099 0  1.06232505018687 0  1.02317493849664 0  0.984024565956397 0  0.944873162781051 0  0.905718278357098 0  0.866557576178318 0  0.827390845287901 0  0.7490383437975 0  0.709852839249953 0  0.670655402664024 0  0.631446436093012 0  0.592217511730541 0  0.552969822338017 0  0.513702525458842 0  0.474404661899151 0  0.435078666872206 0  0.356357373546571 0  0.316962380078967 0  0.277528765772108 0  0.238050121549282 0  0.198532220403779 0  0.158946643437123 0  0.119317118824517 0  0.0796158605438702 0  0.039846313123082 0  -3.55612621298716e-15 0 
 0 11 0.392699081698724 9 0.785398163397449 9 1.17809724509617 9 1.5707963267949 9 2.35619449019235 9 3.14159265358979 9 3.92699081698724 9 4.71238898038469 9 5.10508806208342 9 5.49778714378214 9 5.89048622548087 9 6.28318530717959 11
7 0 0  10 110 13  6.28318530717959 0.5  6.24333899405638 0.49999999999999  6.20356913322967 0.500000000000033  6.16386959868327 0.49999999999993  6.12423564161 0.500000000000102  6.08465692440457 0.499999999999898  6.04513216349762 0.50000000000007  6.00565795173596 0.499999999999969  5.96622261369435 0.500000000000006  5.92682793363302 0.500000000000004  5.84810664030727 0.499999999999987  5.80878064528099 0.500000000000072  5.76948278171953 0.499999999999827  5.73021548484324 0.500000000000273  5.69096779544752 0.499999999999695  5.6517388710875 0.500000000000246  5.61252990451523 0.499999999999859  5.57333246792962 0.500000000000049  5.53414696338218 0.499999999999998  5.45579446189145 0.499999999999985  5.41662773100247 0.500000000000097  5.37746702881976 0.499999999999773  5.33831214440255 0.500000000000335  5.299160741219 0.49999999999965  5.26001036868615 0.500000000000269  5.22086025699094 0.49999999999985  5.18171008452924 0.500000000000056  5.14255772919602 0.499999999999992  5.06424794692871 0.500000000000001  5.02509060050683 0.500000000000018  4.9859297449388 0.499999999999949  4.94676486093124 0.500000000000077  4.9075955100472 0.499999999999923  4.86842124984509 0.500000000000051  4.82924174046597 0.499999999999981  4.79005686532109 0.5  4.75086668849544 0.500000000000006  4.6332798374929 0.499999999999977  4.5548670030464 0.500000000000108  4.47643267992197 0.499999999999756  4.39797817947006 0.500000000000364  4.31950560128572 0.499999999999611  4.24101748053497 0.500000000000307  4.16251649372865 0.499999999999823  4.08400522319122 0.500000000000068  4.00548597999633 0.49999999999999  3.84843539108463 0.500000000000001  3.76990404136923 0.500000000000022  3.69136848714937 0.499999999999935  3.61283235262529 0.500000000000102  3.534287298405 0.499999999999888  3.45575687896252 0.50000000000009  3.37721031370177 0.499999999999945  3.29867248690211 0.500000000000024  3.22013242335439 0.499999999999993  3.0630528838252 0.50000000000001  2.98451282027739 0.499999999999952  2.90597499347804 0.500000000000123  2.82742842821669 0.499999999999794  2.74889800877495 0.500000000000239  2.67035295455411 0.499999999999806  2.59181682003023 0.500000000000111  2.51328126581034 0.499999999999956  2.43474991609498 0.50000000000001  2.27769932718316 0.499999999999992  2.19918008398886 0.500000000000032  2.12066881344966 0.499999999999932  2.04216782664677 0.50000000000009  1.96367970589116 0.499999999999918  1.88520712771207 0.500000000000051  1.8067526272559 0.499999999999981  1.72831830413395 0.500000000000001  1.64990546968652 0.500000000000002  1.53231861868419 0.499999999999997  1.49312844185844 0.500000000000022  1.45394356671354 0.499999999999937  1.41476405733484 0.500000000000112  1.37558979713173 0.499999999999863  1.33642044624908 0.500000000000118  1.29725556224026 0.49999999999993  1.25809470667294 0.500000000000027  1.21893736025087 0.499999999999995  1.14062757798348 0.500000000000003  1.10147522265091 0.499999999999997  1.06232505018707 0.500000000000001  1.02317493849632 0.499999999999999  0.984024565956752 0.500000000000006  0.944873162780756 0.499999999999992  0.905718278357274 0.5  0.866557576178248 0.500000000000009  0.827390845287914 0.499999999999989  0.749038343797491 0.500000000000024  0.709852839249977 0.499999999999873  0.670655402663971 0.500000000000291  0.631446436093097 0.499999999999561  0.592217511730441 0.500000000000473  0.552969822338104 0.499999999999629  0.513702525458788 0.500000000000211  0.474404661899173 0.499999999999919  0.435078666872202 0.500000000000014  0.356357373546573 0.499999999999995  0.316962693485442 0.500000000000003  0.27752735544296 0.499999999999999  0.238053143683174 0.5  0.198528382773434 0.499999999999999  0.158949665571026 0.500000000000005  0.119315708495357 0.499999999999992  0.0796161739503536 0.500000000000006  0.039846313123079 0.499999999999998  -3.5283706373716e-15 0.5 
 0 11 0.392699081698724 9 0.785398163397449 9 1.17809724509617 9 1.5707963267949 9 2.35619449019235 9 3.14159265358979 9 3.92699081698724 9 4.71238898038469 9 5.10508806208342 9 5.49778714378214 9 5.89048622548087 9 6.28318530717959 11
1 6.28318530717959 0 0 1 
1 -3.5527136788005e-15 0 0 1 
Curves 2
2 0 0 0 1 0 0 0 0 1 0 -1 0 20
7 1 0  4 14 5  0 -3.83138646325114e-14 20  1.66907846106824 16.1350176470828 -3.83138646325114e-14 20  1.66907846106824 32.3574083273104 0.694216299558198 20  1.66907846106824 48.6004292705422 2.09970091501008 20  1.66907846106825 80.3119132778604 6.24405975049631 20.0000000000002  1.66907846106824 95.7847022277851 8.92488625053419 19.9999999999996  1.66907846106824 111.149815047538 12.2578305198456 20.0000000000002  1.66907846106824 141.54384141975 20.1958246668149 20  1.66907846106824 156.572987289244 24.8009379159148 20  1.66907846106824 171.373879256399 30.0259685014644 20  1.66907846106824 199.779817209965 41.4023267805883 19.9999999999999  1.66907846106824 213.409028388254 47.5036304610686 20.0000000000001  1.66907846106824 226.732941138777 54.1178066114451 20  1.66907846106824 239.712769302101 61.2087190548136 20  1.66907846106824
 0 5 0.130434761987103 3 0.255434748411448 3 0.380434735560221 3 0.5 5
Polygon3D 0
PolygonOnTriangulations 0
Surfaces 4
9 1 1 0 0 6 4 7 14 2 5 0 -3.83138646325114e-14 20  1.66907846106824 16.1350176470828 -3.83138646325114e-14 20  1.66907846106824 32.3574083273104 0.694216299558198 20  1.66907846106824 48.6004292705422 2.09970091501008 20  1.66907846106825 80.3119132778604 6.24405975049631 20.0000000000002  1.66907846106824 95.7847022277851 8.92488625053419 19.9999999999996  1.66907846106824 111.149815047538 12.2578305198456 20.0000000000002  1.66907846106824 141.54384141975 20.1958246668149 20  1.66907846106824 156.572987289244 24.8009379159148 20  1.66907846106824 171.373879256399 30.0259685014644 20  1.66907846106824 199.779817209965 41.4023267805883 19.9999999999999  1.66907846106824 213.409028388254 47.5036304610686 20.0000000000001  1.66907846106824 226.732941138777 54.1178066114451 20  1.66907846106824 239.712769302101 61.2087190548136 20  1.66907846106824 
0 33.2308615114213 20  1.03672962320961 15.0626565732537 33.2308615114213 20  1.03672962320961 30.2068792173235 33.8789389995602 20  1.03672962320961 45.3703610015724 35.1910126857873 20  1.03672962320961 74.974245142153 39.0599302922423 19.9999999999999  1.03672962320961 89.4186858784959 41.5625844439616 20.0000000000001  1.03672962320961 103.762606825808 44.6740154943963 19.9999999999999  1.03672962320961 132.136593835721 52.0844368730123 19.9999999999998  1.03672962320961 146.166876775167 56.3834863608621 20.0000000000002  1.03672962320961 159.98407595991 61.2612524108486 19.9999999999998  1.03672962320961 186.502106333003 71.8815183170167 19.9999999999999  1.03672962320961 199.22549665294 77.577318842207 20  1.03672962320961 211.663879204657 83.7519054492528 20  1.03672962320961 223.781045623707 90.3715436338309 20  1.03672962320961 
0 38.0022476649119 -21.0909638109627  1.03834669984751 14.9086837736785 38.0022476649119 -21.0909638109627  1.03834669984751 29.8980998372119 38.6437004049723 -21.0909638109627  1.03834669984751 44.9065781710221 39.9423618715333 -21.0909638109627  1.0383466998475 74.2078468402035 43.7717308052628 -21.0909638109625  1.03834669984751 88.5046342746457 46.2488024400977 -21.090963810963  1.0383466998475 102.701929448846 49.3284279622585 -21.0909638109626  1.03834669984751 130.785873185597 56.6630988701561 -21.0909638109628  1.0383466998475 144.672736408042 60.9182028108211 -21.0909638109624  1.03834669984751 158.348694050802 65.7461075836334 -21.0909638109628  1.0383466998475 184.595653025837 76.2578114930612 -21.0909638109627  1.03834669984751 197.188982886777 81.8953886664525 -21.0909638109627  1.03834669984751 209.500218372878 88.0068576964971 -21.0909638109627  1.03834669984751 221.493521247181 94.5588289181794 -21.0909638109627  1.03834669984751 
0 4.74508575759551e-13 -54.9823384201694  0.853534330196148 16.1350176470828 4.74508575759551e-13 -54.9823384201694  0.853534330196148 32.3574083273102 0.694216299558661 -54.9823384201694  0.853534330196149 48.6004292705424 2.09970091501062 -54.9823384201694  0.853534330196148 80.3119132778599 6.24405975049716 -54.9823384201691  0.853534330196154 95.784702227786 8.92488625053419 -54.9823384201701  0.853534330196138 111.149815047537 12.2578305198464 -54.982338420169  0.853534330196154 141.543841419749 20.1958246668153 -54.9823384201694  0.853534330196149 156.572987289245 24.8009379159154 -54.9823384201694  0.853534330196148 171.373879256398 30.0259685014649 -54.9823384201694  0.853534330196149 199.779817209965 41.4023267805887 -54.9823384201694  0.853534330196149 213.409028388254 47.5036304610691 -54.9823384201694  0.853534330196148 226.732941138777 54.1178066114455 -54.9823384201694  0.853534330196148 239.712769302101 61.208719054814 -54.9823384201694  0.853534330196148 
0 -38.0022476649121 -21.0909638109627  1.03834669984751 17.3613515204871 -38.0022476649121 -21.0909638109627  1.03834669984751 34.8167168174085 -37.2552678058563 -21.0909638109628  1.03834669984751 52.2942803700627 -35.7429600415131 -21.0909638109627  1.03834669984751 86.4159797155169 -31.2836113042699 -21.0909638109625  1.03834669984751 103.064770180925 -28.3990299390302 -21.090963810963  1.03834669984751 119.597700646229 -24.812766922567 -21.0909638109626  1.03834669984751 152.301809653902 -16.2714495365261 -21.0909638109627  1.03834669984751 168.473238170446 -11.3163269789923 -21.0909638109627  1.03834669984751 184.399064461995 -5.6941705807045 -21.0909638109627  1.03834669984751 214.963981394094 6.54684206811526 -21.0909638109627  1.03834669984751 229.629073889731 13.1118722556844 -21.0909638109627  1.03834669984751 243.965663904677 20.2287555263929 -21.0909638109627  1.03834669984751 257.932017357022 27.8586091914476 -21.0909638109627  1.03834669984751 
0 -33.2308615114213 19.9999999999999  1.03672962320961 17.2073787209119 -33.2308615114213 19.9999999999999  1.03672962320961 34.5079374372969 -32.4905064004438 19.9999999999998  1.03672962320961 51.8304975395124 -30.991610855767 20  1.03672962320961 85.6495814135676 -26.5718107912491 19.9999999999999  1.03672962320961 102.150718577075 -23.712811942894 19.9999999999998  1.0367296232096 118.537023269267 -20.1583544547045 19.9999999999999  1.03672962320961 150.951089003779 -11.6927875393826 19.9999999999999  1.03672962320961 166.979097803319 -6.78161052903206 19.9999999999998  1.03672962320962 182.763682552888 -1.20931540791997 19.9999999999999  1.0367296232096 213.057528086929 10.9231352441598 19.9999999999997  1.03672962320961 227.592560123568 17.4299420799303 20  1.03672962320961 241.802003072897 24.4837077736374 19.9999999999999  1.03672962320961 255.644492980496 32.0458944757964 19.9999999999999  1.03672962320961 
0 -3.83138646325114e-14 20  1.66907846106824 16.1350176470828 -3.83138646325114e-14 20  1.66907846106824 32.3574083273104 0.694216299558198 20  1.66907846106824 48.6004292705422 2.09970091501008 20  1.66907846106825 80.3119132778604 6.24405975049631 20.0000000000002  1.66907846106824 95.7847022277851 8.92488625053419 19.9999999999996  1.66907846106824 111.149815047538 12.2578305198456 20.0000000000002  1.66907846106824 141.54384141975 20.1958246668149 20  1.66907846106824 156.572987289244 24.8009379159148 20  1.66907846106824 171.373879256399 30.0259685014644 20  1.66907846106824 199.779817209965 41.4023267805883 19.9999999999999  1.66907846106824 213.409028388254 47.5036304610686 20.0000000000001  1.66907846106824 226.732941138777 54.1178066114451 20  1.66907846106824 239.712769302101 61.2087190548136 20  1.66907846106824 

-3.5527136788005e-15 7
6.28318530717959 7

0 5
0.130434761987103 3
0.255434748411448 3
0.380434735560221 3
0.5 5

2 0 0 0 -1 0 0 0 0 1 0 -1 0 20
10 0 0.5 1.57079632679489 7.85398163397448
5 0 500 0 0 0 1 0 -1 0 1 0 0 500 20
1 0 0 0 1 0 0 0 0 1 0 -1 0 
Triangulations 0

TShapes 9
Ve
4.16194028495564e-06
0 0 20
0 0

0101101
*
Ed
 4.16194028495564e-06 1 1 0
1  1 0 0 6.28318530717959
2  1 2 0 0 6.28318530717959
2  2 2 2 0 6.28318530717959
2  3 3 0 0 6.28318530717959
2  4 3 4 0 6.28318530717959
2  5 1 0 0 6.28318530717959
2  6 1 6 0 6.28318530717959
0

0101100
+9 0 -9 0 *
Ed
 7.71906253043667e-13 1 1 0
1  2 0 0 0.5
3  7 8G1 1 0 0 0.5
0

0101000
+9 0 -9 5 *
Wi

0101000
-8 0 +7 0 +8 5 -7 0 *
Fa
0  1e-07 1 0

0111000
+6 0 *
Wi

0101100
+8 0 *
Fa
0  1e-07 4 0

0111000
+4 0 *
Sh

0101100
+5 0 +3 0 -3 5 *
So

1100000
-2 0 *

+1 0 
0

