DBRep_DrawableShape

CASCADE Topology V1, (c) Matra-Datavision
Locations 0
Curve2ds 12
1 0 0 0 1 
1 0 6.2831853071795862 1 0 
1 6.2831799999999998 0 0 1 
3 150 0 -1 0 0 1 150 100
7 0 0  9 258 33  6.2831799999999998 4.7123889803846897  6.2613634216174372 4.7123889803846728  6.2395468289595595 4.7123889803847669  6.2177302347395829 4.712388980384512  6.1959136346816583 4.7123889803849437  6.1740970261741701 4.7123889803844348  6.152280416188348 4.7123889803848797  6.1304638184468763 4.7123889803845893  6.1086472398604883 4.7123889803847252  6.0650140725708033 4.7123889803846426  6.0431974710000462 4.7123889803848824  6.021380868279385 4.7123889803843051  5.9995642592477569 4.7123889803851879  5.9777476414567063 4.7123889803842385  5.9559310250586082 4.7123889803849766  5.9341144278869553 4.712388980384576  5.9122978557774966 4.7123889803847074  5.8686646804024889 4.7123889803846915  5.8468480794187476 4.7123889803846311  5.8250314789454904 4.7123889803848655  5.8032148748397026 4.7123889803844055  5.7813982660128893 4.7123889803849854  5.7595816621517422 4.7123889803844916  5.7377650781858245 4.7123889803847661  5.7159485154666001 4.7123889803846817  5.6723153439141214 4.7123889803846835  5.6504987435330003 4.7123889803847456  5.6286821477797888 4.712388980384568  5.6068655402733745 4.7123889803848513  5.5850489258868476 4.7123889803845396  5.5632323262671717 4.7123889803847945  5.5414157504167383 4.7123889803846311  5.5195991766799173 4.7123889803847154  5.4759659884113159 4.712388980384647  5.4541493778454528 4.7123889803848744  5.432332782680648 4.7123889803843353  5.4105161654890859 4.7123889803851098  5.3886995385909779 4.7123889803843539  5.3668829423528894 4.7123889803848842  5.3450663779297845 4.7123889803846097  5.3232497896538726 4.7123889803847065  5.2796165948113751 4.7123889803846692  5.2577999839730865 4.7123889803847598  5.2359833950975343 4.7123889803845866  5.2141667821329198 4.7123889803847474  5.1923501629338569 4.7123889803847145  5.1705335848882399 4.7123889803846302  5.1487170383333662 4.7123889803847314  5.1269004452106204 4.7123889803846755  5.0832672557177618 4.7123889803846977  5.0614506489664501 4.7123889803846648  5.0396340575046654 4.7123889803847643  5.0178174435000011 4.712388980384528  4.9960008290658511 4.7123889803849064  4.974184256704965 4.7123889803845147  4.9523677078398745 4.7123889803847652  4.9305511022317141 4.7123889803846826  4.8869178997923877 4.7123889803846639  4.8651012835928595 4.7123889803848256  4.8432847030919692 4.712388980384441  4.8214680565211658 4.7123889803849526  4.799651447801728 4.7123889803845191  4.7778349031299774 4.7123889803847607  4.7560183168520904 4.7123889803846701  4.7342017111657784 4.7123889803846941  4.6905685046097876 4.712388980384671  4.6687518883663959 4.7123889803847909  4.6469353229912267 4.712388980384465  4.6251186643658269 4.7123889803850139  4.6033020811121581 4.7123889803843646  4.5814855717809309 4.7123889803849188  4.5596689567728692 4.7123889803845911  4.5378523634858094 4.7123889803847048  4.4942191629505421 4.7123889803846826  4.4724025511829568 4.7123889803846994  4.4505859827670875 4.7123889803846675  4.4287693235569581 4.712388980384735  4.4069527565899325 4.7123889803846319  4.3851362521260304 4.7123889803847341  4.363319609939297 4.7123889803846772  4.3415030186925687 4.7123889803846861  4.2978698086086586 4.7123889803846915  4.276053198101339 4.7123889803846923  4.2542366053394369 4.7123889803846764  4.2324199603180945 4.7123889803847119  4.210603400409223 4.7123889803846639  4.1887868722263253 4.7123889803847163  4.1669702177671812 4.7123889803846799  4.1451536248710212 4.7123889803846817  4.101520413426031 4.712388980384703  4.0797037956171014 4.7123889803846284  4.0578872667570991 4.7123889803848105  4.0360704811523371 4.712388980384528  4.0142541755691621 4.7123889803848424  3.9924374333105033 4.7123889803845911  3.9706208822981672 4.7123889803847359  3.9488042736672901 4.7123889803846755  3.9051710694232473 4.7123889803846941  3.8833544607919017 4.7123889803846923  3.8615379097813749 4.7123889803846764  3.8397211675187788 4.7123889803847119  3.8179048619383487 4.7123889803846639  3.7960880763333962 4.7123889803847163  3.7742715474731114 4.7123889803846799  3.7524549296642888 4.7123889803846817  3.7088217182191889 4.712388980384703  3.687005125323052 4.7123889803846284  3.6651884708637503 4.7123889803848105  3.6433719426801177 4.712388980384528  3.6215553827713003 4.7123889803848424  3.5997387377516712 4.7123889803845911  3.5779221449886718 4.7123889803847359  3.5561055344817638 4.7123889803846755  3.5124723243979825 4.7123889803846941  3.4906557331513728 4.7123889803846923  3.4688390909642575 4.7123889803846764  3.4470225864999553 4.7123889803847119  3.4252060195339324 4.7123889803846639  3.40338936032424 4.7123889803847163  3.3815727919080039 4.7123889803846799  3.3597561801406077 4.7123889803846826  3.3161229796053693 4.7123889803847021  3.2943063863184059 4.7123889803846346  3.2724897713094148 4.7123889803847989  3.2506732619782426 4.7123889803845493  3.2288566787261685 4.712388980384814  3.2070400200995945 4.7123889803846213  3.185223454725016 4.7123889803847092  3.1634068384814795 4.7123889803846941  3.1197736319254763 4.7123889803846559  3.0979570262395173 4.7123889803848842  3.0761404399599046 4.7123889803842323  3.0543238952898735 4.7123889803853611  3.0325072865710792 4.7123889803840102  3.0106906399991038 4.712388980385164  2.9888740594989107 4.712388980384481  2.9670574432990175 4.7123889803847261  2.9234242408594593 4.7123889803846772  2.9016076352510876 4.7123889803846906  2.8797910863858602 4.7123889803846826  2.8579745140254502 4.7123889803847572  2.8361578995930126 4.7123889803845405  2.8143412855889602 4.7123889803848549  2.7925246941279682 4.7123889803845902  2.7707080873768786 4.7123889803847163  2.7270748978828929 4.7123889803846666  2.7052583047590884 4.7123889803847723  2.6834417582004915 4.7123889803845032  2.661625180152511 4.712388980384989  2.6398085609511228 4.7123889803843353  2.6179919479852063 4.7123889803849828  2.5961753591102164 4.7123889803845369  2.5743587482787178 4.7123889803847243  2.530725553453419 4.7123889803846675  2.508908965189689 4.7123889803847501  2.4870924007683479 4.7123889803845671  2.465275804537614 4.7123889803848886  2.4434591776405146 4.7123889803844348  2.421642560419897 4.7123889803849206  2.3998259652025067 4.7123889803845609  2.3780093546013608 4.7123889803847199  2.3343761662984712 4.7123889803846719  2.31255959256998 4.7123889803847341  2.2907430167361551 4.7123889803845893  2.2689264172213015 4.7123889803848718  2.2471098030187262 4.7123889803844401  2.2252931957066542 4.7123889803849206  2.2034766001102692 4.7123889803845609  2.1816599998709463 4.7123889803847199  2.1380268284638424 4.7123889803846719  2.1162102657471702 4.7123889803847341  2.0943936816984192 4.7123889803845893  2.072577077694433 4.7123889803848718  2.050760468689274 4.7123889803844401  2.0289438643952034 4.7123889803849206  2.0071272637290125 4.7123889803845609  1.9853106625630299 4.7123889803847199  1.9416774869268436 4.7123889803846719  1.9198609147739707 4.7123889803847341  1.8980443175374826 4.7123889803845893  1.8762277011922559 4.7123889803848718  1.8544110837011314 4.7123889803844401  1.8325944751873324 4.7123889803849206  1.8107778730106574 4.7123889803845609  1.7889612717522572 4.7123889803847199  1.7453281044549385 4.7123889803846719  1.7235115261110681 4.7123889803847341  1.701694928368702 4.7123889803845893  1.6798783177911367 4.7123889803848718  1.6580617081630606 4.7123889803844401  1.6362451070112696 4.7123889803849206  1.6144285126927813 4.7123889803845609  1.5926119220482537 4.7123889803847199  1.5489787751973807 4.7123889803846719  1.5271621845540699 4.7123889803847341  1.5053455902356234 4.7123889803845893  1.4835289890837069 4.7123889803848718  1.4617123794555369 4.7123889803844401  1.4398957688784453 4.7123889803849206  1.4180791711356102 4.7123889803845609  1.3962625927901733 4.7123889803847199  1.3526294254929987 4.7123889803846719  1.3308128242346395 4.7123889803847341  1.3089962220579368 4.7123889803845893  1.2871796135445441 4.7123889803848718  1.2653629960542552 4.7123889803844401  1.2435463797102242 4.7123889803849206  1.2217297824744131 4.7123889803845609  1.1999132103214072 4.7123889803847199  1.1562800346848976 4.7123889803846719  1.1344634335171908 4.7123889803847341  1.1126468328486938 4.7123889803845893  1.0908302285500884 4.7123889803848718  1.0690136195414746 4.7123889803844401  1.0471970155344317 4.7123889803849206  1.0253804314880286 4.7123889803845609  1.0035638687791417 4.7123889803847199  0.95993069739493875 4.7123889803846719  0.93811409717224692 4.7123889803847341  0.91629750157687162 4.7123889803845893  0.89448089427391697 4.7123889803848718  0.8726642800733394 4.7123889803844401  0.85084768052123427 4.7123889803849206  0.82903110461837415 4.7123889803845609  0.8072145308461377 4.7123889803847199  0.76358134250018039 4.7123889803846719  0.74176473191432002 4.7123889803847341  0.71994813670057112 4.7123889803845893  0.69813151962604436 4.7123889803848718  0.67631489299416214 4.7123889803844401  0.65449829698591644 4.7123889803849206  0.63268173264172167 4.7123889803845609  0.61086514434594763 4.7123889803847199  0.56723194898938734 4.7123889803846719  0.54541533767016881 4.7123889803847341  0.52359874787433258 4.7123889803845893  0.50178213425289153 4.7123889803848718  0.47996551474297228 4.7123889803844401  0.4581489366714569 4.7123889803849206  0.43633239099686899 4.7123889803845609  0.41451580053836057 4.7123889803847199  0.37088261551399626 4.7123889803846719  0.34906603095228184 4.7123889803847341  0.3272493400053873 4.7123889803845893  0.30543295400962833 4.7123889803848718  0.2836160337871525 4.7123889803844401  0.26179968546932131 4.7123889803849206  0.23998304337849308 4.7123889803845609  0.21816641450937685 4.7123889803847199  0.17453312126451112 4.712388980384671  0.1527164587291352 4.712388980384735  0.13089978910711844 4.7123889803845929  0.10908312029759891 4.7123889803848709  0.087266459272395444 4.7123889803844357  0.065449812076233377 4.7123889803849313  0.043633183826490722 4.7123889803845485  0.021816578713420489 4.7123889803847288  0 4.7123889803846897 
 0 10 0.03125 8 0.0625 8 0.09375 8 0.125 8 0.15625 8 0.1875 8 0.21875 8 0.25 8 0.28125 8 0.3125 8 0.34375 8 0.375 8 0.40625 8 0.4375 8 0.46875 8 0.5 8 0.53125 8 0.5625 8 0.59375 8 0.625 8 0.65625 8 0.6875 8 0.71875 8 0.75 8 0.78125 8 0.8125 8 0.84375 8 0.875 8 0.90625 8 0.9375 8 0.96875 8 1 10
7 0 0  4 101 34  150.00053071795867 249.9999999985917  154.71291186438745 249.99997451790057  159.42531546060678 249.70386207304867  164.10973000166084 249.11166456600208  173.36754440674878 247.34559262475878  177.94099277085695 246.17170856325149  182.43146668078469 244.71222996002166  191.19437153949693 241.24269991913187  195.46684794084393 239.23263048526709  199.60430455523698 236.95757301499492  207.56186998129235 231.90749452476041  211.3820200682791 229.13244731040132  215.01988817074761 226.12240588243617  221.89021391655425 219.67068018972492  225.12270719578177 216.22896246033807  228.132113712228 212.59056911329657  233.67181547302894 204.9657514322715  236.20213945142072 200.97928754890421  238.47647483524767 196.84143396390277  242.48930624493127 188.31363680725426  244.22782308505836 183.9236490025317  245.68651800714503 179.43292045881938  248.03032275189332 170.30424478345591  248.91544473170353 165.66625030201325  249.50682428425057 160.98173282911972  250.09857205234459 151.57556597718389  250.09894333724478 146.85386780902738  249.80205764006223 142.14151249434298  248.62078550711385 132.79107205469413  247.73639294417427 128.15293842966457  246.56175930337966 123.5796825283451  243.6493143531292 114.61621195723008  241.91148793702899 110.22595079455159  239.90071826486508 105.95380390398947  235.36027513787357 97.694838080229559  232.83057813209055 93.707976308364181  230.05490482667017 89.888281107094855  224.04731071339643 82.626397519647128  220.81535874457998 79.184171466595913  217.37311125092026 75.952242333491341  210.11118780940714 69.94469639549753  206.29147419447594 67.169048429897344  202.30459564075394 64.639377872908568  194.04559969599254 60.098989535782941  189.77343946612976 58.088248204975685  185.38316677485219 56.350450913793154  176.41967688284862 53.438065427039234  171.84641318914223 52.263462125132968  167.20827369717512 51.379100331471427  157.85782542120393 50.197890229130159  153.14546813709032 49.901035793597764  148.42376997150112 49.90143840212221  139.01760704541203 50.493248570471927  134.33309349581671 51.084659199974332  129.6951048863535 51.96981194810094  120.56644475993038 54.313677252197429  116.07572589326219 55.772401965629186  111.68574962191096 57.510947928784653  103.15797908647025 61.523835911567083  99.020140589442846 63.798198745757787  95.033693492266337 66.328549170193298  87.408912561647981 71.868301513717  83.770539179011834 74.877732167104838  80.328842893977551 78.110248278528459  73.877162778972306 84.980616824766898  70.867145484596691 88.618504895693022  68.092123613075756 92.43867339218788  63.042097913236596 100.39627232015992  60.767067890795168 104.53374402713493  58.757026800473 108.80623376313743  55.287554892545074 117.56916163843115  53.828106079036004 122.0596452304038  52.654252357693345 126.63310138192863  50.888241806678415 135.89092763873461  50.296075816835398 140.5753457636996  49.999993747725476 145.28775163940512  50.000006252450575 154.71251371955032  50.296100826350461 159.42491880955879  50.888279246714383 164.10933536314187  52.654314364194221 173.36715693364852  53.828180221608008 177.94060997023035  55.287640951012499 182.43108968940982  58.757136112141914 191.19400835811786  60.767188539891414 195.4664927602818  63.04222954147621 199.6039584302458  68.092276357498903 207.56154395749428  70.867308366169851 211.38170509020745  73.87733531399607 215.0195851737696  80.329033660117076 221.88993659987318  83.770738522909866 225.12244357843576  87.409119891327492 228.13186457706385  95.033915522147339 233.67159668752856  99.020369333822273 236.20193653356142  103.15821386605953 238.47628838761861  111.68599505002786 242.48915374118411  116.0759759347519 244.22768805513851  120.56669867225996 245.68640085204024  131.216798109 248.42087921104792  137.43357073628337 249.47361868539178  143.71683652517606 249.99999937168363  150.00000000000003 250 
 0 5 0.030000001374242687 3 0.06000000362888934 3 0.090000005883527509 3 0.12000000813815268 3 0.15000001039276314 3 0.18000001264736287 3 0.21000001490195638 3 0.24000001715654365 3 0.27000001941112695 3 0.30000002166571704 3 0.33000002392032074 3 0.36000002617493743 3 0.39000002842956571 3 0.42000003068420472 3 0.45000003293885249 3 0.48000003519350765 3 0.51000003744816591 3 0.54000003970281996 3 0.57000004195746778 3 0.6000000442121054 3 0.63000004646673025 3 0.66000004872134266 3 0.69000005097594375 3 0.72000005323053595 3 0.7500000554851235 3 0.78000005773971159 3 0.8100000599943068 3 0.84000006224891077 3 0.87000006450352252 3 0.90000006675814515 3 0.93000006901277887 3 0.96000007126741804 3 1 5
8 -165.00000130000001 155.00000130000001
1 155 0 1 0 
8 -165.00000130000001 155.00000130000001
1 155 10 -1 0 
8 73.15324978927066 176.84675021072934
1 150 75 0 -1 
8 73.15324978927066 176.84675021072934
1 150 75 0 1 
8 73.153647826683425 176.84714824814213
1 150 75.000398037412765 0 -1 
8 73.153647826683425 176.84714824814213
1 149.99960195941856 74.999601963643471 5.3071795866867667e-06 0.99999999998591693 
Curves 6
3 0 0 300 1 0 0 -0 0 1 0 -1 0 150 100
3 0 0 300 0.99999999998591693 -5.3071795866867667e-06 0 0 0 1 -5.3071795866867667e-06 -0.99999999998591693 0 150 100
7 0 0  4 101 34  0.00053071795866799221 99.999999998591704 300  4.7129118643874506 99.999974517900569 300  9.4253154606067824 99.703862073048668 300  14.109730001660836 99.111664566002077 300  23.367544406748777 97.34559262475878 300  27.940992770856951 96.171708563251485 300  32.431466680784695 94.712229960021659 300  41.194371539496927 91.242699919131866 300  45.466847940843934 89.232630485267094 300  49.604304555236979 86.957573014994921 300  57.561869981292347 81.907494524760409 300  61.382020068279104 79.132447310401318 300  65.019888170747606 76.122405882436169 300  71.890213916554245 69.670680189724919 300  75.122707195781771 66.228962460338067 300  78.132113712228005 62.590569113296567 300  83.671815473028943 54.965751432271503 300  86.20213945142072 50.97928754890421 300  88.476474835247672 46.841433963902773 300  92.489306244931271 38.313636807254255 300  94.227823085058361 33.923649002531704 300  95.686518007145025 29.432920458819382 300  98.030322751893323 20.304244783455914 300  98.915444731703531 15.666250302013253 300  99.50682428425057 10.981732829119721 300  100.09857205234459 1.575565977183885 300  100.09894333724478 -3.1461321909726223 300  99.80205764006223 -7.858487505657024 300  98.620785507113851 -17.208927945305874 300  97.73639294417427 -21.847061570335427 300  96.56175930337966 -26.420317471654897 300  93.649314353129199 -35.383788042769922 300  91.911487937028994 -39.774049205448406 300  89.900718264865077 -44.046196096010533 300  85.360275137873572 -52.305161919770441 300  82.830578132090551 -56.292023691635819 300  80.054904826670167 -60.111718892905145 300  74.047310713396428 -67.373602480352872 300  70.815358744579981 -70.815828533404087 300  67.37311125092026 -74.047757666508659 300  60.111187809407141 -80.05530360450247 300  56.291474194475938 -82.830951570102656 300  52.304595640753945 -85.360622127091432 300  44.045599695992536 -89.901010464217052 300  39.773439466129759 -91.911751795024315 300  35.383166774852185 -93.649549086206846 300  26.41967688284862 -96.561934572960766 300  21.846413189142226 -97.736537874867025 300  17.208273697175116 -98.62089966852858 300  7.8578254212039269 -99.802109770869833 300  3.1454681370903188 -100.09896420640223 300  -1.5762300284988839 -100.09856159787779 300  -10.982392954587965 -99.506751429528066 300  -15.666906504183288 -98.91534080002566 300  -20.304895113646495 -98.03018805189906 300  -29.433555240069623 -95.686322747802564 300  -33.924274106737812 -94.227598034370814 300  -38.314250378089042 -92.489052071215355 300  -46.842020913529751 -88.47616408843291 300  -50.979859410557154 -86.201801254242213 300  -54.966306507733663 -83.671450829806702 300  -62.591087438352019 -78.131698486283 300  -66.229460820988166 -75.122267832895162 300  -69.671157106022449 -71.889751721471541 300  -76.122837221027694 -65.019383175233102 300  -79.132854515403309 -61.381495104306978 300  -81.907876386924244 -57.56132660781212 300  -86.957902086763397 -49.603727679840077 300  -89.232932109204825 -45.466255972865071 300  -91.242973199527 -41.193766236862572 300  -94.712445107454926 -32.430838361568846 300  -96.171893920963996 -27.940354769596198 300  -97.345747642306662 -23.366898618071374 300  -99.111758193321577 -14.10907236126539 300  -99.703924183164602 -9.4246542363003982 300  -100.00000625227452 -4.7122483605948844 300  -99.999993747549425 4.7125137195503157 300  -99.703899173649546 9.4249188095587897 300  -99.111720753285624 14.109335363141867 300  -97.345685635805779 23.367156933648516 300  -96.171819778391992 27.940609970230355 300  -94.712359048987508 32.431089689409816 300  -91.242863887858078 41.194008358117856 300  -89.232811460108593 45.466492760281795 300  -86.957770458523783 49.603958430245797 300  -81.907723642501097 57.56154395749428 300  -79.132691633830149 61.381705090207447 300  -76.12266468600393 65.019585173769599 300  -69.670966339882924 71.889936599873181 300  -66.229261477090134 75.122443578435764 300  -62.590880108672508 78.131864577063851 300  -54.966084477852661 83.671596687528563 300  -50.979630666177727 86.201936533561422 300  -46.841786133940474 88.476288387618609 300  -38.314004949972144 92.489153741184111 300  -33.924024065248105 94.227688055138515 300  -29.43330132774004 95.686400852040236 300  -18.783201891000004 98.420879211047918 300  -12.566429263716628 99.473618685391784 300  -6.2831634748239367 99.999999371683629 300  2.8421709430404007e-14 100 300 
 0 5 0.030000001374242687 3 0.06000000362888934 3 0.090000005883527509 3 0.12000000813815268 3 0.15000001039276314 3 0.18000001264736287 3 0.21000001490195638 3 0.24000001715654365 3 0.27000001941112695 3 0.30000002166571704 3 0.33000002392032074 3 0.36000002617493743 3 0.39000002842956571 3 0.42000003068420472 3 0.45000003293885249 3 0.48000003519350765 3 0.51000003744816591 3 0.54000003970281996 3 0.57000004195746778 3 0.6000000442121054 3 0.63000004646673025 3 0.66000004872134266 3 0.69000005097594375 3 0.72000005323053595 3 0.7500000554851235 3 0.78000005773971159 3 0.8100000599943068 3 0.84000006224891077 3 0.87000006450352252 3 0.90000006675814515 3 0.93000006901277887 3 0.96000007126741804 3 1 5
1 0 0 295 0 0 -1 
1 0 -75 300 0 1 -0 
1 -0.00039804058145610777 -75.000398036356529 300 5.3071795866867667e-06 0.99999999998591693 -0 
Polygon3D 0
PolygonOnTriangulations 0
Surfaces 5
7 0 0 0 0 0 1 
8 3.1415926535897931 6.2831853071795862
3 0 0 300 1 0 0 -0 0 1 0 -1 0 150 100
1 0 0 450 -0.99999999998591693 5.3071795866867667e-06 0 0 0 -1 -5.3071795866867667e-06 -0.99999999998591693 0 
1 -150 -150 300 0 0 1 1 0 -0 -0 1 0 
1 0 0 450 -1 0 -0 0 0 -1 0 -1 -0 
1 -10 0 140 -0 1 0 0 0 1 1 0 -0 
Triangulations 0

TShapes 21
Ve
2.29224131992056e-06
0 100 300
0 0

0101101
*
Ve
1e-07
0 0 450
0 0

0101101
*
Ed
 1e-07 1 1 0
1  1 0 4.71238898038469 6.28318530717959
2  1 1 0 4.71238898038469 6.28318530717959
0

0101000
+21 0 -20 0 *
Ed
 1e-07 0 0 1
2  2 1 0 0 6.28318
0

0101100
-20 0 +20 0 *
Ve
2.29224131992056e-06
0.000530717958668677 99.9999999985917 300
0 0

0101101
*
Ed
 1e-07 1 1 0
1  2 0 4.71238898038469 6.28318530717959
2  3 1 0 4.71238898038469 6.28318530717959
2  4 2 0 4.71238898038469 6.28318530717959
0

0101000
+17 0 -20 0 *
Ed
 1.38067852166895e-07 1 1 0
1  3 0 0 1
2  5 1 0 0 1
2  6 3 0 0 1
0

0101000
+17 0 -21 0 *
Wi

0101000
-19 0 -18 0 +16 0 -15 0 *
Fa
0  1e-07 1 0

0111000
+14 0 *
Ve
2.00001e-07
0 0 300
0 0

0101101
*
Ed
 1e-07 1 1 0
1  4 0 -155 -5.00000000000003
2  7 4 0 -155 -5.00000000000003
2  8 5 0 -155 -5.00000000000003
2  7 2 0 -155 -5.00000000000003
0

0101000
+20 0 -12 0 *
Ed
 1e-07 1 1 0
1  5 0 75 175
2  9 4 0 75 175
2  10 3 0 75 175
0

0101000
+12 0 -21 0 *
Wi

0101000
-19 0 -11 0 -10 0 *
Fa
0  1e-07 4 0

0111000
+9 0 *
Ed
 1e-07 1 1 0
1  6 0 75.0003980374128 175.000398037413
2  11 2 0 75.0003980374128 175.000398037413
2  12 3 0 75.0003980374128 175.000398037413
0

0101000
+12 0 -17 0 *
Wi

0101000
-16 0 -11 0 -7 0 *
Fa
0  1e-07 2 0

0111000
+6 0 *
Wi

0101000
-15 0 +10 0 -7 0 *
Fa
0  1e-07 3 0

0111000
+4 0 *
Sh

0101000
+13 0 -8 0 +5 0 -3 0 *
So

0100000
+2 0 *

+1 0 