DBRep_DrawableShape

CASCADE Topology V1, (c) Matra-Datavision
Locations 2
1
              1               0               0               4 
              0               1               0               4 
              0               0               1              -5 
2  1 -1 0
Curve2ds 15
1 0 0 1 0 
1 0 0 1 0 
1 0 0 0 -1 
1 0 0 0 1 
1 0 -10 1 0 
1 0 0 1 0 
1 10 0 0 -1 
1 0 0 0 1 
8 2 8
1 4 2 0 1 
8 2 8
1 5 2 0 -1 
1 0 10 1 0 
8 -8 -2
1 2 4 -1 0 
8 -8 -2
1 5 -2 0 -1 
1 10 0 0 1 
1 0 0 1 0 
Curves 10
1 -5 0 0 0 0 1 
1 -5 0 0 -0 1 0 
1 -5 10 0 0 0 1 
1 -5 0 10 -0 1 0 
1 -1 2 0 -0 1 0 
1 -5 10 0 1 0 -0 
1 -3 4 0 -1 -0 0 
1 5 0 0 -0 1 0 
1 -5 0 0 1 0 -0 
1 -5 0 0 -0 1 0 
Polygon3D 0
PolygonOnTriangulations 0
Surfaces 6
1 -5 0 0 1 0 -0 0 0 1 0 -1 0 
1 -5 0 0 -0 1 0 0 0 1 1 0 -0 
1 -5 0 0 0 0 1 1 0 -0 -0 1 0 
1 -5 10 0 -0 1 0 0 0 1 1 0 -0 
1 -5 0 10 0 0 1 1 0 -0 -0 1 0 
1 -5 0 0 0 0 1 1 0 -0 -0 1 0 
Triangulations 0

TShapes 27
Ve
1e-07
-5 0 0
0 0

0101101
*
Ve
2.00001e-07
-1 4 0
0 0

0101101
*
Ed
 1e-07 1 1 0
1  1 0 0 5
2  1 1 0 0 5
2  2 2 0 0 5
0

0101000
+27 0 -26 2 *
Ve
1e-07
-5 10 0
0 0

0101101
*
Ed
 1e-07 1 1 0
1  2 0 0 10
2  3 1 0 0 10
2  4 3 0 0 10
0

0101000
-24 0 +27 0 *
Ve
1e-07
-5 0 10
0 0

0101101
*
Ed
 1e-07 1 1 0
1  1 0 5 10
2  1 1 0 5 10
2  2 2 0 5 10
0

0101000
+26 2 -22 0 *
Ve
1e-07
-5 10 10
0 0

0101101
*
Ed
 1e-07 1 1 0
1  3 0 0 10
2  5 1 0 0 10
2  6 4 0 0 10
0

0101000
-20 0 +24 0 *
Ed
 1e-07 1 1 0
1  4 0 0 10
2  7 1 0 0 10
2  8 5 0 0 10
0

0101000
-20 0 +22 0 *
Wi

0101000
-25 1 +23 1 -21 1 +19 1 -18 1 *
Ve
2.00001e-07
-1 10 0
0 0

0101101
*
Ed
 1e-07 1 1 0
1  5 0 2 8
2  9 6 0 2 8
2  10 1 1 2 8
0

0101000
+26 0 -16 0 *
Wi

0101000
i15 0 *
Fa
0  1e-07 1 1

0111000
+17 0 +14 0 *
Ve
1e-07
-5 10 0
0 0

0101101
*
Ed
 1e-07 1 1 0
1  6 0 0 4
2  11 6 0 0 4
0

0101000
+12 0 -16 0 *
Ve
2.00001e-07
5 4 0
0 0

0101101
*
Ed
 1e-07 1 1 0
1  7 0 -8 -2
2  12 6 0 -8 -2
2  13 2 1 -8 -2
0

0101000
+10 0 -26 0 *
Ve
1e-07
5 0 0
0 0

0101101
*
Ed
 1e-07 1 1 0
1  8 0 0 4
2  14 6 0 0 4
0

0101000
+8 0 -10 0 *
Ve
1e-07
-5 0 0
0 0

0101101
*
Ed
 1e-07 1 1 0
1  9 0 0 10
2  15 6 0 0 10
0

0101000
-8 0 +6 0 *
Ed
 1e-07 1 1 0
1  10 0 0 10
2  4 6 0 0 10
0

0101000
-12 0 +6 0 *
Wi

0101000
-11 0 +15 0 +9 0 +7 0 +5 0 -4 0 *
Fa
0  1e-07 6 0

0111000
+3 0 *
Sh

1101000
-13 0 -2 0 *

+1 0 
0

