DBRep_DrawableShape

CASCADE Topology V1, (c) Matra-Datavision
Locations 2
1
              1               0               0               0 
              0               1               0               0 
              0               0               1              -3 
2  1 -1 0
Curve2ds 14
1 6.2831853071795862 -0 0 1 
1 0 -0 0 1 
1 0 6 1 0 
2 0 0 1 0 -0 1 3
8 1.5707963267948999 4.7123889803846915
1 -1.5707963267948966 3 1 0 
8 1.5707963267948999 4.7123889803846915
1 -1.5707963267948966 0 1 0 
8 4.7123889803846915 7.8539816339744828
1 -1.5707963267948966 3 1 0 
8 4.7123889803846915 7.8539816339744828
1 -1.5707963267948966 0 1 0 
1 0 0 1 0 
2 0 0 1 0 -0 1 3
1 6.2831853071795862 -6.2831853071795862 0 1 
1 0 -6.2831853071795862 0 1 
1 0 -1.5707963267948966 1 0 
1 0 1.5707963267948966 1 0 
Curves 6
1 3 -7.3478807948841188e-16 0 0 0 1 
2 0 0 6 0 0 1 1 0 -0 -0 1 0 3
2 0 0 0 0 0 1 0 -1 0 1 0 -0 3
2 0 0 0 0 0 1 0 -1 0 1 0 -0 3
2 0 0 0 0 0 1 1 0 -0 -0 1 0 3
2 0 0 0 -2.4492935982947064e-16 -1 0 1 -2.4492935982947064e-16 0 0 0 1 3
Polygon3D 0
PolygonOnTriangulations 0
Surfaces 4
2 0 0 0 0 0 1 1 0 -0 -0 1 0 3
1 0 0 6 0 0 1 1 0 -0 -0 1 0 
4 0 0 0 0 0 1 1 0 -0 -0 1 0 3
1 0 0 0 0 0 1 1 0 -0 -0 1 0 
Triangulations 0

TShapes 32
Ve
1.00000000367394e-07
3 -7.34788079488412e-16 -3.67394039744206e-16
0 0

0101101
*
Ve
1.00005e-07
3 -7.34788079488412e-16 6
0 0

0101101
*
Ed
 1e-07 1 1 0
1  1 0 3 6
3  1 2CN 1 0 3 6
0

0101000
+32 2 -31 0 *
Ed
 1.00005e-07 1 1 0
1  2 0 0 6.28318530717959
2  3 1 0 0 6.28318530717959
2  4 2 0 0 6.28318530717959
0

0101100
+31 0 -31 0 *
Ve
1e-07
-3 -4.77797945858444e-15 0
0 0

0101101
*
Ed
 1e-07 1 1 0
1  3 0 1.5707963267949 4.71238898038469
2  5 1 1 1.5707963267949 4.71238898038469
2  6 3 0 1.5707963267949 4.71238898038469
0

0101000
+32 0 -28 0 *
Ed
 1e-07 1 1 0
1  4 0 4.71238898038469 7.85398163397448
2  7 1 1 4.71238898038469 7.85398163397448
2  8 3 0 4.71238898038469 7.85398163397448
0

0101000
+28 0 -32 0 *
Wi

0101100
+30 1 -29 1 -30 1 +27 0 +26 0 *
Fa
0  1e-07 1 1

0111000
+25 0 *
Wi

0101000
+29 1 *
Fa
0  1e-07 2 1

0111000
+23 0 *
Ve
1.00005e-07
3 -7.34788079488412e-16 0
0 0

0101101
*
Ed
 1e-07 1 1 0
1  1 0 0 3
3  1 2CN 1 0 0 3
0

0101000
+21 0 -32 2 *
Ed
 1.00005e-07 1 1 0
1  5 0 0 6.28318530717959
2  9 1 0 0 6.28318530717959
2  10 4 0 0 6.28318530717959
0

0101100
+21 0 -21 0 *
Wi

0101100
-27 0 -20 1 +19 1 +20 1 -26 0 *
Fa
0  1e-07 1 1

0111000
+18 0 *
Wi

0101000
+19 1 *
Fa
0  1e-07 4 1

0111000
+16 0 *
Sh

0101000
+24 0 +22 0 +17 0 -15 0 *
Ve
1e-07
1.83697019872103e-16 -4.49927934798557e-32 -3
0 0

0101101
*
Ed
 1e-07 1 1 0
1  6 0 4.71238898038469 6.28318530717959
3  11 12CN 3 0 4.71238898038469 6.28318530717959
0

0101000
+13 0 -32 0 *
Ed
 1e-07 1 1 1
2  13 3 0 0 6.28318530717959
0

0101100
+13 0 -13 0 *
Wi

0101100
-27 0 -12 0 +11 0 +12 0 -26 0 *
Fa
0  1e-07 3 0

0111000
+10 0 *
Sh

0101000
-9 0 *
Ve
1e-07
1.83697019872103e-16 -4.49927934798557e-32 3
0 0

0101101
*
Ed
 1e-07 1 1 0
1  6 0 6.28318530717959 7.85398163397448
3  11 12CN 3 0 6.28318530717959 7.85398163397448
0

0101000
+32 0 -7 0 *
Ed
 1e-07 1 1 1
2  14 3 0 0 6.28318530717959
0

0101100
-7 0 +7 0 *
Wi

0101100
+6 0 -5 0 -6 0 +27 0 +26 0 *
Fa
0  1e-07 3 0

0111000
+4 0 *
Sh

0101000
-3 0 *
Co

1100000
+14 0 +8 0 +2 0 *

+1 0 
0

