DBRep_DrawableShape

CASCADE Topology V1, (c) Matra-Datavision
Locations 0
Curve2ds 24
1 0 0 1 0 
1 0 0 1 0 
1 10 0 0 -1 
1 0 0 0 1 
1 0 -10 1 0 
1 0 0 1 0 
1 0 0 0 -1 
1 0 0 0 1 
1 0 0 1 0 
1 0 1 1 0 
1 10 0 0 -1 
1 1 0 0 1 
1 0 -10 1 0 
1 0 1 1 0 
1 0 0 0 -1 
1 1 0 0 1 
1 0 0 0 1 
1 0 0 1 0 
1 10 0 0 1 
1 0 0 1 0 
1 0 0 0 1 
1 0 10 1 0 
1 10 0 0 1 
1 0 10 1 0 
Curves 12
1 0 -5 -5 0 0 1 
1 0 -5 5 -0 1 0 
1 0 5 -5 0 0 1 
1 0 -5 -5 -0 1 0 
1 1 -5 -5 0 0 1 
1 1 -5 5 0 1 0 
1 1 5 -5 0 0 1 
1 1 -5 -5 -0 1 0 
1 0 -5 -5 1 0 -0 
1 0 -5 5 1 0 -0 
1 0 5 -5 1 0 -0 
1 0 5 5 1 0 -0 
Polygon3D 0
PolygonOnTriangulations 28
2 1 4 
p 0.0400545194779375 1 0 10 
2 9 10 
p 0.0400545194779375 1 0 10 
2 1 2 
p 0.0400000008 1 0 10 
2 1 2 
p 0.0400545194779375 1 0 10 
2 10 11 
p 0.0400545194779375 1 0 10 
2 2 3 
p 0.0400000008 1 0 10 
2 1 4 
p 0.0400545194779375 1 0 10 
2 12 11 
p 0.0400545194779375 1 0 10 
2 4 3 
p 0.0400000008 1 0 10 
2 1 2 
p 0.0400545194779375 1 0 10 
2 9 12 
p 0.0400545194779375 1 0 10 
2 1 4 
p 0.0400000008 1 0 10 
2 1 2 
p 0.0400545194779375 1 0 10 
2 2 3 
p 0.0400545194779375 1 0 10 
2 2 3 
p 0.0400545194779375 1 0 10 
2 4 3 
p 0.0400545194779375 1 0 10 
2 4 3 
p 0.0400545194779375 1 0 10 
2 2 3 
p 0.0400545194779375 1 0 10 
2 1 4 
p 0.0400545194779375 1 0 10 
2 4 3 
p 0.0400545194779375 1 0 10 
2 1 2 
p 0.0400545194779375 1 0 1 
2 1 4 
p 0.0400545194779375 1 0 1 
2 4 3 
p 0.0400545194779375 1 0 1 
2 1 4 
p 0.0400545194779375 1 0 1 
2 1 2 
p 0.0400545194779375 1 0 1 
2 2 3 
p 0.0400545194779375 1 0 1 
2 2 3 
p 0.0400545194779375 1 0 1 
2 4 3 
p 0.0400545194779375 1 0 1 
Surfaces 6
1 0 -5 -5 1 0 -0 0 0 1 0 -1 0 
1 0 -5 -5 -0 1 0 0 0 1 1 0 -0 
1 0 -5 5 0 0 1 1 0 -0 -0 1 0 
1 0 5 -5 -0 1 0 0 0 1 1 0 -0 
1 0 -5 -5 0 0 1 1 0 -0 -0 1 0 
1 1 -5 -5 1 0 -0 0 0 1 0 -1 0 
Triangulations 7
4 2 1 0
0 -5 -5 0 -5 5 0 5 5 0 5 -5 0 0 10 0 10 -10 0 -10 1 4 3 3 2 1 
4 2 1 0
0 -5 -5 1 -5 -5 1 -5 5 0 -5 5 0 0 0 1 10 1 10 0 2 1 4 4 3 2 
13 16 1 3.55135842608488e-17
1.22460635382238e-17 0.2 0 1.22460635382238e-17 0.2 3 1.10214571844014e-17 0.18 3 1.10214571844014e-17 0.18 0 -3.30643715532042e-17 -0.18 0 -3.67381906146713e-17 -0.2 0 -3.30643715532042e-17 -0.18 3 -3.67381906146713e-17 -0.2 3 0 -5 -5 0 -5 5 0 5 5 0 5 -5 0 0 0 5 -5.2 8 -5.2 8 -5.18 5 -5.18 5 -4.82 5 -4.8 8 -4.82 8 -4.8 0 0 10 0 10 -10 0 -10 5 -5 12 1 4 1 12 11 12 4 13 9 13 5 13 9 12 5 13 7 9 5 6 4 3 13 2 11 3 3 11 10 7 13 3 8 10 6 10 8 7 7 3 10 6 10 9 2 1 11 
4 2 1 0
0 -5 5 0 5 5 1 5 5 1 -5 5 0 0 0 10 1 10 1 0 2 1 4 4 3 2 
4 2 1 0
0 5 -5 1 5 -5 1 5 5 0 5 5 0 0 0 1 10 1 10 0 2 1 4 4 3 2 
4 2 1 0
0 -5 -5 0 5 -5 1 5 -5 1 -5 -5 0 0 0 10 1 10 1 0 2 1 4 4 3 2 
4 2 1 0
1 -5 -5 1 -5 5 1 5 5 1 5 -5 0 0 10 0 10 -10 0 -10 1 4 3 3 2 1 

TShapes 34
Ve
1e-07
0 -5 5
0 0

0101101
*
Ve
1e-07
0 -5 -5
0 0

0101101
*
Ed
 1e-07 1 1 0
1  1 0 0 10
2  1 1 0 0 10
2  2 2 0 0 10
6  1 2 0
6  2 3 0
6  3 1 0
0

0101000
-34 0 +33 0 *
Ve
1e-07
0 5 5
0 0

0101101
*
Ed
 1e-07 1 1 0
1  2 0 0 10
2  3 1 0 0 10
2  4 3 0 0 10
6  4 4 0
6  5 3 0
6  6 1 0
0

0101000
-31 0 +34 0 *
Ve
1e-07
0 5 -5
0 0

0101101
*
Ed
 1e-07 1 1 0
1  3 0 0 10
2  5 1 0 0 10
2  6 4 0 0 10
6  7 5 0
6  8 3 0
6  9 1 0
0

0101000
-31 0 +29 0 *
Ed
 1e-07 1 1 0
1  4 0 0 10
2  7 1 0 0 10
2  8 5 0 0 10
6  10 6 0
6  11 3 0
6  12 1 0
0

0101000
-29 0 +33 0 *
Wi

0101000
-32 0 -30 0 +28 0 +27 0 *
Fa
0  1e-07 1 0
2  1
0101000
+26 0 *
Ve
1e-07
1 -5 5
0 0

0101101
*
Ve
1e-07
1 -5 -5
0 0

0101101
*
Ed
 1e-07 1 1 0
1  5 0 0 10
2  9 6 0 0 10
2  10 2 0 0 10
6  13 7 0
6  14 2 0
0

0101000
-24 0 +23 0 *
Ve
1e-07
1 5 5
0 0

0101101
*
Ed
 1e-07 1 1 0
1  6 0 0 10
2  11 6 0 0 10
2  12 3 0 0 10
6  15 7 0
6  16 4 0
0

0101000
-21 0 +24 0 *
Ve
1e-07
1 5 -5
0 0

0101101
*
Ed
 1e-07 1 1 0
1  7 0 0 10
2  13 6 0 0 10
2  14 4 0 0 10
6  17 7 0
6  18 5 0
0

0101000
-21 0 +19 0 *
Ed
 1e-07 1 1 0
1  8 0 0 10
2  15 6 0 0 10
2  16 5 0 0 10
6  19 7 0
6  20 6 0
0

0101000
-19 0 +23 0 *
Wi

0101000
-22 0 -20 0 +18 0 +17 0 *
Fa
0  1e-07 6 0
2  7
0111000
+16 0 *
Ed
 1e-07 1 1 0
1  9 0 0 1
2  17 2 0 0 1
2  18 5 0 0 1
6  21 2 0
6  22 6 0
0

0101000
-23 0 +33 0 *
Ed
 1e-07 1 1 0
1  10 0 0 1
2  19 2 0 0 1
2  20 3 0 0 1
6  23 2 0
6  24 4 0
0

0101000
-24 0 +34 0 *
Wi

0101000
-14 0 -22 0 +13 0 +32 0 *
Fa
0  1e-07 2 0
2  2
0111000
+12 0 *
Ed
 1e-07 1 1 0
1  11 0 0 1
2  21 4 0 0 1
2  22 5 0 0 1
6  25 5 0
6  26 6 0
0

0101000
-19 0 +29 0 *
Ed
 1e-07 1 1 0
1  12 0 0 1
2  23 4 0 0 1
2  24 3 0 0 1
6  27 4 0
6  28 5 0
0

0101000
-21 0 +31 0 *
Wi

0101000
-10 0 -18 0 +9 0 +28 0 *
Fa
0  1e-07 4 0
2  5
0111000
+8 0 *
Wi

0101000
-27 0 -10 0 +17 0 +14 0 *
Fa
0  1e-07 5 0
2  6
0111000
+6 0 *
Wi

0101000
-30 0 -9 0 +20 0 +13 0 *
Fa
0  1e-07 3 0
2  4
0111000
+4 0 *
Sh

0101100
-25 0 +15 0 -11 0 +7 0 -5 0 +3 0 *
So

1100000
+2 0 *

+1 0 