DBRep_DrawableShape

CASCADE Topology V1, (c) Matra-Datavision
Locations 5
1
              1               0               0               0 
              0               1               0               0 
              0               0               1              -3 
2  1 -1 0
1
              1               0               0               0 
              0 1.11022302462516e-16              -1               0 
              0               1 1.11022302462516e-16               0 
2  1 1 3 -1 0
2  3 -1 0
Curve2ds 14
1 6.2831853071795862 -0 0 1 
1 0 -0 0 1 
1 0 6 1 0 
2 0 0 1 0 -0 1 3
1 6.2831853071795862 -6.2831853071795862 0 1 
1 0 -6.2831853071795862 0 1 
1 6.2831853071795862 3 -1 0 
1 -1.5707963267948966 3 1 0 
1 3.1415926535897931 -4.7123889803846897 -0 1 
1 12.566370614359172 3 -1 0 
1 0 0 1 0 
2 0 0 1 0 -0 1 3
1 0 1.5707963267948966 1 0 
1 0 -1.5707963267948966 1 0 
Curves 5
1 3 -7.3478807948841188e-16 0 0 0 1 
2 0 0 6 0 0 1 1 0 -0 -0 1 0 3
2 0 0 0 -2.4492935982947064e-16 -1 0 1 -2.4492935982947064e-16 0 0 0 1 3
2 0 0 0 0 0 1 0 -1 0 1 0 -0 3
2 0 0 0 0 0 1 1 0 -0 -0 1 0 3
Polygon3D 0
PolygonOnTriangulations 0
Surfaces 4
2 0 0 0 0 0 1 1 0 -0 -0 1 0 3
1 0 0 6 0 0 1 1 0 -0 -0 1 0 
4 0 0 0 0 0 1 1 0 -0 -0 1 0 3
1 0 0 0 0 0 1 1 0 -0 -0 1 0 
Triangulations 0

TShapes 32
Ve
1.35355338947234e-07
3 2.4999999403974e-08 -2.50000004375019e-08
0 0

0101101
*
Ve
1.00005e-07
3 -7.34788079488412e-16 6
0 0

0101101
*
Ed
 1e-07 1 1 0
1  1 0 2.99999995 6
3  1 2CN 1 0 2.99999995 6
0

0101000
+32 2 -31 0 *
Ed
 1.00005e-07 1 1 0
1  2 0 0 6.28318530717959
2  3 1 0 0 6.28318530717959
2  4 2 0 0 6.28318530717959
0

0101100
+31 0 -31 0 *
Ve
1e-07
1.83697019872103e-16 -4.49927934798557e-32 -3
0 0

0101101
*
Ed
 1e-07 1 1 0
1  3 0 4.71238898038469 6.28318529051292
3  5 6CN 3 0 4.71238898038469 6.28318529051292
2  7 1 4 4.71238898038469 6.28318529051292
0

0101000
+28 0 -32 5 *
Ve
1e-07
1.83697019872103e-16 -4.49927934798557e-32 3
0 0

0101101
*
Ed
 1e-07 1 1 0
1  4 0 3.14159265358979 6.28318530717959
2  8 1 1 3.14159265358979 6.28318530717959
2  9 3 3 3.14159265358979 6.28318530717959
0

0101000
+28 3 -26 3 *
Ed
 1e-07 1 1 0
1  3 0 6.28318529051292 7.85398163397448
3  5 6CN 3 0 6.28318529051292 7.85398163397448
2  10 1 4 6.28318529051292 7.85398163397448
0

0101000
+32 5 -26 0 *
Wi

0101100
+30 1 -29 1 -30 1 -27 3 +25 0 -24 3 *
Fa
0  1e-07 1 1

0111000
+23 0 *
Wi

0101000
+29 1 *
Fa
0  1e-07 2 1

0111000
+21 0 *
Ve
1.00005e-07
3 -7.34788079488412e-16 0
0 0

0101101
*
Ed
 1e-07 1 1 0
1  1 0 0 2.99999995
3  1 2CN 1 0 0 2.99999995
0

0101000
+19 0 -32 2 *
Ed
 1.00005e-07 1 1 0
1  5 0 0 6.28318530717959
2  11 1 0 0 6.28318530717959
2  12 4 0 0 6.28318530717959
0

0101100
+19 0 -19 0 *
Wi

0101100
+27 3 -18 1 +17 1 +18 1 +24 3 -25 0 *
Fa
0  1e-07 1 1

0111000
+16 0 *
Wi

0101000
+17 1 *
Fa
0  1e-07 4 1

0111000
+14 0 *
Sh

0101000
+22 0 +20 0 +15 0 -13 0 *
Ed
 1e-07 1 1 1
2  13 3 0 3.14159265358979 6.28318530717959
0

0101100
-26 0 +26 0 *
Ed
 1e-07 1 1 1
2  14 3 0 3.14159265358979 6.28318530717959
0

0101100
+28 0 -28 0 *
Wi

0101100
+24 3 -11 3 -25 0 +10 3 +27 3 *
Fa
0  1e-07 3 3

0111000
+9 0 *
Sh

0101000
-8 0 *
Ed
 1e-07 1 1 1
2  13 3 0 0 3.14159265358979
0

0101100
-26 0 +26 0 *
Ed
 1e-07 1 1 1
2  14 3 0 0 3.14159265358979
0

0101100
+28 0 -28 0 *
Wi

0101100
+25 0 -6 3 -24 3 -27 3 +5 3 *
Fa
0  1e-07 3 3

0111000
+4 0 *
Sh

0101000
-3 0 *
Co

1100000
+12 0 +7 0 +2 0 *

+1 0 
0

