DBRep_DrawableShape

CASCADE Topology V1, (c) Matra-Datavision
Locations 0
Curve2ds 40
8 0 1
1 1 0 0 1 
8 0 1
1 0 0 0 1 
8 0 0.029999999999999999
7 0 0  1 2 2  1 1  0 1 
 0 2 0.029999999999999999 2
8 0 0.029999999999999999
7 0 0  3 25 23  0.44182166198934825 0.49407964821700429  0.4428169758352658 0.49504805137299918  0.44480760352710086 0.4969848576849889  0.44779354506485336 0.49989006715297307  0.45077948660260608 0.5027952766209578  0.4537654281403587 0.50570048608894225  0.45675136967811125 0.5086056955569267  0.45973731121586398 0.51151090502491126  0.46272325275361642 0.5144161144928957  0.46570919429136914 0.51732132396088004  0.46869513582912176 0.52022653342886471  0.47168107736687431 0.52313174289684916  0.47466701890462709 0.52603695236483361  0.47765296044237948 0.52894216183281817  0.48063890198013237 0.53184737130080262  0.48362484351788476 0.53475258076878729  0.4866107850556376 0.53765779023677163  0.48959672659338993 0.54056299970475596  0.49258266813114265 0.54346820917274075  0.49556860966889521 0.54637341864072497  0.49855455120664788 0.54927862810870942  0.50154049274440038 0.5521838375766942  0.50452643428215316 0.55508904704467832  0.50651706197398816 0.55702585335666821  0.50751237581990571 0.55799425651266299 
 0 4 0.0013636363636363635 1 0.0027272727272727271 1 0.0040909090909090904 1 0.0054545454545454541 1 0.0068181818181818179 1 0.0081818181818181807 1 0.0095454545454545445 1 0.010909090909090908 1 0.012272727272727272 1 0.013636363636363636 1 0.014999999999999999 1 0.016363636363636361 1 0.017727272727272727 1 0.019090909090909089 1 0.020454545454545454 1 0.021818181818181816 1 0.023181818181818178 1 0.024545454545454544 1 0.025909090909090906 1 0.027272727272727271 1 0.028636363636363633 1 0.029999999999999999 4
8 0 1
1 0 0 0 1 
8 0 1
1 1 0 0 1 
8 0 0.015369626790968489
7 0 0  1 2 2  1 0  0 0 
 0 2 0.030739253581937 2
8 0 0.015369626790968489
7 0 0  3 25 23  0.58697725776023635 0.39586114156889535  0.58671717165628656 0.39888753683117995  0.58622507811759239 0.40495681925879201  0.58556786819174622 0.41411582585125678  0.58498810161924208 0.42333549758721173  0.58448292628323684 0.43262150433225921  0.58404985805967558 0.44197961601447988  0.58368681201089545 0.45141564054671024  0.58339206062208571 0.46093577024738303  0.58316421775096738 0.47054537898402171  0.58300222124847001 0.48025361829856777  0.58290532102547432 0.49005637752393061  0.58287307039552538 0.50000000000000011  0.58290532102547421 0.50994362247606928  0.58300222124847045 0.51974638170143228  0.58316421775096716 0.52945462101597829  0.58339206062208582 0.53906422975261714  0.58368681201089556 0.54858435945328965  0.5840498580596758 0.55802038398552012  0.58448292628323661 0.56737849566774079  0.5849881016192422 0.5766645024127881  0.58556786819174567 0.58588417414874339  0.58622507811759428 0.59504318074120777  0.58671717165628223 0.60111246316881994  0.58697725776022536 0.60413885843110449 
 0 4 0.0013972387991789544 1 0.0027944775983579089 1 0.0041917163975368635 1 0.0055889551967158177 1 0.0069861939958947719 1 0.008383432795073727 1 0.0097806715942526812 1 0.011177910393431635 1 0.01257514919261059 1 0.013972387991789544 1 0.015369626790968498 1 0.016766865590147454 1 0.018164104389326408 1 0.019561343188505362 1 0.020958581987684317 1 0.022355820786863271 1 0.023753059586042225 1 0.025150298385221179 1 0.026547537184400134 1 0.027944775983579088 1 0.029342014782758042 1 0.030739253581937 4
8 0.015369626790968489 0.030739253581937
7 0 0  1 2 2  1 0  0 0 
 0 2 0.030739253581937 2
8 0.015369626790968489 0.030739253581937
7 0 0  3 25 23  0.58697725776023635 0.39586114156889535  0.58671717165628656 0.39888753683117995  0.58622507811759239 0.40495681925879201  0.58556786819174622 0.41411582585125678  0.58498810161924208 0.42333549758721173  0.58448292628323684 0.43262150433225921  0.58404985805967558 0.44197961601447988  0.58368681201089545 0.45141564054671024  0.58339206062208571 0.46093577024738303  0.58316421775096738 0.47054537898402171  0.58300222124847001 0.48025361829856777  0.58290532102547432 0.49005637752393061  0.58287307039552538 0.50000000000000011  0.58290532102547421 0.50994362247606928  0.58300222124847045 0.51974638170143228  0.58316421775096716 0.52945462101597829  0.58339206062208582 0.53906422975261714  0.58368681201089556 0.54858435945328965  0.5840498580596758 0.55802038398552012  0.58448292628323661 0.56737849566774079  0.5849881016192422 0.5766645024127881  0.58556786819174567 0.58588417414874339  0.58622507811759428 0.59504318074120777  0.58671717165628223 0.60111246316881994  0.58697725776022536 0.60413885843110449 
 0 4 0.0013972387991789544 1 0.0027944775983579089 1 0.0041917163975368635 1 0.0055889551967158177 1 0.0069861939958947719 1 0.008383432795073727 1 0.0097806715942526812 1 0.011177910393431635 1 0.01257514919261059 1 0.013972387991789544 1 0.015369626790968498 1 0.016766865590147454 1 0.018164104389326408 1 0.019561343188505362 1 0.020958581987684317 1 0.022355820786863271 1 0.023753059586042225 1 0.025150298385221179 1 0.026547537184400134 1 0.027944775983579088 1 0.029342014782758042 1 0.030739253581937 4
8 0 0.023781400000000001
7 0 0  1 2 2  1 1  0 1 
 0 2 0.023781400000000001 2
8 0 0.023781400000000001
7 0 0  3 25 23  0.50751237581990571 0.55799425651266299  0.50828004191370479 0.55720525795615294  0.5098153741013034 0.55562726084313285  0.51211837238270075 0.55326026517360216  0.51442137066409843 0.55089326950407214  0.51672436894549589 0.54852627383454167  0.51902736722689335 0.54615927816501131  0.52133036550829115 0.54379228249548106  0.52363336378968861 0.5414252868259507  0.52593636207108596 0.53905829115642045  0.52823936035248364 0.5366912954868901  0.53054235863388111 0.53432429981735974  0.53284535691527879 0.53195730414782938  0.53514835519667625 0.52959030847829902  0.53745135347807382 0.52722331280876866  0.5397543517594714 0.5248563171392383  0.54205735004086897 0.52248932146970806  0.54436034832226632 0.5201223258001777  0.54666334660366411 0.51775533013064723  0.54896634488506146 0.5153883344611172  0.55126934316645926 0.51302133879158662  0.55357234144785661 0.51065434312205638  0.55587533972925418 0.50828734745252591  0.55741067191685256 0.50670935033950582  0.55817833801065175 0.50592035178299577 
 0 4 0.0010809727272727274 1 0.0021619454545454548 1 0.0032429181818181821 1 0.0043238909090909097 1 0.0054048636363636373 1 0.0064858363636363641 1 0.0075668090909090917 1 0.0086477818181818194 1 0.009728754545454547 1 0.010809727272727275 1 0.011890700000000002 1 0.012971672727272728 1 0.014052645454545456 1 0.015133618181818183 1 0.016214590909090911 1 0.017295563636363639 1 0.018376536363636366 1 0.019457509090909094 1 0.020538481818181822 1 0.021619454545454549 1 0.022700427272727277 1 0.023781400000000001 4
8 0 1
1 0 0 0 1 
8 0 1
1 1 0 0 1 
8 0 0.012089759526413854
7 0 0  1 2 2  1 0  0 0 
 0 2 0.024179519052827701 2
8 0 0.012089759526413854
7 0 0  3 25 23  0.58697725776022536 0.60413885843110438  0.58443399257967188 0.60413885816334123  0.57933519652662246 0.60413885776405363  0.5716465825688577 0.60413886048937504  0.56391394314595766 0.60413887052233894  0.55613361241700865 0.60413888810884686  0.54830185828280364 0.60413891200923076  0.54041492770274802 0.60413893974847888  0.53246881264665447 0.60413896829211511  0.52446007933312921 0.60413899449732744  0.51638272057532264 0.60413901551362903  0.50823984901734953 0.60413902908634565  0.5 0.60413903377544442  0.49176015098265041 0.60413902908634554  0.4836172794246773 0.60413901551362936  0.47553992066687067 0.60413899449732722  0.46753118735334565 0.60413896829211489  0.45958507229725187 0.6041389397484791  0.45169814171719652 0.60413891200923076  0.44386638758299152 0.60413888810884697  0.43608605685404234 0.60413887052233872  0.42835341743114236 0.60413886048937504  0.42066480347337759 0.60413885776405374  0.41556600742032823 0.60413885816334123  0.41302274223977475 0.60413885843110438 
 0 4 0.0010990690478558046 1 0.0021981380957116093 1 0.0032972071435674139 1 0.0043962761914232186 1 0.0054953452392790232 1 0.0065944142871348279 1 0.0076934833349906325 1 0.0087925523828464372 1 0.009891621430702241 1 0.010990690478558046 1 0.012089759526413852 1 0.013188828574269656 1 0.01428789762212546 1 0.015386966669981265 1 0.016486035717837071 1 0.017585104765692874 1 0.018684173813548678 1 0.019783242861404482 1 0.020882311909260289 1 0.021981380957116093 1 0.023080450004971897 1 0.024179519052827701 4
8 0.012089759526413854 0.024179519052827701
7 0 0  1 2 2  1 0  0 0 
 0 2 0.024179519052827701 2
8 0.012089759526413854 0.024179519052827701
7 0 0  3 25 23  0.58697725776022536 0.60413885843110438  0.58443399257967188 0.60413885816334123  0.57933519652662246 0.60413885776405363  0.5716465825688577 0.60413886048937504  0.56391394314595766 0.60413887052233894  0.55613361241700865 0.60413888810884686  0.54830185828280364 0.60413891200923076  0.54041492770274802 0.60413893974847888  0.53246881264665447 0.60413896829211511  0.52446007933312921 0.60413899449732744  0.51638272057532264 0.60413901551362903  0.50823984901734953 0.60413902908634565  0.5 0.60413903377544442  0.49176015098265041 0.60413902908634554  0.4836172794246773 0.60413901551362936  0.47553992066687067 0.60413899449732722  0.46753118735334565 0.60413896829211489  0.45958507229725187 0.6041389397484791  0.45169814171719652 0.60413891200923076  0.44386638758299152 0.60413888810884697  0.43608605685404234 0.60413887052233872  0.42835341743114236 0.60413886048937504  0.42066480347337759 0.60413885776405374  0.41556600742032823 0.60413885816334123  0.41302274223977475 0.60413885843110438 
 0 4 0.0010990690478558046 1 0.0021981380957116093 1 0.0032972071435674139 1 0.0043962761914232186 1 0.0054953452392790232 1 0.0065944142871348279 1 0.0076934833349906325 1 0.0087925523828464372 1 0.009891621430702241 1 0.010990690478558046 1 0.012089759526413852 1 0.013188828574269656 1 0.01428789762212546 1 0.015386966669981265 1 0.016486035717837071 1 0.017585104765692874 1 0.018684173813548678 1 0.019783242861404482 1 0.020882311909260289 1 0.021981380957116093 1 0.023080450004971897 1 0.024179519052827701 4
8 0 0.029999999999999999
7 0 0  1 2 2  1 1  0 1 
 0 2 0.029999999999999999 2
8 0 0.029999999999999999
7 0 0  3 25 23  0.55817833801065175 0.50592035178299577  0.5571830241647342 0.50495194862700088  0.55519239647289909 0.50301514231501121  0.55220645493514642 0.50010993284702665  0.54922051339739397 0.49720472337904237  0.5462345718596413 0.4942995139110577  0.54324863032188853 0.4913943044430733  0.54026268878413619 0.48848909497508886  0.5372767472463833 0.48558388550710413  0.53429080570863097 0.4826786760391199  0.53130486417087808 0.47977346657113518  0.52831892263312563 0.47686825710315089  0.52533298109537307 0.47396304763516633  0.52234703955762019 0.47105783816718183  0.51936109801986785 0.46815262869919738  0.51637515648211518 0.46524741923121288  0.51338921494436252 0.46234220976322843  0.51040327340660996 0.45943700029524381  0.50741733186885718 0.45653179082725942  0.50443139033110473 0.45362658135927492  0.50144544879335196 0.4507213718912903  0.49845950725559945 0.44781616242330596  0.49547356571784679 0.44491095295532124  0.49348293802601179 0.44297414664333179  0.49248762418009423 0.44200574348733696 
 0 4 0.0013636363636363635 1 0.0027272727272727271 1 0.0040909090909090904 1 0.0054545454545454541 1 0.0068181818181818179 1 0.0081818181818181807 1 0.0095454545454545445 1 0.010909090909090908 1 0.012272727272727272 1 0.013636363636363636 1 0.014999999999999999 1 0.016363636363636361 1 0.017727272727272727 1 0.019090909090909089 1 0.020454545454545454 1 0.021818181818181816 1 0.023181818181818178 1 0.024545454545454544 1 0.025909090909090906 1 0.027272727272727271 1 0.028636363636363633 1 0.029999999999999999 4
8 0 1
1 0 0 0 1 
8 0 1
1 1 0 0 1 
8 0 0.015369626790968514
7 0 0  1 2 2  1 0  0 0 
 0 2 0.030739253581937 2
8 0 0.015369626790968514
7 0 0  3 25 23  0.41302274223977475 0.60413885843110438  0.41328282834371788 0.60111246316881994  0.41377492188240567 0.59504318074120788  0.41443213180825461 0.58588417414874328  0.41501189838075775 0.5766645024127881  0.41551707371676333 0.56737849566774101  0.41595014194032431 0.5580203839855199  0.41631318798910449 0.54858435945329009  0.41660793937791435 0.53906422975261692  0.41683578224903267 0.5294546210159784  0.41699777875152982 0.51974638170143228  0.41709467897452562 0.50994362247606917  0.41712692960447495 0.50000000000000022  0.41709467897452573 0.49005637752393061  0.41699777875152971 0.48025361829856783  0.41683578224903273 0.47054537898402166  0.4166079393779144 0.46093577024738303  0.41631318798910433 0.45141564054671007  0.41595014194032431 0.44197961601447999  0.41551707371676333 0.4326215043322591  0.4150118983807578 0.42333549758721167  0.41443213180825461 0.41411582585125684  0.41377492188240544 0.40495681925879196  0.41328282834371777 0.39888753683118011  0.4130227422397747 0.39586114156889557 
 0 4 0.0013972387991789544 1 0.0027944775983579089 1 0.0041917163975368635 1 0.0055889551967158177 1 0.0069861939958947719 1 0.008383432795073727 1 0.0097806715942526812 1 0.011177910393431635 1 0.01257514919261059 1 0.013972387991789544 1 0.015369626790968498 1 0.016766865590147454 1 0.018164104389326408 1 0.019561343188505362 1 0.020958581987684317 1 0.022355820786863271 1 0.023753059586042225 1 0.025150298385221179 1 0.026547537184400134 1 0.027944775983579088 1 0.029342014782758042 1 0.030739253581937 4
8 0.015369626790968514 0.030739253581937
7 0 0  1 2 2  1 0  0 0 
 0 2 0.030739253581937 2
8 0.015369626790968514 0.030739253581937
7 0 0  3 25 23  0.41302274223977475 0.60413885843110438  0.41328282834371788 0.60111246316881994  0.41377492188240567 0.59504318074120788  0.41443213180825461 0.58588417414874328  0.41501189838075775 0.5766645024127881  0.41551707371676333 0.56737849566774101  0.41595014194032431 0.5580203839855199  0.41631318798910449 0.54858435945329009  0.41660793937791435 0.53906422975261692  0.41683578224903267 0.5294546210159784  0.41699777875152982 0.51974638170143228  0.41709467897452562 0.50994362247606917  0.41712692960447495 0.50000000000000022  0.41709467897452573 0.49005637752393061  0.41699777875152971 0.48025361829856783  0.41683578224903273 0.47054537898402166  0.4166079393779144 0.46093577024738303  0.41631318798910433 0.45141564054671007  0.41595014194032431 0.44197961601447999  0.41551707371676333 0.4326215043322591  0.4150118983807578 0.42333549758721167  0.41443213180825461 0.41411582585125684  0.41377492188240544 0.40495681925879196  0.41328282834371777 0.39888753683118011  0.4130227422397747 0.39586114156889557 
 0 4 0.0013972387991789544 1 0.0027944775983579089 1 0.0041917163975368635 1 0.0055889551967158177 1 0.0069861939958947719 1 0.008383432795073727 1 0.0097806715942526812 1 0.011177910393431635 1 0.01257514919261059 1 0.013972387991789544 1 0.015369626790968498 1 0.016766865590147454 1 0.018164104389326408 1 0.019561343188505362 1 0.020958581987684317 1 0.022355820786863271 1 0.023753059586042225 1 0.025150298385221179 1 0.026547537184400134 1 0.027944775983579088 1 0.029342014782758042 1 0.030739253581937 4
8 0 0.023781400000000001
7 0 0  1 2 2  1 1  0 1 
 0 2 0.023781400000000001 2
8 0 0.023781400000000001
7 0 0  3 25 23  0.49248762418009423 0.44200574348733696  0.49171995808629498 0.44279474204384706  0.49018462589869682 0.44437273915686731  0.48788162761729909 0.44673973482639745  0.48557862933590168 0.44910673049592803  0.48327563105450411 0.45147372616545828  0.48097263277310648 0.45384072183498864  0.47866963449170907 0.45620771750451888  0.47636663621031133 0.45857471317404935  0.47406363792891387 0.46094170884357966  0.4717606396475163 0.46330870451310996  0.46945764136611878 0.46567570018264021  0.46715464308472132 0.46804269585217068  0.46485164480332369 0.47040969152170092  0.46254864652192618 0.47277668719123123  0.4602456482405286 0.47514368286076158  0.45794264995913103 0.47751067853029194  0.45563965167773357 0.47987767419982219  0.45333665339633589 0.48224466986935255  0.45103365511493843 0.48461166553888296  0.44873065683354085 0.48697866120841315  0.44642765855214339 0.48934565687794368  0.44412466027074576 0.49171265254747387  0.44258932808314749 0.49329064966049413  0.44182166198934825 0.49407964821700429 
 0 4 0.0010809727272727274 1 0.0021619454545454548 1 0.0032429181818181821 1 0.0043238909090909097 1 0.0054048636363636373 1 0.0064858363636363641 1 0.0075668090909090917 1 0.0086477818181818194 1 0.009728754545454547 1 0.010809727272727275 1 0.011890700000000002 1 0.012971672727272728 1 0.014052645454545456 1 0.015133618181818183 1 0.016214590909090911 1 0.017295563636363639 1 0.018376536363636366 1 0.019457509090909094 1 0.020538481818181822 1 0.021619454545454549 1 0.022700427272727277 1 0.023781400000000001 4
8 0 0.012089759526413901
7 0 0  1 2 2  1 0  0 0 
 0 2 0.024179519052827801 2
8 0 0.012089759526413901
7 0 0  3 25 23  0.4130227422397747 0.39586114156889557  0.41556600742032823 0.39586114183665877  0.42066480347337754 0.39586114223594626  0.4283534174311423 0.3958611395106249  0.4360860568540425 0.39586112947766117  0.44386638758299141 0.39586111189115314  0.45169814171719652 0.39586108799076908  0.45958507229725176 0.3958610602515209  0.46753118735334581 0.39586103170788511  0.47553992066687067 0.39586100550267261  0.48361727942467742 0.39586098448637069  0.49176015098265036 0.3958609709136543  0.5 0.39586096622455563  0.50823984901734975 0.39586097091365435  0.51638272057532253 0.39586098448637064  0.52446007933312933 0.39586100550267267  0.53246881264665435 0.395861031707885  0.54041492770274824 0.39586106025152107  0.54830185828280353 0.39586108799076891  0.55613361241700865 0.39586111189115319  0.56391394314595766 0.39586112947766117  0.5716465825688577 0.39586113951062496  0.57933519652662246 0.39586114223594621  0.58443399257967188 0.39586114183665883  0.58697725776022536 0.39586114156889557 
 0 4 0.0010990690478558092 1 0.0021981380957116184 1 0.0032972071435674278 1 0.0043962761914232368 1 0.0054953452392790458 1 0.0065944142871348557 1 0.0076934833349906646 1 0.0087925523828464736 1 0.0098916214307022826 1 0.010990690478558092 1 0.012089759526413901 1 0.013188828574269711 1 0.01428789762212552 1 0.015386966669981329 1 0.016486035717837137 1 0.017585104765692947 1 0.018684173813548758 1 0.019783242861404565 1 0.020882311909260376 1 0.021981380957116183 1 0.023080450004971994 1 0.024179519052827801 4
8 0.012089759526413901 0.024179519052827801
7 0 0  1 2 2  1 0  0 0 
 0 2 0.024179519052827801 2
8 0.012089759526413901 0.024179519052827801
7 0 0  3 25 23  0.4130227422397747 0.39586114156889557  0.41556600742032823 0.39586114183665877  0.42066480347337754 0.39586114223594626  0.4283534174311423 0.3958611395106249  0.4360860568540425 0.39586112947766117  0.44386638758299141 0.39586111189115314  0.45169814171719652 0.39586108799076908  0.45958507229725176 0.3958610602515209  0.46753118735334581 0.39586103170788511  0.47553992066687067 0.39586100550267261  0.48361727942467742 0.39586098448637069  0.49176015098265036 0.3958609709136543  0.5 0.39586096622455563  0.50823984901734975 0.39586097091365435  0.51638272057532253 0.39586098448637064  0.52446007933312933 0.39586100550267267  0.53246881264665435 0.395861031707885  0.54041492770274824 0.39586106025152107  0.54830185828280353 0.39586108799076891  0.55613361241700865 0.39586111189115319  0.56391394314595766 0.39586112947766117  0.5716465825688577 0.39586113951062496  0.57933519652662246 0.39586114223594621  0.58443399257967188 0.39586114183665883  0.58697725776022536 0.39586114156889557 
 0 4 0.0010990690478558092 1 0.0021981380957116184 1 0.0032972071435674278 1 0.0043962761914232368 1 0.0054953452392790458 1 0.0065944142871348557 1 0.0076934833349906646 1 0.0087925523828464736 1 0.0098916214307022826 1 0.010990690478558092 1 0.012089759526413901 1 0.013188828574269711 1 0.01428789762212552 1 0.015386966669981329 1 0.016486035717837137 1 0.017585104765692947 1 0.018684173813548758 1 0.019783242861404565 1 0.020882311909260376 1 0.021981380957116183 1 0.023080450004971994 1 0.024179519052827801 4
8 0.5 0.6041390322124115
1 0.5 0 0 1 
8 0.5 0.6041390322124115
1 0.5 0 0 1 
8 0.5 0.58288382060550825
1 0 0.5 1 0 
8 0.5 0.58288382060550825
1 0 0.5 1 0 
8 0.41711617939449186 0.5
1 0 0.5 1 0 
8 0.41711617939449186 0.5
1 0 0.5 1 0 
8 0.3958609677875885 0.5
1 0.5 0 0 1 
8 0.3958609677875885 0.5
1 0.5 0 0 1 
Curves 20
7 0 0  1 2 2  -0.014999999999999999 -0.011890700000000001 0.0038937663305093199  -0.014999999999999999 -0.011890700000000001 0.01 
 0 2 1 2
7 0 0  3 4 2  -0.014999999999999999 -0.011890700000000001 0.01  -0.0050000000000000096 -0.011890700000000001 0.01  0.0050000000000000001 -0.011890700000000001 0.01  0.014999999999999999 -0.011890700000000001 0.01 
 0 4 0.029999999999999999 4
7 0 0  1 2 2  0.014999999999999999 -0.011890700000000001 0.0038937663305093199  0.014999999999999999 -0.011890700000000001 0.01 
 0 2 1 2
7 0 0  3 4 2  -0.014999999999999999 -0.011890700000000001 0.0038937663305093199  -0.0052772143511792902 -0.011890700000000001 0.00066011232891229803  0.0052772143511792997 -0.011890700000000001 0.00066011232891230096  0.014999999999999999 -0.011890700000000001 0.0038937663305093199 
 0 4 0.030739253581937 4
7 0 0  3 4 2  -0.014999999999999999 -0.011890700000000001 0.0038937663305093199  -0.0052772143511792902 -0.011890700000000001 0.00066011232891229803  0.0052772143511792997 -0.011890700000000001 0.00066011232891230096  0.014999999999999999 -0.011890700000000001 0.0038937663305093199 
 0 4 0.030739253581937 4
7 0 0  3 4 2  0.014999999999999999 -0.011890700000000001 0.01  0.014999999999999999 -0.0039635666666666602 0.01  0.014999999999999999 0.0039635666666666697 0.01  0.014999999999999999 0.011890700000000001 0.01 
 0 4 0.023781400000000001 4
7 0 0  1 2 2  0.014999999999999999 0.011890700000000001 0.0038937663305093099  0.014999999999999999 0.011890700000000001 0.01 
 0 2 1 2
7 0 0  3 4 2  0.014999999999999999 -0.011890700000000001 0.0038937663305093199  0.014999999999999999 -0.0040971687622837101 0.0018390433362910599  0.014999999999999999 0.0040971687622837101 0.0018390433362910599  0.014999999999999999 0.011890700000000001 0.0038937663305093099 
 0 4 0.024179519052827701 4
7 0 0  3 4 2  0.014999999999999999 -0.011890700000000001 0.0038937663305093199  0.014999999999999999 -0.0040971687622837101 0.0018390433362910599  0.014999999999999999 0.0040971687622837101 0.0018390433362910599  0.014999999999999999 0.011890700000000001 0.0038937663305093099 
 0 4 0.024179519052827701 4
7 0 0  3 4 2  0.014999999999999999 0.011890700000000001 0.01  0.0050000000000000001 0.011890700000000001 0.01  -0.0049999999999999897 0.011890700000000001 0.01  -0.014999999999999999 0.011890700000000001 0.01 
 0 4 0.029999999999999999 4
7 0 0  1 2 2  -0.014999999999999999 0.011890700000000001 0.0038937663305093199  -0.014999999999999999 0.011890700000000001 0.01 
 0 2 1 2
7 0 0  3 4 2  0.014999999999999999 0.011890700000000001 0.0038937663305093099  0.0052772143511792997 0.011890700000000001 0.00066011232891229695  -0.0052772143511792902 0.011890700000000001 0.00066011232891229998  -0.014999999999999999 0.011890700000000001 0.0038937663305093199 
 0 4 0.030739253581937 4
7 0 0  3 4 2  0.014999999999999999 0.011890700000000001 0.0038937663305093099  0.0052772143511792997 0.011890700000000001 0.00066011232891229695  -0.0052772143511792902 0.011890700000000001 0.00066011232891229998  -0.014999999999999999 0.011890700000000001 0.0038937663305093199 
 0 4 0.030739253581937 4
7 0 0  3 4 2  -0.014999999999999999 0.011890700000000001 0.01  -0.014999999999999999 0.0039635666666666697 0.01  -0.014999999999999999 -0.0039635666666666602 0.01  -0.014999999999999999 -0.011890700000000001 0.01 
 0 4 0.023781400000000001 4
7 0 0  3 4 2  -0.014999999999999999 0.011890700000000001 0.0038937663305093199  -0.014999999999999999 0.0040971687622837006 0.0018390433362910599  -0.014999999999999999 -0.0040971687622837006 0.0018390433362910599  -0.014999999999999999 -0.011890700000000001 0.0038937663305093199 
 0 4 0.024179519052827801 4
7 0 0  3 4 2  -0.014999999999999999 0.011890700000000001 0.0038937663305093199  -0.014999999999999999 0.0040971687622837006 0.0018390433362910599  -0.014999999999999999 -0.0040971687622837006 0.0018390433362910599  -0.014999999999999999 -0.011890700000000001 0.0038937663305093199 
 0 4 0.024179519052827801 4
7 0 0  5 6 2  0 7.105427357601002e-18 8.7707618945387368e-18  0.0028862921521896861 7.1054273576009912e-18 7.5724745484534419e-18  0.0058605813762735741 8.9278024458350653e-19 0.00021253581259226721  0.008897187137809192 5.9754203702702655e-18 0.00066355241582066846  0.011958533935280298 -2.1159140494451498e-19 0.0013745116949171882  0.015000025377342126 3.9443045261050591e-34 0.0023526451743794137 
 0.5 6 0.6041390322124115 6
7 0 0  5 6 2  0 7.105427357601002e-18 8.8262730457699946e-18  -7.523163845262636e-36 -0.0022971878639051002 8.5973844146311438e-18  9.1741266941123463e-21 -0.0046501327144847712 0.00013463309578090312  -1.8348253388224687e-20 -0.0070458232160043061 0.00041697028205687695  1.2232168925483125e-20 -0.0094666427449745013 0.0008583081089298647  0 -0.011891580643483586 0.0014650059457238544 
 0.5 6 0.58288382060550825 6
7 0 0  5 6 2  6.1629758220391549e-36 0.011891580643483576 0.0014650059457238483  2.2569491535787925e-35 0.0094666427449744718 0.00085830810892985928  4.3696696378270343e-20 0.0070458232160043512 0.00041697028205688117  -8.7393392756540758e-20 0.0046501327144847253 0.00013463309578089577  5.8262261837693855e-20 0.0022971878639051349 9.5032777943279068e-18  -6.1629758220391549e-36 7.105427357601002e-18 8.9372953482325104e-18 
 0.41711617939449186 6 0.5 6
7 0 0  5 6 2  -0.01500002537734213 1.4180966532180741e-33 0.0023526451743794137  -0.011958533935280312 5.989142369178829e-20 0.0013745116949171882  -0.0088971871378092215 1.8955842367089735e-17 0.00066355241582068624  -0.0058605813762735775 -1.7111317184216196e-17 0.00021253581259225485  -0.0028862921521896887 7.4014082889914617e-18 8.7245026018459977e-18  0 7.1054273576010005e-18 8.8817841970012525e-18 
 0.3958609677875885 6 0.5 6
Polygon3D 0
PolygonOnTriangulations 36
2 1 2 
p 0.00244257346779627 1 0 1 
2 4 3 
p 0.00237816 1 0 1 
2 2 3 
p 0.00300002 1 0 0.03 
2 2 4 
p 0.012000495186131 1 0 0.03 
2 4 3 
p 0.00244257346779627 1 0 1 
2 1 2 
p 0.00237816 1 0 1 
4 2 6 7 5 
p 0.00152139496915212 1 0 0.00512320893032283 0.0102464178606457 0.0153696267909685 
4 1 3 4 2 
p 0.00152139496915212 1 0.0153696267909685 0.0204928357212913 0.0256160446516142 0.030739253581937 
4 1 3 4 2 
p 0.00158590464836859 1 0.0153696267909685 0.0204928357212913 0.0256160446516142 0.030739253581937 
2 2 3 
p 0.00237816 1 0 0.0237814 
2 4 3 
p 0.00951265142459001 1 0 0.0237814 
2 4 3 
p 0.00237816 1 0 1 
2 1 2 
p 0.00244258489238629 1 0 1 
4 2 6 7 5 
p 0.00150002253773421 1 0 0.00537322645618396 0.00873149299129893 0.0120897595264139 
4 2 6 7 5 
p 0.00150002253773421 1 0 0.00537322645618396 0.00873149299129893 0.0120897595264139 
4 1 3 4 2 
p 0.00150002253773421 1 0.0120897595264139 0.0174629859825978 0.0208212525177128 0.0241795190528277 
2 2 3 
p 0.00300002 1 0 0.03 
2 3 1 
p 0.012000495186131 1 0 0.03 
2 4 3 
p 0.00244257346779627 1 0 1 
2 1 2 
p 0.00237816 1 0 1 
4 2 6 7 5 
p 0.00152139496915212 1 0 0.00512320893032283 0.0102464178606457 0.0153696267909685 
4 1 3 4 2 
p 0.00152139496915212 1 0.0153696267909685 0.0204928357212913 0.0256160446516142 0.030739253581937 
2 2 3 
p 0.00237816 1 0 0.0237814 
2 1 2 
p 0.00951265142459001 1 0 0.0237814 
4 2 6 7 5 
p 0.00150002253773421 1 0 0.00537322645618396 0.00873149299129893 0.0120897595264139 
4 1 3 4 2 
p 0.00150002253773421 1 0.0120897595264139 0.0174629859825979 0.0208212525177128 0.0241795190528278 
4 8 9 10 5 
p 0.00150866642683439 1 0.5 0.53471301073747 0.569426021474941 0.604139032212411 
4 8 11 12 1 
p 0.00158589522095986 1 0.5 0.53471301073747 0.569426021474941 0.604139032212411 
4 8 9 10 5 
p 0.00158589522095986 1 0.5 0.53471301073747 0.569426021474941 0.604139032212411 
4 8 11 12 1 
p 0.00150002253773421 1 0.5 0.536837253602448 0.559860537103978 0.582883820605508 
4 8 9 10 5 
p 0.00150002253773421 1 0.5 0.536837253602448 0.559860537103978 0.582883820605508 
4 8 11 12 1 
p 0.00150002253773421 1 0.5 0.536837253602448 0.559860537103978 0.582883820605508 
4 5 9 10 8 
p 0.00150002253773421 1 0.417116179394492 0.45395343299694 0.47697671649847 0.5 
4 1 11 12 8 
p 0.00150002253773421 1 0.417116179394492 0.45395343299694 0.47697671649847 0.5 
4 5 9 10 8 
p 0.00150796074434956 1 0.395860967787589 0.430573978525059 0.46528698926253 0.5 
4 1 11 12 8 
p 0.00158496263234019 1 0.395860967787589 0.430573978525059 0.46528698926253 0.5 
Surfaces 9
9 0 0 0 0 3 1 4 2 2 2 0.014999999999999999 -0.011890700000000001 0.0038937663305093199  0.014999999999999999 -0.011890700000000001 0.01  
0.0052772143511792997 -0.011890700000000001 0.00066011232891230096  0.0050000000000000001 -0.011890700000000001 0.01  
-0.0052772143511792902 -0.011890700000000001 0.00066011232891229803  -0.0050000000000000096 -0.011890700000000001 0.01  
-0.014999999999999999 -0.011890700000000001 0.0038937663305093199  -0.014999999999999999 -0.011890700000000001 0.01  

0 4
1 4

0 2
1 2

9 0 0 0 0 3 1 4 2 2 2 -0.014999999999999999 -0.011890700000000001 0.0038937663305093199  -0.014999999999999999 -0.011890700000000001 0.01  
-0.014999999999999999 -0.0040971687622837006 0.0018390433362910599  -0.014999999999999999 -0.0039635666666666602 0.01  
-0.014999999999999999 0.0040971687622837006 0.0018390433362910599  -0.014999999999999999 0.0039635666666666697 0.01  
-0.014999999999999999 0.011890700000000001 0.0038937663305093199  -0.014999999999999999 0.011890700000000001 0.01  

0 4
1 4

0 2
1 2

9 0 0 0 0 1 1 2 2 2 2 -0.231428514 0.0031714859999999903 0.01  -0.0031714859999999903 -0.231428514 0.01  
0.0031714859999999799 0.231428514 0.01  0.231428514 -0.0031714859999999903 0.01  

0 2
1 2

0 2
1 2

9 0 0 0 0 3 1 4 2 2 2 0.014999999999999999 0.011890700000000001 0.0038937663305093099  0.014999999999999999 0.011890700000000001 0.01  
0.014999999999999999 0.0040971687622837101 0.0018390433362910599  0.014999999999999999 0.0039635666666666697 0.01  
0.014999999999999999 -0.0040971687622837101 0.0018390433362910599  0.014999999999999999 -0.0039635666666666602 0.01  
0.014999999999999999 -0.011890700000000001 0.0038937663305093199  0.014999999999999999 -0.011890700000000001 0.01  

0 4
1 4

0 2
1 2

9 1 1 0 0 2 2 3 3 2 2 -0.015000025377342128 2.8559262038346417e-18 0.0023526451743794163  0.90340480506459164 -0.0076845103537514009 2.9999794152763702e-18 6.9388939039072315e-18  0.93899676730237802 -2.9999794152763702e-18 2.9999794152763702e-18 6.9388939039072299e-18  1 
-0.015000025377342126 -0.0060452202522906038 0.0023526451743794159  0.85737624173282168 -0.0076845103537513991 -0.0063501417835422798 7.0799482088931611e-18  0.89115479000736619 -2.9999794152763702e-18 -0.0063501417835422807 6.9388939039072299e-18  0.94904990202207418 
-0.015000025377342123 -0.011890697919422911 0.0038937742221109538  0.8273614312700146 -0.0076845103537513965 -0.012490465945388171 0.0016188637553979318  0.85995746867614486 -2.9999794152763702e-18 -0.012490465945388173 0.0016188637553979314  0.91582580326308971 

0.5 3
0.58697725776023635 3

0.3958609677875885 3
0.5 3

9 1 1 0 0 2 2 3 3 2 2 -2.9999794152763702e-18 2.9999794152763702e-18 6.9388939039072299e-18  1 0.0076845103537513957 2.9999794152763702e-18 4.7622635519056969e-18  0.93899676730237802 0.015000025377342125 2.8559262038346417e-18 0.0023526451743794128  0.90340480506459164 
-2.9999794152763702e-18 -0.0063501417835422807 6.9388939039072299e-18  0.94904990202207418 0.0076845103537513931 -0.0063501417835422798 4.9033178568916265e-18  0.89115479000736619 0.015000025377342121 -0.0060452202522906038 0.0023526451743794128  0.85737624173282168 
-2.9999794152763702e-18 -0.012490465945388173 0.0016188637553979314  0.91582580326308971 0.0076845103537513922 -0.012490465945388171 0.0016188637553979297  0.85995746867614486 0.015000025377342118 -0.011890697919422911 0.0038937742221109503  0.8273614312700146 

0.5 3
0.58697725776023635 3

0.5 3
0.6041390322124115 3

9 0 0 0 0 3 1 4 2 2 2 -0.014999999999999999 0.011890700000000001 0.0038937663305093199  -0.014999999999999999 0.011890700000000001 0.01  
-0.0052772143511792902 0.011890700000000001 0.00066011232891229998  -0.0049999999999999897 0.011890700000000001 0.01  
0.0052772143511792997 0.011890700000000001 0.00066011232891229695  0.0050000000000000001 0.011890700000000001 0.01  
0.014999999999999999 0.011890700000000001 0.0038937663305093099  0.014999999999999999 0.011890700000000001 0.01  

0 4
1 4

0 2
1 2

9 1 1 0 0 2 2 3 3 2 2 -2.9999794152763702e-18 0.012490465945386563 0.0016188637553975051  0.91582580326309815 0.0076845103537513939 0.012490465945386563 0.0016188637553975036  0.85995746867615275 0.015000025377342123 0.01189069791942138 0.0038937742221105448  0.82736143127002215 
-2.9999794152763702e-18 0.0063501417835414358 6.9388939039072315e-18  0.94904990202208062 0.0076845103537513931 0.0063501417835414341 4.9033178568916088e-18  0.8911547900073723 0.015000025377342121 0.0060452202522898006 0.0023526451743794124  0.85737624173282756 
-2.9999794152763702e-18 2.9999794152763702e-18 6.9388939039072299e-18  1 0.0076845103537513957 2.9999794152763702e-18 4.7622635519056969e-18  0.93899676730237802 0.015000025377342125 2.8559262038346417e-18 0.0023526451743794128  0.90340480506459164 

0.4130227422397747 3
0.5 3

0.5 3
0.6041390322124115 3

9 1 1 0 0 2 2 3 3 2 2 -0.015000025377342126 0.01189069791942138 0.0038937742221105474  0.82736143127002215 -0.0076845103537513983 0.012490465945386563 0.0016188637553975057  0.85995746867615275 -2.9999794152763702e-18 0.012490465945386563 0.0016188637553975051  0.91582580326309815 
-0.015000025377342126 0.0060452202522898006 0.0023526451743794154  0.85737624173282756 -0.0076845103537513991 0.0063501417835414341 7.0799482088931426e-18  0.8911547900073723 -2.9999794152763702e-18 0.0063501417835414358 6.9388939039072315e-18  0.94904990202208062 
-0.015000025377342128 2.8559262038346417e-18 0.0023526451743794163  0.90340480506459164 -0.0076845103537514009 2.9999794152763702e-18 6.9388939039072315e-18  0.93899676730237802 -2.9999794152763702e-18 2.9999794152763702e-18 6.9388939039072299e-18  1 

0.4130227422397747 3
0.5 3

0.3958609677875885 3
0.5 3

Triangulations 10
9 7 1 5.18982663741228e-07
-0.015 -0.0118907 0.00389376633050932 -0.015 -0.0118907 0.01 0.015 -0.0118907 0.01 0.015 -0.0118907 0.00389376633050932 -2.80236429537118e-18 -0.0118915806434836 0.00146500594572385 -0.00841318931926975 -0.0118907 0.00221705684819975 -0.00421996340728048 -0.0118907 0.0016556585840336 0.00674081865360764 -0.0118907 0.0019475856814 0.0109051680706824 -0.0118907 0.00273354325123261 1 0 1 1 0 1 0 0 0.5 0 0.777777777777778 0 0.638888888888889 0 0.277777777777778 0 0.138888888888889 0 4 9 3 3 8 5 8 3 9 5 7 2 6 1 2 6 2 7 5 2 3 
9 7 1 1.42807375171494e-08
-0.015 0.0118907 0.00389376633050932 -0.015 0.0118907 0.01 -0.015 -0.0118907 0.01 -0.015 -0.0118907 0.00389376633050932 -0.0150000253773421 2.94943666910192e-18 0.00235264517437942 -0.015 0.00664443064482795 0.00282835440758133 -0.015 0.00332865832471032 0.00247163166552955 -0.015 -0.00532049274162596 0.00265712749139648 -0.015 -0.00862234817678348 0.00315653933026897 1 0 1 1 0 1 0 0 0.5 0 0.777777777777778 0 0.638888888888889 0 0.277777777777778 0 0.138888888888889 0 4 9 3 3 8 5 8 3 9 5 7 2 6 1 2 6 2 7 5 2 3 
4 2 1 0
-0.015 0.0118907 0.01 -0.015 -0.0118907 0.01 0.015 0.0118907 0.01 0.015 -0.0118907 0.01 0.492487624180094 0.442005743487337 0.441821661989348 0.494079648217004 0.558178338010652 0.505920351782996 0.507512375819906 0.557994256512663 2 1 3 3 4 2 
9 7 1 1.42807375171497e-08
0.015 -0.0118907 0.00389376633050932 0.015 -0.0118907 0.01 0.015 0.0118907 0.01 0.015 0.0118907 0.00389376633050931 0.0150000253773421 2.94943666910192e-18 0.00235264517437941 0.015 -0.00664443064482793 0.00282835440758133 0.015 -0.00332865832471029 0.00247163166552955 0.015 0.00532049274162598 0.00265712749139648 0.015 0.00862234817678349 0.00315653933026897 1 0 1 1 0 1 0 0 0.499999999999998 0 0.777777777777777 0 0.638888888888887 0 0.277777777777777 0 0.138888888888888 0 4 9 3 3 8 5 8 3 9 5 7 2 6 1 2 6 2 7 5 2 3 
12 10 1 0.000425835003704114
-0.0150000253773421 2.94943666910192e-18 0.00235264517437942 -0.015 -0.0118907 0.00389376633050932 -0.015 -0.00532049274162596 0.00265712749139648 -0.015 -0.00862234817678348 0.00315653933026897 -2.80236429537118e-18 -0.0118915806434836 0.00146500594572385 -0.0100770039864387 -0.0118907 0.00254641049651056 -0.00506160318915095 -0.0118907 0.00173799699611131 -2.78943534937071e-18 3.5527136788005e-18 7.21644966006352e-18 -5.38597422585583e-22 -0.00520269888044406 0.000277016112281335 3.14532479205188e-22 -0.00853118936822476 0.00074845788507624 -0.00992487520368287 3.77747130099336e-18 0.00101576628371547 -0.00489803593629453 8.61784249982563e-19 0.000245443307669793 0.5 0.395860967787589 0.586977257760225 0.395861141568896 0.53952508385564 0.395861056986383 0.563475005053048 0.395861127439908 0.582883820605508 0.5 0.584655339346696 0.42953013896358 0.583319823581775 0.464144000708149 0.5 0.5 0.536837253602448 0.5 0.559860537103978 0.5 0.5 0.430573978525059 0.5 0.46528698926253 1 3 11 12 11 7 12 9 8 7 9 12 6 11 3 4 2 6 6 7 11 10 7 5 10 9 7 3 4 6 
12 10 1 0.000425835003704114
-2.80236429537118e-18 -0.0118915806434836 0.00146500594572385 0.015 -0.0118907 0.00389376633050932 0.00506160318915096 -0.0118907 0.00173799699611131 0.0100770039864387 -0.0118907 0.00254641049651056 0.0150000253773421 2.94943666910192e-18 0.00235264517437941 0.015 -0.00664443064482793 0.00282835440758133 0.015 -0.00332865832471029 0.00247163166552955 -2.78943534937071e-18 3.5527136788005e-18 7.21644966006352e-18 0.00489803593629452 4.54374972995621e-18 0.000245443307669793 0.00992487520368287 2.36616143186426e-18 0.00101576628371547 -5.38597422585583e-22 -0.00520269888044406 0.000277016112281335 3.14532479205188e-22 -0.00853118936822476 0.00074845788507624 0.582883820605509 0.5 0.586977257760226 0.604138858431104 0.583319823581776 0.535855999291851 0.584655339346696 0.57046986103642 0.5 0.604139032212412 0.549165582733088 0.604138909804436 0.524895371918163 0.604138992312874 0.5 0.5 0.5 0.53471301073747 0.5 0.569426021474941 0.536837253602448 0.5 0.559860537103978 0.5 8 11 9 10 9 3 5 10 7 6 7 10 3 9 11 12 1 3 4 10 3 6 4 2 6 10 4 3 11 12 
12 10 1 0.000425835003704114
-2.80236429537118e-18 -0.0118915806434836 0.00146500594572385 0.015 -0.0118907 0.00389376633050932 0.00506160318915096 -0.0118907 0.00173799699611131 0.0100770039864387 -0.0118907 0.00254641049651056 0.0150000253773421 2.94943666910192e-18 0.00235264517437941 0.015 -0.00664443064482793 0.00282835440758133 0.015 -0.00332865832471029 0.00247163166552955 -2.78943534937071e-18 3.5527136788005e-18 7.21644966006352e-18 0.00489803593629452 4.54374972995621e-18 0.000245443307669793 0.00992487520368287 2.36616143186426e-18 0.00101576628371547 -5.38597422585583e-22 -0.00520269888044406 0.000277016112281335 3.14532479205188e-22 -0.00853118936822476 0.00074845788507624 0.582883820605509 0.5 0.586977257760226 0.604138858431104 0.583319823581776 0.535855999291851 0.584655339346696 0.57046986103642 0.5 0.604139032212412 0.549165582733088 0.604138909804436 0.524895371918163 0.604138992312874 0.5 0.5 0.5 0.53471301073747 0.5 0.569426021474941 0.536837253602448 0.5 0.559860537103978 0.5 8 11 9 10 9 3 5 10 7 6 7 10 3 9 11 12 1 3 4 10 3 6 4 2 6 10 4 3 11 12 
9 7 1 5.18982663741227e-07
0.015 0.0118907 0.00389376633050931 0.015 0.0118907 0.01 -0.015 0.0118907 0.01 -0.015 0.0118907 0.00389376633050932 -2.79926628143229e-18 0.0118915806434836 0.00146500594572385 0.00841318931926976 0.0118907 0.00221705684819975 0.00421996340728049 0.0118907 0.0016556585840336 -0.00674081865360763 0.0118907 0.0019475856814 -0.0109051680706824 0.0118907 0.00273354325123261 1 0 1 1 0 1 0 0 0.5 0 0.777777777777778 0 0.638888888888889 0 0.277777777777778 0 0.138888888888889 0 4 9 3 3 8 5 8 3 9 5 7 2 6 1 2 6 2 7 5 2 3 
12 10 1 0.000424700473029908
0.0150000253773421 2.94943666910192e-18 0.00235264517437941 0.015 0.0118907 0.00389376633050931 0.015 0.00532049274162598 0.00265712749139648 0.015 0.00862234817678349 0.00315653933026897 -2.79926628143229e-18 0.0118915806434836 0.00146500594572385 0.0100770039864387 0.0118907 0.00254641049651055 0.00506160318915096 0.0118907 0.0017379969961113 -2.78943534937071e-18 3.5527136788005e-18 7.21644966006352e-18 -2.56535895236162e-21 0.00652872722491324 0.00043693424301245 1.49812954444555e-21 0.00323063719504246 0.000106627075843709 0.00489803593629452 4.54374972995621e-18 0.000245443307669793 0.00992487520368287 2.36616143186426e-18 0.00101576628371547 0.5 0.604139032212412 0.413022742239775 0.604138858431104 0.46047491614436 0.604138943013617 0.436524994946952 0.604138872560092 0.417116179394492 0.5 0.415344660653304 0.57046986103642 0.416680176418224 0.535855999291851 0.5 0.5 0.45395343299694 0.5 0.47697671649847 0.5 0.5 0.53471301073747 0.5 0.569426021474941 7 5 9 6 7 12 2 6 4 3 4 6 11 7 9 10 8 11 12 7 11 3 12 1 3 6 12 11 9 10 
12 10 1 0.00042470047302991
-2.79926628143229e-18 0.0118915806434836 0.00146500594572385 -0.015 0.0118907 0.00389376633050932 -0.00506160318915095 0.0118907 0.00173799699611131 -0.0100770039864387 0.0118907 0.00254641049651056 -0.0150000253773421 2.94943666910192e-18 0.00235264517437942 -0.015 0.00664443064482795 0.00282835440758133 -0.015 0.00332865832471032 0.00247163166552955 -2.78943534937071e-18 3.5527136788005e-18 7.21644966006352e-18 -0.00992487520368287 3.77747130099336e-18 0.00101576628371547 -0.00489803593629453 8.61784249982563e-19 0.000245443307669793 -2.56535895236162e-21 0.00652872722491324 0.00043693424301245 1.49812954444555e-21 0.00323063719504246 0.000106627075843709 0.417116179394492 0.5 0.413022742239775 0.395861141568896 0.416680176418225 0.464144000708149 0.415344660653304 0.42953013896358 0.5 0.395860967787589 0.450834417266912 0.395861090195564 0.475104628081838 0.395861007687126 0.5 0.5 0.5 0.430573978525059 0.5 0.46528698926253 0.45395343299694 0.5 0.47697671649847 0.5 2 6 4 3 4 9 3 11 1 10 11 3 9 4 6 7 5 9 9 10 3 12 10 8 12 11 10 6 7 9 

TShapes 53
Ve
3.68823813885012e-06
-0.015 -0.0118907 0.00389376633050932
0 0

0101101
*
Ve
1e-07
-0.015 -0.0118907 0.01
0 0

0101101
*
Ed
 1e-07 1 1 0
1  1 0 0 1
2  1 1 0 0 1
2  2 2 0 0 1
6  1 1 0
6  2 2 0
0

0101000
+53 0 -52 0 *
Ve
1e-07
0.015 -0.0118907 0.01
0 0

0101101
*
Ed
 1e-07 1 1 0
1  2 0 0 0.03
2  3 1 0 0 0.03
2  4 3 0 0 0.03
6  3 1 0
6  4 3 0
0

0101000
+52 0 -50 0 *
Ve
3.68823813884831e-06
0.015 -0.0118907 0.00389376633050932
0 0

0101101
*
Ed
 1e-07 1 1 0
1  3 0 0 1
2  5 1 0 0 1
2  6 4 0 0 1
6  5 1 0
6  6 4 0
0

0101000
+48 0 -50 0 *
Ve
3.68823813885012e-06
-2.80236429537118e-18 -0.0118915806434836 0.00146500594572385
0 0

0101101
*
Ed
 3.68823813885012e-06 1 1 0
1  4 0 0 0.0153696267909685
2  7 1 0 0 0.0153696267909685
2  8 5 0 0 0.0153696267909685
6  7 5 0
0

0101000
+53 0 -46 0 *
Ed
 3.68823813884831e-06 1 1 0
1  5 0 0.0153696267909685 0.030739253581937
2  9 1 0 0.0153696267909685 0.030739253581937
2  10 6 0 0.0153696267909685 0.030739253581937
6  8 6 0
6  9 7 0
0

0101000
+46 0 -48 0 *
Wi

0101000
+51 0 +49 0 -47 0 -45 0 -44 0 *
Fa
0  1e-07 1 0
2  1
0111000
+43 0 *
Ve
1e-07
0.015 0.0118907 0.01
0 0

0101101
*
Ed
 1e-07 1 1 0
1  6 0 0 0.0237814
2  11 4 0 0 0.0237814
2  12 3 0 0 0.0237814
6  10 4 0
6  11 3 0
0

0101000
+50 0 -41 0 *
Ve
3.68823813885062e-06
0.015 0.0118907 0.00389376633050931
0 0

0101101
*
Ed
 1e-07 1 1 0
1  7 0 0 1
2  13 4 0 0 1
2  14 7 0 0 1
6  12 4 0
6  13 8 0
0

0101000
+39 0 -41 0 *
Ve
3.62841242414798e-06
0.0150000253773421 2.94943666910192e-18 0.00235264517437941
0 0

0101101
*
Ed
 3.62841242414798e-06 1 1 0
1  8 0 0 0.0120897595264139
2  15 4 0 0 0.0120897595264139
2  16 6 0 0 0.0120897595264139
6  14 6 0
6  15 7 0
0

0101000
+48 0 -37 0 *
Ed
 3.62841242414798e-06 1 1 0
1  9 0 0.0120897595264139 0.0241795190528277
2  17 4 0 0.0120897595264139 0.0241795190528277
2  18 8 0 0.0120897595264139 0.0241795190528277
6  16 9 0
0

0101000
+37 0 -39 0 *
Wi

0101000
+47 0 +40 0 -38 0 -36 0 -35 0 *
Fa
0  1e-07 4 0
2  4
0111000
+34 0 *
Ve
1e-07
-0.015 0.0118907 0.01
0 0

0101101
*
Ed
 1e-07 1 1 0
1  10 0 0 0.03
2  19 7 0 0 0.03
2  20 3 0 0 0.03
6  17 8 0
6  18 3 0
0

0101000
+41 0 -32 0 *
Ve
3.68823813885117e-06
-0.015 0.0118907 0.00389376633050932
0 0

0101101
*
Ed
 1e-07 1 1 0
1  11 0 0 1
2  21 7 0 0 1
2  22 2 0 0 1
6  19 8 0
6  20 2 0
0

0101000
+30 0 -32 0 *
Ve
3.68823813885117e-06
-2.79926628143229e-18 0.0118915806434836 0.00146500594572385
0 0

0101101
*
Ed
 3.68823813885062e-06 1 1 0
1  12 0 0 0.0153696267909685
2  23 7 0 0 0.0153696267909685
2  24 8 0 0 0.0153696267909685
6  21 9 0
0

0101000
+39 0 -28 0 *
Ed
 3.68823813885117e-06 1 1 0
1  13 0 0.0153696267909685 0.030739253581937
2  25 7 0 0.0153696267909685 0.030739253581937
2  26 9 0 0.0153696267909685 0.030739253581937
6  22 10 0
0

0101000
+28 0 -30 0 *
Wi

0101000
+38 0 +31 0 -29 0 -27 0 -26 0 *
Fa
0  1e-07 7 0
2  8
0111000
+25 0 *
Ed
 1e-07 1 1 0
1  14 0 0 0.0237814
2  27 2 0 0 0.0237814
2  28 3 0 0 0.0237814
6  23 2 0
6  24 3 0
0

0101000
+32 0 -52 0 *
Ve
3.62841242415324e-06
-0.0150000253773421 2.94943666910192e-18 0.00235264517437942
0 0

0101101
*
Ed
 3.62841242415324e-06 1 1 0
1  15 0 0 0.0120897595264139
2  29 2 0 0 0.0120897595264139
2  30 9 0 0 0.0120897595264139
6  25 10 0
0

0101000
+30 0 -22 0 *
Ed
 3.62841242415324e-06 1 1 0
1  16 0 0.0120897595264139 0.0241795190528278
2  31 2 0 0.0120897595264139 0.0241795190528278
2  32 5 0 0.0120897595264139 0.0241795190528278
6  26 5 0
0

0101000
+22 0 -53 0 *
Wi

0101000
+29 0 +23 0 -51 0 -21 0 -20 0 *
Fa
0  1e-07 2 0
2  2
0111000
+19 0 *
Ve
3.62841242415324e-06
-2.78943534937071e-18 3.5527136788005e-18 7.21644966006352e-18
0 0

0101101
*
Ed
 3.62841242414798e-06 1 1 0
1  17 0 0.5 0.604139032212411
2  33 6 0 0.5 0.604139032212411
2  34 8 0 0.5 0.604139032212411
6  27 6 0
6  28 9 0
6  29 7 0
0

0101000
-37 0 +17 0 *
Ed
 3.62841242415324e-06 1 1 0
1  18 0 0.5 0.582883820605508
2  35 6 0 0.5 0.582883820605508
2  36 5 0 0.5 0.582883820605508
6  30 6 0
6  31 5 0
6  32 7 0
0

0101000
+17 0 -46 0 *
Wi

0101100
+44 0 +36 0 -16 0 +15 0 *
Fa
0  1e-10 6 0
2  7
0111000
+14 0 *
Ed
 1e-08 1 1 0
1  19 0 0.417116179394492 0.5
2  37 8 0 0.417116179394492 0.5
2  38 9 0 0.417116179394492 0.5
6  33 9 0
6  34 10 0
0

0101000
+28 0 -17 0 *
Wi

0101100
+35 0 +27 0 +12 0 +16 0 *
Fa
0  1e-10 8 0
2  9
0111000
+11 0 *
Ed
 1e-10 1 1 0
1  20 0 0.395860967787589 0.5
2  39 9 0 0.395860967787589 0.5
2  40 5 0 0.395860967787589 0.5
6  35 10 0
6  36 5 0
0

0101000
+22 0 -17 0 *
Wi

0101100
+26 0 +21 0 +9 0 -12 0 *
Fa
0  1e-10 9 0
2  10
0111000
+8 0 *
Wi

0101100
+20 0 +45 0 -15 0 -9 0 *
Fa
0  1e-10 5 0
2  5
0111000
+6 0 *
Wi

0101100
-23 0 -31 0 -40 0 -49 0 *
Fa
0  1e-07 3 0
2  3
0111000
+4 0 *
Sh

0101100
+42 0 +33 0 +24 0 +18 0 +13 0 +10 0 +7 0 +5 0 +3 0 *
So

1100000
-2 0 *

+1 0 