DBRep_DrawableShape

CASCADE Topology V1, (c) Matra-Datavision
Locations 0
Curve2ds 5
1 0 13.456327296063762 1 0 
1 6.2831853071795862 -0 0 1 
1 0 -0 0 1 
1 0 0 1 0 
2 0 0 1 0 -0 1 9.0040404429784004
Curves 2
1 10.846307412391726 -7.9643179127083448 -2.2052810273090002e-15 -0.80603772290560161 0.59186416452861268 1.6388431841681555e-16 
2 9.9503719020998922 0.99503719020998915 0 -0.99503719020998926 -0.099503719020998915 0 0.099503719020998901 -0.99503719020998915 0 0 0 1 9.0040404429784004
Polygon3D 0
PolygonOnTriangulations 0
Surfaces 2
3 9.9503719020998922 0.99503719020998915 0 -0.99503719020998926 -0.099503719020998915 0 0.099503719020998901 -0.99503719020998915 0 0 0 1 9.0040404429784004
-0.73303828583761843
1 9.9503719020998922 0.99503719020998915 0 -0.99503719020998926 -0.099503719020998915 0 0.099503719020998901 -0.99503719020998915 0 0 0 1 
Triangulations 0

TShapes 12
Ve
1e-07
-4.28985709083449e-16 -1.51035007666136e-16 -2.24053175326282e-32
0 0

0101101
*
Ed
 1e-07 1 1 1
2  1 1 0 0 6.28318530717959
0

0101100
+12 0 -12 0 *
Ve
1e-07
10.8463074123917 -7.96431791270834 -2.205281027309e-15
0 0

0101101
*
Ed
 1e-07 1 1 0
1  1 0 0 13.4563272960638
3  2 3CN 1 0 0 13.4563272960638
0

0101000
-12 0 +10 0 *
Ed
 1e-07 1 1 0
1  2 0 0 6.28318530717959
2  4 1 0 0 6.28318530717959
2  5 2 0 0 6.28318530717959
0

0101100
+10 0 -10 0 *
Wi

0101000
-11 0 +9 0 +8 0 -9 0 *
Fa
0  1e-07 1 0

0111000
+7 0 *
Wi

0101000
-8 0 *
Fa
0  1e-07 2 0

0111000
-5 0 *
Sh

0101100
+6 0 -4 0 *
So

0100100
+3 0 *
Co

1100000
+2 0 *

+1 0 