DBRep_DrawableShape

CASCADE Topology V1, (c) Matra-Datavision
Locations 0
Curve2ds 12
1 6.2831853071795862 -0 0 1 
1 0 -0 0 1 
1 0 0 1 0 
2 0 0 1 0 -0 1 10
7 0 0  8 65 10  0 0.32834238017635325  0.080752341213226733 0.54009879731381749  0.16077743751161322 0.83734809968749635  0.24064513381816968 1.2159238284659217  0.32069665061071617 1.6729403246071262  0.40122462583235796 2.2051261482297284  0.48232838841421682 2.8071089677946284  0.56412131210831318 3.4707963794814964  0.68391576023909717 4.5032232393627947  0.72192632855589767 4.839727221533173  0.75987649466427298 5.1831609154847955  0.79776060917007074 5.5317989880933665  0.83560313943809239 5.8840613583621435  0.87345759686121982 6.2385247573082427  0.91141410614133334 6.5939337040828603  0.99308823778523569 7.3535098569079249  1.0368703181653216 7.7575777220977313  1.081239122342976 8.1603622823988715  1.1265100067791607 8.5608771830603381  1.1731542852654551 8.9581391824806591  1.2217860363516782 9.351160572361481  1.2733232411107156 9.7388549988689466  1.3566180601686313 10.30227625539321  1.3847238716658035 10.483161140138336  1.4140877255089119 10.662235481722291  1.4449494346568561 10.839257250286609  1.4776469736505342 11.013876480689053  1.5126164786128431 11.185635272503619  1.5503922472486777 11.353967790020553  1.6254212815965801 11.652945244853194  1.6615716790649135 11.784888693829664  1.7004456887158195 11.913620447854363  1.7425252327375051 12.038607069899546  1.7883863980405035 12.159191847231121  1.8386994362576701 12.27459479140864  1.8942287637441828 12.383912638285301  2.0300905784642507 12.609318075202763  2.1121291683296564 12.72051721517219  2.2049018572343355 12.821606516293478  2.3106259185769491 12.910376517287109  2.4303799894937246 12.981437974058355  2.5611407858149833 13.032545845837479  2.6958329892677875 13.062384798968971  2.9077643950312821 13.081548926503869  2.9878616090249501 13.081436582841798  3.0640466461307199 13.074860863209784  3.1357917549383711 13.062875329010636  3.2028970463792805 13.046409388396116  3.2654355636776971 13.026253044999715  3.3236757344678365 13.003038793624668  3.4624499446778398 12.937062186443042  3.5371416559356761 12.89072338535262  3.6032927790781932 12.84010015080263  3.6621401397249835 12.786527562021741  3.7148591670182185 12.730886280996348  3.76250211175351 12.673708947186245  3.8059362645107728 12.615286572240338  3.943197450322288 12.410280886952904  4.0193644078155852 12.259007775304433  4.0835301214987778 12.102423859543963  4.1411381649920136 11.938459882953646  4.1949729714935726 11.763113087210652  4.2463041949716676 11.571051227277117  4.2960310713562375 11.35621658629009  4.3458267797307455 11.112429990451478 
 0 9 0.26765116654385779 7 0.3921185297616242 7 0.53376011594262995 7 0.60165457071129014 7 0.65735876247628633 7 0.72450452001472276 7 0.76783389112286526 7 0.83522999917916174 7 1 9
7 0 0  8 65 10  6.0812229601024912 -0.076858334935413261  6.0007074206514384 -0.061840560388297584  5.9226024642500228 -0.033478596204152444  5.8485045914039668 0.0071989354478642509  5.7796577345442488 0.058923468493696056  5.7164438443855383 0.12016663713119706  5.6587505229610766 0.18935631823945462  5.6061646991679126 0.26484360988963135  5.5360815120740847 0.38074643116672996  5.5148683807709871 0.41831129399804129  5.4946352244177206 0.45640671898813995  5.4752926222179141 0.49482162339482177  5.4567315516064419 0.53337594873981231  5.4388330836236687 0.57191853390257119  5.4214708501440096 0.61032485645286427  5.3852009153278182 0.6919311613286  5.3664134300169151 0.73505485328137232  5.3479154293469335 0.77777640035170903  5.3294726648770467 0.82001924847477747  5.3108414100212373 0.86171453362752082  5.2917451619470723 0.90279571043513041  5.2718571782289523 0.94319276457672985  5.2407276896711554 1.0018236266921163  5.2303878662746541 1.020637055388026  5.2197426644013021 1.0392566883300647  5.20875207499037 1.0576672344981968  5.1973882990576037 1.0758476001709156  5.18563574769522 1.0937708889252462  5.1734910420719 1.1114044016367446  5.1506843579501425 1.1429077639039447  5.1401738374313721 1.1568858268696856  5.129417862290798 1.1706158661997519  5.1184550594724296 1.1840688727763997  5.1073762724499705 1.1972147875411041  5.096324561226818 1.2100225014945596  5.0854952023360678 1.2224598556966824  5.0626483452609952 1.2489991501438671  5.0510396316100614 1.2627269603105526  5.0404721584690364 1.2760358063937682  5.0315438288221959 1.2889126621361222  5.0257110487010639 1.3010655895084002  5.024252480595635 1.3124628532698588  5.0286318305626816 1.3230631212496986  5.0443962204328896 1.3387488271481807  5.0527024541728771 1.3444139991050124  5.0630323465230269 1.3496579179272801  5.0752544018426793 1.3545283625597861  5.0892148610363215 1.3590599894174338  5.1047551828288427 1.363279024350722  5.1217374091961094 1.367207893663078  5.1686041389255957 1.3765656498229795  5.2003389572201533 1.3816020097298647  5.234812059300828 1.3860369369998919  5.2715830393806806 1.3899101392100253  5.3102504043368377 1.3932484110014842  5.3504610816278015 1.3960710766662463  5.3919199272107514 1.3983954327335499  5.5382526387551829 1.4047571439678246  5.6477038246935063 1.4063881832143734  5.7599528994824301 1.4054013968332038  5.8724894048065437 1.4018113473176241  5.983052218868794 1.3954164980914041  6.0895894594328892 1.3858346404830926  6.1902183868656842 1.3725383207003361  6.2831853071795871 1.3548902668041973 
 0 9 0.26765116654385779 7 0.3921185297616242 7 0.53376011594262995 7 0.60165457071129014 7 0.65735876247628633 7 0.72450452001472276 7 0.76783389112286526 7 0.83522999917916174 7 1 9
7 0 0  8 51 8  4.3458267797307455 11.112429990451478  4.3699944168840963 10.994111641673964  4.3944266645084955 10.867555647643396  4.4192521218539236 10.731447849273019  4.4445821117129549 10.584547722469743  4.4705106804207571 10.425688378134151  4.4971145978550888 10.253776562160494  4.5244533574362986 10.067792655436701  4.5911870637660366 9.5907086566143516  4.6273694467088591 9.3143891851235256  4.6615822539244487 9.0396531155527278  4.6942135650360965 8.7673925047634551  4.725653869731774 8.4970975675333644  4.7561921585695366 8.2282519157133862  4.7860279578375433 7.9607242704794903  4.8443705060613338 7.4304103108841542  4.8729225208624989 7.1672174317900108  4.9009816411900609 6.906217564629654  4.9286459301350414 6.6475991407352453  4.9559972460074775 6.3915039042158108  4.983104314857794 6.1380730078042323  5.0100246348262827 5.8874740010310829  5.0682335042026967 5.349378971208643  5.1002053244426291 5.0562246726364295  5.1327365976582513 4.7615245834205631  5.1658181841005177 4.466678437003532  5.1994135179195107 4.1733882050820537  5.2334549119886091 3.8836589912986343  5.267826671135202 3.5998149265594863  5.3401778903657444 3.0224363973731982  5.3782040217967211 2.7304785989775362  5.4159435954450537 2.4536873400052306  5.4531028937320309 2.1949148111455807  5.4894755041075127 1.9555970825739031  5.5249097188763754 1.7362079184738313  5.5592982634845844 1.5365327454843003  5.6357657349394312 1.1213601496385275  5.6771952443669127 0.91828087957503779  5.7170503454796471 0.74347425397925238  5.7554910366563128 0.59416306663294505  5.7926653153984038 0.46788635144305724  5.8287256381050376 0.36247010973521859  5.8638403717124277 0.27605934565305507  5.9221393669153466 0.15924382751093868  5.9456891833285734 0.11984531096075017  5.9688984902879119 0.088537627335325941  5.9918101696511306 0.064922880470211192  6.0144628238110842 0.048674627932538843  6.0368924182231511 0.039528998239679071  6.0591339239326878 0.037275808077888745  6.0812229601024885 0.041749679520960752 
 0 9 0.090745550603208117 7 0.21538718083346761 7 0.3399616933307254 7 0.48615585738965772 7 0.64658209741257577 7 0.85487713836232171 7 1 9
7 0 0  8 51 8  -8.8817841970012523e-16 1.3548902668041973  0.045120169403218391 1.3463250354429535  0.08904574225259676 1.3366384510819118  0.13152866457192047 1.325687372213971  0.17233850096301762 1.313332707189895  0.21126243460576521 1.2994394142183097  0.24810526725808391 1.2838765013657074  0.2826894192559406 1.2665170265564449  0.35903518528369993 1.2207579327420823  0.3942228296205057 1.1933535849166654  0.4226984180283786 1.1654411445742081  0.44616994426615086 1.1372511172228186  0.46573187187145226 1.1088121443780599  0.48214454039537102 1.0801158650151197  0.49591758508083927 1.0511740640884364  0.51891334042202519 0.99307254820305846  0.52815620801481611 0.96386872937031942  0.53552958991551947 0.9345560861114266  0.54130003400573123 0.90516522698618851  0.54565748102362299 0.87571563718148815  0.54874278651078523 0.84622312816767631  0.55066349190015718 0.81670440866511396  0.55247699781773463 0.7525290322449083  0.55198325766412282 0.71705848692862306  0.55002118690925794 0.68084666010181061  0.54657704671901453 0.64401008183603459  0.54163091593082235 0.60670570982739924  0.53516231266986658 0.56913803936767504  0.52716670538390265 0.53157299434157934  0.50731233573586376 0.45352784000449681  0.49514738194349661 0.4130969829839205  0.48132828406173722 0.37373500494114298  0.46603139103146152 0.33589530392383232  0.44945081083379801 0.29988876416213617  0.43178954746176945 0.26591893931987759  0.4132574645489111 0.23410003731189233  0.36912515184044725 0.16601098719746277  0.34299867124376959 0.13114098184752732  0.31589189986867439 0.099664986412308573  0.28798737865496715 0.071396725951606302  0.2594375873949657 0.046151817194924755  0.23036197109459255 0.023745928810155019  0.20083827377306473 0.0040032350210322436  0.15002141619974907 -0.025227942074281733  0.12896800458437596 -0.035999132314355607  0.10775101549328792 -0.045583754704334289  0.086393802596747449 -0.054020152297240456  0.064919293802724987 -0.061340612888653986  0.043349282462566308 -0.067572317263727075  0.021703718576639552 -0.072738287444199412  -8.8817841970012523e-16 -0.076858334935413261 
 0 9 0.090745550603208117 7 0.21538718083346761 7 0.3399616933307254 7 0.48615585738965772 7 0.64658209741257577 7 0.85487713836232171 7 1 9
7 0 0  4 8 3  6.0812229601024903 0.041749679520960745  6.0946223816260225 0.044463572913455957  6.1096315045590792 0.051442504576127097  6.1264014022209183 0.058713453213156047  6.2078677924307009 0.14679670952490453  6.2493905560189056 0.24321552264063151  6.2627832483613552 0.27484217432883906  6.2831853071795862 0.32834238017635325 
 0 5 0.33704266318435111 3 1 5
7 0 0  4 8 3  6.2831853071795862 -0.076858334935413247  6.2700196230093512 -0.079357595319948113  6.2551733582829883 -0.081559991526386863  6.2385285858096244 -0.084112098355425977  6.1569076764115449 -0.088392063665035228  6.1148590425302185 -0.08261350534715188  6.1015651910147115 -0.080652571920074162  6.0812229601024903 -0.076858334935413261 
 0 5 0.33704266318435111 3 1 5
1 6.2831853071795862 -6.2831853071795862 0 1 
1 0 -6.2831853071795862 0 1 
Curves 6
1 10 2.4492127076447545e-15 -10 -0.70710678118654757 -1.7318549141438708e-16 0.70710678118654746 
2 10 0 0 -1 0 0 0 0 -1 -0 -1 -0 10
7 0 0  8 65 10  9.7678268764263692 3.5214886562329184e-16 -9.7678268764263692  9.6180924779087 -0.78877488883690816 -9.6180924779087  9.4079054804972948 -1.5428137468755003 -9.3351084318080559  9.1402120154854387 -2.2407140748962604 -8.9285952506458646  8.8170525519499208 -2.8618617351458857 -8.4102287344264113  8.4407403472149003 -3.3863009714399879 -7.7960432708915395  8.0150742133429027 -3.7970563043027088 -7.1074296275830768  7.5457763439509158 -4.0816912723869336 -6.372646039892448  6.8157403102497183 -4.3164616723437268 -5.2815044988034137  6.5777960625607719 -4.3640642126453981 -4.9330747324966051  6.3349517686796259 -4.3850036013309124 -4.5859648732388587  6.0884274233582945 -4.3802380951664199 -4.2431908151320981  5.839340312584401 -4.3511951634508774 -3.9073285524431869  5.5886968395071879 -4.2995815289343771 -3.5804905162370066  5.3373847631484788 -4.2272365071552365 -3.2643375757583994  4.8002833146582873 -4.0322357618869837 -2.6139402889783647  4.514564187123038 -3.9040304696365831 -2.2832706159889962  4.2297524931767878 -3.7540351313926403 -1.9694967490698734  3.9465456909528278 -3.5847900627690357 -1.6736360414146165  3.6656390372550409 -3.398724195991794 -1.3963841740723002  3.3877309473189139 -3.1981469026168914 -1.1381618898561594  3.1135895893072618 -2.9852322233354678 -0.89915304852959133  2.7151905981543081 -2.6549467206912176 -0.57394323394156577  2.5872856695368869 -2.5456001943347975 -0.47301383595333274  2.4606609882663526 -2.4341498235133003 -0.37654140857503327  2.3354876952968877 -2.3208449386693957 -0.28453654248585752  2.2120132533537453 -2.2059615522881701 -0.19700944527928929  2.0905614469332567 -2.0898023588971317 -0.11396994146310518  1.9715323823028277 -1.9726967350662068 -0.035427472459374942  1.7601233965687699 -1.7584367367293121 0.099352251173495373  1.6668252890643669 -1.6614695725570368 0.15707069059375911  1.5757981928394662 -1.5643436625918377 0.21174059309697887  1.4874193048337172 -1.4673085580034304 0.26335657588936123  1.4021529910746913 -1.3706189454303239 0.31193150194267016  1.3205507866778758 -1.2745346469798187 0.35749647999422696  1.2432513958466769 -1.1793206202280087 0.40010086454691052  1.0838656828860216 -0.97185069305888061 0.48768031334832784  1.0052360169529069 -0.86160811124399594 0.5307104958127985  0.93375508661914719 -0.75187262757940132 0.57050874096614779  0.87098521695995412 -0.64246041236661944 0.60706129580512647  0.82073717898735132 -0.53547693138782637 0.63981888743353399  0.78459845628474945 -0.43148057764805059 0.66912866362783407  0.76349913018096294 -0.3303991590854663 0.69514873282415535  0.74994804564551532 -0.17408446925544316 0.73215969311897289  0.75002748461079827 -0.11573140666121132 0.74510666000229897  0.75467722055376663 -0.059853260945624924 0.7567544304818139  0.76315227306211819 -0.0060768362656356475 0.76729504075208566  0.77479545132926786 0.04587574566355157 0.7768691472756154  0.78904813842880095 0.096217438821355 0.78558633525730837  0.8054630929962554 0.1451454796822006 0.7935392725691871  0.85211559933406444 0.2672031894104005 0.81212352620083372  0.88488207981715294 0.33849162946130795 0.82176366487018038  0.92067811225304574 0.40734102638142761 0.82998903797159318  0.95855965306573143 0.47414234303601455 0.83698623751187984  0.99790398019269777 0.53917682606481454 0.8428884050974621  1.0383344606599876 0.6026816254565891 0.84779210236538616  1.0796453181572581 0.66491541412364219 0.85177418141433681  1.2246062284057995 0.87611125272515644 0.86257181664074967  1.3315724714636239 1.0199797743593788 0.86519976608695714  1.4422940201225942 1.1622988672278136 0.86347236782713299  1.55823405983992 1.3073117831038426 0.85762157063821431  1.682222968169125 1.4591918877477159 0.84717927478466837  1.8180312117354283 1.622198817968842 0.83072519898194341  1.9699422432111293 1.8008346386880745 0.8056347473599208  2.142325398290994 2 0.76782687642636815 
 0 9 0.26765116654385779 7 0.3921185297616242 7 0.53376011594262995 7 0.60165457071129014 7 0.65735876247628633 7 0.72450452001472276 7 0.76783389112286526 7 0.83522999917916174 7 1 9
7 0 0  8 51 8  2.142325398290994 2 0.76782687642636915  2.2259891050503726 2.0966620687369768 0.74947736527189623  2.3154777066291934 2.1992456585616291 0.727864529968268  2.4117204538292589 2.3087532477644683 0.70239190827982079  2.5155945296490199 2.4260353246082107 0.67224654208634038  2.6279250492835655 2.5517903873277783 0.63639897738306284  2.7494850601246301 2.6865649441302981 0.59360326428067511  2.880995541760591 2.8307535131951029 0.54239695700531365  3.2183448725234678 3.1959093163761212 0.39690950604144964  3.4137322445885157 3.4038695113436734 0.30218223107388742  3.6079999824185096 3.6068997725097391 0.1973994431980636  3.8005173065578286 3.8041143158644029 0.08313515979778005  3.9916446895932443 3.9956671560078205 -0.040467879768903689  4.1817472730879413 4.1815778573197946 -0.1735934164415498  4.3709178851876214 4.3614864703283462 -0.31630857431053966  4.7459064821753731 4.70719814375094 -0.61934409673543334  4.9320119517428838 4.8732723693533586 -0.77988569317449996  5.1165667277007225 5.0320238958519869 -0.94918226486128088  5.2994375689762068 5.1829417248458363 -1.1269386997902091  5.4805242473486961 5.3255391589786969 -1.3128625749052589  5.6597269527635472 5.4593218752222521 -1.5066468191318434  5.836927209811428 5.5837764127218152 -1.7079469045234763  6.2174178543216509 5.8328707950979215 -2.1609266022522178  6.4247092467761302 5.9569430668096741 -2.4210138310554359  6.6330936782767358 6.0684490781703317 -2.6964114597424316  6.841581387815074 6.1650197149866024 -2.9864430173260139  7.0489688996626585 6.2442082618080743 -3.2898350788711688  7.2538383914365445 6.3036468156323977 -3.6045747424521815  7.4545464544132347 6.341351821728912 -3.927740783200754  7.8628147277123741 6.3727372438340186 -4.6147502286298812  8.0692600667782539 6.3617844780865109 -4.9796930020100829  8.2649810429706996 6.3219927533114468 -5.3430436703980213  8.4479608529121712 6.2542138336686541 -5.6988031740515526  8.6171840416433874 6.1607816127980923 -6.0422335821391435  8.7723156072973598 6.0448492194188006 -6.369866223608363  8.9135072761528669 5.9098937315120796 -6.6793899665103416  9.2070786340382362 5.5639650431070118 -7.346095925908652  9.3506773630185442 5.341794912934029 -7.6909634353683085  9.4742843133736656 5.0985308725092908 -8.0040655155875307  9.5798632664532501 4.8389202390274049 -8.2861420859592201  9.6691543880699804 4.5668026601835239 -8.5384480310915798  9.7436949274287912 4.285119120744846 -8.7625258708525067  9.8047965646788029 3.9959279565474075 -8.9599788602774897  9.8873976097049159 3.4945477113230732 -9.2522650694759498  9.9152565679262441 3.285805322374753 -9.359944949669865  9.937394443321022 3.0747588518267515 -9.4557217105264542  9.954092590965347 2.8618966198406088 -9.5399791030630574  9.9655818405171654 2.6476440402354191 -9.6130510046319166  9.9720487772912083 2.4323705367373614 -9.6752253448415271  9.9736420233339196 2.2163964592292356 -9.7267480314779924  9.970478518498366 2 -9.7678268764263692 
 0 9 0.090745550603208117 7 0.21538718083346761 7 0.3399616933307254 7 0.48615585738965772 7 0.64658209741257577 7 0.85487713836232171 7 1 9
7 0 0  4 8 3  9.9704785184983642 2 -9.7678268764263692  9.9685595060771135 1.8687318291697883 -9.7927456983673462  9.9636246561729997 1.7208422060804651 -9.8146994832300436  9.9584833190860973 1.5548877842797686 -9.8401304183075791  9.8961990512390674 0.74404444407582981 -9.8827735288696985  9.8280206546509774 0.32971455730868898 -9.825201393434071  9.8056572347760227 0.1992837784591473 -9.8056572347760227  9.7678268764263692 2.3923485711817434e-15 -9.7678268764263692 
 0 5 0.33704266318435111 3 1 5
2 0 2 -9 -2.4492127076447545e-16 -1 0 1 -2.4492127076447545e-16 0 0 0 1 10
Polygon3D 0
PolygonOnTriangulations 0
Surfaces 3
3 10 0 0 -1 0 0 0 0 -1 -0 -1 -0 10
-0.78539816339744828
1 10 0 0 -1 0 0 0 0 -1 -0 -1 -0 
4 0 2 -9 0 0 1 1 0 -0 -0 1 0 10
Triangulations 0

TShapes 24
Ve
1e-07
10 2.44921270764475e-15 -10
0 0

0101101
*
Ve
0.00725002345777249
9.76782687642637 2.39234857118174e-15 -9.76782687642637
0 0

0101101
*
Ed
 1e-07 1 1 0
1  1 0 0 0.328342380176352
3  1 2CN 1 0 0 0.328342380176352
0

0101000
+24 0 -23 0 *
Ed
 1e-07 1 1 0
1  2 0 0 6.28318530717959
2  3 1 0 0 6.28318530717959
2  4 2 0 0 6.28318530717959
0

0101100
+24 0 -24 0 *
Ve
0.00725002345777249
2.14232539829099 2 0.76782687642637
0 0

0101101
*
Ed
 0.00725002345777249 1 1 0
1  3 0 0 1
2  5 1 0 0 1
2  6 3 0 0 1
0

0101000
+23 0 -20 0 *
Ve
0.00725002345777249
9.97047851849836 2 -9.76782687642637
0 0

0101101
*
Ed
 0.00725002345777249 1 1 0
1  4 0 0 1
2  7 1 0 0 1
2  8 3 0 0 1
0

0101000
+20 0 -18 0 *
Ed
 0.00725002345777249 1 1 0
1  5 0 0 1
2  9 1 0 0 1
2  10 3 0 0 1
0

0101000
+18 0 -23 0 *
Wi

0101000
+22 0 +21 0 -22 0 -19 0 -17 0 -16 0 *
Fa
0  1e-07 1 0

0101000
+15 0 *
Wi

0101000
+21 0 *
Ve
2.00001e-07
10 2 -9
0 0

0101101
*
Fa
0  1e-07 2 0

0101000
+13 0 i12 0 *
Ed
 1e-07 1 1 0
1  6 0 6.28318530717959 7.63807557398378
3  11 12CN 3 0 6.28318530717959 7.63807557398378
0

0101000
+12 0 -20 0 *
Ed
 1e-07 1 1 0
1  6 0 6.20632697224417 6.28318530717959
3  11 12CN 3 0 6.20632697224417 6.28318530717959
0

0101000
+18 0 -12 0 *
Wi

0101000
-19 0 +10 0 +9 0 -16 0 *
Fa
0  1e-07 3 0

0101000
+8 0 *
Wi

0101000
-17 0 -9 0 -10 0 *
Fa
0  1e-07 3 0

0101000
+6 0 *
Sh

0101000
+14 0 -11 0 -7 0 -5 0 *
So

0100000
+4 0 *
Co

0100000
+3 0 *
Co

1100000
+2 0 *

+1 0 