DBRep_DrawableShape

CASCADE Topology V1, (c) Matra-Datavision
Locations 0
Curve2ds 5
1 0 14.142135623730951 1 0 
1 6.2831853071795862 -0 0 1 
1 0 -0 0 1 
1 0 0 1 0 
2 0 0 1 0 -0 1 10
Curves 2
1 10 2.4492127076447545e-15 -10 -0.70710678118654757 -1.7318549141438708e-16 0.70710678118654746 
2 10 0 0 -1 0 0 0 0 -1 -0 -1 -0 10
Polygon3D 0
PolygonOnTriangulations 0
Surfaces 2
3 10 0 0 -1 0 0 0 0 -1 -0 -1 -0 10
-0.78539816339744828
1 10 0 0 -1 0 0 0 0 -1 -0 -1 -0 
Triangulations 0

TShapes 12
Ve
1e-07
-1.77635683940025e-15 1.2661146209204e-31 -5.16947595841089e-16
0 0

0101101
*
Ed
 1e-07 1 1 1
2  1 1 0 0 6.28318530717959
0

0101100
+12 0 -12 0 *
Ve
1e-07
10 2.44921270764475e-15 -10
0 0

0101101
*
Ed
 1e-07 1 1 0
1  1 0 0 14.142135623731
3  2 3CN 1 0 0 14.142135623731
0

0101000
-12 0 +10 0 *
Ed
 1e-07 1 1 0
1  2 0 0 6.28318530717959
2  4 1 0 0 6.28318530717959
2  5 2 0 0 6.28318530717959
0

0101100
+10 0 -10 0 *
Wi

0101000
-11 0 +9 0 +8 0 -9 0 *
Fa
0  1e-07 1 0

0111000
+7 0 *
Wi

0101000
-8 0 *
Fa
0  1e-07 2 0

0111000
-5 0 *
Sh

0101100
+6 0 -4 0 *
So

0100100
+3 0 *
Co

1100000
+2 0 *

+1 0 