DBRep_DrawableShape

CASCADE Topology V1, (c) Matra-Datavision
Locations 0
Curve2ds 2
1 49.999922381340497 0 0.99999999999995237 3.0884721209676802e-07 
8 0 17.5
1 -938.96094000000005 0 -0 1 
Curves 14
1 469.48047000000003 187.5 0 -1 0 0 
1 -469.48047000000003 187.5 0 0 1 0 
1 -469.48047000000003 205 0 1 0 0 
1 469.48047000000003 187.5 0 0 1 0 
2 -469.48048544233666 137.50007761866189 0 0 0 1 3.0884721209676802e-07 0.99999999999995237 -0 -0.99999999999995237 3.0884721209676802e-07 0 49.99992238134049
2 -174.99978595568987 -0.00013042121140571794 0 0 0 1 -0.90609381360017172 0.42307682630403842 0 -0.42307682630403842 -0.90609381360017172 0 375.00021404433278
1 -550 0 0 -1 0 0 
2 -174.99924055839591 -0.00019966025108786312 0 0 0 1 -0.90609393965891238 0.42307655632685615 0 -0.42307655632685615 -0.90609393965891238 0 392.50075944165491
2 -469.48033421969541 137.4998021150015 0 0 0 1 -2.0115541712728046e-06 0.99999999999797684 0 -0.99999999999797684 -2.0115541712728046e-06 0 67.50019788513508
2 174.99978595569002 -0.00013042121137374352 0 0 0 1 0.9999999999999396 3.4778969848354563e-07 -0 -3.4778969848354563e-07 0.9999999999999396 0 375.00021404433272
2 469.48048544233666 137.50007761866186 0 0 0 1 0.90609489775069429 0.42307450439628103 -0 -0.42307450439628103 0.90609489775069429 0 49.999922381340504
2 469.48033421969541 137.4998021150015 0 0 0 -1 2.0115541712728046e-06 0.99999999999797684 0 0.99999999999797684 -2.0115541712728046e-06 0 67.50019788513508
2 174.99924055839591 -0.00019966025108786312 0 0 0 -1 0.90609393965891238 0.42307655632685615 0 0.42307655632685615 -0.90609393965891238 0 392.50075944165491
1 567.5 0 0 -1 0 0 
Polygon3D 0
PolygonOnTriangulations 0
Surfaces 3
1 -469.48047000000003 187.5 0 0 0 -1 -1 0 0 0 1 0 
1 -469.48048544233666 137.50007761866189 0 0 0 1 3.0884721209676802e-07 0.99999999999995237 -0 -0.99999999999995237 3.0884721209676802e-07 0 
1 174.99978595569002 -0.00013042121137374352 0 0 0 1 0.9999999999999396 3.4778969848354563e-07 -0 -3.4778969848354563e-07 0.9999999999999396 0 
Triangulations 0

TShapes 33
Ve
1.00000014210855e-07
469.48047 187.5 0
0 0

0101101
*
Ve
1e-07
-469.48047 187.5 0
0 0

0101101
*
Ed
 1e-07 1 1 0
1  1 0 0 938.96094
0

0101000
+33 0 -32 0 *
Ve
1e-07
-469.48047 205 0
0 0

0101101
*
Ed
 1e-07 1 1 0
1  2 0 0 17.5
2  1 2 0 0 17.5
0

0101000
+32 0 -30 0 *
Ve
1e-07
469.48047 205 0
0 0

0101101
*
Ed
 1e-07 1 1 0
1  3 0 0 938.96094
0

0101000
+30 0 -28 0 *
Ed
 1e-07 1 1 0
1  4 0 0 17.5
2  2 1 0 0 17.5
0

0101000
+33 0 -28 0 *
Wi

0101000
+31 0 +29 0 +27 0 -26 0 *
Fa
0  1e-07 1 0

0101000
+25 0 *
Ve
1e-07
-514.78516 158.65377 0
0 0

0101101
*
Ed
 1e-07 1 1 0
1  5 0 0 1.13396085545075
0

0101000
+32 0 -23 0 *
Ve
1.0000003375078e-07
-550 -3.37507799486048e-14 0
0 0

0101101
*
Ed
 1e-07 1 1 0
1  6 0 0 0.436837994946876
0

0101000
+23 0 -21 0 *
Ve
1.00000057092673e-07
-567.5 5.32907051851575e-15 0
0 0

0101101
*
Ed
 1e-07 1 1 0
1  7 0 0 17.5
0

0101000
+21 0 -19 0 *
Ve
1.00000058592855e-07
-530.6418 166.05767 0
0 0

0101101
*
Ed
 1e-07 1 1 0
1  8 0 0 0.436837536091835
0

0101000
+17 0 -19 0 *
Ed
 1e-07 1 1 0
1  9 0 0 1.13395436383074
0

0101000
+30 0 -17 0 *
Wi

0101000
+22 0 +20 0 +18 0 -16 0 -15 0 -29 0 *
Fa
0  1e-07 2 0

0101000
-14 0 *
Ve
1.00000056843419e-07
550 1.35525271560684e-20 0
0 0

0101101
*
Ve
1.00000063552874e-07
514.78516 158.65377 0
0 0

0101101
*
Ed
 1e-07 1 1 0
1  10 0 0 0.436837994946877
0

0101000
+12 0 -11 0 *
Ed
 1e-07 1 1 0
1  11 0 0 1.13396085545075
0

0101000
+11 0 -33 0 *
Ve
1.00000058592855e-07
530.6418 166.05767 0
0 0

0101101
*
Ed
 1e-07 1 1 0
1  12 0 0 1.13395436383074
0

0101000
+28 0 -8 0 *
Ve
1.00000057092673e-07
567.5 5.32907051788575e-15 0
0 0

0101101
*
Ed
 1e-07 1 1 0
1  13 0 0 0.436837536091835
0

0101000
+8 0 -6 0 *
Ed
 1e-07 1 1 0
1  14 0 0 17.5
0

0101000
+6 0 -12 0 *
Wi

0101000
+10 0 +9 0 +26 0 +7 0 +5 0 +4 0 *
Fa
0  1e-07 3 0

0101000
-3 0 *
Sh

0101000
+24 0 -13 0 -2 0 *

+1 0 
0

