DBRep_DrawableShape

CASCADE Topology V1, (c) Matra-Datavision
Locations 0
Curve2ds 10
1 0 300 1 0 
2 0 0 1 0 -0 1 100
1 6.2831853071795862 -0 0 1 
1 0 -0 0 1 
1 0 0 1 0 
2 0 0 1 0 -0 1 100
1 0 1.0471975511965976 1 0 
1 6.2831853071795862 -6.2831853071795862 0 1 
1 0 -6.2831853071795862 0 1 
1 0 1.5707963267948966 1 0 
Curves 4
2 0 0 300 0 0 1 1 0 -0 -0 1 0 100
1 100 -2.4492127076447545e-14 0 0 0 1 
2 0 0 0 0 0 1 1 0 -0 -0 1 0 100
2 0 0 -173.20508075688772 -2.4492127076447545e-16 -1 0 1 -2.4492127076447545e-16 0 0 0 1 200
Polygon3D 0
PolygonOnTriangulations 0
Surfaces 4
1 0 0 300 0 0 1 1 0 -0 -0 1 0 
2 0 0 0 0 0 1 1 0 -0 -0 1 0 100
1 0 0 0 0 0 1 1 0 -0 -0 1 0 
4 0 0 -173.20508075688772 0 0 1 1 0 -0 -0 1 0 200
Triangulations 0

TShapes 17
Ve
1e-07
100 -2.44921270764475e-14 300
0 0

0101101
*
Ed
 1e-07 1 1 0
1  1 0 0 6.28318530717959
2  1 2 0 0 6.28318530717959
2  2 1 0 0 6.28318530717959
0

0101100
+17 0 -17 0 *
Wi

0101000
+16 0 *
Fa
0  1e-07 1 0

0111000
+15 0 *
Ve
1e-07
100 -2.44921270764475e-14 0
0 0

0101101
*
Ed
 1e-07 1 1 0
1  2 0 0 300
3  3 4CN 2 0 0 300
0

0101000
-17 0 +13 0 *
Ed
 1e-07 1 1 0
1  3 0 0 6.28318530717959
2  5 2 0 0 6.28318530717959
2  6 3 0 0 6.28318530717959
2  7 4 0 0 6.28318530717959
0

0101100
+13 0 -13 0 *
Wi

0101000
+12 0 +11 0 -12 0 -16 0 *
Fa
0  1e-07 2 0

0111000
+10 0 *
Ve
1e-07
1.22460635382238e-14 -2.99932144364427e-30 26.7949192431123
0 0

0101101
*
Ed
 1e-07 1 1 0
1  4 0 7.33038285837618 7.85398163397448
3  8 9CN 4 0 7.33038285837618 7.85398163397448
0

0101000
+13 0 -8 0 *
Ed
 1e-07 1 1 1
2  10 4 0 0 6.28318530717959
0

0101100
-8 0 +8 0 *
Wi

0101000
+7 0 +11 0 -7 0 -6 0 *
Fa
0  1e-07 4 0

0111000
+5 0 *
Sh

0101000
+14 0 +9 0 -4 0 *
So

0100000
+3 0 *
Co

1100000
+2 0 *

+1 0 