DBRep_DrawableShape

CASCADE Topology V1, (c) Matra-Datavision
Locations 0
Curve2ds 5
1 0 11.547005383792516 1 0 
1 6.2831853071795862 -0 0 1 
1 0 -0 0 1 
1 0 0 1 0 
2 0 0 1 0 -0 1 5.7735026918962573
Curves 2
1 11.52626080747077 -0.69184183994364246 -1.4140536160613509e-15 -0.99820346699146234 0.05991526087921617 1.224606353822377e-16 
2 8.9442719099991592 4.4721359549995796 0 -0.89442719099991597 -0.44721359549995798 0 0.44721359549995793 -0.89442719099991586 0 0 0 1 5.7735026918962573
Polygon3D 0
PolygonOnTriangulations 0
Surfaces 2
3 8.9442719099991592 4.4721359549995796 0 -0.89442719099991597 -0.44721359549995798 0 0.44721359549995793 -0.89442719099991586 0 0 0 1 5.7735026918962573
-0.52359877559829882
1 8.9442719099991592 4.4721359549995796 0 -0.89442719099991597 -0.44721359549995798 0 0.44721359549995793 -0.89442719099991586 0 0 0 1 
Triangulations 0

TShapes 12
Ve
1e-07
-2.14364626285661e-15 -7.95447258898824e-16 6.05440716379721e-32
0 0

0101101
*
Ed
 1e-07 1 1 1
2  1 1 0 0 6.28318530717959
0

0101100
+12 0 -12 0 *
Ve
1e-07
11.5262608074708 -0.691841839943642 -1.41405361606135e-15
0 0

0101101
*
Ed
 1e-07 1 1 0
1  1 0 0 11.5470053837925
3  2 3CN 1 0 0 11.5470053837925
0

0101000
-12 0 +10 0 *
Ed
 1e-07 1 1 0
1  2 0 0 6.28318530717959
2  4 1 0 0 6.28318530717959
2  5 2 0 0 6.28318530717959
0

0101100
+10 0 -10 0 *
Wi

0101000
-11 0 +9 0 +8 0 -9 0 *
Fa
0  1e-07 1 0

0111000
+7 0 *
Wi

0101000
-8 0 *
Fa
0  1e-07 2 0

0111000
-5 0 *
Sh

0101100
+6 0 -4 0 *
So

0100100
+3 0 *
Co

1100000
+2 0 *

+1 0 