DBRep_DrawableShape

CASCADE Topology V1, (c) Matra-Datavision
Locations 4
1
              1               0               0               0 
              0               1               0            -100 
              0               0               1               0 
1
              1               0               0               0 
              0               1               0              50 
              0               0               1               0 
1
              1               0               0             -50 
              0               1               0               0 
              0               0               1               0 
2  1 1 2 1 3 1 0
Curve2ds 32
1 0 0 1 0 
1 0 0 1 0 
1 40 0 0 -1 
1 0 0 0 1 
1 0 -100 1 0 
1 0 0 1 0 
1 0 0 0 -1 
1 0 0 0 1 
1 0 0 0 1 
1 0 0 1 0 
1 0 0 1 0 
1 0 100 1 0 
1 40 0 0 1 
1 0 0 1 0 
1 40 0 0 1 
1 0 100 1 0 
1 40 0 0 -1 
1 100 0 0 1 
1 0 0 1 0 
1 0 6.2831853071795862 1 0 
1 0 0 0 1 
1 0 100 1 0 
1 0 -100 1 0 
1 0 100 1 0 
1 0 0 0 -1 
1 100 0 0 1 
1 6.2831853071795862 -0 0 1 
1 0 -0 0 1 
8 0.5 1
7 0 0  4 101 34  35 50  35.000000070685779 49.293142201118577  35.044413266040301 48.586280857660846  35.133239302028542 47.883617650857794  35.398143179804791 46.49494289220587  35.574222441971607 45.808924190152439  35.793141006239267 45.135351455883018  36.313564417112936 43.820911963577267  36.615071917678222 43.180038502404955  36.956327776722738 42.559417841453211  37.71383445821629 41.365778309177692  38.130089143658203 40.792753350751155  38.581593138542281 40.247070559437283  39.549348038814422 39.216516262703045  40.065603879380603 38.731639501851788  40.611361255991376 38.280225665104304  41.755081175232995 37.449264503648308  42.353049550395689 37.069712941357359  42.973726581583584 36.728559619391923  44.252894671462336 36.126628806628375  44.911392253418761 35.865848246214476  45.585001145919904 35.647040965541244  46.954302239132069 35.295464200600421  47.650001422752283 35.162692923426476  48.352679245727117 35.073983041048045  49.763605168390676 34.985215106103986  50.471860463259269 34.985156600856001  51.178714504514026 35.029686708581288  52.581282502412023 35.206872251983995  53.277003611612585 35.339528591239521  53.9629932143392 35.515721187802242  55.307516616905957 35.95258332334209  55.966057273298816 36.213255090148245  56.606880913825265 36.514868464975542  57.845729309222818 37.195931133706686  58.443760381744504 37.57538390076833  59.016716563127417 37.991733249689894  60.106003129330034 38.892869467033748  60.622339069092632 39.377660930904455  61.107130532963367 39.89399687066679  62.008266750307605 40.98328343686925  62.424616099229333 41.55623961825205  62.804068866291189 42.154270690773714  63.485131535022703 43.393119086171161  63.786744909850206 44.033942726697568  64.047416676656539 44.69248338309044  64.484278812196777 46.037006785657233  64.660471408759619 46.722996388383642  64.79312774801538 47.418717497584431  64.970313291418421 48.821285495482414  65.014843399143885 49.528139536737207  65.014784893896064 50.23639483160585  64.926016958952331 51.647320754269522  64.837307076574049 52.349998577244463  64.704535799400233 53.045697760864705  64.352959034459673 54.414998854077083  64.134151753786597 55.088607746578262  63.873371193372783 55.747105328534843  63.271440380609441 57.026273418413822  62.930287058644161 57.646950449601739  62.550735496353248 58.244918824764639  61.719774334897465 59.388638744006414  61.268360498149931 59.934396120617443  60.783483737298845 60.450651961183617  59.752929440564635 61.418406861456077  59.207246649250884 61.869910856340219  58.634221690824276 62.286165541782317  57.4405821585488 63.043672223276118  56.819961497597184 63.384928082320684  56.179088036424758 63.686435582886141  54.864648544119092 64.206858993760008  54.191075809849465 64.425777558027818  53.505057107796205 64.601856820194726  52.116382329779213 64.866760701665243  51.413719172108102 64.955586671876787  50.706857783703512 64.999999999999915  49.293142216300126 65.000000000000085  48.586280827895543 64.955586671877143  47.883617670224361 64.866760701665754  46.494942892207376 64.601856820195579  45.808924190153931 64.425777558028827  45.135351455884397 64.206858993761202  43.82091196357856 63.68643558288764  43.180038502406063 63.384928082322347  42.559417841454355 63.043672223277916  41.365778309178758 62.286165541784442  40.792753350751894 61.869910856342379  40.247070559438178 61.418406861458486  39.216516262703742 60.450651961186281  38.731639501852392 59.934396120620086  38.280225665104837 59.388638744009292  37.449264503648742 58.244918824767666  37.069712941357722 57.64695044960493  36.728559619392243 57.026273418417006  36.126628806628602 55.747105328538218  35.865848246214647 55.088607746581715  35.647040965541393 54.414998854080586  35.236868485680333 52.817482518853595  35.078957358393936 51.884965980868202  35.00000009424754 50.942475446153495  35 50 
 0 5 0.030000001300671389 3 0.060000003438037186 3 0.090000005575404218 3 0.12000000771277503 3 0.15000000985014711 3 0.18000001198751853 3 0.21000001412489008 3 0.24000001626226142 3 0.27000001839963245 3 0.30000002053700681 3 0.33000002267438461 3 0.36000002481176296 3 0.39000002694914243 3 0.42000002908652079 3 0.45000003122389803 3 0.48000003336127511 3 0.51000003549865236 3 0.54000003763602877 3 0.57000003977340563 3 0.6000000419107846 3 0.6300000440481629 3 0.66000004618553976 3 0.69000004832291784 3 0.72000005046029414 3 0.750000052597668 3 0.78000005473504119 3 0.81000005687241661 3 0.8400000590097918 3 0.87000006114716411 3 0.90000006328453241 3 0.93000006542190028 3 0.96000006755926792 3 1 5
8 0.5 1
7 0 0  4 101 34  6.2831853071795862 3.141592653589794  6.2360614539208239 3.141592653589794  6.1889375295759708 3.141592653589794  6.1418135988967091 3.141592653589794  6.0475658957174367 3.141592653589794  6.0004419683565215 3.141592653589794  5.9533180409956099 3.141592653589794  5.8590703365020573 3.141592653589794  5.8119464091411519 3.141592653589794  5.7648224817802305 3.141592653589794  5.6705747772866806 3.141592653589794  5.6234508499257778 3.141592653589794  5.5763269225648546 3.141592653589794  5.4820792180713083 3.141592653589794  5.434955290710394 3.141592653589794  5.3878313633494832 3.141592653589794  5.2935836588559315 3.141592653589794  5.2464597314950208 3.141592653589794  5.1993358041341056 3.141592653589794  5.1050880996405557 3.141592653589794  5.0579641722796413 3.141592653589794  5.0108402449187297 3.141592653589794  4.9165925404251798 3.141592653589794  4.8694686130642681 3.141592653589794  4.8223446857033547 3.141592653589794  4.7280969812098057 3.141592653589794  4.6809730538488896 3.141592653589794  4.6338491264879789 3.141592653589794  4.5396014219944236 3.141592653589794  4.4924774946335235 3.141592653589794  4.4453535672725986 3.141592653589794  4.3511058627790522 3.141592653589794  4.3039819354181406 3.141592653589794  4.2568580080572263 3.141592653589794  4.1626103035636763 3.141592653589794  4.1154863762027638 3.141592653589794  4.0683624488418495 3.141592653589794  3.9741147443483005 3.141592653589794  3.9269908169873782 3.141592653589794  3.8798668896264683 3.141592653589794  3.7856191851329104 3.141592653589794  3.7384952577719912 3.141592653589794  3.6913713304110765 3.141592653589794  3.5971236259175212 3.141592653589794  3.5499996985566056 3.141592653589794  3.5028757711956873 3.141592653589794  3.4086280667021307 3.141592653589794  3.3615041393412155 3.141592653589794  3.3143802119802981 3.141592653589794  3.2201325074867415 3.141592653589794  3.1730085801258276 3.141592653589794  3.1258846527649098 3.141592653589794  3.0316369482713541 3.141592653589794  2.9845130209104354 3.141592653589794  2.9373890935495215 3.141592653589794  2.8431413890559627 3.141592653589794  2.7960174616950511 3.141592653589794  2.7488935343341292 3.141592653589794  2.6546458298405726 3.141592653589794  2.6075219024796628 3.141592653589794  2.56039797511874 3.141592653589794  2.4661502706251888 3.141592653589794  2.4190263432642638 3.141592653589794  2.3719024159033557 3.141592653589794  2.2776547114097965 3.141592653589794  2.2305307840488817 3.141592653589794  2.1834068566879634 3.141592653589794  2.0891591521944064 3.141592653589794  2.042035224833493 3.141592653589794  1.9949112974725738 3.141592653589794  1.9006635929790221 3.141592653589794  1.8535396656180942 3.141592653589794  1.8064157382571888 3.141592653589794  1.7121680337636296 3.141592653589794  1.6650441064027104 3.141592653589794  1.6179201790417979 3.141592653589794  1.5236724745482384 3.141592653589794  1.4765485471873268 3.141592653589794  1.4294246198264042 3.141592653589794  1.3351769153328499 3.141592653589794  1.2880529879719351 3.141592653589794  1.240929060611017 3.141592653589794  1.146681356117462 3.141592653589794  1.0995574287565437 3.141592653589794  1.0524335013956287 3.141592653589794  0.95818579690207695 3.141592653589794  0.91106186954114787 3.141592653589794  0.86393794218024389 3.141592653589794  0.76969023768668499 3.141592653589794  0.72256631032576457 3.141592653589794  0.67544238296485037 3.141592653589794  0.58119467847129447 3.141592653589794  0.53407075111037805 3.141592653589794  0.48694682374946019 3.141592653589794  0.39269911925590695 3.141592653589794  0.3455751918949867 3.141592653589794  0.29845126453407467 3.141592653589794  0.18849571988983715 3.141592653589794  0.12566370268545124 3.1415926535897931  0.062831696410233659 3.1415926535897944  0 3.1415926535897944 
 0 5 0.030000001300671389 3 0.060000003438037186 3 0.090000005575404218 3 0.12000000771277503 3 0.15000000985014711 3 0.18000001198751853 3 0.21000001412489008 3 0.24000001626226142 3 0.27000001839963245 3 0.30000002053700681 3 0.33000002267438461 3 0.36000002481176296 3 0.39000002694914243 3 0.42000002908652079 3 0.45000003122389803 3 0.48000003336127511 3 0.51000003549865236 3 0.54000003763602877 3 0.57000003977340563 3 0.6000000419107846 3 0.6300000440481629 3 0.66000004618553976 3 0.69000004832291784 3 0.72000005046029414 3 0.750000052597668 3 0.78000005473504119 3 0.81000005687241661 3 0.8400000590097918 3 0.87000006114716411 3 0.90000006328453241 3 0.93000006542190028 3 0.96000006755926792 3 1 5
8 0 0.5
7 0 0  4 101 34  35 50  35.000000070685779 49.293142201118577  35.044413266040301 48.586280857660846  35.133239302028542 47.883617650857794  35.398143179804791 46.49494289220587  35.574222441971607 45.808924190152439  35.793141006239267 45.135351455883018  36.313564417112936 43.820911963577267  36.615071917678222 43.180038502404955  36.956327776722738 42.559417841453211  37.71383445821629 41.365778309177692  38.130089143658203 40.792753350751155  38.581593138542281 40.247070559437283  39.549348038814422 39.216516262703045  40.065603879380603 38.731639501851788  40.611361255991376 38.280225665104304  41.755081175232995 37.449264503648308  42.353049550395689 37.069712941357359  42.973726581583584 36.728559619391923  44.252894671462336 36.126628806628375  44.911392253418761 35.865848246214476  45.585001145919904 35.647040965541244  46.954302239132069 35.295464200600421  47.650001422752283 35.162692923426476  48.352679245727117 35.073983041048045  49.763605168390676 34.985215106103986  50.471860463259269 34.985156600856001  51.178714504514026 35.029686708581288  52.581282502412023 35.206872251983995  53.277003611612585 35.339528591239521  53.9629932143392 35.515721187802242  55.307516616905957 35.95258332334209  55.966057273298816 36.213255090148245  56.606880913825265 36.514868464975542  57.845729309222818 37.195931133706686  58.443760381744504 37.57538390076833  59.016716563127417 37.991733249689894  60.106003129330034 38.892869467033748  60.622339069092632 39.377660930904455  61.107130532963367 39.89399687066679  62.008266750307605 40.98328343686925  62.424616099229333 41.55623961825205  62.804068866291189 42.154270690773714  63.485131535022703 43.393119086171161  63.786744909850206 44.033942726697568  64.047416676656539 44.69248338309044  64.484278812196777 46.037006785657233  64.660471408759619 46.722996388383642  64.79312774801538 47.418717497584431  64.970313291418421 48.821285495482414  65.014843399143885 49.528139536737207  65.014784893896064 50.23639483160585  64.926016958952331 51.647320754269522  64.837307076574049 52.349998577244463  64.704535799400233 53.045697760864705  64.352959034459673 54.414998854077083  64.134151753786597 55.088607746578262  63.873371193372783 55.747105328534843  63.271440380609441 57.026273418413822  62.930287058644161 57.646950449601739  62.550735496353248 58.244918824764639  61.719774334897465 59.388638744006414  61.268360498149931 59.934396120617443  60.783483737298845 60.450651961183617  59.752929440564635 61.418406861456077  59.207246649250884 61.869910856340219  58.634221690824276 62.286165541782317  57.4405821585488 63.043672223276118  56.819961497597184 63.384928082320684  56.179088036424758 63.686435582886141  54.864648544119092 64.206858993760008  54.191075809849465 64.425777558027818  53.505057107796205 64.601856820194726  52.116382329779213 64.866760701665243  51.413719172108102 64.955586671876787  50.706857783703512 64.999999999999915  49.293142216300126 65.000000000000085  48.586280827895543 64.955586671877143  47.883617670224361 64.866760701665754  46.494942892207376 64.601856820195579  45.808924190153931 64.425777558028827  45.135351455884397 64.206858993761202  43.82091196357856 63.68643558288764  43.180038502406063 63.384928082322347  42.559417841454355 63.043672223277916  41.365778309178758 62.286165541784442  40.792753350751894 61.869910856342379  40.247070559438178 61.418406861458486  39.216516262703742 60.450651961186281  38.731639501852392 59.934396120620086  38.280225665104837 59.388638744009292  37.449264503648742 58.244918824767666  37.069712941357722 57.64695044960493  36.728559619392243 57.026273418417006  36.126628806628602 55.747105328538218  35.865848246214647 55.088607746581715  35.647040965541393 54.414998854080586  35.236868485680333 52.817482518853595  35.078957358393936 51.884965980868202  35.00000009424754 50.942475446153495  35 50 
 0 5 0.030000001300671389 3 0.060000003438037186 3 0.090000005575404218 3 0.12000000771277503 3 0.15000000985014711 3 0.18000001198751853 3 0.21000001412489008 3 0.24000001626226142 3 0.27000001839963245 3 0.30000002053700681 3 0.33000002267438461 3 0.36000002481176296 3 0.39000002694914243 3 0.42000002908652079 3 0.45000003122389803 3 0.48000003336127511 3 0.51000003549865236 3 0.54000003763602877 3 0.57000003977340563 3 0.6000000419107846 3 0.6300000440481629 3 0.66000004618553976 3 0.69000004832291784 3 0.72000005046029414 3 0.750000052597668 3 0.78000005473504119 3 0.81000005687241661 3 0.8400000590097918 3 0.87000006114716411 3 0.90000006328453241 3 0.93000006542190028 3 0.96000006755926792 3 1 5
8 0 0.5
7 0 0  4 101 34  6.2831853071795862 3.141592653589794  6.2360614539208239 3.141592653589794  6.1889375295759708 3.141592653589794  6.1418135988967091 3.141592653589794  6.0475658957174367 3.141592653589794  6.0004419683565215 3.141592653589794  5.9533180409956099 3.141592653589794  5.8590703365020573 3.141592653589794  5.8119464091411519 3.141592653589794  5.7648224817802305 3.141592653589794  5.6705747772866806 3.141592653589794  5.6234508499257778 3.141592653589794  5.5763269225648546 3.141592653589794  5.4820792180713083 3.141592653589794  5.434955290710394 3.141592653589794  5.3878313633494832 3.141592653589794  5.2935836588559315 3.141592653589794  5.2464597314950208 3.141592653589794  5.1993358041341056 3.141592653589794  5.1050880996405557 3.141592653589794  5.0579641722796413 3.141592653589794  5.0108402449187297 3.141592653589794  4.9165925404251798 3.141592653589794  4.8694686130642681 3.141592653589794  4.8223446857033547 3.141592653589794  4.7280969812098057 3.141592653589794  4.6809730538488896 3.141592653589794  4.6338491264879789 3.141592653589794  4.5396014219944236 3.141592653589794  4.4924774946335235 3.141592653589794  4.4453535672725986 3.141592653589794  4.3511058627790522 3.141592653589794  4.3039819354181406 3.141592653589794  4.2568580080572263 3.141592653589794  4.1626103035636763 3.141592653589794  4.1154863762027638 3.141592653589794  4.0683624488418495 3.141592653589794  3.9741147443483005 3.141592653589794  3.9269908169873782 3.141592653589794  3.8798668896264683 3.141592653589794  3.7856191851329104 3.141592653589794  3.7384952577719912 3.141592653589794  3.6913713304110765 3.141592653589794  3.5971236259175212 3.141592653589794  3.5499996985566056 3.141592653589794  3.5028757711956873 3.141592653589794  3.4086280667021307 3.141592653589794  3.3615041393412155 3.141592653589794  3.3143802119802981 3.141592653589794  3.2201325074867415 3.141592653589794  3.1730085801258276 3.141592653589794  3.1258846527649098 3.141592653589794  3.0316369482713541 3.141592653589794  2.9845130209104354 3.141592653589794  2.9373890935495215 3.141592653589794  2.8431413890559627 3.141592653589794  2.7960174616950511 3.141592653589794  2.7488935343341292 3.141592653589794  2.6546458298405726 3.141592653589794  2.6075219024796628 3.141592653589794  2.56039797511874 3.141592653589794  2.4661502706251888 3.141592653589794  2.4190263432642638 3.141592653589794  2.3719024159033557 3.141592653589794  2.2776547114097965 3.141592653589794  2.2305307840488817 3.141592653589794  2.1834068566879634 3.141592653589794  2.0891591521944064 3.141592653589794  2.042035224833493 3.141592653589794  1.9949112974725738 3.141592653589794  1.9006635929790221 3.141592653589794  1.8535396656180942 3.141592653589794  1.8064157382571888 3.141592653589794  1.7121680337636296 3.141592653589794  1.6650441064027104 3.141592653589794  1.6179201790417979 3.141592653589794  1.5236724745482384 3.141592653589794  1.4765485471873268 3.141592653589794  1.4294246198264042 3.141592653589794  1.3351769153328499 3.141592653589794  1.2880529879719351 3.141592653589794  1.240929060611017 3.141592653589794  1.146681356117462 3.141592653589794  1.0995574287565437 3.141592653589794  1.0524335013956287 3.141592653589794  0.95818579690207695 3.141592653589794  0.91106186954114787 3.141592653589794  0.86393794218024389 3.141592653589794  0.76969023768668499 3.141592653589794  0.72256631032576457 3.141592653589794  0.67544238296485037 3.141592653589794  0.58119467847129447 3.141592653589794  0.53407075111037805 3.141592653589794  0.48694682374946019 3.141592653589794  0.39269911925590695 3.141592653589794  0.3455751918949867 3.141592653589794  0.29845126453407467 3.141592653589794  0.18849571988983715 3.141592653589794  0.12566370268545124 3.1415926535897931  0.062831696410233659 3.1415926535897944  0 3.1415926535897944 
 0 5 0.030000001300671389 3 0.060000003438037186 3 0.090000005575404218 3 0.12000000771277503 3 0.15000000985014711 3 0.18000001198751853 3 0.21000001412489008 3 0.24000001626226142 3 0.27000001839963245 3 0.30000002053700681 3 0.33000002267438461 3 0.36000002481176296 3 0.39000002694914243 3 0.42000002908652079 3 0.45000003122389803 3 0.48000003336127511 3 0.51000003549865236 3 0.54000003763602877 3 0.57000003977340563 3 0.6000000419107846 3 0.6300000440481629 3 0.66000004618553976 3 0.69000004832291784 3 0.72000005046029414 3 0.750000052597668 3 0.78000005473504119 3 0.81000005687241661 3 0.8400000590097918 3 0.87000006114716411 3 0.90000006328453241 3 0.93000006542190028 3 0.96000006755926792 3 1 5
Curves 16
1 0 0 0 0 0 1 
1 0 0 40 -0 1 0 
1 0 100 0 0 0 1 
1 0 0 0 -0 1 0 
1 0 0 0 1 0 -0 
1 100 0 0 0 0 1 
1 0 0 40 1 0 -0 
1 0 100 40 1 0 -0 
1 100 0 40 0 1 0 
2 0 0 40 0 0 -1 -1 0 -0 0 1 0 25
1 0 100 0 1 0 -0 
1 100 100 0 0 0 1 
1 100 0 0 -0 1 0 
2 -20 -4.898425415289509e-15 40 2.4492127076447545e-16 -1 0 -1 -2.4492127076447545e-16 0 0 0 -1 5
7 0 0  4 101 34  -15 0 40  -14.999999929314221 -0.70685779888142264 40  -14.955586733959699 -1.4137191423391542 40  -14.866760697971458 -2.1163823491422065 40  -14.601856820195209 -3.5050571077941299 40  -14.425777558028393 -4.1910758098475611 40  -14.206858993760733 -4.8646485441169816 40  -13.686435582887064 -6.1790880364227334 40  -13.384928082321778 -6.8199614975950453 40  -13.043672223277262 -7.4405821585467891 40  -12.28616554178371 -8.6342216908223079 40  -11.869910856341797 -9.2072466492488445 40  -11.418406861457719 -9.7529294405627169 40  -10.450651961185578 -10.783483737296955 40  -9.9343961206193967 -11.268360498148212 40  -9.3886387440086239 -11.719774334895696 40  -8.2449188247670051 -12.550735496351692 40  -7.6469504496043115 -12.930287058642641 40  -7.026273418416416 -13.271440380608077 40  -5.7471053285376641 -13.873371193371625 40  -5.0886077465812392 -14.134151753785524 40  -4.4149988540800962 -14.352959034458756 40  -3.045697760867931 -14.704535799399579 40  -2.3499985772477174 -14.837307076573524 40  -1.6473207542728829 -14.926016958951955 40  -0.23639483160932429 -15.014784893896014 40  0.47186046325926867 -15.014843399143999 40  1.1787145045140264 -14.970313291418712 40  2.581282502412023 -14.793127748016005 40  3.2770036116125851 -14.660471408760479 40  3.9629932143391997 -14.484278812197758 40  5.3075166169059571 -14.04741667665791 40  5.9660572732988157 -13.786744909851755 40  6.6068809138252647 -13.485131535024458 40  7.8457293092228184 -12.804068866293314 40  8.4437603817445037 -12.42461609923167 40  9.0167165631274173 -12.008266750310106 40  10.106003129330034 -11.107130532966252 40  10.622339069092632 -10.622339069095545 40  11.107130532963367 -10.10600312933321 40  12.008266750307605 -9.0167165631307498 40  12.424616099229333 -8.4437603817479499 40  12.804068866291189 -7.8457293092262859 40  13.485131535022703 -6.6068809138288387 40  13.786744909850206 -5.9660572733024324 40  14.047416676656539 -5.3075166169095596 40  14.484278812196777 -3.9629932143427666 40  14.660471408759619 -3.2770036116163581 40  14.79312774801538 -2.5812825024155686 40  14.970313291418421 -1.1787145045175862 40  15.014843399143885 -0.47186046326279296 40  15.014784893896064 0.23639483160584973 40  14.926016958952331 1.6473207542695221 40  14.837307076574049 2.3499985772444631 40  14.704535799400233 3.0456977608647051 40  14.352959034459673 4.4149988540770835 40  14.134151753786597 5.088607746578262 40  13.873371193372783 5.7471053285348432 40  13.271440380609441 7.0262734184138225 40  12.930287058644161 7.6469504496017393 40  12.550735496353248 8.244918824764639 40  11.719774334897465 9.3886387440064141 40  11.268360498149931 9.9343961206174427 40  10.783483737298845 10.450651961183617 40  9.7529294405646354 11.418406861456077 40  9.2072466492508838 11.869910856340219 40  8.6342216908242762 12.286165541782317 40  7.4405821585487999 13.043672223276118 40  6.8199614975971841 13.384928082320684 40  6.1790880364247585 13.686435582886141 40  4.8646485441190919 14.206858993760008 40  4.1910758098494654 14.425777558027818 40  3.5050571077962047 14.601856820194726 40  2.1163823297792135 14.866760701665243 40  1.4137191721081024 14.955586671876787 40  0.70685778370351215 14.999999999999915 40  -0.70685778369987418 15.000000000000085 40  -1.4137191721044573 14.955586671877143 40  -2.1163823297756394 14.866760701665754 40  -3.5050571077926236 14.601856820195579 40  -4.191075809846069 14.425777558028827 40  -4.8646485441156031 14.206858993761202 40  -6.1790880364214402 13.68643558288764 40  -6.8199614975939369 13.384928082322347 40  -7.4405821585456451 13.043672223277916 40  -8.6342216908212421 12.286165541784442 40  -9.2072466492481055 11.869910856342379 40  -9.7529294405618217 11.418406861458486 40  -10.783483737296258 10.450651961186281 40  -11.268360498147608 9.9343961206200859 40  -11.719774334895163 9.3886387440092918 40  -12.550735496351258 8.2449188247676659 40  -12.930287058642278 7.6469504496049296 40  -13.271440380607757 7.0262734184170057 40  -13.873371193371398 5.7471053285382183 40  -14.134151753785353 5.0886077465817152 40  -14.352959034458607 4.4149988540805865 40  -14.763131514319667 2.8174825188535948 40  -14.921042641606064 1.884965980868202 40  -14.99999990575246 0.94247544615349454 40  -15 0 40 
 0 5 0.030000001300671389 3 0.060000003438037186 3 0.090000005575404218 3 0.12000000771277503 3 0.15000000985014711 3 0.18000001198751853 3 0.21000001412489008 3 0.24000001626226142 3 0.27000001839963245 3 0.30000002053700681 3 0.33000002267438461 3 0.36000002481176296 3 0.39000002694914243 3 0.42000002908652079 3 0.45000003122389803 3 0.48000003336127511 3 0.51000003549865236 3 0.54000003763602877 3 0.57000003977340563 3 0.6000000419107846 3 0.6300000440481629 3 0.66000004618553976 3 0.69000004832291784 3 0.72000005046029414 3 0.750000052597668 3 0.78000005473504119 3 0.81000005687241661 3 0.8400000590097918 3 0.87000006114716411 3 0.90000006328453241 3 0.93000006542190028 3 0.96000006755926792 3 1 5
7 0 0  4 101 34  -15 0 40  -14.999999929314221 -0.70685779888142264 40  -14.955586733959699 -1.4137191423391542 40  -14.866760697971458 -2.1163823491422065 40  -14.601856820195209 -3.5050571077941299 40  -14.425777558028393 -4.1910758098475611 40  -14.206858993760733 -4.8646485441169816 40  -13.686435582887064 -6.1790880364227334 40  -13.384928082321778 -6.8199614975950453 40  -13.043672223277262 -7.4405821585467891 40  -12.28616554178371 -8.6342216908223079 40  -11.869910856341797 -9.2072466492488445 40  -11.418406861457719 -9.7529294405627169 40  -10.450651961185578 -10.783483737296955 40  -9.9343961206193967 -11.268360498148212 40  -9.3886387440086239 -11.719774334895696 40  -8.2449188247670051 -12.550735496351692 40  -7.6469504496043115 -12.930287058642641 40  -7.026273418416416 -13.271440380608077 40  -5.7471053285376641 -13.873371193371625 40  -5.0886077465812392 -14.134151753785524 40  -4.4149988540800962 -14.352959034458756 40  -3.045697760867931 -14.704535799399579 40  -2.3499985772477174 -14.837307076573524 40  -1.6473207542728829 -14.926016958951955 40  -0.23639483160932429 -15.014784893896014 40  0.47186046325926867 -15.014843399143999 40  1.1787145045140264 -14.970313291418712 40  2.581282502412023 -14.793127748016005 40  3.2770036116125851 -14.660471408760479 40  3.9629932143391997 -14.484278812197758 40  5.3075166169059571 -14.04741667665791 40  5.9660572732988157 -13.786744909851755 40  6.6068809138252647 -13.485131535024458 40  7.8457293092228184 -12.804068866293314 40  8.4437603817445037 -12.42461609923167 40  9.0167165631274173 -12.008266750310106 40  10.106003129330034 -11.107130532966252 40  10.622339069092632 -10.622339069095545 40  11.107130532963367 -10.10600312933321 40  12.008266750307605 -9.0167165631307498 40  12.424616099229333 -8.4437603817479499 40  12.804068866291189 -7.8457293092262859 40  13.485131535022703 -6.6068809138288387 40  13.786744909850206 -5.9660572733024324 40  14.047416676656539 -5.3075166169095596 40  14.484278812196777 -3.9629932143427666 40  14.660471408759619 -3.2770036116163581 40  14.79312774801538 -2.5812825024155686 40  14.970313291418421 -1.1787145045175862 40  15.014843399143885 -0.47186046326279296 40  15.014784893896064 0.23639483160584973 40  14.926016958952331 1.6473207542695221 40  14.837307076574049 2.3499985772444631 40  14.704535799400233 3.0456977608647051 40  14.352959034459673 4.4149988540770835 40  14.134151753786597 5.088607746578262 40  13.873371193372783 5.7471053285348432 40  13.271440380609441 7.0262734184138225 40  12.930287058644161 7.6469504496017393 40  12.550735496353248 8.244918824764639 40  11.719774334897465 9.3886387440064141 40  11.268360498149931 9.9343961206174427 40  10.783483737298845 10.450651961183617 40  9.7529294405646354 11.418406861456077 40  9.2072466492508838 11.869910856340219 40  8.6342216908242762 12.286165541782317 40  7.4405821585487999 13.043672223276118 40  6.8199614975971841 13.384928082320684 40  6.1790880364247585 13.686435582886141 40  4.8646485441190919 14.206858993760008 40  4.1910758098494654 14.425777558027818 40  3.5050571077962047 14.601856820194726 40  2.1163823297792135 14.866760701665243 40  1.4137191721081024 14.955586671876787 40  0.70685778370351215 14.999999999999915 40  -0.70685778369987418 15.000000000000085 40  -1.4137191721044573 14.955586671877143 40  -2.1163823297756394 14.866760701665754 40  -3.5050571077926236 14.601856820195579 40  -4.191075809846069 14.425777558028827 40  -4.8646485441156031 14.206858993761202 40  -6.1790880364214402 13.68643558288764 40  -6.8199614975939369 13.384928082322347 40  -7.4405821585456451 13.043672223277916 40  -8.6342216908212421 12.286165541784442 40  -9.2072466492481055 11.869910856342379 40  -9.7529294405618217 11.418406861458486 40  -10.783483737296258 10.450651961186281 40  -11.268360498147608 9.9343961206200859 40  -11.719774334895163 9.3886387440092918 40  -12.550735496351258 8.2449188247676659 40  -12.930287058642278 7.6469504496049296 40  -13.271440380607757 7.0262734184170057 40  -13.873371193371398 5.7471053285382183 40  -14.134151753785353 5.0886077465817152 40  -14.352959034458607 4.4149988540805865 40  -14.763131514319667 2.8174825188535948 40  -14.921042641606064 1.884965980868202 40  -14.99999990575246 0.94247544615349454 40  -15 0 40 
 0 5 0.030000001300671389 3 0.060000003438037186 3 0.090000005575404218 3 0.12000000771277503 3 0.15000000985014711 3 0.18000001198751853 3 0.21000001412489008 3 0.24000001626226142 3 0.27000001839963245 3 0.30000002053700681 3 0.33000002267438461 3 0.36000002481176296 3 0.39000002694914243 3 0.42000002908652079 3 0.45000003122389803 3 0.48000003336127511 3 0.51000003549865236 3 0.54000003763602877 3 0.57000003977340563 3 0.6000000419107846 3 0.6300000440481629 3 0.66000004618553976 3 0.69000004832291784 3 0.72000005046029414 3 0.750000052597668 3 0.78000005473504119 3 0.81000005687241661 3 0.8400000590097918 3 0.87000006114716411 3 0.90000006328453241 3 0.93000006542190028 3 0.96000006755926792 3 1 5
Polygon3D 0
PolygonOnTriangulations 0
Surfaces 7
1 0 0 0 1 0 -0 0 0 1 0 -1 0 
1 0 0 0 -0 1 0 0 0 1 1 0 -0 
1 0 0 40 0 0 1 1 0 -0 -0 1 0 
1 0 100 0 -0 1 0 0 0 1 1 0 -0 
1 0 0 0 0 0 1 1 0 -0 -0 1 0 
1 100 0 0 1 0 -0 0 0 1 0 -1 0 
5 0 0 40 0 0 -1 -1 0 -0 0 1 0 20 5
Triangulations 0

TShapes 47
Ve
1e-07
0 0 40
0 0

0101101
*
Ve
1e-07
0 0 0
0 0

0101101
*
Ed
 1e-07 1 1 0
1  1 0 0 40
2  1 1 0 0 40
2  2 2 0 0 40
0

0101000
-47 0 +46 0 *
Ve
1e-07
0 100 40
0 0

0101101
*
Ed
 1e-07 1 1 0
1  2 0 0 100
2  3 1 0 0 100
2  4 3 0 0 100
0

0101000
-44 0 +47 0 *
Ve
1e-07
0 100 0
0 0

0101101
*
Ed
 1e-07 1 1 0
1  3 0 0 40
2  5 1 0 0 40
2  6 4 0 0 40
0

0101000
-44 0 +42 0 *
Ed
 1e-07 1 1 0
1  4 0 0 100
2  7 1 0 0 100
2  8 5 0 0 100
0

0101000
-42 0 +46 0 *
Wi

0101000
-45 0 -43 0 +41 0 +40 0 *
Fa
0  1e-07 1 0

0111000
+39 0 *
Ve
1e-07
100 0 0
0 0

0101101
*
Ed
 1e-07 1 1 0
1  5 0 0 100
2  9 2 0 0 100
2  10 5 0 0 100
0

0101000
-37 0 +46 0 *
Ve
1e-07
100 0 40
0 0

0101101
*
Ed
 1e-07 1 1 0
1  6 0 0 40
2  11 6 0 0 40
2  12 2 0 0 40
0

0101000
-35 0 +37 0 *
Ed
 1e-07 1 1 0
1  7 0 0 100
2  13 2 0 0 100
2  14 3 0 0 100
0

0101000
-35 0 +47 0 *
Wi

0101000
-36 0 -34 0 +33 0 +45 0 *
Fa
0  1e-07 2 0

0111000
+32 0 *
Ve
1e-07
100 100 40
0 0

0101101
*
Ed
 1e-07 1 1 0
1  8 0 0 100
2  15 4 0 0 100
2  16 3 0 0 100
0

0101000
-30 0 +44 0 *
Ed
 1e-07 1 1 0
1  9 0 0 100
2  17 6 0 0 100
2  18 3 0 0 100
0

0101000
-30 0 +35 0 *
Wi

0101000
-43 4 -29 4 +33 4 +28 4 *
Ve
1e-07
-25 -6.12303176911189e-15 40
0 0

0101101
*
Ed
 1e-07 1 1 0
1  10 0 0 6.28318530717959
3  19 20CN 7 0 0 6.28318530717959
0

0101000
+26 0 -26 0 *
Wi

0101000
+25 0 *
Fa
0  1e-07 3 4

0111000
+27 0 +24 0 *
Ve
1e-07
100 100 0
0 0

0101101
*
Ed
 1e-07 1 1 0
1  11 0 0 100
2  21 4 0 0 100
2  22 5 0 0 100
0

0101000
-22 0 +42 0 *
Ed
 1e-07 1 1 0
1  12 0 0 40
2  23 6 0 0 40
2  24 4 0 0 40
0

0101000
-30 0 +22 0 *
Wi

0101000
-21 0 -20 0 +29 0 +41 0 *
Fa
0  1e-07 4 0

0111000
+19 0 *
Ed
 1e-07 1 1 0
1  13 0 0 100
2  25 6 0 0 100
2  26 5 0 0 100
0

0101000
-22 0 +37 0 *
Wi

0101000
-40 0 -21 0 +17 0 +36 0 *
Fa
0  1e-07 5 0

0111000
+16 0 *
Wi

0101000
-34 0 -28 0 +20 0 +17 0 *
Fa
0  1e-07 6 0

0111000
+14 0 *
Ve
5e-06
-15 -3.67381906146713e-15 40
0 0

0101101
*
Ed
 1e-07 1 1 0
1  14 0 0 3.14159265358979
3  27 28CN 7 0 0 3.14159265358979
0

0101000
+26 0 -12 0 *
Ve
5e-06
14.9999999982464 -3.35703390338699e-06 40
0 0

0101101
*
Ed
 5e-06 1 1 0
1  15 0 0.5 1
2  29 3 4 0.5 1
2  30 7 0 0.5 1
0

0101000
+10 0 -12 0 *
Ed
 5e-06 1 1 0
1  16 0 0 0.5
2  31 3 4 0 0.5
2  32 7 0 0 0.5
0

0101000
+12 0 -10 0 *
Wi

0101000
+11 0 +25 0 -11 0 +9 0 +8 0 *
Fa
0  1e-07 7 0

0111000
+7 0 *
Wi

0101000
+9 0 +8 0 *
Fa
0  1e-07 3 4

0111000
+5 0 *
Sh

0101000
-38 4 -31 4 +23 0 +18 4 -15 4 +13 4 -6 0 +4 0 *
So

0100000
+3 0 *
Co

1100000
+2 0 *

+1 0 