DBRep_DrawableShape

CASCADE Topology V1, (c) Matra-Datavision
Locations 0
Curve2ds 5
1 0 14.142135623730951 1 0 
1 6.2831853071795862 -0 0 1 
1 0 -0 0 1 
1 0 0 1 0 
2 0 0 1 0 -0 1 10
Curves 2
1 -1.84464540552736 13.766968108291042 -1.0000000000000024 0.55470019622522915 -0.83205029433784361 1.7318549141438708e-16 
2 -3.8058067569092007 3.9611613513818407 -1 0.98058067569092011 -0.19611613513818407 0 0.19611613513818407 0.98058067569092011 0 -0 0 1 10
Polygon3D 0
PolygonOnTriangulations 0
Surfaces 2
3 -3.8058067569092007 3.9611613513818407 -1 0.98058067569092011 -0.19611613513818407 0 0.19611613513818407 0.98058067569092011 0 -0 0 1 10
-0.78539816339744828
1 -3.8058067569092007 3.9611613513818407 -1 0.98058067569092011 -0.19611613513818407 0 0.19611613513818407 0.98058067569092011 0 -0 0 1 
Triangulations 0

TShapes 12
Ve
1e-07
6 2 -1
0 0

0101101
*
Ed
 1e-07 1 1 1
2  1 1 0 0 6.28318530717959
0

0101100
+12 0 -12 0 *
Ve
1e-07
-1.84464540552736 13.766968108291 -1
0 0

0101101
*
Ed
 1e-07 1 1 0
1  1 0 0 14.142135623731
3  2 3CN 1 0 0 14.142135623731
0

0101000
-12 0 +10 0 *
Ed
 1e-07 1 1 0
1  2 0 0 6.28318530717959
2  4 1 0 0 6.28318530717959
2  5 2 0 0 6.28318530717959
0

0101100
+10 0 -10 0 *
Wi

0101000
-11 0 +9 0 +8 0 -9 0 *
Fa
0  1e-07 1 0

0111000
+7 0 *
Wi

0101000
-8 0 *
Fa
0  1e-07 2 0

0111000
-5 0 *
Sh

0101100
+6 0 -4 0 *
So

0100100
+3 0 *
Co

1100000
+2 0 *

+1 0 