DBRep_DrawableShape

CASCADE Topology V1, (c) Matra-Datavision
Locations 0
Curve2ds 4
1 0 1.5707963267948966 1 0 
1 6.2831853071795862 -6.2831853071795862 0 1 
1 0 -6.2831853071795862 0 1 
1 0 -1.5707963267948966 1 0 
Curves 1
2 2536.817 -462.5 0 -2.4492127076447545e-16 -1 0 1 -2.4492127076447545e-16 0 0 0 1 20
Polygon3D 0
PolygonOnTriangulations 4
2 1 2 
p 1e-05 1 0 6.28318530717959 
24 3 4 5 6 7 8 9 10 11 12 13 14 15 16 17 18 19 20 21 22 23 24 25 2 
p 4.32956882116958 1 4.71238898038469 4.84897996532338 4.98557095026206 5.12216193520075 5.25875292013944 5.39534390507812 5.53193489001681 5.6685258749555 5.80511685989419 5.94170784483287 6.07829882977156 6.21488981471025 6.35148079964893 6.48807178458762 6.62466276952631 6.761253754465 6.89784473940368 7.03443572434237 7.17102670928106 7.30761769421974 7.44420867915843 7.58079966409712 7.7173906490358 7.85398163397448 
24 26 27 28 29 30 31 32 33 34 35 36 37 38 39 40 41 42 43 44 45 46 47 48 1 
p 4.32956882116958 1 4.71238898038469 4.84897996532338 4.98557095026206 5.12216193520075 5.25875292013944 5.39534390507812 5.53193489001681 5.6685258749555 5.80511685989419 5.94170784483287 6.07829882977156 6.21488981471025 6.35148079964893 6.48807178458762 6.62466276952631 6.761253754465 6.89784473940368 7.03443572434237 7.17102670928106 7.30761769421974 7.44420867915843 7.58079966409712 7.7173906490358 7.85398163397448 
2 26 3 
p 1e-05 1 0 6.28318530717959 
Surfaces 1
4 2536.817 -462.5 0 0 0 1 1 0 0 0 1 0 20
Triangulations 1
117 184 1 1.89856807968989
2536.817 -462.5 20 2536.817 -462.5 20 2536.817 -462.5 -20 2539.54033298193 -462.5 -19.8137189207266 2542.21293542314 -462.5 -19.258345746956 2544.78502179692 -462.5 -18.3442260301091 2547.20867900071 -462.5 -17.0883880909298 2549.43875888652 -462.5 -15.5142258140884 2551.43371928556 -462.5 -13.6510628643731 2553.15639786021 -462.5 -11.5336064422973 2554.57470436805 -462.5 -9.20130075462299 2555.66221844238 -462.5 -6.69759224341966 2556.39868175365 -462.5 -4.06912026105261 2556.77037538381 -462.5 -1.36484826729334 2556.77037538381 -462.5 1.36484826729351 2556.39868175365 -462.5 4.06912026105277 2555.66221844238 -462.5 6.69759224341982 2554.57470436805 -462.5 9.20130075462314 2553.15639786021 -462.5 11.5336064422974 2551.43371928556 -462.5 13.6510628643732 2549.43875888652 -462.5 15.5142258140885 2547.20867900071 -462.5 17.0883880909298 2544.78502179692 -462.5 18.3442260301091 2542.21293542314 -462.5 19.258345746956 2539.54033298192 -462.5 19.8137189207266 2536.817 -462.5 -20 2539.54033298193 -462.5 -19.8137189207266 2542.21293542314 -462.5 -19.258345746956 2544.78502179692 -462.5 -18.3442260301091 2547.20867900071 -462.5 -17.0883880909298 2549.43875888652 -462.5 -15.5142258140884 2551.43371928556 -462.5 -13.6510628643731 2553.15639786021 -462.5 -11.5336064422973 2554.57470436805 -462.5 -9.20130075462299 2555.66221844238 -462.5 -6.69759224341966 2556.39868175365 -462.5 -4.06912026105261 2556.77037538381 -462.5 -1.36484826729334 2556.77037538381 -462.5 1.36484826729351 2556.39868175365 -462.5 4.06912026105277 2555.66221844238 -462.5 6.69759224341982 2554.57470436805 -462.5 9.20130075462314 2553.15639786021 -462.5 11.5336064422974 2551.43371928556 -462.5 13.6510628643732 2549.43875888652 -462.5 15.5142258140885 2547.20867900071 -462.5 17.0883880909298 2544.78502179692 -462.5 18.3442260301091 2542.21293542314 -462.5 19.258345746956 2539.54033298192 -462.5 19.8137189207266 2547.40852426655 -457.399390738744 -16.1803398874989 2539.43289046612 -451.039035023425 -16.1803398874989 2529.48743779025 -453.309019696547 -16.1803398874989 2525.06129495415 -462.5 -16.1803398874989 2529.48743779025 -471.690980303453 -16.1803398874989 2539.43289046612 -473.960964976575 -16.1803398874989 2547.40852426655 -467.600609261256 -16.1803398874989 2552.20541768588 -451.319660112501 -6.18033988749895 2542.69485252292 -444.409830056251 -6.18033988749895 2530.93914747708 -444.409830056251 -6.18033988749895 2521.42858231412 -451.319660112501 -6.18033988749895 2517.7958696741 -462.5 -6.18033988749895 2521.42858231412 -473.680339887499 -6.18033988749895 2530.93914747708 -480.590169943749 -6.18033988749895 2542.69485252292 -480.590169943749 -6.18033988749895 2552.20541768588 -473.680339887499 -6.18033988749895 2554.90716994375 -456.622147477075 6.18033988749895 2547.9973398875 -447.111582314124 6.18033988749895 2536.817 -443.478869674097 6.18033988749895 2525.6366601125 -447.111582314124 6.18033988749895 2518.72683005625 -456.622147477075 6.18033988749895 2518.72683005625 -468.377852522925 6.18033988749895 2525.6366601125 -477.888417685876 6.18033988749895 2536.817 -481.521130325903 6.18033988749895 2547.9973398875 -477.888417685876 6.18033988749895 2554.90716994375 -468.377852522925 6.18033988749895 2544.14656220975 -453.309019696547 16.1803398874989 2534.20110953388 -451.039035023425 16.1803398874989 2526.22547573345 -457.399390738744 16.1803398874989 2526.22547573345 -467.600609261256 16.1803398874989 2534.20110953388 -473.960964976575 16.1803398874989 2544.14656220975 -471.690980303453 16.1803398874989 2547.31370142697 -450.1164565514 -11.6819138333429 2551.28361975592 -451.989385510845 -8.95789572936161 2547.94902114876 -453.622509369385 -14.0452221501409 2551.67604530776 -449.120855510487 -0.455263957122087 2554.50264884989 -453.488711820157 2.45244981560601 2552.70239970207 -450.958581542084 -3.8012808742321 2547.93003085474 -454.923263854283 -14.801811193225 2547.93003085474 -470.076736145717 -14.801811193225 2547.94902114876 -471.377490630615 -14.0452221501409 2547.31370142697 -474.8835434486 -11.6819138333429 2551.28361975592 -473.010614489155 -8.95789572936161 2552.70239970207 -474.041418457916 -3.8012808742321 2551.67604530776 -475.879144489513 -0.455263957122087 2554.50264884989 -471.511288179843 2.45244981560601 2554.3122996937 -471.41430044047 3.80128087423219 2537.9520362859 -449.142985333521 -14.8425689093621 2537.02903902942 -448.327292323973 -14.1099042016557 2541.9201028509 -443.454960884174 -3.35333063830001 2535.28457681037 -446.374487564118 -11.7311349769785 2540.28986356089 -442.804412025119 -0.151766304490656 2537.9520362859 -475.857014666479 -14.8425689093621 2537.02903902942 -476.672707676027 -14.1099042016557 2541.9201028509 -481.545039115826 -3.35333063830001 2535.28457681037 -478.625512435882 -11.7311349769785 2540.28986356089 -482.195587974881 -0.151766304490656 2529.42160886108 -444.195764616185 -3.20361622487182 2527.84104511096 -444.627404369739 -0.0505891997344731 2529.42160886108 -480.804235383815 -3.20361622487182 2527.84104511096 -480.372595630261 -0.0505891997344731 2519.01451740575 -453.385652567631 -0.0168630825623133 2520.00762099577 -452.131820650485 -3.15366999991448 2520.00762099577 -472.868179349515 -3.15366999991448 2519.01451740575 -471.614347432369 -0.0168630825623133 2517.17579532564 -459.376122524882 -2.11292888199727 2517.06720593698 -462.5 -3.15366999991448 2516.89607049574 -463.292368485174 -1.59019491576961 2516.81700710909 -462.5 -0.0168630825623147 0 1.5707963267949 6.28318530717959 1.5707963267949 6.28318530717959 -1.5707963267949 6.28318530717959 -1.43420534185621 6.28318530717959 -1.29761435691752 6.28318530717959 -1.16102337197884 6.28318530717959 -1.02443238704015 6.28318530717959 -0.887841402101461 6.28318530717959 -0.751250417162774 6.28318530717959 -0.614659432224087 6.28318530717959 -0.4780684472854 6.28318530717959 -0.341477462346713 6.28318530717959 -0.204886477408026 6.28318530717959 -0.0682954924693391 6.28318530717959 0.0682954924693482 6.28318530717959 0.204886477408035 6.28318530717959 0.341477462346722 6.28318530717959 0.478068447285409 6.28318530717959 0.614659432224096 6.28318530717959 0.751250417162783 6.28318530717959 0.88784140210147 6.28318530717959 1.02443238704016 6.28318530717959 1.16102337197884 6.28318530717959 1.29761435691753 6.28318530717959 1.43420534185622 0 -1.5707963267949 0 -1.43420534185621 0 -1.29761435691752 0 -1.16102337197884 0 -1.02443238704015 0 -0.887841402101461 0 -0.751250417162774 0 -0.614659432224087 0 -0.4780684472854 0 -0.341477462346713 0 -0.204886477408026 0 -0.0682954924693391 0 0.0682954924693482 0 0.204886477408035 0 0.341477462346722 0 0.478068447285409 0 0.614659432224096 0 0.751250417162783 0 0.88784140210147 0 1.02443238704016 0 1.16102337197884 0 1.29761435691753 0 1.43420534185622 0.448798950512828 -0.942477796076938 1.34639685153848 -0.942477796076938 2.24399475256414 -0.942477796076938 3.14159265358979 -0.942477796076938 4.03919055461545 -0.942477796076938 4.9367884556411 -0.942477796076938 5.83438635666676 -0.942477796076938 0.628318530717959 -0.314159265358979 1.25663706143592 -0.314159265358979 1.88495559215388 -0.314159265358979 2.51327412287183 -0.314159265358979 3.14159265358979 -0.314159265358979 3.76991118430775 -0.314159265358979 4.39822971502571 -0.314159265358979 5.02654824574367 -0.314159265358979 5.65486677646163 -0.314159265358979 0.314159265358979 0.314159265358979 0.942477796076938 0.314159265358979 1.5707963267949 0.314159265358979 2.19911485751286 0.314159265358979 2.82743338823081 0.314159265358979 3.45575191894877 0.314159265358979 4.08407044966673 0.314159265358979 4.71238898038469 0.314159265358979 5.34070751110265 0.314159265358979 5.96902604182061 0.314159265358979 0.897597901025655 0.942477796076938 1.79519580205131 0.942477796076938 2.69279370307697 0.942477796076938 3.59039160410262 0.942477796076938 4.48798950512828 0.942477796076938 5.38558740615393 0.942477796076938 0.867677970991467 -0.623765497886668 0.628318530717959 -0.464409348791533 0.673198425769241 -0.778568614150513 0.733038285837618 -0.0227651641564464 0.471238898038469 0.12293188644482 0.628318530717959 -0.191227378914159 0.59839860068377 -0.833205008125988 5.68478670649582 -0.833205008125988 5.60998688141034 -0.778568614150513 5.41550733618812 -0.623765497886668 5.65486677646163 -0.464409348791533 5.65486677646163 -0.191227378914159 5.55014702134197 -0.0227651641564464 5.81194640914112 0.12293188644482 5.81194640914112 0.191227378914164 1.48602319169803 -0.836240363346848 1.5558363617778 -0.783121646981803 1.30899693899575 -0.168462214757713 1.66554277190316 -0.626800853107528 1.39626340159546 -0.00758838805214879 4.79716211548156 -0.836240363346848 4.72734894540178 -0.783121646981803 4.97418836818384 -0.168462214757713 4.61764253527643 -0.626800853107528 4.88692190558412 -0.00758838805214879 1.95476876223365 -0.160873826705564 2.03621746066005 -0.00252946268404974 4.32841654494594 -0.160873826705564 4.24696784651954 -0.00252946268404974 2.66841450082689 -0.000843154228016729 2.58890505712492 -0.158344364021515 3.69428025005466 -0.158344364021515 3.6147708063527 -0.000843154228016729 2.98386660266882 -0.105843960757015 3.14159265358979 -0.158344364021515 3.18134737544078 -0.0795937591247657 3.14159265358979 -0.000843154228016729 96 97 83 27 26 50 57 82 81 29 28 50 30 29 49 35 82 56 27 50 28 82 57 56 96 83 50 87 83 32 66 65 85 81 82 33 34 82 35 66 85 84 31 87 32 57 58 98 30 49 31 50 83 87 56 36 35 32 83 33 34 33 82 51 50 26 52 51 26 81 83 97 49 29 50 59 51 52 36 56 86 84 37 86 37 36 86 97 99 81 99 58 57 98 106 100 86 57 98 111 110 107 106 111 107 81 33 83 26 3 52 65 39 85 31 49 87 85 38 37 54 55 88 41 40 65 42 41 66 88 55 8 39 65 40 50 87 49 54 88 89 44 43 75 90 102 89 46 45 75 47 46 75 10 91 90 44 75 45 90 89 10 42 75 43 63 62 104 66 75 42 38 85 39 67 68 76 100 66 84 106 98 58 68 69 77 84 85 37 66 67 75 14 15 94 1 48 76 75 76 48 76 75 67 77 76 68 76 77 1 47 75 48 1 77 78 77 69 78 41 65 66 107 110 68 12 91 11 60 59 52 57 86 56 90 63 104 54 53 3 55 54 6 4 54 3 62 61 104 10 11 91 53 52 3 9 89 88 112 116 115 60 52 61 63 92 103 101 89 102 90 91 63 13 92 64 101 102 53 61 62 108 5 54 4 61 52 53 5 6 54 62 63 103 7 8 55 102 90 104 89 101 54 9 88 8 102 104 53 6 7 55 63 91 64 100 67 66 12 13 64 99 97 51 81 99 57 14 92 13 67 100 107 12 64 91 53 54 101 89 9 10 112 109 113 64 92 63 70 71 78 109 112 108 93 103 92 103 105 108 84 98 100 94 93 14 15 16 94 71 72 79 78 79 2 78 71 79 80 73 19 93 94 73 74 18 73 80 79 72 73 80 72 79 80 25 74 16 17 78 69 70 17 18 74 51 97 96 19 20 80 50 51 96 74 73 95 20 21 80 59 99 51 18 19 73 22 23 80 73 94 95 24 25 80 72 105 73 93 92 14 25 2 79 74 95 16 23 24 80 16 95 94 21 22 80 58 99 59 78 2 1 98 84 86 110 117 69 53 104 61 73 105 93 109 72 71 103 93 105 58 59 106 114 111 115 67 107 68 100 106 107 109 105 72 103 108 62 105 109 108 70 113 71 61 112 60 68 110 69 106 59 111 60 111 59 108 112 61 109 71 113 117 70 69 117 114 116 110 111 114 115 111 60 60 112 115 116 112 113 114 117 110 114 115 116 70 117 113 116 113 117 

TShapes 9
Ve
2.14582765592922e-06
2536.817 -462.5 20
0 0

0101101
*
Ed
 1e-07 1 1 1
2  1 1 0 0 6.28318530717959
6  1 1 0
0

0101100
+9 0 -9 0 *
Ve
1e-07
2536.817 -462.5 -20
0 0

0101101
*
Ed
 1e-07 1 1 0
1  1 0 4.71238898038469 7.85398163397448
3  2 3CN 1 0 4.71238898038469 7.85398163397448
7  2 3 1 0
0

0101000
-9 0 +7 0 *
Ed
 1e-07 1 1 1
2  4 1 0 0 6.28318530717959
6  4 1 0
0

0101100
+7 0 -7 0 *
Wi

0101000
-8 0 +6 0 +5 0 -6 0 *
Fa
0  1e-07 1 0
2  1
0111000
+4 0 *
Sh

0101100
+3 0 *
So

0100100
+2 0 *

+1 0 