DBRep_DrawableShape

CASCADE Topology V1, (c) Matra-Datavision
Locations 1
1
              1               0               0               5 
              0               1               0               5 
              0               0               1              -3 
Curve2ds 6
7 0 0  2 7 4  7.9080061597335702e-10 20  1.0471975514601977 19.999999999999989  2.0943951013234634 19.999999999999993  3.1415926535897931 19.999999999999986  4.1887902038561258 19.999999999999996  5.2359877557193863 19.999999999999982  6.2831853063887841 19.999999999999996 
 0 3 2.0943951023931966 2 4.1887902047863932 2 6.2831853071795862 3
7 1 0  2 7 4  3 0  1 3 5.1961524227066391  0.4999999999999995 -1.5000000000000031 2.5980762113533142  1 -6.0000000000000071 -9.7699626167013776e-15  0.4999999999999995 -1.4999999999999942 -2.5980762113533191  1 3.0000000000000178 -5.1961524227066294  0.4999999999999995 3 9.7699626167013776e-15  1
 0 3 2.0943951023931966 2 4.1887902047863932 2 6.2831853071795898 3
7 0 0  2 3 2  6.2831853073887842 9.9999866773237051e-10  6.2831853073887789 9.9999999999999964  6.2831853073887842 19.999999999 
 0 3 20 3
7 0 0  2 3 2  2.091979922624887e-10 9.9999866773237051e-10  2.091926631919705e-10 9.9999999999999964  2.091979922624887e-10 19.999999999 
 0 3 20 3
7 0 0  2 7 4  7.9080061597335702e-10 -1.7743202144987125e-25  1.0471975514601977 3.003905394939785e-16  2.0943951013234634 4.4357935090263422e-26  3.1415926535897931 1.2186655842758953e-15  4.1887902038561258 -2.9571693771238153e-26  5.2359877557193863 1.5199994180053103e-15  6.2831853063887841 -4.4408921002749341e-16 
 0 3 2.0943951023931966 2 4.1887902047863932 2 6.2831853071795862 3
7 1 0  2 7 4  3 0  1 3 5.1961524227066391  0.4999999999999995 -1.5000000000000031 2.5980762113533142  1 -6.0000000000000071 -9.7699626167013776e-15  0.4999999999999995 -1.4999999999999942 -2.5980762113533191  1 3.0000000000000178 -5.1961524227066294  0.4999999999999995 3 9.7699626167013776e-15  1
 0 3 2.0943951023931966 2 4.1887902047863932 2 6.2831853071795898 3
Curves 3
7 1 0  2 7 4  3 0 20  1 3 5.1961524227066391 20  0.4999999999999995 -1.5000000000000031 2.5980762113533142 20  1 -6.0000000000000071 -9.9233529569131014e-15 20  0.4999999999999995 -1.4999999999999942 -2.5980762113533191 20  1 3.0000000000000178 -5.1961524227066294 20  0.4999999999999995 3 9.9233529569130903e-15 20  1
 0 3 2.0943951023931966 2 4.1887902047863932 2 6.2831853071795898 3
7 0 0  1 2 2  3 -7.3478807948841188e-16 0  3 -7.3478807948841188e-16 20 
 0 2 20 2
7 1 0  2 7 4  3 0 0  1 3 5.1961524227066391 0  0.4999999999999995 -1.5000000000000031 2.5980762113533142 0  1 -6.0000000000000071 -9.9233529569131014e-15 0  0.4999999999999995 -1.4999999999999942 -2.5980762113533191 0  1 3.0000000000000178 -5.1961524227066294 0  0.4999999999999995 3 9.9233529569130903e-15 0  1
 0 3 2.0943951023931966 2 4.1887902047863932 2 6.2831853071795898 3
Polygon3D 0
PolygonOnTriangulations 0
Surfaces 3
9 0 1 0 0 2 1 7 2 4 2 3 3.0000000000000004e-09 1.0000000000000001e-09  1 3 3.0000000000000004e-09 19.999999999  1 
2.9999999948038476 5.196152421706639 1.0000000000000001e-09  0.50000000028867464 2.9999999948038476 5.196152421706639 19.999999999  0.50000000028867464 
-1.5000000008660281 2.5980762108533142 1.0000000000000001e-09  1 -1.5000000008660281 2.5980762108533142 19.999999999  1 
-5.9999999965359043 -9.9233529511838492e-15 1.0000000000000001e-09  0.50000000028867464 -5.9999999965359043 -9.9233529511838492e-15 19.999999999  0.50000000028867464 
-1.5000000008660197 -2.5980762108533191 1.0000000000000001e-09  1 -1.5000000008660197 -2.5980762108533191 19.999999999  1 
2.9999999948038645 -5.1961524217066284 1.0000000000000001e-09  0.50000000028867464 2.9999999948038645 -5.1961524217066284 19.999999999  0.50000000028867464 
3 -2.9999903248681559e-09 1.0000000000000001e-09  1 3 -2.9999903248681559e-09 19.999999999  1 

1.0000000000000001e-09 3
2.09439510272653 2
4.1887902044530598 2
6.2831853061795897 3

1.0000000000000001e-09 2
19.999999999 2

9 0 0 0 0 1 1 2 2 2 2 -3.2202456756718085 -3.2202456756718085 20  -3.2202456756718085 3.2202456756718085 20  
3.2202456756718085 -3.2202456756718085 20  3.2202456756718085 3.2202456756718085 20  

-3.2202456756718085 2
3.2202456756718085 2

-3.2202456756718085 2
3.2202456756718085 2

9 0 0 0 0 1 1 2 2 2 2 -3.2202456756718085 -3.2202456756718085 0  -3.2202456756718085 3.2202456756718085 0  
3.2202456756718085 -3.2202456756718085 0  3.2202456756718085 3.2202456756718085 0  

-3.2202456756718085 2
3.2202456756718085 2

-3.2202456756718085 2
3.2202456756718085 2

Triangulations 0

TShapes 13
Ve
1e-07
3 -7.34788079488412e-16 20
0 0

0101101
*
Ed
 1e-07 1 1 0
1  1 0 0 6.28318530717959
2  1 1 0 0 6.28318530717959
2  2 2 0 0 6.28318530717959
0

0101100
+13 0 -13 0 *
Ve
1e-07
3 -7.34788079488412e-16 0
0 0

0101101
*
Ed
 1e-07 1 1 0
1  2 0 0 20
3  3 4CN 1 0 0 20
0

0101000
-13 0 +11 0 *
Ed
 1e-07 1 1 0
1  3 0 0 6.28318530717959
2  5 1 0 0 6.28318530717959
2  6 3 0 0 6.28318530717959
0

0101100
+11 0 -11 0 *
Wi

0101000
-12 0 +10 0 +9 0 -10 0 *
Fa
0  1e-07 1 0

0111000
+8 0 *
Wi

0101000
+12 0 *
Fa
0  1e-07 2 0

0111000
+6 0 *
Wi

0101000
-9 0 *
Fa
0  1e-07 3 0

0111000
-4 0 *
Sh

0101100
+7 0 +5 0 -3 0 *
So

1100100
+2 0 *

+1 1 
0

