DBRep_DrawableShape

CASCADE Topology V1, (c) Matra-Datavision
Locations 0
Curve2ds 13
1 -0.95965933394141523 18.449093581071484 -0.34319183126618041 -0.93926533362632181 
8 0 6.1999999999999886
1 0 6.1999999999999886 -0 -1 
8 0 19.642046736509588
1 -19.642046736509588 6.1999999999999886 1 -0 
8 0 6.1999999999999886
1 -19.642046736509592 0 0 1 
1 -7.7006493232600448 -4.4408920985006262e-16 1 0 
1 0 0 0.31495808410428217 0.94910558172279236 
1 -16.999246793321301 -7.2329529557511547 0.99955301251929907 0.029896072711882882 
1 4.4463782938527983 13.398870104091362 -0.73074582057063175 0.68264965078622442 
8 0 6.3000000000000114
1 -7.3979726953110676 0 -0 1 
8 0 14.117365193206505
1 -14.117365193206505 6.3000000000000114 1 -0 
8 0 6.3000000000000114
1 -14.117365193206506 0 -0 1 
8 0 7.7012985917847248
1 -7.7006493232600457 6.1999999999999886 0.99991569363050381 0.012984823118882398 
8 0 7.3986485252759584
1 -7.3979726953110685 6.3000000000000114 0.99990865494386161 -0.0135159819605423 
Curves 12
1 527910.5 341099.40000000002 127.5 -0.84512577648649634 -0.53456750922413598 0 
1 527893.90000000002 341088.90000000002 133.69999999999999 0 0 -1 
1 527910.5 341099.40000000002 133.69999999999999 -0.84512577648649634 -0.53456750922413598 0 
1 527910.5 341099.40000000002 127.5 0 0 1 
1 527893.90000000002 341088.90000000002 127.5 0.79214099277985328 -0.61033814198176117 0 
1 527900 341084.20000000001 127.5 0.82876654671961425 0.55959450590445003 0 
1 527911.69999999995 341092.09999999998 127.5 -0.1622066002911865 0.98675681848263674 0 
1 527911.69999999995 341092.09999999998 127.5 0 0 1 
1 527900 341084.20000000001 133.80000000000001 0.82876654671961425 0.55959450590445003 0 
1 527900 341084.20000000001 127.5 0 0 1 
1 527893.90000000002 341088.90000000002 133.69999999999999 0.7920742102486229 -0.61028668658884566 0.012984823118882398 
1 527911.69999999995 341092.09999999998 133.80000000000001 -0.16219178352017688 0.98666668312565742 -0.0135159819605423 
Polygon3D 0
PolygonOnTriangulations 0
Surfaces 7
1 527893.90000000002 341088.90000000002 127.5 -0.53456750922413598 0.84512577648649634 0 -0.84512577648649634 -0.53456750922413598 0 0 0 1 
1 527900 341084.20000000001 127.5 -0 0 1 0.79214099277985328 -0.61033814198176117 0 0.61033814198176117 0.79214099277985328 0 
1 527910.5 341099.40000000002 127.5 0 -0 1 0.84512577648649634 0.53456750922413598 0 -0.53456750922413598 0.84512577648649634 0 
1 527911.69999999995 341092.09999999998 127.5 0.55959450590445003 -0.82876654671961425 0 0.82876654671961425 0.55959450590445003 0 -0 0 1 
1 527910.5 341099.40000000002 127.5 0.98675681848263674 0.1622066002911865 -0 -0.1622066002911865 0.98675681848263674 0 0 0 1 
1 527900 341084.20000000001 133.80000000000001 -0.0076558060148187177 0.011338345616888418 0.99990641089700771 0.79207421024862279 -0.61028668658884566 0.012984823118882396 0.61037679681757573 0.79209949002071711 -0.0043085746640721574 
1 527900 341084.20000000001 127.5 -0.61033814198176117 -0.79214099277985328 0 0.79214099277985328 -0.61033814198176117 0 0 0 1 
Triangulations 0

TShapes 34
Ve
0.2
527910.5 341099.4 127.5
0 0

0101101
*
Ve
0.2
527893.9 341088.9 127.5
0 0

0101101
*
Ed
 1.0001000025e-07 1 1 0
1  1 0 0 19.6420467365096
2  1 2 0 0 19.6420467365096
0

0101000
+34 0 -33 0 *
Ve
0.2
527893.9 341088.9 133.7
0 0

0101101
*
Ed
 1.0001000025e-07 1 1 0
1  2 0 0 6.19999999999999
2  2 1 0 0 6.19999999999999
0

0101000
+31 0 -33 0 *
Ve
0.2
527910.5 341099.4 133.7
0 0

0101101
*
Ed
 0.00803415255602662 1 1 0
1  3 0 0 19.6420467365096
2  3 1 0 0 19.6420467365096
0

0101000
+29 0 -31 0 *
Ed
 1.0001000025e-07 1 1 0
1  4 0 0 6.19999999999999
2  4 1 0 0 6.19999999999999
0

0101000
+34 0 -29 0 *
Wi

0101000
+32 0 -30 0 -28 0 -27 0 *
Fa
0  0.6 1 0

0111000
+26 0 *
Ve
0.2
527900 341084.2 127.5
0 0

0101101
*
Ed
 1.0001000025e-07 1 1 0
1  5 0 0 7.70064932326004
2  5 2 0 0 7.70064932326004
0

0101000
+33 0 -24 0 *
Ve
0.2
527911.7 341092.1 127.5
0 0

0101101
*
Ed
 1.0001000025e-07 1 1 0
1  6 0 0 14.1173651932065
2  6 2 0 0 14.1173651932065
2  7 3 0 0 14.1173651932065
0

0101000
+24 0 -22 0 *
Ed
 1.0001000025e-07 1 1 0
1  7 0 0 7.39797269531107
2  8 2 0 0 7.39797269531107
0

0101000
+22 0 -34 0 *
Wi

0101000
+23 0 +21 0 +20 0 +32 0 *
Fa
0  0.6 2 0

0111000
+19 0 *
Ve
0.2
527911.7 341092.1 133.8
0 0

0101101
*
Ed
 1.0001000025e-07 1 1 0
1  8 0 0 6.30000000000001
2  9 5 0 0 6.30000000000001
0

0101000
+22 0 -17 0 *
Ve
0.2
527900 341084.2 133.8
0 0

0101101
*
Ed
 1.0001000025e-07 1 1 0
1  9 0 0 14.1173651932065
2  10 4 0 0 14.1173651932065
0

0101000
+15 0 -17 0 *
Ed
 1.0001000025e-07 1 1 0
1  10 0 0 6.30000000000001
2  11 4 0 0 6.30000000000001
0

0101000
+24 0 -15 0 *
Wi

0101000
+21 0 +16 0 -14 0 -13 0 *
Fa
0  0.6 4 0

0111000
+12 0 *
Ed
 1.0001000025e-07 1 1 0
1  11 0 0 7.70129859178472
2  12 7 0 0 7.70129859178472
0

0101000
+31 0 -15 0 *
Ed
 0.00803455426342704 1 1 0
1  12 0 0 7.39864852527596
2  13 5 0 0 7.39864852527596
0

0101000
+17 0 -29 0 *
Wi

0101000
+10 0 +14 0 +9 0 +28 0 *
Fa
0  0.6 6 0

0111000
+8 0 *
Wi

0101000
+20 0 +27 0 -9 0 -16 0 *
Fa
0  0.6 5 0

0111000
+6 0 *
Wi

0101000
+23 0 +13 0 -10 0 +30 0 *
Fa
0  0.6 7 0

0111000
+4 0 *
Sh

0101100
+25 0 -18 0 +11 0 +7 0 +5 0 +3 0 *
So

1100000
+2 0 *

+1 0 
0

