DBRep_DrawableShape

CASCADE Topology V1, (c) Matra-Datavision
Locations 26
1
0.309016994374947 0.951056516295154 -2.38932544037763e-016               0 
-0.951056516295154 0.309016994374947 1.53429048493926e-016               0 
2.19753912976022e-016 1.79826169546692e-016               1               0 
1
              1               0               0 49.1917789762251 
              0               1               0 -20.4192362179067 
              0               0               1          110.25 
1
0.951056516295154 0.309016994374947 -2.77555756156289e-017               0 
2.77555756156289e-017 -2.22044604925031e-016              -1               0 
-0.309016994374947 0.951056516295154 -2.22044604925031e-016               0 
1
              1               0               0   1379.03194863 
              0               1               0            -985 
              0               0               1   -448.07464184 
2  1 1 2 1 3 1 4 1 0
2  4 -1 3 -1 2 -1 1 -1 0
1
1.11022302462516e-016               1 1.94289029309402e-016               0 
             -1 1.11022302462516e-016 5.55111512312578e-016               0 
5.55111512312578e-016 -1.94289029309402e-016               1               0 
1
              1               0               0 -220.294412063484 
              0               1               0 -1.08777840068797e-007 
              0               0               1          110.25 
1
0.951056516295154 0.309016994374947 -2.77555756156289e-017               0 
2.77555756156289e-017 -2.22044604925031e-016              -1               0 
-0.309016994374947 0.951056516295154 -2.22044604925031e-016               0 
1
              1               0               0   1379.03194863 
              0               1               0            -985 
              0               0               1   -448.07464184 
2  7 1 8 1 9 1 10 1 0
1
0.987688340595138 -0.156434465040231 -4.14625048266605e-017               0 
0.156434465040231 0.987688340595138 2.19873640613374e-016               0 
6.55621724336122e-018 -2.23652795999822e-016               1               0 
1
              1               0               0 8.61197986768025 
              0               1               0 281.208920481576 
              0               0               1          110.25 
1
0.951056516295154 0.309016994374947 -2.77555756156289e-017               0 
2.77555756156289e-017 -2.22044604925031e-016              -1               0 
-0.309016994374947 0.951056516295154 -2.22044604925031e-016               0 
1
              1               0               0   1379.03194863 
              0               1               0            -985 
              0               0               1   -448.07464184 
2  12 1 13 1 14 1 15 1 0
1
1.11022302462516e-016               1 1.94289029309402e-016               0 
             -1 1.11022302462516e-016 5.55111512312578e-016               0 
5.55111512312578e-016 -1.94289029309402e-016               1               0 
1
              1               0               0 340.495793582239 
              0               1               0 1.05246954262839e-007 
              0               0               1          110.25 
1
0.951056516295154 0.309016994374947 -2.77555756156289e-017               0 
2.77555756156289e-017 -2.22044604925031e-016              -1               0 
-0.309016994374947 0.951056516295154 -2.22044604925031e-016               0 
1
              1               0               0   1379.03194863 
              0               1               0            -985 
              0               0               1   -448.07464184 
2  17 1 18 1 19 1 20 1 0
1
-0.987688340595138 -0.156434465040231 -2.37020299063331e-016               0 
0.156434465040231 -0.987688340595138 1.4278267159998e-016               0 
-2.56438316717983e-016 1.03946636290677e-016               1               0 
1
              1               0               0 8.61198021763994 
              0               1               0 -281.208920337736 
              0               0               1          110.25 
1
0.951056516295154 0.309016994374947 -2.77555756156289e-017               0 
2.77555756156289e-017 -2.22044604925031e-016              -1               0 
-0.309016994374947 0.951056516295154 -2.22044604925031e-016               0 
1
              1               0               0   1379.03194863 
              0               1               0            -985 
              0               0               1   -448.07464184 
2  22 1 23 1 24 1 25 1 0
Curve2ds 57
1 1480.5 0 0 -1 
1 0 0 0 1 
1 0 -376.45304905 1 0 
1 0 0 1 0 
1 0 0 0 -1 
1 0 0 0 1 
8 -103.63499999999998 1672.9649999999999
1 -44.415000000000035 -57.740378024197746 1 -4.5551611909961178e-016 
8 -103.63499999999998 1672.9649999999999
1 44.41500000000002 1.8685178905999877 1 2.6092024180515003e-016 
1 74.025000000000034 3.2268553006214979 1 2.4447488021914025e-016 
1 1480.5 0 0 1 
1 0 376.45304905 1 0 
8 -287.32287642163163 64.956617902368393
1 81.599497298903842 366.34142803984588 -0.95105651629515375 0.30901699437494695 
8 -287.32287642163163 64.956617902368393
1 1510.1099999999997 35.599993375368392 4.0168246381865259e-016 -1 
8 -158.75837532712592 236.20863360487408
1 233.37383752577358 109.25308449125633 0.45399049973954692 0.8910065241883679 
8 -158.75837532712592 236.20863360487408
1 1539.7199999999998 203.29471619387408 3.5541623396289889e-018 -1 
8 -199.79206855114398 28.914520392856026
1 7.5962026082695253 55.27222218019574 -0.95105651629515375 0.30901699437494695 
8 -199.79206855114398 28.914520392856026
1 1569.3299999999999 9.8556379808560273 4.0168246381865259e-016 -1 
1 0 0 0 1 
1 0 376.45304905 1 0 
8 -1643.355 133.24500000000006
1 -14.80499999999995 50.479127781794716 -1 -1.4019344606708395e-015 
8 -1643.355 133.24500000000006
1 14.804999999999836 2.8781004237916896 -1 -1.7350013680583863e-015 
8 -287.32287642163226 64.956617902367753
1 81.599497298903614 366.34142803984543 -0.95105651629515375 0.30901699437494695 
8 -287.32287642163226 64.956617902367753
1 29.609999999999889 35.599993375367752 4.0168246381865259e-016 -1 
8 -158.7583753271258 236.20863360487419
1 233.37383752577358 109.25308449125633 0.45399049973954692 0.8910065241883679 
8 -158.7583753271258 236.20863360487419
1 59.219999999999892 203.29471619387419 3.5541623396289889e-018 -1 
8 -199.79206855114461 28.914520392855387
1 7.5962026082692979 55.272222180195286 -0.95105651629515375 0.30901699437494695 
8 -199.79206855114461 28.914520392855387
1 88.830000000000041 9.8556379808553896 4.0168246381865259e-016 -1 
8 -1658.1599999999999 118.44000000000011
1 -29.6099999999999 177.70661054171342 -1 -1.1465865884019873e-017 
8 -1658.1599999999999 118.44000000000011
1 29.609999999999957 325.91231946089476 -1 1.6512318430037275e-018 
1 59.220000000000077 188.72030590613244 -1 -4.1258715028261581e-016 
8 -133.245 1643.355
1 -14.80500000000001 -287.51485417651634 1 -4.5551611909961178e-016 
8 -133.245 1643.355
1 14.804999999999739 290.68814483050824 1 2.6092024180515003e-016 
1 44.41499999999985 3.2268548555512133 1 -4.0231367165109056e-016 
1 0 0 1 0 
1 0 0 1 0 
1 1717.3800000000001 0 0 -1 
1 0 0 0 1 
1 0 -329.13917452999999 1 0 
1 0 0 1 0 
1 0 0 0 -1 
1 0 0 0 1 
1 0 0 1 0 
1 0 329.13917452999999 1 0 
1 1717.3800000000001 0 0 -1 
1 329.13917452999999 0 0 1 
1 0 -329.13917452999999 1 0 
1 0 329.13917452999999 1 0 
1 0 0 0 -1 
1 329.13917452999999 0 0 1 
1 0 0 0 1 
1 0 0 1 0 
1 1717.3800000000001 0 0 1 
1 0 0 1 0 
1 0 0 0 1 
1 0 329.13917452999999 1 0 
1 1717.3800000000001 0 0 1 
1 0 329.13917452999999 1 0 
Curves 27
1 -162.10137298500001 -188.226524525 740.25 -0 1 0 
1 -162.10137298500001 188.226524525 -740.25 0 0 1 
1 -162.10137298500001 -188.226524525 -740.25 -0 1 0 
1 1289.0200730691981 -310.58500000000009 -320.59421220499996 2.3347151417458057e-016 -1 -1.5298598682860046e-031 
1 -162.10137298500001 188.226524525 740.25 1 0 -0 
1 1597.621123084846 -1835.5 -402.19370950390396 0.3090169943749474 -6.6324864482096617e-017 0.95105651629515364 
1 1340.5327795362564 -1835.5000000000002 -553.9680497307736 0.89100652418836768 -1.8391673685935522e-016 -0.4539904997395473 
1 1286.5519172251959 -1835.5 -328.19041481326951 0.3090169943749474 -6.6324864482096617e-017 0.95105651629515364 
1 -162.10137298500001 188.226524525 -740.25 1 0 -0 
1 1607.7327440950005 -340.19500000000016 -371.07333998679485 2.2204460492503185e-016 1 1.4019344606708395e-015 
1 1597.6211230848457 -355.00000000000023 -402.19370950390373 0.3090169943749474 -6.6324864482096617e-017 0.95105651629515364 
1 1340.5327795362566 -355.00000000000017 -553.9680497307736 0.89100652418836768 -1.8391673685935522e-016 -0.4539904997395473 
1 1286.5519172251957 -355.00000000000011 -328.19041481326929 0.3090169943749474 -6.6324864482096617e-017 0.95105651629515364 
1 1231.2796950450004 -325.39000000000021 -498.30082274671338 2.2204460492503121e-016 1 1.1465865884019824e-017 
1 1518.7945492215167 -340.19500000000016 -644.7969581750001 2.3347151417458057e-016 -1 -1.5298598682860046e-031 
1 -164.569587265 -164.569587265 -858.69000000000005 0 0 1 
1 -164.569587265 -164.569587265 858.69000000000005 -0 1 0 
1 -164.569587265 164.569587265 -858.69000000000005 0 0 1 
1 -164.569587265 -164.569587265 -858.69000000000005 -0 1 0 
1 164.569587265 -164.569587265 -858.69000000000005 0 0 1 
1 164.569587265 -164.569587265 858.69000000000005 0 1 0 
1 164.569587265 164.569587265 -858.69000000000005 0 0 1 
1 164.569587265 -164.569587265 -858.69000000000005 -0 1 0 
1 -164.569587265 -164.569587265 -858.69000000000005 1 0 -0 
1 -164.569587265 -164.569587265 858.69000000000005 1 0 -0 
1 -164.569587265 164.569587265 -858.69000000000005 1 0 -0 
1 -164.569587265 164.569587265 858.69000000000005 1 0 -0 
Polygon3D 0
PolygonOnTriangulations 0
Surfaces 15
1 -162.10137298500001 -188.226524525 -740.25 1 0 -0 0 0 1 0 -1 0 
1 -162.10137298500001 -188.226524525 740.25 0 0 1 1 0 -0 -0 1 0 
1 -162.10137298500001 188.226524525 -740.25 -0 1 0 0 0 1 1 0 -0 
1 -162.10137298500001 -188.226524525 -740.25 0 0 1 1 0 -0 -0 1 0 
1 -95.294412059999999 95.294412059999999 -829.08000000000004 -0 1 0 0 0 1 1 0 -0 
1 -164.569587265 -164.569587265 -858.69000000000005 -0 1 0 0 0 1 1 0 -0 
1 -146.78312263500001 -146.78312263500001 -769.86000000000001 -0 1 0 0 0 1 1 0 -0 
1 -164.569587055 -164.569587055 -799.47000000000003 -0 1 0 0 0 1 1 0 -0 
1 -162.10137298500001 -188.226524525 -740.25 -0 1 0 0 0 1 1 0 -0 
1 162.10137298500001 -188.226524525 -740.25 1 0 -0 0 0 1 0 -1 0 
1 -164.569587265 -164.569587265 -858.69000000000005 1 0 -0 0 0 1 0 -1 0 
1 -164.569587265 -164.569587265 858.69000000000005 0 0 1 1 0 -0 -0 1 0 
1 -164.569587265 164.569587265 -858.69000000000005 -0 1 0 0 0 1 1 0 -0 
1 -164.569587265 -164.569587265 -858.69000000000005 0 0 1 1 0 -0 -0 1 0 
1 164.569587265 -164.569587265 -858.69000000000005 1 0 -0 0 0 1 0 -1 0 
Triangulations 0

TShapes 77
Ve
2.01466963611518e-007
1289.0200730692 -1835.5 -320.594212205
0 0

0101101
*
Ve
1e-007
-162.101372985 188.226524525 740.25
0 0

0101101
*
Ed
 1e-007 1 1 0
1  1 0 57.7403780241984 376.45304905
2  1 1 0 57.7403780241984 376.45304905
2  2 2 0 57.7403780241984 376.45304905
0

0101000
+77 6 -76 0 *
Ve
1e-007
-162.101372985 188.226524525 -740.25
0 0

0101101
*
Ed
 1e-007 1 1 0
1  2 0 0 1480.5
2  3 1 0 0 1480.5
2  4 3 0 0 1480.5
0

0101000
-76 0 +74 0 *
Ve
2.01466907467939e-007
1289.0200730692 -355 -320.594212205
0 0

0101101
*
Ed
 1e-007 1 1 0
1  3 0 57.7403780241978 376.45304905
2  5 1 0 57.7403780241978 376.45304905
2  6 4 0 57.7403780241978 376.45304905
0

0101000
+72 6 -74 0 *
Ed
 2.01466907467939e-007 1 1 0
1  4 0 44.415 1524.915
2  7 1 5 44.415 1524.915
2  8 5 11 44.415 1524.915
2  9 6 16 44.415 1524.915
0

0101000
+72 0 -77 0 *
Wi

0101100
-75 5 +73 5 +71 5 -70 0 *
Fa
0  1e-007 1 5

0111000
+69 0 *
Ve
4.41437867335159e-007
1607.732744095 -1835.5 -371.073339986797
0 0

0101101
*
Ed
 1e-007 1 1 0
1  5 0 0 50.4791277817972
2  10 3 0 0 50.4791277817972
2  11 2 0 0 50.4791277817972
0

0101000
+76 0 -67 6 *
Ve
2.04846350883606e-007
1518.79454922152 -1835.5 -644.796958175
0 0

0101101
*
Ed
 1e-007 1 1 0
1  6 0 -255.08815145514 32.7218929515737
2  12 2 5 -255.08815145514 32.7218929515737
2  13 7 21 -255.08815145514 32.7218929515737
0

0101000
+65 0 -67 0 *
Ve
2.03099591867877e-007
1231.279695045 -1835.5 -498.300822746713
0 0

0101101
*
Ed
 1e-007 1 1 0
1  7 0 -122.617603267021 200.067861338323
2  14 2 5 -122.617603267021 200.067861338323
2  15 8 26 -122.617603267021 200.067861338323
0

0101000
+63 0 -65 0 *
Ed
 1e-007 1 1 0
1  8 0 -178.864667925277 7.98712009025567
2  16 2 5 -178.864667925277 7.98712009025567
2  17 5 11 -178.864667925277 7.98712009025567
0

0101000
+63 0 -77 0 *
Wi

0101100
-66 5 +64 0 +62 0 -61 0 -75 5 *
Fa
0  1e-007 2 5

0111000
+60 0 *
Ve
4.41440857939587e-007
1607.732744095 -355 -371.073339986794
0 0

0101101
*
Ed
 1e-007 1 1 0
1  9 0 0 50.4791277817943
2  18 3 0 0 50.4791277817943
2  19 4 0 0 50.4791277817943
0

0101000
+74 0 -58 6 *
Ed
 1e-007 1 1 0
1  10 0 -1495.305 -14.805
2  20 3 5 -1495.305 -14.805
2  21 7 21 -1495.305 -14.805
0

0101000
+67 0 -58 0 *
Wi

0101100
-57 5 +56 0 +66 5 +73 5 *
Fa
0  1e-007 3 5

0111000
+55 0 *
Ve
2.04846350883606e-007
1518.79454922152 -355 -644.796958175
0 0

0101101
*
Ed
 1e-007 1 1 0
1  11 0 -255.08815145514 32.7218929515765
2  22 4 5 -255.08815145514 32.7218929515765
2  23 7 21 -255.08815145514 32.7218929515765
0

0101000
+53 0 -58 0 *
Ve
2.03099591867877e-007
1231.279695045 -355 -498.300822746713
0 0

0101101
*
Ed
 1e-007 1 1 0
1  12 0 -122.617603267021 200.067861338323
2  24 4 5 -122.617603267021 200.067861338323
2  25 8 26 -122.617603267021 200.067861338323
0

0101000
+51 0 -53 0 *
Ed
 1e-007 1 1 0
1  13 0 -178.864667925277 7.98712009025539
2  26 4 5 -178.864667925277 7.98712009025539
2  27 5 11 -178.864667925277 7.98712009025539
0

0101000
+51 0 -72 0 *
Wi

0101100
-57 5 +52 0 +50 0 -49 0 -71 5 *
Fa
0  1e-007 4 5

0111000
+48 0 *
Ed
 2.03099591867877e-007 1 1 0
1  14 0 -1510.11 -29.6099999999999
2  28 9 5 -1510.11 -29.6099999999999
2  29 8 26 -1510.11 -29.6099999999999
2  30 5 11 -1510.11 -29.6099999999999
0

0101000
+63 0 -51 0 *
Wi

0101100
-61 0 +70 0 +49 0 +46 0 *
Fa
0  1e-007 5 11

0111000
+45 0 *
Ed
 2.04846350883606e-007 1 1 0
1  15 0 14.805 1495.305
2  31 10 5 14.805 1495.305
2  32 7 21 14.805 1495.305
2  33 8 26 14.805 1495.305
0

0101000
+53 0 -65 0 *
Wi

0101100
-43 0 +52 0 -64 0 -56 0 *
Fa
0  1e-007 7 21

0111000
+42 0 *
Wi

0101100
+50 0 +46 0 +43 0 -62 0 *
Fa
0  1e-007 8 26

0111000
+40 0 *
Sh

0101100
-68 0 +59 0 +54 0 -47 0 -44 0 +41 0 +39 0 *
So

0100000
+38 0 *
Co

0100000
+37 0 *
Ve
1e-007
-164.569587265 -164.569587265 858.69
0 0

0101101
*
Ve
1e-007
-164.569587265 -164.569587265 -858.69
0 0

0101101
*
Ed
 1e-007 1 1 0
1  16 0 0 1717.38
2  34 11 0 0 1717.38
2  35 6 0 0 1717.38
0

0101000
-35 0 +34 0 *
Ve
1e-007
-164.569587265 164.569587265 858.69
0 0

0101101
*
Ed
 1e-007 1 1 0
1  17 0 0 329.13917453
2  36 11 0 0 329.13917453
2  37 12 0 0 329.13917453
0

0101000
-32 0 +35 0 *
Ve
1e-007
-164.569587265 164.569587265 -858.69
0 0

0101101
*
Ed
 1e-007 1 1 0
1  18 0 0 1717.38
2  38 11 0 0 1717.38
2  39 13 0 0 1717.38
0

0101000
-32 0 +30 0 *
Ed
 1e-007 1 1 0
1  19 0 0 329.13917453
2  40 11 0 0 329.13917453
2  41 14 0 0 329.13917453
0

0101000
-30 0 +34 0 *
Wi

0101100
-33 0 -31 0 +29 0 +28 0 *
Fa
0  1e-007 11 0

0111000
+27 0 *
Ve
1e-007
164.569587265 -164.569587265 858.69
0 0

0101101
*
Ve
1e-007
164.569587265 -164.569587265 -858.69
0 0

0101101
*
Ed
 1e-007 1 1 0
1  20 0 0 1717.38
2  42 15 0 0 1717.38
2  43 6 0 0 1717.38
0

0101000
-25 0 +24 0 *
Ve
1e-007
164.569587265 164.569587265 858.69
0 0

0101101
*
Ed
 1e-007 1 1 0
1  21 0 0 329.13917453
2  44 15 0 0 329.13917453
2  45 12 0 0 329.13917453
0

0101000
-22 0 +25 0 *
Ve
1e-007
164.569587265 164.569587265 -858.69
0 0

0101101
*
Ed
 1e-007 1 1 0
1  22 0 0 1717.38
2  46 15 0 0 1717.38
2  47 13 0 0 1717.38
0

0101000
-22 0 +20 0 *
Ed
 1e-007 1 1 0
1  23 0 0 329.13917453
2  48 15 0 0 329.13917453
2  49 14 0 0 329.13917453
0

0101000
-20 0 +24 0 *
Wi

0101100
-23 0 -21 0 +19 0 +18 0 *
Fa
0  1e-007 15 0

0111000
+17 0 *
Ed
 1e-007 1 1 0
1  24 0 0 329.13917453
2  50 6 0 0 329.13917453
2  51 14 0 0 329.13917453
0

0101000
-24 0 +34 0 *
Ed
 1e-007 1 1 0
1  25 0 0 329.13917453
2  52 6 0 0 329.13917453
2  53 12 0 0 329.13917453
0

0101000
-25 0 +35 0 *
Wi

0101100
-15 0 -23 0 +14 0 +33 0 *
Fa
0  1e-007 6 0

0111000
+13 0 *
Ed
 1e-007 1 1 0
1  26 0 0 329.13917453
2  54 13 0 0 329.13917453
2  55 14 0 0 329.13917453
0

0101000
-20 0 +30 0 *
Ed
 1e-007 1 1 0
1  27 0 0 329.13917453
2  56 13 0 0 329.13917453
2  57 12 0 0 329.13917453
0

0101000
-22 0 +32 0 *
Wi

0101100
-11 0 -19 0 +10 0 +29 0 *
Fa
0  1e-007 13 0

0111000
+9 0 *
Wi

0101100
-28 0 -11 0 +18 0 +15 0 *
Fa
0  1e-007 14 0

0111000
+7 0 *
Wi

0101100
-31 0 -10 0 +21 0 +14 0 *
Fa
0  1e-007 12 0

0111000
+5 0 *
Sh

0101100
-26 0 +16 0 -12 0 +8 0 -6 0 +4 0 *
So

0100000
+3 0 *
Co

1100000
+36 0 +2 16 *

+1 0 
0

