DBRep_DrawableShape

CASCADE Topology V1, (c) Matra-Datavision
Locations 2
1
              1               0               0               0 
              0               1               0               0 
              0               0               1              10 
2  1 -1 0
Curve2ds 4
1 0 0 0 -1 
1 6.2831853071795862 0 0 -1 
1 0 0 1 0 
1 0 -10 1 0 
Curves 2
1 5 0 0 0 0 1 
2 0 0 0 0 0 1 1 0 -0 -0 1 0 5
Polygon3D 0
PolygonOnTriangulations 1
433 1 2 3 4 5 6 7 8 9 10 11 12 13 14 15 16 17 18 19 20 21 22 23 24 25 26 27 28 29 30 31 32 33 34 35 36 37 38 39 40 41 42 43 44 45 46 47 48 49 50 51 52 53 54 55 56 57 58 59 60 61 62 63 64 65 66 67 68 69 70 71 72 73 74 75 76 77 78 79 80 81 82 83 84 85 86 87 88 89 90 91 92 93 94 95 96 97 98 99 100 101 102 103 104 105 106 107 108 109 110 111 112 113 114 115 116 117 118 119 120 121 122 123 124 125 126 127 128 129 130 131 132 133 134 135 136 137 138 139 140 141 142 143 144 145 146 147 148 149 150 151 152 153 154 155 156 157 158 159 160 161 162 163 164 165 166 167 168 169 170 171 172 173 174 175 176 177 178 179 180 181 182 183 184 185 186 187 188 189 190 191 192 193 194 195 196 197 198 199 200 201 202 203 204 205 206 207 208 209 210 211 212 213 214 215 216 217 218 219 220 221 222 223 224 225 226 227 228 229 230 231 232 233 234 235 236 237 238 239 240 241 242 243 244 245 246 247 248 249 250 251 252 253 254 255 256 257 258 259 260 261 262 263 264 265 266 267 268 269 270 271 272 273 274 275 276 277 278 279 280 281 282 283 284 285 286 287 288 289 290 291 292 293 294 295 296 297 298 299 300 301 302 303 304 305 306 307 308 309 310 311 312 313 314 315 316 317 318 319 320 321 322 323 324 325 326 327 328 329 330 331 332 333 334 335 336 337 338 339 340 341 342 343 344 345 346 347 348 349 350 351 352 353 354 355 356 357 358 359 360 361 362 363 364 365 366 367 368 369 370 371 372 373 374 375 376 377 378 379 380 381 382 383 384 385 386 387 388 389 390 391 392 393 394 395 396 397 398 399 400 401 402 403 404 405 406 407 408 409 410 411 412 413 414 415 416 417 418 419 420 421 422 423 424 425 426 427 428 429 430 431 432 1 
p 0.000263367601990804 1 0 0.0145444104332861 0.0290888208665722 0.0436332312998582 0.0581776417331443 0.0727220521664304 0.0872664625997165 0.101810873033003 0.116355283466289 0.130899693899575 0.145444104332861 0.159988514766147 0.174532925199433 0.189077335632719 0.203621746066005 0.218166156499291 0.232710566932577 0.247254977365863 0.261799387799149 0.276343798232435 0.290888208665722 0.305432619099008 0.319977029532294 0.33452143996558 0.349065850398866 0.363610260832152 0.378154671265438 0.392699081698724 0.40724349213201 0.421787902565296 0.436332312998582 0.450876723431868 0.465421133865155 0.479965544298441 0.494509954731727 0.509054365165013 0.523598775598299 0.538143186031585 0.552687596464871 0.567232006898157 0.581776417331443 0.596320827764729 0.610865238198015 0.625409648631301 0.639954059064587 0.654498469497873 0.669042879931159 0.683587290364445 0.698131700797731 0.712676111231017 0.727220521664303 0.741764932097589 0.756309342530875 0.770853752964161 0.785398163397447 0.799942573830733 0.814486984264019 0.829031394697305 0.843575805130591 0.858120215563877 0.872664625997163 0.887209036430449 0.901753446863735 0.916297857297022 0.930842267730308 0.945386678163594 0.95993108859688 0.974475499030166 0.989019909463452 1.00356431989674 1.01810873033002 1.03265314076331 1.0471975511966 1.06174196162988 1.07628637206317 1.09083078249645 1.10537519292974 1.11991960336303 1.13446401379631 1.1490084242296 1.16355283466289 1.17809724509617 1.19264165552946 1.20718606596274 1.22173047639603 1.23627488682932 1.2508192972626 1.26536370769589 1.27990811812917 1.29445252856246 1.30899693899575 1.32354134942903 1.33808575986232 1.3526301702956 1.36717458072889 1.38171899116218 1.39626340159546 1.41080781202875 1.42535222246204 1.43989663289532 1.45444104332861 1.46898545376189 1.48352986419518 1.49807427462847 1.51261868506175 1.52716309549504 1.54170750592832 1.55625191636161 1.5707963267949 1.58534073722818 1.59988514766147 1.61442955809476 1.62897396852804 1.64351837896133 1.65806278939461 1.6726071998279 1.68715161026119 1.70169602069447 1.71624043112776 1.73078484156104 1.74532925199433 1.75987366242762 1.7744180728609 1.78896248329419 1.80350689372748 1.81805130416076 1.83259571459405 1.84714012502733 1.86168453546062 1.87622894589391 1.89077335632719 1.90531776676048 1.91986217719376 1.93440658762705 1.94895099806034 1.96349540849362 1.97803981892691 1.9925842293602 2.00712863979348 2.02167305022677 2.03621746066005 2.05076187109334 2.06530628152662 2.07985069195991 2.0943951023932 2.10893951282648 2.12348392325977 2.13802833369305 2.15257274412634 2.16711715455963 2.18166156499291 2.1962059754262 2.21075038585948 2.22529479629277 2.23983920672606 2.25438361715934 2.26892802759263 2.28347243802591 2.2980168484592 2.31256125889249 2.32710566932577 2.34165007975906 2.35619449019234 2.37073890062563 2.38528331105891 2.3998277214922 2.41437213192549 2.42891654235877 2.44346095279206 2.45800536322534 2.47254977365863 2.48709418409192 2.5016385945252 2.51618300495849 2.53072741539177 2.54527182582506 2.55981623625835 2.57436064669163 2.58890505712492 2.6034494675582 2.61799387799149 2.63253828842478 2.64708269885806 2.66162710929135 2.67617151972463 2.69071593015792 2.70526034059121 2.71980475102449 2.73434916145778 2.74889357189106 2.76343798232435 2.77798239275763 2.79252680319092 2.80707121362421 2.82161562405749 2.83616003449078 2.85070444492406 2.86524885535735 2.87979326579064 2.89433767622392 2.90888208665721 2.92342649709049 2.93797090752378 2.95251531795707 2.96705972839035 2.98160413882364 2.99614854925692 3.01069295969021 3.0252373701235 3.03978178055678 3.05432619099007 3.06887060142335 3.08341501185664 3.09795942228992 3.11250383272321 3.1270482431565 3.14159265358978 3.15613706402307 3.17068147445635 3.18522588488964 3.19977029532293 3.21431470575621 3.2288591161895 3.24340352662278 3.25794793705607 3.27249234748936 3.28703675792264 3.30158116835593 3.31612557878921 3.3306699892225 3.34521439965579 3.35975881008907 3.37430322052236 3.38884763095564 3.40339204138893 3.41793645182221 3.4324808622555 3.44702527268879 3.46156968312207 3.47611409355536 3.49065850398864 3.50520291442193 3.51974732485522 3.5342917352885 3.54883614572179 3.56338055615507 3.57792496658836 3.59246937702165 3.60701378745493 3.62155819788822 3.6361026083215 3.65064701875479 3.66519142918808 3.67973583962136 3.69428025005465 3.70882466048793 3.72336907092122 3.73791348135451 3.75245789178779 3.76700230222108 3.78154671265436 3.79609112308765 3.81063553352093 3.82517994395422 3.83972435438751 3.85426876482079 3.86881317525408 3.88335758568736 3.89790199612065 3.91244640655394 3.92699081698722 3.94153522742051 3.95607963785379 3.97062404828708 3.98516845872037 3.99971286915365 4.01425727958694 4.02880169002022 4.04334610045351 4.0578905108868 4.07243492132008 4.08697933175337 4.10152374218666 4.11606815261994 4.13061256305323 4.14515697348651 4.1597013839198 4.17424579435309 4.18879020478637 4.20333461521966 4.21787902565295 4.23242343608623 4.24696784651952 4.26151225695281 4.27605666738609 4.29060107781938 4.30514548825266 4.31968989868595 4.33423430911924 4.34877871955252 4.36332312998581 4.3778675404191 4.39241195085238 4.40695636128567 4.42150077171896 4.43604518215224 4.45058959258553 4.46513400301881 4.4796784134521 4.49422282388539 4.50876723431867 4.52331164475196 4.53785605518525 4.55240046561853 4.56694487605182 4.58148928648511 4.59603369691839 4.61057810735168 4.62512251778496 4.63966692821825 4.65421133865154 4.66875574908482 4.68330015951811 4.6978445699514 4.71238898038468 4.72693339081797 4.74147780125126 4.75602221168454 4.77056662211783 4.78511103255111 4.7996554429844 4.81419985341769 4.82874426385097 4.84328867428426 4.85783308471755 4.87237749515083 4.88692190558412 4.90146631601741 4.91601072645069 4.93055513688398 4.94509954731726 4.95964395775055 4.97418836818384 4.98873277861712 5.00327718905041 5.0178215994837 5.03236600991698 5.04691042035027 5.06145483078356 5.07599924121684 5.09054365165013 5.10508806208341 5.1196324725167 5.13417688294999 5.14872129338327 5.16326570381656 5.17781011424985 5.19235452468313 5.20689893511642 5.22144334554971 5.23598775598299 5.25053216641628 5.26507657684956 5.27962098728285 5.29416539771614 5.30870980814942 5.32325421858271 5.337798629016 5.35234303944928 5.36688744988257 5.38143186031586 5.39597627074914 5.41052068118243 5.42506509161571 5.439609502049 5.45415391248229 5.46869832291557 5.48324273334886 5.49778714378215 5.51233155421543 5.52687596464872 5.54142037508201 5.55596478551529 5.57050919594858 5.58505360638186 5.59959801681515 5.61414242724844 5.62868683768172 5.64323124811501 5.6577756585483 5.67232006898158 5.68686447941487 5.70140888984816 5.71595330028144 5.73049771071473 5.74504212114801 5.7595865315813 5.77413094201459 5.78867535244787 5.80321976288116 5.81776417331445 5.83230858374773 5.84685299418102 5.8613974046143 5.87594181504759 5.89048622548088 5.90503063591416 5.91957504634745 5.93411945678074 5.94866386721402 5.96320827764731 5.9777526880806 5.99229709851388 6.00684150894717 6.02138591938045 6.03593032981374 6.05047474024703 6.06501915068031 6.0795635611136 6.09410797154689 6.10865238198017 6.12319679241346 6.13774120284675 6.15228561328003 6.16683002371332 6.1813744341466 6.19591884457989 6.21046325501318 6.22500766544646 6.23955207587975 6.25409648631304 6.26864089674632 6.28318530717959 
Surfaces 2
2 0 0 0 -0 -0 -1 1 0 -0 -0 1 0 5
1 5 0 0 -0 0 -1 -1 0 0 0 1 0 
Triangulations 1
433 432 1 0
5 0 0 4.99947115963554 0.0727194882579133 0 4.997884750411 0.145423593715557 0 4.99524110790929 0.21809693682668 0 4.99154079135634 0.290724144552379 0 4.98678458350286 0.363289853613053 0 4.98097349045873 0.435778713738291 0 4.97410874148017 0.508175390914009 0 4.96619178870971 0.580464570626151 0 4.95722430686905 0.652630961100258 0 4.94720819290472 0.724659296536234 0 4.93614556558687 0.796534340337613 0 4.92403876506104 0.868240888334652 0 4.91089035235315 0.939763772000559 0 4.89670310882776 1.01108786166019 0 4.88148003559967 1.08219806969051 0 4.86522435289912 1.1530793537122 0 4.84793949939058 1.22371671977162 0 4.82962913144534 1.2940952255126 0 4.81029712236807 1.36419998333731 0 4.78994756157744 1.43401616355545 0 4.76858475374114 1.50352899752137 0 4.74621321786517 1.57272378075807 0 4.72283768633802 1.64158587606781 0 4.69846310392954 1.71010071662834 0 4.67309462674494 1.77825380907438 0 4.64673762113411 1.84603073656342 0 4.61939766255643 1.91341716182545 0 4.59108053440137 1.98039883019578 0 4.56179222676507 2.04696157263046 0 4.53153893518325 2.1130913087035 0 4.50032705932061 2.1787740495854 0 4.46816320161706 2.24399590100231 0 4.43505416589111 2.30874306617517 0 4.40100695590056 2.3730018487382 0 4.36602877386098 2.43675865563621 0 4.33012701892219 2.5 0 4.29330928560307 2.56271250399933 0 4.255583362185 2.6248829016728 0 4.21695722906443 2.68649804173412 0 4.17743905706468 2.74754489035403 0 4.13703720570755 2.80801053391746 0 4.09576022144496 2.86788218175523 0 4.05361683585106 2.9271471688497 0 4.01061596377522 2.98579295851393 0 3.96676670145618 3.0438071450436 0 3.92207832459788 3.1011774563413 0 3.87656028640733 3.15789175651249 0 3.83022221559489 3.21393804843269 0 3.78307391433747 3.26930447628535 0 3.73512535620498 3.32397932806969 0 3.68638668405062 3.3779510380783 0 3.63686820786525 3.43120818934366 0 3.58658040259645 3.48373951605327 0 3.53553390593274 3.53553390593273 0 3.48373951605328 3.58658040259644 0 3.43120818934367 3.63686820786524 0 3.37795103807831 3.68638668405062 0 3.32397932806969 3.73512535620498 0 3.26930447628535 3.78307391433746 0 3.2139380484327 3.83022221559489 0 3.15789175651249 3.87656028640732 0 3.10117745634131 3.92207832459787 0 3.04380714504361 3.96676670145617 0 2.98579295851394 4.01061596377521 0 2.92714716884971 4.05361683585106 0 2.86788218175524 4.09576022144495 0 2.80801053391747 4.13703720570755 0 2.74754489035404 4.17743905706468 0 2.68649804173413 4.21695722906442 0 2.62488290167281 4.25558336218499 0 2.56271250399933 4.29330928560306 0 2.50000000000001 4.33012701892219 0 2.43675865563622 4.36602877386098 0 2.37300184873821 4.40100695590055 0 2.30874306617518 4.43505416589111 0 2.24399590100232 4.46816320161706 0 2.1787740495854 4.5003270593206 0 2.1130913087035 4.53153893518325 0 2.04696157263047 4.56179222676507 0 1.98039883019579 4.59108053440137 0 1.91341716182545 4.61939766255643 0 1.84603073656343 4.64673762113411 0 1.77825380907439 4.67309462674494 0 1.71010071662835 4.69846310392954 0 1.64158587606781 4.72283768633802 0 1.57272378075807 4.74621321786517 0 1.50352899752137 4.76858475374113 0 1.43401616355545 4.78994756157744 0 1.36419998333731 4.81029712236807 0 1.29409522551261 4.82962913144534 0 1.22371671977162 4.84793949939058 0 1.1530793537122 4.86522435289912 0 1.08219806969052 4.88148003559967 0 1.01108786166019 4.89670310882776 0 0.939763772000561 4.91089035235315 0 0.868240888334653 4.92403876506104 0 0.796534340337614 4.93614556558687 0 0.724659296536235 4.94720819290472 0 0.652630961100259 4.95722430686905 0 0.580464570626152 4.96619178870971 0 0.508175390914009 4.97410874148017 0 0.435778713738291 4.98097349045873 0 0.363289853613053 4.98678458350286 0 0.290724144552378 4.99154079135634 0 0.218096936826679 4.99524110790929 0 0.145423593715556 4.997884750411 0 0.0727194882579117 4.99947115963554 0 -1.91429446079472e-015 5 0 -0.0727194882579155 4.99947115963554 0 -0.14542359371556 4.997884750411 0 -0.218096936826683 4.99524110790929 0 -0.290724144552382 4.99154079135634 0 -0.363289853613056 4.98678458350286 0 -0.435778713738295 4.98097349045873 0 -0.508175390914013 4.97410874148016 0 -0.580464570626155 4.96619178870971 0 -0.652630961100262 4.95722430686905 0 -0.724659296536238 4.94720819290472 0 -0.796534340337618 4.93614556558687 0 -0.868240888334657 4.92403876506104 0 -0.939763772000565 4.91089035235315 0 -1.0110878616602 4.89670310882776 0 -1.08219806969052 4.88148003559967 0 -1.15307935371221 4.86522435289912 0 -1.22371671977163 4.84793949939058 0 -1.29409522551261 4.82962913144534 0 -1.36419998333731 4.81029712236806 0 -1.43401616355546 4.78994756157744 0 -1.50352899752137 4.76858475374113 0 -1.57272378075808 4.74621321786517 0 -1.64158587606781 4.72283768633802 0 -1.71010071662835 4.69846310392954 0 -1.77825380907439 4.67309462674494 0 -1.84603073656343 4.64673762113411 0 -1.91341716182546 4.61939766255643 0 -1.98039883019579 4.59108053440137 0 -2.04696157263047 4.56179222676507 0 -2.11309130870351 4.53153893518324 0 -2.17877404958541 4.5003270593206 0 -2.24399590100232 4.46816320161706 0 -2.30874306617518 4.4350541658911 0 -2.37300184873821 4.40100695590055 0 -2.43675865563622 4.36602877386098 0 -2.5 4.33012701892219 0 -2.56271250399933 4.29330928560306 0 -2.6248829016728 4.255583362185 0 -2.68649804173412 4.21695722906443 0 -2.74754489035403 4.17743905706468 0 -2.80801053391747 4.13703720570755 0 -2.86788218175523 4.09576022144496 0 -2.9271471688497 4.05361683585106 0 -2.98579295851393 4.01061596377522 0 -3.0438071450436 3.96676670145618 0 -3.1011774563413 3.92207832459788 0 -3.15789175651249 3.87656028640733 0 -3.21393804843269 3.83022221559489 0 -3.26930447628534 3.78307391433747 0 -3.32397932806968 3.73512535620498 0 -3.3779510380783 3.68638668405062 0 -3.43120818934366 3.63686820786525 0 -3.48373951605327 3.58658040259645 0 -3.53553390593273 3.53553390593274 0 -3.58658040259644 3.48373951605328 0 -3.63686820786524 3.43120818934368 0 -3.68638668405061 3.37795103807831 0 -3.73512535620497 3.3239793280697 0 -3.78307391433746 3.26930447628536 0 -3.83022221559488 3.21393804843271 0 -3.87656028640732 3.1578917565125 0 -3.92207832459787 3.10117745634131 0 -3.96676670145617 3.04380714504362 0 -4.01061596377521 2.98579295851394 0 -4.05361683585105 2.92714716884972 0 -4.09576022144495 2.86788218175525 0 -4.13703720570754 2.80801053391748 0 -4.17743905706467 2.74754489035405 0 -4.21695722906442 2.68649804173414 0 -4.25558336218499 2.62488290167282 0 -4.29330928560305 2.56271250399935 0 -4.33012701892218 2.50000000000002 0 -4.36602877386097 2.43675865563623 0 -4.40100695590054 2.37300184873823 0 -4.4350541658911 2.30874306617519 0 -4.46816320161705 2.24399590100234 0 -4.50032705932059 2.17877404958542 0 -4.53153893518324 2.11309130870352 0 -4.56179222676506 2.04696157263049 0 -4.59108053440136 1.98039883019581 0 -4.61939766255642 1.91341716182548 0 -4.6467376211341 1.84603073656345 0 -4.67309462674493 1.77825380907441 0 -4.69846310392953 1.71010071662838 0 -4.72283768633801 1.64158587606784 0 -4.74621321786516 1.5727237807581 0 -4.76858475374112 1.5035289975214 0 -4.78994756157743 1.43401616355549 0 -4.81029712236806 1.36419998333734 0 -4.82962913144533 1.29409522551264 0 -4.84793949939057 1.22371671977166 0 -4.86522435289911 1.15307935371224 0 -4.88148003559966 1.08219806969055 0 -4.89670310882775 1.01108786166023 0 -4.91089035235315 0.939763772000602 0 -4.92403876506103 0.868240888334695 0 -4.93614556558686 0.796534340337657 0 -4.94720819290472 0.724659296536279 0 -4.95722430686905 0.652630961100304 0 -4.96619178870971 0.580464570626198 0 -4.97410874148016 0.508175390914057 0 -4.98097349045872 0.43577871373834 0 -4.98678458350286 0.363289853613103 0 -4.99154079135634 0.29072414455243 0 -4.99524110790929 0.218096936826731 0 -4.997884750411 0.145423593715609 0 -4.99947115963554 0.0727194882579664 0 -5 5.39030083589187e-014 0 -4.99947115963554 -0.0727194882578586 0 -4.997884750411 -0.145423593715502 0 -4.99524110790929 -0.218096936826624 0 -4.99154079135634 -0.290724144552322 0 -4.98678458350287 -0.363289853612995 0 -4.98097349045873 -0.435778713738232 0 -4.97410874148017 -0.50817539091395 0 -4.96619178870972 -0.580464570626091 0 -4.95722430686906 -0.652630961100197 0 -4.94720819290473 -0.724659296536172 0 -4.93614556558688 -0.796534340337551 0 -4.92403876506105 -0.868240888334589 0 -4.91089035235317 -0.939763772000496 0 -4.89670310882777 -1.01108786166013 0 -4.88148003559968 -1.08219806969045 0 -4.86522435289913 -1.15307935371214 0 -4.8479394993906 -1.22371671977155 0 -4.82962913144536 -1.29409522551254 0 -4.81029712236808 -1.36419998333724 0 -4.78994756157746 -1.43401616355538 0 -4.76858475374116 -1.5035289975213 0 -4.74621321786519 -1.572723780758 0 -4.72283768633805 -1.64158587606774 0 -4.69846310392957 -1.71010071662827 0 -4.67309462674497 -1.77825380907431 0 -4.64673762113414 -1.84603073656335 0 -4.61939766255646 -1.91341716182538 0 -4.5910805344014 -1.98039883019571 0 -4.5617922267651 -2.04696157263039 0 -4.53153893518328 -2.11309130870343 0 -4.50032705932064 -2.17877404958533 0 -4.4681632016171 -2.24399590100224 0 -4.43505416589115 -2.3087430661751 0 -4.40100695590059 -2.37300184873813 0 -4.36602877386102 -2.43675865563614 0 -4.33012701892224 -2.49999999999993 0 -4.29330928560311 -2.56271250399925 0 -4.25558336218504 -2.62488290167273 0 -4.21695722906447 -2.68649804173405 0 -4.17743905706473 -2.74754489035396 0 -4.1370372057076 -2.80801053391739 0 -4.09576022144501 -2.86788218175516 0 -4.05361683585111 -2.92714716884963 0 -4.01061596377527 -2.98579295851386 0 -3.96676670145623 -3.04380714504353 0 -3.92207832459794 -3.10117745634123 0 -3.87656028640739 -3.15789175651242 0 -3.83022221559495 -3.21393804843263 0 -3.78307391433753 -3.26930447628528 0 -3.73512535620504 -3.32397932806962 0 -3.68638668405068 -3.37795103807823 0 -3.63686820786531 -3.4312081893436 0 -3.58658040259652 -3.48373951605321 0 -3.53553390593281 -3.53553390593267 0 -3.48373951605335 -3.58658040259638 0 -3.43120818934374 -3.63686820786517 0 -3.37795103807838 -3.68638668405055 0 -3.32397932806976 -3.73512535620491 0 -3.26930447628543 -3.7830739143374 0 -3.21393804843278 -3.83022221559482 0 -3.15789175651257 -3.87656028640726 0 -3.10117745634138 -3.92207832459782 0 -3.04380714504368 -3.96676670145612 0 -2.98579295851401 -4.01061596377516 0 -2.92714716884978 -4.05361683585101 0 -2.86788218175531 -4.0957602214449 0 -2.80801053391754 -4.1370372057075 0 -2.74754489035411 -4.17743905706463 0 -2.6864980417342 -4.21695722906438 0 -2.62488290167288 -4.25558336218495 0 -2.5627125039994 -4.29330928560302 0 -2.50000000000008 -4.33012701892215 0 -2.43675865563629 -4.36602877386094 0 -2.37300184873828 -4.40100695590052 0 -2.30874306617524 -4.43505416589107 0 -2.24399590100238 -4.46816320161703 0 -2.17877404958547 -4.50032705932057 0 -2.11309130870357 -4.53153893518322 0 -2.04696157263053 -4.56179222676504 0 -1.98039883019585 -4.59108053440134 0 -1.91341716182552 -4.61939766255641 0 -1.84603073656349 -4.64673762113409 0 -1.77825380907445 -4.67309462674492 0 -1.71010071662841 -4.69846310392952 0 -1.64158587606787 -4.722837686338 0 -1.57272378075813 -4.74621321786515 0 -1.50352899752143 -4.76858475374111 0 -1.43401616355551 -4.78994756157743 0 -1.36419998333737 -4.81029712236805 0 -1.29409522551266 -4.82962913144533 0 -1.22371671977168 -4.84793949939057 0 -1.15307935371226 -4.86522435289911 0 -1.08219806969057 -4.88148003559965 0 -1.01108786166024 -4.89670310882775 0 -0.939763772000613 -4.91089035235314 0 -0.868240888334704 -4.92403876506103 0 -0.796534340337664 -4.93614556558686 0 -0.724659296536284 -4.94720819290472 0 -0.652630961100307 -4.95722430686905 0 -0.580464570626198 -4.96619178870971 0 -0.508175390914055 -4.97410874148016 0 -0.435778713738336 -4.98097349045872 0 -0.363289853613096 -4.98678458350286 0 -0.290724144552421 -4.99154079135634 0 -0.218096936826721 -4.99524110790929 0 -0.145423593715596 -4.997884750411 0 -0.0727194882579511 -4.99947115963554 0 -3.64455915533718e-014 -5 0 0.0727194882578782 -4.99947115963554 0 0.145423593715523 -4.997884750411 0 0.218096936826648 -4.99524110790929 0 0.290724144552348 -4.99154079135634 0 0.363289853613024 -4.98678458350286 0 0.435778713738263 -4.98097349045873 0 0.508175390913983 -4.97410874148017 0 0.580464570626126 -4.96619178870972 0 0.652630961100234 -4.95722430686906 0 0.724659296536211 -4.94720819290473 0 0.796534340337592 -4.93614556558687 0 0.868240888334632 -4.92403876506104 0 0.939763772000541 -4.91089035235316 0 1.01108786166017 -4.89670310882776 0 1.0821980696905 -4.88148003559967 0 1.15307935371219 -4.86522435289912 0 1.22371671977161 -4.84793949939058 0 1.29409522551259 -4.82962913144534 0 1.3641999833373 -4.81029712236807 0 1.43401616355544 -4.78994756157745 0 1.50352899752136 -4.76858475374114 0 1.57272378075806 -4.74621321786517 0 1.6415858760678 -4.72283768633802 0 1.71010071662834 -4.69846310392954 0 1.77825380907438 -4.67309462674494 0 1.84603073656342 -4.64673762113411 0 1.91341716182545 -4.61939766255643 0 1.98039883019579 -4.59108053440137 0 2.04696157263047 -4.56179222676507 0 2.1130913087035 -4.53153893518325 0 2.1787740495854 -4.5003270593206 0 2.24399590100232 -4.46816320161706 0 2.30874306617518 -4.4350541658911 0 2.37300184873821 -4.40100695590055 0 2.43675865563622 -4.36602877386097 0 2.50000000000001 -4.33012701892219 0 2.56271250399934 -4.29330928560306 0 2.62488290167282 -4.25558336218499 0 2.68649804173413 -4.21695722906442 0 2.74754489035405 -4.17743905706467 0 2.80801053391748 -4.13703720570754 0 2.86788218175525 -4.09576022144495 0 2.92714716884972 -4.05361683585105 0 2.98579295851395 -4.0106159637752 0 3.04380714504362 -3.96676670145616 0 3.10117745634132 -3.92207832459786 0 3.15789175651251 -3.87656028640731 0 3.21393804843272 -3.83022221559487 0 3.26930447628537 -3.78307391433744 0 3.32397932806971 -3.73512535620496 0 3.37795103807833 -3.6863866840506 0 3.43120818934369 -3.63686820786522 0 3.4837395160533 -3.58658040259642 0 3.53553390593277 -3.53553390593271 0 3.58658040259648 -3.48373951605325 0 3.63686820786527 -3.43120818934364 0 3.68638668405065 -3.37795103807827 0 3.73512535620501 -3.32397932806966 0 3.78307391433749 -3.26930447628531 0 3.83022221559492 -3.21393804843266 0 3.87656028640736 -3.15789175651245 0 3.92207832459791 -3.10117745634126 0 3.96676670145621 -3.04380714504356 0 4.01061596377525 -2.98579295851389 0 4.05361683585109 -2.92714716884966 0 4.09576022144499 -2.86788218175518 0 4.13703720570758 -2.80801053391742 0 4.17743905706471 -2.74754489035398 0 4.21695722906446 -2.68649804173407 0 4.25558336218503 -2.62488290167275 0 4.2933092856031 -2.56271250399927 0 4.33012701892222 -2.49999999999994 0 4.36602877386101 -2.43675865563615 0 4.40100695590059 -2.37300184873814 0 4.43505416589114 -2.30874306617511 0 4.46816320161709 -2.24399590100225 0 4.50032705932064 -2.17877404958533 0 4.53153893518328 -2.11309130870343 0 4.5617922267651 -2.0469615726304 0 4.5910805344014 -1.98039883019572 0 4.61939766255646 -1.91341716182538 0 4.64673762113414 -1.84603073656335 0 4.67309462674497 -1.77825380907431 0 4.69846310392957 -1.71010071662827 0 4.72283768633805 -1.64158587606773 0 4.7462132178652 -1.57272378075799 0 4.76858475374116 -1.50352899752128 0 4.78994756157747 -1.43401616355537 0 4.81029712236809 -1.36419998333722 0 4.82962913144536 -1.29409522551252 0 4.8479394993906 -1.22371671977153 0 4.86522435289914 -1.15307935371211 0 4.88148003559969 -1.08219806969042 0 4.89670310882778 -1.0110878616601 0 4.91089035235317 -0.939763772000465 0 4.92403876506106 -0.868240888334556 0 4.93614556558689 -0.796534340337515 0 4.94720819290474 -0.724659296536134 0 4.95722430686907 -0.652630961100157 0 4.96619178870973 -0.580464570626049 0 4.97410874148018 -0.508175390913905 0 4.98097349045874 -0.435778713738185 0 4.98678458350287 -0.363289853612946 0 4.99154079135635 -0.290724144552271 0 4.99524110790929 -0.21809693682657 0 4.99788475041101 -0.145423593715446 0 4.99947115963554 -0.0727194882578004 0 0 0 0 0 0 0.000528840364462546 0.0727194882579134 0.00211524958899734 0.145423593715557 0.00475889209071134 0.21809693682668 0.00845920864365901 0.290724144552379 0.0132154164971388 0.363289853613053 0.0190265095412725 0.435778713738291 0.0258912585198345 0.508175390914009 0.0338082112902853 0.580464570626151 0.042775693130948 0.652630961100257 0.0527918070952778 0.724659296536234 0.0638544344131295 0.796534340337613 0.0759612349389602 0.868240888334651 0.0891096476468469 0.93976377200056 0.103296891172243 1.01108786166019 0.118519964400333 1.08219806969051 0.134775647100881 1.1530793537122 0.15206050060942 1.22371671977162 0.170370868554659 1.2940952255126 0.189702877631934 1.36419998333731 0.210052438422555 1.43401616355545 0.231415246258865 1.50352899752137 0.253786782134831 1.57272378075807 0.277162313661976 1.64158587606781 0.301536896070457 1.71010071662834 0.326905373255058 1.77825380907438 0.353262378865888 1.84603073656342 0.380602337443566 1.91341716182545 0.40891946559863 1.98039883019578 0.43820777323493 2.04696157263046 0.468461064816751 2.1130913087035 0.499672940679394 2.1787740495854 0.531836798382939 2.24399590100231 0.564945834108891 2.30874306617517 0.598993044099444 2.3730018487382 0.633971226139021 2.43675865563621 0.669872981077806 2.5 0.706690714396935 2.56271250399933 0.744416637815001 2.6248829016728 0.783042770935571 2.68649804173412 0.822560942935317 2.74754489035403 0.862962794292446 2.80801053391746 0.90423977855504 2.86788218175523 0.946383164148937 2.9271471688497 0.98938403622478 2.98579295851393 1.03323329854382 3.0438071450436 1.07792167540212 3.1011774563413 1.12343971359267 3.15789175651249 1.16977778440511 3.21393804843269 1.21692608566253 3.26930447628535 1.26487464379502 3.32397932806969 1.31361331594938 3.3779510380783 1.36313179213475 3.43120818934366 1.41341959740355 3.48373951605327 1.46446609406726 3.53553390593273 1.51626048394672 3.58658040259644 1.56879181065633 3.63686820786524 1.62204896192169 3.68638668405062 1.67602067193031 3.73512535620497 1.73069552371465 3.78307391433746 1.7860619515673 3.83022221559489 1.84210824348751 3.87656028640732 1.89882254365869 3.92207832459787 1.95619285495639 3.96676670145617 2.01420704148606 4.01061596377521 2.07285283115029 4.05361683585106 2.13211781824476 4.09576022144496 2.19198946608253 4.13703720570755 2.25245510964596 4.17743905706468 2.31350195826587 4.21695722906442 2.37511709832719 4.25558336218499 2.43728749600067 4.29330928560306 2.49999999999999 4.33012701892219 2.56324134436378 4.36602877386098 2.62699815126179 4.40100695590055 2.69125693382482 4.43505416589111 2.75600409899768 4.46816320161706 2.8212259504146 4.5003270593206 2.8869086912965 4.53153893518325 2.95303842736953 4.56179222676507 3.01960116980421 4.59108053440137 3.08658283817455 4.61939766255643 3.15396926343657 4.64673762113411 3.22174619092561 4.67309462674494 3.28989928337165 4.69846310392954 3.35841412393219 4.72283768633802 3.42727621924193 4.74621321786517 3.49647100247863 4.76858475374113 3.56598383644454 4.78994756157744 3.63580001666269 4.81029712236807 3.70590477448739 4.82962913144534 3.77628328022838 4.84793949939058 3.8469206462878 4.86522435289912 3.91780193030948 4.88148003559967 3.98891213833981 4.89670310882776 4.06023622799944 4.91089035235315 4.13175911166535 4.92403876506104 4.20346565966239 4.93614556558687 4.27534070346377 4.94720819290472 4.34736903889974 4.95722430686905 4.41953542937385 4.96619178870971 4.49182460908599 4.97410874148017 4.56422128626171 4.98097349045873 4.63671014638695 4.98678458350286 4.70927585544762 4.99154079135634 4.78190306317332 4.99524110790929 4.85457640628444 4.997884750411 4.92728051174209 4.99947115963554 5 5 5.07271948825792 4.99947115963554 5.14542359371556 4.997884750411 5.21809693682668 4.99524110790929 5.29072414455238 4.99154079135634 5.36328985361306 4.98678458350286 5.43577871373829 4.98097349045873 5.50817539091401 4.97410874148017 5.58046457062616 4.96619178870971 5.65263096110026 4.95722430686905 5.72465929653624 4.94720819290472 5.79653434033762 4.93614556558687 5.86824088833466 4.92403876506104 5.93976377200056 4.91089035235315 6.0110878616602 4.89670310882776 6.08219806969052 4.88148003559967 6.15307935371221 4.86522435289912 6.22371671977163 4.84793949939058 6.29409522551261 4.82962913144534 6.36419998333731 4.81029712236806 6.43401616355546 4.78994756157744 6.50352899752137 4.76858475374113 6.57272378075808 4.74621321786517 6.64158587606781 4.72283768633802 6.71010071662835 4.69846310392954 6.77825380907439 4.67309462674494 6.84603073656343 4.64673762113411 6.91341716182546 4.61939766255643 6.98039883019579 4.59108053440137 7.04696157263047 4.56179222676507 7.11309130870351 4.53153893518325 7.1787740495854 4.5003270593206 7.24399590100232 4.46816320161706 7.30874306617518 4.4350541658911 7.37300184873821 4.40100695590055 7.43675865563622 4.36602877386098 7.50000000000001 4.33012701892219 7.56271250399933 4.29330928560306 7.6248829016728 4.255583362185 7.68649804173412 4.21695722906443 7.74754489035403 4.17743905706468 7.80801053391747 4.13703720570755 7.86788218175523 4.09576022144496 7.9271471688497 4.05361683585106 7.98579295851393 4.01061596377522 8.0438071450436 3.96676670145618 8.1011774563413 3.92207832459788 8.15789175651249 3.87656028640733 8.21393804843269 3.83022221559489 8.26930447628535 3.78307391433747 8.32397932806968 3.73512535620498 8.3779510380783 3.68638668405062 8.43120818934366 3.63686820786525 8.48373951605327 3.58658040259645 8.53553390593273 3.53553390593274 8.58658040259644 3.48373951605328 8.63686820786524 3.43120818934367 8.68638668405061 3.37795103807831 8.73512535620497 3.3239793280697 8.78307391433746 3.26930447628536 8.83022221559488 3.21393804843271 8.87656028640732 3.1578917565125 8.92207832459787 3.10117745634131 8.96676670145617 3.04380714504362 9.01061596377521 2.98579295851394 9.05361683585105 2.92714716884972 9.09576022144495 2.86788218175525 9.13703720570754 2.80801053391748 9.17743905706467 2.74754489035405 9.21695722906442 2.68649804173414 9.25558336218499 2.62488290167282 9.29330928560305 2.56271250399935 9.33012701892218 2.50000000000002 9.36602877386097 2.43675865563623 9.40100695590054 2.37300184873823 9.4350541658911 2.30874306617519 9.46816320161705 2.24399590100234 9.50032705932059 2.17877404958542 9.53153893518324 2.11309130870352 9.56179222676506 2.04696157263049 9.59108053440136 1.98039883019581 9.61939766255642 1.91341716182548 9.6467376211341 1.84603073656345 9.67309462674493 1.77825380907441 9.69846310392953 1.71010071662838 9.72283768633801 1.64158587606784 9.74621321786516 1.5727237807581 9.76858475374112 1.5035289975214 9.78994756157743 1.43401616355549 9.81029712236806 1.36419998333734 9.82962913144533 1.29409522551264 9.84793949939057 1.22371671977166 9.86522435289911 1.15307935371224 9.88148003559966 1.08219806969055 9.89670310882775 1.01108786166023 9.91089035235315 0.939763772000601 9.92403876506103 0.868240888334695 9.93614556558686 0.796534340337657 9.94720819290472 0.724659296536279 9.95722430686905 0.652630961100304 9.96619178870971 0.580464570626198 9.97410874148016 0.508175390914057 9.98097349045872 0.43577871373834 9.98678458350286 0.363289853613103 9.99154079135634 0.29072414455243 9.99524110790929 0.218096936826731 9.997884750411 0.145423593715609 9.99947115963554 0.0727194882579667 10 5.41788836017076e-014 9.99947115963554 -0.0727194882578583 9.997884750411 -0.145423593715502 9.99524110790929 -0.218096936826623 9.99154079135634 -0.290724144552322 9.98678458350287 -0.363289853612995 9.98097349045873 -0.435778713738232 9.97410874148017 -0.50817539091395 9.96619178870972 -0.580464570626091 9.95722430686906 -0.652630961100197 9.94720819290473 -0.724659296536172 9.93614556558688 -0.79653434033755 9.92403876506105 -0.868240888334589 9.91089035235317 -0.939763772000496 9.89670310882777 -1.01108786166013 9.88148003559968 -1.08219806969045 9.86522435289913 -1.15307935371214 9.8479394993906 -1.22371671977155 9.82962913144536 -1.29409522551254 9.81029712236808 -1.36419998333724 9.78994756157746 -1.43401616355538 9.76858475374116 -1.5035289975213 9.74621321786519 -1.572723780758 9.72283768633805 -1.64158587606774 9.69846310392957 -1.71010071662827 9.67309462674497 -1.77825380907431 9.64673762113414 -1.84603073656335 9.61939766255646 -1.91341716182538 9.5910805344014 -1.98039883019571 9.5617922267651 -2.04696157263039 9.53153893518328 -2.11309130870343 9.50032705932064 -2.17877404958533 9.4681632016171 -2.24399590100224 9.43505416589115 -2.3087430661751 9.40100695590059 -2.37300184873813 9.36602877386102 -2.43675865563614 9.33012701892224 -2.49999999999993 9.29330928560311 -2.56271250399925 9.25558336218504 -2.62488290167273 9.21695722906447 -2.68649804173405 9.17743905706473 -2.74754489035396 9.1370372057076 -2.80801053391739 9.09576022144501 -2.86788218175516 9.05361683585111 -2.92714716884963 9.01061596377527 -2.98579295851386 8.96676670145623 -3.04380714504353 8.92207832459794 -3.10117745634123 8.87656028640739 -3.15789175651242 8.83022221559495 -3.21393804843263 8.78307391433752 -3.26930447628528 8.73512535620504 -3.32397932806962 8.68638668405069 -3.37795103807823 8.63686820786531 -3.4312081893436 8.58658040259652 -3.48373951605321 8.53553390593281 -3.53553390593267 8.48373951605335 -3.58658040259638 8.43120818934374 -3.63686820786517 8.37795103807838 -3.68638668405055 8.32397932806976 -3.73512535620491 8.26930447628543 -3.7830739143374 8.21393804843278 -3.83022221559482 8.15789175651257 -3.87656028640726 8.10117745634138 -3.92207832459782 8.04380714504368 -3.96676670145612 7.98579295851401 -4.01061596377516 7.92714716884978 -4.05361683585101 7.86788218175531 -4.0957602214449 7.80801053391754 -4.1370372057075 7.74754489035411 -4.17743905706463 7.6864980417342 -4.21695722906438 7.62488290167288 -4.25558336218495 7.5627125039994 -4.29330928560302 7.50000000000007 -4.33012701892215 7.43675865563629 -4.36602877386094 7.37300184873828 -4.40100695590052 7.30874306617524 -4.43505416589107 7.24399590100238 -4.46816320161703 7.17877404958547 -4.50032705932057 7.11309130870357 -4.53153893518322 7.04696157263053 -4.56179222676504 6.98039883019585 -4.59108053440134 6.91341716182552 -4.61939766255641 6.84603073656349 -4.64673762113409 6.77825380907445 -4.67309462674492 6.71010071662841 -4.69846310392952 6.64158587606787 -4.722837686338 6.57272378075813 -4.74621321786515 6.50352899752143 -4.76858475374111 6.43401616355551 -4.78994756157743 6.36419998333737 -4.81029712236805 6.29409522551266 -4.82962913144533 6.22371671977168 -4.84793949939057 6.15307935371226 -4.86522435289911 6.08219806969057 -4.88148003559965 6.01108786166024 -4.89670310882775 5.93976377200061 -4.91089035235314 5.8682408883347 -4.92403876506103 5.79653434033766 -4.93614556558686 5.72465929653628 -4.94720819290472 5.65263096110031 -4.95722430686905 5.5804645706262 -4.96619178870971 5.50817539091406 -4.97410874148016 5.43577871373834 -4.98097349045872 5.3632898536131 -4.98678458350286 5.29072414455242 -4.99154079135634 5.21809693682672 -4.99524110790929 5.1454235937156 -4.997884750411 5.07271948825795 -4.99947115963554 5.00000000000004 -5 4.92728051174212 -4.99947115963554 4.85457640628448 -4.997884750411 4.78190306317335 -4.99524110790929 4.70927585544765 -4.99154079135634 4.63671014638698 -4.98678458350286 4.56422128626174 -4.98097349045873 4.49182460908602 -4.97410874148017 4.41953542937387 -4.96619178870972 4.34736903889977 -4.95722430686906 4.27534070346379 -4.94720819290473 4.20346565966241 -4.93614556558687 4.13175911166537 -4.92403876506104 4.06023622799946 -4.91089035235316 3.98891213833983 -4.89670310882776 3.9178019303095 -4.88148003559967 3.84692064628781 -4.86522435289912 3.77628328022839 -4.84793949939058 3.70590477448741 -4.82962913144534 3.6358000166627 -4.81029712236807 3.56598383644456 -4.78994756157745 3.49647100247864 -4.76858475374114 3.42727621924194 -4.74621321786517 3.3584141239322 -4.72283768633802 3.28989928337166 -4.69846310392954 3.22174619092562 -4.67309462674494 3.15396926343658 -4.64673762113411 3.08658283817455 -4.61939766255643 3.01960116980421 -4.59108053440137 2.95303842736953 -4.56179222676507 2.8869086912965 -4.53153893518325 2.8212259504146 -4.5003270593206 2.75600409899768 -4.46816320161706 2.69125693382482 -4.4350541658911 2.62699815126179 -4.40100695590055 2.56324134436378 -4.36602877386097 2.49999999999999 -4.33012701892219 2.43728749600066 -4.29330928560306 2.37511709832719 -4.25558336218499 2.31350195826587 -4.21695722906442 2.25245510964595 -4.17743905706467 2.19198946608252 -4.13703720570754 2.13211781824475 -4.09576022144495 2.07285283115028 -4.05361683585105 2.01420704148605 -4.0106159637752 1.95619285495638 -3.96676670145616 1.89882254365868 -3.92207832459786 1.84210824348749 -3.87656028640731 1.78606195156728 -3.83022221559487 1.73069552371463 -3.78307391433744 1.67602067193029 -3.73512535620496 1.62204896192167 -3.6863866840506 1.56879181065631 -3.63686820786522 1.5162604839467 -3.58658040259642 1.46446609406723 -3.53553390593271 1.41341959740352 -3.48373951605325 1.36313179213473 -3.43120818934364 1.31361331594935 -3.37795103807827 1.26487464379499 -3.32397932806966 1.21692608566251 -3.26930447628531 1.16977778440508 -3.21393804843266 1.12343971359264 -3.15789175651245 1.07792167540209 -3.10117745634126 1.03323329854379 -3.04380714504356 0.98938403622475 -2.98579295851389 0.946383164148907 -2.92714716884966 0.904239778555009 -2.86788218175518 0.862962794292415 -2.80801053391742 0.822560942935286 -2.74754489035398 0.783042770935539 -2.68649804173407 0.744416637814969 -2.62488290167275 0.706690714396903 -2.56271250399927 0.669872981077775 -2.49999999999994 0.633971226138989 -2.43675865563615 0.598993044099413 -2.37300184873814 0.56494583410886 -2.30874306617511 0.531836798382908 -2.24399590100225 0.499672940679363 -2.17877404958533 0.46846106481672 -2.11309130870343 0.438207773234899 -2.0469615726304 0.4089194655986 -1.98039883019571 0.380602337443537 -1.91341716182538 0.353262378865859 -1.84603073656335 0.32690537325503 -1.77825380907431 0.301536896070431 -1.71010071662827 0.277162313661949 -1.64158587606773 0.253786782134805 -1.57272378075799 0.23141524625884 -1.50352899752128 0.210052438422531 -1.43401616355537 0.18970287763191 -1.36419998333722 0.170370868554635 -1.29409522551252 0.152060500609398 -1.22371671977153 0.134775647100859 -1.15307935371211 0.118519964400313 -1.08219806969042 0.103296891172223 -1.0110878616601 0.0891096476468283 -0.939763772000465 0.0759612349389425 -0.868240888334556 0.0638544344131136 -0.796534340337515 0.0527918070952627 -0.724659296536134 0.0427756931309347 -0.652630961100157 0.0338082112902729 -0.580464570626049 0.0258912585198239 -0.508175390913905 0.0190265095412627 -0.435778713738186 0.0132154164971308 -0.363289853612946 0.00845920864365279 -0.290724144552271 0.0047588920907069 -0.21809693682657 0.00211524958899378 -0.145423593715446 0.00052884036446077 -0.0727194882578006 5 0 433 2 1 433 3 2 433 4 3 433 5 4 433 6 5 433 7 6 433 8 7 433 9 8 433 10 9 433 11 10 433 12 11 433 13 12 433 14 13 433 15 14 433 16 15 433 17 16 433 18 17 433 19 18 433 20 19 433 21 20 433 22 21 433 23 22 433 24 23 433 25 24 433 26 25 433 27 26 433 28 27 433 29 28 433 30 29 433 31 30 433 32 31 433 33 32 433 34 33 433 35 34 433 36 35 433 37 36 433 38 37 433 39 38 433 40 39 433 41 40 433 42 41 433 43 42 433 44 43 433 45 44 433 46 45 433 47 46 433 48 47 433 49 48 433 50 49 433 51 50 433 52 51 433 53 52 433 54 53 433 55 54 433 56 55 433 57 56 433 58 57 433 59 58 433 60 59 433 61 60 433 62 61 433 63 62 433 64 63 433 65 64 433 66 65 433 67 66 433 68 67 433 69 68 433 70 69 433 71 70 433 72 71 433 73 72 433 74 73 433 75 74 433 76 75 433 77 76 433 78 77 433 79 78 433 80 79 433 81 80 433 82 81 433 83 82 433 84 83 433 85 84 433 86 85 433 87 86 433 88 87 433 89 88 433 90 89 433 91 90 433 92 91 433 93 92 433 94 93 433 95 94 433 96 95 433 97 96 433 98 97 433 99 98 433 100 99 433 101 100 433 102 101 433 103 102 433 104 103 433 105 104 433 106 105 433 107 106 433 108 107 433 109 108 433 110 109 433 111 110 433 112 111 433 113 112 433 114 113 433 115 114 433 116 115 433 117 116 433 118 117 433 119 118 433 120 119 433 121 120 433 122 121 433 123 122 433 124 123 433 125 124 433 126 125 433 127 126 433 128 127 433 129 128 433 130 129 433 131 130 433 132 131 433 133 132 433 134 133 433 135 134 433 136 135 433 137 136 433 138 137 433 139 138 433 140 139 433 141 140 433 142 141 433 143 142 433 144 143 433 145 144 433 146 145 433 147 146 433 148 147 433 149 148 433 150 149 433 151 150 433 152 151 433 153 152 433 154 153 433 155 154 433 156 155 433 157 156 433 158 157 433 159 158 433 160 159 433 161 160 433 162 161 433 163 162 433 164 163 433 165 164 433 166 165 433 167 166 433 168 167 433 169 168 433 170 169 433 171 170 433 172 171 433 173 172 433 174 173 433 175 174 433 176 175 433 177 176 433 178 177 433 179 178 433 180 179 433 181 180 433 182 181 433 183 182 433 184 183 433 185 184 433 186 185 433 187 186 433 188 187 433 189 188 433 190 189 433 191 190 433 192 191 433 193 192 433 194 193 433 195 194 433 196 195 433 197 196 433 198 197 433 199 198 433 200 199 433 201 200 433 202 201 433 203 202 433 204 203 433 205 204 433 206 205 433 207 206 433 208 207 433 209 208 433 210 209 433 211 210 433 212 211 433 213 212 433 214 213 433 215 214 433 216 215 433 217 216 433 218 217 433 219 218 433 220 219 433 221 220 433 222 221 433 223 222 433 224 223 433 225 224 433 226 225 433 227 226 433 228 227 433 229 228 433 230 229 433 231 230 433 232 231 433 233 232 433 234 233 433 235 234 433 236 235 433 237 236 433 238 237 433 239 238 433 240 239 433 241 240 433 242 241 433 243 242 433 244 243 433 245 244 433 246 245 433 247 246 433 248 247 433 249 248 433 250 249 433 251 250 433 252 251 433 253 252 433 254 253 433 255 254 433 256 255 433 257 256 433 258 257 433 259 258 433 260 259 433 261 260 433 262 261 433 263 262 433 264 263 433 265 264 433 266 265 433 267 266 433 268 267 433 269 268 433 270 269 433 271 270 433 272 271 433 273 272 433 274 273 433 275 274 433 276 275 433 277 276 433 278 277 433 279 278 433 280 279 433 281 280 433 282 281 433 283 282 433 284 283 433 285 284 433 286 285 433 287 286 433 288 287 433 289 288 433 290 289 433 291 290 433 292 291 433 293 292 433 294 293 433 295 294 433 296 295 433 297 296 433 298 297 433 299 298 433 300 299 433 301 300 433 302 301 433 303 302 433 304 303 433 305 304 433 306 305 433 307 306 433 308 307 433 309 308 433 310 309 433 311 310 433 312 311 433 313 312 433 314 313 433 315 314 433 316 315 433 317 316 433 318 317 433 319 318 433 320 319 433 321 320 433 322 321 433 323 322 433 324 323 433 325 324 433 326 325 433 327 326 433 328 327 433 329 328 433 330 329 433 331 330 433 332 331 433 333 332 433 334 333 433 335 334 433 336 335 433 337 336 433 338 337 433 339 338 433 340 339 433 341 340 433 342 341 433 343 342 433 344 343 433 345 344 433 346 345 433 347 346 433 348 347 433 349 348 433 350 349 433 351 350 433 352 351 433 353 352 433 354 353 433 355 354 433 356 355 433 357 356 433 358 357 433 359 358 433 360 359 433 361 360 433 362 361 433 363 362 433 364 363 433 365 364 433 366 365 433 367 366 433 368 367 433 369 368 433 370 369 433 371 370 433 372 371 433 373 372 433 374 373 433 375 374 433 376 375 433 377 376 433 378 377 433 379 378 433 380 379 433 381 380 433 382 381 433 383 382 433 384 383 433 385 384 433 386 385 433 387 386 433 388 387 433 389 388 433 390 389 433 391 390 433 392 391 433 393 392 433 394 393 433 395 394 433 396 395 433 397 396 433 398 397 433 399 398 433 400 399 433 401 400 433 402 401 433 403 402 433 404 403 433 405 404 433 406 405 433 407 406 433 408 407 433 409 408 433 410 409 433 411 410 433 412 411 433 413 412 433 414 413 433 415 414 433 416 415 433 417 416 433 418 417 433 419 418 433 420 419 433 421 420 433 422 421 433 423 422 433 424 423 433 425 424 433 426 425 433 427 426 433 428 427 433 429 428 433 430 429 433 431 430 433 432 431 433 1 432 

TShapes 9
Ve
1e-007
5 0 0
0 0

0101101
*
Ed
 1e-007 1 1 0
1  1 0 0 10
3  1 2CN 1 0 0 10
0

0101000
+9 0 -9 1 *
Ed
 1e-007 1 1 0
1  2 0 0 6.28318530717959
2  3 1 0 0 6.28318530717959
2  4 1 2 0 6.28318530717959
6  1 1 0
0

0101100
+9 0 -9 0 *
Wi

0101000
+8 0 -8 0 -7 0 +7 1 *
Fa
0  1e-007 1 0

0111000
+6 0 *
Wi

0101100
+7 0 *
Fa
0  1e-007 2 0
2  1
0111000
-4 0 *
Sh

0101000
-5 0 +3 0 -3 1 *
So

1100000
+2 0 *

+1 0 
0

