DBRep_DrawableShape

CASCADE Topology V1, (c) Matra-Datavision
Locations 9
1
0.961523947640823 -0.274721127897378               0 -7.80298569949817 
0.274721127897378 0.961523947640823               0 15.7137466266591 
              0               0               1               0 
1
              1               0               0               0 
              0               1               0               0 
              0               0               1             100 
2  1 1 2 1 0
2  1 -1 0
1
              1               0               0               0 
              0               1               0               0 
              0               0               1             100 
2  5 -1 1 -1 0
1
              1               0               0               0 
              0               1               0               0 
              0               0               1             100 
2  7 -1 1 -1 0
2  2 -1 1 -1 0
Curve2ds 8
1 0 0 0 -1 
1 6.28318530717959 0 0 -1 
1 0 0 1 0 
1 0 -100 1 0 
1 0 0 1 0 
1 0 -100 1 0 
1 0 0 1 0 
1 0 -100 1 0 
Curves 2
1 80 20 0 0 0 1 
3 -60 -20 0 0 0 1 1 0 0 0 1 0 145.60219778561 60.4386481374232
Polygon3D 0
PolygonOnTriangulations 5
2 1 2 
p 0.242455853025496 1 0 100 
2 3 4 
p 0.242455853025496 1 0 100 
66 2 69 70 71 72 73 74 75 76 77 78 79 80 81 82 83 84 85 86 87 88 89 90 91 92 93 94 95 96 97 98 99 100 101 102 103 104 105 106 107 108 109 110 111 112 113 114 115 116 117 118 119 120 121 122 123 124 125 126 127 128 129 130 131 132 4 
p 0.242455853025496 1 0 0.0661069903735658 0.132213980747132 0.198320971120697 0.282412972468149 0.370758416132847 0.462983823939319 0.559528049841085 0.660612646057779 0.766266643509733 0.876349246992857 0.990569241626669 1.10850198634516 1.2296055262507 1.35323728866352 1.47867243795583 1.6051244558825 1.71910364438429 1.83259201600045 1.94498480297311 2.0557001608789 2.16419444435034 2.26997704435534 2.37262476787732 2.4717960067705 2.56724521390271 2.65883838534046 2.74657015417977 2.8305824159626 2.91118268749553 2.98885736773831 3.05876457995682 3.12867179217532 3.19857900439383 3.26848621661233 3.33839342883084 3.40830064104934 3.49152211952615 3.58279947381299 3.6783140564794 3.77833564025007 3.88293579727117 3.99201130266461 4.10530427297302 4.2224195915295 4.34284108506374 4.46594797125768 4.59103275873908 4.71732128809911 4.83132770182291 4.94500107326295 5.05773323391966 5.16893495291006 5.27805129520037 5.3845765834641 5.48806888341983 5.58816418776461 5.68459075054001 5.77718424093858 5.86590438736398 5.95085328865619 6.03229416009082 6.11066658085396 6.18120175954079 6.23219353336019 6.28318530717959 
66 1 5 6 7 8 9 10 11 12 13 14 15 16 17 18 19 20 21 22 23 24 25 26 27 28 29 30 31 32 33 34 35 36 37 38 39 40 41 42 43 44 45 46 47 48 49 50 51 52 53 54 55 56 57 58 59 60 61 62 63 64 65 66 67 68 3 
p 0.242455853025496 1 0 0.0661069903735658 0.132213980747132 0.198320971120697 0.282412972468149 0.370758416132847 0.462983823939319 0.559528049841085 0.660612646057779 0.766266643509733 0.876349246992857 0.990569241626669 1.10850198634516 1.2296055262507 1.35323728866352 1.47867243795583 1.6051244558825 1.71910364438429 1.83259201600045 1.94498480297311 2.0557001608789 2.16419444435034 2.26997704435534 2.37262476787732 2.4717960067705 2.56724521390271 2.65883838534046 2.74657015417977 2.8305824159626 2.91118268749553 2.98885736773831 3.05876457995682 3.12867179217532 3.19857900439383 3.26848621661233 3.33839342883084 3.40830064104934 3.49152211952615 3.58279947381299 3.6783140564794 3.77833564025007 3.88293579727117 3.99201130266461 4.10530427297302 4.2224195915295 4.34284108506374 4.46594797125768 4.59103275873908 4.71732128809911 4.83132770182291 4.94500107326295 5.05773323391966 5.16893495291006 5.27805129520037 5.3845765834641 5.48806888341983 5.58816418776461 5.68459075054001 5.77718424093858 5.86590438736398 5.95085328865619 6.03229416009082 6.11066658085396 6.18120175954079 6.23219353336019 6.28318530717959 
66 1 2 3 4 5 6 7 8 9 10 11 12 13 14 15 16 17 18 19 20 21 22 23 24 25 26 27 28 29 30 31 32 33 34 35 36 37 38 39 40 41 42 43 44 45 46 47 48 49 50 51 52 53 54 55 56 57 58 59 60 61 62 63 64 65 1 
p 0.242455853025496 1 0 0.0661069903735658 0.132213980747132 0.198320971120697 0.282412972468149 0.370758416132847 0.462983823939319 0.559528049841085 0.660612646057779 0.766266643509733 0.876349246992857 0.990569241626669 1.10850198634516 1.2296055262507 1.35323728866352 1.47867243795583 1.6051244558825 1.71910364438429 1.83259201600045 1.94498480297311 2.0557001608789 2.16419444435034 2.26997704435534 2.37262476787732 2.4717960067705 2.56724521390271 2.65883838534046 2.74657015417977 2.8305824159626 2.91118268749553 2.98885736773831 3.05876457995682 3.12867179217532 3.19857900439383 3.26848621661233 3.33839342883084 3.40830064104934 3.49152211952615 3.58279947381299 3.6783140564794 3.77833564025007 3.88293579727117 3.99201130266461 4.10530427297302 4.2224195915295 4.34284108506374 4.46594797125768 4.59103275873908 4.71732128809911 4.83132770182291 4.94500107326295 5.05773323391966 5.16893495291006 5.27805129520037 5.3845765834641 5.48806888341983 5.58816418776461 5.68459075054001 5.77718424093858 5.86590438736398 5.95085328865619 6.03229416009082 6.11066658085396 6.18120175954079 6.23219353336019 6.28318530717959 
Surfaces 4
6 0 0 -1 
3 -60 -20 0 0 0 1 0.961523947640823 0.274721127897378 0 -0.274721127897378 0.961523947640823 0 145.60219778561 60.4386481374232
6 0 0 -1 
3 -60 -20 0 0 0 1 0.961523947640823 0.274721127897378 0 -0.274721127897378 0.961523947640823 0 145.60219778561 60.4386481374232
6 0 0 -1 
3 -60 -20 0 0 0 1 0.961523947640823 0.274721127897378 0 -0.274721127897378 0.961523947640823 0 145.60219778561 60.4386481374232
1 80 20 0 0 0 -1 -1 0 0 0 1 0 
Triangulations 2
132 130 1 0.242455853025496
80 20 0 80 20 100 80 20 0 80 20 100 78.597375783433 23.7515208889521 0 76.5892829846501 27.3119113818727 0 73.9844940431942 30.6656177601455 0 69.8269749782317 34.610062925503 0 64.4714757264018 38.3378308930995 0 57.8457648036511 41.7434624338012 0 49.8377442494546 44.7459214571842 0 40.358216881919 47.2429645238642 0 29.3567516762715 49.1187973222015 0 16.8360267821468 50.2530609694338 0 2.86357214389528 50.5308490848431 0 -12.4205115059462 49.853266947022 0 -28.801351933455 48.1477605135945 0 -45.993818117854 45.3771922414222 0 -63.6542575669256 41.5465295102437 0 -81.3989856577083 36.7061145206224 0 -97.1085016591106 31.5647066045272 0 -112.272195768358 25.7804847464016 0 -126.627287196673 19.4713470749887 0 -139.946946326446 12.7689728329512 0 -152.050682050678 5.811224303818 0 -162.810744557961 -1.26554419078148 0 -172.154191855072 -8.33358096836852 0 -180.060774076741 -15.2796931804379 0 -186.557196412558 -22.0097271765579 0 -191.708568608948 -28.4514489072424 0 -195.607919711634 -34.5558712805871 0 -198.364582470183 -40.2971595515322 0 -200.092113614908 -45.6712129167043 0 -200.896340969068 -50.6928770900244 0 -200.893726835183 -55.0549654282693 0 -200.202842844514 -59.2458092648824 0 -198.827063984974 -63.2449362087076 0 -196.773110975363 -67.0328104110544 0 -194.051017434462 -70.5909279988737 0 -190.674080866523 -73.9019074667031 0 -185.823268093599 -77.4989168102057 0 -179.502849609353 -80.9856216001641 0 -171.824699219222 -84.0901007732413 0 -162.692851231684 -86.7144046958664 0 -152.046529341342 -88.7451277968399 0 -139.874922832313 -90.0621096487249 0 -126.229650339651 -90.5482469281631 0 -111.233548817868 -90.0999848652957 0 -95.0842788758763 -88.6377832320024 0 -78.0514465698787 -86.1155830864827 0 -60.4665402314474 -82.5281488214601 0 -42.7059080999383 -77.9152091608088 0 -26.9013409077566 -72.9563052419486 0 -11.5705992997526 -67.3272759768358 0 3.01635731991139 -61.1413189707593 0 16.6222908592786 -54.5272662793775 0 29.0539783820723 -47.6221308345832 0 40.1696972704728 -40.5633695018031 0 49.8824143740636 -33.4815754857194 0 58.1587089576008 -26.4941875124857 0 65.0138989323084 -19.7006088205713 0 70.5041316395822 -13.1789130125222 0 74.7163156096704 -6.98412727603678 0 77.7567271033243 -1.14797322164976 0 79.7389930277709 4.320053160749 0 80.772046364222 9.4302617665894 0 80.9629637185307 13.8758443291822 0 80.6643171729522 16.9859965192784 0 78.597375783433 23.7515208889521 100 76.5892829846501 27.3119113818727 100 73.9844940431942 30.6656177601455 100 69.8269749782317 34.610062925503 100 64.4714757264018 38.3378308930995 100 57.8457648036511 41.7434624338012 100 49.8377442494546 44.7459214571842 100 40.358216881919 47.2429645238642 100 29.3567516762715 49.1187973222015 100 16.8360267821468 50.2530609694338 100 2.86357214389528 50.5308490848431 100 -12.4205115059462 49.853266947022 100 -28.801351933455 48.1477605135945 100 -45.993818117854 45.3771922414222 100 -63.6542575669256 41.5465295102437 100 -81.3989856577083 36.7061145206224 100 -97.1085016591106 31.5647066045272 100 -112.272195768358 25.7804847464016 100 -126.627287196673 19.4713470749887 100 -139.946946326446 12.7689728329512 100 -152.050682050678 5.811224303818 100 -162.810744557961 -1.26554419078148 100 -172.154191855072 -8.33358096836852 100 -180.060774076741 -15.2796931804379 100 -186.557196412558 -22.0097271765579 100 -191.708568608948 -28.4514489072424 100 -195.607919711634 -34.5558712805871 100 -198.364582470183 -40.2971595515322 100 -200.092113614908 -45.6712129167043 100 -200.896340969068 -50.6928770900244 100 -200.893726835183 -55.0549654282693 100 -200.202842844514 -59.2458092648824 100 -198.827063984974 -63.2449362087076 100 -196.773110975363 -67.0328104110544 100 -194.051017434462 -70.5909279988737 100 -190.674080866523 -73.9019074667031 100 -185.823268093599 -77.4989168102057 100 -179.502849609353 -80.9856216001641 100 -171.824699219222 -84.0901007732413 100 -162.692851231684 -86.7144046958664 100 -152.046529341342 -88.7451277968399 100 -139.874922832313 -90.0621096487249 100 -126.229650339651 -90.5482469281631 100 -111.233548817868 -90.0999848652957 100 -95.0842788758763 -88.6377832320024 100 -78.0514465698787 -86.1155830864827 100 -60.4665402314474 -82.5281488214601 100 -42.7059080999383 -77.9152091608088 100 -26.9013409077566 -72.9563052419486 100 -11.5705992997526 -67.3272759768358 100 3.01635731991139 -61.1413189707593 100 16.6222908592786 -54.5272662793775 100 29.0539783820723 -47.6221308345832 100 40.1696972704728 -40.5633695018031 100 49.8824143740636 -33.4815754857194 100 58.1587089576008 -26.4941875124857 100 65.0138989323084 -19.7006088205713 100 70.5041316395822 -13.1789130125222 100 74.7163156096704 -6.98412727603678 100 77.7567271033243 -1.14797322164976 100 79.7389930277709 4.320053160749 100 80.772046364222 9.4302617665894 100 80.9629637185307 13.8758443291822 100 80.6643171729522 16.9859965192784 100 0 0 0 -100 6.28318530717959 0 6.28318530717959 -100 0.0661069903735658 0 0.132213980747132 0 0.198320971120697 0 0.282412972468149 0 0.370758416132847 0 0.462983823939319 0 0.559528049841085 0 0.660612646057779 0 0.766266643509733 0 0.876349246992857 0 0.990569241626669 0 1.10850198634516 0 1.2296055262507 0 1.35323728866352 0 1.47867243795583 0 1.6051244558825 0 1.71910364438429 0 1.83259201600045 0 1.94498480297311 0 2.0557001608789 0 2.16419444435034 0 2.26997704435534 0 2.37262476787732 0 2.4717960067705 0 2.56724521390271 0 2.65883838534046 0 2.74657015417977 0 2.8305824159626 0 2.91118268749553 0 2.98885736773831 0 3.05876457995682 0 3.12867179217532 0 3.19857900439383 0 3.26848621661233 0 3.33839342883084 0 3.40830064104934 0 3.49152211952615 0 3.58279947381299 0 3.6783140564794 0 3.77833564025007 0 3.88293579727117 0 3.99201130266461 0 4.10530427297302 0 4.2224195915295 0 4.34284108506374 0 4.46594797125768 0 4.59103275873908 0 4.71732128809911 0 4.83132770182291 0 4.94500107326295 0 5.05773323391966 0 5.16893495291006 0 5.27805129520037 0 5.3845765834641 0 5.48806888341983 0 5.58816418776461 0 5.68459075054001 0 5.77718424093858 0 5.86590438736398 0 5.95085328865619 0 6.03229416009082 0 6.11066658085396 0 6.18120175954079 0 6.23219353336019 0 0.0661069903735658 -100 0.132213980747132 -100 0.198320971120697 -100 0.282412972468149 -100 0.370758416132847 -100 0.462983823939319 -100 0.559528049841085 -100 0.660612646057779 -100 0.766266643509733 -100 0.876349246992857 -100 0.990569241626669 -100 1.10850198634516 -100 1.2296055262507 -100 1.35323728866352 -100 1.47867243795583 -100 1.6051244558825 -100 1.71910364438429 -100 1.83259201600045 -100 1.94498480297311 -100 2.0557001608789 -100 2.16419444435034 -100 2.26997704435534 -100 2.37262476787732 -100 2.4717960067705 -100 2.56724521390271 -100 2.65883838534046 -100 2.74657015417977 -100 2.8305824159626 -100 2.91118268749553 -100 2.98885736773831 -100 3.05876457995682 -100 3.12867179217532 -100 3.19857900439383 -100 3.26848621661233 -100 3.33839342883084 -100 3.40830064104934 -100 3.49152211952615 -100 3.58279947381299 -100 3.6783140564794 -100 3.77833564025007 -100 3.88293579727117 -100 3.99201130266461 -100 4.10530427297302 -100 4.2224195915295 -100 4.34284108506374 -100 4.46594797125768 -100 4.59103275873908 -100 4.71732128809911 -100 4.83132770182291 -100 4.94500107326295 -100 5.05773323391966 -100 5.16893495291006 -100 5.27805129520037 -100 5.3845765834641 -100 5.48806888341983 -100 5.58816418776461 -100 5.68459075054001 -100 5.77718424093858 -100 5.86590438736398 -100 5.95085328865619 -100 6.03229416009082 -100 6.11066658085396 -100 6.18120175954079 -100 6.23219353336019 -100 2 69 5 70 71 7 69 70 6 72 73 9 74 75 11 73 74 10 71 72 8 76 77 13 78 79 15 77 78 14 80 81 17 82 83 19 81 82 18 79 80 16 75 76 12 84 85 21 86 87 23 85 86 22 88 89 25 90 91 27 89 90 26 87 88 24 92 93 29 94 95 31 93 94 30 96 97 33 98 99 35 99 100 36 97 98 34 95 96 32 91 92 28 83 84 20 5 1 2 7 6 70 5 69 6 9 8 72 11 10 74 9 73 10 7 71 8 13 12 76 15 14 78 13 77 14 17 16 80 19 18 82 17 81 18 15 79 16 11 75 12 21 20 84 23 22 86 21 85 22 25 24 88 27 26 90 25 89 26 23 87 24 29 28 92 31 30 94 29 93 30 33 32 96 35 34 98 36 35 99 33 97 34 31 95 32 27 91 28 19 83 20 100 101 36 101 102 38 103 104 40 102 103 39 105 106 42 107 108 44 106 107 43 104 105 41 109 110 46 111 112 48 110 111 47 113 114 50 115 116 52 114 115 51 112 113 49 108 109 45 117 118 54 119 120 56 118 119 55 121 122 58 123 124 60 122 123 59 120 121 57 125 126 62 127 128 64 126 127 63 129 130 66 131 132 68 132 4 3 130 131 67 128 129 65 124 125 61 116 117 53 38 37 101 40 39 103 38 102 39 42 41 105 44 43 107 42 106 43 40 104 41 46 45 109 48 47 111 46 110 47 50 49 113 52 51 115 50 114 51 48 112 49 44 108 45 54 53 117 56 55 119 54 118 55 58 57 121 60 59 123 58 122 59 56 120 57 62 61 125 64 63 127 62 126 63 66 65 129 68 67 131 3 68 132 66 130 67 64 128 65 60 124 61 52 116 53 101 37 36 
66 65 1 0.242455853025496
80 20 0 78.597375783433 23.7515208889521 0 76.5892829846501 27.3119113818727 0 73.9844940431942 30.6656177601455 0 69.8269749782317 34.610062925503 0 64.4714757264018 38.3378308930995 0 57.8457648036511 41.7434624338012 0 49.8377442494546 44.7459214571842 0 40.358216881919 47.2429645238642 0 29.3567516762715 49.1187973222015 0 16.8360267821468 50.2530609694338 0 2.86357214389528 50.5308490848431 0 -12.4205115059462 49.853266947022 0 -28.801351933455 48.1477605135945 0 -45.993818117854 45.3771922414222 0 -63.6542575669256 41.5465295102437 0 -81.3989856577083 36.7061145206224 0 -97.1085016591106 31.5647066045272 0 -112.272195768358 25.7804847464016 0 -126.627287196673 19.4713470749887 0 -139.946946326446 12.7689728329512 0 -152.050682050678 5.811224303818 0 -162.810744557961 -1.26554419078148 0 -172.154191855072 -8.33358096836852 0 -180.060774076741 -15.2796931804379 0 -186.557196412558 -22.0097271765579 0 -191.708568608948 -28.4514489072424 0 -195.607919711634 -34.5558712805871 0 -198.364582470183 -40.2971595515322 0 -200.092113614908 -45.6712129167043 0 -200.896340969068 -50.6928770900244 0 -200.893726835183 -55.0549654282693 0 -200.202842844514 -59.2458092648824 0 -198.827063984974 -63.2449362087076 0 -196.773110975363 -67.0328104110544 0 -194.051017434462 -70.5909279988737 0 -190.674080866523 -73.9019074667031 0 -185.823268093599 -77.4989168102057 0 -179.502849609353 -80.9856216001641 0 -171.824699219222 -84.0901007732413 0 -162.692851231684 -86.7144046958664 0 -152.046529341342 -88.7451277968399 0 -139.874922832313 -90.0621096487249 0 -126.229650339651 -90.5482469281631 0 -111.233548817868 -90.0999848652957 0 -95.0842788758763 -88.6377832320024 0 -78.0514465698787 -86.1155830864827 0 -60.4665402314474 -82.5281488214601 0 -42.7059080999383 -77.9152091608088 0 -26.9013409077566 -72.9563052419486 0 -11.5705992997526 -67.3272759768358 0 3.01635731991139 -61.1413189707593 0 16.6222908592786 -54.5272662793775 0 29.0539783820723 -47.6221308345832 0 40.1696972704728 -40.5633695018031 0 49.8824143740636 -33.4815754857194 0 58.1587089576008 -26.4941875124857 0 65.0138989323084 -19.7006088205713 0 70.5041316395822 -13.1789130125222 0 74.7163156096704 -6.98412727603678 0 77.7567271033243 -1.14797322164976 0 79.7389930277709 4.320053160749 0 80.772046364222 9.4302617665894 0 80.9629637185307 13.8758443291822 0 80.6643171729522 16.9859965192784 0 -59.9666886252685 -20.00869892166 0 0 0 1.40262421656701 3.75152088895211 3.41071701534989 7.31191138187269 6.01550595680584 10.6656177601455 10.1730250217683 14.610062925503 15.5285242735982 18.3378308930995 22.1542351963489 21.7434624338012 30.1622557505455 24.7459214571842 39.641783118081 27.2429645238642 50.6432483237285 29.1187973222015 63.1639732178532 30.2530609694338 77.1364278561047 30.5308490848431 92.4205115059462 29.853266947022 108.801351933455 28.1477605135944 125.993818117854 25.3771922414222 143.654257566926 21.5465295102437 161.398985657708 16.7061145206224 177.108501659111 11.5647066045272 192.272195768358 5.78048474640161 206.627287196673 -0.528652925011272 219.946946326446 -7.23102716704882 232.050682050678 -14.188775696182 242.810744557961 -21.2655441907815 252.154191855072 -28.3335809683685 260.060774076741 -35.2796931804379 266.557196412558 -42.0097271765579 271.708568608948 -48.4514489072424 275.607919711634 -54.5558712805871 278.364582470183 -60.2971595515322 280.092113614908 -65.6712129167043 280.896340969068 -70.6928770900244 280.893726835183 -75.0549654282693 280.202842844514 -79.2458092648824 278.827063984974 -83.2449362087076 276.773110975363 -87.0328104110544 274.051017434463 -90.5909279988737 270.674080866523 -93.9019074667031 265.823268093599 -97.4989168102057 259.502849609353 -100.985621600164 251.824699219222 -104.090100773241 242.692851231684 -106.714404695866 232.046529341342 -108.74512779684 219.874922832313 -110.062109648725 206.229650339651 -110.548246928163 191.233548817868 -110.099984865296 175.084278875876 -108.637783232002 158.051446569879 -106.115583086483 140.466540231447 -102.52814882146 122.705908099938 -97.9152091608088 106.901340907757 -92.9563052419486 91.5705992997526 -87.3272759768358 76.9836426800886 -81.1413189707593 63.3777091407214 -74.5272662793774 50.9460216179277 -67.6221308345832 39.8303027295272 -60.5633695018031 30.1175856259364 -53.4815754857194 21.8412910423992 -46.4941875124857 14.9861010676916 -39.7006088205713 9.49586836041786 -33.1789130125222 5.2836843903296 -26.9841272760368 2.24327289667571 -21.1479732216498 0.261006972229126 -15.679946839251 -0.77204636422195 -10.5697382334106 -0.962963718530688 -6.12415567081777 -0.664317172952195 -3.01400348072156 139.966688625268 -40.00869892166 59 7 60 58 8 59 58 57 9 4 63 62 5 62 61 60 6 61 10 57 56 66 52 51 66 51 50 66 50 49 12 55 54 54 53 13 66 53 52 56 55 11 49 48 66 66 13 53 65 64 2 2 1 65 64 3 2 64 63 3 63 4 3 5 4 62 6 5 61 60 7 6 13 12 54 7 59 8 14 13 66 9 8 58 57 10 9 10 56 11 11 55 12 66 15 14 66 16 15 45 44 22 43 23 44 24 43 42 47 46 66 66 46 45 45 21 66 25 42 41 39 27 40 28 39 38 38 37 29 31 36 35 35 34 32 37 36 30 41 40 26 33 32 34 22 21 45 23 22 44 20 66 21 66 18 17 18 66 19 19 66 20 16 66 17 29 37 30 31 30 36 28 38 29 42 25 24 27 26 40 25 41 26 39 28 27 24 23 43 31 35 32 48 47 66 

TShapes 9
Ve
1e-007
85.6021977856104 -20 0
0 0

0101101
*
Ed
 1e-007 1 1 0
1  1 0 0 100
3  1 2CN 1 0 0 100
7  1 2 1 0
0

0101000
+9 1 -9 3 *
Ed
 1e-007 1 1 0
1  2 0 0 6.28318530717959
2  3 2 4 0 6.28318530717959
2  4 2 6 0 6.28318530717959
2  5 3 4 0 6.28318530717959
2  6 3 8 0 6.28318530717959
2  7 1 4 0 6.28318530717959
2  8 1 9 0 6.28318530717959
6  3 1 9
6  4 1 4
6  5 2 4
0

0101100
+9 0 -9 0 *
Wi

0101000
+8 0 -8 0 -7 1 +7 3 *
Fa
0  1e-007 1 0
2  1
0101000
+6 0 *
Wi

0101100
+7 1 *
Fa
0  1e-007 4 0
2  2
0101000
-4 0 *
Sh

0101000
-5 0 +3 0 -3 2 *
So

1100000
+2 0 *

+1 0 