DBRep_DrawableShape

CASCADE Topology V1, (c) Matra-Datavision
Locations 0
Curve2ds 4
7 0 0  1 2 2  0 0  11 0 
 0 2 10.04987562112089 2
1 11 0 0 1 
1 0 1 1 0 
1 0 0 0 1 
Curves 4
7 0 0  3 5 3  50 10 0  49.999999999999993 9.8333333333333339 1.6666666666666665  50 9.5 4.9999999999999991  49.999999999999993 9.1666666666666661 8.3333333333333339  50 9 10 
 0 4 5.024937810560445 1 10.04987562112089 4
7 0 0  1 2 2  50 9 10  50 -10 10 
 0 2 1 2
7 0 0  3 5 3  50 -10 -1  50 -10 0.83333333333333348  50 -10 4.5000000000000009  50 -10 8.1666666666666661  50 -10 10 
 0 4 5.5 1 11 4
7 0 0  1 2 2  50 10 0  50 -10 -1 
 0 2 1 2
Polygon3D 0
PolygonOnTriangulations 4
2 1 2 
p 0.0800000008 1 0 10.0498756211209 
2 2 3 
p 0.0800000008 1 0 1 
2 4 3 
p 0.0800000008 1 0 11 
2 1 4 
p 0.0800000008 1 0 1 
Surfaces 1
9 0 0 0 0 3 1 5 2 3 2 50 10 0  50 -10 -1  
49.999999999999993 9.8333333333333339 1.6666666666666665  50 -10 0.83333333333333348  
50 9.5 4.9999999999999991  50 -10 4.5000000000000009  
49.999999999999993 9.1666666666666661 8.3333333333333339  50 -10 8.1666666666666661  
50 9 10  50 -10 10  

0 4
5.5 1
11 4

0 2
1 2

Triangulations 1
4 2 1 0
50 10 0 50 9 10 50 -10 10 50 -10 -1 0 0 11 0 11 1 0 1 4 1 2 3 4 2 

TShapes 11
Ve
1e-007
50 10 0
0 0

0101101
*
Ve
1e-007
50 9 10
0 0

0101101
*
Ed
 1e-007 1 1 0
1  1 0 0 10.0498756211209
2  1 1 0 0 10.0498756211209
6  1 1 0
0

0101000
+11 0 -10 0 *
Ve
1e-007
50 -10 10
0 0

0101101
*
Ed
 1e-007 1 1 0
1  2 0 0 1
2  2 1 0 0 1
6  2 1 0
0

0101000
+10 0 -8 0 *
Ve
1e-007
50 -10 -1
0 0

0101101
*
Ed
 1e-007 1 1 0
1  3 0 0 11
2  3 1 0 0 11
6  3 1 0
0

0101000
+6 0 -8 0 *
Ed
 1e-007 1 1 0
1  4 0 0 1
2  4 1 0 0 1
6  4 1 0
0

0101000
+11 0 -6 0 *
Wi

0101000
+9 0 +7 0 -5 0 -4 0 *
Fa
0  1e-007 1 0
2  1
0111000
+3 0 *
Sh

0101000
+2 0 *

+1 0 