DBRep_DrawableShape

CASCADE Topology V1, (c) Matra-Datavision
Locations 1
1
              1               0               0              50 
              0               1               0               0 
              0               0               1               0 
Curve2ds 12
1 6.2831853071795862 0 0 1 
1 0 0 0 1 
1 0 -1.5707963267948966 1 0 
1 0 1.5707963267948966 1 0 
1 6.2831853071795862 0 0 1 
1 0 0 0 1 
1 0 -1.5707963267948966 1 0 
1 0 1.5707963267948966 1 0 
1 6.2831853071795862 0 0 1 
1 0 0 0 1 
1 0 -1.5707963267948966 1 0 
1 0 1.5707963267948966 1 0 
Curves 3
8 4.7123889803846897 7.8539816339744828
2 0 0 0 0 -1 0 1 0 0 -0 0 1 100
8 4.7123889803846897 7.8539816339744828
2 0 0 0 0 -1 0 1 0 0 -0 0 1 10
8 4.7123889803846897 7.8539816339744828
2 0 0 0 0 -1 0 1 0 0 -0 0 1 10
Polygon3D 0
PolygonOnTriangulations 0
Surfaces 2
4 0 0 0 0 0 1 1 0 -0 -0 1 0 100
4 0 0 0 0 0 1 1 0 -0 -0 1 0 10
Triangulations 0

TShapes 25
Ve
1e-007
6.12323399573677e-015 0 -100
0 0

0101101
*
Ve
1e-007
6.12323399573677e-015 0 100
0 0

0101101
*
Ed
 1e-007 1 1 0
1  1 0 -1.5707963267949 1.5707963267949
3  1 2C0 1 0 -1.5707963267949 1.5707963267949
0

0101000
+25 0 -24 0 *
Ed
 1e-007 1 1 1
2  3 1 0 0 6.28318530717959
0

0101000
+25 0 -25 0 *
Ed
 1e-007 1 1 1
2  4 1 0 0 6.28318530717959
0

0101000
+24 0 -24 0 *
Wi

0101100
-23 0 +22 0 +23 0 -21 0 *
Fa
1  1e-007 1 0

0101000
+20 0 *
Sh

0101000
+19 0 *
Ve
1e-007
6.12323399573677e-016 0 -10
0 0

0101101
*
Ve
1e-007
6.12323399573677e-016 0 10
0 0

0101101
*
Ed
 1e-007 1 1 0
1  2 0 -1.5707963267949 1.5707963267949
3  5 6C0 2 0 -1.5707963267949 1.5707963267949
0

0101000
+17 0 -16 0 *
Ed
 1e-007 1 1 1
2  7 2 0 0 6.28318530717959
0

0101000
+17 0 -17 0 *
Ed
 1e-007 1 1 1
2  8 2 0 0 6.28318530717959
0

0101000
+16 0 -16 0 *
Wi

0101100
-15 0 +14 0 +15 0 -13 0 *
Fa
1  1e-007 2 0

0101000
+12 0 *
Sh

0101000
+11 1 *
Ve
1e-007
6.12323399573677e-016 0 -10
0 0

0101101
*
Ve
1e-007
6.12323399573677e-016 0 10
0 0

0101101
*
Ed
 1e-007 1 1 0
1  3 0 -1.5707963267949 1.5707963267949
3  9 10C0 2 0 -1.5707963267949 1.5707963267949
0

0101000
+9 0 -8 0 *
Ed
 1e-007 1 1 1
2  11 2 0 0 6.28318530717959
0

0101000
+9 0 -9 0 *
Ed
 1e-007 1 1 1
2  12 2 0 0 6.28318530717959
0

0101000
+8 0 -8 0 *
Wi

0101100
-7 0 +6 0 +7 0 -5 0 *
Fa
1  1e-007 2 0

0101000
+4 0 *
Sh

0101000
+3 0 *
So

1100000
+18 0 i10 0 i2 0 *

+1 0 
0

