DBRep_DrawableShape

CASCADE Topology V1, (c) Matra-Datavision
Locations 14
1
              1               0               0               0 
              0               1               0               0 
              0               0               1             -20 
1
              1               0               0              66 
              0               1               0               0 
              0               0               1               0 
1
              1               0               0               0 
              0               1               0            -200 
              0               0               1               0 
1
              1               0               0               0 
              0               1               0               0 
              0               0               1               0 
2  2 1 3 1 4 1 0
1
              1               0               0               0 
              0               1               0               0 
              0               0               1             -40 
1
              1               0               0               0 
              0               1               0               0 
              0               0               1             -40 
2  6 1 7 1 0
1
              1               0               0               0 
              0               1               0               0 
              0               0               1             -40 
2  6 1 9 1 0
1
              1               0               0             125 
              0               1               0              50 
              0               0               1             -50 
1
              1               0               0               0 
              0               1               0               0 
              0               0               1               0 
2  11 1 12 1 0
1
              1               0               0               0 
              0               1               0               0 
              0               0               1             -40 
Curve2ds 39
1 -40 -100 0 -1 
1 -40 -500 0 1 
1 238.75 -100 0 1 
1 238.75 300 0 -1 
1 238.75 300 0 -1 
1 238.75 300 0 -1 
1 0 0 1 0 
1 0 0 1 0 
1 10 -250 0 1 
1 238.75 187 1 0 
1 238.75 -40 1 0 
1 238.75 13 1 -0 
1 238.75 13 1 -0 
1 238.75 13 1 -0 
1 -40 -100 0 -1 
1 -40 -500 0 1 
1 243.75 -100 0 1 
1 243.75 300 0 -1 
1 243.75 300 0 -1 
1 243.75 300 0 -1 
1 -40 -100 0 -1 
1 -40 -500 0 1 
1 261.25 -100 0 1 
1 261.25 300 0 -1 
1 261.25 300 0 -1 
1 261.25 300 0 -1 
1 243.75 192 1 0 
1 243.75 -40 1 0 
1 243.75 8 1 -0 
1 243.75 8 1 -0 
1 243.75 8 1 -0 
1 0 0 1 0 
1 10 -250 0 1 
1 -40 -100 0 -1 
1 -40 -500 0 1 
1 256.25 -100 0 1 
1 256.25 300 0 -1 
1 256.25 300 0 -1 
1 256.25 300 0 -1 
Curves 15
1 -11.25 -100 -40 0 0 -1 
1 -11.25 -87 -40 0 0 -1 
1 -11.25 200 -40 -0 -1 -0 
1 -6.25 -100 -40 0 0 -1 
1 -250 -100 -40 1 0 0 
1 11.25 -87 -40 0 0 -1 
8 0 22.5
1 -11.25 -87 -40 1 -0 -0 
1 -6.25 -92 -40 0 0 -1 
1 -6.25 200 -40 -0 -1 -0 
1 11.25 -100 -40 0 0 -1 
1 11.25 200 -40 -0 -1 -0 
1 6.25 -92 -40 0 0 -1 
8 0 12.5
1 -6.25 -92 -40 1 -0 -0 
1 6.25 -100 -40 0 0 -1 
1 6.25 200 -40 -0 -1 -0 
Polygon3D 0
PolygonOnTriangulations 0
Surfaces 25
1 -11.25 -87 -40 -1 0 0 -0 -1 -0 0 -0 1 
1 -77.25 500 0 -1 0 -0 -0 -0 1 -0 1 -0 
1 -77.25 -100 0 -1 -0 -0 -0 -0 1 -0 -1 -0 
1 -250 100 40 -0 -0 1 1 -0 -0 -0 -1 -0 
1 -250 -100 40 0 0 1 1 0 -0 -0 1 0 
1 -250 -100 -40 0 0 1 1 0 -0 -0 1 0 
1 -250 -100 -40 0 0 1 1 0 -0 -0 1 0 
1 -11.25 -100 -40 0 -1 0 1 0 0 -0 0 1 
1 -125 -150 0 -0 -1 -0 -0 -0 1 1 -0 -0 
1 -11.25 -87 -40 -0 -1 -0 1 -0 0 -0 0 1 
1 -250 -87 0 -0 1 -0 1 -0 -0 -0 -0 1 
1 -6.25 -92 -40 -1 0 0 -0 -1 -0 0 -0 1 
1 -72.25 500 0 -1 0 -0 -0 -0 1 -0 1 -0 
1 -72.25 -100 0 -1 -0 -0 -0 -0 1 -0 -1 -0 
1 -250 100 40 -0 -0 1 1 -0 -0 -0 -1 -0 
1 -250 -100 0 0 0 1 1 0 -0 -0 1 0 
1 11.25 -87 -40 -1 0 0 -0 -1 -0 0 -0 1 
1 -54.75 500 0 1 -0 -0 -0 -0 1 -0 1 -0 
1 -54.75 -100 0 1 0 0 0 0 1 0 -1 0 
1 -6.25 -92 -40 -0 -1 -0 1 -0 0 -0 0 1 
1 -250 -92 0 -0 1 -0 1 -0 -0 -0 -0 1 
1 6.25 -100 -40 0 -1 0 1 0 0 -0 0 1 
1 6.25 -92 -40 -1 0 0 -0 -1 -0 0 -0 1 
1 -59.75 500 0 1 -0 -0 -0 -0 1 -0 1 -0 
1 -59.75 -100 0 1 0 0 0 0 1 0 -1 0 
Triangulations 0

TShapes 44
Ve
2.00001e-07
-11.25 -100 -40
0 0

0101101
*
Ed
 2.00001e-07 1 1 0
1  1 0 0 20
0

0101000
+44 0 -44 1 *
Ve
1.02469507659596e-07
-11.25 -87 -40
0 0

0101101
*
Ed
 1.02469507659596e-07 1 1 0
1  2 0 0 20
0

0101000
+42 0 -42 1 *
Ed
 1e-07 1 1 0
1  3 0 287 300
2  1 2 5 287 300
2  2 3 5 287 300
2  3 4 8 287 300
2  4 5 10 287 300
2  5 6 0 287 300
2  6 7 0 287 300
0

0101000
-44 0 +42 0 *
Wi

0101100
-43 0 +41 0 -40 0 +40 1 *
Fa
0  1e-07 1 0

0101000
+39 0 *
Ve
2.00001e-07
-6.25 -100 -40
0 0

0101101
*
Ed
 2.00001e-07 1 1 0
1  4 0 0 20
0

0101000
+37 0 -37 1 *
Ed
 1e-07 1 1 0
1  5 0 238.75 243.75
2  7 7 0 238.75 243.75
2  8 5 10 238.75 243.75
2  9 9 13 238.75 243.75
0

0101000
+44 0 -37 0 *
Wi

0101100
+43 0 -36 0 -35 0 +35 1 *
Fa
0  1e-07 8 0

0101000
+34 0 *
Ve
1.02469507659596e-07
11.25 -87 -40
0 0

0101101
*
Ed
 1.02469507659596e-07 1 1 0
1  6 0 0 20
0

0101000
+32 0 -32 1 *
Ed
 1e-07 1 1 0
1  7 0 0 22.5
2  10 4 8 0 22.5
2  11 11 0 0 22.5
2  12 5 10 0 22.5
2  13 6 0 0 22.5
2  14 7 0 0 22.5
0

0101000
+42 0 -32 0 *
Wi

0101100
+41 0 -31 0 -30 0 +30 1 *
Fa
0  1e-07 10 0

0101000
+29 0 *
Ve
1.02469507659596e-07
-6.25 -92 -40
0 0

0101101
*
Ed
 1.02469507659596e-07 1 1 0
1  8 0 0 20
0

0101000
+27 0 -27 1 *
Ed
 1e-07 1 1 0
1  9 0 292 300
2  15 13 5 292 300
2  16 14 5 292 300
2  17 15 8 292 300
2  18 5 10 292 300
2  19 16 14 292 300
2  20 7 0 292 300
0

0101000
-37 0 +27 0 *
Wi

0101100
-36 0 +26 0 -25 0 +25 1 *
Fa
0  1e-07 12 0

0101000
+24 0 *
Ve
2.00001e-07
11.25 -100 -40
0 0

0101101
*
Ed
 2.00001e-07 1 1 0
1  10 0 0 20
0

0101000
+22 0 -22 1 *
Ed
 1e-07 1 1 0
1  11 0 287 300
2  21 18 5 287 300
2  22 19 5 287 300
2  23 4 8 287 300
2  24 5 10 287 300
2  25 6 0 287 300
2  26 7 0 287 300
0

0101000
-22 0 +32 0 *
Wi

0101100
-21 0 +31 0 -20 0 +20 1 *
Fa
0  1e-07 17 0

0101000
+19 0 *
Ve
1.02469507659596e-07
6.25 -92 -40
0 0

0101101
*
Ed
 1.02469507659596e-07 1 1 0
1  12 0 0 20
0

0101000
+17 0 -17 1 *
Ed
 1e-07 1 1 0
1  13 0 0 12.5
2  27 15 8 0 12.5
2  28 21 0 0 12.5
2  29 5 10 0 12.5
2  30 16 14 0 12.5
2  31 7 0 0 12.5
0

0101000
+27 0 -17 0 *
Wi

0101100
+26 0 -16 0 -15 0 +15 1 *
Fa
0  1e-07 20 0

0101000
+14 0 *
Ve
2.00001e-07
6.25 -100 -40
0 0

0101101
*
Ed
 2.00001e-07 1 1 0
1  14 0 0 20
0

0101000
+12 0 -12 1 *
Ed
 1e-07 1 1 0
1  5 0 256.25 261.25
2  7 7 0 256.25 261.25
2  32 5 10 256.25 261.25
2  33 9 13 256.25 261.25
0

0101000
+12 0 -22 0 *
Wi

0101100
+11 0 -21 0 -10 0 +10 1 *
Fa
0  1e-07 22 0

0101000
+9 0 *
Ed
 1e-07 1 1 0
1  15 0 292 300
2  34 24 5 292 300
2  35 25 5 292 300
2  36 15 8 292 300
2  37 5 10 292 300
2  38 16 14 292 300
2  39 7 0 292 300
0

0101000
-12 0 +17 0 *
Wi

0101100
-11 0 +16 0 -7 0 +7 1 *
Fa
0  1e-07 23 0

0101000
+6 0 *
Wi

0101100
+40 0 +35 0 -30 0 -25 0 -20 0 +15 0 +10 0 +7 0 *
Fa
0  1e-07 5 10

0111000
+4 0 *
Sh

0101100
+38 0 +33 0 -28 0 -23 0 -18 0 +13 0 +8 0 +5 0 +3 0 -3 1 
*
So

1100000
+2 0 *

+1 0 