DBRep_DrawableShape

CASCADE Topology V1, (c) Matra-Datavision
Locations 2
1
0.991558389435874 0.129660943770032               0               0 
-0.129660943770032 0.991558389435874               0               0 
              0               0               1               0 
2  1 -1 0
Curve2ds 24
1 0 0 0 1 
1 0.13002702927357757 0 0 1 
1 0 0 0 1 
1 0.13002702927357757 0 0 1 
1 0 0 0 1 
1 0.13002702927357757 0 0 1 
1 0 3.2953561606904991 0 1 
1 0.13002702927357757 3.2953561606905 0 1 
1 0 41.574003896665992 1 0 
1 0 0 1 0 
1 0 0 1 0 
1 0 6.2831853071795827 1 0 
7 0 0  8 9 2  0.0030402142252696765 41.574003896665921  0.0074849146714336418 36.36563992609333  0.011932113019430091 31.160285826030304  0.016381811869763396 25.958095180314558  0.020834012712526828 20.759222626540577  0.025288716932664101 15.563822668642388  0.029745925809589124 10.372049664598308  0.034205640516333791 5.1840578194337441  0.038667863129542651 1.2033433781269834e-13 
 1.6847637069057733 9 1.7200907964697261 9
3 398.17799000226046 -2005 1 0 -0 1 2331.8330883708159 2007.0107767833554
1 0 38.192190264349854 1 0 
1 0 0 1 0 
8 2.063838550084057 2.0824174359333583
7 0 0  8 9 2  0.0077895068883785043 38.192190264349115  0.0071901424981623925 33.463801700244602  0.0065924180842471536 28.722454197482875  0.0059963281651658207 23.968106860025728  0.005401867536424021 19.200720678694779  0.0048090310115789237 14.420256494704518  0.0042178134233958886 9.6266749984679336  0.0036282096225640184 4.8199367295284707  0.0030402142252697502 8.6785474880373214e-13 
 2.063838550084057 9 2.0824174359333583 9
8 2.063838550084057 2.0824174359333583
5 -460.90898019876369 -2005 1 0 -0 1 145.77187969166749 504.85802081477033
7 0 0  8 9 2  0.0077895068883780819 -6.1013983332337967e-13  0.011920901458057215 4.7248648778190043  0.01605054817047602 9.4515526170016528  0.020178448965680218 14.179942290116742  0.024304604843166544 18.909911755850771  0.02842901686530297 23.64133881466114  0.032551686156384818 28.374101212688402  0.036672613902743123 33.108076651266828  0.040791802352653762 37.843143941626231 
 4.6305385443093705 9 4.663480043036615 9
3 -63.633227331377299 -2005 -1 -0 0 -1 2275.4474703098358 1962.6884684405543
1 0 37.843143941626344 1 0 
1 0 3.2953561606904991 1 0 
7 0 0  4 101 34  0.040791802352653894 3.2953561606904991  0.041027389315117277 3.3176084085626725  0.041262647674025738 3.3399489220788441  0.041497488110270576 3.3624011021302467  0.041961909763593319 3.407174768421144  0.04219150915656425 3.4294913788826249  0.042420504768870666 3.451965565233106  0.042871547481418637 3.4967407609154075  0.043093628534926993 3.5190329529224398  0.043314903165587011 3.5415290514396083  0.043748894172252389 3.5863064270781391  0.043961666447739974 3.6085737357340015  0.044173406487261493 3.6310916604046071  0.044586819333079404 3.6758720604253257  0.044788577475684231 3.6981141886228435  0.044989046753366631 3.7206538083901659  0.045378531307937245 3.7654383625824495  0.045567670551063533 3.7876553779946671  0.04575522423672742 3.8102164348674137  0.046117634892934439 3.8550066878113438  0.046292665682218501 3.877199344558814  0.046465763016342691 3.8997813276320588  0.046798184678907701 3.9445794178709042  0.046957746015679987 3.9667496689270485  0.047114961689929985 3.9893516174158701  0.0474147330525947 4.0341605109807768  0.047557603805361656 4.0563122949107058  0.047697637854098175 4.0789324824611732  0.04796237126837985 4.123756235307499  0.048087478032996553 4.1458966096719188  0.048209164258622025 4.1685320233793739  0.048436761246883238 4.2133759638158663  0.048543180281856876 4.2355165477575554  0.048645493789817411 4.2581620141727008  0.048834155234971421 4.3030325564191232  0.048921104953861677 4.3251908954462035  0.04900317090173012 4.347837665335252  0.049151402042608101 4.3927411950557378  0.049218223412023837 4.4149409183801254  0.049279332144878528 4.4375747200529947  0.04938594618804152 4.4825148930297223  0.049432075548585266 4.5047826485814308  0.049471711976888037 4.5273821555638376  0.04953584200801759 4.5723557763199185  0.049560797039530133 4.5947134279794053  0.049578685415012834 4.6172518549551249  0.049599740703526844 4.6620890442762359  0.04960317631084267 4.6843856860609314  0.049599444537773069 4.7066810485344428  0.049577821318790925 4.7515178529409248  0.049559657326742737 4.7740570207560085  0.049534456547086991 4.7964133811201615  0.049469904280942202 4.8413858677178911  0.049430091664763282 4.8639853300995801  0.049383839585332039 4.886252365779125  0.049277091953156639 4.9311911046487644  0.049215978589538335 4.9538241873041757  0.049149220933657214 4.9760240274573757  0.049001273053363797 5.0209261913642189  0.048919437520230702 5.0435718179529117  0.048832794074189903 5.0657310440384977  0.048644943911914637 5.1106005020640373  0.048543148580736113 5.1332446327190375  0.048437326179520096 5.1553866337370708  0.04821115881877213 5.2002298457177716  0.04809031907228075 5.2228639006801467  0.047966136827581898 5.245005954968974  0.047703517266247955 5.2898293308520055  0.047564685099342703 5.3124482550941199  0.047423091917812105 5.3346017572750153  0.047126157022917135 5.3794105896319744  0.04697051120353947 5.4020114567937743  0.046812591628937521 5.4241832972138928  0.046483737753032481 5.4689815988196937  0.046312575544616763 5.4915627503230002  0.046139546770711859 5.5137567494865785  0.045781413069383041 5.5585474448921417  0.04559614152695772 5.5811079762436426  0.045409345122018809 5.6033260051945053  0.045024793601010561 5.648111195356365  0.044826919915401178 5.6706506443706601  0.044627810703482276 5.6928934001815099  0.044219903943518366 5.7376745956161495  0.044011024819380559 5.7601927476376176  0.043801158298500183 5.7824602577078776  0.043373135517475292 5.8272385566193954  0.043154925706893603 5.8497353198345703  0.042935944711465807 5.8720272581853026  0.042491196596432926 5.9168034748346878  0.04226539672900733 5.9392787991556029  0.042039017684983374 5.9615946800315305  0.041581060289631495 6.0063694354123127  0.041349464129981403 6.0288232592697808  0.041117463077909915 6.0511625531234872  0.040649911007501406 6.0959363392824066  0.040414352256680518 6.1183685547997104  0.040178550741252463 6.1407307559049844  0.039624165835464339 6.1931566256356767  0.039305447721376667 6.2231811231257304  0.038986619402284081 6.253173013266573  0.038667863129542721 6.2831853071795845 
 0 5 0.038761860076280553 3 0.076826714540261298 3 0.11397522373614496 3 0.15000247294924068 3 0.18472217015635442 3 0.21797130867854642 3 0.24961549335031602 3 0.27955518575514898 3 0.30773316786869437 3 0.33414350152701844 3 0.35884205362842558 3 0.3819580370539552 3 0.40370467195557735 3 0.42438487989110096 3 0.44438573484422228 3 0.46401727071141041 3 0.48402402354424351 3 0.50471402008343913 3 0.52647089084440091 3 0.54959358713115947 3 0.57429160624796605 3 0.60069119764712642 3 0.62884630169355327 3 0.65875021279326562 3 0.69034613486523333 3 0.7235361147495134 3 0.75818843977628403 3 0.79414378346582282 3 0.8312204014705713 3 0.86921863526300147 3 0.90792492468979147 3 0.94711548092340536 3 1 5
7 0 0  4 101 34  47.612126677565641 -44.658521644510984  47.076897183291905 -44.635928711617872  46.542006646132251 -44.605357714248214  46.007638080559545 -44.566671422774228  44.949969110753116 -44.473483167603533  44.426643475401491 -44.419277590096463  43.904231053645958 -44.35683437565902  42.874283312083712 -44.216597869325426  42.36669394914135 -44.139209632579195  41.860447440338717 -44.053426569238944  40.866478150000631 -43.86718142819214  40.378659300466104 -43.767239749948914  39.892666472297144 -43.65871368177725  38.942642228657292 -43.42785073144524  38.478456431270004 -43.306157128334782  38.016651407518538 -43.17566174865518  37.118183782265362 -42.901913811362185  36.681288170220668 -42.759434787209685  36.247421526432021 -42.607916912337025  35.407705639876291 -42.293346665616788  35.001519541079354 -42.131203461639643  34.599130504295928 -41.95977868275375  33.824887340903715 -41.606763365315736  33.452561985437093 -41.426217797827732  33.084953123124627 -41.236165882567775  32.38237664958595 -40.847378699601933  32.046768592331915 -40.649813829514315  31.716983327780866 -40.442574564497953  31.091693981382861 -40.020963012585696  30.795345398169047 -39.807857478795292  30.506148379072169 -39.585028252287998  29.963155171791655 -39.133790673925922  29.708286704508481 -38.90668695142886  29.462145874204179 -38.670024370145626  29.005819596022206 -38.192588507594245  28.794344128826555 -37.953060154479047  28.593409934527386 -37.704488820475753  28.227467719752134 -37.204500062681014  28.061032175109123 -36.954133598944168  27.907102209460785 -36.695762755309971  27.634595500505093 -36.177091866317568  27.514642239730318 -35.917512323410847  27.409092662390979 -35.651647940898684  27.232376621112849 -35.118417916141638  27.160178745785768 -34.851382128404126  27.103857451248047 -34.580495583570226  27.024794329435267 -34.038989176349403  27.001443885465005 -33.768440825379749  26.994395626382154 -33.49697828477867  27.012399816678066 -32.949943307932173  27.03807476269678 -32.674374300774744  27.079951299477603 -32.400854810338828  27.195909858236828 -31.850976510202155  27.271058927420228 -31.574831240383709  27.361218950086986 -31.303315474676154  27.573986575260037 -30.757106882726998  27.698042283843531 -30.482975659299527  27.835424110416 -30.215396205987972  28.143128858592792 -29.67732127554148  28.314984393238458 -29.407707939483387  28.498343862204834 -29.145908243962548  28.898396726046354 -28.620297086061083  29.116507579372403 -28.357575199420793  29.344391598634608 -28.103401732515554  29.833518387883043 -27.594467958288853  30.095970413125453 -27.340882345172492  30.366658842173422 -27.096211939568203  30.940912219878374 -26.60805124633713  31.245457717851494 -26.365726584358043  31.55692043192948 -26.132448569345474  32.211693542504179 -25.669016697005326  32.555772430340426 -25.439959419082754  32.905652428940186 -25.219940264551315  33.635702788976651 -24.785019529658836  34.016460293758726 -24.571112711351827  34.402077417959696 -24.366159256169002  35.201561546019647 -23.963321536546744  35.615867171222305 -23.766315490430163  36.034234753022524 -23.578142672409928  36.896751494219437 -23.210713090526891  37.341220620069748 -23.032213936765146  37.789069557927661 -22.862418014807385  38.707710055591136 -22.533441149563952  39.17872829360109 -22.374898794343775  39.652535356304725 -22.224935413686861  40.619938174220657 -21.937144737837816  41.113688230185076 -21.799841131771554  41.609706891620625 -21.671007334991536  42.618117246577484 -21.426798152038902  43.130607963816956 -21.311836386190244  43.644900883402798 -21.205255852901345  44.686233217709926 -21.006661882053937  45.213330466786161 -20.914956502364305  45.741803124064816 -20.83156753918157  46.80770638300919 -20.680241271121272  47.34516547515463 -20.612510084906045  47.883600639148547 -20.553056075641361  49.150448375845791 -20.432681911084053  49.879500889676791 -20.378508180425943  50.609500766157353 -20.339154021987699  51.340000000000039 -20.314679300519401 
 0 5 0.038761860076280553 3 0.076826714540261298 3 0.11397522373614496 3 0.15000247294924068 3 0.18472217015635442 3 0.21797130867854642 3 0.24961549335031602 3 0.27955518575514898 3 0.30773316786869437 3 0.33414350152701844 3 0.35884205362842558 3 0.3819580370539552 3 0.40370467195557735 3 0.42438487989110096 3 0.44438573484422228 3 0.46401727071141041 3 0.48402402354424351 3 0.50471402008343913 3 0.52647089084440091 3 0.54959358713115947 3 0.57429160624796605 3 0.60069119764712642 3 0.62884630169355327 3 0.65875021279326562 3 0.69034613486523333 3 0.7235361147495134 3 0.75818843977628403 3 0.79414378346582282 3 0.8312204014705713 3 0.86921863526300147 3 0.90792492468979147 3 0.94711548092340536 3 1 5
Curves 12
1 0 -1986.1700000000001 60.829999999999998 0 -0.1883388479844697 -0.98210410768914036 
1 0 -1994 20.000000000000004 0 0.99033401117215536 0.13870308690028937 
1 0 -1956.1769750200563 25.297374685148508 0 -0.15317466016629341 0.98819913149270711 
2 0 -1974 60.829999999999956 1 0 0 -0 0.98820166532958809 0.15315831234323823 0 -0.15315831234323823 0.98820166532958809 12.170000000000011
2 0 0 20.000000000000004 -0 -0 -1 0 -1 0 -1 0 0 1994
2 0 0 60.829999999999998 -0 -0 -1 0 -1 0 -1 0 0 1986.1700000000001
3 223.58869803996237 0 -112.58899500113026 -0.50000000000000011 0 -0.8660254037844386 0.8660254037844386 0 -0.50000000000000011 0 -1 -0 2331.8330883708159 2007.0107767833554
2 0 0 25.297374685148508 -0 -0 -1 0 -1 0 -1 0 0 1956.1769750200563
5 -520.40244221432954 0 316.95449009938187 -0.50000000000000011 0 -0.8660254037844386 0.8660254037844386 0 -0.50000000000000011 0 -1 -0 145.77187969166749 504.85802081477033
3 -176.35154792358438 0 118.31661366568866 -0.50000000000000011 0 -0.8660254037844386 -0.8660254037844386 0 0.50000000000000011 0 1 0 2275.4474703098358 1962.6884684405543
2 0 0 62.693936661217158 -0 -0 -1 0 -1 0 -1 0 0 1961.973585732939
7 0 0  4 101 34  -80.010245298846741 -1960.341478355489 62.69393666121718  -80.473767637742498 -1960.3640712883821 62.96155140835404  -80.936996431166676 -1960.3946422857518 63.228996676933875  -81.399773183936475 -1960.4333285772257 63.49618095972022  -82.315741380583376 -1960.5265168323965 64.025015444623435  -82.768954675249503 -1960.5807224099035 64.286678262299247  -83.221377103742356 -1960.643165624341 64.547884473177021  -84.113338012505665 -1960.7834021306746 65.06285834395814  -84.552923295504513 -1960.8607903674208 65.316653025429318  -84.991345632704764 -1960.946573430761 65.569776279830634  -85.85214828871915 -1961.1328185718078 66.066760924999684  -86.274611804860939 -1961.2327602500511 66.310670349766951  -86.6954939401123 -1961.3412863182227 66.553666763851425  -87.518239069315513 -1961.5721492685548 67.028678885671354  -87.920235761928836 -1961.6938428716653 67.260771784364991  -88.320170644092883 -1961.8243382513449 67.491674296240731  -89.09826643204002 -1962.0980861886378 67.940908108867319  -89.476629130872666 -1962.2405652127902 68.159355914889659  -89.852368666248339 -1962.392083087663 68.37628923678399  -90.579583955966967 -1962.7066533343832 68.796147180061851  -90.931351436189203 -1962.8687965383604 68.999240229460327  -91.279830564248016 -1963.0402213172463 69.200434747852029  -91.950344812452087 -1963.3932366346842 69.587556329548136  -92.272788028759265 -1963.5737822021722 69.773719007281443  -92.591146642178145 -1963.7638341174322 69.957523438437676  -93.19959571636393 -1964.1526213003981 70.308811675207025  -93.49024081966067 -1964.3501861704856 70.476615703834042  -93.775843236555644 -1964.557425435502 70.641508336109567  -94.31735969525208 -1964.9790369874142 70.95415300930857  -94.574005096690769 -1965.1921425212047 71.102327300915476  -94.824457061927404 -1965.4149717477121 71.246925810463907  -95.294702973514717 -1965.8662093260741 71.518422414104165  -95.515425540805552 -1966.0933130485712 71.645856647745759  -95.728589752757671 -1966.3299756298543 71.768927062897902  -96.123779902077658 -1966.8074114924057 71.997090201988897  -96.306923028946272 -1967.0469398455209 72.102827935586717  -96.48093714569832 -1967.2955111795243 72.203295032736307  -96.797852400010825 -1967.7954999373189 72.386266140123922  -96.94198980976438 -1968.0458664010557 72.46948391244544  -97.075297070419509 -1968.3042372446901 72.546448895269606  -97.311294803076819 -1968.8229081336824 72.68270224974745  -97.415177374174561 -1969.0824876765892 72.742678880134832  -97.506585989509134 -1969.3483520591012 72.795453668804512  -97.659626570512216 -1969.8815820838583 72.883811689443576  -97.722151764644735 -1970.1486178715959 72.919910627107114  -97.770927436488421 -1970.4195044164298 72.948071274375977  -97.839398108480793 -1970.9610108236507 72.98760283528236  -97.859620186148689 -1971.2315591746203 72.999278057267489  -97.865724157566888 -1971.5030217152214 73.002802186808921  -97.850132071396061 -1972.0500566920678 72.993800091660958  -97.827896915903054 -1972.3256256992252 72.980962618651603  -97.791630771228355 -1972.5991451896612 72.960024350261193  -97.691207713556636 -1973.1490234897979 72.902045070881584  -97.626126710573061 -1973.4251687596163 72.864470536289886  -97.548045840537867 -1973.6966845253239 72.819390524956503  -97.363783672035112 -1974.2428931172731 72.713006712369975  -97.256348276917322 -1974.5170243407006 72.650978858078233  -97.137372125087268 -1974.7846037940121 72.582287944792  -96.870891996301069 -1975.3226787244585 72.428435570703599  -96.722060737516955 -1975.5922920605167 72.342507803380769  -96.563266779367666 -1975.8540917560374 72.250828068897576  -96.216810836424187 -1976.3797029139389 72.050801636976814  -96.027921296602727 -1976.6424248005792 71.941746210313795  -95.830567946805147 -1976.8965982674845 71.827804200682692  -95.406971721644481 -1977.4055320417112 71.58324080605847  -95.179681600509895 -1977.6591176548275 71.452014793437272  -94.945258544443845 -1977.9037880604319 71.316670578913289  -94.447940531142336 -1978.391948753663 71.029543890060808  -94.184196393289426 -1978.6342734156419 70.877271141074246  -93.914461770566248 -1978.8675514306544 70.721539784035258  -93.347411623093606 -1979.3309833029946 70.394153228747911  -93.049430565321515 -1979.5600405809173 70.222113784829787  -92.746425598258057 -1979.7800597354487 70.047173785529907  -92.114183440424512 -1980.2149804703411 69.682148605511671  -91.784437768601649 -1980.4288872886482 69.49176985312063  -91.450483542909311 -1980.6338407438309 69.298961291020149  -90.758109978086949 -1981.0366784634532 68.899219226990169  -90.399310781730648 -1981.2336845095699 68.692066414388847  -90.036993827771795 -1981.42185732759 68.482882623488734  -89.290032418705891 -1981.789286909473 68.051624252890278  -88.905110864521674 -1981.9677860632348 67.829389689965126  -88.517262307278827 -1982.1375819851926 67.60546522103617  -87.721696299357092 -1982.4665588504361 67.146144972204425  -87.313782539594683 -1982.6251012056562 66.910635853199452  -86.90345358680085 -1982.7750645863132 66.673732321847638  -86.065658170793 -1983.0628552621622 66.190030912889668  -85.638058079207823 -1983.2001588682285 65.943155884907455  -85.208493317653478 -1983.3289926650084 65.695146554189677  -84.335184332821569 -1983.5732018479612 65.190941376711251  -83.891354352488463 -1983.6881636138098 64.934696018091515  -83.44596361914067 -1983.7947441470988 64.677549558298594  -82.544143363848548 -1983.993338117946 64.15688339114503  -82.087663755883625 -1984.0850434976358 63.893334766606912  -81.629993009474845 -1984.1684324608184 63.629098437967585  -80.706893709252398 -1984.3197587288787 63.096146808495405  -80.241440481959529 -1984.387489915094 62.827417262422685  -79.775141951649957 -1984.4469439243587 62.558199680425723  -78.678019628943318 -1984.567318088916 61.924775812077101  -78.046641631272763 -1984.621491819574 61.560249555161597  -77.414443193481105 -1984.6608459780123 61.195249616921316  -76.781812299528269 -1984.6853206994806 60.82999999999997 
 0 5 0.038761860076280553 3 0.076826714540261298 3 0.11397522373614496 3 0.15000247294924068 3 0.18472217015635442 3 0.21797130867854642 3 0.24961549335031602 3 0.27955518575514898 3 0.30773316786869437 3 0.33414350152701844 3 0.35884205362842558 3 0.3819580370539552 3 0.40370467195557735 3 0.42438487989110096 3 0.44438573484422228 3 0.46401727071141041 3 0.48402402354424351 3 0.50471402008343913 3 0.52647089084440091 3 0.54959358713115947 3 0.57429160624796605 3 0.60069119764712642 3 0.62884630169355327 3 0.65875021279326562 3 0.69034613486523333 3 0.7235361147495134 3 0.75818843977628403 3 0.79414378346582282 3 0.8312204014705713 3 0.86921863526300147 3 0.90792492468979147 3 0.94711548092340536 3 1 5
Polygon3D 0
PolygonOnTriangulations 21
2 1 2 
p 5.3847297200152 1 0 41.574003896666 
2 5 2 
p 20.6397838560122 1 0 41.574003896666 
2 2 3 
p 5.38472972001521 1 0 38.1921902643499 
2 5 2 
p 19.3092789490946 1 0 38.1921902643499 
2 3 4 
p 5.38472972001521 1 0 37.8431439416263 
2 8 5 
p 19.2664086464396 1 0 37.8431439416263 
12 4 5 6 7 8 9 10 11 12 13 14 1 
p 5.38472972001521 1 0 0.271620831499008 0.543241662998015 0.814862494497023 1.08648332599603 1.35810415749504 1.62972498899405 1.90134582049305 2.17296665199206 2.44458748349107 2.71620831499008 2.98782914648908 
12 13 14 15 16 17 18 19 20 21 22 23 10 
p 13.9046468803203 1 0 0.271620831499008 0.543241662998015 0.814862494497023 1.08648332599603 1.35810415749504 1.62972498899405 1.90134582049305 2.17296665199206 2.44458748349107 2.71620831499008 2.98782914648908 
4 1 3 4 2 
p 25.3028109620822 1 0.00304021422526961 0.0453691525747056 0.0876980909241416 0.130027029273578 
4 6 7 8 5 
p 30.3087366175117 1 0.00304021422526961 0.0453691525747056 0.0876980909241416 0.130027029273578 
4 6 7 8 5 
p 25.3028109620822 1 0.0386678631295427 0.0691209185108877 0.0995739738922326 0.130027029273578 
4 2 11 12 10 
p 23.135248651236 1 0.0386678631295427 0.0691209185108877 0.0995739738922326 0.130027029273578 
4 2 16 17 8 
p 9.18007079226552 1 1.68476370690577 1.70046463560086 1.71027771603529 1.72009079646973 
4 1 3 4 2 
p 25.311927972073 1 0.00778950688837859 0.0485353476834449 0.0892811884785112 0.130027029273578 
4 1 9 10 8 
p 28.9026108978555 1 0.00778950688837859 0.0485353476834449 0.0892811884785112 0.130027029273578 
4 1 3 4 2 
p 9.18007079226552 1 2.06383855008406 2.07209583268375 2.07725663430855 2.08241743593336 
4 1 6 7 5 
p 9.18007079226552 1 4.63053854430937 4.64517921041037 4.65432962672349 4.66348004303662 
4 2 6 7 5 
p 23.9630091798651 1 0.0407918023526539 0.0705368779929618 0.10028195363327 0.130027029273578 
4 1 24 25 13 
p 22.230712003889 1 0.0407918023526539 0.0705368779929618 0.10028195363327 0.130027029273578 
9 1 3 4 5 6 7 8 9 2 
p 9.73941386222068 1 0 0.3 0.382122964059238 0.438372964059238 0.493731401559238 0.585995464059238 0.712557964059238 0.856278982029619 1 
9 5 9 10 11 12 13 14 15 8 
p 9.18007079226552 1 0 0.3 0.382122964059238 0.438372964059238 0.493731401559238 0.585995464059238 0.712557964059238 0.856278982029619 1 
Surfaces 6
1 0 -1986.1700000000001 60.829999999999998 -1 0 -0 0 0 -1 0 -1 -0 
3 0 0 60.829999999999998 -0 -0 -1 0 -1 0 -1 0 0 1986.1700000000001
0.18947044980305411
3 0 0 20.000000000000004 0 0 1 0 -1 0 -1 -0 0 1994
-1.4316446039809743
3 0 0 25.297374685148508 0 0 1 0 -1 0 -1 -0 0 1956.1769750200563
0.15378005012485371
5 0 0 60.829999999999956 -0 -0 -1 0 -1 0 -1 0 0 1974 12.170000000000011
1 -121.24355652982138 -2005 86.5 -0.50000000000000011 0 -0.8660254037844386 0.8660254037844386 0 -0.50000000000000011 0 -1 -0 
Triangulations 6
15 14 1 4.15705088272311e-14
0 -1986.17 60.83 0 -1994 20 2.8421709430404e-14 -1956.17697502006 25.2973746851485 0 -1961.97358573294 62.6939366612172 0 -1962.91458802833 65.8522048363574 0 -1964.66843250463 68.6422178719859 0 -1967.1065178277 70.8593969679237 0 -1970.05007043492 72.3411665973054 0 -1973.2832531768 72.9788754208543 0 -1976.56899166063 72.7257631889517 -2.8421709430404e-14 -1979.66635782329 71.6003894552815 2.8421709430404e-14 -1982.34823607601 69.6852726902762 2.8421709430404e-14 -1984.41797664399 67.1208395819063 5.6843418860808e-14 -1985.72381498825 64.095128193704 2.8421709430404e-14 -1975.08848751003 46.4894377104272 0 0 40.83 7.82999999999993 35.5326253148515 -29.9930249799438 -1.86393666121716 -24.1964142670611 -5.02220483635741 -23.2554119716712 -7.81221787198591 -21.501567495369 -10.0293969679237 -19.063482172299 -11.5111665973055 -16.1199295650785 -12.1488754208543 -12.8867468231969 -11.8957631889517 -9.60100833937105 -10.7703894552815 -6.50364217670993 -8.85527269027629 -3.82176392398689 -6.29083958190636 -1.75202335601006 -3.26512819370405 -0.44618501175157 14.3405622895728 -11.0815124899719 4 9 8 4 8 7 11 10 4 9 4 10 11 4 12 7 6 4 12 4 13 15 3 2 3 15 4 1 4 15 13 4 14 14 4 1 15 2 1 4 6 5 
10 8 1 0.311561090184091
-6.06217782649107 -1993.99078483327 20 -258.543921877443 -1977.16742853513 20 -90.4350581309009 -1991.9481670618 20 -174.64592660513 -1986.33703089889 20 -257.528676687724 -1969.40352634585 60.83 -76.7818122995283 -1984.68532069948 60.83 -137.176602329011 -1981.42722517721 60.83 -197.444186175021 -1976.33171867622 60.83 -37.533761373793 -1990.16159551863 38.1701272328586 -57.1713048376742 -1987.5191529575 49.5078682379533 0.00304021422526961 41.574003896666 0.130027029273578 41.574003896666 0.0453691525747056 41.574003896666 0.0876980909241416 41.574003896666 0.130027029273578 0 0.0386678631295427 0 0.0691209185108877 0 0.0995739738922326 0 0.0188574196840551 23.0727806451521 0.0287572289968814 11.5284439818976 10 6 3 1 9 3 3 9 10 6 7 3 7 8 4 8 2 4 2 8 5 7 4 3 
10 8 1 0.0583228491005464
-15.2374999278975 -1956.11762841465 25.2973746851485 -253.639752762306 -1939.66369080243 25.2973746851485 -94.9064578294756 -1953.87336382399 25.2973746851485 -174.417871593818 -1948.3856814469 25.2973746851485 -258.543921877443 -1977.16742853513 20 -6.06217782649107 -1993.99078483327 20 -90.4350581309009 -1991.9481670618 20 -174.64592660513 -1986.33703089889 20 -11.1812936722829 -1972.86600993455 22.9555229115808 -8.62855102502971 -1983.4019844866 21.4816962570173 0.00778950688837859 38.1921902643499 0.130027029273578 38.1921902643499 0.0485353476834449 38.1921902643499 0.0892811884785112 38.1921902643499 0.130027029273578 0 0.00304021422526961 0 0.0453691525747056 0 0.0876980909241416 0 0.00566747759248573 21.3082704077133 0.00435035199433961 10.6825045937524 6 7 10 7 9 10 9 7 1 7 3 1 8 5 4 4 3 8 2 4 5 8 3 7 
10 8 1 0.285998474431163
-15.2374999278975 -1956.11762841465 25.2973746851485 -80.0102452988467 -1960.34147835549 62.6939366612172 -44.0079787017557 -1958.25725462837 41.90801834995 -62.0043248804241 -1959.38139553799 52.2982136606339 -254.391346778006 -1945.41136878508 62.6939366612172 -138.276759970317 -1957.09475722712 62.6939366612172 -196.420940598756 -1952.11658596716 62.6939366612172 -253.639752762306 -1939.66369080243 25.2973746851485 -94.9064578294756 -1953.87336382399 25.2973746851485 -174.417871593818 -1948.3856814469 25.2973746851485 0.00778950688837808 -6.1013983332338e-13 0.0407918023526538 37.8431439416262 0.0224692503958708 16.8090046357871 0.031634290165768 27.3232769532646 0.130027029273578 37.8431439416263 0.0705368779929618 37.8431439416263 0.10028195363327 37.8431439416263 0.130027029273578 0 0.0485353476834449 0 0.0892811884785112 0 1 9 3 4 3 9 2 4 9 9 6 2 10 8 7 7 6 10 5 7 8 10 6 9 
25 23 1 9.67770905345165
-80.0102452988467 -1960.34147835549 62.6939366612172 -76.7818122995283 -1984.68532069948 60.83 -93.7458541477598 -1964.54078738665 70.6241941276206 -96.6488883854846 -1967.5604913072 72.3002617262377 -97.7562743596344 -1970.36561625224 72.9396113165098 -97.6283563750738 -1973.38913773006 72.8657578336896 -95.2282131384955 -1977.59799669696 71.4800344899574 -90.1529483600754 -1981.35819681786 68.549829003928 -83.6067682556256 -1983.75338231168 64.7703901584601 -257.528676687724 -1969.40352634585 60.83 -137.176602329011 -1981.42722517721 60.83 -197.444186175021 -1976.33171867622 60.83 -254.391346778006 -1945.41136878508 62.6939366612172 -254.513358023716 -1946.34442750555 65.8522048363574 -254.740763153739 -1948.0834667098 68.6422178719859 -255.05688759772 -1950.50097066605 70.8593969679237 -255.438551406809 -1953.41967494848 72.3411665973054 -255.857768932503 -1956.62556442077 72.9788754208543 -256.283800885297 -1959.8835659799 72.7257631889517 -256.685408305149 -1962.95478538364 71.6003894552815 -257.033143170474 -1965.61402426458 69.6852726902762 -257.301507685877 -1967.66629288871 67.1208395819063 -257.470823918004 -1968.96110785421 64.095128193704 -138.276759970317 -1957.09475722712 62.6939366612172 -196.420940598756 -1952.11658596716 62.6939366612172 0.0407918023526539 3.2953561606905 0.0386678631295427 6.28318530717958 0.0476827946709237 4.07690035305013 0.0490817267248215 4.37163518797621 0.0495726191935024 4.61272777799836 0.0494321277590335 4.86105580439341 0.0481163066682709 5.21753143852158 0.0454692195673638 5.59604026870021 0.0421208196179504 5.95346440041224 0.130027029273578 6.28318530717958 0.0691209185108877 6.28318530717958 0.0995739738922326 6.28318530717958 0.130027029273578 3.2953561606905 0.130027029273578 3.56697699218951 0.130027029273578 3.83859782368852 0.130027029273578 4.11021865518752 0.130027029273578 4.38183948668653 0.130027029273578 4.65346031818554 0.130027029273578 4.92508114968455 0.130027029273578 5.19670198118355 0.130027029273578 5.46832281268256 0.130027029273578 5.73994364418157 0.130027029273578 6.01156447568058 0.0705368779929618 3.2953561606905 0.10028195363327 3.2953561606905 3 1 24 4 3 24 6 20 7 4 17 5 5 18 6 9 8 11 2 9 11 7 12 11 20 12 7 7 11 8 25 4 24 25 13 14 25 14 15 15 16 25 16 17 25 17 18 5 19 6 18 20 6 19 22 12 21 10 12 23 23 12 22 21 12 20 17 4 25 
18 17 1 9.10604924797553e-13
-15.2374999278975 -1956.11762841465 25.2973746851485 -6.06217782649107 -1993.99078483327 20 -11.1812936722829 -1972.86600993455 22.9555229115808 -8.62855102502971 -1983.4019844866 21.4816962570173 -80.0102452988467 -1960.34147835549 62.6939366612172 -44.0079787017557 -1958.25725462837 41.90801834995 -62.0043248804241 -1959.38139553799 52.2982136606339 -76.7818122995283 -1984.68532069948 60.83 -93.7458541477598 -1964.54078738665 70.6241941276206 -96.6488883854846 -1967.5604913072 72.3002617262377 -97.7562743596344 -1970.36561625224 72.9396113165098 -97.6283563750738 -1973.38913773006 72.8657578336896 -95.2282131384955 -1977.59799669696 71.4800344899574 -90.1529483600754 -1981.35819681786 68.549829003928 -83.6067682556256 -1983.75338231168 64.7703901584601 -37.533761373793 -1990.16159551863 38.1701272328586 -57.1713048376742 -1987.5191529575 49.5078682379533 -51.9092260930628 -1975.05420662396 46.469805658255 122.405250629703 -48.8823715853468 133 -11.0092151667304 127.088954176838 -32.1339900654477 130.036607485965 -21.5980155134002 47.6121266775658 -44.658521644511 89.1839633001 -46.7427453716259 68.4035726787323 -45.6186044620124 51.34 -20.3146793005194 31.7516117447589 -40.4592126133458 28.3994765475247 -37.4395086927966 27.1207773669803 -34.6343837477619 27.2684843326208 -31.6108622699446 30.0399310200851 -27.4020033030366 35.900341992144 -23.6418031821403 43.4592196830798 -21.2466176883229 96.6597455342829 -14.8384044813745 73.9842635240933 -17.4808470425023 80.0603886834901 -29.9457933760386 12 11 10 13 10 9 14 9 5 12 10 13 14 13 9 5 15 14 5 8 15 5 7 8 18 7 6 1 3 6 16 6 3 17 18 16 17 8 18 16 4 2 16 18 6 3 4 16 18 8 7 

TShapes 35
Ve
1e-07
0 -1986.17 60.83
0 0

0101111
*
Ve
5.0000097074173e-07
0 -1994 20
0 0

0101111
*
Ed
 1e-07 1 1 0
1  1 0 0 41.574003896666
2  1 2 0 0 41.574003896666
2  2 2 2 0 41.574003896666
6  1 1 0
6  2 2 2
0

0101000
+35 0 -34 0 *
Ve
1e-07
0 -1956.17697502006 25.2973746851485
0 0

0101111
*
Ed
 1e-07 1 1 0
1  2 0 0 38.1921902643499
2  3 3 0 0 38.1921902643499
2  4 3 2 0 38.1921902643499
6  3 1 0
6  4 3 2
0

0101000
+34 0 -32 0 *
Ve
1.00000007105427e-07
0 -1961.97358573294 62.6939366612172
0 0

0101111
*
Ed
 1e-07 1 1 0
1  3 0 0 37.8431439416263
2  5 4 0 0 37.8431439416263
2  6 4 2 0 37.8431439416263
6  5 1 0
6  6 4 2
0

0101000
+32 0 -30 0 *
Ed
 1e-07 1 1 0
1  4 0 0 2.98782914648908
2  7 5 0 0 2.98782914648908
2  8 5 2 0 2.98782914648908
6  7 1 0
6  8 5 2
0

0101000
+30 0 -35 0 *
Wi

0101100
+33 0 +31 0 +29 0 +28 0 *
Fa
0  1e-07 1 0
2  1
0101000
-27 0 *
Ve
0.000172727737267084
-6.06217782649107 -1993.99078483327 20
0 0

0101101
*
Ed
 1e-07 1 1 0
1  5 0 0.00304021422526961 0.130027029273578
2  9 2 0 0.00304021422526961 0.130027029273578
2  10 3 0 0.00304021422526961 0.130027029273578
6  9 2 0
6  10 3 0
0

0101000
+25 0 -34 1 *
Ve
2.53279410402567e-05
-76.7818122995283 -1984.68532069948 60.83
0 0

0101101
*
Ed
 1e-07 1 1 0
1  6 0 0.0386678631295427 0.130027029273578
2  11 2 0 0.0386678631295427 0.130027029273578
2  12 5 0 0.0386678631295427 0.130027029273578
6  11 2 0
6  12 5 0
0

0101000
+23 0 -35 1 *
Ed
 1.01386809026504e-06 1 1 0
1  7 0 1.68476370690577 1.72009079646973
2  13 2 0 1.68476370690577 1.72009079646973
2  14 6 0 1.68476370690577 1.72009079646973
6  13 6 0
0

0101000
+25 0 -23 0 *
Wi

0101000
-24 0 +33 1 +22 0 +21 0 *
Fa
0  1e-07 2 0
2  2
0101000
+20 0 *
Ve
9.90854706456513e-07
-15.2374999278975 -1956.11762841465 25.2973746851485
0 0

0101101
*
Ed
 1e-07 1 1 0
1  8 0 0.00778950688837859 0.130027029273578
2  15 3 0 0.00778950688837859 0.130027029273578
2  16 4 0 0.00778950688837859 0.130027029273578
6  14 3 0
6  15 4 0
0

0101000
+18 0 -32 1 *
Ed
 9.2593186260207e-07 1 1 0
1  9 0 2.06383855008406 2.08241743593336
2  17 3 0 2.06383855008406 2.08241743593336
2  18 6 0 2.06383855008406 2.08241743593336
6  16 6 0
0

0101000
+18 0 -25 0 *
Wi

0101000
-17 0 +31 1 +24 0 +16 0 *
Fa
0  1e-07 3 0
2  3
0101000
+15 0 *
Ve
2.53279410402567e-05
-80.0102452988467 -1960.34147835549 62.6939366612172
0 0

0101101
*
Ed
 9.90854706456513e-07 1 1 0
1  10 0 4.63053854430937 4.66348004303662
2  19 4 0 4.63053854430937 4.66348004303662
2  20 6 0 4.63053854430937 4.66348004303662
6  17 6 0
0

0101000
+18 0 -13 0 *
Ed
 1.00000007105427e-07 1 1 0
1  11 0 0.0407918023526539 0.130027029273578
2  21 4 0 0.0407918023526539 0.130027029273578
2  22 5 0 0.0407918023526539 0.130027029273578
4 G1 4 0 5 0
6  18 4 0
6  19 5 0
0

0101000
+13 0 -30 1 *
Wi

0101000
-12 0 -11 0 +29 1 +17 0 *
Fa
0  1e-07 4 0
2  4
0101000
+10 0 *
Ed
 2.53279410402567e-05 1 1 0
1  12 0 0 1
2  23 5 0 0 1
2  24 6 0 0 1
6  20 5 0
6  21 6 0
0

0101000
+13 0 -23 0 *
Wi

0101000
-8 0 -22 0 +28 1 +11 0 *
Fa
0  1e-07 5 0
2  5
0101000
+7 0 *
Wi

0101000
+16 0 -12 0 -8 0 +21 0 *
Fa
0  1e-07 6 0
2  6
0101000
+5 0 *
Sh

0101000
+26 1 +19 0 +14 0 +9 0 +6 0 -4 0 *
So

0100000
+3 0 *
Co

1100000
+2 0 *

+1 0 