DBRep_DrawableShape

CASCADE Topology V1, (c) Matra-Datavision
Locations 0
Curve2ds 4
1 0 0 1 0 
1 11 0 0 1 
1 0 1 1 0 
1 0 0 0 1 
Curves 4
7 0 0  3 5 3  40 -10 -1  40 -10 0.83333333333333348  40 -10 4.5000000000000009  40 -10 8.1666666666666661  40 -10 10 
 0 4 5.5 1 11 4
7 0 0  1 2 2  40 -10 10  40 10 10 
 0 2 1 2
7 0 0  3 5 3  40 10 -1  40 10 0.83333333333333348  40 10 4.5000000000000009  40 10 8.1666666666666661  40 10 10 
 0 4 5.5 1 11 4
7 0 0  1 2 2  40 -10 -1  40 10 -1 
 0 2 1 2
Polygon3D 0
PolygonOnTriangulations 4
2 1 2 
p 0.0800000008 1 0 11 
2 2 3 
p 0.0800000008 1 0 1 
2 4 3 
p 0.0800000008 1 0 11 
2 1 4 
p 0.0800000008 1 0 1 
Surfaces 1
9 0 0 0 0 3 1 5 2 3 2 40 -10 -1  40 10 -1  
40 -10 0.83333333333333348  40 10 0.83333333333333348  
40 -10 4.5000000000000009  40 10 4.5000000000000009  
40 -10 8.1666666666666661  40 10 8.1666666666666661  
40 -10 10  40 10 10  

0 4
5.5 1
11 4

0 2
1 2

Triangulations 1
4 2 1 0
40 -10 -1 40 -10 10 40 10 10 40 10 -1 0 0 11 0 11 1 0 1 3 1 2 3 4 1 

TShapes 11
Ve
1e-007
40 -10 -1
0 0

0101101
*
Ve
1e-007
40 -10 10
0 0

0101101
*
Ed
 1e-007 1 1 0
1  1 0 0 11
2  1 1 0 0 11
6  1 1 0
0

0101000
+11 0 -10 0 *
Ve
1e-007
40 10 10
0 0

0101101
*
Ed
 1e-007 1 1 0
1  2 0 0 1
2  2 1 0 0 1
6  2 1 0
0

0101000
+10 0 -8 0 *
Ve
1e-007
40 10 -1
0 0

0101101
*
Ed
 1e-007 1 1 0
1  3 0 0 11
2  3 1 0 0 11
6  3 1 0
0

0101000
+6 0 -8 0 *
Ed
 1e-007 1 1 0
1  4 0 0 1
2  4 1 0 0 1
6  4 1 0
0

0101000
+11 0 -6 0 *
Wi

0101000
+9 0 +7 0 -5 0 -4 0 *
Fa
0  1e-007 1 0
2  1
0111000
+3 0 *
Sh

0101000
+2 0 *

+1 0 