DBRep_DrawableShape

CASCADE Topology V1, (c) Matra-Datavision
Locations 0
Curve2ds 10
7 0 0  3 91 89  3.1415926535897931 -50  3.14938508291617 -49.999999999999993  3.1650343284438036 -50.000022785888902  3.1886858530337339 -50.000026456749524  3.2124993298295648 -49.999901693752236  3.2364597539212294 -49.99954728187253  3.2605527806921542 -49.998874222888773  3.2847645491435999 -49.997577513103707  3.3090814470891572 -49.995337567382947  3.3334900514258519 -49.9918355557298  3.3579780821349985 -49.986764121937455  3.3825341721197395 -49.979603733568929  3.4071456453561657 -49.969819675539078  3.4318003477311589 -49.956878616860493  3.4564863730649895 -49.940256821021912  3.4811919302663998 -49.919258818855411  3.5059052973679115 -49.893179446587652  3.5306139293219228 -49.861315660862104  3.5553084901784153 -49.822966247966775  3.5799888806905931 -49.777301284665882  3.6046400264068534 -49.723513192317995  3.6292501557556651 -49.66079074774882  3.6538065619275542 -49.588319774104697  3.6782966815271063 -49.505254275064203  3.7027074708537215 -49.410785248512532  3.7270255389693663 -49.304100079351485  3.7512373645857466 -49.184370873743013  3.7753309002031257 -49.0508120204777  3.7992914741737156 -48.902734767442865  3.8231043751944505 -48.73943635169698  3.8467540318793052 -48.560192252630493  3.870225942837707 -48.364391531626012  3.8935014080007684 -48.151636602161297  3.9165753224530975 -47.921294069251296  3.9393882764357198 -47.673492710708231  3.9626214773716852 -47.399375067783595  3.9860974173987871 -47.098936136402514  4.0097633715298358 -46.770948314119195  4.0335339780597916 -46.414478724965946  4.0573349800819338 -46.028620264751737  4.0810950725685666 -45.613486916918902  4.1047427964792238 -45.169058644665533  4.1282039120639569 -44.6954116239271  4.1514140268133763 -44.19236799774994  4.1743166176021909 -43.661200748745166  4.1968468036841715 -43.103324759821319  4.2189408593806954 -42.520159036281868  4.2405317604094277 -41.912964193553044  4.2615677674106252 -41.284405296900154  4.28199648185399 -40.637575092799295  4.3017716198509355 -39.975141805013891  4.3208134279589352 -39.301057447635692  4.3396065283534382 -38.599246014853527  4.3580662966118071 -37.872289931258749  4.3761966880946046 -37.119879848046409  4.3939772103559864 -36.342488934183756  4.4113926381703399 -35.540352060945537  4.4284296397048397 -34.713993203218592  4.4450757368081195 -33.863986100759412  4.4613174035072625 -32.990888412978741  4.477140389182332 -32.095275493607353  4.4925305266599906 -31.177667999441645  4.5074782329481939 -30.23876007174589  4.5219720909328247 -29.279327019554167  4.5360004530476044 -28.300124153301265  4.5495508562300673 -27.301906678225105  4.5626109526951524 -26.285450601215171  4.5751724823646969 -25.25168117720105  4.5872261471867528 -24.201521724618186  4.5987628739391662 -23.135854168208546  4.6097709862610872 -22.055727943982205  4.6202480290374037 -20.961413530844624  4.6301884049831479 -19.853830092815368  4.6395846995865364 -18.733978511023736  4.6484297415393936 -17.602840349337566  4.6567153858588197 -16.46139272356104  4.6644358593131079 -15.310658731834865  4.67158818681754 -14.15171589072996  4.6781685741467465 -12.985629769713283  4.6841734007773832 -11.813471747924257  4.6895981809145733 -10.636301912916444  4.6944423917489164 -9.4551496412367264  4.6987071153637405 -8.27116080248571  4.7023929215262612 -7.0854575690684207  4.7055005887191887 -5.8991693155107043  4.7080302067007018 -4.7134203050506676  4.7099868868844164 -3.5293641353742897  4.711376855882822 -2.3481606725794695  4.7122060439011655 -1.1709681658958175  4.7123889799902683 -0.38961958854100992  4.7123889803846897 1.7435202233723164e-13 
 102.85957137487492 4 104.0284301404985 1 105.19728890612207 1 106.36614767174565 1 107.53500643736923 1 108.70386520299282 1 109.87272396861638 1 111.04158273423997 1 112.21044149986355 1 113.37930026548713 1 114.5481590311107 1 115.71701779673428 1 116.88587656235786 1 118.05473532798143 1 119.22359409360502 1 120.3924528592286 1 121.56131162485218 1 122.73017039047576 1 123.89902915609933 1 125.06788792172291 1 126.2367466873465 1 127.40560545297006 1 128.57446421859365 1 129.74332298421723 1 130.91218174984081 1 132.08104051546439 1 133.24989928108795 1 134.41875804671153 1 135.58761681233511 1 136.7564755779587 1 137.92533434358228 1 139.09419310920586 1 140.26305187482944 1 141.431910640453 1 142.60076940607661 1 143.76962817170016 1 144.93848693732374 1 146.10734570294733 1 147.27620446857091 1 148.44506323419449 1 149.61392199981807 1 150.78278076544166 1 151.95163953106521 1 153.12049829668879 1 154.28935706231238 1 155.45821582793596 1 156.62707459355954 1 157.79593335918312 1 158.96479212480671 1 160.13365089043026 1 161.30250965605384 1 162.47136842167743 1 163.64022718730101 1 164.80908595292459 1 165.97794471854817 1 167.14680348417176 1 168.31566224979531 1 169.48452101541892 1 170.65337978104247 1 171.82223854666606 1 172.99109731228964 1 174.15995607791322 1 175.3288148435368 1 176.49767360916036 1 177.66653237478397 1 178.83539114040752 1 180.00424990603111 1 181.17310867165469 1 182.34196743727827 1 183.51082620290185 1 184.67968496852541 1 185.84854373414902 1 187.01740249977257 1 188.18626126539618 1 189.35512003101974 1 190.52397879664332 1 191.6928375622669 1 192.86169632789048 1 194.03055509351407 1 195.19941385913762 1 196.36827262476123 1 197.53713139038479 1 198.70599015600837 1 199.87484892163195 1 201.04370768725553 1 202.21256645287912 1 203.38142521850267 1 204.55028398412628 1 205.71914274974984 4
7 0 0  3 91 89  1.5707963267948966 1.7763568394002505e-13  1.570796326440844 -0.38961958854101636  1.5706133890662095 -1.1720850807880416  1.5697800384003584 -2.3540069761516635  1.5683775937995255 -3.5426971677298682  1.5663959574763342 -4.7367005477159569  1.5638248047983536 -5.9345610686936894  1.5606604013484386 -7.1348540002091889  1.5568991852029368 -8.3361577854554074  1.5525376259093959 -9.5370433300105226  1.5475716191751481 -10.736108518493436  1.5420028676895872 -11.932039347943348  1.5358337657859933 -13.123461318084873  1.5290665089832398 -14.309017550172072  1.5217026393384776 -15.487338846455586  1.5137490712468049 -16.657138385975422  1.5052133596293908 -17.817153594453512  1.4961030316362571 -18.966083396475003  1.4864236553292784 -20.102756916145811  1.4761812721969563 -21.226520705494771  1.4653884706675184 -22.336068509733089  1.4540560143959813 -23.430251865577375  1.4421939768201075 -24.507860984103729  1.4298166396260528 -25.56782598539348  1.4169397100025889 -26.609124407045126  1.403578165181234 -27.630727761120706  1.3897457735655709 -28.63158845617399  1.3754591594390699 -29.610872875136117  1.3607379975461473 -30.567737720545377  1.3456007757213626 -31.501349201448075  1.3300650557795481 -32.410831571333503  1.314150977219656 -33.295516421133179  1.297884153444554 -34.154729141125607  1.2812774057737355 -34.988238292730721  1.2643865498925122 -35.794063451557207  1.2466953146537585 -36.595472744725754  1.2283181519681896 -37.385321090903282  1.2092781799900001 -38.160930969519661  1.1896196260500833 -38.918320958666293  1.1693855671567916 -39.654294813796731  1.1486376363478596 -40.36673402226473  1.1274327165629345 -41.053387509713588  1.1058293529436134 -41.711940400366444  1.0838765405155153 -42.340469515805637  1.0616414637789842 -42.938368355870907  1.0391961814290156 -43.504740431997639  1.0166109725426329 -44.038788192981507  0.99395483488144765 -44.539608326581245  0.97130662197977002 -45.00756449519492  0.94874975611893986 -45.443054192012177  0.92635732148687433 -45.846598453879785  0.9042420024244282 -46.218184683754288  0.88185740876707042 -46.56852675378763  0.859295220213115 -46.896634498146909  0.83654696546379725 -47.203382521705393  0.81363032849656947 -47.489150783397051  0.79055505232978274 -47.754433055206903  0.76733329240455372 -47.999923603726344  0.74397653084619109 -48.226340681864301  0.72049590920568396 -48.434397088395066  0.69690242498107469 -48.624800262282697  0.67320529898913406 -48.798284535867232  0.64941301351018721 -48.955719516885935  0.62553583976407923 -49.097928905693941  0.60158330697183038 -49.225751068190981  0.57756474672889813 -49.340010896580189  0.55348910781176819 -49.441573825611364  0.52936511789672935 -49.531302202424023  0.50520176402288153 -49.610038092409667  0.48100686690409461 -49.678631315954995  0.45679202704162697 -49.737920955213859  0.43255033318286445 -49.788793866139017  0.40828762568493898 -49.831995001052022  0.38401195043460784 -49.868274326013967  0.35973074075482286 -49.898376524895887  0.33545147471279885 -49.92306239658982  0.3111814017354132 -49.943032509098927  0.28692791581143234 -49.958849170012762  0.26269858044531819 -49.97110146923356  0.23850105225028295 -49.980363596405823  0.2143429234421933 -49.987242559892245  0.19023023938286865 -49.992185613687219  0.16617127255678998 -49.995529962815418  0.14217420241590459 -49.997639842762268  0.11824750233176873 -49.998866195315664  0.094399701453038165 -49.999586106592851  0.070639526210011294 -49.9999477045437  0.04697621015009848 -50.000057083956598  0.023419349368521764 -50.000031274715987  0.0077924121011685617 -50  0 -50 
 102.85957137487492 4 104.0284301404985 1 105.19728890612207 1 106.36614767174565 1 107.53500643736923 1 108.70386520299282 1 109.87272396861638 1 111.04158273423997 1 112.21044149986355 1 113.37930026548713 1 114.5481590311107 1 115.71701779673428 1 116.88587656235786 1 118.05473532798143 1 119.22359409360502 1 120.3924528592286 1 121.56131162485218 1 122.73017039047576 1 123.89902915609933 1 125.06788792172291 1 126.2367466873465 1 127.40560545297006 1 128.57446421859365 1 129.74332298421723 1 130.91218174984081 1 132.08104051546439 1 133.24989928108795 1 134.41875804671153 1 135.58761681233511 1 136.7564755779587 1 137.92533434358228 1 139.09419310920586 1 140.26305187482944 1 141.431910640453 1 142.60076940607661 1 143.76962817170016 1 144.93848693732374 1 146.10734570294733 1 147.27620446857091 1 148.44506323419449 1 149.61392199981807 1 150.78278076544166 1 151.95163953106521 1 153.12049829668879 1 154.28935706231238 1 155.45821582793596 1 156.62707459355954 1 157.79593335918312 1 158.96479212480671 1 160.13365089043026 1 161.30250965605384 1 162.47136842167743 1 163.64022718730101 1 164.80908595292459 1 165.97794471854817 1 167.14680348417176 1 168.31566224979531 1 169.48452101541892 1 170.65337978104247 1 171.82223854666606 1 172.99109731228964 1 174.15995607791322 1 175.3288148435368 1 176.49767360916036 1 177.66653237478397 1 178.83539114040752 1 180.00424990603111 1 181.17310867165469 1 182.34196743727827 1 183.51082620290185 1 184.67968496852541 1 185.84854373414902 1 187.01740249977257 1 188.18626126539618 1 189.35512003101974 1 190.52397879664332 1 191.6928375622669 1 192.86169632789048 1 194.03055509351407 1 195.19941385913762 1 196.36827262476123 1 197.53713139038479 1 198.70599015600837 1 199.87484892163195 1 201.04370768725553 1 202.21256645287912 1 203.38142521850267 1 204.55028398412628 1 205.71914274974984 4
7 0 0  3 91 89  4.7123889803846897 1.7457406694215667e-13  4.7123889799902683 0.38961958854136841  4.7122060439011655 1.1709681658961759  4.7113768558828237 2.3481606725798372  4.7099868868844155 3.5293641353746454  4.7080302067007018 4.7134203050510202  4.7055005887191887 5.8991693155110481  4.7023929215262621 7.0854575690687653  4.6987071153637405 8.2711608024860546  4.6944423917489155 9.4551496412370692  4.6895981809145733 10.636301912916796  4.6841734007773841 11.813471747924606  4.6781685741467447 12.985629769713627  4.67158818681754 14.151715890730294  4.6644358593131088 15.310658731835192  4.6567153858588188 16.461392723561364  4.6484297415393936 17.602840349337892  4.6395846995865364 18.733978511024063  4.6301884049831488 19.853830092815691  4.6202480290374037 20.961413530844947  4.6097709862610872 22.055727943982504  4.5987628739391644 23.135854168208848  4.5872261471867528 24.201521724618491  4.5751724823646978 25.251681177201359  4.5626109526951515 26.285450601215487  4.5495508562300682 27.301906678225397  4.5360004530476052 28.300124153301574  4.5219720909328238 29.279327019554465  4.5074782329481939 30.238760071746178  4.4925305266599915 31.177667999441944  4.4771403891823338 32.095275493607645  4.4613174035072625 32.990888412979039  4.4450757368081213 33.863986100759718  4.4284296397048406 34.713993203218905  4.411392638170339 35.540352060945807  4.3939772103559891 36.34248893418404  4.3761966880946064 37.119879848046715  4.3580662966118071 37.872289931259033  4.3396065283534391 38.599246014853811  4.3208134279589379 39.301057447635991  4.3017716198509355 39.975141805014189  4.2819964818539926 40.637575092799594  4.2615677674106243 41.284405296900431  4.2405317604094286 41.912964193553336  4.2189408593806945 42.520159036282145  4.1968468036841742 43.103324759821582  4.1743166176021917 43.661200748745443  4.1514140268133755 44.192367997750218  4.1282039120639578 44.695411623927342  4.1047427964792238 45.16905864466581  4.0810950725685657 45.613486916919165  4.0573349800819347 46.028620264751979  4.0335339780597925 46.414478724966195  4.0097633715298366 46.770948314119437  3.986097417398788 47.098936136402756  3.9626214773716861 47.399375067783822  3.9393882764357202 47.673492710708501  3.916575322453097 47.921294069251523  3.8935014080007675 48.151636602161524  3.8702259428377079 48.364391531626254  3.8467540318793052 48.560192252630721  3.8231043751944518 48.739436351697201  3.7992914741737147 48.902734767443071  3.7753309002031274 49.05081202047792  3.7512373645857475 49.184370873743198  3.7270255389693663 49.304100079351677  3.702707470853722 49.410785248512688  3.6782966815271063 49.505254275064395  3.653806561927555 49.588319774104889  3.6292501557556647 49.660790747748997  3.6046400264068534 49.723513192318158  3.5799888806905931 49.777301284666031  3.5553084901784171 49.822966247966946  3.530613929321921 49.861315660862218  3.5059052973679123 49.893179446587808  3.4811919302663989 49.919258818855504  3.45648637306499 49.940256821022025  3.4318003477311598 49.956878616860607  3.4071456453561657 49.969819675539149  3.3825341721197391 49.979603733569043  3.357978082134998 49.986764121937497  3.3334900514258519 49.991835555729885  3.3090814470891572 49.995337567382997  3.2847645491435995 49.997577513103778  3.2605527806921542 49.998874222888816  3.2364597539212281 49.999547281872537  3.2124993298295657 49.9999016937523  3.1886858530337339 50.000026456749545  3.1650343284438023 50.000022785888895  3.1493850829161705 50  3.1415926535897931 50 
 205.71914274974984 4 206.88800151537342 1 208.056860280997 1 209.22571904662058 1 210.39457781224414 1 211.56343657786772 1 212.7322953434913 1 213.90115410911488 1 215.07001287473847 1 216.23887164036205 1 217.40773040598563 1 218.57658917160921 1 219.74544793723277 1 220.91430670285635 1 222.08316546847993 1 223.25202423410352 1 224.4208829997271 1 225.58974176535068 1 226.75860053097426 1 227.92745929659782 1 229.0963180622214 1 230.26517682784498 1 231.43403559346856 1 232.60289435909215 1 233.77175312471573 1 234.94061189033931 1 236.10947065596287 1 237.27832942158645 1 238.44718818721003 1 239.61604695283361 1 240.7849057184572 1 241.95376448408078 1 243.12262324970436 1 244.29148201532792 1 245.46034078095153 1 246.62919954657508 1 247.79805831219866 1 248.96691707782225 1 250.13577584344583 1 251.30463460906941 1 252.47349337469299 1 253.64235214031658 1 254.81121090594013 1 255.98006967156371 1 257.14892843718729 1 258.31778720281091 1 259.48664596843446 1 260.65550473405801 1 261.82436349968162 1 262.99322226530518 1 264.16208103092879 1 265.33093979655234 1 266.4997985621759 1 267.66865732779951 1 268.83751609342306 1 270.00637485904667 1 271.17523362467023 1 272.34409239029384 1 273.51295115591739 1 274.681809921541 1 275.85066868716456 1 277.01952745278811 1 278.18838621841172 1 279.35724498403528 1 280.52610374965889 1 281.69496251528244 1 282.863821280906 1 284.03268004652961 1 285.20153881215322 1 286.37039757777677 1 287.53925634340033 1 288.70811510902394 1 289.87697387464749 1 291.0458326402711 1 292.21469140589465 1 293.38355017151821 1 294.55240893714182 1 295.72126770276543 1 296.89012646838898 1 298.05898523401254 1 299.22784399963615 1 300.3967027652597 1 301.56556153088331 1 302.73442029650687 1 303.90327906213042 1 305.07213782775403 1 306.24099659337759 1 307.4098553590012 1 308.57871412462475 4
7 0 0  3 91 89  6.2831853071795862 -50  6.2753928950784177 -50  6.2597659578110632 -50.000031274715994  6.2362090970294881 -50.000057083956634  6.2125457809695748 -49.999947704543722  6.1887856057265465 -49.999586106592872  6.1649378048478169 -49.998866195315713  6.1410111047636819 -49.997639842762311  6.1170140346227955 -49.995529962815461  6.0929550677967192 -49.992185613687283  6.0688423837373922 -49.98724255989233  6.0446842549293027 -49.980363596405923  6.0204867267342674 -49.971101469233645  5.9962573913681547 -49.958849170012861  5.9720039054441738 -49.943032509099041  5.9477338324667866 -49.923062396589927  5.9234545664247644 -49.898376524896008  5.8991733567449778 -49.868274326014088  5.8748976814946472 -49.831995001052164  5.8506349739967218 -49.788793866139152  5.8263932801379603 -49.737920955214022  5.8021784402754903 -49.678631315955137  5.7779835431567061 -49.610038092409837  5.7538201892828571 -49.531302202424193  5.7296961993678179 -49.441573825611542  5.70562056045069 -49.340010896580381  5.6816020002077572 -49.225751068191158  5.6576494674155065 -49.097928905694154  5.6337722936694004 -48.955719516886148  5.6099800081904538 -48.798284535867474  5.5862828821985122 -48.624800262282932  5.5626893979739025 -48.434397088395308  5.539208776333397 -48.226340681864542  5.5158520147750343 -47.999923603726607  5.4926302548498036 -47.75443305520713  5.4695549786830187 -47.489150783397328  5.44663834171579 -47.203382521705649  5.4238900869664723 -46.896634498147186  5.4013278984125161 -46.568526753787907  5.3789433047551585 -46.218184683754593  5.3568279856927123 -45.846598453880077  5.3344355510606469 -45.443054192012482  5.3118786851998161 -45.007564495195197  5.28923047229814 -44.539608326581572  5.2665743346369531 -44.038788192981805  5.2439891257505709 -43.504740431997966  5.2215438434006014 -42.938368355871233  5.1993087666640729 -42.340469515805964  5.1773559542359706 -41.711940400366757  5.1557525906166539 -41.053387509713907  5.1345476708317266 -40.366734022265042  5.1137997400227944 -39.654294813797065  5.0935656811295029 -38.918320958666634  5.0739071271895844 -38.160930969520003  5.0548671552113991 -37.385321090903645  5.0364899925258264 -36.595472744726088  5.018798757287076 -35.794063451557562  5.0019079014058496 -34.988238292731062  4.9853011537350325 -34.154729141125955  4.9690343299599311 -33.295516421133527  4.9531202514000361 -32.410831571333844  4.9375845314582252 -31.501349201448448  4.9224473096334362 -30.567737720545747  4.9077261477405179 -29.610872875136501  4.8934395336140142 -28.631588456174342  4.8796071419983535 -27.630727761121047  4.8662455971769951 -26.609124407045488  4.853368667553533 -25.567825985393849  4.8409913303594783 -24.507860984104088  4.8291292927836054 -23.430251865577727  4.817796836512068 -22.33606850973343  4.8070040349826266 -21.226520705495123  4.796761651850308 -20.10275691614617  4.7870822755433267 -18.966083396475341  4.7779719475501965 -17.81715359445386  4.7694362359327798 -16.657138385975781  4.7614826678411077 -15.487338846455943  4.7541187981963473 -14.309017550172427  4.7473515413935932 -13.123461318085205  4.7411824394899984 -11.932039347943691  4.7356136880044373 -10.736108518493776  4.7306476812701908 -9.5370433300108655  4.7262861219766474 -8.3361577854557378  4.7225249058311478 -7.1348540002095246  4.7193605023812317 -5.9345610686940296  4.7167893497032516 -4.7367005477163024  4.7148077133800621 -3.5426971677302252  4.7134052687792263 -2.3540069761520077  4.7125719181133769 -1.1720850807883918  4.7123889807387416 -0.38961958854136192  4.7123889803846897 -1.7763568394002505e-13 
 205.71914274974984 4 206.88800151537342 1 208.056860280997 1 209.22571904662058 1 210.39457781224414 1 211.56343657786772 1 212.7322953434913 1 213.90115410911488 1 215.07001287473847 1 216.23887164036205 1 217.40773040598563 1 218.57658917160921 1 219.74544793723277 1 220.91430670285635 1 222.08316546847993 1 223.25202423410352 1 224.4208829997271 1 225.58974176535068 1 226.75860053097426 1 227.92745929659782 1 229.0963180622214 1 230.26517682784498 1 231.43403559346856 1 232.60289435909215 1 233.77175312471573 1 234.94061189033931 1 236.10947065596287 1 237.27832942158645 1 238.44718818721003 1 239.61604695283361 1 240.7849057184572 1 241.95376448408078 1 243.12262324970436 1 244.29148201532792 1 245.46034078095153 1 246.62919954657508 1 247.79805831219866 1 248.96691707782225 1 250.13577584344583 1 251.30463460906941 1 252.47349337469299 1 253.64235214031658 1 254.81121090594013 1 255.98006967156371 1 257.14892843718729 1 258.31778720281091 1 259.48664596843446 1 260.65550473405801 1 261.82436349968162 1 262.99322226530518 1 264.16208103092879 1 265.33093979655234 1 266.4997985621759 1 267.66865732779951 1 268.83751609342306 1 270.00637485904667 1 271.17523362467023 1 272.34409239029384 1 273.51295115591739 1 274.681809921541 1 275.85066868716456 1 277.01952745278811 1 278.18838621841172 1 279.35724498403528 1 280.52610374965889 1 281.69496251528244 1 282.863821280906 1 284.03268004652961 1 285.20153881215322 1 286.37039757777677 1 287.53925634340033 1 288.70811510902394 1 289.87697387464749 1 291.0458326402711 1 292.21469140589465 1 293.38355017151821 1 294.55240893714182 1 295.72126770276543 1 296.89012646838898 1 298.05898523401254 1 299.22784399963615 1 300.3967027652597 1 301.56556153088331 1 302.73442029650687 1 303.90327906213042 1 305.07213782775403 1 306.24099659337759 1 307.4098553590012 1 308.57871412462475 4
7 0 0  3 91 89  3.1415926535897931 50  3.1338002242634153 49.999999999999986  3.1181509787357835 50.000022785888866  3.0944994541458528 50.000026456749552  3.0706859773500206 49.999901693752243  3.046725553258359 49.99954728187253  3.0226325264874299 49.998874222888766  2.9984207580359872 49.997577513103728  2.9741038600904282 49.995337567382947  2.9496952557537344 49.9918355557298  2.9252072250445864 49.986764121937448  2.900651135059845 49.979603733568936  2.876039661823421 49.969819675539085  2.851384959448426 49.956878616860465  2.8266989341145958 49.940256821021933  2.801993376913186 49.919258818855397  2.7772800098116739 49.893179446587681  2.7525713778576626 49.861315660862118  2.72787681700117 49.822966247966797  2.7031964264889914 49.777301284665896  2.678545280772731 49.723513192317981  2.6539351514239211 49.660790747748834  2.6293787452520299 49.588319774104697  2.6048886256524786 49.505254275064232  2.5804778363258629 49.410785248512504  2.5561597682102195 49.3041000793515  2.5319479425938374 49.184370873742992  2.5078544069764592 49.050812020477693  2.4838938330058697 48.90273476744288  2.4600809319851331 48.739436351696973  2.4364312753002819 48.560192252630507  2.4129593643418765 48.364391531626026  2.3896838991788187 48.151636602161282  2.366609984726487 47.921294069251289  2.343797030743866 47.673492710708231  2.3205638298078983 47.399375067783573  2.2970878897807978 47.098936136402486  2.2734219356497496 46.770948314119195  2.2496513291197915 46.414478724965903  2.2258503270976515 46.028620264751737  2.2020902346110174 45.613486916918866  2.1784425107003624 45.169058644665505  2.1549813951156267 44.695411623927079  2.1317712803662086 44.192367997749898  2.108868689577394 43.661200748745152  2.0863385034954121 43.103324759821277  2.0642444477988899 42.520159036281832  2.0426535467701572 41.912964193553009  2.0216175397689602 41.284405296900125  2.0011888253255941 40.637575092799267  1.9814136873286503 39.975141805013855  1.962371879220649 39.301057447635685  1.9435787788261472 38.599246014853492  1.9251190105677802 37.872289931258749  1.9069886190849803 37.119879848046381  1.8892080968235985 36.342488934183741  1.8717926690092461 35.540352060945509  1.8547556674747459 34.713993203218571  1.8381095703714654 33.863986100759377  1.8218679036723242 32.990888412978698  1.8060449179972522 32.095275493607325  1.7906547805195951 31.177667999441613  1.7757070742313923 30.23876007174588  1.7612132162467622 29.279327019554128  1.7471848541319803 28.300124153301255  1.7336344509495183 27.301906678225059  1.7205743544844334 26.285450601215153  1.7080128248148887 25.251681177201021  1.6959591599928321 24.201521724618157  1.6844224332404218 23.135854168208532  1.6734143209184986 22.055727943982181  1.6629372781421827 20.961413530844638  1.6529969021964379 19.853830092815343  1.6436006075930489 18.733978511023743  1.6347555656401931 17.602840349337548  1.6264699213207663 16.46139272356104  1.6187494478664777 15.310658731834854  1.6115971203620463 14.151715890729955  1.6050167330328404 12.985629769713295  1.5990119064022017 11.813471747924259  1.5935871262650128 10.636301912916478  1.58874291543067 9.45514964123673  1.5844781918158457 8.2711608024857313  1.5807923856533237 7.0854575690684243  1.5776847184603979 5.8991693155107212  1.5751551004788842 4.7134203050506711  1.5731984202951697 3.5293641353742973  1.5718084512967636 2.3481606725794877  1.5709792632784205 1.1709681658958373  1.5707963271893186 0.38961958854102974  1.5707963267948966 -1.7501815615200673e-13 
 308.57871412462475 4 309.74757289024831 1 310.91643165587192 1 312.08529042149547 1 313.25414918711908 1 314.42300795274264 1 315.59186671836625 1 316.7607254839898 1 317.92958424961341 1 319.09844301523697 1 320.26730178086052 1 321.43616054648413 1 322.60501931210769 1 323.7738780777313 1 324.94273684335485 1 326.11159560897846 1 327.28045437460202 1 328.44931314022563 1 329.61817190584918 1 330.78703067147273 1 331.95588943709635 1 333.1247482027199 1 334.29360696834351 1 335.46246573396706 1 336.63132449959068 1 337.80018326521423 1 338.96904203083784 1 340.13790079646139 1 341.30675956208495 1 342.47561832770856 1 343.64447709333211 1 344.81333585895572 1 345.98219462457928 1 347.15105339020289 1 348.31991215582644 1 349.48877092145005 1 350.65762968707361 1 351.82648845269716 1 352.99534721832077 1 354.16420598394433 1 355.33306474956794 1 356.50192351519149 1 357.67078228081505 1 358.83964104643866 1 360.00849981206221 1 361.17735857768582 1 362.34621734330938 1 363.51507610893299 1 364.68393487455654 1 365.85279364018015 1 367.02165240580371 1 368.19051117142726 1 369.35936993705087 1 370.52822870267443 1 371.69708746829804 1 372.86594623392159 1 374.0348049995452 1 375.20366376516876 1 376.37252253079237 1 377.54138129641592 1 378.71024006203947 1 379.87909882766309 1 381.04795759328664 1 382.21681635891025 1 383.3856751245338 1 384.55453389015742 1 385.72339265578097 1 386.89225142140458 1 388.06111018702813 1 389.22996895265169 1 390.3988277182753 1 391.56768648389885 1 392.73654524952246 1 393.90540401514602 1 395.07426278076963 1 396.24312154639318 1 397.41198031201679 1 398.58083907764035 1 399.7496978432639 1 400.91855660888751 1 402.08741537451107 1 403.25627414013468 1 404.42513290575823 1 405.59399167138184 1 406.7628504370054 1 407.93170920262901 1 409.10056796825256 1 410.26942673387612 1 411.43828549949973 4
7 0 0  3 91 89  4.7123889803846897 -1.7763568394002505e-13  4.7123889807387416 0.38961958854100703  4.7125719181133769 1.1720850807880374  4.7134052687792281 2.3540069761516564  4.7148077133800594 3.5426971677298766  4.7167893497032534 4.7367005477159587  4.7193605023812308 5.9345610686937063  4.7225249058311496 7.1348540002092031  4.7262861219766492 8.3361577854554394  4.7306476812701908 9.5370433300105404  4.735613688004439 10.736108518493458  4.7411824394899984 11.932039347943364  4.7473515413935932 13.123461318084887  4.7541187981963464 14.309017550172095  4.7614826678411077 15.487338846455613  4.7694362359327798 16.657138385975458  4.7779719475501965 17.817153594453547  4.7870822755433284 18.966083396475046  4.7967616518503071 20.102756916145839  4.8070040349826302 21.22652070549481  4.8177968365120671 22.336068509733106  4.8291292927836054 23.430251865577407  4.8409913303594783 24.507860984103761  4.8533686675535339 25.567825985393526  4.8662455971769978 26.609124407045169  4.8796071419983527 27.630727761120735  4.8934395336140151 28.631588456174036  4.907726147740517 29.610872875136163  4.9224473096334389 30.567737720545423  4.9375845314582225 31.501349201448097  4.9531202514000405 32.410831571333532  4.9690343299599293 33.295516421133208  4.9853011537350334 34.154729141125628  5.0019079014058505 34.988238292730756  5.0187987572870743 35.794063451557236  5.0364899925258282 36.595472744725789  5.0548671552113973 37.385321090903325  5.073907127189587 38.160930969519697  5.093565681129502 38.918320958666342  5.113799740022797 39.654294813796781  5.1345476708317266 40.366734022264765  5.155752590616653 41.053387509713609  5.1773559542359742 41.711940400366473  5.199308766664072 42.340469515805665  5.2215438434006032 42.938368355870956  5.2439891257505726 43.504740431997675  5.2665743346369531 44.038788192981549  5.28923047229814 44.539608326581273  5.3118786851998179 45.007564495194934  5.334435551060646 45.443054192012198  5.3568279856927123 45.846598453879793  5.3789433047551585 46.218184683754309  5.4013278984125153 46.568526753787609  5.4238900869664723 46.896634498146931  5.4466383417157891 47.203382521705393  5.4695549786830187 47.489150783397065  5.4926302548498036 47.754433055206917  5.5158520147750343 47.999923603726359  5.5392087763333944 48.226340681864293  5.5626893979739043 48.434397088395073  5.5862828821985131 48.624800262282683  5.6099800081904512 48.798284535867232  5.6337722936694004 48.955719516885935  5.6576494674155056 49.097928905693934  5.6816020002077563 49.225751068190995  5.7056205604506873 49.340010896580168  5.7296961993678188 49.441573825611371  5.7538201892828571 49.53130220242403  5.7779835431567044 49.61003809240966  5.8021784402754921 49.678631315954981  5.8263932801379559 49.737920955213852  5.8506349739967236 49.788793866139031  5.8748976814946463 49.831995001052007  5.8991733567449787 49.868274326013982  5.9234545664247635 49.898376524895873  5.9477338324667874 49.923062396589835  5.9720039054441729 49.943032509098927  5.9962573913681547 49.958849170012769  6.0204867267342674 49.971101469233552  6.0446842549293009 49.980363596405816  6.068842383737393 49.987242559892266  6.0929550677967166 49.992185613687198  6.1170140346227955 49.995529962815418  6.1410111047636811 49.997639842762254  6.1649378048478178 49.998866195315671  6.1887856057265473 49.99958610659283  6.2125457809695748 49.9999477045437  6.2362090970294872 50.000057083956612  6.2597659578110623 50.000031274715965  6.2753928950784168 50.000000000000007  6.2831853071795862 50 
 308.57871412462475 4 309.74757289024831 1 310.91643165587192 1 312.08529042149547 1 313.25414918711908 1 314.42300795274264 1 315.59186671836625 1 316.7607254839898 1 317.92958424961341 1 319.09844301523697 1 320.26730178086052 1 321.43616054648413 1 322.60501931210769 1 323.7738780777313 1 324.94273684335485 1 326.11159560897846 1 327.28045437460202 1 328.44931314022563 1 329.61817190584918 1 330.78703067147273 1 331.95588943709635 1 333.1247482027199 1 334.29360696834351 1 335.46246573396706 1 336.63132449959068 1 337.80018326521423 1 338.96904203083784 1 340.13790079646139 1 341.30675956208495 1 342.47561832770856 1 343.64447709333211 1 344.81333585895572 1 345.98219462457928 1 347.15105339020289 1 348.31991215582644 1 349.48877092145005 1 350.65762968707361 1 351.82648845269716 1 352.99534721832077 1 354.16420598394433 1 355.33306474956794 1 356.50192351519149 1 357.67078228081505 1 358.83964104643866 1 360.00849981206221 1 361.17735857768582 1 362.34621734330938 1 363.51507610893299 1 364.68393487455654 1 365.85279364018015 1 367.02165240580371 1 368.19051117142726 1 369.35936993705087 1 370.52822870267443 1 371.69708746829804 1 372.86594623392159 1 374.0348049995452 1 375.20366376516876 1 376.37252253079237 1 377.54138129641592 1 378.71024006203947 1 379.87909882766309 1 381.04795759328664 1 382.21681635891025 1 383.3856751245338 1 384.55453389015742 1 385.72339265578097 1 386.89225142140458 1 388.06111018702813 1 389.22996895265169 1 390.3988277182753 1 391.56768648389885 1 392.73654524952246 1 393.90540401514602 1 395.07426278076963 1 396.24312154639318 1 397.41198031201679 1 398.58083907764035 1 399.7496978432639 1 400.91855660888751 1 402.08741537451107 1 403.25627414013468 1 404.42513290575823 1 405.59399167138184 1 406.7628504370054 1 407.93170920262901 1 409.10056796825256 1 410.26942673387612 1 411.43828549949973 4
7 0 0  3 91 89  1.5707963267948966 -1.7457406694215667e-13  1.5707963271893184 -0.38961958854136752  1.5709792632784212 -1.1709681658961721  1.5718084512967629 -2.3481606725798279  1.5731984202951699 -3.5293641353746423  1.5751551004788842 -4.7134203050510246  1.5776847184603973 -5.8991693155110543  1.5807923856533241 -7.0854575690687653  1.5844781918158457 -8.271160802486051  1.5887429154306703 -9.4551496412370639  1.5935871262650123 -10.636301912916784  1.5990119064022024 -11.813471747924586  1.6050167330328402 -12.985629769713615  1.6115971203620469 -14.151715890730289  1.6187494478664779 -15.310658731835181  1.6264699213207654 -16.461392723561364  1.6347555656401935 -17.602840349337875  1.643600607593048 -18.733978511024052  1.6529969021964388 -19.853830092815663  1.6629372781421818 -20.961413530844929  1.6734143209184991 -22.055727943982497  1.6844224332404218 -23.135854168208848  1.6959591599928321 -24.201521724618487  1.7080128248148887 -25.251681177201352  1.7205743544844336 -26.285450601215484  1.7336344509495178 -27.301906678225382  1.7471848541319801 -28.300124153301564  1.7612132162467613 -29.279327019554451  1.7757070742313918 -30.238760071746196  1.7906547805195958 -31.177667999441944  1.806044917997252 -32.095275493607652  1.821867903672324 -32.990888412979032  1.8381095703714661 -33.863986100759718  1.8547556674747452 -34.713993203218898  1.8717926690092455 -35.540352060945807  1.8892080968235987 -36.342488934184061  1.9069886190849796 -37.1198798480467  1.9251190105677793 -37.872289931259054  1.9435787788261469 -38.599246014853811  1.962371879220649 -39.301057447636005  1.9814136873286492 -39.975141805014175  2.0011888253255949 -40.63757509279958  2.0216175397689597 -41.284405296900424  2.0426535467701572 -41.912964193553314  2.064244447798889 -42.520159036282152  2.0863385034954116 -43.103324759821561  2.1088686895773932 -43.661200748745408  2.131771280366209 -44.192367997750203  2.1549813951156263 -44.69541162392732  2.1784425107003611 -45.169058644665768  2.2020902346110183 -45.61348691691915  2.2258503270976502 -46.028620264751979  2.2496513291197928 -46.414478724966195  2.2734219356497483 -46.770948314119458  2.2970878897807987 -47.098936136402749  2.3205638298078992 -47.399375067783829  2.3437970307438647 -47.673492710708466  2.3666099847264888 -47.921294069251552  2.3896838991788183 -48.151636602161524  2.4129593643418765 -48.364391531626246  2.4364312753002806 -48.560192252630721  2.4600809319851336 -48.739436351697179  2.4838938330058697 -48.9027347674431  2.5078544069764597 -49.05081202047792  2.5319479425938378 -49.184370873743219  2.5561597682102195 -49.304100079351684  2.5804778363258642 -49.41078524851271  2.6048886256524781 -49.505254275064402  2.6293787452520303 -49.588319774104868  2.6539351514239211 -49.660790747749004  2.6785452807727319 -49.723513192318158  2.7031964264889923 -49.777301284666031  2.7278768170011691 -49.822966247966932  2.7525713778576644 -49.861315660862253  2.7772800098116739 -49.893179446587801  2.801993376913186 -49.919258818855518  2.8266989341145949 -49.940256821022032  2.8513849594484277 -49.956878616860578  2.8760396618234201 -49.969819675539149  2.9006511350598463 -49.979603733569029  2.9252072250445873 -49.986764121937526  2.9496952557537339 -49.991835555729857  2.9741038600904286 -49.995337567383004  2.9984207580359858 -49.997577513103757  3.0226325264874316 -49.998874222888837  3.0467255532583581 -49.999547281872552  3.0706859773500206 -49.999901693752278  3.0944994541458519 -50.000026456749538  3.1181509787357835 -50.000022785888902  3.1338002242634153 -49.999999999999993  3.1415926535897931 -50 
 0 4 1.1688587656235787 1 2.3377175312471574 1 3.5065762968707359 1 4.6754350624943148 1 5.8442938281178938 1 7.0131525937414718 1 8.1820113593650508 1 9.3508701249886297 1 10.519728890612209 1 11.688587656235788 1 12.857446421859366 1 14.026305187482944 1 15.195163953106523 1 16.364022718730102 1 17.53288148435368 1 18.701740249977259 1 19.870599015600838 1 21.039457781224417 1 22.208316546847996 1 23.377175312471575 1 24.546034078095154 1 25.714892843718733 1 26.883751609342312 1 28.052610374965887 1 29.221469140589466 1 30.390327906213045 1 31.559186671836624 1 32.728045437460203 1 33.896904203083785 1 35.065762968707361 1 36.234621734330943 1 37.403480499954519 1 38.572339265578094 1 39.741198031201677 1 40.910056796825252 1 42.078915562448834 1 43.24777432807241 1 44.416633093695992 1 45.585491859319568 1 46.75435062494315 1 47.923209390566726 1 49.092068156190308 1 50.260926921813883 1 51.429785687437466 1 52.598644453061041 1 53.767503218684624 1 54.936361984308199 1 56.105220749931775 1 57.274079515555357 1 58.442938281178932 1 59.611797046802515 1 60.78065581242609 1 61.949514578049673 1 63.118373343673248 1 64.287232109296824 1 65.456090874920406 1 66.624949640543988 1 67.793808406167571 1 68.962667171791139 1 70.131525937414722 1 71.300384703038304 1 72.469243468661887 1 73.638102234285455 1 74.806960999909037 1 75.97581976553262 1 77.144678531156188 1 78.313537296779771 1 79.482396062403353 1 80.651254828026936 1 81.820113593650504 1 82.988972359274086 1 84.157831124897669 1 85.326689890521251 1 86.49554865614482 1 87.664407421768402 1 88.833266187391985 1 90.002124953015567 1 91.170983718639135 1 92.339842484262718 1 93.5087012498863 1 94.677560015509869 1 95.846418781133451 1 97.015277546757034 1 98.184136312380616 1 99.352995078004184 1 100.52185384362777 1 101.69071260925135 1 102.85957137487492 4
7 0 0  3 91 89  0 50  0.0077924121011687282 50.000000000000007  0.023419349368521868 50.000031274716001  0.04697621015009866 50.000057083956612  0.070639526210011377 49.999947704543736  0.09439970145303829 49.999586106592872  0.11824750233176877 49.998866195315713  0.14217420241590448 49.997639842762325  0.16617127255678982 49.995529962815468  0.19023023938286851 49.992185613687283  0.21434292344219319 49.98724255989233  0.23850105225028267 49.980363596405915  0.26269858044531791 49.971101469233652  0.28692791581143212 49.958849170012876  0.31118140173541264 49.943032509099041  0.33545147471279829 49.923062396589927  0.35973074075482203 49.898376524896001  0.38401195043460729 49.868274326014109  0.40828762568493787 49.83199500105215  0.43255033318286362 49.788793866139166  0.45679202704162591 49.737920955214008  0.48100686690409383 49.678631315955144  0.50520176402288064 49.610038092409837  0.52936511789672835 49.531302202424207  0.55348910781176741 49.441573825611556  0.57756474672889668 49.340010896580374  0.60158330697182949 49.22575106819118  0.62553583976407789 49.097928905694161  0.6494130135101861 48.955719516886163  0.67320529898913306 48.798284535867481  0.69690242498107369 48.624800262282925  0.72049590920568285 48.434397088395308  0.74397653084618987 48.226340681864535  0.76733329240455272 47.999923603726614  0.79055505232978129 47.754433055207151  0.81363032849656869 47.489150783397342  0.83654696546379603 47.20338252170567  0.85929522021311411 46.896634498147193  0.88185740876706908 46.5685267537879  0.9042420024244272 46.218184683754608  0.92635732148687278 45.846598453880063  0.94874975611893908 45.44305419201249  0.97130662197976836 45.007564495195211  0.99395483488144631 44.539608326581586  1.0166109725426311 44.038788192981848  1.0391961814290138 43.504740431997988  1.0616414637789819 42.938368355871269  1.0838765405155135 42.340469515805999  1.1058293529436114 41.7119404003668  1.1274327165629323 41.053387509713922  1.1486376363478581 40.366734022265099  1.1693855671567899 39.654294813797094  1.1896196260500824 38.918320958666683  1.2092781799899985 38.160930969520031  1.2283181519681889 37.385321090903652  1.2466953146537574 36.595472744726116  1.2643865498925118 35.794063451557555  1.2812774057737353 34.988238292731097  1.2978841534445531 34.154729141125969  1.3141509772196556 33.295516421133549  1.3300650557795477 32.410831571333873  1.3456007757213622 31.501349201448445  1.3607379975461475 30.567737720545765  1.3754591594390695 29.610872875136494  1.3897457735655705 28.631588456174359  1.4035781651812334 27.630727761121062  1.4169397100025887 26.609124407045496  1.4298166396260525 25.567825985393856  1.4421939768201069 24.507860984104084  1.4540560143959818 23.430251865577748  1.465388470667518 22.336068509733447  1.4761812721969565 21.226520705495144  1.4864236553292784 20.102756916146166  1.4961030316362571 18.966083396475369  1.5052133596293913 17.817153594453874  1.5137490712468045 16.657138385975784  1.5217026393384783 15.487338846455943  1.5290665089832394 14.309017550172433  1.5358337657859933 13.123461318085226  1.5420028676895869 11.932039347943709  1.5475716191751483 10.736108518493792  1.5525376259093957 9.5370433300108708  1.556899185202937 8.3361577854557627  1.5606604013484382 7.134854000209538  1.5638248047983547 5.9345610686940367  1.5663959574763342 4.7367005477163033  1.5683775937995257 3.5426971677302164  1.5697800384003584 2.3540069761520139  1.5706133890662095 1.1720850807883916  1.570796326440844 0.38961958854136641  1.5707963267948968 1.7741363933510002e-13 
 0 4 1.1688587656235787 1 2.3377175312471574 1 3.5065762968707359 1 4.6754350624943148 1 5.8442938281178938 1 7.0131525937414718 1 8.1820113593650508 1 9.3508701249886297 1 10.519728890612209 1 11.688587656235788 1 12.857446421859366 1 14.026305187482944 1 15.195163953106523 1 16.364022718730102 1 17.53288148435368 1 18.701740249977259 1 19.870599015600838 1 21.039457781224417 1 22.208316546847996 1 23.377175312471575 1 24.546034078095154 1 25.714892843718733 1 26.883751609342312 1 28.052610374965887 1 29.221469140589466 1 30.390327906213045 1 31.559186671836624 1 32.728045437460203 1 33.896904203083785 1 35.065762968707361 1 36.234621734330943 1 37.403480499954519 1 38.572339265578094 1 39.741198031201677 1 40.910056796825252 1 42.078915562448834 1 43.24777432807241 1 44.416633093695992 1 45.585491859319568 1 46.75435062494315 1 47.923209390566726 1 49.092068156190308 1 50.260926921813883 1 51.429785687437466 1 52.598644453061041 1 53.767503218684624 1 54.936361984308199 1 56.105220749931775 1 57.274079515555357 1 58.442938281178932 1 59.611797046802515 1 60.78065581242609 1 61.949514578049673 1 63.118373343673248 1 64.287232109296824 1 65.456090874920406 1 66.624949640543988 1 67.793808406167571 1 68.962667171791139 1 70.131525937414722 1 71.300384703038304 1 72.469243468661887 1 73.638102234285455 1 74.806960999909037 1 75.97581976553262 1 77.144678531156188 1 78.313537296779771 1 79.482396062403353 1 80.651254828026936 1 81.820113593650504 1 82.988972359274086 1 84.157831124897669 1 85.326689890521251 1 86.49554865614482 1 87.664407421768402 1 88.833266187391985 1 90.002124953015567 1 91.170983718639135 1 92.339842484262718 1 93.5087012498863 1 94.677560015509869 1 95.846418781133451 1 97.015277546757034 1 98.184136312380616 1 99.352995078004184 1 100.52185384362777 1 101.69071260925135 1 102.85957137487492 4
7 0 0  3 25 23  0 50  0.095199777381508907 49.999999999999993  0.28559933214452665 50  0.57119866428905319 49.999999999999993  0.85679799643358012 50.000000000000007  1.1423973285781066 50  1.4279966607226329 49.999999999999993  1.7135959928671598 50  1.9991953250116865 50  2.2847946571562132 50  2.5703939893007401 50  2.8559933214452662 50  3.1415926535897931 50.000000000000007  3.4271919857343192 50  3.7127913178788461 49.999999999999993  3.9983906500233721 49.999999999999986  4.2839899821679008 50.000000000000007  4.5695893143124255 49.999999999999993  4.8551886464569538 50.000000000000014  5.1407879786014803 50.000000000000007  5.4263873107460059 49.999999999999993  5.7119866428905324 49.999999999999993  5.9975859750350615 50.000000000000014  6.1879855297980768 50.000000000000007  6.2831853071795862 50 
 0 4 0.28559933214452665 1 0.5711986642890533 1 0.8567979964335799 1 1.1423973285781066 1 1.4279966607226333 1 1.7135959928671598 1 1.9991953250116865 1 2.2847946571562132 1 2.5703939893007397 1 2.8559933214452666 1 3.1415926535897931 1 3.4271919857343196 1 3.7127913178788465 1 3.998390650023373 1 4.2839899821678999 1 4.5695893143124264 1 4.8551886464569529 1 5.1407879786014794 1 5.4263873107460068 1 5.7119866428905333 1 5.9975859750350597 1 6.2831853071795862 4
7 0 0  3 25 23  6.2831853071795862 -50  6.1879855297980768 -49.999999999999993  5.9975859750350606 -50  5.7119866428905324 -49.999999999999993  5.4263873107460059 -50.000000000000007  5.1407879786014794 -50  4.8551886464569529 -49.999999999999993  4.5695893143124264 -50  4.2839899821679008 -50  3.9983906500233726 -50  3.7127913178788465 -50  3.42719198573432 -50  3.1415926535897931 -50.000000000000007  2.8559933214452671 -50  2.5703939893007401 -49.999999999999993  2.2847946571562132 -49.999999999999986  1.9991953250116865 -50.000000000000007  1.7135959928671598 -49.999999999999993  1.4279966607226338 -50.000000000000014  1.1423973285781066 -50.000000000000007  0.85679799643357957 -49.999999999999993  0.57119866428905297 -49.999999999999993  0.28559933214452649 -50.000000000000014  0.095199777381508838 -50.000000000000007  0 -50 
 0 4 0.28559933214452665 1 0.5711986642890533 1 0.8567979964335799 1 1.1423973285781066 1 1.4279966607226333 1 1.7135959928671598 1 1.9991953250116865 1 2.2847946571562132 1 2.5703939893007397 1 2.8559933214452666 1 3.1415926535897931 1 3.4271919857343196 1 3.7127913178788465 1 3.998390650023373 1 4.2839899821678999 1 4.5695893143124264 1 4.8551886464569529 1 5.1407879786014794 1 5.4263873107460068 1 5.7119866428905333 1 5.9975859750350597 1 6.2831853071795862 4
Curves 6
7 0 0  3 42 21  0 50 1.7763568394002505e-13  -9.6791273105825339e-17 50 -1.5807214483915599  0.075278603182946852 50.000187312723106 -3.1879954439896485  0.38767356211900883 49.998741057998167 -6.4232536087103407  0.62477917135274597 49.997120525342844 -8.0512388213164403  1.2646957257250881 49.985027304223777 -11.296238120881112  1.6675319022454227 49.974535808195519 -12.913422074729723  2.6359468376080533 49.932821632263433 -16.106843580606803  3.2015230986740679 49.901552925270281 -17.683081288696897  4.4857095207647273 49.80254154759794 -20.766274733769421  5.2049425659046236 49.734691924587146 -22.274703732084085  6.7822071407074542 49.54424965876813 -25.19884872856133  7.6402416760296328 49.421574596655191 -26.614557737141752  9.473256452203568 49.103184635808589 -29.330306258238192  10.448358017633472 48.907355816805762 -30.63051082371226  12.487862642304362 48.426758356173892 -33.096829571334524  13.552255180229503 48.1418914198632 -34.262933298884107  15.786858863842802 47.457371647448028 -36.49753698249738  17.026539595240674 47.032445268157758 -37.624140511262127  19.627645894008989 46.007711041468461 -39.753555137868965  20.988886173578521 45.407406722449366 -40.756353617952627  23.740316855919065 44.03139020788818 -42.581146957992701  25.131505463477001 43.254685083688344 -43.404177135066988  27.845737734298613 41.559297862307886 -44.850343104515105  29.168498557867245 40.640500437551893 -45.473874498287699  31.824072491126927 38.605648306139315 -46.60464952281086  33.211787502533362 37.421973112403919 -47.118314580446466  35.888073969728637 34.863635029979434 -47.987844205231298  37.17661505213762 33.488988451381857 -48.343850238858352  39.611878827364009 30.569790866661222 -48.924983328826748  40.758855004694894 29.024963736550259 -49.150318571609446  42.877073587892177 25.793203402233896 -49.501681747558209  43.848321515416572 24.106288993704574 -49.627849257318644  45.589606593882422 20.624651254806512 -49.812799560836368  46.360867043157015 18.827555946470831 -49.871815312751785  47.687046564108023 15.15758707397873 -49.950890859608599  48.241965636389352 13.28471552855348 -49.971044307832813  49.126992903357532 9.5031301986111174 -49.994337804348461  49.457150850734564 7.5941491630726077 -49.997529468522302  49.893664982962207 3.7819394959906241 -50.000363308866824  50 1.8787084365974351 -49.999999999999993  50 0 -50 
 102.85957137487492 4 107.60173572005013 2 112.34390006522534 2 117.08606441040055 2 121.82822875557578 2 126.57039310075101 2 131.31255744592622 2 136.05472179110143 2 140.79688613627664 2 145.75519967006034 2 150.713513203844 2 155.67182673762767 2 160.63014027141134 2 166.26626558120364 2 171.90239089099595 2 177.53851620078825 2 183.17464151058059 2 188.81076682037292 2 194.44689213016522 2 200.08301743995753 2 205.71914274974984 4
7 0 0  3 42 21  50 0 -50  50 -1.8787084365974351 -50.000000000000007  49.893664982962207 -3.7819394959906214 -50.000363308866852  49.457150850734564 -7.5941491630726077 -49.997529468522359  49.126992903357532 -9.5031301986111245 -49.994337804348532  48.241965636389338 -13.284715528553496 -49.971044307832912  47.687046564108009 -15.157587073978757 -49.950890859608698  46.360867043157008 -18.827555946470842 -49.871815312751913  45.589606593882408 -20.624651254806508 -49.81279956083651  43.848321515416572 -24.106288993704549 -49.627849257318815  42.877073587892198 -25.793203402233864 -49.501681747558386  40.758855004694922 -29.02496373655022 -49.150318571609638  39.611878827364023 -30.56979086666119 -48.924983328826983  37.176615052137635 -33.488988451381836 -48.343850238858593  35.888073969728651 -34.86363502997942 -47.987844205231539  33.211787502533369 -37.421973112403919 -47.118314580446722  31.824072491126927 -38.605648306139315 -46.60464952281113  29.168498557867242 -40.640500437551893 -45.473874498287984  27.845737734298595 -41.559297862307879 -44.850343104515389  25.131505463476987 -43.254685083688337 -43.404177135067286  23.740316855919062 -44.031390207888165 -42.581146957992999  20.988886173578514 -45.407406722449366 -40.756353617952925  19.627645894008968 -46.007711041468454 -39.75355513786927  17.026539595240656 -47.032445268157744 -37.624140511262439  15.786858863842797 -47.457371647448028 -36.497536982497699  13.552255180229508 -48.1418914198632 -34.262933298884448  12.487862642304361 -48.426758356173892 -33.096829571334872  10.448358017633472 -48.907355816805769 -30.630510823712616  9.4732564522035609 -49.103184635808582 -29.330306258238537  7.6402416760296123 -49.421574596655191 -26.614557737142079  6.7822071407074365 -49.544249658768145 -25.19884872856165  5.2049425659046094 -49.734691924587153 -22.274703732084404  4.4857095207647149 -49.802541547597947 -20.766274733769748  3.201523098674067 -49.901552925270288 -17.683081288697252  2.6359468376080635 -49.932821632263433 -16.106843580607176  1.6675319022454325 -49.974535808195519 -12.913422074730102  1.2646957257250906 -49.985027304223784 -11.296238120881476  0.62477917135274386 -49.997120525342844 -8.0512388213167814  0.38767356211900883 -49.998741057998167 -6.423253608710672  0.075278603182948711 -50.000187312723106 -3.1879954439899798  9.6791273105824784e-17 -50 -1.5807214483919061  0 -50 -1.7763568394002505e-13 
 205.71914274974984 4 211.35526805954214 2 216.99139336933447 2 222.62751867912681 2 228.26364398891911 2 233.89976929871142 2 239.53589460850375 2 245.17201991829609 2 250.80814522808839 2 255.76645876187206 2 260.72477229565573 2 265.68308582943939 2 270.64139936322306 2 275.38356370839824 2 280.12572805357348 2 284.86789239874872 2 289.61005674392391 2 294.35222108909909 2 299.09438543427433 2 303.83654977944957 2 308.57871412462475 4
7 0 0  3 42 21  0 -50 -1.7763568394002505e-13  -9.6791273105824784e-17 -50 1.5807214483915508  0.075278603182948295 -50.000187312723106 3.1879954439896325  0.38767356211900728 -49.998741057998167 6.4232536087103096  0.62477917135274197 -49.997120525342844 8.0512388213164012  1.2646957257250782 -49.985027304223784 11.296238120881059  1.6675319022454127 -49.974535808195519 12.913422074729665  2.6359468376080257 -49.932821632263433 16.106843580606704  3.2015230986740155 -49.901552925270295 17.683081288696769  4.4857095207646376 -49.802541547597968 20.766274733769229  5.2049425659045188 -49.73469192458716 22.274703732083868  6.7822071407073157 -49.544249658768159 25.198848728561092  7.6402416760294756 -49.421574596655219 26.61455773714151  9.4732564522033869 -49.103184635808617 29.330306258237943  10.448358017633275 -48.907355816805811 30.630510823712012  12.487862642304133 -48.426758356173956 33.096829571334268  13.552255180229274 -48.141891419863271 34.262933298883858  15.786858863842536 -47.457371647448113 36.497536982497124  17.026539595240383 -47.032445268157865 37.624140511261864  19.627645894008651 -46.00771104146861 39.753555137868702  20.988886173578173 -45.407406722449529 40.756353617952357  23.740316855918678 -44.031390207888386 42.581146957992459  25.131505463476582 -43.254685083688578 43.40417713506676  27.845737734298158 -41.559297862308178 44.850343104514891  29.168498557866798 -40.64050043755222 45.473874498287486  31.8240724911265 -38.60564830613967 46.604649522810689  33.211787502532971 -37.421973112404274 47.118314580446331  35.88807396972831 -34.863635029979775 47.987844205231205  37.176615052137322 -33.488988451382198 48.343850238858266  39.611878827363739 -30.569790866661563 48.924983328826684  40.758855004694645 -29.0249637365506 49.150318571609397  42.877073587891971 -25.79320340223423 49.50168174755818  43.848321515416387 -24.106288993704894 49.627849257318616  45.58960659388228 -20.6246512548068 49.812799560836353  46.360867043156908 -18.827555946471101 49.871815312751785  47.687046564107952 -15.157587073978954 49.950890859608599  48.241965636389295 -13.284715528553672 49.971044307832813  49.126992903357504 -9.5031301986112418 49.994337804348461  49.457150850734543 -7.5941491630726974 49.997529468522302  49.8936649829622 -3.7819394959906596 50.000363308866824  50 -1.8787084365974551 49.999999999999993  50 0 50 
 308.57871412462475 4 313.32087846979994 2 318.06304281497512 2 322.8052071601503 2 327.54737150532543 2 332.28953585050056 2 337.03170019567574 2 341.77386454085092 2 346.51602888602611 2 351.47434241980972 2 356.43265595359333 2 361.39096948737694 2 366.34928302116055 2 371.98540833095296 2 377.62153364074533 2 383.25765895053769 2 388.89378426033011 2 394.52990957012253 2 400.16603487991495 2 405.80216018970737 2 411.43828549949973 4
7 0 0  3 42 21  50 0 50  50 1.8787084365974656 50.000000000000007  49.8936649829622 3.7819394959906814 50.000363308866852  49.457150850734543 7.5941491630727178 49.997529468522359  49.12699290335749 9.5031301986112524 49.994337804348532  48.241965636389288 13.284715528553663 49.971044307832912  47.687046564107959 15.157587073978936 49.950890859608698  46.360867043156915 18.827555946471069 49.871815312751913  45.589606593882287 20.624651254806757 49.812799560836496  43.848321515416401 24.106288993704844 49.627849257318786  42.877073587892014 25.793203402234177 49.501681747558365  40.758855004694681 29.024963736550561 49.150318571609603  39.611878827363753 30.569790866661542 48.924983328826919  37.176615052137308 33.488988451382191 48.343850238858508  35.888073969728303 34.863635029979783 47.987844205231454  33.211787502532964 37.421973112404281 47.118314580446594  31.8240724911265 38.60564830613967 46.604649522810959  29.168498557866794 40.64050043755222 45.473874498287771  27.845737734298165 41.559297862308178 44.850343104515183  25.131505463476586 43.254685083688578 43.404177135067066  23.740316855918671 44.031390207888371 42.581146957992765  20.988886173578166 45.407406722449515 40.756353617952684  19.627645894008651 46.00771104146861 39.753555137869029  17.026539595240383 47.032445268157865 37.624140511262198  15.786858863842534 47.457371647448113 36.497536982497451  13.552255180229276 48.141891419863271 34.262933298884192  12.48786264230414 48.426758356173956 33.096829571334617  10.448358017633282 48.907355816805811 30.63051082371236  9.4732564522033975 49.103184635808631 29.330306258238295  7.6402416760294933 49.421574596655219 26.614557737141869  6.7822071407073325 49.544249658768159 25.198848728561455  5.2049425659045312 49.73469192458716 22.274703732084234  4.4857095207646367 49.802541547597961 20.766274733769581  3.201523098674004 49.901552925270302 17.683081288697093  2.6359468376080075 49.932821632263433 16.106843580607009  1.6675319022453967 49.974535808195519 12.913422074729963  1.2646957257250682 49.985027304223784 11.29623812088137  0.62477917135273653 49.997120525342844 8.0512388213167263  0.38767356211899212 49.998741057998167 6.4232536087106391  0.075278603182935167 50.000187312723106 3.1879954439899718  9.6791273105824464e-17 50 1.580721448391901  0 50 1.7763568394002505e-13 
 0 4 5.6361253097923969 2 11.272250619584794 2 16.90837592937719 2 22.544501239169588 2 28.180626548961982 2 33.81675185875438 2 39.452877168546777 2 45.089002478339175 2 50.047316012122778 2 55.005629545906388 2 59.96394307968999 2 64.922256613473593 2 69.664420958648762 2 74.406585303823931 2 79.148749648999086 2 83.890913994174255 2 88.633078339349424 2 93.375242684524579 2 98.117407029699748 2 102.85957137487492 4
2 0 0 50 0 0 1 1 0 -0 -0 1 0 50
2 0 0 -50 0 0 -1 1 0 0 0 -1 0 50
Polygon3D 0
PolygonOnTriangulations 0
Surfaces 4
2 50 0 0 0 -1 -3.4914813388431334e-15 1 0 0 0 -3.4914813388431334e-15 1 50
2 0 0 0 0 0 1 1 0 -0 -0 1 0 50
1 0 0 -50 0 0 -1 -1 0 0 0 1 0 
1 0 0 50 0 0 1 1 0 -0 -0 1 0 
Triangulations 0

TShapes 20
Ve
0.0207493492273209
0 50 1.77635683940025e-13
0 0

0101101
*
Ve
0.0207988082859883
50 0 -50
0 0

0101101
*
Ed
 0.0207493492229553 1 1 0
1  1 0 102.859571374875 205.71914274975
2  1 1 0 102.859571374875 205.71914274975
2  2 2 0 102.859571374875 205.71914274975
0

0101000
+20 0 -19 0 *
Ve
0.0207493492285898
0 -50 -1.77635683940025e-13
0 0

0101101
*
Ed
 0.0207493492285898 1 1 0
1  2 0 205.71914274975 308.578714124625
2  3 1 0 205.71914274975 308.578714124625
2  4 2 0 205.71914274975 308.578714124625
0

0101000
+19 0 -17 0 *
Ve
0.0207988082847231
50 0 50
0 0

0101101
*
Ed
 0.0207493492241274 1 1 0
1  3 0 308.578714124625 411.4382854995
2  5 1 0 308.578714124625 411.4382854995
2  6 2 0 308.578714124625 411.4382854995
0

0101000
+17 0 -15 0 *
Ed
 0.0207493492273209 1 1 0
1  4 0 0 102.859571374875
2  7 1 0 0 102.859571374875
2  8 2 0 0 102.859571374875
0

0101000
+15 0 -20 0 *
Wi

0101100
+18 0 +16 0 +14 0 +13 0 *
Fa
0  1e-07 1 0

0111000
+12 0 *
Ed
 0.0207988082847231 1 1 0
1  5 0 0 6.28318530717959
2  9 2 0 0 6.28318530717959
0

0101100
+15 0 -15 0 *
Ed
 0.0207988082859883 1 1 0
1  6 0 0 6.28318530717959
2  10 2 0 0 6.28318530717959
0

0101100
+19 0 -19 0 *
Wi

0101100
-10 0 +13 0 +18 0 -9 0 +16 0 +14 0 *
Fa
0  1e-07 2 0

0111000
+8 0 *
Wi

0101000
+9 0 *
Fa
0  1e-07 3 0

0111000
+6 0 *
Wi

0101000
+10 0 *
Fa
0  1e-07 4 0

0111000
+4 0 *
Sh

0101000
-11 0 +7 0 +5 0 +3 0 *
So

0100000
+2 0 *

+1 0 
0

