DBRep_DrawableShape

CASCADE Topology V1, (c) Matra-Datavision
Locations 0
Curve2ds 8
1 0 0 1 0 
1 0 0 1 0 
1 1 0 0 -1 
1 0 0 0 1 
1 0 -1 1 0 
1 0 0 1 0 
1 0 0 0 -1 
1 0 0 0 1 
Curves 8
1 -0.5 -0.5 0.5 1 0 0 
1 -0.5 -0.5 -0.5 1 0 0 
1 -0.5 -0.5 -0.5 0 0 1 
1 -0.5 0.5 0.5 1 0 0 
1 -0.5 -0.5 0.5 -0 1 0 
1 -0.5 0.5 -0.5 1 0 0 
1 -0.5 0.5 -0.5 0 0 1 
1 -0.5 -0.5 -0.5 -0 1 0 
Polygon3D 0
PolygonOnTriangulations 0
Surfaces 9
1 -0.5 -0.5 -0.5 0 -1 0 0 0 1 -1 0 0 
1 -0.5 -0.5 -0.5 1 0 -0 0 0 1 0 -1 0 
1 -0.5 -0.5 -0.5 -0 1 0 0 0 1 1 0 -0 
1 -0.5 -0.5 0.5 0 -0 1 -0 1 0 -1 -0 0 
1 -0.5 -0.5 0.5 0 0 1 1 0 -0 -0 1 0 
1 -0.5 0.5 -0.5 0 -1 0 0 0 1 -1 0 0 
1 -0.5 0.5 -0.5 -0 1 0 0 0 1 1 0 -0 
1 -0.5 -0.5 -0.5 0 -0 1 -0 1 0 -1 -0 0 
1 -0.5 -0.5 -0.5 0 0 1 1 0 -0 -0 1 0 
Triangulations 0

TShapes 24
Ve
1e-07
-0.5 -0.5 0.5
0 0

0101101
*
Ed
 1e-07 1 1 0
1  1 0 0 2e+100
0

0101000
+24 0 *
Ve
1e-07
-0.5 -0.5 -0.5
0 0

0101101
*
Ed
 1e-07 1 1 0
1  2 0 0 2e+100
0

0101000
+22 0 *
Ed
 1e-07 1 1 0
1  3 0 0 1
2  1 2 0 0 1
2  2 3 0 0 1
0

0101000
-24 0 +22 0 *
Wi

0101000
-23 0 +21 0 -20 0 *
Fa
0  1e-07 1 0

0101000
+19 0 *
Ve
1e-07
-0.5 0.5 0.5
0 0

0101101
*
Ed
 1e-07 1 1 0
1  4 0 0 2e+100
0

0101000
+17 0 *
Ed
 1e-07 1 1 0
1  5 0 0 1
2  3 2 0 0 1
2  4 5 0 0 1
0

0101000
-17 0 +24 0 *
Wi

0101000
-16 0 +23 0 -15 0 *
Fa
0  1e-07 4 0

0101000
+14 0 *
Ve
1e-07
-0.5 0.5 -0.5
0 0

0101101
*
Ed
 1e-07 1 1 0
1  6 0 0 2e+100
0

0101000
+12 0 *
Ed
 1e-07 1 1 0
1  7 0 0 1
2  5 2 0 0 1
2  6 7 0 0 1
0

0101000
-17 0 +12 0 *
Wi

0101000
-16 0 +11 0 -10 0 *
Fa
0  1e-07 6 0

0101000
+9 0 *
Ed
 1e-07 1 1 0
1  8 0 0 1
2  7 2 0 0 1
2  8 9 0 0 1
0

0101000
-12 0 +22 0 *
Wi

0101000
-11 0 +21 0 -7 0 *
Fa
0  1e-07 8 0

0101000
+6 0 *
Wi

0101000
-20 0 -15 0 +10 0 +7 0 *
Fa
0  1e-07 2 0

0111000
+4 0 *
Sh

0101000
-18 0 -13 0 +8 0 +5 0 +3 0 *
So

1100000
-2 0 *

+1 0 
0

