DBRep_DrawableShape

CASCADE Topology V1, (c) Matra-Datavision
Locations 0
Curve2ds 16
1 2.7052603405919999 0 0 1 
1 3.5779249665889998 0 0 1 
1 4.7123889803849996 0 0 1 
1 6.2831853071800001 300.04316579732 -1 0 
1 6.2831853071800001 0 -1 0 
1 4.7123889803849996 0 0 1 
1 6.2831853071800001 300.04316579732 -1 0 
1 2.7052603405919999 0 0 1 
1 6.2831853071800001 0 -1 0 
1 4.7123889803849996 0 0 1 
1 6.2831853071800001 300.04316579732 -1 0 
1 3.5779249665889998 0 0 1 
1 6.2831853071800001 0 -1 0 
1 4.7123889803849996 0 0 1 
1 6.2831853071800001 300.04316579732 -1 0 
1 6.2831853071800001 0 -1 0 
Curves 24
1 398.61206124389003 43.282143607994001 12.049453633593 -0.99985613470912427 -0.0095662651301611883 0.014007014528051739 
1 98.612061243897003 -33.297166612860003 16.252162615957001 -7.7134241927850001e-16 1 1.2988506563750001e-17 
1 98.612061243897003 -33.297166612860003 16.252162615957001 0.99985613470911383 0.0095662651312600887 -0.014007014528051594 
1 398.61206124389003 43.282143607994001 12.049453633593 1.5423778651569999e-15 -1 -2.37899652108e-17 
1 98.616712167721005 -40.547297144230001 11.632590325778001 0.99985613470911383 0.0095662651312600887 -0.014007014528051594 
2 398.49999999999 -30.426874138020001 4.0502385297470003 -0.99985613470911405 -0.0095662651312510907 0.014007014528041598 -0.00865276555983268 -0.42259892367492752 -0.90627549859684464 0.014589020964983644 -0.90626631642152056 0.422455351708381 8
2 98.500000000000995 -33.297166612860003 8.2529475121099996 -0.99985613470911405 -0.0095662651312510907 0.014007014528041598 -0.00865276555983268 -0.42259892367492752 -0.90627549859684464 0.014589020964983644 -0.90626631642152056 0.422455351708381 8
1 98.616712167711 -48.006416761810002 -4.3689796205600002 5.94847092065089e-13 0.42250031648613423 0.90636277646928798 
1 398.61671216769997 -45.136124286970002 -8.5716886029260007 -0.99985613470911383 -0.0095662651312560902 0.014007014528051594 
1 398.61671216770998 -37.677004669390001 7.4298813434140003 -5.988677531362903e-13 -0.42250031648613423 -0.90636277646928798 
2 98.499999999991005 -40.756286230439997 -7.7486224342270003 0.99985613470911383 0.0095662651312540901 -0.014007014528051594 0.0086527655598404741 0.42259892367492752 0.90627549859684453 0.014589020964990585 -0.90626631642152045 0.42245535170838078 8
1 398.38793875609002 -37.885993755599998 -19.95054652044 -0.99985613470911383 -0.0095662651312560902 0.014007014528051594 
2 398.49999999997999 -37.885993755599998 -11.95133141659 0.99985613470911383 0.0095662651312540901 -0.014007014528051594 0.0086527655598404741 0.42259892367492752 0.90627549859684453 0.014589020964990585 -0.90626631642152045 0.42245535170838078 8
1 398.38793875609002 -37.885993755599998 -19.95054652044 -1.0460985015400001e-20 1 -4.8945904316170005e-17 
1 398.38793875609002 35.823023990411997 -19.95054652044 -0.99985613470912438 -0.0095662651301571897 0.014007014528051741 
1 98.387938756094997 32.952731515903999 -15.74783753807 5.784558181798e-16 -1 4.0842445987870006e-17 
2 98.499999999991005 32.952731515905 -7.7486224342270003 0.99985613470912438 0.0095662651301541904 -0.014007014528051741 0.0095653265645669738 -0.99995424223884355 -0.00013400094624051366 -0.014007655487005876 -4.3693347551165816e-17 -0.99990188798089452 8
1 398.38328783227001 43.073154521783003 -15.330974230260001 -0.99985613470912438 -0.0095662651301571897 0.014007014528051741 
2 398.49999999997999 35.823023990411997 -11.95133141659 0.99985613470912438 0.0095662651301541904 -0.014007014528051741 0.0095653265645669738 -0.99995424223884355 -0.00013400094624051366 -0.014007655487005876 -4.3693347551165816e-17 -0.99990188798089452 8
1 398.38328783228002 50.532274139365001 0.67059571607599999 -0.99985613470912427 -0.0095662651301611883 0.014007014528051739 
2 98.500000000000995 40.411851133483999 8.2529475121129998 0.99985613470912416 0.0095662651301611865 -0.014007014528061738 -0.0086527655603114689 -0.42259892367492607 -0.90627549859684087 -0.014589020964004343 0.90626631642153255 -0.4224553517083886 8
2 398.49999999999 43.282143607994001 4.0502385297460002 0.99985613470912416 0.0095662651301611865 -0.014007014528061738 -0.0086527655603114689 -0.42259892367492607 -0.90627549859684087 -0.014589020964004343 0.90626631642153255 -0.4224553517083886 8
1 398.38328783227001 43.073154521783003 -15.330974230260001 5.924352158763882e-13 0.42250031648613423 0.90636277646928798 
1 98.383287832289 47.661981664854999 4.8733046984400001 -5.9405267336078865e-13 -0.42250031648613423 -0.90636277646928798 
Polygon3D 0
PolygonOnTriangulations 0
Surfaces 8
1 248.61206124383 4.9924884976459998 14.150808124776001 0.014007655486998526 -2.1825333633867705e-18 0.99990188798089474 0.99990188798089474 6.0185310762101107e-36 -0.014007655486998526 3.057217544320203e-20 1 2.1823192306317235e-18 
2 398.49999999999 43.282143607994001 4.0502385297460002 -0.99985613470912416 -0.0095662651301611865 0.014007014528061738 -0.0086527655603114689 -0.42259892367492607 -0.90627549859684087 0.014589020964004343 -0.90626631642153255 0.4224553517083886 8
2 98.500000000000995 -33.297166612860003 8.2529475121099996 0.99985613470911405 0.0095662651312510907 -0.014007014528041598 -0.00865276555983268 -0.42259892367492752 -0.90627549859684464 -0.014589020964983644 0.90626631642152056 -0.422455351708381 8
1 248.61671216771001 -42.841710715600001 1.530450861426 0.014589020964996006 -0.90626631642175182 0.42245535170788434 -1.2673889715486553e-14 -0.42250031648554925 -0.90636277646956076 0.99989357457045536 0.013222945547801054 -0.0061638659749366099 
2 398.49999999997999 -37.885993755599998 -11.95133141659 -0.99985613470911383 -0.0095662651312540901 0.014007014528051594 0.0086527655598404741 0.42259892367492752 0.90627549859684453 -0.014589020964990585 0.90626631642152045 -0.42245535170838078 8
1 248.38793875601999 -2.466631119933 -17.849192029249998 0.014007655487008523 4.8941248668534837e-17 0.99990188798089452 0.99990188798089452 -1.9259299443872359e-34 -0.014007655487008523 -6.8555215045285037e-19 1 -4.8936446943810425e-17 
2 398.49999999997999 35.823023990411997 -11.95133141659 -0.99985613470912438 -0.0095662651301541904 0.014007014528051741 0.0095653265645669738 -0.99995424223884355 -0.00013400094624051366 0.014007655487005876 4.3693347551165816e-17 0.99990188798089452 8
1 248.38328783227999 45.367568093320003 -5.2288347659110004 0.014589020964003278 -0.90626631642120348 0.42245535170909487 6.7142472137682319e-15 -0.42250031648675346 -0.90636277646899932 0.99989357457047001 0.013222945546901285 -0.0061638659745171815 
Triangulations 0

TShapes 57
Ve
1.00005e-07
398.61206124389 43.282143607994 12.049453633593
0 0

0101101
*
Ve
1.00005e-07
98.612061243897 40.411851133484 16.252162615957
0 0

0101101
*
Ed
 1.00005e-07 1 1 0
1  1 0 0 300.043165797316
2  1 2 0 0 300.043165797316
4 G1 1 0 2 0
0

0101000
+57 0 -56 0 *
Ve
1.00005e-07
98.612061243897 -33.29716661286 16.252162615957
0 0

0101101
*
Ed
 1.00005e-07 1 1 0
1  2 0 0 73.709017746344
0

0101000
+54 0 -56 0 *
Ve
1.00005e-07
398.61206124389 -30.42687413802 12.049453633593
0 0

0101101
*
Ed
 1.00005e-07 1 1 0
1  3 0 0 300.043165797319
2  2 3 0 0 300.043165797319
4 G1 1 0 3 0
0

0101000
+54 0 -52 0 *
Ed
 1.00005e-07 1 1 0
1  4 0 0 73.709017746014
0

0101000
+57 0 -52 0 *
Wi

0101000
+55 0 -53 0 +51 0 -50 0 *
Fa
0  1e-07 1 0

0111000
+49 0 *
Ve
1.00005e-07
98.616712167721 -40.54729714423 11.632590325778
0 0

0101101
*
Ve
1.00005e-07
398.61671216771 -37.67700466939 7.429881343414
0 0

0101101
*
Ed
 1.00005e-07 1 1 0
1  5 0 0 300.043165797315
2  3 3 0 0 300.043165797315
4 G1 3 0 4 0
0

0101000
+47 0 -46 0 *
Ed
 1e-07 1 1 0
1  6 0 1.57079632679501 2.70526034059152
2  4 3 0 1.57079632679501 2.70526034059152
0

0101000
+46 0 -52 0 *
Ed
 1e-07 1 1 0
1  7 0 1.57079632679512 2.70526034059153
2  5 3 0 1.57079632679512 2.70526034059153
0

0101000
+47 0 -54 0 *
Wi

0101000
+45 0 +44 0 -51 0 -43 0 *
Fa
0  1e-07 3 0

0111000
+42 0 *
Ve
1.00005e-07
98.616712167711 -48.00641676181 -4.36897962056
0 0

0101101
*
Ed
 1.00005e-07 1 1 0
1  8 0 0 17.6547077635659
0

0101000
+40 0 -47 0 *
Ve
1.00005e-07
398.6167121677 -45.13612428697 -8.571688602926
0 0

0101101
*
Ed
 1.00005e-07 1 1 0
1  9 0 0 300.043165797315
2  6 5 0 0 300.043165797315
4 G1 4 0 5 0
0

0101000
+38 0 -40 0 *
Ed
 1.00005e-07 1 1 0
1  10 0 -0 17.6547077635677
0

0101000
+46 0 -38 0 *
Wi

0101000
-45 0 -39 0 -37 0 -36 0 *
Fa
0  1e-07 4 0

0111000
+35 0 *
Ve
1.00005e-07
98.387938756095 -40.75628623044 -15.74783753807
0 0

0101101
*
Ed
 1e-07 1 1 0
1  11 0 1.57079632679479 3.57792496658806
2  7 5 0 1.57079632679479 3.57792496658806
0

0101000
+40 0 -33 0 *
Ve
1.00005e-07
398.38793875609 -37.8859937556 -19.95054652044
0 0

0101101
*
Ed
 1.00005e-07 1 1 0
1  12 0 0 300.043165797321
2  8 5 0 0 300.043165797321
4 G1 5 0 6 0
0

0101000
+31 0 -33 0 *
Ed
 1e-07 1 1 0
1  13 0 1.57079632679513 3.57792496658805
2  9 5 0 1.57079632679513 3.57792496658805
0

0101000
+38 0 -31 0 *
Wi

0101000
+37 0 +32 0 -30 0 -29 0 *
Fa
0  1e-07 5 0

0111000
+28 0 *
Ve
1.00005e-07
398.38793875609 35.823023990412 -19.95054652044
0 0

0101101
*
Ed
 1.00005e-07 1 1 0
1  14 0 0 73.709017746012
0

0101000
+31 0 -26 0 *
Ve
1.00005e-07
98.387938756095 32.952731515904 -15.74783753807
0 0

0101101
*
Ed
 1.00005e-07 1 1 0
1  15 0 0 300.043165797318
2  10 7 0 0 300.043165797318
4 G1 6 0 7 0
0

0101000
+26 0 -24 0 *
Ed
 1.00005e-07 1 1 0
1  16 0 0 73.709017746344
0

0101000
+24 0 -33 0 *
Wi

0101000
-30 0 +25 0 +23 0 +22 0 *
Fa
0  1e-07 6 0

0111000
+21 0 *
Ve
1.00005e-07
98.383287832279 40.202862047275 -11.12826524789
0 0

0101101
*
Ed
 1e-07 1 1 0
1  17 0 1.57079632679477 2.70526034059188
2  11 7 0 1.57079632679477 2.70526034059188
0

0101000
+24 0 -19 0 *
Ve
1.00005e-07
398.38328783227 43.073154521783 -15.33097423026
0 0

0101101
*
Ed
 1.00005e-07 1 1 0
1  18 0 0 300.043165797314
2  12 7 0 0 300.043165797314
4 G1 7 0 8 0
0

0101000
+17 0 -19 0 *
Ed
 1e-07 1 1 0
1  19 0 1.57079632679489 2.70526034059114
2  13 7 0 1.57079632679489 2.70526034059114
0

0101000
+26 0 -17 0 *
Wi

0101000
+23 0 +18 0 -16 0 -15 0 *
Fa
0  1e-07 7 0

0111000
+14 0 *
Ve
1.00005e-07
398.38328783228 50.532274139365 0.670595716076
0 0

0101101
*
Ve
1.00005e-07
98.383287832289 47.661981664855 4.87330469844
0 0

0101101
*
Ed
 1.00005e-07 1 1 0
1  20 0 0 300.043165797314
2  14 2 0 0 300.043165797314
4 G1 2 0 8 0
0

0101000
+12 0 -11 0 *
Ed
 1e-07 1 1 0
1  21 0 1.57079632679416 3.57792496658805
2  15 2 0 1.57079632679416 3.57792496658805
0

0101000
+11 0 -56 0 *
Ed
 1e-07 1 1 0
1  22 0 1.5707963267945 3.57792496658806
2  16 2 0 1.5707963267945 3.57792496658806
0

0101000
+12 0 -57 0 *
Wi

0101000
+10 0 +9 0 -55 0 -8 0 *
Fa
0  1e-07 2 0

0111000
+7 0 *
Ed
 1.00005e-07 1 1 0
1  23 0 0 17.6547077635649
0

0101000
+17 0 -12 0 *
Ed
 1.00005e-07 1 1 0
1  24 0 -0 17.6547077635587
0

0101000
+11 0 -19 0 *
Wi

0101000
-16 0 +5 0 +10 0 +4 0 *
Fa
0  1e-07 8 0

0111000
+3 0 *
Sh

0101000
+48 0 +41 0 +34 0 +27 0 -20 0 +13 0 +6 0 -2 0 *

+1 0 
0

