DBRep_DrawableShape

CASCADE Topology V1, (c) Matra-Datavision
Locations 6
1
              1               0               0               0 
              0               1               0               0 
              0               0               1              50 
2  1 -1 0
1
              1               0               0               0 
              0               1               0               0 
              0               0               1              10 
2  3 -1 0
1
              1               0               0               0 
              0               1               0               0 
              0               0               1              10 
2  5 -1 0
Curve2ds 16
1 0 0 0 -1 
1 6.2831853071795862 0 0 -1 
1 0 0 1 0 
1 0 -50 1 0 
2 100 0 -1 0 0 1 100
1 0 0 1 0 
2 0 0 1 0 -0 1 10
2 100 0 1 0 -0 1 10
1 6.2831853071795862 -0 0 1 
1 0 -0 0 1 
1 0 10 1 0 
2 0 0 1 0 -0 1 10
1 0 0 1 0 
1 0 -10 1 0 
1 0 0 0 -1 
1 6.2831853071795862 0 0 -1 
Curves 6
1 -100 0 0 0 0 1 
2 0 0 0 -0 -0 -1 -1 0 0 0 1 -0 100
2 0 0 0 0 0 1 1 0 -0 -0 1 0 10
1 10 -2.4492127076447545e-15 0 0 0 1 
2 0 0 10 0 0 1 1 0 -0 -0 1 0 10
1 10 -2.4492127076447545e-15 10 0 0 1 
Polygon3D 0
PolygonOnTriangulations 16
2 1 2 
p 0.865913761033915 1 0 50 
2 39 3 
p 0.865913761033915 1 0 50 
37 1 40 41 42 43 44 45 46 47 48 49 50 51 52 53 54 55 56 57 58 59 60 61 62 63 64 65 66 67 68 69 70 71 72 73 74 39 
p 0.865913761033915 1 0 0.174532925199433 0.349065850398866 0.523598775598299 0.698131700797732 0.872664625997165 1.0471975511966 1.22173047639603 1.39626340159546 1.5707963267949 1.74532925199433 1.91986217719376 2.0943951023932 2.26892802759263 2.44346095279206 2.61799387799149 2.79252680319093 2.96705972839036 3.14159265358979 3.31612557878922 3.49065850398866 3.66519142918809 3.83972435438752 4.01425727958696 4.18879020478639 4.36332312998582 4.53785605518525 4.71238898038469 4.88692190558412 5.06145483078355 5.23598775598299 5.41052068118242 5.58505360638185 5.75958653158128 5.93411945678072 6.10865238198015 6.28318530717959 
37 2 4 5 6 7 8 9 10 11 12 13 14 15 16 17 18 19 20 21 22 23 24 25 26 27 28 29 30 31 32 33 34 35 36 37 38 3 
p 0.865913761033915 1 0 0.174532925199433 0.349065850398866 0.523598775598299 0.698131700797732 0.872664625997165 1.0471975511966 1.22173047639603 1.39626340159546 1.5707963267949 1.74532925199433 1.91986217719376 2.0943951023932 2.26892802759263 2.44346095279206 2.61799387799149 2.79252680319093 2.96705972839036 3.14159265358979 3.31612557878922 3.49065850398866 3.66519142918809 3.83972435438752 4.01425727958696 4.18879020478639 4.36332312998582 4.53785605518525 4.71238898038469 4.88692190558412 5.06145483078355 5.23598775598299 5.41052068118242 5.58505360638185 5.75958653158128 5.93411945678072 6.10865238198015 6.28318530717959 
37 1 2 3 4 5 6 7 8 9 10 11 12 13 14 15 16 17 18 19 20 21 22 23 24 25 26 27 28 29 30 31 32 33 34 35 36 1 
p 0.865913761033915 1 0 0.174532925199433 0.349065850398866 0.523598775598299 0.698131700797732 0.872664625997165 1.0471975511966 1.22173047639603 1.39626340159546 1.5707963267949 1.74532925199433 1.91986217719376 2.0943951023932 2.26892802759263 2.44346095279206 2.61799387799149 2.79252680319093 2.96705972839036 3.14159265358979 3.31612557878922 3.49065850398866 3.66519142918809 3.83972435438752 4.01425727958696 4.18879020478639 4.36332312998582 4.53785605518525 4.71238898038469 4.88692190558412 5.06145483078355 5.23598775598299 5.41052068118242 5.58505360638185 5.75958653158128 5.93411945678072 6.10865238198015 6.28318530717959 
37 1 2 3 4 5 6 7 8 9 10 11 12 13 14 15 16 17 18 19 20 21 22 23 24 25 26 27 28 29 30 31 32 33 34 35 36 1 
p 0.865913761033915 1 0 0.174532925199433 0.349065850398866 0.523598775598299 0.698131700797732 0.872664625997165 1.0471975511966 1.22173047639603 1.39626340159546 1.5707963267949 1.74532925199433 1.91986217719376 2.0943951023932 2.26892802759263 2.44346095279206 2.61799387799149 2.79252680319093 2.96705972839036 3.14159265358979 3.31612557878922 3.49065850398866 3.66519142918809 3.83972435438752 4.01425727958696 4.18879020478639 4.36332312998582 4.53785605518525 4.71238898038469 4.88692190558412 5.06145483078355 5.23598775598299 5.41052068118242 5.58505360638185 5.75958653158128 5.93411945678072 6.10865238198015 6.28318530717959 
37 1 3 4 5 6 7 8 9 10 11 12 13 14 15 16 17 18 19 20 21 22 23 24 25 26 27 28 29 30 31 32 33 34 35 36 37 2 
p 0.865913761033915 1 0 0.174532925199433 0.349065850398866 0.523598775598299 0.698131700797732 0.872664625997165 1.0471975511966 1.22173047639603 1.39626340159546 1.5707963267949 1.74532925199433 1.91986217719376 2.0943951023932 2.26892802759263 2.44346095279206 2.61799387799149 2.79252680319093 2.96705972839036 3.14159265358979 3.31612557878922 3.49065850398866 3.66519142918809 3.83972435438752 4.01425727958696 4.18879020478639 4.36332312998582 4.53785605518525 4.71238898038469 4.88692190558412 5.06145483078355 5.23598775598299 5.41052068118242 5.58505360638185 5.75958653158128 5.93411945678072 6.10865238198015 6.28318530717959 
37 37 38 39 40 41 42 43 44 45 46 47 48 49 50 51 52 53 54 55 56 57 58 59 60 61 62 63 64 65 66 67 68 69 70 71 72 37 
p 0.865913761033915 1 0 0.174532925199433 0.349065850398866 0.523598775598299 0.698131700797732 0.872664625997165 1.0471975511966 1.22173047639603 1.39626340159546 1.5707963267949 1.74532925199433 1.91986217719376 2.0943951023932 2.26892802759263 2.44346095279206 2.61799387799149 2.79252680319093 2.96705972839036 3.14159265358979 3.31612557878922 3.49065850398866 3.66519142918809 3.83972435438752 4.01425727958696 4.18879020478639 4.36332312998582 4.53785605518525 4.71238898038469 4.88692190558412 5.06145483078355 5.23598775598299 5.41052068118242 5.58505360638185 5.75958653158128 5.93411945678072 6.10865238198015 6.28318530717959 
2 2 39 
p 0.865913761033915 1 0 10 
2 1 38 
p 0.865913761033915 1 0 10 
37 38 40 41 42 43 44 45 46 47 48 49 50 51 52 53 54 55 56 57 58 59 60 61 62 63 64 65 66 67 68 69 70 71 72 73 74 39 
p 0.865913761033915 1 0 0.174532925199433 0.349065850398866 0.523598775598299 0.698131700797732 0.872664625997165 1.0471975511966 1.22173047639603 1.39626340159546 1.5707963267949 1.74532925199433 1.91986217719376 2.0943951023932 2.26892802759263 2.44346095279206 2.61799387799149 2.79252680319093 2.96705972839036 3.14159265358979 3.31612557878922 3.49065850398866 3.66519142918809 3.83972435438752 4.01425727958696 4.18879020478639 4.36332312998582 4.53785605518525 4.71238898038469 4.88692190558412 5.06145483078355 5.23598775598299 5.41052068118242 5.58505360638185 5.75958653158128 5.93411945678072 6.10865238198015 6.28318530717959 
37 1 3 4 5 6 7 8 9 10 11 12 13 14 15 16 17 18 19 20 21 22 23 24 25 26 27 28 29 30 31 32 33 34 35 36 37 2 
p 0.865913761033915 1 0 0.174532925199433 0.349065850398866 0.523598775598299 0.698131700797732 0.872664625997165 1.0471975511966 1.22173047639603 1.39626340159546 1.5707963267949 1.74532925199433 1.91986217719376 2.0943951023932 2.26892802759263 2.44346095279206 2.61799387799149 2.79252680319093 2.96705972839036 3.14159265358979 3.31612557878922 3.49065850398866 3.66519142918809 3.83972435438752 4.01425727958696 4.18879020478639 4.36332312998582 4.53785605518525 4.71238898038469 4.88692190558412 5.06145483078355 5.23598775598299 5.41052068118242 5.58505360638185 5.75958653158128 5.93411945678072 6.10865238198015 6.28318530717959 
37 1 2 3 4 5 6 7 8 9 10 11 12 13 14 15 16 17 18 19 20 21 22 23 24 25 26 27 28 29 30 31 32 33 34 35 36 1 
p 0.865913761033915 1 0 0.174532925199433 0.349065850398866 0.523598775598299 0.698131700797732 0.872664625997165 1.0471975511966 1.22173047639603 1.39626340159546 1.5707963267949 1.74532925199433 1.91986217719376 2.0943951023932 2.26892802759263 2.44346095279206 2.61799387799149 2.79252680319093 2.96705972839036 3.14159265358979 3.31612557878922 3.49065850398866 3.66519142918809 3.83972435438752 4.01425727958696 4.18879020478639 4.36332312998582 4.53785605518525 4.71238898038469 4.88692190558412 5.06145483078355 5.23598775598299 5.41052068118242 5.58505360638185 5.75958653158128 5.93411945678072 6.10865238198015 6.28318530717959 
2 1 39 
p 0.865913761033915 1 0 10 
2 2 38 
p 0.865913761033915 1 0 10 
37 39 40 41 42 43 44 45 46 47 48 49 50 51 52 53 54 55 56 57 58 59 60 61 62 63 64 65 66 67 68 69 70 71 72 73 74 38 
p 0.865913761033915 1 0 0.174532925199433 0.349065850398866 0.523598775598299 0.698131700797732 0.872664625997165 1.0471975511966 1.22173047639603 1.39626340159546 1.5707963267949 1.74532925199433 1.91986217719376 2.0943951023932 2.26892802759263 2.44346095279206 2.61799387799149 2.79252680319093 2.96705972839036 3.14159265358979 3.31612557878922 3.49065850398866 3.66519142918809 3.83972435438752 4.01425727958696 4.18879020478639 4.36332312998582 4.53785605518525 4.71238898038469 4.88692190558412 5.06145483078355 5.23598775598299 5.41052068118242 5.58505360638185 5.75958653158128 5.93411945678072 6.10865238198015 6.28318530717959 
Surfaces 6
2 0 0 0 -0 0 -1 -1 0 0 0 1 -0 100
1 -100 0 0 -0 0 1 1 0 0 0 1 -0 
2 0 0 0 0 0 1 1 0 -0 -0 1 0 10
1 0 0 0 0 0 1 1 0 -0 -0 1 0 
1 0 0 10 0 0 1 1 0 -0 -0 1 0 
2 0 0 10 -0 -0 -1 1 0 -0 -0 1 0 10
Triangulations 6
74 72 1 0.380530190825467
-100 0 0 -100 0 50 -100 0 50 -98.4807753012208 17.364817766693 50 -93.9692620785908 34.2020143325669 50 -86.6025403784439 50 50 -76.6044443118978 64.2787609686539 50 -64.2787609686539 76.6044443118978 50 -50 86.6025403784439 50 -34.2020143325669 93.9692620785908 50 -17.364817766693 98.4807753012208 50 -6.12303176911189e-15 100 50 17.364817766693 98.4807753012208 50 34.2020143325669 93.9692620785908 50 50 86.6025403784439 50 64.2787609686539 76.6044443118978 50 76.6044443118978 64.278760968654 50 86.6025403784438 50.0000000000001 50 93.9692620785908 34.202014332567 50 98.4807753012208 17.3648177666932 50 100 1.45472826493243e-13 50 98.4807753012208 -17.3648177666929 50 93.9692620785909 -34.2020143325667 50 86.602540378444 -49.9999999999998 50 76.604444311898 -64.2787609686538 50 64.2787609686541 -76.6044443118977 50 50.0000000000002 -86.6025403784437 50 34.2020143325671 -93.9692620785908 50 17.3648177666933 -98.4807753012208 50 2.84822621217373e-13 -100 50 -17.3648177666927 -98.4807753012209 50 -34.2020143325666 -93.969262078591 50 -49.9999999999997 -86.602540378444 50 -64.2787609686536 -76.604444311898 50 -76.6044443118976 -64.2787609686542 50 -86.6025403784437 -50.0000000000004 50 -93.9692620785907 -34.2020143325673 50 -98.4807753012207 -17.3648177666935 50 -100 0 0 -98.4807753012208 17.364817766693 0 -93.9692620785908 34.2020143325669 0 -86.6025403784439 50 0 -76.6044443118978 64.2787609686539 0 -64.2787609686539 76.6044443118978 0 -50 86.6025403784439 0 -34.2020143325669 93.9692620785908 0 -17.364817766693 98.4807753012208 0 -6.12303176911189e-15 100 0 17.364817766693 98.4807753012208 0 34.2020143325669 93.9692620785908 0 50 86.6025403784439 0 64.2787609686539 76.6044443118978 0 76.6044443118978 64.278760968654 0 86.6025403784438 50.0000000000001 0 93.9692620785908 34.202014332567 0 98.4807753012208 17.3648177666932 0 100 1.45472826493243e-13 0 98.4807753012208 -17.3648177666929 0 93.9692620785909 -34.2020143325667 0 86.602540378444 -49.9999999999998 0 76.604444311898 -64.2787609686538 0 64.2787609686541 -76.6044443118977 0 50.0000000000002 -86.6025403784437 0 34.2020143325671 -93.9692620785908 0 17.3648177666933 -98.4807753012208 0 2.84822621217373e-13 -100 0 -17.3648177666927 -98.4807753012209 0 -34.2020143325666 -93.969262078591 0 -49.9999999999997 -86.602540378444 0 -64.2787609686536 -76.604444311898 0 -76.6044443118976 -64.2787609686542 0 -86.6025403784437 -50.0000000000004 0 -93.9692620785907 -34.2020143325673 0 -98.4807753012207 -17.3648177666935 0 0 0 0 -50 6.28318530717959 -50 0.174532925199433 -50 0.349065850398866 -50 0.523598775598299 -50 0.698131700797732 -50 0.872664625997165 -50 1.0471975511966 -50 1.22173047639603 -50 1.39626340159546 -50 1.5707963267949 -50 1.74532925199433 -50 1.91986217719376 -50 2.0943951023932 -50 2.26892802759263 -50 2.44346095279206 -50 2.61799387799149 -50 2.79252680319093 -50 2.96705972839036 -50 3.14159265358979 -50 3.31612557878922 -50 3.49065850398866 -50 3.66519142918809 -50 3.83972435438752 -50 4.01425727958696 -50 4.18879020478639 -50 4.36332312998582 -50 4.53785605518525 -50 4.71238898038469 -50 4.88692190558412 -50 5.06145483078355 -50 5.23598775598299 -50 5.41052068118242 -50 5.58505360638185 -50 5.75958653158128 -50 5.93411945678072 -50 6.10865238198015 -50 6.28318530717959 0 0.174532925199433 0 0.349065850398866 0 0.523598775598299 0 0.698131700797732 0 0.872664625997165 0 1.0471975511966 0 1.22173047639603 0 1.39626340159546 0 1.5707963267949 0 1.74532925199433 0 1.91986217719376 0 2.0943951023932 0 2.26892802759263 0 2.44346095279206 0 2.61799387799149 0 2.79252680319093 0 2.96705972839036 0 3.14159265358979 0 3.31612557878922 0 3.49065850398866 0 3.66519142918809 0 3.83972435438752 0 4.01425727958696 0 4.18879020478639 0 4.36332312998582 0 4.53785605518525 0 4.71238898038469 0 4.88692190558412 0 5.06145483078355 0 5.23598775598299 0 5.41052068118242 0 5.58505360638185 0 5.75958653158128 0 5.93411945678072 0 6.10865238198015 0 59 58 23 60 23 24 60 24 25 60 59 23 1 2 4 61 25 26 61 60 25 40 4 5 40 1 4 62 26 27 62 61 26 41 5 6 41 40 5 63 27 28 63 62 27 42 41 6 64 63 28 43 6 7 43 42 6 65 28 29 65 29 30 65 64 28 44 7 8 44 8 9 44 43 7 66 30 31 66 65 30 45 44 9 67 66 31 46 45 9 46 9 10 68 31 32 68 32 33 68 67 31 47 10 11 47 46 10 69 33 34 69 68 33 48 47 11 48 11 12 70 69 34 49 12 13 49 48 12 71 70 34 71 34 35 71 35 36 50 13 14 50 49 13 72 71 36 72 36 37 51 14 15 51 50 14 73 72 37 52 15 16 74 73 37 52 16 17 52 51 15 74 37 38 74 38 3 39 74 3 53 52 17 54 17 18 54 18 19 54 53 17 55 19 20 55 54 19 56 55 20 57 20 21 57 21 22 57 56 20 58 22 23 58 57 22 
36 34 1 1.4210854715202e-14
-100 0 0 -98.4807753012208 17.364817766693 0 -93.9692620785908 34.2020143325669 0 -86.6025403784439 50 0 -76.6044443118978 64.2787609686539 0 -64.2787609686539 76.6044443118978 0 -50 86.6025403784439 0 -34.2020143325669 93.9692620785908 0 -17.364817766693 98.4807753012208 0 -6.12303176911189e-15 100 0 17.364817766693 98.4807753012208 0 34.2020143325669 93.9692620785908 0 50 86.6025403784439 0 64.2787609686539 76.6044443118978 0 76.6044443118978 64.278760968654 0 86.6025403784438 50.0000000000001 0 93.9692620785908 34.202014332567 0 98.4807753012208 17.3648177666932 0 100 1.45472826493243e-13 0 98.4807753012208 -17.3648177666929 0 93.9692620785909 -34.2020143325667 0 86.602540378444 -49.9999999999998 0 76.604444311898 -64.2787609686538 0 64.2787609686541 -76.6044443118977 0 50.0000000000002 -86.6025403784437 0 34.2020143325671 -93.9692620785908 0 17.3648177666933 -98.4807753012208 0 2.84822621217373e-13 -100 0 -17.3648177666927 -98.4807753012209 0 -34.2020143325666 -93.969262078591 0 -49.9999999999997 -86.602540378444 0 -64.2787609686536 -76.604444311898 0 -76.6044443118976 -64.2787609686542 0 -86.6025403784437 -50.0000000000004 0 -93.9692620785907 -34.2020143325673 0 -98.4807753012207 -17.3648177666935 0 0 0 1.5192246987792 17.364817766693 6.03073792140916 34.2020143325669 13.3974596215561 50 23.3955556881022 64.2787609686539 35.7212390313461 76.6044443118978 50 86.6025403784438 65.7979856674331 93.9692620785908 82.635182233307 98.4807753012208 100 100 117.364817766693 98.4807753012208 134.202014332567 93.9692620785908 150 86.6025403784439 164.278760968654 76.6044443118979 176.604444311898 64.278760968654 186.602540378444 50.0000000000001 193.969262078591 34.202014332567 198.480775301221 17.3648177666932 200 1.4210854715202e-13 198.480775301221 -17.3648177666929 193.969262078591 -34.2020143325667 186.602540378444 -49.9999999999998 176.604444311898 -64.2787609686538 164.278760968654 -76.6044443118977 150 -86.6025403784437 134.202014332567 -93.9692620785908 117.364817766693 -98.4807753012208 100 -100 82.6351822333073 -98.4807753012209 65.7979856674334 -93.969262078591 50.0000000000003 -86.602540378444 35.7212390313464 -76.604444311898 23.3955556881024 -64.2787609686542 13.3974596215563 -50.0000000000004 6.03073792140931 -34.2020143325673 1.51922469877928 -17.3648177666935 35 33 32 35 34 33 36 31 30 36 32 31 36 35 32 28 30 29 28 36 30 2 1 36 2 36 28 4 3 2 4 27 26 4 28 27 4 2 28 25 4 26 7 5 4 7 6 5 7 4 25 22 24 23 8 25 24 8 24 22 8 7 25 20 22 21 20 8 22 19 9 8 19 8 20 11 10 9 18 11 9 18 9 19 13 12 11 16 13 11 16 18 17 16 11 18 15 13 16 15 14 13 
72 72 1 1.4210854715202e-14
-100 0 0 -98.4807753012208 17.364817766693 0 -93.9692620785908 34.2020143325669 0 -86.6025403784439 50 0 -76.6044443118978 64.2787609686539 0 -64.2787609686539 76.6044443118978 0 -50 86.6025403784439 0 -34.2020143325669 93.9692620785908 0 -17.364817766693 98.4807753012208 0 -6.12303176911189e-15 100 0 17.364817766693 98.4807753012208 0 34.2020143325669 93.9692620785908 0 50 86.6025403784439 0 64.2787609686539 76.6044443118978 0 76.6044443118978 64.278760968654 0 86.6025403784438 50.0000000000001 0 93.9692620785908 34.202014332567 0 98.4807753012208 17.3648177666932 0 100 1.45472826493243e-13 0 98.4807753012208 -17.3648177666929 0 93.9692620785909 -34.2020143325667 0 86.602540378444 -49.9999999999998 0 76.604444311898 -64.2787609686538 0 64.2787609686541 -76.6044443118977 0 50.0000000000002 -86.6025403784437 0 34.2020143325671 -93.9692620785908 0 17.3648177666933 -98.4807753012208 0 2.84822621217373e-13 -100 0 -17.3648177666927 -98.4807753012209 0 -34.2020143325666 -93.969262078591 0 -49.9999999999997 -86.602540378444 0 -64.2787609686536 -76.604444311898 0 -76.6044443118976 -64.2787609686542 0 -86.6025403784437 -50.0000000000004 0 -93.9692620785907 -34.2020143325673 0 -98.4807753012207 -17.3648177666935 0 10 -2.44921270764475e-15 0 9.84807753012208 1.7364817766693 0 9.39692620785909 3.42020143325669 0 8.66025403784439 5 0 7.66044443118978 6.42787609686539 0 6.42787609686539 7.66044443118978 0 5 8.66025403784439 0 3.42020143325669 9.39692620785908 0 1.7364817766693 9.84807753012208 0 6.12303176911189e-16 10 0 -1.7364817766693 9.84807753012208 0 -3.42020143325669 9.39692620785909 0 -5 8.66025403784439 0 -6.42787609686539 7.66044443118978 0 -7.66044443118978 6.4278760968654 0 -8.66025403784438 5.00000000000001 0 -9.39692620785908 3.4202014332567 0 -9.84807753012208 1.73648177666932 0 -10 1.45472826493243e-14 0 -9.84807753012208 -1.73648177666929 0 -9.39692620785909 -3.42020143325667 0 -8.6602540378444 -4.99999999999998 0 -7.6604444311898 -6.42787609686538 0 -6.42787609686541 -7.66044443118977 0 -5.00000000000002 -8.66025403784437 0 -3.42020143325671 -9.39692620785907 0 -1.73648177666933 -9.84807753012208 0 -2.84822621217373e-14 -10 0 1.73648177666927 -9.84807753012209 0 3.42020143325666 -9.3969262078591 0 4.99999999999997 -8.6602540378444 0 6.42787609686536 -7.6604444311898 0 7.66044443118976 -6.42787609686542 0 8.66025403784437 -5.00000000000004 0 9.39692620785907 -3.42020143325673 0 9.84807753012207 -1.73648177666935 0 0 0 1.5192246987792 17.364817766693 6.03073792140916 34.2020143325669 13.3974596215561 50 23.3955556881022 64.2787609686539 35.7212390313461 76.6044443118978 50 86.6025403784438 65.7979856674331 93.9692620785908 82.635182233307 98.4807753012208 100 100 117.364817766693 98.4807753012208 134.202014332567 93.9692620785908 150 86.6025403784439 164.278760968654 76.6044443118979 176.604444311898 64.278760968654 186.602540378444 50.0000000000001 193.969262078591 34.202014332567 198.480775301221 17.3648177666932 200 1.4210854715202e-13 198.480775301221 -17.3648177666929 193.969262078591 -34.2020143325667 186.602540378444 -49.9999999999998 176.604444311898 -64.2787609686538 164.278760968654 -76.6044443118977 150 -86.6025403784437 134.202014332567 -93.9692620785908 117.364817766693 -98.4807753012208 100 -100 82.6351822333073 -98.4807753012209 65.7979856674334 -93.969262078591 50.0000000000003 -86.602540378444 35.7212390313464 -76.604444311898 23.3955556881024 -64.2787609686542 13.3974596215563 -50.0000000000004 6.03073792140931 -34.2020143325673 1.51922469877928 -17.3648177666935 110 0 109.848077530122 1.73648177666931 109.396926207859 3.42020143325669 108.660254037844 5 107.66044443119 6.42787609686539 106.427876096865 7.66044443118977 105 8.66025403784438 103.420201433257 9.39692620785908 101.736481776669 9.84807753012208 100 10 98.2635182233307 9.84807753012208 96.5797985667433 9.39692620785908 95 8.66025403784438 93.5721239031346 7.66044443118979 92.3395555688102 6.4278760968654 91.3397459621556 5.00000000000001 90.6030737921409 3.42020143325669 90.1519224698779 1.73648177666932 90 1.4210854715202e-14 90.1519224698779 -1.73648177666929 90.6030737921409 -3.42020143325666 91.3397459621556 -4.99999999999999 92.3395555688102 -6.42787609686538 93.5721239031346 -7.66044443118977 95 -8.66025403784437 96.5797985667433 -9.39692620785908 98.2635182233307 -9.84807753012208 100 -10 101.736481776669 -9.84807753012208 103.420201433257 -9.3969262078591 105 -8.6602540378444 106.427876096865 -7.6604444311898 107.66044443119 -6.42787609686542 108.660254037844 -5.00000000000003 109.396926207859 -3.42020143325672 109.848077530122 -1.73648177666935 65 64 28 65 28 27 21 71 70 21 72 71 54 2 1 21 70 22 54 1 55 9 8 47 66 65 27 66 27 26 53 3 2 20 72 21 20 37 72 53 2 54 67 26 25 10 47 46 10 9 47 67 66 26 52 4 3 52 5 4 52 3 53 68 67 25 68 25 24 19 37 20 51 5 52 11 46 45 11 10 46 69 68 24 18 38 37 18 39 38 18 37 19 12 44 43 12 45 44 12 11 45 17 40 39 17 39 18 60 33 32 13 12 43 16 40 17 16 41 40 59 34 33 14 13 43 59 33 60 14 43 42 15 41 16 15 14 42 15 42 41 61 32 31 61 60 32 58 34 59 6 5 51 58 35 34 6 50 49 6 51 50 62 61 31 23 69 24 62 31 30 57 35 58 57 36 35 63 62 30 63 30 29 56 36 57 7 6 49 64 63 29 22 69 23 22 70 69 64 29 28 8 48 47 8 49 48 55 1 36 55 36 56 8 7 49 
74 72 1 0.0380530190825463
10 -2.44921270764475e-15 0 10 -2.44921270764475e-15 0 9.84807753012208 1.7364817766693 0 9.39692620785909 3.42020143325669 0 8.66025403784439 5 0 7.66044443118978 6.42787609686539 0 6.42787609686539 7.66044443118978 0 5 8.66025403784439 0 3.42020143325669 9.39692620785908 0 1.7364817766693 9.84807753012208 0 6.12303176911189e-16 10 0 -1.7364817766693 9.84807753012208 0 -3.42020143325669 9.39692620785909 0 -5 8.66025403784439 0 -6.42787609686539 7.66044443118978 0 -7.66044443118978 6.4278760968654 0 -8.66025403784438 5.00000000000001 0 -9.39692620785908 3.4202014332567 0 -9.84807753012208 1.73648177666932 0 -10 1.45472826493243e-14 0 -9.84807753012208 -1.73648177666929 0 -9.39692620785909 -3.42020143325667 0 -8.6602540378444 -4.99999999999998 0 -7.6604444311898 -6.42787609686538 0 -6.42787609686541 -7.66044443118977 0 -5.00000000000002 -8.66025403784437 0 -3.42020143325671 -9.39692620785907 0 -1.73648177666933 -9.84807753012208 0 -2.84822621217373e-14 -10 0 1.73648177666927 -9.84807753012209 0 3.42020143325666 -9.3969262078591 0 4.99999999999997 -8.6602540378444 0 6.42787609686536 -7.6604444311898 0 7.66044443118976 -6.42787609686542 0 8.66025403784437 -5.00000000000004 0 9.39692620785907 -3.42020143325673 0 9.84807753012207 -1.73648177666935 0 10 -2.44921270764475e-15 10 10 -2.44921270764475e-15 10 9.84807753012208 1.7364817766693 10 9.39692620785909 3.42020143325669 10 8.66025403784439 5 10 7.66044443118978 6.42787609686539 10 6.42787609686539 7.66044443118978 10 5 8.66025403784439 10 3.42020143325669 9.39692620785908 10 1.7364817766693 9.84807753012208 10 6.12303176911189e-16 10 10 -1.7364817766693 9.84807753012208 10 -3.42020143325669 9.39692620785909 10 -5 8.66025403784439 10 -6.42787609686539 7.66044443118978 10 -7.66044443118978 6.4278760968654 10 -8.66025403784438 5.00000000000001 10 -9.39692620785908 3.4202014332567 10 -9.84807753012208 1.73648177666932 10 -10 1.45472826493243e-14 10 -9.84807753012208 -1.73648177666929 10 -9.39692620785909 -3.42020143325667 10 -8.6602540378444 -4.99999999999998 10 -7.6604444311898 -6.42787609686538 10 -6.42787609686541 -7.66044443118977 10 -5.00000000000002 -8.66025403784437 10 -3.42020143325671 -9.39692620785907 10 -1.73648177666933 -9.84807753012208 10 -2.84822621217373e-14 -10 10 1.73648177666927 -9.84807753012209 10 3.42020143325666 -9.3969262078591 10 4.99999999999997 -8.6602540378444 10 6.42787609686536 -7.6604444311898 10 7.66044443118976 -6.42787609686542 10 8.66025403784437 -5.00000000000004 10 9.39692620785907 -3.42020143325673 10 9.84807753012207 -1.73648177666935 10 0 0 6.28318530717959 0 0.174532925199433 0 0.349065850398866 0 0.523598775598299 0 0.698131700797732 0 0.872664625997165 0 1.0471975511966 0 1.22173047639603 0 1.39626340159546 0 1.5707963267949 0 1.74532925199433 0 1.91986217719376 0 2.0943951023932 0 2.26892802759263 0 2.44346095279206 0 2.61799387799149 0 2.79252680319093 0 2.96705972839036 0 3.14159265358979 0 3.31612557878922 0 3.49065850398866 0 3.66519142918809 0 3.83972435438752 0 4.01425727958696 0 4.18879020478639 0 4.36332312998582 0 4.53785605518525 0 4.71238898038469 0 4.88692190558412 0 5.06145483078355 0 5.23598775598299 0 5.41052068118242 0 5.58505360638185 0 5.75958653158128 0 5.93411945678072 0 6.10865238198015 0 0 10 6.28318530717959 10 0.174532925199433 10 0.349065850398866 10 0.523598775598299 10 0.698131700797732 10 0.872664625997165 10 1.0471975511966 10 1.22173047639603 10 1.39626340159546 10 1.5707963267949 10 1.74532925199433 10 1.91986217719376 10 2.0943951023932 10 2.26892802759263 10 2.44346095279206 10 2.61799387799149 10 2.79252680319093 10 2.96705972839036 10 3.14159265358979 10 3.31612557878922 10 3.49065850398866 10 3.66519142918809 10 3.83972435438752 10 4.01425727958696 10 4.18879020478639 10 4.36332312998582 10 4.53785605518525 10 4.71238898038469 10 4.88692190558412 10 5.06145483078355 10 5.23598775598299 10 5.41052068118242 10 5.58505360638185 10 5.75958653158128 10 5.93411945678072 10 6.10865238198015 10 57 19 20 57 56 19 58 20 21 58 21 22 58 57 20 59 58 22 40 1 3 60 22 23 40 38 1 60 59 22 41 3 4 41 40 3 61 23 24 42 4 5 42 41 4 61 60 23 62 24 25 62 61 24 43 5 6 43 42 5 63 25 26 44 6 7 63 62 25 44 43 6 64 26 27 64 27 28 64 63 26 65 64 28 45 44 7 45 7 8 46 8 9 66 28 29 46 45 8 66 65 28 47 9 10 47 46 9 67 29 30 67 66 29 48 47 10 48 10 11 68 30 31 68 67 30 49 11 12 49 48 11 69 31 32 69 32 33 69 68 31 70 69 33 50 12 13 50 49 12 71 70 33 71 33 34 51 13 14 51 14 15 51 50 13 72 71 34 72 34 35 52 51 15 73 72 35 73 35 36 53 15 16 53 16 17 74 73 36 53 52 15 74 36 37 74 37 2 39 74 2 54 53 17 55 17 18 55 54 17 56 18 19 56 55 18 
74 72 1 0.0380530190825463
10 -2.44921270764475e-15 10 10 -2.44921270764475e-15 10 9.84807753012208 1.7364817766693 10 9.39692620785909 3.42020143325669 10 8.66025403784439 5 10 7.66044443118978 6.42787609686539 10 6.42787609686539 7.66044443118978 10 5 8.66025403784439 10 3.42020143325669 9.39692620785908 10 1.7364817766693 9.84807753012208 10 6.12303176911189e-16 10 10 -1.7364817766693 9.84807753012208 10 -3.42020143325669 9.39692620785909 10 -5 8.66025403784439 10 -6.42787609686539 7.66044443118978 10 -7.66044443118978 6.4278760968654 10 -8.66025403784438 5.00000000000001 10 -9.39692620785908 3.4202014332567 10 -9.84807753012208 1.73648177666932 10 -10 1.45472826493243e-14 10 -9.84807753012208 -1.73648177666929 10 -9.39692620785909 -3.42020143325667 10 -8.6602540378444 -4.99999999999998 10 -7.6604444311898 -6.42787609686538 10 -6.42787609686541 -7.66044443118977 10 -5.00000000000002 -8.66025403784437 10 -3.42020143325671 -9.39692620785907 10 -1.73648177666933 -9.84807753012208 10 -2.84822621217373e-14 -10 10 1.73648177666927 -9.84807753012209 10 3.42020143325666 -9.3969262078591 10 4.99999999999997 -8.6602540378444 10 6.42787609686536 -7.6604444311898 10 7.66044443118976 -6.42787609686542 10 8.66025403784437 -5.00000000000004 10 9.39692620785907 -3.42020143325673 10 9.84807753012207 -1.73648177666935 10 10 -2.44921270764475e-15 20 10 -2.44921270764475e-15 20 9.84807753012208 1.7364817766693 20 9.39692620785909 3.42020143325669 20 8.66025403784439 5 20 7.66044443118978 6.42787609686539 20 6.42787609686539 7.66044443118978 20 5 8.66025403784439 20 3.42020143325669 9.39692620785908 20 1.7364817766693 9.84807753012208 20 6.12303176911189e-16 10 20 -1.7364817766693 9.84807753012208 20 -3.42020143325669 9.39692620785909 20 -5 8.66025403784439 20 -6.42787609686539 7.66044443118978 20 -7.66044443118978 6.4278760968654 20 -8.66025403784438 5.00000000000001 20 -9.39692620785908 3.4202014332567 20 -9.84807753012208 1.73648177666932 20 -10 1.45472826493243e-14 20 -9.84807753012208 -1.73648177666929 20 -9.39692620785909 -3.42020143325667 20 -8.6602540378444 -4.99999999999998 20 -7.6604444311898 -6.42787609686538 20 -6.42787609686541 -7.66044443118977 20 -5.00000000000002 -8.66025403784437 20 -3.42020143325671 -9.39692620785907 20 -1.73648177666933 -9.84807753012208 20 -2.84822621217373e-14 -10 20 1.73648177666927 -9.84807753012209 20 3.42020143325666 -9.3969262078591 20 4.99999999999997 -8.6602540378444 20 6.42787609686536 -7.6604444311898 20 7.66044443118976 -6.42787609686542 20 8.66025403784437 -5.00000000000004 20 9.39692620785907 -3.42020143325673 20 9.84807753012207 -1.73648177666935 20 0 0 6.28318530717959 0 0.174532925199433 0 0.349065850398866 0 0.523598775598299 0 0.698131700797732 0 0.872664625997165 0 1.0471975511966 0 1.22173047639603 0 1.39626340159546 0 1.5707963267949 0 1.74532925199433 0 1.91986217719376 0 2.0943951023932 0 2.26892802759263 0 2.44346095279206 0 2.61799387799149 0 2.79252680319093 0 2.96705972839036 0 3.14159265358979 0 3.31612557878922 0 3.49065850398866 0 3.66519142918809 0 3.83972435438752 0 4.01425727958696 0 4.18879020478639 0 4.36332312998582 0 4.53785605518525 0 4.71238898038469 0 4.88692190558412 0 5.06145483078355 0 5.23598775598299 0 5.41052068118242 0 5.58505360638185 0 5.75958653158128 0 5.93411945678072 0 6.10865238198015 0 6.28318530717959 -10 0 -10 0.174532925199433 -10 0.349065850398866 -10 0.523598775598299 -10 0.698131700797732 -10 0.872664625997165 -10 1.0471975511966 -10 1.22173047639603 -10 1.39626340159546 -10 1.5707963267949 -10 1.74532925199433 -10 1.91986217719376 -10 2.0943951023932 -10 2.26892802759263 -10 2.44346095279206 -10 2.61799387799149 -10 2.79252680319093 -10 2.96705972839036 -10 3.14159265358979 -10 3.31612557878922 -10 3.49065850398866 -10 3.66519142918809 -10 3.83972435438752 -10 4.01425727958696 -10 4.18879020478639 -10 4.36332312998582 -10 4.53785605518525 -10 4.71238898038469 -10 4.88692190558412 -10 5.06145483078355 -10 5.23598775598299 -10 5.41052068118242 -10 5.58505360638185 -10 5.75958653158128 -10 5.93411945678072 -10 6.10865238198015 -10 20 19 56 20 56 57 21 57 58 21 20 57 21 58 59 22 21 59 3 39 40 3 1 39 23 59 60 23 22 59 4 40 41 24 60 61 4 3 40 24 23 60 5 41 42 5 4 41 25 61 62 25 24 61 6 42 43 6 5 42 26 62 63 7 43 44 26 25 62 7 6 43 27 63 64 27 64 65 8 7 44 27 26 63 8 44 45 28 27 65 9 8 45 9 45 46 29 65 66 10 9 46 29 28 65 10 46 47 30 66 67 30 29 66 11 10 47 11 47 48 31 67 68 31 30 67 12 11 48 12 48 49 32 68 69 32 69 70 32 31 68 13 12 49 13 49 50 33 32 70 34 33 70 34 70 71 14 13 50 14 50 51 14 51 52 35 34 71 35 71 72 15 14 52 36 35 72 36 72 73 16 15 52 16 52 53 16 53 54 37 36 73 37 73 74 37 74 38 2 37 38 17 16 54 18 17 54 18 54 55 19 18 55 19 55 56 
36 34 1 1.33226762955019e-15
10 -2.44921270764475e-15 10 9.84807753012208 1.7364817766693 10 9.39692620785909 3.42020143325669 10 8.66025403784439 5 10 7.66044443118978 6.42787609686539 10 6.42787609686539 7.66044443118978 10 5 8.66025403784439 10 3.42020143325669 9.39692620785908 10 1.7364817766693 9.84807753012208 10 6.12303176911189e-16 10 10 -1.7364817766693 9.84807753012208 10 -3.42020143325669 9.39692620785909 10 -5 8.66025403784439 10 -6.42787609686539 7.66044443118978 10 -7.66044443118978 6.4278760968654 10 -8.66025403784438 5.00000000000001 10 -9.39692620785908 3.4202014332567 10 -9.84807753012208 1.73648177666932 10 -10 1.45472826493243e-14 10 -9.84807753012208 -1.73648177666929 10 -9.39692620785909 -3.42020143325667 10 -8.6602540378444 -4.99999999999998 10 -7.6604444311898 -6.42787609686538 10 -6.42787609686541 -7.66044443118977 10 -5.00000000000002 -8.66025403784437 10 -3.42020143325671 -9.39692620785907 10 -1.73648177666933 -9.84807753012208 10 -2.84822621217373e-14 -10 10 1.73648177666927 -9.84807753012209 10 3.42020143325666 -9.3969262078591 10 4.99999999999997 -8.6602540378444 10 6.42787609686536 -7.6604444311898 10 7.66044443118976 -6.42787609686542 10 8.66025403784437 -5.00000000000004 10 9.39692620785907 -3.42020143325673 10 9.84807753012207 -1.73648177666935 10 10 -1.77635683940025e-15 9.84807753012208 1.7364817766693 9.39692620785909 3.42020143325669 8.66025403784439 5 7.66044443118978 6.42787609686539 6.42787609686539 7.66044443118978 5 8.66025403784439 3.42020143325669 9.39692620785908 1.7364817766693 9.84807753012208 0 10 -1.7364817766693 9.84807753012208 -3.42020143325669 9.39692620785909 -5 8.66025403784439 -6.42787609686539 7.66044443118978 -7.66044443118978 6.4278760968654 -8.66025403784438 5.00000000000001 -9.39692620785908 3.4202014332567 -9.84807753012208 1.73648177666932 -10 1.4210854715202e-14 -9.84807753012208 -1.73648177666929 -9.39692620785909 -3.42020143325667 -8.6602540378444 -4.99999999999998 -7.6604444311898 -6.42787609686538 -6.42787609686541 -7.66044443118977 -5.00000000000002 -8.66025403784437 -3.42020143325671 -9.39692620785907 -1.73648177666933 -9.84807753012208 -2.8421709430404e-14 -10 1.73648177666927 -9.84807753012209 3.42020143325666 -9.3969262078591 4.99999999999997 -8.6602540378444 6.42787609686536 -7.6604444311898 7.66044443118976 -6.42787609686542 8.66025403784437 -5.00000000000004 9.39692620785907 -3.42020143325673 9.84807753012207 -1.73648177666935 25 23 24 26 22 23 26 23 25 20 21 22 28 26 27 18 19 20 31 17 18 31 28 29 31 29 30 31 20 22 31 22 26 31 26 28 31 18 20 35 16 17 35 31 32 35 32 33 35 33 34 35 17 31 11 12 13 11 13 14 11 14 15 11 15 16 11 35 36 11 16 35 9 10 11 2 36 1 2 11 36 8 9 11 8 11 2 7 8 2 7 2 3 5 3 4 5 7 3 6 7 5 

TShapes 27
Ve
1.0001000025e-07
-100 0 0
0 0

0101101
*
Ed
 1e-07 1 1 0
1  1 0 0 50
3  1 2CN 1 0 0 50
7  1 2 1 0
0

0101000
+27 0 -27 1 *
Ed
 1.0001000025e-07 1 1 0
1  2 0 0 6.28318530717959
2  3 1 0 0 6.28318530717959
2  4 1 2 0 6.28318530717959
2  5 2 0 0 6.28318530717959
6  3 1 0
6  4 1 2
6  5 2 0
6  6 3 0
0

0101100
+27 0 -27 0 *
Wi

0101100
+26 0 +25 1 -26 0 -25 0 *
Fa
0  1e-07 1 0
2  1
0101000
+24 0 *
Wi

0101100
+25 0 *
Fa
0  1e-07 2 0
2  2
0101000
-22 0 *
Wi

0101000
-25 0 *
Ve
1.00005e-07
10 -2.44921270764475e-15 0
0 0

0101101
*
Ed
 1.00005e-07 1 1 0
1  3 0 0 6.28318530717959
2  6 3 0 0 6.28318530717959
2  7 4 0 0 6.28318530717959
2  8 2 0 0 6.28318530717959
6  7 4 0
6  8 3 0
0

0101100
+19 0 -19 0 *
Wi

0101000
-18 0 *
Fa
0  1e-07 2 0
2  3
0101000
+20 0 +17 0 *
Ve
1.00005e-07
10 -2.44921270764475e-15 10
0 0

0101101
*
Ed
 1e-07 1 1 0
1  4 0 0 10
3  9 10CN 3 0 0 10
7  9 10 4 0
0

0101000
+19 0 -15 0 *
Ed
 1.00005e-07 1 1 0
1  5 0 0 6.28318530717959
2  11 3 0 0 6.28318530717959
2  12 5 0 0 6.28318530717959
2  13 6 0 0 6.28318530717959
2  14 6 4 0 6.28318530717959
6  11 4 0
6  12 5 0
6  13 6 0
0

0101100
+15 0 -15 0 *
Wi

0101000
+18 0 -14 0 -13 0 +14 0 *
Fa
0  1e-07 3 0
2  4
0101000
+12 0 *
Wi

0101000
+13 0 *
Fa
0  1e-07 5 0
2  6
0101000
+10 0 *
Sh

0101100
+23 0 +21 1 -16 0 -11 0 -9 0 *
Ve
1e-07
10 -2.44921270764475e-15 10
0 0

0101101
*
Ed
 1e-07 1 1 0
1  6 0 0 10
3  15 16CN 6 0 0 10
7  14 15 5 0
0

0101000
+15 0 -7 5 *
Ed
 1e-07 1 1 0
1  5 0 0 6.28318530717959
2  11 3 0 0 6.28318530717959
2  12 5 0 0 6.28318530717959
2  13 6 0 0 6.28318530717959
2  14 6 6 0 6.28318530717959
6  16 5 6
0

0101100
+7 0 -7 0 *
Wi

0101000
-13 0 -6 0 +5 5 +6 0 *
Fa
0  1e-07 6 0
2  5
0101000
+4 0 *
Sh

0101000
i3 0 *
So

0100000
+8 0 +2 0 *

+1 0 