DBRep_DrawableShape

CASCADE Topology V1, (c) Matra-Datavision
Locations 0
Curve2ds 32
1 0 0 0 1 
1 0 0 1 0 
1 3 3 0 -1 
1 3 0 0 1 
1 3 19 -1 0 
1 0 0 0 1 
1 0 0 1 0 
1 3 3 0 -1 
1 0 0 1 0 
1 0 3 1 0 
1 0 0 0 1 
1 3 0 0 1 
1 3 19 -1 0 
1 0 0 0 1 
1 0 0 1 0 
1 3 0 0 1 
1 3 0 -1 0 
1 0 3 1 0 
1 0 0 0 1 
1 3 0 0 1 
1 0 19 1 0 
1 0 3 0 -1 
1 0 0 1 0 
1 3 0 0 1 
1 3 0 -1 0 
1 0 3 1 0 
1 0 0 0 1 
1 3 0 0 1 
1 3 19 -1 0 
1 0 0 0 1 
1 0 0 1 0 
1 0 3 1 0 
Curves 16
7 0 0  3 22 20  94.163000000000011 16.419499999999999 23.650000000000009  94.163372143526374 16.399542627222402 23.650000000000009  94.165384230125952 16.359635623373894 23.650000000000023  94.17272221544502 16.300149293489891 23.650000000000002  94.184912469659096 16.241454172773722 23.650000000000002  94.20198400561371 16.183990146620683 23.650000000000016  94.223779343915837 16.128146676624787 23.650000000000038  94.250139646239276 16.074308070035997 23.650000000000031  94.2808498532073 16.022827465816029 23.650000000000023  94.315674804433399 15.974036644953767 23.65000000000002  94.354386548128687 15.928267558335692 23.650000000000016  94.39676024605032 15.885864424787519 23.650000000000002  94.442530282996941 15.847152424566371 23.650000000000016  94.491331230128822 15.812341365181599 23.650000000000009  94.542822045753411 15.78164895230783 23.65000000000002  94.596659616167486 15.755286744499408 23.650000000000023  94.652500743452265 15.733486818093702 23.650000000000023  94.709959047250123 15.716394464408419 23.650000000000016  94.768650858365277 15.704192691448918 23.650000000000027  94.828131654902563 15.69680944216827 23.650000000000013  94.868042030254088 15.694818903043418 23.650000000000009  94.888000000000034 15.6945 23.650000000000009 
 0 4 1 1 2 1 3 1 4 1 5 1 6 1 7 1 8 1 9 1 10 1 11 1 12 1 13 1 14 1 15 1 16 1 17 1 18 1 19 4
7 0 0  3 6 4  94.163000000000011 16.419499999999999 23.650000000000009  94.1726666666667 16.342888888888897 23.486666666666675  94.192000000000121 16.189666666666689 23.160000000000007  94.221000000000146 15.959833333333346 22.670000000000023  94.24033333333341 15.806611111111117 22.343333333333344  94.250000000000014 15.73 22.18000000000001 
 0 4 1 1 2 1 3 4
7 0 0  3 6 4  94.250000000000014 15.73 22.18000000000001  94.320888888889058 15.726055555555591 22.343333333333277  94.462666666666948 15.718166666666722 22.669999999999902  94.675333333333441 15.706333333333346 23.16  94.817111111111117 15.698444444444437 23.486666666666689  94.888000000000034 15.6945 23.650000000000009 
 0 4 1 1 2 1 3 4
7 0 0  3 6 4  94.250000000000014 15.73 22.18000000000001  94.39177777777779 15.73 22.18000000000001  94.675333333333313 15.729999999999995 22.18000000000001  95.100666666666712 15.730000000000002 22.180000000000025  95.38422222222222 15.73 22.18000000000001  95.525999999999996 15.73 22.18000000000001 
 0 4 1 1 2 1 3 4
7 0 0  3 6 4  94.888000000000034 15.6945 23.650000000000009  94.958888888889035 15.698444444444476 23.486666666666725  95.100666666666868 15.706333333333385 23.160000000000093  95.313333333333404 15.718166666666681 22.670000000000037  95.455111111111094 15.726055555555549 22.343333333333337  95.525999999999996 15.73 22.18000000000001 
 0 4 1 1 2 1 3 4
7 0 0  3 22 20  94.888000000000034 15.6945 23.650000000000009  94.907957372777631 15.694872143526396 23.650000000000016  94.947864376626157 15.696884230125965 23.650000000000027  95.007350706510167 15.704222215444997 23.650000000000013  95.06604582722629 15.716412469659042 23.650000000000002  95.123509853379389 15.733484005613622 23.650000000000016  95.179353323375253 15.755279343915785 23.650000000000038  95.233191929963965 15.781639646239208 23.650000000000041  95.284672534183997 15.812349853207328 23.650000000000023  95.33346335504622 15.84717480443336 23.65000000000002  95.379232441664286 15.885886548128695 23.649999999999995  95.421635575212477 15.928260246050309 23.649999999999988  95.46034757543363 15.974030282996949 23.649999999999988  95.495158634818409 16.022831230128759 23.650000000000002  95.525851047692171 16.074322045753384 23.650000000000013  95.552213255500618 16.128159616167441 23.650000000000013  95.574013181906324 16.184000743452248 23.650000000000009  95.591105535591552 16.241459047250128 23.650000000000013  95.603307308551081 16.300150858365189 23.650000000000006  95.610690557831703 16.359631654902518 23.650000000000023  95.612681096956578 16.399542030254054 23.650000000000009  95.613000000000014 16.419499999999999 23.650000000000009 
 0 4 1 1 2 1 3 1 4 1 5 1 6 1 7 1 8 1 9 1 10 1 11 1 12 1 13 1 14 1 15 1 16 1 17 1 18 1 19 4
7 0 0  3 6 4  95.525999999999996 15.73 22.18000000000001  95.535666666666756 15.80661111111112 22.343333333333334  95.55500000000022 15.95983333333335 22.670000000000002  95.584000000000174 16.189666666666671 23.160000000000004  95.603333333333396 16.34288888888889 23.486666666666672  95.613000000000014 16.419499999999999 23.650000000000009 
 0 4 1 1 2 1 3 4
7 0 0  3 6 4  95.525999999999996 15.73 22.18000000000001  95.525999999999996 15.883222222222225 22.18000000000001  95.52600000000001 16.189666666666675 22.180000000000017  95.526000000000025 16.649333333333342 22.180000000000003  95.52600000000001 16.955777777777779 22.180000000000003  95.52600000000001 17.109000000000002 22.18 
 0 4 1 1 2 1 3 4
7 0 0  3 6 4  95.52600000000001 17.109000000000002 22.18  95.535666666666742 17.032388888888924 22.343333333333344  95.555000000000135 16.879166666666727 22.670000000000009  95.584000000000131 16.649333333333356 23.160000000000007  95.603333333333381 16.496111111111109 23.486666666666661  95.613000000000014 16.419499999999999 23.649999999999999 
 0 4 1 1 2 1 3 4
7 0 0  3 22 20  95.613000000000014 16.419499999999999 23.649999999999999  95.612627856473637 16.439457372777596 23.650000000000006  95.610615769874059 16.479364376626098 23.650000000000009  95.603277784554962 16.538850706510097 23.649999999999995  95.591087530340914 16.597545827226288 23.649999999999984  95.574015994386357 16.65500985337933 23.649999999999995  95.552220656084245 16.710853323375247 23.650000000000023  95.525860353760876 16.764691929964009 23.650000000000013  95.495150146792724 16.816172534183984 23.650000000000016  95.460325195566625 16.864963355046211 23.650000000000002  95.421613451871309 16.910732441664273 23.649999999999999  95.379239753949733 16.953135575212439 23.649999999999984  95.333469717003069 16.991847575433617 23.649999999999995  95.284668769871246 17.02665863481845 23.650000000000009  95.233177954246699 17.057351047692215 23.650000000000016  95.179340383832567 17.083713255500651 23.650000000000031  95.123499256547873 17.105513181906357 23.650000000000031  95.066040952749873 17.1226055355916 23.650000000000013  95.007349141634847 17.134807308551082 23.650000000000006  94.947868345097518 17.142190557831722 23.650000000000023  94.907957969745979 17.144181096956572 23.650000000000013  94.888000000000034 17.144500000000001 23.650000000000009 
 0 4 1 1 2 1 3 1 4 1 5 1 6 1 7 1 8 1 9 1 10 1 11 1 12 1 13 1 14 1 15 1 16 1 17 1 18 1 19 4
7 0 0  3 6 4  94.888000000000034 17.144500000000001 23.650000000000009  94.95888888888895 17.140555555555565 23.486666666666689  95.100666666666797 17.13266666666669 23.16000000000005  95.313333333333432 17.120833333333344 22.670000000000037  95.455111111111137 17.112944444444448 22.343333333333348  95.52600000000001 17.109000000000002 22.18000000000001 
 0 4 1 1 2 1 3 4
7 0 0  3 6 4  95.52600000000001 17.109000000000002 22.18000000000001  95.384222222222235 17.109000000000002 22.18000000000001  95.100666666666697 17.109000000000005 22.180000000000021  94.67533333333337 17.109000000000005 22.18000000000001  94.39177777777779 17.109000000000002 22.18000000000001  94.250000000000014 17.109000000000002 22.18000000000001 
 0 4 1 1 2 1 3 4
7 0 0  3 6 4  94.250000000000014 17.109000000000002 22.18000000000001  94.320888888889044 17.112944444444491 22.34333333333328  94.462666666666905 17.120833333333405 22.669999999999892  94.675333333333498 17.132666666666697 23.159999999999979  94.81711111111116 17.140555555555554 23.486666666666672  94.888000000000034 17.144500000000001 23.650000000000009 
 0 4 1 1 2 1 3 4
7 0 0  3 22 20  94.888000000000034 17.144500000000001 23.650000000000009  94.868042627222422 17.144127856473609 23.650000000000009  94.828135623373882 17.142115769874032 23.650000000000009  94.768649293489972 17.134777784554991 23.650000000000013  94.709954172773706 17.122587530340972 23.650000000000006  94.652490146620721 17.105515994386391 23.650000000000013  94.596646676624786 17.083720656084186 23.650000000000023  94.542808070036088 17.057360353760757 23.650000000000023  94.49132746581607 17.02665014679263 23.650000000000016  94.44253664495379 16.991825195566648 23.65000000000002  94.396767558335725 16.953113451871303 23.650000000000006  94.354364424787519 16.910739753949752 23.650000000000009  94.315652424566352 16.864969717003099 23.650000000000002  94.280841365181573 16.816168769871261 23.65000000000002  94.250148952307853 16.764677954246647 23.650000000000013  94.223786744499421 16.710840383832558 23.650000000000013  94.201986818093729 16.654999256547757 23.65000000000002  94.184894464408444 16.597540952749878 23.650000000000009  94.172692691448944 16.53884914163482 23.650000000000013  94.165309442168351 16.479368345097484 23.650000000000023  94.163318903043447 16.439457969745945 23.650000000000013  94.163000000000011 16.419499999999999 23.650000000000009 
 0 4 1 1 2 1 3 1 4 1 5 1 6 1 7 1 8 1 9 1 10 1 11 1 12 1 13 1 14 1 15 1 16 1 17 1 18 1 19 4
7 0 0  3 6 4  94.250000000000014 17.109000000000009 22.18000000000001  94.240333333333467 17.032388888888921 22.343333333333359  94.221000000000259 16.87916666666672 22.670000000000037  94.192000000000149 16.649333333333363 23.160000000000036  94.172666666666714 16.496111111111119 23.486666666666682  94.163000000000011 16.419499999999999 23.650000000000009 
 0 4 1 1 2 1 3 4
7 0 0  3 6 4  94.250000000000014 17.109000000000009 22.18000000000001  94.250000000000014 16.955777777777786 22.18000000000001  94.250000000000014 16.649333333333338 22.180000000000021  94.250000000000057 16.189666666666682 22.18000000000001  94.250000000000014 15.883222222222225 22.18000000000001  94.250000000000014 15.73 22.18000000000001 
 0 4 1 1 2 1 3 4
Polygon3D 0
PolygonOnTriangulations 0
Surfaces 8
9 0 0 0 0 3 3 6 22 4 20 94.163000000000011 16.419499999999999 23.650000000000009  94.163372143526374 16.399542627222402 23.650000000000009  94.165384230125952 16.359635623373894 23.650000000000023  94.17272221544502 16.300149293489891 23.650000000000002  94.184912469659096 16.241454172773722 23.650000000000002  94.20198400561371 16.183990146620683 23.650000000000016  94.223779343915837 16.128146676624787 23.650000000000038  94.250139646239276 16.074308070035997 23.650000000000031  94.2808498532073 16.022827465816029 23.650000000000023  94.315674804433399 15.974036644953767 23.65000000000002  94.354386548128687 15.928267558335692 23.650000000000016  94.39676024605032 15.885864424787519 23.650000000000002  94.442530282996941 15.847152424566371 23.650000000000016  94.491331230128822 15.812341365181599 23.650000000000009  94.542822045753411 15.78164895230783 23.65000000000002  94.596659616167486 15.755286744499408 23.650000000000023  94.652500743452265 15.733486818093702 23.650000000000023  94.709959047250123 15.716394464408419 23.650000000000016  94.768650858365277 15.704192691448918 23.650000000000027  94.828131654902563 15.69680944216827 23.650000000000013  94.868042030254088 15.694818903043418 23.650000000000009  94.888000000000034 15.6945 23.650000000000009  
94.1726666666667 16.342888888888897 23.486666666666675  94.172965563667603 16.325148607911007 23.486666666666679  94.174748526229635 16.289673532306544 23.486666666666689  94.181322882127276 16.236803577713165 23.486666666666689  94.192151864439182 16.184629403505632 23.486666666666682  94.207319304581063 16.133547710698672 23.486666666666675  94.226689695663083 16.08390759200655 23.486666666666689  94.250120464058355 16.036050509161822 23.486666666666682  94.277420157692362 15.990290772953278 23.486666666666679  94.308378213423211 15.946922767347177 23.486666666666682  94.342790677942943 15.906240682795412 23.486666666666682  94.380456196188788 15.868548901871444 23.486666666666679  94.421138204298202 15.834135167568034 23.486666666666675  94.464514157173397 15.803187958234217 23.486666666666682  94.510282607904657 15.775903434251964 23.486666666666672  94.558139655363618 15.752472502989896 23.486666666666675  94.607781211079782 15.733106652819803 23.486666666666661  94.65885828318207 15.717924473618408 23.486666666666661  94.711024807415825 15.707061354033231 23.48666666666665  94.763892805054624 15.70046546104285 23.486666666666647  94.7993704525542 15.698706075396187 23.486666666666654  94.817111111111188 15.698444444444464 23.486666666666661  
94.192000000000121 16.189666666666689 23.160000000000007  94.192166734224472 16.176360902598272 23.160000000000007  94.193483891473463 16.149750263359714 23.160000000000021  94.198496872053894 16.110107982029291 23.160000000000032  94.206637429781864 16.070982228832868 23.160000000000025  94.218003531387325 16.032668113387242 23.160000000000014  94.232514026571366 15.995430886352722 23.159999999999989  94.25007969397393 15.959533788045508 23.159999999999989  94.270556804163903 15.92521480449466 23.159999999999968  94.293781223830081 15.892692542815032 23.159999999999975  94.319596082302994 15.862185281036458 23.159999999999975  94.347846625757569 15.833917598126842 23.159999999999989  94.378354576802693 15.80810277183423 23.159999999999968  94.410882392148253 15.784885935716659 23.159999999999979  94.445206843949862 15.764418554297224 23.159999999999982  94.481101710190089 15.746848232393939 23.159999999999968  94.518340201925426 15.732340993763893 23.159999999999968  94.556652294180722 15.720969755713458 23.159999999999965  94.595771115205906 15.712795763960196 23.159999999999954  94.635416444527124 15.707799295586513 23.159999999999961  94.662027506809011 15.706495827059969 23.159999999999965  94.675333333333512 15.706333333333372 23.159999999999972  
94.221000000000146 15.959833333333346 22.670000000000023  94.221030803320659 15.953180035750199 22.670000000000027  94.221641948308445 15.939869673328696 22.670000000000034  94.224181529779699 15.920050642826745 22.670000000000027  94.228317956633589 15.900501050929297 22.670000000000016  94.234026044236685 15.881351571853727 22.670000000000002  94.241278784752751 15.862731458108225 22.670000000000002  94.250053006680318 15.844777877439773 22.669999999999991  94.26028167198136 15.827611577534293 22.669999999999984  94.271884647137824 15.811342834320124 22.669999999999995  94.284786286222356 15.796083097670003 22.669999999999987  94.298911932201293 15.781948203973599 22.669999999999987  94.314173027422498 15.769047696653384 22.669999999999995  94.330445843887162 15.757450352551707 22.669999999999987  94.347615335783644 15.74722742460343 22.669999999999987  94.365565942364029 15.738447472232055 22.669999999999998  94.384183090276238 15.731186906401147 22.669999999999991  94.403333334322951 15.725480717372246 22.669999999999995  94.422883781483748 15.721348436206933 22.669999999999987  94.442703187822843 15.718812126139545 22.669999999999991  94.456013363228919 15.718199630899953 22.669999999999987  94.462666666666777 15.718166666666681 22.669999999999987  
94.24033333333341 15.806611111111117 22.343333333333344  94.240316484252716 15.804393201798469 22.343333333333348  94.240482337254193 15.799953449745502 22.343333333333344  94.241313601170461 15.7933435827448 22.343333333333373  94.242707082660473 15.786828763158891 22.343333333333369  94.244640584202742 15.780453719855728 22.343333333333369  94.24709132344303 15.774259230644368 22.343333333333369  94.250036789710677 15.768284233510887 22.343333333333376  94.253455022938795 15.762566553831052 22.343333333333355  94.257324566298536 15.757144060826475 22.343333333333373  94.26162354107899 15.752055082728191 22.343333333333351  94.266330167151466 15.74734028080484 22.343333333333373  94.271416125002716 15.743037486856 22.343333333333348  94.276838349608795 15.739167463185304 22.343333333333341  94.282557421431633 15.735751454235167 22.343333333333351  94.288534329713187 15.732809826971131 22.343333333333341  94.294730502530612 15.730363365351659 22.343333333333341  94.301106576040866 15.728433370462149 22.343333333333337  94.307621693809679 15.727041532592361 22.343333333333334  94.314231367663425 15.726209217807737 22.343333333333344  94.318670958605196 15.726040588543619 22.343333333333337  94.320888888888931 15.726055555555556 22.343333333333337  
94.250000000000014 15.73 22.18000000000001  94.250000000000014 15.73 22.18000000000001  94.250000000000028 15.730000000000002 22.180000000000014  94.250000000000014 15.730000000000004 22.180000000000014  94.250000000000014 15.73 22.180000000000014  94.250000000000014 15.730000000000002 22.180000000000007  94.250000000000014 15.730000000000002 22.18000000000001  94.250000000000043 15.730000000000004 22.180000000000014  94.25 15.729999999999997 22.18000000000001  94.250000000000043 15.730000000000002 22.180000000000017  94.25 15.730000000000002 22.180000000000007  94.250000000000028 15.730000000000002 22.18000000000001  94.25 15.73 22.18000000000001  94.250000000000014 15.730000000000002 22.18000000000001  94.250000000000014 15.730000000000002 22.18000000000001  94.250000000000028 15.730000000000004 22.180000000000007  94.250000000000028 15.730000000000004 22.180000000000017  94.250000000000028 15.730000000000004 22.180000000000007  94.250000000000014 15.730000000000004 22.180000000000014  94.250000000000043 15.730000000000002 22.180000000000014  94.250000000000014 15.73 22.18000000000001  94.250000000000014 15.73 22.18000000000001  

0 4
1 1
2 1
3 4

0 4
1 1
2 1
3 1
4 1
5 1
6 1
7 1
8 1
9 1
10 1
11 1
12 1
13 1
14 1
15 1
16 1
17 1
18 1
19 4

9 0 0 0 0 3 3 6 6 4 4 94.250000000000014 17.109000000000009 22.18000000000001  94.240333333333467 17.032388888888921 22.343333333333359  94.221000000000259 16.87916666666672 22.670000000000037  94.192000000000149 16.649333333333363 23.160000000000036  94.172666666666714 16.496111111111119 23.486666666666682  94.163000000000011 16.419499999999999 23.650000000000009  
94.250000000000014 16.955777777777786 22.18000000000001  94.240333333333496 16.896191358024723 22.343333333333359  94.221000000000288 16.777018518518567 22.670000000000037  94.192000000000164 16.598259259259287 23.160000000000036  94.1726666666667 16.479086419753095 23.486666666666682  94.163000000000011 16.419499999999999 23.650000000000009  
94.250000000000014 16.649333333333338 22.180000000000021  94.240333333333524 16.623796296296323 22.343333333333366  94.221000000000345 16.572722222222261 22.670000000000037  94.192000000000135 16.496111111111126 23.160000000000025  94.172666666666686 16.44503703703705 23.486666666666682  94.163000000000025 16.419499999999999 23.650000000000013  
94.250000000000057 16.189666666666682 22.18000000000001  94.240333333333567 16.215203703703732 22.343333333333348  94.221000000000387 16.266277777777809 22.670000000000041  94.192000000000164 16.342888888888918 23.160000000000036  94.172666666666714 16.393962962962966 23.486666666666682  94.163000000000025 16.419500000000003 23.650000000000013  
94.250000000000014 15.883222222222225 22.18000000000001  94.240333333333538 15.942808641975326 22.343333333333348  94.221000000000302 16.061981481481507 22.670000000000016  94.192000000000164 16.240740740740758 23.160000000000014  94.172666666666686 16.359913580246914 23.486666666666675  94.163000000000011 16.419499999999999 23.650000000000009  
94.250000000000014 15.73 22.18000000000001  94.240333333333524 15.806611111111126 22.343333333333344  94.221000000000288 15.959833333333355 22.670000000000009  94.192000000000149 16.189666666666682 23.160000000000011  94.172666666666672 16.34288888888889 23.486666666666672  94.163000000000011 16.419499999999999 23.650000000000009  

0 4
1 1
2 1
3 4

0 4
1 1
2 1
3 4

9 0 0 0 0 3 3 6 6 4 4 94.250000000000014 15.73 22.18000000000001  94.320888888889058 15.726055555555591 22.343333333333277  94.462666666666948 15.718166666666722 22.669999999999902  94.675333333333441 15.706333333333346 23.16  94.817111111111117 15.698444444444437 23.486666666666689  94.888000000000034 15.6945 23.650000000000009  
94.39177777777779 15.73 22.18000000000001  94.44691358024707 15.726055555555586 22.343333333333295  94.557185185185446 15.718166666666713 22.669999999999927  94.72259259259269 15.706333333333346 23.160000000000011  94.832864197530867 15.698444444444437 23.486666666666686  94.888000000000034 15.6945 23.650000000000009  
94.675333333333313 15.729999999999995 22.18000000000001  94.698962962963108 15.726055555555584 22.343333333333327  94.746222222222471 15.718166666666695 22.66999999999997  94.817111111111231 15.706333333333346 23.160000000000018  94.864370370370395 15.698444444444437 23.486666666666682  94.888000000000048 15.694500000000001 23.650000000000013  
95.100666666666712 15.730000000000002 22.180000000000025  95.077037037037158 15.726055555555574 22.343333333333373  95.02977777777798 15.718166666666688 22.670000000000041  94.958888888888978 15.706333333333346 23.160000000000039  94.911629629629672 15.698444444444448 23.486666666666682  94.888000000000062 15.694500000000001 23.650000000000013  
95.38422222222222 15.73 22.18000000000001  95.329086419753182 15.726055555555568 22.343333333333373  95.218814814814991 15.718166666666679 22.670000000000059  95.053407407407491 15.706333333333346 23.160000000000036  94.943135802469172 15.698444444444444 23.486666666666675  94.888000000000034 15.6945 23.650000000000009  
95.525999999999996 15.73 22.18000000000001  95.455111111111194 15.726055555555567 22.343333333333376  95.313333333333489 15.718166666666679 22.670000000000069  95.10066666666674 15.706333333333346 23.160000000000036  94.958888888888922 15.698444444444444 23.486666666666675  94.888000000000034 15.6945 23.650000000000009  

0 4
1 1
2 1
3 4

0 4
1 1
2 1
3 4

9 0 0 0 0 3 3 6 22 4 20 94.888000000000034 15.6945 23.650000000000009  94.907957372777631 15.694872143526396 23.650000000000016  94.947864376626157 15.696884230125965 23.650000000000027  95.007350706510167 15.704222215444997 23.650000000000013  95.06604582722629 15.716412469659042 23.650000000000002  95.123509853379389 15.733484005613622 23.650000000000016  95.179353323375253 15.755279343915785 23.650000000000038  95.233191929963965 15.781639646239208 23.650000000000041  95.284672534183997 15.812349853207328 23.650000000000023  95.33346335504622 15.84717480443336 23.65000000000002  95.379232441664286 15.885886548128695 23.649999999999995  95.421635575212477 15.928260246050309 23.649999999999988  95.46034757543363 15.974030282996949 23.649999999999988  95.495158634818409 16.022831230128759 23.650000000000002  95.525851047692171 16.074322045753384 23.650000000000013  95.552213255500618 16.128159616167441 23.650000000000013  95.574013181906324 16.184000743452248 23.650000000000009  95.591105535591552 16.241459047250128 23.650000000000013  95.603307308551081 16.300150858365189 23.650000000000006  95.610690557831703 16.359631654902518 23.650000000000023  95.612681096956578 16.399542030254054 23.650000000000009  95.613000000000014 16.419499999999999 23.650000000000009  
94.958888888889035 15.698444444444476 23.486666666666725  94.976629169866925 15.698743341445351 23.486666666666711  95.01210424547142 15.700526304007331 23.486666666666704  95.064974200064782 15.707100659904873 23.486666666666704  95.117148374272361 15.717929642216797 23.486666666666711  95.168230067079278 15.733097082358727 23.486666666666704  95.217870185771375 15.752467473440724 23.486666666666711  95.265727268616132 15.775898241836 23.486666666666704  95.311487004824684 15.803197935470072 23.486666666666689  95.354855010430796 15.834155991200877 23.486666666666707  95.395537094982572 15.868568455720538 23.486666666666686  95.433228875906565 15.906233973966453 23.4866666666667  95.467642610209921 15.946915982075783 23.486666666666682  95.498589819543824 15.990291934951067 23.486666666666682  95.525874343525985 16.036060385682315 23.486666666666672  95.549305274788068 16.083917433141291 23.486666666666672  95.568671124958144 16.133558988857416 23.486666666666661  95.583853304159561 16.184636060959736 23.486666666666675  95.594716423744643 16.236802585193516 23.486666666666675  95.601312316734962 16.289670582832315 23.486666666666679  95.603071702381683 16.325148230331898 23.486666666666668  95.603333333333481 16.34288888888889 23.486666666666668  
95.100666666666868 15.706333333333385 23.160000000000093  95.113972430735274 15.706500067557698 23.160000000000078  95.140583069973829 15.707817224806643 23.160000000000068  95.180225351304287 15.71283020538697 23.160000000000064  95.219351104500703 15.720970763114954 23.16000000000005  95.257665219946318 15.732336864720466 23.16000000000005  95.294902446980785 15.746847359904519 23.160000000000057  95.330799545288031 15.764413027307132 23.160000000000043  95.365118528838821 15.784890137497154 23.160000000000021  95.397640790518494 15.808114557163348 23.160000000000018  95.428148052296962 15.83392941563625 23.160000000000004  95.456415735206662 15.862179959090895 23.159999999999993  95.48223056149925 15.892687910135901 23.159999999999997  95.505447397616905 15.925215725481483 23.159999999999993  95.525914779036384 15.959540177283044 23.160000000000007  95.543485100939677 15.995435043523239 23.16  95.557992339569793 16.032673535258567 23.160000000000011  95.569363577620209 16.070985627513881 23.160000000000004  95.577537569373376 16.110104448539051 23.16  95.582534037746981 16.149749777860311 23.159999999999993  95.583837506273596 16.17636084014217 23.159999999999993  95.584000000000259 16.189666666666675 23.159999999999993  
95.313333333333404 15.718166666666681 22.670000000000037  95.319986630916546 15.718197469987185 22.670000000000037  95.333296993338067 15.718808614974948 22.670000000000041  95.353116023840002 15.721348196446275 22.67000000000003  95.372665615737446 15.725484623300202 22.670000000000034  95.391815094812983 15.73119271090329 22.670000000000016  95.410435208558496 15.738445451419375 22.67000000000003  95.428388789226972 15.747219673346997 22.670000000000034  95.445555089132455 15.757448338647972 22.670000000000037  95.461823832346624 15.769051313804436 22.670000000000044  95.477083568996775 15.781952952888972 22.670000000000055  95.491218462693212 15.796078598867824 22.670000000000051  95.504118970013437 15.811339694089055 22.670000000000051  95.515716314115096 15.827612510553667 22.670000000000048  95.525939242063401 15.844782002450216 22.670000000000041  95.534719194434757 15.862732609030539 22.670000000000023  95.541979760265619 15.881349756942823 22.670000000000005  95.547685949294532 15.900500000989496 22.670000000000005  95.551818230459858 15.920050448150288 22.669999999999998  95.554354540527243 15.939869854489437 22.670000000000002  95.55496703576685 15.953180029895494 22.669999999999998  95.555000000000135 15.959833333333343 22.669999999999998  
95.455111111111094 15.726055555555549 22.343333333333337  95.457329020423742 15.726038706474865 22.343333333333337  95.461768772476717 15.726204559476372 22.343333333333334  95.468378639477436 15.727035823392594 22.343333333333341  95.47489345906331 15.728429304882662 22.343333333333323  95.481268502366433 15.730362806424898 22.343333333333323  95.487462991577885 15.732813545665184 22.343333333333323  95.493437988711349 15.735759011932835 22.343333333333334  95.499155668391182 15.739177245160985 22.343333333333327  95.504578161395742 15.743046788520701 22.343333333333334  95.509667139493999 15.747345763301203 22.343333333333327  95.514381941417412 15.75205238937367 22.343333333333327  95.518684735366222 15.757138347224908 22.343333333333337  95.522554759036908 15.762560571830988 22.343333333333337  95.525970767987033 15.768279643653798 22.343333333333341  95.52891239525114 15.77425655193537 22.343333333333344  95.531358856870554 15.780452724752779 22.343333333333341  95.533288851760133 15.786828798263029 22.343333333333359  95.53468068962988 15.793343916031834 22.343333333333341  95.535513004414554 15.799953589885591 22.343333333333348  95.535681633678621 15.804393180827374 22.343333333333341  95.535666666666671 15.806611111111115 22.343333333333341  
95.525999999999996 15.73 22.18000000000001  95.525999999999996 15.73 22.18000000000001  95.525999999999996 15.730000000000002 22.180000000000014  95.525999999999996 15.730000000000004 22.180000000000014  95.525999999999996 15.73 22.180000000000014  95.525999999999996 15.730000000000002 22.180000000000007  95.52600000000001 15.730000000000002 22.18000000000001  95.52600000000001 15.730000000000004 22.180000000000014  95.525999999999996 15.729999999999997 22.18000000000001  95.525999999999996 15.730000000000002 22.180000000000017  95.525999999999996 15.730000000000002 22.180000000000007  95.525999999999996 15.730000000000002 22.18000000000001  95.525999999999996 15.73 22.18000000000001  95.525999999999996 15.730000000000002 22.18000000000001  95.525999999999996 15.730000000000002 22.18000000000001  95.52600000000001 15.730000000000004 22.180000000000007  95.52600000000001 15.730000000000004 22.180000000000017  95.52600000000001 15.730000000000004 22.180000000000007  95.52600000000001 15.730000000000004 22.180000000000014  95.52600000000001 15.730000000000002 22.180000000000014  95.525999999999996 15.73 22.18000000000001  95.525999999999996 15.73 22.18000000000001  

0 4
1 1
2 1
3 4

0 4
1 1
2 1
3 1
4 1
5 1
6 1
7 1
8 1
9 1
10 1
11 1
12 1
13 1
14 1
15 1
16 1
17 1
18 1
19 4

9 0 0 0 0 3 3 6 6 4 4 95.525999999999996 15.73 22.18000000000001  95.535666666666756 15.80661111111112 22.343333333333334  95.55500000000022 15.95983333333335 22.670000000000002  95.584000000000174 16.189666666666671 23.160000000000004  95.603333333333396 16.34288888888889 23.486666666666672  95.613000000000014 16.419499999999999 23.650000000000009  
95.525999999999996 15.883222222222225 22.18000000000001  95.535666666666785 15.94280864197532 22.34333333333333  95.555000000000263 16.061981481481503 22.669999999999998  95.58400000000016 16.240740740740748 23.160000000000007  95.603333333333381 16.359913580246914 23.486666666666675  95.613000000000014 16.419499999999999 23.650000000000009  
95.52600000000001 16.189666666666675 22.180000000000017  95.535666666666856 16.215203703703718 22.34333333333333  95.555000000000263 16.266277777777812 22.669999999999991  95.584000000000202 16.342888888888908 23.160000000000011  95.603333333333353 16.393962962962966 23.486666666666679  95.613000000000028 16.419499999999999 23.650000000000009  
95.526000000000025 16.649333333333342 22.180000000000003  95.53566666666687 16.62379629629633 22.343333333333337  95.555000000000291 16.572722222222271 22.670000000000009  95.584000000000145 16.496111111111134 23.160000000000014  95.603333333333396 16.445037037037036 23.486666666666668  95.613000000000042 16.419500000000003 23.650000000000016  
95.52600000000001 16.955777777777779 22.180000000000003  95.535666666666785 16.896191358024726 22.343333333333341  95.555000000000192 16.777018518518574 22.670000000000005  95.584000000000131 16.598259259259279 23.160000000000011  95.603333333333367 16.479086419753084 23.486666666666665  95.613000000000014 16.419499999999999 23.649999999999999  
95.52600000000001 17.109000000000002 22.18  95.535666666666742 17.032388888888924 22.343333333333344  95.555000000000135 16.879166666666727 22.670000000000009  95.584000000000131 16.649333333333356 23.160000000000007  95.603333333333381 16.496111111111109 23.486666666666661  95.613000000000014 16.419499999999999 23.649999999999999  

0 4
1 1
2 1
3 4

0 4
1 1
2 1
3 4

9 0 0 0 0 3 3 6 22 4 20 95.613000000000014 16.419499999999999 23.649999999999999  95.612627856473637 16.439457372777596 23.650000000000006  95.610615769874059 16.479364376626098 23.650000000000009  95.603277784554962 16.538850706510097 23.649999999999995  95.591087530340914 16.597545827226288 23.649999999999984  95.574015994386357 16.65500985337933 23.649999999999995  95.552220656084245 16.710853323375247 23.650000000000023  95.525860353760876 16.764691929964009 23.650000000000013  95.495150146792724 16.816172534183984 23.650000000000016  95.460325195566625 16.864963355046211 23.650000000000002  95.421613451871309 16.910732441664273 23.649999999999999  95.379239753949733 16.953135575212439 23.649999999999984  95.333469717003069 16.991847575433617 23.649999999999995  95.284668769871246 17.02665863481845 23.650000000000009  95.233177954246699 17.057351047692215 23.650000000000016  95.179340383832567 17.083713255500651 23.650000000000031  95.123499256547873 17.105513181906357 23.650000000000031  95.066040952749873 17.1226055355916 23.650000000000013  95.007349141634847 17.134807308551082 23.650000000000006  94.947868345097518 17.142190557831722 23.650000000000023  94.907957969745979 17.144181096956572 23.650000000000013  94.888000000000034 17.144500000000001 23.650000000000009  
95.603333333333453 16.496111111111134 23.486666666666668  95.603034436332607 16.51385139208903 23.486666666666675  95.601251473770617 16.549326467693515 23.486666666666682  95.594677117873005 16.602196422286884 23.486666666666672  95.583848135561027 16.654370596494417 23.486666666666647  95.56868069541909 16.70545228930137 23.486666666666661  95.549310304337169 16.755092407993544 23.486666666666668  95.525879535941911 16.802949490838252 23.486666666666693  95.498579842307791 16.848709227046804 23.486666666666679  95.467621786576998 16.892077232652909 23.486666666666682  95.433209322057266 16.932759317204688 23.486666666666689  95.395543803811421 16.970451098128656 23.486666666666686  95.354861795702021 17.004864832432109 23.4866666666667  95.311485842826841 17.035812041765961 23.486666666666721  95.265717392095539 17.063096565748225 23.486666666666721  95.21786034463662 17.086527497010284 23.486666666666732  95.168218788920456 17.105893347180334 23.486666666666721  95.117141716818153 17.121075526381659 23.486666666666707  95.064975192584285 17.131938645966798 23.486666666666697  95.012107194945571 17.13853453895717 23.486666666666714  94.976629547445938 17.140293924603828 23.4866666666667  94.95888888888895 17.140555555555565 23.486666666666689  
95.584000000000188 16.64933333333337 23.160000000000007  95.58383326577588 16.662639097401787 23.160000000000007  95.582516108526889 16.689249736640356 23.160000000000007  95.577503127946628 16.728892017970779 23.160000000000014  95.569362570218516 16.768017771167191 23.160000000000011  95.557996468613055 16.806331886612838 23.160000000000014  95.543485973428986 16.843569113647327 23.160000000000025  95.525920306026379 16.879466211954554 23.160000000000032  95.505443195836364 16.913785195505344 23.160000000000021  95.4822187761702 16.946307457185014 23.160000000000036  95.456403917697287 16.976814718963556 23.160000000000021  95.428153374242697 17.005082401873221 23.160000000000025  95.397645423197616 17.030897228165834 23.160000000000039  95.365117607852071 17.054114064283489 23.160000000000057  95.330793156050447 17.074581445702933 23.160000000000057  95.29489828981032 17.092151767606207 23.160000000000071  95.257659798074911 17.106659006236232 23.160000000000071  95.219347705819629 17.118030244286615 23.160000000000071  95.180228884794388 17.126204236039879 23.160000000000075  95.140583555473228 17.13120070441358 23.160000000000068  95.113972493191312 17.132504172940113 23.160000000000057  95.100666666666797 17.13266666666669 23.16000000000005  
95.555000000000163 16.879166666666698 22.670000000000016  95.554969196679636 16.885819964249844 22.670000000000016  95.554358051691892 16.899130326671347 22.670000000000027  95.551818470220439 16.91894935717329 22.670000000000002  95.547682043366535 16.938498949070723 22.670000000000005  95.541973955763453 16.957648428146278 22.669999999999998  95.534721215247359 16.976268541891773 22.670000000000009  95.525946993319792 16.99422212256021 22.670000000000002  95.51571832801875 17.011388422465725 22.670000000000005  95.504115352862328 17.027657165679891 22.670000000000016  95.491213713777782 17.042916902330063 22.670000000000019  95.477088067798917 17.057051796026453 22.67000000000003  95.461826972577711 17.069952303346696 22.670000000000034  95.445554156113076 17.081549647448384 22.670000000000027  95.428384664216537 17.091772575396647 22.670000000000034  95.410434057636266 17.100552527767999 22.670000000000037  95.391816909723943 17.107813093598921 22.670000000000041  95.372666665677272 17.113519282627774 22.670000000000048  95.353116218516476 17.117651563793078 22.670000000000048  95.333296812177394 17.120187873860459 22.670000000000044  95.319986636771276 17.12080036910006 22.670000000000041  95.313333333333432 17.120833333333344 22.670000000000037  
95.5356666666667 17.032388888888896 22.343333333333337  95.53568351574738 17.034606798201544 22.343333333333334  95.53551766274586 17.039046550254511 22.343333333333344  95.534686398829663 17.045656417255209 22.34333333333333  95.533292917339551 17.052171236841122 22.343333333333337  95.531359415797283 17.058546280144284 22.34333333333333  95.528908676557052 17.064740769355648 22.34333333333333  95.525963210289419 17.070715766489155 22.343333333333341  95.522544977061258 17.076433446168949 22.343333333333334  95.518675433701517 17.081855939173582 22.343333333333344  95.514376458921092 17.086944917271836 22.343333333333337  95.509669832848587 17.091659719195206 22.343333333333362  95.50458387499738 17.095962513144045 22.343333333333344  95.499161650391258 17.099832536814713 22.343333333333351  95.493442578568462 17.103248545764863 22.343333333333344  95.48746567028688 17.106190173028896 22.343333333333351  95.481269497469498 17.108636634648363 22.343333333333344  95.474893423959188 17.110566629537885 22.343333333333344  95.468378306190459 17.111958467407657 22.343333333333355  95.461768632336657 17.112790782192285 22.343333333333351  95.457329041394871 17.112959411456391 22.343333333333348  95.455111111111137 17.112944444444448 22.343333333333348  
95.52600000000001 17.109000000000002 22.18  95.52600000000001 17.109000000000002 22.18  95.526000000000025 17.109000000000005 22.18  95.52600000000001 17.109000000000005 22.180000000000007  95.526000000000025 17.109000000000002 22.18  95.525999999999982 17.108999999999998 22.18  95.526000000000025 17.109000000000005 22.180000000000003  95.526000000000025 17.109000000000005 22.18  95.525999999999996 17.108999999999998 22.180000000000003  95.526000000000025 17.109000000000005 22.180000000000003  95.525999999999996 17.109000000000002 22.18  95.52600000000001 17.109000000000002 22.180000000000003  95.526000000000025 17.109000000000002 22.18  95.52600000000001 17.109000000000002 22.18  95.526000000000025 17.108999999999998 22.180000000000003  95.525999999999996 17.109000000000005 22.18  95.526000000000025 17.109000000000002 22.180000000000003  95.526000000000025 17.109000000000005 22.18  95.526000000000025 17.109000000000002 22.180000000000003  95.526000000000039 17.109000000000005 22.18  95.52600000000001 17.109000000000002 22.18000000000001  95.52600000000001 17.109000000000002 22.18000000000001  

0 4
1 1
2 1
3 4

0 4
1 1
2 1
3 1
4 1
5 1
6 1
7 1
8 1
9 1
10 1
11 1
12 1
13 1
14 1
15 1
16 1
17 1
18 1
19 4

9 0 0 0 0 3 3 6 6 4 4 95.52600000000001 17.109000000000002 22.18000000000001  95.455111111111165 17.112944444444459 22.343333333333362  95.31333333333346 17.120833333333362 22.670000000000044  95.100666666666768 17.13266666666669 23.160000000000039  94.958888888888936 17.140555555555558 23.486666666666682  94.888000000000034 17.144500000000001 23.650000000000009  
95.384222222222235 17.109000000000002 22.18000000000001  95.329086419753153 17.112944444444469 22.343333333333359  95.218814814814962 17.120833333333373 22.670000000000048  95.053407407407519 17.132666666666683 23.160000000000036  94.943135802469172 17.140555555555551 23.486666666666679  94.888000000000034 17.144500000000001 23.650000000000009  
95.100666666666697 17.109000000000005 22.180000000000021  95.077037037037172 17.112944444444491 22.343333333333348  95.029777777777966 17.120833333333394 22.670000000000044  94.958888888889049 17.132666666666676 23.160000000000021  94.911629629629672 17.140555555555544 23.486666666666672  94.888000000000048 17.144500000000001 23.650000000000013  
94.67533333333337 17.109000000000005 22.18000000000001  94.698962962963108 17.112944444444498 22.343333333333337  94.746222222222457 17.120833333333398 22.669999999999995  94.817111111111245 17.13266666666668 23.160000000000011  94.864370370370423 17.140555555555544 23.486666666666679  94.888000000000062 17.144500000000004 23.650000000000013  
94.39177777777779 17.109000000000002 22.18000000000001  94.446913580247056 17.112944444444494 22.343333333333298  94.557185185185418 17.120833333333405 22.669999999999931  94.722592592592747 17.13266666666669 23.159999999999989  94.83286419753091 17.140555555555551 23.486666666666672  94.888000000000034 17.144500000000001 23.650000000000009  
94.250000000000014 17.109000000000002 22.18000000000001  94.320888888889044 17.112944444444491 22.34333333333328  94.462666666666905 17.120833333333405 22.669999999999892  94.675333333333498 17.132666666666697 23.159999999999979  94.81711111111116 17.140555555555554 23.486666666666672  94.888000000000034 17.144500000000001 23.650000000000009  

0 4
1 1
2 1
3 4

0 4
1 1
2 1
3 4

9 0 0 0 0 3 3 6 22 4 20 94.888000000000034 17.144500000000001 23.650000000000009  94.868042627222422 17.144127856473609 23.650000000000009  94.828135623373882 17.142115769874032 23.650000000000009  94.768649293489972 17.134777784554991 23.650000000000013  94.709954172773706 17.122587530340972 23.650000000000006  94.652490146620721 17.105515994386391 23.650000000000013  94.596646676624786 17.083720656084186 23.650000000000023  94.542808070036088 17.057360353760757 23.650000000000023  94.49132746581607 17.02665014679263 23.650000000000016  94.44253664495379 16.991825195566648 23.65000000000002  94.396767558335725 16.953113451871303 23.650000000000006  94.354364424787519 16.910739753949752 23.650000000000009  94.315652424566352 16.864969717003099 23.650000000000002  94.280841365181573 16.816168769871261 23.65000000000002  94.250148952307853 16.764677954246647 23.650000000000013  94.223786744499421 16.710840383832558 23.650000000000013  94.201986818093729 16.654999256547757 23.65000000000002  94.184894464408444 16.597540952749878 23.650000000000009  94.172692691448944 16.53884914163482 23.650000000000013  94.165309442168351 16.479368345097484 23.650000000000023  94.163318903043447 16.439457969745945 23.650000000000013  94.163000000000011 16.419499999999999 23.650000000000009  
94.817111111111203 17.140555555555569 23.486666666666643  94.799370830133313 17.140256658554723 23.486666666666647  94.76389575452886 17.138473695992754 23.48666666666665  94.71102579993547 17.131899340095149 23.486666666666665  94.658851625727934 17.121070357783225 23.486666666666654  94.607769932920917 17.105902917641298 23.486666666666661  94.558129814228849 17.086532526559317 23.486666666666661  94.510272731384134 17.063101758164059 23.486666666666661  94.464512995175511 17.035802064529985 23.486666666666647  94.421144989569498 17.004844008799179 23.486666666666657  94.380462905017637 16.970431544279478 23.486666666666647  94.342771124093744 16.932766026033583 23.486666666666668  94.308357389790302 16.892084017924184 23.486666666666672  94.277410180456513 16.848708065048967 23.486666666666693  94.250125656474268 16.80293961431769 23.4866666666667  94.226694725212226 16.755082566858714 23.486666666666711  94.207328875042137 16.705441011142586 23.486666666666707  94.19214669584079 16.654363939040277 23.4866666666667  94.181283576255552 16.602197414806511 23.486666666666704  94.174687683265233 16.549329417167723 23.486666666666693  94.172928297618498 16.513851769668129 23.486666666666693  94.172666666666743 16.496111111111137 23.486666666666693  
94.675333333333427 17.13266666666669 23.159999999999947  94.662027569265007 17.132499932442403 23.159999999999958  94.635416930026423 17.131182775193466 23.159999999999965  94.595774648696079 17.12616979461313 23.159999999999975  94.55664889549962 17.118029236885075 23.159999999999961  94.518334780054033 17.106663135279554 23.159999999999958  94.481097553019552 17.092152640095492 23.159999999999958  94.445200454712378 17.074586972692885 23.159999999999975  94.410881471161517 17.05410986250287 23.159999999999961  94.378359209481914 17.030885442836677 23.159999999999986  94.347851947703333 17.005070584363803 23.159999999999989  94.31958426479369 16.976820040909171 23.159999999999993  94.293769438501116 16.946312089864126 23.160000000000011  94.270552602383546 16.913784274518537 23.160000000000029  94.250085220964095 16.879459822716953 23.160000000000046  94.232514899060831 16.843564956476744 23.160000000000046  94.218007660430771 16.806326464741431 23.16000000000005  94.206636422380313 16.768014372486135 23.160000000000043  94.198462430627018 16.728895551460965 23.160000000000029  94.193465962253285 16.689250222139766 23.160000000000036  94.192162493726741 16.662639159857882 23.160000000000032  94.192000000000164 16.649333333333377 23.160000000000036  
94.462666666666806 17.120833333333358 22.669999999999987  94.456013369083664 17.120802530012856 22.669999999999991  94.442703006662157 17.120191385025098 22.669999999999995  94.422883976160222 17.117651803553759 22.670000000000002  94.403334384262777 17.113515376699841 22.669999999999977  94.38418490518724 17.107807289096755 22.66999999999997  94.365564791441741 17.100554548580654 22.669999999999973  94.347611210773323 17.091780326653069 22.669999999999977  94.330444910867811 17.081551661352041 22.66999999999998  94.314176167653699 17.069948686195577 22.670000000000009  94.298916431003448 17.057047047110988 22.670000000000019  94.284781537307182 17.042921401132133 22.670000000000037  94.271881029986872 17.027660305910892 22.670000000000037  94.260283685885213 17.011387489446292 22.670000000000037  94.25006075793695 16.994217997549761 22.670000000000041  94.241280805565509 16.976267390969465 22.670000000000034  94.234020239734576 16.957650243057195 22.670000000000019  94.228314050705663 16.938499999010553 22.670000000000027  94.22418176954038 16.91894955184976 22.670000000000012  94.221645459472953 16.899130145510615 22.67000000000003  94.221032964233402 16.885819970104553 22.67000000000003  94.221000000000146 16.879166666666706 22.670000000000037  
94.320888888888916 17.112944444444452 22.343333333333337  94.318670979576268 17.112961293525139 22.343333333333334  94.314231227523308 17.112795440523637 22.343333333333348  94.307621360522617 17.111964176607412 22.343333333333327  94.30110654093663 17.110570695117342 22.343333333333323  94.294731497633563 17.108637193575106 22.343333333333337  94.288537008422111 17.106186454334818 22.34333333333333  94.28256201128869 17.103240988067189 22.343333333333337  94.276844331608828 17.099822754839042 22.343333333333337  94.271421838604212 17.095953211479305 22.343333333333334  94.266332860505969 17.091654236698833 22.343333333333341  94.261618058582613 17.086947610626378 22.343333333333351  94.257315264633732 17.081861652775121 22.343333333333348  94.253445240963103 17.07643942816906 22.343333333333344  94.250029232012906 17.070720356346239 22.343333333333348  94.24708760474887 17.064743448064661 22.343333333333341  94.2446411431294 17.058547275247257 22.343333333333344  94.24271114823992 17.052171201737 22.343333333333344  94.24131931037013 17.045656083968193 22.343333333333355  94.240486995585584 17.039046410114434 22.343333333333351  94.240318366321446 17.034606819172645 22.343333333333348  94.240333333333396 17.032388888888903 22.343333333333348  
94.250000000000014 17.109000000000002 22.18000000000001  94.250000000000014 17.109000000000002 22.18000000000001  94.250000000000028 17.109000000000005 22.180000000000014  94.250000000000014 17.109000000000005 22.180000000000014  94.250000000000014 17.109000000000002 22.180000000000014  94.250000000000014 17.108999999999998 22.180000000000007  94.250000000000014 17.109000000000005 22.18000000000001  94.250000000000043 17.109000000000005 22.180000000000014  94.25 17.108999999999998 22.18000000000001  94.250000000000043 17.109000000000005 22.180000000000017  94.25 17.109000000000002 22.180000000000007  94.250000000000028 17.109000000000002 22.18000000000001  94.25 17.109000000000002 22.18000000000001  94.250000000000014 17.109000000000002 22.18000000000001  94.250000000000014 17.109000000000002 22.18000000000001  94.250000000000028 17.109000000000002 22.180000000000007  94.250000000000028 17.109000000000005 22.180000000000017  94.250000000000028 17.109000000000002 22.180000000000007  94.250000000000014 17.109000000000005 22.180000000000014  94.250000000000043 17.109000000000002 22.180000000000014  94.250000000000014 17.109000000000009 22.18000000000001  94.250000000000014 17.109000000000009 22.18000000000001  

0 4
1 1
2 1
3 4

0 4
1 1
2 1
3 1
4 1
5 1
6 1
7 1
8 1
9 1
10 1
11 1
12 1
13 1
14 1
15 1
16 1
17 1
18 1
19 4

Triangulations 0

TShapes 49
Ve
1e-005
94.163 16.4195 23.65
0 0

0101101
*
Ve
1e-005
94.888 15.6945 23.65
0 0

0101101
*
Ed
 1e-005 1 1 0
1  1 0 0 19
2  1 1 0 0 19
0

0101000
+49 0 -48 0 *
Ve
1e-005
94.25 15.73 22.18
0 0

0101101
*
Ed
 1e-005 1 1 0
1  2 0 0 3
2  2 1 0 0 3
2  3 2 0 0 3
0

0101000
+49 0 -46 0 *
Ed
 1e-005 1 1 1
2  4 1 0 0 19
0

0101000
+46 0 -46 0 *
Ed
 1e-005 1 1 0
1  3 0 0 3
2  5 1 0 0 3
2  6 3 0 0 3
0

0101000
+46 0 -48 0 *
Wi

0101000
-47 0 +45 0 +44 0 +43 0 *
Fa
1  1e-005 1 0

0111000
+42 0 *
Ve
1e-005
95.526 15.73 22.18
0 0

0101101
*
Ed
 1e-005 1 1 0
1  4 0 0 3
2  7 3 0 0 3
0

0101000
+46 0 -40 0 *
Ed
 1e-005 1 1 0
1  5 0 0 3
2  8 3 0 0 3
2  9 4 0 0 3
0

0101000
+48 0 -40 0 *
Ed
 1e-005 1 1 1
2  10 3 0 0 3
0

0101000
+48 0 -48 0 *
Wi

0101000
-43 0 +39 0 -38 0 -37 0 *
Fa
1  1e-005 3 0

0111000
+36 0 *
Ve
1e-005
95.613 16.4195 23.65
0 0

0101101
*
Ed
 1e-005 1 1 0
1  6 0 0 19
2  11 4 0 0 19
0

0101000
+48 0 -34 0 *
Ed
 1e-005 1 1 1
2  12 4 0 0 19
0

0101000
+40 0 -40 0 *
Ed
 1e-005 1 1 0
1  7 0 0 3
2  13 4 0 0 3
2  14 5 0 0 3
0

0101000
+40 0 -34 0 *
Wi

0101000
-33 0 +38 0 +32 0 +31 0 *
Fa
1  1e-005 4 0

0111000
+30 0 *
Ve
1e-005
95.526 17.109 22.18
0 0

0101101
*
Ed
 1e-005 1 1 0
1  8 0 0 3
2  15 5 0 0 3
0

0101000
+40 0 -28 0 *
Ed
 1e-005 1 1 0
1  9 0 0 3
2  16 5 0 0 3
2  17 6 0 0 3
0

0101000
+28 0 -34 0 *
Ed
 1e-005 1 1 1
2  18 5 0 0 3
0

0101000
+34 0 -34 0 *
Wi

0101000
-31 0 +27 0 +26 0 -25 0 *
Fa
1  1e-005 5 0

0111000
+24 0 *
Ve
1e-005
94.888 17.1445 23.65
0 0

0101101
*
Ed
 1e-005 1 1 0
1  10 0 0 19
2  19 6 0 0 19
0

0101000
+34 0 -22 0 *
Ed
 1e-005 1 1 1
2  20 6 0 0 19
0

0101000
+28 0 -28 0 *
Ed
 1e-005 1 1 0
1  11 0 0 3
2  21 6 0 0 3
2  22 7 0 0 3
0

0101000
+22 0 -28 0 *
Wi

0101000
-21 0 -26 0 +20 0 -19 0 *
Fa
1  1e-005 6 0

0111000
+18 0 *
Ve
1e-005
94.25 17.109 22.18
0 0

0101101
*
Ed
 1e-005 1 1 0
1  12 0 0 3
2  23 7 0 0 3
0

0101000
+28 0 -16 0 *
Ed
 1e-005 1 1 0
1  13 0 0 3
2  24 7 0 0 3
2  25 8 0 0 3
0

0101000
+16 0 -22 0 *
Ed
 1e-005 1 1 1
2  26 7 0 0 3
0

0101000
+22 0 -22 0 *
Wi

0101000
+19 0 +15 0 +14 0 -13 0 *
Fa
1  1e-005 7 0

0111000
+12 0 *
Ed
 1e-005 1 1 0
1  14 0 0 19
2  27 8 0 0 19
0

0101000
+22 0 -49 0 *
Ed
 1e-005 1 1 1
2  28 8 0 0 19
0

0101000
+16 0 -16 0 *
Ed
 1e-005 1 1 0
1  15 0 0 3
2  29 8 0 0 3
2  30 2 0 0 3
0

0101000
+16 0 -49 0 *
Wi

0101000
-10 0 -14 0 +9 0 +8 0 *
Fa
1  1e-005 8 0

0111000
+7 0 *
Ed
 1e-005 1 1 0
1  16 0 0 3
2  31 2 0 0 3
0

0101000
+16 0 -46 0 *
Ed
 1e-005 1 1 1
2  32 2 0 0 3
0

0101000
+49 0 -49 0 *
Wi

0101000
-8 0 +5 0 -45 0 -4 0 *
Fa
1  1e-005 2 0

0111000
+3 0 *
Sh

1101100
+41 0 +35 0 +29 0 +23 0 +17 0 +11 0 +6 0 +2 0 *

+1 0 