DBRep_DrawableShape

CASCADE Topology V1, (c) Matra-Datavision
Locations 7
1
-2.35928039999343e-006 0.999999999997217               0       11359.733 
-0.999999999997217 -2.35928039999343e-006               0  -0.00066957028 
              0               0               1        -561.976 
1
0.820269847342114 0.571976728146648               0      -39798.046 
-0.571976728146648 0.820269847342114               0       59227.901 
              0              -0               1       37087.175 
2  1 1 2 1 0
2  1 -1 0
1
              1               0               0               0 
              0               1               0               0 
              0               0               1        1120.773 
2  5 -1 0
2  1 -1 5 -1 0
Curve2ds 6
1 0 0 0 -1 
1 6.2831853071795862 0 0 -1 
1 0 0 1 0 
2 1.3674401325394233e-015 6.8090684291600553e-017 1 0 -0 1 24
1 0 -1120.7729999999999 1 0 
2 1.3674401325394233e-015 6.8090684291600553e-017 1 0 -0 1 24
Curves 3
1 24 0 0 0 0 1 
2 0 0 0 0 0 1 1 0 -0 -0 1 0 24
2 0 0 0 0 0 1 1 0 -0 -0 1 0 24
Polygon3D 0
PolygonOnTriangulations 0
Surfaces 3
2 0 0 0 -0 -0 -1 1 0 -0 -0 1 0 24
1 -1.3674401325394233e-015 -6.8090684291600553e-017 0 0 0 1 1 0 -0 -0 1 0 
1 -1.3674401325394233e-015 -6.8090684291600553e-017 0 0 0 1 1 0 -0 -0 1 0 
Triangulations 0

TShapes 13
Ve
1e-005
11359.7329433773 -24.0006695702132 -561.976
0 0

0101101
*
Ve
1e-005
11359.7329433773 -24.0006695702132 558.797
0 0

0101101
*
Ed
 1e-005 1 1 0
1  1 0 0 1120.773
3  1 2CN 1 0 0 1120.773
0

0101000
+13 4 -12 4 *
Ed
 1e-007 1 1 0
1  2 0 0 6.28318530717959
2  3 1 0 0 6.28318530717959
2  4 2 0 0 6.28318530717959
0

0101000
+13 4 -13 4 *
Ed
 1e-007 1 1 0
1  3 0 0 6.28318530717959
2  5 1 6 0 6.28318530717959
2  6 3 0 0 6.28318530717959
0

0101000
+12 7 -12 7 *
Wi

0101100
+11 0 -11 0 -10 0 +9 5 *
Fa
0  1e-007 1 0

0101000
+8 0 *
Wi

0101100
+10 0 *
Fa
0  1e-007 2 0

0101000
+6 0 *
Wi

0101100
+9 0 *
Fa
0  1e-007 3 0

0101000
+4 0 *
Sh

0101100
+7 0 +5 0 -3 5 *
So

1100000
-2 0 *

+1 3 