DBRep_DrawableShape

CASCADE Topology V1, (c) Matra-Datavision
Locations 0
Curve2ds 14
1 6.2831853071795862 -6.2831853071795862 0 1 
1 0 -6.2831853071795862 0 1 
1 0 1.5707963267948966 1 0 
7 0 0  9 18 3  6.2831853071795862 0.33983690945412193  6.2214785993908945 0.33983690939241518  6.1597723757825635 0.327720455102125  6.1014608689957566 0.30349136561290546  6.0499589143654102 0.26810961064417649  6.0077723298608667 0.22359199559224363  5.9756531946914189 0.17225598780823947  5.9541189262578538 0.1163550322744602  5.9433483977254644 0.058177641696107341  5.9433483977254644 -0.058177641696107153  5.9541189262594409 -0.11635503227524979  5.9756531946830327 -0.17225598780790263  6.0077723298754746 -0.22359199559527054  6.0499589143491601 -0.26810961064760086  6.1014608690042254 -0.30349136561290457  6.1597723757803058 -0.32772045510184072  6.2214785993908945 -0.33983690939241518  6.2831853071795862 -0.33983690945412193 
 6.9274196565754843e-16 10 1.5707963267948963 8 3.1415926535897922 10
1 0 78.284271247461902 1 0 
1 0 -1.5707963267948966 1 0 
7 0 0  9 18 3  -6.6891443342855994e-17 -0.33983690945412193  0.06170670778869141 -0.33983690939241523  0.12341293139744436 -0.32772045510171216  0.18172443818297412 -0.30349136561547096  0.23322639281135915 -0.26810961063898553  0.27541297731694314 -0.22359199559302567  0.30753211248727608 -0.1722559878063652  0.3290663809216251 -0.11635503227478322  0.33983690945412193 -0.058177641696107334  0.33983690945412193 0.058177641696107209  0.32906638092099788 0.1163550322739843  0.30753211249473478 0.1722559878127421  0.27541297730502112 0.22359199558553255  0.23322639281951174 0.2681096106492924  0.18172443817763462 0.30349136561057555  0.12341293139882581 0.32772045510307324  0.061706707788691535 0.33983690939241518  8.6817817790165225e-17 0.33983690945412193 
 3.1415926535897931 10 4.7123889803846897 8 6.2831853071795862 10
1 0 78.284271247461902 1 0 
8 3.1415926535897931 6.2831853071795862
7 0 0  10 38 5  3.1415926535897931 0.33983690945412187  3.1971286906526486 0.33983690939858591  3.2526643403081579 0.33014374595326462  3.3058236397680387 0.31076009244492209  3.3542182646105161 0.28226231259274881  3.3959123386932752 0.24585080306137042  3.4298532850181629 0.20305759240192306  3.4555850467007985 0.1554857010403293  3.4728131402511409 0.10471955403068593  3.4814295630685983 0.052359877376496486  3.4814295630254035 -0.039269908324039149  3.4765831630017865 -0.078539755893333771  3.4668901825637555 -0.11713707119574993  3.4523909519449587 -0.15438786179454289  3.4331657186561393 -0.18962067839248159  3.4093567370943312 -0.22216225506295267  3.3812179554923958 -0.2513478587849603  3.3491759762134783 -0.27655473522980645  3.3138647270342503 -0.2972522917247683  3.219390516198902 -0.33674134315441567  3.1571290324786734 -0.34940554387538103  3.0919692484646362 -0.34971117700656773  3.0273595332330387 -0.33703971381401843  2.96737310450888 -0.3117112588855413  2.9154094984914138 -0.27546981108731927  2.8727670355084456 -0.23043791358264532  2.8404007097301882 -0.17884857351907302  2.8186877501520486 -0.12297159862558747  2.7969266376416728 -0.0071804601550330815  2.796877600205784 0.052733752862561767  2.8078313794344041 0.11239479084780424  2.829700593237618 0.16953664022425841  2.8623234756096565 0.22187409191394636  2.9052214522933184 0.26716764384217484  2.9575473564985941 0.30303564059246746  3.0166364218234492 0.3275692024115453  3.0791146119382753 0.33983690939164385  3.1415926535897927 0.33983690945412193 
 3.5527136788005011e-16 11 1.5707963267949088 9 2.7488935718910898 9 4.516039439535338 9 6.2831853071795871 11
8 3.1415926535897931 6.2831853071795862
1 0 21.715728752538098 1 0 
8 3.5527136788005011e-16 3.1415926535897931
7 0 0  10 38 5  3.1415926535897931 0.33983690945412187  3.1971286906526486 0.33983690939858591  3.2526643403081579 0.33014374595326462  3.3058236397680387 0.31076009244492209  3.3542182646105161 0.28226231259274881  3.3959123386932752 0.24585080306137042  3.4298532850181629 0.20305759240192306  3.4555850467007985 0.1554857010403293  3.4728131402511409 0.10471955403068593  3.4814295630685983 0.052359877376496486  3.4814295630254035 -0.039269908324039149  3.4765831630017865 -0.078539755893333771  3.4668901825637555 -0.11713707119574993  3.4523909519449587 -0.15438786179454289  3.4331657186561393 -0.18962067839248159  3.4093567370943312 -0.22216225506295267  3.3812179554923958 -0.2513478587849603  3.3491759762134783 -0.27655473522980645  3.3138647270342503 -0.2972522917247683  3.219390516198902 -0.33674134315441567  3.1571290324786734 -0.34940554387538103  3.0919692484646362 -0.34971117700656773  3.0273595332330387 -0.33703971381401843  2.96737310450888 -0.3117112588855413  2.9154094984914138 -0.27546981108731927  2.8727670355084456 -0.23043791358264532  2.8404007097301882 -0.17884857351907302  2.8186877501520486 -0.12297159862558747  2.7969266376416728 -0.0071804601550330815  2.796877600205784 0.052733752862561767  2.8078313794344041 0.11239479084780424  2.829700593237618 0.16953664022425841  2.8623234756096565 0.22187409191394636  2.9052214522933184 0.26716764384217484  2.9575473564985941 0.30303564059246746  3.0166364218234492 0.3275692024115453  3.0791146119382753 0.33983690939164385  3.1415926535897927 0.33983690945412193 
 3.5527136788005011e-16 11 1.5707963267949088 9 2.7488935718910898 9 4.516039439535338 9 6.2831853071795871 11
8 3.5527136788005011e-16 3.1415926535897931
1 0 21.715728752538098 1 0 
1 6.2831853071795862 -0 0 1 
1 0 -0 0 1 
Curves 6
2 0 0 0 -2.4492127076447545e-16 -1 0 1 -2.4492127076447545e-16 0 0 0 1 30
2 28.284271247461902 0 0 1 0 0 -0 0 1 0 -1 0 10
2 28.284271247461902 0 0 1 0 0 -0 0 1 0 -1 0 10
2 -28.284271247461902 0 0 1 0 0 -0 0 1 0 -1 0 10
2 -28.284271247461902 0 0 1 0 0 -0 0 1 0 -1 0 10
1 -50 2.4492127076447545e-15 10 1 0 0 
Polygon3D 0
PolygonOnTriangulations 0
Surfaces 2
4 0 0 0 0 0 1 1 0 -0 -0 1 0 30
2 -50 0 0 1 0 0 -0 0 1 0 -1 0 10
Triangulations 0

TShapes 23
Ve
9.63733743912105e-07
28.2842712474662 -2.2391034744659e-15 9.99999999999386
0 0

0101101
*
Ve
1e-07
1.83690953073357e-15 -4.49898216546641e-31 30
0 0

0101101
*
Ed
 1e-07 1 1 0
1  1 0 6.62302221663327 7.85398163397448
3  1 2CN 1 0 6.62302221663327 7.85398163397448
0

0101000
+23 0 -22 0 *
Ed
 1e-07 1 1 1
2  3 1 0 0 6.28318530717959
0

0101100
-22 0 +22 0 *
Ve
9.63733743912105e-07
28.2842712474619 -6.92741965657548e-15 -10
0 0

0101101
*
Ed
 9.63733743912105e-07 1 1 0
1  2 0 6.92741965657548e-16 3.14159265358979
2  4 1 0 6.92741965657548e-16 3.14159265358979
2  5 2 0 6.92741965657548e-16 3.14159265358979
0

0101000
+23 0 -19 0 *
Ve
1e-07
1.83690953073357e-15 -4.49898216546641e-31 -30
0 0

0101101
*
Ed
 1e-07 1 1 0
1  1 0 4.71238898038469 5.94334839772546
3  1 2CN 1 0 4.71238898038469 5.94334839772546
0

0101000
+17 0 -19 0 *
Ed
 1e-07 1 1 1
2  6 1 0 0 6.28318530717959
0

0101100
+17 0 -17 0 *
Ed
 9.6366057531425e-07 1 1 0
1  3 0 3.14159265358979 6.28318530717959
2  7 1 0 3.14159265358979 6.28318530717959
2  8 2 0 3.14159265358979 6.28318530717959
0

0101000
+19 0 -23 0 *
Wi

0101000
-21 0 -20 0 +21 0 -18 0 +16 0 +15 0 -16 0 -14 0 *
Ve
1.05537350765195e-06
-28.2842712474619 -1.22460635382238e-15 -10
0 0

0101101
*
Ve
1.05537350765195e-06
-28.2842712474619 2.44921270764475e-15 10
0 0

0101101
*
Ed
 1.05537350765195e-06 1 1 0
1  4 0 3.14159265358979 6.28318530717959
2  9 1 0 3.14159265358979 6.28318530717959
2  10 2 0 3.14159265358979 6.28318530717959
0

0101000
+12 0 -11 0 *
Ed
 9.64376348061705e-07 1 1 0
1  5 0 3.5527136788005e-16 3.14159265358979
2  11 1 0 3.5527136788005e-16 3.14159265358979
2  12 2 0 3.5527136788005e-16 3.14159265358979
0

0101000
+11 0 -12 0 *
Wi

0101000
+10 0 +9 0 *
Fa
0  1e-07 1 0

0101000
+13 0 +8 0 *
Ed
 1e-07 1 1 0
1  6 0 21.7157287525381 78.2842712474662
3  13 14CN 2 0 21.7157287525381 78.2842712474662
0

0101000
+11 0 -23 0 *
Wi

0101000
+6 0 +10 0 +9 0 -6 0 -18 0 -14 0 *
Fa
0  1e-07 2 0

0101000
+5 0 *
Sh

0101000
+7 0 -4 0 *
So

0100000
+3 0 *
Co

1100000
+2 0 *

+1 0 