DBRep_DrawableShape

CASCADE Topology V1, (c) Matra-Datavision
Locations 0
Curve2ds 4
1 -52.739999999970003 0 0 1 
1 0 -43.189301164619998 1 0 
1 52.739999999974003 0 0 1 
1 0 43.189299524051002 1 0 
Curves 4
7 0 0  4 9 4  161.06829554599 -65.618992955270002 -17.465729339439999  161.22262633163001 -63.929086515439998 -13.84581129823  161.44824820329001 -62.238432842030001 -10.226752222409999  162.52044067377 -54.791538977160002 5.7115636398999996  162.90119936071 -47.351895717310001 21.658203134173998  162.74848322157999 -39.917846627949999 37.611264767807  161.90434405244 -32.491048030839998 53.572649903946001  161.73050211790999 -30.804583242970001 57.196517866603998  161.62795017279001 -29.117370534500001 60.819528375539001 
 -43.189301164619998 5 -27.205861207240002 2 27.205859336892001 2 43.189299524051002 5
7 0 0  3 6 4  161.06829554599 -65.618992955270002 -17.465729339439999  160.99048429739 -60.7855725621 -19.718824356750002  160.55531512339999 -33.754668892159998 -32.319257643770001  160.0423651463 -1.8903452067990001 -47.172787809840003  159.60725058972 25.140557785494 -59.773224436729997  159.52944561469999 29.973978100838 -62.026319837659997 
 -52.739999999970003 4 -36.73999999998 1 36.739999999984001 1 52.739999999974003 4
7 0 0  4 9 4  159.52944561469999 29.973978100838 -62.026319837659997  159.68377640033 31.663884540668001 -58.406401796449998  159.909398272 33.354538214076001 -54.787342720630001  160.98159074245001 40.801432078928002 -38.8490268583  161.36234942940001 48.241075338770997 -22.902387364030002  161.20963329027001 55.675124428136002 -6.9493257304020002  160.36549412113001 63.101923025255999 9.0120594057309997  160.19165218660001 64.788387813132005 12.635927368386  160.08910024148 66.475600521592995 16.258937877308998 
 -43.189301164619998 5 -27.205861207240002 2 27.205859336892001 2 43.189299524051002 5
7 0 0  3 6 4  161.62795017279001 -29.117370534500001 60.819528375539001  161.55013891020999 -24.28395028541 58.566433049635002  161.11496961451999 2.7469521301630002 45.965997075913997  160.60201963741 34.611275815524003 31.112466909845999  160.16690520251001 61.642180062172002 18.512032969642998  160.08910024148 66.475600521592995 16.258937877308998 
 -52.739999999970003 4 -36.73999999998 1 36.739999999984001 1 52.739999999974003 4
Polygon3D 0
PolygonOnTriangulations 0
Surfaces 1
9 0 0 0 0 3 4 6 9 4 4 161.06829554599 -65.618992955270002 -17.465729339439999  161.22262633163001 -63.929086515439998 -13.84581129823  161.44824820329001 -62.238432842030001 -10.226752222409999  162.52044067377 -54.791538977160002 5.7115636398999996  162.90119936071 -47.351895717310001 21.658203134173998  162.74848322157999 -39.917846627949999 37.611264767807  161.90434405244 -32.491048030839998 53.572649903946001  161.73050211790999 -30.804583242970001 57.196517866603998  161.62795017279001 -29.117370534500001 60.819528375539001  
160.99048429739 -60.7855725621 -19.718824356750002  161.14481573824 -59.095666169250002 -16.09890643896  161.37043863381001 -57.40501250306 -12.47984741398  162.44263602461999 -49.958118586600001 3.4584683891019998  162.82339609896999 -42.518475312200003 19.405107866677  162.67067859586001 -35.084426237149998 35.358169516727003  161.82653447647999 -27.65762769194 51.319554712455997  161.65269151209 -25.9711629329 54.943422648833  161.55013891020999 -24.28395028541 58.566433049635002  
160.55531512339999 -33.754668892159998 -32.319257643770001  160.70965226850001 -32.064762908390001 -28.69934080054  160.93528407809001 -30.374109305019999 -25.080282218170002  162.00752430506 -22.927214939359999 -9.1419669307560003  162.38829645801999 -15.48757153831 6.8046724014139999  162.23556708018 -8.0535225877779997 22.757734194415001  161.39137986438999 -0.62672449450000001 38.719119908948002  161.21752793412 1.0597400135549999 42.342987616514002  161.11496961451999 2.7469521301630002 45.965997075913997  
160.0423651463 -1.8903452067990001 -47.172787809840003  160.19670229139999 -0.20043922303200001 -43.552870966610001  160.42233410099001 1.490214380341 -39.933812384230002  161.49457432796001 8.9371087459919991 -23.995497096819999  161.87534648091 16.376752147047998 -8.0488577646540005  161.72261710308001 23.810801097582001 7.9042040283470003  160.87842988727999 31.237599190861001 23.865589742880001  160.70457795701 32.924063698914999 27.489457450446  160.60201963741 34.611275815524003 31.112466909845999  
159.60725058972 25.140557785494 -59.773224436729997  159.76158203055999 26.830464178339 -56.153306518939999  159.98720492613 28.521117844532998 -52.534247493960002  161.05940231693 35.968011760990002 -36.595931690880001  161.44016239128001 43.407655035386 -20.649292213300001  161.28744488817 50.841704110442997 -4.6962305632549999  160.44330076879001 58.268502655643999 11.265154632473999  160.26945780439999 59.954967414690003 14.889022568849001  160.16690520251001 61.642180062172002 18.512032969642998  
159.52944561469999 29.973978100838 -62.026319837659997  159.68377640033 31.663884540668001 -58.406401796449998  159.909398272 33.354538214076001 -54.787342720630001  160.98159074245001 40.801432078928002 -38.8490268583  161.36234942940001 48.241075338770997 -22.902387364030002  161.20963329027001 55.675124428136002 -6.9493257304020002  160.36549412113001 63.101923025255999 9.0120594057309997  160.19165218660001 64.788387813132005 12.635927368386  160.08910024148 66.475600521592995 16.258937877308998  

-52.739999999970003 4
-36.73999999998 1
36.739999999984001 1
52.739999999974003 4

-43.189301164619998 5
-27.205861207240002 2
27.205859336892001 2
43.189299524051002 5

Triangulations 0

TShapes 11
Ve
1e-07
161.06829554599 -65.61899295527 -17.46572933944
0 0

0101101
*
Ve
1e-07
161.62795017279 -29.1173705345 60.819528375539
0 0

0101101
*
Ed
 1e-07 1 1 0
1  1 0 -43.18930116462 43.189299524051
2  1 1 0 -43.18930116462 43.189299524051
0

0101000
+11 0 -10 0 *
Ve
1e-07
159.5294456147 29.973978100838 -62.02631983766
0 0

0101101
*
Ed
 1e-07 1 1 0
1  2 0 -52.73999999997 52.739999999974
2  2 1 0 -52.73999999997 52.739999999974
0

0101000
+11 0 -8 0 *
Ve
1e-07
160.08910024148 66.475600521593 16.258937877309
0 0

0101101
*
Ed
 1e-07 1 1 0
1  3 0 -43.18930116462 43.189299524051
2  3 1 0 -43.18930116462 43.189299524051
0

0101000
+8 0 -6 0 *
Ed
 1e-07 1 1 0
1  4 0 -52.73999999997 52.739999999974
2  4 1 0 -52.73999999997 52.739999999974
0

0101000
+10 0 -6 0 *
Wi

0101000
-9 0 +7 0 +5 0 -4 0 *
Fa
0  1e-07 1 0

0111000
+3 0 *
Sh

0101000
+2 0 *

+1 0 
0

