DBRep_DrawableShape

CASCADE Topology V1, (c) Matra-Datavision
Locations 12
1
              1               0               0              10 
              0               1               0               0 
              0               0               1               0 
1
              1               0               0               0 
              0               1               0               5 
              0               0               1               0 
1
0.707106781186548 -0.707106781186547               0 11.4644660940673 
0.707106781186547 0.707106781186548               0 -7.67766952966369 
              0               0               1               0 
1
              1               0               0               0 
              0               1               0               0 
              0               0               1              -5 
2  1 1 2 1 3 1 4 1 0
2  4 -1 3 -1 2 -1 1 -1 0
1
              1               0               0              10 
              0               1               0               0 
              0               0               1               0 
1
              1               0               0               0 
              0               1               0               0 
              0               0               1             -20 
2  7 1 8 1 0
2  8 -1 0
2  8 -1 7 -1 0
2  7 -1 0
Curve2ds 40
1 0 0 1 0 
1 0 10 1 0 
8 -0.73223304703364755 2.1966991411009515
1 11.553300858899146 10.517766952966372 -0.70710678118654702 0.70710678118654802 
8 -0.73223304703364755 2.1966991411009515
1 5 -0.73223304703364755 0 -1 
8 -1.3388347648317822 5.7322330470336178
1 19.053300858899149 13.017766952966372 -0.70710678118654702 0.70710678118654802 
8 -1.3388347648317822 5.7322330470336178
1 5 -4.2677669529663831 0 -1 
1 0 -10 1 0 
1 0 10 1 0 
1 0 0 0 -1 
1 10 0 0 1 
8 -12.803300858899121 -9.8743686707645288
1 3.0177669529664009 0.94669914110088071 -0.70710678118654802 -0.70710678118654702 
8 -12.803300858899121 -9.8743686707645288
1 5 -2.8033008588991217 0 -1 
8 -13.409902576697268 -6.3388347648318621
1 10.517766952966397 -1.5533008588991191 -0.70710678118654802 -0.70710678118654702 
8 -13.409902576697268 -6.3388347648318621
1 5 -6.3388347648318621 0 -1 
1 0 0 1 0 
1 0 0 1 0 
1 0 0 0 1 
1 0 0 1 0 
1 20 0 0 1 
1 0 20 1 0 
1 20 0 0 -1 
1 20 0 0 1 
8 -4.2677669529663813 2.8033008588991644
1 11.98223304703367 5.9466991411009014 -0.70710678118654702 0.70710678118654802 
8 -4.2677669529663813 2.8033008588991644
1 5 -4.2677669529663813 0 -1 
1 20 0 0 -1 
1 0 0 0 1 
1 20 0 0 1 
1 0 0 1 0 
8 2.8033008588991635 5.7322330470336187
1 11.98223304703367 5.9466991411009014 -0.70710678118654702 0.70710678118654802 
8 2.8033008588991635 5.7322330470336187
1 5 -4.2677669529663813 0 -1 
1 0 -10 1 0 
1 0 0 1 0 
1 0 0 0 -1 
1 0 0 0 1 
1 10 0 0 -1 
1 10 0 0 1 
1 10 0 0 1 
1 0 0 1 0 
1 10 0 0 -1 
1 0 0 0 1 
Curves 24
1 10 0 0 0 0 1 
1 21.553300858899146 10.517766952966372 0 -0.70710678118654702 0.70710678118654802 0 
1 19.053300858899149 13.017766952966372 0 -0.70710678118654702 0.70710678118654802 0 
1 10 10 0 0 0 1 
1 10 0 0 -0 1 0 
1 13.017766952966401 0.94669914110088071 0 -0.70710678118654802 -0.70710678118654702 0 
1 10.517766952966397 -1.5533008588991191 0 -0.70710678118654802 -0.70710678118654702 0 
1 0 0 0 0 0 1 
1 0 0 0 1 0 -0 
1 0 20 20 1 0 -0 
1 20 0 20 0 1 0 
1 11.98223304703367 5.9466991411009014 0 -0.70710678118654702 0.70710678118654802 0 
1 0 0 20 -0 1 0 
1 0 20 20 1 0 -0 
1 20 0 20 0 1 0 
1 0 0 20 1 0 -0 
1 0 0 20 -0 1 0 
1 0 0 20 1 0 -0 
1 11.98223304703367 5.9466991411009014 0 -0.70710678118654702 0.70710678118654802 0 
1 0 10 0 0 0 1 
1 0 0 0 -0 1 0 
1 10 0 10 0 1 0 
1 0 0 10 1 0 -0 
1 0 0 10 -0 1 0 
Polygon3D 0
PolygonOnTriangulations 0
Surfaces 16
1 10 0 0 1 0 -0 0 0 1 0 -1 0 
1 0 0 0 -0 1 0 0 0 1 1 0 -0 
1 0 0 20 0 0 1 1 0 -0 -0 1 0 
1 0 0 20 0 0 1 1 0 -0 -0 1 0 
1 0 10 0 -0 1 0 0 0 1 1 0 -0 
1 0 0 0 0 0 1 1 0 -0 -0 1 0 
1 0 0 0 1 0 -0 0 0 1 0 -1 0 
1 0 20 0 -0 1 0 0 0 1 1 0 -0 
1 20 0 0 1 0 -0 0 0 1 0 -1 0 
1 0 0 0 1 0 -0 0 0 1 0 -1 0 
1 0 20 0 -0 1 0 0 0 1 1 0 -0 
1 20 0 0 1 0 -0 0 0 1 0 -1 0 
1 0 0 0 -0 1 0 0 0 1 1 0 -0 
1 0 0 0 1 0 -0 0 0 1 0 -1 0 
1 0 0 0 -0 1 0 0 0 1 1 0 -0 
1 0 0 10 0 0 1 1 0 -0 -0 1 0 
Triangulations 0

TShapes 81
Ve
1e-07
10 0 0
0 0

0101101
*
Ve
2.00001e-07
22.0710678118655 9.99999999999999 0
0 0

0101101
*
Ed
 1e-07 1 1 0
1  1 0 0 5
2  1 1 0 0 5
2  2 2 0 0 5
0

0101000
+81 0 -80 6 *
Ve
2.00001e-07
20 12.0710678118655 0
0 0

0101101
*
Ed
 1e-07 1 1 0
1  2 0 -0.732233047033648 2.19669914110095
2  3 3 9 -0.732233047033648 2.19669914110095
2  4 1 5 -0.732233047033648 2.19669914110095
0

0101000
+80 0 -78 0 *
Ve
2.00001e-07
15.0000000000001 17.0710678118655 0
0 0

0101101
*
Ed
 1e-07 1 1 0
1  3 0 -1.33883476483178 5.73223304703362
2  5 4 8 -1.33883476483178 5.73223304703362
2  6 1 5 -1.33883476483178 5.73223304703362
0

0101000
+78 0 -76 0 *
Ve
1e-07
10 10 0
0 0

0101101
*
Ed
 1e-07 1 1 0
1  4 0 0 5
2  7 1 0 0 5
2  8 5 0 0 5
0

0101000
+74 0 -76 6 *
Ed
 1e-07 1 1 0
1  5 0 0 10
2  9 1 0 0 10
2  10 6 0 0 10
0

0101000
-74 0 +81 0 *
Wi

0101000
-79 5 -77 0 -75 0 +73 5 +72 5 *
Fa
0  1e-07 1 5

0111000
+71 0 *
Ve
2.00001e-07
20 7.92893218813447 0
0 0

0101101
*
Ed
 1e-07 1 1 0
1  6 0 -12.8033008588991 -9.87436867076453
2  11 3 9 -12.8033008588991 -9.87436867076453
2  12 2 5 -12.8033008588991 -9.87436867076453
0

0101000
+80 0 -69 0 *
Ve
2.00001e-07
15 2.92893218813452 0
0 0

0101101
*
Ed
 1e-07 1 1 0
1  7 0 -13.4099025766973 -6.33883476483186
2  13 4 8 -13.4099025766973 -6.33883476483186
2  14 2 5 -13.4099025766973 -6.33883476483186
0

0101000
+69 0 -67 0 *
Ve
1e-07
0 0 0
0 0

0101101
*
Ed
 1e-07 1 1 0
1  8 0 0 5
2  15 7 0 0 5
2  16 2 0 0 5
0

0101000
+65 0 -67 6 *
Ed
 1e-07 1 1 0
1  9 0 0 10
2  17 2 0 0 10
2  18 6 0 0 10
0

0101000
-81 0 +65 0 *
Wi

0101000
-79 5 -68 0 -66 0 +64 5 -63 5 *
Fa
0  1e-07 2 5

0111000
+62 0 *
Ve
1e-07
0 20 20
0 0

0101101
*
Ve
1e-07
20 20 20
0 0

0101101
*
Ed
 1e-07 1 1 0
1  10 0 10 20
2  19 8 0 10 20
2  20 4 0 10 20
0

0101000
+60 7 -59 0 *
Ed
 1e-07 1 1 0
1  11 0 12.0710678118655 20
2  21 9 0 12.0710678118655 20
2  22 4 0 12.0710678118655 20
0

0101000
+78 10 -59 0 *
Ed
 1e-07 1 1 0
1  11 0 7.92893218813447 12.0710678118655
2  21 9 0 7.92893218813447 12.0710678118655
2  22 4 0 7.92893218813447 12.0710678118655
0

0101000
+69 10 -78 10 *
Ve
2.00001e-07
10 7.92893218813457 0
0 0

0101101
*
Ed
 1e-07 1 1 0
1  12 0 -4.26776695296638 2.80330085889916
2  23 4 8 -4.26776695296638 2.80330085889916
2  24 7 5 -4.26776695296638 2.80330085889916
0

0101000
+67 0 -55 0 *
Ed
 1e-07 1 1 0
1  13 0 7.92893218813457 20
2  25 10 0 7.92893218813457 20
2  26 3 0 7.92893218813457 20
0

0101000
+55 11 -60 0 *
Wi

0101000
-58 8 +57 8 +56 8 -66 0 -54 0 -53 9 *
Wi

0101000
i75 0 *
Fa
0  1e-07 4 8

0111000
+52 0 +51 0 *
Ve
1e-07
20 20 20
0 0

0101101
*
Ed
 1e-07 1 1 0
1  14 0 10 20
2  19 11 0 10 20
2  20 3 0 10 20
0

0101000
+59 12 -49 0 *
Ve
1e-07
20 0 20
0 0

0101101
*
Ed
 1e-07 1 1 0
1  15 0 0 20
2  21 12 0 0 20
2  22 3 0 0 20
0

0101000
-49 0 +47 0 *
Ve
1e-07
20 0 20
0 0

0101101
*
Ed
 1e-07 1 1 0
1  16 0 10 20
2  27 13 0 10 20
2  28 3 0 10 20
0

0101000
+45 12 -47 0 *
Ed
 1e-07 1 1 0
1  11 0 0 7.92893218813447
2  21 9 0 0 7.92893218813447
2  22 4 0 0 7.92893218813447
0

0101000
+45 0 -69 10 *
Wi

0101000
-48 9 +46 9 +44 9 -43 8 +68 0 -77 0 -57 8 *
Fa
0  1e-07 3 9

0111000
+42 0 *
Wi

0101000
+77 0 -68 0 -56 8 *
Fa
0  1e-07 3 9

0111000
+40 0 *
Ve
1e-07
0 20 20
0 0

0101101
*
Ed
 1e-07 1 1 0
1  10 0 0 10
2  19 8 0 0 10
2  20 4 0 0 10
0

0101000
+38 0 -60 7 *
Ve
1e-07
0 0 20
0 0

0101101
*
Ed
 1e-07 1 1 0
1  17 0 0 20
2  25 14 0 0 20
2  26 4 0 0 20
0

0101000
-38 0 +36 0 *
Ve
1e-07
0 0 20
0 0

0101101
*
Ed
 1e-07 1 1 0
1  18 0 0 10
2  27 15 0 0 10
2  28 4 0 0 10
0

0101000
+36 0 -34 7 *
Ed
 1e-07 1 1 0
1  13 0 0 7.92893218813457
2  25 10 0 0 7.92893218813457
2  26 3 0 0 7.92893218813457
0

0101000
+34 0 -55 11 *
Wi

0101000
-37 8 -35 8 +53 9 +33 8 +32 9 *
Ve
2.00001e-07
7.92893218813457 10 0
0 0

0101101
*
Ed
 1e-07 1 1 0
1  19 0 2.80330085889916 5.73223304703362
2  29 4 8 2.80330085889916 5.73223304703362
2  30 7 5 2.80330085889916 5.73223304703362
0

0101000
+55 0 -30 0 *
Wi

0101000
i29 0 *
Fa
0  1e-07 4 8

0111000
+31 0 +28 0 *
Ed
 1e-07 1 1 0
1  18 0 10 20
2  27 15 0 10 20
2  28 4 0 10 20
0

0101000
+34 7 -45 0 *
Wi

0101000
+54 0 +66 0 +43 8 +26 8 -32 9 *
Fa
0  1e-07 4 8

0111000
+25 0 *
Ve
1e-07
0 10 0
0 0

0101101
*
Ed
 1e-07 1 1 0
1  20 0 0 5
2  31 7 0 0 5
2  32 5 0 0 5
0

0101000
+23 0 -30 6 *
Ed
 1e-07 1 1 0
1  21 0 0 10
2  33 7 0 0 10
2  34 6 0 0 10
0

0101000
-23 0 +65 0 *
Wi

0101000
-64 5 -54 0 -29 0 +22 5 +21 5 *
Fa
0  1e-07 7 5

0111000
+20 0 *
Ve
1e-07
10 0 10
0 0

0101101
*
Ed
 1e-07 1 1 0
1  1 0 5 10
2  1 1 0 5 10
2  2 2 0 5 10
0

0101000
+80 6 -18 0 *
Ve
1e-07
10 10 10
0 0

0101101
*
Ed
 1e-07 1 1 0
1  22 0 0 10
2  35 1 0 0 10
2  36 16 0 0 10
0

0101000
-16 0 +18 0 *
Ed
 1e-07 1 1 0
1  4 0 5 10
2  7 1 0 5 10
2  8 5 0 5 10
0

0101000
+76 6 -16 0 *
Wi

0101000
-17 5 -15 5 +14 5 +75 0 +77 0 *
Fa
0  1e-07 1 5

0111000
+13 0 *
Ve
1e-07
0 0 10
0 0

0101101
*
Ed
 1e-07 1 1 0
1  23 0 0 10
2  37 2 0 0 10
2  38 16 0 0 10
0

0101000
-18 0 +11 0 *
Ed
 1e-07 1 1 0
1  8 0 5 10
2  15 7 0 5 10
2  16 2 0 5 10
0

0101000
+67 6 -11 0 *
Wi

0101000
-17 5 +10 5 +9 5 +66 0 +68 0 *
Fa
0  1e-07 2 5

0111000
+8 0 *
Ve
1e-07
0 10 10
0 0

0101101
*
Ed
 1e-07 1 1 0
1  24 0 0 10
2  39 7 0 0 10
2  40 16 0 0 10
0

0101000
-6 0 +11 0 *
Ed
 1e-07 1 1 0
1  20 0 5 10
2  31 7 0 5 10
2  32 5 0 5 10
0

0101000
+30 6 -6 0 *
Wi

0101000
-9 5 -5 5 +4 5 +29 0 +54 0 *
Fa
0  1e-07 7 5

0111000
+3 0 *
Sh

0101000
+70 0 -61 0 +50 0 +41 0 +39 0 +27 0 +24 0 -19 0 +12 0 -7 0 
-2 0 *

+1 0 
0

