DBRep_DrawableShape

CASCADE Topology V1, (c) Matra-Datavision
Locations 0
Curve2ds 12
1 -20.050863603126075 20.492263632157041 0.019945846133505474 -0.99980106182281014 
8 0 6.1999999999999886
1 0 6.1999999999999886 -0 -1 
8 0 20.496341136901876
1 -20.496341136901876 6.1999999999999886 1 -0 
8 0 6.1999999999999886
1 -20.496341136901879 0 -0 1 
1 -19.642046736509592 0 1 0 
1 0 0 -0.029542497105016163 0.99956352517726466 
1 -0.59158804350119354 20.016243992941593 -0.99970093089587819 0.024455035594222074 
8 0 6.1999999999999886
1 -19.465096968736965 0 0 1 
8 0 20.024984394455441
1 -20.024984394455441 6.1999999999999886 1 -0 
8 0 6.1999999999999886
1 -20.024984394455441 0 -0 1 
8 0 19.642046736509588
1 -19.642046736509588 6.1999999999999886 1 -0 
8 0 19.465096968736965
1 -19.465096968736965 6.1999999999999886 1 -0 
Curves 12
1 527882.59999999998 341106 127.5 0.55131791203952496 -0.83429524741807004 0 
1 527893.90000000002 341088.90000000002 133.69999999999999 0 0 -1 
1 527882.59999999998 341106 133.69999999999999 0.55131791203952496 -0.83429524741807004 0 
1 527882.59999999998 341106 127.5 0 0 1 
1 527893.90000000002 341088.90000000002 127.5 0.84512577648649634 0.53456750922413598 0 
1 527910.5 341099.40000000002 127.5 -0.55930130977053416 0.82896444126932556 0 
1 527899.30000000005 341116 127.5 -0.85794589294324308 -0.51374005565248781 0 
1 527899.30000000005 341116 127.5 0 0 1 
1 527910.5 341099.40000000002 133.69999999999999 -0.55930130977053416 0.82896444126932556 0 
1 527910.5 341099.40000000002 127.5 0 0 1 
1 527893.90000000002 341088.90000000002 133.69999999999999 0.84512577648649634 0.53456750922413598 0 
1 527899.30000000005 341116 133.69999999999999 -0.85794589294324308 -0.51374005565248781 0 
Polygon3D 0
PolygonOnTriangulations 0
Surfaces 6
1 527893.90000000002 341088.90000000002 127.5 -0.83429524741807004 -0.55131791203952496 0 0.55131791203952496 -0.83429524741807004 0 0 0 1 
1 527910.5 341099.40000000002 127.5 0 -0 1 0.84512577648649634 0.53456750922413598 0 -0.53456750922413598 0.84512577648649634 0 
1 527899.30000000005 341116 127.5 0.82896444126932556 0.55930130977053416 -0 -0.55930130977053416 0.82896444126932556 0 0 0 1 
1 527882.59999999998 341106 127.5 -0.51374005565248781 0.85794589294324308 0 -0.85794589294324308 -0.51374005565248781 0 0 0 1 
1 527910.5 341099.40000000002 127.5 0.53456750922413598 -0.84512577648649634 0 0.84512577648649634 0.53456750922413598 0 -0 0 1 
1 527910.5 341099.40000000002 133.69999999999999 0 -0 1 0.84512577648649634 0.53456750922413598 0 -0.53456750922413598 0.84512577648649634 0 
Triangulations 0

TShapes 34
Ve
0.2
527882.6 341106 127.5
0 0

0101101
*
Ve
0.2
527893.9 341088.9 127.5
0 0

0101101
*
Ed
 1e-07 1 1 0
1  1 0 0 20.4963411369019
2  1 2 0 0 20.4963411369019
0

0101000
+34 0 -33 0 *
Ve
0.2
527893.9 341088.9 133.7
0 0

0101101
*
Ed
 1e-07 1 1 0
1  2 0 0 6.19999999999999
2  2 1 0 0 6.19999999999999
0

0101000
+31 0 -33 0 *
Ve
0.2
527882.6 341106 133.7
0 0

0101101
*
Ed
 1e-07 1 1 0
1  3 0 0 20.4963411369019
2  3 1 0 0 20.4963411369019
0

0101000
+29 0 -31 0 *
Ed
 1e-07 1 1 0
1  4 0 0 6.19999999999999
2  4 1 0 0 6.19999999999999
0

0101000
+34 0 -29 0 *
Wi

0101000
+32 0 -30 0 -28 0 -27 0 *
Fa
0  0.6 1 0

0111000
+26 0 *
Ve
0.2
527910.5 341099.4 127.5
0 0

0101101
*
Ed
 1e-07 1 1 0
1  5 0 0 19.6420467365096
2  5 2 0 0 19.6420467365096
0

0101000
+33 0 -24 0 *
Ve
0.2
527899.3 341116 127.5
0 0

0101101
*
Ed
 1e-07 1 1 0
1  6 0 0 20.0249843944554
2  6 2 0 0 20.0249843944554
0

0101000
+24 0 -22 0 *
Ed
 1e-07 1 1 0
1  7 0 0 19.465096968737
2  7 2 0 0 19.465096968737
0

0101000
+22 0 -34 0 *
Wi

0101000
+23 0 +21 0 +20 0 +32 0 *
Fa
0  0.6 2 0

0111000
+19 0 *
Ve
0.2
527899.3 341116 133.7
0 0

0101101
*
Ed
 1e-07 1 1 0
1  8 0 0 6.19999999999999
2  8 4 0 0 6.19999999999999
0

0101000
+22 0 -17 0 *
Ve
0.2
527910.5 341099.4 133.7
0 0

0101101
*
Ed
 1e-07 1 1 0
1  9 0 0 20.0249843944554
2  9 3 0 0 20.0249843944554
0

0101000
+15 0 -17 0 *
Ed
 1e-07 1 1 0
1  10 0 0 6.19999999999999
2  10 3 0 0 6.19999999999999
0

0101000
+24 0 -15 0 *
Wi

0101000
+21 0 +16 0 -14 0 -13 0 *
Fa
0  0.6 3 0

0111000
+12 0 *
Ed
 1e-07 1 1 0
1  11 0 0 19.6420467365096
2  11 5 0 0 19.6420467365096
0

0101000
+31 0 -15 0 *
Wi

0101000
+23 0 +13 0 -10 0 +30 0 *
Fa
0  0.6 5 0

0111000
+9 0 *
Ed
 1e-07 1 1 0
1  12 0 0 19.465096968737
2  12 4 0 0 19.465096968737
0

0101000
+17 0 -29 0 *
Wi

0101000
+20 0 +27 0 -7 0 -16 0 *
Fa
0  0.6 4 0

0111000
+6 0 *
Wi

0101000
+10 0 +14 0 +7 0 +28 0 *
Fa
0  0.6 6 0

0111000
+4 0 *
Sh

0101100
+25 0 -18 0 +11 0 +8 0 +5 0 +3 0 *
So

1100000
+2 0 *

+1 0 º