DBRep_DrawableShape

CASCADE Topology V1, (c) Matra-Datavision
Locations 0
Curve2ds 24
7 0 0  1 2 2  0 0  64.973399706978796 0 
 0 2 64.973399706978796 2
7 0 0  1 2 2  1.2158414584385e-12 0  64.973399700550402 1.94993358712021e-11 
 0 2 64.973399706978796 2
7 0 0  1 2 2  64.973399706978796 0  64.973399706978796 163.77606292388299 
 0 2 163.77606292388299 2
7 0 0  1 2 2  64.973399706978796 0  64.973399706978796 163.77606292388299 
 0 2 163.77606292388299 2
7 0 0  1 2 2  0 163.77606292388299  64.973399706978796 163.77606292388299 
 0 2 64.973399706978796 2
7 0 0  1 2 2  -2.19121224737342e-12 0  -64.9733774516247 1.1979267838110301e-11 
 0 2 64.973399706978796 2
7 0 0  1 2 2  0 0  0 163.77606292388299 
 0 2 163.77606292388299 2
7 0 0  1 2 2  165.05678315407101 0  165.05678315407101 163.77606292388299 
 0 2 163.77606292388299 2
7 0 0  1 2 2  64.973399706978796 0  81.219461157884297 0 
 64.973399706978796 2 81.219461157884297 2
7 0 0  1 2 2  64.973399700550402 1.94993358712021e-11  67.836646553820202 15.9917581879888 
 64.973399706978796 2 81.219461157884297 2
7 0 0  1 2 2  81.219461157884297 0  81.219461157884297 163.77606292388299 
 0 2 163.77606292388299 2
7 0 0  1 2 2  81.219461157884297 0  81.219461157884297 163.77606292388299 
 0 2 163.77606292388299 2
7 0 0  1 2 2  64.973399706978796 163.77606292388299  81.219461157884297 163.77606292388299 
 64.973399706978796 2 81.219461157884297 2
7 0 0  1 2 2  -64.9733774516247 1.1979267838110301e-11  -67.836623324431002 15.991752711910699 
 64.973399706978796 2 81.219461157884297 2
7 0 0  1 2 2  81.219461157884297 0  149.05610828905699 0 
 81.219461157884297 2 149.05610828905699 2
7 0 0  1 2 2  67.836646553820202 15.9917581879888  5.9009578655784298e-09 16.000674865668099 
 81.219461157884297 2 149.05610828905699 2
7 0 0  1 2 2  149.05610828905699 0  149.05610828905699 163.77606292388299 
 0 2 163.77606292388299 2
7 0 0  1 2 2  149.05610828905699 0  149.05610828905699 163.77606292388299 
 0 2 163.77606292388299 2
7 0 0  1 2 2  81.219461157884297 163.77606292388299  149.05610828905699 163.77606292388299 
 81.219461157884297 2 149.05610828905699 2
7 0 0  1 2 2  -67.836623324431002 15.991752711910699  -5.90157408250261e-09 16.000669386543699 
 81.219461157884297 2 149.05610828905699 2
7 0 0  1 2 2  149.05610828905699 0  165.05678315407101 0 
 149.05610828905699 2 165.05678315407101 2
7 0 0  1 2 2  5.9009578655784298e-09 16.000674865668099  1.2158414584385e-12 0 
 149.05610828905699 2 165.05678315407101 2
7 0 0  1 2 2  149.05610828905699 163.77606292388299  165.05678315407101 163.77606292388299 
 149.05610828905699 2 165.05678315407101 2
7 0 0  1 2 2  -5.90157408250261e-09 16.000669386543699  -2.19121224737342e-12 0 
 149.05610828905699 2 165.05678315407101 2
Curves 12
7 0 0  1 2 2  6252.6927144350502 -2811.2231776896401 -65.209967401555403  6316.6490708844403 -2822.6742535502899 -65.2099650622105 
 0 2 64.973399706978796 2
7 0 0  4 5 2  6316.6490708844403 -2822.6742535502899 -65.2099650622105  6316.19707619774 -2824.8634332565098 -21.199119889201  6315.8551265814604 -2826.5192823125099 16.491631294717799  6315.5586975710303 -2827.9548099951699 65.339333578862394  6315.4031260126703 -2828.7082215386999 101.156469020917 
 0 5 163.77606292388299 5
7 0 0  1 2 2  6251.4469447936999 -2817.2564037531101 101.20677574049  6315.4031260126703 -2828.7082215386999 101.156469020917 
 0 2 64.973399706978796 2
7 0 0  4 5 2  6252.6927144350602 -2811.2231776896501 -65.209967401555502  6252.2407361855603 -2813.4121804448901 -21.1887283957523  6251.8988016780604 -2815.0680745137402 16.5163074176753  6251.6024324845002 -2816.50338494165 65.379166548750604  6251.4469447936999 -2817.2564037531101 101.20677574049 
 0 5 163.77606292388299 5
7 0 0  1 2 2  6316.6490708844403 -2822.6742535502899 -65.2099650622105  6316.6490708874398 -2838.9203149956002 -65.209986863579303 
 64.973399706978796 2 81.219461157884297 2
7 0 0  4 5 2  6316.6490708874398 -2838.9203149956002 -65.209986863579303  6316.1970200731103 -2841.1095321235498 -21.107080487173999  6315.8552780640102 -2842.7645395607501 16.721042024068801  6315.55940528881 -2844.1974088900702 65.691047041868202  6315.4044977960002 -2844.9476036154701 101.622086470783 
 0 5 163.77606292388299 5
7 0 0  1 2 2  6315.4031260126703 -2828.7082215386999 101.156469020917  6315.4044977960002 -2844.9476036154701 101.622086470783 
 64.973399706978796 2 81.219461157884297 2
7 0 0  1 2 2  6316.6490708874398 -2838.9203149956002 -65.209986863579303  6249.87271514034 -2826.97339039088 -65.209989309319198 
 81.219461157884297 2 149.05610828905699 2
7 0 0  4 5 2  6249.87271514034 -2826.97339039088 -65.209989309319198  6249.4206814567096 -2829.16242278646 -21.096179478008001  6249.0789553383102 -2830.8174767518899 16.7469341040314  6248.7831453276403 -2832.2501177648301 65.732832466404304  6248.6283257706 -2832.9999006478902 101.674870969945 
 0 5 163.77606292388299 5
7 0 0  1 2 2  6315.4044977960002 -2844.9476036154701 101.622086470783  6248.6283257706 -2832.9999006478902 101.674870969945 
 81.219461157884297 2 149.05610828905699 2
7 0 0  1 2 2  6249.87271514034 -2826.97339039088 -65.209989309319198  6252.6927144350602 -2811.2231776896501 -65.209967401555403 
 149.05610828905699 2 165.05678315407101 2
7 0 0  1 2 2  6248.6283257706 -2832.9999006478902 101.674870969945  6251.4469447936999 -2817.2564037531101 101.20677574049 
 149.05610828905699 2 165.05678315407101 2
Polygon3D 0
PolygonOnTriangulations 20
2 1 2 
p 6.95947837556496 1 0 64.9733997069788 
4 2 4 5 3 
p 16.6416743342045 1 0 72.7893612995035 118.282712111693 163.776062923883 
4 1 7 8 6 
p 19.9649782751537 1 0 72.7893612995035 118.282712111693 163.776062923883 
2 2 4 
p 6.95932205316294 1 0 64.9733997069788 
4 1 7 8 6 
p 16.6416743342045 1 0 72.7893612995035 118.282712111693 163.776062923883 
4 2 3 4 5 
p 19.9700091810455 1 0 72.7893612995035 118.282712111693 163.776062923883 
2 1 2 
p 6.49842465812399 1 64.9733997069788 81.2194611578843 
2 2 3 
p 6.95947837556496 1 64.9733997069788 81.2194611578843 
4 2 4 5 3 
p 16.6832073534362 1 0 72.7893612995035 118.282712111693 163.776062923883 
4 1 7 8 6 
p 19.1653254933073 1 0 72.7893612995035 118.282712111693 163.776062923883 
2 6 3 
p 6.49575291070796 1 64.9733997069788 81.2194611578843 
2 4 3 
p 6.95932205316294 1 64.9733997069788 81.2194611578843 
2 3 4 
p 6.95947837556496 1 81.2194611578843 149.056108289057 
4 2 4 5 3 
p 16.6884860479264 1 0 72.7893612995035 118.282712111693 163.776062923883 
4 1 7 8 6 
p 20.1500252097808 1 0 72.7893612995035 118.282712111693 163.776062923883 
2 3 1 
p 6.95932205316294 1 81.2194611578843 149.056108289057 
2 1 2 
p 6.30008516049184 1 149.056108289057 165.056783154071 
2 4 1 
p 6.95947837556496 1 149.056108289057 165.056783154071 
2 6 5 
p 6.2973988379119 1 149.056108289057 165.056783154071 
2 1 2 
p 6.95932205316294 1 149.056108289057 165.056783154071 
Surfaces 6
9 0 0 0 0 1 4 2 5 2 2 6252.6927144350602 -2811.2231776896501 -65.209967401555502  6252.2407361855603 -2813.4121804448901 -21.1887283957523  6251.8988016780604 -2815.0680745137402 16.5163074176753  6251.6024324845002 -2816.50338494165 65.379166548750604  6251.4469447936999 -2817.2564037531101 101.20677574049  
6316.6490708844403 -2822.6742535502899 -65.2099650622105  6316.19707619774 -2824.8634332565098 -21.199119889201  6315.8551265814604 -2826.5192823125099 16.491631294717799  6315.5586975710303 -2827.9548099951699 65.339333578862394  6315.4031260126703 -2828.7082215386999 101.156469020917  

0 2
64.973399706978796 2

0 5
163.77606292388299 5

9 0 0 0 0 1 1 2 2 2 2 6252.6927144350602 -2811.2231776896401 -65.209967401555403  6249.8727151345402 -2826.97339038984 -65.209989318227798  
6319.46749869019 -2823.1788793983401 -65.209964959120697  6316.64749938968 -2838.92909209853 -65.209986875793106  

1.2158414584385e-12 2
67.836646553820202 2

0 2
16.000674865668099 2

9 0 0 0 0 1 4 2 5 2 2 6316.6490708844403 -2822.6742535502899 -65.2099650622105  6316.19707619774 -2824.8634332565098 -21.199119889201  6315.8551265814604 -2826.5192823125099 16.491631294717799  6315.5586975710303 -2827.9548099951699 65.339333578862394  6315.4031260126703 -2828.7082215386999 101.156469020917  
6316.6490708874398 -2838.9203149956002 -65.209986863579303  6316.1970200731103 -2841.1095321235498 -21.107080487173999  6315.8552780640102 -2842.7645395607501 16.721042024068801  6315.55940528881 -2844.1974088900702 65.691047041868202  6315.4044977960002 -2844.9476036154701 101.622086470783  

64.973399706978796 2
81.219461157884297 2

0 5
163.77606292388299 5

9 0 0 0 0 1 1 2 2 2 2 6318.2215460963698 -2829.21288008189 101.154252105114  6315.40292706741 -2844.9563769758902 101.622347325669  
6251.4469447936999 -2817.2564037531101 101.20677574049  6248.6283257647401 -2832.9999006471098 101.674870961045  

-67.836623324431002 2
-2.19121224737342e-12 2

0 2
16.000669386543699 2

9 0 0 0 0 1 4 2 5 2 2 6249.87271514034 -2826.97339039088 -65.209989309319198  6249.4206814567096 -2829.16242278646 -21.096179478008001  6249.0789553383102 -2830.8174767518899 16.7469341040314  6248.7831453276403 -2832.2501177648301 65.732832466404304  6248.6283257706 -2832.9999006478902 101.674870969945  
6252.6927144350602 -2811.2231776896501 -65.209967401555403  6252.2407361855703 -2813.4121804449001 -21.1887283957522  6251.8988016780604 -2815.0680745137402 16.5163074176753  6251.6024324845002 -2816.50338494165 65.379166548750703  6251.4469447936999 -2817.2564037531101 101.20677574049  

149.05610828905699 2
165.05678315407101 2

0 5
163.77606292388299 5

9 0 0 0 0 1 4 2 5 2 2 6316.6490708874398 -2838.9203149956002 -65.209986863579303  6316.1970200731103 -2841.1095321235498 -21.107080487173999  6315.8552780640102 -2842.7645395607501 16.721042024068801  6315.55940528881 -2844.1974088900702 65.691047041868202  6315.4044977960002 -2844.9476036154701 101.622086470783  
6249.87271514034 -2826.97339039088 -65.209989309319198  6249.4206814567096 -2829.16242278646 -21.096179478008001  6249.0789553383102 -2830.8174767518899 16.7469341040314  6248.7831453276403 -2832.2501177648301 65.732832466404304  6248.6283257706 -2832.9999006478902 101.674870969945  

81.219461157884297 2
149.05610828905699 2

0 5
163.77606292388299 5

Triangulations 6
8 6 1 16.6416743342045
6252.69271443505 -2811.22317768964 -65.2099674015554 6316.64907088444 -2822.67425355029 -65.2099650622105 6315.40312601267 -2828.7082215387 101.156469020917 6315.95952730436 -2826.013719561 10.0527130338878 6315.63397325815 -2827.59028156734 57.152611787828 6251.4469447937 -2817.25640375311 101.20677574049 6252.00321206641 -2814.56244442385 10.0746409323137 6251.67771136154 -2816.13881487006 57.1895740827993 0 0 64.9733997069788 0 64.9733997069788 163.776062923883 64.9733997069788 72.7893612995035 64.9733997069788 118.282712111693 0 163.776062923883 0 72.7893612995035 0 118.282712111693 7 1 2 6 8 5 7 4 8 2 4 7 5 3 6 4 5 8 
4 2 1 6.95947837556496
6252.69271443505 -2811.22317768964 -65.2099674015554 6316.64907088444 -2822.67425355029 -65.2099650622105 6316.64907088744 -2838.9203149956 -65.2099868635793 6249.87271514034 -2826.97339039088 -65.2099893093192 1.2158414584385e-12 0 64.9733997005504 1.94993358712021e-11 67.8366465538202 15.9917581879888 5.90095794450463e-09 16.0006748656681 4 1 2 2 3 4 
8 6 1 12.4105907993555
6316.64907088444 -2822.67425355029 -65.2099650622105 6316.64907088744 -2838.9203149956 -65.2099868635793 6315.404497796 -2844.94760361547 101.622086470783 6315.95975720316 -2842.25856210486 10.2514696606907 6315.63467581775 -2843.83288453581 57.4876083015689 6315.40312601267 -2828.7082215387 101.156469020917 6315.95952730436 -2826.013719561 10.0527130338878 6315.63397325815 -2827.59028156734 57.152611787828 64.9733997069788 0 81.2194611578843 0 81.2194611578843 163.776062923883 81.2194611578843 72.7893612995035 81.2194611578843 118.282712111693 64.9733997069788 163.776062923883 64.9733997069788 72.7893612995035 64.9733997069788 118.282712111693 7 1 2 6 8 5 7 4 8 2 4 7 5 3 6 4 5 8 
4 2 1 6.95932205316294
6248.6283257706 -2832.99990064789 101.674870969945 6251.4469447937 -2817.25640375311 101.20677574049 6315.404497796 -2844.94760361547 101.622086470783 6315.40312601267 -2828.7082215387 101.156469020917 -5.90156901125738e-09 16.0006693865437 -2.18847162614111e-12 0 -67.836623324431 15.9917527119107 -64.9733774516247 1.19792678381103e-11 3 4 1 2 1 4 
8 6 1 13.1793795973075
6249.87271514034 -2826.97339039088 -65.2099893093192 6252.69271443505 -2811.22317768964 -65.2099674015554 6252.00321206641 -2814.56244442385 10.0746409323137 6251.67771136154 -2816.13881487006 57.1895740827993 6251.4469447937 -2817.25640375311 101.20677574049 6248.6283257706 -2832.99990064789 101.674870969945 6249.18344461282 -2830.31142875729 10.274475247773 6248.85841918427 -2831.88554993292 57.5263871547613 149.056108289057 0 165.056783154071 0 165.056783154071 72.7893612995035 165.056783154071 118.282712111693 165.056783154071 163.776062923883 149.056108289057 163.776062923883 149.056108289057 72.7893612995035 149.056108289057 118.282712111693 7 1 2 6 8 4 7 3 8 2 3 7 4 5 6 3 4 8 
8 6 1 17.3076959092716
6316.64907088744 -2838.9203149956 -65.2099868635793 6249.87271514034 -2826.97339039088 -65.2099893093192 6248.6283257706 -2832.99990064789 101.674870969945 6249.18344461282 -2830.31142875729 10.274475247773 6248.85841918427 -2831.88554993292 57.5263871547613 6315.404497796 -2844.94760361547 101.622086470783 6315.95975720316 -2842.25856210486 10.2514696606907 6315.63467581775 -2843.83288453581 57.4876083015689 81.2194611578843 0 149.056108289057 0 149.056108289057 163.776062923883 149.056108289057 72.7893612995035 149.056108289057 118.282712111693 81.2194611578843 163.776062923883 81.2194611578843 72.7893612995035 81.2194611578843 118.282712111693 7 1 2 6 8 5 7 4 8 2 4 7 5 3 6 4 5 8 

TShapes 34
Ve
1e-07
6252.69271443505 -2811.22317768964 -65.2099674015554
0 0

0101101
*
Ve
1e-07
6316.64907088444 -2822.67425355029 -65.2099650622105
0 0

0101101
*
Ed
 2.22044604925031e-16 1 1 0
1  1 0 0 64.9733997069788
2  1 1 0 0 64.9733997069788
2  2 2 0 0 64.9733997069788
6  1 2 0
0

0101000
+34 0 -33 0 *
Ve
1e-07
6315.40312601267 -2828.7082215387 101.156469020917
0 0

0101101
*
Ed
 2.22044604925031e-16 1 1 0
1  2 0 0 163.776062923883
2  3 1 0 0 163.776062923883
2  4 3 0 0 163.776062923883
6  2 1 0
6  3 3 0
0

0101000
+33 0 -31 0 *
Ve
1e-07
6251.4469447937 -2817.25640375311 101.20677574049
0 0

0101101
*
Ed
 2.22044604925031e-16 1 1 0
1  3 0 0 64.9733997069788
2  5 1 0 0 64.9733997069788
2  6 4 0 0 64.9733997069788
6  4 4 0
0

0101000
+29 0 -31 0 *
Ed
 2.22044604925031e-16 1 1 0
1  4 0 0 163.776062923883
2  7 1 0 0 163.776062923883
2  8 5 0 0 163.776062923883
6  5 1 0
6  6 5 0
0

0101000
+34 0 -29 0 *
Wi

0101100
+32 0 +30 0 -28 0 -27 0 *
Fa
0  1e-07 1 0
2  1
0111000
+26 0 *
Ve
1e-07
6316.64907088744 -2838.9203149956 -65.2099868635793
0 0

0101101
*
Ed
 2.22044604925031e-16 1 1 0
1  5 0 64.9733997069788 81.2194611578843
2  9 3 0 64.9733997069788 81.2194611578843
2  10 2 0 64.9733997069788 81.2194611578843
6  7 3 0
6  8 2 0
0

0101000
+33 0 -24 0 *
Ve
1e-07
6315.404497796 -2844.94760361547 101.622086470783
0 0

0101101
*
Ed
 2.22044604925031e-16 1 1 0
1  6 0 0 163.776062923883
2  11 3 0 0 163.776062923883
2  12 6 0 0 163.776062923883
6  9 3 0
6  10 6 0
0

0101000
+24 0 -22 0 *
Ed
 2.22044604925031e-16 1 1 0
1  7 0 64.9733997069788 81.2194611578843
2  13 3 0 64.9733997069788 81.2194611578843
2  14 4 0 64.9733997069788 81.2194611578843
6  11 3 0
6  12 4 0
0

0101000
+31 0 -22 0 *
Wi

0101100
+23 0 +21 0 -20 0 -30 0 *
Fa
0  1e-07 3 0
2  3
0111000
+19 0 *
Ve
1e-07
6249.87271514034 -2826.97339039088 -65.2099893093192
0 0

0101101
*
Ed
 2.22044604925031e-16 1 1 0
1  8 0 81.2194611578843 149.056108289057
2  15 6 0 81.2194611578843 149.056108289057
2  16 2 0 81.2194611578843 149.056108289057
6  13 2 0
0

0101000
+24 0 -17 0 *
Ve
1e-07
6248.6283257706 -2832.99990064789 101.674870969945
0 0

0101101
*
Ed
 2.22044604925031e-16 1 1 0
1  9 0 0 163.776062923883
2  17 6 0 0 163.776062923883
2  18 5 0 0 163.776062923883
6  14 6 0
6  15 5 0
0

0101000
+17 0 -15 0 *
Ed
 2.22044604925031e-16 1 1 0
1  10 0 81.2194611578843 149.056108289057
2  19 6 0 81.2194611578843 149.056108289057
2  20 4 0 81.2194611578843 149.056108289057
6  16 4 0
0

0101000
+22 0 -15 0 *
Wi

0101100
+16 0 +14 0 -13 0 -21 0 *
Fa
0  1e-07 6 0
2  6
0111000
+12 0 *
Ed
 2.22044604925031e-16 1 1 0
1  11 0 149.056108289057 165.056783154071
2  21 5 0 149.056108289057 165.056783154071
2  22 2 0 149.056108289057 165.056783154071
6  17 5 0
6  18 2 0
0

0101000
+17 0 -34 0 *
Ed
 2.22044604925031e-16 1 1 0
1  12 0 149.056108289057 165.056783154071
2  23 5 0 149.056108289057 165.056783154071
2  24 4 0 149.056108289057 165.056783154071
6  19 5 0
6  20 4 0
0

0101000
+15 0 -29 0 *
Wi

0101100
+10 0 +27 0 -9 0 -14 0 *
Fa
0  1e-07 5 0
2  5
0111000
+8 0 *
Wi

0101100
+32 0 +23 0 +16 0 +10 0 *
Fa
0  1e-07 2 0
2  2
0111000
+6 0 *
Wi

0101100
-9 0 -13 0 -20 0 -28 0 *
Fa
0  1e-07 4 0
2  4
0111000
+4 0 *
Sh

0101100
-25 0 -18 0 -11 0 -7 0 +5 0 +3 0 *
So

0100000
+2 0 *

+1 0 
0

