DBRep_DrawableShape

CASCADE Topology V1, (c) Matra-Datavision
Locations 17
1
              1               0               0               5 
              0               1               0              -5 
              0               0               1               5 
1
              1               0               0               0 
              0 0.996194698091746 -0.0871557427476582 0.416752204197018 
              0 0.0871557427476582 0.996194698091746 0.454805223279563 
1
0.996194698091746               0 -0.0871557427476582 0.454805223279563 
              0               1               0               0 
0.0871557427476582               0 0.996194698091746 -0.416752204197018 
1
0.996194698091746               0 0.0871557427476582 -0.416752204197018 
              0               1               0               0 
-0.0871557427476582               0 0.996194698091746 0.454805223279563 
1
              1               0               0               0 
              0 0.996194698091746 0.0871557427476582 -0.454805223279563 
              0 -0.0871557427476582 0.996194698091746 -0.416752204197018 
1
              1               0               0               0 
              0 0.999961923064171 -0.00872653549837393 0.0434422928127258 
              0 0.00872653549837393 0.999961923064171 0.0438230621710129 
1
0.999961923064171               0 -0.00872653549837393 0.0438230621710129 
              0               1               0               0 
0.00872653549837393               0 0.999961923064171 -0.0434422928127258 
1
0.999847695156391               0 -0.0174524064372835 0.0880235564044618 
              0               1               0               0 
0.0174524064372835               0 0.999847695156391 -0.0865005079683741 
1
              1               0               0               0 
              0 0.999847695156391 -0.0174524064372835 0.0865005079683741 
              0 0.0174524064372835 0.999847695156391 0.0880235564044618 
1
              1               0               0               0 
              0 0.999847695156391 -0.0174524064372835 0.0865005079683741 
              0 0.0174524064372835 0.999847695156391 0.0880235564044618 
1
0.999390827019096               0 -0.034899496702501 0.177543348417027 
              0               1               0               0 
0.034899496702501               0 0.999390827019096 -0.171451618607984 
1
0.999390827019096               0 -0.034899496702501 0.177543348417027 
              0               1               0               0 
0.034899496702501               0 0.999390827019096 -0.171451618607984 
1
              1               0               0               0 
              0 0.999847695156391 -0.0174524064372835 0.0865005079683741 
              0 0.0174524064372835 0.999847695156391 0.0880235564044618 
1
              1               0               0               0 
              0 0.996194698091746 0.0871557427476582 -0.454805223279563 
              0 -0.0871557427476582 0.996194698091746 -0.416752204197018 
1
              1               0               0               0 
              0 0.996194698091746 0.0871557427476582 -0.454805223279563 
              0 -0.0871557427476582 0.996194698091746 -0.416752204197018 
2  1 1 2 1 3 1 4 1 5 1 6 1 7 1 8 1 9 1 10 1 11 1 12 1 13 1 14 1 15 1 0
2  15 -1 14 -1 13 -1 12 -1 11 -1 10 -1 9 -1 8 -1 7 -1 6 -1 5 -1 4 -1 3 -1 2 -1 1 -1 0
Curve2ds 50
1 1.6784673634930485 -4.7024911537642611 0.99355769108228897 -0.11332746574079437 
1 -2.6724881121556114 4.7988249535320078 0.99540263392317563 0.09577889318009819 
7 0 0  8 9 2  -1.889508750299635e-15 0.00033290007914210185  0.18215318558182692 0.00026495152185386842  0.36430637016258061 7.2989318389060642e-05  0.5464595547468889 -0.00023955040332657163  0.72861273931948745 -0.00066045689466331936  0.91076592391118538 -0.0011690955166070438  1.0929191084894683 -0.0017383606798470064  1.2750722930728 -0.0023379410951101607  1.4572254786546304 -0.0029375214318321657 
 0.11357084814026752 9 1.5707963267948966 9
3 9 -6.5440913982896598 0 1 1 -0 1.0000054173893516 1
1 5.1653636565593946 2.1968321416459102 0.11301480506049318 0.9935933040420204 
1 5.0321550628812339 2.7500019280245822 -0.0032855083164768303 -0.99999460270298579 
1 10 0 0 -1 
1 10 0 0 1 
1 0 0 1 0 
1 0 10 1 0 
1 0 -10 1 0 
1 0 10 1 0 
1 0 0 0 -1 
1 10 0 0 1 
1 0 -10 1 0 
1 0 0 1 0 
1 0 0 0 1 
1 4.7761454550896936 5.5158762798056218 0.095407571749584558 -0.99543829304123521 
1 0 0 0 1 
1 0 10 1 0 
1 1.4572254786546288 0 0 1 
1 9.9970624944817779 6.5440817291172975 -0.9999945826399963 -0.0032916091292299601 
7 0 0  8 9 2  -1.1315191053749307e-16 5.5411533978200413  0.18215318558182847 5.5586118311998938  0.36430637016394485 5.5760702668612794  0.54645955474234142 5.592645990451274  0.72861273933131088 5.6074564052323694  0.91076592390572841 5.6197122573721572  1.0929191084915146 5.6288127124262246  1.2750722930728 5.6344022208524489  1.4572254786546304 5.636380730299841 
 4.7123889803846915 9 6.1696144590393187 9
3 5.3048134454676621 -11.000000000000002 1 -2.7755575615628914e-17 -2.7755575615628914e-17 -1 1.0045826114894858 1
1 0 0 0 -1 
1 0 0 0 1 
1 4.1734851495728549 2.3379377399305517 0.096390240816636261 0.99534361979936903 
1 -2.6577135032558892 5.0701342397488824 0.99989947606267371 -0.014178778846951611 
1 10 0 0 1 
1 0 10 1 0 
1 4.4880606545344932 -2.4718611449615429 -0.01415250426088013 0.999899848296391 
1 5.2785635137261515 -1.9468783206327527 0.11383947755434652 -0.99349915618995543 
1 10 0 0 -1 
1 0 0 0 1 
1 4.4880606545344932 -2.4718611449615429 -0.01415250426088013 0.999899848296391 
1 5.2785635137261515 -1.9468783206327527 0.11383947755434652 -0.99349915618995543 
1 10 0 0 1 
1 0 0 1 0 
1 0 0 0 1 
1 0 0 1 0 
1 0 0 1 0 
1 0 0 1 0 
1 2.7517282122644846 5.1433361307940091 -0.99549611543155792 0.09480234259066754 
1 -1.674850297585861 -5.2220827031554196 -0.99365099932607093 -0.11250640665446845 
1 0 0 0 1 
1 0 10 1 0 
1 0 -10 1 0 
1 0 0 1 0 
1 0 0 0 -1 
1 0 0 0 1 
Curves 25
1 10 4.7024911537642611 1.6784673634930485 0 0.11332746574079437 0.99355769108228897 
8 0.11357084814026752 1.5707963267948966
3 10 6.5440913982896598 9 -1 -0 0 0 -1 0 0 0 1 1.0000054173893516 1
1 10 -2.1968321416459102 5.1653636565593946 0 -0.9935933040420204 0.11301480506049318 
1 10 0 10 0 1 0 
1 10 0 0 0 0 1 
1 10 10 0 0 0 1 
1 10 0 0 -0 1 0 
1 0 10 0 0 0 1 
1 10.000332898275701 5.5505293513677136 9.1133268596898969 -0.9999945826399963 -0.0032916091292299601 0 
1 0 10 0 1 0 -0 
1 9.9970624944817779 6.5440817291172975 10 -0.9999945826399963 -0.0032916091292299601 0 
8 4.7123889803846915 6.1696144590393187
3 4.4559391150845293 6.5258424180065697 9 -0.99539731072411286 -0.014088775696179367 -0.09479293329455922 -0.095778380975190314 0.11249524019944886 0.98902544086097177 -0.0032704037939233696 0.99355237774958349 -0.11332685968989717 1.0045826114894858 1
1 0 0 0 -0 1 0 
1 2.3379377399305517 4.4408920985006262e-16 4.1734851495728549 0.99534361979936903 0 0.096390240816636261 
1 0 10 10 1 0 -0 
8 8.1058163252506112 8.9982913060150373
1 4.4880606545344932 -2.4718611449615429 10 -0.01415250426088013 0.999899848296391 0 
1 0 0 10 -0 1 0 
1 4.4880606545344932 -2.4718611449615429 10 -0.01415250426088013 0.999899848296391 0 
1 0 0 10 1 0 -0 
1 0 0 0 1 0 -0 
1 0 0 0 0 0 1 
1 5.1433361307940091 0 2.7517282122644846 0.09480234259066754 0 -0.99549611543155792 
1 0 10 0 1 0 -0 
1 0 10 0 0 0 1 
1 0 0 0 -0 1 0 
Polygon3D 0
PolygonOnTriangulations 34
2 4 2 
p 0.0496967333575947 1 -7.25003720257957 -2.21099732929863 
2 4 3 
p 0.0496967333575947 1 -7.25003720257957 -2.21099732929863 
2 1 2 
p 0.0496967333575947 1 0 4.91548822439944 
2 1 2 
p 0.0496967333575947 1 0 4.91548822439944 
2 3 5 
p 0.0496967333575947 1 0 10 
2 2 3 
p 0.0496967333575947 1 0 10 
2 1 3 
p 0.0496967333575947 1 0 10 
2 4 3 
p 0.0496967333575947 1 0 10 
2 2 4 
p 0.0496967333575947 1 0 5.05597512040508 
2 1 2 
p 0.0496967333575947 1 0 5.05597512040508 
2 1 2 
p 0.0496967333575947 1 5.03244731931003 10 
2 3 1 
p 0.0496967333575947 1 5.03244731931003 10 
2 4 2 
p 0.0496967333575947 1 2.65798069394058 7.69790664013488 
2 1 3 
p 0.0496967333575947 1 2.65798069394058 7.69790664013488 
2 4 3 
p 0.0496967333575947 1 0 10 
2 4 2 
p 0.0496967333575947 1 0 10 
2 6 4 
p 0.0496967333575947 1 0 10 
2 2 3 
p 0.0496967333575947 1 0 10 
2 5 3 
p 0.0496967333575947 1 2.47210873086245 8.10581632525061 
2 4 2 
p 0.0496967333575947 1 2.47210873086245 8.10581632525061 
2 5 6 
p 0.0496967333575947 1 0 4.4530741251876 
2 6 5 
p 0.0496967333575947 1 0 4.4530741251876 
2 3 1 
p 0.0496967333575947 1 0 10 
2 1 4 
p 0.0496967333575947 1 0 10 
2 3 5 
p 0.0496967333575947 1 0 10 
2 1 2 
p 0.0496967333575947 1 0 10 
2 6 4 
p 0.0496967333575947 1 -7.28106486341568 -1.68555186752874 
2 4 3 
p 0.0496967333575947 1 -7.28106486341568 -1.68555186752874 
2 2 3 
p 0.0496967333575947 1 0 10 
2 1 2 
p 0.0496967333575947 1 0 10 
2 1 4 
p 0.0496967333575947 1 0 10 
2 4 3 
p 0.0496967333575947 1 0 10 
2 1 2 
p 0.0496967333575947 1 0 10 
2 1 4 
p 0.0496967333575947 1 0 10 
Surfaces 10
1 10 0 0 1 0 -0 0 0 1 0 -1 0 
1 0 10 0 -0 1 0 0 0 1 1 0 -0 
2 9.9970624944817779 6.5440817291172975 9 -0.9999945826399963 -0.0032916091292299601 0 0.0032704037939233718 -0.99355237774958349 0.11332685968989711 -0.0003730277259422281 0.11332624575750008 0.99355776020965514 1
1 0 0 0 0 0 1 1 0 -0 -0 1 0 
1 0 0 10 0 0 1 1 0 -0 -0 1 0 
1 0 0 0 -0 1 0 0 0 1 1 0 -0 
1 0 10 0 -0 1 0 0 0 1 1 0 -0 
1 0 0 0 0 0 1 1 0 -0 -0 1 0 
1 0 0 0 1 0 -0 0 0 1 0 -1 0 
1 0 0 0 1 0 -0 0 0 1 0 -1 0 
Triangulations 9
6 4 1 0.0496967333575947
10 0 0 10 0 4.91548822439944 10 10 0 10 5.00675627689269 4.34600211542854 10 10 10 10 5.6516642246781 10 0 0 4.91548822439944 0 0 -10 4.34600211542854 -5.00675627689269 10 -10 10 -5.6516642246781 3 4 1 4 3 5 1 4 2 6 4 5 
5 4 1 0.0496967333575947
4.98354186519421 0 4.42968854874776 4.96729596206077 4.93552377749584 3.86673140310103 10 0 4.91548822439944 10 5.00675627689269 4.34600211542854 7.49188778411713 2.46787851427646 4.391894500524 0 5.03244731931003 0 10 5.03941931299435 4.96098732391393 5.05597512040508 10 2.52798756020254 7.48049366195696 2 1 5 5 3 4 3 5 1 5 4 2 
6 4 1 0.0496967333575947
10 0 0 10 0 4.91548822439944 0 0 0 4.98354186519421 0 4.42968854874776 0 0 10 4.4530741251876 0 10 0 10 4.91548822439944 10 0 0 4.42968854874776 4.98354186519421 10 0 10 4.4530741251876 3 4 1 4 3 5 1 4 2 6 4 5 
4 2 1 0.0496967333575947
0 10 0 10 10 0 10 10 10 0 10 10 0 0 0 10 10 10 10 0 2 1 4 4 3 2 
4 2 1 0.0496967333575947
0 0 0 0 10 0 10 10 0 10 0 0 0 0 0 10 10 10 10 0 2 1 4 4 3 2 
5 4 1 0.0496967333575947
4.96729596206077 4.93552377749584 3.86673140310103 10 5.00675627689269 4.34600211542854 4.37334305445347 5.63314336897495 10 10 5.6516642246781 10 7.45793969469113 5.32378933136301 7.19883426524492 0 0 0 5.05597512040508 6.20132540934417 0 5.66449682490795 5.60102012814587 3.10066270467209 2.80051006407293 2 1 5 5 3 4 3 5 1 5 4 2 
5 4 1 0.0496967333575947
4.96729596206077 4.93552377749584 3.86673140310103 4.37334305445347 5.63314336897495 10 4.98354186519421 0 4.42968854874776 4.4530741251876 0 10 4.67947187020826 2.50383564344635 7.25051566345889 0 -10 6.20132540934417 -10 0 -5.03244731931003 5.55998708010507 -4.40291625875441 3.10066270467209 -7.20145812937721 3 1 5 5 2 4 2 5 1 5 4 3 
6 4 1 0.0496967333575947
10 5.6516642246781 10 10 10 10 4.37334305445347 5.63314336897495 10 0 10 10 4.4530741251876 0 10 0 0 10 10 5.6516642246781 10 10 4.37334305445347 5.63314336897495 0 10 4.4530741251876 0 0 0 6 3 4 3 6 5 4 3 2 1 2 3 
4 2 1 0.0496967333575947
0 0 0 0 0 10 0 10 10 0 10 0 0 0 10 0 10 -10 0 -10 1 4 3 3 2 1 

TShapes 65
Ve
1e-07
10 5.55052825559077 9.1133268596899
0 0

0101101
*
Ve
1e-07
10 5.00675627689269 4.34600211542854
0 0

0101101
*
Ed
 1e-07 1 1 0
1  1 0 2.68483126433225 7.48306773016674
2  1 1 0 2.68483126433225 7.48306773016674
2  2 2 16 2.68483126433225 7.48306773016674
0

0101000
-65 0 +64 0 *
Ve
1e-07
10 6.54409139828966 10
0 0

0101101
*
Ed
 1e-07 1 1 0
1  2 0 0.113570848140268 1.5707963267949
2  3 3 0 0.113570848140268 1.5707963267949
2  4 1 0 0.113570848140268 1.5707963267949
0

0101000
+65 0 -62 0 *
Ve
1e-07
10 0 4.91548822439944
0 0

0101101
*
Ed
 1e-07 1 1 0
1  3 0 -7.25003720257957 -2.21099732929863
2  5 1 0 -7.25003720257957 -2.21099732929863
2  6 4 16 -7.25003720257957 -2.21099732929863
6  1 1 0
6  2 2 0
0

0101000
+64 0 -60 0 *
Ve
1e-07
10 10 10
0 0

0101101
*
Ed
 1e-07 1 1 0
1  4 0 6.54409139828966 10
2  7 1 0 6.54409139828966 10
2  8 5 0 6.54409139828966 10
0

0101000
+62 0 -58 0 *
Ve
1e-07
10 0 0
0 0

0101101
*
Ed
 1e-07 1 1 0
1  5 0 0 4.91548822439944
2  9 1 0 0 4.91548822439944
2  10 6 0 0 4.91548822439944
6  3 1 0
6  4 3 0
0

0101000
+56 0 -60 0 *
Ve
1e-07
10 10 0
0 0

0101101
*
Ed
 1e-07 1 1 0
1  6 0 0 10
2  11 1 0 0 10
2  12 7 0 0 10
6  5 1 0
6  6 4 0
0

0101000
-58 0 +54 0 *
Ed
 1e-07 1 1 0
1  7 0 0 10
2  13 1 0 0 10
2  14 8 0 0 10
6  7 1 0
6  8 5 0
0

0101000
-54 0 +56 0 *
Wi

0101100
-63 0 -61 0 +59 0 -57 0 -55 0 +53 0 +52 0 *
Fa
0  1e-07 1 0

0101000
+51 0 *
Ve
1e-07
4.45920951887845 5.53229004025699 9.1133268596899
0 0

0101101
*
Ve
1e-07
0 10 0
0 0

0101101
*
Ed
 1e-07 1 1 0
1  8 0 0 5.30481344546766
2  15 9 0 0 5.30481344546766
2  16 2 0 0 5.30481344546766
0

0101000
-49 17 +48 0 *
Ed
 1e-07 1 1 0
1  9 0 0.000332900079139905 5.54115339782004
2  17 3 0 0.000332900079139905 5.54115339782004
2  18 2 16 0.000332900079139905 5.54115339782004
4 G1 3 0 2 16
0

0101000
+65 0 -49 0 *
Ed
 1e-07 1 1 0
1  10 0 0 5.05597512040508
2  19 2 0 0 5.05597512040508
2  20 4 0 0 5.05597512040508
6  9 2 17
6  10 6 17
0

0101000
+48 0 -64 17 *
Wi

0101100
+47 16 -46 0 -45 16 -63 0 *
Fa
0  1e-07 2 16

0101000
+44 0 *
Ve
0.0001
4.36071229848547 6.52552896684963 10
0 0

0101101
*
Ed
 1e-07 1 1 0
1  11 0 -0.00293752143183325 5.63638073029984
2  21 3 0 -0.00293752143183325 5.63638073029984
2  22 5 0 -0.00293752143183325 5.63638073029984
4 G1 3 0 5 0
0

0101000
+62 0 -42 0 *
Ed
 1e-07 1 1 0
1  12 0 4.71238898038469 6.16961445903932
2  23 3 0 4.71238898038469 6.16961445903932
2  24 9 16 4.71238898038469 6.16961445903932
0

0101000
+49 0 -42 0 *
Wi

0101100
+61 0 -46 0 +41 0 -40 0 *
Fa
0  0 3 0

0101000
+39 0 *
Ve
1e-07
4.98354186519421 0 4.42968854874776
0 0

0101101
*
Ed
 1e-07 1 1 0
1  13 0 5.03244731931003 10
2  25 9 0 5.03244731931003 10
2  26 4 0 5.03244731931003 10
6  11 2 17
6  12 7 17
0

0101000
+37 17 -48 0 *
Ed
 1e-07 1 1 0
1  14 0 2.65798069394058 7.69790664013488
2  27 6 0 2.65798069394058 7.69790664013488
2  28 4 16 2.65798069394058 7.69790664013488
6  13 3 0
6  14 2 0
0

0101000
+37 0 -60 0 *
Wi

0101000
-36 16 +35 0 -45 16 -59 0 *
Fa
0  1e-07 4 16
2  2
0101000
+34 0 *
Ve
1e-07
0 10 10
0 0

0101101
*
Ed
 1e-07 1 1 0
1  15 0 0 10
2  29 7 0 0 10
2  30 5 0 0 10
6  15 4 0
6  16 8 0
0

0101000
-58 0 +32 0 *
Ve
0.0001
4.37334305445347 5.63314336897495 10
0 0

0101101
*
Ed
 0.0001 1 1 0
1  16 0 8.10581632525061 8.99829130601504
2  31 5 0 8.10581632525061 8.99829130601504
2  32 9 16 8.10581632525061 8.99829130601504
0

0101000
+30 0 -42 0 *
Ve
1e-07
0 0 10
0 0

0101101
*
Ed
 1e-07 1 1 0
1  17 0 0 10
2  33 10 0 0 10
2  34 5 0 0 10
6  17 8 0
6  18 9 0
0

0101000
-32 0 +28 0 *
Ve
1e-07
4.4530741251876 0 10
0 0

0101101
*
Ed
 1e-07 1 1 0
1  18 0 2.47210873086245 8.10581632525061
2  35 5 0 2.47210873086245 8.10581632525061
2  36 9 16 2.47210873086245 8.10581632525061
6  19 8 0
6  20 7 0
0

0101000
+26 0 -30 0 *
Ed
 1e-07 1 1 0
1  19 0 0 4.4530741251876
2  37 6 0 0 4.4530741251876
2  38 5 0 0 4.4530741251876
6  21 3 0
6  22 8 0
0

0101000
+28 0 -26 0 *
Wi

0101100
+57 0 -41 0 -31 0 +29 0 -27 0 +25 0 +24 0 *
Fa
0  1e-07 5 0

0101000
+23 0 *
Ve
1e-07
0 0 0
0 0

0101101
*
Ed
 1e-07 1 1 0
1  20 0 0 10
2  39 6 0 0 10
2  40 8 0 0 10
6  23 3 0
6  24 5 0
0

0101000
-56 0 +21 0 *
Ed
 1e-07 1 1 0
1  21 0 0 10
2  41 10 0 0 10
2  42 6 0 0 10
6  25 3 0
6  26 9 0
0

0101000
-28 0 +21 0 *
Ed
 1e-07 1 1 0
1  22 0 -7.28106486341568 -1.68555186752874
2  43 6 0 -7.28106486341568 -1.68555186752874
2  44 9 16 -7.28106486341568 -1.68555186752874
6  27 3 0
6  28 7 0
0

0101000
+26 0 -37 0 *
Wi

0101000
-55 0 -20 0 +35 0 +19 0 +18 0 +24 0 *
Fa
0  1e-07 6 0
2  3
0101000
+17 0 *
Ve
1e-07
0 10 0
0 0

0101101
*
Ed
 1e-07 1 1 0
1  23 0 0 10
2  45 7 0 0 10
2  46 8 0 0 10
6  29 5 0
6  30 4 0
0

0101000
-54 0 +15 0 *
Ed
 1e-07 1 1 0
1  24 0 0 10
2  47 10 0 0 10
2  48 7 0 0 10
6  31 4 0
6  32 9 0
0

0101000
-32 0 +15 0 *
Wi

0101000
-14 0 -53 0 +31 0 +13 0 *
Fa
0  1e-07 7 0
2  4
0101000
+12 0 *
Ed
 1e-07 1 1 0
1  25 0 0 10
2  49 10 0 0 10
2  50 8 0 0 10
6  33 5 0
6  34 9 0
0

0101000
-15 0 +21 0 *
Wi

0101000
-10 0 -14 0 +52 0 +20 0 *
Fa
0  1e-07 8 0
2  5
0101000
+9 0 *
Wi

0101100
+47 16 +40 0 +36 16 -29 0 +18 0 -25 0 *
Fa
0  1e-07 9 16

0101000
+7 0 *
Wi

0101000
-19 0 -27 0 +13 0 +10 0 *
Fa
0  1e-07 10 0
2  9
0101000
+5 0 *
Sh

0101100
+50 0 -43 0 +38 0 +33 0 +22 0 -16 0 +11 0 -8 0 +6 0 -4 0 
*
So

0100000
+3 0 *
Co

1100000
+2 0 *

+1 0 
0

