DBRep_DrawableShape

CASCADE Topology V1, (c) Matra-Datavision
Locations 4
1
              1               0               0               0 
              0 1.11022302462516e-16              -1               0 
              0               1 1.11022302462516e-16               0 
1
              1               0               0               0 
              0               1               0               0 
              0               0               1              10 
2  1 1 2 1 0
2  2 -1 1 -1 0
Curve2ds 14
1 0 20 1 0 
2 0 0 1 0 -0 1 10
1 6.2831853071795862 -0 0 1 
1 0 -0 0 1 
1 0 0 1 0 
2 0 0 1 0 -0 1 10
7 0 0  8 58 9  4.0688878715914063 10  4.0688878715914063 9.7887256083240963  4.0699830214413613 9.5795902591215842  4.0720690616246982 9.3753566913450932  4.0750368952398013 9.1780471055799691  4.0787725880000094 8.9889431640442936  4.0831573682336222 8.8085859905888757  4.0880676268838982 8.636776170697253  4.1017219883113736 8.2143234848477675  4.1116829953951051 7.9577505128778743  4.1231817391828383 7.7052991931217223  4.1361169371715318 7.4581114469789078  4.1503896655344317 7.2170201811650916  4.165906441783199 6.9827750941565929  4.1825742074339569 6.7559886162217149  4.2194770570354292 6.3007744081798203  4.2396223472991075 6.0770366500912356  4.2607666492443048 5.8639322429144976  4.2829626859088172 5.6604111584679409  4.3062975712118359 5.4659358053987486  4.3308872263101739 5.2802930215882844  4.3569017732716002 5.1036261220245818  4.4122622196163093 4.7704290696285563  4.441213838954317 4.6160236723538688  4.4721787673223039 4.4709747448671138  4.5056918669234474 4.3363254528145418  4.5421878018033679 4.2161135855788716  4.581911285173577 4.1162163144196793  4.6251128592146493 4.0455696172075237  4.7180836419722745 3.9821783985984207  4.7652121046126066 3.9914867749621168  4.8099156247594035 4.0451575250263527  4.8516093378795837 4.1310024071032139  4.8899373655655527 4.2408357154591769  4.9250254051861004 4.3661723146543734  4.9572406127451867 4.5024956622952832  5.0279392310303148 4.847579423344536  5.0647248226867774 5.0657665424768723  5.0988037304162557 5.3000923651051091  5.1304927455989766 5.5497776942064609  5.1601772535289374 5.8142966575948289  5.1879998228705331 6.0950196631890616  5.2141284147201077 6.393891653756981  5.2503440476092829 6.8731110153631159  5.2615840221783046 7.032633180451942  5.2722991998992752 7.1962874957129346  5.2824599566452308 7.3640368271645942  5.2920333749065609 7.5358693022582353  5.300983243791018 7.7117983098779899  5.3092700590237039 7.8918625003408076  5.3249680456312891 8.2734185412752961  5.3324824179474533 8.4810416663892951  5.3393779590372521 8.7009539375103948  5.3454654232488084 8.9349762456361734  5.3504538886844948 9.184010209096364  5.3540221457487549 9.4472567866593788  5.3558900856959113 9.7214348906388182  5.3558900891779748 10 
 0 9 0.081626916987402792 7 0.21000610395704239 7 0.34884378020132562 7 0.48682692647655512 7 0.62522759932299055 7 0.81326783723078555 7 0.90344563038832593 7 1 9
7 0 0  8 58 9  3.1415926535897931 7.9999999999999991  3.1768050522024445 7.9999999999999991  3.2116613505198952 8.0065919499192422  3.2457698539981972 8.0191067574787631  3.2788475912167017 8.0368382421309033  3.3107203138780554 8.0590431350593192  3.3413224968082087 8.0849410791789857  3.3706973379564089 8.1137146291361919  3.4435048290381864 8.1929416643339472  3.4883197984864838 8.2500901538190679  3.5331691766977329 8.3150684950755114  3.5779895601763774 8.3867510493214255  3.6227629753135546 8.463972339646066  3.6674812643402572 8.545569536560027  3.7121556210310915 8.6303723863473234  3.8050571809374421 8.8111949847273436  3.8525994060849196 8.9062451121268076  3.899928356920106 9.0018183238699514  3.947404677075252 9.0973985312240622  3.9953705129697275 9.1924355781058722  4.044174267299927 9.2863305549482931  4.094214447434771 9.3784080831000551  4.1977282264171318 9.556605978324507  4.2504815265169844 9.6415612894528344  4.3057106412671047 9.7232149242515469  4.3643355731512621 9.8006366204947355  4.4270769086287762 9.8710554959494186  4.4943699758271531 9.9304412011806811  4.5667798278462968 9.9726926705753982  4.7219618669339685 10.010670849291806  4.8003234588715236 10.005170838963572  4.8747938842355776 9.972810646182392  4.9449411057452153 9.9212295826268715  5.0102670222211714 9.8563434494242053  5.0710401038780697 9.7836165860606616  5.1278182921663893 9.7060684933812471  5.2549775880005765 9.5142072146696162  5.3232892321843757 9.3961419102225072  5.388884508692998 9.2735892454157316  5.4525181977601385 9.148272723614733  5.5150812675925565 9.0218061867395747  5.5772675290492399 8.8953841181266533  5.6398796462675787 8.770075592795008  5.7352912259801885 8.5881769959413781  5.7663377048503639 8.5303592581920462  5.7975278253667959 8.4740316146977079  5.8288891742889239 8.4195594132269953  5.8604543558817239 8.3673236444331529  5.8922609919156912 8.3177209418540485  5.9243517216668504 8.2711635819121661  5.9914893133889029 8.1819488593253062  6.0275579677299964 8.1386468003260255  6.0653204472344537 8.0983547568046728  6.1050876427027605 8.0623664763265328  6.1470302071779388 8.0326191406546226  6.1910677096820566 8.0112245022700517  6.2367577889527235 8.0000000208923829  6.2831853071795862 8 
 0 9 0.081626916987402792 7 0.21000610395704239 7 0.34884378020132562 7 0.48682692647655512 7 0.62522759932299055 7 0.81326783723078555 7 0.90344563038832593 7 1 9
7 0 0  8 58 9  5.3558900891779748 10  5.355890091621375 10.195472130770979  5.3549518414020971 10.389827500847565  5.3531519192627544 10.580397365428817  5.350573849668991 10.765209481556163  5.3473081008094692 10.942988108113397  5.3434520845958753 11.113154005826681  5.339110156662918 11.275824437264541  5.3265713104872523 11.690517954778313  5.3171170524368989 11.948199158533328  5.3060983972484932 12.202168454134505  5.2936147595643499 12.451183687241596  5.2797651352728998 12.694348523883036  5.2646442370242745 12.930860223402966  5.248348181897696 13.160067809003351  5.2120565597336563 13.622105928212799  5.1921651881522344 13.849604393747914  5.1712807105015557 14.066119975754026  5.1493587237285894 14.272797404045274  5.1263207855783248 14.470261698968066  5.1020592334403325 14.658817245156953  5.0764131292819927 14.838413577989302  5.02161289176426 15.179575682956639  4.9928255413570657 15.338672412183755  4.9620754495231996 15.488412443516186  4.9288281594964118 15.627919181164717  4.8926486458571645 15.753621948936946  4.8532297972388188 15.859762035763787  4.8102951161135818 15.938033112589647  4.7182016198101815 16.017103201238385  4.6713441282476094 16.017488422778396  4.6264478063650918 15.97307836451775  4.5843452378463008 15.894746182427916  4.5455043413022409 15.790971623443028  4.5099204896721297 15.670421743875391  4.4773297629060016 15.538495886290864  4.4058408430701483 15.203469176180302  4.368571463054181 14.989636258884502  4.3340784028310528 14.759488189537059  4.302042213072002 14.514030548565273  4.272049205596347 14.254016926436229  4.2439443521586551 13.978282160569982  4.2175365363888178 13.68502808149826  4.1792780264625646 13.195394898414936  4.1664192797774229 13.017616465532084  4.1542145701593576 12.83458678526342  4.1427050917705044 12.646365420596258  4.1319363336512298 12.452983528964786  4.1219590499529453 12.254430854548414  4.1128302301709194 12.050642720570071  4.0971229365427959 11.650788085267108  4.0901980966084475 11.450334453287457  4.0838683870377483 11.238413886250212  4.0783096004692405 11.013556406860429  4.0737810008499515 10.775180067902483  4.0705618395690326 10.524236720208958  4.0688878715914063 10.263857780629563  4.0688878715914063 10 
 0 9 0.076724869142555233 7 0.20397182509620665 7 0.34247358443107523 7 0.48161317630952072 7 0.61810074129627279 7 0.80535882860427443 7 0.90717160419419107 7 1 9
7 0 0  8 58 9  0 8  0.032578688461829763 7.9999999853395902  0.064970914131800228 8.0056448875101704  0.096787801524807371 8.0164438869030281  0.1277451754401806 8.0318568628453146  0.15766356096165701 8.0512943936000489  0.18646818345739469 8.0741177563661122  0.21418896857997183 8.0996389272782476  0.28536076472039884 8.1726984608031827  0.33013894808721922 8.2272168448360361  0.37498366776859893 8.2898628614800636  0.41981684307519895 8.3595366812114591  0.46461147109613066 8.4350811001147079  0.50935153094060315 8.5153304109149275  0.55404207377507664 8.5990989088986822  0.64726089247512597 8.7789779620938067  0.69499973497503031 8.8740195822736752  0.7424283465763537 8.9697330099831287  0.789913643632568 9.0655822866610904  0.83779794086671799 9.1610155096336658  0.8864276490970866 9.2554469301460927  0.93619372376786458 9.3482317997793949  1.0394629279590397 9.5292709055872571  1.0922613628812918 9.6162390701654861  1.1474121884201924 9.7000688388858336  1.2058447663569147 9.7799080260003795  1.2682816484576103 9.8532517899787848  1.3352618538363323 9.916156891920016  1.4073690506346761 9.9628918929485391  1.5612208131090677 10.010222133431771  1.6391344539227859 10.010568053605212  1.7138176323914172 9.983801325466537  1.784469423605227 9.9365873789253563  1.85044154592401 9.8750550402436037  1.9118187481552766 9.8048049653199172  1.9689835158623641 9.7294001379916075  2.0968072759326759 9.5420273239796494  2.1655308211176987 9.425493192982028  2.2313759897301857 9.3041232955689246  2.2950847638566145 9.1797258568942492  2.3575780350979763 9.0539933172621723  2.4195312662846824 8.9280986189289386  2.4817523062854363 8.8030661453137746  2.5803565009949789 8.6130880612130269  2.61522330537343 8.5474351798037915  2.6502635957099443 8.4835350747208107  2.685515399756758 8.4219029665101548  2.7210219675830487 8.3630771533263832  2.7568347333404493 8.3076209184877179  2.7930162770285776 8.2561244380311933  2.8630381769358184 8.1664291545043302  2.8977324940510751 8.1263766487861275  2.9340215044077453 8.0892979037323141  2.97215873563791 8.0563857552469802  3.0122629958932752 8.029361009304079  3.054225393534109 8.0100563087323078  3.0976163568181985 7.9999999999999991  3.1415926535897913 7.9999999999999991 
 0 9 0.076724869142555233 7 0.20397182509620665 7 0.34247358443107523 7 0.48161317630952072 7 0.61810074129627279 7 0.80535882860427443 7 0.90717160419419107 7 1 9
1 6.2831853071795862 -0 0 1 
1 0 -0 0 1 
1 0 15 1 0 
2 0 0 1 0 -0 1 6
Curves 7
2 0 0 20 0 0 1 1 0 -0 -0 1 0 10
1 10 -2.4492935982947065e-15 0 0 0 1 
2 0 0 0 0 0 1 1 0 -0 -0 1 0 10
7 0 0  8 58 9  -6 -7.9999999999999991 10  -6 -7.9999999999999991 9.7887256083240963  -5.9912551806797971 -8.0065919499192422 9.5795902591215842  -5.9745657190720021 -8.0191067574787631 9.3753566913450932  -5.9507656419223833 -8.0368382421309015 9.1780471055799691  -5.9207228256898796 -8.0590431350593157 8.9889431640442936  -5.8853389965465812 -8.0849410791789804 8.8085859905888757  -5.8455497303777451 -8.1137146291361883 8.636776170697253  -5.7343416574109707 -8.1929416643339454 8.2143234848477675  -5.6527521270275871 -8.2500901538191052 7.9577505128778743  -5.5578710153176178 -8.3150684950754474 7.7052991931217223  -5.4501683789391704 -8.3867510493214308 7.4581114469789078  -5.3300878870588946 -8.4639723396461335 7.2170201811650916  -5.1980501782395923 -8.5455695365599862 6.9827750941565929  -5.054513344204663 -8.6303723863473234 6.7559886162217149  -4.732822158770583 -8.8111949847273436 6.3007744081798203  -4.5551523182408031 -8.906245112126804 6.0770366500912356  -4.3664421444542789 -9.0018183238699603 5.8639322429144976  -4.1659645525262103 -9.0973985312240586 5.6604111584679409  -3.9526641574079036 -9.1924355781058633 5.4659358053987486  -3.7252101695249076 -9.2863305549483037 5.2802930215882844  -3.4817459804368807 -9.3784080831000569 5.1036261220245818  -2.9576053389234387 -9.556605978324507 4.7704290696285563  -2.6806963645381012 -9.641561289452822 4.6160236723538688  -2.3817463077420817 -9.7232149242516073 4.4709747448671138  -2.0552340883630231 -9.8006366204946218 4.3363254528145418  -1.6965190395407763 -9.8710554959495198 4.2161135855788716  -1.3029100432909608 -9.9304412011806455 4.1162163144196793  -0.8722600935953988 -9.9726926705754 4.0455696172075237  0.056671713696147208 -10.010670849291808 3.9821783985984207  0.52857654373065621 -10.005170838963714 3.9914867749621168  0.97575965002033271 -9.9728106461819106 4.0451575250263527  1.3904052008552705 -9.9212295826276033 4.1310024071032139  1.7688371962567704 -9.8563434494236386 4.2408357154591769  2.11244919601058 -9.7836165860608553 4.3661723146543734  2.4252996525726545 -9.7060684933812471 4.5024956622952832  3.1057544361356513 -9.5142072146696162 4.847579423344536  3.4546624597413995 -9.3961419102224735 5.0657665424768723  3.7731224644075176 -9.2735892454158737 5.3000923651051091  4.0646649907363432 -9.1482727236145234 5.5497776942064609  4.3335431548240066 -9.0218061867397292 5.8142966575948289  4.5816187235037287 -8.8953841181266071 6.0950196631890616  4.8109965070181921 -8.770075592795008 6.393891653756981  5.1241579781780766 -8.5881769959413781 6.8731110153631159  5.220558713242843 -8.5303592581920462 7.032633180451942  5.311728326151397 -8.4740316146977115 7.1962874957129346  5.3975183391838826 -8.4195594132269971 7.3640368271645942  5.4777597714902821 -8.3673236444331547 7.5358693022582353  5.5522631390903996 -8.3177209418540485 7.7117983098779899  5.62081845487387 -8.2711635819121661 7.8918625003408076  5.7499827364185121 -8.1819488593253009 8.2734185412752961  5.8114011917279473 -8.1386468003260202 8.4810416663892951  5.8673648307681301 -8.098354756804671 8.7009539375103948  5.9164654517196746 -8.0623664763265293 8.9349762456361734  5.9565119078079842 -8.032619140654619 9.184010209096364  5.9850696004070878 -8.0112245022700481 9.4472567866593788  5.9999999721434873 -8.0000000208923812 9.7214348906388182  6 -7.9999999999999991 10 
 0 9 0.081626916987402792 7 0.21000610395704239 7 0.34884378020132562 7 0.48682692647655512 7 0.62522759932299055 7 0.81326783723078555 7 0.90344563038832593 7 1 9
7 0 0  8 58 9  6 -7.9999999999999991 10  6.0000000195472127 -7.9999999853395893 10.195472130770979  5.9925060082439661 -8.0056448875101687 10.389827500847565  5.9781062031075027 -8.0164438869030281 10.580397365428817  5.9574395076505802 -8.0318568628453146 10.765209481556163  5.9311954918814518 -8.0512943936000489 10.942988108113397  5.9001143923038786 -8.0741177563661104 11.113154005826681  5.864987111917122 -8.0996389272782423 11.275824437264541  5.7630823970957561 -8.1726984608031827 11.690517954778313  5.6858390451506224 -8.2272168448360361 11.948199158533328  5.5951826341945416 -8.2898628614800671 12.202168454134505  5.4915724569011921 -8.359536681211452 12.451183687241596  5.375450416142745 -8.4350811001146973 12.694348523883036  5.2472401899377674 -8.5153304109149328 12.930860223402966  5.1074156922676792 -8.5990989088986822 13.160067809003351  4.7922146292121042 -8.7789779620938049 13.622105928212799  4.617427252216797 -8.874019582273684 13.849604393747914  4.4317098841139657 -8.9697330099831163 14.066119975754026  4.2344086184230187 -9.0655822866610904 14.272797404045274  4.0245496208154616 -9.1610155096336765 14.470261698968066  3.8008825307026042 -9.255446930146082 14.658817245156953  3.5616420810664979 -9.3482317997793949 14.838413577989302  3.0444076609354624 -9.5292709055872553 15.179575682956639  2.7698493764537346 -9.6162390701655021 15.338672412183755  2.4737354532341485 -9.7000688388857714 15.488412443516186  2.1505609702549506 -9.7799080260004629 15.627919181164717  1.7956684404030563 -9.8532517899787244 15.753621948936946  1.4057306531100142 -9.9161568919200356 15.859762035763787  0.97822046746341496 -9.9628918929485355 15.938033112589647  0.058502546318976556 -10.010222133431768 16.017103201238385  -0.41067543248289518 -10.010568053605247 16.017488422778396  -0.8601589669699532 -9.9838013254664233 15.97307836451775  -1.2795026579379698 -9.9365873789254966 15.894746182427916  -1.66370945953906 -9.8750550402435131 15.790971623443028  -2.0129163794570495 -9.8048049653199403 15.670421743875391  -2.3301520303104306 -9.7294001379916075 15.538495886290864  -3.0200491200991504 -9.5420273239796494 15.203469176180302  -3.3745926986787071 -9.4254931929818948 14.989636258884502  -3.6979474434261888 -9.3041232955693509 14.759488189537059  -3.9936715161289777 -9.1797258568936382 14.514030548565273  -4.2663019304349614 -9.0539933172626128 14.254016926436229  -4.5178140526648942 -8.9280986189287965 13.978282160569982  -4.7505209296209658 -8.8030661453137746 13.68502808149826  -5.0826047830964605 -8.6130880612130269 13.195394898414936  -5.1931886379418817 -8.5474351798037898 13.017616465532084  -5.2971968089094723 -8.4835350747208107 12.83458678526342  -5.3944234968195603 -8.4219029665101548 12.646365420596258  -5.4846422660628704 -8.3630771533263832 12.452983528964786  -5.5675939197238096 -8.3076209184877179 12.254430854548414  -5.6429743747037424 -8.2561244380311933 12.050642720570071  -5.7719187946103192 -8.1664291545043302 11.650788085267108  -5.828413494870099 -8.126376648786124 11.450334453287457  -5.8797171689985204 -8.0892979037323105 11.238413886250212  -5.9245168967105188 -8.0563857552469784 11.013556406860429  -5.9608567144611628 -8.029361009304079 10.775180067902483  -5.9866180238457662 -8.0100563087323078 10.524236720208958  -6 -7.9999999999999991 10.263857780629563  -6 -7.9999999999999991 10 
 0 9 0.076724869142555233 7 0.20397182509620665 7 0.34247358443107523 7 0.48161317630952072 7 0.61810074129627279 7 0.80535882860427443 7 0.90717160419419107 7 1 9
1 6 -1.4695761589768238e-15 0 0 0 1 
2 0 0 15 0 0 1 1 0 -0 -0 1 0 6
Polygon3D 0
PolygonOnTriangulations 0
Surfaces 5
1 0 0 20 0 0 1 1 0 -0 -0 1 0 
2 0 0 0 0 0 1 1 0 -0 -0 1 0 10
1 0 0 0 0 0 1 1 0 -0 -0 1 0 
2 0 0 0 0 0 1 1 0 -0 -0 1 0 6
1 0 0 15 0 0 1 1 0 -0 -0 1 0 
Triangulations 0

TShapes 25
Ve
1e-07
10 -2.44929359829471e-15 20
0 0

0101101
*
Ed
 1e-07 1 1 0
1  1 0 0 6.28318530717959
2  1 2 0 0 6.28318530717959
2  2 1 0 0 6.28318530717959
0

0101100
+25 0 -25 0 *
Wi

0101000
+24 0 *
Fa
0  1e-07 1 0

0111000
+23 0 *
Ve
1e-07
10 -2.44929359829471e-15 0
0 0

0101101
*
Ed
 1e-07 1 1 0
1  2 0 0 20
3  3 4CN 2 0 0 20
0

0101000
-25 0 +21 0 *
Ed
 1e-07 1 1 0
1  3 0 0 6.28318530717959
2  5 2 0 0 6.28318530717959
2  6 3 0 0 6.28318530717959
0

0101100
+21 0 -21 0 *
Wi

0101000
+20 0 +19 0 -20 0 -24 0 *
Ve
0.000713755592598456
-6 -8 10
0 0

0101101
*
Ve
2.00001e-07
6 -8 10
0 0

0101101
*
Ed
 0.000359696754357995 1 1 0
1  4 0 0 1
2  7 2 0 0 1
2  8 4 3 0 1
0

0101000
+17 0 -16 0 *
Ed
 0.000359696754357995 1 1 0
1  5 0 0 1
2  9 2 0 0 1
2  10 4 3 0 1
0

0101000
+16 0 -17 0 *
Wi

0101000
-15 0 -14 0 *
Fa
0  1e-07 2 0

0111000
+18 0 +13 0 *
Wi

0101000
-19 0 *
Fa
0  1e-07 3 0

0111000
-11 0 *
Ve
1e-07
6 -1.46957615897682e-15 15
0 0

0101101
*
Ed
 1e-07 1 1 0
1  6 0 8 15
3  11 12CN 4 0 8 15
0

0101000
+16 4 -9 0 *
Ed
 1e-07 1 1 0
1  7 0 0 6.28318530717959
2  13 4 0 0 6.28318530717959
2  14 5 0 0 6.28318530717959
0

0101100
+9 0 -9 0 *
Wi

0101000
+8 3 +15 0 +14 0 -8 3 -7 3 *
Fa
0  1e-07 4 3

0111000
+6 0 *
Wi

0101000
+7 0 *
Fa
0  1e-07 5 0

0111000
+4 0 *
Sh

0101000
+22 0 +12 0 -10 0 +5 0 +3 3 *
So

0100000
+2 0 *

+1 0 
0

