DBRep_DrawableShape

CASCADE Topology V1, (c) Matra-Datavision
Locations 17
1
              1               0               0               5 
              0               1               0              -5 
              0               0               1               5 
1
              1               0               0               0 
              0 0.996194698091746 -0.0871557427476582 0.416752204197018 
              0 0.0871557427476582 0.996194698091746 0.454805223279563 
1
0.996194698091746               0 -0.0871557427476582 0.454805223279563 
              0               1               0               0 
0.0871557427476582               0 0.996194698091746 -0.416752204197018 
1
0.996194698091746               0 0.0871557427476582 -0.416752204197018 
              0               1               0               0 
-0.0871557427476582               0 0.996194698091746 0.454805223279563 
1
              1               0               0               0 
              0 0.996194698091746 0.0871557427476582 -0.454805223279563 
              0 -0.0871557427476582 0.996194698091746 -0.416752204197018 
1
              1               0               0               0 
              0 0.999961923064171 -0.00872653549837393 0.0434422928127258 
              0 0.00872653549837393 0.999961923064171 0.0438230621710129 
1
0.999961923064171               0 -0.00872653549837393 0.0438230621710129 
              0               1               0               0 
0.00872653549837393               0 0.999961923064171 -0.0434422928127258 
1
0.999847695156391               0 -0.0174524064372835 0.0880235564044618 
              0               1               0               0 
0.0174524064372835               0 0.999847695156391 -0.0865005079683741 
1
              1               0               0               0 
              0 0.999847695156391 -0.0174524064372835 0.0865005079683741 
              0 0.0174524064372835 0.999847695156391 0.0880235564044618 
1
              1               0               0               0 
              0 0.999847695156391 -0.0174524064372835 0.0865005079683741 
              0 0.0174524064372835 0.999847695156391 0.0880235564044618 
1
0.999390827019096               0 -0.034899496702501 0.177543348417027 
              0               1               0               0 
0.034899496702501               0 0.999390827019096 -0.171451618607984 
1
0.999390827019096               0 -0.034899496702501 0.177543348417027 
              0               1               0               0 
0.034899496702501               0 0.999390827019096 -0.171451618607984 
1
              1               0               0               0 
              0 0.999847695156391 -0.0174524064372835 0.0865005079683741 
              0 0.0174524064372835 0.999847695156391 0.0880235564044618 
1
              1               0               0               0 
              0 0.996194698091746 0.0871557427476582 -0.454805223279563 
              0 -0.0871557427476582 0.996194698091746 -0.416752204197018 
1
              1               0               0               0 
              0 0.996194698091746 0.0871557427476582 -0.454805223279563 
              0 -0.0871557427476582 0.996194698091746 -0.416752204197018 
2  1 1 2 1 3 1 4 1 5 1 6 1 7 1 8 1 9 1 10 1 11 1 12 1 13 1 14 1 15 1 0
2  15 -1 14 -1 13 -1 12 -1 11 -1 10 -1 9 -1 8 -1 7 -1 6 -1 5 -1 4 -1 3 -1 2 -1 1 -1 0
Curve2ds 50
1 1.6784673634930525 -4.7024911537642655 0.99355769108228897 -0.11332746574079429 
1 -2.672488112155615 4.7988249535320024 0.99540263392317563 0.095778893180098287 
1 0.011339956829568704 -5.488164539014492 -0.002327525440807133 0.99999729130899273 
1 5.5549082677404797 -2.2065538290153204 0.70710486585276799 -0.70710869651513908 
1 5.1653636565594017 2.1968321416459107 0.11301480506049334 0.9935933040420204 
1 5.0321550628812286 2.750001928024584 -0.0032855083164768147 -0.9999946027029859 
1 10 0 0 -1 
1 10 0 0 1 
1 0 0 1 0 
1 0 10 1 0 
1 0 -10 1 0 
1 0 10 1 0 
1 0 0 0 -1 
1 10 0 0 1 
1 0 -10 1 0 
1 0 0 1 0 
1 0 -0.7981444747394395 1 0 
1 4.5336136754372127 5.4926308729024385 0.09540757174958453 -0.99543829304123521 
1 0 0 0 1 
1 0 10 1 0 
1 0 0.79814447473943773 1 0 
1 9.9967083908707703 6.6516588073181051 -0.9999945826399963 -0.0032916091292299657 
1 5.1515871077380222 -5.6799391990206454 0.074806148394159305 0.99719809474468568 
1 1.2216334322030336 -6.961486807483336 0.78406930416908915 -0.62067328463516158 
1 0 0 0 -1 
1 0 0 0 1 
1 4.173485149572862 2.3379377399305539 0.096390240816636233 0.99534361979936903 
1 -2.6577135032558923 5.070134239748886 0.99989947606267371 -0.014178778846951606 
1 10 0 0 1 
1 0 10 1 0 
1 4.4880606545344985 -2.4718611449615437 -0.014152504260880142 0.999899848296391 
1 5.2785635137261444 -1.9468783206327549 0.11383947755434669 -0.99349915618995555 
1 10 0 0 -1 
1 0 0 0 1 
1 4.4880606545344985 -2.4718611449615437 -0.014152504260880142 0.999899848296391 
1 5.2785635137261444 -1.9468783206327549 0.11383947755434669 -0.99349915618995555 
1 10 0 0 1 
1 0 0 1 0 
1 0 0 0 1 
1 0 0 1 0 
1 0 0 1 0 
1 0 0 1 0 
1 2.751728212264489 5.1433361307940153 -0.99549611543155792 0.094802342590667638 
1 -1.6748502975858637 -5.2220827031554222 -0.99365099932607093 -0.11250640665446837 
1 0 0 0 1 
1 0 10 1 0 
1 0 -10 1 0 
1 0 0 1 0 
1 0 0 0 -1 
1 0 0 0 1 
Curves 25
1 10 4.7024911537642655 1.6784673634930525 0 0.11332746574079429 0.99355769108228897 
8 4.6900327681246354 6.2863260414687474
1 10 2.2065538290153204 5.5549082677404797 -0 0.70710869651513908 0.70710486585276799 
1 10 -2.1968321416459107 5.1653636565594017 0 -0.9935933040420204 0.11301480506049334 
1 10 0 10 0 1 0 
1 10 0 0 0 0 1 
1 10 10 0 0 0 1 
1 10 0 0 -0 1 0 
1 0 10 0 0 0 1 
1 10.000423783947737 5.5229181812358892 8.8712532590903361 -0.9999945826399963 -0.0032916091292299657 0 
1 0 10 0 1 0 -0 
1 9.9967083908707703 6.6516588073181051 10 -0.9999945826399963 -0.0032916091292299657 0 
8 4.8955114836346594 6.4962856506647144
1 4.860227054851892 2.0540297166387802 5.4193031051903837 -0.077126740790517193 0.7048754824604252 0.70512553498027231 
1 0 0 0 -0 1 0 
1 2.3379377399305539 8.8817841970012523e-16 4.173485149572862 0.99534361979936903 0 0.096390240816636233 
1 0 10 10 1 0 -0 
8 8.1058163252506255 9.1058753127387728
1 4.4880606545344985 -2.4718611449615437 10 -0.014152504260880142 0.999899848296391 0 
1 0 0 10 -0 1 0 
1 4.4880606545344985 -2.4718611449615437 10 -0.014152504260880142 0.999899848296391 0 
1 0 0 10 1 0 -0 
1 0 0 0 1 0 -0 
1 0 0 0 0 0 1 
1 5.1433361307940153 4.4408920985006262e-16 2.751728212264489 0.094802342590667638 0 -0.99549611543155792 
1 0 10 0 1 0 -0 
1 0 10 0 0 0 1 
1 0 0 0 -0 1 0 
Polygon3D 0
PolygonOnTriangulations 18
2 3 5 
p 0.0496967333575947 1 0 10 
2 2 3 
p 0.0496967333575947 1 0 10 
2 1 3 
p 0.0496967333575947 1 0 10 
2 4 3 
p 0.0496967333575947 1 0 10 
2 4 3 
p 0.0496967333575947 1 0 10 
2 4 2 
p 0.0496967333575947 1 0 10 
2 6 4 
p 0.0496967333575947 1 0 10 
2 2 3 
p 0.0496967333575947 1 0 10 
2 3 1 
p 0.0496967333575947 1 0 10 
2 1 4 
p 0.0496967333575947 1 0 10 
2 3 5 
p 0.0496967333575947 1 0 10 
2 1 2 
p 0.0496967333575947 1 0 10 
2 2 3 
p 0.0496967333575947 1 0 10 
2 1 2 
p 0.0496967333575947 1 0 10 
2 1 4 
p 0.0496967333575947 1 0 10 
2 4 3 
p 0.0496967333575947 1 0 10 
2 1 2 
p 0.0496967333575947 1 0 10 
2 1 4 
p 0.0496967333575947 1 0 10 
Surfaces 10
1 10 0 0 1 0 -0 0 0 1 0 -1 0 
1 0 10 0 -0 1 0 0 0 1 1 0 -0 
1 9.9985660874092535 6.0872884942769971 9.435626629545169 -0.0023275191362940833 0.70710295053455263 -0.70710678118654768 -0.9999945826399963 -0.0032916091292299857 1.9949319973733282e-17 -0.002327519136294056 0.70710295053455297 0.70710678118654735 
1 0 0 0 0 0 1 1 0 -0 -0 1 0 
1 0 0 10 0 0 1 1 0 -0 -0 1 0 
1 0 0 0 -0 1 0 0 0 1 1 0 -0 
1 0 10 0 -0 1 0 0 0 1 1 0 -0 
1 0 0 0 0 0 1 1 0 -0 -0 1 0 
1 0 0 0 1 0 -0 0 0 1 0 -1 0 
1 0 0 0 1 0 -0 0 0 1 0 -1 0 
Triangulations 6
6 4 1 0.0496967333575947
10 0 0 10 0 4.91548822439944 10 10 0 10 5.00675627689269 4.34600211542854 10 10 10 10 5.6516642246781 10 0 0 4.91548822439944 0 0 -10 4.34600211542854 -5.00675627689269 10 -10 10 -5.6516642246781 3 4 1 4 3 5 1 4 2 6 4 5 
4 2 1 0.0496967333575947
0 10 0 10 10 0 10 10 10 0 10 10 0 0 0 10 10 10 10 0 2 1 4 4 3 2 
4 2 1 0.0496967333575947
0 0 0 0 10 0 10 10 0 10 0 0 0 0 0 10 10 10 10 0 2 1 4 4 3 2 
6 4 1 0.0496967333575947
10 5.6516642246781 10 10 10 10 4.37334305445347 5.63314336897495 10 0 10 10 4.4530741251876 0 10 0 0 10 10 5.6516642246781 10 10 4.37334305445347 5.63314336897495 0 10 4.4530741251876 0 0 0 6 3 4 3 6 5 4 3 2 1 2 3 
4 2 1 0.0496967333575947
0 0 0 0 0 10 0 10 10 0 10 0 0 0 10 0 10 -10 0 -10 1 4 3 3 2 1 
6 4 1 0.0496967333575947
10 0 0 10 0 4.91548822439944 0 0 0 4.98354186519421 0 4.42968854874776 0 0 10 4.4530741251876 0 10 0 10 4.91548822439944 10 0 0 4.42968854874776 4.98354186519421 10 0 10 4.4530741251876 3 4 1 4 3 5 1 4 2 6 4 5 

TShapes 65
Ve
0.0001
10 5.52291678629722 8.87125325909034
0 0

0101101
*
Ve
1e-07
10 5.00675627689269 4.34600211542855
0 0

0101101
*
Ed
 1e-07 1 1 0
1  1 0 2.68483126433225 7.23942450464264
2  1 1 0 2.68483126433225 7.23942450464264
2  2 2 16 2.68483126433225 7.23942450464264
0

0101000
-65 0 +64 0 *
Ve
0.0001
10 6.65166964206746 10
0 0

0101101
*
Ed
 0.0001 1 1 0
1  2 0 4.69003276812464 6.28632604146875
2  3 3 0 4.69003276812464 6.28632604146875
2  4 1 0 4.69003276812464 6.28632604146875
0

0101000
+65 0 -62 0 *
Ve
1e-07
10 0 4.91548822439944
0 0

0101101
*
Ed
 1e-07 1 1 0
1  3 0 -7.25003720257957 -2.21099732929863
2  5 1 0 -7.25003720257957 -2.21099732929863
2  6 4 16 -7.25003720257957 -2.21099732929863
0

0101000
+64 0 -60 0 *
Ve
1e-07
10 10 10
0 0

0101101
*
Ed
 1e-07 1 1 0
1  4 0 6.65166964206746 10
2  7 1 0 6.65166964206746 10
2  8 5 0 6.65166964206746 10
0

0101000
+62 0 -58 0 *
Ve
1e-07
10 0 0
0 0

0101101
*
Ed
 1e-07 1 1 0
1  5 0 0 4.91548822439944
2  9 1 0 0 4.91548822439944
2  10 6 0 0 4.91548822439944
0

0101000
+56 0 -60 0 *
Ve
1e-07
10 10 0
0 0

0101101
*
Ed
 1e-07 1 1 0
1  6 0 0 10
2  11 1 0 0 10
2  12 7 0 0 10
6  1 1 0
6  2 2 0
0

0101000
-58 0 +54 0 *
Ed
 1e-07 1 1 0
1  7 0 0 10
2  13 1 0 0 10
2  14 8 0 0 10
6  3 1 0
6  4 3 0
0

0101000
-54 0 +56 0 *
Wi

0101100
-63 0 -61 0 +59 0 -57 0 -55 0 +53 0 +52 0 *
Fa
0  1e-07 1 0

0101000
+51 0 *
Ve
0.0001
4.4826522096166 5.50475573555631 8.87125325909034
0 0

0101101
*
Ve
1e-07
0 10 0
0 0

0101101
*
Ed
 1e-07 1 1 0
1  8 0 0 5.06005371472824
2  15 9 0 0 5.06005371472824
2  16 2 0 0 5.06005371472824
0

0101000
-49 17 +48 0 *
Ed
 1e-07 1 1 0
1  9 0 0.000423786243538765 5.51780146624811
2  17 3 0 0.000423786243538765 5.51780146624811
2  18 2 16 0.000423786243538765 5.51780146624811
0

0101000
+65 0 -49 0 *
Ed
 1e-07 1 1 0
1  10 0 0 5.05597512040507
2  19 2 0 0 5.05597512040507
2  20 4 0 0 5.05597512040507
0

0101000
+48 0 -64 17 *
Wi

0101100
+47 16 -46 0 -45 16 -63 0 *
Fa
0  1e-07 2 16

0101000
+44 0 *
Ve
0.0001
4.35918971537192 6.6331021988518 10
0 0

0101101
*
Ed
 1e-07 1 1 0
1  11 0 -0.0032916269611579 5.63754921613249
2  21 3 0 -0.0032916269611579 5.63754921613249
2  22 5 0 -0.0032916269611579 5.63754921613249
0

0101000
+62 0 -42 0 *
Ed
 0.0001 1 1 0
1  12 0 4.89551148363466 6.49628565066471
2  23 3 0 4.89551148363466 6.49628565066471
2  24 9 16 4.89551148363466 6.49628565066471
0

0101000
+49 0 -42 0 *
Wi

0101100
-61 0 +46 0 -41 0 +40 0 *
Fa
0  0 3 0

0101000
+39 0 *
Ve
1e-07
4.98354186519421 0 4.42968854874777
0 0

0101101
*
Ed
 1e-07 1 1 0
1  13 0 5.03244731931003 10
2  25 9 0 5.03244731931003 10
2  26 4 0 5.03244731931003 10
0

0101000
+37 17 -48 0 *
Ed
 1e-07 1 1 0
1  14 0 2.65798069394058 7.69790664013488
2  27 6 0 2.65798069394058 7.69790664013488
2  28 4 16 2.65798069394058 7.69790664013488
0

0101000
+37 0 -60 0 *
Wi

0101000
-36 16 +35 0 -45 16 -59 0 *
Fa
0  1e-07 4 16

0101000
+34 0 *
Ve
1e-07
0 10 10
0 0

0101101
*
Ed
 1e-07 1 1 0
1  15 0 0 10
2  29 7 0 0 10
2  30 5 0 0 10
6  5 2 0
6  6 4 0
0

0101000
-58 0 +32 0 *
Ve
0.0001
4.37334305445348 5.63314336897496 10
0 0

0101101
*
Ed
 0.0001 1 1 0
1  16 0 8.10581632525063 9.10587531273877
2  31 5 0 8.10581632525063 9.10587531273877
2  32 9 16 8.10581632525063 9.10587531273877
0

0101000
+30 0 -42 0 *
Ve
1e-07
0 0 10
0 0

0101101
*
Ed
 1e-07 1 1 0
1  17 0 0 10
2  33 10 0 0 10
2  34 5 0 0 10
6  7 4 0
6  8 5 0
0

0101000
-32 0 +28 0 *
Ve
1e-07
4.45307412518761 0 10
0 0

0101101
*
Ed
 1e-07 1 1 0
1  18 0 2.47210873086245 8.10581632525062
2  35 5 0 2.47210873086245 8.10581632525062
2  36 9 16 2.47210873086245 8.10581632525062
0

0101000
+26 0 -30 0 *
Ed
 1e-07 1 1 0
1  19 0 0 4.45307412518761
2  37 6 0 0 4.45307412518761
2  38 5 0 0 4.45307412518761
0

0101000
+28 0 -26 0 *
Wi

0101100
+57 0 -41 0 -31 0 +29 0 -27 0 +25 0 +24 0 *
Fa
0  1e-07 5 0

0101000
+23 0 *
Ve
1e-07
0 0 0
0 0

0101101
*
Ed
 1e-07 1 1 0
1  20 0 0 10
2  39 6 0 0 10
2  40 8 0 0 10
6  9 6 0
6  10 3 0
0

0101000
-56 0 +21 0 *
Ed
 1e-07 1 1 0
1  21 0 0 10
2  41 10 0 0 10
2  42 6 0 0 10
6  11 6 0
6  12 5 0
0

0101000
-28 0 +21 0 *
Ed
 1e-07 1 1 0
1  22 0 -7.28106486341567 -1.68555186752875
2  43 6 0 -7.28106486341567 -1.68555186752875
2  44 9 16 -7.28106486341567 -1.68555186752875
0

0101000
+26 0 -37 0 *
Wi

0101000
-55 0 -20 0 +35 0 +19 0 +18 0 +24 0 *
Fa
0  1e-07 6 0

0101000
+17 0 *
Ve
1e-07
0 10 0
0 0

0101101
*
Ed
 1e-07 1 1 0
1  23 0 0 10
2  45 7 0 0 10
2  46 8 0 0 10
6  13 3 0
6  14 2 0
0

0101000
-54 0 +15 0 *
Ed
 1e-07 1 1 0
1  24 0 0 10
2  47 10 0 0 10
2  48 7 0 0 10
6  15 2 0
6  16 5 0
0

0101000
-32 0 +15 0 *
Wi

0101000
-14 0 -53 0 +31 0 +13 0 *
Fa
0  1e-07 7 0
2  2
0111000
+12 0 *
Ed
 1e-07 1 1 0
1  25 0 0 10
2  49 10 0 0 10
2  50 8 0 0 10
6  17 3 0
6  18 5 0
0

0101000
-15 0 +21 0 *
Wi

0101000
-10 0 -14 0 +52 0 +20 0 *
Fa
0  1e-07 8 0
2  3
0111000
+9 0 *
Wi

0101100
+47 16 +40 0 +36 16 -29 0 +18 0 -25 0 *
Fa
0  1e-07 9 16

0101000
+7 0 *
Wi

0101000
-19 0 -27 0 +13 0 +10 0 *
Fa
0  1e-07 10 0
2  5
0111000
+5 0 *
Sh

0101100
+50 0 -43 0 -38 0 +33 0 +22 0 -16 0 +11 0 -8 0 +6 0 -4 0 
*
So

0100000
+3 0 *
Co

1100000
+2 0 *

+1 0 
0

