DBRep_DrawableShape

CASCADE Topology V1, (c) Matra-Datavision
Locations 2
1
              1               0               0             200 
              0               1               0               0 
              0               0               1               0 
2  1 -1 0
Curve2ds 24
1 0 0 1 0 
1 0 200 1 0 
1 0 0 1 0 
1 0 0 1 0 
1 200 0 0 -1 
1 0 0 0 1 
1 0 -200 1 0 
1 0 0 1 0 
1 0 0 0 -1 
1 0 0 0 1 
1 200 0 0 -1 
1 200 0 0 1 
1 0 -200 1 0 
1 0 200 1 0 
1 0 0 0 -1 
1 200 0 0 1 
1 0 0 0 1 
1 0 0 1 0 
1 200 0 0 1 
1 0 0 1 0 
1 0 0 0 1 
1 0 200 1 0 
1 200 0 0 1 
1 0 200 1 0 
Curves 12
1 200 0 0 0 0 1 
1 0 0 0 0 0 1 
1 0 0 200 -0 1 0 
1 0 200 0 0 0 1 
1 0 0 0 -0 1 0 
1 200 0 200 -0 1 0 
1 200 200 0 0 0 1 
1 200 0 0 -0 1 0 
1 0 0 0 1 0 -0 
1 0 0 200 1 0 -0 
1 0 200 0 1 0 -0 
1 0 200 200 1 0 -0 
Polygon3D 2
2 1
0.8000000008
200 0 0 200 0 200 
0 200 
2 1
0.8000000008
200 0 0 200 200 0 
0 200 
PolygonOnTriangulations 42
2 1 2 
p 0.8000000008 1 0 200 
2 2 4 
p 0.8000000008 1 0 200 
2 2 4 
p 0.8000000008 1 0 200 
2 1 2 
p 0.8000000008 1 0 200 
2 1 3 
p 0.8000000008 1 0 200 
2 1 3 
p 0.8000000008 1 0 200 
2 2 4 
p 0.8000000008 1 0 200 
2 1 2 
p 0.8000000008 1 0 200 
2 1 2 
p 0.8000000008 1 0 200 
2 3 4 
p 0.8000000008 1 0 200 
2 1 3 
p 0.8000000008 1 0 200 
2 1 3 
p 0.8000000008 1 0 200 
2 1 3 
p 0.8000000008 1 0 200 
2 1 2 
p 0.8000000008 1 0 200 
2 1 2 
p 0.8000000008 1 0 200 
2 2 4 
p 0.8000000008 1 0 200 
2 1 2 
p 0.8000000008 1 0 200 
2 1 3 
p 0.8000000008 1 0 200 
2 3 4 
p 0.8000000008 1 0 200 
2 2 4 
p 0.8000000008 1 0 200 
2 1 2 
p 0.8000000008 1 0 200 
2 2 4 
p 0.8000000008 1 0 200 
2 3 4 
p 0.8000000008 1 0 200 
2 1 3 
p 0.8000000008 1 0 200 
2 3 4 
p 0.8000000008 1 0 200 
2 1 3 
p 0.8000000008 1 0 200 
2 1 2 
p 0.8000000008 1 0 200 
2 1 2 
p 0.8000000008 1 0 200 
2 1 3 
p 0.8000000008 1 0 200 
2 3 4 
p 0.8000000008 1 0 200 
2 1 3 
p 0.8000000008 1 0 200 
2 1 2 
p 0.8000000008 1 0 200 
2 2 4 
p 0.8000000008 1 0 200 
2 3 4 
p 0.8000000008 1 0 200 
2 2 4 
p 0.8000000008 1 0 200 
2 1 2 
p 0.8000000008 1 0 200 
2 2 4 
p 0.8000000008 1 0 200 
2 1 3 
p 0.8000000008 1 0 200 
2 3 4 
p 0.8000000008 1 0 200 
2 3 4 
p 0.8000000008 1 0 200 
2 1 2 
p 0.8000000008 1 0 200 
2 1 3 
p 0.8000000008 1 0 200 
Surfaces 6
1 200 0 0 1 0 -0 0 0 1 0 -1 0 
1 0 0 0 -0 1 0 0 0 1 1 0 -0 
1 0 0 0 1 0 -0 0 0 1 0 -1 0 
1 0 0 200 0 0 1 1 0 -0 -0 1 0 
1 0 200 0 -0 1 0 0 0 1 1 0 -0 
1 0 0 0 0 0 1 1 0 -0 -0 1 0 
Triangulations 15
4 2 1 0.8000000008
200 0 0 200 0 200 200 200 0 200 200 200 0 0 200 0 0 -200 200 -200 2 1 3 2 3 4 
4 2 1 0.8000000008
0 0 0 200 0 0 0 0 200 200 0 200 0 0 0 200 200 0 200 200 4 2 1 4 1 3 
4 2 1 0.8000000008
200 0 0 400 0 0 200 0 200 400 0 200 0 0 0 200 200 0 200 200 4 2 1 4 1 3 
4 2 1 0.8000000008
0 0 0 0 0 200 0 200 0 0 200 200 0 0 200 0 0 -200 200 -200 2 1 3 2 3 4 
4 2 1 0.8000000008
0 0 0 200 0 0 0 0 200 200 0 200 0 0 0 200 200 0 200 200 4 2 1 4 1 3 
4 2 1 0.8000000008
0 0 200 0 200 200 200 0 200 200 200 200 0 0 0 200 200 0 200 200 4 2 1 4 1 3 
4 2 1 0.8000000008
0 0 200 0 200 200 200 0 200 200 200 200 0 0 0 200 200 0 200 200 4 2 1 4 1 3 
4 2 1 0.8000000008
0 200 0 200 200 0 0 200 200 200 200 200 0 0 0 200 200 0 200 200 4 2 1 4 1 3 
4 2 1 0.8000000008
0 200 0 200 200 0 0 200 200 200 200 200 0 0 0 200 200 0 200 200 4 2 1 4 1 3 
4 2 1 0.8000000008
0 0 0 0 200 0 200 0 0 200 200 0 0 0 0 200 200 0 200 200 4 2 1 4 1 3 
4 2 1 0.8000000008
0 0 0 0 200 0 200 0 0 200 200 0 0 0 0 200 200 0 200 200 4 2 1 4 1 3 
4 2 1 0.8000000008
200 0 0 200 0 200 200 200 0 200 200 200 0 0 200 0 0 -200 200 -200 2 1 3 2 3 4 
4 2 1 0.8000000008
200 0 200 200 200 200 400 0 200 400 200 200 0 0 0 200 200 0 200 200 4 2 1 4 1 3 
4 2 1 0.8000000008
200 200 0 400 200 0 200 200 200 400 200 200 0 0 0 200 200 0 200 200 4 2 1 4 1 3 
4 2 1 0.8000000008
200 0 0 200 200 0 400 0 0 400 200 0 0 0 0 200 200 0 200 200 4 2 1 4 1 3 

TShapes 45
Ve
1e-07
200 0 200
0 0

0101101
*
Ve
1e-07
200 0 0
0 0

0101101
*
Ed
 1e-07 1 1 0
1  1 0 0 200
2  1 1 0 0 200
2  2 2 0 0 200
6  1 1 0
6  2 2 0
6  3 3 2
5  1 0
0

0101000
-45 0 +44 0 *
Ve
1e-07
0 0 200
0 0

0101101
*
Ve
1e-07
0 0 0
0 0

0101101
*
Ed
 1e-07 1 1 0
1  2 0 0 200
2  3 3 0 0 200
2  4 2 0 0 200
6  4 4 0
6  5 2 0
6  6 5 0
0

0101000
-42 0 +41 0 *
Ve
1e-07
0 200 200
0 0

0101101
*
Ed
 1e-07 1 1 0
1  3 0 0 200
2  5 3 0 0 200
2  6 4 0 0 200
6  7 4 0
6  8 6 0
6  9 7 0
0

0101000
-39 0 +42 0 *
Ve
1e-07
0 200 0
0 0

0101101
*
Ed
 1e-07 1 1 0
1  4 0 0 200
2  7 3 0 0 200
2  8 5 0 0 200
6  10 4 0
6  11 8 0
6  12 9 0
0

0101000
-39 0 +37 0 *
Ed
 1e-07 1 1 0
1  5 0 0 200
2  9 3 0 0 200
2  10 6 0 0 200
6  13 4 0
6  14 10 0
6  15 11 0
0

0101000
-37 0 +41 0 *
Wi

0101100
-40 0 -38 0 +36 0 +35 0 *
Fa
0  1e-07 3 0
2  4
0111000
+34 0 *
Ve
1e-07
200 0 0
0 0

0101101
*
Ve
1e-07
200 0 200
0 0

0101101
*
Ed
 1e-07 1 1 0
1  1 0 0 200
2  1 1 0 0 200
2  2 2 0 0 200
6  16 5 0
6  17 12 0
6  18 3 0
0

0101000
+32 0 -31 0 *
Ve
1e-07
200 200 200
0 0

0101101
*
Ed
 1e-07 1 1 0
1  6 0 0 200
2  11 1 0 0 200
2  12 4 0 0 200
6  19 7 0
6  20 12 0
6  21 13 0
0

0101000
+31 0 -29 0 *
Ve
1e-07
200 200 0
0 0

0101101
*
Ed
 1e-07 1 1 0
1  7 0 0 200
2  13 1 0 0 200
2  14 5 0 0 200
6  22 9 0
6  23 12 0
6  24 14 0
0

0101000
+27 0 -29 0 *
Ed
 1e-07 1 1 0
1  8 0 0 200
2  15 1 0 0 200
2  16 6 0 0 200
6  25 11 0
6  26 12 0
6  27 15 0
0

0101000
+32 0 -27 0 *
Wi

0101100
-30 0 -28 0 +26 0 +25 0 *
Fa
0  1e-07 1 0
2  12
0111000
+24 0 *
Ed
 1e-07 1 1 0
1  9 0 0 200
2  17 2 0 0 200
2  18 6 0 0 200
6  28 5 0
6  29 11 0
0

0101000
+41 0 -32 0 *
Ed
 1e-07 1 1 0
1  10 0 0 200
2  19 2 0 0 200
2  20 4 0 0 200
6  30 5 0
6  31 7 0
0

0101000
+42 0 -31 0 *
Wi

0101100
-22 0 -30 0 +21 0 +40 0 *
Fa
0  1e-07 2 0
2  5
0111000
+20 0 *
Ed
 1e-07 1 1 0
1  11 0 0 200
2  21 5 0 0 200
2  22 6 0 0 200
6  32 9 0
6  33 11 0
0

0101000
+37 0 -27 0 *
Ed
 1e-07 1 1 0
1  12 0 0 200
2  23 5 0 0 200
2  24 4 0 0 200
6  34 9 0
6  35 7 0
0

0101000
+39 0 -29 0 *
Wi

0101100
-18 0 -26 0 +17 0 +36 0 *
Fa
0  1e-07 5 0
2  9
0111000
+16 0 *
Wi

0101100
-35 0 -18 0 +25 0 +22 0 *
Fa
0  1e-07 6 0
2  11
0111000
+14 0 *
Wi

0101100
-38 0 -17 0 +28 0 +21 0 *
Fa
0  1e-07 4 0
2  7
0111000
+12 0 *
Sh

0101100
-33 0 +23 0 -19 0 +15 0 -13 0 +11 0 *
So

0100000
+10 0 *
Ve
1e-07
200 200 200
0 0

0101101
*
Ve
1e-07
200 200 0
0 0

0101101
*
Ed
 1e-07 1 1 0
1  11 0 0 200
2  21 5 0 0 200
2  22 6 0 0 200
6  36 14 2
6  37 15 2
0

0101000
+27 2 -7 0 *
Ed
 1e-07 1 1 0
1  8 0 0 200
2  15 1 0 0 200
2  16 6 0 0 200
6  38 1 0
6  39 10 0
6  40 15 2
5  2 0
0

0101000
-7 0 +44 0 *
Ed
 1e-07 1 1 0
1  9 0 0 200
2  17 2 0 0 200
2  18 6 0 0 200
6  41 3 2
6  42 15 2
0

0101000
+32 2 -44 0 *
Wi

0101100
-25 0 -6 1 +5 1 +4 1 *
Fa
0  1e-07 6 1
2  15
0101000
+3 0 *
Co

1100000
-43 1 +9 0 -45 1 +8 1 -2 0 *

+1 0 