DBRep_DrawableShape

CASCADE Topology V1, (c) Matra-Datavision
Locations 14
1
              0               0               1            -100 
              1               0               0            -100 
              0               1               0               0 
1
              0               1               0             100 
             -0               0               1               0 
              1              -0               0             100 
2  1 1 2 1 0
1
0.999183033196309 -1.42755363925674e-14 -0.0404136879364432             100 
0.0404136879364432 -5.77398788537283e-16 0.999183033196309               0 
-1.42872085676846e-14              -1               0             100 
1
              1               0               0               0 
              0               1               0               0 
              0               0               1               0 
1
0.999183033196309 0.0404136879364432 -1.42872085676846e-14 -99.9183033196294 
-1.42755363925674e-14 -5.77398788537283e-16              -1 100.000000000001 
-0.0404136879364432 0.999183033196309               0 4.04136879364432 
2  4 -1 5 -1 6 -1 0
1
0.0326677664276643 -2.50347243896667e-16 -0.999466266082366            -400 
0.999466266082366 -6.31970537511066e-15 0.0326677664276643            1000 
-6.32451061929194e-15              -1 4.37629659956436e-17             100 
1
              1               0               0               0 
              0               1               0               0 
              0               0               1               0 
2  8 -1 9 -1 6 -1 0
2  2 -1 1 -1 0
1
              0               1               0            -400 
              0               0               1            1000 
              1               0               0             100 
2  1 1 12 1 0
2  12 -1 1 -1 0
Curve2ds 56
1 0 0 0 1 
1 200 0 0 1 
8 0 200
1 0 0 1 0 
8 0 200
1 0 1283.09518948453 1 0 
1 0 0 1 0 
1 200 0 0 1 
1 0 0 0 1 
1 0 100 1 0 
1 0 0 1 0 
8 0 200
1 0 0 1 0 
8 0 200
1 0 1283.09518948453 1 0 
1 0 0 1 0 
1 200 0 0 1 
1 0 0 0 1 
1 0 100 1 0 
1 0 0 1 0 
8 0 200
1 0 0 1 0 
8 0 200
1 0 1283.09518948453 1 0 
1 0 0 1 0 
1 200 0 0 1 
1 0 0 0 1 
1 0 100 1 0 
1 0 0 1 0 
8 0 200
1 0 0 1 0 
8 0 200
1 0 1283.09518948453 1 0 
1 0 0 1 0 
1 0 100 1 0 
1 0 0 1 0 
1 0 0 0 1 
1 200 0 0 1 
1 200 0 0 1 
1 0 0 0 1 
1 0 600 1 0 
1 149.99999999999596 -150.00000000000671 1 0 
1 200 0 0 1 
1 0 0 0 1 
1 0 600 1 0 
1 0 0 1 0 
1 200 0 0 1 
1 0 0 0 1 
1 0 600 1 0 
1 -349.99999999999596 -150.00000000000671 1 0 
1 0 600 1 0 
1 0 0 1 0 
1 149.99999999999596 -150.00000000000671 -0.85749292571253044 0.51449575542754955 
1 200 0 0 1 
1 349.99999999999596 -150.00000000000671 -0.85749292571253044 0.51449575542754955 
1 0 0 0 1 
1 -350.00000000000387 149.99999999999352 1 0 
1 200 0 0 1 
1 -349.99999999999596 -150.00000000000671 0.85749292571253044 0.51449575542754955 
1 0 583.09518948453001 1 0 
1 -149.99999999999596 -150.00000000000671 0.85749292571253044 0.51449575542754955 
1 0 0 0 1 
1 150.00000000000387 149.99999999999352 1 0 
1 0 583.09518948453001 1 0 
Curves 28
1 0 0 0 -0 1 0 
1 0 0 0 1 0 0 
1 200 0 0 -0 1 0 
1 0 100 0 1 0 -0 
1 200 0 0 0 0 1 
1 200 0 200 0 1 -0 
1 200 100 0 0 0 1 
1 200 0 200 -1 0 0 
1 0 0 200 0 1 0 
1 200 100 200 -1 0 0 
1 0 0 200 0 0 -1 
1 0 100 200 0 0 -1 
1 0 100 0 -0 1 0 
1 200 100 0 -0 1 0 
1 0 700 0 1 0 -0 
1 200 100 200 0 1 -0 
1 200 700 0 0 0 1 
1 0 100 200 0 1 0 
1 200 700 200 -1 0 0 
1 0 700 200 0 0 -1 
1 0 700 0 -0.85749292571253044 0.51449575542754955 0 
1 200 700 0 -0.85749292571253044 0.51449575542754955 0 
1 0 0 0 1 0 0 
1 200 700 200 -0.85749292571253044 0.51449575542754955 0 
1 200 0 0 0 0 1 
1 0 700 200 -0.85749292571253044 0.51449575542754955 0 
1 200 0 200 -1 0 0 
1 0 0 200 0 0 -1 
Polygon3D 0
PolygonOnTriangulations 0
Surfaces 18
1 0 0 0 0 0 1 1 0 -0 -0 1 0 
1 0 0 200 1 -0 0 0 0 -1 0 1 0 
9 0 0 0 0 1 10 2 27 2 4 -2.8421709430404001e-14 0 0  10.221538272771699 75.041715818310195 12.9894233906086  24.274294594802601 148.53535177056301 24.404078994352201  39.707031069664303 221.57506487768899 34.243966811267001  55.040476508505499 294.54908750568097 42.509086841242201  68.798854433938999 366.96446013392398 49.199439084507198  79.324179455633796 438.32987062612102 54.315023540754602  85.258385121107395 507.64566184298502 57.855840210250499  84.811282121572205 573.98136670466704 59.821889092844401  73.271899341549201 661.17862381411999 60.3761374204975  44.803866119300103 735.69205292995298 57.770673213057201  34.917106502567101 756.39262987648704 56.731407065085001  23.473429392744599 775.78154044233304 55.4189669132587  10.456672031756 793.76684813583904 53.833352757610903  -4.14461406330655 810.29899165186498 51.974564598094098  -20.368337237724798 825.38058238902897 49.842602434757303  -38.302842376774798 839.03916378122699 47.437466267564503  -77.872410042902899 863.52846090933804 42.080845925502999  -125.46120305069201 882.31475183517796 35.6315295680688  -151.41562202604001 890.27019642757296 32.133697385510303  -179.70805078301399 896.75371355418599 28.362691199106902  -210.513188483904 901.69852329642799 24.3185110088633  -243.98988701728399 905.01858278622296 20.001156814775499  -280.27979238785201 906.62352763924503 15.4106286168451  -319.51297367792102 906.42483340307194 10.5469264150729  -361.814413371917 904.33425031192701 5.4100502094572001  -407.30331957274001 900.26704895964303 -7.63833440942108e-13  
200 0 1.4210854715202001e-14  184.24269149156001 61.823984334074801 12.989423390609501  174.49553424168599 130.76813715215701 24.404078994353799  169.980566842814 203.90995985570399 34.243966811253799  168.94786117940399 279.03287850062901 42.509086841298398  169.64399442493701 354.80151103016402 49.199439084445302  170.49775266543199 429.87882800247701 54.315023540787003  169.638003049372 503.43614497928002 57.855840210245098  165.62573558124799 574.575587462562 59.821889092844501  152.76965319581601 671.87537163441903 60.3761374204989  124.75442099782001 763.69118001330401 57.770673213057201  115.02577419619099 790.19406762175095 56.731407065089201  103.61326793641 816.17372488007004 55.418966913252902  90.299757251687197 841.58999169257402 53.833352757619402  74.863382899882296 866.36033277251795 51.974564598088797  57.108745501435401 890.35004013480795 49.842602434761297  36.890882216606897 913.399473754371 47.437466267564602  -8.6589181168654292 957.33544729792902 42.080845925504597  -64.751986312179497 996.46452198215604 35.631529568069404  -95.512428964198193 1014.70718734026 32.133697385512299  -129.04210058536401 1031.53011072035 28.362691199106798  -165.39960973828801 1046.86797545173 24.318511008866199  -204.65941225943001 1060.67472781367 20.001156814774799  -246.91316986890101 1072.90863560054 15.4106286168479  -292.26412120947498 1083.5261266764601 10.5469264150736  -340.82059152156103 1092.4833542172801 5.41005020945894  -392.69668042725999 1099.7329510403599 8.3844042819691802e-13  

0 2
200 2

0 11
700 8
991.54759474226501 8
1283.09518948453 11

1 200 0 0 -1 0 0 0 0 1 0 1 -0 
1 0 100 0 0 0 1 1 0 -0 -0 1 0 
9 0 0 0 0 1 10 2 27 2 4 200 0 1.4210854715202001e-14  184.24269149156001 61.823984334074801 12.989423390609501  174.49553424168599 130.76813715215701 24.404078994353799  169.980566842814 203.90995985570399 34.243966811253799  168.94786117940399 279.03287850062901 42.509086841298398  169.64399442493701 354.80151103016402 49.199439084445302  170.49775266543199 429.87882800247701 54.315023540787003  169.638003049372 503.43614497928002 57.855840210245098  165.62573558124799 574.575587462562 59.821889092844501  152.76965319581601 671.87537163441903 60.3761374204989  124.75442099782001 763.69118001330401 57.770673213057201  115.02577419619099 790.19406762175095 56.731407065089201  103.61326793641 816.17372488007004 55.418966913252902  90.299757251687197 841.58999169257402 53.833352757619402  74.863382899882296 866.36033277251795 51.974564598088797  57.108745501435401 890.35004013480795 49.842602434761297  36.890882216606897 913.399473754371 47.437466267564602  -8.6589181168654292 957.33544729792902 42.080845925504597  -64.751986312179497 996.46452198215604 35.631529568069404  -95.512428964198193 1014.70718734026 32.133697385512299  -129.04210058536401 1031.53011072035 28.362691199106798  -165.39960973828801 1046.86797545173 24.318511008866199  -204.65941225943001 1060.67472781367 20.001156814774799  -246.91316986890101 1072.90863560054 15.4106286168479  -292.26412120947498 1083.5261266764601 10.5469264150736  -340.82059152156103 1092.4833542172801 5.41005020945894  -392.69668042725999 1099.7329510403599 8.3844042819691802e-13  
200 0 200  184.24269149156001 61.823984334082397 187.01057660939699  174.49553424168499 130.76813715212899 175.59592100562699  169.98056684282699 203.90995985576899 165.75603318877199  168.94786117935001 279.032878500528 157.49091315870899  169.643994424997 354.80151103027998 150.80056091553601  170.497752665402 429.87882800237901 145.68497645921599  169.63800304937601 503.43614497933697 142.14415978976399  165.62573558124899 574.57558746254097 140.17811090715099  152.76965319581399 671.87537163443403 139.62386257950499  124.75442099782001 763.69118001329502 142.22932678694099  115.02577419618601 790.19406762178596 143.26859293492399  103.613267936418 816.17372488000001 144.58103308672  90.299757251675501 841.58999169266201 146.16664724241701  74.863382899891306 866.36033277243996 148.02543540188199  57.108745501428899 890.35004013485195 150.15739756525599  36.890882216608702 913.39947375435804 152.562533732432  -8.6589181168694296 957.335447297938 157.9191540745  -64.751986312175404 996.46452198214797 164.36847043192799  -95.512428964216397 1014.70718734028 167.8663026145  -129.042100585329 1031.5301107202999 171.63730880087499  -165.39960973833499 1046.86797545179 175.68148899115701  -204.65941225938701 1060.6747278136099 179.99884318520901  -246.91316986893099 1072.9086356005801 184.58937138316301  -292.264121209461 1083.5261266764401 189.453073584924  -340.82059152156501 1092.4833542172801 194.58994979054401  -392.69668042725999 1099.7329510403599 200.00000000000099  

0 2
200 2

0 11
700 8
991.54759474226501 8
1283.09518948453 11

1 200 0 200 0 0 -1 -1 0 0 0 1 0 
1 200 100 0 -1 0 0 0 0 1 0 1 -0 
9 0 0 0 0 1 10 2 27 2 4 200 0 200  184.24269149156001 61.823984334082198 187.010576609396  174.495534241683 130.76813715212899 175.59592100563  169.980566842831 203.909959855767 165.756033188766  168.947861179342 279.03287850053101 157.490913158718  169.64399442500601 354.801511030276 150.800560915527  170.49775266539601 429.87882800238401 145.684976459224  169.63800304937899 503.43614497933299 142.14415978976001  165.62573558124799 574.57558746254301 140.17811090715199  152.76965319581501 671.87537163443005 139.62386257950601  124.754420997819 763.691180013299 142.22932678693999  115.025774196189 790.19406762176504 143.26859293493001  103.613267936412 816.17372488004401 144.581033086708  90.299757251682493 841.58999169260801 146.166647242431  74.863382899885295 866.360332772486 148.02543540187099  57.108745501432203 890.35004013482501 150.15739756526099  36.8908822166078 913.39947375436702 152.56253373243101  -8.6589181168686604 957.33544729792595 157.9191540745  -64.7519863121762 996.46452198216195 164.36847043192799  -95.512428964213498 1014.70718734023 167.86630261449901  -129.04210058533599 1031.53011072041 171.63730880087601  -165.39960973832501 1046.86797545165 175.68148899115701  -204.65941225939699 1060.67472781374 179.99884318520901  -246.91316986892301 1072.90863560049 184.58937138316301  -292.26412120946497 1083.5261266764801 189.453073584924  -340.82059152156398 1092.4833542172801 194.58994979054401  -392.69668042725999 1099.7329510403599 200.00000000000099  
-1.4210854715202001e-14 5.6843418860808002e-14 200  10.221538272770999 75.041715818312497 187.01057660939799  24.274294594800502 148.535351770554 175.59592100561699  39.707031069677903 221.57506487771201 165.756033188804  55.0404765084497 294.54908750564402 157.49091315862299  68.798854433999395 366.96446013396798 150.80056091563401  79.3241794556032 438.32987062608498 145.684976459154  85.258385121111601 507.64566184300298 142.14415978978701  84.811282121572305 573.98136670466397 140.178110907144  73.271899341548007 661.17862381411805 139.62386257950899  44.803866119299798 735.69205292995798 142.229326786938  34.917106502565197 756.39262987645702 143.26859293493001  23.4734293927457 775.78154044239204 144.58103308670701  10.4566720317539 793.76684813577003 146.16664724243199  -4.1446140633067303 810.29899165191796 148.02543540186701  -20.368337237724901 825.38058238900203 150.15739756526199  -38.302842376776297 839.03916378123301 152.56253373242899  -77.872410042901507 863.52846090933394 157.9191540745  -125.461203050696 882.31475183517898 164.36847043192699  -151.41562202602799 890.27019642757 167.86630261449901  -179.70805078303701 896.75371355418304 171.63730880087499  -210.51318848387601 901.69852329643004 175.68148899115201  -243.98988701731 905.01858278622205 179.99884318521299  -280.27979238783502 906.62352763924002 184.58937138315699  -319.51297367792898 906.42483340307399 189.45307358492499  -361.81441337191501 904.33425031192405 194.589949790541  -407.30331957274001 900.26704895964099 199.99999999999901  

0 2
200 2

0 11
700 8
991.54759474226501 8
1283.09518948453 11

1 200 100 200 0 0 -1 -1 0 0 0 1 0 
9 0 0 0 0 1 10 2 27 2 4 0 0 200  10.221538272770999 75.041715818311403 187.01057660939699  24.274294594800299 148.535351770559 175.59592100562099  39.7070310696786 221.57506487769999 165.75603318879601  55.040476508448499 294.549087505665 157.49091315863501  68.798854434000802 366.96446013394302 150.800560915619  79.324179455602106 438.32987062610698 145.68497645916801  85.258385121111999 507.64566184299002 142.14415978977701  84.811282121572305 573.98136670466795 140.17811090714801  73.271899341547893 661.17862381411499 139.62386257950601  44.803866119299798 735.69205292996003 142.22932678693999  34.917106502565197 756.39262987644895 143.26859293492299  23.473429392746102 775.78154044240296 144.58103308672099  10.456672031752699 793.76684813576003 146.16664724241201  -4.1446140633050401 810.29899165192501 148.025435401886  -20.368337237726401 825.38058238899998 150.15739756525099  -38.302842376775402 839.03916378123199 152.562533732433  -77.872410042903098 863.52846090933804 157.91915407449699  -125.461203050693 882.31475183517296 164.36847043193001  -151.41562202603899 890.27019642759205 167.86630261448801  -179.708050783011 896.75371355414495 171.637308800894  -210.513188483916 901.69852329646994 175.68148899113001  -243.98988701726699 905.01858278619295 179.99884318523101  -280.27979238786799 906.62352763925605 184.58937138314599  -319.51297367791199 906.42483340306796 189.45307358493  -361.81441337192001 904.33425031192496 194.58994979054  -407.30331957274001 900.26704895964099 199.99999999999901  
-2.8421709430404001e-14 0 0  10.221538272771699 75.041715818310195 12.9894233906086  24.274294594802601 148.53535177056301 24.404078994352201  39.707031069664303 221.57506487768899 34.243966811267001  55.040476508505499 294.54908750568097 42.509086841242201  68.798854433938999 366.96446013392398 49.199439084507198  79.324179455633796 438.32987062612102 54.315023540754602  85.258385121107395 507.64566184298502 57.855840210250499  84.811282121572205 573.98136670466704 59.821889092844401  73.271899341549201 661.17862381411999 60.3761374204975  44.803866119300103 735.69205292995298 57.770673213057201  34.917106502567101 756.39262987648704 56.731407065085001  23.473429392744599 775.78154044233304 55.4189669132587  10.456672031756 793.76684813583904 53.833352757610903  -4.14461406330655 810.29899165186498 51.974564598094098  -20.368337237724798 825.38058238902897 49.842602434757303  -38.302842376774798 839.03916378122699 47.437466267564503  -77.872410042902899 863.52846090933804 42.080845925502999  -125.46120305069201 882.31475183517796 35.6315295680688  -151.41562202604001 890.27019642757296 32.133697385510303  -179.70805078301399 896.75371355418599 28.362691199106902  -210.513188483904 901.69852329642799 24.3185110088633  -243.98988701728399 905.01858278622296 20.001156814775499  -280.27979238785201 906.62352763924503 15.4106286168451  -319.51297367792102 906.42483340307194 10.5469264150729  -361.814413371917 904.33425031192701 5.4100502094572001  -407.30331957274001 900.26704895964303 -7.63833440942108e-13  

0 2
200 2

0 11
700 8
991.54759474226501 8
1283.09518948453 11

1 0 100 200 1 -0 0 0 0 -1 0 1 0 
1 -149.99999999999596 850.00000000000671 0 0 -0 1 1 0 0 -0 1 0 
1 200 700 0 -0.51449575542754955 -0.85749292571253044 0 0 0 1 -0.85749292571253044 0.51449575542754955 0 
1 -149.99999999999596 850.00000000000671 200 0 0 -1 -1 0 0 0 1 0 
1 0 700 200 0.51449575542754955 0.85749292571253044 0 0 0 -1 -0.85749292571253044 0.51449575542754955 0 
1 0 0 0 0 1 0 0 -0 1 1 0 -0 
1 -499.99999999999983 1000.0000000000002 0 0 1 0 0 -0 1 1 0 -0 
Triangulations 0

TShapes 74
Ve
8.32809358138751e-05
0 0 0
0 0

0101101
*
Ve
1.01e-07
0 100 0
0 0

0101101
*
Ed
 1e-07 1 1 0
1  1 0 0 100
2  1 1 0 0 100
2  2 2 0 0 100
0

0101000
+74 3 -73 0 *
Ve
8.32809356986275e-05
200 0 0
0 0

0101101
*
Ed
 1e-07 1 1 0
1  2 0 0 200
2  3 3 7 0 200
2  4 3 10 0 200
2  5 1 11 0 200
0

0101000
+74 0 -71 0 *
Ve
1.01e-07
200 100 0
0 0

0101101
*
Ed
 1e-07 1 1 0
1  3 0 0 100
2  6 1 0 0 100
2  7 4 0 0 100
0

0101000
+71 3 -69 0 *
Ed
 1e-07 1 1 0
1  4 0 0 200
2  8 1 0 0 200
2  9 5 0 0 200
4 G1 5 0 1 0
0

0101000
+73 0 -69 0 *
Wi

0101100
-72 0 +70 3 +68 0 -67 0 *
Fa
0  1e-07 1 0

0111000
+66 0 *
Ve
8.32809355907891e-05
200 0 200
0 0

0101101
*
Ed
 1e-07 1 1 0
1  5 0 0 200
2  10 6 7 0 200
2  11 6 10 0 200
2  12 4 11 0 200
0

0101000
+71 0 -64 0 *
Ve
1.01e-07
200 100 200
0 0

0101101
*
Ed
 1e-07 1 1 0
1  6 0 0 100
2  13 4 0 0 100
2  14 7 0 0 100
0

0101000
+64 3 -62 0 *
Ed
 1e-07 1 1 0
1  7 0 0 200
2  15 4 0 0 200
2  16 8 0 0 200
4 G1 8 0 4 0
0

0101000
+69 0 -62 0 *
Wi

0101100
-68 0 +63 3 +61 0 -60 0 *
Fa
0  1e-07 4 0

0111000
+59 0 *
Ve
8.32809358246e-05
0 0 200
0 0

0101101
*
Ed
 1e-07 1 1 0
1  8 0 0 200
2  17 9 7 0 200
2  18 9 10 0 200
2  19 7 11 0 200
0

0101000
+64 0 -57 0 *
Ve
1.01e-07
0 100 200
0 0

0101101
*
Ed
 1e-07 1 1 0
1  9 0 0 100
2  20 7 0 0 100
2  21 2 0 0 100
0

0101000
+57 3 -55 0 *
Ed
 1e-07 1 1 0
1  10 0 0 200
2  22 7 0 0 200
2  23 10 0 0 200
4 G1 10 0 7 0
0

0101000
+62 0 -55 0 *
Wi

0101100
-61 0 +56 3 +54 0 -53 0 *
Fa
0  1e-07 7 0

0111000
+52 0 *
Ed
 1e-07 1 1 0
1  11 0 0 200
2  24 11 7 0 200
2  25 11 10 0 200
2  26 2 11 0 200
0

0101000
+57 0 -74 0 *
Ed
 1e-07 1 1 0
1  12 0 0 200
2  27 2 0 0 200
2  28 12 0 0 200
4 G1 12 0 2 0
0

0101000
+55 0 -73 0 *
Wi

0101100
-54 0 +50 3 +72 0 -49 0 *
Fa
0  1e-07 2 0

0111000
+48 0 *
Ve
1.01e-07
0 700 0
0 0

0101101
*
Ed
 1e-07 1 1 0
1  13 0 0 600
2  29 5 0 0 600
2  30 12 0 0 600
0

0101000
+73 0 -46 0 *
Ve
1.01e-07
200 700 0
0 0

0101101
*
Ed
 1e-07 1 1 0
1  14 0 0 600
2  31 5 0 0 600
2  32 8 0 0 600
0

0101000
+69 0 -44 0 *
Ed
 1e-07 1 1 0
1  15 0 0 200
2  33 5 0 0 200
2  34 13 0 0 200
4 G1 13 0 5 0
0

0101000
+46 0 -44 0 *
Wi

0101100
-45 0 +67 0 +43 0 -42 0 *
Fa
0  1e-07 5 0

0111000
+41 0 *
Ve
1.01e-07
200 700 200
0 0

0101101
*
Ed
 1e-07 1 1 0
1  16 0 0 600
2  35 8 0 0 600
2  36 10 0 0 600
0

0101000
+62 0 -39 0 *
Ed
 1e-07 1 1 0
1  17 0 0 200
2  37 8 0 0 200
2  38 14 0 0 200
0

0101000
+44 0 -39 0 *
Wi

0101100
-43 0 +60 0 +38 0 -37 0 *
Fa
0  1e-07 8 0

0111000
+36 0 *
Ve
1.01e-07
0 700 200
0 0

0101101
*
Ed
 1e-07 1 1 0
1  18 0 0 600
2  39 10 0 0 600
2  40 12 0 0 600
0

0101000
+55 0 -34 0 *
Ed
 1e-07 1 1 0
1  19 0 0 200
2  41 10 0 0 200
2  42 15 0 0 200
4 G1 15 0 10 0
0

0101000
+39 0 -34 0 *
Wi

0101100
-38 0 +53 0 +33 0 -32 0 *
Fa
0  1e-07 10 0

0111000
+31 0 *
Ed
 1e-07 1 1 0
1  20 0 0 200
2  43 12 0 0 200
2  44 16 0 0 200
0

0101000
+34 0 -46 0 *
Wi

0101100
-33 0 +49 0 +45 0 -29 0 *
Fa
0  1e-07 12 0

0111000
+28 0 *
Ve
8.32809358138751e-05
-500 1000 0
0 0

0101101
*
Ed
 1e-07 1 1 0
1  21 0 0 583.09518948453
2  45 13 0 0 583.09518948453
2  46 16 0 0 583.09518948453
0

0101000
+46 0 -26 0 *
Ve
8.32809356986275e-05
-300 1000 0
0 0

0101101
*
Ed
 1e-07 1 1 0
1  22 0 0 583.09518948453
2  47 13 0 0 583.09518948453
2  48 14 0 0 583.09518948453
0

0101000
+44 0 -24 0 *
Ed
 1e-07 1 1 0
1  23 0 0 200
2  49 13 14 0 200
0

0101000
+26 14 -24 14 *
Wi

0101100
-25 0 +42 0 +23 0 -22 13 *
Fa
0  1e-07 13 0

0111000
+21 0 *
Ve
8.32809355907891e-05
-300 1000 200
0 0

0101101
*
Ed
 1e-07 1 1 0
1  24 0 0 583.09518948453
2  50 14 0 0 583.09518948453
2  51 15 0 0 583.09518948453
0

0101000
+39 0 -19 0 *
Ed
 1e-07 1 1 0
1  25 0 0 200
2  52 14 14 0 200
0

0101000
+24 14 -19 14 *
Wi

0101100
-23 0 +37 0 +18 0 -17 13 *
Fa
0  1e-07 14 0

0111000
+16 0 *
Ve
8.32809358246e-05
-500 1000 200
0 0

0101101
*
Ed
 1e-07 1 1 0
1  26 0 0 583.09518948453
2  53 15 0 0 583.09518948453
2  54 16 0 0 583.09518948453
0

0101000
+34 0 -14 0 *
Ed
 1e-07 1 1 0
1  27 0 0 200
2  55 15 14 0 200
0

0101000
+19 14 -14 14 *
Wi

0101100
-18 0 +32 0 +13 0 -12 13 *
Fa
0  1e-07 15 0

0111000
+11 0 *
Ed
 1e-07 1 1 0
1  28 0 0 200
2  56 16 14 0 200
0

0101000
+14 14 -26 14 *
Wi

0101100
-13 0 +29 0 +25 0 -9 13 *
Fa
0  1e-07 16 0

0111000
+8 0 *
Wi

0101100
+70 3 +63 3 +56 3 +50 3 *
Fa
0  1e-07 17 0

0111000
-6 0 *
Wi

0101100
+22 13 +17 13 +12 13 +9 13 *
Fa
0  1e-07 18 0

0111000
-4 0 *
Sh

0101100
+65 0 +58 0 +51 0 +47 0 +40 0 +35 0 +30 0 +27 0 +20 0 +15 0 
+10 0 +7 0 -5 0 +3 0 *
So

1100000
-2 0 *

+1 0 
0

