DBRep_DrawableShape

CASCADE Topology V1, (c) Matra-Datavision
Locations 0
Curve2ds 30
2 0 0 -1 0 0 1 15.000000476837158
1 0 0 1 0 
1 0 4.4999809265200028 1 0 
1 0 0 1 0 
1 6.2831853071795862 0 0 1 
1 0 0 0 1 
1 0 1.0471982245985536 1 0 
1 0 0 1 0 
1 6.2831853071795862 0 0 1 
1 0 0 0 1 
1 0 0.66795349120999958 1 0 
1 0 6.2831767241107386 1 0 
1 6.2831853071795862 0 0 1 
1 0 0 0 1 
1 0 7.3303822290348863 1 0 
1 0 0 1 0 
1 6.2831853071795862 6.2831767241107386 0 1 
1 0 6.2831767241107386 0 1 
1 0 9.3822898864700459 1 0 
1 0 0 1 0 
1 6.2831853071795862 0 0 1 
1 0 0 0 1 
1 0 0.4432409130372571 1 0 
1 0 -1.2345205370464734e-13 1 0 
1 6.2831853071795862 0 0 1 
1 0 0 0 1 
1 0 16.943500165462147 1 0 
2 0 0 1 0 -0 1 5.2986021041871583
1 6.2831853071795862 0 0 1 
1 0 0 0 1 
Curves 15
2 -38.250450134280001 -4.7683715820310001e-07 38.500011444089999 1 0 0 -0 1 0 0 -0 1 15.000000476837158
2 -33.750469207759998 -4.7683715820310001e-07 38.500011444089999 1 0 0 -0 1 0 0 -0 1 15.000000476837158
1 -38.250450134280001 15 38.500011444089999 1 0 0 
2 -32.018417542594776 -4.7683715820310001e-07 38.500011444089999 1 0 0 -0 1 5.0753054668451798e-16 0 -5.0753054668451798e-16 1 13.999999416818845
2 -33.750469207759998 13 38.500011444089999 0 0 -1 0 1 0 1 -0 0 2
2 -31.35046386718885 -4.7683715820310001e-07 38.500011444089999 1 0 0 -0 1 0 0 -0 1 13.999999523130324
1 -32.018417358400001 13.99999904633 38.500011444089999 1 0 0 
2 -29.618396640926381 -4.7683715820310001e-07 38.500011444089999 1 0 0 -0 1 0 0 -0 1 13.000000545027611
2 -31.35044670105 11.99999904633 38.500011444089999 0 0 -1 -8.5830688473388464e-06 0.99999999996316546 0 0.99999999996316546 8.5830688473388464e-06 0 2
2 -20.236106872560001 -4.7683715820310001e-07 38.500011444089999 1 0 0 -0 1 0 0 -0 1 12.999999523165158
1 -29.618396759029999 13 38.500011444089999 0.99999999999999489 -1.0164576147176956e-07 0 
2 -18.306194338945122 -4.7683715820310001e-07 38.500011444089999 1 0 0 -0 1 0 0 -0 1 12.565148759800417
2 -20.236106872560001 8.4999990463259998 38.500011444089999 0 0 -1 0 1 0 1 -0 0 4.5
2 -3.0000028610229998 -4.7683715820310001e-07 38.500011444089999 1 0 0 -0 1 0 0 -0 1 5.2986021041871583
1 -18.30619430542 12.56514835358 38.500011444089999 0.90336655914799346 -0.42886928056590234 0 
Polygon3D 0
PolygonOnTriangulations 0
Surfaces 9
1 -38.250450134280001 -4.7683715820310001e-07 38.500011444089999 1 0 0 0 -1 -0 0 -0 1 
2 -38.250450134280001 -4.7683715820310001e-07 38.500011444089999 1 0 0 -0 1 0 0 -0 1 15.000000476837158
5 -33.750469207759998 -4.7683715820310001e-07 38.500011444089999 1 0 0 -0 1 0 0 -0 1 13.000000476837158 2
2 -32.018417358400001 -4.7683715820310001e-07 38.500011444089999 1 0 0 -0 1 0 0 -0 1 13.999999523167158
5 -31.35044670105 -4.7683715820310001e-07 38.500011444089999 1 0 0 -0 1 0 0 -0 1 11.999999523167158 2
2 -29.618396759029999 -4.7683715820310001e-07 38.500011444089999 1 0 0 -0 1 0 0 -0 1 13.000000476837158
5 -20.236106872560001 -4.7683715820310001e-07 38.500011444089999 1 0 0 -0 1 0 0 -0 1 8.499999523163158 4.5
3 -18.30619430542 -4.7683715820310001e-07 38.500011444089999 1 0 0 -0 1 0 0 -0 1 12.565148830417158
-0.44324073160648214
1 -3.0000028610229998 -4.7683715820310001e-07 38.500011444089999 1 0 0 -0 1 0 0 -0 1 
Triangulations 0

TShapes 43
Ve
0.003
-38.25045013428 15 38.50001144409
0 0

0101101
*
Ed
 0.003 1 1 0
1  1 0 0 6.28318530717959
2  1 1 0 0 6.28318530717959
2  2 2 0 0 6.28318530717959
0

0101100
+43 0 -43 0 *
Wi

0101000
-42 0 *
Fa
0  0.003 1 0

0111000
+41 0 *
Ve
0.003
-33.75046920776 15 38.50001144409
0 0

0101101
*
Ed
 0.003 1 1 0
1  2 0 0 6.28318530717959
2  3 2 0 0 6.28318530717959
2  4 3 0 0 6.28318530717959
4 G1 2 0 3 0
0

0101100
+39 0 -39 0 *
Ed
 0.003 1 1 0
1  3 0 0 4.49998092652
3  5 6CN 2 0 0 4.49998092652
0

0101000
+43 0 -39 0 *
Wi

0101000
+42 0 -38 0 -37 0 +37 0 *
Fa
0  0.003 2 0

0111000
+36 0 *
Ve
0.003
-32.0184175425948 13.9999989399817 38.50001144409
0 0

0101101
*
Ed
 0.003 1 1 0
1  4 0 0 6.28318530717959
2  7 3 0 0 6.28318530717959
2  8 4 0 0 6.28318530717959
0

0101100
+34 0 -34 0 *
Ed
 0.003 1 1 0
1  5 0 0 1.04719822459855
3  9 10CN 3 0 0 1.04719822459855
0

0101000
+39 0 -34 0 *
Wi

0101000
+38 0 -33 0 -32 0 +32 0 *
Fa
0  0.003 3 0

0111000
+31 0 *
Ve
0.003
-31.3504638671889 13.9999990462932 38.50001144409
0 0

0101101
*
Ed
 0.003 1 1 0
1  6 0 0 6.28318530717959
2  11 4 0 0 6.28318530717959
2  12 5 0 0 6.28318530717959
4 G1 4 0 5 0
0

0101100
+29 0 -29 0 *
Ed
 0.003 1 1 0
1  7 0 0 0.66795349121
3  13 14CN 4 0 0 0.66795349121
0

0101000
+34 0 -29 0 *
Wi

0101000
+33 0 -28 0 -27 0 +27 0 *
Fa
0  0.003 4 0

0111000
+26 0 *
Ve
0.003
-29.6183966409264 13.0000000681905 38.50001144409
0 0

0101101
*
Ed
 0.003 1 1 0
1  8 0 0 6.28318530717959
2  15 5 0 0 6.28318530717959
2  16 6 0 0 6.28318530717959
0

0101100
+24 0 -24 0 *
Ed
 0.003 1 1 0
1  9 0 0 1.04720550492415
3  17 18CN 5 0 0 1.04720550492415
0

0101000
+29 0 -24 0 *
Wi

0101000
+28 0 -23 0 -22 0 +22 0 *
Fa
0  0.003 5 0

0111000
+21 0 *
Ve
0.003
-20.23610687256 12.999999046328 38.50001144409
0 0

0101101
*
Ed
 0.003 1 1 0
1  10 0 0 6.28318530717959
2  19 6 0 0 6.28318530717959
2  20 7 0 0 6.28318530717959
4 G1 6 0 7 0
0

0101100
+19 0 -19 0 *
Ed
 0.003 1 1 0
1  11 0 0 9.38228988647005
3  21 22CN 6 0 0 9.38228988647005
0

0101000
+24 0 -19 0 *
Wi

0101000
+23 0 -18 0 -17 0 +17 0 *
Fa
0  0.003 6 0

0111000
+16 0 *
Ve
0.003
-18.3061943389451 12.5651482829633 38.50001144409
0 0

0101101
*
Ed
 0.003 1 1 0
1  12 0 0 6.28318530717959
2  23 7 0 0 6.28318530717959
2  24 8 0 0 6.28318530717959
4 G1 7 0 8 0
0

0101100
+14 0 -14 0 *
Ed
 0.003 1 1 0
1  13 0 0 0.443240913037257
3  25 26CN 7 0 0 0.443240913037257
0

0101000
+19 0 -14 0 *
Wi

0101000
+18 0 -13 0 -12 0 +12 0 *
Fa
0  0.003 7 0

0111000
+11 0 *
Ve
0.003
-3.000002861023 5.29860162735 38.50001144409
0 0

0101101
*
Ed
 0.003 1 1 0
1  14 0 0 6.28318530717959
2  27 8 0 0 6.28318530717959
2  28 9 0 0 6.28318530717959
0

0101100
+9 0 -9 0 *
Ed
 0.003 1 1 0
1  15 0 0 16.9435001654622
3  29 30CN 8 0 0 16.9435001654622
0

0101000
+14 0 -9 0 *
Wi

0101000
+13 0 -8 0 -7 0 +7 0 *
Fa
0  0.003 8 0

0111000
+6 0 *
Wi

0101000
+8 0 *
Fa
0  0.003 9 0

0111000
+4 0 *
Sh

0101000
-40 0 -35 0 -30 0 -25 0 -20 0 -15 0 -10 0 -5 0 -3 0 *
So

1100000
-2 0 *

+1 0 
0

