DBRep_DrawableShape

CASCADE Topology V1, (c) Matra-Datavision
Locations 2
1
              1               0               0 35.4734503527011 
              0               1               0 0.00319557307058109 
              0               0               1 -27.688161902251 
2  1 -1 0
Curve2ds 4
1 0 0 0 -1 
1 3.1409652070377869 0 0 -1 
1 0 0 1 0 
1 0 -44.999999996249997 1 0 
Curves 8
1 11.430736541750001 15.499995708465001 36.975234985349999 0.7882988967923823 7.1012734907719753e-05 -0.61529248676796355 
1 11.43073272705 12.99998474121 36.975234985349999 0.7882988967923823 7.1012734907719753e-05 -0.61529248676796355 
1 11.43073272705 15.5 36.975234985349999 0 -1 0 
1 11.89216284881433 12.999990679208082 37.566494661046846 0.7882988967923823 7.1012734907719753e-05 -0.61529248676796355 
1 11.43073272705 12.99998474121 36.975234985349999 0.61564838482888784 8.9009157048957543e-06 0.78802098079832572 
1 11.892098055610781 15.499990124814881 37.567046477435007 0.7882988967923823 7.1012734907719753e-05 -0.61529248676796355 
2 11.89185333252 14.24999046326 37.566734313959998 -0.78801084050222037 0 0.61566136410447581 8.4130257535325183e-07 -0.9999999999990663 1.076818504739396e-06 0.61566136410390104 1.3665021461546275e-06 0.78801084050148484 1.2500005217750001
1 11.89186096191 15.499989509580001 37.56674194336 -0.61482053653795199 2.5431046363175524e-06 -0.78866704498458506 
Polygon3D 0
PolygonOnTriangulations 0
Surfaces 5
1 11.43073272705 15.5 36.975234985349999 -0.61529248831936456 -0 -0.78829889878000248 0 -1 0 -0.78829889878000248 0 0.61529248831936456 
1 11.43073272705 12.99998474121 36.975234985349999 6.1436197833190448e-05 -0.99999999743926749 -3.67022972594314e-05 0.61564838482888795 8.9009157048957543e-06 0.78802098079832561 -0.78802097845373065 -7.1008722900309365e-05 0.6156483837992156 
6 -0.7882988967923823 -7.1012734907719753e-05 0.61529248676796355 
2 11.89185333252 14.24999046326 37.566734313959998 -0.78801084050222059 -1.0587911840678754e-22 0.61566136410447581 8.4130257535325183e-07 -0.9999999999990663 1.076818504739396e-06 0.61566136410390104 1.3665021461546275e-06 0.78801084050148484 1.2500005217750001
1 11.89186096191 15.499989509580001 37.56674194336 -5.4440660372390635e-05 0.9999999974754693 4.5664822536403764e-05 -0.61482053653795199 2.5431046363175536e-06 -0.78866704498458506 -0.78866704310970137 -7.1011225435644844e-05 0.61482053484737043 
1 11.77243209949598 14.249934219275408 37.413129074294034 0.78829889679238219 7.1012734907719753e-05 -0.61529248676796355 0.61529248831936478 0 0.78829889878000237 5.5979260727111722e-05 -0.9999999974785958 -4.3693602363734308e-05 
Triangulations 0

TShapes 24
Ve
0.00300574188198685
11.43073654175 15.499995708465 36.97523498535
0 0

0101101
*
Ed
 0.00300574188198685 1 1 0
1  1 0 0 44.99999999625
0

0101000
+24 0 -24 1 *
Ve
0.003
11.43073272705 12.99998474121 36.97523498535
0 0

0101101
*
Ed
 0.003 1 1 0
1  2 0 0 44.99999999625
0

0101000
+22 0 -22 1 *
Ed
 0.003 1 1 0
1  3 0 0 2.50001525879
0

0101000
+24 0 -22 0 *
Wi

0101000
+23 0 -21 0 -20 0 +20 1 *
Fa
0  0.003 1 0

0111000
+19 0 *
Ve
0.00339144792982195
11.8921628488143 12.9999906792081 37.5664946610468
0 0

0101101
*
Ed
 0.00339144792982195 1 1 0
1  4 0 0 44.99999999625
2  1 3 0 0 44.99999999625
4 G1 2 0 3 0
0

0101000
+17 0 -17 1 *
Ed
 0.003 1 1 0
1  5 0 0 0.750003732338768
0

0101000
+22 0 -17 0 *
Wi

0101000
+21 0 -16 0 -15 0 +15 1 *
Fa
0  0.003 2 0

0111000
+14 0 *
Ve
0.00338594663401355
11.8920980556108 15.4999901248149 37.567046477435
0 0

0101101
*
Ed
 0.00338594663401355 1 1 0
1  6 0 0 44.99999999625
2  2 3 0 0 44.99999999625
4 G1 3 0 4 0
0

0101000
+12 0 -12 1 *
Ed
 0.003 1 1 0
1  7 0 0 3.14096520703779
2  3 3 0 0 3.14096520703779
2  4 3 2 0 3.14096520703779
0

0101000
+17 0 -12 0 *
Wi

0101000
+16 0 -11 0 -10 0 +10 1 *
Fa
0  0.003 3 0

0111000
+9 0 *
Ed
 0.003 1 1 0
1  8 0 0 0.750008462724041
0

0101000
+12 0 -24 0 *
Wi

0101000
+11 0 -23 0 -7 0 +7 1 *
Fa
0  0.003 4 0

0111000
+6 0 *
Wi

0101100
+20 0 +15 0 +10 0 +7 0 *
Fa
0  0.003 5 0

0111100
-4 0 *
Sh

0101000
-18 0 -13 0 -8 0 -5 0 +3 0 -3 1 *
So

1100000
-2 0 *

+1 0 
0

