DBRep_DrawableShape

CASCADE Topology V1, (c) Matra-Datavision
Locations 0
Curve2ds 0
Curves 0
Polygon3D 0
PolygonOnTriangulations 0
Surfaces 1
1 25 -25 0 0 0 1 1 0 -0 -0 1 0 
Triangulations 0

TShapes 3
Fa
0  1e-07 1 0

0111000
*
Sh

0101000
+3 0 *
So

0100000
+2 0 *

+1 0 
0

