DBRep_DrawableShape

CASCADE Topology V1, (c) Matra-Datavision
Locations 1
1
              1               0               0 2.27732025734931e-22 
              0               1               0 -1.97478942326462e-16 
              0               0               1              -2 
Curve2ds 5
1 -15.569255828859999 -9.8000000119209005 1.1386601286746565e-22 1 
1 -15.569255828859999 -9.8000000119209005 1 -7.36979444084053e-22 
1 9.5366999985913026e-07 1.5 1 0 
1 34.625307083131361 -9.8000000119209005 -1.0398302660921185e-22 1 
1 17.556060791018389 -9.8000000119209005 1 9.7206581563670762e-21 
Curves 8
1 11.43075561523 14 10.5 1.1386601286746565e-22 -9.8739471163231032e-17 -1 
1 28.5 14.00000572205 10.5 1.1386601286746565e-22 -9.8739471163231032e-17 -1 
1 11.43075561523 14 10.5 0.99999999999994382 3.3522573530850656e-07 0 
1 28.5 -13.99998474121 10.5 1.1386601286746565e-22 -9.8739471163231032e-17 -1 
1 28.5 14.00000572205 10.5 0 -1 0 
1 11.43075370789 -14.00001525879 10.5 1.1386601286746565e-22 -9.8739471163231032e-17 -1 
1 28.5 -13.99998474121 10.5 -0.99999999999840172 -1.7878692168669645e-06 0 
1 11.43075370789 -14.00001525879 10.5 6.8119248582176679e-08 0.99999999999999767 0 
Polygon3D 0
PolygonOnTriangulations 0
Surfaces 8
1 11.43075561523 14 10.5 3.3522573530850656e-07 -0.99999999999994382 9.8739471163263658e-17 0.99999999999994382 3.3522573530850656e-07 0 -3.3100011824678138e-23 9.8739471163258112e-17 1 
1 27.000011444089999 14 0.69999998807910002 0 1 -2.1984572377946257e-15 1 0 0 0 -2.1984572377946257e-15 -1 
1 28.5 14.00000572205 10.5 -1 -0 -1.1386601286746565e-22 0 -1 0 -1.1386601286746565e-22 0 1 
1 28.5 14.00000667572 9 -1 -0 -9.5237770895951465e-14 0 -1 0 -9.5237770895951465e-14 0 1 
1 28.5 -13.99998474121 10.5 -1.7878692168669647e-06 0.99999999999840183 -9.873947116327681e-17 -0.99999999999840183 -1.7878692168669647e-06 0 -1.765332609825459e-22 9.8739471163118989e-17 1 
1 46.056060791020002 -14 0.69999998807910002 1.0009154537515464e-07 -0.999999999999995 5.7594423249836973e-15 -0.999999999999995 -1.0009154537515464e-07 9.4039548065783001e-38 5.7647148280669178e-22 -5.7594423249836689e-15 -1 
1 11.43075370789 -14.00001525879 10.5 0.99999999999999767 -6.8119248582176679e-08 1.2059207144850621e-22 6.8119248582176679e-08 0.99999999999999767 0 -1.2059207144850592e-22 8.2146412920404056e-30 1 
1 19.965377330780001 1.4305125001593904e-06 10.5 -1.1386601286746565e-22 9.8739471163231032e-17 1 0 1 -9.8739471163231032e-17 -1 -1.1243069893999218e-38 -1.1386601286746565e-22 
Triangulations 0

TShapes 24
Ve
0.003
11.43075561523 14 10.5
0 0

0101101
*
Ed
 0.003 1 1 0
1  1 0 0 2
2  1 2 0 0 2
0

0101000
+24 0 -24 1 *
Ve
0.003
28.5 14.00000572205 10.5
0 0

0101101
*
Ed
 0.003 1 1 0
1  2 0 0 2
0

0101000
+22 0 -22 1 *
Ed
 0.003 1 1 0
1  3 0 0 17.069244384771
2  2 2 0 0 17.069244384771
0

0101000
+24 0 -22 0 *
Wi

0101000
+23 0 -21 0 -20 0 +20 1 *
Fa
0  0.003 1 0

0111000
+19 0 *
Ve
0.003
28.5 -13.99998474121 10.5
0 0

0101101
*
Ed
 0.003 1 1 0
1  4 0 0 2
0

0101000
+17 0 -17 1 *
Ed
 0.003 1 1 0
1  5 0 0 27.99999046326
2  3 4 0 0 27.99999046326
0

0101000
+22 0 -17 0 *
Wi

0101000
+21 0 -16 0 -15 0 +15 1 *
Fa
0  0.003 3 0

0111000
+14 0 *
Ve
0.003
11.43075370789 -14.00001525879 10.5
0 0

0101101
*
Ed
 0.003 1 1 0
1  6 0 0 2
2  4 6 0 0 2
0

0101000
+12 0 -12 1 *
Ed
 0.003 1 1 0
1  7 0 0 17.0692462921373
2  5 6 0 0 17.0692462921373
0

0101000
+17 0 -12 0 *
Wi

0101000
+16 0 -11 0 -10 0 +10 1 *
Fa
0  0.003 5 0

0111000
+9 0 *
Ed
 0.003 1 1 0
1  8 0 0 28.0000152587901
0

0101000
+12 0 -24 0 *
Wi

0101000
+11 0 -23 0 -7 0 +7 1 *
Fa
0  0.003 7 0

0111000
+6 0 *
Wi

0101100
+20 0 +15 0 +10 0 +7 0 *
Fa
0  0.003 8 0

0111100
-4 0 *
Sh

0101000
-18 0 -13 0 -8 0 -5 0 +3 0 -3 1 *
So

1100000
+2 0 *

+1 0 
0

