DBRep_DrawableShape

CASCADE Topology V1, (c) Matra-Datavision
Locations 4
1
              1               0               0 7.90473550661267e-13 
              0               1               0 -1.3121007535507e-16 
              0               0               1 -8.300000548363 
1
              1               0               0 -7.11545651526981e-08 
              0               1               0 4.39691460662829e-15 
              0               0               1  2.000000059605 
2  2 -1 0
2  1 -1 0
Curve2ds 17
1 -0.95001220702921074 5.3644210018521932e-07 1 -6.846074466038529e-21 
1 -16.638101153904788 13.999999137061698 0.99999999999515143 3.1140357648588849e-06 
1 -0.95001220702999944 -8.3000000119209005 9.5237770895951465e-14 1 
1 1.4999885559100008 -8.3000000119209005 9.5237770895951465e-14 1 
1 -0.95001220702999944 -8.3000000119209005 1 -6.846074466038529e-21 
1 -16.638101153904788 9.0000000907316977 0 1 
1 -16.188100390964788 9.0000000907316977 -1 -7.8215132050032615e-23 
1 -16.188100390964788 -9.000005631314302 0 1 
1 -16.638101153904788 -9.0000170754063031 0.99999999967662523 2.5431272433156259e-05 
1 -16.638101153904788 -14.000017075408302 0 1 
1 17.556060791020652 5.3644210018521932e-07 1 3.9073117379957657e-21 
1 -14.188100390964792 -14.000015168058303 -0.99999999999969702 -7.78509961173038e-07 
1 -14.188100319810399 7.0000033832258399 7.8214922673865919e-23 -1 
1 7.0000033832258532 -6.3000000266119569 1 2.1984572377946253e-15 
1 17.556060791021441 -8.3000000119209005 -9.5237770894368695e-14 1 
1 17.556060791021441 -8.3000000119209005 1 3.9073117379957657e-21 
1 20.006061553961619 -8.3000000119209005 -9.5237770894368695e-14 1 
Curves 35
1 27.000011444089999 14 0.69999998807910002 1 0 0 
1 26.049999237060788 13.99999904633 0.69999945163699984 0.99999999999515143 3.1140357648588832e-06 0 
1 46.056060791020002 14 0.69999998807910002 -3.5577281516057101e-08 2.1984572377946241e-15 0.99999999999999933 
1 26.04999923706 13.99999904633 9 9.5237770895951465e-14 -1.5808441769434361e-17 -1 
1 28.5 14.00000667572 9 9.5237770895951465e-14 -1.5808441769434361e-17 -1 
1 26.04999923706 13.99999904633 9 0.99999999999515143 3.1140357648588832e-06 0 
1 46.056060791020002 14 0.69999998807910002 0.24421408638730069 -0.96972134142236621 1.5027973329182252e-07 
1 47.315258026119999 9 0.70000076293949998 0.10709317754869775 -0.99424898859517252 0 
1 26.04999923706 9 9 0 1 0 
1 47.770164489750002 4.7766656875609996 0.70000076293949998 0.029245400745387867 -0.9995722617876317 0 
1 47.90991973877 1.0907647265410001e-06 2.2000007629390002 -2.3198143093492528e-08 -2.0890011783756537e-07 0.99999999999997802 
1 26.5 9 9 -1 0 0 
1 47.90991973877 1.0907647265410001e-06 0.70000076293949998 -0.029245387400279526 -0.99957226217808159 0 
1 26.5 -9.0000057220459997 9 0 1 0 
1 47.770164489750002 -4.7766656875609996 0.70000076293949998 -0.10709317754869775 -0.99424898859517252 0 
1 26.04999923706 -9.0000171661380008 9 0.99999999967662512 2.5431272433156242e-05 0 
1 47.315258026119999 -9 0.70000076293949998 -0.24421408638730069 -0.96972134142236621 -1.5027973329182252e-07 
1 26.04999923706 -14.000017166139999 9 0 1 0 
1 46.056060791020002 -14 0.69999998807910002 -0.999999999999995 -1.0009154537515464e-07 0 
1 28.500000000000789 -14.00001525879 0.69999945163699984 -0.99999999999969691 -7.7850996117303736e-07 0 
1 47.315258026119999 9 0.70000076293949998 -3.5577281516057101e-08 2.1984572377946241e-15 0.99999999999999933 
1 28.500000000000597 7.0000032924941467 2.6999999733880431 -2.0937616673763083e-28 -1 2.1984572377946253e-15 
1 26.04999923706 9 9 9.5237770895951465e-14 -1.5808441769434361e-17 -1 
1 28.5 14.00000667572 9 0 -1 0 
1 28.5 -14.00001525879 9 9.5237770895951465e-14 -1.5808441769434361e-17 -1 
1 28.5 -14.00001525879 9 -0.99999999999969691 -7.7850996117303736e-07 0 
1 47.770164489750002 4.7766656875609996 0.70000076293949998 -3.5577281516057101e-08 2.1984572377946241e-15 0.99999999999999933 
1 47.90991973877 1.0907647265410001e-06 0.70000076293949998 -3.5577281516057101e-08 2.1984572377946241e-15 0.99999999999999933 
1 26.5 9 9 9.5237770895951465e-14 -1.5808441769434361e-17 -1 
1 47.770164489750002 -4.7766656875609996 0.70000076293949998 -3.5577281516057101e-08 2.1984572377946241e-15 0.99999999999999933 
1 26.5 -9.0000057220459997 9 9.5237770895951465e-14 -1.5808441769434361e-17 -1 
1 47.315258026119999 -9 0.70000076293949998 -3.5577281516057101e-08 2.1984572377946241e-15 0.99999999999999933 
1 26.04999923706 -9.0000171661380008 9 9.5237770895951465e-14 -1.5808441769434361e-17 -1 
1 46.056060791020002 -14 0.69999998807910002 -3.5577281516057101e-08 2.1984572377946241e-15 0.99999999999999933 
1 26.04999923706 -14.000017166139999 9 9.5237770895951465e-14 -1.5808441769434361e-17 -1 
Polygon3D 0
PolygonOnTriangulations 0
Surfaces 16
1 27.000011444089999 14 0.69999998807910002 0 1 -2.1984572377946257e-15 1 0 0 0 -2.1984572377946257e-15 -1 
1 42.688100390965552 -9.0731697447402572e-08 0.70000041855709949 -3.5577281516057101e-08 2.1984572377946241e-15 0.99999999999999944 0.99999999999999944 1.1754943508222872e-38 3.5577281516057101e-08 7.8215132050032603e-23 1 -2.1984572377946225e-15 
1 46.056060791020002 -14 0.69999998807910002 1.0009154537515464e-07 -0.999999999999995 5.7594423249836973e-15 -0.999999999999995 -1.0009154537515464e-07 9.4039548065783001e-38 5.7647148280669178e-22 -5.7594423249836689e-15 -1 
1 46.056060791020002 14 0.69999998807910002 0.96972134142237532 0.24421408638730835 3.450004861901817e-08 0.24421408638730072 -0.96972134142236632 1.5027973329182257e-07 7.0155861194361962e-08 -1.3730406670253201e-07 -0.99999999999998812 
1 28.5 14.00000667572 9 -1 -0 -9.5237770895951465e-14 0 -1 0 -9.5237770895951465e-14 0 1 
1 26.04999923706 9 9 1 -0 9.5237770895951465e-14 0 1 0 -9.5237770895951465e-14 0 1 
1 26.774999618529993 -6.1988829997231916e-06 9 -9.5237770895951465e-14 1.5808441769434361e-17 1 1 0 9.5237770895951465e-14 1.5055607554593793e-30 1 -1.5808441769434361e-17 
1 47.315258026119999 9 0.70000076293949998 0.99424898859517175 0.10709317754869767 3.5372675928865728e-08 0.10709317754869775 -0.99424898859517241 0 3.5169247266179546e-08 3.7881722636225638e-09 -0.99999999999999933 
1 47.770164489750002 4.7766656875609996 0.70000076293949998 0.99957226178763114 0.02924540074538785 3.5562063688965741e-08 0.029245400745387871 -0.99957226178763181 0 3.5546852435415294e-08 1.0400268039168094e-09 -0.99999999999999933 
1 26.5 9 9 0 1 -1.5808441769434361e-17 -1 0 0 0 1.5808441769434361e-17 1 
1 47.90991973877 1.0907647265410001e-06 0.70000076293949998 0.99957226217808104 -0.029245387400279509 3.5562063831446378e-08 -0.029245387400279529 -0.99957226217808171 0 3.5546852591720197e-08 -1.0400263335041182e-09 -0.99999999999999944 
1 26.5 -9.0000057220459997 9 1 -0 9.5237770895951465e-14 0 1 0 -9.5237770895951465e-14 0 1 
1 47.770164489750002 -4.7766656875609996 0.70000076293949998 0.99424898859517175 -0.10709317754869767 3.5372676399745266e-08 -0.10709317754869775 -0.99424898859517241 0 3.5169247734351047e-08 -3.7881723140505495e-09 -0.99999999999999933 
1 26.04999923706 -9.0000171661380008 9 2.5431272433156246e-05 -0.99999999967662523 1.8230459461903771e-17 0.99999999967662523 2.5431272433156246e-05 9.4039548065783001e-38 -4.6362378115728593e-22 1.8230459456008499e-17 1 
1 47.315258026119999 -9 0.70000076293949998 0.96972134142237532 -0.24421408638730835 3.4500049692806615e-08 -0.24421408638730072 -0.96972134142236632 -1.5027973329182255e-07 7.0155862235637537e-08 1.373040664402977e-07 -0.99999999999998812 
1 26.04999923706 -14.000017166139999 9 1 -0 9.5237770895951465e-14 0 1 0 -9.5237770895951465e-14 0 1 
Triangulations 0

TShapes 90
Ve
0.003
28.5 14.00000667572 9
0 0

0101101
*
Ve
0.003
46.05606079102 14 0.6999999880791
0 0

0101101
*
Ed
 0.003 1 1 0
1  1 0 1.49998855592267 19.05604934693
0

0101000
+90 1 -89 0 *
Ve
0.003
26.04999923706 13.99999904633 9
0 0

0101101
*
Ed
 0.003 1 1 0
1  2 0 -4.44089209850063e-16 2.45000076295188
2  1 1 0 -4.44089209850063e-16 2.45000076295188
2  2 2 0 -4.44089209850063e-16 2.45000076295188
0

0101000
+87 1 -90 1 *
Ed
 0.003 1 1 0
1  3 0 0 2.000000059605
0

0101000
+89 0 -89 2 *
Ve
0.003
28.5000000000006 14.00000667572 2.69999997338803
0 0

0101101
*
Ed
 0.003 1 1 0
1  1 0 1.49998862706517 19.05604934693
0

0101000
+84 3 -89 0 *
Ed
 0.003 1 1 0
1  4 0 0 8.300000548363
2  3 1 0 0 8.300000548363
0

0101000
+87 0 -87 1 *
Ed
 0.003 1 1 0
1  5 0 0 6.30000002661197
2  4 1 0 0 6.30000002661197
0

0101000
-84 0 +90 0 *
Ed
 0.003 1 1 0
1  6 0 0 2.45000076295188
2  5 1 0 0 2.45000076295188
0

0101000
+87 0 -90 0 *
Wi

0101000
-88 0 -86 0 -85 0 +83 2 -82 0 +81 0 +80 0 *
Fa
0  0.003 1 0

0111000
+79 0 *
Ve
0.003
47.31525802612 9 0.7000007629395
0 0

0101101
*
Ed
 0.003 1 1 0
1  7 0 0 5.15612040946331
0

0101000
+89 0 -77 0 *
Ve
0.003
47.77016448975 4.776665687561 0.7000007629395
0 0

0101101
*
Ed
 0.003 1 1 0
1  8 0 0 4.24776324731934
0

0101000
+77 0 -75 0 *
Ve
0.003
26.04999923706 9 9
0 0

0101101
*
Ed
 0.003 1 1 0
1  9 0 0 4.99999904633
2  6 2 4 0 4.99999904633
0

0101000
+73 0 -87 0 *
Ve
0.003
47.90991973877 1.090764726541e-06 0.7000007629395
0.500000059605489 1 11 3
0 0

0101101
*
Ed
 0.003 1 1 0
1  10 0 0 4.77870863308442
0

0101000
+75 0 -71 0 *
Ve
0.003
26.5 9 9
0 0

0101101
*
Ed
 0.003 1 1 0
1  12 0 0 0.45000076294
2  7 2 4 0 0.45000076294
0

0101000
+69 0 -73 0 *
Ve
0.003
47.77016448975 -4.776665687561 0.7000007629395
0 0

0101101
*
Ed
 0.003 1 1 0
1  13 0 0 4.77871081368075
0

0101000
+71 0 -67 0 *
Ve
0.003
26.5 -9.000005722046 9
0 0

0101101
*
Ed
 0.003 1 1 0
1  14 0 0 18.000005722046
2  8 2 4 0 18.000005722046
0

0101000
+65 0 -69 0 *
Ve
0.003
47.31525802612 -9 0.7000007629395
0 0

0101101
*
Ed
 0.003 1 1 0
1  15 0 0 4.24776324731934
0

0101000
+67 0 -63 0 *
Ve
0.003
26.04999923706 -9.000017166138 9
0 0

0101101
*
Ed
 0.003 1 1 0
1  16 0 0 0.450000763085519
2  9 2 4 0 0.450000763085519
0

0101000
+61 0 -65 0 *
Ve
0.003
46.05606079102 -14 0.6999999880791
0 0

0101101
*
Ed
 0.003 1 1 0
1  17 0 0 5.15612040946331
0

0101000
+63 0 -59 0 *
Ve
0.003
26.04999923706 -14.00001716614 9
0 0

0101101
*
Ed
 0.003 1 1 0
1  18 0 0 5.000000000002
2  10 2 4 0 5.000000000002
0

0101000
+57 0 -61 0 *
Ve
0.003
28.5 -14.00001525879 9
0 0

0101101
*
Ed
 0.003 1 1 0
1  19 0 0 17.5560607910207
0

0101000
-55 1 +59 0 *
Ed
 0.003 1 1 0
1  20 0 0 2.45000076294074
2  11 3 0 0 2.45000076294074
2  12 2 0 0 2.45000076294074
0

0101000
+55 1 -57 1 *
Wi

0101000
-88 0 -86 0 -76 0 -74 0 -72 1 -70 0 -68 1 -66 0 -64 1 -62 0 
-60 1 -58 0 -56 1 -54 0 -53 0 *
Fa
0  0.003 2 0

0111000
+52 0 *
Ed
 0.003 1 1 0
1  21 0 0 2.000000059605
0

0101000
+77 0 -77 2 *
Wi

0101000
+85 0 -50 0 -76 0 +76 2 *
Fa
0  0.003 4 0

0111000
+49 0 *
Ve
0.015
28.5000000000006 -14.0000017572132 2.69999997338809
0 0

0101101
*
Ed
 0.003 1 1 0
1  22 0 -6.99999670750586 21.0000050497074
2  13 2 2 -6.99999670750586 21.0000050497074
2  14 5 0 -6.99999670750586 21.0000050497074
0

0101000
+84 0 -47 0 *
Ed
 0.003 1 1 0
1  19 0 0 17.5560607198649
0

0101000
-47 3 +59 0 *
Wi

0101100
-83 2 +46 0 -76 2 -45 2 -74 2 -58 2 -70 2 -62 2 -66 2 *
Fa
0  0.003 2 2

0111000
+44 0 *
Ed
 0.003 1 1 0
1  23 0 0 8.300000548363
0

0101000
+73 0 -73 1 *
Wi

0101000
+42 0 -82 0 -72 0 +72 1 *
Fa
0  0.003 6 0

0111000
+41 0 *
Ed
 0.003 1 1 0
1  24 0 0 28.00002193451
0

0101000
+90 0 -55 0 *
Ed
 0.003 1 1 0
1  25 0 0 6.30000002661191
2  15 3 0 0 6.30000002661191
0

0101000
-47 0 +55 0 *
Wi

0101000
+81 0 +46 0 -39 0 -38 0 *
Fa
0  0.003 5 0

0111000
+37 0 *
Ed
 0.003 1 1 0
1  26 0 0 2.45000076294074
2  16 3 0 0 2.45000076294074
0

0101000
+55 0 -57 0 *
Wi

0101100
+80 0 +39 0 +35 0 +56 0 +60 0 +64 0 +68 0 +72 0 *
Fa
0  0.003 7 0

0111100
-34 0 *
Ed
 0.003 1 1 0
1  27 0 0 2.000000059605
0

0101000
+75 0 -75 2 *
Wi

0101000
+50 0 -32 0 -74 0 +74 2 *
Fa
0  0.003 8 0

0111000
+31 0 *
Ed
 0.003 1 1 0
1  28 0 0 2.000000059605
0

0101000
+71 0 -71 2 *
Wi

0101000
+32 0 -29 0 -70 0 +70 2 *
Fa
0  0.003 9 0

0111000
+28 0 *
Ed
 0.003 1 1 0
1  29 0 0 8.300000548363
0

0101000
+69 0 -69 1 *
Wi

0101000
+26 0 -42 0 -68 0 +68 1 *
Fa
0  0.003 10 0

0111000
+25 0 *
Ed
 0.003 1 1 0
1  30 0 0 2.000000059605
0

0101000
+67 0 -67 2 *
Wi

0101000
+29 0 -23 0 -66 0 +66 2 *
Fa
0  0.003 11 0

0111000
+22 0 *
Ed
 0.003 1 1 0
1  31 0 0 8.300000548363
0

0101000
+65 0 -65 1 *
Wi

0101000
+20 0 -26 0 -64 0 +64 1 *
Fa
0  0.003 12 0

0111000
+19 0 *
Ed
 0.003 1 1 0
1  32 0 0 2.000000059605
0

0101000
+63 0 -63 2 *
Wi

0101000
+23 0 -17 0 -62 0 +62 2 *
Fa
0  0.003 13 0

0111000
+16 0 *
Ed
 0.003 1 1 0
1  33 0 0 8.300000548363
0

0101000
+61 0 -61 1 *
Wi

0101000
+14 0 -20 0 -60 0 +60 1 *
Fa
0  0.003 14 0

0111000
+13 0 *
Ed
 0.003 1 1 0
1  34 0 0 2.000000059605
0

0101000
+59 0 -59 2 *
Wi

0101000
+17 0 -11 0 -58 0 +58 2 *
Fa
0  0.003 15 0

0111000
+10 0 *
Ed
 0.003 1 1 0
1  35 0 0 8.300000548363
2  17 3 0 0 8.300000548363
0

0101000
+57 0 -57 1 *
Wi

0101000
+8 0 -14 0 -56 0 +56 1 *
Fa
0  0.003 16 0

0111000
+7 0 *
Wi

0101000
-54 0 -53 0 +11 0 +45 2 +8 0 -38 0 +35 0 *
Fa
0  0.003 3 0

0111000
+5 0 *
Sh

0101000
+78 0 -51 0 +48 0 +43 0 -40 0 -36 0 +33 0 +30 0 +27 0 -24 0 
+21 0 -18 0 +15 0 -12 0 +9 0 -6 0 +4 0 *
So

0100000
+3 0 *
Co

1100000
+2 0 *

+1 0 
0

