DBRep_DrawableShape

CASCADE Topology V1, (c) Matra-Datavision
Locations 1
1
              1               0               0 9.2252274103577e-08 
              0               1               0 -2.49999999999998 
              0               0               1 -2.61751681588566e-07 
Curve2ds 0
Curves 16
1 11.43078041077 15.5 8.5 3.6900909641430802e-08 -0.99999999999999378 -1.047006726354264e-07 
1 26.049987792970001 15.5 8.5 3.6900909641430802e-08 -0.99999999999999378 -1.047006726354264e-07 
1 11.43078041077 15.5 8.5 1 0 0 
1 26.04999923706 15.5 -13.30000114441 3.6900909641430802e-08 -0.99999999999999378 -1.047006726354264e-07 
1 26.049987792970001 15.5 8.5 5.2495822928591083e-07 0 -0.99999999999986233 
1 57.549976348880001 15.5 -13.3000125885 3.6900909641430802e-08 -0.99999999999999378 -1.047006726354264e-07 
1 26.04999923706 15.5 -13.30000114441 0.99999999999993405 0 -3.6330470839951374e-07 
1 57.549976348880001 15.5 5.4802932739259997 3.6900909641430802e-08 -0.99999999999999378 -1.047006726354264e-07 
1 57.549976348880001 15.5 -13.3000125885 0 0 1 
1 47.222846984859999 15.5 15.49910736084 3.6900909641430802e-08 -0.99999999999999378 -1.047006726354264e-07 
1 57.549976348880001 15.5 5.4802932739259997 -0.71773962521320744 0 0.69631159002188425 
1 42.48934173584 15.5 12.709587097169999 3.6900909641430802e-08 -0.99999999999999378 -1.047006726354264e-07 
1 47.222846984859999 15.5 15.49910736084 -0.86152785410503863 0 -0.50771030775548298 
1 11.43073272705 15.499991416929999 36.975234985349999 3.6900909641430802e-08 -0.99999999999999378 -1.047006726354264e-07 
1 42.48934173584 15.5 12.709587097169999 -0.78801071556781987 -2.1776735496936926e-07 0.61566152401319107 
1 11.43073272705 15.499991416929999 36.975234985349999 1.6745680948565848e-06 3.0142227113894764e-07 -0.99999999999855249 
Polygon3D 0
PolygonOnTriangulations 0
Surfaces 9
1 11.43078041077 15.5 8.5 0 -1.0470067263542648e-07 0.99999999999999456 1 0 0 -0 0.99999999999999456 1.0470067263542648e-07 
1 26.049987792970001 15.5 8.5 0.99999999999986156 3.6900854677946206e-08 5.249582292859104e-07 5.2495822928591083e-07 -3.1554436208840472e-30 -0.99999999999986233 -3.6900854677941124e-08 0.99999999999999944 -1.9371407330871364e-14 
1 26.04999923706 15.5 -13.30000114441 3.6330470839951173e-07 -1.0470065922914535e-07 0.9999999999999285 0.99999999999993405 0 -3.6330470839951374e-07 3.8038242470481505e-14 0.99999999999999456 1.0470065922913844e-07 
1 57.549976348880001 15.5 -13.3000125885 -0.99999999999999933 -3.6900909641431007e-08 0 0 0 1 -3.6900909641431007e-08 0.99999999999999933 0 
1 57.549976348880001 15.5 5.4802932739259997 -0.69631159002188336 4.9453290471243352e-08 -0.71773962521320656 -0.71773962521320755 3.3087224502121107e-24 0.69631159002188425 3.4434899319845558e-08 0.99999999999999889 3.5494586168390092e-08 
1 47.222846984859999 15.5 15.49910736084 0.50771030775548009 1.0893751800946119e-07 -0.86152785410503363 -0.86152785410503863 6.6174449004242199e-24 -0.50771030775548309 -5.5308700794702001e-08 0.999999999999994 9.385270612222007e-08 
1 42.48934173584 15.5 12.709587097169999 -0.61566152401321494 5.9786781696558541e-08 -0.7880107155678292 -0.78801071556781987 -2.1776735496936929e-07 0.61566152401319107 -1.3479458808157896e-07 0.99999999999997458 1.811836062669708e-07 
1 11.43073272705 15.499991416929999 36.975234985349999 0.99999999999859723 3.6900734312972197e-08 1.6745681059793631e-06 1.6745680948565851e-06 3.0142227113894764e-07 -0.99999999999855249 -3.6901239065040465e-08 0.99999999999995393 3.0142220934573246e-07 
1 34.971705198288745 15.499998927116247 7.6330261230469993 -3.6900909641430808e-08 0.99999999999999389 1.0470067263542642e-07 7.8886090522101181e-31 -1.0470067263542651e-07 0.99999999999999467 0.99999999999999933 3.6900909641430603e-08 3.8635500603168991e-15 
Triangulations 0

TShapes 44
Ve
0.003
11.43078041077 15.5 8.5
0 0

0101101
*
Ed
 0.003 1 1 0
1  1 0 0 2.5
0

0101000
+44 0 -44 1 *
Ve
0.003
26.04998779297 15.5 8.5
0 0

0101101
*
Ed
 0.003 1 1 0
1  2 0 0 2.5
0

0101000
+42 0 -42 1 *
Ed
 0.003 1 1 0
1  3 0 0 14.6192073822
0

0101000
+44 0 -42 0 *
Wi

0101000
+43 0 -41 0 -40 0 +40 1 *
Fa
0  0.003 1 0

0111000
+39 0 *
Ve
0.003
26.04999923706 15.5 -13.30000114441
0 0

0101101
*
Ed
 0.003 1 1 0
1  4 0 0 2.5
0

0101000
+37 0 -37 1 *
Ed
 0.003 1 1 0
1  5 0 0 21.800001144413
0

0101000
+42 0 -37 0 *
Wi

0101000
+41 0 -36 0 -35 0 +35 1 *
Fa
0  0.003 2 0

0111000
+34 0 *
Ve
0.003
57.54997634888 15.5 -13.3000125885
0 0

0101101
*
Ed
 0.003 1 1 0
1  6 0 0 2.5
0

0101000
+32 0 -32 1 *
Ed
 0.003 1 1 0
1  7 0 0 31.4999771118221
0

0101000
+37 0 -32 0 *
Wi

0101000
+36 0 -31 0 -30 0 +30 1 *
Fa
0  0.003 3 0

0111000
+29 0 *
Ve
0.003
57.54997634888 15.5 5.480293273926
0 0

0101101
*
Ed
 0.003 1 1 0
1  8 0 0 2.5
0

0101000
+27 0 -27 1 *
Ed
 0.003 1 1 0
1  9 0 0 18.780305862426
0

0101000
+32 0 -27 0 *
Wi

0101000
+31 0 -26 0 -25 0 +25 1 *
Fa
0  0.003 4 0

0111000
+24 0 *
Ve
0.003
47.22284698486 15.5 15.49910736084
0 0

0101101
*
Ed
 0.003 1 1 0
1  10 0 0 2.5
0

0101000
+22 0 -22 1 *
Ed
 0.003 1 1 0
1  11 0 0 14.3884063262528
0

0101000
+27 0 -22 0 *
Wi

0101000
+26 0 -21 0 -20 0 +20 1 *
Fa
0  0.003 5 0

0111000
+19 0 *
Ve
0.003
42.48934173584 15.5 12.70958709717
0 0

0101101
*
Ed
 0.003 1 1 0
1  12 0 0 2.5
0

0101000
+17 0 -17 1 *
Ed
 0.003 1 1 0
1  13 0 0 5.49431481114119
0

0101000
+22 0 -17 0 *
Wi

0101000
+21 0 -16 0 -15 0 +15 1 *
Fa
0  0.003 6 0

0111000
+14 0 *
Ve
0.003
11.43073272705 15.49999141693 36.97523498535
0 0

0101101
*
Ed
 0.003 1 1 0
1  14 0 0 2.5
0

0101000
+12 0 -12 1 *
Ed
 0.003 1 1 0
1  15 0 0 39.413942469564
0

0101000
+17 0 -12 0 *
Wi

0101000
+16 0 -11 0 -10 0 +10 1 *
Fa
0  0.003 7 0

0111000
+9 0 *
Ed
 0.003 1 1 0
1  16 0 0 28.4752349853912
0

0101000
+12 0 -44 0 *
Wi

0101000
+11 0 -43 0 -7 0 +7 1 *
Fa
0  0.003 8 0

0111000
+6 0 *
Wi

0101100
+40 0 +35 0 +30 0 +25 0 +20 0 +15 0 +10 0 +7 0 *
Fa
0  0.003 9 0

0111100
-4 0 *
Sh

0101000
-38 0 -33 0 -28 0 -23 0 -18 0 -13 0 -8 0 -5 0 +3 0 -3 1 
*
So

1100000
+2 0 *

+1 0 
0

