DBRep_DrawableShape

CASCADE Topology V1, (c) Matra-Datavision
Locations 2
1
              1               0               0  13.62432861332 
              0               1               0 -1.63041166310919e-13 
              0               0               1 -3.22102495289422e-14 
1
              1               0               0 -3.13590565283496e-05 
              0               1               0 14.0000000000649 
              0               0               1 -9.07687325729039e-14 
Curve2ds 0
Curves 14
1 33.598518371579999 7.9999694824220002 2 1 -1.196691381559306e-14 -2.3641715084185079e-15 
1 33.598518371579999 7.9999694824220002 15.49910736084 1 -1.196691381559306e-14 -2.3641715084185079e-15 
1 33.598518371579999 7.9999694824220002 2 0 0 1 
1 33.598518371579999 14 15.49910736084 1 -1.196691381559306e-14 -2.3641715084185079e-15 
1 33.598518371579999 7.9999694824220002 15.49910736084 0 1 0 
1 33.598518371579999 14 2 1 -1.196691381559306e-14 -2.3641715084185079e-15 
1 33.598518371579999 14 15.49910736084 0 0 -1 
1 33.598518371579999 14 2 0 -1 0 
1 33.598518371579999 7.9999694824220002 7.4701004028320002 -2.2399326091518323e-06 0.99999999999749145 -6.4834808980182521e-15 
1 33.598518371579999 7.9999694824220002 15.49910736084 -2.2399326091518323e-06 0.99999999999749145 -6.4834808980182521e-15 
1 33.598518371579999 7.9999694824220002 7.4701004028320002 0 0 1 
1 47.222846984859999 8 15.49910736084 -2.2399326091518323e-06 0.99999999999749145 -6.4834808980182521e-15 
1 33.598518371579999 7.9999694824220002 15.49910736084 0.99999999999749134 2.2399326136294145e-06 0 
1 47.222846984859999 8 15.49910736084 -0.86152782001078854 -1.9297642615960583e-06 -0.50771036560595673 
Polygon3D 0
PolygonOnTriangulations 0
Surfaces 9
1 33.598518371579999 7.9999694824220002 2 -1.196691381559306e-14 -1 0 0 0 1 -1 1.196691381559306e-14 0 
1 33.598518371579999 7.9999694824220002 15.49910736084 2.3641715084185079e-15 -0 1 0 1 0 -1 0 2.3641715084185079e-15 
1 33.598518371579999 14 15.49910736084 1.196691381559306e-14 1 0 0 0 -1 -1 1.196691381559306e-14 0 
1 33.598518371579999 14 2 -2.3641715084185079e-15 -0 -1 0 -1 0 -1 0 2.3641715084185079e-15 
1 33.598518371579992 10.999984741211 8.74955368042 1 -1.196691381559306e-14 -2.3641715084185079e-15 1.196691381559306e-14 1 0 2.3641715084185079e-15 -2.8291836686524925e-29 1 
1 33.598518371579999 7.9999694824220002 7.4701004028320002 0.99999999999749145 2.2399326091518323e-06 -0 0 0 1 2.2399326091518323e-06 -0.99999999999749145 0 
1 33.598518371579999 7.9999694824220002 15.49910736084 1.4522560313314406e-20 -6.4834808980019873e-15 -1 0.99999999999749134 2.2399326136294145e-06 -3.009265538105056e-36 2.2399326136294145e-06 -0.99999999999749134 6.4834808980182521e-15 
1 47.222846984859999 8 15.49910736084 -0.50771036560468308 -1.1372369983394822e-06 0.86152782001294981 -0.86152782001078865 -1.9297642615960588e-06 -0.50771036560595684 2.2399326096393116e-06 -0.99999999999749134 6.7707593461849075e-15 
1 38.139961242673337 7.9999796549480005 12.822771708170665 -2.2399326091518323e-06 0.99999999999749134 -6.4834808980182505e-15 0.99999999999749134 2.2399326091518323e-06 0 1.4522560284284085e-20 -6.4834808980019857e-15 -1 
Triangulations 0

TShapes 44
Ve
0.003
33.59851837158 7.999969482422 2
0 0

0101101
*
Ed
 0.003 1 1 0
1  1 0 0 13.62432861332
0

0101000
+44 0 -44 1 *
Ve
0.003
33.59851837158 7.999969482422 15.49910736084
0 0

0101101
*
Ed
 0.003 1 1 0
1  2 0 0 13.62432861332
0

0101000
+42 0 -42 1 *
Ed
 0.003 1 1 0
1  3 0 0 13.49910736084
0

0101000
+44 0 -42 0 *
Wi

0101000
+43 0 -41 0 -40 0 +40 1 *
Fa
0  0.003 1 0

0111000
+39 0 *
Ve
0.003
33.59851837158 14 15.49910736084
0 0

0101101
*
Ed
 0.003 1 1 0
1  4 0 0 13.62432861332
0

0101000
+37 0 -37 1 *
Ed
 0.003 1 1 0
1  5 0 0 6.000030517578
0

0101000
+42 0 -37 0 *
Wi

0101000
+41 0 -36 0 -35 0 +35 1 *
Fa
0  0.003 2 0

0111000
+34 0 *
Ve
0.003
33.59851837158 14 2
0 0

0101101
*
Ed
 0.003 1 1 0
1  6 0 0 13.62432861332
0

0101000
+32 0 -32 1 *
Ed
 0.003 1 1 0
1  7 0 0 13.49910736084
0

0101000
+37 0 -32 0 *
Wi

0101000
+36 0 -31 0 -30 0 +30 1 *
Fa
0  0.003 3 0

0111000
+29 0 *
Ed
 0.003 1 1 0
1  8 0 0 6.000030517578
0

0101000
+32 0 -44 0 *
Wi

0101000
+31 0 -43 0 -27 0 +27 1 *
Fa
0  0.003 4 0

0111000
+26 0 *
Wi

0101100
+40 0 +35 0 +30 0 +27 0 *
Fa
0  0.003 5 0

0111100
-24 0 *
Sh

0101000
-38 0 -33 0 -28 0 -25 0 +23 0 -23 1 *
So

0100000
-22 0 *
Ve
0.003
33.59851837158 7.999969482422 7.470100402832
0 0

0101101
*
Ed
 0.003 1 1 0
1  9 0 0 14.0000000001
0

0101000
+20 0 -20 2 *
Ve
0.003
33.59851837158 7.999969482422 15.49910736084
0 0

0101101
*
Ed
 0.003 1 1 0
1  10 0 0 14.0000000001
0

0101000
+18 0 -18 2 *
Ed
 0.003 1 1 0
1  11 0 0 8.029006958008
0

0101000
+20 0 -18 0 *
Wi

0101000
+19 0 -17 0 -16 0 +16 2 *
Fa
0  0.003 6 0

0111000
+15 0 *
Ve
0.003
47.22284698486 8 15.49910736084
0 0

0101101
*
Ed
 0.003 1 1 0
1  12 0 0 14.0000000001
0

0101000
+13 0 -13 2 *
Ed
 0.003 1 1 0
1  13 0 0 13.6243286133142
0

0101000
+18 0 -13 0 *
Wi

0101000
+17 0 -12 0 -11 0 +11 2 *
Fa
0  0.003 7 0

0111000
+10 0 *
Ed
 0.003 1 1 0
1  14 0 0 15.8141481874716
0

0101000
+13 0 -20 0 *
Wi

0101000
+12 0 -19 0 -8 0 +8 2 *
Fa
0  0.003 8 0

0111000
+7 0 *
Wi

0101100
+16 0 +11 0 +8 0 *
Fa
0  0.003 9 0

0111100
+5 0 *
Sh

0101000
+14 0 +9 0 +6 0 +4 0 -4 2 *
So

0100000
-3 0 *
Co

1100000
+21 0 +2 0 *

+1 0 
0

