DBRep_DrawableShape

CASCADE Topology V1, (c) Matra-Datavision
Locations 1
1
              1               0               0              25 
              0               1               0 -9.58657779664615e-14 
              0               0               1 -1.26668528723092e-15 
Curve2ds 0
Curves 8
1 20 2.2499990463259998 0.70000040531160002 1 -3.8346311186584611e-15 -5.0667411489236704e-17 
1 20 11.25 0.69999891519549995 1 -3.8346311186584611e-15 -5.0667411489236704e-17 
1 20 2.2499990463259998 0.70000040531160002 0 0.99999999999998634 -1.6556843801872778e-07 
1 20 11.60675239563 -12.79997634888 1 -3.8346311186584611e-15 -5.0667411489236704e-17 
1 20 11.25 0.69999891519549995 0 0.026416929391174345 -0.99965101202446738 
1 20 2.2499990463259998 -12.79997634888 1 -3.8346311186584611e-15 -5.0667411489236704e-17 
1 20 11.60675239563 -12.79997634888 0 -1 0 
1 20 2.2499990463259998 -12.79997634888 0 0 1 
Polygon3D 0
PolygonOnTriangulations 0
Surfaces 5
1 20 2.2499990463259998 0.70000040531160002 5.0668046383120709e-17 1.6556843801872778e-07 0.99999999999998634 0 0.99999999999998634 -1.6556843801872778e-07 -1 8.3890292971137454e-24 5.0668046383120019e-17 
1 20 11.25 0.69999891519549995 3.8346313559391905e-15 0.99965101202446738 0.026416929391174345 1.2325951644078307e-32 0.026416929391174345 -0.99965101202446738 -1 3.8332931157053669e-15 1.0129918577102869e-16 
1 20 11.60675239563 -12.79997634888 -5.0667411489236704e-17 -0 -1 0 -1 0 -1 0 5.0667411489236704e-17 
1 20 2.2499990463259998 -12.79997634888 -3.8346311186584611e-15 -1 0 0 0 1 -1 3.8346311186584611e-15 0 
1 20 6.8391876220704981 -6.049988344313225 1 -3.8346311186584611e-15 -5.0667411489236697e-17 3.8346311186584611e-15 1 0 5.0667411489236697e-17 -1.9429083279850029e-31 1 
Triangulations 0

TShapes 25
Ve
0.003
20 2.249999046326 0.7000004053116
0 0

0101101
*
Ed
 0.003 1 1 0
1  1 0 0 25
0

0101000
+25 0 -25 1 *
Ve
17.8729674095301
20 11.25 0.6999989151955
0 0

0101101
*
Ed
 0.003 1 1 0
1  2 0 0 25
0

0101000
+23 0 -23 1 *
Ed
 0.003 1 1 0
1  3 0 0 9.00000095367412
0

0101000
+25 0 -23 0 *
Wi

0101000
+24 0 -22 0 -21 0 +21 1 *
Fa
0  0.003 1 0

0111000
+20 0 *
Ve
0.003
20 11.60675239563 -12.79997634888
0 0

0101101
*
Ed
 0.003 1 1 0
1  4 0 0 25
0

0101000
+18 0 -18 1 *
Ed
 0.003 1 1 0
1  5 0 0 13.5046882378838
0

0101000
+23 0 -18 0 *
Wi

0101000
+22 0 -17 0 -16 0 +16 1 *
Fa
0  0.003 2 0

0111000
+15 0 *
Ve
0.003
20 2.249999046326 -12.79997634888
0 0

0101101
*
Ed
 0.003 1 1 0
1  6 0 0 25
0

0101000
+13 0 -13 1 *
Ed
 0.003 1 1 0
1  7 0 0 9.356753349304
0

0101000
+18 0 -13 0 *
Wi

0101000
+17 0 -12 0 -11 0 +11 1 *
Fa
0  0.003 3 0

0111000
+10 0 *
Ed
 0.003 1 1 0
1  8 0 0 13.4999767541916
0

0101000
+13 0 -25 0 *
Wi

0101000
+12 0 -24 0 -8 0 +8 1 *
Fa
0  0.003 4 0

0111000
+7 0 *
Wi

0101100
+21 0 +16 0 +11 0 +8 0 *
Fa
0  0.003 5 0

0111100
-5 0 *
Sh

0101000
-19 0 -14 0 -9 0 -6 0 +4 0 -4 1 *
So

0100000
-3 0 *
Co

1100000
+2 0 *

+1 0 
0

