DBRep_DrawableShape

CASCADE Topology V1, (c) Matra-Datavision
Locations 0
Curve2ds 44
1 1.5707963267948966 0 0 -1 
1 0 -10 1 0 
2 32 -1.5933435126846973e-15 -1.1102230246251565e-16 -1 -1 1.1102230246251565e-16 32
1 2.0444011647787681 0 0 -1 
1 2.0552576348781395 0 0 -1 
1 0 0 1 0 
1 0 -10 1 0 
2 7.5047360195516148 12.499148828569558 -1.1102230246251565e-16 -1 -1 1.1102230246251565e-16 4.5003689948065659
1 5.1968502884679317 0 0 -1 
1 2.0401527031572164 0 0 -1 
1 0 0 1 0 
1 1.5707963267948966 0 0 -1 
1 0 0 1 0 
2 32 -1.5933435126846973e-15 -1.1102230246251565e-16 -1 -1 1.1102230246251565e-16 23
1 0 -10 1 0 
1 3.1415926535897931 0 0 -1 
1 12 8.558691949600572e-16 -1 1.2246063538223773e-16 
1 1.5707963267948966 0 0 -1 
1 0 0 1 0 
2 32 -1.5933435126846973e-15 1 0 0 1 20
1 0 -10 1 0 
1 1.5707963267948966 0 0 -1 
1 32 35 -1.4287074127927735e-16 -1 
1 0 -10 1 0 
2 32 -1.5933435126846973e-15 1 0 0 1 23
1 2.0401527031572164 0 0 -1 
1 5.1968502884679317 0 0 -1 
1 0 0 1 0 
1 2.0552576348781395 0 0 -1 
1 2.0444011647787681 0 0 -1 
1 0 0 1 0 
2 19.500851171430444 24.495263980448385 1 0 0 1 4.5003689948065659
1 0 -10 1 0 
1 1.5707963267948966 0 0 -1 
1 0 0 1 0 
2 32 -1.5933435126846973e-15 1 0 0 1 32
1 0 -10 1 0 
1 1.5707963267948966 0 0 -1 
1 32 35 -1.4287074127927735e-16 -1 
1 0 -10 1 0 
2 32 -1.5933435126846973e-15 1 0 0 1 35
1 3.1415926535897931 0 0 -1 
1 0 0 1 0 
1 12 8.558691949600572e-16 -1 1.2246063538223773e-16 
Curves 36
1 -32 -2.7560419224581523e-15 0 0 0 1 
2 0 0 10 0 0 1 -1.1102230246251565e-16 1 0 -1 -1.1102230246251565e-16 0 32
1 -28.477757348876654 -14.595113441782559 0 0 0 1 
2 0 0 0 0 0 1 -1.1102230246251565e-16 1 0 -1 -1.1102230246251565e-16 0 32
2 -24.495263980448385 -12.49914882856956 10 0 0 1 -1.1102230246251565e-16 1 0 -1 -1.1102230246251565e-16 0 4.5003689948065659
1 -20.512770612020113 -10.403184215356564 0 0 0 1 
2 -24.495263980448385 -12.49914882856956 0 0 0 1 -1.1102230246251565e-16 1 0 -1 -1.1102230246251565e-16 0 4.5003689948065659
1 -23 -1.9809051317667969e-15 0 0 0 1 
2 0 0 0 0 0 1 -1.1102230246251565e-16 1 0 -1 -1.1102230246251565e-16 0 23
2 0 0 10 0 0 1 -1.1102230246251565e-16 1 0 -1 -1.1102230246251565e-16 0 23
1 -20 -2.4492127076447545e-15 0 0 0 1 
1 -20 -2.4492127076447545e-15 0 -1 -1.2246063538223773e-16 0 
1 -20 -2.4492127076447545e-15 10 -1 -1.2246063538223773e-16 0 
1 6.1230317691118863e-16 -20 0 0 0 1 
2 0 0 0 0 0 -1 1 0 0 0 -1 0 20
2 0 0 10 0 0 -1 1 0 0 0 -1 0 20
1 9.1845476536678294e-16 -23 0 0 0 1 
1 2.1430611191891602e-15 -35 0 -1.4287074127927735e-16 1 0 
1 2.1430611191891602e-15 -35 10 -1.4287074127927735e-16 1 0 
2 0 0 10 0 0 -1 1 0 0 0 -1 0 23
1 -10.403184215356561 -20.512770612020113 0 0 0 1 
2 0 0 0 0 0 -1 1 0 0 0 -1 0 23
1 -14.595113441782555 -28.477757348876654 0 0 0 1 
2 -12.499148828569556 -24.495263980448385 0 0 0 -1 1 0 0 0 -1 0 4.5003689948065659
2 -12.499148828569556 -24.495263980448385 10 0 0 -1 1 0 0 0 -1 0 4.5003689948065659
1 1.8369095307335659e-15 -32 0 0 0 1 
2 0 0 0 0 0 -1 1 0 0 0 -1 0 32
2 0 0 10 0 0 -1 1 0 0 0 -1 0 32
1 2.1430611191891602e-15 -35 0 0 0 1 
1 2.1430611191891602e-15 -35 0 -1.4287074127927735e-16 1 0 
1 2.1430611191891602e-15 -35 10 -1.4287074127927735e-16 1 0 
2 0 0 10 0 0 -1 1 0 0 0 -1 0 35
1 -35 -4.2861222383783204e-15 0 0 0 1 
2 0 0 0 0 0 -1 1 0 0 0 -1 0 35
1 -20 -2.4492127076447545e-15 0 -1 -1.2246063538223773e-16 0 
1 -20 -2.4492127076447545e-15 10 -1 -1.2246063538223773e-16 0 
Polygon3D 0
PolygonOnTriangulations 72
2 1 2 
p 0.151534908841095 1 0 10 
2 1 2 
p 0.151534908841095 1 0 10 
4 2 4 5 3 
p 0.151534908841095 1 1.5707963267949 1.72866460612286 1.88653288545081 2.04440116477877 
4 1 2 3 4 
p 0.151534908841095 1 1.5707963267949 1.72866460612286 1.88653288545081 2.04440116477877 
2 6 3 
p 0.151534908841095 1 0 10 
2 1 2 
p 0.151534908841095 1 0 10 
4 1 7 8 6 
p 0.151534908841095 1 1.5707963267949 1.72866460612286 1.88653288545081 2.04440116477877 
4 1 2 3 4 
p 0.151534908841095 1 1.5707963267949 1.72866460612286 1.88653288545081 2.04440116477877 
18 2 4 5 6 7 8 9 10 11 12 13 14 15 16 17 18 19 3 
p 0.151534908841095 1 2.05525763487814 2.24005720273636 2.42485677059459 2.60965633845281 2.79445590631103 2.97925547416926 3.16405504202748 3.3488546098857 3.53365417774392 3.71845374560215 3.90325331346037 4.08805288131859 4.27285244917682 4.45765201703504 4.64245158489326 4.82725115275148 5.01205072060971 5.19685028846793 
18 4 55 56 57 58 59 60 61 62 63 64 65 66 67 68 69 70 54 
p 0.151534908841095 1 2.05525763487814 2.24005720273636 2.42485677059459 2.60965633845281 2.79445590631103 2.97925547416926 3.16405504202748 3.3488546098857 3.53365417774392 3.71845374560215 3.90325331346037 4.08805288131859 4.27285244917682 4.45765201703504 4.64245158489326 4.82725115275148 5.01205072060971 5.19685028846793 
2 20 3 
p 0.151534908841095 1 0 10 
2 3 6 
p 0.151534908841095 1 0 10 
18 1 21 22 23 24 25 26 27 28 29 30 31 32 33 34 35 36 20 
p 0.151534908841095 1 2.05525763487814 2.24005720273636 2.42485677059459 2.60965633845281 2.79445590631103 2.97925547416926 3.16405504202748 3.3488546098857 3.53365417774392 3.71845374560215 3.90325331346037 4.08805288131859 4.27285244917682 4.45765201703504 4.64245158489326 4.82725115275148 5.01205072060971 5.19685028846793 
18 4 5 6 7 8 9 10 11 12 13 14 15 16 17 18 19 20 21 
p 0.151534908841095 1 2.05525763487814 2.24005720273636 2.42485677059459 2.60965633845281 2.79445590631103 2.97925547416926 3.16405504202748 3.3488546098857 3.53365417774392 3.71845374560215 3.90325331346037 4.08805288131859 4.27285244917682 4.45765201703504 4.64245158489326 4.82725115275148 5.01205072060971 5.19685028846793 
2 1 2 
p 0.151534908841095 1 0 10 
2 3 4 
p 0.151534908841095 1 0 10 
4 1 4 5 3 
p 0.151534908841095 1 1.5707963267949 1.72724845224901 1.88370057770311 2.04015270315722 
4 22 23 24 21 
p 0.151534908841095 1 1.5707963267949 1.72724845224901 1.88370057770311 2.04015270315722 
4 2 7 8 6 
p 0.151534908841095 1 1.5707963267949 1.72724845224901 1.88370057770311 2.04015270315722 
4 51 52 53 54 
p 0.151534908841095 1 1.5707963267949 1.72724845224901 1.88370057770311 2.04015270315722 
2 3 12 
p 0.151534908841095 1 0 10 
2 1 2 
p 0.151534908841095 1 0 10 
2 1 3 
p 0.151534908841095 1 0 3 
2 25 22 
p 0.151534908841095 1 0 3 
2 2 4 
p 0.151534908841095 1 0 3 
2 50 51 
p 0.151534908841095 1 0 3 
2 1 2 
p 0.151534908841095 1 0 10 
2 3 4 
p 0.151534908841095 1 0 10 
10 1 4 5 6 7 8 9 10 11 3 
p 0.151534908841095 1 1.5707963267949 1.74532925199433 1.91986217719376 2.0943951023932 2.26892802759263 2.44346095279206 2.61799387799149 2.79252680319093 2.96705972839036 3.14159265358979 
10 26 27 28 29 30 31 32 33 34 25 
p 0.151534908841095 1 1.5707963267949 1.74532925199433 1.91986217719376 2.0943951023932 2.26892802759263 2.44346095279206 2.61799387799149 2.79252680319093 2.96705972839036 3.14159265358979 
10 2 13 14 15 16 17 18 19 20 12 
p 0.151534908841095 1 1.5707963267949 1.74532925199433 1.91986217719376 2.0943951023932 2.26892802759263 2.44346095279206 2.61799387799149 2.79252680319093 2.96705972839036 3.14159265358979 
10 41 42 43 44 45 46 47 48 49 50 
p 0.151534908841095 1 1.5707963267949 1.74532925199433 1.91986217719376 2.0943951023932 2.26892802759263 2.44346095279206 2.61799387799149 2.79252680319093 2.96705972839036 3.14159265358979 
2 1 2 
p 0.151534908841095 1 0 10 
2 1 2 
p 0.151534908841095 1 0 10 
2 1 3 
p 0.151534908841095 1 12 15 
2 35 26 
p 0.151534908841095 1 12 15 
2 2 4 
p 0.151534908841095 1 12 15 
2 38 41 
p 0.151534908841095 1 12 15 
4 2 4 5 3 
p 0.151534908841095 1 1.5707963267949 1.72724845224901 1.88370057770311 2.04015270315722 
4 38 39 40 37 
p 0.151534908841095 1 1.5707963267949 1.72724845224901 1.88370057770311 2.04015270315722 
2 6 3 
p 0.151534908841095 1 0 10 
2 3 20 
p 0.151534908841095 1 0 10 
4 1 7 8 6 
p 0.151534908841095 1 1.5707963267949 1.72724845224901 1.88370057770311 2.04015270315722 
4 35 36 37 38 
p 0.151534908841095 1 1.5707963267949 1.72724845224901 1.88370057770311 2.04015270315722 
2 1 2 
p 0.151534908841095 1 0 10 
2 3 6 
p 0.151534908841095 1 0 10 
18 1 4 5 6 7 8 9 10 11 12 13 14 15 16 17 18 19 3 
p 0.151534908841095 1 2.05525763487814 2.24005720273636 2.42485677059459 2.60965633845281 2.79445590631103 2.97925547416926 3.16405504202748 3.3488546098857 3.53365417774392 3.71845374560215 3.90325331346037 4.08805288131859 4.27285244917682 4.45765201703504 4.64245158489326 4.82725115275148 5.01205072060971 5.19685028846793 
18 39 40 41 42 43 44 45 46 47 48 49 50 51 52 53 54 55 38 
p 0.151534908841095 1 2.05525763487814 2.24005720273636 2.42485677059459 2.60965633845281 2.79445590631103 2.97925547416926 3.16405504202748 3.3488546098857 3.53365417774392 3.71845374560215 3.90325331346037 4.08805288131859 4.27285244917682 4.45765201703504 4.64245158489326 4.82725115275148 5.01205072060971 5.19685028846793 
18 2 21 22 23 24 25 26 27 28 29 30 31 32 33 34 35 36 20 
p 0.151534908841095 1 2.05525763487814 2.24005720273636 2.42485677059459 2.60965633845281 2.79445590631103 2.97925547416926 3.16405504202748 3.3488546098857 3.53365417774392 3.71845374560215 3.90325331346037 4.08805288131859 4.27285244917682 4.45765201703504 4.64245158489326 4.82725115275148 5.01205072060971 5.19685028846793 
18 20 21 22 23 24 25 26 27 28 29 30 31 32 33 34 35 36 37 
p 0.151534908841095 1 2.05525763487814 2.24005720273636 2.42485677059459 2.60965633845281 2.79445590631103 2.97925547416926 3.16405504202748 3.3488546098857 3.53365417774392 3.71845374560215 3.90325331346037 4.08805288131859 4.27285244917682 4.45765201703504 4.64245158489326 4.82725115275148 5.01205072060971 5.19685028846793 
2 1 2 
p 0.151534908841095 1 0 10 
2 3 4 
p 0.151534908841095 1 0 10 
4 1 4 5 3 
p 0.151534908841095 1 1.5707963267949 1.72866460612286 1.88653288545081 2.04440116477877 
4 56 57 58 39 
p 0.151534908841095 1 1.5707963267949 1.72866460612286 1.88653288545081 2.04440116477877 
4 2 7 8 6 
p 0.151534908841095 1 1.5707963267949 1.72866460612286 1.88653288545081 2.04440116477877 
4 17 18 19 20 
p 0.151534908841095 1 1.5707963267949 1.72866460612286 1.88653288545081 2.04440116477877 
2 1 2 
p 0.151534908841095 1 0 10 
2 1 2 
p 0.151534908841095 1 0 10 
2 1 3 
p 0.151534908841095 1 0 3 
2 59 56 
p 0.151534908841095 1 0 3 
2 2 4 
p 0.151534908841095 1 0 3 
2 6 17 
p 0.151534908841095 1 0 3 
12 2 4 5 6 7 8 9 10 11 12 13 3 
p 0.151534908841095 1 1.5707963267949 1.71359599286716 1.85639565893943 1.99919532501169 2.14199499108395 2.28479465715621 2.42759432322848 2.57039398930074 2.713193655373 2.85599332144527 2.99879298751753 3.14159265358979 
12 6 7 8 9 10 11 12 13 14 15 16 5 
p 0.151534908841095 1 1.5707963267949 1.71359599286716 1.85639565893943 1.99919532501169 2.14199499108395 2.28479465715621 2.42759432322848 2.57039398930074 2.713193655373 2.85599332144527 2.99879298751753 3.14159265358979 
2 14 3 
p 0.151534908841095 1 0 10 
2 3 4 
p 0.151534908841095 1 0 10 
12 1 15 16 17 18 19 20 21 22 23 24 14 
p 0.151534908841095 1 1.5707963267949 1.71359599286716 1.85639565893943 1.99919532501169 2.14199499108395 2.28479465715621 2.42759432322848 2.57039398930074 2.713193655373 2.85599332144527 2.99879298751753 3.14159265358979 
12 59 60 61 62 63 64 65 66 67 68 69 70 
p 0.151534908841095 1 1.5707963267949 1.71359599286716 1.85639565893943 1.99919532501169 2.14199499108395 2.28479465715621 2.42759432322848 2.57039398930074 2.713193655373 2.85599332144527 2.99879298751753 3.14159265358979 
2 1 3 
p 0.151534908841095 1 12 15 
2 1 70 
p 0.151534908841095 1 12 15 
2 2 4 
p 0.151534908841095 1 12 15 
2 1 5 
p 0.151534908841095 1 12 15 
Surfaces 14
2 0 0 0 0 0 -1 -1.1102230246251565e-16 1 0 -1 -1.1102230246251565e-16 0 32
1 -32 -1.5933435126846973e-15 10 0 0 1 1 0 0 0 -1 0 
2 -24.495263980448385 -12.49914882856956 0 0 0 -1 -1.1102230246251565e-16 1 0 -1 -1.1102230246251565e-16 0 4.5003689948065659
1 -32 -1.5933435126846973e-15 0 0 0 1 1 0 0 0 -1 0 
2 0 0 0 0 0 -1 -1.1102230246251565e-16 1 0 -1 -1.1102230246251565e-16 0 23
1 -20 -2.4492127076447545e-15 0 1.2246063538223773e-16 -1 0 -1 -1.2246063538223773e-16 0 0 0 -1 
2 0 0 0 0 0 -1 1 0 0 0 -1 0 20
1 4.2861222383783204e-16 -23 0 -1 -1.4287074127927735e-16 0 -1.4287074127927735e-16 1 0 0 0 -1 
2 0 0 0 0 0 -1 1 0 0 0 -1 0 23
2 -12.499148828569556 -24.495263980448385 0 0 0 -1 1 0 0 0 -1 0 4.5003689948065659
2 0 0 0 0 0 -1 1 0 0 0 -1 0 32
1 2.1430611191891602e-15 -35 0 -1 -1.4287074127927735e-16 0 -1.4287074127927735e-16 1 0 0 0 -1 
2 0 0 0 0 0 -1 1 0 0 0 -1 0 35
1 -32 -3.9187403322316072e-15 0 1.2246063538223773e-16 -1 0 -1 -1.2246063538223773e-16 0 0 0 -1 
Triangulations 14
8 6 1 0.0996378247453423
-32 -2.75604192245815e-15 0 -32 -2.75604192245815e-15 10 -28.4777573488767 -14.5951134417826 10 -31.6020691820261 -5.0308273091445 10 -30.4181735365979 -9.93653454165057 10 -28.4777573488767 -14.5951134417826 0 -31.6020691820261 -5.0308273091445 0 -30.4181735365979 -9.93653454165057 0 1.5707963267949 0 1.5707963267949 -10 2.04440116477877 -10 1.72866460612286 -10 1.88653288545081 -10 2.04440116477877 0 1.72866460612286 0 1.88653288545081 0 2 4 7 7 1 2 4 5 7 5 3 6 6 8 5 5 8 7 
4 2 1 7.75132273182305e-16
-32 -2.75604192245815e-15 0 -32 -2.75604192245815e-15 10 -35 -4.28612223837832e-15 0 -35 -4.28612223837832e-15 10 0 0 0 -10 3 0 3 -10 1 2 4 4 3 1 
71 70 1 0
-32 -2.75604192245815e-15 10 -31.6020691820261 -5.0308273091445 10 -30.4181735365979 -9.93653454165057 10 -28.4777573488767 -14.5951134417826 10 -35 -4.28612223837832e-15 10 2.14306111918916e-15 -35 10 -4.98101933956508 -34.6437504658326 10 -9.86063948945012 -33.5822540765074 10 -14.5395254550661 -31.8371198374081 10 -18.922428610946 -29.4438736490913 10 -22.920125688085 -26.451235102399 10 -26.451235102399 -22.920125688085 10 -29.4438736490913 -18.9224286109459 10 -31.8371198374081 -14.539525455066 10 -33.5822540765074 -9.86063948945008 10 -34.6437504658326 -4.98101933956504 10 1.83690953073357e-15 -32 10 -5.0308273091445 -31.6020691820261 10 -9.93653454165057 -30.4181735365979 10 -14.5951134417826 -28.4777573488767 10 -15.2912068974037 -28.0248153442444 10 -15.8922201641952 -27.4516787011484 10 -16.3776864561926 -26.7778649005675 10 -16.7310738010743 -26.0263198633301 10 -16.940348016652 -25.2226365543002 10 -16.9983825205109 -24.3941834446551 10 -16.9032010172267 -23.5691725114236 10 -16.6580447987362 -22.7756985124456 10 -16.2712623660276 -22.0407822530888 10 -15.7560251309524 -21.389450425131 10 -15.1298788795921 -20.8438833527867 10 -14.4141462715572 -20.4226596683691 10 -13.6332007223876 -20.1401236392488 10 -12.8136363961194 -20.005896691033 10 -11.9833625729245 -20.0245497614556 10 -11.1706532320482 -20.1954476425754 10 -10.4031842153566 -20.5127706120201 10 9.18454765366783e-16 -23 10 -3.58373701236511 -22.7190851274034 10 -7.07993271809988 -21.8832025240178 10 6.12303176911189e-16 -20 10 -3.47296355333866 -19.6961550602442 10 -6.84040286651342 -18.7938524157182 10 -10 -17.3205080756888 10 -12.8557521937308 -15.3208888623795 10 -15.3208888623796 -12.8557521937308 10 -17.3205080756888 -10 10 -18.7938524157182 -6.84040286651339 10 -19.6961550602442 -3.47296355333864 10 -20 -2.44921270764475e-15 10 -23 -1.9809051317668e-15 10 -22.7190851274034 -3.58373701236512 10 -21.8832025240178 -7.07993271809988 10 -20.5127706120201 -10.4031842153566 10 -28.0248153442444 -15.2912068974037 10 -27.4516787011484 -15.8922201641952 10 -26.7778649005675 -16.3776864561926 10 -26.0263198633301 -16.7310738010743 10 -25.2226365543002 -16.940348016652 10 -24.3941834446551 -16.9983825205109 10 -23.5691725114236 -16.9032010172267 10 -22.7756985124456 -16.6580447987362 10 -22.0407822530888 -16.2712623660276 10 -21.389450425131 -15.7560251309524 10 -20.8438833527867 -15.1298788795921 10 -20.4226596683691 -14.4141462715572 10 -20.1401236392488 -13.6332007223876 10 -20.005896691033 -12.8136363961194 10 -20.0245497614556 -11.9833625729245 10 -20.1954476425754 -11.1706532320482 10 -17.5 -17.5 10 0 1.13686837721616e-13 0.397930817973865 5.0308273091445 1.58182646340209 9.93653454165057 3.52224265112337 14.5951134417826 -3 2.69277872569362e-15 31.9999999999999 35 27.0189806604349 34.6437504658326 22.1393605105499 33.5822540765074 17.4604745449339 31.8371198374081 13.077571389054 29.4438736490913 9.079874311915 26.451235102399 5.54876489760095 22.920125688085 2.55612635090866 18.9224286109459 0.162880162591868 14.539525455066 -1.5822540765074 9.86063948945008 -2.64375046583264 4.98101933956504 32 32 26.9691726908555 31.6020691820261 22.0634654583494 30.4181735365979 17.4048865582174 28.4777573488766 16.7087931025963 28.0248153442444 16.1077798358048 27.4516787011484 15.6223135438074 26.7778649005675 15.2689261989257 26.0263198633301 15.059651983348 25.2226365543002 15.0016174794891 24.3941834446551 15.0967989827733 23.5691725114236 15.3419552012638 22.7756985124456 15.7287376339724 22.0407822530888 16.2439748690476 21.389450425131 16.8701211204079 20.8438833527867 17.5858537284428 20.4226596683691 18.3667992776124 20.1401236392488 19.1863636038806 20.005896691033 20.0166374270755 20.0245497614556 20.8293467679518 20.1954476425754 21.5968157846434 20.5127706120201 31.9999999999999 23 28.4162629876349 22.7190851274034 24.9200672819001 21.8832025240178 32 20 28.5270364466613 19.6961550602442 25.1595971334866 18.7938524157182 22 17.3205080756888 19.1442478062692 15.3208888623795 16.6791111376204 12.8557521937308 14.6794919243112 10 13.2061475842818 6.84040286651339 12.3038449397558 3.47296355333864 12 6.30283585739688e-14 9 1.22325110110677e-15 9.28091487259655 3.58373701236511 10.1167974759822 7.07993271809988 11.4872293879799 10.4031842153566 3.97518465575558 15.2912068974037 4.54832129885162 15.8922201641952 5.22213509943247 16.3776864561926 5.97368013666992 16.7310738010743 6.77736344569978 16.940348016652 7.60581655534492 16.9983825205109 8.43082748857636 16.9032010172267 9.22430148755445 16.6580447987362 9.95921774691116 16.2712623660276 10.610549574869 15.7560251309524 11.1561166472133 15.1298788795921 11.5773403316309 14.4141462715572 11.8598763607512 13.6332007223876 11.994103308967 12.8136363961194 11.9754502385444 11.9833625729245 11.8045523574246 11.1706532320482 14.5 17.5 16 5 1 52 51 50 15 16 2 2 3 15 16 1 2 14 15 3 52 49 53 49 52 50 49 48 53 53 48 54 47 70 54 47 68 69 67 71 66 69 70 47 46 67 68 14 4 55 14 3 4 14 55 13 13 55 56 13 57 58 57 13 56 12 58 59 58 12 13 12 59 60 71 62 63 71 64 65 64 71 63 62 12 61 11 62 28 11 12 62 10 11 24 61 12 60 71 65 66 54 48 47 67 46 71 46 68 47 46 45 71 71 45 33 30 29 71 32 31 71 33 32 71 30 71 31 45 34 33 71 29 28 44 43 37 40 42 39 43 42 40 35 34 44 44 37 36 37 43 40 35 44 36 42 41 39 44 34 45 25 11 26 27 11 28 11 27 26 22 10 23 21 20 9 21 9 10 21 10 22 25 24 11 19 18 8 38 39 41 9 20 19 9 19 8 7 17 6 7 8 18 17 7 18 23 10 24 71 28 62 
36 34 1 0.0191977807391406
-28.4777573488767 -14.5951134417826 0 -28.4777573488767 -14.5951134417826 10 -20.5127706120201 -10.4031842153566 10 -28.0248153442444 -15.2912068974037 10 -27.4516787011484 -15.8922201641952 10 -26.7778649005675 -16.3776864561926 10 -26.0263198633301 -16.7310738010743 10 -25.2226365543002 -16.940348016652 10 -24.3941834446551 -16.9983825205109 10 -23.5691725114236 -16.9032010172267 10 -22.7756985124456 -16.6580447987362 10 -22.0407822530888 -16.2712623660276 10 -21.389450425131 -15.7560251309524 10 -20.8438833527867 -15.1298788795921 10 -20.4226596683691 -14.4141462715572 10 -20.1401236392488 -13.6332007223876 10 -20.005896691033 -12.8136363961194 10 -20.0245497614556 -11.9833625729245 10 -20.1954476425754 -11.1706532320482 10 -20.5127706120201 -10.4031842153566 0 -28.0248153442444 -15.2912068974037 0 -27.4516787011484 -15.8922201641952 0 -26.7778649005675 -16.3776864561926 0 -26.0263198633301 -16.7310738010743 0 -25.2226365543002 -16.940348016652 0 -24.3941834446551 -16.9983825205109 0 -23.5691725114236 -16.9032010172267 0 -22.7756985124456 -16.6580447987362 0 -22.0407822530888 -16.2712623660276 0 -21.389450425131 -15.7560251309524 0 -20.8438833527867 -15.1298788795921 0 -20.4226596683691 -14.4141462715572 0 -20.1401236392488 -13.6332007223876 0 -20.005896691033 -12.8136363961194 0 -20.0245497614556 -11.9833625729245 0 -20.1954476425754 -11.1706532320482 0 2.05525763487814 0 2.05525763487814 -10 5.19685028846793 -10 2.24005720273636 -10 2.42485677059459 -10 2.60965633845281 -10 2.79445590631103 -10 2.97925547416926 -10 3.16405504202748 -10 3.3488546098857 -10 3.53365417774392 -10 3.71845374560215 -10 3.90325331346037 -10 4.08805288131859 -10 4.27285244917682 -10 4.45765201703504 -10 4.64245158489326 -10 4.82725115275148 -10 5.01205072060971 -10 5.19685028846793 0 2.24005720273636 0 2.42485677059459 0 2.60965633845281 0 2.79445590631103 0 2.97925547416926 0 3.16405504202748 0 3.3488546098857 0 3.53365417774392 0 3.71845374560215 0 3.90325331346037 0 4.08805288131859 0 4.27285244917682 0 4.45765201703504 0 4.64245158489326 0 4.82725115275148 0 5.01205072060971 0 2 4 21 5 6 23 4 5 22 7 8 25 9 10 27 10 11 28 8 9 26 6 7 24 21 1 2 23 22 5 21 4 22 25 24 7 27 26 9 28 27 10 25 8 26 23 6 24 11 12 28 12 13 30 14 15 32 13 14 31 16 17 34 18 19 36 19 3 36 17 18 35 15 16 33 30 29 12 32 31 14 30 13 31 34 33 16 36 35 18 20 36 3 34 17 35 32 15 33 12 29 28 
71 70 1 0
-32 -2.75604192245815e-15 0 -31.6020691820261 -5.0308273091445 0 -30.4181735365979 -9.93653454165057 0 -28.4777573488767 -14.5951134417826 0 -28.0248153442444 -15.2912068974037 0 -27.4516787011484 -15.8922201641952 0 -26.7778649005675 -16.3776864561926 0 -26.0263198633301 -16.7310738010743 0 -25.2226365543002 -16.940348016652 0 -24.3941834446551 -16.9983825205109 0 -23.5691725114236 -16.9032010172267 0 -22.7756985124456 -16.6580447987362 0 -22.0407822530888 -16.2712623660276 0 -21.389450425131 -15.7560251309524 0 -20.8438833527867 -15.1298788795921 0 -20.4226596683691 -14.4141462715572 0 -20.1401236392488 -13.6332007223876 0 -20.005896691033 -12.8136363961194 0 -20.0245497614556 -11.9833625729245 0 -20.1954476425754 -11.1706532320482 0 -20.5127706120201 -10.4031842153566 0 -23 -1.9809051317668e-15 0 -22.7190851274034 -3.58373701236512 0 -21.8832025240178 -7.07993271809988 0 -20 -2.44921270764475e-15 0 6.12303176911189e-16 -20 0 -3.47296355333866 -19.6961550602442 0 -6.84040286651342 -18.7938524157182 0 -10 -17.3205080756888 0 -12.8557521937308 -15.3208888623795 0 -15.3208888623796 -12.8557521937308 0 -17.3205080756888 -10 0 -18.7938524157182 -6.84040286651339 0 -19.6961550602442 -3.47296355333864 0 9.18454765366783e-16 -23 0 -3.58373701236511 -22.7190851274034 0 -7.07993271809988 -21.8832025240178 0 -10.4031842153566 -20.5127706120201 0 -14.5951134417826 -28.4777573488767 0 -15.2912068974037 -28.0248153442444 0 -15.8922201641952 -27.4516787011484 0 -16.3776864561926 -26.7778649005675 0 -16.7310738010743 -26.0263198633301 0 -16.940348016652 -25.2226365543002 0 -16.9983825205109 -24.3941834446551 0 -16.9032010172267 -23.5691725114236 0 -16.6580447987362 -22.7756985124456 0 -16.2712623660276 -22.0407822530888 0 -15.7560251309524 -21.389450425131 0 -15.1298788795921 -20.8438833527867 0 -14.4141462715572 -20.4226596683691 0 -13.6332007223876 -20.1401236392488 0 -12.8136363961194 -20.005896691033 0 -11.9833625729245 -20.0245497614556 0 -11.1706532320482 -20.1954476425754 0 1.83690953073357e-15 -32 0 -5.0308273091445 -31.6020691820261 0 -9.93653454165057 -30.4181735365979 0 2.14306111918916e-15 -35 0 -4.98101933956508 -34.6437504658326 0 -9.86063948945012 -33.5822540765074 0 -14.5395254550661 -31.8371198374081 0 -18.922428610946 -29.4438736490913 0 -22.920125688085 -26.451235102399 0 -26.451235102399 -22.920125688085 0 -29.4438736490913 -18.9224286109459 0 -31.8371198374081 -14.539525455066 0 -33.5822540765074 -9.86063948945008 0 -34.6437504658326 -4.98101933956504 0 -35 -4.28612223837832e-15 0 -17.5 -17.5 0 0 1.13686837721616e-13 0.397930817973865 5.0308273091445 1.58182646340209 9.93653454165057 3.52224265112337 14.5951134417826 3.97518465575558 15.2912068974037 4.54832129885162 15.8922201641952 5.22213509943247 16.3776864561926 5.97368013666992 16.7310738010743 6.77736344569978 16.940348016652 7.60581655534492 16.9983825205109 8.43082748857636 16.9032010172267 9.22430148755445 16.6580447987362 9.95921774691116 16.2712623660276 10.610549574869 15.7560251309524 11.1561166472133 15.1298788795921 11.5773403316309 14.4141462715572 11.8598763607512 13.6332007223876 11.994103308967 12.8136363961194 11.9754502385444 11.9833625729245 11.8045523574246 11.1706532320482 11.4872293879799 10.4031842153566 9 8.1264286749469e-14 9.28091487259655 3.58373701236511 10.1167974759822 7.07993271809988 12 8.55869194960057e-16 31.9999999999999 20 28.5270364466613 19.6961550602442 25.1595971334866 18.7938524157182 22 17.3205080756888 19.1442478062692 15.3208888623795 16.6791111376204 12.8557521937308 14.6794919243112 10 13.2061475842818 6.84040286651339 12.3038449397558 3.47296355333864 32 23 28.4162629876349 22.7190851274034 24.9200672819001 21.8832025240178 21.5968157846434 20.5127706120201 17.4048865582174 28.4777573488767 16.7087931025963 28.0248153442444 16.1077798358048 27.4516787011484 15.6223135438074 26.7778649005675 15.2689261989257 26.0263198633301 15.059651983348 25.2226365543002 15.0016174794891 24.3941834446551 15.0967989827733 23.5691725114236 15.3419552012638 22.7756985124456 15.7287376339724 22.0407822530888 16.2439748690476 21.389450425131 16.8701211204079 20.8438833527867 17.5858537284428 20.4226596683691 18.3667992776124 20.1401236392488 19.1863636038806 20.005896691033 20.0166374270755 20.0245497614556 20.8293467679518 20.1954476425754 31.9999999999999 32 26.9691726908555 31.6020691820261 22.0634654583494 30.4181735365979 32 35 27.0189806604349 34.6437504658326 22.1393605105499 33.5822540765074 17.4604745449339 31.8371198374081 13.077571389054 29.4438736490913 9.079874311915 26.451235102399 5.54876489760095 22.920125688085 2.55612635090866 18.9224286109459 0.162880162591868 14.539525455066 -1.5822540765074 9.86063948945008 -2.64375046583264 4.98101933956504 -3 1.11494635138959e-13 14.5 17.5 69 70 1 23 22 25 68 69 2 2 3 68 69 1 2 67 68 3 23 34 24 34 23 25 34 33 24 24 33 21 32 20 21 32 18 19 17 71 16 19 20 32 31 17 18 67 4 5 67 3 4 67 5 66 66 5 6 66 7 8 7 66 6 65 8 9 8 65 66 65 9 10 71 12 13 71 14 15 14 71 13 12 65 11 64 12 47 64 65 12 63 64 43 11 65 10 71 15 16 21 33 32 17 31 71 31 18 32 31 30 71 71 30 52 49 48 71 51 50 71 52 51 71 49 71 50 30 53 52 71 48 47 29 28 38 37 27 36 28 27 37 54 53 29 29 38 55 38 28 37 54 29 55 27 26 36 29 53 30 44 64 45 46 64 47 64 46 45 41 63 42 40 39 62 40 62 63 40 63 41 44 43 64 58 57 61 35 36 26 62 39 58 62 58 61 60 56 59 60 61 57 56 60 57 42 63 43 71 47 12 
8 6 1 0.0703362657639565
-23 -1.9809051317668e-15 0 -23 -1.9809051317668e-15 10 -20.5127706120201 -10.4031842153566 0 -22.7190851274034 -3.58373701236512 0 -21.8832025240178 -7.07993271809988 0 -20.5127706120201 -10.4031842153566 10 -22.7190851274034 -3.58373701236512 10 -21.8832025240178 -7.07993271809988 10 1.5707963267949 0 1.5707963267949 -10 2.04015270315722 0 1.72724845224901 0 1.88370057770311 0 2.04015270315722 -10 1.72724845224901 -10 1.88370057770311 -10 2 7 4 4 1 2 7 8 4 8 6 5 3 5 6 8 5 4 
4 2 1 5.5712632134978e-16
-20 -2.44921270764475e-15 0 -20 -2.44921270764475e-15 10 -23 -1.9809051317668e-15 0 -23 -1.9809051317668e-15 10 0 0 0 -10 3 0 3 -10 1 2 4 4 3 1 
20 18 1 0.0761060381650911
6.12303176911189e-16 -20 0 6.12303176911189e-16 -20 10 -20 -2.44921270764475e-15 0 -3.47296355333866 -19.6961550602442 0 -6.84040286651342 -18.7938524157182 0 -10 -17.3205080756888 0 -12.8557521937308 -15.3208888623795 0 -15.3208888623796 -12.8557521937308 0 -17.3205080756888 -10 0 -18.7938524157182 -6.84040286651339 0 -19.6961550602442 -3.47296355333864 0 -20 -2.44921270764475e-15 10 -3.47296355333866 -19.6961550602442 10 -6.84040286651342 -18.7938524157182 10 -10 -17.3205080756888 10 -12.8557521937308 -15.3208888623795 10 -15.3208888623796 -12.8557521937308 10 -17.3205080756888 -10 10 -18.7938524157182 -6.84040286651339 10 -19.6961550602442 -3.47296355333864 10 1.5707963267949 0 1.5707963267949 -10 3.14159265358979 0 1.74532925199433 0 1.91986217719376 0 2.0943951023932 0 2.26892802759263 0 2.44346095279206 0 2.61799387799149 0 2.79252680319093 0 2.96705972839036 0 3.14159265358979 -10 1.74532925199433 -10 1.91986217719376 -10 2.0943951023932 -10 2.26892802759263 -10 2.44346095279206 -10 2.61799387799149 -10 2.79252680319093 -10 2.96705972839036 -10 2 13 4 14 15 6 15 16 7 13 14 5 4 1 2 6 5 14 7 6 15 4 13 5 16 17 7 17 18 9 19 20 11 20 12 3 18 19 10 9 8 17 11 10 19 3 11 20 9 18 10 17 8 7 
4 2 1 5.7148296511711e-16
9.18454765366783e-16 -23 0 9.18454765366783e-16 -23 10 6.12303176911189e-16 -20 0 6.12303176911189e-16 -20 10 0 0 0 -10 3 0 3 -10 1 2 4 4 3 1 
8 6 1 0.0703362657639565
9.18454765366783e-16 -23 0 9.18454765366783e-16 -23 10 -10.4031842153566 -20.5127706120201 10 -3.58373701236511 -22.7190851274034 10 -7.07993271809988 -21.8832025240178 10 -10.4031842153566 -20.5127706120201 0 -3.58373701236511 -22.7190851274034 0 -7.07993271809988 -21.8832025240178 0 1.5707963267949 0 1.5707963267949 -10 2.04015270315722 -10 1.72724845224901 -10 1.88370057770311 -10 2.04015270315722 0 1.72724845224901 0 1.88370057770311 0 2 4 7 7 1 2 4 5 7 5 3 6 6 8 5 5 8 7 
36 34 1 0.0191977807391399
-14.5951134417826 -28.4777573488767 0 -14.5951134417826 -28.4777573488767 10 -10.4031842153566 -20.5127706120201 0 -15.2912068974037 -28.0248153442444 0 -15.8922201641952 -27.4516787011484 0 -16.3776864561926 -26.7778649005675 0 -16.7310738010743 -26.0263198633301 0 -16.940348016652 -25.2226365543002 0 -16.9983825205109 -24.3941834446551 0 -16.9032010172267 -23.5691725114236 0 -16.6580447987362 -22.7756985124456 0 -16.2712623660276 -22.0407822530888 0 -15.7560251309524 -21.389450425131 0 -15.1298788795921 -20.8438833527867 0 -14.4141462715572 -20.4226596683691 0 -13.6332007223876 -20.1401236392488 0 -12.8136363961194 -20.005896691033 0 -11.9833625729245 -20.0245497614556 0 -11.1706532320482 -20.1954476425754 0 -10.4031842153566 -20.5127706120201 10 -15.2912068974037 -28.0248153442444 10 -15.8922201641952 -27.4516787011484 10 -16.3776864561926 -26.7778649005675 10 -16.7310738010743 -26.0263198633301 10 -16.940348016652 -25.2226365543002 10 -16.9983825205109 -24.3941834446551 10 -16.9032010172267 -23.5691725114236 10 -16.6580447987362 -22.7756985124456 10 -16.2712623660276 -22.0407822530888 10 -15.7560251309524 -21.389450425131 10 -15.1298788795921 -20.8438833527867 10 -14.4141462715572 -20.4226596683691 10 -13.6332007223876 -20.1401236392488 10 -12.8136363961194 -20.005896691033 10 -11.9833625729245 -20.0245497614556 10 -11.1706532320482 -20.1954476425754 10 2.05525763487814 0 2.05525763487814 -10 5.19685028846793 0 2.24005720273636 0 2.42485677059459 0 2.60965633845281 0 2.79445590631103 0 2.97925547416926 0 3.16405504202748 0 3.3488546098857 0 3.53365417774392 0 3.71845374560215 0 3.90325331346037 0 4.08805288131859 0 4.27285244917682 0 4.45765201703504 0 4.64245158489326 0 4.82725115275148 0 5.01205072060971 0 5.19685028846793 -10 2.24005720273636 -10 2.42485677059459 -10 2.60965633845281 -10 2.79445590631103 -10 2.97925547416926 -10 3.16405504202748 -10 3.3488546098857 -10 3.53365417774392 -10 3.71845374560215 -10 3.90325331346037 -10 4.08805288131859 -10 4.27285244917682 -10 4.45765201703504 -10 4.64245158489326 -10 4.82725115275148 -10 5.01205072060971 -10 2 21 4 22 23 6 21 22 5 24 25 8 26 27 10 27 28 11 25 26 9 23 24 7 4 1 2 6 5 22 4 21 5 8 7 24 10 9 26 11 10 27 8 25 9 6 23 7 28 29 11 29 30 13 31 32 15 30 31 14 33 34 17 35 36 19 36 20 3 34 35 18 32 33 16 13 12 29 15 14 31 13 30 14 17 16 33 19 18 35 3 19 36 17 34 18 15 32 16 29 12 11 
8 6 1 0.0996378247453424
1.83690953073357e-15 -32 0 1.83690953073357e-15 -32 10 -14.5951134417826 -28.4777573488767 0 -5.0308273091445 -31.6020691820261 0 -9.93653454165057 -30.4181735365979 0 -14.5951134417826 -28.4777573488767 10 -5.0308273091445 -31.6020691820261 10 -9.93653454165057 -30.4181735365979 10 1.5707963267949 0 1.5707963267949 -10 2.04440116477877 0 1.72866460612286 0 1.88653288545081 0 2.04440116477877 -10 1.72866460612286 -10 1.88653288545081 -10 2 7 4 4 1 2 7 8 4 8 6 5 3 5 6 8 5 4 
4 2 1 8.1640423588161e-17
2.14306111918916e-15 -35 0 2.14306111918916e-15 -35 10 1.83690953073357e-15 -32 0 1.83690953073357e-15 -32 10 0 0 0 -10 3 0 3 -10 1 2 4 4 3 1 
24 22 1 0.0891759886411283
2.14306111918916e-15 -35 0 2.14306111918916e-15 -35 10 -35 -4.28612223837832e-15 10 -4.98101933956508 -34.6437504658326 10 -9.86063948945012 -33.5822540765074 10 -14.5395254550661 -31.8371198374081 10 -18.922428610946 -29.4438736490913 10 -22.920125688085 -26.451235102399 10 -26.451235102399 -22.920125688085 10 -29.4438736490913 -18.9224286109459 10 -31.8371198374081 -14.539525455066 10 -33.5822540765074 -9.86063948945008 10 -34.6437504658326 -4.98101933956504 10 -35 -4.28612223837832e-15 0 -4.98101933956508 -34.6437504658326 0 -9.86063948945012 -33.5822540765074 0 -14.5395254550661 -31.8371198374081 0 -18.922428610946 -29.4438736490913 0 -22.920125688085 -26.451235102399 0 -26.451235102399 -22.920125688085 0 -29.4438736490913 -18.9224286109459 0 -31.8371198374081 -14.539525455066 0 -33.5822540765074 -9.86063948945008 0 -34.6437504658326 -4.98101933956504 0 1.5707963267949 0 1.5707963267949 -10 3.14159265358979 -10 1.71359599286716 -10 1.85639565893943 -10 1.99919532501169 -10 2.14199499108395 -10 2.28479465715621 -10 2.42759432322848 -10 2.57039398930074 -10 2.713193655373 -10 2.85599332144527 -10 2.99879298751753 -10 3.14159265358979 0 1.71359599286716 0 1.85639565893943 0 1.99919532501169 0 2.14199499108395 0 2.28479465715621 0 2.42759432322848 0 2.57039398930074 0 2.713193655373 0 2.85599332144527 0 2.99879298751753 0 2 4 15 4 5 16 6 7 18 7 8 19 5 6 17 15 1 2 16 15 4 18 17 6 19 18 7 16 5 17 8 9 19 9 10 21 10 11 22 12 13 24 13 3 24 11 12 23 21 20 9 22 21 10 24 23 12 14 24 3 22 11 23 9 20 19 

TShapes 90
Ve
1.00015000750013e-07
-32 -2.75604192245815e-15 0
0 0

0101101
*
Ve
1.00015000750013e-07
-32 -2.75604192245815e-15 10
0 0

0101101
*
Ed
 1.00015000750013e-07 1 1 0
1  1 0 0 10
2  1 1 0 0 10
6  1 1 0
6  2 2 0
0

0101000
+90 0 -89 0 *
Ve
1.0002000150005e-07
-28.4777573488767 -14.5951134417826 10
0 0

0101101
*
Ed
 1.00015000750013e-07 1 1 0
1  2 0 1.5707963267949 2.04440116477877
2  2 1 0 1.5707963267949 2.04440116477877
2  3 2 0 1.5707963267949 2.04440116477877
6  3 1 0
6  4 3 0
0

0101100
+89 0 -87 0 *
Ve
1.0002000150005e-07
-28.4777573488767 -14.5951134417826 0
0 0

0101101
*
Ed
 1.0002000150005e-07 1 1 0
1  3 0 0 10
2  4 1 0 0 10
2  5 3 0 0 10
6  5 1 0
6  6 4 0
0

0101000
+85 0 -87 0 *
Ed
 1.00015000750013e-07 1 1 0
1  4 0 1.5707963267949 2.04440116477877
2  6 1 0 1.5707963267949 2.04440116477877
2  3 4 0 1.5707963267949 2.04440116477877
6  7 1 0
6  8 5 0
0

0101100
+90 0 -85 0 *
Wi

0101100
+88 0 +86 0 -84 0 -83 0 *
Fa
0  1.00015000750013e-07 1 0
2  1
0101000
+82 0 *
Ve
1.0002000150005e-07
-20.5127706120201 -10.4031842153566 10
0 0

0101101
*
Ed
 1.0002000150005e-07 1 1 0
1  5 0 2.05525763487814 5.19685028846793
2  7 3 0 2.05525763487814 5.19685028846793
2  8 2 0 2.05525763487814 5.19685028846793
6  9 4 0
6  10 3 0
0

0101100
+87 0 -80 0 *
Ve
1.0002000150005e-07
-20.5127706120201 -10.4031842153566 0
0 0

0101101
*
Ed
 1.0002000150005e-07 1 1 0
1  6 0 0 10
2  9 3 0 0 10
2  10 5 0 0 10
6  11 4 0
6  12 6 0
0

0101000
+78 0 -80 0 *
Ed
 1.0002000150005e-07 1 1 0
1  7 0 2.05525763487814 5.19685028846793
2  11 3 0 2.05525763487814 5.19685028846793
2  8 4 0 2.05525763487814 5.19685028846793
6  13 4 0
6  14 5 0
0

0101100
+85 0 -78 0 *
Wi

0101100
+84 0 +79 0 -77 0 -76 0 *
Fa
0  1.0002000150005e-07 3 0
2  4
0101000
+75 0 *
Ve
1.00015000750013e-07
-23 -1.9809051317668e-15 0
0 0

0101101
*
Ve
1.00015000750013e-07
-23 -1.9809051317668e-15 10
0 0

0101101
*
Ed
 1.00015000750013e-07 1 1 0
1  8 0 0 10
2  12 5 0 0 10
6  15 6 0
6  16 7 0
0

0101000
+73 0 -72 0 *
Ed
 1.00015000750013e-07 1 1 0
1  9 0 1.5707963267949 2.04015270315722
2  13 5 0 1.5707963267949 2.04015270315722
2  14 4 0 1.5707963267949 2.04015270315722
6  17 6 0
6  18 5 0
0

0101100
+73 0 -78 0 *
Ed
 1.00015000750013e-07 1 1 0
1  10 0 1.5707963267949 2.04015270315722
2  15 5 0 1.5707963267949 2.04015270315722
2  14 2 0 1.5707963267949 2.04015270315722
6  19 6 0
6  20 3 0
0

0101100
+72 0 -80 0 *
Wi

0101100
-71 0 +70 0 +77 0 -69 0 *
Fa
0  1.00015000750013e-07 5 0
2  6
0101000
-68 0 *
Ve
1.0001000025e-07
-20 -2.44921270764475e-15 0
0 0

0101101
*
Ve
1.0001000025e-07
-20 -2.44921270764475e-15 10
0 0

0101101
*
Ed
 1.0001000025e-07 1 1 0
1  11 0 0 10
2  16 7 0 0 10
6  21 8 0
6  22 7 0
0

0101000
+66 0 -65 0 *
Ed
 1.0001000025e-07 1 1 0
1  12 0 0 3
2  17 4 0 0 3
6  23 7 0
6  24 5 0
0

0101000
+66 0 -73 0 *
Ed
 1.0001000025e-07 1 1 0
1  13 0 0 3
2  17 2 0 0 3
6  25 7 0
6  26 3 0
0

0101000
+65 0 -72 0 *
Wi

0101100
-64 0 +63 0 +71 0 -62 0 *
Fa
0  1.0001000025e-07 6 0
2  7
0101000
-61 0 *
Ve
1.0001000025e-07
6.12303176911189e-16 -20 0
0 0

0101101
*
Ve
1.0001000025e-07
6.12303176911189e-16 -20 10
0 0

0101101
*
Ed
 1.0001000025e-07 1 1 0
1  14 0 0 10
2  18 7 0 0 10
6  27 8 0
6  28 9 0
0

0101000
+59 0 -58 0 *
Ed
 1.0001000025e-07 1 1 0
1  15 0 1.5707963267949 3.14159265358979
2  19 7 0 1.5707963267949 3.14159265358979
2  20 4 0 1.5707963267949 3.14159265358979
6  29 8 0
6  30 5 0
0

0101100
+59 0 -66 0 *
Ed
 1.0001000025e-07 1 1 0
1  16 0 1.5707963267949 3.14159265358979
2  21 7 0 1.5707963267949 3.14159265358979
2  20 2 0 1.5707963267949 3.14159265358979
6  31 8 0
6  32 3 0
0

0101100
+58 0 -65 0 *
Wi

0101100
-57 0 +56 0 +64 0 -55 0 *
Fa
0  1.0001000025e-07 7 0
2  8
0101000
-54 0 *
Ve
1.0001000025e-07
9.18454765366783e-16 -23 0
0 0

0101101
*
Ve
1.0001000025e-07
9.18454765366783e-16 -23 10
0 0

0101101
*
Ed
 1.0001000025e-07 1 1 0
1  17 0 0 10
2  22 9 0 0 10
6  33 10 0
6  34 9 0
0

0101000
+52 0 -51 0 *
Ed
 1.0001000025e-07 1 1 0
1  18 0 12 15
2  23 4 0 12 15
6  35 9 0
6  36 5 0
0

0101000
+52 0 -59 0 *
Ed
 1.0001000025e-07 1 1 0
1  19 0 12 15
2  23 2 0 12 15
6  37 9 0
6  38 3 0
0

0101000
+51 0 -58 0 *
Wi

0101100
-50 0 +49 0 +57 0 -48 0 *
Fa
0  1.0001000025e-07 8 0
2  9
0101000
-47 0 *
Ve
1.0002000150005e-07
-10.4031842153566 -20.5127706120201 10
0 0

0101101
*
Ed
 1.00015000750013e-07 1 1 0
1  20 0 1.5707963267949 2.04015270315722
2  24 9 0 1.5707963267949 2.04015270315722
2  25 2 0 1.5707963267949 2.04015270315722
6  39 10 0
6  40 3 0
0

0101100
+51 0 -45 0 *
Ve
1.0002000150005e-07
-10.4031842153566 -20.5127706120201 0
0 0

0101101
*
Ed
 1.0002000150005e-07 1 1 0
1  21 0 0 10
2  26 9 0 0 10
2  27 10 0 0 10
6  41 10 0
6  42 11 0
0

0101000
+43 0 -45 0 *
Ed
 1.00015000750013e-07 1 1 0
1  22 0 1.5707963267949 2.04015270315722
2  28 9 0 1.5707963267949 2.04015270315722
2  25 4 0 1.5707963267949 2.04015270315722
6  43 10 0
6  44 5 0
0

0101100
+52 0 -43 0 *
Wi

0101100
+50 0 +44 0 -42 0 -41 0 *
Fa
0  1.00015000750013e-07 9 0
2  10
0101000
+40 0 *
Ve
1.0002000150005e-07
-14.5951134417826 -28.4777573488767 0
0 0

0101101
*
Ve
1.0002000150005e-07
-14.5951134417826 -28.4777573488767 10
0 0

0101101
*
Ed
 1.0002000150005e-07 1 1 0
1  23 0 0 10
2  29 10 0 0 10
2  30 11 0 0 10
6  45 11 0
6  46 12 0
0

0101000
+38 0 -37 0 *
Ed
 1.0002000150005e-07 1 1 0
1  24 0 2.05525763487814 5.19685028846793
2  31 10 0 2.05525763487814 5.19685028846793
2  32 4 0 2.05525763487814 5.19685028846793
6  47 11 0
6  48 5 0
0

0101100
+38 0 -43 0 *
Ed
 1.0002000150005e-07 1 1 0
1  25 0 2.05525763487814 5.19685028846793
2  33 10 0 2.05525763487814 5.19685028846793
2  32 2 0 2.05525763487814 5.19685028846793
6  49 11 0
6  50 3 0
0

0101100
+37 0 -45 0 *
Wi

0101100
-36 0 +35 0 +42 0 -34 0 *
Fa
0  1.0002000150005e-07 10 0
2  11
0101000
-33 0 *
Ve
1.00015000750013e-07
1.83690953073357e-15 -32 0
0 0

0101101
*
Ve
1.00015000750013e-07
1.83690953073357e-15 -32 10
0 0

0101101
*
Ed
 1.00015000750013e-07 1 1 0
1  26 0 0 10
2  34 11 0 0 10
6  51 12 0
6  52 13 0
0

0101000
+31 0 -30 0 *
Ed
 1.00015000750013e-07 1 1 0
1  27 0 1.5707963267949 2.04440116477877
2  35 11 0 1.5707963267949 2.04440116477877
2  36 4 0 1.5707963267949 2.04440116477877
6  53 12 0
6  54 5 0
0

0101100
+31 0 -38 0 *
Ed
 1.00015000750013e-07 1 1 0
1  28 0 1.5707963267949 2.04440116477877
2  37 11 0 1.5707963267949 2.04440116477877
2  36 2 0 1.5707963267949 2.04440116477877
6  55 12 0
6  56 3 0
0

0101100
+30 0 -37 0 *
Wi

0101100
-29 0 +28 0 +36 0 -27 0 *
Fa
0  1.00015000750013e-07 11 0
2  12
0101000
-26 0 *
Ve
1.0001000025e-07
2.14306111918916e-15 -35 0
0 0

0101101
*
Ve
1.0001000025e-07
2.14306111918916e-15 -35 10
0 0

0101101
*
Ed
 1.0001000025e-07 1 1 0
1  29 0 0 10
2  38 13 0 0 10
6  57 14 0
6  58 13 0
0

0101000
+24 0 -23 0 *
Ed
 1.0001000025e-07 1 1 0
1  30 0 0 3
2  39 4 0 0 3
6  59 13 0
6  60 5 0
0

0101000
+24 0 -31 0 *
Ed
 1.0001000025e-07 1 1 0
1  31 0 0 3
2  39 2 0 0 3
6  61 13 0
6  62 3 0
0

0101000
+23 0 -30 0 *
Wi

0101100
-22 0 +21 0 +29 0 -20 0 *
Fa
0  1.0001000025e-07 12 0
2  13
0101000
-19 0 *
Ve
1.0001000025e-07
-35 -4.28612223837832e-15 10
0 0

0101101
*
Ed
 1.0001000025e-07 1 1 0
1  32 0 1.5707963267949 3.14159265358979
2  40 13 0 1.5707963267949 3.14159265358979
2  41 2 0 1.5707963267949 3.14159265358979
6  63 14 0
6  64 3 0
0

0101100
+23 0 -17 0 *
Ve
1.0001000025e-07
-35 -4.28612223837832e-15 0
0 0

0101101
*
Ed
 1.0001000025e-07 1 1 0
1  33 0 0 10
2  42 13 0 0 10
6  65 14 0
6  66 2 0
0

0101000
+15 0 -17 0 *
Ed
 1.0001000025e-07 1 1 0
1  34 0 1.5707963267949 3.14159265358979
2  43 13 0 1.5707963267949 3.14159265358979
2  41 4 0 1.5707963267949 3.14159265358979
6  67 14 0
6  68 5 0
0

0101100
+24 0 -15 0 *
Wi

0101100
+22 0 +16 0 -14 0 -13 0 *
Fa
0  1.0001000025e-07 13 0
2  14
0101000
+12 0 *
Ed
 1.0001000025e-07 1 1 0
1  35 0 12 15
2  44 4 0 12 15
6  69 2 0
6  70 5 0
0

0101000
+90 0 -15 0 *
Ed
 1.0001000025e-07 1 1 0
1  36 0 12 15
2  44 2 0 12 15
6  71 2 0
6  72 3 0
0

0101000
+89 0 -17 0 *
Wi

0101100
-88 0 +10 0 +14 0 -9 0 *
Fa
0  1.0001000025e-07 14 0
2  2
0101000
-8 0 *
Wi

0101000
+83 0 +76 0 -70 0 -63 0 -56 0 -49 0 +41 0 -35 0 -28 0 -21 0 
+13 0 -10 0 *
Fa
0  1e-07 4 0
2  5
0101000
+6 0 *
Wi

0101100
-86 0 +9 0 -16 0 +20 0 +27 0 +34 0 -44 0 +48 0 +55 0 +62 0 
+69 0 -79 0 *
Fa
0  1e-07 2 0
2  3
0101000
-4 0 *
Sh

0101000
+81 0 +74 0 -67 0 -60 0 -53 0 -46 0 +39 0 -32 0 -25 0 -18 0 
+11 0 -7 0 +5 0 -3 0 *
So

1100000
+2 0 *

+1 0 
