DBRep_DrawableShape

CASCADE Topology V1, (c) Matra-Datavision
Locations 1
1
              1               0               0              -0 
              0               1               0              -2 
              0               0               1              -0 
Curve2ds 0
Curves 6
1 20.34638595581 1 36.300022125239998 -0 -1 -0 
1 8.4000005722050002 1 43.197261810299999 -0 -1 -0 
1 20.34638595581 1 36.300022125239998 -0.86602569044036692 0 0.4999995034970392 
1 8.4000005722050002 1 36.300018310550001 -0 -1 -0 
1 8.4000005722050002 1 43.197261810299999 0 0 -1 
1 8.4000005722050002 1 36.300018310550001 0.99999999999994904 0 3.1931750686762785e-07 
Polygon3D 0
PolygonOnTriangulations 0
Surfaces 4
1 20.34638595581 1 36.300022125239998 -0.4999995034970392 0 -0.86602569044036692 -0.86602569044036692 0 0.4999995034970392 0 1 0 
1 8.4000005722050002 1 43.197261810299999 1 -0 0 0 0 -1 0 1 0 
1 8.4000005722050002 1 36.300018310550001 -3.1931750686762785e-07 0 0.99999999999994904 0.99999999999994904 0 3.1931750686762785e-07 0 1 -0 
1 12.382129033406667 1 38.599100748696664 0 1 0 0 -0 1 1 0 -0 
Triangulations 0

TShapes 19
Ve
0.003
20.34638595581 1 36.30002212524
0 0

0101101
*
Ed
 0.003 1 1 0
1  1 0 0 2
0

0101000
+19 0 -19 1 *
Ve
0.003
8.400000572205 1 43.1972618103
0 0

0101101
*
Ed
 0.003 1 1 0
1  2 0 0 2
0

0101000
+17 0 -17 1 *
Ed
 0.003 1 1 0
1  3 0 0 13.7944930681333
0

0101000
+19 0 -17 0 *
Wi

0101000
+18 0 -16 0 -15 0 +15 1 *
Fa
0  0.003 1 0

0111000
+14 0 *
Ve
0.003
8.400000572205 1 36.30001831055
0 0

0101101
*
Ed
 0.003 1 1 0
1  4 0 0 2
0

0101000
+12 0 -12 1 *
Ed
 0.003 1 1 0
1  5 0 0 6.89724349975
0

0101000
+17 0 -12 0 *
Wi

0101000
+16 0 -11 0 -10 0 +10 1 *
Fa
0  0.003 2 0

0111000
+9 0 *
Ed
 0.003 1 1 0
1  6 0 0 11.9463853836056
0

0101000
+12 0 -19 0 *
Wi

0101000
+11 0 -18 0 -7 0 +7 1 *
Fa
0  0.003 3 0

0111000
+6 0 *
Wi

0101100
+15 0 +10 0 +7 0 *
Fa
0  0.003 4 0

0111100
-4 0 *
Sh

0101000
-13 0 -8 0 -5 0 +3 0 -3 1 *
So

1100000
+2 0 *

+1 0 
0

