DBRep_DrawableShape

CASCADE Topology V1, (c) Matra-Datavision
Locations 1
1
              1               0               0 0.8610229492188 
              0               1               0 0.8610229492188 
              0               0               1  46.50101900101 
Curve2ds 0
Curves 6
1 45.813850402829999 14.1001033783 5.9164309501650001 0.018509871772172698 0.018509871772172698 0.99965732593422008 
1 36.907920837399999 23.006032943729998 5.9164309501650001 0.018509871772172698 0.018509871772172698 0.99965732593422008 
1 45.813850402829999 14.1001033783 5.9164309501650001 -0.70710678118654757 0.70710678118654746 0 
1 45.813850402829999 23.006032943729998 5.9164309501650001 0.018509871772172698 0.018509871772172698 0.99965732593422008 
1 36.907920837399999 23.006032943729998 5.9164309501650001 1 0 0 
1 45.813850402829999 23.006032943729998 5.9164309501650001 0 -1 0 
Polygon3D 0
PolygonOnTriangulations 0
Surfaces 4
1 45.813850402829999 14.1001033783 5.9164309501650001 -0.70686447403089769 -0.7068644740308978 0.026176911697993542 -0.70710678118654757 0.70710678118654746 0 -0.018509871772172694 -0.018509871772172698 -0.99965732593422008 
1 36.907920837399999 23.006032943729998 5.9164309501650001 0 0.99982861892499653 -0.018513043470326142 1 0 0 0 -0.018513043470326142 -0.99982861892499653 
1 45.813850402829999 23.006032943729998 5.9164309501650001 0.99982861892499653 0 -0.018513043470326142 0 -1 0 -0.018513043470326142 -0 -0.99982861892499653 
1 42.84520721435333 20.037389755253329 5.9164309501650001 6.8800708670827147e-15 3.4400354335413581e-15 1 1 0 -6.8800708670827147e-15 -2.3667687568040154e-29 1 -3.4400354335413581e-15 
Triangulations 0

TShapes 20
Ve
0.003
45.81385040283 14.1001033783 5.916430950165
0 0

0101101
*
Ed
 0.003 1 1 0
1  1 0 0 46.5169591565319
0

0101000
+20 0 -20 1 *
Ve
0.003
36.9079208374 23.00603294373 5.916430950165
0 0

0101101
*
Ed
 0.003 1 1 0
1  2 0 0 46.5169591565319
0

0101000
+18 0 -18 1 *
Ed
 0.003 1 1 0
1  3 0 0 12.5948863769706
0

0101000
+20 0 -18 0 *
Wi

0101000
+19 0 -17 0 -16 0 +16 1 *
Fa
0  0.003 1 0

0111000
+15 0 *
Ve
0.003
45.81385040283 23.00603294373 5.916430950165
0 0

0101101
*
Ed
 0.003 1 1 0
1  4 0 0 46.5169591565319
0

0101000
+13 0 -13 1 *
Ed
 0.003 1 1 0
1  5 0 0 8.90592956543
0

0101000
+18 0 -13 0 *
Wi

0101000
+17 0 -12 0 -11 0 +11 1 *
Fa
0  0.003 2 0

0111000
+10 0 *
Ed
 0.003 1 1 0
1  6 0 0 8.90592956543
0

0101000
+13 0 -20 0 *
Wi

0101000
+12 0 -19 0 -8 0 +8 1 *
Fa
0  0.003 3 0

0111000
+7 0 *
Wi

0101100
+16 0 +11 0 +8 0 *
Fa
0  0.003 4 0

0111100
-5 0 *
Sh

0101000
-14 0 -9 0 -6 0 +4 0 -4 1 *
So

0100000
-3 0 *
Co

1100000
+2 0 *

+1 0 
0

