DBRep_DrawableShape

CASCADE Topology V1, (c) Matra-Datavision
Locations 2
1
              1               0               0 -1.20617073389867e-07 
              0               1               0 -3.00487412767846e-06 
              0               0               1 2.69999670982233 
2  1 -1 0
Curve2ds 4
1 3.1415951967160276 0 0 -1 
1 0 0 0 -1 
1 0 0 1 0 
1 0 -2.6999967098240001 1 0 
Curves 12
1 31.799972534181975 10.500008583069496 -1.4999983310698419 -4.4673044582239218e-08 -1.1129176997679875e-06 0.99999999999937972 
1 28.04997253418 10.500008583070001 -1.49999833107 -4.4673044582239218e-08 -1.1129176997679875e-06 0.99999999999937972 
1 31.79997253418 10.500008583070001 -1.49999833107 -1 0 0 
1 28.04997253418 10.89999961853 -1.49999833107 -4.4673044582239218e-08 -1.1129176997679875e-06 0.99999999999937972 
1 28.04997253418 10.500008583070001 -1.49999833107 0 1 0 
1 26.049987792970001 10.89999961853 -1.49999833107 -4.4673044582239218e-08 -1.1129176997679875e-06 0.99999999999937972 
1 28.04997253418 10.89999961853 -1.49999833107 -1 0 0 
1 26.049987792970001 9.0000085830690004 -1.5000002384190001 -4.4673044582239218e-08 -1.1129176997679875e-06 0.99999999999937972 
1 26.049987792970001 10.89999961853 -1.49999833107 0 -0.99999999999949607 -1.0038726312256157e-06 
1 31.799970626830685 9.0000085830702155 -1.5000002384186581 -4.4673044582239218e-08 -1.1129176997679875e-06 0.99999999999937972 
1 26.049987792970001 9.0000085830690004 -1.5000002384190001 1 0 0 
2 31.79997253418 9.7500085830690004 -1.499999284744 0 -1.2715657552072387e-06 0.99999999999919165 -2.5431315104057199e-06 -0.99999999999595779 -1.2715657552031268e-06 0.99999999999676636 -2.5431315104036641e-06 -3.2337589396203748e-12 0.75000000000059996
Polygon3D 0
PolygonOnTriangulations 0
Surfaces 7
1 31.79997253418 10.500008583070001 -1.49999833107 -0 -0.99999999999938072 -1.1129176997679886e-06 -1 0 0 0 1.1129176997679886e-06 -0.99999999999938072 
6 4.4673044582239218e-08 1.1129176997679875e-06 -0.99999999999937972 
2 31.79997253418 9.7500085830690004 -1.499999284744 -4.0389678347315804e-28 -1.2715657552072389e-06 0.99999999999919165 -2.5431315104057199e-06 -0.99999999999595779 -1.2715657552031268e-06 0.99999999999676636 -2.5431315104036641e-06 -3.2337589396203748e-12 0.75000000000059996
1 28.04997253418 10.500008583070001 -1.49999833107 -0.999999999999999 0 -4.4673044582266886e-08 0 1 0 4.4673044582266886e-08 0 -0.999999999999999 
1 28.04997253418 10.89999961853 -1.49999833107 -0 -0.99999999999938072 -1.1129176997679886e-06 -1 0 0 0 1.1129176997679886e-06 -0.99999999999938072 
1 26.049987792970001 10.89999961853 -1.49999833107 0.999999999999999 -4.484604680963199e-14 4.4673044582216977e-08 0 -0.99999999999949618 -1.0038726312256157e-06 4.4673044582239489e-08 1.0038726312256146e-06 -0.99999999999949518 
1 26.049987792970001 9.0000085830690004 -1.5000002384190001 -0 0.99999999999938072 1.1129176997679886e-06 1 0 0 0 1.1129176997679886e-06 -0.99999999999938072 
1 28.705479507837058 10.133338836455557 -1.4999989668530227 -4.4673044582239225e-08 -1.1129176997679875e-06 0.99999999999937972 -6.3108872417680944e-30 0.99999999999938072 1.1129176997679886e-06 -0.999999999999999 4.9717422018098475e-14 -4.4673044582211557e-08 
Triangulations 0

TShapes 34
Ve
0.00300000000204806
31.799972534182 10.5000085830695 -1.49999833106984
0 0

0101101
*
Ed
 0.00300000000204806 1 1 0
1  1 0 0 2.699996709824
2  1 2 0 0 2.699996709824
4 G1 1 0 2 0
0

0101000
+34 0 -34 1 *
Ve
0.003
28.04997253418 10.50000858307 -1.49999833107
0 0

0101101
*
Ed
 0.003 1 1 0
1  2 0 0 2.699996709824
0

0101000
+32 0 -32 1 *
Ed
 0.003 1 1 0
1  3 0 0 3.75
0

0101000
+34 0 -32 0 *
Wi

0101000
+33 0 -31 0 -30 0 +30 1 *
Fa
0  0.003 1 0

0101000
+29 0 *
Ve
0.003
28.04997253418 10.89999961853 -1.49999833107
0 0

0101101
*
Ed
 0.003 1 1 0
1  4 0 0 2.699996709824
0

0101000
+27 0 -27 1 *
Ed
 0.003 1 1 0
1  5 0 0 0.399991035459999
0

0101000
+32 0 -27 0 *
Wi

0101000
+31 0 -26 0 -25 0 +25 1 *
Fa
0  0.003 3 0

0101000
+24 0 *
Ve
0.003
26.04998779297 10.89999961853 -1.49999833107
0 0

0101101
*
Ed
 0.003 1 1 0
1  6 0 0 2.699996709824
0

0101000
+22 0 -22 1 *
Ed
 0.003 1 1 0
1  7 0 0 1.99998474121
0

0101000
+27 0 -22 0 *
Wi

0101000
+26 0 -21 0 -20 0 +20 1 *
Fa
0  0.003 4 0

0101000
+19 0 *
Ve
0.003
26.04998779297 9.000008583069 -1.500000238419
0 0

0101101
*
Ed
 0.003 1 1 0
1  8 0 0 2.699996709824
0

0101000
+17 0 -17 1 *
Ed
 0.003 1 1 0
1  9 0 0 1.89999103546196
0

0101000
+22 0 -17 0 *
Wi

0101000
+21 0 -16 0 -15 0 +15 1 *
Fa
0  0.003 5 0

0101000
+14 0 *
Ve
0.00300000000143632
31.7999706268307 9.00000858307022 -1.50000023841866
0 0

0101101
*
Ed
 0.00300000000143632 1 1 0
1  10 0 0 2.699996709824
2  2 2 0 0 2.699996709824
4 G1 6 0 2 0
0

0101000
+12 0 -12 1 *
Ed
 0.003 1 1 0
1  11 0 0 5.74998283386
0

0101000
+17 0 -12 0 *
Wi

0101000
+16 0 -11 0 -10 0 +10 1 *
Fa
0  0.003 6 0

0101000
+9 0 *
Ed
 0.003 1 1 0
1  12 0 0 3.14159519671603
2  3 2 0 0 3.14159519671603
2  4 2 2 0 3.14159519671603
0

0101000
+12 0 -34 0 *
Wi

0101000
+11 0 -33 0 -7 0 +7 1 *
Fa
0  0.003 2 0

0101000
+6 0 *
Wi

0101100
+30 0 +25 0 +20 0 +15 0 +10 0 +7 0 *
Fa
0  0.003 7 0

0101100
+4 0 *
Sh

0101000
+28 0 +23 0 +18 0 +13 0 +8 0 +5 0 +3 0 -3 1 *
So

1100000
-2 0 *

+1 0 
0

