DBRep_DrawableShape

CASCADE Topology V1, (c) Matra-Datavision
Locations 0
Curve2ds 29
2 0 0 -1 0 0 1 6.9092111587520009
1 0 -7.1029924810782421e-15 1 0 
1 0 27.092875604617412 1 0 
1 0 9.9937420408195971e-21 1 0 
1 6.2831853071795862 0 0 1 
1 0 0 0 1 
1 0 1.8646392822605093 1 0 
1 0 -8.8787406426166004e-16 1 0 
1 6.2831853071795862 0 0 1 
1 0 0 0 1 
1 0 5.2182145177163051 1 0 
1 0 8.8783942534698861e-16 1 0 
1 6.2831853071795862 0 0 1 
1 0 0 0 1 
1 0 10.904108501157605 1 0 
1 0 0 1 0 
1 6.2831853071795862 0 0 1 
1 0 0 0 1 
1 0 2.2499990463308088 1 0 
1 0 0 1 0 
1 6.2831853071795862 0 0 1 
1 0 0 0 1 
1 0 6.6306982040399998 1 0 
1 0 0 1 0 
1 6.2831853071795862 0 0 1 
1 0 0 0 1 
1 0 6.7500000000097016 1 0 
1 6.2831853071795862 0 0 1 
1 0 0 0 1 
Curves 14
2 38.54999923706 15 33.000003814699994 0 0 1 0 -1 0 1 0 -0 6.9092111587520009
2 38.54999923706 15 5.916412353515998 0 0 1 0 -1 0 1 0 -0 6.1999988555909997
1 38.54999923706 8.0907888412479991 33.000003814700001 0 0.026177077454271062 -0.99965732159373144 
2 38.54999923706 15 5.9164228439329989 0 0 1 0 -1 0 1 0 -0 4.3353595733599999
1 38.54999923706 8.8000011444090003 5.9164123535159998 0 0.9999999999841741 5.6259766163708902e-06 
2 38.54999923706 15 0.69999647140500088 0 0 1 0 -1 0 1 0 -0 4.1987628936799997
1 38.54999923706 10.66464042664 5.9164228439329998 0 0.026176900013643024 -0.999657326240185 
2 38.54999923706 15 -10.1999502182 0 0 1 0 -1 0 1 0 -0 4.5000009536699999
1 38.54999923706 10.80123710632 0.69999647140499999 0 -0.027626106247752406 -0.9996183262893833 
2 38.54999923706 15 -10.19995212555 0 0 1 0 -1 0 1 0 -0 6.75
1 38.54999923706 10.49999904633 -10.1999502182 0 -0.99999999999964073 -8.4771147068603522e-07 
2 38.54999923706 15 -16.83065032959 0 0 1 0 -1 0 1 0 -0 6.75
1 38.54999923706 8.25 -10.19995212555 0 0 -1 
1 38.54999923706 8.25 -16.83065032959 0 0.99999999999856271 1.6954207406200636e-06 
Polygon3D 0
PolygonOnTriangulations 0
Surfaces 8
1 38.54999923706 15 33.000003814699994 0 0 1 -0 1 -0 1 0 -0 
3 38.54999923706 15 33.000003814699994 -0 -0 -1 0 -1 0 1 -0 -0 6.9092111587520009
-0.026180067970583486
3 38.54999923706 15 5.916412353515998 0 0 1 0 -1 0 1 0 -0 6.1999988555909997
-1.5707907008182802
3 38.54999923706 15 5.9164228439329989 -0 -0 -1 0 -1 0 1 -0 -0 4.3353595733599999
-0.026179890469129947
3 38.54999923706 15 0.69999647140500088 -0 -0 -1 0 -1 0 1 -0 -0 4.1987628936799997
0.02762962150392443
3 38.54999923706 15 -10.1999502182 -0 -0 -1 0 -1 0 1 -0 -0 4.5000009536699999
1.570795479083426
2 38.54999923706 15 -10.19995212555 -0 -0 -1 0 -1 0 1 -0 -0 6.75
3 38.54999923706 15 -16.83065032959 0 0 1 0 -1 0 1 0 -0 6.75
-1.5707946313741561
Triangulations 0

TShapes 42
Ve
0.003
38.54999923706 8.090788841248 33.0000038147
0 0

0101101
*
Ed
 0.003 1 1 0
1  1 0 0 6.28318530717959
2  1 1 0 0 6.28318530717959
2  2 2 0 0 6.28318530717959
0

0101100
+42 0 -42 0 *
Wi

0101000
-41 0 *
Fa
0  0.003 1 0

0111000
+40 0 *
Ve
0.003
38.54999923706 8.800001144409 5.916412353516
0 0

0101101
*
Ed
 0.003 1 1 0
1  2 0 0 6.28318530717959
2  3 2 0 0 6.28318530717959
2  4 3 0 0 6.28318530717959
0

0101100
+38 0 -38 0 *
Ed
 0.003 1 1 0
1  3 0 0 27.0928756046174
3  5 6CN 2 0 0 27.0928756046174
0

0101000
+42 0 -38 0 *
Wi

0101000
+41 0 -37 0 -36 0 +36 0 *
Fa
0  0.003 2 0

0111000
+35 0 *
Ve
0.003
38.54999923706 10.66464042664 5.916422843933
0 0

0101101
*
Ed
 0.003 1 1 0
1  4 0 0 6.28318530717959
2  7 3 0 0 6.28318530717959
2  8 4 0 0 6.28318530717959
0

0101100
+33 0 -33 0 *
Ed
 0.003 1 1 0
1  5 0 0 1.86463928226051
3  9 10CN 3 0 0 1.86463928226051
0

0101000
+38 0 -33 0 *
Wi

0101000
+37 0 -32 0 -31 0 +31 0 *
Fa
0  0.003 3 0

0111000
+30 0 *
Ve
0.003
38.54999923706 10.80123710632 0.699996471405
0 0

0101101
*
Ed
 0.003 1 1 0
1  6 0 0 6.28318530717959
2  11 4 0 0 6.28318530717959
2  12 5 0 0 6.28318530717959
0

0101100
+28 0 -28 0 *
Ed
 0.003 1 1 0
1  7 0 0 5.21821451771631
3  13 14CN 4 0 0 5.21821451771631
0

0101000
+33 0 -28 0 *
Wi

0101000
+32 0 -27 0 -26 0 +26 0 *
Fa
0  0.003 4 0

0111000
+25 0 *
Ve
0.003
38.54999923706 10.49999904633 -10.1999502182
0 0

0101101
*
Ed
 0.003 1 1 0
1  8 0 0 6.28318530717959
2  15 5 0 0 6.28318530717959
2  16 6 0 0 6.28318530717959
0

0101100
+23 0 -23 0 *
Ed
 0.003 1 1 0
1  9 0 0 10.9041085011576
3  17 18CN 5 0 0 10.9041085011576
0

0101000
+28 0 -23 0 *
Wi

0101000
+27 0 -22 0 -21 0 +21 0 *
Fa
0  0.003 5 0

0111000
+20 0 *
Ve
0.003
38.54999923706 8.25 -10.19995212555
0 0

0101101
*
Ed
 0.003 1 1 0
1  10 0 0 6.28318530717959
2  19 6 0 0 6.28318530717959
2  20 7 0 0 6.28318530717959
0

0101100
+18 0 -18 0 *
Ed
 0.003 1 1 0
1  11 0 0 2.24999904633081
3  21 22CN 6 0 0 2.24999904633081
0

0101000
+23 0 -18 0 *
Wi

0101000
+22 0 -17 0 -16 0 +16 0 *
Fa
0  0.003 6 0

0111000
+15 0 *
Ve
0.003
38.54999923706 8.25 -16.83065032959
0 0

0101101
*
Ed
 0.003 1 1 0
1  12 0 0 6.28318530717959
2  23 7 0 0 6.28318530717959
2  24 8 0 0 6.28318530717959
0

0101100
+13 0 -13 0 *
Ed
 0.003 1 1 0
1  13 0 0 6.63069820404
3  25 26CN 7 0 0 6.63069820404
0

0101000
+18 0 -13 0 *
Wi

0101000
+17 0 -12 0 -11 0 +11 0 *
Fa
0  0.003 7 0

0111000
+10 0 *
Ve
0.003
38.54999923706 15 -16.8306388855
0 0

0101101
*
Ed
 0.003 1 1 1
2  27 8 0 0 6.28318530717959
0

0101100
+8 0 -8 0 *
Ed
 0.003 1 1 0
1  14 0 0 6.7500000000097
3  28 29CN 8 0 0 6.7500000000097
0

0101000
+13 0 -8 0 *
Wi

0101000
+12 0 -7 0 -6 0 +6 0 *
Fa
0  0.003 8 0

0111000
+5 0 *
Sh

0101000
+39 0 +34 0 +29 0 +24 0 +19 0 +14 0 +9 0 +4 0 *
So

0100000
-3 0 *
Co

1100000
+2 0 *

+1 0 
0

