DBRep_DrawableShape

CASCADE Topology V1, (c) Matra-Datavision
Locations 0
Curve2ds 17
2 0 0 -1 0 0 1 7.6668548583979996
1 0 -7.1029925011105578e-15 1 0 
1 0 31.31073378714169 1 0 
1 0 0 1 0 
1 6.2831853071795862 0 0 1 
1 0 0 0 1 
1 0 2.199028015137007 1 0 
1 0 0 1 0 
1 6.2831853071795862 0 0 1 
1 0 0 0 1 
1 0 10.903741932803849 1 0 
1 0 0 1 0 
1 6.2831853071795862 0 0 1 
1 0 0 0 1 
1 0 5.9999980926729037 1 0 
1 6.2831853071795862 0 0 1 
1 0 0 0 1 
Curves 8
2 38.54999923706 15 32.000003814699994 0 0 1 0 -1 0 1 0 -0 7.6668548583979996
2 38.54999923706 15 0.69999945163730004 0 0 1 0 -1 0 1 0 -0 8.4864749908450001
1 38.54999923706 7.3331451416020004 32.000003814700001 0 -0.026176969789944427 -0.99965732441302924 
2 38.54999923706 15 0.69999927282329999 0 0 1 0 -1 0 1 0 -0 6.2874469757080007
1 38.54999923706 6.5135250091549999 0.69999945163730004 0 0.99999999999999678 -8.1315016825847147e-08 
2 38.54999923706 15 -10.19995307922 0 0 1 0 -1 0 1 0 -0 5.9999980926509995
1 38.54999923706 8.7125530242919993 0.69999927282329999 0 0.026362407036818507 -0.99965245135258129 
1 38.54999923706 9.0000019073490005 -10.19995307922 0 0.99999999999634948 -2.7020791921895086e-06 
Polygon3D 0
PolygonOnTriangulations 0
Surfaces 5
1 38.54999923706 15 32.000003814699994 0 0 1 -0 1 -0 1 0 -0 
3 38.54999923706 15 32.000003814699994 -0 -0 -1 0 -1 0 1 -0 -0 7.6668548583979996
0.026179960269350117
3 38.54999923706 15 0.69999945163730004 -0 -0 -1 0 -1 0 1 -0 -0 8.4864749908450001
-1.5707962454798798
3 38.54999923706 15 0.69999927282329999 -0 -0 -1 0 -1 0 1 -0 -0 6.2874469757080007
-0.026365461534426777
3 38.54999923706 15 -10.19995307922 -0 -0 -1 0 -1 0 1 -0 -0 5.9999980926509995
-1.5707936247157044
Triangulations 0

TShapes 27
Ve
0.003
38.54999923706 7.333145141602 32.0000038147
0 0

0101101
*
Ed
 0.003 1 1 0
1  1 0 0 6.28318530717959
2  1 1 0 0 6.28318530717959
2  2 2 0 0 6.28318530717959
0

0101100
+27 0 -27 0 *
Wi

0101000
-26 0 *
Fa
0  0.003 1 0

0111000
+25 0 *
Ve
0.003
38.54999923706 6.513525009155 0.6999994516373
0 0

0101101
*
Ed
 0.003 1 1 0
1  2 0 0 6.28318530717959
2  3 2 0 0 6.28318530717959
2  4 3 0 0 6.28318530717959
0

0101100
+23 0 -23 0 *
Ed
 0.003 1 1 0
1  3 0 0 31.3107337871417
3  5 6CN 2 0 0 31.3107337871417
0

0101000
+27 0 -23 0 *
Wi

0101000
+26 0 -22 0 -21 0 +21 0 *
Fa
0  0.003 2 0

0111000
+20 0 *
Ve
0.003
38.54999923706 8.712553024292 0.6999992728233
0 0

0101101
*
Ed
 0.003 1 1 0
1  4 0 0 6.28318530717959
2  7 3 0 0 6.28318530717959
2  8 4 0 0 6.28318530717959
0

0101100
+18 0 -18 0 *
Ed
 0.003 1 1 0
1  5 0 0 2.19902801513701
3  9 10CN 3 0 0 2.19902801513701
0

0101000
+23 0 -18 0 *
Wi

0101000
+22 0 -17 0 -16 0 +16 0 *
Fa
0  0.003 3 0

0111000
+15 0 *
Ve
0.003
38.54999923706 9.000001907349 -10.19995307922
0 0

0101101
*
Ed
 0.003 1 1 0
1  6 0 0 6.28318530717959
2  11 4 0 0 6.28318530717959
2  12 5 0 0 6.28318530717959
0

0101100
+13 0 -13 0 *
Ed
 0.003 1 1 0
1  7 0 0 10.9037419328038
3  13 14CN 4 0 0 10.9037419328038
0

0101000
+18 0 -13 0 *
Wi

0101000
+17 0 -12 0 -11 0 +11 0 *
Fa
0  0.003 4 0

0111000
+10 0 *
Ve
0.003
38.54999923706 15 -10.19996929169
0 0

0101101
*
Ed
 0.003 1 1 1
2  15 5 0 0 6.28318530717959
0

0101100
+8 0 -8 0 *
Ed
 0.003 1 1 0
1  8 0 0 5.9999980926729
3  16 17CN 5 0 0 5.9999980926729
0

0101000
+13 0 -8 0 *
Wi

0101000
+12 0 -7 0 -6 0 +6 0 *
Fa
0  0.003 5 0

0111000
+5 0 *
Sh

0101000
+24 0 +19 0 +14 0 +9 0 +4 0 *
So

0100000
-3 0 *
Co

1100000
+2 0 *

+1 0 
0

