DBRep_DrawableShape

CASCADE Topology V1, (c) Matra-Datavision
Locations 2
1
0.998629534754574               0 0.0523359562429444 -10.1930981995037 
              0               1               0               0 
-0.0523359562429444               0 0.998629534754574 10.7412842976741 
2  1 -1 0
Curve2ds 16
2 0 0 1 0 -0 1 200
1 0 100 1 0 
2 0 0 1 0 -0 1 150
1 0 0 1 0 
1 200 0 -1 -0 
1 199.72590695091478 -10.467191248588875 -0.99862953475457383 0.052335956242944369 
1 0 100 1 0 
2 0 0 -1 0 0 1 150
1 0 0 0 1 
1 6.2308254296197561 0 0 1 
2 0 0 -1 0 0 1 200
1 0 0 1 0 
1 -150 0 -1 0 
1 -149.7944302131861 -7.8503934364416352 -0.99862953475457383 -0.052335956242944369 
1 0 0 0 1 
1 6.2308254296197561 0 0 1 
Curves 8
2 200 50 200 0 -1 0 -1 0 0 -0 -0 -1 200
2 200 50 200 0 -1 0 -1 0 0 -0 -0 -1 150
1 0 50 200 1 0 0 
2 200 150 200 0 -1 0 -1 0 0 -0 -0 -1 150
1 50 50 200 0 1 0 
2 200 150 200 0 -1 0 -1 0 0 -0 -0 -1 200
1 50 150 200 -1 -0 0 
1 0 150 200 0 -1 -0 
Polygon3D 0
PolygonOnTriangulations 0
Surfaces 5
1 200 50 200 0 -1 0 -1 0 0 -0 -0 -1 
2 200 150 200 0 -1 0 -1 0 0 -0 -0 -1 200
2 200 50 200 -0 1 -0 -1 0 0 -0 -0 -1 150
1 200 150 200 0 -1 0 1 -0 -0 -0 -0 -1 
1 0 0 200 0 0 1 1 0 -0 -0 1 0 
Triangulations 0

TShapes 24
Ve
1e-07
0 50 200
0 0

0101101
*
Ed
 1e-07 1 1 0
1  1 0 0 6.23082542961976
2  1 1 0 0 6.23082542961976
2  2 2 0 0 6.23082542961976
0

0101100
+24 0 -24 1 *
Ve
1e-07
50 50 200
0 0

0101101
*
Ed
 1e-07 1 1 0
1  2 0 0 6.23082542961976
2  3 1 0 0 6.23082542961976
2  4 3 0 0 6.23082542961976
0

0101100
+22 0 -22 1 *
Ed
 1e-07 1 1 0
1  3 0 0 50
2  5 1 0 0 50
2  6 1 2 0 50
0

0101000
+24 0 -22 0 *
Wi

0101000
+23 0 -21 0 -20 0 +20 1 *
Fa
0  1e-07 1 0

0111000
+19 0 *
Ve
1e-07
50 150 200
0 0

0101101
*
Ed
 1e-07 1 1 0
1  4 0 0 6.23082542961976
2  7 3 0 0 6.23082542961976
2  8 4 0 0 6.23082542961976
0

0101100
+17 0 -17 1 *
Ed
 1e-07 1 1 0
1  5 0 0 100
2  9 3 0 0 100
2  10 3 2 0 100
0

0101000
+22 0 -17 0 *
Wi

0101000
+21 0 -16 0 -15 0 +15 1 *
Fa
0  1e-07 3 0

0111000
+14 0 *
Ve
1e-07
0 150 200
0 0

0101101
*
Ed
 1e-07 1 1 0
1  6 0 0 6.23082542961976
2  11 4 0 0 6.23082542961976
2  12 2 0 0 6.23082542961976
0

0101100
+12 0 -12 1 *
Ed
 1e-07 1 1 0
1  7 0 0 50
2  13 4 0 0 50
2  14 4 2 0 50
0

0101000
+17 0 -12 0 *
Wi

0101000
+16 0 -11 0 -10 0 +10 1 *
Fa
0  1e-07 4 0

0111000
+9 0 *
Ed
 1e-07 1 1 0
1  8 0 0 100
2  15 2 0 0 100
2  16 2 2 0 100
0

0101000
+12 0 -24 0 *
Wi

0101000
+11 0 -23 0 -7 0 +7 1 *
Fa
0  1e-07 2 0

0111000
+6 0 *
Wi

0101100
+20 0 +15 0 +10 0 +7 0 *
Fa
0  1e-07 5 0

0111000
+4 0 *
Sh

0101000
+18 0 +13 0 +8 0 +5 0 +3 0 -3 1 *
So

1100000
+2 0 *

+1 0 
0

