DBRep_DrawableShape

CASCADE Topology V1, (c) Matra-Datavision
Locations 0
Curve2ds 29
1 0 -4.6091812932337787e-16 1 0 
1 0 24.39999389649898 1 0 
1 0 0 1 0 
1 6.2831853071795862 0 0 1 
1 0 0 0 1 
1 0 32.231353759762904 1 0 
1 0 -2.512157329748584e-15 1 0 
1 6.2831853071795862 0 0 1 
1 0 0 0 1 
1 0 4.3397200521427006 1 0 
1 0 -3.5527136787997349e-15 1 0 
1 6.2831853071795862 0 0 1 
1 0 0 0 1 
1 0 11.431350708008544 1 0 
1 0 1.5707963159822658 1 0 
1 6.2831853071795862 0 0 1 
1 0 0 0 1 
1 0 3.1415926427771517 1 0 
1 0 0 1 0 
1 6.2831853071795862 1.5707963159822658 0 1 
1 0 1.5707963159822658 0 1 
1 0 5.299968719481372 1 0 
1 0 6.2831840464264657 1 0 
1 6.2831853071795862 0 0 1 
1 0 0 0 1 
1 0 7.8539794195471044 1 0 
2 0 0 1 3.7712642938704886e-24 -3.7712642938704886e-24 1 6.4000039100648047
1 6.2831853071795862 6.2831840464264657 0 1 
1 0 6.2831840464264657 0 1 
Curves 14
2 3.8736452113271845e-13 0 2.0000307814062026 1.081263439929372e-08 0 1 1 0 -1.081263439929372e-08 -0 1 0 24.399993896479618
1 0 0 2 0.99999999999921785 0 1.2507207227043445e-06 
2 3.4850623176312965e-07 0 34.231384541168289 1.081263439929372e-08 0 1 1 0 -1.081263439929372e-08 -0 1 0 24.40000117737377
1 24.399993896480002 0 2.0000305175780002 2.3670740161093607e-07 0 0.99999999999997202 
2 3.8168624931069346e-07 0 37.300018541198028 1.081263439929372e-08 0 1 1 1.0319308246401135e-22 -1.081263439929372e-08 -1.0319308246401133e-22 1 1.1157890732195225e-30 21.33134422280375
1 24.40000152588 0 34.231384277339998 -0.70710941823882789 5.0723252583197203e-22 0.70710414412443257 
2 3.8168633046802398e-07 0 37.30002604698501 1.081263439929372e-08 0 1 1 9.3178156536858368e-24 -1.081263439929372e-08 -9.3178156536858353e-24 1 1.0075013406332096e-31 9.8999935147976696
1 21.331344604489999 2.2012471634519999e-21 37.300018310550001 -0.99999999999977729 -1.8449270806037925e-22 6.6740931958656194e-07 
2 3.8709264760921429e-07 0 37.80002604157869 1.081263439929372e-08 0 1 1 0 -1.081263439929372e-08 -0 1 0 9.3999935093913525
2 9.8999938964840002 0 37.800025939939999 0 1 0 0 0 -1 -1 0 0 0.5
2 4.4439927170065971e-07 0 43.099994761060103 1.081263439929372e-08 0 1 1 -1.4383644788737023e-23 -1.081263439929372e-08 1.438364478873702e-23 1 -1.5552509242991974e-31 9.3999972667815168
1 9.3999938964840002 -2.3311526058270002e-23 37.800025939939999 7.1975858748722234e-07 -4.662308735248725e-23 0.99999999999974087 
2 4.7683721579470403e-07 0 46.099998543317191 1.081263439929372e-08 0 1 1 -3.7712639129007731e-24 -1.081263439929372e-08 3.7712639129007724e-24 1 -4.0777297913445926e-32 6.4000039100648047
2 6.3999977111820003 0 43.09999847412 0 -1 0 0.99999999999919165 0 -1.2715657552073054e-06 1.2715657552073054e-06 0 0.99999999999919165 3
Polygon3D 0
PolygonOnTriangulations 0
Surfaces 8
3 5.453642944363348e-14 0 1.9999999999999929 1.081263439929372e-08 0 1 1 0 -1.081263439929372e-08 -0 1 0 5.499735661279147e-14
1.5707950652615394
2 3.8736452113271845e-13 0 2.0000307814062026 1.081263439929372e-08 0 1 1 0 -1.081263439929372e-08 -0 1 0 24.399993896479618
3 3.4850623176312965e-07 0 34.231384541168289 1.081263439929372e-08 0 1 1 0 -1.081263439929372e-08 -0 1 0 24.40000117737377
-0.78540190357213635
3 3.8168624931069346e-07 0 37.300018541198028 1.081263439929372e-08 0 1 1 1.0319308246401135e-22 -1.081263439929372e-08 -1.0319308246401133e-22 1 1.1157890732195225e-30 21.33134422280375
-1.5707956701982115
5 3.8709264766767084e-07 0 37.80002604698501 -1.081263439929372e-08 -0 -1 1 0 -1.081263439929372e-08 -0 1 0 9.8999935093913543 0.5
2 3.8709264760921429e-07 0 37.80002604157869 1.081263439929372e-08 0 1 1 -2.4799512930492884e-24 -1.081263439929372e-08 2.479951293049288e-24 1 -2.6814806659797671e-32 9.3999935093913543
5 4.4439931259686216e-07 0 43.099998543320829 1.081263439929372e-08 0 1 1 0 -1.081263439929372e-08 -0 1 0 6.3999972667826883 3
1 4.7683721579474405e-07 0 46.099998543320901 -1.081263439929372e-08 -0 -1 1 -7.5425282067712617e-24 -1.081263439929372e-08 7.5425282067712603e-24 1 -8.1554599946178103e-32 
Triangulations 0

TShapes 41
Ve
0.003
0 0 2
0 0

0101101
*
Ed
 0.003 1 1 1
2  1 1 0 0 6.28318530717959
0

0101100
+41 0 -41 0 *
Ve
0.003
24.39999389648 0 2.000030517578
0 0

0101101
*
Ed
 0.003 1 1 0
1  1 0 0 6.28318530717959
2  2 1 0 0 6.28318530717959
2  3 2 0 0 6.28318530717959
0

0101100
+39 0 -39 0 *
Ed
 0.003 1 1 0
1  2 0 0 24.3999938964991
3  4 5CN 1 0 0 24.3999938964991
0

0101000
+41 0 -39 0 *
Wi

0101000
+40 0 -38 0 -37 0 +37 0 *
Fa
0  0.003 1 0

0111000
+36 0 *
Ve
0.003
24.40000152588 0 34.23138427734
0 0

0101101
*
Ed
 0.003 1 1 0
1  3 0 0 6.28318530717959
2  6 2 0 0 6.28318530717959
2  7 3 0 0 6.28318530717959
0

0101100
+34 0 -34 0 *
Ed
 0.003 1 1 0
1  4 0 0 32.2313537597629
3  8 9CN 2 0 0 32.2313537597629
0

0101000
+39 0 -34 0 *
Wi

0101000
+38 0 -33 0 -32 0 +32 0 *
Fa
0  0.003 2 0

0111000
+31 0 *
Ve
0.003
21.33134460449 2.201247163452e-21 37.30001831055
0 0

0101101
*
Ed
 0.003 1 1 0
1  5 0 0 6.28318530717959
2  10 3 0 0 6.28318530717959
2  11 4 0 0 6.28318530717959
0

0101100
+29 0 -29 0 *
Ed
 0.003 1 1 0
1  6 0 0 4.3397200521427
3  12 13CN 3 0 0 4.3397200521427
0

0101000
+34 0 -29 0 *
Wi

0101000
+33 0 -28 0 -27 0 +27 0 *
Fa
0  0.003 3 0

0111000
+26 0 *
Ve
0.003
9.899993896484 9.224631454357e-23 37.30002593994
0 0

0101101
*
Ed
 0.003 1 1 0
1  7 0 0 6.28318530717959
2  14 4 0 0 6.28318530717959
2  15 5 0 0 6.28318530717959
4 G1 4 0 5 0
0

0101100
+24 0 -24 0 *
Ed
 0.003 1 1 0
1  8 0 0 11.4313507080085
3  16 17CN 4 0 0 11.4313507080085
0

0101000
+29 0 -24 0 *
Wi

0101000
+28 0 -23 0 -22 0 +22 0 *
Fa
0  0.003 4 0

0111000
+21 0 *
Ve
0.003
9.399993896484 0 37.80002593994
0 0

0101101
*
Ed
 0.003 1 1 0
1  9 0 0 6.28318530717959
2  18 5 0 0 6.28318530717959
2  19 6 0 0 6.28318530717959
4 G1 5 0 6 0
0

0101100
+19 0 -19 0 *
Ed
 0.003 1 1 0
1  10 0 0 1.5707963267949
3  20 21CN 5 0 0 1.5707963267949
0

0101000
+24 0 -19 0 *
Wi

0101000
+23 0 -18 0 -17 0 +17 0 *
Fa
0  0.003 5 0

0111000
+16 0 *
Ve
0.003
9.39999771118079 -1.35206221700484e-22 43.0999946594214
0 0

0101101
*
Ed
 0.003 1 1 0
1  11 0 0 6.28318530717959
2  22 6 0 0 6.28318530717959
2  23 7 0 0 6.28318530717959
4 G1 6 0 7 0
0

0101100
+14 0 -14 0 *
Ed
 0.003 1 1 0
1  12 0 0 5.29996871948137
3  24 25CN 6 0 0 5.29996871948137
0

0101000
+19 0 -14 0 *
Wi

0101000
+18 0 -13 0 -12 0 +12 0 *
Fa
0  0.003 6 0

0111000
+11 0 *
Ve
0.003
6.40000438690202 -2.41361037884512e-23 46.0999984741163
0 0

0101101
*
Ed
 0.003 1 1 0
1  13 0 0 6.28318530717959
2  26 7 0 0 6.28318530717959
2  27 8 0 0 6.28318530717959
4 G1 7 0 8 0
0

0101100
+9 0 -9 0 *
Ed
 0.003 1 1 0
1  14 0 0 1.57079537312064
3  28 29CN 7 0 0 1.57079537312064
0

0101000
+14 0 -9 0 *
Wi

0101000
+13 0 -8 0 -7 0 +7 0 *
Fa
0  0.003 7 0

0111000
+6 0 *
Wi

0101000
+8 0 *
Fa
0  0.003 8 0

0111000
+4 0 *
Sh

0101000
-35 0 -30 0 -25 0 -20 0 -15 0 -10 0 -5 0 -3 0 *
So

1100000
-2 0 *

+1 0 
0

