DBRep_DrawableShape

CASCADE Topology V1, (c) Matra-Datavision
Locations 0
Curve2ds 12
1 0 0 0 1 
1 1 0 0 1 
1 0 0 1 0 
1 1 0 0 1 
1 0 0 0 1 
1 0 1 1 0 
1 0 0 1 0 
1 1 0 0 1 
1 0 0 0 1 
1 0 1 1 0 
1 0 0 1 0 
1 0 1 1 0 
Curves 9
6 0 1 -5.0000000000000044 -8.6602540378443837 1.0000000000000001e-09  -5.0000000000000044 -8.6602540378443837 49.999999999000003  
6 1 2 -5.0000000000000044 -8.6602540378443837 1.0000000000000001e-09  1 9.999999999999984 -17.320508075688778 1.0000000000000001e-09  0.5 10 0 1.0000000000000001e-09  1 
6 0 1 10 0 1.0000000000000001e-09  10 0 49.999999999000003  
6 1 2 -5.0000000000000044 -8.6602540378443837 49.999999999000003  1 9.999999999999984 -17.320508075688778 49.999999999000003  0.5 10 0 49.999999999000003  1 
6 1 2 10 0 1.0000000000000001e-09  1 10 17.320508075688767 1.0000000000000001e-09  0.5 -4.9999999999999982 8.6602540378443891 1.0000000000000001e-09  1 
6 0 1 -4.9999999999999982 8.6602540378443891 1.0000000000000001e-09  -4.9999999999999982 8.6602540378443891 49.999999999000003  
6 1 2 10 0 49.999999999000003  1 10 17.320508075688767 49.999999999000003  0.5 -4.9999999999999982 8.6602540378443891 49.999999999000003  1 
6 1 2 -4.9999999999999982 8.6602540378443891 1.0000000000000001e-09  1 -19.999999999999996 2.4492935982947061e-15 1.0000000000000001e-09  0.5 -5.0000000000000044 -8.6602540378443837 1.0000000000000001e-09  1 
6 1 2 -4.9999999999999982 8.6602540378443891 49.999999999000003  1 -19.999999999999996 2.4492935982947061e-15 49.999999999000003  0.5 -5.0000000000000044 -8.6602540378443837 49.999999999000003  1 
Polygon3D 0
PolygonOnTriangulations 0
Surfaces 3
8 0 1 2 1 -5.0000000000000044 -8.6602540378443837 1.0000000000000001e-09  1 -5.0000000000000044 -8.6602540378443837 49.999999999000003  1 
9.999999999999984 -17.320508075688778 1.0000000000000001e-09  0.5 9.999999999999984 -17.320508075688778 49.999999999000003  0.5 
10 0 1.0000000000000001e-09  1 10 0 49.999999999000003  1 

8 0 1 2 1 -4.9999999999999982 8.6602540378443891 1.0000000000000001e-09  1 -4.9999999999999982 8.6602540378443891 49.999999999000003  1 
-19.999999999999996 2.4492935982947061e-15 1.0000000000000001e-09  0.5 -19.999999999999996 2.4492935982947061e-15 49.999999999000003  0.5 
-5.0000000000000044 -8.6602540378443837 1.0000000000000001e-09  1 -5.0000000000000044 -8.6602540378443837 49.999999999000003  1 

8 0 1 2 1 10 0 1.0000000000000001e-09  1 10 0 49.999999999000003  1 
10 17.320508075688767 1.0000000000000001e-09  0.5 10 17.320508075688767 49.999999999000003  0.5 
-4.9999999999999982 8.6602540378443891 1.0000000000000001e-09  1 -4.9999999999999982 8.6602540378443891 49.999999999000003  1 

Triangulations 0

TShapes 22
Ve
1e-07
-5 -8.66025403784438 1.00000008274037e-09
0 0

0101101
*
Ve
1e-07
-5 -8.66025403784438 49.999999999
0 0

0101101
*
Ed
 1e-07 1 1 0
1  1 0 0 1
2  1 1 0 0 1
2  2 2 0 0 1
0

0101000
+22 0 -21 0 *
Ve
1e-07
10 0 1.00000008274037e-09
0 0

0101101
*
Ed
 1e-07 1 1 0
1  2 0 0 1
2  3 1 0 0 1
0

0101000
+22 0 -19 0 *
Ve
1e-07
10 0 49.999999999
0 0

0101101
*
Ed
 1e-07 1 1 0
1  3 0 0 1
2  4 1 0 0 1
2  5 3 0 0 1
0

0101000
+19 0 -17 0 *
Ed
 1e-07 1 1 0
1  4 0 0 1
2  6 1 0 0 1
0

0101000
+21 0 -17 0 *
Wi

0101000
-20 0 +18 0 +16 0 -15 0 *
Fa
0  1e-07 1 0

0111000
+14 0 *
Ve
1e-07
-5 8.66025403784439 1.00000008274037e-09
0 0

0101101
*
Ed
 1e-07 1 1 0
1  5 0 0 1
2  7 3 0 0 1
0

0101000
+19 0 -12 0 *
Ve
1e-07
-5 8.66025403784439 49.999999999
0 0

0101101
*
Ed
 1e-07 1 1 0
1  6 0 0 1
2  8 3 0 0 1
2  9 2 0 0 1
0

0101000
+12 0 -10 0 *
Ed
 1e-07 1 1 0
1  7 0 0 1
2  10 3 0 0 1
0

0101000
+17 0 -10 0 *
Wi

0101000
-16 0 +11 0 +9 0 -8 0 *
Fa
0  1e-07 3 0

0111000
+7 0 *
Ed
 1e-07 1 1 0
1  8 0 0 1
2  11 2 0 0 1
0

0101000
+12 0 -22 0 *
Ed
 1e-07 1 1 0
1  9 0 0 1
2  12 2 0 0 1
0

0101000
+10 0 -21 0 *
Wi

0101000
-9 0 +5 0 +20 0 -4 0 *
Fa
0  1e-07 2 0

0111000
+3 0 *
Sh

0101000
+13 0 +6 0 +2 0 *

+1 0 
0

