DBRep_DrawableShape

CASCADE Topology V1, (c) Matra-Datavision
Locations 13
1
              1               0               0              10 
              0               1               0              10 
              0               0               1             -50 
2  1 -1 0
1
              1               0               0               0 
              0 0.866025403784439            -0.5               0 
              0             0.5 0.866025403784439               0 
1
              1               0               0               0 
              0 0.866025403784439            -0.5               0 
              0             0.5 0.866025403784439               0 
1
              1               0               0            -200 
              0               1               0               0 
              0               0               1               0 
1
              1               0               0               0 
              0 1.11022302462516e-16              -1               0 
              0               1 1.11022302462516e-16               0 
1
              1               0               0               0 
              0 1.11022302462516e-16               1               0 
              0              -1 1.11022302462516e-16               0 
1
              1               0               0               0 
              0 1.11022302462516e-16              -1               0 
              0               1 1.11022302462516e-16               0 
2  3 1 4 1 5 1 6 1 7 1 8 1 0
2  3 1 4 1 5 1 6 1 7 1 0
1
              1               0               0               0 
              0               1               0              10 
              0               0               1              50 
2  11 -1 0
2  8 -1 7 -1 6 -1 5 -1 4 -1 3 -1 0
Curve2ds 50
8 0 259.80762113533149
1 1 0 0 -1 
8 0 259.80762113533149
1 0 0 1 -2.7755575615628907e-17 
8 0 1
1 0 0 1 0 
8 0 1
1 0 0 1 0 
8 0 1
1 0 -259.80762113533149 1 0 
8 0 1
6 0 2 -98.058067569092032 490.29033784546016  49.029033784546016 264.75678243654846  0 0  
8 0 259.80762113533149
1 0 0 0 -1 
8 0 259.80762113533149
1 1 0 0 -1 
7 0 0  4 5 2  0 0  55.601834717764042 -47.676192269848869  111.20366943553154 -95.35238453970068  166.80550415329435 -143.02857680954847  222.40733887106018 -190.70476907939883 
 0 5 1 5
7 0 0  4 5 2  0 200  72.168783648701975 212.49999999999977  144.33756729740833 225.00000000000034  216.5063509461088 237.49999999999983  288.67513459481302 250 
 0 5 1 5
8 0 250
1 259.80762113533166 5.3290705182007514e-14 -0.1924500897298751 -0.98130676292531638 
8 0 250
1 0 0 0 -1 
8 0 254.95097567963899
1 0 0 0 -1 
8 0 254.95097567963899
1 1 0 0 -1 
7 0 0  4 11 4  0.99999999999999989 0  0.98484207820671865 -20.482439081185532  0.9694199153064833 -41.321939140105286  0.9537216598100986 -62.534514733951369  0.92256582941162979 -104.63444154867088  0.90713674289761348 -125.48329727648988  0.89144124671235248 -146.69214429706744  0.85983051485328044 -189.40676563137981  0.84392628414517834 -210.89766926938512  0.82775704545037576 -232.74667014642031  0.811324865405187 -254.95097567963896 
 0 5 0.34733443229751043 3 0.67700107310174262 3 1 5
7 0 0  4 11 4  200 0  203.03158435820723 23.191795374892131  205.99347806864901 46.787882694661917  208.8784316392169 70.806394874630016  214.33365809372322 118.47517514610517  216.91246081969419 142.08185567490867  219.40573804191956 166.09614607699467  224.15334641446213 214.46093083601937  226.41148965768315 238.79458746834726  228.56906713924911 263.5337093804194  230.61536563608843 288.67513459481268 
 0 5 0.34733443229751043 3 0.67700107310174262 3 1 5
8 0 1
1 0 -254.95097567963899 1 0 
8 0 1
6 0 2 -98.058067569092032 490.2903378454601  49.029033784546016 264.75678243654846  0 0  
8 0 1
1 0 0 1 0 
8 0 1
6 0 2 0 0  254.95097567963927 0  490.2903378454601 98.058067569092032  
8 0 1
1 0 -259.80762113533149 1 0 
8 0 1
6 0 2 490.2903378454601 98.058067569092032  343.20323649182217 323.59162297800373  392.23227027636813 588.34840541455219  
8 0 1
1 0 -259.80762113533149 1 0 
8 0 1
6 0 2 392.23227027636813 588.34840541455219  147.08710135363805 539.31937163000612  -98.058067569092032 490.29033784546016  
8 0 259.80762113533149
1 0 0 0 -1 
8 0 259.80762113533149
1 1 0 0 -1 
8 0 1
1 0 0 1 0 
8 0 1
1 0 0 1 0 
7 0 0  1 2 2  0 0  0 1000 
 0 2 1000 2
7 0 0  1 2 2  0 0  1000 0 
 0 2 1000 2
7 0 0  4 5 2  0 0  55.601834717764035 -47.676192269848841  111.20366943553188 -95.35238453970095  166.80550415329427 -143.02857680954833  222.40733887106015 -190.70476907939883 
 0 5 1 5
7 0 0  4 5 2  0 700  72.168783648701933 712.49999999999977  144.33756729740875 725.00000000000034  216.5063509461086 737.49999999999977  288.67513459481302 750 
 0 5 1 5
7 0 0  4 53 18  1 -194.33756729740657  0.99227131820208125 -193.56469911761468  0.98454226272389622 -192.80772224212586  0.97681283925574347 -192.06664070739478  0.96060229366913596 -190.54582226106018  0.9521210978532002 -189.76932475926802  0.94363947487277378 -189.01197116203426  0.92595272988174004 -187.47266744917613  0.91674753361692851 -186.69411928491161  0.90754185682064104 -185.93812849432572  0.88818169317407425 -184.39575957792889  0.87802710512184134 -183.61426699225916  0.86787196600286265 -182.86023187039882  0.84623840378054849 -181.3124963225448  0.83475983334991144 -180.52641318112819  0.82328061292228272 -179.77542409878885  0.79828363266815638 -178.21660853536173  0.78476563426115598 -177.42234755553642  0.77124683298452901 -176.67677393381226  0.74034875141246204 -175.0841181673031  0.72296898731182568 -174.26880720286638  0.70558812805438642 -173.53400243313183  0.66160616172737119 -171.87846557383907  0.6350037884119033 -171.06580341346267  0.60839975645377609 -170.44183518698648  0.55404562393484313 -169.55265904614362  0.52629543017253433 -169.30403169357638  0.49854487162483779 -169.26077191041409  0.44113590131890529 -169.59610099396568  0.41147754020672539 -170.00390943285748  0.38182056442344836 -170.64626469331631  0.33161027878138416 -172.13082417204674  0.3110558183072934 -172.85122919704372  0.29050269091186481 -173.68424287176921  0.25510894394066852 -175.31270119084061  0.24026757617109351 -176.05429329567298  0.2254271105113374 -176.85457341872137  0.19833751815428746 -178.42258608911789  0.18608808031500562 -179.1716312241237  0.1738393501666913 -179.96064293189477  0.1509159497203427 -181.51213826546649  0.14024110055221889 -182.26502102364447  0.12956684122786924 -183.04824713302258  0.1093059220063814 -184.59256197839741  0.099719144009241062 -185.34779012127254  0.09013287479639677 -186.12748467597646  0.071770152686763025 -187.66794398040514  0.06299361532033447 -188.42475548817518  0.054217526798421678 -189.20206747040368  0.0340802498238559 -191.03277995586825  0.022719371366354293 -192.10003903586855  0.011359282077227572 -193.20163908968379  0 -194.33756729740657 
 0 5 0.030942077137333414 3 0.064890283363622861 3 0.10173084933843546 3 0.14236456229253891 3 0.18828859732880721 3 0.24236268157968144 3 0.31187158228188377 3 0.41824422342122236 3 0.5291910082289869 3 0.64776870672999398 3 0.72996212519121217 3 0.78932158779739869 3 0.83832324611487674 3 0.88103337286592553 3 0.91939641131790895 3 0.95452267393639878 3 1 5
7 0 0  4 53 18  288.67513459481296 750  288.67513459481296 746.13565910104057  288.67513459481279 742.27113136194805  288.6751345948129 738.40641962787186  288.6751345948129 730.30114683456804  288.6751345948129 726.06054892660018  288.6751345948129 721.81973743638696  288.6751345948129 712.9763649408701  288.6751345948129 708.3737668084641  288.6751345948129 703.77092841032049  288.6751345948129 694.09084658703705  288.6751345948129 689.01355256092063  288.6751345948129 683.9359830014314  288.6751345948129 673.11920189027433  288.67513459481302 667.37991667495544  288.6751345948129 661.64030646114134  288.6751345948129 649.14181633407816  288.6751345948129 642.38281713057813  288.6751345948129 635.62341649226437  288.6751345948129 620.17437570623099  288.67513459481302 611.48449365591273  288.67513459481296 602.79406402719314  288.67513459481296 580.80308086368564  288.67513459481279 567.50189420595188  288.6751345948129 554.1998782268879  288.6751345948129 527.02281196742149  288.6751345948129 513.14771508626723  288.6751345948129 499.27243581241896  288.6751345948129 470.56795065945266  288.6751345948129 455.73877010336258  288.6751345948129 440.91028221172417  288.6751345948129 415.80513939069215  288.67513459481296 405.52790915364665  288.6751345948129 395.25134545593244  288.6751345948129 377.5544719703343  288.67513459481296 370.13378808554671  288.6751345948129 362.71355525566872  288.6751345948129 349.16875907714376  288.6751345948129 343.04404015750276  288.6751345948129 336.91967508334568  288.6751345948129 325.45797486017136  288.67513459481279 320.12055027610938  288.67513459481296 314.7834206139346  288.67513459481296 304.65296100319068  288.67513459481279 299.85957200462053  288.6751345948129 295.06643739819839  288.6751345948129 285.88507634338151  288.6751345948129 281.49680766016712  288.6751345948129 277.10876339921089  288.6751345948129 267.04012491192799  288.67513459481279 261.35968568317713  288.67513459481296 255.67964103861379  288.67513459481296 250 
 0 5 0.030942077137333414 3 0.064890283363622861 3 0.10173084933843546 3 0.14236456229253891 3 0.18828859732880721 3 0.24236268157968144 3 0.31187158228188377 3 0.41824422342122236 3 0.5291910082289869 3 0.64776870672999398 3 0.72996212519121217 3 0.78932158779739869 3 0.83832324611487674 3 0.88103337286592553 3 0.91939641131790895 3 0.95452267393639878 3 1 5
8 0 250
1 259.80762113533166 5.3290705182007514e-14 -0.1924500897298751 -0.98130676292531638 
8 0 250
1 1 0 0 -1 
8 0 254.95097567963899
1 0 0 0 -1 
8 0 254.95097567963899
1 1 0 0 -1 
8 0 1
1 0 -254.95097567963899 1 0 
8 0 1
6 0 2 392.23227027636813 588.34840541455219  147.08710135363802 539.31937163000612  -98.058067569092032 490.2903378454601  
7 0 0  4 11 4  0 0  0.015157921793281169 -20.482439081185333  0.030580084693516772 -41.321939140105684  0.046278340189901283 -62.534514733951369  0.077434170588369766 -104.63444154867045  0.092863257102387117 -125.48329727649067  0.10855875328764698 -146.6921442970669  0.14016948514671956 -189.4067656313801  0.15607371585482135 -210.89766926938449  0.17224295454962424 -232.7466701464206  0.18867513459481283 -254.95097567963896 
 0 5 0.34733443229751659 3 0.67700107310174795 3 1 5
7 0 0  4 11 4  700 0  696.96841564179283 23.191795374891893  694.00652193135102 46.787882694662301  691.12156836078316 70.806394874630016  685.6663419062769 118.47517514610469  683.08753918030573 142.08185567490943  680.59426195808055 166.09614607699405  675.84665358553787 214.46093083601966  673.58851034231702 238.79458746834661  671.43093286075089 263.53370938041974  669.38463436391157 288.67513459481268 
 0 5 0.34733443229751659 3 0.67700107310174795 3 1 5
1 -116.55918666579772 72.893981969710154 0.98058067569092022 0.19611613513818404 
1 100 288.67513459481296 1 0 
8 0 1
1 0 -254.95097567963899 1 0 
8 0 1
6 0 2 490.2903378454601 98.058067569092032  343.20323649182217 323.59162297800367  392.23227027636813 588.34840541455219  
8 0 259.80762113533149
1 0 0 0 -1 
8 0 259.80762113533149
1 0 0 1 -2.7755575615628907e-17 
8 0 1
1 0 0 1 0 
8 0 1
1 0 0 1 0 
Curves 25
1 0 0 0 0.19245008972987507 0.19245008972987507 -0.96225044864937637 
6 0 2 0 500 0  100 250 0  0 0 0  
6 0 2 40 540 -200  140 290 -200  40 40 -200  
1 0 500 0 0.19245008972987507 0.19245008972987507 -0.96225044864937637 
7 0 0  4 5 2  0 0 0  12.499999999999782 -36.084391824351016 -62.499999999998892  25.000000000000348 -72.168783648704235 -125.00000000000166  37.499999999999837 -108.25317547305443 -187.4999999999992  50.000000000000007 -144.33756729740657 -250.00000000000006 
 0 5 1 5
1 50 50 -250 0 -1 0 
1 0 500 0 0 0.19611613513818404 0.98058067569092022 
7 0 0  4 11 4  0 0 0  3.0315843582072315 11.595897687446067 20.084683954027028  5.9934780686490035 23.393941347330948 40.519495002863536  8.8784316392169131 35.403197437315043 61.320136711821839  14.333658093723228 59.237587573052629 102.6025113943378  16.912460819694179 71.040927837454333 123.0464964313051  19.405738041919577 83.04807303849735 143.84348197336837  24.153346414462121 107.2304654180097 185.72861422325022  26.411489657683134 119.39729373417367 206.80217903381384  28.569067139249121 131.76685469020975 228.22688707698859  30.615365636088423 144.33756729740639 249.99999999999977 
 0 5 0.34733443229751043 3 0.67700107310174262 3 1 5
6 0 2 0 540 200  100 290 200  0 40 200  
6 0 2 40 40 -200  290 -10 -200  540 40 -200  
6 0 2 540 40 -200  440 290 -200  540 540 -200  
6 0 2 540 540 -200  290 540 -200  40 540 -200  
1 500 500 0 0.19245008972987507 0.19245008972987507 -0.96225044864937637 
6 0 2 500 500 0  250 500 0  0 500 0  
7 0 0  1 2 2  0 0 0  1000 0 0 
 0 2 1000 2
7 0 0  4 5 2  500 0 0  512.49999999999977 -36.084391824350988 -62.499999999998863  525.00000000000023 -72.168783648704462 -125.00000000000209  537.49999999999977 -108.25317547305434 -187.49999999999903  550 -144.33756729740657 -250.00000000000006 
 0 5 1 5
7 0 0  4 53 18  550 -144.33756729740654 -250  546.13565910104057 -144.33756729740654 -250  542.27113136194816 -144.33756729740645 -250  538.40641962787186 -144.33756729740651 -250  530.30114683456804 -144.33756729740651 -250  526.06054892660018 -144.33756729740651 -250  521.81973743638684 -144.33756729740651 -250  512.9763649408701 -144.33756729740651 -250  508.3737668084641 -144.33756729740651 -250  503.77092841032049 -144.33756729740651 -250  494.09084658703711 -144.33756729740651 -250  489.01355256092074 -144.33756729740651 -250  483.93598300143128 -144.33756729740651 -250  473.11920189027427 -144.33756729740651 -250  467.37991667495567 -144.33756729740654 -250  461.64030646114128 -144.33756729740651 -250  449.14181633407821 -144.33756729740651 -250  442.38281713057813 -144.33756729740651 -250  435.62341649226443 -144.33756729740651 -250  420.17437570623099 -144.33756729740651 -250  411.4844936559129 -144.33756729740657 -250  402.7940640271932 -144.33756729740654 -250  380.80308086368558 -144.33756729740654 -250  367.50189420595188 -144.33756729740645 -250  354.19987822688796 -144.33756729740651 -250  327.02281196742149 -144.33756729740651 -250  313.14771508626711 -144.33756729740651 -250  299.27243581241896 -144.33756729740651 -250  270.56795065945266 -144.33756729740651 -250  255.73877010336261 -144.33756729740651 -250  240.91028221172419 -144.33756729740651 -250  215.80513939069212 -144.33756729740651 -250  205.52790915364659 -144.33756729740651 -250  195.25134545593244 -144.33756729740651 -250  177.5544719703343 -144.33756729740651 -250  170.13378808554671 -144.33756729740654 -250  162.71355525566869 -144.33756729740651 -250  149.16875907714376 -144.33756729740651 -250  143.04404015750276 -144.33756729740651 -250  136.91967508334568 -144.33756729740651 -250  125.45797486017135 -144.33756729740651 -250  120.12055027610943 -144.33756729740645 -250  114.78342061393462 -144.33756729740654 -250  104.6529610031907 -144.33756729740654 -250  99.859572004620532 -144.33756729740645 -250  95.066437398198374 -144.33756729740651 -250  85.885076343381513 -144.33756729740651 -250  81.496807660167235 -144.33756729740651 -250  77.108763399210829 -144.33756729740651 -250  67.040124911927947 -144.33756729740651 -250  61.35968568317714 -144.33756729740645 -250  55.679641038613788 -144.33756729740654 -250  50 -144.33756729740654 -250 
 0 5 0.030942077137333414 3 0.064890283363622861 3 0.10173084933843546 3 0.14236456229253891 3 0.18828859732880721 3 0.24236268157968144 3 0.31187158228188377 3 0.41824422342122236 3 0.5291910082289869 3 0.64776870672999398 3 0.72996212519121217 3 0.78932158779739869 3 0.83832324611487674 3 0.88103337286592553 3 0.91939641131790895 3 0.95452267393639878 3 1 5
1 550 50 -250 0 -1 0 
1 500 500 0 0 0.19611613513818404 0.98058067569092022 
6 0 2 500 540 200  250 540 200  0 540 200  
7 0 0  4 11 4  500 0 0  496.96841564179283 11.595897687445948 20.084683954026822  494.00652193135102 23.393941347331161 40.519495002863856  491.12156836078316 35.403197437315022 61.320136711821846  485.6663419062769 59.237587573052359 102.60251139433738  483.08753918030573 71.040927837454745 123.04649643130577  480.59426195808049 83.048073038497066 143.84348197336783  475.84665358553787 107.23046541800989 185.72861422325045  473.58851034231697 119.39729373417333 206.80217903381327  471.43093286075089 131.7668546902099 228.22688707698887  469.38463436391163 144.33756729740637 249.99999999999977 
 0 5 0.34733443229751659 3 0.67700107310174795 3 1 5
1 -100 144.33756729740654 250 1 0 -0 
6 0 2 500 40 200  400 290 200  500 540 200  
1 500 0 0 0.19245008972987507 0.19245008972987507 -0.96225044864937637 
6 0 2 500 0 0  400 250 0  500 500 0  
Polygon3D 0
PolygonOnTriangulations 0
Surfaces 15
6 -0.19245008972987507 -0.19245008972987507 0.96225044864937637 
6 0 2 0 500 0  100 250 0  0 0 0  
1 0 0 0 0.98058067569092022 0 0.19611613513818404 0.19245008972987529 0.1924500897298751 -0.96225044864937648 -0.03774256780481982 0.98130676292531638 0.1887128390240991 
6 0 -0.19611613513818404 -0.98058067569092022 
6 0 2 0 500 0  100 250 0  0 0 0  
1 40 40 -200 0 0 1 0.98058067569092022 -0.19611613513818404 0 0.19611613513818404 0.98058067569092022 0 
6 -0.19245008972987507 -0.19245008972987507 0.96225044864937637 
6 0 2 500 500 0  250 500 0  0 500 0  
9 0 0 0 0 1 1 2 2 2 2 1.0000000000000001e-09 0 1.0000000000000001e-09  999.99999999900001 0 1.0000000000000001e-09  
1.0000000000000001e-09 0 999.99999999900001  999.99999999900001 0 999.99999999900001  

1.0000000000000001e-09 2
999.99999999900001 2

1.0000000000000001e-09 2
999.99999999900001 2

9 0 0 0 0 2 2 5 5 4 4 -1614.2135623692664 707.10678118463363 1224.7448713882732  -907.10678118413318 707.10678118463363 1224.7448713882732  300 707.10678118463363 1224.7448713882732  1507.1067811841331 707.10678118463363 1224.7448713882732  2214.2135623692661 707.10678118463363 1224.7448713882732  
-1614.2135623692664 353.55339059206676 612.37243569370344  -907.10678118413318 353.55339059206676 612.37243569370344  300 353.55339059206676 612.37243569370344  1507.1067811841331 353.55339059206676 612.37243569370344  2214.2135623692661 353.55339059206676 612.37243569370344  
-1614.2135623692664 -250.00000000000011 -433.01270189221924  -907.10678118413318 -250.00000000000011 -433.01270189221924  300 -250.00000000000011 -433.01270189221924  1507.1067811841331 -250.00000000000011 -433.01270189221924  2214.2135623692661 -250.00000000000011 -433.01270189221924  
-1614.2135623692664 -853.55339059206688 -1478.397839478142  -907.10678118413318 -853.55339059206688 -1478.397839478142  300 -853.55339059206688 -1478.397839478142  1507.1067811841331 -853.55339059206688 -1478.397839478142  2214.2135623692661 -853.55339059206688 -1478.397839478142  
-1614.2135623692664 -1207.1067811846337 -2090.7702751727115  -907.10678118413318 -1207.1067811846337 -2090.7702751727115  300 -1207.1067811846337 -2090.7702751727115  1507.1067811841331 -1207.1067811846337 -2090.7702751727115  2214.2135623692661 -1207.1067811846337 -2090.7702751727115  

-1414.2135623692661 3
1.0000000000000001e-09 1
999.99999999900001 1
2414.2135623692666 3

-1414.2135623692664 3
1.0000000000000001e-09 1
999.99999999900001 1
2414.2135623692661 3

6 0 1 0 
6 0 2 50 50 -250  300 0 -250  550 50 -250  
6 0 -0.19611613513818404 -0.98058067569092022 
6 0 2 500 500 0  250 500 0  0 500 0  
1 0 0 0 0 0 1 1 0 -0 -0 1 0 
1 0 40 200 0 0 1 0.98058067569092022 -0.19611613513818404 0 0.19611613513818404 0.98058067569092022 0 
6 -0.19245008972987507 -0.19245008972987507 0.96225044864937637 
6 0 2 500 0 0  400 250 0  500 500 0  
9 0 0 0 0 1 1 2 2 2 2 1.0000000000000001e-09 1.0000000000000001e-09 0  1.0000000000000001e-09 999.99999999900001 0  
999.99999999900001 1.0000000000000001e-09 0  999.99999999900001 999.99999999900001 0  

1.0000000000000001e-09 2
999.99999999900001 2

1.0000000000000001e-09 2
999.99999999900001 2

1 500 0 0 0.98058067569092022 0 0.19611613513818404 0.19245008972987529 0.1924500897298751 -0.96225044864937648 -0.03774256780481982 0.98130676292531638 0.1887128390240991 
6 0 -0.19611613513818404 -0.98058067569092022 
6 0 2 500 0 0  400 250 0  500 500 0  
Triangulations 0

TShapes 68
Ve
5.29464760941068e-06
0 0 0
0 0

0101101
*
Ve
5e-07
50 50 -250
0 0

0101101
*
Ed
 5e-07 1 1 0
1  1 0 0 259.807621135331
2  1 1 0 0 259.807621135331
2  2 2 0 0 259.807621135331
0

0101000
+68 0 -67 0 *
Ve
5e-07
0 500 0
0 0

0101101
*
Ed
 5e-07 1 1 0
1  2 0 0 1
2  3 1 0 0 1
2  4 3 0 0 1
0

0101000
+65 0 -68 0 *
Ve
5e-07
50 550 -250
0 0

0101101
*
Ed
 5e-07 1 1 0
1  3 0 0 1
2  5 1 2 0 1
2  6 4 0 0 1
0

0101000
+63 2 -67 2 *
Ed
 5e-07 1 1 0
1  4 0 0 259.807621135331
2  7 1 0 0 259.807621135331
2  8 5 0 0 259.807621135331
0

0101000
+65 0 -63 0 *
Wi

0101000
-66 0 -64 0 +62 1 +61 0 *
Fa
0  5e-07 1 0

0111000
+60 0 *
Ve
5e-07
50 -144.337567297407 -250
0 0

0101101
*
Ed
 5e-07 1 1 0
1  5 0 0 1
2  9 2 0 0 1
2  10 6 9 0 1
2  10 7 0 0 1
0

0101000
+68 0 -58 0 *
Ed
 5e-07 1 1 0
1  6 0 0 194.337567297407
2  11 2 0 0 194.337567297407
2  12 8 0 0 194.337567297407
0

0101000
+67 0 -58 0 *
Wi

0101000
-66 0 +57 0 -56 0 *
Fa
0  5e-07 2 0

0111000
+55 0 *
Ve
5e-07
0 550 250
0 0

0101101
*
Ed
 5e-07 1 1 0
1  7 0 0 254.950975679639
2  13 3 0 0 254.950975679639
2  14 9 0 0 254.950975679639
0

0101000
+65 0 -53 0 *
Ve
1.59127189185426e-06
30.6153656360885 144.337567297407 250
0 0

0101101
*
Ed
 1.59127189185426e-06 1 1 0
1  8 0 0 1
2  15 3 0 0 1
2  16 10 10 0 1
0

0101000
+68 0 -51 0 *
Ed
 5e-07 1 1 0
1  9 0 0 0.811324865405187
2  17 3 12 0 0.811324865405187
2  18 11 0 0 0.811324865405187
0

0101000
+53 12 -51 12 *
Wi

0101000
-64 0 +52 0 -50 0 +49 11 *
Fa
0  5e-07 3 0

0111000
+48 0 *
Ve
5e-07
550 50 -250
0 0

0101101
*
Ed
 5e-07 1 1 0
1  10 0 0 1
2  19 8 2 0 1
2  20 4 0 0 1
0

0101000
+67 2 -46 2 *
Ve
5e-07
550 550 -250
0 0

0101101
*
Ed
 5e-07 1 1 0
1  11 0 0 1
2  21 12 2 0 1
2  22 4 0 0 1
0

0101000
+46 2 -44 2 *
Ed
 5e-07 1 1 0
1  12 0 0 1
2  23 5 2 0 1
2  24 4 0 0 1
0

0101000
+44 2 -63 2 *
Wi

0101100
+45 0 +43 0 +42 0 +62 0 *
Fa
0  5e-07 4 0

0111000
+41 0 *
Ve
5e-07
500 500 0
0 0

0101101
*
Ed
 5e-07 1 1 0
1  13 0 0 259.807621135331
2  25 5 0 0 259.807621135331
2  26 12 0 0 259.807621135331
0

0101000
+39 0 -44 0 *
Ed
 5e-07 1 1 0
1  14 0 0 1
2  27 5 0 0 1
2  28 9 0 0 1
0

0101000
+39 0 -65 0 *
Wi

0101000
+38 0 -61 0 -37 0 +42 1 *
Fa
0  5e-07 5 0

0111000
+36 0 *
Ve
5.29464760941068e-06
500 0 0
0 0

0101101
*
Ed
 1e-07 1 1 0
1  15 0 200 700
2  29 6 0 200 700
2  30 13 0 200 700
2  29 7 13 200 700
0

0101000
+68 13 -34 13 *
Ve
5e-07
550 -144.337567297407 -250
0 0

0101101
*
Ed
 5e-07 1 1 0
1  16 0 0 1
2  31 14 0 0 1
2  32 6 9 0 1
0

0101000
+34 0 -32 0 *
Ed
 5e-07 1 1 0
1  17 0 0 1
2  33 8 0 0 1
2  34 6 9 0 1
2  34 7 0 0 1
0

0101000
+32 0 -58 0 *
Wi

0101000
-33 9 +57 0 -31 0 -30 0 *
Fa
0  1e-07 6 9

0111000
+29 0 *
Ed
 5e-07 1 1 0
1  18 0 0 194.337567297407
2  35 14 0 0 194.337567297407
2  36 8 0 0 194.337567297407
0

0101000
+46 0 -32 0 *
Wi

0101000
+56 0 -45 1 -30 0 -27 0 *
Fa
0  5e-07 8 0

0111000
+26 0 *
Ve
5e-07
500 550 250
0 0

0101101
*
Ed
 5e-07 1 1 0
1  19 0 0 254.950975679639
2  37 9 0 0 254.950975679639
2  38 15 0 0 254.950975679639
0

0101000
+39 0 -24 0 *
Ed
 5e-07 1 1 0
1  20 0 0 1
2  39 9 12 0 1
2  40 11 0 0 1
0

0101000
+24 12 -53 12 *
Wi

0101000
+23 0 -52 0 -37 0 +22 11 *
Fa
0  5e-07 9 0

0111000
+21 0 *
Ve
1.59127189931496e-06
469.384634363912 144.337567297406 250
0 0

0101101
*
Ed
 1.59127189931496e-06 1 1 0
1  21 0 0 1
2  41 15 0 0 1
2  42 10 10 0 1
0

0101000
+34 0 -19 0 *
Ed
 5e-07 1 1 0
1  22 0 130.615365636088 569.384634363912
2  43 11 11 130.615365636088 569.384634363912
2  44 10 10 130.615365636088 569.384634363912
0

0101000
+51 0 -19 0 *
Wi

0101000
+33 9 -50 0 +18 0 -17 0 *
Fa
0  1e-07 10 10

0111000
+16 0 *
Ed
 5e-07 1 1 0
1  23 0 0.188675134594813 1
2  45 15 12 0.188675134594813 1
2  46 11 0 0.188675134594813 1
0

0101000
+19 12 -24 12 *
Wi

0101000
+14 11 +17 0 +22 11 +49 11 *
Fa
0  5e-07 11 11

0111000
+13 0 *
Ed
 5e-07 1 1 0
1  24 0 0 259.807621135331
2  47 12 0 0 259.807621135331
2  48 14 0 0 259.807621135331
0

0101000
+34 0 -46 0 *
Ed
 5e-07 1 1 0
1  25 0 0 1
2  49 12 0 0 1
2  50 15 0 0 1
0

0101000
+34 0 -39 0 *
Wi

0101000
+11 0 -10 0 +43 1 -38 0 *
Fa
0  5e-07 12 0

0111000
+9 0 *
Wi

0101000
-11 0 +31 0 -27 0 *
Fa
0  5e-07 14 0

0111000
+7 0 *
Wi

0101000
-10 0 +18 0 -23 0 +14 11 *
Fa
0  5e-07 15 0

0111000
+5 0 *
Sh

0101100
+59 0 -54 0 -47 0 -40 1 +35 0 +28 0 -25 0 -20 0 +15 0 +12 0 
+8 0 +6 0 -4 0 *
So

0100000
+3 0 *
Co

1100000
+2 0 *

+1 0 
0

