DBRep_DrawableShape

CASCADE Topology V1, (c) Matra-Datavision
Locations 0
Curve2ds 6
1 0 26.999999046319999 1 0 
2 0 0 1 0 -0 1 3.6199989318799979
1 6.2831853071795862 -0 0 1 
1 0 -0 0 1 
1 0 0 1 0 
2 0 0 1 0 -0 1 3.6199989318799979
Curves 3
2 38.54999923706 15.000003814699999 15.69999885559 0 0 1 1 0 -0 -0 1 0 3.6199989318799979
1 42.169998168939998 15.000003814699998 -11.30000019073 0 0 1 
2 38.54999923706 15.000003814699999 -11.30000019073 0 0 1 1 0 -0 -0 1 0 3.6199989318799979
Polygon3D 0
PolygonOnTriangulations 0
Surfaces 3
2 38.54999923706 15.000003814699999 -11.30000019073 0 0 1 1 0 -0 -0 1 0 3.6199989318799979
1 38.54999923706 15.000003814699999 15.69999885559 0 0 1 1 0 -0 -0 1 0 
1 38.54999923706 15.000003814699999 -11.30000019073 0 0 1 1 0 -0 -0 1 0 
Triangulations 0

TShapes 14
Ve
1e-07
42.16999816894 15.0000038147 15.69999885559
0 0

0101101
*
Ed
 1e-07 1 1 0
1  1 0 0 6.28318530717959
2  1 1 0 0 6.28318530717959
2  2 2 0 0 6.28318530717959
0

0101100
+14 0 -14 0 *
Ve
1e-07
42.16999816894 15.0000038147 -11.30000019073
0 0

0101101
*
Ed
 1e-07 1 1 0
1  2 0 0 26.99999904632
3  3 4CN 1 0 0 26.99999904632
0

0101000
-14 0 +12 0 *
Ed
 1e-07 1 1 0
1  3 0 0 6.28318530717959
2  5 1 0 0 6.28318530717959
2  6 3 0 0 6.28318530717959
0

0101100
+12 0 -12 0 *
Wi

0101000
-13 0 +11 0 +10 0 -11 0 *
Fa
0  1e-07 1 0

0111000
+9 0 *
Wi

0101000
+13 0 *
Fa
0  1e-07 2 0

0111000
+7 0 *
Wi

0101000
-10 0 *
Fa
0  1e-07 3 0

0111000
-5 0 *
Sh

0101100
+8 0 +6 0 -4 0 *
So

0100100
+3 0 *
Co

1100000
+2 0 *

+1 0 
0

