DBRep_DrawableShape

CASCADE Topology V1, (c) Matra-Datavision
Locations 0
Curve2ds 45
1 0 -1.2171080337180682e-15 1 0 
1 0 21.600013732909961 1 0 
1 0 0 1 0 
1 6.2831853071795862 0 0 1 
1 0 0 0 1 
1 0 30.73138427734213 1 0 
1 0 0 1 0 
1 6.2831853071795862 0 0 1 
1 0 0 0 1 
1 0 6.8334844468896954 1 0 
2 0 0 1 0 -0 1 14.999363531125004
1 6.2831853071795862 0 0 1 
1 0 0 0 1 
2 0 0 1 -3.0727188148400944e-10 3.0727188148400944e-10 1 9.8999982967510043
1 0 1.5707963381211931 1 0 
1 0 3.1415926649160859 1 0 
1 0 0 1 0 
1 6.2831853071795862 1.5707963381211931 0 1 
1 0 1.5707963381211931 0 1 
1 0 2.4000148773247338 1 0 
1 0 -1.7763568391412284e-15 1 0 
1 6.2831853071795862 0 0 1 
1 0 0 0 1 
1 0 1.8999786379716805 1 0 
1 0 3.0767450614001873e-15 1 0 
1 6.2831853071795862 0 0 1 
1 0 0 0 1 
1 0 1.800041011080006 1 0 
1 0 0 1 0 
1 6.2831853071795862 0 0 1 
1 0 0 0 1 
1 0 8.4411392211902143 1 0 
2 0 0 1 0 -0 1 6.6000004097855589
1 6.2831853071795862 0 0 1 
1 0 0 0 1 
2 0 0 1 0 -0 1 5.4500017449295584
1 0 -6.2803798882560927e-16 1 0 
1 0 0.42426366410242683 1 0 
1 0 0 1 0 
1 6.2831853071795862 0 0 1 
1 0 0 0 1 
1 0 2.2000007629408271 1 0 
2 0 0 1 0 -0 1 5.1499996185298107
1 6.2831853071795862 0 0 1 
1 0 0 0 1 
Curves 22
2 2.2903000411411635e-14 0 2.0000002446482057 1.1326298950583333e-08 0 1 1 0 -1.1326298950583333e-08 -0 1 0 21.600013732909979
1 0 0 2 1 0 0 
2 3.480728683934081e-07 0 32.731384521988076 1.1326298950583333e-08 0 1 1 -9.5760928024826559e-09 -1.1326298950583333e-08 9.5760928024826542e-09 1 -1.0846168985944788e-16 21.600001940747134
1 21.60001373291 0 2 -3.7239096995833883e-07 -6.7306965820899665e-09 0.99999999999993072 
2 3.6810499718856318e-07 0 34.500023058067271 1.1326298950583333e-08 0 1 1 0 -1.1326298950583333e-08 -0 1 0 14.999363531125004
1 21.600002288820001 -2.0684362311839999e-07 32.731384277339998 -0.96592572074914496 3.0269129128192603e-08 0.25881943898255411 
2 3.6810499649993619e-07 0 34.500022997268331 1.1326298950583333e-08 0 1 1 -3.0727188148400954e-10 -1.1326298950583333e-08 3.0727188148400949e-10 1 -3.4802531887961026e-18 9.8999982967510025
2 3.6244184699495664e-07 0 34.000022994647189 1.1326298950583333e-08 0 1 1 -3.2361613318796989e-10 -1.1326298950583333e-08 3.2361613318796984e-10 1 -3.6653730697187386e-18 9.3999983054561547
2 9.8999986648559997 -6.0839822069170003e-09 34.000022888179998 0 -1 0 0 0 1 -1 0 0 0.49999999391599997
2 3.3525856100858216e-07 0 31.600008117327139 1.1326298950583333e-08 0 1 1 0 -1.1326298950583333e-08 -0 1 0 9.3999935612254397
1 9.3999986648559997 8.5400955736940004e-22 34.000022888179998 -1.9868093504446741e-06 -3.5583510978955006e-22 -0.99999999999802636 
2 3.3525819351050597e-07 0 31.59997567088741 1.1326298950583333e-08 0 1 1 0 -1.1326298950583333e-08 -0 1 0 7.5000149235308076
1 9.3999938964840002 0 31.600008010860002 -0.99999999985437693 0 -1.7065939244015009e-05 
2 3.5291457583655767e-07 0 33.158859327683558 1.1326298950583333e-08 0 1 1 1.2887100689837206e-22 -1.1326298950583333e-08 -1.2887100689837203e-22 1 1.4596315501936485e-30 6.5999985980434248
1 7.5000152587890003 0 31.599975585940001 -0.49999766799257528 4.7251615914427387e-22 0.86602675016536679 
2 4.4852144213924998e-07 0 41.599998548873579 1.1326298950583333e-08 0 1 1 0 -1.1326298950583333e-08 -0 1 0 6.6000004097855589
1 6.5999989509579997 8.5054846485769998e-22 33.15885925293 2.2595871843106817e-07 -1.0076228368826397e-22 0.99999999999997458 
2 4.4852144199172236e-07 0 41.59999853584835 1.1326298950583333e-08 0 1 1 0 -1.1326298950583333e-08 -0 1 0 5.4500017449295575
2 4.5191932299712529e-07 0 41.899997769510456 1.1326298950583333e-08 0 1 1 0 -1.1326298950583333e-08 -0 1 0 5.1500015507966772
1 5.4500021934509997 0 41.59999847412 -0.70710790510349253 0 0.70710565726781627 
2 4.7683718932969492e-07 0 44.099998532450435 1.1326298950583333e-08 0 1 1 0 -1.1326298950583333e-08 -0 1 0 5.1499996185298107
1 5.1500020027159996 0 41.899997711179999 -8.6697651735382098e-07 0 0.99999999999962419 
Polygon3D 0
PolygonOnTriangulations 0
Surfaces 13
3 2.0132041603477624e-14 0 1.9999999999999929 1.1326298950583333e-08 0 1 1 0 -1.1326298950583333e-08 -0 1 0 2.1349149797083225e-14
1.5707963154685978
2 2.2903000411411635e-14 0 2.0000002446482057 1.1326298950583333e-08 0 1 1 0 -1.1326298950583333e-08 -0 1 0 21.600013732909982
7 3.6810473602599999e-07 0 34.5 1.1326298950583333e-08 0 1 
1 21.600002288820001 -2.0684362311839999e-07 32.731384277339998 -0.96592572074914496 3.0269129128192603e-08 0.25881943898255411 
1 3.6810499718856318e-07 0 34.500023058067271 -1.1326298950583333e-08 -0 -1 1 0 -1.1326298950583333e-08 -0 1 -0 
5 3.6244184705909917e-07 0 34.000023000310335 1.1326298950583333e-08 0 1 1 -6.1454376264220144e-10 -1.1326298950583333e-08 6.1454376264220133e-10 1 -6.960506373901897e-18 9.8999983024141542 0.49999999391599997
2 3.6244184699495664e-07 0 34.000022994647189 -1.1326298950583333e-08 -0 -1 1 9.0852096978578071e-23 -1.1326298950583333e-08 -9.0852096978578048e-23 1 1.0290180106667638e-30 9.3999983024141542
3 3.3525856100858216e-07 0 31.600008117327139 -1.1326298950583333e-08 -0 -1 1 0 -1.1326298950583333e-08 -0 1 -0 9.3999935612254397
-1.5707792495293529
3 3.3525819351050597e-07 0 31.59997567088741 1.1326298950583333e-08 0 1 1 0 -1.1326298950583333e-08 -0 1 0 7.5000149235308076
-0.52359609415646213
2 3.5291457583655767e-07 0 33.158859327683558 1.1326298950583333e-08 0 1 1 1.2887100689837206e-22 -1.1326298950583333e-08 -1.2887100689837203e-22 1 1.4596315501936485e-30 6.5999985980434248
1 4.4852144213924998e-07 0 41.599998548873579 -1.1326298950583333e-08 -0 -1 1 0 -1.1326298950583333e-08 -0 1 -0 
3 4.4852144199172236e-07 0 41.59999853584835 1.1326298950583333e-08 0 1 1 0 -1.1326298950583333e-08 -0 1 0 5.4500017449295575
-0.78539976418359692
2 4.5191932299712529e-07 0 41.899997769510456 1.1326298950583333e-08 0 1 1 0 -1.1326298950583333e-08 -0 1 0 5.1500015507966772
1 4.7683718932969492e-07 0 44.099998532450435 -1.1326298950583333e-08 -0 -1 1 0 -1.1326298950583333e-08 -0 1 -0 
Triangulations 0

TShapes 66
Ve
0.003
0 0 2
0 0

0101101
*
Ed
 0.003 1 1 1
2  1 1 0 0 6.28318530717959
0

0101100
+66 0 -66 0 *
Ve
0.003
21.60001373291 0 2
0 0

0101101
*
Ed
 0.003 1 1 0
1  1 0 0 6.28318530717959
2  2 1 0 0 6.28318530717959
2  3 2 0 0 6.28318530717959
0

0101100
+64 0 -64 0 *
Ed
 0.003 1 1 0
1  2 0 0 21.60001373291
3  4 5CN 1 0 0 21.60001373291
0

0101000
+66 0 -64 0 *
Wi

0101000
+65 0 -63 0 -62 0 +62 0 *
Fa
0  0.003 1 0

0111000
+61 0 *
Ve
0.003
21.60000228882 -2.068436231184e-07 32.73138427734
0 0

0101101
*
Ed
 0.003 1 1 0
1  3 0 0 6.28318530717959
2  6 2 0 0 6.28318530717959
2  7 3 0 0 6.28318530717959
0

0101100
+59 0 -59 0 *
Ed
 0.003 1 1 0
1  4 0 0 30.7313842773421
3  8 9CN 2 0 0 30.7313842773421
0

0101000
+64 0 -59 0 *
Wi

0101000
+63 0 -58 0 -57 0 +57 0 *
Fa
0  0.003 2 0

0111000
+56 0 *
Ve
0.003
14.99936389923 0 34.50002288818
0 0

0101101
*
Ed
 0.003 1 1 0
1  5 0 0 6.28318530717959
2  10 3 0 0 6.28318530717959
2  11 4 0 0 6.28318530717959
0

0101100
+54 0 -54 0 *
Ed
 0.003 1 1 0
1  6 0 0 6.8334844468897
3  12 13CN 3 0 0 6.8334844468897
0

0101000
+59 0 -54 0 *
Wi

0101000
+58 0 -53 0 -52 0 +52 0 *
Fa
0  0.003 3 0

0111000
+51 0 *
Wi

0101000
+53 0 *
Ve
0.003
9.899998664856 -3.04199110333117e-09 34.500022885138
0 0

0101101
*
Ed
 0.003 1 1 0
1  7 0 0 6.28318530717959
2  14 4 0 0 6.28318530717959
2  15 5 0 0 6.28318530717959
4 G1 4 0 5 0
0

0101100
+48 0 -48 0 *
Wi

0101000
-47 0 *
Fa
0  0.003 4 0

0111000
+49 0 +46 0 *
Ve
0.003
9.399998667898 -3.04199110358519e-09 34.00002288818
0 0

0101101
*
Ed
 0.003 1 1 0
1  8 0 0 6.28318530717959
2  16 5 0 0 6.28318530717959
2  17 6 0 0 6.28318530717959
4 G1 5 0 6 0
0

0101100
+44 0 -44 0 *
Ed
 0.003 1 1 0
1  9 0 0 1.5707963267949
3  18 19CN 5 0 0 1.5707963267949
0

0101000
+48 0 -44 0 *
Wi

0101000
+47 0 -43 0 -42 0 +42 0 *
Fa
0  0.003 5 0

0111000
+41 0 *
Ve
0.003
9.399993896484 0 31.60000801086
0 0

0101101
*
Ed
 0.003 1 1 0
1  10 0 0 6.28318530717959
2  20 6 0 0 6.28318530717959
2  21 7 0 0 6.28318530717959
0

0101100
+39 0 -39 0 *
Ed
 0.003 1 1 0
1  11 0 0 2.40001487732473
3  22 23CN 6 0 0 2.40001487732473
0

0101000
+44 0 -39 0 *
Wi

0101000
+43 0 -38 0 -37 0 +37 0 *
Fa
0  0.003 6 0

0111000
+36 0 *
Ve
0.003
7.500015258789 0 31.59997558594
0 0

0101101
*
Ed
 0.003 1 1 0
1  12 0 0 6.28318530717959
2  24 7 0 0 6.28318530717959
2  25 8 0 0 6.28318530717959
0

0101100
+34 0 -34 0 *
Ed
 0.003 1 1 0
1  13 0 0 1.89997863797168
3  26 27CN 7 0 0 1.89997863797168
0

0101000
+39 0 -34 0 *
Wi

0101000
+38 0 -33 0 -32 0 +32 0 *
Fa
0  0.003 7 0

0111000
+31 0 *
Ve
0.003
6.599998950958 8.505484648577e-22 33.15885925293
0 0

0101101
*
Ed
 0.003 1 1 0
1  14 0 0 6.28318530717959
2  28 8 0 0 6.28318530717959
2  29 9 0 0 6.28318530717959
0

0101100
+29 0 -29 0 *
Ed
 0.003 1 1 0
1  15 0 0 1.80004101108001
3  30 31CN 8 0 0 1.80004101108001
0

0101000
+34 0 -29 0 *
Wi

0101000
+33 0 -28 0 -27 0 +27 0 *
Fa
0  0.003 8 0

0111000
+26 0 *
Ve
0.003
6.600000858307 0 41.59999847412
0 0

0101101
*
Ed
 0.003 1 1 0
1  16 0 0 6.28318530717959
2  32 9 0 0 6.28318530717959
2  33 10 0 0 6.28318530717959
0

0101100
+24 0 -24 0 *
Ed
 0.003 1 1 0
1  17 0 0 8.44113922119021
3  34 35CN 9 0 0 8.44113922119021
0

0101000
+29 0 -24 0 *
Wi

0101000
+28 0 -23 0 -22 0 +22 0 *
Fa
0  0.003 9 0

0111000
+21 0 *
Wi

0101000
+23 0 *
Ve
0.003
5.450002193451 0 41.59999847412
0 0

0101101
*
Ed
 0.003 1 1 0
1  18 0 0 6.28318530717959
2  36 10 0 0 6.28318530717959
2  37 11 0 0 6.28318530717959
0

0101100
+18 0 -18 0 *
Wi

0101000
-17 0 *
Fa
0  0.003 10 0

0111000
+19 0 +16 0 *
Ve
0.003
5.150002002716 0 41.89999771118
0 0

0101101
*
Ed
 0.003 1 1 0
1  19 0 0 6.28318530717959
2  38 11 0 0 6.28318530717959
2  39 12 0 0 6.28318530717959
0

0101100
+14 0 -14 0 *
Ed
 0.003 1 1 0
1  20 0 0 0.424263664102429
3  40 41CN 11 0 0 0.424263664102429
0

0101000
+18 0 -14 0 *
Wi

0101000
+17 0 -13 0 -12 0 +12 0 *
Fa
0  0.003 11 0

0111000
+11 0 *
Ve
0.003
5.150000095367 0 44.09999847412
0 0

0101101
*
Ed
 0.003 1 1 0
1  21 0 0 6.28318530717959
2  42 12 0 0 6.28318530717959
2  43 13 0 0 6.28318530717959
0

0101100
+9 0 -9 0 *
Ed
 0.003 1 1 0
1  22 0 0 2.20000076294083
3  44 45CN 12 0 0 2.20000076294083
0

0101000
+14 0 -9 0 *
Wi

0101000
+13 0 -8 0 -7 0 +7 0 *
Fa
0  0.003 12 0

0111000
+6 0 *
Wi

0101000
+8 0 *
Fa
0  0.003 13 0

0111000
+4 0 *
Sh

0101000
-60 0 -55 0 -50 0 -45 0 -40 0 -35 0 -30 0 -25 0 -20 0 -15 0 
-10 0 -5 0 -3 0 *
So

1100000
-2 0 *

+1 0 
0

