DBRep_DrawableShape

CASCADE Topology V1, (c) Matra-Datavision
Locations 1
1
              1               0               0 2.4293608785837e-17 
              0               1               0  8.500001311302 
              0               0               1 -2.97696738029621e-15 
Curve2ds 0
Curves 8
1 -1.6174545288090001 0.1000000238419 -16.49998474121 2.8580711809461855e-18 1 -3.502314024749493e-16 
1 1.6174545288090001 0.1000000238419 -16.49998474121 2.8580711809461855e-18 1 -3.502314024749493e-16 
1 -1.6174545288090001 0.1000000238419 -16.49998474121 1 0 0 
1 1.563353657722 0.1000000238419 -19.59998703003 2.8580711809461855e-18 1 -3.502314024749493e-16 
1 1.6174545288090001 0.1000000238419 -16.49998474121 -0.017449223977157799 0 -0.99984775070137299 
1 -1.563353538513 0.1000000238419 -19.59998703003 2.8580711809461855e-18 1 -3.502314024749493e-16 
1 1.563353657722 0.1000000238419 -19.59998703003 -1 0 0 
1 -1.563353538513 0.1000000238419 -19.59998703003 -0.017449262414084166 0 0.99984775003057558 
Polygon3D 0
PolygonOnTriangulations 0
Surfaces 5
1 -1.6174545288090001 0.1000000238419 -16.49998474121 0 -3.502314024749493e-16 -1 1 0 0 0 -1 3.502314024749493e-16 
1 1.6174545288090001 0.1000000238419 -16.49998474121 -0.99984775070137311 8.9689022272329498e-18 0.017449223977157802 -0.017449223977157802 0 -0.99984775070137311 -8.9675367181593995e-18 -1 1.5650038379221718e-19 
1 1.563353657722 0.1000000238419 -19.59998703003 0 3.502314024749493e-16 1 -1 0 0 0 -1 3.502314024749493e-16 
1 -1.563353538513 0.1000000238419 -19.59998703003 0.99984775003057569 3.2536436077418445e-18 0.01744926241408417 -0.01744926241408417 0 0.99984775003057569 3.2531482406020473e-18 -1 5.6773681113394977e-20 
1 2.9802250019657823e-08 0.10000002384190003 -18.04998588562 2.8580711809461855e-18 1 -3.502314024749493e-16 0 3.502314024749493e-16 1 1 -2.8580711809461855e-18 1.0009862780760171e-33 
Triangulations 0

TShapes 25
Ve
0.003
-1.617454528809 0.1000000238419 -16.49998474121
0 0

0101101
*
Ed
 0.003 1 1 0
1  1 0 0 8.500001311302
0

0101000
+25 0 -25 1 *
Ve
0.003
1.617454528809 0.1000000238419 -16.49998474121
0 0

0101101
*
Ed
 0.003 1 1 0
1  2 0 0 8.500001311302
0

0101000
+23 0 -23 1 *
Ed
 0.003 1 1 0
1  3 0 0 3.234909057618
0

0101000
+25 0 -23 0 *
Wi

0101000
+24 0 -22 0 -21 0 +21 1 *
Fa
0  0.003 1 0

0101000
+20 0 *
Ve
0.003
1.563353657722 0.1000000238419 -19.59998703003
0 0

0101101
*
Ed
 0.003 1 1 0
1  4 0 0 8.500001311302
0

0101000
+18 0 -18 1 *
Ed
 0.003 1 1 0
1  5 0 0 3.10047433386274
0

0101000
+23 0 -18 0 *
Wi

0101000
+22 0 -17 0 -16 0 +16 1 *
Fa
0  0.003 2 0

0101000
+15 0 *
Ve
0.003
-1.563353538513 0.1000000238419 -19.59998703003
0 0

0101101
*
Ed
 0.003 1 1 0
1  6 0 0 8.500001311302
0

0101000
+13 0 -13 1 *
Ed
 0.003 1 1 0
1  7 0 0 3.126707196235
0

0101000
+18 0 -13 0 *
Wi

0101000
+17 0 -12 0 -11 0 +11 1 *
Fa
0  0.003 3 0

0101000
+10 0 *
Ed
 0.003 1 1 0
1  8 0 0 3.10047433594285
0

0101000
+13 0 -25 0 *
Wi

0101000
+12 0 -24 0 -8 0 +8 1 *
Fa
0  0.003 4 0

0101000
+7 0 *
Wi

0101100
+21 0 +16 0 +11 0 +8 0 *
Fa
0  0.003 5 0

0101100
+5 0 *
Sh

0101000
+19 0 +14 0 +9 0 +6 0 +4 0 -4 1 *
So

0100000
-3 0 *
Co

1100000
+2 0 *

+1 0 