DBRep_DrawableShape

CASCADE Topology V1, (c) Matra-Datavision
Locations 3
1
1.11022302462516e-16               0               1               0 
              0               1               0               0 
             -1               0 1.11022302462516e-16               0 
1
              1               0               0             -10 
              0               1               0              10 
              0               0               1               5 
2  1 1 2 1 0
Curve2ds 53
7 0 0  1 2 2  10 0  20 0 
 0 2 1.10714871779409 2
1 20 0 0 1 
7 0 0  3 4 2  0 5.551115123125783e-17  0 0.3323174677216412  0 0.6656476956421074  0 1 
 0 4 1 4
1 0 1 1 0 
1 10 0 0 1 
1 10 0 0 1 
7 0 0  1 2 2  0 0  10 0 
 1.10714871779409 2 2.034443935795703 2
1 10 0 0 1 
7 0 0  4 5 2  -20 -1.110223024625157e-16  -20 0.2585918190553406  -20 0.5112590174693027  -20.00000000000001 0.7583063523497449  -20 1 
 0 5 1 5
1 0 -20 1 0 
1 0 10 1 0 
7 0 0  1 2 2  0 1  -20 1 
 0 2 10 2
7 0 0  1 2 2  0 1  -20 1 
 0 2 10 2
7 0 0  1 2 2  0 1  -20 1 
 0 2 10 2
7 0 0  1 2 2  0 1  -20 1 
 0 2 10 2
7 0 0  1 2 2  0 0  20 0 
 0 2 10 2
7 0 0  1 2 2  0 0  20 0 
 0 2 10 2
7 0 0  1 2 2  0 1  -20 1 
 0 2 10 2
1 0 1 1 0 
1 0 0 1 0 
1 0 1 1 0 
7 0 0  7 26 5  -20 0  -19.28568905737226 0  -18.57141326232965 0  -17.85704785318619 0  -17.14296531341892 0  -16.4285333593786 0  -15.71428601288954 0  -14.28571430023319 0  -13.57142851604267 0  -12.85714278464219 0  -12.14285708668526 0  -11.42857140282381 0  -10.71428571371124 0  -9.285714286288762 0  -8.571428597176139 0  -7.857142913314863 0  -7.14285721535768 0  -6.428571483957436 0  -5.714285699766807 0  -4.285713987110431 0  -3.57146664062153 0  -2.857034686580877 0  -2.142952146813969 0  -1.428586737670233 0  -0.7143109426277963 0  2.744890452744195e-19 0 
 2.034443935795703 8 2.588018294692748 6 3.141592653589793 6 3.695167012486838 6 4.248741371383884 8
1 0 0 0 1 
7 0 0  4 5 2  -10 0  -10 0.241693647650255  -9.999999999999998 0.4887409825306952  -10 0.7414081809446604  -10 1 
 0 5 1 5
1 10 0 0 -1 
1 10 0 0 1 
1 0 1 1 0 
1 0 1 1 0 
1 0 1 1 0 
1 0 1 1 0 
1 0 0 -1 0 
1 0 0 -1 0 
1 0 1 1 0 
1 0 1 -1 0 
1 0 0 -1 0 
1 0 1 -1 0 
7 0 0  1 2 2  -10 0  0 0 
 4.248741371383884 2 5.176036589385496 2
1 0 0 0 1 
7 0 0  3 4 2  0 0  0 0.3343523043578951  0 0.6676825322783577  0 1 
 0 4 1 4
1 0 0 1 0 
1 0 10 1 0 
7 0 0  1 2 2  0 1  20 1 
 0 2 10 2
7 0 0  1 2 2  0 1  20 1 
 0 2 10 2
7 0 0  1 2 2  0 1  20 1 
 0 2 10 2
7 0 0  1 2 2  0 1  20 1 
 0 2 10 2
7 0 0  1 2 2  0 0  -20 0 
 0 2 10 2
7 0 0  1 2 2  0 0  -20 0 
 0 2 10 2
7 0 0  1 2 2  0 1  20 1 
 0 2 10 2
1 0 1 -1 0 
1 0 0 -1 0 
1 0 1 -1 0 
7 0 0  1 2 2  0 0  10 0 
 5.176036589385496 2 6.283185307179586 2
1 0 1 1 0 
Curves 10
2 30 10 5.000000000000004 1 -0 1.110223024625157e-16 1.110223024625157e-16 0 -1 0 1 0 5
7 1 0  1 2 2  30 14.47213595499958 2.763932022500215  1.010273253313577 10 20 0  1
 0 2 1 2
1 10 0 0 -0 1 0 
7 1 0  1 2 2  30 10 5.329070518200751e-15  1.010273253313577 10 10 0  1
 0 2 1 2
7 1 0  1 2 2  30 14.47213595499958 7.236067977499794  1.007194347744216 10 20 10  1
 0 2 1 2
1 10 20 0 0 0 1 
7 1 0  1 2 2  30 5.52786404500042 7.236067977499795  1.041808874101736 10 0 10  1
 0 2 1 2
1 10 0 10 0 1 0 
7 1 0  1 2 2  30 5.52786404500042 2.763932022500216  1.007194347744216 10 0 0  1
 0 2 1 2
1 10 0 0 0 0 1 
Polygon3D 0
PolygonOnTriangulations 0
Surfaces 38
9 1 1 0 0 6 1 7 2 2 2 30 10 5.329070518200751e-15  1.010273253313577 10 10 0  1 
30 10.93218078624305 7.993605777301127e-15  0.999915216991816 10 11.66666666666667 0  1 
30 11.85262332813361 0.2076675663943286  0.9938717870356458 10 13.33333333333333 0  1 
30 12.71029191386528 0.6146555639319855  0.9918794853179241 10 15 0  1 
30 13.45787409724598 1.199767102172676  0.9938717870356443 10 16.66666666666667 0  1 
30 14.05525203392784 1.930164180356758  0.9999152169918175 10 18.33333333333333 0  1 
30 14.47213595499958 2.763932022500215  1.010273253313577 10 20 0  1 

10 7
20 7

0 2
1 2

9 1 1 0 0 6 1 7 2 2 2 30 14.47213595499958 2.763932022500214  1.007194347744216 10 20 0  1 
30 14.82021910697227 3.460098326445595  0.9999584710067807 10 20 1.666666666666667  1 
30 15.03558977082167 4.21499569430457  0.9957006333637615 10 20 3.333333333333333  1 
30 15.10849425469352 5.000000000000001  0.9942930957704842 10 20 5  1 
30 15.03558977082166 5.785004305695443  0.9957006333637624 10 20 6.666666666666667  1 
30 14.82021910697227 6.539901673554412  0.9999584710067803 10 20 8.333333333333334  1 
30 14.47213595499958 7.236067977499794  1.007194347744216 10 20 10  1 

0 7
10 7

0 2
1 2

9 1 1 0 0 6 1 7 2 2 2 30 5.527864045000422 2.763932022500213  1.010273253313577 10 0 0  1 
30 5.944747966072157 1.930164180356751  0.999915216991816 10 1.666666666666667 0  1 
30 6.542125902754016 1.199767102172684  0.9938717870356458 10 3.333333333333333 0  1 
30 7.289708086134729 0.6146555639319784  0.9918794853179241 10 5 0  1 
30 8.147376671866379 0.2076675663943304  0.9938717870356443 10 6.666666666666667 0  1 
30 9.067819213756957 9.769962616701378e-15  0.9999152169918175 10 8.333333333333334 0  1 
30 10 5.329070518200751e-15  1.010273253313577 10 10 0  1 

0 7
10 7

0 2
1 2

9 1 1 0 0 6 1 7 2 2 2 30 14.47213595499958 7.236067977499794  1.041808874101736 10 20 10  1 
30 13.61122300129162 8.957893884915689  0.9985807274692443 10 16.66666666666667 10  1 
30 12.01690612887 10.19537293727565  0.9755989807308419 10 13.33333333333333 10  1 
30 9.999999999999995 10.64710940665655  0.968022835396356 10 10 10  1 
30 7.98309387113 10.19537293727566  0.9755989807308392 10 6.666666666666667 10  1 
30 6.38877699870838 8.957893884915684  0.9985807274692458 10 3.333333333333333 10  1 
30 5.52786404500042 7.236067977499795  1.041808874101736 10 0 10  1 

-20 7
0 7

0 2
1 2

1 10 0 0 1 0 -0 0 0 1 0 -1 0 
1 0 20 0 -0 1 0 0 0 1 1 0 -0 
9 0 0 0 0 1 1 2 2 2 2 0 20 0  10 20 10  
0 0 0  10 20 0  

-20 2
0 2

0 2
1 2

9 0 0 0 0 1 1 2 2 2 2 0 20 0  10 20 10  
0 0 0  10 20 0  

-20 2
0 2

0 2
1 2

9 0 0 0 0 1 1 2 2 2 2 0 20 0  10 20 10  
0 0 0  10 20 0  

-20 2
0 2

0 2
1 2

9 0 0 0 0 1 1 2 2 2 2 0 20 0  10 20 10  
0 0 0  10 20 0  

-20 2
0 2

0 2
1 2

9 0 0 0 0 1 1 2 2 2 2 10 20 0  0 0 0  
10 20 10  0 20 0  

0 2
20 2

0 2
1 2

9 0 0 0 0 1 1 2 2 2 2 10 20 0  0 0 0  
10 20 10  0 20 0  

0 2
20 2

0 2
1 2

9 0 0 0 0 1 1 2 2 2 2 0 20 0  10 20 10  
0 0 0  10 20 0  

-20 2
0 2

0 2
1 2

9 1 1 0 0 6 1 7 2 2 2 30 14.47213595499958 2.763932022500214  1.007194347744216 10 20 0  1 
30 14.82021910697227 3.460098326445595  0.9999584710067807 10 20 1.666666666666667  1 
30 15.03558977082167 4.21499569430457  0.9957006333637615 10 20 3.333333333333333  1 
30 15.10849425469352 5.000000000000001  0.9942930957704842 10 20 5  1 
30 15.03558977082166 5.785004305695443  0.9957006333637624 10 20 6.666666666666667  1 
30 14.82021910697227 6.539901673554412  0.9999584710067803 10 20 8.333333333333334  1 
30 14.47213595499958 7.236067977499794  1.007194347744216 10 20 10  1 

0 7
10 7

0 2
1 2

10 0 10 0 10
1 10 20 0 0 -1 0 0 0 1 -1 0 0 
9 1 1 0 0 6 1 7 2 2 2 30 5.527864045000421 7.236067977499795  1.007194347744216 10 0 10  1 
30 5.179780893027733 6.539901673554414  0.9999584710067807 10 0 8.333333333333334  1 
30 4.964410229178333 5.785004305695439  0.9957006333637615 10 0 6.666666666666667  1 
30 4.891505745306484 5.000000000000009  0.9942930957704842 10 0 5  1 
30 4.964410229178342 4.214995694304567  0.9957006333637624 10 0 3.333333333333333  1 
30 5.179780893027726 3.460098326445598  0.9999584710067803 10 0 1.666666666666667  1 
30 5.52786404500042 2.763932022500216  1.007194347744216 10 0 0  1 

-10 7
0 7

0 2
1 2

1 0 0 10 0 0 1 1 0 -0 -0 1 0 
9 0 0 0 0 1 1 2 2 2 2 0 20 10  10 0 10  
0 20 0  10 20 10  

0 2
20 2

0 2
1 2

9 0 0 0 0 1 1 2 2 2 2 0 20 10  10 0 10  
0 20 0  10 20 10  

0 2
20 2

0 2
1 2

9 0 0 0 0 1 1 2 2 2 2 0 20 10  10 0 10  
0 20 0  10 20 10  

0 2
20 2

0 2
1 2

9 0 0 0 0 1 1 2 2 2 2 0 20 10  10 0 10  
0 20 0  10 20 10  

0 2
20 2

0 2
1 2

9 0 0 0 0 1 1 2 2 2 2 10 20 10  0 20 0  
10 0 10  0 20 10  

-20 2
0 2

0 2
1 2

9 0 0 0 0 1 1 2 2 2 2 10 20 10  0 20 0  
10 0 10  0 20 10  

-20 2
0 2

0 2
1 2

9 0 0 0 0 1 1 2 2 2 2 0 20 10  10 0 10  
0 20 0  10 20 10  

0 2
20 2

0 2
1 2

9 1 1 0 0 6 1 7 2 2 2 30 14.47213595499958 7.236067977499794  1.041808874101736 10 20 10  1 
30 13.61122300129162 8.957893884915689  0.9985807274692443 10 16.66666666666667 10  1 
30 12.01690612887 10.19537293727565  0.9755989807308419 10 13.33333333333333 10  1 
30 9.999999999999995 10.64710940665655  0.968022835396356 10 10 10  1 
30 7.98309387113 10.19537293727566  0.9755989807308392 10 6.666666666666667 10  1 
30 6.38877699870838 8.957893884915684  0.9985807274692458 10 3.333333333333333 10  1 
30 5.52786404500042 7.236067977499795  1.041808874101736 10 0 10  1 

-20 7
0 7

0 2
1 2

10 -20 -0 0 10
1 10 0 10 0 0 -1 0 -1 -0 -1 0 -0 
1 0 0 0 -0 1 0 0 0 1 1 0 -0 
9 0 0 0 0 1 1 2 2 2 2 0 0 10  10 0 0  
0 20 10  10 0 10  

0 2
20 2

0 2
1 2

9 0 0 0 0 1 1 2 2 2 2 0 0 10  10 0 0  
0 20 10  10 0 10  

0 2
20 2

0 2
1 2

9 0 0 0 0 1 1 2 2 2 2 0 0 10  10 0 0  
0 20 10  10 0 10  

0 2
20 2

0 2
1 2

9 0 0 0 0 1 1 2 2 2 2 0 0 10  10 0 0  
0 20 10  10 0 10  

0 2
20 2

0 2
1 2

9 0 0 0 0 1 1 2 2 2 2 10 0 10  0 20 10  
10 0 0  0 0 10  

-20 2
0 2

0 2
1 2

9 0 0 0 0 1 1 2 2 2 2 10 0 10  0 20 10  
10 0 0  0 0 10  

-20 2
0 2

0 2
1 2

9 0 0 0 0 1 1 2 2 2 2 0 0 10  10 0 0  
0 20 10  10 0 10  

0 2
20 2

0 2
1 2

9 1 1 0 0 6 1 7 2 2 2 30 5.527864045000421 7.236067977499795  1.007194347744216 10 0 10  1 
30 5.179780893027733 6.539901673554414  0.9999584710067807 10 0 8.333333333333334  1 
30 4.964410229178333 5.785004305695439  0.9957006333637615 10 0 6.666666666666667  1 
30 4.891505745306484 5.000000000000009  0.9942930957704842 10 0 5  1 
30 4.964410229178342 4.214995694304567  0.9957006333637624 10 0 3.333333333333333  1 
30 5.179780893027726 3.460098326445598  0.9999584710067803 10 0 1.666666666666667  1 
30 5.52786404500042 2.763932022500216  1.007194347744216 10 0 0  1 

-10 7
0 7

0 2
1 2

10 -10 -0 0 10
1 10 0 0 0 1 -0 0 -0 -1 -1 0 -0 
1 30 10 5.000000000000004 1 -0 1.110223024625157e-16 1.110223024625157e-16 0 -1 0 1 0 
1 10 10 0 1 0 -0 0 0.7071067811865476 0.7071067811865476 0 -0.7071067811865476 0.7071067811865476 
Triangulations 0

TShapes 41
Ve
1.43012068792091e-07
5 -1.22460635382238e-15 40
0 0

0101101
*
Ve
1.43012066209543e-07
30 14.4721359549996 2.76393202250021
0 0

0101101
*
Ed
 1.43012066209543e-07 1 1 0
1  1 0 0 1.10714871779409
2  1 1 0 0 1.10714871779409
0

0101000
+41 3 -40 0 *
Ve
1e-07
10 20 0
0 0

0101101
*
Ed
 1e-07 1 1 0
1  2 0 0 1
2  2 1 0 0 1
2  3 2 0 0 1
0

0101000
+40 0 -38 0 *
Ve
1e-07
10 10 0
0 0

0101101
*
Ed
 1e-07 1 1 0
1  3 0 10 20
2  4 1 0 10 20
0

0101000
+36 0 -38 0 *
Ed
 1e-07 1 1 0
1  4 0 0 1
2  5 1 0 0 1
2  6 3 0 0 1
4 G1 1 0 3 0
0

0101000
+41 3 -36 0 *
Wi

0101000
+39 0 +37 0 -35 0 -34 0 *
Fa
0  1e-07 1 0

0111000
+33 0 *
Ve
1.25362876399326e-05
30 14.4721359549996 7.23606797749979
0 0

0101101
*
Ed
 1e-07 1 1 0
1  1 0 1.10714871779409 2.0344439357957
2  7 2 0 1.10714871779409 2.0344439357957
0

0101000
+40 0 -31 0 *
Ve
3.71200895800174e-07
10 20 10
0 0

0101101
*
Ed
 3.71200895800174e-07 1 1 0
1  5 0 0 1
2  8 2 0 0 1
2  9 4 0 0 1
0

0101000
+31 0 -29 0 *
Ed
 1e-07 1 1 0
1  6 0 0 10
2  10 5 0 0 10
2  11 6 0 0 10
2  12 7 0 0 10
2  13 8 0 0 10
2  14 9 0 0 10
2  15 10 0 0 10
2  16 11 0 0 10
2  17 12 0 0 10
2  18 13 0 0 10
2  19 14 0 0 10
2  20 15 0 0 10
2  21 2 0 0 10
0

0101000
-29 0 +38 0 *
Wi

0101000
+30 0 +28 0 -27 0 -37 0 *
Fa
0  1e-07 2 0

0111000
+26 0 *
Ve
1.25362876399326e-05
30 5.52786404500042 7.2360679774998
0 0

0101101
*
Ed
 1.25362876399326e-05 1 1 0
1  1 0 2.0344439357957 4.24874137138388
2  22 4 0 2.0344439357957 4.24874137138388
0

0101000
+31 0 -24 0 *
Ve
3.68844916849824e-07
10 0 10
0 0

0101101
*
Ed
 3.68844916849824e-07 1 1 0
1  7 0 0 1
2  23 4 0 0 1
2  24 16 0 0 1
0

0101000
+24 0 -22 0 *
Ed
 1e-07 1 1 0
1  8 0 0 20
2  25 5 0 0 20
2  26 17 0 0 20
2  27 18 0 0 20
2  28 19 0 0 20
2  29 20 0 0 20
2  30 21 0 0 20
2  31 22 0 0 20
2  32 23 0 0 20
2  33 24 0 0 20
2  34 25 0 0 20
2  35 26 0 0 20
2  36 4 0 0 20
0

0101000
-29 0 +22 0 *
Wi

0101000
+23 0 +21 0 +20 0 -28 0 *
Fa
0  1e-07 4 0

0111000
+19 0 *
Ve
1.43012068792091e-07
30 5.52786404500042 2.76393202250022
0 0

0101101
*
Ed
 1e-07 1 1 0
1  1 0 4.24874137138388 5.1760365893855
2  37 16 0 4.24874137138388 5.1760365893855
0

0101000
+24 0 -17 0 *
Ve
1e-07
10 0 0
0 0

0101101
*
Ed
 1e-07 1 1 0
1  9 0 0 1
2  38 16 0 0 1
2  39 3 0 0 1
0

0101000
+17 0 -15 0 *
Ed
 1e-07 1 1 0
1  10 0 0 10
2  40 5 0 0 10
2  41 27 0 0 10
2  42 28 0 0 10
2  43 29 0 0 10
2  44 30 0 0 10
2  45 31 0 0 10
2  46 32 0 0 10
2  47 33 0 0 10
2  48 34 0 0 10
2  49 35 0 0 10
2  50 36 0 0 10
2  51 16 0 0 10
0

0101000
-22 0 +15 0 *
Wi

0101000
+16 0 +14 0 +13 0 -21 0 *
Fa
0  1e-07 16 0

0101000
+12 0 *
Ed
 1.43012068792091e-07 1 1 0
1  1 0 5.1760365893855 6.28318530717959
2  52 3 0 5.1760365893855 6.28318530717959
0

0101000
+17 0 -41 3 *
Ed
 1e-07 1 1 0
1  3 0 0 10
2  53 3 0 0 10
0

0101000
+15 0 -36 0 *
Wi

0101000
+10 0 +34 0 -9 0 -14 0 *
Fa
0  1e-07 3 0

0101000
+8 0 *
Wi

0101100
+39 0 +30 0 +23 0 +16 0 +10 0 *
Fa
0  1e-07 37 0

0111000
+6 0 *
Wi

0101100
+35 0 +27 0 -20 0 -13 0 +9 0 *
Fa
0  1e-07 38 0

0111000
+4 0 *
Sh

0101100
+32 0 +25 0 +18 0 +11 0 +7 0 -5 0 +3 0 *
So

1100000
-2 0 *

+1 0 
0

