DBRep_DrawableShape

CASCADE Topology V1, (c) Matra-Datavision
Locations 7
1
              1               0               0               0 
              0               1               0               0 
              0               0               1 735.507207126715 
2  1 -1 0
1
              1               0               0               0 
              0               1               0               0 
              0               0               1               0 
1
              1               0               0               0 
              0               1               0               0 
              0               0               1               0 
2  4 1 3 1 0
2  4 -1 0
2  3 -1 4 -1 0
Curve2ds 14
1 0 0 1 0 
1 0 -735.50720712671546 1 0 
1 0 0 0 -1 
1 6.2831853071795862 0 0 -1 
7 0 0  8 72 11  3.1415926535897931 -54.193130493164062  3.1729308318183835 -54.193130461825895  3.2041597943029134 -54.198701386889702  3.2348940760771385 -54.209417485140278  3.2648534547701984 -54.22480776574276  3.2938629506066284 -54.244356030242692  3.3218528264063516 -54.267500872565975  3.348858587584683 -54.293635679018948  3.4228045951643713 -54.374112292772594  3.4704815699210529 -54.43741996064373  3.5180047237640877 -54.511275275824325  3.5653638585456706 -54.594735390358693  3.6125656468405953 -54.686717586060396  3.6596204150770086 -54.786027997479835  3.7065358235858112 -54.891372436191716  3.804263617534458 -55.12111646584021  3.8539614424753341 -55.243816217639491  3.9030362194032753 -55.368672334610487  3.9519685640803397 -55.495128857331835  4.0012008975992126 -55.62271644280252  4.0513057919716022 -55.750988659279471  4.1028817979558667 -55.879538155125786  4.1883918863630871 -56.081204460330504  4.2195830029243995 -56.152505901358836  4.2508324473279933 -56.22118545369765  4.2821479189774951 -56.286779190678033  4.3135348335123922 -56.348835725775103  4.3449963228080426 -56.406916212608053  4.3765332349756676 -56.460594344940006  4.4555333308490574 -56.582707403624596  4.5031535986832729 -56.64525908449771  4.5509308942272595 -56.695626359723811  4.5988205077584023 -56.732653648344034  4.6467952573558815 -56.755528157203969  4.6948314344862538 -56.763806179235836  4.7428925012879359 -56.75745236083344  4.8149128542487052 -56.726614597778152  4.8389025911244499 -56.712786120428348  4.8628740582168923 -56.695464122595517  4.8868219411314877 -56.674727558970083  4.9107413030440998 -56.650676722607827  4.9346275847009951 -56.623433244929927  4.9584766044188431 -56.593140095722937  5.0100608582634942 -56.521252824798687  5.0377848256607827 -56.478601507860937  5.0654525455244741 -56.432268648591062  5.0930617233856976 -56.382527813247066  5.1206116850588028 -56.329665118079383  5.1481033766413642 -56.273979229330898  5.1755393645141829 -56.215781363236971  5.2342214474066182 -56.086380258105081  5.2654531899733765 -56.014490908187753  5.2966262368471249 -55.940199779884736  5.3277487835440578 -55.86397373599344  5.3588300472910113 -55.786273958497254  5.3898802670254602 -55.707555948565599  5.4209107033955259 -55.628269526553908  5.500839479086741 -55.423672523800036  5.5491414378100474 -55.299667192645337  5.5974762990044677 -55.177052612339054  5.6463240807155604 -55.056223086129222  5.696124649885455 -54.937753747395114  5.7473953483709934 -54.822579185429824  5.8006874967684592 -54.711875665379893  5.900823856206272 -54.527066627484018  5.9459232435152956 -54.451248248647786  5.9935299001306568 -54.379875260094806  6.0443742558680533 -54.314385891763401  6.0988877408579008 -54.258151282396824  6.1571426406011556 -54.215735681682936  6.2190352610334507 -54.193130429014019  6.2831853071795845 -54.193130493164062 
 0 9 0.072271689680042564 7 0.2042704041887109 7 0.34801979711435926 7 0.43036255079918617 7 0.55380595194674653 7 0.6155104169396739 7 0.68749987752367081 7 0.76977637007943134 7 0.89948044096472801 7 1 9
7 0 0  8 72 11  6.2831853071795862 12.499999999999998  6.2681238496074636 12.49999993479506  6.2531147631653106 12.511570536250268  6.238361736177005 12.533867907936736  6.2240144054467734 12.565969426681876  6.2101683562591861 12.606873742569363  6.1968651223791582 12.65550077893918  6.1840921860519531 12.710691732387588  6.1493011508001416 12.881739367145881  6.1270967629769624 13.017412437592855  6.1052535459055326 13.177524128155326  6.0838361453831311 13.36123276381001  6.0629010158670225 13.567636100953157  6.042503395994709 13.795802329754341  6.0227003653898485 14.044755128373845  5.9826948108798277 14.605986623985165  5.9630599182519815 14.915676773342016  5.9444126528672268 15.242823060135676  5.9266218201244767 15.588834852065835  5.9095868752542513 15.95553761337376  5.8932414364533017 16.346847439095214  5.8775334344399806 16.767350340065899  5.8538031494354907 17.494037928670505  5.8456043574598189 17.764946680251121  5.8378690502595374 18.04183784553058  5.8306169599869193 18.324410087621725  5.8238678433527165 18.612327470502766  5.8176414816261586 18.905219459017314  5.8119576806349507 19.202680918874329  5.7991585550624123 19.956399857625428  5.7927328644684462 20.41842268036752  5.7876395297702787 20.888210063157182  5.7839350154474403 21.363765919147752  5.7816580894711667 21.843174351418927  5.7808316296837043 22.324509304692452  5.7814600667578802 22.80570811370767  5.7845533742676567 23.523692527718801  5.7859426029743251 23.762335347698585  5.7876873039573624 24.000069311882733  5.7897835770097217 24.236634681610752  5.7922264676168647 24.471780075875301  5.7950099669567612 24.705262471322147  5.7981270118998856 24.936847202250181  5.8055857548568648 25.4340155928146  5.8100460610684461 25.698866962060652  5.8149376642105759 25.960526704065455  5.820247506818327 26.218684656742461  5.8259622133952309 26.473055860202649  5.83206809041328 26.723380556754542  5.8385511263129262 26.96942419090421  5.8532211059190864 27.487047703791216  5.8615202331612313 27.757259961081839  5.870273928952062 28.021310574556704  5.8794625800711628 28.278910267708426  5.889067404355159 28.52978409419271  5.8990704506977139 28.773671437828281  5.909454599049532 29.01032601259692  5.9371486683588914 29.600820235657245  5.9547981152971277 29.939238226300247  5.9732550962052038 30.258975443262123  5.9926439140139207 30.561848873228698  6.0130988650558299 30.848753110412034  6.0348173206756384 31.119371802558888  6.0580240857174381 31.372750241797931  6.1027388078146032 31.786620738541359  6.1232319501216761 31.953132232984395  6.1451868380046291 32.107353856228748  6.168959340365423 32.246721498216047  6.1947591605583812 32.364721871420805  6.2226077833564126 32.452963913375747  6.2523541212940508 32.500000133476163  6.2831853071795862 32.5 
 0 9 0.072271689680042564 7 0.2042704041887109 7 0.34801979711435926 7 0.43036255079918617 7 0.55380595194674653 7 0.6155104169396739 7 0.68749987752367081 7 0.76977637007943134 7 0.89948044096472801 7 1 9
7 0 0  8 72 11  0 -54.193130493164062  0.032020699130167404 -54.193130525184777  0.064045736508332368 -54.198764736739868  0.096063208169878983 -54.210031270547965  0.12806182168000896 -54.226879673633526  0.16003089613374177 -54.24921089732706  0.19196036215591453 -54.276877297265109  0.22384076190118199 -54.309682633390139  0.30339745085272962 -54.403931782857455  0.35101641844417997 -54.471519570323544  0.39847647256183422 -54.549329378445393  0.44577027089038618 -54.636371824859332  0.49290713278871651 -54.731527757548065  0.5399001834119056 -54.833575146850116  0.58676031723230326 -54.941199310672921  0.68381550000911973 -55.173340901399847  0.73307493871983653 -55.296329893396496  0.78186775543552856 -55.421271394081856  0.83067466165818249 -55.547655797252432  0.87993283673996558 -55.675045407010757  0.93025299986375176 -55.80298784487988  0.98225097129806416 -55.931062180982892  1.0685886600153454 -56.130626875591439  1.0998149848498295 -56.200296766516331  1.1311040002729733 -56.267103325672736  1.1624625176232368 -56.330583582490249  1.193894933666644 -56.390290511651735  1.2254032305967832 -56.44579303309331  1.2569869760348065 -56.496676012004365  1.3361044186792748 -56.611302690757952  1.3837870665425089 -56.668894042830857  1.4316192912954193 -56.713905721569105  1.4795555255882049 -56.745264027179694  1.5275643003724286 -56.762257856714349  1.5756158260484656 -56.764567105934326  1.6236694644329526 -56.752291769879925  1.6956515701367805 -56.712829653017856  1.719625527022911 -56.696168330133737  1.7435773942552431 -56.676070782382638  1.7675021054307096 -56.652629874157199  1.7913950956925577 -56.625958325351775  1.815252301730347 -56.596188711362451  1.839070161779953 -56.563473463087028  1.8905840459117085 -56.486580906473407  1.9182680491914306 -56.441386858404798  1.9458946669124606 -56.392675312215474  1.9734625131224526 -56.340728988635284  2.0009717744669859 -56.285840739627488  2.0284242101895629 -56.228313548388996  2.0558231521316124 -56.168460529350206  2.1144320430896308 -56.035910567844432  2.1456281649764817 -55.962586239991836  2.1767699308260471 -55.887104192552947  2.2078662354870442 -55.809930050484951  2.2389268082238951 -55.731522815766596  2.269962212716726 -55.652334867398075  2.3009838470613695 -55.572811961401221  2.3803930207124417 -55.369505832884279  2.4283513923968507 -55.246958470524881  2.4764903685100776 -55.125928770706651  2.5252874651383492 -55.006820405342303  2.5751801501690852 -54.890239347580554  2.6267014859066649 -54.7772095290861  2.6804133933973828 -54.669014050230693  2.7792389431294238 -54.494152879628302  2.8223883389601578 -54.4248423640204  2.8679019141262216 -54.359907212992951  2.9163940076796244 -54.300770899813422  2.9682000879849237 -54.25043577368303  3.0233346507013152 -54.212912357076092  3.0815808655627213 -54.193130553175848  3.1415926535897936 -54.193130493164062 
 0 9 0.088866727800133258 7 0.22216813499781146 7 0.36568564058031455 7 0.44678534211665061 7 0.56837488283162307 7 0.62915613674642523 7 0.70006862429057615 7 0.78111404056899225 7 0.90753894894682596 7 1 9
7 0 0  8 72 11  0 32.5  0.015389484285296599 32.499999933374944  0.030781114459526162 32.488279133944154  0.046150554028645201 32.464837490073378  0.061473871445740957 32.429719820363111  0.076727540111031306 32.383015873648468  0.091888438371864806 32.324860328999272  0.10693384952272074 32.255432795720019  0.14420310090688071 32.054244148520468  0.16626189146478548 31.908625141277867  0.18793604575495196 31.738855276909408  0.20916247439811572 31.545806672116953  0.22988604131156187 31.330398379598229  0.25005269975360328 31.093568481913984  0.26960650946069653 30.836288974641139  0.30882181479469201 30.2617545084114  0.32800635214199064 29.946831012693444  0.34625553983320756 29.614230117211712  0.36368999206461627 29.262240290420365  0.38040118828440389 28.88884159667689  0.39644694522718665 28.489561335022721  0.41187168074363428 28.059492469402301  0.435047418339439 27.316044524721068  0.44296168188181939 27.041513659352283  0.4504022560442969 26.761156074474336  0.4573491261181003 26.475285504112545  0.46378244438503824 26.184252641605667  0.46968253011749989 25.888445139605867  0.47502986957845494 25.588287610078734  0.48696445213250916 24.828397631460636  0.4928481081528005 24.36325652741618  0.49738024417208837 23.89096440702594  0.50050802903031311 23.413550361839892  0.50219720405242929 22.932990947033677  0.50243091261199324 22.45128500426862  0.50121179552350015 21.970538840480145  0.49724542460171417 21.254376302161067  0.49556724122592266 21.016516606866286  0.49353642983214896 20.779747742913738  0.49115758264449838 20.544324824678309  0.48843625641512534 20.310493014706292  0.48537897242423422 20.078487523715392  0.48199321648007959 19.848533610594743  0.47396396929275025 19.355207877861048  0.46920381363797525 19.092623284391475  0.46402017150568836 18.833413087924846  0.45842641797392797 18.577873382762196  0.45243610364771969 18.326276071576885  0.44606295465907869 18.078868865414641  0.43932087266700837 17.835875283693518  0.42411289124595847 17.325050998385692  0.41553740923359073 17.058628885877983  0.40651759052739095 16.798519473532611  0.39707269660908878 16.545002260025207  0.38722114873514835 16.29834508585526  0.37698052793676945 16.058804133346111  0.36636757501988704 15.82662392664496  0.33828675492414073 15.251698706915535  0.32045858569624336 14.922940800349176  0.30180024434462338 14.611986179933163  0.28217742419068897 14.317279441804708  0.26144783307065972 14.038175763514428  0.23940062604433049 13.775287250490573  0.21580125959682919 13.529863940114449  0.17132890588621799 13.141291043253215  0.15160561124842728 12.989940333128942  0.13052122740610986 12.850222341544409  0.10777707908251495 12.724718176408599  0.083212220842719384 12.619227093114654  0.056836102102268297 12.541161198095621  0.028842295573274484 12.500000124865743  0 12.499999999999998 
 0 9 0.088866727800133258 7 0.22216813499781146 7 0.36568564058031455 7 0.44678534211665061 7 0.56837488283162307 7 0.62915613674642523 7 0.70006862429057615 7 0.78111404056899225 7 0.90753894894682596 7 1 9
1 6.2831853071795862 0 0 1 
1 0 0 0 1 
1 6.2831853071795862 0 0 1 
1 0 0 0 1 
1 6.2831853071795862 0 0 1 
1 0 0 0 1 
Curves 5
2 0 0 0 0 0 1 1 0 -0 -0 1 0 10
1 10 0 0 0 0 1 
7 0 0  8 72 11  -10 -5.3290705182007514e-15 54.193130493164062  -10.00000006520494 -0.31338178228589614 54.193130461825895  -9.988429463749732 -0.62567505810052415 54.198701386889702  -9.9661320920632637 -0.93252509305647058 54.209417485140278  -9.9340305733181236 -1.2307261713964059 54.22480776574276  -9.8931262574306373 -1.5182215959930903 54.244356030242692  -9.8444992210608202 -1.7941036883493733 54.267500872565975  -9.7893082676124106 -2.0586137885981954 54.293635679018948  -9.6182606328541205 -2.7780190362445571 54.374112292772594  -9.4825875624071418 -3.2358228517989742 54.43741996064373  -9.3224758718446719 -3.6845216664399092 54.511275275824325  -9.1387672361899952 -4.1225447203589676 54.594735390358686  -8.9323638990468446 -4.5485685276647407 54.686717586060389  -8.7041976702456552 -4.9613806815973112 54.786027997479835  -8.4552448716261548 -5.3598214669578166 54.891372436191716  -7.8940133760148337 -6.1598785770073388 55.12111646584021  -7.58432322665809 -6.549695407652024 55.243816217639683  -7.2571769398639479 -6.9172142022012428 55.368672334609876  -6.9111651479347449 -7.2652809409698218 55.495128857332695  -6.5444623866257761 -7.5960999428220646 55.622716442801895  -6.153152560904946 -7.9111765970796988 55.75098865927967  -5.7326496599340988 -8.2117177488647748 55.879538155125786  -5.0059620713294937 -8.6624090739522206 56.081204460330504  -4.7350533197488778 -8.8173933351372007 56.152505901358836  -4.4581621544694183 -8.9629648291918205 56.22118545369765  -4.1755899123782765 -9.0988688360108299 56.286779190678033  -3.8876725294972316 -9.2248511752833053 56.348835725775103  -3.5947805409826885 -9.3406582064926429 56.406916212608053  -3.2973190811256745 -9.4460368289165597 56.460594344940006  -2.5436001423745767 -9.6826996189119416 56.582707403624596  -2.0815773196324976 -9.8008715147780912 56.64525908449771  -1.6117899368428106 -9.8941183636439227 56.695626359723782  -1.136234080852228 -9.9617224130812705 56.732653648344019  -0.65682564858107184 -10.003209584272557 56.755528157203969  -0.17549069530756534 -10.018282002686789 56.763806179235836  0.30570811370767581 -10.006853438974272 56.75745236083344  1.0236925277187952 -9.9503600296552186 56.726614597778152  1.262335347698587 -9.9249772328732657 56.712786120428348  1.5000693118827335 -9.893074738480907 56.695464122595517  1.7366346816107574 -9.8547020042207514 56.674727558970083  1.9717800758753057 -9.8099224768314137 56.650676722607827  2.2052624713221491 -9.7588135920475079 56.623433244929927  2.4368472022501817 -9.7014667745996572 56.593140095722937  2.934015592814601 -9.5639272679314633 56.521252824798687  3.1988669620606518 -9.4815036938930248 56.478601507860937  3.4605267040654621 -9.3908800476144592 56.432268648591062  3.7186846567424676 -9.2922244152200921 56.382527813247066  3.97305586020265 -9.1857096374432832 56.329665118079383  4.2233805567545373 -9.0715133096264235 56.273979229330898  4.4694241909042045 -8.9498177817209417 56.215781363236971  4.9870477037912222 -8.6733678148807822 56.086380258105081  5.2572599610818429 -8.5163590661579587 56.014490908187753  5.5213105745567068 -8.3500473293856317 55.940199779884736  5.7789102677084356 -8.1746901890598433 55.86397373599344  6.0297840941927126 -7.9905393969058789 55.786273958497254  6.2736714378282743 -7.7978408718782637 55.707555948565599  6.5103260125969156 -7.5968347001607581 55.628269526553908  7.100820235657249 -7.0581534485081416 55.423672523800036  7.4392382263025212 -6.7124270530080068 55.299667192645408  7.758975443255018 -6.3483616042489395 55.177052612338798  8.0618488732385103 -5.9632738031018508 55.056223086129599  8.3487531104051094 -5.5542433293408928 54.937753747394829  8.6193718025610515 -5.1170210263168867 54.822579185429916  8.8727502417979416 -4.6467805748792941 54.711875665379893  9.2866207385413695 -3.7349471141688193 54.527066627484018  9.4531322329859115 -3.3152452114658724 54.451248248647715  9.6073538562239946 -2.8638553377239662 54.379875260094998  9.746721498222648 -2.3732504585953826 54.314385891763159  9.8647218714161511 -1.8389393746868521 54.258151282396987  9.9529639133771681 -1.2604291522577604 54.215735681682887  10.000000133476163 -0.6415004614613391 54.193130429014019  10 -5.3290705182007514e-15 54.193130493164062 
 0 9 0.072271689680042564 7 0.2042704041887109 7 0.34801979711435926 7 0.43036255079918617 7 0.55380595194674653 7 0.6155104169396739 7 0.68749987752367081 7 0.76977637007943134 7 0.89948044096472801 7 1 9
7 0 0  8 72 11  10 0 54.193130493164062  9.9999999333749479 0.32020699130166708 54.193130525184777  9.9882791339441521 0.64046217070539024 54.198764736739868  9.9648374900733891 0.96013643292811235 54.210031270547965  9.9297198203631165 1.2786163333624241 54.226879673633526  9.883015873648473 1.5953040880765639 54.24921089732706  9.8248603289992751 1.9096175738144203 54.276877297265109  9.7554327957200169 2.2209903279955281 54.309682633390139  9.5542441485204677 2.9906979373715479 54.403931782857455  9.4086251412778523 3.4448245531509318 54.471519570323544  9.2388552769094279 3.889278634473905 54.549329378445393  9.0458066721169956 4.3225444399559478 54.636371824859332  8.8303983795982344 4.743350747708452 54.731527757548065  8.5935684819139464 5.1505355804836856 54.833575146850116  8.3362889746411479 5.5429881566635855 54.941199310672921  7.7617545084114141 6.3252163826297911 55.173340901399847  7.4468310126960411 6.7050941505403925 55.296329893396589  7.1142301172034941 7.0638141126474361 55.421271394081508  6.7622402904316949 7.4039978801695137 55.547655797252965  6.3888415966689323 7.7276574520063894 55.675045407010337  5.9895613350251793 8.0361232390895747 55.802987844880022  5.5594924694023025 8.3304477258830847 55.931062180982899  4.8160445247210735 8.7694292777203682 56.130626875591439  4.5415136593522893 8.9186436850658346 56.200296766516331  4.2611560744743375 9.0583143347766448 56.267103325672736  3.9752855041125477 9.1881833521513698 56.330583582490249  3.6842526416056676 9.3079956213865671 56.390290511651735  3.3884451396058659 9.4174987855767753 56.44579303309331  3.0882876100787318 9.5164432467145286 56.496676012004365  2.3283976314606423 9.7367253237336868 56.611302690757952  1.8632565274162316 9.8447602027454337 56.668894042830857  1.3909644070259315 9.9276268455447614 56.713905721569105  0.91355036183984328 9.9846531545654233 56.745264027179694  0.43299094703366831 10.015417836159472 56.762257856714342  -0.048714995731338334 10.01969768558758 56.764567105934326  -0.52946115951984796 9.9974992126960398 56.752291769879925  -1.2456236978389292 9.9250176780538979 56.712829653017856  -1.483483393133711 9.89433168041794 56.696168330133737  -1.7202522570862564 9.8571622529645158 56.676070782382638  -1.9556751753216863 9.8135678570991232 56.652629874157199  -2.1895069852937059 9.7636197780407379 56.625958325351775  -2.4215124762846041 9.7074021248218187 56.596188711362451  -2.6514663894052539 9.6450118302882988 56.563473463087028  -3.1447921221389565 9.4966954547367557 56.486580906473407  -3.4073767156085273 9.4085634241448162 56.441386858404798  -3.6665869120751493 9.3123318659136416 56.392675312215474  -3.9221266172377995 9.2081730679972225 56.340728988635284  -4.1737239284231071 9.0962622997136631 56.285840739627488  -4.4211311345853543 8.9767778117451833 56.228313548388996  -4.6641247163064774 8.8499008361381204 56.168460529350206  -5.1749490016143103 8.5625704349052558 56.035910567844432  -5.4413711141220142 8.3998971126627602 55.962586239991836  -5.7014805264673862 8.2280553298514789 55.887104192552947  -5.9549977399747931 8.0472994528176347 55.809930050484951  -6.2016549141447399 7.857878503977636 55.731522815766596  -6.441195866653886 7.6600361618180841 55.652334867398075  -6.6733760733550378 7.4540107608957671 55.572811961401221  -7.2483012930844639 6.9062492455319351 55.369505832884279  -7.5770591996511065 6.5560592335614105 55.246958470525009  -7.888013820065936 6.1870477524174481 55.125928770706217  -8.1827205581965305 5.7963255701873493 55.006820405342928  -8.4618242364846967 5.3808039906725433 54.890239347580106  -8.7247127495096972 4.9359503488940666 54.777209529086242  -8.9701360598855491 4.4567333029393046 54.669014050230693  -9.3587089567467849 3.5480749337989117 54.494152879628302  -9.5100596668710544 3.1435028274522949 54.424842364020343  -9.6497776584556014 2.709466286792765 54.35990721299315  -9.7752818235913779 2.2396530970091271 54.300770899813145  -9.88077290688536 1.7306234886317875 54.250435773683236  -9.9588388019043741 1.1825816745893507 54.212912357076021  -9.9999998751342556 0.60011788027070589 54.193130553175848  -10 -5.0962132283646592e-15 54.193130493164062 
 0 9 0.088866727800133258 7 0.22216813499781146 7 0.36568564058031455 7 0.44678534211665061 7 0.56837488283162307 7 0.62915613674642523 7 0.70006862429057615 7 0.78111404056899225 7 0.90753894894682596 7 1 9
1 -22.5 -0 54.193130493164062 1 0 -0 
Polygon3D 0
PolygonOnTriangulations 0
Surfaces 5
1 10 0 0 -0 0 -1 -1 0 0 0 1 0 
2 0 0 0 -0 -0 -1 1 0 -0 -0 1 0 10
2 -22.5 0 75 1 -0 -0 0 0 -1 0 1 0 20.806869506835938
2 -22.5 0 75 1 0 -0 0 -0 -1 -0 1 -0 20.806869506835938
2 -22.5 0 75 1 0 -0 0 -0 -1 -0 1 -0 20.806869506835938
Triangulations 0

TShapes 18
Ve
1e-07
10 0 0
0 0

0101101
*
Ed
 1e-07 1 1 0
1  1 0 0 6.28318530717959
2  1 2 0 0 6.28318530717959
2  2 2 2 0 6.28318530717959
0

0101100
+18 0 -18 0 *
Wi

0101100
+17 0 *
Fa
0  1e-07 1 0

0111000
-16 0 *
Ve
1e-07
10 0 54.1931304931641
0 0

0101101
*
Ed
 1e-07 1 1 0
1  2 0 0 54.1931304931641
3  3 4CN 2 0 0 54.1931304931641
0

0101000
+18 0 -14 0 *
Ve
2.00001e-07
-10 0 54.1931304931641
0 0

0101101
*
Ed
 0.000900545352902352 1 1 0
1  3 0 0 1
2  5 2 0 0 1
2  6 3 3 0 1
0

0101000
+12 0 -14 0 *
Ed
 0.000900545352902352 1 1 0
1  4 0 0 1
2  7 2 0 0 1
2  8 3 3 0 1
0

0101000
+14 0 -12 0 *
Wi

0101000
-17 0 -13 0 +11 0 +10 0 +13 0 *
Fa
0  1e-07 2 0

0111000
+9 0 *
Ed
 1e-07 1 1 0
1  5 0 12.5 32.5
3  9 10CN 4 0 12.5 32.5
3  11 12CN 5 0 12.5 32.5
3  13 14CN 3 6 12.5 32.5
0

0101000
+12 7 -14 7 *
Wi

0101000
+7 5 -11 0 *
Fa
0  1e-07 3 3

0111000
+6 0 *
Wi

0101000
-7 5 -10 0 *
Fa
0  1e-07 3 3

0111000
+4 0 *
Sh

0101000
+15 0 -8 0 -5 0 -3 0 *
So

1100000
+2 0 *

+1 0 
0

