DBRep_DrawableShape

CASCADE Topology V1, (c) Matra-Datavision
Locations 2
1
              1               0 1.91867897605299e-16 -4.05654875704905e-15 
-5.08056719009081e-33               1 2.64795062305956e-17 -2.91913314223172e-16 
-1.91867897605299e-16 -2.64795062305956e-17               1             -25 
2  1 -1 0
Curve2ds 40
8 1.570796693268945 3.1415929184992808
1 1.5707963267948966 0 0 1 
8 1.570796693268945 3.1415929184992808
1 -1.5707966224406791 -20 1 0 
8 4.7123892760304722 6.2831855720890735
1 6.2831853071795862 12.566370614359172 -0 -1 
8 4.7123892760304722 6.2831855720890735
1 1.5707963267948948 -3.1415926535897927 0 1 
1 0 3.1415929184992808 1 0 
1 0 0 1 0 
1 0 0 0 1 
8 7.0828265918976285e-08 1.5707962960586013
1 0 0 1 0 
8 7.0828265918976285e-08 1.5707962960586013
1 4.7123889803846897 7.8539814091569653 -0 -1 
1 1.5707962960586013 0 0 1 
1 0 7.8539813383286994 1 0 
8 4.7123892760304731 6.2831855720890744
1 6.2831853071795862 12.566370614359172 -0 -1 
8 4.7123892760304731 6.2831855720890744
1 -4.7123891435759901 -20.000000000000004 1 0 
1 0 6.2831850422700981 1 0 
8 4.7123889803846897 6.2831853071795862
1 0 -0 1 0 
1 0 0 0 1 
8 7.0828265918976285e-08 1.5707962960586013
1 0 0 1 0 
8 7.0828265918976285e-08 1.5707962960586013
1 4.7123890059294986 7.8539814091569662 -0 -1 
1 1.5707962960586013 0 0 1 
1 0 7.8539813383287003 1 0 
8 4.7123892760304722 6.2831855720890735
1 6.2831853071795853 12.566370614359172 -0 -1 
8 4.7123892760304722 6.2831855720890735
1 -4.7123891435759893 -20 1 0 
1 0 6.283185042270099 1 0 
8 4.7123889803846897 6.2831853071795862
1 0 -0 1 0 
1 0 0 0 1 
8 7.0828265918976285e-08 1.5707962960586013
1 0 0 1 0 
8 7.0828265918976285e-08 1.5707962960586013
1 4.7123890059294986 7.8539814091569662 -0 -1 
1 1.5707962960586013 0 0 1 
1 0 7.8539813383287003 1 0 
8 4.7123892760304722 6.2831855720890735
1 6.2831853071795862 12.566370614359172 -0 -1 
8 4.7123892760304722 6.2831855720890735
1 -4.7123891435759893 -20 1 0 
1 0 6.283185042270099 1 0 
8 4.7123889803846897 6.2831853071795862
1 0 -0 1 0 
1 0 0 0 1 
8 7.0828265918976285e-08 1.5707962960586013
1 0 0 1 0 
8 7.0828265918976285e-08 1.5707962960586013
1 4.7123890059294986 7.8539814091569662 -0 -1 
1 1.5707962960586013 0 0 1 
1 0 7.8539813383287003 1 0 
1 0 6.283185042270099 1 0 
8 4.7123889803846897 6.2831853071795862
1 0 -0 1 0 
Curves 26
8 1.570796693268945 3.1415929184992808
2 15.999998132242752 10 8.9999997615799998 6.123233995736766e-17 -1 0 -1 -6.123233995736766e-17 0 0 -0 -1 9.0000049412319996
8 4.7123892760304722 6.2831855720890735
2 15.999998132242753 10.000000000000002 8.999999761579998 2.4492935982947064e-16 -1 2.6479506230596198e-17 1 2.4492935982947064e-16 -1.918678976052995e-16 1.918678976052995e-16 2.6479506230596244e-17 1 9.0000049412319996
2 16.000000834465499 10 9.0000021457666968 -0 -0 -1 0 1 -0 1 -0 0 9.0000022390089356
1 15.999999600965257 -10 -5.1796516071789256e-06 0 -1 2.647950623059548e-17 
8 7.0828265918976285e-08 1.5707962960586013
2 15.99999694015175 -10 8.9999997615799998 0 -1 2.647950623059548e-17 2.9564578287597233e-07 -2.6479506230594324e-17 -0.99999999999995637 0.99999999999995637 7.8285543497135881e-24 2.9564578287597233e-07 9.0000049412319996
1 25.000001881383433 -10 9.0000021457666968 0 -1 2.647950623059548e-17 
2 10.000000000000002 -10 -5.1796516036262119e-06 -1.9186789760529909e-16 -2.6479506230595649e-17 -1 -2.9605956539460874e-16 -1 2.6479506230595705e-17 -1 2.9605956539460874e-16 1.9186789760529909e-16 6.0000007930562571
8 4.7123892760304731 6.2831855720890744
2 10.000000000000004 -15.999998132242743 8.9999997615800016 -1 5.1130205565138102e-17 1.9186789760529909e-16 -5.1130205565138096e-17 -1 2.6479506230595658e-17 1.9186789760529909e-16 2.6479506230595649e-17 1 9.0000049412319996
2 10.000000000000004 -10 9.0000021457667057 -1.9186789760529909e-16 -2.6479506230595649e-17 -1 -2.9605956539460874e-16 -1 2.6479506230595705e-17 -1 2.9605956539460874e-16 1.9186789760529909e-16 15.000003073474426
1 -10 -15.999999600965257 -5.1796516036262119e-06 -1 0 1.9186789760529921e-16 
8 7.0828265918976285e-08 1.5707962960586013
2 -9.9999999999999982 -15.99999694015175 8.9999997615800034 -1 0 1.9186789760529921e-16 -1.9186789760529083e-16 -2.9564578287597233e-07 -0.99999999999995637 5.6724934796285582e-23 -0.99999999999995637 2.9564578287597233e-07 9.0000049412319996
1 -9.9999999999999982 -25.000001881383433 9.0000021457667003 -1 0 1.9186789760529921e-16 
2 -9.9999999999999982 -10 -5.1796516054025687e-06 -1.918678976052995e-16 -2.6479506230596244e-17 -1 -1 5.9211913078921678e-16 1.9186789760529948e-16 5.9211913078921678e-16 1 -2.6479506230596358e-17 6.0000007930562562
8 4.7123892760304722 6.2831855720890735
2 -15.999998132242746 -10.000000000000004 8.9999997615800016 -5.4098864874037914e-16 1 -2.6479506230596139e-17 -1 -5.4098864874037914e-16 1.918678976052995e-16 1.9186789760529948e-16 2.6479506230596244e-17 1 9.0000049412319996
2 -9.9999999999999964 -10 9.0000021457666968 -1.918678976052995e-16 -2.6479506230596244e-17 -1 -1 5.9211913078921678e-16 1.9186789760529948e-16 5.9211913078921678e-16 1 -2.6479506230596358e-17 15.000003073474433
1 -15.999999600965257 10 -5.1796516071789256e-06 0 1 -2.647950623059548e-17 
8 7.0828265918976285e-08 1.5707962960586013
2 -15.99999694015175 10 8.9999997615799998 0 1 -2.647950623059548e-17 -2.9564578287597233e-07 -2.6479506230594324e-17 -0.99999999999995637 -0.99999999999995637 7.8285543497135881e-24 2.9564578287597233e-07 9.0000049412319996
1 -25.000001881383433 10 9.0000021457666968 0 1 -2.647950623059548e-17 
2 -9.9999999999999982 10 -5.1796516071789256e-06 -1.9186789760529909e-16 -2.6479506230595649e-17 -1 2.9605956539460839e-16 1 -2.6479506230595705e-17 1 -2.9605956539460839e-16 -1.9186789760529909e-16 6.0000007930562562
8 4.7123892760304722 6.2831855720890735
2 -9.9999999999999964 15.99999813224275 8.999999761579998 1 -5.1130205565137757e-17 -1.9186789760529909e-16 5.1130205565137751e-17 1 -2.6479506230595658e-17 1.9186789760529909e-16 2.6479506230595649e-17 1 9.0000049412319996
2 -9.9999999999999964 10 9.000002145766695 -1.9186789760529909e-16 -2.6479506230595649e-17 -1 2.9605956539460839e-16 1 -2.6479506230595705e-17 1 -2.9605956539460839e-16 -1.9186789760529909e-16 15.000003073474433
1 10 15.999999600965257 -5.1796516107316393e-06 1 0 -1.9186789760529921e-16 
8 7.0828265918976285e-08 1.5707962960586013
2 10.000000000000002 15.99999694015175 8.9999997615799963 1 0 -1.9186789760529921e-16 -1.9186789760529083e-16 2.9564578287597233e-07 -0.99999999999995637 5.6724934796285582e-23 0.99999999999995637 2.9564578287597233e-07 9.0000049412319996
1 10.000000000000002 25.000001881383433 9.0000021457666932 1 0 -1.9186789760529921e-16 
2 10.000000000000002 10 -5.1796516054025687e-06 -1.918678976052995e-16 -2.6479506230596244e-17 -1 1 2.7589439164032195e-33 -1.918678976052995e-16 7.8395111064941495e-33 -1 2.6479506230596244e-17 6.0000007930562562
2 10.000000000000004 10 9.0000021457666968 -1.918678976052995e-16 -2.6479506230596244e-17 -1 1 2.7589439164032195e-33 -1.918678976052995e-16 7.8395111064941495e-33 -1 2.6479506230596244e-17 15.000003073474433
Polygon3D 0
PolygonOnTriangulations 0
Surfaces 18
5 16.000000834465499 10 8.9999997615799998 -0 -0 -1 0 -1 0 -1 0 0 2.7022227477857541e-06 9.0000049412319996
10 0 1.5707962960586013 -20 -0
2 15.99999694015175 -10 8.9999997615799998 0 -1 2.647950623059548e-17 2.9564578287597233e-07 -2.6479506230594324e-17 -0.99999999999995637 0.99999999999995637 7.8285543497135881e-24 2.9564578287597233e-07 9.0000049412319996
10 4.7123889803846897 6.2831853071795862 6.283185042270099 7.8539813383287003
5 10.000000000000004 10 8.9999997615799998 -1.918678976052995e-16 -2.6479506230596244e-17 -1 1 2.7589439164032195e-33 -1.918678976052995e-16 7.8395111064941495e-33 -1 2.6479506230596244e-17 5.9999981322427498 9.0000049412319996
2 16.000000834465499 10 9.0000021457700008 0 0 1 0 1 0 1 -0 -0 8.999999737902229
10 4.7123889803846897 6.2831853071795862 6.2831850422700981 7.8539813383286994
5 10.000000000000004 -10 8.9999997615800016 -1.9186789760529909e-16 -2.6479506230595649e-17 -1 -2.9605956539460874e-16 -1 2.6479506230595705e-17 -1 2.9605956539460874e-16 1.9186789760529909e-16 5.9999981322427427 9.0000049412319996
1 24.999999380276726 -10.000000000000002 9.0000021457700008 1 0 -0 0 0 1 0 -1 0 
10 0 1.5707962960586013 -20 -0
2 -9.9999999999999982 -15.99999694015175 8.9999997615800034 -1 0 1.9186789760529921e-16 -1.9186789760529083e-16 -2.9564578287597233e-07 -0.99999999999995637 5.6724934796285582e-23 -0.99999999999995637 2.9564578287597233e-07 9.0000049412319996
10 4.7123889803846897 6.2831853071795862 -40.999997854230003 -0
2 10.000000000000004 -10 9.0000021457700043 -1.9186789760529909e-16 -2.6479506230595649e-17 -1 -3.552713543236598e-16 -1 2.6479506230595717e-17 -1 3.552713543236598e-16 1.9186789760529909e-16 15.000000572367718
10 4.7123889803846897 6.2831853071795862 6.283185042270099 7.8539813383287003
5 -9.9999999999999964 -10 8.9999997615799998 -1.918678976052995e-16 -2.6479506230596244e-17 -1 -1 5.9211913078921678e-16 1.9186789760529948e-16 5.9211913078921678e-16 1 -2.6479506230596358e-17 5.9999981322427498 9.0000049412319996
1 -10 -24.999999380276726 9.0000021457700043 0 -1 0 0 0 1 -1 0 0 
10 0 1.5707962960586013 -20 -0
2 -15.99999694015175 10 8.9999997615799998 0 1 -2.647950623059548e-17 -2.9564578287597233e-07 -2.6479506230594324e-17 -0.99999999999995637 -0.99999999999995637 7.8285543497135881e-24 2.9564578287597233e-07 9.0000049412319996
10 4.7123889803846897 6.2831853071795862 -40.999997854230003 -0
2 -9.9999999999999964 -10 9.0000021457700008 -1.918678976052995e-16 -2.6479506230596244e-17 -1 -1 4.7369513909821274e-16 1.9186789760529948e-16 4.7369513909821274e-16 1 -2.6479506230596333e-17 15.000000572367728
10 4.7123889803846897 6.2831853071795862 6.283185042270099 7.8539813383287003
5 -9.9999999999999964 10 8.999999761579998 -1.9186789760529909e-16 -2.6479506230595649e-17 -1 2.9605956539460839e-16 1 -2.6479506230595705e-17 1 -2.9605956539460839e-16 -1.9186789760529909e-16 5.9999981322427498 9.0000049412319996
1 -24.999999380276726 10.000000000000002 9.0000021457700008 -1 0 0 0 0 1 0 1 -0 
10 0 1.5707962960586013 -20 -0
2 10.000000000000002 15.99999694015175 8.9999997615799963 1 0 -1.9186789760529921e-16 -1.9186789760529083e-16 2.9564578287597233e-07 -0.99999999999995637 5.6724934796285582e-23 0.99999999999995637 2.9564578287597233e-07 9.0000049412319996
10 4.7123889803846897 6.2831853071795862 -40.999997854230003 -0
2 -9.9999999999999964 10 9.0000021457699972 -1.9186789760529909e-16 -2.6479506230595649e-17 -1 3.5527135432365966e-16 1 -2.6479506230595717e-17 1 -3.5527135432365966e-16 -1.9186789760529909e-16 15.000000572367725
1 10.000000000000004 24.999999380276726 9.0000021457699972 -0 1 0 0 0 1 1 0 -0 
10 4.7123889803846897 6.2831853071795862 -40.999997854230003 -0
2 10.000000000000004 10 9.0000021457700008 -1.918678976052995e-16 -2.6479506230596244e-17 -1 1 -2.3684756954910637e-16 -1.918678976052995e-16 -2.3684756954910637e-16 -1 2.647950623059629e-17 15.000000572367728
Triangulations 0

TShapes 66
Ve
0.00300031872737338
16.0000011117836 10 -5.17965150148569e-06
0 0

0101101
*
Ve
0.00300188486791999
25.0000030734744 10 9.00000214576669
0 0

0101101
*
Ed
 0.003 1 1 0
1  1 0 1.57079669326894 3.14159291849928
2  1 1 0 1.57079669326894 3.14159291849928
2  2 2 0 1.57079669326894 3.14159291849928
4 G1 1 0 2 0
0

0101000
+66 0 -65 0 *
Ed
 0.003 1 1 0
1  2 0 4.71238927603047 6.28318557208907
2  3 3 0 4.71238927603047 6.28318557208907
2  4 1 0 4.71238927603047 6.28318557208907
4 G1 3 0 1 0
0

0101000
+66 0 -65 0 *
Ed
 0.00300188486791463 0 1 0
1  3 0 1.5707963267949 1.5707963267949
2  5 1 0 1.5707963267949 1.5707963267949
2  6 4 0 1.5707963267949 1.5707963267949
0

0101100
+65 0 -65 0 *
Wi

0101100
+64 0 -63 0 -62 0 *
Fa
0  0.003 1 0

0101000
+61 0 *
Ve
0.003
16.00000023842 -10 -5.17965139579246e-06
0 0

0101101
*
Ed
 1e-07 1 1 0
1  4 0 -20 0
2  7 2 0 -20 0
0

0101000
+66 0 -59 0 *
Ve
0.003
25.0000018813834 -10 9.0000021457667
0 0

0101101
*
Ed
 2.02773694956437e-06 1 1 0
1  5 0 7.08282659189763e-08 1.5707962960586
2  8 2 0 7.08282659189763e-08 1.5707962960586
2  9 5 0 7.08282659189763e-08 1.5707962960586
4 G1 2 0 5 0
0

0101000
+59 0 -57 0 *
Ed
 1e-07 1 1 0
1  6 0 -20 -0
2  10 2 0 -20 -0
4 G1 2 0 6 0
0

0101000
+65 0 -57 0 *
Wi

0101000
+64 0 -58 0 -56 0 +55 0 *
Fa
0  1e-07 2 0

0101000
+54 0 *
Ve
0.003
10 -16.0000007930563 -5.17965160362621e-06
0 0

0101101
*
Ed
 1e-07 1 1 0
1  7 0 4.71238898038469 6.28318530717959
2  11 5 0 4.71238898038469 6.28318530717959
0

0101000
+59 0 -52 0 *
Ve
0.003
10 -25.0000030734744 9.0000021457667
0 0

0101101
*
Ed
 2.52880729127654e-06 1 1 0
1  8 0 4.71238927603047 6.28318557208907
2  12 5 0 4.71238927603047 6.28318557208907
2  13 7 0 4.71238927603047 6.28318557208907
4 G1 5 0 7 0
0

0101000
+52 0 -50 0 *
Ed
 3.75166006718619e-06 1 1 0
1  9 0 4.71238898038469 6.28318530717959
2  14 5 0 4.71238898038469 6.28318530717959
2  15 8 0 4.71238898038469 6.28318530717959
4 G1 5 0 8 0
0

0101000
+57 0 -50 0 *
Wi

0101000
+56 0 -51 0 -49 0 +48 0 *
Fa
0  1e-07 5 0

0101000
+47 0 *
Ve
0.003
-10 -16.00000023842 -5.17965139223975e-06
0 0

0101101
*
Ed
 1e-07 1 1 0
1  10 0 -20 -3.5527136788005e-15
2  16 7 0 -20 -3.5527136788005e-15
0

0101000
+52 0 -45 0 *
Ve
0.003
-10 -25.0000018813834 9.0000021457667
0 0

0101101
*
Ed
 2.1076205293455e-06 1 1 0
1  11 0 7.08282659189763e-08 1.5707962960586
2  17 7 0 7.08282659189763e-08 1.5707962960586
2  18 9 0 7.08282659189763e-08 1.5707962960586
4 G1 7 0 9 0
0

0101000
+45 0 -43 0 *
Ed
 1e-07 1 1 0
1  12 0 -20 -0
2  19 7 0 -20 -0
4 G1 7 0 10 0
0

0101000
+50 0 -43 0 *
Wi

0101000
+49 0 -44 0 -42 0 +41 0 *
Fa
0  1e-07 7 0

0101000
+40 0 *
Ve
0.003
-16.0000007930562 -10 -5.17965160362621e-06
0 0

0101101
*
Ed
 1e-07 1 1 0
1  13 0 4.71238898038469 6.28318530717959
2  20 9 0 4.71238898038469 6.28318530717959
0

0101000
+45 0 -38 0 *
Ve
0.003
-25.0000030734744 -10 9.00000214576669
0 0

0101101
*
Ed
 2.52880731011765e-06 1 1 0
1  14 0 4.71238927603047 6.28318557208907
2  21 9 0 4.71238927603047 6.28318557208907
2  22 11 0 4.71238927603047 6.28318557208907
4 G1 9 0 11 0
0

0101000
+38 0 -36 0 *
Ed
 3.75166006197892e-06 1 1 0
1  15 0 4.71238898038469 6.28318530717959
2  23 9 0 4.71238898038469 6.28318530717959
2  24 12 0 4.71238898038469 6.28318530717959
4 G1 9 0 12 0
0

0101000
+43 0 -36 0 *
Wi

0101000
+42 0 -37 0 -35 0 +34 0 *
Fa
0  1e-07 9 0

0101000
+33 0 *
Ve
0.003
-16.00000023842 10 -5.17965139579246e-06
0 0

0101101
*
Ed
 1e-07 1 1 0
1  16 0 -20 -1.77635683940025e-15
2  25 11 0 -20 -1.77635683940025e-15
0

0101000
+38 0 -31 0 *
Ve
0.003
-25.0000018813834 10 9.0000021457667
0 0

0101101
*
Ed
 2.10762052047108e-06 1 1 0
1  17 0 7.08282659189763e-08 1.5707962960586
2  26 11 0 7.08282659189763e-08 1.5707962960586
2  27 13 0 7.08282659189763e-08 1.5707962960586
4 G1 11 0 13 0
0

0101000
+31 0 -29 0 *
Ed
 1e-07 1 1 0
1  18 0 -20 -0
2  28 11 0 -20 -0
4 G1 11 0 14 0
0

0101000
+36 0 -29 0 *
Wi

0101000
+35 0 -30 0 -28 0 +27 0 *
Fa
0  1e-07 11 0

0101000
+26 0 *
Ve
0.003
-10 16.0000007930563 -5.17965160717893e-06
0 0

0101101
*
Ed
 1e-07 1 1 0
1  19 0 4.71238898038469 6.28318530717959
2  29 13 0 4.71238898038469 6.28318530717959
0

0101000
+31 0 -24 0 *
Ve
0.003
-10 25.0000030734744 9.00000214576669
0 0

0101101
*
Ed
 2.5288073195382e-06 1 1 0
1  20 0 4.71238927603047 6.28318557208907
2  30 13 0 4.71238927603047 6.28318557208907
2  31 15 0 4.71238927603047 6.28318557208907
4 G1 13 0 15 0
0

0101000
+24 0 -22 0 *
Ed
 3.7516600671862e-06 1 1 0
1  21 0 4.71238898038469 6.28318530717959
2  32 13 0 4.71238898038469 6.28318530717959
2  33 16 0 4.71238898038469 6.28318530717959
4 G1 13 0 16 0
0

0101000
+29 0 -22 0 *
Wi

0101000
+28 0 -23 0 -21 0 +20 0 *
Fa
0  1e-07 13 0

0101000
+19 0 *
Ve
0.003
10 16.00000023842 -5.17965139934518e-06
0 0

0101101
*
Ed
 1e-07 1 1 0
1  22 0 -20 0
2  34 15 0 -20 0
0

0101000
+24 0 -17 0 *
Ve
0.003
10 25.0000018813834 9.00000214576669
0 0

0101101
*
Ed
 2.10762052353908e-06 1 1 0
1  23 0 7.08282659189763e-08 1.5707962960586
2  35 15 0 7.08282659189763e-08 1.5707962960586
2  36 3 0 7.08282659189763e-08 1.5707962960586
4 G1 15 0 3 0
0

0101000
+17 0 -15 0 *
Ed
 1e-07 1 1 0
1  24 0 -20 -0
2  37 15 0 -20 -0
4 G1 15 0 17 0
0

0101000
+22 0 -15 0 *
Wi

0101000
+21 0 -16 0 -14 0 +13 0 *
Fa
0  1e-07 15 0

0101000
+12 0 *
Ve
0.003
16.0000007930563 10 -5.17965160717893e-06
0 0

0101101
*
Ed
 1e-07 1 1 0
1  25 0 4.71238898038469 6.28318530717959
2  38 3 0 4.71238898038469 6.28318530717959
0

0101000
+17 0 -10 0 *
Ve
0.00300188486791463
25.0000030734744 10 9.00000214576669
0 0

0101101
*
Ed
 1e-07 1 1 0
1  2 0 4.71238927603047 6.28318557208907
2  3 3 0 4.71238927603047 6.28318557208907
2  4 1 0 4.71238927603047 6.28318557208907
4 G1 3 0 1 0
0

0101000
+10 0 -8 0 *
Ed
 3.75166006169494e-06 1 1 0
1  26 0 4.71238898038469 6.28318530717959
2  39 3 0 4.71238898038469 6.28318530717959
2  40 18 0 4.71238898038469 6.28318530717959
4 G1 3 0 18 0
0

0101000
+15 0 -8 0 *
Wi

0101000
+14 0 -9 0 -7 0 +6 0 *
Fa
0  1e-07 3 0

0101000
+5 0 *
Sh

0101000
+60 2 -53 2 -46 2 -39 2 -32 2 -25 2 -18 2 -11 2 -4 2 *
Co

0100000
+3 0 *
Co

1100000
+2 0 *

+1 0 
0

