DBRep_DrawableShape

CASCADE Topology V1, (c) Matra-Datavision
Locations 0
Curve2ds 36
1 0 0 1 0 
1 0 1.3291616440035958 1 0 
1 0 0 1 0 
1 6.2831853071795862 0 0 1 
1 0 0 0 1 
1 0 1.4294283667789478 1 0 
1 0 0 1 0 
1 6.2831853071795862 0 0 1 
1 0 0 0 1 
1 0 0.50614344203744477 1 0 
1 0 -5.5747929946407817e-12 1 0 
1 6.2831853071795862 0 0 1 
1 0 0 0 1 
1 0 0.57686653879013239 1 0 
1 0 0 1 0 
1 6.2831853071795862 0 0 1 
1 0 0 0 1 
1 0 0.50614246139523211 1 0 
1 0 2.640661746304363e-12 1 0 
1 6.2831853071795862 0 0 1 
1 0 0 0 1 
1 0 3.9246471205871729 1 0 
1 0 0 1 0 
1 6.2831853071795862 0 0 1 
1 0 0 0 1 
1 0 0.50614986077130486 1 0 
1 0 0 1 0 
1 6.2831853071795862 0 0 1 
1 0 0 0 1 
1 0 1.2857711767178281 1 0 
1 0 0 1 0 
1 6.2831853071795862 0 0 1 
1 0 0 0 1 
1 0 2.8624432087047258 1 0 
1 6.2831853071795862 0 0 1 
1 0 0 0 1 
Curves 17
2 2.1500024795530002 5.8249936103820001 -16.299987793090001 0 0 -1 -1 0 0 0 1 0 1.3291616439817
1 2.1500024795530002 5.8249936103820001 -16.299995422359999 -0.99999999998352673 0 5.7399113436625611e-06 
2 2.1500024795530002 5.8249936103820001 -17.729198460671231 0 0 -1 -0.99999999999961253 8.803529348198124e-07 0 8.803529348198124e-07 0.99999999999961253 0 1.354108055034609
1 0.82084083557130005 5.8249936103820001 -16.299987793090001 -0.017452213895754208 0 -0.99984769851719746 
2 2.1500024795530002 5.8249936103820001 -17.873945218943717 0 0 -1 -0.99999999999963451 8.5500681395512897e-07 0 8.5500681395512897e-07 0.99999999999963451 0 1.3942497075531231
2 0.49597549438479999 5.8249959945679999 -17.723962783809998 0 1 0 0.99984766185297203 0 -0.017454314284582637 -0.017454314284582637 0 -0.99984766185297203 0.29996490478519999
2 2.1500024795530002 5.8249936103820001 -18.373527761769559 0 0 -1 -0.99999999999998779 1.5626707534389055e-07 0 1.5626707534389055e-07 0.99999999999998779 0 1.6826804383812719
1 0.75575280189509997 5.8249936103820001 -17.873945236210002 -0.49999635653587904 0 -0.86602750732921085 
2 2.1500024795530002 5.8249936103820001 -19.917657859368468 0 0 -1 -0.99999999999999845 5.6550541664877543e-08 0 5.6550541664877543e-08 0.99999999999999845 0 2.1109049966104325
2 3.2385823726649998 5.8249959945679999 -19.973508834840001 6.7055813920571346e-07 -0.99999999999977518 0 -0.86602632736770391 -5.807210025829761e-07 0.49999840030311038 -0.49999840030299797 -3.3527799691308712e-07 -0.86602632736789853 3.199971914292
2 2.1500024795530002 5.8249936103820001 -23.841707234550707 0 0 -1 -0.99999999999999856 5.4789858363428801e-08 0 5.4789858363428801e-08 0.99999999999999856 0 2.1793996843194572
1 0.039097070693969997 5.8249936103820001 -19.917657852169999 -0.01745241195701612 0 -0.9998476950600439 
2 2.1500024795530002 5.8249936103820001 -23.986482888780788 0 0 -1 -0.99999999999999123 1.3286137512646061e-07 0 1.3286137512646061e-07 0.99999999999999123 0 2.2195499060462218
2 -0.32937288284299998 5.824996471405 -23.836471557620001 8.7413837764268854e-06 0.99999999996179401 0 0.99984771942902029 -8.7400526338481798e-06 -0.017451013615222732 -0.017451013614556001 1.5254600729831272e-07 -0.9998477194672204 0.30002164841840001
2 2.1500024795530002 5.8249936103820001 -25.099988937380001 0 0 -1 -0.99999999999832112 -1.8324237785855057e-06 -0 -1.8324237785855057e-06 0.99999999999832112 0 2.8624432086990064
1 -0.069547891616819998 5.8249936103820001 -23.98648262024 -0.50000563799033393 -4.0794264916250738e-06 -0.86602214865512395 
1 -0.71244072914120005 5.8249883651729997 -25.099988937380001 0.99999999999632305 1.8324237785818444e-06 -1.9990055977282922e-06 
Polygon3D 0
PolygonOnTriangulations 0
Surfaces 9
3 2.1500024795530002 5.8249936103820001 -16.299995422359999 -0 -0 1 -1 0 0 0 1 0 0
1.570790586883553
3 2.1500024795530002 5.8249936103820001 -16.299987793090001 0 0 -1 -1 0 0 0 1 0 1.3291616439817
0.017453099949084842
7 2.1500024795530002 5.8249936103820001 -16.299995422359999 0 0 -1 
2 0.49597549438479999 5.8249959945679999 -17.723962783809998 0 1 0 0.99984766185297203 0 -0.017454314284582637 -0.017454314284582637 0 -0.99984766185297203 0.29996490478519999
3 2.1500024795530002 5.8249936103820001 -17.873945236210002 0 0 -1 -1 0 0 0 1 0 1.3942496776579003
0.52359456849342634
7 2.1500024795530002 5.8249936103820001 -16.299995422359999 0 0 -1 
2 3.2385823726649998 5.8249959945679999 -19.973508834840001 6.7055813920571346e-07 -0.99999999999977529 0 -0.86602632736770391 -5.807210025829761e-07 0.49999840030311038 -0.49999840030299797 -3.3527799691308712e-07 -0.86602632736789853 3.199971914292
3 2.1500024795530002 5.8249936103820001 -19.917657852169999 0 0 -1 -1 0 0 0 1 0 2.11090540885903
0.017453298040516714
7 2.1500024795530002 5.8249936103820001 -16.299995422359999 0 0 -1 
2 -0.32937288284299998 5.824996471405 -23.836471557620001 8.7413837764268871e-06 0.99999999996179412 2.6469779601696886e-23 0.99984771942902029 -8.7400526338481798e-06 -0.017451013615222732 -0.017451013614556001 1.5254600729831272e-07 -0.9998477194672204 0.30002164841840001
7 2.1500024795530002 5.8249936103820001 -16.299995422359999 0 0 -1 
1 -0.069547891616819998 5.8249936103820001 -23.98648262024 -0.50000563799033393 -4.0794264916250738e-06 -0.86602214865512395 
3 2.1500024795530002 5.8249936103820001 -25.099988937380001 0 0 -1 -0.99999999999832112 -1.8324237785855057e-06 -0 -1.8324237785855057e-06 0.99999999999832112 0 2.8624432086990064
-1.5707943277892988
Triangulations 0

TShapes 50
Ve
0.003
2.150002479553 5.824993610382 -16.29999542236
0 0

0101101
*
Ed
 0.003 1 1 1
2  1 1 0 0 6.28318530717959
0

0101100
+50 0 -50 0 *
Ve
0.003
0.8208408355713 5.824993610382 -16.29998779309
0 0

0101101
*
Ed
 0.003 1 1 0
1  1 0 0 6.28318530717959
2  2 1 0 0 6.28318530717959
2  3 2 0 0 6.28318530717959
0

0101100
+48 0 -48 0 *
Ed
 0.003 1 1 0
1  2 0 0 1.3291616440036
3  4 5CN 1 0 0 1.3291616440036
0

0101000
+50 0 -48 0 *
Wi

0101000
+49 0 -47 0 -46 0 +46 0 *
Fa
0  0.003 1 0

0111000
+45 0 *
Ve
0.003
0.795894424518916 5.824994802475 -17.7291984606712
0 0

0101101
*
Ed
 0.003 1 1 0
1  3 0 0 6.28318530717959
2  6 2 0 0 6.28318530717959
2  7 3 0 0 6.28318530717959
4 G1 2 0 3 0
0

0101100
+43 0 -43 0 *
Ed
 0.003 1 1 0
1  4 0 0 1.42942836677982
3  8 9CN 2 0 0 1.42942836677982
0

0101000
+48 0 -43 0 *
Wi

0101000
+47 0 -42 0 -41 0 +41 0 *
Fa
0  0.003 2 0

0111000
+40 0 *
Ve
0.003
0.755752772000387 5.824994802475 -17.8739452189437
0 0

0101101
*
Ed
 0.003 1 1 0
1  5 0 0 6.28318530717959
2  10 3 0 0 6.28318530717959
2  11 4 0 0 6.28318530717959
4 G1 3 0 4 0
0

0101100
+38 0 -38 0 *
Ed
 0.003 1 1 0
1  6 0 0 0.506143442037445
3  12 13CN 3 0 0 0.506143442037445
0

0101000
+43 0 -38 0 *
Wi

0101000
+42 0 -37 0 -36 0 +36 0 *
Fa
0  0.003 3 0

0111000
+35 0 *
Ve
0.003
0.467322041171749 5.82499387332955 -18.3735277617696
0 0

0101101
*
Ed
 0.003 1 1 0
1  7 0 0 6.28318530717959
2  14 4 0 0 6.28318530717959
2  15 5 0 0 6.28318530717959
4 G1 4 0 5 0
0

0101100
+33 0 -33 0 *
Ed
 0.003 1 1 0
1  8 0 0 0.576866538790073
3  16 17CN 4 0 0 0.576866538790073
0

0101000
+38 0 -33 0 *
Wi

0101000
+37 0 -32 0 -31 0 +31 0 *
Fa
0  0.003 4 0

0111000
+30 0 *
Ve
0.003
0.0390974829425713 5.82499372975482 -19.9176578593685
0 0

0101101
*
Ed
 0.003 1 1 0
1  9 0 0 6.28318530717959
2  18 5 0 0 6.28318530717959
2  19 6 0 0 6.28318530717959
4 G1 5 0 6 0
0

0101100
+28 0 -28 0 *
Ed
 0.003 1 1 0
1  10 0 0 0.506142461395232
3  20 21CN 5 0 0 0.506142461395232
0

0101000
+33 0 -28 0 *
Wi

0101000
+32 0 -27 0 -26 0 +26 0 *
Fa
0  0.003 5 0

0111000
+25 0 *
Ve
0.003
-0.0293972047664537 5.824993729791 -23.8417072345507
0 0

0101101
*
Ed
 0.003 1 1 0
1  11 0 0 6.28318530717959
2  22 6 0 0 6.28318530717959
2  23 7 0 0 6.28318530717959
4 G1 6 0 7 0
0

0101100
+23 0 -23 0 *
Ed
 0.003 1 1 0
1  12 0 0 3.92464712058405
3  24 25CN 6 0 0 3.92464712058405
0

0101000
+28 0 -23 0 *
Wi

0101000
+27 0 -22 0 -21 0 +21 0 *
Fa
0  0.003 6 0

0111000
+20 0 *
Ve
0.003
-0.0695474264932019 5.82499390527445 -23.9864828887808
0 0

0101101
*
Ed
 0.003 1 1 0
1  13 0 0 6.28318530717959
2  26 7 0 0 6.28318530717959
2  27 8 0 0 6.28318530717959
4 G1 7 0 8 0
0

0101100
+18 0 -18 0 *
Ed
 0.003 1 1 0
1  14 0 0 0.506149860771305
3  28 29CN 7 0 0 0.506149860771305
0

0101000
+23 0 -18 0 *
Wi

0101000
+22 0 -17 0 -16 0 +16 0 *
Fa
0  0.003 7 0

0111000
+15 0 *
Ve
0.003
-0.7124407291412 5.824988365173 -25.09998893738
0 0

0101101
*
Ed
 0.003 1 1 0
1  15 0 0 6.28318530717959
2  30 8 0 0 6.28318530717959
2  31 9 0 0 6.28318530717959
0

0101100
+13 0 -13 0 *
Ed
 0.003 1 1 0
1  16 0 0 1.28577117671783
3  32 33CN 8 0 0 1.28577117671783
0

0101000
+18 0 -13 0 *
Wi

0101000
+17 0 -12 0 -11 0 +11 0 *
Fa
0  0.003 8 0

0111000
+10 0 *
Ve
0.003
2.150002479553 5.824993610382 -25.09999465942
0 0

0101101
*
Ed
 0.003 1 1 1
2  34 9 0 0 6.28318530717959
0

0101100
+8 0 -8 0 *
Ed
 0.003 1 1 0
1  17 0 0 2.86244320870473
3  35 36CN 9 0 0 2.86244320870473
0

0101000
+13 0 -8 0 *
Wi

0101000
+12 0 -7 0 -6 0 +6 0 *
Fa
0  0.003 9 0

0111000
+5 0 *
Sh

0101000
-44 0 -39 0 -34 0 -29 0 -24 0 -19 0 -14 0 -9 0 -4 0 *
So

0100000
-3 0 *
Co

1100000
+2 0 *

+1 0 