DBRep_DrawableShape

CASCADE Topology V1, (c) Matra-Datavision
Locations 2
1
              1               0               0 9.2252274103577e-08 
              0               1               0 -2.49999999999998 
              0               0               1 -2.61751681588566e-07 
2  1 -1 0
Curve2ds 17
8 9.4247757208367808 12.566368374426574
7 0 0  9 18 3  6.2831853071795862 23.821402479928736  6.6322511584673407 23.821404147189575  6.9813170086999889 23.528975965506106  7.3303828591306228 22.944111560587771  7.6794487090082839 22.135566908167675  8.0285145597881638 21.240617278497666  8.3775804099568632 20.432071053015534  8.72664626022015 19.847203900892055  9.075712110481625 19.554772383992521  9.7738438110571337 19.554769047981509  10.122909661418817 19.847197228606092  10.471975511230994 20.432061634113779  10.821041362476535 21.240606282954104  11.170107211684808 22.135555917513557  11.519173062959453 22.944102139910683  11.868238912669767 23.528969293634873  12.217304763071418 23.821400811178552  12.566370614359156 23.821402479928693 
 6.2831830672469877 10 9.4247757208367808 8 12.566368374426574 10
8 3.1415904136571946 6.2831830672469877
3 10.066804422068538 -7.0000232412769616 -1 1.3335869846676574e-14 -1.3335869846676574e-14 -1 4.2018363746229168 3.6199989318799979
8 -7.0710985859549353 1.4858608479060955
1 4.1729020929203511 5.9842172727547309 0.50771036560498994 0.86152782001351969 
8 -7.0710985859549353 1.4858608479060955
1 7.2741855530494348 -5.0000127485095236 -0.99999999999809663 1.9511307181402031e-06 
8 -2.0966163336224715 5.6749102063396144
1 -18.933026052025433 1.7891470101604141 -3.8635500603169211e-15 1 
8 -2.0966163336224715 5.6749102063396144
1 -1.7891469363585699 -2.0000028392620219 0.99999999999999933 3.6900909641431007e-08 
1 0 0 1 0 
2 0 0 1 0 -0 1 3.6199989318799979
8 -5.3003497250123557 -4.4717669768184027
1 9.9660832342046959 -2.4973698895733834 0.9999999994119313 -3.429486111409982e-05 
8 -5.3003497250123557 -4.4717669768184027
1 -4.1615689350627783 -37.775795442624812 -0.93048460630319585 0.36633099436546002 
8 -2.5000034904997954 -8.904997922206492e-07
1 5.4744778672306564 2.1904997922206467e-06 4.294543347582236e-08 0.99999999999999911 
8 -2.5000034904997954 -8.904997922206492e-07
1 -2.1904997922206348e-06 -39.421213370465068 -0.99999999999999323 1.1709693884337003e-07 
1 0 0 0 -1 
8 16.405390641683383 17.656634878690582
1 -10.099953041292672 -21.955962329468193 0.61564838421387291 -0.78802098132908094 
8 16.405390641683383 17.656634878690582
1 -11.084035300472786 -5.0015092523071267 0.99999999824790109 -5.9196265265013203e-05 
8 -3.7500156570700169 -1.2500130570699264
1 4.5309327192116822 -3.7500143570698543 2.9429094670298384e-07 -0.99999999999995681 
8 -3.7500156570700169 -1.2500130570699264
1 5.3204087352539418 -3.7500032564713708 -2.3370424450441367e-06 0.99999999999726918 
Curves 13
3 38.54999923706 15.000003814699999 10.388086407227874 -0.50771036560468308 -1.1372369983394822e-06 0.86152782001294981 0.86152782001078865 1.9297642482601895e-06 0.50771036560595684 -2.2399325981500894e-06 0.99999999999749134 -2.1175823681357508e-22 4.2018363746229168 3.6199989318799979
1 40.955922563295744 12.999998711033667 11.805927954215669 0.86152782001351913 -2.1366456542923152e-08 0.50771036560499039 
1 36.76085230070143 13.000000975437978 -11.300000190730003 0.99999999999999933 3.6900909641431007e-08 -0 
2 38.54999923706 15.000003814699999 -11.30000019073 0 0 1 1 0 -0 -0 1 0 3.6199989318799979
1 38.636788820389711 13.002630110426631 10.439223940500247 -0.86152785359650419 -3.4294861114099616e-05 -0.50771030746013324 
1 47.222846984859999 15.5 15.49910736084 -0.86152785410503863 0 -0.50771030775548298 
1 42.48934173584 15.5 12.709587097169999 3.6900909641430808e-08 -0.99999999999999389 -1.0470067263542642e-07 
1 42.506431815559125 15.500002190499792 12.719658518067941 -9.2307387940737894e-08 0.99999999999999323 7.2048866875517609e-08 
1 11.89216284881433 12.999990679208082 37.566494661046846 0.7882988967923823 7.1012734907719753e-05 -0.61529248676796355 
1 22.514471868091327 13.00145390722442 15.499107360839966 0.99999999811279683 6.1436197874569526e-05 -3.837978550797345e-19 
1 11.43073272705 12.99998474121 36.975234985349999 0.7882988967923823 7.1012734907719753e-05 -0.61529248676796355 
1 42.48934173584 15.5 12.709587097169999 -0.78801071556781987 -2.1776735496936926e-07 0.61566152401319107 
1 38.918918707065998 11.749984656241008 15.499107360839975 -9.71098314149763e-08 -0.99999999999999534 6.4834808980005469e-15 
Polygon3D 0
PolygonOnTriangulations 0
Surfaces 10
1 47.222846984859999 8 15.49910736084 -0.50771036560468308 -1.1372369983394822e-06 0.86152782001294981 -0.86152782001078865 -1.9297642615960588e-06 -0.50771036560595684 2.2399326096393116e-06 -0.99999999999749134 6.7707593461849075e-15 
2 38.54999923706 15.000003814699999 -11.30000019073 0 0 1 1 0 -0 -0 1 0 3.6199989318799979
1 34.971705198288745 15.499998927116247 7.6330261230469993 -3.6900909641430808e-08 0.99999999999999389 1.0470067263542642e-07 7.8886090522101163e-31 -1.0470067263542648e-07 0.99999999999999456 0.99999999999999944 3.690090964143061e-08 3.8635500603168991e-15 
1 38.54999923706 15.000003814699999 -11.30000019073 0 0 1 1 0 -0 -0 1 0 
1 47.222846984859999 15.5 15.49910736084 0.50771030775547998 1.0893751800946116e-07 -0.86152785410503341 -0.86152785410503863 0 -0.50771030775548309 -5.5308700794702014e-08 0.99999999999999412 9.3852706122220084e-08 
1 11.43073272705 12.99998474121 36.975234985349999 6.1436197833190448e-05 -0.99999999743926749 -3.67022972594314e-05 0.61564838482888806 8.9009157048957644e-06 0.7880209807983255 -0.78802097845373054 -7.1008722900309365e-05 0.61564838379921571 
1 11.43073272705 15.5 36.975234985349999 -0.61529248831936456 -0 -0.78829889878000248 0 -1 0 -0.78829889878000248 0 0.61529248831936456 
6 -0.7882988967923823 -7.1012734907719753e-05 0.61529248676796355 
2 11.89185333252 14.24999046326 37.566734313959998 -0.78801084050222059 -1.0587911840678754e-22 0.61566136410447581 8.4130257535325172e-07 -0.9999999999990663 1.0768185047393962e-06 0.61566136410390093 1.3665021461546275e-06 0.78801084050148484 1.2500005217750001
1 33.598518371579999 7.9999694824220002 15.49910736084 1.4522560313314406e-20 -6.4834808980019873e-15 -1 0.99999999999749134 2.2399326136294145e-06 -3.009265538105056e-36 2.2399326136294145e-06 -0.99999999999749134 6.4834808980182521e-15 
1 42.48934173584 15.5 12.709587097169999 -0.61566152401321494 5.9786781696558541e-08 -0.7880107155678292 -0.78801071556781987 -2.1776735496936929e-07 0.61566152401319107 -1.3479458808157896e-07 0.99999999999997458 1.811836062669708e-07 
Triangulations 0

TShapes 42
Ve
0.164111852359479
35.5326539816865 12.9999988455343 8.60992010585661
0 0

0101101
*
Ve
0.164111852359479
41.5673443932306 12.99999869587 12.16624737003
0 0

0101101
*
Ed
 0.164111852359479 1 1 0
1  1 0 3.72693630557093 5.69783712573194
2  1 2 0 3.72693630557093 5.69783712573194
2  2 1 0 3.72693630557093 5.69783712573194
0

0101000
+42 0 -41 0 *
Ed
 0.00300015 1 1 0
1  2 0 -6.2949430716284 0.709694818590141
2  3 3 1 -6.2949430716284 0.709694818590141
2  4 1 0 -6.2949430716284 0.709694818590141
0

0101000
+42 0 -41 0 *
Wi

0101100
+40 0 -39 0 *
Fa
0  0.003 1 0

0111000
+38 0 *
Sh

0101000
+37 0 *
Ve
0.00300015
35.5326525999516 13.0000009301163 -11.30000019073
0 0

0101101
*
Ve
0.00300015
41.5673460217722 13.000001152802 -11.30000019073
0 0

0101101
*
Ed
 0.00300015 1 1 0
1  3 0 -1.2281997007498 4.80649372107078
2  5 3 1 -1.2281997007498 4.80649372107078
2  6 4 0 -1.2281997007498 4.80649372107078
0

0101000
+35 0 -34 0 *
Ed
 1.00005e-07 1 1 0
1  4 0 3.72693785463744 5.69784017993376
2  7 2 0 3.72693785463744 5.69784017993376
2  8 4 0 3.72693785463744 5.69784017993376
0

0101000
+35 0 -34 0 *
Wi

0101000
-33 0 +32 0 *
Fa
0  1e-07 4 0

0111000
+31 0 *
Sh

0101000
-30 0 *
Ve
0.00479699156983349
43.2009776963002 13.0014055436359 13.1289638424686
0 0

0101101
*
Ve
0.006000000001
42.5064320460708 13.0027841494126 12.7196583381462
0 0

0101101
*
Ed
 0.0030003000075 1 1 0
1  5 0 -5.30034972501236 -4.49160547685951
2  9 5 0 -5.30034972501236 -4.49160547685951
2  10 6 0 -5.30034972501236 -4.49160547685951
0

0101000
+28 0 -27 0 *
Ve
0.0030003000075
42.48934173584 15.5 12.70958709717
0 0

0101101
*
Ed
 0.00300015 1 1 0
1  6 0 4.6682986593848 5.49431481114119
0

0101000
+28 2 -25 0 *
Ed
 0.0030003000075 1 1 0
1  7 0 0 2.5
0

0101000
+25 0 -25 1 *
Ve
0.006000000001
42.5064318155593 15.5 12.7196585180678
0 0

0101101
*
Ed
 0.00300015 1 1 0
1  6 0 5.47447786723057 5.49431481114119
0

0101000
+22 0 -25 0 *
Ed
 0.00300015 1 1 0
1  8 0 -2.5000034904998 -8.90499792220649e-07
2  11 5 0 -2.5000034904998 -8.90499792220649e-07
2  12 7 0 -2.5000034904998 -8.90499792220649e-07
0

0101000
+27 0 -22 0 *
Wi

0101100
-26 0 +24 1 -23 0 -21 0 -20 0 *
Fa
0  0.003 5 0

0111000
+19 0 *
Ve
0.00639144793082196
40.1644031864466 13.0025375419736 15.49910736084
0 0

0101101
*
Ed
 0.00339161750221844 1 1 0
1  9 0 35.8648736572804 39.7169334124552
2  13 8 0 35.8648736572804 39.7169334124552
4 G1 6 0 8 0
0

0101000
+17 0 -28 0 *
Ve
0.006000000001
38.9454644649626 13.0024633649388 15.49910736084
0 0

0101101
*
Ed
 0.00300015 1 1 0
1  10 0 16.4309926278799 17.6499313516207
2  14 6 0 16.4309926278799 17.6499313516207
2  15 9 0 16.4309926278799 17.6499313516207
0

0101000
+15 0 -17 0 *
Ed
 0.00300015 1 1 0
1  11 0 34.9039328227796 39.4212137622785
0

0101000
+15 0 -27 0 *
Wi

0101100
-16 0 -14 0 +13 0 -26 0 *
Fa
0  0.003 6 0

0111000
+12 0 *
Ve
0.006000000001
38.9189188284547 12.9999990133109 15.49910736084
0 0

0101101
*
Ed
 0.00300015 1 1 0
1  12 0 0 4.53093204077161
0

0101000
+25 0 -10 2 *
Ve
0.006000000001
38.9189190712292 15.499999013311 15.49910736084
0 0

0101101
*
Ed
 0.00300015 1 1 0
1  13 0 -3.75001565707002 -1.25001305706993
2  16 10 0 -3.75001565707002 -1.25001305706993
2  17 9 0 -3.75001565707002 -1.25001305706993
0

0101000
+8 0 -10 0 *
Ed
 0.00300015 1 1 0
1  12 0 0 4.53093161561642
0

0101000
+25 0 -8 0 *
Wi

0101100
+23 0 +9 1 -7 0 -6 0 *
Fa
0  0.003 10 0

0111000
+5 0 *
Sh

0101000
-18 0 +11 0 -4 0 *
Co

0100000
+36 0 +29 0 +3 0 *
Co

1100000
+2 0 *

+1 0 
0

