DBRep_DrawableShape

CASCADE Topology V1, (c) Matra-Datavision
Locations 1
1
              1               0               0            0.25 
              0 -3.9803846905162e-06 0.999999999992078            0.25 
              0 -0.999999999992078 -3.9803846905162e-06             0.5 
Curve2ds 24
1 0 0 0 1 
1 0 0 1 0 
1 0 0.5 0.95346258924559246 -0.30151134457776357 
1 0 0 0.95346258924559235 -0.30151134457776363 
1 0.31622776601683794 0.10000000000000001 0 1 
1 0.10000000000000001 0.10000000000000001 1 0 
1 0 0 0.95346258924559235 0.30151134457776363 
1 0 0 0.95346258924559235 -0.30151134457776363 
1 0 0 0 1 
1 0 0.5 1 0 
1 0 0.5 0.95346258924559235 -0.30151134457776357 
1 0 -0.5 0.95346258924559235 0.30151134457776357 
1 0.31622776601683794 0.10000000000000001 0 1 
1 0.10000000000000001 0.40000000000000002 1 0 
1 0 0 0.95346258924559235 0.30151134457776363 
1 0 -0.5 0.95346258924559246 0.30151134457776357 
1 0 0 0 1 
1 0 0 0 -1 
1 0.5 0 0 1 
1 0 0 0 -1 
1 0.10000000000000001 0.10000000000000001 0 1 
1 0.31622776601683794 -0.10000000000000001 0 -1 
1 0.40000000000000002 0.10000000000000001 0 1 
1 0.31622776601683794 -0.10000000000000001 0 -1 
Curves 12
1 0 0 0 0 0 1 
1 0 0 0.5 0.30151134457776363 0.90453403373329089 -0.30151134457776357 
1 0.10000000000000001 0.29999999999999999 0.10000000000000001 0 0 1 
1 0 0 0 0.30151134457776363 0.90453403373329078 0.30151134457776363 
1 0.5 0 0 0 0 1 
1 0.5 0 0.5 -0.30151134457776357 0.90453403373329089 -0.30151134457776357 
1 0.40000000000000002 0.29999999999999999 0.10000000000000001 0 0 1 
1 0.5 0 0 -0.30151134457776357 0.90453403373329089 0.30151134457776363 
1 0 0 0 1 0 -0 
1 0 0 0.5 1 0 -0 
1 0.10000000000000001 0.29999999999999999 0.10000000000000001 1 0 -0 
1 0.10000000000000001 0.29999999999999999 0.40000000000000002 1 0 -0 
Polygon3D 0
PolygonOnTriangulations 0
Surfaces 6
1 0 0 0 0.94868329805051377 -0.31622776601683794 -0 0.316227766016838 0.94868329805051388 0 0 -0 1 
1 0 0 0 -0 1 0 0 0 1 1 0 -0 
1 0 0 0.5 0 0.31622776601683783 0.94868329805051377 0 0.94868329805051388 -0.31622776601683789 -1 0 0 
1 0 0.29999999999999999 0 -0 1 0 0 0 1 1 0 -0 
1 0 0 0 0 -0.31622776601683794 0.94868329805051377 0 0.94868329805051388 0.316227766016838 -1 0 0 
1 0.5 0 0 0.94868329805051377 0.31622776601683783 0 -0.31622776601683789 0.94868329805051388 0 0 -0 1 
Triangulations 0

TShapes 34
Ve
1e-07
0 0 0.5
0 0

0101101
*
Ve
1e-07
0 0 0
0 0

0101101
*
Ed
 1e-07 1 1 0
1  1 0 0 0.5
2  1 1 0 0 0.5
2  2 2 0 0 0.5
0

0101000
-34 0 +33 0 *
Ve
1e-07
0.1 0.3 0.4
0 0

0101101
*
Ed
 1e-07 1 1 0
1  2 0 0 0.33166247903554
2  3 1 0 0 0.33166247903554
2  4 3 0 0 0.33166247903554
0

0101000
-31 0 +34 0 *
Ve
1e-07
0.1 0.3 0.1
0 0

0101101
*
Ed
 1e-07 1 1 0
1  3 0 0 0.3
2  5 1 0 0 0.3
2  6 4 0 0 0.3
0

0101000
-31 0 +29 0 *
Ed
 1e-07 1 1 0
1  4 0 0 0.33166247903554
2  7 1 0 0 0.33166247903554
2  8 5 0 0 0.33166247903554
0

0101000
-29 0 +33 0 *
Wi

0101000
-32 0 -30 0 +28 0 +27 0 *
Fa
0  1e-07 1 0

0111000
+26 0 *
Ve
1e-07
0.5 0 0.5
0 0

0101101
*
Ve
1e-07
0.5 0 0
0 0

0101101
*
Ed
 1e-07 1 1 0
1  5 0 0 0.5
2  9 6 0 0 0.5
2  10 2 0 0 0.5
0

0101000
-24 0 +23 0 *
Ve
1e-07
0.4 0.3 0.4
0 0

0101101
*
Ed
 1e-07 1 1 0
1  6 0 0 0.33166247903554
2  11 6 0 0 0.33166247903554
2  12 3 0 0 0.33166247903554
0

0101000
-21 0 +24 0 *
Ve
1e-07
0.4 0.3 0.1
0 0

0101101
*
Ed
 1e-07 1 1 0
1  7 0 0 0.3
2  13 6 0 0 0.3
2  14 4 0 0 0.3
0

0101000
-21 0 +19 0 *
Ed
 1e-07 1 1 0
1  8 0 0 0.33166247903554
2  15 6 0 0 0.33166247903554
2  16 5 0 0 0.33166247903554
0

0101000
-19 0 +23 0 *
Wi

0101000
-22 0 -20 0 +18 0 +17 0 *
Fa
0  1e-07 6 0

0111000
+16 0 *
Ed
 1e-07 1 1 0
1  9 0 0 0.5
2  17 2 0 0 0.5
2  18 5 0 0 0.5
0

0101000
-23 0 +33 0 *
Ed
 1e-07 1 1 0
1  10 0 0 0.5
2  19 2 0 0 0.5
2  20 3 0 0 0.5
0

0101000
-24 0 +34 0 *
Wi

0101000
-14 0 -22 0 +13 0 +32 0 *
Fa
0  1e-07 2 0

0111000
+12 0 *
Ed
 1e-07 1 1 0
1  11 0 0 0.3
2  21 4 0 0 0.3
2  22 5 0 0 0.3
0

0101000
-19 0 +29 0 *
Ed
 1e-07 1 1 0
1  12 0 0 0.3
2  23 4 0 0 0.3
2  24 3 0 0 0.3
0

0101000
-21 0 +31 0 *
Wi

0101000
-10 0 -18 0 +9 0 +28 0 *
Fa
0  1e-07 4 0

0111000
+8 0 *
Wi

0101000
-27 0 -10 0 +17 0 +14 0 *
Fa
0  1e-07 5 0

0111000
+6 0 *
Wi

0101000
-30 0 -9 0 +20 0 +13 0 *
Fa
0  1e-07 3 0

0111000
+4 0 *
Sh

0101100
-25 0 +15 0 -11 0 +7 0 -5 0 +3 0 *
So

1100100
+2 0 *

+1 1 
0

