DBRep_DrawableShape

CASCADE Topology V1, (c) Matra-Datavision
Locations 2
1
              1               0               0               0 
              0               1               0               0 
              0               0               1               0 
1
              1               0               0 0.0 
              0               1               0 0.0 
              0               0               1 0.0 
Curve2ds 22
2 0 0 1 0 -0 1 150
1 0 4.7123889803846897 1 0 
1 0 0 1 0 
1 0 7.8539749673082762 1 0 
1 6.2831853071795898 0 0 1 
1 0 0 0 1 
2 0.0 0.0 1 0 -0 1 75
1 0 1.5707963267948966 1 0 
1 0 0 1 0 
1 0 2.7828219833192218 1 0 
1 6.2831853071795898 0 0 1 
1 0 0 0 1 
1 6.2831853071795898 0 0 1 
1 0 0 0 1 
7 0 0  6 42 9  6.2831853071795916 0.00053400153225026089  6.1546561189312916 0.00053400153225026089  6.0260379106472106 0.00053400153225044878  5.8975238142891451 0.00053400153224975478  5.7690098994817296 0.00053400153225082304  5.6403918589536959 0.00053400153224999341  5.3820356381949788 0.00053400153225053129  5.2521155385508145 0.00053400153224969341  5.1223049260575682 0.00053400153225077187  4.992494347612678 0.0005340015322500718  4.8625743516967397 0.00053400153225026099  4.6029208085208877 0.00053400153225026099  4.4730008089981377 0.00053400153225009956  4.3431902304363437 0.00053400153225069695  4.2133796205159877 0.00053400153224977668  4.0834595254893475 0.0005340015322504916  3.8238058809406494 0.00053400153225003038  3.693885874371535 0.00053400153225074357  3.5640752673958374 0.00053400153224982981  3.4342646256000364 0.00053400153225041723  3.3043445128923379 0.00053400153225026349  3.0446907557057705 0.0005340015322502585  2.9147706488280143 0.0005340015322504555  2.7849600072229315 0.00053400153224974546  2.655149396085366 0.00053400153225083031  2.5252293820539315 0.0005340015322499907  2.2655757234053526 0.00053400153225053129  2.1356556210627136 0.00053400153224974069  2.0058450069857581 0.00053400153225064415  1.8760344285096606 0.00053400153225021372  1.7461144346296096 0.00053400153225019345  1.4864608910992394 0.00053400153225032854  1.356540889170655 0.00053400153225046981  1.2267303104268346 0.00053400153224944188  1.0969197021029837 0.00053400153225126562  0.96699961005883606 0.00053400153224976009  0.69768045733226858 0.00053400153225079919  0.55805556221603825 0.00053400153224913093  0.41858649953199711 0.00053400153225127776  0.27911731016800717 0.00053400153224988467  0.13949219769595944 0.00053400153225026089  3.3077843189334177e-15 0.00053400153225026089 
 0 7 0.12276162098054584 5 0.24676263888930039 5 0.37076366436943509 5 0.49476450411026496 5 0.61876533161166303 5 0.74276634454474955 5 0.86676737437754103 5 1 7
1 0 0 0 1 
7 0 0  6 42 9  6.2831853071795898 75.0001875021225  6.1546561189312907 75.0001875021225  6.0260379106472106 75.0001875021225  5.8975238142891451 75.0001875021225  5.7690098994817296 75.0001875021225  5.6403918589536959 75.0001875021225  5.3820356381949788 75.0001875021225  5.2521155385508145 75.0001875021225  5.1223049260575682 75.0001875021225  4.992494347612678 75.0001875021225  4.8625743516967397 75.0001875021225  4.6029208085208877 75.0001875021225  4.4730008089981377 75.0001875021225  4.3431902304363437 75.0001875021225  4.2133796205159877 75.0001875021225  4.0834595254893475 75.0001875021225  3.8238058809406499 75.0001875021225  3.6938858743715355 75.0001875021225  3.5640752673958378 75.000187502122515  3.4342646256000369 75.000187502122486  3.3043445128923383 75.0001875021225  3.044690755705771 75.0001875021225  2.9147706488280201 75.000187502122515  2.7849600072229181 75.000187502122486  2.6551493960853758 75.0001875021225  2.5252293820539315 75.0001875021225  2.2655757234053526 75.0001875021225  2.1356556210627042 75.0001875021225  2.0058450069857767 75.0001875021225  1.8760344285096511 75.0001875021225  1.7461144346296091 75.0001875021225  1.4864608910992392 75.0001875021225  1.3565408891706585 75.0001875021225  1.2267303104268275 75.0001875021225  1.0969197021029888 75.0001875021225  0.96699961005883606 75.0001875021225  0.69768045733226869 75.0001875021225  0.55805556221603825 75.0001875021225  0.41858649953199684 75.0001875021225  0.27911731016800739 75.0001875021225  0.13949219769595969 75.0001875021225  3.5527136788005009e-15 75.0001875021225 
 0 7 0.12276162098054584 5 0.24676263888930039 5 0.37076366436943509 5 0.49476450411026496 5 0.61876533161166303 5 0.74276634454474955 5 0.86676737437754103 5 1 7
1 1 0 0 1 
1 0 0 1 0 
1 0 1 1 0 
1 6.2831853071795898 0 0 1 
1 0 0 0 1 
Curves 11
2 0 0 -40 0 -0 1 1 0 0 -0 1 0 150
2 0 0 39.999999999111111 0 0 1 1 0 0 0 1 0 150.00026666664826
2 150 4.9616764784565449e-13 0 3.3077843189710302e-15 -1 0 1 3.3077843189710302e-15 0 0 0 1 40
2 0.0 0.0 -40 0 -0 1 1 0 0 -0 1 0 75
2 0 0 -14.044937663535659 0 0 1 1 0 0 0 1 0 37.546832897238218
2 75 2.4808382392282725e-13 0.0 -3.3077843189710302e-15 1 0 1 3.3077843189710302e-15 0 0 0 -1 40
1 37.546832897238218 1.241968250845102e-13 -14.044937663535659 -0.35112344158839154 -1.1614406141092221e-15 0.93632917756904466 
7 1 0  7 50 9  37.546645396782395 1.9226593516059876e-13 -14.044437662320146  1 37.546645396782338 -4.1364341608242787 -14.044437662320135  1.0000000000000018 37.014969946736905 -8.2753366185971498 -14.044437662320131  0.99999999999998967 35.950623878765917 -12.33011400840517 -14.044437662320192  1.0000000000000193 34.371335077641788 -16.22005988306308 -14.04443766232005  0.99999999999998268 32.307940466081497 -19.869224560485257 -14.044437662320206  1.0000000000000091 29.803985969865249 -23.207393591817901 -14.044437662320142  0.99999999999999745 24.007983793078623 -29.168898530164931 -14.04443766232011  1.0000000000000022 20.70468139605666 -31.788330257442571 -14.04443766232027  0.99999999999999079 17.072157861095011 -33.966684322031426 -14.044437662319943  1.0000000000000184 13.181617705098224 -35.657245439529603 -14.044437662320309  0.99999999999998268 9.1105438728047314 -36.826345392168115 -14.044437662320078  1.0000000000000093 4.9416725758999895 -37.453808316092712 -14.044437662320156  0.99999999999999845 -3.4129838891842694 -37.62392095901253 -14.044437662320149  0.99999999999999933 -7.6039415159401589 -37.16667593022531 -14.044437662320107  1.0000000000000064 -11.719230477173523 -36.16426184494123 -14.044437662320234  0.99999999999998601 -15.675361877352319 -34.633470030981066 -14.044437662320004  1.0000000000000175 -19.393546530920876 -32.604786813025981 -14.044437662320266  0.99999999999998757 -22.800737392115131 -30.121990313524105 -14.044437662320107  1.000000000000004 -28.864905548806284 -24.3726301705947 -14.044437662320181  0.99999999999999656 -31.525638449799022 -21.102508128394248 -14.044437662320018  1.0000000000000102 -33.749467784470099 -17.497646641765449 -14.044437662320359  0.99999999999998357 -35.48878611019547 -13.628657117929295 -14.044437662319975  1.0000000000000153 -36.708953047506512 -9.5725933739278837 -14.044437662320195  0.99999999999999323 -37.388753741806106 -5.4119322267406753 -14.044437662320146  0.99999999999999956 -37.663838126427848 2.939933831274586 -14.044437662320124  1.0000000000000047 -37.25929224070164 7.1363097434673 -14.044437662320234  0.99999999999998068 -36.308668528807402 11.263872509212041 -14.044437662320025  1.00000000000003 -34.827708625863131 15.238928047009233 -14.044437662320181  0.99999999999997613 -32.845907462081215 18.982310063870052 -14.044437662320181  1.0000000000000111 -30.40612289224168 22.420427435159112 -14.044437662320124  0.999999999999997 -24.733418965493353 28.55636381268237 -14.044437662320181  1.0000000000000027 -21.496986283051012 31.257980648788152 -14.04443766232  0.99999999999999278 -17.920352112270489 33.526932441779579 -14.04443766232038  1.000000000000008 -14.07352455060618 35.314729283627926 -14.044437662319936  0.99999999999999512 -10.033116010817968 36.585766450425581 -14.044437662320238  1.0000000000000007 -5.881329569144274 37.317795305450524 -14.044437662320124  1.0000000000000022 2.4664134703387477 37.69780753985755 -14.044437662320163  0.99999999999999378 6.6675382523576578 37.346026040972014 -14.044437662320139  1.0000000000000255 10.806718345385695 36.447346083028393 -14.044437662320185  0.99999999999995659 14.800069262875962 35.016455635359655 -14.044437662320068  1.0000000000000417 18.568060598896302 33.081851435593265 -14.044437662320217  0.9999999999999758 22.036568256747547 30.68546210687532 -14.044437662320128  1.0000000000000064 28.474346603240424 24.882033418294821 -14.044437662320174  0.99999999999999467 31.392120062559663 21.408684436438683 -14.044437662320142  1.0000000000000122 33.809495803230035 17.540776064475921 -14.044437662320146  0.99999999999998379 35.666133656883751 13.367416514771223 -14.044437662320075  1.0000000000000142 36.920445701081789 8.9820802117161485 -14.044437662320234  0.99999999999999234 37.54664539678231 4.4892549278640672 -14.044437662320107  1.000000000000002 37.546645396782402 1.2654073210278949e-13 -14.044437662320146  1
 0 8 0.12276162098054584 6 0.24676263888930039 6 0.37076366436943509 6 0.49476450411026496 6 0.61876533161166303 6 0.74276634454474955 6 0.86676737437754103 6 1 8
7 1 0  7 50 9  75.000079166192435 2.4733299718200652e-13 40.000500000326625  1 75.000079166192492 -8.2625993946760143 40.000500000326625  1.0000000000000018 73.938048179861624 -16.530129255564763 40.000500000326568  0.99999999999998967 71.811998342002511 -24.629617825666674 40.000500000326753  1.0000000000000193 68.657341411697303 -32.399852568835698 40.000500000326454  0.99999999999998268 64.535674680018531 -39.689122670196205 40.000500000326724  1.0000000000000091 59.533981893347367 -46.357173543298423 40.00050000032661  0.99999999999999745 47.956366436290743 -58.265383653701178 40.00050000032661  1.0000000000000022 41.357962273457943 -63.497744223871109 40.000500000326674  0.99999999999999079 34.101933144461455 -67.849044468396499 40.000500000326504  1.0000000000000184 26.330511313949703 -71.225969791758416 40.000500000326753  0.99999999999998268 18.198470315699321 -73.561267341631535 40.000500000326547  1.0000000000000093 9.8710771758496243 -74.814635478009279 40.000500000326646  0.99999999999999845 -6.8174948567759834 -75.154438449788273 40.00050000032661  0.99999999999999933 -15.189005825790712 -74.241083528329952 40.000500000326646  1.0000000000000064 -23.409367315412933 -72.238743906265256 40.000500000326639  0.99999999999998601 -31.311808800392196 -69.180960553832236 40.000500000326539  1.0000000000000175 -38.738947508128767 -65.128630436404521 40.000500000326703  0.99999999999998757 -45.544870690438572 -60.169201117263917 40.000500000326596  1.000000000000004 -57.658152370402014 -48.684753936488349 40.000500000326653  0.99999999999999656 -62.973012755550251 -42.152628111229738 40.000500000326511  1.0000000000000102 -67.415150645362459 -34.951854406331051 40.000500000326795  0.99999999999998357 -70.889469342708765 -27.223480339502675 40.000500000326475  1.0000000000000153 -73.326774085307321 -19.121422254460313 40.000500000326682  0.99999999999999323 -74.684687831021023 -10.810429031894378 40.000500000326618  0.99999999999999956 -75.234173688039093 5.8725691139335892 40.000500000326632  1.0000000000000047 -74.426086224161267 14.254903202627258 40.000500000326596  0.99999999999998068 -72.52719877640375 22.499781830874682 40.00050000032671  1.00000000000003 -69.56895553552323 30.440024610868338 40.000500000326483  0.99999999999997613 -65.610273139145619 37.917495491340496 40.000500000326753  1.0000000000000111 -60.736760899830664 44.785194917064523 40.000500000326575  0.999999999999997 -49.405435848113726 57.041834870108239 40.000500000326653  1.0000000000000027 -42.940605106668883 62.438361628848298 40.000500000326518  0.99999999999999278 -35.796215957591976 66.97063241629894 40.000500000326781  1.000000000000008 -28.112110796808643 70.541787795288116 40.000500000326483  0.99999999999999512 -20.041324255279765 73.080706708697988 40.000500000326696  1.0000000000000007 -11.748058411793227 74.542947116559347 40.000500000326596  1.0000000000000022 4.9267039325921473 75.302028183948025 40.000500000326667  0.99999999999999378 13.318523971605931 74.599338503236098 40.000500000326497  1.0000000000000255 21.586608413760775 72.804209610136596 40.000500000326873  0.99999999999995659 29.56339653384752 69.945980979606375 40.000500000326326  1.0000000000000417 37.0900249586401 66.08157534218428 40.000500000326824  0.9999999999999758 44.018429511918654 61.294745854021372 40.000500000326568  1.0000000000000064 56.878004063490621 49.702295810103983 40.000500000326667  0.99999999999999467 62.706307447864958 42.764220627671321 40.000500000326596  1.0000000000000122 67.53505766000039 35.038006180570001 40.000500000326653  0.99999999999998379 71.243724160974779 26.7016476774578 40.000500000326518  1.0000000000000142 73.749234350228306 17.941861911677453 40.000500000326738  0.99999999999999234 75.000079166192378 8.9673650316543103 40.000500000326568  1.000000000000002 75.000079166192435 2.6864927925480953e-13 40.000500000326625  1
 0 8 0.12276162098054584 6 0.24676263888930039 6 0.37076366436943509 6 0.49476450411026496 6 0.61876533161166303 6 0.74276634454474955 6 0.86676737437754103 6 1 8
7 0 0  10 11 2  37.546645396782388 1.8829382497642657e-13 -14.044437662320149  35.237861250987621 1.8277406224464568e-13 -7.8876799401975823  33.832161382206202 1.8626283594339162e-13 -0.72257999762336422  33.791250054131183 1.6631184056857019e-13 7.3557257302609296  35.619902250629039 2.0531858275358097e-13 15.898312353182922  39.740057707866363 1.6154602936934216e-13 24.435700557092254  46.287225922546092 2.2039549871871579e-13 31.291155808481985  53.643847788134877 1.977407848086538e-13 36.002829586790831  61.222184727117941 2.2709093899469162e-13 38.8009551038  68.424659036736017 2.333443284278755e-13 40.000543836458036  75.00007916619245 2.4513724383723456e-13 40.000500000326625 
 0 11 1 11
1 150.00026666664826 4.9616852992141208e-13 39.999999999111111 -0.99999999997777778 -3.3077843188975238e-15 6.6666662066457699e-06 
Polygon3D 0
PolygonOnTriangulations 0
Surfaces 6
10 0 6.2831853071795898 4.7123889803846897 7.8539749673082762
5 0 0 0 0 0 1 1 0 0 0 1 0 150 40
1 0 0 -40 0 0 1 1 0 -0 -0 1 0 
3 0 0 39.999999999111111 0 0 1 1 0 -0 -0 1 0 150.00026666664826
-1.5707896601286899
10 0 6.2831853071795898 1.5707963267948966 2.7828219833192218
5 0.0 0.0 0.0 -0 -0 -1 1 0 0 0 1 0 75 40
3 0 0 -14.044937663535659 0 0 1 1 0 -0 -0 1 0 37.546832897238218
-0.35877067027057202
9 1 1 0 0 2 7 3 50 2 9 37.546645396782395 1.9226593516059876e-13 -14.044437662320146  1 37.546645396782338 -4.1364341608242787 -14.044437662320135  1.0000000000000018 37.014969946736905 -8.2753366185971498 -14.044437662320131  0.99999999999998967 35.950623878765917 -12.33011400840517 -14.044437662320192  1.0000000000000193 34.371335077641788 -16.22005988306308 -14.04443766232005  0.99999999999998268 32.307940466081497 -19.869224560485257 -14.044437662320206  1.0000000000000091 29.803985969865249 -23.207393591817901 -14.044437662320142  0.99999999999999745 24.007983793078623 -29.168898530164931 -14.04443766232011  1.0000000000000022 20.70468139605666 -31.788330257442571 -14.04443766232027  0.99999999999999079 17.072157861095011 -33.966684322031426 -14.044437662319943  1.0000000000000184 13.181617705098224 -35.657245439529603 -14.044437662320309  0.99999999999998268 9.1105438728047314 -36.826345392168115 -14.044437662320078  1.0000000000000093 4.9416725758999895 -37.453808316092712 -14.044437662320156  0.99999999999999845 -3.4129838891842694 -37.62392095901253 -14.044437662320149  0.99999999999999933 -7.6039415159401589 -37.16667593022531 -14.044437662320107  1.0000000000000064 -11.719230477173523 -36.16426184494123 -14.044437662320234  0.99999999999998601 -15.675361877352319 -34.633470030981066 -14.044437662320004  1.0000000000000175 -19.393546530920876 -32.604786813025981 -14.044437662320266  0.99999999999998757 -22.800737392115131 -30.121990313524105 -14.044437662320107  1.000000000000004 -28.864905548806284 -24.3726301705947 -14.044437662320181  0.99999999999999656 -31.525638449799022 -21.102508128394248 -14.044437662320018  1.0000000000000102 -33.749467784470099 -17.497646641765449 -14.044437662320359  0.99999999999998357 -35.48878611019547 -13.628657117929295 -14.044437662319975  1.0000000000000153 -36.708953047506512 -9.5725933739278837 -14.044437662320195  0.99999999999999323 -37.388753741806106 -5.4119322267406753 -14.044437662320146  0.99999999999999956 -37.663838126427848 2.939933831274586 -14.044437662320124  1.0000000000000047 -37.25929224070164 7.1363097434673 -14.044437662320234  0.99999999999998068 -36.308668528807402 11.263872509212041 -14.044437662320025  1.00000000000003 -34.827708625863131 15.238928047009233 -14.044437662320181  0.99999999999997613 -32.845907462081215 18.982310063870052 -14.044437662320181  1.0000000000000111 -30.40612289224168 22.420427435159112 -14.044437662320124  0.999999999999997 -24.733418965493353 28.55636381268237 -14.044437662320181  1.0000000000000027 -21.496986283051012 31.257980648788152 -14.04443766232  0.99999999999999278 -17.920352112270489 33.526932441779579 -14.04443766232038  1.000000000000008 -14.07352455060618 35.314729283627926 -14.044437662319936  0.99999999999999512 -10.033116010817968 36.585766450425581 -14.044437662320238  1.0000000000000007 -5.881329569144274 37.317795305450524 -14.044437662320124  1.0000000000000022 2.4664134703387477 37.69780753985755 -14.044437662320163  0.99999999999999378 6.6675382523576578 37.346026040972014 -14.044437662320139  1.0000000000000255 10.806718345385695 36.447346083028393 -14.044437662320185  0.99999999999995659 14.800069262875962 35.016455635359655 -14.044437662320068  1.0000000000000417 18.568060598896302 33.081851435593265 -14.044437662320217  0.9999999999999758 22.036568256747547 30.68546210687532 -14.044437662320128  1.0000000000000064 28.474346603240424 24.882033418294821 -14.044437662320174  0.99999999999999467 31.392120062559663 21.408684436438683 -14.044437662320142  1.0000000000000122 33.809495803230035 17.540776064475921 -14.044437662320146  0.99999999999998379 35.666133656883751 13.367416514771223 -14.044437662320075  1.0000000000000142 36.920445701081789 8.9820802117161485 -14.044437662320234  0.99999999999999234 37.54664539678231 4.4892549278640672 -14.044437662320107  1.000000000000002 37.546645396782402 1.2654073210278949e-13 -14.044437662320146  1 
17.279649472225596 1.4381228955091807e-13 40.000884803164709  0.56959209800756738 17.279648113937945 -1.903662312883371 40.000886131294237  0.56959208653782512 17.034936085918034 -3.8084501619288651 40.000886783222754  0.56959208090767444 16.545154483590011 -5.6745530494765415 40.000881831378983  0.5695921236720044 15.818336644328271 -7.4647755738125223 40.000882763887709  0.56959211561881395 14.868675132979837 -9.1441663885164068 40.000887894694131  0.56959207130901146 13.716336705897412 -10.680464850796461 40.000884803164709  0.56959209800756483 11.048911030277392 -13.424057909054783 40.000884803164681  0.56959209800756949 9.528657014949566 -14.629538444061515 40.000888977449804  0.56959206195829304 7.8569279293645629 -15.632111891651666 40.000881292762756  0.56959212832350337 6.0664321314769545 -16.410138195258632 40.000881292779681  0.56959212832333295 4.1928260785935159 -16.948123759963966 40.00088897747726  0.56959206195806944 2.2742476464310553 -17.236924158271968 40.000884803164759  0.56959209800756538 -1.5707172942662662 -17.315213092201081 40.000884803164624  0.56959209800756883 -3.4994615107503502 -17.104749603530109 40.000888977464335  0.5695920619581748 -5.393413890914756 -16.6434768308096 40.000881292788698  0.56959212832326389 -7.2140959464278005 -15.938979203111513 40.000881292774395  0.56959212832339623 -8.9252501079136479 -15.005286057353281 40.000888977438024  0.56959206195839762 -10.49331426736965 -13.86268809190738 40.000884803164766  0.56959209800756805 -13.284154807212273 -11.216727928790871 40.000884803164702  0.56959209800756649 -14.508643071022572 -9.7117437474259489 40.000888977704143  0.56959206195610668 -15.532144760019417 -8.0527459290844572 40.000881292589597  0.56959212832497996 -16.332609998519484 -6.2721681157158686 40.000881292571876  0.56959212832514716 -16.894097817421468 -4.4054692863846237 40.000888977675984  0.56959206195634182 -17.2069848593488 -2.4906696951822513 40.000884803164659  0.56959209800756838 -17.333583699040428 1.3530110490327758 40.000884803164666  0.5695920980075696 -17.14737318004951 3.2842492514096966 40.000888977695723  0.56959206195616663 -16.709935549875819 5.1838495462522856 40.000881292557793  0.56959212832527562 -16.028371454194396 7.0132408262063475 40.000881292573581  0.56959212832511419 -15.116254005457396 8.7359919835067679 40.000888977720152  0.56959206195596979 -13.993451075033111 10.318288704581335 40.000884803164752  0.56959209800756572 -11.382769497855305 13.142158285364646 40.000884803164666  0.56959209800756905 -9.8932894022139255 14.385462267743772 40.000888977456498  0.56959206195823786 -8.2472830003990474 15.429729809280719 40.000881292755906  0.56959212832355477 -6.4769045161397312 16.252505723175801 40.000881292773634  0.5695921283233949 -4.6174098013224185 16.83740526425029 40.000888977485715  0.56959206195798939 -2.7066948942688946 17.174328495652972 40.000884803164702  0.56959209800756871 1.1350883621584145 17.349217041272627 40.000884803164695  0.56959209800756416 3.0685124710618346 17.187289527995745 40.000888977461273  0.5695920619582151 4.973458560029421 16.77375761097726 40.000881292790638  0.56959212832322592 6.8112696994980375 16.115236369515348 40.000881292775532  0.56959212832340433 8.5453472220735733 15.224839563066213 40.000888977437413  0.56959206195839351 10.141629725323895 14.122008064937884 40.000884803164681  0.56959209800757127 13.10441247308782 11.451164573444961 40.000884803164709  0.56959209800756383 14.44693614117098 9.8531744940039019 40.000891738270781  0.56959203811567449 15.560387924397798 8.0712576870332438 40.000879083135374  0.56959214740592734 16.413648396641303 6.1532941924313409 40.000879561382085  0.56959214327580965 16.991646960455157 4.1331618369099274 40.000889937231975  0.56959205366944843 17.279647998081543 2.0660368572327954 40.000886244578211  0.56959208555950458 17.279649472225596 6.9744367616267344e-14 40.000884803164702  0.56959209800756749 
75.000079166192435 2.4733299718200652e-13 40.000500000326625  1 75.000079166192492 -8.2625993946760143 40.000500000326625  1.0000000000000018 73.938048179861624 -16.530129255564763 40.000500000326568  0.99999999999998967 71.811998342002511 -24.629617825666674 40.000500000326753  1.0000000000000193 68.657341411697303 -32.399852568835698 40.000500000326454  0.99999999999998268 64.535674680018531 -39.689122670196205 40.000500000326724  1.0000000000000091 59.533981893347367 -46.357173543298423 40.00050000032661  0.99999999999999745 47.956366436290743 -58.265383653701178 40.00050000032661  1.0000000000000022 41.357962273457943 -63.497744223871109 40.000500000326674  0.99999999999999079 34.101933144461455 -67.849044468396499 40.000500000326504  1.0000000000000184 26.330511313949703 -71.225969791758416 40.000500000326753  0.99999999999998268 18.198470315699321 -73.561267341631535 40.000500000326547  1.0000000000000093 9.8710771758496243 -74.814635478009279 40.000500000326646  0.99999999999999845 -6.8174948567759834 -75.154438449788273 40.00050000032661  0.99999999999999933 -15.189005825790712 -74.241083528329952 40.000500000326646  1.0000000000000064 -23.409367315412933 -72.238743906265256 40.000500000326639  0.99999999999998601 -31.311808800392196 -69.180960553832236 40.000500000326539  1.0000000000000175 -38.738947508128767 -65.128630436404521 40.000500000326703  0.99999999999998757 -45.544870690438572 -60.169201117263917 40.000500000326596  1.000000000000004 -57.658152370402014 -48.684753936488349 40.000500000326653  0.99999999999999656 -62.973012755550251 -42.152628111229738 40.000500000326511  1.0000000000000102 -67.415150645362459 -34.951854406331051 40.000500000326795  0.99999999999998357 -70.889469342708765 -27.223480339502675 40.000500000326475  1.0000000000000153 -73.326774085307321 -19.121422254460313 40.000500000326682  0.99999999999999323 -74.684687831021023 -10.810429031894378 40.000500000326618  0.99999999999999956 -75.234173688039093 5.8725691139335892 40.000500000326632  1.0000000000000047 -74.426086224161267 14.254903202627258 40.000500000326596  0.99999999999998068 -72.52719877640375 22.499781830874682 40.00050000032671  1.00000000000003 -69.56895553552323 30.440024610868338 40.000500000326483  0.99999999999997613 -65.610273139145619 37.917495491340496 40.000500000326753  1.0000000000000111 -60.736760899830664 44.785194917064523 40.000500000326575  0.999999999999997 -49.405435848113726 57.041834870108239 40.000500000326653  1.0000000000000027 -42.940605106668883 62.438361628848298 40.000500000326518  0.99999999999999278 -35.796215957591976 66.97063241629894 40.000500000326781  1.000000000000008 -28.112110796808643 70.541787795288116 40.000500000326483  0.99999999999999512 -20.041324255279765 73.080706708697988 40.000500000326696  1.0000000000000007 -11.748058411793227 74.542947116559347 40.000500000326596  1.0000000000000022 4.9267039325921473 75.302028183948025 40.000500000326667  0.99999999999999378 13.318523971605931 74.599338503236098 40.000500000326497  1.0000000000000255 21.586608413760775 72.804209610136596 40.000500000326873  0.99999999999995659 29.56339653384752 69.945980979606375 40.000500000326326  1.0000000000000417 37.0900249586401 66.08157534218428 40.000500000326824  0.9999999999999758 44.018429511918654 61.294745854021372 40.000500000326568  1.0000000000000064 56.878004063490621 49.702295810103983 40.000500000326667  0.99999999999999467 62.706307447864958 42.764220627671321 40.000500000326596  1.0000000000000122 67.53505766000039 35.038006180570001 40.000500000326653  0.99999999999998379 71.243724160974779 26.7016476774578 40.000500000326518  1.0000000000000142 73.749234350228306 17.941861911677453 40.000500000326738  0.99999999999999234 75.000079166192378 8.9673650316543103 40.000500000326568  1.000000000000002 75.000079166192435 2.6864927925480953e-13 40.000500000326625  1 

0 3
1 3

0 8
0.12276162098054584 6
0.24676263888930039 6
0.37076366436943509 6
0.49476450411026496 6
0.61876533161166303 6
0.74276634454474955 6
0.86676737437754103 6
1 8

Triangulations 0

TShapes 32
Ve
1.02469507659596e-07
150 4.96167647845654e-13 -40
0 0

0101101
*
Ed
 1e-07 1 1 0
2  1 2 1 0 6.28318530717959
1  1 1 0 6.28318530717959
2  2 1 0 0 6.28318530717959
4 G1 1 0 2 1
0

0101100
+32 0 -32 0 *
Ve
1.02469507659596e-07
150.000266666648 4.96168529921412e-13 39.9999999991111
0 0

0101101
*
Ed
 1e-07 1 1 0
2  3 3 1 0 6.28318530717959
1  2 1 0 6.28318530717959
2  4 1 0 0 6.28318530717959
4 G1 1 0 3 1
0

0101100
+30 0 -30 0 *
Ed
 1e-06 1 1 0
3  5 6C0 1 0 4.71238898038469 7.85397496730828
1  3 0 4.71238898038469 7.85397496730828
0

0101100
+32 0 -30 0 *
Wi

0101000
-31 0 +29 0 -28 0 +28 0 *
Fa
0  1e-07 1 0

0111000
-27 0 *
Ve
1.02469507659596e-07
75 2.48083823922827e-13 -40
0 0

0101101
*
Ed
 1e-07 1 1 0
2  7 2 1 0 6.28318530717959
1  4 1 0 6.28318530717959
2  8 4 0 0 6.28318530717959
4 G1 2 1 4 0
0

0101100
+25 0 -25 0 *
Wi

0101000
-24 0 *
Wi

0101000
-31 0 *
Fa
0  1e-07 2 1

0111000
+23 0 -22 0 *
Ve
1.02469507659596e-07
37.5468328972382 0.0 -14.0449376635357
0 0

0101101
*
Ed
 1e-07 1 1 0
2  9 5 2 0 6.28318530717959
1  5 2 0 6.28318530717959
2  10 4 0 0 6.28318530717959
4 G1 5 2 4 0
0

0101100
+20 0 -20 0 *
Ed
 1e-06 1 1 0
3  11 12C0 4 0 1.5707963267949 2.78282198331922
1  6 0 1.5707963267949 2.78282198331922
0

0101100
+25 0 -20 0 *
Wi

0101000
-24 0 +19 0 -18 0 +18 0 *
Fa
0  1e-07 4 0

0111000
-17 0 *
Ve
6.47697735660941e-05
37.5466453967824 1.24196204873443e-13 -14.0444376623201
0 0

0101101
*
Ed
 1e-07 1 1 0
1  7 2 0 0.000534001532250261
3  13 14CN 5 2 0 0.000534001532250261
0

0101000
+20 0 -15 0 *
Ed
 6.54807578087919e-05 1 1 0
2  15 5 2 0 1
1  8 0 0 1
2  16 6 0 0 1
4 G1 5 2 6 0
0

0101100
+15 0 -15 0 *
Wi

0101000
+19 0 +14 0 -14 0 +13 0 *
Fa
0  1e-07 5 2

0111000
+12 0 *
Ve
6.47697735660941e-05
75.0000791661924 2.48084085787517e-13 40.0005000003266
0 0

0101101
*
Ed
 6.54807578087919e-05 1 1 0
2  17 3 1 0 1
1  9 0 0 1
2  18 6 0 0 1
4 G1 6 0 3 1
0

0101100
+10 0 -10 0 *
Ed
 8.97862924027499e-05 1 1 0
3  19 20C0 6 0 0 1
1  10 0 0 1
0

0101000
+15 0 -10 0 *
Wi

0101000
-13 0 +9 0 -8 0 +8 0 *
Fa
0  1.795725848055e-05 6 0

0111000
+7 0 *
Ed
 1e-07 1 1 0
1  11 1 0 75.0001875021225
3  21 22CN 3 1 0 75.0001875021225
0

0101000
+30 0 -10 0 *
Wi

0101000
+5 0 +29 0 +9 0 -5 0 *
Fa
0  1e-07 3 1

0111000
+4 0 *
Sh

0101100
+26 0 -21 0 -16 0 -11 0 -6 0 +3 0 *
So

0100000
+2 0 *

+1 0 
0

