DBRep_DrawableShape

CASCADE Topology V1, (c) Matra-Datavision
Locations 4
1
              1               0               0               0 
              0               1               0               0 
              0               0               1             100 
2  1 -1 0
1
              1               0               0               0 
              0               1               0               0 
              0               0               1             100 
2  3 -1 0
Curve2ds 30
1 0 2.9713954013929955 1 0 
1 0 0 1 0 
1 0 2.5486614117489959 1 0 
1 0 3.7345238954305913 1 0 
1 0 0 1 0 
1 0 -100 1 0 
1 0 0 1 0 
1 0 -100 1 0 
1 6.2831853071795862 -2.4238243687298944 0 1 
1 0 -2.4238243687298944 0 1 
1 0 1 1 0 
7 0 0  7 20 4  0 8.5834117591332399e-15  4.7679529318898703 1.0544765354783101e-14  9.5947956895009607 1.0850302949041501e-14  14.452393010167301 1.21898205329327e-14  19.3342956900707 6.5016218807698097e-15  24.230526024997999 1.5095676282839901e-14  29.133495904411099 1.0123598371403601e-14  38.820670806012899 9.1224164400469801e-15  43.619281421603297 9.2213444573029493e-15  48.3738675702458 1.0014159741958201e-14  53.0870071786943 7.0725290969714501e-15  57.759991822665398 7.5288877275787007e-15  62.397333074176501 6.1049052945549303e-15  71.735733481227896 4.5769819476563804e-15  76.441478707307894 4.9439785519112599e-15  81.131532751475504 3.2245060051419701e-15  85.819219900943295 2.37585237972146e-15  90.517669775557707 3.4545588360037901e-15  95.240156652924199 4.8156280604993703e-15  99.999999999999901 8.5972895469410607e-15 
 0 8 0.33224774283442599 6 0.66136633860369698 6 1 8
7 0 0  7 20 4  101.63894790709401 86.4454814917205  102.66224183022 87.277781761271498  103.82641458142101 87.963004984548206  105.101984930924 88.465501135924299  106.450989063593 88.762584277176103  107.83164598945 88.841741589264799  109.197315460471 88.700296204033293  111.788960168027 88.016716270059902  113.01981733507399 87.477397792213907  114.149308491318 86.753787385807399  115.147075264023 85.872285146170299  115.99053883087799 84.861638541539705  116.664297794888 83.753449243773602  117.670122021691 81.373480906755503  117.992473057658 80.096196624763394  118.118520123816 78.780573606984703  118.04482814532 77.458685080596794  117.772443609424 76.162750811346001  117.307151882727 74.925086663745006  116.660651907749 73.777925586753 
 0 8 0.33224774283442599 6 0.66136633860369698 6 1 8
1 6.2831853071795862 0 0 1 
1 0 0 0 1 
1 0 2.887298854234821 1 0 
1 0 8.0874373670308444 1 0 
1 0 0 1 0 
1 0 -100 1 0 
1 0 0 1 0 
1 0 -100 1 0 
1 6.2831853071795862 -0.71776828485989919 0 1 
1 0 -0.71776828485989919 0 1 
1 0 3.6435577749124346 1 0 
1 0 0 1 0 
1 0 -100 1 0 
1 0 0 1 0 
1 0 -100 1 0 
1 6.2831853071795862 2.4238243687298944 0 1 
1 0 2.4238243687298944 0 1 
Curves 7
2 116.43854838450432 73.523548519808742 0 0.65770521508678048 0.75327541447179314 0 -0.75327541447179325 0.65770521508678059 0 0 -0 1 19.64699788826638
2 81.696462804676059 33.733140424433365 0 0.65770521508678048 0.75327541447179314 0 -0.75327541447179325 0.65770521508678059 0 0 -0 1 40.841121029947615
2 16.047046209599198 191.67874355482499 0 0 0 1 1 0 -0 -0 1 0 135.646647878359
8 0 1
7 0 0  7 20 4  101.63894790709401 86.4454814917205 0  102.66224183022 87.277781761271498 0  103.82641458142101 87.963004984548206 0  105.101984930924 88.465501135924299 0  106.450989063593 88.762584277176103 0  107.83164598945 88.841741589264799 0  109.197315460471 88.700296204033293 0  111.788960168027 88.016716270059902 0  113.01981733507399 87.477397792213907 0  114.149308491318 86.753787385807399 0  115.147075264023 85.872285146170299 0  115.99053883087799 84.861638541539705 0  116.664297794888 83.753449243773602 0  117.670122021691 81.373480906755503 0  117.992473057658 80.096196624763394 0  118.118520123816 78.780573606984703 0  118.04482814532 77.458685080596794 0  117.772443609424 76.162750811346001 0  117.307151882727 74.925086663745006 0  116.660651907749 73.777925586753 0 
 0 8 0.33224774283442599 6 0.66136633860369698 6 1 8
2 -20.216683713845313 -82.988858919504594 0 0.65770521508678048 0.75327541447179314 0 -0.75327541447179325 0.65770521508678059 0 0 -0 1 67.33113158206956
2 100.107503588532 -124.189347951024 0 0 0 -1 1 0 0 0 -1 0 191.21542047204201
2 -155.882519930256 -99.294384328056594 0 0 0 -1 1 0 0 0 -1 0 104.34116800343701
Polygon3D 0
PolygonOnTriangulations 11
4 8 9 10 1 
p 1.76042436967656 1 4.97248578047889 5.11339711036022 5.25430844024156 5.39521977012289 
4 1 2 3 4 
p 1.76042436967656 1 4.97248578047889 5.11339711036022 5.25430844024156 5.39521977012289 
4 1 2 3 4 
p 1.76136996355713 1 4.97248578047889 5.11339711036022 5.25430844024156 5.39521977012289 
18 1 33 34 35 36 37 38 39 40 41 42 43 44 45 46 47 48 32 
p 1.76042436967656 1 0 0.0611447646333094 0.122289529266619 0.183434293899928 0.244579058533238 0.305723823166547 0.366868587799856 0.428013352433166 0.489158117066475 0.550302881699785 0.611447646333094 0.672592410966404 0.733737175599713 0.794881940233022 0.856026704866332 0.917171469499641 0.958585734749821 1 
18 4 5 6 7 8 9 10 11 12 13 14 15 16 17 18 19 20 21 
p 1.76042436967656 1 0 0.0611447646333094 0.122289529266619 0.183434293899928 0.244579058533238 0.305723823166547 0.366868587799856 0.428013352433166 0.489158117066475 0.550302881699785 0.611447646333094 0.672592410966404 0.733737175599713 0.794881940233022 0.856026704866332 0.917171469499641 0.958585734749821 1 
18 1 2 3 4 5 6 7 8 9 10 11 12 13 14 15 16 17 18 
p 1.76136996355713 1 0 0.0611447646333094 0.122289529266619 0.183434293899928 0.244579058533238 0.305723823166547 0.366868587799856 0.428013352433166 0.489158117066475 0.550302881699785 0.611447646333094 0.672592410966404 0.733737175599713 0.794881940233022 0.856026704866332 0.917171469499641 0.958585734749821 1 
5 1 19 20 21 22 
p 1.76042436967656 1 3.60506713909472 3.81687339939366 4.0286796596926 4.24048591999154 4.45229218029049 
5 22 23 24 25 1 
p 1.76042436967656 1 3.60506713909472 3.81687339939366 4.0286796596926 4.24048591999154 4.45229218029049 
5 1 11 12 13 6 
p 1.76136996355713 1 3.60506713909472 3.81687339939366 4.0286796596926 4.24048591999154 4.45229218029049 
5 2 14 15 16 10 
p 1.76136996355713 1 3.60506713909472 3.81687339939366 4.0286796596926 4.24048591999154 4.45229218029049 
5 22 23 24 25 1 
p 1.76136996355713 1 3.60506713909472 3.81687339939366 4.0286796596926 4.24048591999154 4.45229218029049 
Surfaces 12
5 131.54958153606484 90.830344177247568 0 -0.65770521508678048 -0.75327541447179314 -0 -0.75327541447179314 0.65770521508678059 0 0 -0 1 153.33373837437344 135.646647878359
7 116.660651907749 73.777925586753099 0 0.65770521508678048 0.75327541447179314 0 
8 0 1
7 0 0  7 20 4  101.63894790709401 86.4454814917205 0  102.66224183022 87.277781761271498 0  103.82641458142101 87.963004984548206 0  105.101984930924 88.465501135924299 0  106.450989063593 88.762584277176103 0  107.83164598945 88.841741589264799 0  109.197315460471 88.700296204033293 0  111.788960168027 88.016716270059902 0  113.01981733507399 87.477397792213907 0  114.149308491318 86.753787385807399 0  115.147075264023 85.872285146170299 0  115.99053883087799 84.861638541539705 0  116.664297794888 83.753449243773602 0  117.670122021691 81.373480906755503 0  117.992473057658 80.096196624763394 0  118.118520123816 78.780573606984703 0  118.04482814532 77.458685080596794 0  117.772443609424 76.162750811346001 0  117.307151882727 74.925086663745006 0  116.660651907749 73.777925586753 0 
 0 8 0.33224774283442599 6 0.66136633860369698 6 1 8
5 11.420601151143273 -46.754405667842278 0 -0.65770521508678048 -0.75327541447179314 -0 0.75327541447179325 -0.65770521508678059 0 0 0 -1 117.73502856133592 191.21542047204201
2 16.047046209599198 191.67874355482499 0 0 0 -1 1 0 0 -0 1 -0 135.646647878359
2 16.047046209599198 191.67874355482499 0 0 0 -1 1 0 0 -0 1 -0 135.646647878359
9 0 1 0 0 6 2 7 5 2 4 101.63894790709401 86.4454814917205 -6.1199999999999903  1.1011499327634 101.63894790709401 86.4454814917205 -3.0599999999999898  1.1011499327634 101.63894790709401 86.4454814917205 50  1.1011499327634 101.63894790709401 86.4454814917205 103.06  1.1011499327634 101.63894790709401 86.4454814917205 106.12  1.1011499327634 
105.466181412845 89.558377429519197 -6.1200000000000001  1.0291500056315599 105.466181412845 89.558377429519197 -3.0600000000000001  1.0291500056315599 105.466181412845 89.558377429519197 50  1.0291500056315599 105.466181412845 89.558377429519197 103.06  1.0291500056315599 105.466181412845 89.558377429519197 106.12  1.0291500056315599 
110.729658461035 90.195809108528707 -6.1199999999999903  0.99379052822344205 110.729658461035 90.195809108528707 -3.0599999999999898  0.99379052822344205 110.729658461035 90.195809108528707 50  0.99379052822344205 110.729658461035 90.195809108528707 103.06  0.99379052822344205 110.729658461035 90.195809108528707 106.12  0.99379052822344205 
115.74012016149 87.926773854996 -6.1199999999999903  0.98170921100956399 115.74012016149 87.926773854996 -3.0599999999999898  0.98170921100956399 115.74012016149 87.926773854996 50  0.98170921100956399 115.74012016149 87.926773854996 103.06  0.98170921100956399 115.74012016149 87.926773854996 106.12  0.98170921100956399 
118.822454853121 83.371287022365905 -6.1199999999999903  0.99379052822344205 118.822454853121 83.371287022365905 -3.0599999999999898  0.99379052822344205 118.822454853121 83.371287022365905 50  0.99379052822344205 118.822454853121 83.371287022365905 103.06  0.99379052822344205 118.822454853121 83.371287022365905 106.12  0.99379052822344205 
119.082753639999 78.0757460373691 -6.1199999999999797  1.0291500056315599 119.082753639999 78.0757460373691 -3.0599999999999801  1.0291500056315599 119.082753639999 78.0757460373691 50  1.0291500056315599 119.082753639999 78.0757460373691 103.06  1.0291500056315599 119.082753639999 78.0757460373691 106.12  1.0291500056315599 
116.660651907749 73.777925586753 -6.1199999999999903  1.1011499327634 116.660651907749 73.777925586753 -3.0599999999999898  1.1011499327634 116.660651907749 73.777925586753 50  1.1011499327634 116.660651907749 73.777925586753 103.06  1.1011499327634 116.660651907749 73.777925586753 106.12  1.1011499327634 

0 7
100 7

-6.1199999999999797 3
1.6606216441606699e-14 1
100 1
106.12 3

1 0 0 0 0 0 1 1 0 -0 -0 1 0 
5 -86.980786941536721 -159.45435801706171 0 0.65770521508678048 0.75327541447179314 0 -0.75327541447179325 0.65770521508678059 0 0 -0 1 91.469509909644501 104.34116800343701
2 100.107503588532 -124.189347951024 0 0 0 -1 1 0 0 0 -1 0 191.21542047204201
2 100.107503588532 -124.189347951024 0 0 0 -1 1 0 0 0 -1 0 191.21542047204201
2 -155.882519930256 -99.294384328056594 0 0 0 -1 1 0 0 0 -1 0 104.34116800343701
2 -155.882519930256 -99.294384328056594 0 0 0 -1 1 0 0 0 -1 0 104.34116800343701
Triangulations 8
13 11 1 1.76042436967656
101.638947907094 86.4454814917205 0 101.638947907094 86.4454814917205 22.75 101.638947907094 86.4454814917205 45.5 101.638947907094 86.4454814917205 91 50.9318504333496 60.5945587158203 91 68.9962666879486 66.7932234519289 91 86.0110615671472 75.4675150281266 91 50.9318504333496 60.5945587158203 0 68.9962666879487 66.7932234519289 0 86.0110615671473 75.4675150281267 0 50.9318504333496 60.5945587158203 22.75 50.9318504333496 60.5945587158203 45.5 50.9318504333496 60.5945587158203 68.25 5.39521977012289 -1.4210854715202e-14 5.39521977012289 -22.75 5.39521977012289 -45.5 5.39521977012289 -91 4.97248578047889 -91 5.11339711036022 -91 5.25430844024155 -91 4.97248578047889 0 5.11339711036022 0 5.25430844024156 0 4.97248578047889 -22.75 4.97248578047889 -45.5 4.97248578047889 -68.25 5 6 13 13 6 12 9 11 12 9 8 11 9 12 6 7 4 3 7 3 10 9 7 10 2 1 10 3 2 10 7 9 6 
60 59 1 1.76042436967656
50.9318504333496 60.5945587158203 0 68.9962666879487 66.7932234519289 0 86.0110615671473 75.4675150281267 0 101.638947907094 86.4454814917205 0 103.050636863662 87.4058054852344 0 104.619898702978 88.1172189386032 0 106.298272217849 88.5504214852653 0 108.032237076549 88.6872381446061 0 109.764045375298 88.5214606420226 0 111.433577476583 88.0607791444289 0 112.987749478838 87.3252726886603 0 114.381259927021 86.3442347115524 0 115.577696438444 85.1529488452616 0 116.548849164281 83.7905506819621 0 117.27406799548 82.2987592547696 0 117.740501922684 80.7183084422199 0 117.940827396456 79.0884232866702 0 117.871839465264 77.4488083157851 0 117.534635657886 75.8392543721926 0 117.156492423171 74.7863574768521 0 116.660651907749 73.7779255867531 0 -70.9355697631836 -38.7048225402832 0 -49.1421521380348 -4.6574388564178 0 -20.6781067114589 24.0475346752598 0 13.1843823239625 46.1271457186286 0 101.778873009898 50.9334541266463 0 84.0949246384431 30.182184540139 0 63.8998445501096 11.8656357472586 0 -62.1424217224121 -145.118759155273 0 -71.83722234196 -161.128576274069 0 -84.2362701567702 -175.148812239134 0 -98.9406125634338 -186.728350987186 0 -115.477121643406 -195.494608494129 0 -133.313717559003 -201.16552106388 0 -151.876488790343 -203.558621028987 0 -170.568158351335 -202.596907842668 0 -188.787301814491 -198.311325653632 0 -205.947698784095 -190.839767645047 0 -221.497195163413 -180.422639174127 0 -234.935469302356 -167.395122473056 0 -245.830130380828 -152.176391802752 0 -253.830631045079 -135.256126073415 0 -258.679546643131 -117.178752902707 0 -260.220858137842 -98.5259310758005 0 -258.404972186024 -79.897835052856 0 -253.290316857219 -61.8938437148895 0 -245.041461648168 -45.0932547082455 0 -233.923822283526 -30.0366449242396 0 -220.295120681503 -17.2084768604408 0 -204.593874869162 -7.02151052249289 0 -187.325289196639 0.196477569821013 0 -169.044998847711 4.21324094210928 0 -150.341191684439 4.89953594368308 0 -131.815682674625 2.23328030002634 0 -114.064549852592 -3.69973636644173 0 -97.6589548719265 -12.7086129090759 0 -83.1267652693759 -24.5034791052468 0 14.273073064325 -34.034899821577 0 -28.0489629510504 -86.7465767169433 0 -71.140015370693 -57.4356914421903 0 50.9318504333496 60.5945587158203 68.9962666879487 66.7932234519289 86.0110615671473 75.4675150281267 101.638947907094 86.4454814917205 103.050636863662 87.4058054852344 104.619898702978 88.1172189386032 106.298272217849 88.5504214852653 108.032237076549 88.6872381446061 109.764045375297 88.5214606420227 111.433577476583 88.0607791444289 112.987749478838 87.3252726886603 114.381259927021 86.3442347115524 115.577696438444 85.1529488452616 116.548849164281 83.7905506819621 117.27406799548 82.2987592547696 117.740501922684 80.7183084422199 117.940827396456 79.0884232866702 117.871839465264 77.4488083157851 117.534635657886 75.8392543721926 117.156492423171 74.7863574768521 116.660651907749 73.777925586753 -70.9355697631836 -38.7048225402832 -49.1421521380348 -4.65743885641783 -20.6781067114589 24.0475346752598 13.1843823239626 46.1271457186286 101.778873009898 50.9334541266463 84.0949246384431 30.182184540139 63.8998445501096 11.8656357472586 -62.1424217224121 -145.118759155273 -71.83722234196 -161.128576274069 -84.2362701567702 -175.148812239134 -98.9406125634338 -186.728350987186 -115.477121643406 -195.494608494129 -133.313717559003 -201.16552106388 -151.876488790343 -203.558621028987 -170.568158351335 -202.596907842668 -188.787301814491 -198.311325653632 -205.947698784095 -190.839767645047 -221.497195163413 -180.422639174127 -234.935469302356 -167.395122473056 -245.830130380828 -152.176391802752 -253.830631045079 -135.256126073415 -258.679546643131 -117.178752902707 -260.220858137842 -98.5259310758005 -258.404972186024 -79.897835052856 -253.290316857219 -61.8938437148895 -245.041461648168 -45.0932547082455 -233.923822283526 -30.0366449242396 -220.295120681503 -17.2084768604408 -204.593874869162 -7.02151052249289 -187.325289196639 0.196477569821013 -169.044998847711 4.21324094210928 -150.341191684439 4.89953594368308 -131.815682674625 2.23328030002634 -114.064549852592 -3.69973636644173 -97.6589548719265 -12.7086129090759 -83.1267652693759 -24.5034791052468 14.273073064325 -34.0348998215771 -28.0489629510504 -86.7465767169433 -71.140015370693 -57.4356914421903 60 41 40 60 40 39 41 60 42 43 42 60 60 44 43 38 60 39 60 37 36 36 35 60 35 34 60 60 33 32 32 31 60 34 33 60 37 60 38 31 30 60 46 60 47 47 60 48 49 48 60 50 49 60 50 60 51 45 60 46 57 56 60 60 22 57 59 22 60 56 55 60 52 60 53 54 53 60 55 54 60 60 52 51 45 44 60 60 30 29 58 23 22 58 22 59 23 58 24 24 58 25 25 28 1 25 58 28 59 60 29 27 1 28 1 27 2 27 26 2 2 26 3 4 3 21 21 3 26 21 20 4 19 17 20 4 20 5 5 20 9 9 20 10 6 5 7 9 8 7 5 9 7 16 15 17 10 20 14 17 15 14 10 12 11 14 13 12 14 12 10 14 20 17 19 18 17 
13 11 1 1.76136996355713
50.9318504333496 60.5945587158203 0 68.9962666879487 66.7932234519289 0 86.0110615671473 75.4675150281267 0 101.638947907094 86.4454814917205 0 101.638947907094 86.4454814917205 25 101.638947907094 86.4454814917205 50 101.638947907094 86.4454814917205 100 50.9318504333496 60.5945587158203 100 50.9318504333496 60.5945587158203 25 50.9318504333496 60.5945587158203 50 50.9318504333496 60.5945587158203 75 68.9962666879487 66.7932234519289 100 86.0110615671473 75.4675150281267 100 4.97248578047889 0 5.11339711036022 0 5.25430844024156 0 5.39521977012289 0 5.39521977012289 -25 5.39521977012289 -50 5.39521977012289 -100 4.97248578047889 -100 4.97248578047889 -25 4.97248578047889 -50 4.97248578047889 -75 5.11339711036022 -100 5.25430844024156 -100 8 12 11 11 12 10 2 9 10 2 1 9 2 10 12 13 7 6 13 6 3 2 13 3 5 4 3 6 5 3 13 2 12 
102 152 1 1.76042436967656
101.638947907094 86.4454814917205 0 101.638947907094 86.4454814917205 91 101.638947907094 86.4454814917205 22.75 101.638947907094 86.4454814917205 45.5 102.460584339276 87.0469374433171 91 103.344914932457 87.5647272766782 91 104.282359317431 87.9911732029209 91 105.262570851903 88.3200213148312 91 106.274526784734 88.5464182009713 91 107.306614433811 88.6669398150034 91 108.346722290207 88.6796677884997 91 109.382344961305 88.5843083755062 91 110.400710865558 88.382349217127 91 111.389146595144 88.0771782037658 91 112.33644178432 87.6736392486109 91 113.232723424187 87.1776285098555 91 114.069165085894 86.5959299637462 91 114.837980570052 85.9360386773805 91 115.532412977204 85.2060048403812 91 116.146717328543 84.414295234809 91 116.676135192411 83.5696687368839 91 117.116859772169 82.681062444085 91 117.46602291489 81.7573890661484 91 117.721676697073 80.807052133458 91 117.882429667521 79.8383587398939 91 117.948591869879 78.6137647890535 91 117.868824681306 77.4248944625729 91 117.668947603338 76.3381207958392 91 117.349379997523 75.2772619951048 91 117.036597532838 74.5146841631915 91 116.660651907749 73.777925586753 91 116.660651907749 73.7779255867531 0 103.050636863662 87.4058054852344 0 104.619898702978 88.1172189386032 0 106.298272217849 88.5504214852653 0 108.032237076549 88.6872381446061 0 109.764045375298 88.5214606420226 0 111.433577476583 88.0607791444289 0 112.987749478838 87.3252726886603 0 114.381259927021 86.3442347115524 0 115.577696438444 85.1529488452616 0 116.548849164281 83.7905506819621 0 117.27406799548 82.2987592547696 0 117.740501922684 80.7183084422199 0 117.940827396456 79.0884232866702 0 117.871839465264 77.4488083157851 0 117.534635657886 75.8392543721926 0 117.156492423171 74.7863574768521 0 116.660651907749 73.777925586753 22.75 116.660651907749 73.777925586753 45.5 102.460583931901 87.0469379579595 22.75 103.344915032931 87.5647272655116 22.75 104.619898582869 88.1172186813872 22.75 105.262570699711 88.3200213998181 22.75 106.298272398533 88.5504218607389 22.75 107.306614600484 88.6669396932635 22.75 108.032236834251 88.6872376893021 22.75 109.764045725857 88.5214612168817 22.75 110.400710857597 88.3823492333742 22.75 111.389146412483 88.0771783918648 22.75 112.336441772379 87.6736391364527 22.75 113.232723530888 87.1776283765918 22.75 114.381259812598 86.3442352231027 22.75 114.837980500678 85.9360388013696 22.75 115.532412951758 85.2060046036174 22.75 116.146717369895 84.414295140251 22.75 116.676135254429 83.569669118437 22.75 117.116859774705 82.6810624643679 22.75 117.466022899677 81.7573887513649 22.75 117.740501728743 80.7183087332735 22.75 117.882429686925 79.8383589623046 22.75 117.948591895047 78.61376463534 22.75 117.871839357441 77.4488086473914 22.75 117.53463564414 75.8392543052632 22.75 117.349380030897 75.2772618920022 22.75 117.15649259268 74.7863569030748 22.75 102.460583931901 87.0469379579595 45.5 103.344915032931 87.5647272655116 45.5 104.619898582869 88.1172186813872 45.5 105.262570699711 88.3200213998181 45.5 106.298272398533 88.5504218607389 45.5 107.306614600484 88.6669396932635 45.5 108.032236834251 88.6872376893021 45.5 109.764045725857 88.5214612168817 45.5 110.400710857597 88.3823492333742 45.5 111.389146412483 88.0771783918648 45.5 112.336441772379 87.6736391364527 45.5 113.232723530888 87.1776283765918 45.5 114.381259812598 86.3442352231027 45.5 114.837980500678 85.9360388013696 45.5 115.532412951758 85.2060046036174 45.5 116.146717369895 84.414295140251 45.5 116.676135254429 83.569669118437 45.5 117.116859774705 82.6810624643679 45.5 117.466022899677 81.7573887513649 45.5 117.740501728743 80.7183087332735 45.5 117.882429686925 79.8383589623046 45.5 117.948591895047 78.61376463534 45.5 117.871839357441 77.4488086473914 45.5 117.53463564414 75.8392543052632 45.5 117.349380030897 75.2772618920022 45.5 117.15649259268 74.7863569030748 45.5 0 1.66062164416067e-14 0 90.9999999999999 0 22.75 0 45.5 3.6821294568743 91 7.38760809127709 90.9999999999999 11.1114763335284 91 14.8498425594245 91 18.5993064177566 91 22.3564898714343 90.9999999999999 26.1176207581555 91 29.8781136765617 91 33.6320930038218 90.9999999999999 37.3725977969648 91 41.0957125045072 91 44.7996867592838 91 48.4835752089025 91 52.1470297042343 90.9999999999999 55.7901625757396 90.9999999999999 59.4134642076357 91 63.0177593482275 90.9999999999999 66.6041865947268 90.9999999999999 70.1745669993147 91 73.7328380272852 91 77.2831931562011 91 81.7183277080322 91 86.0273077108394 90.9999999999999 90.0230120924238 91 94.029460683538 91 97.009400181541 90.9999999999999 100 90.9999999999999 99.9999999999999 8.59728954694107e-15 6.1787600349278 1.02352534728609e-14 12.413755463593 1.06081973197133e-14 18.6863385932512 1.0713122724767e-14 24.9806301453581 1.11032825974892e-14 31.2763299705563 1.0237736752281e-14 37.5437700996309 9.38106827618579e-15 43.7658818439841 9.16497082854184e-15 49.932772470795 8.49222612429213e-15 56.0422700433367 7.41239270155116e-15 62.096344989633 6.27845366002291e-15 68.0982889262778 5.19451099501932e-15 74.0607131108036 4.56571932788636e-15 80.0024427466396 3.82088514848806e-15 85.9401935969753 3.51560166888087e-15 91.8904391442641 4.43409536693001e-15 95.9360413388327 6.00932422501994e-15 100 22.75 100 45.5 3.6821294568743 22.75 7.38760809127709 22.75 12.413755463593 22.75 14.8498425594245 22.75 18.6863385932512 22.75 22.3564898714343 22.75 24.9806301453581 22.75 31.2763299705563 22.75 33.6320930038218 22.75 37.3725977969648 22.75 41.0957125045072 22.75 44.7996867592838 22.75 49.932772470795 22.75 52.1470297042343 22.75 55.7901625757396 22.75 59.4134642076357 22.75 63.0177593482275 22.75 66.6041865947268 22.75 70.1745669993147 22.75 74.0607131108036 22.75 77.2831931562011 22.75 81.7183277080322 22.75 85.9401935969753 22.75 91.8904391442641 22.75 94.029460683538 22.75 95.9360413388327 22.75 3.6821294568743 45.5 7.38760809127709 45.5 12.413755463593 45.5 14.8498425594245 45.5 18.6863385932512 45.5 22.3564898714343 45.5 24.9806301453581 45.5 31.2763299705563 45.5 33.6320930038218 45.5 37.3725977969648 45.5 41.0957125045072 45.5 44.7996867592838 45.5 49.932772470795 45.5 52.1470297042343 45.5 55.7901625757396 45.5 59.4134642076357 45.5 63.0177593482275 45.5 66.6041865947268 45.5 70.1745669993147 45.5 74.0607131108036 45.5 77.2831931562011 45.5 81.7183277080322 45.5 85.9401935969753 45.5 91.8904391442641 45.5 94.029460683538 45.5 95.9360413388327 45.5 1 51 3 51 1 33 3 51 4 52 33 34 51 33 52 54 34 35 51 77 4 77 51 52 78 77 52 4 77 2 79 52 53 54 53 34 55 54 35 80 53 54 52 34 53 55 81 54 35 56 55 57 56 36 36 56 35 37 58 36 61 38 39 59 37 38 62 39 40 83 56 57 58 57 36 59 58 37 84 57 58 86 59 60 61 60 38 88 61 62 63 62 40 61 39 62 87 60 61 59 38 60 85 58 59 40 64 63 82 55 56 89 62 63 78 79 7 79 78 52 80 79 53 79 80 8 81 82 10 82 81 55 83 82 56 82 83 10 80 54 81 80 81 9 5 2 77 6 5 77 80 9 8 7 79 8 7 6 78 10 9 81 83 11 10 77 78 6 84 85 13 85 84 58 86 85 59 85 86 13 87 88 15 88 87 61 89 88 62 88 89 17 86 60 87 86 87 15 12 11 83 12 84 13 14 13 86 16 15 88 86 15 14 17 16 88 89 18 17 12 83 84 83 57 84 63 64 89 64 41 65 41 64 40 66 65 41 64 65 91 68 42 43 41 42 66 69 43 44 64 91 90 91 65 66 92 91 66 90 91 19 93 66 67 68 67 42 69 68 43 94 67 68 66 42 67 69 95 68 44 70 69 64 90 89 70 44 71 71 44 45 46 72 45 75 47 48 46 47 73 76 48 32 97 70 71 72 71 45 73 72 46 98 71 72 100 73 74 75 74 47 102 75 76 49 76 32 75 48 76 101 74 75 73 47 74 99 72 73 96 69 70 102 76 49 92 93 21 93 92 66 94 93 67 93 94 22 95 96 24 96 95 69 97 96 70 24 96 25 94 68 95 94 95 22 90 19 18 19 92 20 20 92 21 23 22 95 95 24 23 22 21 93 96 97 25 19 91 92 26 98 99 99 98 72 100 99 73 28 99 100 29 101 102 102 101 75 50 102 49 100 101 29 100 74 101 30 102 50 26 25 97 26 99 27 31 30 50 28 100 29 28 27 99 30 29 102 26 97 98 97 71 98 90 18 89 
72 102 1 1.76136996355713
101.638947907094 86.4454814917205 0 103.050636863662 87.4058054852344 0 104.619898702978 88.1172189386032 0 106.298272217849 88.5504214852653 0 108.032237076549 88.6872381446061 0 109.764045375298 88.5214606420226 0 111.433577476583 88.0607791444289 0 112.987749478838 87.3252726886603 0 114.381259927021 86.3442347115524 0 115.577696438444 85.1529488452616 0 116.548849164281 83.7905506819621 0 117.27406799548 82.2987592547696 0 117.740501922684 80.7183084422199 0 117.940827396456 79.0884232866702 0 117.871839465264 77.4488083157851 0 117.534635657886 75.8392543721926 0 117.156492423171 74.7863574768521 0 116.660651907749 73.7779255867531 0 101.638947907094 86.4454814917205 100 101.638947907094 86.4454814917205 25 101.638947907094 86.4454814917205 50 116.660651907749 73.7779255867531 100 116.660651907749 73.777925586753 25 116.660651907749 73.777925586753 50 103.051039153955 87.4060314954687 100 104.620775400359 88.1175283946602 100 106.299654217341 88.5506526705429 100 108.03410910863 88.6872223605202 100 109.766342044046 88.5210364364534 100 111.436187649868 88.0598083355541 100 112.990532408267 87.323648636505 100 114.384052930931 86.3418874230857 100 115.58032490458 85.1498460988557 100 116.551133534986 83.7866988825222 100 117.275831330678 82.2942024565183 100 117.74157769983 80.7131143835577 100 117.941055615611 79.0826932864976 100 117.871071987369 77.4426759901796 100 117.532740950473 75.8328856857061 100 117.155190805482 74.7832868407479 100 103.051039240174 87.4060317205479 25 104.619898582869 88.1172186813872 25 106.299654397849 88.5506530452738 25 108.034108866483 88.6872219059224 25 109.764045725857 88.5214612168817 25 111.433577195808 88.0607798187527 25 112.990532576755 87.3236481037113 25 114.381259812598 86.3442352231027 25 115.577696503058 85.152948368035 25 116.548849136434 83.7905512504986 25 117.274067937902 82.2987593561986 25 117.741577507505 80.7131146714735 25 117.941055822359 79.0826928705059 25 117.871839357441 77.4488086473914 25 117.53463564414 75.8392543052632 25 117.15519097491 74.7832862673776 25 103.051039240174 87.4060317205479 50 104.619898582869 88.1172186813872 50 106.299654397849 88.5506530452738 50 108.034108866483 88.6872219059224 50 109.764045725857 88.5214612168817 50 111.433577195808 88.0607798187527 50 112.990532576755 87.3236481037113 50 114.381259812598 86.3442352231027 50 115.577696503058 85.152948368035 50 116.548849136434 83.7905512504986 50 117.274067937902 82.2987593561986 50 117.741577507505 80.7131146714735 50 117.941055822359 79.0826928705059 50 117.871839357441 77.4488086473914 50 117.53463564414 75.8392543052632 50 117.15519097491 74.7832862673776 50 0 8.58341175913324e-15 6.1787600349278 1.02352534728609e-14 12.413755463593 1.06081973197133e-14 18.6863385932512 1.0713122724767e-14 24.9806301453581 1.11032825974892e-14 31.2763299705563 1.0237736752281e-14 37.5437700996309 9.38106827618579e-15 43.7658818439841 9.16497082854184e-15 49.932772470795 8.49222612429213e-15 56.0422700433367 7.41239270155116e-15 62.096344989633 6.27845366002291e-15 68.0982889262778 5.19451099501932e-15 74.0607131108036 4.56571932788636e-15 80.0024427466396 3.82088514848806e-15 85.9401935969753 3.51560166888087e-15 91.8904391442641 4.43409536693001e-15 95.9360413388327 6.00932422501994e-15 99.9999999999999 8.59728954694107e-15 0 100 0 25 0 50 100 100 100 25 100 50 6.18042778576696 100 12.4171155975471 99.9999999999999 18.6914027708337 99.9999999999999 24.9873962841777 99.9999999999999 31.2847710649428 99.9999999999999 37.5538352890564 99.9999999999999 43.7775274946121 100 49.9459586073583 99.9999999999999 56.0569671530463 99.9999999999999 62.1125304701751 100 68.1159483395678 99.9999999999999 74.0798839322837 99.9999999999999 80.0231683660731 99.9999999999999 85.9625297055661 100 91.9144541973461 100 95.9480958241419 99.9999999999999 6.18042778576696 25 12.413755463593 25 18.6914027708337 25 24.9873962841777 25 31.2763299705563 25 37.5437700996309 25 43.7775274946121 25 49.932772470795 25 56.0422700433367 25 62.096344989633 25 68.0982889262778 25 74.0798839322837 25 80.0231683660731 25 85.9401935969753 25 91.8904391442641 25 95.9480958241419 25 6.18042778576696 50 12.413755463593 50 18.6914027708337 50 24.9873962841777 50 31.2763299705563 50 37.5437700996309 50 43.7775274946121 50 49.932772470795 50 56.0422700433367 50 62.096344989633 50 68.0982889262778 50 74.0798839322837 50 80.0231683660731 50 85.9401935969753 50 91.8904391442641 50 95.9480958241419 50 1 2 20 3 4 42 2 3 41 20 41 57 20 2 41 4 43 42 42 41 3 43 5 44 42 43 59 43 4 5 41 42 58 46 6 7 8 9 47 46 7 8 44 45 61 45 44 6 46 47 63 47 46 8 48 47 9 47 48 64 45 6 46 45 46 62 64 48 49 6 44 5 43 44 60 21 57 25 57 21 20 58 59 26 59 58 42 57 41 58 57 58 25 19 21 25 59 27 26 26 25 58 27 60 28 27 59 60 59 43 60 61 62 29 62 61 45 63 64 31 64 63 47 62 46 63 62 63 30 29 28 61 63 31 30 31 64 32 29 62 30 32 64 65 61 28 60 60 44 61 48 9 49 51 11 12 51 12 13 52 13 14 10 49 9 49 10 50 50 51 67 50 10 11 50 11 51 51 52 68 13 52 51 49 50 66 14 53 52 54 15 16 16 17 55 18 56 17 53 54 70 54 53 15 55 56 72 56 55 17 23 56 18 56 23 24 54 16 55 54 55 71 15 53 14 52 53 69 65 66 33 66 65 49 67 68 35 68 67 51 66 50 67 66 67 34 33 66 34 68 36 35 35 34 67 36 69 37 36 68 69 68 52 69 65 33 32 70 71 38 71 70 54 72 24 40 24 72 56 71 55 72 71 72 39 37 70 38 39 38 71 22 40 24 40 39 72 70 37 69 69 53 70 49 65 64 
25 23 1 1.76042436967656
-70.9355697631836 -38.7048225402832 0 -70.9355697631836 -38.7048225402832 22.75 -70.9355697631836 -38.7048225402832 45.5 -70.9355697631836 -38.7048225402832 68.25 -70.9355697631836 -38.7048225402832 91 -65.0052818434509 -27.7471107663136 91 -58.3739619167919 -17.1988711898432 91 -51.0697650864266 -7.10488928003163 91 -43.1237033406124 2.49197817054983 91 -34.5695138826692 11.5509850062871 91 -25.4435158903496 20.0336687075988 91 -15.7844563127225 27.9040136942034 91 -5.633345359282 35.1286042392282 91 4.96671762024191 41.6767663449222 91 15.9707271260956 47.5206979775992 91 27.3319625918012 52.6355871088623 91 39.0021867492462 56.9997170619352 91 50.9318504333496 60.5945587158203 91 -49.1421521380348 -4.6574388564178 0 -20.6781067114589 24.0475346752598 0 13.1843823239625 46.1271457186286 0 50.9318504333496 60.5945587158203 0 50.9318504333496 60.5945587158203 22.75 50.9318504333496 60.5945587158203 45.5 50.9318504333496 60.5945587158203 68.25 3.60506713909472 0 3.60506713909472 -22.75 3.60506713909472 -45.5 3.60506713909472 -68.25 3.60506713909472 -91 3.67023829610977 -91 3.73540945312483 -91 3.80058061013989 -91 3.86575176715495 -91 3.93092292417001 -91 3.99609408118507 -91 4.06126523820013 -91 4.12643639521519 -91 4.19160755223025 -91 4.25677870924531 -91 4.32194986626037 -91 4.38712102327543 -91 4.45229218029049 -91 3.81687339939366 0 4.0286796596926 0 4.24048591999154 0 4.45229218029049 0 4.45229218029049 -22.75 4.45229218029049 -45.5 4.45229218029049 -68.25 5 6 4 6 7 1 8 9 19 9 10 19 7 8 19 4 6 3 3 6 2 6 1 2 1 7 19 20 10 11 19 10 20 12 13 20 13 14 21 15 16 21 16 17 22 14 15 21 13 21 20 17 18 25 25 24 17 23 17 24 22 21 16 22 17 23 12 20 11 
16 14 1 1.76136996355713
-70.9355697631836 -38.7048225402832 0 -70.9355697631836 -38.7048225402832 100 -70.9355697631836 -38.7048225402832 25 -70.9355697631836 -38.7048225402832 50 -70.9355697631836 -38.7048225402832 75 50.9318504333496 60.5945587158203 0 50.9318504333496 60.5945587158203 25 50.9318504333496 60.5945587158203 50 50.9318504333496 60.5945587158203 75 50.9318504333496 60.5945587158203 100 -49.1421521380348 -4.6574388564178 0 -20.6781067114589 24.0475346752598 0 13.1843823239625 46.1271457186286 0 -49.1421521380348 -4.6574388564178 100 -20.6781067114589 24.0475346752598 100 13.1843823239625 46.1271457186286 100 3.60506713909472 0 3.60506713909472 -100 3.60506713909472 -25 3.60506713909472 -50 3.60506713909472 -75 4.45229218029049 0 4.45229218029049 -25 4.45229218029049 -50 4.45229218029049 -75 4.45229218029049 -100 3.81687339939366 0 4.0286796596926 0 4.24048591999154 0 3.81687339939366 -100 4.0286796596926 -100 4.24048591999154 -100 5 2 14 5 14 4 11 14 15 3 4 11 11 1 3 4 14 11 15 12 11 16 10 9 9 8 16 16 8 13 12 16 13 7 6 13 8 7 13 16 12 15 
60 59 1 1.76136996355713
50.9318504333496 60.5945587158203 0 68.9962666879487 66.7932234519289 0 86.0110615671473 75.4675150281267 0 101.638947907094 86.4454814917205 0 103.051039153955 87.4060314954687 0 104.620775400359 88.1175283946602 0 106.299654217341 88.5506526705429 0 108.03410910863 88.6872223605202 0 109.766342044046 88.5210364364534 0 111.436187649868 88.0598083355541 0 112.990532408267 87.323648636505 0 114.384052930931 86.3418874230857 0 115.58032490458 85.1498460988557 0 116.551133534986 83.7866988825222 0 117.275831330678 82.2942024565183 0 117.74157769983 80.7131143835577 0 117.941055615611 79.0826932864976 0 117.871071987369 77.4426759901796 0 117.532740950473 75.8328856857061 0 117.155190805482 74.7832868407479 0 116.660651907749 73.7779255867531 0 -70.9355697631836 -38.7048225402832 0 -49.1421521380348 -4.6574388564178 0 -20.6781067114589 24.0475346752598 0 13.1843823239625 46.1271457186286 0 101.778873009898 50.9334541266463 0 84.0949246384431 30.182184540139 0 63.8998445501096 11.8656357472586 0 -62.1424217224121 -145.118759155273 0 -71.83722234196 -161.128576274069 0 -84.2362701567702 -175.148812239134 0 -98.9406125634338 -186.728350987186 0 -115.477121643406 -195.494608494129 0 -133.313717559003 -201.16552106388 0 -151.876488790343 -203.558621028987 0 -170.568158351335 -202.596907842668 0 -188.787301814491 -198.311325653632 0 -205.947698784095 -190.839767645047 0 -221.497195163413 -180.422639174127 0 -234.935469302356 -167.395122473056 0 -245.830130380828 -152.176391802752 0 -253.830631045079 -135.256126073415 0 -258.679546643131 -117.178752902707 0 -260.220858137842 -98.5259310758005 0 -258.404972186024 -79.897835052856 0 -253.290316857219 -61.8938437148895 0 -245.041461648168 -45.0932547082455 0 -233.923822283526 -30.0366449242396 0 -220.295120681503 -17.2084768604408 0 -204.593874869162 -7.02151052249289 0 -187.325289196639 0.196477569821013 0 -169.044998847711 4.21324094210928 0 -150.341191684439 4.89953594368308 0 -131.815682674625 2.23328030002634 0 -114.064549852592 -3.69973636644173 0 -97.6589548719265 -12.7086129090759 0 -83.1267652693759 -24.5034791052468 0 14.273073064325 -34.034899821577 0 -28.0489629510504 -86.7465767169433 0 -71.1399012611157 -57.4356993342332 0 50.9318504333496 60.5945587158203 68.9962666879487 66.7932234519289 86.0110615671473 75.4675150281267 101.638947907094 86.4454814917205 103.051039153955 87.4060314954687 104.620775400359 88.1175283946602 106.299654217341 88.5506526705429 108.03410910863 88.6872223605202 109.766342044046 88.5210364364534 111.436187649868 88.0598083355541 112.990532408267 87.323648636505 114.384052930931 86.3418874230856 115.58032490458 85.1498460988556 116.551133534986 83.7866988825222 117.275831330678 82.2942024565183 117.74157769983 80.7131143835577 117.941055615611 79.0826932864976 117.871071987369 77.4426759901796 117.532740950473 75.8328856857061 117.155190805482 74.7832868407479 116.660651907749 73.777925586753 -70.9355697631836 -38.7048225402832 -49.1421521380348 -4.65743885641783 -20.6781067114589 24.0475346752598 13.1843823239626 46.1271457186286 101.778873009898 50.9334541266463 84.0949246384431 30.182184540139 63.8998445501096 11.8656357472586 -62.1424217224121 -145.118759155273 -71.83722234196 -161.128576274069 -84.2362701567702 -175.148812239134 -98.9406125634338 -186.728350987186 -115.477121643406 -195.494608494129 -133.313717559003 -201.16552106388 -151.876488790343 -203.558621028987 -170.568158351335 -202.596907842668 -188.787301814491 -198.311325653632 -205.947698784095 -190.839767645047 -221.497195163413 -180.422639174127 -234.935469302356 -167.395122473056 -245.830130380828 -152.176391802752 -253.830631045079 -135.256126073415 -258.679546643131 -117.178752902707 -260.220858137842 -98.5259310758005 -258.404972186024 -79.897835052856 -253.290316857219 -61.8938437148895 -245.041461648168 -45.0932547082455 -233.923822283526 -30.0366449242396 -220.295120681503 -17.2084768604408 -204.593874869162 -7.02151052249289 -187.325289196639 0.196477569821013 -169.044998847711 4.21324094210928 -150.341191684439 4.89953594368308 -131.815682674625 2.23328030002634 -114.064549852592 -3.69973636644173 -97.6589548719265 -12.7086129090759 -83.1267652693759 -24.5034791052468 14.273073064325 -34.0348998215771 -28.0489629510504 -86.7465767169433 -71.1399012611157 -57.4356993342332 60 41 40 60 40 39 41 60 42 43 42 60 60 44 43 38 60 39 60 37 36 36 35 60 35 34 60 60 33 32 32 31 60 34 33 60 37 60 38 31 30 60 46 60 47 60 48 47 49 48 60 60 51 50 50 49 60 45 60 46 57 56 60 60 22 57 59 22 60 56 55 60 52 60 53 54 53 60 55 54 60 60 52 51 45 44 60 60 30 29 58 23 22 58 22 59 23 58 24 24 58 25 25 28 1 25 58 28 59 60 29 27 1 28 1 27 2 27 26 2 2 26 3 4 3 21 21 3 26 21 20 4 19 17 20 4 20 5 5 20 9 9 20 10 6 5 7 9 8 7 5 9 7 16 15 17 10 20 14 17 15 14 10 12 11 14 13 12 14 12 10 14 20 17 19 18 17 

TShapes 24
Ve
7.2898854139235e-06
101.638947907094 86.4454814917205 0
0 0

0101100
*
Ed
 7.2898854139235e-06 1 1 0
1  1 0 0 6.28318530717959
2  1 1 0 0 6.28318530717959
2  2 2 0 0 6.28318530717959
4 G1 1 0 2 0
0

0101100
+24 0 -24 0 *
Ve
1e-07
50.9318504333496 60.5945587158203 0
0 0

0101100
*
Ed
 1e-07 1 1 0
1  2 0 0 6.28318530717959
2  3 1 0 0 6.28318530717959
2  4 3 0 0 6.28318530717959
4 G1 1 0 3 0
0

0101100
+22 0 -22 0 *
Ed
 1e-07 1 1 0
1  3 0 4.97248578047889 5.39521977012289
2  5 4 0 4.97248578047889 5.39521977012289
2  6 4 2 4.97248578047889 5.39521977012289
2  7 5 0 4.97248578047889 5.39521977012289
2  8 5 4 4.97248578047889 5.39521977012289
6  1 1 0
6  2 2 0
6  3 3 0
3  9 10CN 1 0 4.97248578047889 5.39521977012289
0

0101000
-24 0 +22 0 *
Wi

0101000
-23 0 +21 0 -20 0 +20 0 *
Fa
0  1e-07 1 0

0101000
+19 0 *
Ve
7.2898854139235e-06
116.660651907749 73.7779255867531 0
0 0

0101100
*
Ed
 7.2898854139235e-06 1 1 1
2  11 2 0 0 6.28318530717959
0

0101100
+17 0 -17 0 *
Ed
 7.2898854139235e-06 1 1 0
1  4 0 0 1
2  12 6 0 0 1
2  13 7 0 0 1
6  4 4 0
6  5 2 0
6  6 5 0
3  14 15C1 2 0 0 1
0

0101000
+24 0 -17 0 *
Wi

0101000
+23 0 -16 0 -15 0 +15 0 *
Fa
0  7.2898854139235e-06 2 0

0101000
+14 0 *
Ve
1e-07
-70.9355697631836 -38.7048225402832 0
0 0

0101100
*
Ed
 1e-07 1 1 0
1  5 0 0 6.28318530717959
2  16 3 0 0 6.28318530717959
2  17 8 0 0 6.28318530717959
0

0101100
+12 0 -12 0 *
Ed
 1e-07 1 1 0
1  6 0 3.60506713909472 4.45229218029049
2  18 9 0 3.60506713909472 4.45229218029049
2  19 9 2 3.60506713909472 4.45229218029049
2  20 10 0 3.60506713909472 4.45229218029049
2  21 10 4 3.60506713909472 4.45229218029049
6  7 6 0
6  8 2 0
6  9 7 0
6  10 7 4
6  11 8 0
3  22 23CN 3 0 3.60506713909472 4.45229218029049
0

0101000
+12 0 -22 0 *
Wi

0101000
+11 0 -21 0 -10 0 +10 0 *
Fa
0  1e-07 3 0

0101000
+9 0 *
Ve
1e-07
-120 -197.271545461538 0
0 0

0101101
*
Ed
 1e-07 1 1 1
2  24 8 0 0 6.28318530717959
0

0101100
+7 0 -7 0 *
Ed
 1e-07 1 1 0
1  7 0 1.21973340618254 5.66361299830095
2  25 11 0 1.21973340618254 5.66361299830095
2  26 11 2 1.21973340618254 5.66361299830095
2  27 12 0 1.21973340618254 5.66361299830095
2  28 12 4 1.21973340618254 5.66361299830095
3  29 30CN 8 0 1.21973340618254 5.66361299830095
0

0101000
+7 0 -12 0 *
Wi

0101000
+6 0 -11 0 -5 0 +5 0 *
Fa
0  1e-07 8 0

0101000
+4 0 *
Sh

0101000
+18 0 +13 0 +8 0 +3 0 *
So

1100000
+2 0 *

+1 0 
0

