DBRep_DrawableShape

CASCADE Topology V1, (c) Matra-Datavision
Locations 24
1
              1               0               0               0 
              0               1               0               0 
              0               0               1             200 
1
              1               0               0               0 
              0               1               0               0 
              0               0               1             100 
2  2 -1 0
1
              1               0               0               0 
              0               1               0               0 
              0               0               1             110 
2  4 -1 0
1
              1               0               0               0 
              0               1               0               0 
              0               0               1             120 
2  6 -1 0
1
              1               0               0               0 
              0               1               0               0 
              0               0               1             130 
2  8 -1 0
1
              1               0               0               0 
              0               1               0               0 
              0               0               1             140 
2  10 -1 0
1
              1               0               0               0 
              0               1               0               0 
              0               0               1             150 
2  12 -1 0
1
              1               0               0               0 
              0               1               0               0 
              0               0               1             160 
2  14 -1 0
1
              1               0               0               0 
              0               1               0               0 
              0               0               1             170 
2  16 -1 0
1
              1               0               0               0 
              0               1               0               0 
              0               0               1             180 
2  18 -1 0
1
              1               0               0               0 
              0               1               0               0 
              0               0               1             190 
2  20 -1 0
1
              1               0               0               0 
              0               1               0               0 
              0               0               1             200 
2  22 -1 0
2  1 -1 0
Curve2ds 26
1 0 0 0 -1 
1 6.28318530717959 0 0 -1 
1 0 0 1 0 
1 0 -100 1 0 
1 0 0 1 0 
1 0 -110 1 0 
1 0 0 1 0 
1 0 -120 1 0 
1 0 0 1 0 
1 0 -130 1 0 
1 0 0 1 0 
1 0 -140 1 0 
1 0 0 1 0 
1 0 -150 1 0 
1 0 0 1 0 
1 0 -160 1 0 
1 0 0 1 0 
1 0 -170 1 0 
1 0 0 1 0 
1 0 -180 1 0 
1 0 0 1 0 
1 0 -190 1 0 
1 0 0 1 0 
1 0 -200 1 0 
1 0 0 1 0 
1 0 -200 1 0 
Curves 2
1 244.183210724122 -140.598779865253 0 0 0 1 
2 -72.1297288625526 -140.598779865253 0 0 0 1 1 0 0 0 1 0 316.312939586675
Polygon3D 0
PolygonOnTriangulations 6
5 1 3 4 5 2 
p 68.4749317520352 1 0 50 100 150 200 
5 6 7 8 9 10 
p 68.4749317520352 1 0 50 100 150 200 
48 1 2 3 4 5 6 7 8 9 10 11 12 13 14 15 16 17 18 19 20 21 22 23 24 25 26 27 28 29 30 31 32 33 34 35 36 37 38 39 40 41 42 43 44 45 46 47 1 
p 68.4749317520352 1 0 0.133684793769778 0.267369587539557 0.401054381309335 0.534739175079114 0.668423968848892 0.802108762618671 0.935793556388449 1.06947835015823 1.20316314392801 1.33684793769778 1.47053273146756 1.60421752523734 1.73790231900712 1.8715871127769 2.00527190654668 2.13895670031646 2.27264149408623 2.40632628785601 2.54001108162579 2.67369587539557 2.80738066916535 2.94106546293513 3.0747502567049 3.20843505047468 3.34211984424446 3.47580463801424 3.60948943178402 3.7431742255538 3.87685901932358 4.01054381309335 4.14422860686313 4.27791340063291 4.41159819440269 4.54528298817247 4.67896778194225 4.81265257571202 4.9463373694818 5.08002216325158 5.21370695702136 5.34739175079114 5.48107654456092 5.6147613383307 5.74844613210047 5.88213092587025 6.01581571964003 6.14950051340981 6.28318530717959 
48 2 57 58 59 60 61 62 63 64 65 66 67 68 69 70 71 72 73 74 75 76 77 78 79 80 81 82 83 84 85 86 87 88 89 90 91 92 93 94 95 96 97 98 99 100 101 102 10 
p 76.922246144131 1 0 0.133684793769778 0.267369587539557 0.401054381309335 0.534739175079114 0.668423968848892 0.802108762618671 0.935793556388449 1.06947835015823 1.20316314392801 1.33684793769778 1.47053273146756 1.60421752523734 1.73790231900712 1.8715871127769 2.00527190654668 2.13895670031646 2.27264149408623 2.40632628785601 2.54001108162579 2.67369587539557 2.80738066916535 2.94106546293513 3.0747502567049 3.20843505047468 3.34211984424446 3.47580463801424 3.60948943178402 3.7431742255538 3.87685901932358 4.01054381309335 4.14422860686313 4.27791340063291 4.41159819440269 4.54528298817247 4.67896778194225 4.81265257571202 4.9463373694818 5.08002216325158 5.21370695702136 5.34739175079114 5.48107654456092 5.6147613383307 5.74844613210047 5.88213092587025 6.01581571964003 6.14950051340981 6.28318530717959 
48 1 11 12 13 14 15 16 17 18 19 20 21 22 23 24 25 26 27 28 29 30 31 32 33 34 35 36 37 38 39 40 41 42 43 44 45 46 47 48 49 50 51 52 53 54 55 56 6 
p 76.922246144131 1 0 0.133684793769778 0.267369587539557 0.401054381309335 0.534739175079114 0.668423968848892 0.802108762618671 0.935793556388449 1.06947835015823 1.20316314392801 1.33684793769778 1.47053273146756 1.60421752523734 1.73790231900712 1.8715871127769 2.00527190654668 2.13895670031646 2.27264149408623 2.40632628785601 2.54001108162579 2.67369587539557 2.80738066916535 2.94106546293513 3.0747502567049 3.20843505047468 3.34211984424446 3.47580463801424 3.60948943178402 3.7431742255538 3.87685901932358 4.01054381309335 4.14422860686313 4.27791340063291 4.41159819440269 4.54528298817247 4.67896778194225 4.81265257571202 4.9463373694818 5.08002216325158 5.21370695702136 5.34739175079114 5.48107654456092 5.6147613383307 5.74844613210047 5.88213092587025 6.01581571964003 6.14950051340981 6.28318530717959 
48 1 2 3 4 5 6 7 8 9 10 11 12 13 14 15 16 17 18 19 20 21 22 23 24 25 26 27 28 29 30 31 32 33 34 35 36 37 38 39 40 41 42 43 44 45 46 47 1 
p 76.922246144131 1 0 0.133684793769778 0.267369587539557 0.401054381309335 0.534739175079114 0.668423968848892 0.802108762618671 0.935793556388449 1.06947835015823 1.20316314392801 1.33684793769778 1.47053273146756 1.60421752523734 1.73790231900712 1.8715871127769 2.00527190654668 2.13895670031646 2.27264149408623 2.40632628785601 2.54001108162579 2.67369587539557 2.80738066916535 2.94106546293513 3.0747502567049 3.20843505047468 3.34211984424446 3.47580463801424 3.60948943178402 3.7431742255538 3.87685901932358 4.01054381309335 4.14422860686313 4.27791340063291 4.41159819440269 4.54528298817247 4.67896778194225 4.81265257571202 4.9463373694818 5.08002216325158 5.21370695702136 5.34739175079114 5.48107654456092 5.6147613383307 5.74844613210047 5.88213092587025 6.01581571964003 6.14950051340981 6.28318530717959 
Surfaces 13
2 -72.1297288625526 -140.598779865253 0 0 0 -1 1 0 0 0 1 0 316.312939586675
2 -72.1297288625526 -140.598779865253 0 0 0 -1 1 0 0 0 1 0 316.312939586675
2 -72.1297288625526 -140.598779865253 0 0 0 -1 1 0 0 0 1 0 316.312939586675
2 -72.1297288625526 -140.598779865253 0 0 0 -1 1 0 0 0 1 0 316.312939586675
2 -72.1297288625526 -140.598779865253 0 0 0 -1 1 0 0 0 1 0 316.312939586675
2 -72.1297288625526 -140.598779865253 0 0 0 -1 1 0 0 0 1 0 316.312939586675
2 -72.1297288625526 -140.598779865253 0 0 0 -1 1 0 0 0 1 0 316.312939586675
2 -72.1297288625526 -140.598779865253 0 0 0 -1 1 0 0 0 1 0 316.312939586675
2 -72.1297288625526 -140.598779865253 0 0 0 -1 1 0 0 0 1 0 316.312939586675
2 -72.1297288625526 -140.598779865253 0 0 0 -1 1 0 0 0 1 0 316.312939586675
2 -72.1297288625526 -140.598779865253 0 0 0 -1 1 0 0 0 1 0 316.312939586675
2 -72.1297288625526 -140.598779865253 0 0 0 -1 1 0 0 0 1 0 316.312939586675
1 0 0 0 0 0 1 1 0 0 0 1 0 
Triangulations 3
102 100 1 72.6985889480831
244.183210724122 -140.598779865253 0 244.183210724122 -140.598779865253 200 244.183210724122 -140.598779865253 50 244.183210724122 -140.598779865253 100 244.183210724122 -140.598779865253 150 244.183210724122 -140.598779865253 0 244.183210724122 -140.598779865253 50 244.183210724122 -140.598779865253 100 244.183210724122 -140.598779865253 150 244.183210724122 -140.598779865253 200 241.360904773864 -98.4383912024153 0 232.944351039632 -57.0303556740639 0 219.083743122207 -17.113600655177 0 200.026423898239 20.599558415288 0 176.112471680756 55.4361293202771 0 147.76863151361 86.7744526266972 0 115.500699896063 114.055295212727 0 79.8844988322709 136.791829796122 0 41.5556002739808 154.578322378605 0 1.19798432399379 167.097372578671 0 -40.4681664049729 174.125577648918 0 -82.6993184660714 175.537519103366 0 -124.741855950297 171.308000813312 0 -165.845528780237 161.512498632839 0 -205.276840940478 146.325813530419 0 -242.332139731374 126.018952261483 0 -276.350172468147 100.954291246454 0 -306.723886550705 71.5791099549387 0 -332.91126233168 38.4176091929943 0 -354.444985469868 2.06155672732839 0 -370.940786165727 -36.8402728245182 0 -382.104296465045 -77.5936753925914 0 -387.736303262063 -119.471405542598 0 -387.736303262063 -161.726154187909 0 -382.104296465045 -203.603884337915 0 -370.940786165727 -244.357286905989 0 -354.444985469868 -283.259116457835 0 -332.911262331679 -319.615168923501 0 -306.723886550705 -352.776669685445 0 -276.350172468146 -382.151850976961 0 -242.332139731374 -407.21651199199 0 -205.276840940478 -427.523373260925 0 -165.845528780237 -442.710058363345 0 -124.741855950297 -452.505560543818 0 -82.699318466071 -456.735078833873 0 -40.4681664049725 -455.323137379425 0 1.19798432399419 -448.294932309178 0 41.5556002739812 -435.775882109112 0 79.8844988322712 -417.989389526628 0 115.500699896063 -395.252854943233 0 147.76863151361 -367.972012357203 0 176.112471680756 -336.633689050783 0 200.02642389824 -301.797118145794 0 219.083743122208 -264.083959075329 0 232.944351039632 -224.167204056442 0 241.360904773864 -182.759168528091 0 241.360904773864 -98.4383912024153 200 232.944351039632 -57.0303556740639 200 219.083743122207 -17.113600655177 200 200.026423898239 20.599558415288 200 176.112471680756 55.4361293202771 200 147.76863151361 86.7744526266972 200 115.500699896063 114.055295212727 200 79.8844988322709 136.791829796122 200 41.5556002739808 154.578322378605 200 1.19798432399379 167.097372578671 200 -40.4681664049729 174.125577648918 200 -82.6993184660714 175.537519103366 200 -124.741855950297 171.308000813312 200 -165.845528780237 161.512498632839 200 -205.276840940478 146.325813530419 200 -242.332139731374 126.018952261483 200 -276.350172468147 100.954291246454 200 -306.723886550705 71.5791099549387 200 -332.91126233168 38.4176091929943 200 -354.444985469868 2.06155672732839 200 -370.940786165727 -36.8402728245182 200 -382.104296465045 -77.5936753925914 200 -387.736303262063 -119.471405542598 200 -387.736303262063 -161.726154187909 200 -382.104296465045 -203.603884337915 200 -370.940786165727 -244.357286905989 200 -354.444985469868 -283.259116457835 200 -332.911262331679 -319.615168923501 200 -306.723886550705 -352.776669685445 200 -276.350172468146 -382.151850976961 200 -242.332139731374 -407.21651199199 200 -205.276840940478 -427.523373260925 200 -165.845528780237 -442.710058363345 200 -124.741855950297 -452.505560543818 200 -82.699318466071 -456.735078833873 200 -40.4681664049725 -455.323137379425 200 1.19798432399419 -448.294932309178 200 41.5556002739812 -435.775882109112 200 79.8844988322712 -417.989389526628 200 115.500699896063 -395.252854943233 200 147.76863151361 -367.972012357203 200 176.112471680756 -336.633689050783 200 200.02642389824 -301.797118145794 200 219.083743122208 -264.083959075329 200 232.944351039632 -224.167204056442 200 241.360904773864 -182.759168528091 200 0 0 0 -200 0 -50 0 -100 0 -150 6.28318530717959 0 6.28318530717959 -50 6.28318530717959 -100 6.28318530717959 -150 6.28318530717959 -200 0.133684793769778 0 0.267369587539557 0 0.401054381309335 0 0.534739175079114 0 0.668423968848892 0 0.802108762618671 0 0.935793556388449 0 1.06947835015823 0 1.20316314392801 0 1.33684793769778 0 1.47053273146756 0 1.60421752523734 0 1.73790231900712 0 1.8715871127769 0 2.00527190654668 0 2.13895670031646 0 2.27264149408623 0 2.40632628785601 0 2.54001108162579 0 2.67369587539557 0 2.80738066916535 0 2.94106546293513 0 3.0747502567049 0 3.20843505047468 0 3.34211984424446 0 3.47580463801424 0 3.60948943178402 0 3.7431742255538 0 3.87685901932358 0 4.01054381309335 0 4.14422860686313 0 4.27791340063291 0 4.41159819440269 0 4.54528298817247 0 4.67896778194225 0 4.81265257571202 0 4.9463373694818 0 5.08002216325158 0 5.21370695702136 0 5.34739175079114 0 5.48107654456092 0 5.6147613383307 0 5.74844613210047 0 5.88213092587025 0 6.01581571964003 0 6.14950051340981 0 0.133684793769778 -200 0.267369587539557 -200 0.401054381309335 -200 0.534739175079114 -200 0.668423968848892 -200 0.802108762618671 -200 0.935793556388449 -200 1.06947835015823 -200 1.20316314392801 -200 1.33684793769778 -200 1.47053273146756 -200 1.60421752523734 -200 1.73790231900712 -200 1.8715871127769 -200 2.00527190654668 -200 2.13895670031646 -200 2.27264149408623 -200 2.40632628785601 -200 2.54001108162579 -200 2.67369587539557 -200 2.80738066916535 -200 2.94106546293513 -200 3.0747502567049 -200 3.20843505047468 -200 3.34211984424446 -200 3.47580463801424 -200 3.60948943178402 -200 3.7431742255538 -200 3.87685901932358 -200 4.01054381309335 -200 4.14422860686313 -200 4.27791340063291 -200 4.41159819440269 -200 4.54528298817247 -200 4.67896778194225 -200 4.81265257571202 -200 4.9463373694818 -200 5.08002216325158 -200 5.21370695702136 -200 5.34739175079114 -200 5.48107654456092 -200 5.6147613383307 -200 5.74844613210047 -200 5.88213092587025 -200 6.01581571964003 -200 6.14950051340981 -200 2 57 5 5 57 4 13 58 59 14 59 60 12 57 58 62 16 61 60 61 15 63 17 62 18 63 64 19 64 65 66 20 65 21 66 67 22 67 68 24 69 70 25 70 71 23 68 69 27 72 73 28 73 74 30 75 76 32 77 78 31 76 77 29 74 75 26 71 72 33 78 79 3 4 11 1 3 11 11 4 57 11 57 12 13 12 58 13 59 14 14 60 15 16 62 17 18 64 19 63 18 17 61 16 15 20 19 65 20 66 21 21 67 22 23 69 24 24 70 25 68 23 22 26 72 27 27 73 28 29 75 30 31 77 32 76 31 30 74 29 28 71 26 25 78 33 32 79 80 33 35 80 81 36 81 82 38 83 84 39 84 85 37 82 83 41 86 87 42 87 88 44 89 90 45 90 91 43 88 89 40 85 86 47 92 93 48 93 94 50 95 96 51 96 97 49 94 95 53 98 99 54 99 100 56 101 102 10 9 102 100 101 55 97 98 52 91 92 46 8 102 9 34 80 35 35 81 36 37 83 38 38 84 39 82 37 36 40 86 41 41 87 42 43 89 44 45 91 46 90 45 44 88 43 42 85 40 39 47 93 48 48 94 49 50 96 51 50 49 95 56 8 7 46 92 47 51 97 52 52 98 53 54 100 55 6 56 7 101 56 55 99 54 53 102 8 56 80 34 33 
48 47 1 68.4749317520352
244.183210724122 -140.598779865253 0 241.360904773864 -98.4383912024153 0 232.944351039632 -57.0303556740639 0 219.083743122207 -17.113600655177 0 200.026423898239 20.599558415288 0 176.112471680756 55.4361293202771 0 147.76863151361 86.7744526266972 0 115.500699896063 114.055295212727 0 79.8844988322709 136.791829796122 0 41.5556002739808 154.578322378605 0 1.19798432399379 167.097372578671 0 -40.4681664049729 174.125577648918 0 -82.6993184660714 175.537519103366 0 -124.741855950297 171.308000813312 0 -165.845528780237 161.512498632839 0 -205.276840940478 146.325813530419 0 -242.332139731374 126.018952261483 0 -276.350172468147 100.954291246454 0 -306.723886550705 71.5791099549387 0 -332.91126233168 38.4176091929943 0 -354.444985469868 2.06155672732839 0 -370.940786165727 -36.8402728245182 0 -382.104296465045 -77.5936753925914 0 -387.736303262063 -119.471405542598 0 -387.736303262063 -161.726154187909 0 -382.104296465045 -203.603884337915 0 -370.940786165727 -244.357286905989 0 -354.444985469868 -283.259116457835 0 -332.911262331679 -319.615168923501 0 -306.723886550705 -352.776669685445 0 -276.350172468146 -382.151850976961 0 -242.332139731374 -407.21651199199 0 -205.276840940478 -427.523373260925 0 -165.845528780237 -442.710058363345 0 -124.741855950297 -452.505560543818 0 -82.699318466071 -456.735078833873 0 -40.4681664049725 -455.323137379425 0 1.19798432399419 -448.294932309178 0 41.5556002739812 -435.775882109112 0 79.8844988322712 -417.989389526628 0 115.500699896063 -395.252854943233 0 147.76863151361 -367.972012357203 0 176.112471680756 -336.633689050783 0 200.02642389824 -301.797118145794 0 219.083743122208 -264.083959075329 0 232.944351039632 -224.167204056442 0 241.360904773864 -182.759168528091 0 -71.7765462689705 -140.598779865253 0 244.183210724122 -140.598779865253 241.360904773864 -98.4383912024152 232.944351039632 -57.0303556740639 219.083743122207 -17.1136006551769 200.026423898239 20.599558415288 176.112471680756 55.436129320277 147.76863151361 86.7744526266972 115.500699896063 114.055295212727 79.8844988322709 136.791829796122 41.5556002739808 154.578322378605 1.19798432399381 167.097372578671 -40.4681664049729 174.125577648918 -82.6993184660714 175.537519103366 -124.741855950297 171.308000813312 -165.845528780237 161.512498632839 -205.276840940478 146.325813530419 -242.332139731374 126.018952261483 -276.350172468147 100.954291246454 -306.723886550705 71.5791099549388 -332.91126233168 38.4176091929943 -354.444985469868 2.06155672732837 -370.940786165727 -36.8402728245182 -382.104296465045 -77.5936753925914 -387.736303262063 -119.471405542598 -387.736303262063 -161.726154187909 -382.104296465045 -203.603884337915 -370.940786165727 -244.357286905989 -354.444985469868 -283.259116457835 -332.911262331679 -319.615168923501 -306.723886550705 -352.776669685445 -276.350172468146 -382.151850976961 -242.332139731374 -407.21651199199 -205.276840940478 -427.523373260925 -165.845528780237 -442.710058363345 -124.741855950297 -452.505560543818 -82.699318466071 -456.735078833873 -40.4681664049725 -455.323137379425 1.19798432399421 -448.294932309178 41.5556002739812 -435.775882109112 79.8844988322712 -417.989389526628 115.500699896063 -395.252854943233 147.76863151361 -367.972012357203 176.112471680756 -336.633689050783 200.02642389824 -301.797118145794 219.083743122208 -264.083959075329 232.944351039632 -224.167204056442 241.360904773864 -182.759168528091 -71.7765462689705 -140.598779865253 48 27 28 27 48 26 48 25 26 25 48 24 48 29 30 48 34 35 33 34 48 48 31 32 33 48 32 31 48 30 29 48 28 22 48 21 22 23 48 19 48 18 19 20 48 23 24 48 17 48 16 48 17 18 14 48 13 15 16 48 48 20 21 15 48 14 48 35 36 48 37 38 48 38 39 48 40 41 40 48 39 48 41 42 37 48 36 43 44 48 45 48 44 47 48 46 48 45 46 42 43 48 48 47 1 48 8 9 48 9 10 48 11 12 48 7 8 11 48 10 2 3 48 3 4 48 5 6 48 48 4 5 48 6 7 1 2 48 48 12 13 
48 47 1 76.922246144131
244.183210724122 -140.598779865253 0 241.360904773864 -98.4383912024153 0 232.944351039632 -57.0303556740639 0 219.083743122207 -17.113600655177 0 200.026423898239 20.599558415288 0 176.112471680756 55.4361293202771 0 147.76863151361 86.7744526266972 0 115.500699896063 114.055295212727 0 79.8844988322709 136.791829796122 0 41.5556002739808 154.578322378605 0 1.19798432399379 167.097372578671 0 -40.4681664049729 174.125577648918 0 -82.6993184660714 175.537519103366 0 -124.741855950297 171.308000813312 0 -165.845528780237 161.512498632839 0 -205.276840940478 146.325813530419 0 -242.332139731374 126.018952261483 0 -276.350172468147 100.954291246454 0 -306.723886550705 71.5791099549387 0 -332.91126233168 38.4176091929943 0 -354.444985469868 2.06155672732839 0 -370.940786165727 -36.8402728245182 0 -382.104296465045 -77.5936753925914 0 -387.736303262063 -119.471405542598 0 -387.736303262063 -161.726154187909 0 -382.104296465045 -203.603884337915 0 -370.940786165727 -244.357286905989 0 -354.444985469868 -283.259116457835 0 -332.911262331679 -319.615168923501 0 -306.723886550705 -352.776669685445 0 -276.350172468146 -382.151850976961 0 -242.332139731374 -407.21651199199 0 -205.276840940478 -427.523373260925 0 -165.845528780237 -442.710058363345 0 -124.741855950297 -452.505560543818 0 -82.699318466071 -456.735078833873 0 -40.4681664049725 -455.323137379425 0 1.19798432399419 -448.294932309178 0 41.5556002739812 -435.775882109112 0 79.8844988322712 -417.989389526628 0 115.500699896063 -395.252854943233 0 147.76863151361 -367.972012357203 0 176.112471680756 -336.633689050783 0 200.02642389824 -301.797118145794 0 219.083743122208 -264.083959075329 0 232.944351039632 -224.167204056442 0 241.360904773864 -182.759168528091 0 -71.7765462689705 -140.598779865253 0 244.183210724122 -140.598779865253 241.360904773864 -98.4383912024152 232.944351039632 -57.0303556740639 219.083743122207 -17.1136006551769 200.026423898239 20.599558415288 176.112471680756 55.436129320277 147.76863151361 86.7744526266972 115.500699896063 114.055295212727 79.8844988322709 136.791829796122 41.5556002739808 154.578322378605 1.19798432399381 167.097372578671 -40.4681664049729 174.125577648918 -82.6993184660714 175.537519103366 -124.741855950297 171.308000813312 -165.845528780237 161.512498632839 -205.276840940478 146.325813530419 -242.332139731374 126.018952261483 -276.350172468147 100.954291246454 -306.723886550705 71.5791099549388 -332.91126233168 38.4176091929943 -354.444985469868 2.06155672732837 -370.940786165727 -36.8402728245182 -382.104296465045 -77.5936753925914 -387.736303262063 -119.471405542598 -387.736303262063 -161.726154187909 -382.104296465045 -203.603884337915 -370.940786165727 -244.357286905989 -354.444985469868 -283.259116457835 -332.911262331679 -319.615168923501 -306.723886550705 -352.776669685445 -276.350172468146 -382.151850976961 -242.332139731374 -407.21651199199 -205.276840940478 -427.523373260925 -165.845528780237 -442.710058363345 -124.741855950297 -452.505560543818 -82.699318466071 -456.735078833873 -40.4681664049725 -455.323137379425 1.19798432399421 -448.294932309178 41.5556002739812 -435.775882109112 79.8844988322712 -417.989389526628 115.500699896063 -395.252854943233 147.76863151361 -367.972012357203 176.112471680756 -336.633689050783 200.02642389824 -301.797118145794 219.083743122208 -264.083959075329 232.944351039632 -224.167204056442 241.360904773864 -182.759168528091 -71.7765462689705 -140.598779865253 48 27 28 27 48 26 48 25 26 25 48 24 48 29 30 48 34 35 33 34 48 48 31 32 33 48 32 31 48 30 29 48 28 22 48 21 22 23 48 19 48 18 19 20 48 23 24 48 17 48 16 48 17 18 14 48 13 15 16 48 48 20 21 15 48 14 48 35 36 48 37 38 48 38 39 48 40 41 40 48 39 48 41 42 37 48 36 43 44 48 45 48 44 47 48 46 48 45 46 42 43 48 48 47 1 48 8 9 48 9 10 48 11 12 48 7 8 11 48 10 2 3 48 3 4 48 5 6 48 48 4 5 48 6 7 1 2 48 48 12 13 

TShapes 9
Ve
1e-007
244.183210724122 -140.598779865253 0
0 0

0101100
*
Ed
 1e-007 1 1 0
1  1 0 0 200
3  1 2CN 1 0 0 200
7  1 2 1 0
0

0101000
+9 0 -9 1 *
Ed
 1e-007 1 1 0
1  2 0 0 6.28318530717959
6  3 2 0
2  3 2 0 0 6.28318530717959
2  4 2 3 0 6.28318530717959
2  5 3 0 0 6.28318530717959
2  6 3 5 0 6.28318530717959
2  7 4 0 0 6.28318530717959
2  8 4 7 0 6.28318530717959
2  9 5 0 0 6.28318530717959
2  10 5 9 0 6.28318530717959
2  11 6 0 0 6.28318530717959
2  12 6 11 0 6.28318530717959
2  13 7 0 0 6.28318530717959
2  14 7 13 0 6.28318530717959
2  15 8 0 0 6.28318530717959
2  16 8 15 0 6.28318530717959
2  17 9 0 0 6.28318530717959
2  18 9 17 0 6.28318530717959
2  19 10 0 0 6.28318530717959
2  20 10 19 0 6.28318530717959
2  21 11 0 0 6.28318530717959
2  22 11 21 0 6.28318530717959
2  23 12 0 0 6.28318530717959
2  24 12 23 0 6.28318530717959
2  25 1 0 0 6.28318530717959
2  26 1 24 0 6.28318530717959
6  4 1 24
6  5 1 0
6  6 3 0
0

0101100
+9 0 -9 0 *
Wi

0101000
+8 0 -8 0 -7 0 +7 1 *
Fa
0  1e-007 1 0
2  1
0101000
+6 0 *
Wi

0101100
+7 0 *
Fa
0  1e-007 13 0
2  3
0101000
+4 0 *
Sh

0101000
+5 0 +3 0 -3 1 *
So

1100000
-2 0 *

+1 0 