DBRep_DrawableShape

CASCADE Topology V1, (c) Matra-Datavision
Locations 0
Curve2ds 6
1 0 100 1 0 
2 0 0 1 0 -0 1 20
1 6.2831853071795862 -0 0 1 
1 0 -0 0 1 
1 0 0 1 0 
2 0 0 1 0 -0 1 20
Curves 3
2 100 0 0 1 0 0 -0 0 1 0 -1 0 20
1 0 4.898587196589413e-15 20 1 0 0 
2 0 0 0 1 0 0 -0 0 1 0 -1 0 20
Polygon3D 0
PolygonOnTriangulations 6
26 1 3 4 5 6 7 8 9 10 11 12 13 14 15 16 17 18 19 20 21 22 23 24 25 26 2 
p 1 1 0 0.251327412287183 0.502654824574367 0.75398223686155 1.00530964914873 1.25663706143592 1.5079644737231 1.75929188601028 2.01061929829747 2.26194671058465 2.51327412287183 2.76460153515902 3.0159289474462 3.26725635973338 3.51858377202057 3.76991118430775 4.02123859659493 4.27256600888212 4.5238934211693 4.77522083345649 5.02654824574367 5.27787565803085 5.52920307031804 5.78053048260522 6.03185789489241 6.28318530717959 
26 1 2 3 4 5 6 7 8 9 10 11 12 13 14 15 16 17 18 19 20 21 22 23 24 25 1 
p 1 1 0 0.251327412287183 0.502654824574367 0.75398223686155 1.00530964914873 1.25663706143592 1.5079644737231 1.75929188601028 2.01061929829747 2.26194671058465 2.51327412287183 2.76460153515902 3.0159289474462 3.26725635973338 3.51858377202057 3.76991118430775 4.02123859659493 4.27256600888212 4.5238934211693 4.77522083345649 5.02654824574367 5.27787565803085 5.52920307031804 5.78053048260522 6.03185789489241 6.28318530717959 
2 27 2 
p 1 1 0 100 
2 28 1 
p 1 1 0 100 
26 28 29 30 31 32 33 34 35 36 37 38 39 40 41 42 43 44 45 46 47 48 49 50 51 52 27 
p 1 1 0 0.251327412287183 0.502654824574367 0.75398223686155 1.00530964914873 1.25663706143592 1.5079644737231 1.75929188601028 2.01061929829747 2.26194671058465 2.51327412287183 2.76460153515902 3.0159289474462 3.26725635973338 3.51858377202057 3.76991118430775 4.02123859659493 4.27256600888212 4.5238934211693 4.77522083345649 5.02654824574367 5.27787565803085 5.52920307031804 5.78053048260522 6.03185789489241 6.28318530717959 
26 1 2 3 4 5 6 7 8 9 10 11 12 13 14 15 16 17 18 19 20 21 22 23 24 25 1 
p 1 1 0 0.251327412287183 0.502654824574367 0.75398223686155 1.00530964914873 1.25663706143592 1.5079644737231 1.75929188601028 2.01061929829747 2.26194671058465 2.51327412287183 2.76460153515902 3.0159289474462 3.26725635973338 3.51858377202057 3.76991118430775 4.02123859659493 4.27256600888212 4.5238934211693 4.77522083345649 5.02654824574367 5.27787565803085 5.52920307031804 5.78053048260522 6.03185789489241 6.28318530717959 
Surfaces 3
2 0 0 0 1 0 0 -0 0 1 0 -1 0 20
1 100 0 0 1 0 0 -0 0 1 0 -1 0 
1 0 0 0 1 0 0 -0 0 1 0 -1 0 
Triangulations 3
52 50 1 1
100 4.89858719658941e-15 20 100 4.89858719658941e-15 20 100 -4.9737977432971 19.3716632225726 100 -9.63507348203431 17.5261336008773 100 -13.6909421185738 14.5793725484282 100 -16.8865585100403 10.7165358995799 100 -19.0211303259031 6.18033988749895 100 -19.9605345685654 1.25581039058627 100 -19.6457450145738 -3.74762629171449 100 -18.0965410493204 -8.51558583130145 100 -15.4102648555158 -12.7484797949738 100 -11.7557050458495 -16.1803398874989 100 -7.36249105369357 -18.595529717765 100 -2.5066646712861 -19.8422940262896 100 2.50666467128607 -19.8422940262896 100 7.36249105369354 -18.595529717765 100 11.7557050458494 -16.180339887499 100 15.4102648555158 -12.7484797949738 100 18.0965410493204 -8.51558583130146 100 19.6457450145738 -3.74762629171449 100 19.9605345685654 1.25581039058627 100 19.0211303259031 6.18033988749896 100 16.8865585100403 10.71653589958 100 13.6909421185738 14.5793725484282 100 9.63507348203428 17.5261336008773 100 4.97379774329706 19.3716632225726 0 4.89858719658941e-15 20 0 4.89858719658941e-15 20 0 -4.9737977432971 19.3716632225726 0 -9.63507348203431 17.5261336008773 0 -13.6909421185738 14.5793725484282 0 -16.8865585100403 10.7165358995799 0 -19.0211303259031 6.18033988749895 0 -19.9605345685654 1.25581039058627 0 -19.6457450145738 -3.74762629171449 0 -18.0965410493204 -8.51558583130145 0 -15.4102648555158 -12.7484797949738 0 -11.7557050458495 -16.1803398874989 0 -7.36249105369357 -18.595529717765 0 -2.5066646712861 -19.8422940262896 0 2.50666467128607 -19.8422940262896 0 7.36249105369354 -18.595529717765 0 11.7557050458494 -16.180339887499 0 15.4102648555158 -12.7484797949738 0 18.0965410493204 -8.51558583130146 0 19.6457450145738 -3.74762629171449 0 19.9605345685654 1.25581039058627 0 19.0211303259031 6.18033988749896 0 16.8865585100403 10.71653589958 0 13.6909421185738 14.5793725484282 0 9.63507348203428 17.5261336008773 0 4.97379774329706 19.3716632225726 0 100 6.28318530717959 100 0.251327412287183 100 0.502654824574367 100 0.75398223686155 100 1.00530964914873 100 1.25663706143592 100 1.5079644737231 100 1.75929188601028 100 2.01061929829747 100 2.26194671058465 100 2.51327412287183 100 2.76460153515902 100 3.0159289474462 100 3.26725635973338 100 3.51858377202057 100 3.76991118430775 100 4.02123859659493 100 4.27256600888212 100 4.5238934211693 100 4.77522083345649 100 5.02654824574367 100 5.27787565803085 100 5.52920307031804 100 5.78053048260522 100 6.03185789489241 100 6.28318530717959 0 0 0 0.251327412287183 0 0.502654824574367 0 0.75398223686155 0 1.00530964914873 0 1.25663706143592 0 1.5079644737231 0 1.75929188601028 0 2.01061929829747 0 2.26194671058465 0 2.51327412287183 0 2.76460153515902 0 3.0159289474462 0 3.26725635973338 0 3.51858377202057 0 3.76991118430775 0 4.02123859659493 0 4.27256600888212 0 4.5238934211693 0 4.77522083345649 0 5.02654824574367 0 5.27787565803085 0 5.52920307031804 0 5.78053048260522 0 6.03185789489241 0 28 29 3 29 30 4 31 32 6 32 33 7 30 31 5 34 35 9 35 36 10 37 38 12 39 40 14 38 39 13 36 37 11 33 34 8 3 1 28 4 3 29 6 5 31 7 6 32 4 30 5 9 8 34 10 9 35 12 11 37 14 13 39 12 38 13 10 36 11 7 33 8 40 41 14 41 42 16 42 43 17 44 45 19 45 46 20 43 44 18 47 48 22 48 49 23 50 51 25 52 27 2 51 52 26 49 50 24 46 47 21 16 15 41 17 16 42 19 18 44 20 19 45 17 43 18 22 21 47 23 22 48 25 24 50 2 26 52 25 51 26 23 49 24 20 46 21 41 15 14 
26 25 1 1
100 4.89858719658941e-15 20 100 -4.9737977432971 19.3716632225726 100 -9.63507348203431 17.5261336008773 100 -13.6909421185738 14.5793725484282 100 -16.8865585100403 10.7165358995799 100 -19.0211303259031 6.18033988749895 100 -19.9605345685654 1.25581039058627 100 -19.6457450145738 -3.74762629171449 100 -18.0965410493204 -8.51558583130145 100 -15.4102648555158 -12.7484797949738 100 -11.7557050458495 -16.1803398874989 100 -7.36249105369357 -18.595529717765 100 -2.5066646712861 -19.8422940262896 100 2.50666467128607 -19.8422940262896 100 7.36249105369354 -18.595529717765 100 11.7557050458494 -16.180339887499 100 15.4102648555158 -12.7484797949738 100 18.0965410493204 -8.51558583130146 100 19.6457450145738 -3.74762629171449 100 19.9605345685654 1.25581039058627 100 19.0211303259031 6.18033988749896 100 16.8865585100403 10.71653589958 100 13.6909421185738 14.5793725484282 100 9.63507348203428 17.5261336008773 100 4.97379774329706 19.3716632225726 100 0 0.078852986855221 20 0 19.3716632225726 4.97379774329709 17.5261336008773 9.6350734820343 14.5793725484282 13.6909421185738 10.7165358995799 16.8865585100403 6.18033988749895 19.0211303259031 1.25581039058627 19.9605345685654 -3.74762629171449 19.6457450145738 -8.51558583130145 18.0965410493204 -12.7484797949738 15.4102648555158 -16.1803398874989 11.7557050458495 -18.595529717765 7.36249105369357 -19.8422940262896 2.5066646712861 -19.8422940262896 -2.50666467128607 -18.595529717765 -7.36249105369354 -16.180339887499 -11.7557050458494 -12.7484797949738 -15.4102648555158 -8.51558583130146 -18.0965410493204 -3.74762629171449 -19.6457450145738 1.25581039058627 -19.9605345685654 6.18033988749896 -19.0211303259031 10.71653589958 -16.8865585100403 14.5793725484282 -13.6909421185738 17.5261336008773 -9.63507348203428 19.3716632225726 -4.97379774329706 0.078852986855221 0 26 14 15 16 26 15 18 26 17 17 26 16 26 18 19 12 26 11 26 12 13 10 26 9 26 10 11 8 9 26 26 7 8 13 14 26 19 20 26 26 21 22 26 22 23 24 25 26 26 23 24 1 26 25 26 5 6 7 26 6 26 3 4 26 4 5 2 3 26 2 26 1 21 26 20 
26 25 1 1
0 4.89858719658941e-15 20 0 -4.9737977432971 19.3716632225726 0 -9.63507348203431 17.5261336008773 0 -13.6909421185738 14.5793725484282 0 -16.8865585100403 10.7165358995799 0 -19.0211303259031 6.18033988749895 0 -19.9605345685654 1.25581039058627 0 -19.6457450145738 -3.74762629171449 0 -18.0965410493204 -8.51558583130145 0 -15.4102648555158 -12.7484797949738 0 -11.7557050458495 -16.1803398874989 0 -7.36249105369357 -18.595529717765 0 -2.5066646712861 -19.8422940262896 0 2.50666467128607 -19.8422940262896 0 7.36249105369354 -18.595529717765 0 11.7557050458494 -16.180339887499 0 15.4102648555158 -12.7484797949738 0 18.0965410493204 -8.51558583130146 0 19.6457450145738 -3.74762629171449 0 19.9605345685654 1.25581039058627 0 19.0211303259031 6.18033988749896 0 16.8865585100403 10.71653589958 0 13.6909421185738 14.5793725484282 0 9.63507348203428 17.5261336008773 0 4.97379774329706 19.3716632225726 0 0 0.078852986855221 20 -3.5527136788005e-15 19.3716632225726 4.97379774329709 17.5261336008773 9.6350734820343 14.5793725484282 13.6909421185738 10.7165358995799 16.8865585100403 6.18033988749895 19.0211303259031 1.25581039058627 19.9605345685654 -3.74762629171449 19.6457450145738 -8.51558583130145 18.0965410493204 -12.7484797949738 15.4102648555158 -16.1803398874989 11.7557050458495 -18.595529717765 7.36249105369357 -19.8422940262896 2.5066646712861 -19.8422940262896 -2.50666467128607 -18.595529717765 -7.36249105369354 -16.180339887499 -11.7557050458494 -12.7484797949738 -15.4102648555158 -8.51558583130146 -18.0965410493204 -3.74762629171449 -19.6457450145738 1.25581039058627 -19.9605345685654 6.18033988749896 -19.0211303259031 10.71653589958 -16.8865585100403 14.5793725484282 -13.6909421185738 17.5261336008773 -9.63507348203428 19.3716632225726 -4.97379774329706 0.078852986855221 0 26 14 15 16 26 15 18 26 17 17 26 16 26 18 19 12 26 11 26 12 13 10 26 9 26 10 11 8 9 26 26 7 8 13 14 26 19 20 26 26 21 22 26 22 23 24 25 26 26 23 24 1 26 25 26 5 6 7 26 6 26 3 4 26 4 5 2 3 26 2 26 1 21 26 20 

TShapes 13
Ve
1e-07
100 4.89858719658941e-15 20
0 0

0101101
*
Ed
 1e-07 1 1 0
1  1 0 0 6.28318530717959
2  1 1 0 0 6.28318530717959
2  2 2 0 0 6.28318530717959
6  1 1 0
6  2 2 0
0

0101100
+13 0 -13 0 *
Ve
1e-07
0 4.89858719658941e-15 20
0 0

0101101
*
Ed
 1e-07 1 1 0
1  2 0 0 100
3  3 4CN 1 0 0 100
7  3 4 1 0
0

0101000
-13 0 +11 0 *
Ed
 1e-07 1 1 0
1  3 0 0 6.28318530717959
2  5 1 0 0 6.28318530717959
2  6 3 0 0 6.28318530717959
6  5 1 0
6  6 3 0
0

0101100
+11 0 -11 0 *
Wi

0101000
-12 0 +10 0 +9 0 -10 0 *
Fa
0  1e-07 1 0
2  1
0111000
+8 0 *
Wi

0101000
+12 0 *
Fa
0  1e-07 2 0
2  2
0111000
+6 0 *
Wi

0101000
-9 0 *
Fa
0  1e-07 3 0
2  3
0111000
-4 0 *
Sh

0101100
+7 0 +5 0 -3 0 *
So

1100100
+2 0 *

+1 0 
0

