DBRep_DrawableShape

CASCADE Topology V1, (c) Matra-Datavision
Locations 0
Curve2ds 24
1 0 0 0 1 
8 -200 0
1 0 0 -1 0 
1 0 -200 1 0 
1 0 0 0 1 
1 1000 0 0 1 
8 -200 0
1 0 0 -1 0 
1 0 0 1 0 
1 0 0 1 0 
1 0 0 0 1 
8 0 20
1 0 0 0 -1 
1 1000 0 0 1 
1 0 0 0 1 
1 0 0 1 0 
1 0 20 1 0 
1 0 0 0 1 
1 0 -20 1 0 
1 1000 0 0 1 
1 0 20 1 0 
1 0 200 1 0 
1 20 0 0 1 
1 200 0 0 1 
1 0 1000 1 0 
1 0 0 1 0 
8 0 20
1 200 0 0 -1 
Curves 12
1 0 0 0 0 -1 0 
1 0 200 0 1 0 0 
1 1000 0 0 0 -1 0 
1 0 0 0 1 0 0 
1 0 0 0 0 0 1 
1 1000 0 0 0 0 1 
1 0 0 20 1 0 0 
1 0 0 20 0 1 0 
1 1000 0 20 0 1 0 
1 0 200 20 1 0 0 
1 1000 200 0 0 0 1 
1 0 200 0 0 0 1 
Polygon3D 0
PolygonOnTriangulations 0
Surfaces 6
1 0 0 0 0 0 -1 1 0 0 0 -1 0 
1 0 0 0 -1 0 0 0 1 0 0 0 -1 
1 0 200 0 0 1 0 0 0 1 1 0 0 
1 1000 0 0 1 0 0 0 1 0 0 0 1 
1 0 0 0 0 -1 0 1 0 0 0 0 1 
1 0 0 20 0 0 1 1 0 0 0 1 0 
Triangulations 0

TShapes 34
Ve
1e-007
0 200 0
0 0

0101101
*
Ve
1e-007
0 0 0
0 0

0101101
*
Ed
 1e-007 1 1 0
1  1 0 -200 0
2  1 1 0 -200 0
2  2 2 0 -200 0
0

0101000
+34 0 -33 0 *
Ve
1e-007
1000 200 0
0 0

0101101
*
Ed
 1e-007 1 1 0
1  2 0 0 1000
2  3 1 0 0 1000
2  4 3 0 0 1000
0

0101000
+34 0 -31 0 *
Ve
1e-007
1000 0 0
0 0

0101101
*
Ed
 1e-007 1 1 0
1  3 0 -200 0
2  5 1 0 -200 0
2  6 4 0 -200 0
0

0101000
+31 0 -29 0 *
Ed
 1e-007 1 1 0
1  4 0 0 1000
2  7 1 0 0 1000
2  8 5 0 0 1000
0

0101000
+33 0 -29 0 *
Wi

0101000
-32 0 +30 0 +28 0 -27 0 *
Fa
0  1e-007 1 0

0101000
+26 0 *
Ve
1e-007
0 0 20
0 0

0101101
*
Ed
 1e-007 1 1 0
1  5 0 0 20
2  9 5 0 0 20
2  10 2 0 0 20
0

0101000
+33 0 -24 0 *
Ve
1e-007
1000 0 20
0 0

0101101
*
Ed
 1e-007 1 1 0
1  6 0 0 20
2  11 5 0 0 20
2  12 4 0 0 20
0

0101000
+29 0 -22 0 *
Ed
 1e-007 1 1 0
1  7 0 0 1000
2  13 6 0 0 1000
2  14 5 0 0 1000
0

0101000
+24 0 -22 0 *
Wi

0101000
-23 0 +27 0 +21 0 -20 0 *
Fa
0  1e-007 5 0

0101000
+19 0 *
Ve
1e-007
0 200 20
0 0

0101101
*
Ed
 1e-007 1 1 0
1  8 0 0 200
2  15 6 0 0 200
2  16 2 0 0 200
0

0101000
+24 0 -17 0 *
Ve
1e-007
1000 200 20
0 0

0101101
*
Ed
 1e-007 1 1 0
1  9 0 0 200
2  17 6 0 0 200
2  18 4 0 0 200
0

0101000
+22 0 -15 0 *
Ed
 1e-007 1 1 0
1  10 0 0 1000
2  19 6 0 0 1000
2  20 3 0 0 1000
0

0101000
+17 0 -15 0 *
Wi

0101000
-16 0 +20 0 +14 0 -13 0 *
Fa
0  1e-007 6 0

0101000
+12 0 *
Ed
 1e-007 1 1 0
1  11 0 0 20
2  21 4 0 0 20
2  22 3 0 0 20
0

0101000
+31 0 -15 0 *
Wi

0101000
-21 0 -28 0 +10 0 -14 0 *
Fa
0  1e-007 4 0

0101000
+9 0 *
Ed
 1e-007 1 1 0
1  12 0 0 20
2  23 3 0 0 20
2  24 2 0 0 20
0

0101000
+34 0 -17 0 *
Wi

0101000
-30 0 +7 0 +13 0 -10 0 *
Fa
0  1e-007 3 0

0101000
+6 0 *
Wi

0101000
+23 0 +16 0 -7 0 +32 0 *
Fa
0  1e-007 2 0

0101000
+4 0 *
Sh

0101100
+25 0 +18 0 +11 0 +8 0 +5 0 +3 0 *
So

1100000
+2 0 *

+1 0 
0

