DBRep_DrawableShape

CASCADE Topology V1, (c) Matra-Datavision
Locations 0
Curve2ds 40
1 1 0 0 1 
1 0 0 0 1 
1 1 1 -1 0 
7 0 0  1 2 2  1 0  0.60782825946810004 0 
 0 2 1 2
1 0 1 0 -1 
1 0 0 1 0 
7 0 0  1 2 2  0.4115689992905 0  0.067507624626160001 0 
 0 2 1 2
1 1 0 0 1 
1 1 1 -1 0 
1 1 0 -1 0 
1 0 0 1 0 
7 0 0  1 2 2  0.067507624626160001 0  0 0 
 0 2 1 2
1 1 0 0 1 
1 0 0 0 1 
1 1 1 -1 0 
1 0 1 0 -1 
1 0 1 1 0 
7 0 0  1 3 3  0 0  0.36928963661190001 0  0.392618894577 0 
 0 2 0.5 1 1 2
1 0.392618894577 0 1 0 
7 0 0  1 2 2  0.59001272916790004 0  0.4115689992905 0 
 0 2 0.21520936489110004 2
1 1 0 0 1 
1 1 1 -1 0 
1 0 1 0 -1 
7 0 0  1 3 3  0.59001272916790004 0  0.60858213901519997 0  0.93263071775439998 0 
 0 2 0.5 1 1 2
1 0.93263071775439998 0 1 0 
7 0 0  1 2 2  0 0  0 1 
 0 2 0.067369282245600015 2
1 1 0 0 1 
1 1 1 -1 0 
1 1 0 0 1 
1 1 1 0 -1 
1 0 1 0 -1 
1 0 0 1 0 
1 1 1 -1 0 
1 0 1 0 -1 
1 0 0 1 0 
1 0 0 1 0 
1 1 0 -1 0 
1 1 0 0 1 
1 1 1 -1 0 
1 0.94469505548480004 1 -1 0 
Curves 27
7 0 0  1 2 2  1769.9300537110003 495.5 76  1769.7700195309999 495.5 74.760002136229986 
 0 2 1 2
7 0 0  7 8 2  1769.7700195309999 495.5 74.760002136229986  1772.6400146480032 495.50000000000085 74.709999084470141  1775.2099609379779 495.49999999999449 74.370002746579104  1777.5400390620448 495.50000000001103 73.779998779301692  1779.6700439449544 495.49999999998886 72.999999999998366  1781.6300048830265 495.50000000000671 72.050003051760882  1783.4499511719928 495.4999999999979 70.949996948239786  1785.1199951169999 495.5 69.709999084469985 
 0 8 1 8
7 0 0  7 8 2  1785.1199951169997 495.5 69.709999084469985  1783.4000244140052 495.50000000000085 71.050003051759845  1781.5500488279761 495.49999999999449 72.250000000000156  1779.5699462890445 495.50000000001103 73.330001831050012  1777.4300537109566 495.49999999998886 74.27999877930003  1775.1300048830249 495.50000000000671 75.059997558589899  1772.6400146479928 495.4999999999979 75.660003662110057  1769.930053711 495.5 76 
 0 8 1 8
7 0 0  1 2 2  1765.9999999999998 495.5 76.25  1765.9999999999998 495.5 74.760002136229986 
 0 2 1 2
7 0 0  7 8 2  1765.9999999999998 495.5 74.76000213623  1766.5400390620014 495.50000000000085 74.760002136229929  1767.0699462889834 495.49999999999449 74.760002136229701  1767.6099853520345 495.50000000001103 74.760002136230895  1768.1500244139636 495.49999999998886 74.760002136229005  1768.6800537110214 495.50000000000671 74.760002136230554  1769.2199707029929 495.4999999999979 74.760002136229815  1769.7600097659997 495.5 74.76000213623 
 0 8 1 8
7 0 0  7 8 2  1769.9300537109998 495.5 76  1769.3900146480025 495.50000000000085 76.069999694820083  1768.8499755859789 495.49999999999449 76.12999725341929  1768.3000488280391 495.50000000001103 76.180000305181309  1767.7399902339607 495.49999999998886 76.209999084468805  1767.1700439450237 495.50000000000671 76.239997863770554  1766.5899658199914 495.4999999999979 76.249999999999886  1765.9999999999998 495.5 76.25 
 0 8 1 8
7 0 0  7 8 2  1769.7700195310001 495.5 74.76000213623  1769.7700195310033 495.50000000000074 74.529998779300229  1769.7600097659806 495.44000244139477 74.309997558588861  1769.7600097660425 495.32000732421005 74.099998474122273  1769.7600097659554 495.14999389649051 73.930000305177714  1769.7600097660275 494.95001220700527 73.80999755859132  1769.760009765992 494.72000122069841 73.760002136229673  1769.7597656290002 494.5 73.760002136230014 
 0 8 1 8
7 0 0  7 8 2  1769.759765629 494.5 73.76000213623  1776.8299560550045 494.50000000000102 73.650001525880015  1781.9599609379788 494.49999999999397 71.650001525879475  1786.1800537110389 494.50000000001086 68.779998779301323  1789.7900390619668 494.49999999999062 65.160003662108593  1792.6600341800165 494.50000000000472 60.939998626710953  1794.6500244139961 494.49999999999881 55.81000137328973  1794.7600097659999 494.5 48.759998321529999 
 0 8 1 8
7 0 0  7 8 2  1794.7600097659999 494.5 48.759998321530013  1794.7600097660052 494.72000122070079 48.759998321530084  1794.8199462889763 494.95001220699521 48.759998321529423  1794.930053711045 495.14999389650939 48.759998321531164  1795.0999755859571 495.32000732419129 48.759998321528862  1795.3100585940253 495.44000244140437 48.759998321530617  1795.5300292969937 495.49999999999886 48.770000457759842  1795.7600097659999 495.5 48.770000457760005 
 0 8 1 8
7 0 0  6 13 3  1795.7600097659999 495.5 48.770000457760013  1795.712623906885 495.50000000000034 51.910809211589331  1795.292916454463 495.49999999999829 54.686956959951523  1794.5864252479623 495.50000000000171 57.181248007056269  1793.6511939736038 495.49999999999898 59.446295539693544  1792.5233683298152 495.50000000000034 61.517250842473842  1791.2207672299844 495.5 63.412364322255051  1791.1384775741958 495.5 63.532084961178377  1791.0554906866637 495.49999999999977 63.651104127448541  1790.9718106140192 495.50000000000068 63.769426034475345  1790.8874414028701 495.49999999999937 63.887054895669252  1790.8023870998613 495.50000000000028 64.003994924440477  1790.7166517515959 495.5 64.120250334199056 
 0 7 0.5 6 1 7
7 0 0  4 5 2  1790.7166517515959 495.5 64.120250334199056  1789.5303056271659 495.49999999999983 65.728911844354784  1788.1990566337404 495.50000000000034 67.19182982521825  1786.7367614599127 495.49999999999966 68.524171345919484  1785.1278785902646 495.5 69.711873207417455 
 0 5 0.21520936489110004 5
7 0 0  7 8 2  1797.25 495.5 44.999999999999972  1797.4699707030045 495.50000000000028 45.000000000000121  1797.6999511719762 495.55999755859676 44.999999999999353  1797.9000244140461 495.67999267580694 45.000000000001137  1798.0699462889545 495.85000610349385 44.999999999998856  1798.1899414060274 496.04998779300314 45.000000000000639  1798.249999999993 496.27999877929949 44.99999999999978  1798.2500000000005 496.5 44.999999999999972 
 0 8 1 8
7 0 0  7 8 2  1798.2500000000005 496.5 44.999999999999986  1798.2399902340073 496.50000000000119 54.040000915530015  1795.3399658199671 496.49999999999397 60.799999237059467  1791.9000244140614 496.50000000001137 66.239997863770824  1787.2299804689419 496.49999999998948 70.919998168949348  1781.7800292970339 496.50000000000546 74.349998474120312  1775.0200195309912 496.49999999999864 77.23999786376983  1766.0000000000005 496.5 77.249999999999986 
 0 8 1 8
7 0 0  7 8 2  1766.0000000000005 496.5 77.249999999999972  1766.0000000000055 496.27999877930199 77.250000000000298  1765.9999999999764 496.04998779299251 77.190002441408467  1766.0000000000482 495.85000610351312 77.069999694822698  1765.9999999999495 495.67999267578836 76.900001525877514  1766.0000000000298 495.55999755860631 76.699996948241306  1765.9999999999923 495.49999999999847 76.470001220699601  1766 495.5 76.249999999999972 
 0 8 1 8
7 0 0  6 13 3  1790.7162930212955 495.5 64.122198456406835  1790.8004292336163 495.50000000000034 64.013435222580071  1790.8840563564024 495.49999999999829 63.904143069246643  1790.9671731416115 495.50000000000171 63.794319842874401  1791.0497783411095 495.49999999999898 63.683963389928522  1791.1318707068681 495.50000000000034 63.573071556877274  1791.2134489907794 495.5 63.461642190186588  1792.6370444187162 495.5 61.517125471408796  1793.9040286563422 495.49999999999977 59.40890537827979  1795.0068958336062 495.50000000000068 57.124549592563305  1795.9253591363045 495.49999999999937 54.642451901548966  1796.6214285311969 495.50000000000028 51.927125647094776  1797.0007947046618 495.5 48.930101998230072 
 0 7 0.5 6 1 7
7 0 0  4 5 2  1797.000794704662 495.5 48.930101998230064  1797.1190993130972 495.5 47.995485962189981  1797.2031715507483 495.49999999999994 47.030434524120473  1797.2488198861863 495.50000000000011 46.032770898939717  1797.25 495.5 44.999999999999964 
 0 5 0.067369282245600015 5
7 0 0  7 8 2  1766.0000000000002 495.5 74.760002136230028  1766.0000000000077 495.50000000000074 74.529998779300087  1765.9999999999666 495.44000244139477 74.309997558589345  1766.0000000000614 495.32000732421005 74.099998474121463  1765.9999999999379 495.14999389649051 73.930000305178623  1766.0000000000371 494.95001220700527 73.809997558590766  1765.9999999999889 494.72000122069841 73.760002136229843  1766.0000000000002 494.5 73.760002136230028 
 0 8 1 8
7 0 0  7 8 2  1766.0000000000002 494.5 73.760002136230028  1766.5400390620064 494.50000000000102 73.760002136230014  1767.069946288972 494.49999999999397 73.760002136229673  1767.6099853520518 494.50000000001086 73.760002136230824  1768.1500244139486 494.49999999999062 73.760002136229303  1768.6800537110305 494.50000000000472 73.76000213623044  1769.2199707029918 494.49999999999881 73.760002136229886  1769.7600097660002 494.5 73.760002136230028 
 0 8 1 8
7 0 0  5 6 2  1795.7600097659997 495.49999999999989 45  1795.7600097659945 495.49999999999852 45.749999999999879  1795.760009766007 495.50000000000171 46.500000000000135  1795.760009765994 495.49999999999858 47.249999999999936  1795.7600097660011 495.50000000000028 48.000000000000014  1795.7600097659997 495.49999999999989 48.770000457759998 
 0 6 1 6
7 0 0  5 6 2  1794.7600097659997 494.49999999999989 48.759998321530006  1794.7600097659945 494.49999999999841 47.999999999999865  1794.7600097660072 494.50000000000193 47.250000000000206  1794.7600097659949 494.49999999999829 46.499999999999822  1794.7600097660008 494.5000000000004 45.750000000000078  1794.7600097659997 494.49999999999989 45.000000000000007 
 0 6 1 6
7 0 0  7 8 2  1794.7600097659995 494.49999999999989 45  1794.7600097660036 494.72000122069977 45.000000000000092  1794.8199462889784 494.95001220699737 44.999999999999467  1794.9300537110389 495.1499938965058 45.000000000001002  1795.0999755859632 495.32000732419419 44.999999999999069  1795.310058594021 495.44000244140301 45.000000000000504  1795.5300292969941 495.49999999999909 44.999999999999865  1795.7600097659995 495.49999999999989 45 
 0 8 1 8
7 0 0  1 2 2  1795.7600097660002 495.5 45  1797.25 495.5 45 
 0 2 1 2
7 0 0  1 2 2  1797 495.5 48.930000305180002  1795.7600097660002 495.5 48.770000457759991 
 0 2 1 2
7 0 0  7 8 2  1795.7600097660004 495.5 48.770000457759991  1795.7128852202306 495.50000000000102 51.462895277843899  1795.4087328135706 495.49999999999432 53.898687834969564  1794.8892292313712 495.5000000000112 56.119115315934081  1794.1881836544394 495.49999999998897 58.158059396698938  1793.3317184363002 495.50000000000654 60.041534950060296  1792.3378543594033 495.49999999999801 61.794669690654935  1791.2170221852232 495.49999999999994 63.422832502613957 
 0 8 0.94157141447070003 8
7 0 0  3 4 2  1790.7199707030002 495.5 64.120002746579999  1790.8890227458357 495.49999999999966 63.890962129629379  1791.0547330365268 495.50000000000011 63.658579800717533  1791.217022185223 495.5 63.42283250261395 
 0 4 0.05842858552929997 4
7 0 0  3 4 2  1790.7199707030004 495.5 64.120002746579999  1790.891610462442 495.49999999999966 63.898045411733911  1791.0606785282062 495.50000000000011 63.67330387826982  1791.2271160415492 495.5 63.445724273551377 
 0 4 0.055304944515199961 4
7 0 0  7 8 2  1791.2271160415489 495.5 63.445724273551384  1792.4455503369227 495.50000000000102 61.779688836307074  1793.5543314118038 495.49999999999432 59.995383158385664  1794.5449754285444 495.5000000000112 58.085669604736282  1795.407782045985 495.49999999998897 56.046647795298163  1796.1256265515485 495.50000000000654 53.853909366598586  1796.6788359708059 495.49999999999801 51.490123040646857  1797 495.49999999999994 48.930000305180002 
 0 8 0.94469505548480004 8
Polygon3D 0
PolygonOnTriangulations 0
Surfaces 8
8 0 0 7 1 1785.1199951169999 495.5 69.709999084469999  1785.1199951169999 495.5 69.709999084469999  
1783.400024414 495.5 71.050003051760001  1783.4499511720001 495.5 70.949996948239999  
1781.5500488279999 495.5 72.25  1781.6300048830001 495.5 72.050003051760001  
1779.569946289 495.5 73.330001831049998  1779.6700439450001 495.5 73  
1777.430053711 495.5 74.279998779300001  1777.540039062 495.5 73.779998779300001  
1775.1300048830001 495.5 75.059997558589998  1775.209960938 495.5 74.370002746579999  
1772.640014648 495.5 75.66000366211  1772.640014648 495.5 74.709999084469999  
1769.930053711 495.5 76  1769.7700195309999 495.5 74.76000213623  

8 0 0 7 1 1769.930053711 495.5 76  1769.7600097659999 495.5 74.76000213623  
1769.390014648 495.5 76.069999694819998  1769.2199707029999 495.5 74.76000213623  
1768.849975586 495.5 76.129997253420001  1768.680053711 495.5 74.76000213623  
1768.3000488279999 495.5 76.180000305180002  1768.150024414 495.5 74.76000213623  
1767.7399902340001 495.5 76.209999084469999  1767.609985352 495.5 74.76000213623  
1767.1700439450001 495.5 76.23999786377  1767.069946289 495.5 74.76000213623  
1766.5899658200001 495.5 76.25  1766.540039062 495.5 74.76000213623  
1766 495.5 76.25  1766 495.5 74.76000213623  

8 0 0 7 7 1795.7600097659999 495.5 48.770000457759998  1795.5300292970001 495.5 48.770000457759998  1795.3100585940001 495.4400024414 48.759998321529999  1795.099975586 495.32000732419999 48.759998321529999  1794.930053711 495.14999389650001 48.759998321529999  1794.819946289 494.95001220699999 48.759998321529999  1794.7600097659999 494.7200012207 48.759998321529999  1794.7600097659999 494.5 48.759998321529999  
1795.650024414 495.5 56.06000137329  1795.430053711 495.5 56  1795.1999511720001 495.4400024414 55.95000076294  1795 495.32000732419999 55.90000152588  1794.8299560549999 495.14999389650001 55.84999847412  1794.709960938 494.95001220699999 55.819999694819998  1794.650024414 494.7200012207 55.81000137329  1794.650024414 494.5 55.81000137329  
1793.5899658200001 495.5 61.43999862671  1793.3800048830001 495.5 61.330001831049998  1793.1700439450001 495.4400024414 61.220001220699999  1792.9799804690001 495.32000732419999 61.110000610349999  1792.819946289 495.14999389650001 61.029998779300001  1792.7199707029999 494.95001220699999 60.970001220699999  1792.6600341799999 494.7200012207 60.93999862671  1792.6600341799999 494.5 60.93999862671  
1790.5500488279999 495.5 65.84999847412  1790.3800048830001 495.5 65.699996948239999  1790.209960938 495.4400024414 65.540000915530001  1790.0600585940001 495.32000732419999 65.40000152588  1789.930053711 495.14999389650001 65.279998779300001  1789.8399658200001 494.95001220699999 65.199996948239999  1789.790039062 494.7200012207 65.16000366211  1789.790039062 494.5 65.16000366211  
1786.8699951169999 495.5 69.529998779300001  1786.7199707029999 495.5 69.360000610349999  1786.5600585940001 495.4400024414 69.190002441410002  1786.4200439450001 495.32000732419999 69.040000915530001  1786.3000488279999 495.14999389650001 68.91000366211  1786.2299804690001 494.95001220699999 68.819999694819998  1786.180053711 494.7200012207 68.779998779300001  1786.180053711 494.5 68.779998779300001  
1782.4699707029999 495.5 72.580001831049998  1782.349975586 495.5 72.370002746579999  1782.2399902340001 495.4400024414 72.16000366211  1782.1300048830001 495.32000732419999 71.970001220699999  1782.0500488279999 495.14999389650001 71.809997558589998  1781.9899902340001 494.95001220699999 71.699996948239999  1781.959960938 494.7200012207 71.65000152588  1781.959960938 494.5 71.65000152588  
1777.0799560549999 495.5 74.65000152588  1777.0200195309999 495.5 74.419998168950002  1776.9699707029999 495.4400024414 74.199996948239999  1776.9200439450001 495.32000732419999 74  1776.8699951169999 495.14999389650001 73.830001831049998  1776.849975586 494.95001220699999 73.709999084469999  1776.8299560549999 494.7200012207 73.65000152588  1776.8299560549999 494.5 73.65000152588  
1769.7700195309999 495.5 74.76000213623  1769.7700195309999 495.5 74.529998779300001  1769.7600097659999 495.4400024414 74.309997558589998  1769.7600097659999 495.32000732419999 74.09999847412  1769.7600097659999 495.14999389650001 73.930000305180002  1769.7600097659999 494.95001220699999 73.809997558589998  1769.7600097659999 494.7200012207 73.76000213623  1769.759765629 494.5 73.76000213623  

8 0 0 7 7 1766 495.5 76.25  1766 495.5 76.470001220699999  1766 495.5599975586 76.699996948239999  1766 495.67999267580001 76.90000152588  1766 495.85000610349999 77.069999694819998  1766 496.04998779300001 77.190002441410002  1766 496.2799987793 77.25  1766 496.5 77.25  
1774.7399902340001 495.5 76.23999786377  1774.8000488279999 495.5 76.470001220699999  1774.8699951169999 495.5599975586 76.690002441410002  1774.9200439450001 495.67999267580001 76.90000152588  1774.9699707029999 495.85000610349999 77.069999694819998  1775 496.04998779300001 77.180000305180002  1775.0200195309999 496.2799987793 77.23999786377  1775.0200195309999 496.5 77.23999786377  
1781.290039062 495.5 73.440002441410002  1781.400024414 495.5 73.639999389650001  1781.5100097659999 495.5599975586 73.84999847412  1781.609985352 495.67999267580001 74.029998779300001  1781.6899414059999 495.8399963379 74.190002441410002  1781.75 496.04998779300001 74.290000915530001  1781.7800292970001 496.2799987793 74.34999847412  1781.7800292970001 496.5 74.34999847412  
1786.569946289 495.5 70.110000610349999  1786.7199707029999 495.5 70.290000915530001  1786.859985352 495.5599975586 70.470001220699999  1787 495.67999267580001 70.639999389650001  1787.109985352 495.85000610349999 70.769996643070002  1787.1899414059999 496.04998779300001 70.870002746579999  1787.2199707029999 496.2799987793 70.919998168950002  1787.2299804690001 496.5 70.919998168950002  
1791.099975586 495.5 65.580001831049998  1791.2800292970001 495.5 65.730003356929998  1791.459960938 495.5599975586 65.879997253420001  1791.6300048830001 495.67999267580001 66.019996643070002  1791.7600097659999 495.85000610349999 66.129997253420001  1791.859985352 496.04998779300001 66.199996948239999  1791.900024414 496.2799987793 66.23999786377  1791.900024414 496.5 66.23999786377  
1794.430053711 495.5 60.31000137329  1794.6300048830001 495.5 60.419998168950002  1794.8299560549999 495.5599975586 60.529998779300001  1795.0200195309999 495.67999267580001 60.630001068120002  1795.1700439450001 495.8399963379 60.709999084469999  1795.2800292970001 496.04998779300001 60.770000457759998  1795.3399658200001 496.2799987793 60.79999923706  1795.3399658200001 496.5 60.79999923706  
1797.2399902340001 495.5 53.759998321529999  1797.4699707029999 495.5 53.819999694819998  1797.6899414059999 495.5599975586 53.880001068120002  1797.900024414 495.67999267580001 53.93999862671  1798.069946289 495.85000610349999 53.990001678470001  1798.180053711 496.04998779300001 54.020000457759998  1798.2399902340001 496.2799987793 54.040000915530001  1798.2399902340001 496.5 54.040000915530001  
1797.25 495.5 45  1797.4699707029999 495.5 45  1797.6999511720001 495.5599975586 45  1797.900024414 495.67999267580001 45  1798.069946289 495.85000610349999 45  1798.1899414059999 496.04998779300001 45  1798.25 496.2799987793 45  1798.25 496.5 45  

8 0 0 7 7 1769.7600097659999 495.5 74.76000213623  1769.7600097659999 495.5 74.529998779300001  1769.7600097659999 495.4400024414 74.309997558589998  1769.7600097659999 495.32000732419999 74.09999847412  1769.7600097659999 495.14999389650001 73.930000305180002  1769.7600097659999 494.95001220699999 73.809997558589998  1769.7600097659999 494.7200012207 73.76000213623  1769.7600097659999 494.5 73.76000213623  
1769.2199707029999 495.5 74.76000213623  1769.2199707029999 495.5 74.529998779300001  1769.2199707029999 495.4400024414 74.309997558589998  1769.2199707029999 495.32000732419999 74.09999847412  1769.2199707029999 495.14999389650001 73.930000305180002  1769.2199707029999 494.95001220699999 73.809997558589998  1769.2199707029999 494.7200012207 73.76000213623  1769.2199707029999 494.5 73.76000213623  
1768.680053711 495.5 74.76000213623  1768.680053711 495.5 74.529998779300001  1768.680053711 495.4400024414 74.309997558589998  1768.680053711 495.32000732419999 74.09999847412  1768.680053711 495.14999389650001 73.930000305180002  1768.680053711 494.95001220699999 73.809997558589998  1768.680053711 494.7200012207 73.76000213623  1768.680053711 494.5 73.76000213623  
1768.150024414 495.5 74.76000213623  1768.150024414 495.5 74.529998779300001  1768.150024414 495.4400024414 74.309997558589998  1768.150024414 495.32000732419999 74.09999847412  1768.150024414 495.14999389650001 73.930000305180002  1768.150024414 494.95001220699999 73.809997558589998  1768.150024414 494.7200012207 73.76000213623  1768.150024414 494.5 73.76000213623  
1767.609985352 495.5 74.76000213623  1767.609985352 495.5 74.529998779300001  1767.609985352 495.4400024414 74.309997558589998  1767.609985352 495.32000732419999 74.09999847412  1767.609985352 495.14999389650001 73.930000305180002  1767.609985352 494.95001220699999 73.809997558589998  1767.6093750089999 494.7200012207 73.76000213623  1767.609985352 494.5 73.76000213623  
1767.069946289 495.5 74.76000213623  1767.069946289 495.5 74.529998779300001  1767.069946289 495.4400024414 74.309997558589998  1767.069946289 495.32000732419999 74.09999847412  1767.069946289 495.14999389650001 73.930000305180002  1767.069946289 494.95001220699999 73.809997558589998  1767.069946289 494.7200012207 73.76000213623  1767.069946289 494.5 73.76000213623  
1766.540039062 495.5 74.76000213623  1766.540039062 495.5 74.529998779300001  1766.540039062 495.4400024414 74.309997558589998  1766.540039062 495.32000732419999 74.09999847412  1766.540039062 495.14999389650001 73.930000305180002  1766.540039062 494.95001220699999 73.809997558589998  1766.540039062 494.7200012207 73.76000213623  1766.540039062 494.5 73.76000213623  
1766 495.5 74.76000213623  1766 495.5 74.529998779300001  1766 495.4400024414 74.309997558589998  1766 495.32000732419999 74.09999847412  1766 495.14999389650001 73.930000305180002  1766 494.95001220699999 73.809997558589998  1766 494.7200012207 73.76000213623  1766 494.5 73.76000213623  

8 0 0 7 5 1794.7600097659999 494.5 45  1794.7600097659999 494.5 45.75  1794.7600097659999 494.5 46.5  1794.7600097659999 494.5 47.25  1794.7600097659999 494.5 48  1794.7600097659999 494.5 48.759998321529999  
1794.7600097659999 494.7200012207 45  1794.7600097659999 494.7200012207 45.75  1794.7600097659999 494.7200012207 46.5  1794.7600097659999 494.7200012207 47.25  1794.7600097659999 494.7200012207 48  1794.7600097659999 494.7200012207 48.759998321529999  
1794.819946289 494.95001220699999 45  1794.819946289 494.95001220699999 45.75  1794.819946289 494.95001220699999 46.5  1794.819946289 494.95001220699999 47.25  1794.819946289 494.95001220699999 48  1794.819946289 494.95001220699999 48.759998321529999  
1794.930053711 495.14999389650001 45  1794.930053711 495.14999389650001 45.75  1794.930053711 495.14999389650001 46.5  1794.930053711 495.14999389650001 47.25  1794.930053711 495.14999389650001 48  1794.930053711 495.14999389650001 48.759998321529999  
1795.099975586 495.32000732419999 45  1795.099975586 495.32000732419999 45.75  1795.099975586 495.32000732419999 46.5  1795.099975586 495.32000732419999 47.25  1795.099975586 495.32000732419999 48  1795.099975586 495.32000732419999 48.759998321529999  
1795.3100585940001 495.4400024414 45  1795.3100585940001 495.4400024414 45.75  1795.3100585940001 495.4400024414 46.5  1795.3100585940001 495.4400024414 47.25  1795.3100585940001 495.4400024414 48  1795.3100585940001 495.4400024414 48.759998321529999  
1795.5300292970001 495.5 45  1795.5300292970001 495.5 45.75  1795.5300292970001 495.5 46.5  1795.5300292970001 495.5 47.25  1795.5300292970001 495.5 48  1795.5300292970001 495.5 48.770000457759998  
1795.7600097659999 495.5 45  1795.7600097659999 495.5 45.75  1795.7600097659999 495.5 46.5  1795.7600097659999 495.5 47.25  1795.7600097659999 495.5 48  1795.7600097659999 495.5 48.770000457759998  

8 0 0 1 7 1797 495.5 48.930000305180002  1797.069946289 495.5 48.389999389650001  1797.1300048830001 495.5 47.84999847412  1797.1700439450001 495.5 47.29999923706  1797.209960938 495.5 46.740001678470001  1797.2399902340001 495.5 46.169998168950002  1797.25 495.5 45.590000152590001  1797.25 495.5 45  
1795.7600097659999 495.5 48.770000457759998  1795.7600097659999 495.5 48.220001220699999  1795.7600097659999 495.5 47.680000305180002  1795.7600097659999 495.5 47.15000152588  1795.7600097659999 495.5 46.610000610349999  1795.7600097659999 495.5 46.069999694819998  1795.7600097659999 495.5 45.540000915530001  1795.7600097659999 495.5 45  

8 0 0 7 1 1795.7600097659999 495.5 48.770000457759998  1797 495.5 48.930000305180002  
1795.709960938 495.5 51.630001068120002  1796.6600341799999 495.5 51.639999389650001  
1795.3699951169999 495.5 54.20000076294  1796.0600585940001 495.5 54.130001068120002  
1794.790039062 495.5 56.529998779300001  1795.2800292970001 495.5 56.430000305180002  
1794.0100097659999 495.5 58.659999847409999  1794.3399658200001 495.5 58.56000137329  
1793.0600585940001 495.5 60.619998931879998  1793.2600097659999 495.5 60.54999923706  
1791.959960938 495.5 62.43999862671  1792.0500488279999 495.5 62.40000152588  
1790.7199707029999 495.5 64.120002746579999  1790.7199707029999 495.5 64.120002746579999  

Triangulations 0

TShapes 65
Ve
0.00500538298833858
1769.7650146485 495.5 74.76000213623
0 0

0101100
*
Ve
0.000294228807394011
1769.9300902952 495.5 76.0002919158715
0 0

0101100
*
Ed
 1e-07 0 0 0
2  1 1 0 0 1
2  2 2 0 0 1
1  1 0 0 1
4 G1 1 0 2 0
0

0101000
-65 0 +64 0 *
Ve
0.0265621016646904
1785.14223633113 495.5 69.6973565772639
0 0

0101100
*
Ed
 1e-07 0 1 0
2  3 1 0 0 1
2  4 3 0 0 1
1  2 0 0 1
4 G1 1 0 3 0
0

0101000
-62 0 +65 0 *
Ed
 1e-07 1 1 1
2  5 1 0 0 1
0

0101100
+62 0 -62 0 *
Ed
 1e-07 0 1 0
2  6 1 0 0 1
2  7 4 0 0 1
1  3 0 0 1
4 G1 1 0 4 0
0

0101000
-64 0 +62 0 *
Wi

0101100
+63 0 +61 0 +60 0 +59 0 *
Fa
1  1e-07 1 0

0111000
+58 0 *
Ve
1e-07
1766 495.5 74.76000213623
0 0

0101100
*
Ve
1e-07
1766 495.5 76.25
0 0

0101100
*
Ed
 1e-07 1 0 0
2  8 2 0 0 1
1  4 0 0 1
0

0101000
-56 0 +55 0 *
Ed
 1e-07 0 0 0
2  9 2 0 0 1
2  10 5 0 0 1
1  5 0 0 1
4 G1 2 0 5 0
0

0101000
-65 0 +56 0 *
Ed
 1e-07 0 1 0
2  11 2 0 0 1
2  12 4 0 0 1
1  6 0 0 1
4 G1 2 0 4 0
0

0101000
-55 0 +64 0 *
Wi

0101100
+54 0 +53 0 -63 0 +52 0 *
Fa
1  1e-07 2 0

0111000
+51 0 *
Ve
0.000122080706954443
1769.7598876975 494.5 73.76000213623
0 0

0101100
*
Ed
 1e-07 0 0 0
2  13 3 0 0 1
2  14 5 0 0 1
1  7 0 0 1
0

0101000
-49 0 +65 0 *
Ve
1e-07
1794.760009766 494.5 48.75999832153
0 0

0101100
*
Ed
 1e-07 1 0 0
2  15 3 0 0 1
1  8 0 0 1
0

0101000
-47 0 +49 0 *
Ve
4.33421126197865e-07
1795.760009766 495.5 48.77000045776
0 0

0101100
*
Ed
 1e-07 0 0 0
2  16 3 0 0 1
2  17 6 0 0 1
1  9 0 0 1
0

0101000
+47 0 -45 0 *
Ve
0.000990536770847052
1790.71647238645 495.5 64.1212243953029
0 0

0101100
*
Ed
 4.33421126197865e-07 1 0 0
2  18 3 0 0 1
1  10 0 0 1
0

0101000
-43 0 +45 0 *
Ed
 7.26025917434149e-06 0 1 0
2  19 3 0 0 0.2152093648911
2  20 4 0 0 0.2152093648911
1  11 0 0 0.2152093648911
4 G1 3 0 4 0
0

0101000
+43 0 -62 0 *
Wi

0101100
+48 0 +46 0 +44 0 +42 0 +41 0 -61 0 *
Fa
1  1e-07 3 0

0111000
+40 0 *
Ve
1e-07
1798.25 496.5 45
0 0

0101100
*
Ve
9.73900150327398e-07
1797.25 495.5 45
0 0

0101100
*
Ed
 1e-07 1 0 0
2  21 4 0 0 1
1  12 0 0 1
0

0101000
-38 0 +37 0 *
Ve
1e-07
1766 496.5 77.25
0 0

0101100
*
Ed
 1e-07 1 0 0
2  22 4 0 0 1
1  13 0 0 1
0

0101000
-35 0 +38 0 *
Ed
 1e-07 1 0 0
2  23 4 0 0 1
1  14 0 0 1
0

0101000
+35 0 -55 0 *
Ve
0.000400632425680618
1797.00039735233 495.5 48.930051151705
0 0

0101100
*
Ed
 1.7745566898315e-06 1 0 0
2  24 4 0 0 1
1  15 0 0 1
0

0101000
-32 0 +43 0 *
Ed
 9.73900150327398e-07 0 1 0
2  25 4 0 0 0.0673692822456
2  26 7 0 0 0.0673692822456
1  16 0 0 0.0673692822456
4 G1 4 0 7 0
0

0101000
-37 0 +32 0 *
Wi

0101100
+36 0 +34 0 +33 0 -52 0 -59 0 -41 0 +31 0 +30 0 *
Fa
1  1e-07 4 0

0111000
+29 0 *
Ve
1e-07
1766 494.5 73.76000213623
0 0

0101100
*
Ed
 1e-07 1 0 0
2  27 5 0 0 1
1  17 0 0 1
0

0101000
-27 0 +56 0 *
Ed
 1e-07 1 0 0
2  28 5 0 0 1
1  18 0 0 1
0

0101000
+27 0 -49 0 *
Wi

0101100
+26 0 +25 0 -48 0 -53 0 *
Fa
1  1e-07 5 0

0111000
+24 0 *
Ve
1e-07
1795.760009766 495.5 45
0 0

0101100
*
Ed
 1e-07 0 0 0
2  29 6 0 0 1
2  30 7 0 0 1
1  19 0 0 1
4 G1 6 0 7 0
0

0101000
-45 0 +22 0 *
Ve
1e-07
1794.760009766 494.5 45
0 0

0101100
*
Ed
 1e-07 1 0 0
2  31 6 0 0 1
1  20 0 0 1
0

0101000
-20 0 +47 0 *
Ed
 1e-07 1 0 0
2  32 6 0 0 1
1  21 0 0 1
0

0101000
-22 0 +20 0 *
Wi

0101100
+21 0 -44 0 +19 0 +18 0 *
Fa
1  1e-07 6 0

0111000
+17 0 *
Ed
 1e-07 1 0 0
2  33 7 0 0 1
1  22 0 0 1
0

0101000
+22 0 -37 0 *
Ed
 1e-07 0 0 0
2  34 8 0 0 1
2  35 7 0 0 1
1  23 0 0 1
4 G1 7 0 8 0
0

0101000
-45 0 +32 0 *
Wi

0101100
-21 0 +15 0 -30 0 +14 0 *
Fa
1  1e-07 7 0

0111000
+13 0 *
Ve
7.45541541395096e-07
1791.21702218522 495.5 63.422832502614
0 0

0101100
*
Ed
 1e-07 1 0 0
2  36 8 0 0 0.9415714144707
1  24 0 0 0.9415714144707
0

0101000
-11 0 +45 0 *
Ve
7.45541541395096e-07
1790.719970703 495.5 64.12000274658
0 0

0101100
*
Ed
 7.45541541395096e-07 1 0 0
2  37 8 0 0 0.0584285855293
1  25 0 0 0.0584285855293
0

0101000
+9 0 -11 0 *
Ed
 1e-07 1 1 1
2  38 8 0 0 1
0

0101100
+9 0 -9 0 *
Ve
1.452271452889e-07
1791.22711604155 495.5 63.4457242735514
0 0

0101100
*
Ed
 1.452271452889e-07 1 0 0
2  39 8 0 0 0.0553049445152
1  26 0 0 0.0553049445152
0

0101000
-6 0 +9 0 *
Ed
 1e-07 1 0 0
2  40 8 0 0 0.9446950554848
1  27 0 0 0.9446950554848
0

0101000
-32 0 +6 0 *
Wi

0101100
+10 0 -8 0 +7 0 +5 0 +4 0 +14 0 *
Fa
1  1e-07 8 0

0111000
+3 0 *
Sh

0101000
+57 0 +50 0 +39 0 +28 0 +23 0 +16 0 +12 0 -2 0 *

+1 0 