DBRep_DrawableShape

CASCADE Topology V1, (c) Matra-Datavision
Locations 0
Curve2ds 4
6 0 1 0 0  0 1  
6 0 1 0 0  1 0  
6 0 1 1 0  1 1  
6 0 1 0 1  1 1  
Curves 4
6 0 2 0 -73.3481446826964 0  52.9560566168471 -73.3481446826964 0  105.912113233694 -73.3481446826964 0  
6 0 2 0 -73.3481446826964 0  0 -2.8421709430404e-14 0  0 73.3481446826963 0  
6 0 2 0 73.3481446826963 0  52.9560566168471 73.3481446826963 0  105.912113233694 73.3481446826963 0  
6 0 2 105.912113233694 -73.3481446826964 0  105.912113233694 -4.2632564145606e-14 0  105.912113233694 73.3481446826963 0  
Polygon3D 0
PolygonOnTriangulations 0
Surfaces 1
8 0 0 2 2 0 -73.3481446826964 0  52.9560566168471 -73.3481446826964 0  105.912113233694 -73.3481446826964 0  
0 -2.8421709430404e-14 0  52.9560566168471 -4.2632564145606e-14 232  105.912113233694 -4.2632564145606e-14 0  
0 73.3481446826963 0  52.9560566168471 73.3481446826963 0  105.912113233694 73.3481446826963 0  

Triangulations 0

TShapes 12
Ve
0.0011
0 -73.3481446826964 0
0 0

0101101
*
Ve
0.0011
105.912113233694 -73.3481446826964 0
0 0

0101101
*
Ed
 1e-07 1 1 0
1  1 0 0 1
2  1 1 0 0 1
0

0101000
+12 0 -11 0 *
Ve
0.0011
0 73.3481446826963 0
0 0

0101101
*
Ed
 1e-07 1 1 0
1  2 0 0 1
2  2 1 0 0 1
0

0101000
+12 0 -9 0 *
Ve
0.0011
105.912113233694 73.3481446826963 0
0 0

0101101
*
Ed
 1e-07 1 1 0
1  3 0 0 1
2  3 1 0 0 1
0

0101000
+9 0 -7 0 *
Ed
 1e-07 1 1 0
1  4 0 0 1
2  4 1 0 0 1
0

0101000
+11 0 -7 0 *
Wi

0101100
-10 0 +8 0 +6 0 -5 0 *
Fa
1  1e-07 1 0

0101000
+4 0 *
Sh

0101000
+3 0 *
So

1100000
+2 0 *

+1 0 