DBRep_DrawableShape

CASCADE Topology V1, (c) Matra-Datavision
Locations 11
1
              1               0               0               0 
              0               1               0               0 
              0               0               1               0 
1
              1               0               0               0 
              0               1               0               0 
              0               0               1               0 
2  1 1 2 1 0
1
              1               0               0               0 
              0               1               0               0 
              0               0               1               0 
1
              1               0               0               0 
              0               1               0               0 
              0               0               1               0 
1
              1               0               0               0 
              0               1               0               0 
              0               0               1              60 
2  4 1 5 1 6 1 0
2  6 -1 5 -1 4 -1 0
2  5 -1 4 -1 0
2  4 1 5 1 0
2  6 -1 0
Curve2ds 32
1 -1.5707963267949 0 1 0 
2 23.0171252918609 -59 -1 0 0 -1 1
1 -1.60570290783909 19.00007 1 0 
2 3.06093470813914 -59 0 1 -1 0 1
8 -0.455055532420631 59.5815171171316
1 26.062178792764 -0.454778324948926 -0.0348994927092455 -0.999390827158543 
8 -0.455055532420631 59.5815171171316
1 -1.94482272875833e-018 -0.455055532420631 -2.13690702584599e-018 -1 
8 0 60.0365726495523
1 0 0 0.0348994927092455 -0.999390827158543 
8 0 60.0365726495523
1 19.00007 0 2.13690702584599e-018 -1 
8 1.68855648254551 27.7666164825455
1 -1.68855648254551 0 1 0 
8 1.68855648254551 27.7666164825455
1 -14.7275864825455 -9.500035 1 -6.12303176911189e-017 
1 0 0 0 1 
1 9.97809529186084 -9.500035 1.22460635382238e-016 1 
1 1.5358897457507 0 0 1 
1 -9.97809529186087 9.500035 0 -1 
1 1.5358897457507 0 0 1 
1 0 -59.0708838708842 1 -1.54074395550979e-033 
1 -1.5707963267949 19.00007 1 0 
2 3.06093470813916 -59 1 0 0 -1 1
1 -1.60570290783908 0 1 0 
2 23.0171252918609 -59 0 1 1 0 1
1 0 0 0 1 
1 0 -59.0708838708842 1 0 
8 -4.75001750000001 14.2500525
1 4.75001750000001 -2.03006915372828e-017 1 -1.54074395550979e-033 
8 -4.75001750000001 14.2500525
1 13.03903 -4.75001749999998 1.22460635382238e-016 1 
8 0 60.0365726495523
1 19.00007 -8.12027661491311e-017 -6.41072107753796e-018 -1 
8 0 60.0365726495523
1 0 0 0.0348994927092455 -0.999390827158543 
8 -0.455055532420631 59.5815171171316
1 26.062178792764 -0.454778324948926 -0.0348994927092455 -0.999390827158543 
8 -0.455055532420631 59.5815171171316
1 0 -0.455055532420631 -2.13690702584599e-018 -1 
8 -4.75001750000001 14.2500525
1 4.75001750000001 0 1 0 
8 -4.75001750000001 14.2500525
1 -13.03903 4.75001749999998 0 -1 
8 5.31436675201846 31.3924267520185
1 -5.31436675201846 0 1 0 
8 5.31436675201846 31.3924267520185
1 18.3533967520185 9.500035 -1 -6.12303176911189e-017 
Curves 16
1 81.7505035174545 -183.99989 51.00003 1 -6.12303176911189e-017 0 
8 1.5707963267949 3.1066860725456
2 106.456185291861 -183.99989 110.00003 1.22460635382238e-016 1 0 -1 1.22460635382238e-016 0 0 0 1 1
8 1.60570290783911 3.14159265358979
2 86.4999947081391 -183.99989 110.00003 0 1 0 0 0 -1 -1 0 0 1
1 109.501238792764 -183.99989 51.4548083249489 -0.0348994927092455 2.13690702584599e-018 0.999390827158543 
1 83.43906 -183.99989 51.00003 0.0348994927092455 -2.13690702584599e-018 0.999390827158543 
1 106.456185291861 -183.99989 111.00003 1.22460635382238e-016 1 0 
1 86.4999947081391 -164.99982 111.00003 0 -1 0 
1 114.831486752018 -164.99982 51.00003 -1 -6.12303176911189e-017 0 
1 107.455576119019 -183.99989 110.034929492709 1.22460635382238e-016 1 0 
8 1.5707963267949 3.1066860725456
2 106.456185291861 -164.99982 110.00003 1.22460635382238e-016 1 0 -1 1.22460635382238e-016 0 0 0 1 1
8 1.60570290783908 3.14159265358979
2 86.4999947081391 -164.99982 110.00003 0 1 0 0 0 -1 -1 0 0 1
1 85.5006038809806 -164.99982 110.034929492709 0 -1 0 
1 109.51712 -179.2498725 51.00003 1.22460635382238e-016 1 0 
1 109.51712 -164.99982 51.00003 -0.0348994927092455 -2.13690702584599e-018 0.999390827158543 
1 83.454941207236 -164.99982 51.4548083249489 0.0348994927092455 2.13690702584599e-018 0.999390827158543 
1 83.43906 -169.7498375 51.00003 0 -1 0 
Polygon3D 0
PolygonOnTriangulations 36
2 1 2 
p 0.288887809273448 1 4.74949119068465 24.7056817744064 
2 1 2 
p 0.288887809273448 1 4.74949119068465 24.7056817744064 
9 1 3 4 5 6 7 8 9 2 
p 0.288887809273448 1 1.5707963267949 1.76278254501374 1.95476876323258 2.14675498145141 2.33874119967025 2.53072741788909 2.72271363610793 2.91469985432676 3.1066860725456 
9 2 3 4 5 6 7 8 9 10 
p 0.288887809273448 1 1.5707963267949 1.76278254501374 1.95476876323258 2.14675498145141 2.33874119967025 2.53072741788909 2.72271363610793 2.91469985432676 3.1066860725456 
9 10 18 19 20 21 22 23 24 14 
p 0.288887809273448 1 1.60570290783911 1.79768912605795 1.98967534427678 2.18166156249562 2.37364778071445 2.56563399893329 2.75762021715212 2.94960643537096 3.14159265358979 
9 11 12 13 14 15 16 17 18 1 
p 0.288887809273448 1 1.60570290783911 1.79768912605795 1.98967534427678 2.18166156249562 2.37364778071445 2.56563399893329 2.75762021715212 2.94960643537096 3.14159265358979 
2 19 10 
p 0.288887809273448 1 -0.455055532420631 58.6158283384636 
2 1 2 
p 0.288887809273448 1 -0.455055532420631 58.6158283384636 
2 20 11 
p 0.288887809273448 1 0 59.0708838708842 
2 7 6 
p 0.288887809273448 1 0 59.0708838708842 
2 20 19 
p 0.288887809273448 1 1.68855648254551 27.7666164825455 
2 1 2 
p 0.288887809273448 1 1.68855648254551 27.7666164825455 
5 1 11 12 13 10 
p 0.288887809273448 1 -1.51273674382259e-015 4.7500175 9.500035 14.2500525 19.00007 
5 2 3 4 5 6 
p 0.288887809273448 1 -1.51273674382259e-015 4.7500175 9.500035 14.2500525 19.00007 
5 2 15 16 17 14 
p 0.288887809273448 1 1.73474625851014e-015 4.7500175 9.500035 14.2500525 19.00007 
5 7 8 9 10 1 
p 0.288887809273448 1 1.73474625851014e-015 4.7500175 9.500035 14.2500525 19.00007 
2 6 7 
p 0.288887809273448 1 8.37530146015761 28.3314920438793 
2 1 2 
p 0.288887809273448 1 8.37530146015761 28.3314920438793 
5 2 15 16 17 14 
p 0.288887809273448 1 -1.27201398131004e-016 4.7500175 9.500035 14.2500525 19.00007 
5 2 3 4 5 6 
p 0.288887809273448 1 -1.27201398131004e-016 4.7500175 9.500035 14.2500525 19.00007 
9 10 18 19 20 21 22 23 24 14 
p 0.288887809273448 1 1.5707963267949 1.76278254501374 1.95476876323258 2.14675498145141 2.33874119967025 2.53072741788909 2.72271363610793 2.91469985432676 3.1066860725456 
9 1 3 4 5 6 7 8 9 10 
p 0.288887809273448 1 1.5707963267949 1.76278254501374 1.95476876323258 2.14675498145141 2.33874119967025 2.53072741788909 2.72271363610793 2.91469985432676 3.1066860725456 
9 1 3 4 5 6 7 8 9 2 
p 0.288887809273448 1 1.60570290783908 1.79768912605792 1.98967534427676 2.1816615624956 2.37364778071443 2.56563399893327 2.75762021715211 2.94960643537095 3.14159265358979 
9 11 12 13 14 15 16 17 18 2 
p 0.288887809273448 1 1.60570290783908 1.79768912605792 1.98967534427676 2.1816615624956 2.37364778071443 2.56563399893327 2.75762021715211 2.94960643537095 3.14159265358979 
5 1 11 12 13 10 
p 0.288887809273448 1 -1.25256575402245e-016 4.7500175 9.500035 14.2500525 19.00007 
5 2 3 4 5 6 
p 0.288887809273448 1 -1.25256575402245e-016 4.7500175 9.500035 14.2500525 19.00007 
2 1 7 
p 0.288887809273448 1 -4.75001750000001 14.2500525 
2 2 3 
p 0.288887809273448 1 -4.75001750000001 14.2500525 
2 7 6 
p 0.288887809273448 1 0 59.0708838708842 
2 19 10 
p 0.288887809273448 1 0 59.0708838708842 
2 1 2 
p 0.288887809273448 1 -0.455055532420631 58.6158283384636 
2 20 11 
p 0.288887809273448 1 -0.455055532420631 58.6158283384636 
2 1 7 
p 0.288887809273448 1 -4.75001750000001 14.2500525 
2 4 1 
p 0.288887809273448 1 -4.75001750000001 14.2500525 
2 3 4 
p 0.288887809273448 1 5.31436675201846 31.3924267520185 
2 19 20 
p 0.288887809273448 1 5.31436675201846 31.3924267520185 
Surfaces 7
1 83.43906 -183.99989 51.00003 6.12303176911189e-017 1 0 1 -6.12303176911189e-017 0 0 0 -1 
2 106.456185291861 -183.99989 110.00003 1.22460635382238e-016 1 0 0 0 1 1 -1.22460635382238e-016 0 1
2 86.4999947081391 -164.99982 110.00003 0 -1 0 -0.999390827158543 0 0.0348994927092455 0.0348994927092455 0 0.999390827158543 1
1 109.51712 -183.99989 51.00003 -0.999390827158543 1.22386035689015e-016 -0.0348994927092455 1.22460635382238e-016 1 -7.70371977754894e-034 0.0348994927092455 -4.27381405169197e-018 -0.999390827158543 
1 83.43906 -164.99982 51.00003 0.999390827158543 0 -0.0348994927092455 0 -1 0 -0.0348994927092455 0 -0.999390827158543 
1 96.47809 -174.499855 51.00003 0 0 1 1 0 0 0 1 0 
1 109.51712 -164.99982 51.00003 6.12303176911189e-017 -1 0 -1 -6.12303176911189e-017 0 0 0 -1 
Triangulations 8
21 20 1 0.288887809273448
86.4999947081391 -183.99989 111.00003 106.456185291861 -183.99989 111.00003 106.646994287728 -183.99989 110.981657183352 106.830791886203 -183.99989 110.927213854193 107.000824328133 -183.99989 110.838700567129 107.150843663757 -183.99989 110.719369798951 107.275337337582 -183.99989 110.573606434305 107.369730750723 -183.99989 110.406766640338 107.430555357433 -183.99989 110.224981050937 107.455576119019 -183.99989 110.034929492709 85.5006038809806 -183.99989 110.034929492709 85.5256246425674 -183.99989 110.224981050937 85.5864492492776 -183.99989 110.406766640338 85.6808426624177 -183.99989 110.573606434305 85.805336336243 -183.99989 110.719369798951 85.9553556718674 -183.99989 110.838700567129 86.125388113797 -183.99989 110.927213854193 86.3091857122723 -183.99989 110.981657183352 109.51712 -183.99989 51.00003 83.43906 -183.99989 51.00003 96.47809 -183.99989 81.00003 3.0609347081391 -60 23.017125291861 -60 23.2079342877277 -59.9816271833524 23.391731886203 -59.9271838541926 23.5617643281326 -59.8386705671293 23.711783663757 -59.7193397989508 23.8362773375823 -59.5735764343054 23.9306707507224 -59.4067366403381 23.9914953574326 -59.2249510509372 24.0165161190194 -59.0348994927092 2.0615438809806 -59.0348994927093 2.08656464256743 -59.2249510509373 2.14738924927765 -59.4067366403381 2.24178266241776 -59.5735764343054 2.36627633624302 -59.7193397989508 2.51629567186747 -59.8386705671293 2.68632811379704 -59.9271838541926 2.87012571227231 -59.9816271833524 26.07806 0 0 0 13.03903 -30 15 16 17 18 1 15 18 15 17 15 1 13 13 1 11 14 15 13 13 11 12 20 11 21 11 1 10 2 3 5 2 5 7 5 3 4 7 5 6 11 10 21 10 2 7 9 7 8 10 19 21 10 7 9 21 19 20 10 1 2 
10 8 1 0.288887809273448
86.4999947081391 -183.99989 51.00003 106.456185291861 -183.99989 51.00003 106.456185291861 -179.2498725 51.00003 106.456185291861 -174.499855 51.00003 106.456185291861 -169.7498375 51.00003 106.456185291861 -164.99982 51.00003 86.4999947081391 -164.99982 51.00003 86.4999947081391 -169.7498375 51.00003 86.4999947081391 -174.499855 51.00003 86.4999947081391 -179.2498725 51.00003 -9.9780952918609 -9.500035 9.97809529186101 -9.500035 9.97809529186084 -4.7500175 9.97809529186084 -1.77635683940025e-015 9.97809529186084 4.7500175 9.97809529186084 9.500035 -9.97809529186087 9.500035 -9.97809529186087 4.7500175 -9.97809529186087 -1.77635683940025e-015 -9.97809529186087 -4.7500175 10 1 3 8 9 4 7 8 5 10 3 9 2 3 1 4 5 8 5 6 7 3 4 9 
24 22 1 0.288887809273448
106.456185291861 -183.99989 111.00003 107.455576119019 -183.99989 110.034929492709 106.646994287728 -183.99989 110.981657183352 106.830791886203 -183.99989 110.927213854193 107.000824328133 -183.99989 110.838700567129 107.150843663757 -183.99989 110.719369798951 107.275337337582 -183.99989 110.573606434305 107.369730750723 -183.99989 110.406766640338 107.430555357433 -183.99989 110.224981050937 106.456185291861 -164.99982 111.00003 106.456185291861 -179.2498725 111.00003 106.456185291861 -174.499855 111.00003 106.456185291861 -169.7498375 111.00003 107.455576119019 -164.99982 110.034929492709 107.455576119019 -179.2498725 110.034929492709 107.455576119019 -174.499855 110.034929492709 107.455576119019 -169.7498375 110.034929492709 106.646994287728 -164.99982 110.981657183352 106.830791886203 -164.99982 110.927213854193 107.000824328133 -164.99982 110.838700567129 107.150843663757 -164.99982 110.719369798951 107.275337337582 -164.99982 110.573606434305 107.369730750723 -164.99982 110.406766640338 107.430555357433 -164.99982 110.224981050937 0 0 1.5358897457507 0 0.191986218218837 0 0.383972436437675 0 0.575958654656513 0 0.76794487287535 0 0.959931091094188 0 1.15191730931303 0 1.34390352753186 0 0 19.00007 0 4.7500175 0 9.500035 0 14.2500525 1.5358897457507 19.00007 1.5358897457507 4.7500175 1.5358897457507 9.500035 1.5358897457507 14.2500525 0.191986218218837 19.00007 0.383972436437675 19.00007 0.575958654656513 19.00007 0.76794487287535 19.00007 0.959931091094188 19.00007 1.15191730931303 19.00007 1.34390352753186 19.00007 1 3 11 12 11 3 19 3 4 20 4 5 20 5 6 13 12 18 10 13 18 18 12 3 18 3 19 4 20 19 6 21 20 23 7 8 24 8 9 2 15 9 15 16 9 16 24 9 21 7 22 22 7 23 24 17 14 24 23 8 24 16 17 7 21 6 
24 22 1 0.288887809273448
85.5006038809806 -164.99982 110.034929492709 86.4999947081391 -164.99982 111.00003 85.5256246425674 -164.99982 110.224981050937 85.5864492492776 -164.99982 110.406766640338 85.6808426624177 -164.99982 110.573606434305 85.805336336243 -164.99982 110.719369798951 85.9553556718674 -164.99982 110.838700567129 86.125388113797 -164.99982 110.927213854193 86.3091857122723 -164.99982 110.981657183352 85.5006038809806 -183.99989 110.034929492709 85.5006038809806 -169.7498375 110.034929492709 85.5006038809806 -174.499855 110.034929492709 85.5006038809806 -179.2498725 110.034929492709 86.4999947081391 -183.99989 111.00003 86.4999947081391 -169.7498375 111.00003 86.4999947081391 -174.499855 111.00003 86.4999947081391 -179.2498725 111.00003 85.5256246425674 -183.99989 110.224981050937 85.5864492492776 -183.99989 110.406766640338 85.6808426624177 -183.99989 110.573606434305 85.805336336243 -183.99989 110.719369798951 85.9553556718674 -183.99989 110.838700567129 86.125388113797 -183.99989 110.927213854193 86.3091857122723 -183.99989 110.981657183352 0 0 1.53588974575071 0 0.191986218218839 0 0.383972436437678 0 0.575958654656516 0 0.767944872875355 0 0.959931091094193 0 1.15191730931303 0 1.34390352753187 0 0 19.00007 0 4.7500175 0 9.500035 0 14.2500525 1.5358897457507 19.00007 1.5358897457507 4.7500175 1.5358897457507 9.500035 1.5358897457507 14.2500525 0.191986218218855 19.00007 0.38397243643769 19.00007 0.575958654656525 19.00007 0.76794487287536 19.00007 0.959931091094195 19.00007 1.15191730931303 19.00007 1.34390352753186 19.00007 1 3 11 12 11 3 18 3 4 19 4 5 20 5 6 13 12 18 10 13 18 18 12 3 18 4 19 5 20 19 6 21 20 23 7 8 24 8 9 2 15 9 15 16 9 16 24 9 21 7 22 22 7 23 24 17 14 24 23 8 24 16 17 7 21 6 
7 5 1 0.288887809273448
109.51712 -183.99989 51.00003 107.455576119019 -183.99989 110.034929492709 107.455576119019 -179.2498725 110.034929492709 107.455576119019 -174.499855 110.034929492709 107.455576119019 -169.7498375 110.034929492709 107.455576119019 -164.99982 110.034929492709 109.51712 -164.99982 51.00003 -9.72411364378598e-019 0 -1.27201398131004e-016 -59.0708838708842 4.7500175 -59.0708838708842 9.500035 -59.0708838708842 14.2500525 -59.0708838708842 19.00007 -59.0708838708842 19.00007 0 2 3 1 1 3 4 4 5 7 6 7 5 4 7 1 
7 5 1 0.288887809273448
83.43906 -164.99982 51.00003 85.5006038809806 -164.99982 110.034929492709 85.5006038809806 -169.7498375 110.034929492709 85.5006038809806 -174.499855 110.034929492709 85.5006038809806 -179.2498725 110.034929492709 85.5006038809806 -183.99989 110.034929492709 83.43906 -183.99989 51.00003 9.72411364379732e-019 0 -1.25256575402245e-016 -59.0708838708842 4.7500175 -59.0708838708842 9.500035 -59.0708838708842 14.2500525 -59.0708838708842 19.00007 -59.0708838708842 19.00007 0 2 3 1 1 3 4 4 5 7 6 7 5 4 7 1 
4 2 1 0.288887809273448
83.43906 -183.99989 51.00003 109.51712 -183.99989 51.00003 109.51712 -164.99982 51.00003 83.43906 -164.99982 51.00003 -13.03903 -9.500035 13.03903 -9.500035 13.03903 9.50003500000002 -13.03903 9.500035 4 1 2 2 3 4 
21 20 1 0.288887809273448
106.456185291861 -164.99982 111.00003 86.4999947081391 -164.99982 111.00003 106.646994287728 -164.99982 110.981657183352 106.830791886203 -164.99982 110.927213854193 107.000824328133 -164.99982 110.838700567129 107.150843663757 -164.99982 110.719369798951 107.275337337582 -164.99982 110.573606434305 107.369730750723 -164.99982 110.406766640338 107.430555357433 -164.99982 110.224981050937 107.455576119019 -164.99982 110.034929492709 85.5006038809806 -164.99982 110.034929492709 85.5256246425674 -164.99982 110.224981050937 85.5864492492776 -164.99982 110.406766640338 85.6808426624177 -164.99982 110.573606434305 85.805336336243 -164.99982 110.719369798951 85.9553556718674 -164.99982 110.838700567129 86.125388113797 -164.99982 110.927213854193 86.3091857122723 -164.99982 110.981657183352 109.51712 -164.99982 51.00003 83.43906 -164.99982 51.00003 96.47809 -164.99982 81.00003 3.060934708139 -60 23.0171252918609 -60 2.87012571227233 -59.9816271833524 2.68632811379706 -59.9271838541926 2.51629567186748 -59.8386705671293 2.36627633624303 -59.7193397989508 2.24178266241777 -59.5735764343054 2.14738924927766 -59.4067366403381 2.08656464256744 -59.2249510509372 2.06154388098062 -59.0348994927092 24.0165161190194 -59.0348994927092 23.9914953574326 -59.2249510509372 23.9306707507224 -59.4067366403381 23.8362773375823 -59.5735764343054 23.711783663757 -59.7193397989508 23.5617643281326 -59.8386705671293 23.391731886203 -59.9271838541926 23.2079342877277 -59.9816271833524 0 0 26.07806 0 13.03903 -30 7 6 5 3 1 5 3 5 4 7 5 1 8 1 10 7 1 8 8 10 9 19 10 21 10 1 2 2 18 16 2 16 14 16 18 17 14 16 15 10 11 21 11 2 14 11 14 13 11 20 21 11 13 12 21 20 19 11 10 2 

TShapes 49
Ve
1e-007
106.456185291861 -183.99989 111.00003
0 0

0101100
*
Ve
1e-007
86.4999947081391 -183.99989 111.00003
0 0

0101100
*
Ed
 1e-007 1 1 0
1  1 0 4.74949119068465 24.7056817744064
6  1 1 8
6  2 2 9
0

0101000
-49 8 +48 8 *
Ve
1e-007
107.455576119019 -183.99989 110.034929492709
0 0

0101100
*
Ed
 1e-007 1 1 0
1  2 0 1.5707963267949 3.1066860725456
2  1 2 0 1.5707963267949 3.1066860725456
2  2 1 0 1.5707963267949 3.1066860725456
6  3 3 0
6  4 1 0
0

0101000
+49 0 -46 0 *
Ve
1e-007
85.5006038809806 -183.99989 110.034929492709
0 0

0101100
*
Ed
 1e-007 1 1 0
1  3 0 1.60570290783911 3.14159265358979
2  3 3 0 1.60570290783911 3.14159265358979
2  4 1 0 1.60570290783911 3.14159265358979
6  5 4 0
6  6 1 0
0

0101000
+44 0 -48 0 *
Ve
1e-007
109.51712 -183.99989 51.00003
0 0

0101100
*
Ed
 1e-007 1 1 0
1  4 0 -0.455055532420631 58.6158283384636
2  5 1 0 -0.455055532420631 58.6158283384636
2  6 4 0 -0.455055532420631 58.6158283384636
6  7 1 0
6  8 5 0
0

0101000
-46 0 +42 0 *
Ve
1e-007
83.43906 -183.99989 51.00003
0 0

0101100
*
Ed
 1e-007 1 1 0
1  5 0 0 59.0708838708842
2  7 1 0 0 59.0708838708842
2  8 5 0 0 59.0708838708842
6  9 1 0
6  10 6 0
0

0101000
-44 0 +40 0 *
Ed
 1e-007 1 1 0
1  1 0 1.68855648254551 27.7666164825455
2  9 1 9 1.68855648254551 27.7666164825455
2  10 6 9 1.68855648254551 27.7666164825455
6  11 1 9
6  12 7 9
0

0101000
+40 9 -42 9 *
Wi

0101100
+47 7 +45 0 +43 0 -41 0 +39 0 -38 10 *
Fa
0  1e-007 1 0
2  1
0111000
+37 0 *
Ve
1e-007
106.456185291861 -164.99982 111.00003
0 0

0101100
*
Ed
 1e-007 1 1 0
1  6 0 -1.51273674382259e-015 19.00007
2  11 2 0 -1.51273674382259e-015 19.00007
2  12 6 6 -1.51273674382259e-015 19.00007
4 G1 2 0 6 6
6  13 3 0
6  14 2 6
0

0101000
+49 0 -35 0 *
Ve
1e-007
86.4999947081391 -164.99982 111.00003
0 0

0101100
*
Ed
 1e-007 1 1 0
1  7 0 1.73474625851014e-015 19.00007
2  13 3 0 1.73474625851014e-015 19.00007
2  14 6 6 1.73474625851014e-015 19.00007
4 G1 3 0 6 6
6  15 4 0
6  16 2 6
0

0101000
+33 0 -48 0 *
Ed
 1e-007 1 1 0
1  8 0 8.37530146015761 28.3314920438793
6  17 2 9
6  18 8 8
0

0101000
+35 8 -33 8 *
Wi

0101100
+47 7 +34 0 +32 0 +31 7 *
Fa
0  1e-007 6 0
2  2
0111000
+30 11 *
Ve
1e-007
107.455576119019 -164.99982 110.034929492709
0 0

0101100
*
Ed
 1e-007 1 1 0
1  9 0 -1.27201398131004e-016 19.00007
2  15 2 0 -1.27201398131004e-016 19.00007
2  16 4 0 -1.27201398131004e-016 19.00007
4 G1 2 0 4 0
6  19 3 0
6  20 5 0
0

0101000
+46 0 -28 0 *
Ed
 1e-007 1 1 0
1  10 0 1.5707963267949 3.1066860725456
2  17 2 0 1.5707963267949 3.1066860725456
2  18 7 0 1.5707963267949 3.1066860725456
6  21 3 0
6  22 8 0
0

0101000
+35 0 -28 0 *
Wi

0101100
+45 0 -34 0 +27 0 -26 0 *
Fa
0  0 2 0
2  3
0101000
+25 0 *
Ve
1e-007
85.5006038809806 -164.99982 110.034929492709
0 0

0101100
*
Ed
 1e-007 1 1 0
1  11 0 1.60570290783908 3.14159265358979
2  19 3 0 1.60570290783908 3.14159265358979
2  20 7 0 1.60570290783908 3.14159265358979
6  23 4 0
6  24 8 0
0

0101000
+23 0 -33 0 *
Ed
 1e-007 1 1 0
1  12 0 -1.25256575402245e-016 19.00007
2  21 3 0 -1.25256575402245e-016 19.00007
2  22 5 0 -1.25256575402245e-016 19.00007
4 G1 3 0 5 0
6  25 4 0
6  26 6 0
0

0101000
+23 0 -44 0 *
Wi

0101100
+22 0 -21 0 +32 0 -43 0 *
Fa
0  0 3 0
2  4
0111000
+20 0 *
Ve
1e-007
109.51712 -164.99982 51.00003
0 0

0101100
*
Ed
 1e-007 1 1 0
1  13 9 -4.75001750000001 14.2500525
2  23 4 9 -4.75001750000001 14.2500525
2  24 6 9 -4.75001750000001 14.2500525
6  27 5 9
6  28 7 9
0

0101000
+42 9 -18 9 *
Ed
 1e-007 1 1 0
1  14 0 0 59.0708838708842
2  25 4 0 0 59.0708838708842
2  26 7 0 0 59.0708838708842
6  29 5 0
6  30 8 0
0

0101000
-28 0 +18 0 *
Wi

0101100
+41 0 +27 0 -17 10 -16 0 *
Fa
0  1e-007 4 0
2  5
0111000
+15 0 *
Ve
1e-007
83.43906 -164.99982 51.00003
0 0

0101100
*
Ed
 1e-007 1 1 0
1  15 0 -0.455055532420631 58.6158283384636
2  27 7 0 -0.455055532420631 58.6158283384636
2  28 5 0 -0.455055532420631 58.6158283384636
6  31 6 0
6  32 8 0
0

0101000
-23 0 +13 0 *
Ed
 1e-007 1 1 0
1  16 9 -4.75001750000001 14.2500525
2  29 5 9 -4.75001750000001 14.2500525
2  30 6 9 -4.75001750000001 14.2500525
6  33 6 9
6  34 7 9
0

0101000
+13 9 -40 9 *
Wi

0101100
+12 0 +21 0 -11 10 -39 0 *
Fa
0  1e-007 5 0
2  6
0111000
+10 0 *
Ed
 1e-007 1 1 0
1  8 0 5.31436675201846 31.3924267520185
2  31 7 9 5.31436675201846 31.3924267520185
2  32 6 9 5.31436675201846 31.3924267520185
6  35 7 9
6  36 8 9
0

0101000
+18 9 -13 9 *
Wi

0101100
+38 0 +17 0 +8 0 +11 0 *
Fa
0  1e-007 6 0
2  7
0111000
+7 10 *
Wi

0101100
+31 7 -26 0 -22 0 +16 0 -12 0 -8 10 *
Fa
0  1e-007 7 0
2  8
0111000
+5 0 *
Sh

0101100
-36 0 +29 6 +24 0 -19 0 -14 0 -9 0 -6 0 -4 0 *
So

0100000
+3 0 *
Co

0100000
+2 0 *

+1 3 