DBRep_DrawableShape

CASCADE Topology V1, (c) Matra-Datavision
Locations 6
1
              1               0               0               0 
              0               1               0               0 
              0               0               1               0 
1
              1               0               0               0 
              0               1               0               0 
              0               0               1               0 
1
              1               0               0               0 
              0               1               0               0 
              0               0               1               0 
2  1 1 2 1 3 1 0
1
              1               0               0 78.3000030517578 
              0               1               0               0 
              0               0               1               0 
2  5 -1 0
Curve2ds 24
7 0 0  1 2 2  -9.87361155502242e-007 0  -9.87361155502242e-007 -78.3477303612837 
 0 2 78.3477303612837 2
8 0 78.3477303612837
1 40.5120900000198 -1.1996104115489e-018 0 -1 
8 -35.0001945510255 -32.1498234902641
7 0 0  8 9 2  1.57079276822824 1.56211846478057e-013  1.56061292814667 -10.2091774915234  1.55031465520665 -20.2995803330414  1.5398963419002 -30.2712085534004  1.52935638069721 -40.1240621520847  1.51869316736429 -49.8581411300402  1.50790510438605 -59.47344548619  1.49699060528212 -68.9699752212561  1.48594809911231 -78.3477303612837 
 -35.0001945510255 9 -32.1498234902641 9
8 -35.0001945510255 -32.1498234902641
4 35.0001945510255 -501.440956353062 7.70371977754894e-034 1 1 -7.70371977754894e-034 0.610746690656789
8 3.14159878358502 4.71238542181803
1 -3.14159265358979 0 1 0 
8 3.14159878358502 4.71238542181803
2 -17.5001595505575 -2.75584044897455 -1 0 0 1 35.0001945512471
8 3.14159938672828 4.6275407527021
1 -3.14159265358979 -78.3477303612837 1 0 
8 3.14159938672828 4.6275407527021
2 -17.5001595505575 -2.75584044897455 -1 0 0 1 32.2658985067175
8 -1.31686475834582 77.078563855978
1 75.4661400502112 -1.31606353626472 -0.0348782587564036 -0.999391568438578 
8 -1.31686475834582 77.078563855978
1 0.0459299497887713 -1.31606353626472 0.0348782587564036 -0.999391568438578 
8 -18.8780175 56.6340525
1 18.8780175 -2.52686604892243e-017 1 -1.92592994438724e-034 
8 -18.8780175 56.6340525
1 -17.500035000032 -18.8780175 -3.83536518516747e-017 1 
8 -16.0276464392386 53.8997564554705
1 18.8780175 -78.3477303612837 1 -1.92592994438724e-034 
8 -16.0276464392386 53.8997564554705
1 -14.7657389555025 -18.8780175 -3.83536518516747e-017 1 
8 -0.610369449488697 77.7850590706731
1 34.9787413973977 -0.609998082184179 -0.0348782243608755 -0.999391569638964 
8 -0.610369449488697 77.7850590706731
1 0.0212886026022927 -0.609998082184179 0.0348782243608755 -0.999391569638964 
8 -8.750017500016 26.250012499984
1 8.750017500016 -4.5855567278122e-016 1 1.54074395550979e-033 
8 -8.750017500016 26.250012499984
1 -8.750017500016 37.756035 1 -1.22460635382238e-016 
8 -6.01572145548646 23.5157191551908
1 8.750017500016 -78.3477303612837 1 1.54074395550979e-033 
8 -6.01572145548646 23.5157191551908
1 -8.750017500016 35.0217389554704 1 -1.22460635382238e-016 
8 -18.8780088605832 21.6340811394366
1 18.8780088605832 4.13726360943667e-016 1 0 
8 -18.8780088605832 21.6340811394366
1 17.5000136393807 18.878026139426 9.87361155748573e-007 -0.999999999999513 
8 -16.14371551579 21.6340811394366
1 18.8780088605832 -78.3477303612837 1 0 
8 -16.14371551579 21.6340811394366
1 14.7657175948524 18.8780234396883 9.87361155748573e-007 -0.999999999999513 
Curves 12
1 -118 -41.00006 109.200070000064 0.999390827158543 3.44584034564395e-008 -0.0348994927092285 
4 383.135492140858 -41.0002745510255 91.7000350003608 -0.0348994927092455 -3.8330287848596e-017 0.999390827158543 -0.999390827158543 1.33852299317046e-018 -0.0348994927092455 3.85185988877447e-034 -1 -3.83536518516747e-017 0.610746690656789
2 -118 -41.0002745510255 74.1998754494745 -1 0 0 0 0 -1 0 -1 0 35.0001945512471
2 -39.6999969482422 -41.0002745510255 74.1998754494745 -1 0 0 0 0 -1 0 -1 0 32.2658985067175
1 -116.684738173899 -81.4662200502112 74.2459299497888 0.998782766237105 0.0348782587564036 0.0348782587564035 
1 -118 -24.8780975 74.2 0 -1 -3.83536518516747e-017 
1 -39.6999969482422 -24.8780975 76.9342960445295 0 -1 -3.83536518516747e-017 
1 -117.390373512081 -81.4908613763782 109.178741397398 0.998782767436759 0.0348782587982964 -0.0348782243608755 
1 -118 -81.51215 82.950017500016 0 1.22460635382238e-016 1 
1 -39.6999969482422 -78.7778539554704 82.950017500016 0 1.22460635382238e-016 1 
1 -118 -62.6341411394261 109.200048639413 0 0.999999999999513 9.87361155748573e-007 
1 -39.6999969482422 -62.6341384396884 106.465752594884 0 0.999999999999513 9.87361155748573e-007 
Polygon3D 0
PolygonOnTriangulations 24
5 1 3 4 5 2 
p 0.316258167763714 1 0 19.5869325903209 39.1738651806418 58.7607977709628 78.3477303612837 
5 3 4 5 6 7 
p 0.316258167763714 1 0 19.5869325903209 39.1738651806418 58.7607977709628 78.3477303612837 
4 6 8 9 7 
p 0.316258167763714 1 -35.0001945510255 -33.7333629684649 -32.9415932293645 -32.1498234902641 
4 1 2 3 4 
p 0.316258167763714 1 -35.0001945510255 -33.7333629684649 -32.9415932293645 -32.1498234902641 
9 1 10 11 12 13 14 15 16 6 
p 0.316258167763714 1 3.14159878358502 3.33794711336415 3.53429544314327 3.7306437729224 3.92699210270152 4.12334043248065 4.31968876225978 4.5160370920389 4.71238542181803 
9 1 2 3 4 5 6 7 8 9 
p 0.316258167763714 1 3.14159878358502 3.33794711336415 3.53429544314327 3.7306437729224 3.92699210270152 4.12334043248065 4.31968876225978 4.5160370920389 4.71238542181803 
9 2 17 18 19 20 21 22 23 7 
p 0.316258167763714 1 3.14159938672828 3.32734205747501 3.51308472822174 3.69882739896846 3.88457006971519 4.07031274046192 4.25605541120865 4.44179808195537 4.6275407527021 
9 1 2 3 4 5 6 7 8 9 
p 0.316258167763714 1 3.14159938672828 3.32734205747501 3.51308472822174 3.69882739896846 3.88457006971519 4.07031274046192 4.25605541120865 4.44179808195537 4.6275407527021 
2 5 6 
p 0.316258167763714 1 -1.31686475834582 77.078563855978 
2 1 2 
p 0.316258167763714 1 -1.31686475834582 77.078563855978 
2 1 5 
p 0.316258167763714 1 -18.8780175 56.6340525 
2 9 10 
p 0.316258167763714 1 -18.8780175 56.6340525 
2 4 6 
p 0.316258167763714 1 -16.0276464392386 53.8997564554705 
2 9 10 
p 0.316258167763714 1 -16.0276464392386 53.8997564554705 
2 3 4 
p 0.316258167763714 1 -0.610369449488697 77.7850590706731 
2 1 2 
p 0.316258167763714 1 -0.610369449488697 77.7850590706731 
2 1 3 
p 0.316258167763714 1 -8.750017500016 26.250012499984 
2 10 11 
p 0.316258167763714 1 -8.750017500016 26.250012499984 
2 2 4 
p 0.316258167763714 1 -6.01572145548646 23.5157191551908 
2 10 11 
p 0.316258167763714 1 -6.01572145548646 23.5157191551908 
2 1 3 
p 0.316258167763714 1 -18.8780088605832 21.6340811394366 
2 11 1 
p 0.316258167763714 1 -18.8780088605832 21.6340811394366 
2 2 7 
p 0.316258167763714 1 -16.14371551579 21.6340811394366 
2 11 1 
p 0.316258167763714 1 -16.14371551579 21.6340811394366 
Surfaces 5
3 -118 -41.0002745510255 74.1998754494745 -1 0 0 0 0 1 0 1 0 35.0001945512471
0.0349065810441971
1 -118 -81.51215 109.20003 0.0348994927092455 -9.86759682147782e-007 0.999390827158056 0 0.999999999999513 9.87361155748573e-007 -0.999390827158543 -3.44584034564395e-008 0.0348994927092285 
1 -118 -6.00008 74.2 0.0348994927092455 3.8330287848596e-017 -0.999390827158543 0 -1 -3.83536518516747e-017 -0.999390827158543 1.33852299317046e-018 -0.0348994927092455 
1 -118 -43.756115 91.700035000032 1 0 0 0 0 1 0 -1 0 
1 -118 -81.51215 74.2 0.0348994927092455 -0.999390827158543 1.22386035689015e-016 7.70371977754894e-034 1.22460635382238e-016 1 -0.999390827158543 -0.0348994927092455 4.27381405169197e-018 
Triangulations 6
58 91 1 0.316258167763714
-118 -41.00006 109.200070000064 -39.6999969482422 -41.0000573002623 106.465773955536 -98.4249992370605 -41.0000593250656 108.516495988932 -78.8499984741211 -41.0000586501311 107.8329219778 -59.2749977111816 -41.0000579751967 107.149347966668 -118 -6.00008 74.2 -39.6999969482421 -8.85045106076141 76.9342960445296 -82.3793409938727 -7.26691158256062 75.4439006797945 -60.7832134554981 -8.05868132166101 76.1980539850798 -118 -34.1719064702166 108.527517488772 -118 -27.6061600697448 106.535789166076 -118 -21.5551356480985 103.301425093283 -118 -16.2513678210287 98.9487185395074 -118 -11.8986749055281 93.6449395197811 -118 -8.66432639252233 87.5939067812186 -118 -6.67261495318085 81.0281552591814 -39.6999969482422 -35.0413084533903 105.910739983464 -39.6999969482422 -29.2875555740866 104.264812180042 -39.6999969482422 -23.9367350357622 101.58461254255 -39.6999969482422 -19.1729218298781 97.9623433270418 -39.6999969482422 -15.1599971535172 93.5226151740999 -39.6999969482422 -12.0360106890121 88.4181603452508 -39.6999969482422 -9.90843152033987 82.8245785400742 -49.4874973297119 -32.5608291196405 105.696492970705 -49.4874973297119 -24.6964838799154 102.438989532969 -49.4874973297119 -17.9432114145423 97.2570434019405 -49.4874973297119 -12.7612345836782 90.5037944933903 -49.4874973297119 -9.50369539523031 82.6394640621219 -59.2749977111817 -32.4723686006765 106.026633991722 -59.2749977111817 -24.5255909230768 102.734986077673 -59.2749977111817 -17.7015320545153 97.4987238606269 -59.2749977111817 -12.465238815844 90.674688795806 -59.2749977111817 -9.17355477635129 82.7279260818822 -69.0624980926514 -32.3839080817124 106.35677501274 -69.0624980926514 -24.3546979662382 103.030982622378 -69.0624980926514 -17.4598526944884 97.7404043193133 -69.0624980926514 -12.1692430480098 90.8455830982218 -69.0624980926514 -8.84341415747227 82.8163881016426 -78.8499984741212 -32.2954475627484 106.686916033758 -78.8499984741212 -24.1838050093996 103.326979167082 -78.8499984741212 -17.2181733344614 97.9820847779997 -78.8499984741212 -11.8732472801756 91.0164774006375 -78.8499984741212 -8.51327353859325 82.904850121403 -88.6374988555909 -32.2069870437844 107.017057054775 -88.6374988555909 -24.012912052561 103.622975711786 -88.6374988555909 -16.9764939744344 98.2237652366861 -88.6374988555909 -11.5772515123415 91.1873717030532 -88.6374988555909 -8.18313291971423 82.9933121411633 -98.4249992370607 -32.1185265248204 107.347198075793 -98.4249992370607 -23.8420190957225 103.91897225649 -98.4249992370607 -16.7348146144075 98.4654456953725 -98.4249992370607 -11.2812557445073 91.358266005469 -98.4249992370607 -7.8529923008352 83.0817741609237 -108.21249961853 -32.0300660058563 107.67733909681 -108.21249961853 -23.6711261388839 104.214968801195 -108.21249961853 -16.4931352543805 98.7071261540589 -108.21249961853 -10.9852599766731 91.5291603078847 -108.21249961853 -7.52285168195618 83.170236180684 -9.87361155502242e-007 0 -9.87361155502242e-007 -78.3477303612837 -9.87361155502242e-007 -19.5869325903209 -9.87361155502242e-007 -39.1738651806418 -9.87361155502242e-007 -58.7607977709628 1.57079276822824 1.56319401867222e-013 1.48594809911231 -78.3477303612837 1.53393484538944 -35.6423713735972 1.51021233485784 -57.251662692505 0.196354459774356 0 0.392702789553482 0 0.589051119332609 0 0.785399449111735 0 0.981747778890861 0 1.17809610866999 0 1.37444443844911 0 0.185749403885218 -78.3477303612837 0.371492074631945 -78.3477303612837 0.557234745378673 -78.3477303612837 0.742977416125401 -78.3477303612837 0.928720086872129 -78.3477303612837 1.11446275761886 -78.3477303612837 1.30020542836558 -78.3477303612837 0.261797971903744 -68.5542640661232 0.523596931168643 -68.5542640661232 0.785395890433542 -68.5542640661232 1.04719484969844 -68.5542640661232 1.30899380896334 -68.5542640661232 0.261797971903744 -58.7607977709627 0.523596931168643 -58.7607977709627 0.785395890433542 -58.7607977709627 1.04719484969844 -58.7607977709627 1.30899380896334 -58.7607977709627 0.261797971903744 -48.9673314758022 0.523596931168643 -48.9673314758022 0.785395890433542 -48.9673314758022 1.04719484969844 -48.9673314758022 1.30899380896334 -48.9673314758022 0.261797971903744 -39.1738651806418 0.523596931168643 -39.1738651806418 0.785395890433542 -39.1738651806418 1.04719484969844 -39.1738651806418 1.30899380896334 -39.1738651806418 0.261797971903744 -29.3803988854813 0.523596931168643 -29.3803988854813 0.785395890433542 -29.3803988854813 1.04719484969844 -29.3803988854813 1.30899380896334 -29.3803988854813 0.261797971903744 -19.5869325903208 0.523596931168643 -19.5869325903208 0.785395890433542 -19.5869325903208 1.04719484969844 -19.5869325903208 1.30899380896334 -19.5869325903208 0.261797971903744 -9.79346629516031 0.523596931168643 -9.79346629516031 0.785395890433542 -9.79346629516031 1.04719484969844 -9.79346629516031 1.30899380896334 -9.79346629516031 2 17 24 17 18 24 5 24 29 24 5 2 29 34 5 30 34 29 29 24 25 5 34 4 25 24 18 25 19 20 19 25 18 25 20 26 30 35 34 35 30 31 26 31 30 31 26 27 30 25 26 35 31 36 20 21 26 25 30 29 34 35 40 4 39 44 4 34 39 44 39 40 4 44 3 10 1 54 54 3 49 1 3 54 3 44 49 44 45 49 50 49 45 41 45 40 51 55 50 45 46 50 39 34 40 50 54 49 54 11 10 11 54 55 55 12 11 56 12 55 54 50 55 36 41 40 45 44 40 36 40 35 31 32 36 21 22 27 32 27 28 27 32 31 36 37 41 36 32 37 37 42 41 38 42 37 37 32 33 41 42 47 22 28 27 26 21 27 23 7 28 28 7 9 28 33 32 38 37 33 38 33 9 8 38 9 38 8 43 33 28 9 43 42 38 23 28 22 42 43 48 46 47 51 46 41 47 51 47 52 46 51 50 56 13 12 13 56 14 57 56 52 56 57 14 56 51 52 47 48 52 51 56 55 52 53 57 53 52 48 53 8 6 8 53 48 47 42 48 57 53 58 15 58 16 58 15 57 6 16 58 58 53 6 57 15 14 8 48 43 41 46 45 
8 7 1 0.316258167763714
-118 -81.51215 109.20003 -39.6999969482422 -78.7778539554704 106.465736655207 -118 -41.00006 109.200070000064 -98.4249992370605 -41.0000593250656 108.516495988932 -78.8499984741211 -41.0000586501311 107.8329219778 -59.2749977111816 -41.0000579751967 107.149347966668 -39.6999969482422 -41.0000573002623 106.465773955536 -78.8499984741211 -61.2561036501311 107.832901977768 1.85962356624714e-015 0 2.73429334479318 -78.3477303612837 40.5120900000198 0 40.5120900000198 -19.5869325903209 40.5120900000198 -39.1738651806418 40.5120900000198 -58.7607977709628 40.5120900000198 -78.3477303612837 20.2560450000099 -39.1738651806419 8 2 6 4 1 8 8 1 2 6 2 7 6 5 8 4 3 1 5 4 8 
7 6 1 0.316258167763714
-118 -6.00008 74.2 -82.3793409938727 -7.26691158256062 75.4439006797945 -60.7832134554981 -8.05868132166101 76.1980539850798 -39.6999969482421 -8.85045106076141 76.9342960445296 -118 -81.51215 74.2 -39.6999969482422 -78.7778539554705 76.9342960445295 -78.8499984741218 -43.756115 75.5671480222648 0 1.30739863379858e-012 1.26683158256063 -35.642371370771 2.05860132166102 -57.2516627025481 2.8503710607614 -78.3477303612825 75.51207 0 72.7777739554704 -78.3477303612837 37.756035 -39.1738651806412 7 1 2 7 2 3 4 6 7 7 5 1 5 7 6 4 7 3 
12 11 1 0.316258167763714
-118 -41.00006 109.200070000064 -118 -34.1719064702166 108.527517488772 -118 -27.6061600697448 106.535789166076 -118 -21.5551356480985 103.301425093283 -118 -16.2513678210287 98.9487185395074 -118 -11.8986749055281 93.6449395197811 -118 -8.66432639252233 87.5939067812186 -118 -6.67261495318085 81.0281552591814 -118 -6.00008 74.2 -118 -81.51215 74.2 -118 -81.51215 109.20003 -118 -43.756115 91.700035000032 17.500035000032 -2.75605500000009 16.8274824887399 -9.5842085297834 14.835754166044 -16.1499549302552 11.6013900932505 -22.2009793519016 7.24868353947535 -27.5047471789713 1.94490451974913 -31.857440094472 -4.10612821881338 -35.0917886074777 -10.6718797408506 -37.0835000468192 -17.5000350000321 -37.756035 -17.500035000032 37.756035 17.499994999968 37.756035 -3.19744231092045e-014 -1.4210854715202e-014 12 9 8 12 8 7 9 12 10 12 7 6 12 6 5 10 12 11 4 3 12 12 3 2 11 12 1 12 2 1 5 4 12 
12 11 1 0.316258167763714
-118 -41.0000573002623 106.465773955536 -118 -35.0413084533903 105.910739983464 -118 -29.2875555740866 104.264812180042 -118 -23.9367350357622 101.58461254255 -118 -19.1729218298781 97.9623433270418 -118 -15.1599971535172 93.5226151740999 -118 -12.0360106890121 88.4181603452508 -118 -9.90843152033987 82.8245785400742 -118 -8.85045106076141 76.9342960445296 -118 -78.7778539554705 76.9342960445295 -118 -78.7778539554704 106.465736655207 -118 -43.814152508116 91.7000349999951 14.7657389554286 -2.75605769973759 14.2107049834319 -8.71480654660978 12.5647771800104 -14.4685594259134 9.88457754251758 -19.8193799642379 6.26230832700974 -24.5831931701219 1.82258017406789 -28.5961178464829 -3.28187465478116 -31.7201043109879 -8.87545645995778 -33.8476834796602 -14.7657389555025 -34.9056639392386 -14.7657389555025 35.0217389554705 14.7657016551748 35.0217389554704 -3.69482222595252e-011 0.0580375081159588 12 9 8 12 8 7 9 12 10 12 7 6 12 6 5 10 12 11 4 3 12 12 3 2 11 12 1 12 2 1 5 4 12 
5 4 1 0.316258167763714
-118 -81.51215 74.2 -39.6999969482422 -78.7778539554705 76.9342960445295 -118 -81.51215 109.20003 -39.6999969482422 -78.7778539554704 106.465736655207 -78.8499984741211 -80.1450019777352 91.700015 -3.10168557504653e-015 0 2.73429604452955 -78.3477303612837 35.00003 0 32.2657366552068 -78.3477303612837 17.500015 -39.1738651806419 1 2 5 5 4 3 4 5 2 5 3 1 

TShapes 34
Ve
0.000373663287012063
-118 -41.00006 109.200070000064
0 0

0101100
*
Ve
0.000373663287012063
-39.6999969482422 -41.0000573002623 106.465773955536
0 0

0101100
*
Ed
 0.000373663287012063 1 1 0
1  1 0 0 78.3477303612837
2  1 1 0 0 78.3477303612837
2  2 2 0 0 78.3477303612837
4 G1 1 0 2 0
6  1 1 0
6  2 2 0
0

0101000
+34 0 -33 0 *
Ve
1.70050569875402e-006
-118 -6.00008 74.2
0 0

0101100
*
Ve
1e-007
-39.6999969482421 -8.85045106076141 76.9342960445296
0 0

0101100
*
Ed
 1e-007 1 1 0
1  2 0 -35.0001945510255 -32.1498234902641
2  3 1 0 -35.0001945510255 -32.1498234902641
2  4 3 0 -35.0001945510255 -32.1498234902641
6  3 1 0
6  4 3 0
0

0101000
+31 0 -30 0 *
Ed
 1e-007 1 1 0
1  3 0 3.14159878358502 4.71238542181803
2  5 1 0 3.14159878358502 4.71238542181803
2  6 4 0 3.14159878358502 4.71238542181803
6  5 1 0
6  6 4 0
0

0101000
+34 0 -31 0 *
Ed
 1e-007 1 1 0
1  4 6 3.14159938672828 4.6275407527021
2  7 1 6 3.14159938672828 4.6275407527021
2  8 4 0 3.14159938672828 4.6275407527021
6  7 1 6
6  8 5 0
0

0101000
+33 6 -30 6 *
Wi

0101000
+32 0 -29 0 -28 0 +27 5 *
Fa
0  1e-007 1 0
2  1
0101000
+26 0 *
Ve
1e-007
-118 -81.51215 74.2
0 0

0101100
*
Ve
1e-007
-39.6999969482422 -78.7778539554705 76.9342960445295
0 0

0101100
*
Ed
 1e-007 1 1 0
1  5 0 -1.31686475834582 77.078563855978
2  9 3 0 -1.31686475834582 77.078563855978
2  10 5 0 -1.31686475834582 77.078563855978
6  9 3 0
6  10 6 0
0

0101000
+24 0 -23 0 *
Ed
 1e-007 1 1 0
1  6 0 -18.8780175 56.6340525
2  11 3 0 -18.8780175 56.6340525
2  12 4 0 -18.8780175 56.6340525
6  11 3 0
6  12 4 0
0

0101000
+31 0 -24 0 *
Ed
 1e-007 1 1 0
1  7 6 -16.0276464392386 53.8997564554705
2  13 3 6 -16.0276464392386 53.8997564554705
2  14 4 0 -16.0276464392386 53.8997564554705
6  13 3 6
6  14 5 0
0

0101000
+30 6 -23 6 *
Wi

0101000
+29 0 -22 0 -21 0 +20 5 *
Fa
0  1e-007 3 0
2  3
0101000
+19 0 *
Ve
1e-007
-118 -81.51215 109.20003
0 0

0101100
*
Ve
1e-007
-39.6999969482422 -78.7778539554704 106.465736655207
0 0

0101100
*
Ed
 1e-007 1 1 0
1  8 0 -0.610369449488697 77.7850590706731
2  15 5 0 -0.610369449488697 77.7850590706731
2  16 2 0 -0.610369449488697 77.7850590706731
6  15 6 0
6  16 2 0
0

0101000
+17 0 -16 0 *
Ed
 1e-007 1 1 0
1  9 0 -8.750017500016 26.250012499984
2  17 5 0 -8.750017500016 26.250012499984
2  18 4 0 -8.750017500016 26.250012499984
6  17 6 0
6  18 4 0
0

0101000
+24 0 -17 0 *
Ed
 1e-007 1 1 0
1  10 6 -6.01572145548646 23.5157191551908
2  19 5 6 -6.01572145548646 23.5157191551908
2  20 4 0 -6.01572145548646 23.5157191551908
6  19 6 6
6  20 5 0
0

0101000
+23 6 -16 6 *
Wi

0101000
+22 0 -15 0 -14 0 +13 5 *
Fa
0  1e-007 5 0
2  6
0101000
+12 0 *
Ed
 1e-007 1 1 0
1  11 0 -18.8780088605832 21.6340811394366
2  21 2 0 -18.8780088605832 21.6340811394366
2  22 4 0 -18.8780088605832 21.6340811394366
6  21 2 0
6  22 4 0
0

0101000
+17 0 -34 0 *
Ed
 1e-007 1 1 0
1  12 6 -16.14371551579 21.6340811394366
2  23 2 6 -16.14371551579 21.6340811394366
2  24 4 0 -16.14371551579 21.6340811394366
6  23 2 6
6  24 5 0
0

0101000
+16 6 -33 6 *
Wi

0101000
+15 0 -32 0 -10 0 +9 5 *
Fa
0  1e-007 2 0
2  2
0101000
+8 0 *
Wi

0101100
+28 0 +21 0 +14 0 +10 0 *
Fa
0  1e-007 4 0
2  4
0101000
-6 0 *
Wi

0101100
+27 0 +20 0 +13 0 +9 0 *
Fa
0  1e-007 4 0
2  5
0101000
-4 0 *
Sh

0101000
-25 0 -18 0 -11 0 -7 0 +5 0 -3 5 *
So

0100000
-2 0 *

+1 4 