DBRep_DrawableShape

CASCADE Topology V1, (c) Matra-Datavision
Locations 8
1
              1               0               0               0 
              0               1               0               0 
              0               0               1               0 
1
              1               0               0               0 
              0               1               0               0 
              0               0               1               0 
1
              1               0               0               0 
              0               1               0 -0.00999999977648258 
              0               0               1               0 
1
              1               0               0               0 
              0               1               0               0 
              0               0               1               0 
1
              1               0               0               0 
              0               1               0 0.00999999977648258 
              0               0               1               0 
2  1 1 2 1 3 1 4 1 5 1 0
1
              1               0               0 -73.3999938964844 
              0               1               0               0 
              0               0               1               0 
2  7 -1 0
Curve2ds 8
1 0 0 0 1 
1 3.90160044162362 0 0 -1 
1 -3.14159126303804 0 1 0 
2 15.1018061372953 0.305859270308429 -1 0 0 -1 3
1 1.56207232918519 0 0 1 
1 2.97394150900529 0 0 -1 
1 -3.14159126303804 73.3999938964844 1 0 
2 15.1018061372953 0.305859270308429 -1 0 0 -1 3
Curves 11
1 -15.87449 -1.09987965703331 121.926410711915 0 -0.999999999999033 1.39055175747171e-006 
1 -15.87449 -5.00148009865316 121.926416137292 -1 0 0 
1 -15.87449 -1.09987965703331 121.926410711915 -1 0 0 
8 3.14159126303804 4.70366359222321
2 -15.87449 -5.00148427030843 118.926416137295 1 0 0 0 0 -1 0 1 0 3
1 -15.87449 -1.09993 85.72282 0 1.39055175747171e-006 0.999999999999033 
1 -15.87449 -7.97542160765559 121.926420272712 0 -0.00872527744776876 -0.999961934042221 
1 -15.87449 -8.29132 85.72282 0 1 0 
1 -15.87449 -8.00137007243509 118.952591969639 -1 0 0 
8 3.14159126303804 4.70366359222321
2 -89.2744838964844 -5.00148427030843 118.926416137295 1 0 0 0 0 -1 0 1 0 3
1 -15.87449 -1.09993 85.72282 -1 0 0 
1 -15.87449 -8.29132 85.72282 -1 0 0 
Polygon3D 0
PolygonOnTriangulations 34
2 1 2 
p 0.296434924584461 1 0 3.90160044162362 
2 1 2 
p 0.296434924584461 1 0 3.90160044162362 
5 1 11 12 13 10 
p 0.296434924584461 1 0 18.3499984741211 36.6999969482422 55.0499954223633 73.3999938964844 
5 2 3 4 5 6 
p 0.296434924584461 1 0 18.3499984741211 36.6999969482422 55.0499954223633 73.3999938964844 
2 1 7 
p 0.296434924584461 1 0 73.3999938964844 
2 3 4 
p 0.296434924584461 1 0 73.3999938964844 
2 1 2 
p 0.295971454982613 1 0 73.3999938964844 
2 7 6 
p 0.296434924584461 1 0 3.90160044162362 
2 1 2 
p 0.296434924584461 1 0 3.90160044162362 
9 1 3 4 5 6 7 8 9 2 
p 0.296434924584461 1 3.14159126303804 3.33685030418619 3.53210934533433 3.72736838648248 3.92262742763063 4.11788646877877 4.31314550992692 4.50840455107506 4.70366359222321 
9 2 3 4 5 6 7 8 9 10 
p 0.296434924584461 1 3.14159126303804 3.33685030418619 3.53210934533433 3.72736838648248 3.92262742763063 4.11788646877877 4.31314550992692 4.50840455107506 4.70366359222321 
2 11 1 
p 0.296434924584461 1 0 36.20359071195 
2 2 4 
p 0.296434924584461 1 0 36.20359071195 
2 1 3 
p 0.296434924584461 1 0 36.20359071195 
2 11 1 
p 0.296434924584461 1 0 36.20359071195 
2 1 2 
p 0.295971454982613 1 0 36.20359071195 
2 10 12 
p 0.296434924584461 1 2.97394150900529 36.2049784491111 
2 1 2 
p 0.296434924584461 1 2.97394150900529 36.2049784491111 
2 12 11 
p 0.296434924584461 1 0 7.19139 
2 12 11 
p 0.296434924584461 1 0 7.19139 
2 1 3 
p 0.296434924584461 1 0 7.19139 
2 2 4 
p 0.296434924584461 1 0 7.19139 
2 4 1 
p 0.295971454982613 1 0 7.19139 
5 2 15 16 17 14 
p 0.296434924584461 1 0 18.3499984741211 36.6999969482422 55.0499954223633 73.3999938964844 
5 1 3 4 5 6 
p 0.296434924584461 1 0 18.3499984741211 36.6999969482422 55.0499954223633 73.3999938964844 
9 10 18 19 20 21 22 23 24 14 
p 0.296434924584461 1 3.14159126303804 3.33685030418619 3.53210934533433 3.72736838648248 3.92262742763063 4.11788646877877 4.31314550992692 4.50840455107506 4.70366359222321 
9 2 3 4 5 6 7 8 9 10 
p 0.296434924584461 1 3.14159126303804 3.33685030418619 3.53210934533433 3.72736838648248 3.92262742763063 4.11788646877877 4.31314550992692 4.50840455107506 4.70366359222321 
2 1 2 
p 0.296434924584461 1 0 73.3999938964844 
2 3 4 
p 0.296434924584461 1 0 73.3999938964844 
2 10 12 
p 0.296434924584461 1 2.97394150900529 36.2049784491111 
2 6 7 
p 0.296434924584461 1 2.97394150900529 36.2049784491111 
2 2 7 
p 0.296434924584461 1 0 73.3999938964844 
2 1 2 
p 0.296434924584461 1 0 73.3999938964844 
2 3 4 
p 0.295971454982613 1 0 73.3999938964844 
Surfaces 6
1 -15.87449 -1.09987965703331 121.926410711915 0 1.39055175747171e-006 0.999999999999033 0 -0.999999999999033 1.39055175747171e-006 1 0 0 
2 -15.87449 -5.00148427030843 118.926416137295 -1 0 0 0 1.39055175747171e-006 0.999999999999033 0 -0.999999999999033 1.39055175747171e-006 3
1 -15.87449 -4.695625 103.82461 1 0 0 0 0 1 0 -1 0 
1 -15.87449 -7.97542160765559 121.926420272712 0 -0.999961934042221 0.00872527744776876 0 -0.00872527744776876 -0.999961934042221 1 0 0 
1 -15.87449 -1.09993 85.72282 0 0.999999999999033 -1.39055175747171e-006 0 1.39055175747171e-006 0.999999999999033 1 0 0 
1 -15.87449 -8.29132 85.72282 0 0 -1 0 1 0 1 0 0 
Triangulations 10
7 5 1 0.296434924584461
-15.87449 -1.09987965703331 121.926410711915 -15.87449 -5.00148009865316 121.926416137292 -34.2244884741211 -5.00148009865316 121.926416137292 -52.5744869482422 -5.00148009865316 121.926416137292 -70.9244854223633 -5.00148009865316 121.926416137292 -89.2744838964844 -5.00148009865316 121.926416137292 -89.2744838964844 -1.09987965703331 121.926410711915 0 0 3.90160044162362 0 3.90160044162362 -18.3499984741211 3.90160044162362 -36.6999969482422 3.90160044162362 -55.0499954223633 3.90160044162362 -73.3999938964844 0 -73.3999938964844 1 7 4 5 7 6 5 4 7 3 2 1 4 3 1 
13 12 1 0.296434924584461
-15.87449 -1.09987965703331 121.926410711915 -15.87449 -5.00148009865316 121.926416137292 -15.87449 -5.58354215844431 121.869409276067 -15.87449 -6.1434830419926 121.700553625862 -15.87449 -6.66002213233019 121.426266564869 -15.87449 -7.11352830257678 121.056972404038 -15.87449 -7.48676599914958 120.606706209958 -15.87449 -7.76555028093768 120.092580400546 -15.87449 -7.93928591960233 119.534134385668 -15.87449 -8.00137007243509 118.952591969639 -15.87449 -1.09993 85.72282 -15.87449 -8.29132 85.72282 -15.87449 -4.69559982851666 103.824618068646 18.101800711915 -3.59574534296669 18.101806137292 0.305855098653161 18.0447992760673 0.887917158444306 17.8759436258621 1.4478580419926 17.601656564869 1.96439713233019 17.2323624040387 2.41790330257678 16.7820962099579 2.79114099914958 16.2679704005464 3.06992528093768 15.7095243856687 3.24366091960233 15.1279819696386 3.30574507243509 -18.10179 -3.595695 -18.10179 3.595695 8.06864598956736e-006 -2.5171483344355e-005 10 13 1 1 13 11 9 10 2 11 13 12 13 10 12 9 2 8 7 8 2 4 2 3 7 2 6 6 2 5 2 4 5 2 10 1 
24 22 1 0.296434924584461
-15.87449 -5.00148009865316 121.926416137292 -15.87449 -8.00137007243509 118.952591969639 -15.87449 -5.58354215844431 121.869409276067 -15.87449 -6.1434830419926 121.700553625862 -15.87449 -6.66002213233019 121.426266564869 -15.87449 -7.11352830257678 121.056972404038 -15.87449 -7.48676599914958 120.606706209958 -15.87449 -7.76555028093768 120.092580400546 -15.87449 -7.93928591960233 119.534134385668 -89.2744838964844 -5.00148009865316 121.926416137292 -34.2244884741211 -5.00148009865316 121.926416137292 -52.5744869482422 -5.00148009865316 121.926416137292 -70.9244854223633 -5.00148009865316 121.926416137292 -89.2744838964844 -8.00137007243509 118.952591969639 -34.2244884741211 -8.00137007243509 118.952591969639 -52.5744869482422 -8.00137007243509 118.952591969639 -70.9244854223633 -8.00137007243509 118.952591969639 -89.2744838964844 -5.58354215844431 121.869409276067 -89.2744838964844 -6.1434830419926 121.700553625862 -89.2744838964844 -6.66002213233019 121.426266564869 -89.2744838964844 -7.11352830257678 121.056972404038 -89.2744838964844 -7.48676599914958 120.606706209958 -89.2744838964844 -7.76555028093768 120.092580400546 -89.2744838964844 -7.93928591960233 119.534134385668 0 0 1.56207232918517 0 0.195259041148146 0 0.390518082296293 0 0.585777123444439 0 0.781036164592585 0 0.976295205740731 0 1.17155424688888 0 1.36681328803702 0 0 73.3999938964844 0 18.3499984741211 0 36.6999969482422 0 55.0499954223633 1.56207232918519 73.3999938964844 1.56207232918519 18.3499984741211 1.56207232918519 36.6999969482422 1.56207232918519 55.0499954223633 0.195259041148146 73.3999938964844 0.390518082296293 73.3999938964844 0.585777123444439 73.3999938964844 0.781036164592585 73.3999938964844 0.976295205740731 73.3999938964844 1.17155424688888 73.3999938964844 1.36681328803702 73.3999938964844 1 3 11 12 11 3 19 3 4 20 4 5 20 5 6 13 12 18 10 13 18 18 12 3 18 3 19 4 20 19 6 21 20 23 7 8 24 8 9 15 16 9 15 9 2 16 24 9 21 7 22 22 7 23 24 17 14 24 23 8 24 16 17 7 21 6 
4 2 1 0.296434924584461
-15.87449 -1.09993 85.72282 -89.2744838964844 -1.09993 85.72282 -15.87449 -1.09987965703331 121.926410711915 -89.2744838964844 -1.09987965703331 121.926410711915 0 0 0 -73.3999938964844 36.20359071195 0 36.20359071195 -73.3999938964844 1 2 4 4 3 1 
4 2 1 0.295971454982613
-15.87449 -1.09987965703331 121.926410711915 -89.2744838964844 -1.09987965703331 121.926410711915 -15.87449 -7.97542160765559 121.926420272712 -89.2744838964844 -7.97542160765559 121.926420272712 0 0 0 -73.3999938964844 6.87554195062893 0 6.87554195062893 -73.3999938964844 1 2 4 4 3 1 
13 12 1 0.296434924584461
-15.87449 -1.09987965703331 121.926410711915 -15.87449 -5.00148009865316 121.926416137292 -15.87449 -5.58354215844431 121.869409276067 -15.87449 -6.1434830419926 121.700553625862 -15.87449 -6.66002213233019 121.426266564869 -15.87449 -7.11352830257678 121.056972404038 -15.87449 -7.48676599914958 120.606706209958 -15.87449 -7.76555028093768 120.092580400546 -15.87449 -7.93928591960233 119.534134385668 -15.87449 -8.00137007243509 118.952591969639 -15.87449 -1.09993 85.72282 -15.87449 -8.29132 85.72282 -15.87449 -4.69559982851666 103.824618068646 18.101800711915 -3.59574534296669 18.101806137292 0.305855098653161 18.0447992760673 0.887917158444306 17.8759436258621 1.4478580419926 17.601656564869 1.96439713233019 17.2323624040387 2.41790330257678 16.7820962099579 2.79114099914958 16.2679704005464 3.06992528093768 15.7095243856687 3.24366091960233 15.1279819696386 3.30574507243509 -18.10179 -3.595695 -18.10179 3.595695 8.06864598956736e-006 -2.5171483344355e-005 10 13 1 1 13 11 9 10 2 11 13 12 13 10 12 9 2 8 7 8 2 4 2 3 7 2 6 6 2 5 2 4 5 2 10 1 
5 4 1 0.295971454982613
-15.87449 -1.09993 85.72282 -15.87449 -1.09987965703331 121.926410711915 -15.87449 -7.97542160765559 121.926420272712 -15.87449 -8.29132 85.72282 -15.87449 -4.69559982851666 103.824620136356 -18.10179 -3.595695 18.101800711915 -3.59574534296669 18.101810272712 3.27979660765559 -18.10179 3.595695 1.0136355989232e-005 -2.5171483344355e-005 4 1 5 5 2 3 2 5 1 5 3 4 
7 5 1 0.296434924584461
-15.87449 -8.00137007243509 118.952591969639 -15.87449 -8.29132 85.72282 -34.2244884741211 -8.00137007243509 118.952591969639 -52.5744869482422 -8.00137007243509 118.952591969639 -70.9244854223633 -8.00137007243509 118.952591969639 -89.2744838964844 -8.00137007243509 118.952591969639 -89.2744838964844 -8.29132 85.72282 2.9739415090049 0 36.2049784491111 0 2.97394150900529 -18.3499984741211 2.97394150900529 -36.6999969482422 2.97394150900529 -55.0499954223633 2.97394150900529 -73.3999938964844 36.2049784491111 -73.3999938964844 5 6 7 4 7 2 7 4 5 3 2 1 2 3 4 
4 2 1 0.296434924584461
-15.87449 -8.29132 85.72282 -89.2744838964844 -8.29132 85.72282 -15.87449 -1.09993 85.72282 -89.2744838964844 -1.09993 85.72282 0 0 0 -73.3999938964844 7.19139 0 7.19139 -73.3999938964844 1 2 4 4 3 1 
4 2 1 0.295971454982613
-15.87449 -7.97542160765559 121.926420272712 -89.2744838964844 -7.97542160765559 121.926420272712 -15.87449 -8.29132 85.72282 -89.2744838964844 -8.29132 85.72282 0 0 0 -73.3999938964844 36.2049784491111 0 36.2049784491111 -73.3999938964844 1 2 4 4 3 1 

TShapes 37
Ve
1e-007
-15.87449 -5.00148009865316 121.926416137292
0 0

0101100
*
Ve
1e-007
-15.87449 -1.09987965703331 121.926410711915
0 0

0101100
*
Ed
 1e-007 1 1 0
1  1 0 0 3.90160044162362
6  1 1 0
6  2 2 0
0

0101000
-37 0 +36 0 *
Ve
1e-007
-89.2744838964844 -5.00148009865316 121.926416137292
0 0

0101100
*
Ed
 1e-007 1 1 0
1  2 0 0 73.3999938964844
2  1 2 0 0 73.3999938964844
2  2 1 0 0 73.3999938964844
4 G1 2 0 1 0
6  3 3 0
6  4 1 0
0

0101000
+37 0 -34 0 *
Ed
 1e-007 1 1 0
1  3 0 0 73.3999938964844
6  5 1 0
6  6 4 0
6  7 5 0
0

0101000
+36 0 -36 7 *
Ed
 1e-007 1 1 0
1  1 0 0 3.90160044162362
6  8 1 8
6  9 6 0
0

0101000
-34 8 +36 0 *
Wi

0101100
-35 0 -33 0 +32 0 +31 7 *
Fa
0  1e-007 1 0
2  1
0101000
+30 0 *
Ve
1e-007
-15.87449 -8.00137007243509 118.952591969639
0 0

0101100
*
Ed
 1e-007 1 1 0
1  4 0 3.14159126303804 4.70366359222321
2  3 2 0 3.14159126303804 4.70366359222321
2  4 3 0 3.14159126303804 4.70366359222321
6  10 3 0
6  11 2 0
0

0101000
+37 0 -28 0 *
Ve
1e-007
-15.87449 -1.09993 85.72282
0 0

0101100
*
Ed
 1e-007 1 1 0
1  5 0 0 36.20359071195
6  12 2 0
6  13 4 8
6  14 4 0
6  15 6 0
6  16 7 0
0

0101000
+26 0 -36 0 *
Ve
1.79235957298296e-007
-15.87449 -8.29132 85.72282
0 0

0101100
*
Ed
 1e-007 1 1 0
1  6 0 2.97394150900529 36.2049784491111
6  17 2 0
6  18 8 0
0

0101000
+28 0 -24 0 *
Ed
 1e-007 1 1 0
1  7 0 0 7.19139
6  19 2 0
6  20 6 0
6  21 9 0
6  22 9 8
6  23 7 0
0

0101000
+24 0 -26 0 *
Wi

0101100
+35 0 +27 0 +25 0 +23 0 +22 0 *
Fa
0  1e-007 3 0
2  2
0101000
+21 0 *
Ve
1e-007
-89.2744838964844 -8.00137007243509 118.952591969639
0 0

0101100
*
Ed
 1e-007 1 1 0
1  8 0 0 73.3999938964844
2  5 2 0 0 73.3999938964844
2  6 4 0 0 73.3999938964844
4 G1 2 0 4 0
6  24 3 0
6  25 8 0
0

0101000
+28 0 -19 0 *
Ed
 1e-007 1 1 0
1  9 0 3.14159126303804 4.70366359222321
2  7 2 0 3.14159126303804 4.70366359222321
2  8 3 7 3.14159126303804 4.70366359222321
6  26 3 0
6  27 6 7
0

0101000
+34 0 -19 0 *
Wi

0101100
+27 0 -33 0 +18 0 -17 0 *
Fa
0  0 2 0
2  3
0101000
+16 0 *
Ed
 1e-007 1 1 0
1  10 0 0 73.3999938964844
6  28 4 0
6  29 9 0
0

0101000
+26 0 -26 7 *
Wi

0101000
+14 0 -32 0 -25 0 +25 7 *
Fa
0  1e-007 5 0
2  4
0101000
+13 0 *
Ed
 1e-007 1 1 0
1  6 0 2.97394150900529 36.2049784491111
6  30 6 0
6  31 8 8
0

0101000
+19 8 -24 0 *
Wi

0101100
+31 7 +17 0 +25 7 +11 7 +22 7 *
Fa
0  1e-007 3 0
2  6
0101000
+10 8 *
Ed
 1.79235957298296e-007 1 1 0
1  11 0 0 73.3999938964844
6  32 8 0
6  33 9 0
6  34 10 0
0

0101000
+24 0 -24 7 *
Wi

0101100
-23 0 +18 0 -8 0 +11 7 *
Fa
0  1e-007 4 0
2  8
0101000
+7 0 *
Wi

0101000
+8 0 -14 0 -22 0 +22 7 *
Fa
0  1e-007 6 0
2  9
0101000
+5 0 *
Sh

0101100
+29 0 +20 0 -15 0 +12 0 -9 7 +6 0 +4 0 *
So

0100000
+3 0 *
Co

0100000
+2 0 *

+1 6 