DBRep_DrawableShape

CASCADE Topology V1, (c) Matra-Datavision
Locations 0
Curve2ds 40
6 0 8 0.99999991513367992 0  0.99999995386320928 0.053471312068939909  0.99763852798538122 0.10785785003343459  0.99298205925332605 0.161793000452673  0.98624892782916074 0.21427908291376405  0.9776253506575765 0.26421898448867126  0.96734417642532389 0.31069984988751598  0.95565522461317043 0.35316302053548521  0.94278213780319609 0.39131160794904568  
6 0 8 0.94278213780319609 0.39131160794904568  0.92865347865895553 0.43318100542586835  0.91310716582645923 0.46982669202551869  0.89638595529192799 0.50104401135671517  0.87872383929874454 0.52669586001146274  0.86034063495835522 0.54694014563202475  0.84141935185371031 0.56174961504001886  0.82210107829971812 0.5712813043828725  0.80247621029977589 0.57542113498555481  
6 0 8 0.80247621029977534 0.57542113498555647  0.80196691422171451 0.57552857007708369  0.80145114658118521 0.57563461964550233  0.80091793731262229 0.57573735862350772  0.80038296869136083 0.57583974311974806  0.79983542694136733 0.57593947976100712  0.79927597865831934 0.57603663731596266  0.79870424164281351 0.57613106493484356  0.79812052182207238 0.57622268890266004  
6 0 8 0.79812052182207238 0.57622268890266004  0.79771470697544467 0.5762863878985236  0.79730313774845707 0.57634872618791777  0.79688573193342915 0.57640966971339491  0.79646250129365104 0.57646918511575262  0.79603293501553263 0.57652707366894074  0.79559621830939242 0.57658303600098548  0.79515188430995432 0.57663685184946334  0.7947004974154207 0.57668855780485484  
6 0 8 0.7947004974154207 0.57668855780485484  0.79436269231861767 0.57672725306933392  0.79402091377563866 0.57676477196810361  0.79367535543418366 0.57680111530052114  0.79332644154740051 0.57683638625494404  0.79297481083946797 0.57687078307142003  0.79262121256253903 0.57690456047926109  0.79226631475169451 0.57693796078961224  0.79191042468145056 0.57697111539994383  
6 0 8 0.79191042468145056 0.57697111539994383  0.79138195247530541 0.57702034770938648  0.79085132576187733 0.57706904944216508  0.79031974734071953 0.57711768510268524  0.78978756578354881 0.57716636969175483  0.7892532625055324 0.57721448714029933  0.78871566246592073 0.57726157786984522  0.78817567131107258 0.5773080215312707  0.78763384177645857 0.57735404173024651  
6 0 8 0.78763384177645857 0.57735404173024651  0.78709610291954946 0.57739971448821004  0.7865565280621799 0.57744491582808488  0.7860165155323583 0.57749027901118888  0.78547318928935483 0.57753451524395139  0.78493383047945053 0.57758081486812096  0.78437824862854266 0.57762035178345061  0.78383378224332623 0.57766523395060909  0.78328378195933868 0.57770781585318509  
6 0 6 0.78328378195933879 0.57770781585315312  0.78029897155380445 0.57793890465359832  0.7772130004382577 0.57815940789731746  0.77402765146782337 0.5783689966084592  0.77074628444922444 0.57856769559935262  0.76737462885137964 0.57875597920960986  0.76392094625301787 0.57893473540063245  
6 0 7 0.76392094625301776 0.57893473540063245  0.75891006564460173 0.57919408926588145  0.75365246674444708 0.57943805039393304  0.74816679675572495 0.57966767009982734  0.74248253538514686 0.57988582071579808  0.73664614804053274 0.580097628843534  0.73071197163642987 0.58030901308136085  0.72472836990334666 0.58052546329830224  
6 0 7 0.72472836990334655 0.58052546329830224  0.71923611250268737 0.58072413967398728  0.71364997551647158 0.58092912998227408  0.70798707876007616 0.58114534257373529  0.7022710895606048 0.58137764940012004  0.69653091520725574 0.58163024270840435  0.69079895046762929 0.58190605966994902  0.68510888016997229 0.58220627494476251  
6 0 7 0.68510888016997229 0.58220627494476251  0.67904052178334229 0.58252644917555529  0.6730176459344368 0.58287449209279485  0.66708501698955802 0.58325169598253668  0.66127630478796984 0.58365771739649919  0.65561281861013609 0.5840907182474635  0.65010841632537397 0.58454814836921754  0.6447715913171379 0.5850270059358208  
6 0 8 0.64477159131713846 0.5850270059358208  0.64198539045151737 0.5852770035213738  0.63912616997689664 0.58554323987940415  0.63618760623567816 0.58582739879801782  0.63316261301494015 0.58613145080843743  0.63004335661016386 0.58645765383426751  0.62682079999639828 0.58680866875773829  0.623483776106871 0.58718778990292986  0.62001759021904013 0.58759929043597559  
6 0 8 0.62001759021904013 0.58759929043597559  0.61570004959248115 0.58811186256187131  0.61119998801503794 0.5886725484602805  0.60647244553599944 0.58929124480222717  0.60147660569398997 0.58997915626943198  0.59617381329015473 0.59074956099480636  0.59052835112936664 0.59161771437737176  0.58450484455734375 0.59260164010501415  0.57805616262157189 0.59372555721848208  
6 0 8 0.57805616262157189 0.59372555721848208  0.5716672466711914 0.59483905793764591  0.5647369652773031 0.59611159175181527  0.55753059576563657 0.59751691502441107  0.55027253459032954 0.59902351431209344  0.54314921542771866 0.60059112655987923  0.53631762940149053 0.60217401347095312  0.52991580547780359 0.60372306448734303  0.52407048713326132 0.60518782098130641  
6 0 8 0.52407048713326132 0.60518782098130641  0.51727223000970368 0.60689137084504663  0.5110179523433539 0.60853320865939464  0.50519502782840764 0.61012023289341644  0.4997517927261485 0.61165303598544629  0.49463359065771495 0.6131351898922508  0.4897966811787296 0.61457133165073619  0.48519346562307264 0.61596907963348757  0.48077596624316976 0.61733858836328948  
6 0 7 0.48077596624316937 0.6173385883632897  0.46701874318196102 0.62160358886693912  0.45402791249965058 0.62592263774514512  0.44171622188178122 0.63024747524131874  0.4300178524489463 0.63454214522086272  0.41886606987445268 0.63878342661214293  0.40819337505785319 0.64295981438132721  0.39792718502519736 0.64706954935635208  
6 0 5 0.39792718502519742 0.6470695493563523  0.38926211393366672 0.65053832848596749  0.38080838054495458 0.65399543572702812  0.37254798623576957 0.65742701914311552  0.36446534907235884 0.66082108792191863  0.35654531398634709 0.66416675773984146  
6 0 4 0.3565453139863472 0.6641667577398418  0.35129589427757585 0.66638427633546815  0.34610764184119308 0.66858541863714294  0.34097617755005633 0.6707656228114367  0.33589743551214918 0.67292027067396543  
6 0 8 0.33589743551214912 0.67292027067396509  0.33465619462080637 0.67344686505766349  0.33342249640972177 0.6739756791348358  0.33217987295400175 0.67449550664533897  0.33092595196739194 0.67500451587792631  0.32966036833016238 0.67550219134662293  0.32838520339996324 0.67598949932285868  0.32710075194361155 0.67646608838066236  0.32580735597730071 0.67693151383364292  
6 0 8 0.32580735597730071 0.67693151383364292  0.32452541688708592 0.67739281655709149  0.32323431045024259 0.67784328884426959  0.32193395465379676 0.67828247115622897  0.3206240547884629 0.67870973460542228  0.31930383543122887 0.6791239368294093  0.31797410975298851 0.6795253438306208  0.31663728567819849 0.67991558983044587  0.31529090842353402 0.68029144718589474  
6 0 7 0.31529090842353419 0.68029144718589507  0.30806411148963575 0.68230889420865914  0.30054534191059518 0.68394161303861989  0.29281576062662812 0.68510091150872843  0.28497172057872344 0.68571917726117726  0.27712543562271696 0.68576561903964994  0.26940586287567286 0.68525924518637304  0.26195979849456996 0.68427907934396792  
6 0 7 0.26195979849456996 0.68427907934396792  0.25292954240615717 0.6830903777543742  0.24428668508989834 0.68120273855632596  0.23611311608696789 0.67872875710721703  0.22841569824934904 0.6758020445833326  0.22117454430800423 0.67252595610660248  0.21434481578156939 0.66897428741471532  0.2078649951927023 0.66518154097087101  
6 0 7 0.2078649951927023 0.66518154097087101  0.19817768734840516 0.65951139904749589  0.1893099885994888 0.65332471635399969  0.1810912686484982 0.64677112001499926  0.17343652354119002 0.63993795786854735  0.16626596705201568 0.63289069026926104  0.15951748965614204 0.62566563399423025  0.15313251504848172 0.61827811513054232  
6 0 8 0.15313251504848166 0.61827811513054221  0.13856157289425805 0.60141929945148098  0.12423407911245998 0.58186603772903334  0.11015783975850103 0.55938588577042814  0.096383226491171148 0.53368126674752303  0.082998312700908461 0.50442409435972901  0.070133679091790621 0.47122136588705671  0.057951718826877392 0.43369433079847247  0.046662968750796133 0.39131542971938427  
6 0 8 0.046662968750796133 0.39131542971938427  0.036796151478823237 0.35427458194471806  0.027607879365195362 0.313514018846411  0.01926066368359591 0.26874268024221759  0.012011089091406354 0.21993830205494835  0.006199574489031346 0.16744502089758406  0.0020934220883675929 0.11225726827906672  -1.6584230698359764e-08 0.055746140202325774  2.6948350839023361e-08 0  
6 0 1 0 0  0.29990212121878096 0  
6 0 8 0.34027601744038016 0.19754693901470105  0.33141950399373815 0.18024371272672862  0.32346900599589717 0.1604961660510314  0.31637298870143776 0.13838806871904913  0.31025192665895962 0.11396364510507065  0.30530326093083771 0.087425740822379042  0.30175658845271169 0.059144325453577916  0.2999021516600916 0.029683248346806863  0.29990212121878101 0  
6 0 8 0.38975468226682108 0.25091986431126534  0.38275264424482836 0.2483673675318627  0.37593193714763912 0.24445287875359578  0.36932732383865263 0.23927612858615427  0.36296542394032622 0.23293482862000434  0.35686616826689077 0.2255203434628425  0.35104433296201415 0.21711270592135154  0.34551115334140803 0.20777497532825948  0.34027601744038016 0.19754693901470105  
6 0 8 0.44153935478632494 0.2354889991482014  0.43522787090137294 0.24183246076230988  0.4287492318067494 0.24693308800504504  0.42217176423088648 0.25073163381280206  0.4155578515249469 0.25322027940290964  0.40896330318248469 0.25442611885754135  0.40243717403576867 0.25439911705927426  0.39602203312877143 0.25320454097829698  0.38975468226682108 0.25091986431126534  
6 0 8 0.46918367496841473 0.21059011892162516  0.46530464384679276 0.21369008673577689  0.46157380807768311 0.21679462359526327  0.45797367177550313 0.21990303681290815  0.45449080768825734 0.22301477055167127  0.45111444229724879 0.22612941386319882  0.4478354930088696 0.22924670748557066  0.44464605743847263 0.23236654940024526  0.4415393547863245 0.23548899914820273  
6 0 8 0.5136446606534405 0.18187949987221935  0.50663724641958763 0.18536394131610373  0.50024228234560975 0.18890778157835392  0.49429699080919687 0.19248765058056377  0.48872630743949652 0.19608900772293839  0.48347361381997744 0.1997023460780534  0.47848929262263812 0.20332280936836566  0.47373776561338615 0.20695067031203582  0.46918367496841473 0.21059011892162516  
6 0 8 0.55322713645435773 0.16718318655679695  0.54716842660032239 0.16868191236949748  0.54147121167566159 0.17035039919569295  0.53612187309658188 0.17213939798247888  0.53109890421931216 0.17400947793763116  0.52637476875853517 0.17593157957180677  0.5219169048653759 0.17788731405459229  0.51768787486494527 0.17986900888440122  0.5136446606534405 0.18187949987221935  
6 0 8 0.60104479193704619 0.16235877114250927  0.59561080889238172 0.16211420226181714  0.58977651322572999 0.1620576241758562  0.58366066596528288 0.16224710942315099  0.57738276653832332 0.16272084331114145  0.57106665954130076 0.16349001885370196  0.56484236088449957 0.16453293346618358  0.55884717021287766 0.16579297480131375  0.55322713645435773 0.16718318655679695  
6 0 8 0.63626355047480687 0.16775200165982479  0.63258866835027328 0.16678863422962173  0.62876040180622506 0.16588163750484822  0.62474848768836599 0.16503656689823284  0.62052518953164992 0.16426502128788825  0.6160655090103283 0.16358449357446411  0.61134672207866969 0.16301856088914848  0.60634723953189607 0.16259741996834143  0.60104479193704619 0.16235877114250927  
6 0 8 0.68601583481771966 0.18871448999807405  0.68097183033043085 0.18576425734098995  0.67570617193550742 0.18288174777812499  0.67017649686142544 0.18006881203577665  0.66433101245746018 0.17733613605555459  0.65811979729874925 0.17469919319261346  0.6514545964186218 0.1721903015673357  0.64425093782045795 0.16984588890857372  0.63626355047480687 0.16775200165982479  
6 0 8 0.71860812257283146 0.21147444555387376  0.71497165284604292 0.20851111875073361  0.71123337770722017 0.20557614427246451  0.70738425320026233 0.20267139096910841  0.70341351496543336 0.199799353897542  0.69930870887056207 0.19696313679799524  0.69505483578670968 0.1941666233208236  0.69063261050830071 0.19141483700353548  0.68601583481771966 0.18871448999807405  
6 0 8 0.80547581380061217 0.17076736422239397  0.79674062066269591 0.1880991764208432  0.78708653120913796 0.20258887845617085  0.77662606301692327 0.21400161202123225  0.76548835162087103 0.22193305863267623  0.75385231301650613 0.22595286481894364  0.74194562831876998 0.22568195282662631  0.73006760535955739 0.22081270670379211  0.71860812257283113 0.21147444555387446  
6 0 8 0.83875903229867266 0.037820804722851056  0.83715609154772563 0.058057429730619323  0.83462327959509008 0.077617650199762037  0.83126857044415692 0.096238810378784401  0.82720345025920705 0.11374415374915794  0.82252550449843209 0.13001199108787465  0.81731404865000568 0.14496623679048176  0.81162556753652015 0.15856541572112753  0.80547581380061217 0.17076736422239397  
6 0 8 0.84025887036647162 0  0.84025992882398637 0.0047485182207792345  0.84020271987948114 0.0095019835002831902  0.84009785215062893 0.014261968625538076  0.83993005456443004 0.019007639524482065  0.83971762342203649 0.023748146714580042  0.83944721895748353 0.028464184444521444  0.83912837931986284 0.033157914244119228  0.83875903229867266 0.037820804722851056  
6 0 1 0.84025896643704856 0  1 0  
Curves 53
6 0 2 122.51199990510943 2.5837251764778033 18.667695350613162  122.75177512761675 1.3030811780924669 18.736660237463944  122.75191912382985 -0.0016631927416728143 18.736941069903949  
6 0 4 117.26179692902934 11.19890402355731 17.305023074827158  119.35211586848533 9.5524864490610408 17.801962257981117  120.8828714678731 7.5333305900099257 18.206840906886377  122.01031710747827 5.2527733119795741 18.523831562380693  122.51199990510946 2.5837251764778166 18.667695350613158  
6 0 4 103.57208426156846 13.701606160647129 14.639822240233135  107.30671112327997 14.868211747453973 15.219792024015716  110.83010293748838 14.579309534019274 15.870223568072596  114.21284458538268 13.593031274268981 16.579963220074671  117.26179692902927 11.198904023557327 17.305023074827151  
6 0 2 99.658902736605171 12.647670690195978 14.093912659733114  101.64061840714156 13.095384802261819 14.340120252517647  103.57208696627215 13.701607009657071 14.639822659733952  
6 0 2 93.659430480781396 11.670379064269305 13.485780380968295  96.69539396423319 11.978474818563059 13.725660268545518  99.658902736605199 12.647670690195977 14.093912659733123  
6 0 2 89.398440776461101 11.41780769959532 13.216576241395162  91.536381017850147 11.455019411378487 13.318269092290814  93.659430480781367 11.670379064269307 13.48578038096829  
6 0 2 83.602247696153938 11.643857955606782 13.063819244746885  86.495621452133676 11.367524085837101 13.078676954152161  89.398440776461072 11.417807699595318 13.216576241395162  
6 0 2 78.801349358000934 12.330438363818621 13.12406438081938  81.185070436485731 11.874820852910922 13.051533604124682  83.602247696153981 11.643857955606784 13.063819244746886  
6 0 2 73.41352143397917 13.663117758427415 13.397914582281228  76.068909905689736 12.85286692900659 13.2074219883946  78.80134935800092 12.330438363818622 13.124064380819378  
6 0 2 70.069800632350464 14.810323330514366 13.682151536558475  71.720350711837554 14.17982469155379 13.519294380568525  73.41352143397917 13.663117758427417 13.397914582281224  
6 0 4 61.956213111825122 15.732059831122006 14.658843770734062  64.035597942219582 16.020780325515432 14.363966457620236  66.081165030931103 15.945064304111927 14.104660039910684  68.096124433946784 15.564076862735035 13.876774368490832  70.069798588930098 14.81032411112327 13.682151738076138  
6 0 4 54.278768712697165 12.541622448607196 15.916166957709581  55.9858700280299 13.841246253679296 15.595584724315032  57.845402175850374 14.784092935072062 15.27391952419009  59.82748514588318 15.436322120237524 14.960809634971447  61.956213111825114 15.732059831122005 14.658843770734062  
6 0 4 48.002189602784171 7.6520768832327724e-06 17.256863468699382  48.008216298133114 3.9203316794954906 17.255071275573428  49.289309285565828 7.2373546615198094 16.935909772385155  51.218306843245507 10.20874943290247 16.491680729515782  54.278768712697172 12.541622448607191 15.916166957709583  
6 0 6 137.18654939518322 1.4210854715202004e-14 29.229706323997334  137.1865552808209 3.7921163179884627 29.229708854808351  136.68414826797135 7.4985904057727506 29.013674965090498  135.7044041510359 10.94194964732686 28.611471704125687  134.31915699205931 14.069413262272853 28.0985960737017  132.59374698128602 16.81434115987107 27.514470583947009  130.59769196139987 19.167868995760635 26.889127327124086  
6 0 6 130.59769196139985 19.167868995760635 26.88912732712409  128.40695236448587 21.750947403497399 26.202791419177395  125.89209460869073 23.86026851854869 25.467397001032477  123.12411300675235 25.502500537386343 24.715663604195058  120.17461016625076 26.673209699879223 23.965107436272202  117.10275730410893 27.391722588469513 23.23015033673007  113.94053576731191 27.644589810635971 22.520553713961625  
6 0 5 113.94053576731186 27.644589810636049 22.520553713961611  113.84205824216438 27.652464571445851 22.49845554074696  113.74136954431737 27.660158271923294 22.475919703137183  113.63576547798031 27.667504547389839 22.452310724659295  113.52687940665596 27.674563954795882 22.428031854711111  113.41390720861757 27.681256905159923 22.402906117896173  
6 0 5 113.41390720861759 27.681256905159927 22.40290611789618  113.33536645397619 27.685909991330654 22.385438153524134  113.25486337432027 27.690385240098948 22.367563683913936  113.17250738375894 27.694690946109329 22.349313906889069  113.08749123710716 27.698724334078463 22.330502273427637  113.00006831253069 27.702482413255883 22.311194335819327  
6 0 5 113.00006831253066 27.702482413255879 22.311194335819323  112.9346434854987 27.705294852685775 22.296744825184813  112.86786278705762 27.707953783406428 22.28201563809483  112.79982696430127 27.710455551076361 22.267032776954824  112.7312066366022 27.712887144408427 22.251958161158569  112.66223992986869 27.715286762837806 22.23684942951547  
6 0 5 112.66223992986869 27.715286762837806 22.236849429515466  112.5598291274739 27.718850030687371 22.214414005177801  112.45666589576736 27.722344254490995 22.191906032987252  112.35358455650943 27.725891357545901 22.169525144620419  112.24914221904559 27.729271004330197 22.146932190988313  112.1440534282923 27.732595608099988 22.124299465219728  
6 0 5 112.1440534282923 27.732595608099992 22.124299465219728  112.03975803167111 27.735895111941382 22.101837610879862  111.9348173217851 27.73913334926366 22.079333970476849  111.82814056709176 27.742115036869041 22.05653704740228  111.72327911852869 27.745484506286115 22.034277750343051  111.61651482242056 27.748554573319765 22.011689376318785  
6 0 5 111.61651482242056 27.74855457331828 22.011689376318628  111.18196343502933 27.761050341446939 21.919750314019719  110.72862554036226 27.772802428872744 21.825532692315573  110.25687197562077 27.783781108427217 21.729421432307181  109.76769494358912 27.794010065725558 21.631958816788195  109.26307367708418 27.803574676842324 21.533833189311462  
6 0 5 109.26307367708417 27.803574676842324 21.533833189311462  108.40890435065447 27.819764635485452 21.367736540813446  107.49032418713816 27.83443565268756 21.195820319686803  106.51403010495871 27.847739023868307 21.021531937019841  105.50187690723084 27.860636544892188 20.850936320694711  104.47545760149497 27.874054733647085 20.688018216985775  
6 0 5 104.47545760149495 27.874054733647085 20.688018216985775  103.53332286733668 27.886371085867712 20.538478157217178  102.56572747628528 27.899317007791701 20.393274634818123  101.57993119450278 27.913698087277556 20.254530594074424  100.58916747027821 27.930296401498584 20.124735127766687  99.608150498420997 27.949306129336442 20.005316903670014  
6 0 5 99.608150498420997 27.949306129336442 20.005316903670014  98.561913412203026 27.969579664691519 19.877959499665373  97.526201574941666 27.992607161685125 19.762336813051071  96.520698531582482 28.01861087783146 19.660428509143767  95.554229176669892 28.047234659833475 19.571460909337976  94.630586813856041 28.077989600665557 19.494271446033874  
6 0 5 94.630586813856112 28.077989600665553 19.494271446033885  94.079493362102141 28.096339610565476 19.448216165890926  93.502884011601424 28.11679925555601 19.402946643042821  92.896191685948182 28.139821380156167 19.358639632435743  92.254500929587834 28.165955984894794 19.315597274557607  91.567748122649832 28.196300961278371 19.274394969410089  
6 0 5 91.567748122649832 28.196300961278371 19.274394969410089  90.712317040673497 28.234099184624679 19.223072671028216  89.79316951540747 28.278155848888854 19.174977283326893  88.778205704189787 28.331127002944111 19.130398680653823  87.646388112620684 28.396159691118886 19.092112303886449  86.366486684909617 28.479448142339987 19.06674729667834  
6 0 5 86.366486684909617 28.479448142339987 19.066747296678344  85.098447304480899 28.561964681345763 19.041617370788458  83.641975178416359 28.665204538126034 19.0283167380056  82.182137769134684 28.78268346957525 19.040205298665771  80.828223951532422 28.902602308782825 19.070735324693338  79.667885883225409 29.011642306902459 19.108161976301428  
6 0 5 79.667885883225381 29.011642306902459 19.108161976301432  78.318382558745455 29.138458658087437 19.151690144642025  77.158192624387041 29.257374249004862 19.206886012991191  76.115881298747269 29.369768333343668 19.266649474377441  75.175512826522464 29.475699899242844 19.329011497353399  74.299972260157148 29.578019441458363 19.394099117507299  
6 0 5 74.299972260157119 29.578019441458377 19.394099117507299  71.914147134805773 29.856837515697524 19.571461178704705  69.730753021497378 30.141550669824174 19.789812891135369  67.713345329904399 30.424264627467547 20.033386031724586  65.836895166967125 30.701268262254345 20.294007277017602  64.069260999627147 30.972282594178555 20.568861666942457  
6 0 5 64.069260999627147 30.972282594178566 20.568861666942453  63.003580097065395 31.135673188900313 20.734567376721166  61.965282082622267 31.298733531127581 20.907336090754509  60.952151914745464 31.460815545035263 21.086354517824073  59.962262417446354 31.62135299605854 21.270988165345326  58.993741153197099 31.779826830511166 21.460750124635169  
6 0 5 58.993741153197107 31.779826830511183 21.460750124635176  58.480190437050027 31.863856323902635 21.561369897982445  57.971544963039705 31.947484761529015 21.663647386859651  57.467591252734948 32.030625749886156 21.76751956571454  56.96812355250033 32.113191920361821 21.872931048792328  56.472944066996078 32.195094903043447 21.979832720092602  
6 0 5 56.472944066996064 32.195094903043426 21.979832720092602  56.23090104871541 32.235128962843504 22.032086102832025  55.991534691432207 32.27546973557552 22.084441178460317  55.744897562153348 32.313496006049313 22.138449214917618  55.496066282037468 32.350433472603711 22.193361364245131  55.244307902461394 32.385908791026566 22.249282603467286  
6 0 5 55.244307902461401 32.385908791026566 22.249282603467286  54.994779593672675 32.421069869774769 22.304708493449457  54.742246167736241 32.454812766416275 22.361154459743204  54.486171863120703 32.48683496505042 22.418717907807984  54.227731372262404 32.51747958119028 22.477231089742741  53.966179457646319 32.546230337209117 22.536806452496943  
6 0 5 53.966179457646341 32.546230337209138 22.536806452496943  52.737764652622296 32.681262246270123 22.816610397841249  51.437907800938163 32.778345752537717 23.12098136453843  50.102070578186463 32.822495178508916 23.443648685020619  48.778092328152468 32.80625471439798 23.773669091201246  47.526978704201497 32.742830987784025 24.093498955908899  
6 0 5 47.526978704201511 32.742830987784018 24.093498955908899  46.009683682061777 32.6659135097591 24.481374407316789  44.595808264205395 32.519396259899075 24.855217999316039  43.316611343056657 32.322891519994492 25.203562948890507  42.152918962810581 32.097506034063358 25.527554159570535  41.079689154211223 31.848537617946718 25.832436096941027  
6 0 5 41.079689154211209 31.848537617946715 25.832436096941024  39.475214554800147 31.476330755526355 26.288233467094759  38.082256413360589 31.053608848703892 26.6986743649279  36.830231241947345 30.604905721012532 27.07695530747359  35.698077253334489 30.138378947875061 27.427028236186203  34.658634196618621 29.656961165666676 27.755076697664116  
6 0 6 34.658634196618621 29.656961165666679 27.755076697664116  32.399511269422611 28.610648967687276 28.468056399407132  30.211126297671875 27.334707629811096 29.191502721913437  28.09552084168168 25.802658272902487 29.9248254645168  26.077982324869829 23.969257623077127 30.660520781250149  24.199035125087626 21.794256162486437 31.386042969185322  22.519126821408214 19.177100614765706 32.071945142064806  
6 0 6 22.519126821408207 19.177100614765703 32.071945142064806  21.05082004214885 16.889602407465976 32.67145096517541  19.733772498058297 14.263185340305313 33.241019072067409  18.616709631546691 11.235385761054651 33.756398109397196  17.791100110553764 7.7916923590506961 34.17669825868154  17.363883189726078 3.9534441880453843 34.405911375212433  17.363889535316094 -5.773159728050814e-15 34.405907970636463  
6 0 5 17.363886589191978 -7.5668638022108325e-15 34.405909551309605  23.921236784294958 -4.0032022475325934e-15 30.88771846736206  30.715601184725276 -1.759912832637114e-15 27.811284271673557  37.707316818645822 -2.8764797290887274e-16 25.197902198114932  44.853798916596823 7.0632785276162116e-16 23.063483719261633  52.111128893948042 1.4121861731707433e-15 21.417978902459218  
6 0 6 57.015116522490928 10.011720784187952 20.437407893322625  55.57554276987198 8.8918891891270064 20.695989378377444  54.345606723145728 7.5391200093311408 20.935029702451271  53.308966233028812 5.9529511667283987 21.149640534232859  52.529969905445867 4.1334423811473213 21.323012171713437  52.111133804942227 2.1050975947944761 21.417977788955408  52.111128893948049 3.5527136788005009e-15 21.417978902459218  
6 0 5 63.070344568040341 12.578085535119021 19.472341247885364  61.694435720730489 12.383528676922571 19.665577121381052  60.383371022765338 12.006857110089392 19.863805072113649  59.160923394289611 11.473363355737689 20.061464242657195  58.036244885915295 10.806047439487948 20.253989094413917  57.015116522490928 10.011720784187952 20.437407893322625  
6 0 5 69.449138003299993 11.840202860948565 18.696389761771208  68.201987683886813 12.326455879816708 18.824425307533087  66.898392719318693 12.64403741265966 18.970192752946854  65.586243825633105 12.780611699147599 19.130298349846715  64.301886509553313 12.752228561633025 19.299380602069235  63.070344568040348 12.578085535119026 19.47234124788536  
6 0 5 72.866918991470158 10.642384114267447 18.39275646640548  72.09883661015661 10.882009384488295 18.45053112598292  71.382485126821805 11.121731659550175 18.510213793768806  70.705844568355985 11.361373271858906 18.571246234979089  70.063022990674597 11.600853952091667 18.633366797247906  69.449138003299936 11.840202860948628 18.696389761771218  
6 0 6 78.375531750582724 9.2480964620562851 18.095789845939613  77.216907200255307 9.4749243337539042 18.133895729490416  76.200412664642187 9.7066830598743081 18.179483459366654  75.270484831466902 9.9401697602846433 18.229010914934019  74.415793881769744 10.174072405744132 18.281579722841233  73.618377426500885 10.407945159625598 18.336232249307507  72.866918991470158 10.642384114267449 18.39275646640548  
6 0 5 83.285696306066171 8.5285402003797053 18.024676062327728  82.08302026222924 8.6462840587852963 18.020073102105105  81.005859749541798 8.7872305877702637 18.029382038499385  80.044668477325928 8.9376857774841909 18.046964430751022  79.177750730311516 9.0910433219722968 18.069405748506885  78.375531750582709 9.2480964620562887 18.095789845939613  
6 0 5 89.215765427553237 8.2914645126541853 18.17776373065881  88.138310717987963 8.2721980400185977 18.126262824677557  86.92144977873329 8.2788258085852586 18.078870804796228  85.647160753077472 8.3278814589993537 18.045270900930092  84.401293542072622 8.4193214929254996 18.028945748855634  83.285696306066185 8.5285402003797035 18.024676062327728  
6 0 5 93.57625161393635 8.5565989927782127 18.456960232190649  92.849055552669725 8.48091030215069 18.39855349145153  92.068362038427907 8.4129131187790431 18.340810705642099  91.212909444908163 8.3542019807223369 18.28348165509286  90.267139177956025 8.3102646194355483 18.228018001385873  89.215765427553237 8.2914645126541853 18.177763730658803  
6 0 6 99.716491810666781 9.581733269135313 19.092965715864956  98.888503629067557 9.3901346669203427 18.987714013777719  98.00882900359079 9.2043554233790292 18.882289147328574  97.064062038393857 9.0245453642489561 18.776221280687608  96.028394809744725 8.853559981102272 18.669534114694077  94.893390599790095 8.6936906665698608 18.562749852571915  93.576251613936336 8.5565989927782145 18.456960232190653  
6 0 5 103.72119914938636 10.685722692775895 19.665165633220191  103.00779050632002 10.456673249248761 19.551828991546422  102.25871162599933 10.230986481707731 19.437983091472567  101.4673446895933 10.009212109517875 19.323568359429718  100.62592059135777 9.7921774361739136 19.20856993488891  99.716491810666795 9.5817332691353112 19.092965715864953  
6 0 6 114.29721301186265 8.7055741532316837 21.702067288328863  112.89072933227902 9.8388855093556256 21.380808912419855  111.27294914771488 10.699513226133618 21.029361380764925  109.4794286480877 11.265253502578835 20.664027280797619  107.55912210393861 11.482715653234296 20.301718293666493  105.59464938170389 11.287221070647421 19.962793898645504  103.72119914938629 10.685722692775927 19.665165633220187  
6 0 5 118.30176034916823 1.9913647677553694 22.684235807937927  117.99436213346898 3.6792472296201026 22.602752930273386  117.37466353478942 5.2330772856568784 22.440173201626639  116.51461442669154 6.5895164192868485 22.221986349533552  115.48544477179509 7.7481250432376063 21.973474209675004  114.29721301186268 8.7055741532316837 21.702067288328866  
6 0 5 118.48149439991479 6.9944050551384862e-15 22.732143262059729  118.48169730915826 0.40411052733622721 22.732197797448457  118.46235267857924 0.80686020108535517 22.726998591900266  118.42645796306674 1.2071497020068116 22.717378671586875  118.37259054998546 1.6024456146047679 22.703010961121613  118.30176034916823 1.9913647677553685 22.684235807937927  
6 0 5 118.48150591053732 7.0621237019229492e-15 22.732146355740291  122.30935576138825 7.8917162234379902e-15 23.760947941730805  126.10028837605753 8.9034627534045722e-15 24.927105247842839  129.84773092322857 1.0145826660913487e-14 26.22885219060209  133.54523745523025 1.1681358246089895e-14 27.663950020355202  137.18655906788788 1.3593299934017838e-14 29.229710483239131  
Polygon3D 0
PolygonOnTriangulations 0
Surfaces 1
8 0 0 6 8 17.363886589191978 -7.5668638022108325e-15 34.405909551309605  17.363886589191971 6.648628789079674 34.405909551309612  17.363886589191967 12.782390519348457 34.405909551309612  17.363732638851705 18.568781825845942 34.49490832904813  17.363397336625585 24.17979602778744 34.7621405291464  17.356453416629222 29.80493598490548 35.284912464116914  17.342004147609707 35.665474586891051 36.150838485882268  17.323195461425492 41.956569835343032 37.455067829237777  17.30236015709448 48.866665568429916 39.291234178326995  
35.584693010006802 2.3354268190196644e-15 24.629967015875415  35.584693010006802 6.6486287890796776 24.629967015875422  35.584693010006802 12.778825006879863 24.629967015875422  35.584538181880198 18.557359507921621 24.718978052527934  35.584303288705328 24.155070061521506 24.985841690534233  35.578106699181475 29.763423292938935 25.505685204658498  35.565392241707741 35.607066476553833 26.365046676194758  35.548945367735129 41.883057188423862 27.66107635669605  35.530835522655295 48.780282916366303 29.488363001410665  
55.562306384840099 2.450797901571111e-15 18.128434013014228  55.562306384840106 6.6486287890796776 18.128434013014232  55.562306384840106 12.776453747341188 18.128434013014232  55.562146565759761 18.549784130893329 18.21745753894016  55.562153699937006 24.138598239391342 18.484005760812359  55.557828145324692 29.735784215431792 19.001322138520692  55.549376630144288 35.568415313901134 19.855057075492851  55.538472294136284 41.8348307728916 21.144171447664849  55.526548881200497 48.724117508593864 22.964060224798143  
76.561502015515231 2.9623147739053117e-15 15.295918485679737  76.561502015515245 6.6486287890796785 15.295918485679742  76.561502015515245 12.775422481870057 15.295918485679742  76.561497906100556 18.546451621686266 15.384917936497406  76.561407063720054 24.131492553097857 15.651390785618791  76.560493860905467 29.723684948086149 16.167249123201323  76.558500701799261 35.551666731856173 17.018018002989884  76.55598368734465 41.814102785909526 18.303543216063265  76.553240621289831 48.700165385758915 20.119665614939638  
97.726737347858261 3.4791080968122756e-15 16.306978729127497  97.726737347858261 6.6486287890796794 16.306978729127504  97.726737347858261 12.775789419655663 16.306978729127504  97.726889856395729 18.547584433203635 16.395956418853949  97.726718852989748 24.134126753710536 16.662547729776019  97.729435345235402 29.727954764238163 17.178916452822602  97.734350105873219 35.557619983011818 18.03092346697985  97.740740725003889 41.821424312096497 19.317885248820918  97.747707634671229 48.708574893259296 21.135496616966229  
118.19059660581408 3.619126708751562e-15 21.06148747482592  118.19059660581408 6.6486287890796794 21.061487474825928  118.19059660581408 12.777523498458645 21.061487474825928  118.19074168122032 18.553119443373433 21.150454655462219  118.19086976518594 24.146178888986388 21.417292015456713  118.19591847820675 29.748173633358132 21.935635993292344  118.2061184962658 35.585842057459452 22.792028153809468  118.21929316019526 41.856550903351497 24.084345601796642  118.23376155097675 48.749383103199598 25.907660068595931  
137.18655906788794 1.3593299934017856e-14 29.229710483239128  137.18655906788794 6.6486287890796829 29.229710483239138  137.18655906788794 12.780502645130982 29.229710483239138  137.18670118632031 18.562655312544454 29.31866569036022  137.18699587345569 24.166849091265679 29.585837518281927  137.19331890092457 29.782870994913811 30.10684703023567  137.20643626718245 35.634571530945301 30.969198542311133  137.22345145498326 41.91772472130549 32.268913891571614  137.2422469989782 48.821079043547172 34.100203157421006  

Triangulations 0

TShapes 136
Ve
1e-07
122.511999905109 2.5837251764778 18.6676953506132
0 0

0101100
*
Ve
1e-07
122.75191912383 -0.00166319274167304 18.7369410699039
0 0

0101100
*
Ed
 1e-07 1 1 0
1  1 0 0 1
0

0101000
+136 0 -135 0 *
Wi

0101000
+134 0 *
Ve
1e-07
117.261796929029 11.1989040235573 17.3050230748272
0 0

0101100
*
Ve
1e-07
122.511999905109 2.58372517647782 18.6676953506132
0 0

0101100
*
Ed
 1e-07 1 1 0
1  2 0 0 1
0

0101000
+132 0 -131 0 *
Wi

0101000
+130 0 *
Ve
1e-07
103.572084261568 13.7016061606471 14.6398222402331
0 0

0101100
*
Ve
1e-07
117.261796929029 11.1989040235573 17.3050230748272
0 0

0101100
*
Ed
 1e-07 1 1 0
1  3 0 0 1
0

0101000
+128 0 -127 0 *
Wi

0101000
+126 0 *
Ve
1e-07
99.6589027366052 12.647670690196 14.0939126597331
0 0

0101100
*
Ve
1e-07
103.572086966272 13.7016070096571 14.639822659734
0 0

0101100
*
Ed
 1e-07 1 1 0
1  4 0 0 1
0

0101000
+124 0 -123 0 *
Wi

0101000
+122 0 *
Ve
1e-07
93.6594304807814 11.6703790642693 13.4857803809683
0 0

0101100
*
Ve
1e-07
99.6589027366052 12.647670690196 14.0939126597331
0 0

0101100
*
Ed
 1e-07 1 1 0
1  5 0 0 1
0

0101000
+120 0 -119 0 *
Wi

0101000
+118 0 *
Ve
1e-07
89.3984407764611 11.4178076995953 13.2165762413952
0 0

0101100
*
Ve
1e-07
93.6594304807814 11.6703790642693 13.4857803809683
0 0

0101100
*
Ed
 1e-07 1 1 0
1  6 0 0 1
0

0101000
+116 0 -115 0 *
Wi

0101000
+114 0 *
Ve
1e-07
83.6022476961539 11.6438579556068 13.0638192447469
0 0

0101100
*
Ve
1e-07
89.3984407764611 11.4178076995953 13.2165762413952
0 0

0101100
*
Ed
 1e-07 1 1 0
1  7 0 0 1
0

0101000
+112 0 -111 0 *
Wi

0101000
+110 0 *
Ve
1e-07
78.8013493580009 12.3304383638186 13.1240643808194
0 0

0101100
*
Ve
1e-07
83.602247696154 11.6438579556068 13.0638192447469
0 0

0101100
*
Ed
 1e-07 1 1 0
1  8 0 0 1
0

0101000
+108 0 -107 0 *
Wi

0101000
+106 0 *
Ve
1e-07
73.4135214339792 13.6631177584274 13.3979145822812
0 0

0101100
*
Ve
1e-07
78.8013493580009 12.3304383638186 13.1240643808194
0 0

0101100
*
Ed
 1e-07 1 1 0
1  9 0 0 1
0

0101000
+104 0 -103 0 *
Wi

0101000
+102 0 *
Ve
1e-07
70.0698006323505 14.8103233305144 13.6821515365585
0 0

0101100
*
Ve
1e-07
73.4135214339792 13.6631177584274 13.3979145822812
0 0

0101100
*
Ed
 1e-07 1 1 0
1  10 0 0 1
0

0101000
+100 0 -99 0 *
Wi

0101000
+98 0 *
Ve
1e-07
61.9562131118251 15.732059831122 14.6588437707341
0 0

0101100
*
Ve
1e-07
70.0697985889301 14.8103241111233 13.6821517380761
0 0

0101100
*
Ed
 1e-07 1 1 0
1  11 0 0 1
0

0101000
+96 0 -95 0 *
Wi

0101000
+94 0 *
Ve
1e-07
54.2787687126972 12.5416224486072 15.9161669577096
0 0

0101100
*
Ve
1e-07
61.9562131118251 15.732059831122 14.6588437707341
0 0

0101100
*
Ed
 1e-07 1 1 0
1  12 0 0 1
0

0101000
+92 0 -91 0 *
Wi

0101000
+90 0 *
Ve
1e-07
48.0021896027842 7.65207688323277e-06 17.2568634686994
0 0

0101100
*
Ve
1e-07
54.2787687126972 12.5416224486072 15.9161669577096
0 0

0101100
*
Ed
 1e-07 1 1 0
1  13 0 0 1
0

0101000
+88 0 -87 0 *
Wi

0101000
+86 0 *
Ve
0.0011
137.186554231536 1.35932973946042e-14 29.2297084036182
0 0

0101100
*
Ve
0.0011
130.5976919614 19.1678689957606 26.8891273271241
0 0

0101100
*
Ed
 0.000472694183347787 1 1 0
1  14 0 0 1
2  1 1 0 0 1
0

0101000
+84 0 -83 0 *
Ve
0.0011
113.940535767312 27.644589810636 22.5205537139616
0 0

0101100
*
Ed
 0.000107140377574451 1 1 0
1  15 0 0 1
2  2 1 0 0 1
0

0101000
+83 0 -81 0 *
Ve
0.0011
113.413907208618 27.6812569051599 22.4029061178962
0 0

0101100
*
Ed
 0.000417365803587609 1 1 0
1  16 0 0 1
2  3 1 0 0 1
0

0101000
+81 0 -79 0 *
Ve
0.0011
113.000068312531 27.7024824132559 22.3111943358193
0 0

0101100
*
Ed
 2.60647074182832e-05 1 1 0
1  17 0 0 1
2  4 1 0 0 1
0

0101000
+79 0 -77 0 *
Ve
0.0011
112.662239929869 27.7152867628378 22.2368494295155
0 0

0101100
*
Ed
 5.30342215223803e-06 1 1 0
1  18 0 0 1
2  5 1 0 0 1
0

0101000
+77 0 -75 0 *
Ve
0.0011
112.144053428292 27.7325956081 22.1242994652197
0 0

0101100
*
Ed
 3.12638942595199e-05 1 1 0
1  19 0 0 1
2  6 1 0 0 1
0

0101000
+75 0 -73 0 *
Ve
0.0011
111.616514822421 27.748554573319 22.0116893763187
0 0

0101100
*
Ed
 0.000652138132616393 1 1 0
1  20 0 0 1
2  7 1 0 0 1
0

0101000
+73 0 -71 0 *
Ve
0.0011
109.263073677084 27.8035746768423 21.5338331893115
0 0

0101100
*
Ed
 1.37920790409147e-06 1 1 0
1  21 0 0 1
2  8 1 0 0 1
0

0101000
+71 0 -69 0 *
Ve
0.0011
104.475457601495 27.8740547336471 20.6880182169858
0 0

0101100
*
Ed
 0.000150419834838073 1 1 0
1  22 0 0 1
2  9 1 0 0 1
0

0101000
+69 0 -67 0 *
Ve
0.0011
99.608150498421 27.9493061293364 20.00531690367
0 0

0101100
*
Ed
 7.74278702524884e-06 1 1 0
1  23 0 0 1
2  10 1 0 0 1
0

0101000
+67 0 -65 0 *
Ve
0.0011
94.6305868138561 28.0779896006656 19.4942714460339
0 0

0101100
*
Ed
 2.62516562384938e-05 1 1 0
1  24 0 0 1
2  11 1 0 0 1
0

0101000
+65 0 -63 0 *
Ve
0.0011
91.5677481226498 28.1963009612784 19.2743949694101
0 0

0101100
*
Ed
 2.8247331365303e-05 1 1 0
1  25 0 0 1
2  12 1 0 0 1
0

0101000
+63 0 -61 0 *
Ve
0.0011
86.3664866849096 28.47944814234 19.0667472966783
0 0

0101100
*
Ed
 0.000201807387445924 1 1 0
1  26 0 0 1
2  13 1 0 0 1
0

0101000
+61 0 -59 0 *
Ve
0.0011
79.6678858832254 29.0116423069025 19.1081619763014
0 0

0101100
*
Ed
 0.000119962897647247 1 1 0
1  27 0 0 1
2  14 1 0 0 1
0

0101000
+59 0 -57 0 *
Ve
0.0011
74.2999722601571 29.5780194414584 19.3940991175073
0 0

0101100
*
Ed
 0.000827600710673978 1 1 0
1  28 0 0 1
2  15 1 0 0 1
0

0101000
+57 0 -55 0 *
Ve
0.0011
64.0692609996271 30.9722825941786 20.5688616669425
0 0

0101100
*
Ed
 0.000133221610652906 1 1 0
1  29 0 0 1
2  16 1 0 0 1
0

0101000
+55 0 -53 0 *
Ve
0.0011
58.9937411531971 31.7798268305112 21.4607501246352
0 0

0101100
*
Ed
 2.04254803886923e-07 1 1 0
1  30 0 0 1
2  17 1 0 0 1
0

0101000
+53 0 -51 0 *
Ve
0.0011
56.4729440669961 32.1950949030434 21.9798327200926
0 0

0101100
*
Ed
 1e-07 1 1 0
1  31 0 0 1
2  18 1 0 0 1
0

0101000
+51 0 -49 0 *
Ve
0.0011
55.2443079024614 32.3859087910266 22.2492826034673
0 0

0101100
*
Ed
 0.000187677031798578 1 1 0
1  32 0 0 1
2  19 1 0 0 1
0

0101000
+49 0 -47 0 *
Ve
0.0011
53.9661794576463 32.5462303372091 22.5368064524969
0 0

0101100
*
Ed
 0.000130228282391202 1 1 0
1  33 0 0 1
2  20 1 0 0 1
0

0101000
+47 0 -45 0 *
Ve
0.0011
47.5269787042015 32.742830987784 24.0934989559089
0 0

0101100
*
Ed
 2.00626201857818e-05 1 1 0
1  34 0 0 1
2  21 1 0 0 1
0

0101000
+45 0 -43 0 *
Ve
0.0011
41.0796891542112 31.8485376179467 25.832436096941
0 0

0101100
*
Ed
 0.000328694344509763 1 1 0
1  35 0 0 1
2  22 1 0 0 1
0

0101000
+43 0 -41 0 *
Ve
0.0011
34.6586341966186 29.6569611656667 27.7550766976641
0 0

0101100
*
Ed
 0.000505204974818867 1 1 0
1  36 0 0 1
2  23 1 0 0 1
0

0101000
+41 0 -39 0 *
Ve
0.0011
22.5191268214082 19.1771006147657 32.0719451420648
0 0

0101100
*
Ed
 0.000100045418363241 1 1 0
1  37 0 0 1
2  24 1 0 0 1
0

0101000
+39 0 -37 0 *
Ve
0.0011
17.363888062254 -7.57262976788142e-15 34.405908760973
0 0

0101100
*
Ed
 0.000402875798033375 1 1 0
1  38 0 0 1
2  25 1 0 0 1
0

0101000
+37 0 -35 0 *
Ve
0.0011
52.111128893948 1.42966668328038e-15 21.4179789024592
0 0

0101100
*
Ed
 1.24811949608402e-06 1 1 0
1  39 0 0 1
2  26 1 0 0 1
0

0101000
+35 0 -33 0 *
Ve
0.0011
57.0151165224909 10.011720784188 20.4374078933226
0 0

0101100
*
Ed
 0.000329335886746134 1 1 0
1  40 0 0 1
2  27 1 0 0 1
0

0101000
+31 0 -33 0 *
Ve
0.0011
63.0703445680403 12.578085535119 19.4723412478854
0 0

0101100
*
Ed
 2.89772425316367e-05 1 1 0
1  41 0 0 1
2  28 1 0 0 1
0

0101000
+29 0 -31 0 *
Ve
0.0011
69.4491380033 11.8402028609486 18.6963897617712
0 0

0101100
*
Ed
 0.000116900928812391 1 1 0
1  42 0 0 1
2  29 1 0 0 1
0

0101000
+27 0 -29 0 *
Ve
0.0011
72.8669189914702 10.6423841142674 18.3927564664055
0 0

0101100
*
Ed
 2.70109537674767e-05 1 1 0
1  43 0 0 1
2  30 1 0 0 1
0

0101000
+25 0 -27 0 *
Ve
0.0011
78.3755317505827 9.24809646205629 18.0957898459396
0 0

0101100
*
Ed
 7.98091042061354e-05 1 1 0
1  44 0 0 1
2  31 1 0 0 1
0

0101000
+23 0 -25 0 *
Ve
0.0011
83.2856963060662 8.5285402003797 18.0246760623277
0 0

0101100
*
Ed
 5.23010459598581e-05 1 1 0
1  45 0 0 1
2  32 1 0 0 1
0

0101000
+21 0 -23 0 *
Ve
0.0011
89.2157654275532 8.29146451265419 18.1777637306588
0 0

0101100
*
Ed
 0.00011358930996027 1 1 0
1  46 0 0 1
2  33 1 0 0 1
0

0101000
+19 0 -21 0 *
Ve
0.0011
93.5762516139363 8.55659899277821 18.4569602321906
0 0

0101100
*
Ed
 4.06757503776386e-05 1 1 0
1  47 0 0 1
2  34 1 0 0 1
0

0101000
+17 0 -19 0 *
Ve
0.0011
99.7164918106668 9.58173326913531 19.092965715865
0 0

0101100
*
Ed
 0.000168012379124732 1 1 0
1  48 0 0 1
2  35 1 0 0 1
0

0101000
+15 0 -17 0 *
Ve
0.0011
103.721199149386 10.6857226927759 19.6651656332202
0 0

0101100
*
Ed
 5.31179055906695e-05 1 1 0
1  49 0 0 1
2  36 1 0 0 1
0

0101000
+13 0 -15 0 *
Ve
0.0011
114.297213011863 8.70557415323168 21.7020672883289
0 0

0101100
*
Ed
 0.000181453682551657 1 1 0
1  50 0 0 1
2  37 1 0 0 1
0

0101000
+11 0 -13 0 *
Ve
0.0011
118.301760349168 1.99136476775537 22.6842358079379
0 0

0101100
*
Ed
 0.000149056948228864 1 1 0
1  51 0 0 1
2  38 1 0 0 1
0

0101000
+9 0 -11 0 *
Ve
0.0011
118.481500155226 7.06212245460081e-15 22.7321448089
0 0

0101100
*
Ed
 0.000370566112959459 1 1 0
1  52 0 0 1
2  39 1 0 0 1
0

0101000
+7 0 -9 0 *
Ed
 1e-07 1 1 0
1  53 0 0 1
2  40 1 0 0 1
0

0101000
+7 0 -84 0 *
Wi

0101100
+82 0 +80 0 +78 0 +76 0 +74 0 +72 0 +70 0 +68 0 +66 0 +64 0 
+62 0 +60 0 +58 0 +56 0 +54 0 +52 0 +50 0 +48 0 +46 0 +44 0 
+42 0 +40 0 +38 0 +36 0 +34 0 +32 0 -30 0 -28 0 -26 0 -24 0 
-22 0 -20 0 -18 0 -16 0 -14 0 -12 0 -10 0 -8 0 -6 0 +5 0 
*
Fa
0  1e-07 1 0

0101000
+4 0 *
Sh

0101000
+3 0 *
Co

1100000
+133 0 +129 0 +125 0 +121 0 +117 0 +113 0 +109 0 +105 0 +101 0 +97 0 
+93 0 +89 0 +85 0 +2 0 *

+1 0 