DBRep_DrawableShape

CASCADE Topology V1, (c) Matra-Datavision
Locations 2
1
              1               0               0              15 
              0               1               0              28 
              0               0               1              29 
1
              1               0               0              24 
              0               1               0              22 
              0               0               1               9 
Curve2ds 24
8 -27.399999999999999 -3.5999999999999996
1 -10 9 -1 0 
8 -27.399999999999999 -3.5999999999999996
1 10 -6 -1 -0 
8 4.4000000000000004 24.5
1 1 2.5 0 1 
8 4.4000000000000004 24.5
1 -2.5 8 1 0 
8 -11.5 0.5
1 0.5 25 -1 0 
8 -11.5 0.5
1 -0.5 -8 -1 -0 
8 4.4000000000000004 24.5
1 11 2.5 0 1 
8 4.4000000000000004 24.5
1 -2.5 8 1 0 
8 -21 -2.7000000000000002
1 31 1 0 1 
8 -21 -2.7000000000000002
1 4 1 0 -1 
8 9.5 21.5
1 10.5 -18 1 0 
8 9.5 21.5
1 -10.5 4 1 0 
8 -21 -2.7000000000000002
1 21 1 0 1 
8 -21 -2.7000000000000002
1 4 1 0 -1 
1 0 0 0 1 
1 0 20 1 0 
1 0 0 0 -1 
1 20 0 0 1 
1 10 0 0 -1 
1 20 0 0 1 
1 0 -20 1 0 
1 0 20 1 0 
1 10 0 0 1 
1 0 20 1 0 
Curves 12
1 24 28 19 -0 0 -1 
1 17.5 28 30 1 0 0 
1 40 28 29.5 -0 0 -1 
1 17.5 28 40 1 0 0 
1 24 21 40 0 -1 0 
1 24 40 19.5 0 -0 1 
1 24 21 30 0 -1 0 
1 20 40 30 1 0 -0 
1 40 20 30 -0 1 0 
1 40 20 40 0 1 0 
1 40 40 30 0 0 1 
1 20 40 40 1 0 -0 
Polygon3D 0
PolygonOnTriangulations 0
Surfaces 6
1 0 0 0 -0 1 0 0 0 1 1 0 -0 
1 0 0 0 1 0 -0 0 0 1 0 -1 0 
1 20 20 30 0 0 1 1 0 -0 -0 1 0 
1 40 20 30 1 0 -0 0 0 1 0 -1 0 
1 20 20 40 0 0 1 1 0 -0 -0 1 0 
1 20 40 30 -0 1 0 0 0 1 1 0 -0 
Triangulations 0

TShapes 35
Ve
2.00001e-007
24 28 40
0 0

0101101
*
Ve
2.00001e-007
24 28 30
0 0

0101101
*
Ed
 1.0001000025e-007 1 1 0
1  1 0 -21 -11
2  1 1 1 -21 -11
2  2 2 2 -21 -11
0

0101000
+35 0 -34 0 *
Ve
2.00001e-007
40 28 30
0 0

0101101
*
Ed
 1.0001000025e-007 1 1 0
1  2 0 6.5 22.5
2  3 1 1 6.5 22.5
2  4 3 0 6.5 22.5
0

0101000
+34 0 -32 0 *
Ve
2.00001e-007
40 28 40
0 0

0101101
*
Ed
 1.0001000025e-007 1 1 0
1  3 0 -10.5 -0.5
2  5 1 1 -10.5 -0.5
2  6 4 0 -10.5 -0.5
0

0101000
+30 0 -32 0 *
Ed
 1.0001000025e-007 1 1 0
1  4 0 6.5 22.5
2  7 1 1 6.5 22.5
2  8 5 0 6.5 22.5
0

0101000
+35 0 -30 0 *
Wi

0101000
-33 0 -31 0 +29 0 +28 0 *
Fa
0  1e-007 1 1

0111000
+27 0 *
Ve
2.00001e-007
24 40 40
0 0

0101101
*
Ed
 1.0001000025e-007 1 1 0
1  5 0 -19 -7
2  9 2 2 -19 -7
2  10 5 0 -19 -7
0

0101000
+25 0 -35 0 *
Ve
2.00001e-007
24 40 30
0 0

0101101
*
Ed
 1.0001000025e-007 1 1 0
1  6 0 10.5 20.5
2  11 2 2 10.5 20.5
2  12 6 0 10.5 20.5
0

0101000
+23 0 -25 0 *
Ed
 1.0001000025e-007 1 1 0
1  7 0 -19 -7
2  13 2 2 -19 -7
2  14 3 0 -19 -7
0

0101000
+23 0 -34 0 *
Wi

0101000
+24 0 +22 0 -21 0 +33 0 *
Fa
0  1e-007 2 2

0111000
+20 0 *
Ve
1.0001000025e-007
40 40 30
0 0

0101101
*
Ed
 1.0001000025e-007 1 1 0
1  8 0 4 20
2  15 6 0 4 20
2  16 3 0 4 20
0

0101000
+23 0 -18 0 *
Ed
 1.0001000025e-007 1 1 0
1  9 0 8 20
2  17 4 0 8 20
2  18 3 0 8 20
0

0101000
+32 0 -18 0 *
Wi

0101000
+21 0 -17 0 +16 0 +31 0 *
Fa
0  1e-007 3 0

0111000
+15 0 *
Ve
1.0001000025e-007
40 40 40
0 0

0101101
*
Ed
 1.0001000025e-007 1 1 0
1  10 0 8 20
2  19 4 0 8 20
2  20 5 0 8 20
0

0101000
+30 0 -13 0 *
Ed
 1.0001000025e-007 1 1 0
1  11 0 0 10
2  21 4 0 0 10
2  22 6 0 0 10
0

0101000
-13 0 +18 0 *
Wi

0101000
-12 0 +11 0 +16 0 +29 0 *
Fa
0  1e-007 4 0

0111000
+10 0 *
Ed
 1.0001000025e-007 1 1 0
1  12 0 4 20
2  23 6 0 4 20
2  24 5 0 4 20
0

0101000
+25 0 -13 0 *
Wi

0101000
+24 0 -8 0 +12 0 +28 0 *
Fa
0  1e-007 5 0

0111000
+7 0 *
Wi

0101000
-17 0 -11 0 +8 0 +22 0 *
Fa
0  1e-007 6 0

0111000
+5 0 *
Sh

0101100
-26 0 -19 0 -14 0 +9 0 +6 0 +4 0 *
So

0100000
+3 0 *
Co

1100000
+2 0 *

+1 0 
0

