DBRep_DrawableShape

CASCADE Topology V1, (c) Matra-Datavision
Locations 0
Curve2ds 14
1 0 0 1 0 
1 0 0 1 0 
1 1 0 0 1 
1 1 0 1 0 
1 0 1 1 0 
8 0 1
1 3 0 -1 -0 
1 0 0 0 1 
8 0 1
1 4 0 -1 -0 
1 2 0 0 1 
1 2 0 0 1 
1 0 1 1 0 
1 1 -1 0 1 
1 1 0 0 1 
1 1 0 0 1 
Curves 7
7 0 0  5 6 2  1.722502404431296 -5.9257219029845905 -2.5630635601892742  3.5779619012292168 -3.8072975712507322 -1.7806734164176963  5.3564188848800551 -1.6114582793809347 -1.0882540868289119  6.9418730164707902 0.74332233988357466 -0.49875839604556549  8.5215554497870265 3.1537278960447086 -0.095141609981613126  10.00371713939689 5.6496628131325881 0.23566388452675824 
 0 6 1 6
7 0 0  1 2 2  10.00371713939689 5.6496628131325881 0.23566388452675824  8.9737280400906343 6.9913840253036259 -5.0453839652402923 
 0 2 1 2
7 0 0  4 5 2  1.2600542635820915 -3.6786913387179516 -7.620395769271763  3.4173723669136082 -1.2368734622861326 -6.7267181430888039  5.4077390264799838 1.3566986691395702 -5.968029908219906  7.2465115726826683 4.114921387502708 -5.4296850836916404  8.9737280400906343 6.9913840253036259 -5.0453839652402923 
 0 5 1 5
7 0 0  1 2 2  1.722502404431296 -5.9257219029845905 -2.5630635601892742  1.2600542635820915 -3.6786913387179516 -7.6203957692717639 
 0 2 1 2
7 1 0  3 12 10  8.9737280400906343 6.9913840253036259 -5.0453839652402923  1 9.0893174900032854 7.0604993729844248 -4.926471801970175  1.0000000000000731 9.9878879561500646 7.6948909359868924 -3.9927528112545478  0.99999999999996447 10.766680854029003 8.0629926379009653 -3.0923917017521334  1.0000000000000102 11.701068436429946 8.4185634148601416 -1.98503820537971  0.999999999999997 12.583987828725544 8.6004268165003275 -0.89692331044955342  1.0000000000000016 13.49977720421383 8.6354486048129697 0.24217555889608089  0.99999999999999722 14.220197946531616 8.5780078961048183 1.1417158989558367  1.0000000000000078 15.328584730543312 8.2766706900040408 2.4877460928498349  0.99999999999997846 16.10427194054925 7.967654380698904 3.4074269913052082  1.0000000000000824 16.817381449625394 7.5082256190759775 4.176276541648698  0.99999999999983735 16.973728040090631 7.4407460546430535 4.3555307479443073  1
 0 4 0.10675541963288125 1 0.21850378644092394 1 0.33512928350503829 1 0.45638701976736767 1 0.58203283758036328 1 0.70765105354341107 1 0.80444392004922316 1 0.90596097150035049 1 1 4
7 0 0  5 6 2  18.003717139396883 2.0679955032471007 5.2628530254143442  17.797719319535634 3.1425456135262912 5.081388569920338  17.591721499674385 4.2170957238054818 4.8999241144263301  17.385723679813132 5.2916458340846724 4.7184596589323222  17.179725859951883 6.3661959443638629 4.5369952034383143  16.973728040090631 7.4407460546430535 4.3555307479443073 
 1 6 2 6
7 1 0  3 12 10  10.00371713939689 5.649662813132589 0.23566388452675824  1 10.119306589313501 5.6370487065947605 0.32498219475713663  1.0000000000000731 11.017877055454401 5.5852523514301948 1.0635152407626638  0.99999999999996447 11.796669953335778 5.4097499450491764 1.6768427182958461  1.0000000000000102 12.731057535736069 5.1438280700025043 2.3917642670926282  0.999999999999997 13.613976928031811 4.7961869094533789 3.0263106946436644  1.0000000000000016 14.529766303520097 4.3521880889066349 3.6275698084778045  0.99999999999999722 15.250187045837794 3.9577083140127702 4.0678633133978828  1.0000000000000078 16.358573829849753 3.256424661342221 4.6393320132324503  0.99999999999997846 17.134261039854778 2.7241217251376937 4.9879597356294845  1.0000000000000824 17.84737054893311 2.1754823374098282 5.1978428677796069  0.99999999999983735 18.003717139396883 2.0679955032471007 5.2628530254143442  1
 0 4 0.10675541963288125 1 0.21850378644092394 1 0.33512928350503829 1 0.45638701976736767 1 0.58203283758036328 1 0.70765105354341107 1 0.80444392004922316 1 0.90596097150035049 1 1 4
Polygon3D 0
PolygonOnTriangulations 0
Surfaces 6
9 0 0 0 0 5 1 6 2 2 2 1.722502404431296 -5.9257219029845905 -2.5630635601892742  1.2600542635820915 -3.6786913387179516 -7.6203957692717639  
3.5779619012292168 -3.8072975712507322 -1.7806734164176963  2.9859087462473051 -1.7252370375724961 -6.9054536683253955  
5.3564188848800551 -1.6114582793809347 -1.0882540868289119  4.6115923626534334 0.31926981656928904 -6.2715052021674653  
6.9418730164707902 0.74332233988357466 -0.49875839604556549  6.1432480449610569 2.4599877564848254 -5.7526919784086008  
8.5215554497870265 3.1537278960447086 -0.095141609981613126  7.5919548661642606 4.6902139150628912 -5.3528248600013715  
10.00371713939689 5.6496628131325881 0.23566388452675824  8.9737280400906343 6.9913840253036259 -5.0453839652402923  

0 6
1 6

0 2
1 2

9 1 0 0 0 5 3 6 12 2 10 1.722502404431296 -5.9257219029845905 -2.5630635601892742  1 1.7859438116178465 -5.9118320160339435 -2.6991106666563791  1.0000000000000731 2.5846941745406853 -5.6944557001932274 -3.4903852410476928  0.99999999999996447 3.3460637751363609 -5.2437869625730027 -4.1250207664147904  1.0000000000000102 4.3486175672837293 -4.5897697690368888 -4.7427214504867479  0.999999999999997 5.4123402189446361 -3.8079281744113489 -5.1186355162644546  1.0000000000000016 6.5153629693893818 -2.9564272992125851 -5.3874986589857281  0.99999999999999722 7.7374700266503096 -2.1430590855595946 -5.1042121980225401  1.0000000000000078 8.2772196570792556 -1.5219116290461476 -6.0373276178303437  0.99999999999997846 8.7821167214754521 -0.91706453844065539 -6.5085682035716967  1.0000000000000824 9.6425291768192753 -0.096400738929429949 -6.3569520292320645  0.99999999999983735 9.6088295136430268 -0.058912895215893712 -6.5934851315121126  1 
3.5779619012292168 -3.8072975712507322 -1.7806734164176963  1 3.6537966135205417 -3.8046777977265376 -1.8744379477196678  1.0000000000000731 4.4763870276584052 -3.6740434420873482 -2.3802112084071272  0.99999999999996447 5.2418970202447426 -3.369949358373681 -2.7944300245998397  1.0000000000000102 6.228192986361031 -2.9168722104986733 -3.1830869317892447  0.999999999999997 7.2488512085083663 -2.3646831790385949 -3.3958057403864892  1.0000000000000016 8.307242953737358 -1.7704078245319241 -3.5306023540534603  0.99999999999999722 9.4101229399489075 -1.1737346022398423 -3.2433444834407767  1.0000000000000078 10.08503273277951 -0.85094349353734533 -3.9200333699502079  0.99999999999997846 10.654417350324874 -0.48675450618360716 -4.2624882368600527  1.0000000000000824 11.479934188012908 0.078388633292051868 -4.131976075452183  0.99999999999983735 11.491379269191645 0.076686747473125011 -4.3146713777632453  1 
5.3564188848800551 -1.6114582793809347 -1.0882540868289119  1 5.4446650027185335 -1.6176942445054237 -1.1393976615042638  1.0000000000000731 6.2907827661678546 -1.5609546724238976 -1.3536957128997655  0.99999999999996447 7.0604383796831423 -1.3941181224216463 -1.5362191430053003  1.0000000000000102 8.030628172789104 -1.1348923277670122 -1.6796328796752935  0.999999999999997 9.0084328369226618 -0.81127091343978497 -1.7105452774607288  1.0000000000000016 10.022555217737844 -0.47602033585735881 -1.6924494820857552  0.99999999999999722 11.006168250828834 -0.10813514261627484 -1.3840510898530973  1.0000000000000078 11.816235505394292 -0.068629289153335299 -1.7944532065703354  0.99999999999997846 12.449757823532137 0.062743417337913138 -1.9977144375580951  1.0000000000000824 13.240074100111698 0.36652031766547394 -1.8728872944175574  0.99999999999983735 13.296743017017462 0.33017326029473837 -2.0016115345245575  1 
6.9418730164707902 0.74332233988357466 -0.49875839604556549  1 7.0396498202743087 0.73062655954381639 -0.50282432377147057  1.0000000000000731 7.9049473960786392 0.72962755151276626 -0.40227536559309002  0.99999999999996447 8.6777842304375525 0.76552236986153432 -0.33146249728000765  1.0000000000000102 9.6350589565501892 0.83563005828785519 -0.20688373062735063  0.999999999999997 10.57903099474871 0.9304030597400631 -0.038234751057301959  1.0000000000000016 11.558013207668356 1.0041089405721515 0.15113934901726706  0.99999999999999722 12.450462014009172 1.1356266433141355 0.48097799354901705  1.0000000000000078 13.364081366211762 0.89344158118994532 0.38715938344014106  0.99999999999997846 14.047940893083997 0.78504386663235737 0.3533755820642191  1.0000000000000824 14.812512434140086 0.81049734558140596 0.48316503786686338  0.99999999999983735 14.903572815246928 0.74084399466849149 0.41939750816655508  1 
8.5215554497870265 3.1537278960447086 -0.095141609981613126  1 8.6285933242571939 3.1402626185294005 -0.053322746492710328  1.0000000000000731 9.5108467046884329 3.1087378283742226 0.36108877286728569  0.99999999999996447 10.286784184331536 3.035902751768222 0.69726519685409794  1.0000000000000102 11.232322741384008 2.9354813687658838 1.1097793221237697  0.999999999999997 12.14484152984568 2.8084056000121089 1.5043265936770081  1.0000000000000016 13.091337215491537 2.6236162127986042 1.8922896964048492  0.99999999999999722 13.894206601555924 2.4950822164431141 2.2732087025104488  1.0000000000000078 14.909163154262901 2.0209916376016448 2.5018971645822519  0.99999999999997846 15.640422218707018 1.7005923365157558 2.6525356412821353  1.0000000000000824 16.377835242095674 1.442668271789397 2.8174846559485012  0.99999999999983735 16.502947910330722 1.3532558699696287 2.8163392947228449  1 
10.00371713939689 5.649662813132589 0.23566388452675824  1 10.119306589313501 5.6370487065947605 0.32498219475713663  1.0000000000000731 11.017877055454401 5.5852523514301948 1.0635152407626638  0.99999999999996447 11.796669953335778 5.4097499450491764 1.6768427182958461  1.0000000000000102 12.731057535736069 5.1438280700025043 2.3917642670926282  0.999999999999997 13.613976928031811 4.7961869094533789 3.0263106946436644  1.0000000000000016 14.529766303520097 4.3521880889066349 3.6275698084778045  0.99999999999999722 15.250187045837794 3.9577083140127702 4.0678633133978828  1.0000000000000078 16.358573829849753 3.256424661342221 4.6393320132324503  0.99999999999997846 17.134261039854778 2.7241217251376937 4.9879597356294845  1.0000000000000824 17.84737054893311 2.1754823374098282 5.1978428677796069  0.99999999999983735 18.003717139396883 2.0679955032471007 5.2628530254143442  1 

0 6
1 6

0 4
0.10675541963288125 1
0.21850378644092394 1
0.33512928350503829 1
0.45638701976736767 1
0.58203283758036328 1
0.70765105354341107 1
0.80444392004922316 1
0.90596097150035049 1
1 4

9 1 0 0 0 5 3 6 12 2 10 10.00371713939689 5.649662813132589 0.23566388452675824  1 10.119306589313501 5.6370487065947605 0.32498219475713663  1.0000000000000731 11.017877055454401 5.5852523514301948 1.0635152407626638  0.99999999999996447 11.796669953335778 5.4097499450491764 1.6768427182958461  1.0000000000000102 12.731057535736069 5.1438280700025043 2.3917642670926282  0.999999999999997 13.613976928031811 4.7961869094533789 3.0263106946436644  1.0000000000000016 14.529766303520097 4.3521880889066349 3.6275698084778045  0.99999999999999722 15.250187045837794 3.9577083140127702 4.0678633133978828  1.0000000000000078 16.358573829849753 3.256424661342221 4.6393320132324503  0.99999999999997846 17.134261039854778 2.7241217251376937 4.9879597356294845  1.0000000000000824 17.84737054893311 2.1754823374098282 5.1978428677796069  0.99999999999983735 18.003717139396883 2.0679955032471007 5.2628530254143442  1 
9.7977193195356413 5.9180070555667967 -0.82054568542665185  1 9.9133087694470383 5.9217388398736333 -0.72530860458771296  1.0000000000000731 10.811879235595683 6.0071800683410812 0.052261630358923422  0.99999999999996447 11.590672133473813 5.9403984836196653 0.72299583428633518  1.0000000000000102 12.525059715875011 5.7987751389739941 1.5164037725981367  0.999999999999997 13.407979108170524 5.5570348908627762 2.2416638936250264  1.0000000000000016 14.323768483658807 5.2088401920879033 2.9504909585614629  0.99999999999999722 15.044189225976716 4.8817682304311676 3.4826338305094566  1.0000000000000078 16.152576009988039 4.2604738670746194 4.2090148291559792  0.99999999999997846 16.928263219995287 3.772828256249809 4.6718531867644257  1.0000000000000824 17.641372729068355 3.2420309937433065 4.9935296025538349  0.99999999999983735 17.797719319535634 3.1425456135262912 5.081388569920338  1 
9.5917214996743869 6.1863512980010045 -1.8767552553800619  1 9.7073109495838512 6.2064289731509916 -1.7755994039338581  1.0000000000000731 10.605881415735368 6.4291077852526977 -0.9589919800441874  0.99999999999996447 11.384674313612292 6.4710470221899463 -0.23085104972335488  1.0000000000000102 12.31906189601384 6.4537222079455425 0.64104327810369566  0.999999999999997 13.201981288309241 6.3178828722721656 1.4570170926063735  1.0000000000000016 14.1177706637976 6.0654922952691672 2.2734121086451253  0.99999999999999722 14.838191406115335 5.8058281468495894 2.8974043476210314  1.0000000000000078 15.946578190127129 5.2645230728069459 3.7786976450794962  0.99999999999997846 16.722265400132766 4.8215347873622036 4.3557466378994185  1.0000000000000824 17.435374909209635 4.3085796500762372 4.7892163373279546  0.99999999999983735 17.591721499674385 4.2170957238054818 4.8999241144263301  1 
9.385723679813136 6.4546955404352122 -2.9329648253334719  1 9.501313129725137 6.4911191064295668 -2.8258902032790765  1.0000000000000731 10.399883595872883 6.8510355021637235 -1.9702455904477489  0.99999999999996447 11.178676493751407 7.0016955607603935 -1.1846979337329169  1.0000000000000102 12.113064076152462 7.1086692769170448 -0.23431721639078182  0.999999999999997 12.995983468448058 7.0787308536815612 0.67237029158773398  1.0000000000000016 13.911772843936264 6.9221443984504223 1.5963332587287788  0.99999999999999722 14.63219358625433 6.7298880632680493 2.312174864732627  1.0000000000000078 15.740580370265203 6.2685722785391853 3.3483804610029608  0.99999999999997846 16.516267580274111 5.8702413184749105 4.0396400890346174  1.0000000000000824 17.229377089343217 5.3751283064085396 4.5849030721016595  0.99999999999983735 17.385723679813132 5.2916458340846724 4.7184596589323222  1 
9.1797258599518852 6.7230397828694191 -3.9891743952868821  1 9.2953153098633869 6.7758092397073337 -3.8761810026245969  1.0000000000000731 10.193885776011872 7.2729632190751365 -2.9814992008511636  0.99999999999996447 10.972678673890089 7.532344099330734 -2.1385448177425208  1.0000000000000102 11.907066256291241 7.763616345888571 -1.1096777108852471  0.999999999999997 12.789985648586777 7.8395788350909577 -0.11227650943090843  1.0000000000000016 13.705775024075088 7.7787965016316871 0.91925440881242626  0.99999999999999722 14.426195766392865 7.6539479796864658 1.7269453818442431  1.0000000000000078 15.534582550404549 7.2726214842715091 2.918063276926365  0.99999999999997846 16.310269760410559 6.9189478495873189 3.7235335401700445  1.0000000000000824 17.023379269486529 6.4416769627414388 4.3805898068749132  0.99999999999983735 17.179725859951883 6.3661959443638629 4.5369952034383143  1 
8.9737280400906343 6.9913840253036259 -5.0453839652402923  1 9.0893174900032854 7.0604993729844248 -4.926471801970175  1.0000000000000731 9.9878879561500646 7.6948909359868924 -3.9927528112545478  0.99999999999996447 10.766680854029003 8.0629926379009653 -3.0923917017521334  1.0000000000000102 11.701068436429946 8.4185634148601416 -1.98503820537971  0.999999999999997 12.583987828725544 8.6004268165003275 -0.89692331044955342  1.0000000000000016 13.49977720421383 8.6354486048129697 0.24217555889608089  0.99999999999999722 14.220197946531616 8.5780078961048183 1.1417158989558367  1.0000000000000078 15.328584730543312 8.2766706900040408 2.4877460928498349  0.99999999999997846 16.10427194054925 7.967654380698904 3.4074269913052082  1.0000000000000824 16.817381449625394 7.5082256190759775 4.176276541648698  0.99999999999983735 16.973728040090631 7.4407460546430535 4.3555307479443073  1 

1 6
2 6

0 4
0.10675541963288125 1
0.21850378644092394 1
0.33512928350503829 1
0.45638701976736767 1
0.58203283758036328 1
0.70765105354341107 1
0.80444392004922316 1
0.90596097150035049 1
1 4

9 1 0 0 0 5 3 6 12 2 10 8.9737280400906343 6.9913840253036259 -5.0453839652402923  1 9.0893174900032854 7.0604993729844248 -4.926471801970175  1.0000000000000731 9.9878879561500646 7.6948909359868924 -3.9927528112545478  0.99999999999996447 10.766680854029003 8.0629926379009653 -3.0923917017521334  1.0000000000000102 11.701068436429946 8.4185634148601416 -1.98503820537971  0.999999999999997 12.583987828725544 8.6004268165003275 -0.89692331044955342  1.0000000000000016 13.49977720421383 8.6354486048129697 0.24217555889608089  0.99999999999999722 14.220197946531616 8.5780078961048183 1.1417158989558367  1.0000000000000078 15.328584730543312 8.2766706900040408 2.4877460928498349  0.99999999999997846 16.10427194054925 7.967654380698904 3.4074269913052082  1.0000000000000824 16.817381449625394 7.5082256190759775 4.176276541648698  0.99999999999983735 16.973728040090631 7.4407460546430535 4.3555307479443073  1 
7.5919548661642606 4.6902139150628921 -5.3528248600013715  1 7.7042341407246573 4.7568216851655682 -5.2804852457669851  1.0000000000000731 8.5882409329725196 5.4089961937207827 -4.6452016484107652  0.99999999999996447 9.3637012168270459 5.8730554572803477 -4.0005446364807042  1.0000000000000102 10.310528471627174 6.3812332470654347 -3.1734471730701066  0.999999999999997 11.212440357619048 6.7697247700549452 -2.3011959979562562  1.0000000000000016 12.159189002369883 7.0437685199956244 -1.3605049728315552  0.99999999999999722 12.955858188946703 7.2330342049097638 -0.51572010920522549  1.0000000000000078 13.977635161138259 7.1403465093900573 0.51519088195673912  0.99999999999997846 14.710031856745097 7.0254514816103173 1.2542255671380982  1.0000000000000824 15.450571294246233 6.8358852934928569 1.9781705098506752  0.99999999999983735 15.579621158638613 6.7848952080482539 2.0954874862791977  1 
6.1432480449610578 2.4599877564848254 -5.752691978408599  1 6.2307300479667074 2.5340828733784839 -5.7132320477002523  1.0000000000000731 7.0968972109952748 3.2223587033971519 -5.3703201651841512  0.99999999999996447 7.8718598870048204 3.7865663599736905 -4.9695914237475494  1.0000000000000102 8.8223110808690315 4.4567879974143692 -4.4019776383683551  0.999999999999997 9.7831712584447548 5.0423787637204773 -3.7548361170876992  1.0000000000000016 10.751528739956081 5.5583910890925852 -2.9884107684314638  0.99999999999999722 11.632348255051172 5.983219069450147 -2.1871927949761378  1.0000000000000078 12.559634763360403 6.1142651946994899 -1.4557386560214014  0.99999999999997846 13.255151526362953 6.2036804221662507 -0.89144552433354107  1.0000000000000824 14.003799199212846 6.2708376751440671 -0.18372222301739724  0.99999999999983735 14.095307048533513 6.2400601864535101 -0.12099880110140004  1 
4.6115923626534334 0.31926981656928904 -6.2715052021674653  1 4.712868334817899 0.38998527674531508 -6.28829639611447  1.0000000000000731 5.5632707413681048 1.1225971472001475 -6.2283269548915703  0.99999999999996447 6.3317141588865358 1.8086427166523438 -6.0594907279575647  1.0000000000000102 7.305192610221706 2.6471461325868324 -5.7448209477698162  0.999999999999997 8.2566994808861072 3.4545394017735935 -5.2557379232427843  1.0000000000000016 9.271714494812425 4.2064415780493283 -4.6578922171747248  0.99999999999999722 10.240603099640333 4.8545983723821209 -3.8820498351468502  1.0000000000000078 11.066848002539286 5.2317546433884674 -3.4321953294643386  0.99999999999997846 11.702834844084364 5.5288240132822821 -3.0129843765659854  1.0000000000000824 12.501250364474354 5.8569712303981909 -2.3315848548220637  0.99999999999983735 12.567467340705154 5.8542503687491863 -2.3316039887035704  1 
2.9859087462473051 -1.7252370375724966 -6.9054536683253955  1 3.0600102433210821 -1.640516371584094 -6.9524255547738862  1.0000000000000731 3.8877024417630062 -0.83684380229954025 -7.165611709104815  0.99999999999996447 4.6548626765610379 -0.027714822202633375 -7.2121848119759813  1.0000000000000102 5.6352137997403169 0.99132012839394867 -7.1205908233542816  0.999999999999997 6.6541919144932864 2.0005409750344243 -6.8188533186166929  1.0000000000000016 7.6995994424354874 2.9938015067434196 -6.3562853156261863  0.99999999999999722 8.7750264569876073 3.8512065464092933 -5.5977329950193893  1.0000000000000078 9.48130097456872 4.4922594647522383 -5.4018636021362978  0.99999999999997846 10.067886750785258 5.0097804210858845 -5.1207713408519542  1.0000000000000824 10.880552600938323 5.576106675677587 -4.4217688736591185  0.99999999999983735 10.900788987421802 5.6054280901528371 -4.4696083723208311  1 
1.2600542635820915 -3.6786913387179516 -7.6203957692717639  1 1.327299531641484 -3.5854077753780924 -7.7091722174648947  1.0000000000000731 2.1333943691095425 -2.703781222545417 -8.1852875754532981  0.99999999999996447 2.8960341907916294 -1.7591490661476736 -8.4355159576561558  1.0000000000000102 3.893585906234553 -0.55599776874752227 -8.5569332887836165  0.999999999999997 4.9440647364260597 0.66711922588228145 -8.400757063011552  1.0000000000000016 6.0333743988662283 1.896511591446832 -8.0642243418742829  0.99999999999999722 7.2189540272466086 2.9541190024966291 -7.3097736858449966  1.0000000000000078 7.8001247751469558 3.8689765964394125 -7.3507744788865512  0.99999999999997846 8.3248200379642991 4.606779584932652 -7.1873610337571217  1.0000000000000824 9.1745849384474223 5.4100329591010503 -6.473048847993617  0.99999999999983735 9.1547136157369824 5.4753603542414169 -6.5717349759601644  1 

2 6
3 6

0 4
0.10675541963288125 1
0.21850378644092394 1
0.33512928350503829 1
0.45638701976736767 1
0.58203283758036328 1
0.70765105354341107 1
0.80444392004922316 1
0.90596097150035049 1
1 4

9 1 0 0 0 5 3 6 12 2 10 1.2600542635820915 -3.6786913387179516 -7.6203957692717639  1 1.327299531641484 -3.5854077753780924 -7.7091722174648947  1.0000000000000731 2.1333943691095425 -2.703781222545417 -8.1852875754532981  0.99999999999996447 2.8960341907916294 -1.7591490661476736 -8.4355159576561558  1.0000000000000102 3.893585906234553 -0.55599776874752227 -8.5569332887836165  0.999999999999997 4.9440647364260597 0.66711922588228145 -8.400757063011552  1.0000000000000016 6.0333743988662283 1.896511591446832 -8.0642243418742829  0.99999999999999722 7.2189540272466086 2.9541190024966291 -7.3097736858449966  1.0000000000000078 7.8001247751469558 3.8689765964394125 -7.3507744788865512  0.99999999999997846 8.3248200379642991 4.606779584932652 -7.1873610337571217  1.0000000000000824 9.1745849384474223 5.4100329591010503 -6.473048847993617  0.99999999999983735 9.1547136157369824 5.4753603542414169 -6.5717349759601644  1 
1.3525438917519323 -4.1280974515712803 -6.6089293274552645  1 1.4190283876360297 -4.0506926235091338 -6.7071599073025103  1.0000000000000731 2.2236543301961227 -3.3019161180750398 -7.246307108572509  0.99999999999996447 2.9860401076604766 -2.4560766454327227 -7.5734169194077898  1.0000000000000102 3.9845922384444172 -1.3627521688053994 -7.7940909211242673  0.999999999999997 5.0377198329297626 -0.2278902541764439 -7.7443327536621318  1.0000000000000016 6.1297721129708824 0.92592381331494833 -7.5288792052965503  0.99999999999999722 7.3226572271272774 1.9346833848853833 -6.8686613882805778  1.0000000000000078 7.8955437515336149 2.7907989513423037 -7.0880851066751092  0.99999999999997846 8.4162793746657503 3.5020107602579826 -7.0516024677207989  1.0000000000000824 9.2681737861233469 4.3087462194949673 -6.4498294842397961  0.99999999999983735 9.2455367953181931 4.3685057043499542 -6.5760850070705548  1 
1.4450335199217732 -4.5775035644246076 -5.5974628856387669  1 1.510757243631565 -4.5159774716405083 -5.7051475971412815  1.0000000000000731 2.3139142912822255 -3.900051013604501 -6.3073266416911569  0.99999999999996447 3.0760460245294556 -3.1530042247178183 -6.7113178811595828  1.0000000000000102 4.0755985706542432 -2.1695065688632655 -7.0312485534648737  0.999999999999997 5.1313749294334867 -1.1228997342351723 -7.0879084443127089  1.0000000000000016 6.2261698270754842 -0.04466396481693248 -6.9935340687188567  0.99999999999999722 7.4263604270081007 0.91524776727413104 -6.4275490907160391  1.0000000000000078 7.9909627279198343 1.7126213062452169 -6.8253957344639886  0.99999999999997846 8.5077387113689138 2.3972419355832191 -6.9158439016832816  1.0000000000000824 9.3617626337958519 3.2074594798890739 -6.4266101204883306  0.99999999999983735 9.3363599748994019 3.2616510544584925 -6.5804350381809442  1 
1.5375231480916143 -5.0269096772779349 -4.5859964438222693  1 1.6024860996269574 -4.9812623197714752 -4.7031352869787098  1.0000000000000731 2.4041742523683958 -4.4981859091341621 -5.3683461748104575  0.99999999999996447 3.1660519413984205 -3.8499318040028534 -5.8492188429111875  1.0000000000000102 4.1666049028640728 -2.9762609689211459 -6.268406185805536  0.999999999999997 5.2250300259372002 -2.0179092142938972 -6.4314841349632816  1.0000000000000016 6.322567541180133 -1.0152517429488133 -6.4581889321411516  0.99999999999999722 7.5300636268887899 -0.10418785033712649 -5.9864367931515226  1.0000000000000078 8.0863817043064508 0.63444366114813966 -6.5627063622528334  0.99999999999997846 8.5991980480705195 1.2924731109084258 -6.7800853356458406  1.0000000000000824 9.4553514814714799 2.1061727402832409 -6.4033907567367434  0.99999999999983735 9.4271831544806108 2.1547964045670307 -6.5847850692913328  1 
1.6300127762614551 -5.4763157901312631 -3.5745300020057718  1 1.6942149556227808 -5.4465471679034163 -3.7011229768171292  1.0000000000000731 2.4944342134543582 -5.0963208046633515 -4.429365707929275  0.99999999999996447 3.2560578582674404 -4.5468593832880275 -4.9871198046629344  1.0000000000000102 4.2576112350738846 -3.783015368978988 -5.5055638181461575  0.999999999999997 5.3186851224409253 -2.9129186943526344 -5.7750598256138588  1.0000000000000016 6.4189652552847498 -1.9858395210806867 -5.9228437955634616  0.99999999999999722 7.6337668267695618 -1.1236234679483976 -5.5453244955869687  1.0000000000000078 8.1818006806928114 -0.44373398394890035 -6.3000169900417644  0.99999999999997846 8.6906573847731394 0.18770428623348798 -6.6443267696080985  1.0000000000000824 9.5489403291450685 1.004886000677695 -6.3801713929857344  0.99999999999983735 9.5180063340618197 1.0479417546755685 -6.589135100401724  1 
1.722502404431296 -5.9257219029845905 -2.5630635601892742  1 1.7859438116171642 -5.9118320160341629 -2.6991106666563791  1.0000000000000731 2.5846941745410179 -5.6944557001931155 -3.4903852410476928  0.99999999999996447 3.3460637751362658 -5.2437869625730347 -4.1250207664147904  1.0000000000000102 4.3486175672837559 -4.5897697690368791 -4.7427214504867479  0.999999999999997 5.4123402189446317 -3.8079281744113529 -5.1186355162644546  1.0000000000000016 6.5153629693893773 -2.9564272992125789 -5.3874986589857281  0.99999999999999722 7.7374700266503327 -2.1430590855596172 -5.1042121980225401  1.0000000000000078 8.2772196570791827 -1.5219116290460835 -6.0373276178303446  0.99999999999997846 8.7821167214757345 -0.9170645384409023 -6.508568203571695  1.0000000000000824 9.642529176818714 -0.096400738928938468 -6.3569520292320654  0.99999999999983735 9.6088295136430268 -0.058912895215893712 -6.5934851315121135  1 

3 6
4 6

0 4
0.10675541963288125 1
0.21850378644092394 1
0.33512928350503829 1
0.45638701976736767 1
0.58203283758036328 1
0.70765105354341107 1
0.80444392004922316 1
0.90596097150035049 1
1 4

9 0 0 0 0 5 1 6 2 2 2 9.6088295136430268 -0.058912895215893712 -6.5934851315121126  9.1547136157369824 5.4753603542414169 -6.5717349759601635  
11.491379269191645 0.076686747473125011 -4.3146713777632453  10.900788987421802 5.6054280901528371 -4.4696083723208311  
13.296743017017462 0.33017326029473837 -2.0016115345245575  12.567467340705154 5.8542503687491863 -2.3316039887035704  
14.903572815246928 0.74084399466849149 0.41939750816655508  14.095307048533513 6.2400601864535101 -0.12099880110140004  
16.502947910330722 1.3532558699696287 2.8163392947228449  15.579621158638613 6.7848952080482539 2.0954874862791977  
18.003717139396883 2.0679955032471007 5.2628530254143442  16.973728040090631 7.4407460546430535 4.3555307479443073  

0 6
1 6

0 2
1 2

Triangulations 0

TShapes 18
Ve
9.9999999999999995e-008
1.7225024044313 -5.9257219029845896 -2.5630635601892702
0 0

0101101
*
Ve
9.9999999999999995e-008
10.003717139396899 5.6496628131325899 0.23566388452675799
0 0

0101101
*
Ed
 9.9999999999999995e-008 1 1 0
1  1 0 0 1
2  1 1 0 0 1
2  2 2 0 0 1
0

0101000
+18 0 -17 0 *
Ve
9.9999999999999995e-008
8.9737280400906307 6.9913840253036303 -5.0453839652402896
0 0

0101101
*
Ed
 9.9999999999999995e-008 1 1 0
1  2 0 0 1
2  3 1 0 0 1
2  4 3 0 0 1
0

0101000
+17 0 -15 0 *
Ve
9.9999999999999995e-008
1.2600542635820899 -3.6786913387179498 -7.6203957692717603
0 0

0101101
*
Ed
 9.9999999999999995e-008 1 1 0
1  3 0 0 1
2  5 1 0 0 1
2  6 4 0 0 1
0

0101000
+13 0 -15 0 *
Ed
 9.9999999999999995e-008 1 1 0
1  4 0 0 1
2  7 1 0 0 1
2  8 5 0 0 1
0

0101000
+18 0 -13 0 *
Wi

0101000
+16 0 +14 0 -12 0 -11 0 *
Fa
0  9.9999999999999995e-008 1 0

0111000
+10 0 *
Ve
9.9999999999999995e-008
16.973728040090599 7.4407460546430499 4.3555307479443099
0 0

0101101
*
Ed
 9.9999999999999995e-008 1 1 0
1  5 0 0 1
2  9 3 0 0 1
2  10 4 0 0 1
0

0101000
+15 0 -8 0 *
Ve
9.9999999999999995e-008
18.003717139396901 2.0679955032470998 5.2628530254143397
0 0

0101101
*
Ed
 9.9999999999999995e-008 1 1 0
1  6 0 1 2
2  11 3 0 1 2
2  12 6 0 1 2
0

0101000
+6 0 -8 0 *
Ed
 9.9999999999999995e-008 1 1 0
1  7 0 0 1
2  13 2 0 0 1
2  14 3 0 0 1
0

0101000
+17 0 -6 0 *
Wi

0101000
+14 0 +7 0 -5 0 -4 0 *
Fa
0  9.9999999999999995e-008 3 0

0111000
+3 0 *
Sh

1101000
+9 0 -2 0 *

+1 0 
0


