DBRep_DrawableShape

CASCADE Topology V1, (c) Matra-Datavision
Locations 4
1
              1               0               0               0 
              0               1               0               0 
              0               0               1             100 
1
              1               0               0               0 
              0               1               0               0 
              0               0               1              10 
2  2 -1 0
2  1 -1 0
Curve2ds 114
1 0 0 0 -1 
1 3.3550642867159199 0 0 -1 
1 2.8447877599381202 0 0 -1 
1 0 0 0 -1 
1 0 0 1 0 
1 0 -10 1 0 
1 0 0 1 0 
1 0 -100 1 0 
1 0 0 0 -1 
1 2.5675849843594198 0 0 -1 
1 4.13553098296219 0 0 -1 
1 0 0 0 -1 
1 0 0 1 0 
1 0 -10 1 0 
1 0 0 1 0 
1 0 -100 1 0 
1 0 0 0 -1 
1 2.9051131925055702 0 0 -1 
1 2.9487438476480099 0 0 -1 
1 0 0 0 -1 
1 0 0 1 0 
1 0 -10 1 0 
1 0 0 1 0 
1 0 -100 1 0 
1 0 0 0 -1 
1 2.6678949597002202 0 0 -1 
1 2.2523888336095101 0 0 -1 
1 0 0 0 -1 
1 0 0 1 0 
1 0 -10 1 0 
1 0 0 1 0 
1 0 -100 1 0 
1 0 0 0 -1 
1 2.0634568938901601 0 0 -1 
1 2.34058502831112 0 0 -1 
1 0 0 0 -1 
1 0 0 1 0 
1 0 -10 1 0 
1 0 0 1 0 
1 0 -100 1 0 
1 0 0 0 -1 
1 3.41381179942548 0 0 -1 
1 0 0 1 0 
1 0 -10 1 0 
1 0 0 1 0 
1 0 -100 1 0 
1 2.3781528414039301 0 0 -1 
1 0 0 0 -1 
1 0 0 1 0 
1 0 -10 1 0 
1 0 0 1 0 
1 0 -100 1 0 
1 0 0 0 -1 
1 2.4835894640278 0 0 -1 
1 2.0446717538765999 0 0 -1 
1 0 0 0 -1 
1 0 0 1 0 
1 0 -10 1 0 
1 0 0 1 0 
1 0 -100 1 0 
1 0 0 0 -1 
1 2.4356106732768898 0 0 -1 
1 3.1111380541549298 0 0 -1 
1 0 0 0 -1 
1 0 0 1 0 
1 0 -10 1 0 
1 0 0 1 0 
1 0 -100 1 0 
1 0 0 0 -1 
1 3.82700320434907 0 0 -1 
1 2.7042548224489802 0 0 -1 
1 0 0 0 -1 
1 0 0 1 0 
1 0 -10 1 0 
1 0 0 1 0 
1 0 -100 1 0 
1 0 0 0 -1 
1 2.1463640563805302 0 0 -1 
1 0 0 1 0 
1 0 -10 1 0 
1 0 0 1 0 
1 0 -100 1 0 
1 0 0 1 0 
1 0 -10 1 0 
1 0 0 1 0 
1 0 -100 1 0 
1 0 0 1 0 
1 0 -10 1 0 
1 0 0 1 0 
1 0 -100 1 0 
1 0 0 1 0 
1 0 -10 1 0 
1 0 0 1 0 
1 0 -100 1 0 
1 0 0 1 0 
1 0 -10 1 0 
1 0 0 1 0 
1 0 -100 1 0 
1 0 0 1 0 
1 0 -10 1 0 
1 0 0 1 0 
1 0 -100 1 0 
1 0 0 1 0 
1 0 -10 1 0 
1 0 0 1 0 
1 0 -100 1 0 
1 0 0 1 0 
1 0 -10 1 0 
1 0 0 1 0 
1 0 -100 1 0 
1 0 0 1 0 
1 0 -10 1 0 
1 0 0 1 0 
1 0 -100 1 0 
Curves 38
1 34.290245056152301 28.708105087280298 0 0 0 1 
1 78.947341918945298 78.149887084960895 0 0 0 1 
2 60.314605425981597 50.0908431099799 0 0 0 -1 -0.77264492142461405 -0.63483842463791695 -0 -0.63483842463791695 0.77264492142461405 0 33.682173593848503
1 262.36041259765602 -326.95376586914102 0 0 0 1 
1 232.05738830566401 -370.01596069335898 0 0 0 1 
2 258.88679939277603 -356.70264355781501 0 0 0 -1 0.11597657968077402 0.99325194838245812 0 0.99325194838245812 -0.11597657968077402 0 29.9509885051033
1 174.64111328125 -376.39553833007801 0 0 0 1 
1 109.250366210938 -390.74960327148398 0 0 0 1 
2 141.251545879465 -380.41013174705301 0 0 0 -1 0.99284921524870551 0.11937518913086495 0 0.11937518913086495 -0.99284921524870551 0 33.630048640790498
1 40.669830322265597 -366.826171875 0 0 0 1 
1 -51.834152221679702 -360.44656372070301 0 0 0 1 
2 -4.0624916384640102 -341.60124274944098 0 0 0 -1 0.87105085757989953 -0.49119283739619174 0 -0.49119283739619174 -0.87105085757989953 -0 51.354431915735098
1 -78.9473876953125 -218.50080871582 0 0 0 1 
1 -56.618839263916001 -105.263175964355 0 0 0 1 
2 -91.754796548284105 -157.15518135530101 0 0 0 1 0.20436822169447202 -0.97889408516010512 0 0.97889408516010512 0.20436822169447202 -0 62.668299145444102
1 -24.7209148406982 -25.518365859985401 0 0 0 1 
2 7.6896585695245001 -1.5664468186932099 0 0 0 1 -0.80422028699530379 -0.59433133013933492 0 0.59433133013933492 -0.80422028699530379 0 40.300616552852503
1 163.47683715820301 59.011135101318402 0 0 0 1 
2 125.053317233462 85.545934879676693 0 0 0 1 -0.98737676722111378 -0.15838913962763598 0 0.15838913962763598 -0.98737676722111378 0 46.695422502473903
1 246.41145324707 51.036651611328097 0 0 0 1 
1 335.72564697265602 28.708105087280298 0 0 0 1 
2 297.88979765423699 67.157370857535 0 0 0 1 -0.95430175617476654 -0.29884470576163191 0 0.29884470576163191 -0.95430175617476654 0 53.943466072526697
1 338.91543579101602 -30.303054809570298 0 0 0 1 
1 343.70013427734398 -94.098907470703097 0 0 0 1 
2 341.79354186361201 -62.164549305314303 0 0 0 1 -0.089965491625369987 0.99594488317205876 0 -0.99594488317205876 -0.089965491625369987 0 31.991222641021999
1 338.91543579101602 -172.24882507324199 0 0 0 1 
1 330.94094848632801 -232.85487365722699 0 0 0 1 
2 341.66219657325598 -203.437903383405 0 0 0 1 -0.087728480158912353 0.9961444241519436 0 -0.9961444241519436 -0.087728480158912353 0 31.309795601893299
1 316.58688354492199 -290.27114868164102 0 0 0 1 
2 294.88713513859699 -316.61500239582898 0 0 0 1 0.63579122715975311 0.77186107264629911 -0 -0.77186107264629911 0.63579122715975311 0 34.130304853786299
2 203.728178093178 -376.61609974083302 0 0 0 1 0.973917305925177 0.226903241976498 -0 -0.226903241976498 0.973917305925177 0 29.0879010364999
2 72.0727864922018 -387.06485192188899 0 0 0 1 0.995124279104178 -0.098628946751905894 0 0.098628946751905894 0.995124279104178 -0 37.359735361098203
2 -22.937400431675901 -281.36461522427402 0 0 0 -1 -0.34320787852471113 -0.93925947007127231 -0 -0.93925947007127231 0.34320787852471113 0 84.196061915062302
2 -46.130656595763199 -63.206459068665602 0 0 0 -1 -0.24197110193369895 -0.97028345643373282 -0 -0.97028345643373282 0.24197110193369895 0 43.344773753299798
2 203.58286216625501 40.866551861752697 0 0 0 -1 -0.91109613735216799 0.41219392099103003 0 0.41219392099103003 0.91109613735216799 0 44.019531379650203
2 326.45004437436802 -1.3850686292566901 0 0 0 -1 0.29455473692414808 0.95563460954255208 0 0.95563460954255208 -0.29455473692414808 0 31.490250997650801
2 355.24908899430699 -134.02741721613 0 0 0 -1 -0.27785166637248393 0.9606239906925258 0 0.9606239906925258 0.27785166637248393 0 41.565180687026
2 308.16940278311398 -257.66438389739398 0 0 0 -1 0.67620041735792713 0.73671771769448113 0 0.73671771769448113 -0.67620041735792713 0 33.675734469652703
Polygon3D 0
PolygonOnTriangulations 19
6 42 49 50 51 52 48 
p 23.7713325277242 1 0 0.568957551987624 1.13791510397525 1.70687265596287 2.2758302079505 2.84478775993812 
8 1 3 4 5 6 7 8 2 
p 25.759962622139 1 0 0.59079014042317 1.18158028084634 1.77237042126951 2.36316056169268 2.95395070211585 3.54474084253902 4.13553098296219 
6 9 15 16 17 18 14 
p 28.3113739200796 1 0 0.589748769529601 1.1794975390592 1.7692463085888 2.3589950781184 2.94874384764801 
5 19 25 26 27 24 
p 40.0502357606201 1 0 0.563097208402378 1.12619441680476 1.68929162520713 2.25238883360951 
5 28 33 34 35 32 
p 49.027012267904 1 0 0.585146257077781 1.17029251415556 1.75543877123334 2.34058502831112 
7 36 43 44 45 46 47 42 
p 31.2875744808894 1 0 0.559177381119321 1.11835476223864 1.67753214335796 2.23670952447728 2.7958869055966 3.35506428671592 
5 48 54 55 56 53 
p 36.5976266166503 1 0 0.594538210350983 1.18907642070197 1.78361463105295 2.37815284140393 
4 57 62 63 61 
p 38.6691947455912 1 0 0.6815572512922 1.3631145025844 2.0446717538766 
6 64 69 70 71 72 68 
p 27.6208534125652 1 0 0.622227610830986 1.24445522166197 1.86668283249296 2.48891044332394 3.11113805415493 
6 73 81 82 83 84 80 
p 26.2398057911386 1 0 0.540850964489797 1.08170192897959 1.62255289346939 2.16340385795919 2.70425482244898 
5 85 89 90 91 1 
p 24.1034478994544 1 0 0.641896246089854 1.28379249217971 1.92568873826956 2.56758498435942 
6 2 10 11 12 13 9 
p 24.8587713825075 1 0 0.581022638501114 1.16204527700223 1.74306791550334 2.32409055400446 2.90511319250557 
6 14 20 21 22 23 19 
p 29.6924149351084 1 0 0.533578991940044 1.06715798388009 1.60073697582013 2.13431596776018 2.66789495970022 
5 24 29 30 31 28 
p 50.7002481380192 1 0 0.51586422347254 1.03172844694508 1.54759267041762 2.06345689389016 
7 32 37 38 39 40 41 36 
p 36.41748995024 1 0 0.568968633237579 1.13793726647516 1.70690589971274 2.27587453295032 2.8448431661879 3.41381179942548 
5 53 58 59 60 57 
p 35.9071127155336 1 0 0.620897366006949 1.2417947320139 1.86269209802085 2.4835894640278 
5 61 65 66 67 64 
p 25.5492877610234 1 0 0.608902668319222 1.21780533663844 1.82670800495767 2.43561067327689 
8 68 74 75 76 77 78 79 73 
p 34.5746460941991 1 0 0.546714743478439 1.09342948695688 1.64014423043532 2.18685897391376 2.7335737173922 3.28028846087063 3.82700320434907 
5 80 86 87 88 85 
p 24.8587713825075 1 0 0.536591014095132 1.07318202819026 1.6097730422854 2.14636405638053 
Surfaces 38
2 60.314605425981597 50.0908431099799 0 0 0 -1 -0.77264492142461405 -0.63483842463791695 -0 -0.63483842463791695 0.77264492142461405 0 33.682173593848503
2 7.6896585695245001 -1.5664468186932099 0 -0 -0 -1 -0.80422028699530379 -0.59433133013933492 0 0.59433133013933492 -0.80422028699530379 0 40.300616552852503
2 125.053317233462 85.545934879676693 0 -0 -0 -1 -0.98737676722111378 -0.15838913962763598 0 0.15838913962763598 -0.98737676722111378 0 46.695422502473903
2 60.314605425981597 50.0908431099799 0 0 0 -1 -0.77264492142461405 -0.63483842463791695 -0 -0.63483842463791695 0.77264492142461405 0 33.682173593848503
2 258.88679939277603 -356.70264355781501 0 0 0 -1 0.11597657968077402 0.99325194838245812 0 0.99325194838245812 -0.11597657968077402 0 29.9509885051033
2 294.88713513859699 -316.61500239582898 0 -0 -0 -1 0.63579122715975311 0.77186107264629911 -0 -0.77186107264629911 0.63579122715975311 0 34.130304853786299
2 203.728178093178 -376.61609974083302 0 -0 -0 -1 0.973917305925177 0.226903241976498 -0 -0.226903241976498 0.973917305925177 0 29.0879010364999
2 258.88679939277603 -356.70264355781501 0 0 0 -1 0.11597657968077402 0.99325194838245812 0 0.99325194838245812 -0.11597657968077402 0 29.9509885051033
2 141.251545879465 -380.41013174705301 0 0 0 -1 0.99284921524870551 0.11937518913086495 0 0.11937518913086495 -0.99284921524870551 0 33.630048640790498
2 72.0727864922018 -387.06485192188899 0 -0 -0 -1 0.995124279104178 -0.098628946751905894 0 0.098628946751905894 0.995124279104178 -0 37.359735361098203
2 141.251545879465 -380.41013174705301 0 0 0 -1 0.99284921524870551 0.11937518913086495 0 0.11937518913086495 -0.99284921524870551 0 33.630048640790498
2 -4.0624916384640102 -341.60124274944098 0 0 0 -1 0.87105085757989953 -0.49119283739619174 0 -0.49119283739619174 -0.87105085757989953 -0 51.354431915735098
2 -22.937400431675901 -281.36461522427402 0 0 0 -1 -0.34320787852471113 -0.93925947007127231 -0 -0.93925947007127231 0.34320787852471113 0 84.196061915062302
2 -4.0624916384640102 -341.60124274944098 0 0 0 -1 0.87105085757989953 -0.49119283739619174 0 -0.49119283739619174 -0.87105085757989953 -0 51.354431915735098
2 -91.754796548284105 -157.15518135530101 0 -0 -0 -1 0.20436822169447202 -0.97889408516010512 0 0.97889408516010512 0.20436822169447202 -0 62.668299145444102
2 -46.130656595763199 -63.206459068665602 0 0 0 -1 -0.24197110193369895 -0.97028345643373282 -0 -0.97028345643373282 0.24197110193369895 0 43.344773753299798
2 -91.754796548284105 -157.15518135530101 0 -0 -0 -1 0.20436822169447202 -0.97889408516010512 0 0.97889408516010512 0.20436822169447202 -0 62.668299145444102
2 7.6896585695245001 -1.5664468186932099 0 -0 -0 -1 -0.80422028699530379 -0.59433133013933492 0 0.59433133013933492 -0.80422028699530379 0 40.300616552852503
2 203.58286216625501 40.866551861752697 0 0 0 -1 -0.91109613735216799 0.41219392099103003 0 0.41219392099103003 0.91109613735216799 0 44.019531379650203
2 125.053317233462 85.545934879676693 0 -0 -0 -1 -0.98737676722111378 -0.15838913962763598 0 0.15838913962763598 -0.98737676722111378 0 46.695422502473903
2 297.88979765423699 67.157370857535 0 -0 -0 -1 -0.95430175617476654 -0.29884470576163191 0 0.29884470576163191 -0.95430175617476654 0 53.943466072526697
2 326.45004437436802 -1.3850686292566901 0 0 0 -1 0.29455473692414808 0.95563460954255208 0 0.95563460954255208 -0.29455473692414808 0 31.490250997650801
2 297.88979765423699 67.157370857535 0 -0 -0 -1 -0.95430175617476654 -0.29884470576163191 0 0.29884470576163191 -0.95430175617476654 0 53.943466072526697
2 341.79354186361201 -62.164549305314303 0 -0 -0 -1 -0.089965491625369987 0.99594488317205876 0 -0.99594488317205876 -0.089965491625369987 0 31.991222641021999
2 355.24908899430699 -134.02741721613 0 0 0 -1 -0.27785166637248393 0.9606239906925258 0 0.9606239906925258 0.27785166637248393 0 41.565180687026
2 341.79354186361201 -62.164549305314303 0 -0 -0 -1 -0.089965491625369987 0.99594488317205876 0 -0.99594488317205876 -0.089965491625369987 0 31.991222641021999
2 341.66219657325598 -203.437903383405 0 -0 -0 -1 -0.087728480158912353 0.9961444241519436 0 -0.9961444241519436 -0.087728480158912353 0 31.309795601893299
2 308.16940278311398 -257.66438389739398 0 0 0 -1 0.67620041735792713 0.73671771769448113 0 0.73671771769448113 -0.67620041735792713 0 33.675734469652703
2 341.66219657325598 -203.437903383405 0 -0 -0 -1 -0.087728480158912353 0.9961444241519436 0 -0.9961444241519436 -0.087728480158912353 0 31.309795601893299
2 294.88713513859699 -316.61500239582898 0 -0 -0 -1 0.63579122715975311 0.77186107264629911 -0 -0.77186107264629911 0.63579122715975311 0 34.130304853786299
2 203.728178093178 -376.61609974083302 0 -0 -0 -1 0.973917305925177 0.226903241976498 -0 -0.226903241976498 0.973917305925177 0 29.0879010364999
2 72.0727864922018 -387.06485192188899 0 -0 -0 -1 0.995124279104178 -0.098628946751905894 0 0.098628946751905894 0.995124279104178 -0 37.359735361098203
2 -22.937400431675901 -281.36461522427402 0 0 0 -1 -0.34320787852471113 -0.93925947007127231 -0 -0.93925947007127231 0.34320787852471113 0 84.196061915062302
2 -46.130656595763199 -63.206459068665602 0 0 0 -1 -0.24197110193369895 -0.97028345643373282 -0 -0.97028345643373282 0.24197110193369895 0 43.344773753299798
2 203.58286216625501 40.866551861752697 0 0 0 -1 -0.91109613735216799 0.41219392099103003 0 0.41219392099103003 0.91109613735216799 0 44.019531379650203
2 326.45004437436802 -1.3850686292566901 0 0 0 -1 0.29455473692414808 0.95563460954255208 0 0.95563460954255208 -0.29455473692414808 0 31.490250997650801
2 355.24908899430699 -134.02741721613 0 0 0 -1 -0.27785166637248393 0.9606239906925258 0 0.9606239906925258 0.27785166637248393 0 41.565180687026
2 308.16940278311398 -257.66438389739398 0 0 0 -1 0.67620041735792713 0.73671771769448113 0 0.73671771769448113 -0.67620041735792713 0 33.675734469652703
Triangulations 1
129 132 1 31.8646882190366
262.360412597656 -326.953765869141 0 232.057388305664 -370.015960693359 0 278.342280765881 -333.931039376871 0 287.728772516492 -348.627849519345 0 287.337882472756 -366.06200165594 0 277.302121721236 -380.32334667969 0 261.023596769813 -386.577311914172 0 244.020700996642 -382.703813356678 0 174.64111328125 -376.395538330078 0 223.785937356026 -355.549721787733 0 208.931601312351 -347.997393035054 0 192.369520315784 -349.837621811621 0 179.535310313739 -360.466451592474 0 109.250366210938 -390.749603271484 0 171.233686989638 -395.643364694514 0 157.697119793112 -409.744808671006 0 138.604593973704 -413.935850489393 0 120.406312121846 -406.800592166911 0 40.6698303222656 -366.826171875 0 105.956525599123 -371.32820518933 0 93.2424802297143 -356.281838857681 0 74.6429318160975 -349.793627374454 0 55.3288431585167 -353.667394116098 0 -51.8341522216797 -360.446563720703 0 20.2981585384807 -386.810051629397 0 -7.5957967294697 -392.833980647407 0 -34.3987087642742 -383.03784019522 0 -78.9473876953125 -218.50080871582 0 -87.083804337274 -335.900985730431 0 -105.638294774829 -297.16141606646 0 -102.668510772785 -254.310467930764 0 -56.618839263916 -105.263175964355 0 -47.1956420452815 -201.221012423833 0 -30.2703923718292 -169.278867298495 0 -33.8033017750517 -133.302718771097 0 -24.7209148406982 -25.5183658599854 0 -77.625122427087 -92.9867887129849 0 -88.7079457369471 -71.3270416286037 0 -86.3752686310126 -47.1086140620505 0 -71.3620846073621 -27.9623893232425 0 -48.3988351894994 -19.9210714928143 0 34.2902450561523 28.7081050872803 0 -7.07828757442756 -39.0637462045074 0 15.0628986333749 -41.1868333072281 0 34.9580748209636 -31.2408999674591 0 46.5468435668133 -12.2556408307094 0 46.2990755790905 9.98572235949506 0 78.9473419189453 78.1498870849609 0 26.870005101987 46.0974075997452 0 29.9872854064452 64.7449373651282 0 42.659912343835 78.7753446775747 0 60.8950720730857 83.7680145541161 0 163.476837158203 59.0111351013184 0 91.0015137441736 53.5938275655819 0 114.741770934443 40.0032681197281 0 142.020801345162 42.0422917494311 0 246.41145324707 51.0366516113281 0 181.518245327482 78.9568633154825 0 207.79607806841 84.6839907947373 0 232.501174004718 74.0546579134303 0 335.725646972656 28.7081050872803 0 268.068200666313 22.2066213086372 0 303.049679720254 13.4612522921988 0 338.915435791016 -30.3030548095703 0 351.270923005752 17.9942990555043 0 357.894391295274 0.314623876097236 0 353.215261396518 -17.9760018655831 0 343.700134277344 -94.0989074707031 0 320.884476713656 -37.9519633091354 0 310.690983038661 -54.67661497014 0 312.155840751797 -74.2080122157133 0 324.729968793546 -89.2250888444655 0 338.915435791016 -172.248825073242 0 366.141723088016 -93.914890892727 0 385.407827594532 -105.424712246347 0 395.881880496793 -125.272961193015 0 394.510424724094 -147.673360285705 0 381.693275072617 -166.095614362226 0 361.166961861119 -175.16916032793 0 330.940948486328 -232.854873657227 0 323.249292426921 -178.11462828854 0 312.839265032561 -191.209170087077 0 310.656982135298 -207.794505073783 0 317.325394460105 -223.136212030029 0 316.586883544922 -290.271148681641 0 340.423400170737 -247.982713349921 0 340.83966452646 -265.831947162642 0 332.072734951747 -281.385383102878 0 296.495337295855 -282.522607419328 0 275.763604001302 -288.345438086252 0 262.644493810625 -305.421710225599 0 115.629951477051 -283.891571044922 0 169.856430053711 -306.220092773438 0 113.367093513219 -299.118332001358 0 119.127857332348 -313.393778600646 0 131.325226527395 -322.785208742464 0 146.598982619859 -324.705404101495 0 160.741402072206 -318.625375530606 0 107.655471801758 -232.854873657227 0 97.5840157164081 -245.128979064209 0 95.5932304392905 -260.880952439036 0 102.294301452643 -275.27482399935 0 240.031860351563 -229.665084838867 0 219.298217773438 -269.537475585938 0 232.140528221639 -270.304070847535 0 243.331745406602 -263.958264053905 0 249.267126778112 -252.544068772685 0 248.034858685517 -239.738049824899 0 188.010064239147 -279.027260389449 0 66.1881713867188 -102.073387145996 0 114.035057067871 -148.325378417969 0 52.546123358515 -114.85917546449 0 47.4196479732947 -132.839751302152 0 52.2678838124653 -150.897338809262 0 65.7108870680273 -163.892242456466 0 83.9224022279134 -168.125748439739 0 101.718921638446 -162.392882297948 0 262.360412597656 -135.566207885742 0 241.278690540774 -102.44680385956 0 210.506153601389 -78.0667936412006 0 173.442598076043 -65.1197175329556 0 134.182861483654 -65.0359880318693 0 97.0644187400177 -77.8248556995141 0 195.374771118164 -170.653930664063 0 224.505586483084 -176.882634056138 0 250.893868388941 -163.06019838696 0 144.02587447047 -139.157074566905 0 174.268023505781 -147.458842192392 0 145.121792860982 -164.625929847328 0 262.360412597656 -326.953765869141 232.057388305664 -370.015960693359 278.342280765881 -333.931039376871 287.728772516492 -348.627849519345 287.337882472756 -366.06200165594 277.302121721236 -380.32334667969 261.023596769813 -386.577311914172 244.020700996642 -382.703813356678 174.64111328125 -376.395538330078 223.785937356026 -355.549721787733 208.931601312351 -347.997393035054 192.369520315784 -349.837621811621 179.535310313739 -360.466451592474 109.250366210938 -390.749603271484 171.233686989638 -395.643364694514 157.697119793112 -409.744808671006 138.604593973704 -413.935850489393 120.406312121846 -406.800592166911 40.6698303222656 -366.826171875 105.956525599123 -371.32820518933 93.2424802297143 -356.281838857681 74.6429318160975 -349.793627374454 55.3288431585167 -353.667394116098 -51.8341522216797 -360.446563720703 20.2981585384807 -386.810051629397 -7.5957967294697 -392.833980647407 -34.3987087642742 -383.03784019522 -78.9473876953125 -218.50080871582 -87.083804337274 -335.900985730431 -105.638294774829 -297.16141606646 -102.668510772785 -254.310467930764 -56.618839263916 -105.263175964355 -47.1956420452815 -201.221012423833 -30.2703923718292 -169.278867298495 -33.8033017750517 -133.302718771097 -24.7209148406982 -25.5183658599854 -77.625122427087 -92.9867887129849 -88.7079457369471 -71.3270416286038 -86.3752686310126 -47.1086140620505 -71.3620846073621 -27.9623893232425 -48.3988351894994 -19.9210714928143 34.2902450561523 28.7081050872803 -7.07828757442755 -39.0637462045074 15.0628986333749 -41.1868333072281 34.9580748209636 -31.2408999674591 46.5468435668133 -12.2556408307094 46.2990755790906 9.98572235949507 78.9473419189453 78.1498870849609 26.870005101987 46.0974075997452 29.9872854064452 64.7449373651282 42.659912343835 78.7753446775747 60.8950720730857 83.7680145541161 163.476837158203 59.0111351013184 91.0015137441736 53.5938275655819 114.741770934443 40.0032681197281 142.020801345162 42.0422917494311 246.41145324707 51.0366516113281 181.518245327482 78.9568633154826 207.79607806841 84.6839907947373 232.501174004718 74.0546579134303 335.725646972656 28.7081050872803 268.068200666313 22.2066213086372 303.049679720254 13.4612522921988 338.915435791016 -30.3030548095703 351.270923005752 17.9942990555043 357.894391295274 0.314623876097244 353.215261396518 -17.9760018655831 343.700134277344 -94.0989074707031 320.884476713656 -37.9519633091354 310.690983038661 -54.67661497014 312.155840751797 -74.2080122157133 324.729968793546 -89.2250888444655 338.915435791016 -172.248825073242 366.141723088016 -93.914890892727 385.407827594532 -105.424712246347 395.881880496793 -125.272961193015 394.510424724094 -147.673360285705 381.693275072617 -166.095614362226 361.166961861119 -175.16916032793 330.940948486328 -232.854873657227 323.249292426921 -178.11462828854 312.839265032561 -191.209170087077 310.656982135298 -207.794505073783 317.325394460105 -223.136212030029 316.586883544922 -290.271148681641 340.423400170737 -247.982713349921 340.83966452646 -265.831947162642 332.072734951747 -281.385383102878 296.495337295855 -282.522607419328 275.763604001302 -288.345438086252 262.644493810625 -305.421710225599 115.629951477051 -283.891571044922 169.856430053711 -306.220092773438 113.367093513219 -299.118332001358 119.127857332348 -313.393778600646 131.325226527395 -322.785208742464 146.598982619859 -324.705404101495 160.741402072206 -318.625375530606 107.655471801758 -232.854873657227 97.5840157164081 -245.128979064209 95.5932304392905 -260.880952439036 102.294301452643 -275.27482399935 240.031860351562 -229.665084838867 219.298217773437 -269.537475585938 232.140528221639 -270.304070847535 243.331745406602 -263.958264053905 249.267126778112 -252.544068772685 248.034858685516 -239.738049824899 188.010064239147 -279.027260389449 66.1881713867188 -102.073387145996 114.035057067871 -148.325378417969 52.546123358515 -114.85917546449 47.4196479732948 -132.839751302152 52.2678838124653 -150.897338809262 65.7108870680273 -163.892242456466 83.9224022279134 -168.125748439739 101.718921638446 -162.392882297948 262.360412597656 -135.566207885742 241.278690540774 -102.44680385956 210.506153601389 -78.0667936412006 173.442598076043 -65.1197175329556 134.182861483654 -65.0359880318692 97.0644187400177 -77.8248556995142 195.374771118164 -170.653930664063 224.505586483084 -176.882634056138 250.893868388941 -163.06019838696 144.02587447047 -139.157074566905 174.268023505781 -147.458842192392 145.121792860982 -164.625929847328 24 26 19 24 27 26 26 25 19 24 23 33 102 23 22 19 23 24 23 101 33 33 31 30 33 28 31 30 29 33 34 33 115 100 115 33 29 24 33 34 115 114 100 116 115 22 21 95 9 20 14 96 95 21 97 96 20 17 14 18 20 9 97 13 98 97 17 16 9 17 9 14 23 102 101 116 99 117 101 100 33 102 22 94 124 129 99 94 92 102 94 22 95 99 116 100 127 129 128 96 21 20 129 117 99 38 37 41 41 39 38 32 41 37 35 44 43 45 44 110 36 32 43 44 35 112 35 43 32 39 41 40 41 32 36 42 54 49 54 51 50 42 47 54 49 54 50 113 35 34 123 45 110 110 44 112 117 129 111 129 127 111 34 114 113 123 46 45 54 52 51 47 55 54 48 52 54 47 46 55 55 122 56 122 55 46 121 53 56 121 56 122 46 123 122 112 35 113 13 97 9 12 93 98 12 98 13 10 2 1 91 104 11 1 11 10 12 11 93 93 11 109 109 11 104 91 105 104 90 107 106 103 108 83 107 84 108 105 91 106 103 124 99 8 1 2 9 16 15 8 3 1 91 11 1 5 7 6 7 5 8 5 4 3 3 8 5 89 84 107 83 108 84 89 80 84 90 89 107 87 86 89 80 89 86 89 88 87 85 88 89 90 106 91 103 83 126 125 124 103 128 129 124 71 118 72 120 119 70 71 119 118 118 126 82 103 126 125 70 119 71 58 53 59 53 57 59 60 59 57 57 53 121 63 70 69 70 63 62 57 121 62 121 120 62 120 70 62 81 72 118 73 79 77 72 81 73 77 75 73 76 75 77 77 79 78 68 73 75 66 63 67 63 64 67 64 63 69 74 68 75 63 66 65 61 63 65 72 73 68 118 82 81 83 82 126 

TShapes 96
Ve
1e-07
34.2902450561523 28.7081050872803 0
0 0

0101100
*
Ed
 1e-07 1 1 0
1  1 0 0 100
2  1 1 0 0 100
2  2 2 0 0 100
0

0101000
+96 0 -96 1 *
Ve
1e-07
78.9473419189453 78.1498870849609 0
0 0

0101100
*
Ed
 1e-07 1 1 0
1  2 0 0 100
2  3 1 0 0 100
2  4 3 0 0 100
0

0101000
+94 0 -94 1 *
Ed
 1e-07 1 1 0
1  3 0 0 2.84478775993812
6  1 1 0
2  5 4 0 0 2.84478775993812
2  6 4 3 0 2.84478775993812
2  7 1 0 0 2.84478775993812
2  8 1 4 0 2.84478775993812
0

0101000
+96 0 -94 0 *
Wi

0101000
+95 0 -93 0 -92 0 +92 1 *
Fa
0  1e-07 1 0

0101000
+91 0 *
Ve
1e-07
262.360412597656 -326.953765869141 0
0 0

0101100
*
Ed
 1e-07 1 1 0
1  4 0 0 100
2  9 5 0 0 100
2  10 6 0 0 100
0

0101000
+89 0 -89 1 *
Ve
1e-07
232.057388305664 -370.015960693359 0
0 0

0101100
*
Ed
 1e-07 1 1 0
1  5 0 0 100
2  11 5 0 0 100
2  12 7 0 0 100
0

0101000
+87 0 -87 1 *
Ed
 1e-07 1 1 0
1  6 0 0 4.13553098296219
6  2 1 0
2  13 8 0 0 4.13553098296219
2  14 8 3 0 4.13553098296219
2  15 5 0 0 4.13553098296219
2  16 5 4 0 4.13553098296219
0

0101000
+89 0 -87 0 *
Wi

0101000
+88 0 -86 0 -85 0 +85 1 *
Fa
0  1e-07 5 0

0101000
+84 0 *
Ve
1e-07
174.64111328125 -376.395538330078 0
0 0

0101100
*
Ed
 1e-07 1 1 0
1  7 0 0 100
2  17 9 0 0 100
2  18 7 0 0 100
0

0101000
+82 0 -82 1 *
Ve
1e-07
109.250366210938 -390.749603271484 0
0 0

0101100
*
Ed
 1e-07 1 1 0
1  8 0 0 100
2  19 9 0 0 100
2  20 10 0 0 100
0

0101000
+80 0 -80 1 *
Ed
 1e-07 1 1 0
1  9 0 0 2.94874384764801
6  3 1 0
2  21 11 0 0 2.94874384764801
2  22 11 3 0 2.94874384764801
2  23 9 0 0 2.94874384764801
2  24 9 4 0 2.94874384764801
0

0101000
+82 0 -80 0 *
Wi

0101000
+81 0 -79 0 -78 0 +78 1 *
Fa
0  1e-07 9 0

0101000
+77 0 *
Ve
1e-07
40.6698303222656 -366.826171875 0
0 0

0101100
*
Ed
 1e-07 1 1 0
1  10 0 0 100
2  25 12 0 0 100
2  26 10 0 0 100
0

0101000
+75 0 -75 1 *
Ve
1e-07
-51.8341522216797 -360.446563720703 0
0 0

0101100
*
Ed
 1e-07 1 1 0
1  11 0 0 100
2  27 12 0 0 100
2  28 13 0 0 100
0

0101000
+73 0 -73 1 *
Ed
 1e-07 1 1 0
1  12 0 0 2.25238883360951
6  4 1 0
2  29 14 0 0 2.25238883360951
2  30 14 3 0 2.25238883360951
2  31 12 0 0 2.25238883360951
2  32 12 4 0 2.25238883360951
0

0101000
+75 0 -73 0 *
Wi

0101000
+74 0 -72 0 -71 0 +71 1 *
Fa
0  1e-07 12 0

0101000
+70 0 *
Ve
1e-07
-78.9473876953125 -218.50080871582 0
0 0

0101100
*
Ed
 1e-07 1 1 0
1  13 0 0 100
2  33 15 0 0 100
2  34 13 0 0 100
0

0101000
+68 0 -68 1 *
Ve
1e-07
-56.618839263916 -105.263175964355 0
0 0

0101100
*
Ed
 1e-07 1 1 0
1  14 0 0 100
2  35 15 0 0 100
2  36 16 0 0 100
0

0101000
+66 0 -66 1 *
Ed
 1e-07 1 1 0
1  15 0 0 2.34058502831112
6  5 1 0
2  37 17 0 0 2.34058502831112
2  38 17 3 0 2.34058502831112
2  39 15 0 0 2.34058502831112
2  40 15 4 0 2.34058502831112
0

0101000
+68 0 -66 0 *
Wi

0101000
+67 0 -65 0 -64 0 +64 1 *
Fa
0  1e-07 15 0

0101000
+63 0 *
Ve
1e-07
-24.7209148406982 -25.5183658599854 0
0 0

0101100
*
Ed
 1e-07 1 1 0
1  16 0 0 100
2  41 2 0 0 100
2  42 16 0 0 100
0

0101000
+61 0 -61 1 *
Ed
 1e-07 1 1 0
1  17 0 0 3.35506428671592
6  6 1 0
2  43 18 0 0 3.35506428671592
2  44 18 3 0 3.35506428671592
2  45 2 0 0 3.35506428671592
2  46 2 4 0 3.35506428671592
0

0101000
+61 0 -96 0 *
Wi

0101000
+60 0 -95 0 -59 0 +59 1 *
Fa
0  1e-07 2 0

0101000
+58 0 *
Ve
1e-07
163.476837158203 59.0111351013184 0
0 0

0101100
*
Ed
 1e-07 1 1 0
1  18 0 0 100
2  47 3 0 0 100
2  48 19 0 0 100
0

0101000
+56 0 -56 1 *
Ed
 1e-07 1 1 0
1  19 0 0 2.37815284140393
6  7 1 0
2  49 20 0 0 2.37815284140393
2  50 20 3 0 2.37815284140393
2  51 3 0 0 2.37815284140393
2  52 3 4 0 2.37815284140393
0

0101000
+94 0 -56 0 *
Wi

0101000
+93 0 -55 0 -54 0 +54 1 *
Fa
0  1e-07 3 0

0101000
+53 0 *
Ve
1e-07
246.41145324707 51.0366516113281 0
0 0

0101100
*
Ed
 1e-07 1 1 0
1  20 0 0 100
2  53 21 0 0 100
2  54 19 0 0 100
0

0101000
+51 0 -51 1 *
Ve
1e-07
335.725646972656 28.7081050872803 0
0 0

0101100
*
Ed
 1e-07 1 1 0
1  21 0 0 100
2  55 21 0 0 100
2  56 22 0 0 100
0

0101000
+49 0 -49 1 *
Ed
 1e-07 1 1 0
1  22 0 0 2.0446717538766
6  8 1 0
2  57 23 0 0 2.0446717538766
2  58 23 3 0 2.0446717538766
2  59 21 0 0 2.0446717538766
2  60 21 4 0 2.0446717538766
0

0101000
+51 0 -49 0 *
Wi

0101000
+50 0 -48 0 -47 0 +47 1 *
Fa
0  1e-07 21 0

0101000
+46 0 *
Ve
1e-07
338.915435791016 -30.3030548095703 0
0 0

0101100
*
Ed
 1e-07 1 1 0
1  23 0 0 100
2  61 24 0 0 100
2  62 22 0 0 100
0

0101000
+44 0 -44 1 *
Ve
1e-07
343.700134277344 -94.0989074707031 0
0 0

0101100
*
Ed
 1e-07 1 1 0
1  24 0 0 100
2  63 24 0 0 100
2  64 25 0 0 100
0

0101000
+42 0 -42 1 *
Ed
 1e-07 1 1 0
1  25 0 0 3.11113805415493
6  9 1 0
2  65 26 0 0 3.11113805415493
2  66 26 3 0 3.11113805415493
2  67 24 0 0 3.11113805415493
2  68 24 4 0 3.11113805415493
0

0101000
+44 0 -42 0 *
Wi

0101000
+43 0 -41 0 -40 0 +40 1 *
Fa
0  1e-07 24 0

0101000
+39 0 *
Ve
1e-07
338.915435791016 -172.248825073242 0
0 0

0101100
*
Ed
 1e-07 1 1 0
1  26 0 0 100
2  69 27 0 0 100
2  70 25 0 0 100
0

0101000
+37 0 -37 1 *
Ve
1e-07
330.940948486328 -232.854873657227 0
0 0

0101100
*
Ed
 1e-07 1 1 0
1  27 0 0 100
2  71 27 0 0 100
2  72 28 0 0 100
0

0101000
+35 0 -35 1 *
Ed
 1e-07 1 1 0
1  28 0 0 2.70425482244898
6  10 1 0
2  73 29 0 0 2.70425482244898
2  74 29 3 0 2.70425482244898
2  75 27 0 0 2.70425482244898
2  76 27 4 0 2.70425482244898
0

0101000
+37 0 -35 0 *
Wi

0101000
+36 0 -34 0 -33 0 +33 1 *
Fa
0  1e-07 27 0

0101000
+32 0 *
Ve
1e-07
316.586883544922 -290.271148681641 0
0 0

0101100
*
Ed
 1e-07 1 1 0
1  29 0 0 100
2  77 6 0 0 100
2  78 28 0 0 100
0

0101000
+30 0 -30 1 *
Ed
 1e-07 1 1 0
1  30 0 0 2.56758498435942
6  11 1 0
2  79 30 0 0 2.56758498435942
2  80 30 3 0 2.56758498435942
2  81 6 0 0 2.56758498435942
2  82 6 4 0 2.56758498435942
0

0101000
+30 0 -89 0 *
Wi

0101000
+29 0 -88 0 -28 0 +28 1 *
Fa
0  1e-07 6 0

0101000
+27 0 *
Ed
 1e-07 1 1 0
1  31 0 0 2.90511319250557
6  12 1 0
2  83 31 0 0 2.90511319250557
2  84 31 3 0 2.90511319250557
2  85 7 0 0 2.90511319250557
2  86 7 4 0 2.90511319250557
0

0101000
+87 0 -82 0 *
Wi

0101000
+86 0 -81 0 -25 0 +25 1 *
Fa
0  1e-07 7 0

0101000
+24 0 *
Ed
 1e-07 1 1 0
1  32 0 0 2.66789495970022
6  13 1 0
2  87 32 0 0 2.66789495970022
2  88 32 3 0 2.66789495970022
2  89 10 0 0 2.66789495970022
2  90 10 4 0 2.66789495970022
0

0101000
+80 0 -75 0 *
Wi

0101000
+79 0 -74 0 -22 0 +22 1 *
Fa
0  1e-07 10 0

0101000
+21 0 *
Ed
 1e-07 1 1 0
1  33 0 0 2.06345689389016
6  14 1 0
2  91 33 0 0 2.06345689389016
2  92 33 3 0 2.06345689389016
2  93 13 0 0 2.06345689389016
2  94 13 4 0 2.06345689389016
0

0101000
+73 0 -68 0 *
Wi

0101000
+72 0 -67 0 -19 0 +19 1 *
Fa
0  1e-07 13 0

0101000
+18 0 *
Ed
 1e-07 1 1 0
1  34 0 0 3.41381179942548
6  15 1 0
2  95 34 0 0 3.41381179942548
2  96 34 3 0 3.41381179942548
2  97 16 0 0 3.41381179942548
2  98 16 4 0 3.41381179942548
0

0101000
+66 0 -61 0 *
Wi

0101000
+65 0 -60 0 -16 0 +16 1 *
Fa
0  1e-07 16 0

0101000
+15 0 *
Ed
 1e-07 1 1 0
1  35 0 0 2.4835894640278
6  16 1 0
2  99 35 0 0 2.4835894640278
2  100 35 3 0 2.4835894640278
2  101 19 0 0 2.4835894640278
2  102 19 4 0 2.4835894640278
0

0101000
+56 0 -51 0 *
Wi

0101000
+55 0 -50 0 -13 0 +13 1 *
Fa
0  1e-07 19 0

0101000
+12 0 *
Ed
 1e-07 1 1 0
1  36 0 0 2.43561067327689
6  17 1 0
2  103 36 0 0 2.43561067327689
2  104 36 3 0 2.43561067327689
2  105 22 0 0 2.43561067327689
2  106 22 4 0 2.43561067327689
0

0101000
+49 0 -44 0 *
Wi

0101000
+48 0 -43 0 -10 0 +10 1 *
Fa
0  1e-07 22 0

0101000
+9 0 *
Ed
 1e-07 1 1 0
1  37 0 0 3.82700320434907
6  18 1 0
2  107 37 0 0 3.82700320434907
2  108 37 3 0 3.82700320434907
2  109 25 0 0 3.82700320434907
2  110 25 4 0 3.82700320434907
0

0101000
+42 0 -37 0 *
Wi

0101000
+41 0 -36 0 -7 0 +7 1 *
Fa
0  1e-07 25 0

0101000
+6 0 *
Ed
 1e-07 1 1 0
1  38 0 0 2.14636405638053
6  19 1 0
2  111 38 0 0 2.14636405638053
2  112 38 3 0 2.14636405638053
2  113 28 0 0 2.14636405638053
2  114 28 4 0 2.14636405638053
0

0101000
+35 0 -30 0 *
Wi

0101000
+34 0 -29 0 -4 0 +4 1 *
Fa
0  1e-07 28 0

0101000
+3 0 *
Sh

1101000
+90 0 +83 0 +76 0 +69 0 +62 0 +57 0 +52 0 +45 0 +38 0 +31 0 
+26 0 +23 0 +20 0 +17 0 +14 0 +11 0 +8 0 +5 0 +2 0 *

+1 0 
0

