DBRep_DrawableShape

CASCADE Topology V1, (c) Matra-Datavision
Locations 0
Curve2ds 45
1 0 17.854446224960327 1 0 
2 0 0 1 0 -0 1 26
1 0 20.682873349706512 1 0 
1 0 4.25 1 0 
1 6.2831853071795862 0 0 1 
1 0 0 0 1 
2 0 0 1 0 -0 1 32.942998886108398
1 0 13.270874315491247 1 0 
1 0 5.25 1 0 
1 0 0 1 0 
1 6.2831853071795862 0 0 1 
1 0 0 0 1 
1 0 -4.6749125082027012 1 0 
1 0 -10 1 0 
1 6.2831853071795862 0 0 1 
1 0 0 0 1 
1 0 1.5707963267949001 1 0 
2 0 0 1 0 -0 1 21.999999999999989
1 -3.14159265358979 -50 1 0 
1 6.2831853071795862 -4.7123889803846897 0 1 
1 0 -4.7123889803846897 0 1 
1 0 -13 1 0 
2 0 0 -1 0 0 1 40
1 6.2831853071795862 0 0 1 
1 0 0 0 1 
2 0 0 1 0 -0 1 18.000000000000011
1 0 1.5707963267948983 1 0 
1 0 3.1415926535897967 1 0 
1 0 5.25 1 0 
1 3.14159265358979 -50 -1 0 
1 6.2831853071795862 1.5707963267948977 0 1 
1 0 1.5707963267948977 0 1 
1 0 4.25 1 0 
1 0 -14.672465709620854 1 0 
1 6.2831853071795862 0 0 1 
1 0 0 0 1 
1 0 -24.33691223889771 1 0 
1 0 -6.3911254152037662 1 0 
2 0 0 -1 0 0 1 7.0570011138915998
1 6.2831853071795862 0 0 1 
1 0 0 0 1 
1 0 -17.500892834367043 1 0 
2 0 0 -1 0 0 1 14
1 6.2831853071795862 0 0 1 
1 0 0 0 1 
Curves 21
2 20 0 20 0 0 -1 -1 0 0 0 1 0 26
2 20 0 18 0 0 -1 -1 0 0 0 1 0 24
1 -18.625 7.1054273576010003e-15 32.625 0.70710678118654757 0 -0.70710678118654757 
2 20 0 20 0 0 -1 -1 0 0 0 1 0 32.942998886108398
2 20 0 17 0 0 -1 -1 0 0 0 1 0 24
1 -4 0 22.25 0 0 -1 
2 20 0 3.5 0 0 -1 -1 0 0 0 1 0 40
1 -18.161637430453901 7.1054273576010003e-15 7.7982822176122797 0.39323999461390008 0 0.91943586325314708 
2 20 0 15 0 0 -1 -1 0 0 0 1 0 21.999999999999989
8 4.7123889803846897 6.2831853071795898
2 -1.99999999999999 0 17 0 -1 0 0 0 -1 1 0 0 2.0000000000000102
2 20 0 0.499999999999998 0 0 -1 -1 0 0 0 1 0 40
1 -20 0 13.5 -1.8369701987210299e-16 0 1 
2 20 0 15 0 0 -1 -1 0 0 0 1 0 18.000000000000011
2 20 0 17 0 0 -1 -1 0 0 0 1 0 16
8 6.6613381477509097e-16 1.5707963267949001
2 1.99999999999999 0 17 0 -1 0 0 0 -1 1 0 0 2.0000000000000102
2 20 0 18 0 0 -1 -1 0 0 0 1 0 16
1 4 0 22.25 1.22464679914735e-16 0 -1 
2 20 0 20 0 0 -1 -1 0 0 0 1 0 7.0570011138915998
1 10.4297527622569 -7.1054273576010003e-15 25.876229913286998 -0.39323999461390008 0 0.91943586325314708 
2 20 0 20 0 0 -1 -1 0 0 0 1 0 14
1 -6.3749999999999902 0 7.625 -0.70710678118654702 0 -0.70710678118654802 
Polygon3D 0
PolygonOnTriangulations 0
Surfaces 15
3 20 0 32.625 0 0 -1 -1 1.8395928433918447e-16 0 1.8395928433918447e-16 1 0 38.625
-0.78539816339744828
1 20 0 20 0 0 -1 -1 0 0 0 1 0 
2 20 0 22.25 0 0 -1 -1 0 -0 0 1 0 24
3 20 0 7.7982822176122797 -0 -0 1 -1 1.8619293709684215e-16 0 1.8619293709684215e-16 1 0 38.161637430453901
-0.40415284253031775
5 20 0 17 0 0 -1 -1 0 0 0 1 0 21.999999999999989 2.0000000000000102
2 20 0 13.5 -0 -0 1 -1 0 0 0 1 0 40
1 20 0 15 0 0 -1 -1 0 0 0 1 0 
2 -1.99999999999999 -50 17 0 -1 0 0 0 1 -1 0 0 2.0000000000000102
1 20 0 0.499999999999996 0 0 -1 1 -0 -0 0 1 0 
5 20 0 17 0 0 -1 -1 0 0 0 1 0 18.000000000000011 2.0000000000000102
2 20 0 22.25 0 0 -1 -1 0 -0 0 1 0 16
2 1.99999999999999 -50 17 0 -1 0 -1.22464679914735e-16 0 1 1 0 1.22464679914735e-16 2.0000000000000102
3 20 0 7.625 0 0 -1 -1 0 0 0 1 0 26.374999999999989
0.78539816339744761
3 20 0 25.876229913286998 -0 -0 1 -1 -7.4244971745125315e-16 -0 -7.4244971745125315e-16 1 -0 9.5702472377431
0.40415284253031775
1 20 0 20 0 0 -1 1 -0 -0 0 1 0 
Triangulations 0

TShapes 65
Ve
1.02000000004e-05
-6 0 20
0 0

0101101
*
Ed
 1.02000000004e-05 1 1 0
1  1 0 0 6.28318530717959
2  1 1 0 0 6.28318530717959
2  2 2 0 0 6.28318530717959
0

0101100
+65 0 -65 0 *
Ve
1.02000000004e-05
-4 0 18
0 0

0101101
*
Ed
 1.02000000004e-05 1 1 0
1  2 0 0 6.28318530717959
2  3 1 0 0 6.28318530717959
2  4 3 0 0 6.28318530717959
0

0101100
+63 0 -63 0 *
Ed
 1e-07 1 1 0
1  3 0 17.8544462249603 20.6828733497065
3  5 6CN 1 0 17.8544462249603 20.6828733497065
0

0101000
+65 0 -63 0 *
Wi

0101000
+64 0 -62 0 -61 0 +61 0 *
Fa
0  1e-07 1 0

0101000
+60 0 *
Ve
1.02000000004e-05
-12.9429988861084 0 20
0 0

0101101
*
Ed
 1.02000000004e-05 1 1 0
1  4 0 0 6.28318530717959
2  7 2 0 0 6.28318530717959
2  8 4 0 0 6.28318530717959
0

0101100
+58 0 -58 0 *
Wi

0101000
+57 0 *
Wi

0101000
-64 0 *
Fa
0  1e-07 2 0

0101000
+56 0 +55 0 *
Ve
1.02000000004e-05
-4 0 17
0 0

0101101
*
Ed
 1.02000000004e-05 1 1 0
1  5 0 0 6.28318530717959
2  9 3 0 0 6.28318530717959
2  10 5 0 0 6.28318530717959
4 G1 3 0 5 0
0

0101100
+53 0 -53 0 *
Ed
 1e-07 1 1 0
1  6 0 4.25 5.25
3  11 12CN 3 0 4.25 5.25
0

0101000
+63 0 -53 0 *
Wi

0101000
+62 0 -52 0 -51 0 +51 0 *
Fa
0  1e-07 3 0

0101000
+50 0 *
Ve
1.02000000004e-05
-20 0 3.5
0 0

0101101
*
Ed
 1.02000000004e-05 1 1 0
1  7 0 0 6.28318530717959
2  13 4 0 0 6.28318530717959
2  14 6 0 0 6.28318530717959
0

0101100
+48 0 -48 0 *
Ed
 1e-07 1 1 0
1  8 0 -4.6749125082027 13.2708743154912
3  15 16CN 4 0 -4.6749125082027 13.2708743154912
0

0101000
+48 0 -58 0 *
Wi

0101000
+47 0 -57 0 -46 0 +46 0 *
Fa
0  1e-07 4 0

0101000
+45 0 *
Ve
1.02000000004e-05
-1.99999999999999 0 15
0 0

0101101
*
Ed
 1.02000000004e-05 1 1 0
1  9 0 0 6.28318530717959
2  17 5 0 0 6.28318530717959
2  18 7 0 0 6.28318530717959
4 G1 5 0 7 0
0

0101100
+43 0 -43 0 *
Ed
 1.02000000004e-05 1 1 0
1  10 0 4.71238898038469 6.28318530717959
2  19 8 0 4.71238898038469 6.28318530717959
3  20 21CN 5 0 4.71238898038469 6.28318530717959
0

0101000
+53 0 -43 0 *
Wi

0101000
+52 0 -42 0 -41 0 +41 0 *
Fa
0  1.02000000004e-05 5 0

0101000
+40 0 *
Ve
1.02048224000014e-05
-20 0 0.499999999999998
0 0

0101101
*
Ed
 1.02048224000014e-05 1 1 0
1  11 0 0 6.28318530717959
2  22 6 0 0 6.28318530717959
2  23 9 0 0 6.28318530717959
0

0101100
+38 0 -38 0 *
Ed
 1e-07 1 1 0
1  12 0 -13 -10
3  24 25CN 6 0 -13 -10
0

0101000
+38 0 -48 0 *
Wi

0101000
+37 0 -47 0 -36 0 +36 0 *
Fa
0  1e-07 6 0

0101000
+35 0 *
Wi

0101000
+42 0 *
Ve
1.02000000004e-05
1.99999999999999 0 15
0 0

0101101
*
Ed
 1.02000000004e-05 1 1 0
1  13 0 0 6.28318530717959
2  26 7 0 0 6.28318530717959
2  27 10 0 0 6.28318530717959
4 G1 7 0 10 0
0

0101100
+32 0 -32 0 *
Wi

0101000
-31 0 *
Fa
0  1e-07 7 0

0101000
+33 0 +30 0 *
Wi

0101000
-37 0 *
Fa
0  1e-07 9 0

0101000
+28 0 *
Ve
1.02000000004e-05
4 0 17
0 0

0101101
*
Ed
 1.02000000004e-05 1 1 0
1  14 0 0 6.28318530717959
2  28 10 0 0 6.28318530717959
2  29 11 0 0 6.28318530717959
4 G1 10 0 11 0
0

0101100
+26 0 -26 0 *
Ed
 1.02000000004e-05 1 1 0
1  15 0 6.66133814775091e-16 1.5707963267949
2  30 12 0 6.66133814775091e-16 1.5707963267949
3  31 32CN 10 0 6.66133814775091e-16 1.5707963267949
0

0101000
+32 0 -26 0 *
Wi

0101000
+31 0 -25 0 -24 0 +24 0 *
Fa
0  1.02000000004e-05 10 0

0101000
+23 0 *
Ve
1.02000000004e-05
4 0 18
0 0

0101101
*
Ed
 1.02000000004e-05 1 1 0
1  16 0 0 6.28318530717959
2  33 11 0 0 6.28318530717959
2  34 13 0 0 6.28318530717959
0

0101100
+21 0 -21 0 *
Ed
 1e-07 1 1 0
1  17 0 4.25 5.25
3  35 36CN 11 0 4.25 5.25
0

0101000
+21 0 -26 0 *
Wi

0101000
+20 0 -25 0 -19 0 +19 0 *
Fa
0  1e-07 11 0

0101000
+18 0 *
Ve
1.02000000004e-05
20 0 3.5
0 0

0101101
*
Ed
 1.02000000004e-05 1 1 1
2  37 14 0 0 6.28318530717959
0

0101100
+16 0 -16 0 *
Ve
1.02000000004e-05
12.9429988861084 0 20
0 0

0101101
*
Ed
 1.02000000004e-05 1 1 0
1  18 0 0 6.28318530717959
2  38 14 0 0 6.28318530717959
2  39 15 0 0 6.28318530717959
0

0101100
+14 0 -14 0 *
Ed
 1e-07 1 1 0
1  19 0 -24.3369122388977 -6.39112541520373
3  40 41CN 14 0 -24.3369122388977 -6.39112541520373
0

0101000
+16 0 -14 0 *
Wi

0101000
+15 0 -13 0 -12 0 +12 0 *
Fa
0  1e-07 14 0

0101000
+11 0 *
Ve
1.02000000004e-05
6 0 20
0 0

0101101
*
Ed
 1.02000000004e-05 1 1 0
1  20 0 0 6.28318530717959
2  42 13 0 0 6.28318530717959
2  43 15 0 0 6.28318530717959
0

0101100
+9 0 -9 0 *
Ed
 1e-07 1 1 0
1  21 0 -17.5008928343671 -14.6724657096209
3  44 45CN 13 0 -17.5008928343671 -14.6724657096209
0

0101000
+9 0 -21 0 *
Wi

0101000
+8 0 -20 0 -7 0 +7 0 *
Fa
0  1e-07 13 0

0101000
+6 0 *
Wi

0101000
+13 0 *
Wi

0101000
-8 0 *
Fa
0  1e-07 15 0

0101000
+4 0 +3 0 *
Sh

1101000
+59 0 +54 0 +49 0 +44 0 +39 0 +34 0 +29 0 +27 0 +22 0 -17 0 
-10 0 -5 0 -2 0 *

+1 0 
0

