DBRep_DrawableShape

CASCADE Topology V1, (c) Matra-Datavision
Locations 10
1
              1               0               0               0 
              0               1               0               0 
              0               0               1             100 
2  1 -1 0
1
              1               0               0               0 
              0               1               0               0 
              0               0               1              20 
2  3 -1 0
1
              1               0               0               0 
              0               1               0               0 
              0               0               1              10 
2  5 -1 0
1
              1               0               0               0 
              0               1               0               0 
              0               0               1               2 
2  7 -1 0
1
              1               0               0               0 
              0               1               0               0 
              0               0               1             0.5 
2  9 -1 0
Curve2ds 109
1 0 1.5707963267949756 1 0 
2 0 0 -1 0 0 1 0.13682626825359989
1 0 1.8797461753039366 1 0 
2 -3.4980599647266102 -0.34910446767709402 1 0 0 -1 0.45000000000000301
1 0 0 1 0 
1 0 -100 1 0 
1 0 0 1 0 
1 0 -20 1 0 
1 0 0 1 0 
1 0 -10 1 0 
1 0 0 1 0 
1 0 -2 1 0 
1 0 0 1 0 
1 0 -0.5 1 0 
1 6.2831853071795862 -4.7123889803846843 0 1 
1 0 -4.7123889803846843 0 1 
2 0 0 -1 0 0 1 0.27777878191209737
1 0 1.5707963267949756 1 0 
1 0 1.5147685928776538 1 0 
1 0 3.6944911869222041 1 0 
2 -3.4980599647266102 -0.20815195401859701 1 0 0 -1 0.45000000000000301
1 0 0 1 0 
1 0 -100 1 0 
1 0 0 1 0 
1 0 -20 1 0 
1 0 0 1 0 
1 0 -10 1 0 
1 0 0 1 0 
1 0 -2 1 0 
1 0 0 1 0 
1 0 -0.5 1 0 
1 6.2831853071795862 -4.7123889803846861 0 1 
1 0 -4.7123889803846861 0 1 
1 0 3.1415926535897931 1 0 
1 0 0.80907883044190498 1 0 
2 -2.8124458338089098 0.20000000000000301 1 0 0 -1 0.45000000000000301
1 0 0 1 0 
1 0 -100 1 0 
1 0 0 1 0 
1 0 -20 1 0 
1 0 0 1 0 
1 0 -10 1 0 
1 0 0 1 0 
1 0 -2 1 0 
1 0 0 1 0 
1 0 -0.5 1 0 
1 6.2831853071795862 1.570796326794893 0 1 
1 0 1.570796326794893 0 1 
1 0 0.091087284102798094 1 0 
1 0 3.1415926535897931 1 0 
1 -2.0033670033669999 -0.25 -1 0 
1 6.2831853071795862 0 0 1 
1 0 0 0 1 
1 0 2.2868613565041427 1 0 
1 0 1.2999390702768259 1 0 
2 -2.0944542874697998 0.20000000000000301 1 0 0 -1 0.45000000000000301
1 0 0 1 0 
1 0 -100 1 0 
1 0 0 1 0 
1 0 -20 1 0 
1 0 0 1 0 
1 0 -10 1 0 
1 0 0 1 0 
1 0 -2 1 0 
1 0 0 1 0 
1 0 -0.5 1 0 
1 6.2831853071795862 -4.712388980384687 0 1 
1 0 -4.712388980384687 0 1 
1 0 0.11385910968296822 1 0 
1 0 0.97640865636015695 1 0 
1 -0.90166911666685601 0.88527740568672497 -0.65642124145070302 -0.75439456107021197 
1 6.2831853071795862 0 0 1 
1 0 0 0 1 
1 0 0.90516261447471702 1 0 
1 0 5.8758867329036555 1 0 
1 0 0.79938271604940103 -1 0 
1 6.2831853071795862 0 0 1 
1 0 0 0 1 
1 0 4.7123889803846897 1 0 
2 0 0 1 0 -0 1 0.87212602212599677
2 -0.72690396023720905 0.38619528619530302 1 0 0 -1 0.45000000000000301
1 0 0 1 0 
1 0 -100 1 0 
1 0 0 1 0 
1 0 -20 1 0 
1 0 0 1 0 
1 0 -10 1 0 
1 0 0 1 0 
1 0 -2 1 0 
1 0 0 1 0 
1 0 -0.5 1 0 
1 6.2831853071795862 1.5707963267948997 0 1 
1 0 1.5707963267948997 0 1 
2 0 0 1 0 -0 1 0.25
1 0 4.7123889803846897 1 0 
1 0 4.1233580101683849 1 0 
2 -0.72690396023720905 -0.235930735930694 1 0 0 -1 0.45000000000000301
1 0 0 1 0 
1 0 -100 1 0 
1 0 0 1 0 
1 0 -20 1 0 
1 0 0 1 0 
1 0 -10 1 0 
1 0 0 1 0 
1 0 -2 1 0 
1 0 0 1 0 
1 0 -0.5 1 0 
1 6.2831853071795862 1.570796326794905 0 1 
1 0 1.570796326794905 0 1 
Curves 19
2 -93.292126022125998 -49.558497675164297 0.75 -1 0 0 0 1 0 0 0 -1 0.13682626825359989
2 -93.742126022126001 -49.421671406910697 0.75 0 0 -1 1 0 0 0 -1 0 0.45000000000000301
2 -93.292126022125998 -49.558497675164297 0.75 -1 0 0 0 1 0 0 0 -1 0.27777878191209737
2 -93.292832136450698 -49.558497675164297 0.75 -1 0 0 0 1 0 0 0 -1 0.30297807346629924
2 -93.742126022126001 -49.2807188932522 0.75 0 0 -1 1 0 0 0 -1 0 0.45000000000000301
2 -93.056511891208302 -49.558497675164297 0.75 -1 0 0 0 1 0 0 0 -1 0.23593073593069391
2 -93.056511891208302 -48.8725669392336 0.75 0 0 -1 1 0 0 0 -1 0 0.45000000000000301
2 -92.338520344869195 -49.558497675164297 0.75 -1 0 0 0 1 0 0 0 -1 0.23593073593069391
1 -92.247433060766397 -49.322566939233603 0.75 -1 0 0 
2 -91.999042792387598 -49.558497675164297 0.75 -1 0 0 0 1 0 0 0 -1 0.39054117727789617
2 -92.338520344869195 -48.8725669392336 0.75 0 0 -1 1 0 0 0 -1 0 0.45000000000000301
2 -91.2204747121948 -49.558497675164297 0.75 -1 0 0 0 1 0 0 0 -1 1.2853134485442936
1 -91.145735174066203 -48.187289533546902 0.75 -0.65642124145070302 -0.75439456107021197 0 
2 -91.149228671874098 -49.558497675164297 0.75 -1 0 0 0 1 0 0 0 -1 1.2853134519800946
1 -90.244066057399394 -48.273184223184202 0.75 -1 0 0 
2 -91.420970017636606 -49.558497675164297 0.75 -1 0 0 0 1 0 0 0 -1 0.87212602212599677
2 -90.970970017636603 -48.6863716530383 0.75 0 0 -1 1 0 0 0 -1 0 0.45000000000000301
2 -91.420970017636606 -49.558497675164297 0.75 -1 0 0 0 1 0 0 0 -1 0.25
2 -90.970970017636603 -49.308497675164297 0.75 0 0 -1 1 0 0 0 -1 0 0.45000000000000301
Polygon3D 0
PolygonOnTriangulations 0
Surfaces 42
5 -93.742126022126001 -49.558497675164297 0.75 1 -0 -0 0 1 0 0 0 -1 0.13682626825359989 0.45000000000000301
1 -93.292126022125998 -49.558497675164297 0.75 1 -0 -0 -0 -1 -0 -0 0 -1 
1 -90.244066057399394 -49.072566939233603 0.75 0 0 1 1 0 -0 -0 1 0 
2 -93.742126022126001 -49.421671406910697 0.75 0 0 -1 1 0 0 0 -1 0 0.45000000000000301
2 -93.742126022126001 -49.421671406910697 0.75 0 0 -1 1 0 0 0 -1 0 0.45000000000000301
2 -93.742126022126001 -49.421671406910697 0.75 0 0 -1 1 0 0 0 -1 0 0.45000000000000301
2 -93.742126022126001 -49.421671406910697 0.75 0 0 -1 1 0 0 0 -1 0 0.45000000000000301
2 -93.742126022126001 -49.421671406910697 0.75 0 0 -1 1 0 0 0 -1 0 0.45000000000000301
5 -93.742126022126001 -49.558497675164297 0.75 1 -0 -0 0 1 0 0 0 -1 0.27777878191209737 0.45000000000000301
5 -93.056511891208302 -49.558497675164297 0.75 1 -0 -0 0 1 0 0 0 -1 0.68593073593069676 0.45000000000000301
2 -93.742126022126001 -49.2807188932522 0.75 0 0 -1 1 0 0 0 -1 0 0.45000000000000301
2 -93.742126022126001 -49.2807188932522 0.75 0 0 -1 1 0 0 0 -1 0 0.45000000000000301
2 -93.742126022126001 -49.2807188932522 0.75 0 0 -1 1 0 0 0 -1 0 0.45000000000000301
2 -93.742126022126001 -49.2807188932522 0.75 0 0 -1 1 0 0 0 -1 0 0.45000000000000301
2 -93.742126022126001 -49.2807188932522 0.75 0 0 -1 1 0 0 0 -1 0 0.45000000000000301
2 -92.247433060766397 -49.558497675164297 0.75 -1 0 0 0 1 -0 -0 0 -1 0.23593073593069391
2 -93.056511891208302 -48.8725669392336 0.75 0 0 -1 1 0 0 0 -1 0 0.45000000000000301
2 -93.056511891208302 -48.8725669392336 0.75 0 0 -1 1 0 0 0 -1 0 0.45000000000000301
2 -93.056511891208302 -48.8725669392336 0.75 0 0 -1 1 0 0 0 -1 0 0.45000000000000301
2 -93.056511891208302 -48.8725669392336 0.75 0 0 -1 1 0 0 0 -1 0 0.45000000000000301
2 -93.056511891208302 -48.8725669392336 0.75 0 0 -1 1 0 0 0 -1 0 0.45000000000000301
5 -92.338520344869195 -49.558497675164297 0.75 1 -0 -0 0 1 0 0 0 -1 0.68593073593069676 0.45000000000000301
3 -91.145735174066203 -49.558497675164297 0.75 -1 0 0 0 1 0 0 0 -1 1.3712081416173945
-0.85473129708565765
2 -92.338520344869195 -48.8725669392336 0.75 0 0 -1 1 0 0 0 -1 0 0.45000000000000301
2 -92.338520344869195 -48.8725669392336 0.75 0 0 -1 1 0 0 0 -1 0 0.45000000000000301
2 -92.338520344869195 -48.8725669392336 0.75 0 0 -1 1 0 0 0 -1 0 0.45000000000000301
2 -92.338520344869195 -48.8725669392336 0.75 0 0 -1 1 0 0 0 -1 0 0.45000000000000301
2 -92.338520344869195 -48.8725669392336 0.75 0 0 -1 1 0 0 0 -1 0 0.45000000000000301
2 -90.244066057399394 -49.558497675164297 0.75 -1 0 0 0 1 -0 -0 0 -1 1.2853134519800946
5 -90.970970017636603 -49.558497675164297 0.75 1 -0 -0 0 1 0 0 0 -1 0.87212602212599677 0.45000000000000301
1 -91.420970017636606 -49.558497675164297 0.75 -1 0 0 0 1 0 0 0 -1 
2 -90.970970017636603 -48.6863716530383 0.75 0 0 -1 1 0 0 0 -1 0 0.45000000000000301
2 -90.970970017636603 -48.6863716530383 0.75 0 0 -1 1 0 0 0 -1 0 0.45000000000000301
2 -90.970970017636603 -48.6863716530383 0.75 0 0 -1 1 0 0 0 -1 0 0.45000000000000301
2 -90.970970017636603 -48.6863716530383 0.75 0 0 -1 1 0 0 0 -1 0 0.45000000000000301
2 -90.970970017636603 -48.6863716530383 0.75 0 0 -1 1 0 0 0 -1 0 0.45000000000000301
5 -90.970970017636603 -49.558497675164297 0.75 1 -0 -0 0 1 0 0 0 -1 0.25 0.45000000000000301
2 -90.970970017636603 -49.308497675164297 0.75 0 0 -1 1 0 0 0 -1 0 0.45000000000000301
2 -90.970970017636603 -49.308497675164297 0.75 0 0 -1 1 0 0 0 -1 0 0.45000000000000301
2 -90.970970017636603 -49.308497675164297 0.75 0 0 -1 1 0 0 0 -1 0 0.45000000000000301
2 -90.970970017636603 -49.308497675164297 0.75 0 0 -1 1 0 0 0 -1 0 0.45000000000000301
2 -90.970970017636603 -49.308497675164297 0.75 0 0 -1 1 0 0 0 -1 0 0.45000000000000301
Triangulations 0

TShapes 58
Ve
1e-07
-93.292126022126 -49.4216714069107 0.75
0 0

0101100
*
Ed
 1e-07 1 1 0
1  1 0 0 6.28318530717959
2  1 1 0 0 6.28318530717959
2  2 2 0 0 6.28318530717959
4 G1 1 0 2 0
0

0101100
+58 0 -58 0 *
Ve
1e-07
-93.3134319910085 -49.5584976751643 0.75
0 0

0101100
*
Ed
 1e-07 1 1 1
2  3 1 0 0 6.28318530717959
0

0101100
+56 0 -56 0 *
Ed
 1e-07 1 1 0
2  4 3 0 6.28318530717966 6.59213515568866
1  2 0 6.28318530717966 6.59213515568866
2  5 4 0 6.28318530717966 6.59213515568866
2  6 4 2 6.28318530717966 6.59213515568866
2  7 5 0 6.28318530717966 6.59213515568866
2  8 5 4 6.28318530717966 6.59213515568866
2  9 6 0 6.28318530717966 6.59213515568866
2  10 6 6 6.28318530717966 6.59213515568866
2  11 7 0 6.28318530717966 6.59213515568866
2  12 7 8 6.28318530717966 6.59213515568866
2  13 8 0 6.28318530717966 6.59213515568866
2  14 8 10 6.28318530717966 6.59213515568866
3  15 16CN 1 0 6.28318530717966 6.59213515568866
0

0101000
+58 0 -56 0 *
Wi

0101000
+57 0 -55 0 -54 0 +54 0 *
Fa
0  1e-07 1 0

0101000
+53 0 *
Wi

0101000
+57 0 *
Ve
1e-07
-93.292126022126 -49.2807188932522 0.75
0 0

0101100
*
Ed
 1e-07 1 1 0
1  3 0 0 6.28318530717959
2  17 2 0 0 6.28318530717959
2  18 9 0 0 6.28318530717959
4 G1 2 0 9 0
0

0101100
+50 0 -50 0 *
Wi

0101000
-49 0 *
Fa
0  1e-07 2 0

0101000
+51 0 +48 0 *
Ve
1e-07
-93.2928321364507 -49.255519601698 0.75
0 0

0101100
*
Ed
 1e-07 1 1 0
1  4 0 0 6.28318530717959
2  19 9 0 0 6.28318530717959
2  20 10 0 0 6.28318530717959
0

0101100
+46 0 -46 0 *
Ed
 1e-07 1 1 0
2  21 3 0 6.22715757326234 6.28318530717966
1  5 0 6.22715757326234 6.28318530717966
2  22 11 0 6.22715757326234 6.28318530717966
2  23 11 2 6.22715757326234 6.28318530717966
2  24 12 0 6.22715757326234 6.28318530717966
2  25 12 4 6.22715757326234 6.28318530717966
2  26 13 0 6.22715757326234 6.28318530717966
2  27 13 6 6.22715757326234 6.28318530717966
2  28 14 0 6.22715757326234 6.28318530717966
2  29 14 8 6.22715757326234 6.28318530717966
2  30 15 0 6.22715757326234 6.28318530717966
2  31 15 10 6.22715757326234 6.28318530717966
3  32 33CN 9 0 6.22715757326234 6.28318530717966
0

0101000
+46 0 -50 0 *
Wi

0101000
+45 0 -49 0 -44 0 +44 0 *
Fa
0  1e-07 9 0

0101000
+43 0 *
Ve
1e-07
-93.0565118912083 -49.3225669392336 0.75
0 0

0101100
*
Ed
 1e-07 1 1 0
1  6 0 0 6.28318530717959
2  34 10 0 0 6.28318530717959
2  35 16 0 0 6.28318530717959
4 G1 10 0 16 0
0

0101100
+41 0 -41 0 *
Ed
 1e-07 1 1 0
2  36 3 0 1.5707963267949 2.1236948601273
1  7 0 1.5707963267949 2.1236948601273
2  37 17 0 1.5707963267949 2.1236948601273
2  38 17 2 1.5707963267949 2.1236948601273
2  39 18 0 1.5707963267949 2.1236948601273
2  40 18 4 1.5707963267949 2.1236948601273
2  41 19 0 1.5707963267949 2.1236948601273
2  42 19 6 1.5707963267949 2.1236948601273
2  43 20 0 1.5707963267949 2.1236948601273
2  44 20 8 1.5707963267949 2.1236948601273
2  45 21 0 1.5707963267949 2.1236948601273
2  46 21 10 1.5707963267949 2.1236948601273
3  47 48CN 10 0 1.5707963267949 2.1236948601273
0

0101000
+41 0 -46 0 *
Wi

0101000
+40 0 -45 0 -39 0 +39 0 *
Fa
0  1e-07 10 0

0101000
+38 0 *
Ve
1e-07
-92.3385203448692 -49.3225669392336 0.75
0 0

0101100
*
Ed
 1e-07 1 1 0
1  8 0 0 6.28318530717959
2  49 16 0 0 6.28318530717959
2  50 22 0 0 6.28318530717959
4 G1 16 0 22 0
0

0101100
+36 0 -36 0 *
Ed
 1e-07 1 1 0
2  51 3 0 0.0910872841027981 0.809078830441905
1  9 0 0.0910872841027981 0.809078830441905
3  52 53CN 16 0 0.0910872841027981 0.809078830441905
0

0101000
+36 0 -41 0 *
Wi

0101000
+35 0 -40 0 -34 0 +34 0 *
Fa
0  1e-07 16 0

0101000
+33 0 *
Ve
1e-07
-91.9990427923876 -49.1679564978864 0.75
0 0

0101100
*
Ed
 1e-07 1 1 0
1  10 0 0 6.28318530717959
2  54 22 0 0 6.28318530717959
2  55 23 0 0 6.28318530717959
4 G1 22 0 23 0
0

0101100
+31 0 -31 0 *
Ed
 1e-07 1 1 0
2  56 3 0 6.99925033688883 7.85398163397448
1  11 0 6.99925033688883 7.85398163397448
2  57 24 0 6.99925033688883 7.85398163397448
2  58 24 2 6.99925033688883 7.85398163397448
2  59 25 0 6.99925033688883 7.85398163397448
2  60 25 4 6.99925033688883 7.85398163397448
2  61 26 0 6.99925033688883 7.85398163397448
2  62 26 6 6.99925033688883 7.85398163397448
2  63 27 0 6.99925033688883 7.85398163397448
2  64 27 8 6.99925033688883 7.85398163397448
2  65 28 0 6.99925033688883 7.85398163397448
2  66 28 10 6.99925033688883 7.85398163397448
3  67 68CN 22 0 6.99925033688883 7.85398163397448
0

0101000
+31 0 -36 0 *
Wi

0101000
+30 0 -35 0 -29 0 +29 0 *
Fa
0  1e-07 22 0

0101000
+28 0 *
Ve
1e-07
-91.2204747121948 -48.27318422662 0.75
0 0

0101100
*
Ed
 1e-07 1 1 0
1  12 0 0 6.28318530717959
2  69 23 0 0 6.28318530717959
2  70 29 0 0 6.28318530717959
0

0101100
+26 0 -26 0 *
Ed
 1e-07 1 1 0
2  71 3 0 0.113859109682914 1.29993907027683
1  13 0 0.113859109682914 1.29993907027683
3  72 73CN 23 0 0.113859109682914 1.29993907027683
0

0101000
+26 0 -31 0 *
Wi

0101000
+25 0 -30 0 -24 0 +24 0 *
Fa
0  1e-07 23 0

0101000
+23 0 *
Ve
1e-07
-91.1492286718741 -48.2731842231842 0.75
0 0

0101100
*
Ed
 1e-07 1 1 0
1  14 0 0 6.28318530717959
2  74 29 0 0 6.28318530717959
2  75 30 0 0 6.28318530717959
0

0101100
+21 0 -21 0 *
Ed
 1e-07 1 1 0
2  76 3 0 0.905162614474717 0.976408656360157
1  15 0 0.905162614474717 0.976408656360157
3  77 78CN 29 0 0.905162614474717 0.976408656360157
0

0101000
+21 0 -26 0 *
Wi

0101000
+20 0 -25 0 -19 0 +19 0 *
Fa
0  1e-07 29 0

0101000
+18 0 *
Ve
1e-07
-91.4209700176366 -48.6863716530383 0.75
0 0

0101100
*
Ed
 1e-07 1 1 0
1  16 0 0 6.28318530717959
2  79 30 0 0 6.28318530717959
2  80 31 0 0 6.28318530717959
4 G1 30 0 31 0
0

0101100
+16 0 -16 0 *
Ed
 1e-07 1 1 0
2  81 3 0 3.14159265358979 4.30509040610876
1  17 0 3.14159265358979 4.30509040610876
2  82 32 0 3.14159265358979 4.30509040610876
2  83 32 2 3.14159265358979 4.30509040610876
2  84 33 0 3.14159265358979 4.30509040610876
2  85 33 4 3.14159265358979 4.30509040610876
2  86 34 0 3.14159265358979 4.30509040610876
2  87 34 6 3.14159265358979 4.30509040610876
2  88 35 0 3.14159265358979 4.30509040610876
2  89 35 8 3.14159265358979 4.30509040610876
2  90 36 0 3.14159265358979 4.30509040610876
2  91 36 10 3.14159265358979 4.30509040610876
3  92 93CN 30 0 3.14159265358979 4.30509040610876
0

0101000
+16 0 -21 0 *
Wi

0101000
+15 0 -20 0 -14 0 +14 0 *
Fa
0  1e-07 30 0

0101000
+13 0 *
Wi

0101000
+15 0 *
Ve
1e-07
-91.4209700176366 -49.3084976751643 0.75
0 0

0101100
*
Ed
 1e-07 1 1 0
1  18 0 0 6.28318530717959
2  94 31 0 0 6.28318530717959
2  95 37 0 0 6.28318530717959
4 G1 31 0 37 0
0

0101100
+10 0 -10 0 *
Wi

0101000
-9 0 *
Fa
0  1e-07 31 0

0101000
+11 0 +8 0 *
Ve
1e-07
-91.345135756314 -49.5584976751643 0.75
0 0

0101100
*
Ed
 1e-07 1 1 1
2  96 37 0 0 6.28318530717959
0

0101100
+6 0 -6 0 *
Ed
 1e-07 1 1 0
2  97 3 0 2.55256168337348 3.14159265358979
1  19 0 2.55256168337348 3.14159265358979
2  98 38 0 2.55256168337348 3.14159265358979
2  99 38 2 2.55256168337348 3.14159265358979
2  100 39 0 2.55256168337348 3.14159265358979
2  101 39 4 2.55256168337348 3.14159265358979
2  102 40 0 2.55256168337348 3.14159265358979
2  103 40 6 2.55256168337348 3.14159265358979
2  104 41 0 2.55256168337348 3.14159265358979
2  105 41 8 2.55256168337348 3.14159265358979
2  106 42 0 2.55256168337348 3.14159265358979
2  107 42 10 2.55256168337348 3.14159265358979
3  108 109CN 37 0 2.55256168337348 3.14159265358979
0

0101000
+6 0 -10 0 *
Wi

0101000
+5 0 -9 0 -4 0 +4 0 *
Fa
0  1e-07 37 0

0101000
+3 0 *
Sh

1101000
+52 0 -47 0 +42 0 +37 0 +32 0 +27 0 +22 0 +17 0 +12 0 -7 0 
+2 0 *

+1 0 
0

