DBRep_DrawableShape

CASCADE Topology V1, (c) Matra-Datavision
Locations 0
Curve2ds 44
1 0 0 1 0 
1 0 0 1 0 
1 -4.7123889803846897 0 1 0 
2 50.000000000000014 -49.999999999999986 1 0 0 -1 50
1 0 0 0 -1 
1 0 0 0 1 
1 100 0 0 -1 
1 0 0 0 1 
1 0 0 0 1 
1 0 -50.000000000000014 1 0 
1 0 0 0 1 
1 0 0 1 0 
1 1.5707963267948966 0 0 1 
1 0 50.000000000000014 1 0 
1 0 0 0 1 
1 50.000000000000014 0 0 1 
1 1.5707963267948966 0 0 1 
1 0 49.999999999999986 1 0 
7 0 0  9 10 2  1.2732399421460529e-18 50.000000000000014  0.17453292597721079 58.726646298860551  0.34906585095404807 67.453292632300872  0.52359877592789417 75.795435759238899  0.69813170091947541 83.368577200220898  0.87266462589104776 89.819826882099733  1.0471975508708056 94.859580355230719  1.2217304758380578 98.28652709510061  1.396263400817686 99.99999999127337  1.5707963267948968 100.00000000000001 
 4.7123889803846897 10 6.2831853071795862 10
7 0 0  9 10 2  1.5707963267948966 50.000000000000014  1.396263400817686 58.726646298860551  1.221730475836921 67.453292632300872  1.0471975508626201 75.795435759238899  0.8726646258328401 83.368577200220898  0.69813170092311339 89.819826882099733  0.52359877592607518 94.859580355230719  0.34906585095404807 98.28652709510061  0.1745329259772106 99.99999999127337  0 100.00000000000001 
 4.7123889803846897 10 6.2831853071795862 10
1 -1.5707963267948966 0 1 0 
2 49.999999999999986 50.000000000000014 0 -1 -1 -0 50
1 0 0 0 1 
1 0 100 1 0 
1 -4.7123889803846897 0 1 0 
2 50.000000000000014 49.999999999999986 0 -1 -1 -0 50
1 0 0 0 -1 
1 100 0 0 1 
1 1.5707963267948966 0 0 1 
1 0 50.000000000000014 1 0 
1 100 0 0 -1 
1 100 0 0 1 
1 1.5707963267948966 0 0 1 
1 0 49.999999999999986 1 0 
7 0 0  9 10 2  0 49.999999999999986  0.1745329259772106 41.273353701139449  0.34906585096132403 32.546707367491763  0.52359877588969539 24.204564240630134  0.69813170095221722 16.63142279436579  0.87266462580373627 10.180173116445076  1.047197550877172 5.1404196444782428  1.221730475833283 1.7134729048339068  1.396263400817686 8.7266338287577066e-09  1.5707963267948966 -1.4235854726841866e-14 
 1.5707963267948966 10 3.1415926535897931 10
7 0 0  9 10 2  1.5707963267948966 50.000000000000014  1.3962634008176857 58.726646298860551  1.2217304758380578 67.453292632504599  1.0471975508708056 75.795435760868713  0.87266462587649585 83.36857720091939  0.69813170091947541 89.819826882798225  0.52359877592789417 94.859580354997888  0.34906585095404807 98.286527095013298  0.17453292597721093 99.99999999127337  1.4338178683877408e-16 100.00000000000001 
 1.5707963267948966 10 3.1415926535897931 10
1 0 0 0 1 
1 0 -49.999999999999986 1 0 
1 0 -100 1 0 
1 0 100 1 0 
1 0 0 0 1 
1 50.000000000000014 0 0 1 
1 -4.7123889803846897 100 1 0 
2 50.000000000000014 -50.000000000000014 1 0 -0 1 50
Curves 22
1 0 0 0 0 0 1 
8 4.7123889803846897 6.2831853071795862
2 0 49.999999999999986 50.000000000000014 -1 -0 0 0 0 1 -0 1 0 50
1 0 0 0 -0 1 0 
1 0 0 100 -0 1 0 
1 -1.4210854715202004e-14 50.000000000000014 0 0 0 1 
1 0 0 0 1 0 -0 
1 50.000000000000014 -1.4210854715202004e-14 0 0 0 1 
1 0 -1.4210854715202004e-14 50.000000000000014 1 0 -0 
1 0 49.999999999999986 100.00000000000001 1 0 -0 
8 4.7123889803846897 6.2831853071795862
3 50.000000000000014 49.999999999999986 50.000000000000014 -0.70710678118654746 -0 0.70710678118654746 0.70710678118654746 0 0.70710678118654746 -0 1 0 70.710678118654755 50
8 1.5707963267948966 3.1415926535897931
2 49.999999999999986 50.000000000000014 0 -0 -0 -1 0 -1 0 -1 0 0 50
1 0 100 0 1 0 -0 
8 4.7123889803846897 6.2831853071795862
2 50.000000000000014 49.999999999999986 0 -0 -0 -1 0 -1 0 -1 0 0 50
1 100 0 0 -0 1 0 
1 0 50.000000000000014 100.00000000000001 1 0 -0 
1 100 0 100 0 1 0 
1 49.999999999999986 100.00000000000001 0 0 0 1 
8 1.5707963267948966 3.1415926535897931
3 49.999999999999986 50.000000000000014 50.000000000000014 0.70710678118654746 0 0.70710678118654746 0.70710678118654746 0 -0.70710678118654746 -0 1 0 70.710678118654755 50
1 100.00000000000001 49.999999999999986 0 0 0 1 
1 100 100 0 0 0 1 
1 0 100.00000000000001 50.000000000000014 1 0 -0 
8 4.7123889803846897 6.2831853071795862
2 100 50.000000000000014 50.000000000000014 1 0 -0 0 0 1 0 -1 0 50
Polygon3D 0
PolygonOnTriangulations 0
Surfaces 10
1 0 0 0 1 0 -0 0 0 1 0 -1 0 
1 0 0 0 -0 1 0 0 0 1 1 0 -0 
2 0 49.999999999999986 50.000000000000014 1 0 -0 0 -1 0 -0 0 1 50
1 0 0 0 0 0 1 1 0 -0 -0 1 0 
1 0 0 100 0 0 1 1 0 -0 -0 1 0 
2 49.999999999999986 50.000000000000014 0 0 0 1 -1 -0 0 -0 1 -0 50
2 50.000000000000014 49.999999999999986 0 0 0 1 1 0 -0 0 -1 -0 50
1 0 100 0 -0 1 0 0 0 1 1 0 -0 
1 100 0 0 1 0 -0 0 0 1 0 -1 0 
2 0 50.000000000000014 50.000000000000014 1 0 -0 0 1 0 0 -0 1 50
Triangulations 0

TShapes 59
Ve
1e-07
0 -1.4210854715202e-14 50
0 0

0101101
*
Ve
1e-07
0 0 0
0 0

0101101
*
Ed
 1e-07 1 1 0
1  1 0 0 50
2  1 1 0 0 50
2  2 2 0 0 50
0

0101000
-59 0 +58 0 *
Ve
1e-07
0 50 100
0 0

0101101
*
Ed
 1e-07 1 1 0
1  2 0 4.71238898038469 6.28318530717959
2  3 3 0 4.71238898038469 6.28318530717959
2  4 1 0 4.71238898038469 6.28318530717959
0

0101000
+59 0 -56 0 *
Ve
1e-07
-1.4210854715202e-14 50 0
0 0

0101101
*
Ed
 1e-07 1 1 0
1  3 0 0 50
2  5 1 0 0 50
2  6 4 0 0 50
0

0101000
-54 0 +58 0 *
Ve
1e-07
0 50 100
0 0

0101101
*
Ed
 1e-07 1 1 0
1  4 0 50 50
2  7 1 0 50 50
2  8 5 0 50 50
0

0101000
+56 0 -52 0 *
Ed
 1e-07 1 1 0
1  5 0 0 100
2  9 6 0 0 100
2  10 1 0 0 100
4 G1 6 0 1 0
0

0101000
+54 0 -52 0 *
Wi

0101100
-57 0 -55 0 +53 0 -51 0 +50 0 *
Fa
0  1e-07 1 0

0101000
+49 0 *
Ve
1e-07
50 -1.4210854715202e-14 0
0 0

0101101
*
Ed
 1e-07 1 1 0
1  6 0 0 50
2  11 2 0 0 50
2  12 4 0 0 50
0

0101000
-47 0 +58 0 *
Ve
1e-07
50 -1.4210854715202e-14 50
0 0

0101101
*
Ed
 1e-07 1 1 0
1  7 0 0 50
2  13 7 0 0 50
2  14 2 0 0 50
4 G1 7 0 2 0
0

0101000
+47 0 -45 0 *
Ed
 1e-07 1 1 0
1  8 0 0 50
2  15 3 0 0 50
2  16 2 0 0 50
4 G1 3 0 2 0
0

0101000
+59 0 -45 0 *
Wi

0101100
-46 0 -44 0 +57 0 +43 0 *
Fa
0  1e-07 2 0

0101000
+42 0 *
Ve
1e-07
100 50 100
0 0

0101101
*
Ed
 1e-07 1 1 0
1  9 0 0 100
2  17 3 0 0 100
2  18 5 0 0 100
4 G1 3 0 5 0
0

0101000
+56 0 -40 0 *
Ed
 1e-07 1 1 0
1  10 0 4.71238898038469 6.28318530717959
2  19 3 0 4.71238898038469 6.28318530717959
2  20 7 0 4.71238898038469 6.28318530717959
0

0101000
+45 0 -40 0 *
Wi

0101100
+55 0 -43 0 +39 0 -38 0 *
Fa
0  0 3 0

0101000
+37 0 *
Ve
1e-07
50 100 0
0 0

0101101
*
Ed
 1e-07 1 1 0
1  11 0 1.5707963267949 3.14159265358979
2  21 6 0 1.5707963267949 3.14159265358979
2  22 4 0 1.5707963267949 3.14159265358979
0

0101000
+54 0 -35 0 *
Ve
1e-07
100 100 0
0 0

0101101
*
Ed
 1e-07 1 1 0
1  12 0 50 100
2  23 8 0 50 100
2  24 4 0 50 100
0

0101000
+35 0 -33 0 *
Ve
1e-07
100 50 0
0 0

0101101
*
Ed
 1e-07 1 1 0
1  13 0 4.71238898038469 6.28318530717959
2  25 7 0 4.71238898038469 6.28318530717959
2  26 4 0 4.71238898038469 6.28318530717959
0

0101000
+31 0 -47 0 *
Ed
 1e-07 1 1 0
1  14 0 50 100
2  27 9 0 50 100
2  28 4 0 50 100
0

0101000
+31 0 -33 0 *
Wi

0101100
-53 0 -34 0 +46 0 -32 0 -30 0 +29 0 *
Fa
0  1e-07 4 0

0101000
+28 0 *
Ve
1e-07
100 50 100
0 0

0101101
*
Ed
 1e-07 1 1 0
1  15 0 0 100
2  29 10 0 0 100
2  30 5 0 0 100
4 G1 10 0 5 0
0

0101000
+52 0 -26 0 *
Ed
 1e-07 1 1 0
1  16 0 50 50
2  31 9 0 50 50
2  32 5 0 50 50
0

0101000
+40 0 -26 0 *
Wi

0101100
-51 0 +39 0 -25 0 +24 0 *
Fa
0  1e-07 5 0

0101000
+23 0 *
Ve
1e-07
50 100 50
0 0

0101101
*
Ed
 1e-07 1 1 0
1  17 0 0 50
2  33 6 0 0 50
2  34 8 0 0 50
4 G1 6 0 8 0
0

0101000
+35 0 -21 0 *
Ed
 1e-07 1 1 0
1  18 0 1.5707963267949 3.14159265358979
2  35 10 0 1.5707963267949 3.14159265358979
2  36 6 0 1.5707963267949 3.14159265358979
0

0101000
+21 0 -52 0 *
Wi

0101100
+34 0 -50 0 +20 0 +19 0 *
Fa
0  0 6 0

0101000
+18 0 *
Ed
 1e-07 1 1 0
1  19 0 0 100
2  37 7 0 0 100
2  38 9 0 0 100
4 G1 7 0 9 0
0

0101000
+31 0 -40 0 *
Wi

0101100
+30 0 -16 0 +44 0 +38 0 *
Fa
0  0 7 0

0101000
+15 0 *
Ve
1e-07
100 100 50
0 0

0101101
*
Ed
 1e-07 1 1 0
1  20 0 0 50
2  39 9 0 0 50
2  40 8 0 0 50
0

0101000
-13 0 +33 0 *
Ed
 1e-07 1 1 0
1  21 0 50 100
2  41 10 0 50 100
2  42 8 0 50 100
4 G1 10 0 8 0
0

0101000
+21 0 -13 0 *
Wi

0101100
-32 0 +20 0 -12 0 +11 0 *
Fa
0  1e-07 8 0

0101000
+10 0 *
Ed
 1e-07 1 1 0
1  22 0 4.71238898038469 6.28318530717959
2  43 10 0 4.71238898038469 6.28318530717959
2  44 9 0 4.71238898038469 6.28318530717959
0

0101000
+13 0 -26 0 *
Wi

0101100
-24 0 -16 0 +8 0 +29 0 +12 0 *
Fa
0  1e-07 9 0

0101000
+7 0 *
Wi

0101100
+19 0 -11 0 +25 0 -8 0 *
Fa
0  0 10 0

0101000
+5 0 *
Sh

0101100
-48 0 -41 0 -36 0 -27 0 +22 0 -17 0 -14 0 +9 0 +6 0 +4 0 
*
So

0100000
+3 0 *
Co

1100000
+2 0 *

+1 0 
0

