DBRep_DrawableShape

CASCADE Topology V1, (c) Matra-Datavision
Locations 2
1
1.11022302462516e-16               0               1               0 
              0               1               0               0 
             -1               0 1.11022302462516e-16               0 
2  1 -1 0
Curve2ds 35
1 0 -16.4888233436868 1 0 
1 0 6.2831853071795862 1 0 
1 0 3.5527136788005003e-14 1 0 
1 0 4.4408920985006159e-15 1 0 
1 -27.774323906660499 -46.778440334469998 0 1 
1 6.2831853071795862 0 0 1 
1 0 0 0 1 
1 0 5.1724905049584642 1 0 
1 0 -7.8877184965852367e-16 1 0 
2 -28.3743239066605 -63.267263678156802 1 0 -0 1 0.59999999999999798
1 6.2831853071795862 4.4408920985006262e-15 0 1 
1 0 4.4408920985006262e-15 0 1 
1 0 -11.920907713317971 1 0 
1 0 4.2522874558109267 1 0 
1 -28.1079004610453 -63.804868130915999 0.89600742126535482 0.4440390760253079 
1 6.2831853071795862 0 0 1 
1 0 0 0 1 
1 0 3.4200995662158871 1 0 
2 -33.416249420491397 -79.939906774631496 -1 0 0 1 12.1
1 6.2831853071795862 -3.1415926535897931 0 1 
1 0 -3.1415926535897931 0 1 
1 0 2.1495396978752299 1 0 
1 0 -2.2807898716838746e-16 1 0 
1 0 2.8630857409636996 1 0 
2 -33.416249420491397 -28.313670622105001 1 0 0 -1 12.1
1 6.2831853071795862 0 0 1 
1 0 0 0 1 
1 0 -14.320570289541113 1 0 
1 0 0.99205295571456109 1 0 
1 -40.034615233201599 -38.443193511617103 -0.83715065202579031 0.54697238121571923 
1 6.2831853071795862 0 0 1 
1 0 0 0 1 
2 -28.3743239066605 -46.778440334469998 1 0 -0 1 0.59999999999999798
1 6.2831853071795862 -6.2831853071795853 0 1 
1 0 -6.2831853071795853 0 1 
Curves 13
2 5.7500000000000018 -12.467263678156794 -76.200000000000003 2.1723984008431558e-16 1 0 1 -2.1723984008431558e-16 0 0 0 -1 17.275676093339506
2 5.7500000000000053 4.0215596655300434 -76.200000000000003 2.1723984008431558e-16 1 0 1 -2.1723984008431558e-16 0 0 0 -1 17.275676093339499
1 76.200000000000003 4.0215596655300097 23.025676093339499 0 1 0 
2 5.7500000000000018 -13.004868130915995 -76.200000000000003 2.1723984008431558e-16 1 0 1 -2.1723984008431558e-16 0 0 0 -1 16.942099538954707
2 76.200000000000003 -12.467263678156799 22.425676093339501 -1 0 0 0 0 1 0 1 -0 0.59999999999999798
2 5.7500000000000009 -18.298216977320699 -76.200000000000003 2.1723984008431558e-16 1 0 1 -2.1723984008431558e-16 0 0 0 -1 6.2608777596024074
1 76.200000000000003 -13.004868130916 22.6920995389547 0 0.4440390760253079 0.89600742126535482 
2 76.200000000000003 -29.139906774631498 17.3837505795086 1 0 0 0 0 -1 -0 1 0 12.1
2 5.7500000000000071 12.356806488382901 -76.200000000000003 2.1723984008431558e-16 1 0 1 -2.1723984008431558e-16 0 0 0 -1 5.0153847667984017
2 76.200000000000003 22.486329377895 17.3837505795086 1 0 0 0 0 1 0 -1 0 12.1
2 5.7500000000000053 4.5238500567455127 -76.200000000000003 2.1723984008431558e-16 1 0 1 -2.1723984008431558e-16 0 0 0 -1 17.0038595220689
1 76.200000000000003 12.356806488382899 10.7653847667984 0 0.54697238121571923 -0.83715065202579031 
2 76.200000000000003 4.0215596655300399 22.425676093339501 -1 0 0 0 0 1 0 1 -0 0.59999999999999798
Polygon3D 0
PolygonOnTriangulations 0
Surfaces 8
2 5.7500000000000053 4.0215596655300132 -76.200000000000003 2.1723984008431558e-16 1 0 1 -2.1723984008431558e-16 0 0 0 -1 17.275676093339499
5 5.7500000000000018 -12.467263678156794 -76.200000000000003 2.1723984008431558e-16 1 0 1 -2.1723984008431558e-16 0 0 0 -1 16.675676093339504 0.59999999999999798
5 5.7500000000000053 4.0215596655300434 -76.200000000000003 2.1723984008431558e-16 1 0 1 -2.1723984008431558e-16 0 0 0 -1 16.675676093339501 0.59999999999999798
1 76.200000000000003 50.799999999999997 50.799999999999997 -1 0 0 0 0 1 0 1 -0 
3 5.7500000000000018 -13.004868130915995 -76.200000000000003 2.1723984008431558e-16 1 0 1 -2.1723984008431558e-16 0 0 0 -1 16.942099538954707
1.1106948022211296
5 5.7499999999999982 -29.139906774631498 -76.200000000000003 -2.1723984008431558e-16 -1 -0 1 -2.1723984008431558e-16 0 0 0 -1 11.633750579508609 12.1
5 5.7500000000000098 22.486329377895004 -76.200000000000003 -2.1723984008431558e-16 -1 -0 1 -2.1723984008431558e-16 0 0 0 -1 11.633750579508598 12.1
3 5.7500000000000071 12.356806488382901 -76.200000000000003 2.1723984008431558e-16 1 0 1 -2.1723984008431558e-16 0 0 0 -1 5.0153847667984017
-0.9920529557145612
Triangulations 0

TShapes 38
Ve
1e-07
76.2 -12.4672636781568 23.0256760933395
0 0

0101100
*
Ed
 1e-07 1 1 0
1  1 0 0 6.28318530717959
2  1 1 0 0 6.28318530717959
2  2 2 0 0 6.28318530717959
4 G1 1 0 2 0
0

0101100
+38 1 -38 1 *
Ve
1e-07
76.2 4.02155966553004 23.0256760933395
0 0

0101100
*
Ed
 1e-07 1 1 0
1  2 0 0 6.28318530717959
2  3 1 0 0 6.28318530717959
2  4 3 0 0 6.28318530717959
4 G1 1 0 3 0
0

0101100
+36 1 -36 1 *
Ed
 1e-07 1 1 0
2  5 4 0 -16.4888233436868 3.5527136788005e-14
1  3 0 -16.4888233436868 3.5527136788005e-14
3  6 7CN 1 2 -16.4888233436868 3.5527136788005e-14
0

0101000
+38 0 -36 0 *
Wi

0101000
+37 0 -35 0 -34 1 +34 1 *
Fa
0  1e-07 1 0

0101000
+33 0 *
Ve
1e-07
76.2 -13.004868130916 22.6920995389547
0 0

0101100
*
Ed
 1e-07 1 1 0
1  4 0 0 6.28318530717959
2  8 2 0 0 6.28318530717959
2  9 5 0 0 6.28318530717959
4 G1 2 0 5 0
0

0101100
+31 1 -31 1 *
Ed
 1e-07 1 1 0
2  10 4 0 5.17249050495846 6.28318530717959
1  5 0 5.17249050495846 6.28318530717959
3  11 12CN 2 2 5.17249050495846 6.28318530717959
0

0101000
+31 0 -38 0 *
Wi

0101000
+30 0 -37 0 -29 1 +29 1 *
Fa
0  1e-07 2 0

0101000
+28 0 *
Ve
1e-07
76.2 -18.2982169773207 12.0108777596024
0 0

0101100
*
Ed
 1e-07 1 1 0
1  6 0 0 6.28318530717959
2  13 5 0 0 6.28318530717959
2  14 6 0 0 6.28318530717959
4 G1 5 0 6 0
0

0101100
+26 1 -26 1 *
Ed
 1e-07 1 1 0
2  15 4 0 -11.920907713318 -1.11022302462516e-15
1  7 0 -11.920907713318 -1.11022302462516e-15
3  16 17CN 5 2 -11.920907713318 -1.11022302462516e-15
0

0101000
+26 0 -31 0 *
Wi

0101000
+25 0 -30 0 -24 1 +24 1 *
Fa
0  1e-07 5 0

0101000
+23 0 *
Ve
1e-07
76.2 -25.8133699187131 5.74999999999999
0 0

0101100
*
Ed
 1e-07 1 1 1
2  18 6 0 0 6.28318530717959
0

0101100
+21 1 -21 1 *
Ed
 1e-07 1 1 0
2  19 4 0 6.56169221980568 7.39388010940072
1  8 0 6.56169221980568 7.39388010940072
3  20 21CN 6 2 6.56169221980568 7.39388010940072
0

0101000
+21 0 -26 0 *
Wi

0101000
+20 0 -25 0 -19 1 +19 1 *
Fa
0  1e-07 6 0

0101000
+18 0 *
Ve
1e-07
76.2 12.3568064883829 10.7653847667984
0 0

0101100
*
Ed
 1e-07 1 1 0
1  9 0 0 6.28318530717959
2  22 7 0 0 6.28318530717959
2  23 8 0 0 6.28318530717959
4 G1 7 0 8 0
0

0101100
+16 1 -16 1 *
Ve
1e-07
76.2 19.1597925219766 5.75
0 0

0101100
*
Ed
 1e-07 1 1 1
2  24 7 0 0 6.28318530717959
0

0101100
+14 1 -14 1 *
Ed
 1e-07 1 1 0
2  25 4 0 2.14953969787523 2.8630857409637
1  10 0 2.14953969787523 2.8630857409637
3  26 27CN 7 2 2.14953969787523 2.8630857409637
0

0101000
+16 0 -14 0 *
Wi

0101000
+15 0 -13 0 -12 1 +12 1 *
Fa
0  1e-07 7 0

0101000
+11 0 *
Ve
1e-07
76.2 4.52385005674551 22.7538595220689
0 0

0101100
*
Ed
 1e-07 1 1 0
1  11 0 0 6.28318530717959
2  28 8 0 0 6.28318530717959
2  29 3 0 0 6.28318530717959
4 G1 8 0 3 0
0

0101100
+9 1 -9 1 *
Ed
 1e-07 1 1 0
2  30 4 0 -14.3205702895411 3.19744231092045e-14
1  12 0 -14.3205702895411 3.19744231092045e-14
3  31 32CN 8 2 -14.3205702895411 3.19744231092045e-14
0

0101000
+9 0 -16 0 *
Wi

0101000
+8 0 -15 0 -7 1 +7 1 *
Fa
0  1e-07 8 0

0101000
+6 0 *
Ed
 1e-07 1 1 0
2  33 4 0 6.28318530717959 7.27523826289415
1  13 0 6.28318530717959 7.27523826289415
3  34 35CN 3 2 6.28318530717959 7.27523826289415
0

0101000
+36 0 -9 0 *
Wi

0101000
+35 0 -8 0 -4 1 +4 1 *
Fa
0  1e-07 3 0

0101000
+3 0 *
Sh

1101000
+32 0 +27 0 +22 0 +17 0 +10 0 +5 0 +2 0 *

+1 0 
0

