DBRep_DrawableShape

CASCADE Topology V1, (c) Matra-Datavision
Locations 5
1
              1               0               0 0.0099364842912816 
              0               1               0 -0.0011252910419594 
              0               0               1              -0 
2  1 -1 0
1
              1               0               0               0 
              0               1               0               0 
              0               0               1              10 
2  1 1 3 1 0
2  3 -1 1 -1 0
Curve2ds 4
1 0 0 0 -1 
1 1 0 0 -1 
1 0 0 1 0 
1 0 -10 1 0 
Curves 10
1 3.69821867604165 -3.0285631212411501 -7.5374527159375502 0 0 1 
1 6.2397867735839903 0.23887470359362301 -7.9541504684622897 0 0 1 
1 3.6882821917503699 -3.0274378301991902 -7.5374527159375502 0.61088759126911474 0.78535657744722664 -0.10015686243986095 
1 3.6882821917503699 -3.0274378301991902 -7.5374527159375502 0.61088759126911474 0.78535657744722664 -0.10015686243986095 
1 7.0518603215891904 12.398874327488301 -8.6047649257591807 0 0 1 
7 0 0  8 86 13  6.2298502892927097 0.239999994635582 -7.9541504684622897  6.2526385528295396 0.26929656721790102 -7.9578866729767102  6.2753687580813899 0.29832172830025999 -7.9620247800879502  6.29804894521713 0.32723692244385399 -7.9664720860711196  6.32067831890632 0.35610360287944998 -7.9711907569824296  6.3432553903825601 0.384958666713834 -7.9761595107039804  6.36578611950676 0.41388989013625799 -7.9813352989884701  6.3882920568305099 0.44311136362488401 -7.9866149895039698  6.4287938961817499 0.496920219853689 -7.9959321741051204  6.4467747376720803 0.52121034465715899 -8.0000258923985506  6.4647688477483403 0.54599638047219901 -8.0040406796052803  6.48278259869031 0.57136957944952804 -8.0079405480589099  6.5008208974395298 0.59742536698202797 -8.0116910455803403  6.51888718559929 0.62426334170474296 -8.0152592554777993  6.5369834394346498 0.651987275494878 -8.0186137965468394  6.5895326797571299 0.73524004822026601 -8.0276326364856505  6.6239775945156802 0.79320050423681199 -8.0326404185592803  6.6586263584834304 0.856649513757613 -8.0360974781817909  6.6931619330918499 0.92147299873222299 -8.0402339899886002  6.7276231428678397 0.98940539623899404 -8.0445832849659897  6.7621272527827498 1.06280378831817 -8.04830111930033  6.7964964218066504 1.13972153804154 -8.0526900846585807  6.8589486559234496 1.2982040596520099 -8.0591436435074506  6.8860473176703199 1.37599214409029 -8.0609160798515997  6.9139244407792599 1.4564324089087399 -8.0632217322717903  6.9410922619507103 1.54498125649565 -8.0634101141897307  6.9685195206766002 1.64339320015365 -8.0632487021942794  6.9967356148703601 1.7498903254671101 -8.0640142440893108  7.02316078875121 1.86817761875515 -8.0615035098173102  7.0600255132622696 2.0903037960813 -8.0513672994119894  7.0710669241412401 2.1668924201962998 -8.0469459589660008  7.0822258437533803 2.2515989074804099 -8.0422151101282093  7.0930731240570699 2.34451716008925 -8.0370956770112905  7.1026472065376201 2.4453268463234901 -8.0309715229219396  7.1099191971790399 2.5535603009424799 -8.0231834269252804  7.1142579414356604 2.6688694254779399 -8.0135230604092005  7.1173544626474499 2.9004206715512502 -7.9931033163435004  7.1160519131463902 2.9992274189322798 -7.9833467519486501  7.1127616806920004 3.0908583963707699 -7.97362456882703  7.1080997274733599 3.17769119018952 -7.9640788501528297  7.1025237478774796 3.2613354073540699 -7.9548264639116999  7.0963331684892097 3.3426326754726898 -7.9459590629007204  7.0896691480912803 3.4216566427963602 -7.9375430847284099  7.0655420143738796 3.67813904010116 -7.9108234773603803  7.0455779166970203 3.8299803082302799 -7.8934531400224897  7.0245251866593197 4.0150934283387398 -7.8802498153810303  7.0013191374539501 4.1705579418365799 -7.8666763194744203  6.9772123457895399 4.3286670400788196 -7.85683919568657  6.9530221113447404 4.5247121852183003 -7.8538632685475198  6.92708553249589 4.69565752131418 -7.8517330098494398  6.8686280276987901 5.1197368656371598 -7.8610264099672298  6.8294916757874997 5.4176747293830099 -7.8791676312130798  6.80699190143058 5.5895240087075404 -7.8982861409144798  6.7876966901430604 5.8256137497552603 -7.9389630625742997  6.7707143520800104 6.0457889744300797 -7.9815194044463196  6.7632748064376704 6.1554426072944501 -8.0119443672608401  6.7625131567290797 6.32998712874641 -8.0592280673279504  6.76079973639599 6.6402631692136502 -8.1477788448878208  6.7632600579209798 6.7979902308385496 -8.1963507006711307  6.7691596457229997 6.9552367408500002 -8.2471444077828799  6.7770156809425304 7.1113867120806997 -8.2981220335887098  6.7857531110886598 7.2637481491703397 -8.3474133506621602  6.7951854186375202 7.4171561449854497 -8.3958924177692609  6.8050895440657904 7.5848546400803603 -8.4456773221776498  6.8166584766259897 7.8758116755761796 -8.5183054447886697  6.8209751701311401 7.9738832782339299 -8.5420247678875807  6.8248374800517002 8.0799997123246108 -8.5656407936475194  6.8277958648631998 8.1977061383285097 -8.5890549451050706  6.8299388053000101 8.3289648180542706 -8.6121403272727708  6.8318928043553298 8.4741551146389806 -8.6347417271390992  6.8348223872812 8.6320734925481002 -8.6566756136685292  6.8476386310858599 9.0157119748114596 -8.7047950255524498  6.8549284076071402 9.2867205100072603 -8.7305897758284701  6.8787048551496399 9.5480240206628793 -8.7599090744336703  6.8977330678012798 9.84164326550232 -8.7778093815574394  6.9202845320038797 10.1735736128069 -8.7877861211972306  6.9511546435802396 10.5099549411447 -8.7913578313455503  6.9622581948848099 10.8290793208396 -8.7712337425668991  6.97505855871115 11.3205732418413 -8.7231576205009507  6.9806123265305198 11.515417351566199 -8.7018345486598108  6.9854675127182304 11.6688268561843 -8.6817279304808803  6.9628762634946799 11.773870349991199 -8.6433902864941601  6.9910952866701903 11.9338231875939 -8.6422914045801207  7.0058076514638801 12.1021296905786 -8.6257236698916895  7.0256185144848198 12.256021236089399 -8.6162656725562599  7.0419238372979098 12.3999996185303 -8.6047649257591807 
 0 9 0.071729775200972401 7 0.12896797153091999 7 0.23766282886948301 7 0.32671860834011401 7 0.36705562508941297 7 0.40301206667747402 7 0.48831040663831798 7 0.60721641382283198 7 0.76720802597337101 7 0.84495983018117005 7 0.94490717831564597 7 1 9
7 0 0  8 86 13  6.2298502892927097 0.239999994635582 -7.9541504684622897  6.2526385528295396 0.26929656721790102 -7.9578866729767102  6.2753687580813899 0.29832172830025999 -7.9620247800879502  6.29804894521713 0.32723692244385399 -7.9664720860711196  6.32067831890632 0.35610360287944998 -7.9711907569824296  6.3432553903825601 0.384958666713834 -7.9761595107039804  6.36578611950676 0.41388989013625799 -7.9813352989884701  6.3882920568305099 0.44311136362488401 -7.9866149895039698  6.4287938961817499 0.496920219853689 -7.9959321741051204  6.4467747376720803 0.52121034465715899 -8.0000258923985506  6.4647688477483403 0.54599638047219901 -8.0040406796052803  6.48278259869031 0.57136957944952804 -8.0079405480589099  6.5008208974395298 0.59742536698202797 -8.0116910455803403  6.51888718559929 0.62426334170474296 -8.0152592554777993  6.5369834394346498 0.651987275494878 -8.0186137965468394  6.5895326797571299 0.73524004822026601 -8.0276326364856505  6.6239775945156802 0.79320050423681199 -8.0326404185592803  6.6586263584834304 0.856649513757613 -8.0360974781817909  6.6931619330918499 0.92147299873222299 -8.0402339899886002  6.7276231428678397 0.98940539623899404 -8.0445832849659897  6.7621272527827498 1.06280378831817 -8.04830111930033  6.7964964218066504 1.13972153804154 -8.0526900846585807  6.8589486559234496 1.2982040596520099 -8.0591436435074506  6.8860473176703199 1.37599214409029 -8.0609160798515997  6.9139244407792599 1.4564324089087399 -8.0632217322717903  6.9410922619507103 1.54498125649565 -8.0634101141897307  6.9685195206766002 1.64339320015365 -8.0632487021942794  6.9967356148703601 1.7498903254671101 -8.0640142440893108  7.02316078875121 1.86817761875515 -8.0615035098173102  7.0600255132622696 2.0903037960813 -8.0513672994119894  7.0710669241412401 2.1668924201962998 -8.0469459589660008  7.0822258437533803 2.2515989074804099 -8.0422151101282093  7.0930731240570699 2.34451716008925 -8.0370956770112905  7.1026472065376201 2.4453268463234901 -8.0309715229219396  7.1099191971790399 2.5535603009424799 -8.0231834269252804  7.1142579414356604 2.6688694254779399 -8.0135230604092005  7.1173544626474499 2.9004206715512502 -7.9931033163435004  7.1160519131463902 2.9992274189322798 -7.9833467519486501  7.1127616806920004 3.0908583963707699 -7.97362456882703  7.1080997274733599 3.17769119018952 -7.9640788501528297  7.1025237478774796 3.2613354073540699 -7.9548264639116999  7.0963331684892097 3.3426326754726898 -7.9459590629007204  7.0896691480912803 3.4216566427963602 -7.9375430847284099  7.0655420143738796 3.67813904010116 -7.9108234773603803  7.0455779166970203 3.8299803082302799 -7.8934531400224897  7.0245251866593197 4.0150934283387398 -7.8802498153810303  7.0013191374539501 4.1705579418365799 -7.8666763194744203  6.9772123457895399 4.3286670400788196 -7.85683919568657  6.9530221113447404 4.5247121852183003 -7.8538632685475198  6.92708553249589 4.69565752131418 -7.8517330098494398  6.8686280276987901 5.1197368656371598 -7.8610264099672298  6.8294916757874997 5.4176747293830099 -7.8791676312130798  6.80699190143058 5.5895240087075404 -7.8982861409144798  6.7876966901430604 5.8256137497552603 -7.9389630625742997  6.7707143520800104 6.0457889744300797 -7.9815194044463196  6.7632748064376704 6.1554426072944501 -8.0119443672608401  6.7625131567290797 6.32998712874641 -8.0592280673279504  6.76079973639599 6.6402631692136502 -8.1477788448878208  6.7632600579209798 6.7979902308385496 -8.1963507006711307  6.7691596457229997 6.9552367408500002 -8.2471444077828799  6.7770156809425304 7.1113867120806997 -8.2981220335887098  6.7857531110886598 7.2637481491703397 -8.3474133506621602  6.7951854186375202 7.4171561449854497 -8.3958924177692609  6.8050895440657904 7.5848546400803603 -8.4456773221776498  6.8166584766259897 7.8758116755761796 -8.5183054447886697  6.8209751701311401 7.9738832782339299 -8.5420247678875807  6.8248374800517002 8.0799997123246108 -8.5656407936475194  6.8277958648631998 8.1977061383285097 -8.5890549451050706  6.8299388053000101 8.3289648180542706 -8.6121403272727708  6.8318928043553298 8.4741551146389806 -8.6347417271390992  6.8348223872812 8.6320734925481002 -8.6566756136685292  6.8476386310858599 9.0157119748114596 -8.7047950255524498  6.8549284076071402 9.2867205100072603 -8.7305897758284701  6.8787048551496399 9.5480240206628793 -8.7599090744336703  6.8977330678012798 9.84164326550232 -8.7778093815574394  6.9202845320038797 10.1735736128069 -8.7877861211972306  6.9511546435802396 10.5099549411447 -8.7913578313455503  6.9622581948848099 10.8290793208396 -8.7712337425668991  6.97505855871115 11.3205732418413 -8.7231576205009507  6.9806123265305198 11.515417351566199 -8.7018345486598108  6.9854675127182304 11.6688268561843 -8.6817279304808803  6.9628762634946799 11.773870349991199 -8.6433902864941601  6.9910952866701903 11.9338231875939 -8.6422914045801207  7.0058076514638801 12.1021296905786 -8.6257236698916895  7.0256185144848198 12.256021236089399 -8.6162656725562599  7.0419238372979098 12.3999996185303 -8.6047649257591807 
 0 9 0.071729775200972401 7 0.12896797153091999 7 0.23766282886948301 7 0.32671860834011401 7 0.36705562508941297 7 0.40301206667747402 7 0.48831040663831798 7 0.60721641382283198 7 0.76720802597337101 7 0.84495983018117005 7 0.94490717831564597 7 1 9
1 9.4195477719076095 33.305900402972199 -6.9347474613456503 0 0 1 
1 7.0419238372979098 12.3999996185303 -8.6047649257591807 0.11217631781343503 0.99053327383301326 0.079122102799862121 
1 7.0419238372979098 12.3999996185303 -8.6047649257591807 0.11217631781343503 0.99053327383301326 0.079122102799862121 
Polygon3D 0
PolygonOnTriangulations 0
Surfaces 3
1 3.69821867604165 -3.0285631212411501 -7.5374527159375502 -0.78932557532510272 0.61397486604721485 0 0.61088759126911474 0.78535657744722676 -0.10015686243986095 -0.06149379620022296 -0.079056373068100427 -0.99497165934824638 
6 -0 -0 -1 
7 0 0  8 86 13  6.2397867735839903 0.23887470359362301 -7.9541504684622897  6.2625750371208202 0.268171276175942 -7.9578866729767102  6.2853052423726696 0.29719643725830103 -7.9620247800879502  6.3079854295084097 0.32611163140189497 -7.9664720860711196  6.3306148031975997 0.35497831183749101 -7.9711907569824296  6.3531918746738398 0.38383337567187498 -7.9761595107039804  6.3757226037980397 0.41276459909429902 -7.9813352989884701  6.3982285411217896 0.44198607258292499 -7.9866149895039698  6.4387303804730296 0.49579492881172899 -7.9959321741051204  6.45671122196336 0.52008505361519997 -8.0000258923985506  6.47470533203962 0.54487108943023899 -8.0040406796052803  6.4927190829816004 0.57024428840756902 -8.0079405480589099  6.5107573817308104 0.59630007594006895 -8.0116910455803403  6.5288236698905697 0.62313805066278405 -8.0152592554777993  6.5469199237259303 0.65086198445291898 -8.0186137965468394  6.5994691640484104 0.73411475717830599 -8.0276326364856505  6.6339140788069599 0.79207521319485297 -8.0326404185592803  6.6685628427747101 0.85552422271565398 -8.0360974781817909  6.7030984173831296 0.92034770769026397 -8.0402339899886002  6.7375596271591203 0.98828010519703502 -8.0445832849659897  6.7720637370740304 1.0616784972762101 -8.04830111930033  6.8064329060979301 1.1385962469995801 -8.0526900846585807  6.8688851402147302 1.29707876861005 -8.0591436435074506  6.8959838019616004 1.3748668530483299 -8.0609160798515997  6.9238609250705396 1.45530711786678 -8.0632217322717903  6.95102874624199 1.5438559654536901 -8.0634101141897307  6.9784560049678799 1.6422679091116901 -8.0632487021942794  7.0066720991616398 1.74876503442515 -8.0640142440893108  7.0330972730424897 1.8670523277131901 -8.0615035098173102  7.0699619975535501 2.0891785050393401 -8.0513672994119894  7.0810034084325197 2.1657671291543399 -8.0469459589660008  7.0921623280446697 2.25047361643845 -8.0422151101282093  7.1030096083483496 2.3433918690472901 -8.0370956770112905  7.1125836908289104 2.4442015552815302 -8.0309715229219396  7.1198556814703204 2.55243500990052 -8.0231834269252804  7.1241944257269498 2.66774413443598 -8.0135230604092005  7.1272909469387304 2.8992953805092898 -7.9931033163435004  7.1259883974376699 2.9981021278903199 -7.9833467519486501  7.1226981649832801 3.08973310532881 -7.97362456882703  7.1180362117646396 3.17656589914756 -7.9640788501528297  7.1124602321687602 3.26021011631211 -7.9548264639116999  7.1062696527804903 3.3415073844307299 -7.9459590629007204  7.0996056323825698 3.4205313517543998 -7.9375430847284099  7.0754784986651602 3.6770137490592001 -7.9108234773603803  7.0555144009883 3.82885501718832 -7.8934531400224897  7.0344616709506003 4.0139681372967804 -7.8802498153810303  7.0112556217452298 4.1694326507946204 -7.8666763194744203  6.9871488300808204 4.3275417490368602 -7.85683919568657  6.96295859563602 4.52358689417634 -7.8538632685475198  6.9370220167871697 4.6945322302722197 -7.8517330098494398  6.8785645119900796 5.1186115745952003 -7.8610264099672298  6.8394281600787803 5.4165494383410504 -7.8791676312130798  6.8169283857218597 5.5883987176655801 -7.8982861409144798  6.7976331744343401 5.8244884587132999 -7.9389630625742997  6.7806508363712901 6.0446636833881202 -7.9815194044463196  6.7732112907289501 6.1543173162524898 -8.0119443672608401  6.7724496410203603 6.3288618377044497 -8.0592280673279504  6.7707362206872697 6.6391378781716899 -8.1477788448878208  6.7731965422122604 6.7968649397965901 -8.1963507006711307  6.77909613001429 6.9541114498080399 -8.2471444077828799  6.7869521652338101 7.1102614210387403 -8.2981220335887098  6.7956895953799403 7.2626228581283803 -8.3474133506621602  6.8051219029287999 7.4160308539434903 -8.3958924177692609  6.8150260283570701 7.5837293490383999 -8.4456773221776498  6.8265949609172702 7.8746863845342201 -8.5183054447886697  6.8309116544224198 7.9727579871919696 -8.5420247678875807  6.8347739643429799 8.0788744212826593 -8.5656407936475194  6.8377323491544804 8.1965808472865493 -8.5890549451050706  6.8398752895912898 8.3278395270123102 -8.6121403272727708  6.8418292886466103 8.4730298235970203 -8.6347417271390992  6.8447588715724796 8.6309482015061398 -8.6566756136685292  6.8575751153771396 9.0145866837694992 -8.7047950255524498  6.8648648918984199 9.2855952189652999 -8.7305897758284701  6.8886413394409196 9.5468987296209207 -8.7599090744336703  6.9076695520925604 9.8405179744603704 -8.7778093815574394  6.9302210162951603 10.1724483217649 -8.7877861211972306  6.9610911278715202 10.508829650102699 -8.7913578313455503  6.9721946791760896 10.827954029797599 -8.7712337425668991  6.9849950430024297 11.319447950799301 -8.7231576205009507  6.9905488108218004 11.5142920605242 -8.7018345486598108  6.9954039970095101 11.6677015651424 -8.6817279304808803  6.9728127477859596 11.772745058949299 -8.6433902864941601  7.0010317709614798 11.932697896552 -8.6422914045801207  7.0157441357551598 12.1010043995367 -8.6257236698916895  7.0355549987761004 12.254895945047499 -8.6162656725562599  7.0518603215891904 12.398874327488301 -8.6047649257591807 
 0 9 0.071729775200972401 7 0.12896797153091999 7 0.23766282886948301 7 0.32671860834011401 7 0.36705562508941297 7 0.40301206667747402 7 0.48831040663831798 7 0.60721641382283198 7 0.76720802597337101 7 0.84495983018117005 7 0.94490717831564597 7 1 9
1 7.0518603215891904 12.398874327488301 -8.6047649257591807 -0.99364842912815976 0.11252910419593998 0 0.11217631781343482 0.99053327383301337 0.079122102799862121 0.0089035393501675584 0.078619553156399763 -0.99686493209889193 
Triangulations 0

TShapes 25
Ve
1e-07
3.69821867604165 -3.02856312124115 -7.53745271593755
0 0

0101100
*
Ve
1e-07
3.69821867604165 -3.02856312124115 2.46254728406245
0 0

0101100
*
Ed
 1e-07 1 1 0
1  1 0 0 10
0

0101000
+25 0 -24 0 *
Ve
1.9621881513958e-06
6.23978677358399 0.238874703593623 -7.95415046846229
0 0

0101100
*
Ve
1.9621881513958e-06
6.23978677358399 0.238874703593623 2.04584953153771
0 0

0101100
*
Ed
 1.9621881513958e-06 1 1 0
1  2 0 0 10
2  1 2 0 0 10
4 G1 1 0 2 0
0

0101000
+22 0 -21 0 *
Ed
 1e-07 1 1 0
1  3 0 0 4.16045133976654
0

0101000
+25 2 -22 2 *
Ed
 1e-07 1 1 0
1  4 0 0 4.16045133976654
0

0101000
+24 5 -21 5 *
Wi

0101000
+23 0 -20 0 -19 1 +18 4 *
Fa
0  1e-07 1 0

0111000
+17 0 *
Ve
1.9621881513958e-06
7.05186032158919 12.3988743274883 -8.60476492575918
0 0

0101100
*
Ve
1.9621881513958e-06
7.05186032158919 12.3988743274883 1.39523507424082
0 0

0101100
*
Ed
 1.9621881513958e-06 1 1 0
1  5 0 0 10
2  2 2 0 0 10
4 G1 2 0 3 0
0

0101000
+15 0 -14 0 *
Ed
 1.9621881513958e-06 1 1 0
1  6 0 0 1
2  3 2 2 0 1
0

0101000
+22 2 -15 2 *
Ed
 1.9621881513958e-06 1 1 0
1  7 0 0 1
2  4 2 5 0 1
0

0101000
+21 5 -14 5 *
Wi

0101000
+20 0 -13 0 -12 1 +11 4 *
Fa
0  1.26231492020787e-06 2 0

0111000
+10 0 *
Ve
1e-07
9.41954777190761 33.3059004029722 -6.93474746134565
0 0

0101100
*
Ve
1e-07
9.41954777190761 33.3059004029722 3.06525253865435
0 0

0101100
*
Ed
 1e-07 1 1 0
1  8 0 0 10
0

0101000
+8 0 -7 0 *
Ed
 1e-07 1 1 0
1  9 0 0 21.106838738068
0

0101000
+15 2 -8 2 *
Ed
 1e-07 1 1 0
1  10 0 0 21.106838738068
0

0101000
+14 5 -7 5 *
Wi

0101000
+13 0 -6 0 -5 1 +4 4 *
Fa
0  1e-07 3 0

0111000
+3 0 *
Sh

1101000
+16 0 +9 0 +2 0 *

+1 0 
0

