DBRep_DrawableShape

CASCADE Topology V1, (c) Matra-Datavision
Locations 0
Curve2ds 80
8 0 1
1 1 0 -1 0 
8 0 1
1 0 0 1 0 
7 0 0  1 2 2  1 1  1 0 
 0 2 0.75338360000000004 2
8 0 0.75338360000000004
1 0 0.75338360000000004 0 -1 
8 0 1
1 0 1 1 0 
8 0 1
7 0 0  3 4 2  0.083330000000000001 0.083330000000000001  0.36110999999999999 0.083330000000000001  0.63888999999999996 0.083330000000000001  0.91666999999999998 0.083330000000000001 
 0 4 1 4
8 0 1
1 0 1 0 -1 
8 0 1
1 1 0 -1 0 
8 0 1
1 0 0 1 0 
7 0 0  1 2 2  1 0.13923269999999999  1 0 
 0 2 1 2
8 0 1
1 0 1 0 -1 
7 0 0  1 2 2  1 0.27862979999999998  1 0.13923269999999999 
 0 2 1 2
8 0 1
1 0 1 0 -1 
7 0 0  1 2 2  1 1  1 0.27862979999999998 
 0 2 1 2
8 0 1
1 0 1 0 -1 
8 0 1
1 0 1 1 0 
8 0 1
1 0 0 1 0 
7 0 0  1 2 2  0 0.75338360000000004  0 1 
 0 2 1 2
8 0 1
7 0 0  3 4 2  0.91666999999999998 0.083330000000000001  0.91666999999999998 0.36110999999999999  0.91666999999999998 0.63888999999999996  0.91666999999999998 0.91666999999999998 
 0 4 1 4
8 0 1
1 1 1 0 -1 
8 0 1
1 0 1 0 -1 
8 0 1
1 1 1 -1 0 
8 0 1
1 0 0 0 1 
8 0 1
7 0 0  3 4 2  0.91666999999999998 0.083330000000000001  0.91666999999999998 0.36110999999999999  0.91666999999999998 0.63888999999999996  0.91666999999999998 0.91666999999999998 
 0 4 1 4
8 0 1
1 1 0 -1 0 
8 0 1
1 1 1 -1 0 
8 0 1
1 1 0 0 1 
8 0 1
1 0 1 1 0 
8 0 1
1 0 0 1 0 
8 0 1
1 1 0 -1 0 
8 0 1
1 1 1 -1 0 
8 0 1
1 1 0 0 1 
8 0 1
1 1 0 -1 0 
8 0 1
1 0 0 1 0 
8 0 1
1 1 0 0 1 
8 0 1
1 1 0 0 1 
8 0 1
1 1 1 -1 0 
8 0 1
1 1 0 0 1 
8 0 1
1 0 1 1 0 
8 0 1
7 0 0  3 4 2  0.083330000000000001 0.083330000000000001  0.36110999999999999 0.083330000000000001  0.63888999999999996 0.083330000000000001  0.91666999999999998 0.083330000000000001 
 0 4 1 4
7 0 0  1 2 2  0 0  0 1 
 0 2 0.75338360000000004 2
8 0 0.75338360000000004
1 1 0 0 1 
7 0 0  1 2 2  1 1  1 0.75338360000000004 
 0 2 1 2
8 0 1
7 0 0  3 4 2  0.083330000000000001 0.91666999999999998  0.083330000000000001 0.63888999999999996  0.083330000000000001 0.36110999999999999  0.083330000000000001 0.083330000000000001 
 0 4 1 4
8 0 1
1 0 1 1 0 
8 0 1
1 0 0 1 0 
7 0 0  1 2 2  0 0.27862969999999998  0 1 
 0 2 1 2
8 0 1
1 1 0 0 1 
7 0 0  1 2 2  0 0.13923269999999999  0 0.27862969999999998 
 0 2 1 2
8 0 1
1 1 0 0 1 
7 0 0  1 2 2  0 0  0 0.13923269999999999 
 0 2 1 2
8 0 1
1 1 0 0 1 
8 0 1
1 1 1 0 -1 
8 0 1
7 0 0  3 4 2  0.083330000000000001 0.91666999999999998  0.083330000000000001 0.63888999999999996  0.083330000000000001 0.36110999999999999  0.083330000000000001 0.083330000000000001 
 0 4 1 4
8 0 1
1 1 1 -1 0 
8 0 1
1 0 0 0 1 
8 0 1
1 1 0 0 1 
8 0 1
1 1 0 -1 0 
8 0 1
1 1 1 -1 0 
8 0 1
1 0 1 1 0 
8 0 1
1 0 0 1 0 
8 0 1
1 0 1 0 -1 
8 0 1
1 1 0 -1 0 
8 0 1
1 1 1 -1 0 
8 0 1
1 0 1 0 -1 
8 0 1
1 0 1 0 -1 
8 0 1
1 1 1 -1 0 
8 0 1
1 0 1 0 -1 
8 0 1
7 0 0  3 4 2  0.083339999999999997 0.76395000000000002  0.083309999999999995 0.53707000000000005  0.083330000000000001 0.31019999999999998  0.083330000000000001 0.083330000000000001 
 0 4 1 4
8 0 1
6 0 7 0.16929 0.91686999999999996  0.27605000000000002 0.91652999999999996  0.38281999999999999 0.91690000000000005  0.48959000000000003 0.91642000000000001  0.59636 0.91681000000000001  0.70313000000000003 0.91662999999999994  0.80989999999999995 0.91666999999999998  0.91666999999999998 0.91666999999999998  
8 0 1
7 0 0  3 4 2  0.16918 0.083330000000000001  0.41833999999999999 0.083330000000000001  0.66749999999999998 0.083330000000000001  0.91666999999999998 0.083330000000000001 
 0 4 1 4
8 0 1
7 0 0  3 4 2  0.16929 0.91686999999999996  0.14190333333333 0.865203333333327  0.113673333333348 0.81393666666669096  0.083339999999999997 0.76395000000000002 
 0 4 1 4
8 0 1
7 0 0  3 4 2  0.91666999999999998 0.91666999999999998  0.71450999999999998 0.91666999999999998  0.51234999999999997 0.91666000000000003  0.31019999999999998 0.91668000000000005 
 0 4 1 4
8 0 1
7 0 0  6 7 2  0.31019999999999998 0.91668000000000005  0.2681 0.78127000000000002  0.22692999999999999 0.64595000000000002  0.19697999999999999 0.50795000000000001  0.18056 0.36647000000000002  0.1709 0.22395000000000001  0.16918 0.083330000000000001 
 0 7 1 7
8 0 1
7 0 0  3 4 2  0.91666000000000003 0.76395000000000002  0.88632666666670301 0.81393666666660602  0.85809666666665496 0.86520333333335497  0.83070999999999995 0.91686999999999996 
 0 4 1 4
8 0 1
6 0 7 0.083330000000000001 0.91666999999999998  0.19009999999999999 0.91666999999999998  0.29687000000000002 0.91662999999999994  0.40364 0.91681000000000001  0.51041000000000003 0.91642000000000001  0.61717999999999995 0.91690000000000005  0.72394999999999998 0.91652999999999996  0.83070999999999995 0.91686999999999996  
8 0 1
7 0 0  3 4 2  0.083330000000000001 0.083330000000000001  0.33250000000000002 0.083330000000000001  0.58165999999999995 0.083330000000000001  0.83082 0.083330000000000001 
 0 4 1 4
8 0 1
7 0 0  3 4 2  0.91666999999999998 0.083330000000000001  0.91666999999999998 0.31019999999999998  0.91669 0.53707000000000005  0.91666000000000003 0.76395000000000002 
 0 4 1 4
8 0 1
7 0 0  6 7 2  0.83082 0.083330000000000001  0.82909999999999995 0.22395000000000001  0.81943999999999995 0.36647000000000002  0.80301999999999996 0.50795000000000001  0.77307000000000003 0.64595000000000002  0.7319 0.78127000000000002  0.68979999999999997 0.91668000000000005 
 0 7 1 7
8 0 1
7 0 0  3 4 2  0.68979999999999997 0.91668000000000005  0.48764999999999997 0.91666000000000003  0.28549000000000002 0.91666999999999998  0.083330000000000196 0.91666999999999998 
 0 4 1 4
Curves 51
7 0 0  3 4 2  -20 0 734.11000000000001  21.129999999999999 0 739.36000000000001  67.209999999999994 0 745.80999999999995  118.23 0 753.48000000000002 
 0 4 1 4
7 0 0  5 6 2  -20 -599.99945861262199 712.36456465342906  -19.999999999999901 -500.80654938171301 721.75497570075902  -20.000000000000099 -375.60598605900702 727.42637073701906  -20 -250.40396509951199 731.27206575625303  -20 -125.204820484 734.11000000000104  -20 -2.79829720328807e-14 734.11000000000001 
 0 6 0.75338360000000004 6
7 0 0  3 4 2  206.96036331089499 -599.99845281650903 745.28021589208504  124.359804166879 -599.99874308774304 732.06339440172997  48.699442098378199 -599.99905313204204 722.203348587812  -20.000827302011601 -599.99937167416897 712.36991335126697 
 0 4 1 4
7 0 0  4 5 2  206.96000000000001 -600 745.27999999999997  153.41 -472.80000000000001 748.38  126.895 -305.05000000000001 751.71333333333405  118.23 -134.77500000000001 753.48000000000002  118.23 5.5511151231257802e-14 753.48000000000002 
 0 5 1 5
7 0 0  4 5 2  -600 0 624.90999999999997  -465.44999999999999 0 659.59749999999997  -310.85000000000002 0 691.53083333333404  -155.82499999999999 0 716.78499999999997  -20 0 734.11000000000001 
 0 5 1 5
7 0 0  3 4 2  -600 -100 623.79999999999995  -600 -66.6666666666666 624.48333333333301  -600 -33.3333333333334 624.90999999999997  -600 0 624.90999999999997 
 0 4 1 4
7 0 0  3 4 2  -600 -200 620.97000000000003  -600 -166.73333333333301 622.136666666667  -600 -133.36666666666699 623.10000000000002  -600 -100 623.79999999999995 
 0 4 1 4
7 0 0  5 6 2  -600 -643.12 581.65999999999997  -599.99999999999795 -593.69999999999902 596.02999999999804  -600.00000000000296 -505.17000000000201 605.52000000000305  -599.99999999999704 -405.74999999999898 612.00999999999794  -600.00000000000102 -303.30000000000098 617.33000000000095  -600 -200 620.97000000000003 
 0 6 1 6
7 0 0  4 5 2  -20 -723.76999999999998 692.28999999999996  -154.5625 -714.75750000000005 673.67750000000001  -311.99166666666702 -697.39916666666704 649.28750000000105  -468.41250000000002 -673.07000000000005 619.43499999999995  -600 -643.12 581.65999999999997 
 0 5 1 5
7 0 0  4 5 2  -20.000827302011601 -599.99937167416897 712.36991335126697  -20.000992138787002 -640.58695547687296 708.51990836671405  -20.001242430267599 -676.52232321912697 704.01737364257303  -20.001503914974599 -705.57014043492097 698.67729502232305  -20.001758800270402 -723.77018963598596 692.28962313930197 
 0 5 1 5
7 0 0  4 5 2  -600 -684.64999999999998 555.24000000000001  -600 -679.10000000000002 562.16499999999996  -600 -672.53916666666703 569.79583333333403  -600 -660.5575 576.59749999999997  -600 -643.12 581.65999999999997 
 0 5 1 5
7 0 0  5 6 2  -600 -684.64999999999998 555.24000000000001  -487.479999999999 -722.01999999999805 577.08999999999799  -370.550000000002 -742.63000000000204 598.66000000000099  -236.80999999999901 -761.65999999999894 616.5  -131.18000000000001 -775.30999999999995 628.17999999999995  -20 -782.64999999999998 639.34000000000003 
 0 6 1 6
7 0 0  4 5 2  -20.001754029624301 -723.76944809681197 692.28989327223201  -20.001716185603399 -753.03239070140296 682.01478998048299  -20.001693782679801 -769.30999911178299 669.38562271677995  -20.001690112224001 -778.38748081048595 652.92713180686098  -20.001676634013201 -782.64996675253099 639.33963975876895 
 0 5 1 5
7 0 0  5 6 2  -808.76999999999998 -200 519.08000000000004  -782.97999999999797 -199.99999999999901 557.73999999999796  -732.59000000000196 -200.00000000000099 583.63000000000295  -679.02999999999895 -200 598.86999999999705  -626.38999999999999 -200 613.86000000000104  -600 -200 620.97000000000003 
 0 6 1 6
7 0 0  4 5 2  -808.76999999999998 -200 519.08000000000004  -789.00750000000005 -316.4375 529.86749999999995  -760.85000000000002 -431.08749999999998 533.36916666666696  -729.61749999999995 -535.95000000000005 535.60000000000002  -676.88 -623 542.54999999999995 
 0 5 1 5
7 0 0  4 5 2  -600 -643.12 581.65999999999997  -616.60000000000002 -639.34500000000003 576.89750000000004  -630.97750000000099 -636.05999999999995 573.10083333333296  -648.76750000000004 -632.07500000000005 564.27499999999998  -676.88 -623 542.54999999999995 
 0 5 1 5
7 0 0  5 6 2  -844.00999999999999 -100 484.64999999999998  -810.63999999999805 -99.999999999999702 542.15999999999804  -764.04000000000406 -100 577.07000000000301  -706.61999999999603 -99.999999999999901 593.87999999999795  -650.00000000000205 -100 610.73000000000104  -600 -100 623.79999999999995 
 0 6 1 6
7 0 0  4 5 2  -844.00999999999999 -100 484.64999999999998  -831.99749999999995 -128.47499999999999 499.83749999999998  -825.35666666666702 -143.66249999999999 509.63999999999999  -815.20749999999998 -162.01249999999999 515.5675  -808.76999999999998 -200 519.08000000000004 
 0 5 1 5
7 0 0  5 6 2  -853.70000000000005 0 473.89999999999998  -816.93999999999801 0 536.63999999999805  -773.21000000000197 0 575.70000000000402  -713.73999999999899 0 593.66999999999598  -653.75999999999999 0 611.05000000000098  -600 0 624.90999999999997 
 0 6 1 6
7 0 0  4 5 2  -853.70000000000005 0 473.89999999999998  -853.70000000000005 -50.149999999999999 473.89999999999998  -851.62583333333396 -72.116666666666703 473.33333333333297  -851.17250000000001 -83.025000000000006 475.60000000000002  -844.00999999999999 -100 484.64999999999998 
 0 5 1 5
7 0 0  3 4 2  -676.88 -623 542.54999999999995  -663.56333333333305 -644.98333333333301 544.29999999999995  -649.39333333333298 -658.71666666666704 546.506666666667  -636.00999999999999 -667.79999999999995 548.74000000000001 
 0 4 1 4
7 0 0  3 4 2  -636.00999999999999 -667.79999999999995 548.74000000000001  -622.64333333333298 -676.88333333333298 550.99000000000001  -610.06666666666695 -681.29999999999995 553.27333333333297  -600 -684.64999999999998 555.24000000000001 
 0 4 1 4
7 0 0  4 5 2  118.23 0 753.48000000000002  118.23 134.77500000000001 753.48000000000002  126.895 305.05000000000001 751.71333333333303  153.41 472.80000000000001 748.38  206.96000000000001 600 745.27999999999997 
 0 5 1 5
7 0 0  3 4 2  -20.000827302011501 599.99937167416897 712.36991335126697  48.699442098378199 599.99905313204204 722.203348587812  124.359804166879 599.99874308774395 732.06339440172997  206.96036331089499 599.99845281651005 745.28021589208504 
 0 4 1 4
7 0 0  5 6 2  -20 0 734.11000000000001  -19.999999999999901 125.204820484 734.10999999999797  -20.000000000000099 250.40396509951299 731.27206575625905  -19.999999999999801 375.605986059006 727.42637073701405  -20 500.80654938171398 721.754975700763  -20 599.99945861262199 712.36456465342906 
 0 6 0.75338360000000004 6
7 0 0  4 5 2  -20.001758800272 723.77018963598596 692.28962313930106  -20.001503914974698 705.57014043492097 698.67729502232203  -20.0012424302674 676.52232321912697 704.01737364257303  -20.000992138787101 640.58695547687296 708.51990836671405  -20.000827302011601 599.99937167416897 712.36991335126697 
 0 5 1 5
7 0 0  4 5 2  -600 643.12 581.65999999999997  -468.41250000000002 673.07000000000005 619.43499999999995  -311.99166666666702 697.39916666666704 649.28750000000105  -154.5625 714.75750000000005 673.67750000000001  -20 723.76999999999998 692.28999999999996 
 0 5 1 5
7 0 0  5 6 2  -600 200 620.97000000000003  -599.99999999999795 303.29999999999899 617.32999999999799  -600.00000000000296 405.75000000000102 612.01000000000295  -599.99999999999704 505.16999999999899 605.51999999999805  -600.00000000000102 593.70000000000005 596.030000000001  -600 643.12 581.65999999999997 
 0 6 1 6
7 0 0  3 4 2  -600 100 623.79999999999995  -600 133.36666666666699 623.10000000000002  -600 166.73333333333301 622.136666666667  -600 200 620.97000000000003 
 0 4 1 4
7 0 0  3 4 2  -600 0 624.90999999999997  -600 33.3333333333333 624.90999999999997  -600 66.6666666666666 624.48333333333403  -600 100 623.79999999999995 
 0 4 1 4
7 0 0  4 5 2  -20.001676634013702 782.64996675253099 639.33963975876895  -20.001690112224299 778.38748081048504 652.92713180686098  -20.001693782679599 769.30999911178299 669.38562271677995  -20.001716185603598 753.03239070140296 682.01478998048401  -20.0017540296245 723.76944809681197 692.28989327223201 
 0 5 1 5
7 0 0  5 6 2  -19.999999999999901 782.64999999999998 639.34000000000003  -131.17999999999901 775.30999999999699 628.17999999999904  -236.810000000001 761.66000000000497 616.50000000000205  -370.54999999999899 742.62999999999602 598.65999999999894  -487.48000000000098 722.020000000001 577.09000000000003  -600 684.64999999999998 555.24000000000001 
 0 6 1 6
7 0 0  4 5 2  -600 643.12 581.65999999999997  -600 660.5575 576.59749999999997  -600 672.53916666666703 569.79583333333403  -600 679.10000000000002 562.16499999999996  -600 684.64999999999998 555.24000000000001 
 0 5 1 5
7 0 0  5 6 2  -600 200 620.97000000000003  -626.38999999999703 199.99999999999901 613.85999999999899  -679.03000000000497 200.00000000000099 598.87000000000205  -732.58999999999605 200 583.62999999999897  -782.98000000000195 200 557.74000000000103  -808.76999999999998 200 519.08000000000004 
 0 6 1 6
7 0 0  4 5 2  -676.88 623 542.54999999999995  -648.76750000000004 632.07500000000005 564.27499999999998  -630.97749999999996 636.05999999999995 573.10083333333296  -616.60000000000002 639.34500000000003 576.89750000000004  -600 643.12 581.65999999999997 
 0 5 1 5
7 0 0  4 5 2  -676.88 623 542.54999999999995  -729.61749999999995 535.95000000000005 535.60000000000002  -760.85000000000002 431.08749999999998 533.36916666666605  -789.00750000000005 316.4375 529.86749999999995  -808.76999999999998 200 519.08000000000004 
 0 5 1 5
7 0 0  5 6 2  -600 100 623.79999999999995  -649.99999999999795 99.999999999999702 610.72999999999797  -706.62000000000205 100 593.88000000000295  -764.03999999999803 99.999999999999801 577.069999999998  -810.63999999999999 100 542.15999999999997  -844.00999999999999 100 484.64999999999998 
 0 6 1 6
7 0 0  4 5 2  -808.76999999999998 200 519.08000000000004  -815.20749999999998 162.01249999999999 515.5675  -825.35666666666702 143.66249999999999 509.63999999999999  -831.99749999999995 128.47499999999999 499.83749999999998  -844.00999999999999 100 484.64999999999998 
 0 5 1 5
7 0 0  4 5 2  -844.00999999999999 100 484.64999999999998  -851.17250000000001 83.025000000000006 475.60000000000002  -851.62583333333396 72.116666666666703 473.33333333333297  -853.70000000000005 50.149999999999999 473.89999999999998  -853.70000000000005 0 473.89999999999998 
 0 5 1 5
7 0 0  3 4 2  -600 684.64999999999998 555.24000000000001  -610.06666666666604 681.29999999999995 553.27333333333297  -622.64333333333298 676.88333333333401 550.99000000000001  -636.00999999999999 667.79999999999995 548.74000000000001 
 0 4 1 4
7 0 0  3 4 2  -636.00999999999999 667.79999999999995 548.74000000000001  -649.39333333333298 658.71666666666601 546.50666666666598  -663.56333333333305 644.98333333333301 544.29999999999995  -676.88 623 542.54999999999995 
 0 4 1 4
7 0 0  3 4 2  387.49236417506103 -726.76926265008694 756.72148224697901  323.97052003799701 -725.845952294874 741.64624353385705  250.75070255004499 -703.99676850652997 742.74828537986605  206.96036331089499 -599.99845281650903 745.28021589208504 
 0 4 1 4
7 0 0  5 6 2  387.411153329027 -727.92683197258896 756.56059626225999  308.26118847105897 -732.56492183942396 736.11909598749799  202.55356203772499 -734.44189870614002 722.55680114366396  130.67826239563499 -732.43361895684097 711.85454711084697  58.666337677883099 -729.03496675967904 703.17067773364295  -20.001754029624301 -723.76944809681197 692.28989327223201 
 0 6 1 6
7 0 0  3 4 2  387.40982795223698 -727.92994668502797 756.55945934533497  387.44874479719601 -727.258844778906 756.74036421487006  387.47267197384298 -727.08136632505204 756.69949264773402  387.49236417506103 -726.76926265008694 756.72148224697901 
 0 4 1 4
7 0 0  5 6 2  -20.001676634013101 -782.64996675253099 639.33963975876895  40.985842885826997 -786.68183228283499 645.46745988634302  106.544359623663 -790.44886395150604 651.30421652113898  180.782178743521 -793.54236874473304 657.16572478618195  253.279324359085 -795.79801926868504 662.08571599799802  324.99936467440199 -797.16922590126603 666.29935884536906 
 0 6 1 6
7 0 0  5 6 2  324.99936467440102 -797.16922590126603 666.29935884536906  349.98758116985698 -790.99325573825195 689.78203270974802  373.84649899161502 -781.61248973557599 715.52056939598401  382.750335854924 -768.09421317840599 739.34771785520195  386.22774216671201 -748.04214870021303 751.33013268591401  387.411153329027 -727.92683197258896 756.56059626225999 
 0 6 1 6
7 0 0  3 4 2  387.49236417506103 726.76926265008694 756.72148224697901  387.47267197384298 727.08136632505102 756.69949264773402  387.44874479719601 727.25884477890702 756.74036421487006  387.40982795223698 727.92994668502797 756.55945934533497 
 0 4 1 4
7 0 0  5 6 2  -20.0017540296246 723.76944809681197 692.28989327223201  58.666337677882403 729.03496675967699 703.17067773364101  130.67826239563701 732.43361895684598 711.85454711085299  202.55356203772399 734.44189870613604 722.55680114365896  308.26118847105897 732.56492183942601 736.11909598750196  387.411153329027 727.92683197258896 756.56059626225999 
 0 6 1 6
7 0 0  3 4 2  206.96036331089499 599.99845281651005 745.28021589208504  250.750702550044 703.99676850652997 742.74828537986605  323.97052003799701 725.845952294874 741.64624353385705  387.49236417506103 726.76926265008694 756.72148224697901 
 0 4 1 4
7 0 0  5 6 2  387.411153329027 727.92683197258896 756.56059626225999  386.22774216671098 748.04214870020996 751.33013268591105  382.75033585492599 768.09421317841202 739.347717855209  373.84649899161298 781.61248973556997 715.52056939597696  349.987581169858 790.99325573825502 689.78203270975098  324.99936467440199 797.16922590126603 666.29935884536906 
 0 6 1 6
7 0 0  5 6 2  324.99936467440199 797.16922590126705 666.29935884536906  253.279324359084 795.79801926868095 662.08571599799598  180.782178743522 793.542368744741 657.165724786184  106.544359623662 790.44886395149899 651.30421652113796  40.985842885827203 786.68183228283897 645.46745988634405  -20.001676634013702 782.64996675253099 639.33963975876895 
 0 6 1 6
Polygon3D 0
PolygonOnTriangulations 0
Surfaces 18
8 0 0 3 5 118.23 0 753.48000000000002  118.23 -107.81999999999999 753.48000000000002  123.43000000000001 -236.94 752.38999999999999  137.5 -372.14999999999998 750.40999999999997  164.12 -498.24000000000001 747.75999999999999  206.96000000000001 -600 745.27999999999997  
67.209999999999994 0 745.80999999999995  67.209999999999994 -113.62 745.80999999999995  69.870000000000005 -241.43000000000001 743.70000000000005  78.849999999999994 -373.30000000000001 740.88  96.189999999999998 -499.10000000000002 737.07000000000005  124.34999999999999 -600 732.05999999999995  
21.129999999999999 0 739.36000000000001  21.129999999999999 -119.44 739.36000000000001  22.109999999999999 -245.88 736.89999999999998  26.390000000000001 -374.49000000000001 733.62  34.880000000000003 -499.83999999999997 729.23000000000002  48.700000000000003 -600 722.20000000000005  
-20 0 734.11000000000001  -20 -125.2 734.11000000000001  -20 -250.40000000000001 731.26999999999998  -20 -375.61000000000001 727.41999999999996  -20 -500.81 721.75  -20 -600 712.37  

8 0 0 3 5 -20 0 734.11000000000001  -20 125.2 734.11000000000001  -20 250.40000000000001 731.26999999999998  -20 375.61000000000001 727.41999999999996  -20 500.81 721.75  -20 600 712.37  
21.129999999999999 0 739.36000000000001  21.129999999999999 119.44 739.36000000000001  22.109999999999999 245.88 736.89999999999998  26.390000000000001 374.49000000000001 733.62  34.880000000000003 499.83999999999997 729.23000000000002  48.700000000000003 600 722.20000000000005  
67.209999999999994 0 745.80999999999995  67.209999999999994 113.62 745.80999999999995  69.870000000000005 241.43000000000001 743.70000000000005  78.849999999999994 373.30000000000001 740.88  96.189999999999998 499.10000000000002 737.07000000000005  124.34999999999999 600 732.05999999999995  
118.23 0 753.48000000000002  118.23 107.81999999999999 753.48000000000002  123.43000000000001 236.94 752.38999999999999  137.5 372.14999999999998 750.40999999999997  164.12 498.24000000000001 747.75999999999999  206.96000000000001 600 745.27999999999997  

8 0 0 5 5 -20 0 734.11000000000001  -20 -166.19 734.11000000000001  -20 -332.37 729.11000000000001  -20 -498.56 723.38999999999999  -20 -664.74000000000001 713.00999999999999  -20 -723.76999999999998 692.28999999999996  
-128.66 0 720.25  -128.66 -163.46000000000001 720.25  -128.25 -326.92000000000002 715.25999999999999  -128.05000000000001 -490.38999999999999 708.59000000000003  -127.84999999999999 -653.85000000000002 698.59000000000003  -127.65000000000001 -716.55999999999995 677.39999999999998  
-248.84 0 701.55999999999995  -248.84 -159.74000000000001 701.55999999999995  -248.91 -319.48000000000002 697.82000000000005  -248.94999999999999 -479.22000000000003 691.08000000000004  -248.97999999999999 -638.96000000000004 681.13  -249.02000000000001 -704.34000000000003 658.94000000000005  
-372.69 0 678.83000000000004  -372.69 -155.12 678.83000000000004  -373.44 -310.25 674.04999999999995  -373.81 -465.37 667.83000000000004  -374.19 -620.49000000000001 658.53999999999996  -374.56 -687.66999999999996 637.45000000000005  
-492.36000000000001 0 652.65999999999997  -492.36000000000001 -149.72 652.65999999999997  -493.31 -299.44999999999999 648.08000000000004  -493.77999999999997 -449.17000000000002 641.25999999999999  -494.25999999999999 -598.89999999999998 631.99000000000001  -494.73000000000002 -667.08000000000004 611.88  
-600 0 624.90999999999997  -600 -143.65000000000001 624.90999999999997  -600 -287.30000000000001 618.30999999999995  -600 -430.94999999999999 612.11000000000001  -600 -574.61000000000001 601.58000000000004  -600 -643.12 581.65999999999997  

8 0 0 5 5 216.04239999999999 -555.46090000000004 750.38589999999999  250.47399999999999 -672.74609999999996 747.43920000000003  308.41199999999998 -726.00689999999997 747.57050000000004  376.92630000000003 -734.93430000000001 745.5367  450.2276 -729.89819999999997 764.42219999999998  464.89600000000002 -716.47239999999999 795.94569999999999  
157.79429999999999 -561.60910000000001 740.13279999999997  187.2963 -661.75040000000001 738.67809999999997  237.90459999999999 -712.21140000000003 733.30250000000001  297.3879 -733.90499999999997 738.13329999999996  336.79390000000001 -722.86109999999996 741.05730000000005  457.74950000000001 -733.52059999999994 749.26829999999995  
107.5467 -567.24639999999999 732.57420000000002  121.00579999999999 -651.63340000000005 728.48299999999995  147.2098 -700.51419999999996 724.34209999999996  178.89400000000001 -723.67449999999997 723.3306  213.3066 -737.27120000000002 724.76819999999998  227.7073 -737.78909999999996 728.07669999999996  
54.520319999999998 -573.33199999999999 725.17899999999997  65.185230000000004 -641.14549999999997 720.63750000000005  84.500510000000006 -685.62450000000001 719.52319999999997  107.0924 -712.26139999999998 715.85699999999997  128.559 -731.26679999999999 711.18179999999995  149.66480000000001 -736.21519999999998 711.71849999999995  
5.46326 -579.60249999999996 718.04049999999995  11.275919999999999 -630.30380000000002 714.36659999999995  19.692710000000002 -670.41309999999999 710.71169999999995  29.538399999999999 -701.37099999999998 708.07680000000005  38.922960000000003 -721.12929999999994 703.18320000000006  49.067439999999998 -735.0616 701.2056  
-38.75338 -586.23379999999997 710.89269999999999  -42.388300000000001 -619.08699999999999 707.53899999999999  -48.024940000000001 -653.33920000000001 703.08159999999998  -54.626130000000003 -685.57240000000002 697.31110000000001  -60.938409999999998 -712.47940000000006 691.42139999999995  -67.44341 -727.71759999999995 682.29639999999995  

8 0 0 5 5 -600 0 624.90999999999997  -600 143.65000000000001 624.90999999999997  -600 287.30000000000001 618.30999999999995  -600 430.94999999999999 612.11000000000001  -600 574.61000000000001 601.58000000000004  -600 643.12 581.65999999999997  
-492.36000000000001 0 652.65999999999997  -492.36000000000001 149.72 652.65999999999997  -493.31 299.44999999999999 648.08000000000004  -493.77999999999997 449.17000000000002 641.25999999999999  -494.25999999999999 598.89999999999998 631.99000000000001  -494.73000000000002 667.08000000000004 611.88  
-372.69 0 678.83000000000004  -372.69 155.12 678.83000000000004  -373.44 310.25 674.04999999999995  -373.81 465.37 667.83000000000004  -374.19 620.49000000000001 658.53999999999996  -374.56 687.66999999999996 637.45000000000005  
-248.84 0 701.55999999999995  -248.84 159.74000000000001 701.55999999999995  -248.91 319.48000000000002 697.82000000000005  -248.94999999999999 479.22000000000003 691.08000000000004  -248.97999999999999 638.96000000000004 681.13  -249.02000000000001 704.34000000000003 658.94000000000005  
-128.66 0 720.25  -128.66 163.46000000000001 720.25  -128.25 326.92000000000002 715.25999999999999  -128.05000000000001 490.38999999999999 708.59000000000003  -127.84999999999999 653.85000000000002 698.59000000000003  -127.65000000000001 716.55999999999995 677.39999999999998  
-20 0 734.11000000000001  -20 166.19 734.11000000000001  -20 332.37 729.11000000000001  -20 498.56 723.38999999999999  -20 664.74000000000001 713.00999999999999  -20 723.76999999999998 692.28999999999996  

8 0 0 5 5 -600 0 624.90999999999997  -600 -20 624.90999999999997  -600 -40 624.77999999999997  -600 -60 624.53999999999996  -600 -80 624.21000000000004  -600 -100 623.79999999999995  
-653.75999999999999 0 611.04999999999995  -653.75999999999999 -24.039999999999999 611.04999999999995  -653.67999999999995 -44.700000000000003 610.86000000000001  -653.13 -63.329999999999998 610.73000000000002  -652.10000000000002 -81.359999999999999 610.69000000000005  -650 -100 610.73000000000002  
-713.74000000000001 0 593.66999999999996  -713.74000000000001 -28.050000000000001 593.66999999999996  -713.00999999999999 -49.329999999999998 593.66999999999996  -711.83000000000004 -66.590000000000003 593.66999999999996  -710.02999999999997 -82.569999999999993 593.49000000000001  -706.62 -100 593.88  
-773.21000000000004 0 575.70000000000005  -773.21000000000004 -32.07 575.70000000000005  -771.88999999999999 -54 575.70000000000005  -770.37 -69.890000000000001 575.70000000000005  -768.88999999999999 -83.900000000000006 576.30999999999995  -764.03999999999996 -100 577.07000000000005  
-816.94000000000005 0 536.63999999999999  -816.94000000000005 -36.090000000000003 536.63999999999999  -818.88999999999999 -58.659999999999997 536.63999999999999  -817.84000000000003 -73.180000000000007 536.63999999999999  -815.79999999999995 -85 538.25  -810.63999999999999 -100 542.15999999999997  
-853.70000000000005 0 473.89999999999998  -853.70000000000005 -40.119999999999997 473.89999999999998  -852.50999999999999 -63.329999999999998 473.89999999999998  -851.38999999999999 -76.480000000000004 473.89999999999998  -849.74000000000001 -86.420000000000002 477.41000000000003  -844.00999999999999 -100 484.64999999999998  

8 0 0 5 5 -600 -100 623.79999999999995  -600 -120.02 623.38  -600 -140.03999999999999 622.88  -600 -160.05000000000001 622.30999999999995  -600 -180.03999999999999 621.66999999999996  -600 -200 620.97000000000003  
-650 -100 610.73000000000002  -644.72000000000003 -120.59999999999999 611.59000000000003  -639.85000000000002 -139.56 612.36000000000001  -635.48000000000002 -158.25 612.90999999999997  -631.32000000000005 -177.99000000000001 613.35000000000002  -626.38999999999999 -200 613.86000000000001  
-706.62 -100 593.88  -699.67999999999995 -121.12 595.14999999999998  -692.80999999999995 -139.06 597.09000000000003  -686.46000000000004 -156.43000000000001 598.23000000000002  -681.61000000000001 -175.81999999999999 599.19000000000005  -679.02999999999997 -200 598.87  
-764.03999999999996 -100 577.07000000000005  -756.08000000000004 -121.68000000000001 579.09000000000003  -749.76999999999998 -138.56999999999999 580.75  -743.38 -154.62 582.5  -735.98000000000002 -173.55000000000001 583.41999999999996  -732.59000000000003 -200 583.63  
-810.63999999999999 -100 542.15999999999997  -802.70000000000005 -122.23 548.01999999999998  -794.61000000000001 -138.08000000000001 552.37  -788.13999999999999 -152.81 555.50999999999999  -788.20000000000005 -172.44999999999999 556.67999999999995  -782.98000000000002 -200 557.74000000000001  
-844.00999999999999 -100 484.64999999999998  -834.39999999999998 -122.78 496.80000000000001  -827.73000000000002 -137.59 505.72000000000003  -821.58000000000004 -151 512.00999999999999  -813.91999999999996 -169.61000000000001 516.26999999999998  -808.76999999999998 -200 519.08000000000004  

8 0 0 5 5 -600 -200 620.97000000000003  -600 -303.30000000000001 617.33000000000004  -600 -405.75 612.00999999999999  -600 -505.17000000000002 605.51999999999998  -600 -593.70000000000005 596.02999999999997  -600 -643.12 581.65999999999997  
-626.38999999999999 -200 613.86000000000001  -625.75 -301.44 610.22000000000003  -624.55999999999995 -402.18000000000001 605.15999999999997  -622.38 -498.83999999999997 599.16999999999996  -619.44000000000005 -588.11000000000001 590.74000000000001  -613.27999999999997 -640.10000000000002 577.85000000000002  
-679.02999999999997 -200 598.87  -669.73000000000002 -299.69999999999999 596.54999999999995  -662.21000000000004 -398.47000000000003 593.08000000000004  -653.14999999999998 -493.69999999999999 589.39999999999998  -641.25 -579.40999999999997 582.97000000000003  -625.20000000000005 -637.38999999999999 574.42999999999995  
-732.59000000000003 -200 583.63  -719.5 -297.88999999999999 583.90999999999997  -704.57000000000005 -394.80000000000001 582.04999999999995  -687.34000000000003 -487.93000000000001 578.89999999999998  -665.84000000000003 -572.21000000000004 574.55999999999995  -638.12 -634.45000000000005 569.75999999999999  
-782.98000000000002 -200 557.74000000000001  -764.84000000000003 -295.82999999999998 562.20000000000005  -744.45000000000005 -390.63 562.80999999999995  -721.98000000000002 -481.39999999999998 562.03999999999996  -692.84000000000003 -564.00999999999999 560.63999999999999  -654.38999999999999 -630.25999999999999 559.92999999999995  
-808.76999999999998 -200 519.08000000000004  -792.96000000000004 -293.14999999999998 527.71000000000004  -772.09000000000003 -385.23000000000002 531.97000000000003  -748.38 -473.02999999999997 534.25999999999999  -719.07000000000005 -553.36000000000001 536.99000000000001  -676.88 -623 542.54999999999995  

8 0 0 5 5 -20 -723.76999999999998 692.28999999999996  -20 -747.17999999999995 684.07000000000005  -20 -762.47000000000003 674.72000000000003  -20 -773.26999999999998 662.51999999999998  -20 -779.24000000000001 650.21000000000004  -20 -782.64999999999998 639.34000000000003  
-127.65000000000001 -716.55999999999995 677.39999999999998  -128.34 -738.71000000000004 669.77999999999997  -129.03 -753.76999999999998 660.67999999999995  -129.81999999999999 -764.75999999999999 649.91999999999996  -130.47 -770.84000000000003 638.39999999999998  -131.18000000000001 -775.30999999999995 628.17999999999995  
-249.02000000000001 -704.34000000000003 658.94000000000005  -246.63999999999999 -724.60000000000002 652.52999999999997  -244.13 -739.41999999999996 645.42999999999995  -241.69 -750.87 635.41999999999996  -239.25 -757.17999999999995 625.74000000000001  -236.81 -761.65999999999997 616.5  
-374.56 -687.66999999999996 637.45000000000005  -373.75 -706.74000000000001 631.75999999999999  -372.95999999999998 -719.90999999999997 624.82000000000005  -372.16000000000003 -731.16999999999996 615.70000000000005  -371.35000000000002 -737.88999999999999 606.88  -370.55000000000001 -742.63 598.65999999999997  
-494.73000000000002 -667.08000000000004 611.88  -493.52999999999997 -685.20000000000005 606.98000000000002  -491.82999999999998 -698.71000000000004 600.00999999999999  -490.38 -708.65999999999997 592.45000000000005  -488.93000000000001 -715.65999999999997 584.69000000000005  -487.48000000000002 -722.01999999999998 577.09000000000003  
-600 -643.12 581.65999999999997  -600 -657.07000000000005 577.61000000000001  -600 -667.91999999999996 572.5  -600 -674.99000000000001 566.75999999999999  -600 -680.21000000000004 560.77999999999997  -600 -684.64999999999998 555.24000000000001  

8 0 0 5 5 -600 -643.12 581.65999999999997  -600 -657.07000000000005 577.61000000000001  -600 -667.91999999999996 572.5  -600 -674.99000000000001 566.75999999999999  -600 -680.21000000000004 560.77999999999997  -600 -684.64999999999998 555.24000000000001  
-613.27999999999997 -640.10000000000002 577.85000000000002  -612.42999999999995 -654.14999999999998 574.07000000000005  -610.55999999999995 -665.12 569.70000000000005  -609.01999999999998 -672.38999999999999 564.50999999999999  -607.49000000000001 -677.96000000000004 558.97000000000003  -606.03999999999996 -682.63999999999999 554.05999999999995  
-625.20000000000005 -637.38999999999999 574.42999999999995  -623.39999999999998 -651.04999999999995 571.95000000000005  -620.29999999999995 -661.86000000000001 566.48000000000002  -617.75999999999999 -669.55999999999995 561.84000000000003  -615.25 -675.45000000000005 557.09000000000003  -612.84000000000003 -680.30999999999995 552.78999999999996  
-638.12 -634.45000000000005 569.75999999999999  -634.25999999999999 -647.73000000000002 567.47000000000003  -631.01999999999998 -658.45000000000005 563.29999999999995  -627.34000000000003 -666.30999999999995 559.42999999999995  -623.70000000000005 -672.38 555.48000000000002  -620.21000000000004 -677.29999999999995 551.45000000000005  
-654.38999999999999 -630.25999999999999 559.92999999999995  -649.15999999999997 -643.42999999999995 557.59000000000003  -643.91999999999996 -653.87 556.53999999999996  -638.5 -661.94000000000005 554.45000000000005  -633.14999999999998 -668.23000000000002 552.35000000000002  -627.99000000000001 -673.25 550.09000000000003  
-676.88 -623 542.54999999999995  -668.88999999999999 -636.19000000000005 543.60000000000002  -660.63999999999999 -646.89999999999998 544.78999999999996  -652.29999999999995 -655.5 546.05999999999995  -644.03999999999996 -662.35000000000002 547.39999999999998  -636.00999999999999 -667.79999999999995 548.74000000000001  

8 0 0 5 5 451.24579999999997 -712.1825 781.28009999999995  459.91370000000001 -732.61609999999996 790.81920000000002  471.5034 -766.05920000000003 778.90560000000005  487.13670000000002 -784.62649999999996 737.76990000000001  503.55489999999998 -790.39419999999996 699.06759999999997  518.96500000000003 -803.33770000000004 659.68079999999998  
419.34719999999999 -720.01160000000004 751.72619999999995  401.06849999999997 -745.67790000000002 737.08519999999999  394.03480000000002 -764.78719999999998 731.8356  388.37450000000001 -783.88620000000003 718.22230000000002  384.61529999999999 -794.88509999999997 685.77589999999998  379.22340000000003 -802.53340000000003 657.62300000000005  
215.1009 -725.97810000000004 730.80999999999995  227.57239999999999 -753.86329999999998 720.87040000000002  242.1585 -767.17570000000001 713.60720000000003  258.92329999999998 -783.51409999999998 705.63589999999999  276.1961 -795.12540000000001 678.59770000000003  292.88060000000002 -799.90030000000002 655.90880000000004  
141.9717 -722.08199999999999 714.97889999999995  138.9151 -750.17970000000003 706.78499999999997  138.01859999999999 -769.97789999999998 703.94820000000004  138.2946 -780.74620000000004 685.14490000000001  138.989 -788.88120000000004 665.21569999999997  139.27010000000001 -796.43179999999995 646.86770000000001  
46.081569999999999 -716.6146 705.58389999999997  43.098750000000003 -748.6499 698.48099999999999  40.832329999999999 -762.56230000000005 684.67570000000001  39.033830000000002 -780.30280000000005 672.66110000000003  37.344169999999998 -787.31849999999997 653.95759999999996  35.529299999999999 -787.06269999999995 639.12099999999998  
-65.342479999999995 -707.74810000000002 690.26760000000002  -63.821559999999998 -740.50620000000004 679.62509999999997  -62.824530000000003 -761.5308 670.50760000000002  -62.153959999999998 -772.75789999999995 653.72370000000001  -61.571919999999999 -777.4941 641.0172  -60.893810000000002 -781.64469999999994 630.53470000000004  

8 0 0 5 5 -853.70000000000005 0 473.89999999999998  -853.70000000000005 40.119999999999997 473.89999999999998  -852.50999999999999 63.329999999999998 473.89999999999998  -851.38999999999999 76.480000000000004 473.89999999999998  -849.74000000000001 86.420000000000002 477.41000000000003  -844.00999999999999 100 484.64999999999998  
-816.94000000000005 0 536.63999999999999  -816.94000000000005 36.090000000000003 536.63999999999999  -818.88999999999999 58.659999999999997 536.63999999999999  -817.84000000000003 73.180000000000007 536.63999999999999  -815.79999999999995 85 538.25  -810.63999999999999 100 542.15999999999997  
-773.21000000000004 0 575.70000000000005  -773.21000000000004 32.07 575.70000000000005  -771.88999999999999 54 575.70000000000005  -770.37 69.890000000000001 575.70000000000005  -768.88999999999999 83.900000000000006 576.30999999999995  -764.03999999999996 100 577.07000000000005  
-713.74000000000001 0 593.66999999999996  -713.74000000000001 28.050000000000001 593.66999999999996  -713.00999999999999 49.329999999999998 593.66999999999996  -711.83000000000004 66.590000000000003 593.66999999999996  -710.02999999999997 82.569999999999993 593.49000000000001  -706.62 100 593.88  
-653.75999999999999 0 611.04999999999995  -653.75999999999999 24.039999999999999 611.04999999999995  -653.67999999999995 44.700000000000003 610.86000000000001  -653.13 63.329999999999998 610.73000000000002  -652.10000000000002 81.359999999999999 610.69000000000005  -650 100 610.73000000000002  
-600 0 624.90999999999997  -600 20 624.90999999999997  -600 40 624.77999999999997  -600 60 624.53999999999996  -600 80 624.21000000000004  -600 100 623.79999999999995  

8 0 0 5 5 -38.75338 586.23379999999997 710.89269999999999  -42.388300000000001 619.08699999999999 707.53899999999999  -48.024940000000001 653.33920000000001 703.08159999999998  -54.626130000000003 685.57240000000002 697.31110000000001  -60.938409999999998 712.47940000000006 691.42139999999995  -67.44341 727.71759999999995 682.29639999999995  
5.46326 579.60249999999996 718.04049999999995  11.275919999999999 630.30380000000002 714.36659999999995  19.692710000000002 670.41309999999999 710.71169999999995  29.538399999999999 701.37099999999998 708.07680000000005  38.922960000000003 721.12929999999994 703.18320000000006  49.067439999999998 735.0616 701.2056  
54.520319999999998 573.33199999999999 725.17899999999997  65.185230000000004 641.14549999999997 720.63750000000005  84.500510000000006 685.62450000000001 719.52319999999997  107.0924 712.26139999999998 715.85699999999997  128.559 731.26679999999999 711.18179999999995  149.66480000000001 736.21519999999998 711.71849999999995  
107.5467 567.24639999999999 732.57420000000002  121.00579999999999 651.63340000000005 728.48299999999995  147.2098 700.51419999999996 724.34209999999996  178.89400000000001 723.67449999999997 723.3306  213.3066 737.27120000000002 724.76819999999998  227.7073 737.78909999999996 728.07669999999996  
157.79429999999999 561.60910000000001 740.13279999999997  187.2963 661.75040000000001 738.67809999999997  237.90459999999999 712.21140000000003 733.30250000000001  297.3879 733.90499999999997 738.13329999999996  336.79390000000001 722.86109999999996 741.05730000000005  457.74950000000001 733.52059999999994 749.26829999999995  
216.04239999999999 555.46090000000004 750.38589999999999  250.47399999999999 672.74609999999996 747.43920000000003  308.41199999999998 726.00689999999997 747.57050000000004  376.92630000000003 734.93430000000001 745.5367  450.2276 729.89819999999997 764.42219999999998  464.89600000000002 716.47239999999999 795.94569999999999  

8 0 0 5 5 -600 643.12 581.65999999999997  -600 657.07000000000005 577.61000000000001  -600 667.91999999999996 572.5  -600 674.99000000000001 566.75999999999999  -600 680.21000000000004 560.77999999999997  -600 684.64999999999998 555.24000000000001  
-494.73000000000002 667.08000000000004 611.88  -493.52999999999997 685.20000000000005 606.98000000000002  -491.82999999999998 698.71000000000004 600.00999999999999  -490.38 708.65999999999997 592.45000000000005  -488.93000000000001 715.65999999999997 584.69000000000005  -487.48000000000002 722.01999999999998 577.09000000000003  
-374.56 687.66999999999996 637.45000000000005  -373.75 706.74000000000001 631.75999999999999  -372.95999999999998 719.90999999999997 624.82000000000005  -372.16000000000003 731.16999999999996 615.70000000000005  -371.35000000000002 737.88999999999999 606.88  -370.55000000000001 742.63 598.65999999999997  
-249.02000000000001 704.34000000000003 658.94000000000005  -246.63999999999999 724.60000000000002 652.52999999999997  -244.13 739.41999999999996 645.42999999999995  -241.69 750.87 635.41999999999996  -239.25 757.17999999999995 625.74000000000001  -236.81 761.65999999999997 616.5  
-127.65000000000001 716.55999999999995 677.39999999999998  -128.34 738.71000000000004 669.77999999999997  -129.03 753.76999999999998 660.67999999999995  -129.81999999999999 764.75999999999999 649.91999999999996  -130.47 770.84000000000003 638.39999999999998  -131.18000000000001 775.30999999999995 628.17999999999995  
-20 723.76999999999998 692.28999999999996  -20 747.17999999999995 684.07000000000005  -20 762.47000000000003 674.72000000000003  -20 773.26999999999998 662.51999999999998  -20 779.24000000000001 650.21000000000004  -20 782.64999999999998 639.34000000000003  

8 0 0 5 5 -808.76999999999998 200 519.08000000000004  -792.96000000000004 293.14999999999998 527.71000000000004  -772.09000000000003 385.23000000000002 531.97000000000003  -748.38 473.02999999999997 534.25999999999999  -719.07000000000005 553.36000000000001 536.99000000000001  -676.88 623 542.54999999999995  
-782.98000000000002 200 557.74000000000001  -764.84000000000003 295.82999999999998 562.20000000000005  -744.45000000000005 390.63 562.80999999999995  -721.98000000000002 481.39999999999998 562.03999999999996  -692.84000000000003 564.00999999999999 560.63999999999999  -654.38999999999999 630.25999999999999 559.92999999999995  
-732.59000000000003 200 583.63  -719.5 297.88999999999999 583.90999999999997  -704.57000000000005 394.80000000000001 582.04999999999995  -687.34000000000003 487.93000000000001 578.89999999999998  -665.84000000000003 572.21000000000004 574.55999999999995  -638.12 634.45000000000005 569.75999999999999  
-679.02999999999997 200 598.87  -669.73000000000002 299.69999999999999 596.54999999999995  -662.21000000000004 398.47000000000003 593.08000000000004  -653.14999999999998 493.69999999999999 589.39999999999998  -641.25 579.40999999999997 582.97000000000003  -625.20000000000005 637.38999999999999 574.42999999999995  
-626.38999999999999 200 613.86000000000001  -625.75 301.44 610.22000000000003  -624.55999999999995 402.18000000000001 605.15999999999997  -622.38 498.83999999999997 599.16999999999996  -619.44000000000005 588.11000000000001 590.74000000000001  -613.27999999999997 640.10000000000002 577.85000000000002  
-600 200 620.97000000000003  -600 303.30000000000001 617.33000000000004  -600 405.75 612.00999999999999  -600 505.17000000000002 605.51999999999998  -600 593.70000000000005 596.02999999999997  -600 643.12 581.65999999999997  

8 0 0 5 5 -844.00999999999999 100 484.64999999999998  -834.39999999999998 122.78 496.80000000000001  -827.73000000000002 137.59 505.72000000000003  -821.58000000000004 151 512.00999999999999  -813.91999999999996 169.61000000000001 516.26999999999998  -808.76999999999998 200 519.08000000000004  
-810.63999999999999 100 542.15999999999997  -802.70000000000005 122.23 548.01999999999998  -794.61000000000001 138.08000000000001 552.37  -788.13999999999999 152.81 555.50999999999999  -788.20000000000005 172.44999999999999 556.67999999999995  -782.98000000000002 200 557.74000000000001  
-764.03999999999996 100 577.07000000000005  -756.08000000000004 121.68000000000001 579.09000000000003  -749.76999999999998 138.56999999999999 580.75  -743.38 154.62 582.5  -735.98000000000002 173.55000000000001 583.41999999999996  -732.59000000000003 200 583.63  
-706.62 100 593.88  -699.67999999999995 121.12 595.14999999999998  -692.80999999999995 139.06 597.09000000000003  -686.46000000000004 156.43000000000001 598.23000000000002  -681.61000000000001 175.81999999999999 599.19000000000005  -679.02999999999997 200 598.87  
-650 100 610.73000000000002  -644.72000000000003 120.59999999999999 611.59000000000003  -639.85000000000002 139.56 612.36000000000001  -635.48000000000002 158.25 612.90999999999997  -631.32000000000005 177.99000000000001 613.35000000000002  -626.38999999999999 200 613.86000000000001  
-600 100 623.79999999999995  -600 120.02 623.38  -600 140.03999999999999 622.88  -600 160.05000000000001 622.30999999999995  -600 180.03999999999999 621.66999999999996  -600 200 620.97000000000003  

8 0 0 5 5 -65.342479999999995 707.74810000000002 690.26760000000002  -63.821559999999998 740.50620000000004 679.62509999999997  -62.824530000000003 761.5308 670.50760000000002  -62.153959999999998 772.75789999999995 653.72370000000001  -61.571919999999999 777.4941 641.0172  -60.893810000000002 781.64469999999994 630.53470000000004  
46.081569999999999 716.6146 705.58389999999997  43.098750000000003 748.6499 698.48099999999999  40.832329999999999 762.56230000000005 684.67570000000001  39.033830000000002 780.30280000000005 672.66110000000003  37.344169999999998 787.31849999999997 653.95759999999996  35.529299999999999 787.06269999999995 639.12099999999998  
141.9717 722.08199999999999 714.97889999999995  138.9151 750.17970000000003 706.78499999999997  138.01859999999999 769.97789999999998 703.94820000000004  138.2946 780.74620000000004 685.14490000000001  138.989 788.88120000000004 665.21569999999997  139.27010000000001 796.43179999999995 646.86770000000001  
215.1009 725.97810000000004 730.80999999999995  227.57239999999999 753.86329999999998 720.87040000000002  242.1585 767.17570000000001 713.60720000000003  258.92329999999998 783.51409999999998 705.63589999999999  276.1961 795.12540000000001 678.59770000000003  292.88060000000002 799.90030000000002 655.90880000000004  
419.34719999999999 720.01160000000004 751.72619999999995  401.06849999999997 745.67790000000002 737.08519999999999  394.03480000000002 764.78719999999998 731.8356  388.37450000000001 783.88620000000003 718.22230000000002  384.61529999999999 794.88509999999997 685.77589999999998  379.22340000000003 802.53340000000003 657.62300000000005  
451.24579999999997 712.1825 781.28009999999995  459.91370000000001 732.61609999999996 790.81920000000002  471.5034 766.05920000000003 778.90560000000005  487.13670000000002 784.62649999999996 737.76990000000001  503.55489999999998 790.39419999999996 699.06759999999997  518.96500000000003 803.33770000000004 659.68079999999998  

8 0 0 5 5 -676.88 623 542.54999999999995  -668.88999999999999 636.19000000000005 543.60000000000002  -660.63999999999999 646.89999999999998 544.78999999999996  -652.29999999999995 655.5 546.05999999999995  -644.03999999999996 662.35000000000002 547.39999999999998  -636.00999999999999 667.79999999999995 548.74000000000001  
-654.38999999999999 630.25999999999999 559.92999999999995  -649.15999999999997 643.42999999999995 557.59000000000003  -643.91999999999996 653.87 556.53999999999996  -638.5 661.94000000000005 554.45000000000005  -633.14999999999998 668.23000000000002 552.35000000000002  -627.99000000000001 673.25 550.09000000000003  
-638.12 634.45000000000005 569.75999999999999  -634.25999999999999 647.73000000000002 567.47000000000003  -631.01999999999998 658.45000000000005 563.29999999999995  -627.34000000000003 666.30999999999995 559.42999999999995  -623.70000000000005 672.38 555.48000000000002  -620.21000000000004 677.29999999999995 551.45000000000005  
-625.20000000000005 637.38999999999999 574.42999999999995  -623.39999999999998 651.04999999999995 571.95000000000005  -620.29999999999995 661.86000000000001 566.48000000000002  -617.75999999999999 669.55999999999995 561.84000000000003  -615.25 675.45000000000005 557.09000000000003  -612.84000000000003 680.30999999999995 552.78999999999996  
-613.27999999999997 640.10000000000002 577.85000000000002  -612.42999999999995 654.14999999999998 574.07000000000005  -610.55999999999995 665.12 569.70000000000005  -609.01999999999998 672.38999999999999 564.50999999999999  -607.49000000000001 677.96000000000004 558.97000000000003  -606.03999999999996 682.63999999999999 554.05999999999995  
-600 643.12 581.65999999999997  -600 657.07000000000005 577.61000000000001  -600 667.91999999999996 572.5  -600 674.99000000000001 566.75999999999999  -600 680.21000000000004 560.77999999999997  -600 684.64999999999998 555.24000000000001  

Triangulations 0

TShapes 122
Ve
0.08
-20 0 734.11
0 0

0101101
*
Ve
0.08
118.23 0 753.48
0 0

0101101
*
Ed
 0.08 1 1 0
1  1 0 0 1
2  1 1 0 0 1
2  2 2 0 0 1
0

0101000
+122 0 -121 0 *
Ve
0.08
-20.0002757673372 -599.999610095597 712.368159334899
0 0

0101101
*
Ed
 0.08 1 1 0
1  2 0 0 0.7533836
2  3 1 0 0 0.7533836
2  4 3 0 0 0.7533836
0

0101000
+119 0 -122 0 *
Ve
0.08
206.960181655448 -599.999226408255 745.280107946042
0 0

0101101
*
Ed
 0.08 1 1 0
1  3 0 0 1
2  5 1 0 0 1
2  6 4 0 0 1
0

0101000
+117 0 -119 0 *
Ed
 0.08 1 1 0
1  4 0 0 1
2  7 1 0 0 1
0

0101000
+117 0 -121 0 *
Wi

0101100
-120 0 -118 0 -116 0 +115 0 *
Fa
0  0.08 1 0

0111000
+114 0 *
Ve
0.08
-600 0 624.91
0 0

0101101
*
Ed
 0.08 1 1 0
1  5 0 0 1
2  8 3 0 0 1
2  9 5 0 0 1
0

0101000
+112 0 -122 0 *
Ve
0.08
-600 -99.9999905997116 623.799345110611
0 0

0101101
*
Ed
 0.08 1 1 0
1  6 0 0 1
2  10 3 0 0 1
2  11 6 0 0 1
0

0101000
+110 0 -112 0 *
Ve
0.08
-600 -199.999967554145 620.968654478712
0 0

0101101
*
Ed
 0.08 1 1 0
1  7 0 0 1
2  12 3 0 0 1
2  13 7 0 0 1
0

0101000
+108 0 -110 0 *
Ve
0.08
-600 -643.12 581.66
0 0

0101101
*
Ed
 0.08 1 1 0
1  8 0 0 1
2  14 3 0 0 1
2  15 8 0 0 1
0

0101000
+106 0 -108 0 *
Ve
0.08
-20.0008782074737 -723.7699094332 692.289879102883
0 0

0101101
*
Ed
 0.08 1 1 0
1  9 0 0 1
2  16 3 0 0 1
2  17 9 0 0 1
0

0101000
+104 0 -106 0 *
Ed
 0.08 1 1 0
1  10 0 0 1
2  18 3 0 0 1
2  19 4 0 0 1
0

0101000
+119 0 -104 0 *
Wi

0101100
-111 0 -109 0 -107 0 -105 0 -103 0 -102 0 +118 0 *
Fa
0  0.08 3 0

0111000
+101 0 *
Ve
0.08
-600 -684.65 555.24
0 0

0101101
*
Ed
 0.08 1 1 0
1  11 0 0 1
2  20 9 0 0 1
2  21 10 0 0 1
0

0101000
+99 0 -106 0 *
Ve
0.08
-20.0008383170066 -782.649983376265 639.339819879384
0 0

0101101
*
Ed
 0.08 1 1 0
1  12 0 0 1
2  22 9 0 0 1
0

0101000
+99 0 -97 0 *
Ed
 0.08 1 1 0
1  13 0 0 1
2  23 9 0 0 1
2  24 11 0 0 1
0

0101000
+104 0 -97 0 *
Wi

0101100
+103 0 -98 0 +96 0 -95 0 *
Fa
0  0.08 9 0

0111000
+94 0 *
Ve
0.08
-808.77 -200 519.08
0 0

0101101
*
Ed
 0.08 1 1 0
1  14 0 0 1
2  25 8 0 0 1
2  26 7 0 0 1
0

0101000
+92 0 -108 0 *
Ve
0.08
-676.88 -623 542.55
0 0

0101101
*
Ed
 0.08 1 1 0
1  15 0 0 1
2  27 8 0 0 1
0

0101000
+92 0 -90 0 *
Ed
 0.08 1 1 0
1  16 0 0 1
2  28 8 0 0 1
2  29 10 0 0 1
0

0101000
+106 0 -90 0 *
Wi

0101100
-91 0 +89 0 -88 0 +105 0 *
Fa
0  0.08 8 0

0111000
+87 0 *
Ve
0.08
-844.01 -100 484.65
0 0

0101101
*
Ed
 0.08 1 1 0
1  17 0 0 1
2  30 7 0 0 1
2  31 6 0 0 1
0

0101000
+85 0 -110 0 *
Ed
 0.08 1 1 0
1  18 0 0 1
2  32 7 0 0 1
0

0101000
+85 0 -92 0 *
Wi

0101100
-84 0 +83 0 +91 0 +107 0 *
Fa
0  0.08 7 0

0111000
+82 0 *
Ve
0.08
-853.7 0 473.9
0 0

0101101
*
Ed
 0.08 1 1 0
1  19 0 0 1
2  33 6 0 0 1
2  34 12 0 0 1
0

0101000
+80 0 -112 0 *
Ed
 0.08 1 1 0
1  20 0 0 1
2  35 6 0 0 1
0

0101000
+80 0 -85 0 *
Wi

0101100
-79 0 +78 0 +84 0 +109 0 *
Fa
0  0.08 6 0

0111000
+77 0 *
Ve
0.08
-636.01 -667.8 548.74
0 0

0101101
*
Ed
 0.08 1 1 0
1  21 0 0 1
2  36 10 0 0 1
0

0101000
+90 0 -75 0 *
Ed
 0.08 1 1 0
1  22 0 0 1
2  37 10 0 0 1
0

0101000
+75 0 -99 0 *
Wi

0101100
+88 0 +74 0 +73 0 +98 0 *
Fa
0  0.08 10 0

0111000
+72 0 *
Ve
0.08
206.960181655448 599.999226408255 745.280107946042
0 0

0101101
*
Ed
 0.08 1 1 0
1  23 0 0 1
2  38 2 0 0 1
0

0101000
+121 0 -70 0 *
Ve
0.08
-20.0002757673372 599.999610095597 712.368159334899
0 0

0101101
*
Ed
 0.08 1 1 0
1  24 0 0 1
2  39 2 0 0 1
2  40 13 0 0 1
0

0101000
+68 0 -70 0 *
Ed
 0.08 1 1 0
1  25 0 0 0.7533836
2  41 2 0 0 0.7533836
2  42 5 0 0 0.7533836
0

0101000
+122 0 -68 0 *
Wi

0101100
+120 0 +69 0 -67 0 -66 0 *
Fa
0  0.08 2 0

0111000
+65 0 *
Ve
0.08
-20.0008782074741 723.7699094332 692.289879102883
0 0

0101101
*
Ed
 0.08 1 1 0
1  26 0 0 1
2  43 5 0 0 1
2  44 13 0 0 1
0

0101000
+63 0 -68 0 *
Ve
0.08
-600 643.12 581.66
0 0

0101101
*
Ed
 0.08 1 1 0
1  27 0 0 1
2  45 5 0 0 1
2  46 14 0 0 1
0

0101000
+61 0 -63 0 *
Ve
0.08
-600 199.999943687854 620.968655318947
0 0

0101101
*
Ed
 0.08 1 1 0
1  28 0 0 1
2  47 5 0 0 1
2  48 15 0 0 1
0

0101000
+59 0 -61 0 *
Ve
0.08
-600 99.9999905997116 623.799345110611
0 0

0101101
*
Ed
 0.08 1 1 0
1  29 0 0 1
2  49 5 0 0 1
2  50 16 0 0 1
0

0101000
+57 0 -59 0 *
Ed
 0.08 1 1 0
1  30 0 0 1
2  51 5 0 0 1
2  52 12 0 0 1
0

0101000
+112 0 -57 0 *
Wi

0101100
+111 0 +66 0 -62 0 -60 0 -58 0 -56 0 -55 0 *
Fa
0  0.08 5 0

0111000
+54 0 *
Ve
0.08
-20.0008383170068 782.649983376266 639.339819879385
0 0

0101101
*
Ed
 0.08 1 1 0
1  31 0 0 1
2  53 14 0 0 1
2  54 17 0 0 1
0

0101000
+52 0 -63 0 *
Ve
0.08
-600 684.65 555.24
0 0

0101101
*
Ed
 0.08 1 1 0
1  32 0 0 1
2  55 14 0 0 1
0

0101000
+52 0 -50 0 *
Ed
 0.08 1 1 0
1  33 0 0 1
2  56 14 0 0 1
2  57 18 0 0 1
0

0101000
+61 0 -50 0 *
Wi

0101100
+60 0 -51 0 +49 0 -48 0 *
Fa
0  0.08 14 0

0111000
+47 0 *
Ve
0.08
-808.77 200 519.08
0 0

0101101
*
Ed
 0.08 1 1 0
1  34 0 0 1
2  58 15 0 0 1
2  59 16 0 0 1
0

0101000
+59 0 -45 0 *
Ve
0.08
-676.88 623 542.55
0 0

0101101
*
Ed
 0.08 1 1 0
1  35 0 0 1
2  60 15 0 0 1
2  61 18 0 0 1
0

0101000
+43 0 -61 0 *
Ed
 0.08 1 1 0
1  36 0 0 1
2  62 15 0 0 1
0

0101000
+43 0 -45 0 *
Wi

0101100
-44 0 +58 0 -42 0 +41 0 *
Fa
0  0.08 15 0

0111000
+40 0 *
Ve
0.08
-844.01 100 484.65
0 0

0101101
*
Ed
 0.08 1 1 0
1  37 0 0 1
2  63 16 0 0 1
2  64 12 0 0 1
0

0101000
+57 0 -38 0 *
Ed
 0.08 1 1 0
1  38 0 0 1
2  65 16 0 0 1
0

0101000
+45 0 -38 0 *
Wi

0101100
-37 0 +56 0 +44 0 +36 0 *
Fa
0  0.08 16 0

0111000
+35 0 *
Ed
 0.08 1 1 0
1  39 0 0 1
2  66 12 0 0 1
0

0101000
+38 0 -80 0 *
Wi

0101100
+79 0 +55 0 +37 0 +33 0 *
Fa
0  0.08 12 0

0111000
+32 0 *
Ve
0.08
-636.01 667.8 548.74
0 0

0101101
*
Ed
 0.08 1 1 0
1  40 0 0 1
2  67 18 0 0 1
0

0101000
+50 0 -30 0 *
Ed
 0.08 1 1 0
1  41 0 0 1
2  68 18 0 0 1
0

0101000
+30 0 -43 0 *
Wi

0101100
+42 0 +48 0 +29 0 +28 0 *
Fa
0  0.08 18 0

0111000
+27 0 *
Ve
0.08
387.492364175061 -726.769262650087 756.721482246979
0 0

0101101
*
Ed
 0.08 1 1 0
1  42 0 0 1
2  69 4 0 0 1
0

0101000
+25 0 -117 0 *
Ve
0.08
387.410490640632 -727.928389328809 756.560027803797
0 0

0101101
*
Ed
 0.08 1 1 0
1  43 0 0 1
2  70 4 0 0 1
2  71 11 0 0 1
0

0101000
+23 0 -104 0 *
Ed
 0.08 1 1 0
1  44 0 0 1
2  72 4 0 0 1
0

0101000
+23 0 -25 0 *
Wi

0101100
+24 0 +116 0 +102 0 -22 0 +21 0 *
Fa
0  0.08 4 0

0111000
+20 0 *
Ve
0.08
324.999364674401 -797.169225901266 666.299358845369
0 0

0101101
*
Ed
 0.08 1 1 0
1  45 0 0 1
2  73 11 0 0 1
0

0101000
+97 0 -18 0 *
Ed
 0.08 1 1 0
1  46 0 0 1
2  74 11 0 0 1
0

0101000
+18 0 -23 0 *
Wi

0101100
+22 0 +95 0 +17 0 +16 0 *
Fa
0  0.08 11 0

0111000
+15 0 *
Ve
0.08
387.492364175061 726.769262650087 756.721482246979
0 0

0101101
*
Ve
0.08
387.410490640632 727.928389328809 756.560027803797
0 0

0101101
*
Ed
 0.08 1 1 0
1  47 0 0 1
2  75 13 0 0 1
0

0101000
+13 0 -12 0 *
Ed
 0.08 1 1 0
1  48 0 0 1
2  76 13 0 0 1
2  77 17 0 0 1
0

0101000
+63 0 -12 0 *
Ed
 0.08 1 1 0
1  49 0 0 1
2  78 13 0 0 1
0

0101000
+70 0 -13 0 *
Wi

0101100
+11 0 -10 0 +62 0 +67 0 +9 0 *
Fa
0  0.08 13 0

0111000
+8 0 *
Ve
0.08
324.999364674402 797.169225901266 666.299358845369
0 0

0101101
*
Ed
 0.08 1 1 0
1  50 0 0 1
2  79 17 0 0 1
0

0101000
+12 0 -6 0 *
Ed
 0.08 1 1 0
1  51 0 0 1
2  80 17 0 0 1
0

0101000
+6 0 -52 0 *
Wi

0101100
+5 0 +4 0 +51 0 +10 0 *
Fa
0  0.08 17 0

0111000
+3 0 *
Sh

1101000
+113 0 +100 0 +93 0 +86 0 +81 0 +76 0 +71 0 +64 0 +53 0 +46 0 
+39 0 +34 0 +31 0 +26 0 +19 0 +14 0 +7 0 +2 0 *

+1 0 
0

