DBRep_DrawableShape

CASCADE Topology V1, (c) Matra-Datavision
Locations 1
1
              1               0               0               1 
              0               1               0               1 
              0               0               1               0 
Curve2ds 17
1 0 2.2360679774997898 1 0 
2 0 0 1 0 -0 1 2
1 4.7123889803846897 -0 0 1 
1 1 0 0.44721359549995798 0.89442719099991597 
1 0 0 1 0 
2 0 0 1 0 -0 1 1
1 0 -0 0 1 
1 0 0 1 0 
1 0 2.0000000000000004 1 0 
1 0 0 -1.8369701987210297e-16 -1 
1 0 2.0000000000000004 1 0 
1 0 0 -1.8369701987210297e-16 -1 
1 0 0 1 0 
1 0 0 1 0 
1 0 0 1 0 
1 0 0 0 1 
1 0 0 0 1 
Curves 9
2 0 0 2.0000000000000004 0 0 1 1 0 -0 -0 1 0 2
1 -2.2204460492503131e-16 -1 0 -9.930136612989093e-17 -0.44721359549995798 0.89442719099991597 
2 0 0 0 0 0 1 1 0 -0 -0 1 0 1
1 1 0 0 0.44721359549995798 0 0.89442719099991597 
1 0 0 2.0000000000000004 1 0 -0 
1 0 0 2.0000000000000004 -2.2204460492503131e-16 -1 0 
1 0 0 0 -2.2204460492503131e-16 -1 0 
1 0 0 0 1 0 -0 
1 0 0 0 0 0 1 
Polygon3D 0
PolygonOnTriangulations 0
Surfaces 5
3 0 0 0 0 0 1 1 0 -0 -0 1 0 1
0.46364760900080609
1 0 0 2.0000000000000004 0 0 1 1 0 -0 -0 1 0 
1 0 0 0 -1 2.2204460492503131e-16 0 -2.2204460492503131e-16 -1 0 0 0 1 
1 0 0 0 0 0 1 1 0 -0 -0 1 0 
1 0 0 0 0 -1 -0 1 0 0 0 -0 1 
Triangulations 0

TShapes 27
Ve
1e-07
-4.44089209850063e-16 -2 2
0 0

0101100
*
Ve
1e-07
2 0 2
0 0

0101100
*
Ed
 1e-07 1 1 0
1  1 0 0 4.71238898038469
2  1 1 0 0 4.71238898038469
2  2 2 0 0 4.71238898038469
0

0101100
-27 0 +26 0 *
Ve
1e-07
-2.22044604925031e-16 -1 0
0 0

0101100
*
Ed
 1e-07 1 1 0
1  2 0 0 2.23606797749979
2  3 1 0 0 2.23606797749979
2  4 3 0 0 2.23606797749979
0

0101000
-27 0 +24 0 *
Ve
1e-07
1 0 0
0 0

0101100
*
Ed
 1e-07 1 1 0
1  3 0 0 4.71238898038469
2  5 1 0 0 4.71238898038469
2  6 4 0 0 4.71238898038469
0

0101100
-24 0 +22 0 *
Ed
 1e-07 1 1 0
1  4 0 0 2.23606797749979
2  7 1 0 0 2.23606797749979
2  4 5 0 0 2.23606797749979
0

0101000
-26 0 +22 0 *
Wi

0101000
-25 0 +23 0 +21 0 -20 0 *
Fa
0  1e-07 1 0

0111000
+19 0 *
Ve
1e-07
0 0 2
0 0

0101100
*
Ed
 1e-07 1 1 0
1  5 0 0 2
2  8 2 0 0 2
2  9 5 0 0 2
0

0101000
+17 0 -26 0 *
Ed
 1e-07 1 1 0
1  6 0 0 2
2  10 2 0 0 2
2  11 3 0 0 2
0

0101000
+17 0 -27 0 *
Wi

0101000
+25 0 +16 0 -15 0 *
Fa
0  1e-07 2 0

0111000
+14 0 *
Ve
1e-07
0 0 0
0 0

0101100
*
Ed
 1e-07 1 1 0
1  7 0 0 1
2  12 4 0 0 1
2  13 3 0 0 1
0

0101000
+12 0 -24 0 *
Ed
 1e-07 1 1 0
1  8 0 0 1
2  14 4 0 0 1
2  15 5 0 0 1
0

0101000
-22 0 +12 0 *
Wi

0101000
-21 0 +11 0 -10 0 *
Fa
0  1e-07 4 0

0111000
-9 0 *
Ed
 1e-07 1 1 0
1  9 0 0 2
2  16 5 0 0 2
2  17 3 0 0 2
0

0101000
-17 0 +12 0 *
Wi

0101000
+10 0 -7 0 -16 0 +20 0 *
Fa
0  1e-07 5 0

0111000
+6 0 *
Wi

0101000
+15 0 +7 0 -11 0 -23 0 *
Fa
0  1e-07 3 0

0111000
-4 0 *
Sh

0101100
+18 0 +13 0 -8 0 +5 0 -3 0 *
So

1100100
+2 0 *

+1 1 
0

