DBRep_DrawableShape

CASCADE Topology V1, (c) Matra-Datavision
Locations 9
1
              1               0               0               0 
              0               1               0               0 
              0               0               1               0 
1
              1               0               0           -1120 
              0               1               0               0 
              0               0               1               0 
2  1 1 2 1 0
1
              1               0               0               0 
              0               1               0               0 
              0               0               1             100 
2  1 1 2 1 4 1 0
2  2 -1 1 -1 0
1
              1               0               0             100 
              0               1               0             100 
              0               0               1             100 
2  7 -1 2 -1 1 -1 0
2  4 -1 2 -1 1 -1 0
Curve2ds 42
1 0 0 0 -1 
1 0 0 0 -1 
1 415.572678791204 0 0 -1 
1 278.28660933070501 0 0 -1 
1 0 -280 1 0 
7 0 0  8 86 13  174.722862937928 161.32804858910501  170.04134332696 156.82879409753801  165.31767399524901 152.37091103861999  160.54490578141599 147.96263016539601  155.71862764353801 143.616650305701  150.83102092574401 139.33967156499099  145.87451040258901 135.13882258078101  140.84533243839101 131.02794186694399  130.629856325502 123.005803295083  125.443300246167 119.094414212394  120.175686867194 115.296196964289  114.81328316932 111.61755891417999  109.367931934514 108.079470743466  103.819824572865 104.68818798386999  98.180468541195097 101.461853185783  86.711473434581904 95.364722529655495  80.8824221493024 92.494254757200395  74.964110655745401 89.805820120973294  68.963172818514096 87.306970622125903  62.885093644465002 85.000969322109498  56.7356954172635 82.891707192555202  50.5225089009366 80.988406025826194  42.162137136628999 78.733488027802693  40.065728761036397 78.193339156502404  37.963257033837699 77.676889560371293  35.855005678080701 77.184266420202803  33.741258416828998 76.715596916780697  31.622298973126799 76.271008230899994  29.498411070035001 75.850627543345894  25.241418899798301 75.058550129432106  23.1083149517141 74.686851731423005  20.970897919718499 74.340129923973294  18.829499137180701 74.019027790193505  16.684449937465899 73.724188413159595  14.5360816539437 73.456254875988506  12.384725619980401 73.2158702617632  8.0767422900029509 72.791489140694495  5.9201150965243698 72.607491545653104  3.76120686944724 72.450308517208995  1.6003928897083799 72.318563704065298  -0.56195156175208205 72.210880754987798  -2.7254512039976602 72.125883318676699  -4.8897307560888397 72.062195043882397  -9.2190895281096701 71.974684308618905  -11.384168744453801 71.950861671537496  -13.549331338286899 71.948372684135194  -15.7142560617736 71.9686183624394  -17.8786216670815 72.012999722516696  -20.042106906374801 72.082917780389806  -22.2043905318206 72.1797735521167  -26.525955707733299 72.4301650843408  -28.685237196675399 72.583701989763796  -30.8426412338648 72.764922158346593  -32.997813290764398 72.973168978446196  -35.150398838823598 73.207785838396703  -37.300043349506602 73.468116126557803  -39.446392294266303 73.753503231269306  -43.731881202390802 74.373091037104899  -45.871020855004801 74.707293815543693  -48.006234514576001 75.065744979049995  -50.137246593284701 75.448290630480898  -52.2637815033004 75.854776872687694  -54.385563656803498 76.285049808526097  -56.502317465966001 76.738955540849403  -64.948265469860104 78.648527641423996  -71.235077042579107 80.291940130980507  -77.467603334103799 82.140086731434195  -83.638928865535206 84.182593288272201  -89.743378281839796 86.415470027921202  -95.775874233221302 88.835257222108496  -101.731091424704 91.432990295158504  -113.478319096367 96.975147413457805  -119.269642684686 99.919445611228596  -124.982838746327 103.023244869283  -130.60450793525101 106.273437700306  -136.155750242783 109.659139024941  -141.62621539332901 113.15842752063401  -147.02758372874899 116.766998947837  -157.697190926654 124.17435017893899  -162.96558739047401 127.973403904309  -168.17356811880401 131.857404197254  -173.32449383289099 135.81281958919999  -178.426283243211 139.83132017979699  -183.48714616773799 143.90490828007199  -188.51121751366099 148.020935920863  -193.50566735522699 152.170218859687 
 0 9 51.953243925163001 7 103.901325396592 7 155.84471298173401 7 173.15882603323001 7 190.472344397586 7 207.78552861380999 7 225.098636129216 7 242.41209337755299 7 259.72628760194601 7 311.67008796296602 7 363.61925247353099 7 415.572678791204 9
1 0 0 1 0 
1 0 -173.20508075688772 1 0 
1 0 0 1 0 
1 0 -100 1 0 
1 0 0 0 -1 
1 0 0 0 -1 
1 0 -280 1 0 
7 0 0  7 32 6  -96.074080151799805 -107.387450881801  -99.261362609395704 -102.197234833457  -102.387011043348 -96.968843309480903  -105.45122361496 -91.703315865829893  -108.44659328333999 -86.399426157699196  -111.378652304287 -81.059802985946902  -114.245293317635 -75.684798997394196  -119.288037727618 -65.948871973294999  -121.487494670757 -61.6002775756495  -123.643367411808 -57.229660492809401  -125.753625416536 -52.836917516674902  -127.816238150774 -48.421945439173903  -129.82917508029101 -43.9846410522076  -134.496134905812 -33.372208701662103  -137.10345053600099 -27.176814331607702  -139.623053120105 -20.9442421729557  -142.06564321673099 -14.680016361124901  -144.44192138452999 -8.3896610315392603  -146.76258818211301 -2.0787003196186999  -152.17888016388099 12.9772593477195  -155.23388840577201 21.735897649968798  -158.207486071331 30.5217629486974  -161.10379033814601 39.333361646647496  -163.92691838373901 48.169200146552598  -166.680987385696 57.0277848511532  -173.08018711900101 78.158750286409898  -176.666645930134 90.450331747853994  -180.15123193108201 102.772514539844  -183.55568609794199 115.115446654697  -186.901749406851 127.46927608474201  -190.21116283390401 139.82415082229701  -193.505667355226 152.170218859687 
 0 8 42.635082230143702 6 76.737419759996399 6 123.785274344451 6 188.71116347968001 6 278.28660933070501 8
1 0 0 1 0 
1 0 -173.20508075688772 1 0 
1 0 0 1 0 
1 0 -100 1 0 
1 111.232217675413 0 0 -1 
1 120.884559117873 0 0 -1 
1 0 -280 1 0 
7 0 0  1 2 2  -102.443946365176 -2.1741258022919898  -4.4739736474077496 50.4993086278863 
 0 2 111.232217675413 2
7 0 0  1 2 2  -96.0740801518008 -107.387450881801  0.073592682582734895 -51.456857665540099 
 0 2 111.232217675413 2
1 0 0 1 0 
1 0 -173.20508075688772 1 0 
1 0 0 1 0 
1 0 -100 1 0 
1 0 0 0 -1 
1 266.10839940456901 0 0 -1 
1 0 -280 1 0 
7 0 0  1 2 2  106.312062860854 2.1306126777920502  -4.4739736474077603 50.4993086278863 
 0 2 120.884559117873 2
7 0 0  1 2 2  112.419993374002 -96.081546849955203  0.073592682582727803 -51.456857665540099 
 0 2 120.884559117873 2
1 0 0 1 0 
1 0 -173.20508075688772 1 0 
1 0 0 1 0 
1 0 -100 1 0 
1 0 -280 1 0 
7 0 0  9 34 5  174.72286293792499 161.32804858910501  173.57200278273001 151.89710919250001  172.39889713295699 142.460765268757  171.194936079364 133.021994698291  169.951509713056 123.583775361785  168.66000812457699 114.14908513949599  167.311821405156 104.72090191219  165.898339645378 95.302203560168095  164.41095293629601 85.895967964056297  161.703086962746 69.698128137014805  160.52176700987201 62.899196199286997  159.29481126419699 56.109038978945001  158.01993947997499 49.3283182638204  156.694871411214 42.557695841729  155.31732681225 35.797833500500502  153.88502543708199 29.049393027955499  152.39568703997799 22.313036211918899  149.72474689030199 10.716937756928401  148.571311023052 5.85114414127084  147.38366326622801 0.99333272193529398  146.158743113057 -3.85520777238915  144.893490056263 -8.6931886130048106  143.584843589217 -13.5193210712258  142.229743204659 -18.332316418354001  140.825128395798 -23.130885925700799  136.99133716975999 -35.714331165543399  134.47455128765 -43.472663892445098  131.814274908855 -51.186390996450001  128.99556071560099 -58.8373069458072  126.029727483201 -66.4429854668807  122.89469020201 -73.9754981765591  119.585682974058 -81.430508512800202  116.09659110589899 -88.8018426055053  112.41999337399901 -96.081546849954293 
 0 10 85.651022577900406 8 147.736325911298 8 192.72849185160399 8 266.10839940456901 10
1 0 0 1 0 
1 0 -173.20508075688772 1 0 
1 0 0 1 0 
1 0 -100 1 0 
Curves 10
1 191.5 -56.927199999999601 162.176999999999 0 0 1 
1 191.5 -56.391099999999703 -206.16499999999999 0 0 1 
7 0 0  3 27 25  1311.5 -56.927199999999701 162.17699999999999  1311.5 -60.815658201425201 157.911815636516  1311.5 -68.505002478789294 149.29597621276699  1311.5 -79.655205708432504 136.042132144574  1311.5 -90.306124396193596 122.381046544033  1311.5 -100.32347583409199 108.247052487818  1311.5 -109.556859945317 93.586413775696201  1311.5 -117.841816442141 78.3662501861793  1311.5 -125.00522932490099 62.585467243274003  1311.5 -130.98480019669699 46.319404745671797  1311.5 -135.717477547561 29.6461862161398  1311.5 -139.121151576893 12.6526530273298  1311.5 -141.155673654705 -4.5646593315756698  1311.5 -141.60807384581 -21.888795235998099  1311.5 -140.944024674188 -39.206185831205197  1311.5 -138.69572790333399 -56.396893026577096  1311.5 -135.08674196768899 -73.347727188058101  1311.5 -130.17114618056399 -89.967272414947999  1311.5 -124.042713162609 -106.17703365301701  1311.5 -116.775054378588 -121.908832716343  1311.5 -108.44447798296601 -137.10281862517201  1311.5 -99.216023385124601 -151.76559080389401  1311.5 -89.259575659651802 -165.941611141284  1311.5 -78.720900258820606 -179.68849025059899  1311.5 -67.735721516281998 -193.07854972625501  1311.5 -60.195025847007997 -201.82395874910199  1311.5 -56.391099999999703 -206.16499999999999 
 0 4 17.317843007718899 1 34.635952097339597 1 51.953243925163001 1 69.270013493705505 1 86.586129063890397 1 103.901325396592 1 121.21610348468801 1 138.53042470759399 1 155.84471298173401 1 173.15882603323001 1 190.472344397586 1 207.78552861380999 1 225.098636129216 1 242.41209337755299 1 259.72628760194601 1 277.04070828414001 1 294.35488340165602 1 311.67008796296602 1 328.98562532107297 1 346.30177096610601 1 363.61925247353099 1 380.936828522447 1 398.25434127717 1 415.572678791204 4
1 191.5 -318.423 -115.598 0 0 1 
7 0 0  3 9 7  1311.5 -318.423 -115.597999999999  1311.5 -313.25330762698502 -118.58823705558  1311.5 -300.84402469514703 -125.520614291991  1311.5 -278.06275721509002 -137.16593739117201  1311.5 -245.85287744502199 -151.65347328008201  1311.5 -199.90701252036999 -167.91302779053899  1311.5 -135.52135860026601 -187.11472728119401  1311.5 -85.390919639517094 -199.23861892553799  1311.5 -56.391099999999497 -206.164999999999 
 0 4 17.916575398217201 1 42.635082230143702 1 76.737419759996399 1 123.785274344451 1 188.71116347968001 1 278.28660933070501 4
1 191.5 -265.04212000000001 -18.011690000000002 0 0 1 
7 0 0  1 2 2  1311.5 -318.423 -115.598  1311.5 -265.04212000000001 -18.011690000000002 
 0 2 111.232217675413 2
1 191.5 -312.608 93.121399999998502 0 0 1 
7 0 0  1 2 2  1311.5 -312.608 93.121399999999994  1311.5 -265.04212000000001 -18.011690000000002 
 0 2 120.884559117873 2
7 0 0  3 9 7  1311.5 -56.927199999999402 162.17699999999701  1311.5 -85.119356350558306 157.98102653750399  1311.5 -133.846687389734 150.28031509626101  1311.5 -196.59358716791601 136.41155897004199  1311.5 -241.40607223543699 123.614049733145  1311.5 -273.08817898061301 111.910484268543  1311.5 -295.46045421201001 101.987181103141  1311.5 -307.57872958922701 95.829835243625396  1311.5 -312.60799999999898 93.121399999997095 
 0 4 85.651022577900406 1 147.736325911298 1 192.72849185160399 1 225.33913344296201 1 248.97629372079501 1 266.10839940456901 4
Polygon3D 0
PolygonOnTriangulations 7
13 1 3 4 5 6 7 8 9 10 11 12 13 2 
p 41.2690118164609 1 0 62.3359018186806 97.8018051088413 131.883959428205 163.441509723912 191.843304990048 220.245100256185 248.646895522321 277.048690788457 305.450486054594 341.697458546324 378.635068668764 415.572678791204 
4 14 15 16 2 
p 41.2690118164609 1 0 92.762203110235 185.52440622047 278.286609330705 
2 2 19 
p 23.0683027602342 1 0 111.232217675413 
2 14 17 
p 41.2690118164609 1 0 111.232217675413 
2 1 19 
p 23.0683027602342 1 0 120.884559117873 
2 18 17 
p 41.2690118164609 1 0 120.884559117873 
4 1 19 20 18 
p 41.2690118164609 1 0 118.270399735364 192.189399569967 266.108399404569 
Surfaces 17
6 -0 -0 -1 
7 0 0  3 27 25  191.5 -56.927199999999701 162.17699999999999  191.5 -60.815658201425201 157.911815636516  191.5 -68.505002478789294 149.29597621276699  191.5 -79.655205708432504 136.042132144574  191.5 -90.306124396193596 122.381046544033  191.5 -100.32347583409199 108.247052487818  191.5 -109.556859945317 93.586413775696201  191.5 -117.841816442141 78.3662501861793  191.5 -125.00522932490099 62.585467243274003  191.5 -130.98480019669699 46.319404745671797  191.5 -135.717477547561 29.6461862161398  191.5 -139.121151576893 12.6526530273298  191.5 -141.155673654705 -4.5646593315756698  191.5 -141.60807384581 -21.888795235998099  191.5 -140.944024674188 -39.206185831205197  191.5 -138.69572790333399 -56.396893026577096  191.5 -135.08674196768899 -73.347727188058101  191.5 -130.17114618056399 -89.967272414947999  191.5 -124.042713162609 -106.17703365301701  191.5 -116.775054378588 -121.908832716343  191.5 -108.44447798296601 -137.10281862517201  191.5 -99.216023385124601 -151.76559080389401  191.5 -89.259575659651802 -165.941611141284  191.5 -78.720900258820606 -179.68849025059899  191.5 -67.735721516281998 -193.07854972625501  191.5 -60.195025847007997 -201.82395874910199  191.5 -56.391099999999703 -206.16499999999999 
 0 4 17.317843007718899 1 34.635952097339597 1 51.953243925163001 1 69.270013493705505 1 86.586129063890397 1 103.901325396592 1 121.21610348468801 1 138.53042470759399 1 155.84471298173401 1 173.15882603323001 1 190.472344397586 1 207.78552861380999 1 225.098636129216 1 242.41209337755299 1 259.72628760194601 1 277.04070828414001 1 294.35488340165602 1 311.67008796296602 1 328.98562532107297 1 346.30177096610601 1 363.61925247353099 1 380.936828522447 1 398.25434127717 1 415.572678791204 4
6 -0 -0 -1 
7 0 0  3 9 7  191.5 -56.927199999999402 162.17699999999701  191.5 -85.119356350558306 157.98102653750399  191.5 -133.846687389734 150.28031509626101  191.5 -196.59358716791601 136.41155897004199  191.5 -241.40607223543699 123.614049733145  191.5 -273.08817898061301 111.910484268543  191.5 -295.46045421201001 101.987181103141  191.5 -307.57872958922701 95.829835243625396  191.5 -312.60799999999898 93.121399999997095 
 0 4 85.651022577900406 1 147.736325911298 1 192.72849185160399 1 225.33913344296201 1 248.97629372079501 1 266.10839940456901 4
6 -0 -0 -1 
7 0 0  3 9 7  191.5 -318.423 -115.597999999999  191.5 -313.25330762698502 -118.58823705558  191.5 -300.84402469514703 -125.520614291991  191.5 -278.06275721509002 -137.16593739117201  191.5 -245.85287744502199 -151.65347328008201  191.5 -199.90701252036999 -167.91302779053899  191.5 -135.52135860026601 -187.11472728119401  191.5 -85.390919639517094 -199.23861892553799  191.5 -56.391099999999497 -206.164999999999 
 0 4 17.916575398217201 1 42.635082230143702 1 76.737419759996399 1 123.785274344451 1 188.71116347968001 1 278.28660933070501 4
6 1 -1.0459622140265801e-15 1.3007607115595099e-16 
7 0 0  3 27 25  1591.5 -56.927199999999999 162.17699999999999  1591.5 -60.815658201425499 157.911815636516  1591.5 -68.505002478789606 149.29597621276699  1591.5 -79.655205708432803 136.042132144574  1591.5 -90.306124396193894 122.381046544033  1591.5 -100.32347583409199 108.247052487818  1591.5 -109.556859945317 93.5864137756963  1591.5 -117.841816442141 78.3662501861793  1591.5 -125.00522932490099 62.585467243274003  1591.5 -130.98480019669699 46.319404745671797  1591.5 -135.717477547561 29.6461862161398  1591.5 -139.121151576893 12.6526530273298  1591.5 -141.15567365470599 -4.5646593315756299  1591.5 -141.60807384581 -21.888795235998  1591.5 -140.944024674188 -39.206185831205197  1591.5 -138.69572790333501 -56.396893026577096  1591.5 -135.08674196768999 -73.347727188058101  1591.5 -130.17114618056399 -89.967272414947999  1591.5 -124.042713162609 -106.17703365301701  1591.5 -116.775054378588 -121.908832716343  1591.5 -108.444477982967 -137.10281862517201  1591.5 -99.216023385124899 -151.76559080389401  1591.5 -89.2595756596521 -165.941611141284  1591.5 -78.720900258820905 -179.68849025059899  1591.5 -67.735721516282297 -193.07854972625501  1591.5 -60.195025847008303 -201.82395874910199  1591.5 -56.391100000000002 -206.16499999999999 
 0 4 17.317843007718899 1 34.635952097339597 1 51.953243925163001 1 69.270013493705505 1 86.586129063890397 1 103.901325396592 1 121.21610348468801 1 138.53042470759399 1 155.84471298173401 1 173.15882603323001 1 190.472344397586 1 207.78552861380999 1 225.098636129216 1 242.41209337755299 1 259.72628760194601 1 277.04070828414001 1 294.35488340165602 1 311.67008796296602 1 328.98562532107297 1 346.30177096610601 1 363.61925247353099 1 380.936828522447 1 398.25434127717 1 415.572678791204 4
9 0 0 0 0 8 8 9 9 2 2 191.5 -326.08464503098901 -232.62231767743299  191.49999999999901 -289.14906260457599 -231.649943877808  191.50000000000301 -252.21347791694501 -230.67756364993099  191.49999999999599 -215.277893001819 -229.70518071715099  191.50000000000199 -178.342309061799 -228.73279771185  191.5 -141.406726468241 -227.760416175274  191.49999999999901 -104.471144761376 -226.788036557716  191.5 -67.535562650224804 -225.81565821837  191.5 -30.599978012642101 -224.84327942541699  
191.49999999999801 -327.41712291852798 -182.008436086042  191.49999999999201 -290.48154099059798 -181.03606537443301  191.500000000021 -253.545953220684 -180.063680929285  191.49999999995799 -216.61036797167699 -179.09129422263999  191.500000000049 -179.67478556663201 -178.11891131925299  191.499999999952 -142.73920248309599 -177.146533836782  191.50000000002601 -105.803615546386 -176.174159911343  191.49999999999 -68.868026124076906 -175.20178515724601  191.49999999999801 -31.932444319443501 -174.22940363159901  
191.50000000000699 -328.74960040799402 -131.39454576031099  191.500000000027 -291.81402325082001 -130.422194211511  191.49999999992201 -254.87832760911201 -129.44964183816401  191.50000000017499 -217.94307758238301 -128.477376383869  191.49999999977999 -181.00695700044901 -127.5051919337  191.500000000216 -144.071947944779 -126.532422542839  191.49999999987901 -107.136052752797 -125.56033349523101  191.500000000044 -70.200455534940602 -124.58792160484801  191.50000000000699 -33.264918259045103 -123.61552056631599  
191.499999999989 -330.08207812862003 -80.780653368469601  191.49999999994 -293.14649776464898 -79.808288117374303  191.50000000018699 -256.21134694398103 -78.836970828700402  191.49999999960301 -219.27439388532801 -77.861875621276795  191.50000000049999 -182.340721738935 -76.892509972365801  191.49999999952399 -145.403555216585 -75.918195891288406  191.50000000026901 -108.468663626302 -74.946477329316807  191.499999999908 -71.533100227973605 -73.973983945493501  191.499999999989 -34.5973959120766 -73.001632578924898  
191.500000000011 -331.414556479672 -30.166763227786699  191.500000000076 -294.47897200958198 -29.1943806101749  191.49999999974699 -257.54282417508603 -28.220591079859702  191.50000000053001 -220.60908911405099 -27.252448388201099  191.49999999931899 -183.670977994711 -26.274693738094399  191.50000000064401 -146.73736582488601 -25.3061528000236  191.499999999632 -109.800983896977 -24.332310393116099  191.50000000012199 -72.865304652446298 -23.360118208247201  191.500000000011 -35.9298749371358 -22.3877419998961  
191.499999999994 -332.74703562996001 20.447122695587701  191.49999999993099 -295.81145183170298 21.419502109721002  191.50000000023201 -258.87628044161801 22.391022514186901  191.49999999953101 -221.93931783708601 23.3660515411053  191.50000000060001 -185.00560381339599 24.334984987902399  191.499999999442 -148.06862803956599 25.309885183562599  191.50000000031901 -111.133488763871 26.281304047906399  191.499999999896 -74.198067374617196 27.253741774230999  191.499999999994 -37.2623545706629 28.226148859323899  
191.50000000000301 -334.07951551843399 71.061004786431596  191.50000000003701 -297.14393387910599 72.033372586065397  191.49999999987401 -260.20821168360101 73.005972514973294  191.500000000254 -223.27306248389999 73.977628599732199  191.49999999967201 -186.33693295548301 74.950984140192404  191.50000000030499 -149.40173127330101 75.922634821586996  191.49999999982501 -112.466096104453 76.895264740134706  191.50000000005701 -75.530367776056494 77.867678947474104  191.50000000000301 -38.594835627094596 78.840037706145907  
191.49999999999901 -335.41199585363898 121.67488578062201  191.49999999998801 -298.47641119997598 122.64726185991  191.500000000038 -261.54081156932699 123.61964587735601  191.49999999992801 -224.60529059404899 124.591999236587  191.50000000008899 -187.66959195987801 125.564439778853  191.49999999991999 -150.734127196065 126.53675144801301  191.50000000004599 -113.79847664068799 127.509170825044  191.49999999998499 -76.862900332502605 128.48154695816601  191.49999999999901 -39.92732049872 129.453922266989  
191.5 -336.744476114093 172.28877076502101  191.49999999999901 -299.80889200405301 173.261147542467  191.50000000000301 -262.87330824593101 174.233525909599  191.49999999999599 -225.93772484093199 175.20590534482301  191.50000000000199 -189.002141790303 176.178285326577  191.5 -152.06655909524599 177.15066533326399  191.49999999999901 -115.13097675699299 178.123044843315  191.5 -78.195394776765198 179.09542333514599  191.5 -41.259813155783597 180.067800287176  

-212.85623409075001 9
192.19514923172099 9

-118.126195969981 9
177.460853448015 9

6 -0.57735026918962573 -0.57735026918962573 -0.57735026918962573 
7 0 0  3 27 25  191.5 -56.927199999999701 162.17699999999999  191.5 -60.815658201425201 157.911815636516  191.5 -68.505002478789294 149.29597621276699  191.5 -79.655205708432504 136.042132144574  191.5 -90.306124396193596 122.381046544033  191.5 -100.32347583409199 108.247052487818  191.5 -109.556859945317 93.586413775696201  191.5 -117.841816442141 78.3662501861793  191.5 -125.00522932490099 62.585467243274003  191.5 -130.98480019669699 46.319404745671797  191.5 -135.717477547561 29.6461862161398  191.5 -139.121151576893 12.6526530273298  191.5 -141.155673654705 -4.5646593315756698  191.5 -141.60807384581 -21.888795235998099  191.5 -140.944024674188 -39.206185831205197  191.5 -138.69572790333399 -56.396893026577096  191.5 -135.08674196768899 -73.347727188058101  191.5 -130.17114618056399 -89.967272414947999  191.5 -124.042713162609 -106.17703365301701  191.5 -116.775054378588 -121.908832716343  191.5 -108.44447798296601 -137.10281862517201  191.5 -99.216023385124601 -151.76559080389401  191.5 -89.259575659651802 -165.941611141284  191.5 -78.720900258820606 -179.68849025059899  191.5 -67.735721516281998 -193.07854972625501  191.5 -60.195025847007997 -201.82395874910199  191.5 -56.391099999999703 -206.16499999999999 
 0 4 17.317843007718899 1 34.635952097339597 1 51.953243925163001 1 69.270013493705505 1 86.586129063890397 1 103.901325396592 1 121.21610348468801 1 138.53042470759399 1 155.84471298173401 1 173.15882603323001 1 190.472344397586 1 207.78552861380999 1 225.098636129216 1 242.41209337755299 1 259.72628760194601 1 277.04070828414001 1 294.35488340165602 1 311.67008796296602 1 328.98562532107297 1 346.30177096610601 1 363.61925247353099 1 380.936828522447 1 398.25434127717 1 415.572678791204 4
6 -0 -0 -1 
7 0 0  1 2 2  191.5 -318.423 -115.598  191.5 -265.04212000000001 -18.011690000000002 
 0 2 111.232217675413 2
6 1 -1.71239870399152e-15 -2.6825793735851598e-15 
7 0 0  3 9 7  1591.5 -318.423 -115.598  1591.5 -313.25330762698502 -118.58823705558  1591.5 -300.84402469514799 -125.520614291992  1591.5 -278.06275721509002 -137.165937391173  1591.5 -245.85287744502301 -151.65347328008201  1591.5 -199.90701252036999 -167.91302779053899  1591.5 -135.52135860026701 -187.114727281195  1591.5 -85.390919639517506 -199.23861892553899  1591.5 -56.391100000000002 -206.16499999999999 
 0 4 17.916575398217201 1 42.635082230143702 1 76.737419759996399 1 123.785274344451 1 188.71116347968001 1 278.28660933070501 4
6 -0.57735026918962573 -0.57735026918962573 -0.57735026918962573 
7 0 0  3 9 7  191.5 -318.423 -115.597999999999  191.5 -313.25330762698502 -118.58823705558  191.5 -300.84402469514703 -125.520614291991  191.5 -278.06275721509002 -137.16593739117201  191.5 -245.85287744502199 -151.65347328008201  191.5 -199.90701252036999 -167.91302779053899  191.5 -135.52135860026601 -187.11472728119401  191.5 -85.390919639517094 -199.23861892553799  191.5 -56.391099999999497 -206.164999999999 
 0 4 17.916575398217201 1 42.635082230143702 1 76.737419759996399 1 123.785274344451 1 188.71116347968001 1 278.28660933070501 4
6 -0 -0 -1 
7 0 0  1 2 2  191.5 -312.608 93.121399999999994  191.5 -265.04212000000001 -18.011690000000002 
 0 2 120.884559117873 2
6 1 0 0 
7 0 0  1 2 2  1591.5 -318.423 -115.598  1591.5 -265.04212000000001 -18.011690000000002 
 0 2 111.232217675413 2
9 0 0 0 0 5 8 6 9 2 2 191.5 -406.91967393739998 -125.2023762888  191.5 -388.651621368007 -125.33454803036  191.5 -370.383574479424 -125.46671501825701  191.5 -352.11552827230702 -125.59888304727301  191.5 -333.84747957030999 -125.731055519705  191.5 -315.57942702000798 -125.863233445308  191.5 -297.31137109100399 -125.995415441379  191.5 -279.043314075826 -126.127597732667  191.5 -260.77526008999502 -126.259774151445  
191.5 -406.58739035359099 -79.277255940586301  191.49999999999699 -388.31933588598901 -79.409428541729696  191.50000000001 -370.05128394457802 -79.541600967629606  191.499999999978 -351.78324970326901 -79.673752320219094  191.500000000028 -333.51521027914998 -79.805913178854297  191.49999999997701 -315.24715198815397 -79.938100583238807  191.50000000001199 -296.97908626607699 -80.070296735551807  191.49999999999599 -278.71103425931301 -80.202471421919796  191.5 -260.44298008070803 -80.334648153009894  
191.5 -406.25512161988797 -33.352129553503801  191.50000000000199 -387.98705963161501 -33.484313123131699  191.499999999995 -369.718965802588 -33.616556133446501  191.50000000001299 -351.451024845311 -33.748463330512102  191.499999999983 -333.182853198369 -33.881083839788701  191.50000000001401 -314.91491162116898 -34.012778432385502  191.49999999999301 -296.64679058026098 -34.145219716079197  191.50000000000199 -278.37875235383001 -34.277348640613397  191.50000000000099 -260.11069789425699 -34.409525104793502  
191.5 -405.92284879363302 12.5730024686943  191.50000000000099 -387.65480121442198 12.4408393645794  191.49999999999301 -369.38670261715299 12.3086976022373  191.50000000001199 -351.11889259574798 12.1764910144355  191.499999999984 -332.85023225583302 12.0442321331839  191.50000000001401 -314.582786338277 11.9121398686154  191.49999999999201 -296.31449516247199 11.779940129897399  191.50000000000199 -278.04646864957402 11.6477719819752  191.49999999999901 -259.77841395556402 11.5155960497062  
191.5 -405.59056685472399 58.498134011749102  191.49999999999801 -387.32251174642499 58.365959498063603  191.500000000011 -369.05449185097098 58.233790065819299  191.499999999979 -350.78628678168502 58.101566520646699  191.500000000027 -332.518489473861 57.9694222850733  191.49999999997701 -314.250255731268 57.837247859192999  191.50000000001299 -295.98224319526003 57.705060934984203  191.49999999999699 -277.71418343657803 57.572891816582299  191.5 -259.446128689555 57.440716366990401  
191.5 -405.25828470561601 104.42325325089701  191.5 -386.99022980380801 104.29107688926899  191.5 -368.72217742495201 104.15889662686099  191.5 -350.45412477426203 104.026715827548  191.5 -332.18607024113402 103.894536646468  191.5 -313.91801339926502 103.762360030121  191.5 -295.64995500651298 103.63018571624499  191.5 -277.38189700502801 103.498012233938  191.5 -259.11384252115403 103.365836903561  

-112.688341001693 6
116.943269146939 6

-90.599010785401802 9
55.5492394906749 9

6 -0.57735026918962573 -0.57735026918962573 -0.57735026918962573 
7 0 0  1 2 2  191.5 -318.423 -115.598  191.5 -265.04212000000001 -18.011690000000002 
 0 2 111.232217675413 2
6 1 0 0 
7 0 0  1 2 2  1591.5 -312.608 93.121399999999994  1591.5 -265.04212000000001 -18.011690000000002 
 0 2 120.884559117873 2
6 -0.57735026918962573 -0.57735026918962573 -0.57735026918962573 
7 0 0  1 2 2  191.5 -312.608 93.121399999999994  191.5 -265.04212000000001 -18.011690000000002 
 0 2 120.884559117873 2
6 1 -2.1195939358824299e-15 1.04658873434788e-14 
7 0 0  3 9 7  1591.5 -56.927199999999999 162.17699999999999  1591.5 -85.119356350558903 157.98102653750701  1591.5 -133.846687389734 150.28031509626399  1591.5 -196.59358716791701 136.41155897004501  1591.5 -241.40607223543699 123.61404973314799  1591.5 -273.08817898061397 111.910484268546  1591.5 -295.46045421201001 101.987181103143  1591.5 -307.57872958922701 95.829835243628295  1591.5 -312.608 93.121399999999994 
 0 4 85.651022577900406 1 147.736325911298 1 192.72849185160399 1 225.33913344296201 1 248.97629372079501 1 266.10839940456901 4
6 -0.57735026918962573 -0.57735026918962573 -0.57735026918962573 
7 0 0  3 9 7  191.5 -56.927199999999402 162.17699999999701  191.5 -85.119356350558306 157.98102653750399  191.5 -133.846687389734 150.28031509626101  191.5 -196.59358716791601 136.41155897004199  191.5 -241.40607223543699 123.614049733145  191.5 -273.08817898061301 111.910484268543  191.5 -295.46045421201001 101.987181103141  191.5 -307.57872958922701 95.829835243625396  191.5 -312.60799999999898 93.121399999997095 
 0 4 85.651022577900406 1 147.736325911298 1 192.72849185160399 1 225.33913344296201 1 248.97629372079501 1 266.10839940456901 4
Triangulations 2
20 18 1 41.2690118164609
191.5 -56.9271999999996 162.176999999999 191.5 -56.3910999999997 -206.165 191.5 -96.2774431979408 113.882523118905 191.5 -114.865724181326 83.6980937251153 191.5 -128.629675943876 52.5429551438754 191.5 -137.152478184348 22.1773297454527 191.5 -140.985540424244 -5.95053494634529 191.5 -141.02767755489 -34.3434575818004 191.5 -137.326589138991 -62.4875948070272 191.5 -129.966454047393 -89.9065676344442 191.5 -119.330271289566 -116.230505839828 191.5 -101.619260932004 -147.832684436745 191.5 -80.0729147861988 -177.822378478452 191.5 -318.423 -115.598 191.5 -234.719356656289 -155.351397405475 191.5 -146.332207772802 -183.46134957512 191.5 -265.04212 -18.01169 191.5 -312.608 93.1213999999985 191.5 -173.342071098734 141.384706142484 191.5 -244.661456142749 122.024389456709 174.722862937928 161.328048589105 -193.505667355227 152.170218859687 127.480715749802 120.720465705122 97.7959081979694 101.344240701642 67.013808910698 86.7651552895553 36.8829904899112 77.4461524812291 8.86574373368629 72.8741701479495 -19.5162358391304 72.0848243118687 -47.7480275279203 75.0439548692244 -75.3511862799732 81.6799312153231 -101.945948427107 91.6196889261227 -134.003277562552 108.492867601267 -164.549617743908 129.242500457364 -96.0740801517998 -107.387450881801 -138.016557326567 -24.7589986227091 -168.442879001134 62.8577603226385 0.0735926825827278 -51.4568576655401 112.419993374002 -96.0815468499552 157.001488526959 44.4063030249095 139.524806675067 -27.3978900050086 11 16 15 17 8 9 17 15 14 15 17 9 10 15 9 13 2 16 11 12 16 10 11 15 13 16 12 17 7 8 6 7 17 6 17 20 20 17 18 5 20 19 5 6 20 3 4 19 1 3 19 5 19 4 
19 17 1 23.0683027602342
191.5 -312.608 93.1213999999985 191.5 -318.423 -115.598 191.5 -344.270607480515 72.9702346235862 191.5 -365.053468043715 55.1753925640964 191.5 -377.346177855686 41.3896109660955 191.5 -385.940274559715 28.6195701915079 191.5 -391.630478472336 17.1217392201815 191.5 -395.42417898741 5.86554591039316 191.5 -397.423063762555 -4.63754144981436 191.5 -397.947603962257 -14.2465310441875 191.5 -397.205646428967 -23.8413579063228 191.5 -395.194296338057 -33.2521016086209 191.5 -391.997446580175 -42.3295193006923 191.5 -386.504566868535 -53.283334182347 191.5 -378.423957821121 -65.2410325609598 191.5 -365.959128583618 -79.4172957059015 191.5 -349.85642516767 -93.886522346376 191.5 -334.499766209861 -105.261828363437 191.5 -265.04212 -18.01169 106.312062860854 2.13061267779204 -102.443946365176 -2.174125802292 85.9323320595012 -29.3853657522039 67.9875859190467 -50.0389212523747 54.1132358595812 -62.2315864611914 41.2813595085415 -70.7330684035974 29.7426709644894 -76.3399192912563 18.4592921753288 -80.0520884830761 7.9420449810295 -81.9749314479517 -1.67050000702916 -82.4299444133338 -11.2597072561628 -81.6185722962279 -20.6556504702849 -79.5392001468629 -29.7097078109108 -76.2767413352938 -40.6234774916749 -70.7047760135146 -52.5224152949599 -62.5378533944369 -66.6081168585352 -49.970779853132 -80.9604484846332 -33.7638038637535 -92.2243665991793 -18.3252530863059 -4.47397364740776 50.4993086278863 19 14 13 13 12 19 15 14 19 18 17 19 19 16 15 16 19 17 2 18 19 12 11 19 19 10 9 19 8 7 9 8 19 19 7 6 19 5 4 5 19 6 3 1 19 3 19 4 10 19 11 

TShapes 26
Ve
1e-07
1311.5 -56.9271999999996 162.176999999999
0 0

0101101
*
Ed
 1e-07 1 1 0
1  1 0 0 100
2  1 1 0 0 100
2  2 2 0 0 100
0

0101000
+26 3 -26 5 *
Ve
1e-07
1311.5 -56.3910999999997 -206.165
0 0

0101101
*
Ed
 1e-07 1 1 0
1  2 0 0 100
2  3 1 0 0 100
2  4 3 0 0 100
0

0101000
+24 3 -24 5 *
Ed
 1e-07 1 1 0
1  3 0 0 415.572678791204
2  5 4 0 0 415.572678791204
2  6 5 6 0 415.572678791204
6  1 1 6
2  7 6 6 0 415.572678791204
2  8 6 8 0 415.572678791204
2  9 1 6 0 415.572678791204
2  10 1 9 0 415.572678791204
0

0101000
+26 0 -24 0 *
Wi

0101000
+25 0 -23 0 -22 3 +22 5 *
Fa
0  1e-07 1 0

0101000
+21 0 *
Ve
1e-07
1311.5 -318.423 -115.598
0 0

0101101
*
Ed
 1e-07 1 1 0
1  4 0 0 100
2  11 3 0 0 100
2  12 7 0 0 100
0

0101000
+19 3 -19 5 *
Ed
 1e-07 1 1 0
1  5 0 0 278.286609330705
2  13 8 0 0 278.286609330705
2  14 5 6 0 278.286609330705
6  2 1 6
2  15 9 6 0 278.286609330705
2  16 9 8 0 278.286609330705
2  17 3 6 0 278.286609330705
2  18 3 9 0 278.286609330705
0

0101000
+19 0 -24 0 *
Wi

0101000
+18 0 -23 0 -17 3 +17 5 *
Fa
0  1e-07 3 0

0101000
+16 0 *
Ve
1e-07
1311.5 -265.04212 -18.01169
0 0

0101101
*
Ed
 1e-07 1 1 0
1  6 0 0 100
2  19 7 0 0 100
2  20 10 0 0 100
0

0101000
+14 3 -14 5 *
Ed
 1e-07 1 1 0
1  7 0 0 111.232217675413
2  21 11 0 0 111.232217675413
2  22 12 6 0 111.232217675413
2  23 5 6 0 111.232217675413
6  3 2 6
6  4 1 6
2  24 13 6 0 111.232217675413
2  25 13 8 0 111.232217675413
2  26 7 6 0 111.232217675413
2  27 7 9 0 111.232217675413
0

0101000
+19 0 -14 0 *
Wi

0101000
+18 0 -13 0 -12 3 +12 5 *
Fa
0  1e-07 7 0

0101000
+11 0 *
Ve
1e-07
1311.5 -312.608 93.1213999999985
0 0

0101101
*
Ed
 1e-07 1 1 0
1  8 0 0 100
2  28 10 0 0 100
2  29 2 0 0 100
0

0101000
+9 3 -9 5 *
Ed
 1e-07 1 1 0
1  9 0 0 120.884559117873
2  30 14 0 0 120.884559117873
2  31 12 6 0 120.884559117873
2  32 5 6 0 120.884559117873
6  5 2 6
6  6 1 6
2  33 15 6 0 120.884559117873
2  34 15 8 0 120.884559117873
2  35 10 6 0 120.884559117873
2  36 10 9 0 120.884559117873
0

0101000
+9 0 -14 0 *
Wi

0101000
+8 0 -13 0 -7 3 +7 5 *
Fa
0  1e-07 10 0

0101000
+6 0 *
Ed
 1e-07 1 1 0
1  10 0 0 266.108399404569
2  37 16 0 0 266.108399404569
2  38 5 6 0 266.108399404569
6  7 1 6
2  39 17 6 0 266.108399404569
2  40 17 8 0 266.108399404569
2  41 2 6 0 266.108399404569
2  42 2 9 0 266.108399404569
0

0101000
+26 0 -9 0 *
Wi

0101000
+25 0 -8 0 -4 3 +4 5 *
Fa
0  1e-07 2 0

0101000
+3 0 *
Sh

1101000
+20 0 -15 0 +10 0 -5 0 -2 0 *

+1 0 
0

