DBRep_DrawableShape

CASCADE Topology V1, (c) Matra-Datavision
Locations 19
1
             -1               0               0               0 
              0               1               0               0 
              0               0              -1               0 
1
              1               0               0               0 
              0               1               0               0 
              0               0               1               0 
1
              1               0               0               0 
              0               1               0               0 
              0               0               1               0 
2  1 1 2 1 3 1 0
1
              1               0               0               0 
              0               1               0               0 
              0               0               1              10 
2  1 1 2 1 3 1 5 1 0
2  2 1 3 1 0
2  2 1 3 1 5 1 0
2  3 -1 2 -1 1 -1 0
2  5 -1 3 -1 2 -1 1 -1 0
2  1 -1 0
2  3 -1 2 -1 0
2  5 -1 3 -1 2 -1 0
1
             -1               0               0               0 
              0               1               0               0 
              0               0              -1               0 
2  14 1 2 1 3 1 0
2  14 1 2 1 3 1 5 1 0
2  3 -1 2 -1 14 -1 0
2  5 -1 3 -1 2 -1 14 -1 0
2  14 -1 0
Curve2ds 20
1 1.3089968430733701 0 0 -1 
1 1.32081919043664 0 0 -1 
1 4.9623661169253204 0 0 -1 
1 0 0 1 0 
1 0 -10 1 0 
1 5.5940251171776403 0 0 -1 
1 4.3958306624223003 0 0 -1 
1 0 0 1 0 
1 0 -10 1 0 
1 7.0206022853882004 0 0 -1 
1 5.4813473077994104 0 0 -1 
1 0 0 1 0 
1 0 -10 1 0 
1 6.57585205417762 0 0 -1 
1 1.5560289838329899 0 0 -1 
1 0 0 1 0 
1 0 -10 1 0 
1 1.57079621727896 0 0 -1 
1 0 0 1 0 
1 0 -10 1 0 
Curves 11
1 -5.8072508768936002 21.672960290544999 0 0 0 1 
1 -5.55062575484604 21.740099495137802 0 0 0 1 
2 -3.5265161244524e-06 1.2022914597232001e-07 0 0 0 1 1 0 -0 -0 1 0 22.437500000000401
1 -4.7115881474996497 22.272945605246601 0 0 0 1 
2 -5.9464366472274 23.290368419379998 0 0 0 1 1 0 -0 -0 1 0 1.59999999999955
1 -2.0039613685260398 26.4513739070828 0 0 0 1 
2 -3.9099964734838002 24.720000120228999 0 0 0 1 1 0 -0 -0 1 0 2.5750000043241599
1 -0.477281933944044 32.317975913238001 0 0 0 1 
2 -6.0545906172448003 30.637425025005001 0 0 0 1 1 0 -0 -0 1 0 5.8249997316331203
1 -6.6015761746029999e-09 32.321500120254299 0 0 0 1 
2 -3.5265161244524e-06 1.2022914597232001e-07 0 0 0 1 1 0 -0 -0 1 0 32.321499999999901
Polygon3D 0
PolygonOnTriangulations 0
Surfaces 5
2 3.5265161244524e-06 1.2022914597232001e-07 0 0 0 -1 -1 0 0 0 1 0 22.437500000000401
2 -5.9464366472274 23.290368419379998 0 -0 -0 -1 1 0 0 0 1 0 1.59999999999955
2 -3.9099964734838002 24.720000120228999 0 -0 -0 -1 1 0 0 0 1 0 2.5750000043241599
2 -6.0545906172448003 30.637425025005001 0 -0 -0 -1 1 0 0 0 1 0 5.8249997316331203
2 3.5265161244524e-06 1.2022914597232001e-07 0 0 0 -1 -1 0 0 0 1 0 32.321499999999901
Triangulations 0

TShapes 28
Ve
1e-07
5.8072508768936 21.672960290545 0
0 0

0101100
*
Ed
 1e-07 1 1 0
1  1 0 0 10
2  1 1 0 0 10
0

0101000
+28 4 -28 6 *
Ve
1.02055119219046e-07
-5.55062575484604 21.7400994951378 0
0 0

0101100
*
Ed
 1.02055119219046e-07 1 1 0
1  2 0 0 10
2  2 1 0 0 10
2  3 2 0 0 10
4 G1 1 0 2 0
0

0101000
+26 7 -26 8 *
Ed
 1e-07 1 1 0
1  3 0 1.30899684307337 1.32081919043664
2  4 1 9 1.30899684307337 1.32081919043664
2  5 1 10 1.30899684307337 1.32081919043664
0

0101000
+28 0 -26 11 *
Wi

0101000
+27 0 -25 0 -24 4 +24 6 *
Fa
0  1e-07 1 0

0101000
+23 0 *
Ve
1.0232895077435e-07
-4.71158814749965 22.2729456052466 0
0 0

0101100
*
Ed
 1.0232895077435e-07 1 1 0
1  4 0 0 10
2  6 2 0 0 10
2  7 3 0 0 10
0

0101000
+21 7 -21 8 *
Ed
 1e-07 1 1 0
1  5 0 4.96236611692532 5.59402511717764
2  8 2 12 4.96236611692532 5.59402511717764
2  9 2 13 4.96236611692532 5.59402511717764
0

0101000
+26 0 -21 0 *
Wi

0101000
+25 0 -20 0 -19 7 +19 8 *
Fa
0  1e-07 2 0

0101000
+18 0 *
Ve
1.51750144676257e-07
-2.00396136852604 26.4513739070828 0
0 0

0101100
*
Ed
 1.51750144676257e-07 1 1 0
1  6 0 0 10
2  10 3 0 0 10
2  11 4 0 0 10
0

0101000
+16 7 -16 8 *
Ed
 1e-07 1 1 0
1  7 0 4.3958306624223 7.0206022853882
2  12 3 12 4.3958306624223 7.0206022853882
2  13 3 13 4.3958306624223 7.0206022853882
0

0101000
+21 0 -16 0 *
Wi

0101000
+20 0 -15 0 -14 7 +14 8 *
Fa
0  1e-07 3 0

0101000
+13 0 *
Ve
2.34982072379906e-07
-0.477281933944044 32.317975913238 0
0 0

0101100
*
Ed
 2.34982072379906e-07 1 1 0
1  8 0 0 10
2  14 4 0 0 10
2  15 5 0 0 10
0

0101000
+11 7 -11 8 *
Ed
 1e-07 1 1 0
1  9 0 5.48134730779941 6.57585205417762
2  16 4 12 5.48134730779941 6.57585205417762
2  17 4 13 5.48134730779941 6.57585205417762
0

0101000
+16 0 -11 0 *
Wi

0101000
+15 0 -10 0 -9 7 +9 8 *
Fa
0  1e-07 4 0

0101000
+8 0 *
Ve
1.06601626956555e-07
6.601576174603e-09 32.3215001202543 0
0 0

0101100
*
Ed
 1.06601626956555e-07 1 1 0
1  10 0 0 10
2  18 5 0 0 10
0

0101000
+6 15 -6 16 *
Ed
 1e-07 1 1 0
1  11 0 1.55602898383299 1.57079621727896
2  19 5 17 1.55602898383299 1.57079621727896
2  20 5 18 1.55602898383299 1.57079621727896
0

0101000
+11 19 -6 0 *
Wi

0101000
+10 0 -5 0 -4 15 +4 16 *
Fa
0  1e-07 5 0

0101000
+3 0 *
Sh

1101000
+22 0 +17 0 +12 0 +7 0 +2 0 *

+1 0 
0

