DBRep_DrawableShape

CASCADE Topology V1, (c) Matra-Datavision
Locations 2
1
0.998629534754574               0 0.0523359562429444 -10.4671912485889 
              0               1               0               0 
-0.0523359562429444               0 0.998629534754574 0.274093049085224 
2  1 -1 0
Curve2ds 39
1 200 0 0 -1 
1 0 0 0 1 
1 0 0 -1 0 
1 200 0 0 1 
1 0 0 1 0 
1 50 50 0 1 
1 0 0 0 1 
1 6.2308254296197561 0 0 1 
1 200 0 0 -1 
1 200 0 0 1 
1 50 0 -1 0 
1 200 0 0 1 
1 0 200 1 0 
1 0 -100 0 -1 
1 100 -50 -1 0 
1 0 0 1 0 
1 0 0 1 0 
1 4.7123889803846897 0 0 1 
1 150 -50 0 -1 
1 0 0 0 -1 
1 0 0 0 1 
1 0 -100 0 1 
1 100 -150 1 0 
1 0 -200 1 0 
1 0 0 1 0 
2 0 0 -1 0 0 1 50
1 0 0 1 0 
1 0 0 0 1 
1 0 0 1 0 
1 0 0 1 0 
1 0 200 1 0 
1 0 100 1 0 
2 0 0 1 0 -0 1 50
1 0 -200 1 0 
1 0 200 1 0 
1 0 0 0 -1 
1 200 0 0 1 
1 0 0 0 1 
1 0 200 1 0 
Curves 20
1 0 0 200 -0 1 0 
1 0 50 200 1 0 0 
1 0 0 200 1 0 -0 
1 50 50 200 0 1 0 
1 200 0 200 0 1 0 
1 50 150 200 -1 -0 0 
1 0 200 200 1 0 -0 
1 0 50 100 0 -0 -1 
1 0 0 0 0 0 1 
1 0 50 150 -0 1 -0 
1 0 0 0 -0 1 0 
1 0 150 100 0 0 1 
1 0 200 0 0 0 1 
2 0 50 200 0 -1 0 1 0 0 -0 0 1 50
1 0 0 0 1 0 -0 
1 200 0 0 0 0 1 
2 0 150 200 0 -1 0 1 0 0 -0 0 1 50
1 200 200 0 0 0 1 
1 200 0 0 -0 1 0 
1 0 200 0 1 0 -0 
Polygon3D 0
PolygonOnTriangulations 0
Surfaces 11
1 0 0 200 0 0 1 1 0 -0 -0 1 0 
1 0 0 0 1 0 -0 0 0 1 0 -1 0 
1 0 0 200 0 0 1 1 0 -0 -0 1 0 
1 0 50 200 0 -1 0 -1 -0 -0 -0 0 1 
1 0 0 0 -0 1 0 0 0 1 1 0 -0 
1 0 0 200 0.052335956242944376 0 0.99862953475457394 0.99862953475457394 0 -0.052335956242944376 0 1 0 
2 0 50 200 -0 1 -0 1 0 0 -0 -0 1 50
1 200 0 0 1 0 -0 0 0 1 0 -1 0 
1 0 150 200 0 -1 0 1 0 0 -0 0 1 
1 0 200 0 -0 1 0 0 0 1 1 0 -0 
1 0 0 0 0 0 1 1 0 -0 -0 1 0 
Triangulations 0

TShapes 56
Ve
1e-07
0 50 200
0 0

0101101
*
Ve
1e-07
0 0 200
0 0

0101101
*
Ed
 1e-07 1 1 0
1  1 0 0 50
2  1 2 0 0 50
2  2 3 0 0 50
0

0101000
-56 0 +55 0 *
Ve
1e-07
50 50 200
0 0

0101101
*
Ed
 1e-07 1 1 0
1  2 0 0 50
2  3 4 0 0 50
0

0101000
+56 0 -53 0 *
Ve
1e-07
200 0 200
0 0

0101101
*
Ed
 1e-07 1 1 0
1  3 0 0 200
2  4 5 0 0 200
2  5 3 0 0 200
0

0101000
-51 0 +55 0 *
Ve
1e-07
50 150 200
0 0

0101101
*
Ed
 1e-07 1 1 0
1  4 0 0 100
2  6 6 2 0 100
2  7 7 0 0 100
2  8 7 2 0 100
0

0101000
+53 0 -49 0 *
Ve
1e-07
200 200 200
0 0

0101101
*
Ed
 1e-07 1 1 0
1  5 0 0 200
2  9 8 0 0 200
2  10 3 0 0 200
0

0101000
-47 0 +51 0 *
Ve
1e-07
0 150 200
0 0

0101101
*
Ed
 1e-07 1 1 0
1  6 0 0 50
2  11 9 0 0 50
0

0101000
+49 0 -45 0 *
Ve
1e-07
0 200 200
0 0

0101101
*
Ed
 1e-07 1 1 0
1  7 0 0 200
2  12 10 0 0 200
2  13 3 0 0 200
0

0101000
-47 0 +43 0 *
Ed
 1e-07 1 1 0
1  1 0 150 200
2  1 2 0 150 200
2  2 3 0 150 200
0

0101000
+45 0 -43 0 *
Wi

0101000
-54 0 -52 0 +50 0 -48 0 +46 0 -44 0 -42 0 -41 0 *
Fa
0  1e-07 1 0

0101000
+40 0 *
Ve
1e-07
-9.18485099360515e-15 50 150
0 0

0101101
*
Ed
 1e-07 1 1 0
1  8 0 -100 -50
2  14 4 0 -100 -50
2  15 2 0 -100 -50
0

0101000
+56 0 -38 0 *
Ve
1e-07
0 0 0
0 0

0101101
*
Ed
 1e-07 1 1 0
1  9 0 0 200
2  16 2 0 0 200
2  17 5 0 0 200
0

0101000
-55 0 +36 0 *
Ve
1e-07
-9.18485099360515e-15 150 150
0 0

0101101
*
Ed
 1e-07 1 1 0
1  10 0 0 100
2  18 7 0 0 100
2  19 2 0 0 100
0

0101000
+38 0 -34 0 *
Ve
1e-07
0 200 0
0 0

0101101
*
Ed
 1e-07 1 1 0
1  11 0 0 200
2  20 2 0 0 200
2  21 11 0 0 200
0

0101000
-32 0 +36 0 *
Ed
 1e-07 1 1 0
1  12 0 50 100
2  22 9 0 50 100
2  23 2 0 50 100
0

0101000
+34 0 -45 0 *
Ed
 1e-07 1 1 0
1  13 0 0 200
2  24 2 0 0 200
2  25 10 0 0 200
0

0101000
-43 0 +32 0 *
Wi

0101000
-54 0 -37 0 -35 0 -33 0 +31 0 -30 0 +29 0 -41 0 *
Fa
0  1e-07 2 0

0101000
+28 0 *
Ed
 1e-07 1 1 0
1  14 0 0 4.71238898038469
2  26 4 0 0 4.71238898038469
2  27 7 0 0 4.71238898038469
0

0101000
-38 0 +53 0 *
Wi

0101000
-52 0 +37 0 -26 0 *
Fa
0  1e-07 4 0

0101000
+25 0 *
Ve
1e-07
200 0 0
0 0

0101101
*
Ed
 1e-07 1 1 0
1  15 0 0 200
2  28 5 0 0 200
2  29 11 0 0 200
0

0101000
-23 0 +36 0 *
Ed
 1e-07 1 1 0
1  16 0 0 200
2  30 8 0 0 200
2  31 5 0 0 200
0

0101000
-51 0 +23 0 *
Wi

0101000
-22 0 -21 0 +50 0 +35 0 *
Fa
0  1e-07 5 0

0111000
+20 0 *
Ed
 1e-07 1 1 0
1  17 0 0 4.71238898038469
2  32 7 0 0 4.71238898038469
2  33 9 0 0 4.71238898038469
0

0101000
-34 0 +49 0 *
Wi

0101000
-48 0 +26 0 -18 0 +33 0 *
Fa
0  1e-07 7 0

0101000
+17 0 *
Ve
1e-07
200 200 0
0 0

0101101
*
Ed
 1e-07 1 1 0
1  18 0 0 200
2  34 8 0 0 200
2  35 10 0 0 200
0

0101000
-47 0 +15 0 *
Ed
 1e-07 1 1 0
1  19 0 0 200
2  36 8 0 0 200
2  37 11 0 0 200
0

0101000
-15 0 +23 0 *
Wi

0101000
-21 0 -46 0 +14 0 +13 0 *
Fa
0  1e-07 8 0

0111000
+12 0 *
Wi

0101000
-44 0 +18 0 +30 0 *
Fa
0  1e-07 9 0

0101000
+10 0 *
Ed
 1e-07 1 1 0
1  20 0 0 200
2  38 10 0 0 200
2  39 11 0 0 200
0

0101000
-15 0 +32 0 *
Wi

0101000
-8 0 -14 0 +42 0 +29 0 *
Fa
0  1e-07 10 0

0111000
+7 0 *
Wi

0101000
-31 0 -8 0 +13 0 +22 0 *
Fa
0  1e-07 11 0

0111000
+5 0 *
Sh

0101100
+39 0 -27 0 -24 0 -19 0 -16 0 +11 0 -9 0 +6 0 -4 0 *
So

0100000
+3 0 *
Co

1100000
+2 0 *

+1 0 
0

