DBRep_DrawableShape

CASCADE Topology V1, (c) Matra-Datavision
Locations 34
1
              1               0               0               0 
              0 0.707106781186548 -0.707106781186547               0 
              0 0.707106781186547 0.707106781186548               0 
1
              1               0               0               0 
              0 0.707106781186548 -0.707106781186547               0 
              0 0.707106781186547 0.707106781186548               0 
2  1 1 2 1 0
1
              1               0               0            -200 
              0               1               0               0 
              0               0               1               0 
1
              1               0               0             100 
              0               1               0               0 
              0               0               1               0 
1
              1               0               0               0 
              0               1               0              75 
              0               0               1               0 
2  4 1 5 1 6 1 0
1
              1               0               0             200 
              0               1               0               0 
              0               0               1               0 
2  4 1 5 1 6 1 8 1 0
2  5 -1 4 -1 0
2  8 -1 6 -1 5 -1 4 -1 0
2  6 -1 5 -1 4 -1 0
2  6 1 8 1 0
1
              1               0               0            -200 
              0               1               0               0 
              0               0               1               0 
1
              1               0               0             100 
              0               1               0               0 
              0               0               1               0 
2  14 1 15 1 6 1 0
1
              1               0               0            -200 
              0               1               0               0 
              0               0               1               0 
2  17 -1 0
1
              1               0               0            -200 
              0               1               0               0 
              0               0               1               0 
2  19 -1 0
1
              1               0               0            -200 
              0               1               0               0 
              0               0               1               0 
2  21 -1 0
2  14 -1 0
2  15 -1 14 -1 0
1
              1               0               0             200 
              0               1               0               0 
              0               0               1               0 
2  25 -1 15 -1 14 -1 0
2  6 -1 15 -1 14 -1 0
2  8 -1 6 -1 15 -1 14 -1 0
2  4 1 5 1 15 -1 14 -1 0
2  14 1 15 1 6 1 8 1 0
2  4 -1 0
2  5 -1 0
2  4 1 5 1 0
2  14 1 15 1 0
Curve2ds 17
1 1.5707963267949001 0 0 -1 
7 0 0  1 2 2  -100 50  -100 -50 
 307.10823440551798 2 407.10823440551798 2
1 4.7123889624020299 0 0 -1 
1 0 0 1 0 
1 0 -200 1 0 
1 0 0 1 0 
1 0 -200 1 0 
1 0 0 1 0 
1 0 -200 1 0 
1 0 0 1 0 
1 0 -200 1 0 
7 0 0  10 38 5  -99.489311294435893 70.461943731774198  -99.256169035323396 68.478307445082507  -99.058498095515702 66.382872240599895  -98.896870593291496 64.184941082935893  -98.772295776986397 61.891215576188301  -98.686220024865406 59.505795964091199  -98.640526845346599 57.0301811297794  -98.637536876689197 54.463268596089101  -98.680007887345198 51.801354525249998  -98.771134775636 49.038133719133697  -99.057964364357602 43.291265519070798  -99.276153899990106 40.354017848244702  -99.388971986271898 36.874904377871999  -100.13391348538001 34.814140059774701  -99.699399501164805 28.601121237112501  -101.208529430468 29.1043076124976  -100.848992348651 19.721153204647401  -101.933076478982 19.517005897693199  -102.757758540322 9.6346949148022993  -102.75775854032401 -9.6346949147994607  -101.93307647896999 -19.517005897632401  -100.848992348644 -19.721153204719901  -101.208529430583 -29.104307612513601  -99.699399500980107 -28.601121237001099  -100.133913485542 -34.814140059930899  -99.388971986188295 -36.8749043777418  -99.276153900011295 -40.354017848302497  -99.057964364349303 -43.291265519062598  -98.771134775635701 -49.038133719126897  -98.680007887325203 -51.801354525241997  -98.637536876714194 -54.463268596086102  -98.640526845292896 -57.030181129771101  -98.686220024914405 -59.505795964093501  -98.772295776933404 -61.891215576176897  -98.896870593316393 -64.184941082933094  -99.058498095499104 -66.382872240589904  -99.256169035323495 -68.478307445071806  -99.489311294433506 -70.461943731762403 
 1.5707963267949001 11 2.3561944856966801 9 3.1415926445984699 9 3.9269908035002499 9 4.7123889624020299 11
1 0 0 1 0 
1 0 -200 1 0 
1 0 0 1 0 
1 0 -200 1 0 
7 0 0  1 2 2  -100 -49.9999993256504  -100 49.9999993256504 
 1.2789769243681801e-13 2 99.999998651300899 2
Curves 8
1 -100 75 75 1 0 0 
1 -100 -25 75 1 0 0 
1 0 307.10823440551798 75.000000000000199 0 -1 -4.28626379701574e-16 
1 -100 74.9999986513008 -75 1 0 0 
2 0 0 0 1 0 0 -0 1 0 0 -0 1 75
1 -100 -25 -75 1 0 0 
1 0 -100 75 0 1.22464679914735e-16 -1 
1 0 -100 -75 0 1 3.0616169978683802e-16 
Polygon3D 0
PolygonOnTriangulations 23
2 1 2 
p 20.00000002 1 0 200 
2 1 2 
p 24.000000004 1 0 200 
2 3 4 
p 20.00000002 1 0 200 
2 1 2 
p 24.000000004 1 0 200 
2 1 2 
p 16.2358830243859 1 307.108234405518 407.108234405518 
2 2 4 
p 20.00000002 1 307.108234405518 407.108234405518 
2 1 3 
p 20.00000002 1 307.108234405518 407.108234405518 
2 3 4 
p 20.00000002 1 0 200 
2 1 2 
p 24.2000000032 1 0 200 
24 1 4 5 6 7 8 9 10 11 12 13 14 15 16 17 18 19 20 21 22 23 24 25 3 
p 16.2358830243859 1 1.5707963267949 1.70738731095173 1.84397829510856 1.98056927926539 2.11716026342222 2.25375124757906 2.39034223173589 2.52693321589272 2.66352420004955 2.80011518420638 2.93670616836322 3.07329715252005 3.20988813667688 3.34647912083371 3.48307010499054 3.61966108914738 3.75625207330421 3.89284305746104 4.02943404161787 4.16602502577471 4.30261600993154 4.43920699408837 4.5757979782452 4.71238896240203 
24 1 5 6 7 8 9 10 11 12 13 14 15 16 17 18 19 20 21 22 23 24 25 26 3 
p 20.00000002 1 1.5707963267949 1.70738731095173 1.84397829510856 1.98056927926539 2.11716026342222 2.25375124757906 2.39034223173589 2.52693321589272 2.66352420004955 2.80011518420638 2.93670616836322 3.07329715252005 3.20988813667688 3.34647912083371 3.48307010499054 3.61966108914738 3.75625207330421 3.89284305746104 4.02943404161787 4.16602502577471 4.30261600993154 4.43920699408837 4.5757979782452 4.71238896240203 
24 2 27 28 29 30 31 32 33 34 35 36 37 38 39 40 41 42 43 44 45 46 47 48 4 
p 20.00000002 1 1.5707963267949 1.70738731095173 1.84397829510856 1.98056927926539 2.11716026342222 2.25375124757906 2.39034223173589 2.52693321589272 2.66352420004955 2.80011518420638 2.93670616836322 3.07329715252005 3.20988813667688 3.34647912083371 3.48307010499054 3.61966108914738 3.75625207330421 3.89284305746104 4.02943404161787 4.16602502577471 4.30261600993154 4.43920699408837 4.5757979782452 4.71238896240203 
2 3 4 
p 20.00000002 1 0 200 
2 3 4 
p 24.2000000032 1 0 200 
2 2 4 
p 20.00000002 1 0 150 
2 1 3 
p 20.00000002 1 0 150 
2 2 26 
p 19.000000004 1 0 150 
2 2 26 
p 19.000000004 1 0 150 
2 2 4 
p 20.00000002 1 0 150 
2 1 3 
p 20.00000002 1 0 150 
2 26 3 
p 16.2358830243859 1 1.27897692436818e-13 99.9999986513009 
2 3 1 
p 20.00000002 1 1.27897692436818e-13 99.9999986513009 
2 4 2 
p 20.00000002 1 1.27897692436818e-13 99.9999986513009 
Surfaces 13
1 -100 75 75 0 4.28626379701574e-16 -1 0 -1 -4.28626379701574e-16 -1 0 -0 
2 -100 75 0 -1 0 0 0 1 0 -0 -0 1 75
9 0 0 0 0 3 3 4 4 2 2 -110 -105 74.999999999999503  -110 -68.3333333333333 75.000000000000199  -110 -31.6666666666667 75  -110 5.0000000000000098 75.000000000000099  
-36.6666666666667 -105 75.000000000003496  -36.6666666666666 -68.3333333333333 75.000000000004704  -36.6666666666667 -31.6666666666667 75.000000000000597  -36.6666666666667 4.9999999999999902 75.000000000000199  
36.6666666666667 -105 75.000000000000099  36.6666666666667 -68.3333333333333 74.999999999999503  36.6666666666667 -31.6666666666667 75.000000000000099  36.6666666666667 5 75.000000000000099  
110 -105 75.000000000000099  110 -68.3333333333333 74.999999999999503  110 -31.6666666666667 75.000000000000099  110 5.0000000000000098 75  

-110 4
110 4

-55 4
55 4

2 0 0 0 1 0 0 -0 1 0 0 -0 1 75
2 0 0 0 1 0 0 -0 1 0 0 -0 1 75
2 0 0 0 1 0 0 -0 1 0 0 -0 1 75
2 0 0 0 1 0 0 -0 1 0 0 -0 1 75
9 0 0 0 0 8 8 16 16 3 3 -111.671286457419 44.922626227378302 -69.600628314330706  -113.502383116632 6.8457483331244102 -77.415621435680507  -115.225474628911 -24.654923377154699 -80.779414514705294  -115.115131267408 -45.893013248158297 -65.246307629608197  -114.551688263643 -63.199934146822002 -46.902213099687501  -113.52445041891301 -70.4462179968165 -26.144593670886401  -111.299167736765 -71.425036584669201 -12.9436832048357  -110.526248469278 -72.634263311247494 -6.6442148189517596  -110.53135077218801 -72.648206716063399 6.8312724879856201  -111.292202161834 -71.414397230660597 12.9873646243508  -113.618458777721 -70.663182017896702 27.165078876569201  -114.41139338919599 -62.905633205700397 45.619187390637897  -115.368874854712 -46.452217794133702 67.716108409139906  -115.124770347316 -24.453006180962099 79.9046656729994  -113.58029566287701 6.7124992801568801 78.005219158547902  -111.948307568145 44.355985707453897 72.172923543270997  
-97.619330002178401 40.064413944837 -70.371455705456498  -99.376526591166694 2.1545130029044701 -78.357092626690999  -101.367222863969 -29.801042057958401 -84.683172535385495  -100.536104133512 -49.2260244689109 -61.939374712927702  -100.428766512067 -68.325324635426895 -49.068953880866403  -99.314474035519893 -74.660849491184194 -23.863464942819601  -96.743011258401495 -74.591306920335995 -11.0920891931729  -95.923572061617605 -75.5272784276343 -5.8290706481336096  -95.919947880503102 -75.519737161543503 5.6701812552714497  -96.688637892813304 -74.474210826407003 10.492427231560599  -99.507770742693907 -75.079291421394302 25.638822698162599  -100.002961454372 -67.426334453742399 45.045799805148697  -101.00571547946799 -50.227587895904797 66.2591704219777  -101.064637013788 -29.193979111376098 82.000089968685202  -99.324340630953898 2.2754153215707702 77.749962353284502  -97.757719810289302 39.7469509715866 71.718783047734902  
-83.477180355132703 36.030941384082702 -69.7159632951129  -84.991227405814797 -1.5029400899076 -76.666041168373695  -87.423004152687398 -34.429537616221602 -87.870105648760898  -85.284889497786395 -50.267197032121103 -53.0070756919947  -86.735362674295104 -74.582303845293495 -57.562659096016802  -84.985822027516406 -78.140100421378094 -20.331399116142101  -82.484203467877094 -78.550173875965996 -11.5594373028107  -81.690924090657106 -79.461899100454204 -5.7888477107795397  -81.684284931949705 -79.440337720392293 5.5739275683277496  -82.289638614641703 -78.121441677349907 9.6847201461080399  -85.737522956720696 -79.7150893543282 27.062280457718099  -85.187030585747607 -71.291451902263901 43.539088117932302  -86.905238813619704 -53.6597972820744 67.3946823678952  -86.522904530192207 -32.544874645285198 79.996238907944999  -84.858448038188101 -1.1961899681696899 75.343327849981307  -83.531467932221403 35.872227858944697 70.384137878828298  
-69.926988623811397 31.823237843451199 -73.417425628691504  -71.407072245092294 -5.6905233776004396 -81.345635965065597  -70.271429353706196 -31.557381854496601 -60.595055563931197  -74.803374677538798 -65.140537788587693 -94.7776771143525  -69.966094164485398 -67.185970613844404 -23.3923948291405  -69.953266977142306 -80.537352621978101 -38.790987713493202  -68.955066480543493 -84.007278109077902 -18.346839477490001  -68.148248782054793 -85.399470582291201 -9.6204991721292696  -68.144534374372 -85.374956370748095 9.5923004645311103  -69.308630023457496 -84.721721456566002 21.5327557560692  -68.416181498084001 -77.252030196562501 25.030479373218402  -72.950149207644003 -73.3814762811637 49.882282229093697  -71.596253706872304 -58.403624839501397 66.4671154535298  -71.886671892258903 -34.816375005590402 74.4445997439704  -71.529757683701902 -5.9362477324503304 82.388832050581001  -70.045110397158894 31.492168911509602 74.824267772904506  
-55.731476463314699 29.297803883872199 -71.385591097097702  -56.5670927965757 -7.3710060780810798 -75.6888557540574  -59.135568773017297 -40.993540134368203 -92.141443573977497  -55.410278086941702 -53.616580645694498 -42.9480723344981  -58.544676092092999 -80.229921319036606 -73.137546989226706  -56.169248909209401 -83.523844953266305 -26.086322277426  -54.925589368946902 -87.841065717052302 -21.888320237179801  -54.577432163545097 -90.404052953396501 -10.408616618878501  -54.575920958534702 -90.372615968687498 10.590833583614399  -54.591969202803902 -87.082365452622199 19.0661935405784  -57.565272321287402 -86.371856479220398 38.580774337230302  -55.762197714910499 -74.315688835044199 48.3674525604305  -58.390825825564797 -59.6988043181736 68.981924206607502  -57.447560066996601 -37.427236659927701 77.034544142564101  -56.4112912648392 -6.99965371121794 74.036189288583401  -55.739160224594997 29.182648362656 71.788421721373496  
-41.932653102990699 26.859322472872101 -72.884538653843094  -42.774416310710201 -9.97958449360417 -79.143668910603694  -42.334774536331302 -37.598172157416002 -68.795871287630007  -44.369515639030801 -64.835239932536794 -80.9941321316455  -42.056238856749601 -74.772395358965696 -42.180783324308997  -41.991886883035399 -86.509805162915001 -42.174634214914001  -41.3222910477242 -91.640231266742305 -24.3580327655072  -40.900043789410098 -94.068122561342904 -12.318341777880301  -40.8976042507309 -94.023666469563693 12.6450901217072  -41.485378882649897 -91.9052509894872 26.077528717505398  -41.2655227229803 -84.873536951260107 35.810199673868397  -43.467621319747799 -77.567190721778402 54.54537847708  -42.773920912929903 -61.376055330671697 66.624127202607895  -43.146284895101601 -39.116700892227897 75.426311822681498  -42.8146765318699 -10.0077719768408 79.279677867196895  -41.9836771486491 26.638056918801201 73.779079748115507  
-27.925822427355801 25.476813341707999 -72.593192365041901  -28.3982869722225 -11.037580896772999 -77.685359605577304  -28.951093026508001 -40.965212939869197 -78.548813970262003  -28.526894719727601 -62.238868578308498 -65.706326601154501  -28.694745117212701 -79.149291987758204 -57.9234952100946  -28.007133056532499 -88.329040414701495 -39.118004548679799  -27.527489329679 -94.090061686965001 -26.5234559695513  -27.321346117708 -97.032463455720602 -13.0473482855997  -27.3200820316932 -96.981136423208 13.469653419583301  -27.484958687181798 -93.904467505258495 26.471789559621499  -28.171226027056498 -88.527722562535104 40.666931068302901  -28.348524220176799 -78.247374572544999 54.667227842581099  -28.876841255368799 -62.759718995635097 68.308848206801699  -28.7148232059408 -40.299611980865102 75.866938626711303  -28.370183793420502 -10.9030769873971 77.101692647376197  -27.943099123649599 25.308278556076601 73.231886847505294  
-13.966683040003399 24.731677705108201 -72.721608817926096  -14.2139954721063 -11.7398354395756 -77.904594263384993  -14.378217971179 -41.137288459805902 -76.632991960388097  -14.3996123643086 -63.574087682884901 -68.994683255042204  -14.2558570418781 -79.257977488647796 -56.0621631331015  -14.003674161379299 -89.314236893533305 -41.323719975002597  -13.7643588592643 -95.318593645414097 -27.382595705811202  -13.6532104699775 -98.342684834314099 -13.525792041593601  -13.652521036647601 -98.287101215779799 13.9974149678157  -13.7625344004433 -95.206996731343395 27.715732128800799  -14.001605477831999 -89.149091298118094 41.390682844487998  -14.250616253876 -79.038038549238294 55.7542871798018  -14.388139072227601 -63.310862117460999 68.289176418792394  -14.363397793761701 -40.8887537954229 75.754499973901801  -14.2066821054231 -11.630459238546299 77.440287178532898  -13.9772149826328 24.5607313115156 73.371322990635306  
13.966683039539999 24.731677705044 -72.721608818401094  14.2139954723716 -11.739835439417901 -77.904594264092495  14.378217971936699 -41.1372884595717 -76.632991960403103  14.3996123652413 -63.574087682651601 -68.994683253796794  14.2558570429164 -79.257977488394403 -56.062163130408997  14.003674162452899 -89.314236893118306 -41.323719971190798  13.7643588603819 -95.318593644884601 -27.382595701088999  13.6532104710091 -98.342684833668002 -13.5257920362797  13.652521037276101 -98.287101215057405 13.997414973159801  13.762534400756 -95.206996730615302 27.715732133673701  14.0016054776149 -89.149091297558599 41.390682848365003  14.250616253124999 -79.0380385488657 55.754287182084298  14.3881390710341 -63.310862117447897 68.289176419464297  14.363397792356 -40.888753795529801 75.754499973601597  14.206682104838499 -11.6304592385567 77.440287178489896  13.9772149835552 24.560731311671301 73.371322991160199  
27.925822426950401 25.4768133416087 -72.593192365130406  28.3982869724518 -11.0375808964617 -77.685359604535705  28.951093025961999 -40.965212942050499 -78.548813946585895  28.526894723603402 -62.238868570883497 -65.706326643268596  28.694745115137199 -79.149291994223006 -57.923495158875397  28.007133059080498 -88.329040410268703 -39.118004567487503  27.527489330443998 -94.0900616867211 -26.5234559509733  27.321346118807899 -97.0324634544357 -13.0473482746818  27.320082032479501 -96.981136421647093 13.469653430802399  27.484958688717199 -93.904467501682703 26.471789579291102  28.1712260225605 -88.527722567935697 40.666931043382597  28.348524227807999 -78.247374561325103 54.667227903263601  28.876841246651001 -62.759719004875798 68.308848162085994  28.714823208352801 -40.299611975679099 75.866938650432104  28.3701837930879 -10.9030769867712 77.101692649675897  27.943099124647102 25.3082785567203 73.231886849816206  
41.932653102748503 26.859322472161001 -72.884538656323699  42.774416311701003 -9.9795844939171996 -79.143668918221294  42.334774541050599 -37.5981721492509 -68.795871368529106  44.369515630500302 -64.835239953642002 -80.994131971789201  42.056238866776702 -74.772395335825394 -42.180783479770298  41.991886879883502 -86.509805173328203 -42.174634107985902  41.322291049677503 -91.640231262561102 -24.3580327840757  40.9000437905935 -94.0681225594642 -12.318341763000401  40.897604251693402 -94.023666467743297 12.645090135691399  41.485378878920102 -91.905250997308002 26.0775286935332  41.265522741264299 -84.873536918032798 35.810199813969298  43.467621287889301 -77.567190771521396 54.545378260997502  42.773920942230397 -61.376055284438998 66.624127398478805  43.146284879136303 -39.116700917550297 75.426311720321607  42.814676529455198 -10.0077719812344 79.279677849780498  41.983677148684102 26.638056917086299 73.779079740914099  
55.731476462186102 29.297803883384201 -71.385591088172703  56.567092795221598 -7.3710060777341804 -75.688855733543207  59.135568767405204 -40.993540144134698 -92.141443423408703  55.410278101013297 -53.616580615073303 -42.948072612353201  58.5446760800817 -80.229921348816106 -73.137546685418201  56.169248915502997 -83.523844936316806 -26.086322438214101  54.925589369025701 -87.841065719097401 -21.888320162729901  54.577432164829297 -90.404052951359304 -10.408616600277499  54.575920959987101 -90.372615965643007 10.590833604104199  54.591969211324702 -87.082365433774001 19.066193617366299  57.5652722943925 -86.371856528367502 38.580774150983402  55.762197763916902 -74.315688751740197 48.367452913902  58.390825778005301 -59.698804392167297 68.981923903965907  57.447560090000103 -37.4272366201116 77.034544303138006  56.411291268989601 -6.9996537032123296 74.036189319306303  55.739160228060797 29.182648367489499 71.788421740100802  
69.926988623923805 31.823237843572802 -73.417425644760499  71.407072246687704 -5.6905233765974597 -81.3456359945598  70.271429358949504 -31.5573818490676 -60.595055705226102  74.803374669337202 -65.140537800508199 -94.777676859984794  69.966094172348903 -67.185970600973107 -23.3923950759451  69.953266975134795 -80.537352626954799 -38.790987539346801  68.955066482220602 -84.007278104944206 -18.346839509302999  68.148248783450001 -85.399470579472293 -9.6204991493750303  68.144534376082106 -85.374956367685598 9.5923004861060903  69.308630020329502 -84.721721465615303 21.5327557324526  68.416181518585702 -77.252030154025803 25.0304795378492  72.950149175280899 -73.381476339740999 49.882281989038802  71.596253742607502 -58.403624781111603 66.467115693224599  71.886671870260599 -34.816375041384802 74.444599601329699  71.529757678196503 -5.9362477413919903 82.388832016312804  70.045110395224199 31.492168907560298 74.824267757343193  
83.477180354314001 36.0309413828939 -69.715963284598203  84.991227405533394 -1.5029400898586001 -76.666041153842698  87.423004151645102 -34.429537615530997 -87.870105586114605  85.284889498868594 -50.267197033711099 -53.007075773798803  86.735362673888304 -74.582303843064693 -57.562658978047999  84.985822027988206 -78.140100420489304 -20.331399169631201  82.484203468345996 -78.550173875504996 -11.5594372653402  81.690924091715402 -79.461899098669605 -5.78884769401437  81.684284933480697 -79.440337717585706 5.5739275859958797  82.289638617686506 -78.121441670187494 9.6847201781269607  85.737522953662094 -79.715089363743402 27.062280425985598  85.187030595025405 -71.291451882573597 43.539088204720997  86.905238807230106 -53.659797293897398 67.394682317842395  86.522904537177396 -32.544874633121402 79.9962389557666  84.858448039827493 -1.1961899653452699 75.343327859083104  83.531467934666495 35.872227862040901 70.384137890402997  
97.619330001592502 40.0644139439692 -70.371455703345205  99.376526591429794 2.15451300359131 -78.357092622816495  101.367222865434 -29.801042054258598 -84.683172529019004  100.53610413101001 -49.226024475164998 -61.939374712610601  100.428766514808 -68.325324628762004 -49.068953871997202  99.314474034192799 -74.660849494300706 -23.863464945093099  96.743011259009606 -74.591306919069297 -11.092089186092201  95.923572062051505 -75.527278426845101 -5.8290706412855302  95.919947881228396 -75.519737160300394 5.6701812625855004  96.688637893039697 -74.474210825390401 10.4924272337314  99.507770745091094 -75.079291419703296 25.638822712738101  100.002961450849 -67.426334456492597 45.045799786665597  101.005715484817 -50.2275878898052 66.259170452294299  101.064637012167 -29.1939791132673 82.000089959517297  99.324340631528401 2.2754153227104901 77.749962357781101  97.757719811878601 39.746950973653 71.718783056718806  
111.67128645659599 44.922626225570298 -69.600628327542395  113.502383116643 6.8457483328376396 -77.415621448640906  115.225474629678 -24.654923375708101 -80.779414528299597  115.115131266034 -45.893013251602397 -65.246307642622398  114.55168826422199 -63.199934145185601 -46.902213112474001  113.52445041781399 -70.446217999311003 -26.144593687591701  111.299167736147 -71.425036585677702 -12.943683216656201  110.526248468525 -72.6342633126104 -6.6442148304554403  110.531350771251 -72.648206717672593 6.8312724766539903  111.292202160456 -71.414397232794002 12.9873646098496  113.61845877715299 -70.663182019813505 27.165078867777599  114.411393385293 -62.905633211117497 45.619187363248898  115.36887485605401 -46.452217793022903 67.716108414444093  115.12477034349899 -24.453006186885599 79.904665648168105  113.580295661001 6.7124992774131398 78.005219147677593  111.948307567483 44.355985706074399 72.172923538995803  

-113.033534394355 9
6.4943606048473197e-12 7
113.033534394368 9

-82.731797152050603 9
-3.11217718262924e-12 7
82.731797152044393 9

2 -100 0 0 -1 0 0 0 1 0 -0 -0 1 75
1 -100 -25 75 0 1 1.22464679914735e-16 0 1.22464679914735e-16 -1 -1 0 0 
1 -100 -25 -75 0 -3.0616169978683802e-16 1 0 1 3.0616169978683802e-16 -1 0 0 
9 0 0 0 0 3 3 4 4 2 2 -110 -104.999999932565 -75.000000000000497  -110 -68.333333760421297 -74.999999999999602  -110 -31.666667588277999 -74.999999999999901  -110 4.9999985838663603 -74.999999999999503  
-36.6666666666667 -104.999999932565 -74.999999999996703  -36.6666666666667 -68.333333760421695 -74.999999999995296  -36.6666666666667 -31.6666675882825 -75.000000000003794  -36.6666666666667 4.9999985838622996 -75.000000000003496  
36.6666666666667 -104.999999932565 -75.000000000000199  36.6666666666667 -68.333333760421695 -75.000000000001293  36.6666666666667 -31.6666675882825 -75.000000000009706  36.6666666666667 4.9999985838623102 -75.000000000007006  
110 -104.999999932565 -74.999999999999901  110 -68.333333760421297 -75.000000000000099  110 -31.666667588277999 -75.000000000000497  110 4.9999985838663603 -74.999999999999005  

-110 4
110 4

-54.999999258215396 4
54.999999258215396 4

1 0 307.10823440551798 75.000000000000199 -1 0 0 0 1.22464679914735e-16 -1 -0 -1 -1.22464679914735e-16 
Triangulations 7
4 2 1 20.00000002
-100 75 75 100 75 75 -100 -25 75 100 -25 75 0 0 0 -200 100 0 100 -200 1 2 4 4 3 1 
48 46 1 21.000000016
-100 75 75 100 75 75 -100 74.9999986513008 -75 100 74.9999986513008 -75 -100 64.7875013758744 74.3014459607095 -100 54.7652422761524 72.2187965827262 -100 45.1199184228852 68.7908476829946 -100 36.031203947752 64.0814554628584 -100 27.6684044029811 58.1783469878636 -100 20.1873029192865 51.1914859985324 -100 13.7272582609289 43.2510244939597 -100 8.40860883564426 34.5048782463547 -100 4.33043101782181 25.1159714101039 -100 1.56869354313056 15.2592015530736 -100 0.174842354727971 5.1181816458767 -100 0.174842262689481 -5.11818030032155 -100 1.56869326872959 -15.2592002325836 -100 4.33043056616992 -25.1159701392773 -100 8.40860821515487 -34.5048770488646 -100 13.7272574831606 -43.251023392113 -100 20.1873019987276 -51.1914850128545 -100 27.6684033567798 -58.1783461367158 -100 36.0312027953972 -64.0814547620959 -100 45.1199171858431 -68.7908471456714 -100 54.7652409774666 -72.2187962188515 -100 64.7875000397372 -74.3014457770616 100 64.7875013758744 74.3014459607095 100 54.7652422761524 72.2187965827262 100 45.1199184228852 68.7908476829946 100 36.031203947752 64.0814554628584 100 27.6684044029811 58.1783469878636 100 20.1873029192865 51.1914859985324 100 13.7272582609289 43.2510244939597 100 8.40860883564426 34.5048782463547 100 4.33043101782181 25.1159714101039 100 1.56869354313056 15.2592015530736 100 0.174842354727971 5.1181816458767 100 0.174842262689481 -5.11818030032155 100 1.56869326872959 -15.2592002325836 100 4.33043056616992 -25.1159701392773 100 8.40860821515487 -34.5048770488646 100 13.7272574831606 -43.251023392113 100 20.1873019987276 -51.1914850128545 100 27.6684033567798 -58.1783461367158 100 36.0312027953972 -64.0814547620959 100 45.1199171858431 -68.7908471456714 100 54.7652409774666 -72.2187962188515 100 64.7875000397372 -74.3014457770616 1.5707963267949 0 1.5707963267949 -200 4.71238896240203 0 4.71238896240203 -200 1.70738731095173 0 1.84397829510856 0 1.98056927926539 0 2.11716026342222 0 2.25375124757906 0 2.39034223173589 0 2.52693321589272 0 2.66352420004955 0 2.80011518420638 0 2.93670616836322 0 3.07329715252005 0 3.20988813667688 0 3.34647912083371 0 3.48307010499054 0 3.61966108914738 0 3.75625207330421 0 3.89284305746104 0 4.02943404161787 0 4.16602502577471 0 4.30261600993154 0 4.43920699408837 0 4.5757979782452 0 1.70738731095173 -200 1.84397829510856 -200 1.98056927926539 -200 2.11716026342222 -200 2.25375124757906 -200 2.39034223173589 -200 2.52693321589272 -200 2.66352420004955 -200 2.80011518420638 -200 2.93670616836322 -200 3.07329715252005 -200 3.20988813667688 -200 3.34647912083371 -200 3.48307010499054 -200 3.61966108914738 -200 3.75625207330421 -200 3.89284305746104 -200 4.02943404161787 -200 4.16602502577471 -200 4.30261600993154 -200 4.43920699408837 -200 4.5757979782452 -200 2 27 5 27 28 6 29 30 8 30 31 9 28 29 7 32 33 11 33 34 12 35 36 14 36 37 15 34 35 13 31 32 10 5 1 2 6 5 27 8 7 29 9 8 30 6 28 7 11 10 32 12 11 33 14 13 35 15 14 36 12 34 13 9 31 10 37 38 15 38 39 17 39 40 18 41 42 20 42 43 21 40 41 19 44 45 23 45 46 24 47 48 26 48 4 3 46 47 25 43 44 22 17 16 38 18 17 39 20 19 41 21 20 42 18 40 19 23 22 44 24 23 45 26 25 47 3 26 48 24 46 25 21 43 22 38 16 15 
4 2 1 21.000000016
-100 -25 75 100 -25 75 -100 -25 -75 100 -25 -75 0 0 0 -200 150 0 150 -200 1 2 4 4 3 1 
26 24 1 16.9269122692894
-100 0 75 -100 -100 75 -100 -1.34869918611003e-06 -75 -100 -10.2124986241256 74.3014459607095 -100 -20.2347577238476 72.2187965827262 -100 -29.8800815771148 68.7908476829946 -100 -38.968796052248 64.0814554628584 -100 -47.3315955970189 58.1783469878636 -100 -54.8126970807135 51.1914859985324 -100 -61.2727417390711 43.2510244939597 -100 -66.5913911643557 34.5048782463547 -100 -70.6695689821782 25.1159714101039 -100 -73.4313064568694 15.2592015530736 -100 -74.825157645272 5.1181816458767 -100 -74.8251577373105 -5.11818030032155 -100 -73.4313067312704 -15.2592002325836 -100 -70.6695694338301 -25.1159701392773 -100 -66.5913917848451 -34.5048770488646 -100 -61.2727425168394 -43.251023392113 -100 -54.8126980012724 -51.1914850128545 -100 -47.3315966432202 -58.1783461367158 -100 -38.9687972046028 -64.0814547620959 -100 -29.8800828141569 -68.7908471456714 -100 -20.2347590225334 -72.2187962188515 -100 -10.2124999602628 -74.3014457770616 -100 -100 -75 8.5265128291212e-14 307.108234405518 9.9475983006414e-14 407.108234405518 150 307.108235754217 0.698554039290613 317.320733029643 2.78120341727389 327.342992129365 6.20915231700549 336.988315982632 10.9185445371417 346.077030457766 16.8216530121365 354.439830002537 23.8085140014677 361.920931486231 31.7489755060404 368.380976144589 40.4951217536454 373.699625569873 49.8840285898962 377.777803387696 59.7407984469265 380.539540862387 69.8818183541234 381.93339205079 80.1181803003217 381.933392142828 90.2592002325837 380.539541136788 100.115970139277 377.777803839348 109.504877048865 373.699626190363 118.251023392113 368.380976922357 126.191485012855 361.92093240679 133.178346136716 354.439831048738 139.081454762096 346.07703161012 143.790847145671 336.988317219675 147.218796218852 327.342993428051 149.301445777062 317.32073436578 150 407.108234405518 4 5 2 1 4 2 7 8 2 6 7 2 5 6 2 2 9 10 9 2 8 2 10 11 11 12 2 13 14 2 12 13 2 2 14 15 22 23 26 21 22 26 25 3 26 24 25 26 23 24 26 16 17 26 15 16 26 19 20 26 18 26 17 26 18 19 20 21 26 15 26 2 
4 2 1 22.1000000116
-100 74.9999986513008 -75 100 74.9999986513008 -75 -100 -25 -75 100 -25 -75 99.9999986513008 0 99.9999986513008 -200 0 0 0 -200 3 4 2 2 1 3 
4 2 1 20.00000002
0 -100 75 -200 -100 75 0 -100 -75 -200 -100 -75 0 0 0 -200 150 0 150 -200 1 2 4 4 3 1 
26 24 1 16.9269122692894
100 0 75 100 -100 75 100 -1.34869918611003e-06 -75 100 -10.2124986241256 74.3014459607095 100 -20.2347577238476 72.2187965827262 100 -29.8800815771148 68.7908476829946 100 -38.968796052248 64.0814554628584 100 -47.3315955970189 58.1783469878636 100 -54.8126970807135 51.1914859985324 100 -61.2727417390711 43.2510244939597 100 -66.5913911643557 34.5048782463547 100 -70.6695689821782 25.1159714101039 100 -73.4313064568694 15.2592015530736 100 -74.825157645272 5.1181816458767 100 -74.8251577373105 -5.11818030032155 100 -73.4313067312704 -15.2592002325836 100 -70.6695694338301 -25.1159701392773 100 -66.5913917848451 -34.5048770488646 100 -61.2727425168394 -43.251023392113 100 -54.8126980012724 -51.1914850128545 100 -47.3315966432202 -58.1783461367158 100 -38.9687972046028 -64.0814547620959 100 -29.8800828141569 -68.7908471456714 100 -20.2347590225334 -72.2187962188515 100 -10.2124999602628 -74.3014457770616 100 -100 -75 8.5265128291212e-14 307.108234405518 9.9475983006414e-14 407.108234405518 150 307.108235754217 0.698554039290613 317.320733029643 2.78120341727389 327.342992129365 6.20915231700549 336.988315982632 10.9185445371417 346.077030457766 16.8216530121365 354.439830002537 23.8085140014677 361.920931486231 31.7489755060404 368.380976144589 40.4951217536454 373.699625569873 49.8840285898962 377.777803387696 59.7407984469265 380.539540862387 69.8818183541234 381.93339205079 80.1181803003217 381.933392142828 90.2592002325837 380.539541136788 100.115970139277 377.777803839348 109.504877048865 373.699626190363 118.251023392113 368.380976922357 126.191485012855 361.92093240679 133.178346136716 354.439831048738 139.081454762096 346.07703161012 143.790847145671 336.988317219675 147.218796218852 327.342993428051 149.301445777062 317.32073436578 150 407.108234405518 4 5 2 1 4 2 7 8 2 6 7 2 5 6 2 2 9 10 9 2 8 2 10 11 11 12 2 13 14 2 12 13 2 2 14 15 22 23 26 21 22 26 25 3 26 24 25 26 23 24 26 16 17 26 15 16 26 19 20 26 18 26 17 26 18 19 20 21 26 15 26 2 

TShapes 24
Ve
1e-07
0 0 75
0 0

0101101
*
Ed
 1e-07 1 1 0
1  1 0 0 200
2  1 2 0 0 200
6  1 1 0
6  2 2 0
0

0101000
+24 7 -24 9 *
Ve
1e-07
0 -100 75
0 0

0101101
*
Ed
 1e-07 1 1 0
1  2 0 0 200
6  3 1 0
6  4 3 0
0

0101000
+22 7 -22 9 *
Ed
 1e-07 1 1 0
1  3 0 307.108234405518 407.108234405518
2  2 3 10 307.108234405518 407.108234405518
6  5 4 10
6  6 1 11
6  7 1 12
0

0101000
+24 0 -22 0 *
Wi

0101000
+23 0 -21 0 -20 7 +20 9 *
Fa
0  1e-07 1 0
2  1
0111000
+19 0 *
Ve
1e-07
-100 -1.34869918611003e-06 -75
0 0

0101101
*
Ed
 1e-07 1 1 0
1  4 0 0 200
2  3 2 0 0 200
6  8 2 0
6  9 5 0
0

0101000
+17 6 -17 13 *
Ed
 1e-07 1 1 0
1  5 0 1.5707963267949 4.71238896240203
2  4 4 0 1.5707963267949 4.71238896240203
2  5 4 18 1.5707963267949 4.71238896240203
2  6 5 0 1.5707963267949 4.71238896240203
2  7 5 20 1.5707963267949 4.71238896240203
2  8 6 0 1.5707963267949 4.71238896240203
2  9 6 22 1.5707963267949 4.71238896240203
2  10 7 0 1.5707963267949 4.71238896240203
2  11 7 23 1.5707963267949 4.71238896240203
2  12 8 24 1.5707963267949 4.71238896240203
2  13 9 24 1.5707963267949 4.71238896240203
2  14 9 26 1.5707963267949 4.71238896240203
2  15 2 27 1.5707963267949 4.71238896240203
2  16 2 28 1.5707963267949 4.71238896240203
6  10 4 24
6  11 2 27
6  12 2 28
0

0101000
+24 29 -17 24 *
Wi

0101000
+23 0 -16 0 -15 16 +15 30 *
Fa
0  1e-07 2 0
2  2
0111000
+14 0 *
Ve
1e-07
0 -100 -75
0 0

0101101
*
Ed
 1e-07 1 1 0
1  6 0 0 200
6  13 3 0
6  14 5 0
0

0101000
+12 7 -12 9 *
Ed
 1e-07 1 1 0
1  7 0 0 150
6  15 6 31
6  16 6 0
6  17 4 10
6  18 7 32
6  19 3 11
6  20 3 12
0

0101000
+22 0 -12 0 *
Wi

0101000
+21 0 -11 0 -10 7 +10 9 *
Fa
0  1e-07 10 0
2  3
0111000
+9 0 *
Ed
 1e-07 1 1 0
1  8 0 1.27897692436818e-13 99.9999986513009
2  17 12 10 1.27897692436818e-13 99.9999986513009
6  21 4 10
6  22 5 12
6  23 5 11
0

0101000
-17 10 +12 0 *
Wi

0101000
-16 0 +11 0 -7 7 +7 9 *
Fa
0  1e-07 11 0
2  5
0111000
+6 0 *
Wi

0101100
-20 33 +15 34 -10 33 -7 33 *
Fa
0  1e-07 13 33
2  4
0111000
+4 0 *
Sh

0101000
-18 0 +13 0 -8 0 -5 0 +3 6 -3 13 *
So

0100000
+2 0 *

+1 3 
0

