DBRep_DrawableShape

CASCADE Topology V1, (c) Matra-Datavision
Locations 0
Curve2ds 35
6 0 1 109.05204772949219 -96.567230224609375  61.730598449711977 -96.567230224609375  
6 0 1 109.05204772949219 -13.805576324462891  109.05204772949219 -96.567230224605893  
6 0 1 61.730598449707031 -13.805576324462891  109.05204772948724 -13.805576324462891  
6 0 1 61.730598449707031 -96.567230224609375  61.730598449707031 -13.805576324466372  
6 0 1 18.519180297851562 12.999435424804688  18.519180297851562 -37.760261535651551  
6 0 1 -20.062444686889648 12.999435424804688  18.519180297845182 12.999435424804688  
6 0 1 -20.062444686889648 -37.760261535644531  -20.062444686889648 12.999435424811708  
6 0 1 18.519180297851562 -37.760261535644531  -20.062444686883268 -37.760261535644531  
6 0 11 2.1453061549436825e-11 -1.1070255823142361e-11  3.6809241037830081 0.26445327125638846  7.4449281336623585 -0.6274899766208184  10.888357464352298 -2.7048294271873008  13.596149140899735 -5.8380529925957205  15.213056085076161 -9.7340055860824126  15.51725056779628 -13.968087465091996  14.473878581816312 -18.055165831809941  12.241792827679578 -21.54329123961713  9.130685214981817 -24.091536551699473  5.532842085884095 -25.512386266759457  1.851917982121098 -25.77683953800689  
6 0 11 1.851917982079986 -25.77683953800986  -1.829006121681569 -26.041292809277319  -5.593010151560919 -25.149349561400111  -9.0364394822508576 -23.072010110833627  -11.744231158798293 -19.938786545425206  -13.361138102974717 -16.042833951938512  -13.665332585694832 -11.808752072928929  -12.621960599714861 -7.7216737062109813  -10.389874845578126 -4.2335482984037895  -7.2787672328803614 -1.6853029863214433  -3.6809241037826363 -0.26445327126145579  -1.9636736681150069e-11 -1.4016787730497526e-11  
6 0 1 91.052635192871094 105.54302978515625  91.052635192871094 17.332578659064538  
6 0 1 31.791257858276367 105.54302978515625  91.052635192872614 105.54302978515625  
6 0 1 31.791257858276367 17.332578659057617  31.791257858276367 105.54302978514933  
6 0 1 91.052635192871094 17.332578659057617  31.791257858274847 17.332578659057617  
6 0 1 61.730598449707031 154.75518798828125  61.730598449707031 69.949340820302126  
6 0 1 -75.002677917480469 154.75518798828125  61.730598449704218 154.75518798828125  
6 0 1 -75.002677917480469 69.9493408203125  -75.002677917480469 154.75518798829162  
6 0 1 -75.002677917480469 69.9493408203125  61.730598449704218 69.9493408203125  
6 0 1 -75.002677917480469 69.9493408203125  61.730598449704218 69.9493408203125  
6 0 1 61.730598449707031 69.9493408203125  61.730598449707031 -96.5672302246154  
6 0 1 -75.002677917480469 -96.567230224609375  -75.002677917480469 69.949340820318525  
7 0 0  1 2 2  -74.076721191406193 -96.567230224609375  -75.002677917477669 -96.567230224609375 
 0 2 1 2
6 0 1 -74.07672119140625 -96.567230224609375  61.73059844971732 -96.567230224609375  
7 0 0  7 8 2  -73.157035037366185 -96.567230224609375  -53.755989374348431 -96.567230224609517  -40.31419906198655 -96.56723022460848  -8.454953405978026 -96.567230224611095  -1.7693440071102058 -96.567230224607812  24.566839794063114 -96.567230224610199  42.329552786689433 -96.56723022460919  61.730598449707017 -96.567230224609375 
 0 8 1 8
6 0 11 12.654772758531093 26.617889404234084  23.815243743728765 22.187063909397445  33.583728173644104 14.250073470068706  40.736356019077363 3.292809525612439  44.240002952224607 -9.7182041844845575  43.468260431580255 -23.421504533612335  38.371584323074003 -36.259136233567247  29.533941779616093 -46.760188621334805  18.060002329177159 -53.824941489209607  5.3394360212082059 -56.892336320057723  -7.2130183400776424 -55.967677031816763  -18.373489325251221 -51.536851536919428  
6 0 11 -18.373489325375843 -51.536851536869911  -29.533960310573512 -47.106026042033271  -39.302444740488852 -39.169035602704533  -46.45507258592211 -28.211771658248264  -49.958719519069348 -15.200757948151265  -49.186976998424996 -1.4974575990234875  -44.090300889918737 11.340174100931424  -35.252658346460827 21.841226488698986  -23.778718896021893 28.905979356573788  -11.058152588052939 31.973374187421904  1.4943017732329089 31.048714899180947  12.654772758406491 26.617889404283616  
6 0 1 23.766281127929688 -54.473823547363281  49.075828552242257 -54.473823547363281  
6 0 1 49.075828552246094 -54.473823547363281  49.075828552246094 -84.49632263184435  
6 0 1 49.075828552246094 -84.496322631835938  23.766281127933521 -84.496322631835938  
6 0 1 23.766281127929688 -84.496322631835938  23.766281127929688 -54.473823547354868  
6 0 1 -74.07672119140625 -163.11195373535156  -74.07672119140625 -96.567230224609645  
6 0 1 61.730598449707031 -163.11195373535156  -74.076721191416539 -163.11195373535156  
6 0 1 61.730598449707031 -96.567230224609375  61.730598449707031 -163.11195373535128  
6 0 11 29.630687713584678 -116.68540191647988  27.872924700106527 -110.8424194738402  23.484280997225305 -105.79089415380204  16.657516343489529 -102.17157407087227  7.9460284399411254 -100.51675020605607  -1.7701273600295551 -101.13718609380979  -11.402952685328987 -104.03505960935928  -19.848737302083684 -108.8783380886031  -26.20127033611724 -115.06491933907964  -29.898026794917314 -121.85006378739574  -30.7711449715128 -128.48450168819218  -29.013381957989111 -134.32748413081816  
6 0 11 29.630687713600853 -116.68540191655724  30.864904808647758 -124.64212178777021  29.819576732594719 -132.95243525580108  26.382147405660685 -140.89071170056718  20.699913165709408 -147.69097946663803  13.196560631037118 -152.6534025386687  4.5377781808495961 -155.25823636341329  -4.4580995309485587 -155.25935504920878  -12.949140551519298 -152.72286363674203  -20.195841945610752 -147.99873401520392  -25.652750131184021 -141.64450785582744  -29.013381949687201 -134.32748411505059  
Curves 33
6 0 1 96.567230224609375 109.05204772949219 0  96.567230224609375 61.730598449711977 0  
6 0 1 13.805576324462891 109.05204772949219 0  96.567230224605893 109.05204772949219 0  
6 0 1 13.805576324462891 61.730598449707031 0  13.805576324462891 109.05204772948724 0  
6 0 1 96.567230224609375 61.730598449707031 0  13.805576324466372 61.730598449707031 0  
6 0 1 -12.999435424804688 18.519180297851562 0  37.760261535651551 18.519180297851562 0  
6 0 1 -12.999435424804688 -20.062444686889648 0  -12.999435424804688 18.519180297845182 0  
6 0 1 37.760261535644531 -20.062444686889648 0  -12.999435424811708 -20.062444686889648 0  
6 0 1 37.760261535644531 18.519180297851562 0  37.760261535644531 -20.062444686883268 0  
6 0 11 1.1070255823142361e-11 2.1453061549436825e-11 0  -0.26445327125638846 3.6809241037830081 0  0.6274899766208184 7.4449281336623585 0  2.7048294271873008 10.888357464352298 0  5.8380529925957205 13.596149140899735 0  9.7340055860824126 15.213056085076161 0  13.968087465091996 15.51725056779628 0  18.055165831809941 14.473878581816312 0  21.54329123961713 12.241792827679578 0  24.091536551699473 9.130685214981817 0  25.512386266759457 5.532842085884095 0  25.77683953800689 1.851917982121098 0  
6 0 11 25.77683953800986 1.851917982079986 0  26.041292809277319 -1.829006121681569 0  25.149349561400111 -5.593010151560919 0  23.072010110833627 -9.0364394822508576 0  19.938786545425206 -11.744231158798293 0  16.042833951938512 -13.361138102974717 0  11.808752072928929 -13.665332585694832 0  7.7216737062109813 -12.621960599714861 0  4.2335482984037895 -10.389874845578126 0  1.6853029863214433 -7.2787672328803614 0  0.26445327126145579 -3.6809241037826363 0  1.4016787730497526e-11 -1.9636736681150069e-11 0  
6 0 1 -105.54302978515625 91.052635192871094 0  -17.332578659064538 91.052635192871094 0  
6 0 1 -105.54302978515625 31.791257858276367 0  -105.54302978515625 91.052635192872614 0  
6 0 1 -17.332578659057617 31.791257858276367 0  -105.54302978514933 31.791257858276367 0  
6 0 1 -17.332578659057617 91.052635192871094 0  -17.332578659057617 31.791257858274847 0  
6 0 1 -154.75518798828125 61.730598449707031 0  -69.949340820302126 61.730598449707031 0  
6 0 1 -154.75518798828125 -75.002677917480469 0  -154.75518798828125 61.730598449704218 0  
6 0 1 -69.9493408203125 -75.002677917480469 0  -154.75518798829162 -75.002677917480469 0  
6 0 1 -69.9493408203125 -75.002677917480469 0  -69.9493408203125 61.730598449704218 0  
6 0 1 -69.9493408203125 61.730598449707031 0  96.5672302246154 61.730598449707031 0  
6 0 1 96.567230224609375 -75.002677917480469 0  -69.949340820318525 -75.002677917480469 0  
6 0 1 96.567230224609375 61.730598449707031 0  96.567230224609375 -75.002677917477655 0  
6 0 1 96.567230224609375 -74.07672119140625 0  96.567230224609375 61.73059844971732 0  
6 0 11 -26.617889404234084 12.654772758531093 0  -22.187063909397445 23.815243743728765 0  -14.250073470068706 33.583728173644104 0  -3.292809525612439 40.736356019077363 0  9.7182041844845575 44.240002952224607 0  23.421504533612335 43.468260431580255 0  36.259136233567247 38.371584323074003 0  46.760188621334805 29.533941779616093 0  53.824941489209607 18.060002329177159 0  56.892336320057723 5.3394360212082059 0  55.967677031816763 -7.2130183400776424 0  51.536851536919428 -18.373489325251221 0  
6 0 11 51.536851536869911 -18.373489325375843 0  47.106026042033271 -29.533960310573512 0  39.169035602704533 -39.302444740488852 0  28.211771658248264 -46.45507258592211 0  15.200757948151265 -49.958719519069348 0  1.4974575990234875 -49.186976998424996 0  -11.340174100931424 -44.090300889918737 0  -21.841226488698986 -35.252658346460827 0  -28.905979356573788 -23.778718896021893 0  -31.973374187421904 -11.058152588052939 0  -31.048714899180947 1.4943017732329089 0  -26.617889404283616 12.654772758406491 0  
6 0 1 54.473823547363281 23.766281127929688 0  54.473823547363281 49.075828552242257 0  
6 0 1 54.473823547363281 49.075828552246094 0  84.49632263184435 49.075828552246094 0  
6 0 1 84.496322631835938 49.075828552246094 0  84.496322631835938 23.766281127933521 0  
6 0 1 84.496322631835938 23.766281127929688 0  54.473823547354868 23.766281127929688 0  
6 0 1 163.11195373535156 -74.07672119140625 0  96.567230224609645 -74.07672119140625 0  
6 0 1 163.11195373535156 61.730598449707031 0  163.11195373535156 -74.076721191416539 0  
6 0 1 96.567230224609375 61.730598449707031 0  163.11195373535128 61.730598449707031 0  
6 0 11 116.68540191647988 29.630687713584678 0  110.8424194738402 27.872924700106527 0  105.79089415380204 23.484280997225305 0  102.17157407087227 16.657516343489529 0  100.51675020605607 7.9460284399411254 0  101.13718609380979 -1.7701273600295551 0  104.03505960935928 -11.402952685328987 0  108.8783380886031 -19.848737302083684 0  115.06491933907964 -26.20127033611724 0  121.85006378739574 -29.898026794917314 0  128.48450168819218 -30.7711449715128 0  134.32748413081816 -29.013381957989111 0  
6 0 11 116.68540191655724 29.630687713600853 0  124.64212178777021 30.864904808647758 0  132.95243525580108 29.819576732594719 0  140.89071170056718 26.382147405660685 0  147.69097946663803 20.699913165709408 0  152.6534025386687 13.196560631037118 0  155.25823636341329 4.5377781808495961 0  155.25935504920878 -4.4580995309485587 0  152.72286363674203 -12.949140551519298 0  147.99873401520392 -20.195841945610752 0  141.64450785582744 -25.652750131184021 0  134.32748411505059 -29.013381949687201 0  
Polygon3D 4
2 1
1.38363640470523
96.5672302246094 109.052047729492 0 96.5672302246094 61.730598449712 0 
0 1 
2 1
1.38363640470523
13.8055763244629 109.052047729492 0 96.5672302246059 109.052047729492 0 
0 1 
2 1
1.38363640470523
13.8055763244629 61.730598449707 0 13.8055763244629 109.052047729487 0 
0 1 
2 1
1.38363640470523
96.5672302246094 61.730598449707 0 13.8055763244664 61.730598449707 0 
0 1 
PolygonOnTriangulations 31
2 1 2 
p 1.38363640470523 1 0 1 
2 3 1 
p 1.38363640470523 1 0 1 
2 4 3 
p 1.38363640470523 1 0 1 
2 2 4 
p 1.38363640470523 1 0 1 
21 5 7 8 9 10 11 12 13 14 15 16 17 18 19 20 21 22 23 24 25 6 
p 1.38363640470523 1 0 0.0520801587101767 0.104160317420353 0.15624047613053 0.208320634840707 0.260400793550884 0.31248095226106 0.364561110971237 0.416641269681414 0.46872142839159 0.520801587101767 0.572881745811944 0.62496190452212 0.677042063232297 0.729122221942473 0.78120238065265 0.833282539362826 0.885362698073003 0.93744285678318 0.96872142839159 1 
21 6 26 27 28 29 30 31 32 33 34 35 36 37 38 39 40 41 42 43 44 5 
p 1.38363640470523 1 0 0.0520801587101767 0.104160317420353 0.15624047613053 0.208320634840707 0.260400793550883 0.31248095226106 0.364561110971237 0.416641269681413 0.46872142839159 0.520801587101767 0.572881745811944 0.62496190452212 0.677042063232297 0.729122221942474 0.78120238065265 0.833282539362827 0.885362698073004 0.93744285678318 0.96872142839159 1 
2 1 2 
p 1.38363640470523 1 0 1 
2 3 1 
p 1.38363640470523 1 0 1 
2 4 3 
p 1.38363640470523 1 0 1 
2 2 4 
p 1.38363640470523 1 0 1 
2 1 2 
p 1.38363640470523 1 0 1 
2 3 1 
p 1.38363640470523 1 0 1 
2 4 3 
p 1.38363640470523 1 0 1 
2 4 2 
p 1.38363640470523 1 0 1 
2 3 1 
p 1.38363640470523 1 0 1 
2 1 2 
p 1.83957464547187 1 0 1 
2 4 3 
p 1.83957464547187 1 0 1 
2 5 4 
p 1.83957464547187 1 0.993228007470655 1 
2 5 2 
p 1.83957464547187 1 0 1 
2 1 2 
p 1.83957464547187 1 0 1 
20 6 8 9 10 11 12 13 14 15 16 17 18 19 20 21 22 23 24 25 7 
p 1.83957464547187 1 0 0.053931178268448 0.107862356536896 0.161793534805344 0.215724713073792 0.26965589134224 0.323587069610688 0.377518247879136 0.431449426147584 0.485380604416032 0.53931178268448 0.593242960952928 0.647174139221376 0.701105317489824 0.755036495758272 0.80896767402672 0.862898852295168 0.916830030563616 0.958415015281808 1 
20 7 26 27 28 29 30 31 32 33 34 35 36 37 38 39 40 41 42 43 6 
p 1.83957464547187 1 0 0.053931178268448 0.107862356536896 0.161793534805344 0.215724713073792 0.26965589134224 0.323587069610688 0.377518247879136 0.431449426147584 0.485380604416032 0.53931178268448 0.593242960952928 0.647174139221375 0.701105317489823 0.755036495758271 0.808967674026719 0.862898852295167 0.916830030563615 0.958415015281807 1 
2 44 45 
p 1.83957464547187 1 0 1 
2 45 46 
p 1.83957464547187 1 0 1 
2 46 47 
p 1.83957464547187 1 0 1 
2 47 44 
p 1.83957464547187 1 0 1 
2 3 1 
p 1.83957464547187 1 0 1 
2 4 3 
p 1.83957464547187 1 0 1 
2 2 4 
p 1.83957464547187 1 0 1 
22 5 7 8 9 10 11 12 13 14 15 16 17 18 19 20 21 22 23 24 25 26 6 
p 1.83957464547187 1 0 0.0351089469711726 0.0702178939423452 0.105326840913518 0.14043578788469 0.185006297609353 0.237669718066112 0.290333138522871 0.34299655897963 0.410404591767956 0.48150020938458 0.545486265239542 0.609472321094504 0.673458376949466 0.737444432804429 0.789273138046948 0.837262679938169 0.880453267640269 0.919324796572158 0.958196325504048 0.979098162752024 1 
19 5 27 28 29 30 31 32 33 34 35 36 37 38 39 40 41 42 43 6 
p 1.83957464547187 1 0 0.0558633341193937 0.111726668238787 0.167590002358181 0.223453336477575 0.279316670596969 0.335180004716362 0.391043338835756 0.44690667295515 0.502770007074544 0.558633341193937 0.614496675313331 0.670360009432725 0.726223343552119 0.782086677671513 0.837950011790907 0.8938133459103 0.94690667295515 1 
Surfaces 6
1 0 0 0 0 -0 1 0 1 0 -1 0 0 
1 0 0 0 0 -0 1 0 1 0 -1 0 0 
1 0 0 0 0 -0 1 0 1 0 -1 0 0 
1 0 0 0 0 -0 1 0 1 0 -1 0 0 
1 0 0 0 0 -0 1 0 1 0 -1 0 0 
1 0 0 0 0 -0 1 0 1 0 -1 0 0 
Triangulations 5
44 44 1 1.38363640470523
-12.9994354248047 18.5191802978484 0 37.760261535648 18.5191802978516 0 -12.9994354248082 -20.0624446868896 0 37.7602615356445 -20.0624446868865 0 1.4015455462868e-11 -1.96425098408781e-11 0 25.7768395380084 1.85191798210054 0 0.0212999922071507 2.1117046290925 0 0.38628186569238 4.19173790411054 0 1.08519692534863 6.18454194022373 0 2.09937709111836 8.0368887602768 0 3.40173352172018 9.69930203064214 0 4.95748016381535 11.1273785535422 0 6.7250628905326 12.2829742768404 0 8.6572694144501 13.1352231341771 0 10.7024903315265 13.6613614856558 0 12.8060976133367 13.8473361336865 0 14.9119037269142 13.6881796797396 0 16.9636624084843 13.1881432033203 0 18.9065710056976 12.3605827201381 0 20.6887342612731 11.2276024459152 0 22.2625504402326 9.81946438726699 0 23.5859827764788 8.17378003132917 0 24.62368227801 6.33450573903387 0 25.3479319016015 4.35076868891197 0 25.6238222615344 3.11188842346836 0 25.7555395458138 -0.259786646991054 0 25.3905576723286 -2.3398199220091 0 24.6916426126723 -4.33262395812228 0 23.6774624469026 -6.18497077817535 0 22.3751060163008 -7.84738404854069 0 20.8193593742056 -9.27546057144078 0 19.0517766474883 -10.431056294739 0 17.1195701235708 -11.2833051520757 0 15.0743492064945 -11.8094435035544 0 12.9707419246842 -11.995418151585 0 10.8649358111067 -11.8362616976381 0 8.81317712953667 -11.3362252212188 0 6.87026853232333 -10.5086647380367 0 5.08810527674781 -9.37568446381375 0 3.51428909778825 -7.96754640516553 0 2.19085676154209 -6.3218620492277 0 1.15315726001086 -4.48258775693238 0 0.4289076364194 -2.49885070681048 0 0.153017276486494 -1.25997044136689 0 18.5191802978516 12.9994354248047 18.5191802978516 -37.7602615356516 -20.0624446868896 12.9994354248047 -20.0624446868896 -37.7602615356445 2.14512851925974e-11 -1.10702558231424e-11 1.8519179821211 -25.7768395380069 2.11170462909249 -0.0212999922071475 4.19173790411054 -0.386281865692382 6.18454194022373 -1.08519692534863 8.0368887602768 -2.09937709111836 9.69930203064214 -3.40173352172017 11.1273785535422 -4.95748016381535 12.2829742768404 -6.72506289053261 13.1352231341771 -8.6572694144501 13.6613614856558 -10.7024903315265 13.8473361336865 -12.8060976133367 13.6881796797396 -14.9119037269142 13.1881432033203 -16.9636624084843 12.3605827201381 -18.9065710056976 11.2276024459152 -20.6887342612731 9.81946438726699 -22.2625504402326 8.17378003132917 -23.5859827764788 6.33450573903387 -24.62368227801 4.35076868891197 -25.3479319016015 3.11188842346836 -25.6238222615344 -0.259786646991053 -25.7555395458138 -2.3398199220091 -25.3905576723286 -4.33262395812228 -24.6916426126723 -6.18497077817535 -23.6774624469026 -7.84738404854069 -22.3751060163008 -9.27546057144078 -20.8193593742056 -10.431056294739 -19.0517766474883 -11.2833051520757 -17.1195701235708 -11.8094435035544 -15.0743492064945 -11.995418151585 -12.9707419246842 -11.8362616976381 -10.8649358111067 -11.3362252212188 -8.81317712953667 -10.5086647380367 -6.87026853232333 -9.37568446381375 -5.08810527674781 -7.96754640516553 -3.51428909778825 -6.3218620492277 -2.19085676154209 -4.48258775693238 -1.15315726001086 -2.49885070681048 -0.428907636419396 -1.25997044136689 -0.153017276486494 4 32 33 32 4 31 34 35 4 33 34 4 4 35 3 27 28 4 26 27 4 30 31 4 29 30 4 28 29 4 4 2 26 36 37 3 3 38 39 38 3 37 3 39 40 36 3 35 41 42 3 40 41 3 44 5 3 43 44 3 42 43 3 3 5 1 25 6 2 23 24 2 22 23 2 25 2 24 21 2 20 2 21 22 20 2 19 18 19 2 17 18 2 2 16 17 6 26 2 10 11 1 8 9 1 7 8 1 10 1 9 15 16 1 14 15 1 12 13 1 1 13 14 12 1 11 16 2 1 7 1 5 
4 2 1 1.38363640470523
-105.543029785156 91.0526351928719 0 -17.3325786590611 91.0526351928711 0 -105.543029785153 31.7912578582764 0 -17.3325786590576 31.7912578582756 0 91.0526351928711 105.543029785156 91.0526351928711 17.3325786590645 31.7912578582764 105.543029785156 31.7912578582764 17.3325786590576 3 4 2 2 1 3 
4 2 1 1.38363640470523
-154.755187988281 61.7305984497056 0 -69.9493408203073 61.7305984497056 0 -154.755187988286 -75.0026779174805 0 -69.9493408203125 -75.0026779174805 0 61.730598449707 154.755187988281 61.730598449707 69.9493408203021 -75.0026779174805 154.755187988281 -75.0026779174805 69.9493408203125 3 4 1 2 1 4 
47 49 1 1.83957464547187
-69.9493408203073 61.7305984497056 0 96.5672302246094 61.7305984497122 0 -69.9493408203125 -75.0026779174805 0 96.5672302246094 -75.0026779174791 0 96.5672302246095 -74.0767211914062 0 -26.6178894042836 12.6547727584065 0 51.5368515368947 -18.3734893253135 0 -23.4423455205991 19.0218663445784 0 -19.2386505416523 24.7623287777523 0 -14.1271892665422 29.7117655046346 0 -8.25434295581464 33.7284352824571 0 -1.78829728153211 36.6973093654055 0 5.08577412239422 38.5333655958714 0 12.171012632646 39.1840232551699 0 19.2645122552483 38.6306488964983 0 26.1631304221104 36.8890899785602 0 32.6693055521913 34.0092210124459 0 38.5967147837585 30.0735152470298 0 43.7756098618836 25.1946828181981 0 48.0576783716374 19.5124429924208 0 51.3202910899132 13.1895229121757 0 53.4700138117751 6.40699741504659 0 54.4452830919192 -0.640896585628383 0 54.2181693063662 -7.7523225895962 0 53.2249001392837 -13.1506046438697 0 48.3613076532349 -24.7405829114232 0 44.1576126742882 -30.481045344597 0 39.046151399178 -35.4304820714794 0 33.1733050884505 -39.4471518493018 0 26.7072594141679 -42.4160259322503 0 19.8331880102416 -44.2520821627161 0 12.7479494999898 -44.9027398220146 0 5.65444987738757 -44.3493654633431 0 -1.24416828947459 -42.6078065454049 0 -7.75034341955542 -39.7279375792906 0 -13.6777526511226 -35.7922318138746 0 -18.8566477292478 -30.9133993850429 0 -23.1387162390015 -25.2311595592656 0 -26.4013289572774 -18.9082394790205 0 -28.5510516791393 -12.1257139818914 0 -29.5263209592834 -5.07781998121649 0 -29.2992071737304 2.03360602275131 0 -28.3059380066479 7.43188807702489 0 54.4738235473591 23.7662811279297 0 54.4738235473633 49.0758285522442 0 84.4963226318401 49.0758285522461 0 84.4963226318359 23.7662811279316 0 61.730598449707 69.9493408203125 61.730598449707 -96.5672302246154 -75.0026779174805 69.9493408203125 -75.0026779174805 -96.5672302246094 -74.9964073454462 -96.5672302246094 12.6547727585311 26.6178894042341 -18.3734893252512 -51.5368515369194 19.0218663445784 23.4423455205991 24.7623287777523 19.2386505416523 29.7117655046346 14.1271892665422 33.7284352824571 8.25434295581464 36.6973093654055 1.78829728153211 38.5333655958714 -5.08577412239423 39.1840232551699 -12.171012632646 38.6306488964983 -19.2645122552483 36.8890899785602 -26.1631304221104 34.0092210124459 -32.6693055521913 30.0735152470298 -38.5967147837585 25.1946828181981 -43.7756098618836 19.5124429924208 -48.0576783716374 13.1895229121757 -51.3202910899132 6.40699741504659 -53.4700138117751 -0.640896585628383 -54.4452830919192 -7.7523225895962 -54.2181693063662 -13.1506046438697 -53.2249001392837 -24.7405829114232 -48.3613076532349 -30.481045344597 -44.1576126742882 -35.4304820714794 -39.046151399178 -39.4471518493018 -33.1733050884505 -42.4160259322503 -26.7072594141679 -44.2520821627161 -19.8331880102416 -44.9027398220146 -12.7479494999898 -44.3493654633431 -5.65444987738758 -42.6078065454049 1.2441682894746 -39.7279375792906 7.75034341955542 -35.7922318138746 13.6777526511226 -30.9133993850429 18.8566477292478 -25.2311595592656 23.1387162390016 -18.9082394790205 26.4013289572774 -12.1257139818914 28.5510516791392 -5.07781998121649 29.5263209592834 2.03360602275131 29.2992071737304 7.43188807702489 28.3059380066479 23.7662811279297 -54.4738235473633 49.0758285522423 -54.4738235473633 49.0758285522461 -84.4963226318444 23.7662811279335 -84.4963226318359 4 5 29 29 30 4 28 29 5 5 27 28 4 30 31 47 24 25 47 23 24 26 27 5 7 26 5 25 7 5 47 25 5 32 3 4 32 33 3 3 34 35 34 3 33 3 35 36 32 4 31 37 38 3 36 37 3 40 41 3 39 40 3 38 39 3 3 41 1 22 47 44 47 22 23 19 44 45 22 44 21 20 21 44 19 20 44 45 46 2 45 18 19 2 46 47 45 2 1 17 18 45 16 17 45 45 15 16 47 5 2 9 10 1 8 9 1 43 6 1 42 43 1 8 1 6 15 45 14 13 14 1 11 12 1 1 12 13 11 1 10 45 1 14 42 1 41 
43 43 1 1.83957464547187
96.5672302246095 -74.0767211914062 0 96.5672302246094 61.7305984497122 0 163.111953735352 -74.0767211914114 0 163.111953735351 61.730598449707 0 116.685401916519 29.6306877135928 0 134.327484122934 -29.0133819538382 0 114.487026472173 28.7750379472777 0 112.422573544126 27.5734270252512 0 110.517133085318 26.0404585122473 0 108.793862544609 24.1947630711819 0 106.9012329563 21.4367636537806 0 105.136779031903 17.6496796602987 0 103.928627402955 13.3890064515632 0 103.309773095039 8.77110443068559 0 103.402649484427 2.54099675988443 0 104.569936389708 -4.13239978887253 0 106.512538430634 -9.95911397159248 0 109.220070590014 -15.3723205427515 0 112.583494058171 -20.1540166798385 0 116.467355693573 -24.1116320063412 0 119.88792471709 -26.6025226575787 0 123.189704348946 -28.2753102640686 0 126.208411293497 -29.2271542948169 0 128.915795782068 -29.6198844445686 0 131.572399974292 -29.5668467949279 0 132.96601874374 -29.3540426887725 0 121.614494766254 29.9954516660713 0 126.538724330186 29.5700429184102 0 131.332229063786 28.3653347553112 0 135.872488712249 26.4121190714916 0 140.043455917986 23.7603193516707 0 143.738522293904 20.4777146311086 0 146.863243283105 16.6482070865324 0 149.337752146002 12.3696775316209 0 151.098801338993 7.75148362143293 0 152.101379094703 2.91166470922767 0 152.319859894402 -2.02607519853268 0 151.748659442622 -6.93552927175369 0 150.402377408194 -11.6912136557506 0 148.315424273131 -16.1715747917025 0 145.541141810953 -20.2620962822611 0 142.150439671424 -23.8582258910522 0 138.435376760435 -26.7338637002902 0 -74.0767211914062 -96.5672302246094 61.7305984497173 -96.5672302246094 -74.0767211914062 -163.111953735352 61.730598449707 -163.111953735352 29.6306877135847 -116.68540191648 -29.0133819579891 -134.327484130818 28.7750379472777 -114.487026472173 27.5734270252512 -112.422573544126 26.0404585122473 -110.517133085318 24.1947630711819 -108.793862544609 21.4367636537806 -106.9012329563 17.6496796602987 -105.136779031903 13.3890064515632 -103.928627402955 8.77110443068558 -103.309773095039 2.54099675988444 -103.402649484427 -4.13239978887253 -104.569936389708 -9.95911397159247 -106.512538430634 -15.3723205427515 -109.220070590014 -20.1540166798385 -112.583494058171 -24.1116320063412 -116.467355693573 -26.6025226575787 -119.88792471709 -28.2753102640686 -123.189704348946 -29.2271542948169 -126.208411293497 -29.6198844445686 -128.915795782068 -29.5668467949279 -131.572399974292 -29.3540426887725 -132.96601874374 29.9954516660713 -121.614494766254 29.5700429184102 -126.538724330186 28.3653347553112 -131.332229063786 26.4121190714916 -135.872488712249 23.7603193516707 -140.043455917986 20.4777146311086 -143.738522293904 16.6482070865324 -146.863243283105 12.3696775316209 -149.337752146002 7.75148362143293 -151.098801338993 2.91166470922767 -152.101379094703 -2.02607519853268 -152.319859894402 -6.93552927175369 -151.748659442622 -11.6912136557506 -150.402377408194 -16.1715747917025 -148.315424273131 -20.2620962822611 -145.541141810953 -23.8582258910522 -142.150439671424 -26.7338637002902 -138.435376760435 3 42 43 42 3 41 6 26 3 43 6 3 3 26 25 37 38 3 40 41 3 39 40 3 38 39 3 3 4 37 24 1 3 1 23 22 23 1 24 1 22 21 24 3 25 20 19 1 21 20 1 17 16 1 18 17 1 19 18 1 1 16 15 35 36 4 33 34 4 32 33 4 35 4 34 31 4 30 4 31 32 30 4 29 28 29 4 2 27 28 28 4 2 36 37 4 12 11 2 14 13 2 15 14 2 12 2 13 7 5 2 8 7 2 10 9 2 2 9 8 10 2 11 5 27 2 15 2 1 

TShapes 81
Ve
0.1
96.5672302246094 61.7305984497095 0
0 0

0101100
*
Ve
1e-07
96.5672302246076 109.052047729492 0
0 0

0101100
*
Ed
 0.1 1 1 0
2  1 1 0 0 1
1  1 0 0 1
5  1 0
0

0101000
-81 0 +80 0 *
Ve
1e-07
13.8055763244629 109.05204772949 0
0 0

0101100
*
Ed
 1e-07 1 1 0
2  2 1 0 0 1
1  2 0 0 1
5  2 0
0

0101000
-80 0 +78 0 *
Ve
41.6284941268941
13.8055763244646 61.730598449707 0
0 0

0101100
*
Ed
 1e-07 1 1 0
2  3 1 0 0 1
1  3 0 0 1
5  3 0
0

0101000
-78 0 +76 0 *
Ed
 0.1 1 1 0
2  4 1 0 0 1
1  4 0 0 1
5  4 0
0

0101000
-76 0 +81 0 *
Wi

0101100
-79 0 -77 0 -75 0 -74 0 *
Ve
0.1
37.760261535648 18.5191802978516 0
0 0

0101100
*
Ve
0.1
-12.9994354248047 18.5191802978484 0
0 0

0101100
*
Ed
 0.1 1 1 0
2  5 2 0 0 1
1  5 0 0 1
6  1 1 0
0

0101000
-72 0 +71 0 *
Ve
0.1
-12.9994354248082 -20.0624446868896 0
0 0

0101100
*
Ed
 0.1 1 1 0
2  6 2 0 0 1
1  6 0 0 1
6  2 1 0
0

0101000
-71 0 +69 0 *
Ve
0.1
37.7602615356445 -20.0624446868865 0
0 0

0101100
*
Ed
 0.1 1 1 0
2  7 2 0 0 1
1  7 0 0 1
6  3 1 0
0

0101000
-69 0 +67 0 *
Ed
 0.1 1 1 0
2  8 2 0 0 1
1  8 0 0 1
6  4 1 0
0

0101000
-67 0 +72 0 *
Wi

0101100
-70 0 -68 0 -66 0 -65 0 *
Ve
0.1
1.4015455462868e-11 -1.96425098408781e-11 0
0 0

0101100
*
Ve
0.1
25.7768395380084 1.85191798210054 0
0 0

0101100
*
Ed
 0.1 1 1 0
2  9 2 0 0 1
1  9 0 0 1
6  5 1 0
0

0101000
+63 0 -62 0 *
Ed
 0.1 1 1 0
2  10 2 0 0 1
1  10 0 0 1
6  6 1 0
0

0101000
+62 0 -63 0 *
Wi

0101100
+61 0 +60 0 *
Fa
0  0.1 2 0
2  1
0101000
+64 0 +59 0 *
Ve
0.1
-17.3325786590611 91.0526351928711 0
0 0

0101100
*
Ve
0.1
-105.543029785156 91.0526351928719 0
0 0

0101100
*
Ed
 0.1 1 1 0
2  11 3 0 0 1
1  11 0 0 1
6  7 2 0
0

0101000
-57 0 +56 0 *
Ve
0.1
-105.543029785153 31.7912578582764 0
0 0

0101100
*
Ed
 0.1 1 1 0
2  12 3 0 0 1
1  12 0 0 1
6  8 2 0
0

0101000
-56 0 +54 0 *
Ve
0.1
-17.3325786590576 31.7912578582756 0
0 0

0101100
*
Ed
 0.1 1 1 0
2  13 3 0 0 1
1  13 0 0 1
6  9 2 0
0

0101000
-54 0 +52 0 *
Ed
 0.1 1 1 0
2  14 3 0 0 1
1  14 0 0 1
6  10 2 0
0

0101000
-52 0 +57 0 *
Wi

0101100
-55 0 -53 0 -51 0 -50 0 *
Fa
0  0.1 3 0
2  2
0101000
+49 0 *
Ve
1.0001000025e-07
-69.9493408203073 61.7305984497056 0
0 0

0101100
*
Ve
1.00005e-07
-154.755187988281 61.7305984497056 0
0 0

0101100
*
Ed
 1.00005e-07 1 1 0
2  15 4 0 0 1
1  15 0 0 1
6  11 3 0
0

0101000
-47 0 +46 0 *
Ve
1.00005e-07
-154.755187988286 -75.0026779174805 0
0 0

0101100
*
Ed
 1.00005e-07 1 1 0
2  16 4 0 0 1
1  16 0 0 1
6  12 3 0
0

0101000
-46 0 +44 0 *
Ve
1.0001000025e-07
-69.9493408203125 -75.0026779174805 0
0 0

0101100
*
Ed
 1.00005e-07 1 1 0
2  17 4 0 0 1
1  17 0 0 1
6  13 3 0
0

0101000
-44 0 +42 0 *
Ed
 1.0001000025e-07 1 1 0
2  18 4 0 0 1
1  18 0 0 1
2  19 5 0 0 1
6  14 3 0
6  15 4 0
0

0101000
+42 0 -47 0 *
Wi

0101000
-45 0 -43 0 -41 0 +40 0 *
Fa
0  1e-07 4 0
2  3
0101000
+39 0 *
Ve
0.919787322735934
96.5672302246094 61.7305984497122 0
0 0

0101100
*
Ed
 1.00005e-07 1 1 0
2  20 5 0 0 1
1  19 0 0 1
6  16 4 0
0

0101000
-37 0 +47 0 *
Ve
0.919741335669108
96.5672302246094 -75.0026779174791 0
0 0

0101100
*
Ed
 1.00005e-07 1 1 0
2  21 5 0 0 1
1  20 0 0 1
6  17 4 0
0

0101000
-42 0 +35 0 *
Ve
0.919787322735934
96.5672302246095 -74.0767211914062 0
0 0

0101100
*
Ed
 0.919741335669108 1 1 0
1  21 0 0.993228007470655 1
2  22 5 0 0.993228007470655 1
6  18 4 0
0

0101000
+33 0 -35 0 *
Ed
 0.919787322735934 1 1 0
2  23 6 0 0 1
1  22 0 0 1
2  24 5 0 0 1
6  19 4 0
6  20 5 0
0

0101000
+33 0 -37 0 *
Wi

0101100
-36 0 -40 0 -34 0 -32 0 +31 0 *
Ve
1.00005e-07
-26.6178894042836 12.6547727584065 0
0 0

0101100
*
Ve
1.00005e-07
51.5368515368947 -18.3734893253135 0
0 0

0101100
*
Ed
 1.00005e-07 1 1 0
2  25 5 0 0 1
1  23 0 0 1
6  21 4 0
0

0101000
+29 0 -28 0 *
Ed
 1.00005e-07 1 1 0
2  26 5 0 0 1
1  24 0 0 1
6  22 4 0
0

0101000
+28 0 -29 0 *
Wi

0101100
+27 0 +26 0 *
Ve
1.00005e-07
54.4738235473591 23.7662811279297 0
0 0

0101100
*
Ve
1.00005e-07
54.4738235473633 49.0758285522442 0
0 0

0101100
*
Ed
 1.00005e-07 1 1 0
2  27 5 0 0 1
1  25 0 0 1
6  23 4 0
0

0101000
+24 0 -23 0 *
Ve
1.00005e-07
84.4963226318401 49.0758285522461 0
0 0

0101100
*
Ed
 1.00005e-07 1 1 0
2  28 5 0 0 1
1  26 0 0 1
6  24 4 0
0

0101000
+23 0 -21 0 *
Ve
1.00005e-07
84.4963226318359 23.7662811279316 0
0 0

0101100
*
Ed
 1.00005e-07 1 1 0
2  29 5 0 0 1
1  27 0 0 1
6  25 4 0
0

0101000
+21 0 -19 0 *
Ed
 1.00005e-07 1 1 0
2  30 5 0 0 1
1  28 0 0 1
6  26 4 0
0

0101000
+19 0 -24 0 *
Wi

0101100
+22 0 +20 0 +18 0 +17 0 *
Fa
0  1e-07 5 0
2  4
0101000
+30 0 +25 0 +16 0 *
Ve
1.00005e-07
163.111953735352 -74.0767211914114 0
0 0

0101100
*
Ed
 1.00005e-07 1 1 0
2  31 6 0 0 1
1  29 0 0 1
6  27 5 0
0

0101000
-33 0 +14 0 *
Ve
1.00005e-07
163.111953735351 61.730598449707 0
0 0

0101100
*
Ed
 1.00005e-07 1 1 0
2  32 6 0 0 1
1  30 0 0 1
6  28 5 0
0

0101000
-14 0 +12 0 *
Ed
 1.00005e-07 1 1 0
2  33 6 0 0 1
1  31 0 0 1
6  29 5 0
0

0101000
-12 0 +37 0 *
Wi

0101000
-31 0 -13 0 -11 0 -10 0 *
Ve
1.00005e-07
134.327484122934 -29.0133819538382 0
0 0

0101100
*
Ve
1.00005e-07
116.685401916519 29.6306877135928 0
0 0

0101100
*
Ed
 1.00005e-07 1 1 0
2  34 6 0 0 1
1  32 0 0 1
6  30 5 0
0

0101000
-8 0 +7 0 *
Ed
 1.00005e-07 1 1 0
2  35 6 0 0 1
1  33 0 0 1
6  31 5 0
0

0101000
+7 0 -8 0 *
Wi

0101100
-6 0 +5 0 *
Fa
0  1e-07 6 0
2  5
0101000
+9 0 +4 0 *
Sh

0101000
+38 0 +15 0 +3 0 *
Co

1100000
+73 0 +58 0 +48 0 +2 0 *

+1 0 
0

