DBRep_DrawableShape

CASCADE Topology V1, (c) Matra-Datavision
Locations 65
1
              1               0               0               0 
              0              -1               0               0 
              0               0              -1               0 
1
-0.991225940738562 -0.132178418839665               0               0 
0.132178418839665 -0.991225940738562               0               0 
              0               0               1               0 
1
              1               0               0               0 
              0               1               0 27.7041429602399 
              0               0               1               0 
2  1 1 2 1 3 1 0
1
              1               0               0               0 
              0               1               0               0 
              0               0               1              10 
2  1 1 2 1 3 1 5 1 0
2  2 1 3 1 0
2  2 1 3 1 5 1 0
1
              1               0               0               0 
              0               1               0 27.7041429602399 
              0               0               1               0 
1
-0.991225940738562 -0.132178418839665               0               0 
0.132178418839665 -0.991225940738562               0               0 
              0               0               1               0 
2  9 -1 10 -1 1 -1 0
1
              1               0               0               0 
              0               1               0               0 
              0               0               1              10 
2  12 -1 9 -1 10 -1 1 -1 0
2  3 -1 2 -1 1 -1 0
2  5 -1 3 -1 2 -1 1 -1 0
2  1 -1 0
1
0.704714098679909 -0.709491394677739               0    -5.070509668 
0.709491394677739 0.704714098679909               0    22.882445348 
              0               0               1               0 
2  17 1 2 1 3 1 0
2  9 -1 10 -1 17 -1 0
2  12 -1 9 -1 10 -1 17 -1 0
1
              1               0               0               0 
              0               1               0 -27.7041429602399 
              0               0               1               0 
1
0.991225940814457 0.132178418270511               0               0 
-0.132178418270511 0.991225940814457               0               0 
              0               0               1               0 
2  21 -1 22 -1 17 -1 0
1
              1               0               0               0 
              0               1               0               0 
              0               0               1              10 
2  24 -1 21 -1 22 -1 17 -1 0
2  3 -1 2 -1 17 -1 0
2  5 -1 3 -1 2 -1 17 -1 0
1
              1               0               0               0 
              0               1               0 -27.7041429602399 
              0               0               1               0 
1
0.991225940814457 0.132178418270511               0               0 
-0.132178418270511 0.991225940814457               0               0 
              0               0               1               0 
2  28 -1 29 -1 17 -1 0
1
              1               0               0               0 
              0               1               0               0 
              0               0               1              10 
2  31 -1 28 -1 29 -1 17 -1 0
2  17 -1 0
2  17 1 2 1 3 1 5 1 0
2  5 -1 0
2  29 1 28 1 0
2  29 1 28 1 5 1 0
1
              1               0               0    -4.788188404 
              0               1               0    31.991368991 
              0               0               1               0 
2  38 1 29 1 28 1 0
2  28 -1 29 -1 38 -1 0
2  5 -1 28 -1 29 -1 38 -1 0
2  38 -1 0
2  38 1 29 1 28 1 5 1 0
1
              1               0               0               0 
              0              -1               0               0 
              0               0              -1               0 
2  44 1 29 1 28 1 0
2  44 1 29 1 28 1 5 1 0
2  21 -1 22 -1 44 -1 0
2  12 -1 21 -1 22 -1 44 -1 0
2  28 -1 29 -1 44 -1 0
2  5 -1 28 -1 29 -1 44 -1 0
2  44 -1 0
1
0.991225940814457 0.132178418270511               0               0 
-0.132178418270511 0.991225940814457               0               0 
              0               0               1               0 
1
              1               0               0               0 
              0               1               0 -27.7041429602399 
              0               0               1               0 
2  52 1 53 1 0
2  52 1 53 1 5 1 0
2  53 -1 52 -1 0
2  5 -1 53 -1 52 -1 0
2  44 1 29 1 28 1 53 -1 52 -1 0
1
-0.924516054989555 0.381143101822071               0               0 
-0.381143101822071 -0.924516054989555               0               0 
              0               0               1               0 
1
              1               0               0               0 
              0               1               0 27.7041429602399 
              0               0               1               0 
2  59 1 60 1 0
2  59 1 60 1 5 1 0
2  60 -1 59 -1 0
2  5 -1 60 -1 59 -1 0
2  1 1 2 1 3 1 60 -1 59 -1 0
Curve2ds 54
1 4.4505895926000996 0 0 -1 
1 1.8325957145940499 0 0 -1 
1 4.4943230629021604 0 0 -1 
1 4.1416787264637103 0 0 -1 
1 0 0 1 0 
1 0 -10 1 0 
1 0 0 1 0 
1 0 -10 1 0 
1 6.2831853071795898 0 0 -1 
1 5.3700718711846704 0 0 -1 
1 0 0 1 0 
1 0 -10 1 0 
1 0 0 1 0 
1 0 -10 1 0 
1 0 0 1 0 
1 0 -10 1 0 
1 0 0 1 0 
1 0 -10 1 0 
1 6.5403576931437799 0 0 -1 
1 0 0 1 0 
1 0 -10 1 0 
1 0.257172388705393 0 0 -1 
1 0.45997718356602102 0 0 -1 
1 5.0455809032800998 0 0 -1 
1 0 0 1 0 
1 0 -10 1 0 
1 6.3587288349365103 0 0 -1 
1 4.6977865958390099 0 0 -1 
1 0 0 1 0 
1 0 -10 1 0 
1 4.7123889803846897 0 0 -1 
1 1.5707963267949001 0 0 -1 
1 0 0 1 0 
1 0 -10 1 0 
1 0 0 1 0 
1 0 -10 1 0 
1 1.58539871135018 0 0 -1 
1 1 0 0 -1 
1 0 0 1 0 
1 0 -10 1 0 
1 0.86329323182676099 0 0 -1 
1 0.121579023363812 0 0 -1 
1 0 0 1 0 
1 0 -10 1 0 
1 0 0 0 -1 
1 0 0 0 -1 
1 0 0 1 0 
1 0 -10 1 0 
1 1.5761682994536901 0 0 -1 
1 1.8163403072608699 0 0 -1 
1 0 0 1 0 
1 0 -10 1 0 
1 0 0 1 0 
1 0 -10 1 0 
Curves 24
1 2.89160136510819 5.4537494345465598 0 0 0 1 
1 1.9160597801754999 5.3486048228587402 0 0 0 1 
2 0 0 0 0 0 1 1 0 -0 -0 1 0 22.437499203411399
1 1.2091448482768301 3.7421392545517498 0 0 0 1 
2 0 0 0 0 0 1 1 0 -0 -0 1 0 1.0000000961797599
1 -0.50324895092413902 0.29055091728738103 0 0 0 1 
2 2.9577478768442398 0.72405793869452495 0 0 0 1 -0.99122594073856152 0.13217841883966494 0 -0.13217841883966494 -0.99122594073856152 0 3.4880406218150699
1 0.50324893399514803 -0.29055090751113399 0 0 0 1 
1 -0.50324895092413902 0.29055091728737997 0 0.86602540378385207 -0.50000000000101608 0 
1 0.345001650855572 0.39766967233228501 0 0 0 1 
2 -2.9577478923359801 -0.72405794039283899 0 0 0 1 0.99122594081445725 -0.13217841827051102 0 0.13217841827051102 0.99122594081445725 -0 3.4880406218150699
1 3.80393604306719 4.3927329099520502 0 0 0 1 
2 0 0 0 0 0 1 1 0 -0 -0 1 0 4.3285795526499102
1 4.27220476204963 4.33376640517589 0 0 0 1 
2 0 0 0 0 0 1 1 0 -0 -0 1 0 32.321500120596198
1 4.7395625370024499 4.2679685900330302 0 0 0 1 
2 0 0 0 0 0 -1 -1 0 0 0 1 0 32.321500120279801
1 5.43969575627602 3.1406098091956398 0 0 0 1 
7 0 0  8 81 14  7.4458346449928303 -4.8962671426526301 0  7.4676483790314601 -4.8244502858853497 0  7.4825473353716898 -4.7516447695802198 0  7.4977247890452201 -4.6791086562229101 0  7.5092301806694799 -4.6062459957713404 0  7.5201810008615704 -4.5335099124385501 0  7.52934207403269 -4.4607177541418599 0  7.5468665556946499 -4.3013728320734099 0  7.5588242023622501 -4.1421440115508696 0  7.5638817693331903 -4.0556776435063604 0  7.5675551257020404 -3.96926120038089 0  7.5699944340296303 -3.8829167664962401 0  7.57122504218618 -3.7966333779551902 0  7.5714389596867502 -3.6215435878033801 0  7.5671886033842597 -3.4466238476087199 0  7.56393678556692 -3.3578768013627398 0  7.5596333064237804 -3.2691980424539802 0  7.5543221348411898 -3.18058951020048 0  7.5480339081252898 -3.0920525321558201 0  7.5343207200385303 -2.9243319562590901 0  7.51730579130066 -2.7568646272492501 0  7.5085481281114896 -2.6777892164681099 0  7.4990906082150399 -2.5987779124213799 0  7.4889499887990603 -2.5198342314822999 0  7.4781409658327904 -2.44096140770107 0  7.4532959070715297 -2.2701749436635601 0  7.4254339854449096 -2.0997233835857099 0  7.4095727553741897 -2.0080194953228001 0  7.3928758130962997 -1.9164232907538901 0  7.3753605673250897 -1.82493894596983 0  7.3570431586641103 -1.7335705008037201 0  7.3184231836813298 -1.54910941883006 0  7.2766452619822299 -1.36515330514052 0  7.25474288302388 -1.2723297901505599 0  7.23206393929207 -1.1796449552942401 0  7.2086221531666697 -1.0871037348949599 0  7.1844305874977703 -0.99471101994415501 0  7.1372585248529496 -0.82016938526574601 0  7.0874886490275797 -0.64619136636774099 0  7.0634514837126403 -0.56428397986273304 0  7.0388535519100701 -0.48250918005634702 0  7.0137028492263704 -0.40087054677100298 0  6.98800714175119 -0.319371653795123 0  6.9311967831255901 -0.14318844323709401 0  6.8719005969903302 0.032305970630577698 0  6.8392769580984796 0.12655780782495499 0  6.8059562037437402 0.22059899588637 0  6.7719494357330197 0.31442389233238499 0  6.7372675395858099 0.40802682541968199 0  6.6658008103653401 0.59682230693315597 0  6.5916608704950601 0.78466407991226805 0  6.5535176747178197 0.87935282267189396 0  6.5147137479085897 0.973786286440667 0  6.4752599365428898 1.0679585834023 0  6.4351669812878702 1.16186380044189 0  6.35804742257573 1.3391874493415299 0  6.27871173635035 1.5155106282558699 0  6.2407815377531097 1.59850288187247 0  6.2023726816552696 1.6812639930100599 0  6.1634926151612603 1.7637898098968099 0  6.1241487638150902 1.8460761810103601 0  6.0378187159863099 2.0240338972221901 0  5.9493763022494601 2.2008260730421401 0  5.9011059636786598 2.2957680254603701 0  5.8522452358167101 2.3903589829687002 0  5.8028057272829603 2.4845927396324701 0  5.7527990582559099 2.57846309954529 0  5.6503403663628502 2.7679321255160998 0  5.5456485395781998 2.9558582958063799 0  5.4920603927593499 3.0506430189197902 0  5.4379241251744102 3.1450194937828102 0  5.3832521836347 3.2389815405701698 0  5.32805706131139 3.3325230091929301 0  5.21503865563683 3.5214385652939701 0  5.0999702925625803 3.70857276402689 0  5.0411046792278897 3.8030054604286199 0  4.9817394852342201 3.89696681229008 0  4.9218886226806697 3.99045026685465 0  4.86156609392535 4.0834493275711896 0  4.8007859981520404 4.1759575587758304 0  4.7395625370024499 4.2679685900330204 0 
 0 9 0.059624074315136603 6 0.130569381956398 6 0.203741705980993 6 0.26929649437554898 6 0.34582281479883697 6 0.42399612103511197 6 0.49374747079305797 6 0.57504926821617397 6 0.65813155425062397 6 0.73239314051416904 6 0.81921120584215701 6 0.908320374368913 6 1 9
1 4.9556559403723197 4.2290257705066301 0 0 0 1 
7 0 0  8 81 14  4.9556559403723197 4.2290257705066301 0  4.9726731208851298 4.1559236810971303 0  4.9961730043166996 4.0854227762576398 0  5.0192970005088799 4.0150159325483799 0  5.0457643692680403 3.9461623217826798 0  5.0726487224165 3.8776956157332201 0  5.1011110794338999 3.8100752208500799 0  5.1656068940764301 3.6633162295067399 0  5.23486567847148 3.51944120254602 0  5.27371888097111 3.44203034773872 0  5.3137458825572397 3.3653548344799602 0  5.3548055964765702 3.2893587070731001 0  5.3968815527781597 3.2140197965695099 0  5.4842411897771299 3.0622806315543101 0  5.5753819763217898 2.91292087102127 0  5.62257165623988 2.83768958334299 0  5.6706379579140096 2.7630432648959098 0  5.7195418335126096 2.6889616107355301 0  5.7692560865734404 2.61543045190396 0  5.8649923436923501 2.4770367664284398 0  5.96346136864946 2.34051326951439 0  6.0105834328028296 2.2764107865307599 0  6.0582795372767499 2.2127137499609901 0  6.1065334117342802 2.1494168264797802 0  6.1553307120676699 2.0865154688721401 0  6.2622403960544002 1.9510325817123799 0  6.3715953079434602 1.81734816132079 0  6.4311834802103798 1.74586087946044 0  6.4914415586322498 1.6748847105178799 0  6.55235237877522 1.6044145667369401 0  6.6138999425500096 1.5344458764139599 0  6.7395763628848098 1.3940078808344301 0  6.8677351611588398 1.2555861739737899 0  6.9331149351951904 1.18614984136555 0  6.9990978939865203 1.1172218916624399 0  7.0656696864415496 1.0487997369239199 0  7.1328165543045401 0.98088108144779795 0  7.2609395761698199 0.85330962304708202 0  7.3910305623545698 0.72752517681930196 0  7.4528010513709502 0.66860988197038296 0  7.5149908850621197 0.610089793814236 0  7.5775913491185296 0.55196401476479595 0  7.6405939310150401 0.494231756768784 0  7.7778847499906298 0.37005779993920002 0  7.9169839603948899 0.247723272295296 0  7.9923627789988103 0.18241060633425801 0  8.0682399927367801 0.117628925604802 0  8.1446031659207794 0.053377565736617803 0  8.2214400355427397 -0.0103440041562308 0  8.3777297792564305 -0.13811232274611701 0  8.5358577370365705 -0.26371810019359598 0  8.6162350849048703 -0.326649359033368 0  8.6970570031368197 -0.38902917426627998 0  8.7783111545009493 -0.45085787013158901 0  8.8599852807491999 -0.51213569605515397 0  9.0154346021063407 -0.62714270142717898 0  9.1723029111964607 -0.74017521062041802 0  9.2466475535301793 -0.79308351131377797 0  9.3212911541798693 -0.84555230799829995 0  9.3962251878780201 -0.89758172868630104 0  9.4714411481536693 -0.94917189082597597 0  9.6351840207255304 -1.0601227700445099 0  9.8001734856411105 -1.16900807872123 0  9.8894478012684601 -1.2270950521661701 0  9.9790579115654605 -1.2845828604571501 0  10.0689906602055 -1.3414719334067899 0  10.1592328858657 -1.39776271529197 0  10.3426992288042 -1.5106183591718001 0  10.527328095450001 -1.62102128339278 0  10.621129153461901 -1.67631318814411 0  10.7152007738566 -1.7309774791566499 0  10.809529087466901 -1.7850150279504 0  10.904100199844599 -1.8384267549776601 0  11.096434788243 -1.94552322300438 0  11.289654013143601 -2.0500520115977601 0  11.387849477871599 -2.1024003190185598 0  11.4862419198718 -2.1540906397641701 0  11.5848160145345 -2.20512425503044 0  11.683556387186499 -2.2555025398180901 0  11.7824476097444 -2.3052269702706001 0  11.881474198008 -2.3542991302498 0 
 0 9 0.059624074315136603 6 0.130569381956398 6 0.203741705980993 6 0.26929649437554898 6 0.34582281479883697 6 0.42399612103511197 6 0.49374747079305797 6 0.57504926821617397 6 0.65813155425062397 6 0.73239314051416904 6 0.81921120584215701 6 0.908320374368913 6 1 9
1 3.2528926194194798 5.5036911605746397 0 0 0 1 
2 5.8188237555440399 23.219499700357701 0 0 0 1 -0.96868539319525238 0.24829137925058808 0 -0.24829137925058808 -0.96868539319525238 0 1.50000016960944
2 0 0 0 0 0 -1 -1 0 0 0 1 0 22.437499203403501
Polygon3D 0
PolygonOnTriangulations 0
Surfaces 18
2 0 27.704142960239899 0 0 0 -1 -0.99122594073856152 0.13217841883966494 0 0.13217841883966494 0.99122594073856152 0 22.437499203411399
2 0 27.704142960239899 0 0 0 -1 0.92451605498955525 0.38114310182207112 0 0.38114310182207112 -0.92451605498955525 0 22.437499203403501
2 2.00145527040358 4.3522575931423697 0 0 0 -1 -0.79231034614457274 -0.61011827983782585 -0 0.61011827983782585 -0.79231034614457274 -0 1.0000000961797599
2 0 27.704142960239899 0 0 0 -1 -0.99122594073856152 0.13217841883966494 0 0.13217841883966494 0.99122594073856152 0 22.437499203411399
2 2.9577478768442398 0.72405793869452495 0 0 0 -1 -0.99122594073856152 0.13217841883966494 0 -0.13217841883966494 -0.99122594073856152 -0 3.4880406218150699
2 2.00145527040358 4.3522575931423697 0 0 0 -1 -0.79231034614457274 -0.61011827983782585 -0 0.61011827983782585 -0.79231034614457274 -0 1.0000000961797599
2 -2.0014552838120498 -4.35225759429159 0 0 0 -1 0.79231034579424775 0.61011828029276394 0 -0.61011828029276394 0.79231034579424775 -0 1.0000000961797599
2 -2.0014552838120498 -4.35225759429159 0 0 0 -1 0.79231034579424775 0.61011828029276394 0 -0.61011828029276394 0.79231034579424775 -0 1.0000000961797599
1 -0.50324895092413902 0.29055091728737997 0 0.50000000000101608 0.86602540378385207 0 0.86602540378385207 -0.50000000000101608 0 0 0 -1 
2 -2.9577478923359801 -0.72405794039283899 0 0 0 -1 0.99122594081445725 -0.13217841827051102 0 0.13217841827051102 0.99122594081445725 0 3.4880406218150699
2 -0.51760800401311902 4.6394270354284899 0 0 0 -1 0.99122594081445725 -0.13217841827051102 0 0.13217841827051102 0.99122594081445725 0 4.3285795526499102
2 0 -27.704142960239899 0 0 0 -1 0.99122594081445725 -0.13217841827051102 0 -0.13217841827051102 -0.99122594081445725 -0 32.321500120596198
2 0 -27.704142960239899 0 0 0 -1 -0.99122594081445725 0.13217841827051102 0 0.13217841827051102 0.99122594081445725 0 32.321500120279801
2 0 -27.704142960239899 0 0 0 -1 0.99122594081445725 -0.13217841827051102 0 -0.13217841827051102 -0.99122594081445725 -0 32.321500120596198
6 0 0 -1 
7 0 0  8 81 14  7.4458346449928303 -4.8962671426526301 0  7.4676483790314601 -4.8244502858853497 0  7.4825473353716898 -4.7516447695802198 0  7.4977247890452201 -4.6791086562229101 0  7.5092301806694799 -4.6062459957713404 0  7.5201810008615704 -4.5335099124385501 0  7.52934207403269 -4.4607177541418599 0  7.5468665556946499 -4.3013728320734099 0  7.5588242023622501 -4.1421440115508696 0  7.5638817693331903 -4.0556776435063604 0  7.5675551257020404 -3.96926120038089 0  7.5699944340296303 -3.8829167664962401 0  7.57122504218618 -3.7966333779551902 0  7.5714389596867502 -3.6215435878033801 0  7.5671886033842597 -3.4466238476087199 0  7.56393678556692 -3.3578768013627398 0  7.5596333064237804 -3.2691980424539802 0  7.5543221348411898 -3.18058951020048 0  7.5480339081252898 -3.0920525321558201 0  7.5343207200385303 -2.9243319562590901 0  7.51730579130066 -2.7568646272492501 0  7.5085481281114896 -2.6777892164681099 0  7.4990906082150399 -2.5987779124213799 0  7.4889499887990603 -2.5198342314822999 0  7.4781409658327904 -2.44096140770107 0  7.4532959070715297 -2.2701749436635601 0  7.4254339854449096 -2.0997233835857099 0  7.4095727553741897 -2.0080194953228001 0  7.3928758130962997 -1.9164232907538901 0  7.3753605673250897 -1.82493894596983 0  7.3570431586641103 -1.7335705008037201 0  7.3184231836813298 -1.54910941883006 0  7.2766452619822299 -1.36515330514052 0  7.25474288302388 -1.2723297901505599 0  7.23206393929207 -1.1796449552942401 0  7.2086221531666697 -1.0871037348949599 0  7.1844305874977703 -0.99471101994415501 0  7.1372585248529496 -0.82016938526574601 0  7.0874886490275797 -0.64619136636774099 0  7.0634514837126403 -0.56428397986273304 0  7.0388535519100701 -0.48250918005634702 0  7.0137028492263704 -0.40087054677100298 0  6.98800714175119 -0.319371653795123 0  6.9311967831255901 -0.14318844323709401 0  6.8719005969903302 0.032305970630577698 0  6.8392769580984796 0.12655780782495499 0  6.8059562037437402 0.22059899588637 0  6.7719494357330197 0.31442389233238499 0  6.7372675395858099 0.40802682541968199 0  6.6658008103653401 0.59682230693315597 0  6.5916608704950601 0.78466407991226805 0  6.5535176747178197 0.87935282267189396 0  6.5147137479085897 0.973786286440667 0  6.4752599365428898 1.0679585834023 0  6.4351669812878702 1.16186380044189 0  6.35804742257573 1.3391874493415299 0  6.27871173635035 1.5155106282558699 0  6.2407815377531097 1.59850288187247 0  6.2023726816552696 1.6812639930100599 0  6.1634926151612603 1.7637898098968099 0  6.1241487638150902 1.8460761810103601 0  6.0378187159863099 2.0240338972221901 0  5.9493763022494601 2.2008260730421401 0  5.9011059636786598 2.2957680254603701 0  5.8522452358167101 2.3903589829687002 0  5.8028057272829603 2.4845927396324701 0  5.7527990582559099 2.57846309954529 0  5.6503403663628502 2.7679321255160998 0  5.5456485395781998 2.9558582958063799 0  5.4920603927593499 3.0506430189197902 0  5.4379241251744102 3.1450194937828102 0  5.3832521836347 3.2389815405701698 0  5.32805706131139 3.3325230091929301 0  5.21503865563683 3.5214385652939701 0  5.0999702925625803 3.70857276402689 0  5.0411046792278897 3.8030054604286199 0  4.9817394852342201 3.89696681229008 0  4.9218886226806697 3.99045026685465 0  4.86156609392535 4.0834493275711896 0  4.8007859981520404 4.1759575587758304 0  4.7395625370024499 4.2679685900330204 0 
 0 9 0.059624074315136603 6 0.130569381956398 6 0.203741705980993 6 0.26929649437554898 6 0.34582281479883697 6 0.42399612103511197 6 0.49374747079305797 6 0.57504926821617397 6 0.65813155425062397 6 0.73239314051416904 6 0.81921120584215701 6 0.908320374368913 6 1 9
6 0 0 -1 
7 0 0  8 81 14  4.9556559403723197 4.2290257705066301 0  4.9726731208851298 4.1559236810971303 0  4.9961730043166996 4.0854227762576398 0  5.0192970005088799 4.0150159325483799 0  5.0457643692680403 3.9461623217826798 0  5.0726487224165 3.8776956157332201 0  5.1011110794338999 3.8100752208500799 0  5.1656068940764301 3.6633162295067399 0  5.23486567847148 3.51944120254602 0  5.27371888097111 3.44203034773872 0  5.3137458825572397 3.3653548344799602 0  5.3548055964765702 3.2893587070731001 0  5.3968815527781597 3.2140197965695099 0  5.4842411897771299 3.0622806315543101 0  5.5753819763217898 2.91292087102127 0  5.62257165623988 2.83768958334299 0  5.6706379579140096 2.7630432648959098 0  5.7195418335126096 2.6889616107355301 0  5.7692560865734404 2.61543045190396 0  5.8649923436923501 2.4770367664284398 0  5.96346136864946 2.34051326951439 0  6.0105834328028296 2.2764107865307599 0  6.0582795372767499 2.2127137499609901 0  6.1065334117342802 2.1494168264797802 0  6.1553307120676699 2.0865154688721401 0  6.2622403960544002 1.9510325817123799 0  6.3715953079434602 1.81734816132079 0  6.4311834802103798 1.74586087946044 0  6.4914415586322498 1.6748847105178799 0  6.55235237877522 1.6044145667369401 0  6.6138999425500096 1.5344458764139599 0  6.7395763628848098 1.3940078808344301 0  6.8677351611588398 1.2555861739737899 0  6.9331149351951904 1.18614984136555 0  6.9990978939865203 1.1172218916624399 0  7.0656696864415496 1.0487997369239199 0  7.1328165543045401 0.98088108144779795 0  7.2609395761698199 0.85330962304708202 0  7.3910305623545698 0.72752517681930196 0  7.4528010513709502 0.66860988197038296 0  7.5149908850621197 0.610089793814236 0  7.5775913491185296 0.55196401476479595 0  7.6405939310150401 0.494231756768784 0  7.7778847499906298 0.37005779993920002 0  7.9169839603948899 0.247723272295296 0  7.9923627789988103 0.18241060633425801 0  8.0682399927367801 0.117628925604802 0  8.1446031659207794 0.053377565736617803 0  8.2214400355427397 -0.0103440041562308 0  8.3777297792564305 -0.13811232274611701 0  8.5358577370365705 -0.26371810019359598 0  8.6162350849048703 -0.326649359033368 0  8.6970570031368197 -0.38902917426627998 0  8.7783111545009493 -0.45085787013158901 0  8.8599852807491999 -0.51213569605515397 0  9.0154346021063407 -0.62714270142717898 0  9.1723029111964607 -0.74017521062041802 0  9.2466475535301793 -0.79308351131377797 0  9.3212911541798693 -0.84555230799829995 0  9.3962251878780201 -0.89758172868630104 0  9.4714411481536693 -0.94917189082597597 0  9.6351840207255304 -1.0601227700445099 0  9.8001734856411105 -1.16900807872123 0  9.8894478012684601 -1.2270950521661701 0  9.9790579115654605 -1.2845828604571501 0  10.0689906602055 -1.3414719334067899 0  10.1592328858657 -1.39776271529197 0  10.3426992288042 -1.5106183591718001 0  10.527328095450001 -1.62102128339278 0  10.621129153461901 -1.67631318814411 0  10.7152007738566 -1.7309774791566499 0  10.809529087466901 -1.7850150279504 0  10.904100199844599 -1.8384267549776601 0  11.096434788243 -1.94552322300438 0  11.289654013143601 -2.0500520115977601 0  11.387849477871599 -2.1024003190185598 0  11.4862419198718 -2.1540906397641701 0  11.5848160145345 -2.20512425503044 0  11.683556387186499 -2.2555025398180901 0  11.7824476097444 -2.3052269702706001 0  11.881474198008 -2.3542991302498 0 
 0 9 0.059624074315136603 6 0.130569381956398 6 0.203741705980993 6 0.26929649437554898 6 0.34582281479883697 6 0.42399612103511197 6 0.49374747079305797 6 0.57504926821617397 6 0.65813155425062397 6 0.73239314051416904 6 0.81921120584215701 6 0.908320374368913 6 1 9
2 3.4703561553958999 4.01953816329 0 0 0 -1 0.99019974468613026 0.13965838901950203 0 -0.13965838901950203 0.99019974468613026 -0 1.50000016960944
1 0 27.704142960239899 0 0 0 -1 -0.99122594073856152 0.13217841883966494 0 0.13217841883966494 0.99122594073856152 0 
Triangulations 0

TShapes 64
Ve
1.00163365111651e-07
-5.80725211815673 -21.6729599579539 0
0 0

0101100
*
Ed
 1.00163365111651e-07 1 1 0
1  1 0 0 10
2  1 1 0 0 10
2  2 2 0 0 10
4 C2 1 0 2 0
0

0101000
+64 4 -64 6 *
Ve
1.00519731169666e-07
-4.85416784142465 21.9061275687965 0
0 0

0101100
*
Ed
 1.00519731169666e-07 1 1 0
1  2 0 0 10
2  3 1 0 0 10
2  4 3 0 0 10
4 G1 1 0 3 0
0

0101000
+62 7 -62 8 *
Ed
 1e-07 1 1 0
1  3 0 4.4505895926001 4.49432306290216
2  5 4 11 4.4505895926001 4.49432306290216
2  6 4 13 4.4505895926001 4.49432306290216
2  7 1 14 4.4505895926001 4.49432306290216
2  8 1 15 4.4505895926001 4.49432306290216
0

0101000
+64 0 -62 16 *
Wi

0101000
+63 0 -61 0 -60 4 +60 6 *
Fa
0  1e-07 1 0

0111000
+59 0 *
Ve
1.00243361170084e-07
-4.36579550177043 23.5919368109582 0
0 0

0101100
*
Ed
 1.00243361170084e-07 1 1 0
1  4 0 0 10
2  9 3 0 0 10
2  10 5 0 0 10
0

0101000
+57 7 -57 8 *
Ed
 1e-07 1 1 0
1  5 0 4.14167872646371 6.28318530717959
2  11 6 19 4.14167872646371 6.28318530717959
2  12 6 20 4.14167872646371 6.28318530717959
2  13 7 23 4.14167872646371 6.28318530717959
2  14 7 25 4.14167872646371 6.28318530717959
2  15 3 26 4.14167872646371 6.28318530717959
2  16 3 27 4.14167872646371 6.28318530717959
2  17 8 30 4.14167872646371 6.28318530717959
2  18 8 32 4.14167872646371 6.28318530717959
0

0101000
+62 33 -57 33 *
Wi

0101000
+61 0 -56 0 -55 18 +55 34 *
Fa
0  1e-07 3 0

0111000
+54 0 *
Ve
1.00000000808255e-07
-0.503248950924139 0.290550917287381 0
0 0

0101100
*
Ed
 1.00000000808255e-07 1 1 0
1  6 0 0 10
2  19 5 0 0 10
0

0101000
+52 0 -52 5 *
Ed
 1e-07 1 1 0
1  7 0 5.37007187118467 6.54035769314378
2  20 5 0 5.37007187118467 6.54035769314378
2  21 5 35 5.37007187118467 6.54035769314378
0

0101000
+57 7 -52 0 *
Wi

0101000
+56 0 -51 0 -50 0 +50 5 *
Fa
0  1e-07 5 0

0111000
+49 0 *
Ve
1.00000000222045e-07
0.503248933995148 -0.290550907511134 0
0 0

0101100
*
Ed
 1.00000000222045e-07 1 1 0
1  8 0 0 10
2  22 10 0 0 10
0

0101000
+47 0 -47 5 *
Ed
 1e-07 1 1 0
1  9 0 0 1.16220364959467
0

0101000
+52 0 -47 0 *
Wi

0101000
+51 0 -46 0 -45 0 +45 5 *
Fa
0  1e-07 9 0

0111000
+44 0 *
Ve
1.00407107432506e-07
0.345001650855572 0.397669672332285 0
0 0

0101100
*
Ed
 1.00407107432506e-07 1 1 0
1  10 0 0 10
2  23 10 0 0 10
2  24 11 0 0 10
0

0101000
+42 0 -42 5 *
Ed
 1e-07 1 1 0
1  11 0 0.257172388705393 0.459977183566021
2  25 10 0 0.257172388705393 0.459977183566021
2  26 10 35 0.257172388705393 0.459977183566021
0

0101000
+47 0 -42 0 *
Wi

0101000
+46 0 -41 0 -40 0 +40 5 *
Fa
0  1e-07 10 0

0111000
+39 0 *
Ve
1.00150823531197e-07
-0.471954200859597 32.3180542310106 0
0 0

0101100
*
Ed
 1.00150823531197e-07 1 1 0
1  12 0 0 10
2  27 11 0 0 10
2  28 12 0 0 10
0

0101000
+37 36 -37 37 *
Ed
 1e-07 1 1 0
1  13 0 5.0455809032801 6.35872883493651
2  29 11 40 5.0455809032801 6.35872883493651
2  30 11 41 5.0455809032801 6.35872883493651
0

0101000
+42 40 -37 42 *
Wi

0101000
+41 0 -36 0 -35 39 +35 43 *
Fa
0  1e-07 11 0

0111000
+34 0 *
Ve
1.00158162385615e-07
2.22044604925031e-15 -32.321500120438 0
0 0

0101100
*
Ed
 1.00158162385615e-07 1 1 0
1  14 0 0 10
2  31 12 0 0 10
2  32 13 0 0 10
4 C2 12 0 13 0
0

0101000
+32 45 -32 46 *
Ed
 1e-07 1 1 0
1  15 0 4.69778659583901 4.71238898038469
2  33 14 47 4.69778659583901 4.71238898038469
2  34 14 48 4.69778659583901 4.71238898038469
2  35 12 49 4.69778659583901 4.71238898038469
2  36 12 50 4.69778659583901 4.71238898038469
0

0101000
+37 51 -32 0 *
Wi

0101000
+36 0 -31 0 -30 45 +30 46 *
Fa
0  1e-07 12 0

0111000
+29 0 *
Ve
1.00000003580362e-07
0.471954201305804 32.3180542306792 0
0 0

0101100
*
Ed
 1.00000003580362e-07 1 1 0
1  16 0 0 10
2  37 13 0 0 10
2  38 15 0 0 10
0

0101000
+27 54 -27 55 *
Ed
 1e-07 1 1 0
1  17 0 1.5707963267949 1.58539871135018
2  39 13 56 1.5707963267949 1.58539871135018
2  40 13 57 1.5707963267949 1.58539871135018
0

0101000
+32 58 -27 0 *
Wi

0101000
+31 0 -26 0 -25 54 +25 55 *
Fa
0  1e-07 13 0

0111000
+24 0 *
Ve
1.07411159221967e-07
5.43969575627602 3.14060980919564 0
0 0

0101100
*
Ed
 1.07411159221967e-07 1 1 0
1  18 0 0 10
2  41 15 0 0 10
2  42 16 0 0 10
0

0101000
+22 0 -22 5 *
Ed
 1e-07 1 1 0
1  19 0 0.863293231826761 1
2  43 15 0 0.863293231826761 1
2  44 15 35 0.863293231826761 1
0

0101000
+22 0 -27 54 *
Wi

0101000
+21 0 -26 0 -20 0 +20 5 *
Fa
0  1e-07 15 0

0111000
+19 0 *
Ve
1e-07
4.95565594037232 4.22902577050663 0
0 0

0101100
*
Ed
 1e-07 1 1 0
1  20 0 0 10
2  45 16 0 0 10
2  46 17 0 0 10
0

0101000
+17 0 -17 5 *
Ed
 1e-07 1 1 0
1  21 0 0 0.121579023363812
2  47 16 0 0 0.121579023363812
2  48 16 35 0 0.121579023363812
0

0101000
+17 0 -22 0 *
Wi

0101000
+16 0 -21 0 -15 0 +15 5 *
Fa
0  1e-07 16 0

0111000
+14 0 *
Ve
1e-07
5.45419760896544 21.7644916996719 0
0 0

0101100
*
Ed
 1e-07 1 1 0
1  22 0 0 10
2  49 17 0 0 10
2  50 2 0 0 10
4 G1 17 0 2 0
0

0101000
+12 61 -12 62 *
Ed
 1e-07 1 1 0
1  23 0 0 1.57616829945369
2  51 17 63 0 1.57616829945369
2  52 17 64 0 1.57616829945369
0

0101000
+17 63 -12 0 *
Wi

0101000
+16 0 -11 0 -10 61 +10 62 *
Fa
0  1e-07 17 0

0111000
+9 0 *
Ed
 1e-07 1 1 0
1  24 0 1.81634030726087 1.83259571459405
2  53 2 63 1.81634030726087 1.83259571459405
2  54 2 64 1.81634030726087 1.83259571459405
0

0101000
+12 0 -64 65 *
Wi

0101000
+11 0 -63 0 -7 61 +7 62 *
Fa
0  1e-07 2 0

0111000
+6 0 *
Wi

0101100
+60 4 +55 18 +50 0 +45 0 +40 0 +35 39 +30 45 +25 54 -20 0 -15 0 
+10 61 +7 61 *
Fa
0  1e-07 18 0

0111000
-4 0 *
Sh

0101000
-58 0 -53 0 -48 0 -43 0 -38 0 -33 0 -28 0 -23 0 +18 0 +13 0 
-8 0 -5 0 +3 0 -3 5 *
So

1100000
+2 0 *

+1 0 
0

