DBRep_DrawableShape

CASCADE Topology V1, (c) Matra-Datavision
Locations 8
1
              1               0               0               0 
              0               1               0              -0 
              0               0               1             500 
2  1 -1 0
1
              1               0               0               0 
              0               1               0               0 
              0               0               1               0 
1
              1               0               0               0 
              0               1               0              -0 
              0               0               1             250 
2  4 -1 0
2  3 -1 0
2  4 1 3 1 0
2  3 -1 4 -1 0
Curve2ds 16
1 0 0 1 0 
1 0 -500 1 0 
1 0 0 1 0 
1 0 -250 1 0 
1 0 0 0 -1 
1 6.2831853071795898 0 0 -1 
1 1.5707963267949001 -250 -1 0 
2 -109.251953125 -5.460205078125 0 1 1 -0 177.38422142079199
1 1.1235728321868901 0 0 1 
1 1.77840358792857 0 0 1 
1 7.8539816339744801 -250 -1 0 
2 -109.251953125 -5.460205078125 0 1 1 -0 177.38422142079199
1 5.2594855763398103 -0 0 1 
1 4.6046548205981201 0 0 1 
1 0 0 0 -1 
1 6.2831853071795898 0 0 -1 
Curves 8
2 -151.473388671875 -18.026611328125 0 0 -0 1 1 0 0 -0 1 0 177.38422142079199
2 -42.221435546875 -12.56640625 0 0 -0 1 1 0 0 -0 1 0 157.868435246167
1 25.910832748916501 -18.026611328125 0 0 -0 1 
8 0.44722349460800997 1.5707963267949001
2 -151.473388671875 -18.026611328125 250 -0 0 -1 0 1 0 1 0 -0 177.38422142079199
1 -74.761140509995499 141.91210503226901 0 -0 0 -1 
8 1.5707963267949001 2.5944960576346698
2 -151.473388671875 -18.026611328125 250 -0 0 -1 0 1 0 1 0 -0 177.38422142079199
1 -59.196377223372899 -169.51956551145801 0 -0 0 -1 
1 115.646999699292 -12.56640625 0 0 -0 1 
Polygon3D 0
PolygonOnTriangulations 0
Surfaces 4
1 -151.473388671875 -18.026611328125 0 0 -0 1 1 0 0 -0 1 0 
2 -151.473388671875 -18.026611328125 0 -0 0 -1 1 0 0 -0 1 0 177.38422142079199
2 -42.221435546875 -12.56640625 0 -0 0 -1 1 0 0 -0 1 0 157.868435246167
1 -42.221435546875 -12.56640625 0 0 -0 1 1 0 0 -0 1 0 
Triangulations 0

TShapes 34
Ve
5.000000002e-05
-74.7611405099955 141.912105032269 0
0 0

0101101
*
Ve
5.000000002e-05
-59.196377223373 -169.519565511458 0
0 0

0101101
*
Ed
 1e-07 1 1 0
1  1 0 1.12357283218689 5.25948557633981
2  1 2 0 1.12357283218689 5.25948557633981
2  2 2 2 1.12357283218689 5.25948557633981
0

0101000
+34 0 -33 0 *
Ve
1e-07
115.646999699292 -12.56640625 0
0 0

0101101
*
Ed
 1e-07 1 1 0
1  2 0 0 1.77840358792857
2  3 3 0 0 1.77840358792857
2  4 3 5 0 1.77840358792857
0

0101000
-34 6 +31 0 *
Ed
 1e-07 1 1 0
1  2 0 4.60465482059812 6.28318530717959
2  3 3 0 4.60465482059812 6.28318530717959
2  4 3 5 4.60465482059812 6.28318530717959
0

0101000
+33 6 -31 0 *
Wi

0101100
+32 0 +30 3 +29 3 *
Fa
0  1e-07 1 0

0111000
+28 0 *
Ve
5.000000002e-05
25.9108327489165 -18.026611328125 250
0 0

0101101
*
Ve
1e-07
25.9108327489165 -18.026611328125 0
0 0

0101101
*
Ed
 1e-07 1 1 0
1  3 0 250 500
3  5 6CN 2 0 250 500
0

0101000
+26 0 -25 1 *
Ve
5.000000002e-05
-74.7611405099955 141.912105032269 250
0 0

0101101
*
Ed
 1.77384221420791e-06 1 1 0
1  4 0 0.44722349460801 1.5707963267949
2  7 2 0 0.44722349460801 1.5707963267949
2  8 4 7 0.44722349460801 1.5707963267949
0

0101000
+23 0 -26 0 *
Ed
 1e-07 1 1 0
1  1 0 0 6.28318530717959
2  1 2 0 0 6.28318530717959
2  2 2 2 0 6.28318530717959
0

0101100
+25 0 -25 0 *
Ed
 1.77384221420791e-06 1 1 0
1  5 0 -250 -0
2  9 2 0 -250 -0
2  10 3 3 -250 -0
0

0101000
+23 0 -34 0 *
Ve
5.000000002e-05
-59.196377223373 -169.519565511458 250
0 0

0101101
*
Ed
 1.77384221420791e-06 1 1 0
1  6 0 1.5707963267949 2.59449605763467
2  11 2 0 1.5707963267949 2.59449605763467
2  12 4 7 1.5707963267949 2.59449605763467
0

0101000
+26 0 -19 0 *
Ed
 1.77384221420791e-06 1 1 0
1  7 0 -250 0
2  13 2 0 -250 0
2  14 3 3 -250 0
0

0101000
+19 0 -33 0 *
Wi

0101100
+24 0 +22 0 +21 1 -20 0 -24 0 -32 0 +18 0 +17 0 *
Fa
0  1e-07 2 0

0111000
+16 0 *
Ed
 1e-07 1 1 0
1  8 0 0 250
3  15 16CN 3 0 0 250
0

0101000
+31 0 -31 4 *
Ed
 1e-07 1 1 0
1  2 0 0 1.77840358792857
2  3 3 0 0 1.77840358792857
2  4 3 5 0 1.77840358792857
0

0101000
-23 8 +31 0 *
Wi

0101100
-30 3 +20 0 +14 3 +13 7 *
Fa
0  1e-07 3 0

0111000
+12 6 *
Ed
 1e-07 1 1 0
1  2 0 4.60465482059812 6.28318530717959
2  3 3 0 4.60465482059812 6.28318530717959
2  4 3 5 4.60465482059812 6.28318530717959
0

0101000
+19 8 -31 0 *
Wi

0101100
-29 3 -17 0 -14 3 +10 7 *
Fa
0  1e-07 3 0

0111000
+9 6 *
Wi

0101100
+13 7 +22 0 +10 7 +18 0 *
Fa
0  1e-07 4 0

0111000
+7 8 *
Wi

0101100
+21 0 *
Fa
0  1e-07 1 0

0111000
+5 0 *
Sh

0101100
-27 0 -15 0 -11 3 -8 3 +6 7 +4 1 *
So

0100000
+3 0 *
Co

1100000
+2 0 *

+1 0 
0

