DBRep_DrawableShape

CASCADE Topology V1, (c) Matra-Datavision
Locations 18
1
0.866025403784439            -0.5               0               0 
            0.5 0.866025403784439               0               0 
              0               0               1               0 
1
0.515038074910054 0.857167300702112               0               0 
-0.857167300702112 0.515038074910054               0               0 
              0               0               1               0 
2  1 1 2 1 0
1
              1               0               0               0 
              0               1               0               0 
              0               0               1             300 
1
              1               0               0              -0 
              0               1               0               0 
              0               0               1             -50 
1
              1               0               0               0 
              0               1               0              -0 
              0               0               1             100 
2  5 1 6 1 0
1
              1               0               0               0 
              0               1               0              -0 
              0               0               1             100 
2  8 -1 0
2  5 -1 0
2  6 -1 5 -1 0
1
              1               0               0               0 
              0               1               0               0 
              0               0               1             100 
2  12 -1 6 -1 5 -1 0
2  4 -1 6 -1 5 -1 0
2  5 1 6 1 4 1 0
1
              1               0               0               0 
              0               1               0               0 
              0               0               1               0 
2  12 -1 0
2  4 -1 0
Curve2ds 54
1 0.52359879016876198 0 0 -1 
1 5.7595865170108196 0 0 -1 
1 0 0 1 0 
1 0 -100 1 0 
1 0 0 1 0 
1 0 -100 1 0 
1 0 0 1 0 
1 0 -100 1 0 
1 0 0 1 0 
1 0 -300 1 0 
1 1.0471975366261299 0 0 -1 
1 132.18147376429499 76.315012027624306 -0.86602539649920707 -0.50000001261839111 
1 -152.63002020335799 -110 -1 -0 
1 2.0943951169636601 0 0 -1 
1 132.18147376429499 -76.315012027624306 -0.86602539649920707 0.50000001261839111 
1 -152.63002020335799 -110 -1 0 
1 1.2208664165827099 0 0 -1 
1 4.3624590701725001 0 0 -1 
2 0 0 0 1 1 -0 305.26004040671597
1 1.5707963267949001 -110 -1 0 
1 0 0 1 0 
1 0 -100 1 0 
1 0 0 1 0 
1 0 -300 1 0 
1 1.9207262370070901 0 0 -1 
1 5.0623188905968801 0 0 -1 
2 0 0 0 1 1 -0 305.26004040671597
1 7.8539816339744801 -110 -1 0 
1 0 0 1 0 
1 0 -100 1 0 
1 0 0 1 0 
1 0 -300 1 0 
1 3.3174710396416498 0 0 -1 
1 0.17587838605185699 0 0 -1 
2 314.94219040989799 114.93785883392999 0 1 1 -0 30
1 7.8539816339744801 -110 -1 0 
1 0 0 1 0 
1 0 -100 1 0 
1 0 0 1 0 
1 0 -300 1 0 
1 6.10730692112773 0 0 -1 
1 2.96571426753794 0 0 -1 
2 314.94219040989799 -114.93785883392999 0 1 1 -0 30
1 7.8539816339744801 -110 -1 0 
1 0 0 1 0 
1 0 -100 1 0 
1 0 0 1 0 
1 0 -300 1 0 
2 294.51605438890101 0 0 1 1 -0 86.7387614551251
1 7.8539816339744801 -110 -1 0 
1 0 0 1 0 
1 0 -100 1 0 
1 0 0 1 0 
1 0 -300 1 0 
Curves 16
1 353.592778019609 204.146892442476 50 0 0 1 
1 353.592778019609 -204.146892442476 50 0 0 1 
2 0 0 0 0 -0 1 1 0 0 -0 1 0 408.29377458093097
1 264.36294752858998 152.63002405524901 50 0 0 1 
1 132.18147376429499 76.315012027624306 50 -0.86602539649920707 -0.50000001261839111 0 
1 264.36294752858998 -152.63002405524901 50 0 0 1 
1 132.18147376429499 -76.315012027624306 50 -0.86602539649920707 0.50000001261839111 0 
1 286.760288084661 104.652899848556 50 0 0 1 
8 1.0471975366261299 1.2208664165827099
2 0 0 50 -0 0 -1 0 1 0 1 0 -0 305.26004040671597
1 286.760288084661 -104.652899848556 50 0 0 1 
8 1.9207262370070901 2.0943951169636601
2 0 0 50 -0 0 -1 0 1 0 1 0 -0 305.26004040671597
1 309.69299919875499 85.400662087642701 50 0 0 1 
8 3.3174710396416498 4.3624590701725001
2 314.94219040989799 114.93785883392999 50 -0 0 -1 0 1 0 1 0 -0 30
1 309.69299919875499 -85.400662087642601 50 0 0 1 
8 5.0623188905968801 6.10730692112773
2 314.94219040989799 -114.93785883392999 50 -0 0 -1 0 1 0 1 0 -0 30
8 0.17587838605185699 2.96571426753794
2 294.51605438890101 0 50 -0 0 -1 0 1 0 1 0 -0 86.7387614551251
Polygon3D 0
PolygonOnTriangulations 0
Surfaces 24
2 0 0 50 -0 -0 -1 1 0 0 0 1 0 408.29377458093097
2 0 0 0 -0 0 -1 1 0 0 -0 1 0 408.29377458093097
2 0 0 -50 -0 0 -1 1 0 0 -0 1 0 408.29377458093097
2 0 0 50 -0 -0 -1 1 0 0 0 1 0 408.29377458093097
1 353.59277801960855 204.14689244247606 50 0.50000001261839111 -0.86602539649920707 0 -0.86602539649920707 -0.50000001261839111 0 0 -0 -1 
2 0 0 50 -0 0 -1 0 1 0 1 0 -0 305.26004040671597
1 0 0 0 0 -0 1 1 0 0 -0 1 0 
1 264.36294752858998 152.63002405524901 -60 -0.50000001261839111 0.86602539649920707 0 0.86602539649920707 0.50000001261839111 0 0 0 -1 
1 353.59277801960855 -204.14689244247606 50 -0.50000001261839111 -0.86602539649920707 0 -0.86602539649920707 0.50000001261839111 0 -0 0 -1 
2 0 0 50 -0 0 -1 0 1 0 1 0 -0 305.26004040671597
1 264.36294752858998 -152.63002405524901 -60 0.50000001261839111 0.86602539649920707 0 0.86602539649920707 -0.50000001261839111 -0 0 0 -1 
2 314.94219040989799 114.93785883392999 50 -0 0 -1 0 1 0 1 0 -0 30
2 0 0 -60 -0 0 -1 1 0 0 -0 1 0 305.26004040671597
2 0 0 50 -0 0 -1 0 1 0 1 0 -0 305.26004040671597
2 314.94219040989799 -114.93785883392999 50 -0 0 -1 0 1 0 1 0 -0 30
2 0 0 -60 -0 0 -1 1 0 0 -0 1 0 305.26004040671597
2 0 0 50 -0 0 -1 0 1 0 1 0 -0 305.26004040671597
2 294.51605438890101 0 50 -0 0 -1 0 1 0 1 0 -0 86.7387614551251
2 314.94219040989799 114.93785883392999 -60 -0 0 -1 1 0 0 -0 1 0 30
2 314.94219040989799 114.93785883392999 50 -0 0 -1 0 1 0 1 0 -0 30
2 314.94219040989799 -114.93785883392999 -60 -0 0 -1 1 0 0 -0 1 0 30
2 314.94219040989799 -114.93785883392999 50 -0 0 -1 0 1 0 1 0 -0 30
2 294.51605438890101 0 -60 -0 0 -1 1 0 0 -0 1 0 86.7387614551251
2 294.51605438890101 0 50 -0 0 -1 0 1 0 1 0 -0 86.7387614551251
Triangulations 0

TShapes 41
Ve
8.83867994268682e-05
353.592778019609 204.146892442476 50
0 0

0101101
*
Ed
 8.83867994268682e-05 1 1 0
1  1 0 0 300
2  1 1 0 0 300
0

0101000
+41 0 -41 4 *
Ve
8.83867994268682e-05
353.592778019609 -204.146892442476 50
0 0

0101101
*
Ed
 8.83867994268682e-05 1 1 0
1  2 0 0 300
2  2 1 0 0 300
0

0101000
+39 0 -39 4 *
Ed
 1e-07 1 1 0
1  3 0 0.523598790168762 5.75958651701082
2  3 2 0 0.523598790168762 5.75958651701082
2  4 2 9 0.523598790168762 5.75958651701082
2  5 3 10 0.523598790168762 5.75958651701082
2  6 3 11 0.523598790168762 5.75958651701082
2  7 4 11 0.523598790168762 5.75958651701082
2  8 4 13 0.523598790168762 5.75958651701082
2  9 1 11 0.523598790168762 5.75958651701082
2  10 1 14 0.523598790168762 5.75958651701082
0

0101000
+41 11 -39 11 *
Wi

0101000
+40 0 -38 0 -37 7 +37 15 *
Fa
0  1e-07 1 0

0101000
+36 0 *
Ve
8.83867994268682e-05
264.36294752859 152.630024055249 50
0 0

0101101
*
Ed
 8.83867994268682e-05 1 1 0
1  4 0 0 300
2  11 6 0 0 300
0

0101000
+34 0 -34 4 *
Ed
 1e-08 1 1 0
1  5 0 -255.663754377573 -152.630020203358
2  12 7 7 -255.663754377573 -152.630020203358
2  13 8 16 -255.663754377573 -152.630020203358
0

0101000
+41 0 -34 0 *
Wi

0101000
+40 0 -33 0 -32 0 +32 4 *
Fa
0  1e-07 5 0

0101000
+31 0 *
Ve
8.83867994268682e-05
264.36294752859 -152.630024055249 50
0 0

0101101
*
Ed
 8.83867994268682e-05 1 1 0
1  6 0 0 300
2  14 10 0 0 300
0

0101000
+29 0 -29 4 *
Ed
 1e-08 1 1 0
1  7 0 -255.663754377573 -152.630020203358
2  15 7 7 -255.663754377573 -152.630020203358
2  16 11 16 -255.663754377573 -152.630020203358
0

0101000
+39 0 -29 0 *
Wi

0101000
+38 0 -28 0 -27 0 +27 4 *
Fa
0  1e-07 9 0

0101000
+26 0 *
Ve
8.83867994268682e-05
286.760288084661 104.652899848556 50
0 0

0101101
*
Ed
 8.83867994268682e-05 1 1 0
1  8 0 0 300
2  17 6 0 0 300
2  18 12 0 0 300
4 G1 6 0 12 0
0

0101000
+24 0 -24 4 *
Ed
 3.05260040406716e-06 1 1 0
1  9 0 1.04719753662613 1.22086641658271
2  19 7 7 1.04719753662613 1.22086641658271
2  20 13 16 1.04719753662613 1.22086641658271
2  21 14 0 1.04719753662613 1.22086641658271
2  22 14 17 1.04719753662613 1.22086641658271
2  23 6 0 1.04719753662613 1.22086641658271
2  24 6 18 1.04719753662613 1.22086641658271
0

0101000
+34 0 -24 0 *
Wi

0101000
+33 0 -23 0 -22 0 +22 4 *
Fa
0  3.05260040406716e-06 6 0

0101000
+21 0 *
Ve
8.83867994268682e-05
286.760288084661 -104.652899848556 50
0 0

0101101
*
Ed
 8.83867994268682e-05 1 1 0
1  10 0 0 300
2  25 10 0 0 300
2  26 15 0 0 300
4 G1 10 0 15 0
0

0101000
+19 0 -19 4 *
Ed
 3.05260040406716e-06 1 1 0
1  11 0 1.92072623700709 2.09439511696366
2  27 7 7 1.92072623700709 2.09439511696366
2  28 16 16 1.92072623700709 2.09439511696366
2  29 17 0 1.92072623700709 2.09439511696366
2  30 17 17 1.92072623700709 2.09439511696366
2  31 10 0 1.92072623700709 2.09439511696366
2  32 10 18 1.92072623700709 2.09439511696366
0

0101000
+19 0 -29 0 *
Wi

0101000
+18 0 -28 0 -17 0 +17 4 *
Fa
0  3.05260040406716e-06 10 0

0101000
+16 0 *
Ve
8.83867994268682e-05
309.692999198755 85.4006620876427 50
0 0

0101101
*
Ed
 8.83867994268682e-05 1 1 0
1  12 0 0 300
2  33 12 0 0 300
2  34 18 0 0 300
4 G1 12 0 18 0
0

0101000
+14 0 -14 4 *
Ed
 2.99999999999999e-07 1 1 0
1  13 0 3.31747103964165 4.3624590701725
2  35 7 7 3.31747103964165 4.3624590701725
2  36 19 16 3.31747103964165 4.3624590701725
2  37 20 0 3.31747103964165 4.3624590701725
2  38 20 17 3.31747103964165 4.3624590701725
2  39 12 0 3.31747103964165 4.3624590701725
2  40 12 18 3.31747103964165 4.3624590701725
0

0101000
+14 0 -24 0 *
Wi

0101000
+13 0 -23 0 -12 0 +12 4 *
Fa
0  2.99999999999999e-07 12 0

0101000
+11 0 *
Ve
8.83867994268682e-05
309.692999198755 -85.4006620876426 50
0 0

0101101
*
Ed
 8.83867994268682e-05 1 1 0
1  14 0 0 300
2  41 15 0 0 300
2  42 18 0 0 300
4 G1 15 0 18 0
0

0101000
+9 0 -9 4 *
Ed
 2.99999999999999e-07 1 1 0
1  15 0 5.06231889059688 6.10730692112773
2  43 7 7 5.06231889059688 6.10730692112773
2  44 21 16 5.06231889059688 6.10730692112773
2  45 22 0 5.06231889059688 6.10730692112773
2  46 22 17 5.06231889059688 6.10730692112773
2  47 15 0 5.06231889059688 6.10730692112773
2  48 15 18 5.06231889059688 6.10730692112773
0

0101000
+19 0 -9 0 *
Wi

0101000
+18 0 -8 0 -7 0 +7 4 *
Fa
0  2.99999999999999e-07 15 0

0101000
+6 0 *
Ed
 8.67387614551251e-07 1 1 0
1  16 0 0.175878386051857 2.96571426753794
2  49 7 7 0.175878386051857 2.96571426753794
2  50 23 16 0.175878386051857 2.96571426753794
2  51 24 0 0.175878386051857 2.96571426753794
2  52 24 17 0.175878386051857 2.96571426753794
2  53 18 0 0.175878386051857 2.96571426753794
2  54 18 18 0.175878386051857 2.96571426753794
0

0101000
+14 0 -9 0 *
Wi

0101000
+13 0 -8 0 -4 0 +4 4 *
Fa
0  8.67387614551251e-07 18 0

0101000
+3 0 *
Sh

1101000
+35 0 -30 0 +25 0 -20 0 -15 0 +10 0 +5 0 -2 0 *

+1 3 
0

