DBRep_DrawableShape

CASCADE Topology V1, (c) Matra-Datavision
Locations 15
1
              1               0              -0               0 
             -0               1               0               0 
              0               0               1 0.0499999970197678 
1
0.921060994002885               0 0.389418342308651 -0.00496544866676205 
              0               1               0               0 
-0.389418342308651               0 0.921060994002885 0.0755046727000864 
2  1 1 2 1 0
2  1 -1 0
1
0.342020148718266               0 0.939692618823163 0.0739227211737871 
              0               1              -0               0 
-0.939692618823163               0 0.342020148718266 0.205572581581562 
2  5 -1 1 -1 0
1
0.342020148718266               0 -0.939692618823163 0.167891977455099 
             -0               1               0               0 
0.939692618823163               0 0.342020148718266 -0.139774600375254 
2  7 -1 1 -1 0
1
0.939692624258977               0 -0.342020133783492 0.0281828114892378 
             -0               1               0               0 
0.342020133783492               0 0.939692624258977 -0.0598326771305212 
2  9 -1 1 -1 0
1
0.995004165278026               0 0.0998334166468282 -0.0042634437950774 
              0               1              -0               0 
-0.0998334166468282               0 0.995004165278026 0.0148021873802919 
2  11 -1 1 -1 0
1
0.980066577841242               0 0.198669330795061 -0.00627059262152221 
              0               1              -0               0 
-0.198669330795061               0 0.980066577841242 0.0375032330181749 
2  13 -1 1 -1 0
2  2 -1 1 -1 0
Curve2ds 58
1 0 3.14159265358979 1 0 
1 0 0.099642753601074205 1 0 
1 0 6.28318530717958 1 0 
1 0 0 1 0 
2 0.111292764544487 0.032197311520576498 1 0 -0 1 0.0344740152359009
1 0 3.14159265358979 0 1 
1 1.22173047065735 3.14159265358979 0 1 
1 0 3.14159265358979 0 1 
1 1.22173047065735 3.14159265358979 0 1 
1 0 3.14159265358979 0 1 
1 0.34906584024429299 3.14159265358979 0 1 
1 6.2831853071795898 3.14159265358979 0 1 
1 0 3.14159265358979 0 1 
1 6.2831853071795898 3.14159265358979 0 1 
1 0 3.14159265358979 0 1 
1 6.2831853071795898 3.14159265358979 0 1 
1 0 3.14159265358979 0 1 
1 0 0.099642753601074205 1 0 
1 0 -3.5527136788005001e-15 1 0 
1 0.076818749308586107 0.032197311520576498 0 -1 
1 0 0 0 1 
1 1.22173047065735 0 0 1 
1 0 0 0 1 
1 1.22173047065735 0 0 1 
1 0 0 0 1 
1 0.34906584024429299 0 0 1 
1 6.2831853071795898 0 0 1 
1 0 0 0 1 
1 6.2831853071795898 0 0 1 
1 0 0 0 1 
1 6.2831853071795898 0 0 1 
1 0 0 0 1 
1 0 3.1415926535898002 1 0 
1 0 0 1 0 
2 0.111292764544487 -0.0674454420804977 1 0 -0 1 0.0344740152359009
1 0 -3.14159265358979 0 1 
1 1.22173047065735 -3.14159265358979 0 1 
1 0 -3.14159265358979 0 1 
1 1.22173047065735 -3.14159265358979 0 1 
1 0 -3.14159265358979 0 1 
1 0.34906584024429299 -3.14159265358979 0 1 
1 6.2831853071795898 3.14159265358979 0 1 
1 0 3.14159265358979 0 1 
1 6.2831853071795898 3.14159265358979 0 1 
1 0 3.14159265358979 0 1 
1 6.2831853071795898 -3.14159265358979 0 1 
1 0 -3.14159265358979 0 1 
1 0.14576677978038799 -0.0674454420804977 0 1 
1 0 0 0 1 
1 1.22173047065735 0 0 1 
1 0 0 0 1 
1 1.22173047065735 0 0 1 
1 0 0 0 1 
1 0.34906584024429299 0 0 1 
1 6.2831853071795898 0 0 1 
1 0 0 0 1 
1 6.2831853071795898 0 0 1 
1 0 0 0 1 
Curves 8
2 0.183755397796631 0.032197311520576498 0.050000000000000003 0 1 0 -0.92106102455300887 0 0.38941827005080493 0.38941827005080493 -0 0.92106102455300887 0.037988618016243203
2 0.183755397796631 0.032197311520576498 0.050000000000000003 0 1 0 -0.92106100485563802 0 0.38941831663947502 0.38941831663947502 -0 0.92106100485563802 0.106936648488045
2 0.111292764544487 0.032197311520576498 0 0 0 1 1 0 -0 -0 1 0 0.0344740152359009
2 0.183755397796631 -0.0674454420804977 0.050000000000000003 0 1 0 -0.92106100485563802 0 0.38941831663947502 0.38941831663947502 -0 0.92106100485563802 0.106936648488045
1 0.076818749308586107 0.032197311520576498 0 0 -1 0 
2 0.183755397796631 -0.0674454420804977 0.050000000000000003 0 1 0 -0.92106102455300887 0 0.38941827005080493 0.38941827005080493 -0 0.92106102455300887 0.037988618016243203
2 0.111292764544487 -0.0674454420804977 0 0 0 1 1 0 -0 -0 1 0 0.0344740152359009
1 0.14576677978038799 -0.0674454420804977 0 0 1 0 
Polygon3D 0
PolygonOnTriangulations 0
Surfaces 24
5 0.183755397796631 0.032197311520576498 0.050000000000000003 -0 -1 -0 -0.92106101001882301 0 0.389418304427393 0.389418304427393 -0 0.92106101001882301 0.072462633252144096 0.0344740152359009
2 0.183755397796631 -0.0674454420804977 0.050000000000000003 0 1 0 -0.92106102455300887 0 0.38941827005080493 0.38941827005080493 -0 0.92106102455300887 0.037988618016243099
2 0.183755397796631 0.032197311520576498 0.050000000000000003 -0 -1 -0 -0.92106100485563802 0 0.38941831663947502 0.38941831663947502 -0 0.92106100485563802 0.106936648488045
1 0 0 0 0 0 1 1 0 -0 -0 1 0 
5 0.183755397796631 0.032197311520576498 0.049999997019767803 0 -1 0 -1 0 0 0 0 1 0.072462633252143901 0.0344740152359009
5 0.183755397796631 0.032197311520576498 0.049999997019767803 0 -1 0 -1 0 0 -0 -0 -1 0.072462633252143901 0.0344740152359009
5 0.183755397796631 0.032197311520576498 0.049999997019767803 0 -1 0 -1 0 0 -0 -0 -1 0.072462633252143901 0.0344740152359009
5 0.14576677978038799 0.032197311520576498 0.049999997019767803 -0 -1 -0 -0.99500416527802582 0 0.099833416646828169 0.099833416646828169 -0 0.99500416527802582 0.034474015235900997 0.0344740152359009
5 0.183755397796631 0.032197311520576498 0.050000000000000003 -0 -1 -0 -0.98006658601208307 0 0.19866929048703103 0.19866929048703103 -0 0.98006658601208307 0.072462633252144096 0.0344740152359009
5 0.183755397796631 -0.0674454420804977 0.050000000000000003 -0 -1 -0 -0.92106101001882301 0 0.389418304427393 0.389418304427393 -0 0.92106101001882301 0.072462633252144096 0.0344740152359009
2 0.183755397796631 0.032197311520576498 0.049999997019767803 0 -1 0 -1 0 0 0 0 1 0.106936648488045
2 0.183755397796631 0.032197311520576498 0.049999997019767803 0 -1 0 -1 0 0 -0 -0 -1 0.106936648488045
2 0.183755397796631 0.032197311520576498 0.049999997019767803 0 -1 0 -1 0 0 -0 -0 -1 0.106936648488045
2 0.14576677978038799 0.032197311520576498 0.049999997019767803 -0 -1 -0 -0.99500416527802582 0 0.099833416646828169 0.099833416646828169 -0 0.99500416527802582 0.068948030471801897
2 0.183755397796631 0.032197311520576498 0.050000000000000003 -0 -1 -0 -0.98006658337798414 0 0.19866930348145104 0.19866930348145104 -0 0.98006658337798414 0.106936648488045
5 0.183755397796631 -0.0674454420804977 0.049999997019767803 0 -1 0 -1 0 0 0 0 1 0.072462633252143901 0.0344740152359009
5 0.183755397796631 -0.0674454420804977 0.049999997019767803 0 -1 0 -1 0 0 -0 -0 -1 0.072462633252143901 0.0344740152359009
5 0.183755397796631 -0.0674454420804977 0.049999997019767803 0 -1 0 -1 0 0 -0 -0 -1 0.072462633252143901 0.0344740152359009
5 0.14576677978038799 -0.0674454420804977 0.049999997019767803 -0 -1 -0 -0.99500416527802582 0 0.099833416646828169 0.099833416646828169 -0 0.99500416527802582 0.034474015235900997 0.0344740152359009
5 0.183755397796631 -0.0674454420804977 0.050000000000000003 -0 -1 -0 -0.98006658601208307 0 0.19866929048703103 0.19866929048703103 -0 0.98006658601208307 0.072462633252144096 0.0344740152359009
2 0.183755397796631 -0.0674454420804977 0.049999997019767803 0 1 0 -1 0 0 0 -0 1 0.037988618016243002
2 0.183755397796631 -0.0674454420804977 0.049999997019767803 0 1 0 -1 0 0 -0 0 -1 0.037988618016243002
2 0.183755397796631 -0.0674454420804977 0.049999997019767803 0 1 0 -1 0 0 -0 0 -1 0.037988618016243002
2 0.183755397796631 -0.0674454420804977 0.050000000000000003 0 1 0 -0.98006659342697899 0 0.19866925390819001 0.19866925390819001 -0 0.98006659342697899 0.037988618016243099
Triangulations 0

TShapes 22
Ve
1e-07
0.145766779780388 0.0321973115205765 0
0 0

0101101
*
Ed
 1e-07 1 1 0
1  1 0 0 6.28318530717959
2  1 1 0 0 6.28318530717959
2  2 2 0 0 6.28318530717959
4 G1 1 0 2 0
0

0101100
+22 3 -22 3 *
Ve
1e-07
0.0768187493085861 0.0321973115205765 0
0 0

0101101
*
Ed
 1e-07 1 1 0
1  2 0 0 6.28318530717959
2  3 1 0 0 6.28318530717959
2  4 3 0 0 6.28318530717959
4 G1 1 0 3 0
0

0101100
+20 3 -20 3 *
Ed
 1e-05 1 1 0
2  5 4 0 0 3.14159265358979
1  3 0 0 3.14159265358979
2  6 5 4 0 3.14159265358979
2  7 5 6 0 3.14159265358979
2  8 6 4 0 3.14159265358979
2  9 6 8 0 3.14159265358979
2  10 7 4 0 3.14159265358979
2  11 7 10 0 3.14159265358979
3  12 13CN 8 12 0 3.14159265358979
3  14 15CN 9 14 0 3.14159265358979
3  16 17CN 1 15 0 3.14159265358979
0

0101000
+22 0 -20 0 *
Wi

0101000
+21 0 -19 0 -18 3 +18 3 *
Fa
0  1e-05 1 0

0111000
+17 0 *
Ve
1e-07
0.0768187493085861 -0.0674454420804977 0
0 0

0101101
*
Ed
 1e-07 1 1 0
1  4 0 0 6.28318530717959
2  18 3 0 0 6.28318530717959
2  19 10 0 0 6.28318530717959
4 G1 3 0 10 0
0

0101100
+15 3 -15 3 *
Ed
 1e-05 1 1 0
2  20 4 0 0 0.0996427536010742
1  5 0 0 0.0996427536010742
2  21 11 4 0 0.0996427536010742
2  22 11 6 0 0.0996427536010742
2  23 12 4 0 0.0996427536010742
2  24 12 8 0 0.0996427536010742
2  25 13 4 0 0.0996427536010742
2  26 13 10 0 0.0996427536010742
3  27 28CN 14 12 0 0.0996427536010742
3  29 30CN 15 14 0 0.0996427536010742
3  31 32CN 3 15 0 0.0996427536010742
0

0101000
+20 0 -15 0 *
Wi

0101000
+19 0 -14 0 -13 3 +13 3 *
Fa
0  1e-05 3 0

0111000
+12 0 *
Ve
1e-07
0.145766779780388 -0.0674454420804977 0
0 0

0101101
*
Ed
 1e-07 1 1 0
1  6 0 0 6.28318530717959
2  33 10 0 0 6.28318530717959
2  34 2 0 0 6.28318530717959
4 G1 10 0 2 0
0

0101100
+10 3 -10 3 *
Ed
 1e-05 1 1 0
2  35 4 0 3.14159265358979 6.28318530717959
1  7 0 3.14159265358979 6.28318530717959
2  36 16 4 3.14159265358979 6.28318530717959
2  37 16 6 3.14159265358979 6.28318530717959
2  38 17 4 3.14159265358979 6.28318530717959
2  39 17 8 3.14159265358979 6.28318530717959
2  40 18 4 3.14159265358979 6.28318530717959
2  41 18 10 3.14159265358979 6.28318530717959
3  42 43CN 19 12 3.14159265358979 6.28318530717959
3  44 45CN 20 14 3.14159265358979 6.28318530717959
3  46 47CN 10 15 3.14159265358979 6.28318530717959
0

0101000
+15 0 -10 0 *
Wi

0101000
+14 0 -9 0 -8 3 +8 3 *
Fa
0  1e-05 10 0

0111000
+7 0 *
Ed
 1e-05 1 1 0
2  48 4 0 0 0.0996427536010742
1  8 0 0 0.0996427536010742
2  49 21 4 0 0.0996427536010742
2  50 21 6 0 0.0996427536010742
2  51 22 4 0 0.0996427536010742
2  52 22 8 0 0.0996427536010742
2  53 23 4 0 0.0996427536010742
2  54 23 10 0 0.0996427536010742
3  55 56CN 24 14 0 0.0996427536010742
3  57 58CN 2 15 0 0.0996427536010742
0

0101000
+10 0 -22 0 *
Wi

0101000
+9 0 -21 0 -5 3 +5 3 *
Fa
0  1e-05 2 0

0111000
+4 0 *
Sh

0101000
+16 0 +11 0 +6 0 +3 0 *
So

1100000
-2 0 *

+1 0 
0

