DBRep_DrawableShape

CASCADE Topology V1, (c) Matra-Datavision
Locations 0
Curve2ds 4
1 0 0 1 0 
1 0 6.2831853071795862 1 0 
1 6.2831853071795862 -0 0 1 
1 0 -0 0 1 
Curves 2
2 0 0 -2.4492935982947064e-16 0 0 1 1 0 -0 -0 1 0 4
2 3 -7.3478807948841188e-16 0 -2.4492935982947064e-16 -1 0 1 -2.4492935982947064e-16 0 0 0 1 1
Polygon3D 0
PolygonOnTriangulations 0
Surfaces 1
5 0 0 0 0 0 1 1 0 -0 -0 1 0 3 1
Triangulations 0

TShapes 7
Ve
1e-07
4 -9.79717439317883e-16 -2.44929359829471e-16
0 0

0101101
*
Ed
 1e-07 1 1 0
1  1 0 0 6.28318530717959
3  1 2CN 1 0 0 6.28318530717959
0

0101000
+7 0 -7 0 *
Ed
 1e-07 1 1 0
1  2 0 0 6.28318530717959
3  3 4CN 1 0 0 6.28318530717959
0

0101000
+7 0 -7 0 *
Wi

0101000
-6 0 +5 0 +6 0 -5 0 *
Fa
0  1e-07 1 0

0111000
+4 0 *
Sh

0101100
+3 0 *
So

1100100
+2 0 *

+1 0 
0

