DBRep_DrawableShape

CASCADE Topology V1, (c) Matra-Datavision
Locations 9
1
              1               0               0               0 
              0               1               0               0 
              0               0               1               0 
1
              1               0               0           -1120 
              0               1               0               0 
              0               0               1               0 
2  1 1 2 1 0
1
              1               0               0               0 
              0               1               0               0 
              0               0               1             100 
2  1 1 2 1 4 1 0
2  2 -1 1 -1 0
1
              1               0               0             100 
              0               1               0             100 
              0               0               1             100 
2  7 -1 2 -1 1 -1 0
2  4 -1 2 -1 1 -1 0
Curve2ds 29
1 0 0 0 -1 
1 0 0 0 -1 
1 278.21289098622998 0 0 -1 
1 0 0 0 -1 
1 0 -280 1 0 
7 0 0  10 101 12  106.312062860854 2.1306126777920502  104.79595233132601 -0.56361548687561802  103.255451994076 -3.24452306737536  101.688948508267 -5.9103867968676704  100.09486885775701 -8.5598606986045702  98.471630495747405 -11.1916689188565  96.817622140923703 -13.8044070339072  95.131215225737705 -16.396451831404299  93.410805996148795 -18.9659795657229  91.654888263392905 -21.511092687667801  88.965792777347204 -25.289533842877301  88.060240574219407 -26.542481625460798  87.145294635688899 -27.788633047447899  86.2207753280383 -29.027733650947599  85.286528947028899 -30.259539868994999  84.342427716625096 -31.4838190251943  83.388369790514105 -32.700349334129498  82.424279250662593 -33.90891990099  81.4501061084176 -35.109330721843797  78.989448087664599 -38.089435376520797  77.4904117305759 -39.858817287594398  75.967999771041306 -41.608167814667198  74.424134034119504 -43.339029902582702  72.857689445473696 -45.049434448084597  71.267638046841299 -46.737738847714297  69.654793271681299 -48.404536530164599  68.019098805394407 -50.049156177713598  66.356580595939405 -51.665981201178099  62.415032557080103 -55.372400093587501  60.114522921043701 -57.439241620289103  57.765397355043497 -59.451166779934901  55.359640989535798 -61.397597921922298  52.902566519222098 -63.279462497306099  50.393567627059802 -65.091141099062995  47.829991384532498 -66.825559911017393  45.216152683753897 -68.482266715522996  42.551596311241198 -70.053821775387306  38.481671271019501 -72.2775784762337  37.112918621272399 -72.996484163019204  35.7321006650863 -73.692364186575105  34.339379566044997 -74.364469758216202  32.934954775216497 -75.012025696913597  31.519063031623599 -75.6342304305537  30.091978361702999 -76.230255994446296  28.654012079792 -76.799248032715099  27.205512787783601 -77.340325797274105  23.559123780411799 -78.620886947521299  21.348502250593299 -79.324433769140498  19.116828762044801 -79.961011929124993  16.865938128671999 -80.528452285529795  14.5977970540994 -81.0246200838303  12.314589561017 -81.447405760682798  10.018763797491101 -81.7947137050229  7.7130402207088098 -82.064448977881099  5.4003811576996403 -82.254501989670104  0.76763149722539104 -82.470952378163403  -1.5525428807417601 -82.497181791549295  -3.8734162637215599 -82.442810847535796  -6.19142888019904 -82.303986079638904  -8.5039218889197592 -82.0870323749607  -10.807160003555699 -81.788579335233507  -13.0973338595838 -81.403576116094399  -15.3717415840546 -80.937371921108607  -17.627060484251 -80.391492809594993  -21.348917437876299 -79.350059869123399  -22.827817887465802 -78.898498533015001  -24.296421217509501 -78.413065053225907  -25.7541967574798 -77.895271381347996  -27.200607514919199 -77.346644803341505  -28.6352111563383 -76.768483003200203  -30.057693666289101 -76.161772420806301  -31.4678356841926 -75.527269904051096  -32.865411519315401 -74.865747655098602  -37.019604242012903 -72.803528033940296  -39.737268874063297 -71.324917682963402  -42.403472270245402 -69.750905774576907  -45.012888296334602 -68.087159134770801  -47.570897977595997 -66.343923633011798  -50.076237420946299 -64.5262961565777  -52.527820807380799 -62.6396131304164  -54.9320856554966 -60.693132100902098  -57.286278962669101 -58.687953182049696  -62.476581629156399 -54.0562922581001  -65.285687214917999 -51.400026396608297  -68.0230725767058 -48.6663769443402  -70.699902208061602 -45.880305099438402  -73.305103838544099 -43.016081826568197  -75.851978080811506 -40.111612230615101  -78.331349511006394 -37.141247614980898  -80.749605035887498 -34.126279112111902  -83.108611418928106 -31.064097556074898  -87.255033751580896 -25.4785533892031  -89.062309543117095 -22.969729453187998  -90.835708764111402 -20.436560716382999  -92.576753459791504 -17.8809857242722  -94.287024754304099 -15.304840690915499  -95.968298111510407 -12.7098520430108  -97.622567266903005 -10.0976574882229  -99.251956832969796 -7.4698556084190999  -100.85852357589999 -4.8280839772158002  -102.443946365176 -2.1741258022919898 
 0 11 30.916325011940899 9 46.374458237154798 9 69.561006462794296 9 100.47349372456701 9 115.92838368987 9 139.10831323802799 9 162.286549984863 9 177.74041602146499 9 208.65221913127101 9 247.296910237639 9 278.21289098622998 11
1 0 0 1 0 
1 0 -173.20508075688772 1 0 
1 0 0 0 1 
1 0 0 0 1 
1 0 0 1 0 
1 0 -100 1 0 
1 120.884559117873 0 0 -1 
1 111.232217675413 0 0 -1 
1 0 -280 1 0 
7 0 0  1 2 2  106.312062860854 2.1306126777920502  -4.4739736474077603 50.4993086278863 
 0 2 120.884559117873 2
7 0 0  1 2 2  112.419993374002 -96.081546849955203  0.073592682582727803 -51.456857665540099 
 0 2 120.884559117873 2
1 0 0 1 0 
1 0 -173.20508075688772 1 0 
1 0 0 0 1 
1 0 0 1 0 
1 0 -100 1 0 
1 0 -280 1 0 
7 0 0  1 2 2  -102.443946365176 -2.1741258022919898  -4.4739736474077496 50.4993086278863 
 0 2 111.232217675413 2
7 0 0  1 2 2  -96.0740801518008 -107.387450881801  0.073592682582734895 -51.456857665540099 
 0 2 111.232217675413 2
1 0 0 1 0 
1 0 -173.20508075688772 1 0 
1 0 0 1 0 
1 0 -100 1 0 
Curves 6
1 191.5 -312.608 93.121399999998502 0 0 1 
1 191.5 -318.423 -115.598 0 0 1 
7 0 0  3 39 37  1311.5 -312.608 93.121399999999895  1311.5 -314.862311110939 91.874230426555101  1311.5 -319.34609120904003 89.334008436375797  1311.5 -325.98085081148901 85.367835723313902  1311.5 -332.508828037049 81.227850525870096  1311.5 -338.91128366697302 76.8959260964984  1311.5 -345.16805214001198 72.35563051698  1311.5 -351.25689208608702 67.592267542648003  1311.5 -357.15935662849 62.599528986151299  1311.5 -362.862517071149 57.380277289511703  1311.5 -368.34013138577899 51.923998957847303  1311.5 -373.53366316674499 46.195480485082399  1311.5 -378.38109164171902 40.170208711939601  1311.5 -382.83226119302998 33.845707973473502  1311.5 -386.83718734299202 27.228803407069101  1311.5 -390.34264978848103 20.3334883988074  1311.5 -393.27963776226602 13.176108679219899  1311.5 -395.57038763626201 5.7851957803943899  1311.5 -397.15678821578803 -1.7890800390332799  1311.5 -397.982288584157 -9.4851850064775594  1311.5 -397.99001855560402 -17.225963371960599  1311.5 -397.18164342991099 -24.9243513460546  1311.5 -395.54751752119301 -32.491439915748103  1311.5 -393.12367102452203 -39.841498436765001  1311.5 -390.02940684279002 -46.932820077006198  1311.5 -386.35026621854598 -53.737514580489702  1311.5 -382.17104872410198 -60.245330515771897  1311.5 -377.57078565374098 -66.461254773884505  1311.5 -372.61715636527902 -72.398678231467898  1311.5 -367.36167851507702 -78.069676587631704  1311.5 -361.85667736469401 -83.497858619204194  1311.5 -356.13187152776197 -88.693235883207095  1311.5 -350.20905386543501 -93.6616752575638  1311.5 -344.11129697351299 -98.412975198853701  1311.5 -337.86389994062603 -102.965404111373  1311.5 -331.48882224959698 -107.33701080245601  1311.5 -325.00600783093398 -111.547099502693  1311.5 -320.62499164792501 -114.26086168317801  1311.5 -318.423 -115.598 
 0 4 7.7292139677977696 1 15.4581970063353 1 23.187420939564198 1 30.916325011940899 1 38.6452403491664 1 46.374458237154798 1 54.102980993801097 1 61.832116161463802 1 69.561006462794296 1 77.289130346376893 1 85.017246310827701 1 92.745646272009793 1 100.47349372456701 1 108.201193853972 1 115.92838368987 1 123.65512268277 1 131.38195252146099 1 139.10831323802799 1 146.83449737978901 1 154.560773694418 1 162.286549984863 1 170.013339155663 1 177.74041602146499 1 185.46783693662101 1 193.19554228555899 1 200.92373303372301 1 208.65221913127101 1 216.38131377682899 1 224.11000888273199 1 231.83854920028199 1 239.56748541492399 1 247.296910237639 1 255.02492181954 1 262.75428201298399 1 270.48397773791402 1 278.21289098622998 4
1 191.5 -265.04212000000001 -18.011690000000002 0 0 1 
7 0 0  1 2 2  1311.5 -312.608 93.121399999999994  1311.5 -265.04212000000001 -18.011690000000002 
 0 2 120.884559117873 2
7 0 0  1 2 2  1311.5 -318.423 -115.598  1311.5 -265.04212000000001 -18.011690000000002 
 0 2 111.232217675413 2
Polygon3D 0
PolygonOnTriangulations 5
18 1 3 4 5 6 7 8 9 10 11 12 13 14 15 16 17 18 2 
p 23.0683027602342 1 0 37.558740283141 64.9390619495509 83.4207790743775 98.822210011733 111.656735792863 123.540555960575 134.235994111517 143.861888447364 153.487782783211 163.113677119058 172.739571454905 184.998791398635 199.437632902406 218.324996752801 239.983259008457 259.098074997344 278.21289098623 
2 1 19 
p 23.0683027602342 1 0 120.884559117873 
2 18 17 
p 41.2690118164609 1 0 120.884559117873 
2 2 19 
p 23.0683027602342 1 0 111.232217675413 
2 14 17 
p 41.2690118164609 1 0 111.232217675413 
Surfaces 14
6 -0 -0 -1 
7 0 0  3 39 37  191.5 -312.608 93.121399999999895  191.5 -314.862311110939 91.874230426555101  191.5 -319.34609120904003 89.334008436375797  191.5 -325.98085081148901 85.367835723313902  191.5 -332.508828037049 81.227850525870096  191.5 -338.91128366697302 76.8959260964984  191.5 -345.16805214001198 72.35563051698  191.5 -351.25689208608702 67.592267542648003  191.5 -357.15935662849 62.599528986151299  191.5 -362.862517071149 57.380277289511703  191.5 -368.34013138577899 51.923998957847303  191.5 -373.53366316674499 46.195480485082399  191.5 -378.38109164171902 40.170208711939601  191.5 -382.83226119302998 33.845707973473502  191.5 -386.83718734299202 27.228803407069101  191.5 -390.34264978848103 20.3334883988074  191.5 -393.27963776226602 13.176108679219899  191.5 -395.57038763626201 5.7851957803943899  191.5 -397.15678821578803 -1.7890800390332799  191.5 -397.982288584157 -9.4851850064775594  191.5 -397.99001855560402 -17.225963371960599  191.5 -397.18164342991099 -24.9243513460546  191.5 -395.54751752119301 -32.491439915748103  191.5 -393.12367102452203 -39.841498436765001  191.5 -390.02940684279002 -46.932820077006198  191.5 -386.35026621854598 -53.737514580489702  191.5 -382.17104872410198 -60.245330515771897  191.5 -377.57078565374098 -66.461254773884505  191.5 -372.61715636527902 -72.398678231467898  191.5 -367.36167851507702 -78.069676587631704  191.5 -361.85667736469401 -83.497858619204194  191.5 -356.13187152776197 -88.693235883207095  191.5 -350.20905386543501 -93.6616752575638  191.5 -344.11129697351299 -98.412975198853701  191.5 -337.86389994062603 -102.965404111373  191.5 -331.48882224959698 -107.33701080245601  191.5 -325.00600783093398 -111.547099502693  191.5 -320.62499164792501 -114.26086168317801  191.5 -318.423 -115.598 
 0 4 7.7292139677977696 1 15.4581970063353 1 23.187420939564198 1 30.916325011940899 1 38.6452403491664 1 46.374458237154798 1 54.102980993801097 1 61.832116161463802 1 69.561006462794296 1 77.289130346376893 1 85.017246310827701 1 92.745646272009793 1 100.47349372456701 1 108.201193853972 1 115.92838368987 1 123.65512268277 1 131.38195252146099 1 139.10831323802799 1 146.83449737978901 1 154.560773694418 1 162.286549984863 1 170.013339155663 1 177.74041602146499 1 185.46783693662101 1 193.19554228555899 1 200.92373303372301 1 208.65221913127101 1 216.38131377682899 1 224.11000888273199 1 231.83854920028199 1 239.56748541492399 1 247.296910237639 1 255.02492181954 1 262.75428201298399 1 270.48397773791402 1 278.21289098622998 4
6 -0 -0 -1 
7 0 0  1 2 2  191.5 -312.608 93.121399999999994  191.5 -265.04212000000001 -18.011690000000002 
 0 2 120.884559117873 2
6 -0 -0 -1 
7 0 0  1 2 2  191.5 -318.423 -115.598  191.5 -265.04212000000001 -18.011690000000002 
 0 2 111.232217675413 2
6 1 3.6234550457097502e-16 2.9926985502996898e-16 
7 0 0  3 39 37  1591.5 -312.608 93.121399999999994  1591.5 -314.862311110939 91.874230426555201  1591.5 -319.34609120904003 89.334008436375896  1591.5 -325.98085081148901 85.367835723314002  1591.5 -332.508828037049 81.227850525870195  1591.5 -338.91128366697302 76.895926096498499  1591.5 -345.16805214001198 72.355630516980099  1591.5 -351.25689208608702 67.592267542648003  1591.5 -357.15935662849 62.599528986151398  1591.5 -362.862517071149 57.380277289511803  1591.5 -368.34013138577899 51.923998957847402  1591.5 -373.53366316674499 46.195480485082498  1591.5 -378.38109164171902 40.170208711939701  1591.5 -382.83226119302998 33.845707973473601  1591.5 -386.83718734299202 27.228803407069201  1591.5 -390.34264978848103 20.3334883988075  1591.5 -393.27963776226602 13.17610867922  1591.5 -395.57038763626201 5.7851957803944698  1591.5 -397.15678821578803 -1.7890800390332  1591.5 -397.982288584157 -9.4851850064774794  1591.5 -397.99001855560402 -17.2259633719605  1591.5 -397.18164342991099 -24.9243513460545  1591.5 -395.54751752119301 -32.491439915748003  1591.5 -393.12367102452203 -39.841498436765001  1591.5 -390.02940684279002 -46.932820077006099  1591.5 -386.35026621854598 -53.737514580489602  1591.5 -382.17104872410198 -60.245330515771798  1591.5 -377.57078565374098 -66.461254773884406  1591.5 -372.61715636527902 -72.398678231467798  1591.5 -367.36167851507702 -78.069676587631605  1591.5 -361.85667736469401 -83.497858619204095  1591.5 -356.13187152776197 -88.693235883206995  1591.5 -350.20905386543501 -93.661675257563701  1591.5 -344.11129697351203 -98.412975198853601  1591.5 -337.86389994062603 -102.965404111373  1591.5 -331.48882224959698 -107.33701080245601  1591.5 -325.00600783093398 -111.547099502693  1591.5 -320.62499164792501 -114.26086168317801  1591.5 -318.423 -115.598 
 0 4 7.7292139677977696 1 15.4581970063353 1 23.187420939564198 1 30.916325011940899 1 38.6452403491664 1 46.374458237154798 1 54.102980993801097 1 61.832116161463802 1 69.561006462794296 1 77.289130346376893 1 85.017246310827701 1 92.745646272009793 1 100.47349372456701 1 108.201193853972 1 115.92838368987 1 123.65512268277 1 131.38195252146099 1 139.10831323802799 1 146.83449737978901 1 154.560773694418 1 162.286549984863 1 170.013339155663 1 177.74041602146499 1 185.46783693662101 1 193.19554228555899 1 200.92373303372301 1 208.65221913127101 1 216.38131377682899 1 224.11000888273199 1 231.83854920028199 1 239.56748541492399 1 247.296910237639 1 255.02492181954 1 262.75428201298399 1 270.48397773791402 1 278.21289098622998 4
9 0 0 0 0 5 8 6 9 2 2 191.5 -406.91967393739998 -125.2023762888  191.5 -388.651621368007 -125.33454803036  191.5 -370.383574479424 -125.46671501825701  191.5 -352.11552827230702 -125.59888304727301  191.5 -333.84747957030999 -125.731055519705  191.5 -315.57942702000798 -125.863233445308  191.5 -297.31137109100399 -125.995415441379  191.5 -279.043314075826 -126.127597732667  191.5 -260.77526008999502 -126.259774151445  
191.5 -406.58739035359099 -79.277255940586301  191.49999999999699 -388.31933588598901 -79.409428541729696  191.50000000001 -370.05128394457802 -79.541600967629606  191.499999999978 -351.78324970326901 -79.673752320219094  191.500000000028 -333.51521027914998 -79.805913178854297  191.49999999997701 -315.24715198815397 -79.938100583238807  191.50000000001199 -296.97908626607699 -80.070296735551807  191.49999999999599 -278.71103425931301 -80.202471421919796  191.5 -260.44298008070803 -80.334648153009894  
191.5 -406.25512161988797 -33.352129553503801  191.50000000000199 -387.98705963161501 -33.484313123131699  191.499999999995 -369.718965802588 -33.616556133446501  191.50000000001299 -351.451024845311 -33.748463330512102  191.499999999983 -333.182853198369 -33.881083839788701  191.50000000001401 -314.91491162116898 -34.012778432385502  191.49999999999301 -296.64679058026098 -34.145219716079197  191.50000000000199 -278.37875235383001 -34.277348640613397  191.50000000000099 -260.11069789425699 -34.409525104793502  
191.5 -405.92284879363302 12.5730024686943  191.50000000000099 -387.65480121442198 12.4408393645794  191.49999999999301 -369.38670261715299 12.3086976022373  191.50000000001199 -351.11889259574798 12.1764910144355  191.499999999984 -332.85023225583302 12.0442321331839  191.50000000001401 -314.582786338277 11.9121398686154  191.49999999999201 -296.31449516247199 11.779940129897399  191.50000000000199 -278.04646864957402 11.6477719819752  191.49999999999901 -259.77841395556402 11.5155960497062  
191.5 -405.59056685472399 58.498134011749102  191.49999999999801 -387.32251174642499 58.365959498063603  191.500000000011 -369.05449185097098 58.233790065819299  191.499999999979 -350.78628678168502 58.101566520646699  191.500000000027 -332.518489473861 57.9694222850733  191.49999999997701 -314.250255731268 57.837247859192999  191.50000000001299 -295.98224319526003 57.705060934984203  191.49999999999699 -277.71418343657803 57.572891816582299  191.5 -259.446128689555 57.440716366990401  
191.5 -405.25828470561601 104.42325325089701  191.5 -386.99022980380801 104.29107688926899  191.5 -368.72217742495201 104.15889662686099  191.5 -350.45412477426203 104.026715827548  191.5 -332.18607024113402 103.894536646468  191.5 -313.91801339926502 103.762360030121  191.5 -295.64995500651298 103.63018571624499  191.5 -277.38189700502801 103.498012233938  191.5 -259.11384252115403 103.365836903561  

-112.688341001693 6
116.943269146939 6

-90.599010785401802 9
55.5492394906749 9

6 -0.57735026918962573 -0.57735026918962573 -0.57735026918962573 
7 0 0  3 39 37  191.5 -312.608 93.121399999999895  191.5 -314.862311110939 91.874230426555101  191.5 -319.34609120904003 89.334008436375797  191.5 -325.98085081148901 85.367835723313902  191.5 -332.508828037049 81.227850525870096  191.5 -338.91128366697302 76.8959260964984  191.5 -345.16805214001198 72.35563051698  191.5 -351.25689208608702 67.592267542648003  191.5 -357.15935662849 62.599528986151299  191.5 -362.862517071149 57.380277289511703  191.5 -368.34013138577899 51.923998957847303  191.5 -373.53366316674499 46.195480485082399  191.5 -378.38109164171902 40.170208711939601  191.5 -382.83226119302998 33.845707973473502  191.5 -386.83718734299202 27.228803407069101  191.5 -390.34264978848103 20.3334883988074  191.5 -393.27963776226602 13.176108679219899  191.5 -395.57038763626201 5.7851957803943899  191.5 -397.15678821578803 -1.7890800390332799  191.5 -397.982288584157 -9.4851850064775594  191.5 -397.99001855560402 -17.225963371960599  191.5 -397.18164342991099 -24.9243513460546  191.5 -395.54751752119301 -32.491439915748103  191.5 -393.12367102452203 -39.841498436765001  191.5 -390.02940684279002 -46.932820077006198  191.5 -386.35026621854598 -53.737514580489702  191.5 -382.17104872410198 -60.245330515771897  191.5 -377.57078565374098 -66.461254773884505  191.5 -372.61715636527902 -72.398678231467898  191.5 -367.36167851507702 -78.069676587631704  191.5 -361.85667736469401 -83.497858619204194  191.5 -356.13187152776197 -88.693235883207095  191.5 -350.20905386543501 -93.6616752575638  191.5 -344.11129697351299 -98.412975198853701  191.5 -337.86389994062603 -102.965404111373  191.5 -331.48882224959698 -107.33701080245601  191.5 -325.00600783093398 -111.547099502693  191.5 -320.62499164792501 -114.26086168317801  191.5 -318.423 -115.598 
 0 4 7.7292139677977696 1 15.4581970063353 1 23.187420939564198 1 30.916325011940899 1 38.6452403491664 1 46.374458237154798 1 54.102980993801097 1 61.832116161463802 1 69.561006462794296 1 77.289130346376893 1 85.017246310827701 1 92.745646272009793 1 100.47349372456701 1 108.201193853972 1 115.92838368987 1 123.65512268277 1 131.38195252146099 1 139.10831323802799 1 146.83449737978901 1 154.560773694418 1 162.286549984863 1 170.013339155663 1 177.74041602146499 1 185.46783693662101 1 193.19554228555899 1 200.92373303372301 1 208.65221913127101 1 216.38131377682899 1 224.11000888273199 1 231.83854920028199 1 239.56748541492399 1 247.296910237639 1 255.02492181954 1 262.75428201298399 1 270.48397773791402 1 278.21289098622998 4
7 191.5 -312.608 93.121399999998502 0 -0.39348185034632671 0.91933238464008815 
7 0 0  3 39 37  191.5 -312.608 93.121399999999895  191.5 -314.862311110939 91.874230426555101  191.5 -319.34609120904003 89.334008436375797  191.5 -325.98085081148901 85.367835723313902  191.5 -332.508828037049 81.227850525870096  191.5 -338.91128366697302 76.8959260964984  191.5 -345.16805214001198 72.35563051698  191.5 -351.25689208608702 67.592267542648003  191.5 -357.15935662849 62.599528986151299  191.5 -362.862517071149 57.380277289511703  191.5 -368.34013138577899 51.923998957847303  191.5 -373.53366316674499 46.195480485082399  191.5 -378.38109164171902 40.170208711939601  191.5 -382.83226119302998 33.845707973473502  191.5 -386.83718734299202 27.228803407069101  191.5 -390.34264978848103 20.3334883988074  191.5 -393.27963776226602 13.176108679219899  191.5 -395.57038763626201 5.7851957803943899  191.5 -397.15678821578803 -1.7890800390332799  191.5 -397.982288584157 -9.4851850064775594  191.5 -397.99001855560402 -17.225963371960599  191.5 -397.18164342991099 -24.9243513460546  191.5 -395.54751752119301 -32.491439915748103  191.5 -393.12367102452203 -39.841498436765001  191.5 -390.02940684279002 -46.932820077006198  191.5 -386.35026621854598 -53.737514580489702  191.5 -382.17104872410198 -60.245330515771897  191.5 -377.57078565374098 -66.461254773884505  191.5 -372.61715636527902 -72.398678231467898  191.5 -367.36167851507702 -78.069676587631704  191.5 -361.85667736469401 -83.497858619204194  191.5 -356.13187152776197 -88.693235883207095  191.5 -350.20905386543501 -93.6616752575638  191.5 -344.11129697351299 -98.412975198853701  191.5 -337.86389994062603 -102.965404111373  191.5 -331.48882224959698 -107.33701080245601  191.5 -325.00600783093398 -111.547099502693  191.5 -320.62499164792501 -114.26086168317801  191.5 -318.423 -115.598 
 0 4 7.7292139677977696 1 15.4581970063353 1 23.187420939564198 1 30.916325011940899 1 38.6452403491664 1 46.374458237154798 1 54.102980993801097 1 61.832116161463802 1 69.561006462794296 1 77.289130346376893 1 85.017246310827701 1 92.745646272009793 1 100.47349372456701 1 108.201193853972 1 115.92838368987 1 123.65512268277 1 131.38195252146099 1 139.10831323802799 1 146.83449737978901 1 154.560773694418 1 162.286549984863 1 170.013339155663 1 177.74041602146499 1 185.46783693662101 1 193.19554228555899 1 200.92373303372301 1 208.65221913127101 1 216.38131377682899 1 224.11000888273199 1 231.83854920028199 1 239.56748541492399 1 247.296910237639 1 255.02492181954 1 262.75428201298399 1 270.48397773791402 1 278.21289098622998 4
7 191.5 -318.423 -115.598 0 -0.47990484335905975 -0.87732054650539015 
7 0 0  3 39 37  191.5 -312.608 93.121399999999895  191.5 -314.862311110939 91.874230426555101  191.5 -319.34609120904003 89.334008436375797  191.5 -325.98085081148901 85.367835723313902  191.5 -332.508828037049 81.227850525870096  191.5 -338.91128366697302 76.8959260964984  191.5 -345.16805214001198 72.35563051698  191.5 -351.25689208608702 67.592267542648003  191.5 -357.15935662849 62.599528986151299  191.5 -362.862517071149 57.380277289511703  191.5 -368.34013138577899 51.923998957847303  191.5 -373.53366316674499 46.195480485082399  191.5 -378.38109164171902 40.170208711939601  191.5 -382.83226119302998 33.845707973473502  191.5 -386.83718734299202 27.228803407069101  191.5 -390.34264978848103 20.3334883988074  191.5 -393.27963776226602 13.176108679219899  191.5 -395.57038763626201 5.7851957803943899  191.5 -397.15678821578803 -1.7890800390332799  191.5 -397.982288584157 -9.4851850064775594  191.5 -397.99001855560402 -17.225963371960599  191.5 -397.18164342991099 -24.9243513460546  191.5 -395.54751752119301 -32.491439915748103  191.5 -393.12367102452203 -39.841498436765001  191.5 -390.02940684279002 -46.932820077006198  191.5 -386.35026621854598 -53.737514580489702  191.5 -382.17104872410198 -60.245330515771897  191.5 -377.57078565374098 -66.461254773884505  191.5 -372.61715636527902 -72.398678231467898  191.5 -367.36167851507702 -78.069676587631704  191.5 -361.85667736469401 -83.497858619204194  191.5 -356.13187152776197 -88.693235883207095  191.5 -350.20905386543501 -93.6616752575638  191.5 -344.11129697351299 -98.412975198853701  191.5 -337.86389994062603 -102.965404111373  191.5 -331.48882224959698 -107.33701080245601  191.5 -325.00600783093398 -111.547099502693  191.5 -320.62499164792501 -114.26086168317801  191.5 -318.423 -115.598 
 0 4 7.7292139677977696 1 15.4581970063353 1 23.187420939564198 1 30.916325011940899 1 38.6452403491664 1 46.374458237154798 1 54.102980993801097 1 61.832116161463802 1 69.561006462794296 1 77.289130346376893 1 85.017246310827701 1 92.745646272009793 1 100.47349372456701 1 108.201193853972 1 115.92838368987 1 123.65512268277 1 131.38195252146099 1 139.10831323802799 1 146.83449737978901 1 154.560773694418 1 162.286549984863 1 170.013339155663 1 177.74041602146499 1 185.46783693662101 1 193.19554228555899 1 200.92373303372301 1 208.65221913127101 1 216.38131377682899 1 224.11000888273199 1 231.83854920028199 1 239.56748541492399 1 247.296910237639 1 255.02492181954 1 262.75428201298399 1 270.48397773791402 1 278.21289098622998 4
6 1 0 0 
7 0 0  1 2 2  1591.5 -312.608 93.121399999999994  1591.5 -265.04212000000001 -18.011690000000002 
 0 2 120.884559117873 2
9 0 0 0 0 8 8 9 9 2 2 191.5 -326.08464503098901 -232.62231767743299  191.49999999999901 -289.14906260457599 -231.649943877808  191.50000000000301 -252.21347791694501 -230.67756364993099  191.49999999999599 -215.277893001819 -229.70518071715099  191.50000000000199 -178.342309061799 -228.73279771185  191.5 -141.406726468241 -227.760416175274  191.49999999999901 -104.471144761376 -226.788036557716  191.5 -67.535562650224804 -225.81565821837  191.5 -30.599978012642101 -224.84327942541699  
191.49999999999801 -327.41712291852798 -182.008436086042  191.49999999999201 -290.48154099059798 -181.03606537443301  191.500000000021 -253.545953220684 -180.063680929285  191.49999999995799 -216.61036797167699 -179.09129422263999  191.500000000049 -179.67478556663201 -178.11891131925299  191.499999999952 -142.73920248309599 -177.146533836782  191.50000000002601 -105.803615546386 -176.174159911343  191.49999999999 -68.868026124076906 -175.20178515724601  191.49999999999801 -31.932444319443501 -174.22940363159901  
191.50000000000699 -328.74960040799402 -131.39454576031099  191.500000000027 -291.81402325082001 -130.422194211511  191.49999999992201 -254.87832760911201 -129.44964183816401  191.50000000017499 -217.94307758238301 -128.477376383869  191.49999999977999 -181.00695700044901 -127.5051919337  191.500000000216 -144.071947944779 -126.532422542839  191.49999999987901 -107.136052752797 -125.56033349523101  191.500000000044 -70.200455534940602 -124.58792160484801  191.50000000000699 -33.264918259045103 -123.61552056631599  
191.499999999989 -330.08207812862003 -80.780653368469601  191.49999999994 -293.14649776464898 -79.808288117374303  191.50000000018699 -256.21134694398103 -78.836970828700402  191.49999999960301 -219.27439388532801 -77.861875621276795  191.50000000049999 -182.340721738935 -76.892509972365801  191.49999999952399 -145.403555216585 -75.918195891288406  191.50000000026901 -108.468663626302 -74.946477329316807  191.499999999908 -71.533100227973605 -73.973983945493501  191.499999999989 -34.5973959120766 -73.001632578924898  
191.500000000011 -331.414556479672 -30.166763227786699  191.500000000076 -294.47897200958198 -29.1943806101749  191.49999999974699 -257.54282417508603 -28.220591079859702  191.50000000053001 -220.60908911405099 -27.252448388201099  191.49999999931899 -183.670977994711 -26.274693738094399  191.50000000064401 -146.73736582488601 -25.3061528000236  191.499999999632 -109.800983896977 -24.332310393116099  191.50000000012199 -72.865304652446298 -23.360118208247201  191.500000000011 -35.9298749371358 -22.3877419998961  
191.499999999994 -332.74703562996001 20.447122695587701  191.49999999993099 -295.81145183170298 21.419502109721002  191.50000000023201 -258.87628044161801 22.391022514186901  191.49999999953101 -221.93931783708601 23.3660515411053  191.50000000060001 -185.00560381339599 24.334984987902399  191.499999999442 -148.06862803956599 25.309885183562599  191.50000000031901 -111.133488763871 26.281304047906399  191.499999999896 -74.198067374617196 27.253741774230999  191.499999999994 -37.2623545706629 28.226148859323899  
191.50000000000301 -334.07951551843399 71.061004786431596  191.50000000003701 -297.14393387910599 72.033372586065397  191.49999999987401 -260.20821168360101 73.005972514973294  191.500000000254 -223.27306248389999 73.977628599732199  191.49999999967201 -186.33693295548301 74.950984140192404  191.50000000030499 -149.40173127330101 75.922634821586996  191.49999999982501 -112.466096104453 76.895264740134706  191.50000000005701 -75.530367776056494 77.867678947474104  191.50000000000301 -38.594835627094596 78.840037706145907  
191.49999999999901 -335.41199585363898 121.67488578062201  191.49999999998801 -298.47641119997598 122.64726185991  191.500000000038 -261.54081156932699 123.61964587735601  191.49999999992801 -224.60529059404899 124.591999236587  191.50000000008899 -187.66959195987801 125.564439778853  191.49999999991999 -150.734127196065 126.53675144801301  191.50000000004599 -113.79847664068799 127.509170825044  191.49999999998499 -76.862900332502605 128.48154695816601  191.49999999999901 -39.92732049872 129.453922266989  
191.5 -336.744476114093 172.28877076502101  191.49999999999901 -299.80889200405301 173.261147542467  191.50000000000301 -262.87330824593101 174.233525909599  191.49999999999599 -225.93772484093199 175.20590534482301  191.50000000000199 -189.002141790303 176.178285326577  191.5 -152.06655909524599 177.15066533326399  191.49999999999901 -115.13097675699299 178.123044843315  191.5 -78.195394776765198 179.09542333514599  191.5 -41.259813155783597 180.067800287176  

-212.85623409075001 9
192.19514923172099 9

-118.126195969981 9
177.460853448015 9

6 -0.57735026918962573 -0.57735026918962573 -0.57735026918962573 
7 0 0  1 2 2  191.5 -312.608 93.121399999999994  191.5 -265.04212000000001 -18.011690000000002 
 0 2 120.884559117873 2
7 191.5 -318.423 -115.598 0 -0.47990484335905975 -0.87732054650539015 
7 0 0  1 2 2  191.5 -312.608 93.121399999999994  191.5 -265.04212000000001 -18.011690000000002 
 0 2 120.884559117873 2
6 1 0 0 
7 0 0  1 2 2  1591.5 -318.423 -115.598  1591.5 -265.04212000000001 -18.011690000000002 
 0 2 111.232217675413 2
6 -0.57735026918962573 -0.57735026918962573 -0.57735026918962573 
7 0 0  1 2 2  191.5 -318.423 -115.598  191.5 -265.04212000000001 -18.011690000000002 
 0 2 111.232217675413 2
Triangulations 2
19 17 1 23.0683027602342
191.5 -312.608 93.1213999999985 191.5 -318.423 -115.598 191.5 -344.270607480515 72.9702346235862 191.5 -365.053468043715 55.1753925640964 191.5 -377.346177855686 41.3896109660955 191.5 -385.940274559715 28.6195701915079 191.5 -391.630478472336 17.1217392201815 191.5 -395.42417898741 5.86554591039316 191.5 -397.423063762555 -4.63754144981436 191.5 -397.947603962257 -14.2465310441875 191.5 -397.205646428967 -23.8413579063228 191.5 -395.194296338057 -33.2521016086209 191.5 -391.997446580175 -42.3295193006923 191.5 -386.504566868535 -53.283334182347 191.5 -378.423957821121 -65.2410325609598 191.5 -365.959128583618 -79.4172957059015 191.5 -349.85642516767 -93.886522346376 191.5 -334.499766209861 -105.261828363437 191.5 -265.04212 -18.01169 106.312062860854 2.13061267779204 -102.443946365176 -2.174125802292 85.9323320595012 -29.3853657522039 67.9875859190467 -50.0389212523747 54.1132358595812 -62.2315864611914 41.2813595085415 -70.7330684035974 29.7426709644894 -76.3399192912563 18.4592921753288 -80.0520884830761 7.9420449810295 -81.9749314479517 -1.67050000702916 -82.4299444133338 -11.2597072561628 -81.6185722962279 -20.6556504702849 -79.5392001468629 -29.7097078109108 -76.2767413352938 -40.6234774916749 -70.7047760135146 -52.5224152949599 -62.5378533944369 -66.6081168585352 -49.970779853132 -80.9604484846332 -33.7638038637535 -92.2243665991793 -18.3252530863059 -4.47397364740776 50.4993086278863 19 14 13 13 12 19 15 14 19 18 17 19 19 16 15 16 19 17 2 18 19 12 11 19 19 10 9 19 8 7 9 8 19 19 7 6 19 5 4 5 19 6 3 1 19 3 19 4 10 19 11 
20 18 1 41.2690118164609
191.5 -56.9271999999996 162.176999999999 191.5 -56.3910999999997 -206.165 191.5 -96.2774431979408 113.882523118905 191.5 -114.865724181326 83.6980937251153 191.5 -128.629675943876 52.5429551438754 191.5 -137.152478184348 22.1773297454527 191.5 -140.985540424244 -5.95053494634529 191.5 -141.02767755489 -34.3434575818004 191.5 -137.326589138991 -62.4875948070272 191.5 -129.966454047393 -89.9065676344442 191.5 -119.330271289566 -116.230505839828 191.5 -101.619260932004 -147.832684436745 191.5 -80.0729147861988 -177.822378478452 191.5 -318.423 -115.598 191.5 -234.719356656289 -155.351397405475 191.5 -146.332207772802 -183.46134957512 191.5 -265.04212 -18.01169 191.5 -312.608 93.1213999999985 191.5 -173.342071098734 141.384706142484 191.5 -244.661456142749 122.024389456709 174.722862937928 161.328048589105 -193.505667355227 152.170218859687 127.480715749802 120.720465705122 97.7959081979694 101.344240701642 67.013808910698 86.7651552895553 36.8829904899112 77.4461524812291 8.86574373368629 72.8741701479495 -19.5162358391304 72.0848243118687 -47.7480275279203 75.0439548692244 -75.3511862799732 81.6799312153231 -101.945948427107 91.6196889261227 -134.003277562552 108.492867601267 -164.549617743908 129.242500457364 -96.0740801517998 -107.387450881801 -138.016557326567 -24.7589986227091 -168.442879001134 62.8577603226385 0.0735926825827278 -51.4568576655401 112.419993374002 -96.0815468499552 157.001488526959 44.4063030249095 139.524806675067 -27.3978900050086 11 16 15 17 8 9 17 15 14 15 17 9 10 15 9 13 2 16 11 12 16 10 11 15 13 16 12 17 7 8 6 7 17 6 17 20 20 17 18 5 20 19 5 6 20 3 4 19 1 3 19 5 19 4 

TShapes 16
Ve
1e-07
1311.5 -312.608 93.1213999999985
0 0

0101101
*
Ed
 1e-07 1 1 0
1  1 0 0 100
2  1 1 0 0 100
2  2 2 0 0 100
0

0101000
+16 3 -16 5 *
Ve
1e-07
1311.5 -318.423 -115.598
0 0

0101101
*
Ed
 1e-07 1 1 0
1  2 0 0 100
2  3 1 0 0 100
2  4 3 0 0 100
0

0101000
+14 3 -14 5 *
Ed
 1e-07 1 1 0
1  3 0 0 278.21289098623
2  5 4 0 0 278.21289098623
2  6 5 6 0 278.21289098623
6  1 1 6
2  7 6 6 0 278.21289098623
2  8 6 8 0 278.21289098623
2  9 7 6 0 278.21289098623
2  10 8 6 0 278.21289098623
2  11 1 6 0 278.21289098623
2  12 1 9 0 278.21289098623
0

0101000
+16 0 -14 0 *
Wi

0101000
+15 0 -13 0 -12 3 +12 5 *
Fa
0  1e-07 1 0

0101000
+11 0 *
Ve
1e-07
1311.5 -265.04212 -18.01169
0 0

0101101
*
Ed
 1e-07 1 1 0
1  4 0 0 100
2  13 2 0 0 100
2  14 3 0 0 100
0

0101000
+9 3 -9 5 *
Ed
 1e-07 1 1 0
1  5 0 0 120.884559117873
2  15 9 0 0 120.884559117873
2  16 5 6 0 120.884559117873
2  17 10 6 0 120.884559117873
6  2 1 6
6  3 2 6
2  18 11 6 0 120.884559117873
2  19 11 8 0 120.884559117873
2  20 12 6 0 120.884559117873
2  21 2 6 0 120.884559117873
2  22 2 9 0 120.884559117873
0

0101000
+16 0 -9 0 *
Wi

0101000
+15 0 -8 0 -7 3 +7 5 *
Fa
0  1e-07 2 0

0101000
+6 0 *
Ed
 1e-07 1 1 0
1  6 0 0 111.232217675413
2  23 13 0 0 111.232217675413
2  24 5 6 0 111.232217675413
2  25 10 6 0 111.232217675413
6  4 1 6
6  5 2 6
2  26 14 6 0 111.232217675413
2  27 14 8 0 111.232217675413
2  28 3 6 0 111.232217675413
2  29 3 9 0 111.232217675413
0

0101000
+14 0 -9 0 *
Wi

0101000
+13 0 -8 0 -4 3 +4 5 *
Fa
0  1e-07 3 0

0101000
+3 0 *
Sh

1101000
-10 0 +5 0 -2 0 *

+1 0 
0

