DBRep_DrawableShape

CASCADE Topology V1, (c) Matra-Datavision
Locations 8
1
              1               0               0             2.5 
              0               1               0               0 
              0               0               1               0 
2  1 -1 0
1
              1               0               0           -52.5 
              0               1               0               0 
              0               0               1               0 
2  3 -1 0
1
              1               0               0             2.5 
              0               1               0               0 
             -0               0               1               0 
2  5 -1 0
1
              1               0               0           -52.5 
              0               1               0               0 
             -0               0               1               0 
2  7 -1 0
Curve2ds 28
2 0 0 -1 0 0 1 13
1 0 6.283185307179588 1 0 
2 0 0 -1 0 0 1 16
1 0 0 1 0 
1 0 4 1 0 
2 0 0 1 0 -0 1 16
1 6.2831853071795862 0 0 1 
1 0 0 0 1 
2 0 0 -1 0 0 1 4
1 0 0 1 0 
1 0 3 1 0 
1 0 3.1415926535897931 1 0 
1 6.2831853071795862 0 0 1 
1 0 0 0 1 
1 0 4.4285948711763634 1 0 
1 0 4.9961830895930177 1 0 
8 0 1.2870022175865701
1 0 -2.5 1 0 
8 0 1.2870022175865701
1 0 52.5 1 0 
8 0 1.2870022175865701
1 0 -2.5 1 0 
8 0 1.2870022175865701
1 0 52.5 1 0 
1 6.2831853071795862 3.1415926535897931 0 1 
1 0 3.1415926535897931 0 1 
8 0 1.2870022175865701
1 6.2831853071795898 -2.5 -1 0 
8 0 1.2870022175865701
1 6.2831853071795898 52.5 -1 0 
8 0 1.2870022175865701
1 6.2831853071795862 -2.5 -1 -0 
8 0 1.2870022175865701
1 6.2831853071795862 52.5 -1 -0 
1 6.2831853071795862 4.9961830895930177 0 1 
1 0 4.9961830895930177 0 1 
Curves 10
2 50 61 3 0 0 1 0 -1 0 1 0 -0 13
2 50 61 3 0 0 1 0 -1 0 1 0 -0 16
2 50 61 -1 0 0 1 0 -1 0 1 0 -0 16
1 50 45 3 0 0 -1 
2 50 61 18 0 0 1 0 -1 0 1 0 -0 4
2 50 61 15 0 0 1 0 -1 0 1 0 -0 4
1 50 57 18 0 0 -1 
2 50 61 9 0 0 1 0 -1 0 1 0 -0 8.5
2 50 50.75 15 -1 0 0 0 1 0 0 0 -1 6.25
2 50 54.25 3 1 0 0 0 -0.28000000000000003 0.95999999999999996 0 -0.95999999999999996 -0.28000000000000003 6.25
Polygon3D 0
PolygonOnTriangulations 0
Surfaces 11
1 50 61 3 0 0 1 -0 1 -0 1 0 -0 
5 50 61 3 -0 -0 -1 0 -1 0 1 0 -0 6.75 6.25
2 50 61 3 -0 -0 -1 0 -1 0 1 -0 -0 16
1 50 61 -1 0 0 1 0 -1 0 1 0 -0 
1 50 61 18 0 0 1 -0 1 -0 1 0 -0 
2 50 61 18 -0 -0 -1 0 -1 0 1 -0 -0 4
5 50 61 15 0 0 1 0 -1 0 1 0 -0 10.25 6.25
10 0 1.2870022175865701 -2.5 52.5
2 50 50.75 15 -1 0 0 0 1 0 0 0 -1 6.25
10 0 1.2870022175865701 -2.5 52.5
2 50 50.75 15 -1 0 0 0 1 0 0 0 -1 6.25
10 4.9961830895930204 6.2831853071795898 -2.5 52.5
2 50 54.25 3 -1 0 0 0 -0.28000000000000003 0.95999999999999996 0 0.95999999999999996 0.28000000000000003 6.25
10 4.9961830895930159 6.2831853071795862 -2.5 52.5
2 50 54.25 3 -1 0 0 0 -0.28000000000000003 0.95999999999999996 0 0.95999999999999996 0.28000000000000003 6.25
Triangulations 0

TShapes 32
Ve
1.000000081886e-07
50 48 3
0 0

0101100
*
Ed
 1.000000081886e-07 1 1 0
1  1 0 0 6.28318530717959
2  1 1 0 0 6.28318530717959
2  2 2 0 0 6.28318530717959
0

0101100
+32 0 -32 0 *
Wi

0101000
+31 0 *
Ve
1e-07
50 45 3
0 0

0101100
*
Ed
 1e-07 1 1 0
1  2 0 0 6.28318530717959
2  3 1 0 0 6.28318530717959
2  4 3 0 0 6.28318530717959
0

0101100
+29 0 -29 0 *
Wi

0101000
-28 0 *
Fa
0  1e-07 1 0

0101000
+30 0 +27 0 *
Ve
1e-07
50 45 -1
0 0

0101100
*
Ed
 1e-07 1 1 0
1  3 0 0 6.28318530717959
2  5 3 0 0 6.28318530717959
2  6 4 0 0 6.28318530717959
0

0101100
+25 0 -25 0 *
Ed
 1e-07 1 1 0
1  4 0 0 4
3  7 8CN 3 0 0 4
0

0101000
+29 0 -25 0 *
Wi

0101000
+28 0 -24 0 -23 0 +23 0 *
Fa
0  1e-07 3 0

0101000
+22 0 *
Wi

0101000
+24 0 *
Fa
0  1e-07 4 0

0101000
+20 0 *
Ve
1e-07
50 57 18
0 0

0101100
*
Ed
 1e-07 1 1 0
1  5 0 0 6.28318530717959
2  9 5 0 0 6.28318530717959
2  10 6 0 0 6.28318530717959
0

0101100
+18 0 -18 0 *
Wi

0101000
-17 0 *
Fa
0  1e-07 5 0

0101000
+16 0 *
Ve
1.00000001776357e-07
50 57 15
0 0

0101100
*
Ed
 1.00000001776357e-07 1 1 0
1  6 0 0 6.28318530717959
2  11 6 0 0 6.28318530717959
2  12 7 0 0 6.28318530717959
4 G1 6 0 7 0
0

0101100
+14 0 -14 0 *
Ed
 1e-07 1 1 0
1  7 0 0 3
3  13 14CN 6 0 0 3
0

0101000
+18 0 -14 0 *
Wi

0101000
+17 0 -13 0 -12 0 +12 0 *
Fa
0  1e-07 6 0

0101000
+11 0 *
Ve
1.00000007944109e-07
50 52.5 9
0 0

0101100
*
Ed
 1.00000007944109e-07 1 1 0
1  8 0 0 6.28318530717959
2  15 7 0 0 6.28318530717959
2  16 2 0 0 6.28318530717959
4 C1 7 0 2 0
0

0101100
+9 0 -9 0 *
Ed
 1e-07 1 1 0
1  9 0 0 1.28700221758657
2  17 8 2 0 1.28700221758657
2  18 8 4 0 1.28700221758657
2  19 9 6 0 1.28700221758657
2  20 9 8 0 1.28700221758657
3  21 22CN 7 0 0 1.28700221758657
0

0101000
+14 0 -9 0 *
Wi

0101000
+13 0 -8 0 -7 0 +7 0 *
Fa
0  1e-07 7 0

0101000
+6 0 *
Ed
 1e-07 1 1 0
1  10 0 0 1.28700221758657
2  23 10 2 0 1.28700221758657
2  24 10 4 0 1.28700221758657
2  25 11 6 0 1.28700221758657
2  26 11 8 0 1.28700221758657
3  27 28CN 2 0 0 1.28700221758657
0

0101000
+9 0 -32 0 *
Wi

0101000
+8 0 -31 0 -4 0 +4 0 *
Fa
0  1e-07 2 0

0101000
+3 0 *
Sh

1101000
+26 0 +21 0 +19 0 +15 0 +10 0 +5 0 +2 0 *

+1 0 
0

