DBRep_DrawableShape

CASCADE Topology V1, (c) Matra-Datavision
Locations 10
1
              1               0               0               0 
              0               1               0               0 
              0               0               1             0.5 
1
              1               0               0               0 
              0               1               0               0 
              0               0               1             100 
2  2 -1 0
1
              1               0               0               0 
              0               1               0               0 
              0               0               1              20 
2  4 -1 0
1
              1               0               0               0 
              0               1               0               0 
              0               0               1              10 
2  6 -1 0
1
              1               0               0               0 
              0               1               0               0 
              0               0               1               2 
2  8 -1 0
2  1 -1 0
Curve2ds 84
1 6.28318530717966 0 0 -1 
1 6.59213515568866 0 0 -1 
2 -3.4980599647266102 -0.34910446767709402 1 0 0 -1 0.45000000000000301
1 0 0 1 0 
1 0 -100 1 0 
1 0 0 1 0 
1 0 -20 1 0 
1 0 0 1 0 
1 0 -10 1 0 
1 0 0 1 0 
1 0 -2 1 0 
1 0 0 1 0 
1 0 -0.5 1 0 
1 6.28318530717966 0 0 -1 
1 -3.0480599647265998 -0.14991181657851199 6.9529274998540398e-14 1 
1 6.2271575732623399 0 0 -1 
1 2.1236948601273 0 0 -1 
2 -3.4980599647266102 -0.20815195401859701 1 0 0 -1 0.45000000000000301
1 0 0 1 0 
1 0 -100 1 0 
1 0 0 1 0 
1 0 -20 1 0 
1 0 0 1 0 
1 0 -10 1 0 
1 0 0 1 0 
1 0 -2 1 0 
1 0 0 1 0 
1 0 -0.5 1 0 
1 1.5707963267949001 0 0 -1 
2 -2.8124458338089098 0.20000000000000301 1 0 0 -1 0.45000000000000301
1 0 0 1 0 
1 0 -100 1 0 
1 0 0 1 0 
1 0 -20 1 0 
1 0 0 1 0 
1 0 -10 1 0 
1 0 0 1 0 
1 0 -2 1 0 
1 0 0 1 0 
1 0 -0.5 1 0 
1 7.8539816339744801 0 0 -1 
1 -2.0033670033669999 -0.25 -1 0 
1 6.9992503368888297 0 0 -1 
2 -2.0944542874697998 0.20000000000000301 1 0 0 -1 0.45000000000000301
1 0 0 1 0 
1 0 -100 1 0 
1 0 0 1 0 
1 0 -20 1 0 
1 0 0 1 0 
1 0 -10 1 0 
1 0 0 1 0 
1 0 -2 1 0 
1 0 0 1 0 
1 0 -0.5 1 0 
1 -0.90166911666685601 0.88527740568672497 -0.65642124145070302 -0.75439456107021197 
1 4.3050904061087598 0 0 -1 
1 0 0.79938271604940103 -1 0 
1 3.14159265358979 0 0 -1 
2 -0.72690396023720905 0.38619528619530302 1 0 0 -1 0.45000000000000301
1 0 0 1 0 
1 0 -100 1 0 
1 0 0 1 0 
1 0 -20 1 0 
1 0 0 1 0 
1 0 -10 1 0 
1 0 0 1 0 
1 0 -2 1 0 
1 0 0 1 0 
1 0 -0.5 1 0 
1 3.14159265358979 0 0 -1 
1 -1.17690396023721 0.58619528619530603 0 -1 
1 2.5525616833734799 0 0 -1 
2 -0.72690396023720905 -0.235930735930694 1 0 0 -1 0.45000000000000301
1 0 0 1 0 
1 0 -100 1 0 
1 0 0 1 0 
1 0 -20 1 0 
1 0 0 1 0 
1 0 -10 1 0 
1 0 0 1 0 
1 0 -2 1 0 
1 0 0 1 0 
1 0 -0.5 1 0 
1 -4.5518678852012 -0.48593073593069402 1 -4.5732174651640399e-15 
Curves 24
1 -93.292126022125998 -49.421671406910697 0.75 0 0 1 
1 -93.3134319910085 -49.558497675164297 0.75 0 0 1 
2 -93.742126022126001 -49.421671406910697 0.75 0 0 -1 1 0 0 0 -1 0 0.45000000000000301
1 -93.292126022125998 -49.2807188932522 0.75 0 0 1 
1 -93.292126022125998 -49.222478755812098 0.75 6.9529274998540398e-14 1 0 
1 -93.292832136450698 -49.255519601697998 0.75 0 0 1 
2 -93.742126022126001 -49.2807188932522 0.75 0 0 -1 1 0 0 0 -1 0 0.45000000000000301
1 -93.056511891208302 -49.322566939233603 0.75 0 0 1 
2 -93.056511891208302 -48.8725669392336 0.75 0 0 -1 1 0 0 0 -1 0 0.45000000000000301
1 -92.338520344869195 -49.322566939233603 0.75 0 0 1 
1 -92.247433060766397 -49.322566939233603 0.75 -1 0 0 
1 -91.999042792387598 -49.167956497886401 0.75 0 0 1 
2 -92.338520344869195 -48.8725669392336 0.75 0 0 -1 1 0 0 0 -1 0 0.45000000000000301
1 -91.2204747121948 -48.273184226620003 0.75 0 0 1 
1 -91.145735174066203 -48.187289533546902 0.75 -0.65642124145070302 -0.75439456107021197 0 
1 -91.149228671874098 -48.273184223184202 0.75 0 0 1 
1 -90.244066057399394 -48.273184223184202 0.75 -1 0 0 
1 -91.420970017636606 -48.6863716530383 0.75 0 0 1 
2 -90.970970017636603 -48.6863716530383 0.75 0 0 -1 1 0 0 0 -1 0 0.45000000000000301
1 -91.420970017636606 -49.308497675164297 0.75 0 0 1 
1 -91.420970017636606 -48.486371653038297 0.75 0 -1 0 
1 -91.345135756313994 -49.558497675164297 0.75 0 0 1 
2 -90.970970017636603 -49.308497675164297 0.75 0 0 -1 1 0 0 0 -1 0 0.45000000000000301
1 -94.795933942600598 -49.558497675164297 0.75 1 -4.5732174651640399e-15 0 
Polygon3D 0
PolygonOnTriangulations 0
Surfaces 37
2 -93.742126022126001 -49.421671406910697 0.75 0 0 -1 1 0 0 0 -1 0 0.45000000000000301
1 -93.292126022126013 -49.421671406910711 0.75 -1 6.9529274998540398e-14 0 6.9529274998540398e-14 1 0 0 0 -1 
1 -90.244066057399394 -49.072566939233603 0.75 0 0 1 1 0 -0 -0 1 0 
2 -93.742126022126001 -49.421671406910697 0.75 0 0 -1 1 0 0 0 -1 0 0.45000000000000301
2 -93.742126022126001 -49.421671406910697 0.75 0 0 -1 1 0 0 0 -1 0 0.45000000000000301
2 -93.742126022126001 -49.421671406910697 0.75 0 0 -1 1 0 0 0 -1 0 0.45000000000000301
2 -93.742126022126001 -49.421671406910697 0.75 0 0 -1 1 0 0 0 -1 0 0.45000000000000301
2 -93.742126022126001 -49.2807188932522 0.75 0 0 -1 1 0 0 0 -1 0 0.45000000000000301
2 -93.056511891208302 -48.8725669392336 0.75 0 0 -1 1 0 0 0 -1 0 0.45000000000000301
2 -93.742126022126001 -49.2807188932522 0.75 0 0 -1 1 0 0 0 -1 0 0.45000000000000301
2 -93.742126022126001 -49.2807188932522 0.75 0 0 -1 1 0 0 0 -1 0 0.45000000000000301
2 -93.742126022126001 -49.2807188932522 0.75 0 0 -1 1 0 0 0 -1 0 0.45000000000000301
2 -93.742126022126001 -49.2807188932522 0.75 0 0 -1 1 0 0 0 -1 0 0.45000000000000301
1 -92.338520344869195 -49.322566939233603 0.75 0 -1 0 -1 0 0 -0 -0 -1 
2 -93.056511891208302 -48.8725669392336 0.75 0 0 -1 1 0 0 0 -1 0 0.45000000000000301
2 -93.056511891208302 -48.8725669392336 0.75 0 0 -1 1 0 0 0 -1 0 0.45000000000000301
2 -93.056511891208302 -48.8725669392336 0.75 0 0 -1 1 0 0 0 -1 0 0.45000000000000301
2 -93.056511891208302 -48.8725669392336 0.75 0 0 -1 1 0 0 0 -1 0 0.45000000000000301
2 -92.338520344869195 -48.8725669392336 0.75 0 0 -1 1 0 0 0 -1 0 0.45000000000000301
1 -91.220474712194729 -48.273184226619989 0.75 0.75439456107021197 -0.65642124145070302 0 -0.65642124145070302 -0.75439456107021197 0 0 -0 -1 
2 -92.338520344869195 -48.8725669392336 0.75 0 0 -1 1 0 0 0 -1 0 0.45000000000000301
2 -92.338520344869195 -48.8725669392336 0.75 0 0 -1 1 0 0 0 -1 0 0.45000000000000301
2 -92.338520344869195 -48.8725669392336 0.75 0 0 -1 1 0 0 0 -1 0 0.45000000000000301
2 -92.338520344869195 -48.8725669392336 0.75 0 0 -1 1 0 0 0 -1 0 0.45000000000000301
1 -91.149228671874113 -48.273184223184202 0.75 0 -1 0 -1 0 0 -0 -0 -1 
2 -90.970970017636603 -48.6863716530383 0.75 0 0 -1 1 0 0 0 -1 0 0.45000000000000301
1 -91.420970017636606 -48.6863716530383 0.75 1 0 -0 0 -1 0 0 -0 -1 
2 -90.970970017636603 -48.6863716530383 0.75 0 0 -1 1 0 0 0 -1 0 0.45000000000000301
2 -90.970970017636603 -48.6863716530383 0.75 0 0 -1 1 0 0 0 -1 0 0.45000000000000301
2 -90.970970017636603 -48.6863716530383 0.75 0 0 -1 1 0 0 0 -1 0 0.45000000000000301
2 -90.970970017636603 -48.6863716530383 0.75 0 0 -1 1 0 0 0 -1 0 0.45000000000000301
2 -90.970970017636603 -49.308497675164297 0.75 0 0 -1 1 0 0 0 -1 0 0.45000000000000301
2 -90.970970017636603 -49.308497675164297 0.75 0 0 -1 1 0 0 0 -1 0 0.45000000000000301
2 -90.970970017636603 -49.308497675164297 0.75 0 0 -1 1 0 0 0 -1 0 0.45000000000000301
2 -90.970970017636603 -49.308497675164297 0.75 0 0 -1 1 0 0 0 -1 0 0.45000000000000301
2 -90.970970017636603 -49.308497675164297 0.75 0 0 -1 1 0 0 0 -1 0 0.45000000000000301
1 -93.313431991008471 -49.558497675164304 0.75 4.5732174651640399e-15 1 -0 1 -4.5732174651640399e-15 0 0 -0 -1 
Triangulations 0

TShapes 61
Ve
1e-07
-93.292126022126 -49.4216714069107 0.75
0 0

0101100
*
Ed
 1e-07 1 1 0
1  1 0 0 0.5
2  1 1 0 0 0.5
4 G1 1 0 2 0
0

0101000
+61 0 -61 1 *
Ve
1e-07
-93.3134319910085 -49.5584976751643 0.75
0 0

0101100
*
Ed
 1e-07 1 1 0
1  2 0 0 0.5
2  2 1 0 0 0.5
0

0101000
+59 0 -59 1 *
Ed
 1e-07 1 1 0
2  3 3 0 6.28318530717966 6.59213515568866
1  3 0 6.28318530717966 6.59213515568866
2  4 4 0 6.28318530717966 6.59213515568866
2  5 4 3 6.28318530717966 6.59213515568866
2  6 5 0 6.28318530717966 6.59213515568866
2  7 5 5 6.28318530717966 6.59213515568866
2  8 6 0 6.28318530717966 6.59213515568866
2  9 6 7 6.28318530717966 6.59213515568866
2  10 7 0 6.28318530717966 6.59213515568866
2  11 7 9 6.28318530717966 6.59213515568866
2  12 1 0 6.28318530717966 6.59213515568866
2  13 1 10 6.28318530717966 6.59213515568866
0

0101000
+61 0 -59 0 *
Wi

0101000
+60 0 -58 0 -57 0 +57 1 *
Fa
0  1e-07 1 0

0101000
+56 0 *
Ve
1e-07
-93.292126022126 -49.2807188932522 0.75
0 0

0101100
*
Ed
 1e-07 1 1 0
1  4 0 0 0.5
2  14 8 0 0 0.5
4 G1 2 0 8 0
0

0101000
+54 0 -54 1 *
Ed
 1e-07 1 1 0
2  15 3 0 -0.199192651098613 -0.0582401374401155
1  5 0 -0.199192651098613 -0.0582401374401155
0

0101000
+61 0 -54 0 *
Wi

0101000
+60 0 -53 0 -52 0 +52 1 *
Fa
0  1e-07 2 0

0101000
+51 0 *
Ve
1e-07
-93.2928321364507 -49.255519601698 0.75
0 0

0101100
*
Ed
 1e-07 1 1 0
1  6 0 0 0.5
2  16 8 0 0 0.5
2  17 9 0 0 0.5
0

0101000
+49 0 -49 1 *
Ed
 1e-07 1 1 0
2  18 3 0 6.22715757326234 6.28318530717966
1  7 0 6.22715757326234 6.28318530717966
2  19 10 0 6.22715757326234 6.28318530717966
2  20 10 3 6.22715757326234 6.28318530717966
2  21 11 0 6.22715757326234 6.28318530717966
2  22 11 5 6.22715757326234 6.28318530717966
2  23 12 0 6.22715757326234 6.28318530717966
2  24 12 7 6.22715757326234 6.28318530717966
2  25 13 0 6.22715757326234 6.28318530717966
2  26 13 9 6.22715757326234 6.28318530717966
2  27 8 0 6.22715757326234 6.28318530717966
2  28 8 10 6.22715757326234 6.28318530717966
0

0101000
+49 0 -54 0 *
Wi

0101000
+48 0 -53 0 -47 0 +47 1 *
Fa
0  1e-07 8 0

0101000
+46 0 *
Ve
1e-07
-93.0565118912083 -49.3225669392336 0.75
0 0

0101100
*
Ed
 1e-07 1 1 0
1  8 0 0 0.5
2  29 9 0 0 0.5
4 G1 9 0 14 0
0

0101000
+44 0 -44 1 *
Ed
 1e-07 1 1 0
2  30 3 0 1.5707963267949 2.1236948601273
1  9 0 1.5707963267949 2.1236948601273
2  31 15 0 1.5707963267949 2.1236948601273
2  32 15 3 1.5707963267949 2.1236948601273
2  33 16 0 1.5707963267949 2.1236948601273
2  34 16 5 1.5707963267949 2.1236948601273
2  35 17 0 1.5707963267949 2.1236948601273
2  36 17 7 1.5707963267949 2.1236948601273
2  37 18 0 1.5707963267949 2.1236948601273
2  38 18 9 1.5707963267949 2.1236948601273
2  39 9 0 1.5707963267949 2.1236948601273
2  40 9 10 1.5707963267949 2.1236948601273
0

0101000
+44 0 -49 0 *
Wi

0101000
+43 0 -48 0 -42 0 +42 1 *
Fa
0  1e-07 9 0

0101000
+41 0 *
Ve
1e-07
-92.3385203448692 -49.3225669392336 0.75
0 0

0101100
*
Ed
 1e-07 1 1 0
1  10 0 0 0.5
2  41 19 0 0 0.5
4 G1 14 0 19 0
0

0101000
+39 0 -39 1 *
Ed
 1e-07 1 1 0
2  42 3 0 0.0910872841027981 0.809078830441905
1  11 0 0.0910872841027981 0.809078830441905
0

0101000
+39 0 -44 0 *
Wi

0101000
+38 0 -43 0 -37 0 +37 1 *
Fa
0  1e-07 14 0

0101000
+36 0 *
Ve
1e-07
-91.9990427923876 -49.1679564978864 0.75
0 0

0101100
*
Ed
 1e-07 1 1 0
1  12 0 0 0.5
2  43 19 0 0 0.5
4 G1 19 0 20 0
0

0101000
+34 0 -34 1 *
Ed
 1e-07 1 1 0
2  44 3 0 6.99925033688883 7.85398163397448
1  13 0 6.99925033688883 7.85398163397448
2  45 21 0 6.99925033688883 7.85398163397448
2  46 21 3 6.99925033688883 7.85398163397448
2  47 22 0 6.99925033688883 7.85398163397448
2  48 22 5 6.99925033688883 7.85398163397448
2  49 23 0 6.99925033688883 7.85398163397448
2  50 23 7 6.99925033688883 7.85398163397448
2  51 24 0 6.99925033688883 7.85398163397448
2  52 24 9 6.99925033688883 7.85398163397448
2  53 19 0 6.99925033688883 7.85398163397448
2  54 19 10 6.99925033688883 7.85398163397448
0

0101000
+34 0 -39 0 *
Wi

0101000
+33 0 -38 0 -32 0 +32 1 *
Fa
0  1e-07 19 0

0101000
+31 0 *
Ve
1e-07
-91.2204747121948 -48.27318422662 0.75
0 0

0101100
*
Ed
 1e-07 1 1 0
1  14 0 0 0.5
0

0101000
+29 0 -29 1 *
Ed
 1e-07 1 1 0
2  55 3 0 0.113859109682914 1.29993907027683
1  15 0 0.113859109682914 1.29993907027683
0

0101000
+29 0 -34 0 *
Wi

0101000
+28 0 -33 0 -27 0 +27 1 *
Fa
0  1e-07 20 0

0101000
+26 0 *
Ve
1e-07
-91.1492286718741 -48.2731842231842 0.75
0 0

0101100
*
Ed
 1e-07 1 1 0
1  16 0 0 0.5
2  56 26 0 0 0.5
0

0101000
+24 0 -24 1 *
Ed
 1e-07 1 1 0
2  57 3 0 0.905162614474717 0.976408656360157
1  17 0 0.905162614474717 0.976408656360157
0

0101000
+24 0 -29 0 *
Wi

0101000
+23 0 -28 0 -22 0 +22 1 *
Fa
0  1e-07 25 0

0101000
+21 0 *
Ve
1e-07
-91.4209700176366 -48.6863716530383 0.75
0 0

0101100
*
Ed
 1e-07 1 1 0
1  18 0 0 0.5
2  58 26 0 0 0.5
4 G1 26 0 27 0
0

0101000
+19 0 -19 1 *
Ed
 1e-07 1 1 0
2  59 3 0 3.14159265358979 4.30509040610876
1  19 0 3.14159265358979 4.30509040610876
2  60 28 0 3.14159265358979 4.30509040610876
2  61 28 3 3.14159265358979 4.30509040610876
2  62 29 0 3.14159265358979 4.30509040610876
2  63 29 5 3.14159265358979 4.30509040610876
2  64 30 0 3.14159265358979 4.30509040610876
2  65 30 7 3.14159265358979 4.30509040610876
2  66 31 0 3.14159265358979 4.30509040610876
2  67 31 9 3.14159265358979 4.30509040610876
2  68 26 0 3.14159265358979 4.30509040610876
2  69 26 10 3.14159265358979 4.30509040610876
0

0101000
+19 0 -24 0 *
Wi

0101000
+18 0 -23 0 -17 0 +17 1 *
Fa
0  1e-07 26 0

0101000
+16 0 *
Ve
1e-07
-91.4209700176366 -49.3084976751643 0.75
0 0

0101100
*
Ed
 1e-07 1 1 0
1  20 0 0 0.5
2  70 32 0 0 0.5
4 G1 27 0 32 0
0

0101000
+14 0 -14 1 *
Ed
 1e-07 1 1 0
2  71 3 0 0.200000000000003 0.822126022126
1  21 0 0.200000000000003 0.822126022126
0

0101000
+19 0 -14 0 *
Wi

0101000
+18 0 -13 0 -12 0 +12 1 *
Fa
0  1e-07 27 0

0101000
+11 0 *
Ve
1e-07
-91.345135756314 -49.5584976751643 0.75
0 0

0101100
*
Ed
 1e-07 1 1 0
1  22 0 0 0.5
2  72 32 0 0 0.5
0

0101000
+9 0 -9 1 *
Ed
 1e-07 1 1 0
2  73 3 0 2.55256168337348 3.14159265358979
1  23 0 2.55256168337348 3.14159265358979
2  74 33 0 2.55256168337348 3.14159265358979
2  75 33 3 2.55256168337348 3.14159265358979
2  76 34 0 2.55256168337348 3.14159265358979
2  77 34 5 2.55256168337348 3.14159265358979
2  78 35 0 2.55256168337348 3.14159265358979
2  79 35 7 2.55256168337348 3.14159265358979
2  80 36 0 2.55256168337348 3.14159265358979
2  81 36 9 2.55256168337348 3.14159265358979
2  82 32 0 2.55256168337348 3.14159265358979
2  83 32 10 2.55256168337348 3.14159265358979
0

0101000
+9 0 -14 0 *
Wi

0101000
+8 0 -13 0 -7 0 +7 1 *
Fa
0  1e-07 32 0

0101000
+6 0 *
Ed
 1e-07 1 1 0
2  84 3 0 1.48250195159212 3.45079818628661
1  24 0 1.48250195159212 3.45079818628661
0

0101000
+59 0 -9 0 *
Wi

0101000
+58 0 -8 0 -4 0 +4 1 *
Fa
0  1e-07 37 0

0101000
+3 0 *
Sh

1101000
+55 0 -50 0 +45 0 +40 0 +35 0 +30 0 +25 0 +20 0 +15 0 -10 0 
+5 0 +2 0 *

+1 0 
0

