DBRep_DrawableShape

CASCADE Topology V1, (c) Matra-Datavision
Locations 0
Curve2ds 21
2 0 0 -1 0 0 1 7.5485839844000111
1 0 4.2944851425376491 1 0 
1 0 5.1302928182317276 1 0 
2 0 0 -1 0 0 1 12.539672933892009
7 0 0  1 2 2  0 1  0.84646644153547557 1 
 0 2 0.8358076756940831 2
1 6.2831853071795862 4.2944851425376491 0 1 
1 0 4.2944851425376491 0 1 
2 0 0 -1 0 0 1 20
1 0 0 1 0 
1 0 11.298446655259999 1 0 
2 0 0 1 0 -0 1 20
1 0 1 1 0 
1 6.2831853071795862 0 0 1 
1 0 0 0 1 
2 0 0 1 0 -0 1 12.402832031300022
1 0 1.1771142502516847 1 0 
1 0 1.9644784033382063 1 0 
2 0 0 1 0 -0 1 7.6854247357280219
7 0 0  1 2 2  0 1  0.79737500274795081 1 
 0 2 0.78736415308651919 2
1 6.2831853071795862 1.1771142502516847 0 1 
1 0 1.1771142502516847 0 1 
Curves 9
2 14.99991607666 -618.08306884770002 -92.189819335940001 0 0 1 0 1 0 -1 0 0 7.5485839844000111
2 14.99991607666 -618.08306884770002 -92.189819150612394 0 0 1 0 1 0 -1 0 0 12.539672933892007
2 14.99991607666 -608.03894042970001 -97.809646606450002 -1 0 0 0 -0.40584557615410971 0.91394166570746671 0 0.91394166570746671 0.40584557615410971 6.1490001678470003
2 14.99991607666 -618.08306884770002 -92.189819335940001 0 0 1 0 1 0 -1 0 0 20
2 14.99991607666 -618.08306884770002 -103.4882659912 0 0 1 0 1 0 -1 0 0 20
1 14.99991607666 -598.08306884770002 -92.189819335940001 0 0 -1 
2 14.99991607666 -618.08306884770002 -103.4882659912 0 0 1 0 1 0 -1 0 0 12.402832031300022
2 14.99991607666 -618.08306884770002 -103.488266157311 0 0 1 0 1 0 -1 0 0 7.6854247357280201
2 14.99991607666 -608.03894042970001 -97.809646606450002 -1 0 0 0 0.38359141614678161 -0.92350291036818433 -0 -0.92350291036818433 -0.38359141614678161 6.1490001678470003
Polygon3D 0
PolygonOnTriangulations 0
Surfaces 10
1 14.99991607666 -618.08306884770002 -92.189819335940001 0 0 1 -0 -1 0 -1 0 0 
5 14.99991607666 -618.08306884770002 -97.809646606450002 -0 -0 -1 0 1 0 -1 0 0 10.044128418000014 6.1490001678470003
1 14.99991607666 -618.08306884770002 -92.189819335940001 0 0 1 -0 -1 -0 -1 0 0 
9 1 1 0 0 6 1 7 2 2 2 -8.3923696365670005e-05 -610.50317826817525 -92.339040436093498  1.0059908014964962 14.99991607666 -610.53448494559154 -92.189819150612422  1.0058403906667541 
-8.3923696365670005e-05 -609.72675166705721 -91.989298606816618  0.99997121741613038 14.99991607666 -609.74704219003058 -91.840146769091604  0.9999726462107944 
-8.3923696365670005e-05 -608.89655616836967 -91.774014975258808  0.99641739690019615 14.99991607666 -608.90653015035753 -91.625042707628012  0.99650704517806399 
-8.3923696365670005e-05 -608.03891210251174 -91.701330695922024  0.9952411683743565 14.99991607666 -608.03894042970001 -91.55243981421232  0.99535983588877397 
-8.3923696365670005e-05 -607.18126871083439 -91.774022929868792  0.9964173969001956 14.99991607666 -607.1713507090426 -91.625042707627998  0.99650704517806621 
-8.3923696365670005e-05 -606.35107520892916 -91.989314261446154  0.99997121741613015 14.99991607666 -606.33083866936954 -91.840146769091575  0.99997264621079307 
-8.3923696365670005e-05 -605.57465185168553 -92.339063292032492  1.0059908014964962 14.99991607666 -605.54339591380847 -92.189819150612394  1.0058403906667539 

0 7
0.84646644153547557 7

0 2
1 2

2 14.99991607666 -618.08306884770002 -92.189819335940001 -0 -0 -1 0 1 -0 -1 0 -0 20
1 14.99991607666 -618.08306884770002 -103.4882659912 0 0 1 0 1 0 -1 0 0 
9 0 0 0 0 1 1 2 2 2 2 -8.3990264101890003e-05 -598.08306884770002 -92.339050292970001  14.99991607666 -598.08306884770002 -92.189819335940001  
-8.3856415585609997e-05 -598.08306884770002 -103.33907318120001  14.99991607666 -598.08306884770002 -103.4882659912  

0 2
11.298446655259994 2

0 2
1 2

5 14.99991607666 -618.08306884770002 -97.809646606450002 -0 -0 -1 0 1 0 -1 0 0 10.044128418000014 6.1490001678470003
1 14.99991607666 -618.08306884770002 -103.4882659912 0 0 1 0 1 0 -1 0 0 
9 1 1 0 0 6 1 7 2 2 2 -8.3923696365670005e-05 -605.7096598157691 -103.33906355738448  1.0053140733043124 14.99991607666 -605.68023674742881 -103.48826615731116  1.0051810945775697 
-8.3923696365670005e-05 -606.44841793440582 -103.65026724836927  0.99997735893908202 14.99991607666 -606.42930395967585 -103.79940297075167  0.99997847905085058 
-8.3923696365670005e-05 -607.23219942544108 -103.84127801439304  0.99682086733056552 14.99991607666 -607.22281074739431 -103.99026256743099  0.99690018791638035 
-8.3923696365670005e-05 -608.03891185543227 -103.90567863196253  0.99577540085207994 14.99991607666 -608.03894042970023 -104.05459133116537  0.99588047691039905 
-8.3923696365670005e-05 -608.84562488912525 -103.84128557709134  0.9968208673305673 14.99991607666 -608.85507011200627 -103.99026256743092  0.99690018791638213 
-8.3923696365670005e-05 -609.62940817079675 -103.65028215880055  0.99997735893908113 14.99991607666 -609.64857689972462 -103.79940297075154  0.99997847905084836 
-8.3923696365670005e-05 -610.36816920684555 -103.3390853934729  1.0053140733043124 14.99991607666 -610.39764411197177 -103.48826615731096  1.0051810945775697 

0 7
0.79737500274795081 7

0 2
1 2

Triangulations 0

TShapes 32
Ve
0.003
14.99991607666 -610.5344848633 -92.18981933594
0 0

0101100
*
Ed
 0.003 1 1 0
1  1 0 0 6.28318530717959
2  1 1 0 0 6.28318530717959
2  2 2 0 0 6.28318530717959
0

0101100
+32 0 -32 0 *
Wi

0101000
-31 0 *
Fa
0  0.003 1 0

0101000
+30 0 *
Ve
0.003
14.99991607666 -605.543395913808 -92.1898191506124
0 0

0101100
*
Ed
 0.003 1 1 0
1  2 0 0 6.28318530717959
2  3 2 0 0 6.28318530717959
2  4 3 0 0 6.28318530717959
0

0101100
+28 0 -28 0 *
Ed
 0.003 1 1 0
1  3 0 0 0.835807675694083
2  5 4 0 0 0.835807675694083
3  6 7CN 2 0 0 0.835807675694083
0

0101000
+32 0 -28 0 *
Wi

0101000
+31 0 -27 0 -26 0 +26 0 *
Fa
0  0.003 2 0

0101000
+25 0 *
Wi

0101000
+27 0 *
Ve
0.003
14.99991607666 -598.0830688477 -92.18981933594
0 0

0101100
*
Ed
 0.003 1 1 0
1  4 0 0 6.28318530717959
2  8 3 0 0 6.28318530717959
2  9 5 0 0 6.28318530717959
0

0101100
+22 0 -22 0 *
Wi

0101000
-21 0 *
Fa
0  0.003 3 0

0101000
+23 0 +20 0 *
Ve
0.003
14.99991607666 -598.0830688477 -103.4882659912
0 0

0101100
*
Ed
 0.003 1 1 0
1  5 0 0 6.28318530717959
2  10 5 0 0 6.28318530717959
2  11 6 0 0 6.28318530717959
0

0101100
+18 0 -18 0 *
Ed
 0.003 1 1 0
1  6 0 0 11.29844665526
2  12 7 0 0 11.29844665526
3  13 14CN 5 0 0 11.29844665526
0

0101000
+22 0 -18 0 *
Wi

0101000
+21 0 -17 0 -16 0 +16 0 *
Fa
0  0.003 5 0

0101000
+15 0 *
Wi

0101000
+17 0 *
Ve
0.003
14.99991607666 -605.6802368164 -103.4882659912
0 0

0101100
*
Ed
 0.003 1 1 0
1  7 0 0 6.28318530717959
2  15 6 0 0 6.28318530717959
2  16 8 0 0 6.28318530717959
0

0101100
+12 0 -12 0 *
Wi

0101000
-11 0 *
Fa
0  0.003 6 0

0101000
+13 0 +10 0 *
Ve
0.003
14.99991607666 -610.397644111972 -103.488266157311
0 0

0101100
*
Ed
 0.003 1 1 0
1  8 0 0 6.28318530717959
2  17 8 0 0 6.28318530717959
2  18 9 0 0 6.28318530717959
0

0101100
+8 0 -8 0 *
Ed
 0.003 1 1 0
1  9 0 0 0.787364153086519
2  19 10 0 0 0.787364153086519
3  20 21CN 8 0 0 0.787364153086519
0

0101000
+12 0 -8 0 *
Wi

0101000
+11 0 -7 0 -6 0 +6 0 *
Fa
0  0.003 8 0

0101000
+5 0 *
Wi

0101000
+7 0 *
Fa
0  0.003 9 0

0101000
+3 0 *
Sh

1101000
+29 0 +24 0 +19 0 +14 0 +9 0 +4 0 +2 0 *

+1 0 
0

