DBRep_DrawableShape

CASCADE Topology V1, (c) Matra-Datavision
Locations 6
1
              1               0               0           44.65 
              0               1               0           44.65 
              0               0               1            21.2 
2  1 -1 0
1
              1               0               0               0 
              0               1               0               0 
              0               0               1             0.2 
2  3 -1 0
1
              1               0               0            14.9 
              0               1               0            14.9 
              0               0               1            21.2 
2  5 -1 0
Curve2ds 94
1 0 0 1 0 
2 0 0 1 0 -0 1 59.75
1 11.1104955179527 21.018887981116901 0.92387930041383837 0.3826839926974171 
1 18.308348801050801 0 -1 0 
1 0 0 0 1 
1 0 0 1 0 
1 21.018887981116901 11.1104955179527 0.3826839926974171 0.92387930041383837 
1 -18.308348801050801 0 1 0 
1 0 0 0 -1 
1 0 0 0 1 
1 2.7250000000000001 29.149999999999999 1 0 
1 0 -2.7250000000000001 0 1 
1 5.4500000000000002 14.574999999999999 0 1 
1 0 14.574999999999999 0 -1 
1 19.261807459805599 31.3665436469784 -0.92387909778119259 0.38268448189469284 
1 -5.7920917932291003 0 -1 0 
1 29.149999999999999 2.7250000000000001 0 1 
1 0 2.7250000000000001 0 -1 
1 14.574999999999999 5.4500000000000002 1 0 
1 0 -14.574999999999999 0 1 
1 31.3665436469784 19.261807459805599 0.38268448189469284 -0.92387909778119259 
1 5.7920917932291003 0 1 0 
1 0 0 0 -1 
1 0 0 0 1 
1 0 0 0 1 
1 0 22.899999999999999 1 0 
1 0 0 0 1 
1 0 0 1 0 
1 0 0 0 -1 
1 22.899999999999999 0 0 1 
1 5.7422461639346496 0 0 1 
1 -21.176220417356099 0 0 -1 
1 0 59.75 1 0 
1 5.0928953574970501 0 0 1 
1 0 0.40000000000000002 1 0 
2 0 0 1 0 -0 1 59.75
1 0 0 0 -1 
1 0 0 -0 1 
1 23.6418820038371 -2.5096170890860501 0.69843332544470771 -0.71567512874784667 
1 18.308348801050801 -0.40000000000000002 -1 0 
1 0 0 1 0 
1 0 0 1 0 
1 0.40000000000000002 0 0 1 
1 0 0 0.37139067635410405 -0.92847669088525919 
1 18.122055136122398 -15.3892131137537 0.99992566250341153 -0.012193008944204494 
1 -18.308348801050801 0.40000000000000002 1 0 
1 6.0143408778543499 0 0 1 
1 21.176220417356099 0 0 1 
1 0 -59.75 1 0 
1 0.38050637711236501 0 0 1 
1 0.40000000000000002 0 0 1 
1 0 0 -0.92847669088525919 -0.37139067635410405 
1 6.2831853071795898 -0 0 1 
1 0 -0 0 1 
1 0 19.163 -1 0 
1 -6.5645558164902201e-15 0 0 -1 
1 28.077135132370199 8.2959392330597908 0.37139067635410405 -0.92847669088525919 
1 -0.40000000000000002 -2.7250000000000001 0 1 
1 0 0 -1 0 
1 0 0 1 0 
1 0 -7.9375999999999998 1 0 
1 -20.741891494268302 0 0 -1 
1 15.5566269557825 0.35282114253639701 0.92847669088525919 0.37139067635410405 
1 0.40000000000000002 14.574999999999999 0 -1 
1 36.276760350154298 -6.2348973908075402 0.012193538408348106 0.99992565604703043 
1 -5.7920917932291003 -0.40000000000000002 -1 0 
1 0 -19.163 -1 0 
1 6.5645558164902201e-15 0 0 -1 
1 13.3561371983845 -26.053055946240399 0.92847669088525919 0.37139067635410405 
1 0.40000000000000002 2.7250000000000001 0 -1 
1 0 0 -1 0 
1 0 0 1 0 
1 0 7.9375999999999998 1 0 
1 20.741891494268302 0 0 -1 
1 10.473217073185699 -11.5084685835228 0.37139067635410405 -0.92847669088525919 
1 -0.40000000000000002 -14.574999999999999 0 1 
1 29.533381110691199 -21.969448949554799 -0.71567475892485088 -0.69843370439710084 
1 5.7920917932291003 0.40000000000000002 1 0 
1 0 -22.899999999999999 1 0 
1 0 0 1 0 
1 0 0 1 0 
1 0 0 1 0 
1 2.88292012519873 -2.5625956668433201 0.92847669088525919 0.37139067635410405 
1 0.40000000000000002 1.7250000000000001 0 -1 
1 0 -22.899999999999999 1 0 
1 0 22.899999999999999 1 0 
1 25.106009721537401 8.1845220301535608 -0.37139067635410405 0.92847669088525919 
1 0.40000000000000002 -1.7250000000000001 0 -1 
1 0 0 1 0 
1 0 22.899999999999999 1 0 
1 3.8438935002649801 -0.32032445835541501 -0.37139067635410405 0.92847669088525919 
1 0.40000000000000002 -1.7250000000000001 0 -1 
1 11.387766613707701 -23.8247118881158 0.92847669088525919 0.37139067635410405 
1 0.40000000000000002 1.7250000000000001 0 -1 
Curves 47
2 0 0 -0.20000000000000001 0 0 1 0.37139067635410405 0.92847669088525919 -0 -0.92847669088525919 0.37139067635410405 0 59.75
1 11.1104955179527 21.018887981116901 0 0.92387930041383837 0.3826839926974171 -0 
1 -44.649999999999999 -44.649999999999999 -21.199999999999999 1 0 -0 
1 21.018887981116901 11.1104955179527 0 0.3826839926974171 0.92387930041383837 -0 
1 -44.649999999999999 -44.649999999999999 -21.199999999999999 -0 1 0 
1 2.7250000000000001 29.149999999999999 0 1 0 -0 
1 5.4500000000000002 14.574999999999999 0 0 1 0 
1 19.261807459805599 31.3665436469784 0 -0.92387909778119259 0.38268448189469284 0 
1 29.149999999999999 2.7250000000000001 0 0 1 0 
1 14.574999999999999 5.4500000000000002 0 1 0 -0 
1 31.3665436469784 19.261807459805599 0 0.38268448189469284 -0.92387909778119259 0 
1 -11.449999999999999 -11.449999999999999 -21.199999999999999 -0 1 0 
1 -11.449999999999999 11.449999999999999 -21.199999999999999 1 0 -0 
1 -11.449999999999999 -11.449999999999999 -21.199999999999999 1 0 -0 
1 11.449999999999999 -11.449999999999999 -21.199999999999999 -0 1 0 
1 47.5894717045962 36.1290005795544 0 0 0 1 
1 59.75 0 0 0 0 1 
2 0 0 0.20000000000000001 0 0 1 0.37139067635410405 0.92847669088525919 -0 -0.92847669088525919 0.37139067635410405 0 59.75
1 28.025200000000002 28.025200000000002 0 0 0 -1 
1 11.1104955179527 21.018887981116901 0.40000000000000002 0.92387930041383837 0.3826839926974171 -0 
1 -44.649999999999999 -44.649999999999999 -21.199999999999999 0 0 1 
1 0 0 0.40000000000000002 1 0 -0 
1 21.018887981116901 11.1104955179527 0.40000000000000002 0.3826839926974171 0.92387930041383837 -0 
1 36.1290005795544 47.5894717045962 0 0 0 1 
1 0 59.75 0 0 0 1 
1 0 0 0.40000000000000002 0 -1 0 
1 22.190592912157701 55.476482280394201 -0.20000000000000001 0 0 1 
1 24.613 29.149999999999999 0 0 -0 1 
1 2.7250000000000001 29.149999999999999 0.40000000000000002 1 0 -0 
1 5.4500000000000002 29.149999999999999 0 0 -0 1 
1 5.4500000000000002 37.087600000000002 0 0 0 1 
1 5.4500000000000002 14.574999999999999 0.40000000000000002 0 1 0 
1 19.261807459805599 31.3665436469784 0.40000000000000002 -0.92387909778119259 0.38268448189469284 0 
1 29.149999999999999 24.613 0 0 0 -1 
1 29.149999999999999 2.7250000000000001 0.40000000000000002 0 1 0 
1 29.149999999999999 5.4500000000000002 0 0 0 -1 
1 37.087600000000002 5.4500000000000002 0 0 0 -1 
1 14.574999999999999 5.4500000000000002 0.40000000000000002 1 0 -0 
1 31.3665436469784 19.261807459805599 0.40000000000000002 0.38268448189469284 -0.92387909778119259 0 
1 -11.449999999999999 11.449999999999999 -21.199999999999999 0 0 1 
1 -11.449999999999999 -11.449999999999999 -21.199999999999999 0 0 1 
1 3.4500000000000002 1.7250000000000001 0.40000000000000002 -0 1 0 
1 11.449999999999999 11.449999999999999 -21.199999999999999 0 0 1 
1 1.7250000000000001 26.350000000000001 0.40000000000000002 -1 -0 0 
1 11.449999999999999 -11.449999999999999 -21.199999999999999 0 0 1 
1 1.7250000000000001 3.4500000000000002 0.40000000000000002 -1 -0 0 
1 26.350000000000001 1.7250000000000001 0.40000000000000002 -0 1 0 
Polygon3D 0
PolygonOnTriangulations 0
Surfaces 19
1 -44.649999999999999 -44.649999999999999 -21.199999999999999 0 0 1 1 0 -0 -0 1 0 
2 0 0 -0.20000000000000001 0 0 1 0.37139067635410405 0.92847669088525919 -0 -0.92847669088525919 0.37139067635410405 0 59.75
1 0 0 -0.20000000000000001 0 0 1 0.37139067635410405 0.92847669088525919 -0 -0.92847669088525919 0.37139067635410405 0 
1 28.025200000000002 28.025200000000002 0 0.3826839926974171 -0.92387930041383837 0 -0.92387930041383837 -0.3826839926974171 0 0 -0 -1 
1 -44.649999999999999 -44.649999999999999 -21.199999999999999 -0 1 0 0 0 1 1 0 -0 
1 28.025200000000002 28.025200000000002 0 0.92387930041383837 -0.3826839926974171 0 0.3826839926974171 0.92387930041383837 0 -0 0 1 
1 -44.649999999999999 -44.649999999999999 -21.199999999999999 1 0 -0 0 0 1 0 -1 0 
1 5.4500000000000002 29.149999999999999 0 0 -1 -0 0 0 -1 1 0 0 
1 5.4500000000000002 29.149999999999999 0 1 0 0 -0 0 1 0 -1 0 
1 24.613 29.149999999999999 0 0.38268448189469284 0.92387909778119259 0 0.92387909778119259 -0.38268448189469284 0 0 0 -1 
1 29.149999999999999 5.4500000000000002 0 1 0 0 -0 0 1 0 -1 0 
1 29.149999999999999 5.4500000000000002 0 0 -1 -0 0 0 -1 1 0 0 
1 29.149999999999999 24.613 0 -0.92387909778119259 -0.38268448189469284 -0 0.38268448189469284 -0.92387909778119259 0 -0 0 1 
1 -11.449999999999999 -11.449999999999999 -21.199999999999999 1 0 -0 0 0 1 0 -1 0 
1 -11.449999999999999 -11.449999999999999 -21.199999999999999 0 0 1 1 0 -0 -0 1 0 
1 -11.449999999999999 11.449999999999999 -21.199999999999999 -0 1 0 0 0 1 1 0 -0 
1 -11.449999999999999 -11.449999999999999 -21.199999999999999 -0 1 0 0 0 1 1 0 -0 
1 11.449999999999999 -11.449999999999999 -21.199999999999999 1 0 -0 0 0 1 0 -1 0 
1 0 0 0.20000000000000001 0 0 1 0.37139067635410405 0.92847669088525919 -0 -0.92847669088525919 0.37139067635410405 0 
Triangulations 0

TShapes 132
Ve
0.0001
47.5894717045962 36.1290005795544 0
0 0

0101101
*
Ve
1.20094623639916e-05
59.75 0 0
0 0

0101101
*
Ed
 1e-07 1 1 0
1  1 0 5.09289535749705 5.74224616393465
2  1 2 0 5.09289535749705 5.74224616393465
2  2 3 0 5.09289535749705 5.74224616393465
0

0101000
-132 4 +131 4 *
Ve
0.0001
28.0252 28.0252 0
0 0

0101101
*
Ed
 1e-08 1 1 0
1  2 0 18.3083488010508 39.4845692184069
2  3 1 1 18.3083488010508 39.4845692184069
2  4 4 0 18.3083488010508 39.4845692184069
0

0101000
+129 0 -132 0 *
Ve
1e-07
-44.65 -44.65 -21.2
0 0

0101101
*
Ed
 1e-07 1 1 0
1  3 0 0 59.75
2  5 5 0 0 59.75
2  6 1 0 0 59.75
0

0101000
-131 2 +127 0 *
Ve
0.0001
36.1290005795544 47.5894717045962 0
0 0

0101101
*
Ed
 1e-08 1 1 0
1  4 0 18.3083488010508 39.4845692184069
2  7 1 1 18.3083488010508 39.4845692184069
2  8 6 0 18.3083488010508 39.4845692184069
0

0101000
+129 0 -125 0 *
Ve
1.20094623639916e-05
0 59.75 0
0 0

0101101
*
Ed
 1e-07 1 1 0
1  5 0 0 59.75
2  9 7 0 0 59.75
2  10 1 0 0 59.75
0

0101000
-123 2 +127 0 *
Ve
1e-07
22.1905929121577 55.4764822803942 -0.2
0 0

0101101
*
Ed
 1e-07 1 1 0
1  1 0 6.01434087785435 6.28318530717959
2  1 2 0 6.01434087785435 6.28318530717959
2  2 3 0 6.01434087785435 6.28318530717959
0

0101000
+125 4 -121 0 *
Ed
 1e-07 1 1 0
1  1 0 0 0.380506377112365
2  1 2 0 0 0.380506377112365
2  2 3 0 0 0.380506377112365
0

0101000
-123 4 +121 0 *
Wi

0101100
+130 3 -128 0 +126 1 +124 0 -122 1 +120 3 +119 3 *
Ve
0.0001
5.45 29.15 0
0 0

0101101
*
Ve
0.0001
24.613 29.15 0
0 0

0101101
*
Ed
 1e-08 1 1 0
1  6 0 2.725 21.888
2  11 1 1 2.725 21.888
2  12 8 0 2.725 21.888
0

0101000
+117 0 -116 0 *
Ve
0.0001
5.45 37.0876 0
0 0

0101101
*
Ed
 1e-08 1 1 0
1  7 0 14.575 22.5126
2  13 1 1 14.575 22.5126
2  14 9 0 14.575 22.5126
0

0101000
+117 0 -114 0 *
Ed
 1e-08 1 1 0
1  8 0 -5.79209179322909 14.9497997010392
2  15 1 1 -5.79209179322909 14.9497997010392
2  16 10 0 -5.79209179322909 14.9497997010392
0

0101000
+116 0 -114 0 *
Wi

0101100
-115 0 +113 0 -112 0 *
Ve
0.0001
29.15 5.45 0
0 0

0101101
*
Ve
0.0001
29.15 24.613 0
0 0

0101101
*
Ed
 1e-08 1 1 0
1  9 0 2.725 21.888
2  17 1 1 2.725 21.888
2  18 11 0 2.725 21.888
0

0101000
+110 0 -109 0 *
Ve
0.0001
37.0876 5.45 0
0 0

0101101
*
Ed
 1e-08 1 1 0
1  10 0 14.575 22.5126
2  19 1 1 14.575 22.5126
2  20 12 0 14.575 22.5126
0

0101000
+110 0 -107 0 *
Ed
 1e-08 1 1 0
1  11 0 -5.79209179322909 14.9497997010392
2  21 1 1 -5.79209179322909 14.9497997010392
2  22 13 0 -5.79209179322909 14.9497997010392
0

0101000
+109 0 -107 0 *
Wi

0101100
+108 0 -106 0 +105 0 *
Ve
1e-07
-11.45 11.45 -21.2
0 0

0101101
*
Ve
1e-07
-11.45 -11.45 -21.2
0 0

0101101
*
Ed
 1e-07 1 1 0
1  12 0 0 22.9
2  23 14 0 0 22.9
2  24 15 0 0 22.9
0

0101000
-103 0 +102 0 *
Ve
1e-07
11.45 11.45 -21.2
0 0

0101101
*
Ed
 1e-07 1 1 0
1  13 0 0 22.9
2  25 16 0 0 22.9
2  26 15 0 0 22.9
0

0101000
-100 0 +103 0 *
Ve
1e-07
11.45 -11.45 -21.2
0 0

0101101
*
Ed
 1e-07 1 1 0
1  14 0 0 22.9
2  27 17 0 0 22.9
2  28 15 0 0 22.9
0

0101000
-98 0 +102 0 *
Ed
 1e-07 1 1 0
1  15 0 0 22.9
2  29 18 0 0 22.9
2  30 15 0 0 22.9
0

0101000
-100 0 +98 0 *
Wi

0101100
+101 5 +99 5 -97 5 -96 5 *
Fa
0  1e-07 1 0

0111000
+118 2 +111 2 +104 2 +95 2 *
Ve
0.0001
47.5894717045962 36.1290005795544 0.4
0 0

0101101
*
Ed
 5.97499999999999e-07 1 1 0
1  16 0 0 0.4
2  31 2 3 0 0.4
2  32 4 0 0 0.4
0

0101000
+132 0 -93 0 *
Ve
1.20094623639916e-05
59.75 -1.06581410364015e-14 0.4
0 0

0101101
*
Ed
 5.97499999999999e-07 1 1 0
1  17 0 0 0.4
2  33 5 1 0 0.4
2  34 2 3 0 0.4
0

0101000
+131 0 -91 0 *
Ed
 1e-07 1 1 0
1  18 0 5.09289535749705 5.74224616393465
2  35 2 0 5.09289535749705 5.74224616393465
2  36 19 0 5.09289535749705 5.74224616393465
0

0101000
-93 4 +91 4 *
Wi

0101100
+130 3 +92 0 -90 0 -89 3 *
Fa
0  1e-07 2 0

0111000
+88 4 *
Ve
0.0001
28.0252 28.0252 0.4
0 0

0101101
*
Ed
 1e-08 1 1 0
1  19 0 -0.4 0
2  37 6 0 -0.4 0
2  38 4 0 -0.4 0
0

0101000
+86 0 -129 0 *
Ed
 1e-08 1 1 0
1  20 0 18.3083488010508 39.4845692184069
2  39 19 3 18.3083488010508 39.4845692184069
2  40 4 0 18.3083488010508 39.4845692184069
0

0101000
+86 0 -93 0 *
Wi

0101100
+85 0 -84 0 +128 0 +92 0 *
Fa
0  1e-07 4 0

0111000
+83 0 *
Ve
1.20094623639916e-05
0 0 0.399999999999999
0 0

0101101
*
Ed
 1e-07 1 1 0
1  21 0 0 0.399999999999998
2  41 7 0 0 0.399999999999998
2  42 5 0 0 0.399999999999998
0

0101000
-81 2 +127 0 *
Ed
 1e-08 1 1 0
1  22 0 0 59.75
2  43 5 1 0 59.75
2  44 19 3 0 59.75
0

0101000
+81 0 -91 0 *
Wi

0101100
-126 1 -90 0 +80 1 +79 0 *
Fa
0  1e-07 5 0

0111000
+78 2 *
Ve
0.0001
36.1290005795544 47.5894717045962 0.4
0 0

0101101
*
Ed
 1e-08 1 1 0
1  23 0 18.3083488010508 39.4845692184069
2  45 19 3 18.3083488010508 39.4845692184069
2  46 6 0 18.3083488010508 39.4845692184069
0

0101000
+86 0 -76 0 *
Ed
 5.97499999999999e-07 1 1 0
1  24 0 0 0.4
2  47 2 3 0 0.4
2  48 6 0 0 0.4
0

0101000
+125 0 -76 0 *
Wi

0101100
+85 0 -75 0 +124 0 +74 0 *
Fa
0  1e-07 6 0

0111000
+73 0 *
Ve
1.20094623639916e-05
0 59.75 0.4
0 0

0101101
*
Ed
 5.97499999999999e-07 1 1 0
1  25 0 0 0.4
2  49 7 1 0 0.4
2  50 2 3 0 0.4
0

0101000
+123 0 -71 0 *
Ed
 1e-08 1 1 0
1  26 0 -59.75 0
2  51 7 1 -59.75 0
2  52 19 3 -59.75 0
0

0101000
+71 0 -81 0 *
Wi

0101100
+122 1 +70 0 -80 1 +69 0 *
Fa
0  1e-07 7 0

0111000
+68 2 *
Ve
1e-07
22.1905929121577 55.4764822803942 0.2
0 0

0101101
*
Ed
 1e-07 1 1 0
1  27 0 0 0.4
3  53 54CN 2 0 0 0.4
0

0101000
-66 0 +121 0 *
Ed
 1e-07 1 1 0
1  18 0 6.01434087785435 6.28318530717959
2  35 2 0 6.01434087785435 6.28318530717959
2  36 19 0 6.01434087785435 6.28318530717959
0

0101000
+76 4 -66 0 *
Wi

0101100
+120 3 -74 0 +65 3 -64 3 *
Fa
0  1e-07 2 0

0111000
+63 4 *
Ed
 1e-07 1 1 0
1  18 0 0 0.380506377112365
2  35 2 0 0 0.380506377112365
2  36 19 0 0 0.380506377112365
0

0101000
-71 4 +66 0 *
Wi

0101100
+119 3 +70 0 -65 3 -61 3 *
Fa
0  1e-07 2 0

0111000
+60 4 *
Ve
0.0001
24.613 29.15 0.4
0 0

0101101
*
Ed
 1e-08 1 1 0
1  28 0 0 0.4
2  55 8 0 0 0.4
2  56 10 0 0 0.4
0

0101000
+116 0 -58 0 *
Ve
0.0001
5.45 29.15 0.4
0 0

0101101
*
Ed
 1e-08 1 1 0
1  29 0 2.725 21.888
2  57 19 3 2.725 21.888
2  58 8 0 2.725 21.888
0

0101000
+56 0 -58 0 *
Ed
 1e-08 1 1 0
1  30 0 0 0.4
2  59 8 0 0 0.4
2  60 9 0 0 0.4
0

0101000
+117 0 -56 0 *
Wi

0101100
+57 0 +115 0 -55 0 -54 0 *
Fa
0  1e-07 8 0

0111000
+53 0 *
Ve
0.0001
5.45 37.0876 0.4
0 0

0101101
*
Ed
 1e-08 1 1 0
1  31 0 0 0.4
2  61 9 0 0 0.4
2  62 10 0 0 0.4
0

0101000
+114 0 -51 0 *
Ed
 1e-08 1 1 0
1  32 0 14.575 22.5126
2  63 19 3 14.575 22.5126
2  64 9 0 14.575 22.5126
0

0101000
+56 0 -51 0 *
Wi

0101100
+50 0 +113 0 -49 0 -54 0 *
Fa
0  1e-07 9 0

0111000
+48 0 *
Ed
 1e-08 1 1 0
1  33 0 -5.79209179322909 14.9497997010392
2  65 19 3 -5.79209179322909 14.9497997010392
2  66 10 0 -5.79209179322909 14.9497997010392
0

0101000
+58 0 -51 0 *
Wi

0101100
-57 0 +112 0 -46 0 +50 0 *
Fa
0  1e-07 10 0

0111000
+45 0 *
Ve
0.0001
29.15 24.613 0.4
0 0

0101101
*
Ed
 1e-08 1 1 0
1  34 0 -0.4 0
2  67 11 0 -0.4 0
2  68 13 0 -0.4 0
0

0101000
+43 0 -109 0 *
Ve
0.0001
29.15 5.45 0.4
0 0

0101101
*
Ed
 1e-08 1 1 0
1  35 0 2.725 21.888
2  69 19 3 2.725 21.888
2  70 11 0 2.725 21.888
0

0101000
+41 0 -43 0 *
Ed
 1e-08 1 1 0
1  36 0 -0.4 0
2  71 11 0 -0.4 0
2  72 12 0 -0.4 0
0

0101000
+41 0 -110 0 *
Wi

0101100
-42 0 -40 0 +108 0 +39 0 *
Fa
0  1e-07 11 0

0111000
+38 0 *
Ve
0.0001
37.0876 5.45 0.4
0 0

0101101
*
Ed
 1e-08 1 1 0
1  37 0 -0.4 0
2  73 12 0 -0.4 0
2  74 13 0 -0.4 0
0

0101000
+36 0 -107 0 *
Ed
 1e-08 1 1 0
1  38 0 14.575 22.5126
2  75 19 3 14.575 22.5126
2  76 12 0 14.575 22.5126
0

0101000
+41 0 -36 0 *
Wi

0101100
-35 0 -34 0 +106 0 +39 0 *
Fa
0  1e-07 12 0

0111000
+33 0 *
Ed
 1e-08 1 1 0
1  39 0 -5.79209179322909 14.9497997010392
2  77 19 3 -5.79209179322909 14.9497997010392
2  78 13 0 -5.79209179322909 14.9497997010392
0

0101000
+43 0 -36 0 *
Wi

0101100
+42 0 -31 0 +105 0 -35 0 *
Fa
0  1e-07 13 0

0111000
+30 0 *
Ve
6.46729341674705e-06
3.45 26.35 0.399999999999999
0 0

0101101
*
Ed
 1e-07 1 1 0
1  40 0 0 0.399999999999998
2  79 14 0 0 0.399999999999998
2  80 16 0 0 0.399999999999998
0

0101000
-28 6 +103 0 *
Ve
6.46729341674705e-06
3.45 3.45 0.399999999999999
0 0

0101101
*
Ed
 1e-07 1 1 0
1  41 0 0 0.399999999999998
2  81 14 0 0 0.399999999999998
2  82 17 0 0 0.399999999999998
0

0101000
-26 6 +102 0 *
Ed
 1e-08 1 1 0
1  42 0 1.725 24.625
2  83 19 3 1.725 24.625
2  84 14 5 1.725 24.625
0

0101000
+26 0 -28 0 *
Wi

0101100
+101 5 +27 5 -25 5 -24 0 *
Fa
0  1e-07 14 0

0111000
+23 6 *
Ve
6.46729341674705e-06
26.35 26.35 0.399999999999999
0 0

0101101
*
Ed
 1e-07 1 1 0
1  43 0 0 0.399999999999998
2  85 18 0 0 0.399999999999998
2  86 16 0 0 0.399999999999998
0

0101000
-21 6 +100 0 *
Ed
 1e-08 1 1 0
1  44 0 -24.625 -1.725
2  87 19 3 -24.625 -1.725
2  88 16 5 -24.625 -1.725
0

0101000
+21 0 -28 0 *
Wi

0101100
-99 5 -20 5 +27 5 -19 0 *
Fa
0  1e-07 16 0

0111000
+18 6 *
Ve
6.46729341674705e-06
26.35 3.45 0.399999999999999
0 0

0101101
*
Ed
 1e-07 1 1 0
1  45 0 0 0.399999999999998
2  89 18 0 0 0.399999999999998
2  90 17 0 0 0.399999999999998
0

0101000
-16 6 +98 0 *
Ed
 1e-08 1 1 0
1  46 0 -24.625 -1.725
2  91 19 3 -24.625 -1.725
2  92 17 5 -24.625 -1.725
0

0101000
+16 0 -26 0 *
Wi

0101100
-97 5 -15 5 +25 5 -14 0 *
Fa
0  1e-07 17 0

0111000
+13 6 *
Ed
 1e-08 1 1 0
1  47 0 1.725 24.625
2  93 19 3 1.725 24.625
2  94 18 5 1.725 24.625
0

0101000
+16 0 -21 0 *
Wi

0101100
+96 5 +20 5 -15 5 -11 0 *
Fa
0  1e-07 18 0

0111000
+10 6 *
Wi

0101100
+89 3 -84 0 +79 0 +75 0 +69 0 +64 3 +61 3 *
Wi

0101100
-55 0 +49 0 -46 0 *
Wi

0101100
+40 0 -34 0 +31 0 *
Wi

0101100
+24 0 +14 0 -19 0 -11 0 *
Fa
0  1e-07 19 0

0111000
+8 4 +7 4 +6 4 +5 4 *
Sh

0101100
-94 1 +87 3 -82 0 -77 1 +72 0 -67 1 +62 3 +59 3 -52 0 +47 0 
-44 0 +37 0 -32 0 +29 0 +22 5 -17 5 +12 5 -9 5 +4 3 *
So

0100000
+3 0 *
Co

1100000
+2 0 *

+1 0 
0

