DBRep_DrawableShape

CASCADE Topology V1, (c) Matra-Datavision
Locations 12
1
              1               0               0               0 
              0               1               0              20 
              0               0               1               0 
1
              1               0               0               0 
              0               1               0             100 
              0               0               1               0 
2  2 -1 0
1
              1               0               0               0 
              0               1               0              20 
              0               0               1               0 
2  4 -1 0
2  1 -1 0
1
              1               0               0               0 
              0               1               0              20 
              0               0               1               0 
2  7 -1 0
1
              1               0               0               0 
              0               1               0              10 
              0               0               1               0 
2  9 -1 0
1
              1               0               0               0 
              0               1               0              10 
              0               0               1               0 
2  11 -1 0
Curve2ds 36
1 0 0 0 -1 
1 6.2831853071795898 0 0 -1 
1 0 0 1 0 
1 0 -2 1 0 
1 0 3.14159265358979 1 0 
1 0 -48 1 0 
8 0 1.5707963267949001
1 6.2831853071795898 0 0 1 
8 0 1.5707963267949001
1 0 0 0 1 
1 0 1.5707963267949001 1 0 
2 0 0 1 0 -0 1 18
8 3.14159265358979 4.7123889803846897
1 6.2831853071795898 0 0 1 
8 3.14159265358979 4.7123889803846897
1 0 0 0 1 
1 0 4.7123889803846897 1 0 
2 -0.029341988162595801 0 1 0 -0 1 22
1 0 1.5707963267949001 1 0 
2 0 0 1 0 -0 1 23
8 0 1.5707963267949001
1 6.2831853071795898 0 0 1 
8 0 1.5707963267949001
1 0 0 0 1 
1 0 0 1 0 
1 0 -2 1 0 
1 0 0 0 -1 
1 6.2831853071795898 0 0 -1 
1 0 0 1 0 
1 0 -100 1 0 
1 0 0 1 0 
1 0 -20 1 0 
1 0 0 1 0 
1 0 -20 1 0 
1 0 0 1 0 
1 0 -20 1 0 
1 0 0 1 0 
1 0 -10 1 0 
1 0 0 1 0 
1 0 -10 1 0 
1 0 0 0 -1 
1 6.2831853071795898 0 0 -1 
Curves 14
1 0 0 20 0 1 0 
2 0 2 0 0 1 0 0 -0 1 1 0 -0 20
2 0 48 0 0 1 0 0 -0 1 1 0 -0 20
2 0 2 18 1 0 0 0 0 1 0 -1 0 2
2 0 0 0 0 1 0 0 -0 1 1 0 -0 18
2 0 48 22 1 0 0 0 0 1 0 -1 0 2
2 0 50 0 0 1 0 0 -0 1 1 0 -0 22
2 0 50 0.029341988162595801 0 1 0 0 -0 1 1 0 -0 23
2 0 52 23.029341988162599 1 0 0 0 0 1 0 -1 0 2
2 0 52 0.029341988162595801 0 1 0 0 -0 1 1 0 -0 25
1 0 50 25.029341988162599 0 1 0 
2 0 50 0.029341988162595801 0 1 0 0 -0 1 1 0 -0 25
2 0 70 0.057256005373179902 0 1 0 0 -0 1 1 0 -0 15
1 0 70 15.057256005373199 0 1 0 
Polygon3D 0
PolygonOnTriangulations 0
Surfaces 13
2 0 0 0 0 -1 0 0 0 1 1 -0 -0 20
5 0 2 0 0 -1 0 0 0 1 1 -0 -0 18 2
5 0 48 0 0 -1 0 0 0 1 1 -0 -0 22 2
1 0 0 0 0 1 0 0 -0 1 1 0 -0 
1 0 50 0.029341988162595801 0 1 0 0 -0 1 1 0 -0 
5 0 52 0.029341988162595801 0 -1 0 0 0 1 1 -0 -0 23 2
2 0 50 0.029341988162595801 0 -1 0 0 0 1 1 -0 -0 25
2 0 50 0.029341988162595801 0 -1 0 0 0 1 1 -0 -0 25
2 0 50 0.029341988162595801 0 -1 0 0 0 1 1 -0 -0 25
2 0 70 0.057256005373179902 0 -1 0 0 0 1 1 -0 -0 15
2 0 70 0.057256005373179902 0 -1 0 0 0 1 1 -0 -0 15
2 0 70 0.057256005373179902 0 -1 0 0 0 1 1 -0 -0 15
1 0 70 0.057256005373179902 0 1 0 0 -0 1 1 0 -0 
Triangulations 0

TShapes 46
Ve
1e-07
0 2 20
0 0

0101100
*
Ve
1e-07
0 48 20
0 0

0101100
*
Ed
 1e-07 1 1 0
1  1 0 2 48
3  1 2CN 1 0 2 48
0

0101000
+46 0 -45 0 *
Ed
 1e-07 1 1 0
1  2 0 0 6.28318530717959
2  3 2 0 0 6.28318530717959
2  4 1 0 0 6.28318530717959
4 G1 2 0 1 0
0

0101100
+46 0 -46 0 *
Ed
 1e-07 1 1 0
1  3 0 0 6.28318530717959
2  5 3 0 0 6.28318530717959
2  6 1 0 0 6.28318530717959
4 G1 3 0 1 0
0

0101100
+45 0 -45 0 *
Wi

0101100
+44 0 -43 0 +42 0 -44 0 *
Fa
0  1e-07 1 0

0111000
+41 0 *
Ve
1e-07
0 0 18
0 0

0101100
*
Ed
 1e-07 1 1 0
1  4 0 0 1.5707963267949
3  7 8CN 2 0 0 1.5707963267949
0

0101000
+46 0 -39 0 *
Ed
 1e-07 1 1 0
1  5 0 0 6.28318530717959
2  9 2 0 0 6.28318530717959
2  10 4 0 0 6.28318530717959
4 G1 2 0 4 0
0

0101100
+39 0 -39 0 *
Wi

0101100
-38 0 +43 0 -37 0 +38 0 *
Fa
0  0 2 0

0111000
+36 0 *
Ve
1e-07
0 50 22
0 0

0101100
*
Ed
 1e-07 1 1 0
1  6 0 3.14159265358979 4.71238898038469
3  11 12CN 3 0 3.14159265358979 4.71238898038469
0

0101000
+45 0 -34 0 *
Ed
 1e-07 1 1 0
1  7 0 0 6.28318530717959
2  13 3 0 0 6.28318530717959
2  14 5 0 0 6.28318530717959
4 G1 3 0 5 0
0

0101100
+34 0 -34 0 *
Wi

0101100
-33 0 +42 0 -32 0 +33 0 *
Fa
0  0 3 0

0111000
+31 0 *
Wi

0101100
+37 0 *
Fa
0  1e-07 4 0

0111000
+29 0 *
Wi

0101100
-32 0 *
Ve
1e-07
0 50 23.0293419881626
0 0

0101100
*
Ed
 1e-07 1 1 0
1  8 0 0 6.28318530717959
2  15 6 0 0 6.28318530717959
2  16 5 0 0 6.28318530717959
4 G1 6 0 5 0
0

0101100
+26 0 -26 0 *
Wi

0101100
+25 0 *
Fa
0  1e-07 5 0

0111000
+27 0 +24 0 *
Ve
1e-07
0 52 25.0293419881626
0 0

0101100
*
Ed
 1e-07 1 1 0
1  9 0 0 1.5707963267949
3  17 18CN 6 0 0 1.5707963267949
0

0101000
+22 0 -26 0 *
Ed
 1e-07 1 1 0
1  10 0 0 6.28318530717959
2  19 6 0 0 6.28318530717959
2  20 7 0 0 6.28318530717959
4 G1 6 0 7 0
0

0101100
+22 0 -22 0 *
Wi

0101100
-21 0 +20 0 -25 0 +21 0 *
Fa
0  0 6 0

0111000
+19 0 *
Ve
1e-07
0 50 25.0293419881626
0 0

0101100
*
Ed
 1e-07 1 1 0
1  11 0 2 20
3  21 22CN 7 0 2 20
0

0101000
+22 0 -17 1 *
Ed
 1e-07 1 1 0
1  12 0 0 6.28318530717959
2  23 8 0 0 6.28318530717959
2  24 8 3 0 6.28318530717959
2  25 9 0 0 6.28318530717959
2  26 9 5 0 6.28318530717959
2  27 7 0 0 6.28318530717959
2  28 7 6 0 6.28318530717959
0

0101100
+17 0 -17 0 *
Wi

0101100
+16 0 -20 0 +15 1 -16 0 *
Fa
0  1e-07 7 0

0111000
+14 0 *
Wi

0101100
+15 0 *
Ve
1e-07
0 70 15.0572560053732
0 0

0101100
*
Ed
 1e-07 1 1 0
1  13 0 0 6.28318530717959
2  29 10 0 0 6.28318530717959
2  30 10 8 0 6.28318530717959
2  31 11 0 0 6.28318530717959
2  32 11 10 0 6.28318530717959
2  33 12 0 0 6.28318530717959
2  34 12 12 0 6.28318530717959
0

0101100
+11 0 -11 0 *
Wi

0101100
+10 0 *
Fa
0  1e-07 5 0

0111000
+12 0 -9 6 *
Ed
 1e-07 1 1 0
1  14 0 0 10
3  35 36CN 12 0 0 10
0

0101000
+11 0 -11 11 *
Wi

0101000
+7 0 -7 0 -10 0 +10 11 *
Fa
0  1e-07 12 0

0111000
+6 0 *
Fa
0  1e-07 13 0

0111000
+9 0 *
Sh

0101100
-40 0 -35 0 +30 0 -28 0 -23 0 -18 0 -13 0 +8 1 -5 0 +4 11 
*
So

0100000
+3 0 *
Co

0100000
+2 0 *

+1 0 
0

