DBRep_DrawableShape

CASCADE Topology V1, (c) Matra-Datavision
Locations 5
1
              1               0               0            -100 
              0               1               0            -100 
              0               0               1            -175 
1
              1               0               0               0 
              0               1               0               0 
              0               0               1             175 
2  1 1 2 1 0
1
              1               0              -0               0 
             -0               1               0               0 
              0               0               1              10 
2  4 -1 0
Curve2ds 50
1 25 0 0 -1 
1 0 0 0 -1 
1 -47.5 -1.5951281944041995 -1 0 
1 161.60228989515247 47.5 0 -1 
1 -47.5 -86.537880815593212 -1 0 
1 121.72408503504731 47.5 0 -1 
1 0 0 0 -1 
1 6.2831853071795862 0 0 -1 
1 0 0 0 -1 
1 3.1415926535897931 0 0 -1 
1 -1.5707963267948966 -1.5951281944042053 1 0 
2 100 120 0 -1 1 0 61.602289895152445
1 -1.5707963267948966 -86.537880815593212 1 0 
2 100 120 0 -1 1 0 21.724085035047306
1 0 0 1 0 
1 0 -10 1 0 
8 1.5707963267948966 4.7123889803846897
1 -1.5707963267948966 0 1 0 
8 -2.5 22.5
1 2.5 0 1 0 
8 -2.5 22.5
1 65 -2.5 0 1 
8 -10 15
1 10 0 1 0 
8 -10 15
1 -65 10 0 -1 
8 4.7123889803846897 7.8539816339744828
1 -1.5707963267948966 0 1 0 
8 4.7123889803846897 7.8539816339744828
2 0 -5 0 -1 1 0 65
1 0 0 1 0 
1 -1.5707963267948966 -1.5951281944042053 1 0 
2 100 95 0 -1 1 0 61.602289895152445
1 60 -1.5951281944042095 -1 -0 
1 38.397710104847569 60 0 1 
1 -1.5707963267948966 -86.537880815593212 1 0 
2 100 95 0 -1 1 0 21.724085035047306
1 60 -86.537880815593226 -1 -0 
1 78.275914964952705 60 0 1 
1 -1.5707963267948966 -84.942752621189001 1 0 
2 100 120 0 -1 1 0 25.121795139894864
1 -47.5 -84.942752621189015 -1 0 
1 125.12179513989487 47.5 0 -1 
1 60 -84.942752621189015 -1 -0 
1 74.878204860105143 60 0 1 
1 -1.5707963267948966 -84.942752621189001 1 0 
2 100 95 0 -1 1 0 25.121795139894864
1 25 0 0 -1 
1 3.1415926535897931 0 0 -1 
8 0 113.25700349491868
1 25 0 0 -1 
8 0 113.25700349491868
1 0 0 0 -1 
8 0 113.25700349491869
1 3.1415926535897931 0 0 -1 
8 0 113.25700349491869
1 0 0 0 -1 
8 0 113.25700349491869
1 0 0 0 -1 
8 0 113.25700349491869
1 6.2831853071795862 0 0 -1 
8 0 113.25700349491868
1 25 0 0 -1 
8 0 113.25700349491868
1 3.1415926535897931 0 0 -1 
Curves 26
1 62.351157184611019 20 1.4084146191239921 -0.46947153970799743 0 -0.8829476051296602 
1 61.602289895152452 -52.5 -1.1102230246251565e-16 0 -1 0 
1 21.72408503504731 -52.5 -75 0 -1 0 
1 62.351157184611019 -5 1.4084146191239921 -0.46947153970799743 0 -0.8829476051296602 
1 -62.351157184611019 20 1.4084146191239921 0.46947153970799743 0 -0.8829476051296602 
8 1.5707963267948966 4.7123889803846897
2 0 20 0 0 0 1 0 -1 0 1 0 -0 61.602289895152445
8 1.5707963267948966 4.7123889803846897
2 0 20 -75 0 0 1 0 -1 0 1 0 -0 21.724085035047306
2 0 20 0 0 0 1 0 -1 0 1 0 -0 65
1 65 -2.5 0 0 1 0 
1 -65 10 0 0 -1 0 
1 65 -2.5 0 0 1 0 
1 -65 10 0 0 -1 0 
2 0 -5 0 0 0 1 0 -1 0 1 0 -0 65
8 4.7123889803846897 7.8539816339744828
2 0 -5 0 0 0 1 0 -1 0 1 0 -0 61.602289895152445
1 -61.602289895152431 -40 -1.1102230246251565e-16 0 1 -0 
8 4.7123889803846897 7.8539816339744828
2 0 -5 -75 0 0 1 0 -1 0 1 0 -0 21.724085035047306
1 -21.724085035047295 -40 -75 0 1 -0 
8 1.5707963267948966 4.7123889803846897
2 0 20 -75 0 0 1 0 -1 0 1 0 -0 25.121795139894864
1 25.121795139894868 -52.5 -75 0 -1 0 
1 -25.121795139894854 -40 -75 0 1 -0 
8 4.7123889803846897 7.8539816339744828
2 0 -5 -75 0 0 1 0 -1 0 1 0 -0 25.121795139894864
1 -62.351157184611019 -5 1.4084146191239921 0.46947153970799743 0 -0.8829476051296602 
1 65 20 0 -0.46947153970799743 0 -0.8829476051296602 
1 -65 20 0 0.46947153970799743 0 -0.8829476051296602 
1 65 -5 0 -0.46947153970799743 0 -0.8829476051296602 
1 -65 -5 0 0.46947153970799743 0 -0.8829476051296602 
Polygon3D 0
PolygonOnTriangulations 12
25 30 32 33 34 35 36 37 38 39 40 41 42 43 44 45 46 47 48 49 50 51 52 53 54 31 
p 14.0710986238011 1 1.5707963267949 1.70169602069447 1.83259571459405 1.96349540849362 2.0943951023932 2.22529479629277 2.35619449019234 2.48709418409192 2.61799387799149 2.74889357189107 2.87979326579064 3.01069295969022 3.14159265358979 3.27249234748937 3.40339204138894 3.53429173528852 3.66519142918809 3.79609112308767 3.92699081698724 4.05789051088681 4.18879020478639 4.31968989868596 4.45058959258554 4.58148928648511 4.71238898038469 
25 26 34 35 36 37 38 39 40 41 42 43 44 45 46 47 48 49 50 51 52 53 54 55 56 30 
p 14.3823323688609 1 1.5707963267949 1.70169602069447 1.83259571459405 1.96349540849362 2.0943951023932 2.22529479629277 2.35619449019234 2.48709418409192 2.61799387799149 2.74889357189107 2.87979326579064 3.01069295969022 3.14159265358979 3.27249234748937 3.40339204138894 3.53429173528852 3.66519142918809 3.79609112308767 3.92699081698724 4.05789051088681 4.18879020478639 4.31968989868596 4.45058959258554 4.58148928648511 4.71238898038469 
25 1 2 3 4 5 6 7 8 9 10 11 12 13 14 15 16 17 18 19 20 21 22 23 24 25 
p 14.3823323688609 1 1.5707963267949 1.70169602069447 1.83259571459405 1.96349540849362 2.0943951023932 2.22529479629277 2.35619449019234 2.48709418409192 2.61799387799149 2.74889357189107 2.87979326579064 3.01069295969022 3.14159265358979 3.27249234748937 3.40339204138894 3.53429173528852 3.66519142918809 3.79609112308767 3.92699081698724 4.05789051088681 4.18879020478639 4.31968989868596 4.45058959258554 4.58148928648511 4.71238898038469 
25 1 9 10 11 12 13 14 15 16 17 18 19 20 21 22 23 24 25 26 27 28 29 30 31 32 
p 14.3823323688609 1 1.5707963267949 1.70169602069447 1.83259571459405 1.96349540849362 2.0943951023932 2.22529479629277 2.35619449019234 2.48709418409192 2.61799387799149 2.74889357189107 2.87979326579064 3.01069295969022 3.14159265358979 3.27249234748937 3.40339204138894 3.53429173528852 3.66519142918809 3.79609112308767 3.92699081698724 4.05789051088681 4.18879020478639 4.31968989868596 4.45058959258554 4.58148928648511 4.71238898038469 
2 3 1 
p 2.50000002 1 -0.5 22.5 
2 1 4 
p 2.00000008 1 -10 -5 
2 1 3 
p 2.50000002 1 -10 -5 
2 5 4 
p 0.80000008 1 -2.5 -0.5 
2 5 3 
p 2.50000002 1 -2.5 -0.5 
2 3 5 
p 2.50000002 1 -5 15 
24 1 10 11 12 13 14 15 16 17 18 19 20 21 22 23 24 25 26 27 28 29 30 31 9 
p 14.0984335369816 1 4.71238898038469 4.84897996532338 4.98557095026206 5.12216193520075 5.25875292013944 5.39534390507812 5.53193489001681 5.6685258749555 5.80511685989419 5.94170784483287 6.07829882977156 6.21488981471025 6.35148079964893 6.48807178458762 6.62466276952631 6.761253754465 6.89784473940368 7.03443572434237 7.17102670928106 7.30761769421974 7.44420867915843 7.58079966409712 7.7173906490358 7.85398163397448 
24 1 2 3 4 5 6 7 8 9 10 11 12 13 14 15 16 17 18 19 20 21 22 23 24 
p 14.6838972594161 1 4.71238898038469 4.84897996532338 4.98557095026206 5.12216193520075 5.25875292013944 5.39534390507812 5.53193489001681 5.6685258749555 5.80511685989419 5.94170784483287 6.07829882977156 6.21488981471025 6.35148079964893 6.48807178458762 6.62466276952631 6.761253754465 6.89784473940368 7.03443572434237 7.17102670928106 7.30761769421974 7.44420867915843 7.58079966409712 7.7173906490358 7.85398163397448 
Surfaces 13
1 62.351157184611019 -5 1.4084146191239924 0.8829476051296602 0 -0.46947153970799743 0 1 0 0.46947153970799743 -0 0.8829476051296602 
3 0 20 1.4084146191239921 0 0 1 1 0 -0 -0 1 0 62.351157184611019
0.48869216442108154
1 0 0 0 0 0 1 1 0 -0 -0 1 0 
1 0 0 100 0 0 1 1 0 -0 -0 1 0 
3 0 -5 1.4084146191239921 0 0 1 1 0 -0 -0 1 0 62.351157184611019
0.48869216442108154
1 -62.351157184611019 20 1.4084146191239924 -0.8829476051296602 0 -0.46947153970799743 0 -1 -0 -0.46947153970799743 -0 0.8829476051296602 
2 0 20 0 0 0 -1 0 -1 0 1 0 0 65
3 0 20 0 0 0 1 1 0 -0 -0 1 0 65
0.48869216442108154
1 65 -5 0 0.8829476051296602 0 -0.46947153970799743 0 1 0 0.46947153970799743 -0 0.8829476051296602 
1 0 0 0 0 0 1 1 0 -0 -0 1 0 
1 -65 20 0 -0.8829476051296602 0 -0.46947153970799743 0 -1 -0 -0.46947153970799743 -0 0.8829476051296602 
3 0 -5 0 0 0 1 1 0 -0 -0 1 0 65
0.48869216442108154
2 0 -5 0 0 0 -1 0 -1 0 1 0 0 65
Triangulations 9
54 52 1 6.91166184430462
-62 14.1692307692308 10 -65 15 10 -62 20 10 62 20 10 61.4695814051762 28.0926239176432 10 59.8874012299222 36.0467807963563 10 57.2805310156998 43.7263728066356 10 53.6935750346352 51 10 49.1879070980566 57.7432085985407 10 43.8406204335659 63.8406204335659 10 37.7432085985407 69.1879070980566 10 31 73.6935750346352 10 23.7263728066356 77.2805310156998 10 16.0467807963563 79.8874012299222 10 8.09262391764324 81.4695814051762 10 5.50670620214078e-14 82 10 -8.09262391764314 81.4695814051763 10 -16.0467807963562 79.8874012299223 10 -23.7263728066355 77.2805310156998 10 -30.9999999999999 73.6935750346352 10 -37.7432085985406 69.1879070980566 10 -43.8406204335659 63.840620433566 10 -49.1879070980565 57.7432085985408 10 -53.6935750346351 51.0000000000001 10 -57.2805310156997 43.7263728066357 10 -59.8874012299222 36.0467807963564 10 -61.4695814051762 28.0926239176434 10 62 -3 10 65 -3 10 65 20 10 -65 20 10 64.4439159892977 28.4842024943034 10 62.7851787087894 36.8232379316639 10 60.0521696132336 44.8744231037308 10 56.2916512459885 52.5 10 51.5679671189303 59.5694928855669 10 45.9619407771256 65.9619407771256 10 39.5694928855669 71.5679671189303 10 32.5 76.2916512459885 10 24.8744231037309 80.0521696132336 10 16.8232379316639 82.7851787087894 10 8.4842024943034 84.4439159892977 10 5.77315972805081e-14 85 10 -8.48420249430329 84.4439159892977 10 -16.8232379316638 82.7851787087895 10 -24.8744231037308 80.0521696132337 10 -32.4999999999999 76.2916512459886 10 -39.5694928855668 71.5679671189303 10 -45.9619407771255 65.9619407771257 10 -51.5679671189302 59.5694928855669 10 -56.2916512459884 52.5000000000001 10 -60.0521696132336 44.874423103731 10 -62.7851787087894 36.823237931664 10 -64.4439159892977 28.4842024943035 10 -62 14.1692307692308 -65 15 -62 20 62 20 61.4695814051762 28.0926239176432 59.8874012299222 36.0467807963563 57.2805310156998 43.7263728066356 53.6935750346352 51 49.1879070980566 57.7432085985407 43.8406204335659 63.8406204335659 37.7432085985407 69.1879070980566 31 73.6935750346352 23.7263728066356 77.2805310156998 16.0467807963563 79.8874012299222 8.09262391764324 81.4695814051762 5.6843418860808e-14 82 -8.09262391764314 81.4695814051763 -16.0467807963562 79.8874012299223 -23.7263728066355 77.2805310156998 -30.9999999999999 73.6935750346352 -37.7432085985406 69.1879070980566 -43.8406204335659 63.840620433566 -49.1879070980565 57.7432085985408 -53.6935750346351 51.0000000000001 -57.2805310156997 43.7263728066357 -59.8874012299222 36.0467807963564 -61.4695814051762 28.0926239176434 62 -3 65 -3 65 20 -65 20 64.4439159892977 28.4842024943034 62.7851787087894 36.8232379316639 60.0521696132336 44.8744231037308 56.2916512459885 52.5 51.5679671189303 59.5694928855669 45.9619407771256 65.9619407771256 39.5694928855669 71.5679671189303 32.5 76.2916512459885 24.8744231037309 80.0521696132336 16.8232379316639 82.7851787087894 8.4842024943034 84.4439159892977 5.6843418860808e-14 85 -8.48420249430329 84.4439159892977 -16.8232379316638 82.7851787087895 -24.8744231037308 80.0521696132337 -32.4999999999999 76.2916512459886 -39.5694928855668 71.5679671189303 -45.9619407771255 65.9619407771257 -51.5679671189302 59.5694928855669 -56.2916512459884 52.5000000000001 -60.0521696132336 44.874423103731 -62.7851787087894 36.823237931664 -64.4439159892977 28.4842024943035 31 2 3 3 2 1 53 54 26 31 27 54 3 27 31 26 25 52 26 52 53 52 25 51 24 23 51 25 24 51 51 23 50 26 54 27 50 22 49 50 23 22 49 22 21 48 21 20 21 48 49 47 20 19 20 47 48 46 19 18 19 46 47 46 18 45 45 18 44 44 17 43 18 17 44 43 17 16 34 7 33 33 7 6 7 34 35 36 9 8 35 8 7 36 8 35 28 29 4 4 29 30 5 33 6 33 5 32 30 32 5 5 4 30 14 13 40 40 13 39 14 40 41 16 42 43 15 42 16 42 15 14 14 41 42 9 37 10 10 37 11 12 39 13 39 12 11 11 38 39 38 11 37 37 9 36 
56 54 1 9.19116622443046
65 20 0 64.4439159892977 28.4842024943034 0 62.7851787087894 36.8232379316639 0 60.0521696132336 44.8744231037308 0 56.2916512459885 52.5 0 51.5679671189303 59.5694928855669 0 45.9619407771256 65.9619407771256 0 39.5694928855669 71.5679671189303 0 32.5 76.2916512459885 0 24.8744231037309 80.0521696132336 0 16.8232379316639 82.7851787087894 0 8.4842024943034 84.4439159892977 0 5.77315972805081e-14 85 0 -8.48420249430329 84.4439159892977 0 -16.8232379316638 82.7851787087895 0 -24.8744231037308 80.0521696132337 0 -32.4999999999999 76.2916512459886 0 -39.5694928855668 71.5679671189303 0 -45.9619407771255 65.9619407771257 0 -51.5679671189302 59.5694928855669 0 -56.2916512459884 52.5000000000001 0 -60.0521696132336 44.874423103731 0 -62.7851787087894 36.823237931664 0 -64.4439159892977 28.4842024943035 0 -65 20 0 65 20 10 65 20 2.5 65 20 5 65 20 7.5 -65 20 10 -65 20 2.5 -65 20 5 -65 20 7.5 64.4439159892977 28.4842024943034 10 62.7851787087894 36.8232379316639 10 60.0521696132336 44.8744231037308 10 56.2916512459885 52.5 10 51.5679671189303 59.5694928855669 10 45.9619407771256 65.9619407771256 10 39.5694928855669 71.5679671189303 10 32.5 76.2916512459885 10 24.8744231037309 80.0521696132336 10 16.8232379316639 82.7851787087894 10 8.4842024943034 84.4439159892977 10 5.77315972805081e-14 85 10 -8.48420249430329 84.4439159892977 10 -16.8232379316638 82.7851787087895 10 -24.8744231037308 80.0521696132337 10 -32.4999999999999 76.2916512459886 10 -39.5694928855668 71.5679671189303 10 -45.9619407771255 65.9619407771257 10 -51.5679671189302 59.5694928855669 10 -56.2916512459884 52.5000000000001 10 -60.0521696132336 44.874423103731 10 -62.7851787087894 36.823237931664 10 -64.4439159892977 28.4842024943035 10 1.5707963267949 0 1.70169602069447 0 1.83259571459405 0 1.96349540849362 0 2.0943951023932 0 2.22529479629277 0 2.35619449019234 0 2.48709418409192 0 2.61799387799149 0 2.74889357189107 0 2.87979326579064 0 3.01069295969022 0 3.14159265358979 0 3.27249234748937 0 3.40339204138894 0 3.53429173528852 0 3.66519142918809 0 3.79609112308767 0 3.92699081698724 0 4.05789051088681 0 4.18879020478639 0 4.31968989868596 0 4.45058959258554 0 4.58148928648511 0 4.71238898038469 0 1.5707963267949 -10 1.5707963267949 -2.5 1.5707963267949 -5 1.5707963267949 -7.5 4.71238898038469 -10 4.71238898038469 -2.5 4.71238898038469 -5 4.71238898038469 -7.5 1.70169602069447 -10 1.83259571459405 -10 1.96349540849362 -10 2.0943951023932 -10 2.22529479629277 -10 2.35619449019234 -10 2.48709418409192 -10 2.61799387799149 -10 2.74889357189107 -10 2.87979326579064 -10 3.01069295969022 -10 3.14159265358979 -10 3.27249234748937 -10 3.40339204138894 -10 3.53429173528852 -10 3.66519142918809 -10 3.79609112308767 -10 3.92699081698724 -10 4.05789051088681 -10 4.18879020478639 -10 4.31968989868596 -10 4.45058959258554 -10 4.58148928648511 -10 26 34 29 29 34 28 36 4 35 34 35 3 5 36 37 38 6 37 7 38 39 8 39 40 10 41 42 12 43 44 11 42 43 9 40 41 12 44 45 27 28 2 1 27 2 2 28 34 3 35 4 34 3 2 5 4 36 5 37 6 6 38 7 8 40 9 10 42 11 41 10 9 39 8 7 43 12 11 45 13 12 15 46 47 16 47 48 18 49 50 20 51 52 19 50 51 17 48 49 22 53 54 23 54 55 56 30 33 33 32 56 55 56 24 52 53 21 24 56 32 13 46 14 14 46 15 16 48 17 18 50 19 49 18 17 47 16 15 52 21 20 20 19 51 53 22 21 22 54 23 25 24 31 55 24 23 31 24 32 46 13 45 
55 56 1 7.52080730825122
65 20 0 15 20 -94.0363291967429 52.5 20 -23.5090822991857 40 20 -47.0181645983715 27.5 20 -70.5272468975572 15 27 -91.1156635799706 15 23.0282056254142 -93.4671929082138 15 24.9749769433382 -92.5251782787723 64.4439159892977 28.4842024943034 0 62.7851787087894 36.8232379316639 0 60.0521696132336 44.8744231037308 0 56.2916512459885 52.5 0 51.5679671189303 59.5694928855669 0 45.9619407771256 65.9619407771256 0 39.5694928855669 71.5679671189303 0 32.5 76.2916512459885 0 24.8744231037309 80.0521696132336 0 16.8232379316639 82.7851787087894 0 8.4842024943034 84.4439159892977 0 5.77315972805081e-14 85 0 -8.48420249430329 84.4439159892977 0 -16.8232379316638 82.7851787087895 0 -24.8744231037308 80.0521696132337 0 -32.4999999999999 76.2916512459886 0 -39.5694928855668 71.5679671189303 0 -45.9619407771255 65.9619407771257 0 -51.5679671189302 59.5694928855669 0 -56.2916512459884 52.5000000000001 0 -60.0521696132336 44.874423103731 0 -62.7851787087894 36.823237931664 0 -64.4439159892977 28.4842024943035 0 -65 20 0 7 35 -91.1156635799706 14.2079254702058 30.4707466005899 -89.0535302236912 12.4391720459145 32.8664653555094 -88.5891087220062 9.86785693160066 34.4683456115795 -89.3099758287027 8.38171647386548 34.8798123681473 -90.1279980431616 -15 20 -94.0363291967429 -52.5 20 -23.5090822991857 -40 20 -47.0181645983715 -27.5 20 -70.5272468975572 -7 35 -91.1156635799706 2.26451824222463 35 -93.7166588096383 -1.80916054428108 35 -93.8318788945557 -4.34498240433193 35 -92.8766324472037 -15 27 -91.1156635799706 -15 23.799505569735 -93.1453773042715 -15 21.8849287012636 -93.8144636580287 -10.4044397179527 34.2394799049956 -89.0794630369936 -12.3254600047392 32.9698801348782 -88.5966846931537 -14.0791806094428 30.7262858718831 -88.9590829504407 -14.8403061191713 28.5905770083302 -89.9977099525474 28.2842712474619 48.2842712474619 -47.0181645983715 0 60 -47.0181645983715 -28.2842712474619 48.2842712474619 -47.0181645983715 0 0 0 -106.502728644848 0 -26.6256821612121 0 -53.2513643224242 0 -79.8770464836363 0.436627159813541 -103.194870285185 0.19920295733068 -105.858141937903 0.320248420018977 -104.791244400451 0.130899693899575 0 0.26179938779915 0 0.392699081698724 0 0.523598775598299 0 0.654498469497874 0 0.785398163397448 0 0.916297857297023 0 1.0471975511966 0 1.17809724509617 0 1.30899693899575 0 1.43989663289532 0 1.5707963267949 0 1.70169602069447 0 1.83259571459405 0 1.96349540849362 0 2.09439510239319 0 2.22529479629277 0 2.35619449019234 0 2.48709418409192 0 2.61799387799149 0 2.74889357189107 0 2.87979326579064 0 3.01069295969022 0 3.14159265358979 0 1.13416916698136 -103.194870285186 0.63510639245003 -100.859359837794 0.802281866661809 -100.3333699614 0.972232565599105 -101.149802445625 1.05780371176426 -102.076269893644 3.14159265358979 -106.502728644848 3.14159265358979 -26.6256821612121 3.14159265358979 -53.2513643224242 3.14159265358979 -79.8770464836363 2.00742348660843 -103.194870285185 1.42095992950569 -106.140679544851 1.69082724264611 -106.271174359958 1.8527451638183 -105.189290862145 2.70496549377625 -103.194870285186 2.89351017901728 -105.493663229453 3.01658598172506 -106.251450381988 2.201814660684 -100.888730592199 2.33072350026132 -100.341951545519 2.49054764746597 -100.752390491436 2.61685639187607 -101.928710436699 0.785398163397448 -53.2513643224242 1.5707963267949 -53.2513643224242 2.35619449019234 -53.2513643224242 5 2 7 5 7 8 4 5 53 6 5 8 34 5 6 37 54 36 33 54 37 34 53 5 53 34 35 35 36 53 54 53 36 53 54 17 4 53 3 3 9 1 9 3 10 11 10 3 13 12 3 11 3 12 53 13 3 13 53 14 14 53 15 16 53 17 19 18 54 17 54 18 53 16 15 19 54 20 54 33 43 54 44 45 54 45 42 54 49 55 49 54 42 50 55 49 55 50 51 54 55 23 44 54 43 41 47 48 41 48 38 51 52 41 46 41 52 41 46 47 51 41 55 55 41 40 21 54 22 22 54 23 24 55 25 26 55 27 55 26 25 55 24 23 27 39 28 39 27 55 28 39 29 30 29 39 32 31 39 30 39 31 40 39 55 54 21 20 
7 5 1 2.50000002
65 20 0 65 20 10 65 -3 0 65 -3 10 65 -5 0 65 -3 25 65 -5 25 23 0 23 -10 0 0 0 -10 -2 0 0 -25 -2 -25 5 7 4 4 7 6 4 2 1 1 3 4 4 3 5 
6 5 1 7.64217979580458
-65 20 0 -15 20 -94.0363291967429 -15 -5 -94.0363291967429 -65 15 0 -65 -5 0 -40 7.5 -47.0181645983715 0 0 0 -106.502728644848 25 -106.502728644848 5 0 25 0 12.5 -53.2513643224242 1 6 4 6 1 2 6 3 5 3 6 2 6 5 4 
8 7 1 2.50000002
-65 20 0 -65 20 10 -65 15 0 -65 15 10 -65 -5 0 -65 15 25 -65 -5 25 -65 7.5 12.5 0 0 0 -10 5 0 5 -10 25 0 5 -25 25 -25 12.5 -12.5 1 4 3 4 1 2 6 8 4 8 7 5 7 8 6 5 3 8 8 3 4 
6 5 1 7.64217979580458
65 20 0 15 20 -94.0363291967429 15 -5 -94.0363291967429 65 -3 0 65 -5 0 40 7.5 -47.0181645983715 25 0 25 -106.502728644848 0 -106.502728644848 2 0 0 0 12.5 -53.2513643224242 5 6 4 6 5 3 6 2 1 2 6 3 6 1 4 
47 45 1 8.41948629708033
-65 -5 0 -15 -5 -94.0363291967429 -52.5 -5 -23.5090822991857 -40 -5 -47.0181645983715 -27.5 -5 -70.5272468975572 -15 -8.6998665513408 -93.190823161558 -15 -12.6215097660385 -90.6036239017698 -15 -17 -86.1196500350331 65 -5 0 -64.3945864923615 -13.8508321912561 0 -62.5896236776069 -22.5367901252066 0 -59.6187345978544 -30.8960708400058 0 -55.5372612955217 -38.7729567523033 0 -50.4212338957872 -46.0207163811935 0 -44.3659543092124 -52.5043376780782 0 -37.4842209374662 -58.1030430456788 0 -29.9042274525247 -62.7125391961545 0 -21.7671747911139 -66.2469599377234 0 -13.224640848421 -68.640465699351 0 -4.43575686870334 -69.8484699973851 0 4.43575686870391 -69.848469997385 0 13.2246408484215 -68.6404656993509 0 21.7671747911144 -66.2469599377232 0 29.9042274525252 -62.7125391961542 0 37.4842209374667 -58.1030430456785 0 44.3659543092128 -52.5043376780778 0 50.4212338957876 -46.0207163811931 0 55.537261295522 -38.7729567523028 0 59.6187345978546 -30.8960708400052 0 62.5896236776071 -22.5367901252061 0 64.3945864923616 -13.8508321912555 0 -7 -25 -82.3953461294309 -14.1908685096465 -20.505895641726 -82.7155520819957 -12.6491479556463 -22.6645490457467 -81.3857757148119 -10.6155733332423 -24.1363550481645 -81.090220104009 -8.62410291113674 -24.8334062409499 -81.5722297171895 15 -5 -94.0363291967429 7 -25 -82.3953461294309 -0.762899453894217 -25 -84.6053409200425 3.06270395102984 -25 -84.1942143287519 15 -17 -86.1196500350331 15 -11.2755659346204 -91.6668954758532 15 -8.07390245980709 -93.4500625362327 9.85103424478411 -24.4747302787048 -81.2013443188367 12.1678305549717 -23.1068413763495 -81.218333866239 13.8529506600082 -21.1275934971504 -82.2622750784015 14.7700244323603 -18.9043939272521 -84.0964772815383 3.14159265358979 0 3.14159265358979 -106.502728644848 3.14159265358979 -26.6256821612121 3.14159265358979 -53.2513643224242 3.14159265358979 -79.8770464836363 3.38342322294663 -105.545133842422 3.61169976377742 -102.614949493424 3.81633359581335 -97.5365350499891 6.28318530717959 0 3.27818363852848 0 3.41477462346717 0 3.55136560840585 0 3.68795659334454 0 3.82454757828323 0 3.96113856322192 0 4.0977295481606 0 4.23432053309929 0 4.37091151803798 0 4.50750250297666 0 4.64409348791535 0 4.78068447285404 0 4.91727545779272 0 5.05386644273141 0 5.1904574276701 0 5.32704841260879 0 5.46363939754747 0 5.60023038248616 0 5.73682136742485 0 5.87341235236353 0 6.01000333730222 0 6.14659432224091 0 4.37571416099796 -93.31850004546 3.97124340359427 -93.6811557123471 4.09095548981422 -92.1750908456911 4.20591895558231 -91.8403534172347 4.30222416566137 -92.3862630616804 6.28318530717959 -106.502728644848 5.04906379977141 -93.31850004546 4.67426249457113 -95.8214739226355 4.86434371704241 -95.3558442665417 5.60844436495603 -97.5365350499891 5.88694279964589 -103.81917901396 6.08105692868644 -105.838740589714 5.18069505026189 -91.9662093731058 5.30407671128406 -91.985451225401 5.42206156845674 -93.1677877605448 5.52796622816405 -95.2451502138553 2 6 5 4 5 33 7 5 6 8 5 7 8 33 5 4 35 17 34 35 4 35 36 18 33 34 4 20 19 36 3 10 1 10 3 11 12 11 3 13 12 3 3 14 13 15 14 3 16 15 3 16 4 17 17 35 18 3 4 16 36 19 18 36 32 20 39 40 38 38 20 32 44 21 38 38 21 20 45 24 44 38 32 39 41 42 43 41 43 37 9 47 41 30 46 47 46 27 45 37 9 41 22 21 44 23 22 44 25 24 45 26 25 45 23 44 24 28 27 46 29 28 46 31 30 47 9 31 47 29 46 30 26 45 27 
55 53 1 12.1887490108043
-65 -5 0 -64.3945864923615 -13.8508321912561 0 -62.5896236776069 -22.5367901252066 0 -59.6187345978544 -30.8960708400058 0 -55.5372612955217 -38.7729567523033 0 -50.4212338957872 -46.0207163811935 0 -44.3659543092124 -52.5043376780782 0 -37.4842209374662 -58.1030430456788 0 -29.9042274525247 -62.7125391961545 0 -21.7671747911139 -66.2469599377234 0 -13.224640848421 -68.640465699351 0 -4.43575686870334 -69.8484699973851 0 4.43575686870391 -69.848469997385 0 13.2246408484215 -68.6404656993509 0 21.7671747911144 -66.2469599377232 0 29.9042274525252 -62.7125391961542 0 37.4842209374667 -58.1030430456785 0 44.3659543092128 -52.5043376780778 0 50.4212338957876 -46.0207163811931 0 55.537261295522 -38.7729567523028 0 59.6187345978546 -30.8960708400052 0 62.5896236776071 -22.5367901252061 0 64.3945864923616 -13.8508321912555 0 65 -5 0 -65 -5 25 -65 -5 6.25 -65 -5 12.5 -65 -5 18.75 65 -5 25 65 -5 6.25 65 -5 12.5 65 -5 18.75 -64.4439159892977 -13.4842024943033 25 -62.7851787087894 -21.8232379316638 25 -60.0521696132337 -29.8744231037308 25 -56.2916512459885 -37.5 25 -51.5679671189303 -44.5694928855668 25 -45.9619407771256 -50.9619407771255 25 -39.5694928855669 -56.5679671189302 25 -32.5000000000001 -61.2916512459885 25 -24.8744231037309 -65.0521696132336 25 -16.8232379316639 -67.7851787087894 25 -8.48420249430346 -69.4439159892977 25 -1.15463194561016e-13 -70 25 8.48420249430323 -69.4439159892977 25 16.8232379316637 -67.7851787087895 25 24.8744231037307 -65.0521696132337 25 32.4999999999999 -61.2916512459886 25 39.5694928855667 -56.5679671189304 25 45.9619407771255 -50.9619407771257 25 51.5679671189302 -44.569492885567 25 56.2916512459884 -37.5000000000002 25 60.0521696132336 -29.874423103731 25 62.7851787087894 -21.8232379316641 25 64.4439159892977 -13.4842024943036 25 4.71238898038469 0 4.84897996532338 0 4.98557095026206 0 5.12216193520075 0 5.25875292013944 0 5.39534390507812 0 5.53193489001681 0 5.6685258749555 0 5.80511685989419 0 5.94170784483287 0 6.07829882977156 0 6.21488981471025 0 6.35148079964893 0 6.48807178458762 0 6.62466276952631 0 6.761253754465 0 6.89784473940368 0 7.03443572434237 0 7.17102670928106 0 7.30761769421974 0 7.44420867915843 0 7.58079966409712 0 7.7173906490358 0 7.85398163397448 0 4.71238898038469 -25 4.71238898038469 -6.25 4.71238898038469 -12.5 4.71238898038469 -18.75 7.85398163397448 -25 7.85398163397448 -6.25 7.85398163397448 -12.5 7.85398163397448 -18.75 4.84328867428426 -25 4.97418836818384 -25 5.10508806208341 -25 5.23598775598299 -25 5.36688744988256 -25 5.49778714378214 -25 5.62868683768171 -25 5.75958653158129 -25 5.89048622548086 -25 6.02138591938044 -25 6.15228561328001 -25 6.28318530717958 -25 6.41408500107916 -25 6.54498469497873 -25 6.67588438887831 -25 6.80678408277788 -25 6.93768377667746 -25 7.06858347057703 -25 7.19948316447661 -25 7.33038285837618 -25 7.46128255227576 -25 7.59218224617533 -25 7.7230819400749 -25 25 33 28 28 33 27 35 3 34 33 34 2 36 4 35 5 36 37 6 37 38 8 39 40 10 41 42 9 40 41 7 38 39 11 42 43 27 33 26 26 33 1 33 2 1 3 35 4 34 3 2 5 4 36 5 37 6 6 38 7 8 40 9 10 42 11 41 10 9 39 8 7 43 12 11 43 44 12 13 44 45 14 45 46 16 47 48 18 49 50 17 48 49 15 46 47 20 51 52 21 52 53 23 54 55 29 32 55 53 54 22 50 51 19 32 31 55 13 45 14 14 46 15 16 48 17 18 50 19 49 18 17 47 16 15 20 52 21 20 19 51 30 24 55 21 53 22 23 55 24 54 23 22 31 30 55 44 13 12 

TShapes 69
Ve
1e-06
61.6022898951524 20 0
0 0

0101100
*
Ve
1e-06
21.7240850350473 20 -75
0 0

0101100
*
Ed
 1e-07 1 1 0
2  1 1 0 1.59512819440421 86.5378808155932
1  1 0 1.59512819440421 86.5378808155932
2  2 2 0 1.59512819440421 86.5378808155932
4 G1 2 0 1 0
0

0101000
+69 0 -68 0 *
Ve
1e-06
61.6022898951524 -5 0
0 0

0101100
*
Ed
 1e-08 1 1 0
1  2 0 -72.5 -47.5
2  3 1 0 -72.5 -47.5
2  4 3 3 -72.5 -47.5
0

0101000
+69 0 -66 0 *
Ve
1e-06
21.7240850350473 -5 -75
0 0

0101100
*
Ed
 1e-08 1 1 0
1  3 0 -72.5 -47.5
2  5 1 0 -72.5 -47.5
2  6 4 1 -72.5 -47.5
0

0101000
+68 0 -64 0 *
Ed
 1e-07 1 1 0
2  7 1 0 1.59512819440421 86.5378808155932
1  4 0 1.59512819440421 86.5378808155932
2  8 5 0 1.59512819440421 86.5378808155932
4 G1 1 0 5 0
0

0101000
+66 0 -64 0 *
Wi

0101100
-67 0 +65 0 -63 0 +62 0 *
Fa
0  1e-07 1 0

0111000
+61 0 *
Ve
1e-06
-61.6022898951524 20 0
0 0

0101100
*
Ve
1e-06
-21.7240850350473 20 -75
0 0

0101100
*
Ed
 1e-07 1 1 0
2  9 6 0 1.59512819440421 86.5378808155932
1  5 0 1.59512819440421 86.5378808155932
2  10 2 0 1.59512819440421 86.5378808155932
4 G1 2 0 6 0
0

0101000
+59 0 -58 0 *
Ed
 1e-06 1 1 0
1  6 0 1.5707963267949 4.71238898038469
2  11 2 0 1.5707963267949 4.71238898038469
2  12 3 3 1.5707963267949 4.71238898038469
0

0101000
+69 0 -59 0 *
Ed
 1e-06 1 1 0
1  7 0 1.5707963267949 4.71238898038469
2  13 2 0 1.5707963267949 4.71238898038469
2  14 4 1 1.5707963267949 4.71238898038469
0

0101000
+68 0 -58 0 *
Wi

0101100
-57 0 -56 0 +55 0 +67 0 *
Fa
0  1e-07 2 0

0111000
+54 0 *
Ve
1e-07
65 20 0
0 0

0101100
*
Ve
1e-07
-65 20 0
0 0

0101100
*
Ed
 1e-07 1 1 0
1  8 0 1.5707963267949 4.71238898038469
2  15 7 0 1.5707963267949 4.71238898038469
2  16 7 5 1.5707963267949 4.71238898038469
2  17 8 0 1.5707963267949 4.71238898038469
6  1 1 5
6  2 2 5
6  3 2 0
6  4 3 0
0

0101000
+52 0 -51 0 *
Ve
1.02469507659596e-07
65 -3 0
0 0

0101100
*
Ed
 1e-07 1 1 0
1  9 0 -0.5 22.5
6  5 4 0
0

0101000
+49 0 -52 0 *
Ve
1.02469507659596e-07
-65 15 0
0 0

0101100
*
Ed
 1e-07 1 1 0
1  10 0 -10 -5
6  6 5 0
6  7 6 0
0

0101000
-47 0 +51 0 *
Ve
1e-07
65 -5 0
0 0

0101100
*
Ed
 1e-07 1 1 0
1  11 0 -2.5 -0.5
2  18 9 0 -2.5 -0.5
2  19 10 0 -2.5 -0.5
6  8 7 0
6  9 4 0
0

0101000
-49 0 +45 0 *
Ve
1e-07
-65 -5 0
0 0

0101100
*
Ed
 1e-07 1 1 0
1  12 0 -5 15
2  20 11 0 -5 15
2  21 10 0 -5 15
6  10 6 0
0

0101000
+47 0 -43 0 *
Ed
 1e-07 1 1 0
1  13 0 4.71238898038469 7.85398163397448
2  22 12 0 4.71238898038469 7.85398163397448
2  23 10 0 4.71238898038469 7.85398163397448
2  24 13 0 4.71238898038469 7.85398163397448
6  11 8 0
6  12 9 0
0

0101000
+43 0 -45 0 *
Wi

0101100
+50 0 +48 0 +46 0 +44 0 +42 0 +41 0 *
Ve
1e-06
-61.6022898951524 -4.99999999999999 0
0 0

0101100
*
Ed
 1e-06 1 1 0
1  14 0 4.71238898038469 7.85398163397448
2  25 5 0 4.71238898038469 7.85398163397448
2  26 3 3 4.71238898038469 7.85398163397448
0

0101000
+39 0 -66 0 *
Ed
 1e-08 1 1 0
1  15 0 35 60
2  27 6 0 35 60
2  28 3 3 35 60
0

0101000
+39 0 -59 0 *
Wi

0101100
+65 0 -56 0 -38 0 +37 0 *
Fa
0  1e-07 3 3

0111000
+40 0 +36 0 *
Ve
1e-06
-21.7240850350473 -5 -75
0 0

0101100
*
Ed
 1e-06 1 1 0
1  16 0 4.71238898038469 7.85398163397448
2  29 5 0 4.71238898038469 7.85398163397448
2  30 4 1 4.71238898038469 7.85398163397448
0

0101000
+34 0 -64 0 *
Ed
 1e-08 1 1 0
1  17 0 35 60
2  31 6 0 35 60
2  32 4 1 35 60
0

0101000
+34 0 -58 0 *
Wi

0101100
+63 0 -55 0 -33 0 +32 0 *
Ve
1e-06
25.1217951398949 20 -75
0 0

0101100
*
Ve
1e-06
-25.1217951398949 20 -75
0 0

0101100
*
Ed
 1e-06 1 1 0
1  18 0 1.5707963267949 4.71238898038469
2  33 8 0 1.5707963267949 4.71238898038469
2  34 4 1 1.5707963267949 4.71238898038469
0

0101000
+30 0 -29 0 *
Ve
1e-06
25.1217951398949 -5 -75
0 0

0101100
*
Ed
 1e-08 1 1 0
1  19 0 -72.5 -47.5
2  35 9 0 -72.5 -47.5
2  36 4 1 -72.5 -47.5
0

0101000
+30 0 -27 0 *
Ve
1e-06
-25.1217951398949 -5 -75
0 0

0101100
*
Ed
 1e-08 1 1 0
1  20 0 35 60
2  37 11 0 35 60
2  38 4 1 35 60
0

0101000
+25 0 -29 0 *
Ed
 1e-06 1 1 0
1  21 0 4.71238898038469 7.85398163397448
2  39 12 0 4.71238898038469 7.85398163397448
2  40 4 1 4.71238898038469 7.85398163397448
0

0101000
+25 0 -27 0 *
Wi

0101100
+28 0 -26 0 -24 0 +23 0 *
Fa
0  1e-07 4 1

0111000
+31 0 +22 0 *
Ed
 1e-07 1 1 0
2  41 6 0 1.59512819440421 86.5378808155932
1  22 0 1.59512819440421 86.5378808155932
2  42 5 0 1.59512819440421 86.5378808155932
4 G1 5 0 6 0
0

0101000
+39 0 -34 0 *
Wi

0101100
-62 0 -38 0 +33 0 +20 0 *
Fa
0  1e-07 5 0

0111000
+19 0 *
Wi

0101100
+57 0 +37 0 -32 0 -20 0 *
Fa
0  1e-07 6 0

0111000
+17 0 *
Ed
 1e-07 1 1 0
1  23 0 0 84.942752621189
2  43 9 0 0 84.942752621189
2  44 8 0 0 84.942752621189
4 G1 9 0 8 0
0

0101000
+52 0 -30 0 *
Ed
 1e-07 1 1 0
1  24 0 0 84.942752621189
2  45 8 0 0 84.942752621189
2  46 11 0 0 84.942752621189
4 G1 8 0 11 0
0

0101000
+51 0 -29 0 *
Wi

0101100
-50 0 +15 0 -14 0 +28 0 *
Fa
0  1e-07 8 0

0111000
+13 0 *
Ed
 1e-07 1 1 0
1  25 0 0 84.942752621189
2  47 9 0 0 84.942752621189
2  48 12 0 0 84.942752621189
4 G1 9 0 12 0
0

0101000
+45 0 -27 0 *
Wi

0101100
-48 0 -44 0 -15 0 +11 0 -26 0 *
Fa
0  1e-07 9 0

0111000
+10 0 *
Ed
 1e-07 1 1 0
1  26 0 0 84.942752621189
2  49 11 0 0 84.942752621189
2  50 12 0 0 84.942752621189
4 G1 11 0 12 0
0

0101000
+43 0 -25 0 *
Wi

0101100
-46 0 -42 0 +14 0 -8 0 -24 0 *
Fa
0  1e-07 11 0

0111000
+7 0 *
Wi

0101100
-41 0 +8 0 -11 0 +23 0 *
Fa
0  1e-07 12 0

0111000
+5 0 *
Sh

0101100
-60 0 -53 0 +35 0 -21 0 -18 0 -16 0 +12 0 +9 0 +6 0 +4 0 
*
So

0100000
+3 0 *
Co

1100000
+2 0 *

+1 0 
0

