DBRep_DrawableShape

CASCADE Topology V1, (c) Matra-Datavision
Locations 9
1
              1               0               0               0 
              0 0.832320912733189 0.554294053934364             -25 
              0 -0.554294053934364 0.832320912733189              60 
2  1 -1 0
1
              1               0               0               0 
              0               1               0              20 
              0               0               1              40 
2  3 -1 0
1
              1               0               0               0 
              0               1               0               0 
              0               0               1             -60 
2  5 -1 0
1
              1               0               0               0 
              0               1               0               0 
              0               0               1             -60 
2  5 1 7 -1 0
2  7 -1 0
Curve2ds 20
1 0 0 1 0 
1 0 1 1 0 
1 200 0 0 1 
7 0 0  10 92 11  0 -3.4694469519536142e-18  0 0.0031250447560773197  0 0.0062499946245561265  0 0.0093749709549454958  0 0.012500014033770598  0 0.015625109059473452  0 0.018750212117163521  0 0.021875276153566138  0 0.025000276951761533  0 0.0281252391061016  0 0.034375284887913256  0 0.037500303558339623  0 0.040625318357244894  0 0.043750329633583426  0 0.046875337736318363  0 0.050000343014398346  0 0.053125345816790119  0 0.056250346492443655  0 0.059375345390320015  0 0.068750337797486849  0 0.075000363690241226  0 0.081250362610029936  0 0.087500321856980104  0 0.093750258064395783  0 0.10000020130374103  0 0.10625017919029903  0 0.11250020098804618  0 0.11875024171524375  0 0.13125021078379842  0 0.13749995969820328  0 0.14375009779317979  0 0.15000021629294805  0 0.15625009342809887  0 0.16249990605809722  0 0.16874990597960141  0 0.17500003455992655  0 0.18124994934198282  0 0.19374992317988549  0 0.19999991094936378  0 0.20624989970952262  0 0.21249988960037869  0 0.21874988076222771  0 0.22499987333493582  0 0.23124986745888831  0 0.23749986327397524  0 0.24374986092045406  0 0.27499985901008056  0 0.29999988493671015  0 0.32499992708275438  0 0.34999997594581245  0 0.37500002375647778  0 0.40000006447850872  0 0.4250000938086187  0 0.45000010917668937  0 0.47500010974559248  0 0.52500008307703372  0 0.550000053093884  0 0.57500001482436125  0 0.59999997522887527  0 0.6249999398663324  0 0.64999991289315084  0 0.67499989706457186  0 0.69999989373325766  0 0.72499990285049665  0 0.7624999330228327  0 0.77499996329208176  0 0.78749998512794483  0 0.79999999470449101  0 0.81250000264316957  0 0.82500002363741753  0 0.83750006608267702  0 0.85000012169981976  0 0.86250015516497236  0 0.88125006301912634  0 0.88750013744284695  0 0.89375007652147476  0 0.90000127019723419  0 0.90624870106197719  0 0.91250121326799483  0 0.9187497287830545  0 0.92500019806790656  0 0.93125016251420734  0 0.9437502743658609  0 0.95000000063715506  0 0.95625010843641134  0 0.96250028132102183  0 0.96875025222308775  0 0.97500008441040231  0 0.98124999207736852  0 0.98750003623761495  0 0.99375003158569042  0 0.99999999999999989 
 0 11 0.03125 9 0.0625 9 0.125 9 0.1875 9 0.25 9 0.5 9 0.75 9 0.875 9 0.9375 9 1 11
1 0 0 0 1 
7 0 0  10 92 11  172.046505340853 3.4694469519536142e-18  172.04650534085698 0.0031250447560770482  172.04650534083606 0.0062499946245568603  172.04650534088853 0.0093749709549427393  172.04650534079579 0.012500014033773089  172.04650534091726 0.015625109059467596  172.04650534079789 0.018750212117165366  172.04650534088591 0.021875276153561093  172.0465053408397 0.025000276951760252  172.04650534085408 0.028125239106098571  172.0465053408528 0.034375284887911223  172.04650534084817 0.037500303558334731  172.04650534086906 0.040625318357248294  172.04650534082302 0.04375032963357231  172.04650534089274 0.046875337736326871  172.04650534081583 0.050000343014387882  172.04650534087793 0.053125345816794171  172.0465053408424 0.056250346492440199  172.04650534085505 0.059375345390319342  172.04650534085081 0.068750337797486058  172.04650534085792 0.075000363690240657  172.04650534084445 0.081250362610027521  172.04650534086099 0.087500321856981936  172.04650534084749 0.093750258064387471  172.04650534085292 0.10000020130374287  172.046505340854 0.10625017919029212  172.04650534085104 0.11250020098804341  172.04650534085235 0.11875024171524058  172.04650534085286 0.13125021078379559  172.04650534085152 0.13749995969820605  172.04650534085633 0.1437500977931708  172.04650534084442 0.15000021629295479  172.04650534086551 0.15625009342808982  172.04650534083885 0.16249990605809547  172.04650534086116 0.16874990597960027  172.04650534084851 0.17500003455992102  172.04650534085295 0.1812499493419808  172.04650534085269 0.19374992317988063  172.04650534085192 0.19999991094936787  172.0465053408567 0.20624989970950222  172.04650534084547 0.21249988960040175  172.04650534086318 0.21874988076219451  172.04650534084126 0.22499987333495725  172.04650534086062 0.2312498674588695  172.0465053408478 0.23749986327397765  172.04650534085283 0.2437498609204494  172.04650534085246 0.27499985901007779  172.04650534085164 0.29999988493670326  172.04650534085741 0.3249999270827606  172.04650534084561 0.34999997594580162  172.04650534086133 0.37500002375648434  172.04650534084601 0.40000006447850844  172.04650534085502 0.42500009380861381  172.04650534085204 0.45000010917669026  172.04650534085133 0.47500010974558737  172.04650534085505 0.52500008307703616  172.04650534084166 0.55000005309386146  172.04650534087978 0.57500001482440954  172.04650534081063 0.59999997522879156  172.04650534090069 0.62499993986643188  172.04650534081094 0.64999991289305148  172.04650534087807 0.67499989706463537  172.04650534084087 0.69999989373322313  172.04650534085479 0.72499990285050264  172.04650534085192 0.7624999330228267  172.04650534085593 0.77499996329210274  172.04650534084692 0.7874999851278931  172.04650534086088 0.79999999470457539  172.04650534084348 0.81250000264306099  172.04650534085962 0.82500002363751301  172.04650534084774 0.83750006608260674  172.04650534085488 0.8500001216998484  172.04650534085235 0.86250015516495659  172.04650534085184 0.88125006301913589  172.04650534085599 0.88750013744275447  172.04650534084203 0.89375007652169369  172.04650534086673 0.9000012701968606  172.04650534084121 0.90624870106239086  172.04650534085926 0.9125012132676551  172.04650534084826 0.91874972878324357  172.04650534085437 0.92500019806782696  172.04650534085266 0.93125016251421999  172.04650534085124 0.94375027436584413  172.04650534085965 0.95000000063720358  172.04650534083771 0.95625010843629665  172.04650534087324 0.96250028132118715  172.04650534083137 0.96875025222289968  172.04650534086878 0.97500008441055697  172.04650534084283 0.98124999207726549  172.04650534085701 0.98750003623765603  172.04650534085118 0.9937500315856751  172.04650534085303 1 
 0 11 0.03125 9 0.0625 9 0.125 9 0.1875 9 0.25 9 0.5 9 0.75 9 0.875 9 0.9375 9 1 11
1 3.14159265358979 0 0 -1 
1 0 0 0 -1 
1 0 0 1 0 
1 0 -44.721359549995803 1 0 
1 0 0 1 0 
1 0 -60 1 0 
1 0 0 0 -1 
1 3.14159265358979 0 0 -1 
1 0 0 1 0 
1 0 1 1 0 
1 0 0 1 0 
1 0 1 1 0 
7 0 0  8 9 2  116.61903789690599 0  116.61903789690609 0.1250018061182249  116.61903789690336 0.24999113578391244  116.61903789691152 0.37501860084956401  116.61903789690167 0.49997873055252273  116.61903789690798 0.6250137799533434  116.61903789690538 0.74999533954700093  116.61903789690616 0.87500056066833365  116.61903789690599 1 
 0 9 1 9
7 0 0  8 9 2  0 5.5511151231257827e-17  0 0.12500180611822331  0 0.24999113578390525  0 0.37501860084958322  0 0.49997873055250364  0 0.62501377995335072  0 0.74999533954700182  0 0.87500056066833232  0 1 
 0 9 1 9
Curves 12
1 -100 0 0 1 0 0 
7 0 0  3 4 2  100 0 0  100 -15.3333333333333 20  100 -23.6666666666667 40  100 -25 60 
 0 4 1 4
7 0 0  3 4 2  -100 0 0  -100 -15.3333333333333 20  -100 -23.6666666666667 40  -100 -25 60 
 0 4 1 4
1 -100 0 0 0 0.44721359549995798 0.89442719099991597 
1 100 0 0 0 0.44721359549995798 0.89442719099991597 
2 0 0 0 0 0 1 1 0 -0 -0 1 0 100
1 100 0 0 0 0 -1 
1 -100 0 0 0 0 -1 
1 100 0 0 -0.51449575542752701 -0.85749292571254399 0 
1 40 -100 0 0 0 -1 
1 40 -100 0 -0.81373347120673523 0.58123819371909613 0 
7 0 0  7 13 3  40 -100 0  40.000000000000703 -103.28571293864 7.4347712930781302  39.999999999997698 -106.20574140648201 15.046927656885901  40.000000000002899 -108.736587227158 22.839201129493802  39.999999999998302 -110.85145400665699 30.809449527745599  40.000000000000398 -112.520509493902 38.948556375052902  39.999999999999297 -114.907107484543 55.5233155434886  40.000000000000902 -115.294015575692 72.563172764603806  39.999999999996597 -114.96336580785101 81.167338926988407  40.000000000005201 -114.090149558847 89.812484898932198  39.999999999996099 -112.66708697507001 98.443458223045099  40.0000000000013 -110.70558567943201 107.00049597951499  40 -108.232091273319 115.429405393436 
 0 8 0.5 5 1 8
Polygon3D 0
PolygonOnTriangulations 0
Surfaces 10
9 0 0 0 0 1 4 2 5 2 2 -100 0 0  -100 -11.5 15  -100 -19.5 30.000000000000099  -100 -24 45  -100 -25 60  
100 0 0  100 -11.5 15  100 -19.5 30.000000000000099  100 -24 45  100 -25 60  

0 2
200 2

0 5
1 5

9 1 0 0 0 1 7 2 8 2 2 100 0 0  1 100 -6.5713344571402104 8.5713058136611604  1 100.00000000000099 -12.143106447783 17.143155893037299  0.999999999999997 99.999999999997598 -16.713975435978799 25.7139697851376  1.00000000000001 100.000000000002 -20.2859158282164 34.2858440503664  0.999999999999995 99.999999999999304 -22.857087673770899 42.857176458769501  1 100 -24.4285685407221 51.428528110830896  1 100 -25 60  1 
40 -100 0  1 40 -106.57133445714 14.869326180591999  1 40.000000000000099 -111.68135404659201 30.449623528741402  0.999999999999997 39.999999999999702 -115.133516161774 46.7568473192105  1.00000000000001 40.000000000000199 -116.714321004022 63.7478675605715  0.999999999999995 40 -116.078844271232 81.202233000142598  1 40 -113.179101956423 98.571510858721794  1 40 -108.232091273319 115.429405393436  1 

0 2
116.61903789690599 2

0 8
1 8

9 1 0 0 0 1 7 2 8 2 2 40 -100 0  1 40 -106.57133445714 14.8693261805922  1 39.999999999999702 -111.68135404659201 30.4496235287411  0.999999999999997 40.000000000000803 -115.133516161774 46.7568473192106  1.00000000000001 39.999999999999503 -116.714321004022 63.747867560571898  0.999999999999995 40.000000000000099 -116.078844271232 81.202233000142101  1 40 -113.179101956423 98.571510858721993  1 40 -108.232091273319 115.429405393436  1 
-100 0 0  1 -100 -6.5713344571403001 8.5713058136612599  1 -100 -12.143106447782801 17.1431558930371  0.999999999999997 -99.999999999999204 -16.713975435979101 25.7139697851376  1.00000000000001 -100.00000000000099 -20.285915828216201 34.285844050366599  0.999999999999995 -99.999999999999901 -22.857087673770899 42.857176458769203  1 -100 -24.4285685407221 51.428528110831003  1 -100 -25 60  1 

0 2
172.046505340853 2

0 8
1 8

1 -100 0 0 0 0.89442719099991597 -0.44721359549995798 1 0 0 0 -0.44721359549995798 -0.89442719099991597 
6 0 -0.44721359549995798 -0.89442719099991597 
2 0 0 0 0 0 1 1 0 -0 -0 1 0 100
2 0 0 0 0 0 1 1 0 -0 -0 1 0 100
1 100 0 0 -0.85749292571254399 0.51449575542752701 0 -0.51449575542752701 -0.85749292571254399 0 0 0 1 
1 40 -100 0 0.58123819371909613 0.81373347120673523 0 -0.81373347120673523 0.58123819371909613 0 0 -0 1 
1 100 0 0 0 0 -1 1 0 0 0 -1 0 
1 0 0 0 0 0 1 1 0 -0 -0 1 0 
Triangulations 0

TShapes 41
Ve
9.9499936030335e-06
-100 0 0
0 0

0101100
*
Ve
9.9499937833452e-06
100 0 0
0 0

0101100
*
Ed
 1e-07 1 1 0
1  1 0 0 200
2  1 1 0 0 200
2  2 1 2 0 200
0

0101000
+41 0 -40 0 *
Ed
 4.00020904424629e-06 1 1 0
1  2 0 0 1
2  3 1 0 0 1
2  4 2 0 0 1
0

0101000
+40 0 -40 1 *
Ed
 4.00020871606655e-06 1 1 0
1  3 0 0 1
2  5 1 0 0 1
2  6 3 0 0 1
0

0101000
+41 0 -41 1 *
Wi

0101100
+39 0 +38 0 -39 1 -37 0 *
Fa
0  1e-07 1 0

0111000
+36 0 *
Ed
 1e-07 1 1 0
1  4 0 0 44.7213595499958
2  7 5 0 0 44.7213595499958
0

0101000
+41 0 -41 3 *
Ed
 1e-07 1 1 0
1  5 0 0 44.7213595499958
2  8 5 0 0 44.7213595499958
0

0101000
+40 0 -40 3 *
Wi

0101100
+34 0 +39 3 -33 0 -39 0 *
Fa
0  1e-07 4 0

0111000
+32 0 *
Ed
 1e-07 1 1 0
1  6 0 0 3.14159265358979
2  9 5 0 0 3.14159265358979
2  10 5 4 0 3.14159265358979
2  11 6 0 0 3.14159265358979
2  12 6 6 0 3.14159265358979
0

0101000
+40 0 -41 0 *
Wi

0101100
+33 0 +30 3 -34 0 -30 0 *
Fa
0  1e-07 5 0

0111000
+29 0 *
Ed
 1e-07 1 1 0
1  7 0 0 60
2  13 6 0 0 60
0

0101000
+40 0 -40 5 *
Ed
 1e-07 1 1 0
1  8 0 0 60
2  14 6 0 0 60
0

0101000
+41 0 -41 5 *
Wi

0101100
+27 0 +30 5 -26 0 -30 0 *
Fa
0  1e-07 6 0

0111000
+25 0 *
Ve
6.77434532784251e-05
40 -100 0
0 0

0101100
*
Ed
 1e-07 1 1 0
1  9 0 0 116.619037896906
2  15 2 0 0 116.619037896906
2  16 2 2 0 116.619037896906
0

0101000
+40 8 -23 0 *
Ed
 1.0001000025e-07 1 1 0
1  10 0 0 60
0

0101000
+23 0 -23 7 *
Ed
 1e-07 1 1 0
1  9 0 0 116.619037896906
2  15 2 0 0 116.619037896906
2  16 2 2 0 116.619037896906
0

0101000
+40 0 -23 0 *
Wi

0101100
+27 0 +22 7 -21 0 -20 0 *
Fa
0  1e-07 7 0

0111000
+19 0 *
Ed
 1e-07 1 1 0
1  11 0 0 172.046505340853
2  17 3 0 0 172.046505340853
2  18 3 2 0 172.046505340853
0

0101000
+23 0 -41 8 *
Ed
 1e-07 1 1 0
1  11 0 0 172.046505340853
2  17 3 0 0 172.046505340853
2  18 3 2 0 172.046505340853
0

0101000
+23 0 -41 0 *
Wi

0101100
+21 0 +17 7 -26 0 -16 0 *
Fa
0  1e-07 8 0

0111000
+15 0 *
Ed
 6.77434532784251e-05 1 1 0
1  12 0 0 1
2  19 2 0 0 1
2  20 3 0 0 1
0

0101000
+23 0 -23 1 *
Wi

0101100
+16 0 +37 0 -16 1 -13 0 *
Fa
0  1e-07 3 0

0111000
+12 0 *
Wi

0101100
+39 0 +20 0 +16 0 *
Fa
0  1e-07 9 0

0111000
+10 0 *
Wi

0101000
+20 0 +13 0 -20 1 -38 0 *
Fa
0  1e-07 2 0

0111000
+8 0 *
Wi

0101100
+17 7 -30 5 +22 7 *
Fa
0  1e-07 9 0

0111000
+6 9 *
Wi

0101100
+30 0 +39 0 *
Fa
0  1e-07 10 0

0111000
+4 0 *
Sh

0101000
+35 0 +31 0 +28 0 -24 0 +18 0 +14 0 +11 0 +9 1 +7 0 -5 7 
-3 3 *
So

1100000
+2 0 *

+1 0 
0

