DBRep_DrawableShape

CASCADE Topology V1, (c) Matra-Datavision
Locations 0
Curve2ds 8
1 0 0 1 0 
1 0 0.50205579600337702 1 0 
1 0 0.50205579600337702 1 0 
1 0 0 0 1 
1 4.7123889803846897 0 0 1 
1 0 1 1 0 
1 0 0 0 1 
1 4.7123889803846897 0 0 1 
Curves 7
2 0 0 -0.40395999999999788 0 0 1 9.1830127607722424e-07 0.99999999999957845 -0 -0.99999999999957845 9.1830127607722424e-07 0 36.151079999954241
2 0 0 71.433245176423497 0 0 1 3.6732051038601584e-06 0.99999999999325384 -0 -0.99999999999325384 3.6732051038601584e-06 0 53.840883313910425
7 0 0  4 5 2  0.00013279033156605701 36.151079999756099 -0.40395999999999799  0.000230868356356345 62.8520188301407 6.018362845265  0.00028466084785430901 77.496583992339396 28.449035351041701  0.00025212749100158601 68.639644090368094 51.366424049400798  0.000197768607384995 53.840883313547202 71.433245176423497 
 0 5 0.50205579600337702 5
7 0 0  4 5 2  36.151079999756099 -0.00013279033157408417 -0.40395999999999799  62.8520188301407 -0.00023086835637030096 6.018362845265  77.496583992339396 -0.0002846608478715167 28.449035351041701  68.639644090368094 -0.00025212749101682707 51.366424049400798  53.840883313547202 -0.00019776860739695009 71.433245176423497 
 0 5 0.50205579600337702 5
2 0 0 132.98500999999999 0 0 1 -3.3605667520895591e-06 0.99999999999435329 0 -0.99999999999435329 -3.3605667520895591e-06 0 56.654680327674399
7 0 0  4 5 2  0.000197768607384995 53.840883313547202 71.433245176423497  0.000143854896502497 39.163317166893201 91.335728829397297  6.8471675889559397e-05 18.640852866381099 108.43414324398699  3.4547530960890299e-05 9.4052823035531805 119.472527190477  0.000208104259733564 56.654679999617798 132.98500999999999 
 0.50205579600337702 5 1 5
7 0 0  4 5 2  53.840883313547202 -0.00019776860739695009 71.433245176423497  39.163317166893201 -0.00014385489651119301 91.335728829397297  18.640852866381099 -6.8471675893698502e-05 108.43414324398699  9.4052823035531805 -3.4547530962978689e-05 119.472527190477  56.654679999617798 -0.00020810425974614386 132.98500999999999 
 0.50205579600337702 5 1 5
Polygon3D 0
PolygonOnTriangulations 0
Surfaces 2
7 0 0 0 0 0 1 
7 0 0  4 5 2  0.00013279033156605701 36.151079999756099 -0.40395999999999799  0.000230868356356345 62.8520188301407 6.018362845265  0.00028466084785430901 77.496583992339396 28.449035351041701  0.00025212749100158601 68.639644090368094 51.366424049400798  0.000197768607384995 53.840883313547202 71.433245176423497 
 0 5 0.50205579600337702 5
7 0 0 0 0 0 1 
7 0 0  4 5 2  0.000197768607384995 53.840883313547202 71.433245176423497  0.000143854896502497 39.163317166893201 91.335728829397297  6.8471675889559397e-05 18.640852866381099 108.43414324398699  3.4547530960890299e-05 9.4052823035531805 119.472527190477  0.000208104259733564 56.654679999617798 132.98500999999999 
 0.50205579600337702 5 1 5
Triangulations 0

TShapes 18
Ve
1e-07
3.31975828955278e-05 36.151079999939 -0.403959999999998
0 0

0101101
*
Ve
1e-07
36.151079999939 -3.3197582903555e-05 -0.403959999999998
0 0

0101101
*
Ed
 0.954328702996613 1 1 0
1  1 0 0 4.71238898038469
2  1 1 0 0 4.71238898038469
0

0101100
+18 0 -17 0 *
Ve
1e-07
0.000197768607384995 53.8408833135472 71.4332451764235
0 0

0101101
*
Ve
1e-07
53.8408833135472 -0.00019776860739695 71.4332451764235
0 0

0101101
*
Ed
 0.000374722101327814 1 1 0
1  2 0 0 4.71238898038469
2  2 1 0 0 4.71238898038469
2  3 2 0 0 4.71238898038469
4 C2 1 0 2 0
0

0101100
+15 0 -14 0 *
Ed
 0.000374722101327814 1 1 0
1  3 0 0 0.502055796003377
2  4 1 0 0 0.502055796003377
0

0101000
+18 0 -15 0 *
Ed
 0.000374722101327814 1 1 0
1  4 0 0 0.502055796003377
2  5 1 0 0 0.502055796003377
0

0101000
+17 0 -14 0 *
Wi

0101000
+16 0 -13 0 -12 0 +11 0 *
Fa
0  0.000374722101327814 1 0

0101000
+10 0 *
Ve
1e-07
-0.000190391835059445 56.6546803273545 132.98501
0 0

0101101
*
Ve
1e-07
56.6546803273545 0.000190391835046865 132.98501
0 0

0101101
*
Ed
 0.00176666488274257 1 1 0
1  5 0 0 4.71238898038469
2  6 2 0 0 4.71238898038469
0

0101100
+8 0 -7 0 *
Ed
 0.000374722101327814 1 1 0
1  6 0 0.502055796003377 1
2  7 2 0 0.502055796003377 1
0

0101000
+15 0 -8 0 *
Ed
 0.000374722101327814 1 1 0
1  7 0 0.502055796003377 1
2  8 2 0 0.502055796003377 1
0

0101000
+14 0 -7 0 *
Wi

0101000
+13 0 -6 0 -5 0 +4 0 *
Fa
0  0.000374722101327814 2 0

0101000
+3 0 *
Sh

1101000
+9 0 +2 0 *

+1 0 
0

