DBRep_DrawableShape

CASCADE Topology V1, (c) Matra-Datavision
Locations 1
1
              1               0               0               0 
              0 1.11022302462516e-16              -1               0 
              0               1 1.11022302462516e-16               0 
Curve2ds 14
1 0 2.6500000953674299 1 0 
1 0 0.90000009536743197 1 0 
1 0 1.9779947221956 1 0 
1 0.142802834510803 0 0 1 
1 6.1403824726687803 0 0 1 
7 0 0  6 7 2  0.142802834510803 1.9779947221956  0.120121548071481 2.0416156836385202  0.096840002631946795 2.1035953506560001  0.073064040873498701 2.1640944277459702  0.048912702697358999 2.2232969815685002  0.024510385640753699 2.2814206951821001  0 2.3387674211004001 
 0 7 1 7
7 0 0  6 7 2  6.1403824726687803 1.9779947221956  6.1630637591081001 2.0416156836385202  6.1863453045476398 2.1035953506560099  6.2101212663060803 2.1640944277459599  6.2342726044822303 2.2232969815685002  6.2586749215388302 2.2814206951821001  6.2831853071795898 2.3387674211004001 
 0 7 1 7
1 6.2831853071795898 -1.5707963267949001 0 1 
1 0 -1.5707963267949001 0 1 
7 0 0  1 2 2  0 2.8623189525592401  6.2831853071795898 2.8623189525592401 
 0 2 6.2831853071795898 2
1 0 -1.41010567384299 1 0 
7 0 0  1 2 2  0 -1.5707963267949001  6.2831853071795898 -1.5707963267949001 
 0 2 6.2831853071795898 2
1 6.2831853071795898 -1.5707963267949001 0 1 
1 0 -1.5707963267949001 0 1 
Curves 12
2 0 0 0 1 0 0 -0 1 0 0 -0 1 2.6500000953674299
1 0 1.8300567306375699 -0.56788089060155 0 -0.64278765196357668 -0.76604440764432968 
1 0 1.8300567306375699 0.56788089060155 0 -0.64278765196357668 0.76604440764432968 
2 1.75 0 0 1 0 0 -0 1 0 0 -0 1 2.6500000953674299
1 2.6500000953674299 2.6230257204410701 0.37714264589408297 -1 0 0 
1 2.6500000953674299 2.6230257204410701 -0.37714264589408297 -1 0 0 
1 24 2.30656542990118 -5.5511151231257802e-17 -1 0 0 
7 0 0  6 7 2  1.75 2.6230257204410701 0.37714264589408297  1.7789757945596301 2.5650818859212201 0.30808788067604298  1.8123331085536201 2.5091300018412501 0.24140702928492599  1.84943747225023 2.45528144618602 0.17723282681946401  1.8897668048265901 2.4035745596152598 0.11561096589349799  1.93293613598653 2.3540037731507599 0.056534809657977102  1.97874921323943 2.30656542990118 0 
 0 7 1 7
7 0 0  6 7 2  1.75 2.6230257204410701 -0.37714264589408297  1.7789757945596301 2.5650818859212201 -0.30808788067604598  1.8123331085536201 2.5091300018412399 -0.241407029284917  1.84943747225023 2.4552814461860302 -0.177232826819475  1.8897668048266001 2.4035745596152598 -0.115610965893492  1.93293613598653 2.3540037731507599 -0.056534809657977601  1.97874921323943 2.30656542990118 0 
 0 7 1 7
2 2.8059689316723402 3.1054441493687501 0 0 0 1 1 0 -0 -0 1 0 1.1499998569488501
2 2.4889627746204899 0 0 1 0 0 -0 1 0 0 -0 1 2
2 -9.8499999046325701 0 0 0 0 1 1 0 -0 -0 1 0 12.5
Polygon3D 0
PolygonOnTriangulations 0
Surfaces 6
1 0 0 0 1 0 0 0 -1 0 -0 -0 1 
2 2.6500000953674299 0 0 -1 0 0 0 1 0 -0 -0 1 2.6500000953674299
5 2.8059689316723402 0 0 -1 0 0 0 1 0 -0 -0 1 3.1054441493687501 1.1499998569488501
1 24 2.30656542990118 -5.5511151231257802e-17 0 0.76604440764432968 -0.64278765196357668 0 0.64278765196357668 0.76604440764432968 1 -0 0 
1 24 2.30656542990118 -5.5511151231257802e-17 0 -0.76604440764432968 -0.64278765196357668 0 0.64278765196357668 -0.76604440764432968 1 0 0 
4 -9.8499999046325701 0 0 -1 0 0 0 1 0 -0 -0 1 12.5
Triangulations 0

TShapes 36
Ve
4.80000002e-06
0 2.62302572044107 0.377142645894083
0 0

0101100
*
Ve
4.80000002e-06
0 2.62302572044107 -0.377142645894083
0 0

0101100
*
Ed
 4.80000002e-06 1 1 0
1  1 0 0.142802834510803 6.14038247266878
2  1 2 0 0.142802834510803 6.14038247266878
0

0101000
+36 0 -35 0 *
Ve
4.80000002e-06
0 2.30656542990118 -5.55111512312578e-17
0 0

0101100
*
Ed
 1e-07 1 1 0
1  2 0 -1.23364067026047 -0.741315888393267
0

0101000
+36 0 -33 0 *
Ed
 1e-07 1 1 0
1  3 0 -1.23364067026047 -0.741315888393267
0

0101000
+35 0 -33 0 *
Wi

0101100
-34 0 +32 0 -31 0 *
Fa
0  1e-07 1 0

0111000
+30 0 *
Ve
1.31407725472159e-05
1.75 2.62302572044107 0.377142645894083
0 0

0101100
*
Ve
4.80000002e-06
1.75 2.62302572044107 -0.377142645894083
0 0

0101100
*
Ed
 4.80000002e-06 1 1 0
1  4 0 0.142802834510803 6.14038247266878
2  2 2 0 0.142802834510803 6.14038247266878
2  3 3 0 0.142802834510803 6.14038247266878
0

0101000
+28 0 -27 0 *
Ed
 4.80000002e-06 1 1 0
1  5 0 0.900000095367432 2.65000009536743
2  4 2 0 0.900000095367432 2.65000009536743
0

0101000
+28 0 -36 0 *
Ed
 4.80000002e-06 1 1 0
1  6 0 0.900000095367432 2.65000009536743
2  5 2 0 0.900000095367432 2.65000009536743
0

0101000
+27 0 -35 0 *
Wi

0101100
+26 0 -25 0 +24 0 -34 0 *
Fa
0  1e-07 2 0

0111000
+23 0 *
Ve
4.80000002e-06
1.97874921323943 2.30656542990118 0
0 0

0101100
*
Ed
 1e-07 1 1 0
1  7 0 22.0212507867606 24
0

0101000
+21 0 -33 0 *
Ed
 4.80000002e-06 1 1 0
1  8 0 0 1
2  6 3 0 0 1
0

0101000
+28 0 -21 0 *
Wi

0101100
+20 0 +19 0 -32 0 -25 0 *
Fa
0  1e-07 4 0

0111000
+18 0 *
Ed
 4.80000002e-06 1 1 0
1  9 0 0 1
2  7 3 0 0 1
0

0101000
+27 0 -21 0 *
Wi

0101100
+20 0 +16 0 -31 0 -24 0 *
Fa
0  1e-07 5 0

0111000
+15 0 *
Ve
1e-07
2.48896277462049 2 0
0 0

0101100
*
Ed
 1e-07 1 1 0
1  10 0 3.9095637478953 4.43311527935414
3  8 9CN 3 0 3.9095637478953 4.43311527935414
0

0101000
+21 0 -13 0 *
Ed
 1e-07 1 1 0
1  11 0 0 6.28318530717959
2  10 3 0 0 6.28318530717959
2  11 6 0 0 6.28318530717959
0

0101100
+13 0 -13 0 *
Wi

0101100
+26 0 -19 0 +16 0 -12 0 +12 0 -11 0 *
Fa
0  1e-07 3 0

0111000
+10 0 *
Ve
1e-07
2.65000009536743 0 0
0 0

0101100
*
Ed
 1e-07 1 1 1
2  12 6 0 0 6.28318530717959
0

0101100
+8 0 -8 0 *
Ed
 1e-07 1 1 0
1  12 0 0 0.160690652951911
3  13 14CN 6 0 0 0.160690652951911
0

0101000
+8 0 -13 0 *
Wi

0101000
+7 0 -11 0 -6 0 +6 0 *
Fa
0  1e-07 6 0

0111000
+5 0 *
Sh

0101100
+29 0 -22 0 +17 0 -14 0 +9 0 -4 0 *
So

0100000
+3 0 *
Co

0100000
+2 0 *

+1 1 
0

