DBRep_DrawableShape

CASCADE Topology V1, (c) Matra-Datavision
Locations 0
Curve2ds 34
2 0 0 1 0 -0 1 80.402084350590002
1 0 58.735222034344517 1 0 
2 0 0 1 0 -0 1 60.000011444089999
1 0 0 1 0 
1 0 13.765655517604801 1 0 
1 0 0 1 0 
1 6.2831853071795862 0 0 1 
1 0 0 0 1 
1 0 22.61532911630691 1 0 
2 0 0 1 0 -0 1 50.45000076294
1 6.2831853071795862 0 0 1 
1 0 0 0 1 
2 0 0 1 0 -0 1 20
1 0 0 1 0 
1 0 62.99999237059 1 0 
1 0 0 1 0 
1 6.2831853071795862 0 0 1 
1 0 0 0 1 
1 0 5.4999885559152926 1 0 
1 0 0 1 0 
1 6.2831853071795862 0 0 1 
1 0 0 0 1 
1 0 25.000013351441801 1 0 
1 0 0 1 0 
1 6.2831853071795862 0 0 1 
1 0 0 0 1 
1 0 3.8196887970119069 1 0 
1 0 0 1 0 
1 6.2831853071795862 0 0 1 
1 0 0 0 1 
1 6.2831853071795862 0 0 1 
1 0 0 0 1 
1 6.2831853071795862 0 0 1 
1 0 0 0 1 
Curves 16
2 0 0 142.26634216310001 0 0 1 0 1 0 -1 0 0 80.402084350590002
2 0 0 142.26634216310001 0 0 1 0 1 0 -1 0 0 60.000011444089999
2 0 0 128.5006866455 0 0 1 0 1 0 -1 0 0 60
1 0 60.000011444089999 142.26634216310001 0 -8.3135089241236237e-07 -0.9999999999996545 
2 0 0 108.00067138670001 0 0 1 0 1 0 -1 0 0 50.45000076294
1 0 60 128.5006866455 0 -0.42227991412134314 -0.90646548424618523 
2 0 0 108.00067138670001 0 0 1 0 1 0 -1 0 0 20
2 0 0 45.000679016109999 0 0 1 0 1 0 -1 0 0 20.000001907350001
1 0 20 108.00067138670001 0 3.0275400501439786e-08 -0.99999999999999956 
2 0 0 45.000671386720001 0 0 1 0 1 0 -1 0 0 25.499990463260001
1 0 20.000001907350001 45.000679016109999 0 0.99999999999903799 -1.38716470414868e-06 
2 0 0 20.000658035280001 0 0 1 0 1 0 -1 0 0 25.5
1 0 25.499990463260001 45.000671386720001 0 3.8146939621712712e-07 -0.99999999999992728 
2 0 0 20.000667572019999 0 0 1 0 1 0 -1 0 0 29.319688797000001
1 0 25.5 20.000658035280001 0 0.99999999999688316 2.4967321961032703e-06 
7 0 0  3 81 32  0 29.319688797000001 20.000667572019999  0 29.48209953308 20.912506103519998  0 29.66875076294 21.817485809330002  0 29.885318756099998 22.751028060909999  0 30.315563201900002 24.605657577510001  0 30.863872528080002 26.573017120359999  0 31.484939575199999 28.73539352417  0 31.557695388789998 28.930408477779999  0 31.900177001949999 29.895868301389999  0 32.24266052246 30.861326217649999  0 32.85486984253 32.597229003910002  0 34.027904510500001 35.621047973629999  0 34.588729858400001 36.908966064449999  0 35.796310424799998 39.57339477539  0 36.443069458010001 40.949905395510001  0 37.101890563959998 42.302547454829998  0 37.760711669919999 43.655193328860001  0 38.43159866333 44.983974456790001  0 39.799793243410001 47.638362884519999  0 40.497100830080001 48.96396636963  0 41.202285766599999 50.283920288090002  0 41.907466888430001 51.603874206539999  0 42.620529174799998 52.918170928960002  0 43.33423614502 54.232410430910001  0 44.047946929929999 55.546649932859999  0 44.762310028080002 56.860828399660001  0 45.475688934330002 58.175624847409999  0 46.189067840580002 59.490425109859999  0 46.901462554929999 60.805843353269999  0 47.608695983890001 62.124118804929999  0 48.315925598139998 63.442394256589999  0 49.017993926999999 64.763526916499998  0 50.39789199829 67.41756439209  0 51.075717926030002 68.750465393070002  0 52.41208267212 71.426765441889998  0 53.070617675779999 72.770156860349999  0 53.725006103520002 74.115173339839998  0 54.37939453125 75.460182189939999  0 55.029636383060001 76.806823730470001  0 55.668128967290002 78.159660339360002  0 56.306621551509998 79.512489318850001  0 56.933364868159998 80.871520996089998  0 57.55640411377 82.231575012210001  0 58.179439544680001 83.591621398930002  0 58.798774719240001 84.952697753910002  0 60.02727508545 87.679580688480002  0 60.6364402771 89.045402526860002  0 61.236946105960001 90.415481567379999  0 61.837455749509999 91.78556060791  0 62.429302215580002 93.15990447998  0 63.0207862854 94.533813476559999  0 63.612266540530001 95.907722473139998  0 64.20337677002 97.281188964839998  0 64.78352355957 98.659530639650001  0 65.363662719730002 100.0378646851  0 65.932830810550001 101.42106628419999  0 66.503005981450002 102.8042297363  0 67.073181152339998 104.1874008179  0 67.64436340332 105.5705413818  0 68.209838867190001 106.9552612305  0 68.77532196045 108.3399810791  0 69.335098266599999 109.7262878418  0 69.88818359375 111.1157836914  0 70.441268920900001 112.5052871704  0 70.987670898440001 113.8979797363  0 71.533821105960001 115.29108428959999  0 72.07997894287 116.6841888428  0 73.171806335443705 119.47122192384666  0 74.252098083500002 122.2557525635  0 74.782920837399999 123.6564407349  0 75.313735961909998 125.05712890620001  0 75.835220336909998 126.4662399292  0 76.376876831049998 127.8507232666  0 76.9185256958 129.2351989746  0 78.042152404785838 131.95492553715275  0 79.027488708496179 136.68261718753752  0 79.884086608890001 140.12023925779999  0 80.321144103999998 141.93048095699999  0 80.348091125490001 142.04208374020001  0 80.37506866455 142.15403747560001  0 80.402084350590002 142.26634216310001 
 0 4 1 3 2.9866578467449294 2 4.9733156934728902 3 6.9599712907238045 2 8.9466268879791517 2 10.933282485234498 3 12.919942610960193 2 14.906602736697721 3 16.893260476143357 3 18.879920633911482 3 20.866585244758056 3 22.853247460733279 2 24.839909676690581 2 26.826571892653821 3 28.813224996516055 3 30.799868937564732 3 32.786501557466138 2 34.773134177385124 3 36.759768831024815 3 38.746401481299444 3 40.733020858294587 3 42.719649601790394 3 44.706282176194996 3 46.692924166820255 3 48.679569854463814 1 50.666215542102563 3 52.652857643766453 3 54.639486536471168 1 56.626115429179606 1 58.612744321888009 3 58.735222034344517 4
Polygon3D 0
PolygonOnTriangulations 0
Surfaces 10
1 0 0 142.26634216310001 0 0 1 0 1 0 -1 0 0 
7 0 0 0 0 0 1 
7 0 0  3 81 32  0 29.319688797000001 20.000667572019999  0 29.48209953308 20.912506103519998  0 29.66875076294 21.817485809330002  0 29.885318756099998 22.751028060909999  0 30.315563201900002 24.605657577510001  0 30.863872528080002 26.573017120359999  0 31.484939575199999 28.73539352417  0 31.557695388789998 28.930408477779999  0 31.900177001949999 29.895868301389999  0 32.24266052246 30.861326217649999  0 32.85486984253 32.597229003910002  0 34.027904510500001 35.621047973629999  0 34.588729858400001 36.908966064449999  0 35.796310424799998 39.57339477539  0 36.443069458010001 40.949905395510001  0 37.101890563959998 42.302547454829998  0 37.760711669919999 43.655193328860001  0 38.43159866333 44.983974456790001  0 39.799793243410001 47.638362884519999  0 40.497100830080001 48.96396636963  0 41.202285766599999 50.283920288090002  0 41.907466888430001 51.603874206539999  0 42.620529174799998 52.918170928960002  0 43.33423614502 54.232410430910001  0 44.047946929929999 55.546649932859999  0 44.762310028080002 56.860828399660001  0 45.475688934330002 58.175624847409999  0 46.189067840580002 59.490425109859999  0 46.901462554929999 60.805843353269999  0 47.608695983890001 62.124118804929999  0 48.315925598139998 63.442394256589999  0 49.017993926999999 64.763526916499998  0 50.39789199829 67.41756439209  0 51.075717926030002 68.750465393070002  0 52.41208267212 71.426765441889998  0 53.070617675779999 72.770156860349999  0 53.725006103520002 74.115173339839998  0 54.37939453125 75.460182189939999  0 55.029636383060001 76.806823730470001  0 55.668128967290002 78.159660339360002  0 56.306621551509998 79.512489318850001  0 56.933364868159998 80.871520996089998  0 57.55640411377 82.231575012210001  0 58.179439544680001 83.591621398930002  0 58.798774719240001 84.952697753910002  0 60.02727508545 87.679580688480002  0 60.6364402771 89.045402526860002  0 61.236946105960001 90.415481567379999  0 61.837455749509999 91.78556060791  0 62.429302215580002 93.15990447998  0 63.0207862854 94.533813476559999  0 63.612266540530001 95.907722473139998  0 64.20337677002 97.281188964839998  0 64.78352355957 98.659530639650001  0 65.363662719730002 100.0378646851  0 65.932830810550001 101.42106628419999  0 66.503005981450002 102.8042297363  0 67.073181152339998 104.1874008179  0 67.64436340332 105.5705413818  0 68.209838867190001 106.9552612305  0 68.77532196045 108.3399810791  0 69.335098266599999 109.7262878418  0 69.88818359375 111.1157836914  0 70.441268920900001 112.5052871704  0 70.987670898440001 113.8979797363  0 71.533821105960001 115.29108428959999  0 72.07997894287 116.6841888428  0 73.171806335443705 119.47122192384666  0 74.252098083500002 122.2557525635  0 74.782920837399999 123.6564407349  0 75.313735961909998 125.05712890620001  0 75.835220336909998 126.4662399292  0 76.376876831049998 127.8507232666  0 76.9185256958 129.2351989746  0 78.042152404785838 131.95492553715275  0 79.027488708496179 136.68261718753752  0 79.884086608890001 140.12023925779999  0 80.321144103999998 141.93048095699999  0 80.348091125490001 142.04208374020001  0 80.37506866455 142.15403747560001  0 80.402084350590002 142.26634216310001 
 0 4 1 3 2.9866578467449294 2 4.9733156934728902 3 6.9599712907238045 2 8.9466268879791517 2 10.933282485234498 3 12.919942610960193 2 14.906602736697721 3 16.893260476143357 3 18.879920633911482 3 20.866585244758056 3 22.853247460733279 2 24.839909676690581 2 26.826571892653821 3 28.813224996516055 3 30.799868937564732 3 32.786501557466138 2 34.773134177385124 3 36.759768831024815 3 38.746401481299444 3 40.733020858294587 3 42.719649601790394 3 44.706282176194996 3 46.692924166820255 3 48.679569854463814 1 50.666215542102563 3 52.652857643766453 3 54.639486536471168 1 56.626115429179606 1 58.612744321888009 3 58.735222034344517 4
2 0 0 142.26634216310001 -0 -0 -1 0 1 -0 -1 0 -0 60.000011444089999
3 0 0 128.5006866455 -0 -0 -1 0 1 -0 -1 0 -0 60
-0.43595902018718974
1 0 0 108.00067138670001 0 0 1 0 1 0 -1 0 0 
2 0 0 108.00067138670001 -0 -0 -1 0 1 -0 -1 0 -0 20
3 0 0 45.000679016109999 -0 -0 -1 0 1 -0 -1 0 -0 20.000001907350001
1.5707949396301926
2 0 0 45.000671386720001 -0 -0 -1 0 1 -0 -1 0 -0 25.499990463260001
3 0 0 20.000658035280001 0 0 1 0 1 0 -1 0 0 25.5
1.5707938300627005
7 0 0 0 0 0 1 
7 0 0  3 81 32  0 29.319688797000001 20.000667572019999  0 29.48209953308 20.912506103519998  0 29.66875076294 21.817485809330002  0 29.885318756099998 22.751028060909999  0 30.315563201900002 24.605657577510001  0 30.863872528080002 26.573017120359999  0 31.484939575199999 28.73539352417  0 31.557695388789998 28.930408477779999  0 31.900177001949999 29.895868301389999  0 32.24266052246 30.861326217649999  0 32.85486984253 32.597229003910002  0 34.027904510500001 35.621047973629999  0 34.588729858400001 36.908966064449999  0 35.796310424799998 39.57339477539  0 36.443069458010001 40.949905395510001  0 37.101890563959998 42.302547454829998  0 37.760711669919999 43.655193328860001  0 38.43159866333 44.983974456790001  0 39.799793243410001 47.638362884519999  0 40.497100830080001 48.96396636963  0 41.202285766599999 50.283920288090002  0 41.907466888430001 51.603874206539999  0 42.620529174799998 52.918170928960002  0 43.33423614502 54.232410430910001  0 44.047946929929999 55.546649932859999  0 44.762310028080002 56.860828399660001  0 45.475688934330002 58.175624847409999  0 46.189067840580002 59.490425109859999  0 46.901462554929999 60.805843353269999  0 47.608695983890001 62.124118804929999  0 48.315925598139998 63.442394256589999  0 49.017993926999999 64.763526916499998  0 50.39789199829 67.41756439209  0 51.075717926030002 68.750465393070002  0 52.41208267212 71.426765441889998  0 53.070617675779999 72.770156860349999  0 53.725006103520002 74.115173339839998  0 54.37939453125 75.460182189939999  0 55.029636383060001 76.806823730470001  0 55.668128967290002 78.159660339360002  0 56.306621551509998 79.512489318850001  0 56.933364868159998 80.871520996089998  0 57.55640411377 82.231575012210001  0 58.179439544680001 83.591621398930002  0 58.798774719240001 84.952697753910002  0 60.02727508545 87.679580688480002  0 60.6364402771 89.045402526860002  0 61.236946105960001 90.415481567379999  0 61.837455749509999 91.78556060791  0 62.429302215580002 93.15990447998  0 63.0207862854 94.533813476559999  0 63.612266540530001 95.907722473139998  0 64.20337677002 97.281188964839998  0 64.78352355957 98.659530639650001  0 65.363662719730002 100.0378646851  0 65.932830810550001 101.42106628419999  0 66.503005981450002 102.8042297363  0 67.073181152339998 104.1874008179  0 67.64436340332 105.5705413818  0 68.209838867190001 106.9552612305  0 68.77532196045 108.3399810791  0 69.335098266599999 109.7262878418  0 69.88818359375 111.1157836914  0 70.441268920900001 112.5052871704  0 70.987670898440001 113.8979797363  0 71.533821105960001 115.29108428959999  0 72.07997894287 116.6841888428  0 73.171806335443705 119.47122192384666  0 74.252098083500002 122.2557525635  0 74.782920837399999 123.6564407349  0 75.313735961909998 125.05712890620001  0 75.835220336909998 126.4662399292  0 76.376876831049998 127.8507232666  0 76.9185256958 129.2351989746  0 78.042152404785838 131.95492553715275  0 79.027488708496179 136.68261718753752  0 79.884086608890001 140.12023925779999  0 80.321144103999998 141.93048095699999  0 80.348091125490001 142.04208374020001  0 80.37506866455 142.15403747560001  0 80.402084350590002 142.26634216310001 
 0 4 1 3 2.9866578467449294 2 4.9733156934728902 3 6.9599712907238045 2 8.9466268879791517 2 10.933282485234498 3 12.919942610960193 2 14.906602736697721 3 16.893260476143357 3 18.879920633911482 3 20.866585244758056 3 22.853247460733279 2 24.839909676690581 2 26.826571892653821 3 28.813224996516055 3 30.799868937564732 3 32.786501557466138 2 34.773134177385124 3 36.759768831024815 3 38.746401481299444 3 40.733020858294587 3 42.719649601790394 3 44.706282176194996 3 46.692924166820255 3 48.679569854463814 1 50.666215542102563 3 52.652857643766453 3 54.639486536471168 1 56.626115429179606 1 58.612744321888009 3 58.735222034344517 4
Triangulations 0

TShapes 47
Ve
1e-07
0 80.40208435059 142.2663421631
0 0

0101100
*
Ed
 1e-07 1 1 0
1  1 0 0 6.28318530717959
2  1 1 0 0 6.28318530717959
2  2 2 0 0 6.28318530717959
0

0101100
+47 0 -47 0 *
Wi

0101000
+46 0 *
Ve
1e-07
0 60.00001144409 142.2663421631
0 0

0101100
*
Ed
 1e-07 1 1 0
1  2 0 0 6.28318530717959
2  3 1 0 0 6.28318530717959
2  4 3 0 0 6.28318530717959
0

0101100
+44 0 -44 0 *
Wi

0101000
-43 0 *
Fa
0  1e-07 1 0

0111000
+45 0 +42 0 *
Ve
1e-07
0 60 128.5006866455
0 0

0101100
*
Ed
 1.71661350072592e-05 1 1 0
1  3 0 0 6.28318530717959
2  5 3 0 0 6.28318530717959
2  6 4 0 0 6.28318530717959
0

0101100
+40 0 -40 0 *
Ed
 1.71661349988043e-05 1 1 0
1  4 0 0 13.7656555176048
3  7 8CN 3 0 0 13.7656555176048
0

0101000
+44 0 -40 0 *
Wi

0101000
+43 0 -39 0 -38 0 +38 0 *
Fa
0  1e-07 3 0

0111000
+37 0 *
Ve
1e-07
0 50.45000076294 108.0006713867
0 0

0101100
*
Ed
 1e-07 1 1 0
1  5 0 0 6.28318530717959
2  9 4 0 0 6.28318530717959
2  10 5 0 0 6.28318530717959
0

0101100
+35 0 -35 0 *
Ed
 1e-07 1 1 0
1  6 0 0 22.6153291163069
3  11 12CN 4 0 0 22.6153291163069
0

0101000
+40 0 -35 0 *
Wi

0101000
+39 0 -34 0 -33 0 +33 0 *
Fa
0  1e-07 4 0

0111000
+32 0 *
Wi

0101000
+34 0 *
Ve
1e-07
0 20 108.0006713867
0 0

0101100
*
Ed
 1e-07 1 1 0
1  7 0 0 6.28318530717959
2  13 5 0 0 6.28318530717959
2  14 6 0 0 6.28318530717959
0

0101100
+29 0 -29 0 *
Wi

0101000
-28 0 *
Fa
0  1e-07 5 0

0111000
+30 0 +27 0 *
Ve
1e-07
0 20.00000190735 45.00067901611
0 0

0101100
*
Ed
 2.86102500411707e-06 1 1 0
1  8 0 0 6.28318530717959
2  15 6 0 0 6.28318530717959
2  16 7 0 0 6.28318530717959
0

0101100
+25 0 -25 0 *
Ed
 2.8610250009109e-06 1 1 0
1  9 0 0 62.99999237059
3  17 18CN 6 0 0 62.99999237059
0

0101000
+29 0 -25 0 *
Wi

0101000
+28 0 -24 0 -23 0 +23 0 *
Fa
0  1e-07 6 0

0111000
+22 0 *
Ve
1e-07
0 25.49999046326 45.00067138672
0 0

0101100
*
Ed
 1e-07 1 1 0
1  10 0 0 6.28318530717959
2  19 7 0 0 6.28318530717959
2  20 8 0 0 6.28318530717959
0

0101100
+20 0 -20 0 *
Ed
 1e-07 1 1 0
1  11 0 0 5.49998855591529
3  21 22CN 7 0 0 5.49998855591529
0

0101000
+25 0 -20 0 *
Wi

0101000
+24 0 -19 0 -18 0 +18 0 *
Fa
0  1e-07 7 0

0111000
+17 0 *
Ve
1e-07
0 25.5 20.00065803528
0 0

0101100
*
Ed
 1.43051100014669e-05 1 1 0
1  12 0 0 6.28318530717959
2  23 8 0 0 6.28318530717959
2  24 9 0 0 6.28318530717959
0

0101100
+15 0 -15 0 *
Ed
 1.43051099978922e-05 1 1 0
1  13 0 0 25.0000133514418
3  25 26CN 8 0 0 25.0000133514418
0

0101000
+20 0 -15 0 *
Wi

0101000
+19 0 -14 0 -13 0 +13 0 *
Fa
0  1e-07 8 0

0111000
+12 0 *
Ve
1e-07
0 29.319688797 20.00066757202
0 0

0101100
*
Ed
 1e-07 1 1 0
1  14 0 0 6.28318530717959
2  27 9 0 0 6.28318530717959
2  28 2 0 0 6.28318530717959
0

0101100
+10 0 -10 0 *
Ed
 1e-07 1 1 0
1  15 0 0 3.81968879701191
3  29 30CN 9 0 0 3.81968879701191
0

0101000
+15 0 -10 0 *
Wi

0101000
+14 0 -9 0 -8 0 +8 0 *
Fa
0  1e-07 9 0

0111000
+7 0 *
Ed
 1e-07 1 1 0
1  16 0 0 58.7352220343445
3  31 32C0 10 0 0 58.7352220343445
3  33 34C0 2 0 0 58.7352220343445
0

0101000
+10 0 -47 0 *
Wi

0101000
+9 0 -46 0 -5 0 +5 0 *
Fa
0  1e-07 2 0

0111000
+4 0 *
Sh

0101000
+41 0 +36 0 +31 0 +26 0 +21 0 +16 0 +11 0 +6 0 +3 0 *
So

1100000
+2 0 *

+1 0 
0

