DBRep_DrawableShape

CASCADE Topology V1, (c) Matra-Datavision
Locations 2
1
              1               0               0             -30 
              0               1               0               0 
              0               0               1               0 
2  1 -1 0
Curve2ds 25
1 0 -90.049691346263302 1 0 
1 0 23.298148077580041 1 0 
1 0 108 1 0 
2 0 0 -1 0 0 1 198
1 6.2831853071795862 0 0 1 
1 0 0 0 1 
1 0 -7.4684745864262894 1 0 
2 0 0 -1 0 0 1 175.4684745864264
1 6.2831853071795862 0 0 1 
1 0 0 0 1 
1 0 -4.504704071528506 1 0 
1 0 45.727085332243583 1 0 
1 0 -7.7539901494580992 1 0 
1 6.2831853071795862 0 0 1 
1 0 0 0 1 
1 0 35.441125778582972 1 0 
2 0 0 -1 0 0 1 61.038368968067005
1 6.2831853071795862 0 0 1 
1 0 0 0 1 
2 0 0 -1 0 0 1 113.6274166441644
1 0 -6.6274166441645601 1 0 
1 0 16.000001207966214 1 0 
2 0 0 -1 0 0 1 129.6274178521308
1 6.2831853071795862 0 0 1 
1 0 0 0 1 
Curves 12
2 -118 -204 -90.049691346263302 0 0 1 0 1 0 -1 0 0 198
2 -118 -204 108 0 0 1 0 1 0 -1 0 0 198
1 -118 -6 3.6739403974420599e-16 0 0 1 
2 -118 -204 -111 0 0 1 0 1 0 -1 0 0 175.4684745864264
1 -118 -23.0620877446298 -105.914396374703 0 0.73233665130014747 0.68094275028264029 
2 -118 -204 104.38982722882299 0 0 1 0 1 0 -1 0 0 22.55123912026599
1 -118 -201.977642049211 63.529927927530302 0 0.4489435751331709 0.89356010785321383 
2 -118 -204 124 0 0 1 0 1 0 -1 0 0 61.038368968067005
1 -118 -174.539905114237 107.91006518235 0 0.89100651823500099 0.45399051142368702 
2 -118 -204 124 0 0 1 0 1 0 -1 0 0 113.6274166441644
2 -118 -204 108 0 0 1 0 1 0 -1 0 0 129.6274178521308
1 -118 -85.686291928095898 119.313708926065 0 0.70710680787908509 -0.70710675449400906 
Polygon3D 0
PolygonOnTriangulations 15
2 2 4 
p 0.9400000008 1 -90.0496913462633 108 
2 1 3 
p 0.9400000008 1 -90.0496913462633 108 
2 1 2 
p 0.9400000008 1 -90.0496913462633 108 
2 2 4 
p 0.9400000008 1 -7.4684745864264 23.2981480775799 
2 1 3 
p 0.9400000008 1 -7.4684745864264 23.2981480775799 
2 3 1 
p 0.9400000008 1 -7.4684745864264 23.2981480775799 
2 2 4 
p 0.9400000008 1 -4.50470407152842 45.7270853322441 
2 1 3 
p 0.9400000008 1 -4.50470407152842 45.7270853322441 
2 5 6 
p 0.9400000008 1 -4.50470407152842 45.7270853322441 
2 1 3 
p 0.9400000008 1 -7.75399014945784 35.4411257785827 
2 2 4 
p 0.9400000008 1 -7.75399014945784 35.4411257785827 
2 6 7 
p 0.9400000008 1 -7.75399014945784 35.4411257785827 
2 2 4 
p 0.9400000008 1 -6.62741664416437 16.0000012079664 
2 1 3 
p 0.9400000008 1 -6.62741664416437 16.0000012079664 
2 8 9 
p 0.9400000008 1 -6.62741664416437 16.0000012079664 
Surfaces 8
2 -118 -204 0 0 0 1 0 1 -0 -1 0 0 198
3 -118 -204 -105.91439637470302 0 0 1 0 1 0 -1 0 0 180.93791225537021
0.82174714312790076
1 -118 -204 108 0 0 1 -0 -1 -0 -1 0 0 
1 -118 -204 -111 0 0 1 -0 -1 0 -1 0 0 
3 -118 -204 63.529927927530302 0 0 1 0 1 0 -1 0 0 2.0223579507890008
0.46558272240398657
3 -118 -204 107.91006518235 0 0 1 0 1 0 -1 0 0 29.460094885762999
1.0995574156430106
1 -118 -204 124 0 0 1 -0 -1 -0 -1 0 0 
3 -118 -204 119.313708926065 -0 -0 -1 0 1 -0 -1 0 -0 118.3137080719041
0.78539820114639747
Triangulations 6
4 2 1 0.9400000008
-118 -6 -90.0496913462633 -148 -6 -90.0496913462633 -118 -6 108 -148 -6 108 0 0 0 -30 198.049691346263 0 198.049691346263 -30 1 2 3 2 4 3 
9 7 1 0.9400000008
-118 -6 -90.0496913462633 -118 -6 108 -118 -28.5315254135736 -111 -118 -204 -111 -118 -204 59.5047040715285 -118 -181.448760879734 104.389827228823 -118 -142.961631031933 124 -118 -90.3725833558356 124 -118 -74.3725821478692 108 15.8647050284395 17.0620877446298 213.914396374703 17.0620877446298 -5.0856036252972 -5.46943766894378 -5.0856036252972 -180.93791225537 165.419100446231 -180.93791225537 210.304223603526 -158.386673135104 229.914396374703 -119.899543287303 229.914396374703 -67.3104956112058 213.914396374703 -51.3104944032394 3 5 9 3 4 5 9 5 7 5 6 7 8 9 7 2 1 9 9 1 3 
4 2 1 0.9400000008
-118 -28.5315254135736 -111 -148 -28.5315254135736 -111 -118 -6 -90.0496913462633 -148 -6 -90.0496913462633 0 0 0 -30 30.7666226640063 0 30.7666226640063 -30 1 2 3 3 2 4 
4 2 1 0.9400000008
-118 -204 59.5047040715285 -148 -204 59.5047040715285 -118 -181.448760879734 104.389827228823 -148 -181.448760879734 104.389827228823 0 0 0 -30 50.2317894037725 0 50.2317894037725 -30 1 2 3 2 4 3 
4 2 1 0.9400000008
-118 -181.448760879734 104.389827228823 -148 -181.448760879734 104.389827228823 -118 -142.961631031933 124 -148 -142.961631031933 124 0 0 0 -30 43.1951159280406 0 43.1951159280406 -30 1 2 3 2 4 3 
4 2 1 0.9400000008
-118 -90.3725833558356 124 -148 -90.3725833558356 124 -118 -74.3725821478692 108 -148 -74.3725821478692 108 0 0 0 -30 22.6274178521308 0 22.6274178521308 -30 1 2 3 3 2 4 

TShapes 40
Ve
1e-07
-118 -6 -90.0496913462633
0 0

0101101
*
Ed
 1e-07 1 1 0
1  1 0 0 6.28318530717959
2  1 1 0 0 6.28318530717959
2  2 2 0 0 6.28318530717959
0

0101100
+40 0 -40 0 *
Ve
1e-07
-118 -6 108
0 0

0101101
*
Ed
 1e-07 1 1 0
1  2 0 0 6.28318530717959
2  3 1 0 0 6.28318530717959
2  4 3 0 0 6.28318530717959
0

0101100
+38 0 -38 0 *
Ed
 1e-07 1 1 0
1  3 0 -90.0496913462633 108
6  1 1 2
6  2 1 0
6  3 2 0
3  5 6CN 1 0 -90.0496913462633 108
0

0101000
+40 0 -38 0 *
Wi

0101000
+39 0 -37 0 -36 0 +36 0 *
Fa
0  1e-07 1 0

0101000
+35 0 *
Ve
1e-07
-118 -28.5315254135736 -111
0 0

0101101
*
Ed
 1e-07 1 1 0
1  4 0 0 6.28318530717959
2  7 2 0 0 6.28318530717959
2  8 4 0 0 6.28318530717959
0

0101100
+33 0 -33 0 *
Ed
 1e-07 1 1 0
1  5 0 -7.4684745864264 23.2981480775799
6  4 3 2
6  5 3 0
6  6 2 0
3  9 10CN 2 0 -7.4684745864264 23.2981480775799
0

0101000
+33 0 -40 0 *
Wi

0101000
+32 0 -39 0 -31 0 +31 0 *
Fa
0  1e-07 2 0

0101000
+30 0 *
Wi

0101000
-32 0 *
Fa
0  1e-07 4 0

0101000
+28 0 *
Ve
1e-07
-118 -204 59.5047040715285
0 0

0101101
*
Ed
 1e-07 1 1 1
2  11 5 0 0 6.28318530717959
0

0101100
+26 0 -26 0 *
Ve
1e-07
-118 -181.448760879734 104.389827228823
0 0

0101101
*
Ed
 1e-07 1 1 0
1  6 0 0 6.28318530717959
2  12 5 0 0 6.28318530717959
2  13 6 0 0 6.28318530717959
0

0101100
+24 0 -24 0 *
Ed
 1e-07 1 1 0
1  7 0 -4.50470407152842 45.7270853322441
6  7 4 2
6  8 4 0
6  9 2 0
3  14 15CN 5 0 -4.50470407152842 45.7270853322441
0

0101000
+26 0 -24 0 *
Wi

0101000
+25 0 -23 0 -22 0 +22 0 *
Fa
0  1e-07 5 0

0101000
+21 0 *
Ve
1e-07
-118 -142.961631031933 124
0 0

0101101
*
Ed
 1e-07 1 1 0
1  8 0 0 6.28318530717959
2  16 6 0 0 6.28318530717959
2  17 7 0 0 6.28318530717959
0

0101100
+19 0 -19 0 *
Ed
 1e-07 1 1 0
1  9 0 -7.75399014945784 35.4411257785827
6  10 5 0
6  11 5 2
6  12 2 0
3  18 19CN 6 0 -7.75399014945784 35.4411257785827
0

0101000
+24 0 -19 0 *
Wi

0101000
+23 0 -18 0 -17 0 +17 0 *
Fa
0  1e-07 6 0

0101000
+16 0 *
Wi

0101000
+18 0 *
Ve
1e-07
-118 -90.3725833558356 124
0 0

0101101
*
Ed
 1e-07 1 1 0
1  10 0 0 6.28318530717959
2  20 7 0 0 6.28318530717959
2  21 8 0 0 6.28318530717959
0

0101100
+13 0 -13 0 *
Wi

0101000
-12 0 *
Fa
0  1e-07 7 0

0101000
+14 0 +11 0 *
Ve
1e-07
-118 -74.3725821478692 108
0 0

0101101
*
Ed
 1e-07 1 1 0
1  11 0 0 6.28318530717959
2  22 8 0 0 6.28318530717959
2  23 3 0 0 6.28318530717959
0

0101100
+9 0 -9 0 *
Ed
 1e-07 1 1 0
1  12 0 -6.62741664416437 16.0000012079664
6  13 6 2
6  14 6 0
6  15 2 0
3  24 25CN 8 0 -6.62741664416437 16.0000012079664
0

0101000
+13 0 -9 0 *
Wi

0101000
+12 0 -8 0 -7 0 +7 0 *
Fa
0  1e-07 8 0

0101000
+6 0 *
Wi

0101000
+8 0 *
Wi

0101000
-37 0 *
Fa
0  1e-07 3 0

0101000
+4 0 +3 0 *
Sh

1101000
-34 0 -29 0 -27 0 +20 0 +15 0 +10 0 +5 0 +2 0 *

+1 0 
0

