DBRep_DrawableShape

CASCADE Topology V1, (c) Matra-Datavision
Locations 0
Curve2ds 6
1 0 100 1 0 
2 0 0 1 0 0 1 20
1 6.28318530717959 0 0 1 
1 0 0 0 1 
1 0 0 1 0 
2 0 0 1 0 0 1 20
Curves 3
2 100 100 100 0 0 1 1 0 0 0 1 0 20
1 120 100 0 0 0 1 
2 100 100 0 0 0 1 1 0 0 0 1 0 20
Polygon3D 0
PolygonOnTriangulations 4
49 1 2 3 4 5 6 7 8 9 10 11 12 13 14 15 16 17 18 19 20 21 22 23 24 25 26 27 28 29 30 31 32 33 34 35 36 37 38 39 40 41 42 43 44 45 46 47 48 1 
p 4.32956882116957 1 0 0.130899693899575 0.261799387799149 0.392699081698724 0.523598775598299 0.654498469497873 0.785398163397448 0.916297857297023 1.0471975511966 1.17809724509617 1.30899693899575 1.43989663289532 1.5707963267949 1.70169602069447 1.83259571459405 1.96349540849362 2.0943951023932 2.22529479629277 2.35619449019234 2.48709418409192 2.61799387799149 2.74889357189107 2.87979326579064 3.01069295969022 3.14159265358979 3.27249234748937 3.40339204138894 3.53429173528852 3.66519142918809 3.79609112308767 3.92699081698724 4.05789051088681 4.18879020478639 4.31968989868596 4.45058959258554 4.58148928648511 4.71238898038469 4.84328867428426 4.97418836818384 5.10508806208341 5.23598775598299 5.36688744988256 5.49778714378213 5.62868683768171 5.75958653158128 5.89048622548086 6.02138591938043 6.15228561328001 6.28318530717959 
2 22 2 
p 10.00000002 1 0 100 
2 23 1 
p 10.00000002 1 0 100 
49 1 2 3 4 5 6 7 8 9 10 11 12 13 14 15 16 17 18 19 20 21 22 23 24 25 26 27 28 29 30 31 32 33 34 35 36 37 38 39 40 41 42 43 44 45 46 47 48 1 
p 4.32956882116957 1 0 0.130899693899575 0.261799387799149 0.392699081698724 0.523598775598299 0.654498469497873 0.785398163397448 0.916297857297023 1.0471975511966 1.17809724509617 1.30899693899575 1.43989663289532 1.5707963267949 1.70169602069447 1.83259571459405 1.96349540849362 2.0943951023932 2.22529479629277 2.35619449019234 2.48709418409192 2.61799387799149 2.74889357189107 2.87979326579064 3.01069295969022 3.14159265358979 3.27249234748937 3.40339204138894 3.53429173528852 3.66519142918809 3.79609112308767 3.92699081698724 4.05789051088681 4.18879020478639 4.31968989868596 4.45058959258554 4.58148928648511 4.71238898038469 4.84328867428426 4.97418836818384 5.10508806208341 5.23598775598299 5.36688744988256 5.49778714378213 5.62868683768171 5.75958653158128 5.89048622548086 6.02138591938043 6.15228561328001 6.28318530717959 
Surfaces 3
2 100 100 0 0 0 1 1 0 0 0 1 0 20
1 100 100 100 0 0 1 1 0 0 0 1 0 
1 100 100 0 0 0 1 1 0 0 0 1 0 
Triangulations 3
42 40 1 10.00000002
120 100 100 120 100 100 119.021130325903 106.180339887499 100 116.180339887499 111.755705045849 100 111.755705045849 116.180339887499 100 106.180339887499 119.021130325903 100 100 120 100 93.8196601125011 119.021130325903 100 88.2442949541505 116.180339887499 100 83.8196601125011 111.755705045849 100 80.9788696740969 106.180339887499 100 80 100 100 80.9788696740969 93.8196601125011 100 83.8196601125011 88.2442949541505 100 88.2442949541505 83.8196601125011 100 93.8196601125011 80.9788696740969 100 100 80 100 106.180339887499 80.9788696740969 100 111.755705045849 83.8196601125011 100 116.180339887499 88.2442949541505 100 119.021130325903 93.8196601125011 100 120 100 0 120 100 0 119.021130325903 106.180339887499 0 116.180339887499 111.755705045849 0 111.755705045849 116.180339887499 0 106.180339887499 119.021130325903 0 100 120 0 93.8196601125011 119.021130325903 0 88.2442949541505 116.180339887499 0 83.8196601125011 111.755705045849 0 80.9788696740969 106.180339887499 0 80 100 0 80.9788696740969 93.8196601125011 0 83.8196601125011 88.2442949541505 0 88.2442949541505 83.8196601125011 0 93.8196601125011 80.9788696740969 0 100 80 0 106.180339887499 80.9788696740969 0 111.755705045849 83.8196601125011 0 116.180339887499 88.2442949541505 0 119.021130325903 93.8196601125011 0 0 100 6.28318530717959 100 0.314159265358979 100 0.628318530717959 100 0.942477796076938 100 1.25663706143592 100 1.5707963267949 100 1.88495559215388 100 2.19911485751286 100 2.51327412287183 100 2.82743338823081 100 3.14159265358979 100 3.45575191894877 100 3.76991118430775 100 4.08407044966673 100 4.39822971502571 100 4.71238898038469 100 5.02654824574367 100 5.34070751110265 100 5.65486677646163 100 5.96902604182061 100 6.28318530717959 0 0 0 0.314159265358979 0 0.628318530717959 0 0.942477796076938 0 1.25663706143592 0 1.5707963267949 0 1.88495559215388 0 2.19911485751286 0 2.51327412287183 0 2.82743338823081 0 3.14159265358979 0 3.45575191894877 0 3.76991118430775 0 4.08407044966673 0 4.39822971502571 0 4.71238898038469 0 5.02654824574367 0 5.34070751110265 0 5.65486677646163 0 5.96902604182061 0 23 24 3 25 26 5 26 27 6 24 25 4 28 29 8 30 31 10 31 32 11 29 30 9 27 28 7 1 23 3 4 25 5 5 26 6 24 4 3 28 8 7 7 6 27 29 9 8 9 30 10 10 31 11 33 12 11 11 32 33 34 35 14 36 37 16 37 38 17 35 36 15 39 40 19 41 42 21 42 22 2 40 41 20 38 39 18 13 12 34 15 14 35 16 15 36 13 34 14 18 17 38 19 18 39 21 20 41 2 21 42 19 40 20 16 37 17 34 12 33 
49 48 1 4.32956882116957
120 100 100 119.828897227476 102.610523844401 100 119.318516525781 105.17638090205 100 118.477590650226 107.653668647302 100 117.320508075689 110 100 115.867066805825 112.175228580174 100 114.142135623731 114.142135623731 100 112.175228580174 115.867066805825 100 110 117.320508075689 100 107.653668647302 118.477590650226 100 105.17638090205 119.318516525781 100 102.610523844401 119.828897227476 100 100 120 100 97.389476155599 119.828897227476 100 94.8236190979496 119.318516525781 100 92.3463313526982 118.477590650226 100 90 117.320508075689 100 87.8247714198256 115.867066805825 100 85.857864376269 114.142135623731 100 84.1329331941753 112.175228580174 100 82.6794919243112 110 100 81.5224093497743 107.653668647302 100 80.6814834742186 105.17638090205 100 80.1711027725238 102.610523844401 100 80 100 100 80.1711027725238 97.389476155599 100 80.6814834742186 94.8236190979496 100 81.5224093497743 92.3463313526982 100 82.6794919243112 90 100 84.1329331941753 87.8247714198256 100 85.857864376269 85.8578643762691 100 87.8247714198256 84.1329331941753 100 90 82.6794919243113 100 92.3463313526982 81.5224093497743 100 94.8236190979495 80.6814834742187 100 97.3894761555989 80.1711027725238 100 99.9999999999999 80 100 102.610523844401 80.1711027725238 100 105.17638090205 80.6814834742186 100 107.653668647302 81.5224093497742 100 110 82.6794919243112 100 112.175228580174 84.1329331941753 100 114.142135623731 85.857864376269 100 115.867066805825 87.8247714198255 100 117.320508075689 89.9999999999999 100 118.477590650226 92.3463313526981 100 119.318516525781 94.8236190979495 100 119.828897227476 97.3894761555989 100 100 100 100 20 0 19.8288972274762 2.61052384440103 19.3185165257814 5.17638090205041 18.4775906502257 7.6536686473018 17.3205080756888 10 15.8670668058247 12.1752285801744 14.142135623731 14.142135623731 12.1752285801744 15.8670668058247 10 17.3205080756888 7.6536686473018 18.4775906502257 5.17638090205041 19.3185165257814 2.61052384440103 19.8288972274762 -3.5527136788005e-015 20 -2.61052384440104 19.8288972274762 -5.17638090205042 19.3185165257814 -7.6536686473018 18.4775906502257 -10 17.3205080756888 -12.1752285801744 15.8670668058247 -14.1421356237309 14.142135623731 -15.8670668058247 12.1752285801744 -17.3205080756888 10 -18.4775906502257 7.65366864730181 -19.3185165257814 5.17638090205043 -19.8288972274762 2.61052384440105 -20 2.1316282072803e-014 -19.8288972274762 -2.61052384440101 -19.3185165257814 -5.17638090205039 -18.4775906502257 -7.65366864730177 -17.3205080756888 -9.99999999999997 -15.8670668058247 -12.1752285801744 -14.142135623731 -14.1421356237309 -12.1752285801744 -15.8670668058247 -10 -17.3205080756888 -7.65366864730184 -18.4775906502257 -5.17638090205046 -19.3185165257814 -2.61052384440109 -19.8288972274762 -5.6843418860808e-014 -20 2.61052384440097 -19.8288972274762 5.17638090205035 -19.3185165257814 7.65366864730174 -18.4775906502258 9.99999999999994 -17.3205080756888 12.1752285801744 -15.8670668058247 14.1421356237309 -14.142135623731 15.8670668058247 -12.1752285801745 17.3205080756887 -10.0000000000001 18.4775906502257 -7.65366864730187 19.3185165257813 -5.1763809020505 19.8288972274762 -2.61052384440112 0 0 49 29 30 27 28 49 49 26 27 25 26 49 30 31 49 49 35 36 49 32 33 49 33 34 29 49 28 49 31 32 49 34 35 23 49 22 22 49 21 21 49 20 49 19 20 24 25 49 18 49 17 49 16 17 16 49 15 14 15 49 18 19 49 49 23 24 49 36 37 49 38 39 49 39 40 49 41 42 41 49 40 49 42 43 38 49 37 44 45 49 45 46 49 47 48 49 49 46 47 44 49 43 49 48 1 9 49 8 49 10 11 12 49 11 9 10 49 12 13 49 3 4 49 7 8 49 49 6 7 5 6 49 5 49 4 3 49 2 49 1 2 49 13 14 
49 48 1 4.32956882116957
120 100 0 119.828897227476 102.610523844401 0 119.318516525781 105.17638090205 0 118.477590650226 107.653668647302 0 117.320508075689 110 0 115.867066805825 112.175228580174 0 114.142135623731 114.142135623731 0 112.175228580174 115.867066805825 0 110 117.320508075689 0 107.653668647302 118.477590650226 0 105.17638090205 119.318516525781 0 102.610523844401 119.828897227476 0 100 120 0 97.389476155599 119.828897227476 0 94.8236190979496 119.318516525781 0 92.3463313526982 118.477590650226 0 90 117.320508075689 0 87.8247714198256 115.867066805825 0 85.857864376269 114.142135623731 0 84.1329331941753 112.175228580174 0 82.6794919243112 110 0 81.5224093497743 107.653668647302 0 80.6814834742186 105.17638090205 0 80.1711027725238 102.610523844401 0 80 100 0 80.1711027725238 97.389476155599 0 80.6814834742186 94.8236190979496 0 81.5224093497743 92.3463313526982 0 82.6794919243112 90 0 84.1329331941753 87.8247714198256 0 85.857864376269 85.8578643762691 0 87.8247714198256 84.1329331941753 0 90 82.6794919243113 0 92.3463313526982 81.5224093497743 0 94.8236190979495 80.6814834742187 0 97.3894761555989 80.1711027725238 0 99.9999999999999 80 0 102.610523844401 80.1711027725238 0 105.17638090205 80.6814834742186 0 107.653668647302 81.5224093497742 0 110 82.6794919243112 0 112.175228580174 84.1329331941753 0 114.142135623731 85.857864376269 0 115.867066805825 87.8247714198255 0 117.320508075689 89.9999999999999 0 118.477590650226 92.3463313526981 0 119.318516525781 94.8236190979495 0 119.828897227476 97.3894761555989 0 100 100 0 20 -3.5527136788005e-015 19.8288972274762 2.61052384440103 19.3185165257814 5.17638090205041 18.4775906502257 7.6536686473018 17.3205080756888 10 15.8670668058247 12.1752285801744 14.142135623731 14.142135623731 12.1752285801744 15.8670668058247 10 17.3205080756888 7.6536686473018 18.4775906502257 5.17638090205041 19.3185165257814 2.61052384440103 19.8288972274762 -3.5527136788005e-015 20 -2.61052384440104 19.8288972274762 -5.17638090205042 19.3185165257814 -7.6536686473018 18.4775906502257 -10 17.3205080756888 -12.1752285801744 15.8670668058247 -14.1421356237309 14.142135623731 -15.8670668058247 12.1752285801744 -17.3205080756888 10 -18.4775906502257 7.65366864730181 -19.3185165257814 5.17638090205043 -19.8288972274762 2.61052384440105 -20 2.1316282072803e-014 -19.8288972274762 -2.61052384440101 -19.3185165257814 -5.17638090205039 -18.4775906502257 -7.65366864730177 -17.3205080756888 -9.99999999999997 -15.8670668058247 -12.1752285801744 -14.142135623731 -14.1421356237309 -12.1752285801744 -15.8670668058247 -10 -17.3205080756888 -7.65366864730184 -18.4775906502257 -5.17638090205046 -19.3185165257814 -2.61052384440109 -19.8288972274762 -5.6843418860808e-014 -20 2.61052384440097 -19.8288972274762 5.17638090205035 -19.3185165257814 7.65366864730174 -18.4775906502258 9.99999999999994 -17.3205080756888 12.1752285801744 -15.8670668058247 14.1421356237309 -14.142135623731 15.8670668058247 -12.1752285801745 17.3205080756887 -10.0000000000001 18.4775906502257 -7.65366864730187 19.3185165257813 -5.1763809020505 19.8288972274762 -2.61052384440112 0 0 49 29 30 27 28 49 49 26 27 25 26 49 30 31 49 49 35 36 49 32 33 49 33 34 29 49 28 49 31 32 49 34 35 23 49 22 22 49 21 21 49 20 49 19 20 24 25 49 18 49 17 49 16 17 16 49 15 14 15 49 18 19 49 49 23 24 49 36 37 49 38 39 40 49 39 49 41 42 49 40 41 42 43 49 45 49 44 46 49 45 47 48 49 47 49 46 44 49 43 1 49 48 49 9 10 9 49 8 49 10 11 49 12 13 12 49 11 49 13 14 4 49 3 4 5 49 49 7 8 49 6 7 5 6 49 3 49 2 49 1 2 38 49 37 

TShapes 13
Ve
1e-007
120 100 100
0 0

0101101
*
Ed
 1e-007 1 1 0
1  1 0 0 6.28318530717959
2  1 1 0 0 6.28318530717959
2  2 2 0 0 6.28318530717959
6  1 2 0
0

0101100
+13 0 -13 0 *
Ve
1e-007
120 100 0
0 0

0101101
*
Ed
 1e-007 1 1 0
1  2 0 0 100
3  3 4CN 1 0 0 100
7  2 3 1 0
0

0101000
-13 0 +11 0 *
Ed
 1e-007 1 1 0
1  3 0 0 6.28318530717959
2  5 1 0 0 6.28318530717959
2  6 3 0 0 6.28318530717959
6  4 3 0
0

0101100
+11 0 -11 0 *
Wi

0101000
-12 0 +10 0 +9 0 -10 0 *
Fa
0  1e-007 1 0
2  1
0111000
+8 0 *
Wi

0101000
+12 0 *
Fa
0  1e-007 2 0
2  2
0111000
+6 0 *
Wi

0101000
-9 0 *
Fa
0  1e-007 3 0
2  3
0111000
-4 0 *
Sh

0101100
+7 0 +5 0 -3 0 *
So

1100100
+2 0 *

+1 0 