DBRep_DrawableShape

CASCADE Topology V1, (c) Matra-Datavision
Locations 52
1
0.999991627177991               0 -0.00409213561769156 -0.350016269410121 
-0.00409213561769156               0 -0.999991627177991 -0.895157406232056 
              0               1               0             0.5 
1
              1               0               0 0.00491056274122987 
              0               1               0 1.19998995261359 
              0               0               1              -0 
2  1 1 2 1 0
1
              1              -0               0               0 
              0               1               0               0 
             -0               0               1             0.5 
1
-0.00806850461906327 -0.00409213561769156 -0.999959075992262 -0.113695480336308 
3.30176915844325e-05 -0.999991627177991 0.00409200241270974 -0.896124471047287 
-0.999967448541723               0 0.00806857217578197 -0.327018420331028 
1
              1               0               0 0.199991815198452 
              0               1               0 -0.000818400482541940 
              0               0               1 -0.00161371443515639 
2  5 1 6 1 0
1
              1               0               0              -0 
              0               1               0              -0 
              0               0               1              -1 
2  4 1 8 1 0
1
0.00409213561769156              -0 0.999991627177991 0.463466744221537 
0.999991627177991               0 -0.00409213561769156 -0.298481293183633 
              0               1               0             0.5 
1
              1               0               0 -0.199998325435598 
              0               1               0 0.000818427123538310 
              0               0               1              -0 
2  10 1 11 1 0
1
              1               0              -0              -0 
             -0               1               0              -0 
              0               0               1              -0 
2  2 -1 1 -1 0
1
              1               0              -0              -0 
             -0               1               0              -0 
              0               0               1              -0 
2  4 -1 0
1
              1               0              -0              -0 
             -0               1               0              -0 
              0               0               1              -0 
1
              1               0              -0              -0 
             -0               1               0              -0 
              0               0               1              -0 
2  11 -1 10 -1 0
2  13 1 1 1 2 1 0
2  17 1 5 1 6 1 0
2  15 1 4 1 8 1 0
2  15 1 4 1 0
2  18 1 10 1 11 1 0
2  1 -1 13 -1 0
2  2 -1 1 -1 13 -1 0
1
-0.00806850461906327 -0.00409213561769156 -0.999959075992262 -0.0136995727370823 
3.30176915844325e-05 -0.999991627177991 0.00409200241270974 -0.896533671288558 
-0.999967448541723               0 0.00806857217578197 -0.327825277548606 
2  27 -1 17 -1 0
1
              1               0               0 -0.199991815198452 
              0               1               0 0.000818400482541940 
              0               0               1 0.00161371443515639 
2  29 -1 27 -1 17 -1 0
2  5 -1 17 -1 0
2  6 -1 5 -1 17 -1 0
1
              1              -0               0              -0 
              0               1               0               0 
             -0               0               1              -0 
2  33 -1 15 -1 0
1
              1               0               0               0 
              0               1               0               0 
              0               0               1             0.2 
2  35 -1 33 -1 15 -1 0
1
              1               0               0               0 
              0               1               0               0 
              0               0               1               1 
2  37 -1 33 -1 15 -1 0
2  4 -1 15 -1 0
2  8 -1 4 -1 15 -1 0
1
0.00409213561769156              -0 0.999991627177991 0.363467581503738 
0.999991627177991               0 -0.00409213561769156 -0.298072079621864 
              0               1               0             0.5 
2  41 -1 18 -1 0
1
              1               0               0 0.199998325435598 
              0               1               0 -0.000818427123538310 
              0               0               1               0 
2  43 -1 41 -1 18 -1 0
2  10 -1 18 -1 0
2  11 -1 10 -1 18 -1 0
2  33 -1 4 1 0
2  35 -1 33 -1 4 1 0
2  37 -1 33 -1 4 1 0
2  8 -1 0
2  41 -1 10 1 11 1 0
2  43 -1 41 -1 10 1 11 1 0
Curve2ds 125
1 -0.323828883250056 -0.986538746248268 0.999991627177991 -0.00409213561769156 
1 0.3197891215467 -0.1 1 1.73472347597681e-18 
1 -0.64254089205876 -0.4913025680398 -0.00409213561769156 -0.999991627177991 
1 -0.493927818921063 -0.1 1 -1.35525271560688e-20 
1 -0.492542147982061 -0.491916388382454 0.00409213561769156 0.999991627177991 
1 0.493927818921063 -0.1 1 1.35525271560688e-20 
1 -0.248479797357614 -0.785702005170195 -0.999991627177991 0.00409213561769156 
1 -0.245262517720249 -0.1 1 -1.73472347597681e-18 
1 -0.19422413812824 0 0 -1 
1 5.55111512312578e-17 0 0 -1 
1 0.339648140392889 -0.415296350220424 -0.00806857217578197 -0.999967448541723 
1 -0.412542356183477 -0.6 1 0 
1 0.336319512616456 -0.827825277548606 -0.00806857217578197 -0.999967448541723 
1 0 0 1 0 
1 0 -1.2 1 0 
1 -0.00518557520384677 -0.448273645879082 -0.00409213561769156 -0.999991627177991 
1 -0.827852225345779 -0.448291112640624 0 1 
1 -0.000946792347097990 0 1.73472347597681e-18 -1 
1 0 0 8.74138001566438e-19 -1 
1 -0.643615327259361 -0.985230125793836 0.999991627177991 -0.00409213561769156 
1 0 0 1 -1.73472347597681e-18 
1 0 -0.2 1 -1.73472347597681e-18 
1 0 0 1 1.73472347597681e-18 
1 0 -0.2 1 1.73472347597681e-18 
1 0.149053207652902 -1.38777878078145e-17 1.73472347597681e-18 -1 
1 0 0 -8.74138001566438e-19 -1 
1 0.15 0 -1.73472347597681e-18 -1 
1 -0.201143398185928 -1.38777878078145e-17 8.74138001566438e-19 -1 
1 -0.644562111679135 -0.98522625139115 -0.00409213561769156 -0.999991627177991 
1 0 0 1 -8.53809210832335e-19 
1 0 -0.2 1 -8.53809210832335e-19 
1 0 0 1 8.53809210832335e-19 
1 0 -0.2 1 8.53809210832335e-19 
1 -0.494563367602437 -0.985840071733804 0.00409213561769156 0.999991627177991 
1 0 0 1 8.53809210832335e-19 
1 0 -0.2 1 8.53809210832335e-19 
1 0 0 1 -8.53809210832335e-19 
1 0 -0.2 1 -8.53809210832335e-19 
1 0.201143398185928 0 -8.74138001566438e-19 -1 
1 0 0 -1.73472347597681e-18 -1 
1 -0.493740261538457 -0.784698357685747 -0.999991627177991 0.00409213561769156 
1 0 0 1 1.73472347597681e-18 
1 0 -0.2 1 1.73472347597681e-18 
1 0 0 1 -1.73472347597681e-18 
1 2.77555756156289e-17 -0.2 1 -1.73472347597681e-18 
1 0.129162760550083 -0.604774113159677 0.990592939215091 -0.136841619316663 
1 -0.210705987576011 -0.6 1 0 
1 0.337886624093222 -0.633607461699295 0.990592939215091 -0.136841619316663 
1 0 0 1 0 
1 0 -1.2 1 0 
1 -0.3 -0.685154530830422 1 -1.09449818342596e-19 
1 0.376691458260537 -0.3 1.49772903759155e-20 -1 
1 0.711034522908746 0 0 -1 
1 0 0 -0 -1 
1 -0.347560988039506 -0.295162429925261 0.999991627177991 -0.00409213561769156 
1 0 0 1 0 
1 0 -0.2 1 0 
1 0 0 1 0 
1 0 -1 1 0 
1 0 0 1 0 
1 0 -1 1 0 
1 0 0 0 -1 
1 0.596027283877296 0 0 -1 
1 -0.171932039992962 0.304123890318632 0.999991627177991 -0.00409213561769156 
1 0.173175116640357 0 1 0 
1 0.611034522908746 0 0 1 
1 0.6 0 0 1 
1 0.405517261454373 -0.134666159015814 -1 0 
1 0.106435017648441 -0.405517261454373 -8.67361737988404e-19 -1 
1 0.6 0 0 -1 
1 0.711034522908746 0 0 -1 
1 0.264075246129763 -0.149372995034563 0.00409213561769156 0.999991627177991 
1 0.148291112640624 0 1 0 
1 0.234019631392033 0.409450548523692 0.999991627177991 -0.00409213561769156 
1 0.0267803817216991 -0.232342144814016 3.3881317890172e-21 1 
1 0.363467581503738 -0.298072079621864 0.00409213561769156 0.999991627177991 
1 0 0 1 0 
1 0 -0.2 1 0 
1 0 0 1 0 
1 0 -1 1 0 
1 0 0 1 0 
1 0 -1 1 0 
1 -0.345121963562035 0.300859863521675 -0.00409213561769156 -0.999991627177991 
1 0 0 1 0 
1 0 -0.2 1 0 
1 0 0 1 0 
1 0 -1 1 0 
1 0 0 1 0 
1 0 -1 1 0 
1 -0.343468852421814 0.70482919725273 -0.999991627177991 0.00409213561769156 
1 0 0 1 0 
1 0 -0.2 1 0 
1 0 0 1 0 
1 0 -1 1 0 
1 0 0 1 0 
1 0 -1 1 0 
2 -0.243878903265784 0.604420820973162 1 0 -0 1 0.1
1 0 0 1 0 
1 0 -0.2 1 0 
1 0 0 1 0 
1 0 -1 1 0 
1 0 0 1 0 
1 0 -1 1 0 
1 0.352946553129777 -0.133655174341608 -0.999991627177991 0.00409213561769156 
1 0.353490533070521 -0.1 1 -8.67361737988404e-19 
1 0.707035860642772 0.0119435475462701 -0.00409213561769156 -0.999991627177991 
1 0.0148367341733939 -0.1 1 -6.77620684158558e-21 
1 1 0 -0 -1 
1 -0.711034522908746 0 0 -1 
1 -0.303972716122704 0 0 -1 
1 3.13750050655116 0 0 -1 
1 0.707096574571133 0.0267801574943296 -0.00409213561769156 -0.999991627177991 
1 0 0 1 6.77620684158558e-21 
1 0 -0.2 1 6.77620684158558e-21 
1 0 0 1 -6.77620684158558e-21 
1 0 -0.2 1 -6.77620684158558e-21 
1 0.706434126486982 -0.135101705542502 -0.999991627177991 0.00409213561769156 
1 0 0 1 8.67361737988404e-19 
1 0 -0.2 1 8.67361737988404e-19 
1 0 0 1 -8.67361737988404e-19 
1 0 -0.2 1 -8.67361737988404e-19 
1 0.161883218456206 5.55111512312578e-17 -3.3881317890172e-21 -1 
1 0 0 -8.67361737988404e-19 -1 
1 1.56670417975626 0 0 -1 
1 -0.1 0 0 -1 
Curves 40
1 -0.00704970755503778 0.0899861227641892 -0.00400693540093203 -0.00805169148899664 0.00412511877010158 -0.999959075992262 
1 -0.00650475184383013 -0.405256432054717 0.314694698867115 0.00412511877010158 0.999983119313215 0.00409200241270974 
1 -0.00771250556717962 -0.404637664239201 0.164700837468275 -0.00412511877010158 -0.999983119313215 -0.00409200241270974 
1 -0.00847951318410983 -0.110846448890719 -0.0793535685707488 0.00805169148899664 -0.00412511877010158 0.999959075992262 
1 -0.012132474381461 -0.896540084121249 -0.133607461699295 0.00409213561769156 0.999991627177991 -0 
1 -0.00791569146004171 -0.296552316178045 0.0847036497795761 -0.00806850461906327 3.30176915844325e-05 -0.999967448541723 
1 0.336319512616456 -0.827825277548606 0 -0.00806857217578197 -0.999967448541723 0 
1 -0.00518557520384677 -0.448273645879082 0.5 -0.00409213561769156 -0.999991627177991 0 
1 -0.10446314852615 0.0890722492668111 0.317522709911422 0.999959075992262 -0.00409200241270974 -0.00806857217578197 
1 -0.643615327259361 -0.985230125793836 0 0.999991627177991 -0.00409213561769156 -0 
1 -0.105670902249499 0.0896910170823264 0.167528848512583 0.999959075992262 -0.00409200241270974 -0.00806857217578197 
1 -0.105292888933489 -0.112067753480413 0.316699630640745 0.999959075992262 -0.00409200241270974 -0.00806857217578197 
1 -0.644562111679135 -0.98522625139115 0 -0.00409213561769156 -0.999991627177991 0 
1 -0.494563367602437 -0.985840071733804 0 0.00409213561769156 0.999991627177991 0 
1 -0.106500642656838 -0.111448985664898 0.166705769241905 0.999959075992262 -0.00409200241270974 -0.00806857217578197 
1 -0.493740261538457 -0.784698357685747 0 -0.999991627177991 0.00409213561769156 0 
1 -0.218399308946227 -0.295690981458187 -0.104774113159677 0.990584645156728 -0.00405364064919584 -0.136841619316663 
1 0.337886624093222 -0.633607461699295 0 0.990592939215091 -0.136841619316663 -0 
1 0.362239940818431 -0.598069567775261 -0.185154530830422 0.00409213561769156 0.999991627177991 -1.09449818342596e-19 
1 0.363467581503738 -0.298072079621864 0.5 -0 -0 -1 
1 -0.347560988039506 -0.295162429925261 0 0.999991627177991 -0.00409213561769156 -0 
1 -0.347560988039506 -0.295162429925261 0.5 -0 -0 -1 
1 -0.171932039992962 0.304123890318632 0.5 0.999991627177991 -0.00409213561769156 0 
1 0.265923700156554 0.302332110246699 0.5 0 0 1 
1 0.0604081594616307 0.303173114752347 0.365333840984186 -0.999991627177991 0.00409213561769156 0 
1 0.365922862874353 0.30192289668493 0.5 0 -0 -1 
1 0.264075246129763 -0.149372995034563 0.5 0.00409213561769156 0.999991627177991 -0 
1 0.234019631392033 0.409450548523692 0.5 0.999991627177991 -0.00409213561769156 0 
1 0.363467581503738 -0.298072079621864 0 0.00409213561769156 0.999991627177991 0 
1 -0.345121963562035 0.300859863521675 0 -0.00409213561769156 -0.999991627177991 0 
1 -0.343468852421814 0.70482919725273 0 -0.999991627177991 0.00409213561769156 0 
2 -0.243878903265784 0.604420820973162 0 0 -0 1 1 0 0 -0 1 0 0.1
1 0.364911886664942 0.0548715183492445 0.366344825658392 -0.0040921013549684 -0.999983254426086 0.00409213561769156 
1 0.366360868132059 0.408957861135493 0.51194354754627 -1.67455739135799e-05 -0.0040921013549684 -0.999991627177991 
1 0.36755971712143 0.701919547556127 0.5 -0 -0 -1 
1 -0.343878065983583 0.604830034534931 0.5 -0 -0 -1 
1 0.707096574571133 0.0267801574943296 0 -0.00409213561769156 -0.999991627177991 0 
1 0.706434126486982 -0.135101705542502 0 -0.999991627177991 0.00409213561769156 0 
1 0.466357568472087 0.407946918456147 0.364898294457498 -0.999991627177991 0.00409213561769156 -0 
1 -0.243469689704015 0.704419983690961 0.5 -0 -0 -1 
Polygon3D 0
PolygonOnTriangulations 0
Surfaces 30
1 -0.0136995727370823 -0.896533671288558 -0.327825277548606 -0.999959075992262 0.00409200241270974 0.00806857217578197 -0.00806850461906327 3.30176915844325e-05 -0.999967448541723 -0.00409213561769156 -0.999991627177991 0 
1 -0.104470771806033 0.0890761548976935 0.316575956310862 0.00412511877010157 0.999983119313215 0.00409200241270974 -0.00805169148899664 0.00412511877010158 -0.999959075992262 -0.999959075992262 0.00409200241270974 0.00806857217578196 
1 -0.10446314852615 0.0890722492668111 0.317522709911422 0.00805169148899664 -0.00412511877010158 0.999959075992262 0.00412511877010157 0.999983119313215 0.00409200241270974 -0.999959075992262 0.00409200241270974 0.00806857217578196 
1 -0.105670902249499 0.0896910170823264 0.167528848512583 -0.00805169148899664 0.00412511877010158 -0.999959075992262 -0.00412511877010157 -0.999983119313215 -0.00409200241270974 -0.999959075992262 0.00409200241270974 0.00806857217578196 
1 -0.106500642656838 -0.111448985664898 0.166705769241905 -0.00412511877010157 -0.999983119313215 -0.00409200241270974 0.00805169148899664 -0.00412511877010158 0.999959075992262 -0.999959075992262 0.00409200241270974 0.00806857217578196 
1 -0.012132474381461 -0.896540084121249 -0.133607461699295 -0.136840473566141 0.000559974464388300 -0.990592939215091 0.990584645156728 -0.00405364064919584 -0.136841619316663 -0.00409213561769156 -0.999991627177991 0 
1 -0.347560988039506 -0.295162429925261 0.5 -0.00409213561769156 -0.999991627177991 0 0.999991627177991 -0.00409213561769156 0 0 0 1 
1 0 0 0 0 0 1 1 0 -0 -0 1 0 
1 0.363467581503738 -0.298072079621864 0.5 0.999991627177991 -0.00409213561769156 0 0.00409213561769156 0.999991627177991 0 -0 0 1 
1 -0.345121963562035 0.300859863521675 0.5 -0.999991627177991 0.00409213561769156 0 -0.00409213561769156 -0.999991627177991 0 0 0 1 
1 0.466357568472087 0.407946918456147 0.364898294457498 1.67455739135799e-05 0.0040921013549684 0.999991627177991 -0.0040921013549684 -0.999983254426086 0.00409213561769156 0.999991627177991 -0.00409213561769156 0 
1 0.466360279299487 0.408609360993738 0.52678015749433 -0.0040921013549684 -0.999983254426086 0.00409213561769156 -1.67455739135799e-05 -0.0040921013549684 -0.999991627177991 0.999991627177991 -0.00409213561769156 6.7762635780344e-21 
1 -0.343468852421814 0.70482919725273 0.5 0.00409213561769156 0.999991627177991 -0 -0.999991627177991 0.00409213561769156 0 0 0 1 
2 -0.243878903265784 0.604420820973162 0.5 0 0 1 1 0 0 0 1 0 0.1
1 -0.00447486420680651 0.0886669546564225 0.315769099093283 -0.00412511877010157 -0.999983119313215 -0.00409200241270974 -0.00805169148899664 0.00412511877010158 -0.999959075992262 0.999959075992262 -0.00409200241270974 -0.00806857217578196 
1 -0.00446724092692353 0.0886630490255401 0.316715852693844 -0.00805169148899664 0.00412511877010158 -0.999959075992262 0.00412511877010157 0.999983119313215 0.00409200241270974 0.999959075992262 -0.00409200241270974 -0.00806857217578196 
1 -0.00567499465027303 0.0892818168410554 0.166721991295005 0.00805169148899664 -0.00412511877010158 0.999959075992262 -0.00412511877010157 -0.999983119313215 -0.00409200241270974 0.999959075992262 -0.00409200241270974 -0.00806857217578196 
1 -0.00650473505761182 -0.111858185906169 0.165898912024327 0.00412511877010157 0.999983119313215 0.00409200241270974 0.00805169148899664 -0.00412511877010158 0.999959075992262 0.999959075992262 -0.00409200241270974 -0.00806857217578196 
1 -0.347560988039506 -0.295162429925261 0 0.00409213561769156 0.999991627177991 -0 0.999991627177991 -0.00409213561769156 0 0 -0 -1 
1 -0.347560988039506 -0.295162429925261 0 0.00409213561769156 0.999991627177991 -0 0.999991627177991 -0.00409213561769156 0 0 -0 -1 
1 0.363467581503738 -0.298072079621864 0 -0.999991627177991 0.00409213561769156 0 0.00409213561769156 0.999991627177991 0 0 0 -1 
1 0.363467581503738 -0.298072079621864 0 -0.999991627177991 0.00409213561769156 0 0.00409213561769156 0.999991627177991 0 0 0 -1 
1 -0.345121963562035 0.300859863521675 0 0.999991627177991 -0.00409213561769156 0 -0.00409213561769156 -0.999991627177991 0 0 -0 -1 
1 -0.345121963562035 0.300859863521675 0 0.999991627177991 -0.00409213561769156 0 -0.00409213561769156 -0.999991627177991 0 0 -0 -1 
1 -0.343468852421814 0.70482919725273 0 -0.00409213561769156 -0.999991627177991 0 -0.999991627177991 0.00409213561769156 0 -0 0 -1 
1 -0.343468852421814 0.70482919725273 0 -0.00409213561769156 -0.999991627177991 0 -0.999991627177991 0.00409213561769156 0 -0 0 -1 
2 -0.243878903265784 0.604420820973162 0 -0 -0 -1 1 0 0 0 1 0 0.1
2 -0.243878903265784 0.604420820973162 0 -0 -0 -1 1 0 0 0 1 0 0.1
1 0.366361116581688 0.409018574555507 0.52678015749433 0.0040921013549684 0.999983254426086 -0.00409213561769156 -1.67455739135799e-05 -0.0040921013549684 -0.999991627177991 -0.999991627177991 0.00409213561769156 -6.7762635780344e-21 
1 0.366358405754288 0.408356132017916 0.364898294457498 -1.67455739135799e-05 -0.0040921013549684 -0.999991627177991 -0.0040921013549684 -0.999983254426086 0.00409213561769156 -0.999991627177991 0.00409213561769156 0 
Triangulations 0

TShapes 108
Ve
1e-07
0.706434126486982 -0.135101705542502 0
0 0

0101101
*
Ve
1e-07
0.366358405754288 0.408356132017916 0.364898294457498
0.147046484282812 1 34 0
-0.353490533070521 1 33 0
0.1 1 39 0
0.1 2 122 12 0
0.1 2 123 11 0
0 0

0101101
*
Ve
1e-07
-0.243469689704015 0.704419983690961 0
0 0

0101101
*
Ve
1e-07
-0.343878065983583 0.604830034534931 0
0 0

0101101
*
Ve
1e-07
0.36755971712143 0.701919547556127 0
0 0

0101101
*
Ve
1e-07
0.366360668128827 0.408908986519177 0.5
0.0119436475483052 1 34 0
0.132342144814016 1 28 0
0.706986985617234 2 76 8 23
0.706986985617234 1 29 23
0.706986985617234 2 77 21 47
0.706986985617234 2 78 21 48
0.706986985617234 2 79 22 47
0.706986985617234 2 80 22 49
0.706986985617234 2 81 9 0
0.706986985617234 2 82 9 50
0 0

0101101
*
Ve
1e-07
0.266361505411028 0.409318200080946 0.5
0.032342144814016 1 28 0
0.558695872976611 1 27 0
0.0267803817216991 2 112 8 24
0.0267803817216991 1 37 24
0.0267803817216991 2 113 29 51
0.0267803817216991 2 114 29 52
0.0267803817216991 2 115 12 11
0.0267803817216991 2 116 12 0
0 0

0101101
*
Ve
1e-07
0.365922862874353 0.30192289668493 0.365333840984186
-0.24705551542208 1 33 0
-0.305517261454373 1 25 0
0.134666159015814 1 26 0
0.134666159015814 2 70 9 0
0.134666159015814 2 71 8 20
0 0

0101101
*
Ve
1e-07
0.265923700156554 0.302332110246699 0.365333840984186
-0.205517261454373 1 25 0
-0.134666159015814 1 24 0
0.106435017648441 2 117 8 24
0.106435017648441 1 38 24
0.106435017648441 2 118 30 51
0.106435017648441 2 119 30 52
0.106435017648441 2 120 11 11
0.106435017648441 2 121 11 0
0 0

0101101
*
Ve
1e-07
0.265923700156554 0.302332110246699 0.5
0.451708887359376 1 27 0
0 1 24 0
0.437859406268389 1 23 0
0.437859406268389 2 64 8 23
0.437859406268389 2 65 8 20
0 0

0101101
*
Ve
1e-07
-0.347560988039506 -0.295162429925261 0
0 0

0101101
*
Ve
1e-07
0.363467581503738 -0.298072079621864 0
0 0

0101101
*
Ve
1e-07
0.365922862874353 0.30192289668493 -0.185154530830422
0.9 1 19 0
0.685154530830422 1 26 0
0.376691458260537 2 48 8 20
0.376691458260537 1 18 20
0.376691458260537 2 49 6 2
0.376691458260537 2 50 6 0
0 0

0101101
*
Ve
1e-07
0.363467581503738 -0.298072079621864 -0.185154530830422
0.587397445836548 1 17 0
0.3 1 19 0
0.685154530830422 1 20 0
0.685154530830422 2 53 7 0
0.685154530830422 2 54 9 0
0 0

0101101
*
Ve
1e-07
-0.493740261538457 -0.784698357685747 0
0 0

0101101
*
Ve
1e-07
-0.643739005615155 -0.784084537343093 0
0 0

0101101
*
Ve
1e-07
-0.494563367602437 -0.985840071733804 0
0 0

0101101
*
Ve
1e-07
-0.644562111679135 -0.98522625139115 0
0 0

0101101
*
Ve
1e-07
-0.00210948049174818 0.303428947555578 0.5
-0.751708887359376 1 8 0
0.169823981407183 1 23 0
-0.827852225345779 2 13 8 20
-0.827852225345779 1 7 20
-0.827852225345779 2 14 1 2
-0.827852225345779 2 15 1 0
0 0

0101101
*
Ve
1e-07
-0.00456476186236304 -0.296566028751217 0.5
-0.415309869162302 1 6 0
-0.151708887359376 1 8 0
0.34299909804754 2 55 8 23
0.34299909804754 1 21 23
0.34299909804754 2 56 19 47
0.34299909804754 2 57 19 48
0.34299909804754 2 58 20 47
0.34299909804754 2 59 20 49
0.34299909804754 2 60 7 0
0.34299909804754 2 61 7 50
0 0

0101101
*
Ve
1e-07
0.337886624093222 -0.633607461699295 0
0 0

0101101
*
Ve
1e-07
-0.00967719301084605 -0.296545107814454 -0.133607461699295
0.218318218055237 1 6 0
0.210705987576011 1 17 0
0.6 1 5 0
0.6 2 9 1 0
0.6 2 10 6 0
0 0

0101101
*
Ve
1e-07
-0.00650473505761182 -0.111858185906169 0.165898912024327
-0.292784420735134 1 3 0
0.245262517720249 1 4 0
0.1 1 15 0
0.1 2 39 4 0
0.1 2 40 5 0
0 0

0101101
*
Ve
1e-07
-0.00529698133426232 -0.112476953721684 0.315892773423167
0.395262517720249 1 4 0
0.292784420735134 1 2 0
0.1 1 12 0
0.1 2 27 5 0
0.1 2 28 3 0
0 0

0101101
*
Ve
1e-07
-0.00567499465027303 0.0892818168410554 0.166721991295005
-0.170735913893798 1 1 0
-0.493927818921063 1 3 0
0.1 1 11 0
0.1 2 25 2 0
0.1 2 26 4 0
0 0

0101101
*
Ve
1e-07
-0.00446724092692351 0.0886630490255401 0.316715852693844
-0.320735913893798 1 1 0
0.493927818921063 1 2 0
0.1 1 9 0
0.1 2 18 2 0
0.1 2 19 3 0
0 0

0101101
*
Ed
 1e-07 1 1 0
1  40 0 0 1
2  124 14 0 0 1
2  125 13 0 0 1
4 G1 14 0 13 0
0

0101000
+106 23 -106 22 *
Ed
 1e-07 1 1 0
1  39 0 0.1 0.2
2  122 12 0 0.1 0.2
2  123 11 0 0.1 0.2
0

0101000
+107 0 -108 24 *
Ed
 1e-07 1 1 0
2  117 8 0 0 0.106435017648441
1  38 0 0 0.106435017648441
2  118 30 42 0 0.106435017648441
2  119 30 44 0 0.106435017648441
2  120 11 45 0 0.106435017648441
2  121 11 46 0 0.106435017648441
0

0101000
-100 46 +108 0 *
Ed
 1e-07 1 1 0
2  112 8 0 0.0267803817216991 0.161883218456206
1  37 0 0.0267803817216991 0.161883218456206
2  113 29 42 0.0267803817216991 0.161883218456206
2  114 29 44 0.0267803817216991 0.161883218456206
2  115 12 45 0.0267803817216991 0.161883218456206
2  116 12 46 0.0267803817216991 0.161883218456206
0

0101000
+102 46 -108 0 *
Ed
 1e-07 1 1 0
1  36 0 0 1
2  110 10 0 0 1
2  111 14 0 0 1
4 G1 10 0 14 0
0

0101000
+105 23 -105 22 *
Ed
 1e-07 1 1 0
1  35 0 0 1
2  108 9 0 0 1
2  109 13 0 0 1
0

0101000
+104 23 -104 22 *
Ed
 1e-07 1 1 0
2  76 8 0 0 1
1  29 0 0 1
2  77 21 34 0 1
2  78 21 36 0 1
2  79 22 34 0 1
2  80 22 38 0 1
2  81 9 39 0 1
2  82 9 40 0 1
0

0101000
+97 0 -104 0 *
Ed
 1e-07 1 1 0
1  34 0 0.0119436475483052 0.147046484282812
2  106 9 0 0.0119436475483052 0.147046484282812
2  107 12 0 0.0119436475483052 0.147046484282812
0

0101000
+103 0 -107 0 *
Ed
 1e-07 1 1 0
1  33 0 -0.353490533070521 -0.24705551542208
2  104 9 0 -0.353490533070521 -0.24705551542208
2  105 11 0 -0.353490533070521 -0.24705551542208
0

0101000
+107 0 -101 0 *
Ed
 1e-07 1 1 0
2  97 8 0 1.56670417975626 3.13750050655116
1  32 0 1.56670417975626 3.13750050655116
2  98 27 34 1.56670417975626 3.13750050655116
2  99 27 36 1.56670417975626 3.13750050655116
2  100 28 34 1.56670417975626 3.13750050655116
2  101 28 38 1.56670417975626 3.13750050655116
2  102 14 39 1.56670417975626 3.13750050655116
2  103 14 40 1.56670417975626 3.13750050655116
0

0101100
+106 0 -105 0 *
Ed
 1e-07 1 1 0
2  90 8 0 -0.711034522908746 -0.1
1  31 0 -0.711034522908746 -0.1
2  91 25 34 -0.711034522908746 -0.1
2  92 25 36 -0.711034522908746 -0.1
2  93 26 34 -0.711034522908746 -0.1
2  94 26 38 -0.711034522908746 -0.1
2  95 13 39 -0.711034522908746 -0.1
2  96 13 40 -0.711034522908746 -0.1
0

0101000
+104 0 -106 0 *
Ed
 1e-07 1 1 0
2  83 8 0 -0.303972716122704 0.596027283877296
1  30 0 -0.303972716122704 0.596027283877296
2  84 23 34 -0.303972716122704 0.596027283877296
2  85 23 36 -0.303972716122704 0.596027283877296
2  86 24 34 -0.303972716122704 0.596027283877296
2  87 24 38 -0.303972716122704 0.596027283877296
2  88 10 39 -0.303972716122704 0.596027283877296
2  89 10 40 -0.303972716122704 0.596027283877296
0

0101000
-98 0 +105 0 *
Ed
 1e-07 1 1 0
2  76 8 0 0.706986985617234 1
1  29 0 0.706986985617234 1
2  77 21 34 0.706986985617234 1
2  78 21 36 0.706986985617234 1
2  79 22 34 0.706986985617234 1
2  80 22 38 0.706986985617234 1
2  81 9 39 0.706986985617234 1
2  82 9 40 0.706986985617234 1
0

0101000
+103 39 -104 0 *
Ed
 1e-07 1 1 0
1  28 0 0.032342144814016 0.132342144814016
2  74 8 23 0.032342144814016 0.132342144814016
2  75 12 0 0.032342144814016 0.132342144814016
0

0101000
+102 0 -103 0 *
Ed
 1e-07 1 1 0
1  27 0 0.451708887359376 0.558695872976611
2  72 8 23 0.451708887359376 0.558695872976611
2  73 8 24 0.451708887359376 0.558695872976611
0

0101000
+99 0 -102 0 *
Ed
 1e-07 1 1 0
1  26 0 0.134666159015814 0.685154530830422
2  70 9 0 0.134666159015814 0.685154530830422
2  71 8 20 0.134666159015814 0.685154530830422
0

0101000
+101 0 -96 0 *
Ed
 1e-07 1 1 0
1  25 0 -0.305517261454373 -0.205517261454373
2  68 8 20 -0.305517261454373 -0.205517261454373
2  69 11 0 -0.305517261454373 -0.205517261454373
0

0101000
+101 0 -100 0 *
Ed
 1e-07 1 1 0
1  24 0 -0.134666159015814 0
2  66 8 20 -0.134666159015814 0
2  67 8 24 -0.134666159015814 0
0

0101000
+100 0 -99 0 *
Ed
 1e-07 1 1 0
1  23 0 0.169823981407183 0.437859406268389
2  64 8 23 0.169823981407183 0.437859406268389
2  65 8 20 0.169823981407183 0.437859406268389
0

0101000
-99 0 +90 0 *
Ed
 1e-07 1 1 0
2  55 8 0 0 0.34299909804754
1  21 0 0 0.34299909804754
2  56 19 34 0 0.34299909804754
2  57 19 36 0 0.34299909804754
2  58 20 34 0 0.34299909804754
2  59 20 38 0 0.34299909804754
2  60 7 39 0 0.34299909804754
2  61 7 40 0 0.34299909804754
0

0101000
-89 39 +98 0 *
Ed
 1e-07 1 1 0
1  22 0 0 1
2  62 7 0 0 1
2  63 10 0 0 1
0

0101000
+98 23 -98 22 *
Ed
 1e-07 1 1 0
2  55 8 0 0 0.711034522908746
1  21 0 0 0.711034522908746
2  56 19 34 0 0.711034522908746
2  57 19 36 0 0.711034522908746
2  58 20 34 0 0.711034522908746
2  59 20 38 0 0.711034522908746
2  60 7 39 0 0.711034522908746
2  61 7 40 0 0.711034522908746
0

0101000
+98 0 -97 0 *
Ed
 1e-07 1 1 0
1  20 0 0.685154530830422 1
2  53 7 0 0.685154530830422 1
2  54 9 0 0.685154530830422 1
0

0101000
+95 0 -97 22 *
Ed
 1e-07 1 1 0
1  19 0 0.3 0.9
2  51 9 0 0.3 0.9
2  52 6 0 0.3 0.9
0

0101000
+95 0 -96 0 *
Ed
 1e-07 1 1 0
2  48 8 0 5.49889544573851e-17 0.376691458260537
1  18 0 5.49889544573851e-17 0.376691458260537
2  49 6 25 5.49889544573851e-17 0.376691458260537
2  50 6 26 5.49889544573851e-17 0.376691458260537
0

0101000
-96 26 +88 0 *
Ed
 1e-07 1 1 0
1  17 0 0.210705987576011 0.587397445836548
2  46 7 0 0.210705987576011 0.587397445836548
2  47 6 0 0.210705987576011 0.587397445836548
0

0101000
+87 0 -95 0 *
Ed
 1e-07 1 1 0
2  41 8 0 0 0.15
1  16 0 0 0.15
2  42 18 28 0 0.15
2  43 18 30 0 0.15
2  44 5 31 0 0.15
2  45 5 32 0 0.15
0

0101000
+94 0 -93 0 *
Ed
 1e-07 1 1 0
1  15 0 0.1 0.2
2  39 4 0 0.1 0.2
2  40 5 0 0.1 0.2
0

0101000
+86 0 -94 21 *
Ed
 1e-07 1 1 0
2  34 8 0 0 0.201143398185928
1  14 0 0 0.201143398185928
2  35 17 28 0 0.201143398185928
2  36 17 30 0 0.201143398185928
2  37 4 31 0 0.201143398185928
2  38 4 32 0 0.201143398185928
0

0101000
+92 0 -94 0 *
Ed
 1e-07 1 1 0
2  29 8 0 -0.201143398185928 -0
1  13 0 -0.201143398185928 -0
2  30 16 28 -0.201143398185928 -0
2  31 16 30 -0.201143398185928 -0
2  32 3 31 -0.201143398185928 -0
2  33 3 32 -0.201143398185928 -0
0

0101000
+93 0 -91 0 *
Ed
 1e-07 1 1 0
1  12 0 0.1 0.2
2  27 5 0 0.1 0.2
2  28 3 0 0.1 0.2
0

0101000
+85 0 -93 21 *
Ed
 1e-07 1 1 0
1  11 0 0.1 0.2
2  25 2 0 0.1 0.2
2  26 4 0 0.1 0.2
0

0101000
+84 0 -92 21 *
Ed
 1e-07 1 1 0
2  20 8 0 -0.00094679234709794 0.149053207652902
1  10 0 -0.00094679234709794 0.149053207652902
2  21 15 28 -0.00094679234709794 0.149053207652902
2  22 15 30 -0.00094679234709794 0.149053207652902
2  23 2 31 -0.00094679234709794 0.149053207652902
2  24 2 32 -0.00094679234709794 0.149053207652902
0

0101000
+91 0 -92 0 *
Ed
 1e-07 1 1 0
1  9 0 0.1 0.2
2  18 2 0 0.1 0.2
2  19 3 0 0.1 0.2
0

0101000
+83 0 -91 21 *
Ed
 1e-07 1 1 0
1  8 0 -0.751708887359376 -0.151708887359376
2  16 8 23 -0.751708887359376 -0.151708887359376
2  17 1 0 -0.751708887359376 -0.151708887359376
0

0101000
+90 0 -89 0 *
Ed
 1e-07 1 1 0
2  13 8 0 -0.827852225345779 -0.19422413812824
1  7 0 -0.827852225345779 -0.19422413812824
2  14 1 25 -0.827852225345779 -0.19422413812824
2  15 1 26 -0.827852225345779 -0.19422413812824
0

0101000
+90 26 -88 0 *
Ed
 1e-07 1 1 0
1  6 0 -0.415309869162302 0.218318218055237
2  11 7 0 -0.415309869162302 0.218318218055237
2  12 1 0 -0.415309869162302 0.218318218055237
0

0101000
+89 0 -87 0 *
Ed
 1e-07 1 1 0
1  5 0 0.6 1.2
2  9 1 0 0.6 1.2
2  10 6 0 0.6 1.2
0

0101000
+87 0 -88 20 *
Ed
 1e-07 1 1 0
1  4 0 0.245262517720249 0.395262517720249
2  7 1 0 0.245262517720249 0.395262517720249
2  8 5 0 0.245262517720249 0.395262517720249
0

0101000
+86 0 -85 0 *
Ed
 1e-07 1 1 0
1  3 0 -0.493927818921063 -0.292784420735134
2  5 1 0 -0.493927818921063 -0.292784420735134
2  6 4 0 -0.493927818921063 -0.292784420735134
0

0101000
+84 0 -86 0 *
Ed
 1e-07 1 1 0
1  2 0 0.292784420735134 0.493927818921063
2  3 1 0 0.292784420735134 0.493927818921063
2  4 3 0 0.292784420735134 0.493927818921063
0

0101000
+85 0 -83 0 *
Ed
 1e-07 1 1 0
1  1 0 -0.320735913893798 -0.170735913893798
2  1 1 0 -0.320735913893798 -0.170735913893798
2  2 2 0 -0.320735913893798 -0.170735913893798
0

0101000
+83 0 -84 0 *
Wi

0101000
+82 0 -78 0 -73 23 +73 22 *
Wi

0101000
+77 0 -82 0 -72 23 +72 22 *
Wi

0101000
-81 0 -75 0 +79 24 -69 0 *
Wi

0101000
+81 0 -74 0 +80 24 -66 0 *
Wi

0101000
-79 24 -68 0 -80 24 -65 0 *
Wi

0101000
-62 0 +78 0 -71 23 +71 22 *
Wi

0101000
+61 0 +76 0 +71 0 +73 0 +72 0 *
Wi

0101000
+67 0 +74 0 -59 0 +75 0 +60 0 -70 23 +76 22 -77 0 *
Wi

0101000
+50 0 +54 0 +56 0 +53 0 *
Wi

0101000
+64 0 +68 0 -48 0 +69 0 +63 23 +70 23 +71 23 +72 23 +73 23 *
Wi

0101000
-64 0 +65 0 +47 20 +66 0 +58 20 -67 0 *
Wi

0101000
-60 0 -57 0 +61 22 -46 0 +62 0 -63 23 *
Wi

0101000
+45 0 -57 0 +58 20 -59 0 *
Wi

0101000
+55 0 -44 0 +56 21 -52 0 *
Wi

0101000
+51 0 -43 0 +54 21 -55 0 *
Wi

0101000
+52 0 -42 0 +53 21 -49 0 *
Wi

0101000
+49 0 -41 0 +50 21 -51 0 *
Wi

0101000
-45 0 -46 0 +47 20 -48 0 *
Wi

0101000
-41 0 -42 0 -43 0 -44 0 *
Fa
0  1e-07 14 0

0101000
+40 0 *
Fa
0  1e-07 13 0

0101000
+39 0 *
Fa
0  1e-07 12 0

0101000
+38 0 *
Fa
0  1e-07 11 0

0101000
+37 0 *
Fa
0  1e-07 8 18

0101000
+36 19 *
Fa
0  1e-07 10 0

0101000
+35 0 *
Fa
0  1e-07 8 15

0101000
+34 15 *
Fa
0  1e-07 9 0

0101000
+33 0 *
Fa
0  1e-07 8 17

0101000
+32 17 *
Fa
0  1e-07 8 15

0101000
+31 16 *
Fa
0  1e-07 8 13

0101000
+30 14 *
Fa
0  1e-07 7 0

0101000
+29 0 *
Fa
0  1e-07 6 0

0101000
+28 0 *
Fa
0  1e-07 5 0

0101000
+27 0 *
Fa
0  1e-07 4 0

0101000
+26 0 *
Fa
0  1e-07 3 0

0101000
+25 0 *
Fa
0  1e-07 2 0

0101000
+24 0 *
Fa
0  1e-07 1 0

0101000
+22 0 +23 0 *
Sh

0101100
-4 0 +5 0 +6 0 +7 0 +8 0 -9 0 +10 0 +11 3 +12 4 -13 7 
+14 0 -15 9 +16 0 +17 12 +18 0 +19 0 +20 0 +21 0 *
So

0100000
+3 0 *
Co

1100000
+2 0 *

+1 0 
