DBRep_DrawableShape

CASCADE Topology V1, (c) Matra-Datavision
Locations 2
1
              1               0               0               0 
              0               1               0               0 
              0               0               1               0 
1
              1               0               0               0 
              0               1               0               0 
              0               0               1               0 
Curve2ds 4
1 0 0 0 1 
1 0 0 1 0 
1 1 0 0 1 
1 0 1 1 0 
Curves 5
7 0 0  1 2 2  0 0 130  0 90 130 
 0 2 1 2
7 0 0  1 2 2  0 0 130  90 0 130 
 0 2 1 2
7 0 0  1 2 2  90 0 130  90 90 130 
 0 2 1 2
7 0 0  1 2 2  0 90 130  90 90 130 
 0 2 1 2
7 0 0  3 9 7  -60 0 0  -57.991304102199997 10.614853757600001 0  -53.973912306599999 31.844561272899998 0  -13.324050937000001 48.591096414299997 0  12.5333246623 10.313955566800001 0  52.497277087199997 25.6062943696 0  66.386728128000001 55.871376871899997 0  55.812999355400002 69.195264156899995 0  52 74 0 
 0 4 31.016124838500001 1 62.032249677099998 1 105.44883636900001 1 139.286685001 1 170.30280983899999 1 187.79566552399999 4
Polygon3D 0
PolygonOnTriangulations 0
Surfaces 1
9 0 0 0 0 1 1 2 2 2 2 0 0 130  0 90 130  
90 0 130  90 90 130  

0 2
1 2

0 2
1 2

Triangulations 0

TShapes 17
Ve
1e-07
0 0 130
0 0

0101101
*
Ve
1e-07
0 90 130
0 0

0101101
*
Ed
 1e-07 1 1 0
1  1 0 0 1
2  1 1 0 0 1
0

0101000
+17 0 -16 0 *
Ve
1e-07
90 0 130
0 0

0101101
*
Ed
 1e-07 1 1 0
1  2 0 0 1
2  2 1 0 0 1
0

0101000
+17 0 -14 0 *
Ve
1e-07
90 90 130
0 0

0101101
*
Ed
 1e-07 1 1 0
1  3 0 0 1
2  3 1 0 0 1
0

0101000
+14 0 -12 0 *
Ed
 1e-07 1 1 0
1  4 0 0 1
2  4 1 0 0 1
0

0101000
+16 0 -12 0 *
Wi

0101100
-15 0 +13 0 +11 0 -10 0 *
Fa
0  1e-07 1 0

0111000
+9 0 *
Sh

0101000
+8 0 *
Co

0100000
+7 0 *
Ve
1e-07
-60 0 0
0 0

0101101
*
Ve
1e-07
52 74 0
0 0

0101101
*
Ed
 1e-07 1 1 0
1  5 0 0 187.795665524
0

0101000
+5 0 -4 0 *
Co

0100000
+3 0 *
Co

1100000
+6 1 +2 2 *

+1 0 
0

