DBRep_DrawableShape

CASCADE Topology V1, (c) Matra-Datavision
Locations 2
1
              1               0               0               0 
              0               1               0               0 
              0               0               1              60 
2  1 -1 0
Curve2ds 24
1 0 0 0 1 
1 19.999999999999996 0 0 -1 
1 0 0 0 1 
1 25.000000000000004 0 0 -1 
1 -4.7123889803846897 0 1 0 
2 10.000000000000007 20 0 -1 -1 -0 20
1 -1.5707963267948966 0 1 0 
2 45 25 0 -1 -1 -0 15
1 -3.1415926535897931 0 1 0 
2 55.000000000000014 20 0 -1 -1 -0 20
1 1.5707963267948963 0 0 1 
1 10.000000000000011 0 0 -1 
1 -4.7123889803846897 60 1 0 
2 10.000000000000007 20 0 -1 -1 -0 20
1 1.5707963267948963 0 0 1 
1 14.999999999999996 0 0 -1 
1 -1.5707963267948966 60 1 0 
2 45 25 0 -1 -1 -0 15
1 -3.1415926535897931 60 1 0 
2 55.000000000000014 20 0 -1 -1 -0 20
1 0 0 0 1 
1 25.000000000000011 0 0 -1 
1 1.5707963267948968 0 0 1 
1 20.000000000000007 0 0 -1 
Curves 25
1 30 0 0 1.2246467991473532e-16 1 0 
1 30.000000000000007 19.999999999999996 0 0 0 1 
1 30 25.000000000000004 0 0 0 1 
8 4.7123889803846897 6.2831853071795862
2 10.000000000000007 20 0 -0 -0 -1 0 -1 0 -1 0 0 20
8 1.5707963267948966 3.1415926535897931
2 45 25 0 -0 -0 -1 0 -1 0 -1 0 0 15
1 0 0 0 1 0 0 
1 29.900146484375 40 0 1 0 0 
1 0 58.910888671875 0 0 -1 -0 
8 3.1415926535897931 4.7123889803846897
2 55.000000000000014 20 0 -0 -0 -1 0 -1 0 -1 0 0 20
1 108.22705078125 60 0 -1 1.2246467991473532e-16 0 
1 75.000000000000014 38.518310546875 0 -2.4492935982947064e-16 -1 0 
1 104.99999999999999 7.9039948198875589e-16 0 3.6739403974420594e-16 1 0 
1 76.573486328125 0 0 1 0 0 
1 10.000000000000011 0 0 0 0 1 
8 4.7123889803846897 6.2831853071795862
2 10.000000000000007 20 60 -0 -0 -1 0 -1 0 -1 0 0 20
1 45 40 0 0 0 1 
8 1.5707963267948966 3.1415926535897931
2 45 25 60 -0 -0 -1 0 -1 0 -1 0 0 15
8 3.1415926535897931 4.7123889803846897
2 55.000000000000014 20 60 -0 -0 -1 0 -1 0 -1 0 0 20
1 0 0 0 0 0 1 
1 55.000000000000014 40 0 0 0 1 
1 0 60.000000000000014 0 0 0 1 
1 75.000000000000014 19.999999999999996 0 0 0 1 
1 105.00000000000001 60 0 0 0 1 
1 75 0 0 0 0 1 
1 105 0 0 0 0 1 
Polygon3D 0
PolygonOnTriangulations 103
2 1 2 
p 2.00000008 1 20 25 
2 1 2 
p 5.40000003800001 1 20 25 
2 1 3 
p 6.00000002 1 -0 60 
2 1 6 
p 6.8500000095 1 -0 60 
2 2 4 
p 6.00000002 1 -0 60 
2 1 5 
p 7.00000001 1 -0 60 
2 2 4 
p 7.00000001 1 -0 60 
2 3 4 
p 2.00000008 1 20 25 
2 1 2 
p 5.40000003800001 1 20 25 
5 1 3 4 5 2 
p 6.00000002 1 4.71238898038469 5.10508806208341 5.49778714378214 5.89048622548086 6.28318530717959 
4 2 7 8 6 
p 6.49435328175437 1 1.5707963267949 2.0943951023932 2.61799387799149 3.14159265358979 
4 1 2 3 4 
p 6.00000002 1 1.5707963267949 2.0943951023932 2.61799387799149 3.14159265358979 
4 2 6 7 8 
p 10.50000002 1 1.5707963267949 2.0943951023932 2.61799387799149 3.14159265358979 
2 9 3 
p 4.00000008 1 0 10 
2 1 2 
p 6.00000002 1 0 10 
2 6 10 
p 4.00000008000001 1 15.099853515625 25.099853515625 
2 1 2 
p 6.00000002 1 15.099853515625 25.099853515625 
2 8 10 
p 10.50000002 1 15.099853515625 25.099853515625 
2 1 3 
p 6.00000002 1 -1.08911132812501 58.910888671875 
2 2 4 
p 6.00000002 1 -1.08911132812501 58.910888671875 
2 8 1 
p 10.50000002 1 -1.08911132812501 58.910888671875 
2 8 6 
p 10.50000002 1 -1.08911132812501 58.910888671875 
2 9 7 
p 10.50000002 1 -1.08911132812501 58.910888671875 
2 12 10 
p 10.50000002 1 -1.08911132812501 58.910888671875 
2 12 10 
p 10.50000002 1 -1.08911132812501 58.910888671875 
2 11 9 
p 10.50000002 1 -1.08911132812501 58.910888671875 
2 11 9 
p 10.50000002 1 -1.08911132812501 58.910888671875 
2 11 9 
p 10.50000002 1 -1.08911132812501 58.910888671875 
2 12 10 
p 10.50000002 1 -1.08911132812501 58.910888671875 
5 1 3 4 5 2 
p 6.00000002 1 3.14159265358979 3.53429173528852 3.92699081698724 4.31968989868597 4.71238898038469 
5 10 12 13 14 15 
p 10.50000002 1 3.14159265358979 3.53429173528852 3.92699081698724 4.31968989868597 4.71238898038469 
2 7 8 
p 10.50000002 1 3.22705078124999 108.22705078125 
2 1 3 
p 12.600000004 1 3.22705078124999 108.22705078125 
2 2 4 
p 12.600000004 1 3.22705078124999 108.22705078125 
2 7 8 
p 12.600000004 1 3.22705078124999 108.22705078125 
2 12 8 
p 12.600000004 1 3.22705078124999 108.22705078125 
2 13 9 
p 12.600000004 1 3.22705078124999 108.22705078125 
2 17 12 
p 12.600000004 1 3.22705078124999 108.22705078125 
2 17 12 
p 12.600000004 1 3.22705078124999 108.22705078125 
2 15 11 
p 12.600000004 1 3.22705078124999 108.22705078125 
2 15 11 
p 12.600000004 1 3.22705078124999 108.22705078125 
2 16 11 
p 12.600000004 1 3.22705078124999 108.22705078125 
2 17 12 
p 12.600000004 1 3.22705078124999 108.22705078125 
2 1 2 
p 6.00000002 1 18.518310546875 38.518310546875 
2 15 17 
p 10.50000002 1 18.518310546875 38.518310546875 
2 1 3 
p 6.00000002 1 -7.90399481988751e-16 60 
2 2 4 
p 6.00000002 1 -7.90399481988751e-16 60 
2 6 7 
p 10.50000002 1 -7.90399481988751e-16 60 
2 14 12 
p 10.50000002 1 -7.90399481988751e-16 60 
2 15 13 
p 10.50000002 1 -7.90399481988751e-16 60 
2 19 17 
p 10.50000002 1 -7.90399481988751e-16 60 
2 19 17 
p 10.50000002 1 -7.90399481988751e-16 60 
2 17 15 
p 10.50000002 1 -7.90399481988751e-16 60 
2 17 15 
p 10.50000002 1 -7.90399481988751e-16 60 
2 18 16 
p 10.50000002 1 -7.90399481988751e-16 60 
2 19 17 
p 10.50000002 1 -7.90399481988751e-16 60 
2 2 4 
p 6.00000002 1 -1.573486328125 28.426513671875 
2 1 3 
p 6.00000002 1 -1.573486328125 28.426513671875 
2 5 6 
p 10.50000002 1 -1.573486328125 28.426513671875 
2 13 14 
p 10.50000002 1 -1.573486328125 28.426513671875 
2 14 15 
p 10.50000002 1 -1.573486328125 28.426513671875 
2 18 19 
p 10.50000002 1 -1.573486328125 28.426513671875 
2 18 19 
p 10.50000002 1 -1.573486328125 28.426513671875 
2 16 17 
p 10.50000002 1 -1.573486328125 28.426513671875 
2 16 17 
p 10.50000002 1 -1.573486328125 28.426513671875 
2 17 18 
p 10.50000002 1 -1.573486328125 28.426513671875 
2 18 19 
p 10.50000002 1 -1.573486328125 28.426513671875 
5 2 8 9 10 7 
p 6.00000002 1 -0 15 30 45 60 
5 2 3 4 5 6 
p 7.242500003475 1 -0 15 30 45 60 
5 6 11 12 13 7 
p 6.00000002 1 4.71238898038469 5.10508806208341 5.49778714378214 5.89048622548086 6.28318530717959 
5 1 3 4 5 6 
p 10.50000002 1 4.71238898038469 5.10508806208341 5.49778714378214 5.89048622548086 6.28318530717959 
5 4 7 8 9 6 
p 6.00000002 1 -0 15 30 45 60 
5 1 3 4 5 6 
p 7.2500000035 1 -0 15 30 45 60 
4 5 10 11 6 
p 6.00000002 1 1.5707963267949 2.0943951023932 2.61799387799149 3.14159265358979 
4 2 6 7 8 
p 10.50000002 1 1.5707963267949 2.0943951023932 2.61799387799149 3.14159265358979 
4 2 7 8 9 
p 10.50000002 1 1.5707963267949 2.0943951023932 2.61799387799149 3.14159265358979 
2 10 6 
p 4.00000008 1 0 10 
2 7 6 
p 6.00000002 1 0 10 
2 8 10 
p 4.00000008000001 1 15.099853515625 25.099853515625 
2 6 7 
p 6.00000002 1 15.099853515625 25.099853515625 
2 9 11 
p 10.50000002 1 15.099853515625 25.099853515625 
5 6 11 12 13 7 
p 6.00000002 1 3.14159265358979 3.53429173528852 3.92699081698724 4.31968989868597 4.71238898038469 
5 11 13 14 15 16 
p 10.50000002 1 3.14159265358979 3.53429173528852 3.92699081698724 4.31968989868597 4.71238898038469 
2 6 7 
p 6.00000002 1 18.518310546875 38.518310546875 
2 16 18 
p 10.50000002 1 18.518310546875 38.518310546875 
2 1 2 
p 6.00000002 1 0 60 
2 3 4 
p 7.200000004 1 0 60 
2 1 7 
p 7.200000004 1 0 60 
2 1 7 
p 7.200000004 1 0 60 
2 1 7 
p 7.200000004 1 0 60 
2 2 7 
p 6.00000002 1 -0 60 
2 1 6 
p 7.262500003175 1 -0 60 
2 1 2 
p 6.00000002 1 0 60 
5 2 8 9 10 7 
p 6.00000002 1 -0 15 30 45 60 
5 1 3 4 5 6 
p 7.26312500315875 1 -0 15 30 45 60 
2 3 4 
p 6.00000002 1 0 60 
2 1 2 
p 10.50000002 1 0 60 
2 3 4 
p 6.00000002 1 0 60 
2 1 2 
p 7.263150003158 1 0 60 
2 2 7 
p 7.263150003158 1 0 60 
2 2 7 
p 7.263150003158 1 0 60 
2 3 4 
p 6.00000002 1 0 60 
2 1 2 
p 7.2631575031579 1 0 60 
Surfaces 12
1 30 0 0 -1 1.2246467991473532e-16 0 1.2246467991473532e-16 1 0 0 0 -1 
2 10.000000000000007 20 0 0 0 1 1 -1.2246467991473532e-16 0 -1.2246467991473532e-16 -1 0 20
2 45 25 0 0 0 1 -1 1.2246467991473532e-16 0 1.2246467991473532e-16 1 -0 15
1 0 0 -0 0 0 1 1 0 -0 -0 1 0 
2 55.000000000000014 20 0 0 0 1 -0 1 0 1 0 -0 20
1 0 0 0 0 1 0 1 0 0 0 0 -1 
1 30.000000000000004 40 0 0 1 0 1 0 0 0 0 -1 
1 0 60.000000000000014 0 1 0 -0 0 -1 0 0 -0 -1 
1 75.000000000000014 40 0 1 -2.4492935982947064e-16 0 -2.4492935982947064e-16 -1 0 0 -0 -1 
1 105.00000000000001 60 0 -1.2246467991473532e-16 -1 0 -1 1.2246467991473532e-16 0 -0 0 -1 
1 104.99999999999999 5.2262034970892032e-30 0 -1 3.6739403974420594e-16 0 3.6739403974420594e-16 1 0 0 0 -1 
1 75 0 0 0 1 0 1 0 0 0 0 -1 
Triangulations 27
4 2 1 4.2500000475
30 20 0 30 25 0 30 20 60 30 25 60 20 0 25 0 20 -60 25 -60 1 3 4 4 2 1 
18 16 1 9.46901254039447
30 20 0 30 25 0 10 0 0 27.3205080756888 10 0 20 2.67949192431122 0 32.0096189432334 32.5 0 37.5 37.9903810567666 0 45 40 0 0 0 0 55 40 0 0 60 0 62.6536686473018 38.4775906502257 0 69.142135623731 34.142135623731 0 73.4775906502257 27.6536686473018 0 75 20 0 105 60 0 75 0 0 105 0 0 30 20 30 25 10 0 27.3205080756888 10 20 2.67949192431122 32.0096189432334 32.5 37.5 37.9903810567666 45 40 0 0 55 40 0 60 62.6536686473018 38.4775906502257 69.142135623731 34.142135623731 73.4775906502257 27.6536686473018 75 20 105 60 75 0 105 0 2 9 3 5 4 3 1 3 4 11 2 6 11 9 2 6 7 11 3 1 2 11 7 8 15 18 14 18 15 17 14 18 16 10 16 11 12 13 16 16 13 14 12 16 10 10 11 8 
13 11 1 6.212500017375
30 20 0 10 0 0 28.4775906502257 12.3463313526982 0 24.1421356237309 5.85786437626904 0 17.6536686473018 1.52240934977426 0 30 20 60 10 0 60 10 0 15 10 0 30 10 0 45 28.4775906502257 12.3463313526982 60 24.1421356237309 5.85786437626904 60 17.6536686473018 1.52240934977426 60 0 0 1.5707963267949 0 0.392699081698725 0 0.785398163397449 0 1.17809724509617 0 0 60 1.5707963267949 60 1.5707963267949 15 1.5707963267949 30 1.5707963267949 45 0.392699081698725 60 0.785398163397449 60 1.17809724509617 60 1 3 11 3 4 12 11 6 1 12 11 3 4 5 12 5 2 8 5 8 9 13 9 10 9 13 5 10 7 13 5 13 12 
4 2 1 5.00000005
30 15 0 30 25 0 30 15 60 30 25 60 15 0 25 0 15 -60 25 -60 1 3 4 4 2 1 
11 9 1 6.2500000175
30 25 0 32.0096189432334 32.5 0 37.5 37.9903810567666 0 45 40 0 30 25 60 45 40 60 45 40 15 45 40 30 45 40 45 32.0096189432334 32.5 60 37.5 37.9903810567666 60 0 0 0.523598775598299 0 1.0471975511966 0 1.5707963267949 0 0 60 1.5707963267949 60 1.5707963267949 15 1.5707963267949 30 1.5707963267949 45 0.523598775598299 60 1.0471975511966 60 1 2 10 1 10 5 10 2 3 10 3 11 8 3 7 8 11 3 11 9 6 9 11 8 7 3 4 
19 17 1 9.636363662
30 20 0 30 25 0 28.4775906502257 12.3463313526982 0 24.1421356237309 5.85786437626904 0 17.6536686473018 1.52240934977426 0 10 0 0 32.0096189432334 32.5 0 37.5 37.9903810567666 0 45 40 0 0 0 0 55 40 0 0 60 0 62.6536686473018 38.4775906502257 0 69.142135623731 34.142135623731 0 73.4775906502257 27.6536686473018 0 75 20 0 105 60 0 75 0 0 105 0 0 30 20 30 25 28.4775906502257 12.3463313526982 24.1421356237309 5.85786437626904 17.6536686473018 1.52240934977426 10 0 32.0096189432334 32.5 37.5 37.9903810567666 45 40 0 0 55 40 0 60 62.6536686473018 38.4775906502257 69.142135623731 34.142135623731 73.4775906502257 27.6536686473018 75 20 105 60 75 0 105 0 2 10 6 6 5 3 4 3 5 10 2 12 6 3 1 2 6 1 2 7 12 12 7 8 17 14 15 18 19 16 16 19 15 17 15 19 11 12 9 11 13 17 17 13 14 17 12 11 9 12 8 
17 15 1 8.34071314453163
30 15 0 30 25 0 15 -1.77635683940025e-15 0 27.9903810567666 7.5 0 22.5 2.00961894323342 0 45 40 0 32.0096189432334 32.5 0 37.5 37.9903810567666 0 0 0 0 55 40 0 0 60 0 75 20 0 65 37.3205080756888 0 72.3205080756888 30 0 105 60 0 75 0 0 105 0 0 30 15 30 25 15 -1.77635683940025e-15 27.9903810567666 7.5 22.5 2.00961894323342 45 40 32.0096189432334 32.5 37.5 37.9903810567666 0 0 55 40 0 60 75 20 65 37.3205080756888 72.3205080756888 30 105 60 75 0 105 0 2 9 3 5 4 3 1 3 4 11 2 7 11 9 2 3 1 2 11 7 8 14 12 15 17 12 16 15 12 17 10 11 6 10 13 15 15 13 14 15 11 10 6 11 8 
7 5 1 6.61062501186875
0 0 0 10 0 0 10 0 15 10 0 30 10 0 45 10 0 60 0 0 60 0 0 10 0 10 -15 10 -30 10 -45 10 -60 0 -60 1 7 4 5 7 6 5 4 7 3 2 1 4 3 1 
7 5 1 6.312500015875
45 40 0 55 40 0 45 40 15 45 40 30 45 40 45 45 40 60 55 40 60 15 0 25 0 15 -15 15 -30 15 -45 15 -60 25 -60 5 6 7 4 5 7 4 2 3 2 4 7 2 1 3 
4 2 1 6.300000016
0 60 0 0 60 60 0 0 0 0 0 60 0 0 0 -60 60 0 60 -60 1 2 4 4 3 1 
8 6 1 10.762500018
0 0 0 30 0 0 30 40 0 75 40 0 75 0 0 105 0 0 105 60 0 0 60 0 0 0 30 0 30 40 75 40 75 0 105 0 105 60 0 60 1 2 3 8 3 4 3 8 1 5 6 4 4 7 8 7 4 6 
14 12 1 9.24182756286783
30 0 0 30 20 0 50 40 0 32.6794919243112 30 0 40 37.3205080756888 0 0 0 0 55 40 0 0 60 0 75 20 0 65 37.3205080756888 0 72.3205080756888 30 0 105 60 0 75 0 0 105 0 0 30 0 30 20 50 40 32.6794919243112 30 40 37.3205080756888 0 0 55 40 0 60 75 20 65 37.3205080756888 72.3205080756888 30 105 60 75 0 105 0 6 1 2 6 2 8 8 4 5 4 8 2 5 3 8 8 3 7 13 14 9 9 14 12 7 10 12 11 12 10 12 11 9 7 12 8 
15 13 1 9.42591379663392
30 0 0 30 20 0 31.5224093497743 27.6536686473018 0 35.857864376269 34.142135623731 0 42.3463313526982 38.4775906502257 0 50 40 0 0 0 0 55 40 0 0 60 0 75 20 0 65 37.3205080756888 0 72.3205080756888 30 0 105 60 0 75 0 0 105 0 0 30 0 30 20 31.5224093497743 27.6536686473018 35.857864376269 34.142135623731 42.3463313526982 38.4775906502257 50 40 0 0 55 40 0 60 75 20 65 37.3205080756888 72.3205080756888 30 105 60 75 0 105 0 7 1 2 7 2 3 9 3 4 3 9 7 4 5 9 9 5 6 12 10 13 15 10 14 13 10 15 8 13 9 11 13 8 13 11 12 8 9 6 
19 17 1 9.3581650520626
30 15 0 30 20 0 15 -1.77635683940025e-15 0 27.9903810567666 7.5 0 22.5 2.00961894323342 0 31.5224093497743 27.6536686473018 0 35.857864376269 34.142135623731 0 42.3463313526982 38.4775906502257 0 50 40 0 0 0 0 55 40 0 0 60 0 62.6536686473018 38.4775906502257 0 69.142135623731 34.142135623731 0 73.4775906502257 27.6536686473018 0 75 20 0 105 60 0 75 0 0 105 0 0 30 15 30 20 15 -1.77635683940025e-15 27.9903810567666 7.5 22.5 2.00961894323342 31.5224093497743 27.6536686473018 35.857864376269 34.142135623731 42.3463313526982 38.4775906502257 50 40 0 0 55 40 0 60 62.6536686473018 38.4775906502257 69.142135623731 34.142135623731 73.4775906502257 27.6536686473018 75 20 105 60 75 0 105 0 2 10 3 5 4 3 1 3 4 10 6 12 10 2 6 6 7 12 3 1 2 12 7 8 17 14 15 18 19 16 16 19 15 17 15 19 11 12 9 11 13 17 17 13 14 17 12 11 9 12 8 
19 17 1 9.73570284526792
30 15 0 30 20 0 27.9903810567666 7.5 0 22.5 2.00961894323342 0 15 -1.77635683940025e-15 0 31.5224093497743 27.6536686473018 0 35.857864376269 34.142135623731 0 42.3463313526982 38.4775906502257 0 50 40 0 0 0 0 55 40 0 0 60 0 62.6536686473018 38.4775906502257 0 69.142135623731 34.142135623731 0 73.4775906502257 27.6536686473018 0 75 20 0 105 60 0 75 0 0 105 0 0 30 15 30 20 27.9903810567666 7.5 22.5 2.00961894323342 15 -1.77635683940025e-15 31.5224093497743 27.6536686473018 35.857864376269 34.142135623731 42.3463313526982 38.4775906502257 50 40 0 0 55 40 0 60 62.6536686473018 38.4775906502257 69.142135623731 34.142135623731 73.4775906502257 27.6536686473018 75 20 105 60 75 0 105 0 2 10 5 4 3 5 1 5 3 10 6 12 10 2 6 6 7 12 5 1 2 12 7 8 17 14 15 18 19 16 16 19 15 17 15 19 11 12 9 11 13 17 17 13 14 17 12 11 9 12 8 
17 15 1 9.06901255148538
30 15 0 30 25 0 27.9903810567666 7.5 0 22.5 2.00961894323342 0 15 -1.77635683940025e-15 0 32.0096189432334 32.5 0 37.5 37.9903810567666 0 45 40 0 0 0 0 55 40 0 0 60 0 75 20 0 65 37.3205080756888 0 72.3205080756888 30 0 105 60 0 75 0 0 105 0 0 30 15 30 25 27.9903810567666 7.5 22.5 2.00961894323342 15 -1.77635683940025e-15 32.0096189432334 32.5 37.5 37.9903810567666 45 40 0 0 55 40 0 60 75 20 65 37.3205080756888 72.3205080756888 30 105 60 75 0 105 0 2 9 5 4 3 5 1 5 3 11 2 6 11 9 2 5 1 2 11 6 7 14 12 15 17 12 16 15 12 17 10 11 8 10 13 15 15 13 14 15 11 10 8 11 7 
13 11 1 6.31562501579375
55 40 0 75 20 0 62.6536686473018 38.4775906502257 0 69.142135623731 34.142135623731 0 73.4775906502257 27.6536686473018 0 55 40 60 75 20 60 75 20 15 75 20 30 75 20 45 62.6536686473018 38.4775906502257 60 69.142135623731 34.142135623731 60 73.4775906502257 27.6536686473018 60 0 0 1.5707963267949 0 0.392699081698724 0 0.785398163397448 0 1.17809724509617 0 0 60 1.5707963267949 60 1.5707963267949 15 1.5707963267949 30 1.5707963267949 45 0.392699081698724 60 0.785398163397448 60 1.17809724509617 60 1 3 11 3 4 12 11 6 1 12 11 3 4 5 12 5 2 8 5 8 9 13 9 10 9 13 5 10 7 13 5 13 12 
8 6 1 10.50000002
0 0 0 30 0 0 30 40 0 75 40 0 75 0 0 105 0 0 105 60 0 0 60 0 0 0 30 0 30 40 75 40 75 0 105 0 105 60 0 60 1 2 3 8 3 4 3 8 1 5 6 4 4 7 8 7 4 6 
4 2 1 11.550000012
105 60 0 105 60 60 0 60 0 0 60 60 0 0 0 -60 105 0 105 -60 1 2 4 4 3 1 
7 5 1 6.63156876157919
75 20 0 75 0 0 75 20 15 75 20 30 75 20 45 75 20 60 75 0 60 20 0 40 0 20 -15 20 -30 20 -45 20 -60 40 -60 5 6 7 4 5 7 4 2 3 2 4 7 2 1 3 
4 2 1 6.31578939078948
105 0 0 105 0 60 105 60 0 105 60 60 0 0 0 -60 60 0 60 -60 1 2 4 4 3 1 
4 2 1 6.3157875157895
75 0 0 75 0 60 105 0 0 105 0 60 0 0 0 -60 30 0 30 -60 1 2 4 4 3 1 
4 2 1 6.00000002
0 0 0 0 0 60 30 0 0 30 0 60 0 0 0 -60 30 0 30 -60 1 2 4 4 3 1 
7 5 1 6.6107875118645
0 0 0 15 -1.77635683940025e-15 0 15 -1.77635683940025e-15 15 15 -1.77635683940025e-15 30 15 -1.77635683940025e-15 45 15 -1.77635683940025e-15 60 0 0 60 0 0 15 0 15 -15 15 -30 15 -45 15 -60 0 -60 1 7 4 5 7 6 5 4 7 3 2 1 4 3 1 
7 5 1 6.612500011875
0 0 0 15 -1.77635683940025e-15 0 15 -1.77635683940025e-15 15 15 -1.77635683940025e-15 30 15 -1.77635683940025e-15 45 15 -1.77635683940025e-15 60 0 0 60 0 0 15 0 15 -15 15 -30 15 -45 15 -60 0 -60 1 7 4 5 7 6 5 4 7 3 2 1 4 3 1 
4 2 1 6.31575001579
75 40 0 75 40 60 75 0 0 75 0 60 0 0 0 -60 40 0 40 -60 1 2 4 4 3 1 
7 5 1 6.63157688657898
75 20 0 75 0 0 75 20 15 75 20 30 75 20 45 75 20 60 75 0 60 20 0 40 0 20 -15 20 -30 20 -45 20 -60 40 -60 5 6 7 4 5 7 4 2 3 2 4 7 2 1 3 

TShapes 75
Ve
1e-07
30 20 0
0 0

0101100
*
Ve
1e-07
30 25 0
0 0

0101100
*
Ed
 1e-07 1 1 0
1  1 0 20 25
6  1 1 0
6  2 2 0
0

0101000
+75 0 -74 0 *
Ve
1e-07
30 20 60
0 0

0101100
*
Ed
 1e-07 1 1 0
1  2 0 -0 60
2  1 2 0 -0 60
2  2 1 0 -0 60
4 G1 2 0 1 0
6  3 1 0
6  4 3 0
0

0101000
+75 0 -72 0 *
Ve
1e-07
30 25 60
0 0

0101100
*
Ed
 1e-07 1 1 0
1  3 0 -0 60
2  3 3 0 -0 60
2  4 1 0 -0 60
4 G1 3 0 1 0
6  5 4 0
6  6 5 0
6  7 1 0
0

0101000
+74 0 -70 0 *
Ed
 1e-07 1 1 0
1  1 0 20 25
6  8 1 2
6  9 6 0
0

0101000
+72 2 -70 2 *
Wi

0101100
-73 0 +71 0 -69 0 +68 1 *
Fa
0  1e-07 1 0
2  1
0101000
+67 0 *
Ve
1e-07
10 0 0
0 0

0101100
*
Ed
 1e-07 1 1 0
1  4 0 4.71238898038469 6.28318530717959
2  5 2 0 4.71238898038469 6.28318530717959
2  6 4 0 4.71238898038469 6.28318530717959
6  10 3 0
0

0101000
+75 0 -65 0 *
Ve
1e-07
45 40 0
0 0

0101100
*
Ed
 1e-07 1 1 0
1  5 0 1.5707963267949 3.14159265358979
2  7 3 0 1.5707963267949 3.14159265358979
2  8 4 0 1.5707963267949 3.14159265358979
6  11 7 0
6  12 5 0
6  13 2 0
0

0101000
+74 0 -63 0 *
Ve
1e-07
0 0 0
0 0

0101100
*
Ed
 1e-07 1 1 0
1  6 0 0 10
6  14 2 0
6  15 8 0
0

0101000
-65 0 +61 0 *
Ve
1e-07
55 40 0
0 0

0101100
*
Ed
 1e-07 1 1 0
1  7 0 15.099853515625 25.099853515625
6  16 7 0
6  17 9 0
6  18 2 0
0

0101000
+63 0 -59 0 *
Ve
1e-07
0 60 0
0 0

0101100
*
Ed
 1e-07 1 1 0
1  8 0 -1.08911132812501 58.910888671875
6  19 10 0
6  20 10 2
6  21 11 0
6  22 12 0
6  23 13 0
6  24 14 0
6  25 15 0
6  26 7 0
6  27 16 0
6  28 2 0
6  29 6 0
0

0101000
+57 0 -61 0 *
Ve
1e-07
75 20 0
0 0

0101100
*
Ed
 1e-07 1 1 0
1  9 0 3.14159265358979 4.71238898038469
2  9 5 0 3.14159265358979 4.71238898038469
2  10 4 0 3.14159265358979 4.71238898038469
6  30 17 0
6  31 2 0
0

0101000
+59 0 -55 0 *
Ve
1e-07
105 60 0
0 0

0101100
*
Ed
 1e-07 1 1 0
1  10 0 3.22705078124999 108.22705078125
6  32 18 0
6  33 19 0
6  34 19 2
6  35 11 0
6  36 12 0
6  37 13 0
6  38 14 0
6  39 15 0
6  40 7 0
6  41 16 0
6  42 2 0
6  43 6 0
0

0101000
+53 0 -57 0 *
Ve
1e-07
75 0 0
0 0

0101100
*
Ed
 1e-07 1 1 0
1  11 0 18.518310546875 38.518310546875
6  44 20 0
6  45 2 0
0

0101000
+55 0 -51 0 *
Ve
1e-07
105 0 0
0 0

0101100
*
Ed
 1e-07 1 1 0
1  12 0 -7.90399481988751e-16 60
6  46 21 0
6  47 21 2
6  48 11 0
6  49 12 0
6  50 13 0
6  51 14 0
6  52 15 0
6  53 7 0
6  54 16 0
6  55 2 0
6  56 6 0
0

0101000
+49 0 -53 0 *
Ed
 1e-07 1 1 0
1  13 0 -1.573486328125 28.426513671875
6  57 22 2
6  58 22 0
6  59 11 0
6  60 12 0
6  61 13 0
6  62 14 0
6  63 15 0
6  64 7 0
6  65 16 0
6  66 2 0
6  67 6 0
0

0101000
+51 0 -49 0 *
Wi

0101100
+73 0 -64 0 +62 0 +60 0 +58 0 +56 0 +54 0 +52 0 +50 0 +48 0 
+47 0 *
Fa
0  1e-07 4 0
2  2
0101000
+46 0 *
Ve
1e-07
10 0 60
0 0

0101100
*
Ed
 1e-07 1 1 0
1  14 0 -0 60
2  11 2 0 -0 60
2  12 6 0 -0 60
4 G1 2 0 6 0
6  68 3 0
6  69 8 0
0

0101000
+65 0 -44 0 *
Ed
 1e-07 1 1 0
1  15 0 4.71238898038469 6.28318530717959
2  13 2 0 4.71238898038469 6.28318530717959
2  14 4 1 4.71238898038469 6.28318530717959
6  70 3 0
6  71 6 1
0

0101000
+72 0 -44 0 *
Wi

0101100
+64 0 -71 0 +43 0 -42 0 *
Fa
0  0 2 0
2  3
0101000
+41 0 *
Ve
1e-07
45 40 60
0 0

0101100
*
Ed
 1e-07 1 1 0
1  16 0 -0 60
2  15 3 0 -0 60
2  16 7 0 -0 60
4 G1 3 0 7 0
6  72 5 0
6  73 9 0
0

0101000
+63 0 -39 0 *
Ed
 1e-07 1 1 0
1  17 0 1.5707963267949 3.14159265358979
2  17 3 0 1.5707963267949 3.14159265358979
2  18 4 1 1.5707963267949 3.14159265358979
6  74 5 0
6  75 16 1
6  76 6 1
0

0101000
+70 0 -39 0 *
Wi

0101100
+62 0 -69 0 +38 0 -37 0 *
Fa
0  0 3 0
2  5
0101000
+36 0 *
Ed
 1e-07 1 1 0
1  6 0 0 10
6  77 6 0
6  78 8 2
0

0101000
-44 2 +61 0 *
Ve
1e-07
55 40 60
0 0

0101100
*
Ed
 1e-07 1 1 0
1  7 0 15.099853515625 25.099853515625
6  79 16 0
6  80 9 2
6  81 6 0
0

0101000
+39 2 -33 2 *
Ve
1e-07
75 20 60
0 0

0101100
*
Ed
 1e-07 1 1 0
1  18 0 3.14159265358979 4.71238898038469
2  19 5 0 3.14159265358979 4.71238898038469
2  20 4 1 3.14159265358979 4.71238898038469
6  82 17 0
6  83 6 1
0

0101000
+33 0 -31 0 *
Ed
 1e-07 1 1 0
1  11 0 18.518310546875 38.518310546875
6  84 20 2
6  85 6 0
0

0101000
+31 2 -51 0 *
Wi

0101100
+68 1 -42 0 +37 0 +34 1 +32 1 +56 1 +30 0 +52 1 +29 1 +48 1 
+47 1 *
Fa
0  1e-07 4 0
2  6
0101000
+28 2 *
Ed
 1e-07 1 1 0
1  19 0 0 60
6  86 23 0
6  87 10 0
6  88 24 0
6  89 25 0
6  90 8 0
0

0101000
+61 0 -61 1 *
Wi

0101100
-60 0 -43 0 +26 0 +34 1 *
Fa
0  1e-07 6 0
2  8
0101000
+25 0 *
Ed
 1e-07 1 1 0
1  20 0 -0 60
2  21 5 0 -0 60
2  22 7 0 -0 60
4 G1 5 0 7 0
6  91 9 0
6  92 17 0
0

0101000
+59 0 -33 0 *
Wi

0101100
-58 0 +38 0 -23 0 +32 1 *
Fa
0  1e-07 7 0
2  9
0101000
+22 0 *
Ed
 1e-07 1 1 0
1  21 0 0 60
6  93 10 0
0

0101000
+57 0 -57 1 *
Wi

0101000
+20 0 -26 0 -56 0 +56 1 *
Fa
0  1e-07 8 0
2  10
0101000
+19 0 *
Ed
 1e-07 1 1 0
1  22 0 -0 60
2  23 5 0 -0 60
2  24 9 0 -0 60
4 G1 5 0 9 0
6  94 17 0
6  95 20 0
0

0101000
+55 0 -31 0 *
Wi

0101100
+54 0 -23 0 +17 0 -30 0 *
Fa
0  0 5 0
2  17
0101000
+16 0 *
Ed
 1e-07 1 1 0
1  23 0 0 60
6  96 21 0
6  97 19 0
0

0101000
+53 0 -53 1 *
Wi

0101000
+14 0 -20 0 -52 0 +52 1 *
Fa
0  1e-07 10 0
2  19
0101000
+13 0 *
Ed
 1e-07 1 1 0
1  24 0 0 60
6  98 26 0
6  99 22 0
6  100 27 0
6  101 20 0
0

0101000
+51 0 -51 1 *
Wi

0101100
-50 0 +17 0 -11 0 +29 1 *
Fa
0  1e-07 9 0
2  20
0101000
+10 0 *
Ed
 1e-07 1 1 0
1  25 0 0 60
6  102 22 0
6  103 21 0
0

0101000
+49 0 -49 1 *
Wi

0101000
+8 0 -14 0 -48 0 +48 1 *
Fa
0  1e-07 11 0
2  21
0101000
+7 0 *
Wi

0101000
+11 0 -8 0 -47 0 +47 1 *
Fa
0  1e-07 12 0
2  22
0101000
+5 0 *
Sh

0101100
-66 0 -45 0 -40 0 +35 0 +27 1 -24 0 -21 0 -18 0 +15 0 -12 0 
-9 0 -6 0 -4 0 *
So

0100000
+3 0 *
Co

1100000
+2 0 *

+1 0 