DBRep_DrawableShape

CASCADE Topology V1, (c) Matra-Datavision
Locations 0
Curve2ds 24
1 0 0 0 1 
1 0 0 1 0 
1 0 8 0.88921182764210061 -0.457495710997814 
1 0 0 0.88921182764210061 -0.457495710997814 
1 5.8309518948453007 3 0 1 
1 3 3 1 0 
1 0 0 0.86386842558136012 0.50371752330406572 
1 0 0 0.6355525695988512 -0.77205759582837941 
1 0 0 0 1 
1 0 10 1 0 
1 0 8 0.88921182764210061 -0.457495710997814 
1 0 -10 0.88921182764210061 0.457495710997814 
1 5.8309518948453007 3 0 1 
1 3 7 1 0 
1 0 0 0.88921182764210061 0.457495710997814 
1 0 -10 0.88921182764210061 0.457495710997814 
1 0 0 0 1 
1 0 0 0 -1 
1 8 0 0 1 
1 0 0 0 -1 
1 3 3 0 1 
1 5.8309518948453007 -3 0 -1 
1 5 3 0 1 
1 5.8309518948453007 -3 0 -1 
Curves 12
1 0 0 0 1 0 0 
1 8 0 0 -0.457495710997814 0.457495710997814 0.76249285166302339 
1 3 3 5 1 0 0 
1 0 0 0 0.457495710997814 0.76249285166302339 0.457495710997814 
1 0 10 0 1 0 0 
1 8 10 0 -0.457495710997814 -0.457495710997814 0.76249285166302339 
1 3 7 5 1 0 0 
1 0 10 0 0.457495710997814 -0.457495710997814 0.76249285166302339 
1 0 0 0 -0 1 0 
1 8 0 0 -0 1 0 
1 3 3 5 -0 1 0 
1 5 3 5 -0 1 0 
Polygon3D 0
PolygonOnTriangulations 0
Surfaces 6
1 0 0 0 -0 0.8574929257125441 -0.51449575542752646 0 0.51449575542752657 0.85749292571254421 1 0 -0 
1 0 0 0 0 -0 1 1 0 0 -0 1 0 
1 8 0 0 0.8574929257125441 0 0.51449575542752646 -0.51449575542752657 0 0.85749292571254421 0 -1 0 
1 0 0 5 0 -0 1 1 0 0 -0 1 0 
1 0 0 0 0.8574929257125441 0 -0.51449575542752646 0.51449575542752657 0 0.85749292571254421 0 -1 0 
1 0 10 0 0 0.8574929257125441 0.51449575542752646 0 -0.51449575542752657 0.85749292571254421 1 0 -0 
Triangulations 0

TShapes 34
Ve
1e-07
8 0 0
0 0

0101101
*
Ve
1e-07
0 0 0
0 0

0101101
*
Ed
 1e-07 1 1 0
1  1 0 0 8
2  1 1 0 0 8
2  2 2 0 0 8
0

0101000
-34 0 +33 0 *
Ve
1e-07
5 3 5
0 0

0101101
*
Ed
 1e-07 1 1 0
1  2 0 0 6.557438524302
2  3 1 0 0 6.557438524302
2  4 3 0 0 6.557438524302
0

0101000
-31 0 +34 0 *
Ve
1e-07
3 3 5
0 0

0101101
*
Ed
 1e-07 1 1 0
1  3 0 0 2
2  5 1 0 0 2
2  6 4 0 0 2
0

0101000
-31 0 +29 0 *
Ed
 1e-07 1 1 0
1  4 0 0 5.94744424297158
2  7 1 0 0 5.94744424297158
2  8 5 0 0 5.94744424297158
0

0101000
-29 0 +33 0 *
Wi

0101000
-32 0 -30 0 +28 0 +27 0 *
Fa
0  1e-07 1 0

0111000
+26 0 *
Ve
1e-07
8 10 0
0 0

0101101
*
Ve
1e-07
0 10 0
0 0

0101101
*
Ed
 1e-07 1 1 0
1  5 0 0 8
2  9 6 0 0 8
2  10 2 0 0 8
0

0101000
-24 0 +23 0 *
Ve
1e-07
5 7 5
0 0

0101101
*
Ed
 1e-07 1 1 0
1  6 0 0 6.557438524302
2  11 6 0 0 6.557438524302
2  12 3 0 0 6.557438524302
0

0101000
-21 0 +24 0 *
Ve
1e-07
3 7 5
0 0

0101101
*
Ed
 1e-07 1 1 0
1  7 0 0 2
2  13 6 0 0 2
2  14 4 0 0 2
0

0101000
-21 0 +19 0 *
Ed
 1e-07 1 1 0
1  8 0 0 6.557438524302
2  15 6 0 0 6.557438524302
2  16 5 0 0 6.557438524302
0

0101000
-19 0 +23 0 *
Wi

0101000
-22 0 -20 0 +18 0 +17 0 *
Fa
0  1e-07 6 0

0111000
+16 0 *
Ed
 1e-07 1 1 0
1  9 0 0 10
2  17 2 0 0 10
2  18 5 0 0 10
0

0101000
-23 0 +33 0 *
Ed
 1e-07 1 1 0
1  10 0 0 10
2  19 2 0 0 10
2  20 3 0 0 10
0

0101000
-24 0 +34 0 *
Wi

0101000
-14 0 -22 0 +13 0 +32 0 *
Fa
0  1e-07 2 0

0111000
+12 0 *
Ed
 1e-07 1 1 0
1  11 0 0 4
2  21 4 0 0 4
2  22 5 0 0 4
0

0101000
-19 0 +29 0 *
Ed
 1e-07 1 1 0
1  12 0 0 4
2  23 4 0 0 4
2  24 3 0 0 4
0

0101000
-21 0 +31 0 *
Wi

0101000
-10 0 -18 0 +9 0 +28 0 *
Fa
0  1e-07 4 0

0111000
+8 0 *
Wi

0101000
-27 0 -10 0 +17 0 +14 0 *
Fa
0  1e-07 5 0

0111000
+6 0 *
Wi

0101000
-30 0 -9 0 +20 0 +13 0 *
Fa
0  1e-07 3 0

0111000
+4 0 *
Sh

0101100
-25 0 +15 0 -11 0 +7 0 -5 0 +3 0 *
So

1100100
+2 0 *

+1 0 
0

