DBRep_DrawableShape

CASCADE Topology V1, (c) Matra-Datavision
Locations 0
Curve2ds 6
1 0 75.000000000000028 1 0
2 0 0 1 0 -0 1 20.000397491411579
1 6.2831853071795862 -0 0 1
1 0 -0 0 1
1 0 0 1 0
2 0 0 1 0 -0 1 20.000397491411579
Curves 3
2 0 70.000397491411562 65.000000000000028 0 0 1 1 0 -0 -0 1 0 20.000397491411579
1 20.000397491411579 70.000397491411562 -10.000000000000007 0 0 1
2 0 70.000397491411562 -10.000000000000007 0 0 1 1 0 -0 -0 1 0 20.000397491411579
Polygon3D 0
PolygonOnTriangulations 0
Surfaces 3
2 0 70.000397491411562 -10.000000000000007 0 0 1 1 0 -0 -0 1 0 20.000397491411579
1 0 70.000397491411562 65.000000000000028 0 0 1 1 0 -0 -0 1 0
1 0 70.000397491411562 -10.000000000000007 0 0 1 1 0 -0 -0 1 0
Triangulations 0

TShapes 13
Ve
1e-07
20.0003974914116 70.0003974914116 65
0 0

0101101
*
Ed
 1e-07 1 1 0
1  1 0 0 6.28318530717959
2  1 1 0 0 6.28318530717959
2  2 2 0 0 6.28318530717959
0

0101000
+13 0 -13 0 *
Ve
1e-07
20.0003974914116 70.0003974914116 -10
0 0

0101101
*
Ed
 1e-07 1 1 0
1  2 0 0 75
3  3 4CN 1 0 0 75
0

0101000
-13 0 +11 0 *
Ed
 1e-07 1 1 0
1  3 0 0 6.28318530717959
2  5 1 0 0 6.28318530717959
2  6 3 0 0 6.28318530717959
0

0101000
+11 0 -11 0 *
Wi

0101100
-12 0 +10 0 +9 0 -10 0 *
Fa
0  1e-07 1 0

0111000
+8 0 *
Wi

0101100
+12 0 *
Fa
0  1e-07 2 0

0111000
+6 0 *
Wi

0101100
-9 0 *
Fa
0  1e-07 3 0

0111000
-4 0 *
Sh

0101100
+7 0 +5 0 -3 0 *
So

1100000
+2 0 *

+1 0
