DBRep_DrawableShape

CASCADE Topology V1, (c) Matra-Datavision
Locations 6
1
              1               0               0               0
              0               1               0               0
              0               0               1               0
1
              1               0               0               0
              0               1               0               0
              0               0               1               0
1
              1               0               0               0
              0               0              -1               0
              0               1               0               0
1
              1               0               0               0
              0               1               0               0
              0               0               1               0
2  2 1 3 1 4 -1 0
2  4 1 3 -1 2 -1 0
Curve2ds 18
1 0 0 1 0
2 0 0 -1 0 0 1 30
1 0 15 1 0
2 0 0 -1 0 0 1 30
1 6.2831853071795862 0 0 1
1 0 0 0 1
2 0 0 -1 0 0 1 49.999999999999993
1 0 4.7123889803846897 1 0
1 0 9.4247779607693793 1 0
2 0 0 1 0 -0 1 30
1 6.2831853071795862 0 0 1
1 0 0 0 1
2 0 0 1 0 -0 1 4.25
1 0 0 1 0
1 0 35.000000000000007 1 0
2 0 0 -1 0 0 1 4.25
1 6.2831853071795862 0 0 1
1 0 0 0 1
Curves 9
2 0 0 0 -0 -2.2e-16 -1 1 -0 0 -0 -1 2.2e-16 30
2 0 3.3300000000000001e-15 15 -0 -2.2e-16 -1 1 -0 0 -0 -1 2.2e-16 30
1 30 0 0 0 1 0
2 0 3.3300000000000001e-15 15 -0 -2.2e-16 -1 1 -0 0 -0 -1 2.2e-16 49.999999999999993
2 0 7.7699999999999996e-15 35.000000000000007 -0 -2.2e-16 -1 1 -0 0 -0 -1 2.2e-16 30
2 50 35 0 0 0 1 1 0 -0 -0 1 0 20
2 0 7.7699999999999996e-15 35.000000000000007 -0 -2.2e-16 -1 1 -0 0 -0 -1 2.2e-16 4.25
2 0 0 0 -0 -2.2e-16 -1 1 -0 0 -0 -1 2.2e-16 4.25
1 4.25 35.000000000000007 0 0 -1 0
Polygon3D 0
PolygonOnTriangulations 0
Surfaces 6
2 0 0 0 0 2.2e-16 1 1 0 -0 0 -1 2.2e-16 30
1 0 0 0 -0 -2.2e-16 -1 -1 0 0 -0 -1 2.2e-16
1 0 3.3300000000000001e-15 15 -0 -2.2e-16 -1 -1 0 0 -0 -1 2.2e-16
5 0 7.7699999999999996e-15 35 0 2.2e-16 1 1 -0 0 -0 -1 2.2e-16 50 20
1 0 7.7699999999999996e-15 35.000000000000007 -0 -2.2e-16 -1 1 -0 0 -0 -1 2.2e-16
2 0 7.7699999999999996e-15 35.000000000000007 -0 -2.2e-16 -1 1 -0 0 -0 -1 2.2e-16 4.25
Triangulations 0

TShapes 32
Ve
1e-07
30 0 0
0 0

0101101
*
Ed
 1e-07 1 1 0
1  1 0 0 6.28318530717959
2  1 1 0 0 6.28318530717959
2  2 2 0 0 6.28318530717959
0

0101000
+32 5 -32 5 *
Ve
1e-07
30 15 0
0 0

0101101
*
Ed
 1e-07 1 1 0
1  2 0 0 6.28318530717959
2  3 1 0 0 6.28318530717959
2  4 3 0 0 6.28318530717959
0

0101000
+30 5 -30 5 *
Ed
 1e-07 1 1 0
1  3 0 0 15
3  5 6CN 1 6 0 15
0

0101000
+32 0 -30 0 *
Wi

0101100
+31 0 -29 0 -28 5 +28 5 *
Fa
0  1e-07 1 0

0111000
+27 0 *
Wi

0101100
+29 0 *
Ve
1e-07
50 15 0
0 0

0101101
*
Ed
 1e-07 1 1 0
1  4 0 0 6.28318530717959
2  7 3 0 0 6.28318530717959
2  8 4 0 0 6.28318530717959
4 G1 3 0 4 0
0

0101000
+24 5 -24 5 *
Wi

0101100
-23 0 *
Fa
0  1e-07 3 0

0111000
+25 0 +22 0 *
Ve
1e-07
30 35 0
0 0

0101101
*
Ed
 1e-07 1 1 0
1  5 0 0 6.28318530717959
2  9 4 0 0 6.28318530717959
2  10 5 0 0 6.28318530717959
0

0101000
+20 5 -20 5 *
Ed
 1e-07 1 1 0
1  6 0 4.71238898038469 9.42477796076938
3  11 12CN 4 6 4.71238898038469 9.42477796076938
0

0101000
+24 0 -20 0 *
Wi

0101100
+23 0 -19 0 -18 5 +18 5 *
Fa
0  1e-07 4 0

0111000
+17 0 *
Wi

0101100
+19 0 *
Ve
1e-07
4.25 35 0
0 0

0101101
*
Ed
 1e-07 1 1 0
1  7 0 0 6.28318530717959
2  13 5 0 0 6.28318530717959
2  14 6 0 0 6.28318530717959
0

0101000
+14 5 -14 5 *
Wi

0101100
-13 0 *
Fa
0  1e-07 5 0

0111000
+15 0 +12 0 *
Ve
1e-07
4.25 0 0
0 0

0101101
*
Ed
 1e-07 1 1 0
1  8 0 0 6.28318530717959
2  15 6 0 0 6.28318530717959
2  16 2 0 0 6.28318530717959
0

0101000
+10 5 -10 5 *
Ed
 1e-07 1 1 0
1  9 0 0 35
3  17 18CN 6 6 0 35
0

0101000
+14 0 -10 0 *
Wi

0101100
+13 0 -9 0 -8 5 +8 5 *
Fa
0  1e-07 6 0

0111000
+7 0 *
Wi

0101100
+9 0 *
Wi

0101100
-31 0 *
Fa
0  1e-07 2 0

0111000
+5 0 +4 0 *
Sh

0101100
-26 0 -21 0 -16 0 -11 0 -6 0 -3 0 *
So

0100000
+2 0 *

+1 1
