DBRep_DrawableShape

CASCADE Topology V1, (c) Matra-Datavision
Locations 57
1
              1               0               0               0 
              0               1               0               0 
              0               0               1               0 
1
              1               0               0               0 
              0               1               0               0 
              0               0               1               0 
1
              1               0               0               0 
              0               1               0               0 
              0               0               1               0 
1
              1               0               0               0 
              0               1               0               0 
              0               0               1               0 
2  2 1 3 -1 4 1 0
2  3 1 2 -1 0
2  4 -1 3 1 2 -1 0
1
              1               0               0               0 
              0               1               0               0 
              0               0               1               0 
1
              0              -1               0               0 
              1               0              -0               0 
             -0               0               1               0 
2  8 1 9 1 0
2  9 -1 8 -1 0
1
             -0               1               0               0 
             -1               0               0               0 
              0               0               1               0 
2  8 1 12 1 0
1
             -1               0               0               0 
              0              -1               0               0 
              0               0               1               0 
2  8 1 14 1 0
2  2 1 3 -1 0
1
              1               0               0               0 
              0               1               0               0 
              0               0               1               0 
1
              0               0               1               0 
              1               0               0               0 
              0               1               0               0 
1
              1               0               0               0 
              0               1               0               0 
              0               0               1               0 
2  17 1 18 1 19 -1 2 1 3 -1 4 1 0
2  19 1 18 -1 17 -1 0
2  3 1 2 -1 19 1 18 -1 17 -1 0
2  12 -1 8 -1 0
2  14 -1 8 -1 0
1
              1               0               0               0 
              0               1               0               0 
              0               0               1               0 
1
              1               0               0               0 
              0               1               0               0 
              0               0               1               3 
1
              1               0               0               0 
              0               1               0               0 
              0               0               1               0 
1
              1               0               0               0 
              0               1               0               0 
              0               0               1               0 
1
              1               0               0               0 
              0               1               0               0 
              0               0               1               0 
2  25 -1 26 1 27 1 28 -1 29 1 19 -1 0
1
              1               0               0               0 
              0               1               0               0 
              0               0               1               0 
1
              1               0               0               0 
              0               1               0               0 
              0               0               1               0 
2  31 1 32 1 25 -1 26 1 27 1 28 -1 29 1 19 -1 0
2  25 1 32 -1 31 -1 0
2  26 -1 25 1 32 -1 31 -1 0
1
              1               0               0          -21.75 
              0               1               0          -21.75 
              0               0               1               3 
2  36 1 29 1 19 -1 0
2  36 -1 0
1
              1               0               0           21.75 
              0               1               0          -21.75 
              0               0               1               3 
2  39 1 29 1 19 -1 0
2  39 -1 0
1
              1               0               0          -21.75 
              0               1               0           21.75 
              0               0               1               3 
2  42 1 29 1 19 -1 0
2  42 -1 0
1
              1               0               0           21.75 
              0               1               0           21.75 
              0               0               1               3 
2  45 1 29 1 19 -1 0
2  45 -1 0
2  27 1 28 -1 29 1 19 -1 2 1 3 -1 4 1 0
2  31 1 32 1 25 -1 0
2  31 1 32 1 25 -1 26 1 0
2  29 1 19 -1 2 1 3 -1 4 1 0
2  25 -1 27 1 28 -1 0
2  31 1 32 1 25 -1 27 1 28 -1 0
2  36 1 29 1 19 -1 2 1 3 -1 4 1 0
2  39 1 29 1 19 -1 2 1 3 -1 4 1 0
2  42 1 29 1 19 -1 2 1 3 -1 4 1 0
2  45 1 29 1 19 -1 2 1 3 -1 4 1 0
Curve2ds 118
2 0 0 1 0 -0 1 15
1 0 0 1 0 
1 3.0717792598292846 0 0 -1 
2 0 0 1 0 -0 1 22
1 0 0 1 0 
8 2.0485486844217902 2.3085067465421254
7 0 0  5 6 2  4.9953024958627523 26.736934126010166  5.0083928528680177 22.072562288028045  5.0205414513580138 17.094809112274987  5.0318445711586079 11.777400759018491  5.0423828681964737 6.0905618773944887  5.0522258898388106 -7.1600000000000005e-14 
 2.0485486844217902 6 2.3085067465421254 6
8 2.0485486844217902 2.3085067465421254
5 118.60963380087792 1.9000000000000001e-14 -1 -2.2e-16 2.2e-16 -1 23.351106986284126 2.8397912230686337
7 0 0  5 34 9  4.9157037528254675 25.245689312885666  4.9161106769925462 25.245689312885666  4.9165176011627789 25.245662859539788  4.9169244991404195 25.245609946761117  4.9173313447259588 25.245530574879989  4.92158012146096 25.244425215883869  4.9254152766155066 25.241065737670699  4.9292210166556814 25.235351891389431  4.9329761565143357 25.227341660315243  4.94041753566108 25.206728476289616  4.9441013200211108 25.194039961205004  4.9476929864809813 25.179169634581999  4.9511765165753729 25.162256123586413  4.9585336502652968 25.121112835888589  4.9623577730072794 25.09610514263392  4.9659911633193055 25.068677668493958  4.9694208384886531 25.039097268903305  4.9753570373032705 24.981012084112962  4.9779241988668792 24.953053797436787  4.9803355523251867 24.923882781156994  4.9825886517321427 24.893638769212359  4.9868412721518451 24.830286708348584  4.9888306697327787 24.797119360373934  4.9906496143527628 24.763083190843446  4.9922980750227834 24.728303469993637  4.9953051250352676 24.656304209333872  4.9966521706786278 24.61904250409426  4.9978191361196007 24.581231514450344  4.9988074129892066 24.542984323065394  5.000441933039224 24.465262393229555  5.0010829626537081 24.425778514664341  5.0015437013432997 24.386058462102728  5.0018260050966408 24.346202375792853  5.0019317588653429 24.306303750915532 
 0 6 0.01391853270030801 4 0.14538234260073629 4 0.27935985874864722 4 0.4384917920733804 4 0.57291129771438476 4 0.71150761630533155 4 0.85471465879387809 4 1 6
7 0 0  5 34 9  4.7123889803846879 -11.249888113930458  4.7169668317351832 -11.248944328762473  4.7215449464212407 -11.248001820802434  4.7261232355995508 -11.247060650448805  4.7307016104412565 -11.246120878420408  4.7785237779083252 -11.236319982297397  4.8217690339855981 -11.227587241462153  4.8649356304094047 -11.219036829999164  4.9079574312858165 -11.210720769573316  4.9944034782756193 -11.194501685899388  5.0378224024266363 -11.186609079483707  5.0809641066872748 -11.179061488319897  5.1237872484250007 -11.171903074242056  5.21671206649465 -11.157172810765234  5.266671744695377 -11.149775505974548  5.3160976785021816 -11.143038019771785  5.3649795970326286 -11.137002958349738  5.4541667268386318 -11.127218259107821  5.4946248662112982 -11.123259273430802  5.534708979471846 -11.119838858736451  5.5744339055161181 -11.116967393193946  5.6544316480844214 -11.112261313142628  5.6946825006311155 -11.110461810174552  5.7345968407179662 -11.109257509681974  5.774201179582656 -11.108649677627344  5.8541572184720838 -11.108620198435231  5.8944895393233194 -11.109238832146229  5.9345546203257227 -11.110487723429802  5.9743861007789913 -11.112360051504826  6.054226469980696 -11.117367082550263  6.0942293081221992 -11.120519781286347  6.1340633908085174 -11.124292986889534  6.1737653226878288 -11.128673210349083  6.2133721370998138 -11.133644114667536 
 0 6 0.01391853270030801 4 0.14538234260073629 4 0.27935985874864722 4 0.4384917920733804 4 0.57291129771438476 4 0.71150761630533155 4 0.85471465879387809 4 1 6
1 6.2831853071795862 25.2456893129647 -1 0 
2 -1.1638757049582704 -1.7800000000000001e-15 1 2.2e-16 2.2e-16 -1 11.486479132440319
7 0 0  8 23 4  4.3725520709306416 -2.7650000000000001e-14  4.3655810318925532 0.85253780937623624  4.3598319450859213 1.7067671079164544  4.3553587590541012 2.5624723356611359  4.3522184052519721 3.4194104347687375  4.3504695546167937 4.2773074255546728  4.3501713741390402 5.1358549825303221  4.3513822834332441 5.9947070104420446  4.3573476459437641 7.8398367524241301  4.362602001768372 8.8261184671793504  4.3700074972827441 9.8117290707369751  4.3796471904619203 10.796066648667688  4.3916001437882715 11.778517042405873  4.4059424765582742 12.758451825255449  4.4227508044636759 13.735226877947413  4.4691575333277438 16.067769793354266  4.5011638233403692 17.418866348243952  4.5383665467476675 18.761031397613831  4.5810383130506782 20.092686344193929  4.6294821211485049 21.411173683904906  4.68407565804897 22.712787133821884  4.7452883482468344 23.992854572713458  4.8138888843482972 25.2456893129647 
 0 9 0.26641298349871012 7 0.5724081788856108 7 1 9
7 0 0  8 23 4  3.0717792598292815 -14.142135623731322  3.0919293201545734 -13.995415824048864  3.1120869161480043 -13.854428725609282  3.1322593621613644 -13.719789987771673  3.1524533506957773 -13.592007702551753  3.1726749288100762 -13.471458677414304  3.192929474529163 -13.35836471806561  3.2132216732523848 -13.252768911245891  3.2569104050992634 -13.041656405294152  3.2803209393992239 -12.938478830563636  3.3037929627824005 -12.844742293358177  3.3273325197228387 -12.759849883834232  3.3509458409974586 -12.682816276442241  3.3746393791833489 -12.61224565796739  3.3984198721028727 -12.546315979445691  3.4556562897177185 -12.393970944208252  3.4891765138729531 -12.309891791755819  3.5229069979992795 -12.224269863130029  3.5568762702627463 -12.129265499401356  3.5910905574015404 -12.015274388506738  3.625531655498643 -11.870456797450549  3.6601544841206524 -11.680667745016279  3.6948734829753263 -11.427361734162213 
 0 9 0.26641298349871012 7 0.5724081788856108 7 1 9
8 2.0485486844217906 2.308506746542125
7 0 0  5 6 2  3.4245061690678562 26.736934126010137  3.4375965260731212 22.072562288028031  3.4497451245631154 17.094809112275101  3.4610482443637167 11.777400759018377  3.4715865414015776 6.0905618773945092  3.4814295630439145 -2.8149999999999999e-14 
 2.0485486844217906 6 2.308506746542125 6
8 2.0485486844217906 2.308506746542125
5 118.60963380087792 -0 -1 -0 0 -1 23.351106986284126 2.8397912230686337
7 0 0  5 34 9  3.3449074260305709 25.245689312885666  3.3453143501976506 25.245689312885666  3.3457212743678832 25.245662859539788  3.3461281723455238 25.245609946761125  3.3465350179310613 25.245530574879997  3.3507837946660635 25.244425215883872  3.3546189498206114 25.241065737670702  3.3584246898607844 25.235351891389428  3.3621798297194392 25.22734166031525  3.3696212088661839 25.206728476289619  3.3733049932262125 25.194039961205007  3.3768966596860861 25.179169634582006  3.3803801897804768 25.16225612358641  3.3877373234703994 25.121112835888596  3.391561446212386 25.096105142633917  3.3951948365244067 25.068677668493965  3.3986245116937575 25.039097268903301  3.4045607105083739 24.981012084112965  3.4071278720719818 24.953053797436784  3.4095392255302919 24.923882781156998  3.4117923249372453 24.893638769212362  3.4160449453569486 24.830286708348588  3.4180343429378821 24.797119360373941  3.4198532875578662 24.763083190843446  3.4215017482278869 24.728303469993637  3.4245087982403701 24.656304209333872  3.4258558438837299 24.619042504094267  3.427022809324705 24.581231514450355  3.4280110861943101 24.542984323065394  3.4296456062443257 24.465262393229558  3.4302866358588124 24.425778514664337  3.4307473745484032 24.386058462102728  3.4310296783017429 24.346202375792863  3.4311354320704459 24.306303750915539 
 0 6 0.013918532700306369 4 0.14538234260073851 4 0.27935985874863017 4 0.43849179207334399 4 0.57291129771435489 4 0.71150761630530657 4 0.85471465879386721 4 1 6
7 0 0  5 34 9  4.7123889803846879 -11.249888113930457  4.7169668317351832 -11.248944328762471  4.7215449464212407 -11.248001820802434  4.7261232355995499 -11.247060650448804  4.7307016104412556 -11.246120878420404  4.7785237779083305 -11.236319982297394  4.8217690339855848 -11.227587241462155  4.8649356304094189 -11.219036829999158  4.9079574312858094 -11.210720769573316  4.9944034782756193 -11.194501685899386  5.0378224024266451 -11.186609079483706  5.0809641066872588 -11.179061488319897  5.1237872484250122 -11.171903074242053  5.2167120664946411 -11.157172810765234  5.266671744695401 -11.14977550597454  5.3160976785021603 -11.143038019771787  5.3649795970326384 -11.137002958349735  5.4541667268386318 -11.127218259107819  5.4946248662113 -11.123259273430799  5.5347089794718443 -11.119838858736451  5.5744339055161181 -11.116967393193944  5.6544316480844223 -11.112261313142628  5.6946825006311173 -11.11046181017455  5.7345968407179679 -11.109257509681973  5.774201179582656 -11.108649677627344  5.8541572184720909 -11.108620198435231  5.8944895393233168 -11.109238832146227  5.9345546203257182 -11.110487723429802  5.9743861007789976 -11.112360051504824  6.0542264699806942 -11.117367082550263  6.0942293081222019 -11.120519781286346  6.1340633908085191 -11.124292986889532  6.1737653226878217 -11.12867321034908  6.2133721370998138 -11.133644114667534 
 0 6 0.013918532700306369 4 0.14538234260073851 4 0.27935985874863017 4 0.43849179207334399 4 0.57291129771435489 4 0.71150761630530657 4 0.85471465879386721 4 1 6
1 6.2831853071795862 25.2456893129647 -1 0 
2 -1.1638757049582704 -0 -1.2e-16 1 1 1.2e-16 11.486479132440319
7 0 0  8 23 4  2.8017557441357441 -2.0859999999999999e-14  2.7947847050976584 0.85253780937610801  2.7890356182910252 1.7067671079165645  2.7845624322592024 2.5624723356612851  2.7814220784570738 3.4194104347687069  2.7796732278218967 4.2773074255544943  2.7793750473441436 5.1358549825302564  2.7805859566383484 5.9947070104422684  2.7865513191488671 7.8398367524241168  2.7918056749734719 8.8261184671792705  2.7992111704878484 9.8117290707370817  2.808850863667026 10.796066648667823  2.8208038169933731 11.778517042405767  2.8351461497633732 12.758451825255257  2.8519544776687842 13.735226877947651  2.8983612065327282 16.067769793348262  2.930367496545887 17.418866348265837  2.9675702199521035 18.761031397577064  3.0102419862563465 20.092686344227509  3.0586857943534014 21.411173683889288  3.1132793312540525 22.712787133824119  3.1744920214519685 23.99285457271402  3.2430925575534006 25.245689312964704 
 0 9 0.26641298349914688 7 0.57240817888661222 7 1 9
7 0 0  8 23 4  3.0717792598292815 -14.142135623731319  3.0919293201545703 -13.995415824048877  3.1120869161480069 -13.854428725609253  3.1322593621613666 -13.719789987771632  3.1524533506957764 -13.592007702551742  3.1726749288100713 -13.471458677414317  3.1929294745291612 -13.358364718065612  3.2132216732523906 -13.252768911245854  3.2569104050992634 -13.041656405294148  3.280320939399219 -12.938478830563646  3.3037929627824032 -12.844742293358163  3.3273325197228427 -12.759849883834207  3.3509458409974564 -12.682816276442239  3.3746393791833422 -12.612245657967405  3.3984198721028784 -12.546315979445668  3.4556562897175715 -12.393970944208641  3.4891765138734616 -12.309891791753515  3.522906997998442 -12.224269863135227  3.5568762702635097 -12.129265499395274  3.591090557401178 -12.015274388510411  3.6255316554986963 -11.870456797449705  3.6601544841206675 -11.680667745016166  3.6948734829753263 -11.427361734162211 
 0 9 0.26641298349914688 7 0.57240817888661222 7 1 9
8 2.0485486844217826 2.3085067465421174
7 0 0  5 6 2  1.8537098422729599 26.736934126010137  1.866800199278225 22.072562288028021  1.8789487977682171 17.094809112275044  1.8902519175688184 11.777400759018491  1.9007902146066817 6.0905618773944834  1.9106332362490186 -7.1600000000000005e-14 
 2.0485486844217826 6 2.3085067465421174 6
8 2.0485486844217826 2.3085067465421174
5 118.60963380087804 0 -1 0 -0 -1 23.351106986284336 2.8397912230686564
7 0 0  5 34 9  1.7741110992356748 25.245689312885666  1.774518023402754 25.245689312885666  1.7749249475729869 25.245662859539788  1.7753318455506275 25.245609946761125  1.7757386911361657 25.245530574879997  1.7799874678711669 25.244425215883872  1.783822623025715 25.241065737670695  1.7876283630658887 25.235351891389435  1.7913835029245431 25.22734166031525  1.7988248820712882 25.206728476289616  1.8025086664313152 25.194039961205  1.8061003328911909 25.179169634582006  1.8095838629855805 25.16225612358641  1.8169409966755019 25.121112835888599  1.8207651194174923 25.09610514263391  1.824398509729509 25.068677668493972  1.8278281848988618 25.039097268903298  1.8337643837134772 24.981012084112969  1.8363315452770868 24.953053797436777  1.8387428987353946 24.923882781157005  1.8409959981423496 24.893638769212359  1.8452486185620529 24.830286708348588  1.847238016142986 24.797119360373941  1.8490569607629701 24.763083190843446  1.8507054214329908 24.728303469993637  1.853712471445474 24.656304209333872  1.855059517088834 24.619042504094267  1.856226482529808 24.581231514450355  1.8572147593994139 24.542984323065394  1.85884927944943 24.465262393229558  1.8594903090639161 24.425778514664341  1.8599510477535071 24.386058462102731  1.860233351506847 24.346202375792863  1.8603391052755498 24.306303750915539 
 0 6 0.01391853270031105 4 0.14538234260075647 4 0.27935985874866281 4 0.43849179207333489 4 0.5729112977143167 4 0.71150761630525772 4 0.85471465879383413 4 1 6
7 0 0  5 34 9  4.7123889803846888 -11.249888113930457  4.7169668317351841 -11.248944328762471  4.7215449464212416 -11.248001820802434  4.7261232355995517 -11.247060650448802  4.7307016104412574 -11.246120878420404  4.7785237779083296 -11.236319982297394  4.8217690339855865 -11.227587241462151  4.8649356304094242 -11.219036829999162  4.9079574312858076 -11.210720769573314  4.9944034782756237 -11.194501685899384  5.0378224024266371 -11.186609079483711  5.0809641066872704 -11.179061488319892  5.1237872484250087 -11.171903074242055  5.2167120664946278 -11.157172810765235  5.2666717446954348 -11.149775505974537  5.3160976785021319 -11.14303801977179  5.3649795970326482 -11.137002958349735  5.4541667268386282 -11.127218259107819  5.4946248662113142 -11.123259273430799  5.53470897947183 -11.119838858736451  5.5744339055161252 -11.116967393193944  5.6544316480844232 -11.112261313142628  5.6946825006311164 -11.11046181017455  5.7345968407179679 -11.109257509681973  5.7742011795826595 -11.108649677627344  5.8541572184720945 -11.108620198435231  5.894489539323315 -11.109238832146225  5.9345546203257182 -11.110487723429802  5.9743861007789993 -11.112360051504824  6.0542264699806942 -11.117367082550263  6.0942293081222019 -11.120519781286346  6.1340633908085191 -11.124292986889534  6.1737653226878244 -11.12867321034908  6.2133721370998138 -11.133644114667533 
 0 6 0.01391853270031105 4 0.14538234260075647 4 0.27935985874866281 4 0.43849179207333489 4 0.5729112977143167 4 0.71150761630525772 4 0.85471465879383413 4 1 6
1 6.2831853071795862 25.2456893129647 -1 0 
2 -1.1638757049582722 0 -1 -1.1e-16 -1.1e-16 1 11.486479132440319
7 0 0  8 23 4  1.2309594173408487 -2.666e-14  1.2239883783027616 0.85253780937616319  1.2182392914961293 1.7067671079165725  1.2137661054643067 2.5624723356612522  1.2106257516621772 3.4194104347686758  1.2088769010269995 4.2773074255544916  1.2085787205492469 5.1358549825302742  1.2097896298434525 5.9947070104422764  1.2157549923539692 7.8398367524236585  1.2210093481785829 8.826118467179958  1.2284148436929492 9.8117290707370923  1.2380545368721219 10.796066648667207  1.2500074901984799 11.77851704240582  1.2643498229684871 12.758451825255959  1.2811581508738781 13.735226877947133  1.3275648797378592 16.06776979334963  1.3595711697508741 17.418866348263471  1.3967738931575475 18.761031397578954  1.4394456594608016 20.092686344224539  1.487889467559246 21.411173683895193  1.5424830044586828 22.712787133818203  1.6036956946572078 23.992854572716496  1.6722962307585043 25.245689312964704 
 0 9 0.26641298349917436 7 0.57240817888654272 7 1 9
7 0 0  8 23 4  3.0717792598292815 -14.142135623731308  3.0919293201545708 -13.995415824048862  3.1120869161480074 -13.854428725609246  3.1322593621613661 -13.71978998777163  3.1524533506957764 -13.59200770255174  3.1726749288100713 -13.471458677414313  3.1929294745291612 -13.358364718065602  3.2132216732523906 -13.252768911245839  3.2569104050992532 -13.041656405294185  3.2803209393992421 -12.938478830563561  3.3037929627824023 -12.844742293358141  3.327332519722821 -12.759849883834255  3.350945840997456 -12.68281627644223  3.3746393791833649 -12.612245657967327  3.3984198721028647 -12.546315979445694  3.4556562897176049 -12.393970944208542  3.4891765138733102 -12.309891791753838  3.5229069979987919 -12.224269863134374  3.5568762702629986 -12.129265499396819  3.5910905574016532 -12.015274388508489  3.625531655498432 -11.870456797451084  3.6601544841207363 -11.680667745015668  3.6948734829753263 -11.427361734162213 
 0 9 0.26641298349917436 7 0.57240817888654272 7 1 9
8 2.0485486844217826 2.308506746542117
7 0 0  5 6 2  0.28291351547806332 26.736934126010137  0.29600387248332843 22.072562288028028  0.30815247097331966 17.094809112275186  0.31945559077391961 11.77740075901832  0.32999388781178524 6.0905618773945145  0.33983690945412204 -2.8389999999999999e-14 
 2.0485486844217826 6 2.308506746542117 6
8 2.0485486844217826 2.308506746542117
5 118.60963380087804 1.9000000000000001e-14 -1 -2.2e-16 2.2e-16 -1 23.351106986284336 2.8397912230686564
7 0 0  5 34 9  0.20331477244077828 25.245689312885666  0.20372169660785744 25.245689312885666  0.20412862077809063 25.245662859539788  0.20453551875573109 25.245609946761117  0.20494236434126895 25.245530574879989  0.20919114107627029 25.244425215883869  0.21302629623081853 25.241065737670702  0.21683203627099257 25.235351891389424  0.22058717612964621 25.227341660315247  0.22802855527639104 25.206728476289616  0.23171233963642035 25.194039961205  0.23530400609629276 25.179169634582006  0.23878753619068444 25.162256123586406  0.24614466988060507 25.121112835888603  0.24996879262259664 25.096105142633892  0.25360218293461145 25.068677668493983  0.25703185810396584 25.039097268903287  0.26296805691858294 24.981012084112944  0.26553521848218575 24.953053797436826  0.26794657194050187 24.923882781156959  0.27019967134745182 24.893638769212373  0.2744522917671558 24.830286708348588  0.27644168934808966 24.797119360373934  0.27826063396807399 24.763083190843439  0.2799090946380941 24.728303469993641  0.28291614465057735 24.656304209333872  0.28426319029393776 24.61904250409426  0.28543015573491187 24.581231514450348  0.28641843260451727 24.542984323065394  0.28805295265453335 24.465262393229551  0.28869398226901927 24.425778514664344  0.28915472095861039 24.386058462102731  0.28943702471195049 24.346202375792853  0.28954277848065324 24.306303750915536 
 0 6 0.01391853270031107 4 0.14538234260075006 4 0.27935985874862668 4 0.43849179207327305 4 0.57291129771437421 4 0.71150761630532822 4 0.85471465879386332 4 1 6
7 0 0  5 34 9  4.7123889803846888 -11.249888113930458  4.7169668317351841 -11.248944328762473  4.7215449464212425 -11.248001820802434  4.7261232355995517 -11.247060650448804  4.7307016104412565 -11.246120878420408  4.7785237779083278 -11.236319982297395  4.8217690339855883 -11.227587241462153  4.8649356304094269 -11.219036829999164  4.907957431285805 -11.210720769573316  4.9944034782756184 -11.194501685899386  5.037822402426654 -11.186609079483711  5.0809641066872526 -11.179061488319896  5.1237872484250149 -11.171903074242055  5.2167120664946234 -11.157172810765239  5.2666717446954454 -11.149775505974537  5.3160976785021159 -11.143038019771794  5.3649795970326561 -11.137002958349735  5.4541667268386638 -11.127218259107817  5.4946248662112334 -11.123259273430808  5.5347089794719038 -11.119838858736445  5.5744339055161021 -11.116967393193946  5.6544316480844143 -11.112261313142628  5.6946825006311208 -11.110461810174552  5.7345968407179733 -11.109257509681974  5.7742011795826533 -11.108649677627344  5.8541572184720891 -11.108620198435231  5.8944895393233212 -11.109238832146229  5.9345546203257218 -11.110487723429802  5.9743861007789949 -11.112360051504826  6.0542264699807022 -11.117367082550265  6.0942293081221974 -11.120519781286347  6.1340633908085156 -11.124292986889534  6.1737653226878306 -11.128673210349081  6.2133721370998138 -11.133644114667534 
 0 6 0.01391853270031107 4 0.14538234260075006 4 0.27935985874862668 4 0.43849179207327305 4 0.57291129771437421 4 0.71150761630532822 4 0.85471465879386332 4 1 6
1 6.2831853071795862 25.2456893129647 -1 0 
2 -1.1638757049582722 -1.7800000000000001e-15 0 -1 -1 -0 11.486479132440319
7 0 0  5 6 2  0 23.219664150850253  0.018777327741249291 23.630041861509461  0.038291706962526817 24.038086683645997  0.058566559841130683 24.443577364310727  0.079626852595898079 24.84622714858401  0.10149990396360753 25.2456893129647 
 0 6 1 6
7 0 0  5 6 2  3.6396413075629792 -11.768447336874905  3.650655112193709 -11.71133379831757  3.6616887587767804 -11.649358170692896  3.6727396835010131 -11.581862719301386  3.683803446375896 -11.508127508047213  3.6948734829753263 -11.427361734162213 
 0 6 1 6
1 6.2831853071795862 0 0 1 
1 0 0 0 1 
1 0 30.294827175558542 1 0 
2 0 0 1 0 -0 1 10.783774958928259
7 0 0  7 20 4  5.9433483977255372 0  5.9353814959677234 0.97432892500141011  5.9290438638518514 1.9509131688882193  5.9244218190472839 2.92940783572497  5.9216076450464499 3.9094130338124709  5.9206962753537544 4.8904647451248744  5.9217819776744856 5.8720256947467595  5.9285995348293614 7.9807453998684696  5.934997926474578 9.1079094896174677  5.9442873626394723 10.234020819408707  5.9565996718741445 11.358112477925093  5.9720578017648807 12.479191316540433  5.9907818081180801 13.596233351403862  6.0376497399162812 15.951957724821421  6.0666404129872813 17.189016656832152  6.1000695123925421 18.418434561768549  6.1381485862875058 19.638659398086531  6.1811275562380317 20.847529752059007  6.2293140149460555 22.042309317314267  6.2831853071795862 23.219664150850253 
 0 8 0.29126330982505122 6 0.62580095971159833 6 1 8
7 0 0  7 20 4  3.0717792598292823 -14.142135623731324  3.0948079002010433 -13.974455852665658  3.1178465881303268 -13.814419683257128  3.1409070265799888 -13.663012170480354  3.1639996748115657 -13.521003234623121  3.1871336854742549 -13.388884415399604  3.2103168416938863 -13.266805626063595  3.2602468209474469 -13.025534190690257  3.2870123122165067 -12.909460377187978  3.3138613531219363 -12.805911443060264  3.3408036863237065 -12.713788324608316  3.3678494321203809 -12.631196196165439  3.3950092203723252 -12.555394043372905  3.4528144693698049 -12.401534960949382  3.4834829934968967 -12.32429844171989  3.5143292490965856 -12.245954506131632  3.5453702691416531 -12.160093082422495  3.5766108699499872 -12.058739865455898  3.6080432071281852 -11.932303459988429  3.6396413075629792 -11.768447336874905 
 0 8 0.29126330982505122 6 0.62580095971159833 6 1 8
1 3.6948734829753263 0 0 -1 
7 0 0  8 16 3  1.3415201235809671 -7.5555000000000005e-13  1.3381770193959173 1.328751256971578  1.3371083290854597 2.6585872124584977  1.3382722908123967 3.9883176213288078  1.3416247959762582 5.3168226391333073  1.3471197559898562 6.6430496824293153  1.354711278204735 7.966008453315343  1.3643571226159992 9.2847660477005736  1.3925633868027181 12.461057963627786  1.4131550543886637 14.312380599629327  1.4377042396529052 16.151355495392892  1.4661577465452784 17.975988691175811  1.4985022406258786 19.78339701460197  1.5347854916585111 21.569848943473335  1.5751309756650613 23.330808031802796  1.6198250355878367 25.061047452028561 
 0 9 0.41358856613459505 7 1 9
7 0 0  8 16 3  3.071779259829265 -21.424285285628745  3.1034161950139261 -21.49783320221799  3.1349989679382051 -21.582392303988527  3.1665479719015992 -21.678511289320422  3.1980844586368007 -21.786104568837793  3.2296309582270313 -21.904481545463419  3.2612116812304484 -22.03239699695084  3.2928530791517878 -22.168098264385634  3.3695758487056575 -22.509613231982406  3.4147223407072058 -22.72091299090512  3.4601426220549745 -22.936991998982791  3.5059410821357337 -23.149563142087022  3.5522144675933593 -23.348329857743664  3.5990581859949469 -23.52061355462061  3.6465712039069569 -23.651100885726954  3.6948734829753263 -23.719632920307422 
 0 9 0.41358856613459505 7 1 9
8 -23.642703044849601 -21.424285285628489
7 0 0  5 6 2  4.8447828452745618 26.541385602396396  4.8633848111665179 20.971809099127249  4.8823655347959019 15.532882287252988  4.9017337323587213 10.224605166773273  4.9214977494239358 5.0469777376885583  4.9416651835986745 -1.4345299999999999e-12 
 -23.642703044849601 6 -21.424285285628489 6
8 -23.642703044849601 -21.424285285628489
4 -121.85248972273311 -3.4529999999999999e-14 1 2.2e-16 -2.2e-16 1 0.9417123955456832
7 0 0  5 26 7  4.8102077787525603 25.061047451950092  4.812912338547287 25.061047451950092  4.8156173620137892 25.05592726483189  4.8182869438673137 25.045703347197154  4.8208902516014582 25.030668469352012  4.8260169167778457 24.991045907900105  4.8285333517693347 24.966093611875635  4.830926449363786 24.93685941193095  4.8331811066413612 24.903907354074281  4.8368243757207123 24.841379559961112  4.8382819525500125 24.81331546904136  4.8396583597843721 24.783732735168996  4.8409519631201938 24.752809630941663  4.8434171094340641 24.687395369930108  4.8445822666804945 24.652815241456331  4.8456566083740373 24.61713341148582  4.8466399868460472 24.58050393205647  4.8484566153655946 24.504293735620308  4.8492832960169094 24.464655712477434  4.8500127611495492 24.424294441810687  4.8506452369376323 24.383343763049801  4.851723701331542 24.299964481897369  4.8521671346633752 24.257524774173852  4.8525115338751288 24.214728390949357  4.8527569711513427 24.171693546563972  4.8529033456162836 24.128532365812433 
 0 6 0.19147255233929794 4 0.39065601759718549 4 0.53576971688871222 4 0.68629239385026597 4 0.8421337766195941 4 1 6
7 0 0  5 26 7  4.7123889803846879 -23.634643476180848  4.7763102868930583 -23.628370751121253  4.8401860116480178 -23.621525422183872  4.9037089555836175 -23.614192133866347  4.9666775812960848 -23.606486872088428  5.0936614337497161 -23.590253838302914  5.1576295807844845 -23.581703698909536  5.2206673864494118 -23.573011523478733  5.2827377673772373 -23.564299201973895  5.3883986222780669 -23.549369739969855  5.4324322932852391 -23.543117244995475  5.4759792355962489 -23.536941430943081  5.5190646001639871 -23.530873101852247  5.6059736515046685 -23.51878001934498  5.6497636354661349 -23.51276551663225  5.6931343553259168 -23.506921514086191  5.7361283754499244 -23.501270601491381  5.8229670557269735 -23.490199185016934  5.8667870838638283 -23.484794086966712  5.9103062591097997 -23.479635787694285  5.9535772440275014 -23.474740970548076  6.0402886647367584 -23.465444862497634  6.0837236009600693 -23.461050982814328  6.1270128443453391 -23.456955185713802  6.1702109563482743 -23.453169204915405  6.2133721370998138 -23.449702600701944 
 0 6 0.19147255233929794 4 0.39065601759718549 4 0.53576971688871222 4 0.68629239385026597 4 0.8421337766195941 4 1 6
1 6.2831853071795862 25.061047452028561 -1 0 
2 -1.1638757049582704 -1.7800000000000001e-15 1 2.2e-16 2.2e-16 -1 23.748170298587713
7 0 0  8 16 3  4.48311277717076 -7.5506000000000002e-13  4.4797696729857099 1.3287512569713416  4.4787009826752566 2.6585872124597705  4.4798649444021761 3.9883176213265985  4.4832174495660588 5.3168226391340383  4.4887124095796613 6.6430496824315153  4.4963039317945057 7.9660084533125  4.5059497762058021 9.2847660477017726  4.5341560403925181 12.461057963628651  4.5547477079783771 14.312380599619988  4.5792968932429838 16.15135549542185  4.607750400134532 17.975988691130137  4.6400948942162525 19.783397014642414  4.6763781452479547 21.569848943454129  4.7167236292549521 23.33080803180658  4.7614176891776294 25.061047452028554 
 0 9 0.41358856613425876 7 1 9
7 0 0  8 16 3  3.071779259829265 -21.424285285628756  3.1034161950139199 -21.497833202217986  3.1349989679382442 -21.582392303988719  3.1665479719015321 -21.67851128932007  3.1980844586368162 -21.786104568837906  3.2296309582270974 -21.904481545463803  3.2612116812303733 -22.032396996950457  3.2928530791518162 -22.168098264385776  3.3695758487056779 -22.509613231982506  3.4147223407071223 -22.720912990905237  3.460142622055236 -22.936991998982279  3.5059410821352106 -23.14956314208743  3.5522144675939611 -23.34832985774381  3.5990581859945729 -23.520613554620308  3.6465712039070626 -23.6511008857271  3.6948734829753263 -23.719632920307419 
 0 9 0.41358856613425876 7 1 9
8 -23.642703044849601 -21.424285285628486
7 0 0  5 6 2  3.2739865184796657 26.541385602396396  3.2925884843716213 20.971809099127238  3.3115692080010177 15.532882287252846  3.3309374055638159 10.224605166773273  3.3507014226290393 5.0469777376885236  3.3708688568037779 -1.4773e-12 
 -23.642703044849601 6 -21.424285285628486 6
8 -23.642703044849601 -21.424285285628486
4 -121.85248972273311 -0 1 0 -0 1 0.9417123955456832
7 0 0  5 26 7  3.2394114519576638 25.061047451950095  3.2421160117523908 25.061047451950095  3.2448210352188918 25.055927264831915  3.2474906170724185 25.045703347197136  3.2500939248065617 25.030668469352019  3.2552205899829492 24.991045907900112  3.2577370249744382 24.966093611875642  3.2601301225688899 24.93685941193095  3.2623847798464647 24.903907354074288  3.2660280489258162 24.841379559961123  3.2674856257551168 24.813315469041353  3.2688620329894746 24.783732735169011  3.2701556363252977 24.752809630941663  3.2726207826391684 24.687395369930101  3.2737859398855953 24.652815241456359  3.2748602815791439 24.617133411485796  3.2758436600511502 24.580503932056484  3.277660288570698 24.504293735620319  3.2784869692220133 24.46465571247743  3.279216434354653 24.424294441810687  3.2798489101427366 24.383343763049812  3.2809273745366463 24.299964481897373  3.2813708078684782 24.257524774173863  3.2817152070802322 24.214728390949364  3.2819606443564462 24.171693546563972  3.2821070188213866 24.12853236581244 
 0 6 0.19147255233932528 4 0.39065601759721519 4 0.53576971688872876 4 0.68629239385032703 4 0.8421337766196284 4 1 6
7 0 0  5 26 7  4.7123889803846888 -23.634643476180845  4.7763102868930707 -23.628370751121249  4.8401860116479973 -23.621525422183872  4.9037089555836353 -23.614192133866339  4.9666775812960777 -23.606486872088425  5.0936614337497179 -23.59025383830291  5.157629580784481 -23.581703698909532  5.2206673864494162 -23.57301152347873  5.2827377673772347 -23.564299201973892  5.3883986222780642 -23.549369739969851  5.4324322932852462 -23.543117244995472  5.47597923559624 -23.536941430943081  5.5190646001639934 -23.530873101852244  5.6059736515046836 -23.518780019344977  5.6497636354661012 -23.512765516632246  5.6931343553259532 -23.506921514086184  5.7361283754499128 -23.501270601491381  5.8229670557269682 -23.490199185016927  5.8667870838638336 -23.484794086966708  5.9103062591098077 -23.479635787694285  5.9535772440274979 -23.474740970548076  6.040288664736762 -23.46544486249763  6.083723600960063 -23.461050982814321  6.1270128443453356 -23.456955185713799  6.1702109563482788 -23.453169204915405  6.2133721370998138 -23.449702600701944 
 0 6 0.19147255233932528 4 0.39065601759721519 4 0.53576971688872876 4 0.68629239385032703 4 0.8421337766196284 4 1 6
1 6.2831853071795862 25.061047452028561 -1 0 
2 -1.1638757049582704 -0 -1.2e-16 1 1 1.2e-16 23.748170298587713
7 0 0  8 16 3  2.9123164503758643 -7.5480999999999999e-13  2.9089733461908152 1.3287512569710094  2.9079046558803623 2.6585872124606058  2.9090686176072724 3.9883176213254936  2.9124211227711685 5.3168226391344522  2.9179160827847732 6.6430496824326379  2.9255076049995958 7.9660084533108009  2.9351534494109131 9.2847660477025826  2.9633597135975798 12.461057963623935  2.9839513811836649 14.312380599635636  3.0085005664477231 16.15135549539842  3.0369540733400431 17.975988691149347  3.0692985674210829 19.783397014633223  3.1055818184531638 21.569848943457018  3.1459273024600374 23.330808031805894  3.1906213623827329 25.061047452028557 
 0 9 0.41358856613472528 7 1 9
7 0 0  8 16 3  3.071779259829265 -21.424285285628748  3.1034161950139119 -21.497833202217965  3.134998967938265 -21.582392303988712  3.1665479719015046 -21.678511289320088  3.1980844586368278 -21.786104568837938  3.2296309582271259 -21.904481545463767  3.2612116812303307 -22.032396996950364  3.2928530791518358 -22.168098264385861  3.3695758487055643 -22.509613231982001  3.414722340707423 -22.720912990906804  3.4601426220548901 -22.936991998980009  3.5059410821354033 -23.149563142089274  3.5522144675939025 -23.348329857742936  3.599058185994604 -23.520613554620525  3.6465712039070435 -23.651100885727072  3.6948734829753263 -23.719632920307419 
 0 9 0.41358856613472528 7 1 9
8 -23.642703044849601 -21.424285285628486
7 0 0  5 6 2  1.7031901916847696 26.541385602396396  1.7217921575767254 20.971809099127238  1.7407728812061087 15.532882287252733  1.7601410787689247 10.224605166773301  1.7799050958341434 5.046977737688497  1.800072530008882 -1.5054099999999999e-12 
 -23.642703044849601 6 -21.424285285628486 6
8 -23.642703044849601 -21.424285285628486
4 -121.85248972273317 0 1 0 -0 1 0.94171239554568298
7 0 0  5 26 7  1.6686151251627674 25.061047451950095  1.6713196849574941 25.061047451950095  1.6740247084239965 25.055927264831904  1.676694290277521 25.045703347197151  1.679297598011666 25.030668469352015  1.6844242631880526 24.991045907900116  1.686940698179543 24.966093611875628  1.6893337957739925 24.936859411930964  1.691588453051569 24.903907354074281  1.6952317221309201 24.841379559961119  1.6966892989602198 24.81331546904136  1.6980657061945788 24.783732735169004  1.6993593095304014 24.752809630941666  1.7018244558442717 24.687395369930115  1.7029896130907001 24.652815241456327  1.7040639547842467 24.617133411485831  1.7050473332562543 24.580503932056473  1.7068639617758017 24.504293735620319  1.7076906424271177 24.46465571247743  1.7084201075597569 24.424294441810691  1.7090525833478398 24.383343763049808  1.7101310477417495 24.299964481897383  1.7105744810735826 24.257524774173863  1.7109188802853361 24.214728390949357  1.7111643175615501 24.171693546563979  1.7113106920264909 24.12853236581244 
 0 6 0.19147255233928628 4 0.39065601759716129 4 0.53576971688870778 4 0.68629239385027385 4 0.84213377661960898 4 1 6
7 0 0  5 26 7  4.7123889803846888 -23.634643476180845  4.7763102868930645 -23.628370751121249  4.8401860116480195 -23.621525422183868  4.903708955583606 -23.614192133866343  4.9666775812960928 -23.606486872088425  5.0936614337497099 -23.59025383830291  5.1576295807845023 -23.581703698909529  5.220667386449394 -23.573011523478733  5.2827377673772462 -23.564299201973888  5.3883986222780704 -23.549369739969851  5.4324322932852338 -23.543117244995472  5.4759792355962515 -23.536941430943077  5.5190646001639898 -23.530873101852244  5.6059736515046659 -23.518780019344977  5.6497636354661376 -23.512765516632243  5.6931343553259195 -23.506921514086187  5.7361283754499279 -23.501270601491377  5.8229670557269717 -23.490199185016927  5.866787083863831 -23.484794086966708  5.9103062591098023 -23.479635787694285  5.9535772440274997 -23.474740970548076  6.0402886647367566 -23.46544486249763  6.0837236009600648 -23.461050982814321  6.1270128443453391 -23.456955185713799  6.170210956348277 -23.453169204915405  6.2133721370998138 -23.449702600701944 
 0 6 0.19147255233928628 4 0.39065601759716129 4 0.53576971688870778 4 0.68629239385027385 4 0.84213377661960898 4 1 6
1 6.2831853071795862 25.061047452028561 -1 0 
2 -1.1638757049582722 0 -1 -1.1e-16 -1.1e-16 1 23.748170298587713
8 -23.642703044849601 -21.42428528562855
7 0 0  5 6 2  0.13239386488987298 26.541385602396396  0.15099583078182832 20.971809099127398  0.16997655441121196 15.532882287253216  0.18934475197402034 10.224605166773813  0.2091087690392445 5.0469777376891072  0.22927620321398243 -7.6452999999999997e-13 
 -23.642703044849601 6 -21.42428528562855 6
8 -23.642703044849601 -21.42428528562855
4 -121.85248972273317 -3.4529999999999999e-14 1 2.2e-16 -2.2e-16 1 0.94171239554568298
7 0 0  5 26 7  0.097818798367870996 25.061047451950092  0.10052335816259772 25.061047451950092  0.10322838162909961 25.055927264831894  0.10589796348262483 25.045703347197147  0.10850127121676935 25.030668469352008  0.11362793639315669 24.991045907900105  0.11614437138464544 24.966093611875632  0.11853746897909689 24.93685941193095  0.12079212625667209 24.903907354074281  0.12443539533602438 24.841379559961101  0.12589297216532172 24.813315469041385  0.12726937939968391 24.783732735168972  0.1285629827355044 24.75280963094167  0.13102812904937508 24.687395369930108  0.13219328629580429 24.652815241456327  0.13326762798934982 24.617133411485817  0.13425100646135779 24.580503932056473  0.13606763498090535 24.504293735620308  0.13689431563222088 24.46465571247743  0.13762378076486023 24.42429444181068  0.13825625655294355 24.383343763049794  0.13933472094685312 24.299964481897369  0.13977815427868606 24.257524774173863  0.14012255349043962 24.214728390949357  0.14036799076665357 24.171693546563965  0.14051436523159438 24.128532365812433 
 0 6 0.19147255233927155 4 0.39065601759715551 4 0.53576971688874775 4 0.68629239385028895 4 0.84213377661959532 4 1 6
7 0 0  5 26 7  4.7123889803846888 -23.634643476180845  4.776310286893068 -23.628370751121249  4.8401860116480089 -23.621525422183868  4.9037089555836157 -23.614192133866343  4.9666775812960893 -23.606486872088425  5.0936614337497215 -23.59025383830291  5.1576295807844765 -23.581703698909532  5.2206673864494189 -23.57301152347873  5.2827377673772364 -23.564299201973892  5.3883986222780909 -23.549369739969848  5.4324322932851823 -23.543117244995479  5.4759792355963022 -23.536941430943074  5.5190646001639738 -23.530873101852244  5.6059736515046623 -23.518780019344977  5.6497636354661438 -23.512765516632243  5.6931343553259213 -23.506921514086187  5.7361283754499244 -23.501270601491377  5.8229670557269761 -23.490199185016927  5.8667870838638283 -23.484794086966708  5.9103062591097997 -23.479635787694285  5.9535772440275041 -23.474740970548073  6.040288664736762 -23.46544486249763  6.083723600960063 -23.461050982814321  6.1270128443453347 -23.456955185713799  6.1702109563482814 -23.453169204915405  6.2133721370998138 -23.449702600701944 
 0 6 0.19147255233927155 4 0.39065601759715551 4 0.53576971688874775 4 0.68629239385028895 4 0.84213377661959532 4 1 6
1 6.2831853071795862 25.061047452028561 -1 0 
2 -1.1638757049582722 -1.7800000000000001e-15 0 -1 -1 -0 23.748170298587713
7 0 0  4 5 2  0 23.049840227804356  0.011647403352397671 23.556747845974112  0.02369634298961909 24.061084304108547  0.036153788445046693 24.562621156527932  0.049028708792939753 25.061047452028554 
 0 5 1 5
7 0 0  4 5 2  3.6396413075629792 -23.607875574657118  3.6533460360744421 -23.643235662614675  3.6671174229849068 -23.674145866427864  3.6809591508090049 -23.699891046599209  3.6948734829753263 -23.719632920307419 
 0 5 1 5
1 6.2831853071795862 0 0 1 
1 0 0 0 1 
2 0 0 1 0 -0 1 24.097804358305314
1 0 30.073256942435165 1 0 
7 0 0  7 14 3  6.0539091039656556 0  6.0500884134684565 1.5185728651113146  6.0493002748040459 3.0385919949085376  6.0514778690329116 4.5581529971816508  6.0565496836889938 6.0754922810870315  6.0644404908504779 7.5889786846693346  6.0750795618062678 9.0970977592540301  6.1045895966228381 12.420206569627037  6.1247278877292377 14.231446489448912  6.1487324981921052 16.030560550445415  6.1765458045831885 17.815247380131161  6.2081615780227386 19.58253369117341  6.24364018337796 21.328793578176274  6.2831853071795862 23.049840227804356 
 0 8 0.45178969249941875 6 1 8
7 0 0  7 14 3  3.0717792598292832 -21.424285285628802  3.1079357571831827 -21.508340047445095  3.1440200381899044 -21.60707638950284  3.1800647321286251 -21.721372229211465  3.2161041851450261 -21.850836908464377  3.2521755800304555 -21.99388927379475  3.2883199848304328 -22.14792016641977  3.3685890905074709 -22.505220889317531  3.4127573406236369 -22.711925261456464  3.4571955924952951 -22.923130034441137  3.5020016308270119 -23.130373054216591  3.5472728857113167 -23.322938387225072  3.5931111781207008 -23.487821429229921  3.6396413075629792 -23.607875574657118 
 0 8 0.45178969249941875 6 1 8
1 6.2133721370998138 0 0 -1 
1 4.7123889803846888 0 0 -1 
1 0 0 1 0 
1 0 -3 1 0 
1 0 0 1 0 
1 0 -3 1 0 
1 0 0 1 0 
1 0 -3 1 0 
1 0 0 1 0 
1 0 -3 1 0 
2 0 0 -1 0 0 1 3.5
1 0 0 1 0 
1 4.7123889803846897 0 0 -1 
1 4.7123889803846897 0 0 -1 
1 3.1415926535897936 0 0 -1 
1 6.2831853071795862 0 0 -1 
1 3.1415926535897936 0 0 -1 
1 2e-16 0 0 -1 
1 1.5707963267948963 0 0 -1 
1 1.5707963267948968 0 0 -1 
1 6.2831853071795862 0 0 1 
1 0 0 0 1 
1 0 1 1 0 
2 0 0 1 0 -0 1 3.5
2 -21.75 -21.75 1 0 0 -1 1.55
1 6.2831853071795862 2 -1 0 
2 21.75 -21.75 1 0 0 -1 1.55
1 6.2831853071795862 2 -1 0 
2 -21.75 21.75 1 0 0 -1 1.55
1 6.2831853071795862 2 -1 0 
2 21.75 21.75 1 0 0 -1 1.55
1 6.2831853071795862 2 -1 0 
2 0 0 1 0 -0 1 1.55
1 0 0 1 0 
1 6.2831853071795862 0 0 1 
1 0 0 0 1 
Curves 70
2 0 0 33 0 0 1 0 -1 0 1 0 -0 15
1 -4.9999999999989555 7.3300000000000004e-15 32.999999999999972 -0 -1 2.2e-16 
2 0 0 33 0 0 1 0 -1 0 1 0 -0 22
1 5 7.3300000000000004e-15 33 -0 -1 2.2e-16 
5 7.7999999999999995e-16 3.2737898060317039 -85.320706694238282 -2.4e-16 -0.99756405025982409 -0.069756473744129022 -1.9999999999999998e-17 -0.069756473744129022 0.99756405025982409 -1 2.408105015372403e-16 -3.2097273066055144e-18 23.351106986284126 2.8397912230686337
7 0 0  5 34 9  -11.249888113930457 -2.3193146152011828 8.0000000000790124  -11.248944328762471 -2.3238924665516785 8.0000000000790124  -11.248001820802434 -2.3284705812519904 8.0000261959827448  -11.247060650448804 -2.3330486705335369 8.0000785938178893  -11.246120878420404 -2.3376264456467588 8.0001571932573263  -11.236319982297395 -2.385436084301809 8.0012517949756816  -11.227587241462151 -2.4286165335069834 8.0045785789778172  -11.219036829999162 -2.4714962558240541 8.0102368184998607  -11.210720769573314 -2.5138424700567983 8.0181690945558604  -11.194501685899386 -2.5978439325570615 8.0385816724915351  -11.186609079483706 -2.639473141834801 8.0511467038195867  -11.179061488319896 -2.6801136313120302 8.0658723134460857  -11.171903074242055 -2.7195899069393126 8.0826212233153338  -11.157172810765232 -2.8031066071408253 8.1233641073655356  -11.149775505974546 -2.8466132868215048 8.1481284274685137  -11.143038019771783 -2.888058798705349 8.1752889793155639  -11.137002958349736 -2.9273005620227033 8.2045815044907986  -11.127218259107819 -2.99546070282301 8.2621014082556279  -11.123259273430801 -3.0250357511094883 8.2897876068077654  -11.119838858736449 -3.0529221215288018 8.3186747327623891  -11.116967393193944 -3.0790916707404943 8.3486244120617972  -11.112261313142628 -3.1287292872693171 8.4113599350241692  -11.11046181017455 -3.1520873737114332 8.4442045006483006  -11.109257509681973 -3.1735918289488807 8.477909432516622  -11.108649677627344 -3.1932393893003144 8.5123506795139328  -11.108620198435231 -3.2294261581715147 8.5836492483182916  -11.109238832146227 -3.2458393760952093 8.6205483252039468  -11.110487723429799 -3.2602832466820586 8.6579913408958351  -11.112360051504822 -3.2727680453626475 8.6958663132433927  -11.117367082550263 -3.2939998465604119 8.7728318586007994  -11.120519781286346 -3.3026895186074876 8.8119314827740034  -11.124292986889532 -3.309390392559763 8.8512649825145076  -11.128673210349081 -3.3141158337513907 8.8907331921321813  -11.133644114667534 -3.316878665461009 8.9302435263348894 
 0 6 0.01391853270030801 4 0.14538234260073629 4 0.27935985874864722 4 0.4384917920733804 4 0.57291129771438476 4 0.71150761630533155 4 0.85471465879387809 4 1 6
2 0 0 8.0000000000007425 -0 -0 -1 0 -1 0 -1 0 0 11.486479132440319
7 0 0  8 23 4  -14.142135623731319 4.9999999999989555 33.000000000000028  -13.995415824048852 5.059035269308394 32.155759029979833  -13.854428725609269 5.0986507556619989 31.309843032251919  -13.71978998777166 5.1188063603382536 30.462465468961128  -13.592007702551745 5.1194365605227699 29.613867032526773  -13.471458677414299 5.1004563416959492 28.764319036281979  -13.358364718065602 5.0617671300206712 27.914126805112915  -13.252768911245878 5.0032627247299759 27.063633066098003  -13.041656405294141 4.8347553999414323 25.236459999927774  -12.938478830563634 4.7183899571295447 24.259776711021978  -12.844742293358173 4.5755739053271824 23.283758002105806  -12.759849883834224 4.4061357843261613 22.308999929818608  -12.68281627644223 4.2098974890211629 21.33611067577705  -12.61224565796738 3.9866736046938991 20.365712550871873  -12.54631597944568 3.7362702590222754 19.398443405847708  -12.393970944208249 3.0703095851777906 17.088600637750933  -12.309891791755765 2.6289594119332245 15.750652861655061  -12.224269863130194 2.1336341677167923 14.421549670291107  -12.129265499401093 1.5835047111324148 13.102854298096146  -12.015274388506931 0.97802439373884553 11.7971983865555  -11.870456797450485 0.31728628184005125 10.508252149249863  -11.680667745016278 -0.39761980611289138 9.2406422386816889  -11.427361734162211 -1.1638757049582722 8.0000000000007461 
 0 9 0.26641298349871012 7 0.5724081788856108 7 1 9
5 3.2737898060317039 -3.9999999999999999e-16 -85.320706694238282 -0.99756405025982409 1.2e-16 -0.069756473744129022 -0.069756473744129022 1.0000000000000001e-17 0.99756405025982409 1.2040525076862015e-16 1 -1.604863653302758e-18 23.351106986284126 2.8397912230686337
7 0 0  5 34 9  -2.3193146152011841 11.249888113930457 8.0000000000790106  -2.3238924665516789 11.248944328762471 8.0000000000790106  -2.3284705812519908 11.248001820802434 8.0000261959827412  -2.3330486705335378 11.247060650448804 8.0000785938178858  -2.3376264456467597 11.246120878420404 8.0001571932573228  -2.3854360843018165 11.236319982297394 8.0012517949756798  -2.4286165335069714 11.227587241462155 8.0045785789778137  -2.4714962558240687 11.219036829999158 8.0102368184998607  -2.5138424700567916 11.210720769573316 8.0181690945558568  -2.5978439325570628 11.194501685899386 8.0385816724915333  -2.639473141834813 11.186609079483706 8.0511467038195867  -2.6801136313120129 11.179061488319897 8.0658723134460768  -2.7195899069393232 11.171903074242053 8.0826212233153356  -2.8031066071408173 11.157172810765234 8.1233641073655285  -2.8466132868215275 11.14977550597454 8.1481284274685226  -2.8880587987053317 11.143038019771787 8.1752889793155479  -2.9273005620227108 11.137002958349735 8.2045815044908021  -2.9954607028230105 11.127218259107819 8.2621014082556261  -3.0250357511094905 11.123259273430801 8.2897876068077654  -3.0529221215288018 11.119838858736451 8.318674732762382  -3.0790916707404956 11.116967393193944 8.3486244120617954  -3.1287292872693175 11.112261313142628 8.4113599350241675  -3.1520873737114341 11.11046181017455 8.4442045006483006  -3.173591828948882 11.109257509681973 8.4779094325166167  -3.1932393893003157 11.108649677627344 8.5123506795139274  -3.2294261581715182 11.108620198435231 8.5836492483182916  -3.2458393760952085 11.109238832146227 8.6205483252039379  -3.2602832466820573 11.110487723429802 8.657991340895828  -3.2727680453626506 11.112360051504824 8.6958663132433944  -3.2939998465604119 11.117367082550263 8.7728318586007923  -3.3026895186074881 11.120519781286346 8.8119314827740034  -3.3093903925597643 11.124292986889532 8.8512649825145058  -3.3141158337513921 11.12867321034908 8.8907331921321706  -3.3168786654610103 11.133644114667534 8.9302435263348858 
 0 6 0.013918532700306369 4 0.14538234260073851 4 0.27935985874863017 4 0.43849179207334399 4 0.57291129771435489 4 0.71150761630530657 4 0.85471465879386721 4 1 6
2 0 0 8.0000000000007425 -0 -0 -1 0 -1 0 -1 0 0 11.486479132440319
7 0 0  8 23 4  4.9999999999989555 14.142135623731319 33.000000000000021  5.0590352693083869 13.995415824048877 32.155759029979954  5.0986507556619856 13.854428725609253 31.309843032251766  5.118806360338251 13.719789987771632 30.462465468960943  5.1194365605227805 13.592007702551742 29.613867032526823  5.1004563416959634 13.471458677414322 28.764319036282224  5.0617671300206704 13.358364718065618 27.914126805113042  5.0032627247299564 13.252768911245854 27.063633066097776  4.8347553999414323 13.041656405294148 25.236459999927789  4.7183899571296095 12.938478830563653 24.259776711022212  4.5755739053271487 12.844742293358165 23.283758002105639  4.4061357843260813 12.7598498838342 22.308999929818281  4.2098974890211833 12.682816276442235 21.336110675777139  3.9866736046939892 12.612245657967406 20.365712550872253  3.7362702590222105 12.546315979445668 19.398443405847477  3.0703095851795066 12.393970944208641 17.088600637756876  2.6289594119256612 12.309891791752957 15.750652861633931  2.1336341677313495 12.224269863137049 14.421549670326028  1.5835047111175333 12.129265499392668 13.10285429806455  0.9780243937466131 12.015274388512323 11.797198386570322  0.31728628183875851 11.870456797449087 10.508252149247653  -0.39761980611323144 11.680667745016168 9.2406422386811347  -1.1638757049582722 11.427361734162213 8.0000000000007425 
 0 9 0.26641298349914688 7 0.57240817888661222 7 1 9
5 -3.5999999999999998e-16 -3.2737898060317323 -85.32070669423841 1.1e-16 0.99756405025982409 -0.069756473744129244 1.0000000000000001e-17 0.069756473744129244 0.99756405025982409 1 -1.1042961026602192e-16 -2.3024283907440247e-18 23.351106986284336 2.8397912230686564
7 0 0  5 34 9  11.249888113930457 2.3193146152011872 8.0000000000790106  11.248944328762471 2.3238924665516825 8.0000000000790106  11.248001820802434 2.3284705812519944 8.0000261959827412  11.247060650448802 2.3330486705335409 8.0000785938178858  11.246120878420404 2.3376264456467619 8.0001571932573228  11.236319982297394 2.3854360843018174 8.0012517949756798  11.227587241462151 2.4286165335069732 8.0045785789778119  11.219036829999162 2.4714962558240776 8.0102368184998625  11.210720769573314 2.5138424700567925 8.0181690945558568  11.194501685899384 2.5978439325570686 8.0385816724915333  11.186609079483711 2.639473141834805 8.0511467038195832  11.179061488319892 2.680113631312028 8.0658723134460804  11.171903074242055 2.7195899069393228 8.0826212233153338  11.157172810765235 2.8031066071408075 8.1233641073655232  11.149775505974535 2.8466132868215572 8.1481284274685368  11.14303801977179 2.8880587987053108 8.1752889793155337  11.137002958349735 2.9273005620227197 8.2045815044908075  11.127218259107819 2.9954607028230096 8.2621014082556226  11.123259273430799 3.0250357511095034 8.2897876068077707  11.119838858736451 3.0529221215287929 8.3186747327623749  11.116967393193944 3.0790916707405018 8.3486244120617989  11.112261313142628 3.1287292872693211 8.4113599350241675  11.11046181017455 3.1520873737114368 8.4442045006482971  11.109257509681973 3.1735918289488851 8.4779094325166184  11.108649677627344 3.1932393893003193 8.512350679513931  11.108620198435231 3.2294261581715227 8.5836492483182987  11.109238832146225 3.2458393760952111 8.6205483252039379  11.110487723429802 3.2602832466820595 8.6579913408958245  11.112360051504824 3.2727680453626524 8.6958663132433962  11.117367082550263 3.293999846560415 8.7728318586007958  11.120519781286346 3.3026895186074912 8.8119314827740034  11.124292986889534 3.3093903925597665 8.851264982514504  11.12867321034908 3.3141158337513943 8.8907331921321706  11.133644114667533 3.3168786654610125 8.9302435263348858 
 0 6 0.01391853270031105 4 0.14538234260075647 4 0.27935985874866281 4 0.43849179207333489 4 0.5729112977143167 4 0.71150761630525772 4 0.85471465879383413 4 1 6
2 0 0 8.0000000000007425 -0 -0 -1 0 -1 0 -1 0 0 11.486479132440319
7 0 0  8 23 4  14.142135623731308 -4.9999999999989484 33.000000000000028  13.995415824048862 -5.0590352693083851 32.15575902997989  13.854428725609246 -5.0986507556619802 31.309843032251813  13.71978998777163 -5.1188063603382439 30.462465468961028  13.59200770255174 -5.1194365605227752 29.613867032526855  13.471458677414313 -5.100456341695959 28.764319036282178  13.358364718065603 -5.0617671300206659 27.914126805112975  13.252768911245839 -5.0032627247299484 27.063633066097779  13.041656405294185 -4.8347553999414687 25.23645999992824  12.938478830563552 -4.718389957129455 24.259776711021274  12.844742293358145 -4.5755739053271878 23.283758002105692  12.759849883834265 -4.4061357843262332 22.308999929819194  12.682816276442232 -4.2098974890211327 21.336110675777146  12.612245657967318 -3.9866736046937912 20.365712550871297  12.546315979445694 -3.73627025902235 19.398443405847992  12.393970944208542 -3.0703095851791082 17.088600637755519  12.309891791753948 -2.6289594119290487 15.750652861642214  12.224269863133991 -2.1336341677213255 14.421549670305037  12.129265499397411 -1.5835047111332621 13.102854298094464  12.01527438850802 -0.97802439373232453 11.797198386544935  11.870456797451247 -0.31728628184591923 10.508252149259738  11.680667745015667 0.39761980611474623 9.2406422386786815  11.427361734162213 1.1638757049582722 8.0000000000007425 
 0 9 0.26641298349917436 7 0.57240817888654272 7 1 9
5 -3.2737898060317323 4.9999999999999999e-17 -85.32070669423841 0.99756405025982409 -2.0000000000000001e-17 -0.069756473744129244 0.069756473744129244 -1.4075999499549966e-35 0.99756405025982409 -1.9951281005196481e-17 -1 1.3951294748825847e-18 23.351106986284336 2.8397912230686564
7 0 0  5 34 9  2.3193146152011885 -11.249888113930457 8.0000000000790124  2.3238924665516838 -11.248944328762471 8.0000000000790124  2.3284705812519961 -11.248001820802434 8.0000261959827448  2.3330486705335427 -11.247060650448802 8.0000785938178893  2.3376264456467633 -11.246120878420404 8.0001571932573263  2.3854360843018161 -11.236319982297394 8.0012517949756816  2.4286165335069758 -11.227587241462151 8.0045785789778154  2.4714962558240816 -11.219036829999162 8.010236818499866  2.5138424700567912 -11.210720769573314 8.0181690945558568  2.597843932557065 -11.194501685899384 8.0385816724915351  2.6394731418348192 -11.186609079483709 8.0511467038195903  2.6801136313120151 -11.179061488319894 8.0658723134460786  2.7195899069393286 -11.171903074242053 8.0826212233153392  2.8031066071408048 -11.157172810765237 8.1233641073655232  2.8466132868215688 -11.149775505974535 8.1481284274685457  2.8880587987052992 -11.143038019771792 8.1752889793155283  2.9273005620227277 -11.137002958349733 8.2045815044908146  2.995460702823038 -11.127218259107815 8.2621014082556474  3.0250357511094497 -11.123259273430806 8.2897876068077263  3.0529221215288387 -11.119838858736443 8.3186747327624229  3.079091670740489 -11.116967393193944 8.348624412061783  3.1287292872693171 -11.112261313142628 8.4113599350241621  3.1520873737114394 -11.11046181017455 8.444204500648306  3.1735918289488878 -11.109257509681973 8.4779094325166255  3.1932393893003175 -11.108649677627344 8.5123506795139257  3.2294261581715213 -11.108620198435231 8.5836492483182933  3.245839376095212 -11.109238832146225 8.6205483252039432  3.2602832466820617 -11.110487723429799 8.6579913408958316  3.2727680453626533 -11.112360051504822 8.6958663132433944  3.2939998465604177 -11.117367082550263 8.7728318586008047  3.3026895186074912 -11.120519781286346 8.8119314827739998  3.3093903925597665 -11.124292986889532 8.8512649825145022  3.3141158337513956 -11.12867321034908 8.8907331921321795  3.3168786654610138 -11.133644114667533 8.9302435263348876 
 0 6 0.01391853270031107 4 0.14538234260075006 4 0.27935985874862668 4 0.43849179207327305 4 0.57291129771437421 4 0.71150761630532822 4 0.85471465879386332 4 1 6
2 0 0 8.0000000000007425 -0 -0 -1 0 -1 0 -1 0 0 11.486479132440319
7 0 0  5 6 2  -4.9900000000000002e-15 -11.768447336874903 10.006308024509647  0.22097999265013135 -11.711333798317568 9.599924081520566  0.44795288762921226 -11.649358170692894 9.1958503235434215  0.680851693883744 -11.581862719301384 8.7943058503088611  0.91955757584823083 -11.508127508047211 8.395574626057341  1.1638757049582722 -11.427361734162211 8.0000000000007461 
 0 6 1 6
1 -15 33 0 0.13917310096006538 -0.99026806874157036 0 
2 0 0 3 0 0 1 0 -1 0 1 0 -0 10.783774958928259
7 0 0  7 20 4  -4.9999999999989582 -14.142135623731319 33  -5.0674688792097458 -13.974455852665653 32.035153177119795  -5.1090447144793938 -13.814419683257118 31.068072983962502  -5.1246633478535415 -13.663012170480343 30.099100959960179  -5.1142097731919884 -13.521003234623111 29.128633105093449  -5.0775339558692307 -13.388884415399597 28.157128921596527  -5.0144666524749892 -13.266805626063585 27.185120455662251  -4.8218868527167151 -13.02553419069025 25.096922665754079  -4.6838909919336418 -12.90946037718796 23.980728059443589  -4.5105836533633452 -12.805911443060264 22.865575967703045  -4.301687915289226 -12.713788324608315 21.752423891935507  -4.0569134452409523 -12.631196196165428 20.642255315513015  -3.7759540830520684 -12.5553940433729 19.536084256945571  -3.1033749074447483 -12.40153496094938 17.203285631193921  -2.7026827848583914 -12.324298441719929 15.978265671673377  -2.2558393972633057 -12.245954506131508 14.760812377271606  -1.7622832591690525 -12.16009308242263 13.552462685186072  -1.2216568807552535 -12.058739865455832 12.355356974395054  -0.63398146561971203 -11.932303459988429 11.17220492173888  -5.3300000000000002e-15 -11.768447336874903 10.006308024509647 
 0 8 0.29126330982505122 6 0.62580095971159833 6 1 8
1 1.1638757049582722 1.7800000000000001e-15 8.0000000000007425 -0 -1 2.2e-16 
7 0 0  8 16 3  21.424285285628745 -4.9999999999988987 33.000000000000746  21.49783320221799 -5.0926893001102238 31.674485514307595  21.582392303988478 -5.1372939732781804 30.347888972371599  21.678511289320486 -5.1340194625762505 29.021397719943291  21.786104568837814 -5.0830048105872612 27.69612887359321  21.904481545463359 -4.9843080773990378 26.373132452719933  22.032396996950865 -4.8378888393879018 25.053396342905785  22.168098264385634 -4.6435826684075394 23.737851175740918  22.509613231982406 -4.057202392779101 20.569296547281027  22.720912990905511 -3.6166152848304591 18.722483640180769  22.936991998981622 -3.0783027385564701 16.887988394806818  23.149563142088592 -2.440399443986272 15.067799913837622  23.348329857742577 -1.7004555774214865 13.264794346192957  23.520613554620944 -0.85550787068501588 11.482694124463166  23.651100885726954 0.097833840711631481 9.7260246439603648  23.719632920307422 1.1638757049582722 8.0000000000007425 
 0 9 0.41358856613459505 7 1 9
4 -3.2100000000000001e-15 -13.500000000000574 154.55566318205319 -2.4e-16 -0.99756405025982409 -0.069756473744129022 1.9999999999999998e-17 0.069756473744129022 -0.99756405025982409 1 -2.408105015372403e-16 3.2097273066055144e-18 0.9417123955456832
7 0 0  5 26 7  -23.634643476180845 -2.3193146152011801 8.0000000000790159  -23.628370751121249 -2.3832359217095505 8.0000000000790159  -23.621525422183868 -2.4471121113695791 8.0051077146787382  -23.614192133866343 -2.5100888123663365 8.0153067273639724  -23.606486872088425 -2.5714360653892068 8.0303049810023328  -23.59025383830291 -2.6921116251265751 8.0698310238859623  -23.581703698909532 -2.7512713448799357 8.094722537371414  -23.57301152347873 -2.8074546088454024 8.1238855242743497  -23.564299201973892 -2.8603121153523419 8.1567573125742321  -23.549369739969851 -2.9455970249751093 8.2191327921235757  -23.543117244995472 -2.9796756418968657 8.2471285203283706  -23.536941430943077 -3.011815061503067 8.2766391921478082  -23.530873101852244 -3.0419801902236152 8.3074869692474511  -23.518780019344977 -3.0993821000565784 8.3727418844068922  -23.512765516632246 -3.1264669172063955 8.4072377774256903  -23.506921514086187 -3.1513942101408841 8.4428326882517641  -23.501270601491377 -3.1741642004784336 8.4793729401102098  -23.490199185016927 -3.2161311380698159 8.5553974923381624  -23.484794086966708 -3.235172542202355 8.5949389592488661  -23.479635787694285 -3.2519158399842936 8.635201911888819  -23.474740970548073 -3.2663699282201306 8.6760528368544154  -23.46544486249763 -3.2908769610391859 8.7592290102685801  -23.461050982814321 -3.3008696834355176 8.801565336997097  -23.456955185713799 -3.3085317185871252 8.8442574703830044  -23.453169204915405 -3.3138678936891468 8.8871874840503899  -23.449702600701944 -3.3168786654610058 8.9302435263348912 
 0 6 0.19147255233929794 4 0.39065601759718549 4 0.53576971688871222 4 0.68629239385026597 4 0.8421337766195941 4 1 6
2 0 0 8.0000000000007425 -0 -0 -1 0 -1 0 -1 0 0 23.748170298587713
7 0 0  8 16 3  -21.424285285628745 4.9999999999989129 33.000000000000746  -21.497833202217983 5.0926893001102203 31.674485514307836  -21.582392303988748 5.1372939732780498 30.347888972369521  -21.678511289320031 5.1340194625766431 29.021397719946965  -21.786104568837896 5.0830048105871048 27.696128873592418  -21.90448154546382 4.9843080773986825 26.37313245271627  -22.032396996950432 4.8378888393884356 25.053396342909569  -22.168098264385769 4.6435826684073307 23.737851175739713  -22.509613231982506 4.0572023927789553 20.569296547280167  -22.720912990905241 3.6166152848315845 18.722483640183711  -22.936991998982258 3.078302738552094 16.887988394797951  -23.149563142087445 2.4403994439957613 15.067799913855458  -23.348329857743792 1.7004555774100547 13.264794346172273  -23.520613554620308 0.8555078706925876 11.482694124476225  -23.651100885727097 -0.09783384071395762 9.7260246439565883  -23.719632920307415 -1.1638757049582651 8.0000000000007461 
 0 9 0.41358856613425876 7 1 9
4 -13.500000000000574 1.65e-15 154.55566318205319 -0.99756405025982409 1.2e-16 -0.069756473744129022 0.069756473744129022 -1.0000000000000001e-17 -0.99756405025982409 -1.2040525076862015e-16 -1 1.604863653302758e-18 0.9417123955456832
7 0 0  5 26 7  -2.3193146152011836 23.634643476180845 8.0000000000790106  -2.3832359217095656 23.628370751121249 8.0000000000790106  -2.4471121113695524 23.621525422183872 8.0051077146787311  -2.510088812366368 23.614192133866339 8.0153067273639724  -2.5714360653892019 23.606486872088425 8.0303049810023239  -2.6921116251265786 23.59025383830291 8.069831023885957  -2.751271344879938 23.581703698909532 8.0947225373714087  -2.8074546088454055 23.57301152347873 8.1238855242743462  -2.8603121153523432 23.564299201973892 8.156757312574225  -2.9455970249751102 23.549369739969851 8.2191327921235686  -2.979675641896872 23.543117244995472 8.2471285203283724  -3.0118150615030652 23.536941430943077 8.276639192147794  -3.041980190223621 23.530873101852244 8.3074869692474511  -3.09938210005659 23.518780019344977 8.3727418844068975  -3.1264669172063804 23.512765516632246 8.4072377774256601  -3.1513942101409049 23.506921514086184 8.4428326882517872  -3.1741642004784305 23.501270601491381 8.4793729401101956  -3.2161311380698159 23.490199185016927 8.5553974923381517  -3.2351725422023589 23.484794086966708 8.5949389592488679  -3.2519158399842985 23.479635787694285 8.6352019118888208  -3.2663699282201319 23.474740970548076 8.6760528368544065  -3.2908769610391895 23.46544486249763 8.7592290102685801  -3.3008696834355198 23.461050982814321 8.8015653369970881  -3.308531718587127 23.456955185713799 8.8442574703829955  -3.3138678936891486 23.453169204915405 8.8871874840503882  -3.316878665461009 23.449702600701944 8.9302435263348858 
 0 6 0.19147255233932528 4 0.39065601759721519 4 0.53576971688872876 4 0.68629239385032703 4 0.8421337766196284 4 1 6
2 0 0 8.0000000000007425 -0 -0 -1 0 -1 0 -1 0 0 23.748170298587713
7 0 0  8 16 3  4.9999999999989058 21.424285285628748 33.000000000000746  5.0926893001101909 21.497833202217965 31.674485514308163  5.137293973278247 21.582392303988687 30.347888972368303  5.1340194625763722 21.678511289320117 29.021397719948794  5.0830048105870063 21.786104568837953 27.696128873591945  4.9843080773989552 21.904481545463746 26.373132452714394  4.8378888393884321 22.032396996950368 25.053396342911746  4.6435826684071762 22.168098264385861 23.737851175738911  4.0572023927798186 22.509613231982001 20.569296547284871  3.6166152848289297 22.720912990906992 18.72248364016562  3.078302738556034 22.936991998979472 16.887988394830472  2.4403994439921268 23.149563142089924 15.067799913822057  1.7004555774124546 23.348329857742542 13.26479434619244  0.85550787069132772 23.520613554620631 11.482694124469742  -0.097833840713539733 23.651100885727072 9.726024643957274  -1.1638757049582722 23.719632920307419 8.0000000000007425 
 0 9 0.41358856613472528 7 1 9
4 1.4999999999999999e-15 13.500000000000613 154.55566318205325 1.1e-16 0.99756405025982409 -0.069756473744129244 -1.0000000000000001e-17 -0.069756473744129244 -0.99756405025982409 -1 1.1042961026602192e-16 2.3024283907440247e-18 0.94171239554568298
7 0 0  5 26 7  23.634643476180845 2.3193146152011859 8.0000000000790106  23.628370751121249 2.3832359217095616 8.0000000000790106  23.621525422183868 2.4471121113695773 8.0051077146787346  23.614192133866347 2.5100888123663383 8.0153067273639653  23.606486872088425 2.5714360653892188 8.0303049810023293  23.59025383830291 2.6921116251265733 8.0698310238859552  23.581703698909532 2.7512713448799651 8.0947225373714176  23.573011523478733 2.8074546088453838 8.1238855242743355  23.564299201973888 2.8603121153523539 8.1567573125742321  23.549369739969851 2.9455970249751164 8.2191327921235722  23.543117244995472 2.979675641896868 8.2471285203283653  23.536941430943077 3.0118150615030737 8.2766391921478011  23.530873101852244 3.0419801902236214 8.3074869692474493  23.518780019344977 3.0993821000565811 8.372741884406885  23.512765516632243 3.1264669172064052 8.4072377774256903  23.506921514086187 3.1513942101408881 8.4428326882517553  23.501270601491377 3.1741642004784403 8.479372940110208  23.490199185016927 3.2161311380698194 8.5553974923381553  23.484794086966708 3.2351725422023612 8.5949389592488643  23.479635787694285 3.2519158399843002 8.6352019118888172  23.474740970548076 3.2663699282201351 8.6760528368544083  23.46544486249763 3.2908769610391899 8.7592290102685748  23.461050982814321 3.3008696834355229 8.8015653369970899  23.456955185713799 3.3085317185871306 8.844257470382999  23.453169204915405 3.3138678936891508 8.8871874840503864  23.449702600701944 3.3168786654610107 8.9302435263348858 
 0 6 0.19147255233928628 4 0.39065601759716129 4 0.53576971688870778 4 0.68629239385027385 4 0.84213377661960898 4 1 6
2 0 0 8.0000000000007425 -0 -0 -1 0 -1 0 -1 0 0 23.748170298587713
4 13.500000000000613 -2.1000000000000001e-16 154.55566318205325 0.99756405025982409 -2.0000000000000001e-17 -0.069756473744129244 -0.069756473744129244 1.4075999499549966e-35 -0.99756405025982409 1.9951281005196481e-17 1 -1.3951294748825847e-18 0.94171239554568298
7 0 0  5 26 7  2.3193146152011885 -23.634643476180841 8.0000000000790159  2.3832359217095678 -23.628370751121246 8.0000000000790159  2.4471121113695724 -23.621525422183865 8.0051077146787382  2.5100888123663481 -23.614192133866339 8.0153067273639724  2.5714360653892188 -23.606486872088421 8.0303049810023328  2.6921116251265866 -23.590253838302907 8.0698310238859641  2.7512713448799428 -23.581703698909529 8.0947225373714122  2.80745460884541 -23.573011523478726 8.1238855242743533  2.8603121153523485 -23.564299201973888 8.1567573125742303  2.945597024975136 -23.549369739969844 8.2191327921235882  2.9796756418968382 -23.543117244995475 8.2471285203283422  3.0118150615031061 -23.53694143094307 8.2766391921478366  3.0419801902236134 -23.53087310185224 8.3074869692474422  3.0993821000565807 -23.518780019344973 8.3727418844068868  3.1264669172064172 -23.512765516632239 8.4072377774257046  3.1513942101408863 -23.506921514086184 8.4428326882517588  3.1741642004784407 -23.501270601491374 8.4793729401102098  3.2161311380698239 -23.490199185016927 8.5553974923381642  3.2351725422023621 -23.484794086966705 8.5949389592488661  3.2519158399843016 -23.479635787694281 8.6352019118888208  3.2663699282201386 -23.474740970548069 8.676052836854419  3.2908769610391944 -23.465444862497627 8.7592290102685855  3.3008696834355256 -23.461050982814317 8.8015653369970934  3.3085317185871324 -23.456955185713795 8.844257470382999  3.3138678936891544 -23.453169204915401 8.887187484050397  3.3168786654610138 -23.44970260070194 8.9302435263348912 
 0 6 0.19147255233927155 4 0.39065601759715551 4 0.53576971688874775 4 0.68629239385028895 4 0.84213377661959532 4 1 6
2 0 0 8.0000000000007425 -0 -0 -1 0 -1 0 -1 0 0 23.748170298587713
7 0 0  4 5 2  -6.4399999999999997e-15 -23.607875574657115 10.006308024509654  0.27497044911123653 -23.643235662614671 9.5006352078206699  0.56051818010997423 -23.67414586642786 8.997527287950394  0.85678335055121502 -23.699891046599205 8.4972121540963474  1.1638757049582722 -23.719632920307415 8.0000000000007461 
 0 5 1 5
1 -22 33 0 -0.069756473744125372 -0.99756405025982431 0 
2 0 0 3 0 0 1 0 -1 0 1 0 -0 24.097804358305314
7 0 0  7 14 3  -4.9999999999989475 -21.424285285628795 33  -5.1059306286975819 -21.508340047445088 31.485126302064891  -5.1477484214716869 -21.607076389502993 29.968809862472199  -5.1257820872390729 -21.721372229211063 28.452950434426647  -5.040227533935286 -21.850836908464743 26.939307312757638  -4.8911089831715886 -21.993889273794601 25.429507685985257  -4.6782284080369125 -22.147920166419766 23.925062313668978  -4.0647440332541942 -22.505220889317528 20.610048429339173  -3.6338746858541575 -22.711925261456461 18.803220598928572  -3.1074537729455174 -22.923130034441133 17.008489089364062  -2.4836771907766302 -23.130373054216587 15.228149667094133  -1.7600723543486194 -23.322938387225069 13.465168376684144  -0.93357636229321006 -23.487821429229918 11.723162290998744  -6.2200000000000001e-15 -23.607875574657115 10.006308024509654 
 0 8 0.45178969249941875 6 1 8
1 3.3168786655004228 1.9799999999999998e-15 8.9302435263348841 -0 -1 2.2e-16 
1 2.3193146152011885 1.7800000000000001e-15 8.0000000000398757 -0 -1 2.2e-16 
1 -21.5 -27.499999999999996 0 1 0 0 
2 -21.5 -21.499999999999996 0 0 0 1 1 0 -0 -0 1 0 6
2 21.5 -21.499999999999996 0 0 0 1 1 0 -0 -0 1 0 6
1 -27.5 21.499999999999996 0 0 -1 0 
1 27.5 -21.499999999999996 0 0 1 0 
2 -21.5 21.5 0 0 0 1 1 0 -0 -0 1 0 6
2 21.5 21.5 0 0 0 1 1 0 -0 -0 1 0 6
1 21.5 27.5 0 -1 0 0 
2 0 0 0 0 0 1 1 0 -0 -0 1 0 3.5
1 -21.5 -27.499999999999996 0 0 0 1 
1 21.5 -27.499999999999996 0 0 0 1 
1 -27.5 -21.5 0 0 0 1 
1 27.5 -21.499999999999996 0 0 0 1 
1 -27.5 21.499999999999996 0 0 0 1 
1 27.5 21.5 0 0 0 1 
1 -21.5 27.5 0 0 0 1 
1 21.5 27.5 0 0 0 1 
1 3.5 0 -0 0 0 -1 
2 0 0 -1 0 0 1 1 0 -0 -0 1 0 3.5
2 -21.75 -21.75 0 0 0 -1 1 0 0 0 -1 0 1.55
2 21.75 -21.75 0 0 0 -1 1 0 0 0 -1 0 1.55
2 -21.75 21.75 0 0 0 -1 1 0 0 0 -1 0 1.55
2 21.75 21.75 0 0 0 -1 1 0 0 0 -1 0 1.55
2 0 0 -1 0 0 1 1 0 -0 -0 1 0 1.55
1 1.55 0 -1 -6.0000000000000001e-17 0 -1 
Polygon3D 0
PolygonOnTriangulations 0
Surfaces 21
1 0 0 33 0 0 1 0 -1 0 1 0 -0 
3 0 0 33 -0 -0 -1 0 -1 0 1 -0 -0 15
-0.13962634015954631
2 36.897689455579084 6.6799999999999997e-15 30.070218731040605 -0 1 -2.2e-16 1 0 0 -0 2.2e-16 1 42
3 0 0 33 -0 -0 -1 0 -1 0 1 -0 -0 22
0.069813170079773251
1 5 7.3300000000000004e-15 33 0.99756405025982409 -2.0000000000000001e-17 -0.069756473744129244 -0.069756473744129244 -2.2e-16 -0.99756405025982409 4.6048567814880486e-18 1 -2.2085922053204383e-16 
2 2.3193146152011894 2.0000000000000002e-15 9.0000000000790106 -0 1 -2.2e-16 1 0 0 -0 2.2e-16 1 1
1 1.1638757049582722 1.7800000000000001e-15 8.0000000000007425 -0 2.2e-16 1 1 0 0 0 1 -2.2e-16 
1 0 0 3 0 0 1 0 -1 0 1 0 -0 
1 1.15e-15 1.4600000000000001e-15 0 0 0 1 1 0 -0 -0 1 0 
2 -21.5 -21.499999999999996 0 -0 -0 -1 1 0 0 -0 1 -0 6
2 21.5 -21.499999999999996 0 -0 -0 -1 1 0 0 -0 1 -0 6
2 -21.5 21.5 0 -0 -0 -1 1 0 0 -0 1 -0 6
2 21.5 21.5 0 -0 -0 -1 1 0 0 -0 1 -0 6
1 0 0 0 0 0 1 -1 -0 0 -0 1 -0 
2 0 0 0 -0 -0 -1 1 0 0 -0 1 -0 3.5
1 -21.5 -27.499999999999996 0 0 1 0 1 0 0 0 0 -1 
1 -27.5 21.499999999999996 0 1 0 -0 0 -1 0 0 -0 -1 
1 27.5 -21.499999999999996 0 -1 0 0 0 1 0 0 0 -1 
1 21.5 27.5 0 0 -1 0 -1 0 0 -0 -0 -1 
1 0 0 -1 0 0 1 1 0 -0 -0 1 0 
2 0 0 -1 -0 -0 -1 1 0 0 -0 1 -0 1.55
Triangulations 0

TShapes 258
Ve
1.00000343e-07
4.99999999999972 -14.1421356237311 33
0 0

0101101
*
Ve
1.00000101e-07
14.1421356237314 -4.99999999999889 33
0 0

0101101
*
Ed
 1e-07 1 1 0
1  1 0 0.3398369094541 1.23095941734085
2  1 1 0 0.3398369094541 1.23095941734085
2  2 2 0 0.3398369094541 1.23095941734085
0

0101000
+258 6 -257 7 *
Ve
1.00000887e-07
21.424285285629 -4.99999999999852 33
0 0

0101101
*
Ed
 1.00000032e-07 1 1 0
1  2 0 14.1421356237314 21.424285285629
2  3 3 0 14.1421356237314 21.424285285629
0

0101000
+257 11 -255 11 *
Ve
0.001850683812319
4.99999999999974 -21.4242852856287 33
0 0

0101101
*
Ed
 1e-07 1 1 0
1  3 0 0.229276203213967 1.34152012358099
2  4 1 0 0.229276203213967 1.34152012358099
2  5 4 0 0.229276203213967 1.34152012358099
0

0101000
+253 6 -255 7 *
Ed
 1.00000007e-07 1 1 0
1  4 0 14.1421356237312 21.4242852856287
0

0101000
+258 0 -253 0 *
Wi

0101100
-256 5 -254 10 +252 5 +251 4 *
Fa
0  1e-07 1 5

0111000
+250 0 *
Ve
1.00000102e-07
-14.142135623731 -4.99999999999993 33
0 0

0101101
*
Ve
1.00000332e-07
-4.99999999999869 -14.1421356237315 33
0 0

0101101
*
Ed
 1e-07 1 1 0
1  1 0 5.05222588983881 5.94334839772556
2  1 1 0 5.05222588983881 5.94334839772556
2  2 2 0 5.05222588983881 5.94334839772556
0

0101000
+248 7 -247 6 *
Ve
1.00041121e-07
-11.1336441146558 -3.31687866550042 8.93024352633489
0 0

0101101
*
Ed
 1e-07 1 1 0
1  5 0 2.07526953410542 2.30850674654212
2  6 2 5 2.07526953410542 2.30850674654212
2  7 5 13 2.07526953410542 2.30850674654212
0

0101000
+245 0 -248 0 *
Ve
1.00039535e-07
-11.2498881139248 -2.31931461520118 8.00000000003988
0 0

0101101
*
Ed
 1e-07 1 1 0
1  6 0 0 1
2  8 2 5 0 1
2  9 6 13 0 1
0

0101000
+243 0 -245 0 *
Ve
1.00000006e-07
-11.4273617341622 -1.16387570495827 8.00000000000074
0 0

0101101
*
Ed
 1e-07 1 1 0
1  7 0 1.36748155435402 1.46929642283129
2  10 2 5 1.36748155435402 1.46929642283129
2  11 7 13 1.36748155435402 1.46929642283129
0

0101000
+243 0 -241 0 *
Ve
1.00000305e-07
-14.1421356237315 4.99999999999871 33
0 0

0101101
*
Ed
 1e-07 1 1 0
1  8 0 0 1
2  12 2 5 0 1
2  13 3 13 0 1
0

0101000
+239 0 -241 0 *
Ve
1.00000029e-07
-4.99999999999999 14.142135623731 33
0 0

0101101
*
Ed
 1e-07 1 1 0
1  1 0 3.48142956304391 4.37255207093066
2  1 1 0 3.48142956304391 4.37255207093066
2  2 2 0 3.48142956304391 4.37255207093066
0

0101000
+237 7 -239 7 *
Ve
1.00041121e-07
-3.31687866550042 11.1336441146558 8.93024352633488
0 0

0101101
*
Ed
 1e-07 1 1 0
1  9 0 2.07526953410542 2.30850674654212
2  14 2 5 2.07526953410542 2.30850674654212
2  15 5 15 2.07526953410542 2.30850674654212
0

0101000
+235 0 -237 0 *
Ve
1.00039536e-07
-2.31931461520118 11.2498881139248 8.00000000003988
0 0

0101101
*
Ed
 1e-07 1 1 0
1  10 0 0 1
2  16 2 5 0 1
2  17 6 15 0 1
0

0101000
+233 0 -235 0 *
Ve
1.00000004e-07
-1.16387570495827 11.4273617341622 8.00000000000074
0 0

0101101
*
Ed
 1e-07 1 1 0
1  11 0 2.93827788114892 3.04009274962619
2  18 2 5 2.93827788114892 3.04009274962619
2  19 7 15 2.93827788114892 3.04009274962619
0

0101000
+233 0 -231 0 *
Ve
1.00000054e-07
4.99999999999896 14.1421356237313 33
0 0

0101101
*
Ed
 1e-07 1 1 0
1  12 0 0 1
2  20 2 5 0 1
2  21 3 15 0 1
0

0101000
+229 0 -231 0 *
Ve
1.00000331e-07
14.1421356237311 4.99999999999973 33
0 0

0101101
*
Ed
 1e-07 1 1 0
1  1 0 1.910633236249 2.80175574413575
2  1 1 0 1.910633236249 2.80175574413575
2  2 2 0 1.910633236249 2.80175574413575
0

0101000
+227 7 -229 7 *
Ve
1.0004112e-07
11.1336441146558 3.31687866550042 8.93024352633488
0 0

0101101
*
Ed
 1e-07 1 1 0
1  13 0 2.07526953410542 2.30850674654212
2  22 2 5 2.07526953410542 2.30850674654212
2  23 5 10 2.07526953410542 2.30850674654212
0

0101000
+225 0 -227 0 *
Ve
1.00039536e-07
11.2498881139248 2.31931461520119 8.00000000003988
0 0

0101101
*
Ed
 1e-07 1 1 0
1  14 0 0 1
2  24 2 5 0 1
2  25 6 10 0 1
0

0101000
+223 0 -225 0 *
Ve
1.00000002e-07
11.4273617341622 1.16387570495827 8.00000000000074
0 0

0101101
*
Ed
 1e-07 1 1 0
1  15 0 4.50907420794381 4.61088907642108
2  26 2 5 4.50907420794381 4.61088907642108
2  27 7 10 4.50907420794381 4.61088907642108
0

0101000
+223 0 -221 0 *
Ed
 1e-07 1 1 0
1  16 0 0 1
2  28 2 5 0 1
2  29 3 10 0 1
0

0101000
+257 0 -221 0 *
Ve
1.0004112e-07
3.31687866550042 -11.1336441146558 8.93024352633489
0 0

0101101
*
Ed
 1e-07 1 1 0
1  17 0 2.07526953410542 2.30850674654212
2  30 2 16 2.07526953410542 2.30850674654212
2  31 5 0 2.07526953410542 2.30850674654212
0

0101000
+218 0 -258 0 *
Ve
1.00039535e-07
2.31931461520119 -11.2498881139248 8.00000000003988
0 0

0101101
*
Ed
 1e-07 1 1 0
1  18 0 0 1
2  32 2 16 0 1
2  33 6 0 0 1
0

0101000
+216 0 -218 0 *
Ve
1.00000002e-07
1.16387570495827 -11.4273617341622 8.00000000000074
0 0

0101101
*
Ed
 1e-07 1 1 0
1  19 0 6.07987053473871 6.18168540321598
2  34 2 16 6.07987053473871 6.18168540321598
2  35 7 0 6.07987053473871 6.18168540321598
0

0101000
+216 0 -214 0 *
Ve
1.00000012e-07
0 -11.7684473368749 10.0063080245096
0 0

0101101
*
Ed
 1e-07 1 1 0
1  20 0 0 1
2  36 2 16 0 1
2  37 3 0 0 1
0

0101000
+212 0 -214 0 *
Ve
1e-07
0 -10.7837749589283 3
0 0

0101101
*
Ed
 1e-07 1 1 0
1  21 0 23.2196641508503 30.2948271755585
3  38 39CN 2 21 23.2196641508503 30.2948271755585
0

0101000
+212 22 -210 21 *
Ed
 1e-07 1 1 0
1  22 0 0 6.28318530717959
2  40 2 0 0 6.28318530717959
2  41 8 0 0 6.28318530717959
0

0101000
+210 0 -210 0 *
Ed
 1e-07 1 1 0
1  23 0 0 1
2  42 2 16 0 1
2  43 3 0 0 1
0

0101000
+247 0 -212 0 *
Wi

0101100
+246 5 +244 0 +242 0 -240 0 +238 0 +236 5 +234 0 +232 0 -230 0 +228 0 
+226 5 +224 0 +222 0 -220 0 +219 0 +256 5 +217 4 +215 4 -213 4 +211 4 
-209 20 -208 5 +209 20 +207 4 *
Fa
0  1e-07 2 5

0111000
+206 0 *
Ve
1.00000023e-07
23.7196329203074 1.16387570495827 8.00000000000074
0 0

0101101
*
Ed
 1e-07 1 1 0
1  24 0 11.4273617341622 23.7196329203074
2  44 3 0 11.4273617341622 23.7196329203074
0

0101000
+221 11 -204 11 *
Ed
 1e-07 1 1 0
1  25 0 0 1
2  45 4 5 0 1
2  46 3 10 0 1
0

0101000
+255 0 -204 0 *
Wi

0101100
-219 0 -203 10 +202 0 +254 10 *
Fa
0  1e-07 3 10

0111000
+201 0 *
Ve
0.00351759522225
-21.4242852856288 -4.99999999999955 33
0 0

0101101
*
Ve
1.00000283e-07
-4.9999999999987 -21.4242852856289 33
0 0

0101101
*
Ed
 1e-07 1 1 0
1  3 0 4.94166518359865 6.05390910396567
2  4 1 0 4.94166518359865 6.05390910396567
2  5 4 0 4.94166518359865 6.05390910396567
0

0101000
+199 7 -198 6 *
Ve
0.00351759522225
-23.4497026006964 -3.31687866550042 8.93024352633489
0 0

0101101
*
Ed
 0.00351759522125 1 1 0
1  26 0 -23.4497026006911 -21.4242852856285
2  47 4 5 -23.4497026006911 -21.4242852856285
2  48 5 13 -23.4497026006911 -21.4242852856285
0

0101000
+196 0 -199 0 *
Ve
1.00039234e-07
-23.6346434761836 -2.31931461520118 8.00000000003988
0 0

0101101
*
Ed
 1e-07 1 1 0
1  27 0 0 1
2  49 4 5 0 1
2  50 6 13 0 1
0

0101000
+194 0 -196 0 *
Ve
1.00000028e-07
-23.7196329203074 -1.16387570495827 8.00000000000075
0 0

0101101
*
Ed
 1e-07 1 1 0
1  28 0 1.47297752842704 1.52176761800196
2  51 4 5 1.47297752842704 1.52176761800196
2  52 7 13 1.47297752842704 1.52176761800196
0

0101000
+194 0 -192 0 *
Ve
1.00000777e-07
-21.4242852856287 4.99999999999907 33
0 0

0101101
*
Ed
 1e-07 1 1 0
1  29 0 0 1
2  53 4 5 0 1
2  54 3 13 0 1
0

0101000
+190 0 -192 0 *
Ve
0.00351759522225
-4.99999999999913 21.424285285629 33
0 0

0101101
*
Ed
 1e-07 1 1 0
1  3 0 3.37086885680373 4.48311277717075
2  4 1 0 3.37086885680373 4.48311277717075
2  5 4 0 3.37086885680373 4.48311277717075
0

0101000
+188 7 -190 7 *
Ve
0.00351759522225
-3.31687866550042 23.4497026006964 8.93024352633488
0 0

0101101
*
Ed
 0.00351759522125 1 1 0
1  30 0 -23.4497026006911 -21.4242852856285
2  55 4 5 -23.4497026006911 -21.4242852856285
2  56 5 15 -23.4497026006911 -21.4242852856285
0

0101000
+186 0 -188 0 *
Ve
1.00039231e-07
-2.31931461520118 23.6346434761836 8.00000000003988
0 0

0101101
*
Ed
 1e-07 1 1 0
1  31 0 0 1
2  57 4 5 0 1
2  58 6 15 0 1
0

0101000
+184 0 -186 0 *
Ve
1.00000006e-07
-1.16387570495827 23.7196329203074 8.00000000000074
0 0

0101101
*
Ed
 1e-07 1 1 0
1  32 0 3.04377385522193 3.09256394479685
2  59 4 5 3.04377385522193 3.09256394479685
2  60 7 15 3.04377385522193 3.09256394479685
0

0101000
+184 0 -182 0 *
Ve
1.00001192e-07
4.9999999999981 21.4242852856292 33
0 0

0101101
*
Ed
 1e-07 1 1 0
1  33 0 0 1
2  61 4 5 0 1
2  62 3 15 0 1
0

0101000
+180 0 -182 0 *
Ve
0.00351759522225
21.4242852856285 5.00000000000011 33
0 0

0101101
*
Ed
 1e-07 1 1 0
1  3 0 1.80007253000888 2.9123164503759
2  4 1 0 1.80007253000888 2.9123164503759
2  5 4 0 1.80007253000888 2.9123164503759
0

0101000
+178 7 -180 7 *
Ve
0.00351759522225
23.4497026006964 3.31687866550042 8.93024352633488
0 0

0101101
*
Ed
 0.00351759522125 1 1 0
1  34 0 -23.4497026006911 -21.4242852856285
2  63 4 5 -23.4497026006911 -21.4242852856285
2  64 5 10 -23.4497026006911 -21.4242852856285
0

0101000
+176 0 -178 0 *
Ve
1.00039231e-07
23.6346434761836 2.31931461520119 8.00000000003988
0 0

0101101
*
Ed
 1e-07 1 1 0
1  35 0 0 1
2  65 4 5 0 1
2  66 6 10 0 1
0

0101000
+174 0 -176 0 *
Ed
 1e-07 1 1 0
1  36 0 4.61457018201683 4.66336027159175
2  67 4 5 4.61457018201683 4.66336027159175
2  68 7 10 4.61457018201683 4.66336027159175
0

0101000
+174 0 -204 0 *
Ve
0.001850683812319
3.31687866550042 -23.4497026006964 8.93024352633489
0 0

0101101
*
Ed
 0.001850683811319 1 1 0
1  37 0 -23.4497026006911 -21.4242852856285
2  69 4 16 -23.4497026006911 -21.4242852856285
2  70 5 0 -23.4497026006911 -21.4242852856285
0

0101000
+171 0 -253 0 *
Ve
1.00039234e-07
2.31931461520119 -23.6346434761836 8.00000000003988
0 0

0101101
*
Ed
 1e-07 1 1 0
1  38 0 0 1
2  71 4 16 0 1
2  72 6 0 0 1
0

0101000
+169 0 -171 0 *
Ve
1.0000002e-07
1.16387570495827 -23.7196329203074 8.00000000000075
0 0

0101101
*
Ed
 1e-07 1 1 0
1  39 0 6.18536650881173 6.23415659838665
2  73 4 16 6.18536650881173 6.23415659838665
2  74 7 0 6.18536650881173 6.23415659838665
0

0101000
+169 0 -167 0 *
Ve
1.0000002e-07
0 -23.6078755746571 10.0063080245096
0 0

0101101
*
Ed
 1e-07 1 1 0
1  40 0 0 1
2  75 4 16 0 1
2  76 3 0 0 1
0

0101000
+165 0 -167 0 *
Ve
1e-07
0 -24.0978043583053 3
0 0

0101101
*
Ed
 1e-07 1 1 0
1  41 0 23.0498402278044 30.0732569424352
3  77 78CN 4 21 23.0498402278044 30.0732569424352
0

0101000
+165 22 -163 21 *
Ed
 1e-07 1 1 0
1  42 0 0 6.28318530717959
2  79 8 0 0 6.28318530717959
2  80 4 0 0 6.28318530717959
0

0101000
+163 0 -163 0 *
Ed
 1e-07 1 1 0
1  43 0 0 1
2  81 4 16 0 1
2  82 3 0 0 1
0

0101000
+198 0 -165 0 *
Wi

0101100
+197 5 +195 0 +193 0 -191 0 +189 0 +187 5 +185 0 +183 0 -181 0 +179 0 
+177 5 +175 0 +173 0 -172 0 +202 0 +252 5 +170 4 +168 4 -166 4 +164 4 
-162 20 -161 5 +162 20 +160 4 *
Fa
0  1e-07 4 5

0111000
+159 0 *
Ed
 1.00039409e-07 1 1 0
1  44 0 11.1336441146558 23.4497026006964
2  83 6 0 11.1336441146558 23.4497026006964
4 C1 6 0 5 0
0

0101000
+218 0 -171 0 *
Wi

0101100
+217 0 -157 0 -170 0 +251 0 *
Fa
0  1e-07 5 0

0111000
+156 0 *
Ed
 1.00000032e-07 1 1 0
1  2 0 14.1421356237315 21.4242852856289
2  3 3 0 14.1421356237315 21.4242852856289
0

0101000
+247 0 -198 0 *
Ed
 1.00000007e-07 1 1 0
1  4 0 14.142135623731 21.4242852856288
0

0101000
+248 23 -199 23 *
Wi

0101100
-246 5 -154 4 +197 5 +153 13 *
Fa
0  1e-07 1 5

0111000
+152 0 *
Ed
 1.00039409e-07 1 1 0
1  44 0 11.1336441146558 23.4497026006964
2  83 6 0 11.1336441146558 23.4497026006964
4 C1 6 0 5 0
0

0101000
+245 23 -196 23 *
Wi

0101100
+244 0 -150 13 -195 0 +153 13 *
Fa
0  1e-07 5 13

0111000
+149 0 *
Ed
 1.00039134e-07 1 1 0
1  45 0 11.2498881139248 23.6346434761836
2  84 6 0 11.2498881139248 23.6346434761836
4 C1 7 0 6 0
0

0101000
+243 23 -194 23 *
Wi

0101100
-242 0 -150 13 +193 0 +147 13 *
Fa
0  1e-07 6 13

0111000
+146 0 *
Ed
 1e-07 1 1 0
1  24 0 11.4273617341622 23.7196329203074
2  44 3 0 11.4273617341622 23.7196329203074
0

0101000
+241 23 -192 23 *
Wi

0101100
+240 0 -147 13 -191 0 +144 13 *
Fa
0  1e-07 7 13

0111000
+143 0 *
Ed
 1.00000032e-07 1 1 0
1  2 0 14.1421356237315 21.4242852856288
2  3 3 0 14.1421356237315 21.4242852856288
0

0101000
+239 23 -190 23 *
Wi

0101100
-238 0 -144 13 +189 0 +141 13 *
Fa
0  1e-07 3 13

0111000
+140 0 *
Ed
 1e-07 1 1 0
1  4 0 14.142135623731 21.424285285629
0

0101000
+237 24 -188 24 *
Wi

0101100
-236 5 -141 13 +187 5 +138 15 *
Fa
0  1e-07 1 5

0111000
+137 0 *
Ed
 1.00039409e-07 1 1 0
1  44 0 11.1336441146558 23.4497026006964
2  83 6 0 11.1336441146558 23.4497026006964
4 C1 6 0 5 0
0

0101000
+235 24 -186 24 *
Wi

0101100
+234 0 -135 15 -185 0 +138 15 *
Fa
0  1e-07 5 15

0111000
+134 0 *
Ed
 1.00039134e-07 1 1 0
1  45 0 11.2498881139248 23.6346434761836
2  84 6 0 11.2498881139248 23.6346434761836
4 C1 7 0 6 0
0

0101000
+233 24 -184 24 *
Wi

0101100
-232 0 -135 15 +183 0 +132 15 *
Fa
0  1e-07 6 15

0111000
+131 0 *
Ed
 1e-07 1 1 0
1  24 0 11.4273617341622 23.7196329203074
2  44 3 0 11.4273617341622 23.7196329203074
0

0101000
+231 24 -182 24 *
Wi

0101100
+230 0 -132 15 -181 0 +129 15 *
Fa
0  1e-07 7 15

0111000
+128 0 *
Ed
 1.00000032e-07 1 1 0
1  2 0 14.1421356237313 21.4242852856292
2  3 3 0 14.1421356237313 21.4242852856292
0

0101000
+229 24 -180 24 *
Wi

0101100
-228 0 -129 15 +179 0 +126 15 *
Fa
0  1e-07 3 15

0111000
+125 0 *
Ed
 1e-07 1 1 0
1  4 0 14.1421356237311 21.4242852856285
0

0101000
+227 11 -178 11 *
Wi

0101100
-226 5 -126 15 +177 5 +123 10 *
Fa
0  1e-07 1 5

0111000
+122 0 *
Ed
 1.00039409e-07 1 1 0
1  44 0 11.1336441146558 23.4497026006964
2  83 6 0 11.1336441146558 23.4497026006964
4 C1 6 0 5 0
0

0101000
+225 11 -176 11 *
Wi

0101100
+224 0 -120 10 -175 0 +123 10 *
Fa
0  1e-07 5 10

0111000
+119 0 *
Ed
 1.00039134e-07 1 1 0
1  45 0 11.2498881139248 23.6346434761836
2  84 6 0 11.2498881139248 23.6346434761836
4 C1 7 0 6 0
0

0101000
+223 11 -174 11 *
Wi

0101100
-222 0 -120 10 +173 0 +117 10 *
Fa
0  1e-07 6 10

0111000
+116 0 *
Wi

0101100
+220 0 -117 10 -172 0 +203 10 *
Fa
0  1e-07 7 10

0111000
+114 0 *
Ed
 1.00039134e-07 1 1 0
1  45 0 11.2498881139248 23.6346434761836
2  84 6 0 11.2498881139248 23.6346434761836
4 C1 7 0 6 0
0

0101000
+216 0 -169 0 *
Wi

0101100
-215 0 -157 0 +168 0 +112 0 *
Fa
0  1e-07 6 0

0111000
+111 0 *
Ed
 1e-07 1 1 0
1  24 0 11.4273617341622 23.7196329203074
2  44 3 0 11.4273617341622 23.7196329203074
0

0101000
+214 0 -167 0 *
Wi

0101100
+213 0 -112 0 -166 0 +109 0 *
Fa
0  1e-07 7 0

0111000
+108 0 *
Wi

0101100
-207 0 -211 0 -109 0 +164 0 +160 0 +154 0 *
Fa
0  1e-07 3 0

0111000
+106 0 *
Wi

0101100
+208 0 *
Fa
0  1e-07 9 30

0111000
+104 0 *
Ve
1e-07
-21.5 -27.5 0
0 0

0101101
*
Ve
1e-07
21.5 -27.5 0
0 0

0101101
*
Ed
 1e-07 1 1 0
1  46 0 0 43
0

0101000
+102 0 -101 0 *
Ve
1.00000002e-07
-27.5 -21.5 0
0 0

0101101
*
Ed
 1e-07 1 1 0
1  47 0 3.14159265358979 4.71238898038469
2  85 10 34 3.14159265358979 4.71238898038469
2  86 10 35 3.14159265358979 4.71238898038469
0

0101000
+99 0 -102 0 *
Ve
1e-07
27.5 -21.5 0
0 0

0101101
*
Ed
 1e-07 1 1 0
1  48 0 4.71238898038469 6.28318530717959
2  87 11 34 4.71238898038469 6.28318530717959
2  88 11 35 4.71238898038469 6.28318530717959
0

0101000
+101 0 -97 0 *
Ve
1e-07
-27.5 21.5 0
0 0

0101101
*
Ed
 1e-07 1 1 0
1  49 0 0 43
0

0101000
+95 0 -99 0 *
Ve
1.00000002e-07
27.5 21.5 0
0 0

0101101
*
Ed
 1e-07 1 1 0
1  50 0 0 43
0

0101000
+97 0 -93 0 *
Ve
1e-07
-21.5 27.5 0
0 0

0101101
*
Ed
 1e-07 1 1 0
1  51 0 1.5707963267949 3.14159265358979
2  89 12 34 1.5707963267949 3.14159265358979
2  90 12 35 1.5707963267949 3.14159265358979
0

0101000
+91 0 -95 0 *
Ve
1e-07
21.5 27.5 0
0 0

0101101
*
Ed
 1e-07 1 1 0
1  52 0 0 1.5707963267949
2  91 13 34 0 1.5707963267949
2  92 13 35 0 1.5707963267949
0

0101000
+93 0 -89 0 *
Ed
 1e-07 1 1 0
1  53 0 0 43
0

0101000
+89 0 -91 0 *
Wi

0101100
+100 33 +98 33 +96 33 +94 33 +92 33 +90 33 +88 33 +87 33 *
Ve
1e-07
-18.25 -21.75 3
0 0

0101101
*
Ed
 1e-07 1 1 0
1  54 0 0 6.28318530717959
2  93 14 0 0 6.28318530717959
2  94 15 0 0 6.28318530717959
0

0101000
+85 38 -85 38 *
Wi

0101100
-84 37 *
Ve
1e-07
25.25 -21.75 3
0 0

0101101
*
Ed
 1e-07 1 1 0
1  54 0 0 6.28318530717959
2  93 14 0 0 6.28318530717959
2  94 15 0 0 6.28318530717959
0

0101000
+82 41 -82 41 *
Wi

0101100
-81 40 *
Ve
1e-07
-18.25 21.75 3
0 0

0101101
*
Ed
 1e-07 1 1 0
1  54 0 0 6.28318530717959
2  93 14 0 0 6.28318530717959
2  94 15 0 0 6.28318530717959
0

0101000
+79 44 -79 44 *
Wi

0101100
-78 43 *
Wi

0101100
-161 0 *
Ve
1e-07
25.25 21.75 3
0 0

0101101
*
Ed
 1e-07 1 1 0
1  54 0 0 6.28318530717959
2  93 14 0 0 6.28318530717959
2  94 15 0 0 6.28318530717959
0

0101000
+75 47 -75 47 *
Wi

0101100
-74 46 *
Fa
0  1e-07 9 30

0111000
+86 0 +83 0 +80 0 +77 0 +76 0 +73 0 *
Ed
 1e-07 1 1 0
1  55 0 0 3
2  95 10 0 0 3
4 G1 16 0 10 0
0

0101000
+102 49 -102 50 *
Ed
 1e-07 1 1 0
1  56 0 0 3
2  96 11 0 0 3
4 G1 16 0 11 0
0

0101000
+101 49 -101 50 *
Wi

0101100
+71 0 -70 0 -100 49 +100 50 *
Fa
0  1e-07 16 0

0111000
+69 0 *
Ed
 1.00000002e-07 1 1 0
1  57 0 0 3
2  97 10 0 0 3
4 G1 17 0 10 0
0

0101000
+99 49 -99 50 *
Wi

0101100
+67 0 -71 0 -98 49 +98 50 *
Fa
0  1e-07 10 0

0111000
+66 0 *
Ed
 1e-07 1 1 0
1  58 0 0 3
2  98 11 0 0 3
4 G1 11 0 18 0
0

0101000
+97 49 -97 50 *
Wi

0101100
+70 0 -64 0 -96 49 +96 50 *
Fa
0  1e-07 11 0

0111000
+63 0 *
Ed
 1e-07 1 1 0
1  59 0 0 3
2  99 12 0 0 3
4 G1 12 0 17 0
0

0101000
+95 49 -95 50 *
Wi

0101100
+61 0 -67 0 -94 49 +94 50 *
Fa
0  1e-07 17 0

0111000
+60 0 *
Ed
 1.00000002e-07 1 1 0
1  60 0 0 3
2  100 13 0 0 3
4 G1 18 0 13 0
0

0101000
+93 49 -93 50 *
Wi

0101100
+64 0 -58 0 -92 49 +92 50 *
Fa
0  1e-07 18 0

0111000
+57 0 *
Ed
 1e-07 1 1 0
1  61 0 0 3
2  101 12 0 0 3
4 G1 19 0 12 0
0

0101000
+91 49 -91 50 *
Wi

0101100
+55 0 -61 0 -90 49 +90 50 *
Fa
0  1e-07 12 0

0111000
+54 0 *
Ed
 1e-07 1 1 0
1  62 0 0 3
2  102 13 0 0 3
4 G1 13 0 19 0
0

0101000
+89 49 -89 50 *
Wi

0101100
+58 0 -52 0 -88 49 +88 50 *
Fa
0  1e-07 13 0

0111000
+51 0 *
Wi

0101100
+52 0 -55 0 -87 49 +87 50 *
Fa
0  1e-07 19 0

0111000
+49 0 *
Ve
1e-07
3.5 0 -1
0 0

0101101
*
Ed
 1e-07 1 1 0
1  63 0 0 1
3  103 104CN 15 0 0 1
0

0101000
+85 38 -47 0 *
Ed
 1e-07 1 1 0
1  64 0 0 6.28318530717959
2  105 15 0 0 6.28318530717959
2  106 20 0 0 6.28318530717959
0

0101000
+47 0 -47 0 *
Wi

0101100
-46 36 -45 36 +46 36 +84 36 *
Fa
0  1e-07 15 36

0111000
+44 0 *
Ed
 1e-07 1 1 0
1  63 0 0 1
3  103 104CN 15 0 0 1
0

0101000
+82 41 -47 0 *
Wi

0101100
-42 39 -45 39 +42 39 +81 39 *
Fa
0  1e-07 15 39

0111000
+41 0 *
Ed
 1e-07 1 1 0
1  63 0 0 1
3  103 104CN 15 0 0 1
0

0101000
+79 44 -47 0 *
Wi

0101100
-39 42 -45 42 +39 42 +78 42 *
Fa
0  1e-07 15 42

0111000
+38 0 *
Ed
 1e-07 1 1 0
1  63 0 0 1
3  103 104CN 15 0 0 1
0

0101000
+75 47 -47 0 *
Wi

0101100
-36 45 -45 45 +36 45 +74 45 *
Fa
0  1e-07 15 45

0111000
+35 0 *
Wi

0101100
+100 53 +98 53 +96 53 +94 53 +92 53 +90 53 +88 53 +87 53 *
Ve
1e-07
-20.2 -21.75 0
0 0

0101101
*
Ed
 1e-07 1 1 0
1  65 0 0 6.28318530717959
2  107 9 52 0 6.28318530717959
2  108 21 36 0 6.28318530717959
0

0101100
+32 0 -32 0 *
Wi

0101100
+31 0 *
Ve
1e-07
23.3 -21.75 0
0 0

0101101
*
Ed
 1e-07 1 1 0
1  66 0 0 6.28318530717959
2  109 9 52 0 6.28318530717959
2  110 21 39 0 6.28318530717959
0

0101100
+29 0 -29 0 *
Wi

0101100
+28 0 *
Ve
1e-07
-20.2 21.75 0
0 0

0101101
*
Ed
 1e-07 1 1 0
1  67 0 0 6.28318530717959
2  111 9 52 0 6.28318530717959
2  112 21 42 0 6.28318530717959
0

0101100
+26 0 -26 0 *
Wi

0101100
+25 0 *
Ve
1e-07
23.3 21.75 0
0 0

0101101
*
Ed
 1e-07 1 1 0
1  68 0 0 6.28318530717959
2  113 9 52 0 6.28318530717959
2  114 21 45 0 6.28318530717959
0

0101100
+23 0 -23 0 *
Wi

0101100
+22 0 *
Fa
0  1e-07 9 52

0111000
+33 0 +30 0 +27 0 +24 0 +21 0 *
Wi

0101100
+45 0 *
Ve
1e-07
1.55 0 -1
0 0

0101101
*
Ed
 1e-07 1 1 0
1  69 0 0 6.28318530717959
2  115 20 0 0 6.28318530717959
2  116 21 0 0 6.28318530717959
0

0101000
+18 0 -18 0 *
Wi

0101100
-17 0 *
Fa
0  1e-07 20 0

0111000
+19 0 +16 0 *
Ed
 1e-07 1 1 0
1  70 0 0 2
3  117 118CN 21 0 0 2
0

0101000
+18 0 -32 38 *
Wi

0101100
-14 36 +31 0 +14 36 +17 36 *
Fa
0  1e-07 21 36

0111000
+13 0 *
Ed
 1e-07 1 1 0
1  70 0 0 2
3  117 118CN 21 0 0 2
0

0101000
+18 0 -29 41 *
Wi

0101100
-11 39 +28 0 +11 39 +17 39 *
Fa
0  1e-07 21 39

0111000
+10 0 *
Ed
 1e-07 1 1 0
1  70 0 0 2
3  117 118CN 21 0 0 2
0

0101000
+18 0 -26 44 *
Wi

0101100
-8 42 +25 0 +8 42 +17 42 *
Fa
0  1e-07 21 42

0111000
+7 0 *
Ed
 1e-07 1 1 0
1  70 0 0 2
3  117 118CN 21 0 0 2
0

0101000
+18 0 -23 47 *
Wi

0101100
-5 45 +22 0 +5 45 +17 45 *
Fa
0  1e-07 21 45

0111000
+4 0 *
Sh

0101100
+249 0 +205 0 +200 0 -158 0 -155 4 +151 0 -148 0 +145 0 +142 0 +139 0 
+136 0 -133 0 +130 0 +127 0 +124 0 +121 0 -118 0 +115 0 +113 0 +110 4 
+107 4 +105 4 +103 5 +72 5 -68 48 -65 48 -62 48 -59 48 -56 48 -53 48 
-50 48 -48 48 +43 51 +40 51 +37 51 +34 51 -20 51 +15 54 +15 55 +15 56 
+15 57 +12 51 +9 51 +6 51 +3 51 *
So

0100000
+2 0 *

+1 1 
