<?xml version="1.0" encoding="UTF-8" standalone="no"?>
<!-- Created with Inkscape (http://www.inkscape.org/) -->

<svg
   xmlns:dc="http://purl.org/dc/elements/1.1/"
   xmlns:cc="http://creativecommons.org/ns#"
   xmlns:rdf="http://www.w3.org/1999/02/22-rdf-syntax-ns#"
   xmlns:svg="http://www.w3.org/2000/svg"
   xmlns="http://www.w3.org/2000/svg"
   xmlns:sodipodi="http://sodipodi.sourceforge.net/DTD/sodipodi-0.dtd"
   xmlns:inkscape="http://www.inkscape.org/namespaces/inkscape"
   width="535.68909"
   height="338.33868"
   id="svg5459"
   version="1.1"
   inkscape:version="0.48.4 r9939"
   sodipodi:docname="New document 15">
  <defs
     id="defs5461">
    <clipPath
       id="clipEmfPath1"
       clipPathUnits="userSpaceOnUse">
      <rect
         id="rect5472"
         height="365.27951"
         width="566.85828"
         y="0"
         x="0" />
    </clipPath>
    <clipPath
       id="clipEmfPath2"
       clipPathUnits="userSpaceOnUse">
      <rect
         id="rect5475"
         height="15.901285"
         width="13.350195"
         y="113.55917"
         x="30.750448" />
    </clipPath>
    <clipPath
       id="clipEmfPath3"
       clipPathUnits="userSpaceOnUse">
      <rect
         id="rect5478"
         height="15.901285"
         width="13.350195"
         y="201.31625"
         x="99.751457" />
    </clipPath>
    <clipPath
       id="clipEmfPath4"
       clipPathUnits="userSpaceOnUse">
      <rect
         id="rect5481"
         height="15.901285"
         width="31.800465"
         y="163.81323"
         x="347.25507" />
    </clipPath>
    <clipPath
       id="clipEmfPath5"
       clipPathUnits="userSpaceOnUse">
      <rect
         id="rect5484"
         height="15.901285"
         width="13.350195"
         y="162.01309"
         x="450.75659" />
    </clipPath>
    <clipPath
       id="clipEmfPath6"
       clipPathUnits="userSpaceOnUse">
      <rect
         id="rect5487"
         height="15.901285"
         width="31.800465"
         y="268.82172"
         x="449.55655" />
    </clipPath>
    <clipPath
       id="clipEmfPath7"
       clipPathUnits="userSpaceOnUse">
      <rect
         id="rect5490"
         height="15.901285"
         width="31.800465"
         y="9.7507877"
         x="222.00323" />
    </clipPath>
    <clipPath
       id="clipEmfPath8"
       clipPathUnits="userSpaceOnUse">
      <rect
         id="rect5493"
         height="15.901285"
         width="31.800465"
         y="87.007027"
         x="150.0022" />
    </clipPath>
    <clipPath
       id="clipEmfPath9"
       clipPathUnits="userSpaceOnUse">
      <rect
         id="rect5496"
         height="15.901285"
         width="31.800465"
         y="215.2674"
         x="148.05215" />
    </clipPath>
    <clipPath
       id="clipEmfPath10"
       clipPathUnits="userSpaceOnUse">
      <rect
         id="rect5499"
         height="15.901285"
         width="31.800465"
         y="237.76921"
         x="376.80551" />
    </clipPath>
    <clipPath
       id="clipEmfPath11"
       clipPathUnits="userSpaceOnUse">
      <rect
         id="rect5502"
         height="15.901285"
         width="31.800465"
         y="63.305115"
         x="236.25345" />
    </clipPath>
    <clipPath
       id="clipEmfPath12"
       clipPathUnits="userSpaceOnUse">
      <rect
         id="rect5505"
         height="15.901285"
         width="31.800465"
         y="66.305359"
         x="357.75522" />
    </clipPath>
    <clipPath
       id="clipEmfPath13"
       clipPathUnits="userSpaceOnUse">
      <rect
         id="rect5508"
         height="15.901285"
         width="31.800465"
         y="235.06898"
         x="218.55319" />
    </clipPath>
    <clipPath
       id="clipEmfPath14"
       clipPathUnits="userSpaceOnUse">
      <rect
         id="rect5511"
         height="15.901285"
         width="31.800465"
         y="233.56886"
         x="330.75482" />
    </clipPath>
    <clipPath
       id="clipEmfPath15"
       clipPathUnits="userSpaceOnUse">
      <rect
         id="rect5514"
         height="15.901285"
         width="31.800465"
         y="58.804752"
         x="448.05655" />
    </clipPath>
    <clipPath
       id="clipEmfPath16"
       clipPathUnits="userSpaceOnUse">
      <rect
         id="rect5517"
         height="15.901285"
         width="31.800465"
         y="12.75103"
         x="402.00586" />
    </clipPath>
    <clipPath
       id="clipEmfPath17"
       clipPathUnits="userSpaceOnUse">
      <rect
         id="rect5520"
         height="15.901285"
         width="31.800465"
         y="307.52484"
         x="228.00333" />
    </clipPath>
    <clipPath
       id="clipEmfPath18"
       clipPathUnits="userSpaceOnUse">
      <rect
         id="rect5523"
         height="15.901285"
         width="31.800465"
         y="305.57468"
         x="352.50516" />
    </clipPath>
    <clipPath
       id="clipEmfPath19"
       clipPathUnits="userSpaceOnUse">
      <rect
         id="rect5526"
         height="15.901285"
         width="31.800465"
         y="89.557236"
         x="342.005" />
    </clipPath>
    <clipPath
       id="clipEmfPath20"
       clipPathUnits="userSpaceOnUse">
      <rect
         id="rect5529"
         height="15.901285"
         width="31.800465"
         y="89.557236"
         x="262.05383" />
    </clipPath>
    <clipPath
       id="clipEmfPath21"
       clipPathUnits="userSpaceOnUse">
      <rect
         id="rect5532"
         height="15.901285"
         width="31.800465"
         y="234.31892"
         x="271.80396" />
    </clipPath>
    <clipPath
       id="clipEmfPath22"
       clipPathUnits="userSpaceOnUse">
      <rect
         id="rect5535"
         height="15.901285"
         width="38.250557"
         y="198.76607"
         x="421.80615" />
    </clipPath>
    <clipPath
       id="clipEmfPath23"
       clipPathUnits="userSpaceOnUse">
      <rect
         id="rect5538"
         height="15.901285"
         width="31.800465"
         y="171.01382"
         x="371.55542" />
    </clipPath>
    <clipPath
       id="clipEmfPath24"
       clipPathUnits="userSpaceOnUse">
      <rect
         id="rect5541"
         height="15.901285"
         width="45.750668"
         y="322.52606"
         x="450.30658" />
    </clipPath>
  </defs>
  <sodipodi:namedview
     id="base"
     pagecolor="#ffffff"
     bordercolor="#666666"
     borderopacity="1.0"
     inkscape:pageopacity="0.0"
     inkscape:pageshadow="2"
     inkscape:zoom="1.8350626"
     inkscape:cx="267.85081"
     inkscape:cy="169.16934"
     inkscape:document-units="px"
     inkscape:current-layer="layer1"
     showgrid="false"
     fit-margin-top="0"
     fit-margin-left="0"
     fit-margin-right="0"
     fit-margin-bottom="0"
     inkscape:window-width="1147"
     inkscape:window-height="812"
     inkscape:window-x="66"
     inkscape:window-y="66"
     inkscape:window-maximized="0" />
  <metadata
     id="metadata5464">
    <rdf:RDF>
      <cc:Work
         rdf:about="">
        <dc:format>image/svg+xml</dc:format>
        <dc:type
           rdf:resource="http://purl.org/dc/dcmitype/StillImage" />
        <dc:title></dc:title>
      </cc:Work>
    </rdf:RDF>
  </metadata>
  <g
     inkscape:label="Layer 1"
     inkscape:groupmode="layer"
     id="layer1"
     transform="translate(193.5651,-237.47856)">
    <g
       id="g5543"
       transform="translate(-195.78385,225.23894)">
      <text
         id="text5545"
         style="font-size:12.45018196px;font-style:normal;font-weight:normal;text-align:start;text-anchor:start;fill:#000000;font-family:Arial"
         y="350.57831"
         x="537.90784"
         xml:space="preserve"> </text>
      <path
         id="path5547"
         d="m 23.428467,120.56287 0.06563,120.50661 c 0,0.3469 -0.281254,0.62817 -0.628134,0.62817 -0.34688,0 -0.628134,-0.28127 -0.628134,-0.6188 l -0.05625,-120.51598 c 0,-0.34691 0.281254,-0.62818 0.628134,-0.62818 0.34688,0 0.618759,0.28127 0.618759,0.62818 z m -4.368814,1.25635 3.74068,-7.50999 3.75943,7.50061 z"
         clip-path="url(#clipEmfPath1)"
         style="fill:#000000;fill-opacity:1;fill-rule:nonzero;stroke:#000000;stroke-width:0.1500022px;stroke-linecap:butt;stroke-linejoin:bevel;stroke-opacity:1;stroke-dasharray:none"
         inkscape:connector-curvature="0" />
      <path
         id="path5549"
         d="m 2.9344178,222.44922 99.8733322,0.0563 c 0.34688,0 0.61876,0.28127 0.61876,0.62817 0,0.3469 -0.27188,0.6188 -0.61876,0.6188 L 2.9250427,223.6962 c -0.3375049,0 -0.618759,-0.28128 -0.618759,-0.62818 0,-0.33753 0.2812541,-0.6188 0.6281341,-0.6188 z m 98.6264422,-3.06587 7.49073,3.7503 -7.50011,3.7503 z"
         style="fill:#000000;fill-opacity:1;fill-rule:nonzero;stroke:#000000;stroke-width:0.1500022px;stroke-linecap:butt;stroke-linejoin:bevel;stroke-opacity:1;stroke-dasharray:none"
         inkscape:connector-curvature="0" />
      <text
         id="text5551"
         style="font-size:12.45018196px;font-style:normal;font-weight:bold;text-align:start;text-anchor:start;fill:#000000;font-family:Arial"
         y="124.9601"
         x="30.750448"
         xml:space="preserve">V</text>
      <text
         id="text5553"
         style="font-size:12.45018196px;font-style:normal;font-weight:bold;text-align:start;text-anchor:start;fill:#000000;font-family:Arial"
         y="124.9601"
         x="39.150574"
         xml:space="preserve"> </text>
      <text
         id="text5555"
         style="font-size:12.45018196px;font-style:normal;font-weight:bold;text-align:start;text-anchor:start;fill:#000000;font-family:Arial"
         y="212.71719"
         x="99.751457"
         xml:space="preserve">U</text>
      <text
         id="text5557"
         style="font-size:12.45018196px;font-style:normal;font-weight:bold;text-align:start;text-anchor:start;fill:#000000;font-family:Arial"
         y="212.71719"
         x="108.75159"
         xml:space="preserve"> </text>
      <text
         id="text5559"
         style="font-size:12.45018196px;font-style:normal;font-weight:bold;text-align:start;text-anchor:start;fill:#000000;font-family:Arial"
         y="175.21416"
         x="347.25507"
         xml:space="preserve">β</text>
      <text
         id="text5561"
         style="font-size:8.10011864px;font-style:normal;font-weight:bold;text-align:start;text-anchor:start;fill:#000000;font-family:Arial"
         y="177.16431"
         x="354.90518"
         xml:space="preserve">3,4</text>
      <text
         id="text5563"
         style="font-size:8.10011864px;font-style:normal;font-weight:bold;text-align:start;text-anchor:start;fill:#000000;font-family:Arial"
         y="177.16431"
         x="366.15536"
         xml:space="preserve"> </text>
      <path
         id="path5565"
         d="m 445.00025,177.31433 -0.0562,146.01804 c 0,0.35628 -0.28126,0.6188 -0.61876,0.6188 -0.35626,0 -0.63751,-0.26252 -0.63751,-0.6188 l 0.0563,-146.01804 c 0,-0.33753 0.28125,-0.6188 0.63751,-0.6188 0.3375,0 0.61876,0.28127 0.61876,0.6188 z m 3.07504,144.78044 -3.7688,7.48186 -3.73131,-7.50061 z"
         clip-path="url(#clipEmfPath4)"
         style="fill:#000000;fill-opacity:1;fill-rule:nonzero;stroke:#000000;stroke-width:0.1500022px;stroke-linecap:butt;stroke-linejoin:bevel;stroke-opacity:1;stroke-dasharray:none"
         inkscape:connector-curvature="0" />
      <path
         id="path5567"
         d="m 445.4315,32.271357 -3.75005,0 0,-0.937576 3.75005,0 0,0.937576 z m -6.56259,0 -3.75006,0 0,-0.937576 3.75006,0 0,0.937576 z m -6.5626,0 -3.75005,0 0,-0.937576 3.75005,0 0,0.937576 z m -6.56259,0 -3.75006,0 0,-0.937576 3.75006,0 0,0.937576 z m -6.5626,0 -3.75005,0 0,-0.937576 3.75005,0 0,0.937576 z m -6.5626,0 -3.75005,0 0,-0.937576 3.75005,0 0,0.937576 z m -6.56259,0 -3.75006,0 0,-0.937576 3.75006,0 0,0.937576 z m -6.5626,0 -3.75005,0 0,-0.937576 3.75005,0 0,0.937576 z m -6.56259,0 -3.75006,0 0,-0.937576 3.75006,0 0,0.937576 z m -6.5626,0 -3.75005,0 0,-0.937576 3.75005,0 0,0.937576 z m -6.56259,0 -3.75006,0 0,-0.937576 3.75006,0 0,0.937576 z m -6.5626,0 -3.75006,0 0,-0.937576 3.75006,0 0,0.937576 z m -6.5626,0 -3.75005,0 0,-0.937576 3.75005,0 0,0.937576 z m -6.56259,0 -3.75006,0 0,-0.937576 3.75006,0 0,0.937576 z m -6.5626,0 -3.75005,0 0,-0.937576 3.75005,0 0,0.937576 z m -6.56259,0 -3.75006,0 0,-0.937576 3.75006,0 0,0.937576 z m -6.5626,0 -3.75005,0 0,-0.937576 3.75005,0 0,0.937576 z m -6.5626,0 -3.75005,0 0,-0.937576 3.75005,0 0,0.937576 z m -6.56259,0 -3.75006,0 0,-0.937576 3.75006,0 0,0.937576 z m -6.5626,0 -3.75005,0 0,-0.937576 3.75005,0 0,0.937576 z m -6.56259,0 -3.75006,0 0,-0.937576 3.75006,0 0,0.937576 z m -6.5626,0 -3.75005,0 0,-0.937576 3.75005,0 0,0.937576 z m -6.56259,0 -3.75006,0 0,-0.937576 3.75006,0 0,0.937576 z m -6.5626,0 -3.75006,0 0,-0.937576 3.75006,0 0,0.937576 z m -6.5626,0 -3.75005,0 0,-0.937576 3.75005,0 0,0.937576 z m -6.56259,0 -3.75006,0 0,-0.937576 3.75006,0 0,0.937576 z m -6.5626,0 -3.75005,0 0,-0.937576 3.75005,0 0,0.937576 z m -6.56259,0 -3.75006,0 0,-0.937576 3.75006,0 0,0.937576 z m -6.5626,0 -3.75005,0 0,-0.937576 3.75005,0 0,0.937576 z m -6.5626,0 -3.75005,0 0,-0.937576 3.75005,0 0,0.937576 z m -6.56259,0 -3.75006,0 0,-0.937576 3.75006,0 0,0.937576 z m -6.5626,0 -3.75005,0 0,-0.937576 3.75005,0 0,0.937576 z m -6.56259,0 -3.75006,0 0,-0.937576 3.75006,0 0,0.937576 z m -6.5626,0 -3.75005,0 0,-0.937576 3.75005,0 0,0.937576 z m -6.56259,0 -3.75006,0 0,-0.937576 3.75006,0 0,0.937576 z m -6.5626,0 -3.75005,0 0,-0.937576 3.75005,0 0,0.937576 z m -6.5626,0 -3.75005,0 0,-0.937576 3.75005,0 0,0.937576 z m -6.56259,0 -3.75006,0 0,-0.937576 3.75006,0 0,0.937576 z m -6.5626,0 -3.75005,0 0,-0.937576 3.75005,0 0,0.937576 z m -6.56259,0 -3.75006,0 0,-0.937576 3.75006,0 0,0.937576 z m -6.5626,0 -3.75005,0 0,-0.937576 3.75005,0 0,0.937576 z m -6.56259,0 -3.75006,0 0,-0.937576 3.75006,0 0,0.937576 z m -6.5626,0 -1.12502,0 0.46876,-0.468788 0,2.625212 -0.93751,0 0,-3.094 1.59377,0 0,0.937576 z m -0.65626,4.969152 0,3.750303 -0.93751,0 0,-3.750303 0.93751,0 z m 0,6.56303 0,3.750303 -0.93751,0 0,-3.750303 0.93751,0 z m 0,6.56303 0,3.750303 -0.93751,0 0,-3.750303 0.93751,0 z m 0,6.56303 0,3.750303 -0.93751,0 0,-3.750303 0.93751,0 z m 0,6.56303 0,3.750303 -0.93751,0 0,-3.750303 0.93751,0 z m 0,6.563031 0,3.750303 -0.93751,0 0,-3.750303 0.93751,0 z m 0,6.56303 0,3.750303 -0.93751,0 0,-3.750303 0.93751,0 z m 0,6.56303 0,3.750303 -0.93751,0 0,-3.750303 0.93751,0 z m 0,6.56303 0,3.750303 -0.93751,0 0,-3.750303 0.93751,0 z m 0,6.563031 0,3.750299 -0.93751,0 0,-3.750299 0.93751,0 z m 0,6.563029 0,3.7503 -0.93751,0 0,-3.7503 0.93751,0 z m 0,6.56303 0,3.7503 -0.93751,0 0,-3.7503 0.93751,0 z m 0,6.56303 0,3.7503 -0.93751,0 0,-3.7503 0.93751,0 z m 0,6.56303 0,3.7503 -0.93751,0 0,-3.7503 0.93751,0 z m 0,6.56303 0,3.7503 -0.93751,0 0,-3.7503 0.93751,0 z m 0,6.56303 0,3.7503 -0.93751,0 0,-3.7503 0.93751,0 z m 0,6.56303 0,3.75031 -0.93751,0 0,-3.75031 0.93751,0 z m 0,6.56303 0,3.75031 -0.93751,0 0,-3.75031 0.93751,0 z m 0,6.56303 0,3.75031 -0.93751,0 0,-3.75031 0.93751,0 z m 0,6.56303 0,3.75031 -0.93751,0 0,-3.75031 0.93751,0 z m 0,6.56303 0,3.75031 -0.93751,0 0,-3.75031 0.93751,0 z m 0,6.56303 0,3.75031 -0.93751,0 0,-3.75031 0.93751,0 z m 0,6.56303 0,3.75031 -0.93751,0 0,-3.75031 0.93751,0 z m 0,6.56303 0,3.75031 -0.93751,0 0,-3.75031 0.93751,0 z m 0,6.56303 0,3.75031 -0.93751,0 0,-3.75031 0.93751,0 z m 0,6.56303 0,3.75031 -0.93751,0 0,-3.75031 0.93751,0 z m 0,6.56303 0,3.75031 -0.93751,0 0,-3.75031 0.93751,0 z m 0,6.56303 0,3.75031 -0.93751,0 0,-3.75031 0.93751,0 z m 0,6.56303 0,3.75031 -0.93751,0 0,-3.75031 0.93751,0 z m 0,6.56303 0,3.75031 -0.93751,0 0,-3.75031 0.93751,0 z m 0,6.56304 0,3.7503 -0.93751,0 0,-3.7503 0.93751,0 z m 0,6.56303 0,3.7503 -0.93751,0 0,-3.7503 0.93751,0 z m 0,6.56303 0,3.7503 -0.93751,0 0,-3.7503 0.93751,0 z m 0,6.56303 0,3.7503 -0.93751,0 0,-3.7503 0.93751,0 z m 0,6.56303 0,3.7503 -0.93751,0 0,-3.7503 0.93751,0 z m 0,6.56303 0,3.7503 -0.93751,0 0,-3.7503 0.93751,0 z m 0,6.56303 0,3.7503 -0.93751,0 0,-3.7503 0.93751,0 z m 0,6.56303 0,3.7503 -0.93751,0 0,-3.7503 0.93751,0 z m 0,6.56303 0,3.7503 -0.93751,0 0,-3.7503 0.93751,0 z m 0,6.56303 0,3.7503 -0.93751,0 0,-3.7503 0.93751,0 z m 0,6.56303 0,3.50653 -0.46876,-0.46879 0.26251,0 0,0.93758 -0.73126,0 0,-3.97532 0.93751,0 z m 2.60629,3.03774 3.75005,0 0,0.93758 -3.75005,0 0,-0.93758 z m 6.56259,0 3.75006,0 0,0.93758 -3.75006,0 0,-0.93758 z m 6.5626,0 3.75005,0 0,0.93758 -3.75005,0 0,-0.93758 z m 6.5626,0 3.75005,0 0,0.93758 -3.75005,0 0,-0.93758 z m 6.56259,0 3.75006,0 0,0.93758 -3.75006,0 0,-0.93758 z m 6.5626,0 3.75005,0 0,0.93758 -3.75005,0 0,-0.93758 z m 6.56259,0 3.75006,0 0,0.93758 -3.75006,0 0,-0.93758 z m 6.5626,0 3.75005,0 0,0.93758 -3.75005,0 0,-0.93758 z m 6.56259,0 3.75006,0 0,0.93758 -3.75006,0 0,-0.93758 z m 6.5626,0 3.75005,0 0,0.93758 -3.75005,0 0,-0.93758 z m 6.5626,0 3.75005,0 0,0.93758 -3.75005,0 0,-0.93758 z m 6.56259,0 3.75006,0 0,0.93758 -3.75006,0 0,-0.93758 z m 6.5626,0 3.75005,0 0,0.93758 -3.75005,0 0,-0.93758 z m 6.56259,0 3.75006,0 0,0.93758 -3.75006,0 0,-0.93758 z m 6.5626,0 3.75005,0 0,0.93758 -3.75005,0 0,-0.93758 z m 6.56259,0 3.75006,0 0,0.93758 -3.75006,0 0,-0.93758 z m 6.5626,0 3.75006,0 0,0.93758 -3.75006,0 0,-0.93758 z m 6.5626,0 3.75005,0 0,0.93758 -3.75005,0 0,-0.93758 z m 6.56259,0 3.75006,0 0,0.93758 -3.75006,0 0,-0.93758 z m 6.5626,0 3.75005,0 0,0.93758 -3.75005,0 0,-0.93758 z m 6.56259,0 3.75006,0 0,0.93758 -3.75006,0 0,-0.93758 z m 6.5626,0 3.75005,0 0,0.93758 -3.75005,0 0,-0.93758 z m 6.5626,0 3.75005,0 0,0.93758 -3.75005,0 0,-0.93758 z m 6.56259,0 3.75006,0 0,0.93758 -3.75006,0 0,-0.93758 z m 6.5626,0 3.75005,0 0,0.93758 -3.75005,0 0,-0.93758 z m 6.56259,0 3.75006,0 0,0.93758 -3.75006,0 0,-0.93758 z m 6.5626,0 3.75005,0 0,0.93758 -3.75005,0 0,-0.93758 z m 6.56259,0 3.75006,0 0,0.93758 -3.75006,0 0,-0.93758 z m 6.5626,0 3.75006,0 0,0.93758 -3.75006,0 0,-0.93758 z m 6.5626,0 3.75005,0 0,0.93758 -3.75005,0 0,-0.93758 z m 6.56259,0 3.75006,0 0,0.93758 -3.75006,0 0,-0.93758 z m 6.5626,0 3.75005,0 0,0.93758 -3.75005,0 0,-0.93758 z m 6.56259,0 3.75006,0 0,0.93758 -3.75006,0 0,-0.93758 z m 6.5626,0 3.75005,0 0,0.93758 -3.75005,0 0,-0.93758 z m 6.5626,0 3.75005,0 0,0.93758 -3.75005,0 0,-0.93758 z m 6.56259,0 3.75006,0 0,0.93758 -3.75006,0 0,-0.93758 z m 6.5626,0 3.75005,0 0,0.93758 -3.75005,0 0,-0.93758 z m 6.56259,0 3.75006,0 0,0.93758 -3.75006,0 0,-0.93758 z m 6.5626,0 3.75005,0 0,0.93758 -3.75005,0 0,-0.93758 z m 6.56259,0 3.75006,0 0,0.93758 -3.75006,0 0,-0.93758 z m 6.5626,0 3.75006,0 0,0.93758 -3.75006,0 0,-0.93758 z m 6.5626,0 3.75005,0 0,0.93758 -3.75005,0 0,-0.93758 z m 4.14381,-1.46262 0,-3.7503 0.93751,0 0,3.7503 -0.93751,0 z m 0,-6.56303 0,-3.7503 0.93751,0 0,3.7503 -0.93751,0 z m 0,-6.56303 0,-3.7503 0.93751,0 0,3.7503 -0.93751,0 z m 0,-6.56303 0,-3.7503 0.93751,0 0,3.7503 -0.93751,0 z m 0,-6.56303 0,-3.7503 0.93751,0 0,3.7503 -0.93751,0 z m 0,-6.56303 0,-3.7503 0.93751,0 0,3.7503 -0.93751,0 z m 0,-6.56303 0,-3.7503 0.93751,0 0,3.7503 -0.93751,0 z m 0,-6.56303 0,-3.7503 0.93751,0 0,3.7503 -0.93751,0 z m 0,-6.56303 0,-3.7503 0.93751,0 0,3.7503 -0.93751,0 z m 0,-6.56303 0,-3.7503 0.93751,0 0,3.7503 -0.93751,0 z m 0,-6.56303 0,-3.7503 0.93751,0 0,3.7503 -0.93751,0 z m 0,-6.56303 0,-3.7503 0.93751,0 0,3.7503 -0.93751,0 z m 0,-6.56303 0,-3.7503 0.93751,0 0,3.7503 -0.93751,0 z m 0,-6.56303 0,-3.7503 0.93751,0 0,3.7503 -0.93751,0 z m 0,-6.56303 0,-3.7503 0.93751,0 0,3.7503 -0.93751,0 z m 0,-6.56303 0,-3.7503 0.93751,0 0,3.7503 -0.93751,0 z m 0,-6.56303 0,-3.7503 0.93751,0 0,3.7503 -0.93751,0 z m 0,-6.56303 0,-3.7503 0.93751,0 0,3.7503 -0.93751,0 z m 0,-6.56303 0,-3.7503 0.93751,0 0,3.7503 -0.93751,0 z m 0,-6.56303 0,-3.7503 0.93751,0 0,3.7503 -0.93751,0 z m 0,-6.56303 0,-3.7503 0.93751,0 0,3.7503 -0.93751,0 z m 0,-6.56303 0,-3.7503 0.93751,0 0,3.7503 -0.93751,0 z m 0,-6.56303 0,-3.7503 0.93751,0 0,3.7503 -0.93751,0 z m 0,-6.56303 0,-3.7503 0.93751,0 0,3.7503 -0.93751,0 z m 0,-6.56303 0,-3.7503 0.93751,0 0,3.7503 -0.93751,0 z m 0,-6.56303 0,-3.7503 0.93751,0 0,3.7503 -0.93751,0 z m 0,-6.56303 0,-3.7503 0.93751,0 0,3.7503 -0.93751,0 z m 0,-6.56303 0,-3.7503 0.93751,0 0,3.7503 -0.93751,0 z m 0,-6.56303 0,-3.7503 0.93751,0 0,3.7503 -0.93751,0 z m 0,-6.56303 0,-3.7503 0.93751,0 0,3.7503 -0.93751,0 z m 0,-6.56303 0,-3.7503 0.93751,0 0,3.7503 -0.93751,0 z m 0,-6.563032 0,-3.750303 0.93751,0 0,3.750303 -0.93751,0 z m 0,-6.56303 0,-3.750303 0.93751,0 0,3.750303 -0.93751,0 z m 0,-6.563031 0,-3.750303 0.93751,0 0,3.750303 -0.93751,0 z m 0,-6.56303 0,-3.750303 0.93751,0 0,3.750303 -0.93751,0 z m 0,-6.56303 0,-3.750303 0.93751,0 0,3.750303 -0.93751,0 z m 0,-6.56303 0,-3.750303 0.93751,0 0,3.750303 -0.93751,0 z m 0,-6.56303 0,-3.750303 0.93751,0 0,3.750303 -0.93751,0 z m 0,-6.563031 0,-3.750303 0.93751,0 0,3.750303 -0.93751,0 z m 0,-6.56303 0,-3.750303 0.93751,0 0,3.750303 -0.93751,0 z m 0,-6.56303 0,-3.750303 0.93751,0 0,3.750303 -0.93751,0 z m 0,-6.56303 0,-0.450037 0.93751,0 0,0.450037 -0.93751,0 z"
         style="fill:#000000;fill-opacity:1;fill-rule:nonzero;stroke:#000000;stroke-width:0.1500022px;stroke-linecap:butt;stroke-linejoin:bevel;stroke-opacity:1;stroke-dasharray:none"
         inkscape:connector-curvature="0" />
      <path
         id="path5569"
         d="m 310.63579,30.546218 -2.71879,2.587709 -0.63751,-0.693806 2.70004,-2.568958 0.65626,0.675055 z m -4.76257,4.519115 -2.71879,2.587709 -0.63751,-0.675055 2.71879,-2.587709 0.63751,0.675055 z m -4.74382,4.519115 -2.71879,2.587709 -0.65626,-0.675054 2.71879,-2.58771 0.65626,0.675055 z m -4.76257,4.537867 -2.71879,2.568957 -0.63751,-0.675054 2.71879,-2.587709 0.63751,0.693806 z m -4.74382,4.519115 -2.71879,2.587709 -0.65626,-0.693806 2.71879,-2.568958 0.65626,0.675055 z m -4.76257,4.519115 -2.71879,2.587709 -0.63751,-0.675055 2.71879,-2.587709 0.63751,0.675055 z m -4.74382,4.519115 -2.71879,2.587709 -0.65626,-0.675055 2.71879,-2.587709 0.65626,0.675055 z m -4.76257,4.537866 -2.71879,2.568958 -0.63751,-0.675055 2.70004,-2.587709 0.65626,0.693806 z m -4.76257,4.519116 -2.71879,2.587709 -0.63751,-0.693806 2.71879,-2.568958 0.63751,0.675055 z m -4.74382,4.519115 -2.71879,2.587709 -0.65626,-0.675055 2.71879,-2.587709 0.65626,0.675055 z m -4.76257,4.519115 -2.71879,2.587709 -0.63751,-0.675055 2.71879,-2.587709 0.63751,0.675055 z m -4.74382,4.537866 -2.71879,2.568958 -0.65626,-0.675055 2.71879,-2.587709 0.65626,0.693806 z m -4.76257,4.519115 -2.71879,2.58771 -0.63751,-0.693807 2.71879,-2.568957 0.63751,0.675054 z m -4.74382,4.519116 -2.71879,2.587709 -0.65626,-0.675055 2.71879,-2.587709 0.65626,0.675055 z m -4.76257,4.519115 -2.71879,2.587709 -0.63751,-0.675055 2.71879,-2.587709 0.63751,0.675055 z m -4.76257,4.537866 -2.70004,2.56896 -0.65625,-0.67506 2.71878,-2.587706 0.63751,0.693806 z m -4.74382,4.51912 -2.71878,2.5877 -0.65626,-0.6938 2.71879,-2.56896 0.65625,0.67506 z m -4.76256,4.51911 -2.71879,2.58771 -0.63751,-0.67506 2.71879,-2.5877 0.63751,0.67505 z m -4.74382,4.51912 -2.71879,2.5877 -0.65626,-0.67505 2.71879,-2.58771 0.65626,0.67506 z m -4.76257,4.53786 -2.71879,2.56896 -0.63751,-0.67505 2.71879,-2.58771 0.63751,0.6938 z m -4.74382,4.51912 -2.71879,2.58771 -0.65626,-0.67506 2.71879,-2.58771 0.65626,0.67506 z m -4.76257,4.51911 -2.71879,2.58771 -0.63751,-0.67505 2.71879,-2.58771 0.63751,0.67505 z m -4.76257,4.51912 -2.70004,2.58771 -0.65626,-0.67506 2.71879,-2.58771 0.63751,0.67506 z m -4.74382,4.53786 -2.71879,2.58771 -0.63751,-0.6938 2.70004,-2.58771 0.65626,0.6938 z m -4.76257,4.51912 -2.71879,2.58771 -0.63751,-0.67506 2.71879,-2.58771 0.63751,0.67506 z m -4.74382,4.51911 -2.71879,2.58771 -0.65626,-0.67505 2.71879,-2.58771 0.65626,0.67505 z m -4.76257,4.51912 -2.71879,2.58771 -0.63751,-0.67506 2.71879,-2.58771 0.63751,0.67506 z m -4.74382,4.53787 -2.71879,2.5877 -0.65626,-0.6938 2.71879,-2.58771 0.65626,0.69381 z m -4.76257,4.51911 -2.71879,2.58771 -0.63751,-0.67505 2.71879,-2.58771 0.63751,0.67505 z m -4.76257,4.51912 -0.4875,0.46878 0.0188,-0.6563 2.10003,2.21268 -0.67501,0.6563 -2.43754,-2.56895 0.84376,-0.78757 0.63751,0.67506 z m 3.5813,4.06907 2.58754,2.71897 -0.69376,0.63756 -2.56879,-2.70022 0.67501,-0.65631 z m 4.51882,4.76289 2.58754,2.71897 -0.67501,0.63755 -2.58754,-2.71897 0.67501,-0.63755 z m 4.51882,4.74413 2.58753,2.71897 -0.67501,0.65631 -2.58753,-2.71897 0.67501,-0.65631 z m 4.53756,4.76289 2.56879,2.71897 -0.67501,0.63755 -2.58754,-2.71897 0.69376,-0.63755 z m 4.51882,4.74413 2.58754,2.71897 -0.69376,0.6563 -2.56879,-2.71897 0.67501,-0.6563 z m 4.51881,4.76289 2.58754,2.71897 -0.67501,0.63755 -2.58754,-2.71897 0.67501,-0.63755 z m 4.51882,4.76288 2.58754,2.70022 -0.67501,0.6563 -2.58754,-2.71897 0.67501,-0.63755 z m 4.53757,4.74413 2.56878,2.71897 -0.67501,0.63755 -2.58753,-2.70021 0.69376,-0.65631 z m 4.51881,4.76289 2.58754,2.71897 -0.69376,0.63755 -2.56879,-2.71897 0.67501,-0.63755 z m 4.51882,4.74413 2.58754,2.71897 -0.67501,0.6563 -2.58754,-2.71897 0.67501,-0.6563 z m 4.51881,4.76289 2.58754,2.71897 -0.67501,0.63755 -2.58754,-2.71897 0.67501,-0.63755 z m 4.53757,4.74413 2.56879,2.71897 -0.67501,0.6563 -2.58754,-2.71897 0.69376,-0.6563 z m 4.51882,4.76288 2.58753,2.71897 -0.69376,0.63756 -2.56878,-2.71897 0.67501,-0.63756 z m 4.51881,4.74414 2.58754,2.71897 -0.67501,0.6563 -2.58754,-2.71897 0.67501,-0.6563 z m 4.51882,4.76288 2.58754,2.71897 -0.67501,0.63755 -2.58754,-2.71897 0.67501,-0.63755 z m 4.53757,4.76289 2.56878,2.70022 -0.67501,0.6563 -2.58753,-2.71897 0.69376,-0.63755 z m 4.51881,4.74413 2.58754,2.71897 -0.69376,0.6563 -2.56879,-2.71897 0.67501,-0.6563 z m 4.51882,4.76289 2.58753,2.71897 -0.675,0.63755 -2.58754,-2.71897 0.67501,-0.63755 z m 4.51881,4.74413 2.58754,2.71897 -0.67501,0.6563 -2.58754,-2.71897 0.67501,-0.6563 z m 4.53757,4.76288 2.56879,2.71897 -0.67501,0.63755 -2.58754,-2.71896 0.69376,-0.63756 z m 4.51882,4.74414 2.58753,2.71897 -0.67501,0.6563 -2.58753,-2.71897 0.67501,-0.6563 z m 4.51881,4.76288 2.58754,2.71897 -0.67501,0.63755 -2.58754,-2.71897 0.67501,-0.63755 z m 4.51882,4.76289 2.58754,2.70021 -0.67501,0.65631 -2.58754,-2.71897 0.67501,-0.63755 z m 4.53756,4.74413 2.56879,2.71897 -0.67501,0.63755 -2.58754,-2.70022 0.69376,-0.6563 z m 4.51882,4.76288 2.58754,2.71897 -0.67501,0.63756 -2.58754,-2.71897 0.67501,-0.63756 z m 4.51882,4.74414 2.58753,2.71897 -0.67501,0.6563 -2.58753,-2.71897 0.67501,-0.6563 z m 4.51881,4.76288 2.58754,2.71897 -0.67501,0.63755 -2.58754,-2.71897 0.67501,-0.63755 z m 4.53757,4.74414 2.58754,2.71897 -0.69376,0.6563 -2.58754,-2.71897 0.69376,-0.6563 z m 4.51881,4.76288 2.58754,2.71897 -0.67501,0.63755 -2.58754,-2.71897 0.67501,-0.63755 z m 3.95631,0.93758 2.71879,-2.58771 0.63751,0.67505 -2.71879,2.58771 -0.63751,-0.67505 z m 4.74382,-4.51912 2.71879,-2.58771 0.65626,0.67506 -2.71879,2.58771 -0.65626,-0.67506 z m 4.76257,-4.51911 2.71879,-2.58771 0.63751,0.67505 -2.71879,2.58771 -0.63751,-0.67505 z m 4.76257,-4.53787 2.70004,-2.58771 0.65626,0.69381 -2.71879,2.56895 -0.63751,-0.67505 z m 4.74382,-4.51912 2.71879,-2.5877 0.63751,0.67505 -2.70004,2.58771 -0.65626,-0.67506 z m 4.76257,-4.51911 2.71879,-2.58771 0.63751,0.67505 -2.71879,2.58771 -0.63751,-0.67505 z m 4.74382,-4.53787 2.71879,-2.56895 0.65626,0.67505 -2.71879,2.58771 -0.65626,-0.69381 z m 4.76257,-4.51911 2.71879,-2.58771 0.63751,0.6938 -2.71879,2.56896 -0.63751,-0.67505 z m 4.74382,-4.51912 2.71879,-2.58771 0.65626,0.67506 -2.71879,2.58771 -0.65626,-0.67506 z m 4.76257,-4.51911 2.71879,-2.58771 0.63751,0.67505 -2.71879,2.58771 -0.63751,-0.67505 z m 4.76257,-4.53787 2.70004,-2.56896 0.65625,0.67506 -2.71878,2.58771 -0.63751,-0.69381 z m 4.74382,-4.51911 2.71878,-2.58771 0.63751,0.6938 -2.70004,2.56896 -0.65625,-0.67505 z m 4.76256,-4.51912 2.71879,-2.58771 0.63751,0.67506 -2.71879,2.58771 -0.63751,-0.67506 z m 4.74382,-4.51911 2.71879,-2.58771 0.65626,0.67505 -2.71879,2.58771 -0.65626,-0.67505 z m 4.76257,-4.53787 2.71879,-2.56896 0.63751,0.67506 -2.71879,2.58771 -0.63751,-0.69381 z m 4.74382,-4.51912 2.71879,-2.58771 0.65626,0.69381 -2.71879,2.56896 -0.65626,-0.67506 z m 4.76257,-4.51911 2.71879,-2.58771 0.63751,0.67505 -2.71879,2.58771 -0.63751,-0.67505 z m 4.74382,-4.51912 2.71879,-2.58771 0.65626,0.67506 -2.71879,2.58771 -0.65626,-0.67506 z m 4.76257,-4.53786 2.71879,-2.56896 0.63751,0.67505 -2.70004,2.58771 -0.65626,-0.6938 z m 4.76257,-4.51912 2.71879,-2.58771 0.63751,0.69381 -2.71879,2.56896 -0.63751,-0.67506 z m 4.74382,-4.51911 2.71879,-2.58771 0.65626,0.67505 -2.71879,2.58771 -0.65626,-0.67505 z m 4.76257,-4.51912 2.71879,-2.58771 0.63751,0.67506 -2.71879,2.58771 -0.63751,-0.67506 z m 4.74382,-4.53786 2.71879,-2.56896 0.65626,0.67505 -2.71879,2.58771 -0.65626,-0.6938 z m 4.76257,-4.51912 2.71879,-2.58771 0.63751,0.69381 -2.71879,2.56895 -0.63751,-0.67505 z m 4.74382,-4.51911 2.71879,-2.58771 0.65626,0.67505 -2.71879,2.58771 -0.65626,-0.67505 z m 4.76257,-4.51912 2.71879,-2.58771 0.63751,0.67506 -2.71879,2.5877 -0.63751,-0.67505 z m 4.76257,-4.53787 2.70004,-2.56895 0.65626,0.67505 -2.71879,2.58771 -0.63751,-0.69381 z m 4.74382,-4.51911 2.71879,-2.58771 0.65625,0.67505 -2.71878,2.58771 -0.65626,-0.67505 z m 4.76257,-4.51912 2.71878,-2.58771 0.63751,0.67506 -2.71879,2.58771 -0.6375,-0.67506 z m 1.91252,-3.93781 -2.58753,-2.71897 0.67501,-0.63756 2.58753,2.71897 -0.67501,0.63756 z m -4.53756,-4.74414 -2.58754,-2.71897 0.69376,-0.6563 2.58754,2.71897 -0.69376,0.6563 z m -4.51882,-4.76288 -2.58754,-2.71897 0.67501,-0.63755 2.58754,2.71897 -0.67501,0.63755 z m -4.51882,-4.74414 -2.58753,-2.71897 0.67501,-0.6563 2.58753,2.71897 -0.67501,0.6563 z m -4.51881,-4.76288 -2.58754,-2.71897 0.67501,-0.63755 2.58754,2.70022 -0.67501,0.6563 z m -4.53757,-4.76289 -2.58754,-2.71897 0.69377,-0.63755 2.58753,2.71897 -0.69376,0.63755 z m -4.51881,-4.74413 -2.58754,-2.71897 0.67501,-0.6563 2.58754,2.71897 -0.67501,0.6563 z m -4.51882,-4.76288 -2.58754,-2.71897 0.67501,-0.63756 2.58754,2.71897 -0.67501,0.63756 z m -4.51882,-4.74414 -2.58753,-2.71897 0.67501,-0.6563 2.58753,2.71897 -0.67501,0.6563 z m -4.53756,-4.76288 -2.58754,-2.71897 0.69376,-0.63755 2.58754,2.71897 -0.69376,0.63755 z m -4.51882,-4.74414 -2.58754,-2.71896 0.67501,-0.65631 2.58754,2.71897 -0.67501,0.6563 z m -4.51881,-4.76288 -2.58754,-2.71897 0.67501,-0.63755 2.58754,2.71897 -0.67501,0.63755 z m -4.51882,-4.76288 -2.58754,-2.70022 0.67501,-0.65631 2.58754,2.71897 -0.67501,0.63756 z m -4.53757,-4.74414 -2.58753,-2.71897 0.69376,-0.6563 2.58753,2.71897 -0.69376,0.6563 z m -4.51881,-4.76288 -2.58754,-2.718972 0.67501,-0.637552 2.58754,2.718974 -0.67501,0.63755 z m -4.51882,-4.744136 -2.58754,-2.71897 0.67501,-0.656303 2.58754,2.71897 -0.67501,0.656303 z m -4.51881,-4.762885 -2.58754,-2.71897 0.67501,-0.637551 2.58754,2.71897 -0.67501,0.637551 z m -4.53757,-4.744133 -2.58754,-2.71897 0.69376,-0.656303 2.56879,2.71897 -0.67501,0.656303 z m -4.51882,-4.762885 -2.58753,-2.71897 0.67501,-0.637551 2.58753,2.71897 -0.67501,0.637551 z m -4.51881,-4.762885 -2.58754,-2.700218 0.67501,-0.656303 2.58754,2.71897 -0.67501,0.637551 z m -4.51882,-4.744133 -2.58754,-2.71897 0.67501,-0.637551 2.58754,2.700218 -0.67501,0.656303 z m -4.53756,-4.762885 -2.58754,-2.718969 0.69376,-0.637552 2.56879,2.71897 -0.67501,0.637551 z m -4.51882,-4.744133 -2.58754,-2.71897 0.67501,-0.656303 2.58754,2.71897 -0.67501,0.656303 z m -4.51882,-4.762885 -2.58753,-2.71897 0.67501,-0.637551 2.58753,2.71897 -0.67501,0.637551 z m -4.53756,-4.744133 -2.56879,-2.71897 0.67501,-0.656303 2.58754,2.71897 -0.69376,0.656303 z m -4.51882,-4.762885 -2.58754,-2.71897 0.69376,-0.637551 2.56879,2.71897 -0.67501,0.637551 z m -4.51881,-4.762885 -2.58754,-2.700218 0.67501,-0.656303 2.58754,2.71897 -0.67501,0.637551 z m -4.51882,-4.744133 -2.58754,-2.71897 0.67501,-0.637551 2.58754,2.700218 -0.67501,0.656303 z m -4.53757,-4.762885 -2.56878,-2.718969 0.67501,-0.637552 2.58753,2.71897 -0.69376,0.637551 z m -4.51881,-4.744133 -0.80626,-0.86257 0.67501,-0.656303 0.80626,0.86257 -0.67501,0.656303 z"
         style="fill:#000000;fill-opacity:1;fill-rule:nonzero;stroke:#000000;stroke-width:0.1500022px;stroke-linecap:butt;stroke-linejoin:bevel;stroke-opacity:1;stroke-dasharray:none"
         inkscape:connector-curvature="0" />
      <path
         id="path5571"
         d="m 307.07323,301.16808 124.97058,0.71256 -0.0188,2.81273 -124.97058,-0.71256 0.0188,-2.81273 z m 123.58306,-2.10017 8.40012,4.2566 -8.45637,4.18158 0.0563,-8.43818 z"
         style="fill:#ff0000;fill-opacity:1;fill-rule:nonzero;stroke:#ff0000;stroke-width:0.1500022px;stroke-linecap:butt;stroke-linejoin:bevel;stroke-opacity:1;stroke-dasharray:none"
         inkscape:connector-curvature="0" />
      <path
         id="path5573"
         d="m 169.07122,301.16808 126.09559,0.71256 -0.0188,2.81273 -126.09559,-0.71256 0.0188,-2.81273 z m 124.70807,-2.10017 8.40012,4.2566 -8.45637,4.18158 0.0562,-8.43818 z"
         style="fill:#ff0000;fill-opacity:1;fill-rule:nonzero;stroke:#ff0000;stroke-width:0.1500022px;stroke-linecap:butt;stroke-linejoin:bevel;stroke-opacity:1;stroke-dasharray:none"
         inkscape:connector-curvature="0" />
      <path
         id="path5575"
         d="m 321.6047,29.346121 124.22056,1.050085 -0.0188,2.812727 -124.22056,-1.050085 0.0187,-2.812727 z m 1.36877,5.625454 -8.41888,-4.294097 8.47513,-4.144084 -0.0562,8.438181 z"
         style="fill:#ff0000;fill-opacity:1;fill-rule:nonzero;stroke:#ff0000;stroke-width:0.1500022px;stroke-linecap:butt;stroke-linejoin:bevel;stroke-opacity:1;stroke-dasharray:none"
         inkscape:connector-curvature="0" />
      <path
         id="path5577"
         d="m 178.3526,29.7024 130.97067,0.693806 -0.0187,2.812727 -130.97067,-0.693806 0.0187,-2.812727 z m 1.36877,5.625454 -8.41887,-4.275345 8.47512,-4.162837 -0.0563,8.438182 z"
         style="fill:#ff0000;fill-opacity:1;fill-rule:nonzero;stroke:#ff0000;stroke-width:0.1500022px;stroke-linecap:butt;stroke-linejoin:bevel;stroke-opacity:1;stroke-dasharray:none"
         inkscape:connector-curvature="0" />
      <path
         id="path5579"
         d="m 445.78776,180.22081 0.99376,122.72866 -2.81254,0.0188 -0.99376,-122.72867 2.81254,-0.0188 z m -5.62508,1.44387 4.14381,-8.47569 4.29381,8.41943 -8.43762,0.0563 z"
         style="fill:#ff0000;fill-opacity:1;fill-rule:nonzero;stroke:#ff0000;stroke-width:0.1500022px;stroke-linecap:butt;stroke-linejoin:bevel;stroke-opacity:1;stroke-dasharray:none"
         inkscape:connector-curvature="0" />
      <path
         id="path5581"
         d="m 446.63152,37.728048 -0.54376,126.854002 -2.81254,-0.0188 0.54376,-126.853994 2.81254,0.01875 z m -5.62508,1.387612 4.23756,-8.438182 4.20006,8.456934 -8.43762,-0.01875 z"
         style="fill:#ff0000;fill-opacity:1;fill-rule:nonzero;stroke:#ff0000;stroke-width:0.1500022px;stroke-linecap:butt;stroke-linejoin:bevel;stroke-opacity:1;stroke-dasharray:none"
         inkscape:connector-curvature="0" />
      <path
         id="path5583"
         d="m 167.33682,149.27143 1.05939,-119.794049 2.81254,0.02813 -1.05939,119.794049 -2.81254,-0.0281 z m 5.63446,-1.35948 -4.29382,8.40068 -4.14381,-8.46631 8.43763,0.0656 z"
         style="fill:#ff0000;fill-opacity:1;fill-rule:nonzero;stroke:#ff0000;stroke-width:0.1500022px;stroke-linecap:butt;stroke-linejoin:bevel;stroke-opacity:1;stroke-dasharray:none"
         inkscape:connector-curvature="0" />
      <path
         id="path5585"
         d="m 166.95244,290.66723 0.88126,-123.91001 2.81254,0.0188 -0.88126,123.91001 -2.81254,-0.0187 z m 5.64383,-1.36886 -4.29381,8.40068 -4.14381,-8.45693 8.43762,0.0562 z"
         style="fill:#ff0000;fill-opacity:1;fill-rule:nonzero;stroke:#ff0000;stroke-width:0.1500022px;stroke-linecap:butt;stroke-linejoin:bevel;stroke-opacity:1;stroke-dasharray:none"
         inkscape:connector-curvature="0" />
      <path
         id="path5587"
         d="m 442.28146,174.22033 -129.88315,121.9411 -1.91253,-2.04392 129.8644,-121.9411 1.93128,2.04392 z m -126.92061,123.02868 -9.05638,2.70022 3.2813,-8.85071 5.77508,6.15049 z"
         style="fill:#0000ff;fill-opacity:1;fill-rule:nonzero;stroke:#0000ff;stroke-width:0.1500022px;stroke-linecap:butt;stroke-linejoin:bevel;stroke-opacity:1;stroke-dasharray:none"
         inkscape:connector-curvature="0" />
      <path
         id="path5589"
         d="m 302.57317,39.565696 -126.92061,121.153534 -1.93127,-2.04391 126.90185,-121.153539 1.95003,2.043915 z m -4.89382,-3.112751 9.00013,-2.775224 -3.18755,8.888218 -5.81258,-6.112994 z"
         style="fill:#0000ff;fill-opacity:1;fill-rule:nonzero;stroke:#0000ff;stroke-width:0.1500022px;stroke-linecap:butt;stroke-linejoin:bevel;stroke-opacity:1;stroke-dasharray:none"
         inkscape:connector-curvature="0" />
      <path
         id="path5591"
         d="m 302.29191,300.17425 -126.7706,-132.91074 2.04378,-1.95015 126.7706,132.92948 -2.04378,1.93141 z M 174.45255,170.2075 l -2.77504,-9.01948 8.88763,3.20651 -6.11259,5.81297 z"
         style="fill:#0000ff;fill-opacity:1;fill-rule:nonzero;stroke:#0000ff;stroke-width:0.1500022px;stroke-linecap:butt;stroke-linejoin:bevel;stroke-opacity:1;stroke-dasharray:none"
         inkscape:connector-curvature="0" />
      <path
         id="path5593"
         d="M 435.0626,163.47571 310.91704,33.902739 l 2.04378,-1.931406 124.12681,129.554217 -2.02503,1.95016 z m 3.0938,-4.9129 2.77504,9.00073 -8.86888,-3.16901 6.09384,-5.83172 z"
         style="fill:#0000ff;fill-opacity:1;fill-rule:nonzero;stroke:#0000ff;stroke-width:0.1500022px;stroke-linecap:butt;stroke-linejoin:bevel;stroke-opacity:1;stroke-dasharray:none"
         inkscape:connector-curvature="0" />
      <text
         id="text5595"
         style="font-size:12.45018196px;font-style:normal;font-weight:bold;text-align:start;text-anchor:start;fill:#000000;font-family:Arial"
         y="173.41402"
         x="450.75659"
         xml:space="preserve">A</text>
      <text
         id="text5597"
         style="font-size:12.45018196px;font-style:normal;font-weight:bold;text-align:start;text-anchor:start;fill:#000000;font-family:Arial"
         y="173.41402"
         x="459.75671"
         xml:space="preserve"> </text>
      <path
         id="path5599"
         d="m 444.60649,198.18476 -2.56879,-0.37503 -2.53128,-0.39378 -2.43754,-0.48754 -2.28753,-0.6188 -1.12502,-0.41253 -1.10626,-0.46879 -2.9063,-1.63138 c -0.3,-0.16877 -0.39375,-0.5438 -0.225,-0.84382 0.16875,-0.30003 0.54376,-0.41253 0.84376,-0.24377 l 2.77504,1.57513 1.03127,0.43128 1.03126,0.37503 2.23129,0.6188 2.38128,0.48754 2.49379,0.37503 2.56878,0.37503 c 0.35626,0.0563 0.58126,0.37503 0.52501,0.71256 -0.0375,0.35628 -0.35625,0.5813 -0.69376,0.52504 z m -15.75023,-1.12509 -4.05006,-7.36935 8.30637,1.2001 z"
         clip-path="url(#clipEmfPath5)"
         style="fill:#000000;fill-opacity:1;fill-rule:nonzero;stroke:#000000;stroke-width:0.1500022px;stroke-linecap:butt;stroke-linejoin:bevel;stroke-opacity:1;stroke-dasharray:none"
         inkscape:connector-curvature="0" />
      <path
         id="path5601"
         d="m 445.45025,224.19311 c -30.03793,0 -54.39454,-23.15812 -54.39454,-51.75418"
         style="fill:none;stroke:#000000;stroke-width:0.31875464px;stroke-linecap:round;stroke-linejoin:round;stroke-opacity:1;stroke-dasharray:none"
         inkscape:connector-curvature="0" />
      <path
         id="path5603"
         d="m 432.68132,90.438556 0.075,0 0.13125,-0.01875 0.33751,-0.01875 0.43125,-0.01875 0.52501,-0.0375 0.60001,-0.0375 0.71251,-0.05625 0.78751,-0.0375 1.76253,-0.112509 c 0.3375,-0.0375 0.6375,0.225018 0.65626,0.581297 0.0188,0.337527 -0.24376,0.637552 -0.58126,0.656303 l -1.76253,0.112509 -0.76876,0.05625 -0.71251,0.0375 -0.61876,0.05625 -0.52501,0.01875 -0.43125,0.0375 -0.28126,0.01875 -0.2625,0.01875 -0.075,0 c -0.33751,0 -0.61876,-0.281273 -0.61876,-0.637552 0,-0.337527 0.28125,-0.6188 0.61876,-0.6188 z m 3.90005,-3.375272 7.72512,3.244012 -7.23761,4.237842 z"
         style="fill:#000000;fill-opacity:1;fill-rule:nonzero;stroke:#000000;stroke-width:0.1500022px;stroke-linecap:butt;stroke-linejoin:bevel;stroke-opacity:1;stroke-dasharray:none"
         inkscape:connector-curvature="0" />
      <path
         id="path5605"
         d="m 431.53755,172.66395 -121.63303,114.81553 -1.93127,-2.04392 121.63302,-114.81553 1.93128,2.04392 z m -4.87507,-3.11275 9.01888,-2.73772 -3.22505,8.86946 -5.79383,-6.13174 z"
         style="fill:#ff0000;fill-opacity:1;fill-rule:nonzero;stroke:#ff0000;stroke-width:0.1500022px;stroke-linecap:butt;stroke-linejoin:bevel;stroke-opacity:1;stroke-dasharray:none"
         inkscape:connector-curvature="0" />
      <path
         id="path5607"
         d="M 430.54379,167.43228 313.93583,46.466254 l 2.02503,-1.950158 116.60796,120.947274 -2.02503,1.96891 z M 312.88582,49.447745 l -2.83129,-9.019479 8.90638,3.150255 -6.07509,5.869224 z"
         style="fill:#ff0000;fill-opacity:1;fill-rule:nonzero;stroke:#ff0000;stroke-width:0.1500022px;stroke-linecap:butt;stroke-linejoin:bevel;stroke-opacity:1;stroke-dasharray:none"
         inkscape:connector-curvature="0" />
      <path
         id="path5609"
         d="m 306.17322,44.44109 -116.08294,112.86537 -1.96878,-2.02517 116.08294,-112.846612 1.96878,2.006412 z m -113.1204,113.8967 -9.00013,2.85023 3.11254,-8.90697 5.88759,6.05674 z"
         style="fill:#ff0000;fill-opacity:1;fill-rule:nonzero;stroke:#ff0000;stroke-width:0.1500022px;stroke-linecap:butt;stroke-linejoin:bevel;stroke-opacity:1;stroke-dasharray:none"
         inkscape:connector-curvature="0" />
      <path
         id="path5611"
         d="m 298.95436,286.07311 -114.78917,-120.90977 2.04378,-1.9314 114.78917,120.90977 -2.04378,1.9314 z m 3.11255,-4.89414 2.73754,9.01947 -8.86888,-3.2065 6.13134,-5.81297 z"
         style="fill:#ff0000;fill-opacity:1;fill-rule:nonzero;stroke:#ff0000;stroke-width:0.1500022px;stroke-linecap:butt;stroke-linejoin:bevel;stroke-opacity:1;stroke-dasharray:none"
         inkscape:connector-curvature="0" />
      <text
         id="text5613"
         style="font-size:12.45018196px;font-style:normal;font-weight:bold;text-align:start;text-anchor:start;fill:#000000;font-family:Arial"
         y="280.22263"
         x="449.55655"
         xml:space="preserve">E</text>
      <text
         id="text5615"
         style="font-size:8.10011864px;font-style:normal;font-weight:bold;text-align:start;text-anchor:start;fill:#000000;font-family:Arial"
         y="282.17279"
         x="457.80667"
         xml:space="preserve">3</text>
      <text
         id="text5617"
         style="font-size:8.10011864px;font-style:normal;font-weight:bold;text-align:start;text-anchor:start;fill:#000000;font-family:Arial"
         y="282.17279"
         x="462.45676"
         xml:space="preserve"> </text>
      <text
         id="text5619"
         style="font-size:12.45018196px;font-style:normal;font-weight:bold;text-align:start;text-anchor:start;fill:#000000;font-family:Arial"
         y="21.151709"
         x="222.00323"
         xml:space="preserve">E</text>
      <text
         id="text5621"
         style="font-size:8.10011864px;font-style:normal;font-weight:bold;text-align:start;text-anchor:start;fill:#000000;font-family:Arial"
         y="23.101866"
         x="230.25336"
         xml:space="preserve">6</text>
      <text
         id="text5623"
         style="font-size:8.10011864px;font-style:normal;font-weight:bold;text-align:start;text-anchor:start;fill:#000000;font-family:Arial"
         y="23.101866"
         x="234.90343"
         xml:space="preserve"> </text>
      <text
         id="text5625"
         style="font-size:12.45018196px;font-style:normal;font-weight:bold;text-align:start;text-anchor:start;fill:#000000;font-family:Arial"
         y="98.407951"
         x="150.0022"
         xml:space="preserve">E</text>
      <text
         id="text5627"
         style="font-size:8.10011864px;font-style:normal;font-weight:bold;text-align:start;text-anchor:start;fill:#000000;font-family:Arial"
         y="100.35811"
         x="158.2523"
         xml:space="preserve">7</text>
      <text
         id="text5629"
         style="font-size:8.10011864px;font-style:normal;font-weight:bold;text-align:start;text-anchor:start;fill:#000000;font-family:Arial"
         y="100.35811"
         x="162.90237"
         xml:space="preserve"> </text>
      <text
         id="text5631"
         style="font-size:12.45018196px;font-style:normal;font-weight:bold;text-align:start;text-anchor:start;fill:#000000;font-family:Arial"
         y="226.6683"
         x="148.05215"
         xml:space="preserve">E</text>
      <text
         id="text5633"
         style="font-size:8.10011864px;font-style:normal;font-weight:bold;text-align:start;text-anchor:start;fill:#000000;font-family:Arial"
         y="228.61847"
         x="156.30228"
         xml:space="preserve">8</text>
      <text
         id="text5635"
         style="font-size:8.10011864px;font-style:normal;font-weight:bold;text-align:start;text-anchor:start;fill:#000000;font-family:Arial"
         y="228.61847"
         x="160.95235"
         xml:space="preserve"> </text>
      <text
         id="text5637"
         style="font-size:12.45018196px;font-style:normal;font-weight:bold;text-align:start;text-anchor:start;fill:#000000;font-family:Arial"
         y="249.17014"
         x="376.80551"
         xml:space="preserve">E</text>
      <text
         id="text5639"
         style="font-size:8.10011864px;font-style:normal;font-weight:bold;text-align:start;text-anchor:start;fill:#000000;font-family:Arial"
         y="251.12029"
         x="385.05563"
         xml:space="preserve">10</text>
      <text
         id="text5641"
         style="font-size:8.10011864px;font-style:normal;font-weight:bold;text-align:start;text-anchor:start;fill:#000000;font-family:Arial"
         y="251.12029"
         x="394.20575"
         xml:space="preserve"> </text>
      <text
         id="text5643"
         style="font-size:12.45018196px;font-style:normal;font-weight:bold;text-align:start;text-anchor:start;fill:#000000;font-family:Arial"
         y="74.706032"
         x="236.25345"
         xml:space="preserve">E</text>
      <text
         id="text5645"
         style="font-size:8.10011864px;font-style:normal;font-weight:bold;text-align:start;text-anchor:start;fill:#000000;font-family:Arial"
         y="76.656197"
         x="244.50357"
         xml:space="preserve">12</text>
      <text
         id="text5647"
         style="font-size:8.10011864px;font-style:normal;font-weight:bold;text-align:start;text-anchor:start;fill:#000000;font-family:Arial"
         y="76.656197"
         x="253.6537"
         xml:space="preserve"> </text>
      <text
         id="text5649"
         style="font-size:12.45018196px;font-style:normal;font-weight:bold;text-align:start;text-anchor:start;fill:#000000;font-family:Arial"
         y="77.706276"
         x="357.75522"
         xml:space="preserve">E</text>
      <text
         id="text5651"
         style="font-size:8.10011864px;font-style:normal;font-weight:bold;text-align:start;text-anchor:start;fill:#000000;font-family:Arial"
         y="79.656433"
         x="366.00534"
         xml:space="preserve">11</text>
      <text
         id="text5653"
         style="font-size:8.10011864px;font-style:normal;font-weight:bold;text-align:start;text-anchor:start;fill:#000000;font-family:Arial"
         y="79.656433"
         x="375.15549"
         xml:space="preserve"> </text>
      <text
         id="text5655"
         style="font-size:12.45018196px;font-style:normal;font-weight:bold;text-align:start;text-anchor:start;fill:#000000;font-family:Arial"
         y="246.46991"
         x="218.55319"
         xml:space="preserve">E</text>
      <text
         id="text5657"
         style="font-size:8.10011864px;font-style:normal;font-weight:bold;text-align:start;text-anchor:start;fill:#000000;font-family:Arial"
         y="248.42007"
         x="226.80331"
         xml:space="preserve">9</text>
      <text
         id="text5659"
         style="font-size:8.10011864px;font-style:normal;font-weight:bold;text-align:start;text-anchor:start;fill:#000000;font-family:Arial"
         y="248.42007"
         x="231.45338"
         xml:space="preserve"> </text>
      <text
         id="text5661"
         style="font-size:12.45018196px;font-style:normal;font-weight:bold;text-align:start;text-anchor:start;fill:#000000;font-family:Arial"
         y="244.96979"
         x="330.75482"
         xml:space="preserve">E</text>
      <text
         id="text5663"
         style="font-size:8.10011864px;font-style:normal;font-weight:bold;text-align:start;text-anchor:start;fill:#000000;font-family:Arial"
         y="246.91995"
         x="339.00494"
         xml:space="preserve">14</text>
      <text
         id="text5665"
         style="font-size:8.10011864px;font-style:normal;font-weight:bold;text-align:start;text-anchor:start;fill:#000000;font-family:Arial"
         y="246.91995"
         x="348.15509"
         xml:space="preserve"> </text>
      <text
         id="text5667"
         style="font-size:12.45018196px;font-style:normal;font-weight:bold;text-align:start;text-anchor:start;fill:#000000;font-family:Arial"
         y="70.205673"
         x="448.05655"
         xml:space="preserve">E</text>
      <text
         id="text5669"
         style="font-size:8.10011864px;font-style:normal;font-weight:bold;text-align:start;text-anchor:start;fill:#000000;font-family:Arial"
         y="72.15583"
         x="456.30667"
         xml:space="preserve">4</text>
      <text
         id="text5671"
         style="font-size:8.10011864px;font-style:normal;font-weight:bold;text-align:start;text-anchor:start;fill:#000000;font-family:Arial"
         y="72.15583"
         x="460.95673"
         xml:space="preserve"> </text>
      <text
         id="text5673"
         style="font-size:12.45018196px;font-style:normal;font-weight:bold;text-align:start;text-anchor:start;fill:#000000;font-family:Arial"
         y="24.151951"
         x="402.00586"
         xml:space="preserve">E</text>
      <text
         id="text5675"
         style="font-size:8.10011864px;font-style:normal;font-weight:bold;text-align:start;text-anchor:start;fill:#000000;font-family:Arial"
         y="26.10211"
         x="410.25598"
         xml:space="preserve">5</text>
      <text
         id="text5677"
         style="font-size:8.10011864px;font-style:normal;font-weight:bold;text-align:start;text-anchor:start;fill:#000000;font-family:Arial"
         y="26.10211"
         x="414.90607"
         xml:space="preserve"> </text>
      <text
         id="text5679"
         style="font-size:12.45018196px;font-style:normal;font-weight:bold;text-align:start;text-anchor:start;fill:#000000;font-family:Arial"
         y="318.92578"
         x="228.00333"
         xml:space="preserve">E</text>
      <text
         id="text5681"
         style="font-size:8.10011864px;font-style:normal;font-weight:bold;text-align:start;text-anchor:start;fill:#000000;font-family:Arial"
         y="320.87592"
         x="236.25345"
         xml:space="preserve">1</text>
      <text
         id="text5683"
         style="font-size:8.10011864px;font-style:normal;font-weight:bold;text-align:start;text-anchor:start;fill:#000000;font-family:Arial"
         y="320.87592"
         x="240.90352"
         xml:space="preserve"> </text>
      <text
         id="text5685"
         style="font-size:12.45018196px;font-style:normal;font-weight:bold;text-align:start;text-anchor:start;fill:#000000;font-family:Arial"
         y="316.97562"
         x="352.50516"
         xml:space="preserve">E</text>
      <text
         id="text5687"
         style="font-size:8.10011864px;font-style:normal;font-weight:bold;text-align:start;text-anchor:start;fill:#000000;font-family:Arial"
         y="318.92578"
         x="360.75528"
         xml:space="preserve">2</text>
      <text
         id="text5689"
         style="font-size:8.10011864px;font-style:normal;font-weight:bold;text-align:start;text-anchor:start;fill:#000000;font-family:Arial"
         y="318.92578"
         x="365.40533"
         xml:space="preserve"> </text>
      <text
         id="text5691"
         style="font-size:12.45018196px;font-style:normal;font-weight:bold;text-align:start;text-anchor:start;fill:#000000;font-family:Arial"
         y="100.95816"
         x="342.005"
         xml:space="preserve">E</text>
      <text
         id="text5693"
         style="font-size:8.10011864px;font-style:normal;font-weight:bold;text-align:start;text-anchor:start;fill:#000000;font-family:Arial"
         y="102.90831"
         x="350.2551"
         xml:space="preserve">15</text>
      <text
         id="text5695"
         style="font-size:8.10011864px;font-style:normal;font-weight:bold;text-align:start;text-anchor:start;fill:#000000;font-family:Arial"
         y="102.90831"
         x="359.40524"
         xml:space="preserve"> </text>
      <text
         id="text5697"
         style="font-size:12.45018196px;font-style:normal;font-weight:bold;text-align:start;text-anchor:start;fill:#000000;font-family:Arial"
         y="100.95816"
         x="262.05383"
         xml:space="preserve">E</text>
      <text
         id="text5699"
         style="font-size:8.10011864px;font-style:normal;font-weight:bold;text-align:start;text-anchor:start;fill:#000000;font-family:Arial"
         y="102.90831"
         x="270.30396"
         xml:space="preserve">16</text>
      <text
         id="text5701"
         style="font-size:8.10011864px;font-style:normal;font-weight:bold;text-align:start;text-anchor:start;fill:#000000;font-family:Arial"
         y="102.90831"
         x="279.45407"
         xml:space="preserve"> </text>
      <text
         id="text5703"
         style="font-size:12.45018196px;font-style:normal;font-weight:bold;text-align:start;text-anchor:start;fill:#000000;font-family:Arial"
         y="245.71985"
         x="271.80396"
         xml:space="preserve">E</text>
      <text
         id="text5705"
         style="font-size:8.10011864px;font-style:normal;font-weight:bold;text-align:start;text-anchor:start;fill:#000000;font-family:Arial"
         y="247.67001"
         x="280.05408"
         xml:space="preserve">13</text>
      <text
         id="text5707"
         style="font-size:8.10011864px;font-style:normal;font-weight:bold;text-align:start;text-anchor:start;fill:#000000;font-family:Arial"
         y="247.67001"
         x="289.20422"
         xml:space="preserve"> </text>
      <path
         id="path5709"
         d="m 444.47524,166.43845 c -1.98753,0 -3.60005,1.59388 -3.60005,3.54403 0,1.95016 1.61252,3.52529 3.60005,3.52529 1.98753,0 3.5813,-1.57513 3.5813,-3.52529 0,-1.95015 -1.59377,-3.54403 -3.5813,-3.54403"
         clip-path="url(#clipEmfPath21)"
         style="fill:#ffffff;fill-opacity:1;fill-rule:evenodd;stroke:none"
         inkscape:connector-curvature="0" />
      <path
         id="path5711"
         d="m 444.47524,166.43845 c -1.98753,0 -3.60005,1.59388 -3.60005,3.54403 0,1.95016 1.61252,3.52529 3.60005,3.52529 1.98753,0 3.5813,-1.57513 3.5813,-3.52529 0,-1.95015 -1.59377,-3.54403 -3.5813,-3.54403"
         style="fill:none;stroke:#000000;stroke-width:2.81254101px;stroke-linecap:round;stroke-linejoin:round;stroke-opacity:1;stroke-dasharray:none"
         inkscape:connector-curvature="0" />
      <path
         id="path5713"
         d="m 309.90452,27.677236 c -1.98752,0 -3.60005,1.593879 -3.60005,3.544036 0,1.950158 1.61253,3.525285 3.60005,3.525285 1.98753,0 3.60006,-1.575127 3.60006,-3.525285 0,-1.950157 -1.61253,-3.544036 -3.60006,-3.544036"
         style="fill:#ffffff;fill-opacity:1;fill-rule:evenodd;stroke:none"
         inkscape:connector-curvature="0" />
      <path
         id="path5715"
         d="m 309.90452,27.677236 c -1.98752,0 -3.60005,1.593879 -3.60005,3.544036 0,1.950158 1.61253,3.525285 3.60005,3.525285 1.98753,0 3.60006,-1.575127 3.60006,-3.525285 0,-1.950157 -1.61253,-3.544036 -3.60006,-3.544036"
         style="fill:none;stroke:#000000;stroke-width:2.81254101px;stroke-linecap:round;stroke-linejoin:round;stroke-opacity:1;stroke-dasharray:none"
         inkscape:connector-curvature="0" />
      <path
         id="path5717"
         d="m 169.65248,158.18778 c -1.98753,0 -3.60006,1.5845 -3.60006,3.53466 0,1.95016 1.61253,3.53466 3.60006,3.53466 1.98753,0 3.59067,-1.5845 3.59067,-3.53466 0,-1.95016 -1.60314,-3.53466 -3.59067,-3.53466"
         style="fill:#ffffff;fill-opacity:1;fill-rule:evenodd;stroke:none"
         inkscape:connector-curvature="0" />
      <path
         id="path5719"
         d="m 169.65248,158.18778 c -1.98753,0 -3.60006,1.5845 -3.60006,3.53466 0,1.95016 1.61253,3.53466 3.60006,3.53466 1.98753,0 3.59067,-1.5845 3.59067,-3.53466 0,-1.95016 -1.60314,-3.53466 -3.59067,-3.53466"
         style="fill:none;stroke:#000000;stroke-width:2.81254101px;stroke-linecap:round;stroke-linejoin:round;stroke-opacity:1;stroke-dasharray:none"
         inkscape:connector-curvature="0" />
      <path
         id="path5721"
         d="m 168.52746,298.82414 c -1.98753,0 -3.60005,1.5845 -3.60005,3.53466 0,1.95016 1.61252,3.53466 3.60005,3.53466 1.98753,0 3.59068,-1.5845 3.59068,-3.53466 0,-1.95016 -1.60315,-3.53466 -3.59068,-3.53466"
         style="fill:#ffffff;fill-opacity:1;fill-rule:evenodd;stroke:none"
         inkscape:connector-curvature="0" />
      <path
         id="path5723"
         d="m 168.52746,298.82414 c -1.98753,0 -3.60005,1.59388 -3.60005,3.54404 0,1.95016 1.61252,3.52528 3.60005,3.52528 1.98753,0 3.60005,-1.57512 3.60005,-3.52528 0,-1.95016 -1.61252,-3.54404 -3.60005,-3.54404"
         style="fill:none;stroke:#000000;stroke-width:2.81254101px;stroke-linecap:round;stroke-linejoin:round;stroke-opacity:1;stroke-dasharray:none"
         inkscape:connector-curvature="0" />
      <path
         id="path5725"
         d="m 306.52948,299.5742 c -1.98753,0 -3.60006,1.59388 -3.60006,3.54404 0,1.95016 1.61253,3.52528 3.60006,3.52528 1.98752,0 3.60005,-1.57512 3.60005,-3.52528 0,-1.95016 -1.61253,-3.54404 -3.60005,-3.54404"
         style="fill:#ffffff;fill-opacity:1;fill-rule:evenodd;stroke:none"
         inkscape:connector-curvature="0" />
      <path
         id="path5727"
         d="m 306.52948,299.5742 c -1.98753,0 -3.60006,1.59388 -3.60006,3.54404 0,1.95016 1.61253,3.52528 3.60006,3.52528 1.98752,0 3.60005,-1.57512 3.60005,-3.52528 0,-1.95016 -1.61253,-3.54404 -3.60005,-3.54404"
         style="fill:none;stroke:#000000;stroke-width:2.81254101px;stroke-linecap:round;stroke-linejoin:round;stroke-opacity:1;stroke-dasharray:none"
         inkscape:connector-curvature="0" />
      <path
         id="path5729"
         d="m 390.43695,171.65137 0.20625,-3.22526 0.26251,-3.22526 0.4125,-3.20651 0.30001,-1.59388 0.3375,-1.59388 0.82501,-3.07525 0.99377,-3.00024 0.58126,-1.51887 0.65626,-1.50012 0.71251,-1.51888 0.78751,-1.53762 0.88126,-1.55638 0.95627,-1.55637 1.03126,-1.55638 1.08752,-1.55637 0.95626,-1.25636 c 0.20625,-0.28127 0.58126,-0.33752 0.86251,-0.11251 0.28126,0.20627 0.33751,0.5813 0.13126,0.86257 l -0.91877,1.21885 -1.06876,1.53763 -1.01252,1.51887 -0.93751,1.51887 -0.86251,1.51888 -0.76877,1.50012 -0.69376,1.46261 -0.61875,1.46262 -0.56251,1.46262 -0.99377,2.94399 -0.80626,3.01899 -0.3375,1.51888 -0.26251,1.53762 -0.4125,3.16901 -0.28126,3.18775 -0.1875,3.22526 c -0.0188,0.35628 -0.31876,0.6188 -0.67501,0.60005 -0.33751,-0.0188 -0.60001,-0.31877 -0.58126,-0.67505 z m 7.72511,-33.3777 7.51886,-3.7128 -1.53752,8.25067 z"
         style="fill:#000000;fill-opacity:1;fill-rule:nonzero;stroke:#000000;stroke-width:0.1500022px;stroke-linecap:butt;stroke-linejoin:bevel;stroke-opacity:1;stroke-dasharray:none"
         inkscape:connector-curvature="0" />
      <text
         id="text5731"
         style="font-size:12.45018196px;font-style:normal;font-weight:bold;text-align:start;text-anchor:start;fill:#000000;font-family:Arial"
         y="210.16698"
         x="421.80615"
         xml:space="preserve">β</text>
      <text
         id="text5733"
         style="font-size:8.10011864px;font-style:normal;font-weight:bold;text-align:start;text-anchor:start;fill:#000000;font-family:Arial"
         y="212.11714"
         x="429.45627"
         xml:space="preserve">3,10</text>
      <text
         id="text5735"
         style="font-size:8.10011864px;font-style:normal;font-weight:bold;text-align:start;text-anchor:start;fill:#000000;font-family:Arial"
         y="212.11714"
         x="445.20651"
         xml:space="preserve"> </text>
      <text
         id="text5737"
         style="font-size:12.45018196px;font-style:normal;font-weight:normal;text-align:start;text-anchor:start;fill:#000000;font-family:Arial"
         y="239.41934"
         x="421.80615"
         xml:space="preserve"> </text>
      <text
         id="text5739"
         style="font-size:12.45018196px;font-style:normal;font-weight:bold;text-align:start;text-anchor:start;fill:#000000;font-family:Arial"
         y="182.41473"
         x="371.55542"
         xml:space="preserve">β</text>
      <text
         id="text5741"
         style="font-size:8.10011864px;font-style:normal;font-weight:bold;text-align:start;text-anchor:start;fill:#000000;font-family:Arial"
         y="184.36488"
         x="379.20554"
         xml:space="preserve">3,15</text>
      <text
         id="text5743"
         style="font-size:8.10011864px;font-style:normal;font-weight:bold;text-align:start;text-anchor:start;fill:#000000;font-family:Arial"
         y="184.36488"
         x="394.95578"
         xml:space="preserve"> </text>
      <path
         id="path5745"
         d="m 444.53149,299.19917 c -1.98753,0 -3.60005,1.59388 -3.60005,3.54404 0,1.95016 1.61252,3.52528 3.60005,3.52528 1.98753,0 3.60005,-1.57512 3.60005,-3.52528 0,-1.95016 -1.61252,-3.54404 -3.60005,-3.54404"
         clip-path="url(#clipEmfPath23)"
         style="fill:#ffffff;fill-opacity:1;fill-rule:evenodd;stroke:none"
         inkscape:connector-curvature="0" />
      <path
         id="path5747"
         d="m 444.53149,299.19917 c -1.98753,0 -3.60005,1.59388 -3.60005,3.54404 0,1.95016 1.61252,3.52528 3.60005,3.52528 1.98753,0 3.60005,-1.57512 3.60005,-3.52528 0,-1.95016 -1.61252,-3.54404 -3.60005,-3.54404"
         style="fill:none;stroke:#000000;stroke-width:2.81254101px;stroke-linecap:round;stroke-linejoin:round;stroke-opacity:1;stroke-dasharray:none"
         inkscape:connector-curvature="0" />
      <text
         id="text5749"
         style="font-size:12.45018196px;font-style:normal;font-weight:bold;text-align:start;text-anchor:start;fill:#000000;font-family:Arial"
         y="333.92697"
         x="450.30658"
         xml:space="preserve">-</text>
      <text
         id="text5751"
         style="font-size:12.45018196px;font-style:normal;font-weight:bold;text-align:start;text-anchor:start;fill:#000000;font-family:Arial"
         y="333.92697"
         x="454.50665"
         xml:space="preserve">Dir(E</text>
      <text
         id="text5753"
         style="font-size:8.10011864px;font-style:normal;font-weight:bold;text-align:start;text-anchor:start;fill:#000000;font-family:Arial"
         y="335.87714"
         x="484.20706"
         xml:space="preserve">3</text>
      <text
         id="text5755"
         style="font-size:12.45018196px;font-style:normal;font-weight:bold;text-align:start;text-anchor:start;fill:#000000;font-family:Arial"
         y="333.92697"
         x="488.70715"
         xml:space="preserve">)</text>
      <text
         id="text5757"
         style="font-size:8.10011864px;font-style:normal;font-weight:bold;text-align:start;text-anchor:start;fill:#000000;font-family:Arial"
         y="335.87714"
         x="493.05719"
         xml:space="preserve"> </text>
      <path
         id="path5759"
         d="m 444.70024,248.94511 c -43.50063,0 -78.7699,-35.08408 -78.7699,-78.38133"
         clip-path="url(#clipEmfPath24)"
         style="fill:none;stroke:#000000;stroke-width:0.31875464px;stroke-linecap:round;stroke-linejoin:round;stroke-opacity:1;stroke-dasharray:none"
         inkscape:connector-curvature="0" />
      <path
         id="path5761"
         d="m 443.95023,90.307296 c -43.08813,0 -78.01989,35.777894 -78.01989,79.881454"
         style="fill:none;stroke:#000000;stroke-width:0.31875464px;stroke-linecap:round;stroke-linejoin:round;stroke-opacity:1;stroke-dasharray:none"
         inkscape:connector-curvature="0" />
    </g>
  </g>
</svg>
